<svg preserveAspectRatio="none" width="100%" height="100%" overflow="visible" style="display: block;" viewBox="0 0 16 16" fill="none" xmlns="http://www.w3.org/2000/svg">
<g id="Frame">
<path id="Vector" d="M6.25009 7.27688C6.32612 7.23298 6.38925 7.16984 6.43313 7.09381C6.47702 7.01778 6.50011 6.93154 6.50009 6.84375V2.34375C6.49965 2.26403 6.48015 2.18558 6.44322 2.11493C6.40629 2.04428 6.35301 1.98349 6.28781 1.93762C6.22261 1.89175 6.14739 1.86213 6.06842 1.85124C5.98945 1.84035 5.90902 1.84849 5.83384 1.875C4.37445 2.39151 3.14717 3.41165 2.3726 4.75204C1.59804 6.09244 1.327 7.66516 1.60822 9.1875C1.62279 9.26622 1.65606 9.34029 1.70522 9.40348C1.75438 9.46667 1.818 9.51714 1.89072 9.55062C1.95625 9.58127 2.02775 9.59706 2.10009 9.59688C2.18785 9.59691 2.27407 9.57384 2.35009 9.53L6.25009 7.27688ZM5.50009 3.10125V6.555L2.50759 8.28187C2.50009 8.1875 2.50009 8.0925 2.50009 8C2.50098 6.98648 2.78152 5.99285 3.31084 5.12853C3.84015 4.2642 4.59771 3.5627 5.50009 3.10125ZM8.00009 1.5C7.86748 1.5 7.74031 1.55268 7.64654 1.64645C7.55277 1.74021 7.50009 1.86739 7.50009 2V7.73875L2.57447 10.6081C2.51731 10.6413 2.46728 10.6854 2.42728 10.738C2.38728 10.7906 2.3581 10.8505 2.34142 10.9145C2.32474 10.9784 2.3209 11.045 2.33011 11.1104C2.33932 11.1758 2.36141 11.2388 2.39509 11.2956C2.97241 12.2771 3.79741 13.0896 4.7875 13.652C5.7776 14.2143 6.89804 14.5067 8.03667 14.4999C9.17529 14.4931 10.2921 14.1872 11.2754 13.613C12.2587 13.0389 13.0739 12.2165 13.6394 11.2282C14.2049 10.2399 14.5008 9.12035 14.4976 7.98171C14.4944 6.84307 14.1922 5.72524 13.6211 4.74015C13.0501 3.75505 12.2303 2.93724 11.2438 2.3686C10.2573 1.79995 9.13874 1.50042 8.00009 1.5ZM8.00009 13.5C7.12724 13.4977 6.26735 13.2887 5.49076 12.8903C4.71416 12.4918 4.04293 11.9152 3.53197 11.2075L8.25197 8.4575C8.3279 8.41366 8.39097 8.35062 8.43485 8.27471C8.47873 8.1988 8.50188 8.11268 8.50197 8.025V2.5225C9.91223 2.65045 11.2188 3.3174 12.1497 4.3845C13.0805 5.4516 13.5639 6.83662 13.4993 8.25119C13.4346 9.66577 12.8268 11.0009 11.8025 11.9786C10.7781 12.9563 9.41614 13.5013 8.00009 13.5Z" fill="var(--fill-0, white)"/>
</g>
</svg>
