<svg preserveAspectRatio="none" width="100%" height="100%" overflow="visible" style="display: block;" viewBox="0 0 24 24" fill="none" xmlns="http://www.w3.org/2000/svg">
<g id="Frame">
<path id="Vector" d="M20.0308 9.53104L12.5307 17.031C12.4611 17.1008 12.3784 17.1561 12.2873 17.1938C12.1963 17.2316 12.0987 17.251 12.0001 17.251C11.9016 17.251 11.804 17.2316 11.7129 17.1938C11.6219 17.1561 11.5392 17.1008 11.4695 17.031L3.9695 9.53104C3.82877 9.39031 3.74971 9.19944 3.74971 9.00042C3.74971 8.80139 3.82877 8.61052 3.9695 8.46979C4.11023 8.32906 4.3011 8.25 4.50012 8.25C4.69915 8.25 4.89002 8.32906 5.03075 8.46979L12.0001 15.4401L18.9695 8.46979C19.0392 8.40011 19.1219 8.34483 19.213 8.30712C19.304 8.26941 19.4016 8.25 19.5001 8.25C19.5987 8.25 19.6963 8.26941 19.7873 8.30712C19.8783 8.34483 19.9611 8.40011 20.0308 8.46979C20.1004 8.53947 20.1557 8.6222 20.1934 8.71324C20.2311 8.80429 20.2505 8.90187 20.2505 9.00042C20.2505 9.09896 20.2311 9.19654 20.1934 9.28759C20.1557 9.37863 20.1004 9.46136 20.0308 9.53104Z" fill="var(--fill-0, white)"/>
</g>
</svg>
