<svg preserveAspectRatio="none" width="100%" height="100%" overflow="visible" style="display: block;" viewBox="0 0 20 20" fill="none" xmlns="http://www.w3.org/2000/svg">
<g id="Frame">
<path id="Vector" d="M17.7976 5.21523L17.7913 5.22227L12.4999 10.8723V15.2074C12.5002 15.4136 12.4495 15.6167 12.3524 15.7985C12.2552 15.9803 12.1145 16.1353 11.9429 16.2496L9.4429 17.9168C9.25451 18.0423 9.03557 18.1143 8.80946 18.125C8.58335 18.1358 8.35856 18.085 8.15908 17.978C7.9596 17.871 7.79292 17.7118 7.67683 17.5175C7.56074 17.3232 7.4996 17.101 7.49994 16.8746V10.8723L2.20853 5.22227L2.20228 5.21523C2.03958 5.03618 1.93234 4.81377 1.89356 4.57497C1.85478 4.33616 1.88614 4.09124 1.98382 3.86991C2.0815 3.64858 2.24131 3.46035 2.44386 3.32805C2.64642 3.19576 2.88301 3.12509 3.12494 3.12461H16.8749C17.1171 3.12463 17.354 3.19498 17.5569 3.32709C17.7598 3.45921 17.92 3.64742 18.0179 3.86884C18.1159 4.09026 18.1474 4.33537 18.1087 4.57439C18.07 4.8134 17.9628 5.03604 17.7999 5.21523H17.7976Z" fill="var(--fill-0, #FF00CA)"/>
</g>
</svg>
