<svg preserveAspectRatio="none" width="100%" height="100%" overflow="visible" style="display: block;" viewBox="0 0 30.3753 30.3753" fill="none" xmlns="http://www.w3.org/2000/svg">
<g id="Frame">
<path id="Vector" d="M28.87 10.787L13.6349 26.0221C13.2789 26.3779 12.7962 26.5777 12.2929 26.5777C11.7896 26.5777 11.3069 26.3779 10.9509 26.0221L2.45298 17.4791C2.09758 17.1231 1.89797 16.6407 1.89797 16.1377C1.89797 15.6347 2.09758 15.1523 2.45298 14.7963L4.82605 12.4232C5.18185 12.0689 5.66353 11.87 6.16565 11.87C6.66778 11.87 7.14945 12.0689 7.50525 12.4232L12.3404 17.1124L23.8213 5.7727C24.1771 5.41803 24.6591 5.21887 25.1615 5.21887C25.6639 5.21887 26.1458 5.41803 26.5017 5.7727L28.8688 8.09119C29.0468 8.2676 29.1882 8.47751 29.2847 8.70881C29.3811 8.94011 29.4309 9.18823 29.431 9.43885C29.4311 9.68947 29.3816 9.93763 29.2853 10.169C29.189 10.4004 29.0479 10.6104 28.87 10.787Z" fill="var(--fill-0, white)"/>
</g>
</svg>
