<svg preserveAspectRatio="none" width="100%" height="100%" overflow="visible" style="display: block;" viewBox="0 0 53.7175 53.7175" fill="none" xmlns="http://www.w3.org/2000/svg">
<g id="Frame" filter="url(#filter0_d_0_9)">
<path d="M0.858766 26.8588C0.858766 12.4994 12.4994 0.858766 26.8588 0.858766V0.858766C41.2182 0.858766 52.8588 12.4994 52.8588 26.8588V26.8588C52.8588 41.2182 41.2182 52.8588 26.8588 52.8588V52.8588C12.4994 52.8588 0.858766 41.2182 0.858766 26.8588V26.8588Z" fill="url(#paint0_linear_0_9)" shape-rendering="crispEdges"/>
<path d="M26.8588 1.51795C40.8542 1.51795 52.1996 12.8633 52.1996 26.8588C52.1996 40.8542 40.8542 52.1996 26.8588 52.1996C12.8633 52.1996 1.51795 40.8542 1.51795 26.8588C1.51795 12.8633 12.8633 1.51795 26.8588 1.51795Z" stroke="var(--stroke-0, white)" stroke-opacity="0.24" stroke-width="1.31797" shape-rendering="crispEdges"/>
<path id="Vector" d="M37.6091 32.3911C36.9731 31.2879 36.0276 28.1666 36.0276 24.0899C36.0276 21.6417 35.0617 19.2937 33.3423 17.5625C31.6229 15.8313 29.2909 14.8588 26.8593 14.8588C24.4278 14.8588 22.0958 15.8313 20.3764 17.5625C18.657 19.2937 17.6911 21.6417 17.6911 24.0899C17.6911 28.1678 16.7445 31.2879 16.1084 32.3911C15.946 32.6715 15.8599 32.9901 15.8588 33.3148C15.8577 33.6394 15.9416 33.9586 16.1021 34.2402C16.2626 34.5217 16.494 34.7557 16.773 34.9185C17.052 35.0813 17.3687 35.1671 17.6911 35.1673H22.368C22.5796 36.2095 23.1421 37.1461 23.9605 37.8187C24.7789 38.4914 25.8029 38.8588 26.8593 38.8588C27.9158 38.8588 28.9398 38.4914 29.7582 37.8187C30.5766 37.1461 31.1391 36.2095 31.3506 35.1673H36.0276C36.3499 35.1669 36.6665 35.0809 36.9453 34.9181C37.2241 34.7552 37.4553 34.5212 37.6157 34.2397C37.7761 33.9581 37.8599 33.639 37.8588 33.3145C37.8576 32.9899 37.7715 32.6714 37.6091 32.3911ZM26.8593 37.0136C26.2907 37.0134 25.7361 36.8358 25.2719 36.5051C24.8076 36.1745 24.4566 35.7071 24.267 35.1673H29.4517C29.2621 35.7071 28.9111 36.1745 28.4468 36.5051C27.9826 36.8358 27.428 37.0134 26.8593 37.0136Z" fill="var(--fill-0, #FF00CA)"/>
</g>
<defs>
<filter id="filter0_d_0_9" x="0" y="0" width="53.7175" height="53.7175" filterUnits="userSpaceOnUse" color-interpolation-filters="sRGB">
<feFlood flood-opacity="0" result="BackgroundImageFix"/>
<feColorMatrix in="SourceAlpha" type="matrix" values="0 0 0 0 0 0 0 0 0 0 0 0 0 0 0 0 0 0 127 0" result="hardAlpha"/>
<feMorphology radius="0.858766" operator="dilate" in="SourceAlpha" result="effect1_dropShadow_0_9"/>
<feOffset/>
<feComposite in2="hardAlpha" operator="out"/>
<feColorMatrix type="matrix" values="0 0 0 0 0.894118 0 0 0 0 0.317647 0 0 0 0 0.996078 0 0 0 1 0"/>
<feBlend mode="normal" in2="BackgroundImageFix" result="effect1_dropShadow_0_9"/>
<feBlend mode="normal" in="SourceGraphic" in2="effect1_dropShadow_0_9" result="shape"/>
</filter>
<linearGradient id="paint0_linear_0_9" x1="-17.1719" y1="-8.96346" x2="110.557" y2="40.0768" gradientUnits="userSpaceOnUse">
<stop offset="0.402519" stop-color="#DE21FF" stop-opacity="0"/>
<stop offset="1" stop-color="#DE21FF"/>
</linearGradient>
</defs>
</svg>
