<svg preserveAspectRatio="none" width="100%" height="100%" overflow="visible" style="display: block;" viewBox="0 0 22 22" fill="none" xmlns="http://www.w3.org/2000/svg">
<g id="Frame">
<path id="Vector" d="M19.2499 7.56185V14.4368C19.2499 14.8015 19.1051 15.1513 18.8472 15.4091C18.5894 15.667 18.2396 15.8118 17.8749 15.8118H10.9999V19.2493C11.0001 19.3854 10.9598 19.5184 10.8843 19.6316C10.8087 19.7447 10.7013 19.8329 10.5756 19.885C10.4499 19.9371 10.3116 19.9507 10.1782 19.9241C10.0447 19.8976 9.92219 19.832 9.82604 19.7358L1.57604 11.4858C1.51212 11.4219 1.46141 11.3461 1.42681 11.2626C1.39221 11.1792 1.3744 11.0897 1.3744 10.9993C1.3744 10.909 1.39221 10.8195 1.42681 10.7361C1.46141 10.6526 1.51212 10.5768 1.57604 10.5129L9.82604 2.26294C9.92219 2.16668 10.0447 2.10112 10.1782 2.07455C10.3116 2.04797 10.4499 2.06159 10.5756 2.11367C10.7013 2.16575 10.8087 2.25395 10.8843 2.36711C10.9598 2.48027 11.0001 2.6133 10.9999 2.74935V6.18685H17.8749C18.2396 6.18685 18.5894 6.33171 18.8472 6.58958C19.1051 6.84744 19.2499 7.19718 19.2499 7.56185Z" fill="var(--fill-0, #FF00CA)"/>
</g>
</svg>
