<svg preserveAspectRatio="none" width="100%" height="100%" overflow="visible" style="display: block;" viewBox="0 0 28 28" fill="none" xmlns="http://www.w3.org/2000/svg">
<g id="Frame">
<path id="Vector" d="M25.1193 23.8812L19.6429 18.4059C21.2302 16.5002 22.0217 14.056 21.8528 11.5817C21.6838 9.10733 20.5675 6.79337 18.7359 5.12116C16.9043 3.44894 14.4986 2.54721 12.0191 2.60356C9.53968 2.65991 7.1774 3.67 5.4237 5.4237C3.67 7.1774 2.65991 9.53968 2.60356 12.0191C2.54721 14.4986 3.44894 16.9043 5.12116 18.7359C6.79337 20.5675 9.10733 21.6838 11.5817 21.8528C14.056 22.0217 16.5002 21.2302 18.4059 19.6429L23.8812 25.1193C23.9625 25.2006 24.059 25.2651 24.1652 25.3091C24.2714 25.3531 24.3853 25.3757 24.5002 25.3757C24.6152 25.3757 24.7291 25.3531 24.8353 25.3091C24.9415 25.2651 25.038 25.2006 25.1193 25.1193C25.2006 25.038 25.2651 24.9415 25.3091 24.8353C25.3531 24.7291 25.3757 24.6152 25.3757 24.5002C25.3757 24.3853 25.3531 24.2714 25.3091 24.1652C25.2651 24.059 25.2006 23.9625 25.1193 23.8812ZM4.37525 12.2502C4.37525 10.6927 4.83711 9.17017 5.70243 7.87513C6.56774 6.5801 7.79765 5.57074 9.23662 4.9747C10.6756 4.37866 12.259 4.22271 13.7866 4.52657C15.3142 4.83042 16.7174 5.58044 17.8187 6.68178C18.9201 7.78312 19.6701 9.18631 19.9739 10.7139C20.2778 12.2415 20.1218 13.8249 19.5258 15.2639C18.9298 16.7028 17.9204 17.9328 16.6254 18.7981C15.3303 19.6634 13.8078 20.1252 12.2502 20.1252C10.1624 20.1229 8.16069 19.2925 6.68434 17.8162C5.20799 16.3398 4.37757 14.3381 4.37525 12.2502Z" fill="var(--fill-0, #FF00CA)"/>
</g>
</svg>
