<svg preserveAspectRatio="none" width="100%" height="100%" overflow="visible" style="display: block;" viewBox="0 0 20 20" fill="none" xmlns="http://www.w3.org/2000/svg">
<g id="Frame">
<path id="Vector" d="M18.75 10V15C18.75 15.1658 18.6842 15.3247 18.5669 15.4419C18.4497 15.5592 18.2908 15.625 18.125 15.625H13.125C13.0013 15.6251 12.8804 15.5885 12.7775 15.5198C12.6746 15.4512 12.5945 15.3535 12.5471 15.2392C12.4998 15.125 12.4874 14.9992 12.5115 14.8779C12.5357 14.7566 12.5953 14.6452 12.6828 14.5578L14.7414 12.5L10.625 8.38359L7.94219 11.0672C7.88414 11.1253 7.81521 11.1714 7.73934 11.2029C7.66346 11.2343 7.58213 11.2505 7.5 11.2505C7.41786 11.2505 7.33654 11.2343 7.26066 11.2029C7.18479 11.1714 7.11586 11.1253 7.05781 11.0672L1.43281 5.44219C1.31554 5.32491 1.24965 5.16585 1.24965 5C1.24965 4.83415 1.31554 4.67509 1.43281 4.55781C1.55009 4.44054 1.70915 4.37465 1.875 4.37465C2.04085 4.37465 2.19991 4.44054 2.31719 4.55781L7.5 9.74141L10.1828 7.05781C10.2409 6.9997 10.3098 6.9536 10.3857 6.92215C10.4615 6.8907 10.5429 6.87451 10.625 6.87451C10.7071 6.87451 10.7885 6.8907 10.8643 6.92215C10.9402 6.9536 11.0091 6.9997 11.0672 7.05781L15.625 11.6164L17.6828 9.55781C17.7702 9.47031 17.8816 9.4107 18.0029 9.38654C18.1242 9.36239 18.25 9.37477 18.3642 9.42211C18.4785 9.46946 18.5762 9.54964 18.6448 9.65251C18.7135 9.75538 18.7501 9.87632 18.75 10Z" fill="var(--fill-0, #FA1D6E)"/>
</g>
</svg>
