<svg width="1800" height="1650" viewBox="0 0 1800 1650" fill="none" xmlns="http://www.w3.org/2000/svg">
<g id="Body 12">
<g id="collar back">
<path id="Vector" d="M853.35 296.64C801.57 296.64 739.25 271.55 686.66 229.51C636 189 604.5 141 604.5 104.14C604.5 16.6101 685.77 9.37012 776.3 9.37012C785.3 9.37012 794.53 9.44012 803.49 9.50012C812.63 9.57012 822.08 9.64012 831.39 9.64012C873.87 9.64012 918.27 15.9801 956.39 27.4801C1000.54 40.7901 1034.81 60.5601 1055.52 84.6501C1075.21 107.56 1082.92 134.15 1078.43 163.65C1072.86 200.27 1046.23 234.11 1003.43 258.93C961.56 283.26 908.25 296.64 853.35 296.64Z" fill="#CE44A2"/>
<path id="Vector_2" d="M776.3 13.8701C794.3 13.8701 812.86 14.1401 831.39 14.1401C942.61 14.1401 1089.89 58.5001 1074 163C1062.85 236.32 964.57 292.14 853.35 292.14C742.13 292.14 609 178.43 609 104.14C609 20.8101 686.21 13.8701 776.3 13.8701ZM776.3 4.87012C725.74 4.87012 685.85 7.34012 655.53 19.3901C637.6 26.5201 624.37 36.4501 615.09 49.7301C605.09 64.0601 599.99 82.3601 599.99 104.14C599.99 123.77 608.32 146.5 624.07 169.88C638.74 191.67 659.41 213.5 683.84 233.03C708.485 252.793 735.709 269.104 764.76 281.51C795.76 294.51 825.55 301.14 853.34 301.14C909.02 301.14 963.13 287.54 1005.71 262.85C1049.71 237.34 1077.11 202.36 1082.89 164.35C1087.58 133.47 1079.53 105.67 1058.89 81.7201C1037.63 56.9701 1002.62 36.7201 957.65 23.1701C919.1 11.5501 874.24 5.17012 831.33 5.17012C822.03 5.17012 812.6 5.10012 803.47 5.03012C794.47 4.97012 785.23 4.90012 776.25 4.90012L776.3 4.87012Z" fill="#17091D"/>
<path id="Vector_3" d="M1054.72 198.64C1043.58 271.96 964.57 333.14 853.35 333.14C742.13 333.14 609 219.43 609 145.14C609 45.1401 720.18 55.1401 831.39 55.1401C942.6 55.1401 1070.61 94.1401 1054.72 198.64Z" fill="#9C398C" stroke="#17091D" stroke-width="9" stroke-linecap="round" stroke-linejoin="round"/>
</g>
<g id="glove 2">
<path id="Vector_4" d="M1417.21 1611.77C1404.34 1611.77 1389.7 1605.69 1375.55 1599.77C1370.72 1597.77 1366.17 1595.87 1361.88 1594.31C1355.12 1591.85 1350.32 1590.71 1346.76 1590.71C1346.17 1590.71 1345.58 1590.75 1345 1590.82C1343.28 1591.06 1341.54 1591.19 1339.8 1591.19C1329.87 1591.19 1320.7 1587.07 1315.27 1580.19C1313.06 1577.44 1311.51 1574.21 1310.76 1570.76C1310 1567.31 1310.05 1563.74 1310.91 1560.31C1310.99 1560.01 1311.05 1559.71 1311.11 1559.39C1314.01 1544.3 1323.49 1499.39 1328.72 1482.62C1330.58 1476.62 1327.85 1468.27 1324.96 1459.41C1321.29 1448.13 1317.11 1435.34 1322.25 1424.41C1322.55 1423.78 1322.85 1423.18 1323.16 1422.59C1331.72 1406.22 1356.69 1374.52 1362.24 1367.59C1361.97 1361.24 1361.14 1338.13 1361.87 1313.65C1363.64 1254.39 1372.62 1244.95 1375.58 1241.85C1376.67 1240.62 1378 1239.62 1379.49 1238.94C1380.98 1238.25 1382.6 1237.88 1384.24 1237.85C1393.56 1237.85 1419.24 1229.17 1439.79 1222.19C1453.79 1217.43 1467.12 1212.93 1475.39 1210.99C1479.32 1210.05 1483.35 1209.57 1487.39 1209.56C1498.39 1209.56 1507.25 1213.3 1514.39 1216.3C1519.65 1218.52 1524.19 1220.44 1528.26 1220.44C1529.67 1220.45 1531.06 1220.2 1532.38 1219.7C1533.11 1219.43 1533.89 1219.29 1534.67 1219.29C1541.17 1219.29 1544.17 1227.84 1546.67 1240.69C1548.53 1250.28 1550.23 1263.59 1551.67 1280.25C1553.91 1305.38 1554.99 1330.8 1555.21 1336.25C1560.9 1346.6 1605.21 1429.46 1599.21 1489.05C1597.4 1507.11 1591.07 1521.42 1580.4 1531.59L1579.73 1532.21C1574.9 1536.66 1570.01 1540.9 1565.17 1544.84C1553.5 1554.46 1540.95 1562.96 1527.68 1570.21C1501.04 1584.52 1483.31 1586.06 1476.92 1586.06C1475.51 1586.07 1474.09 1585.98 1472.69 1585.79H1472.35C1471.87 1585.8 1471.39 1585.89 1470.93 1586.03C1467.7 1586.96 1463.19 1590.15 1457.93 1593.84C1449.16 1600.04 1438.24 1607.76 1424.93 1610.93C1422.4 1611.51 1419.81 1611.79 1417.21 1611.77Z" fill="#CE44A2"/>
<path id="Vector_5" d="M1487.38 1214.05C1505.45 1214.05 1516.93 1224.92 1528.22 1224.92C1530.16 1224.94 1532.09 1224.6 1533.91 1223.92C1534.14 1223.83 1534.38 1223.79 1534.63 1223.79C1546.63 1223.79 1550.77 1337.53 1550.77 1337.53C1550.77 1337.53 1600.9 1427.03 1594.77 1488.65C1593.19 1504.35 1587.97 1518.23 1577.33 1528.37L1576.69 1528.97C1571.8 1533.47 1567.02 1537.61 1562.36 1541.39C1550.92 1550.84 1538.61 1559.18 1525.58 1566.29C1502.52 1578.68 1485.4 1581.61 1476.95 1581.61C1475.76 1581.62 1474.57 1581.54 1473.39 1581.38C1473.06 1581.33 1472.72 1581.31 1472.39 1581.31C1471.49 1581.32 1470.59 1581.46 1469.73 1581.72C1459.73 1584.59 1444.63 1601.66 1423.91 1606.57C1421.72 1607.07 1419.48 1607.32 1417.24 1607.3C1400.99 1607.3 1380.12 1596.23 1363.44 1590.16C1357.14 1587.86 1351.44 1586.29 1346.79 1586.29C1345.99 1586.29 1345.2 1586.34 1344.41 1586.44C1342.89 1586.65 1341.36 1586.76 1339.82 1586.76C1324.15 1586.76 1311.98 1575.3 1315.3 1561.42C1315.39 1561.05 1315.48 1560.67 1315.55 1560.25C1318.74 1543.67 1328.03 1500.04 1333.03 1484.02C1338.03 1468 1318.2 1443.7 1326.34 1426.37C1326.6 1425.82 1326.87 1425.27 1327.16 1424.72C1336.51 1406.84 1366.82 1369.08 1366.82 1369.08C1366.82 1369.08 1360.64 1242.36 1384.26 1242.36C1400.64 1242.36 1455.52 1220.27 1476.44 1215.36C1480.04 1214.5 1483.74 1214.07 1487.44 1214.06M1487.44 1205.06C1483.06 1205.08 1478.7 1205.59 1474.44 1206.6C1465.96 1208.6 1452.59 1213.12 1438.44 1217.92C1419.22 1224.43 1392.91 1233.35 1384.33 1233.35C1382.08 1233.37 1379.85 1233.86 1377.8 1234.79C1375.75 1235.72 1373.91 1237.06 1372.41 1238.74C1366.78 1244.66 1359.1 1258.84 1357.47 1313.51C1356.78 1336.61 1357.47 1357.98 1357.77 1366.09C1350.6 1375.15 1327.55 1404.71 1319.27 1420.54C1318.96 1421.12 1318.66 1421.73 1318.27 1422.47V1422.53C1312.38 1435.08 1316.84 1448.77 1320.78 1460.84C1323.33 1468.65 1325.96 1476.71 1324.52 1481.32C1319.24 1498.25 1309.7 1543.42 1306.8 1558.54C1306.8 1558.54 1306.8 1558.6 1306.8 1558.63C1306.8 1558.82 1306.72 1559.03 1306.67 1559.26C1305.64 1563.35 1305.57 1567.63 1306.47 1571.75C1307.37 1575.87 1309.21 1579.73 1311.85 1583.02C1318.13 1591.02 1328.62 1595.73 1339.91 1595.73C1341.86 1595.73 1343.82 1595.59 1345.75 1595.32C1346.12 1595.27 1346.5 1595.25 1346.88 1595.25C1349.88 1595.25 1354.3 1596.34 1360.46 1598.59C1364.65 1600.11 1369.17 1601.99 1373.94 1603.97C1388.5 1609.97 1403.56 1616.26 1417.33 1616.26C1420.28 1616.27 1423.21 1615.93 1426.08 1615.26C1440.28 1611.9 1451.59 1603.9 1460.69 1597.47C1465.17 1594.3 1469.8 1591.02 1472.3 1590.31H1472.46C1473.98 1590.51 1475.52 1590.6 1477.05 1590.59C1483.78 1590.59 1502.4 1589 1529.93 1574.21C1543.46 1566.82 1556.25 1558.17 1568.14 1548.36C1573.04 1544.36 1578 1540.07 1582.88 1535.58L1583.01 1535.46L1583.6 1534.9C1595.05 1523.99 1601.84 1508.73 1603.76 1489.58C1606.45 1462.58 1599.64 1428 1583.51 1386.75C1576.6 1369.09 1568.66 1351.84 1559.74 1335.1C1559.44 1327.92 1558.35 1303.78 1556.23 1279.9C1554.73 1263.09 1553 1249.62 1551.11 1239.9C1550.25 1234.94 1548.93 1230.07 1547.17 1225.35C1544.34 1218.35 1540.17 1214.86 1534.71 1214.85C1533.39 1214.85 1532.08 1215.09 1530.85 1215.55C1530.03 1215.86 1529.16 1216.01 1528.29 1216C1525.13 1216 1520.98 1214.25 1516.17 1212.22C1508.68 1209.06 1499.36 1205.13 1487.45 1205.13L1487.44 1205.06Z" fill="#17091D"/>
<path id="Vector_6" d="M1344.38 1586.42C1349.38 1585.72 1355.98 1587.42 1363.38 1590.14C1382.45 1597.08 1406.99 1610.55 1423.86 1606.55C1444.57 1601.64 1459.68 1584.55 1469.67 1581.7C1470.85 1581.32 1472.11 1581.21 1473.34 1581.36C1479.67 1582.36 1498.52 1580.78 1525.53 1566.27C1538.56 1559.16 1550.87 1550.82 1562.31 1541.37C1566.98 1537.58 1571.75 1533.44 1576.64 1528.95L1577.28 1528.35C1585.65 1520.23 1591.28 1506.35 1594.72 1488.63C1600.87 1427.01 1550.72 1337.51 1550.72 1337.51C1550.72 1337.51 1546.42 1219.23 1533.86 1223.9C1518.39 1229.67 1504.55 1208.74 1476.36 1215.35C1455.44 1220.26 1400.56 1242.35 1384.18 1242.35C1360.56 1242.35 1366.74 1369.07 1366.74 1369.07C1366.74 1369.07 1336.43 1406.83 1327.08 1424.71C1326.79 1425.26 1326.52 1425.81 1326.26 1426.36C1332.53 1420.63 1363.52 1393.18 1386.33 1389.97C1411.81 1386.39 1474.83 1384.07 1497.44 1378.58C1520.05 1373.09 1538.81 1402.52 1546.84 1437.88C1552.22 1461.49 1565.71 1491.09 1559.1 1513.56C1555.82 1524.74 1547.58 1534.15 1530.92 1540.21C1529.17 1540.85 1527.45 1541.46 1525.78 1542.05C1501.26 1550.6 1483.24 1554.18 1468.91 1557.34C1455.91 1560.2 1445.97 1562.71 1436.91 1568.23C1422.22 1577.23 1397.82 1593.74 1358.91 1582.23C1346.05 1578.42 1331.59 1571.52 1315.38 1560.23C1315.31 1560.65 1315.22 1561.03 1315.13 1561.4C1311.63 1576.61 1326.59 1588.92 1344.38 1586.42Z" fill="#9C398C"/>
<path id="Vector_7" d="M1390.57 1543.13C1390.57 1543.13 1386.38 1512.48 1350.57 1492.13" stroke="#17091D" stroke-width="8.86" stroke-linecap="round" stroke-linejoin="round"/>
<path id="Vector_8" d="M1371.86 1512.65C1371.86 1512.65 1336.51 1556.23 1366.51 1594.45" stroke="#17091D" stroke-width="8.86" stroke-linecap="round" stroke-linejoin="round"/>
<path id="Vector_9" d="M1455.58 1510.44C1455.58 1510.44 1474.99 1557.3 1469.23 1584.36" stroke="#17091D" stroke-width="10.67" stroke-linecap="round" stroke-linejoin="round"/>
<path id="Vector_10" d="M1518.18 1514.17C1518.18 1514.17 1535.44 1557.86 1521.64 1573.73" stroke="#17091D" stroke-width="8.79" stroke-linecap="round" stroke-linejoin="round"/>
<path id="Vector_11" d="M1558.81 1512.72C1558.81 1512.72 1570.7 1539.99 1555.6 1552.1" stroke="#17091D" stroke-width="7" stroke-linecap="round" stroke-linejoin="round"/>
<path id="Vector_12" d="M1425 1567C1432.18 1567 1438 1554.24 1438 1538.5C1438 1522.76 1432.18 1510 1425 1510C1417.82 1510 1412 1522.76 1412 1538.5C1412 1554.24 1417.82 1567 1425 1567Z" fill="#D969BD"/>
<path id="Vector_13" d="M1496.06 1539.13C1503.02 1537.35 1506.16 1526.15 1503.08 1514.11C1500 1502.07 1491.86 1493.75 1484.91 1495.53C1477.95 1497.31 1474.81 1508.51 1477.89 1520.55C1480.97 1532.59 1489.1 1540.91 1496.06 1539.13Z" fill="#D969BD"/>
<path id="Vector_14" d="M1540.37 1518.54C1546.38 1517 1549.51 1508.94 1547.36 1500.54C1545.21 1492.14 1538.6 1486.58 1532.59 1488.12C1526.58 1489.65 1523.45 1497.71 1525.6 1506.11C1527.75 1514.51 1534.36 1520.07 1540.37 1518.54Z" fill="#D969BD"/>
</g>
<g id="qrm 2">
<path id="Vector_15" d="M1336.82 1324C1336.4 1324 1335.99 1323.94 1335.59 1323.83C1334.71 1323.58 1333.93 1323.07 1333.35 1322.37C1332.77 1321.66 1332.42 1320.8 1332.34 1319.89C1330.86 1302.75 1318.19 1151.75 1329.08 1128.89C1336.85 1112.61 1313.08 1050.25 1302.93 1023.62C1300.03 1016.01 1297.93 1010.51 1297.02 1007.5C1292.43 992.5 1275.2 804.71 1274.47 796.72C1274.45 796.473 1274.45 796.226 1274.47 795.98C1274.64 793.71 1291.62 568.78 1298.97 475.23C1301.79 439.23 1302.25 434.96 1302.38 434.13C1302.81 427.6 1295.54 334.49 1290.52 273.31C1290.44 272.316 1290.68 271.322 1291.22 270.485C1291.77 269.647 1292.57 269.013 1293.51 268.682C1294.45 268.352 1295.48 268.343 1296.42 268.657C1297.37 268.972 1298.18 269.592 1298.74 270.42C1304.38 278.76 1437.1 475.59 1455.15 557.49C1473.86 642.37 1505.97 779.14 1511.48 797.4C1515.78 811.66 1517.02 826.23 1518.11 839.08C1518.51 843.77 1518.88 848.19 1519.38 852.46C1520.44 861.57 1529.98 872.36 1539.21 882.79C1544.79 889.11 1550.57 895.64 1554.7 902.06C1563.57 915.85 1571.08 983.87 1578.02 1052.37C1579.02 1062.26 1579.88 1070.81 1580.53 1076.55C1584.28 1109.81 1585.22 1258.55 1585.26 1264.85C1585.26 1265.44 1585.15 1266.03 1584.93 1266.58C1584.7 1267.13 1584.37 1267.63 1583.95 1268.05C1583.53 1268.47 1583.04 1268.8 1582.49 1269.03C1581.94 1269.25 1581.35 1269.37 1580.76 1269.37H1580.62C1576.34 1269.37 1474.86 1269.6 1402.87 1289.31C1371.22 1297.98 1350.22 1309.02 1340.44 1322.14C1340.03 1322.71 1339.48 1323.18 1338.85 1323.5C1338.22 1323.83 1337.53 1324 1336.82 1324Z" fill="#CE44A2"/>
<path id="Vector_16" d="M1295 273C1295 273 1432.67 476.51 1450.75 558.51C1468.83 640.51 1501.5 780 1507.16 798.76C1512.82 817.52 1512.98 836.57 1514.9 853.04C1516.82 869.51 1539.99 887.6 1550.9 904.55C1561.81 921.5 1572.26 1043.71 1576.04 1077.11C1579.82 1110.51 1580.74 1264.93 1580.74 1264.93H1580.6C1576.32 1264.93 1474.29 1265.14 1401.66 1285.03C1372.66 1292.97 1348.33 1304.03 1336.81 1319.51C1336.81 1319.51 1322.45 1153.25 1333.13 1130.88C1343.81 1108.51 1305.81 1020.98 1301.31 1006.24C1296.81 991.5 1279 796.37 1279 796.37C1279 796.37 1296.06 570.26 1303.5 475.64C1305.39 451.5 1306.67 435.92 1306.87 434.84C1307.82 429.51 1295 273 1295 273ZM1295 264C1293.98 264.001 1292.96 264.173 1292 264.51C1290.12 265.167 1288.51 266.428 1287.43 268.097C1286.34 269.765 1285.84 271.746 1286 273.73C1290.72 331.42 1298.08 425.45 1297.85 433.84C1297.63 435.58 1297.01 442.23 1294.45 474.94C1287.09 568.49 1270.12 793.44 1269.95 795.7C1269.9 796.199 1269.9 796.701 1269.95 797.2C1271.79 817.26 1288.04 993.7 1292.67 1008.87C1293.67 1012.03 1295.76 1017.59 1298.67 1025.29C1304.37 1040.29 1313 1062.87 1319.02 1083.66C1328.35 1115.88 1325.92 1124.98 1324.96 1127.01C1322.85 1131.43 1320.39 1140.28 1320.15 1169.72C1320.01 1186.47 1320.61 1208.11 1321.93 1234.05C1324.16 1278.05 1327.76 1319.87 1327.79 1320.29C1327.95 1322.11 1328.65 1323.84 1329.81 1325.25C1330.98 1326.66 1332.54 1327.68 1334.3 1328.18C1336.05 1328.68 1337.92 1328.63 1339.65 1328.04C1341.38 1327.46 1342.89 1326.36 1343.98 1324.89C1352.98 1312.77 1373.76 1301.99 1403.98 1293.72C1475.39 1274.16 1576.28 1273.93 1580.54 1273.93H1580.68C1583.07 1273.93 1585.36 1272.98 1587.04 1271.29C1588.73 1269.61 1589.68 1267.32 1589.68 1264.93C1589.68 1258.61 1588.68 1109.65 1584.92 1076.16C1584.28 1070.44 1583.41 1061.91 1582.41 1052.03C1573.67 965.61 1566.94 913.03 1558.41 899.74C1554.08 893.02 1548.19 886.36 1542.5 879.92C1534.14 870.47 1524.67 859.76 1523.77 852.05C1523.28 847.85 1522.91 843.46 1522.51 838.81C1521.4 825.74 1520.14 810.92 1515.71 796.21C1510.34 778.43 1477.71 639.61 1459.47 556.63C1451.76 521.63 1422.92 462.39 1373.74 380.43C1337.36 319.79 1302.74 268.52 1302.38 268.01C1301.56 266.784 1300.45 265.778 1299.15 265.081C1297.85 264.383 1296.4 264.015 1294.93 264.01L1295 264Z" fill="#17091D"/>
<path id="Vector_17" d="M1464.82 944.51C1428.82 954.51 1394.61 938.67 1383.21 988.59C1371.81 1038.51 1385 1120.64 1398.41 1138.08C1404.47 1145.95 1401.87 1287.53 1401.32 1303.01C1372.32 1310.95 1342.84 1326.55 1331.32 1342.01C1331.32 1342.01 1322.46 1153.25 1333.14 1130.88C1343.82 1108.51 1305.82 1020.98 1301.32 1006.24C1296.82 991.5 1279 796.37 1279 796.37C1279 796.37 1296.06 570.26 1303.5 475.64L1316 300C1316 300 1390.68 626.75 1386 692C1381.32 757.25 1298.28 904.3 1364.55 893.9C1430.82 883.5 1470.9 866.02 1458.86 887.27C1446.82 908.52 1414.1 900.27 1398.32 915.01C1382.54 929.75 1435.65 915.01 1468.23 918.77C1500.81 922.53 1500.82 934.51 1464.82 944.51Z" fill="#9C398C"/>
<path id="Vector_18" d="M1296.35 967.18C1307.35 960.18 1318.41 953.4 1329.51 946.65C1340.61 939.9 1351.77 933.24 1362.99 926.65C1374.21 920.06 1385.55 913.71 1396.99 907.52L1405.65 902.96C1408.54 901.45 1411.5 900.03 1414.42 898.56L1416.62 897.47L1418.86 896.47L1423.36 894.42C1424.11 894.09 1424.84 893.72 1425.62 893.42L1427.95 892.5L1432.6 890.66C1433.41 890.363 1434.3 890.387 1435.09 890.725C1435.87 891.064 1436.5 891.692 1436.84 892.481C1437.19 893.27 1437.21 894.159 1436.92 894.966C1436.62 895.773 1436.03 896.436 1435.26 896.82L1435.01 896.94L1430.74 898.94L1428.61 899.94C1427.9 900.27 1427.2 900.68 1426.49 901.04L1422.27 903.28L1420.16 904.4L1418.08 905.6C1415.3 907.21 1412.51 908.76 1409.75 910.41L1401.5 915.41C1390.5 922.19 1379.73 929.21 1368.97 936.35C1358.21 943.49 1347.56 950.78 1336.97 958.14C1326.38 965.5 1315.77 972.95 1305.32 980.45C1303.6 981.687 1301.45 982.189 1299.36 981.845C1297.26 981.5 1295.39 980.339 1294.16 978.615C1292.92 976.891 1292.42 974.746 1292.76 972.652C1293.1 970.558 1294.27 968.687 1295.99 967.45L1296.35 967.18Z" fill="#17091D"/>
<path id="Vector_19" d="M1480.32 912C1480.32 912 1388.87 911 1349.32 944" stroke="#17091D" stroke-width="10" stroke-linecap="round" stroke-linejoin="round"/>
<path id="Vector_20" d="M1368.54 944.53C1394.94 926.41 1403.27 933.99 1373.69 952.3L1373.41 952.45C1355.08 960.81 1338.89 972.45 1321.58 982.27C1321.03 982.576 1320.4 982.677 1319.78 982.553C1319.17 982.43 1318.62 982.092 1318.23 981.599C1317.85 981.106 1317.65 980.491 1317.68 979.866C1317.71 979.241 1317.96 978.646 1318.39 978.19C1330 966.21 1357.81 952.4 1368.54 944.53Z" fill="#5C2C66"/>
<path id="Vector_21" d="M1342.53 1363.24C1339.17 1363.26 1335.88 1362.28 1333.07 1360.44C1330.25 1358.6 1328.05 1355.97 1326.72 1352.88C1322.59 1343.19 1321.09 1331.77 1320.57 1323.88C1320.24 1319.21 1321.06 1314.52 1322.94 1310.23C1324.83 1305.94 1327.73 1302.18 1331.4 1299.26C1344.02 1289.26 1368.64 1278.91 1400.71 1270.05C1444.19 1258.05 1489.31 1251.15 1524.51 1251.15C1558.43 1251.15 1581.81 1257.26 1593.98 1269.29C1614.52 1289.6 1600.19 1314.23 1595.48 1322.29C1592.86 1326.77 1589.12 1330.48 1584.61 1333.06C1580.11 1335.64 1575.02 1337 1569.83 1336.99C1568.3 1336.99 1566.77 1336.87 1565.26 1336.64C1552.39 1334.76 1539.39 1333.87 1526.38 1333.96C1455.87 1333.96 1371.38 1355.84 1347.17 1362.55C1345.66 1362.99 1344.1 1363.22 1342.53 1363.24Z" fill="#CE44A2"/>
<path id="Vector_22" d="M1524.51 1255.67C1554.41 1255.67 1578.79 1260.62 1590.82 1272.51C1607.95 1289.44 1597.46 1309.99 1591.59 1320.08C1589.37 1323.88 1586.19 1327.03 1582.37 1329.21C1578.55 1331.4 1574.23 1332.55 1569.83 1332.55C1568.53 1332.55 1567.23 1332.45 1565.95 1332.25C1552.85 1330.34 1539.62 1329.43 1526.38 1329.52C1456.07 1329.52 1373.17 1350.74 1345.97 1358.27C1343.01 1359.1 1339.85 1358.83 1337.08 1357.51C1334.3 1356.2 1332.09 1353.92 1330.86 1351.11C1326.97 1341.99 1325.56 1331.11 1325.06 1323.6C1324.78 1319.65 1325.47 1315.7 1327.06 1312.08C1328.65 1308.45 1331.1 1305.27 1334.19 1302.8C1347.04 1292.65 1372.19 1282.62 1401.91 1274.4C1442.65 1263.16 1487.75 1255.67 1524.51 1255.67ZM1524.51 1246.67C1488.92 1246.67 1443.36 1253.62 1399.51 1265.73C1376.42 1272.11 1345.38 1282.5 1328.61 1295.73C1324.37 1299.1 1321.02 1303.46 1318.83 1308.41C1316.65 1313.37 1315.71 1318.79 1316.08 1324.19C1316.63 1332.41 1318.2 1344.36 1322.58 1354.64C1324.68 1359.45 1328.44 1363.35 1333.18 1365.61C1337.92 1367.87 1343.31 1368.34 1348.37 1366.94C1372.45 1360.27 1456.45 1338.51 1526.37 1338.51C1539.15 1338.42 1551.91 1339.3 1564.56 1341.14C1569.3 1341.87 1574.15 1341.6 1578.78 1340.35C1583.08 1339.21 1587.11 1337.23 1590.64 1334.52C1594.17 1331.82 1597.14 1328.44 1599.36 1324.59C1602.98 1318.37 1607.36 1309.95 1608.73 1300.13C1610.57 1287.19 1606.57 1275.42 1597.14 1266.13C1584.09 1253.23 1559.65 1246.69 1524.51 1246.69V1246.67Z" fill="#17091D"/>
<path id="Vector_23" d="M1576.44 1331.67C1573.02 1332.59 1569.45 1332.79 1565.95 1332.25C1490.89 1320.62 1378.53 1349.25 1345.95 1358.25C1342.99 1359.08 1339.83 1358.82 1337.05 1357.5C1334.27 1356.19 1332.07 1353.91 1330.84 1351.09C1326.95 1341.97 1325.54 1331.09 1325.04 1323.58C1324.76 1319.63 1325.45 1315.68 1327.04 1312.06C1328.63 1308.43 1331.08 1305.25 1334.17 1302.78C1347.02 1292.63 1372.17 1282.6 1401.89 1274.38C1401.89 1274.38 1391.48 1305.31 1401.89 1314.65C1412.3 1323.99 1462.79 1317.99 1488.04 1319.49C1505.88 1320.55 1538.04 1322.36 1555.42 1323.33C1563.13 1323.76 1570.5 1326.68 1576.42 1331.65L1576.44 1331.67Z" fill="#9C398C"/>
<path id="Vector_24" d="M1576.67 1277.26C1578.7 1278.01 1580.53 1279.21 1582.02 1280.77C1583.52 1282.33 1584.64 1284.2 1585.31 1286.26C1586.82 1291.02 1586.75 1296.14 1585.11 1300.85C1583.47 1305.57 1580.35 1309.62 1576.22 1312.42C1574.42 1313.64 1572.38 1314.44 1570.23 1314.76C1568.08 1315.07 1565.89 1314.9 1563.82 1314.26C1561.79 1313.51 1559.96 1312.31 1558.46 1310.75C1556.97 1309.2 1555.84 1307.32 1555.18 1305.26C1553.67 1300.5 1553.74 1295.38 1555.38 1290.66C1557.02 1285.95 1560.14 1281.89 1564.27 1279.09C1566.07 1277.87 1568.11 1277.07 1570.26 1276.76C1572.41 1276.44 1574.6 1276.61 1576.67 1277.26ZM1574.75 1281.53C1573.26 1281.14 1571.69 1281.09 1570.18 1281.41C1568.67 1281.72 1567.25 1282.38 1566.03 1283.33C1563.08 1285.55 1560.91 1288.66 1559.85 1292.2C1558.69 1295.69 1558.69 1299.47 1559.85 1302.96C1560.3 1304.42 1561.09 1305.76 1562.16 1306.86C1563.23 1307.96 1564.54 1308.79 1565.99 1309.29C1567.48 1309.68 1569.05 1309.73 1570.56 1309.41C1572.07 1309.1 1573.49 1308.44 1574.71 1307.49C1577.66 1305.26 1579.83 1302.16 1580.9 1298.62C1582.06 1295.13 1582.06 1291.36 1580.9 1287.87C1580.45 1286.4 1579.66 1285.06 1578.59 1283.96C1577.52 1282.86 1576.2 1282.03 1574.75 1281.53Z" fill="#5C2C66"/>
<path id="Vector_25" d="M1580.86 1298.62C1583.28 1290.95 1580.55 1283.3 1574.75 1281.53C1568.95 1279.76 1562.27 1284.53 1559.85 1292.2C1557.43 1299.87 1560.15 1307.52 1565.95 1309.29C1571.75 1311.06 1578.43 1306.28 1580.86 1298.62Z" fill="#D969BD"/>
</g>
<g id="body">
<path id="Vector_26" d="M960.35 1486.33C950.77 1486.33 940.94 1486.2 931.15 1485.96C715.52 1480.71 514 1418.81 512 1418.19C510.868 1417.84 509.918 1417.06 509.356 1416.02C508.795 1414.98 508.667 1413.76 509 1412.62C509.12 1412.21 520.94 1369.34 497 1274.25C475.05 1187.11 482.72 1171.82 494.33 1148.68C495.92 1145.51 497.56 1142.23 499.2 1138.59C512.13 1109.82 513.53 973.46 508.1 928.96C502.7 884.69 511.52 752.03 511.98 745.08C512.06 741.68 512.127 738.307 512.18 734.96C515.51 520.96 463.93 405.39 420.07 346.17C372.76 282.29 324.07 268.51 323.58 268.38C322.681 268.134 321.88 267.615 321.288 266.895C320.696 266.175 320.342 265.289 320.274 264.359C320.206 263.43 320.428 262.502 320.909 261.703C321.39 260.905 322.106 260.275 322.96 259.9C407.89 223.16 494.07 174.42 537.88 148.63C559.88 135.63 573.35 127.26 573.48 127.18C574.195 126.727 575.024 126.487 575.87 126.49C576.18 126.488 576.488 126.522 576.79 126.59L652.94 142.59C654.028 142.82 654.994 143.443 655.65 144.34C656.07 144.93 698.78 203.34 754.89 256.98C806.27 306.11 851.96 335.6 890.68 344.65C894.02 345.45 897.4 346.09 900.76 346.56H900.92H901.22C901.293 346.555 901.367 346.555 901.44 346.56C904.34 346.97 907.29 347.25 910.23 347.4C911.36 347.45 912.5 347.48 913.63 347.48C932 347.48 950.16 340.33 969.15 325.63C1000.15 301.7 1026.48 262.55 1047.68 231.09C1053.37 222.64 1058.76 214.65 1063.76 207.65C1076.22 190.22 1086.49 178.65 1096.1 178.65C1098.43 178.655 1100.7 179.351 1102.63 180.65C1103.7 181.36 1104.8 182.06 1105.91 182.76C1166.24 220.91 1290.51 262.97 1291.76 263.4C1292.42 263.623 1293.03 263.996 1293.52 264.49C1317.19 288.41 1322.95 376.68 1324.28 427.17C1326.08 495.68 1321.83 572.85 1314.4 606.68C1302.21 662.14 1290.74 825.18 1281.12 977.35C1280.38 989.07 1279.67 1000.5 1278.97 1011.53L1278.75 1015.09C1270.99 1138.99 1287.2 1173.71 1301.5 1204.35C1303.21 1208 1304.97 1211.77 1306.63 1215.58C1320.51 1247.33 1297.82 1280.33 1284.26 1300.05C1281.73 1303.74 1279.54 1306.92 1278.15 1309.31C1272.32 1319.37 1277.15 1380.71 1281.56 1417.02C1281.67 1417.93 1281.5 1418.85 1281.07 1419.66C1280.65 1420.46 1279.99 1421.13 1279.18 1421.55C1204.86 1460.47 1109.51 1482.06 995.77 1485.71C984.19 1486.13 972.27 1486.33 960.35 1486.33Z" fill="#CE44A2"/>
<path id="Vector_27" d="M575.86 131L581.81 132.25L620.74 140.44L652 147C652 147 694.69 205.66 751.77 260.24C793.71 300.34 843.41 338.24 889.65 349.04C893.16 349.88 896.65 350.54 900.12 351.04L900.8 351.13C903.887 351.57 906.954 351.863 910 352.01C911.21 352.07 912.42 352.1 913.62 352.1C934.62 352.1 954.04 343.1 971.89 329.31C1011.82 298.44 1043.82 243.38 1067.41 210.39C1079.04 194.13 1088.62 183.23 1096.09 183.23C1097.54 183.229 1098.95 183.661 1100.15 184.47C1101.24 185.19 1102.36 185.91 1103.5 186.63C1164.98 225.5 1290.31 267.72 1290.31 267.72C1328.62 306.41 1324 542 1310 605.76C1297.21 663.99 1285.27 840.42 1276.63 977.12C1275.81 990.12 1275.02 1002.73 1274.26 1014.86C1265.5 1154.71 1287.01 1182 1302.51 1217.43C1318.01 1252.86 1283.01 1292 1274.26 1307.11C1265.51 1322.22 1277.09 1417.61 1277.09 1417.61C1195.02 1460.61 1095.42 1478.06 995.63 1481.26C983.864 1481.64 972.107 1481.83 960.36 1481.83C950.64 1481.83 940.944 1481.71 931.27 1481.46C713.77 1476.17 513.33 1413.89 513.33 1413.89C513.33 1413.89 526.01 1371 501.33 1273.15C476.65 1175.3 490 1170 503.29 1140.44C516.58 1110.88 518 973 512.56 928.42C507.12 883.84 516.47 745.29 516.47 745.29C516.55 741.843 516.617 738.423 516.67 735.03C523.18 317.03 324.74 264.03 324.74 264.03C408.91 227.62 493.82 179.78 540.15 152.51C562.49 139.36 575.86 131 575.86 131ZM575.86 122C574.17 122.001 572.514 122.476 571.08 123.37C570.95 123.45 557.54 131.84 535.58 144.76C491.87 170.5 405.88 219.14 321.17 255.76C319.438 256.493 317.979 257.751 316.999 259.355C316.018 260.96 315.565 262.832 315.703 264.708C315.841 266.584 316.563 268.369 317.768 269.813C318.973 271.258 320.6 272.288 322.42 272.76C322.51 272.76 334.5 276.15 352.07 287.25C368.29 297.5 392.72 316.64 416.97 349.59C460.17 408.28 510.97 522.76 507.67 734.92C507.67 737.92 507.57 741.06 507.48 744.92C506.94 752.98 498.2 885.06 503.63 929.55C509.45 977.24 506.78 1110.76 495.08 1136.79C493.48 1140.34 491.86 1143.58 490.29 1146.7C484.61 1158.05 479.23 1168.76 478.62 1187.9C477.99 1207.44 482.31 1234.42 492.62 1275.39C504.93 1324.26 507.55 1358.67 507.62 1378.92C507.62 1400.82 504.74 1411.32 504.72 1411.43C504.052 1413.7 504.308 1416.13 505.432 1418.21C506.556 1420.29 508.458 1421.84 510.72 1422.52C511.22 1422.68 562.12 1438.41 638.95 1454.52C709.84 1469.41 818.08 1487.73 931.11 1490.52C940.94 1490.76 950.8 1490.89 960.42 1490.89C972.42 1490.89 984.36 1490.69 995.98 1490.31C1110.4 1486.65 1206.41 1464.89 1281.33 1425.64C1282.95 1424.79 1284.27 1423.47 1285.12 1421.85C1285.97 1420.23 1286.3 1418.39 1286.08 1416.58C1286.08 1416.35 1283.22 1392.89 1281.45 1367.84C1278.13 1320.71 1281.7 1312.45 1282.12 1311.67C1283.41 1309.43 1285.55 1306.32 1288.03 1302.67C1294.66 1293.03 1303.74 1279.83 1309.61 1264.85C1316.98 1246.05 1317.39 1228.85 1310.82 1213.85C1309.13 1209.99 1307.36 1206.19 1305.64 1202.52C1291.57 1172.37 1275.64 1138.19 1283.3 1015.44L1283.57 1011.15C1284.25 1000.35 1284.95 989.15 1285.67 977.71C1295.28 825.71 1306.73 662.88 1318.85 607.71C1326.35 573.58 1330.64 495.94 1328.85 427.12C1327.85 388.07 1324.93 353.25 1320.48 326.44C1314.96 293.2 1307.21 271.93 1296.79 261.44C1295.8 260.441 1294.59 259.688 1293.26 259.24C1292.02 258.82 1168.26 216.91 1108.39 179.07C1107.21 178.33 1106.16 177.65 1105.19 177.01C1102.53 175.229 1099.39 174.279 1096.19 174.28C1084.62 174.28 1073.84 186.12 1060.19 205.21C1055.19 212.21 1049.75 220.27 1044.03 228.75C1023.03 259.94 996.86 298.75 966.49 322.24C948.31 336.31 931.05 343.15 913.72 343.15C912.66 343.15 911.6 343.15 910.54 343.07C907.75 342.93 904.93 342.66 902.17 342.27H901.72H901.48C898.26 341.81 895.02 341.2 891.84 340.44C853.84 331.57 808.84 302.44 758.09 253.89C702.29 200.53 659.8 142.43 659.38 141.89C658.064 140.091 656.131 138.841 653.95 138.38L622.69 131.81L583.76 123.62L577.81 122.37C577.202 122.242 576.582 122.178 575.96 122.18L575.86 122Z" fill="#17091D"/>
<path id="Vector_28" d="M1277.08 1417.61C1195.01 1460.61 1095.41 1478.06 995.62 1481.26C974.11 1481.96 952.62 1481.99 931.26 1481.46C713.76 1476.17 513.32 1413.89 513.32 1413.89C513.32 1413.89 526 1371 501.32 1273.15C476.64 1175.3 490 1170 503.29 1140.44C516.58 1110.88 518 973 512.56 928.42C507.12 883.84 516.47 745.29 516.47 745.29C516.55 741.84 516.95 718.39 517 715C521.56 697.3 527.83 691.38 536.4 656.67C554.5 583.5 574.7 558.89 571.1 603.2C568.81 631.34 557.69 704.38 553.98 779.29C550.287 853.229 563.275 927.051 591.98 995.29C605.86 1028.23 623.41 1064.51 643.52 1094.48C694.52 1170.48 609.52 1135.48 591.52 1176.48C573.52 1217.48 646.52 1315.89 878.52 1321.18C903.374 1321.75 926.787 1322.13 948.76 1322.34C976.234 1322.58 1001.57 1322.5 1024.76 1322.11C1156.89 1319.78 1223.48 1306.24 1248.5 1273.98C1281.5 1231.48 1307.76 1254.43 1282.61 1199.98C1257.46 1145.53 1249.46 1083.5 1258.46 1043.5C1262.71 1024.62 1270.03 998.96 1276.58 977.12C1275.76 990.12 1274.97 1002.73 1274.21 1014.86C1265.45 1154.71 1286.96 1182 1302.46 1217.43C1317.96 1252.86 1282.96 1292 1274.21 1307.11C1265.46 1322.22 1277.08 1417.61 1277.08 1417.61Z" fill="#9C398C"/>
</g>
<g id="glove 1">
<path id="Vector_29" d="M486 1632.18C474.17 1632.18 463.08 1628.76 454.17 1626C448.26 1624.18 443.17 1622.6 439.76 1622.6H439.41C438.823 1622.59 438.242 1622.71 437.7 1622.93C432.95 1625.32 422.7 1627.85 408.26 1627.85C399.011 1627.79 389.786 1626.92 380.69 1625.25H380.57C365.683 1622.48 351.094 1618.3 337 1612.77C331.18 1610.54 325.21 1608.03 319.26 1605.32L318.38 1604.9C305.1 1598.57 294.64 1586.9 287.31 1570.34C263.39 1516.12 279.11 1424.98 281.56 1411.82C279.61 1407.67 273.5 1394.51 267.91 1380.37C255.23 1348.27 256.01 1338.88 257.71 1334.6C258.097 1333.52 258.711 1332.53 259.512 1331.7C260.312 1330.88 261.28 1330.23 262.35 1329.81C267.35 1327.87 272.82 1325.69 278.59 1323.38C313.29 1309.5 360.82 1290.5 398.99 1290.5C410.68 1290.5 420.99 1292.29 429.67 1295.84C430.13 1296.03 430.6 1296.25 431.09 1296.5C432.305 1297.11 433.46 1297.84 434.54 1298.67C454.33 1313.5 471.68 1370.54 474.79 1381.19C482.2 1386.07 515.79 1408.47 529.06 1421.37C529.54 1421.84 530.01 1422.37 530.46 1422.8C531.59 1424 532.65 1425.26 533.65 1426.56C539.48 1434.19 542.23 1442.43 544.89 1450.41C547.13 1457.15 549.26 1463.51 553.09 1468.91C558.89 1477.06 564.95 1495.91 570.8 1514.14C575.12 1527.56 579.57 1541.43 583 1547.62L583.48 1548.45C585.533 1551.69 586.737 1555.4 586.98 1559.23C587.223 1563.06 586.497 1566.89 584.87 1570.36C580.79 1579.47 571.71 1586.09 560.57 1588.08C555.88 1588.92 549.8 1593.37 545.57 1596.64C541.98 1599.46 538.24 1602.64 534.28 1606.08C520.81 1617.64 505.54 1630.75 490.79 1631.98C489.28 1632.11 487.63 1632.18 486 1632.18Z" fill="#CE44A2"/>
<path id="Vector_30" d="M399 1295C409.57 1295 419.38 1296.49 428 1300C428.34 1300.14 428.7 1300.31 429.07 1300.5C430.055 1301 430.992 1301.59 431.87 1302.26C452.29 1317.57 471 1384 471 1384C471 1384 511.54 1410.47 526 1424.56C526.44 1424.99 526.87 1425.43 527.29 1425.87C528.29 1426.98 529.29 1428.11 530.16 1429.26C540.39 1442.65 540.62 1458.98 549.51 1471.48C559.24 1485.15 570.97 1535 579.15 1549.77C579.35 1550.14 579.55 1550.48 579.75 1550.77C587.94 1564.1 577.55 1580.44 559.86 1583.6C554.86 1584.49 549.15 1588.17 542.93 1593.05C526.93 1605.57 507.82 1626.05 490.55 1627.44C489.04 1627.57 487.55 1627.63 486.03 1627.63C466.91 1627.63 449.55 1618.05 439.79 1618.05H439.28C438.038 1618.06 436.813 1618.34 435.69 1618.87C431.93 1620.75 422.69 1623.3 408.29 1623.3C399.269 1623.24 390.271 1622.39 381.4 1620.75C366.809 1618.04 352.511 1613.94 338.7 1608.51C333.1 1606.36 327.273 1603.91 321.22 1601.16L320.43 1600.79C307.17 1594.46 297.89 1582.89 291.51 1568.45C266.51 1511.8 286.34 1411.15 286.34 1411.15C286.34 1411.15 251.5 1338.83 264 1334C299.4 1320.32 355.52 1295 399 1295ZM399 1286C360 1286 312 1305.2 276.92 1319.21C271.17 1321.52 265.73 1323.69 260.74 1325.62C259.096 1326.27 257.605 1327.26 256.365 1328.52C255.125 1329.78 254.163 1331.28 253.54 1332.94C251.27 1338.69 250.7 1349.01 263.75 1382.03C268.95 1395.2 274.47 1407.24 276.89 1412.44C273.697 1430.86 271.563 1449.45 270.5 1468.12C267.98 1512.34 272.26 1547.34 283.21 1572.12C290.99 1589.73 302.21 1602.12 316.48 1608.94L317.34 1609.34H317.41C323.41 1612.09 329.49 1614.63 335.41 1616.9C349.755 1622.53 364.602 1626.78 379.75 1629.6H379.93C389.268 1631.31 398.738 1632.19 408.23 1632.25C421.01 1632.25 432.62 1630.3 439.38 1627.01H439.73C442.44 1627.01 447.48 1628.56 452.81 1630.21C462.01 1633.05 473.46 1636.58 485.97 1636.58C487.75 1636.58 489.52 1636.51 491.24 1636.37C507.44 1635.01 523.24 1621.37 537.24 1609.37C541.17 1606 544.87 1602.82 548.38 1600.06C554.25 1595.46 558.62 1592.88 561.38 1592.39C573.97 1590.14 584.29 1582.55 588.98 1572.08C590.885 1567.94 591.732 1563.39 591.446 1558.84C591.16 1554.29 589.749 1549.88 587.34 1546.01V1545.95C587.23 1545.76 587.12 1545.59 587.03 1545.41C587.032 1545.38 587.032 1545.36 587.03 1545.33C583.82 1539.52 579.43 1525.86 575.18 1512.64C568.95 1493.23 563.06 1474.9 556.85 1466.18C553.41 1461.34 551.39 1455.28 549.25 1448.86C546.6 1440.93 543.6 1431.93 537.32 1423.71C536.23 1422.29 535.07 1420.92 533.87 1419.63L533.81 1419.57C533.26 1419 532.81 1418.5 532.3 1418.04C519.48 1405.54 488.3 1384.57 478.73 1378.22C477 1372.41 473 1359.56 467.52 1345.5C457.17 1318.96 447.3 1302.42 437.33 1294.95C436.033 1293.97 434.651 1293.1 433.2 1292.36C432.61 1292.06 432.04 1291.79 431.5 1291.57C422.26 1287.79 411.37 1285.88 399.1 1285.88L399 1286Z" fill="#17091D"/>
<path id="Vector_31" d="M559.81 1583.66C554.81 1584.55 549.1 1588.23 542.88 1593.11C526.88 1605.63 507.77 1626.11 490.5 1627.5C469.28 1629.27 449.62 1617.74 439.23 1618.12C437.988 1618.13 436.762 1618.41 435.64 1618.94C429.92 1621.81 411.52 1626.21 381.35 1620.82C366.759 1618.11 352.461 1614.01 338.65 1608.58C333.05 1606.43 327.223 1603.98 321.17 1601.23L320.38 1600.86C309.9 1595.74 300.26 1584.24 291.46 1568.52C266.46 1511.87 286.29 1411.22 286.29 1411.22C286.29 1411.22 251.5 1338.83 264 1334C308 1317 384 1282 428 1300C428.34 1300.14 428.7 1300.31 429.07 1300.5C430.04 1301.02 430.976 1301.61 431.87 1302.26C452.29 1317.57 471 1384 471 1384C471 1384 511.54 1410.47 526 1424.56C526.44 1424.99 526.87 1425.43 527.29 1425.87C528.29 1426.98 529.29 1428.11 530.16 1429.26C509.41 1418.26 447.81 1386.63 429.05 1389.97C403.72 1394.49 353.24 1405.16 330.05 1406.97C306.86 1408.78 317.86 1469.27 321.21 1505.37C323.44 1529.49 319.81 1561.81 333.08 1581.12C339.67 1590.72 350.43 1597.12 368.15 1597.69L373.61 1597.84C399.61 1598.35 417.81 1596.15 432.41 1594.7C445.64 1593.38 455.88 1592.7 466.16 1595.12C482.93 1599.12 511.24 1607.22 544.59 1584.12C555.59 1576.5 567.23 1565.45 579.14 1549.72C579.34 1550.09 579.54 1550.43 579.74 1550.72C587.89 1564.16 577.5 1580.5 559.81 1583.66Z" fill="#9C398C"/>
<path id="Vector_32" d="M502.45 1556.87C502.45 1556.87 496.91 1526.43 524.63 1496" stroke="#17091D" stroke-width="8.86" stroke-linecap="round" stroke-linejoin="round"/>
<path id="Vector_33" d="M510.77 1522.09C510.77 1522.09 557.91 1552.52 541.27 1598.17" stroke="#17091D" stroke-width="8.86" stroke-linecap="round" stroke-linejoin="round"/>
<path id="Vector_34" d="M430.5 1546C430.5 1546 426.61 1596.57 440.5 1620.5" stroke="#17091D" stroke-width="10.67" stroke-linecap="round" stroke-linejoin="round"/>
<path id="Vector_35" d="M372.16 1569C372.16 1569 369.34 1615.89 387.38 1626.68" stroke="#17091D" stroke-width="8.79" stroke-linecap="round" stroke-linejoin="round"/>
<path id="Vector_36" d="M333.1 1580.26C333.1 1580.26 330.27 1609.87 348.38 1616.68" stroke="#17091D" stroke-width="7" stroke-linecap="round" stroke-linejoin="round"/>
<path id="Vector_37" d="M461.5 1577C467.299 1577 472 1564.24 472 1548.5C472 1532.76 467.299 1520 461.5 1520C455.701 1520 451 1532.76 451 1548.5C451 1564.24 455.701 1577 461.5 1577Z" fill="#D969BD"/>
<path id="Vector_38" d="M397.5 1573C403.299 1573 408 1563.37 408 1551.5C408 1539.63 403.299 1530 397.5 1530C391.701 1530 387 1539.63 387 1551.5C387 1563.37 391.701 1573 397.5 1573Z" fill="#D969BD"/>
<path id="Vector_39" d="M350.5 1584C356.299 1584 361 1576.61 361 1567.5C361 1558.39 356.299 1551 350.5 1551C344.701 1551 340 1558.39 340 1567.5C340 1576.61 344.701 1584 350.5 1584Z" fill="#D969BD"/>
</g>
<g id="arm 1">
<path id="Vector_40" d="M182.13 1347.68C181.437 1347.68 180.753 1347.52 180.13 1347.21C179.463 1346.88 178.889 1346.38 178.46 1345.77C178.031 1345.16 177.759 1344.45 177.67 1343.71C177.47 1341.98 157.13 1170.22 153.26 1141.07C152.09 1132.23 150.72 1118.26 149.15 1102.07C145.52 1064.86 140.55 1013.9 134.38 992.07C133.83 990.13 133.31 988.16 132.83 986.21C126.66 961.48 128.68 946.32 132.35 918.81C132.94 914.35 133.58 909.53 134.25 904.28C135.97 890.54 139.62 876.95 145.66 854.42C157.56 810.07 179.66 727.52 216.53 533.55C237.13 425 260.17 347 285 301.73C305.15 264.99 321.53 259.5 329.51 259.5C330.732 259.486 331.949 259.637 333.13 259.95C366.143 264.98 398.067 275.56 427.55 291.24C457.655 307.327 483.688 330.079 503.66 357.76C523.557 385.463 536.962 417.29 542.88 450.88C543.12 452.24 543.35 453.61 543.57 454.98C548.228 484.885 550.569 515.105 550.57 545.37C550.57 553.56 550.39 561.94 550.04 570.27C547.338 633.737 527.541 695.296 492.74 748.44L473 881C472.96 881.276 472.893 881.547 472.8 881.81C465.19 903.75 446.8 964.5 453.04 981.99C453.2 982.43 453.36 982.99 453.52 983.53C453.59 983.76 453.67 984.04 453.75 984.33C453.9 984.91 454.05 985.54 454.21 986.22C454.32 986.68 454.43 987.16 454.53 987.68C455.03 990.01 455.53 992.94 456.21 996.68C466.21 1056.05 486.97 1268.16 487.21 1270.29C487.27 1270.91 487.199 1271.55 487.001 1272.14C486.803 1272.74 486.483 1273.28 486.061 1273.75C485.64 1274.21 485.126 1274.59 484.552 1274.84C483.978 1275.1 483.358 1275.23 482.73 1275.23C482.51 1275.24 482.29 1275.24 482.07 1275.23C475.7 1274.29 469.23 1273.55 462.85 1273.04C454.77 1272.38 446.51 1272.04 438.29 1272.04C425.96 1272.05 413.64 1272.77 401.39 1274.18C288.07 1287.18 185.5 1346.51 184.48 1347.11C183.762 1347.51 182.95 1347.7 182.13 1347.68Z" fill="#CE44A2"/>
<path id="Vector_41" d="M329.51 264C330.397 263.97 331.282 264.089 332.13 264.35C364.755 269.285 396.306 279.72 425.44 295.21C454.924 310.988 480.425 333.278 500.005 360.387C519.585 387.496 532.729 418.71 538.44 451.66C538.68 453 538.9 454.34 539.11 455.66C543.759 485.33 546.099 515.317 546.11 545.35C546.11 553.59 545.933 561.826 545.58 570.06C542.903 633.051 523.167 694.131 488.48 746.78L468.48 880.36C468.48 880.36 440.61 960.7 448.73 983.52C448.86 983.88 448.99 984.29 449.12 984.76L449.33 985.51C449.47 986.04 449.61 986.63 449.76 987.27C449.86 987.69 449.96 988.13 450.05 988.6C450.56 990.97 451.11 993.94 451.7 997.41C461.82 1057.31 482.63 1270.71 482.63 1270.71C476.083 1269.74 469.577 1269 463.11 1268.48C454.71 1267.81 446.403 1267.48 438.19 1267.48C425.689 1267.49 413.198 1268.21 400.78 1269.65C285.13 1282.96 182.11 1343.16 182.11 1343.16C182.11 1343.16 161.61 1169.98 157.69 1140.46C153.77 1110.94 147.61 1022.46 138.69 990.8C138.13 988.8 137.627 986.896 137.18 985.09C130.24 957.29 133.94 942.51 138.69 904.79C143.75 864.55 165.62 825.72 220.93 534.34C269.18 280.26 317.84 264 329.51 264ZM329.51 255C318.56 255 301.26 262.73 281.06 299.56C256 345.24 232.8 423.67 212.06 532.68C175.27 726.49 153.15 808.93 141.27 853.22C135.17 875.94 131.5 889.65 129.73 903.69C129.07 908.92 128.44 913.63 127.84 918.18C124.09 946.25 122.03 961.71 128.42 987.29C128.9 989.29 129.42 991.29 130 993.29C136.06 1014.75 141 1065.48 144.62 1102.52C146.2 1118.74 147.56 1132.76 148.75 1141.67C152.62 1170.79 172.95 1342.52 173.15 1344.25C173.326 1345.73 173.868 1347.15 174.729 1348.37C175.589 1349.59 176.739 1350.58 178.077 1351.25C179.414 1351.91 180.897 1352.24 182.39 1352.19C183.883 1352.13 185.34 1351.71 186.63 1350.96C186.88 1350.81 212.54 1335.96 251.81 1319.61C287.89 1304.61 343.2 1285.36 401.81 1278.61C413.887 1277.22 426.033 1276.51 438.19 1276.5C446.28 1276.5 454.42 1276.82 462.38 1277.5C468.68 1278.01 475.05 1278.74 481.31 1279.66C481.747 1279.73 482.188 1279.76 482.63 1279.76C483.889 1279.77 485.135 1279.51 486.288 1279C487.44 1278.5 488.474 1277.75 489.323 1276.82C490.171 1275.89 490.814 1274.8 491.212 1273.6C491.609 1272.41 491.752 1271.14 491.63 1269.89C490.78 1261.16 470.63 1055.49 460.63 995.96C460 992.21 459.44 989.23 458.93 986.85C458.81 986.22 458.68 985.66 458.58 985.24C458.41 984.53 458.25 983.86 458.09 983.24C458 982.91 457.92 982.61 457.84 982.34C457.65 981.67 457.46 981.07 457.25 980.49C456.02 977.03 454.25 964.69 464.3 925.78C470.1 903.44 476.97 883.54 477.04 883.34C477.227 882.814 477.361 882.272 477.44 881.72L497.11 750.09C532.016 696.447 551.868 634.411 554.59 570.47C554.95 562.08 555.13 553.64 555.13 545.38C555.106 514.878 552.722 484.424 548 454.29C547.76 452.73 547.53 451.35 547.3 450.08C541.26 415.829 527.589 383.377 507.3 355.13C486.925 326.891 460.37 303.677 429.66 287.26C399.8 271.395 367.481 260.671 334.06 255.54C332.569 255.168 331.037 254.987 329.5 255H329.51Z" fill="#17091D"/>
<path id="Vector_42" d="M546.091 545.37C546.091 553.61 545.914 561.847 545.561 570.08C542.883 633.071 523.147 694.152 488.461 746.8L468.461 880.38C468.461 880.38 440.591 960.72 448.711 983.54C448.841 983.9 448.971 984.31 449.101 984.78L449.311 985.53C449.451 986.06 449.591 986.65 449.741 987.29C449.841 987.71 449.941 988.15 450.031 988.62C450.541 990.99 451.091 993.96 451.681 997.43C461.631 1056.8 481.611 1266.54 481.611 1266.54C475.061 1265.54 468.551 1264.84 462.091 1264.31C459.331 1230.9 446.881 1085.89 444.921 1067.4C442.251 1042.23 424.591 987.93 402.591 977.47C380.591 967.01 327.591 957.59 330.421 952.47C333.251 947.35 383.591 954.4 409.701 963.1C435.811 971.8 421.591 957.54 414.591 948.1C407.591 938.66 316.631 914.68 297.001 911C277.371 907.32 216.591 907.34 196.591 902.11C176.591 896.88 184.591 890.6 234.591 881.18C284.591 871.76 359.591 901.06 388.241 910.29C416.891 919.52 396.591 891.64 388.111 875.09C379.631 858.54 350.591 819.44 364.331 818.78C378.071 818.12 378.591 832 405.091 873.42C431.591 914.84 423.591 856.07 423.681 835.75C423.771 815.43 440.591 796.42 442.591 768.17C444.591 739.92 455.591 727.36 462.541 704.31C469.491 681.26 477.591 652.02 485.801 621.16C494.011 590.3 533.791 461.3 533.791 461.3L538.451 451.66C538.691 453 538.911 454.34 539.121 455.66C543.76 485.338 546.091 515.332 546.091 545.37Z" fill="#9C398C"/>
<path id="Vector_43" d="M421.13 1271C305.48 1284.31 182.13 1343.2 182.13 1343.2C182.13 1343.2 161.63 1170.02 157.71 1140.5C153.79 1110.98 147.63 1022.5 138.71 990.84C138.15 988.84 137.647 986.937 137.2 985.13C142.56 999.37 149 1014.08 156.14 1025.13C175.14 1054.43 183.23 1095.58 185.19 1119.47C187.15 1143.36 200 1198.16 208.07 1204.77C216.14 1211.38 236.4 1251.68 275.14 1256.38C285.55 1257.6 410.93 1268.13 421.13 1271Z" fill="#9C398C"/>
<path id="Vector_44" d="M411.47 924.67C452.84 935.37 452.67 951.06 408.29 937.22C408.153 937.18 408.02 937.13 407.89 937.07C383.35 925.73 357.42 919.69 332.36 910.73C328.58 909.38 329.61 903.46 333.61 903.64C355.78 904.6 394.14 920.79 411.47 924.67Z" fill="#5C2C66"/>
<path id="Vector_45" d="M230.771 1438.17C222.904 1438.16 215.323 1435.22 209.501 1429.93C192.311 1414.38 179.341 1389.21 177.221 1367.28C176.481 1360.31 177.659 1353.26 180.626 1346.91C183.593 1340.55 188.239 1335.13 194.061 1331.22C250.111 1294.22 309.881 1271.74 371.741 1264.39C384.844 1262.84 398.027 1262.08 411.221 1262.09C455.461 1262.09 486.841 1270.3 488.161 1270.65C489.164 1270.92 490.044 1271.53 490.651 1272.37C500.651 1286.15 499.741 1297.95 499.041 1307.43C498.773 1310.29 498.669 1313.16 498.731 1316.03C498.984 1321.49 498.131 1326.95 496.224 1332.07C494.316 1337.2 491.394 1341.88 487.631 1345.85C483.751 1349.95 479.094 1353.23 473.931 1355.51C468.768 1357.79 463.203 1359.02 457.561 1359.12C441.691 1359.41 425.865 1360.87 410.211 1363.49C331.941 1376.49 271.931 1415.68 249.761 1431.9C244.265 1435.97 237.609 1438.17 230.771 1438.17Z" fill="#CE44A2"/>
<path id="Vector_46" d="M411.23 1266.59C455.38 1266.59 487 1275 487 1275C498.95 1291.56 493.69 1304.14 494.23 1316.23C495.16 1337.07 478.34 1354.23 457.49 1354.62C441.402 1354.9 425.357 1356.39 409.49 1359.06C331.55 1372.06 272.15 1409.96 247.13 1428.27C242.401 1431.76 236.68 1433.66 230.8 1433.67C224.048 1433.66 217.541 1431.14 212.55 1426.59C197.05 1412.59 183.83 1388.64 181.73 1366.85C181.093 1360.7 182.134 1354.49 184.741 1348.88C187.349 1343.27 191.426 1338.48 196.54 1335C261.7 1292 323.4 1274.68 372.27 1268.88C385.214 1267.35 398.237 1266.59 411.27 1266.61M411.27 1257.61C397.902 1257.6 384.546 1258.37 371.27 1259.94C308.71 1267.37 248.27 1290.1 191.64 1327.49C185.134 1331.85 179.941 1337.9 176.623 1344.99C173.304 1352.09 171.986 1359.95 172.81 1367.74C175.02 1390.74 188.58 1417.04 206.55 1433.29C212.76 1438.93 220.733 1442.23 229.109 1442.65C237.484 1443.06 245.744 1440.56 252.48 1435.56C274.39 1419.56 333.69 1380.83 411 1367.95C426.439 1365.36 442.048 1363.92 457.7 1363.63C463.943 1363.52 470.1 1362.16 475.812 1359.64C481.525 1357.12 486.678 1353.48 490.97 1348.95C495.146 1344.55 498.39 1339.34 500.507 1333.66C502.624 1327.97 503.57 1321.91 503.29 1315.85C503.233 1313.16 503.333 1310.47 503.59 1307.79C504.34 1297.58 505.27 1284.87 494.36 1269.79C493.136 1268.11 491.371 1266.9 489.36 1266.36C488.03 1266.01 456.09 1257.65 411.28 1257.65L411.27 1257.61Z" fill="#17091D"/>
<path id="Vector_47" d="M409.46 1359.05C331.52 1372.05 272.12 1409.96 247.1 1428.27C242.037 1432.05 235.817 1433.95 229.508 1433.64C223.199 1433.33 217.193 1430.84 212.52 1426.59C197.02 1412.59 183.8 1388.64 181.7 1366.85C181.066 1360.7 182.111 1354.48 184.724 1348.88C187.337 1343.27 191.42 1338.47 196.54 1335C261.7 1292 323.4 1274.68 372.27 1268.88C370.55 1269.52 315.18 1290.1 285.64 1306.88C255.64 1323.88 265.34 1374.2 285.64 1374.43C303.13 1374.63 426.13 1356.84 426.13 1356.84L409.46 1359.05Z" fill="#9C398C"/>
<path id="Vector_48" d="M210.44 1354.81C214.39 1352.43 219.44 1352.21 224.37 1354.2C229.662 1356.49 234.07 1360.43 236.93 1365.44C239.95 1370.38 241.3 1376.17 240.78 1381.94C240.16 1387.3 237.6 1391.66 233.65 1394.04C229.7 1396.42 224.65 1396.64 219.72 1394.65C214.424 1392.36 210.013 1388.42 207.15 1383.41C204.133 1378.46 202.786 1372.68 203.31 1366.91C203.92 1361.54 206.49 1357.2 210.44 1354.81ZM212.81 1359.71C210.11 1361.47 208.47 1364.71 208.24 1368.6C208.107 1372.88 209.287 1377.1 211.62 1380.69C213.811 1384.33 217.078 1387.2 220.97 1388.9C224.57 1390.35 228.11 1390.17 230.81 1388.41C233.51 1386.65 235.15 1383.41 235.38 1379.52C235.502 1375.24 234.323 1371.03 232 1367.43C229.805 1363.8 226.538 1360.93 222.65 1359.23C219.05 1357.78 215.51 1358 212.81 1359.71Z" fill="#5C2C66"/>
<path id="Vector_49" d="M232 1367.43C227 1359.51 218.44 1356.05 212.81 1359.72C207.18 1363.39 206.65 1372.72 211.62 1380.72C216.59 1388.72 225.18 1392.11 230.81 1388.44C236.44 1384.77 237 1375.36 232 1367.43Z" fill="#D969BD"/>
</g>
<g id="collar front">
<path id="Vector_50" d="M1024.85 1321.37C1024.85 1321.63 1024.85 1321.88 1024.85 1322.13C1024.28 1329.29 1023.24 1335.04 1021.52 1338.73C1013.05 1357 994.739 1397.55 995.399 1437.73C995.659 1453.99 995.709 1468.95 995.669 1481V1481.22C974.159 1481.92 952.669 1481.95 931.309 1481.42L931.249 1481C927.059 1452.46 918.519 1384.54 929.519 1369.12C937.749 1357.58 944.759 1342.25 948.799 1322.32C948.799 1322.24 948.799 1322.17 948.799 1322.09C951.609 1308.09 952.959 1291.88 952.239 1273.09C950.499 1227.44 935.109 1248.48 943.799 1198.46C952.489 1148.44 944.319 1050.77 947.409 937.6C950.499 824.43 946.939 655.29 942.219 618.36C937.499 581.43 928.639 449.27 924.069 423.36C919.499 397.45 877.889 241.53 903.999 223C910.909 218.1 945.159 214.92 951.999 223C975.859 251.17 971.589 349 971.589 349C971.589 349 1022.54 497.87 1018.77 618.44C1015 739.01 1016.85 917.94 1018.42 952.98C1019.99 988.02 1021.64 1166.98 1021.82 1209.49C1022 1243.1 1027 1293 1024.85 1321.37Z" fill="#CE44A2"/>
<path id="Vector_51" d="M808.77 1210.73C808.77 1210.73 820.5 1201.5 875.35 1201.58C970.64 1201.72 966.85 1207.73 1016.68 1183.11C1066.51 1158.49 1074.39 1172.56 1112.44 1166.53C1150.49 1160.5 1177.44 1170.09 1138.44 1181.79C1099.44 1193.49 1075.87 1192.89 1054.18 1213.7C1032.49 1234.51 963.85 1239.7 921.67 1234.08C879.49 1228.46 844.11 1240.38 819.8 1231.44C795.49 1222.5 808.77 1210.73 808.77 1210.73Z" fill="#D969BD"/>
<path id="Vector_52" d="M936.39 220.25C947.3 220.25 957.28 221.54 960 225C982.16 253.13 971.59 349 971.59 349C971.59 349 1022.54 497.87 1018.77 618.44C1015 739.01 1016.85 917.94 1018.42 952.98C1019.99 988.02 1021.64 1166.98 1021.82 1209.49C1021.96 1243.12 1026.96 1292.97 1024.82 1321.39C1024.82 1321.65 1024.82 1321.9 1024.82 1322.15C1024.25 1329.31 1023.21 1335.06 1021.49 1338.75C1013.02 1357.02 994.71 1397.57 995.37 1437.75C995.63 1454.01 995.68 1468.97 995.64 1481.02V1481.24C983.873 1481.62 972.116 1481.81 960.37 1481.81C950.65 1481.81 940.953 1481.69 931.28 1481.44L931.22 1481.02C927.03 1452.48 918.49 1384.56 929.49 1369.14C937.72 1357.6 944.73 1342.27 948.77 1322.34C948.77 1322.26 948.77 1322.19 948.77 1322.11C951.58 1308.11 952.93 1291.9 952.21 1273.11C950.47 1227.46 935.08 1248.5 943.77 1198.48C952.46 1148.46 944.29 1050.79 947.38 937.62C950.47 824.451 946.91 655.31 942.19 618.38C937.47 581.451 930.57 445.92 926 420C921.43 394.08 878 245 903 225C906.14 222.49 922.07 220.25 936.39 220.25ZM936.39 211.25C935.13 211.25 905.68 211.33 897.39 217.97C885.51 227.47 883.3 251.83 890.21 296.97C895.4 330.84 904.79 369.47 911 395.03C914 407.23 916.31 416.86 917.15 421.6C919.49 434.9 922.61 479.96 925.62 523.54C928.42 563.9 931.06 602.03 933.3 619.6C938 656.35 941.44 826.94 938.42 937.451C937.13 984.69 937.8 1029.28 938.42 1068.62C939.22 1122.28 939.91 1168.62 934.97 1197.02C929.87 1226.39 932.48 1233.93 937.15 1243.81C939.7 1249.21 942.59 1255.32 943.29 1273.53C944.038 1289.19 942.948 1304.89 940.04 1320.3V1320.44C940.034 1320.5 940.034 1320.55 940.04 1320.61C936.58 1337.69 930.59 1352.28 922.25 1363.97C918.38 1369.4 913.5 1381.18 915.76 1420.73C917.03 1442.93 920.07 1466.51 922.4 1482.38V1482.56V1482.75C922.695 1484.86 923.731 1486.8 925.323 1488.22C926.914 1489.64 928.958 1490.45 931.09 1490.5C940.92 1490.74 950.78 1490.87 960.4 1490.87C972.4 1490.87 984.33 1490.67 995.96 1490.29C998.296 1490.22 1000.51 1489.23 1002.14 1487.55C1003.76 1485.87 1004.67 1483.63 1004.67 1481.29V1481C1004.67 1466.49 1004.67 1451.87 1004.4 1437.59C1003.76 1398.41 1022.59 1357.77 1029.69 1342.48C1031.8 1337.94 1033.11 1331.69 1033.82 1322.8C1033.82 1322.5 1033.82 1322.18 1033.89 1321.86C1035.17 1304.28 1033.89 1279.15 1032.6 1254.86C1031.74 1238.31 1030.93 1222.69 1030.87 1209.41C1030.7 1168.01 1029.06 988.041 1027.46 952.531C1025.93 918.461 1023.99 740.901 1027.82 618.68C1029.82 555.42 1016.72 484.68 1005.41 436.41C994.73 390.9 983.54 356.25 980.79 347.95C981.43 341.56 983.26 320.95 983.15 297.48C982.98 258.96 977.58 232.69 967.15 219.41C964.15 215.6 957.95 211.23 936.48 211.23L936.39 211.25Z" fill="#17091D"/>
<path id="Vector_53" d="M950.279 404.3C954.219 402.08 959.029 402.3 963.639 405C968.249 407.7 972.289 412.54 974.859 418.55C976.139 421.519 977.01 424.647 977.449 427.85C977.879 430.894 977.853 433.985 977.369 437.02C976.958 439.714 976.035 442.304 974.649 444.65C973.449 446.693 971.745 448.394 969.699 449.59C965.699 451.82 960.939 451.59 956.329 448.9C951.719 446.21 947.679 441.35 945.109 435.35C943.836 432.376 942.965 429.245 942.519 426.04C942.095 422.996 942.122 419.906 942.599 416.87C943.011 414.177 943.934 411.587 945.319 409.24C946.523 407.197 948.231 405.496 950.279 404.3ZM953.819 408.95C952.366 409.702 951.148 410.84 950.299 412.24C949.296 413.9 948.617 415.736 948.299 417.65C947.925 419.864 947.867 422.12 948.129 424.35C948.398 426.743 948.959 429.094 949.799 431.35C951.259 435.566 953.914 439.266 957.439 442C960.609 444.26 963.949 444.76 966.729 443.39C968.18 442.634 969.397 441.496 970.249 440.1C971.256 438.441 971.935 436.605 972.249 434.69C972.628 432.477 972.688 430.221 972.429 427.99C972.162 425.596 971.598 423.245 970.749 420.99C969.292 416.776 966.641 413.075 963.119 410.34C959.939 408.08 956.599 407.58 953.819 409V408.95Z" fill="#5C2C66"/>
<path id="Vector_54" d="M970.739 421C967.179 411.5 959.599 406.11 953.819 409C948.039 411.89 946.239 421.88 949.819 431.38C953.399 440.88 960.969 446.26 966.749 443.38C972.529 440.5 974.309 430.48 970.739 421Z" fill="#D969BD"/>
<path id="Vector_55" d="M939.869 240C943.981 242.081 947.137 245.661 948.689 250C950.497 254.69 950.777 259.832 949.489 264.69C948.874 266.971 947.858 269.125 946.489 271.05C945.241 272.82 943.632 274.306 941.769 275.41C940.013 276.438 938.032 277.022 935.999 277.11C933.955 277.18 931.925 276.758 930.079 275.88C925.967 273.799 922.81 270.22 921.259 265.88C919.453 261.189 919.177 256.048 920.469 251.19C921.083 248.906 922.099 246.749 923.469 244.82C924.723 243.052 926.335 241.567 928.199 240.46C929.953 239.436 931.93 238.856 933.959 238.77C935.999 238.696 938.027 239.118 939.869 240ZM939.929 244.81C938.672 244.137 937.265 243.793 935.839 243.81C934.388 243.85 932.969 244.249 931.709 244.97C930.33 245.751 929.125 246.806 928.169 248.07C927.113 249.45 926.298 250.998 925.759 252.65C924.608 256.104 924.541 259.827 925.569 263.32C925.977 264.873 926.689 266.329 927.664 267.605C928.639 268.88 929.857 269.949 931.249 270.75C932.506 271.424 933.913 271.768 935.339 271.75C936.789 271.702 938.206 271.304 939.469 270.59C940.846 269.806 942.05 268.752 943.009 267.49C944.063 266.109 944.878 264.561 945.419 262.91C946.57 259.453 946.636 255.726 945.609 252.23C945.202 250.676 944.49 249.217 943.515 247.94C942.54 246.663 941.321 245.592 939.929 244.79V244.81Z" fill="#5C2C66"/>
<path id="Vector_56" d="M945.419 262.89C947.819 255.72 945.359 247.62 939.929 244.79C934.499 241.96 928.159 245.49 925.759 252.65C923.359 259.81 925.819 267.93 931.249 270.75C936.679 273.57 942.999 270.06 945.419 262.89Z" fill="#D969BD"/>
<path id="Vector_57" d="M981.14 651.591C983.52 651.554 985.872 652.114 987.979 653.221C990.258 654.424 992.256 656.098 993.84 658.131C995.598 660.357 996.952 662.875 997.84 665.571C998.79 668.426 999.296 671.411 999.34 674.421C999.386 677.432 998.975 680.433 998.119 683.321C997.311 686.049 996.043 688.619 994.369 690.921C992.847 693.015 990.902 694.766 988.659 696.061C986.599 697.263 984.265 697.919 981.88 697.967C979.494 698.014 977.136 697.451 975.03 696.331C972.751 695.127 970.753 693.453 969.169 691.421C967.415 689.191 966.061 686.674 965.169 683.981C963.275 678.229 963.18 672.037 964.9 666.231C965.708 663.502 966.976 660.932 968.65 658.631C970.172 656.536 972.117 654.785 974.359 653.491C976.427 652.305 978.757 651.652 981.14 651.591ZM981.409 656.671C978.119 656.671 974.989 658.591 972.679 661.931C970.328 665.704 969.09 670.065 969.11 674.511C969.129 678.958 970.405 683.308 972.789 687.061C975.129 690.381 978.289 692.231 981.569 692.211C984.849 692.191 987.989 690.311 990.299 686.961C992.653 683.187 993.891 678.825 993.87 674.378C993.849 669.931 992.569 665.581 990.179 661.831C987.849 658.511 984.689 656.651 981.409 656.671Z" fill="#5C2C66"/>
<path id="Vector_58" d="M993.87 674.37C993.87 664.55 988.24 656.63 981.41 656.67C974.58 656.71 969.07 664.67 969.11 674.52C969.15 684.37 974.73 692.26 981.57 692.21C988.41 692.16 993.91 684.18 993.87 674.37Z" fill="#D969BD"/>
<path id="Vector_59" d="M982.589 933C987.199 932.83 991.689 935.07 995.069 939.23C998.586 943.799 1000.53 949.385 1000.6 955.15C1000.86 960.94 999.243 966.658 995.999 971.46C992.859 975.85 988.499 978.41 983.889 978.58C979.279 978.75 974.799 976.5 971.419 972.35C967.894 967.782 965.953 962.19 965.889 956.42C965.644 950.631 967.275 944.918 970.539 940.13C973.629 935.74 977.999 933.19 982.589 933ZM982.289 938.43C979.069 938.66 976.079 940.66 973.979 943.99C971.784 947.667 970.765 951.928 971.059 956.2C971.212 960.443 972.676 964.534 975.249 967.91C977.699 970.91 980.869 972.49 984.089 972.26C987.309 972.03 990.299 970.04 992.399 966.7C994.585 963.023 995.6 958.768 995.309 954.5C995.163 950.256 993.698 946.164 991.119 942.79C988.679 939.79 985.499 938.23 982.289 938.45V938.43Z" fill="#5C2C66"/>
<path id="Vector_60" d="M995.31 954.52C994.81 945.18 988.98 937.98 982.31 938.46C975.64 938.94 970.59 946.88 971.08 956.22C971.57 965.56 977.41 972.75 984.08 972.28C990.75 971.81 995.81 963.86 995.31 954.52Z" fill="#D969BD"/>
<path id="Vector_61" d="M980.589 1185C985.199 1184.83 989.689 1187.07 993.069 1191.23C996.586 1195.8 998.527 1201.39 998.599 1207.15C998.837 1212.94 997.207 1218.65 993.949 1223.44C990.809 1227.83 986.449 1230.44 981.839 1230.56C977.229 1230.68 972.749 1228.48 969.369 1224.33C965.844 1219.76 963.903 1214.17 963.839 1208.4C963.595 1202.61 965.225 1196.9 968.489 1192.11C971.629 1187.74 975.999 1185.19 980.589 1185ZM980.289 1190.43C977.069 1190.66 974.079 1192.66 971.979 1195.99C969.784 1199.67 968.765 1203.93 969.059 1208.2C969.212 1212.44 970.676 1216.53 973.249 1219.91C975.699 1222.91 978.869 1224.49 982.089 1224.26C985.309 1224.03 988.299 1222.04 990.399 1218.7C992.585 1215.02 993.6 1210.77 993.309 1206.5C993.163 1202.26 991.699 1198.16 989.119 1194.79C986.679 1191.79 983.499 1190.23 980.289 1190.45V1190.43Z" fill="#5C2C66"/>
<path id="Vector_62" d="M993.31 1206.52C992.81 1197.18 986.98 1189.98 980.31 1190.46C973.64 1190.94 968.59 1198.88 969.08 1208.22C969.57 1217.56 975.41 1224.75 982.08 1224.28C988.75 1223.81 993.81 1215.86 993.31 1206.52Z" fill="#D969BD"/>
<path id="Vector_63" d="M1024.85 1321.37C1024.85 1321.63 1024.85 1321.88 1024.85 1322.13C1024.28 1329.29 1023.24 1335.04 1021.52 1338.73C1013.05 1357 994.74 1397.55 995.4 1437.73C995.66 1453.99 995.71 1468.95 995.67 1481H931.2C927.01 1452.46 918.47 1384.54 929.47 1369.12C937.7 1357.58 944.71 1342.25 948.75 1322.32C948.75 1322.24 948.75 1322.17 948.75 1322.09L1024.85 1321.37Z" fill="#9C398C"/>
<path id="Vector_64" d="M737 310C737 310 798.15 426.2 849 394C899.85 361.8 923 489 923 489C923 489 919.35 414.69 915 406C907.94 391.89 890 298 890 298L839 282L798.5 240.5L727.5 270.5L737 310Z" fill="#9C398C"/>
<path id="Vector_65" d="M1128.12 264.721C1128.12 264.721 1103.32 339.001 1088.66 370.001C1074 401.001 1024.49 424.191 1020.74 451.101C1016.99 478.011 1018 496.001 1018 496.001L991 378.001C991 378.001 1034.27 281.151 1034.13 281.571C1033.99 281.991 1128.12 264.721 1128.12 264.721Z" fill="#9C398C"/>
<path id="Vector_66" d="M924.999 554.58C925.119 556.51 924.889 556.81 924.889 556.81C924.889 556.81 924.879 556 924.999 554.58Z" fill="#9C398C"/>
<path id="Vector_67" d="M927.999 557C927.779 553 923.059 539.88 914.999 511C902.999 468 805.259 427 805.259 427C805.259 427 657.999 343 596.909 271.73C560.909 229.73 546.159 183.4 540.149 152.51C562.489 139.36 575.859 131 575.859 131L581.809 132.25C582.351 125.418 583.918 118.706 586.459 112.34C588.809 106.44 591.639 100.24 594.819 93.9902L610.889 106.78L785.759 245.88L892.249 330.59L895.449 333.14C895.449 333.14 897.559 341.14 900.119 351.03C901.709 357.19 903.479 364.03 905.029 370.22C906.819 377.3 908.309 383.41 908.909 386.32C908.909 386.32 908.909 386.32 908.909 386.38C910.829 395.77 914.989 404.05 915.989 411C915.989 411.11 917.989 422.17 917.989 422.3C917.989 422.43 918.059 422.82 918.089 423.13C918.199 424.04 918.329 425.21 918.469 426.59C918.649 428.28 918.849 430.29 919.059 432.59C919.139 433.39 919.219 434.23 919.299 435.09C919.304 435.14 919.304 435.19 919.299 435.24C920.719 449.98 922.779 472.53 924.769 485.37C927.329 501.4 928.499 546.74 927.999 557Z" fill="#9C398C"/>
<path id="Vector_68" d="M867.859 412.561C867.364 412.562 866.87 412.529 866.379 412.461C862.959 411.991 843.539 404.801 837.679 402.611C827.679 398.861 807.489 391.181 785.229 381.881C762.639 372.461 732.739 359.191 718.619 349.521L710.019 343.631C702.529 338.491 697.119 334.781 695.579 333.791C634.079 294.451 593.209 202.001 580.189 158.651C575.432 142.875 576.169 125.953 582.279 110.651C584.669 104.651 587.539 98.3706 590.809 91.9306C595.36 82.9971 600.432 74.3389 605.999 66.0006C616.259 50.6206 636.389 24.5606 655.999 22.8306C659.319 22.5306 661.999 22.3906 664.159 22.3906C666.969 22.3906 672.819 22.3906 674.859 26.6206C676.899 30.8506 673.859 34.4706 670.149 39.2106C666.609 43.6806 662.209 49.2106 660.589 55.8706C659.949 58.5006 660.369 69.5706 692.749 101.751C712.409 121.291 739.389 144.101 766.749 164.321C795.559 185.591 830.879 195.771 855.449 200.571L856.049 200.691L856.369 200.761L857.029 200.891L859.269 201.351C880.489 205.661 900.659 211.251 904.539 222.911C904.539 223.021 904.609 223.121 904.639 223.221C905.462 225.961 905.339 228.899 904.289 231.561C902.289 236.951 902.289 243.801 902.449 254.161C902.848 272.671 901.872 291.185 899.529 309.551L898.439 318.361L898.009 321.701C897.609 324.841 897.199 328.011 896.779 331.171C895.849 338.231 894.989 344.291 894.169 349.711C890.969 370.711 887.759 385.171 884.069 395.161C882.409 399.471 877.569 412.561 867.859 412.561Z" fill="#CE44A2"/>
<path id="Vector_69" d="M664.089 26.9004C681.519 26.9004 660.489 37.0704 656.149 54.8104C651.299 74.6204 713.999 131 763.999 168C793.629 189.88 829.909 200.25 854.559 205.06L855.009 205.15L855.499 205.25L855.989 205.35C866.369 207.51 896.369 212.83 900.199 224.41C900.784 226.24 900.713 228.217 899.999 230C895.069 243.15 900.999 261 894.999 309C894.639 311.9 894.272 314.84 893.899 317.82C893.359 322.03 892.819 326.31 892.249 330.59C891.429 336.78 890.569 342.98 889.649 349.04C886.999 366.45 883.839 382.62 879.779 393.61C876.479 402.53 872.579 408.06 867.859 408.06C867.571 408.06 867.284 408.04 866.999 408C865.189 407.75 854.379 404 839.249 398.39C824.469 392.87 805.579 385.51 786.959 377.73C760.089 366.52 733.779 354.45 721.159 345.81C709.159 337.59 700.159 331.38 697.999 330C637.919 291.57 597.569 200.91 584.499 157.36C580.06 142.566 580.765 126.703 586.499 112.36C588.849 106.46 591.679 100.26 594.859 94.0104C599.316 85.2384 604.281 76.7339 609.729 68.5404C624.379 46.5404 641.809 28.6404 656.369 27.3504C659.539 27.0704 662.099 26.9304 664.129 26.9304M664.129 17.9304C661.819 17.9304 659.029 18.0804 655.579 18.3804C635.189 20.1904 615.319 43.9404 602.239 63.5504C596.58 72.023 591.424 80.8216 586.799 89.9004C583.459 96.4604 580.539 102.9 578.099 109C571.61 125.26 570.827 143.239 575.879 160C579.029 170.51 591.239 208.07 615.879 250.19C639.409 290.45 665.409 319.87 693.179 337.63C694.659 338.58 700.309 342.46 707.469 347.36L716.099 353.28C727.699 361.22 750.379 372.28 783.519 386.09C805.859 395.42 826.069 403.09 836.129 406.87C853.039 413.19 863.019 416.58 865.799 416.97C866.492 417.062 867.19 417.109 867.889 417.11C880.729 417.11 886.389 401.81 888.249 396.78C892.049 386.5 895.329 371.78 898.579 350.44C899.409 344.94 900.269 338.85 901.199 331.82C901.639 328.53 902.059 325.23 902.479 321.96L902.859 318.96L903.399 314.62L903.959 310.11C906.341 291.543 907.343 272.826 906.959 254.11C906.849 244.25 906.789 237.74 908.509 233.11C909.849 229.549 909.986 225.647 908.899 222C908.85 221.801 908.789 221.604 908.719 221.41C903.829 207 881.059 201.21 860.099 197L857.919 196.56L857.169 196.4L856.879 196.34C856.639 196.28 856.419 196.24 856.239 196.21C832.119 191.5 797.499 181.52 769.389 160.76C742.499 140.89 715.909 118.45 696.459 99.1904C663.619 66.6704 664.879 57.0004 664.899 56.9304C666.279 51.2804 670.339 46.1404 673.609 42.0104C677.609 37.0104 682.059 31.3104 678.839 24.6704C675.619 18.0304 667.529 17.9004 664.089 17.9004L664.129 17.9304Z" fill="#17091D"/>
<path id="Vector_70" d="M1019 416.53C1018.34 416.524 1017.7 416.384 1017.1 416.119C1016.5 415.854 1015.96 415.47 1015.51 414.99C1011.71 411.09 988.299 371.8 967.429 330.33C939.429 274.68 927.429 238.66 931.699 223.26C933.509 216.81 937.699 214.47 940.929 213.64C944.159 212.81 947.309 212.05 950.129 211.38L954.879 210.24L955.78 210.02C957.66 209.56 959.569 209.09 961.499 208.59H961.669L964.579 207.83C1014.75 194.58 1039.58 175.2 1038.58 150.23C1038.28 143.04 1043.58 123.06 1051.64 114.64C1054.49 111.64 1057.57 110.17 1060.8 110.17C1065.28 110.17 1069.34 113.03 1072.88 118.67C1079.95 129.92 1087.47 143.44 1095.23 158.87C1106.37 181.04 1118.49 208.11 1131.23 239.34C1139.98 260.78 1108.81 302.34 1063.82 358.71C1059.9 363.62 1056.06 368.42 1052.38 373.08C1040.3 388.37 1028.38 403.93 1023.05 414.08C1023.05 414.08 1023.05 414.17 1022.97 414.22C1022.57 414.918 1021.99 415.499 1021.29 415.905C1020.6 416.31 1019.81 416.525 1019 416.53Z" fill="#CE44A2"/>
<path id="Vector_71" d="M1060.72 114.631C1063.35 114.631 1066.14 116.481 1068.99 121.021C1075.42 131.251 1082.75 144.191 1091.13 160.851C1101.42 181.321 1113.28 207.411 1127 241.001C1136.39 264.001 1084.9 324.561 1048.79 370.251C1035.52 387.051 1024.32 401.841 1019 412.001C1018.94 412.001 1018.84 411.931 1018.69 411.781C1011.69 404.581 908.359 226.671 942.049 217.971C944.919 217.231 947.979 216.491 951.169 215.731L956.839 214.361C958.769 213.891 960.729 213.411 962.709 212.901H962.769L965.769 212.121C995.769 204.191 1044.67 187.121 1043.07 149.991C1042.75 142.571 1050.58 114.621 1060.79 114.621M1060.79 105.621C1057.69 105.621 1053.02 106.621 1048.38 111.481C1039.38 120.861 1033.73 142.321 1034.08 150.381C1034.64 163.381 1027.25 174.471 1011.49 184.381C999.719 191.771 984.009 198.011 963.489 203.431C962.622 203.671 961.752 203.901 960.879 204.121C960.662 204.163 960.448 204.22 960.239 204.291L954.799 205.641L948.999 207.001C945.999 207.721 942.769 208.501 939.709 209.291C933.549 210.881 929.139 215.411 927.279 222.051C924.529 231.891 927.149 247.161 935.539 270.111C941.799 287.231 951.139 308.171 963.319 332.351C983.429 372.351 1007.62 413.441 1012.16 418.091L1012.24 418.171C1013.11 419.077 1014.17 419.795 1015.33 420.281C1016.49 420.768 1017.74 421.012 1019 421.001C1020.6 421 1022.17 420.577 1023.55 419.774C1024.93 418.972 1026.08 417.818 1026.87 416.431L1027.02 416.141C1032.19 406.281 1043.96 390.921 1055.9 375.801C1059.57 371.161 1063.34 366.441 1067.33 361.441C1114.74 302.041 1145.08 261.331 1135.33 237.571C1122.53 206.231 1110.33 179.041 1099.17 156.781C1091.35 141.221 1083.76 127.571 1076.61 116.201C1072.19 109.201 1066.85 105.601 1060.72 105.601L1060.79 105.621Z" fill="#17091D"/>
<path id="Vector_72" d="M1072 190C1059 260 1028 281.38 1038 311.19C1042.7 325.19 1046.3 348.99 1048.79 370.25C1035.52 387.05 1024.32 401.84 1019 412C1019 412.07 1018.84 412 1018.64 411.81C1011.64 404.61 908.309 226.7 941.999 218C944.869 217.26 947.929 216.52 951.119 215.76L956.789 214.39C958.719 213.92 960.679 213.44 962.659 212.93H962.719L965.719 212.15C995.719 204.22 1044.62 187.15 1043.02 150.02C1042.62 140.69 1055.1 98.8901 1069.02 121.02C1075.45 131.25 1082.78 144.19 1091.16 160.85C1081.56 171.68 1073.5 181.91 1072 190Z" fill="#D969BD"/>
<path id="Vector_73" d="M900 230C895.07 243.15 901 261 895 309C889.43 353.6 882.54 410.15 867 408C860.87 407.15 751.47 366.57 721.16 345.81C723.69 337.81 726.77 329.07 730.5 319.5C762.5 237.5 703.5 254.5 640.5 173.5C612.09 136.97 606.86 99.2302 609.69 68.5002C624.34 46.5002 641.77 28.6002 656.33 27.3102C686.66 24.6202 661 34.9902 656.15 54.8002C651.3 74.6102 714 131 764 168C793.63 189.88 829.91 200.25 854.56 205.06L855.01 205.15L855.5 205.25C865.63 207.25 897.26 209.76 900.2 224.41C900.552 226.265 900.484 228.175 900 230Z" fill="#D969BD"/>
</g>
</g>
</svg>
