<svg width="1800" height="1650" viewBox="0 0 1800 1650" fill="none" xmlns="http://www.w3.org/2000/svg">
<g id="Body 06">
<g id="glove 2">
<path id="Vector" d="M1417.21 1611.77C1404.34 1611.77 1389.7 1605.69 1375.55 1599.77C1370.72 1597.77 1366.17 1595.87 1361.88 1594.31C1355.12 1591.85 1350.32 1590.71 1346.76 1590.71C1346.17 1590.71 1345.58 1590.75 1345 1590.82C1343.28 1591.06 1341.54 1591.19 1339.8 1591.19C1329.87 1591.19 1320.7 1587.07 1315.27 1580.19C1313.06 1577.44 1311.51 1574.21 1310.76 1570.76C1310 1567.31 1310.05 1563.74 1310.91 1560.31C1310.99 1560.01 1311.05 1559.71 1311.11 1559.39C1314.01 1544.3 1323.49 1499.39 1328.72 1482.62C1330.58 1476.62 1327.85 1468.27 1324.96 1459.41C1321.29 1448.13 1317.11 1435.34 1322.25 1424.41C1322.55 1423.78 1322.85 1423.19 1323.16 1422.59C1331.72 1406.22 1356.69 1374.52 1362.24 1367.59C1361.97 1361.24 1361.14 1338.13 1361.87 1313.65C1363.64 1254.39 1372.62 1244.95 1375.58 1241.85C1376.67 1240.62 1378 1239.62 1379.49 1238.94C1380.98 1238.25 1382.6 1237.88 1384.24 1237.85C1393.56 1237.85 1419.24 1229.17 1439.79 1222.19C1453.79 1217.43 1467.12 1212.93 1475.39 1210.99C1479.32 1210.05 1483.35 1209.57 1487.39 1209.56C1498.39 1209.56 1507.25 1213.3 1514.39 1216.3C1519.65 1218.52 1524.19 1220.44 1528.26 1220.44C1529.67 1220.45 1531.06 1220.2 1532.38 1219.7C1533.11 1219.43 1533.89 1219.29 1534.67 1219.29C1541.17 1219.29 1544.17 1227.84 1546.67 1240.69C1548.53 1250.28 1550.23 1263.59 1551.67 1280.25C1553.91 1305.38 1554.99 1330.8 1555.21 1336.25C1560.9 1346.6 1605.21 1429.46 1599.21 1489.05C1597.4 1507.11 1591.07 1521.42 1580.4 1531.59L1579.73 1532.21C1574.9 1536.66 1570.01 1540.9 1565.17 1544.84C1553.5 1554.46 1540.95 1562.96 1527.68 1570.21C1501.04 1584.52 1483.31 1586.06 1476.92 1586.06C1475.51 1586.07 1474.09 1585.98 1472.69 1585.79H1472.35C1471.87 1585.8 1471.39 1585.89 1470.93 1586.03C1467.7 1586.96 1463.19 1590.15 1457.93 1593.84C1449.16 1600.04 1438.24 1607.76 1424.93 1610.93C1422.4 1611.51 1419.81 1611.79 1417.21 1611.77Z" fill="#CE44A2"/>
<path id="Vector_2" d="M1487.38 1214.05C1505.45 1214.05 1516.93 1224.92 1528.22 1224.92C1530.16 1224.94 1532.09 1224.6 1533.91 1223.92C1534.14 1223.83 1534.38 1223.79 1534.63 1223.79C1546.63 1223.79 1550.77 1337.53 1550.77 1337.53C1550.77 1337.53 1600.9 1427.03 1594.77 1488.65C1593.19 1504.35 1587.97 1518.23 1577.33 1528.37L1576.69 1528.97C1571.8 1533.47 1567.02 1537.61 1562.36 1541.39C1550.92 1550.84 1538.61 1559.18 1525.58 1566.29C1502.52 1578.68 1485.4 1581.61 1476.95 1581.61C1475.76 1581.62 1474.57 1581.54 1473.39 1581.38C1473.06 1581.33 1472.72 1581.31 1472.39 1581.31C1471.49 1581.32 1470.6 1581.46 1469.74 1581.72C1459.74 1584.59 1444.64 1601.66 1423.93 1606.57C1421.74 1607.07 1419.5 1607.32 1417.25 1607.3C1401 1607.3 1380.13 1596.23 1363.45 1590.16C1357.15 1587.86 1351.45 1586.29 1346.8 1586.29C1346 1586.29 1345.21 1586.34 1344.42 1586.44C1342.9 1586.66 1341.37 1586.76 1339.83 1586.76C1324.16 1586.76 1311.99 1575.3 1315.31 1561.42C1315.4 1561.05 1315.49 1560.67 1315.56 1560.25C1318.75 1543.67 1328.04 1500.04 1333.04 1484.02C1338.04 1468 1318.21 1443.7 1326.35 1426.37C1326.61 1425.82 1326.88 1425.27 1327.17 1424.72C1336.52 1406.84 1366.83 1369.08 1366.83 1369.08C1366.83 1369.08 1360.65 1242.36 1384.27 1242.36C1400.65 1242.36 1455.53 1220.28 1476.45 1215.36C1480.05 1214.5 1483.74 1214.07 1487.45 1214.06M1487.45 1205.06C1483.07 1205.08 1478.71 1205.59 1474.45 1206.6C1465.97 1208.6 1452.6 1213.12 1438.45 1217.92C1419.24 1224.43 1392.92 1233.35 1384.34 1233.35C1382.09 1233.37 1379.86 1233.86 1377.81 1234.79C1375.76 1235.72 1373.92 1237.06 1372.42 1238.74C1366.79 1244.66 1359.11 1258.84 1357.48 1313.51C1356.79 1336.61 1357.48 1357.98 1357.78 1366.09C1350.61 1375.15 1327.56 1404.71 1319.27 1420.54C1318.97 1421.13 1318.65 1421.76 1318.27 1422.47V1422.53C1312.38 1435.08 1316.84 1448.77 1320.78 1460.84C1323.33 1468.65 1325.96 1476.71 1324.52 1481.32C1319.24 1498.25 1309.7 1543.42 1306.8 1558.54C1306.8 1558.54 1306.8 1558.6 1306.8 1558.63C1306.8 1558.83 1306.72 1559.03 1306.67 1559.24C1306.67 1559.26 1306.67 1559.29 1306.67 1559.31C1305.65 1563.4 1305.59 1567.66 1306.49 1571.77C1307.39 1575.89 1309.23 1579.74 1311.87 1583.02C1318.15 1591.02 1328.64 1595.73 1339.93 1595.73C1341.88 1595.73 1343.83 1595.59 1345.77 1595.32C1346.14 1595.27 1346.52 1595.25 1346.9 1595.25C1349.9 1595.25 1354.32 1596.34 1360.48 1598.59C1364.67 1600.11 1369.19 1601.99 1373.96 1603.97C1388.52 1609.97 1403.58 1616.26 1417.35 1616.26C1420.3 1616.27 1423.23 1615.93 1426.1 1615.26C1440.3 1611.9 1451.61 1603.9 1460.71 1597.47C1465.19 1594.3 1469.82 1591.02 1472.32 1590.31H1472.48C1474 1590.51 1475.53 1590.6 1477.07 1590.59C1483.8 1590.59 1502.42 1589 1529.95 1574.21C1543.48 1566.83 1556.27 1558.17 1568.16 1548.36C1573.06 1544.36 1578.02 1540.08 1582.9 1535.58L1582.98 1535.51L1583.66 1534.87C1595.12 1523.94 1601.91 1508.69 1603.83 1489.54C1606.53 1462.54 1599.71 1427.96 1583.58 1386.71C1576.67 1369.05 1568.73 1351.8 1559.81 1335.06C1559.51 1327.88 1558.42 1303.74 1556.29 1279.86C1554.8 1263.05 1553.07 1249.58 1551.18 1239.86C1550.32 1234.9 1549 1230.03 1547.24 1225.31C1544.41 1218.31 1540.24 1214.82 1534.78 1214.81C1533.46 1214.81 1532.15 1215.05 1530.92 1215.51C1530.1 1215.82 1529.23 1215.97 1528.36 1215.96C1525.2 1215.96 1521.04 1214.21 1516.24 1212.18C1508.75 1209.02 1499.43 1205.09 1487.52 1205.09L1487.45 1205.06Z" fill="#17091D"/>
<path id="Vector_3" d="M1344.38 1586.42C1349.38 1585.72 1355.98 1587.42 1363.38 1590.14C1382.45 1597.08 1406.99 1610.55 1423.86 1606.55C1444.57 1601.64 1459.68 1584.55 1469.67 1581.7C1470.85 1581.32 1472.11 1581.21 1473.34 1581.36C1479.67 1582.36 1498.52 1580.78 1525.53 1566.27C1538.56 1559.16 1550.87 1550.82 1562.31 1541.37C1566.98 1537.58 1571.75 1533.44 1576.64 1528.95L1577.28 1528.35C1585.65 1520.23 1591.28 1506.35 1594.72 1488.63C1600.87 1427.01 1550.72 1337.51 1550.72 1337.51C1550.72 1337.51 1546.42 1219.23 1533.86 1223.9C1518.39 1229.67 1504.55 1208.74 1476.36 1215.35C1455.44 1220.26 1400.56 1242.35 1384.18 1242.35C1360.56 1242.35 1366.74 1369.07 1366.74 1369.07C1366.74 1369.07 1336.43 1406.83 1327.08 1424.71C1326.79 1425.26 1326.52 1425.81 1326.26 1426.36C1332.53 1420.63 1363.52 1393.18 1386.33 1389.97C1411.81 1386.39 1474.83 1384.07 1497.44 1378.58C1520.05 1373.09 1538.81 1402.52 1546.84 1437.88C1552.22 1461.49 1565.71 1491.09 1559.1 1513.56C1555.82 1524.74 1547.58 1534.15 1530.92 1540.21C1529.17 1540.85 1527.45 1541.46 1525.78 1542.05C1501.26 1550.6 1483.24 1554.18 1468.91 1557.34C1455.91 1560.2 1445.97 1562.71 1436.91 1568.23C1422.22 1577.23 1397.82 1593.74 1358.91 1582.23C1346.05 1578.42 1331.59 1571.52 1315.38 1560.23C1315.31 1560.65 1315.22 1561.03 1315.13 1561.4C1311.63 1576.61 1326.59 1588.92 1344.38 1586.42Z" fill="#9C398C"/>
<path id="Vector_4" d="M1390.57 1543.13C1390.57 1543.13 1386.38 1512.48 1350.57 1492.13" stroke="#17091D" stroke-width="8.86" stroke-linecap="round" stroke-linejoin="round"/>
<path id="Vector_5" d="M1371.86 1512.65C1371.86 1512.65 1336.51 1556.23 1366.51 1594.45" stroke="#17091D" stroke-width="8.86" stroke-linecap="round" stroke-linejoin="round"/>
<path id="Vector_6" d="M1455.58 1510.44C1455.58 1510.44 1474.99 1557.3 1469.23 1584.36" stroke="#17091D" stroke-width="10.67" stroke-linecap="round" stroke-linejoin="round"/>
<path id="Vector_7" d="M1518.18 1514.17C1518.18 1514.17 1535.44 1557.86 1521.64 1573.73" stroke="#17091D" stroke-width="8.79" stroke-linecap="round" stroke-linejoin="round"/>
<path id="Vector_8" d="M1558.81 1512.72C1558.81 1512.72 1570.7 1539.99 1555.6 1552.1" stroke="#17091D" stroke-width="7" stroke-linecap="round" stroke-linejoin="round"/>
<path id="Vector_9" d="M1425 1567C1432.18 1567 1438 1554.24 1438 1538.5C1438 1522.76 1432.18 1510 1425 1510C1417.82 1510 1412 1522.76 1412 1538.5C1412 1554.24 1417.82 1567 1425 1567Z" fill="#D969BD"/>
<path id="Vector_10" d="M1496.06 1539.13C1503.02 1537.35 1506.16 1526.15 1503.08 1514.11C1500 1502.07 1491.86 1493.75 1484.91 1495.53C1477.95 1497.31 1474.81 1508.51 1477.89 1520.55C1480.97 1532.59 1489.1 1540.91 1496.06 1539.13Z" fill="#D969BD"/>
<path id="Vector_11" d="M1540.37 1518.54C1546.38 1517 1549.51 1508.94 1547.36 1500.54C1545.21 1492.14 1538.6 1486.58 1532.59 1488.12C1526.58 1489.65 1523.45 1497.71 1525.6 1506.11C1527.75 1514.51 1534.36 1520.07 1540.37 1518.54Z" fill="#D969BD"/>
</g>
<g id="collar back">
<path id="Vector_12" d="M648.5 359C647.834 359 647.176 358.851 646.574 358.566C645.973 358.281 645.442 357.865 645.02 357.35L554.02 246.35C553.533 245.758 553.206 245.051 553.07 244.296C552.933 243.542 552.992 242.765 553.24 242.04L604.63 91.8C604.831 91.1653 605.173 90.5842 605.63 90.1L635.38 59.94C636.73 58.52 671.19 23.54 782.38 23.54C809.103 23.6766 835.795 25.4164 862.31 28.75C953.38 39.85 1007.72 64.54 1037.31 83.29C1069.83 103.93 1080.45 122 1080.88 122.76C1081.32 123.523 1081.53 124.4 1081.47 125.28L1069.39 321.85C1069.32 322.933 1068.87 323.955 1068.11 324.729C1067.35 325.503 1066.33 325.975 1065.25 326.06L648.85 359H648.5Z" fill="#CE44A2"/>
<path id="Vector_13" d="M782.44 28C808.984 28.1253 835.495 29.8551 861.83 33.18C1036.5 54.5 1077 125 1077 125L1064.91 321.58L648.5 354.5L557.5 243.5L608.88 93.26L638.63 63.1C638.63 63.1 671.9 28 782.44 28ZM782.44 19C671.33 19 634.86 54.09 632.21 56.8L602.48 86.94C601.529 87.9035 600.808 89.0691 600.37 90.35L549 240.59C548.504 242.041 548.387 243.594 548.66 245.103C548.933 246.611 549.587 248.025 550.56 249.21L641.56 360.21C642.409 361.244 643.478 362.076 644.689 362.645C645.899 363.214 647.222 363.506 648.56 363.5C648.8 363.5 649.03 363.5 649.27 363.5L1065.68 330.58C1067.84 330.41 1069.87 329.465 1071.39 327.918C1072.92 326.371 1073.83 324.326 1073.96 322.16L1086 125.55C1086.1 123.804 1085.69 122.065 1084.82 120.55C1084.37 119.75 1073.21 100.75 1039.76 79.55C1020.58 67.33 997.8 56.74 972 48C940.08 37.2 903.37 29.22 862.92 24.29C836.227 20.9152 809.355 19.1487 782.45 19H782.44Z" fill="#17091D"/>
<path id="Vector_14" d="M629.7 101.26C629.7 101.26 698.42 42.7097 829.46 63.0997C960.5 83.4897 1029.46 102.5 1052.46 144.5C1075.46 186.5 1070.46 308.73 1070.46 308.73L844.71 369.34L663.71 327.41C663.71 327.41 611.23 228.53 610.86 210.52C610.49 192.51 629.7 101.26 629.7 101.26Z" fill="#9C398C" stroke="#17091D" stroke-width="9" stroke-linecap="round" stroke-linejoin="round"/>
</g>
<g id="tshirt">
<path id="Vector_15" d="M868.499 1534.44L813.129 1249.05L774.819 363.529L815.729 303.529L818.859 304.429C819.139 304.509 847.629 312.549 891.769 312.549C938.5 312.506 984.826 303.893 1028.45 287.139C1030.91 286.171 1033.53 285.665 1036.18 285.649C1042.18 285.649 1048.01 288.399 1053.35 293.809C1076.18 316.939 1093.94 391.989 1107.64 523.259C1118.37 626.089 1126.29 762.319 1131.19 928.149C1139.53 1210.42 1136.19 1484.39 1136.13 1487.15V1488.92L1089.13 1538.21L868.499 1534.44Z" fill="#7E4282"/>
<path id="Vector_16" d="M1036.18 290.12C1146.96 290.12 1131.63 1487.03 1131.63 1487.03L1087.17 1533.62L872.23 1530L817.62 1248.52L779.38 364.83L817.62 308.73C817.62 308.73 846.37 317 891.77 317C939.044 316.92 985.906 308.207 1030.05 291.29C1032 290.523 1034.08 290.12 1036.18 290.1M1036.18 281.1C1032.98 281.117 1029.82 281.72 1026.84 282.88C983.731 299.443 937.95 307.957 891.77 308C848.37 308 820.38 300.13 820.1 300.05L813.85 298.27L810.18 303.64L772 359.76L770.31 362.23L770.44 365.23L808.67 1248.92V1249.59L808.8 1250.25L863.41 1531.72L864.8 1538.89L872.09 1539.01L1087.04 1542.63L1090.98 1542.69L1093.7 1539.84L1138.16 1493.26L1140.6 1490.7L1140.65 1487.16C1140.65 1484.42 1144.06 1210.36 1135.71 928C1130.81 762 1122.87 625.71 1112.13 522.77C1105.73 461.43 1098.24 411.34 1089.87 373.89C1080.23 330.79 1069.34 303.56 1056.57 290.63C1050.35 284.33 1043.5 281.13 1036.2 281.13L1036.18 281.1Z" fill="#17091D"/>
</g>
<g id="arm 2">
<path id="Vector_17" d="M1339 1302.5C1337.86 1302.51 1336.76 1302.08 1335.93 1301.3C1335.1 1300.53 1334.59 1299.47 1334.51 1298.33C1334.45 1297.46 1327.82 1210.73 1310.68 1175.96C1309.33 1173.22 1307.85 1170.11 1306.27 1166.71C1277.81 1105.47 1258.94 1040.21 1250.35 973.23L1215.01 700.23C1214.97 699.878 1214.97 699.522 1215.01 699.17L1250.92 364.39L1251.67 357.39C1251.73 356.808 1251.9 356.244 1252.18 355.73L1288.93 287.73C1289.26 287.124 1289.72 286.601 1290.29 286.202C1290.85 285.803 1291.5 285.539 1292.18 285.43C1292.41 285.39 1292.65 285.37 1292.89 285.37C1294.04 285.372 1295.15 285.815 1295.99 286.61C1298.1 288.61 1347.99 336.72 1376.17 428.23L1386 460.12C1418.42 565.22 1478.76 760.86 1482 785.94C1483.72 799.32 1481.3 808.61 1479.35 816.08C1479.09 817.08 1478.84 818.03 1478.61 818.97C1476.91 825.85 1476.85 829.5 1480.89 834.3C1481.94 835.54 1483.21 837.11 1484.75 839.09C1499.04 857.43 1524.15 895.61 1527.68 922.4C1529.29 934.61 1536.32 968.9 1543.75 1005.2C1553.86 1054.52 1565.31 1110.42 1566.5 1127.1C1567.88 1146.48 1579.14 1204.47 1585.72 1237.31C1589.02 1253.79 1591.45 1265.48 1591.47 1265.59C1591.61 1266.24 1591.6 1266.92 1591.44 1267.57C1591.29 1268.22 1590.99 1268.83 1590.56 1269.35C1590.14 1269.87 1589.61 1270.29 1589 1270.58C1588.4 1270.86 1587.74 1271.01 1587.07 1271.01C1586.9 1271.02 1586.74 1271.02 1586.57 1271.01C1586.2 1271.01 1549.42 1266.93 1503.93 1266.93C1448.38 1266.93 1375.19 1272.93 1341.93 1301.43C1341.11 1302.13 1340.07 1302.51 1339 1302.5Z" fill="#CE44A2"/>
<path id="Vector_18" d="M1292.88 289.88C1292.88 289.88 1343.71 338.13 1371.88 429.56C1400.05 520.99 1474 759 1477.49 786.52C1479.32 800.81 1476.08 810.22 1474.19 817.9C1472.44 824.99 1471.84 830.6 1477.4 837.21C1478.5 838.51 1479.76 840.08 1481.16 841.87C1494.51 859.01 1519.71 896.74 1523.16 923C1526.99 952 1559.91 1098.85 1561.95 1127.43C1563.33 1146.73 1574.28 1203.43 1581.25 1238.2C1584.59 1254.89 1587.01 1266.52 1587.01 1266.52C1587.01 1266.52 1550.17 1262.41 1503.87 1262.41C1445.87 1262.41 1372.87 1268.87 1338.99 1298C1338.99 1298 1332.44 1209.94 1314.71 1174C1313.33 1171.19 1311.86 1168.12 1310.33 1164.84C1282.08 1104.01 1263.35 1039.21 1254.8 972.69L1219.46 699.69L1255.37 364.91L1256.12 357.96L1292.87 289.96M1292.87 280.96C1292.4 280.962 1291.92 280.999 1291.45 281.07C1290.09 281.288 1288.79 281.817 1287.66 282.616C1286.54 283.416 1285.61 284.464 1284.95 285.68L1248.2 353.68C1247.66 354.71 1247.32 355.833 1247.2 356.99L1246.45 363.94L1210.54 698.73C1210.46 699.434 1210.46 700.145 1210.54 700.85L1245.88 973.85C1254.54 1041.29 1273.53 1106.99 1302.19 1168.65C1303.78 1172.08 1305.28 1175.22 1306.65 1177.99C1323.4 1211.99 1329.96 1297.84 1330.02 1298.71C1330.14 1300.37 1330.73 1301.96 1331.7 1303.31C1332.68 1304.66 1334.01 1305.72 1335.55 1306.36C1337.08 1306.99 1338.77 1307.19 1340.41 1306.93C1342.06 1306.67 1343.6 1305.96 1344.86 1304.87C1358.94 1292.78 1382.19 1283.8 1413.96 1278.18C1439.23 1273.71 1469.49 1271.45 1503.88 1271.45C1549.09 1271.45 1585.66 1275.45 1586.02 1275.45C1586.35 1275.49 1586.69 1275.51 1587.02 1275.51C1588.36 1275.51 1589.68 1275.21 1590.88 1274.64C1592.09 1274.06 1593.16 1273.23 1594 1272.19C1594.84 1271.15 1595.45 1269.94 1595.76 1268.64C1596.08 1267.34 1596.1 1265.99 1595.83 1264.68C1595.83 1264.56 1593.38 1252.88 1590.08 1236.42C1583.52 1203.69 1572.31 1145.91 1570.94 1126.78C1569.73 1109.78 1558.74 1056.17 1548.11 1004.29C1540.69 968.08 1533.68 933.87 1532.11 921.81C1527.61 887.65 1492.29 841.48 1488.28 836.33C1486.69 834.33 1485.38 832.68 1484.28 831.39C1481.62 828.22 1481.39 826.31 1482.94 820.05C1483.16 819.13 1483.41 818.19 1483.66 817.21C1485.6 809.78 1488.25 799.61 1486.43 785.37C1483.43 761.87 1435.24 604.5 1390.32 458.84C1386.64 446.94 1383.32 436.17 1380.47 426.9C1368.87 388.986 1351.6 353.048 1329.23 320.31C1312.66 296.31 1299.63 283.86 1299.09 283.31C1297.42 281.722 1295.2 280.838 1292.89 280.84L1292.87 280.96Z" fill="#17091D"/>
<path id="Vector_19" d="M1587 1266.52C1587 1266.52 1400 1245.63 1339 1298C1339 1298 1332.45 1209.94 1314.72 1174C1313.34 1171.19 1311.87 1168.12 1310.34 1164.84C1282.09 1104.01 1263.37 1039.21 1254.81 972.69L1219.47 699.69L1255.38 364.91L1268.61 391.26C1286.68 427.247 1299.3 465.716 1306.06 505.41C1315.4 560.29 1326.56 638.5 1323.91 685.83C1319.5 764.58 1318.32 848.58 1340.91 825.08C1363.5 801.58 1395.91 748.52 1404.7 755.08C1413.49 761.64 1373.5 834.61 1361.5 856.61C1349.5 878.61 1352.44 885.35 1367.5 876.98C1382.56 868.61 1426.3 826.59 1463.41 819.6C1467.29 818.87 1470.89 818.35 1474.22 818.01C1472.47 825.1 1471.87 830.71 1477.43 837.32C1478.53 838.62 1479.79 840.19 1481.19 841.98C1462.19 852.06 1438.67 863.82 1423.47 868.57C1394.53 877.57 1290.96 932.22 1323.24 932.41C1355.52 932.6 1451.55 873.23 1469.54 894.92C1487.53 916.61 1403.71 931.92 1377.12 953.74C1350.53 975.56 1341.02 972.21 1352.77 1038.91C1364.52 1105.61 1370.77 1197.17 1402.63 1207.91C1424.35 1215.21 1521.5 1229.78 1581.29 1238.33C1584.6 1254.89 1587 1266.52 1587 1266.52Z" fill="#9C398C"/>
<path id="Vector_20" d="M1335.38 1292.19L1325.84 1295.07C1322.72 1296.01 1320.05 1298.07 1318.34 1300.85C1316.63 1303.63 1316 1306.95 1316.57 1310.16L1322.95 1346.1C1323.56 1349.55 1325.51 1352.62 1328.36 1354.64C1331.22 1356.67 1334.75 1357.49 1338.21 1356.93C1381.91 1349.8 1525.21 1327.79 1597.93 1332.82C1599.85 1332.96 1601.77 1332.68 1603.57 1332C1605.37 1331.33 1607.01 1330.27 1608.36 1328.9C1609.71 1327.54 1610.75 1325.9 1611.41 1324.09C1612.07 1322.28 1612.34 1320.36 1612.18 1318.44L1608.32 1271.5C1608.07 1268.56 1606.86 1265.79 1604.87 1263.62C1602.88 1261.45 1600.22 1260 1597.32 1259.5C1578.96 1256.31 1536.74 1251.04 1479.44 1256.76C1405.65 1264.12 1343.03 1289.15 1336.53 1291.76C1336.17 1291.93 1335.78 1292.07 1335.38 1292.19Z" fill="#9C398C" stroke="#17091D" stroke-width="9" stroke-linecap="round" stroke-linejoin="round"/>
</g>
<g id="body right">
<path id="Vector_21" d="M818.1 1562.39C762.7 1562.39 697.86 1554.56 673.55 1544.93C662.41 1540.52 641.39 1535.93 611.07 1531.28C550.26 1521.97 472.38 1515.7 471.6 1515.64C470.625 1515.56 469.702 1515.17 468.971 1514.52C468.24 1513.87 467.741 1513 467.55 1512.04C467.3 1510.81 442.89 1388.7 438.29 1325.87V1325.57C437.38 1312.88 437.29 1303.57 438.09 1297.14C454.7 1159.08 467.53 995.07 453.75 948.8C435.61 888.05 433.21 736 433.05 724.25C432.13 720.37 425.8 693.53 417.14 655C399.19 575.11 367.32 427.42 355.61 335.77C346.46 264.13 352.55 251.84 360.48 249.23C392.67 238.62 566.97 165.23 574.37 162.06L577.54 160.74C578.088 160.51 578.676 160.391 579.27 160.39C579.735 160.39 580.197 160.461 580.64 160.6C618.38 173.147 655.432 187.677 691.64 204.13C769.17 239.64 816.96 274.13 833.7 306.67C848.89 336.18 860.24 360.14 869.43 382.08C873.25 391.19 876.72 400 880.04 409.03C880.16 409.34 880.74 410.93 880.74 410.93C882.58 415.93 884.39 421.11 886.15 426.29C886.172 426.345 886.188 426.402 886.2 426.46C893.15 447.01 899.6 468.99 907.75 499.91C911.75 515.21 915.24 534.06 918.01 555.91C928.31 636.75 929.01 753.91 919.82 861.75C914.47 924.59 914.31 1076.22 914.15 1222.86C914.07 1296.49 913.99 1366.03 913.27 1422.28L913.15 1431.19C912.96 1443.8 912.77 1454.41 912.56 1463.61C911.12 1525.51 908.72 1538.33 906.8 1542.61C900.88 1555.74 871 1562.39 818.1 1562.39Z" fill="#CE44A2"/>
<path id="Vector_22" d="M579.27 164.89C579.27 164.89 790.5 232.5 829.72 308.73C844.58 337.6 855.89 361.35 865.3 383.82C869.09 392.82 872.57 401.7 875.84 410.58C876.08 411.22 876.31 411.87 876.55 412.51C878.39 417.51 880.17 422.61 881.91 427.74C889.36 449.74 896.02 472.99 903.42 501.05C907.5 516.53 910.88 535.3 913.57 556.49C924.04 638.7 924.22 757.31 915.36 861.38C907.31 955.92 910.96 1253.55 908.79 1422.23V1424.48C908.79 1426.72 908.76 1428.94 908.7 1431.14C908.53 1442.64 908.34 1453.47 908.11 1463.52C907.11 1506.06 905.49 1534.68 902.75 1540.74C897.14 1553.14 860.75 1557.88 818.13 1557.88C763.65 1557.88 698.97 1550.14 675.24 1540.74C662.41 1535.66 638.65 1530.94 611.78 1526.82C550.1 1517.38 471.99 1511.14 471.99 1511.14C471.99 1511.14 447.36 1388.43 442.79 1325.24C441.96 1313.69 441.79 1304.13 442.57 1297.67C447.57 1255.85 476.57 1009.49 458.07 947.51C439.57 885.53 437.54 723.7 437.54 723.7C437.54 723.7 431 696 421.53 654C402.42 569 371.6 425.41 360.07 335.19C354.13 288.66 353.32 256.31 361.89 253.49C392.71 243.34 551.71 176.49 576.12 166.2L579.27 164.88M579.27 155.88C578.078 155.878 576.898 156.116 575.8 156.58L572.64 157.9C565.23 161.02 391.11 234.39 359.07 244.9C348.25 248.46 346.67 263.54 346.54 277.83C346.42 291.73 347.96 311.4 351.14 336.29C362.88 428.17 394.78 576 412.75 656C421.11 693.24 427.31 719.56 428.55 724.83C428.77 739.83 431.35 889.53 449.41 950.11C462.99 995.71 450.15 1159.01 433.59 1296.63C432.78 1303.35 432.84 1312.94 433.77 1325.92C433.77 1326.06 433.77 1326.2 433.77 1326.35C438.41 1389.49 462.09 1507.92 463.1 1512.94C463.485 1514.86 464.484 1516.6 465.945 1517.9C467.406 1519.19 469.251 1519.98 471.2 1520.14C471.98 1520.2 549.71 1526.47 610.35 1535.75C640.35 1540.34 661.03 1544.85 671.86 1549.14C696.6 1558.94 762.19 1566.91 818.06 1566.91C841.5 1566.91 860.94 1565.54 875.85 1562.85C895.7 1559.26 906.85 1553.42 910.85 1544.48C913.19 1539.3 915.56 1525.93 917.01 1463.76C917.22 1454.49 917.41 1443.87 917.6 1431.3L917.69 1424.63V1422.38C918.41 1366.1 918.49 1296.54 918.57 1222.91C918.73 1076.36 918.89 924.82 924.23 862.17C933.43 754.07 932.73 636.51 922.4 555.38C919.6 533.32 916.11 514.28 912.02 498.79C903.96 468.21 897.29 445.47 890.41 425.11C890.388 425.028 890.361 424.948 890.33 424.87C888.57 419.67 886.74 414.48 884.9 409.44V409.37L884.57 408.48C884.45 408.14 884.32 407.8 884.19 407.48C880.85 398.4 877.36 389.54 873.52 380.38C864.29 358.38 852.88 334.26 837.64 304.65C820.51 271.16 772 236 693.54 200C657.155 183.486 619.923 168.905 582 156.32C581.115 156.034 580.19 155.888 579.26 155.89L579.27 155.88Z" fill="#17091D"/>
<path id="Vector_23" d="M908.76 1424.49C908.76 1426.73 908.73 1428.95 908.67 1431.15C908.5 1442.65 908.31 1453.48 908.08 1463.53C907.08 1506.07 905.46 1534.69 902.72 1540.75C889.93 1569 717.5 1557.5 675.21 1540.75C662.38 1535.67 638.62 1530.95 611.75 1526.83C550.07 1517.39 471.96 1511.15 471.96 1511.15C471.96 1511.15 447.33 1388.44 442.76 1325.25C441.93 1313.7 441.76 1304.14 442.54 1297.68C447.54 1255.86 476.54 1009.5 458.04 947.519C439.54 885.539 437.54 723.699 437.54 723.699C437.54 723.699 431 695.999 421.53 653.999C402.42 568.999 371.6 425.409 360.07 335.189C400.91 413.759 540.65 685.999 538.74 728.589C536.5 778.499 513.1 829.539 542.8 902.999C572.5 976.459 607.59 1005.78 575.55 1080.13C545.66 1149.48 516.33 1184.36 537.43 1240.38C538.95 1244.42 540.74 1248.58 542.8 1252.85C547.11 1261.79 551.21 1270.37 555.21 1278.58C579.68 1328.78 600.51 1364.67 644.88 1378.91C696.5 1395.48 825.67 1410.41 849.09 1414.91C857.24 1416.48 870.85 1418.68 885.09 1420.91C890.43 1421.73 895.87 1422.55 901.15 1423.34L908.76 1424.49Z" fill="#9C398C"/>
<path id="Vector_24" d="M915.36 861.39C907.31 955.93 910.96 1253.56 908.79 1422.24L901.21 1423.37L884.86 1425.82L885.14 1420.94L896.61 1223.41C898.22 1157.83 902 932 902.72 858C903.44 784 896 576 893.08 550.93C892.46 545.63 891.24 537.08 889.69 526.93C883.93 489.01 873.69 428.48 873.69 428.48L870.82 413.95L870.19 410.76L876.54 412.54C878.38 417.54 880.16 422.64 881.9 427.77C889.35 449.77 896.01 473.03 903.41 501.09C907.49 516.57 910.87 535.34 913.56 556.53C924 638.71 924.22 757.32 915.36 861.39Z" fill="#D969BD"/>
<path id="Vector_25" d="M711.27 843.58C640.17 843.58 558.44 820.64 552.27 798.95C549.53 789.32 548.06 756.84 547.75 699.65C547.61 672.65 547.75 641.21 548.14 606.07C548.34 588.19 548.6 569.8 548.92 551.43C549.063 543.083 551.758 534.98 556.644 528.211C561.531 521.443 568.373 516.333 576.25 513.57C608.59 502.39 648.83 500.05 676.89 500.05C715.5 500.05 756.49 504.49 789.33 512.23C814.33 518.13 845.51 528.49 851.98 544.35C855.62 553.28 857.66 570.94 858.22 598.35C859.81 673.58 849.3 796.88 849.22 798.12C849.119 799.222 848.613 800.248 847.8 801C822.19 825.18 782.53 839.66 733.12 842.89C726 843.34 718.68 843.58 711.27 843.58Z" fill="#CE44A2"/>
<path id="Vector_26" d="M676.88 504.55C755.52 504.55 838.37 522.89 847.81 546.05C851.5 555.05 853.23 574.37 853.72 598.43C855.32 674.29 844.72 797.72 844.72 797.72C816.88 824 775.56 835.6 732.83 838.39C725.67 838.86 718.45 839.08 711.27 839.08C635.33 839.08 561.36 814.47 556.6 797.72C553.6 787.23 552.5 746.41 552.25 699.63C552.09 668.71 552.31 635.19 552.64 606.12C552.88 584.49 553.18 565.32 553.42 551.51C553.53 544.081 555.92 536.865 560.266 530.839C564.612 524.813 570.705 520.268 577.72 517.82C604.64 508.52 640.31 504.55 676.88 504.55ZM676.88 495.55C648.46 495.55 607.69 497.94 574.76 509.31C566.011 512.38 558.412 518.055 552.985 525.573C547.557 533.09 544.561 542.089 544.4 551.36C544.08 569.77 543.82 588.16 543.62 606.02C543.22 641.15 543.09 672.66 543.23 699.68C543.64 776.4 546.1 793.78 547.92 800.18C549.82 806.87 556.35 813.09 567.86 819.18C577.3 824.18 590.05 829.07 604.73 833.31C637.22 842.68 676.05 848.06 711.25 848.06C718.76 848.06 726.25 847.82 733.4 847.35C756.95 845.81 778.4 841.78 797.24 835.35C818.72 828.02 836.76 817.55 850.87 804.23C852.477 802.714 853.47 800.66 853.66 798.46C853.76 797.22 864.29 673.68 862.66 598.21C862.09 570.21 859.94 552.06 856.08 542.62C850.31 528.47 828.18 516.76 790.31 507.83C757.2 500 715.85 495.55 676.9 495.55H676.88Z" fill="#17091D"/>
<path id="Vector_27" d="M643 624.399C642.942 624.586 642.855 624.761 642.74 624.919C642.629 625.065 642.489 625.187 642.33 625.279C642.183 625.36 642.019 625.408 641.85 625.419C641.681 625.426 641.513 625.392 641.36 625.319C621.43 616.629 598.44 608.799 579.88 593.159C579.18 592.587 578.57 591.913 578.07 591.159C575.539 587.601 573.836 583.522 573.085 579.221C572.334 574.92 572.554 570.505 573.73 566.299C573.79 566.067 573.923 565.86 574.11 565.709C574.192 565.639 574.288 565.586 574.391 565.553C574.494 565.52 574.603 565.509 574.71 565.519C574.821 565.529 574.928 565.56 575.026 565.612C575.124 565.663 575.21 565.734 575.28 565.819C575.445 566.004 575.55 566.234 575.58 566.479C576.68 577.299 579.68 584.553 584.58 588.239C602.409 601.872 621.779 613.361 642.29 622.469C642.62 622.632 642.874 622.915 643 623.259C643.123 623.63 643.123 624.029 643 624.399Z" fill="#9C398C"/>
<path id="Vector_28" d="M766.65 626.109C770.474 620.836 775.345 616.41 780.96 613.109C792.539 606.092 803.731 598.458 814.49 590.239C817.733 587.714 820.648 584.795 823.17 581.549C823.391 581.24 823.707 581.012 824.07 580.899C824.405 580.819 824.758 580.854 825.07 580.999C825.422 581.167 825.71 581.444 825.89 581.789C826.093 582.163 826.19 582.585 826.17 583.009C826.06 591.629 821.17 597.009 814.62 601.319C799.894 610.893 784.37 619.939 768.05 628.459C767.928 628.524 767.794 628.563 767.657 628.573C767.519 628.584 767.381 628.565 767.25 628.519C766.969 628.421 766.73 628.231 766.57 627.979C766.406 627.701 766.32 627.383 766.32 627.059C766.331 626.717 766.446 626.385 766.65 626.109Z" fill="#9C398C"/>
<path id="Vector_29" d="M712.89 600.51C711.993 599.59 710.893 598.894 709.678 598.477C708.463 598.06 707.167 597.933 705.895 598.107C704.622 598.281 703.408 598.751 702.349 599.479C701.291 600.207 700.418 601.173 699.8 602.299C695.47 609.999 689.39 624.149 698.98 630.109C712.5 638.499 721.09 624.18 717.29 609.34C716.594 606.072 715.08 603.033 712.89 600.51Z" fill="#D969BD" stroke="#17091D" stroke-width="7" stroke-linecap="round" stroke-linejoin="round"/>
<path id="Vector_30" d="M844.71 797.72C816.88 824 775.56 835.6 732.83 838.39C733.18 832.84 735.35 827.99 740.57 825C760.65 813.5 790.5 802.5 815.79 787.74C834.61 776.74 832.93 707.01 830.84 672.09C830.673 669.185 829.903 666.346 828.577 663.755C827.252 661.164 825.401 658.878 823.143 657.042C820.885 655.206 818.269 653.861 815.462 653.093C812.655 652.325 809.718 652.15 806.84 652.58C799.487 653.695 792.34 655.892 785.63 659.1C763.77 669.7 718.5 690.5 702.63 691.93C686.76 693.36 705.46 808.5 695.2 796.93C684.94 785.36 695.46 702.47 688.96 696.14C682.46 689.81 598.46 657.47 580.7 649.52C567.22 643.52 556.57 681.13 552.21 699.6C552.05 668.68 552.63 632.04 552.96 602.97L635.96 639.97L688.46 662.47L711.15 665.47L732.46 659.47L853.68 598.4C855.32 674.29 844.71 797.72 844.71 797.72Z" fill="#9C398C"/>
<path id="Vector_31" d="M552.71 600.1L688.45 659.7C694.746 662.463 701.562 663.846 708.437 663.754C715.313 663.663 722.089 662.1 728.31 659.17L853.76 600.1" stroke="#17091D" stroke-width="7" stroke-linecap="round" stroke-linejoin="round"/>
<path id="Vector_32" d="M553.88 1283.14C551.125 1283.14 548.384 1282.73 545.75 1281.92C533.85 1278.29 529.53 1270.86 528 1265.27C525.12 1254.75 529.7 1240.89 539.68 1229.97C557.87 1210.04 599.59 1140.97 622 1103.91C625.06 1098.84 627.77 1094.35 630 1090.64C636.65 1079.71 644.36 1065.24 652.52 1049.92C667.9 1021.07 682.42 993.83 692.16 985.48C694.849 983.062 698.324 981.701 701.94 981.65C707.54 981.65 713.11 985.01 717.6 991.1C724.97 1001.1 729.81 1019.55 724.02 1038.33C715.87 1064.76 610.25 1222.4 578.08 1270.09C575.42 1274.08 571.818 1277.36 567.593 1279.64C563.368 1281.91 558.649 1283.12 553.85 1283.14H553.88Z" fill="#7E4282"/>
<path id="Vector_33" d="M702 986.149C714.7 986.149 727.59 1011.66 719.78 1037C711.71 1063.18 602.19 1226.39 574.41 1267.57C572.153 1270.94 569.106 1273.72 565.533 1275.65C561.96 1277.58 557.97 1278.6 553.91 1278.64C551.6 1278.65 549.301 1278.31 547.09 1277.64C524.51 1270.74 529.89 1247.41 543.03 1233.02C564.03 1210.02 615.03 1124.02 633.9 1093.02C652.77 1062.02 681.03 1001.02 695.15 988.929C697.022 987.21 699.459 986.235 702 986.189M702 977.189C697.309 977.237 692.795 978.981 689.29 982.099C679.63 990.379 666.91 1013.51 648.61 1047.84C640.48 1063.11 632.8 1077.52 626.21 1088.34C623.96 1092.05 621.21 1096.54 618.21 1101.62C595.88 1138.62 554.31 1207.37 536.41 1226.97C527.67 1236.55 519.74 1251.97 523.72 1266.5C526.3 1275.94 533.72 1282.96 544.49 1286.27C547.554 1287.2 550.738 1287.68 553.94 1287.68C559.48 1287.67 564.931 1286.29 569.814 1283.68C574.697 1281.06 578.861 1277.28 581.94 1272.68C595.37 1252.78 630.06 1201.14 662.11 1151.68C722.91 1057.76 727.11 1044.23 728.45 1039.79C735.13 1018.12 728.8 998.649 721.35 988.559C715.99 981.289 709.14 977.279 702.07 977.279L702 977.189Z" fill="#17091D"/>
<path id="Vector_34" d="M818.1 1562.39C762.7 1562.39 697.86 1554.56 673.55 1544.93C662.41 1540.52 641.39 1535.93 611.07 1531.28C550.25 1521.97 472.38 1515.7 471.6 1515.64C470.625 1515.56 469.702 1515.17 468.971 1514.52C468.24 1513.87 467.741 1513 467.55 1512.04C467.3 1510.81 442.81 1388.32 438.27 1325.57C438.207 1324.69 438.402 1323.82 438.829 1323.05C439.257 1322.29 439.899 1321.66 440.677 1321.26C441.455 1320.85 442.334 1320.68 443.207 1320.77C444.08 1320.86 444.908 1321.2 445.59 1321.75C451.08 1326.21 582.8 1430.75 823.02 1430.75C850.36 1430.75 878.45 1429.37 906.53 1426.65H906.91H908.65C909.248 1426.65 909.839 1426.77 910.39 1427C910.942 1427.23 911.441 1427.56 911.86 1427.99C912.279 1428.41 912.609 1428.92 912.831 1429.47C913.052 1430.03 913.161 1430.62 913.15 1431.22C912.96 1443.83 912.77 1454.43 912.56 1463.63C911.12 1525.53 908.72 1538.35 906.8 1542.63C900.88 1555.74 871 1562.39 818.1 1562.39Z" fill="#CE44A2"/>
<path id="Vector_35" d="M442.76 1325.25C448.96 1330.25 581.61 1435.25 823.02 1435.25C849.69 1435.25 877.68 1433.97 907.02 1431.13H908.71C908.54 1442.63 908.35 1453.46 908.12 1463.51C907.12 1506.05 905.5 1534.67 902.76 1540.73C897.15 1553.13 860.76 1557.87 818.14 1557.87C763.66 1557.87 698.98 1550.13 675.25 1540.73C662.42 1535.65 638.66 1530.93 611.79 1526.81C550.11 1517.37 472 1511.13 472 1511.13C472 1511.13 447.37 1388.42 442.8 1325.23M442.8 1316.23C441.562 1316.23 440.336 1316.48 439.199 1316.97C438.063 1317.46 437.04 1318.19 436.195 1319.09C435.35 1320 434.702 1321.07 434.289 1322.24C433.877 1323.4 433.711 1324.64 433.8 1325.88C438.36 1388.88 462.15 1507.88 463.16 1512.88C463.545 1514.8 464.544 1516.54 466.005 1517.84C467.467 1519.13 469.311 1519.92 471.26 1520.08C472.04 1520.14 549.77 1526.41 610.41 1535.69C640.41 1540.28 661.09 1544.79 671.92 1549.08C696.66 1558.88 762.25 1566.85 818.12 1566.85C841.56 1566.85 861 1565.48 875.91 1562.79C895.76 1559.2 906.91 1553.36 910.91 1544.42C913.25 1539.24 915.62 1525.87 917.07 1463.7C917.28 1454.43 917.47 1443.81 917.66 1431.24C917.678 1430.05 917.458 1428.86 917.013 1427.76C916.568 1426.65 915.908 1425.64 915.071 1424.79C914.233 1423.94 913.235 1423.27 912.135 1422.81C911.034 1422.35 909.853 1422.11 908.66 1422.11H908.55H906.86C906.61 1422.11 906.35 1422.11 906.1 1422.11C878.18 1424.82 850.22 1426.19 823.01 1426.19C584.36 1426.19 453.86 1322.57 448.42 1318.19C446.816 1316.89 444.814 1316.19 442.75 1316.19L442.8 1316.23Z" fill="#17091D"/>
<path id="Vector_36" d="M908.67 1431.15C908.5 1442.65 908.31 1453.48 908.08 1463.53C876.89 1464.86 837.01 1466.1 801.85 1465.69C731.2 1464.87 668.5 1447.5 613.94 1435.88C574.41 1427.47 596.64 1489.29 611.75 1526.83C550.07 1517.39 471.96 1511.15 471.96 1511.15C471.96 1511.15 447.33 1388.44 442.76 1325.25C449.64 1330.83 612.45 1459.71 906.98 1431.17L908.67 1431.15Z" fill="#9C398C"/>
</g>
<g id="glove 1">
<path id="Vector_37" d="M486 1632.18C474.17 1632.18 463.08 1628.76 454.17 1626C448.26 1624.18 443.17 1622.6 439.76 1622.6H439.41C438.824 1622.59 438.242 1622.71 437.7 1622.93C432.95 1625.32 422.7 1627.85 408.26 1627.85C399.012 1627.79 389.786 1626.92 380.69 1625.25H380.57C365.684 1622.48 351.095 1618.3 337 1612.77C331.18 1610.54 325.22 1608.03 319.27 1605.32L318.39 1604.9C305.11 1598.56 294.65 1586.9 287.32 1570.34C263.4 1516.12 279.12 1424.98 281.57 1411.82C279.62 1407.67 273.51 1394.51 267.92 1380.37C255.24 1348.27 256.02 1338.88 257.72 1334.6C258.107 1333.52 258.722 1332.53 259.522 1331.7C260.322 1330.88 261.29 1330.23 262.36 1329.81C267.36 1327.87 272.83 1325.69 278.6 1323.38C313.3 1309.5 360.83 1290.5 399 1290.5C410.69 1290.5 421 1292.29 429.68 1295.84C451.75 1304.84 471.03 1368.13 474.8 1381.19C482.22 1386.08 515.8 1408.47 529.07 1421.37C529.55 1421.84 530.02 1422.37 530.47 1422.8C538.55 1431.38 541.77 1441.04 544.89 1450.39C547.14 1457.14 549.26 1463.51 553.1 1468.91C558.9 1477.06 564.96 1495.91 570.81 1514.14C575.13 1527.56 579.58 1541.43 583.01 1547.62L583.49 1548.45C585.543 1551.69 586.747 1555.4 586.99 1559.23C587.233 1563.06 586.507 1566.89 584.88 1570.36C580.8 1579.47 571.71 1586.09 560.58 1588.08C555.89 1588.92 549.81 1593.37 545.58 1596.64C541.99 1599.46 538.25 1602.64 534.29 1606.08C520.82 1617.64 505.55 1630.75 490.8 1631.98C489.28 1632.11 487.63 1632.18 486 1632.18Z" fill="#CE44A2"/>
<path id="Vector_38" d="M399 1295C409.57 1295 419.38 1296.49 428 1300C449.86 1308.94 471 1384 471 1384C471 1384 511.54 1410.47 526 1424.56C526.44 1424.99 526.87 1425.43 527.29 1425.87C540.41 1439.81 539.85 1457.87 549.51 1471.48C559.17 1485.09 570.97 1535 579.15 1549.77C579.35 1550.14 579.55 1550.48 579.75 1550.77C587.94 1564.1 577.55 1580.44 559.86 1583.6C554.86 1584.49 549.15 1588.17 542.93 1593.05C526.93 1605.57 507.82 1626.05 490.55 1627.44C489.04 1627.57 487.55 1627.62 486.03 1627.62C466.91 1627.62 449.55 1618.05 439.79 1618.05H439.28C438.038 1618.06 436.813 1618.34 435.69 1618.87C431.93 1620.75 422.69 1623.3 408.29 1623.3C399.269 1623.24 390.271 1622.39 381.4 1620.75C366.809 1618.04 352.511 1613.94 338.7 1608.51C333.1 1606.36 327.273 1603.91 321.22 1601.16L320.43 1600.79C307.17 1594.46 297.89 1582.89 291.51 1568.45C266.51 1511.8 286.34 1411.15 286.34 1411.15C286.34 1411.15 251.5 1338.83 264 1334C299.4 1320.32 355.52 1295 399 1295ZM399 1286C360 1286 312 1305.2 276.92 1319.21C271.17 1321.52 265.73 1323.69 260.74 1325.62C259.096 1326.27 257.605 1327.26 256.365 1328.52C255.125 1329.78 254.163 1331.28 253.54 1332.94C251.27 1338.69 250.7 1349.01 263.75 1382.03C268.95 1395.2 274.47 1407.24 276.89 1412.44C273.697 1430.86 271.563 1449.45 270.5 1468.12C267.98 1512.34 272.26 1547.34 283.21 1572.12C290.99 1589.73 302.21 1602.12 316.48 1608.94L317.34 1609.35H317.41C323.41 1612.1 329.49 1614.64 335.41 1616.91C349.755 1622.53 364.602 1626.79 379.75 1629.61H379.93C389.268 1631.32 398.738 1632.2 408.23 1632.26C421.01 1632.26 432.62 1630.31 439.38 1627.02H439.73C442.44 1627.02 447.48 1628.57 452.81 1630.22C462.01 1633.06 473.46 1636.59 485.97 1636.59C487.75 1636.59 489.52 1636.52 491.24 1636.38C507.44 1635.03 523.24 1621.38 537.24 1609.38C541.17 1606.01 544.87 1602.83 548.38 1600.07C554.25 1595.47 558.62 1592.89 561.38 1592.4C573.97 1590.15 584.29 1582.56 588.98 1572.09C590.885 1567.95 591.732 1563.4 591.446 1558.85C591.16 1554.3 589.749 1549.89 587.34 1546.02V1545.96C587.23 1545.78 587.12 1545.6 587.02 1545.41C587.023 1545.39 587.023 1545.36 587.02 1545.34C583.81 1539.53 579.42 1525.87 575.17 1512.65C568.94 1493.24 563.05 1474.91 556.84 1466.19C553.39 1461.34 551.37 1455.28 549.23 1448.86C546.11 1439.51 542.58 1428.86 533.84 1419.63C533.3 1419.07 532.84 1418.57 532.33 1418.1C519.51 1405.6 488.33 1384.63 478.76 1378.28C476.88 1371.97 472.33 1357.38 466.11 1341.95C462.114 1331.65 457.299 1321.7 451.71 1312.17C445.01 1301.17 438.4 1294.44 431.5 1291.62C422.29 1287.85 411.4 1285.94 399.13 1285.94L399 1286Z" fill="#17091D"/>
<path id="Vector_39" d="M559.81 1583.66C554.81 1584.55 549.1 1588.23 542.88 1593.11C526.88 1605.63 507.77 1626.11 490.5 1627.5C469.28 1629.27 449.62 1617.74 439.23 1618.12C437.988 1618.13 436.763 1618.41 435.64 1618.94C429.92 1621.81 411.52 1626.21 381.35 1620.82C366.759 1618.11 352.461 1614.01 338.65 1608.58C333.05 1606.43 327.223 1603.98 321.17 1601.23L320.38 1600.86C309.9 1595.74 300.26 1584.24 291.46 1568.52C266.46 1511.87 286.29 1411.22 286.29 1411.22C286.29 1411.22 251.5 1338.83 264 1334C308 1317 384 1282 428 1300C449.86 1308.94 471 1384 471 1384C471 1384 422.72 1317.93 400 1322C374.67 1326.52 324.19 1337.19 301 1339C277.81 1340.81 317.81 1469.3 321.16 1505.4C323.39 1529.52 319.76 1561.84 333.03 1581.15C339.62 1590.75 350.38 1597.15 368.1 1597.72L373.56 1597.87C399.56 1598.38 417.76 1596.18 432.36 1594.73C445.59 1593.41 455.83 1592.73 466.11 1595.15C482.88 1599.15 511.19 1607.25 544.54 1584.15C555.54 1576.53 567.18 1565.48 579.09 1549.75C579.29 1550.12 579.49 1550.46 579.69 1550.75C587.89 1564.16 577.5 1580.5 559.81 1583.66Z" fill="#9C398C"/>
<path id="Vector_40" d="M502.45 1556.87C502.45 1556.87 496.91 1526.43 524.63 1496" stroke="#17091D" stroke-width="8.86" stroke-linecap="round" stroke-linejoin="round"/>
<path id="Vector_41" d="M510.77 1522.09C510.77 1522.09 557.91 1552.52 541.27 1598.17" stroke="#17091D" stroke-width="8.86" stroke-linecap="round" stroke-linejoin="round"/>
<path id="Vector_42" d="M430.5 1546C430.5 1546 426.61 1596.57 440.5 1620.5" stroke="#17091D" stroke-width="10.67" stroke-linecap="round" stroke-linejoin="round"/>
<path id="Vector_43" d="M372.16 1569C372.16 1569 369.34 1615.89 387.38 1626.68" stroke="#17091D" stroke-width="8.79" stroke-linecap="round" stroke-linejoin="round"/>
<path id="Vector_44" d="M333.1 1580.26C333.1 1580.26 330.27 1609.87 348.38 1616.68" stroke="#17091D" stroke-width="7" stroke-linecap="round" stroke-linejoin="round"/>
<path id="Vector_45" d="M461.5 1577C467.299 1577 472 1564.24 472 1548.5C472 1532.76 467.299 1520 461.5 1520C455.701 1520 451 1532.76 451 1548.5C451 1564.24 455.701 1577 461.5 1577Z" fill="#D969BD"/>
<path id="Vector_46" d="M397.5 1573C403.299 1573 408 1563.37 408 1551.5C408 1539.63 403.299 1530 397.5 1530C391.701 1530 387 1539.63 387 1551.5C387 1563.37 391.701 1573 397.5 1573Z" fill="#D969BD"/>
<path id="Vector_47" d="M350.5 1584C356.299 1584 361 1576.61 361 1567.5C361 1558.39 356.299 1551 350.5 1551C344.701 1551 340 1558.39 340 1567.5C340 1576.61 344.701 1584 350.5 1584Z" fill="#D969BD"/>
</g>
<g id="arm 1">
<path id="Vector_48" d="M203 1345.5C202.366 1345.5 201.74 1345.37 201.16 1345.11C200.524 1344.82 199.963 1344.39 199.52 1343.85C199.078 1343.31 198.766 1342.68 198.61 1342C197.84 1338.62 121.75 1004.29 112.35 979.19C112.27 978.98 112.19 978.77 112.11 978.61C107.01 968.27 107.5 947.82 113.53 917.76C114.53 912.7 115.73 907.36 117.03 901.89C117.74 898.89 119.68 890.57 122.61 877.89C139.33 805.75 190.21 586.24 208.36 526.42C210.46 519.52 212.79 511.73 215.31 503.28C223.62 475.5 233.95 440.92 245.19 407.13C265.67 345.59 340.42 258.41 360.05 249C364.151 246.948 368.665 245.857 373.25 245.81C387.14 245.81 400.32 256.51 412.41 277.61C462.47 364.94 485.55 611.9 484.49 628.34C475.91 760.8 459.28 812.72 447.14 850.63C446.51 852.63 445.89 854.52 445.29 856.41C440.54 871.41 436.23 882.66 432.42 892.62C426.73 907.5 421.82 920.35 417.42 940.25C413.77 956.69 416.42 976.06 419.42 998.49C422.42 1020.35 425.74 1045.11 424 1072.83C423.699 1079.41 423.94 1086.01 424.72 1092.56V1092.65C431.56 1156.7 475.78 1276.28 476.23 1277.48C476.481 1278.16 476.564 1278.89 476.472 1279.61C476.38 1280.33 476.116 1281.02 475.702 1281.61C475.287 1282.21 474.736 1282.7 474.093 1283.03C473.45 1283.37 472.736 1283.55 472.01 1283.55H471.76C464.29 1283.13 456.62 1282.92 448.98 1282.92C370.24 1282.92 298.64 1304.92 252.45 1323.37C223.2 1335.06 205.37 1344.9 205.19 1344.99C204.516 1345.34 203.762 1345.52 203 1345.5Z" fill="#CE44A2"/>
<path id="Vector_49" d="M373.25 250.26C386.2 250.26 397.95 261.38 408.51 279.8C457.78 365.75 481.11 610.8 480 628C471 767 452.77 817.94 441 855C429.23 892.06 420.5 905.5 413 939.22C405.5 972.94 423 1016.74 419.49 1072.5C419.174 1079.33 419.418 1086.18 420.22 1092.98C427.17 1158.33 471.99 1278.98 471.99 1278.98C464.26 1278.55 456.57 1278.34 448.99 1278.34C368.79 1278.34 295.99 1301.04 250.79 1319.11C220.86 1331.08 203 1341 203 1341C203 1341 126.18 1003.29 116.56 977.61C116.39 977.17 116.25 976.81 116.12 976.56C110.37 964.91 113.82 939.17 117.94 918.65C119.11 912.85 120.33 907.46 121.41 902.93C126.32 882.36 191.5 597.5 212.67 527.76C221.67 498.28 234.81 452.63 249.46 408.58C269.47 348.42 343.6 261.87 362 253C365.494 251.246 369.341 250.309 373.25 250.26ZM373.25 241.26C367.987 241.307 362.804 242.548 358.09 244.89C345.2 251.11 319.23 280.09 299.21 306.06C282.7 327.47 253.21 368.9 240.92 405.74C229.66 439.6 219.31 474.21 211 502C208.51 510.35 206.15 518.24 204.06 525.13C185.86 585.13 134.95 804.71 118.23 876.88C115.29 889.52 113.36 897.88 112.66 900.82C111.34 906.34 110.15 911.73 109.12 916.82C102.8 948.27 102.45 969.08 108.02 980.44L108.15 980.75C115.64 1000.86 167.72 1226.42 194.22 1342.95C194.53 1344.31 195.153 1345.58 196.039 1346.66C196.926 1347.74 198.051 1348.6 199.327 1349.17C200.603 1349.74 201.994 1350.01 203.39 1349.95C204.786 1349.88 206.149 1349.5 207.37 1348.82C207.54 1348.72 225.17 1339 254.11 1327.44C299.94 1309.13 370.95 1287.31 448.97 1287.31C456.53 1287.31 464.11 1287.52 471.5 1287.94H472C473.452 1287.94 474.882 1287.59 476.169 1286.92C477.455 1286.24 478.56 1285.27 479.39 1284.08C480.219 1282.89 480.747 1281.51 480.93 1280.07C481.113 1278.63 480.945 1277.17 480.44 1275.81C479.99 1274.61 435.98 1155.6 429.19 1092.1C429.19 1092.1 429.19 1092.02 429.19 1091.98C428.44 1085.68 428.206 1079.32 428.49 1072.98C430.26 1044.81 426.87 1019.81 423.88 997.75C420.89 975.69 418.33 956.75 421.81 941.08C426.15 921.5 431.01 908.8 436.63 894.08C440.46 884.08 444.8 872.7 449.63 857.62L451.47 851.85C463 816 480.37 761.6 489 628.58C489.62 618.94 483.87 552.16 472 478.26C461.31 411.37 443 321.87 416.29 275.32C403.29 252.72 388.84 241.26 373.22 241.26H373.25Z" fill="#17091D"/>
<path id="Vector_50" d="M250.77 1319.13C220.86 1331.08 203 1341 203 1341C203 1341 126.18 1003.29 116.56 977.609C137.88 979.789 169.26 985.289 171.51 998.719C173.52 1010.68 216.63 1176.89 250.77 1319.13Z" fill="#9C398C"/>
<path id="Vector_51" d="M249.46 408.58C233.15 549.93 174.92 841.28 160.32 869.44C150.12 889.13 129.55 911.63 118 923C118.174 921.554 118.154 920.091 117.94 918.65C119.11 912.85 120.33 907.46 121.41 902.93C126.32 882.36 191.5 597.5 212.67 527.76C221.62 498.28 234.81 452.63 249.46 408.58Z" fill="#9C398C"/>
<path id="Vector_52" d="M245.93 916.8C209.58 918.6 173.31 927.56 137.55 934.64C137.23 934.703 136.9 934.695 136.584 934.616C136.268 934.537 135.973 934.389 135.721 934.182C135.468 933.976 135.265 933.716 135.125 933.422C134.985 933.127 134.911 932.806 134.91 932.48C135.03 902.76 214.83 904.7 246.36 912.48C246.864 912.615 247.303 912.925 247.599 913.354C247.895 913.783 248.03 914.303 247.978 914.822C247.926 915.341 247.692 915.825 247.317 916.187C246.942 916.549 246.45 916.766 245.93 916.8Z" fill="#5C2C66"/>
<path id="Vector_53" d="M168.55 954.74C193.19 941.96 243.19 943.08 274.36 943.74C274.965 943.732 275.548 943.964 275.981 944.386C276.414 944.808 276.662 945.385 276.67 945.99C276.678 946.594 276.445 947.177 276.023 947.611C275.601 948.044 275.025 948.292 274.42 948.3C268.69 948.61 260.71 947.17 257.69 948.49C257.448 948.607 257.187 948.681 256.92 948.71C227.63 950.96 199.63 958.77 169.63 959.09C169.099 959.121 168.574 958.965 168.146 958.65C167.717 958.334 167.413 957.879 167.284 957.363C167.156 956.847 167.213 956.302 167.444 955.823C167.675 955.344 168.066 954.961 168.55 954.74Z" fill="#5C2C66"/>
<path id="Vector_54" d="M480 628C471 767 452.77 817.94 441 855C429.23 892.06 420.5 905.5 413 939.22C405.5 972.94 423 1016.74 419.49 1072.5C419.174 1079.33 419.418 1086.18 420.22 1092.98C406.47 1057.86 391.64 1020.83 387.16 1012.85C378.16 996.85 374.23 974.3 379.72 970.53C385.21 966.76 287.07 915.85 293.53 905.62C294.41 904.23 296.96 903.84 300.76 904.14C325.15 906.07 400.89 936.76 411.46 921.14C423.69 903.14 457.96 718.47 459.96 677.39C461.2 652 468 614 462 566C461.9 565.14 420.16 349.46 408.51 279.8C457.78 365.75 481.11 610.8 480 628Z" fill="#9C398C"/>
<path id="Vector_55" d="M376.64 927.11C407.28 936.4 406.56 947.64 373.78 935.98L373.49 935.85C355.49 926.76 336.29 921.41 317.83 914.01C317.278 913.757 316.83 913.321 316.565 912.774C316.299 912.228 316.231 911.607 316.373 911.016C316.514 910.426 316.857 909.903 317.342 909.537C317.826 909.171 318.423 908.985 319.03 909.01C335.62 910.53 363.79 923.64 376.64 927.11Z" fill="#5C2C66"/>
<path id="Vector_56" d="M220.33 1410.61C212.17 1410.61 207.1 1408.06 205.27 1403.04C183.49 1343.15 186.75 1337.58 188.27 1334.9C189.47 1332.82 192.42 1329.67 205.09 1322.1C218.164 1314.33 231.881 1307.69 246.09 1302.26C248.56 1301.26 251.23 1300.26 253.97 1299.35C309.993 1279.68 368.406 1267.62 427.64 1263.51H427.89C428.55 1263.51 433.32 1263.33 439.63 1263.33C471.44 1263.33 475.42 1266.78 476.91 1270.63C477.24 1271.47 478.18 1273.63 479.36 1276.43C496.07 1315.55 502.48 1334.32 501.5 1341.22C501.244 1342.88 500.527 1344.44 499.43 1345.72C493.52 1352.72 476.38 1354.27 448.91 1356.26C441.86 1356.77 434.57 1357.26 427.91 1357.99C399.48 1360.93 299.51 1387.91 275.08 1396.75C249.3 1406.07 231.38 1410.61 220.33 1410.61Z" fill="#CE44A2"/>
<path id="Vector_57" d="M439.65 1267.82C452.41 1267.82 471.27 1268.47 472.74 1272.25C474.99 1278 498.5 1330.5 497.06 1340.57C496.927 1341.4 496.56 1342.19 496 1342.82C489.36 1350.65 454.16 1350.74 427.5 1353.5C398.5 1356.5 298.5 1383.5 273.6 1392.5C256.13 1398.81 233.6 1406.1 220.33 1406.1C214.67 1406.1 210.7 1404.78 209.5 1401.49C205.5 1390.49 188.5 1343.49 192.2 1337.16C193.63 1334.7 200.09 1330.35 207.45 1325.95C220.29 1318.31 233.763 1311.78 247.72 1306.45C250.287 1305.45 252.873 1304.5 255.48 1303.59C311.13 1284.04 369.157 1272.07 428 1268C428 1268 433 1267.82 439.65 1267.82ZM439.65 1258.82C433.28 1258.82 428.45 1258.98 427.76 1259H427.35C367.712 1263.13 308.901 1275.27 252.5 1295.09C249.71 1296.09 247 1297.09 244.5 1298.09C230.078 1303.61 216.154 1310.36 202.88 1318.25C190.11 1325.89 186.28 1329.54 184.46 1332.67C182.09 1336.73 180.81 1342.37 189.4 1370.25C193.88 1384.79 199.3 1399.7 201.08 1404.6C202.86 1409.5 207.59 1415.13 220.37 1415.13C232.11 1415.13 250.01 1410.64 276.7 1400.99C300.99 1392.21 400.28 1365.39 428.47 1362.47C435.02 1361.79 442.28 1361.27 449.3 1360.76C478.8 1358.62 495.83 1357 502.9 1348.66C504.555 1346.74 505.633 1344.39 506.01 1341.89C507.15 1333.89 501.07 1315.67 483.56 1274.68C482.39 1271.94 481.47 1269.78 481.16 1268.99C478.41 1261.92 469.86 1260.51 461.34 1259.68C455.65 1259.13 448.34 1258.84 439.69 1258.84L439.65 1258.82Z" fill="#17091D"/>
<path id="Vector_58" d="M496 1342.82C489.36 1350.65 454.16 1350.74 427.5 1353.5C398.5 1356.5 298.5 1383.5 273.6 1392.5C248.7 1401.5 213.5 1412.5 209.5 1401.5C205.5 1390.5 188.5 1343.5 192.2 1337.17C193.63 1334.71 200.09 1330.36 207.45 1325.96C220.29 1318.32 233.763 1311.79 247.72 1306.46C247.72 1306.46 247.34 1354.98 265.17 1360.46C283 1365.94 440.2 1342 476.1 1341C482.783 1340.78 489.468 1341.39 496 1342.82Z" fill="#9C398C"/>
</g>
<g id="body left">
<path id="Vector_59" d="M1069.62 1429.15C1065.96 1429.15 1062.3 1429.03 1058.74 1428.79C1057.72 1428.72 1056.75 1428.31 1055.99 1427.61C1055.24 1426.92 1054.74 1425.98 1054.59 1424.97C1054.27 1422.83 1022.5 1209.41 1022.5 1042.97C1022.5 935.299 1012.82 787.709 993.74 604.299L993.13 598.449C992.64 593.719 992.13 588.549 991.68 582.639L991.19 576.639C990.84 571.879 990.5 567.149 990.19 562.579L989.76 555.829L989.38 549.259L989.08 543.789C988.88 540.129 988.7 536.429 988.52 532.709C988.52 531.769 988.44 530.849 988.39 529.939V529.599C988.39 528.779 988.32 527.959 988.28 527.149C987.96 519.929 987.65 512.349 987.37 504.559C987.2 499.559 987.04 494.659 986.9 489.779L986.81 486.569C986.72 483.439 986.64 480.329 986.57 477.259C986.57 475.639 986.5 474.019 986.46 472.409C986.46 472.409 986.35 467.409 986.35 467.349C986.35 466.929 986.35 466.519 986.35 466.099C986.35 464.899 986.3 463.699 986.28 462.509V462.209C986.2 457.489 986.14 452.889 986.09 448.449C986.09 446.859 986.09 445.279 986.09 443.719C986.09 437.719 986.03 432.979 986.09 428.819V426.119C986.09 423.119 986.09 420.209 986.17 417.499C986.17 417.159 986.17 416.739 986.17 416.339C986.17 415.939 986.17 415.579 986.17 415.199C986.17 414.819 986.17 414.429 986.17 414.039C986.17 413.359 986.17 412.629 986.17 411.909C986.17 410.519 986.24 409.159 986.28 407.909C987.09 381.749 1001.12 349.799 1012.39 324.129C1018.44 310.339 1023.66 298.429 1025.67 290.249C1026.38 287.329 1027.43 282.559 1028.76 276.529C1033.45 255.179 1041.31 219.459 1051.12 188.419C1063.98 147.729 1075.88 128.789 1088.57 128.789C1090.36 128.791 1092.13 129.162 1093.77 129.879C1138.46 149.069 1283.77 270.799 1292.28 279.939C1297.1 285.089 1303.88 298.189 1307.11 352.229C1309.11 385.049 1309.44 428.739 1308.22 482.109C1306.07 576.039 1299.32 679.919 1295.31 726.819C1293.93 742.999 1291.87 765.029 1289.49 790.549C1279.79 894.549 1265.13 1051.71 1266.3 1124.16C1266.49 1136.48 1267.15 1145.86 1268.3 1152.03C1273.78 1183.06 1277.61 1214.35 1279.77 1245.79C1281.3 1268.59 1282.35 1299.59 1278.63 1317.72C1274.31 1337.74 1268.17 1357.33 1260.28 1376.23C1259.84 1377.25 1259.04 1378.07 1258.03 1378.53C1253.55 1380.59 1147.47 1428.94 1070.46 1429.16L1069.62 1429.15Z" fill="#CE44A2"/>
<path id="Vector_60" d="M1088.59 133.27C1089.76 133.277 1090.93 133.525 1092 134C1135.93 152.87 1280.78 274.21 1289 283C1318 314 1298.67 634.849 1290.84 726.43C1283.93 807.169 1260.34 1033.34 1261.84 1124.22C1262.03 1136.41 1262.68 1146.22 1263.84 1152.82C1269.29 1183.68 1273.1 1214.81 1275.25 1246.08C1277.25 1275.66 1277.25 1301.95 1274.19 1316.8C1267.99 1347 1256.12 1374.43 1256.12 1374.43C1256.12 1374.43 1147.33 1424.43 1070.42 1424.65H1069.59C1065.99 1424.65 1062.47 1424.53 1059.03 1424.3C1059.03 1424.3 1027.03 1211 1027.03 1043C1027.03 875 1003.24 652 997.64 598C997.13 593.09 996.64 587.83 996.19 582.28L995.92 578.92C995.85 578.05 995.78 577.18 995.71 576.29C995.37 571.77 995.04 567.09 994.71 562.29C994.65 561.42 994.6 560.55 994.54 559.67C994.45 558.3 994.37 556.93 994.28 555.54L994.13 552.93C994.05 551.62 993.98 550.31 993.9 548.99L993.75 546.27L993.6 543.54C993.4 539.89 993.22 536.2 993.04 532.49C993.04 531.56 992.96 530.63 992.91 529.7C992.86 528.77 992.83 527.83 992.78 526.9C992.45 519.43 992.15 511.9 991.88 504.4C991.71 499.45 991.55 494.52 991.41 489.65L991.32 486.45C991.234 483.323 991.154 480.226 991.08 477.16C991.027 475.16 990.984 473.19 990.95 471.25L990.86 467.35C990.86 466.9 990.86 466.45 990.86 466C990.86 464.71 990.81 463.42 990.79 462.14C990.71 457.42 990.65 452.83 990.6 448.4C990.6 446.78 990.6 445.18 990.6 443.61C990.6 438.41 990.54 433.47 990.6 428.84C990.6 427.92 990.6 427.01 990.6 426.12C990.6 423.12 990.6 420.26 990.68 417.57C990.68 417.18 990.68 416.78 990.68 416.4C990.68 416.02 990.68 415.65 990.68 415.27C990.68 414.89 990.68 414.54 990.68 414.17C990.68 413.44 990.68 412.73 990.68 412.03C990.68 410.63 990.75 409.29 990.79 408.03C992 369.03 1024.09 315.61 1030.05 291.3C1035.76 267.97 1061.43 133.3 1088.59 133.3M1088.59 124.3C1073.24 124.3 1060.76 143.08 1046.85 187.09C1036.98 218.32 1029.1 254.16 1024.39 275.58C1023.06 281.58 1022.02 286.33 1021.32 289.2C1019.41 297 1014.25 308.74 1008.32 322.34C996.9 348.34 982.68 380.76 981.84 407.79C981.84 409.09 981.76 410.45 981.73 411.87C981.73 412.59 981.73 413.31 981.73 414.05C981.73 414.44 981.73 414.82 981.73 415.2C981.73 415.58 981.73 415.95 981.73 416.33C981.73 416.71 981.73 417.15 981.73 417.56C981.73 420.19 981.67 422.88 981.65 426.12V427.47C981.65 427.94 981.65 428.42 981.65 428.9C981.65 433.08 981.65 437.81 981.65 443.74C981.65 445.32 981.65 446.93 981.65 448.57C981.71 453.77 981.77 458.15 981.84 462.35C981.84 463.64 981.84 464.96 981.91 466.27C981.91 466.64 981.91 467.03 981.91 467.41V467.62L982 471.52V471.73C982 473.62 982.07 475.52 982.12 477.45C982.19 480.5 982.27 483.62 982.36 486.77L982.45 489.96C982.58 494.4 982.74 499.24 982.93 504.77C983.2 512.49 983.51 520.09 983.83 527.36V527.45C983.88 528.34 983.92 529.24 983.96 530.14V530.24C984.01 531.14 984.05 532.04 984.09 532.94C984.28 536.94 984.46 540.52 984.65 544.09L984.73 545.42L984.8 546.82L984.95 549.55C984.95 550.21 985.03 550.83 985.06 551.44C985.09 552.05 985.14 552.84 985.19 553.54L985.33 556.12V556.18L985.45 558.09C985.45 558.84 985.54 559.58 985.59 560.32C985.59 560.76 985.65 561.18 985.67 561.59L985.76 562.97C986.06 567.52 986.39 572.25 986.76 576.97L986.95 579.41V579.65L987.22 583.02C987.71 588.96 988.22 594.16 988.69 598.94L989.3 604.8C1008.33 788.07 1018 935.49 1018 1043C1018 1209.74 1049.82 1423.5 1050.14 1425.64C1050.45 1427.67 1051.43 1429.53 1052.94 1430.92C1054.45 1432.31 1056.39 1433.14 1058.43 1433.28C1062.09 1433.53 1065.85 1433.65 1069.6 1433.65H1070.48C1103.33 1433.56 1145.24 1424.92 1195.02 1407.98C1231.85 1395.45 1258.76 1383.13 1259.89 1382.61C1261.91 1381.68 1263.51 1380.04 1264.39 1378C1272.4 1358.81 1278.64 1338.93 1283.02 1318.61C1286.84 1299.99 1285.79 1268.61 1284.24 1245.48C1282.07 1213.88 1278.22 1182.41 1272.71 1151.22C1271.64 1145.29 1271 1136.16 1270.81 1124.08C1269.64 1051.88 1284.29 894.87 1293.98 790.979C1296.36 765.44 1298.42 743.39 1299.81 727.2C1303.81 680.2 1310.58 576.2 1312.73 482.2C1313.95 428.71 1313.58 384.89 1311.61 351.95C1308.33 297.07 1301.32 282.95 1295.61 276.85C1290.61 271.48 1250.02 237.25 1209.51 205.22C1170.93 174.71 1119.85 136.15 1095.59 125.73C1093.38 124.766 1091 124.269 1088.59 124.27V124.3Z" fill="#17091D"/>
<path id="Vector_61" d="M1070.43 1424.65C1066.54 1424.65 1062.74 1424.53 1059.04 1424.3C1059.04 1424.3 1027.04 1211 1027.04 1043C1027.04 875 1003.25 652 997.651 598C997.141 593.09 996.651 587.83 996.201 582.28L995.931 578.92C995.861 578.05 995.791 577.18 995.721 576.29C995.381 571.77 995.051 567.09 994.721 562.29C994.661 561.42 994.611 560.55 994.551 559.67C994.461 558.3 994.381 556.93 994.291 555.54L994.141 552.93C994.061 551.62 993.991 550.31 993.911 548.99L993.761 546.27L993.611 543.54C993.421 539.89 993.231 536.2 993.051 532.49C993.051 531.56 992.971 530.63 992.921 529.7C992.871 528.77 992.841 527.83 992.791 526.9C992.461 519.43 992.161 511.9 991.891 504.4C991.721 499.45 991.561 494.52 991.421 489.65L991.331 486.45C991.244 483.323 991.164 480.226 991.091 477.16C991.037 475.16 990.994 473.19 990.961 471.25L990.871 467.35C990.871 466.9 990.871 466.45 990.871 466C990.871 464.71 990.821 463.42 990.801 462.14C990.721 457.42 990.661 452.83 990.611 448.4C990.611 446.78 990.611 445.18 990.611 443.61C990.611 438.41 990.551 433.47 990.611 428.84C990.611 427.92 990.611 427.01 990.611 426.12C990.611 423.12 990.611 420.26 990.691 417.57C990.691 417.18 990.691 416.78 990.691 416.4C990.691 416.02 990.691 415.65 990.691 415.27C990.691 414.89 990.691 414.54 990.691 414.17C990.691 413.44 990.691 412.73 990.691 412.03C990.691 410.63 990.761 409.29 990.801 408.03C992.011 369.03 1024.1 315.61 1030.06 291.3C1036.02 266.99 1037.06 322.71 1025.06 345.99C1013.06 369.27 1002.99 375.49 1008.78 439.49C1014.57 503.49 1029.29 580.4 1034.43 638.95C1039.57 697.5 1044.09 760.88 1044.82 806.68C1045.55 852.48 1042.68 989.49 1057.12 1036.99C1071.56 1084.49 1070.42 1264.47 1070.49 1294.99C1070.49 1321 1070.45 1401.58 1070.43 1424.65Z" fill="#D969BD"/>
<path id="Vector_62" d="M1271.38 1248.37C1252.21 1215.89 1190.24 1066.69 1171.7 1021.73C1168.79 1014.84 1167.42 1007.4 1167.7 999.928C1167.98 992.456 1169.91 985.137 1173.33 978.49C1174.13 976.94 1175.02 975.441 1176 974C1179.13 969.46 1182.8 968.51 1185.34 968.51C1191.24 968.51 1201.06 972.79 1218.11 1009.83C1224.73 1024.21 1240.25 1061.23 1253.95 1093.9C1258.25 1104.15 1262.36 1113.9 1265.95 1122.46L1266.29 1123.27V1124.14C1266.48 1136.46 1267.14 1145.84 1268.29 1152.01C1273.77 1183.04 1277.6 1214.34 1279.76 1245.77L1281.03 1264.69L1271.38 1248.37Z" fill="#7E4282"/>
<path id="Vector_63" d="M1185.35 973C1193.42 973 1204.05 990 1214.03 1011.7C1222.69 1030.52 1246.83 1088.7 1261.81 1124.2C1262 1136.39 1262.65 1146.2 1263.81 1152.8C1269.26 1183.66 1273.07 1214.79 1275.22 1246.06C1256.22 1213.86 1194.69 1065.75 1175.82 1020C1173.17 1013.72 1171.93 1006.93 1172.18 1000.12C1172.43 993.307 1174.17 986.631 1177.27 980.56C1177.99 979.18 1178.8 977.844 1179.68 976.56C1181.35 974.13 1183.25 973.02 1185.31 973.02M1185.31 964.02C1182.31 964.02 1176.72 965.02 1172.31 971.46C1171.21 973.047 1170.21 974.7 1169.31 976.41C1165.59 983.635 1163.5 991.589 1163.19 999.71C1162.88 1007.83 1164.35 1015.92 1167.51 1023.41C1186.08 1068.41 1248.16 1217.88 1267.51 1250.62L1286.79 1283.27L1284.24 1245.44C1282.07 1213.84 1278.22 1182.37 1272.71 1151.18C1271.64 1145.25 1271 1136.12 1270.81 1124.04V1122.29L1270.13 1120.68C1266.55 1112.18 1262.44 1102.38 1258.13 1092.14C1244.41 1059.44 1228.87 1022.37 1222.22 1007.92C1216.59 995.7 1211.22 985.92 1206.34 979.01C1201.78 972.56 1194.66 964.01 1185.34 964.01L1185.31 964.02Z" fill="#17091D"/>
<path id="Vector_64" d="M1151.3 829.11C1144.48 829.155 1137.67 828.68 1130.93 827.69L1130.64 827.64C1123.83 826.519 1117.58 823.177 1112.87 818.134C1108.15 813.091 1105.24 806.631 1104.58 799.76C1101.68 770.6 1094.27 698.43 1088.05 658.05C1086.29 646.57 1084.74 638.42 1083.44 633.83C1081.3 626.28 1079.21 615.12 1077.22 600.66C1075.47 587.8 1073.81 572.43 1072.29 554.98C1071.6 546.869 1074.14 538.813 1079.36 532.565C1084.57 526.316 1092.05 522.379 1100.15 521.61L1247.15 507.81C1248.15 507.72 1249.15 507.68 1250.15 507.68C1257.47 507.691 1264.56 510.258 1270.19 514.937C1275.83 519.616 1279.65 526.114 1281 533.31L1294.47 605.17C1294.48 605.246 1294.48 605.323 1294.47 605.4L1299.14 639.98C1299.4 641.858 1299.48 643.756 1299.39 645.65L1294.54 749.49C1294.54 750.05 1294.47 750.61 1294.42 751.16L1291.42 780.54C1290.82 786.739 1288.39 792.619 1284.43 797.428C1280.47 802.237 1275.17 805.758 1269.2 807.54C1242.34 815.57 1191.26 829.11 1151.3 829.11Z" fill="#CE44A2"/>
<path id="Vector_65" d="M1250.09 512.18C1256.37 512.184 1262.45 514.386 1267.28 518.404C1272.11 522.422 1275.38 528.003 1276.53 534.18L1290 606L1294.67 640.58C1294.89 642.19 1294.96 643.816 1294.89 645.44L1290 749.28C1290 749.76 1290 750.28 1289.9 750.71L1286.9 780.09C1286.37 785.388 1284.29 790.411 1280.91 794.523C1277.52 798.634 1273 801.651 1267.9 803.19C1241.71 811.05 1190.8 824.61 1151.27 824.61C1144.68 824.659 1138.11 824.201 1131.59 823.24H1131.35C1125.51 822.28 1120.16 819.416 1116.12 815.095C1112.08 810.774 1109.58 805.238 1109.02 799.35C1105.82 767.22 1098.6 697.35 1092.46 657.41C1090.77 646.41 1089.15 637.65 1087.73 632.64C1085.42 624.5 1083.38 612.77 1081.64 600.09C1079.55 584.76 1077.9 568.09 1076.73 554.63C1076.13 547.698 1078.29 540.81 1082.75 535.47C1087.21 530.13 1093.6 526.772 1100.53 526.13L1247.53 512.34C1248.38 512.26 1249.23 512.22 1250.07 512.22M1250.07 503.22C1248.94 503.22 1247.8 503.27 1246.69 503.37L1099.69 517.17C1090.4 518.053 1081.84 522.565 1075.86 529.725C1069.88 536.885 1066.97 546.115 1067.76 555.41C1069.29 572.94 1070.96 588.41 1072.76 601.31C1074.76 615.98 1076.91 627.31 1079.11 635.1C1079.97 638.1 1081.45 644.69 1083.6 658.77C1089.8 699.02 1097.21 771.12 1100.1 800.24C1100.87 808.105 1104.22 815.494 1109.63 821.256C1115.04 827.017 1122.2 830.827 1130 832.09H1130.27C1137.24 833.126 1144.29 833.621 1151.34 833.57C1191.87 833.57 1243.43 819.91 1270.56 811.77C1277.38 809.738 1283.43 805.721 1287.96 800.232C1292.48 794.743 1295.27 788.029 1295.96 780.95L1298.96 751.57C1299.03 750.94 1299.07 750.3 1299.1 749.67L1303.96 645.82C1304.06 643.652 1303.96 641.48 1303.67 639.33L1299 604.75C1299 604.6 1298.95 604.45 1298.93 604.3L1285.45 532.44C1283.91 524.209 1279.54 516.777 1273.09 511.427C1266.65 506.077 1258.54 503.145 1250.17 503.14L1250.07 503.22Z" fill="#17091D"/>
<path id="Vector_66" d="M1179.72 663.76C1163.94 660.02 1092.5 628.499 1092.5 636.659V657.37C1090.81 646.37 1089.19 637.609 1087.77 632.599C1085.46 624.459 1083.42 612.729 1081.68 600.049L1092.68 604.099L1139.08 623.81L1174.67 639L1189.84 645.15L1205.36 644.34L1252.65 620.4L1289 596.52L1292 616C1284.46 619.25 1247.15 640.999 1242 645.099C1223.49 659.689 1195.5 667.5 1179.72 663.76Z" fill="#9C398C"/>
<path id="Vector_67" d="M1285.21 797.72C1285.21 797.72 1186.13 831.78 1131.63 823.24C1137.71 819.734 1144.17 816.913 1150.87 814.83C1188.24 803.15 1259.5 790.5 1271.6 775.3C1273.89 772.43 1288.33 738.95 1291 729L1285.21 797.72Z" fill="#9C398C"/>
<path id="Vector_68" d="M1077.5 598.5L1181.6 641.89C1187.22 644.277 1193.31 645.355 1199.41 645.044C1205.51 644.732 1211.46 643.038 1216.81 640.09L1290.5 594.5" stroke="#17091D" stroke-width="9" stroke-linecap="round" stroke-linejoin="round"/>
<path id="Vector_69" d="M1203 624.85C1200.07 624.711 1197.16 624.262 1194.32 623.51L1193.24 623.27C1191.28 622.854 1189.44 622.011 1187.84 620.801C1186.25 619.591 1184.94 618.044 1184.01 616.27C1181.32 611.21 1181.34 604.35 1184.07 597.47C1186.49 591.35 1190.96 590.47 1193.4 590.47C1195.7 590.534 1197.95 591.181 1199.94 592.35C1203.02 594.083 1205.64 596.515 1207.61 599.45C1210.08 603.02 1213.02 608.55 1213.02 614.59C1213.02 618.03 1212.02 620.7 1210.02 622.52C1208.08 624.193 1205.58 625.059 1203.02 624.94L1203 624.85Z" fill="#CE44A2"/>
<path id="Vector_70" d="M1193.38 594.88C1194.93 594.958 1196.43 595.415 1197.76 596.21C1200.22 597.61 1202.32 599.561 1203.89 601.91C1205.89 604.8 1208.5 609.54 1208.5 614.5C1208.5 619.03 1206.25 620.35 1202.98 620.35C1200.01 620.149 1197.07 619.657 1194.19 618.88C1186.88 617.25 1184.5 608.5 1188.19 599.07C1189.44 595.93 1191.35 594.88 1193.34 594.88M1193.34 585.88C1187.34 585.88 1182.28 589.57 1179.83 595.76C1176.61 603.87 1176.67 612.1 1179.97 618.33C1181.2 620.688 1182.93 622.747 1185.04 624.36C1187.16 625.972 1189.6 627.099 1192.2 627.66L1193.27 627.9C1196.43 628.738 1199.67 629.224 1202.94 629.35C1211.76 629.35 1217.46 623.52 1217.46 614.5C1217.46 607.3 1214.08 600.9 1211.25 596.8C1208.89 593.288 1205.74 590.383 1202.04 588.32C1199.4 586.78 1196.4 585.94 1193.34 585.88Z" fill="#17091D"/>
<path id="Vector_71" d="M1112.25 592.159C1112.09 592.078 1111.9 592.063 1111.72 592.117C1111.55 592.171 1111.4 592.29 1111.31 592.449C1111.22 592.609 1111.19 592.797 1111.23 592.976C1111.28 593.154 1111.39 593.309 1111.54 593.409C1120.37 599.889 1140.84 614.199 1155.21 618.879C1174 624.999 1175 620.999 1175 620.999C1175 620.999 1177 619.999 1164 617.999C1150.56 615.929 1130.06 600.729 1122.53 596.869C1118.85 594.999 1115.12 593.339 1112.25 592.159Z" fill="#9C398C"/>
<path id="Vector_72" d="M1229.42 617.57C1231.72 615.162 1234.3 613.049 1237.12 611.28C1245.03 606.38 1258.18 597.8 1261.77 593C1267 586 1270 580 1265 583C1260 586 1256.56 592.73 1249.28 596.87C1242 601.01 1233 604.55 1229 610.78C1225 617.01 1226 621 1229 618L1229.42 617.57Z" fill="#9C398C"/>
<path id="Vector_73" d="M1068.59 1547.9C1065.26 1547.9 1056.44 1547.77 1054.7 1541.36C1050.18 1524.85 1054.08 1434.36 1054.54 1424.1C1054.58 1423.13 1054.94 1422.21 1055.55 1421.46C1056.16 1420.71 1057 1420.18 1057.94 1419.94L1255 1370.07C1255.36 1369.97 1255.73 1369.93 1256.1 1369.93C1256.97 1369.93 1257.81 1370.18 1258.54 1370.65C1259.27 1371.12 1259.84 1371.79 1260.2 1372.58C1262.8 1378.82 1264.86 1385.27 1266.34 1391.87C1269.26 1404.1 1270.65 1416.64 1270.46 1429.21C1270.37 1435.02 1270.46 1440.11 1270.46 1444.61C1270.71 1465.04 1270.83 1475.3 1255.46 1489C1239.3 1503.42 1163 1529.51 1110.61 1541.5L1106.05 1542.5C1089.76 1546.07 1077.3 1547.88 1069.05 1547.88L1068.59 1547.9Z" fill="#CE44A2"/>
<path id="Vector_74" d="M1256.13 1374.43C1258.61 1380.41 1260.57 1386.59 1261.99 1392.91C1264.82 1404.77 1266.16 1416.94 1265.99 1429.14C1265.48 1460.79 1269.5 1470.5 1252.54 1485.64C1237.25 1499.29 1161.76 1525.2 1109.69 1537.11C1108.17 1537.46 1106.69 1537.8 1105.18 1538.11C1090.18 1541.41 1077.39 1543.39 1069.11 1543.39H1068.63C1063.07 1543.33 1059.63 1542.34 1059.04 1540.17C1054.58 1523.86 1059.04 1424.29 1059.04 1424.29L1256.13 1374.42M1256.13 1365.42C1255.38 1365.42 1254.64 1365.51 1253.92 1365.7L1056.83 1415.56C1054.95 1416.04 1053.28 1417.1 1052.06 1418.6C1050.84 1420.1 1050.13 1421.96 1050.05 1423.89C1049.29 1440.75 1045.76 1525.72 1050.36 1542.54C1050.99 1544.88 1052.99 1549.13 1059.2 1551.14C1062.23 1552.02 1065.38 1552.44 1068.53 1552.39H1069.11C1077.7 1552.39 1090.48 1550.54 1107.11 1546.9C1108.6 1546.58 1110.11 1546.23 1111.71 1545.9C1159.32 1535.01 1240.2 1508.74 1258.53 1492.37C1275.4 1477.37 1275.25 1464.99 1275.01 1444.58C1275.01 1440.11 1274.9 1435.05 1275.01 1429.31C1275.21 1416.36 1273.78 1403.44 1270.77 1390.85C1269.21 1383.98 1267.07 1377.26 1264.36 1370.76C1263.65 1369.18 1262.5 1367.83 1261.04 1366.89C1259.58 1365.95 1257.88 1365.45 1256.15 1365.45L1256.13 1365.42Z" fill="#17091D"/>
<path id="Vector_75" d="M1109.69 1537.11C1108.17 1537.46 1106.69 1537.8 1105.18 1538.11C1098.05 1515.48 1084.57 1455.31 1077.84 1451.19C1070.04 1446.43 1072.67 1515.88 1068.63 1543.39C1063.07 1543.33 1059.63 1542.34 1059.04 1540.17C1054.58 1523.86 1059.04 1424.29 1059.04 1424.29L1256.13 1374.42C1258.61 1380.4 1260.57 1386.58 1261.99 1392.9C1224.59 1408.72 1131.07 1441.68 1109.7 1448.34C1085 1456.05 1107.45 1507.5 1109.69 1537.11Z" fill="#9C398C"/>
</g>
<g id="collar">
<path id="Vector_76" d="M843.498 308.499C843.498 308.499 975.498 318.499 1021.5 288.499C1021.5 288.499 1001.5 332.499 996.498 345.499C991.498 358.499 982.498 381.499 982.498 398.499C982.498 415.499 984.818 430.019 984.658 435.759C984.498 441.499 986.498 458.869 986.498 458.869C986.498 458.869 989.498 483.499 904.498 479.499C904.498 479.499 894.498 437.839 890.498 425.169C886.498 412.499 870.838 366.499 865.168 354.499C859.498 342.499 843.498 308.499 843.498 308.499Z" fill="#7E4282" stroke="#17091D" stroke-width="9" stroke-linecap="round" stroke-linejoin="round"/>
<g id="collar 1">
<path id="Vector_77" d="M915.998 574C906.998 565.31 895.998 537.79 889.688 526.91C886.248 521.058 883.589 514.781 881.778 508.24C869.568 462.47 829.128 432.69 765.998 425C726.998 420.24 662.538 429.91 638.998 436C624.428 439.77 630.588 399.85 630.588 399.85L639.998 400C639.998 400 658.328 384.85 675.428 377.13C688.839 371.204 700.932 362.66 710.998 352C719.488 343.05 747.678 335.17 768.758 333.58C783.058 332.51 786.868 338.68 798.998 345C812.528 352.05 835.088 379.1 854.998 397C859.058 406.7 871.518 409.47 874.998 419C876.838 424 880.168 422.61 881.908 427.74C889.358 449.74 896.018 473 903.418 501.06C907.498 516.54 913.308 552.81 915.998 574Z" fill="#9C398C"/>
<path id="Vector_78" d="M890.498 443.999C889.76 443.999 889.033 443.817 888.382 443.468C887.731 443.119 887.177 442.614 886.768 441.999C886.768 441.939 882.228 435.279 874.228 425.199C858.888 405.889 827.228 369.709 787.228 344.429C781.66 340.837 775.164 338.95 768.538 338.999C738.898 338.999 705.028 373.069 677.818 400.449C656.558 421.829 644.068 433.919 634.358 433.919C632.424 433.922 630.527 433.384 628.882 432.367C627.237 431.349 625.909 429.892 625.048 428.159C609.618 400.029 572.618 172.869 571.048 163.159C570.917 162.375 570.999 161.57 571.288 160.829C571.418 160.489 584.288 126.759 587.288 118.829C590.863 109.796 594.892 100.948 599.358 92.3195C607.358 76.9595 614.428 66.9095 620.448 62.4395C624.568 59.4395 628.998 56.4395 633.858 56.4395C643.278 56.4395 649.798 66.0295 660.728 95.8795C672.058 126.879 680.628 136.279 693.598 150.519C697.258 154.519 701.418 159.099 705.958 164.519C725.698 188.209 774.958 224.259 791.678 234.429C811.118 246.259 822.878 264.129 851.578 325.489C880.398 387.119 894.688 437.679 894.828 438.189C895.117 439.217 895.03 440.314 894.582 441.284C894.135 442.253 893.357 443.032 892.388 443.479C891.806 443.794 891.159 443.971 890.498 443.999Z" fill="#CE44A2"/>
<path id="Vector_79" d="M633.858 60.9993C640.498 60.9993 646.398 69.8793 656.498 97.4893C671.498 138.489 682.498 143.489 702.498 167.489C722.498 191.489 771.498 227.489 789.338 238.359C807.178 249.229 818.498 265.499 847.498 327.499C876.498 389.499 890.498 439.499 890.498 439.499C890.498 439.499 885.978 432.779 877.758 422.409C861.188 401.549 829.608 365.929 789.598 340.639C783.317 336.606 776.003 334.477 768.538 334.509C716.828 334.509 655.618 429.429 634.358 429.429C633.229 429.437 632.121 429.117 631.17 428.508C630.219 427.9 629.464 427.028 628.998 425.999C613.758 398.229 575.498 162.499 575.498 162.499C575.498 162.499 588.498 128.499 591.498 120.499C595.012 111.639 598.97 102.961 603.358 94.4993C609.358 82.8693 616.698 70.9293 623.128 66.1693C627.248 63.1193 630.638 61.0293 633.858 61.0293M633.858 52.0293C627.628 52.0293 622.288 55.5893 617.778 58.9293C611.098 63.9293 603.778 74.1593 595.368 90.3593C590.81 99.1437 586.705 108.155 583.068 117.359C580.068 125.239 567.218 158.969 567.068 159.309C566.505 160.791 566.343 162.395 566.598 163.959C566.688 164.549 576.308 223.699 587.658 285.479C610.868 411.719 618.558 425.739 621.088 430.349C622.336 432.789 624.234 434.837 626.572 436.266C628.91 437.696 631.598 438.451 634.338 438.449C645.848 438.449 658.248 426.519 680.988 403.649C706.208 378.279 740.758 343.529 768.518 343.529C774.281 343.491 779.929 345.139 784.768 348.269C824.198 373.189 855.528 408.939 870.688 428.029C878.548 437.939 882.968 444.479 883.008 444.549C884.2 446.332 885.989 447.63 888.053 448.211C890.117 448.792 892.32 448.617 894.267 447.717C896.213 446.818 897.774 445.253 898.669 443.304C899.564 441.356 899.734 439.152 899.148 437.089C898.568 435.019 884.608 385.669 855.628 323.709C826.468 261.359 814.368 243.099 793.998 230.709C777.508 220.659 728.818 185.079 709.388 161.769C704.788 156.239 700.598 151.649 696.908 147.589C684.298 133.739 675.968 124.589 664.908 94.4393C659.518 79.7093 655.368 70.3593 651.458 64.1393C649.578 61.1393 643.848 52.0393 633.818 52.0393L633.858 52.0293Z" fill="#17091D"/>
<path id="Vector_80" d="M890.498 439.499C890.498 439.499 885.978 432.779 877.758 422.409C853.458 382.579 821.988 332.099 802.588 305.239C767.448 256.589 681.998 241.179 634.738 170.599C619.578 147.949 609.738 120.849 603.358 94.4789C609.358 82.8489 616.698 70.9089 623.128 66.1489C635.758 56.8089 641.498 56.4989 656.498 97.4989C671.498 138.499 682.498 143.499 702.498 167.499C722.498 191.499 771.498 227.499 789.338 238.369C807.178 249.239 818.498 265.499 847.498 327.499C876.498 389.499 890.498 439.499 890.498 439.499Z" fill="#D969BD"/>
</g>
<g id="collar 2">
<path id="Vector_81" d="M1167 373C1158.53 368.09 1106 378.95 1084 386C1049.59 397 1014.21 446.95 989.998 468C989.998 464.65 990.478 429.2 990.498 426.15C1005.15 406.85 1057.25 340.99 1098.5 323.85C1127.77 311.7 1154.74 356.44 1167 373Z" fill="#9C398C"/>
<path id="Vector_82" d="M986.498 435.999C986.029 435.999 985.563 435.925 985.118 435.779C984.212 435.487 983.422 434.916 982.862 434.147C982.301 433.378 981.999 432.451 981.998 431.499V409.169C981.998 386.169 991.148 355.169 997.468 342.489C1000.22 336.989 1004.26 327.839 1008.55 318.139C1013.55 306.929 1018.62 295.329 1022.32 288.069C1026.98 278.969 1030.2 249.429 1032.12 231.779C1032.9 224.669 1033.51 219.049 1034.06 215.779C1034.55 212.839 1035.34 207.509 1036.34 200.779C1039.43 179.889 1044.09 148.329 1047.2 138.229C1050.45 127.629 1056.36 122.299 1066.96 120.409C1070.21 119.85 1073.49 119.516 1076.79 119.409H1077.34C1096.77 119.409 1117.49 166.409 1117.68 166.859C1121.42 176.229 1132.57 198.609 1133.47 200.399C1134.74 202.629 1153.17 234.999 1168.38 270.059C1190.38 320.799 1195.18 351.649 1182.96 364.369C1178.64 368.869 1174.37 371.059 1169.9 371.059C1160.68 371.059 1154.22 361.989 1146.74 351.479C1137.98 339.179 1128.05 325.229 1112.94 325.229C1108.57 325.32 1104.25 326.272 1100.25 328.029C1099.66 328.279 1099.03 328.549 1098.41 328.829L1096.99 329.479L1096.63 329.649C1095.99 329.959 1095.41 330.239 1094.83 330.539C1092.34 331.809 1089.72 333.289 1087.01 334.959L1085.81 335.709L1085.68 335.799C1085.49 335.909 1085.31 336.029 1085.13 336.149C1084.53 336.529 1084 336.869 1083.48 337.219C1080.48 339.219 1077.31 341.479 1074.11 343.939C1073.34 344.519 1072.59 345.099 1071.85 345.699C1068.01 348.699 1064.03 352.069 1059.97 355.699C1059.56 356.059 1059.2 356.389 1058.84 356.699C1053.5 361.519 1048.03 366.779 1042.54 372.379L1041.91 373.029L1040.49 374.489C1034.73 380.439 1028.74 386.949 1022.67 393.869L1020.73 396.099C1015.58 402.029 1010.44 408.179 1005.48 414.339L1004.03 416.139C1000.65 420.349 997.388 424.529 994.078 428.879L992.078 431.509C990.818 433.179 990.148 434.109 990.078 434.139C989.667 434.706 989.129 435.169 988.508 435.492C987.886 435.815 987.198 435.988 986.498 435.999Z" fill="#CE44A2"/>
<path id="Vector_83" d="M1077.34 123.88C1090.82 123.88 1109.53 158.58 1113.5 168.5C1117.47 178.42 1129.5 202.5 1129.5 202.5C1129.5 202.5 1205.44 334.44 1179.72 361.22C1176.14 364.95 1172.91 366.53 1169.9 366.53C1153.61 366.53 1143.17 320.71 1112.9 320.7C1107.93 320.783 1103.03 321.854 1098.48 323.85L1096.54 324.69L1095.04 325.38L1094.58 325.6C1093.97 325.89 1093.35 326.19 1092.73 326.51C1090.06 327.87 1087.35 329.41 1084.61 331.1C1084.18 331.36 1083.75 331.63 1083.32 331.91C1083.07 332.06 1082.83 332.22 1082.59 332.38C1082.04 332.73 1081.48 333.09 1080.93 333.46C1077.75 335.57 1074.54 337.88 1071.33 340.34C1070.55 340.93 1069.76 341.54 1068.98 342.17C1064.98 345.34 1060.91 348.76 1056.98 352.32L1055.79 353.39C1050.18 358.45 1044.66 363.79 1039.34 369.22C1038.64 369.94 1037.94 370.65 1037.25 371.37C1030.9 377.92 1024.86 384.55 1019.25 390.89L1017.31 393.12C1011.54 399.76 1006.31 406.03 1001.93 411.51L1000.49 413.3C996.268 418.56 992.858 422.99 990.488 426.15C989.708 427.15 989.038 428.06 988.488 428.81C987.188 430.54 986.488 431.5 986.488 431.5V409.17C986.488 386.84 995.488 356.5 1001.49 344.5C1007.49 332.5 1019.49 303.5 1026.32 290.12C1033.15 276.74 1036.49 228.5 1038.49 216.5C1040.49 204.5 1047.49 152.5 1051.49 139.5C1054.49 129.8 1059.68 126.23 1067.74 124.79C1070.8 124.288 1073.89 123.988 1076.99 123.89H1077.33M1077.33 114.89H1076.59C1073.08 114.985 1069.59 115.319 1066.13 115.89C1054 118.05 1046.61 124.7 1042.89 136.81C1039.89 146.43 1035.99 172.2 1031.89 200.02C1030.89 206.76 1030.1 212.07 1029.62 215.02C1029.05 218.44 1028.43 224.11 1027.62 231.29C1025.86 247.5 1022.57 277.66 1018.29 286.02C1014.52 293.4 1009.38 305.02 1004.4 316.32C1000.14 325.97 996.118 335.08 993.398 340.48C986.878 353.48 977.398 385.48 977.398 409.17V431.5C977.398 433.404 978.003 435.26 979.125 436.8C980.246 438.339 981.828 439.483 983.641 440.067C985.454 440.65 987.406 440.644 989.215 440.048C991.024 439.451 992.597 438.297 993.708 436.75C993.708 436.75 994.368 435.83 995.578 434.22C996.138 433.47 996.788 432.61 997.578 431.62C1000.88 427.27 1004.11 423.13 1007.48 418.93L1008.6 417.54L1008.92 417.14C1013.83 411.04 1018.92 404.94 1024.07 399.02C1024.36 398.7 1024.67 398.34 1024.98 398.02L1025.98 396.88C1031.98 389.99 1037.98 383.53 1043.63 377.67C1044.08 377.2 1044.53 376.73 1044.99 376.27L1045.67 375.56C1051.07 370.06 1056.47 364.86 1061.67 360.14L1061.75 360.07C1062.08 359.76 1062.42 359.46 1062.75 359.16L1062.82 359.1C1066.82 355.53 1070.72 352.24 1074.43 349.31L1074.53 349.24C1075.15 348.74 1075.82 348.24 1076.65 347.59C1079.78 345.2 1082.85 343 1085.76 341.07L1087.23 340.07L1087.39 339.97L1087.76 339.72C1087.86 339.669 1087.95 339.612 1088.04 339.55L1089.04 338.9H1089.11C1091.71 337.3 1094.23 335.9 1096.6 334.67C1097.18 334.37 1097.75 334.1 1098.22 333.87L1098.39 333.79L1098.63 333.67L1100 333.04L1101.76 332.28C1105.2 330.761 1108.91 329.933 1112.68 329.84C1125.47 329.84 1134.29 342.23 1142.82 354.2C1150.68 365.2 1158.1 375.67 1169.64 375.67C1175.32 375.67 1180.81 372.95 1185.95 367.59C1194.14 359.07 1195.87 344.59 1191.26 323.35C1188.04 308.5 1181.64 290.01 1172.26 268.35C1156.99 233.18 1139.07 201.65 1137.19 198.35C1135.96 195.89 1125.19 174.29 1121.61 165.26C1117.37 155.509 1112.19 146.195 1106.14 137.45C1095.54 122.12 1086.31 114.98 1077.09 114.98L1077.33 114.89Z" fill="#17091D"/>
<path id="Vector_84" d="M1059.72 221.77C1062 244 1042.94 303.6 1030.47 324.3C1019.81 342 995.589 401.6 988.469 428.81C987.169 430.54 986.469 431.5 986.469 431.5V409.17C986.469 386.84 995.469 356.5 1001.47 344.5C1007.47 332.5 1019.47 303.5 1026.3 290.12C1033.13 276.74 1036.47 228.5 1038.47 216.5C1040.47 204.5 1047.47 152.5 1051.47 139.5C1054.47 129.8 1059.66 126.23 1067.72 124.79C1064.05 154 1058.1 205.87 1059.72 221.77Z" fill="#D969BD"/>
</g>
</g>
</g>
</svg>
