<svg width="1000" height="1000" viewBox="0 0 1000 1000" fill="none" xmlns="http://www.w3.org/2000/svg">
<path d="M498.619 943.676C453.689 943.676 405.402 938.949 355.103 929.593L354.717 929.524L319.401 902.451L327.129 871.542L330.214 870.276L336.474 867.698L363.194 856.709L472.452 863.825L650.612 875.425L655.986 904.12C656.689 907.819 656.053 911.648 654.193 914.921C652.334 918.195 649.37 920.699 645.835 921.985C640.864 923.804 635.425 925.596 629.674 927.276C604.026 934.749 560.477 943.676 498.619 943.676Z" fill="#7E4282"/>
<path d="M363.459 858.352L472.339 865.454L649.232 876.97L654.373 904.417C654.995 907.736 654.421 911.167 652.753 914.102C651.085 917.037 648.432 919.285 645.264 920.446C641.086 921.985 635.734 923.795 629.208 925.701C603.739 933.137 560.342 942.065 498.619 942.065C458.613 942.065 410.911 938.323 355.393 928.01L321.24 901.828L328.507 872.737L330.828 871.785L337.088 869.206L363.459 858.363M362.918 855.046L362.217 855.337L335.846 866.181L329.597 868.748L327.278 869.697L325.745 870.326L325.346 871.934L318.079 901.025L317.556 903.108L319.263 904.414L353.417 930.595L354.038 931.075L354.808 931.217C405.213 940.577 453.602 945.326 498.63 945.326C560.68 945.326 604.393 936.363 630.135 928.846C635.927 927.155 641.398 925.363 646.405 923.523C650.303 922.101 653.57 919.339 655.62 915.729C657.671 912.119 658.372 907.897 657.599 903.817L652.447 876.363L651.979 873.865L649.435 873.701L472.55 862.181L363.67 855.09L362.918 855.039V855.046Z" fill="#17091D"/>
<path d="M645.264 920.437C641.086 921.975 635.734 923.786 629.209 925.691C631.389 917.07 632.995 905.601 626.985 903.819C617.175 900.91 553.228 915.455 490.96 920.001C428.692 924.546 329.233 894.546 329.233 894.546L330.828 871.761L331.141 867.273L337.089 869.182L363.459 877.648L472.34 865.455L649.232 876.971L654.373 904.419C654.992 907.736 654.417 911.165 652.749 914.097C651.082 917.03 648.43 919.276 645.264 920.437Z" fill="#5C2C66"/>
<path d="M687.92 986.098C683.244 986.098 677.925 983.887 672.783 981.734C671.029 981.007 669.375 980.316 667.817 979.749C665.361 978.854 663.617 978.44 662.323 978.44C662.109 978.439 661.896 978.453 661.684 978.48C661.058 978.568 660.426 978.613 659.794 978.614C656.186 978.614 652.855 977.116 650.882 974.614C650.078 973.613 649.517 972.44 649.242 971.186C648.967 969.932 648.986 968.631 649.298 967.385C649.327 967.276 649.348 967.167 649.37 967.051C650.424 961.563 653.868 945.233 655.769 939.134C656.444 936.953 655.452 933.916 654.402 930.694C653.069 926.593 651.55 921.942 653.418 917.967C653.527 917.738 653.636 917.52 653.748 917.305C656.859 911.353 665.931 899.825 667.947 897.305C667.849 894.996 667.548 886.593 667.813 877.691C668.456 856.142 671.719 852.709 672.794 851.582C673.189 851.133 673.672 850.772 674.214 850.522C674.756 850.271 675.344 850.137 675.941 850.127C679.327 850.127 688.658 846.971 696.124 844.433C701.211 842.702 706.054 841.065 709.059 840.36C710.487 840.019 711.95 839.844 713.419 839.84C717.415 839.84 720.634 841.2 723.229 842.291C725.14 843.098 726.789 843.796 728.268 843.796C728.779 843.799 729.287 843.708 729.765 843.527C730.032 843.43 730.313 843.379 730.597 843.378C732.959 843.378 734.049 846.487 734.957 851.16C735.633 854.647 736.251 859.487 736.774 865.545C737.588 874.683 737.98 883.927 738.06 885.909C740.127 889.673 756.227 919.803 754.047 941.473C753.389 948.04 751.089 953.243 747.212 956.942L746.969 957.167C745.214 958.785 743.437 960.327 741.679 961.76C737.44 965.259 732.879 968.348 728.057 970.985C718.378 976.189 711.936 976.749 709.615 976.749C709.101 976.753 708.587 976.721 708.078 976.651H707.954C707.779 976.656 707.605 976.685 707.438 976.738C706.265 977.076 704.626 978.236 702.715 979.578C699.528 981.833 695.561 984.64 690.725 985.793C689.805 986.002 688.864 986.105 687.92 986.098Z" fill="#CE44A2"/>
<path d="M713.415 841.472C719.98 841.472 724.151 845.425 728.253 845.425C728.959 845.431 729.66 845.308 730.321 845.061C730.404 845.03 730.493 845.014 730.582 845.014C734.942 845.014 736.447 886.374 736.447 886.374C736.447 886.374 754.66 918.919 752.433 941.327C751.859 947.036 749.963 952.083 746.097 955.77L745.864 955.989C744.086 957.625 742.351 959.13 740.658 960.505C736.502 963.943 732.027 966.975 727.294 969.559C718.916 974.065 712.695 975.13 709.625 975.13C709.193 975.134 708.76 975.107 708.332 975.047C708.211 975.029 708.09 975.021 707.968 975.021C707.641 975.025 707.315 975.075 707.002 975.17C703.369 976.214 697.882 982.421 690.358 984.207C689.562 984.389 688.747 984.478 687.931 984.472C682.026 984.472 674.444 980.447 668.383 978.239C666.094 977.403 664.023 976.832 662.334 976.832C662.045 976.831 661.756 976.85 661.469 976.887C660.917 976.965 660.359 977.004 659.801 977.003C654.108 977.003 649.686 972.836 650.892 967.789C650.925 967.654 650.958 967.516 650.983 967.363C652.142 961.334 655.518 945.469 657.334 939.643C659.151 933.818 651.946 924.981 654.904 918.679C654.998 918.479 655.096 918.279 655.202 918.079C658.599 911.578 669.611 897.847 669.611 897.847C669.611 897.847 667.366 851.767 675.948 851.767C681.899 851.767 701.839 843.734 709.44 841.949C710.749 841.636 712.091 841.478 713.437 841.476M713.437 838.203C711.846 838.209 710.261 838.397 708.713 838.763C705.632 839.49 700.774 841.134 695.633 842.879C688.65 845.247 679.091 848.49 675.973 848.49C675.155 848.498 674.347 848.676 673.601 849.013C672.856 849.351 672.188 849.84 671.642 850.45C669.597 852.603 666.806 857.759 666.214 877.639C665.963 886.039 666.214 893.81 666.323 896.759C663.718 900.054 655.343 910.803 652.331 916.559C652.222 916.77 652.11 916.999 651.968 917.261V917.283C649.828 921.847 651.448 926.825 652.88 931.214C653.806 934.054 654.762 936.985 654.239 938.661C652.32 944.818 648.854 961.243 647.8 966.741C647.8 966.741 647.8 966.763 647.8 966.774C647.8 966.847 647.771 966.919 647.753 966.996V967.021C647.383 968.507 647.361 970.058 647.689 971.554C648.017 973.049 648.685 974.449 649.643 975.643C651.924 978.552 655.736 980.265 659.838 980.265C660.548 980.264 661.257 980.214 661.96 980.116C662.096 980.099 662.233 980.09 662.37 980.09C663.46 980.09 665.066 980.487 667.301 981.305C668.827 981.858 670.469 982.541 672.202 983.261C677.492 985.443 682.964 987.73 687.967 987.73C689.037 987.734 690.104 987.612 691.146 987.367C696.305 986.145 700.415 983.236 703.721 980.898C705.349 979.745 707.031 978.552 707.939 978.294H707.998C708.55 978.366 709.108 978.4 709.665 978.396C712.11 978.396 718.876 977.818 728.878 972.439C733.793 969.754 738.442 966.606 742.761 963.039C744.538 961.585 746.344 960.029 748.117 958.392L748.153 958.359L748.393 958.134C752.557 954.159 755.024 948.614 755.721 941.65C756.702 931.832 754.224 919.258 748.364 904.258C745.853 897.834 742.969 891.563 739.727 885.476C739.618 882.865 739.222 874.087 738.449 865.403C737.907 859.29 737.279 854.392 736.592 850.858C736.279 849.054 735.8 847.282 735.16 845.567C734.132 843.021 732.617 841.752 730.633 841.749C730.154 841.749 729.679 841.835 729.231 842.003C728.933 842.115 728.618 842.17 728.301 842.167C727.152 842.167 725.641 841.53 723.897 840.792C721.176 839.643 717.789 838.214 713.462 838.214L713.437 838.203Z" fill="#17091D"/>
<path d="M661.458 976.88C663.275 976.626 665.673 977.244 668.361 978.233C675.29 980.756 684.206 985.655 690.336 984.2C697.86 982.415 703.35 976.2 706.98 975.164C707.41 975.027 707.865 974.984 708.313 975.04C710.613 975.404 717.462 974.829 727.276 969.553C732.009 966.968 736.484 963.936 740.639 960.498C742.335 959.121 744.07 957.616 745.846 955.982L746.078 955.764C749.119 952.811 751.165 947.764 752.415 941.32C754.649 918.913 736.428 886.367 736.428 886.367C736.428 886.367 734.866 843.356 730.302 845.055C724.682 847.153 719.653 839.542 709.411 841.946C701.81 843.731 681.87 851.764 675.919 851.764C667.337 851.764 669.582 897.844 669.582 897.844C669.582 897.844 658.569 911.575 655.172 918.076C655.067 918.276 654.969 918.476 654.874 918.676C657.153 916.593 668.412 906.611 676.7 905.444C685.958 904.142 708.855 903.298 717.07 901.302C725.285 899.306 732.101 910.007 735.018 922.866C736.973 931.451 741.875 942.215 739.473 950.386C738.281 954.451 735.287 957.873 729.234 960.076C728.598 960.309 727.973 960.531 727.367 960.746C718.458 963.855 711.91 965.156 706.704 966.306C701.981 967.346 698.369 968.258 695.077 970.266C689.74 973.538 680.875 979.542 666.737 975.356C662.065 973.971 656.811 971.462 650.921 967.356C650.896 967.509 650.863 967.647 650.831 967.782C649.559 973.313 654.994 977.789 661.458 976.88Z" fill="#9C398C"/>
<path d="M662.403 941.851C662.813 941.131 663.728 940.879 664.448 941.288C671.228 945.144 675.049 950 677.172 953.926C678.231 955.884 678.865 957.606 679.236 958.852C679.422 959.474 679.542 959.979 679.617 960.336C679.655 960.514 679.681 960.656 679.698 960.757C679.707 960.807 679.713 960.847 679.718 960.877C679.72 960.892 679.722 960.904 679.724 960.914C679.724 960.919 679.725 960.922 679.726 960.926C679.726 960.927 679.725 960.929 679.726 960.931L679.727 960.933C679.727 960.933 679.712 960.937 678.24 961.138L679.727 960.935C679.838 961.755 679.264 962.511 678.443 962.623C677.623 962.735 676.866 962.161 676.754 961.34V961.339C676.754 961.337 676.753 961.335 676.753 961.333C676.751 961.32 676.748 961.297 676.742 961.264C676.731 961.198 676.711 961.093 676.682 960.952C676.622 960.67 676.522 960.247 676.361 959.709C676.04 958.633 675.481 957.105 674.533 955.353C672.642 951.856 669.197 947.439 662.966 943.895C662.246 943.486 661.994 942.571 662.403 941.851Z" fill="#17091D"/>
<path d="M670.277 949.11C670.799 948.467 671.743 948.368 672.387 948.889C673.03 949.411 673.128 950.353 672.608 950.997L672.609 950.998C672.608 950.998 672.607 951 672.605 951.003C672.601 951.008 672.594 951.017 672.584 951.029C672.564 951.054 672.533 951.094 672.492 951.147C672.41 951.255 672.286 951.42 672.131 951.637C671.82 952.07 671.382 952.712 670.888 953.526C669.896 955.16 668.689 957.469 667.81 960.179C666.055 965.589 665.641 972.45 670.679 978.874C671.19 979.526 671.076 980.469 670.424 980.98C669.772 981.491 668.83 981.377 668.318 980.725C662.457 973.251 663.014 965.24 664.956 959.253C665.926 956.264 667.248 953.741 668.323 951.97C668.862 951.082 669.343 950.376 669.692 949.888C669.867 949.645 670.009 949.455 670.109 949.324C670.16 949.258 670.199 949.208 670.228 949.172C670.242 949.154 670.254 949.14 670.262 949.13C670.266 949.125 670.269 949.12 670.272 949.117C670.273 949.116 670.274 949.114 670.275 949.113L670.276 949.111C670.28 949.113 670.336 949.158 671.427 950.042L670.277 949.11Z" fill="#17091D"/>
<path d="M701.288 947.864C702.053 947.548 702.93 947.911 703.247 948.677L701.861 949.25C703.241 948.679 703.247 948.676 703.248 948.677V948.678C703.248 948.679 703.248 948.68 703.249 948.682C703.25 948.684 703.252 948.688 703.253 948.692C703.257 948.702 703.263 948.715 703.27 948.732C703.284 948.767 703.305 948.818 703.332 948.884C703.385 949.016 703.462 949.21 703.558 949.458C703.751 949.954 704.023 950.67 704.342 951.56C704.98 953.337 705.808 955.813 706.572 958.605C708.076 964.104 709.416 971.136 708.288 976.442C708.115 977.253 707.319 977.77 706.508 977.598C705.698 977.425 705.181 976.629 705.353 975.818C706.317 971.285 705.177 964.876 703.678 959.396C702.94 956.698 702.137 954.298 701.518 952.573C701.209 951.711 700.947 951.019 700.762 950.545C700.67 950.308 700.597 950.125 700.547 950.003C700.523 949.942 700.505 949.896 700.493 949.866C700.487 949.852 700.482 949.84 700.479 949.833C700.478 949.83 700.476 949.827 700.475 949.825V949.823C700.159 949.058 700.522 948.181 701.288 947.864Z" fill="#17091D"/>
<path d="M724.055 949.211C724.825 948.906 725.697 949.285 726.001 950.055L724.606 950.606C726.001 950.055 726.001 950.056 726.001 950.056V950.057C726.001 950.058 726.003 950.059 726.003 950.06C726.004 950.063 726.005 950.067 726.007 950.071C726.011 950.08 726.016 950.093 726.023 950.11C726.035 950.143 726.054 950.191 726.077 950.254C726.124 950.378 726.192 950.559 726.276 950.789C726.442 951.249 726.674 951.909 726.935 952.718C727.456 954.333 728.1 956.557 728.585 958.976C729.068 961.385 729.405 964.048 729.279 966.522C729.155 968.969 728.567 971.439 726.995 973.248C726.452 973.873 725.504 973.939 724.879 973.396C724.254 972.853 724.187 971.906 724.731 971.281C725.666 970.204 726.174 968.524 726.283 966.369C726.392 964.241 726.102 961.85 725.644 959.566C725.188 957.292 724.577 955.184 724.079 953.639C723.831 952.869 723.612 952.242 723.455 951.811C723.377 951.596 723.315 951.429 723.273 951.318C723.252 951.263 723.235 951.221 723.225 951.194C723.219 951.18 723.215 951.17 723.213 951.164C723.212 951.161 723.212 951.159 723.211 951.158L723.21 951.157C722.906 950.386 723.284 949.515 724.055 949.211Z" fill="#17091D"/>
<path d="M738.769 948.705C739.528 948.374 740.412 948.722 740.743 949.482L739.368 950.08C740.743 949.481 740.743 949.482 740.744 949.483V949.484C740.744 949.484 740.745 949.485 740.745 949.486C740.746 949.489 740.748 949.492 740.749 949.495C740.752 949.502 740.756 949.512 740.761 949.524C740.771 949.547 740.785 949.58 740.802 949.622C740.837 949.706 740.885 949.826 740.943 949.978C741.059 950.28 741.217 950.712 741.386 951.241C741.723 952.296 742.117 953.766 742.329 955.396C742.741 958.558 742.523 962.855 739.14 965.57C738.494 966.089 737.55 965.985 737.032 965.339C736.513 964.693 736.617 963.749 737.263 963.231C739.366 961.542 739.732 958.679 739.355 955.782C739.173 954.383 738.83 953.097 738.529 952.155C738.379 951.687 738.241 951.31 738.142 951.053C738.093 950.925 738.054 950.826 738.028 950.763C738.015 950.731 738.005 950.708 737.999 950.694L737.992 950.678H737.993C737.663 949.919 738.01 949.036 738.769 948.705Z" fill="#17091D"/>
<path d="M690.75 969.817C693.359 969.817 695.474 965.177 695.474 959.453C695.474 953.73 693.359 949.09 690.75 949.09C688.142 949.09 686.027 953.73 686.027 959.453C686.027 965.177 688.142 969.817 690.75 969.817Z" fill="#D969BD"/>
<path d="M716.569 959.683C719.096 959.036 720.237 954.963 719.118 950.585C717.999 946.208 715.044 943.183 712.516 943.83C709.989 944.477 708.848 948.551 709.967 952.928C711.086 957.306 714.041 960.33 716.569 959.683Z" fill="#D969BD"/>
<path d="M732.668 952.194C734.851 951.635 735.988 948.706 735.207 945.651C734.426 942.597 732.023 940.573 729.84 941.132C727.657 941.691 726.52 944.621 727.301 947.676C728.082 950.73 730.485 952.753 732.668 952.194Z" fill="#D969BD"/>
<path d="M349.58 993.521C345.282 993.521 341.252 992.277 338.015 991.273C335.868 990.612 334.018 990.037 332.779 990.037H332.652C332.439 990.035 332.228 990.075 332.031 990.157C330.305 991.026 326.581 991.946 321.334 991.946C317.974 991.926 314.622 991.609 311.317 991.001H311.274C305.865 989.995 300.564 988.476 295.443 986.463C293.329 985.652 291.159 984.739 289.001 983.753C289.001 983.753 288.772 983.648 288.681 983.601C283.856 981.295 280.056 977.055 277.393 971.033C268.702 951.317 274.413 918.175 275.304 913.39C274.595 911.881 272.375 907.095 270.344 901.953C265.737 890.281 266.02 886.866 266.638 885.31C266.779 884.916 267.002 884.557 267.293 884.256C267.584 883.956 267.935 883.721 268.324 883.568C270.141 882.863 272.128 882.07 274.224 881.23C286.832 876.183 304.101 869.273 317.97 869.273C322.217 869.273 325.963 869.924 329.117 871.215C337.136 874.488 344.141 897.503 345.51 902.252C348.206 904.03 360.407 912.172 365.229 916.863C365.403 917.033 365.57 917.226 365.737 917.379C368.673 920.503 369.843 924.015 370.977 927.415C371.794 929.87 372.564 932.186 373.959 934.15C376.067 937.113 378.269 943.968 380.394 950.597C381.964 955.477 383.581 960.521 384.827 962.772L385.001 963.073C385.747 964.252 386.185 965.6 386.273 966.992C386.361 968.385 386.097 969.777 385.506 971.041C384.024 974.353 380.721 976.761 376.677 977.484C374.973 977.79 372.76 979.408 371.227 980.597C369.923 981.623 368.564 982.779 367.125 984.03C362.231 988.233 356.683 993.001 351.324 993.448C350.772 993.495 350.172 993.521 349.58 993.521Z" fill="#CE44A2"/>
<path d="M317.97 870.91C321.81 870.91 325.375 871.452 328.507 872.728C336.449 875.979 344.13 903.273 344.13 903.273C344.13 903.273 358.859 912.899 364.113 918.023C364.273 918.179 364.429 918.339 364.582 918.499C369.349 923.568 369.145 930.135 372.655 935.084C376.165 940.033 380.452 958.183 383.424 963.553C383.497 963.688 383.57 963.812 383.642 963.917C386.618 968.764 382.843 974.706 376.416 975.855C374.599 976.179 372.524 977.517 370.264 979.292C364.451 983.844 357.508 991.292 351.233 991.797C350.684 991.844 350.143 991.863 349.591 991.863C342.644 991.863 336.336 988.383 332.79 988.383H332.605C332.154 988.386 331.709 988.488 331.301 988.681C329.934 989.364 326.577 990.292 321.345 990.292C318.068 990.27 314.798 989.96 311.575 989.364C306.274 988.379 301.079 986.888 296.061 984.913C294.026 984.133 291.909 983.242 289.71 982.241L289.423 982.106C284.605 979.804 281.233 975.597 278.915 970.346C269.832 949.746 277.037 913.146 277.037 913.146C277.037 913.146 264.378 886.848 268.92 885.092C281.782 880.117 302.172 870.91 317.97 870.91ZM317.97 867.637C303.8 867.637 286.36 874.619 273.614 879.713C271.525 880.553 269.548 881.343 267.735 882.044C267.138 882.281 266.596 882.64 266.146 883.098C265.695 883.557 265.346 884.104 265.119 884.706C264.295 886.797 264.088 890.55 268.829 902.557C270.718 907.346 272.724 911.724 273.603 913.615C272.443 920.314 271.668 927.075 271.282 933.863C270.366 949.943 271.921 962.67 275.899 971.681C278.726 978.084 282.803 982.59 287.988 985.07L288.293 985.212H288.311C290.516 986.219 292.715 987.143 294.851 987.968C300.063 990.014 305.457 991.56 310.961 992.586H311.027C314.419 993.206 317.86 993.529 321.309 993.55C325.952 993.55 330.171 992.841 332.627 991.644H332.754C333.739 991.644 335.57 992.208 337.506 992.808C340.849 993.841 345.009 995.124 349.554 995.124C350.201 995.124 350.844 995.099 351.469 995.048C357.355 994.553 363.096 989.593 368.183 985.23C369.61 984.004 370.955 982.848 372.23 981.844C374.363 980.172 375.951 979.233 376.953 979.055C381.528 978.237 385.277 975.477 386.981 971.67C387.674 970.164 387.981 968.509 387.877 966.855C387.773 965.2 387.261 963.597 386.386 962.19V962.168C386.346 962.103 386.306 962.037 386.273 961.972V961.943C385.107 959.83 383.512 954.863 381.967 950.055C379.704 942.997 377.564 936.332 375.307 933.161C374.054 931.397 373.32 929.193 372.543 926.859C371.409 923.459 370.126 919.586 366.951 916.23C366.755 916.023 366.587 915.841 366.402 915.673C361.744 911.128 350.416 903.503 346.938 901.193C346.255 898.899 344.599 893.593 342.342 887.983C340.89 884.239 339.141 880.617 337.11 877.153C334.676 873.153 332.274 870.706 329.767 869.681C326.421 868.31 322.464 867.615 318.006 867.615L317.97 867.637Z" fill="#17091D"/>
<path d="M376.398 975.877C374.581 976.201 372.506 977.539 370.246 979.314C364.433 983.866 357.49 991.314 351.215 991.819C343.505 992.463 336.362 988.27 332.587 988.408C332.136 988.412 331.69 988.513 331.282 988.706C329.204 989.75 322.519 991.35 311.557 989.39C306.256 988.404 301.061 986.914 296.043 984.939C294.008 984.159 291.891 983.268 289.692 982.266L289.405 982.132C285.597 980.27 282.094 976.088 278.897 970.372C269.814 949.772 277.019 913.172 277.019 913.172C277.019 913.172 264.378 886.848 268.92 885.092C284.907 878.91 312.52 866.183 328.507 872.728C336.449 875.979 344.13 903.274 344.13 903.274C344.13 903.274 332.75 906.546 324.51 908.001C315.307 909.645 302.416 914.616 293.99 915.274C285.564 915.932 288.471 934.292 289.688 947.419C290.498 956.19 289.179 967.943 294.001 974.965C296.395 978.456 300.305 980.783 306.743 980.99L308.727 981.045C318.173 981.23 324.786 980.43 330.091 979.903C334.898 979.423 338.618 979.176 342.353 980.056C348.446 981.51 358.732 984.456 370.849 976.056C374.846 973.285 379.075 969.266 383.403 963.546C383.475 963.681 383.548 963.805 383.621 963.91C386.6 968.786 382.825 974.728 376.398 975.877Z" fill="#9C398C"/>
<path d="M362.506 942.99C363.064 942.378 364.013 942.333 364.625 942.891C365.238 943.448 365.282 944.397 364.725 945.01C359.902 950.309 357.997 955.575 357.285 959.485C356.928 961.446 356.871 963.071 356.9 964.193C356.914 964.754 356.95 965.188 356.982 965.475C356.997 965.618 357.011 965.724 357.021 965.79C357.026 965.823 357.029 965.847 357.031 965.859C357.032 965.863 357.032 965.865 357.032 965.867C357.18 966.682 356.64 967.462 355.825 967.61C355.01 967.759 354.23 967.218 354.081 966.403L355.557 966.135L354.081 966.401L354.08 966.399C354.08 966.398 354.08 966.396 354.079 966.395C354.079 966.391 354.078 966.387 354.077 966.383C354.076 966.373 354.074 966.361 354.071 966.346C354.067 966.316 354.06 966.276 354.053 966.226C354.038 966.124 354.019 965.981 353.999 965.8C353.96 965.438 353.917 964.92 353.901 964.271C353.867 962.972 353.935 961.138 354.334 958.948C355.134 954.558 357.258 948.756 362.506 942.99Z" fill="#17091D"/>
<path d="M357.32 952.674C357.77 951.978 358.698 951.779 359.394 952.229L358.58 953.488C359.394 952.228 359.394 952.229 359.395 952.23L359.396 952.231C359.397 952.231 359.399 952.232 359.401 952.233C359.404 952.236 359.409 952.239 359.415 952.242C359.426 952.249 359.441 952.259 359.46 952.272C359.498 952.297 359.552 952.333 359.62 952.38C359.756 952.473 359.949 952.61 360.191 952.787C360.674 953.142 361.35 953.662 362.138 954.338C363.711 955.687 365.751 957.673 367.6 960.213C371.305 965.3 374.322 972.74 371.071 981.667C370.787 982.445 369.926 982.847 369.148 982.564C368.37 982.28 367.968 981.419 368.252 980.641C371.046 972.968 368.523 966.575 365.175 961.98C363.499 959.678 361.634 957.86 360.184 956.615C359.461 955.995 358.846 955.521 358.417 955.205C358.202 955.048 358.033 954.93 357.921 954.854C357.866 954.815 357.824 954.787 357.797 954.77C357.785 954.761 357.776 954.755 357.77 954.751C357.768 954.75 357.767 954.748 357.766 954.747C357.765 954.748 357.764 954.747 357.764 954.747L357.765 954.748C357.07 954.298 356.87 953.37 357.32 952.674Z" fill="#17091D"/>
<path d="M329.53 960.688C330.356 960.752 330.974 961.472 330.91 962.298C330.91 962.3 330.91 962.304 330.909 962.308C330.909 962.316 330.909 962.328 330.907 962.343C330.905 962.376 330.901 962.426 330.897 962.492C330.888 962.623 330.876 962.819 330.862 963.073C330.833 963.581 330.799 964.321 330.773 965.236C330.72 967.068 330.701 969.598 330.837 972.392C331.114 978.068 332.021 984.512 334.346 988.521C334.762 989.238 334.518 990.156 333.801 990.572C333.084 990.987 332.166 990.743 331.75 990.027C329.029 985.334 328.119 978.233 327.841 972.539C327.7 969.648 327.719 967.037 327.774 965.149C327.801 964.205 327.837 963.439 327.866 962.908C327.881 962.642 327.894 962.434 327.904 962.292C327.908 962.221 327.913 962.166 327.915 962.128C327.917 962.11 327.917 962.096 327.918 962.086C327.919 962.081 327.919 962.077 327.919 962.074V962.069C327.983 961.243 328.704 960.625 329.53 960.688Z" fill="#17091D"/>
<path d="M308.308 969.05C309.083 969.096 309.685 969.724 309.716 970.483L309.715 970.637V970.638C309.715 970.639 309.715 970.641 309.714 970.644C309.714 970.651 309.714 970.662 309.713 970.677C309.712 970.706 309.709 970.75 309.707 970.809C309.701 970.928 309.693 971.106 309.686 971.335C309.671 971.793 309.657 972.457 309.66 973.266C309.666 974.889 309.741 977.084 310.014 979.387C310.288 981.7 310.756 984.062 311.519 986.051C312.292 988.065 313.296 989.503 314.518 990.234C315.229 990.66 315.46 991.581 315.035 992.292C314.609 993.003 313.688 993.234 312.977 992.808C310.922 991.578 309.596 989.413 308.718 987.127C307.83 984.815 307.325 982.179 307.036 979.739C306.745 977.289 306.666 974.975 306.66 973.278C306.656 972.428 306.671 971.728 306.687 971.239C306.695 970.994 306.703 970.802 306.709 970.669C306.713 970.602 306.715 970.551 306.717 970.515C306.718 970.498 306.719 970.483 306.719 970.473C306.719 970.469 306.72 970.465 306.72 970.462V970.458C306.72 970.457 306.721 970.457 308.218 970.547L306.72 970.457C306.77 969.63 307.481 969 308.308 969.05Z" fill="#17091D"/>
<path d="M294.169 973.148C294.993 973.226 295.598 973.959 295.52 974.783L295.518 974.799C295.516 974.814 295.514 974.84 295.512 974.874C295.507 974.943 295.5 975.048 295.493 975.185C295.479 975.459 295.465 975.861 295.468 976.353C295.474 977.341 295.547 978.67 295.809 980.056C296.349 982.925 297.585 985.532 300.106 986.481C300.882 986.772 301.273 987.638 300.981 988.413C300.689 989.188 299.825 989.58 299.05 989.288C294.991 987.761 293.451 983.744 292.86 980.611C292.556 978.997 292.475 977.479 292.468 976.371C292.464 975.815 292.481 975.355 292.497 975.031C292.505 974.869 292.514 974.741 292.52 974.65C292.524 974.605 292.526 974.57 292.528 974.544C292.529 974.531 292.531 974.521 292.531 974.514C292.532 974.51 292.532 974.506 292.532 974.504C292.532 974.503 292.532 974.501 292.532 974.5L292.533 974.499C292.539 974.499 292.631 974.507 294.026 974.641L292.533 974.498C292.612 973.673 293.344 973.069 294.169 973.148Z" fill="#17091D"/>
<path d="M340.678 973.456C342.785 973.456 344.493 968.816 344.493 963.092C344.493 957.368 342.785 952.729 340.678 952.729C338.571 952.729 336.863 957.368 336.863 963.092C336.863 968.816 338.571 973.456 340.678 973.456Z" fill="#D969BD"/>
<path d="M317.425 972.002C319.532 972.002 321.24 968.501 321.24 964.183C321.24 959.866 319.532 956.365 317.425 956.365C315.318 956.365 313.61 959.866 313.61 964.183C313.61 968.501 315.318 972.002 317.425 972.002Z" fill="#D969BD"/>
<path d="M300.348 976C302.455 976 304.163 973.314 304.163 970C304.163 966.686 302.455 964 300.348 964C298.241 964 296.533 966.686 296.533 970C296.533 973.314 298.241 976 300.348 976Z" fill="#D969BD"/>
<path d="M491.68 524.97C490.953 524.97 490.059 524.97 454.587 504.861C437.427 495.134 419.318 484.73 418.315 484.134C417.312 483.538 408.349 476.952 399.72 470.443C382.229 457.221 381.633 456.032 381.346 455.458C381.015 454.796 380.46 453.683 381.688 439.49C382.276 432.687 383.01 426.061 383.017 425.996C383.06 425.571 383.268 425.179 383.595 424.905C383.81 424.723 389.023 420.447 401.947 416.178C413.719 412.298 434.509 407.676 466.704 407.676C470.995 407.676 475.442 407.756 479.929 407.919C517.436 409.269 545.282 415.89 562.043 421.207C580.267 426.992 589.478 432.396 589.863 432.621C590.072 432.746 590.25 432.915 590.386 433.116L613.08 466.909C613.27 467.19 613.368 467.524 613.359 467.863C613.351 468.203 613.237 468.531 613.033 468.803L573.328 521.756C573.18 521.952 572.991 522.112 572.773 522.225C572.556 522.339 572.316 522.402 572.071 522.41C544.922 523.25 493.227 524.865 491.807 524.956L491.68 524.97Z" fill="#CE44A2"/>
<path d="M466.718 409.337C470.911 409.337 475.3 409.417 479.886 409.577C552.138 412.181 589.038 434.054 589.038 434.054L611.725 467.817L572.02 520.774C572.02 520.774 493.369 523.21 491.687 523.319C489.805 523.319 420.978 483.803 419.165 482.712C417.352 481.621 383.922 456.894 382.832 454.712C381.742 452.53 384.649 426.159 384.649 426.159C384.649 426.159 404.806 409.337 466.718 409.337ZM466.718 406.064C404.341 406.064 383.421 422.944 382.559 423.661C381.912 424.204 381.499 424.976 381.408 425.817C381.408 425.883 380.681 432.526 380.074 439.352C378.806 454.003 379.388 455.166 379.9 456.192C380.369 457.134 380.954 458.301 398.75 471.752C406.848 477.872 416.299 484.843 417.476 485.537C418.515 486.159 436.238 496.344 453.78 506.29C463.972 512.064 472.197 516.679 478.229 520.01C490.19 526.61 490.626 526.61 491.672 526.61C491.748 526.61 491.836 526.61 491.912 526.61C493.663 526.504 545.14 524.894 572.114 524.064C572.604 524.049 573.085 523.923 573.52 523.697C573.956 523.47 574.334 523.148 574.628 522.755L614.341 469.781C614.748 469.237 614.976 468.581 614.994 467.902C615.011 467.223 614.817 466.555 614.439 465.992L591.749 432.228C591.478 431.824 591.121 431.486 590.702 431.239C590.313 431.006 580.947 425.512 562.544 419.672C551.223 416.12 539.682 413.314 527.995 411.272C512.136 408.509 496.105 406.85 480.016 406.308C475.511 406.144 471.042 406.064 466.733 406.064H466.718Z" fill="#17091D"/>
<path d="M400.628 439.454C400.628 439.454 424.245 415.839 488.01 423.09C551.775 430.341 584.151 437.865 589.038 449.018C593.925 460.17 594.583 489.403 594.583 489.403C594.583 489.403 546.365 519.352 546.343 518.494C546.321 517.636 484.74 517.545 484.74 517.545L390.455 462.727L400.628 439.454Z" fill="#9C398C"/>
<path d="M419.899 427.142C434.009 422.06 456.088 417.951 488.179 421.6C520.072 425.227 544.191 428.929 560.968 433.136C569.353 435.239 575.973 437.483 580.834 439.943C585.657 442.382 588.979 445.147 590.412 448.416C591.707 451.374 592.689 455.436 593.444 459.777C594.202 464.141 594.747 468.886 595.137 473.26C595.527 477.637 595.763 481.661 595.902 484.59C595.971 486.055 596.016 487.248 596.043 488.076C596.057 488.489 596.068 488.811 596.074 489.031C596.077 489.14 596.078 489.225 596.079 489.282C596.08 489.31 596.081 489.332 596.081 489.347C596.082 489.354 596.081 489.36 596.081 489.364C596.081 489.365 596.082 489.367 596.082 489.368V489.369L596.074 489.567C596.031 489.956 595.837 490.314 595.535 490.563L595.373 490.678L595.371 490.679C595.37 490.68 595.368 490.681 595.365 490.683C595.359 490.687 595.351 490.692 595.339 490.7C595.316 490.714 595.281 490.736 595.236 490.764C595.144 490.821 595.008 490.904 594.831 491.014C594.478 491.233 593.96 491.555 593.301 491.963C591.982 492.781 590.097 493.948 587.836 495.345C583.315 498.14 577.284 501.859 571.253 505.55C565.224 509.241 559.188 512.909 554.656 515.601C552.392 516.946 550.492 518.054 549.153 518.801C548.488 519.172 547.938 519.467 547.543 519.659C547.357 519.749 547.152 519.843 546.969 519.906C546.903 519.928 546.706 519.995 546.468 520.009C546.371 520.015 546.059 520.028 545.711 519.864C545.655 519.856 545.583 519.844 545.49 519.834C545.08 519.791 544.451 519.747 543.615 519.705C541.95 519.622 539.559 519.548 536.674 519.484C530.909 519.355 523.217 519.263 515.52 519.198C507.824 519.133 500.128 519.095 494.356 519.073C491.47 519.062 489.065 519.055 487.382 519.051C486.541 519.049 485.879 519.047 485.428 519.046C485.203 519.046 485.03 519.045 484.913 519.045H484.738C484.474 519.045 484.214 518.975 483.986 518.842L389.701 464.024C389.042 463.641 388.775 462.825 389.08 462.126L399.253 438.854L399.316 438.728C399.383 438.606 399.468 438.493 399.567 438.394L400.627 439.454C399.599 438.426 399.569 438.394 399.569 438.392L399.597 438.364C399.613 438.348 399.635 438.327 399.662 438.301C399.718 438.248 399.797 438.174 399.901 438.08C400.108 437.893 400.411 437.626 400.816 437.294C401.626 436.63 402.841 435.703 404.493 434.622C407.797 432.46 412.847 429.682 419.899 427.142ZM544.905 518.923C544.907 518.93 544.909 518.936 544.912 518.943C544.909 518.936 544.907 518.93 544.905 518.923ZM544.861 518.723C544.867 518.764 544.877 518.804 544.886 518.842C544.877 518.802 544.867 518.762 544.861 518.723ZM547.791 518.113C547.789 518.103 547.787 518.094 547.785 518.084C547.787 518.094 547.789 518.103 547.791 518.113ZM487.84 424.581C456.166 420.98 434.555 425.053 420.915 429.965C414.092 432.423 409.252 435.094 406.135 437.133C404.577 438.153 403.448 439.015 402.718 439.614C402.353 439.913 402.088 440.146 401.917 440.301C401.904 440.313 401.891 440.325 401.879 440.336L392.364 462.102L485.145 516.045C485.229 516.045 485.325 516.046 485.434 516.046C485.885 516.047 486.547 516.049 487.389 516.051C489.074 516.055 491.48 516.062 494.368 516.073C500.142 516.095 507.843 516.133 515.545 516.198C523.246 516.263 530.954 516.355 536.742 516.485C539.633 516.549 542.058 516.624 543.765 516.709C544.614 516.752 545.31 516.799 545.805 516.851C545.979 516.869 546.152 516.892 546.31 516.919C546.625 516.763 547.088 516.518 547.691 516.181C548.993 515.455 550.864 514.363 553.123 513.021C557.638 510.339 563.661 506.681 569.688 502.992C575.714 499.303 581.739 495.587 586.259 492.793C588.519 491.397 590.402 490.23 591.72 489.413C592.268 489.074 592.719 488.795 593.058 488.584C593.054 488.461 593.05 488.324 593.045 488.176C593.018 487.361 592.973 486.182 592.905 484.733C592.767 481.832 592.534 477.851 592.149 473.526C591.763 469.198 591.227 464.543 590.488 460.29C589.744 456.013 588.812 452.239 587.664 449.62C586.654 447.313 584.096 444.954 579.481 442.619C574.905 440.305 568.529 438.125 560.239 436.046C543.665 431.89 519.712 428.206 487.84 424.581Z" fill="#17091D"/>
<path d="M271.826 912.545C271.682 912.546 271.537 912.526 271.398 912.487C271.177 912.425 270.971 912.318 270.795 912.171C270.618 912.024 270.474 911.842 270.373 911.636C266.398 903.661 231.496 833.531 230.265 827.218C229.8 824.832 225.483 814.491 220.916 803.581C214.234 787.581 206.663 769.465 204.566 761.112V761.065C204.366 760.291 204.203 759.585 204.123 758.978C202.561 749.12 204.337 742.64 206.394 735.138C206.539 734.603 206.688 734.047 206.837 733.516C207.091 732.567 207.367 731.538 207.636 730.476C207.72 730.131 207.833 729.636 207.952 729.051C207.952 729.051 208 728.851 208.007 728.803L208.094 728.378C208.123 728.232 208.156 728.08 208.185 727.92C208.287 727.4 208.396 726.829 208.512 726.225L208.632 725.6C208.675 725.363 208.723 725.12 208.766 724.872C208.81 724.625 208.839 724.469 208.875 724.272C208.959 723.851 209.035 723.421 209.115 722.974L209.188 722.552C209.268 722.138 209.34 721.723 209.417 721.294L209.435 721.203C209.468 721.032 209.493 720.872 209.522 720.709L209.584 720.363C209.736 719.508 209.895 718.613 210.06 717.68L210.343 716.047C210.507 715.105 210.677 714.131 210.848 713.138L211.484 709.443C211.517 709.229 211.557 708.992 211.597 708.756C211.597 708.756 211.669 708.338 211.673 708.327C211.677 708.316 211.673 708.272 211.673 708.254C211.742 707.858 211.807 707.458 211.876 707.051L212.189 705.203C212.327 704.378 212.469 703.531 212.614 702.658V702.603C212.614 702.563 212.614 702.527 212.636 702.487L213.421 697.792C214.147 693.451 214.899 688.894 215.666 684.251C215.79 683.498 215.913 682.745 216.029 681.985C216.665 678.134 217.301 674.24 217.93 670.374C218.07 669.502 218.212 668.635 218.355 667.774C218.575 666.407 218.797 665.045 219.02 663.687C219.278 662.087 219.535 660.494 219.79 658.923C224.525 629.72 232.938 601.235 244.827 574.149C245.421 572.798 246.026 571.441 246.644 570.076C246.902 569.48 247.167 568.88 247.432 568.283C248.181 566.601 248.938 564.912 249.703 563.218C250.095 562.345 250.488 561.472 250.888 560.6C251.076 560.174 251.273 559.745 251.469 559.312L252.05 558.036C253.166 555.592 254.346 553.036 255.564 550.447C255.731 550.083 255.927 549.701 256.087 549.327L256.149 549.196C257.061 547.247 258.023 545.229 259.088 543.014C259.451 542.232 259.844 541.451 260.222 540.683C260.599 539.916 260.985 539.112 261.37 538.342C262.096 536.887 262.747 535.567 263.383 534.32C263.582 533.923 263.782 533.527 263.986 533.134C264.189 532.742 264.349 532.454 264.509 532.112L264.578 531.978C264.999 531.149 265.424 530.338 265.846 529.538L266.373 528.542L266.493 528.316L266.856 527.651C269.178 523.287 271.289 519.651 273.127 516.774L273.381 516.378C273.632 515.989 273.883 515.607 274.13 515.243C274.195 515.145 274.384 514.88 274.384 514.88C274.519 514.676 274.66 514.465 274.806 514.262L275.224 513.676C275.482 513.312 275.725 512.985 275.968 512.672C276.045 512.567 276.125 512.465 276.205 512.363C276.285 512.262 276.404 512.105 276.506 511.982L276.906 511.491C277.327 510.989 277.731 510.545 278.105 510.163L278.286 509.985C278.475 509.796 278.65 509.622 278.821 509.487C278.901 509.414 278.988 509.342 279.071 509.276L279.337 509.058C279.42 508.992 279.515 508.923 279.605 508.862C279.696 508.8 279.754 508.756 279.834 508.705C279.914 508.654 280.016 508.589 280.107 508.538H280.125C280.245 508.465 280.368 508.4 280.488 508.342C282.091 507.552 284.754 506.302 288.384 504.632C305.889 496.589 341.041 480.996 351.4 476.429L356.054 474.371C356.263 474.28 356.488 474.233 356.716 474.232C356.822 474.233 356.927 474.243 357.032 474.262C361.577 475.156 401.511 482.989 403.724 483.742C405.936 484.494 463.129 517.2 475.021 524L521.527 538.687L571.213 519.338L615.801 484.363C616.088 484.133 616.444 484.005 616.811 484C617.029 483.999 617.244 484.042 617.444 484.127C617.509 484.152 624.031 486.887 633.067 490.829C641.7 494.582 649.693 498.16 656.844 501.454C676.66 510.614 684.253 536.952 684.566 538.069C684.878 539.185 712.582 646.229 720.536 673.018C726.433 692.854 725.732 696.396 724.845 700.883C724.7 701.611 724.551 702.374 724.434 703.232C724.351 703.811 724.296 704.381 724.256 704.989C724.213 705.658 724.195 706.309 724.198 706.978C724.198 712.225 726.945 713.574 731.102 715.614C733.965 717.029 737.206 718.629 739.72 721.927C743.804 727.294 744.37 744.229 744.915 760.603C745.173 768.283 745.413 775.538 746.035 780.192L746.096 780.661C747.517 791.312 747.517 791.312 751.568 795.654C752.491 796.643 753.639 797.872 755.031 799.458C756.422 801.043 758.09 804.705 756.731 818.425C755.957 826.232 754.286 836.429 751.772 848.731C747.495 869.625 742.176 889.669 742.121 889.869C742.06 890.109 741.945 890.331 741.785 890.52C741.625 890.709 741.425 890.86 741.199 890.96C740.991 891.05 740.767 891.097 740.541 891.098C740.275 891.098 740.013 891.033 739.778 890.909C725.782 883.534 712.826 879.796 701.265 879.796C699.597 879.796 697.94 879.876 696.338 880.032C678.135 881.8 670.011 893.189 669.931 893.301C669.78 893.519 669.579 893.697 669.345 893.82C669.111 893.943 668.851 894.007 668.586 894.007C668.477 894.007 668.367 893.996 668.259 893.974C667.946 893.91 667.659 893.756 667.432 893.53C667.206 893.305 667.05 893.018 666.984 892.705C666.937 892.461 661.836 868.076 658.413 854.065C658.231 853.32 658.05 852.611 657.883 851.912C656.97 857.685 655.634 863.383 653.886 868.96C653.886 869.018 653.846 869.098 653.821 869.178C652.295 873.982 649.824 880.585 646.812 884.734C646.634 884.978 646.449 885.218 646.263 885.461C642.601 889.996 625.917 895.596 602.743 900.083C575.304 905.389 542.168 908.541 509.446 908.956C507.335 908.981 505.573 908.992 503.895 908.992H503.829H501.286C500.436 908.992 499.582 908.992 498.743 908.971L495.087 908.92L492.359 908.861H491.959C490.264 908.818 488.568 908.767 486.873 908.709L483.94 908.6L483.37 908.574L480.692 908.458L478.447 908.349H478.291L477.898 908.327L477.077 908.283L475.035 908.174H474.933L472.419 908.025L472.056 908.003L469.981 907.872L468.913 907.803L466.642 907.647L466.279 907.618L463.645 907.425L463.321 907.4H463.281L462.685 907.349C462.082 907.305 461.454 907.258 460.822 907.203H460.745C457.889 906.971 454.932 906.712 451.753 906.411L449.456 906.189C447.458 905.988 445.477 905.781 443.512 905.571C442.735 905.491 441.957 905.403 441.187 905.316L438.873 905.054L437.812 904.934L435.744 904.687H435.661L433.045 904.367C432.155 904.261 431.264 904.145 430.374 904.032C429.023 903.863 427.682 903.688 426.352 903.509L425.88 903.443C425.535 903.4 425.171 903.352 424.812 903.298L422.319 902.956L420.866 902.752C420.666 902.72 420.502 902.694 420.321 902.672C419.819 902.603 419.322 902.527 418.82 902.454C416.691 902.145 414.773 901.858 412.949 901.578L411.514 901.356L408.829 900.934L408.036 900.803L405.835 900.44L404.65 900.243C403.657 900.081 402.672 899.914 401.696 899.741L400.345 899.512L398.989 899.272L397.899 899.08L397.674 899.04L395.73 898.676L394.735 898.498H394.655L393.18 898.221L392.453 898.091C388.515 897.363 384.75 896.611 381.262 895.883L379.994 895.614L379.326 895.472C374.813 894.516 370.548 893.545 366.646 892.585C366.188 892.476 365.73 892.363 365.279 892.247C364.829 892.131 364.397 892.029 363.961 891.912L362.87 891.636L361.802 891.352C358.652 890.527 355.858 889.72 353.486 888.956L352.868 888.756C351.513 888.312 350.325 887.887 349.336 887.494L348.86 887.301C348.073 886.989 347.31 886.617 346.579 886.189C346.401 886.08 346.215 885.963 346.052 885.825C345.438 885.379 344.868 884.875 344.351 884.32C344.181 884.141 343.988 883.956 343.832 883.745C343.676 883.534 343.505 883.352 343.33 883.134L343.072 882.803C343.003 882.712 342.913 882.592 342.825 882.469C342.224 881.639 341.665 880.78 341.15 879.894C340.932 879.531 340.707 879.123 340.482 878.702C340.344 878.458 340.199 878.181 340.053 877.901C339.955 877.716 339.861 877.538 339.766 877.341L339.657 877.123C339.294 876.367 338.901 875.574 338.524 874.731C339.341 877.011 340.082 879.058 340.704 880.825C342.226 885.021 343.134 887.487 343.134 887.491C343.221 887.737 343.248 888 343.213 888.259C343.177 888.517 343.08 888.764 342.93 888.977C342.78 889.191 342.581 889.365 342.35 889.486C342.119 889.607 341.862 889.671 341.601 889.672C341.436 889.672 341.272 889.647 341.114 889.6C338.606 888.86 336.001 888.503 333.386 888.541C333.063 888.541 332.743 888.541 332.416 888.541C308.661 889.16 273.087 912.072 272.731 912.305C272.459 912.47 272.145 912.554 271.826 912.545ZM324.263 709.156C321.407 710.858 318.348 723.498 315.888 733.654C313.751 742.465 311.546 751.578 308.955 757.291C308.865 757.487 308.781 757.654 308.701 757.858C307.931 759.581 307.4 760.858 307.026 761.88C306.95 762.091 306.877 762.298 306.812 762.494C306.049 764.771 306.234 765.247 306.844 766.814C307.412 768.2 307.848 769.637 308.145 771.105C308.645 773.775 308.91 776.484 308.937 779.2C309.01 782.28 310.307 788.363 312.792 797.283C317.261 813.334 324.782 835.745 331.264 854.276L330.861 852.92L330.497 851.669C330.338 851.123 330.185 850.578 330.032 850.061L329.989 849.909C329.843 849.418 329.698 848.92 329.56 848.429L328.47 844.563C328.39 844.272 328.31 843.992 328.23 843.716C327.932 842.654 327.642 841.629 327.362 840.647C327.282 840.367 327.202 840.083 327.126 839.807C326.399 837.309 325.865 835.469 325.407 834.025C325.385 833.949 325.269 833.589 325.269 833.589C325.233 833.472 325.196 833.36 325.156 833.247C322.035 823.76 324.681 815.491 328.688 802.978C329.985 798.927 331.457 794.331 332.899 789.131C338.531 768.872 328.935 719.851 327.293 713.152C327.137 712.512 327.002 711.88 326.89 711.225V711.149C326.89 711.069 326.861 710.989 326.85 710.909C326.839 710.829 326.817 710.705 326.799 710.607C326.719 710.094 326.661 709.621 326.613 709.221C326.613 709.174 326.613 709.109 326.592 709.036L326.537 708.552C326.512 708.323 326.49 708.109 326.465 707.912C325.963 708.167 325.273 708.563 324.386 709.087L324.35 709.109L324.263 709.156Z" fill="#CE44A2"/>
<path d="M356.679 475.848C356.679 475.848 401.006 484.546 403.186 485.273C405.366 486.001 474.363 525.521 474.363 525.521L521.596 540.43L572.031 520.772L616.812 485.637C616.812 485.637 623.283 488.346 632.435 492.332C639.36 495.346 647.815 499.092 656.161 502.95C675.523 511.895 682.996 538.521 682.996 538.521C682.996 538.521 710.919 646.364 718.966 673.492C725.783 696.423 723.624 697.059 722.81 703.019C722.731 703.586 722.665 704.204 722.622 704.895C722.582 705.528 722.556 706.219 722.56 706.993C722.589 717.441 732.708 715.455 738.398 722.928C744.087 730.401 742.518 766.364 744.393 780.419C746.267 794.473 745.788 791.455 753.781 800.546C761.774 809.637 740.527 889.455 740.527 889.455C724.573 881.052 711.587 878.153 701.265 878.153C699.492 878.153 697.795 878.241 696.178 878.397C676.921 880.266 668.587 892.364 668.587 892.364C668.587 892.364 663.471 867.87 660.001 853.67C659.721 852.528 659.456 851.452 659.202 850.459C658.882 849.212 658.584 848.103 658.319 847.161C657.719 845.052 657.265 843.793 657.04 843.793C656.931 843.793 656.873 844.099 656.88 844.75C656.88 845.183 656.88 845.648 656.851 846.143C656.818 846.943 656.749 847.819 656.647 848.757C656.608 849.139 656.56 849.528 656.509 849.932C655.632 856.22 654.229 862.424 652.313 868.477L652.248 868.688C650.326 874.75 647.967 880.368 645.479 883.775C645.315 884.001 645.144 884.219 644.977 884.426C638.626 892.292 583.025 906.379 509.41 907.313C507.569 907.335 505.726 907.347 503.88 907.35H503.815H501.272C500.426 907.35 499.578 907.343 498.728 907.328L495.095 907.277L492.381 907.219H491.985C490.289 907.175 488.594 907.124 486.898 907.066L483.519 906.939L480.736 906.815C479.978 906.781 479.22 906.745 478.462 906.706H478.389L477.146 906.641L474.992 906.524L472.125 906.353C471.437 906.315 470.75 906.271 470.065 906.223L468.975 906.153L466.715 905.997L466.323 905.968L464.259 905.815L463.747 905.779L463.383 905.75L462.805 905.703C462.17 905.655 461.537 905.608 460.905 905.553H460.843C457.833 905.311 454.842 905.048 451.873 904.764L449.58 904.543C447.592 904.341 445.616 904.137 443.654 903.928L441.311 903.67C440.25 903.553 439.189 903.43 438.135 903.306H437.983L435.904 903.059H435.839L433.216 902.739L430.549 902.404C429.2 902.235 427.867 902.06 426.552 901.881L426.094 901.819L425.03 901.673L423.515 901.466L422.788 901.364L421.073 901.124L420.524 901.044L419.035 900.83C417.058 900.544 415.106 900.252 413.178 899.953L411.724 899.732L410.293 899.506L409.047 899.31L406.064 898.823L404.883 898.626C403.89 898.464 402.908 898.298 401.936 898.128L400.581 897.895L399.24 897.659L397.911 897.426L395.978 897.063L394.906 896.87L392.726 896.463C388.816 895.735 385.096 895.008 381.571 894.263L379.638 893.855C375.021 892.877 370.791 891.91 367.009 890.979C366.551 890.87 366.101 890.757 365.657 890.644C365.214 890.532 364.778 890.426 364.349 890.313L363.259 890.033L362.199 889.753C359.008 888.913 356.247 888.113 353.973 887.383L353.366 887.186C352.034 886.75 350.888 886.34 349.929 885.957L349.471 885.772C348.755 885.477 348.063 885.128 347.4 884.728C347.259 884.641 347.118 884.546 346.975 884.444C346.45 884.058 345.963 883.622 345.521 883.143C345.365 882.979 345.209 882.804 345.056 882.626C344.904 882.448 344.748 882.263 344.591 882.063L344.362 881.764C344.283 881.663 344.206 881.561 344.13 881.455C343.561 880.67 343.032 879.855 342.546 879.015C342.328 878.652 342.113 878.266 341.903 877.873C341.761 877.619 341.623 877.357 341.485 877.092C341.347 876.826 341.227 876.586 341.096 876.328C340.166 874.47 339.279 872.404 338.389 870.204C338.288 869.953 338.189 869.703 338.091 869.452C336.158 864.488 334.364 858.906 332.747 853.484C332.645 853.143 332.543 852.804 332.445 852.47L332.293 851.946L332.075 851.219C331.905 850.635 331.737 850.053 331.57 849.473C331.424 848.989 331.282 848.504 331.144 848.019L330.054 844.153C329.974 843.867 329.895 843.584 329.815 843.303C329.517 842.244 329.226 841.219 328.946 840.237C328.866 839.957 328.786 839.677 328.71 839.404C328.078 837.186 327.497 835.204 326.977 833.586C326.944 833.477 326.908 833.372 326.875 833.266C326.821 833.095 326.77 832.932 326.715 832.772C322.773 820.793 328.714 810.408 334.487 789.626C340.26 768.844 330.505 719.455 328.87 712.775C328.71 712.121 328.587 711.513 328.488 710.957C328.47 710.855 328.452 710.757 328.438 710.659C328.423 710.561 328.405 710.466 328.39 710.372C328.314 709.892 328.26 709.448 328.212 709.044C328.212 708.993 328.212 708.943 328.194 708.892C328.1 708.073 328.042 707.437 327.94 706.95C327.94 706.888 327.914 706.826 327.896 706.772C327.878 706.717 327.867 706.659 327.849 706.608C327.811 706.479 327.754 706.356 327.678 706.244L327.646 706.204C327.619 706.172 327.588 706.142 327.555 706.117C327.538 706.101 327.52 706.088 327.5 706.077L327.424 706.033C327.383 706.018 327.34 706.005 327.297 705.997H327.231H327.126H327.053C326.887 706.014 326.724 706.05 326.566 706.106C326.446 706.146 326.319 706.197 326.178 706.255C325.26 706.691 324.368 707.177 323.504 707.71L323.434 707.753C317.45 711.324 313.436 743.459 307.473 756.63L307.212 757.212C306.452 758.913 305.893 760.252 305.497 761.332C305.413 761.564 305.337 761.783 305.268 761.99C303.789 766.408 305.46 766.132 306.55 771.444C307.032 774.019 307.286 776.632 307.31 779.252C307.393 782.724 308.894 789.368 311.223 797.735C318.366 823.372 333.303 865.175 339.16 881.332C340.686 885.532 341.594 888.001 341.594 888.001C338.928 887.211 336.159 886.83 333.379 886.87C333.045 886.87 332.707 886.87 332.365 886.87C307.869 887.521 271.827 910.91 271.827 910.91C271.827 910.91 233.084 833.186 231.86 826.91C230.697 820.946 209.762 775.092 206.125 760.699C205.932 759.946 205.791 759.281 205.7 758.71C204.083 748.503 206.205 741.946 208.378 733.935C208.647 732.939 208.919 731.917 209.184 730.866C209.275 730.503 209.388 730.001 209.519 729.375C209.519 729.288 209.559 729.197 209.577 729.103C209.595 729.008 209.628 728.844 209.657 728.706C209.686 728.568 209.722 728.386 209.755 728.215C209.856 727.703 209.965 727.124 210.082 726.517C210.111 726.361 210.143 726.204 210.173 726.041C210.227 725.753 210.285 725.452 210.34 725.143C210.376 724.951 210.412 724.755 210.449 724.553C210.529 724.137 210.609 723.7 210.688 723.244C210.714 723.11 210.736 722.975 210.761 722.837C210.845 722.397 210.925 721.946 211.008 721.477C211.059 721.201 211.106 720.921 211.157 720.637C211.31 719.783 211.47 718.884 211.633 717.95C211.68 717.673 211.731 717.39 211.778 717.106C211.986 715.921 212.204 714.681 212.425 713.386C212.534 712.746 212.646 712.095 212.759 711.433C212.858 710.863 212.956 710.284 213.057 709.695C213.116 709.332 213.181 708.968 213.243 708.604C213.245 708.573 213.245 708.541 213.243 708.51C213.312 708.113 213.381 707.71 213.45 707.303C213.552 706.695 213.657 706.077 213.762 705.455C213.9 704.624 214.042 703.775 214.187 702.91C214.187 702.841 214.213 702.772 214.224 702.706C214.478 701.181 214.738 699.625 215.005 698.037C215.732 693.695 216.484 689.139 217.25 684.492C217.374 683.738 217.495 682.981 217.614 682.223C218.249 678.375 218.885 674.481 219.514 670.612C219.654 669.741 219.796 668.876 219.939 668.015C220.162 666.646 220.383 665.283 220.604 663.928C220.862 662.324 221.12 660.732 221.374 659.161C226.086 630.099 234.46 601.752 246.295 574.797C246.886 573.447 247.484 572.09 248.09 570.728C248.352 570.132 248.614 569.537 248.878 568.943C249.627 567.26 250.383 565.573 251.146 563.881C251.538 563.008 251.932 562.138 252.326 561.27C252.519 560.841 252.712 560.415 252.908 559.99C253.104 559.564 253.293 559.139 253.489 558.713C254.652 556.168 255.825 553.623 256.995 551.132C257.188 550.713 257.384 550.299 257.58 549.884C258.549 547.797 259.527 545.745 260.512 543.728L261.642 541.401C262.025 540.615 262.407 539.838 262.787 539.07C263.458 537.707 264.126 536.374 264.792 535.07L265.392 533.892C265.588 533.503 265.788 533.117 265.984 532.735C266.406 531.909 266.826 531.1 267.245 530.31L267.786 529.288C267.815 529.226 267.848 529.168 267.881 529.11L268.244 528.426C270.46 524.281 272.553 520.626 274.45 517.666C274.53 517.539 274.61 517.412 274.693 517.303C274.94 516.917 275.187 516.543 275.42 516.183L275.663 515.819C275.801 515.615 275.94 515.412 276.078 515.215L276.492 514.633C276.735 514.295 276.975 513.972 277.218 513.666C277.287 513.572 277.36 513.477 277.433 513.386L277.716 513.023L278.105 512.546C278.468 512.092 278.857 511.681 279.195 511.324L279.369 511.15C279.524 510.997 279.677 510.855 279.827 510.724C279.893 510.666 279.958 510.608 280.023 510.557L280.267 510.361C280.336 510.306 280.409 510.252 280.478 510.204L280.645 510.092L280.677 510.07C280.746 510.023 280.819 509.983 280.888 509.943C280.963 509.896 281.041 509.853 281.121 509.815C282.81 508.983 285.542 507.703 288.99 506.117C305.813 498.386 339.632 483.39 351.985 477.924L356.639 475.866M356.639 472.593C356.186 472.594 355.737 472.688 355.321 472.87L350.703 474.91C340.333 479.499 305.133 495.092 287.664 503.121C284.031 504.793 281.357 506.048 279.729 506.852C279.57 506.927 279.415 507.011 279.264 507.103C279.184 507.15 279.05 507.226 278.901 507.328C278.752 507.43 278.715 507.448 278.625 507.513L278.29 507.761L278.003 508.001C277.876 508.103 277.774 508.193 277.694 508.266C277.509 508.43 277.331 508.608 277.12 508.797L277.095 508.826L276.921 509.001C276.499 509.423 276.067 509.903 275.623 510.43L275.198 510.95C275.093 511.081 274.984 511.215 274.879 511.353L274.628 511.681C274.388 511.993 274.137 512.328 273.869 512.706L273.698 512.946L273.451 513.292C273.298 513.51 273.153 513.724 273.007 513.939L272.957 514.012L272.746 514.321C272.488 514.706 272.234 515.092 271.99 515.466C271.896 515.607 271.805 515.749 271.718 515.892C269.857 518.801 267.721 522.484 265.388 526.859L265.265 527.092L265.036 527.528C265 527.593 264.949 527.681 264.898 527.786L264.669 528.223C264.571 528.401 264.476 528.586 264.382 528.764C263.884 529.703 263.477 530.484 263.103 531.223L262.972 531.477C262.816 531.779 262.66 532.081 262.507 532.386C262.304 532.779 262.104 533.175 261.904 533.572C261.264 534.823 260.603 536.146 259.884 537.608C259.52 538.335 259.157 539.099 258.732 539.957C258.369 540.721 257.976 541.503 257.598 542.288C256.53 544.499 255.564 546.524 254.648 548.47C254.456 548.881 254.256 549.303 254.06 549.728C252.835 552.339 251.651 554.895 250.543 557.332C250.35 557.746 250.157 558.175 249.965 558.604C249.772 559.033 249.572 559.459 249.376 559.892C248.98 560.764 248.588 561.637 248.192 562.513C247.432 564.201 246.666 565.906 245.921 567.604C245.656 568.197 245.39 568.801 245.125 569.404C244.526 570.764 243.923 572.121 243.33 573.473C231.386 600.687 222.934 629.305 218.177 658.644C217.922 660.215 217.664 661.812 217.403 663.415L216.742 667.499C216.6 668.353 216.458 669.223 216.317 670.092C215.59 674.63 214.976 678.317 214.416 681.695C214.293 682.464 214.172 683.221 214.053 683.968C213.352 688.208 212.56 693.019 211.808 697.503L211.408 699.91L211.045 702.175V702.208V702.259C211.045 702.295 211.045 702.332 211.045 702.368C210.899 703.226 210.754 704.073 210.616 704.913L210.54 705.364C210.46 705.833 210.38 706.295 210.303 706.753C210.238 707.15 210.169 707.55 210.1 707.943C210.1 707.979 210.1 708.015 210.1 708.052L210.031 708.444L209.911 709.15L209.737 710.172L209.617 710.873L209.439 711.906L209.282 712.83C209.101 713.895 208.919 714.928 208.745 715.924L208.636 716.535C208.637 716.544 208.637 716.552 208.636 716.561C208.61 716.724 208.581 716.884 208.552 717.044L208.494 717.408C208.334 718.324 208.174 719.226 208.022 720.07L207.956 720.433C207.931 720.586 207.905 720.739 207.876 720.892V720.91V721.004C207.804 721.426 207.731 721.833 207.655 722.233C207.655 722.306 207.629 722.379 207.615 722.448C207.6 722.517 207.615 722.564 207.586 722.623C207.584 722.637 207.584 722.652 207.586 722.666C207.506 723.106 207.429 723.524 207.353 723.928V723.957C207.317 724.15 207.28 724.339 207.248 724.524V724.564C207.204 724.804 207.157 725.044 207.113 725.273L207.088 725.419V725.455L207.044 725.681L207.001 725.906C206.888 726.506 206.783 727.063 206.681 727.568V727.59C206.652 727.743 206.623 727.888 206.594 728.026C206.568 728.139 206.546 728.255 206.525 728.368V728.452V728.477C206.526 728.504 206.526 728.53 206.525 728.557L206.496 728.699C206.343 729.426 206.245 729.837 206.19 730.063C205.925 731.113 205.653 732.132 205.398 733.07C205.253 733.612 205.104 734.161 204.959 734.684C202.939 742.048 201.031 749.004 202.648 759.212C202.753 759.87 202.91 760.612 203.117 761.43C203.118 761.452 203.118 761.474 203.117 761.495C205.26 769.964 212.858 788.146 219.557 804.19C223.896 814.572 228.379 825.306 228.815 827.528C229.044 828.717 229.662 831.892 249.525 872.688C259.259 892.688 268.967 912.168 269.065 912.364C269.271 912.776 269.561 913.14 269.916 913.432C270.272 913.724 270.685 913.938 271.129 914.059C271.409 914.137 271.699 914.176 271.99 914.175C272.622 914.175 273.24 913.992 273.77 913.648C274.134 913.419 309.33 890.739 332.605 890.15C332.917 890.15 333.23 890.15 333.535 890.15C335.984 890.112 338.425 890.443 340.776 891.132C341.091 891.231 341.42 891.282 341.75 891.281C342.277 891.281 342.796 891.154 343.263 890.91C343.73 890.666 344.132 890.313 344.433 889.881C344.735 889.448 344.928 888.949 344.995 888.426C345.062 887.903 345.002 887.372 344.82 886.877C344.82 886.877 344.82 886.837 344.78 886.768C344.933 886.892 345.085 887.008 345.242 887.132C345.398 887.255 345.641 887.408 345.849 887.535C346.655 888.011 347.497 888.424 348.366 888.772L348.871 888.975C349.885 889.379 351.11 889.819 352.505 890.27L353.13 890.473C355.524 891.244 358.347 892.055 361.523 892.892L362.115 893.048L362.587 893.175H362.609L363.136 893.31L363.681 893.452C364.121 893.568 364.567 893.677 365.018 893.79C365.468 893.903 365.934 894.019 366.402 894.132C370.323 895.095 374.599 896.07 379.119 897.041L379.802 897.186L381.066 897.452C384.554 898.179 388.333 898.928 392.283 899.666L392.98 899.797L394.488 900.073C394.844 900.144 395.207 900.209 395.578 900.27L397.504 900.633L397.762 900.677L398.83 900.866L399.498 900.983L400.17 901.103H400.203L400.824 901.212L401.551 901.339C402.521 901.503 403.509 901.673 404.509 901.837L405.235 901.957L405.689 902.033L407.746 902.368L408.683 902.521L409.014 902.575L409.951 902.721L410.74 902.844L411.376 902.946L411.972 903.037L412.822 903.168C414.595 903.441 416.52 903.732 418.697 904.048H418.817C419.282 904.113 419.74 904.183 420.205 904.244L420.699 904.317H420.75L422.468 904.557H422.49L422.853 904.608L423.217 904.659L423.991 904.764L424.717 904.863L425.807 905.012L426.054 905.044L426.247 905.07H426.272C427.58 905.244 428.939 905.433 430.309 905.597L432.99 905.932L435.595 906.252H435.708C436.388 906.335 437.067 906.419 437.75 906.495H437.877H437.935L438.865 906.601L441.125 906.859L443.48 907.117C445.271 907.31 447.218 907.51 449.424 907.732L450.514 907.841L451.724 907.957C454.932 908.259 457.879 908.517 460.738 908.75H460.818H460.843C461.461 908.804 462.075 908.848 462.697 908.895L463.285 908.943H463.358H463.627H463.71H463.935H464.204L464.804 908.986L466.257 909.095H466.319C466.421 909.095 466.515 909.095 466.61 909.117H466.668L467.758 909.19L468.946 909.273H468.968L469.48 909.306L470.036 909.343L472.118 909.473H472.336L474.988 909.633L477.168 909.75L478.007 909.793H478.349H478.549L480.794 909.899L483.337 910.012H483.581H483.792L486.985 910.132C488.675 910.19 490.393 910.244 492.094 910.288H492.493L495.066 910.343H495.24L498.899 910.393C499.749 910.393 500.607 910.412 501.461 910.415H504.004H504.069C505.737 910.415 507.557 910.415 509.639 910.379C542.459 909.961 575.697 906.801 603.227 901.473C614.704 899.255 642.012 893.332 647.71 886.277C647.946 885.983 648.138 885.735 648.313 885.492C651.466 881.175 653.992 874.397 655.554 869.47C655.579 869.39 655.605 869.313 655.626 869.233C656.618 866.073 657.516 862.717 658.257 859.455C661.527 873.535 665.524 892.626 665.578 892.841C665.709 893.468 666.021 894.043 666.475 894.494C666.929 894.946 667.506 895.254 668.133 895.38C668.76 895.507 669.411 895.447 670.005 895.206C670.598 894.966 671.108 894.557 671.471 894.03C671.471 894.03 673.433 891.27 677.514 888.364C682.964 884.492 689.402 882.183 696.687 881.455C698.238 881.303 699.844 881.226 701.457 881.226C712.721 881.226 725.437 884.903 739.197 892.135C739.667 892.378 740.19 892.503 740.719 892.499C741.171 892.5 741.618 892.405 742.031 892.223C742.481 892.026 742.881 891.73 743.201 891.357C743.521 890.985 743.753 890.545 743.88 890.07C743.931 889.87 749.268 869.779 753.552 848.837C756.095 836.474 757.756 826.23 758.533 818.368C759.943 804.168 758.17 800.106 756.437 798.153C755.027 796.553 753.872 795.313 752.942 794.317C750.762 791.99 750.06 791.19 749.574 789.881C748.963 788.237 748.585 785.39 747.895 780.226L747.833 779.757C747.223 775.179 746.983 767.964 746.743 760.328C746.06 739.892 745.29 726.095 741.213 720.717C738.466 717.11 734.891 715.346 732.017 713.928C727.777 711.837 726.055 710.826 726.044 706.757C726.044 706.121 726.044 705.506 726.099 704.873C726.135 704.306 726.189 703.783 726.262 703.244C726.375 702.423 726.513 701.724 726.662 700.983C727.694 695.753 728.035 691.575 722.302 672.328C714.352 645.568 686.63 538.55 686.332 537.47C686.334 537.449 686.334 537.429 686.332 537.408C684.721 532.153 682.562 527.083 679.89 522.281C673.942 511.492 666.272 503.703 657.727 499.735C650.573 496.426 642.565 492.844 633.936 489.088C624.87 485.139 618.338 482.401 618.272 482.375C617.737 482.152 617.152 482.076 616.577 482.154C616.003 482.232 615.459 482.461 615.002 482.819L570.588 517.659L521.473 536.964L475.693 522.506C473.299 521.135 457.276 511.961 441.213 502.826C405.871 482.724 404.828 482.375 404.207 482.183C401.998 481.455 367.754 474.703 357.308 472.652C357.101 472.611 356.89 472.59 356.679 472.59L356.639 472.593ZM308.563 762.441C308.927 761.47 309.453 760.193 310.191 758.543L310.442 757.979C313.098 752.113 315.325 742.928 317.476 734.044C318.907 728.124 320.263 722.535 321.69 718.044C323.689 711.764 324.939 710.673 325.109 710.55C325.109 710.655 325.139 710.764 325.157 710.873C325.175 710.983 325.189 711.077 325.208 711.186C325.226 711.295 325.24 711.375 325.258 711.47V711.517C325.375 712.19 325.52 712.873 325.684 713.546C327.311 720.19 336.841 768.775 331.304 788.699C329.851 793.866 328.398 798.444 327.108 802.484C324.666 810.121 322.642 816.433 322.225 822.484C319.213 813.241 316.448 804.335 314.358 796.833C311.31 785.888 310.612 781.175 310.565 779.15C310.535 776.337 310.259 773.533 309.74 770.768C309.424 769.208 308.962 767.681 308.36 766.208C307.822 764.83 307.778 764.721 308.36 763.004L308.563 762.419V762.441Z" fill="#17091D"/>
<path d="M671.798 774.458C676.769 791.338 690.543 850.221 696.178 878.396C676.921 880.265 668.587 892.363 668.587 892.363C668.587 892.363 663.471 867.869 660.001 853.669L656.96 834.181L653.69 812L650.783 786.909L650.936 774.421L651.299 766.647L655.507 734.909L655.143 687.229L655.223 685.661L658.05 657.09L659.401 647.927L663.137 632.363L666.043 604L665.317 585.09L665.269 580.596L665.498 580.072C665.498 580.072 672.641 600.105 672.976 620.96C673.31 641.814 675.73 671.072 674.883 691.72C674.037 712.367 674.883 721.48 682.281 714.374C688.494 708.392 715.78 702.534 720.274 704.472C721.052 704.8 721.531 704.88 720.543 705.818C720.46 705.901 719.911 706.512 719.817 706.6C714.657 711.025 700.76 715.85 690.023 721.058C685.198 723.403 681.528 725.527 680.555 727.174C680.354 727.471 680.269 727.833 680.319 728.189C681.303 733.09 725.118 714.76 726.284 723.381C727.45 732.003 698.896 735.712 685.739 746.945C672.583 758.178 665.564 753.28 671.798 774.458Z" fill="#9C398C"/>
<path d="M656.506 849.931C655.165 860.552 650.329 877.792 644.974 884.411C638.623 892.276 583.022 906.363 509.407 907.298C435.792 908.232 356.483 890.298 347.4 884.727C338.317 879.156 330.632 844.705 326.69 832.727C322.748 820.749 328.688 810.363 334.462 789.581C340.235 768.8 330.505 719.454 328.87 712.774C327.635 707.756 328.565 705.429 326.563 706.094L327.224 702.152L333.804 676.192L338.095 657.818L341.975 631.418L343.429 626.494C343.429 626.494 342.179 648.509 349.776 640.527C350.903 639.341 352.32 637.185 353.882 634.371C357.962 627.072 369.098 630.734 368.052 639.029C366.257 653.021 365.145 665.767 365.955 672.211C368.292 691.091 367.045 750.654 366.221 768.691C365.396 786.727 355.728 799.029 353.29 817.418C350.852 835.807 370.922 856.691 384.867 860.974C398.812 865.258 402.343 876.323 412.567 879.883C422.792 883.443 464.026 901.781 525.521 897.701C587.015 893.621 612.721 893.701 625.492 885.305C638.263 876.909 643.233 874.963 645.646 865.567C648.058 856.171 654.882 843.098 654.882 843.098L656.506 849.931Z" fill="#9C398C"/>
<path d="M664.19 554.251C664.917 560.513 665.458 566.749 665.913 573.011C666.367 579.273 666.679 585.535 666.828 591.808C666.977 598.08 666.97 604.364 666.701 610.644C666.574 613.782 666.37 616.924 666.109 620.059C665.956 621.626 665.822 623.193 665.622 624.757C665.422 626.32 665.211 627.88 664.986 629.44C664.873 630.222 664.717 630.997 664.586 631.775L664.379 632.942C664.307 633.331 664.219 633.717 664.139 634.102C663.969 634.877 663.82 635.651 663.638 636.422L663.053 638.728C662.861 639.499 662.603 640.251 662.381 641.015L661.683 643.273C661.207 644.728 660.837 646.24 660.444 647.735C659.718 650.746 659.129 653.793 658.628 656.859C658.126 659.924 657.734 663.011 657.421 666.113C656.767 672.295 656.411 678.535 656.179 684.771C655.946 691.008 655.932 697.251 655.986 703.499C656.041 709.746 656.193 715.993 656.35 722.248C656.422 725.379 656.513 728.502 656.509 731.662C656.509 732.451 656.509 733.244 656.466 734.051C656.422 734.859 656.357 735.651 656.288 736.44C656.143 738.015 655.972 739.575 655.786 741.135C654.297 753.586 652.415 765.96 651.099 778.36C651.012 779.135 650.94 779.909 650.871 780.68C650.802 781.451 650.722 782.229 650.678 782.997C650.634 783.764 650.554 784.542 650.54 785.295L650.504 786.429C650.504 786.793 650.504 787.157 650.504 787.549C650.638 790.6 650.95 793.731 651.263 796.819L651.764 801.469L652.331 806.12C652.724 809.219 653.123 812.302 653.548 815.411C653.973 818.52 654.446 821.593 654.911 824.684C655.376 827.775 655.892 830.866 656.404 833.931C656.916 836.997 657.494 840.08 658.075 843.131C658.381 844.655 658.689 846.175 659.027 847.673C659.191 848.426 659.391 849.164 659.562 849.888C659.656 850.229 659.75 850.615 659.849 850.92L659.997 851.389C660.037 851.469 660.072 851.55 660.103 851.633L660.234 852.019C660.361 852.366 660.418 852.736 660.401 853.106C660.383 853.476 660.292 853.838 660.132 854.173C659.972 854.507 659.747 854.805 659.471 855.051C659.194 855.297 658.87 855.484 658.52 855.603C658.169 855.722 657.799 855.769 657.43 855.742C657.061 855.715 656.701 855.615 656.371 855.446C656.042 855.278 655.749 855.045 655.511 854.762C655.272 854.479 655.093 854.15 654.984 853.797V853.775C654.889 853.488 654.791 853.182 654.718 852.902L654.573 852.237C654.475 851.786 654.424 851.4 654.348 850.982C654.217 850.171 654.104 849.375 653.984 848.586C653.759 847.004 653.57 845.437 653.385 843.859C653 840.731 652.658 837.608 652.317 834.488L651.314 825.135C650.98 822.017 650.657 818.9 650.347 815.782C650.037 812.665 649.725 809.546 649.41 806.426L648.552 797.059C648.291 793.924 648.026 790.811 647.938 787.604C647.938 787.197 647.938 786.782 647.938 786.379L647.989 785.171C648.011 784.357 648.095 783.579 648.149 782.786C648.204 781.993 648.291 781.211 648.367 780.426C648.443 779.64 648.523 778.859 648.614 778.077C650.046 765.6 652.03 753.24 653.61 740.855C653.811 739.306 653.99 737.762 654.148 736.222C654.217 735.455 654.304 734.677 654.337 733.935C654.369 733.193 654.388 732.408 654.391 731.633C654.391 728.531 654.329 725.4 654.271 722.277C654.137 716.022 654.006 709.76 653.984 703.491C653.963 697.222 654.039 690.957 654.25 684.688C654.46 678.419 654.831 672.146 655.489 665.895C655.801 662.768 656.215 659.648 656.698 656.535C657.182 653.422 657.788 650.328 658.541 647.255C658.944 645.724 659.322 644.189 659.809 642.677L660.495 640.433C660.706 639.706 660.957 638.979 661.142 638.215L661.709 635.971C661.887 635.222 662.032 634.462 662.196 633.706C662.276 633.342 662.359 632.949 662.432 632.571L662.632 631.426C662.762 630.662 662.911 629.902 663.024 629.135C663.938 622.983 664.488 616.781 664.67 610.564C664.892 604.339 664.848 598.099 664.648 591.866C664.23 579.404 663.246 566.924 661.64 554.582V554.564C661.616 554.397 661.625 554.227 661.667 554.064C661.709 553.901 661.783 553.748 661.885 553.613C661.987 553.479 662.114 553.366 662.26 553.282C662.405 553.197 662.566 553.142 662.733 553.12C662.9 553.098 663.07 553.11 663.232 553.154C663.395 553.198 663.547 553.274 663.68 553.378C663.812 553.481 663.923 553.61 664.006 553.757C664.089 553.904 664.142 554.066 664.161 554.233L664.19 554.251Z" fill="#17091D"/>
<path d="M302.923 511.215C303.406 510.542 304.343 510.388 305.016 510.871L304.277 511.902C304.99 510.909 305.016 510.873 305.017 510.872C305.018 510.873 305.019 510.874 305.02 510.874C305.022 510.876 305.025 510.878 305.028 510.88C305.034 510.885 305.043 510.892 305.054 510.9C305.077 510.916 305.109 510.939 305.149 510.969C305.231 511.03 305.351 511.12 305.505 511.238C305.812 511.473 306.257 511.821 306.82 512.282C307.946 513.206 309.544 514.582 311.456 516.41C315.279 520.067 320.364 525.54 325.433 532.822C335.576 547.39 345.669 569.216 345.473 598.213C345.28 626.981 340.62 654.679 336.015 675.17C333.921 684.491 331.834 692.328 330.182 698.107C333.093 693.366 336.787 687.228 340.644 680.505C349.336 665.358 358.749 647.43 362.015 635.804C362.24 635.007 363.068 634.542 363.865 634.766C364.662 634.99 365.127 635.818 364.903 636.616C361.521 648.655 351.913 666.894 343.246 681.998C338.896 689.579 334.756 696.417 331.703 701.359C330.176 703.83 328.922 705.828 328.048 707.209C327.611 707.9 327.269 708.436 327.036 708.8C326.92 708.982 326.83 709.121 326.77 709.215C326.74 709.262 326.717 709.298 326.702 709.322C326.694 709.333 326.688 709.342 326.684 709.348C326.683 709.351 326.681 709.353 326.68 709.355L326.679 709.357C326.679 709.357 326.678 709.357 325.418 708.544L326.679 709.358C326.268 709.995 325.447 710.225 324.764 709.895C324.082 709.564 323.753 708.776 323.999 708.059L324 708.058C324 708.057 324.001 708.054 324.002 708.051C324.004 708.045 324.006 708.036 324.011 708.024C324.019 707.999 324.032 707.962 324.049 707.912C324.082 707.813 324.132 707.662 324.198 707.463C324.33 707.065 324.523 706.473 324.77 705.697C325.264 704.144 325.972 701.858 326.823 698.935C328.525 693.088 330.8 684.693 333.088 674.513C337.665 654.145 342.282 626.672 342.473 598.193C342.663 569.943 332.84 548.711 322.971 534.535C318.034 527.445 313.088 522.123 309.383 518.578C307.53 516.807 305.99 515.481 304.918 514.602C304.382 514.162 303.963 513.835 303.681 513.619C303.541 513.512 303.434 513.432 303.364 513.38C303.329 513.354 303.303 513.335 303.287 513.324C303.279 513.318 303.273 513.313 303.269 513.311L303.266 513.309L303.146 513.213C302.577 512.71 302.47 511.846 302.923 511.215Z" fill="#17091D"/>
<path d="M238.918 726.038C256.947 726.461 274.244 735.455 286.931 744.206C293.296 748.597 298.547 752.96 302.208 756.225C304.04 757.858 305.475 759.219 306.455 760.174C306.945 760.652 307.322 761.027 307.578 761.286C307.705 761.415 307.803 761.514 307.87 761.582C307.903 761.617 307.927 761.644 307.945 761.662C307.953 761.67 307.961 761.677 307.965 761.682C307.967 761.684 307.969 761.687 307.97 761.688L307.972 761.69C307.97 761.693 307.917 761.744 306.888 762.727L307.973 761.691C308.545 762.29 308.523 763.239 307.924 763.811C307.325 764.383 306.375 764.361 305.803 763.762C305.802 763.761 305.802 763.76 305.8 763.758C305.797 763.755 305.791 763.75 305.784 763.743C305.769 763.728 305.747 763.704 305.717 763.673C305.657 763.611 305.566 763.518 305.445 763.395C305.202 763.149 304.839 762.786 304.363 762.323C303.411 761.395 302.007 760.065 300.211 758.464C296.619 755.261 291.466 750.98 285.227 746.676C272.707 738.04 256.001 729.44 238.848 729.038C238.02 729.018 237.364 728.331 237.383 727.502C237.403 726.674 238.09 726.018 238.918 726.038Z" fill="#17091D"/>
<path d="M712.481 706.09C713.208 705.693 714.119 705.96 714.516 706.687C714.889 707.368 714.677 708.212 714.05 708.642L713.92 708.723L713.918 708.724C713.916 708.725 713.914 708.726 713.911 708.728C713.904 708.731 713.895 708.737 713.881 708.744C713.855 708.759 713.815 708.78 713.762 708.809C713.657 708.867 713.501 708.953 713.296 709.066C712.888 709.292 712.287 709.627 711.52 710.057C709.987 710.918 707.792 712.164 705.147 713.701C699.855 716.775 692.769 721.01 685.586 725.66C678.395 730.316 671.139 735.365 665.49 740.067C662.664 742.419 660.272 744.658 658.498 746.696C656.694 748.767 655.653 750.491 655.329 751.812C655.131 752.616 654.319 753.108 653.514 752.91C652.71 752.713 652.217 751.901 652.415 751.096C652.914 749.064 654.344 746.897 656.235 744.726C658.155 742.521 660.68 740.167 663.571 737.761C669.355 732.947 676.726 727.822 683.956 723.142C691.193 718.457 698.322 714.195 703.639 711.106C706.299 709.561 708.507 708.308 710.051 707.441C710.823 707.007 711.43 706.671 711.843 706.442C712.05 706.327 712.21 706.24 712.317 706.181C712.37 706.152 712.411 706.129 712.438 706.114C712.452 706.106 712.462 706.1 712.469 706.096C712.473 706.094 712.476 706.093 712.478 706.092L712.48 706.091C712.483 706.095 712.521 706.163 713.201 707.407L712.481 706.09Z" fill="#17091D"/>
<path d="M699.128 727.451L699.69 728.842L699.689 728.843C699.688 728.843 699.686 728.844 699.684 728.845C699.679 728.847 699.672 728.85 699.663 728.854C699.643 728.861 699.614 728.873 699.576 728.889C699.498 728.92 699.382 728.968 699.231 729.03C698.928 729.155 698.482 729.34 697.913 729.58C696.772 730.061 695.136 730.763 693.157 731.643C689.197 733.404 683.873 735.878 678.41 738.729C672.939 741.584 667.364 744.798 662.883 748.039C660.643 749.66 658.704 751.267 657.197 752.818C655.677 754.381 654.666 755.814 654.182 757.078C653.886 757.852 653.019 758.24 652.246 757.944C651.472 757.647 651.085 756.78 651.381 756.006C652.071 754.204 653.389 752.429 655.045 750.726C656.714 749.009 658.8 747.29 661.124 745.609C665.774 742.245 671.493 738.954 677.022 736.069C682.558 733.18 687.941 730.679 691.937 728.902C693.936 728.012 695.591 727.304 696.747 726.817C697.324 726.573 697.778 726.385 698.087 726.257C698.242 726.193 698.361 726.144 698.442 726.111C698.482 726.095 698.513 726.082 698.534 726.073C698.544 726.069 698.553 726.066 698.558 726.064C698.561 726.063 698.563 726.062 698.564 726.062L698.566 726.061C698.566 726.061 698.574 726.08 699.128 727.451ZM698.567 726.061C699.335 725.75 700.209 726.122 700.519 726.89C700.829 727.658 700.459 728.531 699.691 728.842L699.128 727.451L698.567 726.061Z" fill="#17091D"/>
<path d="M257.384 586.232C251.298 609.272 226.079 699.323 221.778 711.021C219.492 717.261 213.479 726.585 208.363 733.93C208.632 732.934 208.905 731.912 209.17 730.861C210.474 725.69 215.917 692.829 220.611 663.952C225.919 631.194 235.428 599.258 248.9 568.934C261.003 541.723 275.02 512.814 281.161 509.796C282.85 508.963 285.583 507.683 289.031 506.098L296.897 502.545C298.815 505.403 263.47 563.192 257.384 586.232Z" fill="#D969BD"/>
<path d="M339.152 881.33C340.678 885.53 341.587 887.999 341.587 887.999C338.592 887.125 335.474 886.748 332.358 886.883C307.869 887.519 271.827 910.908 271.827 910.908C271.827 910.908 233.084 833.185 231.86 826.908C230.697 820.945 209.762 775.09 206.125 760.697C215.987 775.299 225.062 790.418 233.313 805.988C251.313 839.806 275.286 890.981 289.459 888.126C299 886.203 323.921 883.13 339.152 881.33Z" fill="#9C398C"/>
<path d="M306.543 771.444C298.241 771.204 285.967 766.629 270.82 765.098C254.739 763.473 256.748 756.545 260.738 753.753C264.727 750.96 292.348 766.727 287.563 758.629C282.777 750.531 260.382 743.818 267.401 742.462C272.833 741.411 295.352 755.553 305.26 761.985C303.8 766.404 305.453 766.127 306.543 771.444Z" fill="#9C398C"/>
<path d="M338.317 647.637L332.14 679.273C332.14 679.273 326.963 700.637 326.69 700.728C326.029 700.946 324.917 706.862 323.42 707.749C317.436 711.32 313.421 743.455 307.459 756.626L307.197 757.208C299.567 748.095 282.127 727.902 274.719 724.229C265.105 719.455 286.542 716.909 292.718 721.273C298.895 725.637 305.435 735.455 309.973 723.266C314.511 711.077 318.693 696.139 320.695 693.273C322.697 690.408 338.317 647.637 338.317 647.637Z" fill="#9C398C"/>
<path d="M503.811 908.971C502.209 908.971 500.498 908.971 498.725 908.942L495.066 908.891L492.337 908.833H491.938C490.242 908.789 488.546 908.738 486.851 908.68L483.944 908.571L483.363 908.549L480.656 908.429L478.411 908.32H478.258L477.866 908.298L477.041 908.255L474.981 908.145H474.897L472.354 907.996L471.99 907.975C471.3 907.935 470.606 907.891 469.916 907.844L468.848 907.775L466.54 907.615L466.206 907.589L463.601 907.4L463.238 907.371H463.172L460.658 907.175C457.81 906.942 454.87 906.684 451.669 906.382L449.373 906.16C447.375 905.959 445.393 905.753 443.429 905.542L441.078 905.284L438.775 905.025L437.899 904.924L435.654 904.658C433.859 904.444 432.064 904.222 430.291 903.993C428.939 903.823 427.598 903.649 426.269 903.469L425.796 903.404C424.942 903.291 424.078 903.175 423.22 903.04L420.768 902.698C420.568 902.665 420.404 902.64 420.223 902.618L418.722 902.4C415.888 901.989 412.942 901.545 409.977 901.073L408.731 900.88L407.92 900.745L405.74 900.382L404.556 900.185C403.102 899.943 401.665 899.701 400.243 899.458L398.895 899.222C397.442 898.964 395.988 898.705 394.557 898.447L392.973 898.16L394.688 887.709L388.635 862.618C388.14 860.566 388.228 858.415 388.89 856.411C389.552 854.406 390.761 852.626 392.381 851.273C405.039 840.527 435.178 811.004 441.638 769.007C442.079 766.048 443.571 763.347 445.839 761.397C448.108 759.448 451.001 758.382 453.991 758.393C454.202 758.393 454.409 758.393 454.62 758.411C461.116 758.731 467.899 759.033 474.781 759.305C491.371 759.971 516.11 760.76 539.741 760.76C564.935 760.76 584.003 759.88 596.421 758.142C597.355 758.011 598.298 757.946 599.241 757.945C603.3 757.929 607.269 759.146 610.624 761.434C613.978 763.723 616.56 766.976 618.029 770.764C622.135 781.321 625.653 792.099 628.565 803.047C635.007 827.076 647.749 836.233 653.188 840.138L653.915 840.655L653.89 841.316C654.064 841.713 654.616 842.622 654.98 843.244C656.266 845.382 656.822 846.404 656.796 847.316C656.829 847.618 657.003 848.593 657.12 849.247C657.508 851.429 657.559 851.825 657.509 852.222C656.581 859.204 654.957 866.076 652.662 872.735C650.685 878.371 648.531 882.647 646.263 885.462C642.601 889.996 625.917 895.596 602.743 900.084C575.304 905.389 542.168 908.542 509.447 908.956C507.321 908.982 505.544 908.993 503.851 908.993L503.811 908.971Z" fill="#7E4282"/>
<path d="M599.255 759.563C602.983 759.56 606.625 760.683 609.705 762.784C612.785 764.886 615.16 767.868 616.521 771.341C620.6 781.843 624.093 792.564 626.985 803.454C633.401 827.389 645.784 836.818 652.236 841.454C652.204 842.254 655.245 846.334 655.143 847.272C655.103 847.636 655.921 851.596 655.87 851.999C654.958 858.868 653.36 865.628 651.099 872.178C649.359 877.141 647.273 881.567 644.973 884.41C638.622 892.276 583.021 906.363 509.406 907.298C507.549 907.319 505.691 907.332 503.833 907.334H503.811C502.125 907.334 500.432 907.334 498.724 907.305L495.091 907.254L492.377 907.196H491.981C490.285 907.152 488.59 907.101 486.894 907.043L483.515 906.916L480.732 906.792C479.974 906.758 479.216 906.722 478.458 906.683H478.385L477.142 906.618L474.988 906.501L472.121 906.33C471.433 906.292 470.747 906.248 470.061 906.199L468.971 906.13L466.711 905.974L466.319 905.945L463.743 905.756L463.379 905.727L460.836 905.527C457.825 905.284 454.835 905.021 451.865 904.738L449.573 904.516C447.584 904.315 445.609 904.11 443.647 903.901L441.303 903.643C440.242 903.527 439.181 903.403 438.128 903.279L435.897 903.014C434.097 902.801 432.312 902.58 430.541 902.352C429.192 902.182 427.86 902.008 426.545 901.829L426.087 901.767L423.507 901.403L422.78 901.301L421.066 901.061L420.517 900.981L419.027 900.767C416.062 900.338 413.156 899.896 410.307 899.443L409.061 899.247L406.078 898.759L404.897 898.563C403.444 898.321 402.01 898.078 400.595 897.836L399.255 897.599C397.787 897.34 396.342 897.082 394.92 896.825L396.428 887.636L390.273 862.214C389.85 860.461 389.922 858.624 390.481 856.909C391.04 855.194 392.063 853.668 393.438 852.501C405.348 842.392 436.645 812.203 443.254 769.229C443.654 766.659 444.958 764.318 446.931 762.626C448.903 760.934 451.415 760.002 454.013 759.999C454.194 759.999 454.376 759.999 454.558 759.999C459.757 760.258 466.678 760.578 474.734 760.898C492.9 761.625 516.855 762.352 539.77 762.352C561.661 762.352 582.604 761.687 596.672 759.719C597.531 759.598 598.398 759.537 599.266 759.538M599.266 756.265C598.246 756.266 597.228 756.337 596.218 756.479C583.864 758.207 564.887 759.079 539.77 759.079C516.154 759.079 491.447 758.29 474.875 757.625C466.268 757.283 459.168 756.949 454.732 756.727C454.496 756.727 454.256 756.709 454.005 756.709C450.627 756.711 447.36 757.921 444.794 760.122C442.229 762.322 440.533 765.367 440.013 768.709C433.641 810.163 403.833 839.352 391.327 849.978C389.485 851.532 388.114 853.57 387.367 855.862C386.62 858.155 386.526 860.61 387.098 862.952L393.074 887.727L391.676 896.261L391.152 899.436L394.317 900.01C395.719 900.269 397.184 900.53 398.677 900.789L399.331 900.905L400.007 901.025C401.525 901.29 402.942 901.53 404.367 901.752L405.05 901.865L405.54 901.949L407.59 902.283L408.534 902.436L408.818 902.483L409.802 902.636C412.778 903.109 415.728 903.556 418.566 903.967H418.675C419.144 904.036 419.605 904.105 420.074 904.167L420.564 904.239H420.619L422.337 904.479H422.359L422.722 904.53L423.086 904.581C423.936 904.701 424.797 904.814 425.658 904.945L425.916 904.981L426.105 905.007H426.13C427.431 905.181 428.79 905.37 430.167 905.534C432.071 905.778 433.833 905.992 435.548 906.199L437.768 906.461H437.793L438.72 906.567L440.983 906.825L443.338 907.083C445.129 907.276 447.077 907.476 449.282 907.698L450.372 907.807L451.582 907.923C454.794 908.225 457.759 908.487 460.6 908.716L463.143 908.916H463.209H463.477H463.532L464.767 909.007L466.112 909.105H466.166C466.264 909.105 466.362 909.105 466.453 909.127H466.515L467.605 909.203L468.782 909.283H468.804L469.316 909.316L469.872 909.352L471.95 909.483H472.183L474.824 909.643H474.85L476.983 909.759L477.825 909.803H478.167H478.37L480.612 909.909L483.137 910.021H483.395H483.588C484.678 910.065 485.728 910.105 486.8 910.141C488.5 910.203 490.219 910.254 491.908 910.298H492.308L494.949 910.352H495.095L498.728 910.403C500.545 910.421 502.223 910.432 503.837 910.432H503.858C505.537 910.432 507.372 910.432 509.472 910.396C542.292 909.978 575.529 906.818 603.059 901.49C614.537 899.272 641.845 893.349 647.542 886.294C649.929 883.341 652.171 878.898 654.209 873.087C656.544 866.319 658.196 859.333 659.14 852.236C659.223 851.559 659.14 850.959 658.736 848.774C658.638 848.214 658.493 847.399 658.442 847.05C658.442 845.69 657.715 844.396 656.397 842.207C656.135 841.77 655.772 841.167 655.554 840.752L655.601 839.632L654.169 838.603C648.868 834.796 636.46 825.876 630.167 802.414C627.246 791.406 623.715 780.568 619.591 769.952C617.991 765.867 615.197 762.36 611.574 759.888C607.952 757.416 603.668 756.095 599.284 756.098L599.266 756.265Z" fill="#17091D"/>
<path d="M651.1 872.179C649.359 877.143 647.274 881.568 644.974 884.412C638.623 892.277 583.022 906.364 509.407 907.299C507.549 907.321 505.691 907.333 503.833 907.335H503.811C502.126 907.335 500.432 907.335 498.725 907.306L495.091 907.255L492.377 907.197H491.981C490.286 907.154 488.59 907.103 486.895 907.044L483.516 906.917L480.732 906.794C479.974 906.76 479.216 906.723 478.458 906.684H478.385L477.143 906.619L474.988 906.503L472.122 906.332C471.434 906.293 470.747 906.249 470.061 906.201L468.971 906.132L466.711 905.975L466.319 905.946L463.743 905.757L463.38 905.728L460.836 905.528C457.826 905.286 454.835 905.023 451.866 904.739L449.573 904.517C447.584 904.316 445.609 904.111 443.647 903.903L441.304 903.644C440.243 903.528 439.182 903.404 438.128 903.281L435.897 903.015C434.097 902.802 432.312 902.581 430.542 902.354C429.192 902.184 427.86 902.009 426.545 901.83L426.087 901.768L423.507 901.404L422.781 901.303L421.066 901.063L420.517 900.983L419.028 900.768C416.063 900.339 413.156 899.898 410.308 899.444L409.061 899.248L406.078 898.761L404.898 898.564C403.444 898.322 402.01 898.08 400.596 897.837L399.255 897.601C397.787 897.341 396.342 897.083 394.92 896.826L396.428 887.637L390.273 862.215C389.851 860.462 389.923 858.625 390.482 856.911C391.04 855.196 392.064 853.67 393.438 852.503C405.348 842.394 436.646 812.204 443.255 769.23C443.67 766.569 445.055 764.156 447.142 762.455C449.229 760.755 451.87 759.887 454.558 760.019C459.757 760.277 466.679 760.597 474.734 760.917C474.734 760.917 460.702 807.008 454.947 820.364C449.192 833.721 408.258 865.274 424.608 872.91C440.958 880.546 536.439 879.964 553.919 879.892C571.399 879.819 623.09 880.066 646.111 873.579L651.1 872.179Z" fill="#5C2C66"/>
<path d="M459.124 772.767C459.327 771.964 460.143 771.478 460.946 771.681C461.749 771.884 462.236 772.7 462.032 773.503L460.578 773.135C462.032 773.503 462.032 773.504 462.032 773.505C462.032 773.506 462.032 773.507 462.031 773.508C462.031 773.511 462.03 773.514 462.028 773.519C462.026 773.528 462.023 773.542 462.019 773.559C462.01 773.594 461.996 773.646 461.979 773.713C461.943 773.849 461.89 774.048 461.82 774.309C461.68 774.83 461.469 775.594 461.189 776.574C460.627 778.532 459.782 781.353 458.644 784.814C456.368 791.734 452.919 801.223 448.225 811.497C438.867 831.982 424.441 855.86 404.279 868.543C403.578 868.984 402.652 868.773 402.211 868.072C401.77 867.37 401.981 866.444 402.682 866.003C422.069 853.807 436.193 830.616 445.496 810.251C450.133 800.102 453.542 790.72 455.793 783.877C456.918 780.457 457.752 777.672 458.305 775.746C458.581 774.783 458.787 774.034 458.923 773.529C458.991 773.276 459.042 773.084 459.075 772.955C459.092 772.891 459.104 772.843 459.112 772.812C459.116 772.796 459.12 772.784 459.122 772.777C459.123 772.773 459.124 772.771 459.124 772.769V772.767Z" fill="#17091D"/>
<path d="M599.303 771.661C600.114 771.497 600.905 772.021 601.07 772.833L601.071 772.835C601.072 772.837 601.072 772.839 601.073 772.843C601.075 772.851 601.077 772.863 601.08 772.88C601.087 772.912 601.097 772.962 601.111 773.027C601.139 773.159 601.18 773.357 601.236 773.615C601.348 774.132 601.518 774.895 601.744 775.874C602.197 777.832 602.881 780.651 603.802 784.085C605.645 790.956 608.433 800.279 612.216 810.092C616.001 819.911 620.766 830.181 626.551 838.969C632.347 847.775 639.089 854.971 646.777 858.81C647.518 859.181 647.819 860.082 647.449 860.823C647.079 861.564 646.178 861.865 645.437 861.495C637.076 857.32 629.978 849.631 624.045 840.618C618.1 831.587 613.246 821.102 609.417 811.17C605.586 801.231 602.766 791.803 600.904 784.862C599.973 781.391 599.281 778.538 598.821 776.551C598.591 775.557 598.418 774.779 598.304 774.249C598.246 773.984 598.204 773.78 598.175 773.642C598.16 773.574 598.149 773.521 598.142 773.485C598.138 773.467 598.136 773.454 598.134 773.444C598.133 773.44 598.132 773.436 598.132 773.433C598.131 773.432 598.131 773.431 598.131 773.431C598.131 773.43 598.13 773.429 599.6 773.131L598.131 773.429C597.966 772.617 598.491 771.826 599.303 771.661Z" fill="#17091D"/>
<path d="M632.431 492.331C622.621 504.728 607.623 523.004 599.731 529.273C587.378 539.091 526.167 564.848 502.176 564C478.186 563.153 442.648 546.364 428.057 532C413.465 517.637 382.64 504.728 382.64 504.728C342.085 493.851 349.864 481.517 352.022 477.906L356.676 475.848C356.676 475.848 401.003 484.546 403.183 485.273C405.363 486 474.363 525.52 474.363 525.52L521.597 540.429L572.031 520.771L616.812 485.637C616.812 485.637 623.283 488.364 632.431 492.331Z" fill="#9C398C"/>
<path d="M528.507 543.385C514.939 543.266 501.437 541.464 488.312 538.021C483.886 536.88 479.348 535.523 474.817 533.989C462.199 529.705 449.235 523.88 436.304 516.672C413.976 504.284 390.876 493.343 367.147 483.916C364.829 483.009 362.737 481.608 361.014 479.81C359.292 478.012 357.982 475.861 357.175 473.505C356.367 471.149 356.082 468.645 356.339 466.168C356.596 463.691 357.389 461.299 358.663 459.16C359.942 457.032 361.501 454.76 363.303 452.127C366.075 448.087 369.523 443.058 373.476 436.312C375.253 433.283 377.139 430.858 379.079 429.101C381.786 426.654 384.682 425.414 387.694 425.414C396.276 425.414 403.037 435.629 405.261 438.985C405.442 439.261 405.595 439.49 405.715 439.665C407.484 442.21 418.962 452.2 423.344 455.92C443.371 469.01 481.677 493.967 483.904 495.192C486.869 496.84 492.232 500.21 500.963 506.909C505.034 510.043 509.824 512.107 514.897 512.912H514.933C522.65 514.122 530.538 512.367 537.016 508L537.056 507.967C539.15 506.541 541.061 504.863 542.746 502.97L542.917 502.774L542.993 502.687C551.521 493.025 580.235 464.323 588.112 458.898C589.598 457.872 589.801 456.93 589.823 456.309C589.976 452.309 582.502 446.287 578.037 442.68C577.452 442.207 576.896 441.76 576.384 441.338C573.771 439.192 573.942 437.301 574.276 436.363C575.003 434.312 577.612 433.181 581.605 433.181C586.88 433.181 593.522 435.174 599.829 438.636C605.192 441.589 610.254 448.24 614.871 458.41C620.322 470.432 623.621 483.989 624.496 487.865C624.674 488.658 624.765 489.09 624.765 489.09C624.815 489.33 624.81 489.578 624.751 489.815C624.692 490.052 624.58 490.273 624.423 490.461C612.797 504.552 592.476 519.156 568.728 530.534C565.487 532.087 562.243 533.545 559.089 534.872C546.201 540.29 535.16 543.396 528.794 543.396L528.507 543.385Z" fill="#CE44A2"/>
<path d="M387.697 427.047C396.076 427.047 402.827 438.353 404.374 440.593C406.667 443.909 422.37 457.233 422.37 457.233C422.37 457.233 480.246 495.051 483.116 496.633C486.557 498.545 491.985 502.087 499.975 508.218C504.265 511.522 509.314 513.697 514.661 514.545H514.686C522.827 515.823 531.15 513.96 537.972 509.335C540.179 507.823 542.191 506.045 543.963 504.04C544.043 503.945 544.127 503.855 544.207 503.764C552.277 494.618 581.191 465.636 589.024 460.24C596.858 454.844 583.734 445.273 577.397 440.073C573.859 437.164 576.144 434.815 581.583 434.811C585.87 434.811 592.12 436.265 599.023 440.073C604.807 443.255 609.611 450.818 613.367 459.091C618.745 470.935 621.982 484.236 622.887 488.222C623.061 488.993 623.148 489.415 623.148 489.415C609.999 505.32 587.981 519.484 568.005 529.051C564.735 530.611 561.542 532.051 558.439 533.356C545.791 538.673 534.822 541.753 528.776 541.753H528.515C515.088 541.621 501.728 539.837 488.737 536.44C484.508 535.349 480.046 534.029 475.359 532.44C463.914 528.556 451.125 523.051 437.1 515.244C414.712 502.814 391.546 491.842 367.747 482.396C365.65 481.576 363.757 480.309 362.199 478.682C360.641 477.056 359.455 475.109 358.725 472.978C357.994 470.847 357.736 468.582 357.968 466.341C358.201 464.1 358.918 461.936 360.07 460C363.281 454.651 368.361 448.28 374.89 437.135C376.659 434.116 378.429 431.891 380.176 430.309C382.76 427.975 385.296 427.036 387.697 427.036M387.697 423.764C384.271 423.764 381.005 425.145 377.989 427.869C375.922 429.756 373.923 432.313 372.074 435.484C368.15 442.182 364.72 447.182 361.966 451.204C360.15 453.858 358.576 456.149 357.272 458.32C355.394 461.43 354.471 465.024 354.616 468.655C354.758 472.311 355.961 475.847 358.078 478.831C360.195 481.814 363.134 484.116 366.537 485.455C390.197 494.855 413.23 505.765 435.494 518.116C448.53 525.389 461.585 531.24 474.291 535.571C478.861 537.12 483.443 538.48 487.905 539.64C501.155 543.116 514.785 544.936 528.482 545.058H528.794C535.367 545.058 546.641 541.905 559.721 536.411C562.904 535.069 566.17 533.6 569.433 532.047C593.388 520.567 613.891 505.807 625.681 491.542C625.993 491.165 626.216 490.722 626.334 490.247C626.452 489.772 626.462 489.276 626.364 488.796C626.364 488.796 626.273 488.353 626.091 487.545C625.201 483.636 621.88 469.945 616.358 457.782C611.591 447.284 606.293 440.378 600.614 437.251C594.074 433.655 587.146 431.589 581.605 431.589C575.221 431.589 573.31 434.262 572.739 435.855C572.354 436.945 571.835 439.756 575.348 442.64C575.861 443.065 576.42 443.516 577.012 443.993C579.479 445.985 582.553 448.469 584.882 450.931C587.93 454.156 588.214 455.753 588.192 456.287C588.192 456.458 588.17 456.916 587.186 457.593C578.8 463.371 549.399 493.025 541.769 501.644L541.696 501.727L541.515 501.935C539.922 503.724 538.116 505.312 536.137 506.662L536.079 506.702C531.252 509.97 525.556 511.712 519.729 511.702C518.212 511.697 516.697 511.576 515.198 511.338H515.151C512.269 510.886 509.472 509.998 506.856 508.705C505.132 507.855 503.495 506.839 501.969 505.669C493.159 498.905 487.719 495.487 484.707 493.818C482.684 492.695 447.56 469.818 424.332 454.651C417.949 449.229 408.466 440.804 407.067 438.778L406.631 438.127C405.541 436.462 403.237 432.996 400.185 429.964C396.087 425.847 391.879 423.782 387.697 423.782V423.764Z" fill="#17091D"/>
<path d="M478.2 526.546C483.618 526.546 488.01 521.417 488.01 515.091C488.01 508.765 483.618 503.637 478.2 503.637C472.782 503.637 468.39 508.765 468.39 515.091C468.39 521.417 472.782 526.546 478.2 526.546Z" fill="#5C2C66"/>
<path d="M486.702 523.894C486.339 521.699 485.679 519.563 484.74 517.545C483.37 514.636 481.151 511.48 478.088 511.862C472.579 512.545 472.173 519.84 474.374 527.829C476.576 535.818 481.623 577.025 481.641 591.149C481.659 605.272 484.184 622.363 480.914 624.545C477.644 626.727 474.065 648.367 486.364 649.843C499.808 651.454 495.927 628.567 494.234 624.389C492.541 620.211 490.535 591.662 490.448 584.48C490.394 580.003 490.128 564.48 489.936 553.385C489.801 545.527 489.064 537.691 487.73 529.945L486.702 523.894Z" fill="#7E4282"/>
<path d="M477.902 510.374C480.055 510.105 481.809 511.114 483.107 512.407C484.233 513.528 485.128 514.967 485.815 516.329L486.097 516.907L486.1 516.914C487.095 519.052 487.794 521.316 488.18 523.643L489.208 529.691C490.554 537.512 491.299 545.425 491.435 553.36L491.743 571.39C491.84 577.219 491.921 582.222 491.948 584.462C491.991 587.997 492.51 596.886 493.233 605.435C493.594 609.704 494.005 613.865 494.428 617.212C494.64 618.887 494.854 620.344 495.064 621.502C495.281 622.696 495.476 623.461 495.624 623.826C496.113 625.034 496.695 627.386 497.093 630.141C497.496 632.923 497.732 636.244 497.47 639.411C497.212 642.541 496.453 645.72 494.7 648.039C492.857 650.476 490.041 651.796 486.185 651.334C482.595 650.903 480.126 648.963 478.573 646.338C477.057 643.775 476.424 640.588 476.301 637.519C476.178 634.433 476.565 631.332 477.203 628.839C477.521 627.594 477.912 626.465 478.353 625.548C478.767 624.69 479.324 623.804 480.082 623.298C480.079 623.3 480.125 623.269 480.203 623.15C480.281 623.029 480.374 622.844 480.467 622.573C480.658 622.023 480.812 621.248 480.918 620.237C481.129 618.219 481.123 615.526 481.011 612.379C480.791 606.183 480.149 598.232 480.14 591.151C480.131 584.187 478.876 570.436 477.337 557.365C475.793 544.262 473.993 532.089 472.928 528.228C471.802 524.14 471.291 520.069 471.862 516.844C472.15 515.22 472.73 513.715 473.737 512.544C474.77 511.343 476.173 510.589 477.902 510.375V510.374ZM480.99 514.533C480.07 513.616 479.182 513.237 478.273 513.35L478.272 513.351C477.247 513.478 476.534 513.892 476.01 514.501C475.461 515.139 475.043 516.085 474.816 517.368C474.357 519.959 474.745 523.53 475.82 527.431C476.958 531.559 478.781 543.985 480.316 557.013C481.855 570.073 483.131 583.987 483.14 591.147C483.149 598.19 483.781 605.846 484.009 612.272C484.122 615.436 484.136 618.308 483.901 620.549C483.784 621.668 483.6 622.698 483.302 623.555C483.015 624.383 482.555 625.254 481.747 625.794C481.747 625.794 481.724 625.809 481.681 625.853C481.638 625.898 481.581 625.964 481.514 626.056C481.378 626.243 481.222 626.505 481.056 626.849C480.724 627.539 480.395 628.471 480.11 629.584C479.541 631.809 479.189 634.619 479.299 637.4C479.411 640.198 479.986 642.834 481.155 644.811C482.288 646.727 483.983 648.048 486.543 648.355L487.067 648.404C489.624 648.578 491.221 647.665 492.306 646.229C493.554 644.579 494.24 642.076 494.48 639.165C494.717 636.289 494.506 633.205 494.125 630.571C493.74 627.91 493.2 625.833 492.843 624.953C492.568 624.272 492.33 623.232 492.113 622.038C491.889 620.806 491.667 619.291 491.452 617.589C491.021 614.184 490.607 609.977 490.244 605.688C489.565 597.658 489.059 589.267 488.962 585.244L488.948 584.499C488.921 582.263 488.841 577.266 488.744 571.44L488.436 553.412C488.303 545.63 487.572 537.87 486.252 530.201V530.197L485.223 524.146L485.222 524.14C484.881 522.081 484.262 520.078 483.382 518.185L483.131 517.668C482.526 516.47 481.805 515.345 480.99 514.533Z" fill="#17091D"/>
<path d="M555.954 527.636C561.371 527.636 565.764 522.507 565.764 516.181C565.764 509.855 561.371 504.727 555.954 504.727C550.536 504.727 546.144 509.855 546.144 516.181C546.144 522.507 550.536 527.636 555.954 527.636Z" fill="#5C2C66"/>
<path d="M569.571 534.072C567.895 527.499 565.017 521.292 561.084 515.767C559.343 513.345 557.723 511.523 556.993 511.901C555.045 512.909 551.844 516.312 555.808 525.52C559.772 534.727 565.578 562.181 565.763 575.727C565.949 589.272 566.461 631.512 564.572 636.21C562.682 640.909 558.682 660.298 567.22 660.967C575.759 661.636 578.753 645.734 576.892 636.967C575.032 628.2 575.192 626.636 575.112 612.141C575.032 597.647 576.344 571.378 574.534 558.109C573.393 549.72 571.242 540.545 569.571 534.072Z" fill="#7E4282"/>
<path d="M556.303 510.571C557.177 510.119 558.017 510.47 558.42 510.692C558.882 510.948 559.324 511.33 559.718 511.722C560.32 512.322 560.976 513.114 561.639 513.991L562.302 514.893L562.306 514.898C566.346 520.572 569.301 526.947 571.023 533.698C572.7 540.19 574.868 549.431 576.02 557.907L576.183 559.211C576.956 565.914 577.057 575.281 576.972 584.68C576.879 594.776 576.572 604.891 576.612 612.134C576.692 626.64 576.535 628.059 578.359 636.656C579.346 641.308 579.043 647.739 577.386 652.96C576.556 655.575 575.349 658.007 573.684 659.765C571.987 661.557 569.777 662.672 567.103 662.463C564.236 662.238 562.486 660.378 561.547 658.036C560.636 655.766 560.399 652.889 560.486 650.055C560.66 644.372 562.165 638.174 563.18 635.651C563.324 635.292 563.511 634.329 563.681 632.667C563.843 631.077 563.975 629.021 564.082 626.617C564.295 621.813 564.403 615.691 564.445 609.277C564.53 596.454 564.356 582.52 564.264 575.748C564.173 569.118 562.697 558.978 560.732 549.296C558.764 539.598 556.347 530.564 554.431 526.113C552.373 521.334 552.07 517.826 552.73 515.263C553.401 512.661 555.01 511.24 556.303 510.571ZM557.235 513.512C556.645 513.942 555.972 514.706 555.636 516.011C555.2 517.703 555.279 520.5 557.185 524.928C559.233 529.685 561.701 538.982 563.673 548.699C565.648 558.432 567.169 568.792 567.264 575.707C567.356 582.48 567.53 596.44 567.445 609.297C567.403 615.723 567.295 621.89 567.079 626.75C566.971 629.179 566.836 631.3 566.665 632.972C566.502 634.571 566.29 635.957 565.963 636.772C565.088 638.947 563.649 644.794 563.485 650.147C563.403 652.83 563.649 655.219 564.331 656.92C564.984 658.549 565.937 659.363 567.338 659.473C568.933 659.598 570.299 658.976 571.506 657.701C572.746 656.392 573.773 654.426 574.526 652.053C576.035 647.299 576.298 641.395 575.425 637.279C573.528 628.342 573.692 626.634 573.612 612.15C573.572 604.899 573.88 594.631 573.972 584.652C574.063 574.603 573.936 564.824 573.048 558.313V558.312C571.919 550.01 569.785 540.902 568.119 534.448L568.117 534.444C566.487 528.052 563.689 522.017 559.865 516.644L559.237 515.79C558.626 514.982 558.069 514.314 557.6 513.848C557.456 513.704 557.335 513.595 557.235 513.512Z" fill="#17091D"/>
<path d="M499.975 508.219C501.668 509.52 503.487 510.65 505.403 511.593C494.03 507.88 474.33 501.091 458.58 493.819C434.963 482.91 406.26 457.091 390.455 444.644C384.246 439.75 381.372 434.673 380.176 430.313C391.781 419.826 402.383 437.71 404.374 440.593C406.667 443.91 422.37 457.233 422.37 457.233C422.37 457.233 479.653 494.546 483.116 496.633C484.333 497.368 491.985 502.088 499.975 508.219Z" fill="#D969BD"/>
<path d="M613.385 459.091C611.664 459.5 609.897 459.684 608.128 459.637C593.082 459.273 588.653 476.728 567.217 492.728C553.214 503.179 543.237 507.546 537.976 509.317C540.18 507.811 542.191 506.038 543.963 504.041C544.043 503.946 544.127 503.855 544.207 503.764C552.276 494.619 581.19 465.637 589.024 460.241C596.857 454.844 583.734 445.273 577.397 440.073C571.061 434.873 583.363 431.455 599.019 440.073C604.825 443.273 609.629 450.819 613.385 459.091Z" fill="#D969BD"/>
</svg>
