<svg width="1000" height="1000" viewBox="0 0 1000 1000" fill="none" xmlns="http://www.w3.org/2000/svg">
<path d="M483.05 507.87C464.237 507.87 441.594 498.746 422.486 483.459C404.08 468.728 392.635 451.274 392.635 437.87C392.635 406.041 422.163 403.408 455.055 403.408C458.325 403.408 461.679 403.434 464.934 403.455C468.255 403.481 471.689 403.506 475.071 403.506C490.506 403.506 506.638 405.812 520.488 409.994C536.529 414.834 548.981 422.023 556.505 430.783C563.659 439.114 566.461 448.783 564.829 459.51C562.806 472.826 553.13 485.132 537.579 494.157C522.367 503.005 502.997 507.87 483.05 507.87Z" fill="#CE44A2"/>
<path d="M455.055 405.044C461.595 405.044 468.339 405.142 475.071 405.142C515.481 405.142 568.993 421.273 563.22 459.273C559.169 485.935 523.46 506.233 483.05 506.233C442.64 506.233 394.27 464.884 394.27 437.87C394.27 407.568 422.323 405.044 455.055 405.044ZM455.055 401.771C436.685 401.771 422.192 402.67 411.176 407.051C404.661 409.644 399.854 413.255 396.482 418.084C392.849 423.295 390.996 429.95 390.996 437.87C390.996 445.008 394.023 453.273 399.745 461.775C405.075 469.699 412.585 477.637 421.462 484.739C430.416 491.925 440.307 497.856 450.863 502.368C462.126 507.095 472.95 509.506 483.047 509.506C503.277 509.506 522.937 504.561 538.408 495.582C554.394 486.306 564.35 473.586 566.45 459.764C568.154 448.535 565.229 438.426 557.73 429.717C550.005 420.717 537.285 413.353 520.946 408.426C506.939 404.201 490.64 401.881 475.05 401.881C471.671 401.881 468.244 401.855 464.927 401.83C461.657 401.808 458.3 401.782 455.037 401.782L455.055 401.771Z" fill="#17091D"/>
<path d="M556.214 472.234C552.167 498.896 523.46 521.143 483.05 521.143C442.64 521.143 394.27 479.794 394.27 452.779C394.27 416.416 434.665 420.052 475.071 420.052C515.478 420.052 561.988 434.234 556.214 472.234Z" fill="#9C398C"/>
<path d="M419.168 421.321C434.543 417.63 455.014 418.551 475.071 418.551C495.405 418.551 517.402 422.114 533.652 430.562C541.789 434.792 548.563 440.288 552.925 447.252C557.305 454.245 559.192 462.622 557.697 472.459C553.501 500.099 523.922 522.643 483.05 522.643C462.387 522.643 439.87 512.101 422.569 498.262C413.902 491.329 406.481 483.519 401.215 475.695C395.965 467.895 392.77 459.951 392.77 452.779C392.77 443.393 395.386 436.41 400.112 431.305C404.809 426.232 411.439 423.176 419.168 421.321ZM395.77 452.779C395.77 459.114 398.62 466.469 403.703 474.02C408.769 481.547 415.967 489.139 424.443 495.919C441.431 509.508 463.303 519.643 483.05 519.643C522.998 519.643 550.833 497.691 554.731 472.008L554.853 471.154C556.011 462.368 554.238 455 550.383 448.845C546.386 442.463 540.088 437.288 532.269 433.223C516.606 425.081 495.144 421.551 475.071 421.551C454.723 421.551 434.792 420.656 419.868 424.238C412.448 426.019 406.454 428.871 402.313 433.343C398.203 437.784 395.77 443.983 395.77 452.779Z" fill="#17091D"/>
<path d="M687.919 986.098C683.243 986.098 677.924 983.887 672.783 981.734C671.028 981.007 669.375 980.316 667.816 979.749C665.36 978.854 663.616 978.44 662.323 978.44C662.109 978.439 661.895 978.453 661.683 978.48C661.057 978.568 660.426 978.613 659.794 978.614C656.186 978.614 652.854 977.116 650.881 974.614C650.078 973.613 649.517 972.44 649.242 971.186C648.967 969.932 648.986 968.631 649.297 967.385C649.326 967.276 649.348 967.167 649.37 967.051C650.423 961.563 653.868 945.233 655.768 939.134C656.444 936.953 655.452 933.916 654.402 930.694C653.068 926.593 651.55 921.942 653.417 917.967C653.526 917.738 653.635 917.52 653.748 917.305C656.858 911.353 665.931 899.825 667.947 897.305C667.849 894.996 667.547 886.593 667.813 877.691C668.456 856.142 671.718 852.709 672.794 851.582C673.188 851.133 673.672 850.772 674.214 850.522C674.755 850.271 675.344 850.137 675.94 850.127C679.327 850.127 688.657 846.971 696.124 844.433C701.21 842.702 706.053 841.065 709.058 840.36C710.487 840.019 711.95 839.844 713.418 839.84C717.415 839.84 720.634 841.2 723.228 842.291C725.139 843.098 726.789 843.796 728.268 843.796C728.779 843.799 729.286 843.708 729.765 843.527C730.031 843.43 730.313 843.379 730.597 843.378C732.958 843.378 734.048 846.487 734.957 851.16C735.632 854.647 736.25 859.487 736.773 865.545C737.587 874.683 737.979 883.927 738.059 885.909C740.127 889.673 756.226 919.803 754.046 941.473C753.388 948.04 751.089 953.243 747.212 956.942L746.968 957.167C745.213 958.785 743.437 960.327 741.678 961.76C737.439 965.259 732.878 968.348 728.057 970.985C718.378 976.189 711.936 976.749 709.614 976.749C709.1 976.753 708.586 976.721 708.077 976.651H707.954C707.778 976.656 707.605 976.685 707.438 976.738C706.264 977.076 704.626 978.236 702.714 979.578C699.528 981.833 695.56 984.64 690.724 985.793C689.804 986.002 688.863 986.105 687.919 986.098Z" fill="#CE44A2"/>
<path d="M713.414 841.472C719.98 841.472 724.151 845.425 728.253 845.425C728.958 845.431 729.659 845.308 730.32 845.061C730.404 845.03 730.492 845.014 730.582 845.014C734.942 845.014 736.446 886.374 736.446 886.374C736.446 886.374 754.66 918.919 752.433 941.327C751.859 947.036 749.962 952.083 746.096 955.77L745.864 955.989C744.086 957.625 742.35 959.13 740.657 960.505C736.501 963.943 732.026 966.975 727.294 969.559C718.915 974.065 712.695 975.13 709.625 975.13C709.192 975.134 708.76 975.107 708.331 975.047C708.211 975.029 708.089 975.021 707.968 975.021C707.64 975.025 707.315 975.075 707.001 975.17C703.368 976.214 697.882 982.421 690.354 984.207C689.559 984.389 688.745 984.478 687.93 984.472C682.026 984.472 674.443 980.447 668.383 978.239C666.094 977.403 664.023 976.832 662.333 976.832C662.044 976.831 661.755 976.85 661.469 976.887C660.916 976.965 660.359 977.004 659.801 977.003C654.107 977.003 649.686 972.836 650.892 967.789C650.925 967.654 650.957 967.516 650.983 967.363C652.142 961.334 655.517 945.469 657.334 939.643C659.15 933.818 651.946 924.981 654.903 918.679C654.998 918.479 655.096 918.279 655.201 918.079C658.598 911.578 669.611 897.847 669.611 897.847C669.611 897.847 667.365 851.767 675.947 851.767C681.899 851.767 701.838 843.734 709.439 841.949C710.749 841.636 712.09 841.478 713.436 841.476M713.436 838.203C711.845 838.209 710.261 838.397 708.713 838.763C705.632 839.49 700.774 841.134 695.633 842.879C688.649 845.247 679.09 848.49 675.973 848.49C675.154 848.498 674.346 848.676 673.601 849.013C672.855 849.351 672.188 849.84 671.642 850.45C669.596 852.603 666.806 857.759 666.214 877.639C665.963 886.039 666.214 893.81 666.323 896.759C663.718 900.054 655.343 910.803 652.334 916.559C652.222 916.77 652.113 916.992 651.971 917.261V917.283C649.831 921.847 651.451 926.825 652.883 931.214C653.809 934.054 654.765 936.985 654.242 938.661C652.323 944.818 648.857 961.243 647.804 966.741C647.804 966.741 647.804 966.763 647.804 966.774C647.804 966.843 647.774 966.919 647.756 967.003C647.382 968.491 647.357 970.045 647.684 971.544C648.01 973.043 648.679 974.446 649.638 975.643C651.92 978.552 655.731 980.265 659.834 980.265C660.543 980.264 661.252 980.214 661.955 980.116C662.092 980.099 662.229 980.09 662.366 980.09C663.456 980.09 665.062 980.487 667.3 981.305C668.822 981.858 670.465 982.541 672.198 983.261C677.488 985.443 682.96 987.73 687.963 987.73C689.033 987.734 690.1 987.612 691.142 987.367C696.301 986.145 700.411 983.236 703.717 980.898C705.345 979.745 707.027 978.552 707.935 978.294H707.993C708.546 978.366 709.103 978.4 709.661 978.396C712.106 978.396 718.872 977.818 728.874 972.439C733.789 969.754 738.438 966.606 742.757 963.039C744.537 961.585 746.34 960.025 748.113 958.392L748.16 958.349L748.374 958.145C752.534 954.178 755.001 948.629 755.699 941.665C756.676 931.847 754.202 919.272 748.342 904.272C745.831 897.849 742.947 891.577 739.705 885.49C739.596 882.879 739.2 874.101 738.43 865.418C737.885 859.305 737.256 854.407 736.57 850.872C736.257 849.068 735.778 847.297 735.138 845.581C734.11 843.036 732.595 841.767 730.611 841.763C730.132 841.764 729.657 841.85 729.208 842.018C728.911 842.129 728.596 842.185 728.278 842.181C727.13 842.181 725.622 841.545 723.875 840.807C721.153 839.658 717.767 838.229 713.44 838.229L713.436 838.203Z" fill="#17091D"/>
<path d="M661.458 976.88C663.275 976.626 665.673 977.244 668.361 978.233C675.29 980.756 684.206 985.655 690.336 984.2C697.86 982.415 703.35 976.2 706.98 975.164C707.41 975.027 707.865 974.984 708.313 975.04C710.613 975.404 717.462 974.829 727.276 969.553C732.009 966.968 736.484 963.936 740.639 960.498C742.335 959.121 744.07 957.616 745.846 955.982L746.078 955.764C749.119 952.811 751.165 947.764 752.415 941.32C754.649 918.913 736.428 886.367 736.428 886.367C736.428 886.367 734.866 843.356 730.302 845.055C724.682 847.153 719.653 839.542 709.411 841.946C701.81 843.731 681.87 851.764 675.919 851.764C667.337 851.764 669.582 897.844 669.582 897.844C669.582 897.844 658.569 911.575 655.172 918.076C655.067 918.276 654.969 918.476 654.874 918.676C657.153 916.593 668.412 906.611 676.7 905.444C685.958 904.142 708.855 903.298 717.07 901.302C725.285 899.306 732.101 910.007 735.018 922.866C736.973 931.451 741.875 942.215 739.473 950.386C738.281 954.451 735.287 957.873 729.234 960.076C728.598 960.309 727.973 960.531 727.367 960.746C718.458 963.855 711.91 965.156 706.704 966.306C701.981 967.346 698.369 968.258 695.077 970.266C689.74 973.538 680.875 979.542 666.737 975.356C662.065 973.971 656.811 971.462 650.921 967.356C650.896 967.509 650.863 967.647 650.831 967.782C649.559 973.313 654.994 977.789 661.458 976.88Z" fill="#9C398C"/>
<path d="M662.403 941.851C662.813 941.131 663.728 940.879 664.448 941.288C671.228 945.144 675.049 950 677.172 953.926C678.231 955.884 678.865 957.606 679.236 958.852C679.422 959.474 679.542 959.979 679.617 960.336C679.655 960.514 679.681 960.656 679.698 960.757C679.707 960.807 679.713 960.847 679.718 960.877C679.72 960.892 679.722 960.904 679.724 960.914C679.724 960.919 679.725 960.922 679.726 960.926C679.726 960.927 679.725 960.929 679.726 960.931L679.727 960.933C679.727 960.933 679.712 960.937 678.24 961.138L679.727 960.935C679.838 961.755 679.264 962.511 678.443 962.623C677.623 962.735 676.866 962.161 676.754 961.34V961.339C676.754 961.337 676.753 961.335 676.753 961.333C676.751 961.32 676.748 961.297 676.742 961.264C676.731 961.198 676.711 961.093 676.682 960.952C676.622 960.67 676.522 960.247 676.361 959.709C676.04 958.633 675.481 957.105 674.533 955.353C672.642 951.856 669.197 947.439 662.966 943.895C662.246 943.486 661.994 942.571 662.403 941.851Z" fill="#17091D"/>
<path d="M670.277 949.11C670.799 948.467 671.743 948.368 672.387 948.889C673.03 949.411 673.128 950.353 672.608 950.997L672.609 950.998C672.608 950.998 672.607 951 672.605 951.003C672.601 951.008 672.594 951.017 672.584 951.029C672.564 951.054 672.533 951.094 672.492 951.147C672.41 951.255 672.286 951.42 672.131 951.637C671.82 952.07 671.382 952.712 670.888 953.526C669.896 955.16 668.689 957.469 667.81 960.179C666.055 965.589 665.641 972.45 670.679 978.874C671.19 979.526 671.076 980.469 670.424 980.98C669.772 981.491 668.83 981.377 668.318 980.725C662.457 973.251 663.014 965.24 664.956 959.253C665.926 956.264 667.248 953.741 668.323 951.97C668.862 951.082 669.343 950.376 669.692 949.888C669.867 949.645 670.009 949.455 670.109 949.324C670.16 949.258 670.199 949.208 670.228 949.172C670.242 949.154 670.254 949.14 670.262 949.13C670.266 949.125 670.269 949.12 670.272 949.117C670.273 949.116 670.274 949.114 670.275 949.113L670.276 949.111C670.28 949.113 670.336 949.158 671.427 950.042L670.277 949.11Z" fill="#17091D"/>
<path d="M701.287 947.864C702.053 947.548 702.929 947.911 703.246 948.677L701.86 949.25C703.241 948.679 703.247 948.676 703.247 948.677V948.678C703.247 948.679 703.248 948.68 703.248 948.682C703.249 948.684 703.251 948.688 703.253 948.692C703.257 948.702 703.263 948.715 703.27 948.732C703.284 948.767 703.305 948.818 703.331 948.884C703.384 949.016 703.461 949.21 703.558 949.458C703.751 949.954 704.023 950.67 704.342 951.56C704.98 953.337 705.808 955.813 706.571 958.605C708.075 964.104 709.416 971.136 708.287 976.442C708.115 977.253 707.318 977.77 706.508 977.598C705.698 977.425 705.181 976.629 705.353 975.818C706.317 971.285 705.177 964.876 703.678 959.396C702.94 956.698 702.137 954.298 701.518 952.573C701.208 951.711 700.946 951.019 700.762 950.545C700.67 950.308 700.596 950.125 700.547 950.003C700.523 949.942 700.505 949.896 700.492 949.866C700.486 949.852 700.481 949.84 700.479 949.833C700.477 949.83 700.475 949.827 700.475 949.825V949.823C700.158 949.058 700.522 948.181 701.287 947.864Z" fill="#17091D"/>
<path d="M724.054 949.211C724.825 948.906 725.696 949.285 726.001 950.055L724.605 950.606C726 950.055 726 950.056 726.001 950.056V950.057C726.001 950.058 726.002 950.059 726.003 950.06C726.004 950.063 726.005 950.067 726.006 950.071C726.01 950.08 726.016 950.093 726.022 950.11C726.035 950.143 726.053 950.191 726.077 950.254C726.124 950.378 726.192 950.559 726.275 950.789C726.442 951.249 726.673 951.909 726.934 952.718C727.455 954.333 728.1 956.557 728.585 958.976C729.068 961.385 729.405 964.048 729.279 966.522C729.154 968.969 728.566 971.439 726.995 973.248C726.451 973.873 725.504 973.939 724.879 973.396C724.253 972.853 724.187 971.906 724.73 971.281C725.665 970.204 726.173 968.524 726.283 966.369C726.391 964.241 726.101 961.85 725.643 959.566C725.187 957.292 724.577 955.184 724.079 953.639C723.83 952.869 723.611 952.242 723.455 951.811C723.377 951.596 723.314 951.429 723.272 951.318C723.251 951.263 723.235 951.221 723.224 951.194C723.219 951.18 723.215 951.17 723.213 951.164C723.212 951.161 723.211 951.159 723.211 951.158L723.21 951.157C722.905 950.386 723.284 949.515 724.054 949.211Z" fill="#17091D"/>
<path d="M738.768 948.705C739.528 948.374 740.411 948.722 740.742 949.482L739.367 950.08C740.742 949.481 740.743 949.482 740.743 949.483V949.484C740.743 949.484 740.745 949.485 740.745 949.486C740.746 949.489 740.747 949.492 740.749 949.495C740.752 949.502 740.756 949.512 740.761 949.524C740.771 949.547 740.784 949.58 740.802 949.622C740.836 949.706 740.884 949.826 740.942 949.978C741.058 950.28 741.216 950.712 741.386 951.241C741.723 952.296 742.117 953.766 742.329 955.396C742.74 958.558 742.523 962.855 739.14 965.57C738.493 966.089 737.55 965.985 737.031 965.339C736.513 964.693 736.617 963.749 737.263 963.231C739.366 961.542 739.731 958.679 739.354 955.782C739.172 954.383 738.829 953.097 738.528 952.155C738.378 951.687 738.24 951.31 738.141 951.053C738.092 950.925 738.053 950.826 738.027 950.763C738.014 950.731 738.005 950.708 737.999 950.694L737.991 950.678H737.992C737.662 949.919 738.009 949.036 738.768 948.705Z" fill="#17091D"/>
<path d="M690.75 969.817C693.358 969.817 695.473 965.177 695.473 959.453C695.473 953.73 693.358 949.09 690.75 949.09C688.141 949.09 686.026 953.73 686.026 959.453C686.026 965.177 688.141 969.817 690.75 969.817Z" fill="#D969BD"/>
<path d="M716.568 959.681C719.095 959.034 720.237 954.961 719.118 950.583C717.999 946.206 715.043 943.181 712.515 943.828C709.988 944.475 708.847 948.549 709.966 952.927C711.085 957.304 714.04 960.329 716.568 959.681Z" fill="#D969BD"/>
<path d="M732.667 952.194C734.85 951.635 735.987 948.706 735.206 945.651C734.426 942.597 732.023 940.573 729.84 941.132C727.656 941.691 726.52 944.621 727.301 947.676C728.081 950.73 730.484 952.753 732.667 952.194Z" fill="#D969BD"/>
<path d="M658.712 881.454C658.561 881.455 658.41 881.434 658.265 881.392C657.946 881.301 657.662 881.116 657.451 880.86C657.24 880.604 657.112 880.29 657.084 879.959C656.547 873.726 651.943 818.817 655.9 810.505C658.723 804.585 650.087 781.908 646.399 772.225C645.345 769.457 644.582 767.457 644.251 766.363C642.584 760.908 636.323 692.621 636.058 689.716C636.051 689.626 636.051 689.536 636.058 689.446C636.12 688.621 642.289 606.828 644.96 572.81C645.984 559.719 646.152 558.166 646.199 557.865C646.355 555.49 643.714 521.632 641.89 499.385C641.859 499.023 641.949 498.662 642.146 498.357C642.342 498.053 642.635 497.822 642.977 497.702C643.318 497.582 643.69 497.578 644.034 497.693C644.378 497.807 644.674 498.033 644.876 498.334C646.926 501.366 695.147 572.941 701.705 602.723C708.503 633.588 720.17 683.323 722.172 689.963C723.734 695.148 724.185 700.446 724.581 705.119C724.726 706.825 724.861 708.432 725.042 709.985C725.427 713.297 728.894 717.221 732.247 721.014C734.274 723.312 736.375 725.686 737.875 728.021C741.098 733.036 743.827 757.77 746.348 782.679C746.711 786.276 747.024 789.385 747.26 791.472C748.623 803.566 748.964 857.654 748.979 859.945C748.98 860.16 748.939 860.374 748.857 860.574C748.776 860.773 748.655 860.955 748.503 861.107C748.351 861.26 748.171 861.381 747.972 861.464C747.772 861.546 747.559 861.589 747.344 861.588H747.293C745.738 861.588 708.867 861.672 682.71 868.839C671.211 871.992 663.581 876.006 660.027 880.777C659.877 880.986 659.679 881.155 659.45 881.273C659.222 881.39 658.969 881.452 658.712 881.454Z" fill="#CE44A2"/>
<path d="M643.517 499.273C643.517 499.273 693.537 573.276 700.106 603.095C706.675 632.913 718.545 683.636 720.602 690.458C722.658 697.28 722.717 704.207 723.414 710.196C724.112 716.185 732.53 722.764 736.494 728.927C740.458 735.091 744.255 779.531 745.628 791.676C747.002 803.822 747.336 859.975 747.336 859.975H747.285C745.73 859.975 708.659 860.051 682.27 867.284C671.734 870.171 662.894 874.193 658.708 879.822C658.708 879.822 653.491 819.364 657.371 811.229C661.251 803.095 647.445 771.265 645.81 765.905C644.175 760.545 637.704 689.589 637.704 689.589C637.704 689.589 643.902 607.367 646.605 572.96C647.292 564.182 647.757 558.516 647.83 558.124C648.175 556.185 643.517 499.273 643.517 499.273ZM643.517 496C643.146 496 642.777 496.063 642.427 496.185C641.744 496.424 641.16 496.883 640.766 497.49C640.371 498.096 640.189 498.817 640.247 499.538C641.962 520.516 644.636 554.709 644.553 557.76C644.473 558.393 644.247 560.811 643.317 572.705C640.643 606.724 634.477 688.524 634.416 689.345C634.399 689.527 634.399 689.709 634.416 689.891C635.084 697.185 640.988 761.345 642.671 766.862C643.034 768.011 643.793 770.033 644.851 772.833C646.922 778.287 650.057 786.498 652.244 794.058C655.634 805.775 654.751 809.084 654.403 809.822C653.636 811.429 652.742 814.647 652.655 825.353C652.604 831.444 652.822 839.313 653.302 848.745C654.112 864.745 655.42 879.953 655.431 880.105C655.488 880.767 655.744 881.396 656.166 881.908C656.589 882.421 657.157 882.792 657.795 882.974C658.433 883.155 659.112 883.138 659.74 882.925C660.369 882.711 660.917 882.311 661.313 881.778C664.583 877.371 672.133 873.451 683.113 870.444C709.059 863.331 745.716 863.247 747.263 863.247H747.314C748.181 863.247 749.013 862.902 749.626 862.289C750.24 861.675 750.584 860.843 750.584 859.975C750.584 857.676 750.221 803.509 748.855 791.331C748.622 789.251 748.306 786.149 747.943 782.556C744.767 751.131 742.322 732.011 739.223 727.178C737.65 724.735 735.509 722.313 733.442 719.971C730.405 716.535 726.964 712.64 726.637 709.836C726.459 708.309 726.324 706.713 726.179 705.022C725.776 700.269 725.318 694.88 723.708 689.531C721.757 683.065 709.902 632.585 703.275 602.411C700.473 589.684 689.995 568.142 672.126 538.338C658.908 516.287 646.329 497.644 646.199 497.458C645.901 497.012 645.498 496.647 645.026 496.393C644.554 496.139 644.027 496.006 643.492 496.004L643.517 496Z" fill="#17091D"/>
<path d="M705.219 743.459C692.139 747.095 679.709 741.335 675.567 759.488C671.425 777.641 676.217 807.506 681.09 813.848C683.292 816.71 682.347 868.194 682.147 873.823C671.61 876.71 660.899 882.383 656.714 888.005C656.714 888.005 653.495 819.365 657.375 811.23C661.255 803.095 647.449 771.266 645.814 765.906C644.179 760.546 637.704 689.59 637.704 689.59C637.704 689.59 643.903 607.368 646.606 572.961L651.147 509.092C651.147 509.092 678.281 627.91 676.581 651.637C674.88 675.365 644.709 728.837 668.787 725.055C692.865 721.274 707.428 714.917 703.053 722.645C698.679 730.372 686.79 727.372 681.057 732.732C675.324 738.092 694.62 732.732 706.458 734.099C718.295 735.466 718.299 739.823 705.219 743.459Z" fill="#9C398C"/>
<path d="M644.008 751.701C648.005 749.156 652.023 746.69 656.056 744.236C660.089 741.781 664.144 739.36 668.22 736.963C672.297 734.567 676.417 732.258 680.574 730.007L683.72 728.349C684.77 727.8 685.846 727.283 686.907 726.749L687.706 726.352L688.52 725.989L690.155 725.243C690.427 725.123 690.693 724.989 690.976 724.88L691.823 724.545L693.512 723.876C693.805 723.768 694.128 723.777 694.415 723.9C694.702 724.023 694.93 724.251 695.054 724.538C695.178 724.825 695.187 725.148 695.08 725.442C694.973 725.735 694.758 725.976 694.478 726.116L694.388 726.16L692.836 726.887L692.062 727.25C691.804 727.37 691.55 727.52 691.292 727.65L689.759 728.465L688.992 728.872L688.236 729.309C687.226 729.894 686.213 730.458 685.21 731.058L682.212 732.876C678.216 735.341 674.303 737.894 670.393 740.49C666.484 743.087 662.614 745.738 658.766 748.414C654.919 751.09 651.064 753.8 647.267 756.527C646.641 756.977 645.861 757.159 645.101 757.034C644.34 756.909 643.66 756.486 643.21 755.86C642.761 755.233 642.578 754.453 642.704 753.691C642.829 752.93 643.251 752.249 643.877 751.8L644.008 751.701Z" fill="#17091D"/>
<path d="M710.762 730.136H710.865C710.866 730.136 710.866 730.154 710.85 731.636L710.866 730.136C711.694 730.145 712.359 730.824 712.35 731.652C712.341 732.429 711.744 733.062 710.986 733.13L710.833 733.136H710.746C710.686 733.135 710.595 733.135 710.475 733.135C710.234 733.135 709.876 733.137 709.415 733.144C708.492 733.157 707.154 733.189 705.502 733.265C702.195 733.417 697.641 733.743 692.647 734.439C682.565 735.846 671.047 738.718 664.215 744.424C663.579 744.955 662.633 744.869 662.102 744.233C661.571 743.598 661.656 742.652 662.291 742.121C669.828 735.827 682.109 732.881 692.232 731.469C697.341 730.756 701.992 730.424 705.364 730.269C707.051 730.191 708.422 730.157 709.372 730.144C709.847 730.137 710.218 730.135 710.472 730.135C710.598 730.135 710.695 730.135 710.762 730.136Z" fill="#17091D"/>
<path d="M670.236 743.465C679.828 736.876 682.855 739.632 672.108 746.29L672.006 746.345C665.346 749.385 659.464 753.618 653.174 757.188C652.976 757.3 652.744 757.336 652.521 757.291C652.298 757.247 652.099 757.123 651.959 756.944C651.819 756.765 651.747 756.541 651.758 756.314C651.768 756.087 651.859 755.871 652.015 755.705C656.233 751.348 666.338 746.327 670.236 743.465Z" fill="#5C2C66"/>
<path d="M660.787 895.723C659.565 895.729 658.369 895.375 657.348 894.705C656.326 894.035 655.525 893.079 655.042 891.956C653.542 888.432 652.997 884.279 652.808 881.41C652.689 879.71 652.985 878.007 653.671 876.448C654.356 874.888 655.411 873.518 656.743 872.457C661.328 868.821 670.273 865.057 681.925 861.836C697.723 857.472 714.117 854.963 726.906 854.963C739.23 854.963 747.725 857.185 752.147 861.559C759.61 868.945 754.403 877.901 752.692 880.832C751.741 882.46 750.38 883.811 748.744 884.749C747.109 885.687 745.257 886.179 743.372 886.177C742.816 886.177 742.261 886.134 741.712 886.05C737.034 885.368 732.312 885.042 727.585 885.076C701.967 885.076 671.269 893.032 662.472 895.472C661.924 895.632 661.357 895.716 660.787 895.723Z" fill="#CE44A2"/>
<path d="M726.906 856.607C737.77 856.607 746.628 858.407 750.999 862.73C757.222 868.887 753.411 876.359 751.278 880.028C750.47 881.409 749.316 882.554 747.929 883.35C746.542 884.145 744.971 884.563 743.372 884.563C742.9 884.564 742.429 884.528 741.962 884.454C737.202 883.759 732.396 883.427 727.585 883.461C702.039 883.461 671.919 891.178 662.036 893.916C660.961 894.217 659.814 894.119 658.805 893.64C657.797 893.162 656.995 892.335 656.546 891.312C655.133 887.996 654.621 884.039 654.439 881.309C654.339 879.873 654.589 878.435 655.167 877.118C655.745 875.8 656.633 874.643 657.756 873.745C662.425 870.054 671.563 866.407 682.361 863.418C697.163 859.33 713.55 856.607 726.906 856.607ZM726.906 853.334C713.975 853.334 697.421 855.861 681.489 860.265C673.1 862.585 661.822 866.363 655.729 871.174C654.189 872.401 652.97 873.984 652.177 875.786C651.384 877.589 651.041 879.558 651.176 881.523C651.376 884.512 651.947 888.858 653.538 892.596C654.3 894.346 655.667 895.762 657.388 896.584C659.11 897.406 661.07 897.578 662.908 897.068C671.657 894.643 702.177 886.73 727.582 886.73C732.225 886.696 736.863 887.016 741.457 887.687C743.181 887.952 744.941 887.854 746.624 887.399C748.186 886.984 749.651 886.264 750.934 885.28C752.217 884.297 753.293 883.069 754.101 881.669C755.417 879.407 757.008 876.345 757.506 872.774C758.174 868.069 756.721 863.789 753.295 860.41C748.553 855.719 739.673 853.341 726.906 853.341V853.334Z" fill="#17091D"/>
<path d="M745.774 884.243C744.532 884.579 743.233 884.651 741.962 884.454C714.69 880.225 673.866 890.636 662.029 893.908C660.954 894.211 659.806 894.115 658.796 893.636C657.787 893.158 656.985 892.329 656.539 891.305C655.126 887.988 654.613 884.032 654.432 881.301C654.332 879.866 654.581 878.428 655.159 877.11C655.737 875.793 656.626 874.635 657.749 873.737C662.418 870.047 671.555 866.399 682.354 863.41C682.354 863.41 678.571 874.657 682.354 878.054C686.136 881.45 704.481 879.268 713.655 879.814C720.137 880.199 731.822 880.857 738.136 881.21C740.94 881.367 743.617 882.428 745.766 884.236L745.774 884.243Z" fill="#9C398C"/>
<path d="M745.857 864.457C746.593 864.73 747.258 865.166 747.802 865.733C748.346 866.3 748.754 866.983 748.996 867.73C749.545 869.46 749.52 871.321 748.925 873.036C748.329 874.75 747.196 876.226 745.693 877.243C745.041 877.686 744.297 877.976 743.517 878.092C742.737 878.208 741.941 878.146 741.188 877.912C740.451 877.64 739.786 877.204 739.242 876.637C738.698 876.07 738.29 875.387 738.049 874.639C737.5 872.909 737.526 871.047 738.121 869.332C738.716 867.617 739.849 866.141 741.352 865.123C742.004 864.68 742.748 864.39 743.528 864.275C744.308 864.16 745.104 864.222 745.857 864.457ZM745.159 866.01C744.617 865.867 744.048 865.851 743.498 865.965C742.949 866.079 742.433 866.318 741.991 866.665C740.919 867.473 740.132 868.603 739.746 869.89C739.326 871.161 739.326 872.532 739.746 873.803C739.91 874.335 740.198 874.822 740.585 875.222C740.973 875.622 741.45 875.924 741.977 876.105C742.519 876.248 743.088 876.263 743.637 876.15C744.187 876.036 744.703 875.797 745.145 875.45C746.217 874.641 747.005 873.511 747.394 872.225C747.814 870.956 747.814 869.585 747.394 868.316C747.23 867.782 746.942 867.295 746.553 866.894C746.165 866.493 745.687 866.191 745.159 866.01Z" fill="#5C2C66"/>
<path d="M747.379 872.226C748.259 869.437 747.267 866.655 745.159 866.011C743.052 865.367 740.625 867.102 739.746 869.891C738.867 872.68 739.855 875.462 741.962 876.106C744.069 876.749 746.497 875.011 747.379 872.226Z" fill="#D969BD"/>
<path d="M521.927 940.483C518.446 940.483 514.875 940.436 511.318 940.349C432.972 938.44 359.753 915.931 359.026 915.705C358.615 915.579 358.27 915.296 358.066 914.917C357.862 914.537 357.815 914.093 357.936 913.68C357.98 913.531 362.275 897.942 353.576 863.363C345.601 831.676 348.388 826.116 352.606 817.702C353.184 816.549 353.78 815.356 354.376 814.032C359.074 803.571 359.582 753.985 357.609 737.803C355.647 721.705 358.852 673.465 359.019 670.938C359.048 669.702 359.072 668.475 359.092 667.258C360.302 589.44 341.561 547.414 325.625 525.88C308.436 502.651 290.745 497.64 290.567 497.592C290.24 497.503 289.949 497.314 289.734 497.052C289.519 496.791 289.39 496.468 289.366 496.13C289.341 495.792 289.422 495.455 289.596 495.164C289.771 494.874 290.032 494.645 290.342 494.509C321.2 481.149 352.512 463.425 368.429 454.047C376.423 449.32 381.317 446.276 381.364 446.247C381.624 446.082 381.925 445.995 382.232 445.996C382.345 445.995 382.457 446.008 382.567 446.032L410.235 451.851C410.63 451.934 410.981 452.161 411.219 452.487C411.372 452.702 426.89 473.942 447.276 493.447C465.944 511.312 482.545 522.036 496.613 525.327C497.827 525.618 499.055 525.851 500.276 526.022H500.334H500.443C500.47 526.02 500.496 526.02 500.523 526.022C501.577 526.171 502.648 526.272 503.717 526.327C504.127 526.345 504.541 526.356 504.952 526.356C511.626 526.356 518.224 523.756 525.124 518.411C536.388 509.709 545.954 495.472 553.657 484.032C555.724 480.96 557.682 478.054 559.499 475.509C564.026 469.171 567.758 464.963 571.249 464.963C572.095 464.965 572.921 465.218 573.622 465.691C574.011 465.949 574.41 466.203 574.814 466.458C596.734 480.331 641.885 495.625 642.339 495.782C642.58 495.863 642.799 495.998 642.979 496.178C651.579 504.876 653.672 536.974 654.155 555.334C654.809 580.247 653.265 608.309 650.565 620.611C646.136 640.778 641.969 700.065 638.473 755.4C638.204 759.662 637.946 763.818 637.692 767.829L637.612 769.123C634.793 814.178 640.682 826.803 645.878 837.945C646.499 839.272 647.139 840.643 647.742 842.029C652.785 853.574 644.541 865.574 639.614 872.745C638.695 874.087 637.899 875.243 637.394 876.113C635.276 879.771 637.031 902.076 638.633 915.28C638.673 915.61 638.611 915.944 638.457 916.238C638.302 916.532 638.062 916.773 637.768 916.927C610.766 931.08 576.122 938.931 534.796 940.258C530.589 940.411 526.258 940.483 521.927 940.483Z" fill="#CE44A2"/>
<path d="M382.229 447.636L384.391 448.091L398.535 451.069L409.893 453.454C409.893 453.454 425.404 474.785 446.143 494.632C461.381 509.214 479.439 522.996 496.239 526.923C497.515 527.229 498.783 527.469 500.043 527.651L500.29 527.683C501.412 527.843 502.526 527.95 503.633 528.003C504.073 528.025 504.512 528.036 504.948 528.036C512.578 528.036 519.634 524.763 526.12 519.749C540.628 508.523 552.254 488.501 560.825 476.505C565.051 470.592 568.532 466.629 571.246 466.629C571.771 466.628 572.285 466.785 572.721 467.08C573.117 467.341 573.524 467.603 573.938 467.865C596.276 482 641.812 497.352 641.812 497.352C655.732 511.421 654.053 597.091 648.966 620.276C644.319 641.451 639.981 705.607 636.842 755.316C636.544 760.043 636.257 764.629 635.981 769.04C632.798 819.894 640.613 829.818 646.245 842.702C651.877 855.585 639.16 869.818 635.981 875.312C632.802 880.807 637.009 915.494 637.009 915.494C607.19 931.131 571.002 937.476 534.745 938.64C530.47 938.778 526.199 938.847 521.931 938.847C518.399 938.847 514.876 938.802 511.361 938.712C432.336 936.789 359.51 914.141 359.51 914.141C359.51 914.141 364.117 898.545 355.15 862.963C346.183 827.381 351.033 825.454 355.862 814.705C360.691 803.956 361.206 753.818 359.23 737.607C357.253 721.396 360.651 671.014 360.651 671.014C360.68 669.761 360.704 668.517 360.723 667.283C363.089 515.283 290.989 496.011 290.989 496.011C321.57 482.771 352.421 465.374 369.254 455.458C377.371 450.676 382.229 447.636 382.229 447.636ZM382.229 444.363C381.615 444.364 381.013 444.536 380.492 444.861C380.445 444.891 375.573 447.941 367.594 452.64C351.713 462 320.47 479.687 289.692 493.003C289.062 493.27 288.532 493.727 288.176 494.311C287.82 494.894 287.655 495.575 287.705 496.257C287.755 496.939 288.018 497.588 288.455 498.114C288.893 498.639 289.484 499.013 290.146 499.185C290.178 499.185 294.535 500.418 300.919 504.454C306.812 508.181 315.688 515.141 324.499 527.123C340.195 548.465 358.652 590.094 357.453 667.243C357.453 668.334 357.417 669.476 357.384 670.88C357.188 673.811 354.012 721.84 355.985 738.018C358.1 755.36 357.13 803.912 352.879 813.378C352.298 814.669 351.709 815.847 351.138 816.981C349.075 821.109 347.12 825.003 346.898 831.963C346.669 839.069 348.239 848.88 351.985 863.778C356.458 881.549 357.41 894.061 357.435 901.425C357.435 909.389 356.389 913.207 356.381 913.247C356.139 914.071 356.232 914.958 356.64 915.713C357.049 916.469 357.739 917.032 358.561 917.28C358.743 917.338 377.237 923.058 405.152 928.916C430.908 934.331 470.236 940.992 511.303 942.007C514.875 942.094 518.457 942.141 521.952 942.141C526.312 942.141 530.651 942.069 534.872 941.931C576.445 940.6 611.329 932.687 638.55 918.414C639.137 918.105 639.617 917.625 639.926 917.036C640.234 916.448 640.356 915.779 640.275 915.12C640.275 915.036 639.236 906.505 638.593 897.396C637.387 880.258 638.684 877.254 638.837 876.971C639.305 876.156 640.083 875.025 640.984 873.698C643.393 870.192 646.692 865.392 648.825 859.945C651.502 853.109 651.651 846.854 649.264 841.4C648.65 839.996 648.007 838.614 647.382 837.28C642.27 826.316 636.482 813.887 639.265 769.251L639.363 767.691C639.611 763.763 639.865 759.691 640.127 755.531C643.618 700.258 647.778 641.047 652.182 620.985C654.907 608.574 656.466 580.341 655.815 555.316C655.452 541.116 654.391 528.454 652.774 518.705C650.769 506.618 647.953 498.883 644.167 495.069C643.808 494.705 643.368 494.432 642.884 494.269C642.434 494.116 597.468 478.876 575.715 465.116C575.286 464.847 574.905 464.6 574.552 464.367C573.584 463.719 572.446 463.374 571.282 463.374C567.078 463.374 563.162 467.68 558.202 474.621C556.385 477.167 554.409 480.098 552.331 483.181C544.701 494.523 535.192 508.636 524.158 517.178C517.552 522.294 511.281 524.781 504.985 524.781C504.6 524.781 504.214 524.781 503.829 524.752C502.816 524.701 501.791 524.603 500.788 524.461H500.625H500.537C499.368 524.294 498.19 524.072 497.035 523.796C483.228 520.571 466.878 509.978 448.439 492.323C428.165 472.92 412.727 451.792 412.575 451.596C412.096 450.942 411.394 450.487 410.602 450.32L399.244 447.931L385.099 444.952L382.937 444.498C382.716 444.451 382.491 444.428 382.265 444.429L382.229 444.363Z" fill="#17091D"/>
<path d="M637.005 915.494C607.186 931.131 570.998 937.476 534.741 938.64C526.926 938.894 519.118 938.905 511.357 938.713C432.332 936.789 359.506 914.142 359.506 914.142C359.506 914.142 364.113 898.545 355.146 862.963C346.179 827.382 351.033 825.454 355.862 814.705C360.69 803.956 361.206 753.818 359.23 737.607C357.253 721.396 360.65 671.014 360.65 671.014C360.679 669.76 360.825 661.233 360.843 660C362.5 653.563 364.778 651.411 367.891 638.789C374.468 612.182 381.807 603.233 380.499 619.345C379.667 629.578 375.627 656.138 374.279 683.378C372.937 710.265 377.656 737.109 388.086 761.923C393.129 773.902 399.505 787.094 406.812 797.993C425.342 825.629 394.458 812.902 387.918 827.811C381.378 842.72 407.902 878.505 492.195 880.429C501.225 880.635 509.732 880.776 517.716 880.851C527.698 880.938 536.902 880.91 545.329 880.767C593.336 879.92 617.531 874.996 626.621 863.265C638.611 847.811 648.152 856.156 639.014 836.356C629.877 816.556 626.97 794 630.24 779.454C631.784 772.589 634.444 763.258 636.824 755.316C636.526 760.043 636.239 764.629 635.962 769.04C632.78 819.894 640.595 829.818 646.227 842.702C651.858 855.585 639.142 869.818 635.962 875.313C632.783 880.807 637.005 915.494 637.005 915.494Z" fill="#9C398C"/>
<path d="M349.58 993.519C345.282 993.519 341.252 992.275 338.015 991.271C335.868 990.61 334.018 990.035 332.779 990.035H332.652C332.439 990.033 332.228 990.074 332.031 990.155C330.305 991.024 326.581 991.944 321.334 991.944C317.974 991.924 314.622 991.607 311.317 990.999H311.274C305.865 989.993 300.564 988.473 295.443 986.461C293.329 985.65 291.16 984.737 288.998 983.751L288.678 983.599C283.853 981.297 280.053 977.053 277.389 971.031C268.698 951.315 274.41 918.173 275.3 913.388C274.592 911.879 272.372 907.093 270.341 901.951C265.734 890.279 266.017 886.864 266.635 885.308C266.775 884.914 266.999 884.555 267.289 884.254C267.58 883.954 267.932 883.719 268.321 883.566C270.137 882.861 272.125 882.068 274.221 881.228C286.829 876.181 304.098 869.271 317.966 869.271C322.214 869.271 325.96 869.922 329.113 871.213C329.281 871.282 329.451 871.362 329.629 871.453C330.071 871.677 330.49 871.941 330.883 872.242C338.073 877.635 344.377 898.377 345.507 902.25C348.199 904.024 360.404 912.17 365.225 916.861C365.4 917.031 365.57 917.224 365.734 917.381C366.144 917.817 366.53 918.275 366.893 918.748C369.011 921.522 370.01 924.519 370.977 927.421C371.791 929.871 372.564 932.184 373.956 934.148C376.063 937.111 378.265 943.966 380.391 950.595C381.96 955.475 383.577 960.519 384.823 962.77L384.998 963.071C385.744 964.25 386.181 965.598 386.269 966.99C386.358 968.383 386.094 969.775 385.503 971.039C384.02 974.351 380.721 976.759 376.674 977.482C374.97 977.788 372.761 979.406 371.224 980.595C369.919 981.621 368.561 982.777 367.122 984.028C362.228 988.231 356.68 992.999 351.32 993.446C350.772 993.493 350.172 993.519 349.58 993.519Z" fill="#CE44A2"/>
<path d="M317.97 870.908C321.81 870.908 325.375 871.45 328.507 872.726C328.63 872.777 328.761 872.839 328.895 872.908C329.253 873.09 329.594 873.304 329.913 873.548C337.332 879.115 344.13 903.272 344.13 903.272C344.13 903.272 358.859 912.897 364.113 918.021C364.273 918.177 364.429 918.337 364.582 918.497C364.945 918.901 365.309 919.312 365.625 919.73C369.342 924.599 369.425 930.537 372.655 935.083C376.19 940.054 380.452 958.181 383.424 963.552C383.497 963.686 383.57 963.81 383.642 963.915C386.618 968.763 382.843 974.705 376.416 975.854C374.599 976.177 372.524 977.515 370.264 979.29C364.451 983.843 357.508 991.29 351.233 991.795C350.684 991.843 350.143 991.865 349.591 991.865C342.644 991.865 336.336 988.381 332.79 988.381H332.605C332.154 988.384 331.709 988.486 331.301 988.679C329.934 989.363 326.577 990.29 321.345 990.29C318.068 990.269 314.798 989.959 311.575 989.363C306.274 988.377 301.079 986.887 296.061 984.912C294.026 984.131 291.909 983.24 289.71 982.239L289.423 982.105C284.605 979.803 281.233 975.595 278.915 970.345C269.832 949.745 277.037 913.145 277.037 913.145C277.037 913.145 264.378 886.846 268.92 885.09C281.782 880.115 302.172 870.908 317.97 870.908ZM317.97 867.635C303.8 867.635 286.36 874.617 273.614 879.712C271.525 880.552 269.548 881.341 267.735 882.043C267.138 882.279 266.596 882.638 266.146 883.097C265.695 883.555 265.346 884.103 265.119 884.705C264.295 886.795 264.088 890.548 268.829 902.555C270.718 907.345 272.724 911.723 273.603 913.614C272.443 920.313 271.668 927.073 271.282 933.861C270.366 949.941 271.921 962.668 275.899 971.679C278.726 978.083 282.803 982.588 287.988 985.068L288.3 985.214H288.325C290.505 986.214 292.715 987.137 294.865 987.963C300.078 990.008 305.472 991.555 310.976 992.581H311.041C314.434 993.201 317.874 993.524 321.323 993.545C325.967 993.545 330.185 992.835 332.641 991.639H332.768C333.753 991.639 335.584 992.203 337.521 992.803C340.863 993.835 345.024 995.119 349.569 995.119C350.216 995.119 350.859 995.094 351.484 995.043C357.37 994.548 363.11 989.588 368.197 985.225C369.625 983.999 370.969 982.843 372.245 981.839C374.377 980.166 375.965 979.228 376.968 979.05C381.542 978.232 385.292 975.472 386.996 971.665C387.688 970.158 387.996 968.504 387.892 966.849C387.788 965.195 387.275 963.592 386.4 962.185V962.163C386.36 962.094 386.32 962.032 386.287 961.966C386.288 961.957 386.288 961.947 386.287 961.937C385.121 959.825 383.526 954.857 381.982 950.05C379.718 942.992 377.578 936.326 375.322 933.155C374.072 931.395 373.338 929.192 372.561 926.857C371.598 923.974 370.508 920.701 368.226 917.712C367.83 917.195 367.409 916.697 366.973 916.228L366.951 916.206C366.751 915.999 366.587 915.817 366.402 915.65C361.744 911.105 350.415 903.479 346.938 901.17C346.31 899.057 344.856 894.385 342.865 889.272C339.105 879.621 335.519 873.606 331.896 870.89C331.425 870.532 330.923 870.217 330.396 869.948C330.181 869.839 329.974 869.741 329.778 869.661C326.421 868.286 322.464 867.592 318.006 867.592L317.97 867.635Z" fill="#17091D"/>
<path d="M376.397 975.875C374.58 976.199 372.506 977.537 370.246 979.312C364.432 983.864 357.489 991.312 351.214 991.817C343.504 992.461 336.361 988.268 332.586 988.406C332.135 988.41 331.69 988.511 331.282 988.704C329.204 989.748 322.518 991.348 311.557 989.388C306.255 988.402 301.06 986.912 296.042 984.937C294.008 984.157 291.891 983.266 289.691 982.264L289.404 982.13C285.596 980.268 282.094 976.086 278.897 970.37C269.813 949.77 277.018 913.17 277.018 913.17C277.018 913.17 264.378 886.846 268.919 885.09C284.906 878.908 312.519 866.181 328.506 872.726C328.63 872.777 328.76 872.839 328.895 872.908C329.247 873.099 329.587 873.313 329.912 873.548C337.331 879.115 344.129 903.272 344.129 903.272C344.129 903.272 358.859 912.897 364.113 918.021C364.273 918.177 364.429 918.337 364.581 918.497C364.945 918.901 365.308 919.312 365.624 919.73C358.085 915.73 335.704 904.228 328.888 905.443C319.684 907.086 301.343 910.966 292.918 911.624C284.492 912.283 288.489 934.279 289.706 947.406C290.516 956.177 289.197 967.93 294.018 974.952C296.413 978.443 300.322 980.77 306.761 980.977L308.744 981.032C318.191 981.217 324.804 980.417 330.108 979.89C334.915 979.41 338.636 979.163 342.371 980.043C348.464 981.497 358.75 984.443 370.867 976.043C374.864 973.272 379.093 969.254 383.42 963.534C383.493 963.668 383.566 963.792 383.638 963.897C386.599 968.784 382.824 974.726 376.397 975.875Z" fill="#9C398C"/>
<path d="M362.506 942.988C363.063 942.376 364.012 942.331 364.625 942.889C365.237 943.446 365.282 944.395 364.724 945.008C359.901 950.307 357.997 955.573 357.285 959.483C356.928 961.444 356.87 963.069 356.899 964.191C356.914 964.752 356.95 965.186 356.981 965.473C356.997 965.616 357.01 965.722 357.02 965.788C357.025 965.821 357.029 965.845 357.031 965.857C357.031 965.861 357.032 965.863 357.032 965.865C357.18 966.68 356.64 967.46 355.825 967.608C355.01 967.757 354.229 967.216 354.081 966.401L355.556 966.133L354.081 966.399L354.08 966.397C354.08 966.396 354.079 966.394 354.079 966.393C354.078 966.389 354.078 966.385 354.077 966.381C354.075 966.371 354.073 966.359 354.071 966.344C354.066 966.314 354.06 966.274 354.052 966.224C354.038 966.122 354.018 965.979 353.999 965.798C353.959 965.436 353.917 964.918 353.9 964.269C353.866 962.97 353.935 961.136 354.334 958.946C355.133 954.556 357.257 948.754 362.506 942.988Z" fill="#17091D"/>
<path d="M357.319 952.672C357.769 951.976 358.698 951.777 359.394 952.227L358.579 953.486C359.393 952.226 359.394 952.227 359.395 952.228L359.396 952.229C359.397 952.229 359.399 952.23 359.4 952.232C359.404 952.234 359.409 952.237 359.414 952.24C359.425 952.248 359.44 952.257 359.459 952.27C359.497 952.295 359.551 952.331 359.619 952.378C359.755 952.471 359.949 952.608 360.191 952.785C360.674 953.14 361.35 953.66 362.138 954.336C363.71 955.685 365.75 957.671 367.6 960.211C371.305 965.298 374.322 972.738 371.07 981.665C370.787 982.444 369.926 982.845 369.148 982.562C368.369 982.278 367.968 981.417 368.251 980.639C371.046 972.966 368.522 966.573 365.175 961.978C363.498 959.676 361.634 957.858 360.184 956.613C359.461 955.993 358.846 955.519 358.416 955.203C358.201 955.046 358.033 954.928 357.921 954.852C357.865 954.813 357.823 954.785 357.797 954.768C357.784 954.759 357.775 954.753 357.77 954.749C357.768 954.748 357.767 954.746 357.766 954.745C357.765 954.746 357.764 954.745 357.764 954.745L357.765 954.746C357.069 954.297 356.87 953.368 357.319 952.672Z" fill="#17091D"/>
<path d="M329.529 960.686C330.355 960.75 330.973 961.47 330.91 962.296C330.91 962.298 330.909 962.302 330.909 962.306C330.908 962.314 330.908 962.326 330.907 962.341C330.905 962.374 330.901 962.424 330.896 962.49C330.887 962.621 330.875 962.817 330.861 963.071C330.833 963.579 330.799 964.319 330.772 965.234C330.719 967.066 330.7 969.596 330.837 972.39C331.114 978.066 332.02 984.51 334.345 988.519C334.761 989.236 334.517 990.154 333.801 990.57C333.084 990.985 332.165 990.742 331.75 990.025C329.028 985.332 328.119 978.231 327.841 972.537C327.699 969.646 327.719 967.035 327.773 965.147C327.8 964.203 327.837 963.437 327.866 962.906C327.881 962.64 327.894 962.432 327.903 962.29C327.908 962.219 327.912 962.164 327.915 962.127C327.916 962.108 327.917 962.094 327.918 962.084C327.918 962.079 327.919 962.075 327.919 962.072V962.067C327.982 961.241 328.703 960.623 329.529 960.686Z" fill="#17091D"/>
<path d="M308.308 969.048C309.083 969.094 309.685 969.722 309.716 970.481L309.715 970.635V970.636C309.715 970.637 309.715 970.639 309.714 970.642C309.714 970.649 309.714 970.66 309.713 970.675C309.712 970.704 309.709 970.748 309.707 970.807C309.701 970.926 309.693 971.104 309.686 971.333C309.671 971.791 309.657 972.455 309.66 973.264C309.666 974.887 309.741 977.082 310.014 979.385C310.288 981.698 310.756 984.06 311.519 986.049C312.292 988.063 313.296 989.501 314.518 990.232C315.229 990.658 315.46 991.579 315.035 992.29C314.609 993.001 313.688 993.232 312.977 992.806C310.922 991.576 309.596 989.411 308.718 987.125C307.83 984.813 307.325 982.177 307.036 979.737C306.745 977.287 306.666 974.973 306.66 973.276C306.656 972.426 306.671 971.726 306.687 971.237C306.695 970.992 306.703 970.8 306.709 970.667C306.713 970.601 306.715 970.549 306.717 970.513C306.718 970.496 306.719 970.481 306.719 970.471C306.719 970.467 306.72 970.463 306.72 970.46V970.456C306.72 970.455 306.721 970.455 308.218 970.545L306.72 970.455C306.77 969.628 307.481 968.998 308.308 969.048Z" fill="#17091D"/>
<path d="M294.169 973.146C294.994 973.224 295.599 973.957 295.52 974.781L295.518 974.797C295.517 974.812 295.515 974.838 295.512 974.872C295.507 974.941 295.501 975.046 295.494 975.183C295.48 975.457 295.465 975.859 295.468 976.351C295.474 977.339 295.548 978.668 295.809 980.054C296.35 982.923 297.586 985.53 300.107 986.479C300.882 986.77 301.274 987.636 300.982 988.411C300.69 989.186 299.825 989.578 299.05 989.286C294.991 987.759 293.451 983.742 292.861 980.609C292.557 978.995 292.475 977.477 292.468 976.369C292.465 975.813 292.481 975.353 292.498 975.029C292.506 974.868 292.514 974.739 292.521 974.648C292.524 974.603 292.527 974.568 292.529 974.542C292.53 974.53 292.531 974.519 292.532 974.512C292.532 974.508 292.532 974.505 292.533 974.502C292.533 974.501 292.533 974.499 292.533 974.498L292.534 974.497C292.54 974.497 292.632 974.506 294.027 974.639L292.534 974.496C292.612 973.671 293.345 973.067 294.169 973.146Z" fill="#17091D"/>
<path d="M340.678 973.454C342.785 973.454 344.493 968.814 344.493 963.09C344.493 957.367 342.785 952.727 340.678 952.727C338.571 952.727 336.863 957.367 336.863 963.09C336.863 968.814 338.571 973.454 340.678 973.454Z" fill="#D969BD"/>
<path d="M317.424 972C319.531 972 321.239 968.499 321.239 964.181C321.239 959.864 319.531 956.363 317.424 956.363C315.317 956.363 313.609 959.864 313.609 964.181C313.609 968.499 315.317 972 317.424 972Z" fill="#D969BD"/>
<path d="M300.348 976C302.455 976 304.163 973.314 304.163 970C304.163 966.686 302.455 964 300.348 964C298.241 964 296.533 966.686 296.533 970C296.533 973.314 298.241 976 300.348 976Z" fill="#D969BD"/>
<path d="M239.174 890.065C238.921 890.064 238.673 890.006 238.447 889.895C238.204 889.773 237.996 889.593 237.84 889.371C237.684 889.149 237.585 888.891 237.553 888.622C237.48 887.993 230.09 825.535 228.684 814.935C228.259 811.72 227.761 806.64 227.191 800.753C225.872 787.222 224.066 768.691 221.824 760.753C221.625 760.047 221.436 759.331 221.261 758.622C219.019 749.629 219.753 744.116 221.087 734.113C221.301 732.491 221.534 730.738 221.777 728.829C222.402 723.833 223.728 718.891 225.923 710.698C230.246 694.571 238.276 664.553 251.672 594.018C259.157 554.545 267.528 526.182 276.55 509.72C283.871 496.36 289.822 494.364 292.722 494.364C293.165 494.359 293.608 494.414 294.037 494.527C306.031 496.356 317.63 500.203 328.343 505.905C339.281 511.755 348.739 520.029 355.996 530.095C363.225 540.168 368.096 551.742 370.246 563.956C370.333 564.451 370.417 564.949 370.497 565.447C372.189 576.322 373.04 587.311 373.04 598.316C373.04 601.295 372.975 604.342 372.847 607.371C371.866 630.45 364.673 652.835 352.028 672.16L344.856 720.364C344.842 720.464 344.817 720.563 344.784 720.658C342.019 728.636 335.337 750.727 337.604 757.087C337.662 757.247 337.72 757.451 337.779 757.647C337.804 757.731 337.833 757.833 337.862 757.938C337.917 758.149 337.971 758.378 338.029 758.625C338.069 758.793 338.109 758.967 338.146 759.156C338.327 760.004 338.509 761.069 338.756 762.429C342.389 784.018 349.932 861.149 350.019 861.924C350.041 862.151 350.015 862.38 349.943 862.597C349.871 862.813 349.755 863.013 349.602 863.182C349.449 863.351 349.262 863.486 349.053 863.579C348.845 863.671 348.62 863.72 348.392 863.72C348.312 863.725 348.232 863.725 348.152 863.72C345.837 863.378 343.487 863.109 341.168 862.924C338.233 862.684 335.232 862.56 332.245 862.56C327.765 862.565 323.289 862.825 318.838 863.338C277.665 868.065 240.398 889.64 240.027 889.858C239.766 890.003 239.472 890.074 239.174 890.065Z" fill="#CE44A2"/>
<path d="M292.722 496C293.044 495.989 293.366 496.032 293.674 496.127C305.528 497.921 316.991 501.716 327.576 507.349C338.289 513.086 347.554 521.192 354.668 531.05C361.782 540.907 366.558 552.258 368.633 564.24C368.72 564.727 368.8 565.214 368.877 565.694C370.566 576.483 371.416 587.388 371.42 598.309C371.42 601.305 371.356 604.3 371.227 607.294C370.255 630.2 363.084 652.411 350.481 671.556L343.214 720.13C343.214 720.13 333.088 749.345 336.039 757.643C336.086 757.774 336.133 757.923 336.18 758.094L336.257 758.367C336.307 758.56 336.358 758.774 336.413 759.007C336.449 759.16 336.485 759.32 336.518 759.49C336.703 760.352 336.903 761.432 337.118 762.694C340.795 784.476 348.356 862.076 348.356 862.076C345.977 861.724 343.613 861.454 341.263 861.265C338.211 861.023 335.193 860.901 332.209 860.901C327.667 860.904 323.129 861.168 318.617 861.69C276.597 866.53 239.167 888.421 239.167 888.421C239.167 888.421 231.718 825.447 230.294 814.712C228.87 803.978 226.632 771.803 223.391 760.29C223.187 759.563 223.004 758.871 222.842 758.214C220.32 748.105 221.665 742.73 223.391 729.014C225.229 714.381 233.175 700.261 253.271 594.305C270.802 501.912 288.482 496 292.722 496ZM292.722 492.727C288.743 492.727 282.458 495.538 275.118 508.93C266.013 525.541 257.584 554.061 250.048 593.701C236.681 664.178 228.644 694.156 224.328 710.261C222.112 718.523 220.778 723.509 220.135 728.614C219.895 730.516 219.666 732.229 219.448 733.883C218.086 744.09 217.338 749.712 219.659 759.014C219.834 759.741 220.023 760.469 220.233 761.196C222.435 769 224.23 787.447 225.545 800.916C226.119 806.814 226.613 811.912 227.046 815.152C228.452 825.741 235.838 888.189 235.911 888.818C235.975 889.357 236.172 889.872 236.485 890.317C236.797 890.761 237.215 891.12 237.701 891.362C238.187 891.604 238.726 891.722 239.268 891.703C239.811 891.685 240.34 891.532 240.809 891.258C240.9 891.203 250.223 885.803 264.491 879.858C277.6 874.403 297.696 867.403 318.991 864.949C323.379 864.442 327.792 864.186 332.209 864.181C335.148 864.181 338.106 864.298 340.998 864.545C343.287 864.73 345.601 864.996 347.876 865.33C348.035 865.355 348.195 865.367 348.356 865.367C348.813 865.369 349.266 865.275 349.684 865.091C350.103 864.907 350.479 864.638 350.787 864.299C351.095 863.961 351.329 863.562 351.474 863.127C351.618 862.693 351.67 862.233 351.626 861.778C351.317 858.603 343.996 783.814 340.362 762.167C340.133 760.803 339.93 759.72 339.745 758.854C339.701 758.625 339.654 758.421 339.617 758.269C339.556 758.01 339.497 757.767 339.439 757.541C339.407 757.421 339.378 757.312 339.348 757.214C339.279 756.97 339.21 756.752 339.134 756.541C338.687 755.283 338.044 750.796 341.696 736.647C343.803 728.523 346.299 721.287 346.324 721.214C346.392 721.023 346.441 720.826 346.47 720.625L353.617 672.76C366.299 653.253 373.512 630.695 374.501 607.443C374.632 604.392 374.697 601.323 374.697 598.32C374.689 587.228 373.822 576.154 372.107 565.196C372.019 564.629 371.936 564.127 371.852 563.665C369.658 551.21 364.691 539.41 357.319 529.138C349.916 518.869 340.268 510.428 329.11 504.458C318.261 498.689 306.518 494.789 294.375 492.923C293.833 492.788 293.277 492.722 292.718 492.727H292.722Z" fill="#17091D"/>
<path d="M371.413 598.317C371.413 601.313 371.349 604.308 371.22 607.302C370.247 630.208 363.077 652.419 350.474 671.564L343.207 720.138C343.207 720.138 333.081 749.353 336.031 757.651C336.079 757.782 336.126 757.931 336.173 758.102L336.249 758.375C336.3 758.568 336.351 758.782 336.406 759.015C336.442 759.168 336.478 759.327 336.511 759.498C336.696 760.36 336.896 761.44 337.111 762.702C340.726 784.291 347.985 860.56 347.985 860.56C345.605 860.197 343.24 859.942 340.893 859.749C339.89 847.6 335.367 794.869 334.654 788.146C333.684 778.993 327.268 759.247 319.274 755.444C311.281 751.64 292.024 748.215 293.053 746.353C294.081 744.491 312.371 747.055 321.858 750.218C331.344 753.382 326.178 748.197 323.634 744.764C321.091 741.331 288.042 732.611 280.91 731.273C273.778 729.935 251.694 729.942 244.428 728.04C237.161 726.138 240.068 723.855 258.234 720.429C276.401 717.004 303.651 727.658 314.061 731.015C324.47 734.371 317.094 724.233 314.013 718.215C310.932 712.197 300.381 697.978 305.373 697.738C310.366 697.498 310.554 702.546 320.183 717.607C329.811 732.669 326.904 711.298 326.937 703.909C326.97 696.52 333.081 689.608 333.808 679.335C334.534 669.062 338.531 664.495 341.056 656.113C343.581 647.731 346.524 637.098 349.507 625.877C352.49 614.655 366.944 567.746 366.944 567.746L368.637 564.24C368.724 564.728 368.804 565.215 368.88 565.695C370.566 576.487 371.413 587.393 371.413 598.317Z" fill="#9C398C"/>
<path d="M326.011 862.181C283.991 867.021 239.174 888.436 239.174 888.436C239.174 888.436 231.726 825.461 230.302 814.727C228.877 803.992 226.639 771.818 223.398 760.305C223.195 759.578 223.012 758.885 222.85 758.229C224.797 763.407 227.137 768.756 229.731 772.774C236.634 783.429 239.574 798.392 240.286 807.079C240.998 815.767 245.667 835.694 248.599 838.098C251.531 840.501 258.892 855.156 272.968 856.865C276.75 857.309 322.305 861.138 326.011 862.181Z" fill="#9C398C"/>
<path d="M322.501 736.242C337.532 740.133 337.47 745.839 321.346 740.806C321.296 740.792 321.247 740.774 321.2 740.752C312.284 736.628 302.863 734.432 293.758 731.173C292.384 730.682 292.759 728.53 294.212 728.595C302.267 728.944 316.205 734.832 322.501 736.242Z" fill="#5C2C66"/>
<path d="M256.846 922.971C253.988 922.966 251.234 921.898 249.118 919.974C242.872 914.32 238.16 905.167 237.39 897.192C237.121 894.656 237.549 892.095 238.627 889.784C239.705 887.474 241.393 885.501 243.508 884.08C263.873 870.625 285.589 862.451 308.065 859.778C312.826 859.216 317.616 858.937 322.41 858.941C338.483 858.941 349.885 861.927 350.364 862.054C350.729 862.152 351.049 862.373 351.269 862.68C354.903 867.691 354.572 871.982 354.318 875.429C354.22 876.468 354.183 877.512 354.205 878.556C354.297 880.542 353.987 882.526 353.294 884.39C352.601 886.253 351.539 887.957 350.172 889.4C348.762 890.89 347.07 892.084 345.194 892.912C343.318 893.741 341.296 894.187 339.246 894.225C333.481 894.329 327.73 894.86 322.043 895.814C293.605 900.541 271.801 914.792 263.746 920.691C261.749 922.17 259.331 922.97 256.846 922.971Z" fill="#CE44A2"/>
<path d="M322.414 860.578C338.455 860.578 349.944 863.636 349.944 863.636C354.285 869.658 352.374 874.233 352.571 878.629C352.908 886.207 346.797 892.447 339.222 892.589C333.376 892.692 327.547 893.232 321.782 894.203C293.463 898.931 271.881 912.713 262.791 919.371C261.073 920.642 258.994 921.33 256.858 921.334C254.404 921.332 252.04 920.414 250.227 918.76C244.595 913.669 239.792 904.96 239.029 897.036C238.797 894.799 239.176 892.542 240.123 890.502C241.07 888.463 242.552 886.719 244.41 885.454C268.085 869.818 290.502 863.52 308.258 861.411C312.961 860.855 317.693 860.58 322.428 860.585M322.428 857.313C317.571 857.308 312.719 857.591 307.895 858.16C285.165 860.862 263.205 869.127 242.629 882.723C240.266 884.308 238.379 886.509 237.173 889.089C235.968 891.668 235.489 894.528 235.788 897.36C236.591 905.723 241.518 915.287 248.047 921.196C250.303 923.245 253.2 924.448 256.243 924.598C259.286 924.749 262.287 923.838 264.735 922.022C272.695 916.203 294.241 902.12 322.33 897.436C327.94 896.496 333.611 895.971 339.298 895.865C341.566 895.824 343.803 895.33 345.879 894.414C347.954 893.497 349.826 892.176 351.386 890.527C352.903 888.926 354.082 887.034 354.851 884.966C355.62 882.898 355.964 880.695 355.862 878.491C355.842 877.512 355.878 876.534 355.971 875.56C356.244 871.847 356.582 867.225 352.618 861.742C352.173 861.13 351.532 860.689 350.801 860.494C350.318 860.367 338.713 857.327 322.432 857.327L322.428 857.313Z" fill="#17091D"/>
<path d="M321.77 894.199C293.452 898.927 271.87 912.712 262.78 919.37C260.94 920.744 258.68 921.434 256.388 921.323C254.096 921.211 251.913 920.305 250.216 918.759C244.584 913.668 239.781 904.959 239.018 897.036C238.787 894.798 239.167 892.539 240.116 890.5C241.066 888.461 242.549 886.717 244.409 885.454C268.084 869.817 290.502 863.519 308.258 861.41C307.633 861.643 287.515 869.127 276.782 875.228C265.882 881.41 269.407 899.708 276.782 899.792C283.137 899.865 327.827 893.396 327.827 893.396L321.77 894.199Z" fill="#9C398C"/>
<path d="M249.46 892.658C250.895 891.792 252.73 891.712 254.521 892.436C256.444 893.268 258.045 894.702 259.084 896.523C260.182 898.321 260.672 900.425 260.483 902.523C260.258 904.472 259.328 906.058 257.893 906.923C256.458 907.788 254.623 907.868 252.832 907.145C250.907 906.313 249.305 904.879 248.264 903.058C247.168 901.259 246.679 899.156 246.869 897.058C247.091 895.105 248.025 893.527 249.46 892.658ZM250.321 894.439C249.34 895.079 248.744 896.257 248.66 897.672C248.612 899.229 249.041 900.763 249.889 902.068C250.685 903.391 251.872 904.435 253.286 905.054C254.594 905.581 255.88 905.516 256.861 904.876C257.842 904.236 258.438 903.058 258.521 901.643C258.566 900.087 258.138 898.554 257.293 897.247C256.496 895.925 255.309 894.884 253.896 894.265C252.588 893.737 251.302 893.817 250.321 894.439Z" fill="#5C2C66"/>
<path d="M257.294 897.247C255.477 894.367 252.367 893.109 250.321 894.443C248.276 895.778 248.083 899.17 249.889 902.08C251.695 904.989 254.816 906.221 256.861 904.887C258.907 903.552 259.11 900.131 257.294 897.247Z" fill="#D969BD"/>
<path d="M545.362 880.498C545.362 880.593 545.362 880.683 545.362 880.774C545.155 883.378 544.777 885.469 544.152 886.811C541.075 893.454 534.422 908.2 534.662 922.811C534.756 928.723 534.775 934.163 534.76 938.545V938.625C526.945 938.88 519.137 938.891 511.376 938.698L511.354 938.545C509.832 928.167 506.729 903.469 510.726 897.862C513.716 893.665 516.263 888.091 517.731 880.843C517.731 880.814 517.731 880.789 517.731 880.76C518.752 875.669 519.242 869.774 518.981 862.942C518.348 846.342 512.757 853.993 515.914 835.803C519.071 817.614 516.103 782.098 517.226 740.945C518.348 699.793 517.055 638.287 515.34 624.858C513.625 611.429 510.406 563.371 508.745 553.949C507.085 544.527 491.967 487.829 501.453 481.091C503.964 479.309 516.408 478.153 518.893 481.091C527.562 491.334 526.011 526.909 526.011 526.909C526.011 526.909 544.523 581.043 543.153 624.887C541.783 668.731 542.455 733.796 543.026 746.538C543.596 759.28 544.196 824.356 544.261 839.814C544.327 852.036 546.143 870.182 545.362 880.498Z" fill="#CE44A2"/>
<path d="M466.853 840.266C466.853 840.266 471.115 836.909 491.044 836.939C525.666 836.989 524.289 839.175 542.394 830.222C560.499 821.269 563.362 826.386 577.187 824.193C591.012 822 600.804 825.488 586.634 829.742C572.464 833.997 563.9 833.779 556.019 841.346C548.138 848.913 523.199 850.8 507.874 848.757C492.548 846.713 479.694 851.048 470.861 847.797C462.028 844.546 466.853 840.266 466.853 840.266Z" fill="#D969BD"/>
<path d="M513.222 480.093C517.186 480.093 520.812 480.562 521.8 481.82C529.852 492.049 526.011 526.911 526.011 526.911C526.011 526.911 544.523 581.045 543.153 624.889C541.784 668.732 542.456 733.798 543.026 746.54C543.597 759.282 544.196 824.358 544.262 839.816C544.313 852.045 546.129 870.173 545.352 880.507C545.352 880.602 545.352 880.693 545.352 880.783C545.145 883.387 544.767 885.478 544.142 886.82C541.064 893.463 534.412 908.209 534.651 922.82C534.746 928.732 534.764 934.173 534.75 938.554V938.634C530.474 938.772 526.203 938.842 521.935 938.842C518.403 938.842 514.88 938.797 511.365 938.707L511.344 938.554C509.821 928.176 506.718 903.478 510.715 897.871C513.705 893.674 516.252 888.1 517.72 880.852C517.72 880.823 517.72 880.798 517.72 880.769C518.741 875.678 519.232 869.783 518.97 862.951C518.338 846.351 512.746 854.002 515.903 835.812C519.061 817.623 516.092 782.107 517.215 740.954C518.338 699.802 517.044 638.296 515.329 624.867C513.614 611.438 511.107 562.154 509.447 552.729C507.787 543.303 492.007 489.093 501.09 481.82C502.231 480.907 508.019 480.093 513.222 480.093ZM513.222 476.82C512.764 476.82 502.064 476.849 499.052 479.263C494.736 482.718 493.933 491.576 496.443 507.991C498.329 520.307 501.741 534.354 503.997 543.649C505.087 548.085 505.926 551.587 506.232 553.311C507.082 558.147 508.215 574.532 509.309 590.38C510.326 605.056 511.285 618.922 512.099 625.311C513.807 638.674 515.057 700.707 513.96 740.892C513.491 758.071 513.734 774.285 513.96 788.591C514.25 808.103 514.501 824.954 512.706 835.282C510.853 845.962 511.801 848.703 513.498 852.296C514.425 854.26 515.475 856.482 515.729 863.103C516.001 868.799 515.605 874.507 514.548 880.111V880.162C514.546 880.182 514.546 880.203 514.548 880.223C513.291 886.434 511.115 891.74 508.085 895.991C506.678 897.965 504.905 902.249 505.727 916.631C506.188 924.703 507.292 933.278 508.139 939.049V939.114V939.183C508.246 939.951 508.623 940.656 509.201 941.172C509.779 941.688 510.522 941.982 511.296 942.002C514.868 942.089 518.45 942.136 521.946 942.136C526.306 942.136 530.64 942.063 534.866 941.925C535.715 941.898 536.52 941.541 537.11 940.93C537.701 940.319 538.031 939.503 538.03 938.652V938.547C538.03 933.271 538.03 927.954 537.932 922.762C537.7 908.514 544.541 893.736 547.121 888.176C547.888 886.525 548.364 884.253 548.622 881.02C548.622 880.911 548.622 880.794 548.647 880.678C549.112 874.285 548.647 865.147 548.178 856.314C547.866 850.296 547.572 844.616 547.55 839.787C547.488 824.733 546.892 759.289 546.311 746.376C545.755 733.987 545.05 669.42 546.442 624.976C547.168 601.973 542.409 576.249 538.299 558.696C534.419 542.147 530.353 529.547 529.354 526.529C529.587 524.205 530.252 516.711 530.212 508.176C530.15 494.169 528.188 484.616 524.398 479.787C523.308 478.402 521.056 476.812 513.255 476.812L513.222 476.82Z" fill="#17091D"/>
<path d="M518.269 547.018C519.701 546.211 521.448 546.291 523.123 547.273C524.798 548.255 526.266 550.015 527.2 552.2C527.665 553.28 527.981 554.417 528.141 555.582C528.297 556.689 528.287 557.813 528.112 558.916C527.962 559.896 527.627 560.838 527.124 561.691C526.688 562.434 526.068 563.052 525.325 563.487C523.872 564.298 522.142 564.215 520.467 563.236C518.792 562.258 517.325 560.491 516.391 558.309C515.928 557.228 515.611 556.089 515.45 554.924C515.295 553.817 515.305 552.693 515.479 551.589C515.628 550.61 515.964 549.668 516.467 548.815C516.904 548.071 517.525 547.453 518.269 547.018ZM519.555 548.709C519.027 548.983 518.585 549.397 518.276 549.906C517.912 550.509 517.665 551.177 517.55 551.873C517.414 552.678 517.393 553.498 517.488 554.309C517.586 555.179 517.789 556.034 518.095 556.855C518.625 558.388 519.59 559.733 520.871 560.727C522.022 561.549 523.236 561.731 524.246 561.233C524.773 560.958 525.215 560.544 525.525 560.036C525.891 559.433 526.137 558.765 526.252 558.069C526.389 557.264 526.411 556.444 526.317 555.633C526.22 554.762 526.015 553.907 525.707 553.087C525.177 551.555 524.214 550.209 522.934 549.215C521.779 548.393 520.565 548.211 519.555 548.727V548.709Z" fill="#5C2C66"/>
<path d="M525.703 553.091C524.409 549.636 521.655 547.676 519.555 548.727C517.455 549.778 516.801 553.411 518.102 556.865C519.403 560.32 522.153 562.276 524.253 561.229C526.353 560.182 527 556.538 525.703 553.091Z" fill="#D969BD"/>
<path d="M514.486 487.273C515.98 488.029 517.127 489.331 517.691 490.909C518.348 492.614 518.45 494.484 517.981 496.251C517.758 497.08 517.389 497.863 516.891 498.563C516.438 499.207 515.854 499.748 515.176 500.149C514.538 500.523 513.819 500.735 513.08 500.767C512.338 500.793 511.6 500.639 510.929 500.32C509.435 499.563 508.288 498.262 507.725 496.684C507.069 494.978 506.968 493.108 507.437 491.342C507.661 490.511 508.03 489.727 508.527 489.025C508.983 488.382 509.569 487.842 510.246 487.44C510.883 487.068 511.602 486.857 512.339 486.825C513.08 486.798 513.817 486.952 514.486 487.273ZM514.508 489.022C514.051 488.777 513.54 488.652 513.022 488.658C512.495 488.673 511.979 488.818 511.521 489.08C511.02 489.364 510.583 489.748 510.235 490.207C509.851 490.709 509.555 491.272 509.36 491.873C508.941 493.129 508.917 494.483 509.29 495.753C509.439 496.317 509.697 496.847 510.052 497.311C510.406 497.774 510.849 498.163 511.354 498.454C511.811 498.699 512.322 498.824 512.84 498.818C513.367 498.801 513.882 498.656 514.341 498.396C514.841 498.111 515.279 497.728 515.627 497.269C516.01 496.767 516.306 496.204 516.503 495.604C516.921 494.346 516.945 492.991 516.572 491.72C516.424 491.155 516.165 490.624 515.811 490.16C515.457 489.695 515.014 489.306 514.508 489.014V489.022Z" fill="#5C2C66"/>
<path d="M516.503 495.597C517.375 492.99 516.481 490.044 514.508 489.015C512.535 487.986 510.232 489.27 509.36 491.874C508.488 494.477 509.381 497.43 511.354 498.455C513.327 499.481 515.623 498.204 516.503 495.597Z" fill="#D969BD"/>
<path d="M529.481 636.942C530.346 636.929 531.2 637.132 531.966 637.535C532.794 637.972 533.52 638.581 534.095 639.32C534.734 640.13 535.226 641.046 535.549 642.026C535.894 643.064 536.078 644.15 536.094 645.244C536.111 646.339 535.961 647.43 535.65 648.48C535.357 649.472 534.896 650.407 534.288 651.244C533.735 652.005 533.028 652.642 532.213 653.113C531.464 653.55 530.617 653.789 529.75 653.806C528.883 653.823 528.026 653.618 527.261 653.211C526.433 652.773 525.707 652.165 525.132 651.426C524.494 650.615 524.002 649.7 523.678 648.72C522.99 646.629 522.956 644.377 523.58 642.266C523.874 641.274 524.335 640.339 524.943 639.502C525.496 638.74 526.203 638.104 527.017 637.633C527.769 637.202 528.615 636.964 529.481 636.942ZM529.579 638.789C528.384 638.789 527.246 639.487 526.407 640.702C525.553 642.074 525.103 643.66 525.11 645.277C525.117 646.894 525.581 648.476 526.447 649.84C527.297 651.047 528.445 651.72 529.637 651.713C530.829 651.706 531.97 651.022 532.809 649.804C533.664 648.432 534.114 646.846 534.106 645.228C534.099 643.611 533.634 642.029 532.765 640.666C531.919 639.458 530.771 638.782 529.579 638.789Z" fill="#5C2C66"/>
<path d="M534.107 645.225C534.107 641.655 532.061 638.775 529.579 638.789C527.098 638.804 525.096 641.698 525.11 645.28C525.125 648.862 527.152 651.731 529.638 651.713C532.123 651.695 534.121 648.793 534.107 645.225Z" fill="#D969BD"/>
<path d="M530.008 739.273C531.683 739.211 533.314 740.026 534.542 741.538C535.82 743.2 536.525 745.231 536.552 747.327C536.645 749.433 536.059 751.512 534.88 753.258C533.739 754.855 532.155 755.786 530.48 755.847C528.805 755.909 527.178 755.091 525.95 753.582C524.669 751.921 523.963 749.887 523.94 747.789C523.851 745.684 524.444 743.606 525.63 741.866C526.753 740.269 528.34 739.342 530.008 739.273ZM529.899 741.247C528.729 741.331 527.643 742.058 526.88 743.269C526.082 744.606 525.712 746.156 525.819 747.709C525.874 749.252 526.406 750.74 527.341 751.967C528.231 753.058 529.383 753.633 530.553 753.549C531.723 753.466 532.809 752.742 533.572 751.527C534.367 750.19 534.735 748.643 534.63 747.091C534.576 745.548 534.044 744.059 533.107 742.833C532.221 741.742 531.065 741.175 529.899 741.255V741.247Z" fill="#5C2C66"/>
<path d="M534.63 747.098C534.448 743.702 532.33 741.084 529.907 741.258C527.483 741.433 525.648 744.32 525.826 747.716C526.004 751.113 528.126 753.727 530.55 753.556C532.973 753.386 534.812 750.495 534.63 747.098Z" fill="#D969BD"/>
<path d="M529.281 830.91C530.956 830.848 532.587 831.662 533.815 833.175C535.093 834.836 535.798 836.868 535.825 838.964C535.911 841.069 535.319 843.146 534.135 844.888C532.994 846.484 531.41 847.433 529.735 847.477C528.06 847.52 526.433 846.72 525.204 845.211C523.924 843.55 523.218 841.517 523.195 839.419C523.106 837.314 523.699 835.236 524.885 833.495C526.026 831.906 527.613 830.979 529.281 830.91ZM529.172 832.884C528.002 832.968 526.916 833.695 526.153 834.906C525.355 836.243 524.985 837.792 525.092 839.346C525.147 840.889 525.679 842.376 526.614 843.604C527.504 844.695 528.656 845.27 529.826 845.186C530.996 845.102 532.082 844.379 532.845 843.164C533.64 841.827 534.008 840.28 533.903 838.728C533.849 837.185 533.317 835.696 532.38 834.47C531.494 833.379 530.338 832.811 529.172 832.891V832.884Z" fill="#5C2C66"/>
<path d="M533.903 838.735C533.722 835.339 531.603 832.72 529.18 832.895C526.757 833.07 524.922 835.957 525.1 839.353C525.278 842.75 527.4 845.364 529.823 845.193C532.247 845.022 534.085 842.131 533.903 838.735Z" fill="#D969BD"/>
<path d="M545.363 880.498C545.363 880.593 545.363 880.684 545.363 880.774C545.156 883.378 544.778 885.469 544.153 886.811C541.076 893.454 534.423 908.2 534.663 922.811C534.757 928.723 534.775 934.164 534.761 938.545H511.337C509.814 928.167 506.711 903.469 510.708 897.862C513.698 893.665 516.245 888.091 517.713 880.843C517.713 880.814 517.713 880.789 517.713 880.76L545.363 880.498Z" fill="#9C398C"/>
<path d="M440.777 512.728C440.777 512.728 462.995 554.982 481.47 543.273C499.946 531.564 508.357 577.819 508.357 577.819C508.357 577.819 507.031 550.797 505.45 547.637C502.885 542.506 496.367 508.364 496.367 508.364L477.837 502.546L463.122 487.455L437.325 498.364L440.777 512.728Z" fill="#9C398C"/>
<path d="M582.884 496.262C582.884 496.262 573.873 523.273 568.547 534.545C563.22 545.818 545.232 554.251 543.869 564.036C542.507 573.822 542.873 580.364 542.873 580.364L533.063 537.454C533.063 537.454 548.785 502.236 548.734 502.389C548.683 502.542 582.884 496.262 582.884 496.262Z" fill="#9C398C"/>
<path d="M509.084 601.666C509.128 602.368 509.044 602.477 509.044 602.477C509.044 602.477 509.04 602.182 509.084 601.666Z" fill="#9C398C"/>
<path d="M510.174 602.547C510.094 601.092 508.379 596.322 505.45 585.82C501.09 570.183 465.578 555.274 465.578 555.274C465.578 555.274 412.074 524.729 389.878 498.812C376.798 483.54 371.439 466.692 369.255 455.46C377.372 450.678 382.23 447.638 382.23 447.638L384.391 448.092C384.588 445.608 385.158 443.167 386.081 440.852C386.935 438.707 387.963 436.452 389.118 434.18L394.957 438.831L458.493 489.412L497.185 520.216L498.347 521.143C498.347 521.143 499.114 524.052 500.044 527.649C500.622 529.889 501.265 532.376 501.828 534.627C502.478 537.202 503.02 539.423 503.238 540.482C503.238 540.482 503.238 540.482 503.238 540.503C503.935 543.918 505.447 546.929 505.81 549.456C505.81 549.496 506.537 553.518 506.537 553.565C506.537 553.612 506.562 553.754 506.573 553.867C506.613 554.198 506.66 554.623 506.711 555.125C506.777 555.74 506.849 556.471 506.926 557.307C506.955 557.598 506.984 557.903 507.013 558.216C507.015 558.234 507.015 558.252 507.013 558.271C507.529 563.631 508.277 571.831 509 576.5C509.93 582.329 510.355 598.816 510.174 602.547Z" fill="#9C398C"/>
<path d="M488.323 550.023C488.143 550.023 487.963 550.011 487.785 549.986C486.543 549.815 479.487 547.201 477.358 546.404C473.724 545.041 466.389 542.248 458.301 538.866C450.093 535.441 439.229 530.615 434.099 527.099L430.975 524.957C428.253 523.088 426.288 521.739 425.728 521.379C403.383 507.073 388.534 473.455 383.803 457.692C382.074 451.955 382.342 445.801 384.562 440.237C385.431 438.055 386.473 435.772 387.662 433.43C389.315 430.181 391.158 427.033 393.181 424.001C396.908 418.408 404.222 408.932 411.347 408.303C412.553 408.193 413.527 408.143 414.312 408.143C415.333 408.143 417.458 408.143 418.2 409.681C418.941 411.219 417.836 412.535 416.488 414.259C415.202 415.884 413.604 417.895 413.015 420.317C412.782 421.273 412.935 425.299 424.7 437.001C431.843 444.106 441.646 452.401 451.586 459.753C462.054 467.488 474.887 471.19 483.814 472.935L484.032 472.979L484.148 473.004L484.388 473.052L485.202 473.219C492.912 474.786 500.24 476.819 501.65 481.059C501.65 481.099 501.676 481.135 501.686 481.172C501.985 482.168 501.94 483.236 501.559 484.204C500.833 486.164 500.833 488.655 500.891 492.423C501.036 499.154 500.681 505.886 499.83 512.564L499.434 515.768L499.278 516.983C499.132 518.124 498.983 519.277 498.831 520.426C498.493 522.994 498.18 525.197 497.882 527.168C496.72 534.804 495.553 540.063 494.213 543.695C493.61 545.263 491.851 550.023 488.323 550.023Z" fill="#CE44A2"/>
<path d="M414.286 409.782C420.619 409.782 412.978 413.481 411.402 419.932C409.639 427.135 432.42 447.637 450.587 461.092C461.353 469.048 474.534 472.819 483.491 474.568L483.654 474.601L483.832 474.637L484.01 474.673C487.781 475.459 498.681 477.393 500.073 481.604C500.285 482.27 500.26 482.988 500 483.637C498.209 488.419 500.364 494.91 498.184 512.364C498.053 513.419 497.92 514.488 497.784 515.572C497.588 517.102 497.392 518.659 497.185 520.215C496.887 522.466 496.574 524.721 496.24 526.924C495.277 533.255 494.129 539.135 492.654 543.132C491.455 546.375 490.038 548.386 488.323 548.386C488.218 548.386 488.114 548.379 488.01 548.364C487.353 548.273 483.425 546.91 477.928 544.87C472.558 542.862 465.694 540.186 458.929 537.357C449.166 533.281 439.607 528.892 435.022 525.75C430.662 522.761 427.392 520.502 426.607 520.001C404.778 506.026 390.117 473.059 385.369 457.222C383.756 451.843 384.012 446.074 386.095 440.859C386.949 438.713 387.977 436.459 389.133 434.186C390.752 430.996 392.556 427.904 394.536 424.924C399.858 416.924 406.191 410.415 411.481 409.946C412.633 409.844 413.563 409.793 414.301 409.793M414.301 406.521C413.462 406.521 412.448 406.575 411.194 406.684C403.786 407.342 396.567 415.979 391.814 423.11C389.758 426.191 387.885 429.39 386.204 432.692C384.991 435.077 383.93 437.419 383.043 439.637C380.686 445.549 380.401 452.087 382.237 458.182C383.381 462.004 387.818 475.662 396.77 490.979C405.319 505.619 414.766 516.317 424.856 522.775C425.394 523.121 427.446 524.532 430.048 526.313L433.183 528.466C437.398 531.353 445.638 535.375 457.679 540.397C465.796 543.79 473.139 546.579 476.794 547.953C482.938 550.252 486.564 551.484 487.574 551.626C487.826 551.66 488.08 551.676 488.334 551.677C492.999 551.677 495.055 546.113 495.731 544.284C497.112 540.546 498.304 535.193 499.484 527.433C499.786 525.433 500.098 523.219 500.436 520.662C500.596 519.466 500.749 518.266 500.901 517.077L501.04 515.986L501.236 514.408L501.439 512.768C502.305 506.016 502.669 499.21 502.529 492.404C502.489 488.819 502.467 486.452 503.092 484.768C503.579 483.473 503.629 482.054 503.234 480.728C503.216 480.655 503.194 480.584 503.169 480.513C501.392 475.273 493.119 473.168 485.503 471.637L484.711 471.477L484.439 471.419L484.333 471.397C484.246 471.375 484.166 471.361 484.101 471.35C475.337 469.637 462.759 466.008 452.545 458.459C442.775 451.233 433.114 443.073 426.048 436.07C414.116 424.244 414.573 420.728 414.581 420.702C415.082 418.648 416.557 416.779 417.745 415.277C419.199 413.459 420.816 411.386 419.646 408.972C418.476 406.557 415.536 406.51 414.286 406.51L414.301 406.521Z" fill="#17091D"/>
<path d="M543.237 551.466C542.999 551.464 542.764 551.413 542.546 551.317C542.328 551.22 542.132 551.081 541.969 550.906C540.589 549.488 532.083 535.201 524.5 520.121C514.327 499.884 509.967 486.786 511.518 481.186C512.176 478.841 513.698 477.99 514.872 477.688C516.046 477.386 517.19 477.11 518.215 476.866L519.941 476.452L520.268 476.372C520.951 476.204 521.645 476.033 522.346 475.852H522.408L523.465 475.575C541.693 470.757 550.715 463.71 550.352 454.63C550.243 452.015 552.168 444.75 555.097 441.688C556.132 440.597 557.251 440.062 558.425 440.062C560.053 440.062 561.528 441.103 562.814 443.153C565.383 447.244 568.115 452.161 570.934 457.772C574.982 465.833 579.386 475.677 584.014 487.033C587.194 494.83 575.868 509.942 559.522 530.441C558.098 532.226 556.703 533.972 555.366 535.666C550.976 541.226 546.646 546.884 544.709 550.575C544.709 550.575 544.709 550.608 544.68 550.626C544.534 550.88 544.324 551.091 544.071 551.239C543.818 551.386 543.53 551.465 543.237 551.466Z" fill="#CE44A2"/>
<path d="M558.396 441.684C559.351 441.684 560.365 442.357 561.401 444.008C563.737 447.728 566.4 452.433 569.445 458.491C573.183 465.935 577.493 475.422 582.478 487.637C585.889 496 567.181 518.022 554.061 534.637C549.24 540.746 545.17 546.124 543.238 549.819C543.216 549.819 543.179 549.793 543.125 549.739C540.582 547.12 503.038 482.426 515.279 479.262C516.322 478.993 517.434 478.724 518.593 478.448L520.653 477.949C521.354 477.779 522.066 477.604 522.786 477.419H522.807L523.897 477.135C534.797 474.251 552.564 468.044 551.983 454.542C551.867 451.844 554.712 441.68 558.421 441.68M558.421 438.408C557.295 438.408 555.598 438.771 553.912 440.539C550.642 443.949 548.589 451.753 548.717 454.684C548.92 459.411 546.235 463.444 540.509 467.048C536.232 469.735 530.524 472.004 523.069 473.975C522.754 474.062 522.438 474.146 522.121 474.226C522.042 474.241 521.964 474.262 521.888 474.288L519.912 474.779L517.804 475.273C516.714 475.535 515.541 475.819 514.429 476.106C512.191 476.684 510.588 478.331 509.913 480.746C508.913 484.324 509.865 489.877 512.914 498.222C515.188 504.448 518.582 512.062 523.007 520.855C530.314 535.4 539.103 550.342 540.752 552.033L540.781 552.062C541.1 552.392 541.481 552.653 541.904 552.83C542.326 553.007 542.78 553.096 543.238 553.091C543.818 553.091 544.388 552.937 544.891 552.645C545.393 552.353 545.809 551.934 546.097 551.429L546.151 551.324C548.03 547.739 552.306 542.153 556.645 536.655C557.978 534.968 559.348 533.251 560.797 531.433C578.023 509.833 589.047 495.029 585.504 486.389C580.853 474.993 576.421 465.106 572.366 457.011C569.525 451.353 566.767 446.389 564.169 442.255C562.563 439.709 560.623 438.4 558.396 438.4L558.421 438.408Z" fill="#17091D"/>
<path d="M562.493 469.091C557.77 494.546 546.507 502.32 550.14 513.16C551.848 518.251 553.156 526.906 554.06 534.637C549.239 540.746 545.17 546.124 543.237 549.819C543.237 549.844 543.178 549.819 543.106 549.749C540.562 547.131 503.019 482.437 515.26 479.273C516.303 479.004 517.415 478.735 518.574 478.459L520.634 477.96C521.335 477.789 522.047 477.615 522.766 477.429H522.788L523.878 477.146C534.778 474.262 552.545 468.055 551.964 454.553C551.819 451.16 556.353 435.96 561.411 444.008C563.747 447.728 566.41 452.433 569.455 458.491C565.967 462.429 563.038 466.149 562.493 469.091Z" fill="#D969BD"/>
<path d="M500 483.637C498.209 488.419 500.364 494.91 498.184 512.365C496.16 528.583 493.657 549.146 488.01 548.365C485.783 548.056 446.034 533.299 435.022 525.75C435.941 522.841 437.06 519.663 438.415 516.183C450.042 486.365 428.605 492.546 405.715 463.092C395.393 449.808 393.493 436.085 394.521 424.91C399.844 416.91 406.177 410.401 411.467 409.932C422.487 408.954 413.164 412.725 411.402 419.928C409.639 427.132 432.42 447.637 450.587 461.092C461.353 469.048 474.534 472.819 483.49 474.568L483.654 474.601L483.832 474.637C487.513 475.365 499.005 476.277 500.073 481.605C500.201 482.279 500.176 482.974 500 483.637Z" fill="#D969BD"/>
</svg>
