<svg width="1000" height="1000" viewBox="0 0 1000 1000" fill="none" xmlns="http://www.w3.org/2000/svg">
<path d="M501.999 487.637C474.963 487.637 443.321 468.12 430.967 459.727C412.466 447.157 392.817 429.546 392.817 421.637C392.817 415.887 399.594 411.778 413.527 409.08C424.907 406.877 440.857 405.713 459.671 405.713C466.574 405.713 473.735 405.873 481.002 406.182C504.194 407.178 527.788 411.52 547.438 418.415C565.074 424.597 577.111 432.029 579.64 438.295C583.676 448.287 583.197 457.095 578.219 464.477C572.874 472.407 562.505 478.466 547.405 482.473C534.685 485.855 518.989 487.637 501.999 487.637Z" fill="#CE44A2"/>
<path d="M459.67 407.349C466.617 407.349 473.768 407.509 480.933 407.818C531.799 410 573.583 427.643 578.124 438.909C592.294 474 545.551 486 502.006 486C458.46 486 394.459 433.785 394.459 421.636C394.452 411.487 424.427 407.349 459.67 407.349ZM459.67 404.076C440.777 404.076 424.71 405.251 413.229 407.473C406.754 408.727 401.675 410.331 398.14 412.243C393.525 414.734 391.186 417.894 391.186 421.636C391.186 423.854 392.308 426.516 394.623 429.782C396.574 432.534 399.346 435.687 402.838 439.149C410.006 446.233 419.675 454.022 430.062 461.083C441.878 469.113 454.155 475.883 465.563 480.669C479.174 486.378 491.433 489.273 502.002 489.273C519.13 489.273 534.971 487.454 547.819 484.062C563.315 479.949 573.997 473.669 579.57 465.396C584.871 457.531 585.384 448.207 581.151 437.683C577.256 428.033 556.651 419.913 547.975 416.869C528.177 409.923 504.415 405.549 481.071 404.549C473.778 404.236 466.581 404.076 459.67 404.076Z" fill="#17091D"/>
<path d="M567.399 441.636C581.569 476.727 545.544 495.454 501.999 495.454C458.453 495.454 394.452 443.24 394.452 431.091C394.452 418.942 437.42 415.407 480.925 417.273C531.792 419.454 562.857 430.371 567.399 441.636Z" fill="#9C398C"/>
<path d="M421.175 417.439C437.477 415.254 459.193 414.84 480.989 415.774H480.99C506.505 416.869 527.118 420.155 541.965 424.611C549.385 426.838 555.413 429.372 559.903 432.101C564.358 434.809 567.477 437.817 568.79 441.074L569.122 441.918C572.462 450.608 572.832 458.432 570.715 465.292C568.532 472.364 563.756 478.246 557.215 482.924C544.18 492.248 523.929 496.954 501.999 496.954C479.753 496.954 452.547 483.676 431.053 469.069C420.269 461.741 410.835 454.018 404.078 447.34C400.703 444.003 397.967 440.899 396.063 438.212C395.112 436.868 394.348 435.6 393.817 434.438C393.295 433.293 392.952 432.153 392.952 431.091C392.952 429.08 393.856 427.334 395.324 425.87C396.771 424.428 398.811 423.208 401.257 422.164C406.151 420.074 413.039 418.53 421.175 417.439ZM395.952 431.091C395.952 431.546 396.11 432.237 396.546 433.192C396.974 434.13 397.628 435.23 398.512 436.477C400.278 438.971 402.883 441.939 406.188 445.206C412.792 451.734 422.079 459.343 432.739 466.588C454.132 481.125 480.7 493.954 501.999 493.954C523.614 493.954 543.149 489.297 555.47 480.484C561.607 476.094 565.902 470.715 567.849 464.407C569.793 458.107 569.447 450.716 566.008 442.198V442.197C565.05 439.822 562.582 437.24 558.346 434.665C554.145 432.111 548.374 429.667 541.103 427.484C526.565 423.12 506.213 419.859 480.861 418.771C459.153 417.84 437.631 418.26 421.573 420.413C413.529 421.491 406.956 422.992 402.435 424.924C400.173 425.89 398.515 426.926 397.442 427.995C396.391 429.042 395.952 430.064 395.952 431.091Z" fill="#17091D"/>
<path d="M687.919 986.098C683.243 986.098 677.924 983.887 672.783 981.734C671.028 981.007 669.375 980.316 667.816 979.749C665.36 978.854 663.616 978.44 662.323 978.44C662.109 978.439 661.895 978.453 661.683 978.48C661.057 978.568 660.426 978.613 659.794 978.614C656.186 978.614 652.854 977.116 650.881 974.614C650.078 973.613 649.517 972.44 649.242 971.186C648.967 969.932 648.986 968.631 649.297 967.385C649.326 967.276 649.348 967.167 649.37 967.051C650.423 961.563 653.868 945.233 655.768 939.134C656.444 936.953 655.452 933.916 654.402 930.694C653.068 926.593 651.55 921.942 653.417 917.967C653.526 917.738 653.635 917.523 653.748 917.305C656.858 911.353 665.931 899.825 667.947 897.305C667.849 894.996 667.547 886.593 667.813 877.691C668.456 856.142 671.718 852.709 672.794 851.582C673.188 851.133 673.672 850.772 674.214 850.522C674.755 850.271 675.344 850.137 675.94 850.127C679.327 850.127 688.657 846.971 696.124 844.433C701.21 842.702 706.053 841.065 709.058 840.36C710.487 840.019 711.95 839.844 713.418 839.84C717.415 839.84 720.634 841.2 723.228 842.291C725.139 843.098 726.789 843.796 728.268 843.796C728.779 843.799 729.286 843.708 729.765 843.527C730.031 843.43 730.313 843.379 730.597 843.378C732.958 843.378 734.048 846.487 734.957 851.16C735.632 854.647 736.25 859.487 736.773 865.545C737.587 874.683 737.979 883.927 738.059 885.909C740.127 889.673 756.226 919.803 754.046 941.473C753.388 948.04 751.089 953.243 747.212 956.942L746.968 957.167C745.213 958.785 743.437 960.327 741.678 961.76C737.439 965.259 732.878 968.348 728.057 970.985C718.378 976.189 711.936 976.749 709.614 976.749C709.1 976.753 708.586 976.721 708.077 976.651H707.954C707.778 976.656 707.605 976.685 707.438 976.738C706.264 977.076 704.626 978.236 702.714 979.578C699.528 981.833 695.56 984.64 690.724 985.793C689.804 986.002 688.863 986.105 687.919 986.098Z" fill="#CE44A2"/>
<path d="M713.414 841.472C719.98 841.472 724.151 845.425 728.253 845.425C728.958 845.431 729.659 845.308 730.32 845.061C730.404 845.03 730.492 845.014 730.582 845.014C734.942 845.014 736.446 886.374 736.446 886.374C736.446 886.374 754.66 918.919 752.433 941.327C751.859 947.036 749.962 952.083 746.096 955.77L745.864 955.989C744.086 957.625 742.35 959.13 740.657 960.505C736.501 963.943 732.026 966.975 727.294 969.559C718.915 974.065 712.695 975.13 709.625 975.13C709.192 975.134 708.76 975.107 708.331 975.047C708.211 975.029 708.09 975.021 707.968 975.021C707.64 975.025 707.315 975.075 707.001 975.17C703.368 976.214 697.882 982.421 690.357 984.207C689.561 984.389 688.747 984.478 687.93 984.472C682.026 984.472 674.443 980.447 668.383 978.239C666.094 977.403 664.023 976.832 662.333 976.832C662.044 976.831 661.755 976.85 661.469 976.887C660.916 976.965 660.359 977.004 659.801 977.003C654.107 977.003 649.686 972.836 650.892 967.789C650.925 967.654 650.957 967.516 650.983 967.363C652.142 961.334 655.517 945.469 657.334 939.643C659.151 933.818 651.946 924.981 654.903 918.679C654.998 918.479 655.096 918.279 655.201 918.079C658.598 911.578 669.611 897.847 669.611 897.847C669.611 897.847 667.365 851.767 675.947 851.767C681.899 851.767 701.839 843.734 709.439 841.949C710.749 841.636 712.09 841.478 713.436 841.476M713.436 838.203C711.845 838.209 710.261 838.397 708.713 838.763C705.632 839.49 700.774 841.134 695.633 842.879C688.65 845.247 679.09 848.49 675.973 848.49C675.154 848.498 674.347 848.676 673.601 849.013C672.855 849.351 672.188 849.84 671.642 850.45C669.596 852.603 666.806 857.759 666.214 877.639C665.963 886.039 666.214 893.81 666.323 896.759C663.718 900.054 655.343 910.803 652.331 916.559C652.222 916.77 652.109 916.999 651.967 917.261V917.283C649.827 921.847 651.448 926.825 652.879 931.214C653.806 934.054 654.761 936.985 654.238 938.661C652.32 944.818 648.854 961.243 647.8 966.741C647.8 966.741 647.8 966.763 647.8 966.778C647.8 966.792 647.771 966.919 647.753 966.996V967.021C647.383 968.507 647.361 970.058 647.689 971.554C648.016 973.049 648.685 974.449 649.642 975.643C651.924 978.552 655.735 980.265 659.837 980.265C660.547 980.264 661.256 980.214 661.959 980.116C662.095 980.099 662.232 980.09 662.37 980.09C663.46 980.09 665.066 980.487 667.304 981.301C668.826 981.858 670.465 982.538 672.201 983.261C677.492 985.443 682.963 987.73 687.966 987.73C689.037 987.734 690.104 987.612 691.146 987.367C696.305 986.145 700.414 983.236 703.721 980.898C705.348 979.745 707.031 978.552 707.939 978.294H707.997C708.55 978.366 709.107 978.4 709.665 978.396C712.11 978.396 718.875 977.818 728.878 972.439C733.793 969.754 738.441 966.606 742.761 963.039C744.541 961.585 746.343 960.029 748.116 958.392L748.138 958.37L748.392 958.134C752.556 954.159 755.023 948.614 755.721 941.65C756.702 931.832 754.224 919.258 748.363 904.258C745.852 897.834 742.969 891.563 739.727 885.476C739.618 882.865 739.222 874.087 738.448 865.403C737.907 859.29 737.278 854.392 736.591 850.858C736.279 849.054 735.799 847.282 735.16 845.567C734.132 843.021 732.617 841.752 730.633 841.749C730.154 841.749 729.679 841.835 729.23 842.003C728.933 842.115 728.618 842.17 728.3 842.167C727.152 842.167 725.641 841.53 723.896 840.792C721.175 839.643 717.789 838.214 713.462 838.214L713.436 838.203Z" fill="#17091D"/>
<path d="M661.458 976.88C663.275 976.626 665.673 977.244 668.361 978.233C675.29 980.756 684.206 985.655 690.336 984.2C697.86 982.415 703.35 976.2 706.98 975.164C707.41 975.027 707.865 974.984 708.313 975.04C710.613 975.404 717.462 974.829 727.276 969.553C732.009 966.968 736.484 963.936 740.639 960.498C742.335 959.121 744.07 957.616 745.846 955.982L746.078 955.764C749.119 952.811 751.165 947.764 752.415 941.32C754.649 918.913 736.428 886.367 736.428 886.367C736.428 886.367 734.866 843.356 730.302 845.055C724.682 847.153 719.653 839.542 709.411 841.946C701.81 843.731 681.87 851.764 675.919 851.764C667.337 851.764 669.582 897.844 669.582 897.844C669.582 897.844 658.569 911.575 655.172 918.076C655.067 918.276 654.969 918.476 654.874 918.676C657.153 916.593 668.412 906.611 676.7 905.444C685.958 904.142 708.855 903.298 717.07 901.302C725.285 899.306 732.101 910.007 735.018 922.866C736.973 931.451 741.875 942.215 739.473 950.386C738.281 954.451 735.287 957.873 729.234 960.076C728.598 960.309 727.973 960.531 727.367 960.746C718.458 963.855 711.91 965.156 706.704 966.306C701.981 967.346 698.369 968.258 695.077 970.266C689.74 973.538 680.875 979.542 666.737 975.356C662.065 973.971 656.811 971.462 650.921 967.356C650.896 967.509 650.863 967.647 650.831 967.782C649.559 973.313 654.994 977.789 661.458 976.88Z" fill="#9C398C"/>
<path d="M662.403 941.851C662.813 941.131 663.728 940.879 664.448 941.288C671.228 945.144 675.049 950 677.172 953.926C678.231 955.884 678.865 957.606 679.236 958.852C679.422 959.474 679.542 959.979 679.617 960.336C679.655 960.514 679.681 960.656 679.698 960.757C679.707 960.807 679.713 960.847 679.718 960.877C679.72 960.892 679.722 960.904 679.724 960.914C679.724 960.919 679.725 960.922 679.726 960.926C679.726 960.927 679.725 960.929 679.726 960.931L679.727 960.933C679.727 960.933 679.712 960.937 678.24 961.138L679.727 960.935C679.838 961.755 679.264 962.511 678.443 962.623C677.623 962.735 676.866 962.161 676.754 961.34V961.339C676.754 961.337 676.753 961.335 676.753 961.333C676.751 961.32 676.748 961.297 676.742 961.264C676.731 961.198 676.711 961.093 676.682 960.952C676.622 960.67 676.522 960.247 676.361 959.709C676.04 958.633 675.481 957.105 674.533 955.353C672.642 951.856 669.197 947.439 662.966 943.895C662.246 943.486 661.994 942.571 662.403 941.851Z" fill="#17091D"/>
<path d="M670.277 949.11C670.799 948.467 671.743 948.368 672.387 948.889C673.03 949.411 673.128 950.353 672.608 950.997L672.609 950.998C672.608 950.998 672.607 951 672.605 951.003C672.601 951.008 672.594 951.017 672.584 951.029C672.564 951.054 672.533 951.094 672.492 951.147C672.41 951.255 672.286 951.42 672.131 951.637C671.82 952.07 671.382 952.712 670.888 953.526C669.896 955.16 668.689 957.469 667.81 960.179C666.055 965.589 665.641 972.45 670.679 978.874C671.19 979.526 671.076 980.469 670.424 980.98C669.772 981.491 668.83 981.377 668.318 980.725C662.457 973.251 663.014 965.24 664.956 959.253C665.926 956.264 667.248 953.741 668.323 951.97C668.862 951.082 669.343 950.376 669.692 949.888C669.867 949.645 670.009 949.455 670.109 949.324C670.16 949.258 670.199 949.208 670.228 949.172C670.242 949.154 670.254 949.14 670.262 949.13C670.266 949.125 670.269 949.12 670.272 949.117C670.273 949.116 670.274 949.114 670.275 949.113L670.276 949.111C670.28 949.113 670.336 949.158 671.427 950.042L670.277 949.11Z" fill="#17091D"/>
<path d="M701.287 947.864C702.053 947.548 702.929 947.911 703.246 948.677L701.86 949.25C703.241 948.679 703.247 948.676 703.247 948.677V948.678C703.247 948.679 703.248 948.68 703.248 948.682C703.249 948.684 703.251 948.688 703.253 948.692C703.257 948.702 703.263 948.715 703.27 948.732C703.284 948.767 703.305 948.818 703.331 948.884C703.384 949.016 703.461 949.21 703.558 949.458C703.751 949.954 704.023 950.67 704.342 951.56C704.98 953.337 705.808 955.813 706.571 958.605C708.075 964.104 709.416 971.136 708.287 976.442C708.115 977.253 707.318 977.77 706.508 977.598C705.698 977.425 705.181 976.629 705.353 975.818C706.317 971.285 705.177 964.876 703.678 959.396C702.94 956.698 702.137 954.298 701.518 952.573C701.208 951.711 700.946 951.019 700.762 950.545C700.67 950.308 700.596 950.125 700.547 950.003C700.523 949.942 700.505 949.896 700.492 949.866C700.486 949.852 700.481 949.84 700.479 949.833C700.477 949.83 700.475 949.827 700.475 949.825V949.823C700.158 949.058 700.522 948.181 701.287 947.864Z" fill="#17091D"/>
<path d="M724.054 949.211C724.825 948.906 725.696 949.285 726.001 950.055L724.605 950.606C726 950.055 726 950.056 726.001 950.056V950.057C726.001 950.058 726.002 950.059 726.003 950.06C726.004 950.063 726.005 950.067 726.006 950.071C726.01 950.08 726.016 950.093 726.022 950.11C726.035 950.143 726.053 950.191 726.077 950.254C726.124 950.378 726.192 950.559 726.275 950.789C726.442 951.249 726.673 951.909 726.934 952.718C727.455 954.333 728.1 956.557 728.585 958.976C729.068 961.385 729.405 964.048 729.279 966.522C729.154 968.969 728.566 971.439 726.995 973.248C726.451 973.873 725.504 973.939 724.879 973.396C724.253 972.853 724.187 971.906 724.73 971.281C725.665 970.204 726.173 968.524 726.283 966.369C726.391 964.241 726.101 961.85 725.643 959.566C725.187 957.292 724.577 955.184 724.079 953.639C723.83 952.869 723.611 952.242 723.455 951.811C723.377 951.596 723.314 951.429 723.272 951.318C723.251 951.263 723.235 951.221 723.224 951.194C723.219 951.18 723.215 951.17 723.213 951.164C723.212 951.161 723.211 951.159 723.211 951.158L723.21 951.157C722.905 950.386 723.284 949.515 724.054 949.211Z" fill="#17091D"/>
<path d="M738.768 948.705C739.528 948.374 740.411 948.722 740.742 949.482L739.367 950.08C740.742 949.481 740.743 949.482 740.743 949.483V949.484C740.743 949.484 740.745 949.485 740.745 949.486C740.746 949.489 740.747 949.492 740.749 949.495C740.752 949.502 740.756 949.512 740.761 949.524C740.771 949.547 740.784 949.58 740.802 949.622C740.836 949.706 740.884 949.826 740.942 949.978C741.058 950.28 741.216 950.712 741.386 951.241C741.723 952.296 742.117 953.766 742.329 955.396C742.74 958.558 742.523 962.855 739.14 965.57C738.493 966.089 737.55 965.985 737.031 965.339C736.513 964.693 736.617 963.749 737.263 963.231C739.366 961.542 739.731 958.679 739.354 955.782C739.172 954.383 738.829 953.097 738.528 952.155C738.378 951.687 738.24 951.31 738.141 951.053C738.092 950.925 738.053 950.826 738.027 950.763C738.014 950.731 738.005 950.708 737.999 950.694L737.991 950.678H737.992C737.662 949.919 738.009 949.036 738.768 948.705Z" fill="#17091D"/>
<path d="M690.75 969.817C693.358 969.817 695.473 965.177 695.473 959.453C695.473 953.73 693.358 949.09 690.75 949.09C688.141 949.09 686.026 953.73 686.026 959.453C686.026 965.177 688.141 969.817 690.75 969.817Z" fill="#D969BD"/>
<path d="M716.568 959.681C719.095 959.034 720.237 954.961 719.118 950.583C717.999 946.206 715.043 943.181 712.515 943.828C709.988 944.475 708.847 948.549 709.966 952.927C711.085 957.304 714.04 960.329 716.568 959.681Z" fill="#D969BD"/>
<path d="M732.667 952.194C734.85 951.635 735.987 948.706 735.206 945.651C734.426 942.597 732.023 940.573 729.84 941.132C727.656 941.691 726.52 944.621 727.301 947.676C728.081 950.73 730.484 952.753 732.667 952.194Z" fill="#D969BD"/>
<path d="M675.49 889.428C668.496 889.428 665.48 889.021 663.536 887.81C661.182 886.355 660.935 883.97 660.629 880.959C660.513 879.868 660.382 878.599 660.139 877.166C658.736 868.882 664.088 856.832 668.812 846.199C671.558 840.017 674.4 833.613 674.04 831.384C673.019 825.097 660.735 785.017 660.204 783.286L649.159 754.592L649.115 754.461L609.447 618.322C609.367 618.035 609.367 617.73 609.447 617.442C609.498 617.257 614.41 598.897 619.478 580.584C629.877 543.053 630.742 542.362 631.425 541.813C631.632 541.646 632.562 540.842 636.511 537.293C645.805 528.948 662.137 510.726 662.308 510.544C662.461 510.373 662.649 510.236 662.859 510.142C663.068 510.048 663.295 509.999 663.525 509.999C663.571 509.995 663.617 509.995 663.663 509.999C663.916 510.02 664.16 510.1 664.376 510.232C664.592 510.363 664.775 510.544 664.91 510.759C666.145 512.726 694.874 558.69 696.443 572.213C699.183 576.821 725.655 621.824 725.354 640.712C726.843 645.199 746.554 704.05 757.538 714.868C764.288 721.526 767.184 743.377 768.438 760.533C769.793 779.315 769.528 798.152 768.358 802.817C768.125 806.504 764.917 854.01 753.824 865.093C750.918 868.002 750.776 870.842 750.634 873.85L750.605 874.446C750.413 878.286 749.773 881.944 744.178 884.515C738.583 887.086 728.031 888.424 710.998 888.715C703.005 888.853 696.211 889.021 690.768 889.155C684.344 889.304 679.316 889.428 675.49 889.428Z" fill="#CE44A2"/>
<path d="M663.5 511.636C663.5 511.636 693.816 560 694.827 572.727C694.827 572.727 724.286 621.901 723.686 640.949C723.686 640.949 744.589 704.421 756.364 716.025C768.14 727.629 768.867 794.545 766.687 802.545C766.687 802.545 763.606 852.941 752.607 863.92C749.032 867.491 749.079 871.087 748.912 874.349C748.567 881.12 747.321 886.443 710.908 887.076C693.598 887.374 682.568 887.803 675.49 887.803C660.51 887.803 663.267 885.909 661.741 876.894C659.496 863.636 676.711 837.701 675.643 831.123C674.574 824.545 661.741 782.76 661.741 782.76L650.674 754.011L623.7 661.436L611.009 617.872C611.009 617.872 630.629 544.552 632.446 543.098C632.86 542.767 634.818 541.021 637.598 538.52C647.055 530.011 663.5 511.636 663.5 511.636ZM663.5 508.363C663.04 508.364 662.586 508.461 662.167 508.649C661.747 508.837 661.372 509.111 661.066 509.454C660.902 509.636 644.628 527.792 635.403 536.076C631.247 539.818 630.52 540.44 630.393 540.534C629.441 541.294 628.965 541.676 625.186 554.458C623.33 560.738 620.874 569.367 617.894 580.149C612.808 598.461 607.906 616.836 607.859 617.018C607.704 617.596 607.71 618.206 607.877 618.781L620.568 662.345L647.542 754.909C647.569 754.996 647.598 755.083 647.63 755.171L658.657 783.811C662.232 795.447 671.577 826.44 672.423 831.636C672.423 831.738 672.532 832.727 671.228 836.272C670.265 838.88 668.83 842.091 667.315 845.523C662.497 856.367 657.04 868.658 658.526 877.429C658.758 878.811 658.889 880.036 659.002 881.12C659.333 884.298 659.649 887.301 662.679 889.189C664.921 890.585 668.154 891.054 675.497 891.054C679.334 891.054 684.373 890.931 690.757 890.774C696.207 890.64 702.969 890.472 710.973 890.334C728.479 890.036 738.913 888.694 744.81 885.971C751.768 882.771 752.03 877.607 752.19 874.498C752.19 874.298 752.208 874.098 752.219 873.898C752.357 870.989 752.462 868.68 754.929 866.218C760.063 861.091 764.013 849.127 767.014 829.596C768.972 816.836 769.808 805.061 769.942 803.051C771.239 797.461 771.29 777.861 770.029 760.403C769.244 749.494 768.042 740.163 766.458 732.64C764.441 723.072 761.894 716.872 758.664 713.691C749.555 704.716 732.868 658.294 726.967 640.443C726.992 631.923 722.098 617.731 712.412 598.236C706.068 585.461 699.586 574.345 698.002 571.658C697.53 568.298 695.713 563.294 692.465 556.411C689.791 550.745 686.15 543.811 681.638 535.796C673.982 522.203 666.349 510.011 666.272 509.891C666.004 509.461 665.639 509.1 665.207 508.836C664.775 508.571 664.288 508.411 663.783 508.367H663.504L663.5 508.363Z" fill="#17091D"/>
<path d="M730.804 834.691C724.213 828.145 701.86 821.051 695.538 809.291C703.666 807.534 711.58 805.829 711.696 805.84C711.928 805.862 736.53 801.065 736.53 801.065L753.708 798.371C745.405 797.818 737.15 796.694 729.001 795.007C706.729 790.28 689.198 773.218 683.501 751.153L683.447 750.938C682.92 748.913 682.491 746.938 682.139 745.011L699.106 736L738.568 720.887L715.093 722.545L714.566 722.578C705.765 723.12 697.095 720.233 690.372 714.523C683.649 708.813 679.393 700.721 678.494 691.942C678.131 688.422 677.691 684.669 677.15 680.625C676.729 677.483 676.06 673.785 675.224 669.658L696.854 658.349L715.82 649.454C715.82 649.454 711.096 651.273 690.256 657.909L690.067 657.967C681.299 660.687 672.056 655.422 669.76 646.523C660.342 610.091 644.984 561.473 637.587 538.523C634.807 541.025 632.863 542.771 632.435 543.102C630.618 544.556 610.998 617.876 610.998 617.876L623.689 661.44L650.663 754.014L661.73 782.763C661.73 782.763 674.563 824.556 675.631 831.127C676.7 837.698 659.503 863.636 661.748 876.894C663.994 890.152 656.96 888 710.915 887.076C747.328 886.451 749.246 882.545 749.246 870.909C743.887 854.843 741.616 845.454 730.804 834.691Z" fill="#9C398C"/>
<path d="M695.271 572.991C695.427 572.177 696.213 571.643 697.026 571.798C697.84 571.954 698.373 572.74 698.218 573.553C697.938 575.016 696.876 576.714 695.535 578.434C694.146 580.217 692.281 582.241 690.127 584.39C685.815 588.692 680.241 593.591 674.746 598.199C669.246 602.811 663.799 607.15 659.73 610.335C657.695 611.928 656.004 613.234 654.82 614.141C654.229 614.595 653.763 614.949 653.446 615.19C653.288 615.31 653.166 615.403 653.084 615.465C653.043 615.496 653.011 615.52 652.99 615.536C652.98 615.544 652.972 615.55 652.967 615.554C652.964 615.556 652.961 615.558 652.96 615.559L652.959 615.56C652.959 615.56 652.958 615.56 652.055 614.363L652.958 615.56C652.297 616.059 651.356 615.927 650.857 615.266C650.358 614.605 650.49 613.664 651.151 613.166L651.153 613.165C651.154 613.164 651.156 613.162 651.158 613.16C651.163 613.156 651.171 613.151 651.182 613.143C651.202 613.128 651.232 613.104 651.272 613.074C651.353 613.013 651.474 612.922 651.631 612.802C651.945 612.564 652.407 612.211 652.995 611.76C654.172 610.858 655.856 609.559 657.882 607.973C661.935 604.801 667.352 600.483 672.818 595.9C678.29 591.312 683.786 586.477 688.008 582.266C690.12 580.159 691.889 578.233 693.169 576.59C694.497 574.885 695.139 573.683 695.271 572.991Z" fill="#17091D"/>
<path d="M723.982 640.955C724.157 640.145 724.955 639.631 725.765 639.806C726.575 639.981 727.089 640.778 726.915 641.588C726.716 642.506 726.198 643.376 725.563 644.169C724.916 644.977 724.07 645.802 723.085 646.633C721.114 648.295 718.46 650.087 715.396 651.93C709.261 655.62 701.308 659.617 693.46 663.296C685.603 666.978 677.815 670.359 671.995 672.818C669.084 674.048 666.663 675.048 664.969 675.741C664.122 676.088 663.456 676.357 663.002 676.54C662.776 676.632 662.602 676.702 662.484 676.749C662.425 676.773 662.38 676.791 662.35 676.803C662.335 676.809 662.324 676.813 662.316 676.816C662.312 676.818 662.309 676.819 662.307 676.819L662.305 676.82C662.303 676.815 662.269 676.733 661.749 675.428L662.304 676.821C661.535 677.128 660.662 676.753 660.355 675.983C660.048 675.214 660.424 674.341 661.193 674.034L661.195 674.033C661.197 674.032 661.2 674.032 661.204 674.03C661.211 674.027 661.222 674.023 661.236 674.018C661.265 674.006 661.309 673.988 661.367 673.965C661.482 673.918 661.655 673.849 661.879 673.759C662.329 673.577 662.99 673.308 663.833 672.964C665.517 672.275 667.928 671.279 670.827 670.055C676.626 667.604 684.376 664.24 692.186 660.579C700.004 656.915 707.848 652.97 713.85 649.359C716.855 647.552 719.356 645.853 721.151 644.339C722.048 643.582 722.738 642.897 723.221 642.294C723.716 641.676 723.922 641.232 723.982 640.955Z" fill="#17091D"/>
<path d="M657.526 759.738C656.799 760.135 655.888 759.867 655.491 759.14C655.094 758.413 655.362 757.502 656.089 757.105L657.526 759.738ZM756.809 716.696C757.197 716.708 757.483 716.732 757.686 716.757C757.787 716.769 757.869 716.781 757.932 716.792C757.963 716.797 757.99 716.802 758.013 716.806C758.024 716.809 758.036 716.811 758.045 716.813C758.05 716.814 758.054 716.815 758.058 716.816C758.06 716.817 758.063 716.817 758.065 716.817C758.066 716.817 758.067 716.818 758.068 716.818C758.069 716.819 758.062 716.854 757.771 718.108L758.07 716.819C758.877 717.007 759.379 717.812 759.192 718.619C759.004 719.425 758.201 719.926 757.395 719.741V719.742H757.397C757.398 719.742 757.4 719.743 757.401 719.743C757.405 719.744 757.408 719.744 757.41 719.745C757.415 719.746 757.418 719.746 757.421 719.747C757.409 719.745 757.379 719.741 757.331 719.735C757.224 719.722 757.025 719.704 756.713 719.694C756.087 719.674 755.019 719.688 753.342 719.844C749.984 720.157 744.233 721.035 734.777 723.309C730.176 724.416 723.063 727.22 714.895 730.863C706.757 734.492 697.672 738.91 689.167 743.19C680.665 747.47 672.753 751.607 666.967 754.676C664.074 756.209 661.713 757.476 660.075 758.358C659.257 758.799 658.618 759.145 658.186 759.38C657.969 759.497 657.804 759.587 657.693 759.647C657.638 759.677 657.596 759.7 657.568 759.716C657.555 759.723 657.544 759.729 657.537 759.733L657.527 759.738C657.527 759.738 657.526 759.738 656.808 758.422L656.09 757.104L656.1 757.099C656.107 757.095 656.118 757.089 656.132 757.082C656.16 757.066 656.203 757.043 656.259 757.012C656.371 756.951 656.538 756.861 656.755 756.743C657.19 756.507 657.831 756.16 658.652 755.718C660.295 754.832 662.662 753.563 665.562 752.025C671.36 748.95 679.291 744.802 687.818 740.51C696.344 736.22 705.476 731.78 713.673 728.124C721.838 724.482 729.177 721.571 734.075 720.392C743.619 718.096 749.52 717.188 753.065 716.858C754.838 716.693 756.033 716.671 756.809 716.696Z" fill="#17091D"/>
<path d="M671.453 815.272L671.824 816.725C671.022 816.93 670.205 816.445 670 815.643C669.795 814.84 670.279 814.022 671.082 813.818L671.453 815.272ZM734.154 799.956C742.753 798.504 750.267 797.586 754.77 797.817C763.39 798.258 766.743 798.481 767.942 798.595C768.213 798.621 768.464 798.649 768.641 798.689C768.678 798.697 768.808 798.725 768.955 798.79C769.012 798.815 769.214 798.906 769.411 799.101C769.634 799.321 770.049 799.915 769.767 800.687C769.565 801.238 769.126 801.464 769.056 801.501C768.917 801.574 768.798 801.61 768.748 801.624C768.638 801.655 768.545 801.667 768.509 801.672C768.364 801.691 768.195 801.695 768.13 801.696C768.083 801.698 768.042 801.698 768.012 801.698H767.958C767.729 801.698 767.513 801.646 767.318 801.554C765.935 801.438 762.516 801.217 754.616 800.813C750.488 800.601 743.282 801.457 734.654 802.914C726.076 804.363 716.237 806.38 706.922 808.427C697.61 810.474 688.834 812.548 682.386 814.112C679.162 814.893 676.521 815.547 674.686 816.005C673.768 816.234 673.052 816.414 672.566 816.537C672.323 816.599 672.137 816.645 672.012 816.677C671.95 816.693 671.903 816.705 671.871 816.713C671.856 816.717 671.844 816.72 671.836 816.722C671.832 816.723 671.829 816.723 671.827 816.724L671.825 816.725C671.825 816.725 671.824 816.725 671.453 815.272C671.082 813.818 671.083 813.818 671.083 813.818H671.085C671.087 813.817 671.091 813.816 671.095 813.815C671.103 813.813 671.115 813.81 671.131 813.806C671.163 813.798 671.211 813.786 671.274 813.77C671.4 813.738 671.587 813.69 671.831 813.628C672.32 813.505 673.039 813.324 673.959 813.094C675.8 812.634 678.448 811.98 681.679 811.196C688.141 809.63 696.938 807.55 706.277 805.497C715.614 803.445 725.507 801.417 734.154 799.956Z" fill="#17091D"/>
<path d="M666.134 855.292H666.144L666.291 855.302C666.394 855.308 666.547 855.317 666.748 855.329C667.149 855.354 667.739 855.391 668.495 855.439C670.006 855.536 672.181 855.678 674.837 855.861C680.148 856.227 687.387 856.755 695.09 857.405C710.426 858.7 727.812 860.492 735.371 862.476C742.818 864.431 746.953 865.964 749.255 867.038C750.407 867.576 751.129 868.011 751.588 868.346C751.818 868.515 751.991 868.665 752.121 868.796C752.186 868.861 752.242 868.924 752.29 868.983C752.314 869.013 752.337 869.042 752.357 869.07C752.367 869.084 752.377 869.098 752.387 869.112C752.391 869.119 752.396 869.127 752.4 869.134C752.402 869.137 752.405 869.14 752.407 869.143C752.408 869.145 752.409 869.148 752.41 869.149C752.412 869.152 752.403 869.161 751.143 869.953L752.414 869.154C752.855 869.855 752.643 870.782 751.942 871.222C751.296 871.629 750.46 871.481 749.987 870.906C749.971 870.891 749.921 870.844 749.817 870.768C749.561 870.581 749.021 870.239 747.986 869.757C745.913 868.79 741.971 867.31 734.609 865.378C727.359 863.475 710.272 861.698 694.837 860.395C687.154 859.747 679.932 859.219 674.631 858.854C671.98 858.672 669.811 858.53 668.304 858.433C667.55 858.385 666.961 858.348 666.562 858.323C666.363 858.311 666.211 858.302 666.108 858.296C666.057 858.293 666.018 858.29 665.992 858.289C665.979 858.288 665.97 858.287 665.964 858.287C665.96 858.287 665.957 858.286 665.956 858.286H665.954C665.127 858.236 664.497 857.526 664.547 856.699C664.596 855.872 665.307 855.242 666.134 855.292ZM749.877 870.756C749.877 870.756 749.88 870.759 749.881 870.761C749.883 870.764 749.885 870.767 749.887 870.77C749.891 870.777 749.895 870.783 749.899 870.789C749.907 870.801 749.914 870.812 749.922 870.822C749.929 870.832 749.937 870.841 749.943 870.849C749.92 870.819 749.898 870.789 749.877 870.756Z" fill="#17091D"/>
<path d="M520.271 968.701C482.382 968.701 439.069 964.272 409.407 960.56C376.631 956.454 352.567 952.261 352.327 952.218C351.957 952.153 351.621 951.962 351.374 951.678C351.128 951.394 350.987 951.034 350.976 950.658C350.976 950.378 350.162 922.563 353.621 902.894C356.978 883.789 353.871 747.559 353.762 742.781L339.069 655.636L335.436 634.101C333.637 631.109 317.487 603.989 304.858 574.352C286.716 531.807 284.148 504.512 297.268 493.261C313.411 479.421 337.565 472.639 354.983 469.389H355.074C358.595 468.73 362.166 468.152 365.691 467.665L366.617 467.538C377.96 466.021 386.048 465.778 386.793 465.756H387.004L581.972 474.265C582.123 474.273 582.272 474.301 582.415 474.349L582.779 474.479H582.822L582.949 474.523L583.106 474.574L583.276 474.636C584.773 475.17 588.28 476.418 593.01 478.156C599.089 480.385 605.069 482.647 610.781 484.872C644.371 497.963 663.41 507.534 667.374 513.363C672.591 521.036 674.164 541.276 675.832 562.701C676.795 575.065 677.79 587.836 679.523 597.523C683.963 622.316 671.374 654.45 669.666 658.65C672.631 681.792 667.123 708.716 663.489 726.57C661.557 736.05 659.733 745.007 660.63 747.199C662.149 750.898 661.226 758.534 660.06 768.203C659.366 773.949 658.577 780.461 658.243 786.869C657.92 792.865 658.036 797.92 658.606 802.323C659.696 810.778 658.799 817.378 657.88 824.363C657.538 826.909 657.182 829.578 656.935 832.323C656.306 839.265 656.136 848.13 659.649 861.269C660.052 862.785 660.408 864.28 660.703 865.709C665.063 886.767 658.664 900.407 655.22 907.734C654.37 909.552 653.694 910.985 653.447 911.96C652.946 913.945 653.258 915.232 653.778 917.341C654.573 920.585 655.663 925.029 654.537 934.698C653.512 943.48 646.031 949.92 630.989 954.967C615.7 960.098 592.505 963.901 557.992 966.93C555.449 967.156 552.771 967.381 549.864 967.614C541.032 968.341 531.073 968.701 520.271 968.701Z" fill="#CE44A2"/>
<path d="M386.938 467.396L581.907 475.905L582.27 476.025L582.499 476.105L582.575 476.131C583.974 476.629 587.553 477.902 592.487 479.713C597.348 481.498 603.521 483.807 610.229 486.418C632.777 495.196 661.335 507.353 666.062 514.305C674.055 526.065 673.329 572 677.954 597.833C682.579 623.665 668.028 658.451 668.028 658.451C672.882 695.084 656.234 740.727 659.14 747.844C661.35 753.225 657.513 770.091 656.63 786.804C656.339 792.2 656.361 797.582 656.993 802.553C658.446 813.956 656.205 822.164 655.3 832.2C654.573 840.091 654.693 849.113 658.061 861.713C658.459 863.196 658.803 864.651 659.093 866.076C664.456 891.931 653.24 906.131 651.856 911.593C650.402 917.353 654.762 918.56 652.906 934.545C651.111 949.942 626.535 959.305 557.843 965.338C555.205 965.581 552.5 965.807 549.726 966.018C540.516 966.745 530.586 967.08 520.26 967.08C483.73 967.08 442.194 963.033 409.599 958.949C376.482 954.804 352.6 950.622 352.6 950.622C352.6 950.622 351.76 922.909 355.23 903.178C358.7 883.447 355.394 742.625 355.394 742.625L340.682 655.353L337.002 633.527C337.002 633.527 268.194 520.364 298.35 494.545C313.788 481.309 336.664 474.516 355.303 471.036H355.336C359.071 470.338 362.631 469.771 365.93 469.316L366.795 469.196H366.853C378.149 467.687 386.143 467.447 386.895 467.429H386.953M386.953 464.156H386.735C385.79 464.182 377.713 464.44 366.421 465.949H366.345L366.17 465.971L365.484 466.065C361.948 466.553 358.362 467.134 354.827 467.796H354.703C343.611 469.869 333.438 472.644 324.467 476.051C313.04 480.389 303.539 485.767 296.221 492.051C288.431 498.734 285.812 510.713 288.446 527.658C290.444 540.527 295.466 556.458 303.372 575.011C315.725 603.996 331.439 630.589 333.892 634.695L337.471 655.924L352.124 742.938C352.273 749.455 355.31 883.793 352.004 902.611C348.516 922.444 349.301 949.564 349.333 950.709C349.356 951.462 349.638 952.184 350.131 952.753C350.625 953.322 351.299 953.703 352.04 953.833C352.28 953.873 376.384 958.073 409.196 962.196C438.906 965.916 482.292 970.353 520.264 970.353C531.109 970.353 541.112 969.989 549.991 969.262C552.945 969.025 555.609 968.804 558.134 968.582C592.778 965.538 616.093 961.713 631.505 956.538C639.306 953.92 645.061 950.949 649.094 947.447C653.225 943.876 655.602 939.655 656.158 934.891C657.32 924.927 656.157 920.131 655.362 916.956C654.871 914.956 654.635 913.953 655.028 912.364C655.238 911.542 655.914 910.102 656.699 908.433C660.22 900.935 666.778 886.978 662.298 865.378C662 863.924 661.64 862.404 661.208 860.851C657.763 847.96 657.938 839.273 658.545 832.487C658.792 829.775 659.144 827.142 659.482 824.596C660.39 817.815 661.328 810.8 660.209 802.131C659.66 797.825 659.547 792.869 659.867 786.971C660.201 780.618 660.986 774.135 661.684 768.425C662.923 758.142 663.82 750.709 662.149 746.607C662.08 746.396 661.804 745.153 662.53 740.396C663.075 736.815 664.009 732.225 665.074 726.913C668.707 709.058 674.19 682.185 671.312 658.88C673.893 652.271 676.067 645.511 677.823 638.636C682.001 622.353 683.106 608.425 681.093 597.247C679.374 587.644 678.383 574.905 677.423 562.589C675.737 540.938 674.153 520.491 668.703 512.458C667.119 510.124 663.057 506.095 646.177 498.084C637.093 493.767 625.372 488.814 611.362 483.36C605.636 481.131 599.645 478.865 593.559 476.633C588.777 474.876 585.268 473.629 583.767 473.094L583.665 473.058C583.574 473.022 583.494 472.996 583.422 472.974H583.385L583.309 472.945L582.906 472.804C582.617 472.707 582.316 472.652 582.012 472.64L387.044 464.131L386.953 464.156Z" fill="#17091D"/>
<path d="M446.066 926.666C443.663 926.547 441.27 926.274 438.902 925.848C424.971 923.091 405.58 920.706 405.475 921.899C405.399 922.67 407.862 943.961 409.617 958.935C376.499 954.79 352.617 950.608 352.617 950.608C352.617 950.608 351.76 922.91 355.229 903.179C358.699 883.448 355.393 742.626 355.393 742.626L340.682 655.353L362.409 642.491C362.409 642.491 355.851 579.321 360.48 564.728C365.109 550.135 391.926 621.19 384.652 642.506C382.62 648.578 380.972 654.772 379.718 661.051C375.398 682.299 374.239 708.553 384.652 721.851C398.459 739.473 420.066 752.397 420.066 752.397C420.066 752.397 408.959 749.782 399.88 751.237C394.855 752.044 390.516 753.782 389.161 757.179C385.368 766.761 378.545 798.451 381.23 810.422C383.915 822.393 418.925 837.266 425.763 838.739C431.522 839.982 400.199 878.739 401.867 892.026C403.535 905.313 453.856 925.091 478.563 928.364C499.778 931.168 462.736 927.666 446.066 926.666Z" fill="#9C398C"/>
<path d="M675.783 567.413C676.608 567.474 677.228 568.193 677.167 569.019C677.106 569.845 676.388 570.465 675.562 570.404L675.672 568.908L675.783 567.413ZM424.724 559.974C468.121 559.416 518.121 559.068 544.401 559.911C570.665 560.754 603.513 562.63 629.786 564.294C642.925 565.126 654.423 565.906 662.637 566.478C666.744 566.763 670.03 566.997 672.289 567.159C673.419 567.24 674.292 567.304 674.882 567.347C675.178 567.368 675.403 567.384 675.554 567.396C675.629 567.401 675.687 567.405 675.725 567.408C675.744 567.41 675.758 567.41 675.768 567.411C675.773 567.412 675.776 567.412 675.779 567.412C675.78 567.412 675.781 567.412 675.782 567.412C675.782 567.413 675.781 567.436 675.672 568.908C675.568 570.327 675.562 570.401 675.561 570.404C675.56 570.404 675.559 570.404 675.558 570.404C675.556 570.404 675.552 570.404 675.547 570.403C675.538 570.403 675.523 570.402 675.504 570.4C675.466 570.398 675.409 570.393 675.334 570.388C675.184 570.377 674.959 570.36 674.664 570.339C674.075 570.296 673.203 570.233 672.075 570.151C669.817 569.989 666.533 569.755 662.429 569.47C654.22 568.899 642.728 568.12 629.597 567.288C603.331 565.624 570.52 563.75 544.304 562.909C518.104 562.069 468.175 562.416 424.762 562.974C403.063 563.253 383.003 563.584 368.368 563.846C361.051 563.977 355.09 564.09 350.958 564.171C348.893 564.211 347.284 564.243 346.192 564.265C345.646 564.276 345.229 564.284 344.949 564.29C344.808 564.293 344.702 564.295 344.631 564.297C344.596 564.298 344.569 564.299 344.551 564.299H344.527C344.526 564.299 344.525 564.299 344.493 562.8C344.462 561.3 344.463 561.3 344.464 561.3C344.465 561.3 344.467 561.3 344.469 561.3C344.474 561.3 344.481 561.299 344.49 561.299C344.508 561.299 344.534 561.299 344.57 561.298C344.641 561.296 344.747 561.294 344.887 561.291C345.168 561.285 345.585 561.277 346.131 561.266C347.224 561.244 348.833 561.211 350.9 561.171C355.033 561.09 360.996 560.977 368.315 560.846C382.953 560.584 403.018 560.253 424.724 559.974ZM344.493 562.8L344.525 564.299C343.697 564.316 343.011 563.659 342.993 562.831C342.976 562.003 343.634 561.317 344.462 561.3L344.493 562.8Z" fill="#17091D"/>
<path d="M668.822 656.896C669.633 656.725 670.429 657.244 670.6 658.054C670.77 658.865 670.252 659.66 669.441 659.831C665.848 660.589 658.297 661.178 647.983 661.647C637.619 662.118 624.335 662.471 609.186 662.732C578.884 663.253 541.078 663.403 504.143 663.37C467.206 663.338 431.132 663.124 404.294 662.918C390.875 662.815 379.764 662.714 372.008 662.639C368.13 662.601 365.091 662.57 363.021 662.548C361.986 662.537 361.192 662.53 360.658 662.524C360.392 662.521 360.189 662.518 360.054 662.517C359.986 662.516 359.935 662.515 359.9 662.515C359.884 662.515 359.871 662.515 359.862 662.515C359.858 662.515 359.855 662.514 359.853 662.514C359.851 662.509 359.85 662.424 359.866 661.015C359.883 659.515 359.885 659.515 359.887 659.515H359.935C359.969 659.515 360.02 659.516 360.087 659.517C360.222 659.518 360.425 659.521 360.692 659.524C361.225 659.53 362.017 659.538 363.052 659.549C365.121 659.571 368.16 659.601 372.037 659.639C379.792 659.714 390.901 659.815 404.317 659.918C431.152 660.124 467.218 660.338 504.146 660.37C541.075 660.403 578.859 660.254 609.134 659.733C624.272 659.472 637.523 659.119 647.847 658.65C658.221 658.178 665.513 657.593 668.822 656.896ZM359.866 661.015L359.85 662.514C359.021 662.505 358.357 661.826 358.366 660.997C358.376 660.169 359.055 659.506 359.883 659.515L359.866 661.015Z" fill="#17091D"/>
<path d="M356.792 743.801C356.94 742.986 357.72 742.445 358.535 742.593L391.931 748.653C437.62 755.24 504.139 753.734 559.332 750.565C586.913 748.981 611.632 746.984 629.455 745.383C638.366 744.583 645.553 743.881 650.512 743.379C652.991 743.129 654.912 742.928 656.214 742.79C656.865 742.721 657.361 742.668 657.693 742.632C657.859 742.614 657.985 742.6 658.069 742.591C658.111 742.587 658.142 742.584 658.163 742.581C658.173 742.58 658.182 742.579 658.187 742.578C658.19 742.578 658.192 742.578 658.193 742.578C658.195 742.579 658.2 742.62 658.359 744.069C658.519 745.521 658.523 745.559 658.521 745.56C658.52 745.56 658.518 745.561 658.516 745.561C658.51 745.562 658.502 745.562 658.491 745.563C658.47 745.565 658.437 745.569 658.394 745.574C658.309 745.583 658.183 745.597 658.016 745.615C657.681 745.651 657.183 745.705 656.53 745.774C655.224 745.912 653.297 746.114 650.813 746.365C645.845 746.867 638.647 747.569 629.724 748.37C611.877 749.974 587.125 751.974 559.504 753.56C504.301 756.73 437.499 758.257 391.48 751.619C391.463 751.616 391.444 751.613 391.427 751.61L358 745.544C357.185 745.396 356.644 744.616 356.792 743.801ZM658.194 742.578C659.018 742.487 659.759 743.081 659.85 743.905C659.94 744.728 659.347 745.469 658.523 745.56L658.359 744.069L658.194 742.578Z" fill="#17091D"/>
<path d="M355.39 830.768C355.586 829.963 356.397 829.47 357.202 829.666H357.205C357.207 829.667 357.211 829.668 357.216 829.669C357.226 829.671 357.241 829.675 357.261 829.68C357.301 829.689 357.361 829.705 357.44 829.724C357.601 829.762 357.84 829.819 358.157 829.894C358.791 830.043 359.735 830.261 360.967 830.539C363.43 831.096 367.048 831.89 371.658 832.839C380.879 834.736 394.068 837.249 409.931 839.715C441.664 844.647 484.058 849.379 526.769 848.602C569.503 847.823 601.724 843.263 623.243 838.904C634.003 836.725 642.088 834.596 647.473 833.016C650.165 832.226 652.182 831.572 653.522 831.118C654.193 830.891 654.694 830.714 655.024 830.595C655.19 830.535 655.313 830.49 655.394 830.46C655.434 830.445 655.464 830.434 655.482 830.427C655.492 830.423 655.499 830.421 655.503 830.419L655.507 830.417C656.28 830.12 657.149 830.507 657.445 831.28C657.742 832.054 657.355 832.921 656.582 833.218L656.044 831.817C656.581 833.218 656.581 833.218 656.58 833.219L656.578 833.22C656.576 833.22 656.574 833.221 656.57 833.223C656.564 833.225 656.555 833.228 656.543 833.232C656.519 833.241 656.485 833.255 656.44 833.272C656.351 833.305 656.219 833.354 656.044 833.417C655.694 833.543 655.174 833.727 654.485 833.96C653.107 834.427 651.05 835.093 648.317 835.895C642.852 837.499 634.685 839.648 623.839 841.845C602.147 846.238 569.745 850.819 526.823 851.601C483.878 852.383 441.297 847.627 409.47 842.68C393.552 840.206 380.314 837.683 371.054 835.777C366.423 834.825 362.787 834.026 360.306 833.466C359.065 833.186 358.113 832.965 357.471 832.814C357.15 832.738 356.906 832.68 356.742 832.641C356.66 832.621 356.598 832.606 356.556 832.596C356.535 832.591 356.519 832.588 356.509 832.585C356.503 832.584 356.499 832.582 356.496 832.581C356.495 832.581 356.494 832.581 356.493 832.581C356.492 832.581 356.492 832.58 356.847 831.123L356.491 832.58C355.687 832.384 355.194 831.572 355.39 830.768Z" fill="#17091D"/>
<path d="M358.049 910.463C358.227 909.654 359.027 909.143 359.836 909.32C479.044 935.51 551.942 935.679 594.966 929.359C616.473 926.199 630.507 921.419 639.126 917.464C643.436 915.486 646.394 913.714 648.259 912.452C649.191 911.821 649.85 911.317 650.269 910.979C650.478 910.809 650.627 910.682 650.72 910.6C650.766 910.559 650.799 910.529 650.818 910.512C650.825 910.505 650.831 910.5 650.834 910.497C651.431 909.923 652.381 909.941 652.955 910.538C653.529 911.135 653.51 912.085 652.913 912.659L651.873 911.578L652.909 912.663C652.908 912.664 652.906 912.666 652.904 912.667C652.901 912.67 652.897 912.675 652.892 912.68C652.881 912.69 652.867 912.703 652.85 912.719C652.815 912.751 652.767 912.795 652.704 912.85C652.579 912.96 652.398 913.116 652.155 913.312C651.67 913.704 650.942 914.258 649.94 914.937C647.934 916.294 644.832 918.147 640.377 920.191C631.467 924.279 617.155 929.131 595.402 932.326C551.907 938.716 478.624 938.489 359.192 912.25C358.383 912.072 357.871 911.272 358.049 910.463Z" fill="#17091D"/>
<path d="M534.102 512.892C534.884 512.621 535.739 513.035 536.01 513.817L536.011 513.818C536.011 513.82 536.012 513.823 536.013 513.825C536.014 513.83 536.017 513.837 536.021 513.847C536.027 513.866 536.037 513.895 536.05 513.932C536.076 514.006 536.113 514.116 536.162 514.26C536.261 514.548 536.406 514.97 536.589 515.51C536.956 516.59 537.478 518.142 538.102 520.03C539.348 523.805 541 528.927 542.62 534.311C544.239 539.69 545.833 545.35 546.957 550.195C547.519 552.617 547.968 554.856 548.244 556.765C548.503 558.554 548.622 560.162 548.497 561.386C548.499 561.419 548.503 561.459 548.506 561.506C548.517 561.662 548.533 561.893 548.554 562.195C548.595 562.8 548.656 563.69 548.732 564.827C548.883 567.102 549.095 570.371 549.341 574.345C549.833 582.292 550.458 593.066 550.987 604.366C551.517 615.665 551.953 627.501 552.066 637.57C552.178 647.43 551.981 655.742 551.225 660.164C551.225 660.167 551.225 660.169 551.226 660.172C551.236 660.298 551.251 660.484 551.27 660.728C551.307 661.215 551.361 661.931 551.427 662.851C551.558 664.691 551.735 667.347 551.918 670.612C552.284 677.143 552.675 686.12 552.774 695.902C552.872 705.681 552.678 716.285 551.872 726.064C551.081 735.663 549.689 744.573 547.354 751.14C547.365 751.284 547.38 751.477 547.398 751.716C547.441 752.3 547.505 753.159 547.582 754.258C547.737 756.455 547.951 759.614 548.185 763.463C548.652 771.161 549.199 781.624 549.522 792.679C549.844 803.729 549.943 815.393 549.507 825.485C549.086 835.24 548.159 843.737 546.358 848.762C546.374 848.846 546.392 848.942 546.411 849.051C546.492 849.505 546.608 850.172 546.752 851.028C547.04 852.742 547.437 855.215 547.876 858.26C548.753 864.348 549.798 872.733 550.467 881.911C551.135 891.085 551.43 901.082 550.799 910.387C550.18 919.514 548.66 928.103 545.643 934.611L545.914 966.209C545.921 967.037 545.255 967.715 544.427 967.722C543.599 967.729 542.921 967.063 542.914 966.234L542.642 934.3C542.64 934.072 542.689 933.847 542.787 933.642C545.663 927.604 547.186 919.327 547.806 910.184C548.424 901.069 548.137 891.223 547.475 882.129C546.812 873.039 545.777 864.728 544.906 858.688C544.471 855.668 544.077 853.219 543.793 851.525C543.651 850.679 543.536 850.022 543.457 849.577C543.418 849.355 543.387 849.185 543.366 849.072C543.356 849.016 543.348 848.973 543.343 848.945C543.34 848.931 543.338 848.921 543.337 848.914C543.336 848.911 543.336 848.908 543.336 848.906L543.335 848.904C543.284 848.632 543.309 848.351 543.408 848.093C545.11 843.644 546.074 835.419 546.509 825.357C546.94 815.367 546.845 803.784 546.524 792.766C546.202 781.752 545.655 771.322 545.19 763.645C544.957 759.807 544.744 756.658 544.59 754.469C544.513 753.374 544.45 752.52 544.406 751.94C544.385 751.65 544.368 751.428 544.357 751.279C544.351 751.205 544.346 751.148 544.343 751.11C544.341 751.092 544.341 751.078 544.34 751.068C544.34 751.064 544.339 751.06 544.339 751.058V751.056C544.322 750.842 544.351 750.625 544.425 750.424C546.687 744.214 548.084 735.497 548.882 725.817C549.678 716.164 549.871 705.66 549.774 695.933C549.676 686.209 549.287 677.279 548.923 670.78C548.741 667.532 548.565 664.891 548.435 663.065C548.369 662.151 548.316 661.441 548.278 660.96C548.26 660.72 548.245 660.536 548.235 660.413C548.231 660.352 548.226 660.306 548.224 660.275C548.222 660.26 548.221 660.248 548.221 660.24C548.22 660.237 548.22 660.234 548.22 660.232V660.231C548.209 660.1 548.215 659.968 548.238 659.839C548.965 655.802 549.18 647.677 549.066 637.605C548.954 627.586 548.519 615.79 547.99 604.507C547.461 593.226 546.838 582.468 546.347 574.53C546.101 570.561 545.889 567.297 545.737 565.026C545.662 563.891 545.602 563.004 545.561 562.4C545.54 562.099 545.525 561.868 545.514 561.713C545.508 561.636 545.504 561.577 545.501 561.538C545.5 561.519 545.499 561.504 545.498 561.494C545.498 561.489 545.497 561.485 545.497 561.483V561.48C545.49 561.382 545.493 561.284 545.505 561.187C545.609 560.365 545.54 559.022 545.275 557.194C545.016 555.4 544.586 553.252 544.034 550.874C542.931 546.12 541.36 540.53 539.748 535.176C538.138 529.826 536.494 524.73 535.253 520.971C534.633 519.092 534.113 517.547 533.748 516.474C533.566 515.937 533.422 515.518 533.324 515.233C533.275 515.091 533.238 514.982 533.213 514.909C533.2 514.873 533.191 514.846 533.185 514.827L533.176 514.801C532.905 514.018 533.319 513.163 534.102 512.892Z" fill="#17091D"/>
<path d="M547.549 513.034C548.332 512.763 549.186 513.177 549.457 513.96L549.458 513.961C549.459 513.962 549.459 513.965 549.46 513.968C549.462 513.973 549.465 513.98 549.468 513.989C549.474 514.008 549.484 514.037 549.497 514.074C549.523 514.149 549.56 514.259 549.609 514.402C549.708 514.69 549.853 515.112 550.036 515.652C550.403 516.733 550.925 518.285 551.549 520.173C552.796 523.948 554.448 529.07 556.068 534.453C557.688 539.833 559.281 545.493 560.405 550.338C560.968 552.76 561.418 554.998 561.694 556.907C561.954 558.698 562.074 560.308 561.948 561.532C561.951 561.565 561.954 561.603 561.957 561.649C561.968 561.804 561.984 562.036 562.005 562.339C562.046 562.944 562.106 563.833 562.182 564.97C562.333 567.245 562.546 570.513 562.792 574.487C563.284 582.435 563.907 593.208 564.437 604.509C564.966 615.807 565.401 627.644 565.514 637.714C565.625 647.573 565.428 655.884 564.672 660.307C564.672 660.309 564.673 660.312 564.673 660.315C564.683 660.44 564.698 660.627 564.717 660.87C564.755 661.357 564.808 662.073 564.874 662.993C565.005 664.833 565.182 667.489 565.365 670.755C565.731 677.285 566.122 686.263 566.221 696.045C566.319 705.824 566.126 716.428 565.32 726.206C564.529 735.805 563.139 744.714 560.805 751.281C560.816 751.426 560.831 751.619 560.849 751.858C560.892 752.443 560.956 753.302 561.033 754.4C561.188 756.598 561.401 759.757 561.635 763.606C562.102 771.303 562.65 781.766 562.973 792.821C563.295 803.872 563.392 815.535 562.956 825.628C562.534 835.383 561.608 843.88 559.806 848.904C559.821 848.988 559.839 849.085 559.858 849.193C559.939 849.647 560.055 850.314 560.199 851.171C560.487 852.884 560.885 855.357 561.323 858.402C562.201 864.491 563.245 872.875 563.914 882.054C564.583 891.228 564.877 901.224 564.246 910.529C563.627 919.655 562.108 928.243 559.091 934.752L559.361 966.352C559.368 967.18 558.702 967.857 557.874 967.864C557.046 967.871 556.369 967.205 556.361 966.377L556.089 934.442C556.087 934.215 556.137 933.99 556.234 933.784C559.11 927.747 560.633 919.47 561.253 910.326C561.871 901.211 561.585 891.366 560.922 882.272C560.26 873.182 559.224 864.87 558.354 858.83C557.919 855.811 557.525 853.361 557.24 851.668C557.098 850.822 556.984 850.164 556.904 849.72C556.865 849.497 556.834 849.328 556.814 849.215C556.803 849.159 556.795 849.116 556.79 849.088C556.788 849.074 556.786 849.064 556.784 849.057C556.784 849.053 556.784 849.051 556.783 849.049L556.782 849.047C556.731 848.775 556.758 848.494 556.857 848.235C558.559 843.787 559.524 835.561 559.959 825.499C560.391 815.51 560.295 803.927 559.974 792.908C559.653 781.894 559.107 771.465 558.641 763.787C558.408 759.949 558.195 756.8 558.04 754.611C557.963 753.517 557.901 752.662 557.858 752.082C557.836 751.792 557.818 751.571 557.807 751.422C557.801 751.348 557.797 751.291 557.794 751.253C557.793 751.234 557.792 751.22 557.791 751.211C557.791 751.206 557.79 751.203 557.79 751.2V751.198C557.773 750.985 557.803 750.769 557.876 750.567C560.138 744.357 561.533 735.64 562.331 725.96C563.127 716.307 563.32 705.803 563.222 696.075C563.124 686.351 562.735 677.422 562.37 670.923C562.188 667.674 562.012 665.034 561.882 663.207C561.817 662.294 561.763 661.584 561.726 661.103C561.707 660.862 561.693 660.678 561.683 660.556C561.678 660.495 561.673 660.449 561.671 660.418C561.67 660.403 561.669 660.391 561.668 660.384C561.668 660.38 561.667 660.377 561.667 660.375V660.373C561.656 660.243 561.662 660.11 561.686 659.982C562.412 655.945 562.628 647.82 562.515 637.747C562.402 627.729 561.968 615.933 561.44 604.649C560.911 593.369 560.288 582.611 559.797 574.673C559.551 570.704 559.34 567.44 559.189 565.169C559.113 564.034 559.053 563.146 559.012 562.543C558.991 562.242 558.975 562.011 558.964 561.856C558.959 561.778 558.955 561.72 558.952 561.681C558.951 561.661 558.95 561.646 558.949 561.636C558.949 561.631 558.948 561.627 558.948 561.625C558.948 561.624 558.948 561.623 558.948 561.622C558.953 561.621 559.037 561.615 560.444 561.517L558.948 561.622C558.942 561.525 558.944 561.426 558.956 561.329C559.059 560.507 558.989 559.164 558.725 557.337C558.465 555.543 558.035 553.394 557.483 551.017C556.38 546.263 554.807 540.673 553.195 535.318C551.585 529.968 549.942 524.872 548.7 521.113C548.08 519.235 547.56 517.691 547.195 516.617C547.013 516.08 546.869 515.661 546.772 515.376C546.723 515.234 546.685 515.125 546.66 515.052C546.648 515.016 546.638 514.988 546.632 514.97L546.623 514.943C546.352 514.161 546.766 513.306 547.549 513.034Z" fill="#17091D"/>
<path d="M659.104 867.699C658.834 867.7 658.569 867.633 658.331 867.507C658.093 867.38 657.891 867.196 657.741 866.972C654.151 861.572 649.424 854.015 647.284 848.674C646.503 846.717 645.395 842.259 644.014 835.419C640.323 817.423 634.873 783.804 635.225 779.677C635.727 773.772 648.182 773.263 650.671 773.223H650.7C651.002 773.225 651.297 773.311 651.554 773.47C651.81 773.63 652.018 773.858 652.153 774.128L658.112 786.077C658.237 786.331 658.295 786.613 658.279 786.895C657.955 792.892 658.072 797.946 658.642 802.35C659.732 810.804 658.835 817.404 657.915 824.39C657.574 826.935 657.218 829.604 656.971 832.35C656.342 839.292 656.171 848.157 659.685 861.295C660.088 862.815 660.444 864.31 660.739 865.735C660.814 866.107 660.758 866.494 660.581 866.83C660.403 867.165 660.115 867.429 659.765 867.575C659.556 867.663 659.33 867.705 659.104 867.699Z" fill="#CE44A2"/>
<path d="M650.682 774.854L656.64 786.803C656.35 792.2 656.372 797.581 657.004 802.552C658.457 813.956 656.215 822.163 655.311 832.2C654.584 840.091 654.704 849.112 658.072 861.712C658.469 863.196 658.813 864.65 659.104 866.076C655.99 861.392 650.969 853.483 648.803 848.076C648.011 846.094 646.867 841.294 645.599 835.101C641.667 815.931 636.515 783.403 636.835 779.829C637.238 775.101 650.682 774.872 650.682 774.872M650.682 771.6H650.627C648.169 771.668 645.719 771.922 643.299 772.36C637.155 773.527 633.885 775.945 633.576 779.552C633.213 783.876 638.601 817.25 642.394 835.763C643.847 842.792 644.937 847.218 645.766 849.294C647.946 854.749 652.749 862.429 656.382 867.894C656.803 868.527 657.43 868.994 658.156 869.214C658.883 869.435 659.663 869.396 660.364 869.103C661.065 868.811 661.642 868.284 661.997 867.612C662.352 866.94 662.462 866.166 662.308 865.421C662.007 863.967 661.647 862.44 661.218 860.887C657.77 847.996 657.948 839.309 658.552 832.523C658.799 829.81 659.151 827.178 659.489 824.632C660.397 817.851 661.335 810.836 660.216 802.167C659.667 797.861 659.554 792.905 659.874 787.007C659.904 786.441 659.786 785.877 659.533 785.371L653.574 773.421C653.305 772.879 652.891 772.422 652.378 772.101C651.864 771.78 651.272 771.607 650.667 771.603L650.682 771.6Z" fill="#17091D"/>
<path d="M402.416 884.76C398.965 884.76 396.065 883.073 394.034 879.884C392.743 877.801 392.014 875.419 391.917 872.97C391.821 870.521 392.36 868.088 393.482 865.91C400.999 851.084 425.899 801.008 430.724 779.175C430.956 778.128 431.409 777.143 432.052 776.286C432.695 775.428 433.513 774.717 434.452 774.201C435.391 773.685 436.429 773.375 437.497 773.292C438.566 773.209 439.639 773.355 440.646 773.72L453.893 778.502C454.81 778.832 455.652 779.34 456.371 779.996C457.091 780.653 457.674 781.445 458.087 782.328C458.5 783.21 458.734 784.166 458.777 785.139C458.82 786.113 458.671 787.085 458.337 788C449.232 812.971 426.509 872.037 412.194 881.244C408.586 883.582 405.29 884.76 402.416 884.76Z" fill="#CE44A2"/>
<path d="M438.08 774.909C438.766 774.913 439.446 775.036 440.09 775.273L453.337 780.051C454.051 780.308 454.708 780.704 455.269 781.216C455.83 781.728 456.285 782.346 456.607 783.034C456.928 783.723 457.111 784.468 457.144 785.227C457.177 785.987 457.06 786.745 456.799 787.459C449.791 806.684 425.622 870.684 411.317 879.884C407.684 882.215 404.777 883.131 402.412 883.131C399.058 883.131 396.853 881.277 395.41 879.011C394.267 877.168 393.622 875.06 393.539 872.892C393.457 870.724 393.939 868.572 394.938 866.648C402.499 851.739 427.453 801.557 432.318 779.524C432.61 778.213 433.341 777.042 434.389 776.203C435.436 775.364 436.739 774.908 438.08 774.909ZM438.08 771.637C435.997 771.645 433.977 772.359 432.351 773.664C430.726 774.968 429.589 776.785 429.128 778.819C424.346 800.459 399.52 850.382 392.024 865.168C390.772 867.599 390.172 870.314 390.282 873.047C390.393 875.78 391.209 878.438 392.653 880.76C395 884.444 398.375 886.393 402.412 886.393C405.609 886.393 409.199 885.128 413.083 882.626C419.837 878.284 428.568 863.931 439.781 838.753C448.395 819.408 456.065 799.008 459.873 788.571C460.28 787.453 460.463 786.264 460.41 785.075C460.357 783.886 460.071 782.718 459.566 781.64C459.062 780.562 458.35 779.593 457.471 778.791C456.592 777.989 455.564 777.368 454.445 776.964L441.198 772.186C440.198 771.824 439.143 771.64 438.08 771.64V771.637Z" fill="#17091D"/>
<path d="M349.58 993.519C345.282 993.519 341.252 992.275 338.015 991.271C335.868 990.61 334.018 990.035 332.779 990.035H332.652C332.439 990.033 332.228 990.074 332.031 990.155C330.305 991.024 326.581 991.944 321.334 991.944C317.974 991.924 314.622 991.607 311.317 990.999H311.274C305.865 989.993 300.564 988.473 295.443 986.461C293.329 985.65 291.16 984.737 288.998 983.751L288.678 983.599C283.853 981.297 280.053 977.053 277.389 971.031C268.698 951.315 274.41 918.173 275.3 913.388C274.592 911.879 272.372 907.093 270.341 901.951C265.734 890.279 266.017 886.864 266.635 885.308C266.775 884.914 266.999 884.555 267.289 884.254C267.58 883.954 267.932 883.719 268.321 883.566C270.137 882.861 272.125 882.068 274.221 881.228C286.829 876.181 304.098 869.271 317.966 869.271C322.214 869.271 325.96 869.922 329.113 871.213C329.281 871.282 329.451 871.362 329.637 871.457C329.992 871.637 330.333 871.844 330.658 872.075L330.748 872.141C338.015 877.442 344.373 898.359 345.507 902.25C348.196 904.024 360.404 912.17 365.225 916.861C365.4 917.031 365.57 917.224 365.734 917.381C367.473 919.286 368.83 921.508 369.73 923.926C370.196 925.093 370.588 926.271 370.966 927.41C371.78 929.857 372.55 932.17 373.945 934.13C376.052 937.097 378.254 943.948 380.38 950.581C381.946 955.461 383.566 960.504 384.812 962.755L384.987 963.057C385.733 964.236 386.17 965.583 386.259 966.976C386.347 968.368 386.083 969.761 385.492 971.024C384.009 974.337 380.71 976.744 376.663 977.468C374.959 977.773 372.75 979.391 371.213 980.581C369.909 981.606 368.55 982.762 367.111 984.013C362.217 988.217 356.669 992.984 351.309 993.431C350.772 993.493 350.172 993.519 349.58 993.519Z" fill="#CE44A2"/>
<path d="M317.97 870.908C321.81 870.908 325.375 871.45 328.507 872.727C328.63 872.778 328.761 872.839 328.903 872.912C329.202 873.062 329.489 873.238 329.76 873.436L329.825 873.479C337.277 878.934 344.115 903.297 344.115 903.297C344.115 903.297 358.845 912.923 364.099 918.047C364.258 918.203 364.415 918.363 364.567 918.523C366.167 920.281 367.412 922.33 368.237 924.559C369.69 928.196 370.417 931.981 372.641 935.105C376.176 940.076 380.438 958.203 383.41 963.574C383.482 963.708 383.555 963.832 383.628 963.938C386.604 968.785 382.828 974.727 376.401 975.876C374.584 976.199 372.51 977.538 370.25 979.312C364.437 983.865 357.493 991.312 351.218 991.818C350.67 991.865 350.128 991.887 349.576 991.887C342.629 991.887 336.322 988.403 332.776 988.403H332.59C332.139 988.406 331.694 988.508 331.286 988.701C329.92 989.385 326.563 990.312 321.331 990.312C318.053 990.291 314.784 989.981 311.561 989.385C306.259 988.399 301.064 986.909 296.046 984.934C294.012 984.153 291.895 983.262 289.695 982.261L289.408 982.127C284.59 979.825 281.219 975.618 278.901 970.367C269.817 949.767 277.022 913.167 277.022 913.167C277.022 913.167 264.378 886.847 268.92 885.09C281.782 880.116 302.172 870.908 317.97 870.908ZM317.97 867.636C303.8 867.636 286.36 874.618 273.614 879.712C271.525 880.552 269.548 881.341 267.735 882.043C267.138 882.279 266.596 882.638 266.146 883.097C265.695 883.555 265.346 884.103 265.119 884.705C264.295 886.796 264.088 890.548 268.829 902.556C270.718 907.345 272.724 911.723 273.603 913.614C272.443 920.313 271.668 927.073 271.282 933.861C270.366 949.941 271.921 962.668 275.899 971.679C278.726 978.083 282.803 982.588 287.988 985.068L288.3 985.214H288.325C290.505 986.21 292.715 987.138 294.865 987.963C300.078 990.009 305.472 991.555 310.976 992.581H311.041C314.434 993.201 317.874 993.524 321.323 993.545C325.967 993.545 330.185 992.836 332.641 991.639H332.768C333.753 991.639 335.584 992.203 337.521 992.803C340.863 993.836 345.024 995.119 349.569 995.119C350.216 995.119 350.859 995.094 351.484 995.043C357.37 994.548 363.11 989.588 368.197 985.225C369.625 983.999 370.969 982.843 372.245 981.839C374.377 980.167 375.965 979.228 376.968 979.05C381.542 978.232 385.292 975.472 386.996 971.665C387.688 970.159 387.996 968.504 387.892 966.85C387.788 965.195 387.275 963.592 386.4 962.185V962.163C386.36 962.094 386.32 962.032 386.287 961.967C386.288 961.957 386.288 961.947 386.287 961.938C385.121 959.825 383.526 954.858 381.982 950.05C379.718 942.992 377.578 936.327 375.322 933.156C374.068 931.392 373.338 929.192 372.561 926.865C372.176 925.705 371.776 924.505 371.293 923.29C370.32 920.679 368.852 918.281 366.969 916.228V916.207C366.769 915.999 366.606 915.818 366.42 915.65C361.762 911.105 350.434 903.479 346.957 901.17C346.324 899.043 344.857 894.338 342.851 889.192C339.061 879.479 335.446 873.465 331.795 870.796L331.744 870.759L331.624 870.679C331.241 870.405 330.836 870.162 330.414 869.952C330.196 869.839 329.993 869.748 329.796 869.665C326.439 868.29 322.482 867.596 318.024 867.596L317.97 867.636Z" fill="#17091D"/>
<path d="M376.397 975.875C374.58 976.199 372.506 977.537 370.246 979.312C364.432 983.864 357.489 991.312 351.214 991.817C343.504 992.461 336.361 988.268 332.586 988.406C332.135 988.41 331.69 988.511 331.282 988.704C329.204 989.748 322.518 991.348 311.557 989.388C306.255 988.402 301.06 986.912 296.042 984.937C294.008 984.157 291.891 983.266 289.691 982.264L289.404 982.13C285.596 980.268 282.094 976.086 278.897 970.37C269.813 949.77 277.018 913.17 277.018 913.17C277.018 913.17 264.378 886.846 268.919 885.09C284.906 878.908 312.519 866.181 328.506 872.726C328.63 872.777 328.76 872.839 328.902 872.912C329.197 873.072 329.483 873.247 329.76 873.435L329.825 873.479C337.277 878.934 344.115 903.297 344.115 903.297C344.115 903.297 358.844 912.923 364.098 918.046C364.258 918.203 364.414 918.363 364.567 918.523C366.166 920.28 367.412 922.33 368.237 924.559C355.687 923.166 331.95 920.766 325.966 921.832C316.763 923.475 298.422 927.355 289.996 928.014C281.571 928.672 288.474 934.304 289.691 947.432C290.501 956.203 289.182 967.955 294.004 974.977C296.398 978.468 300.308 980.795 306.746 981.003L308.73 981.057C318.176 981.243 324.789 980.443 330.094 979.915C334.901 979.435 338.621 979.188 342.356 980.068C348.449 981.523 358.735 984.468 370.853 976.068C374.849 973.297 379.078 969.279 383.406 963.559C383.478 963.694 383.551 963.817 383.624 963.923C386.599 968.784 382.824 974.726 376.397 975.875Z" fill="#9C398C"/>
<path d="M362.506 942.99C363.063 942.378 364.012 942.333 364.625 942.891C365.237 943.448 365.282 944.397 364.724 945.01C359.901 950.309 357.997 955.575 357.285 959.485C356.928 961.446 356.87 963.071 356.899 964.193C356.914 964.754 356.95 965.188 356.981 965.475C356.997 965.618 357.01 965.724 357.02 965.79C357.025 965.823 357.029 965.847 357.031 965.859C357.031 965.863 357.032 965.865 357.032 965.867C357.18 966.682 356.64 967.462 355.825 967.61C355.01 967.759 354.229 967.218 354.081 966.403L355.556 966.135L354.081 966.401L354.08 966.399C354.08 966.398 354.079 966.396 354.079 966.395C354.078 966.391 354.078 966.387 354.077 966.383C354.075 966.373 354.073 966.361 354.071 966.346C354.066 966.316 354.06 966.276 354.052 966.226C354.038 966.124 354.018 965.981 353.999 965.8C353.959 965.438 353.917 964.92 353.9 964.271C353.866 962.972 353.935 961.138 354.334 958.948C355.133 954.558 357.257 948.756 362.506 942.99Z" fill="#17091D"/>
<path d="M357.319 952.672C357.769 951.976 358.698 951.777 359.394 952.227L358.579 953.486C359.393 952.226 359.394 952.227 359.395 952.228L359.396 952.229C359.397 952.229 359.399 952.23 359.4 952.232C359.404 952.234 359.409 952.237 359.414 952.24C359.425 952.248 359.44 952.257 359.459 952.27C359.497 952.295 359.551 952.331 359.619 952.378C359.755 952.471 359.949 952.608 360.191 952.785C360.674 953.14 361.35 953.66 362.138 954.336C363.71 955.685 365.75 957.671 367.6 960.211C371.305 965.298 374.322 972.738 371.07 981.665C370.787 982.444 369.926 982.845 369.148 982.562C368.369 982.278 367.968 981.417 368.251 980.639C371.046 972.966 368.522 966.573 365.175 961.978C363.498 959.676 361.634 957.858 360.184 956.613C359.461 955.993 358.846 955.519 358.416 955.203C358.201 955.046 358.033 954.928 357.921 954.852C357.865 954.813 357.823 954.785 357.797 954.768C357.784 954.759 357.775 954.753 357.77 954.749C357.768 954.748 357.767 954.746 357.766 954.745C357.765 954.746 357.764 954.745 357.764 954.745L357.765 954.746C357.069 954.297 356.87 953.368 357.319 952.672Z" fill="#17091D"/>
<path d="M329.53 960.686C330.356 960.75 330.974 961.47 330.911 962.296C330.911 962.298 330.91 962.302 330.91 962.306C330.909 962.314 330.909 962.326 330.908 962.341C330.906 962.374 330.902 962.424 330.897 962.49C330.888 962.621 330.876 962.817 330.862 963.071C330.834 963.579 330.8 964.319 330.773 965.234C330.72 967.066 330.701 969.596 330.838 972.39C331.115 978.066 332.021 984.51 334.346 988.519C334.762 989.236 334.518 990.154 333.802 990.57C333.085 990.985 332.166 990.742 331.751 990.025C329.029 985.332 328.12 978.231 327.842 972.537C327.7 969.646 327.72 967.035 327.774 965.147C327.801 964.203 327.838 963.437 327.867 962.906C327.882 962.64 327.895 962.432 327.904 962.29C327.909 962.219 327.913 962.164 327.916 962.127C327.917 962.108 327.918 962.094 327.919 962.084C327.919 962.079 327.919 962.075 327.92 962.072V962.067C327.983 961.241 328.704 960.623 329.53 960.686Z" fill="#17091D"/>
<path d="M308.308 969.048C309.083 969.094 309.685 969.722 309.716 970.481L309.715 970.635V970.636C309.715 970.637 309.715 970.639 309.714 970.642C309.714 970.649 309.714 970.66 309.713 970.675C309.712 970.704 309.709 970.748 309.707 970.807C309.701 970.926 309.693 971.104 309.686 971.333C309.671 971.791 309.657 972.455 309.66 973.264C309.666 974.887 309.741 977.082 310.014 979.385C310.288 981.698 310.756 984.06 311.519 986.049C312.292 988.063 313.296 989.501 314.518 990.232C315.229 990.658 315.46 991.579 315.035 992.29C314.609 993.001 313.688 993.232 312.977 992.806C310.922 991.576 309.596 989.411 308.718 987.125C307.83 984.813 307.325 982.177 307.036 979.737C306.745 977.287 306.666 974.973 306.66 973.276C306.656 972.426 306.671 971.726 306.687 971.237C306.695 970.992 306.703 970.8 306.709 970.667C306.713 970.601 306.715 970.549 306.717 970.513C306.718 970.496 306.719 970.481 306.719 970.471C306.719 970.467 306.72 970.463 306.72 970.46V970.456C306.72 970.455 306.721 970.455 308.218 970.545L306.72 970.455C306.77 969.628 307.481 968.998 308.308 969.048Z" fill="#17091D"/>
<path d="M294.169 973.146C294.994 973.224 295.599 973.957 295.52 974.781L295.518 974.797C295.517 974.812 295.515 974.838 295.512 974.872C295.507 974.941 295.501 975.046 295.494 975.183C295.48 975.457 295.465 975.859 295.468 976.351C295.474 977.339 295.548 978.668 295.809 980.054C296.35 982.923 297.586 985.53 300.107 986.479C300.882 986.77 301.274 987.636 300.982 988.411C300.69 989.186 299.825 989.578 299.05 989.286C294.991 987.759 293.451 983.742 292.861 980.609C292.557 978.995 292.475 977.477 292.468 976.369C292.465 975.813 292.481 975.353 292.498 975.029C292.506 974.868 292.514 974.739 292.521 974.648C292.524 974.603 292.527 974.568 292.529 974.542C292.53 974.53 292.531 974.519 292.532 974.512C292.532 974.508 292.532 974.505 292.533 974.502C292.533 974.501 292.533 974.499 292.533 974.498L292.534 974.497C292.54 974.497 292.632 974.506 294.027 974.639L292.534 974.496C292.612 973.671 293.345 973.067 294.169 973.146Z" fill="#17091D"/>
<path d="M340.678 973.454C342.785 973.454 344.493 968.814 344.493 963.09C344.493 957.367 342.785 952.727 340.678 952.727C338.571 952.727 336.863 957.367 336.863 963.09C336.863 968.814 338.571 973.454 340.678 973.454Z" fill="#D969BD"/>
<path d="M317.424 972C319.531 972 321.239 968.499 321.239 964.181C321.239 959.864 319.531 956.363 317.424 956.363C315.317 956.363 313.609 959.864 313.609 964.181C313.609 968.499 315.317 972 317.424 972Z" fill="#D969BD"/>
<path d="M300.348 976C302.455 976 304.163 973.314 304.163 970C304.163 966.686 302.455 964 300.348 964C298.241 964 296.533 966.686 296.533 970C296.533 973.314 298.241 976 300.348 976Z" fill="#D969BD"/>
<path d="M284.907 907.637C274.618 907.637 266.414 904.488 260.52 898.27C255.583 893.063 253.599 886.997 252.854 883.848C252.854 883.848 252.752 883.43 252.712 883.259L252.512 882.408C244.806 849.572 241.006 840.263 239.171 838.237C238.615 837.623 236.922 835.746 234.084 824.419C233.536 822.219 232.965 819.743 232.391 817.059C231.922 814.877 231.454 812.546 230.992 810.103L230.836 809.285C228.205 795.252 226.4 780.921 226.236 772.743C226.124 767.106 225.822 761.768 225.528 756.608C225.23 751.321 224.946 746.325 224.928 741.823C224.903 736.732 225.226 732.852 225.942 729.634C226.265 728.179 226.552 727.008 226.803 725.975C227.53 723.066 227.868 721.612 227.806 718.877C227.737 715.903 227.181 711.466 225.876 701.997C223.333 683.408 233.939 647.288 237.252 636.659L237.423 636.114L237.765 635.023C235.181 615.997 239.876 596.688 244.287 583.808C247.01 575.751 250.402 567.936 254.427 560.444C254.427 560.081 254.394 559.75 254.38 559.408C254.339 558.681 254.298 557.979 254.256 557.303C253.584 546.161 253.101 538.11 275.079 507.484C280.987 499.255 297.079 493.234 297.762 492.983C297.937 492.918 298.121 492.884 298.307 492.881H298.808C311.035 492.881 322.995 498.906 333.39 510.303C338.137 515.504 342.19 521.301 345.446 527.546C357.258 549.543 366.915 587.219 370.516 607.183L370.614 607.757C374.102 628.121 366.981 648.266 361.356 661.641C360.857 662.853 360.443 664.098 360.117 665.368C359.667 667.083 359.331 668.827 359.111 670.586C359.005 671.404 358.915 672.281 358.827 673.266C358.497 677.223 358.489 681.325 358.486 685.663C358.486 692.637 358.468 699.845 356.996 706.579C355.779 712.128 354.66 718.43 353.657 725.317C352.778 731.394 352.276 735.939 352.164 737.008C358.544 755.528 353.737 800.765 352.702 809.695C352.702 809.79 352.622 810.375 352.607 810.506C355.31 821.528 354.613 844.412 354.558 846.088C354.605 847.179 355.23 861.928 355.216 873.965C355.216 874.099 355.216 874.234 355.216 874.372C355.216 875.023 355.216 875.663 355.216 876.292C355.18 880.484 355.063 883.648 354.853 885.965C353.973 895.983 338.757 898.721 315.725 902.863C310.152 903.866 303.833 905.005 297.231 906.332C293.176 907.172 289.048 907.609 284.907 907.637Z" fill="#CE44A2"/>
<path d="M298.815 494.524C327.566 494.524 343.999 528.302 343.999 528.302C355.495 549.695 365.203 586.909 368.924 607.484L369.022 608.048C372.51 628.433 365.156 648.48 359.866 661.015C359.33 662.293 358.885 663.608 358.533 664.949C358.066 666.733 357.716 668.545 357.486 670.375C357.37 671.277 357.276 672.193 357.196 673.124C356.305 683.669 357.712 695.622 355.379 706.215C353.944 712.76 352.836 719.538 352.022 725.066C351.135 731.175 350.63 735.775 350.51 736.913C350.492 737.091 350.481 737.186 350.481 737.186C356.974 755.262 351.956 801.746 351.059 809.491C351.059 809.593 351.037 809.687 351.026 809.778C350.964 810.309 350.928 810.593 350.928 810.593C353.74 821.564 352.905 846.08 352.905 846.08C352.905 846.08 353.577 861.397 353.562 873.946C353.562 874.077 353.562 874.204 353.562 874.335C353.562 874.989 353.562 875.633 353.562 876.266C353.53 879.986 353.428 883.338 353.199 885.804C352.232 896.804 329.582 898.131 296.882 904.713C292.938 905.537 288.922 905.969 284.892 906C262.122 906 255.945 889.887 254.43 883.455C254.43 883.433 254.43 883.415 254.43 883.393C254.39 883.229 254.347 883.051 254.303 882.866C252.312 874.397 244.82 842.026 240.384 837.12C239 835.589 237.332 830.637 235.661 823.997C235.094 821.735 234.531 819.269 233.978 816.691C233.499 814.466 233.034 812.146 232.587 809.782L232.489 809.277C232.47 809.189 232.452 809.084 232.431 808.967C229.967 795.826 228.031 781.291 227.86 772.691C227.631 761.128 226.585 750.538 226.552 741.782C226.53 737.32 226.773 733.342 227.526 729.96C228.772 724.353 229.52 722.807 229.429 718.811C229.357 715.677 228.765 711.033 227.486 701.746C224.957 683.273 236.038 646.077 238.822 637.153L238.992 636.607L239.356 635.488L239.45 635.193C234.316 598.746 256.094 560.869 256.094 560.869C256.076 560.353 256.051 559.848 256.025 559.349C255.408 547.397 253.388 540.557 276.423 508.44C282.098 500.531 298.35 494.546 298.35 494.546H298.83M298.83 491.273H298.307C297.934 491.277 297.565 491.346 297.217 491.477C296.515 491.735 279.969 497.924 273.774 506.557C263.601 520.738 257.559 531.048 254.728 539.044C252.003 546.753 252.316 551.946 252.646 557.444C252.69 558.128 252.73 558.822 252.766 559.535C252.766 559.724 252.784 559.898 252.795 560.102C248.829 567.551 245.473 575.31 242.76 583.302C240.004 591.241 237.963 599.41 236.66 607.713C235.206 617.335 235.014 626.48 236.118 634.902L235.889 635.629L235.715 636.189C232.376 646.902 221.68 683.317 224.277 702.244C225.574 711.648 226.127 716.062 226.192 718.938C226.25 721.484 225.934 722.767 225.237 725.604C224.982 726.647 224.695 727.826 224.365 729.302C223.638 732.64 223.275 736.629 223.314 741.848C223.333 746.393 223.616 751.411 223.918 756.724C224.212 761.869 224.514 767.189 224.623 772.797C224.786 781.04 226.603 795.491 229.248 809.611V809.709C229.266 809.8 229.28 809.88 229.295 809.957C229.328 810.12 229.36 810.28 229.389 810.44C229.851 812.891 230.327 815.244 230.796 817.429C231.37 820.12 231.947 822.615 232.503 824.84C235.134 835.353 236.863 838.164 237.953 839.364C238.476 839.946 240.529 843.055 244.857 858.666C247.447 868.033 249.791 878.007 250.913 882.804L251.117 883.637C251.157 883.815 251.2 884 251.237 884.142C251.237 884.178 251.237 884.211 251.262 884.24C252.043 887.553 254.132 893.92 259.328 899.4C265.545 905.946 274.148 909.277 284.903 909.277C289.146 909.243 293.375 908.79 297.529 907.924C304.12 906.6 310.427 905.462 315.994 904.462C327.577 902.378 336.722 900.731 343.505 898.393C348.763 896.575 355.822 893.331 356.462 886.095C356.669 883.738 356.789 880.535 356.825 876.298C356.825 875.662 356.825 875.026 356.825 874.378C356.825 874.237 356.825 874.095 356.825 873.949C356.825 862.08 356.233 847.575 356.171 846.069C356.236 843.957 356.898 821.618 354.238 810.397C354.238 810.324 354.256 810.247 354.267 810.16C354.278 810.073 354.289 809.971 354.3 809.866C355.339 800.906 360.113 755.884 353.802 736.811C353.966 735.317 354.449 731.062 355.255 725.538C356.247 718.691 357.363 712.447 358.569 706.917C360.077 700.007 360.088 692.713 360.099 685.655C360.099 681.349 360.099 677.291 360.437 673.389C360.516 672.433 360.607 671.571 360.713 670.782C360.922 669.096 361.244 667.425 361.675 665.782C361.988 664.587 362.384 663.416 362.86 662.277C368.586 648.713 375.784 628.277 372.227 607.484L372.176 607.193L372.129 606.917C372.127 606.908 372.127 606.9 372.129 606.891C368.495 586.829 358.787 548.96 346.891 526.793C343.567 520.42 339.432 514.506 334.589 509.197C329.884 504.037 324.841 499.917 319.601 496.942C312.931 493.16 305.929 491.24 298.801 491.24L298.83 491.273Z" fill="#17091D"/>
<path d="M351.074 809.506L352.138 809.87L351.048 809.797C344.948 809.376 338.172 808.314 338.121 805.674C338.117 805.623 338.117 805.572 338.121 805.521C338.503 800.55 340.897 779.808 341.155 766.543C341.413 753.277 336.319 732.546 317.789 727.456C299.259 722.365 257.294 717.321 247.022 718.754C242.692 719.357 236.544 719.354 230.796 718.95C230.345 718.921 229.895 718.885 229.448 718.848C229.375 715.714 228.783 711.07 227.504 701.783C224.957 683.274 236.039 646.077 238.822 637.154L238.993 636.608L239.204 635.946L239.349 635.488L244.072 636.216L250.503 637.223C250.503 637.223 234.222 676.91 246.576 690.728C258.929 704.546 318.152 717.274 334.866 717.637C343.306 717.819 348.734 721.492 352.037 725.081C351.15 731.19 350.645 735.79 350.525 736.928C350.507 737.106 350.496 737.201 350.496 737.201C356.989 755.274 351.971 801.761 351.074 809.506Z" fill="#9C398C"/>
<path d="M353.577 874.545L348.127 874.349L342.048 873.622H342.03L330.505 872.24L324.419 871.513L298.259 872.062L279.82 876.207L270.293 878.353L270.155 878.385L254.449 883.422C254.409 883.258 254.365 883.08 254.321 882.894C252.33 874.425 244.838 842.055 240.402 837.149C239.018 835.618 237.35 830.665 235.679 824.025C242.135 837.505 253.845 860.658 260.193 865.48C269.276 872.367 295.799 863.64 317.963 865.458C337.001 867.022 349.86 872.32 353.206 873.822C353.278 873.844 353.345 873.881 353.403 873.93C353.461 873.979 353.508 874.039 353.543 874.106C353.577 874.173 353.598 874.247 353.604 874.322C353.61 874.398 353.6 874.474 353.577 874.545Z" fill="#9C398C"/>
<path d="M321.604 800.363C321.604 800.363 298.932 797.061 295.03 797.938C290.306 798.999 284.533 798.163 283.454 797.454C281.485 796.156 246.757 802.181 246.757 802.181L232.587 809.818C232.053 807.338 232.95 811.636 232.449 808.992C229.986 795.85 228.049 781.316 227.878 772.716C227.649 761.152 226.603 750.563 226.57 741.807C232.071 752.665 240.315 769.679 242.074 777.418C244.759 789.258 243.396 792.505 257.294 792.712C271.191 792.919 321.604 800.363 321.604 800.363Z" fill="#9C398C"/>
<path d="M358.532 664.949C358.065 666.733 357.716 668.545 357.486 670.375L345.245 662.328L307.371 645.157L272.339 638.546L255.295 635.455C255.295 635.455 251.734 635.593 248.235 635.848C246.749 635.953 245.278 636.084 244.093 636.211C242.742 636.382 241.764 636.575 241.55 636.786C241.335 636.997 240.293 637.102 238.825 637.149L238.996 636.604L239.359 635.484L239.453 635.189C234.319 598.742 256.098 560.866 256.098 560.866C256.079 560.349 256.054 559.844 256.029 559.346L258.848 559.568C258.848 559.568 253.565 604.8 253.569 613.404C253.569 631.488 284.089 636.597 302.339 638.473C315.317 639.811 344.337 657.313 358.532 664.949Z" fill="#9C398C"/>
<path d="M270.773 557.242C279.513 557.348 291.45 558.101 304.222 560.695C329.708 565.873 358.873 578.469 372.204 608.298C372.542 609.054 372.204 609.941 371.448 610.279C370.691 610.617 369.803 610.278 369.465 609.522C356.724 581.013 328.755 568.741 303.625 563.636C291.089 561.089 279.348 560.346 270.737 560.242C266.433 560.19 262.917 560.297 260.481 560.417C259.263 560.477 258.316 560.54 257.675 560.588C257.355 560.612 257.112 560.632 256.95 560.647C256.869 560.654 256.808 560.658 256.768 560.662C256.748 560.664 256.733 560.666 256.724 560.667C256.72 560.667 256.716 560.668 256.714 560.668H256.712C255.888 560.748 255.154 560.145 255.074 559.32C254.993 558.496 255.597 557.762 256.421 557.682L256.567 559.175C256.421 557.682 256.422 557.682 256.423 557.682C256.424 557.682 256.425 557.682 256.427 557.682C256.43 557.681 256.435 557.68 256.441 557.68C256.453 557.679 256.471 557.677 256.493 557.675C256.539 557.671 256.605 557.665 256.692 557.657C256.865 557.642 257.12 557.622 257.452 557.597C258.116 557.547 259.089 557.482 260.333 557.421C262.822 557.298 266.4 557.189 270.773 557.242Z" fill="#17091D"/>
<path d="M239.528 633.695C239.539 633.695 239.554 633.697 239.575 633.698C239.617 633.7 239.678 633.702 239.759 633.707C239.921 633.715 240.161 633.728 240.473 633.746C241.098 633.782 242.017 633.839 243.198 633.925C245.559 634.097 248.967 634.383 253.167 634.836C261.565 635.743 273.139 637.322 285.842 640.015C311.165 645.385 341.3 655.246 359.537 673.297C360.125 673.88 360.13 674.831 359.547 675.419C358.965 676.008 358.015 676.013 357.426 675.43C339.846 658.028 310.461 648.303 285.219 642.951C272.64 640.283 261.171 638.717 252.845 637.819C248.684 637.37 245.31 637.087 242.98 636.918C241.815 636.833 240.911 636.776 240.299 636.741C239.994 636.723 239.761 636.711 239.606 636.703C239.528 636.699 239.47 636.696 239.431 636.694C239.412 636.693 239.398 636.692 239.389 636.692C239.385 636.692 239.381 636.692 239.378 636.692L239.377 636.691L239.443 635.193C239.506 633.789 239.51 633.7 239.511 633.695H239.528ZM239.51 633.695L239.376 636.691C238.548 636.654 237.908 635.953 237.945 635.126C237.982 634.298 238.683 633.658 239.51 633.695Z" fill="#17091D"/>
<path d="M228.932 718.067C239.496 713.763 252.493 712.788 265.929 713.674C279.385 714.562 293.41 717.326 306.105 720.603C318.807 723.882 330.214 727.684 338.444 730.665C342.56 732.157 345.884 733.444 348.182 734.359C349.33 734.816 350.223 735.181 350.829 735.432C351.132 735.557 351.364 735.654 351.52 735.72C351.599 735.753 351.658 735.778 351.698 735.795C351.718 735.804 351.734 735.81 351.744 735.815C351.749 735.817 351.753 735.818 351.756 735.82C351.757 735.82 351.759 735.82 351.76 735.821C351.761 735.821 351.755 735.835 351.171 737.201L351.761 735.822C352.522 736.147 352.876 737.029 352.551 737.79C352.225 738.552 351.343 738.906 350.581 738.58V738.579L350.579 738.578C350.577 738.578 350.573 738.576 350.568 738.575C350.559 738.571 350.545 738.565 350.526 738.557C350.489 738.541 350.432 738.516 350.356 738.485C350.205 738.421 349.98 738.326 349.683 738.203C349.088 737.957 348.208 737.598 347.072 737.146C344.801 736.241 341.506 734.965 337.423 733.486C329.254 730.526 317.94 726.757 305.355 723.508C292.765 720.258 278.937 717.54 265.731 716.668C252.505 715.796 240.028 716.785 230.064 720.844C229.297 721.157 228.422 720.789 228.109 720.022C227.797 719.255 228.165 718.379 228.932 718.067Z" fill="#17091D"/>
<path d="M231.637 807.732C249.353 796.342 273.333 794.636 295.152 796.444L296.722 796.579C312.909 798.045 327.948 801.4 338.497 804.221C342.987 805.422 346.67 806.528 349.287 807.355L351.539 808.081L351.555 808.086L352.607 808.447H352.608C352.962 808.565 353.235 808.656 353.419 808.717C353.511 808.748 353.581 808.771 353.628 808.786C353.651 808.794 353.669 808.801 353.681 808.805C353.687 808.807 353.691 808.808 353.694 808.809C353.696 808.809 353.697 808.81 353.697 808.81H353.698C354.484 809.072 354.909 809.922 354.647 810.708C354.401 811.445 353.639 811.864 352.897 811.698L352.749 811.657C352.748 811.656 352.747 811.655 352.745 811.655C352.742 811.654 352.737 811.653 352.731 811.651C352.72 811.647 352.702 811.641 352.679 811.633C352.632 811.617 352.562 811.593 352.47 811.563C352.286 811.501 352.013 811.41 351.659 811.292L351.649 811.289L350.6 810.93C348.14 810.119 343.644 808.703 337.722 807.118C327.272 804.324 312.412 801.013 296.453 799.568L294.905 799.434C273.278 797.642 250.126 799.412 233.26 810.255L233.259 810.254C232.816 810.54 232.378 810.832 231.944 811.129C231.261 811.597 230.328 811.423 229.859 810.74C229.391 810.056 229.566 809.123 230.249 808.655C230.706 808.341 231.169 808.034 231.636 807.733L231.637 807.732Z" fill="#17091D"/>
<path d="M286.81 873.365C306.926 869.905 332.808 868.167 355.423 875.282C356.213 875.531 356.652 876.373 356.403 877.163C356.155 877.953 355.312 878.392 354.521 878.144C332.584 871.241 307.265 872.891 287.318 876.322C277.366 878.034 268.795 880.182 262.714 881.901C259.674 882.761 257.258 883.513 255.605 884.049C254.779 884.317 254.144 884.53 253.717 884.677C253.503 884.75 253.342 884.806 253.234 884.844C253.181 884.863 253.14 884.876 253.114 884.886C253.101 884.89 253.092 884.894 253.086 884.897C253.083 884.898 253.08 884.898 253.079 884.898L253.078 884.899C252.299 885.18 251.439 884.775 251.159 883.995C250.879 883.216 251.283 882.357 252.063 882.076L252.57 883.487C252.063 882.076 252.064 882.076 252.064 882.075L252.066 882.074C252.069 882.073 252.072 882.073 252.076 882.071C252.084 882.069 252.096 882.065 252.11 882.06C252.14 882.049 252.183 882.033 252.24 882.013C252.355 881.973 252.524 881.915 252.745 881.839C253.187 881.687 253.838 881.468 254.681 881.194C256.366 880.648 258.818 879.885 261.897 879.015C268.056 877.273 276.731 875.099 286.81 873.365Z" fill="#17091D"/>
<path d="M610.21 486.419C608.488 498.565 603.739 517.63 589.017 540.001C575.424 560.656 521.6 559.488 517.077 559.274C493.06 558.132 473.371 561.372 456.037 557.092C370.653 536.001 358.845 478.183 355.288 471.019H355.321L366.78 469.179H366.838C376.572 468.187 386.066 467.474 386.88 467.412H386.938L581.906 475.921L582.27 476.041L582.499 476.121L582.575 476.147C583.974 476.645 587.553 477.918 592.487 479.728C597.33 481.499 603.503 483.808 610.21 486.419Z" fill="#9C398C"/>
<path d="M510.697 541.455C491.317 541.455 471.577 537.612 452.041 530.015C436.417 523.95 420.888 515.495 405.864 504.888C380.286 486.834 364.841 468.506 364.677 468.324C364.465 468.071 364.335 467.76 364.304 467.432C364.272 467.104 364.34 466.773 364.499 466.484C364.568 466.361 371.402 453.939 377.942 442.484C383.392 432.917 387.106 426.75 388.944 424.143C392.061 419.724 393.206 419.001 394.249 418.732C398.645 414.114 413.015 410.837 414.003 410.615C414.134 410.583 414.268 410.565 414.403 410.564C414.651 410.565 414.897 410.622 415.12 410.731C415.343 410.84 415.539 410.998 415.693 411.194C416.808 412.623 418.218 414.764 417.564 416.852C416.87 419.063 414.436 419.819 412.074 420.55C410.642 420.994 409.167 421.452 408.31 422.154C407.351 422.939 407.292 423.274 407.292 423.274C407.361 423.71 408.84 424.939 409.919 425.819C410.508 426.314 411.18 426.87 411.889 427.495C414.454 429.754 434.328 435.383 447.495 439.11C455.808 441.466 462.988 443.503 466.596 444.79C476.242 448.237 510.483 451.743 524.133 451.743C524.576 451.743 524.998 451.743 525.401 451.743C538.67 451.506 555.878 449.743 564.372 445.503C564.736 445.324 565.055 445.139 565.328 444.975C568.384 443.157 569.906 440.612 571.141 438.601C572.322 436.652 573.434 434.812 575.563 434.812C576.628 434.812 577.714 435.303 578.982 436.357C579.065 436.423 579.149 436.495 579.229 436.568L579.283 436.615C580.01 437.263 582.401 439.706 583.251 441.437C584.617 444.212 585.431 450.132 585.9 460.63C586.216 467.757 586.321 476.034 586.427 484.037C586.55 493.535 586.666 502.506 587.11 509.128C588.701 532.95 540.389 538.644 537.536 538.946C528.685 540.598 519.701 541.438 510.697 541.455Z" fill="#CE44A2"/>
<path d="M414.395 412.204C419.809 419.113 410.802 418 407.281 420.888C403.76 423.775 406.442 424.91 410.809 428.757C415.176 432.604 455.862 442.728 466.036 446.364C475.893 449.888 509.974 453.411 524.125 453.411C524.576 453.411 525.008 453.411 525.419 453.411C538.655 453.175 556.142 451.466 565.091 447C565.491 446.8 565.854 446.6 566.181 446.4C572.358 442.688 572.867 436.48 575.541 436.48C576.177 436.48 576.94 436.844 577.928 437.659C577.997 437.713 578.062 437.771 578.128 437.83L578.175 437.87C579.032 438.633 581.107 440.862 581.761 442.193C583.156 445.026 583.857 452.03 584.243 460.739C584.929 476.153 584.628 496.902 585.456 509.291C586.975 532.022 537.278 537.393 537.278 537.393C528.515 539.021 519.621 539.841 510.708 539.84C426.632 539.826 365.93 467.273 365.93 467.273C365.93 467.273 372.75 454.87 379.373 443.299C383.81 435.499 388.166 428.077 390.273 425.091C394.633 418.91 394.514 420.87 395.324 419.971C399.222 415.637 413.926 412.31 414.384 412.208M414.384 408.935C414.12 408.936 413.856 408.967 413.599 409.03C413.069 409.153 409.29 410.03 405.112 411.4C399.368 413.291 395.509 415.226 393.355 417.299C391.901 417.826 390.448 419.117 387.592 423.208C385.725 425.855 381.993 432.07 376.507 441.677C369.967 453.139 363.122 465.575 363.063 465.699C362.746 466.277 362.611 466.938 362.676 467.595C362.741 468.252 363.003 468.873 363.427 469.379C364.059 470.131 379.174 488.051 404.909 506.23C420.038 516.913 435.69 525.43 451.433 531.546C471.177 539.215 491.12 543.102 510.7 543.102C519.774 543.1 528.828 542.27 537.75 540.622C539.204 540.459 551.074 539.026 562.988 534.953C570.469 532.408 576.431 529.306 580.653 525.779C586.419 520.975 589.133 515.353 588.712 509.051C588.272 502.455 588.156 493.506 588.032 484.03C587.927 476.03 587.821 467.72 587.502 460.571C587.026 449.837 586.157 443.717 584.686 440.728C583.719 438.76 581.161 436.139 580.326 435.408L580.25 435.339C580.173 435.273 580.082 435.193 579.97 435.102C578.974 434.273 577.426 433.19 575.519 433.19C572.467 433.19 570.934 435.735 569.706 437.768C568.521 439.735 567.162 441.96 564.485 443.586L564.448 443.608C564.216 443.753 563.936 443.906 563.62 444.066C555.372 448.182 538.441 449.884 525.35 450.131C524.958 450.131 524.547 450.131 524.115 450.131C510.562 450.131 476.638 446.677 467.126 443.273C463.463 441.968 456.258 439.924 447.916 437.56C440.548 435.473 432.195 433.106 425.473 431.015C415.318 427.83 413.323 426.6 412.956 426.288C412.23 425.655 411.561 425.091 410.962 424.593C410.471 424.182 409.912 423.717 409.476 423.32C410.133 422.862 411.419 422.462 412.56 422.106C415.06 421.331 418.17 420.364 419.1 417.342C419.98 414.517 418.297 411.888 416.953 410.186C416.647 409.794 416.256 409.477 415.81 409.259C415.364 409.041 414.874 408.928 414.377 408.928L414.384 408.935Z" fill="#17091D"/>
<path d="M584.231 460.727C566.679 468.407 564.673 478.182 527.25 478.182C515.118 478.182 463.565 469.396 422.61 458.182C410.823 454.952 392.177 448.752 379.373 443.298C383.809 435.498 388.166 428.076 390.273 425.091C394.633 418.909 394.513 420.869 395.323 419.971C399.222 415.636 413.926 412.309 414.384 412.207C419.798 419.116 410.79 418.003 407.27 420.891C403.749 423.778 406.43 424.912 410.798 428.76C415.165 432.607 455.851 442.731 466.024 446.367C476.198 450.003 512.168 453.64 525.408 453.403C538.647 453.167 556.131 451.458 565.08 446.992C565.48 446.792 565.843 446.592 566.17 446.392C573.818 441.796 572.779 433.371 577.917 437.665C577.986 437.72 578.051 437.778 578.116 437.836L578.164 437.876C579.021 438.64 581.096 440.869 581.75 442.2C583.145 445.014 583.846 452.018 584.231 460.727Z" fill="#D969BD"/>
<path d="M530.536 451.701C530.537 451.704 530.538 451.708 530.539 451.713C530.541 451.723 530.545 451.739 530.549 451.76C530.557 451.801 530.57 451.863 530.587 451.944C530.62 452.108 530.669 452.351 530.734 452.668C530.864 453.302 531.055 454.235 531.297 455.431C531.781 457.822 532.473 461.262 533.305 465.464C534.968 473.866 537.189 485.312 539.42 497.485C543.868 521.761 548.397 549.135 548.552 560.89C548.562 561.718 547.899 562.398 547.071 562.409C546.243 562.42 545.563 561.757 545.552 560.929C545.401 549.487 540.936 522.406 536.469 498.026C534.241 485.871 532.024 474.439 530.362 466.046C529.532 461.85 528.84 458.413 528.356 456.026C528.115 454.833 527.925 453.901 527.796 453.268C527.731 452.952 527.681 452.711 527.647 452.549C527.631 452.468 527.619 452.405 527.61 452.364C527.606 452.344 527.603 452.329 527.601 452.318C527.599 452.313 527.598 452.309 527.598 452.307C527.597 452.305 527.598 452.304 527.598 452.304C527.601 452.302 527.671 452.288 529.066 452C530.535 451.697 530.536 451.697 530.536 451.698C530.536 451.699 530.536 451.7 530.536 451.701ZM528.764 450.531C529.575 450.364 530.368 450.886 530.535 451.697L527.598 452.303C527.43 451.491 527.952 450.699 528.764 450.531Z" fill="#17091D"/>
<path d="M544.054 450.525C544.868 450.375 545.651 450.912 545.802 451.726L544.327 452C545.802 451.727 545.803 451.728 545.803 451.728C545.803 451.729 545.802 451.73 545.803 451.731C545.803 451.734 545.804 451.738 545.805 451.743C545.807 451.754 545.81 451.769 545.813 451.79C545.821 451.831 545.833 451.893 545.848 451.975C545.878 452.138 545.922 452.38 545.98 452.697C546.097 453.331 546.268 454.265 546.485 455.46C546.92 457.851 547.541 461.292 548.287 465.493C549.78 473.895 551.774 485.341 553.777 497.513C557.774 521.794 561.841 549.152 561.995 560.89C562.006 561.718 561.344 562.398 560.516 562.409C559.687 562.42 559.007 561.757 558.996 560.929C558.845 549.47 554.828 522.373 550.816 497.999C548.816 485.844 546.825 474.411 545.334 466.018C544.588 461.821 543.967 458.384 543.533 455.997C543.316 454.804 543.146 453.872 543.03 453.239C542.972 452.923 542.927 452.681 542.897 452.518C542.882 452.437 542.871 452.376 542.863 452.335C542.859 452.314 542.857 452.298 542.855 452.288C542.854 452.283 542.853 452.279 542.852 452.276V452.273C542.702 451.459 543.239 450.676 544.054 450.525Z" fill="#17091D"/>
</svg>
