<svg width="1800" height="1650" viewBox="0 0 1800 1650" fill="none" xmlns="http://www.w3.org/2000/svg">
<g id="Body 14">
<g id="body 14">
<g id="down">
<path id="Vector" d="M818.13 1637C757.22 1637 688.13 1627.69 612.75 1609.32C524.75 1587.87 459.13 1561.32 458.48 1561.03L455.55 1559.83L465.55 1323.4L499.9 1168.6L504.23 1169.48C518.37 1172.36 534.23 1175 551.37 1177.32C624.14 1187.2 724.07 1192.21 848.37 1192.21C872.31 1192.21 897.37 1192.03 922.93 1191.65H923.93C929.73 1191.56 935.5 1191.48 941.25 1191.37L950.36 1191.2C962.13 1190.97 973.97 1190.71 985.56 1190.42C1118.92 1187.09 1229.49 1180.11 1250.31 1178.74L1258.01 1178.21L1258.81 1182.05C1258.81 1182.05 1259.01 1182.97 1259.36 1184.7C1259.84 1187.07 1271.36 1243.64 1285.76 1312.31C1299.47 1377.96 1329.76 1451.68 1349.76 1500.46C1358.17 1520.94 1364.76 1537.12 1367.3 1545.77C1370.46 1556.77 1369.04 1566.52 1363.08 1574.87C1353.2 1588.72 1331.61 1598.21 1295.15 1604.74C1262.62 1610.56 1222.51 1613.16 1184.02 1615.11C1174.12 1615.61 1164.91 1615.86 1155.86 1615.86C1136.44 1615.86 1121.32 1614.71 1106.71 1613.6C1092.86 1612.6 1079.78 1611.6 1063.48 1611.5H1061.91C1027.3 1611.5 985.64 1615.92 926.85 1625.83L925.24 1626.1L923.54 1626.38L922.99 1626.48C916.62 1627.56 909.99 1628.73 902.67 1630.04C876.86 1634.66 848.41 1637 818.13 1637Z" fill="#7E4282"/>
<path id="Vector_2" d="M503.33 1173.89C517.91 1176.89 533.8 1179.48 550.77 1181.78C633.46 1193.01 741.69 1196.71 848.38 1196.71C873.46 1196.71 898.45 1196.51 923.01 1196.15H923.47C929.47 1196.06 935.43 1195.96 941.35 1195.86L950.47 1195.69C962.36 1195.46 974.12 1195.2 985.69 1194.91C1119.37 1191.57 1229.14 1184.63 1250.62 1183.22L1254.42 1182.96C1254.42 1182.96 1254.61 1183.87 1254.96 1185.59C1257.45 1197.77 1268.33 1250.83 1281.36 1313.22C1301.04 1407.4 1354.86 1518.82 1362.99 1547.01C1377.26 1596.51 1284.49 1605.51 1183.8 1610.61C1173.45 1611.13 1164.25 1611.35 1155.87 1611.35C1118.67 1611.35 1097.62 1607.12 1063.51 1606.99H1062C1032.58 1606.99 993.33 1610.06 926.17 1621.38L924.57 1621.65L922.31 1622.03C915.784 1623.14 908.994 1624.33 901.94 1625.6C874.94 1630.45 846.76 1632.53 818.18 1632.53C747.74 1632.53 675.18 1619.9 613.86 1604.97C525.14 1583.35 460.23 1556.88 460.23 1556.88L470 1324L503.33 1173.89ZM496.46 1163.31L494.54 1171.94L461.21 1322.05L461.04 1322.83V1323.62L451.22 1556.49L450.95 1562.81L456.81 1565.2C457.47 1565.47 523.36 1592.2 611.71 1613.7C687.43 1632.16 756.89 1641.52 818.16 1641.52C848.71 1641.52 877.43 1639.14 903.51 1634.45C910.79 1633.14 917.43 1631.98 923.8 1630.89L924.21 1630.82L925.97 1630.53H926L927.52 1630.27H927.62C986.15 1620.41 1027.62 1616.01 1061.95 1616.01H1063.52C1079.63 1616.07 1092.62 1617.01 1106.39 1618.1C1121.09 1619.22 1136.3 1620.37 1155.88 1620.37C1165.01 1620.37 1174.3 1620.12 1184.26 1619.62C1222.91 1617.62 1263.19 1615.04 1295.96 1609.18C1333.66 1602.43 1356.15 1592.36 1366.76 1577.5C1373.56 1567.97 1375.21 1556.88 1371.65 1544.5C1369.08 1535.61 1362.73 1520.13 1353.94 1498.72C1333.94 1450.09 1303.81 1376.6 1290.18 1311.36C1275.84 1242.7 1264.27 1186.14 1263.79 1183.77L1263.24 1181.1L1261.63 1173.42L1253.81 1173.96L1250.16 1174.21H1250C1229.21 1175.57 1118.72 1182.55 985.44 1185.88C973.97 1186.17 962.14 1186.43 950.27 1186.66L941.17 1186.83C935.25 1186.94 929.31 1187.04 923.35 1187.12H922.85C897.33 1187.49 872.26 1187.68 848.35 1187.68C724.24 1187.68 624.52 1182.68 551.95 1172.83C534.88 1170.52 519.12 1167.9 505.1 1165.04L496.43 1163.28L496.46 1163.31Z" fill="#17091D"/>
<path id="Vector_3" d="M616.36 1530C616.06 1551 615.03 1578.28 613.81 1605C525.09 1583.38 460.18 1556.91 460.18 1556.91L470 1324L503.33 1173.89C517.91 1176.89 533.8 1179.48 550.77 1181.78C543.16 1207.53 527.98 1269.09 544.83 1303.37C545.96 1305.67 547.17 1308.18 548.44 1310.88C571.65 1360 617.18 1472.65 616.36 1530Z" fill="#5C2C66"/>
<path id="Vector_4" d="M942 1583C991.39 1562.68 1015.41 1417.4 1030 1434C1043.56 1449.43 1041.26 1560.45 1056.29 1592.16C1058.78 1597.42 1061.19 1602.36 1063.52 1606.98C1033.92 1606.87 991.36 1612.48 923 1623.98C933.76 1610.79 904.62 1598.39 942 1583Z" fill="#5C2C66"/>
<path id="Vector_5" d="M1119.2 1493.92C1120.55 1492.83 1121.5 1492.07 1121.96 1491.72C1121.51 1492.09 1120.57 1492.84 1119.2 1493.92Z" fill="#5C2C66"/>
<path id="Vector_6" d="M1281.37 1313.21C1261.76 1294.3 1238.67 1272.75 1227.51 1264.91C1206.01 1249.82 1151 1270 1084.86 1284.91C1064.38 1289.53 1041.49 1292.36 1019.66 1294.07C989.026 1296.35 958.294 1297.02 927.59 1296.07L924.59 1266.23L923.48 1264.58L923.05 1196.12V1194C923.05 1194 932.47 1195.39 941.4 1195.85C943.34 1195.95 945.26 1196.01 947.05 1196C947.61 1196 948.82 1196.16 950.62 1196.37C962.332 1197.71 974.181 1197.22 985.74 1194.9C1119.42 1191.56 1229.19 1184.62 1250.67 1183.21L1255.01 1185.58C1257.46 1197.76 1268.34 1250.82 1281.37 1313.21Z" fill="#5C2C66"/>
<path id="Vector_7" d="M1020.06 1251.5C1020.06 1251.5 1026.44 1565.95 923.47 1590.72" stroke="#17091D" stroke-width="9" stroke-linecap="round" stroke-linejoin="round"/>
<path id="Vector_8" d="M962 1269L927.59 1296.1L923.34 1295.2C884.14 1287.08 586.08 1228.28 548.44 1310.88C546.531 1315.11 545.312 1319.62 544.83 1324.23C538.99 1377.94 512.2 1357.32 486.57 1322.69L503.33 1173.89C517.91 1176.89 533.8 1179.48 550.77 1181.78C652.9 1195.65 794 1198 923 1196.15V1194C923 1194 932.42 1195.39 941.35 1195.85L950.47 1195.68L950.57 1196.37L962 1269Z" fill="#5C2C66"/>
<path id="Vector_9" d="M922.25 1626.37L922.26 1622.02L923.44 1264.61L923.47 1194.5" stroke="#17091D" stroke-width="9" stroke-linecap="round" stroke-linejoin="round"/>
</g>
<g id="collar back">
<path id="Vector_10" d="M1132.84 344.729C1132.5 344.734 1132.17 344.7 1131.84 344.629C1130.72 344.389 1018.52 320.109 907.53 295.079C842.33 280.369 790.29 268.289 752.87 259.169C730.61 253.749 713.33 249.319 701.5 246.009C680.42 240.109 679.12 238.729 678.44 235.609C676.58 227.019 655.44 121.379 654.55 116.879C654.321 115.757 654.532 114.59 655.14 113.619L696.14 47.6194C696.572 46.9252 697.188 46.3644 697.92 45.9994C700.55 44.6194 763.36 12.2794 841.75 12.2794C853.162 12.2681 864.562 12.9929 875.88 14.4494C917.47 19.8694 961.07 26.7894 998.11 40.6394C1036 54.8094 1063.8 74.6994 1085.58 103.259C1130.93 162.719 1137.09 332.859 1137.33 340.069C1137.35 340.673 1137.25 341.274 1137.04 341.838C1136.82 342.402 1136.5 342.917 1136.08 343.351C1135.66 343.786 1135.15 344.131 1134.6 344.366C1134.04 344.601 1133.44 344.721 1132.84 344.719V344.729Z" fill="#CE44A2"/>
<path id="Vector_11" d="M841.75 16.7896C852.965 16.7738 864.169 17.4886 875.29 18.9296C968 30.9996 1037 46.9996 1082 106C1127 165 1132.84 340.23 1132.84 340.23C1132.84 340.23 684.75 243.3 682.84 234.65C680.93 226 659 116 659 116L700 49.9996C700 49.9996 763.56 16.7996 841.75 16.7896ZM841.75 7.7896C800.19 7.7896 762.81 17.0596 738.75 24.7896C712.7 33.2696 696.51 41.6696 695.83 41.9996C694.404 42.7486 693.203 43.8633 692.35 45.2296L651.35 111.23C650.15 113.177 649.728 115.505 650.17 117.75C651.07 122.24 672.17 227.92 674.08 236.54C675.32 242.26 680.83 244.19 685.26 245.74C688.79 246.97 693.71 248.47 700.32 250.32C712.21 253.64 729.54 258.09 751.84 263.52C789.29 272.65 841.35 284.74 906.58 299.45C1017.58 324.45 1129.81 348.77 1130.93 349.01C1131.56 349.146 1132.2 349.213 1132.84 349.21C1134.05 349.21 1135.24 348.968 1136.36 348.497C1137.47 348.026 1138.47 347.336 1139.31 346.468C1140.15 345.601 1140.81 344.573 1141.24 343.446C1141.68 342.319 1141.88 341.117 1141.84 339.91C1141.84 339.47 1140.28 295.05 1133.22 243.99C1123.6 174.51 1108.78 126.24 1089.22 100.52C1066.9 71.2596 1038.47 50.8896 999.75 36.4196C962.29 22.4196 918.38 15.4196 876.52 9.9796C865.01 8.49976 853.416 7.76157 841.81 7.7696L841.75 7.7896Z" fill="#17091D"/>
<path id="Vector_12" d="M703.3 146.33L925.54 123.21L1096.71 186.53L1129.17 389.77L1060 741.09L885.5 687.5C885.5 687.5 640.88 234.35 643.69 229.43C646.5 224.51 643.69 162.33 643.69 162.33L658.08 142.5L703.3 146.33Z" fill="#5C2C66" stroke="#17091D" stroke-width="9" stroke-miterlimit="10"/>
<path id="Vector_13" d="M690.64 64C690.64 64 781.42 41.6 875.5 42.5C980.5 43.5 1062.5 106.5 1062.5 106.5L1085.26 260C1085.26 260 1041.5 142.5 858.5 146.5C679.83 150.41 659.2 196.44 659.2 196.44L690.64 64Z" fill="#9C398C" stroke="#17091D" stroke-width="9" stroke-linecap="round" stroke-linejoin="round"/>
</g>
<g id="glove 2">
<path id="Vector_14" d="M1417.21 1611.77C1404.34 1611.77 1389.7 1605.69 1375.55 1599.77C1370.72 1597.77 1366.16 1595.87 1361.87 1594.31C1355.12 1591.85 1350.32 1590.71 1346.76 1590.71C1346.17 1590.71 1345.58 1590.75 1345 1590.82C1343.28 1591.06 1341.54 1591.19 1339.8 1591.19C1329.87 1591.19 1320.7 1587.07 1315.27 1580.19C1313.06 1577.44 1311.51 1574.21 1310.76 1570.76C1310 1567.31 1310.05 1563.73 1310.91 1560.31C1310.99 1560.01 1311.06 1559.7 1311.11 1559.39C1314.01 1544.3 1323.49 1499.39 1328.72 1482.62C1330.58 1476.62 1327.85 1468.27 1324.96 1459.41C1321.29 1448.13 1317.11 1435.34 1322.25 1424.41C1322.55 1423.79 1322.84 1423.19 1323.15 1422.6C1331.72 1406.22 1356.69 1374.52 1362.24 1367.55C1361.97 1361.2 1361.14 1338.09 1361.87 1313.61C1363.64 1254.35 1372.62 1244.91 1375.58 1241.81C1376.67 1240.58 1378 1239.58 1379.49 1238.89C1380.98 1238.21 1382.6 1237.84 1384.24 1237.81C1393.56 1237.81 1419.24 1229.13 1439.79 1222.15C1453.79 1217.39 1467.12 1212.89 1475.39 1210.95C1479.32 1210.01 1483.35 1209.53 1487.39 1209.52C1498.39 1209.52 1507.24 1213.26 1514.39 1216.26C1519.65 1218.48 1524.19 1220.4 1528.26 1220.4C1529.67 1220.41 1531.06 1220.16 1532.38 1219.66C1533.11 1219.39 1533.89 1219.25 1534.67 1219.25C1541.17 1219.25 1544.17 1227.8 1546.67 1240.65C1548.53 1250.24 1550.23 1263.55 1551.67 1280.21C1553.91 1305.34 1554.99 1330.76 1555.21 1336.21C1560.9 1346.56 1605.21 1429.42 1599.21 1489.01C1597.4 1507.07 1591.07 1521.38 1580.4 1531.55L1579.73 1532.18C1574.9 1536.62 1570.01 1540.86 1565.17 1544.8C1553.5 1554.42 1540.95 1562.92 1527.68 1570.17C1501.04 1584.48 1483.31 1586.02 1476.92 1586.02C1475.51 1586.03 1474.09 1585.94 1472.69 1585.75H1472.35C1471.87 1585.76 1471.39 1585.84 1470.93 1585.99C1467.7 1586.92 1463.19 1590.11 1457.93 1593.8C1449.16 1600 1438.24 1607.72 1424.93 1610.89C1422.4 1611.48 1419.81 1611.78 1417.21 1611.77Z" fill="#CE44A2"/>
<path id="Vector_15" d="M1487.38 1214.05C1505.45 1214.05 1516.93 1224.92 1528.22 1224.92C1530.16 1224.94 1532.09 1224.6 1533.91 1223.92C1534.14 1223.83 1534.38 1223.79 1534.63 1223.79C1546.63 1223.79 1550.77 1337.53 1550.77 1337.53C1550.77 1337.53 1600.9 1427.03 1594.77 1488.65C1593.19 1504.35 1587.97 1518.23 1577.33 1528.37L1576.69 1528.97C1571.8 1533.47 1567.02 1537.61 1562.36 1541.39C1550.92 1550.84 1538.61 1559.18 1525.58 1566.29C1502.52 1578.68 1485.4 1581.61 1476.95 1581.61C1475.76 1581.62 1474.57 1581.54 1473.39 1581.38C1473.06 1581.33 1472.72 1581.31 1472.39 1581.31C1471.49 1581.32 1470.59 1581.46 1469.73 1581.72C1459.73 1584.59 1444.63 1601.66 1423.92 1606.57C1421.73 1607.07 1419.49 1607.32 1417.24 1607.3C1400.99 1607.3 1380.12 1596.23 1363.44 1590.16C1357.14 1587.86 1351.44 1586.29 1346.79 1586.29C1345.99 1586.29 1345.2 1586.34 1344.41 1586.44C1342.89 1586.65 1341.36 1586.76 1339.82 1586.76C1324.15 1586.76 1311.98 1575.3 1315.3 1561.42C1315.39 1561.05 1315.48 1560.67 1315.55 1560.25C1318.74 1543.67 1328.03 1500.04 1333.03 1484.02C1338.03 1468 1318.2 1443.7 1326.34 1426.37C1326.6 1425.82 1326.87 1425.27 1327.16 1424.72C1336.51 1406.84 1366.82 1369.08 1366.82 1369.08C1366.82 1369.08 1360.64 1242.36 1384.26 1242.36C1400.64 1242.36 1455.52 1220.28 1476.44 1215.36C1480.04 1214.5 1483.74 1214.06 1487.44 1214.06M1487.44 1205.06C1483.06 1205.08 1478.7 1205.59 1474.44 1206.6C1465.96 1208.6 1452.59 1213.12 1438.44 1217.92C1419.23 1224.43 1392.91 1233.35 1384.33 1233.35C1382.08 1233.37 1379.85 1233.86 1377.8 1234.79C1375.75 1235.72 1373.91 1237.06 1372.41 1238.74C1366.78 1244.66 1359.1 1258.84 1357.47 1313.51C1356.78 1336.61 1357.47 1357.98 1357.77 1366.09C1350.6 1375.15 1327.55 1404.71 1319.26 1420.54C1318.96 1421.12 1318.65 1421.75 1318.26 1422.47V1422.53C1312.37 1435.08 1316.83 1448.77 1320.77 1460.84C1323.32 1468.65 1325.95 1476.71 1324.51 1481.32C1319.23 1498.25 1309.69 1543.42 1306.79 1558.54C1306.79 1558.54 1306.79 1558.6 1306.79 1558.64C1306.79 1558.68 1306.71 1559.03 1306.66 1559.24V1559.31C1305.64 1563.4 1305.58 1567.66 1306.48 1571.77C1307.39 1575.89 1309.23 1579.74 1311.86 1583.02C1318.14 1591.02 1328.63 1595.73 1339.92 1595.73C1341.87 1595.73 1343.82 1595.59 1345.76 1595.32C1346.13 1595.27 1346.51 1595.25 1346.89 1595.25C1349.89 1595.25 1354.31 1596.34 1360.47 1598.58C1364.66 1600.11 1369.17 1601.98 1373.95 1603.97C1388.51 1609.97 1403.57 1616.26 1417.34 1616.26C1420.29 1616.27 1423.22 1615.93 1426.09 1615.26C1440.29 1611.9 1451.6 1603.9 1460.7 1597.47C1465.18 1594.3 1469.81 1591.02 1472.31 1590.31H1472.47C1473.99 1590.51 1475.53 1590.6 1477.06 1590.59C1483.79 1590.59 1502.41 1589 1529.94 1574.21C1543.47 1566.82 1556.26 1558.17 1568.15 1548.36C1573.05 1544.36 1578.01 1540.08 1582.89 1535.58L1582.95 1535.52L1583.65 1534.87C1595.11 1523.94 1601.9 1508.69 1603.82 1489.54C1606.52 1462.54 1599.7 1427.96 1583.57 1386.71C1576.66 1369.04 1568.72 1351.8 1559.8 1335.06C1559.5 1327.88 1558.41 1303.74 1556.28 1279.86C1554.79 1263.05 1553.06 1249.58 1551.17 1239.86C1550.31 1234.9 1548.99 1230.03 1547.23 1225.31C1544.4 1218.31 1540.23 1214.82 1534.77 1214.81C1533.45 1214.81 1532.14 1215.05 1530.91 1215.51C1530.09 1215.82 1529.22 1215.97 1528.35 1215.96C1525.19 1215.96 1521.03 1214.21 1516.23 1212.18C1508.74 1209.02 1499.42 1205.09 1487.51 1205.09L1487.44 1205.06Z" fill="#17091D"/>
<path id="Vector_16" d="M1344.38 1586.42C1349.38 1585.72 1355.98 1587.42 1363.38 1590.14C1382.45 1597.08 1406.99 1610.55 1423.86 1606.55C1444.57 1601.64 1459.68 1584.55 1469.67 1581.7C1470.85 1581.32 1472.11 1581.21 1473.34 1581.36C1479.67 1582.36 1498.52 1580.78 1525.53 1566.27C1538.56 1559.16 1550.87 1550.82 1562.31 1541.37C1566.98 1537.58 1571.75 1533.44 1576.64 1528.95L1577.28 1528.35C1585.65 1520.23 1591.28 1506.35 1594.72 1488.63C1600.87 1427.01 1550.72 1337.51 1550.72 1337.51C1550.72 1337.51 1546.42 1219.23 1533.86 1223.9C1518.39 1229.67 1504.55 1208.74 1476.36 1215.35C1455.44 1220.26 1400.56 1242.35 1384.18 1242.35C1360.56 1242.35 1366.74 1369.07 1366.74 1369.07C1366.74 1369.07 1336.43 1406.83 1327.08 1424.71C1326.79 1425.26 1326.52 1425.81 1326.26 1426.36C1332.53 1420.63 1363.52 1393.18 1386.33 1389.97C1411.81 1386.39 1474.83 1384.07 1497.44 1378.58C1520.05 1373.09 1538.81 1402.52 1546.84 1437.88C1552.22 1461.49 1565.71 1491.09 1559.1 1513.56C1555.82 1524.74 1547.58 1534.15 1530.92 1540.21C1529.17 1540.85 1527.45 1541.46 1525.78 1542.05C1501.26 1550.6 1483.24 1554.18 1468.91 1557.34C1455.91 1560.2 1445.97 1562.71 1436.91 1568.23C1422.22 1577.23 1397.82 1593.74 1358.91 1582.23C1346.05 1578.42 1331.59 1571.52 1315.38 1560.23C1315.31 1560.65 1315.22 1561.03 1315.13 1561.4C1311.63 1576.61 1326.59 1588.92 1344.38 1586.42Z" fill="#9C398C"/>
<path id="Vector_17" d="M1390.57 1543.13C1390.57 1543.13 1386.38 1512.48 1350.57 1492.13" stroke="#17091D" stroke-width="8.86" stroke-linecap="round" stroke-linejoin="round"/>
<path id="Vector_18" d="M1371.86 1512.65C1371.86 1512.65 1336.51 1556.23 1366.51 1594.45" stroke="#17091D" stroke-width="8.86" stroke-linecap="round" stroke-linejoin="round"/>
<path id="Vector_19" d="M1455.58 1510.44C1455.58 1510.44 1474.99 1557.3 1469.23 1584.36" stroke="#17091D" stroke-width="10.67" stroke-linecap="round" stroke-linejoin="round"/>
<path id="Vector_20" d="M1518.18 1514.17C1518.18 1514.17 1535.44 1557.86 1521.64 1573.73" stroke="#17091D" stroke-width="8.79" stroke-linecap="round" stroke-linejoin="round"/>
<path id="Vector_21" d="M1558.81 1512.72C1558.81 1512.72 1570.7 1539.99 1555.6 1552.1" stroke="#17091D" stroke-width="7" stroke-linecap="round" stroke-linejoin="round"/>
<path id="Vector_22" d="M1425 1567C1432.18 1567 1438 1554.24 1438 1538.5C1438 1522.76 1432.18 1510 1425 1510C1417.82 1510 1412 1522.76 1412 1538.5C1412 1554.24 1417.82 1567 1425 1567Z" fill="#D969BD"/>
<path id="Vector_23" d="M1496.06 1539.13C1503.02 1537.35 1506.16 1526.15 1503.08 1514.11C1500 1502.07 1491.86 1493.75 1484.91 1495.53C1477.95 1497.31 1474.81 1508.51 1477.89 1520.55C1480.97 1532.59 1489.1 1540.91 1496.06 1539.13Z" fill="#D969BD"/>
<path id="Vector_24" d="M1540.37 1518.54C1546.38 1517 1549.51 1508.94 1547.36 1500.54C1545.21 1492.14 1538.6 1486.58 1532.59 1488.12C1526.58 1489.65 1523.45 1497.71 1525.6 1506.11C1527.75 1514.51 1534.36 1520.07 1540.37 1518.54Z" fill="#D969BD"/>
</g>
<g id="arm 2">
<path id="Vector_25" d="M1383.24 1316.25C1369.53 1316.19 1356.38 1310.77 1346.61 1301.15C1336.83 1291.54 1331.19 1278.49 1330.9 1264.78C1330.9 1264.49 1330.9 1264.15 1330.9 1263.78C1330.9 1263.64 1330.9 1263.52 1330.9 1263.42V1263.19C1330.9 1261.76 1330.9 1260.32 1330.85 1258.88V1258.67C1330.85 1257.9 1330.85 1257.13 1330.85 1256.36C1330.73 1233.1 1331.85 1213.77 1334.03 1198.93C1340.78 1153.85 1316.78 1034.93 1298.14 949.42C1277.56 854.96 1257.56 716.24 1268.95 636.18C1274.61 596.37 1273.23 543.18 1271.89 491.67C1270.63 443.04 1269.44 397.1 1274.77 369.82C1275.58 365.391 1276.77 361.041 1278.34 356.82C1295.62 312.1 1340.91 278.95 1342.83 277.56C1343.6 277.006 1344.52 276.709 1345.47 276.71C1346.07 276.708 1346.66 276.826 1347.21 277.056C1347.75 277.286 1348.25 277.624 1348.67 278.05C1349.27 278.65 1363.6 293.3 1380.98 324.46C1396.92 353.03 1418.54 401.55 1430.98 470.46C1455.38 605.17 1491.98 719.1 1505.71 761.99C1513.42 786.04 1523.95 811.44 1533.24 833.85C1543.24 858.1 1551.96 879.05 1554.39 891.85C1555 895.08 1555.63 898.32 1556.27 901.62C1560.35 922.7 1564.98 946.62 1570.09 987.62C1570.99 994.9 1572.66 1007.26 1574.77 1022.91C1582.25 1078.43 1594.77 1171.35 1599.99 1233.5C1600.61 1240.7 1601.11 1247.5 1601.49 1253.72C1601.63 1256.04 1601.78 1258.17 1601.91 1260.13C1603.2 1279.55 1603.55 1284.77 1591.91 1298.42C1590.18 1300.42 1590.18 1300.42 1554.71 1302.32C1514.57 1304.43 1447.38 1307.97 1398.03 1314.68L1395.42 1315.04C1394.27 1315.2 1393.16 1315.35 1392.07 1315.52H1391.84L1391.06 1315.63C1388.47 1316.03 1385.86 1316.23 1383.24 1316.25Z" fill="#CE44A2"/>
<path id="Vector_26" d="M1345.43 281.26C1345.43 281.26 1402.61 339.1 1426.55 471.26C1450.49 603.42 1485.34 713.26 1501.42 763.36C1517.5 813.46 1545.42 868.83 1549.97 892.64C1554.52 916.45 1559.73 940.83 1565.62 988.14C1569.67 1020.7 1588.8 1153.88 1595.51 1233.84C1596.12 1241.01 1596.62 1247.76 1597 1253.96C1598.55 1279.13 1600 1281.96 1588.5 1295.46C1587.09 1297.12 1472 1300.04 1397.44 1310.18L1394.78 1310.55L1391.33 1311.04L1390.41 1311.17C1388.05 1311.52 1385.67 1311.7 1383.29 1311.7C1370.75 1311.69 1358.71 1306.76 1349.77 1297.97C1340.82 1289.18 1335.68 1277.24 1335.45 1264.7C1335.45 1264.34 1335.45 1263.98 1335.45 1263.62C1335.44 1263.57 1335.44 1263.51 1335.45 1263.46C1335.45 1261.95 1335.45 1260.46 1335.4 1258.89C1335.4 1258.06 1335.4 1257.23 1335.4 1256.4C1335.3 1236.87 1336.02 1216.35 1338.53 1199.64C1345.59 1152.5 1319.59 1026.5 1302.59 948.5C1285.59 870.5 1261.31 722.2 1273.45 636.85C1284.64 558.2 1268.53 425.5 1279.24 370.72C1280 366.556 1281.12 362.467 1282.59 358.5C1299.59 314.5 1345.52 281.26 1345.52 281.26M1345.52 272.26C1343.62 272.259 1341.78 272.858 1340.24 273.97C1338.24 275.39 1291.95 309.3 1274.19 355.26C1272.53 359.719 1271.26 364.317 1270.41 369C1264.98 396.76 1266.18 442.94 1267.41 491.83C1268.74 543.12 1270.12 596.15 1264.51 635.58C1259 674.29 1260.22 728.42 1268.12 796.47C1276.27 866.58 1288.77 927.47 1293.77 950.42C1304.46 999.49 1337.01 1148.83 1329.6 1198.31C1327.34 1213.37 1326.25 1232.93 1326.37 1256.45C1326.37 1257.2 1326.37 1258 1326.37 1258.8V1259C1326.37 1260.41 1326.37 1261.87 1326.42 1263.32V1263.52C1326.42 1263.62 1326.42 1263.77 1326.42 1263.94C1326.42 1264.11 1326.42 1264.58 1326.42 1264.94C1326.69 1279.84 1332.8 1294.03 1343.43 1304.48C1354.06 1314.92 1368.36 1320.78 1383.26 1320.79C1386.08 1320.79 1388.91 1320.58 1391.7 1320.16H1391.81C1392.03 1320.16 1392.23 1320.09 1392.45 1320.07L1392.83 1320.01C1393.89 1319.85 1394.95 1319.7 1396.03 1319.56H1396.12L1398.65 1319.21C1447.84 1312.52 1514.91 1308.99 1554.99 1306.88C1564.99 1306.36 1573.55 1305.88 1579.51 1305.52C1589.81 1304.86 1592.58 1304.69 1595.38 1301.4C1601.02 1294.77 1604.6 1289.58 1606.16 1282.68C1607.53 1276.58 1607.11 1270.3 1606.42 1259.9C1606.29 1257.9 1606.14 1255.82 1606 1253.52C1605.62 1247.26 1605.11 1240.42 1604.5 1233.19C1599.27 1170.93 1586.74 1077.94 1579.25 1022.37C1577.14 1006.74 1575.47 994.37 1574.57 987.14C1569.44 945.95 1564.8 921.97 1560.71 900.82C1560.07 897.52 1559.44 894.29 1558.83 891.07C1556.32 877.86 1547.56 856.72 1537.41 832.24C1528.16 809.91 1517.67 784.59 1510.01 760.72C1496.27 717.91 1459.78 604.19 1435.43 469.77C1422.84 400.26 1401 351.26 1384.89 322.39C1367.21 290.7 1352.47 275.63 1351.89 275C1351.05 274.154 1350.06 273.482 1348.96 273.024C1347.86 272.565 1346.68 272.329 1345.49 272.33L1345.52 272.26Z" fill="#17091D"/>
<path id="Vector_27" d="M1588.5 1295.5C1586.33 1295.32 1471.95 1299.97 1397.44 1310.22L1394.78 1310.59L1391.33 1311.08C1384.47 1312.07 1377.47 1311.59 1370.81 1309.68C1364.14 1307.76 1357.96 1304.44 1352.68 1299.95C1347.39 1295.46 1343.12 1289.9 1340.15 1283.64C1337.18 1277.37 1335.57 1270.54 1335.44 1263.61C1335.43 1263.56 1335.43 1263.5 1335.44 1263.45C1335.44 1261.94 1335.44 1260.45 1335.39 1258.88C1335.39 1258.05 1335.39 1257.22 1335.39 1256.39C1335.29 1236.86 1336.01 1216.34 1338.52 1199.63C1345.58 1152.49 1319.58 1026.49 1302.58 948.49C1285.58 870.49 1261.3 722.19 1273.44 636.84C1284.63 558.19 1268.52 425.49 1279.23 370.71L1332 508.56L1334.88 516.51C1338.6 526.87 1378.76 602 1357 803C1357 803 1344.32 882.73 1381.67 860.39C1419.02 838.05 1460.38 830.08 1457.67 840.06C1454.96 850.04 1375 879 1372 895C1369 911 1403.26 893.52 1439.63 892.76C1476 892 1541.47 894.28 1500.23 903.14C1458.99 912 1436 893 1406 931C1376 969 1350 995 1368 1035C1386 1075 1390.39 1235.22 1442.7 1239.11C1473.28 1241.39 1544.26 1238.97 1595.51 1233.88C1596.12 1241.05 1596.62 1247.8 1597 1254C1598.55 1279.17 1600 1282 1588.5 1295.5Z" fill="#9C398C"/>
<path id="Vector_28" d="M1328.83 934.71C1328.83 934.71 1414.05 882.199 1494.77 899.349" stroke="#17091D" stroke-width="9" stroke-linecap="round" stroke-linejoin="round"/>
<path id="Vector_29" d="M1354.25 921.58C1354.25 921.58 1385.73 876.2 1436.62 854.85" stroke="#17091D" stroke-width="9" stroke-linecap="round" stroke-linejoin="round"/>
<path id="Vector_30" d="M1335.58 1234.66C1335.58 1234.66 1485.27 1256.16 1598.5 1231.5" stroke="#17091D" stroke-width="9" stroke-linecap="round" stroke-linejoin="round"/>
<path id="Vector_31" d="M1534.07 1242.64C1534.07 1242.64 1528.44 1273.8 1534.47 1298.15" stroke="#17091D" stroke-width="9" stroke-linecap="round" stroke-linejoin="round"/>
<path id="Vector_32" d="M1451.62 1245.39C1451.62 1245.39 1443.49 1281.29 1455 1307.89" stroke="#17091D" stroke-width="9" stroke-linecap="round" stroke-linejoin="round"/>
<path id="Vector_33" d="M1375.28 1240.14C1375.28 1240.14 1370.5 1296.5 1381.5 1315.5" stroke="#17091D" stroke-width="9" stroke-linecap="round" stroke-linejoin="round"/>
</g>
<g id="body">
<path id="Vector_34" d="M1136.09 1249.89C1000.75 1249.89 854.52 1246.6 744.94 1241.1C676.68 1237.67 621.51 1233.4 580.94 1228.41C517.32 1220.58 503.05 1212.69 497.84 1207.41C496.802 1206.46 495.969 1205.3 495.391 1204.02C494.813 1202.73 494.504 1201.34 494.48 1199.93C494.61 1184.12 503.2 1129.22 508.91 1117.06C521.53 1090.13 530.5 1052.75 532.75 1042.84C499.69 1010.84 501.75 930.36 502.1 921.05C492.26 886.96 482.82 816.58 478.05 777.48C476.83 767.48 476.05 760.68 475.9 759.22C472.53 745.6 363.23 304.35 358.6 285.02C355.28 271.14 372.44 255.61 387.42 245.02C404.78 232.76 426.89 221.82 443.75 217.16C459.54 212.8 510.45 191.95 587.1 158.45C595.67 154.7 603.49 151.26 610.1 148.33L614.59 146.33L622 143.05C628.68 140.05 641.06 134.86 641.19 134.8C641.745 134.569 642.34 134.45 642.94 134.45C643.541 134.45 644.136 134.569 644.69 134.8C645.245 135.036 645.746 135.38 646.165 135.813C646.584 136.246 646.912 136.758 647.13 137.32L676.74 213.32L890.07 619.62L947.34 645L1019.81 523.23L1111.65 170.85C1111.82 170.235 1112.11 169.663 1112.52 169.172C1112.92 168.68 1113.43 168.281 1114 168C1114.62 167.7 1115.31 167.542 1116 167.54C1116.6 167.54 1117.2 167.662 1117.75 167.9C1138.75 176.8 1323.82 255.49 1341.18 277.6C1345.27 282.82 1350.98 297.49 1353.3 364.33C1354.73 405.33 1354.45 451.41 1354.3 485.08C1354.18 503.78 1354.09 518.54 1354.39 523.72C1355.84 548.84 1338.39 695.57 1323.22 774.66C1308.22 853.02 1319.16 897.56 1327.15 930.08L1328.03 933.68C1331.37 947.33 1330.48 970.19 1325.4 1001.62C1321.54 1025.51 1316.4 1046.99 1315.2 1051.85C1319.43 1071.94 1321.2 1088.71 1320.63 1103.09L1320.51 1105.48C1319.51 1122.84 1315.06 1133.22 1311.51 1141.57C1309.51 1146.39 1307.68 1150.57 1307.08 1155.02C1307.17 1156.28 1308.08 1160.85 1308.95 1165.27C1315.59 1198.73 1321.6 1235.27 1308.71 1244.67C1307.1 1245.85 1304.91 1247.46 1256.19 1248.67C1225.25 1249.47 1183.74 1249.89 1136.09 1249.89Z" fill="#CE44A2"/>
<path id="Vector_35" d="M643 139L672.7 215.27L886.81 623.1L949.17 650.75L1024 525L1116 172C1116 172 1320.5 258.5 1337.64 280.34C1354.78 302.18 1348.5 500.5 1349.85 523.94C1351.2 547.38 1334.5 691.5 1318.75 773.77C1303 856.04 1315.5 901.5 1323.61 934.71C1327.41 950.26 1324.78 976.92 1320.91 1000.86C1316.52 1028.04 1310.53 1051.73 1310.53 1051.73C1315.26 1073.87 1316.59 1090.25 1316.08 1102.87L1315.97 1105.23C1314.37 1132.23 1304.2 1141.36 1302.53 1154.65C1302 1159 1321 1230 1306 1241C1302.43 1243.61 1232.92 1245.39 1136.1 1245.39C899.22 1245.39 498.7 1234.79 499 1200C499.13 1184.79 507.66 1130.38 513 1119C528 1087 537.73 1041.31 537.73 1041.31C502.46 1010.61 506.65 920.53 506.65 920.53C496.65 886.29 486.78 811.72 482.54 776.97C481.15 765.57 480.36 758.45 480.36 758.45C480.36 758.45 367.73 303.74 363 284C358.27 264.26 412.5 230.5 445 221.53C466.11 215.7 539.92 184.03 588.95 162.6C597.53 158.85 605.35 155.41 612 152.48L623.92 147.21C630.6 144.24 643 139 643 139ZM643 130C641.798 130 640.608 130.242 639.5 130.71C638.99 130.93 626.95 136.01 620.25 138.98L612.68 142.33L608.33 144.25C602.33 146.91 594.2 150.47 585.33 154.35C508.86 187.77 458.17 208.55 442.58 212.85C425.26 217.64 402.58 228.85 384.85 241.38C361.4 257.94 351.11 273 354.25 286.1C358.85 305.33 466.89 741.5 471.48 760.04C471.7 762.04 472.48 768.59 473.61 778.04C478.36 817.04 487.75 886.97 497.61 921.62C497.192 937.967 497.991 954.322 500 970.55C504.35 1004.66 513.69 1029.42 527.79 1044.27C524.88 1056.7 516.39 1090.47 504.79 1115.18C498.4 1128.8 490.07 1185.05 489.94 1199.92C489.954 1201.93 490.375 1203.91 491.178 1205.74C491.98 1207.58 493.148 1209.24 494.61 1210.61C500.76 1216.82 516.07 1224.96 580.35 1232.87C621 1237.87 676.29 1242.16 744.65 1245.59C854.31 1251.1 1000.65 1254.39 1136.04 1254.39C1183.72 1254.39 1225.27 1253.97 1256.19 1253.17C1306.32 1251.88 1308.5 1250.28 1311.26 1248.26C1324.88 1238.26 1322.26 1209.93 1313.26 1164.35C1312.54 1160.72 1311.73 1156.67 1311.5 1155.05C1312.09 1151.39 1313.63 1147.78 1315.5 1143.29C1319.19 1134.63 1323.78 1123.84 1324.85 1105.76V1105.65L1324.96 1103.29V1103.23C1325.55 1088.72 1323.81 1071.91 1319.65 1051.89C1321.2 1045.52 1325.97 1025.28 1329.65 1002.3C1334.83 970.3 1335.65 946.81 1332.21 932.57L1331.33 928.97C1323.44 896.85 1312.63 852.86 1327.45 775.46C1342.64 696.14 1360.15 548.75 1358.69 523.46C1358.4 518.46 1358.49 503.72 1358.61 485.11C1358.81 451.4 1359.09 405.23 1357.61 364.18C1355.28 297.18 1349.69 281.41 1344.53 274.83C1341.23 270.61 1333.15 263.56 1299.73 246.25C1280.5 236.25 1255.01 224.04 1223.94 209.84C1171.17 185.71 1119.83 163.97 1119.32 163.75C1118.27 163.294 1117.14 163.04 1116 163C1114.01 163 1112.07 163.66 1110.5 164.878C1108.92 166.096 1107.79 167.803 1107.29 169.73L1015.61 521.49L945.52 639.29L893.32 616.14L680.9 211.53L651.39 135.73C650.732 134.041 649.578 132.59 648.081 131.568C646.584 130.545 644.813 129.999 643 130Z" fill="#17091D"/>
<path id="Vector_36" d="M1310.53 1051.73C1315.26 1073.87 1316.59 1090.25 1316.08 1102.87L1315.97 1105.23C1314.37 1132.23 1304.2 1141.36 1302.53 1154.65C1302 1159 1321 1230 1306 1241C1293.71 1250 498.58 1249 499 1200C499.13 1184.79 507.66 1130.38 513 1119C528 1087 537.73 1041.31 537.73 1041.31C502.46 1010.61 506.65 920.53 506.65 920.53C496.65 886.29 486.78 811.72 482.54 776.97L498.54 762.5C498.54 762.5 532.9 715.42 546.2 661C559.5 606.58 570.5 543.5 580.5 559.5C590.5 575.5 571.81 682.6 566.66 707.5C561.51 732.4 567.57 830.08 592.04 902.26C616.51 974.44 543.39 999.99 655.44 1044.26C767.49 1088.53 763.53 1065.26 809.01 1074.89C814.43 1076.03 820.61 1077.24 827.29 1078.48C895.155 1091.25 965.12 1087.1 1031 1066.4C1051.2 1060 1072.46 1055.16 1090.87 1055C1146.5 1054.5 1183.3 1053.48 1218.87 1048.49C1244.02 1044.97 1293.81 1016.99 1320.87 1000.86C1316.52 1028 1310.53 1051.73 1310.53 1051.73Z" fill="#9C398C"/>
<path id="Vector_37" d="M573.5 558.5C573.5 558.5 554.5 679.5 482.5 776.5" stroke="#17091D" stroke-width="9" stroke-linecap="round" stroke-linejoin="round"/>
<path id="Vector_38" d="M521.51 1098.14C521.51 1098.14 777.06 1200.3 1302.51 1154.65" stroke="#17091D" stroke-width="9" stroke-linecap="round" stroke-linejoin="round"/>
<path id="Vector_39" d="M1170 1163.44C1170 1163.44 1162.41 1226.27 1166 1245.44" stroke="#17091D" stroke-width="9" stroke-linecap="round" stroke-linejoin="round"/>
<path id="Vector_40" d="M978.15 1165.63C978.15 1165.63 970.15 1212.92 971.8 1248.21" stroke="#17091D" stroke-width="9" stroke-linecap="round" stroke-linejoin="round"/>
<path id="Vector_41" d="M762.72 1150.13C762.72 1150.13 741.18 1209.41 752.34 1236.95" stroke="#17091D" stroke-width="9" stroke-linecap="round" stroke-linejoin="round"/>
<path id="Vector_42" d="M588.54 1118.38C588.54 1118.38 562.54 1198.97 573.54 1228.23" stroke="#17091D" stroke-width="9" stroke-linecap="round" stroke-linejoin="round"/>
</g>
<g id="glove 1">
<path id="Vector_43" d="M486 1632.18C474.17 1632.18 463.08 1628.76 454.17 1626C448.26 1624.18 443.17 1622.6 439.76 1622.6H439.41C438.823 1622.59 438.242 1622.71 437.7 1622.93C432.95 1625.32 422.7 1627.85 408.25 1627.85C399.005 1627.79 389.782 1626.92 380.69 1625.25H380.57C365.683 1622.48 351.094 1618.3 337 1612.77C331.17 1610.54 325.2 1608.03 319.26 1605.32C318.92 1605.16 318.65 1605.04 318.38 1604.9C305.1 1598.57 294.64 1586.9 287.31 1570.34C263.39 1516.12 279.11 1424.98 281.56 1411.82C279.61 1407.67 273.5 1394.51 267.91 1380.37C255.23 1348.27 256.01 1338.88 257.71 1334.6C258.097 1333.52 258.711 1332.53 259.512 1331.7C260.312 1330.88 261.28 1330.23 262.35 1329.81C267.35 1327.87 272.82 1325.69 278.59 1323.38C313.29 1309.5 360.82 1290.5 398.99 1290.5C410.68 1290.5 420.99 1292.29 429.67 1295.84C430.13 1296.03 430.6 1296.25 431.11 1296.51C432.084 1297 433.017 1297.56 433.9 1298.2L434.25 1298.44C454.17 1312.98 471.67 1370.44 474.79 1381.19C482.2 1386.07 515.79 1408.47 529.06 1421.37C529.54 1421.84 530 1422.37 530.46 1422.79C535.247 1428.03 538.982 1434.14 541.46 1440.79C542.74 1444 543.82 1447.24 544.86 1450.37C547.1 1457.1 549.22 1463.46 553.06 1468.85C558.86 1477.01 564.92 1495.85 570.77 1514.08C575.08 1527.51 579.54 1541.38 582.97 1547.57C583.15 1547.9 583.3 1548.16 583.45 1548.4C585.503 1551.64 586.707 1555.35 586.95 1559.18C587.193 1563.01 586.467 1566.84 584.84 1570.31C580.76 1579.42 571.67 1586.04 560.54 1588.03C555.85 1588.87 549.76 1593.32 545.54 1596.59C541.95 1599.41 538.21 1602.59 534.25 1606.03C520.78 1617.59 505.51 1630.7 490.76 1631.93C489.28 1632.11 487.63 1632.18 486 1632.18Z" fill="#CE44A2"/>
<path id="Vector_44" d="M399 1295C409.57 1295 419.38 1296.49 428 1300C428.34 1300.14 428.7 1300.31 429.09 1300.51C429.915 1300.92 430.705 1301.4 431.45 1301.95L431.63 1302.07C452.14 1317.07 470.96 1384.07 470.96 1384.07C470.96 1384.07 511.5 1410.54 525.96 1424.63C526.4 1425.06 526.83 1425.5 527.25 1425.94C531.652 1430.77 535.081 1436.41 537.35 1442.54C541.35 1452.54 543.35 1462.95 549.47 1471.54C559.2 1485.21 570.93 1535.06 579.11 1549.83C579.31 1550.2 579.51 1550.54 579.71 1550.83C587.9 1564.16 577.51 1580.5 559.82 1583.66C554.82 1584.55 549.11 1588.23 542.89 1593.11C526.89 1605.63 507.78 1626.11 490.51 1627.5C489 1627.63 487.51 1627.69 485.99 1627.69C466.87 1627.69 449.51 1618.11 439.75 1618.11H439.24C437.998 1618.12 436.773 1618.4 435.65 1618.93C431.89 1620.81 422.65 1623.36 408.25 1623.36C399.229 1623.3 390.231 1622.45 381.36 1620.81C366.769 1618.1 352.471 1614 338.66 1608.57C333.06 1606.42 327.233 1603.97 321.18 1601.22L320.39 1600.85C307.13 1594.52 297.85 1582.95 291.47 1568.51C266.47 1511.86 286.3 1411.21 286.3 1411.21C286.3 1411.21 251.5 1338.83 264 1334C299.4 1320.32 355.52 1295 399 1295ZM399 1286C360 1286 312 1305.2 276.92 1319.21C271.17 1321.52 265.73 1323.69 260.74 1325.62C259.096 1326.27 257.605 1327.26 256.365 1328.52C255.125 1329.78 254.163 1331.28 253.54 1332.94C251.27 1338.69 250.7 1349.01 263.75 1382.03C268.95 1395.2 274.47 1407.24 276.89 1412.44C273.697 1430.86 271.563 1449.45 270.5 1468.12C267.98 1512.34 272.26 1547.34 283.21 1572.12C290.99 1589.73 302.21 1602.12 316.48 1608.94L317.37 1609.36C323.44 1612.13 329.49 1614.67 335.37 1616.94C349.715 1622.56 364.562 1626.82 379.71 1629.64H379.89C389.228 1631.35 398.698 1632.23 408.19 1632.29C420.97 1632.29 432.58 1630.34 439.34 1627.05H439.69C442.4 1627.05 447.44 1628.6 452.77 1630.25C461.97 1633.09 473.42 1636.62 485.93 1636.62C487.71 1636.62 489.48 1636.55 491.2 1636.41C507.4 1635.05 523.2 1621.41 537.2 1609.41C541.13 1606.04 544.83 1602.86 548.34 1600.1C554.21 1595.5 558.58 1592.92 561.34 1592.43C573.93 1590.18 584.25 1582.59 588.94 1572.12C590.845 1567.98 591.692 1563.43 591.406 1558.88C591.12 1554.33 589.709 1549.92 587.3 1546.05V1545.99C587.19 1545.8 587.08 1545.63 586.99 1545.45C586.992 1545.42 586.992 1545.4 586.99 1545.37C583.78 1539.56 579.39 1525.9 575.14 1512.68C568.91 1493.27 563.02 1474.94 556.81 1466.22C553.36 1461.37 551.35 1455.32 549.21 1448.92C548.15 1445.73 547.05 1442.43 545.72 1439.09C543.043 1431.91 539.002 1425.31 533.82 1419.67V1419.61C533.27 1419.04 532.82 1418.54 532.31 1418.08C519.49 1405.58 488.31 1384.61 478.74 1378.26C477 1372.41 472.96 1359.47 467.44 1345.32C457.01 1318.61 447.06 1302.07 437.01 1294.73L436.86 1294.63L436.55 1294.41C435.49 1293.66 434.374 1292.99 433.21 1292.41C432.61 1292.1 432.05 1291.85 431.51 1291.62C422.27 1287.84 411.38 1285.93 399.11 1285.93L399 1286Z" fill="#17091D"/>
<path id="Vector_45" d="M559.81 1583.66C554.81 1584.55 549.1 1588.23 542.88 1593.11C526.88 1605.63 507.77 1626.11 490.5 1627.5C469.28 1629.27 449.62 1617.74 439.23 1618.12C437.988 1618.13 436.762 1618.41 435.64 1618.94C429.92 1621.81 411.52 1626.21 381.35 1620.82C366.759 1618.11 352.461 1614.01 338.65 1608.58C333.05 1606.43 327.223 1603.98 321.17 1601.23L320.38 1600.86C309.9 1595.74 300.26 1584.24 291.46 1568.52C266.46 1511.87 286.29 1411.22 286.29 1411.22C286.29 1411.22 251.5 1338.83 264 1334C308 1317 384 1282 428 1300C428.34 1300.14 428.7 1300.31 429.09 1300.51C429.9 1300.95 430.688 1301.43 431.45 1301.95L431.63 1302.07C452.14 1317.07 470.96 1384.07 470.96 1384.07C470.96 1384.07 511.5 1410.54 525.96 1424.63C526.4 1425.06 526.83 1425.5 527.25 1425.94C531.651 1430.77 535.08 1436.41 537.35 1442.54C502.81 1438.71 437.48 1432.11 421.01 1435.04C395.68 1439.56 345.2 1450.23 322.01 1452.04C298.82 1453.85 317.82 1469.34 321.17 1505.44C323.4 1529.56 319.77 1561.88 333.04 1581.19C339.63 1590.79 350.39 1597.19 368.11 1597.76L373.57 1597.91C399.57 1598.42 417.77 1596.22 432.37 1594.77C445.6 1593.45 455.84 1592.77 466.12 1595.19C482.89 1599.19 511.2 1607.29 544.55 1584.19C555.55 1576.57 567.19 1565.52 579.1 1549.79C579.3 1550.16 579.5 1550.5 579.7 1550.79C587.89 1564.16 577.5 1580.5 559.81 1583.66Z" fill="#9C398C"/>
<path id="Vector_46" d="M502.45 1556.87C502.45 1556.87 496.91 1526.43 524.63 1496" stroke="#17091D" stroke-width="8.86" stroke-linecap="round" stroke-linejoin="round"/>
<path id="Vector_47" d="M510.77 1522.09C510.77 1522.09 557.91 1552.52 541.27 1598.17" stroke="#17091D" stroke-width="8.86" stroke-linecap="round" stroke-linejoin="round"/>
<path id="Vector_48" d="M430.5 1546C430.5 1546 426.61 1596.57 440.5 1620.5" stroke="#17091D" stroke-width="10.67" stroke-linecap="round" stroke-linejoin="round"/>
<path id="Vector_49" d="M372.16 1569C372.16 1569 369.34 1615.89 387.38 1626.68" stroke="#17091D" stroke-width="8.79" stroke-linecap="round" stroke-linejoin="round"/>
<path id="Vector_50" d="M333.1 1580.26C333.1 1580.26 330.27 1609.87 348.38 1616.68" stroke="#17091D" stroke-width="7" stroke-linecap="round" stroke-linejoin="round"/>
<path id="Vector_51" d="M461.5 1577C467.299 1577 472 1564.24 472 1548.5C472 1532.76 467.299 1520 461.5 1520C455.701 1520 451 1532.76 451 1548.5C451 1564.24 455.701 1577 461.5 1577Z" fill="#D969BD"/>
<path id="Vector_52" d="M397.5 1573C403.299 1573 408 1563.37 408 1551.5C408 1539.63 403.299 1530 397.5 1530C391.701 1530 387 1539.63 387 1551.5C387 1563.37 391.701 1573 397.5 1573Z" fill="#D969BD"/>
<path id="Vector_53" d="M350.5 1584C356.299 1584 361 1576.61 361 1567.5C361 1558.39 356.299 1551 350.5 1551C344.701 1551 340 1558.39 340 1567.5C340 1576.61 344.701 1584 350.5 1584Z" fill="#D969BD"/>
</g>
<g id="arm 1">
<path id="Vector_54" d="M267.05 1393.92C249.14 1393.92 240.95 1391.04 239.67 1384.31C236.12 1365.66 189.67 1140.44 182.67 1108.91C175.35 1076.34 164.27 989.66 160.12 950.28C155.76 908.74 155.12 895.09 169.98 857.68C179.47 833.68 188.98 782.41 199.11 728.08C203.86 702.53 208.77 676.08 213.94 651.01C229.61 575.01 263.26 450.3 265.57 441.76C271.57 339.99 319.37 288.68 347.38 267.13L347.67 266.91C352.803 262.991 359.058 260.823 365.515 260.724C371.972 260.625 378.29 262.601 383.54 266.36C400.02 278.13 431.34 301.88 456.09 328.62C487.95 363.06 500.45 417.48 514.92 480.51C517.35 491.08 519.86 502.02 522.53 513.16C528.059 536.744 531.347 560.797 532.35 585C534.93 641.07 526.53 694.81 518.92 735.36C512.37 770.36 504.76 796.8 496.71 824.83C490.12 847.77 483.31 871.49 476.98 900.67C465.14 955.23 470.77 989.74 480.09 1046.91C481.61 1056.2 483.18 1065.82 484.81 1076.32L485.37 1079.91C486.99 1089.81 489.12 1100.91 491.7 1112.91C491.7 1112.98 491.78 1113.24 491.8 1113.32C507.42 1185.48 535.14 1269.54 543.26 1293.59C547.1 1304.94 539.57 1316.83 520.88 1328.91C507.17 1337.77 491.25 1344.4 484.45 1347.23C483.37 1347.68 482.25 1348.14 481.99 1348.23H481.92C450.78 1366.24 320.59 1393.92 267.05 1393.92Z" fill="#CE44A2"/>
<path id="Vector_55" d="M365.92 265.22C371.299 265.213 376.545 266.891 380.92 270.02C398.48 282.57 428.69 305.64 452.78 331.68C489 370.86 499.5 436.5 518.11 514.21C523.598 537.515 526.863 561.288 527.86 585.21C530.31 638.57 522.86 690.07 514.5 734.53C502.5 798.53 486.5 835.53 472.58 899.72C458.66 963.91 468.5 1000.5 480.36 1077C480.55 1078.21 480.74 1079.42 480.93 1080.61C482.65 1091.17 484.83 1102.38 487.32 1113.92C487.32 1114.03 487.37 1114.15 487.4 1114.26C503 1186.09 530.84 1270.85 539 1295C547.16 1319.15 483.33 1342.47 479.93 1344.24H479.86C449.46 1361.99 320.25 1389.39 267.05 1389.39C253.5 1389.39 244.88 1387.61 244.05 1383.39C240.18 1362.94 194 1139 187 1107.92C180 1076.84 169 992 164.56 949.81C160.12 907.62 160 895 174.12 859.34C188.24 823.68 202 731 218.31 651.92C234.62 572.84 270 442.49 270 442.49C275.82 341 324.16 290.64 350.08 270.7L350.37 270.48C354.832 267.061 360.299 265.212 365.92 265.22ZM365.92 256.22C358.332 256.235 350.957 258.732 344.92 263.33L344.62 263.56C331.15 273.92 311.57 292.38 294.73 321.56C275.13 355.47 263.82 395.67 261.09 441.08C257.9 452.78 225 575.1 209.5 650.1C204.31 675.23 199.4 701.68 194.64 727.26C184.64 781.36 175.09 832.47 165.75 856.02C150.6 894.3 151.25 909.26 155.61 950.75C159.76 990.22 170.88 1077.16 178.24 1109.89C185.32 1141.44 231.7 1366.53 235.24 1385.15C236 1389.15 238.94 1394.38 248.64 1396.75C253.22 1397.87 259.24 1398.42 267.04 1398.42C292.24 1398.42 337.04 1392.24 383.87 1382.3C431.36 1372.23 468.71 1361.02 484.01 1352.3L486.17 1351.39C493.08 1348.51 509.26 1341.78 523.31 1332.7C531.81 1327.2 538 1321.87 542.22 1316.39C549.97 1306.33 549.38 1297.66 547.52 1292.16C539.41 1268.16 511.76 1184.32 496.19 1112.38L496.13 1112.14C496.13 1112.07 496.13 1111.99 496.08 1111.91C493.51 1100.01 491.4 1089 489.8 1079.18L489.24 1075.62C487.61 1065.12 486.04 1055.5 484.52 1046.19C475.28 989.55 469.71 955.36 481.37 901.64C487.66 872.64 494.46 848.95 501.02 826.09C509.11 797.95 516.74 771.37 523.34 736.2C530.99 695.41 539.44 641.34 536.84 584.81C535.8 560.329 532.452 536.001 526.84 512.15C524.18 501.03 521.67 490.1 519.24 479.54C504.63 415.89 492.01 360.92 459.34 325.61C434.34 298.61 402.71 274.61 386.1 262.74C380.213 258.515 373.146 256.248 365.9 256.26L365.92 256.22Z" fill="#17091D"/>
<path id="Vector_56" d="M479.93 1344.24H479.86C441.72 1366.51 248 1403.97 244.09 1383.44C240.18 1362.91 194 1139 187 1107.92C180 1076.84 169 992 164.56 949.81C160.12 907.62 160 895 174.12 859.34C188.24 823.68 202 731 218.31 651.92C234.62 572.84 270 442.49 270 442.49C275.82 341 324.16 290.64 350.08 270.7C329.45 311.36 298.08 381.42 289.52 445.59C276.52 543.5 276.52 675.5 273.52 702.5C270.52 729.5 234.19 758.36 214.35 808.43C194.51 858.5 161.5 874.5 181.5 923.5C201.5 972.5 247.25 1275.68 275 1310C291.13 1330 358.95 1312.75 409 1296C454.1 1280.91 486.91 1275 480.18 1227.89C475.18 1192.89 471.38 1164.53 470.7 1154.65C468.4 1121.3 439 958 407 938C375 918 240 927 228.63 912.4C217.26 897.8 263 898 317 896C371 894 424 912 400.57 896.51C377.14 881.02 258 860 266.19 837C274.38 814 414 887 438.25 899.38C462.5 911.76 423 867 394.1 825C365.2 783 340 711 358.1 722.64C376.2 734.28 432 838 442.92 851.32C453.84 864.64 464 757 473.42 716.22C482.84 675.44 524.51 580.06 524.51 580.06C524.51 580.06 525.73 581.91 527.86 585.18C530.31 638.54 522.86 690.04 514.5 734.5C502.5 798.5 486.5 835.5 472.58 899.69C458.66 963.88 468.5 1000.5 480.36 1077C480.55 1078.21 480.74 1079.42 480.93 1080.61C482.84 1092.4 485 1103.49 487.32 1113.92C487.32 1114.03 487.37 1114.15 487.4 1114.26C503 1186.09 530.84 1270.85 539 1295C547.16 1319.15 483.33 1342.47 479.93 1344.24Z" fill="#9C398C"/>
<path id="Vector_57" d="M229.5 1323.5C229.5 1323.5 370.1 1334.27 527.8 1245.39" stroke="#17091D" stroke-width="9" stroke-linecap="round" stroke-linejoin="round"/>
<path id="Vector_58" d="M471.999 1273.21C471.999 1273.21 464.219 1321.04 479.859 1344.27" stroke="#17091D" stroke-width="9" stroke-linecap="round" stroke-linejoin="round"/>
<path id="Vector_59" d="M387.5 1303.5C387.5 1303.5 388.5 1356.67 397.5 1370.08" stroke="#17091D" stroke-width="9" stroke-linecap="round" stroke-linejoin="round"/>
<path id="Vector_60" d="M298.31 1320.42C298.31 1320.42 296.56 1372.01 308.03 1386.25" stroke="#17091D" stroke-width="9" stroke-linecap="round" stroke-linejoin="round"/>
</g>
<g id="collar front">
<path id="Vector_61" d="M973.23 705.329C947.01 706.799 917.99 708.439 889.84 710.049C878.491 710.733 867.172 708.299 857.107 703.011C847.042 697.723 838.616 689.783 832.74 680.049C826.247 669.509 818.98 659.464 811 649.999C711.42 529.169 680 379.999 647 286.699C624.94 224.319 620 171.079 619 148.999C627.58 145.249 632.35 142.929 639 139.999C640.06 134.879 644.35 137.999 646 132.189L653.91 143.189L702.72 211.249L764.15 296.889L1017 647.999L1028 664.999C1023.77 676.315 1016.34 686.155 1006.62 693.317C996.892 700.479 985.29 704.653 973.23 705.329Z" fill="#9C398C"/>
<path id="Vector_62" d="M908.89 663L861.57 663.46C860.855 663.459 860.15 663.288 859.513 662.961C858.877 662.635 858.327 662.161 857.91 661.58L856.36 659.43L856 659C817.44 605.73 788.41 561.07 776.36 536.44C743.09 468.44 682.46 330.71 661.75 272.79C658.09 262.54 654.55 253.67 651.14 245.09C638.25 212.74 628.94 189.37 637.55 147.59C638.65 142.27 640.03 136.69 641.64 130.99C642.72 127.11 643.96 122.99 645.32 118.86C651.71 99.1797 660.03 82.3397 670.06 68.7997L670.18 68.6397L671.28 67.1897C685.18 49.3797 699.28 46.7197 706.48 46.7197C713.68 46.7197 719.68 49.1397 721.78 52.7197C722.283 53.5425 722.56 54.4833 722.583 55.4473C722.605 56.4112 722.373 57.3641 721.91 58.2097C718.08 64.9997 720.28 83.9997 724.66 92.6797C731.45 106.18 782.31 186.95 805.38 210.21C829.24 234.21 907.13 351.78 923.49 380.83C924.98 383.48 927.26 387.72 930.26 393.43C930.66 394.18 931.06 394.95 931.47 395.75C933.34 399.31 935.47 403.36 937.73 407.75L938.68 409.6C940.41 412.93 942.25 416.51 944.17 420.26C944.89 421.653 945.62 423.073 946.36 424.52L947.49 426.73C948.03 427.73 948.58 428.83 949.13 429.92L951.42 434.41C952.96 437.41 954.53 440.48 956.13 443.62L959.74 450.71L970.24 471.36L970.96 472.78L971.96 474.86L977.74 486.25L980.35 491.41L981.49 493.66C985.49 501.66 989.56 509.61 993.54 517.5L996.54 523.5L998.29 526.97C999.21 528.8 1000.15 530.64 1001.07 532.48L1013.4 556.92C1013.78 557.71 1014.15 558.45 1014.53 559.19L1017.91 565.9C1018.15 566.37 1018.36 566.8 1018.58 567.22L1019.01 568.08C1019.71 569.48 1020.41 570.85 1021.09 572.2C1021.13 572.274 1021.17 572.351 1021.2 572.43L1023.2 576.43L1028.4 586.76L1033.15 596.22C1038.55 607.11 1029.98 614.44 1023.1 620.34C1018.48 624.29 1013.71 628.34 1012.24 633.29C1012.12 633.699 1011.94 634.09 1011.71 634.45L1001.08 650.88L998.22 661.08C997.958 662.026 997.392 662.861 996.61 663.455C995.828 664.049 994.872 664.37 993.89 664.37L908.89 663Z" fill="#CE44A2"/>
<path id="Vector_63" d="M706.49 51.1999C714.09 51.1999 718.85 54.4999 718 55.9999C713.27 64.3599 715.75 84.9999 720.64 94.6999C727.78 108.9 778.5 189.5 802.19 213.38C825.88 237.26 903.5 354.5 919.57 383C921.08 385.69 923.37 390 926.28 395.49L927.48 397.78C929.35 401.35 931.48 405.39 933.73 409.78L934.67 411.6C936.41 414.96 938.25 418.53 940.17 422.27C941.25 424.37 942.353 426.527 943.48 428.74C944.03 429.79 944.57 430.84 945.11 431.91C947.36 436.31 949.71 440.91 952.11 445.62L953.32 447.99L953.75 448.84L955.75 452.71L966.25 473.36C966.84 474.52 967.43 475.7 968.03 476.87L973.8 488.25L976.4 493.4L977.53 495.63C981.53 503.63 985.61 511.63 989.59 519.49L990.89 522.06L992.62 525.48L994.35 528.92L997.14 534.44L997.42 535L999.42 539L1009.42 558.89C1009.8 559.66 1010.18 560.42 1010.57 561.18L1011.71 563.44C1012.46 564.933 1013.21 566.41 1013.94 567.87C1014.3 568.6 1014.67 569.32 1015.03 570.04C1015.73 571.44 1016.43 572.82 1017.12 574.18L1017.17 574.29C1017.84 575.677 1018.52 577.043 1019.23 578.39C1021.05 582.02 1022.79 585.47 1024.42 588.71L1025.42 590.76L1029.14 598.17C1035.84 611.68 1012.24 617.48 1007.94 631.94L996.94 648.94L993.94 659.8L908.88 658.46L861.55 658.92C860.92 658.04 860.27 657.15 859.63 656.27C825.08 608.55 793.63 561.35 780.39 534.38C747.83 467.88 687 330 666 271.26C648 220.94 631.48 199.39 642 148.48C643.06 143.36 644.38 137.96 646 132.19C647.067 128.37 648.277 124.37 649.63 120.19C656.4 99.3299 664.75 83.5099 673.71 71.4199C674.09 70.9099 674.47 70.4199 674.86 69.8999C686.37 55.1499 698.15 51.1599 706.51 51.1599M706.51 42.1599C698.51 42.1599 682.83 45.0499 667.76 64.3599L666.49 66.0399C656.16 80.0399 647.61 97.2699 641.07 117.41C639.7 121.63 638.44 125.77 637.33 129.72C635.7 135.51 634.33 141.2 633.18 146.61C624.29 189.73 633.81 213.61 646.99 246.7C650.39 255.24 653.91 264.07 657.55 274.25C678.29 332.25 739.03 470.25 772.35 538.36C789 572.36 829.64 630.16 852.35 661.57L852.67 662.01C853.2 662.73 853.73 663.46 854.24 664.18C855.073 665.343 856.172 666.292 857.445 666.945C858.718 667.599 860.129 667.94 861.56 667.94H861.65L908.86 667.48L993.86 668.82H994C995.964 668.821 997.874 668.179 999.44 666.993C1001.01 665.807 1002.14 664.141 1002.67 662.25L1005.34 652.7L1015.6 636.85C1016.06 636.129 1016.42 635.348 1016.67 634.53C1017.75 630.88 1022.01 627.23 1026.13 623.7C1029.86 620.51 1033.72 617.21 1036.33 613.07C1038.18 610.305 1039.25 607.091 1039.43 603.768C1039.6 600.444 1038.88 597.135 1037.33 594.19L1036.05 591.64L1033.59 586.73C1033.41 586.39 1033.25 586.06 1033.09 585.73L1032.55 584.66L1031.24 582.07C1030 579.61 1028.71 577.07 1027.38 574.38C1026.71 573.06 1026.05 571.76 1025.38 570.44L1025.23 570.13V570.07C1024.56 568.737 1023.9 567.403 1023.23 566.07C1023.08 565.76 1022.92 565.45 1022.76 565.14L1022.16 563.94V563.85L1020.71 560.98L1019.94 559.44L1018.81 557.21V557.12C1018.44 556.4 1018.08 555.69 1017.72 554.96C1017.72 554.933 1017.72 554.906 1017.72 554.88L1011.72 542.94L1007.72 535L1006.72 533C1006.38 532.33 1006.05 531.66 1005.72 531L1005.67 530.9L1005.41 530.38C1004.5 528.56 1003.58 526.737 1002.65 524.91L1000.92 521.47C1000.62 520.88 1000.34 520.32 1000.05 519.77C999.76 519.22 999.47 518.6 999.17 518.02L998.75 517.18L997.88 515.47C993.88 507.58 989.88 499.59 985.82 491.6L984.68 489.36L982.1 484.25L979 478.6L976 472.85L975 470.77L974.28 469.34L963.78 448.69L962.78 446.62L961.86 444.82V444.77L961.48 444.03V443.94L960.88 442.78L960.27 441.57C958.65 438.4 957.06 435.28 955.5 432.24L953.26 427.87C952.73 426.82 952.18 425.74 951.61 424.67L950.71 422.9L948.31 418.21C946.4 414.48 944.56 410.91 942.82 407.55L942.16 406.27L941.87 405.71C939.54 401.21 937.43 397.15 935.59 393.64C935.19 392.87 934.78 392.09 934.38 391.34C931.38 385.58 929.06 381.34 927.56 378.63C911 349.45 832.64 231.29 808.58 207C785.77 184 735.41 104 728.68 90.6199C724.42 82.1399 723.31 64.8499 725.83 60.3899C726.694 58.8595 727.135 57.1268 727.109 55.3696C727.082 53.6123 726.589 51.8937 725.68 50.3899C722.75 45.3899 715.22 42.1299 706.49 42.1299L706.51 42.1599Z" fill="#17091D"/>
<path id="Vector_64" d="M1039.68 619.1L1032.93 641.75L1022 665L1016 660C1003.77 644.79 996.1 642.09 981.09 615.55C978.31 610.63 975.09 605.09 971.48 598.99C966.18 589.99 960.04 579.83 953.21 568.67C878.8 447.06 723.45 209.28 693 150C682.45 129.46 673.94 87.14 673.69 71.46C674.07 70.95 674.45 70.46 674.84 69.94C696.8 41.79 719.79 52.84 718 56C713.27 64.36 715.75 85 720.64 94.7C727.78 108.9 778.5 189.5 802.19 213.38C825.88 237.26 903.5 354.5 919.57 383C921.08 385.69 923.37 390 926.28 395.49L927.48 397.78C929.35 401.35 931.48 405.39 933.73 409.78L934.67 411.6C937.39 416.85 940.34 422.6 943.48 428.74C944.02 429.74 944.57 430.84 945.11 431.91C947.36 436.31 949.71 440.91 952.11 445.62L953.32 447.99L953.75 448.84L955.75 452.71L966.25 473.36C966.84 474.52 967.43 475.7 968.03 476.87L973.8 488.25C974.66 489.957 975.527 491.667 976.4 493.38C976.77 494.13 977.15 494.88 977.53 495.63C981.53 503.63 985.61 511.63 989.59 519.49L990.89 522.06L992.62 525.48L994.35 528.92L997.14 534.44L997.42 535L999.42 539L1009.42 558.89C1009.8 559.66 1010.19 560.42 1010.57 561.18L1011.71 563.44C1012.46 564.933 1013.21 566.41 1013.94 567.87C1014.3 568.6 1014.67 569.32 1015.03 570.04C1015.73 571.44 1016.43 572.82 1017.12 574.18L1017.17 574.29L1019.23 578.39C1021.05 582.02 1022.79 585.47 1024.42 588.71L1025.42 590.76L1029.14 598.17C1035.71 611.18 1039.68 619.1 1039.68 619.1Z" fill="#D969BD"/>
<path id="Vector_65" d="M908.89 662.999L861.61 663.459H859C858.317 663.46 857.642 663.304 857.028 663.005C856.414 662.707 855.876 662.272 855.455 661.734C855.034 661.196 854.741 660.57 854.598 659.902C854.455 659.234 854.466 658.542 854.63 657.879L855.28 655.209C865.39 613.649 877.02 572.989 887.28 537.129C889.48 529.449 891.61 521.983 893.67 514.729C901.67 485.929 918.83 452.249 936.21 420.149C942.33 408.849 948.59 397.559 955.21 385.599C993.68 316.249 1037.29 237.599 1037 177.979C1037.08 148.079 1044 129.329 1049.69 118.869C1056.9 105.729 1066.69 97.8694 1075.78 97.8694C1078.19 97.8537 1080.57 98.4511 1082.69 99.6055C1084.81 100.76 1086.6 102.434 1087.89 104.469C1091.45 109.789 1095.08 115.709 1098.66 122.059C1109.54 141.379 1118.58 162.189 1120.17 171.549C1122.95 187.909 1113.42 246.299 1102.38 313.909C1093.93 365.659 1085.2 419.179 1081.47 457.379C1081.45 457.551 1081.43 457.721 1081.39 457.889C1069.39 513.399 1051.03 578.139 1023.46 661.609C1023.16 662.509 1022.59 663.292 1021.83 663.847C1021.06 664.402 1020.14 664.7 1019.19 664.699L908.89 662.999Z" fill="#CE44A2"/>
<path id="Vector_66" d="M1075.79 102.43C1077.46 102.415 1079.11 102.83 1080.58 103.636C1082.04 104.441 1083.28 105.61 1084.16 107.03C1087.8 112.46 1091.38 118.35 1094.75 124.33C1105.62 143.63 1114.3 163.84 1115.75 172.33C1120.49 200.22 1085.52 369.77 1077.01 456.97C1063.27 520.77 1042.46 589.82 1019.21 660.23L993.97 659.83L908.91 658.49L861.58 658.95L859 659C859.22 658.11 859.43 657.22 859.65 656.33C871.89 606 886.28 557.31 898 516C905.46 489 921.46 456.88 940.17 422.33C983.67 342 1041.85 248.77 1041.51 178C1041.65 127 1062.3 102.43 1075.79 102.43ZM1075.79 93.4297C1064.99 93.4297 1053.79 102.14 1045.79 116.74C1039.79 127.67 1032.64 147.16 1032.55 177.97V178C1032.83 236.48 989.55 314.55 951.33 383.42C944.69 395.42 938.43 406.68 932.33 418C914.82 450.34 897.5 484.29 889.4 513.54C887.35 520.77 885.21 528.24 883.02 535.89C872.68 571.84 861 612.54 850.9 654.2L850.58 655.55C850.47 655.98 850.37 656.41 850.26 656.84C849.932 658.166 849.911 659.549 850.197 660.885C850.483 662.22 851.069 663.473 851.911 664.549C852.754 665.624 853.83 666.494 855.058 667.092C856.286 667.69 857.634 668 859 668H859.07H861.64L908.87 667.54L993.87 668.88L1019.11 669.28H1019.25C1021.14 669.28 1022.99 668.683 1024.53 667.574C1026.06 666.464 1027.21 664.898 1027.8 663.1C1055.41 579.47 1073.86 514.59 1085.8 458.91C1085.87 458.58 1085.92 458.24 1085.96 457.91C1089.67 419.86 1098.4 366.41 1106.83 314.73C1119.66 236.15 1127.38 187.17 1124.61 170.89C1122.93 160.89 1113.87 139.98 1102.61 119.95C1098.97 113.49 1095.29 107.47 1091.66 102.06C1089.94 99.4191 1087.6 97.2498 1084.83 95.7494C1082.06 94.2491 1078.96 93.4653 1075.81 93.4697L1075.79 93.4297Z" fill="#17091D"/>
<path id="Vector_67" d="M1094.75 124.33C1089.46 160.509 1081.18 196.187 1070 231C1040.91 321.79 948.76 530.86 908.9 658.52L861.54 657.77C873.92 606.51 886.07 558 898 516C922.82 426.33 1042 279.2 1041.51 178C1041.69 114.14 1073.95 91.7903 1084.16 107C1087.8 112.46 1091.38 118.35 1094.75 124.33Z" fill="#D969BD"/>
</g>
</g>
</g>
</svg>
