<svg width="1800" height="1650" viewBox="0 0 1800 1650" fill="none" xmlns="http://www.w3.org/2000/svg">
<g id="Body 07">
<g id="down">
<path id="Vector" d="M818.13 1637C757.22 1637 688.13 1627.69 612.75 1609.32C524.75 1587.87 459.13 1561.32 458.48 1561.03L455.33 1559.74L499.41 1168.49L504.23 1169.49C518.37 1172.37 534.23 1175.01 551.37 1177.33C624.14 1187.21 724.09 1192.22 848.44 1192.22C891.44 1192.22 937.61 1191.61 985.58 1190.41C1118.95 1187.08 1229.52 1180.1 1250.33 1178.73L1258.03 1178.2L1258.83 1182.04C1258.83 1182.04 1259.03 1182.96 1259.38 1184.69C1259.86 1187.06 1271.38 1243.63 1285.78 1312.3C1299.49 1377.95 1329.78 1451.67 1349.78 1500.45C1358.19 1520.93 1364.78 1537.11 1367.32 1545.76C1370.48 1556.76 1369.06 1566.51 1363.1 1574.86C1353.22 1588.71 1331.63 1598.2 1295.17 1604.73C1262.64 1610.55 1222.54 1613.15 1184.04 1615.1C1174.15 1615.6 1164.93 1615.85 1155.88 1615.85C1136.46 1615.85 1121.34 1614.7 1106.73 1613.59C1092.88 1612.59 1079.8 1611.59 1063.5 1611.49H1062C1027.38 1611.49 985.72 1615.91 926.92 1625.82L923.06 1626.47C916.69 1627.55 910.06 1628.72 902.74 1630.03C876.86 1634.66 848.41 1637 818.13 1637Z" fill="#7E4282"/>
<path id="Vector_2" d="M503.33 1173.89C517.91 1176.89 533.8 1179.48 550.77 1181.78C633.48 1193.01 741.77 1196.71 848.43 1196.71C895.24 1196.71 941.76 1196 985.69 1194.9C1119.37 1191.56 1229.14 1184.62 1250.62 1183.21L1254.42 1182.95C1254.42 1182.95 1254.61 1183.86 1254.96 1185.58C1257.45 1197.76 1268.33 1250.82 1281.36 1313.21C1301.04 1407.39 1354.86 1518.81 1362.99 1547C1377.26 1596.5 1284.49 1605.5 1183.8 1610.6C1173.45 1611.12 1164.25 1611.34 1155.87 1611.34C1118.67 1611.34 1097.62 1607.11 1063.51 1606.98H1062C1032.57 1606.98 993.33 1610.05 926.16 1621.37L922.3 1622.02C915.773 1623.13 908.983 1624.32 901.93 1625.59C874.93 1630.44 846.75 1632.52 818.17 1632.52C747.73 1632.52 675.17 1619.89 613.85 1604.96C525.13 1583.34 460.22 1556.87 460.22 1556.87L503.37 1173.87M495.53 1163.09L494.43 1172.86L451.28 1555.86L450.51 1562.63L456.82 1565.2C457.48 1565.47 523.37 1592.2 611.72 1613.7C687.44 1632.16 756.9 1641.52 818.17 1641.52C848.72 1641.52 877.44 1639.14 903.52 1634.45C910.79 1633.14 917.43 1631.98 923.81 1630.89L924.46 1630.78L927.63 1630.25C986.21 1620.38 1027.63 1615.98 1062 1615.98H1063.53C1079.67 1616.04 1092.66 1616.98 1106.43 1618.07C1121.13 1619.19 1136.34 1620.34 1155.92 1620.34C1165.05 1620.34 1174.34 1620.09 1184.31 1619.59C1222.95 1617.59 1263.23 1615.01 1296 1609.15C1333.7 1602.4 1356.19 1592.33 1366.8 1577.47C1373.6 1567.94 1375.25 1556.85 1371.69 1544.47C1369.12 1535.58 1362.77 1520.1 1353.98 1498.69C1333.98 1450.06 1303.85 1376.57 1290.22 1311.33C1275.85 1242.52 1264.31 1186.11 1263.83 1183.74L1263.28 1181.07L1261.68 1173.39L1253.85 1173.93L1250.2 1174.18H1250C1229.21 1175.54 1118.73 1182.52 985.44 1185.85C937.44 1187.05 891.39 1187.66 848.44 1187.66C724.29 1187.66 624.55 1182.66 551.99 1172.81C534.92 1170.5 519.16 1167.88 505.14 1165.02L495.5 1163.02L495.53 1163.09Z" fill="#17091D"/>
<path id="Vector_3" d="M616.36 1530C616.06 1551 615.03 1578.28 613.81 1605C525.09 1583.38 460.18 1556.91 460.18 1556.91L503.33 1173.91C517.91 1176.91 533.8 1179.5 550.77 1181.8C543.16 1207.55 527.98 1269.11 544.83 1303.39C566.5 1347.5 617.23 1469.5 616.36 1530Z" fill="#5C2C66"/>
<path id="Vector_4" d="M942 1583C991.39 1562.68 1015.41 1417.4 1030 1434C1043.56 1449.43 1041.26 1560.45 1056.29 1592.16C1058.78 1597.42 1061.19 1602.36 1063.52 1606.98C1033.92 1606.87 991.36 1612.48 923 1623.98C933.76 1610.79 904.62 1598.39 942 1583Z" fill="#5C2C66"/>
<path id="Vector_5" d="M1119.2 1493.92C1120.55 1492.83 1121.5 1492.07 1121.96 1491.72C1121.51 1492.09 1120.57 1492.84 1119.2 1493.92Z" fill="#5C2C66"/>
<path id="Vector_6" d="M1281.37 1313.21C1261.76 1294.3 1238.67 1272.75 1227.51 1264.91C1206.01 1249.82 1151 1270 1084.86 1284.91C1018.72 1299.82 927.59 1296.1 927.59 1296.1L924.59 1266.26L923.48 1264.61L923 1194C923 1194 937 1196.06 947 1196C949.39 1196 963.73 1199.13 985.69 1194.9C1119.37 1191.56 1229.14 1184.62 1250.62 1183.21L1254.96 1185.58C1257.46 1197.76 1268.34 1250.82 1281.37 1313.21Z" fill="#5C2C66"/>
<path id="Vector_7" d="M922.25 1626.37L922.26 1622.02L923.44 1264.61L923.47 1194.5" stroke="#17091D" stroke-width="9" stroke-linecap="round" stroke-linejoin="round"/>
<path id="Vector_8" d="M1020.06 1251.5C1020.06 1251.5 1026.44 1565.95 923.47 1590.72" stroke="#17091D" stroke-width="9" stroke-linecap="round" stroke-linejoin="round"/>
</g>
<g id="glove 2">
<path id="Vector_9" d="M1417.21 1611.77C1404.34 1611.77 1389.7 1605.69 1375.55 1599.77C1370.72 1597.77 1366.17 1595.87 1361.88 1594.31C1355.12 1591.85 1350.32 1590.71 1346.76 1590.71C1346.17 1590.71 1345.58 1590.75 1345 1590.82C1343.28 1591.06 1341.54 1591.19 1339.8 1591.19C1329.87 1591.19 1320.7 1587.07 1315.27 1580.19C1313.06 1577.44 1311.51 1574.21 1310.76 1570.76C1310 1567.31 1310.05 1563.74 1310.91 1560.31C1310.99 1560.01 1311.05 1559.71 1311.11 1559.39C1314.01 1544.3 1323.49 1499.39 1328.72 1482.62C1330.58 1476.62 1327.85 1468.27 1324.96 1459.41C1321.29 1448.13 1317.11 1435.34 1322.25 1424.41C1322.55 1423.78 1322.85 1423.19 1323.16 1422.59C1331.72 1406.22 1356.69 1374.52 1362.24 1367.59C1361.97 1361.24 1361.14 1338.13 1361.87 1313.65C1363.64 1254.39 1372.62 1244.95 1375.58 1241.85C1376.67 1240.62 1378 1239.62 1379.49 1238.94C1380.98 1238.25 1382.6 1237.88 1384.24 1237.85C1393.56 1237.85 1419.24 1229.17 1439.79 1222.19C1453.79 1217.43 1467.12 1212.93 1475.39 1210.99C1479.32 1210.05 1483.35 1209.57 1487.39 1209.56C1498.39 1209.56 1507.25 1213.3 1514.39 1216.3C1519.65 1218.52 1524.19 1220.44 1528.26 1220.44C1529.67 1220.45 1531.06 1220.2 1532.38 1219.7C1533.11 1219.43 1533.89 1219.29 1534.67 1219.29C1541.17 1219.29 1544.17 1227.84 1546.67 1240.69C1548.53 1250.28 1550.23 1263.59 1551.67 1280.25C1553.91 1305.38 1554.99 1330.8 1555.21 1336.25C1560.9 1346.6 1605.21 1429.46 1599.21 1489.05C1597.4 1507.11 1591.07 1521.42 1580.4 1531.59L1579.73 1532.21C1574.9 1536.66 1570.01 1540.9 1565.17 1544.84C1553.5 1554.46 1540.95 1562.96 1527.68 1570.21C1501.04 1584.52 1483.31 1586.06 1476.92 1586.06C1475.51 1586.07 1474.09 1585.98 1472.69 1585.79H1472.35C1471.87 1585.8 1471.39 1585.89 1470.93 1586.03C1467.7 1586.96 1463.19 1590.15 1457.93 1593.84C1449.16 1600.04 1438.24 1607.76 1424.93 1610.93C1422.4 1611.51 1419.81 1611.79 1417.21 1611.77Z" fill="#CE44A2"/>
<path id="Vector_10" d="M1487.38 1214.05C1505.45 1214.05 1516.93 1224.92 1528.22 1224.92C1530.16 1224.94 1532.09 1224.6 1533.91 1223.92C1534.14 1223.83 1534.38 1223.79 1534.63 1223.79C1546.63 1223.79 1550.77 1337.53 1550.77 1337.53C1550.77 1337.53 1600.9 1427.03 1594.77 1488.65C1593.19 1504.35 1587.97 1518.23 1577.33 1528.37L1576.69 1528.97C1571.8 1533.47 1567.02 1537.61 1562.36 1541.39C1550.92 1550.84 1538.61 1559.18 1525.58 1566.29C1502.52 1578.68 1485.4 1581.61 1476.95 1581.61C1475.76 1581.62 1474.57 1581.54 1473.39 1581.38C1473.06 1581.33 1472.72 1581.31 1472.39 1581.31C1471.49 1581.32 1470.59 1581.46 1469.73 1581.72C1459.73 1584.59 1444.63 1601.66 1423.92 1606.57C1421.73 1607.07 1419.49 1607.32 1417.24 1607.3C1400.99 1607.3 1380.12 1596.23 1363.44 1590.16C1357.14 1587.86 1351.44 1586.29 1346.79 1586.29C1345.99 1586.29 1345.2 1586.34 1344.41 1586.44C1342.89 1586.66 1341.36 1586.76 1339.82 1586.76C1324.15 1586.76 1311.98 1575.3 1315.3 1561.42C1315.39 1561.05 1315.48 1560.67 1315.55 1560.25C1318.74 1543.67 1328.03 1500.04 1333.03 1484.02C1338.03 1468 1318.2 1443.7 1326.34 1426.37C1326.6 1425.82 1326.87 1425.27 1327.16 1424.72C1336.51 1406.84 1366.82 1369.08 1366.82 1369.08C1366.82 1369.08 1360.64 1242.36 1384.26 1242.36C1400.64 1242.36 1455.52 1220.27 1476.44 1215.36C1480.04 1214.5 1483.74 1214.07 1487.44 1214.06M1487.44 1205.06C1483.06 1205.08 1478.7 1205.59 1474.44 1206.6C1465.96 1208.6 1452.59 1213.12 1438.44 1217.92C1419.22 1224.43 1392.91 1233.35 1384.33 1233.35C1382.08 1233.37 1379.85 1233.86 1377.8 1234.79C1375.75 1235.72 1373.91 1237.06 1372.41 1238.74C1366.78 1244.66 1359.1 1258.84 1357.47 1313.51C1356.78 1336.61 1357.47 1357.98 1357.77 1366.09C1350.6 1375.15 1327.55 1404.71 1319.26 1420.54C1318.96 1421.12 1318.65 1421.75 1318.26 1422.47V1422.53C1312.37 1435.08 1316.83 1448.77 1320.77 1460.84C1323.32 1468.65 1325.95 1476.71 1324.51 1481.32C1319.23 1498.25 1309.69 1543.42 1306.79 1558.54C1306.79 1558.54 1306.79 1558.6 1306.79 1558.63C1306.79 1558.83 1306.71 1559.03 1306.66 1559.24V1559.31C1305.64 1563.4 1305.58 1567.66 1306.48 1571.77C1307.39 1575.89 1309.23 1579.74 1311.86 1583.02C1318.14 1591.02 1328.63 1595.73 1339.92 1595.73C1341.87 1595.73 1343.82 1595.59 1345.76 1595.32C1346.13 1595.27 1346.51 1595.25 1346.89 1595.25C1349.89 1595.25 1354.31 1596.34 1360.47 1598.58C1364.66 1600.11 1369.17 1601.98 1373.95 1603.97C1388.51 1609.97 1403.57 1616.26 1417.34 1616.26C1420.29 1616.27 1423.22 1615.93 1426.09 1615.26C1440.29 1611.9 1451.6 1603.9 1460.7 1597.47C1465.18 1594.3 1469.81 1591.02 1472.31 1590.31H1472.47C1473.99 1590.51 1475.53 1590.6 1477.06 1590.59C1483.79 1590.59 1502.41 1589 1529.94 1574.21C1543.47 1566.83 1556.26 1558.17 1568.15 1548.36C1573.05 1544.36 1578.01 1540.08 1582.89 1535.58L1582.95 1535.52L1583.65 1534.87C1595.11 1523.94 1601.9 1508.69 1603.82 1489.54C1606.52 1462.54 1599.7 1427.96 1583.57 1386.71C1576.66 1369.05 1568.72 1351.8 1559.8 1335.06C1559.5 1327.88 1558.41 1303.74 1556.28 1279.86C1554.79 1263.05 1553.06 1249.58 1551.17 1239.86C1550.31 1234.9 1548.99 1230.03 1547.23 1225.31C1544.4 1218.31 1540.23 1214.82 1534.77 1214.81C1533.45 1214.81 1532.14 1215.05 1530.91 1215.51C1530.09 1215.82 1529.22 1215.97 1528.35 1215.96C1525.19 1215.96 1521.03 1214.21 1516.23 1212.18C1508.74 1209.02 1499.42 1205.09 1487.51 1205.09L1487.44 1205.06Z" fill="#17091D"/>
<path id="Vector_11" d="M1344.38 1586.42C1349.38 1585.72 1355.98 1587.42 1363.38 1590.14C1382.45 1597.08 1406.99 1610.55 1423.86 1606.55C1444.57 1601.64 1459.68 1584.55 1469.67 1581.7C1470.85 1581.32 1472.11 1581.21 1473.34 1581.36C1479.67 1582.36 1498.52 1580.78 1525.53 1566.27C1538.56 1559.16 1550.87 1550.82 1562.31 1541.37C1566.98 1537.58 1571.75 1533.44 1576.64 1528.95L1577.28 1528.35C1585.65 1520.23 1591.28 1506.35 1594.72 1488.63C1600.87 1427.01 1550.72 1337.51 1550.72 1337.51C1550.72 1337.51 1546.42 1219.23 1533.86 1223.9C1518.39 1229.67 1504.55 1208.74 1476.36 1215.35C1455.44 1220.26 1400.56 1242.35 1384.18 1242.35C1360.56 1242.35 1366.74 1369.07 1366.74 1369.07C1366.74 1369.07 1336.43 1406.83 1327.08 1424.71C1326.79 1425.26 1326.52 1425.81 1326.26 1426.36C1332.53 1420.63 1363.52 1393.18 1386.33 1389.97C1411.81 1386.39 1474.83 1384.07 1497.44 1378.58C1520.05 1373.09 1538.81 1402.52 1546.84 1437.88C1552.22 1461.49 1565.71 1491.09 1559.1 1513.56C1555.82 1524.74 1547.58 1534.15 1530.92 1540.21C1529.17 1540.85 1527.45 1541.46 1525.78 1542.05C1501.26 1550.6 1483.24 1554.18 1468.91 1557.34C1455.91 1560.2 1445.97 1562.71 1436.91 1568.23C1422.22 1577.23 1397.82 1593.74 1358.91 1582.23C1346.05 1578.42 1331.59 1571.52 1315.38 1560.23C1315.31 1560.65 1315.22 1561.03 1315.13 1561.4C1311.63 1576.61 1326.59 1588.92 1344.38 1586.42Z" fill="#9C398C"/>
<path id="Vector_12" d="M1390.57 1543.13C1390.57 1543.13 1386.38 1512.48 1350.57 1492.13" stroke="#17091D" stroke-width="8.86" stroke-linecap="round" stroke-linejoin="round"/>
<path id="Vector_13" d="M1371.86 1512.65C1371.86 1512.65 1336.51 1556.23 1366.51 1594.45" stroke="#17091D" stroke-width="8.86" stroke-linecap="round" stroke-linejoin="round"/>
<path id="Vector_14" d="M1455.58 1510.44C1455.58 1510.44 1474.99 1557.3 1469.23 1584.36" stroke="#17091D" stroke-width="10.67" stroke-linecap="round" stroke-linejoin="round"/>
<path id="Vector_15" d="M1518.18 1514.17C1518.18 1514.17 1535.44 1557.86 1521.64 1573.73" stroke="#17091D" stroke-width="8.79" stroke-linecap="round" stroke-linejoin="round"/>
<path id="Vector_16" d="M1558.81 1512.72C1558.81 1512.72 1570.7 1539.99 1555.6 1552.1" stroke="#17091D" stroke-width="7" stroke-linecap="round" stroke-linejoin="round"/>
<path id="Vector_17" d="M1425 1567C1432.18 1567 1438 1554.24 1438 1538.5C1438 1522.76 1432.18 1510 1425 1510C1417.82 1510 1412 1522.76 1412 1538.5C1412 1554.24 1417.82 1567 1425 1567Z" fill="#D969BD"/>
<path id="Vector_18" d="M1496.06 1539.13C1503.02 1537.35 1506.16 1526.15 1503.08 1514.11C1500 1502.07 1491.86 1493.75 1484.91 1495.53C1477.95 1497.31 1474.81 1508.51 1477.89 1520.55C1480.97 1532.59 1489.1 1540.91 1496.06 1539.13Z" fill="#D969BD"/>
<path id="Vector_19" d="M1540.37 1518.54C1546.38 1517 1549.51 1508.94 1547.36 1500.54C1545.21 1492.14 1538.6 1486.58 1532.59 1488.12C1526.58 1489.65 1523.45 1497.71 1525.6 1506.11C1527.75 1514.51 1534.36 1520.07 1540.37 1518.54Z" fill="#D969BD"/>
</g>
<g id="glove 1">
<path id="Vector_20" d="M486 1632.18C474.17 1632.18 463.08 1628.76 454.17 1626C448.26 1624.18 443.17 1622.6 439.76 1622.6H439.41C438.824 1622.59 438.242 1622.71 437.7 1622.93C432.95 1625.32 422.7 1627.85 408.26 1627.85C399.012 1627.79 389.786 1626.92 380.69 1625.25H380.57C365.684 1622.48 351.095 1618.3 337 1612.77C331.18 1610.54 325.22 1608.03 319.27 1605.32L318.39 1604.9C305.11 1598.56 294.65 1586.9 287.32 1570.34C263.4 1516.12 279.12 1424.98 281.57 1411.82C279.62 1407.67 273.51 1394.51 267.92 1380.37C255.24 1348.27 256.02 1338.88 257.72 1334.6C258.108 1333.52 258.722 1332.53 259.522 1331.7C260.323 1330.88 261.29 1330.23 262.36 1329.81C267.36 1327.87 272.83 1325.69 278.6 1323.38C313.3 1309.5 360.83 1290.5 399 1290.5C410.69 1290.5 421 1292.29 429.68 1295.84C451.75 1304.84 471.03 1368.13 474.8 1381.19C482.22 1386.08 515.8 1408.47 529.07 1421.37C529.55 1421.84 530.02 1422.37 530.47 1422.8C538.55 1431.38 541.77 1441.04 544.89 1450.39C547.14 1457.14 549.26 1463.51 553.1 1468.91C558.9 1477.06 564.96 1495.91 570.81 1514.14C575.13 1527.56 579.58 1541.43 583.01 1547.62L583.49 1548.45C585.544 1551.69 586.748 1555.4 586.991 1559.23C587.233 1563.06 586.508 1566.89 584.88 1570.36C580.8 1579.47 571.71 1586.09 560.58 1588.08C555.89 1588.92 549.81 1593.37 545.58 1596.64C541.99 1599.46 538.25 1602.64 534.29 1606.08C520.82 1617.64 505.55 1630.75 490.8 1631.98C489.28 1632.11 487.63 1632.18 486 1632.18Z" fill="#CE44A2"/>
<path id="Vector_21" d="M399 1295C409.57 1295 419.38 1296.49 428 1300C449.86 1308.94 471 1384 471 1384C471 1384 511.54 1410.47 526 1424.56C526.44 1424.99 526.87 1425.43 527.29 1425.87C540.41 1439.81 539.85 1457.87 549.51 1471.48C559.17 1485.09 570.97 1535 579.15 1549.77C579.35 1550.14 579.55 1550.48 579.75 1550.77C587.94 1564.1 577.55 1580.44 559.86 1583.6C554.86 1584.49 549.15 1588.17 542.93 1593.05C526.93 1605.57 507.82 1626.05 490.55 1627.44C489.04 1627.57 487.55 1627.63 486.03 1627.63C466.91 1627.63 449.55 1618.05 439.79 1618.05H439.28C438.038 1618.06 436.813 1618.34 435.69 1618.87C431.93 1620.75 422.69 1623.3 408.29 1623.3C399.269 1623.24 390.271 1622.39 381.4 1620.75C366.809 1618.04 352.511 1613.94 338.7 1608.51C333.1 1606.36 327.273 1603.91 321.22 1601.16L320.43 1600.79C307.17 1594.46 297.89 1582.89 291.51 1568.45C266.51 1511.8 286.34 1411.15 286.34 1411.15C286.34 1411.15 251.5 1338.83 264 1334C299.4 1320.32 355.52 1295 399 1295ZM399 1286C360 1286 312 1305.2 276.92 1319.21C271.17 1321.52 265.73 1323.69 260.74 1325.62C259.096 1326.27 257.605 1327.26 256.365 1328.52C255.125 1329.78 254.163 1331.28 253.54 1332.94C251.27 1338.69 250.7 1349.01 263.75 1382.03C268.95 1395.2 274.47 1407.24 276.89 1412.44C273.697 1430.86 271.563 1449.45 270.5 1468.12C267.98 1512.34 272.26 1547.34 283.21 1572.12C290.99 1589.73 302.21 1602.12 316.48 1608.94L317.34 1609.34H317.41C323.41 1612.09 329.49 1614.63 335.41 1616.9C349.755 1622.52 364.602 1626.78 379.75 1629.6H379.93C389.268 1631.31 398.738 1632.19 408.23 1632.25C421.01 1632.25 432.62 1630.3 439.38 1627.01H439.73C442.44 1627.01 447.48 1628.56 452.81 1630.21C462.01 1633.05 473.46 1636.58 485.97 1636.58C487.75 1636.58 489.52 1636.51 491.24 1636.37C507.44 1635.01 523.24 1621.37 537.24 1609.37C541.17 1606 544.87 1602.82 548.38 1600.06C554.25 1595.46 558.62 1592.88 561.38 1592.39C573.97 1590.14 584.29 1582.55 588.98 1572.08C590.885 1567.94 591.732 1563.39 591.446 1558.84C591.16 1554.29 589.749 1549.88 587.34 1546.01V1545.95C587.23 1545.77 587.12 1545.59 587.02 1545.4V1545.33C583.81 1539.52 579.42 1525.86 575.17 1512.64C568.94 1493.23 563.05 1474.9 556.84 1466.18C553.39 1461.33 551.37 1455.27 549.23 1448.85C546.11 1439.5 542.58 1428.85 533.84 1419.62C533.3 1419.06 532.84 1418.56 532.33 1418.09C519.51 1405.59 488.33 1384.62 478.76 1378.27C476.88 1371.96 472.33 1357.37 466.11 1341.94C462.114 1331.64 457.299 1321.69 451.71 1312.16C445.01 1301.16 438.4 1294.43 431.5 1291.61C422.29 1287.84 411.4 1285.93 399.13 1285.93L399 1286Z" fill="#17091D"/>
<path id="Vector_22" d="M559.81 1583.66C554.81 1584.55 549.1 1588.23 542.88 1593.11C526.88 1605.63 507.77 1626.11 490.5 1627.5C469.28 1629.27 449.62 1617.74 439.23 1618.12C437.988 1618.13 436.762 1618.41 435.64 1618.94C429.92 1621.81 411.52 1626.21 381.35 1620.82C366.759 1618.11 352.461 1614.01 338.65 1608.58C333.05 1606.43 327.223 1603.98 321.17 1601.23L320.38 1600.86C309.9 1595.74 300.26 1584.24 291.46 1568.52C266.46 1511.87 286.29 1411.22 286.29 1411.22C286.29 1411.22 251.5 1338.83 264 1334C308 1317 384 1282 428 1300C449.86 1308.94 471 1384 471 1384C471 1384 422.72 1317.93 400 1322C374.67 1326.52 324.19 1337.19 301 1339C277.81 1340.81 317.81 1469.3 321.16 1505.4C323.39 1529.52 319.76 1561.84 333.03 1581.15C339.62 1590.75 350.38 1597.15 368.1 1597.72L373.56 1597.87C399.56 1598.38 417.76 1596.18 432.36 1594.73C445.59 1593.41 455.83 1592.73 466.11 1595.15C482.88 1599.15 511.19 1607.25 544.54 1584.15C555.54 1576.53 567.18 1565.48 579.09 1549.75C579.29 1550.12 579.49 1550.46 579.69 1550.75C587.89 1564.16 577.5 1580.5 559.81 1583.66Z" fill="#9C398C"/>
<path id="Vector_23" d="M502.45 1556.87C502.45 1556.87 496.91 1526.43 524.63 1496" stroke="#17091D" stroke-width="8.86" stroke-linecap="round" stroke-linejoin="round"/>
<path id="Vector_24" d="M510.77 1522.09C510.77 1522.09 557.91 1552.52 541.27 1598.17" stroke="#17091D" stroke-width="8.86" stroke-linecap="round" stroke-linejoin="round"/>
<path id="Vector_25" d="M430.499 1546C430.499 1546 426.609 1596.57 440.499 1620.5" stroke="#17091D" stroke-width="10.67" stroke-linecap="round" stroke-linejoin="round"/>
<path id="Vector_26" d="M372.16 1569C372.16 1569 369.34 1615.89 387.38 1626.68" stroke="#17091D" stroke-width="8.79" stroke-linecap="round" stroke-linejoin="round"/>
<path id="Vector_27" d="M333.1 1580.26C333.1 1580.26 330.27 1609.87 348.38 1616.68" stroke="#17091D" stroke-width="7" stroke-linecap="round" stroke-linejoin="round"/>
<path id="Vector_28" d="M461.5 1577C467.299 1577 472 1564.24 472 1548.5C472 1532.76 467.299 1520 461.5 1520C455.701 1520 451 1532.76 451 1548.5C451 1564.24 455.701 1577 461.5 1577Z" fill="#D969BD"/>
<path id="Vector_29" d="M397.5 1573C403.299 1573 408 1563.37 408 1551.5C408 1539.63 403.299 1530 397.5 1530C391.701 1530 387 1539.63 387 1551.5C387 1563.37 391.701 1573 397.5 1573Z" fill="#D969BD"/>
<path id="Vector_30" d="M350.5 1584C356.299 1584 361 1576.61 361 1567.5C361 1558.39 356.299 1551 350.5 1551C344.701 1551 340 1558.39 340 1567.5C340 1576.61 344.701 1584 350.5 1584Z" fill="#D969BD"/>
</g>
<g id="arm 1">
<path id="Vector_31" d="M245.059 1423.91C243.654 1423.93 242.263 1423.62 240.999 1423C228.829 1416.88 167.689 1350.69 155.299 1243.85C154.609 1237.85 153.939 1232.01 153.299 1226.51C152.709 1221.31 152.149 1216.43 151.639 1212.04C151.639 1211.97 151.639 1211.82 151.639 1211.81C149.929 1197.13 147.179 1180.91 143.699 1160.4C139.209 1133.91 133.619 1100.93 127.339 1054.4C124.049 1030.09 121.949 1009.69 120.909 992.06C120.529 985.75 120.339 980.76 120.159 976.36C119.749 965.68 119.539 960.36 117.359 952.84C117.209 952.3 117.049 951.79 116.889 951.27C116.779 950.95 116.669 950.59 116.559 950.27C116.339 949.63 116.089 948.92 115.829 948.18C106.829 922.99 112.769 885.61 115.739 870.7C116.269 868.06 116.739 865.7 117.279 863.53C117.869 860.97 119.279 854.53 121.109 845.77C123.169 836.09 125.919 823.08 129.209 807.53C153.399 693.17 203.739 455.22 226.149 371.4C241.739 313.13 291.759 277.4 330.979 257.75C354.025 246.16 378.333 237.275 403.419 231.27L443.729 209.61C444.386 209.264 445.117 209.082 445.859 209.08C446.989 209.082 448.077 209.506 448.909 210.27L611.609 359.95C612.401 360.702 612.895 361.714 612.999 362.8L634.329 582.37C634.379 582.755 634.379 583.145 634.329 583.53L589.999 854.64C589.858 855.493 589.477 856.287 588.9 856.93L474.589 983.51C474.167 983.976 473.651 984.349 473.076 984.603C472.501 984.858 471.879 984.99 471.249 984.99C470.933 984.991 470.618 984.958 470.309 984.89C469.538 984.728 468.823 984.365 468.237 983.839C467.65 983.312 467.213 982.64 466.969 981.89C466.904 981.683 466.851 981.473 466.809 981.26L466.749 980.95C464.519 968.95 461.009 957.5 458.489 953.54L458.269 953.96C457.856 954.797 457.495 955.658 457.189 956.54L457.099 956.79C456.879 957.39 456.639 958.08 456.349 959.03C455.872 960.646 455.308 962.235 454.659 963.79C448.869 977.85 439.039 982.48 431.869 985.87C425.869 988.7 423.869 989.87 423.739 993.11C423.739 993.37 423.739 993.64 423.739 993.91C423.802 995.129 423.986 996.338 424.289 997.52C427.229 1009.52 429.919 1050.52 431.659 1082.85C432.799 1104.03 433.539 1121.67 433.879 1130.29C434.77 1152.63 434.769 1152.63 433.649 1154.18C433.267 1154.71 432.776 1155.15 432.208 1155.47C431.64 1155.79 431.009 1155.99 430.359 1156.04C427.069 1156.33 426.299 1157.68 426.009 1158.19C424.879 1160.19 423.289 1166.97 433.009 1187.37C446.889 1216.53 489.52 1355.78 491.319 1361.69C491.526 1362.36 491.572 1363.07 491.453 1363.77C491.335 1364.46 491.055 1365.12 490.637 1365.68C490.219 1366.25 489.673 1366.71 489.045 1367.03C488.417 1367.34 487.723 1367.51 487.019 1367.51C486.593 1367.51 486.169 1367.45 485.759 1367.33C469.929 1362.8 453.536 1360.53 437.069 1360.59C374.879 1360.59 315.769 1390.98 280.449 1409.14C263.119 1418 251.689 1423.9 245.059 1423.91Z" fill="#CE44A2"/>
<path id="Vector_32" d="M445.83 213.55L608.53 363.23L629.859 582.8L585.52 853.91L570.3 870.77L471.3 980.49C471.297 980.46 471.297 980.43 471.3 980.4C471.3 980.34 471.3 980.26 471.25 980.15C470.6 976.65 465.32 949.63 458.98 948.15C458.797 948.103 458.608 948.079 458.42 948.08C458.036 948.082 457.658 948.178 457.32 948.36C456.32 948.84 455.32 950.01 454.32 952.03C453.801 953.077 453.35 954.156 452.97 955.26C452.68 956.03 452.41 956.86 452.13 957.78C451.69 959.248 451.176 960.693 450.59 962.11C441 985 420 979.35 419.25 992.87C419.25 993.24 419.25 993.62 419.25 994.01C419.317 995.553 419.545 997.084 419.93 998.58C425.35 1020.67 430.51 1151.5 430.01 1151.58C415.95 1152.82 419.58 1169.65 428.94 1189.33C442.82 1218.49 487 1363 487 1363C470.762 1358.34 453.943 1356.01 437.05 1356.08C345.67 1356.08 263.05 1419.41 245.05 1419.41C244.344 1419.44 243.641 1419.3 243 1419C232.24 1413.59 172 1349 159.75 1243.35C158.4 1231.72 157.15 1220.57 156.1 1211.54C156.1 1211.54 156.1 1211.45 156.1 1211.41C152.2 1177.82 143.01 1137 131.78 1053.82C127.78 1024.52 126.18 1005.34 125.38 991.82C124.07 969.95 124.93 962.82 121.66 951.61C121.51 951.07 121.34 950.52 121.16 949.95L120.83 948.95C120.59 948.22 120.33 947.48 120.06 946.71C112.83 926.43 115.39 895.45 120.13 871.6C120.616 869.173 121.12 866.84 121.64 864.6C122.23 862.06 123.55 855.9 125.49 846.77C142.26 767.85 205 468 230.47 372.53C245.25 317.27 291.71 282.45 332.97 261.74C355.87 250.23 380.033 241.424 404.97 235.5L445.84 213.55M445.84 204.55C444.353 204.549 442.889 204.917 441.58 205.62L401.8 227C376.577 233.111 352.133 242.076 328.94 253.72C303.87 266.3 282.53 281.11 265.5 297.72C243.63 319.1 228.92 343.48 221.78 370.18C199.33 454.1 148.99 692.1 124.78 806.47C121.48 822.06 118.72 835.09 116.66 844.79C114.79 853.58 113.43 859.95 112.84 862.45C112.33 864.7 111.84 867.08 111.28 869.75C108.28 885.05 102.19 923.4 111.55 949.66V949.71C111.78 950.37 112 951.01 112.21 951.64C112.32 951.97 112.42 952.31 112.53 952.64C112.64 952.97 112.82 953.55 112.94 953.99V954.1C114.94 961.04 115.16 966.22 115.57 976.53C115.73 980.73 115.94 985.97 116.32 992.33C117.32 1010.08 119.48 1030.58 122.78 1055.01C129.07 1101.61 134.67 1134.62 139.17 1161.15C142.63 1181.57 145.36 1197.71 147.06 1212.26V1212.56C147.56 1216.87 148.11 1221.67 148.69 1226.78C149.33 1232.35 150.01 1238.3 150.69 1244.37C155.929 1289.94 170.717 1333.9 194.09 1373.37C212.43 1404.09 231.3 1423.24 238.84 1427.03C240.736 1427.96 242.827 1428.43 244.94 1428.4C252.33 1428.4 262.31 1423.4 282.38 1413.12C317.33 1395.12 375.83 1365.07 436.93 1365.07C452.973 1365.01 468.945 1367.22 484.37 1371.63C485.927 1372.08 487.579 1372.11 489.148 1371.7C490.718 1371.29 492.149 1370.46 493.288 1369.31C494.428 1368.15 495.234 1366.71 495.621 1365.14C496.009 1363.56 495.963 1361.91 495.49 1360.36C493.67 1354.43 450.95 1214.88 436.94 1185.41C428.6 1167.89 429.38 1161.89 429.71 1160.65C430.038 1160.57 430.372 1160.52 430.71 1160.5C431.997 1160.39 433.246 1159.99 434.369 1159.35C435.492 1158.71 436.465 1157.84 437.22 1156.79C439.01 1154.32 438.98 1152.04 438.95 1149.79C438.95 1148.79 438.95 1147.25 438.84 1145.37C438.73 1141.5 438.54 1136.2 438.3 1130.05C437.96 1121.42 437.21 1103.76 436.07 1082.54C433.53 1035.28 431.01 1006.29 428.58 996.39C428.346 995.507 428.206 994.602 428.16 993.69C428.148 993.563 428.148 993.436 428.16 993.31C428.151 993.187 428.151 993.063 428.16 992.94C428.81 992.17 431.72 990.8 433.67 989.88C440.97 986.44 451.95 981.26 458.45 966.03C459.97 971.188 461.221 976.422 462.2 981.71C462.2 981.83 462.25 981.95 462.28 982.08C462.354 982.479 462.454 982.873 462.58 983.26C463.073 984.756 463.951 986.097 465.125 987.148C466.299 988.199 467.729 988.923 469.271 989.248C470.813 989.573 472.413 989.487 473.911 989C475.41 988.512 476.754 987.64 477.81 986.47L577 876.8L592.22 859.94C593.378 858.656 594.141 857.066 594.42 855.36L638.76 584.25C638.886 583.483 638.913 582.703 638.84 581.93L617.49 362.36C617.273 360.155 616.251 358.108 614.62 356.61L451.92 206.93C450.26 205.401 448.086 204.552 445.83 204.55H445.84Z" fill="#17091D"/>
<path id="Vector_33" d="M570.3 870.769L471.3 980.489C471.3 980.489 460 927.999 453 955.999C452.61 957.569 450.51 889.139 450.51 889.139L464.6 843.139L480.49 784.559L487.71 741.559L501.88 674.229V619.569C501.88 619.569 506.61 565.509 519.55 553.999C532.49 542.489 547.67 571.079 543.55 636.789C539.43 702.499 510.63 774.879 527.55 814.189C536.66 835.289 555.14 856.069 570.3 870.769Z" fill="#9C398C"/>
<path id="Vector_34" d="M486.999 1363C373.329 1330 257.729 1426.4 242.999 1419C232.239 1413.59 171.999 1349 159.749 1243.35C158.399 1231.72 157.149 1220.57 156.099 1211.54C156.099 1211.54 156.099 1211.45 156.099 1211.41C152.199 1177.82 143.009 1137 131.779 1053.82C127.779 1024.52 126.179 1005.34 125.379 991.82C125.509 992.27 125.629 992.74 125.749 993.22C132.489 1021.44 216.009 1334.01 241.039 1353.22C266.069 1372.43 303.039 1327.04 387.339 1324.41C471.639 1321.78 395.999 1112 398.999 1102.15C401.999 1092.3 376.999 1061 342.729 1036.88C308.459 1012.76 257.999 1026 282.999 1010C309.339 993.14 342.999 1017 375.999 1013C408.999 1009 350.999 991 285.909 976.82C232.999 965.29 154.099 954.33 126.509 950.64L121.149 949.94L116.549 949.34L120.819 948.9L142.499 946.66L161.729 945.26L205.429 942.07L280.259 946.66L355.199 961.43L395.679 978.13L409.199 983.71L415.719 990.4L419.239 994.01C419.307 995.553 419.534 997.085 419.919 998.58C425.339 1020.67 430.499 1151.5 429.999 1151.58C415.939 1152.82 419.569 1169.65 428.929 1189.33C442.819 1218.49 486.999 1363 486.999 1363Z" fill="#9C398C"/>
<path id="Vector_35" d="M344.5 283.069C344.5 283.069 532.5 384.289 502 635.889C471.5 887.489 458.92 835.479 455.21 902.489L457.5 954.489" stroke="#17091D" stroke-width="9" stroke-linecap="round" stroke-linejoin="round"/>
<path id="Vector_36" d="M115.5 872.5C115.5 872.5 274.18 836.21 450.5 911.5" stroke="#17091D" stroke-width="9" stroke-linecap="round" stroke-linejoin="round"/>
<path id="Vector_37" d="M117.5 952.499C117.5 952.499 304.58 908.579 421.5 994.499" stroke="#17091D" stroke-width="9" stroke-linecap="round" stroke-linejoin="round"/>
<path id="Vector_38" d="M332.999 261.74C312.939 287.23 285.549 327.91 269.529 376.53C241.999 460 209.999 624 176.999 726C163.503 767.699 146.259 808.091 125.479 846.68C142.259 767.85 204.999 468 230.469 372.53C245.249 317.27 291.709 282.45 332.999 261.74Z" fill="#D969BD"/>
</g>
<g id="arm 2">
<path id="Vector_39" d="M1587.21 1349.13C1586.85 1349.13 1586.48 1349.09 1586.13 1349C1585.04 1348.73 1476.42 1322.17 1402.79 1322.17C1363.79 1322.17 1348.6 1329.67 1342.73 1335.96C1342.08 1336.66 1341.21 1337.14 1340.27 1337.31C1339.33 1337.49 1338.35 1337.36 1337.49 1336.94C1336.62 1336.53 1335.92 1335.84 1335.47 1335C1335.02 1334.15 1334.85 1333.18 1334.99 1332.23C1341.99 1284.53 1357.77 1156.23 1346.31 1135.9L1344.38 1132.47C1329.51 1106.07 1311.01 1073.21 1297.85 1035.75C1295.82 1029.85 1294.22 1023.81 1293.07 1017.67C1288.43 993.96 1288.6 967.43 1288.73 946.1C1288.8 934.17 1288.87 923.87 1287.98 917.901C1285.26 899.56 1287.44 774.901 1287.9 750.081V749.531L1224.9 573.211C1224.75 572.776 1224.66 572.321 1224.64 571.861C1224.64 571.26 1222.58 511.48 1222.73 471.061C1222.82 442.29 1223.96 435.681 1224.94 433.131C1227.75 424.231 1221.81 315.88 1217.4 249.68C1217.38 249.302 1217.4 248.923 1217.47 248.551L1220.06 234.671C1220.18 234.051 1220.42 233.463 1220.78 232.946C1221.14 232.429 1221.61 231.994 1222.15 231.671C1222.85 231.245 1223.66 231.02 1224.48 231.021C1224.93 231.022 1225.37 231.09 1225.8 231.221L1243.07 236.521C1260.46 239.883 1277.37 245.395 1293.4 252.93C1329.18 269.64 1354.62 294.09 1366.98 323.62C1383.19 362.35 1406.67 435.621 1427.38 500.211C1443.68 551.041 1459.08 599.061 1467.06 617.831C1475.54 637.761 1481.57 660.321 1487.96 684.201C1495.26 711.541 1502.82 739.801 1514.69 766.281C1525.63 790.641 1532.41 799.371 1536.47 804.591C1541.31 810.81 1542.97 813.591 1542.8 825.091C1542.63 836.01 1543.2 840.18 1545.46 844.51C1546.88 847.039 1548.42 849.492 1550.09 851.86C1551.69 854.24 1553.68 857.201 1555.99 860.86C1561.24 869.19 1567.88 889.36 1575.74 920.81C1582.27 946.92 1587.74 973.35 1589.35 982.98C1591.24 994.25 1597.52 1056.88 1603.07 1112.15C1606.64 1147.74 1609.72 1178.47 1611.07 1189.7C1613.22 1207.89 1605.53 1261.86 1598.7 1303.94C1594.91 1327.38 1591.7 1345.26 1591.64 1345.43C1591.53 1346.04 1591.3 1346.62 1590.95 1347.14C1590.61 1347.66 1590.16 1348.09 1589.64 1348.43C1588.91 1348.89 1588.07 1349.13 1587.21 1349.13Z" fill="#CE44A2"/>
<path id="Vector_40" d="M1224.5 235.5L1242.05 240.89C1242.05 240.89 1333.7 255.67 1362.85 325.34C1392 395.01 1444.85 577.13 1462.94 619.57C1481.03 662.01 1488.22 718.19 1510.61 768.1C1533 818.01 1538.61 804 1538.32 825C1538.14 836.73 1538.81 841.43 1541.49 846.57C1543.62 850.64 1547 854.97 1552.2 863.25C1557.96 872.4 1565.2 897 1571.39 921.9C1577.91 947.97 1583.39 974.38 1584.93 983.73C1588 1002 1603.2 1161.46 1606.6 1190.23C1608.72 1208.23 1600.6 1263.89 1594.26 1303.23C1590.43 1326.9 1587.26 1344.64 1587.26 1344.64C1587.26 1344.64 1477.89 1317.64 1402.84 1317.64C1373.84 1317.64 1349.93 1321.64 1339.49 1332.86C1339.49 1332.86 1365.01 1159.86 1350.28 1133.66C1335.55 1107.46 1315.76 1072.98 1302.15 1034.23C1300.19 1028.54 1298.65 1022.71 1297.54 1016.79C1290.29 979.72 1295 934.17 1292.48 917.21C1289.72 898.58 1292.17 765.12 1292.48 750.13C1292.48 749.23 1292.48 748.76 1292.48 748.76L1291.01 744.66L1290.59 743.48L1229.16 571.7C1229.16 571.7 1227.1 511.88 1227.25 471.08C1227.31 452.73 1227.82 438.23 1229.16 434.74C1233.5 423.5 1221.91 249.38 1221.91 249.38L1224.5 235.5ZM1224.5 226.5C1222.4 226.5 1220.36 227.234 1218.75 228.577C1217.13 229.919 1216.04 231.785 1215.65 233.85L1213.06 247.73C1212.92 248.472 1212.88 249.228 1212.93 249.98C1219.12 342.98 1222.48 422.56 1220.63 431.87C1219.5 435.03 1218.35 441.55 1218.25 471.05C1218.1 511.55 1220.14 571.41 1220.17 572.05C1220.2 572.978 1220.37 573.895 1220.68 574.77L1282.06 746.58L1282.48 747.75L1283.4 750.3C1282.74 785.63 1280.84 900.45 1283.53 918.6C1284.36 924.23 1284.3 934.37 1284.23 946.12C1284.1 967.64 1283.93 994.43 1288.66 1018.59C1289.85 1024.93 1291.51 1031.18 1293.61 1037.28C1306.89 1075.11 1325.5 1108.16 1340.46 1134.71L1342.39 1138.14C1344.22 1141.4 1349.57 1158.53 1341.39 1242.21C1336.92 1287.99 1330.58 1331.21 1330.52 1331.62C1330.26 1333.51 1330.61 1335.44 1331.52 1337.12C1332.42 1338.8 1333.84 1340.14 1335.56 1340.97C1337.29 1341.79 1339.23 1342.04 1341.1 1341.69C1342.98 1341.33 1344.69 1340.39 1346 1339C1350.31 1334.39 1363.41 1326.64 1402.77 1326.64C1475.84 1326.64 1583.95 1353.07 1585.04 1353.34C1585.74 1353.51 1586.47 1353.6 1587.19 1353.6C1589.3 1353.6 1591.34 1352.86 1592.96 1351.51C1594.58 1350.16 1595.67 1348.28 1596.05 1346.21C1596.05 1346.03 1599.32 1328.11 1603.12 1304.63C1613.12 1243.01 1617.29 1204.16 1615.52 1189.15C1614.19 1177.95 1611.11 1147.22 1607.52 1111.64C1601.97 1056.32 1595.68 993.64 1593.77 982.21C1592.12 972.5 1586.64 945.92 1580.08 919.69C1572.08 887.78 1565.28 867.17 1559.78 858.43C1557.44 854.7 1555.42 851.71 1553.78 849.3C1551.78 846.3 1550.37 844.22 1549.39 842.37C1547.81 839.37 1547.07 836.62 1547.25 825.11C1547.43 812.53 1545.51 808.91 1539.97 801.78C1536.04 796.72 1529.46 788.26 1518.75 764.39C1507.02 738.24 1499.51 710.15 1492.25 682.99C1485.83 658.99 1479.76 636.24 1471.15 615.99C1463.25 597.42 1447.88 549.49 1431.62 498.75C1410.87 434.05 1387.36 360.75 1371.08 321.82C1363.9 304.66 1352.62 289.23 1337.56 275.95C1324.82 264.932 1310.58 255.784 1295.26 248.78C1278.95 241.131 1261.75 235.519 1244.07 232.07L1227.07 226.85C1226.22 226.584 1225.33 226.449 1224.43 226.45L1224.5 226.5Z" fill="#17091D"/>
<path id="Vector_41" d="M1594.26 1303.22C1590.43 1326.89 1587.26 1344.63 1587.26 1344.63C1587.26 1344.63 1376.92 1292.79 1339.49 1332.89C1339.49 1332.89 1365.01 1159.89 1350.28 1133.69C1335.55 1107.49 1315.76 1073.01 1302.15 1034.26C1288.54 995.51 1295.41 936.99 1292.48 917.26C1289.55 897.53 1292.48 748.81 1292.48 748.81L1291.01 744.71L1294.64 739.07L1304.64 675.79L1311.1 597L1317.6 549.88L1321.9 555.12C1321.9 555.12 1339.81 610.61 1342.66 663.06C1345.51 715.51 1350.29 810.86 1358.4 843.19C1366.51 875.52 1387.4 914.61 1371.97 938.06C1356.54 961.51 1386.49 911.94 1454.97 906.23C1523.45 900.52 1574.08 899.6 1542.28 910.56C1510.48 921.52 1517.59 901.01 1474.03 917.27C1430.47 933.53 1372.83 949.77 1369.15 978.15C1365.47 1006.53 1378.61 1063.9 1390.54 1104.21C1402.47 1144.52 1367.65 1223.94 1385.06 1250.21C1402.47 1276.48 1457.8 1306.01 1543.13 1299.21C1560.28 1297.76 1577.55 1299.12 1594.26 1303.22Z" fill="#9C398C"/>
<path id="Vector_42" d="M1304.58 656.87C1304.58 660.21 1296.82 706.44 1290.58 743.51L1229.16 571.7C1229.16 571.7 1227.1 511.88 1227.25 471.08C1235.38 486.26 1245.74 506.28 1256.11 528.2C1278.5 575.5 1304.67 651.24 1304.58 656.87Z" fill="#9C398C"/>
<path id="Vector_43" d="M1319.5 393.001C1320.09 423.111 1320.14 453.151 1319.91 483.231C1319.82 490.741 1319.8 498.231 1319.66 505.781L1319.26 528.341C1318.86 543.341 1318.53 558.411 1317.9 573.451C1317.63 580.971 1317.37 588.501 1316.96 596.021L1315.82 618.581L1314.36 641.141L1313.99 646.79L1313.53 652.431L1312.59 663.711L1311.64 674.991C1311.3 678.751 1310.86 682.511 1310.47 686.271L1309.26 697.551L1308.66 703.201C1308.45 705.081 1308.15 706.951 1307.91 708.831C1306.85 716.351 1305.91 723.831 1304.75 731.391L1300.75 753.951C1300.33 756.278 1299.01 758.344 1297.07 759.696C1295.13 761.047 1292.73 761.572 1290.4 761.156C1288.08 760.739 1286.01 759.415 1284.66 757.475C1283.31 755.535 1282.78 753.138 1283.2 750.811V750.631L1283.3 750.151L1287.73 728.48C1289.02 721.19 1290.14 713.84 1291.36 706.48C1291.64 704.641 1291.98 702.82 1292.23 700.98L1292.96 695.441L1294.42 684.361C1294.89 680.671 1295.42 676.981 1295.85 673.281L1297.05 662.151L1298.26 651.021L1298.85 645.451L1299.35 639.871L1301.35 617.531L1303.03 595.151C1303.62 587.691 1304.03 580.221 1304.52 572.751C1305.52 557.811 1306.21 542.841 1306.97 527.881L1307.97 505.421C1308.29 497.941 1308.5 490.421 1308.77 482.961C1309.77 452.961 1310.41 422.961 1310.56 393.061C1310.55 391.867 1311.02 390.719 1311.85 389.868C1312.69 389.018 1313.83 388.535 1315.02 388.526C1316.22 388.516 1317.37 388.981 1318.22 389.819C1319.07 390.656 1319.55 391.797 1319.56 392.991L1319.5 393.001Z" fill="#17091D"/>
<path id="Vector_44" d="M1543.16 846.68C1543.16 846.68 1385.36 833.98 1292.43 917.24" stroke="#17091D" stroke-width="7" stroke-linecap="round" stroke-linejoin="round"/>
<path id="Vector_45" d="M1573.75 921.69C1573.75 921.69 1336.36 940.69 1292.43 1025.08" stroke="#17091D" stroke-width="7" stroke-linecap="round" stroke-linejoin="round"/>
</g>
<g id="up">
<path id="Vector_46" d="M844.5 639C844.29 639.015 844.079 639.015 843.87 639L652.77 611.79C651.755 611.647 650.821 611.161 650.12 610.413C649.42 609.666 648.996 608.701 648.92 607.68C643.79 541.74 635.33 441.56 632.72 431.49C631.08 429.03 631.72 425.24 633.63 419.23C634.92 415.04 636.95 409.42 639.63 402.54C644.2 390.92 649.21 379.47 649.26 379.36L649.34 379.19L683.44 309.56C683.807 308.81 684.376 308.177 685.082 307.732C685.789 307.287 686.605 307.047 687.44 307.04C687.8 307.039 688.16 307.083 688.51 307.17L811.69 337.36L951.47 348L1073.63 286.73L1114.87 232.82C1115.25 232.319 1115.74 231.903 1116.29 231.6C1116.84 231.297 1117.45 231.113 1118.08 231.06L1161.08 227.59H1161.45C1162.45 227.592 1163.42 227.926 1164.21 228.539C1165 229.153 1165.56 230.011 1165.81 230.98L1209.81 403.46C1209.88 403.748 1209.93 404.043 1209.94 404.34L1220.94 615.91C1220.97 616.501 1220.88 617.092 1220.69 617.65C1220.49 618.208 1220.18 618.721 1219.79 619.161C1219.39 619.6 1218.91 619.957 1218.38 620.211C1217.84 620.465 1217.26 620.61 1216.67 620.64L844.72 639H844.5Z" fill="#CE44A2"/>
<path id="Vector_47" d="M1161.45 231.999L1205.45 404.48L1216.45 616.06L844.45 634.479L653.4 607.289C653.4 607.289 639.75 431.76 636.62 429.13C633.49 426.499 653.4 381.13 653.4 381.13L687.5 311.499L811 341.779L952.34 352.529L1076.53 290.23L1118.41 235.499L1161.41 232.02M1161.41 223.02C1161.17 223.02 1160.92 223.02 1160.68 223.02L1117.68 226.499C1116.42 226.601 1115.2 226.965 1114.1 227.568C1112.99 228.171 1112.03 228.999 1111.26 229.999L1070.65 283.089L950.57 343.369L812.46 332.869L689.64 302.76C688.94 302.584 688.221 302.497 687.5 302.499C685.821 302.496 684.174 302.963 682.746 303.846C681.318 304.73 680.166 305.995 679.42 307.499L645.32 377.13L645.16 377.469C644.96 377.939 640.06 389.109 635.47 400.809C632.72 407.809 630.66 413.52 629.33 417.809C627.9 422.429 626.05 428.439 628.48 433.07C631.2 446.07 639.63 546.28 644.43 607.94C644.587 609.983 645.437 611.911 646.839 613.406C648.241 614.9 650.111 615.872 652.14 616.159L843.23 643.359C843.651 643.419 844.075 643.45 844.5 643.45H845L1217 625.03C1218.18 624.971 1219.34 624.679 1220.41 624.171C1221.48 623.664 1222.44 622.95 1223.23 622.071C1224.03 621.193 1224.64 620.166 1225.03 619.05C1225.43 617.935 1225.6 616.752 1225.54 615.57L1214.54 403.989C1214.51 403.395 1214.42 402.806 1214.27 402.23L1170.27 229.749C1169.77 227.813 1168.65 226.096 1167.07 224.87C1165.49 223.645 1163.55 222.979 1161.55 222.979L1161.41 223.02Z" fill="#17091D"/>
<path id="Vector_48" d="M931.33 1251.44C846.57 1251.44 764.61 1244.33 687.73 1230.32C623.26 1218.57 562.27 1201.86 506.45 1180.66C504.273 1179.82 502.373 1178.39 500.96 1176.54C499.547 1174.68 498.678 1172.47 498.45 1170.15C496.45 1149.3 490.25 1079.72 492.71 1060C493.76 1051.65 486.16 1039 478.8 1026.82C468.03 1008.92 456.88 990.419 467.8 977.569C473.85 970.459 492.8 949.329 525.74 912.969C562.006 872.936 585.935 823.279 594.65 769.969L618.32 625.089C624.039 590.055 625.279 554.436 622.01 519.089L620.25 500.089C612.203 412.561 571.971 331.131 507.34 271.559L447.84 216.669C446.513 215.442 445.467 213.942 444.776 212.272C444.084 210.602 443.763 208.802 443.834 206.996C443.905 205.19 444.367 203.421 445.188 201.811C446.01 200.201 447.17 198.788 448.59 197.669L495.26 160.919C497.464 159.186 500.186 158.243 502.99 158.239C504.851 158.242 506.688 158.656 508.37 159.449C521.37 165.629 555.53 183.389 591.73 214.609C637.92 254.449 669.9 300.709 686.73 352.109C712.57 430.629 721 486.609 723.6 519.739C724.238 528.248 728.033 536.211 734.24 542.065C740.447 547.919 748.619 551.241 757.15 551.379C820.15 552.639 937.91 554.759 1019.04 554.759C1061.04 554.759 1087.45 554.179 1097.51 553.049C1143.17 547.899 1149.08 546.159 1150.85 527.769C1157.85 454.919 1162.9 370.389 1156.3 351.649C1148.44 329.359 1135.7 226.759 1131.98 195.849C1131.77 194.134 1131.92 192.394 1132.42 190.738C1132.91 189.083 1133.75 187.549 1134.87 186.233C1135.99 184.917 1137.37 183.848 1138.92 183.094C1140.48 182.339 1142.17 181.915 1143.9 181.849C1144.57 181.849 1145.27 181.849 1146 181.849C1160 181.849 1189.43 187.199 1230.21 222.989C1232.63 225.119 1235.38 227.539 1234.8 298.189C1234.49 336.329 1233.28 381.359 1232.47 411.189C1232.09 425.429 1231.79 436.689 1231.74 441.469C1231.67 448.919 1231.24 460.469 1230.74 473.889C1229.65 502.989 1228.17 542.839 1230.25 552.509C1231.12 557.247 1231.56 562.053 1231.57 566.869C1231.97 578.929 1232.48 593.929 1244.5 617.579C1261.12 650.249 1288.98 739.489 1292.1 749.579C1292.47 750.778 1292.66 752.025 1292.66 753.279V910.269C1292.66 910.549 1292.66 910.829 1292.66 911.099L1287.77 984.369C1287.73 985.022 1287.63 985.671 1287.49 986.309C1279.49 1021.42 1271.83 1063.81 1273.99 1073.93C1275.67 1081.78 1279.83 1108.4 1278.99 1136.93C1277.99 1173.26 1269.32 1197.34 1253.34 1208.48C1232.42 1223 1099.8 1251.44 931.33 1251.44Z" fill="#7E4282"/>
<path id="Vector_49" d="M503 162.73C504.19 162.727 505.365 162.99 506.44 163.5C530.5 175 643.29 234.07 682.5 353.5C708.2 431.75 716.58 487.36 719.11 520.09C719.861 529.703 724.163 538.693 731.178 545.309C738.193 551.925 747.419 555.693 757.06 555.88C817.3 557.09 937.48 559.26 1019.06 559.26C1057.14 559.26 1086.8 558.79 1098.06 557.52C1142.54 552.52 1153.19 550.89 1155.37 528.2C1157.55 505.51 1169.62 375.8 1160.58 350.15C1152.83 328.15 1140 224.47 1136.49 195.31C1136.36 194.213 1136.46 193.102 1136.78 192.045C1137.1 190.989 1137.63 190.01 1138.35 189.17C1139.07 188.33 1139.95 187.648 1140.94 187.166C1141.93 186.684 1143.02 186.413 1144.12 186.37C1144.73 186.37 1145.37 186.37 1146.05 186.37C1160.16 186.37 1188.11 192 1227.28 226.37C1234.22 232.47 1227.52 416.79 1227.28 441.37C1227.04 465.95 1222.75 538.8 1225.89 553.37C1229.03 567.94 1223.02 585.09 1240.53 619.53C1256.92 651.76 1284.4 739.69 1287.84 750.8C1288.08 751.567 1288.2 752.366 1288.2 753.17V910.27C1288.2 910.45 1288.2 910.63 1288.2 910.81L1283.31 984.07C1283.28 984.487 1283.22 984.901 1283.13 985.31C1281.51 992.4 1266.35 1059.6 1269.62 1074.87C1273.06 1091 1285.62 1180.52 1250.83 1204.76C1231.27 1218.4 1100.22 1246.94 931.39 1246.94C855.83 1246.94 772.7 1241.22 688.6 1225.94C628.12 1214.94 567.13 1198.94 508.11 1176.51C506.713 1175.98 505.493 1175.07 504.588 1173.88C503.683 1172.69 503.13 1171.27 502.99 1169.78C501.17 1150.43 494.82 1080.01 497.24 1060.61C500 1038 455.5 999 471.25 980.49C478.61 971.84 504.08 943.61 529.1 915.99C565.938 875.319 590.246 824.874 599.1 770.72L622.77 625.84C628.558 590.423 629.812 554.413 626.5 518.68L624.74 499.68C616.538 411.054 575.801 328.608 510.39 268.25L450.9 213.36C450.05 212.575 449.38 211.616 448.936 210.547C448.493 209.479 448.286 208.327 448.331 207.171C448.376 206.015 448.671 204.883 449.195 203.852C449.72 202.821 450.462 201.916 451.37 201.2L498 164.44C499.411 163.33 501.155 162.728 502.95 162.73M502.95 153.73C499.138 153.73 495.436 155.012 492.44 157.37L445.8 194.12C443.867 195.642 442.287 197.566 441.17 199.759C440.053 201.951 439.425 204.36 439.33 206.819C439.235 209.278 439.675 211.728 440.619 214C441.564 216.272 442.99 218.313 444.8 219.98L504.3 274.86C568.115 333.675 607.844 414.071 615.8 500.49L617.56 519.49C620.799 554.463 619.572 589.706 613.91 624.37L590.23 769.27C581.654 821.73 558.11 870.597 522.43 910C489 946.9 470.56 967.46 464.43 974.71C458.3 981.96 457.27 991.49 461.43 1003.15C464.43 1011.62 469.81 1020.55 475.01 1029.15C481.64 1040.15 489.16 1052.65 488.31 1059.45C485.86 1079.07 491.5 1143.71 494.03 1170.58C494.34 1173.74 495.522 1176.75 497.443 1179.27C499.364 1181.8 501.949 1183.74 504.91 1184.88C560.99 1206.18 622.25 1222.96 686.99 1234.75C764.13 1248.82 846.36 1255.95 931.4 1255.95C1026.14 1255.95 1101.74 1247.2 1148.48 1239.86C1202.42 1231.4 1243.61 1220.78 1255.98 1212.15C1273.19 1200.15 1282.47 1174.88 1283.55 1137.04C1284.37 1108.04 1280.13 1081.04 1278.42 1073.04C1276.51 1064.11 1283.94 1022.23 1291.91 987.36C1292.1 986.49 1292.23 985.608 1292.29 984.72L1297.18 911.46C1297.18 911.07 1297.18 910.7 1297.18 910.32V753.21C1297.17 751.515 1296.92 749.83 1296.42 748.21C1291.3 731.73 1264.96 647.84 1248.53 615.53C1236.96 592.77 1236.53 578.32 1236.08 566.71C1236.07 561.624 1235.6 556.55 1234.67 551.55C1232.67 542.44 1234.24 501.28 1235.25 474.05C1235.75 460.62 1236.19 449.05 1236.25 441.51C1236.25 436.76 1236.6 425.51 1236.98 411.28C1237.79 381.47 1238.98 336.41 1239.31 298.28C1239.49 277.22 1239.31 260.51 1238.94 248.64C1238.2 227.64 1236.79 222.83 1233.19 219.64C1215.19 203.8 1197.49 192.21 1180.71 185.19C1168.31 180.01 1156.64 177.38 1146.02 177.38C1145.25 177.38 1144.48 177.38 1143.74 177.38C1141.4 177.471 1139.09 178.047 1136.98 179.07C1134.87 180.094 1132.99 181.544 1131.47 183.329C1129.95 185.114 1128.81 187.195 1128.13 189.441C1127.45 191.687 1127.24 194.049 1127.52 196.38C1132.31 236.14 1144.27 331.03 1152.06 353.13C1157.3 368.01 1155.06 436.39 1146.38 527.33C1144.99 541.83 1143.53 543.33 1097.02 548.57C1087.12 549.68 1060.89 550.25 1019.02 550.25C938.02 550.25 820.2 548.13 757.21 546.87C749.797 546.749 742.697 543.862 737.302 538.776C731.907 533.691 728.608 526.773 728.05 519.38C725.47 486.01 716.95 429.64 691.05 350.68C681.41 321.643 667.252 294.308 649.1 269.68C633.234 248.169 614.973 228.533 594.67 211.15C558.05 179.57 523.47 161.59 510.3 155.33C508.015 154.247 505.519 153.683 502.99 153.68L502.95 153.73Z" fill="#17091D"/>
<path id="Vector_50" d="M815.18 1123.81H815.58C815.919 1123.84 816.235 1123.99 816.457 1124.25C816.679 1124.51 816.79 1124.85 816.765 1125.18C816.74 1125.52 816.581 1125.84 816.323 1126.06C816.065 1126.28 815.729 1126.4 815.39 1126.37C744.64 1124.12 678.2 1122.1 653.39 1121.63C591.49 1120.46 546.92 1135.98 568.2 1152.72C583.03 1164.39 645.53 1201 682.05 1222.11C682.309 1222.26 682.507 1222.5 682.607 1222.79C682.708 1223.07 682.706 1223.38 682.601 1223.67C682.497 1223.95 682.296 1224.19 682.035 1224.34C681.773 1224.49 681.467 1224.54 681.17 1224.49C621.77 1213.27 561.98 1197.21 504.17 1174.93C503.948 1174.84 503.754 1174.69 503.609 1174.5C503.465 1174.31 503.375 1174.09 503.35 1173.85C502.48 1164.85 494.53 1081.85 497.2 1060.52C500 1038 455.5 999 471.25 980.49C478.61 971.84 504.08 943.61 529.1 915.99C540.902 902.966 551.471 888.876 560.67 873.9C560.838 873.631 561.097 873.432 561.4 873.34L568.11 871.4C568.328 871.339 568.558 871.336 568.778 871.391C568.997 871.447 569.198 871.56 569.36 871.718C569.523 871.876 569.64 872.074 569.702 872.292C569.763 872.51 569.766 872.74 569.71 872.96C565.31 889.51 538.81 995.11 570.3 1025.96C604.5 1059.5 692.86 1110.13 815.18 1123.81Z" fill="#5C2C66"/>
<path id="Vector_51" d="M637.5 559.43C637.5 559.43 631.95 643.33 677.22 646.91C722.49 650.49 719.75 549 719.75 549L637.5 559.43Z" fill="#D969BD" stroke="#17091D" stroke-width="9" stroke-miterlimit="10"/>
<path id="Vector_52" d="M628.83 485.06C649.9 479.18 689.54 470.65 715.17 480.71C718.646 482.076 721.752 484.241 724.238 487.029C726.724 489.817 728.519 493.15 729.48 496.76C734.14 514.16 742.55 550.76 733.05 557.52C720.5 566.52 636.16 576.93 620.83 562.21C610.5 552.29 611.22 522.7 612.83 504.47C613.205 499.991 614.938 495.733 617.797 492.265C620.656 488.797 624.505 486.283 628.83 485.06Z" fill="#D969BD" stroke="#17091D" stroke-width="9" stroke-miterlimit="10"/>
<path id="Vector_53" d="M659.14 510.05C667.48 507.72 684.41 504.16 692.3 510.89C692.3 510.89 698.64 531.52 694.39 534.55C690.14 537.58 661.62 541.12 656.39 536.14C652.9 532.79 653.14 522.78 653.67 516.61C653.801 515.088 654.395 513.643 655.374 512.469C656.352 511.296 657.667 510.452 659.14 510.05Z" fill="#9C398C"/>
<path id="Vector_54" d="M1165.7 538.63C1165.7 538.63 1149.9 607.52 1179.2 615.51C1208.5 623.5 1228.35 544.6 1228.35 544.6L1165.7 538.63Z" fill="#D969BD" stroke="#17091D" stroke-width="9" stroke-miterlimit="10"/>
<path id="Vector_55" d="M1168.54 476.3C1186.06 475.18 1217.86 475.01 1237.54 486.04C1240.98 487.996 1243.87 490.794 1245.93 494.171C1248 497.549 1249.17 501.395 1249.34 505.35C1250.09 521.07 1250.25 550.18 1241.64 553.95C1229.76 559.16 1158.64 553.1 1148.57 538.34C1141.79 528.4 1147.57 504.19 1151.97 489.47C1153.07 485.85 1155.24 482.651 1158.2 480.298C1161.16 477.945 1164.77 476.55 1168.54 476.3Z" fill="#D969BD" stroke="#17091D" stroke-width="9" stroke-miterlimit="10"/>
<path id="Vector_56" d="M1189.08 502.1C1196.34 501.63 1210.88 501.65 1216.2 508.55C1216.2 508.55 1217.83 526.6 1213.81 528.36C1209.79 530.12 1185.73 528.07 1182.33 523.08C1180.04 519.72 1181.98 511.54 1183.48 506.56C1183.85 505.335 1184.58 504.252 1185.58 503.456C1186.58 502.659 1187.8 502.186 1189.08 502.1Z" fill="#9C398C"/>
<path id="Vector_57" d="M885 1073.57C848.401 1073.53 813.201 1059.5 786.599 1034.36C759.997 1009.23 744.004 974.877 741.89 938.339L730.89 747.089C730.563 741.301 731.421 735.508 733.412 730.063C735.402 724.618 738.483 719.637 742.465 715.424C746.448 711.212 751.248 707.856 756.572 705.563C761.897 703.27 767.633 702.088 773.43 702.089H773.87C781.73 702.169 790.08 702.219 798.71 702.219C915.17 702.219 1072.43 694.899 1134.64 691.749C1135.23 691.749 1135.81 691.699 1136.39 691.699C1145.38 691.742 1153.99 695.299 1160.39 701.609C1166.79 707.919 1170.47 716.483 1170.64 725.469L1173.86 938.299C1174.37 972.044 1161.58 1004.63 1138.27 1029.03C1114.95 1053.43 1082.97 1067.68 1049.24 1068.7L889.4 1073.52C888 1073.55 886.49 1073.57 885 1073.57Z" fill="#CE44A2"/>
<path id="Vector_58" d="M1136.42 696.18C1144.24 696.189 1151.74 699.271 1157.3 704.759C1162.87 710.248 1166.05 717.704 1166.17 725.52L1169.39 938.35C1169.89 970.914 1157.55 1002.37 1135.05 1025.91C1112.55 1049.45 1081.68 1063.2 1049.13 1064.18L889.3 1069C887.87 1069 886.45 1069.06 885.03 1069.06C849.572 1069.03 815.468 1055.44 789.695 1031.09C763.923 1006.74 748.431 973.459 746.39 938.06L735.39 746.82C735.094 741.645 735.856 736.464 737.631 731.594C739.407 726.724 742.157 722.268 745.715 718.498C749.272 714.728 753.561 711.724 758.32 709.669C763.079 707.615 768.207 706.553 773.39 706.55H773.79C781.837 706.636 790.127 706.68 798.66 706.68C914.52 706.68 1069.66 699.5 1134.82 696.2C1135.34 696.2 1135.82 696.2 1136.35 696.2M1136.35 687.2C1135.69 687.2 1135.03 687.2 1134.35 687.25C1072.17 690.4 915 697.72 798.64 697.72C790.03 697.72 781.64 697.72 773.86 697.6H773.37C766.961 697.603 760.62 698.914 754.736 701.453C748.851 703.992 743.547 707.705 739.147 712.365C734.747 717.025 731.344 722.534 729.147 728.555C726.951 734.575 726.006 740.981 726.37 747.38L737.37 938.63C739.554 976.316 756.055 1011.74 783.498 1037.66C810.941 1063.58 847.251 1078.04 885 1078.07C886.5 1078.07 888 1078.07 889.54 1078L1049.37 1073.17C1084.29 1072.12 1117.41 1057.38 1141.54 1032.11C1165.68 1006.85 1178.91 973.106 1178.37 938.17L1175.15 725.34C1175 715.161 1170.85 705.452 1163.6 698.306C1156.35 691.159 1146.58 687.149 1136.4 687.14L1136.35 687.2Z" fill="#17091D"/>
<path id="Vector_59" d="M756.5 780.5C756.5 780.5 845.61 837.63 1135.5 790.06" stroke="#17091D" stroke-width="9" stroke-linecap="round" stroke-linejoin="round"/>
<path id="Vector_60" d="M812.061 1025.46C812.061 1025.46 839.661 1047.86 961.581 1046.18C1083.5 1044.5 1090.48 1038.07 1124.5 1000.5" stroke="#17091D" stroke-width="9" stroke-linecap="round" stroke-linejoin="round"/>
</g>
<g id="collar back">
<path id="Vector_61" d="M563.37 56.2298C563.37 56.2298 630.51 3.90977 841 28.1998C1051.49 52.4898 1105.45 109.37 1114.47 138.43C1123.49 167.49 1110.14 231.98 1074.82 261.74C1039.5 291.5 911 349.89 830.73 332.19C750.46 314.49 720.93 316.79 673.21 265.19C625.49 213.59 564.52 157.42 554.51 129C544.5 100.58 563.37 56.2298 563.37 56.2298Z" fill="#CE44A2" stroke="#17091D" stroke-width="9" stroke-linecap="round" stroke-linejoin="round"/>
<path id="Vector_62" d="M590.23 95.2901C590.23 95.2901 727.1 54.3801 871.3 74.4401C1015.5 94.5001 1072.71 125.44 1072.61 151.98C1072.51 178.52 1087.8 310.43 944.61 316.98C801.42 323.53 704.92 271.5 667.21 235.5C629.5 199.5 592.37 126.6 587.93 113.55C583.49 100.5 590.23 95.2901 590.23 95.2901Z" fill="#9C398C" stroke="#17091D" stroke-width="9" stroke-linecap="round" stroke-linejoin="round"/>
</g>
<g id="collar front">
<path id="Vector_63" d="M1150 341L1107.11 292.67L1068 286L1024.89 330.28L1003 341L988 353C976.09 353.58 973.64 336.06 953 339C894.85 347.27 898.55 358.42 859 341C819.45 323.58 761 317 761 317L694 361L720 466C720 466 766.55 427.61 802 437C837.45 446.39 898.79 460.62 916 461C945.52 461.65 1029.4 439.2 1055 436C1079 433 1121.42 461.93 1140 472C1158.58 482.07 1151.18 446.55 1154 420C1159 373 1150 341 1150 341Z" fill="#9C398C"/>
<path id="Vector_64" d="M777.5 293.5C777.5 293.5 892.8 362.67 1029.65 276.08L1091.5 309.5C1091.5 309.5 1028.5 391.5 902.5 385.5C776.5 379.5 740.5 323.5 740.5 323.5L777.5 293.5Z" fill="#CE44A2" stroke="#17091D" stroke-width="9" stroke-linecap="round" stroke-linejoin="round"/>
<path id="Vector_65" d="M690 419.5C688.928 419.5 687.891 419.116 687.075 418.42C686.26 417.724 685.719 416.759 685.55 415.7C685.16 413.17 679.06 384.57 672.55 364.87C671.144 360.168 669.307 355.605 667.06 351.24C603.57 240.13 494.52 158.1 493.42 157.24C492.521 156.563 491.904 155.576 491.69 154.47C486.52 127.13 503.4 97.7904 540.51 69.6204C548.51 63.5504 585.89 39.2104 594.7 36.6204C607.27 32.9404 617.5 31.1504 625.97 31.1504C641.55 31.1504 648.7 37.4004 654.44 42.4304C655.24 43.1204 656.03 43.8104 656.83 44.4304C665.01 51.2004 661.52 65.1204 660.26 69.2204C658.5 75.0004 650.86 78.2204 639.26 83.0304C624.41 89.2404 605.92 97.0304 601.43 110.7C599.02 118.08 600.84 126.64 606.99 136.86C607.26 137.32 607.52 137.74 607.79 138.16C640.55 190.06 779.15 293.65 780.55 294.69C781.316 295.262 781.88 296.062 782.16 296.976C782.441 297.889 782.423 298.868 782.11 299.77C765 349.74 696 415.49 693.1 418.27C692.261 419.059 691.152 419.499 690 419.5Z" fill="#CE44A2"/>
<path id="Vector_66" d="M626 35.7099C641.93 35.7099 647.47 42.5999 654 47.9999C659.32 52.3999 657.62 62.7299 656 67.9999C652.08 80.8399 571.94 87.3799 603.22 139.28C603.49 139.74 603.78 140.21 604.08 140.68C637.65 193.87 777.94 298.4 777.94 298.4C760.88 347.8 690 415 690 415C689.53 412 683.33 383.14 676.87 363.47C675.359 358.478 673.394 353.634 671 349C606.28 235.74 496.15 153.68 496.15 153.68C490.15 121.68 517.69 92.6799 543.27 73.2499C551.92 66.6799 588.37 43.2499 596 40.9999C609 37.1999 618.62 35.7099 626 35.7099ZM626 26.7099C617.09 26.7099 606.45 28.5599 593.46 32.3599C583.61 35.2399 544.91 60.6899 537.82 66.0799C499.26 95.3599 481.82 126.23 487.3 155.35C487.717 157.568 488.952 159.549 490.76 160.9C491.03 161.1 518.41 181.61 553.24 215.53C585.24 246.72 630.32 295.96 663.18 353.47C664.18 355.19 665.85 358.8 668.31 366.28C674.66 385.6 680.7 413.89 681.1 416.4C681.356 418.019 682.049 419.538 683.105 420.793C684.161 422.047 685.539 422.989 687.092 423.517C688.644 424.045 690.311 424.139 691.913 423.789C693.514 423.439 694.99 422.658 696.18 421.53C699.18 418.73 768.86 352.23 786.44 301.34C787.065 299.533 787.098 297.575 786.536 295.748C785.973 293.922 784.843 292.322 783.31 291.18C781.92 290.18 643.98 187.05 611.68 135.88L610.97 134.73C610.97 134.73 610.97 134.66 610.92 134.63C605.55 125.73 603.82 118.18 605.78 112.2C609.63 100.43 627.78 92.8299 641.07 87.2799C653.34 82.1499 662.21 78.4399 664.6 70.6299C666.06 65.8599 670.05 49.6299 659.73 41.0599C658.99 40.4499 658.23 39.7899 657.44 39.0599C651.44 33.8299 643.27 26.6699 626 26.6699V26.7099Z" fill="#17091D"/>
<path id="Vector_67" d="M1121.47 413.71C1120.12 413.706 1118.82 413.171 1117.86 412.22C1117.65 412.015 1117.46 411.791 1117.29 411.55L1025.94 278.63C1025.49 277.975 1025.22 277.213 1025.16 276.42C1025.1 275.628 1025.25 274.834 1025.6 274.12L1025.69 273.93C1040.46 246.21 1070.69 184.71 1069.96 171.55C1069.83 169.3 1069.83 166.88 1069.84 164.33C1069.84 159.09 1069.84 153.16 1068.62 148.05C1066.34 138.51 1068.17 128.77 1073.51 121.99C1075.43 119.455 1077.9 117.398 1080.75 115.979C1083.59 114.56 1086.72 113.817 1089.9 113.81C1090.44 113.81 1090.98 113.81 1091.53 113.87C1099.14 114.44 1110.69 119.29 1122.53 139.16C1131.05 153.49 1133.2 170.22 1134.53 180.21C1134.65 181.15 1134.77 182.04 1134.88 182.88C1135.6 188.23 1136.88 195.81 1138.44 204.58C1142.76 229.51 1149.3 267.2 1149.99 299.36C1150.2 308.92 1147.33 329.45 1142.31 354.3C1139.31 369.01 1136.09 382.8 1133.16 393.11C1128.05 410.85 1125.53 413.71 1121.47 413.71Z" fill="#CE44A2"/>
<path id="Vector_68" d="M1089.9 118.31C1090.32 118.31 1090.75 118.31 1091.19 118.31C1099.35 118.92 1109.19 125.47 1118.63 141.41C1127.44 156.23 1129.04 173.75 1130.35 183.41C1133.19 204.41 1144.5 256.41 1145.42 299.41C1145.64 309.41 1142.23 331.57 1137.83 353.41C1132.14 381.6 1124.83 409.21 1121.47 409.21C1121.38 409.208 1121.3 409.188 1121.21 409.152C1121.13 409.116 1121.06 409.064 1121 409L1029.65 276.08C1030.65 274.24 1075.48 189.33 1074.44 171.32C1074.05 164.5 1074.95 155.2 1072.99 147.03C1069.42 132.15 1077.54 118.34 1089.89 118.34M1089.89 109.34C1086.03 109.341 1082.22 110.235 1078.77 111.952C1075.31 113.67 1072.3 116.164 1069.97 119.24C1063.78 127.09 1061.63 138.24 1064.24 149.13C1065.34 153.72 1065.33 159.13 1065.33 164.35C1065.33 166.97 1065.33 169.45 1065.45 171.83C1065.54 173.34 1064.95 183 1044.67 225.92C1033.32 249.92 1021.82 271.64 1021.67 271.85C1021.64 271.891 1021.62 271.935 1021.6 271.98C1020.95 273.259 1020.6 274.674 1020.6 276.11C1020.6 277.931 1021.15 279.709 1022.18 281.21L1113.53 414.13C1113.87 414.613 1114.25 415.065 1114.67 415.48C1116.47 417.248 1118.9 418.239 1121.42 418.24C1128.65 418.24 1131.63 411 1132.9 407.91C1134.63 403.479 1136.12 398.959 1137.37 394.37C1140.37 383.95 1143.61 370.04 1146.6 355.22C1148.51 345.8 1154.69 313.91 1154.37 299.29C1153.67 266.79 1147.1 228.91 1142.75 203.84C1141.24 195.11 1139.93 187.57 1139.22 182.3C1139.11 181.48 1138.99 180.6 1138.87 179.66C1137.54 169.32 1135.31 152.02 1126.32 136.89C1113.52 115.36 1100.49 110.06 1091.81 109.41C1091.17 109.41 1090.5 109.34 1089.81 109.34H1089.89Z" fill="#17091D"/>
<path id="Vector_69" d="M777.94 298.4C760.88 347.8 690 415 690 415C689.53 412 683.33 383.14 676.87 363.47C694.93 341.3 717.73 313.06 716.57 303C713.65 277.5 615.501 199.5 573.341 157.47C550.291 134.47 544.131 99.8998 543.271 73.2498C551.921 66.6798 588.37 43.2498 596 40.9998C637 28.9998 644.46 40.0998 654 47.9998C659.32 52.3998 657.62 62.7298 656 67.9998C652.08 80.8398 571.94 87.3798 603.22 139.28C603.49 139.74 603.781 140.21 604.081 140.68C637.651 193.87 777.94 298.4 777.94 298.4Z" fill="#D969BD"/>
<path id="Vector_70" d="M1137.83 353.41C1131.83 383.01 1124.05 411.97 1121 409L1029.65 276.08C1030.65 274.24 1075.48 189.33 1074.44 171.32C1074.05 164.5 1074.95 155.2 1072.99 147.03C1069.3 131.64 1078.11 117.39 1091.18 118.39C1093.55 123.261 1094.85 128.583 1095 134C1095.5 175 1077.1 268.49 1087.55 289.74C1091.53 297.82 1115.75 326.79 1137.83 353.41Z" fill="#D969BD"/>
</g>
</g>
</svg>
