<svg width="1000" height="1000" viewBox="0 0 1000 1000" fill="none" xmlns="http://www.w3.org/2000/svg">
<path d="M687.919 986.098C683.243 986.098 677.924 983.887 672.783 981.734C671.028 981.007 669.375 980.316 667.816 979.749C665.36 978.854 663.616 978.44 662.323 978.44C662.109 978.439 661.895 978.453 661.683 978.48C661.057 978.568 660.426 978.613 659.794 978.614C656.186 978.614 652.854 977.116 650.881 974.614C650.078 973.613 649.517 972.44 649.242 971.186C648.967 969.932 648.986 968.631 649.297 967.385C649.326 967.276 649.348 967.167 649.37 967.051C650.423 961.563 653.868 945.233 655.768 939.134C656.444 936.953 655.452 933.916 654.402 930.694C653.068 926.593 651.55 921.942 653.417 917.967C653.526 917.738 653.635 917.523 653.748 917.305C656.858 911.353 665.931 899.825 667.947 897.305C667.849 894.996 667.547 886.593 667.813 877.691C668.456 856.142 671.718 852.709 672.794 851.582C673.188 851.133 673.672 850.772 674.214 850.522C674.755 850.271 675.344 850.137 675.94 850.127C679.327 850.127 688.657 846.971 696.124 844.433C701.21 842.702 706.053 841.065 709.058 840.36C710.487 840.019 711.95 839.844 713.418 839.84C717.415 839.84 720.634 841.2 723.228 842.291C725.139 843.098 726.789 843.796 728.268 843.796C728.779 843.799 729.286 843.708 729.765 843.527C730.031 843.43 730.313 843.379 730.597 843.378C732.958 843.378 734.048 846.487 734.957 851.16C735.632 854.647 736.25 859.487 736.773 865.545C737.587 874.683 737.979 883.927 738.059 885.909C740.127 889.673 756.226 919.803 754.046 941.473C753.388 948.04 751.089 953.243 747.212 956.942L746.968 957.167C745.213 958.785 743.437 960.327 741.678 961.76C737.439 965.259 732.878 968.348 728.057 970.985C718.378 976.189 711.936 976.749 709.614 976.749C709.1 976.753 708.586 976.721 708.077 976.651H707.954C707.778 976.656 707.605 976.685 707.438 976.738C706.264 977.076 704.626 978.236 702.714 979.578C699.528 981.833 695.56 984.64 690.724 985.793C689.804 986.002 688.863 986.105 687.919 986.098Z" fill="#CE44A2"/>
<path d="M713.414 841.472C719.98 841.472 724.151 845.425 728.253 845.425C728.958 845.431 729.659 845.308 730.32 845.061C730.404 845.03 730.492 845.014 730.582 845.014C734.942 845.014 736.446 886.374 736.446 886.374C736.446 886.374 754.66 918.919 752.433 941.327C751.859 947.036 749.962 952.083 746.096 955.77L745.864 955.989C744.086 957.625 742.35 959.13 740.657 960.505C736.501 963.943 732.026 966.975 727.294 969.559C718.915 974.065 712.695 975.13 709.625 975.13C709.192 975.134 708.76 975.106 708.331 975.047C708.211 975.029 708.089 975.021 707.968 975.021C707.64 975.025 707.315 975.075 707.001 975.17C703.368 976.214 697.882 982.421 690.354 984.207C689.559 984.389 688.745 984.478 687.93 984.472C682.026 984.472 674.443 980.447 668.383 978.239C666.094 977.403 664.023 976.832 662.333 976.832C662.044 976.831 661.755 976.85 661.469 976.887C660.916 976.965 660.359 977.004 659.801 977.003C654.107 977.003 649.686 972.836 650.892 967.789C650.925 967.654 650.957 967.516 650.983 967.363C652.142 961.334 655.517 945.469 657.334 939.643C659.15 933.818 651.946 924.981 654.903 918.679C654.998 918.479 655.096 918.279 655.201 918.079C658.598 911.578 669.611 897.847 669.611 897.847C669.611 897.847 667.365 851.767 675.947 851.767C681.899 851.767 701.838 843.738 709.439 841.949C710.749 841.636 712.09 841.478 713.436 841.476M713.436 838.203C711.845 838.209 710.261 838.397 708.713 838.763C705.632 839.49 700.774 841.134 695.633 842.879C688.653 845.247 679.09 848.49 675.973 848.49C675.154 848.498 674.346 848.676 673.601 849.013C672.855 849.351 672.188 849.84 671.642 850.45C669.596 852.603 666.806 857.759 666.214 877.639C665.963 886.039 666.214 893.81 666.323 896.759C663.718 900.054 655.343 910.803 652.334 916.559C652.222 916.77 652.109 916.992 651.971 917.261V917.283C649.831 921.847 651.451 926.825 652.883 931.214C653.809 934.054 654.765 936.985 654.242 938.661C652.323 944.818 648.857 961.243 647.804 966.741C647.804 966.741 647.804 966.763 647.804 966.774C647.804 966.843 647.774 966.919 647.756 967.003C647.382 968.491 647.357 970.045 647.684 971.544C648.01 973.043 648.679 974.446 649.638 975.643C651.92 978.552 655.731 980.265 659.834 980.265C660.543 980.264 661.252 980.214 661.955 980.116C662.092 980.099 662.229 980.09 662.366 980.09C663.456 980.09 665.062 980.487 667.3 981.305C668.822 981.858 670.465 982.541 672.198 983.261C677.488 985.443 682.96 987.73 687.963 987.73C689.033 987.734 690.1 987.612 691.142 987.367C696.301 986.145 700.411 983.236 703.717 980.898C705.345 979.745 707.027 978.552 707.935 978.294H707.993C708.546 978.366 709.103 978.4 709.661 978.396C712.106 978.396 718.872 977.818 728.874 972.439C733.789 969.754 738.438 966.606 742.757 963.039C744.537 961.585 746.34 960.025 748.113 958.392L748.153 958.356L748.374 958.145C752.534 954.178 755.001 948.629 755.699 941.665C756.676 931.847 754.202 919.272 748.342 904.272C745.831 897.849 742.947 891.577 739.705 885.49C739.596 882.879 739.2 874.101 738.43 865.418C737.885 859.305 737.256 854.407 736.57 850.872C736.257 849.068 735.778 847.297 735.138 845.581C734.11 843.036 732.595 841.767 730.611 841.763C730.132 841.764 729.657 841.85 729.208 842.018C728.911 842.129 728.596 842.185 728.278 842.181C727.13 842.181 725.622 841.545 723.875 840.807C721.153 839.658 717.767 838.229 713.44 838.229L713.436 838.203Z" fill="#17091D"/>
<path d="M661.458 976.88C663.275 976.626 665.673 977.244 668.361 978.233C675.29 980.756 684.206 985.655 690.336 984.2C697.86 982.415 703.35 976.2 706.98 975.164C707.41 975.027 707.865 974.984 708.313 975.04C710.613 975.404 717.462 974.829 727.276 969.553C732.009 966.968 736.484 963.936 740.639 960.498C742.335 959.121 744.07 957.616 745.846 955.982L746.078 955.764C749.119 952.811 751.165 947.764 752.415 941.32C754.649 918.913 736.428 886.367 736.428 886.367C736.428 886.367 734.866 843.356 730.302 845.055C724.682 847.153 719.653 839.542 709.411 841.946C701.81 843.731 681.87 851.764 675.919 851.764C667.337 851.764 669.582 897.844 669.582 897.844C669.582 897.844 658.569 911.575 655.172 918.076C655.067 918.276 654.969 918.476 654.874 918.676C657.153 916.593 668.412 906.611 676.7 905.444C685.958 904.142 708.855 903.298 717.07 901.302C725.285 899.306 732.101 910.007 735.018 922.866C736.973 931.451 741.875 942.215 739.473 950.386C738.281 954.451 735.287 957.873 729.234 960.076C728.598 960.309 727.973 960.531 727.367 960.746C718.458 963.855 711.91 965.156 706.704 966.306C701.981 967.346 698.369 968.258 695.077 970.266C689.74 973.538 680.875 979.542 666.737 975.356C662.065 973.971 656.811 971.462 650.921 967.356C650.896 967.509 650.863 967.647 650.831 967.782C649.559 973.313 654.994 977.789 661.458 976.88Z" fill="#9C398C"/>
<path d="M662.403 941.851C662.813 941.131 663.728 940.879 664.448 941.288C671.228 945.144 675.049 950 677.172 953.926C678.231 955.884 678.865 957.606 679.236 958.852C679.422 959.474 679.542 959.979 679.617 960.336C679.655 960.514 679.681 960.656 679.698 960.757C679.707 960.807 679.713 960.847 679.718 960.877C679.72 960.892 679.722 960.904 679.724 960.914C679.724 960.919 679.725 960.922 679.726 960.926C679.726 960.927 679.725 960.929 679.726 960.931L679.727 960.933C679.727 960.933 679.712 960.937 678.24 961.138L679.727 960.935C679.838 961.755 679.264 962.511 678.443 962.623C677.623 962.735 676.866 962.161 676.754 961.34V961.339C676.754 961.337 676.753 961.335 676.753 961.333C676.751 961.32 676.748 961.297 676.742 961.264C676.731 961.198 676.711 961.093 676.682 960.952C676.622 960.67 676.522 960.247 676.361 959.709C676.04 958.633 675.481 957.105 674.533 955.353C672.642 951.856 669.197 947.439 662.966 943.895C662.246 943.486 661.994 942.571 662.403 941.851Z" fill="#17091D"/>
<path d="M670.277 949.11C670.799 948.467 671.743 948.368 672.387 948.889C673.03 949.411 673.128 950.353 672.608 950.997L672.609 950.998C672.608 950.998 672.607 951 672.605 951.003C672.601 951.008 672.594 951.017 672.584 951.029C672.564 951.054 672.533 951.094 672.492 951.147C672.41 951.255 672.286 951.42 672.131 951.637C671.82 952.07 671.382 952.712 670.888 953.526C669.896 955.16 668.689 957.469 667.81 960.179C666.055 965.589 665.641 972.45 670.679 978.874C671.19 979.526 671.076 980.469 670.424 980.98C669.772 981.491 668.83 981.377 668.318 980.725C662.457 973.251 663.014 965.24 664.956 959.253C665.926 956.264 667.248 953.741 668.323 951.97C668.862 951.082 669.343 950.376 669.692 949.888C669.867 949.645 670.009 949.455 670.109 949.324C670.16 949.258 670.199 949.208 670.228 949.172C670.242 949.154 670.254 949.14 670.262 949.13C670.266 949.125 670.269 949.12 670.272 949.117C670.273 949.116 670.274 949.114 670.275 949.113L670.276 949.111C670.28 949.113 670.336 949.158 671.427 950.042L670.277 949.11Z" fill="#17091D"/>
<path d="M701.287 947.864C702.053 947.548 702.929 947.911 703.246 948.677L701.86 949.25C703.241 948.679 703.247 948.676 703.247 948.677V948.678C703.247 948.679 703.248 948.68 703.248 948.682C703.249 948.684 703.251 948.688 703.253 948.692C703.257 948.702 703.263 948.715 703.27 948.732C703.284 948.767 703.305 948.818 703.331 948.884C703.384 949.016 703.461 949.21 703.558 949.458C703.751 949.954 704.023 950.67 704.342 951.56C704.98 953.337 705.808 955.813 706.571 958.605C708.075 964.104 709.416 971.136 708.287 976.442C708.115 977.253 707.318 977.77 706.508 977.598C705.698 977.425 705.181 976.629 705.353 975.818C706.317 971.285 705.177 964.876 703.678 959.396C702.94 956.698 702.137 954.298 701.518 952.573C701.208 951.711 700.946 951.019 700.762 950.545C700.67 950.308 700.596 950.125 700.547 950.003C700.523 949.942 700.505 949.896 700.492 949.866C700.486 949.852 700.481 949.84 700.479 949.833C700.477 949.83 700.475 949.827 700.475 949.825V949.823C700.158 949.058 700.522 948.181 701.287 947.864Z" fill="#17091D"/>
<path d="M724.054 949.211C724.825 948.906 725.696 949.285 726.001 950.055L724.605 950.606C726 950.055 726 950.056 726.001 950.056V950.057C726.001 950.058 726.002 950.059 726.003 950.06C726.004 950.063 726.005 950.067 726.006 950.071C726.01 950.08 726.016 950.093 726.022 950.11C726.035 950.143 726.053 950.191 726.077 950.254C726.124 950.378 726.192 950.559 726.275 950.789C726.442 951.249 726.673 951.909 726.934 952.718C727.455 954.333 728.1 956.557 728.585 958.976C729.068 961.385 729.405 964.048 729.279 966.522C729.154 968.969 728.566 971.439 726.995 973.248C726.451 973.873 725.504 973.939 724.879 973.396C724.253 972.853 724.187 971.906 724.73 971.281C725.665 970.204 726.173 968.524 726.283 966.369C726.391 964.241 726.101 961.85 725.643 959.566C725.187 957.292 724.577 955.184 724.079 953.639C723.83 952.869 723.611 952.242 723.455 951.811C723.377 951.596 723.314 951.429 723.272 951.318C723.251 951.263 723.235 951.221 723.224 951.194C723.219 951.18 723.215 951.17 723.213 951.164C723.212 951.161 723.211 951.159 723.211 951.158L723.21 951.157C722.905 950.386 723.284 949.515 724.054 949.211Z" fill="#17091D"/>
<path d="M738.768 948.705C739.528 948.374 740.411 948.722 740.742 949.482L739.367 950.08C740.742 949.481 740.743 949.482 740.743 949.483V949.484C740.743 949.484 740.745 949.485 740.745 949.486C740.746 949.489 740.747 949.492 740.749 949.495C740.752 949.502 740.756 949.512 740.761 949.524C740.771 949.547 740.784 949.58 740.802 949.622C740.836 949.706 740.884 949.826 740.942 949.978C741.058 950.28 741.216 950.712 741.386 951.241C741.723 952.296 742.117 953.766 742.329 955.396C742.74 958.558 742.523 962.855 739.14 965.57C738.493 966.089 737.55 965.985 737.031 965.339C736.513 964.693 736.617 963.749 737.263 963.231C739.366 961.542 739.731 958.679 739.354 955.782C739.172 954.383 738.829 953.097 738.528 952.155C738.378 951.687 738.24 951.31 738.141 951.053C738.092 950.925 738.053 950.826 738.027 950.763C738.014 950.731 738.005 950.708 737.999 950.694L737.991 950.678H737.992C737.662 949.919 738.009 949.036 738.768 948.705Z" fill="#17091D"/>
<path d="M690.75 969.817C693.358 969.817 695.473 965.177 695.473 959.453C695.473 953.73 693.358 949.09 690.75 949.09C688.141 949.09 686.026 953.73 686.026 959.453C686.026 965.177 688.141 969.817 690.75 969.817Z" fill="#D969BD"/>
<path d="M716.568 959.683C719.095 959.036 720.237 954.963 719.118 950.585C717.999 946.208 715.043 943.183 712.515 943.83C709.988 944.477 708.847 948.551 709.966 952.928C711.085 957.306 714.04 960.33 716.568 959.683Z" fill="#D969BD"/>
<path d="M732.667 952.194C734.85 951.635 735.987 948.706 735.206 945.651C734.426 942.597 732.023 940.573 729.84 941.132C727.656 941.691 726.52 944.621 727.301 947.676C728.081 950.73 730.484 952.753 732.667 952.194Z" fill="#D969BD"/>
<path d="M554.54 993.876C553.344 993.876 552.153 993.876 550.965 993.876C542.492 993.814 534.12 993.541 526.73 993.301C519.965 993.079 514.123 992.89 509.417 992.89C505.014 992.89 502.093 993.065 500.487 993.425C499.131 993.73 497.089 993.879 494.241 993.879C491.392 993.879 487.792 993.727 483.454 993.432C458.315 991.705 411.259 985.068 390.371 980.858L389.281 980.636C372.205 977.068 362.373 972.036 357.37 964.319C353.304 958.05 352.432 949.927 354.699 939.483C360.098 914.636 380.009 842.985 380.212 842.261L380.42 841.534L417.044 825.465L609.872 837.348L610.213 838.407C610.311 838.705 619.907 868.501 624.572 895.745C629.237 922.988 632.369 972.883 632.398 973.385L632.435 973.938L632.122 974.399C631.704 975.025 627.214 980.763 599.422 989.392C589.645 992.396 574.959 993.876 554.54 993.876Z" fill="#7E4282"/>
<path d="M417.341 827.091L453.675 829.331L608.644 838.88C608.644 838.88 618.247 868.545 622.944 895.971C627.642 923.396 630.753 973.425 630.753 973.425C630.753 973.425 626.967 979.062 598.928 987.767C587.538 991.305 570.951 992.211 554.518 992.211C553.33 992.211 552.142 992.211 550.957 992.211C534.923 992.094 519.402 991.225 509.399 991.225C505.214 991.225 501.994 991.378 500.112 991.8C498.852 992.083 496.842 992.214 494.223 992.214C491.334 992.214 487.712 992.054 483.548 991.771C457.624 989.989 410.801 983.287 390.676 979.225L389.586 979.003C364.019 973.662 350.902 964.545 356.276 939.803C361.726 914.712 381.764 842.672 381.764 842.672L417.316 827.076M416.727 823.76L416.001 824.08L380.463 839.691L379.039 840.312L378.646 841.818C378.447 842.545 358.521 914.236 353.115 939.131C350.75 950.018 351.694 958.549 356.022 965.203C358.877 969.614 363.168 973.152 369.134 976.029C374.221 978.476 380.703 980.502 388.961 982.211L389.365 982.294L390.073 982.44C411.001 986.662 458.162 993.309 483.359 995.04C487.719 995.338 491.4 995.491 494.259 995.491C497.231 995.491 499.389 995.327 500.864 994.996C502.34 994.665 505.224 994.502 509.435 994.502C514.115 994.502 519.943 994.691 526.697 994.913C534.095 995.153 542.477 995.425 550.968 995.487C552.189 995.487 553.395 995.487 554.554 995.487C575.428 995.487 589.848 994.033 599.935 990.898C627.668 982.283 632.762 976.353 633.503 975.262L634.121 974.342L634.052 973.251C634.022 972.749 630.876 922.734 626.204 895.432C621.52 868.072 611.888 838.167 611.79 837.869L611.103 835.745L608.88 835.611L453.893 826.065L417.541 823.825L416.753 823.774L416.727 823.76Z" fill="#17091D"/>
<path d="M495.695 879.788L505.087 910.181C504.36 909.817 484.377 919.272 439.607 878.508C428.02 867.963 408.259 870.726 402.809 899.453C399.299 917.948 393.362 954.984 389.612 979.017C364.044 973.675 350.928 964.559 356.302 939.817C361.752 914.726 381.79 842.686 381.79 842.686L417.342 827.09L453.675 829.33L495.695 879.788Z" fill="#5C2C66"/>
<path d="M561.745 956.364C559.659 966.397 554.445 982.182 550.976 992.226C528.227 992.059 506.515 990.382 500.131 991.815C497.478 992.411 491.502 992.328 483.566 991.786C485.336 980.048 488.744 956.353 488.584 948.924C488.373 938.909 510.181 956.739 539.425 951.106C568.67 945.473 564.989 940.728 561.745 956.364Z" fill="#5C2C66"/>
<path d="M500.624 962.115C501.437 961.958 502.224 962.49 502.381 963.303C503.406 968.605 503.017 976.222 502.409 982.376C502.102 985.482 501.734 988.266 501.442 990.274C501.297 991.278 501.17 992.089 501.079 992.651C501.034 992.931 500.997 993.149 500.972 993.298C500.959 993.372 500.95 993.43 500.943 993.469C500.94 993.488 500.937 993.503 500.936 993.513C500.935 993.518 500.934 993.522 500.934 993.525C500.933 993.526 500.933 993.528 500.933 993.528V993.529C500.79 994.346 500.013 994.892 499.197 994.749C498.381 994.607 497.835 993.83 497.978 993.014V993.011C497.978 993.009 497.979 993.006 497.98 993.002C497.981 992.993 497.983 992.98 497.986 992.962C497.993 992.926 498.002 992.872 498.014 992.801C498.038 992.658 498.073 992.447 498.117 992.173C498.206 991.626 498.329 990.83 498.473 989.843C498.76 987.868 499.123 985.13 499.424 982.081C500.032 975.926 500.369 968.702 499.436 963.873C499.278 963.06 499.811 962.273 500.624 962.115Z" fill="#17091D"/>
<path d="M510.768 970.07C516.79 968.892 525.218 967.943 534.842 968.869C535.667 968.949 536.271 969.681 536.192 970.506C536.112 971.331 535.379 971.935 534.555 971.856C525.285 970.964 517.155 971.877 511.344 973.015C508.44 973.583 506.121 974.206 504.534 974.685C503.741 974.924 503.132 975.127 502.725 975.269C502.521 975.339 502.368 975.395 502.268 975.432C502.218 975.45 502.181 975.464 502.157 975.473C502.146 975.477 502.138 975.481 502.133 975.483C502.131 975.483 502.13 975.483 502.129 975.484C501.357 975.784 500.488 975.403 500.187 974.631C499.886 973.859 500.268 972.989 501.039 972.689L501.455 973.756C501.068 972.761 501.042 972.693 501.04 972.689L501.042 972.688C501.043 972.687 501.044 972.687 501.045 972.687C501.048 972.686 501.051 972.683 501.056 972.682C501.065 972.678 501.077 972.674 501.093 972.668C501.125 972.656 501.17 972.639 501.229 972.617C501.346 972.574 501.517 972.512 501.74 972.435C502.184 972.28 502.833 972.065 503.668 971.813C505.338 971.309 507.755 970.66 510.768 970.07Z" fill="#17091D"/>
<path d="M673.194 895.211C670.825 895.211 670.098 895.139 669.757 895.08C664.939 894.28 663.293 891.531 658.857 881.037C656.731 875.979 653.501 860.2 650.079 843.495C646.329 825.204 642.449 806.295 639.76 799.859C635.346 789.313 635.603 779.542 635.811 771.677C635.858 769.899 635.901 768.222 635.89 766.659C635.818 757.648 647.426 743.084 647.92 742.47L648.208 742.106L728.304 713.16C728.826 712.944 729.386 712.837 729.95 712.844C732.13 712.844 735.422 714.299 738.514 721.157C742.761 730.582 746.642 772.539 744.807 789.157C743.902 797.357 743.524 811.742 743.157 825.655C742.819 838.597 742.496 850.819 741.759 855.553C741.279 858.604 741.635 863.073 742.013 867.8C742.209 870.248 742.413 872.782 742.5 875.193C742.732 881.666 742.278 888.531 737.141 890.371C729.758 893.048 685.569 895.211 673.194 895.211Z" fill="#7E4282"/>
<path d="M729.968 714.495C731.421 714.495 734.175 715.477 737.042 721.844C741.195 731.062 744.981 772.877 743.201 789.011C741.42 805.146 741.642 845.84 740.16 855.331C739.393 860.24 740.628 868.277 740.886 875.284C741.122 881.829 740.501 887.469 736.61 888.862C729.463 891.408 685.794 893.589 673.197 893.589C672.14 893.616 671.082 893.58 670.029 893.48C666.083 892.826 664.724 890.724 660.386 880.415C656.048 870.106 646.554 811.797 641.289 799.248C636.025 786.698 637.616 775.197 637.547 766.666C637.478 758.135 649.217 743.517 649.217 743.517L673.488 734.746L704.517 723.535L727.468 715.24L728.947 714.706C729.27 714.566 729.62 714.499 729.972 714.509M729.972 711.237C729.203 711.23 728.441 711.376 727.73 711.666L726.356 712.164L703.405 720.455L672.372 731.637L648.102 740.408L647.241 740.72L646.667 741.448C644.477 744.233 642.443 747.139 640.573 750.149C636.359 756.949 634.241 762.513 634.273 766.673C634.273 768.211 634.241 769.873 634.193 771.637C633.983 779.658 633.721 789.64 638.27 800.495C640.904 806.778 644.937 826.455 648.494 843.818C652.08 861.335 655.179 876.462 657.367 881.666C661.556 891.618 663.496 895.695 669.491 896.691C669.949 896.768 670.748 896.844 673.194 896.844C680.071 896.844 694.67 896.24 707.151 895.44C723.948 894.349 734.226 893.186 737.707 891.942C740.581 890.913 742.518 888.513 743.462 884.808C744.08 882.371 744.302 879.309 744.149 875.164C744.062 872.717 743.858 870.164 743.662 867.698C743.299 863.273 742.935 858.695 743.39 855.833C744.145 850.997 744.454 839.284 744.81 825.728C745.174 812.495 745.537 797.495 746.452 789.364C747.466 780.171 746.678 764.309 745.602 752.528C745.075 746.749 743.113 727.353 740.021 720.491C736.573 712.822 732.649 711.215 729.968 711.215L729.972 711.237Z" fill="#17091D"/>
<path d="M736.606 888.863C728.54 891.747 673.971 894.125 670.025 893.467C666.079 892.809 664.72 890.711 660.382 880.402C656.044 870.092 646.55 811.783 641.285 799.234C636.021 786.685 637.612 775.183 637.543 766.652C637.474 758.122 649.213 743.503 649.213 743.503L673.484 734.732C671.115 741.722 666.762 759.292 670.516 786.638C675.49 822.911 678.76 871.274 690.75 874.183C698.274 876.002 723.29 875.743 740.89 875.274C741.118 881.82 740.497 887.471 736.606 888.863Z" fill="#5C2C66"/>
<path d="M641.395 759.135C640.719 759.164 640.048 759.004 639.458 758.673C637.961 757.746 637.136 756.731 636.915 755.564C636.62 753.92 637.641 752.655 638.51 751.509C639.883 749.76 640.57 748.88 638.43 746.826C632.253 740.88 621.8 724.844 621.353 724.164C621.21 723.946 621.122 723.696 621.095 723.437C621.033 722.779 614.868 657.618 613.443 644.4C613.443 644.335 613.443 644.244 613.418 644.157C613.294 643.011 613.233 642.542 613.207 642.338C612.927 641.553 613.338 640.815 615.086 637.666C617.756 632.873 622.839 624.211 625.622 619.484C629.565 612.789 632.994 607.026 633.027 606.971C633.162 606.742 633.352 606.55 633.579 606.411C633.805 606.272 634.063 606.191 634.328 606.175L656.375 604.768H656.48C656.715 604.768 656.946 604.819 657.159 604.917C657.373 605.015 657.562 605.157 657.716 605.335L658.046 605.72L692.694 610.491C692.939 610.525 693.173 610.614 693.379 610.751C693.585 610.888 693.757 611.07 693.882 611.284L705.668 631.349C705.72 631.439 705.764 631.532 705.799 631.629C705.799 631.629 706.787 634.404 708.295 638.658C712.975 651.884 721.077 674.986 722.734 681.091C723.254 682.997 723.977 685.455 724.743 688.084C726.476 694.004 728.442 700.709 729.525 705.822C730.222 709.095 730.459 711.277 730.251 712.629C730.11 713.618 729.917 714.979 717.171 722.691C709.807 727.149 700.095 732.6 689.776 738.04C680.449 742.979 649.246 759.135 641.395 759.135Z" fill="#CE44A2"/>
<path d="M656.51 606.394C656.971 606.928 657.236 607.244 657.236 607.244L692.512 612.103L704.299 632.168C704.299 632.168 705.287 634.943 706.795 639.194C711.075 651.288 719.512 675.335 721.197 681.51C722.847 687.579 726.4 698.761 727.966 706.15C728.555 708.917 728.864 711.15 728.693 712.39C728.075 716.754 652.756 757.481 641.409 757.481C641.033 757.506 640.657 757.431 640.319 757.263C634.328 753.557 645.711 751.51 639.593 745.626C633.474 739.743 622.745 723.274 622.745 723.274C622.745 723.274 616.532 657.586 615.093 644.219C615.093 644.146 615.093 644.07 615.071 644.001C614.922 642.67 614.832 641.914 614.803 641.866C614.773 641.819 615.417 640.477 616.536 638.466C618.89 634.241 623.235 626.801 627.072 620.306C631.069 613.539 634.473 607.801 634.473 607.801L656.52 606.394M656.52 603.121H656.31L634.266 604.528C633.736 604.562 633.223 604.724 632.769 605.001C632.316 605.278 631.937 605.661 631.665 606.117C631.628 606.175 628.199 611.935 624.256 618.637C621.459 623.383 616.368 632.063 613.691 636.863C613.08 637.954 612.637 638.783 612.332 639.379C611.863 640.292 611.3 641.39 611.634 642.652C611.66 642.863 611.718 643.317 611.827 644.299C611.827 644.39 611.827 644.488 611.856 644.583C613.28 657.823 619.439 722.917 619.486 723.572C619.536 724.098 619.713 724.605 620.002 725.048C620.445 725.732 630.978 741.921 637.307 747.997C637.669 748.296 637.964 748.667 638.172 749.088C637.917 749.587 637.603 750.052 637.235 750.474C636.301 751.663 634.895 753.459 635.313 755.826C635.749 758.281 637.892 759.604 638.583 760.037C639.427 760.541 640.398 760.794 641.38 760.764C643.397 760.764 647.633 760.07 661.062 754.044C669.259 750.368 679.741 745.19 690.576 739.47C700.905 734.015 710.664 728.561 718.055 724.074C721.902 721.743 724.958 719.779 727.105 718.237C730.502 715.804 731.669 714.492 731.901 712.841C732.123 711.263 731.901 708.986 731.138 705.459C730.048 700.292 728.068 693.554 726.328 687.604C725.561 684.997 724.842 682.535 724.326 680.644C722.658 674.488 714.541 651.343 709.85 638.099C708.343 633.844 707.351 631.063 707.351 631.063C707.281 630.87 707.195 630.684 707.093 630.506L695.306 610.441C695.056 610.014 694.713 609.65 694.302 609.375C693.891 609.101 693.423 608.923 692.934 608.855L658.897 604.172C658.591 603.84 658.219 603.574 657.806 603.393C657.393 603.211 656.946 603.118 656.495 603.117L656.52 603.121Z" fill="#17091D"/>
<path d="M728.679 712.389C728.036 716.938 646.311 760.978 640.316 757.28C634.321 753.582 645.708 751.527 639.589 745.643C633.471 739.76 622.745 723.273 622.745 723.273C622.745 723.273 616.532 657.585 615.093 644.218C615.107 644.145 615.1 644.069 615.072 644C614.923 642.669 614.832 641.913 614.803 641.865C614.774 641.818 615.417 640.476 616.536 638.465C618.89 634.24 623.236 626.8 627.072 620.305C631.069 613.538 634.474 607.8 634.474 607.8L656.521 606.393C656.982 606.927 657.247 607.243 657.247 607.243L692.523 612.102L704.31 632.167C704.31 632.167 705.298 634.942 706.806 639.193C694.111 638.691 661.477 636.782 657.011 640.193C651.703 644.243 648.8 681.309 650.257 698.182C651.714 715.054 655.431 734.643 678.524 728.363C693.813 724.211 715.246 713.145 727.977 706.145C728.537 708.916 728.853 711.149 728.679 712.389Z" fill="#9C398C"/>
<path d="M701.6 633.925C685.824 633.925 648.858 624.528 639.8 618.215C636.814 616.132 635.298 610.655 635.033 600.983C634.848 594.197 635.306 585.485 636.399 575.095V575.005C637.678 562.917 639.382 552.765 639.401 552.663L639.502 552.059L684.625 515.197L685.507 517.11C685.613 517.335 695.902 539.605 700.455 548.492C705.393 558.128 711.33 612.663 711.984 621.077C712.158 623.169 712.648 625.223 713.437 627.168C714.004 628.685 714.494 629.997 713.713 631.259C712.747 632.815 710.686 633.154 704.557 633.783H704.426C703.605 633.881 702.65 633.925 701.6 633.925Z" fill="#7E4282"/>
<path d="M684.032 517.797C684.032 517.797 694.387 540.215 699.005 549.237C703.623 558.259 709.618 611.637 710.37 621.204C711.122 630.771 717.273 630.826 704.408 632.157H704.295C703.499 632.237 702.598 632.277 701.606 632.277C686.346 632.277 649.566 623.011 640.741 616.862C635.291 613.051 636.261 592.073 638.041 575.168C639.327 562.99 641.024 552.928 641.024 552.928L684.039 517.79M685.238 512.586L681.968 515.255L638.949 550.4L637.998 551.179L637.794 552.39C637.794 552.491 636.065 562.695 634.782 574.833V575.004C633.692 585.43 633.231 594.182 633.416 601.022C633.703 611.4 635.389 617.117 638.866 619.568C645.446 624.153 662.799 628.768 667.962 630.07C681.59 633.517 694.165 635.571 701.603 635.571C702.6 635.577 703.597 635.532 704.589 635.437H704.669H704.731C710.664 634.826 713.64 634.517 715.111 632.164C716.314 630.219 715.573 628.233 714.973 626.637C714.235 624.836 713.778 622.933 713.618 620.993C713.204 615.666 711.438 599.64 709.371 584.608C706.573 564.371 704.062 551.982 701.911 547.786C697.373 538.931 687.098 516.691 687.015 516.47L685.245 512.637L685.238 512.586Z" fill="#17091D"/>
<path d="M704.401 632.157H704.288C691.252 633.495 650.152 623.411 640.734 616.862C635.284 613.051 636.254 592.073 638.034 575.168L639.31 573.35C639.31 573.35 675.854 614.575 704.401 632.157Z" fill="#5C2C66"/>
<path d="M539.48 911.295C520.223 911.295 497.845 908.135 487.356 905.077C475.003 901.481 464.208 886.895 454.689 874.041C449.351 866.826 444.308 860.012 439.599 855.888C436.722 853.368 431.922 851.186 425.335 849.401C407.321 844.528 382.033 844.31 381.779 844.31C381.406 844.308 381.045 844.18 380.754 843.946L375.838 839.928C375.617 839.746 375.447 839.51 375.345 839.242C375.244 838.974 375.215 838.684 375.26 838.401C376.038 833.546 382.858 790.935 383.057 790.001C383.33 788.75 384.482 788.157 387.992 787.455C388.784 787.299 389.568 787.164 390.197 787.063L390.884 743.063C390.605 742.921 390.335 742.76 390.077 742.583C387.058 740.528 381.975 734.717 374.962 725.317C361.693 707.499 355.114 633.117 353.929 618.383C353.816 617.015 353.762 616.266 353.762 616.266C353.738 615.921 353.822 615.578 354.004 615.284C354.186 614.99 354.456 614.761 354.776 614.63L413.443 590.684C413.639 590.605 413.849 590.564 414.061 590.564C414.164 590.565 414.268 590.575 414.37 590.594C522.163 611.459 577.23 622.23 578.04 622.63C577.992 622.603 577.941 622.583 577.888 622.568C579.675 623.128 615.889 630.481 639.796 635.295C640.011 635.339 640.215 635.425 640.396 635.549C640.578 635.673 640.732 635.832 640.85 636.017C640.969 636.202 641.048 636.409 641.085 636.625C641.122 636.842 641.115 637.064 641.064 637.277C640.999 637.55 634.626 664.652 634.989 676.823C635.009 678.619 634.888 680.413 634.626 682.19C634.628 682.203 634.628 682.217 634.626 682.23C632.653 697.27 623.264 724.124 622.868 725.259C622.837 725.345 622.799 725.429 622.756 725.51C622.719 725.575 619.082 732.146 614.661 739.692C614.344 740.293 614.09 740.925 613.905 741.579C610.798 751.794 610.355 783.761 610.297 790.419C611.798 791.015 613.872 792.237 616.474 793.994C620.797 796.968 622.447 805.994 623.043 811.121C624.107 820.212 623.624 831.299 621.688 842.335C621.982 844.037 622.051 849.815 611.02 853.535C604.022 855.895 602.631 857.484 600.327 860.124C598.527 862.25 596.535 864.205 594.376 865.964C589.932 869.601 585.213 878.259 580.653 886.626C577.114 893.114 573.459 899.823 569.785 904.481C566.236 909.015 556.041 911.295 539.48 911.295Z" fill="#CE44A2"/>
<path d="M414.061 592.232C414.061 592.232 576.3 623.636 577.328 624.134C578.356 624.632 639.458 636.923 639.458 636.923C639.458 636.923 632.98 664.363 633.343 676.894C633.363 678.614 633.249 680.334 633.002 682.036C631.04 697.09 621.331 724.727 621.331 724.727C621.331 724.727 617.72 731.272 613.258 738.909C612.874 739.617 612.57 740.366 612.35 741.141C608.778 752.876 608.662 791.687 608.662 791.687C609.002 791.727 609.333 791.821 609.643 791.967C610.609 792.331 612.412 793.247 615.533 795.392C620.983 799.138 624.253 818.556 620.009 842.414C620.009 842.414 621.895 848.192 610.482 852.036C599.07 855.88 601.548 858.01 593.326 864.763C585.103 871.516 576.841 892.934 568.488 903.53C564.946 908.029 553.228 909.683 539.476 909.683C520.833 909.683 498.485 906.64 487.81 903.53C469.262 898.13 454.02 866.389 440.671 854.68C437.318 851.741 431.951 849.52 425.756 847.847C407.321 842.858 381.793 842.712 381.793 842.712L376.877 838.694C376.877 838.694 384.46 791.272 384.656 790.352C384.852 789.432 391.814 788.494 391.814 788.494V787.691L392.54 741.818C392.487 741.856 392.421 741.873 392.355 741.865C392.148 741.865 391.741 741.763 390.996 741.258C389.089 739.96 384.961 736.018 376.278 724.37C363.23 706.861 356.658 631.843 355.568 618.283C355.455 616.92 355.4 616.178 355.4 616.178L356.203 615.851L414.068 592.214M414.068 588.941C413.644 588.941 413.224 589.023 412.833 589.185L354.968 612.821L354.169 613.145C353.528 613.405 352.986 613.863 352.621 614.451C352.256 615.039 352.087 615.727 352.138 616.418C352.138 616.418 352.196 617.17 352.309 618.552C352.821 624.901 354.754 647.421 358.205 670.334C360.157 683.269 362.282 694.301 364.524 703.123C367.369 714.301 370.337 721.894 373.662 726.327C380.779 735.876 385.993 741.807 389.161 743.963L389.238 744.018L388.591 785.694L387.683 785.869C385.041 786.392 382.047 786.985 381.47 789.658C381.266 790.6 375.435 827.014 373.651 838.152C373.561 838.718 373.621 839.298 373.825 839.833C374.029 840.369 374.37 840.841 374.813 841.203L379.729 845.203C380.309 845.673 381.033 845.929 381.778 845.931C382.029 845.931 407.114 846.134 424.913 850.952C431.261 852.669 435.842 854.734 438.528 857.087C443.106 861.087 448.098 867.843 453.384 874.981C463.056 888.072 474.022 902.865 486.909 906.618C497.504 909.705 520.07 912.901 539.487 912.901C547.044 912.901 553.417 912.414 558.431 911.447C564.731 910.24 568.862 908.294 571.068 905.494C574.825 900.73 578.513 893.96 582.084 887.414C586.571 879.185 591.211 870.687 595.408 867.232C597.638 865.416 599.696 863.398 601.555 861.203C603.822 858.607 604.96 857.305 611.536 855.09C617.12 853.21 620.797 850.552 622.465 847.192C623.233 845.701 623.539 844.015 623.344 842.349C625.266 831.254 625.735 820.12 624.663 810.934C623.897 804.345 622.011 795.821 617.397 792.647C615.662 791.425 613.84 790.331 611.947 789.374C612.041 780.941 612.568 751.614 615.474 742.065C615.622 741.531 615.825 741.014 616.081 740.523C620.507 732.952 624.151 726.367 624.187 726.301C624.277 726.141 624.352 725.973 624.413 725.8C624.816 724.658 634.259 697.65 636.25 682.44V682.389C636.519 680.528 636.641 678.65 636.613 676.77C636.25 664.818 642.579 637.923 642.645 637.65C642.745 637.223 642.759 636.779 642.685 636.346C642.61 635.914 642.45 635.5 642.212 635.13C641.975 634.761 641.666 634.443 641.303 634.196C640.94 633.948 640.532 633.776 640.101 633.691C616.485 628.941 580.565 621.647 578.335 621.003C578.335 621.003 578.454 621.04 578.603 621.105C577.997 620.854 575.977 620.41 551.993 615.701C538.404 613.036 519.536 609.352 495.912 604.76C455.71 596.96 415.085 589.09 414.682 589.018C414.477 588.979 414.269 588.959 414.061 588.96L414.068 588.941Z" fill="#17091D"/>
<path d="M633.343 676.895C633.363 678.615 633.249 680.334 633.001 682.037C631.879 676.386 628.416 668.582 617.741 671.451C601.548 675.815 544.493 671.477 520.157 674.557C495.821 677.637 477.364 679.008 460.792 674.324C444.221 669.64 414.54 653.488 410.652 659.564C406.765 665.64 418.969 673.109 422.323 691.011C425.676 708.913 425.956 770.36 433.804 775.633C441.652 780.906 500.403 779.658 501.431 791.997C502.885 809.451 506.3 820.153 503.975 828.36C502.303 834.258 510.151 840.724 495.255 838.178C488.903 837.088 476.289 832.851 465.098 825.815C450.819 816.837 438.251 804.771 437.485 804.724L433.125 803.997C429.662 804.618 428.285 806.244 426.766 811.815C423.496 823.815 418.046 835.088 425.313 847.088C425.462 847.335 425.607 847.578 425.738 847.815C407.302 842.826 381.775 842.68 381.775 842.68L376.859 838.662C376.859 838.662 384.46 791.273 384.656 790.353C384.852 789.433 391.814 788.495 391.814 788.495V787.691L392.54 741.818C392.54 741.818 392.242 742.102 390.996 741.258C389.089 739.96 384.961 736.018 376.277 724.371C363.23 706.862 356.657 631.844 355.567 618.284L356.203 615.851L414.068 592.215C414.068 592.215 576.3 623.637 577.328 624.135C578.356 624.633 639.458 636.924 639.458 636.924C639.458 636.924 632.98 664.364 633.343 676.895Z" fill="#9C398C"/>
<path d="M388.972 787.229C389.097 786.41 389.862 785.848 390.68 785.972L390.455 787.455C390.681 785.972 390.682 785.972 390.682 785.972H390.684C390.686 785.973 390.688 785.973 390.69 785.973C390.695 785.974 390.703 785.976 390.713 785.977C390.732 785.98 390.761 785.984 390.799 785.99C390.873 786.002 390.981 786.02 391.123 786.044C391.406 786.091 391.821 786.163 392.355 786.261C393.423 786.458 394.966 786.76 396.882 787.187C400.711 788.041 406.034 789.391 412.02 791.382C423.957 795.351 438.68 801.915 449.391 812.282C458.962 821.545 469.313 828.66 482.997 833.271C496.705 837.891 513.843 840.028 537.024 839.199H537.025C542.882 838.991 548.745 838.871 554.614 838.889C558.257 838.902 563.18 838.587 568.107 837.262C573.038 835.936 577.88 833.624 581.481 829.709C587.098 823.59 589.828 819.765 592.112 816.13C594.394 812.498 596.35 808.846 600.255 803.337C604.121 797.881 606.22 794.718 607.346 792.929C607.91 792.035 608.225 791.493 608.394 791.185C608.479 791.032 608.525 790.94 608.547 790.896L608.555 790.879C608.554 790.882 608.552 790.887 608.55 790.891C608.55 790.893 608.549 790.896 608.548 790.898C608.547 790.899 608.547 790.901 608.547 790.902C608.851 790.134 609.719 789.756 610.489 790.058C611.26 790.361 611.64 791.232 611.338 792.003L609.941 791.455C611.287 791.983 611.335 792.003 611.337 792.005L611.336 792.008C611.335 792.009 611.334 792.011 611.334 792.012C611.333 792.015 611.331 792.018 611.33 792.021C611.327 792.028 611.324 792.035 611.321 792.042C611.315 792.056 611.309 792.071 611.301 792.088C611.286 792.121 611.267 792.162 611.243 792.212C611.195 792.309 611.125 792.445 611.022 792.633C610.816 793.007 610.469 793.602 609.885 794.528C608.719 796.38 606.586 799.592 602.703 805.071C598.858 810.496 597.042 813.923 594.652 817.726C592.265 821.526 589.423 825.494 583.69 831.738L583.689 831.739C579.577 836.209 574.153 838.742 568.885 840.159C563.614 841.576 558.406 841.902 554.604 841.889C549.509 841.874 544.414 841.963 539.316 842.124L537.132 842.198C513.73 843.035 496.201 840.887 482.039 836.114C467.852 831.333 457.129 823.946 447.305 814.438C437.071 804.532 422.846 798.143 411.073 794.228C405.204 792.277 399.982 790.952 396.229 790.116C394.353 789.698 392.846 789.402 391.811 789.212C391.294 789.116 390.895 789.048 390.627 789.003C390.493 788.98 390.392 788.964 390.325 788.953C390.292 788.948 390.267 788.944 390.251 788.941C390.243 788.94 390.237 788.939 390.233 788.938C390.231 788.938 390.23 788.938 390.229 788.938C389.41 788.813 388.848 788.048 388.972 787.229Z" fill="#17091D"/>
<path d="M499.137 667.775C499.138 667.778 499.138 667.783 499.138 667.789C499.139 667.801 499.14 667.819 499.14 667.844C499.142 667.892 499.144 667.965 499.147 668.06C499.153 668.252 499.163 668.538 499.175 668.911C499.199 669.657 499.234 670.756 499.279 672.162C499.37 674.974 499.501 679.019 499.662 683.949C499.984 693.81 500.427 707.215 500.907 721.387C501.867 749.74 502.977 781.149 503.58 793.435C504.082 803.668 504.788 814.963 505.368 823.703C505.658 828.072 505.915 831.802 506.101 834.438C506.194 835.756 506.27 836.801 506.321 837.516C506.347 837.874 506.367 838.15 506.381 838.336L506.4 838.599C506.401 838.605 506.401 838.61 506.401 838.613V838.617C506.462 839.443 505.841 840.163 505.015 840.223C504.189 840.284 503.47 839.663 503.409 838.837V838.833C503.409 838.83 503.408 838.825 503.408 838.819C503.407 838.807 503.406 838.789 503.404 838.765C503.401 838.718 503.395 838.647 503.388 838.554C503.375 838.367 503.355 838.091 503.329 837.732C503.277 837.015 503.202 835.969 503.109 834.649C502.923 832.009 502.664 828.275 502.374 823.901C501.794 815.155 501.088 803.841 500.584 793.583C499.98 781.269 498.869 749.831 497.909 721.489C497.429 707.315 496.986 693.909 496.664 684.047C496.503 679.116 496.372 675.071 496.281 672.259C496.236 670.852 496.2 669.754 496.176 669.008C496.164 668.634 496.154 668.349 496.148 668.157C496.145 668.061 496.143 667.988 496.141 667.939C496.141 667.915 496.14 667.897 496.139 667.885V667.867C496.143 667.866 496.218 667.864 497.638 667.818C499.058 667.773 499.133 667.771 499.137 667.771C499.138 667.772 499.137 667.774 499.137 667.775ZM497.591 666.319C498.419 666.293 499.111 666.942 499.137 667.77L496.139 667.866C496.113 667.038 496.763 666.346 497.591 666.319Z" fill="#17091D"/>
<path d="M562.312 667.819C563.809 667.898 563.81 667.899 563.81 667.9C563.809 667.901 563.809 667.902 563.809 667.904C563.808 667.909 563.808 667.915 563.808 667.924C563.807 667.941 563.805 667.967 563.804 668.001C563.8 668.07 563.795 668.174 563.788 668.311C563.774 668.583 563.752 668.989 563.726 669.519C563.672 670.579 563.593 672.138 563.497 674.131C563.304 678.118 563.038 683.846 562.743 690.802C562.153 704.715 561.449 723.544 560.995 743.209C560.541 762.878 560.337 783.369 560.745 800.611C560.949 809.232 561.306 817.027 561.858 823.491C562.414 829.984 563.16 835.041 564.112 838.241C564.349 839.035 563.897 839.87 563.103 840.107C562.309 840.343 561.474 839.892 561.237 839.098C560.192 835.585 559.427 830.269 558.869 823.747C558.309 817.198 557.951 809.336 557.746 800.682C557.337 783.372 557.542 762.828 557.996 743.14C558.451 723.449 559.154 704.6 559.745 690.675C560.04 683.712 560.308 677.978 560.501 673.986C560.598 671.99 560.675 670.429 560.729 669.366C560.756 668.835 560.778 668.428 560.792 668.154C560.799 668.018 560.804 667.913 560.808 667.844C560.809 667.809 560.812 667.783 560.812 667.766C560.813 667.757 560.813 667.751 560.813 667.746C560.814 667.744 560.813 667.742 560.813 667.741C560.814 667.74 560.814 667.739 562.312 667.819ZM562.391 666.32C563.218 666.364 563.853 667.07 563.81 667.898L560.813 667.739C560.857 666.912 561.563 666.277 562.391 666.32Z" fill="#17091D"/>
<path d="M554.635 511.436C554.567 511.44 554.499 511.44 554.431 511.436C553.341 511.309 472.834 495.342 456.695 492.142C456.362 492.077 456.058 491.909 455.826 491.662L394.423 426.746C394.166 426.472 394.011 426.119 393.983 425.745C393.955 425.371 394.057 424.999 394.27 424.691C400.053 416.049 409.008 410.039 419.191 407.964C442.729 403.172 466.981 403.083 490.554 407.702C500.462 409.662 509.574 411.378 518.389 413.033C552.927 419.527 575.744 423.818 582.255 431.273C585.838 435.382 586.059 446.615 582.938 465.618C580.697 479.269 577.467 492.004 577.438 492.131C577.357 492.444 577.186 492.726 576.947 492.942C576.896 492.986 571.86 497.516 566.774 501.986C556.008 511.436 555.463 511.436 554.635 511.436Z" fill="#CE44A2"/>
<path d="M455.673 405.945C467.281 405.936 478.862 407.061 490.252 409.305C539.044 418.966 573.321 423.526 581.023 432.363C588.726 441.199 575.853 491.741 575.853 491.741C575.853 491.741 555.848 509.817 554.635 509.817C553.545 509.69 457.032 490.545 457.032 490.545L395.629 425.628C401.193 417.362 409.772 411.607 419.525 409.596C431.414 407.171 443.516 405.953 455.648 405.959M455.648 402.686C443.296 402.667 430.974 403.901 418.871 406.37C408.271 408.531 398.948 414.785 392.922 423.777C392.507 424.394 392.315 425.134 392.376 425.875C392.438 426.616 392.749 427.314 393.26 427.854L454.663 492.77C455.128 493.264 455.735 493.6 456.4 493.73C485.467 499.497 553.163 512.919 554.253 513.046C554.385 513.062 554.517 513.071 554.649 513.072C556.004 513.072 556.891 512.537 560.561 509.497C562.377 507.981 564.852 505.861 567.867 503.232C572.979 498.752 578.008 494.214 578.041 494.17C578.52 493.738 578.862 493.174 579.021 492.548C579.054 492.421 582.291 479.617 584.551 465.897C588.821 439.901 586.005 433.079 583.487 430.21C576.605 422.316 554.805 418.21 518.694 411.425C509.883 409.77 500.774 408.054 490.87 406.097C479.276 403.815 467.489 402.667 455.673 402.672L455.648 402.686Z" fill="#17091D"/>
<path d="M407.743 426.265C408.233 425.225 435.436 404.56 485.035 414.156C534.633 423.753 583.527 432.502 585.202 451.091C586.877 469.68 548.727 512.545 548.727 512.545L451.568 479.454L399.183 445.636L407.743 426.265Z" fill="#9C398C"/>
<path d="M427.524 414.791C440.81 410.624 460.262 407.835 485.319 412.683C510.079 417.474 534.801 422.077 553.529 427.817C562.889 430.686 570.862 433.869 576.628 437.563C582.364 441.238 586.215 445.616 586.696 450.956C587.156 456.056 584.903 462.551 581.549 469.21C578.159 475.94 573.498 483.113 568.812 489.662C564.123 496.218 559.384 502.185 555.819 506.511C554.036 508.674 552.546 510.43 551.5 511.645C550.977 512.253 550.565 512.726 550.283 513.048C550.142 513.209 550.034 513.332 549.961 513.415C549.924 513.456 549.896 513.488 549.877 513.51C549.868 513.52 549.86 513.529 549.855 513.534L549.848 513.542C549.844 513.539 549.784 513.486 548.727 512.545L549.848 513.542L549.186 514.286L450.909 480.814L397.293 446.201L406.371 425.659L406.378 425.642L406.386 425.625C406.521 425.339 406.734 425.125 406.791 425.066C406.899 424.955 407.027 424.837 407.165 424.718C407.444 424.476 407.821 424.18 408.288 423.84C409.225 423.158 410.569 422.273 412.31 421.281C415.792 419.297 420.886 416.873 427.524 414.791ZM484.75 415.629C460.209 410.881 441.26 413.627 428.422 417.653C421.998 419.668 417.1 422.005 413.794 423.889C412.14 424.831 410.891 425.656 410.053 426.266C409.632 426.572 409.326 426.816 409.128 426.987C409.084 427.025 409.049 427.058 409.021 427.085L401.072 445.07L452.225 478.093L548.26 510.801C548.514 510.509 548.84 510.137 549.226 509.688C550.259 508.487 551.736 506.749 553.504 504.603C557.04 500.311 561.735 494.4 566.373 487.916C571.016 481.425 575.578 474.395 578.87 467.86C582.198 461.254 584.086 455.42 583.708 451.225C583.352 447.271 580.462 443.583 575.01 440.09C569.588 436.616 561.923 433.527 552.65 430.685C534.114 425.004 509.588 420.435 484.75 415.629Z" fill="#17091D"/>
<path d="M412.67 444.428C413.131 443.381 438.368 422.483 483.945 431.603C529.521 440.723 582.019 449.992 583.386 468.545C584.752 487.097 541.66 529.272 541.66 529.272L452.52 497.126L404.607 463.839L412.67 444.428Z" fill="#5C2C66"/>
<path d="M430.895 432.787C443.193 428.49 461.169 425.515 484.239 430.132C506.984 434.683 531.599 439.298 550.681 445.102C560.217 448.002 568.48 451.23 574.473 454.954C580.413 458.646 584.486 463.056 584.882 468.435C585.26 473.572 582.594 480.04 578.736 486.619C574.831 493.28 569.516 500.36 564.192 506.819C558.863 513.285 553.494 519.164 549.461 523.424C547.444 525.554 545.758 527.282 544.576 528.477C543.985 529.076 543.519 529.541 543.201 529.857C543.042 530.015 542.92 530.137 542.837 530.219C542.796 530.259 542.764 530.291 542.743 530.311C542.733 530.322 542.724 530.329 542.719 530.335C542.716 530.338 542.713 530.34 542.712 530.342L542.71 530.343C542.705 530.339 542.638 530.271 541.66 529.271L542.71 530.343L542.037 531.002L452.012 498.537L451.826 498.471L451.664 498.358L402.758 464.381L411.284 443.852L411.291 443.838L411.297 443.823C411.419 443.547 411.611 443.335 411.668 443.272C411.769 443.16 411.889 443.04 412.018 442.919C412.278 442.674 412.628 442.372 413.062 442.027C413.934 441.335 415.182 440.437 416.797 439.428C420.028 437.409 424.75 434.934 430.895 432.787ZM483.65 433.073C461.144 428.57 443.713 431.486 431.884 435.619C425.964 437.688 421.442 440.063 418.387 441.972C416.858 442.927 415.704 443.761 414.929 444.377C414.54 444.686 414.257 444.932 414.074 445.103C414.031 445.144 413.997 445.18 413.97 445.207L406.456 463.298L453.212 495.78L541.276 527.538C541.574 527.241 541.968 526.849 542.442 526.369C543.612 525.186 545.282 523.473 547.283 521.36C551.287 517.132 556.606 511.308 561.878 504.911C567.156 498.508 572.358 491.566 576.148 485.102C579.986 478.555 582.194 472.793 581.89 468.654C581.602 464.757 578.6 461.051 572.889 457.502C567.23 453.985 559.263 450.847 549.808 447.972C530.905 442.223 506.482 437.642 483.65 433.073Z" fill="#17091D"/>
<path d="M349.58 993.521C345.282 993.521 341.253 992.277 338.015 991.277C335.868 990.612 334.019 990.037 332.78 990.037H332.653C332.44 990.035 332.228 990.075 332.031 990.157C330.305 991.026 326.581 991.946 321.331 991.946C317.972 991.925 314.621 991.609 311.318 991.001H311.274C305.865 989.994 300.565 988.474 295.444 986.463C293.329 985.652 291.16 984.739 289.002 983.753L288.682 983.601C283.857 981.299 280.056 977.055 277.393 971.033C268.702 951.317 274.414 918.175 275.304 913.39C274.596 911.881 272.376 907.095 270.345 901.953C265.737 890.281 266.021 886.866 266.639 885.31C266.779 884.916 267.003 884.557 267.293 884.256C267.584 883.956 267.936 883.721 268.324 883.568C270.141 882.863 272.129 882.07 274.225 881.23C286.833 876.183 304.102 869.273 317.97 869.273C322.218 869.273 325.964 869.924 329.117 871.215C329.284 871.284 329.452 871.364 329.641 871.459C329.995 871.636 330.334 871.841 330.654 872.073L330.749 872.139L330.781 872.161C338.019 877.448 344.377 898.343 345.511 902.252C348.2 904.026 360.408 912.172 365.229 916.863C365.403 917.033 365.571 917.226 365.738 917.379C367.477 919.284 368.834 921.506 369.734 923.924C370.199 925.092 370.592 926.27 370.97 927.408C371.784 929.855 372.554 932.168 373.949 934.128C376.056 937.095 378.258 943.946 380.384 950.579C381.95 955.459 383.57 960.503 384.816 962.753L384.991 963.055C385.737 964.234 386.174 965.582 386.262 966.974C386.351 968.367 386.087 969.759 385.496 971.023C384.013 974.335 380.711 976.743 376.667 977.466C374.963 977.772 372.75 979.39 371.217 980.579C369.912 981.604 368.554 982.761 367.115 984.012C362.221 988.215 356.673 992.983 351.313 993.43C350.772 993.495 350.173 993.521 349.58 993.521Z" fill="#CE44A2"/>
<path d="M317.97 870.909C321.81 870.909 325.375 871.451 328.507 872.728C328.63 872.779 328.761 872.84 328.903 872.913C329.202 873.064 329.489 873.239 329.76 873.437L329.825 873.48C337.277 878.935 344.115 903.299 344.115 903.299C344.115 903.299 358.845 912.924 364.099 918.048C364.259 918.204 364.415 918.364 364.567 918.524C366.167 920.282 367.413 922.331 368.237 924.56C369.69 928.197 370.417 931.982 372.641 935.106C376.176 940.077 380.438 958.204 383.41 963.575C383.482 963.709 383.555 963.833 383.628 963.939C386.604 968.786 382.828 974.728 376.401 975.877C374.584 976.2 372.51 977.539 370.25 979.313C364.437 983.866 357.493 991.313 351.218 991.819C350.67 991.866 350.128 991.884 349.576 991.884C342.629 991.884 336.322 988.404 332.776 988.404H332.59C332.139 988.407 331.694 988.509 331.286 988.702C329.92 989.386 326.563 990.313 321.331 990.313C318.053 990.292 314.784 989.982 311.561 989.386C306.259 988.4 301.064 986.91 296.046 984.935C294.012 984.154 291.895 983.263 289.695 982.262L289.408 982.128C284.59 979.826 281.219 975.619 278.901 970.368C269.817 949.768 277.022 913.168 277.022 913.168C277.022 913.168 264.378 886.848 268.92 885.091C281.782 880.117 302.172 870.909 317.97 870.909ZM317.97 867.637C303.8 867.637 286.36 874.619 273.614 879.713C271.525 880.553 269.548 881.342 267.735 882.044C267.138 882.28 266.596 882.639 266.146 883.098C265.695 883.556 265.346 884.104 265.119 884.706C264.295 886.797 264.088 890.549 268.829 902.557C270.718 907.346 272.724 911.724 273.603 913.615C272.443 920.314 271.668 927.074 271.282 933.862C270.366 949.942 271.921 962.669 275.899 971.68C278.726 978.084 282.803 982.589 287.988 985.069L288.311 985.222C290.516 986.229 292.715 987.153 294.851 987.979C300.063 990.025 305.457 991.571 310.961 992.597H311.027C314.419 993.217 317.86 993.539 321.309 993.56C325.952 993.56 330.171 992.851 332.627 991.655H332.754C333.739 991.655 335.57 992.219 337.506 992.819C340.849 993.851 345.009 995.135 349.554 995.135C350.201 995.135 350.844 995.11 351.469 995.059C357.355 994.568 363.096 989.604 368.183 985.24C369.61 984.015 370.955 982.859 372.23 981.855C374.363 980.182 375.951 979.244 376.953 979.066C381.528 978.248 385.277 975.488 386.981 971.68C387.674 970.174 387.981 968.52 387.877 966.865C387.773 965.211 387.261 963.608 386.386 962.2V962.175C386.346 962.109 386.306 962.048 386.273 961.982C386.274 961.973 386.274 961.963 386.273 961.953C385.107 959.84 383.512 954.873 381.967 950.066C379.704 943.008 377.564 936.342 375.307 933.171C374.054 931.408 373.324 929.208 372.546 926.88C372.161 925.72 371.761 924.52 371.278 923.306C370.306 920.695 368.837 918.297 366.954 916.244V916.222C366.755 916.015 366.591 915.833 366.406 915.666C361.748 911.12 350.419 903.495 346.942 901.186C346.31 899.059 344.842 894.353 342.836 889.208C339.047 879.495 335.432 873.48 331.78 870.811L331.726 870.771L331.613 870.695C331.228 870.421 330.822 870.178 330.399 869.968C330.181 869.855 329.978 869.764 329.782 869.68C326.425 868.306 322.468 867.611 318.01 867.611L317.97 867.637Z" fill="#17091D"/>
<path d="M376.397 975.877C374.58 976.201 372.506 977.539 370.246 979.314C364.432 983.866 357.489 991.314 351.214 991.819C343.504 992.463 336.361 988.27 332.586 988.408C332.135 988.412 331.69 988.513 331.282 988.706C329.204 989.75 322.518 991.35 311.557 989.39C306.255 988.404 301.06 986.914 296.042 984.939C294.008 984.159 291.891 983.268 289.691 982.266L289.404 982.132C285.596 980.27 282.094 976.088 278.897 970.372C269.813 949.772 277.018 913.172 277.018 913.172C277.018 913.172 264.378 886.848 268.919 885.092C284.906 878.91 312.519 866.183 328.506 872.728C328.63 872.779 328.76 872.841 328.902 872.914C329.197 873.074 329.483 873.248 329.76 873.437L329.825 873.481C337.277 878.936 344.115 903.299 344.115 903.299C344.115 903.299 358.844 912.925 364.098 918.048C364.258 918.205 364.414 918.365 364.567 918.525C366.166 920.282 367.412 922.332 368.237 924.561C355.687 923.168 331.95 920.768 325.966 921.834C316.763 923.477 298.422 927.357 289.996 928.016C281.571 928.674 288.474 934.306 289.691 947.434C290.501 956.205 289.182 967.957 294.004 974.979C296.398 978.47 300.308 980.797 306.746 981.005L308.73 981.059C318.176 981.245 324.789 980.445 330.094 979.917C334.901 979.437 338.621 979.19 342.356 980.07C348.449 981.525 358.735 984.47 370.853 976.07C374.849 973.299 379.078 969.281 383.406 963.561C383.478 963.696 383.551 963.819 383.624 963.925C386.599 968.786 382.824 974.728 376.397 975.877Z" fill="#9C398C"/>
<path d="M362.506 942.99C363.063 942.378 364.012 942.333 364.625 942.891C365.237 943.448 365.282 944.397 364.724 945.01C359.901 950.309 357.997 955.575 357.285 959.485C356.928 961.446 356.87 963.071 356.899 964.193C356.914 964.754 356.95 965.188 356.981 965.475C356.997 965.618 357.01 965.724 357.02 965.79C357.025 965.823 357.029 965.847 357.031 965.859C357.031 965.863 357.032 965.865 357.032 965.867C357.18 966.682 356.64 967.462 355.825 967.61C355.01 967.759 354.229 967.218 354.081 966.403L355.556 966.135L354.081 966.401L354.08 966.399C354.08 966.398 354.079 966.396 354.079 966.395C354.078 966.391 354.078 966.387 354.077 966.383C354.075 966.373 354.073 966.361 354.071 966.346C354.066 966.316 354.06 966.276 354.052 966.226C354.038 966.124 354.018 965.981 353.999 965.8C353.959 965.438 353.917 964.92 353.9 964.271C353.866 962.972 353.935 961.138 354.334 958.948C355.133 954.558 357.257 948.756 362.506 942.99Z" fill="#17091D"/>
<path d="M357.319 952.674C357.769 951.978 358.698 951.779 359.394 952.229L358.579 953.488C359.393 952.228 359.394 952.229 359.395 952.23L359.396 952.231C359.397 952.231 359.399 952.232 359.4 952.233C359.404 952.236 359.409 952.239 359.414 952.242C359.425 952.249 359.44 952.259 359.459 952.272C359.497 952.297 359.551 952.333 359.619 952.38C359.755 952.473 359.949 952.61 360.191 952.787C360.674 953.142 361.35 953.662 362.138 954.338C363.71 955.687 365.75 957.673 367.6 960.213C371.305 965.3 374.322 972.74 371.07 981.667C370.787 982.445 369.926 982.847 369.148 982.564C368.369 982.28 367.968 981.419 368.251 980.641C371.046 972.968 368.522 966.575 365.175 961.98C363.498 959.678 361.634 957.86 360.184 956.615C359.461 955.995 358.846 955.521 358.416 955.205C358.201 955.048 358.033 954.93 357.921 954.854C357.865 954.815 357.823 954.787 357.797 954.77C357.784 954.761 357.775 954.755 357.77 954.751C357.768 954.75 357.767 954.748 357.766 954.747C357.765 954.748 357.764 954.747 357.764 954.747L357.765 954.748C357.069 954.298 356.87 953.37 357.319 952.674Z" fill="#17091D"/>
<path d="M329.529 960.688C330.355 960.752 330.973 961.472 330.91 962.298C330.91 962.3 330.909 962.304 330.909 962.308C330.908 962.316 330.908 962.328 330.907 962.343C330.905 962.376 330.901 962.426 330.896 962.492C330.887 962.623 330.875 962.819 330.861 963.073C330.833 963.581 330.799 964.321 330.772 965.236C330.719 967.068 330.7 969.598 330.837 972.392C331.114 978.068 332.02 984.512 334.345 988.521C334.761 989.238 334.517 990.156 333.801 990.572C333.084 990.987 332.165 990.743 331.75 990.027C329.028 985.334 328.119 978.233 327.841 972.539C327.699 969.648 327.719 967.037 327.773 965.149C327.8 964.205 327.837 963.439 327.866 962.908C327.881 962.642 327.894 962.434 327.903 962.292C327.908 962.221 327.912 962.166 327.915 962.128C327.916 962.11 327.917 962.096 327.918 962.086C327.918 962.081 327.919 962.077 327.919 962.074V962.069C327.982 961.243 328.703 960.625 329.529 960.688Z" fill="#17091D"/>
<path d="M308.308 969.05C309.083 969.096 309.685 969.724 309.716 970.483L309.715 970.637V970.638C309.715 970.639 309.715 970.641 309.714 970.644C309.714 970.651 309.714 970.662 309.713 970.677C309.712 970.706 309.709 970.75 309.707 970.809C309.701 970.928 309.693 971.106 309.686 971.335C309.671 971.793 309.657 972.457 309.66 973.266C309.666 974.889 309.741 977.084 310.014 979.387C310.288 981.7 310.756 984.062 311.519 986.051C312.292 988.065 313.296 989.503 314.518 990.234C315.229 990.66 315.46 991.581 315.035 992.292C314.609 993.003 313.688 993.234 312.977 992.808C310.922 991.578 309.596 989.413 308.718 987.127C307.83 984.815 307.325 982.179 307.036 979.739C306.745 977.289 306.666 974.975 306.66 973.278C306.656 972.428 306.671 971.728 306.687 971.239C306.695 970.994 306.703 970.802 306.709 970.669C306.713 970.602 306.715 970.551 306.717 970.515C306.718 970.498 306.719 970.483 306.719 970.473C306.719 970.469 306.72 970.465 306.72 970.462V970.458C306.72 970.457 306.721 970.457 308.218 970.547L306.72 970.457C306.77 969.63 307.481 969 308.308 969.05Z" fill="#17091D"/>
<path d="M294.169 973.148C294.994 973.226 295.599 973.959 295.52 974.783L295.518 974.799C295.517 974.814 295.515 974.84 295.512 974.874C295.507 974.943 295.501 975.048 295.494 975.185C295.48 975.459 295.465 975.861 295.468 976.353C295.474 977.341 295.548 978.67 295.809 980.056C296.35 982.925 297.586 985.532 300.107 986.481C300.882 986.772 301.274 987.638 300.982 988.413C300.69 989.188 299.825 989.58 299.05 989.288C294.991 987.761 293.451 983.744 292.861 980.611C292.557 978.997 292.475 977.479 292.468 976.371C292.465 975.815 292.481 975.355 292.498 975.031C292.506 974.869 292.514 974.741 292.521 974.65C292.524 974.605 292.527 974.57 292.529 974.544C292.53 974.531 292.531 974.521 292.532 974.514C292.532 974.51 292.532 974.506 292.533 974.504C292.533 974.503 292.533 974.501 292.533 974.5L292.534 974.499C292.54 974.499 292.632 974.507 294.027 974.641L292.534 974.498C292.612 973.673 293.345 973.069 294.169 973.148Z" fill="#17091D"/>
<path d="M340.678 973.456C342.785 973.456 344.493 968.816 344.493 963.092C344.493 957.368 342.785 952.729 340.678 952.729C338.571 952.729 336.863 957.368 336.863 963.092C336.863 968.816 338.571 973.456 340.678 973.456Z" fill="#D969BD"/>
<path d="M317.424 972C319.531 972 321.239 968.499 321.239 964.181C321.239 959.864 319.531 956.363 317.424 956.363C315.317 956.363 313.609 959.864 313.609 964.181C313.609 968.499 315.317 972 317.424 972Z" fill="#D969BD"/>
<path d="M300.348 976C302.455 976 304.163 973.314 304.163 970C304.163 966.686 302.455 964 300.348 964C298.241 964 296.533 966.686 296.533 970C296.533 973.314 298.241 976 300.348 976Z" fill="#D969BD"/>
<path d="M348.49 752.909C348.392 752.909 348.295 752.901 348.199 752.883L249.692 734.781C249.272 734.703 248.898 734.464 248.652 734.114C248.405 733.764 248.305 733.331 248.373 732.909L252.036 710.181C251.796 709.971 251.571 709.744 251.364 709.501C249.627 707.491 248.758 704.291 248.784 699.992C248.784 697.723 248.693 695.374 248.475 693.011C246.746 674.232 263.735 626.207 264.462 624.171C264.559 623.898 264.726 623.656 264.947 623.469C265.168 623.283 265.434 623.158 265.719 623.109L356.338 607.072C356.431 607.055 356.526 607.046 356.621 607.047C356.86 607.046 357.096 607.098 357.312 607.2C358.118 607.563 365.345 611.48 371.017 633.214C371.078 633.458 371.144 633.712 371.205 633.967C376.263 654.723 369.363 686.389 366.766 698.309C366.627 698.941 366.5 699.527 366.402 700.054C366.377 700.171 366.355 700.258 366.34 700.341C364.026 711.12 355.324 728.36 351.142 736.643C347.396 744.076 349.921 750.389 350.03 750.654C350.133 750.905 350.171 751.177 350.142 751.446C350.114 751.715 350.019 751.973 349.866 752.196C349.714 752.42 349.508 752.602 349.268 752.726C349.028 752.85 348.76 752.913 348.49 752.909Z" fill="#CE44A2"/>
<path d="M356.607 608.672C356.607 608.672 363.78 611.999 369.419 633.617C369.484 633.857 369.542 634.101 369.604 634.345C374.829 655.799 367.093 688.937 364.775 699.697C364.75 699.799 364.724 699.901 364.706 699.999C362.443 710.545 353.806 727.636 349.653 735.894C345.5 744.152 348.491 751.272 348.491 751.272L249.987 733.17L253.806 709.454C253.354 709.176 252.948 708.828 252.603 708.425C250.787 706.323 250.401 702.752 250.423 699.992C250.423 697.607 250.329 695.225 250.111 692.85C248.389 674.214 265.988 624.727 265.988 624.727L356.607 608.69M356.607 605.417C356.417 605.418 356.228 605.435 356.041 605.468L265.418 621.505C264.85 621.605 264.318 621.855 263.877 622.228C263.436 622.601 263.101 623.084 262.907 623.628C262.181 625.679 245.104 674.036 246.848 693.17C247.062 695.479 247.164 697.774 247.15 699.988C247.121 704.716 248.123 708.261 250.133 710.585L250.289 710.763L246.757 732.65C246.622 733.495 246.822 734.359 247.315 735.057C247.808 735.756 248.554 736.234 249.395 736.388L347.898 754.49C348.1 754.527 348.304 754.547 348.509 754.548C349.048 754.552 349.581 754.42 350.057 754.166C350.533 753.912 350.938 753.542 351.236 753.092C351.533 752.641 351.714 752.123 351.761 751.585C351.808 751.047 351.721 750.506 351.506 750.01C351.354 749.617 349.235 743.981 352.571 737.367C356.782 729.003 365.549 711.654 367.903 700.687C367.902 700.676 367.902 700.665 367.903 700.654C367.903 700.588 367.933 700.519 367.951 700.447V700.388C368.067 699.861 368.191 699.279 368.314 698.65C369.615 692.679 372.038 681.559 373.459 669.588C375.206 654.803 374.97 642.679 372.732 633.588C372.667 633.319 372.601 633.054 372.532 632.796C370.098 623.461 367.082 616.177 363.522 611.167C360.739 607.225 358.544 606.003 357.937 605.712C357.506 605.512 357.036 605.409 356.56 605.41L356.607 605.417Z" fill="#17091D"/>
<path d="M364.775 699.699C364.749 699.8 364.724 699.902 364.706 700C362.442 710.546 353.806 727.637 349.653 735.895C345.5 744.153 350.245 748.364 350.245 748.364L249.987 733.171L253.805 709.455C253.353 709.177 252.947 708.83 252.603 708.426C249.333 704.64 250.702 696.099 250.702 696.099C246.001 680.928 265.988 624.728 265.988 624.728L356.607 608.691C356.607 608.691 363.779 612.019 369.418 633.637C369.483 633.877 369.542 634.12 369.603 634.364C360.742 636.891 340.598 644.946 322.82 646.571C301.02 648.564 276.619 654.339 275.471 672.724C274.592 686.906 267.114 705.553 272.535 713.837C274.141 716.291 275.823 718.371 280.103 718.564C284.383 718.757 291.29 720.346 296.453 721.473C314.028 725.299 334.022 730.746 343.094 720.597C350.695 712.062 359.517 704.182 364.775 699.699Z" fill="#9C398C"/>
<path d="M250.668 708.973C251.034 708.23 251.933 707.926 252.676 708.292H252.678C252.68 708.292 252.683 708.294 252.688 708.296C252.698 708.301 252.714 708.308 252.736 708.319C252.78 708.34 252.849 708.373 252.943 708.417C253.13 708.504 253.414 708.635 253.798 708.803C254.566 709.141 255.73 709.632 257.293 710.238C260.42 711.449 265.145 713.115 271.499 714.92C284.208 718.531 303.438 722.695 329.438 724.869C330.263 724.938 330.877 725.663 330.808 726.489C330.739 727.314 330.013 727.927 329.188 727.858C302.992 725.668 283.572 721.469 270.68 717.806C264.234 715.975 259.422 714.278 256.21 713.035C254.605 712.413 253.4 711.905 252.591 711.549C252.187 711.372 251.882 711.232 251.675 711.136C251.572 711.088 251.494 711.051 251.44 711.025C251.413 711.012 251.392 711.002 251.377 710.995L251.354 710.983H251.353C251.352 710.983 251.351 710.982 252.014 709.636L251.351 710.982C250.608 710.616 250.302 709.716 250.668 708.973Z" fill="#17091D"/>
<path d="M353.479 648.396C354.543 644.571 349.813 641.592 346.256 643.836C337.557 649.331 325.807 661.538 321.262 677.749C314.969 700.182 307.641 709.145 319.674 701.207C331.708 693.269 332.827 678.727 344.417 664.727C349.791 658.24 352.316 652.592 353.479 648.396Z" fill="#D969BD"/>
<path d="M274.036 905.142C271.176 905.142 269.167 904.454 267.903 903.036C265.85 900.745 266.246 897.178 266.704 893.051C266.762 892.527 266.823 891.989 266.878 891.44C267.296 887.378 264.353 877.44 259.895 862.396C256.737 851.731 252.806 838.462 248.406 821.862C237.561 780.949 233.826 749.247 234.04 738.876C234.142 733.753 237.837 730.814 244.177 730.814C246.231 730.828 248.277 731.072 250.277 731.542L278.73 734.011L349.391 740.102L349.576 741.393C349.576 741.498 351.084 752.204 354.35 786.484C356.919 813.422 354.514 845.098 353.224 862.12C352.861 867.011 352.581 870.545 352.563 872.28V872.614C352.558 874.4 352.69 876.184 352.959 877.949C353.369 880.96 353.686 883.338 351.691 890.585C350.837 893.669 346.604 898.171 319.718 901.614C304.171 903.604 287.13 904.487 278.944 904.913C277.382 904.993 276.172 905.058 275.387 905.105C274.911 905.127 274.461 905.142 274.036 905.142Z" fill="#7E4282"/>
<path d="M244.159 732.451C246.118 732.473 248.068 732.717 249.972 733.179L266.784 734.633L278.585 735.651L296.897 737.23L347.953 741.633C347.953 741.633 349.406 752.011 352.72 786.648C356.033 821.284 351.034 864.364 350.939 872.255C350.939 872.375 350.939 872.491 350.939 872.619C350.921 880.142 352.981 879.808 350.125 890.153C347.219 900.659 284.093 902.92 275.279 903.477C274.839 903.506 274.425 903.517 274.036 903.517C266.595 903.517 267.79 898.557 268.506 891.619C269.255 884.317 260.978 862.92 249.976 821.437C238.974 779.953 235.494 748.364 235.657 738.91C235.763 733.619 240.235 732.455 244.159 732.455M244.159 729.182C241.202 729.182 238.735 729.75 236.82 730.877C234.847 732.033 232.46 734.357 232.387 738.844C232.191 749.31 235.937 781.211 246.826 822.288C251.233 838.91 255.183 852.193 258.329 862.866C262.744 877.72 265.65 887.535 265.254 891.273C265.196 891.819 265.138 892.364 265.08 892.87C264.6 897.2 264.146 901.291 266.682 904.142C268.277 905.924 270.679 906.79 274.036 906.79C274.494 906.79 274.981 906.79 275.489 906.742C276.256 906.695 277.477 906.63 279.025 906.55C287.232 906.124 304.313 905.24 319.921 903.24C328.754 902.11 335.861 900.771 341.038 899.266C348.53 897.084 352.302 894.539 353.279 891.026C355.267 883.819 355.07 881.28 354.591 877.735C354.339 876.05 354.218 874.348 354.227 872.644V872.517C354.227 872.448 354.227 872.379 354.227 872.306C354.249 870.619 354.529 866.931 354.881 862.266C356.178 845.2 358.587 813.43 356.008 786.357C352.738 752.04 351.284 741.63 351.223 741.193L350.859 738.615L348.265 738.39L297.191 733.957L278.879 732.364L267.078 731.346L250.517 729.917C248.432 729.436 246.3 729.183 244.159 729.164V729.182Z" fill="#17091D"/>
<path d="M350.121 890.142C347.215 900.647 284.089 902.909 275.275 903.465C266.46 904.022 267.75 898.909 268.502 891.607C269.254 884.305 260.974 862.909 249.972 821.425C238.97 779.942 235.493 748.364 235.657 738.909C235.82 729.455 249.987 733.175 249.987 733.175L266.798 734.629C265.025 750.309 262.551 787.967 266.006 805.978C270.366 828.731 272.135 881.251 283.599 879.549C290.026 878.582 304.49 874.393 320.63 872.425C329.488 871.335 338.847 870.942 347.665 872.109C348.755 872.251 349.845 872.422 350.935 872.615C350.917 880.131 352.977 879.796 350.121 890.142Z" fill="#5C2C66"/>
<path d="M323.646 870.747C331.186 870.368 338.026 870.37 342.981 870.467C345.46 870.515 347.468 870.588 348.859 870.649C349.555 870.679 350.096 870.705 350.465 870.725C350.649 870.735 350.789 870.743 350.885 870.748C350.932 870.751 350.969 870.754 350.994 870.755C351.006 870.756 351.016 870.757 351.022 870.757H351.031C351.032 870.757 351.033 870.757 350.939 872.254L351.032 870.757C351.859 870.809 352.488 871.521 352.436 872.348C352.385 873.175 351.672 873.803 350.846 873.751H350.838C350.832 873.751 350.824 873.75 350.813 873.749C350.791 873.748 350.756 873.746 350.711 873.743C350.62 873.738 350.484 873.73 350.305 873.721C349.946 873.702 349.414 873.675 348.729 873.646C347.359 873.586 345.375 873.515 342.923 873.467C338.017 873.371 331.249 873.368 323.797 873.743C308.801 874.498 291.362 876.77 280.633 882.66C279.907 883.059 278.995 882.793 278.597 882.068C278.198 881.341 278.463 880.429 279.189 880.03C290.584 873.775 308.659 871.502 323.646 870.747Z" fill="#17091D"/>
<path d="M302.765 635.273C291.258 635.273 278.825 634.513 270.319 633.291C256.392 631.295 255.669 621.906 255.644 620.349C255.571 619.855 255.502 619.367 255.437 618.873C255.382 618.509 255.335 618.146 255.288 617.76C255.184 616.972 255.088 616.181 255.001 615.386C254.954 614.967 254.906 614.542 254.866 614.124C253.323 598.82 254.419 583.365 258.107 568.433C261.162 556.117 265.772 544.24 271.827 533.091C282.309 513.68 293.456 502.582 293.925 502.116L294.55 501.502L295.411 501.684C295.574 501.716 311.743 505.142 319.391 506.898C322.868 507.695 323.489 507.891 323.773 508.047C324.056 508.204 325.273 508.575 326.625 509.036C361.574 520.949 381.488 530.513 387.549 538.276C388.09 538.978 388.602 539.636 388.224 565.186C388.094 576.058 387.814 586.909 387.752 589.455C388.842 591.007 392.359 596.036 395.567 601.687C400.759 610.84 402.54 616.916 400.999 620.262C400.465 621.426 399.266 622.862 396.585 623.084C386.775 623.902 358.453 628.651 339.719 631.811L330.24 633.396L329.804 633.469C322.694 634.629 313.338 635.273 302.765 635.273Z" fill="#7E4282"/>
<path d="M295.08 503.272C295.08 503.272 311.31 506.709 319.042 508.483C321.335 509.007 322.879 509.389 323.039 509.487C323.823 510.007 376.183 526.312 386.277 539.272C387.396 540.727 386.102 589.96 386.102 589.96C386.633 590.687 408.088 620.472 396.439 621.44C384.791 622.407 347.796 628.792 329.949 631.752L329.528 631.821C321.821 633.098 312.24 633.603 302.743 633.603C290.462 633.603 278.316 632.756 270.53 631.64C256.723 629.658 257.257 620.192 257.257 620.192C257.181 619.669 257.104 619.149 257.035 618.625C256.981 618.261 256.934 617.898 256.886 617.534C256.785 616.752 256.69 615.967 256.603 615.185C256.556 614.771 256.512 614.356 256.472 613.945C249.791 547.938 295.08 503.272 295.08 503.272ZM294.037 499.705L292.784 500.941C292.308 501.411 280.994 512.676 270.395 532.301C264.274 543.572 259.612 555.576 256.52 568.025C252.789 583.141 251.683 598.785 253.25 614.276C253.289 614.691 253.333 615.123 253.384 615.556C253.471 616.356 253.569 617.167 253.675 617.956C253.722 618.32 253.769 618.705 253.827 619.094C253.885 619.541 253.951 619.985 254.016 620.432C254.078 622.724 254.743 624.958 255.945 626.909C257.762 629.894 261.693 633.709 270.086 634.909C278.665 636.138 291.185 636.905 302.765 636.905C313.418 636.905 322.861 636.272 330.069 635.087L330.28 635.051L330.469 635.021H330.505C333.27 634.563 336.489 634.021 340.006 633.432C358.707 630.294 386.967 625.549 396.719 624.741C400.352 624.44 401.9 622.247 402.485 620.971C403.619 618.509 404.28 613.749 396.988 600.901C394.005 595.636 390.771 590.909 389.398 588.952C389.481 585.658 389.728 575.436 389.877 565.207C389.986 557.934 390.023 552.065 389.99 547.778C389.972 545.2 389.928 543.16 389.856 541.705C389.736 539.225 389.569 538.178 388.86 537.265C384.758 532 374.835 526.091 358.522 519.196C345.896 513.858 332.776 509.378 327.173 507.476C326.011 507.08 324.906 506.705 324.492 506.552C324.041 506.32 323.228 506.083 319.769 505.294C312.102 503.534 295.919 500.105 295.756 500.069L294.037 499.705Z" fill="#17091D"/>
<path d="M396.45 621.453C384.751 622.424 347.807 628.806 329.96 631.766L329.539 631.835C311.87 634.744 284.351 633.653 270.541 631.653C256.731 629.653 257.294 620.206 257.294 620.206C257.217 619.682 257.141 619.162 257.072 618.639C257.018 618.275 256.97 617.911 256.923 617.548C256.821 616.766 256.727 615.981 256.64 615.199C256.592 614.784 256.549 614.37 256.509 613.959C249.791 547.937 295.08 503.271 295.08 503.271C295.08 503.271 311.31 506.708 319.042 508.482C309.098 519.45 277.717 538.755 279.457 570.908C282.364 624.29 294.165 637.453 314.152 621.181C334.139 604.908 365.204 591.162 382.556 587.853C383.154 587.736 383.764 587.689 384.373 587.715C385.492 589.17 386.117 589.959 386.117 589.959C386.64 590.708 408.099 620.486 396.45 621.453Z" fill="#5C2C66"/>
<path d="M603.459 669.422C599.262 669.422 592.849 669.171 585.423 668.88C575.457 668.491 563.049 668.004 552.142 668.004C545.602 668.004 540.315 668.171 535.973 668.517C530.029 668.986 521.622 669.244 510.983 669.244C501.932 669.244 491.454 669.073 479.835 668.742C466.81 668.372 453.926 665.949 441.656 661.564C421.581 654.393 409.384 647.229 402.103 638.327C395.145 629.822 392.867 620.175 389.986 607.96C387.806 598.793 385.368 588.4 380.383 575.717C380.19 575.222 379.994 574.738 379.791 574.262C369.109 548.484 346.593 531.004 329.596 520.873C311.066 509.84 294.876 504.873 294.716 504.837C294.411 504.746 294.139 504.568 293.934 504.324C293.728 504.081 293.598 503.783 293.56 503.467C293.521 503.15 293.576 502.83 293.717 502.544C293.858 502.258 294.079 502.02 294.353 501.858C327.623 482.298 350.306 477.164 363.481 476.302C364.934 476.207 366.344 476.16 367.695 476.16C373.69 476.16 376.692 477.098 376.815 477.138C377.171 477.254 377.477 477.488 377.683 477.8L385.386 489.506L492.37 512.549L599.164 480.146C599.319 480.099 599.479 480.076 599.64 480.077C599.762 480.077 599.884 480.09 600.003 480.117C600.327 480.193 632.703 487.647 660.527 498.491C689.62 509.818 686.299 523.149 686.146 523.709C686.085 523.922 685.982 524.121 685.845 524.295C683.814 526.84 669.335 549.564 660.52 564.229C655.481 572.593 654.126 575.302 653.766 576.164C652.654 578.858 652.818 581.084 653.007 583.662C653.21 586.411 653.435 589.531 652.185 593.68C649.838 601.458 643.989 624.495 641.845 634.877C639.578 645.847 615.3 668.004 608.055 669.204C606.53 669.388 604.994 669.461 603.459 669.422Z" fill="#CE44A2"/>
<path d="M367.682 477.796C373.495 477.796 376.307 478.698 376.307 478.698L384.377 490.963L492.443 514.236L524.674 504.458L599.645 481.713C599.645 481.713 631.89 489.091 659.94 500C687.989 510.909 684.574 523.273 684.574 523.273C682.488 525.883 668.035 548.556 659.14 563.385C655.638 569.203 652.993 573.822 652.281 575.534C649.766 581.618 652.982 585.454 650.642 593.207C648.302 600.96 642.427 624 640.247 634.545C638.067 645.091 614.087 666.545 607.783 667.589C606.348 667.753 604.904 667.819 603.46 667.785C593.551 667.785 571.014 666.367 552.142 666.367C546.173 666.367 540.566 666.509 535.847 666.883C529.281 667.403 520.354 667.589 510.984 667.589C500.229 667.589 488.893 667.345 479.879 667.087C467.027 666.716 454.314 664.324 442.205 660C384.798 639.494 400.36 622.062 381.892 575.094C381.695 574.593 381.492 574.094 381.285 573.6C360.27 522.909 295.171 503.273 295.171 503.273C328.394 483.742 350.863 478.771 363.576 477.938C365.08 477.84 366.45 477.8 367.682 477.8M367.682 474.527C366.297 474.527 364.844 474.574 363.362 474.673C350.016 475.542 327.054 480.727 293.514 500.447C292.966 500.77 292.524 501.247 292.242 501.818C291.96 502.39 291.851 503.031 291.928 503.663C292.006 504.296 292.265 504.892 292.676 505.379C293.087 505.865 293.631 506.222 294.241 506.403C294.401 506.451 310.475 511.374 328.834 522.32C345.584 532.32 367.78 549.549 378.284 574.858C378.505 575.389 378.694 575.851 378.865 576.291C383.806 588.873 386.248 599.2 388.399 608.316C391.324 620.727 393.642 630.545 400.839 639.345C408.317 648.487 420.736 655.811 441.104 663.083C453.537 667.527 466.592 669.982 479.788 670.356C491.415 670.691 501.919 670.862 510.984 670.862C521.662 670.862 530.117 670.622 536.105 670.134C540.403 669.796 545.65 669.629 552.142 669.629C563.021 669.629 575.396 670.116 585.362 670.505C592.803 670.796 599.234 671.047 603.46 671.047C605.082 671.089 606.706 671.009 608.317 670.807C612.939 670.04 621.717 662.876 627.832 656.989C633.017 651.982 641.944 642.494 643.455 635.211C645.595 624.862 651.427 601.905 653.763 594.156C655.1 589.716 654.853 586.294 654.65 583.545C654.461 580.982 654.326 579.127 655.293 576.789C655.565 576.134 656.746 573.669 661.931 565.076C671.29 549.491 685.3 527.636 687.117 525.316C687.394 524.971 687.597 524.572 687.713 524.145C687.84 523.694 688.846 519.556 685.573 514.062C681.671 507.516 673.441 501.763 661.113 496.971C633.166 486.087 600.687 478.603 600.364 478.531C600.125 478.476 599.882 478.448 599.637 478.447C599.316 478.447 598.996 478.495 598.689 478.589L523.726 501.327L492.305 510.858L386.372 488.047L379.039 476.898C378.629 476.274 378.017 475.81 377.306 475.582C376.968 475.473 373.826 474.523 367.682 474.523V474.527Z" fill="#17091D"/>
<path d="M684.573 523.273C682.488 525.884 668.034 548.556 659.14 563.386C658.617 563.811 658.094 564.226 657.567 564.622C634.361 582.156 641.9 601.273 629.307 621.182C616.714 641.091 550.34 644.182 497.344 644.415C444.348 644.647 432.965 636.546 404.443 598.564C397.584 589.491 389.833 581.129 381.306 573.604C360.269 522.909 295.171 503.273 295.171 503.273C328.394 483.742 350.863 478.771 363.576 477.938C372.169 477.375 376.292 478.702 376.292 478.702L384.362 490.967L492.428 514.24L524.659 504.462L599.63 481.716C599.63 481.716 631.89 489.091 659.939 500C687.989 510.909 684.573 523.273 684.573 523.273Z" fill="#D969BD"/>
<path d="M582.113 524.727C582.113 524.727 567.067 554.749 550.14 561.091C533.212 567.433 505.355 575.974 479.29 561.091C453.224 546.207 455.382 547.716 440.776 552C426.17 556.283 416.553 546.909 388.456 524.363C370.755 510.149 368.971 487.803 363.575 477.934C372.168 477.371 376.292 478.698 376.292 478.698L384.361 490.963L492.428 514.236L524.659 504.458L582.113 524.727Z" fill="#CE44A2"/>
<path d="M515.641 559.272C503.143 559.272 493.234 552.93 481.757 545.592C476.092 541.956 469.672 537.861 462.257 534.083C437.913 521.668 416.139 503.243 399.32 480.803C391.959 470.985 387.842 461.141 387.087 451.563C386.411 442.992 388.54 436.236 390.171 431.897C390.836 430.165 391.655 428.495 392.617 426.908C398.953 416.345 410.307 410.545 416.019 408.799C416.694 408.574 417.4 408.452 418.112 408.436C419.278 408.436 422.025 408.876 422.403 412.945C422.577 415.061 422.081 417.178 420.985 418.997C419.89 420.815 418.25 422.242 416.299 423.076C415.717 423.334 415.136 423.592 414.616 423.828C413.047 424.556 411.826 428.01 412.662 432.992C413.483 437.886 427.773 449.505 435.45 455.748L436.903 456.923C440.693 460.01 454.289 467.683 472.652 475.079C487.356 480.996 508.509 488.072 525.771 488.148H526.134C555.415 488.148 564.542 472.068 568.931 464.337C569.171 463.912 569.4 463.508 569.618 463.134C569.836 462.759 569.956 462.512 570.083 462.228C572.812 456.243 571.129 446.556 569.887 441.312V441.254C569.455 439.348 569.967 437.352 571.34 435.632C572.228 434.538 573.346 433.652 574.615 433.04C575.883 432.427 577.271 432.101 578.68 432.086C581.648 432.086 584.271 433.581 586.077 436.297V436.326C586.306 436.69 586.502 437.003 586.673 437.33C586.691 437.355 586.707 437.382 586.72 437.41C590.23 444.065 591.981 452.006 592.831 457.497V457.61C592.86 457.792 592.89 457.974 592.915 458.148C592.94 458.323 592.973 458.541 593.002 458.745C593.18 460.043 593.344 461.352 593.507 462.774C594.092 467.886 594.343 481.745 593.017 495.254C592.29 502.501 591.258 508.377 589.899 512.708C588.083 518.454 585.761 521.49 582.749 521.988C579.116 522.585 571.685 528.366 563.801 534.49C551.128 544.337 535.348 556.588 522.018 558.737C519.91 559.085 517.778 559.263 515.641 559.272Z" fill="#CE44A2"/>
<path d="M418.111 410.068C419.928 410.068 420.618 411.407 420.774 413.094C420.911 414.867 420.49 416.639 419.569 418.16C418.648 419.681 417.274 420.875 415.641 421.574C415.048 421.836 414.46 422.098 413.936 422.338C411.622 423.403 410.074 427.454 411.03 433.247C411.985 439.039 427.133 451.065 435.842 458.174C444.551 465.283 493.612 489.621 525.734 489.767H526.097C557.907 489.767 566.667 471.41 570.995 463.948C571.206 463.612 571.4 463.265 571.576 462.908C574.319 456.89 573.069 447.661 571.478 440.948C570.649 437.381 574.533 433.756 578.665 433.756C580.823 433.756 583.025 434.741 584.7 437.236C584.698 437.243 584.698 437.25 584.7 437.258C584.897 437.555 585.078 437.862 585.245 438.178C585.25 438.188 585.256 438.197 585.263 438.207C588.395 444.145 590.226 451.472 591.203 457.781C591.236 457.992 591.269 458.199 591.298 458.407C591.327 458.614 591.359 458.825 591.388 459.028C591.581 460.428 591.752 461.759 591.886 462.992C593.122 473.77 592.471 518.763 582.487 520.414C572.502 522.065 543.418 553.636 521.767 557.127C519.741 557.458 517.693 557.627 515.641 557.632C497.583 557.632 485.39 544.032 462.997 532.621C438.171 519.967 416.978 501.636 400.628 479.818C384.278 457.999 388.187 441.716 391.7 432.476C392.33 430.834 393.104 429.252 394.015 427.748C399.799 418.108 410.303 412.261 416.498 410.356C417.019 410.185 417.563 410.092 418.111 410.079M418.111 406.807C417.236 406.819 416.368 406.961 415.535 407.228C409.606 409.047 397.808 415.072 391.21 426.065C390.202 427.737 389.343 429.496 388.645 431.319C386.941 435.807 384.754 442.799 385.455 451.683C386.236 461.574 390.462 471.701 398.012 481.778C406.358 492.927 415.918 503.112 426.515 512.145C437.231 521.28 448.977 529.13 461.515 535.534C468.858 539.276 475.245 543.359 480.877 546.963C492.569 554.443 502.677 560.901 515.641 560.901C517.867 560.895 520.089 560.713 522.286 560.356C536.024 558.141 551.981 545.745 564.796 535.781C572.172 530.054 579.794 524.145 583.006 523.603C586.691 522.996 589.448 519.603 591.45 513.199C592.842 508.752 593.914 502.767 594.637 495.407C595.974 481.781 595.727 467.77 595.124 462.578C594.96 461.145 594.793 459.825 594.619 458.541V458.505C594.589 458.305 594.56 458.098 594.528 457.887C594.495 457.676 594.477 457.523 594.448 457.348V457.239C593.579 451.625 591.785 443.494 588.169 436.639L588.108 436.523C587.911 436.159 587.697 435.796 587.446 435.432L587.428 435.407C585.31 432.221 582.2 430.465 578.672 430.465C577.017 430.483 575.387 430.866 573.896 431.586C572.406 432.306 571.093 433.346 570.05 434.632C568.371 436.745 567.746 439.221 568.284 441.614C568.284 441.643 568.284 441.676 568.284 441.705C570.348 450.407 570.464 457.454 568.589 461.548V461.578C568.484 461.81 568.357 462.061 568.197 462.341C567.983 462.705 567.75 463.116 567.507 463.545C562.947 471.578 554.463 486.527 526.134 486.527H525.77C512.505 486.465 493.855 481.865 473.254 473.574C455.247 466.327 441.532 458.603 437.927 455.668L436.474 454.494C432.049 450.894 426.537 446.41 422.002 442.13C415.219 435.741 414.372 433.316 414.271 432.727C413.457 427.883 414.838 425.548 415.299 425.319C415.822 425.079 416.429 424.807 416.959 424.592C419.223 423.62 421.124 421.96 422.393 419.847C423.661 417.734 424.233 415.274 424.026 412.818C423.616 408.396 420.702 406.821 418.108 406.821L418.111 406.807Z" fill="#17091D"/>
<path d="M591.385 458.991C586.661 469.828 574.711 479.199 566.38 486.322C556.643 494.646 520.527 501.271 497.71 498.624C474.893 495.977 440.216 477.635 409.057 450.319C399.61 442.053 395.363 434.395 394.004 427.737C399.788 418.097 410.292 412.249 416.487 410.344C419.524 409.406 420.567 410.977 420.763 413.093C420.9 414.866 420.479 416.638 419.558 418.159C418.637 419.68 417.263 420.874 415.629 421.573C415.037 421.835 414.449 422.097 413.925 422.337C411.611 423.402 410.063 427.453 411.019 433.246C411.974 439.039 427.122 451.064 435.831 458.173C444.54 465.282 493.601 489.62 525.723 489.766C557.845 489.911 566.642 471.439 570.987 463.948C571.201 463.611 571.397 463.264 571.576 462.908C574.37 456.879 573.491 447.551 571.478 440.948C570.217 435.519 579.867 429.959 584.699 437.235C584.698 437.242 584.698 437.249 584.699 437.257C584.885 437.559 585.063 437.864 585.244 438.177C585.25 438.187 585.256 438.197 585.263 438.206C588.587 444.024 590.251 451.46 591.203 457.78C591.236 457.991 591.268 458.199 591.298 458.406C591.327 458.613 591.356 458.788 591.385 458.991Z" fill="#D969BD"/>
<path d="M427.813 542.362C420.782 542.362 403.615 532.693 390.215 518.824C381.727 510.035 371.718 496.391 372.23 481.3C373.004 458.457 381.059 448.457 385.793 444.53C386.458 443.961 387.302 443.645 388.177 443.639C388.726 443.647 389.267 443.774 389.764 444.009C390.261 444.244 390.702 444.583 391.058 445.002C391.5 445.52 391.826 446.127 392.014 446.782C392.202 447.437 392.248 448.125 392.148 448.799V448.937C391.552 453.09 394.851 461.468 399.545 465.351C401.954 467.344 412.425 477.326 422.86 489.086C436.107 504.013 443.592 515.231 445.111 522.428C446.601 529.497 446.135 534.275 443.658 537.468C440.493 541.54 434.767 542.09 428.158 542.355L427.813 542.362Z" fill="#7E4282"/>
<path d="M388.177 445.277C389.532 445.277 390.767 446.731 390.516 448.582C390.516 448.626 390.516 448.673 390.516 448.72C389.83 453.488 393.379 462.386 398.51 466.615C403.64 470.844 440.05 506.491 443.479 522.768C446.909 539.044 438.96 540.284 428.06 540.728H427.813C416.509 540.728 372.84 511.535 373.865 481.357C374.631 458.735 382.737 449.193 386.836 445.789C387.209 445.466 387.683 445.284 388.177 445.277ZM388.177 442.004C386.92 442.009 385.707 442.458 384.75 443.273C379.805 447.378 371.394 457.768 370.58 481.248C370.05 496.917 380.318 510.949 389.027 519.968C395.422 526.551 402.609 532.314 410.423 537.124C414.642 539.691 422.512 544.004 427.798 544.004H428.161C434.927 543.731 441.296 543.106 444.875 538.484C447.676 534.884 448.236 529.677 446.64 522.102C445.104 514.611 437.506 503.142 424.063 488C414.253 476.953 403.556 466.564 400.57 464.091C396.33 460.586 393.22 452.837 393.746 449.182L393.768 449.018C393.903 448.115 393.843 447.194 393.592 446.316C393.341 445.438 392.906 444.623 392.315 443.928C391.806 443.332 391.176 442.852 390.466 442.521C389.757 442.189 388.985 442.013 388.202 442.004H388.177Z" fill="#17091D"/>
<path d="M604.32 465.286C603.306 463.417 601.822 461.845 600.015 460.726C598.207 459.608 596.139 458.981 594.016 458.908C591.287 458.824 589.009 459.657 589.797 463.595C591.545 472.322 586.36 493.642 576.26 506.373C566.929 518.137 550.645 538.795 587.817 540.399C598.292 540.85 608.12 519.733 610.166 505.217C612.211 490.701 609.803 474.795 606.787 469.661C605.904 468.17 605.065 466.668 604.32 465.286Z" fill="#7E4282"/>
<path d="M594.061 457.409L594.067 457.41C596.452 457.492 598.774 458.196 600.804 459.452C602.706 460.63 604.29 462.255 605.419 464.183L605.638 464.572L605.64 464.575C606.193 465.601 606.797 466.692 607.432 467.794L608.077 468.897L608.08 468.902C609.757 471.758 611.138 477.287 611.865 483.754C612.6 490.291 612.694 498.026 611.651 505.428C610.602 512.874 607.571 521.964 603.455 529.166C601.396 532.768 599.026 535.969 596.433 538.259C593.849 540.541 590.906 542.034 587.753 541.898C578.373 541.494 572.088 539.885 568.19 537.312C566.215 536.009 564.835 534.445 564.005 532.664C563.177 530.887 562.94 528.985 563.105 527.067C563.432 523.287 565.338 519.304 567.63 515.634C569.939 511.935 572.759 508.374 575.084 505.442H575.085C579.979 499.274 583.727 490.955 586.032 483.063C588.28 475.368 589.078 468.345 588.397 464.275L588.326 463.891C587.878 461.655 588.216 459.791 589.616 458.602C590.72 457.663 592.197 457.421 593.511 457.404L594.061 457.409ZM593.964 460.407C592.673 460.368 591.92 460.581 591.558 460.888C591.335 461.078 590.928 461.6 591.268 463.302C592.215 468.027 591.271 475.824 588.911 483.904C586.535 492.037 582.641 500.744 577.434 507.307C575.094 510.257 572.38 513.69 570.174 517.223C567.95 520.784 566.358 524.271 566.094 527.326C565.964 528.826 566.159 530.184 566.724 531.397C567.288 532.607 568.263 533.766 569.843 534.809C573.055 536.928 578.676 538.504 587.882 538.901L588.274 538.905C590.243 538.864 592.321 537.888 594.447 536.01C596.708 534.013 598.887 531.113 600.85 527.678C604.778 520.806 607.684 512.079 608.68 505.009C609.683 497.895 609.595 490.417 608.884 484.089C608.164 477.69 606.831 472.7 605.493 470.421V470.42C604.599 468.91 603.75 467.393 602.999 465.999V465.998C602.11 464.36 600.809 462.983 599.225 462.003C597.64 461.022 595.826 460.472 593.964 460.408V460.407Z" fill="#17091D"/>
</svg>
