<svg width="1000" height="1000" viewBox="0 0 1000 1000" fill="none" xmlns="http://www.w3.org/2000/svg">
<path d="M503.542 526.182C464.804 526.182 428.361 520.684 400.923 510.695C372.968 500.502 357.573 486.764 357.573 472C357.573 457.237 372.968 443.491 400.923 433.317C428.361 423.317 464.804 417.818 503.542 417.818C542.281 417.818 578.723 423.317 606.162 433.306C634.117 443.487 649.512 457.218 649.512 471.989C649.512 486.76 634.117 500.502 606.162 510.677C578.723 520.666 542.281 526.182 503.542 526.182Z" fill="#CE44A2"/>
<path d="M503.543 419.454C583.258 419.454 647.877 442.974 647.877 472C647.877 501.025 583.258 524.527 503.543 524.527C423.827 524.527 359.208 501.007 359.208 472C359.208 442.993 423.827 419.454 503.543 419.454ZM503.543 416.182C464.619 416.182 427.969 421.716 400.356 431.767C371.718 442.182 355.938 456.48 355.938 472C355.938 487.52 371.718 501.796 400.367 512.225C427.98 522.276 464.619 527.811 503.554 527.811C542.488 527.811 579.127 522.276 606.74 512.225C635.367 501.785 651.147 487.502 651.147 472C651.147 456.498 635.367 442.182 606.718 431.767C579.105 421.716 542.467 416.182 503.532 416.182H503.543Z" fill="#17091D"/>
<path d="M503.543 552.85C580.948 552.85 643.698 529.33 643.698 500.316C643.698 471.302 580.948 447.781 503.543 447.781C426.137 447.781 363.387 471.302 363.387 500.316C363.387 529.33 426.137 552.85 503.543 552.85Z" fill="#9C398C"/>
<path d="M642.198 500.315C642.198 493.645 638.597 487.111 631.689 480.989C624.783 474.869 614.704 469.29 602.121 464.573C576.966 455.144 542.114 449.281 503.543 449.281C464.972 449.281 430.119 455.144 404.964 464.573C392.381 469.29 382.302 474.869 375.396 480.989C368.488 487.111 364.887 493.645 364.887 500.315C364.887 506.986 368.488 513.52 375.396 519.642C382.302 525.762 392.381 531.342 404.964 536.059C430.119 545.488 464.972 551.351 503.543 551.351C542.114 551.351 576.966 545.488 602.121 536.059C614.704 531.342 624.783 525.762 631.689 519.642C638.597 513.52 642.198 506.986 642.198 500.315ZM645.198 500.315C645.198 508.152 640.955 515.439 633.679 521.888C626.4 528.338 615.954 534.078 603.174 538.868C577.603 548.453 542.378 554.351 503.543 554.351C464.708 554.351 429.482 548.453 403.911 538.868C391.131 534.078 380.685 528.338 373.406 521.888C366.13 515.439 361.887 508.152 361.887 500.315C361.887 492.479 366.13 485.193 373.406 478.744C380.685 472.294 391.131 466.554 403.911 461.764C429.482 452.179 464.708 446.281 503.543 446.281C542.378 446.281 577.603 452.179 603.174 461.764C615.954 466.554 626.4 472.294 633.679 478.744C640.955 485.193 645.198 492.479 645.198 500.315Z" fill="#17091D"/>
<path d="M503.543 582.546C578.34 582.546 638.975 559.025 638.975 530.011C638.975 500.997 578.34 477.477 503.543 477.477C428.746 477.477 368.11 500.997 368.11 530.011C368.11 559.025 428.746 582.546 503.543 582.546Z" fill="#5C2C66"/>
<path d="M637.476 530.011C637.475 523.32 633.985 516.782 627.318 510.668C620.65 504.553 610.918 498.976 598.766 494.262C574.47 484.837 540.804 478.977 503.543 478.977C466.282 478.977 432.616 484.838 408.32 494.262C396.168 498.976 386.436 504.553 379.768 510.668C373.101 516.782 369.61 523.32 369.61 530.011C369.61 536.701 373.1 543.24 379.768 549.354C386.436 555.47 396.168 561.046 408.32 565.76C432.616 575.184 466.282 581.046 503.543 581.046C540.804 581.046 574.47 575.184 598.766 565.76C610.918 561.046 620.65 555.47 627.318 549.354C633.986 543.24 637.476 536.701 637.476 530.011ZM640.476 530.011C640.476 537.827 636.386 545.11 629.347 551.565C622.308 558.02 612.206 563.764 599.851 568.557C575.129 578.146 541.079 584.046 503.543 584.046C466.007 584.046 431.957 578.146 407.235 568.557C394.879 563.764 384.778 558.02 377.739 551.565C370.7 545.11 366.61 537.827 366.61 530.011C366.61 522.194 370.7 514.913 377.739 508.457C384.778 502.002 394.879 496.258 407.235 491.465C431.957 481.875 466.007 475.977 503.543 475.977C541.079 475.977 575.129 481.875 599.851 491.465C612.206 496.258 622.308 502.002 629.347 508.457C636.386 514.913 640.475 522.194 640.476 530.011Z" fill="#17091D"/>
<path d="M687.919 986.098C683.243 986.098 677.924 983.887 672.783 981.734C671.028 981.007 669.375 980.316 667.816 979.749C665.36 978.854 663.616 978.44 662.323 978.44C662.109 978.439 661.895 978.453 661.683 978.48C661.057 978.568 660.426 978.613 659.794 978.614C656.186 978.614 652.854 977.116 650.881 974.614C650.078 973.613 649.517 972.44 649.242 971.186C648.967 969.932 648.986 968.631 649.297 967.385C649.326 967.276 649.348 967.167 649.37 967.051C650.423 961.563 653.868 945.233 655.768 939.134C656.444 936.953 655.452 933.916 654.402 930.694C653.068 926.593 651.55 921.942 653.417 917.967C653.526 917.738 653.635 917.52 653.748 917.305C656.858 911.353 665.931 899.825 667.947 897.305C667.849 894.996 667.547 886.593 667.813 877.691C668.456 856.142 671.718 852.709 672.794 851.582C673.188 851.133 673.672 850.772 674.214 850.522C674.755 850.271 675.344 850.137 675.94 850.127C679.327 850.127 688.657 846.971 696.124 844.433C701.21 842.702 706.053 841.065 709.058 840.36C710.487 840.019 711.95 839.844 713.418 839.84C717.415 839.84 720.634 841.2 723.228 842.291C725.139 843.098 726.789 843.796 728.268 843.796C728.779 843.799 729.286 843.708 729.765 843.527C730.031 843.43 730.313 843.379 730.597 843.378C732.958 843.378 734.048 846.487 734.957 851.16C735.632 854.647 736.25 859.487 736.773 865.545C737.587 874.683 737.979 883.927 738.059 885.909C740.127 889.673 756.226 919.803 754.046 941.473C753.388 948.04 751.089 953.243 747.212 956.942L746.968 957.167C745.213 958.785 743.437 960.327 741.678 961.76C737.439 965.259 732.878 968.348 728.057 970.985C718.378 976.189 711.936 976.749 709.614 976.749C709.1 976.753 708.586 976.721 708.077 976.651H707.954C707.778 976.656 707.605 976.685 707.438 976.738C706.264 977.076 704.626 978.236 702.714 979.578C699.528 981.833 695.56 984.64 690.724 985.793C689.804 986.002 688.863 986.105 687.919 986.098Z" fill="#CE44A2"/>
<path d="M713.415 841.472C719.98 841.472 724.151 845.425 728.253 845.425C728.959 845.431 729.659 845.308 730.321 845.061C730.404 845.03 730.493 845.014 730.582 845.014C734.942 845.014 736.446 886.374 736.446 886.374C736.446 886.374 754.66 918.919 752.433 941.327C751.859 947.036 749.962 952.087 746.096 955.77L745.864 955.989C744.086 957.625 742.35 959.13 740.657 960.505C736.502 963.943 732.027 966.975 727.294 969.559C718.915 974.065 712.695 975.13 709.625 975.13C709.192 975.134 708.76 975.107 708.332 975.047C708.211 975.029 708.09 975.021 707.968 975.021C707.642 975.025 707.318 975.075 707.005 975.17C703.372 976.214 697.886 982.421 690.361 984.207C689.565 984.389 688.751 984.478 687.934 984.472C682.03 984.472 674.447 980.447 668.387 978.239C666.098 977.403 664.027 976.832 662.337 976.832C662.048 976.831 661.759 976.85 661.472 976.887C660.92 976.965 660.363 977.004 659.805 977.003C654.111 977.003 649.69 972.836 650.896 967.789C650.929 967.654 650.961 967.516 650.987 967.363C652.146 961.334 655.521 945.469 657.338 939.643C659.154 933.818 651.949 924.981 654.907 918.679C655.001 918.479 655.1 918.279 655.205 918.079C658.602 911.578 669.615 897.847 669.615 897.847C669.615 897.847 667.369 851.767 675.951 851.767C681.903 851.767 701.842 843.738 709.443 841.949C710.753 841.636 712.094 841.478 713.44 841.476M713.44 838.203C711.849 838.209 710.265 838.397 708.717 838.763C705.636 839.49 700.778 841.134 695.637 842.879C688.657 845.247 679.094 848.49 675.977 848.49C675.158 848.498 674.35 848.676 673.605 849.013C672.859 849.351 672.192 849.84 671.646 850.45C669.6 852.603 666.81 857.759 666.218 877.639C665.967 886.039 666.218 893.81 666.327 896.759C663.722 900.054 655.347 910.803 652.335 916.559C652.226 916.774 652.109 917.003 651.971 917.261V917.283C649.831 921.847 651.452 926.825 652.883 931.214C653.81 934.054 654.765 936.985 654.242 938.661C652.324 944.818 648.858 961.243 647.804 966.741C647.804 966.741 647.804 966.763 647.804 966.778C647.804 966.792 647.775 966.919 647.757 966.996C647.756 967.004 647.756 967.013 647.757 967.021C647.387 968.507 647.365 970.058 647.692 971.554C648.02 973.049 648.689 974.449 649.646 975.643C651.928 978.552 655.739 980.265 659.841 980.265C660.551 980.264 661.26 980.214 661.963 980.116C662.099 980.099 662.236 980.09 662.374 980.09C663.464 980.09 665.069 980.487 667.308 981.305C668.83 981.858 670.472 982.541 672.205 983.261C677.495 985.443 682.967 987.73 687.97 987.73C689.041 987.734 690.108 987.612 691.15 987.367C696.309 986.145 700.418 983.236 703.724 980.898C705.352 979.745 707.034 978.552 707.943 978.294H708.001C708.554 978.366 709.111 978.4 709.669 978.396C712.114 978.396 718.879 977.818 728.882 972.439C733.797 969.754 738.445 966.606 742.765 963.039C744.545 961.585 746.347 960.029 748.12 958.392L748.404 958.127C752.56 954.163 755.027 948.618 755.725 941.65C756.706 931.832 754.228 919.258 748.367 904.258C745.856 897.834 742.973 891.563 739.731 885.476C739.622 882.865 739.226 874.087 738.452 865.403C737.911 859.29 737.282 854.392 736.595 850.858C736.283 849.054 735.803 847.282 735.164 845.567C734.136 843.021 732.62 841.752 730.637 841.749C730.158 841.749 729.683 841.835 729.234 842.003C728.937 842.115 728.621 842.17 728.304 842.167C727.156 842.167 725.644 841.53 723.9 840.792C721.179 839.643 717.793 838.214 713.465 838.214L713.44 838.203Z" fill="#17091D"/>
<path d="M661.458 976.88C663.275 976.626 665.673 977.244 668.361 978.233C675.29 980.756 684.206 985.655 690.336 984.2C697.86 982.415 703.35 976.2 706.98 975.164C707.41 975.027 707.865 974.984 708.313 975.04C710.613 975.404 717.462 974.829 727.276 969.553C732.009 966.968 736.484 963.936 740.639 960.498C742.335 959.121 744.07 957.616 745.846 955.982L746.078 955.764C749.119 952.811 751.165 947.764 752.415 941.32C754.649 918.913 736.428 886.367 736.428 886.367C736.428 886.367 734.866 843.356 730.302 845.055C724.682 847.153 719.653 839.542 709.411 841.946C701.81 843.731 681.87 851.764 675.919 851.764C667.337 851.764 669.582 897.844 669.582 897.844C669.582 897.844 658.569 911.575 655.172 918.076C655.067 918.276 654.969 918.476 654.874 918.676C657.153 916.593 668.412 906.611 676.7 905.444C685.958 904.142 708.855 903.298 717.07 901.302C725.285 899.306 732.101 910.007 735.018 922.866C736.973 931.451 741.875 942.215 739.473 950.386C738.281 954.451 735.287 957.873 729.234 960.076C728.598 960.309 727.973 960.531 727.367 960.746C718.458 963.855 711.91 965.156 706.704 966.306C701.981 967.346 698.369 968.258 695.077 970.266C689.74 973.538 680.875 979.542 666.737 975.356C662.065 973.971 656.811 971.462 650.921 967.356C650.896 967.509 650.863 967.647 650.831 967.782C649.559 973.313 654.994 977.789 661.458 976.88Z" fill="#9C398C"/>
<path d="M662.403 941.851C662.813 941.131 663.728 940.879 664.448 941.288C671.228 945.144 675.049 950 677.172 953.926C678.231 955.884 678.865 957.606 679.236 958.852C679.422 959.474 679.542 959.979 679.617 960.336C679.655 960.514 679.681 960.656 679.698 960.757C679.707 960.807 679.713 960.847 679.718 960.877C679.72 960.892 679.722 960.904 679.724 960.914C679.724 960.919 679.725 960.922 679.726 960.926C679.726 960.927 679.725 960.929 679.726 960.931L679.727 960.933C679.727 960.933 679.712 960.937 678.24 961.138L679.727 960.935C679.838 961.755 679.264 962.511 678.443 962.623C677.623 962.735 676.866 962.161 676.754 961.34V961.339C676.754 961.337 676.753 961.335 676.753 961.333C676.751 961.32 676.748 961.297 676.742 961.264C676.731 961.198 676.711 961.093 676.682 960.952C676.622 960.67 676.522 960.247 676.361 959.709C676.04 958.633 675.481 957.105 674.533 955.353C672.642 951.856 669.197 947.439 662.966 943.895C662.246 943.486 661.994 942.571 662.403 941.851Z" fill="#17091D"/>
<path d="M670.277 949.11C670.799 948.467 671.743 948.368 672.387 948.889C673.03 949.411 673.128 950.353 672.608 950.997L672.609 950.998C672.608 950.998 672.607 951 672.605 951.003C672.601 951.008 672.594 951.017 672.584 951.029C672.564 951.054 672.533 951.094 672.492 951.147C672.41 951.255 672.286 951.42 672.131 951.637C671.82 952.07 671.382 952.712 670.888 953.526C669.896 955.16 668.689 957.469 667.81 960.179C666.055 965.589 665.641 972.45 670.679 978.874C671.19 979.526 671.076 980.469 670.424 980.98C669.772 981.491 668.83 981.377 668.318 980.725C662.457 973.251 663.014 965.24 664.956 959.253C665.926 956.264 667.248 953.741 668.323 951.97C668.862 951.082 669.343 950.376 669.692 949.888C669.867 949.645 670.009 949.455 670.109 949.324C670.16 949.258 670.199 949.208 670.228 949.172C670.242 949.154 670.254 949.14 670.262 949.13C670.266 949.125 670.269 949.12 670.272 949.117C670.273 949.116 670.274 949.114 670.275 949.113L670.276 949.111C670.28 949.113 670.336 949.158 671.427 950.042L670.277 949.11Z" fill="#17091D"/>
<path d="M701.287 947.864C702.053 947.548 702.929 947.911 703.246 948.677L701.86 949.25C703.241 948.679 703.247 948.676 703.247 948.677V948.678C703.247 948.679 703.248 948.68 703.248 948.682C703.249 948.684 703.251 948.688 703.253 948.692C703.257 948.702 703.263 948.715 703.27 948.732C703.284 948.767 703.305 948.818 703.331 948.884C703.384 949.016 703.461 949.21 703.558 949.458C703.751 949.954 704.023 950.67 704.342 951.56C704.98 953.337 705.808 955.813 706.571 958.605C708.075 964.104 709.416 971.136 708.287 976.442C708.115 977.253 707.318 977.77 706.508 977.598C705.698 977.425 705.181 976.629 705.353 975.818C706.317 971.285 705.177 964.876 703.678 959.396C702.94 956.698 702.137 954.298 701.518 952.573C701.208 951.711 700.946 951.019 700.762 950.545C700.67 950.308 700.596 950.125 700.547 950.003C700.523 949.942 700.505 949.896 700.492 949.866C700.486 949.852 700.481 949.84 700.479 949.833C700.477 949.83 700.475 949.827 700.475 949.825V949.823C700.158 949.058 700.522 948.181 701.287 947.864Z" fill="#17091D"/>
<path d="M724.054 949.211C724.825 948.906 725.696 949.285 726.001 950.055L724.605 950.606C726 950.055 726 950.056 726.001 950.056V950.057C726.001 950.058 726.002 950.059 726.003 950.06C726.004 950.063 726.005 950.067 726.006 950.071C726.01 950.08 726.016 950.093 726.022 950.11C726.035 950.143 726.053 950.191 726.077 950.254C726.124 950.378 726.192 950.559 726.275 950.789C726.442 951.249 726.673 951.909 726.934 952.718C727.455 954.333 728.1 956.557 728.585 958.976C729.068 961.385 729.405 964.048 729.279 966.522C729.154 968.969 728.566 971.439 726.995 973.248C726.451 973.873 725.504 973.939 724.879 973.396C724.253 972.853 724.187 971.906 724.73 971.281C725.665 970.204 726.173 968.524 726.283 966.369C726.391 964.241 726.101 961.85 725.643 959.566C725.187 957.292 724.577 955.184 724.079 953.639C723.83 952.869 723.611 952.242 723.455 951.811C723.377 951.596 723.314 951.429 723.272 951.318C723.251 951.263 723.235 951.221 723.224 951.194C723.219 951.18 723.215 951.17 723.213 951.164C723.212 951.161 723.211 951.159 723.211 951.158L723.21 951.157C722.905 950.386 723.284 949.515 724.054 949.211Z" fill="#17091D"/>
<path d="M738.768 948.705C739.528 948.374 740.411 948.722 740.742 949.482L739.367 950.08C740.742 949.481 740.743 949.482 740.743 949.483V949.484C740.743 949.484 740.745 949.485 740.745 949.486C740.746 949.489 740.747 949.492 740.749 949.495C740.752 949.502 740.756 949.512 740.761 949.524C740.771 949.547 740.784 949.58 740.802 949.622C740.836 949.706 740.884 949.826 740.942 949.978C741.058 950.28 741.216 950.712 741.386 951.241C741.723 952.296 742.117 953.766 742.329 955.396C742.74 958.558 742.523 962.855 739.14 965.57C738.493 966.089 737.55 965.985 737.031 965.339C736.513 964.693 736.617 963.749 737.263 963.231C739.366 961.542 739.731 958.679 739.354 955.782C739.172 954.383 738.829 953.097 738.528 952.155C738.378 951.687 738.24 951.31 738.141 951.053C738.092 950.925 738.053 950.826 738.027 950.763C738.014 950.731 738.005 950.708 737.999 950.694L737.991 950.678H737.992C737.662 949.919 738.009 949.036 738.768 948.705Z" fill="#17091D"/>
<path d="M690.75 969.817C693.358 969.817 695.473 965.177 695.473 959.453C695.473 953.73 693.358 949.09 690.75 949.09C688.141 949.09 686.026 953.73 686.026 959.453C686.026 965.177 688.141 969.817 690.75 969.817Z" fill="#D969BD"/>
<path d="M716.569 959.681C719.096 959.034 720.237 954.961 719.118 950.583C717.999 946.206 715.044 943.181 712.516 943.828C709.989 944.475 708.848 948.549 709.967 952.927C711.086 957.304 714.041 960.329 716.569 959.681Z" fill="#D969BD"/>
<path d="M732.667 952.194C734.85 951.635 735.987 948.706 735.206 945.651C734.426 942.597 732.023 940.573 729.84 941.132C727.656 941.691 726.52 944.621 727.301 947.676C728.081 950.73 730.484 952.753 732.667 952.194Z" fill="#D969BD"/>
<path d="M658.777 890.338C657.275 890.345 655.811 889.867 654.603 888.974C653.395 888.081 652.508 886.82 652.074 885.381C651.227 882.632 650.381 879.778 649.552 876.909L649.105 875.363C648.575 873.516 648.019 871.546 647.438 869.454C647.285 868.916 647.136 868.363 646.987 867.821C646.987 867.821 646.765 867.029 646.707 866.814L646.536 866.174C645.748 863.265 644.931 860.21 644.106 857.043C642.86 852.225 641.671 847.443 640.571 842.832C640.516 842.596 640.28 841.611 640.28 841.611C639.757 839.385 639.277 837.33 638.827 835.323C638.728 834.898 638.63 834.461 638.536 834.029C637.925 831.352 637.337 828.683 636.785 826.101C636.686 825.654 636.588 825.2 636.494 824.745C636.003 822.454 635.52 820.127 635.041 817.836C634.859 816.956 634.68 816.066 634.503 815.167C633.624 810.76 632.777 806.298 631.989 801.912C631.989 801.912 631.691 800.229 631.625 799.843C631.366 798.389 631.112 796.923 630.862 795.447C630.343 792.37 629.878 789.509 629.438 786.698C629.187 785.08 628.944 783.472 628.711 781.93C628.479 780.389 628.268 778.912 628.054 777.392C628.051 777.345 628.051 777.298 628.054 777.25C627.857 775.865 627.69 774.48 627.483 773.083C627.451 772.858 627.421 772.621 627.392 772.389C627.109 770.24 626.829 768.047 626.546 765.683C626.451 764.898 626.359 764.112 626.27 763.327C626.27 763.185 626.233 763.025 626.215 762.869L626.001 760.967L625.743 758.6L625.51 756.396C625.51 756.32 625.51 756.254 625.51 756.189C625.43 755.421 625.354 754.647 625.278 753.876C625.202 753.105 625.125 752.316 625.053 751.534C625.049 751.487 625.049 751.44 625.053 751.392V751.269C624.984 750.541 624.914 749.814 624.853 749.087L624.635 746.541L624.577 745.861L624.446 744.218C624.406 743.756 624.369 743.276 624.337 742.796C624.308 742.432 624.279 742.069 624.253 741.676V741.596C624.2 740.869 624.148 740.141 624.097 739.414L623.966 737.469L623.915 736.636C623.872 735.96 623.832 735.272 623.792 734.585C623.69 732.887 623.606 731.312 623.53 729.745C623.494 729.018 623.461 728.269 623.432 727.534C623.392 726.661 623.359 725.785 623.327 724.905C623.265 723.185 623.218 721.6 623.178 720.058C621.652 658.814 617.495 606.272 615.152 580.403C614.305 571.08 613.738 565.76 613.731 565.709C613.702 565.418 613.749 565.124 613.869 564.858L623.774 543.083L630.365 528.585C630.466 528.361 630.617 528.163 630.806 528.006C630.994 527.848 631.216 527.736 631.455 527.676C631.586 527.643 631.722 527.626 631.858 527.625C632.213 527.624 632.559 527.741 632.842 527.956C633.039 528.105 637.7 531.654 645.014 539.12C654.824 549.141 669.601 566.429 684.171 591.847C701.382 621.88 714.182 655.934 722.212 693.061C723.487 698.952 726.067 704.389 728.559 709.643C730.15 712.996 731.655 716.163 732.85 719.461C735.771 727.636 738.493 736.265 740.891 745.09C747.093 768 751.307 792.92 753.426 819.207C753.967 825.945 754.367 832.781 754.621 839.523C755.177 854.298 754.922 865.927 754.621 873.08C754.548 874.886 753.778 876.594 752.475 877.846C751.171 879.097 749.433 879.795 747.627 879.792C747.209 879.791 746.792 879.753 746.38 879.68C735.339 877.704 724.149 876.678 712.932 876.611C701.254 876.611 690.794 877.88 681.838 880.381C674.488 882.44 668.104 885.352 662.854 889.036C661.664 889.885 660.238 890.34 658.777 890.338Z" fill="#CE44A2"/>
<path d="M631.803 529.272C631.803 529.272 636.479 532.81 643.793 540.276C663.475 560.363 702.29 608.879 720.558 693.425C722.676 703.21 728.188 711.541 731.258 720.029C734.328 728.516 737.006 737.039 739.302 745.527C746.413 771.781 750.028 797.527 751.783 819.345C752.364 826.574 752.742 833.363 752.975 839.592C753.538 854.581 753.258 866.309 752.975 873.014C752.944 873.781 752.749 874.533 752.403 875.219C752.057 875.904 751.568 876.507 750.969 876.987C750.37 877.467 749.675 877.812 748.931 878C748.187 878.188 747.411 878.214 746.656 878.076C735.521 876.076 724.234 875.04 712.921 874.978C702.664 874.978 691.629 875.949 681.387 878.814C674.346 880.785 667.682 883.647 661.905 887.705C661.211 888.198 660.41 888.52 659.568 888.644C658.726 888.767 657.866 888.689 657.06 888.416C656.254 888.143 655.523 887.682 654.929 887.072C654.336 886.461 653.895 885.719 653.643 884.905C652.916 882.57 652.077 879.738 651.129 876.454L650.682 874.909C650.156 873.069 649.601 871.104 649.018 869.014C648.869 868.479 648.72 867.923 648.571 867.392C648.48 867.061 648.385 866.727 648.295 866.388L648.12 865.745C647.343 862.894 646.535 859.856 645.697 856.632C644.556 852.221 643.368 847.479 642.169 842.45C642.071 842.047 641.976 841.639 641.878 841.229C641.394 839.185 640.909 837.095 640.425 834.959C640.327 834.534 640.229 834.105 640.134 833.676C639.548 831.099 638.965 828.46 638.387 825.759C638.288 825.309 638.19 824.858 638.096 824.407C637.611 822.145 637.127 819.842 636.643 817.498C636.461 816.615 636.282 815.727 636.105 814.832C635.247 810.532 634.412 806.123 633.598 801.607C633.478 800.923 633.354 800.239 633.234 799.549C632.975 798.094 632.722 796.631 632.475 795.159C631.991 792.282 631.517 789.373 631.054 786.432C630.812 784.854 630.57 783.27 630.328 781.679C630.103 780.159 629.882 778.632 629.667 777.098C629.665 777.083 629.665 777.068 629.667 777.054C629.47 775.658 629.279 774.256 629.093 772.85C629.06 772.618 629.031 772.385 629.002 772.152C628.709 769.939 628.428 767.712 628.159 765.472C628.064 764.689 627.972 763.906 627.883 763.123C627.883 762.978 627.846 762.832 627.832 762.687L627.614 760.767C627.527 759.981 627.443 759.192 627.356 758.403L627.127 756.221C627.127 756.159 627.127 756.101 627.109 756.043C627.029 755.267 626.951 754.49 626.876 753.712C626.796 752.919 626.72 752.123 626.647 751.33C626.645 751.316 626.645 751.301 626.647 751.287C626.575 750.505 626.502 749.727 626.433 748.945L626.215 746.421C626.153 745.654 626.088 744.883 626.03 744.112C625.99 743.643 625.953 743.17 625.921 742.701C625.888 742.298 625.859 741.894 625.83 741.494C625.776 740.767 625.724 740.039 625.674 739.312C625.626 738.639 625.583 737.97 625.539 737.298C625.539 737.05 625.506 736.799 625.492 736.552C625.448 735.869 625.408 735.185 625.368 734.501C625.274 732.894 625.188 731.287 625.11 729.679C625.074 728.952 625.041 728.225 625.012 727.498C624.972 726.621 624.94 725.749 624.907 724.872C624.849 723.265 624.799 721.656 624.758 720.047C623.214 658.098 618.945 604.959 616.725 580.283C615.867 570.828 615.304 565.563 615.304 565.563L625.208 543.789L630.295 532.599L631.799 529.29M631.799 526.018C631.528 526.017 631.259 526.051 630.996 526.119C630.52 526.239 630.076 526.465 629.699 526.779C629.322 527.094 629.02 527.49 628.816 527.938L627.312 531.247L622.225 542.436L612.321 564.21C612.078 564.744 611.983 565.333 612.045 565.916C612.045 565.967 612.615 571.276 613.462 580.581C615.802 606.432 619.955 658.938 621.481 720.13C621.521 721.683 621.568 723.272 621.633 724.996C621.666 725.879 621.699 726.759 621.739 727.643C621.768 728.37 621.8 729.111 621.837 729.865C621.909 731.392 621.993 732.981 622.098 734.716C622.138 735.403 622.178 736.094 622.222 736.781C622.222 736.898 622.222 737.029 622.244 737.145C622.265 737.261 622.244 737.378 622.269 737.509C622.313 738.189 622.356 738.861 622.404 739.541C622.451 740.221 622.505 740.996 622.563 741.723V741.818C622.589 742.181 622.618 742.581 622.651 742.967C622.683 743.439 622.72 743.916 622.76 744.392C622.8 744.934 622.843 745.483 622.887 746.014L622.945 746.701L623.145 749.003V749.247C623.214 750.014 623.283 750.77 623.355 751.53C623.355 751.596 623.355 751.658 623.374 751.723C623.441 752.501 623.517 753.279 623.599 754.058V754.189C623.672 754.916 623.741 755.643 623.817 756.37C623.817 756.45 623.817 756.53 623.839 756.614L623.951 757.705L624.068 758.796C624.111 759.159 624.151 759.523 624.191 759.916C624.231 760.309 624.282 760.749 624.329 761.159L624.456 762.29L624.544 763.069L624.598 763.549C624.689 764.334 624.783 765.116 624.874 765.898C625.158 768.258 625.437 770.45 625.721 772.599C625.753 772.85 625.783 773.087 625.815 773.327C625.993 774.65 626.179 776.061 626.382 777.479C626.382 777.545 626.382 777.61 626.411 777.676C626.604 779.058 626.818 780.538 627.065 782.196C627.287 783.73 627.53 785.341 627.792 786.974C628.228 789.774 628.693 792.643 629.22 795.741C629.445 797.09 629.696 798.538 629.983 800.156C630.048 800.538 630.117 800.927 630.186 801.316C630.241 801.614 630.291 801.912 630.342 802.207C631.138 806.618 631.985 811.087 632.864 815.509C633.046 816.41 633.227 817.305 633.405 818.192C633.867 820.461 634.35 822.796 634.859 825.101C634.953 825.549 635.051 826.007 635.153 826.469C635.705 829.047 636.294 831.719 636.904 834.399C636.999 834.836 637.1 835.272 637.198 835.705C637.66 837.734 638.139 839.792 638.652 841.992L638.768 842.487C638.83 842.738 638.888 842.985 638.946 843.236C640.062 847.901 641.221 852.559 642.489 857.465C643.313 860.636 644.131 863.716 644.923 866.618L645.003 866.923L645.094 867.258C645.152 867.472 645.214 867.694 645.275 867.912L645.373 868.276C645.522 868.825 645.675 869.367 645.824 869.912C646.384 871.919 646.947 873.912 647.495 875.829L647.684 876.49L647.946 877.385C648.778 880.265 649.628 883.127 650.489 885.883C650.891 887.191 651.598 888.385 652.55 889.367C653.503 890.349 654.675 891.091 655.969 891.532C657.264 891.973 658.645 892.1 659.998 891.903C661.351 891.706 662.639 891.191 663.754 890.399C668.841 886.825 675.069 883.992 682.237 881.985C691.052 879.519 701.363 878.268 712.892 878.268C724.011 878.337 735.104 879.356 746.049 881.316C746.557 881.407 747.071 881.453 747.586 881.454C749.815 881.458 751.959 880.597 753.567 879.052C755.176 877.508 756.124 875.399 756.212 873.17C756.524 865.992 756.779 854.319 756.212 839.487C755.961 832.719 755.558 825.861 755.013 819.101C752.887 792.712 748.655 767.676 742.431 744.69C740.029 735.81 737.293 727.141 734.303 718.927C733.078 715.567 731.491 712.218 729.943 708.978C727.49 703.807 724.954 698.458 723.719 692.749C715.653 655.458 702.795 621.247 685.5 591.069C670.843 565.494 655.979 548.094 646.093 538.003C638.692 530.45 633.936 526.828 633.74 526.679C633.171 526.25 632.479 526.017 631.767 526.018H631.799Z" fill="#17091D"/>
<path d="M681.379 878.814C674.338 880.785 667.674 883.647 661.897 887.705C661.204 888.199 660.403 888.522 659.56 888.646C658.718 888.77 657.858 888.692 657.051 888.419C656.245 888.145 655.514 887.684 654.921 887.073C654.327 886.463 653.886 885.72 653.635 884.905C646.597 861.909 626.523 790.563 624.761 720.029C622.625 634.363 615.314 565.545 615.314 565.545L625.219 543.771C627.126 540.945 628.216 539.338 628.216 539.338C628.216 539.338 653.69 604.4 650.681 637.382C647.673 670.363 638.284 762.185 647.531 785.549C656.778 808.912 678.24 864.458 678.24 864.458L681.379 878.814Z" fill="#9C398C"/>
<path d="M658.777 890.338C657.275 890.346 655.81 889.867 654.602 888.974C653.394 888.081 652.507 886.821 652.073 885.382C650.235 879.389 647.35 869.607 644.105 857.044L643.814 855.909L644.792 855.265C656.495 847.567 681.754 834.658 719.435 834.658C730.797 834.696 742.131 835.81 753.283 837.985L754.558 838.233L754.609 839.531C755.165 854.305 754.911 865.935 754.609 873.087C754.536 874.894 753.767 876.602 752.463 877.853C751.159 879.105 749.422 879.802 747.615 879.8C747.197 879.799 746.78 879.761 746.369 879.687C735.327 877.712 724.137 876.685 712.92 876.618C701.243 876.618 690.783 877.887 681.826 880.389C674.476 882.447 668.092 885.36 662.842 889.044C661.654 889.888 660.233 890.34 658.777 890.338Z" fill="#7E4282"/>
<path d="M719.453 836.294C730.713 836.324 741.943 837.428 752.993 839.592C753.556 854.581 753.276 866.309 752.993 873.014C752.962 873.782 752.767 874.533 752.421 875.219C752.075 875.904 751.586 876.507 750.987 876.987C750.388 877.467 749.693 877.813 748.949 878C748.205 878.188 747.429 878.214 746.674 878.076C735.539 876.076 724.252 875.04 712.939 874.978C702.682 874.978 691.648 875.949 681.405 878.814C674.364 880.785 667.7 883.647 661.923 887.705C661.229 888.198 660.428 888.52 659.586 888.644C658.744 888.767 657.884 888.689 657.078 888.416C656.272 888.143 655.542 887.682 654.948 887.072C654.354 886.462 653.913 885.719 653.661 884.905C651.757 878.691 648.905 868.941 645.715 856.632C656.826 849.327 681.907 836.294 719.472 836.294M719.472 833.021C681.365 833.021 655.787 846.112 643.931 853.898L641.973 855.185L642.561 857.454C645.831 870.043 648.705 879.851 650.555 885.865C650.957 887.173 651.663 888.367 652.616 889.349C653.568 890.331 654.74 891.073 656.035 891.514C657.329 891.955 658.71 892.082 660.063 891.885C661.417 891.688 662.704 891.173 663.82 890.381C668.907 886.807 675.134 883.974 682.303 881.967C691.117 879.501 701.429 878.251 712.957 878.251C724.076 878.319 735.169 879.338 746.115 881.298C746.622 881.389 747.136 881.435 747.652 881.436C749.881 881.44 752.024 880.579 753.633 879.034C755.241 877.49 756.189 875.381 756.277 873.152C756.59 865.974 756.844 854.301 756.277 839.469L756.179 836.869L753.636 836.378C742.383 834.181 730.947 833.058 719.483 833.021H719.472Z" fill="#17091D"/>
<path d="M750.701 820.577C746.108 816.577 741.069 812.043 735.724 807.123C721.045 793.621 711.09 775.754 707.33 756.159L695.543 695.548L696.27 694.93C698.173 693.33 700.406 692.172 702.81 691.537C705.234 690.896 707.733 690.587 710.24 690.617C713.818 690.665 717.382 691.072 720.878 691.832L721.71 692.006L722.048 692.781C726.205 702.341 729.816 711.326 732.785 719.479C735.753 727.632 738.493 736.265 740.891 745.09C747.093 767.999 751.307 792.919 753.426 819.206L753.745 823.206L750.701 820.577Z" fill="#7E4282"/>
<path d="M710.25 692.244C713.717 692.29 717.17 692.685 720.558 693.426C724.554 702.608 728.188 711.542 731.258 720.029C734.328 728.517 737.006 737.04 739.302 745.528C746.413 771.782 750.028 797.528 751.783 819.346C746.667 814.884 741.558 810.255 736.839 805.891C722.45 792.599 712.676 775.056 708.942 755.818L697.337 696.142C699.061 694.697 701.084 693.652 703.259 693.084C705.54 692.484 707.892 692.195 710.25 692.226M710.25 688.953C707.596 688.924 704.95 689.253 702.384 689.931C699.744 690.628 697.292 691.902 695.204 693.662L693.751 694.902L694.114 696.768L705.719 756.444C709.584 776.367 719.706 794.534 734.608 808.298C739.967 813.24 745.017 817.778 749.621 821.797L755.674 827.073L755.027 819.073C752.902 792.684 748.669 767.648 742.445 744.662C740.043 735.782 737.307 727.113 734.317 718.898C731.327 710.684 727.712 701.698 723.541 692.109L722.865 690.553L721.204 690.211C717.599 689.426 713.924 689.007 710.235 688.96L710.25 688.953Z" fill="#17091D"/>
<path d="M739.302 745.527C738.826 752.298 736.396 756.149 730.648 753.949C714.549 747.796 706.304 710.618 703.26 693.102C708.118 691.749 714.16 692.102 720.558 693.425C724.555 702.607 728.188 711.542 731.258 720.029C734.328 728.516 737.006 737.04 739.302 745.527Z" fill="#5C2C66"/>
<path d="M471.544 988.726C466.649 988.726 461.759 988.661 457.01 988.53C419.194 987.49 391.89 982.544 375.642 978.544C363.201 975.501 356.905 972.97 356.643 972.864L355.735 972.501L355.629 971.523C355.629 971.341 353.733 953.072 354.22 927.701C354.666 904.268 357.282 869.781 367.194 838.563C367.558 837.472 367.841 836.483 368.113 835.544C369.203 831.835 370.17 828.021 370.984 824.203C377.073 795.77 375.01 767.475 372.208 748.77C369.163 728.446 364.618 714.686 364.578 714.552L364.255 713.577L400.788 677.912L524.456 648.275L560.157 665.192L596.734 702.181V702.85C596.734 702.934 596.766 711.188 596.697 721.599C596.603 736.774 596.301 756.421 595.411 763.828C594.383 772.359 596.181 795.286 599.342 813.897C601.043 823.93 602.976 831.868 604.97 836.854C605.167 837.344 605.356 837.861 605.534 838.384C611.877 856.846 614.98 909.599 615.089 911.839V911.912L613.313 972.457L613.182 972.755C611.253 977.061 582.451 981.846 536.133 985.555C527.413 986.246 518.185 986.908 508.683 987.512C497.42 988.239 486.204 988.635 475.395 988.712C474.105 988.726 472.819 988.726 471.544 988.726Z" fill="#7E4282"/>
<path d="M524.271 650.01L559.191 666.545L595.103 702.847C595.103 702.847 595.135 711.054 595.066 721.578C594.972 736.578 594.674 756.279 593.791 763.621C592.777 772.032 594.471 794.941 597.733 814.167C599.314 823.49 601.265 831.945 603.456 837.439C603.637 837.894 603.819 838.378 603.986 838.894C610.334 857.367 613.462 911.919 613.462 911.919L611.696 972.072C611.696 972.072 609.015 978.065 536.01 983.909C527.792 984.563 518.683 985.221 508.586 985.865C496.854 986.614 485.787 986.989 475.392 987.061C474.102 987.061 472.819 987.061 471.551 987.061C466.559 987.061 461.727 986.996 457.054 986.865C419.565 985.836 392.454 980.959 376.031 976.941C363.561 973.89 357.257 971.334 357.257 971.334C357.257 971.334 349.682 899.112 368.753 839.039C369.077 838.021 369.389 837.003 369.683 835.981C370.805 832.17 371.774 828.352 372.59 824.527C384.486 768.967 366.13 714.014 366.13 714.014L401.606 679.381L524.271 650.01ZM524.634 646.559L523.512 646.829L400.836 676.229L399.96 676.439L399.317 677.069L363.841 711.701L362.388 713.134L363.038 715.079C363.085 715.214 367.602 728.898 370.621 749.094C373.393 767.661 375.435 795.705 369.404 823.869C368.597 827.654 367.642 831.425 366.566 835.083V835.105C366.304 836.014 366.01 836.985 365.661 838.076C361.254 851.967 357.901 867.639 355.695 884.661C353.884 898.934 352.855 913.294 352.61 927.679C352.12 953.152 354.013 971.523 354.031 971.705L354.235 973.658L356.051 974.385C356.316 974.494 362.718 977.065 375.275 980.138C391.6 984.138 419.028 989.112 456.985 990.156C461.759 990.283 466.668 990.352 471.573 990.352C472.852 990.352 474.153 990.352 475.435 990.352C486.27 990.276 497.501 989.872 508.815 989.149C518.341 988.541 527.585 987.883 536.29 987.189C566.726 984.752 588.824 981.999 601.977 979.007C611.987 976.73 614.007 974.981 614.694 973.429L614.959 972.836L614.981 972.185L616.746 912.032V911.89V911.749C616.616 909.505 613.516 856.556 607.1 837.861C606.915 837.309 606.737 836.77 606.511 836.25C604.571 831.374 602.656 823.552 600.974 813.629C597.893 795.469 596.062 772.29 597.057 764.032C597.955 756.549 598.26 736.836 598.355 721.618C598.424 711.196 598.391 702.934 598.391 702.85V701.512L597.45 700.563L561.538 664.261L561.131 663.85L560.611 663.607L525.67 647.054L524.631 646.545L524.634 646.559Z" fill="#17091D"/>
<path d="M603.456 837.453C601.276 831.944 599.314 823.49 597.734 814.181L396.636 823.453C397.653 792.948 399.074 742.61 404.084 738.072C410.893 731.89 444.149 731.526 472.667 716.897C501.185 702.268 508.096 682.421 532.581 679.53C557.066 676.639 560.052 711.512 573.906 722.075C581.605 727.948 589.529 725.195 595.067 721.592C595.136 711.068 595.103 702.861 595.103 702.861L559.191 666.544L524.271 650.01L401.599 679.41L366.123 714.042C366.123 714.042 384.479 768.995 372.583 824.555L369.676 836.01C369.382 837.032 369.07 838.05 368.746 839.068C349.675 899.141 357.25 971.362 357.25 971.362C357.25 971.362 363.554 973.908 376.024 976.97C377.027 951.152 379.363 898.973 382.244 886.788C383.517 881.588 385.094 876.468 386.967 871.453C386.966 871.445 386.966 871.436 386.967 871.428C387.182 870.846 387.393 870.275 387.607 869.704C389.758 864.573 397.809 850.228 419.486 854.01C445.755 858.595 537.417 860.17 568.067 853.381C586.292 849.348 597.701 843.199 603.957 838.908C603.816 838.399 603.638 837.915 603.456 837.453Z" fill="#5C2C66"/>
<path d="M545.46 951.375C543.604 960.302 539.574 973.237 536.014 983.924C527.795 984.579 518.686 985.237 508.589 985.88C496.857 986.629 485.79 987.004 475.395 987.077C469.029 987.12 462.917 987.06 457.058 986.895C459.154 972.662 462.213 950.433 462.05 942.895C461.81 931.477 486.673 951.804 520.016 945.371C553.359 938.939 549.159 933.546 545.46 951.375Z" fill="#5C2C66"/>
<path d="M475.79 958.14C476.603 957.981 477.392 958.51 477.551 959.323C478.333 963.323 478.399 968.469 478.161 973.479C477.923 978.514 477.373 983.516 476.879 987.272C476.771 988.093 476.018 988.672 475.197 988.564C474.375 988.456 473.797 987.702 473.905 986.881C474.392 983.171 474.931 978.259 475.164 973.337C475.398 968.39 475.318 963.536 474.607 959.899C474.448 959.086 474.978 958.299 475.79 958.14Z" fill="#17091D"/>
<path d="M487.381 967.21C494.233 965.868 503.82 964.789 514.768 965.842C515.592 965.922 516.197 966.654 516.117 967.479C516.038 968.303 515.305 968.907 514.481 968.828C503.887 967.808 494.597 968.853 487.957 970.153C484.639 970.803 481.988 971.516 480.173 972.063C479.266 972.337 478.569 972.57 478.102 972.732C477.869 972.813 477.693 972.876 477.577 972.919C477.52 972.94 477.477 972.956 477.45 972.966C477.436 972.971 477.427 972.976 477.421 972.978C477.418 972.979 477.416 972.98 477.415 972.98L477.27 973.028C476.537 973.231 475.755 972.851 475.473 972.127C475.172 971.356 475.554 970.486 476.325 970.185L476.795 971.389C476.328 970.19 476.326 970.184 476.326 970.184H476.327C476.328 970.184 476.33 970.183 476.331 970.182C476.334 970.181 476.339 970.179 476.344 970.177C476.354 970.173 476.368 970.168 476.385 970.162C476.421 970.148 476.472 970.13 476.538 970.105C476.671 970.056 476.865 969.986 477.117 969.898C477.62 969.723 478.358 969.477 479.307 969.191C481.205 968.618 483.954 967.881 487.381 967.21Z" fill="#17091D"/>
<path d="M450.18 945.069C428.518 945.069 408.204 942.578 389.809 937.662C375.061 933.724 361.505 928.207 349.515 921.324C329.008 909.524 320.285 897.84 319.925 897.349C319.795 897.174 319.702 896.975 319.651 896.763C319.6 896.551 319.592 896.331 319.627 896.116L353.759 686.051V529.273C353.758 528.887 353.894 528.514 354.142 528.219C354.39 527.924 354.734 527.727 355.114 527.662C355.172 527.662 361.116 526.618 371.028 525.036C391.6 521.745 432.533 515.582 475.541 511.138C509.127 507.676 537.754 505.92 560.619 505.92C575.799 505.92 588.596 506.702 598.656 508.247C612.993 510.447 621.989 514.131 626.161 519.52C628.377 522.382 630.295 526.629 631.872 532.138C631.93 532.349 631.988 532.56 632.05 532.774C633.78 539.025 635.157 547.08 636.138 556.709C636.185 557.185 636.232 557.658 636.276 558.142C640.636 603.273 636.276 674.945 631.836 727.127C631.167 735.007 630.037 743.051 628.929 750.829L628.5 753.88C628.502 753.908 628.502 753.936 628.5 753.964C625.735 773.676 623.737 791.418 627.305 808.727C635.055 846.378 633.936 870.324 631.636 883.778C629.285 897.509 625.292 903.502 624.562 904.505C623.294 906.905 609.589 928.196 519.457 937.844H519.424C518.37 937.96 517.306 938.178 516.18 938.407C515.533 938.538 514.864 938.676 514.185 938.793C509.803 939.564 505.102 940.331 500.244 941.076C497.562 941.484 494.859 941.865 492.21 942.214C490.03 942.502 487.796 942.771 485.587 943.018C481.052 943.527 476.504 943.949 472.085 944.265C464.666 944.8 457.294 945.069 450.18 945.069Z" fill="#CE44A2"/>
<path d="M560.619 507.556C574.941 507.556 587.869 508.243 598.406 509.865C611.377 511.854 620.787 515.254 624.863 520.516C627.014 523.294 628.813 527.392 630.295 532.581C630.353 532.785 630.412 532.992 630.47 533.203C632.25 539.632 633.569 547.665 634.506 556.869C634.554 557.338 634.601 557.807 634.644 558.283C639.044 603.84 634.463 676.829 630.204 726.981C629.452 735.847 628.13 744.774 626.88 753.712C624.275 772.298 621.971 790.912 625.703 809.036C640.599 881.44 623.159 903.621 623.159 903.621C623.159 903.621 612.986 926.167 519.275 936.2C517.491 936.392 515.718 936.85 513.901 937.167C509.43 937.952 504.794 938.711 499.993 939.443C497.29 939.855 494.625 940.233 492 940.578C489.776 940.869 487.579 941.135 485.409 941.378C480.807 941.894 476.326 942.307 471.966 942.618C464.372 943.163 457.105 943.43 450.166 943.418C355.83 943.432 321.24 896.363 321.24 896.363L355.394 686.181V529.272C355.394 529.272 361.269 528.25 371.286 526.65C392.723 523.221 433.194 517.145 475.708 512.767C504.862 509.76 534.993 507.556 560.619 507.556ZM560.619 504.283C537.689 504.283 509.026 506.043 475.37 509.512C432.322 513.945 391.364 520.127 370.77 523.418C360.847 525.003 354.892 526.036 354.834 526.047C354.075 526.179 353.387 526.575 352.891 527.165C352.395 527.755 352.123 528.501 352.124 529.272V685.916L318.014 895.854C317.944 896.283 317.961 896.722 318.063 897.145C318.164 897.567 318.349 897.965 318.606 898.316C318.97 898.821 327.9 910.774 348.697 922.741C360.815 929.716 374.494 935.265 389.391 939.243C407.921 944.196 428.38 946.705 450.184 946.705C457.338 946.705 464.746 946.432 472.209 945.898C476.653 945.578 481.216 945.17 485.776 944.643C488.007 944.396 490.245 944.123 492.428 943.836C495.074 943.472 497.788 943.109 500.494 942.694C505.381 941.945 510.083 941.178 514.479 940.403C515.173 940.283 515.856 940.145 516.514 940.01C517.604 939.789 518.621 939.581 519.599 939.472H519.62C541.144 937.167 560.056 934.018 575.828 930.069C588.545 926.898 599.299 923.21 607.776 919.112C621.099 912.676 625.027 907.003 625.943 905.385C628.032 902.454 643.248 878.072 628.904 808.392C625.394 791.33 627.378 773.749 630.117 754.185C630.119 754.146 630.119 754.107 630.117 754.069L630.542 751.054C631.632 743.254 632.777 735.185 633.449 727.261C637.885 675.014 642.256 603.232 637.885 557.97C637.842 557.501 637.794 557.025 637.744 556.545C636.755 546.818 635.364 538.672 633.605 532.334C633.547 532.116 633.485 531.898 633.424 531.683C631.77 525.894 629.812 521.585 627.432 518.516C622.996 512.785 613.658 508.898 598.885 506.632C588.745 505.076 575.864 504.287 560.604 504.287L560.619 504.283Z" fill="#17091D"/>
<path d="M471.973 942.632C361.105 950.606 321.24 896.363 321.24 896.363L355.394 686.181V551.512C375.341 545.312 389.547 541.09 389.547 541.09C389.547 541.09 421.884 584.217 391.549 654.653C361.214 725.09 352.124 810.668 365.93 852.061C379.737 893.453 398.746 923.515 437.747 931.395C449.556 933.786 461.043 937.557 471.973 942.632Z" fill="#9C398C"/>
<path d="M643.793 540.276C641.378 546.43 638.39 552.342 634.869 557.935C634.797 558.051 634.724 558.167 634.648 558.298C629.561 566.307 623.546 573.686 616.728 580.28C610.833 586 604.419 591.158 597.569 595.687C581.125 606.596 561.138 614.785 538.07 618.553C533.678 619.28 529.173 619.835 524.554 620.218C523.885 620.276 523.21 620.331 522.534 620.378C518.128 620.698 513.814 620.819 509.592 620.742C508.992 620.742 508.397 620.742 507.801 620.705C480.979 619.978 457.875 611.822 438.299 599.72C424.129 590.949 411.775 580.109 401.239 568.52C394.109 560.656 387.56 552.285 381.64 543.473C377.8 537.778 374.356 532.127 371.289 526.655C392.726 523.225 433.197 517.149 475.711 512.771C498.358 519.255 524.605 522.953 551.779 523.095C570.239 523.196 585.71 517.753 598.412 509.869C611.383 511.858 620.794 515.258 624.87 520.52C627.021 523.298 628.82 527.396 630.302 532.585L631.806 529.276C631.806 529.276 636.479 532.811 643.793 540.276Z" fill="#9C398C"/>
<path d="M500.077 951.531C497.693 951.535 495.334 951.042 493.151 950.083C490.968 949.125 489.008 947.722 487.396 945.963L437.583 891.88C428.822 882.305 424.221 869.639 424.79 856.669L438.408 562.124L439.473 561.76C440.199 561.52 512.07 537.709 557.004 537.709C575 537.709 586.659 541.542 591.666 549.102C602.024 564.738 599.837 632.534 597.61 671.553C597.448 674.389 597.277 677.237 597.098 680.098C595.056 712.618 591.768 748.098 587.836 780.011V780.113C587.273 784.654 586.706 789.062 586.154 793.204C581.282 829.756 576.275 855.309 572.06 865.153C561.313 890.243 531.367 925.389 514.472 944.105C513.916 944.716 513.382 945.313 512.848 945.891C511.229 947.669 509.257 949.089 507.057 950.061C504.858 951.032 502.481 951.533 500.077 951.531Z" fill="#7E4282"/>
<path d="M556.989 539.337C572.67 539.337 585.14 542.225 590.288 549.999C598.674 562.665 599.255 613.756 595.964 671.454C595.801 674.285 595.63 677.131 595.451 679.992C593.337 713.661 590.001 749.01 586.186 779.905C585.634 784.365 585.074 788.729 584.508 792.996C579.933 827.301 574.876 854.367 570.53 864.516C559.939 889.243 530.564 923.832 513.233 943.014L511.616 944.796C510.16 946.401 508.387 947.684 506.408 948.565C504.429 949.446 502.289 949.904 500.123 949.911C497.958 949.918 495.814 949.473 493.83 948.605C491.846 947.737 490.064 946.464 488.599 944.868L438.786 890.781C434.577 886.21 431.316 880.85 429.191 875.009C427.066 869.169 426.12 862.965 426.407 856.756L429.07 799.188L429.353 793.036L434.295 686.148L434.723 676.857L439.974 563.316C439.974 563.316 511.801 539.348 556.989 539.348M556.989 536.076C537.979 536.076 512.321 540.141 480.732 548.159C457.283 554.112 439.12 560.159 438.949 560.21L436.82 560.919L436.718 563.163L431.457 676.694L431.028 685.985L426.087 792.872L425.804 799.028L423.14 856.592C422.834 863.233 423.846 869.87 426.119 876.117C428.391 882.364 431.879 888.099 436.38 892.988L486.193 947.076C487.071 948.032 488.045 948.896 489.1 949.654C492.863 952.336 497.477 953.545 502.07 953.054C506.663 952.562 510.918 950.403 514.028 946.985C514.556 946.41 515.096 945.815 515.649 945.199C532.616 926.407 562.689 891.105 573.528 865.796C579.294 852.341 584.907 814.668 587.741 793.432C588.301 789.232 588.868 784.821 589.424 780.323L589.449 780.123C593.377 748.214 596.665 712.741 598.707 680.214C598.885 677.359 599.07 674.483 599.219 671.661C600.97 641.021 601.504 614.079 600.767 593.741C599.917 569.65 597.373 554.759 593.013 548.192C590.107 543.828 585.249 540.607 578.516 538.614C572.801 536.923 565.56 536.068 556.989 536.068V536.076Z" fill="#17091D"/>
<path d="M536.45 715.208C532.915 771.077 518.778 895.295 513.233 943.004L511.616 944.786C509.045 947.61 505.528 949.394 501.732 949.8C497.936 950.207 494.122 949.208 491.012 946.993C495.906 915.8 505.858 845.455 509.629 767.819C512.503 708.615 510.276 655.6 507.812 620.702C505.901 593.869 503.845 577.742 503.845 577.742H536.468C536.468 577.742 537.522 593.822 538.085 618.419C538.663 644.222 538.717 679.4 536.45 715.208Z" fill="#CE44A2"/>
<path d="M536.468 576.242L536.615 576.249C537.338 576.319 537.916 576.905 537.964 577.645V577.646L537.965 577.647C537.966 577.649 537.965 577.652 537.965 577.656C537.966 577.664 537.967 577.677 537.968 577.692C537.97 577.724 537.973 577.772 537.977 577.834C537.985 577.959 537.996 578.145 538.011 578.39C538.041 578.88 538.085 579.606 538.139 580.554C538.247 582.45 538.396 585.234 538.563 588.786C538.856 595.003 539.202 603.575 539.473 613.869L539.585 618.384V618.385C540.163 644.213 540.218 679.438 537.947 715.303C534.409 771.22 520.266 895.484 514.723 943.177C514.687 943.488 514.554 943.78 514.343 944.012L512.727 945.794L512.725 945.796C509.907 948.891 506.052 950.846 501.891 951.292C497.73 951.738 493.551 950.643 490.141 948.215C489.678 947.885 489.442 947.322 489.53 946.761C494.42 915.595 504.363 845.308 508.13 767.746C511.001 708.619 508.777 655.667 506.316 620.809L505.957 615.91C505.117 604.78 504.276 595.763 503.619 589.312C503.243 585.627 502.928 582.778 502.706 580.854C502.595 579.891 502.506 579.159 502.447 578.669C502.417 578.424 502.395 578.238 502.38 578.115C502.372 578.054 502.366 578.007 502.362 577.977C502.36 577.961 502.359 577.95 502.358 577.942C502.358 577.939 502.357 577.936 502.357 577.935L502.356 577.933C502.302 577.505 502.434 577.074 502.718 576.751C503.003 576.428 503.413 576.242 503.844 576.242H536.468ZM505.685 580.51C505.909 582.447 506.227 585.308 506.604 589.008C507.264 595.482 508.106 604.527 508.948 615.686L509.308 620.596V620.597C511.774 655.534 514.004 708.612 511.127 767.892C507.39 844.821 497.589 914.589 492.64 946.271C495.302 947.92 498.443 948.644 501.572 948.309C505.003 947.941 508.181 946.328 510.506 943.775L511.797 942.353C517.382 894.281 531.432 770.748 534.953 715.113C537.216 679.364 537.163 644.232 536.586 618.453L536.474 613.948C536.204 603.677 535.859 595.126 535.567 588.927C535.4 585.385 535.251 582.612 535.144 580.725C535.111 580.146 535.081 579.651 535.056 579.242H505.536C505.579 579.607 505.63 580.03 505.685 580.51Z" fill="#17091D"/>
<path d="M538.067 618.419C532.925 619.346 527.738 619.995 522.527 620.364C517.494 620.728 512.582 620.84 507.794 620.702C505.883 593.869 503.826 577.742 503.826 577.742H536.45C536.45 577.742 537.504 593.819 538.067 618.419Z" fill="#9C398C"/>
<path d="M586.187 779.904L584.508 792.995C577.71 801.042 561.88 810.781 525.412 816.373C473.873 824.275 442.187 808.206 429.07 799.188L429.354 793.035L586.187 779.904Z" fill="#5C2C66"/>
<path d="M595.964 671.451C595.801 674.283 595.631 677.129 595.451 679.989C584.341 686.117 563.478 694.171 525.412 699.989C479.762 706.989 449.686 695.178 434.295 686.128L434.724 676.837L595.964 671.451Z" fill="#5C2C66"/>
<path d="M536.439 576.242L536.586 576.249C537.309 576.319 537.887 576.904 537.936 577.644L536.439 577.742C537.913 577.645 537.936 577.644 537.936 577.645V577.657C537.937 577.666 537.938 577.678 537.939 577.694C537.941 577.728 537.945 577.777 537.949 577.843C537.957 577.974 537.969 578.169 537.985 578.426C538.017 578.94 538.062 579.701 538.119 580.695C538.232 582.683 538.388 585.599 538.561 589.316C538.908 596.751 539.325 607.39 539.603 620.217C540.16 645.866 540.163 680.279 537.947 715.303C534.409 771.22 520.266 895.484 514.723 943.177C514.687 943.488 514.554 943.78 514.343 944.012L512.727 945.794L512.725 945.796C509.907 948.891 506.052 950.846 501.891 951.292C497.73 951.738 493.551 950.643 490.141 948.215C489.678 947.885 489.442 947.322 489.53 946.761C494.42 915.595 504.363 845.308 508.13 767.746C510.67 715.451 509.219 667.988 507.132 633.599C506.089 616.405 504.887 602.482 503.946 592.86C503.476 588.05 503.07 584.314 502.783 581.783C502.639 580.518 502.525 579.553 502.447 578.906C502.408 578.583 502.378 578.338 502.358 578.175C502.348 578.094 502.34 578.033 502.335 577.992C502.332 577.972 502.33 577.956 502.329 577.946C502.328 577.942 502.328 577.938 502.328 577.936V577.933C502.273 577.505 502.404 577.074 502.689 576.751C502.974 576.428 503.384 576.242 503.815 576.242H536.439ZM505.764 581.445C506.053 583.991 506.459 587.742 506.931 592.568C507.875 602.222 509.081 616.182 510.127 633.417C512.218 667.884 513.673 715.46 511.127 767.892C507.39 844.821 497.589 914.589 492.64 946.271C495.302 947.92 498.443 948.644 501.572 948.309C505.003 947.941 508.181 946.328 510.506 943.775L511.797 942.353C517.382 894.281 531.432 770.748 534.953 715.113C537.162 680.203 537.159 645.882 536.604 620.282C536.326 607.484 535.91 596.87 535.564 589.457C535.391 585.751 535.236 582.844 535.124 580.865C535.087 580.226 535.054 579.683 535.028 579.242H505.506C505.576 579.829 505.664 580.565 505.764 581.445Z" fill="#17091D"/>
<path d="M412.295 786.079C412.295 786.079 490.008 820.181 541.965 801.272C593.922 782.363 600.098 776.545 600.098 776.545V752.545C600.098 752.545 529.612 809.272 414.798 761.272L412.295 786.079Z" fill="#7E4282"/>
<path d="M598.599 755.503C598.318 755.698 598.014 755.909 597.687 756.131C595.498 757.613 592.254 759.667 588.007 761.977C579.513 766.595 566.999 772.235 550.875 776.361C518.955 784.53 472.954 786.739 416.088 763.426L413.897 785.131C414.467 785.37 415.273 785.705 416.295 786.116C418.506 787.005 421.727 788.257 425.756 789.7C433.815 792.588 445.099 796.243 457.993 799.308C483.853 805.454 515.906 809.16 541.452 799.862C567.407 790.416 581.892 784.253 589.872 780.463C593.861 778.568 596.209 777.273 597.545 776.466C598.017 776.181 598.357 775.955 598.599 775.79V755.503ZM600.099 776.545L601.124 777.64L601.115 777.648C601.111 777.652 601.106 777.657 601.101 777.661C601.09 777.67 601.079 777.681 601.065 777.692C601.039 777.716 601.005 777.744 600.964 777.777C600.882 777.844 600.768 777.933 600.612 778.046C600.302 778.271 599.821 778.596 599.098 779.033C597.651 779.908 595.209 781.249 591.159 783.173C583.061 787.019 568.479 793.219 542.478 802.682C516.068 812.293 483.285 808.402 457.299 802.226C444.271 799.129 432.878 795.44 424.743 792.524C420.675 791.067 417.418 789.801 415.176 788.899C414.055 788.448 413.187 788.088 412.598 787.84C412.303 787.716 412.079 787.62 411.927 787.555C411.851 787.522 411.793 787.497 411.754 787.479C411.734 787.471 411.719 787.464 411.709 787.46C411.704 787.458 411.7 787.456 411.697 787.455C411.696 787.454 411.694 787.454 411.693 787.454C411.693 787.454 411.698 787.438 412.295 786.079L411.692 787.453L410.693 787.015L413.509 759.107L415.377 759.889C472.464 783.755 518.454 781.561 550.132 773.455C565.981 769.399 578.264 763.859 586.574 759.341C590.729 757.082 593.889 755.079 596.004 753.646C597.061 752.93 597.857 752.357 598.385 751.966C598.649 751.77 598.846 751.619 598.975 751.52C599.039 751.47 599.087 751.432 599.117 751.408C599.132 751.396 599.144 751.387 599.15 751.382C599.154 751.379 599.156 751.378 599.157 751.377L599.158 751.376L601.599 749.412V777.192L601.127 777.637L600.099 776.545Z" fill="#17091D"/>
<path d="M402.551 756.887L401.174 790.203C401.125 791.339 401.503 792.451 402.232 793.322C402.962 794.193 403.991 794.759 405.116 794.909L412.746 795.905C413.375 795.989 414.014 795.941 414.623 795.763C415.231 795.584 415.796 795.281 416.28 794.871C416.765 794.461 417.158 793.955 417.435 793.384C417.711 792.813 417.866 792.19 417.887 791.556L419.039 759.876C419.073 758.91 418.799 757.958 418.256 757.158C417.713 756.358 416.93 755.753 416.02 755.429L408.615 752.792C407.945 752.554 407.228 752.476 406.522 752.565C405.815 752.655 405.14 752.909 404.55 753.307C403.96 753.706 403.472 754.237 403.125 754.859C402.778 755.48 402.581 756.175 402.551 756.887Z" fill="#7E4282"/>
<path d="M406.333 751.077C407.272 750.958 408.226 751.062 409.118 751.379L416.523 754.016C417.734 754.447 418.775 755.252 419.497 756.316C420.219 757.379 420.583 758.644 420.538 759.929V759.931L419.386 791.61C419.357 792.453 419.152 793.28 418.784 794.038C418.416 794.797 417.893 795.472 417.249 796.017C416.605 796.562 415.853 796.965 415.044 797.202C414.235 797.439 413.386 797.503 412.552 797.392L404.922 796.396H404.919C403.421 796.196 402.052 795.443 401.082 794.285C400.112 793.127 399.611 791.648 399.676 790.139L401.052 756.825V756.823C401.092 755.877 401.354 754.954 401.815 754.127C402.277 753.301 402.926 752.594 403.711 752.065C404.495 751.535 405.394 751.196 406.333 751.077ZM408.112 754.205C407.663 754.045 407.183 753.994 406.71 754.054C406.237 754.114 405.785 754.284 405.389 754.551C404.994 754.818 404.667 755.173 404.434 755.59C404.202 756.007 404.07 756.473 404.05 756.95L402.673 790.265V790.268C402.64 791.029 402.893 791.775 403.382 792.358C403.87 792.941 404.557 793.32 405.309 793.421L412.94 794.418H412.945C413.366 794.474 413.794 794.442 414.201 794.323C414.608 794.204 414.987 794 415.311 793.726C415.636 793.451 415.899 793.112 416.085 792.73C416.27 792.347 416.374 791.929 416.388 791.504V791.501L417.54 759.821C417.562 759.174 417.379 758.537 417.015 758.001C416.651 757.465 416.126 757.059 415.516 756.842L408.112 754.205Z" fill="#17091D"/>
<path d="M598.519 745.501L604.521 744.847C605.269 744.765 606.027 744.849 606.739 745.092C607.452 745.335 608.103 745.732 608.646 746.254C609.188 746.776 609.61 747.411 609.881 748.114C610.152 748.817 610.266 749.571 610.214 750.323L608.034 782.385C607.951 783.599 607.442 784.745 606.596 785.619C605.75 786.494 604.623 787.041 603.413 787.163L599.598 787.548C598.881 787.621 598.158 787.543 597.474 787.318C596.79 787.094 596.16 786.728 595.626 786.245C595.092 785.762 594.665 785.172 594.373 784.513C594.08 783.854 593.93 783.142 593.93 782.421V750.625C593.929 749.355 594.398 748.13 595.244 747.184C596.091 746.239 597.257 745.639 598.519 745.501Z" fill="#7E4282"/>
<path d="M604.722 743.326C605.569 743.28 606.418 743.398 607.224 743.673C608.144 743.987 608.985 744.498 609.686 745.173C610.386 745.847 610.931 746.667 611.281 747.574C611.631 748.482 611.778 749.455 611.711 750.426L609.531 782.486V782.487C609.424 784.054 608.766 785.533 607.674 786.662C606.65 787.72 605.307 788.407 603.855 788.619L603.563 788.655L599.748 789.04L599.749 789.041C598.824 789.135 597.889 789.033 597.006 788.743C596.122 788.453 595.309 787.981 594.619 787.357C593.929 786.733 593.379 785.971 593.002 785.121C592.625 784.271 592.43 783.351 592.43 782.421V750.625C592.429 748.986 593.034 747.404 594.127 746.183C595.22 744.962 596.726 744.188 598.355 744.01H598.356L604.358 743.355L604.722 743.326ZM595.43 782.422C595.43 782.932 595.537 783.437 595.744 783.904C595.951 784.371 596.253 784.79 596.632 785.133C597.01 785.475 597.457 785.733 597.941 785.892C598.426 786.051 598.939 786.108 599.446 786.056L599.447 786.055L603.262 785.671L603.58 785.624C604.316 785.483 604.993 785.118 605.518 784.576C606.117 783.956 606.479 783.143 606.538 782.282L608.718 750.221V750.22C608.754 749.686 608.674 749.151 608.481 748.653C608.289 748.155 607.99 747.705 607.605 747.335C607.221 746.965 606.76 746.684 606.255 746.512C605.75 746.339 605.214 746.28 604.684 746.338L598.682 746.992C597.788 747.09 596.962 747.514 596.361 748.184C595.761 748.855 595.43 749.723 595.43 750.624V782.422Z" fill="#17091D"/>
<path d="M422.534 658.6C422.534 658.6 555.729 685.574 602.075 649.785L605.367 671.698C605.367 671.698 548.687 712.182 419.973 679.818L422.534 658.6Z" fill="#7E4282"/>
<path d="M606.987 672.384L606.239 672.919L605.367 671.698L606.236 672.92C606.236 672.92 606.234 672.922 606.232 672.923C606.23 672.925 606.226 672.928 606.222 672.931C606.212 672.937 606.2 672.947 606.184 672.958C606.151 672.981 606.104 673.013 606.044 673.054C605.923 673.136 605.747 673.254 605.514 673.404C605.047 673.706 604.355 674.138 603.433 674.672C601.588 675.741 598.825 677.219 595.114 678.886C587.691 682.219 576.477 686.305 561.233 689.365C530.739 695.488 484.164 697.505 419.606 681.272L418.325 680.95L421.239 656.807L422.832 657.13L422.534 658.6C422.832 657.13 422.831 657.13 422.832 657.13C422.833 657.13 422.835 657.13 422.837 657.131C422.841 657.132 422.847 657.132 422.854 657.134C422.87 657.137 422.893 657.142 422.925 657.148C422.988 657.161 423.083 657.179 423.208 657.204C423.459 657.254 423.833 657.327 424.323 657.421C425.305 657.609 426.752 657.879 428.612 658.212C432.332 658.877 437.702 659.789 444.291 660.771C457.472 662.737 475.523 664.985 495.012 666.116C514.507 667.248 535.398 667.26 554.273 664.773C573.186 662.282 589.885 657.303 601.158 648.598L603.18 647.037L606.987 672.384ZM600.96 652.463C589.162 660.715 572.702 665.372 554.665 667.748C535.531 670.269 514.434 670.248 494.838 669.11C475.234 667.972 457.089 665.713 443.849 663.739C437.227 662.752 431.829 661.835 428.084 661.165C426.255 660.838 424.821 660.569 423.83 660.38L421.62 678.681C485.111 694.465 530.818 692.412 560.643 686.424C575.658 683.409 586.658 679.395 593.885 676.149C597.498 674.527 600.169 673.095 601.928 672.076C602.714 671.62 603.317 671.246 603.741 670.975L600.96 652.463Z" fill="#17091D"/>
<path d="M412.408 652.299C412.448 661.11 412.353 675.982 412.295 683.771C412.284 685.198 412.811 686.576 413.772 687.63C414.733 688.684 416.056 689.336 417.476 689.455C421.044 689.757 425.186 689.881 425.502 688.877C425.938 687.488 427.137 663.786 427.646 653.375C427.712 652.029 427.297 650.703 426.473 649.637C425.65 648.57 424.473 647.832 423.155 647.557L419.224 646.731C418.398 646.558 417.545 646.572 416.725 646.772C415.906 646.972 415.141 647.353 414.488 647.887C413.835 648.42 413.309 649.094 412.949 649.857C412.589 650.62 412.404 651.455 412.408 652.299Z" fill="#7E4282"/>
<path d="M416.37 645.315C417.407 645.062 418.487 645.044 419.531 645.263H419.532L423.464 646.088L423.463 646.089C425.131 646.438 426.62 647.37 427.661 648.719C428.703 650.069 429.229 651.746 429.145 653.449C428.89 658.655 428.463 667.188 428.045 674.593C427.836 678.296 427.629 681.722 427.447 684.313C427.355 685.607 427.27 686.701 427.193 687.52C427.154 687.928 427.116 688.28 427.08 688.557C427.05 688.789 427.007 689.093 426.934 689.326L426.933 689.327C426.745 689.923 426.321 690.282 425.996 690.481C425.668 690.682 425.308 690.805 424.989 690.886C424.346 691.051 423.561 691.124 422.765 691.154C421.151 691.214 419.15 691.102 417.35 690.95V690.949C415.553 690.798 413.879 689.973 412.663 688.64C411.448 687.307 410.781 685.564 410.795 683.759L410.843 676.796C410.892 668.916 410.938 658.905 410.908 652.305C410.904 651.238 411.137 650.182 411.592 649.216C412.047 648.251 412.713 647.399 413.539 646.724C414.366 646.049 415.334 645.568 416.37 645.315ZM418.916 648.199C418.31 648.072 417.683 648.082 417.081 648.229C416.479 648.376 415.917 648.656 415.437 649.048C414.957 649.441 414.57 649.936 414.306 650.497C414.041 651.058 413.906 651.671 413.908 652.292C413.948 661.113 413.853 675.994 413.795 683.782V683.783C413.787 684.832 414.175 685.845 414.881 686.62C415.587 687.394 416.559 687.872 417.602 687.96H417.603C419.371 688.109 421.225 688.209 422.653 688.156C423.295 688.132 423.788 688.075 424.124 688.004C424.149 687.798 424.177 687.543 424.205 687.239C424.279 686.455 424.363 685.388 424.453 684.102C424.634 681.533 424.84 678.123 425.049 674.424C425.467 667.03 425.893 658.506 426.148 653.301V653.3C426.197 652.311 425.891 651.336 425.286 650.552C424.681 649.769 423.817 649.227 422.849 649.025L422.847 649.024L418.916 648.199Z" fill="#17091D"/>
<path d="M613.048 642.116L612.201 675.316C612.172 676.521 611.673 677.666 610.811 678.507C609.95 679.348 608.794 679.819 607.59 679.818H603.884C602.69 679.818 601.543 679.355 600.683 678.525C599.823 677.696 599.318 676.565 599.274 675.371L598.078 642.716C598.035 641.539 598.443 640.389 599.219 639.503C599.995 638.616 601.081 638.061 602.253 637.949L607.997 637.404C608.647 637.342 609.302 637.418 609.92 637.629C610.538 637.839 611.104 638.178 611.581 638.623C612.059 639.069 612.436 639.61 612.689 640.212C612.942 640.815 613.064 641.463 613.048 642.116Z" fill="#7E4282"/>
<path d="M608.178 635.888C608.932 635.856 609.687 635.965 610.404 636.209C611.222 636.487 611.972 636.936 612.605 637.526C613.237 638.116 613.738 638.834 614.072 639.631C614.365 640.329 614.526 641.075 614.547 641.83V642.154L613.7 675.354C613.661 676.949 613.001 678.465 611.86 679.58C610.718 680.694 609.186 681.318 607.591 681.318H603.884C602.301 681.318 600.781 680.703 599.642 679.604C598.503 678.505 597.833 677.008 597.775 675.426V675.425L596.579 642.771C596.522 641.211 597.063 639.688 598.091 638.514C599.119 637.34 600.558 636.603 602.112 636.456L607.856 635.91L608.178 635.888ZM609.437 639.048C609.02 638.907 608.578 638.854 608.14 638.896H608.139L602.395 639.441C601.604 639.516 600.872 639.893 600.348 640.491C599.824 641.089 599.548 641.865 599.577 642.661L600.773 675.315C600.803 676.122 601.144 676.885 601.725 677.445C602.305 678.005 603.079 678.318 603.885 678.318H607.591C608.403 678.318 609.183 678.001 609.764 677.433C610.345 676.866 610.682 676.092 610.701 675.279V675.278L611.548 642.078C611.559 641.637 611.476 641.199 611.306 640.793C611.135 640.386 610.881 640.02 610.559 639.719C610.237 639.419 609.854 639.19 609.437 639.048Z" fill="#17091D"/>
<path d="M349.58 993.521C345.282 993.521 341.252 992.277 338.015 991.273C335.868 990.612 334.018 990.037 332.779 990.037H332.652C332.439 990.035 332.228 990.075 332.031 990.157C330.305 991.026 326.581 991.946 321.334 991.946C317.974 991.926 314.622 991.609 311.317 991.001H311.274C305.865 989.994 300.564 988.475 295.443 986.463C293.329 985.652 291.16 984.739 288.998 983.753L288.678 983.601C283.853 981.299 280.053 977.055 277.389 971.033C268.698 951.317 274.41 918.175 275.3 913.39C274.592 911.881 272.372 907.095 270.341 901.953C265.734 890.281 266.017 886.866 266.635 885.31C266.775 884.916 266.999 884.557 267.289 884.256C267.58 883.956 267.932 883.721 268.321 883.568C270.137 882.863 272.125 882.07 274.221 881.23C286.829 876.183 304.098 869.273 317.966 869.273C322.214 869.273 325.96 869.924 329.113 871.215C329.281 871.284 329.451 871.364 329.637 871.459C329.992 871.639 330.333 871.845 330.658 872.077L330.748 872.143C338.015 877.444 344.373 898.361 345.507 902.252C348.196 904.026 360.404 912.172 365.225 916.863C365.4 917.033 365.57 917.226 365.734 917.383C367.473 919.288 368.83 921.51 369.73 923.928C370.196 925.095 370.588 926.273 370.966 927.412C371.78 929.859 372.55 932.172 373.945 934.132C376.052 937.099 378.254 943.95 380.38 950.583C381.946 955.463 383.566 960.506 384.812 962.757L384.987 963.059C385.733 964.238 386.17 965.585 386.259 966.978C386.347 968.37 386.083 969.763 385.492 971.026C384.009 974.339 380.71 976.746 376.663 977.47C374.959 977.775 372.75 979.393 371.213 980.583C369.909 981.608 368.55 982.764 367.111 984.015C362.217 988.219 356.669 992.986 351.309 993.433C350.772 993.495 350.172 993.521 349.58 993.521Z" fill="#CE44A2"/>
<path d="M317.97 870.909C321.81 870.909 325.375 871.451 328.507 872.728C328.63 872.779 328.761 872.84 328.903 872.913C329.202 873.064 329.489 873.239 329.76 873.437L329.825 873.48C337.277 878.935 344.115 903.299 344.115 903.299C344.115 903.299 358.845 912.924 364.099 918.048C364.259 918.204 364.415 918.364 364.567 918.524C366.167 920.282 367.413 922.331 368.237 924.56C369.69 928.197 370.417 931.982 372.641 935.106C376.176 940.077 380.438 958.204 383.41 963.575C383.482 963.709 383.555 963.833 383.628 963.939C386.604 968.786 382.828 974.728 376.401 975.877C374.584 976.2 372.51 977.539 370.25 979.313C364.437 983.866 357.493 991.313 351.218 991.819C350.67 991.866 350.128 991.884 349.576 991.884C342.629 991.884 336.322 988.404 332.776 988.404H332.59C332.139 988.407 331.694 988.509 331.286 988.702C329.92 989.386 326.563 990.313 321.331 990.313C318.053 990.292 314.784 989.982 311.561 989.386C306.259 988.4 301.064 986.91 296.046 984.935C294.012 984.154 291.895 983.263 289.695 982.262L289.408 982.128C284.59 979.826 281.219 975.619 278.901 970.368C269.817 949.768 277.022 913.168 277.022 913.168C277.022 913.168 264.378 886.848 268.92 885.091C281.782 880.117 302.172 870.909 317.97 870.909ZM317.97 867.637C303.8 867.637 286.36 874.619 273.614 879.713C271.525 880.553 269.548 881.342 267.735 882.044C267.138 882.28 266.596 882.639 266.146 883.098C265.695 883.556 265.346 884.104 265.119 884.706C264.295 886.797 264.088 890.549 268.829 902.557C270.718 907.346 272.724 911.724 273.603 913.615C272.443 920.314 271.668 927.074 271.282 933.862C270.366 949.942 271.921 962.669 275.899 971.68C278.726 978.084 282.803 982.589 287.988 985.069L288.311 985.222C290.516 986.229 292.715 987.153 294.851 987.979C300.063 990.025 305.457 991.571 310.961 992.597H311.027C314.419 993.217 317.86 993.539 321.309 993.56C325.952 993.56 330.171 992.851 332.627 991.655H332.754C333.739 991.655 335.57 992.219 337.506 992.819C340.849 993.851 345.009 995.135 349.554 995.135C350.201 995.135 350.844 995.11 351.469 995.059C357.355 994.568 363.096 989.604 368.183 985.24C369.61 984.015 370.955 982.859 372.23 981.855C374.363 980.182 375.951 979.244 376.953 979.066C381.528 978.248 385.277 975.488 386.981 971.68C387.674 970.174 387.981 968.52 387.877 966.865C387.773 965.211 387.261 963.608 386.386 962.2V962.175C386.346 962.109 386.306 962.048 386.273 961.982C386.274 961.973 386.274 961.963 386.273 961.953C385.107 959.84 383.512 954.873 381.967 950.066C379.704 943.008 377.564 936.342 375.307 933.171C374.054 931.408 373.324 929.208 372.546 926.88C372.161 925.72 371.761 924.52 371.278 923.306C370.306 920.695 368.837 918.297 366.954 916.244V916.222C366.755 916.015 366.591 915.833 366.406 915.666C361.748 911.12 350.419 903.495 346.942 901.186C346.31 899.059 344.842 894.353 342.836 889.208C339.047 879.495 335.432 873.48 331.78 870.811L331.726 870.771L331.613 870.695C331.228 870.421 330.822 870.178 330.399 869.968C330.181 869.855 329.978 869.764 329.782 869.68C326.425 868.306 322.468 867.611 318.01 867.611L317.97 867.637Z" fill="#17091D"/>
<path d="M376.397 975.877C374.58 976.201 372.506 977.539 370.246 979.314C364.432 983.866 357.489 991.314 351.214 991.819C343.504 992.463 336.361 988.27 332.586 988.408C332.135 988.412 331.69 988.513 331.282 988.706C329.204 989.75 322.518 991.35 311.557 989.39C306.255 988.404 301.06 986.914 296.042 984.939C294.008 984.159 291.891 983.268 289.691 982.266L289.404 982.132C285.596 980.27 282.094 976.088 278.897 970.372C269.813 949.772 277.018 913.172 277.018 913.172C277.018 913.172 264.378 886.848 268.919 885.092C284.906 878.91 312.519 866.183 328.506 872.728C328.63 872.779 328.76 872.841 328.902 872.914C329.197 873.074 329.483 873.248 329.76 873.437L329.825 873.481C337.277 878.936 344.115 903.299 344.115 903.299C344.115 903.299 358.844 912.925 364.098 918.048C364.258 918.205 364.414 918.365 364.567 918.525C366.166 920.282 367.412 922.332 368.237 924.561C355.687 923.168 331.95 920.768 325.966 921.834C316.763 923.477 298.422 927.357 289.996 928.016C281.571 928.674 288.474 934.306 289.691 947.434C290.501 956.205 289.182 967.957 294.004 974.979C296.398 978.47 300.308 980.797 306.746 981.005L308.73 981.059C318.176 981.245 324.789 980.445 330.094 979.917C334.901 979.437 338.621 979.19 342.356 980.07C348.449 981.525 358.735 984.47 370.853 976.07C374.849 973.299 379.078 969.281 383.406 963.561C383.478 963.696 383.551 963.819 383.624 963.925C386.599 968.786 382.824 974.728 376.397 975.877Z" fill="#9C398C"/>
<path d="M362.506 942.99C363.063 942.378 364.012 942.333 364.625 942.891C365.237 943.448 365.282 944.397 364.724 945.01C359.901 950.309 357.997 955.575 357.285 959.485C356.928 961.446 356.87 963.071 356.899 964.193C356.914 964.754 356.95 965.188 356.981 965.475C356.997 965.618 357.01 965.724 357.02 965.79C357.025 965.823 357.029 965.847 357.031 965.859C357.031 965.863 357.032 965.865 357.032 965.867C357.18 966.682 356.64 967.462 355.825 967.61C355.01 967.759 354.229 967.218 354.081 966.403L355.556 966.135L354.081 966.401L354.08 966.399C354.08 966.398 354.079 966.396 354.079 966.395C354.078 966.391 354.078 966.387 354.077 966.383C354.075 966.373 354.073 966.361 354.071 966.346C354.066 966.316 354.06 966.276 354.052 966.226C354.038 966.124 354.018 965.981 353.999 965.8C353.959 965.438 353.917 964.92 353.9 964.271C353.866 962.972 353.935 961.138 354.334 958.948C355.133 954.558 357.257 948.756 362.506 942.99Z" fill="#17091D"/>
<path d="M357.319 952.674C357.769 951.978 358.698 951.779 359.394 952.229L358.579 953.488C359.393 952.228 359.394 952.229 359.395 952.23L359.396 952.231C359.397 952.231 359.399 952.232 359.4 952.233C359.404 952.236 359.409 952.239 359.414 952.242C359.425 952.249 359.44 952.259 359.459 952.272C359.497 952.297 359.551 952.333 359.619 952.38C359.755 952.473 359.949 952.61 360.191 952.787C360.674 953.142 361.35 953.662 362.138 954.338C363.71 955.687 365.75 957.673 367.6 960.213C371.305 965.3 374.322 972.74 371.07 981.667C370.787 982.445 369.926 982.847 369.148 982.564C368.369 982.28 367.968 981.419 368.251 980.641C371.046 972.968 368.522 966.575 365.175 961.98C363.498 959.678 361.634 957.86 360.184 956.615C359.461 955.995 358.846 955.521 358.416 955.205C358.201 955.048 358.033 954.93 357.921 954.854C357.865 954.815 357.823 954.787 357.797 954.77C357.784 954.761 357.775 954.755 357.77 954.751C357.768 954.75 357.767 954.748 357.766 954.747C357.765 954.748 357.764 954.747 357.764 954.747L357.765 954.748C357.069 954.298 356.87 953.37 357.319 952.674Z" fill="#17091D"/>
<path d="M329.529 960.688C330.355 960.752 330.973 961.472 330.91 962.298C330.91 962.3 330.909 962.304 330.909 962.308C330.908 962.316 330.908 962.328 330.907 962.343C330.905 962.376 330.901 962.426 330.896 962.492C330.887 962.623 330.875 962.819 330.861 963.073C330.833 963.581 330.799 964.321 330.772 965.236C330.719 967.068 330.7 969.598 330.837 972.392C331.114 978.068 332.02 984.512 334.345 988.521C334.761 989.238 334.517 990.156 333.801 990.572C333.084 990.987 332.165 990.743 331.75 990.027C329.028 985.334 328.119 978.233 327.841 972.539C327.699 969.648 327.719 967.037 327.773 965.149C327.8 964.205 327.837 963.439 327.866 962.908C327.881 962.642 327.894 962.434 327.903 962.292C327.908 962.221 327.912 962.166 327.915 962.128C327.916 962.11 327.917 962.096 327.918 962.086C327.918 962.081 327.919 962.077 327.919 962.074V962.069C327.982 961.243 328.703 960.625 329.529 960.688Z" fill="#17091D"/>
<path d="M308.308 969.05C309.083 969.096 309.685 969.724 309.716 970.483L309.715 970.637V970.638C309.715 970.639 309.715 970.641 309.714 970.644C309.714 970.651 309.714 970.662 309.713 970.677C309.712 970.706 309.709 970.75 309.707 970.809C309.701 970.928 309.693 971.106 309.686 971.335C309.671 971.793 309.657 972.457 309.66 973.266C309.666 974.889 309.741 977.084 310.014 979.387C310.288 981.7 310.756 984.062 311.519 986.051C312.292 988.065 313.296 989.503 314.518 990.234C315.229 990.66 315.46 991.581 315.035 992.292C314.609 993.003 313.688 993.234 312.977 992.808C310.922 991.578 309.596 989.413 308.718 987.127C307.83 984.815 307.325 982.179 307.036 979.739C306.745 977.289 306.666 974.975 306.66 973.278C306.656 972.428 306.671 971.728 306.687 971.239C306.695 970.994 306.703 970.802 306.709 970.669C306.713 970.602 306.715 970.551 306.717 970.515C306.718 970.498 306.719 970.483 306.719 970.473C306.719 970.469 306.72 970.465 306.72 970.462V970.458C306.72 970.457 306.721 970.457 308.218 970.547L306.72 970.457C306.77 969.63 307.481 969 308.308 969.05Z" fill="#17091D"/>
<path d="M294.169 973.148C294.994 973.226 295.599 973.959 295.52 974.783L295.518 974.799C295.517 974.814 295.515 974.84 295.512 974.874C295.507 974.943 295.501 975.048 295.494 975.185C295.48 975.459 295.465 975.861 295.468 976.353C295.474 977.341 295.548 978.67 295.809 980.056C296.35 982.925 297.586 985.532 300.107 986.481C300.882 986.772 301.274 987.638 300.982 988.413C300.69 989.188 299.825 989.58 299.05 989.288C294.991 987.761 293.451 983.744 292.861 980.611C292.557 978.997 292.475 977.479 292.468 976.371C292.465 975.815 292.481 975.355 292.498 975.031C292.506 974.869 292.514 974.741 292.521 974.65C292.524 974.605 292.527 974.57 292.529 974.544C292.53 974.531 292.531 974.521 292.532 974.514C292.532 974.51 292.532 974.506 292.533 974.504C292.533 974.503 292.533 974.501 292.533 974.5L292.534 974.499C292.54 974.499 292.632 974.507 294.027 974.641L292.534 974.498C292.612 973.673 293.345 973.069 294.169 973.148Z" fill="#17091D"/>
<path d="M340.678 973.456C342.785 973.456 344.493 968.816 344.493 963.092C344.493 957.368 342.785 952.729 340.678 952.729C338.571 952.729 336.863 957.368 336.863 963.092C336.863 968.816 338.571 973.456 340.678 973.456Z" fill="#D969BD"/>
<path d="M317.424 972C319.531 972 321.239 968.499 321.239 964.181C321.239 959.864 319.531 956.363 317.424 956.363C315.317 956.363 313.609 959.864 313.609 964.181C313.609 968.499 315.317 972 317.424 972Z" fill="#D969BD"/>
<path d="M300.348 976C302.455 976 304.163 973.314 304.163 970C304.163 966.686 302.455 964 300.348 964C298.241 964 296.533 966.686 296.533 970C296.533 973.314 298.241 976 300.348 976Z" fill="#D969BD"/>
<path d="M260.094 908.117C258.251 908.13 256.438 907.651 254.842 906.729C253.245 905.808 251.923 904.477 251.011 902.874C246.651 895.299 242.836 885.783 239.639 874.645C238.458 870.532 237.343 866.132 236.329 861.554C228.931 828.201 226.239 784.026 228.75 737.165C231.656 682.983 241.296 632.888 254.546 603.143C277.582 551.361 322.032 518.874 346.477 504.121C347.464 503.525 348.501 503.015 349.576 502.597C354.214 500.809 359.354 500.833 363.974 502.664C368.595 504.496 372.358 508 374.515 512.481L391.926 548.561C391.965 548.639 391.996 548.721 392.021 548.805C396.817 564.881 397.518 584.292 394.11 606.496C391.392 624.172 386.08 643.67 378.312 664.437C366.148 696.972 351.647 722.59 349.307 726.641C352.883 744.361 338.426 760.899 334.916 764.597C342.546 787.536 347.142 826.052 349.671 854.514C350.354 862.197 350.961 870.03 351.487 877.786C351.591 879.224 351.395 880.666 350.913 882.024C350.431 883.382 349.673 884.624 348.686 885.674C347.358 887.108 345.656 888.143 343.772 888.662C341.888 889.18 339.896 889.162 338.022 888.608C331.422 886.667 324.58 885.67 317.701 885.648C316.008 885.648 314.3 885.714 312.614 885.837C291.145 887.423 274.828 898.874 266.983 905.561C265.064 907.206 262.621 908.112 260.094 908.117Z" fill="#CE44A2"/>
<path d="M356.662 502.909C360.083 502.906 363.436 503.869 366.334 505.688C369.232 507.508 371.558 510.109 373.044 513.193L390.455 549.273C411.165 618.728 347.582 726.364 347.582 726.364C351.942 745.637 333.049 764.182 333.049 764.182C340.806 786.833 345.475 825.775 348.043 854.669C348.839 863.655 349.431 871.666 349.86 877.917C349.959 879.348 349.711 880.782 349.136 882.096C348.561 883.41 347.677 884.566 346.56 885.464C345.442 886.362 344.124 886.976 342.718 887.254C341.311 887.531 339.859 887.464 338.484 887.059C331.736 885.07 324.74 884.051 317.705 884.033C315.934 884.033 314.199 884.097 312.499 884.226C291.018 885.811 274.683 896.859 265.923 904.335C264.305 905.726 262.243 906.491 260.109 906.491C258.554 906.499 257.023 906.094 255.675 905.317C254.326 904.54 253.207 903.42 252.432 902.069C248.025 894.389 244.297 884.96 241.213 874.204C240.026 870.063 238.936 865.735 237.943 861.219C230.222 826.411 228.038 781.364 230.4 737.273C233.183 685.364 242.27 634.782 256.051 603.819C278.897 552.495 322.904 520.277 347.349 505.52C348.257 504.973 349.21 504.505 350.198 504.12C352.26 503.323 354.451 502.912 356.662 502.909ZM356.662 499.637C354.037 499.633 351.435 500.119 348.988 501.069C347.825 501.521 346.703 502.072 345.635 502.717C321.022 517.571 276.271 550.288 253.035 602.488C246.205 617.819 240.428 637.873 235.857 662.073C231.533 684.982 228.503 710.917 227.101 737.088C224.583 784.091 227.29 828.426 234.731 861.917C235.755 866.513 236.874 870.949 238.066 875.095C241.303 886.368 245.18 896 249.595 903.688C250.492 905.234 251.718 906.563 253.187 907.582C254.655 908.601 256.329 909.284 258.091 909.582C259.852 909.881 261.658 909.787 263.379 909.309C265.101 908.831 266.696 907.979 268.052 906.815C275.726 900.269 291.738 889.029 312.742 887.48C314.388 887.357 316.059 887.295 317.709 887.295C324.435 887.32 331.124 888.299 337.576 890.204C338.688 890.527 339.84 890.693 340.998 890.695C342.666 890.689 344.316 890.342 345.845 889.675C347.374 889.008 348.75 888.034 349.889 886.815C351.03 885.602 351.906 884.166 352.463 882.597C353.021 881.027 353.246 879.36 353.126 877.699C352.603 869.92 351.993 862.062 351.31 854.379C348.806 826.204 344.268 788.197 336.776 765.008C339.789 761.668 342.466 758.039 344.77 754.175C350.38 744.72 352.534 735.331 351.037 726.942C354.151 721.488 368.114 696.469 379.857 665.022C387.661 644.149 393.006 624.542 395.735 606.753C399.183 584.309 398.463 564.659 393.598 548.349C393.55 548.182 393.487 548.019 393.409 547.862L375.998 511.782C374.246 508.14 371.501 505.068 368.08 502.919C364.659 500.77 360.701 499.632 356.662 499.637Z" fill="#17091D"/>
<path d="M333.048 764.171C343.298 794.109 348.163 852.509 349.896 878.553C349.989 879.911 349.752 881.271 349.206 882.518C348.66 883.765 347.821 884.861 346.761 885.713C345.7 886.566 344.45 887.149 343.115 887.414C341.781 887.678 340.403 887.616 339.098 887.233C330.489 884.6 321.47 883.577 312.491 884.214C311.917 867.749 311.277 849.44 310.954 840.876C310.296 823.385 294.353 760.545 286.36 744.611C274.733 721.454 303.626 723.091 313.755 715.207C320.419 710.022 309.759 691.138 301.682 678.825C300.97 677.734 300.529 676.488 300.394 675.191C300.259 673.895 300.435 672.585 300.907 671.37C301.379 670.155 302.134 669.07 303.108 668.205C304.082 667.34 305.249 666.72 306.51 666.396C320.869 662.596 330.171 651.894 335.392 643.742C339.451 637.388 344.124 631.449 349.344 626.011C384.533 589.422 361.835 528.92 350.176 504.12C354.433 502.48 359.15 502.503 363.391 504.184C367.631 505.865 371.085 509.08 373.066 513.192L390.455 549.273C411.165 618.727 347.582 726.363 347.582 726.363C351.934 745.636 333.048 764.171 333.048 764.171Z" fill="#9C398C"/>
<path d="M303.95 743.375C314.86 741.802 322.984 746.966 328.283 752.36C330.934 755.059 332.912 757.846 334.227 759.954C334.886 761.01 335.382 761.9 335.715 762.532C335.881 762.848 336.008 763.099 336.094 763.274C336.136 763.362 336.17 763.43 336.192 763.478C336.204 763.502 336.212 763.521 336.219 763.535C336.222 763.542 336.225 763.547 336.226 763.551C336.227 763.554 336.228 763.556 336.228 763.557L336.229 763.558C336.23 763.559 336.23 763.56 334.96 764.14L336.23 763.56C336.574 764.314 336.242 765.204 335.488 765.548C334.782 765.87 333.956 765.598 333.572 764.942L333.501 764.806C333.5 764.805 333.5 764.802 333.498 764.798C333.494 764.791 333.488 764.777 333.479 764.759C333.462 764.723 333.436 764.667 333.399 764.592C333.326 764.443 333.213 764.219 333.061 763.931C332.758 763.356 332.298 762.529 331.682 761.542C330.449 759.564 328.6 756.965 326.142 754.463C321.223 749.455 313.996 744.958 304.378 746.344C303.558 746.462 302.798 745.893 302.68 745.073C302.562 744.253 303.13 743.493 303.95 743.375Z" fill="#17091D"/>
<path d="M329.855 703.279C330.282 702.569 331.203 702.339 331.913 702.765C334.175 704.122 336.426 706.271 338.5 708.643C340.587 711.029 342.56 713.717 344.258 716.227C345.957 718.739 347.394 721.092 348.405 722.815C348.911 723.678 349.311 724.385 349.586 724.878C349.723 725.124 349.829 725.317 349.901 725.449C349.937 725.515 349.965 725.566 349.983 725.601C349.993 725.618 350 725.631 350.005 725.641C350.007 725.645 350.009 725.649 350.011 725.651C350.011 725.653 350.012 725.654 350.013 725.654V725.655L350.014 725.656C350.404 726.387 350.129 727.296 349.398 727.687C348.668 728.077 347.759 727.802 347.368 727.071L347.367 727.069C347.366 727.068 347.364 727.065 347.362 727.062C347.358 727.054 347.352 727.042 347.344 727.026C347.327 726.995 347.301 726.948 347.268 726.886C347.2 726.761 347.098 726.577 346.966 726.339C346.701 725.863 346.311 725.175 345.817 724.333C344.829 722.648 343.428 720.353 341.773 717.907C340.117 715.459 338.219 712.879 336.241 710.617C334.25 708.34 332.241 706.459 330.37 705.337C329.66 704.911 329.429 703.99 329.855 703.279Z" fill="#17091D"/>
<path d="M251.535 648.517C252.317 650.59 253.798 652.324 255.722 653.42C257.646 654.515 259.892 654.903 262.072 654.517C267.979 653.506 277.437 650.063 281.993 638.546C288.896 621.092 294.71 616.001 284.173 611.274C273.636 606.546 268.55 611.637 263.826 621.819C259.103 632.001 249.656 643.274 251.473 648.365L251.535 648.517Z" fill="#D969BD"/>
<path d="M236.318 861.564C228.921 828.211 226.228 784.037 228.739 737.175L228.783 736.338L229.487 735.884C232.22 734.128 234.912 732.517 237.481 731.095C247.458 725.586 255.895 722.793 262.551 722.793C263.15 722.793 263.746 722.815 264.32 722.858C266.805 723.023 269.223 723.734 271.402 724.942L272.226 725.415V787.16C272.276 807.113 265.915 826.553 254.081 842.611C248.744 849.884 243.734 856.48 239.185 862.226L237.052 864.917L236.318 861.564Z" fill="#7E4282"/>
<path d="M262.562 724.429C263.117 724.429 263.652 724.447 264.204 724.491C266.449 724.634 268.634 725.274 270.602 726.364V787.16C270.608 806.757 264.362 825.844 252.773 841.64C248.137 847.956 243.007 854.771 237.913 861.207C230.192 826.4 228.009 781.353 230.37 737.262C232.914 735.614 235.588 734.011 238.276 732.534C246.651 727.909 255.353 724.436 262.562 724.436M262.562 721.164C255.622 721.164 246.92 724.025 236.699 729.669C234.094 731.105 231.373 732.738 228.604 734.516L227.198 735.422L227.107 737.094C224.59 784.102 227.296 828.433 234.737 861.924L236.227 868.636L240.493 863.247C245.056 857.487 250.081 850.884 255.429 843.585C261.395 835.459 266.031 826.435 269.163 816.851C272.296 807.268 273.891 797.249 273.887 787.167V724.465L272.241 723.524C269.856 722.195 267.207 721.412 264.484 721.229C263.859 721.178 263.219 721.156 262.576 721.156L262.562 721.164Z" fill="#17091D"/>
<path d="M248.937 789.455C233.594 799.015 236.471 752.025 238.277 732.527C247.299 727.545 256.687 723.898 264.205 724.491C264.561 742.269 263.565 780.338 248.937 789.455Z" fill="#5C2C66"/>
<path d="M260.095 908.124C258.252 908.138 256.439 907.66 254.842 906.739C253.245 905.818 251.923 904.487 251.012 902.884C246.652 895.309 242.833 885.793 239.632 874.644L239.323 873.578L240.199 872.898C253.413 862.648 277.277 850.426 315.936 850.426C326.774 850.472 337.593 851.346 348.298 853.04L349.562 853.237L349.675 854.513C350.358 862.204 350.968 870.044 351.492 877.811C351.596 879.247 351.401 880.689 350.919 882.045C350.438 883.402 349.68 884.643 348.694 885.691C347.71 886.746 346.52 887.589 345.199 888.166C343.877 888.744 342.451 889.045 341.009 889.051C340.005 889.049 339.006 888.906 338.041 888.626C331.433 886.679 324.583 885.68 317.694 885.659C316.001 885.659 314.293 885.724 312.608 885.848C291.135 887.433 274.795 898.891 266.966 905.578C265.049 907.215 262.614 908.117 260.095 908.124Z" fill="#7E4282"/>
<path d="M315.932 852.063C326.687 852.105 337.422 852.973 348.044 854.659C348.839 863.652 349.435 871.67 349.86 877.932C349.96 879.361 349.713 880.794 349.139 882.107C348.565 883.42 347.682 884.574 346.566 885.471C345.449 886.369 344.133 886.982 342.728 887.259C341.323 887.536 339.872 887.469 338.499 887.063C331.746 885.071 324.745 884.051 317.705 884.034C315.935 884.034 314.199 884.098 312.499 884.226C291.011 885.812 274.668 896.866 265.916 904.346C264.297 905.736 262.235 906.5 260.102 906.499C258.548 906.506 257.019 906.101 255.672 905.325C254.325 904.549 253.207 903.43 252.432 902.081C248.022 894.397 244.29 884.964 241.205 874.204C253.784 864.444 277.343 852.074 315.939 852.074M315.939 848.801C276.819 848.801 252.614 861.208 239.203 871.619L237.452 872.975L238.063 875.106C241.3 886.379 245.18 896.019 249.598 903.71C250.494 905.255 251.719 906.585 253.186 907.603C254.653 908.621 256.326 909.304 258.086 909.602C259.846 909.9 261.65 909.806 263.37 909.328C265.09 908.85 266.684 907.998 268.038 906.834C275.715 900.288 291.731 889.041 312.728 887.492C314.373 887.368 316.045 887.306 317.694 887.306C324.426 887.331 331.119 888.311 337.576 890.215C339.738 890.85 342.035 890.87 344.208 890.272C346.381 889.674 348.344 888.482 349.878 886.83C351.017 885.621 351.892 884.189 352.448 882.624C353.005 881.059 353.231 879.396 353.112 877.739C352.592 869.964 351.982 862.103 351.295 854.404L351.07 851.859L348.527 851.47C337.739 849.762 326.836 848.88 315.914 848.834L315.939 848.801Z" fill="#17091D"/>
<path d="M339.639 558.182C343.111 555.056 345.493 550.901 346.437 546.324C347.959 539.222 350.1 523.778 339.897 523.709C326.672 523.64 296.243 556.291 317.632 562.145C328.347 565.091 335.33 561.989 339.639 558.182Z" fill="#D969BD"/>
<path d="M525.244 595.637C486.299 595.637 445.769 584.197 414.042 564.255C379.526 542.56 359.484 513.277 357.606 481.804C357.353 477.526 357.425 473.235 357.82 468.967C357.852 468.62 357.993 468.292 358.224 468.03C358.454 467.768 358.762 467.587 359.103 467.513C359.216 467.488 359.332 467.476 359.448 467.477C359.737 467.477 360.021 467.554 360.27 467.699C360.52 467.845 360.726 468.054 360.869 468.306C367.888 480.669 386.211 490.953 413.864 498.069C439.007 504.542 471.195 508.109 504.494 508.109C536.01 508.109 567.06 504.895 591.927 499.058C618.981 492.706 638.027 483.549 647.005 472.571C647.158 472.384 647.351 472.233 647.57 472.129C647.788 472.026 648.027 471.972 648.269 471.971C648.449 471.971 648.628 472.001 648.799 472.058C649.112 472.17 649.384 472.374 649.578 472.644C649.773 472.913 649.882 473.235 649.889 473.567C649.948 476.018 649.951 478.491 649.889 480.92C650.014 487.969 649.628 495.018 648.734 502.011C646.656 517.949 641.762 532.266 634.201 544.557C627.119 556.051 617.658 565.855 606.086 573.687C584.893 588.062 556.934 595.637 525.244 595.637Z" fill="#CE44A2"/>
<path d="M359.448 469.132C374.94 496.405 439.628 509.765 504.494 509.765C566.515 509.765 628.696 497.557 648.269 473.626C648.327 476.104 648.327 478.54 648.269 480.935C648.403 487.915 648.029 494.894 647.15 501.819C638.644 566.994 584.398 594.012 525.251 594.012C448.388 594.012 363.23 548.426 359.244 481.717C358.996 477.522 359.067 473.313 359.455 469.128M359.455 465.855C359.223 465.856 358.992 465.881 358.765 465.928C358.083 466.076 357.467 466.438 357.005 466.961C356.544 467.485 356.261 468.142 356.2 468.837C355.797 473.189 355.724 477.565 355.982 481.928C356.974 498.579 362.834 514.525 373.393 529.325C383.13 542.965 396.515 555.19 413.178 565.666C428.834 575.506 447.291 583.579 466.559 589.012C485.826 594.445 506.086 597.299 525.251 597.299C557.268 597.299 585.565 589.615 607.023 575.081C618.553 567.359 628.299 557.258 635.607 545.455C643.302 532.965 648.276 518.43 650.383 502.263C651.288 495.199 651.679 488.078 651.553 480.957C651.601 478.514 651.597 476.026 651.553 473.565C651.541 472.893 651.323 472.241 650.928 471.698C650.532 471.155 649.98 470.747 649.345 470.529C648.71 470.311 648.024 470.294 647.379 470.48C646.734 470.666 646.162 471.046 645.74 471.568C636.991 482.263 618.254 491.23 591.552 497.499C566.806 503.317 535.89 506.506 504.494 506.506C471.329 506.506 439.287 502.957 414.271 496.517C387.058 489.514 369.084 479.488 362.289 467.528C362.004 467.026 361.59 466.608 361.091 466.318C360.592 466.027 360.025 465.874 359.448 465.874L359.455 465.855Z" fill="#17091D"/>
<path d="M648.284 480.936C648.413 487.916 648.034 494.895 647.15 501.82C584.362 570.307 420.935 547.769 359.245 481.718C358.996 477.522 359.067 473.314 359.455 469.129C389.757 522.471 608.233 522.583 648.276 473.623C648.33 476.103 648.332 478.541 648.284 480.936Z" fill="#D969BD"/>
</svg>
