<svg width="1000" height="1000" viewBox="0 0 1000 1000" fill="none" xmlns="http://www.w3.org/2000/svg">
<path d="M516.622 979.588C483.45 979.588 437.84 970.297 419.775 966.304C404.428 962.911 389.869 959.184 378.777 955.81C361.177 950.453 359.796 948.33 359.277 947.53C355.008 940.959 347.865 889.166 347.065 883.282L346.789 881.271L492.141 892.45L640.326 906.035L640.359 907.49C640.392 908.991 641.049 944.428 630.592 954.464C620.012 964.613 570.526 979.446 517.054 979.581L516.622 979.588Z" fill="#7E4282"/>
<path d="M348.682 883.061L492.007 894.083L638.717 907.537C638.717 907.537 639.513 943.643 629.452 953.297C619.391 962.952 570.487 977.817 517.051 977.952H516.622C463.085 977.952 364.829 953.072 360.647 946.639C356.465 940.206 348.682 883.061 348.682 883.061ZM344.896 879.486L345.445 883.486C345.463 883.632 347.422 897.985 349.867 912.941C354.914 943.792 357.086 947.123 357.907 948.403C358.598 949.468 359.953 950.745 365.123 952.846C368.393 954.174 372.833 955.694 378.301 957.359C389.434 960.745 404.036 964.486 419.42 967.905C437.543 971.905 483.287 981.225 516.622 981.225H517.077C541.253 981.163 567.264 978.017 590.317 972.37C610.504 967.425 625.989 961.174 631.737 955.643C636.486 951.086 639.643 941.49 641.133 927.115C641.794 920.582 642.086 914.016 642.009 907.45L641.943 904.541L639.037 904.275L492.326 890.821H492.279L348.948 879.795L344.911 879.486H344.896Z" fill="#17091D"/>
<path d="M491.098 510.727C471.006 510.727 446.818 501.614 426.399 486.364C406.692 471.636 394.451 454.138 394.451 440.727C394.451 408.898 425.996 406.262 461.137 406.262C464.625 406.262 468.226 406.287 471.71 406.313C475.264 406.338 478.937 406.364 482.56 406.364C514.358 406.364 556.007 417.498 574.09 438.774C581.423 447.404 584.296 456.956 582.636 467.171C577.989 495.767 533.063 510.727 491.098 510.727Z" fill="#CE44A2"/>
<path d="M461.123 407.898C468.132 407.898 475.337 408 482.56 408C525.796 408 587.2 428.909 581.023 466.909C576.688 493.57 534.342 509.09 491.098 509.09C447.854 509.09 396.086 467.738 396.086 440.727C396.086 410.425 426.109 407.898 461.123 407.898ZM461.123 404.625C441.503 404.625 426.054 405.52 414.322 409.883C407.397 412.458 402.285 416.065 398.699 420.854C394.797 426.083 392.816 432.77 392.816 440.727C392.816 447.901 396.061 456.2 402.198 464.727C407.902 472.643 415.932 480.574 425.418 487.669C435.066 494.887 445.622 500.802 456.814 505.261C468.804 509.989 480.347 512.37 491.098 512.37C513.545 512.37 535.156 508.334 551.956 501.003C560.862 497.12 568.117 492.436 573.524 487.08C579.483 481.181 583.09 474.574 584.249 467.443C585.99 456.73 582.992 446.734 575.337 437.723C556.934 416.058 514.733 404.727 482.56 404.727C478.926 404.727 475.271 404.701 471.721 404.676C468.233 404.65 464.629 404.625 461.138 404.625H461.123Z" fill="#17091D"/>
<path d="M569.396 475.089C565.061 501.751 534.342 523.999 491.098 523.999C447.854 523.999 396.086 482.646 396.086 455.635C396.086 419.271 439.323 422.908 482.559 422.908C525.796 422.908 575.573 437.089 569.396 475.089Z" fill="#9C398C"/>
<path d="M422.78 424.172C439.206 420.489 461.078 421.409 482.56 421.409C504.298 421.409 527.804 424.968 545.163 433.401C553.852 437.622 561.092 443.108 565.76 450.071C570.452 457.07 572.48 465.468 570.877 475.332C566.375 503.022 534.721 525.501 491.098 525.501C469.048 525.501 444.986 514.984 426.478 501.149C417.208 494.22 409.268 486.414 403.633 478.59C398.018 470.795 394.586 462.837 394.586 455.636C394.586 446.222 397.398 439.227 402.452 434.127C407.464 429.068 414.534 426.022 422.78 424.172ZM397.586 455.636C397.586 461.941 400.625 469.281 406.067 476.836C411.49 484.363 419.195 491.96 428.273 498.746C446.459 512.34 469.903 522.501 491.098 522.501C533.962 522.501 563.748 500.483 567.915 474.85C569.4 465.714 567.523 458.089 563.268 451.742C558.989 445.359 552.24 440.174 543.853 436.099C527.059 427.941 504.058 424.409 482.56 424.409C460.805 424.409 439.44 423.511 423.438 427.1C415.47 428.887 409.029 431.751 404.583 436.238C400.179 440.683 397.586 446.869 397.586 455.636Z" fill="#17091D"/>
<path d="M687.919 986.098C683.243 986.098 677.924 983.887 672.783 981.734C671.028 981.007 669.375 980.316 667.816 979.749C665.36 978.854 663.616 978.44 662.323 978.44C662.109 978.439 661.895 978.453 661.683 978.48C661.057 978.568 660.426 978.613 659.794 978.614C656.186 978.614 652.854 977.116 650.881 974.614C650.078 973.613 649.517 972.44 649.242 971.186C648.967 969.932 648.986 968.631 649.297 967.385C649.326 967.276 649.348 967.167 649.37 967.051C650.423 961.563 653.868 945.233 655.768 939.134C656.444 936.953 655.452 933.916 654.402 930.694C653.068 926.593 651.55 921.942 653.417 917.967C653.526 917.738 653.635 917.52 653.748 917.305C656.858 911.353 665.931 899.825 667.947 897.305C667.849 894.996 667.547 886.593 667.813 877.691C668.456 856.142 671.718 852.709 672.794 851.582C673.188 851.133 673.672 850.772 674.214 850.522C674.755 850.271 675.344 850.137 675.94 850.127C679.327 850.127 688.657 846.971 696.124 844.433C701.21 842.702 706.053 841.065 709.058 840.36C710.487 840.019 711.95 839.844 713.418 839.84C717.415 839.84 720.634 841.2 723.228 842.291C725.139 843.098 726.789 843.796 728.268 843.796C728.779 843.799 729.286 843.708 729.765 843.527C730.031 843.43 730.313 843.379 730.597 843.378C732.958 843.378 734.048 846.487 734.957 851.16C735.632 854.647 736.25 859.487 736.773 865.545C737.587 874.683 737.979 883.927 738.059 885.909C740.127 889.673 756.226 919.803 754.046 941.473C753.388 948.04 751.089 953.243 747.212 956.942L746.968 957.167C745.213 958.785 743.437 960.327 741.678 961.76C737.439 965.259 732.878 968.348 728.057 970.985C718.378 976.189 711.936 976.749 709.614 976.749C709.1 976.753 708.586 976.721 708.077 976.651H707.954C707.778 976.656 707.605 976.685 707.438 976.738C706.264 977.076 704.626 978.236 702.714 979.578C699.528 981.833 695.56 984.64 690.724 985.793C689.804 986.002 688.863 986.105 687.919 986.098Z" fill="#CE44A2"/>
<path d="M713.414 841.472C719.98 841.472 724.151 845.425 728.253 845.425C728.958 845.431 729.659 845.308 730.32 845.061C730.404 845.03 730.492 845.014 730.582 845.014C734.942 845.014 736.446 886.374 736.446 886.374C736.446 886.374 754.66 918.919 752.433 941.327C751.859 947.036 749.962 952.083 746.096 955.77L745.864 955.989C744.086 957.625 742.35 959.13 740.657 960.505C736.501 963.943 732.026 966.975 727.294 969.559C718.915 974.065 712.695 975.13 709.625 975.13C709.192 975.134 708.76 975.107 708.331 975.047C708.211 975.029 708.09 975.021 707.968 975.021C707.64 975.025 707.315 975.075 707.001 975.17C703.368 976.214 697.882 982.421 690.357 984.207C689.561 984.389 688.747 984.478 687.93 984.472C682.026 984.472 674.443 980.447 668.383 978.239C666.094 977.403 664.023 976.832 662.333 976.832C662.044 976.831 661.755 976.85 661.469 976.887C660.916 976.965 660.359 977.004 659.801 977.003C654.107 977.003 649.686 972.836 650.892 967.789C650.925 967.654 650.957 967.516 650.983 967.363C652.142 961.334 655.517 945.469 657.334 939.643C659.151 933.818 651.946 924.981 654.903 918.679C654.998 918.479 655.096 918.279 655.201 918.079C658.598 911.578 669.611 897.847 669.611 897.847C669.611 897.847 667.365 851.767 675.947 851.767C681.899 851.767 701.839 843.734 709.439 841.949C710.749 841.636 712.09 841.478 713.436 841.476M713.436 838.203C711.845 838.209 710.261 838.397 708.713 838.763C705.632 839.49 700.774 841.134 695.633 842.879C688.65 845.247 679.09 848.49 675.973 848.49C675.154 848.498 674.347 848.676 673.601 849.013C672.855 849.351 672.188 849.84 671.642 850.45C669.596 852.603 666.806 857.759 666.214 877.639C665.963 886.039 666.214 893.81 666.323 896.759C663.718 900.054 655.343 910.803 652.331 916.559C652.222 916.77 652.109 916.999 651.967 917.261V917.283C649.827 921.847 651.448 926.825 652.879 931.214C653.806 934.054 654.761 936.985 654.238 938.661C652.32 944.818 648.854 961.243 647.8 966.741C647.8 966.741 647.8 966.763 647.8 966.778C647.8 966.792 647.771 966.919 647.753 966.996V967.021C647.383 968.507 647.361 970.058 647.689 971.554C648.016 973.049 648.685 974.449 649.642 975.643C651.924 978.552 655.735 980.265 659.837 980.265C660.547 980.264 661.256 980.214 661.959 980.116C662.095 980.099 662.232 980.09 662.37 980.09C663.46 980.09 665.066 980.487 667.3 981.305C668.826 981.858 670.468 982.541 672.201 983.261C677.492 985.443 682.963 987.73 687.966 987.73C689.037 987.734 690.104 987.612 691.146 987.367C696.305 986.145 700.418 983.236 703.721 980.898C705.348 979.745 707.031 978.552 707.939 978.294H707.997C708.55 978.366 709.107 978.4 709.665 978.396C712.11 978.396 718.875 977.818 728.878 972.439C733.793 969.754 738.441 966.606 742.761 963.039C744.537 961.585 746.343 960.029 748.116 958.392L748.153 958.359L748.392 958.134C752.556 954.159 755.023 948.614 755.721 941.65C756.702 931.832 754.224 919.258 748.363 904.258C745.852 897.834 742.969 891.563 739.727 885.476C739.618 882.865 739.222 874.087 738.448 865.403C737.907 859.29 737.278 854.392 736.591 850.858C736.279 849.054 735.799 847.282 735.16 845.567C734.132 843.021 732.617 841.752 730.633 841.749C730.154 841.749 729.679 841.835 729.23 842.003C728.933 842.115 728.618 842.17 728.3 842.167C727.152 842.167 725.641 841.53 723.896 840.792C721.175 839.643 717.789 838.214 713.462 838.214L713.436 838.203Z" fill="#17091D"/>
<path d="M661.458 976.88C663.275 976.626 665.673 977.244 668.361 978.233C675.29 980.756 684.206 985.655 690.336 984.2C697.86 982.415 703.35 976.2 706.98 975.164C707.41 975.027 707.865 974.984 708.313 975.04C710.613 975.404 717.462 974.829 727.276 969.553C732.009 966.968 736.484 963.936 740.639 960.498C742.335 959.121 744.07 957.616 745.846 955.982L746.078 955.764C749.119 952.811 751.165 947.764 752.415 941.32C754.649 918.913 736.428 886.367 736.428 886.367C736.428 886.367 734.866 843.356 730.302 845.055C724.682 847.153 719.653 839.542 709.411 841.946C701.81 843.731 681.87 851.764 675.919 851.764C667.337 851.764 669.582 897.844 669.582 897.844C669.582 897.844 658.569 911.575 655.172 918.076C655.067 918.276 654.969 918.476 654.874 918.676C657.153 916.593 668.412 906.611 676.7 905.444C685.958 904.142 708.855 903.298 717.07 901.302C725.285 899.306 732.101 910.007 735.018 922.866C736.973 931.451 741.875 942.215 739.473 950.386C738.281 954.451 735.287 957.873 729.234 960.076C728.598 960.309 727.973 960.531 727.367 960.746C718.458 963.855 711.91 965.156 706.704 966.306C701.981 967.346 698.369 968.258 695.077 970.266C689.74 973.538 680.875 979.542 666.737 975.356C662.065 973.971 656.811 971.462 650.921 967.356C650.896 967.509 650.863 967.647 650.831 967.782C649.559 973.313 654.994 977.789 661.458 976.88Z" fill="#9C398C"/>
<path d="M662.403 941.851C662.813 941.131 663.728 940.879 664.448 941.288C671.228 945.144 675.049 950 677.172 953.926C678.231 955.884 678.865 957.606 679.236 958.852C679.422 959.474 679.542 959.979 679.617 960.336C679.655 960.514 679.681 960.656 679.698 960.757C679.707 960.807 679.713 960.847 679.718 960.877C679.72 960.892 679.722 960.904 679.724 960.914C679.724 960.919 679.725 960.922 679.726 960.926C679.726 960.927 679.725 960.929 679.726 960.931L679.727 960.933C679.727 960.933 679.712 960.937 678.24 961.138L679.727 960.935C679.838 961.755 679.264 962.511 678.443 962.623C677.623 962.735 676.866 962.161 676.754 961.34V961.339C676.754 961.337 676.753 961.335 676.753 961.333C676.751 961.32 676.748 961.297 676.742 961.264C676.731 961.198 676.711 961.093 676.682 960.952C676.622 960.67 676.522 960.247 676.361 959.709C676.04 958.633 675.481 957.105 674.533 955.353C672.642 951.856 669.197 947.439 662.966 943.895C662.246 943.486 661.994 942.571 662.403 941.851Z" fill="#17091D"/>
<path d="M670.277 949.11C670.799 948.467 671.743 948.368 672.387 948.889C673.03 949.411 673.128 950.353 672.608 950.997L672.609 950.998C672.608 950.998 672.607 951 672.605 951.003C672.601 951.008 672.594 951.017 672.584 951.029C672.564 951.054 672.533 951.094 672.492 951.147C672.41 951.255 672.286 951.42 672.131 951.637C671.82 952.07 671.382 952.712 670.888 953.526C669.896 955.16 668.689 957.469 667.81 960.179C666.055 965.589 665.641 972.45 670.679 978.874C671.19 979.526 671.076 980.469 670.424 980.98C669.772 981.491 668.83 981.377 668.318 980.725C662.457 973.251 663.014 965.24 664.956 959.253C665.926 956.264 667.248 953.741 668.323 951.97C668.862 951.082 669.343 950.376 669.692 949.888C669.867 949.645 670.009 949.455 670.109 949.324C670.16 949.258 670.199 949.208 670.228 949.172C670.242 949.154 670.254 949.14 670.262 949.13C670.266 949.125 670.269 949.12 670.272 949.117C670.273 949.116 670.274 949.114 670.275 949.113L670.276 949.111C670.28 949.113 670.336 949.158 671.427 950.042L670.277 949.11Z" fill="#17091D"/>
<path d="M701.287 947.864C702.053 947.548 702.929 947.911 703.246 948.677L701.86 949.25C703.241 948.679 703.247 948.676 703.247 948.677V948.678C703.247 948.679 703.248 948.68 703.248 948.682C703.249 948.684 703.251 948.688 703.253 948.692C703.257 948.702 703.263 948.715 703.27 948.732C703.284 948.767 703.305 948.818 703.331 948.884C703.384 949.016 703.461 949.21 703.558 949.458C703.751 949.954 704.023 950.67 704.342 951.56C704.98 953.337 705.808 955.813 706.571 958.605C708.075 964.104 709.416 971.136 708.287 976.442C708.115 977.253 707.318 977.77 706.508 977.598C705.698 977.425 705.181 976.629 705.353 975.818C706.317 971.285 705.177 964.876 703.678 959.396C702.94 956.698 702.137 954.298 701.518 952.573C701.208 951.711 700.946 951.019 700.762 950.545C700.67 950.308 700.596 950.125 700.547 950.003C700.523 949.942 700.505 949.896 700.492 949.866C700.486 949.852 700.481 949.84 700.479 949.833C700.477 949.83 700.475 949.827 700.475 949.825V949.823C700.158 949.058 700.522 948.181 701.287 947.864Z" fill="#17091D"/>
<path d="M724.054 949.211C724.825 948.906 725.696 949.285 726.001 950.055L724.605 950.606C726 950.055 726 950.056 726.001 950.056V950.057C726.001 950.058 726.002 950.059 726.003 950.06C726.004 950.063 726.005 950.067 726.006 950.071C726.01 950.08 726.016 950.093 726.022 950.11C726.035 950.143 726.053 950.191 726.077 950.254C726.124 950.378 726.192 950.559 726.275 950.789C726.442 951.249 726.673 951.909 726.934 952.718C727.455 954.333 728.1 956.557 728.585 958.976C729.068 961.385 729.405 964.048 729.279 966.522C729.154 968.969 728.566 971.439 726.995 973.248C726.451 973.873 725.504 973.939 724.879 973.396C724.253 972.853 724.187 971.906 724.73 971.281C725.665 970.204 726.173 968.524 726.283 966.369C726.391 964.241 726.101 961.85 725.643 959.566C725.187 957.292 724.577 955.184 724.079 953.639C723.83 952.869 723.611 952.242 723.455 951.811C723.377 951.596 723.314 951.429 723.272 951.318C723.251 951.263 723.235 951.221 723.224 951.194C723.219 951.18 723.215 951.17 723.213 951.164C723.212 951.161 723.211 951.159 723.211 951.158L723.21 951.157C722.905 950.386 723.284 949.515 724.054 949.211Z" fill="#17091D"/>
<path d="M738.768 948.705C739.528 948.374 740.411 948.722 740.742 949.482L739.367 950.08C740.742 949.481 740.743 949.482 740.743 949.483V949.484C740.743 949.484 740.745 949.485 740.745 949.486C740.746 949.489 740.747 949.492 740.749 949.495C740.752 949.502 740.756 949.512 740.761 949.524C740.771 949.547 740.784 949.58 740.802 949.622C740.836 949.706 740.884 949.826 740.942 949.978C741.058 950.28 741.216 950.712 741.386 951.241C741.723 952.296 742.117 953.766 742.329 955.396C742.74 958.558 742.523 962.855 739.14 965.57C738.493 966.089 737.55 965.985 737.031 965.339C736.513 964.693 736.617 963.749 737.263 963.231C739.366 961.542 739.731 958.679 739.354 955.782C739.172 954.383 738.829 953.097 738.528 952.155C738.378 951.687 738.24 951.31 738.141 951.053C738.092 950.925 738.053 950.826 738.027 950.763C738.014 950.731 738.005 950.708 737.999 950.694L737.991 950.678H737.992C737.662 949.919 738.009 949.036 738.768 948.705Z" fill="#17091D"/>
<path d="M690.75 969.817C693.358 969.817 695.473 965.177 695.473 959.453C695.473 953.73 693.358 949.09 690.75 949.09C688.141 949.09 686.026 953.73 686.026 959.453C686.026 965.177 688.141 969.817 690.75 969.817Z" fill="#D969BD"/>
<path d="M716.568 959.683C719.095 959.036 720.237 954.963 719.118 950.585C717.999 946.208 715.043 943.183 712.515 943.83C709.988 944.477 708.847 948.551 709.966 952.928C711.085 957.306 714.04 960.33 716.568 959.683Z" fill="#D969BD"/>
<path d="M732.667 952.194C734.85 951.635 735.987 948.706 735.206 945.651C734.426 942.597 732.023 940.573 729.84 941.132C727.656 941.691 726.52 944.621 727.301 947.676C728.081 950.73 730.484 952.753 732.667 952.194Z" fill="#D969BD"/>
<path d="M658.294 876.422C658.294 876.397 658.254 874.029 658.119 870.24C657.64 856.087 655.939 821.767 650.573 808.727C643.695 792 620.66 728.677 620.416 728.04L620.347 727.844V727.637C620.311 727.087 616.678 672.062 615.86 642.218C615.37 624.491 616.074 623.204 616.452 622.513C618.204 619.309 623.872 572.24 627.033 543.32L627.054 543.131L640.774 508C640.97 507.458 641.117 506.9 641.213 506.331C641.439 505.24 641.813 503.371 643.702 503.371C644.245 503.39 644.777 503.536 645.254 503.797C652.662 507.477 670.545 517.397 676.54 530.029C681.969 541.462 692.825 590.193 700.753 625.775C704.455 642.382 707.656 656.727 709.266 662.622C711.42 670.506 713.524 677.738 715.377 684.12C717.884 692.742 719.693 698.971 720.268 702.077C720.446 703.037 721.299 706.255 722.484 710.706C727.665 730.182 739.8 775.807 739.8 799.407C739.8 825.226 742.187 859.157 742.667 865.695L742.874 868.447L658.326 878.022L658.294 876.422Z" fill="#FBDAFA"/>
<path d="M643.702 504.818C644.02 504.842 644.329 504.935 644.607 505.091C651.71 508.618 669.372 518.309 675.228 530.647C683.12 547.273 702.813 644.549 707.863 663.011C712.913 681.473 717.858 697.044 718.839 702.345C719.82 707.647 738.347 770.447 738.347 799.407C738.347 825.156 740.697 858.68 741.217 865.8C741.282 866.684 741.319 867.16 741.319 867.16L674.876 874.684L659.75 876.396C659.75 876.396 659.71 874.04 659.576 870.174C659.093 855.993 657.396 821.447 651.921 808.16C644.97 791.273 621.793 727.527 621.793 727.527C621.793 727.527 618.134 672.324 617.309 642.182C617.022 631.814 617.073 624.404 617.724 623.214C620.267 618.564 628.475 543.484 628.475 543.484L642.129 508.542C642.855 506.702 642.605 504.836 643.702 504.836M643.702 501.927C642.994 501.925 642.3 502.131 641.707 502.519C641.113 502.906 640.646 503.459 640.363 504.109C640.09 504.734 639.898 505.392 639.789 506.065C639.708 506.551 639.587 507.029 639.426 507.494L625.772 542.436L625.63 542.8L625.59 543.185C625.568 543.367 623.552 561.782 621.23 580.687C616.975 615.498 615.504 621.018 615.144 621.88C614.61 622.858 613.901 624.425 614.396 642.28C615.213 672.149 618.85 727.204 618.886 727.756L618.912 728.171L619.053 728.56C619.286 729.196 642.332 792.56 649.21 809.287C654.486 822.105 656.172 856.218 656.648 870.291C656.782 874.084 656.822 876.44 656.822 876.473L656.876 879.673L660.056 879.309L675.181 877.596L741.624 870.073L744.407 869.756L744.196 866.96C744.196 866.96 744.16 866.484 744.095 865.607C743.615 859.08 741.235 825.193 741.232 799.425C741.232 775.633 729.067 729.88 723.872 710.334C722.738 706.08 721.848 702.724 721.692 701.818C721.103 698.636 719.283 692.364 716.765 683.716C714.912 677.342 712.812 670.113 710.661 662.244C709.055 656.378 705.861 642.051 702.166 625.458C693.78 587.825 683.342 540.989 677.848 529.411C675.109 523.64 669.807 517.858 662.09 512.225C656.967 508.542 651.55 505.288 645.893 502.494C645.22 502.138 644.474 501.941 643.713 501.92L643.702 501.927Z" fill="#17091D"/>
<path d="M679.694 899.887C662.345 901.262 653.835 902.127 651.514 897.625C649.657 894.025 648.32 886.207 647.517 880.109C647.372 879.02 647.443 877.913 647.728 876.852C648.013 875.791 648.505 874.797 649.176 873.927C649.847 873.058 650.683 872.33 651.637 871.787C652.591 871.243 653.643 870.894 654.733 870.76L659.58 870.174C659.097 855.993 657.4 821.447 651.924 808.16C644.97 791.273 621.793 727.527 621.793 727.527C621.793 727.527 618.134 672.323 617.31 642.182H650.228C650.228 642.182 645.032 689.629 647.441 727.949C647.482 728.625 647.526 729.298 647.572 729.967C647.702 731.814 647.853 733.633 648.022 735.422C648.542 741.42 649.43 747.38 650.682 753.269C655.768 776.214 666.229 829.763 673.703 868.618C674.102 870.691 674.492 872.717 674.872 874.698C676.776 884.585 678.433 893.273 679.694 899.887Z" fill="#F9B4F9"/>
<path d="M744.058 893.057C737.449 895.065 725.601 897.505 705.828 898.268C695.491 898.668 686.844 899.319 679.693 899.886C662.344 901.261 653.835 902.126 651.513 897.625C649.657 894.025 648.32 886.206 647.517 880.108C647.371 879.019 647.443 877.912 647.727 876.851C648.012 875.79 648.504 874.796 649.175 873.927C649.846 873.057 650.683 872.33 651.637 871.786C652.591 871.242 653.643 870.893 654.733 870.759L659.579 870.174C663.645 869.697 668.456 869.152 673.709 868.603C695.844 866.279 725.815 863.846 740.817 865.737C740.952 865.737 741.086 865.774 741.22 865.799C742.962 866.103 744.567 866.937 745.817 868.188C747.066 869.439 747.9 871.046 748.204 872.788L750.049 883.334C750.412 885.407 750.002 887.542 748.898 889.334C747.794 891.125 746.072 892.45 744.058 893.057Z" fill="#FBDAFA"/>
<path d="M677.783 866.676C699.316 864.506 726.668 862.459 740.944 864.243C741.086 864.25 741.206 864.268 741.288 864.284C741.342 864.293 741.392 864.304 741.425 864.311C741.463 864.319 741.482 864.322 741.499 864.326C743.537 864.686 745.415 865.664 746.878 867.128C748.346 868.597 749.325 870.484 749.682 872.53L751.528 883.076L751.596 883.534C751.889 885.823 751.39 888.148 750.175 890.12C748.879 892.224 746.857 893.78 744.492 894.494C737.732 896.546 725.752 899.001 705.886 899.768C695.58 900.167 686.957 900.815 679.813 901.382H679.812C671.192 902.065 664.61 902.637 659.912 902.458C655.333 902.284 651.767 901.387 650.181 898.313C649.153 896.319 648.322 893.291 647.653 890.113C646.975 886.894 646.434 883.373 646.03 880.304L646.031 880.303C645.86 879.019 645.943 877.714 646.279 876.463C646.615 875.211 647.196 874.037 647.989 873.01C648.781 871.984 649.769 871.125 650.895 870.483C652.021 869.841 653.264 869.429 654.55 869.271L654.553 869.27L659.4 868.685L659.406 868.684C663.475 868.207 668.292 867.662 673.553 867.112L677.783 866.676ZM740.63 867.226C725.836 865.361 696.053 867.766 673.867 870.095H673.866C668.621 870.643 663.819 871.187 659.758 871.662L659.759 871.663L654.915 872.247C654.023 872.357 653.162 872.644 652.38 873.089C651.599 873.535 650.913 874.131 650.363 874.843C649.813 875.556 649.409 876.371 649.176 877.241C648.972 878.001 648.902 878.791 648.967 879.575L649.004 879.91V879.912C649.403 882.942 649.932 886.38 650.588 889.495C651.253 892.65 652.019 895.332 652.847 896.938C653.583 898.365 655.433 899.286 660.026 899.46C664.5 899.631 670.846 899.083 679.576 898.391C686.732 897.823 695.403 897.171 705.771 896.77C725.447 896.01 737.164 893.584 743.622 891.622L743.625 891.621C745.288 891.12 746.71 890.027 747.621 888.547C748.533 887.068 748.871 885.305 748.572 883.592V883.591L746.727 873.047L746.726 873.046C746.475 871.608 745.788 870.281 744.756 869.248C743.725 868.216 742.4 867.527 740.963 867.277L740.953 867.276L740.942 867.273C740.892 867.263 740.844 867.253 740.815 867.247C740.791 867.243 740.776 867.24 740.764 867.238H740.723L740.63 867.226Z" fill="#17091D"/>
<path d="M657.451 720.781L647.564 729.955C647.463 730.047 647.336 730.104 647.201 730.119C647.067 730.133 646.932 730.104 646.816 730.035L646.569 729.886C646.499 729.842 646.439 729.782 646.394 729.712C646.35 729.636 646.321 729.553 646.31 729.466C646.3 729.379 646.307 729.29 646.333 729.206C646.356 729.124 646.398 729.048 646.456 728.985L663.413 710.675C666.906 707.025 669.512 704.6 671.232 703.403C679.963 697.284 689.139 691.829 698.685 687.083C698.798 687.025 698.928 687.014 699.049 687.05C699.169 687.082 699.275 687.155 699.346 687.257C699.422 687.362 699.465 687.487 699.47 687.617C699.475 687.746 699.442 687.874 699.376 687.985C696.389 692.857 690.292 697.075 684.744 700.679C677.899 705.148 670.709 708.766 664.626 714.217C662.204 716.392 659.812 718.58 657.451 720.781Z" fill="#5C2C66"/>
<path d="M680.798 728.266C680.75 728.284 680.7 728.296 680.649 728.303C673.684 729.317 666.156 730.379 660.365 735.015C660.288 735.075 660.201 735.12 660.107 735.145C660.014 735.171 659.916 735.177 659.82 735.165C659.624 735.132 659.448 735.03 659.322 734.877C659.192 734.709 659.12 734.505 659.115 734.293C659.109 734.081 659.172 733.873 659.293 733.699C660.509 732.134 662.103 730.905 663.925 730.128C667.011 728.741 670.434 727.197 674.193 725.495C676.131 724.62 677.948 723.886 679.643 723.292C681.49 722.633 683.279 721.822 684.991 720.866C685.118 720.795 685.215 720.682 685.267 720.546C685.322 720.405 685.331 720.25 685.293 720.103C685.26 719.958 685.178 719.829 685.06 719.739C684.95 719.657 684.812 719.62 684.675 719.637L684.501 719.659C684.324 719.681 684.145 719.64 683.995 719.544C683.845 719.447 683.734 719.301 683.681 719.13C683.628 718.96 683.637 718.776 683.706 718.612C683.775 718.447 683.899 718.312 684.058 718.23L686.474 716.968C686.503 716.95 686.526 716.923 686.539 716.892C686.548 716.857 686.548 716.821 686.539 716.786C686.533 716.751 686.517 716.718 686.492 716.692C686.47 716.667 686.441 716.651 686.408 716.645C686.223 716.633 686.049 716.555 685.918 716.424C685.787 716.293 685.708 716.119 685.697 715.934C685.685 715.749 685.741 715.566 685.855 715.419C685.969 715.273 686.132 715.173 686.314 715.139C693.181 713.91 700.778 713.99 707.024 716.485C709.47 717.448 711.993 718.201 714.567 718.735C715.008 718.834 715.396 719.093 715.657 719.463C715.938 719.855 716.083 720.329 716.071 720.812V721.252C716.069 721.44 716.03 721.627 715.958 721.801C715.89 721.973 715.787 722.128 715.657 722.259C715.534 722.385 715.385 722.483 715.221 722.546C715.06 722.608 714.887 722.63 714.716 722.612C710.491 722.175 707.62 722.041 706.101 722.208C697.452 723.192 688.955 725.226 680.798 728.266Z" fill="#F9B4F9"/>
<path d="M667.055 529.705C667.649 529.128 668.599 529.142 669.176 529.736C669.349 529.95 669.52 530.296 669.552 530.403C669.566 530.46 669.583 530.551 669.588 530.587C669.597 530.65 669.599 530.702 669.6 530.722C669.602 530.768 669.603 530.811 669.603 530.837C669.603 530.895 669.602 530.966 669.6 531.042C669.596 531.198 669.589 531.42 669.578 531.701C669.557 532.264 669.52 533.086 669.469 534.134C669.368 536.231 669.209 539.247 668.993 542.942C668.562 550.332 667.903 560.447 667.024 571.377C665.27 593.182 662.629 618.411 659.137 631.654C658.926 632.455 658.105 632.934 657.304 632.723C656.503 632.511 656.025 631.69 656.236 630.89C659.648 617.951 662.275 592.999 664.033 571.136C664.91 560.232 665.568 550.141 665.998 542.767C666.214 539.081 666.372 536.075 666.473 533.989C666.523 532.946 666.559 532.135 666.58 531.585C666.591 531.309 666.598 531.104 666.601 530.971C666.602 530.902 666.603 530.862 666.603 530.845C666.585 530.432 666.736 530.015 667.055 529.705ZM666.614 530.985C666.615 530.989 666.616 530.994 666.616 530.999C666.614 530.984 666.613 530.97 666.611 530.955C666.613 530.964 666.613 530.975 666.614 530.985Z" fill="#17091D"/>
<path d="M687.471 715.057C688.293 714.952 689.045 715.533 689.15 716.355C689.255 717.177 688.674 717.928 687.853 718.034C683.403 718.604 678.015 720.52 672.368 723.149C666.742 725.768 660.954 729.048 655.726 732.267C650.501 735.484 645.854 738.629 642.513 740.969C640.843 742.139 639.5 743.107 638.577 743.782C638.115 744.119 637.758 744.383 637.517 744.562C637.397 744.652 637.305 744.721 637.244 744.766C637.214 744.789 637.191 744.806 637.176 744.817C637.169 744.823 637.163 744.827 637.16 744.83C637.158 744.831 637.156 744.832 637.156 744.833L637.155 744.834C636.494 745.333 635.552 745.202 635.053 744.541C634.554 743.88 634.685 742.938 635.346 742.439L636.25 743.636C635.385 742.491 635.348 742.441 635.347 742.439L635.348 742.438C635.349 742.437 635.352 742.436 635.354 742.434C635.358 742.431 635.364 742.426 635.372 742.42C635.389 742.407 635.413 742.389 635.445 742.365C635.509 742.317 635.603 742.247 635.727 742.155C635.974 741.971 636.338 741.702 636.807 741.359C637.745 740.674 639.104 739.695 640.791 738.512C644.166 736.148 648.864 732.969 654.153 729.713C659.438 726.458 665.334 723.114 671.102 720.429C676.848 717.754 682.565 715.686 687.471 715.057Z" fill="#17091D"/>
<path d="M533.275 701.817C532.755 701.817 531.574 701.671 476.042 681.453C448.509 671.424 420.816 661.264 420.55 661.162L419.915 660.929L370.621 525.293L383.171 488.362L457.407 517.577L516.165 535.031C530.833 529.551 554.064 520.631 556.8 518.955C558.773 515.053 575.428 484.711 578.887 478.409L579.57 477.162L598.747 487.195L605.091 623.733L604.699 624.177C604.524 624.369 587.331 643.689 570.156 662.762C560.063 673.969 551.954 682.897 546.046 689.308C534.495 701.817 534.154 701.817 533.289 701.817H533.275Z" fill="#FBDAFA"/>
<path d="M580.159 479.097L597.333 488.083L603.612 623.196C603.612 623.196 534.956 700.363 533.285 700.363C531.614 700.363 421.048 659.785 421.048 659.785L372.161 525.261L384.057 490.268L456.93 518.952L516.219 536.548C516.219 536.548 557.447 521.163 557.97 519.854C558.493 518.545 580.159 479.097 580.159 479.097ZM578.985 475.199L577.612 477.697C571.631 488.585 558.355 512.803 555.717 517.876C551.72 519.981 528.227 528.952 516.114 533.483L457.879 516.199L385.121 487.563L382.287 486.446L381.306 489.334L369.411 524.323L369.08 525.294L369.443 526.254L418.315 660.777L418.78 662.05L420.048 662.516C420.325 662.617 448.007 672.774 475.54 682.806C491.712 688.697 504.669 693.392 514.054 696.759C532.199 703.272 532.562 703.272 533.285 703.272C534.716 703.272 535.381 702.687 538.877 699.068C540.824 697.05 543.6 694.094 547.113 690.276C553.025 683.868 561.138 674.934 571.235 663.73C588.414 644.654 605.61 625.33 605.785 625.137L606.569 624.25L606.515 623.068L600.236 487.956L600.156 486.286L598.678 485.512L581.507 476.526L578.985 475.206V475.199Z" fill="#17091D"/>
<path d="M513.184 548.867C513.184 548.871 513.184 548.876 513.185 548.882C513.186 548.895 513.187 548.914 513.189 548.939C513.194 548.989 513.2 549.064 513.208 549.162C513.225 549.36 513.249 549.653 513.28 550.036C513.344 550.803 513.436 551.931 513.552 553.374C513.783 556.261 514.11 560.411 514.487 565.465C515.243 575.573 516.206 589.303 517.037 603.783C517.868 618.261 518.568 633.502 518.795 646.63C519.021 659.709 518.783 670.831 517.696 676.987L514.742 676.466C515.771 670.638 516.023 659.801 515.796 646.682C515.57 633.612 514.872 618.416 514.042 603.956C513.212 589.498 512.25 575.786 511.495 565.689C511.118 560.64 510.793 556.496 510.562 553.614C510.446 552.174 510.354 551.048 510.291 550.283C510.26 549.901 510.235 549.608 510.219 549.411C510.211 549.313 510.204 549.239 510.2 549.19C510.198 549.165 510.196 549.145 510.195 549.133C510.195 549.127 510.195 549.122 510.194 549.119C510.194 549.118 510.194 549.116 510.194 549.115C510.201 549.114 510.297 549.106 511.689 548.988C513.17 548.863 513.183 548.863 513.184 548.863C513.184 548.864 513.184 548.866 513.184 548.867Z" fill="#17091D"/>
<path d="M531.973 599.221C530.296 599.184 528.624 599.012 526.974 598.705C522.886 598.021 522.087 595.585 521.931 594.571C521.535 591.952 523.562 589.116 527.097 587.32C528.203 586.762 529.424 586.471 530.662 586.469C532.262 586.467 533.825 586.957 535.138 587.872C538.597 590.276 538.931 592.658 538.597 594.236C537.87 597.636 535.778 599.221 531.973 599.221Z" fill="#7E4282"/>
<path d="M530.669 588.105C531.937 588.105 533.175 588.493 534.216 589.217C535.829 590.337 537.413 591.967 537.006 593.901C536.454 596.534 535.069 597.585 531.981 597.585C530.394 597.545 528.812 597.38 527.25 597.09C521.746 596.174 522.676 591.392 527.843 588.781C528.719 588.337 529.687 588.106 530.669 588.105ZM530.669 584.832C529.175 584.835 527.702 585.187 526.368 585.861C522.189 587.97 519.828 591.487 520.322 594.817C520.758 597.665 523.145 599.723 526.713 600.319C528.451 600.641 530.213 600.821 531.981 600.857C536.563 600.857 539.331 598.745 540.207 594.574C540.57 592.883 540.498 589.596 536.079 586.527C534.492 585.421 532.604 584.829 530.669 584.832Z" fill="#17091D"/>
<path d="M531.973 666.858C530.296 666.821 528.624 666.648 526.974 666.342C522.886 665.658 522.087 663.222 521.931 662.207C521.535 659.589 523.562 656.753 527.097 654.956C528.203 654.399 529.424 654.107 530.662 654.105C532.262 654.104 533.825 654.594 535.138 655.509C538.597 657.913 538.931 660.295 538.597 661.873C537.87 665.273 535.778 666.858 531.973 666.858Z" fill="#7E4282"/>
<path d="M530.669 655.741C531.937 655.742 533.175 656.13 534.216 656.854C535.829 657.974 537.413 659.603 537.006 661.538C536.454 664.171 535.069 665.221 531.981 665.221C530.394 665.182 528.812 665.017 527.25 664.727C521.746 663.811 522.676 659.029 527.843 656.418C528.719 655.974 529.687 655.742 530.669 655.741ZM530.669 652.469C529.175 652.471 527.702 652.824 526.368 653.498C522.189 655.607 519.828 659.123 520.322 662.454C520.758 665.301 523.145 667.36 526.713 667.956C528.451 668.277 530.213 668.457 531.981 668.494C536.563 668.494 539.331 666.382 540.207 662.211C540.57 660.52 540.498 657.232 536.079 654.163C534.492 653.057 532.604 652.466 530.669 652.469Z" fill="#17091D"/>
<path d="M566.527 955.134C566.285 955.134 566.056 955.134 565.84 955.134C559.166 954.879 551.736 948.177 543.753 935.21C537.391 924.865 531.974 912.727 528.533 904.363C528.46 904.168 528.328 904 528.155 903.883C527.983 903.766 527.779 903.705 527.57 903.708C527.471 903.709 527.372 903.723 527.276 903.748C527.101 903.793 526.941 903.884 526.813 904.012C526.685 904.14 526.594 904.3 526.549 904.476C521.241 921.883 508.281 935.516 498.344 943.89C497.686 944.447 497.01 944.981 496.338 945.472C491.909 948.748 486.856 951.079 481.491 952.322C476.125 953.564 470.562 953.692 465.146 952.697L434.114 946.992H434.045C400.676 939.41 374.592 923.588 358.62 901.243C351.08 890.717 345.834 878.724 343.222 866.039C340.599 853.407 340.483 840.087 342.884 826.454C347.724 798.967 344.37 768.319 340.704 747.447C336.726 724.803 331.545 708.501 331.49 708.337C331.399 708.053 331.388 707.748 331.457 707.457L348.614 635.581C349.232 632.719 349.784 629.796 350.242 626.93C356.953 584.992 345.13 550.421 334.033 528.807C321.967 505.287 308.16 491.574 308.008 491.436C307.815 491.247 307.672 491.013 307.591 490.755C307.51 490.497 307.495 490.224 307.546 489.958C307.597 489.693 307.713 489.445 307.884 489.236C308.055 489.026 308.274 488.863 308.524 488.759L383.429 457.537C383.627 457.453 383.841 457.41 384.057 457.41C384.375 457.411 384.685 457.503 384.951 457.677C385.216 457.851 385.426 458.098 385.554 458.388C385.772 458.883 407.587 508.436 443.582 564.723C476.827 616.723 521.394 660.21 528.417 666.934C562.501 637.53 579.774 567.81 584.167 534.727C589.003 498.308 580.333 469.923 580.246 469.636C580.147 469.322 580.145 468.985 580.24 468.67C580.336 468.355 580.524 468.076 580.781 467.87C581.037 467.664 581.35 467.54 581.678 467.515C582.006 467.49 582.334 467.565 582.619 467.73L642.736 502.276C643.026 502.444 643.257 502.698 643.397 503.003C643.554 503.334 647.314 511.345 653.974 536.116C658.018 551.152 657.971 568.534 657.934 585.341C657.909 596.614 657.883 607.25 659.111 616.356C662.251 639.577 643.245 711.967 635.655 737.901C631.008 753.788 633.918 779.694 636.512 797.796C637.965 807.977 639.691 818.01 641.355 827.73L641.817 830.41C643.078 837.777 644.393 845.523 645.327 852.167C645.683 854.724 646.023 857.135 646.348 859.399C650.17 886.308 651.325 894.432 646.438 908.719C642.751 919.487 618.934 933.748 611.722 937.861C597.763 945.836 577.55 955.134 566.527 955.134Z" fill="#CE44A2"/>
<path d="M384.057 459.047C384.057 459.047 405.715 508.545 442.19 565.593C476.383 619.036 522.087 663.171 527.766 668.574L528.129 668.916L528.355 669.127C562.337 640.982 580.842 572.182 585.787 534.945C590.732 497.709 581.79 469.156 581.79 469.156L641.907 503.72C641.907 503.72 645.697 511.636 652.393 536.549C659.089 561.462 654.417 593.818 657.48 616.582C660.543 639.345 642.063 710.182 634.07 737.454C629.768 752.163 631.581 775.022 634.88 798.043C636.475 809.193 638.423 820.382 640.189 830.702C641.54 838.578 642.783 845.949 643.691 852.411C648.24 884.818 650.042 893.098 644.876 908.203C639.764 923.142 585.503 953.505 566.512 953.505C566.298 953.505 566.09 953.505 565.887 953.505C551.859 952.974 536.519 919.567 530.03 903.745C529.834 903.249 529.493 902.824 529.051 902.526C528.61 902.228 528.088 902.071 527.555 902.076C527.31 902.076 527.066 902.108 526.829 902.171C526.387 902.286 525.983 902.515 525.655 902.833C525.328 903.152 525.089 903.55 524.961 903.989C519.849 920.742 507.521 933.985 497.264 942.629C496.639 943.157 496 943.662 495.346 944.142C491.097 947.286 486.248 949.524 481.099 950.717C475.95 951.91 470.612 952.032 465.414 951.076L434.382 945.371C365.182 929.625 335.047 880.363 344.493 826.698C353.94 773.033 333.048 707.789 333.048 707.789L350.205 635.913C350.845 632.953 351.394 630.028 351.855 627.138C364.996 545.018 309.152 490.269 309.152 490.269L362.606 468L384.042 459.058M384.042 455.785C383.611 455.785 383.184 455.87 382.785 456.036L361.348 464.978L307.895 487.247C307.396 487.455 306.956 487.783 306.615 488.202C306.274 488.621 306.042 489.119 305.94 489.65C305.838 490.181 305.869 490.729 306.03 491.245C306.191 491.761 306.477 492.229 306.863 492.607C307.001 492.742 320.706 506.345 332.634 529.622C343.589 551 355.259 585.182 348.621 626.633C348.17 629.454 347.629 632.338 347.011 635.2L329.869 707.04C329.73 707.621 329.753 708.23 329.935 708.8C329.986 708.96 335.156 725.236 339.112 747.793C342.746 768.52 346.063 798.909 341.274 826.131C338.836 839.971 338.953 853.494 341.619 866.334C344.278 879.242 349.617 891.446 357.29 902.156C373.502 924.833 399.916 940.876 433.685 948.549L433.815 948.574L464.848 954.28C470.486 955.317 476.276 955.185 481.861 953.892C487.446 952.598 492.706 950.171 497.315 946.76C498.005 946.251 498.71 945.698 499.397 945.116C509.207 936.847 521.924 923.505 527.628 906.447C531.101 914.785 536.308 926.225 542.361 936.058C550.765 949.709 558.424 956.48 565.778 956.756C566.021 956.756 566.272 956.756 566.526 956.756C571.497 956.756 578.473 955.007 587.258 951.553C595.961 948.061 604.406 943.958 612.532 939.276C621.299 934.276 629.143 929.029 635.218 924.105C642.271 918.389 646.565 913.389 647.982 909.243C652.996 894.585 651.728 885.658 647.982 859.163C647.658 856.894 647.316 854.485 646.958 851.934C646.02 845.262 644.705 837.502 643.44 830.116L642.979 827.411C641.315 817.713 639.596 807.683 638.147 797.545C635.574 779.593 632.697 753.909 637.238 738.342C641.598 723.476 648.051 699.291 653.141 676C659.58 646.545 662.138 626.411 660.746 616.116C659.533 607.123 659.558 596.538 659.583 585.327C659.623 568.414 659.667 550.92 655.565 535.673C648.869 510.76 645.046 502.614 644.887 502.28C644.6 501.681 644.139 501.184 643.564 500.854L583.447 466.291C582.953 466.004 582.391 465.853 581.819 465.854C581.306 465.854 580.8 465.975 580.342 466.207C579.884 466.439 579.487 466.775 579.184 467.189C578.88 467.603 578.677 468.083 578.593 468.589C578.509 469.096 578.545 469.615 578.698 470.105C578.72 470.174 580.878 477.236 582.448 488.651C584.494 503.852 584.532 519.257 582.56 534.469C579.654 556.422 573.048 582.509 564.913 604.258C554.707 631.531 542.147 652.342 528.478 664.669C518.832 655.331 476.718 613.44 444.973 563.803C409.054 507.636 387.283 458.185 387.065 457.694C386.81 457.112 386.392 456.616 385.86 456.268C385.328 455.92 384.707 455.735 384.071 455.734L384.042 455.785Z" fill="#17091D"/>
<path d="M529.197 667.061C528.881 667.701 528.524 668.321 528.129 668.915C527.295 670.217 526.263 671.38 525.07 672.363C523.006 674.006 520.263 674.908 517.044 672.934C509.755 668.439 463.303 617.817 442.997 588.777C422.69 559.737 387.73 485.09 382.491 475.272C379.497 469.668 370.108 468.203 362.605 467.981L384.042 459.039C384.042 459.039 405.7 508.537 442.175 565.585C476.383 619.035 522.087 663.17 527.766 668.574C528.296 667.846 528.754 667.232 529.114 666.755L529.197 667.061Z" fill="#D969BD"/>
<path d="M528.802 664.682C529.319 664.035 530.263 663.928 530.91 664.444C531.518 664.928 531.649 665.788 531.238 666.428L531.148 666.553C531.147 666.553 531.147 666.554 531.146 666.555C531.144 666.557 531.14 666.561 531.136 666.566C531.127 666.577 531.114 666.594 531.096 666.617C531.06 666.663 531.006 666.733 530.935 666.825C530.792 667.009 530.582 667.284 530.315 667.64L530.311 667.644C529.956 668.114 529.503 668.723 528.978 669.443C528.213 670.495 527.296 671.772 526.317 673.208H526.316C524.196 676.313 521.778 680.108 519.87 683.811C517.933 687.571 516.637 691.024 516.548 693.507V693.508C516.383 698.104 516.557 723.799 516.686 750.661C516.815 777.463 516.899 805.409 516.548 814.381C516.211 823.008 517.021 839.86 518.988 857.085C520.959 874.351 524.065 891.743 528.235 901.565L528.238 901.572C528.418 902.003 528.602 902.417 528.789 902.816C529.141 903.566 528.819 904.46 528.069 904.811C527.319 905.163 526.425 904.841 526.074 904.091C525.869 903.656 525.669 903.206 525.473 902.737C521.115 892.472 517.977 874.685 516.007 857.426C514.032 840.125 513.204 823.105 513.55 814.264C513.897 805.376 513.815 777.525 513.686 750.676C513.557 723.886 513.381 698.076 513.55 693.399C513.665 690.202 515.246 686.238 517.203 682.437C519.191 678.579 521.685 674.67 523.838 671.516C524.842 670.045 525.778 668.74 526.553 667.676L526.554 667.675C527.088 666.943 527.549 666.323 527.913 665.841C528.191 665.471 528.411 665.184 528.563 664.988C528.638 664.89 528.697 664.815 528.738 664.764C528.758 664.738 528.774 664.718 528.784 664.704C528.79 664.697 528.794 664.692 528.797 664.688C528.799 664.687 528.8 664.685 528.801 664.683L528.802 664.682Z" fill="#17091D"/>
<path d="M454.107 848.407C453.406 848.405 452.707 848.32 452.025 848.152L380.561 830.727C378.456 830.222 376.614 828.951 375.393 827.162C374.172 825.373 373.66 823.193 373.956 821.047L376.212 804.221C376.499 802.121 377.534 800.195 379.127 798.799C380.72 797.402 382.764 796.629 384.881 796.621C385.596 796.622 386.309 796.708 387.003 796.879L458.616 814.697C460.728 815.217 462.569 816.508 463.779 818.316C464.989 820.124 465.48 822.32 465.156 824.472L462.751 840.916C462.437 842.99 461.394 844.884 459.81 846.257C458.225 847.63 456.203 848.392 454.107 848.407Z" fill="#7E4282"/>
<path d="M384.882 798.258C385.464 798.257 386.043 798.328 386.608 798.469L458.221 816.287C459.937 816.714 461.433 817.764 462.418 819.233C463.403 820.702 463.807 822.486 463.551 824.236L461.146 840.684C461.002 841.664 460.655 842.603 460.128 843.442C459.601 844.281 458.905 845 458.084 845.555C457.264 846.109 456.337 846.486 455.362 846.662C454.388 846.837 453.388 846.808 452.426 846.575L380.965 829.149C379.256 828.733 377.762 827.698 376.769 826.244C375.777 824.791 375.358 823.021 375.592 821.276L377.848 804.447C378.077 802.738 378.918 801.17 380.214 800.033C381.51 798.897 383.173 798.269 384.897 798.265M384.897 794.993C382.383 795.001 379.957 795.919 378.067 797.576C376.176 799.233 374.947 801.519 374.607 804.011L372.351 820.836C372.004 823.383 372.614 825.968 374.063 828.091C375.511 830.214 377.695 831.723 380.191 832.327L451.652 849.753C453.058 850.095 454.52 850.14 455.944 849.884C457.368 849.628 458.724 849.077 459.923 848.267C461.123 847.457 462.14 846.405 462.91 845.179C463.679 843.952 464.185 842.579 464.394 841.146L466.799 824.702C467.182 822.146 466.597 819.539 465.159 817.393C463.72 815.247 461.532 813.716 459.024 813.102L387.411 795.284C386.589 795.078 385.744 794.974 384.897 794.975V794.993Z" fill="#17091D"/>
<path d="M640.203 830.694C629.648 834.538 611.863 840.8 604.008 842.331C592.468 844.56 588.446 849.629 586.64 838.185C585.864 833.101 585.457 827.968 585.423 822.825C585.407 821.069 585.953 819.353 586.98 817.929C588.008 816.504 589.464 815.446 591.135 814.909C601.948 811.425 625.532 803.531 634.895 798.051C636.49 809.185 638.43 820.364 640.203 830.694Z" fill="#7E4282"/>
<path d="M636.38 797.838C637.971 808.948 639.908 820.104 641.682 830.44L641.894 831.675L640.716 832.104C630.209 835.929 612.294 842.244 604.295 843.803L604.292 843.804C601.492 844.345 599.144 845.058 597.111 845.669C595.149 846.259 593.304 846.816 591.738 846.884C590.919 846.919 590.091 846.828 589.303 846.495C588.5 846.156 587.833 845.606 587.286 844.865C586.245 843.455 585.615 841.313 585.158 838.419L585.157 838.412C584.37 833.257 583.958 828.05 583.923 822.835L583.924 822.834C583.906 820.759 584.55 818.733 585.764 817.051C586.978 815.367 588.699 814.117 590.675 813.481L592.842 812.779C598.214 811.029 605.699 808.519 613.041 805.82C621.469 802.723 629.586 799.419 634.137 796.756L636.063 795.629L636.38 797.838ZM633.725 800.407C628.786 802.989 621.451 805.926 614.076 808.637C605.631 811.741 597.01 814.592 591.595 816.337H591.594C590.228 816.776 589.038 817.642 588.197 818.807C587.357 819.971 586.91 821.375 586.923 822.812V822.815C586.957 827.883 587.358 832.942 588.122 837.951L588.294 838.952C588.706 841.147 589.191 842.394 589.7 843.084C589.965 843.442 590.22 843.626 590.471 843.732C590.736 843.844 591.092 843.909 591.609 843.887C592.717 843.839 594.155 843.425 596.248 842.796C598.27 842.188 600.753 841.432 603.721 840.858C611.154 839.41 627.822 833.586 638.512 829.71C636.912 820.396 635.195 810.409 633.725 800.407Z" fill="#17091D"/>
<path d="M543.055 705.036L542.099 702.658C541.727 701.681 541.164 700.788 540.446 700.03C539.727 699.272 538.865 698.663 537.91 698.24C536.996 697.848 536.007 697.663 535.014 697.697C534.02 697.732 533.047 697.985 532.162 698.44L529.67 699.705C528.752 700.173 527.94 700.824 527.283 701.618C526.599 702.445 526.074 703.392 525.735 704.41C525.029 706.514 525.092 708.8 525.913 710.861L526.872 713.24C527.245 714.216 527.807 715.109 528.526 715.867C529.245 716.625 530.107 717.234 531.061 717.658C531.975 718.05 532.965 718.234 533.958 718.199C534.952 718.164 535.925 717.91 536.809 717.454L539.302 716.192C540.217 715.722 541.027 715.071 541.685 714.28C542.371 713.453 542.898 712.506 543.237 711.487C543.944 709.383 543.879 707.096 543.055 705.036ZM540.937 712.432C539.269 714.44 535.461 717.654 532.922 716.301C529.601 714.539 527.663 711.728 527.108 707.869C526.861 706.196 527.13 704.84 527.911 703.789C530.438 700.419 533.344 698.818 536.631 698.985C537.063 699.01 537.478 699.159 537.827 699.414C540.249 701.152 541.528 704.086 541.663 708.214C541.743 710.35 541.501 711.756 540.937 712.432Z" fill="#17091D"/>
<path d="M537.831 699.414C540.253 701.152 541.532 704.085 541.667 708.214C541.745 710.347 541.503 711.753 540.941 712.432C539.273 714.439 535.465 717.654 532.926 716.301C529.605 714.538 527.667 711.728 527.112 707.868C526.865 706.195 527.134 704.839 527.915 703.788C530.442 700.418 533.348 698.817 536.635 698.985C537.067 699.009 537.482 699.158 537.831 699.414Z" fill="#CE44A2"/>
<path d="M543.469 766.956C542.953 765.716 542.192 764.594 541.231 763.657C540.27 762.719 539.129 761.986 537.878 761.502C536.657 761.055 535.354 760.878 534.058 760.982C532.763 761.086 531.505 761.469 530.371 762.105C527.954 763.481 526.155 765.733 525.346 768.396C524.479 771.118 524.622 774.062 525.75 776.687C526.264 777.927 527.024 779.05 527.985 779.988C528.945 780.925 530.086 781.658 531.338 782.142C532.559 782.589 533.862 782.767 535.159 782.663C536.455 782.559 537.714 782.175 538.848 781.538C541.265 780.162 543.062 777.911 543.869 775.247C544.737 772.525 544.595 769.582 543.469 766.956ZM541.678 771.862C541.678 771.967 541.678 772.076 541.678 772.182C541.678 772.287 541.678 772.393 541.66 772.494C541.631 772.912 541.57 773.326 541.478 773.734C541.478 773.807 541.446 773.88 541.427 773.949C541.409 774.018 541.398 774.076 541.38 774.138C541.362 774.2 541.326 774.334 541.293 774.433C541.26 774.531 541.228 774.64 541.191 774.738C541.155 774.836 541.119 774.942 541.079 775.04C541.039 775.138 540.999 775.236 540.955 775.334C540.662 776.012 540.277 776.646 539.811 777.218C539.734 777.309 539.658 777.4 539.578 777.487C539.498 777.574 539.411 777.673 539.324 777.76L539.055 778.018L538.779 778.262C538.684 778.342 538.59 778.418 538.492 778.491L538.23 778.68C538.204 778.701 538.176 778.719 538.147 778.734C538.059 778.793 537.972 778.851 537.885 778.902C537.798 778.953 537.674 779.025 537.569 779.083L537.285 779.229C537.151 779.294 537.017 779.356 536.879 779.407C536.74 779.458 536.682 779.487 536.581 779.52C536.479 779.553 536.348 779.6 536.217 779.636L535.981 779.702C535.905 779.702 535.825 779.742 535.745 779.756C535.665 779.771 535.596 779.789 535.52 779.8L535.382 779.825C535.251 779.847 535.12 779.862 534.989 779.873C534.698 779.902 534.406 779.912 534.114 779.902C533.798 779.89 533.483 779.856 533.172 779.8C533.016 779.771 532.864 779.738 532.711 779.698L532.497 779.64C532.184 779.55 531.879 779.436 531.585 779.298L531.399 779.211C530.942 778.984 530.51 778.707 530.113 778.385C530.03 778.32 529.953 778.254 529.873 778.185L529.841 778.156C529.663 778 529.477 777.833 529.328 777.658C529.245 777.567 529.161 777.473 529.081 777.378L528.852 777.094C528.78 776.996 528.707 776.898 528.638 776.796C528.569 776.694 528.5 776.589 528.435 776.48L528.242 776.16C528.184 776.047 528.122 775.938 528.068 775.822C528.013 775.705 527.959 775.593 527.908 775.458C527.857 775.324 527.81 775.229 527.766 775.094C527.722 774.96 527.668 774.833 527.624 774.698C527.581 774.564 527.552 774.465 527.519 774.334C527.486 774.204 527.45 774.084 527.421 773.971C527.392 773.858 527.356 773.669 527.33 773.513C527.327 773.493 527.327 773.474 527.33 773.454C527.258 773.029 527.218 772.599 527.21 772.167C527.21 772.025 527.21 771.883 527.21 771.742V771.476L527.232 771.211C527.232 771.124 527.232 771.036 527.261 770.945C527.29 770.681 527.334 770.419 527.392 770.16C527.392 770.084 527.425 770.007 527.443 769.931C527.486 769.76 527.534 769.589 527.584 769.422C527.679 769.114 527.791 768.813 527.922 768.52C528.006 768.327 528.097 768.134 528.198 767.949V767.923C528.246 767.836 528.293 767.753 528.344 767.669C528.395 767.585 528.442 767.498 528.496 767.414V767.393C528.547 767.305 528.605 767.222 528.664 767.138C528.776 766.971 528.9 766.807 529.027 766.651C529.1 766.563 529.169 766.48 529.245 766.396C529.321 766.313 529.372 766.254 529.441 766.185C529.485 766.133 529.533 766.083 529.583 766.036C529.637 765.982 529.692 765.927 529.75 765.876C529.942 765.691 530.146 765.519 530.36 765.36C530.451 765.291 530.546 765.225 530.64 765.16C530.735 765.094 530.818 765.04 530.909 764.985L531.127 764.854L531.189 764.818C531.272 764.771 531.359 764.727 531.447 764.684C531.534 764.64 531.636 764.589 531.73 764.549C531.825 764.509 531.915 764.465 532.01 764.429H532.043C532.132 764.39 532.222 764.356 532.315 764.327L532.62 764.229C532.849 764.161 533.082 764.106 533.318 764.065L533.456 764.04C533.587 764.018 533.717 764.003 533.852 763.993C534.142 763.963 534.433 763.953 534.724 763.964C535.198 763.982 535.67 764.051 536.13 764.167L536.355 764.229C536.662 764.32 536.962 764.433 537.253 764.567L537.42 764.644C537.999 764.934 538.537 765.301 539.019 765.734L539.218 765.923C539.32 766.022 539.422 766.123 539.516 766.225C539.611 766.327 539.68 766.407 539.76 766.502C539.84 766.596 539.909 766.684 539.978 766.774L540.01 766.818C540.079 766.909 540.145 767.004 540.21 767.098C540.276 767.193 540.348 767.305 540.414 767.411C540.479 767.516 540.541 767.625 540.606 767.734C540.664 767.844 540.726 767.956 540.781 768.069C540.835 768.182 540.89 768.298 540.941 768.433C540.991 768.567 541.031 768.647 541.075 768.756C541.119 768.865 541.18 769.033 541.224 769.174C541.268 769.316 541.297 769.407 541.329 769.538C541.362 769.669 541.398 769.789 541.427 769.902C541.457 770.014 541.489 770.193 541.515 770.338C541.516 770.373 541.516 770.408 541.515 770.443C541.564 770.731 541.598 771.021 541.616 771.313C541.618 771.343 541.618 771.373 541.616 771.403C541.616 771.556 541.616 771.705 541.616 771.858L541.678 771.862Z" fill="#17091D"/>
<path d="M536.221 779.636C540.097 778.501 542.441 774.134 541.453 769.88C540.464 765.625 536.522 763.098 532.645 764.232C528.769 765.367 526.429 769.734 527.413 773.985C528.398 778.236 532.337 780.77 536.221 779.636Z" fill="#CE44A2"/>
<path d="M544.279 834.361C543.837 833.149 543.171 832.032 542.317 831.066C541.5 830.138 540.501 829.388 539.381 828.862C538.297 828.354 537.113 828.089 535.915 828.088C534.698 828.101 533.498 828.373 532.394 828.887C531.29 829.4 530.308 830.143 529.513 831.066C527.802 833.069 526.861 835.618 526.861 838.253C526.861 840.889 527.802 843.438 529.513 845.441C530.309 846.363 531.291 847.105 532.394 847.619C533.498 848.132 534.698 848.405 535.915 848.419C537.113 848.415 538.296 848.151 539.381 847.644C540.5 847.118 541.499 846.368 542.317 845.441C543.171 844.473 543.836 843.355 544.279 842.142C545.2 839.63 545.2 836.873 544.279 834.361ZM543.251 839.452C543.251 839.593 543.215 839.732 543.193 839.873C543.138 840.207 543.064 840.537 542.971 840.862C542.939 840.972 542.906 841.081 542.869 841.19C542.861 841.218 542.852 841.246 542.84 841.273C542.804 841.379 542.768 841.481 542.724 841.582C542.659 841.761 542.582 841.946 542.499 842.11C542.444 842.226 542.386 842.339 542.328 842.448C542.27 842.557 542.234 842.622 542.183 842.706C542.072 842.897 541.95 843.081 541.819 843.259C541.772 843.328 541.725 843.393 541.674 843.459C541.561 843.612 541.442 843.757 541.311 843.899L541.194 844.03L540.98 844.248C540.893 844.332 540.806 844.415 540.715 844.495C540.442 844.737 540.152 844.958 539.847 845.157C539.745 845.222 539.643 845.284 539.538 845.342C539.432 845.401 539.331 845.459 539.225 845.513L538.945 845.648C538.673 845.768 538.392 845.87 538.106 845.953C538.033 845.978 537.959 845.998 537.885 846.015C537.576 846.096 537.261 846.153 536.943 846.186L536.704 846.208C536.547 846.208 536.388 846.208 536.224 846.208C536.061 846.208 535.941 846.208 535.799 846.208C535.657 846.208 535.534 846.186 535.399 846.172C535.265 846.157 535.181 846.142 535.072 846.121L534.92 846.092C534.822 846.076 534.725 846.056 534.629 846.03L534.306 845.942C534.189 845.91 534.073 845.87 533.942 845.83C533.833 845.79 533.721 845.75 533.612 845.702C533.503 845.655 533.383 845.608 533.27 845.553C533.158 845.499 533.07 845.459 532.972 845.404C532.874 845.35 532.732 845.277 532.609 845.204C532.485 845.132 532.395 845.073 532.293 845.004L532.038 844.822C531.915 844.735 531.799 844.641 531.675 844.546C531.552 844.452 531.486 844.386 531.395 844.302C531.305 844.219 531.206 844.132 531.116 844.041C531.025 843.95 530.938 843.859 530.85 843.764C530.675 843.575 530.51 843.376 530.356 843.168L530.142 842.873L530.116 842.833L529.92 842.532C529.851 842.422 529.786 842.31 529.72 842.193C529.655 842.077 529.601 841.972 529.542 841.855C529.484 841.739 529.423 841.615 529.372 841.492C529.274 841.273 529.186 841.052 529.106 840.826C528.944 840.361 528.822 839.883 528.743 839.397C528.743 839.313 528.714 839.23 528.703 839.146C528.692 839.062 528.674 838.939 528.663 838.833C528.652 838.728 528.663 838.641 528.638 838.542C528.636 838.533 528.636 838.523 528.638 838.513C528.621 838.2 528.621 837.885 528.638 837.572C528.638 837.462 528.638 837.357 528.638 837.252C528.638 837.146 528.659 836.99 528.674 836.859C528.716 836.491 528.783 836.127 528.874 835.768C528.878 835.736 528.885 835.704 528.896 835.673C528.925 835.568 528.954 835.462 528.987 835.357L529.008 835.288C529.034 835.208 529.059 835.132 529.088 835.052C529.117 834.972 529.143 834.895 529.172 834.819C529.201 834.742 529.223 834.684 529.252 834.619C529.303 834.495 529.357 834.372 529.415 834.255C529.473 834.139 529.528 834.026 529.586 833.917C529.644 833.808 529.71 833.695 529.775 833.586C529.84 833.477 529.906 833.372 529.978 833.266L530.193 832.961L530.4 832.695C530.404 832.684 530.412 832.675 530.422 832.67C530.494 832.582 530.563 832.499 530.636 832.419L530.734 832.313C530.796 832.248 530.858 832.182 530.923 832.121C530.988 832.059 531.101 831.95 531.192 831.87L531.464 831.633L531.726 831.433C531.906 831.302 532.093 831.181 532.286 831.07C532.344 831.037 532.402 831.001 532.464 830.972C532.525 830.942 532.66 830.866 532.758 830.815L532.98 830.713C533.246 830.595 533.52 830.495 533.801 830.415C533.873 830.391 533.947 830.37 534.022 830.353C534.331 830.273 534.646 830.216 534.963 830.182L535.203 830.161C535.363 830.161 535.523 830.142 535.683 830.142C535.843 830.142 535.966 830.142 536.108 830.142C536.25 830.142 536.377 830.164 536.511 830.179H536.544L536.824 830.222L536.976 830.252C537.075 830.267 537.174 830.288 537.271 830.313C537.38 830.339 537.485 830.368 537.59 830.401C537.696 830.433 537.826 830.47 537.954 830.51C538.186 830.591 538.414 830.685 538.637 830.79L538.967 830.957C539.079 831.015 539.188 831.077 539.294 831.142C539.461 831.244 539.625 831.35 539.785 831.462L539.981 831.608C540.163 831.746 540.344 831.892 540.508 832.044C540.602 832.128 540.693 832.215 540.784 832.306C540.875 832.397 540.966 832.488 541.049 832.582C541.133 832.677 541.213 832.764 541.289 832.855C541.312 832.879 541.332 832.905 541.351 832.932C541.42 833.012 541.482 833.095 541.547 833.179C541.612 833.262 541.667 833.339 541.725 833.422L541.834 833.586C541.836 833.594 541.836 833.603 541.834 833.612C541.885 833.681 541.928 833.75 541.972 833.822C542.016 833.895 542.103 834.041 542.168 834.153C542.23 834.262 542.288 834.375 542.346 834.492C542.531 834.858 542.688 835.237 542.819 835.626C542.855 835.735 542.891 835.848 542.924 835.961C542.957 836.073 542.982 836.164 543.008 836.266C543.062 836.481 543.109 836.695 543.146 836.913C543.182 837.132 543.207 837.306 543.229 837.506C543.229 837.612 543.251 837.713 543.258 837.819C543.287 838.241 543.287 838.665 543.258 839.088C543.273 839.219 543.262 839.328 543.236 839.437L543.251 839.452Z" fill="#17091D"/>
<path d="M539.295 831.149C535.683 828.967 531.258 830.371 529.412 834.247C527.566 838.123 529.005 843.025 532.617 845.192C536.228 847.36 540.657 845.971 542.499 842.094C544.341 838.218 542.91 833.316 539.295 831.149Z" fill="#CE44A2"/>
<path d="M495.372 944.128C491.122 947.272 486.273 949.51 481.125 950.703C475.976 951.896 470.638 952.018 465.44 951.062L434.408 945.357C365.182 929.626 335.047 880.364 344.494 826.699C353.94 773.033 333.049 707.79 333.049 707.79L350.205 635.913C350.845 632.953 351.395 630.028 351.855 627.139C356.102 650.651 366.872 710.982 368.953 730.08C371.562 753.99 368.227 819.44 374.251 844.353C380.275 869.266 405.112 900.953 439.931 913.833C459.67 921.153 480.795 934.204 495.372 944.128Z" fill="#9C398C"/>
<path d="M349.58 993.519C345.282 993.519 341.252 992.275 338.015 991.271C335.868 990.61 334.018 990.035 332.779 990.035H332.652C332.439 990.033 332.228 990.074 332.031 990.155C330.305 991.024 326.581 991.944 321.334 991.944C317.974 991.924 314.622 991.607 311.317 990.999H311.274C305.865 989.993 300.564 988.473 295.443 986.461C293.329 985.65 291.16 984.737 288.998 983.751L288.678 983.599C283.853 981.297 280.053 977.053 277.389 971.031C268.698 951.315 274.41 918.173 275.3 913.388C274.592 911.879 272.372 907.093 270.341 901.951C265.734 890.279 266.017 886.864 266.635 885.308C266.775 884.914 266.999 884.555 267.289 884.254C267.58 883.954 267.932 883.719 268.321 883.566C270.137 882.861 272.125 882.068 274.221 881.228C286.829 876.181 304.098 869.271 317.966 869.271C322.214 869.271 325.96 869.922 329.113 871.213C329.281 871.282 329.451 871.362 329.629 871.453C330.071 871.677 330.49 871.941 330.883 872.242C338.073 877.635 344.377 898.377 345.507 902.25C348.199 904.024 360.404 912.17 365.225 916.861C365.4 917.031 365.57 917.224 365.734 917.381C366.144 917.817 366.53 918.275 366.893 918.748C369.011 921.522 370.01 924.519 370.977 927.421C371.791 929.871 372.564 932.184 373.956 934.148C376.063 937.111 378.265 943.966 380.391 950.595C381.96 955.475 383.577 960.519 384.823 962.77L384.998 963.071C385.744 964.25 386.181 965.598 386.269 966.99C386.358 968.383 386.094 969.775 385.503 971.039C384.02 974.351 380.721 976.759 376.674 977.482C374.97 977.788 372.761 979.406 371.224 980.595C369.919 981.621 368.561 982.777 367.122 984.028C362.228 988.231 356.68 992.999 351.32 993.446C350.772 993.493 350.172 993.519 349.58 993.519Z" fill="#CE44A2"/>
<path d="M317.97 870.908C321.81 870.908 325.375 871.45 328.507 872.726C328.63 872.777 328.761 872.839 328.895 872.908C329.253 873.09 329.594 873.304 329.913 873.548C337.332 879.115 344.13 903.272 344.13 903.272C344.13 903.272 358.859 912.897 364.113 918.021C364.273 918.177 364.429 918.337 364.582 918.497C364.945 918.901 365.309 919.312 365.625 919.73C369.342 924.599 369.425 930.537 372.655 935.083C376.19 940.054 380.452 958.181 383.424 963.552C383.497 963.686 383.57 963.81 383.642 963.915C386.618 968.763 382.843 974.705 376.416 975.854C374.599 976.177 372.524 977.515 370.264 979.29C364.451 983.843 357.508 991.29 351.233 991.795C350.684 991.843 350.143 991.865 349.591 991.865C342.644 991.865 336.336 988.381 332.79 988.381H332.605C332.154 988.384 331.709 988.486 331.301 988.679C329.934 989.363 326.577 990.29 321.345 990.29C318.068 990.269 314.798 989.959 311.575 989.363C306.274 988.377 301.079 986.887 296.061 984.912C294.026 984.131 291.909 983.24 289.71 982.239L289.423 982.105C284.605 979.803 281.233 975.595 278.915 970.345C269.832 949.745 277.037 913.145 277.037 913.145C277.037 913.145 264.378 886.846 268.92 885.09C281.782 880.115 302.172 870.908 317.97 870.908ZM317.97 867.635C303.8 867.635 286.36 874.617 273.614 879.712C271.525 880.552 269.548 881.341 267.735 882.043C267.138 882.279 266.596 882.638 266.146 883.097C265.695 883.555 265.346 884.103 265.119 884.705C264.295 886.795 264.088 890.548 268.829 902.555C270.718 907.345 272.724 911.723 273.603 913.614C272.443 920.313 271.668 927.073 271.282 933.861C270.366 949.941 271.921 962.668 275.899 971.679C278.726 978.083 282.803 982.588 287.988 985.068L288.3 985.214H288.325C290.505 986.214 292.715 987.137 294.865 987.963C300.078 990.008 305.472 991.555 310.976 992.581H311.041C314.434 993.201 317.874 993.524 321.323 993.545C325.967 993.545 330.185 992.835 332.641 991.639H332.768C333.753 991.639 335.584 992.203 337.521 992.803C340.863 993.835 345.024 995.119 349.569 995.119C350.216 995.119 350.859 995.094 351.484 995.043C357.37 994.548 363.11 989.588 368.197 985.225C369.625 983.999 370.969 982.843 372.245 981.839C374.377 980.166 375.965 979.228 376.968 979.05C381.542 978.232 385.292 975.472 386.996 971.665C387.688 970.158 387.996 968.504 387.892 966.849C387.788 965.195 387.275 963.592 386.4 962.185V962.163C386.36 962.094 386.32 962.032 386.287 961.966C386.288 961.957 386.288 961.947 386.287 961.937C385.121 959.825 383.526 954.857 381.982 950.05C379.718 942.992 377.578 936.326 375.322 933.155C374.072 931.395 373.338 929.192 372.561 926.857C371.598 923.974 370.508 920.701 368.226 917.712C367.83 917.195 367.409 916.697 366.973 916.228L366.951 916.206C366.751 915.999 366.587 915.817 366.402 915.65C361.744 911.105 350.415 903.479 346.938 901.17C346.31 899.057 344.856 894.385 342.865 889.272C339.105 879.621 335.519 873.606 331.896 870.89C331.425 870.532 330.923 870.217 330.396 869.948C330.181 869.839 329.974 869.741 329.778 869.661C326.421 868.286 322.464 867.592 318.006 867.592L317.97 867.635Z" fill="#17091D"/>
<path d="M376.397 975.875C374.58 976.199 372.506 977.537 370.246 979.312C364.432 983.864 357.489 991.312 351.214 991.817C343.504 992.461 336.361 988.268 332.586 988.406C332.135 988.41 331.69 988.511 331.282 988.704C329.204 989.748 322.518 991.348 311.557 989.388C306.255 988.402 301.06 986.912 296.042 984.937C294.008 984.157 291.891 983.266 289.691 982.264L289.404 982.13C285.596 980.268 282.094 976.086 278.897 970.37C269.813 949.77 277.018 913.17 277.018 913.17C277.018 913.17 264.378 886.846 268.919 885.09C284.906 878.908 312.519 866.181 328.506 872.726C328.63 872.777 328.76 872.839 328.895 872.908C329.247 873.099 329.587 873.313 329.912 873.548C337.331 879.115 344.129 903.272 344.129 903.272C344.129 903.272 358.859 912.897 364.113 918.021C364.273 918.177 364.429 918.337 364.581 918.497C364.945 918.901 365.308 919.312 365.624 919.73C358.085 915.73 335.704 904.228 328.888 905.443C319.684 907.086 301.343 910.966 292.918 911.624C284.492 912.283 288.489 934.279 289.706 947.406C290.516 956.177 289.197 967.93 294.018 974.952C296.413 978.443 300.322 980.77 306.761 980.977L308.744 981.032C318.191 981.217 324.804 980.417 330.108 979.89C334.915 979.41 338.636 979.163 342.371 980.043C348.464 981.497 358.75 984.443 370.867 976.043C374.864 973.272 379.093 969.254 383.42 963.534C383.493 963.668 383.566 963.792 383.638 963.897C386.599 968.784 382.824 974.726 376.397 975.875Z" fill="#9C398C"/>
<path d="M362.506 942.988C363.063 942.376 364.012 942.331 364.625 942.889C365.237 943.446 365.282 944.395 364.724 945.008C359.901 950.307 357.997 955.573 357.285 959.483C356.928 961.444 356.87 963.069 356.899 964.191C356.914 964.752 356.95 965.186 356.981 965.473C356.997 965.616 357.01 965.722 357.02 965.788C357.025 965.821 357.029 965.845 357.031 965.857C357.031 965.861 357.032 965.863 357.032 965.865C357.18 966.68 356.64 967.46 355.825 967.608C355.01 967.757 354.229 967.216 354.081 966.401L355.556 966.133L354.081 966.399L354.08 966.397C354.08 966.396 354.079 966.394 354.079 966.393C354.078 966.389 354.078 966.385 354.077 966.381C354.075 966.371 354.073 966.359 354.071 966.344C354.066 966.314 354.06 966.274 354.052 966.224C354.038 966.122 354.018 965.979 353.999 965.798C353.959 965.436 353.917 964.918 353.9 964.269C353.866 962.97 353.935 961.136 354.334 958.946C355.133 954.556 357.257 948.754 362.506 942.988Z" fill="#17091D"/>
<path d="M357.319 952.672C357.769 951.976 358.698 951.777 359.394 952.227L358.579 953.486C359.393 952.226 359.394 952.227 359.395 952.228L359.396 952.229C359.397 952.229 359.399 952.23 359.4 952.232C359.404 952.234 359.409 952.237 359.414 952.24C359.425 952.248 359.44 952.257 359.459 952.27C359.497 952.295 359.551 952.331 359.619 952.378C359.755 952.471 359.949 952.608 360.191 952.785C360.674 953.14 361.35 953.66 362.138 954.336C363.71 955.685 365.75 957.671 367.6 960.211C371.305 965.298 374.322 972.738 371.07 981.665C370.787 982.444 369.926 982.845 369.148 982.562C368.369 982.278 367.968 981.417 368.251 980.639C371.046 972.966 368.522 966.573 365.175 961.978C363.498 959.676 361.634 957.858 360.184 956.613C359.461 955.993 358.846 955.519 358.416 955.203C358.201 955.046 358.033 954.928 357.921 954.852C357.865 954.813 357.823 954.785 357.797 954.768C357.784 954.759 357.775 954.753 357.77 954.749C357.768 954.748 357.767 954.746 357.766 954.745C357.765 954.746 357.764 954.745 357.764 954.745L357.765 954.746C357.069 954.297 356.87 953.368 357.319 952.672Z" fill="#17091D"/>
<path d="M329.529 960.686C330.355 960.75 330.973 961.47 330.91 962.296C330.91 962.298 330.909 962.302 330.909 962.306C330.908 962.314 330.908 962.326 330.907 962.341C330.905 962.374 330.901 962.424 330.896 962.49C330.887 962.621 330.875 962.817 330.861 963.071C330.833 963.579 330.799 964.319 330.772 965.234C330.719 967.066 330.7 969.596 330.837 972.39C331.114 978.066 332.02 984.51 334.345 988.519C334.761 989.236 334.517 990.154 333.801 990.57C333.084 990.985 332.165 990.742 331.75 990.025C329.028 985.332 328.119 978.231 327.841 972.537C327.699 969.646 327.719 967.035 327.773 965.147C327.8 964.203 327.837 963.437 327.866 962.906C327.881 962.64 327.894 962.432 327.903 962.29C327.908 962.219 327.912 962.164 327.915 962.127C327.916 962.108 327.917 962.094 327.918 962.084C327.918 962.079 327.919 962.075 327.919 962.072V962.067C327.982 961.241 328.703 960.623 329.529 960.686Z" fill="#17091D"/>
<path d="M308.308 969.048C309.083 969.094 309.685 969.722 309.716 970.481L309.715 970.635V970.636C309.715 970.637 309.715 970.639 309.714 970.642C309.714 970.649 309.714 970.66 309.713 970.675C309.712 970.704 309.709 970.748 309.707 970.807C309.701 970.926 309.693 971.104 309.686 971.333C309.671 971.791 309.657 972.455 309.66 973.264C309.666 974.887 309.741 977.082 310.014 979.385C310.288 981.698 310.756 984.06 311.519 986.049C312.292 988.063 313.296 989.501 314.518 990.232C315.229 990.658 315.46 991.579 315.035 992.29C314.609 993.001 313.688 993.232 312.977 992.806C310.922 991.576 309.596 989.411 308.718 987.125C307.83 984.813 307.325 982.177 307.036 979.737C306.745 977.287 306.666 974.973 306.66 973.276C306.656 972.426 306.671 971.726 306.687 971.237C306.695 970.992 306.703 970.8 306.709 970.667C306.713 970.601 306.715 970.549 306.717 970.513C306.718 970.496 306.719 970.481 306.719 970.471C306.719 970.467 306.72 970.463 306.72 970.46V970.456C306.72 970.455 306.721 970.455 308.218 970.545L306.72 970.455C306.77 969.628 307.481 968.998 308.308 969.048Z" fill="#17091D"/>
<path d="M294.169 973.146C294.994 973.224 295.599 973.957 295.52 974.781L295.518 974.797C295.517 974.812 295.515 974.838 295.512 974.872C295.507 974.941 295.501 975.046 295.494 975.183C295.48 975.457 295.465 975.859 295.468 976.351C295.474 977.339 295.548 978.668 295.809 980.054C296.35 982.923 297.586 985.53 300.107 986.479C300.882 986.77 301.274 987.636 300.982 988.411C300.69 989.186 299.825 989.578 299.05 989.286C294.991 987.759 293.451 983.742 292.861 980.609C292.557 978.995 292.475 977.477 292.468 976.369C292.465 975.813 292.481 975.353 292.498 975.029C292.506 974.868 292.514 974.739 292.521 974.648C292.524 974.603 292.527 974.568 292.529 974.542C292.53 974.53 292.531 974.519 292.532 974.512C292.532 974.508 292.532 974.505 292.533 974.502C292.533 974.501 292.533 974.499 292.533 974.498L292.534 974.497C292.54 974.497 292.632 974.506 294.027 974.639L292.534 974.496C292.612 973.671 293.345 973.067 294.169 973.146Z" fill="#17091D"/>
<path d="M340.678 973.454C342.785 973.454 344.493 968.814 344.493 963.09C344.493 957.367 342.785 952.727 340.678 952.727C338.571 952.727 336.863 957.367 336.863 963.09C336.863 968.814 338.571 973.454 340.678 973.454Z" fill="#D969BD"/>
<path d="M317.424 972C319.531 972 321.239 968.499 321.239 964.181C321.239 959.864 319.531 956.363 317.424 956.363C315.317 956.363 313.609 959.864 313.609 964.181C313.609 968.499 315.317 972 317.424 972Z" fill="#D969BD"/>
<path d="M300.348 976C302.455 976 304.163 973.314 304.163 970C304.163 966.686 302.455 964 300.348 964C298.241 964 296.533 966.686 296.533 970C296.533 973.314 298.241 976 300.348 976Z" fill="#D969BD"/>
<path d="M261.003 897.207C260.872 896.843 248.006 861.869 236.245 830.16C227.525 806.669 221.606 790.887 218.638 783.221C214.885 773.531 213.682 765.767 214.739 758.011C215.328 753.68 216.556 749.789 217.831 745.669C218.999 742.121 219.986 738.516 220.789 734.869C221.516 731.36 223.154 721.927 225.414 708.876C233.487 662.207 250.288 565.098 261.747 534.476C266.028 523.04 272.426 513.221 280.764 505.294C286.75 499.59 293.661 494.944 301.202 491.556C303.107 490.698 305.173 490.255 307.262 490.258C309.56 490.265 311.825 490.8 313.883 491.822C315.941 492.844 317.737 494.326 319.132 496.152C323.005 501.243 329.262 509.669 337.077 520.832C341.859 527.665 345.677 537.291 348.744 550.269C351.807 563.192 353.518 576.905 354.895 587.923C355.651 593.974 356.301 599.196 357.01 602.898C359.092 613.807 353.918 641.741 352.287 650.047C349.049 666.498 344.068 686.312 340.783 690.952C337.077 696.189 334.287 706.272 331.591 716.021C330.33 720.578 329.026 725.291 327.623 729.541C327.179 730.955 326.878 732.409 326.726 733.883C325.135 747.967 332.445 771.156 332.518 771.389L332.547 771.476L351.956 878.2L261.435 898.403L261.003 897.207Z" fill="#FBDAFA"/>
<path d="M307.274 491.712C309.349 491.713 311.395 492.194 313.254 493.117C315.113 494.041 316.733 495.382 317.988 497.035C322.138 502.49 328.285 510.795 335.897 521.668C341.118 529.123 344.726 539.541 347.342 550.603C352.065 570.603 353.591 592.697 355.593 603.17C358.7 619.435 345.22 682.181 339.607 690.112C333.993 698.043 330.687 715.635 326.251 729.09C325.774 730.598 325.453 732.15 325.291 733.723C323.645 748.268 331.141 771.832 331.141 771.832L350.285 877.09L262.358 896.726C262.358 896.726 249.5 861.752 237.601 829.675C230.334 810.039 223.387 791.494 219.986 782.715C215.884 772.126 215.285 764.723 216.171 758.228C217.218 750.537 220.346 744.115 222.206 735.188C225.647 718.701 248.574 573.817 263.107 534.985C272.586 509.672 290.484 497.966 301.798 492.883C303.512 492.112 305.369 491.713 307.248 491.712M307.248 488.803C304.954 488.8 302.685 489.286 300.592 490.228C292.902 493.685 285.854 498.422 279.747 504.239C271.249 512.319 264.731 522.319 260.371 533.963C248.853 564.715 232.031 661.919 223.954 708.632C221.698 721.668 220.07 731.086 219.343 734.574C218.548 738.174 217.572 741.733 216.419 745.236C215.111 749.414 213.875 753.363 213.272 757.814C212.182 765.814 213.41 773.814 217.269 783.745C220.241 791.417 226.163 807.203 234.869 830.654C246.63 862.359 259.495 897.348 259.622 897.697L260.502 900.086L262.983 899.534L350.91 879.897L353.639 879.286L353.137 876.537L334 771.308L333.968 771.123L333.91 770.945C333.837 770.715 326.625 747.817 328.18 734.046C328.318 732.671 328.596 731.314 329.012 729.995C330.425 725.712 331.733 720.985 333.009 716.41C335.675 706.781 338.429 696.821 341.99 691.792C345.416 686.952 350.347 667.479 353.733 650.337C355.379 641.974 360.589 613.792 358.456 602.632C357.759 598.977 357.108 593.774 356.356 587.752C354.976 576.697 353.257 562.941 350.18 549.934C347.07 536.777 343.178 526.985 338.288 520.003C330.458 508.814 324.19 500.366 320.314 495.275C318.782 493.271 316.81 491.645 314.551 490.523C312.292 489.402 309.806 488.814 307.285 488.806L307.248 488.803Z" fill="#17091D"/>
<path d="M339.607 690.112C333.993 698.043 330.687 715.636 326.251 729.09C325.774 730.598 325.453 732.15 325.291 733.723C319.943 728.498 312.077 717.17 308.553 715.381C294.299 706.4 269.563 664.276 298.016 695.454C319.493 720.516 312.128 709.378 318.595 684.545C321.102 656.909 342.059 589.949 347.349 550.625C352.073 570.625 353.599 592.72 355.601 603.192C358.7 619.436 345.22 682.181 339.607 690.112Z" fill="#F9B4F9"/>
<path d="M282.636 681.149C286.189 689.753 291.361 697.908 298.15 705.614C299.984 707.764 301.972 709.776 304.098 711.636L308.552 715.393C314.079 720.763 318.308 724.749 321.858 729.611C322.604 730.639 323.495 731.554 324.503 732.327C324.561 732.371 324.628 732.4 324.699 732.414C324.77 732.425 324.843 732.419 324.912 732.395C324.98 732.372 325.042 732.332 325.091 732.28C325.145 732.224 325.186 732.157 325.211 732.083L326.25 729.102C325.753 737.152 325.826 745.228 326.468 753.269L324.401 746.982C324.344 746.809 324.232 746.659 324.081 746.556L319.423 743.538C319.356 743.494 319.278 743.466 319.198 743.458C314.838 743.036 311.182 740.576 308.229 736.076C308.166 735.978 308.134 735.862 308.138 735.745C308.145 735.63 308.185 735.518 308.254 735.425C308.324 735.345 308.419 735.291 308.523 735.273C308.629 735.251 308.738 735.272 308.828 735.331C311.841 737.17 315.042 738.681 318.377 739.836C319.274 740.161 320.212 740.359 321.164 740.425C321.363 740.435 321.562 740.39 321.738 740.294C321.918 740.192 322.069 740.046 322.177 739.869C322.293 739.684 322.364 739.475 322.384 739.258C322.403 739.038 322.373 738.817 322.297 738.611L321.062 735.4C321.03 735.309 320.984 735.223 320.927 735.145C316.854 729.427 312.23 724.122 307.121 719.309C299.516 712.076 292.871 703.331 287.664 696.113C285.724 693.485 283.976 690.72 282.436 687.84C280.132 683.349 278.178 680.542 276.437 676.203C275.895 674.841 273.919 670.082 270.511 661.927C270.495 661.881 270.495 661.831 270.511 661.785C270.522 661.743 270.55 661.706 270.588 661.683C270.608 661.675 270.629 661.67 270.651 661.67C270.673 661.67 270.695 661.675 270.715 661.683C270.761 661.698 270.799 661.729 270.824 661.771L282.636 681.149Z" fill="#5C2C66"/>
<path d="M271.881 724.727C277.778 725.279 283.145 725.556 287.203 728.363C287.358 728.47 287.472 728.624 287.53 728.803C287.588 728.989 287.588 729.188 287.53 729.374C287.479 729.555 287.368 729.713 287.214 729.821C287.071 729.925 286.892 729.97 286.716 729.945C281.612 729.345 273.546 728.687 267.652 729.217C262.053 729.727 255.611 729.727 249.304 730.65C243.619 731.489 237.603 732.701 231.257 734.287C231.057 734.338 230.846 734.329 230.65 734.261C230.449 734.19 230.272 734.064 230.138 733.897C229.996 733.721 229.9 733.513 229.858 733.29C229.815 733.064 229.825 732.832 229.887 732.61V732.567C230.242 731.402 230.932 730.367 231.87 729.591C232.808 728.815 233.953 728.332 235.163 728.203C240.181 727.636 245.304 726.545 249.664 726.181C257.08 725.553 264.486 725.068 271.881 724.727Z" fill="#5C2C66"/>
<path d="M292.69 742.908C258.242 743.977 225.684 764.362 241.943 803.635C242.006 803.787 242.056 803.944 242.092 804.104C243.077 808.388 244.704 811.442 248.094 812.264C248.516 812.385 248.909 812.59 249.249 812.866C249.59 813.142 249.872 813.484 250.078 813.872C250.101 813.91 250.127 813.946 250.154 813.981C250.436 814.307 250.641 814.694 250.753 815.11C250.865 815.527 250.881 815.964 250.801 816.388C250.758 816.599 250.714 816.813 250.681 817.024C250.594 817.502 250.396 817.952 250.104 818.34C249.812 818.728 249.434 819.042 248.999 819.257C244.864 821.399 243.338 826.112 240.054 828.941C239.721 829.228 239.331 829.44 238.908 829.561C238.486 829.682 238.043 829.71 237.608 829.642C230.342 810.006 223.395 791.461 219.994 782.682C215.892 772.093 215.293 764.69 216.179 758.195C220.394 761.657 224.172 764.741 224.899 765.304C228.99 768.882 237.005 781.806 233.176 767.901C233.139 767.781 233.096 767.657 233.049 767.537C229.285 758.53 242.859 750.293 249.726 746.446C249.943 746.32 250.144 746.166 250.322 745.988C261.995 734.624 330.582 739.875 292.69 742.908Z" fill="#F9B4F9"/>
<path d="M303.027 506.565C303.763 506.184 304.668 506.472 305.049 507.207L303.717 507.897C304.998 507.234 305.048 507.209 305.05 507.209C305.05 507.21 305.051 507.211 305.052 507.213C305.054 507.216 305.056 507.221 305.06 507.228C305.066 507.241 305.076 507.26 305.089 507.285C305.115 507.335 305.153 507.41 305.202 507.508C305.302 507.704 305.448 507.993 305.638 508.374C306.017 509.136 306.569 510.262 307.265 511.723C308.657 514.646 310.625 518.913 312.932 524.302C317.546 535.078 323.521 550.346 328.976 568.322C339.873 604.239 348.738 651.132 340.335 694.647C340.178 695.46 339.391 695.992 338.577 695.835C337.764 695.678 337.233 694.891 337.39 694.077C345.656 651.268 336.948 604.929 326.106 569.194C320.69 551.344 314.755 536.181 310.174 525.483C307.884 520.134 305.933 515.903 304.557 513.013C303.869 511.568 303.324 510.457 302.952 509.71C302.766 509.337 302.623 509.054 302.527 508.865C302.48 508.771 302.444 508.7 302.42 508.653C302.408 508.63 302.399 508.613 302.393 508.602C302.39 508.596 302.388 508.592 302.387 508.589L302.385 508.586C302.004 507.85 302.292 506.945 303.027 506.565Z" fill="#17091D"/>
<path d="M263.72 912.509C261.522 912.509 259.967 912.101 258.972 911.265C253.976 907.065 246.593 896.876 245.728 888.661C245.477 886.265 245.245 884.043 245.049 882.116C244.821 879.869 245.335 877.609 246.512 875.683C247.69 873.756 249.465 872.268 251.567 871.447C267.648 865.196 308.574 850.505 341.194 849.098C341.416 849.098 341.641 849.098 341.859 849.098C344.783 849.108 347.644 849.948 350.112 851.519C352.579 853.09 354.551 855.328 355.8 857.974C361.403 869.89 362.166 877.287 358.067 879.956C356.614 880.894 355.364 881.898 354.031 882.959C348.875 887.072 343.029 891.73 322.897 896.989C315.357 898.959 307.197 901.439 299.302 903.836C284.619 908.298 270.736 912.509 263.72 912.509Z" fill="#FBDAFA"/>
<path d="M341.859 850.545C344.509 850.549 347.103 851.306 349.339 852.73C351.575 854.154 353.359 856.184 354.485 858.585C357.919 865.891 361.563 875.934 357.272 878.727C350.307 883.265 347.803 888.974 322.53 895.574C300.904 901.222 274.207 911.047 263.721 911.047C261.955 911.047 260.651 910.771 259.906 910.145C254.75 905.811 247.956 895.923 247.189 888.502C246.938 886.109 246.706 883.887 246.51 881.956C246.31 880.026 246.75 878.084 247.761 876.428C248.772 874.773 250.298 873.495 252.105 872.793C267.587 866.774 308.701 851.945 341.271 850.538H341.874M341.874 847.629C341.634 847.629 341.387 847.629 341.147 847.629C308.305 849.047 267.202 863.8 251.04 870.076C248.642 871.013 246.616 872.711 245.273 874.91C243.93 877.108 243.343 879.687 243.603 882.251C243.799 884.163 244.032 886.389 244.286 888.796C244.798 893.676 247.367 898.669 249.431 902.003C251.974 906.142 255.132 909.92 258.038 912.36C259.324 913.451 261.13 913.945 263.721 913.945C270.969 913.945 284.293 909.898 299.724 905.218C307.604 902.822 315.754 900.349 323.264 898.385C343.694 893.051 349.929 888.08 354.936 884.087C356.244 883.047 357.479 882.065 358.86 881.178C361.886 879.207 362.813 875.36 361.617 869.753C360.891 866.338 359.376 862.167 357.116 857.356C355.749 854.46 353.59 852.011 350.889 850.293C348.188 848.574 345.056 847.657 341.856 847.647L341.874 847.629Z" fill="#17091D"/>
<path d="M414.253 513.455C414.253 513.455 441.114 532.364 445.667 542.546C450.219 552.727 452.534 559.127 452.04 569.455C451.545 579.782 477.836 584.727 498.183 574.546C518.53 564.364 518.243 555.582 533.285 563.971C548.327 572.36 534.327 578.847 551.956 579.273C569.585 579.698 584.714 571.138 576.3 558.909C567.885 546.68 569.552 525.429 569.473 525.262C569.393 525.095 572.441 498.738 572.441 498.738C572.441 498.738 491.781 517.236 490.437 516.8C489.092 516.364 422.904 507.876 422.904 507.876L414.253 513.455Z" fill="#F9B4F9"/>
<path d="M502.646 549.72C477.968 549.72 449.41 543.098 433.194 533.618C422.701 527.487 411.976 517.981 402.994 506.894C393.515 495.174 386.488 482.44 382.669 470.058C377.401 452.967 379.494 449.305 383.65 444.283C385.311 442.276 387.193 440.003 388.613 435.77C394.129 419.327 413.32 412.043 419.079 410.203C419.92 409.912 420.801 409.752 421.691 409.73C423.283 409.73 424.151 410.436 424.598 411.025C425.477 412.189 425.568 413.934 424.878 416.389C423.598 420.866 420.686 424.699 416.717 427.13C414.788 428.327 412.862 430.254 411.002 432.854C409.418 435.069 409.135 437.381 410.108 440.127C411.543 444.196 415.486 448.458 419.297 452.578C419.697 453.007 420.093 453.44 420.485 453.865C427.432 461.421 467.039 488.047 482.782 492.596C499.092 497.323 513.146 499.6 525.75 499.6C528.929 499.6 532.061 499.45 535.059 499.156C535.251 499.138 535.422 499.12 535.604 499.094L536.149 499.021C536.635 498.952 537.133 498.865 537.689 498.756C553.236 495.603 564.896 478.923 565.807 471.254C565.895 470.512 565.983 469.775 566.073 469.043C568.202 451.458 570.069 443.083 574.851 443.083C577.242 443.083 579.574 445.341 582.423 450.407C584.683 454.429 587.204 460.13 590.129 467.832C596.931 485.745 589.639 509.414 582.564 519.77C575.327 530.367 544.414 544.338 518.948 548.523C513.555 549.358 508.103 549.758 502.646 549.72Z" fill="#FBDAFA"/>
<path d="M421.691 411.186C424.114 411.186 424.216 413.368 423.478 415.993C422.292 420.118 419.606 423.65 415.95 425.895C414.279 426.931 412.142 428.764 409.821 432.008C407.804 434.826 407.71 437.717 408.731 440.619C410.424 445.411 415.176 450.248 419.409 454.855C426.214 462.251 466.028 489.273 482.378 493.997C495.869 497.895 510.846 501.059 525.749 501.059C528.907 501.059 532.064 500.913 535.196 500.608C535.396 500.59 535.592 500.568 535.788 500.542L536.366 500.462C536.904 500.386 537.438 500.291 537.968 500.186C554.369 496.862 566.287 479.517 567.246 471.43C567.333 470.702 567.421 469.968 567.511 469.226C569.106 456.037 570.832 444.546 574.847 444.542C576.507 444.542 578.556 446.506 581.151 451.124C583.291 454.931 585.801 460.546 588.781 468.353C595.321 485.524 588.483 508.546 581.376 518.953C574.269 529.36 543.055 543.091 518.712 547.091C513.396 547.913 508.023 548.306 502.645 548.266C479.359 548.266 450.623 542.124 433.928 532.364C413.091 520.186 391.908 495.091 384.057 469.63C376.205 444.168 385.368 449.993 389.99 436.233C394.612 422.473 409.712 414.728 419.522 411.59C420.223 411.344 420.959 411.208 421.702 411.186M421.702 408.277C420.662 408.297 419.633 408.48 418.65 408.819C414.98 409.986 407.844 412.68 401.104 417.571C394.157 422.608 389.478 428.575 387.236 435.306C385.899 439.284 384.188 441.353 382.531 443.357C380.645 445.637 378.694 447.993 378.203 452.27C377.724 456.422 378.676 462.04 381.281 470.488C385.15 483.044 392.268 495.942 401.864 507.808C410.947 519.044 421.818 528.655 432.464 534.877C448.875 544.473 477.739 551.175 502.645 551.175C508.182 551.216 513.713 550.81 519.184 549.96C531.127 548 545.159 543.67 557.697 538.08C565.291 534.695 578.771 527.92 583.777 520.597C587.847 514.637 591.313 505.72 593.046 496.742C594.528 489.077 595.462 477.746 591.502 467.32C588.552 459.55 585.997 453.786 583.701 449.699C580.569 444.12 577.844 441.633 574.865 441.633C573.448 441.633 571.406 442.233 569.742 445.077C568.884 446.531 568.143 448.553 567.471 451.23C566.359 455.666 565.538 461.495 564.644 468.877C564.555 469.604 564.466 470.341 564.379 471.088C564.016 474.124 561.32 479.979 556.248 485.655C550.718 491.837 544.025 495.993 537.409 497.335C536.893 497.437 536.421 497.52 535.977 497.582H535.941L535.432 497.655L534.953 497.706H534.931C531.981 497.993 528.896 498.142 525.764 498.142C513.302 498.142 499.379 495.87 483.2 491.193C476.296 489.197 463.787 482.557 448.901 472.975C436.529 465.008 424.779 456.368 421.571 452.877L420.379 451.586C416.666 447.586 412.829 443.426 411.492 439.64C410.678 437.346 410.896 435.513 412.197 433.695C414.377 430.648 416.281 429.113 417.494 428.36C421.774 425.739 424.913 421.604 426.291 416.775C427.112 413.866 426.945 411.684 425.771 410.142C425.241 409.44 424.009 408.27 421.705 408.27L421.702 408.277Z" fill="#17091D"/>
<path d="M581.154 451.125C579.428 464.216 573.677 478.863 570.487 485.819C566.305 494.939 530.52 519.274 513.443 521.67C496.367 524.066 493.823 511.637 474.93 502.968C456.037 494.299 415.707 457.819 409.821 450.408C407.663 447.688 407.753 444.088 408.731 440.619C410.424 445.412 415.176 450.248 419.409 454.856C426.214 462.252 466.028 489.274 482.378 493.997C498.728 498.721 517.258 502.361 535.2 500.608C535.4 500.59 535.596 500.568 535.792 500.543L536.37 500.463C536.907 500.386 537.442 500.292 537.972 500.186C538.397 500.099 538.815 500.001 539.233 499.896C539.498 499.83 539.76 499.757 540.021 499.685L540.334 499.594C555.339 495.146 565.237 478.906 567.249 471.43C567.432 470.71 567.522 469.969 567.515 469.226C569.76 450.583 572.303 435.336 581.154 451.125Z" fill="#F9B4F9"/>
<path d="M473.037 570.888C471.272 570.902 469.513 570.698 467.798 570.281C462.609 568.972 459.55 565.997 458.715 561.441C458.013 557.67 458.878 553.441 459.71 549.317C460.255 546.633 460.771 544.095 460.771 542.001C460.771 537.972 461.262 527.932 462.588 518.132C464.768 501.797 467.554 498.557 469.451 497.543C470.045 497.239 470.706 497.088 471.373 497.103C475.842 497.103 485.739 503.19 500.803 515.19C503.877 517.644 506.166 519.553 507.009 520.281L507.176 520.419C507.349 520.562 507.491 520.74 507.593 520.941C507.695 521.142 507.755 521.361 507.768 521.586C507.826 522.553 509.2 545.364 508.106 552.717C508.028 553.366 507.878 554.004 507.659 554.619C506.853 556.699 503.557 559.233 500.941 560.99C494.103 565.546 482.716 570.888 473.037 570.888Z" fill="#CE44A2"/>
<path d="M471.355 498.738C476.707 498.738 491.276 509.709 499.757 516.469C502.95 519.015 505.283 520.975 505.933 521.517L506.115 521.669C506.115 521.669 507.546 545.193 506.478 552.462C506.413 552.988 506.291 553.505 506.115 554.004C505.617 555.287 503.335 557.382 500.007 559.615C493.253 564.153 482.204 569.251 473.044 569.251C471.414 569.266 469.789 569.079 468.205 568.695C454.398 565.204 462.391 550.727 462.391 542C462.391 533.273 464.571 502 470.199 498.986C470.557 498.81 470.953 498.725 471.351 498.738M471.351 495.466C470.414 495.45 469.487 495.669 468.655 496.102C466.112 497.466 463.205 501.124 460.945 517.92C459.615 527.797 459.129 537.938 459.129 542.007C459.129 543.938 458.631 546.397 458.1 549C457.236 553.258 456.342 557.662 457.101 561.727C458.075 566.967 461.541 570.375 467.402 571.858C469.247 572.307 471.141 572.527 473.041 572.513C483.087 572.513 494.841 567.022 501.828 562.331C505.919 559.586 508.386 557.182 509.16 555.189C509.425 554.458 509.607 553.699 509.701 552.927C510.816 545.422 509.436 522.444 509.374 521.469C509.346 521.02 509.226 520.582 509.022 520.182C508.818 519.781 508.533 519.427 508.186 519.142L508.048 519.022C507.187 518.295 504.883 516.371 501.798 513.909C497.755 510.687 491.77 506.066 486.201 502.346C477.07 496.247 473.484 495.466 471.362 495.466H471.351Z" fill="#17091D"/>
<path d="M574.043 573.164C572.289 573.164 570.076 572.775 567.278 571.979C562.126 570.506 549.239 566.364 540.878 559.713C537.648 557.168 535.505 554.491 534.505 551.819C534.126 550.817 533.905 549.761 533.851 548.691C533.648 544.055 533.819 540.157 533.968 536.717C534.128 533.08 534.255 530.208 533.873 527.844C533.19 523.648 529.372 520.208 529.335 520.178C529.153 520.016 529.01 519.815 528.915 519.59C528.821 519.365 528.777 519.121 528.789 518.877C528.8 518.633 528.866 518.395 528.981 518.18C529.097 517.964 529.259 517.778 529.455 517.633C529.488 517.611 530.305 517.015 531.704 516.051C534.019 514.462 537.619 512.073 541.62 509.709C551.026 504.153 558.166 501.346 562.845 501.346C563.354 501.344 563.861 501.38 564.364 501.455C570.029 502.313 574.737 505.186 577.622 509.542C580.58 514.008 581.325 519.589 579.77 525.68C579.056 528.457 578.155 531.182 577.074 533.837C575.257 538.473 574.418 540.589 577.212 551.291L577.477 552.295C580.02 562.04 581.564 567.931 579.101 571.124C578.044 572.469 576.343 573.164 574.043 573.164Z" fill="#CE44A2"/>
<path d="M562.857 502.967C563.283 502.965 563.71 502.996 564.132 503.058C573.942 504.545 581.354 512.876 578.196 525.262C575.039 537.647 571.522 535.913 575.653 551.684C579.003 564.509 581.03 571.527 574.065 571.527C572.463 571.527 570.392 571.164 567.751 570.404C558.802 567.858 548.432 563.615 541.918 558.433C539.102 556.196 537.005 553.778 536.057 551.244C535.739 550.402 535.554 549.517 535.508 548.618C535.083 539.091 536.293 532.436 535.508 527.582C534.724 522.727 530.44 518.953 530.44 518.953C530.44 518.953 531.257 518.356 532.653 517.396C534.833 515.902 538.404 513.516 542.463 511.113C549.315 507.065 557.563 502.967 562.857 502.967ZM562.857 499.695C557.879 499.695 550.46 502.604 540.802 508.295C536.758 510.684 533.125 513.095 530.792 514.698C529.372 515.673 528.536 516.284 528.503 516.309C528.109 516.598 527.785 516.971 527.554 517.402C527.323 517.833 527.191 518.31 527.169 518.798C527.146 519.286 527.233 519.773 527.423 520.224C527.613 520.674 527.902 521.076 528.267 521.4C529.208 522.244 531.784 525.109 532.264 528.098C532.627 530.28 532.496 533.095 532.34 536.636C532.188 540.109 532.013 544.047 532.224 548.756C532.284 549.994 532.537 551.215 532.972 552.375C534.084 555.342 536.402 558.236 539.876 560.989C548.461 567.822 561.596 572.044 566.842 573.542C569.785 574.385 572.143 574.793 574.054 574.793C576.888 574.793 579.025 573.884 580.406 572.091C583.363 568.262 581.746 562.087 579.068 551.858L578.807 550.847C576.147 540.665 576.867 538.847 578.603 534.411C579.714 531.696 580.637 528.907 581.365 526.065C583.036 519.52 582.219 513.476 578.996 508.611C575.9 503.935 570.661 500.727 564.622 499.811C564.038 499.725 563.448 499.682 562.857 499.684V499.695Z" fill="#17091D"/>
<path d="M545.235 555.454C544.824 556.36 543.589 557.396 541.896 558.432C539.08 556.196 536.984 553.778 536.035 551.243C534.037 552.549 531.047 552.909 527.068 552.909C520.114 552.909 510.13 554.836 506.46 552.461C506.395 552.987 506.273 553.504 506.097 554.003C505.599 555.287 503.317 557.381 499.989 559.614C496.537 550.727 493.22 547.407 494.881 537.247C496.269 528.749 496.167 521.949 499.746 516.469C502.939 519.014 505.272 520.974 505.922 521.516C507.362 519.769 509.351 518.563 511.565 518.094C513.372 517.723 515.205 517.494 517.048 517.411C524.213 517.047 529.55 516.243 532.627 517.411C534.807 515.916 538.379 513.531 542.437 511.127C542.485 516.945 542.841 524.647 544.214 529.694C546.688 538.727 547.052 551.454 545.235 555.454Z" fill="#9C398C"/>
<path d="M480.985 523.988C481.293 523.219 482.165 522.845 482.935 523.152L509.647 533.828C510.188 534.045 510.556 534.556 510.588 535.138C510.621 535.72 510.313 536.269 509.799 536.544L490.353 546.958C489.622 547.349 488.713 547.074 488.322 546.344C487.931 545.614 488.206 544.705 488.937 544.314L505.543 535.419L481.821 525.938C481.052 525.63 480.678 524.758 480.985 523.988Z" fill="#17091D"/>
<path d="M547.307 523.834C548.096 523.58 548.942 524.014 549.196 524.802C549.45 525.591 549.016 526.436 548.228 526.69L531.468 532.093L546.76 539.437C547.507 539.796 547.822 540.692 547.463 541.439C547.105 542.186 546.208 542.501 545.461 542.142L526.783 533.17C526.23 532.905 525.894 532.329 525.936 531.716C525.978 531.104 526.388 530.579 526.972 530.391L547.307 523.834Z" fill="#17091D"/>
<path d="M512.891 555.273C509.425 555.273 507.1 554.811 505.574 553.818C504.763 553.319 504.128 552.579 503.757 551.702C502.732 549.244 502.136 541.284 501.98 528.04C501.951 525.341 502.856 522.714 504.541 520.607C506.227 518.499 508.589 517.04 511.227 516.477C513.118 516.083 515.038 515.84 516.968 515.749C518.683 515.662 520.27 515.549 521.804 515.444C524.194 515.277 526.262 515.135 528.089 515.135C530.302 515.135 531.922 515.357 533.201 515.833C534 516.108 534.729 516.555 535.337 517.142C535.945 517.73 536.416 518.443 536.718 519.233C538.513 523.869 540.693 536.106 540.693 543.818C540.693 548.142 539.498 550.938 536.929 552.615C534.829 553.986 531.973 554.546 527.068 554.546C524.99 554.546 522.548 554.727 520.187 554.909C517.723 555.091 515.173 555.273 512.891 555.273Z" fill="#CE44A2"/>
<path d="M528.093 516.801C529.909 516.801 531.446 516.954 532.631 517.398C533.215 517.589 533.749 517.91 534.194 518.335C534.638 518.761 534.982 519.28 535.199 519.856C536.878 524.183 539.058 536.183 539.058 543.819C539.058 547.652 538.052 549.928 536.035 551.245C534.019 552.561 531.047 552.91 527.068 552.91C522.766 552.91 517.302 553.638 512.898 553.638C510.184 553.638 507.866 553.358 506.467 552.452C505.937 552.13 505.521 551.651 505.275 551.081C504.051 548.136 503.717 535.765 503.626 528.03C503.6 525.709 504.378 523.45 505.827 521.637C507.276 519.824 509.307 518.569 511.576 518.085C513.382 517.713 515.216 517.485 517.058 517.401C521.462 517.179 525.179 516.79 528.1 516.79M528.1 513.518C526.214 513.518 524.103 513.663 521.702 513.83C520.172 513.936 518.595 514.048 516.895 514.132C514.879 514.235 512.875 514.496 510.9 514.91C507.893 515.553 505.202 517.217 503.281 519.619C501.361 522.022 500.33 525.015 500.363 528.092C500.603 548.368 501.816 551.274 502.263 552.368C502.762 553.554 503.617 554.555 504.709 555.234C506.525 556.412 509.069 556.939 512.905 556.939C515.249 556.939 517.829 556.747 520.325 556.576C522.763 556.394 525.066 556.212 527.083 556.212C530.919 556.212 534.88 555.947 537.837 554.03C540.868 552.048 542.343 548.725 542.343 543.848C542.343 535.743 540.112 523.463 538.262 518.699C537.883 517.687 537.286 516.771 536.513 516.016C535.74 515.262 534.81 514.686 533.79 514.332C532.307 513.776 530.552 513.528 528.111 513.528L528.1 513.518Z" fill="#17091D"/>
<path d="M514.855 570.428L511.865 570.672L510.651 555.799L513.642 555.555L514.855 570.428Z" fill="#17091D"/>
</svg>
