<svg width="1800" height="1650" viewBox="0 0 1800 1650" fill="none" xmlns="http://www.w3.org/2000/svg">
<g id="Body 10">
<g id="collar back">
<path id="Vector" d="M905.5 241C831.09 241 744 187.33 710 164.25C659.08 129.68 605 81.25 605 59.5C605 43.69 623.65 32.39 662 24.97C693.32 18.91 737.22 15.71 789 15.71C808 15.71 827.71 16.15 847.71 17C911.54 19.74 976.48 31.68 1030.56 50.64C1079.1 67.64 1112.23 88.08 1119.19 105.31C1130.3 132.79 1128.98 157.01 1115.28 177.31C1100.57 199.12 1072.03 215.78 1030.47 226.8C995.46 236.1 952.26 241 905.5 241Z" fill="#CE44A2"/>
<path id="Vector_2" d="M789 20.21C808.12 20.21 827.8 20.65 847.52 21.5C987.52 27.5 1102.52 76.02 1115.02 107C1154.02 203.5 1025.37 236.5 905.52 236.5C785.67 236.5 609.52 92.91 609.52 59.5C609.5 31.59 692 20.21 789 20.21ZM789 11.21C737 11.21 692.78 14.44 661.18 20.55C643.36 24 629.38 28.41 619.65 33.67C606.95 40.52 600.51 49.21 600.51 59.5C600.51 65.6 603.6 72.92 609.97 81.9C615.34 89.47 622.97 98.14 632.58 107.66C652.31 127.14 678.92 148.56 707.51 167.98C740.03 190.06 773.82 208.68 805.22 221.84C842.68 237.54 876.42 245.5 905.51 245.5C952.65 245.5 996.25 240.5 1031.61 231.17C1074.26 219.86 1103.66 202.59 1119 179.84C1133.59 158.21 1135 132.57 1123.35 103.63C1112.63 77.09 1055.92 54.76 1032.04 46.39C977.55 27.29 912.15 15.26 847.9 12.51C827.83 11.65 808.02 11.21 789 11.21Z" fill="#17091D"/>
<path id="Vector_3" d="M1085.5 114.5C1124.5 211 1025.35 262.5 905.5 262.5C785.65 262.5 609.5 118.91 609.5 85.4997C609.5 52.0897 727.76 42.3697 847.5 47.4997C987.5 53.4997 1073 83.5197 1085.5 114.5Z" fill="#9C398C" stroke="#17091D" stroke-width="9" stroke-linecap="round" stroke-linejoin="round"/>
</g>
<g id="glove 2">
<path id="Vector_4" d="M1417.21 1611.77C1404.34 1611.77 1389.7 1605.69 1375.55 1599.77C1370.72 1597.77 1366.17 1595.87 1361.88 1594.31C1355.12 1591.85 1350.32 1590.71 1346.76 1590.71C1346.17 1590.71 1345.58 1590.75 1345 1590.82C1343.28 1591.06 1341.54 1591.19 1339.8 1591.19C1329.87 1591.19 1320.7 1587.07 1315.27 1580.19C1313.06 1577.44 1311.51 1574.21 1310.76 1570.76C1310 1567.31 1310.05 1563.74 1310.91 1560.31C1310.99 1560.01 1311.05 1559.71 1311.11 1559.39C1314.01 1544.3 1323.49 1499.39 1328.72 1482.62C1330.58 1476.62 1327.85 1468.27 1324.96 1459.41C1321.29 1448.13 1317.11 1435.34 1322.25 1424.41C1322.55 1423.78 1322.85 1423.19 1323.16 1422.59C1331.72 1406.22 1356.69 1374.52 1362.24 1367.59C1361.97 1361.24 1361.14 1338.13 1361.87 1313.65C1363.64 1254.39 1372.62 1244.95 1375.58 1241.85C1376.67 1240.62 1378 1239.62 1379.49 1238.94C1380.98 1238.25 1382.6 1237.88 1384.24 1237.85C1393.56 1237.85 1419.24 1229.17 1439.79 1222.19C1453.79 1217.43 1467.12 1212.93 1475.39 1210.99C1479.32 1210.05 1483.35 1209.57 1487.39 1209.56C1498.39 1209.56 1507.25 1213.3 1514.39 1216.3C1519.65 1218.52 1524.19 1220.44 1528.26 1220.44C1529.67 1220.45 1531.06 1220.2 1532.38 1219.7C1533.11 1219.43 1533.89 1219.29 1534.67 1219.29C1541.17 1219.29 1544.17 1227.84 1546.67 1240.69C1548.53 1250.28 1550.23 1263.59 1551.67 1280.25C1553.91 1305.38 1554.99 1330.8 1555.21 1336.25C1560.9 1346.6 1605.21 1429.46 1599.21 1489.05C1597.4 1507.11 1591.07 1521.42 1580.4 1531.59L1579.73 1532.21C1574.9 1536.66 1570.01 1540.9 1565.17 1544.84C1553.5 1554.46 1540.95 1562.96 1527.68 1570.21C1501.04 1584.52 1483.31 1586.06 1476.92 1586.06C1475.51 1586.07 1474.09 1585.98 1472.69 1585.79H1472.35C1471.87 1585.8 1471.39 1585.89 1470.93 1586.03C1467.7 1586.96 1463.19 1590.15 1457.93 1593.84C1449.16 1600.04 1438.24 1607.76 1424.93 1610.93C1422.4 1611.51 1419.81 1611.79 1417.21 1611.77Z" fill="#CE44A2"/>
<path id="Vector_5" d="M1487.38 1214.05C1505.45 1214.05 1516.93 1224.92 1528.22 1224.92C1530.16 1224.94 1532.09 1224.6 1533.91 1223.92C1534.14 1223.83 1534.38 1223.79 1534.63 1223.79C1546.63 1223.79 1550.77 1337.53 1550.77 1337.53C1550.77 1337.53 1600.9 1427.03 1594.77 1488.65C1593.19 1504.35 1587.97 1518.23 1577.33 1528.37L1576.69 1528.97C1571.8 1533.47 1567.02 1537.61 1562.36 1541.39C1550.92 1550.84 1538.6 1559.18 1525.58 1566.29C1502.52 1578.68 1485.4 1581.61 1476.95 1581.61C1475.76 1581.62 1474.57 1581.54 1473.39 1581.38C1473.06 1581.33 1472.72 1581.31 1472.39 1581.31C1471.49 1581.32 1470.59 1581.46 1469.73 1581.72C1459.73 1584.59 1444.63 1601.66 1423.92 1606.57C1421.73 1607.07 1419.49 1607.32 1417.24 1607.3C1400.99 1607.3 1380.12 1596.23 1363.44 1590.16C1357.14 1587.86 1351.44 1586.29 1346.79 1586.29C1345.99 1586.29 1345.2 1586.34 1344.41 1586.44C1342.89 1586.66 1341.35 1586.76 1339.82 1586.76C1324.15 1586.76 1311.98 1575.3 1315.3 1561.42C1315.39 1561.05 1315.48 1560.67 1315.55 1560.25C1318.74 1543.67 1328.03 1500.04 1333.03 1484.02C1338.03 1468 1318.2 1443.7 1326.34 1426.37C1326.6 1425.82 1326.87 1425.27 1327.16 1424.72C1336.51 1406.84 1366.82 1369.08 1366.82 1369.08C1366.82 1369.08 1360.64 1242.36 1384.26 1242.36C1400.64 1242.36 1455.52 1220.27 1476.44 1215.36C1480.04 1214.5 1483.73 1214.07 1487.44 1214.06M1487.44 1205.06C1483.06 1205.08 1478.7 1205.59 1474.44 1206.6C1465.96 1208.6 1452.59 1213.12 1438.44 1217.92C1419.22 1224.43 1392.91 1233.35 1384.33 1233.35C1382.08 1233.37 1379.85 1233.86 1377.8 1234.79C1375.75 1235.72 1373.91 1237.06 1372.41 1238.74C1366.78 1244.66 1359.1 1258.84 1357.47 1313.51C1356.78 1336.61 1357.47 1357.98 1357.77 1366.09C1350.6 1375.15 1327.55 1404.71 1319.26 1420.54C1318.96 1421.12 1318.65 1421.75 1318.26 1422.47V1422.53C1312.37 1435.08 1316.83 1448.77 1320.77 1460.84C1323.32 1468.65 1325.95 1476.71 1324.51 1481.32C1319.23 1498.25 1309.69 1543.42 1306.79 1558.54C1306.79 1558.54 1306.79 1558.6 1306.79 1558.64C1306.79 1558.68 1306.71 1559.03 1306.66 1559.24V1559.31C1305.64 1563.4 1305.58 1567.66 1306.48 1571.77C1307.38 1575.89 1309.22 1579.74 1311.86 1583.02C1318.14 1591.02 1328.63 1595.73 1339.92 1595.73C1341.87 1595.73 1343.82 1595.59 1345.76 1595.32C1346.13 1595.27 1346.51 1595.25 1346.89 1595.25C1349.89 1595.25 1354.31 1596.34 1360.47 1598.58C1364.66 1600.11 1369.17 1601.98 1373.95 1603.97C1388.51 1609.97 1403.57 1616.26 1417.34 1616.26C1420.28 1616.27 1423.22 1615.93 1426.09 1615.26C1440.29 1611.9 1451.6 1603.9 1460.7 1597.47C1465.18 1594.3 1469.81 1591.02 1472.31 1590.31H1472.47C1473.99 1590.51 1475.52 1590.6 1477.06 1590.59C1483.79 1590.59 1502.41 1589 1529.94 1574.21C1543.47 1566.83 1556.26 1558.17 1568.15 1548.36C1573.05 1544.36 1578.01 1540.08 1582.89 1535.58L1582.95 1535.52L1583.65 1534.87C1595.11 1523.94 1601.9 1508.69 1603.82 1489.54C1606.52 1462.54 1599.7 1427.96 1583.57 1386.71C1576.66 1369.05 1568.72 1351.8 1559.8 1335.06C1559.5 1327.88 1558.41 1303.74 1556.28 1279.86C1554.79 1263.05 1553.06 1249.58 1551.17 1239.86C1550.31 1234.9 1548.99 1230.03 1547.23 1225.31C1544.4 1218.31 1540.23 1214.82 1534.77 1214.81C1533.45 1214.81 1532.14 1215.05 1530.91 1215.51C1530.09 1215.82 1529.22 1215.97 1528.35 1215.96C1525.19 1215.96 1521.03 1214.21 1516.23 1212.18C1508.74 1209.02 1499.42 1205.09 1487.51 1205.09L1487.44 1205.06Z" fill="#17091D"/>
<path id="Vector_6" d="M1344.38 1586.42C1349.38 1585.72 1355.98 1587.42 1363.38 1590.14C1382.45 1597.08 1406.99 1610.55 1423.86 1606.55C1444.57 1601.64 1459.68 1584.55 1469.67 1581.7C1470.85 1581.32 1472.11 1581.21 1473.34 1581.36C1479.67 1582.36 1498.52 1580.78 1525.53 1566.27C1538.56 1559.16 1550.87 1550.82 1562.31 1541.37C1566.98 1537.58 1571.75 1533.44 1576.64 1528.95L1577.28 1528.35C1585.65 1520.23 1591.28 1506.35 1594.72 1488.63C1600.87 1427.01 1550.72 1337.51 1550.72 1337.51C1550.72 1337.51 1546.42 1219.23 1533.86 1223.9C1518.39 1229.67 1504.55 1208.74 1476.36 1215.35C1455.44 1220.26 1400.56 1242.35 1384.18 1242.35C1360.56 1242.35 1366.74 1369.07 1366.74 1369.07C1366.74 1369.07 1336.43 1406.83 1327.08 1424.71C1326.79 1425.26 1326.52 1425.81 1326.26 1426.36C1332.53 1420.63 1363.52 1393.18 1386.33 1389.97C1411.81 1386.39 1474.83 1384.07 1497.44 1378.58C1520.05 1373.09 1538.81 1402.52 1546.84 1437.88C1552.22 1461.49 1565.71 1491.09 1559.1 1513.56C1555.82 1524.74 1547.58 1534.15 1530.92 1540.21C1529.17 1540.85 1527.45 1541.46 1525.78 1542.05C1501.26 1550.6 1483.24 1554.18 1468.91 1557.34C1455.91 1560.2 1445.97 1562.71 1436.91 1568.23C1422.22 1577.23 1397.82 1593.74 1358.91 1582.23C1346.05 1578.42 1331.59 1571.52 1315.38 1560.23C1315.31 1560.65 1315.22 1561.03 1315.13 1561.4C1311.63 1576.61 1326.59 1588.92 1344.38 1586.42Z" fill="#9C398C"/>
<path id="Vector_7" d="M1390.57 1543.13C1390.57 1543.13 1386.38 1512.48 1350.57 1492.13" stroke="#17091D" stroke-width="8.86" stroke-linecap="round" stroke-linejoin="round"/>
<path id="Vector_8" d="M1371.86 1512.65C1371.86 1512.65 1336.51 1556.23 1366.51 1594.45" stroke="#17091D" stroke-width="8.86" stroke-linecap="round" stroke-linejoin="round"/>
<path id="Vector_9" d="M1455.58 1510.44C1455.58 1510.44 1474.99 1557.3 1469.23 1584.36" stroke="#17091D" stroke-width="10.67" stroke-linecap="round" stroke-linejoin="round"/>
<path id="Vector_10" d="M1518.18 1514.17C1518.18 1514.17 1535.44 1557.86 1521.64 1573.73" stroke="#17091D" stroke-width="8.79" stroke-linecap="round" stroke-linejoin="round"/>
<path id="Vector_11" d="M1558.81 1512.72C1558.81 1512.72 1570.7 1539.99 1555.6 1552.1" stroke="#17091D" stroke-width="7" stroke-linecap="round" stroke-linejoin="round"/>
<path id="Vector_12" d="M1425 1567C1432.18 1567 1438 1554.24 1438 1538.5C1438 1522.76 1432.18 1510 1425 1510C1417.82 1510 1412 1522.76 1412 1538.5C1412 1554.24 1417.82 1567 1425 1567Z" fill="#D969BD"/>
<path id="Vector_13" d="M1496.06 1539.13C1503.02 1537.35 1506.16 1526.15 1503.08 1514.11C1500 1502.07 1491.86 1493.75 1484.91 1495.53C1477.95 1497.31 1474.81 1508.51 1477.89 1520.55C1480.97 1532.59 1489.1 1540.91 1496.06 1539.13Z" fill="#D969BD"/>
<path id="Vector_14" d="M1540.37 1518.54C1546.38 1517 1549.51 1508.94 1547.36 1500.54C1545.21 1492.14 1538.6 1486.58 1532.59 1488.12C1526.58 1489.65 1523.45 1497.71 1525.6 1506.11C1527.75 1514.51 1534.36 1520.07 1540.37 1518.54Z" fill="#D969BD"/>
</g>
<g id="arm 2">
<path id="Vector_15" d="M1383 1345.93C1363.75 1345.93 1355.45 1344.81 1350.1 1341.48C1343.62 1337.48 1342.94 1330.92 1342.1 1322.64C1341.78 1319.64 1341.42 1316.15 1340.75 1312.21C1336.89 1289.43 1351.62 1256.29 1364.62 1227.05C1372.18 1210.05 1380 1192.44 1379.01 1186.31C1376.2 1169.02 1342.39 1058.8 1340.93 1054.04L1310.53 975.13L1310.41 974.77L1201.23 600.39C1201.01 599.598 1201.01 598.761 1201.23 597.97C1201.37 597.46 1214.89 546.97 1228.84 496.61C1257.46 393.4 1259.84 391.5 1261.72 389.99C1262.29 389.53 1264.85 387.32 1275.72 377.56C1301.3 354.61 1346.25 304.5 1346.72 304C1347.14 303.528 1347.66 303.151 1348.23 302.893C1348.81 302.634 1349.44 302.5 1350.07 302.5C1350.2 302.49 1350.32 302.49 1350.45 302.5C1351.14 302.558 1351.82 302.777 1352.41 303.14C1353.01 303.502 1353.51 303.999 1353.88 304.59C1357.28 310 1436.35 436.4 1440.67 473.59C1448.21 486.26 1521.07 610.02 1520.24 661.96C1524.34 674.3 1578.59 836.14 1608.82 865.89C1627.4 884.2 1635.37 944.29 1638.82 991.47C1642.55 1043.12 1641.82 1094.92 1638.6 1107.75C1637.96 1117.89 1629.13 1248.53 1598.6 1279.01C1590.6 1287.01 1590.21 1294.82 1589.82 1303.09L1589.74 1304.73C1589.21 1315.29 1587.45 1325.35 1572.05 1332.42C1556.65 1339.49 1527.61 1343.17 1480.73 1343.97C1458.73 1344.35 1440.03 1344.81 1425.05 1345.18C1407.37 1345.59 1393.53 1345.93 1383 1345.93Z" fill="#CE44A2"/>
<path id="Vector_16" d="M1350 307C1350 307 1433.44 440 1436.22 475C1436.22 475 1517.3 610.23 1515.65 662.61C1515.65 662.61 1573.18 837.16 1605.59 869.07C1638 900.98 1640 1085 1634 1107C1634 1107 1625.52 1245.59 1595.25 1275.78C1585.41 1285.6 1585.54 1295.49 1585.08 1304.46C1584.13 1323.08 1580.7 1337.72 1480.48 1339.46C1432.84 1340.28 1402.48 1341.46 1383 1341.46C1341.77 1341.46 1349.36 1336.25 1345.16 1311.46C1338.98 1275 1386.36 1203.68 1383.42 1185.59C1380.48 1167.5 1345.16 1052.59 1345.16 1052.59L1314.7 973.53L1240.46 718.95L1205.53 599.15C1205.53 599.15 1259.53 397.52 1264.53 393.52C1265.67 392.61 1271.06 387.81 1278.71 380.93C1304.74 357.53 1350 307 1350 307ZM1350 298C1348.73 298.001 1347.48 298.269 1346.33 298.786C1345.17 299.303 1344.14 300.057 1343.3 301C1342.85 301.5 1298.06 351.43 1272.67 374.21C1261.23 384.5 1259.23 386.21 1258.88 386.47C1256.26 388.56 1254.95 389.61 1244.55 424.76C1239.44 442.03 1232.68 465.76 1224.48 495.41C1210.48 545.77 1196.99 596.3 1196.86 596.8C1196.43 598.391 1196.45 600.068 1196.91 601.65L1231.84 721.45L1306.08 976C1306.15 976.24 1306.23 976.48 1306.32 976.72L1336.67 1055.48C1346.51 1087.48 1372.23 1172.71 1374.56 1187C1374.56 1187.28 1374.86 1190 1371.27 1199.75C1368.62 1206.92 1364.67 1215.75 1360.5 1225.19C1347.24 1255.01 1332.22 1288.81 1336.31 1312.93C1336.95 1316.73 1337.31 1320.1 1337.62 1323.08C1338.53 1331.82 1339.4 1340.08 1347.74 1345.27C1353.91 1349.11 1362.81 1350.4 1383.02 1350.4C1393.58 1350.4 1407.45 1350.06 1425.02 1349.63C1440.02 1349.26 1458.63 1348.8 1480.66 1348.42C1528.84 1347.6 1557.56 1343.91 1573.79 1336.42C1592.94 1327.62 1593.66 1313.42 1594.1 1304.87C1594.1 1304.32 1594.15 1303.77 1594.18 1303.22C1594.56 1295.22 1594.85 1288.87 1601.64 1282.1C1615.77 1268 1626.64 1235.1 1634.9 1181.39C1640.29 1146.3 1642.59 1113.92 1642.96 1108.39C1646.53 1093.02 1646.67 1039.12 1643.2 991.11C1641.04 961.11 1637.73 935.45 1633.37 914.76C1627.82 888.45 1620.81 871.4 1611.92 862.65C1586.85 837.97 1540.92 710.31 1524.68 661.22C1524.75 637.79 1511.28 598.76 1484.62 545.15C1467.16 510.02 1449.32 479.45 1444.96 472.06C1443.66 462.82 1438.66 449.06 1429.72 430.13C1422.36 414.55 1412.34 395.48 1399.92 373.44C1378.85 336.06 1357.84 302.53 1357.63 302.2C1356.89 301.019 1355.89 300.026 1354.7 299.299C1353.51 298.572 1352.17 298.13 1350.78 298.01H1350.01L1350 298Z" fill="#17091D"/>
<path id="Vector_17" d="M1535.24 1195.4C1517.1 1177.4 1455.58 1157.89 1438.18 1125.55C1460.55 1120.72 1482.33 1116.03 1482.65 1116.06C1483.29 1116.12 1551 1102.93 1551 1102.93L1598.28 1095.52C1575.43 1094 1552.71 1090.91 1530.28 1086.27C1468.98 1073.27 1420.73 1026.35 1405.05 965.67L1404.9 965.08C1403.45 959.51 1402.27 954.08 1401.3 948.78L1448 924L1556.61 882.44L1492 887L1490.55 887.09C1466.33 888.58 1442.46 880.642 1423.96 864.939C1405.46 849.236 1393.74 826.984 1391.27 802.84C1390.27 793.16 1389.06 782.84 1387.57 771.72C1386.41 763.08 1384.57 752.91 1382.27 741.56L1441.8 710.46L1494 686C1494 686 1481 691 1423.64 709.25L1423.12 709.41C1398.99 716.89 1373.55 702.41 1367.23 677.94C1341.31 577.75 1299.04 444.05 1278.68 380.94C1271.03 387.82 1265.68 392.62 1264.5 393.53C1259.5 397.53 1205.5 599.16 1205.5 599.16L1240.43 718.96L1314.67 973.54L1345.13 1052.6C1345.13 1052.6 1380.45 1167.53 1383.39 1185.6C1386.33 1203.67 1339 1275 1345.18 1311.46C1351.36 1347.92 1332 1342 1480.5 1339.46C1580.72 1337.74 1586 1327 1586 1295C1571.25 1250.82 1565 1225 1535.24 1195.4Z" fill="#9C398C"/>
<path id="Vector_18" d="M1318.5 589.5C1318.5 589.5 1436.97 500.2 1441.5 476.5" stroke="#17091D" stroke-width="9" stroke-linecap="round" stroke-linejoin="round"/>
<path id="Vector_19" d="M1345.18 757.43C1345.18 757.43 1514.81 689.81 1520.5 663.5" stroke="#17091D" stroke-width="9" stroke-linecap="round" stroke-linejoin="round"/>
<path id="Vector_20" d="M1331.58 985.66C1331.58 985.66 1492.92 897.66 1545.21 885.09C1597.5 872.52 1609.35 875.27 1609.35 875.27" stroke="#17091D" stroke-width="9" stroke-linecap="round" stroke-linejoin="round"/>
<path id="Vector_21" d="M1371.89 1142C1371.89 1142 1553.48 1095.69 1600.99 1098.12C1648.5 1100.55 1637.5 1100.55 1637.5 1100.55" stroke="#17091D" stroke-width="9" stroke-linecap="round" stroke-linejoin="round"/>
<path id="Vector_22" d="M1357 1256.17C1357 1256.17 1506 1265.11 1546.76 1275.8C1587.52 1286.49 1591.22 1292.37 1591.22 1292.37" stroke="#17091D" stroke-width="9" stroke-linecap="round" stroke-linejoin="round"/>
</g>
<path id="Vector_23" d="M955.79 1563.93C851.51 1563.93 732.3 1551.75 650.66 1541.54C560.45 1530.25 494.22 1518.72 493.56 1518.6C492.542 1518.42 491.616 1517.9 490.938 1517.12C490.261 1516.33 489.873 1515.34 489.84 1514.31C489.84 1513.54 487.6 1437.05 497.12 1382.96C506.36 1330.42 497.81 955.79 497.51 942.65L457.07 703L447.07 643.78C442.12 635.55 397.67 560.97 362.91 479.47C312.98 362.47 305.91 287.41 342.02 256.47C386.45 218.41 452.93 199.76 500.87 190.82H501.12C510.81 189.01 520.64 187.42 530.34 186.08L532.89 185.73C564.11 181.56 586.37 180.89 588.42 180.83H589L1125.61 204.23C1126.03 204.252 1126.44 204.33 1126.83 204.46L1127.83 204.82H1127.95L1128.3 204.94L1128.73 205.08L1129.2 205.25C1133.32 206.72 1142.97 210.15 1155.99 214.93C1172.72 221.06 1189.18 227.28 1204.9 233.4C1297.35 269.4 1349.75 295.72 1360.66 311.75C1375.02 332.85 1379.35 388.51 1383.94 447.43C1386.59 481.43 1389.33 516.55 1394.1 543.19C1406.32 611.37 1371.67 699.74 1366.97 711.29C1375.13 774.93 1359.97 848.97 1349.97 898.07C1344.65 924.14 1339.63 948.77 1342.1 954.8C1346.28 964.97 1343.74 985.97 1340.53 1012.56C1338.62 1028.36 1336.45 1046.27 1335.53 1063.89C1334.64 1080.38 1334.96 1094.28 1336.53 1106.39C1339.53 1129.64 1337.06 1147.79 1334.53 1167C1333.59 1174 1332.61 1181.34 1331.93 1188.89C1330.2 1207.98 1329.73 1232.36 1339.4 1268.49C1340.51 1272.66 1341.49 1276.77 1342.3 1280.7C1354.3 1338.61 1336.69 1376.12 1327.21 1396.27C1324.87 1401.27 1323.01 1405.21 1322.33 1407.89C1320.95 1413.35 1321.81 1416.89 1323.24 1422.69C1325.43 1431.61 1328.43 1443.83 1325.33 1470.42C1322.51 1494.57 1301.92 1512.28 1260.52 1526.16C1218.44 1540.27 1154.6 1550.73 1059.61 1559.06C1052.61 1559.68 1045.24 1560.3 1037.24 1560.94C1012.93 1562.94 985.52 1563.93 955.79 1563.93Z" fill="#CE44A2"/>
<path id="Vector_24" d="M588.82 185.34L1125.43 208.74L1126.43 209.07L1127.06 209.29L1127.27 209.36C1131.12 210.73 1140.97 214.23 1154.55 219.21C1167.93 224.12 1184.92 230.47 1203.38 237.65C1265.44 261.79 1344.04 295.22 1357.05 314.34C1379.05 346.68 1377.05 473 1389.78 544.04C1402.51 615.08 1362.46 710.74 1362.46 710.74C1375.82 811.48 1330 937 1338 956.57C1344.08 971.37 1333.52 1017.75 1331.09 1063.71C1330.29 1078.55 1330.35 1093.35 1332.09 1107.02C1336.09 1138.38 1329.92 1160.95 1327.43 1188.55C1325.43 1210.25 1325.76 1235.06 1335.03 1269.71C1336.12 1273.79 1337.07 1277.79 1337.87 1281.71C1352.63 1352.81 1321.76 1391.86 1317.95 1406.88C1313.95 1422.72 1325.95 1426.04 1320.84 1470C1315.9 1512.34 1248.26 1538.09 1059.2 1554.68C1051.94 1555.35 1044.49 1555.97 1036.86 1556.55C1011.51 1558.55 984.18 1559.47 955.76 1559.47C855.22 1559.47 740.9 1548.34 651.19 1537.11C560.04 1525.71 494.31 1514.21 494.31 1514.21C494.31 1514.21 492 1438 501.55 1383.74C511.1 1329.48 502 942.22 502 942.22L461.51 702.22L451.38 642.2C451.38 642.2 262 331 345 260C387.49 223.6 450.45 204.92 501.75 195.35H501.84C512.12 193.43 521.92 191.87 531 190.62L533.38 190.29H533.54C564.63 186.14 586.63 185.48 588.7 185.43H588.86M588.86 176.43H588.26C585.66 176.5 563.43 177.21 532.35 181.36H532.14L531.66 181.42L529.77 181.68C520.04 183.02 510.17 184.62 500.44 186.44H500.1C469.57 192.14 441.57 199.77 416.88 209.14C385.43 221.07 359.28 235.86 339.14 253.14C317.7 271.52 310.49 304.46 317.74 351.06C323.24 386.45 337.06 430.26 358.82 481.28C392.82 560.99 436.07 634.12 442.82 645.41L452.67 703.79L493 943.08C493.41 961 501.77 1330.43 492.67 1382.18C483.07 1436.72 485.23 1511.3 485.32 1514.45C485.383 1516.52 486.159 1518.51 487.516 1520.07C488.874 1521.64 490.729 1522.68 492.77 1523.04C493.43 1523.15 559.77 1534.7 650.08 1546.04C731.85 1556.27 851.26 1568.47 955.77 1568.47C985.62 1568.47 1013.15 1567.47 1037.59 1565.47C1045.72 1564.82 1053.05 1564.21 1060 1563.6C1155.35 1555.23 1219.52 1544.71 1261.94 1530.48C1283.41 1523.28 1299.25 1515.11 1310.35 1505.48C1321.72 1495.66 1328.26 1484.05 1329.79 1470.95C1332.99 1443.55 1329.79 1430.36 1327.6 1421.63C1326.25 1416.13 1325.6 1413.37 1326.68 1409C1327.26 1406.74 1329.12 1402.78 1331.28 1398.19C1340.97 1377.57 1359.02 1339.19 1346.69 1279.79C1345.87 1275.79 1344.88 1271.61 1343.69 1267.34C1334.21 1231.89 1334.69 1208 1336.36 1189.34C1337.04 1181.88 1338.01 1174.64 1338.94 1167.64C1341.44 1148.99 1344.02 1129.7 1340.94 1105.86C1339.43 1094.02 1339.12 1080.39 1340 1064.17C1340.92 1046.7 1343.08 1028.87 1345 1013.17C1348.41 984.89 1350.88 964.45 1346.28 953.17C1346.09 952.59 1345.33 949.17 1347.33 936.09C1348.83 926.24 1351.4 913.62 1354.33 899.01C1364.33 849.91 1379.42 776.01 1371.5 711.92C1378.6 693.747 1384.59 675.155 1389.42 656.25C1400.92 611.47 1403.96 573.17 1398.42 542.43C1393.69 516.02 1390.96 480.99 1388.32 447.12C1383.68 387.58 1379.32 331.35 1364.32 309.26C1359.96 302.84 1348.78 291.76 1302.32 269.73C1277.32 257.86 1245.06 244.24 1206.5 229.24C1190.74 223.11 1174.25 216.88 1157.5 210.74C1144.34 205.91 1134.68 202.48 1130.55 201.01L1130.27 200.91C1130.02 200.81 1129.8 200.74 1129.6 200.68H1129.5L1129.29 200.6L1128.18 200.21C1127.39 199.945 1126.56 199.794 1125.72 199.76L589.11 176.36L588.86 176.43Z" fill="#17091D"/>
<path id="Vector_25" d="M751.56 1448.33C744.945 1448 738.358 1447.25 731.84 1446.08C693.5 1438.5 640.13 1431.94 639.84 1435.22C639.63 1437.34 646.41 1495.89 651.24 1537.07C560.09 1525.67 494.36 1514.17 494.36 1514.17C494.36 1514.17 492 1438 501.55 1383.74C511.1 1329.48 502 942.22 502 942.22L461.51 702.22L521.31 666.85C521.31 666.85 503.26 493.13 516 453C528.74 412.87 602.55 608.27 582.53 666.89C576.937 683.588 572.401 700.622 568.95 717.89C557.06 776.32 553.87 848.52 582.53 885.09C620.53 933.55 680 969.091 680 969.091C680 969.091 649.43 961.901 624.44 965.901C610.61 968.12 598.67 972.9 594.94 982.24C584.5 1008.59 565.72 1095.74 573.11 1128.66C580.5 1161.58 676.86 1202.48 695.68 1206.53C711.53 1209.95 625.32 1316.53 629.91 1353.07C634.5 1389.61 773 1444 841 1453C899.39 1460.71 797.44 1451.08 751.56 1448.33Z" fill="#9C398C"/>
<path id="Vector_26" d="M472 447.7C472 447.7 877.63 439.25 1022.07 443.88C1166.51 448.51 1383.5 464.5 1383.5 464.5" stroke="#17091D" stroke-width="9" stroke-linecap="round" stroke-linejoin="round"/>
<path id="Vector_27" d="M514.31 717.79C514.31 717.79 1289.5 726.5 1365.5 710.5" stroke="#17091D" stroke-width="9" stroke-linecap="round" stroke-linejoin="round"/>
<path id="Vector_28" d="M1335.85 946.189C1335.85 946.189 854.32 999.249 601.91 962.869L509.91 946.189" stroke="#17091D" stroke-width="9" stroke-linecap="round" stroke-linejoin="round"/>
<path id="Vector_29" d="M506 1185.59C506 1185.59 738 1242.07 973.75 1237.78C1209.5 1233.49 1329.48 1187.5 1329.48 1187.5" stroke="#17091D" stroke-width="9" stroke-linecap="round" stroke-linejoin="round"/>
<path id="Vector_30" d="M1318 1406.84C1318 1406.84 1170.15 1548.84 513.34 1404.66" stroke="#17091D" stroke-width="9" stroke-linecap="round" stroke-linejoin="round"/>
<path id="Vector_31" d="M995.211 314.35C995.211 314.35 1032.21 421.06 1029.34 443.78C1029.34 443.78 1045.16 669.07 1036.83 715.29C1036.83 715.29 1051.83 894.65 1026.15 965.08C1026.15 965.08 1043.15 1181.95 1023.33 1233.73C1023.33 1233.73 1054.48 1400.08 1021.49 1469.29L1022.24 1557.11" stroke="#17091D" stroke-width="9" stroke-linecap="round" stroke-linejoin="round"/>
<path id="Vector_32" d="M1032.22 314.74C1032.22 314.74 1069.22 421.45 1066.36 444.17C1066.36 444.17 1082.17 669.46 1073.84 715.68C1073.84 715.68 1088.84 895.04 1063.17 965.47C1063.17 965.47 1080.17 1182.34 1060.34 1234.12C1060.34 1234.12 1091.49 1400.47 1058.5 1469.68L1059.25 1557.5" stroke="#17091D" stroke-width="9" stroke-linecap="round" stroke-linejoin="round"/>
<path id="Vector_33" d="M1337.9 1286.17C1337.16 1286.17 1336.43 1285.99 1335.77 1285.64C1335.12 1285.29 1334.56 1284.79 1334.15 1284.17C1324.27 1269.32 1311.26 1248.54 1305.37 1233.85C1303.22 1228.47 1300.17 1216.21 1296.37 1197.4C1286.21 1147.91 1271.21 1055.46 1272.18 1044.11C1273.56 1027.87 1307.84 1026.47 1314.69 1026.36H1314.77C1315.6 1026.37 1316.41 1026.6 1317.12 1027.04C1317.83 1027.48 1318.4 1028.11 1318.77 1028.85L1335.17 1061.71C1335.52 1062.41 1335.67 1063.18 1335.63 1063.96C1334.74 1080.45 1335.06 1094.35 1336.63 1106.46C1339.63 1129.71 1337.16 1147.86 1334.63 1167.07C1333.69 1174.07 1332.71 1181.41 1332.03 1188.96C1330.3 1208.05 1329.83 1232.43 1339.5 1268.56C1340.61 1272.74 1341.59 1276.85 1342.4 1280.77C1342.61 1281.79 1342.45 1282.86 1341.97 1283.78C1341.48 1284.7 1340.68 1285.43 1339.72 1285.83C1339.14 1286.07 1338.52 1286.19 1337.9 1286.17Z" fill="#CE44A2"/>
<path id="Vector_34" d="M1314.72 1030.85L1331.12 1063.71C1330.32 1078.55 1330.38 1093.35 1332.12 1107.02C1336.12 1138.38 1329.95 1160.95 1327.46 1188.55C1325.46 1210.25 1325.79 1235.06 1335.06 1269.71C1336.15 1273.79 1337.1 1277.79 1337.9 1281.71C1329.33 1268.83 1315.51 1247.08 1309.55 1232.21C1307.37 1226.76 1304.22 1213.56 1300.73 1196.53C1289.91 1143.81 1275.73 1054.36 1276.61 1044.53C1277.72 1031.53 1314.72 1030.9 1314.72 1030.9M1314.72 1021.9H1314.57C1307.8 1022.09 1301.06 1022.79 1294.4 1023.99C1277.49 1027.2 1268.49 1033.85 1267.64 1043.77C1266.64 1055.66 1281.47 1147.44 1291.91 1198.35C1295.91 1217.68 1298.91 1229.85 1301.19 1235.56C1307.19 1250.56 1320.41 1271.68 1330.41 1286.71C1331.57 1288.45 1333.29 1289.73 1335.29 1290.34C1337.29 1290.95 1339.44 1290.84 1341.37 1290.04C1343.3 1289.23 1344.89 1287.78 1345.86 1285.93C1346.84 1284.09 1347.14 1281.96 1346.72 1279.91C1345.89 1275.91 1344.9 1271.71 1343.72 1267.44C1334.23 1231.99 1334.72 1208.1 1336.38 1189.44C1337.06 1181.98 1338.03 1174.74 1338.96 1167.74C1341.46 1149.09 1344.04 1129.8 1340.96 1105.96C1339.45 1094.12 1339.14 1080.49 1340.02 1064.27C1340.1 1062.71 1339.78 1061.16 1339.08 1059.77L1322.68 1026.91C1321.94 1025.42 1320.8 1024.16 1319.39 1023.28C1317.97 1022.4 1316.35 1021.92 1314.68 1021.91L1314.72 1021.9Z" fill="#17091D"/>
<path id="Vector_35" d="M631.42 1333.09C621.92 1333.09 613.94 1328.45 608.35 1319.68C604.797 1313.95 602.79 1307.4 602.524 1300.67C602.257 1293.93 603.741 1287.24 606.83 1281.25C627.52 1240.48 696.05 1102.77 709.33 1042.73C709.97 1039.85 711.216 1037.14 712.986 1034.78C714.755 1032.43 717.007 1030.47 719.592 1029.05C722.176 1027.63 725.034 1026.78 727.973 1026.55C730.913 1026.32 733.868 1026.73 736.64 1027.73L773.1 1040.88C775.622 1041.79 777.939 1043.18 779.92 1044.99C781.901 1046.79 783.505 1048.97 784.641 1051.4C785.778 1053.83 786.424 1056.45 786.542 1059.13C786.66 1061.81 786.248 1064.48 785.33 1067C760.27 1135.67 697.73 1298.1 658.33 1323.42C648.4 1329.85 639.33 1333.09 631.42 1333.09Z" fill="#CE44A2"/>
<path id="Vector_36" d="M729.58 1031C731.468 1031.01 733.339 1031.35 735.11 1032L771.57 1045.14C773.537 1045.85 775.345 1046.94 776.889 1048.34C778.434 1049.75 779.684 1051.45 780.57 1053.34C781.456 1055.24 781.958 1057.29 782.049 1059.37C782.14 1061.46 781.818 1063.55 781.1 1065.51C761.81 1118.38 695.29 1294.38 655.92 1319.68C645.92 1326.09 637.92 1328.61 631.41 1328.61C622.18 1328.61 616.11 1323.51 612.14 1317.28C608.994 1312.21 607.219 1306.41 606.991 1300.45C606.763 1294.49 608.09 1288.57 610.84 1283.28C631.65 1242.28 700.33 1104.28 713.72 1043.69C714.526 1040.09 716.536 1036.86 719.42 1034.56C722.303 1032.25 725.888 1031 729.58 1031ZM729.58 1022C723.846 1022.02 718.288 1023.99 713.813 1027.57C709.338 1031.16 706.211 1036.16 704.94 1041.75C691.78 1101.26 623.45 1238.55 602.82 1279.21C599.375 1285.9 597.723 1293.36 598.027 1300.88C598.33 1308.39 600.578 1315.7 604.55 1322.09C611.01 1332.22 620.3 1337.58 631.41 1337.58C640.21 1337.58 650.09 1334.1 660.78 1327.22C679.37 1315.28 703.4 1275.81 734.26 1206.57C757.97 1153.37 779.08 1097.27 789.56 1068.57C790.681 1065.49 791.183 1062.23 791.038 1058.96C790.894 1055.68 790.105 1052.47 788.717 1049.51C787.329 1046.54 785.369 1043.88 782.95 1041.67C780.531 1039.47 777.701 1037.76 774.62 1036.65L738.16 1023.51C735.409 1022.52 732.506 1022.01 729.58 1022.01V1022Z" fill="#17091D"/>
<g id="glove 1">
<path id="Vector_37" d="M486 1632.18C474.17 1632.18 463.08 1628.76 454.17 1626C448.26 1624.18 443.17 1622.6 439.76 1622.6H439.41C438.823 1622.59 438.242 1622.71 437.7 1622.93C432.95 1625.32 422.7 1627.85 408.26 1627.85C399.011 1627.79 389.786 1626.92 380.69 1625.25H380.57C365.683 1622.48 351.094 1618.3 337 1612.77C331.18 1610.54 325.21 1608.03 319.26 1605.32L318.38 1604.9C305.1 1598.57 294.64 1586.9 287.31 1570.34C263.39 1516.12 279.11 1424.98 281.56 1411.82C279.61 1407.67 273.5 1394.51 267.91 1380.37C255.23 1348.27 256.01 1338.88 257.71 1334.6C258.097 1333.52 258.711 1332.53 259.512 1331.7C260.312 1330.88 261.28 1330.23 262.35 1329.81C267.35 1327.87 272.82 1325.69 278.59 1323.38C313.29 1309.5 360.82 1290.5 398.99 1290.5C410.68 1290.5 420.99 1292.29 429.67 1295.84C430.13 1296.03 430.6 1296.25 431.11 1296.51C432.088 1297 433.027 1297.57 433.92 1298.21L434.17 1298.39C454.17 1312.97 471.67 1370.49 474.79 1381.19C482.19 1386.07 515.79 1408.47 529.06 1421.37C529.54 1421.84 530.01 1422.37 530.46 1422.8C535.247 1428.04 538.982 1434.15 541.46 1440.8C542.74 1444.01 543.82 1447.25 544.86 1450.38C547.1 1457.11 549.22 1463.47 553.06 1468.86C558.86 1477.02 564.92 1495.86 570.77 1514.1C575.08 1527.52 579.54 1541.39 582.97 1547.58L583.45 1548.41C585.503 1551.65 586.707 1555.36 586.95 1559.19C587.193 1563.02 586.467 1566.85 584.84 1570.32C580.76 1579.43 571.68 1586.05 560.54 1588.04C555.85 1588.88 549.77 1593.33 545.54 1596.6C541.95 1599.42 538.21 1602.6 534.25 1606.04C520.78 1617.6 505.51 1630.71 490.76 1631.94C489.28 1632.11 487.63 1632.18 486 1632.18Z" fill="#CE44A2"/>
<path id="Vector_38" d="M399 1295C409.57 1295 419.38 1296.49 428 1300C428.34 1300.14 428.7 1300.31 429.09 1300.51C429.915 1300.92 430.705 1301.4 431.45 1301.95L431.63 1302.07C452.14 1317.07 470.96 1384.07 470.96 1384.07C470.96 1384.07 511.5 1410.54 525.96 1424.63C526.4 1425.06 526.83 1425.5 527.25 1425.94C531.652 1430.77 535.081 1436.41 537.35 1442.54C541.35 1452.54 543.35 1462.95 549.47 1471.54C559.2 1485.21 570.93 1535.06 579.11 1549.83C579.31 1550.2 579.51 1550.54 579.71 1550.83C587.9 1564.16 577.51 1580.5 559.82 1583.66C554.82 1584.55 549.11 1588.23 542.89 1593.11C526.89 1605.63 507.78 1626.11 490.51 1627.5C489 1627.63 487.51 1627.69 485.99 1627.69C466.87 1627.69 449.51 1618.11 439.75 1618.11H439.24C437.998 1618.12 436.773 1618.4 435.65 1618.93C431.89 1620.81 422.65 1623.36 408.25 1623.36C399.229 1623.3 390.231 1622.45 381.36 1620.81C366.769 1618.1 352.471 1614 338.66 1608.57C333.06 1606.42 327.233 1603.97 321.18 1601.22L320.39 1600.85C307.13 1594.52 297.85 1582.95 291.47 1568.51C266.47 1511.86 286.3 1411.21 286.3 1411.21C286.3 1411.21 251.5 1338.83 264 1334C299.4 1320.32 355.52 1295 399 1295ZM399 1286C360 1286 312 1305.2 276.92 1319.21C271.17 1321.52 265.73 1323.69 260.74 1325.62C259.096 1326.27 257.605 1327.26 256.365 1328.52C255.125 1329.78 254.163 1331.28 253.54 1332.94C251.27 1338.69 250.7 1349.01 263.75 1382.03C268.95 1395.2 274.47 1407.24 276.89 1412.44C273.697 1430.86 271.563 1449.45 270.5 1468.12C267.98 1512.34 272.26 1547.34 283.21 1572.12C290.99 1589.73 302.21 1602.12 316.48 1608.94L317.34 1609.34H317.41C323.41 1612.08 329.49 1614.63 335.41 1616.9C349.755 1622.52 364.602 1626.78 379.75 1629.6H379.93C389.268 1631.31 398.738 1632.19 408.23 1632.25C421.01 1632.25 432.62 1630.3 439.38 1627.01H439.73C442.44 1627.01 447.48 1628.56 452.81 1630.21C462.01 1633.05 473.46 1636.58 485.97 1636.58C487.75 1636.58 489.52 1636.51 491.24 1636.37C507.44 1635.01 523.24 1621.37 537.24 1609.37C541.17 1606 544.87 1602.82 548.38 1600.06C554.25 1595.46 558.62 1592.88 561.38 1592.39C573.97 1590.14 584.29 1582.55 588.98 1572.08C590.885 1567.94 591.732 1563.39 591.446 1558.84C591.16 1554.29 589.749 1549.88 587.34 1546.01V1545.95C587.23 1545.76 587.12 1545.59 587.03 1545.41C587.032 1545.38 587.032 1545.36 587.03 1545.33C583.82 1539.52 579.43 1525.86 575.18 1512.64C568.95 1493.23 563.06 1474.9 556.85 1466.18C553.4 1461.33 551.39 1455.28 549.25 1448.88C548.19 1445.69 547.09 1442.39 545.76 1439.05C543.083 1431.87 539.042 1425.27 533.86 1419.63V1419.57C533.31 1419 532.86 1418.5 532.35 1418.04C519.53 1405.54 488.35 1384.57 478.78 1378.22C477.04 1372.37 473 1359.43 467.48 1345.28C457.05 1318.57 447.1 1302.03 437.05 1294.69L436.91 1294.59L436.58 1294.37C435.525 1293.62 434.411 1292.95 433.25 1292.37C432.65 1292.06 432.09 1291.81 431.55 1291.58C422.31 1287.8 411.42 1285.89 399.15 1285.89L399 1286Z" fill="#17091D"/>
<path id="Vector_39" d="M559.81 1583.66C554.81 1584.55 549.1 1588.23 542.88 1593.11C526.88 1605.63 507.77 1626.11 490.5 1627.5C469.28 1629.27 449.62 1617.74 439.23 1618.12C437.988 1618.13 436.762 1618.41 435.64 1618.94C429.92 1621.81 411.52 1626.21 381.35 1620.82C366.759 1618.11 352.461 1614.01 338.65 1608.58C333.05 1606.43 327.223 1603.98 321.17 1601.23L320.38 1600.86C309.9 1595.74 300.26 1584.24 291.46 1568.52C266.46 1511.87 286.29 1411.22 286.29 1411.22C286.29 1411.22 251.5 1338.83 264 1334C308 1317 384 1282 428 1300C428.34 1300.14 428.7 1300.31 429.09 1300.51C429.9 1300.95 430.688 1301.43 431.45 1301.95L431.63 1302.07C452.14 1317.07 470.96 1384.07 470.96 1384.07C470.96 1384.07 511.5 1410.54 525.96 1424.63C526.4 1425.06 526.83 1425.5 527.25 1425.94C531.651 1430.77 535.08 1436.41 537.35 1442.54C502.81 1438.71 437.48 1432.11 421.01 1435.04C395.68 1439.56 345.2 1450.23 322.01 1452.04C298.82 1453.85 317.82 1469.34 321.17 1505.44C323.4 1529.56 319.77 1561.88 333.04 1581.19C339.63 1590.79 350.39 1597.19 368.11 1597.76L373.57 1597.91C399.57 1598.42 417.77 1596.22 432.37 1594.77C445.6 1593.45 455.84 1592.77 466.12 1595.19C482.89 1599.19 511.2 1607.29 544.55 1584.19C555.55 1576.57 567.19 1565.52 579.1 1549.79C579.3 1550.16 579.5 1550.5 579.7 1550.79C587.89 1564.16 577.5 1580.5 559.81 1583.66Z" fill="#9C398C"/>
<path id="Vector_40" d="M502.45 1556.87C502.45 1556.87 496.91 1526.43 524.63 1496" stroke="#17091D" stroke-width="8.86" stroke-linecap="round" stroke-linejoin="round"/>
<path id="Vector_41" d="M510.77 1522.09C510.77 1522.09 557.91 1552.52 541.27 1598.17" stroke="#17091D" stroke-width="8.86" stroke-linecap="round" stroke-linejoin="round"/>
<path id="Vector_42" d="M430.5 1546C430.5 1546 426.61 1596.57 440.5 1620.5" stroke="#17091D" stroke-width="10.67" stroke-linecap="round" stroke-linejoin="round"/>
<path id="Vector_43" d="M372.16 1569C372.16 1569 369.34 1615.89 387.38 1626.68" stroke="#17091D" stroke-width="8.79" stroke-linecap="round" stroke-linejoin="round"/>
<path id="Vector_44" d="M333.1 1580.26C333.1 1580.26 330.27 1609.87 348.38 1616.68" stroke="#17091D" stroke-width="7" stroke-linecap="round" stroke-linejoin="round"/>
<path id="Vector_45" d="M461.5 1577C467.299 1577 472 1564.24 472 1548.5C472 1532.76 467.299 1520 461.5 1520C455.701 1520 451 1532.76 451 1548.5C451 1564.24 455.701 1577 461.5 1577Z" fill="#D969BD"/>
<path id="Vector_46" d="M397.5 1573C403.299 1573 408 1563.37 408 1551.5C408 1539.63 403.299 1530 397.5 1530C391.701 1530 387 1539.63 387 1551.5C387 1563.37 391.701 1573 397.5 1573Z" fill="#D969BD"/>
<path id="Vector_47" d="M350.5 1584C356.299 1584 361 1576.61 361 1567.5C361 1558.39 356.299 1551 350.5 1551C344.701 1551 340 1558.39 340 1567.5C340 1576.61 344.701 1584 350.5 1584Z" fill="#D969BD"/>
</g>
<g id="arm 1">
<path id="Vector_48" d="M308 1396C279.68 1396 257.1 1387.34 240.88 1370.24C227.29 1355.92 221.83 1339.24 219.78 1330.58C219.78 1330.58 219.5 1329.43 219.39 1328.96L218.84 1326.62C197.63 1236.32 187.17 1210.72 182.12 1205.15C180.59 1203.46 175.93 1198.3 168.12 1167.15C166.61 1161.1 165.04 1154.29 163.46 1146.91C162.17 1140.91 160.88 1134.5 159.61 1127.78L159.18 1125.53C151.94 1086.94 146.97 1047.53 146.52 1025.04C146.21 1009.54 145.38 994.86 144.57 980.67C143.75 966.13 142.97 952.39 142.92 940.01C142.85 926.01 143.74 915.34 145.71 906.49C146.6 902.49 147.39 899.27 148.08 896.43C150.08 888.43 151.01 884.43 150.84 876.91C150.65 868.73 149.12 856.53 145.53 830.49C138.53 779.37 167.72 680.04 176.84 650.81L177.31 649.31L178.25 646.31C171.14 593.99 184.06 540.89 196.2 505.47C203.695 483.312 213.031 461.821 224.11 441.22C224.11 440.22 224.02 439.31 223.98 438.37C223.867 436.37 223.753 434.44 223.64 432.58C221.79 401.94 220.46 379.8 280.95 295.58C297.21 272.95 341.5 256.39 343.38 255.7C343.86 255.522 344.368 255.428 344.88 255.42H346.26C379.91 255.42 412.83 271.99 441.44 303.33C454.505 317.634 465.658 333.574 474.62 350.75C507.13 411.24 533.71 514.85 543.62 569.75L543.89 571.33C553.49 627.33 533.89 682.73 518.41 719.51C517.035 722.843 515.895 726.268 515 729.76C513.762 734.477 512.836 739.271 512.23 744.11C511.94 746.36 511.69 748.77 511.45 751.48C510.54 762.36 510.52 773.64 510.51 785.57C510.51 804.75 510.46 824.57 506.41 843.09C503.06 858.35 499.98 875.68 497.22 894.62C494.8 911.33 493.42 923.83 493.11 926.77C510.67 977.7 497.44 1102.1 494.59 1126.66C494.59 1126.92 494.37 1128.53 494.33 1128.89C501.77 1159.2 499.85 1222.13 499.7 1226.74C499.83 1229.74 501.55 1270.3 501.51 1303.4C501.51 1303.77 501.51 1304.14 501.51 1304.52C501.51 1306.31 501.51 1308.07 501.51 1309.8C501.41 1321.33 501.09 1330.03 500.51 1336.4C498.09 1363.95 456.21 1371.48 392.82 1382.87C377.48 1385.63 360.09 1388.76 341.92 1392.41C330.759 1394.72 319.397 1395.92 308 1396Z" fill="#CE44A2"/>
<path id="Vector_49" d="M346.28 259.94C425.41 259.94 470.64 352.83 470.64 352.83C502.28 411.66 529 514 539.24 570.58L539.51 572.13C549.11 628.19 528.87 683.32 514.31 717.79C512.835 721.306 511.608 724.922 510.64 728.61C509.355 733.515 508.393 738.499 507.76 743.53C507.44 746.01 507.18 748.53 506.96 751.09C504.51 780.09 508.38 812.96 501.96 842.09C498.01 860.09 494.96 878.73 492.72 893.93C490.28 910.73 488.89 923.38 488.56 926.51C488.51 927 488.48 927.26 488.48 927.26C506.35 976.97 492.54 1104.8 490.07 1126.1C490.07 1126.38 490.01 1126.64 489.98 1126.89C489.81 1128.35 489.71 1129.13 489.71 1129.13C497.45 1159.3 495.15 1226.72 495.15 1226.72C495.15 1226.72 497 1268.84 496.96 1303.35C496.96 1303.71 496.96 1304.06 496.96 1304.42C496.96 1306.22 496.96 1307.99 496.96 1309.73C496.87 1319.96 496.59 1329.18 495.96 1335.96C493.3 1366.21 430.96 1369.86 340.96 1387.96C330.104 1390.23 319.05 1391.41 307.96 1391.5C245.29 1391.5 228.29 1347.19 224.12 1329.5C224.12 1329.44 224.12 1329.39 224.12 1329.33C224.01 1328.88 223.89 1328.39 223.77 1327.88C218.29 1304.59 197.67 1215.57 185.46 1202.08C181.65 1197.87 177.06 1184.25 172.46 1165.99C170.9 1159.77 169.35 1152.99 167.83 1145.9C166.51 1139.78 165.23 1133.4 164 1126.9L163.73 1125.51C163.68 1125.27 163.63 1124.98 163.57 1124.66C156.79 1088.52 151.46 1048.55 150.99 1024.9C150.36 993.1 147.48 963.98 147.39 939.9C147.33 927.63 148 916.69 150.07 907.39C153.5 891.97 155.56 887.72 155.31 876.73C155.11 868.11 153.48 855.34 149.96 829.8C143 779 173.5 676.71 181.16 652.17L181.63 650.67L182.63 647.59L182.89 646.78C168.76 546.55 228.7 442.39 228.7 442.39C228.65 440.97 228.58 439.58 228.51 438.21C226.81 405.34 221.25 386.53 284.65 298.21C300.27 276.46 345 260 345 260H346.32M346.32 251H344.88C343.855 251.011 342.84 251.2 341.88 251.56C339.95 252.27 294.41 269.29 277.36 293.03C249.36 332.03 232.73 360.38 224.94 382.37C217.44 403.57 218.3 417.85 219.21 432.97C219.33 434.85 219.44 436.76 219.54 438.72C219.54 439.24 219.59 439.72 219.62 440.28C208.704 460.765 199.467 482.102 192 504.08C184.416 525.912 178.797 548.378 175.21 571.21C171.21 597.67 170.68 622.82 173.72 645.98L173.09 647.98L172.61 649.52C163.42 678.98 133.98 779.12 141.13 831.17C144.7 857.03 146.22 869.17 146.4 877.08C146.56 884.08 145.69 887.61 143.77 895.41C143.07 898.28 142.28 901.52 141.37 905.58C139.37 914.76 138.37 925.73 138.48 940.08C138.53 952.58 139.31 966.38 140.14 980.99C140.95 995.14 141.78 1009.77 142.08 1025.19C142.53 1047.86 147.53 1087.6 154.81 1126.43V1126.7C154.86 1126.95 154.9 1127.17 154.94 1127.38C155.03 1127.83 155.12 1128.27 155.2 1128.71C156.47 1135.45 157.78 1141.92 159.07 1147.93C160.65 1155.33 162.24 1162.19 163.77 1168.31C171.01 1197.22 175.77 1204.95 178.77 1208.25C180.21 1209.85 185.86 1218.4 197.77 1261.33C204.9 1287.09 211.35 1314.52 214.44 1327.71L215 1330C215.11 1330.49 215.23 1331 215.33 1331.39C215.33 1331.49 215.33 1331.58 215.4 1331.66C217.55 1340.77 223.3 1358.28 237.6 1373.35C254.71 1391.35 278.39 1400.51 307.99 1400.51C319.667 1400.42 331.307 1399.17 342.74 1396.79C360.88 1393.15 378.24 1390.02 393.56 1387.27C425.44 1381.54 450.61 1377.01 469.28 1370.58C483.75 1365.58 503.18 1356.66 504.94 1336.76C505.51 1330.28 505.84 1321.47 505.94 1309.82C505.94 1308.07 505.94 1306.32 505.94 1304.54C505.94 1304.15 505.94 1303.76 505.94 1303.36C505.94 1270.72 504.31 1230.83 504.14 1226.69C504.32 1220.88 506.14 1159.45 498.82 1128.59C498.82 1128.39 498.87 1128.18 498.9 1127.94C498.93 1127.7 498.96 1127.42 498.99 1127.13C501.85 1102.49 514.99 978.68 497.62 926.23C498.07 922.12 499.4 910.42 501.62 895.23C504.35 876.4 507.42 859.23 510.74 844.02C514.89 825.02 514.92 804.96 514.95 785.55C514.95 773.71 514.95 762.55 515.88 751.82C516.1 749.19 516.35 746.82 516.64 744.65C517.217 740.013 518.102 735.42 519.29 730.9C520.15 727.615 521.239 724.393 522.55 721.26C538.31 683.96 558.12 627.76 548.33 570.58L548.19 569.78L548.06 569.02C548.056 568.997 548.056 568.973 548.06 568.95C538.06 513.78 511.34 409.64 478.6 348.68C469.451 331.155 458.069 314.89 444.74 300.29C431.79 286.1 417.91 274.77 403.49 266.59C385.13 256.19 365.86 250.91 346.24 250.91L346.32 251Z" fill="#17091D"/>
<path id="Vector_50" d="M490.11 1126.14L493.04 1127.14L490.04 1126.94C473.25 1125.78 454.6 1122.86 454.46 1115.6C454.45 1115.46 454.45 1115.32 454.46 1115.18C455.51 1101.51 462.1 1044.47 462.81 1007.99C463.52 971.51 449.5 914.5 398.5 900.5C347.5 886.5 232 872.63 203.73 876.57C191.81 878.23 174.89 878.22 159.07 877.11C157.83 877.03 156.59 876.93 155.36 876.83C155.16 868.21 153.53 855.44 150.01 829.9C143 779 173.5 676.71 181.16 652.17L181.63 650.67L182.21 648.85L182.61 647.59L195.61 649.59L213.31 652.36C213.31 652.36 168.5 761.5 202.5 799.5C236.5 837.5 399.5 872.5 445.5 873.5C468.73 874 483.67 884.1 492.76 893.97C490.32 910.77 488.93 923.42 488.6 926.55C488.55 927.04 488.52 927.3 488.52 927.3C506.39 977 492.58 1104.84 490.11 1126.14Z" fill="#9C398C"/>
<path id="Vector_51" d="M497 1305L482 1304.46L465.27 1302.46H465.22L433.5 1298.66L416.75 1296.66L344.75 1298.17L294 1309.57L267.78 1315.47L267.4 1315.56L224.17 1329.41C224.06 1328.96 223.94 1328.47 223.82 1327.96C218.34 1304.67 197.72 1215.65 185.51 1202.16C181.7 1197.95 177.11 1184.33 172.51 1166.07C190.28 1203.14 222.51 1266.81 239.98 1280.07C264.98 1299.01 337.98 1275.01 398.98 1280.01C451.38 1284.31 486.77 1298.88 495.98 1303.01C496.178 1303.07 496.362 1303.17 496.521 1303.31C496.68 1303.44 496.811 1303.61 496.906 1303.79C497.001 1303.98 497.058 1304.18 497.074 1304.39C497.09 1304.59 497.065 1304.8 497 1305Z" fill="#9C398C"/>
<path id="Vector_52" d="M408.999 1101C408.999 1101 346.599 1091.92 335.859 1094.33C322.859 1097.25 306.969 1094.95 303.999 1093C298.579 1089.43 202.999 1106 202.999 1106L163.999 1127C162.529 1120.18 164.999 1132 163.619 1124.73C156.839 1088.59 151.509 1048.62 151.039 1024.97C150.409 993.17 147.529 964.05 147.439 939.97C162.579 969.83 185.269 1016.62 190.109 1037.9C197.499 1070.46 193.749 1079.39 231.999 1079.96C270.249 1080.53 408.999 1101 408.999 1101Z" fill="#9C398C"/>
<path id="Vector_53" d="M510.639 728.61C509.355 733.515 508.393 738.499 507.759 743.53L474.069 721.4L369.829 674.18L273.409 656L226.499 647.5C226.499 647.5 216.699 647.88 207.069 648.58C202.979 648.87 198.929 649.23 195.669 649.58C191.949 650.05 189.259 650.58 188.669 651.16C188.079 651.74 185.209 652.03 181.169 652.16L181.639 650.66L182.639 647.58L182.899 646.77C168.769 546.54 228.709 442.38 228.709 442.38C228.659 440.96 228.589 439.57 228.519 438.2L236.279 438.81C236.279 438.81 221.739 563.2 221.749 586.86C221.749 636.59 305.749 650.64 355.979 655.8C391.699 659.48 471.569 707.61 510.639 728.61Z" fill="#9C398C"/>
<path id="Vector_54" d="M230 437.73C230 437.73 472.74 414.07 544.5 574.5" stroke="#17091D" stroke-width="9" stroke-linecap="round" stroke-linejoin="round"/>
<path id="Vector_55" d="M182.87 646.78C182.87 646.78 411.92 657 510.5 754.5" stroke="#17091D" stroke-width="9" stroke-linecap="round" stroke-linejoin="round"/>
<path id="Vector_56" d="M490.38 927.3C490.38 927.3 268.5 832.5 155.5 878.5" stroke="#17091D" stroke-width="9" stroke-linecap="round" stroke-linejoin="round"/>
<path id="Vector_57" d="M159.9 1127.2C161.127 1126.36 162.367 1125.54 163.62 1124.73C211.21 1094.16 276.07 1089.38 335.86 1094.33C381.72 1098.11 424.6 1107.62 454.43 1115.59C470.82 1119.97 483.27 1123.89 490.1 1126.14L493.03 1127.14C494.98 1127.79 496.03 1128.14 496.03 1128.14" stroke="#17091D" stroke-width="9" stroke-linecap="round" stroke-linejoin="round"/>
<path id="Vector_58" d="M219 1329.59C219 1329.59 378.22 1272.41 500.84 1310.96" stroke="#17091D" stroke-width="9" stroke-linecap="round" stroke-linejoin="round"/>
</g>
<g id="collar front">
<path id="Vector_59" d="M1203.33 237.65C1198.59 271.05 1185.52 323.48 1145 385C1107.59 441.8 959.45 438.59 947 438C880.9 434.86 826.71 443.77 779 432C544 374 511.5 215 501.71 195.3H501.8L533.34 190.24H533.5C560.29 187.51 586.42 185.55 588.66 185.38H588.82L1125.43 208.78L1126.43 209.11L1127.06 209.33L1127.27 209.4C1131.12 210.77 1140.97 214.27 1154.55 219.25C1167.88 224.12 1184.87 230.47 1203.33 237.65Z" fill="#9C398C"/>
<path id="Vector_60" d="M929.44 389C876.1 389 821.77 378.43 768 357.54C725 340.86 682.26 317.61 640.91 288.44C570.51 238.79 528 188.39 527.55 187.89C526.968 187.194 526.609 186.339 526.522 185.436C526.434 184.533 526.622 183.624 527.06 182.83C527.25 182.49 546.06 148.33 564.06 116.83C579.06 90.5198 589.28 73.5598 594.34 66.3898C602.92 54.2398 606.07 52.2498 608.94 51.5098C621.04 38.8098 660.59 29.7998 663.31 29.1898C663.67 29.0996 664.039 29.0526 664.41 29.0498C665.094 29.0507 665.769 29.2069 666.384 29.5066C666.999 29.8063 667.538 30.2416 667.96 30.7798C671.03 34.7098 674.91 40.5998 673.11 46.3398C671.2 52.4198 664.5 54.4998 658 56.5098C654.06 57.7298 650 58.9898 647.64 60.9198C645 63.0798 644.84 63.9998 644.84 63.9998C645.03 65.1998 649.1 68.5798 652.07 70.9998C653.69 72.3598 655.54 73.8898 657.49 75.6098C664.55 81.8198 719.25 97.2998 755.49 107.55C778.37 114.03 798.13 119.63 808.06 123.17C834.61 132.65 928.85 142.29 966.42 142.29C967.64 142.29 968.8 142.29 969.91 142.29C1006.43 141.64 1053.79 136.79 1077.17 125.13C1078.17 124.64 1079.05 124.13 1079.8 123.68C1088.21 118.68 1092.4 111.68 1095.8 106.15C1099.05 100.79 1102.11 95.7298 1107.97 95.7298C1110.9 95.7298 1113.89 97.0798 1117.38 99.9798C1117.61 100.16 1117.84 100.36 1118.06 100.56L1118.21 100.69C1120.21 102.47 1126.79 109.19 1129.13 113.95C1132.89 121.58 1135.13 137.86 1136.42 166.73C1137.29 186.33 1137.58 209.09 1137.87 231.1C1138.21 257.22 1138.53 281.89 1139.75 300.1C1144.13 365.61 1011.16 381.27 1003.31 382.1C978.948 386.643 954.222 388.953 929.44 389Z" fill="#CE44A2"/>
<path id="Vector_61" d="M664.39 33.5598C679.29 52.5598 654.5 49.4998 644.81 57.4398C635.12 65.3798 642.5 68.4998 654.52 79.0798C666.54 89.6598 778.52 117.5 806.52 127.5C833.65 137.19 927.45 146.88 966.4 146.88C967.64 146.88 968.83 146.88 969.96 146.88C1006.39 146.23 1054.52 141.53 1079.15 129.25C1080.25 128.7 1081.25 128.15 1082.15 127.6C1099.15 117.39 1100.55 100.32 1107.91 100.32C1109.66 100.32 1111.76 101.32 1114.48 103.56C1114.67 103.71 1114.85 103.87 1115.03 104.03L1115.16 104.14C1117.52 106.24 1123.23 112.37 1125.03 116.03C1128.87 123.82 1130.8 143.08 1131.86 167.03C1133.75 209.42 1132.92 266.48 1135.2 300.55C1139.38 363.06 1002.6 377.83 1002.6 377.83C978.481 382.308 954.001 384.56 929.47 384.56C698.07 384.52 531 185 531 185C531 185 549.77 150.89 568 119.07C580.21 97.6198 592.2 77.2098 598 68.9998C610 51.9998 609.67 57.3898 611.9 54.9198C622.63 42.9998 663.1 33.8498 664.36 33.5698M664.36 24.5698C663.632 24.5718 662.907 24.659 662.2 24.8298C660.74 25.1698 650.34 27.5798 638.84 31.3498C623.03 36.5498 612.41 41.8698 606.48 47.5698C602.48 49.0198 598.48 52.5698 590.62 63.8198C585.48 71.0998 575.21 88.1898 560.11 114.61C542.11 146.13 523.27 180.33 523.11 180.67C522.237 182.261 521.865 184.079 522.044 185.885C522.222 187.691 522.942 189.4 524.11 190.79C525.85 192.86 567.45 242.14 638.28 292.13C679.92 321.51 723 344.93 766.33 361.75C820.67 382.84 875.56 393.53 929.45 393.53C954.422 393.523 979.342 391.24 1003.9 386.71C1007.9 386.26 1040.57 382.32 1073.36 371.12C1093.95 364.12 1110.36 355.59 1121.98 345.89C1137.85 332.68 1145.32 317.22 1144.16 299.89C1142.95 281.75 1142.63 257.14 1142.29 231.08C1142 209.08 1141.71 186.23 1140.83 166.57C1139.52 137.05 1137.13 120.22 1133.08 112C1130.42 106.59 1123.38 99.3798 1121.08 97.3698L1120.87 97.1798C1120.66 96.9998 1120.41 96.7798 1120.1 96.5298C1117.36 94.2498 1113.1 91.2698 1107.85 91.2698C1099.45 91.2698 1095.23 98.2698 1091.85 103.86C1088.59 109.27 1084.85 115.39 1077.48 119.86L1077.38 119.92C1076.74 120.32 1075.97 120.74 1075.1 121.18C1052.4 132.5 1005.8 137.18 969.77 137.86C968.69 137.86 967.56 137.86 966.37 137.86C929.07 137.86 835.7 128.36 809.52 119C799.44 115.41 779.61 109.79 756.65 103.29C736.37 97.5498 713.38 91.0398 694.88 85.2898C666.93 76.5298 661.44 73.1498 660.43 72.2898C658.43 70.5498 656.59 68.9998 654.94 67.6298C653.59 66.4998 652.05 65.2198 650.85 64.1298C652.66 62.8698 656.2 61.7698 659.34 60.7898C666.22 58.6598 674.78 55.9998 677.34 47.6898C679.76 39.9198 675.13 32.6898 671.43 28.0098C670.588 26.9325 669.513 26.0611 668.284 25.4615C667.056 24.862 665.707 24.5502 664.34 24.5498L664.36 24.5698Z" fill="#17091D"/>
<path id="Vector_62" d="M1131.83 166.999C1083.52 188.119 1078 214.999 975 214.999C941.61 214.999 799.72 190.839 687 159.999C654.56 151.119 603.24 134.069 568 119.069C580.21 97.6193 592.2 77.2093 598 68.9993C610 51.9993 609.67 57.3893 611.9 54.9193C622.63 42.9993 663.1 33.8493 664.36 33.5693C679.26 52.5693 654.47 49.5093 644.78 57.4493C635.09 65.3893 642.47 68.5093 654.49 79.0893C666.51 89.6693 778.49 117.509 806.49 127.509C834.49 137.509 933.49 147.509 969.93 146.859C1006.37 146.209 1054.49 141.509 1079.12 129.229C1080.22 128.679 1081.22 128.129 1082.12 127.579C1103.17 114.939 1100.31 91.7693 1114.45 103.579C1114.64 103.729 1114.82 103.889 1115 104.049L1115.13 104.159C1117.49 106.259 1123.2 112.389 1125 116.049C1128.84 123.789 1130.77 143.049 1131.83 166.999Z" fill="#D969BD"/>
<path id="Vector_63" d="M980 143C980 143 1028.66 378.71 1029.5 442.5" stroke="#17091D" stroke-width="9" stroke-linecap="round" stroke-linejoin="round"/>
<path id="Vector_64" d="M1022 143C1022 143 1065.66 378.71 1066.5 442.5" stroke="#17091D" stroke-width="9" stroke-linecap="round" stroke-linejoin="round"/>
</g>
</g>
</svg>
