<svg width="1800" height="1650" viewBox="0 0 1800 1650" fill="none" xmlns="http://www.w3.org/2000/svg">
<g id="Body 09">
<path id="Vector" d="M909.75 347C803.13 347 702.83 331.88 627.31 304.41C550.37 276.38 508 238.6 508 198C508 157.4 550.37 119.6 627.31 91.62C702.83 64.12 803.13 49 909.75 49C1016.37 49 1116.67 64.12 1192.19 91.59C1269.13 119.59 1311.5 157.35 1311.5 197.97C1311.5 238.59 1269.13 276.38 1192.19 304.36C1116.67 331.83 1016.37 347 909.75 347Z" fill="#CE44A2"/>
<path id="Vector_2" d="M909.75 53.5C1129.15 53.5 1307 118.18 1307 198C1307 277.82 1129.15 342.45 909.75 342.45C690.35 342.45 512.5 277.77 512.5 198C512.5 118.23 690.35 53.5 909.75 53.5ZM909.75 44.5C802.62 44.5 701.75 59.72 625.75 87.36C546.93 116 503.5 155.32 503.5 198C503.5 240.68 546.93 279.94 625.78 308.62C701.78 336.26 802.62 351.48 909.78 351.48C1016.94 351.48 1117.78 336.26 1193.78 308.62C1272.57 279.91 1316 240.63 1316 198C1316 155.37 1272.57 116 1193.72 87.36C1117.72 59.72 1016.88 44.5 909.72 44.5H909.75Z" fill="#17091D"/>
<path id="Vector_3" d="M909.75 420.34C1122.79 420.34 1295.5 355.659 1295.5 275.87C1295.5 196.082 1122.79 131.4 909.75 131.4C696.706 131.4 524 196.082 524 275.87C524 355.659 696.706 420.34 909.75 420.34Z" fill="#9C398C" stroke="#17091D" stroke-width="9" stroke-miterlimit="10"/>
<path id="Vector_4" d="M909.75 502C1115.61 502 1282.5 437.318 1282.5 357.53C1282.5 277.741 1115.61 213.06 909.75 213.06C703.886 213.06 537 277.741 537 357.53C537 437.318 703.886 502 909.75 502Z" fill="#5C2C66" stroke="#17091D" stroke-width="9" stroke-miterlimit="10"/>
<g id="glove 2">
<path id="Vector_5" d="M1417.21 1611.77C1404.34 1611.77 1389.7 1605.69 1375.55 1599.77C1370.72 1597.77 1366.17 1595.87 1361.88 1594.31C1355.12 1591.85 1350.32 1590.71 1346.76 1590.71C1346.17 1590.71 1345.58 1590.75 1345 1590.82C1343.28 1591.06 1341.54 1591.19 1339.8 1591.19C1329.87 1591.19 1320.7 1587.07 1315.27 1580.19C1313.06 1577.44 1311.51 1574.21 1310.76 1570.76C1310 1567.31 1310.05 1563.74 1310.91 1560.31C1310.99 1560.01 1311.05 1559.71 1311.11 1559.39C1314.01 1544.3 1323.49 1499.39 1328.72 1482.62C1330.58 1476.62 1327.85 1468.27 1324.96 1459.41C1321.29 1448.13 1317.11 1435.34 1322.25 1424.41C1322.55 1423.78 1322.85 1423.18 1323.16 1422.59C1331.72 1406.22 1356.69 1374.52 1362.24 1367.59C1361.97 1361.24 1361.14 1338.13 1361.87 1313.65C1363.64 1254.39 1372.62 1244.95 1375.58 1241.85C1376.67 1240.62 1378 1239.62 1379.49 1238.94C1380.98 1238.25 1382.6 1237.88 1384.24 1237.85C1393.56 1237.85 1419.24 1229.17 1439.79 1222.19C1453.79 1217.43 1467.12 1212.93 1475.39 1210.99C1479.32 1210.05 1483.35 1209.57 1487.39 1209.56C1498.39 1209.56 1507.25 1213.3 1514.39 1216.3C1519.65 1218.52 1524.19 1220.44 1528.26 1220.44C1529.67 1220.45 1531.06 1220.2 1532.38 1219.7C1533.11 1219.43 1533.89 1219.29 1534.67 1219.29C1541.17 1219.29 1544.17 1227.84 1546.67 1240.69C1548.53 1250.28 1550.23 1263.59 1551.67 1280.25C1553.91 1305.38 1554.99 1330.8 1555.21 1336.25C1560.9 1346.6 1605.21 1429.46 1599.21 1489.05C1597.4 1507.11 1591.07 1521.42 1580.4 1531.59L1579.73 1532.21C1574.9 1536.66 1570.01 1540.9 1565.17 1544.84C1553.5 1554.46 1540.95 1562.96 1527.68 1570.21C1501.04 1584.52 1483.31 1586.06 1476.92 1586.06C1475.51 1586.07 1474.09 1585.98 1472.69 1585.79H1472.35C1471.87 1585.8 1471.39 1585.89 1470.93 1586.03C1467.7 1586.96 1463.19 1590.15 1457.93 1593.84C1449.16 1600.04 1438.24 1607.76 1424.93 1610.93C1422.4 1611.51 1419.81 1611.79 1417.21 1611.77Z" fill="#CE44A2"/>
<path id="Vector_6" d="M1487.38 1214.05C1505.45 1214.05 1516.93 1224.92 1528.22 1224.92C1530.16 1224.94 1532.09 1224.6 1533.91 1223.92C1534.14 1223.83 1534.38 1223.79 1534.63 1223.79C1546.63 1223.79 1550.77 1337.53 1550.77 1337.53C1550.77 1337.53 1600.9 1427.03 1594.77 1488.65C1593.19 1504.35 1587.97 1518.24 1577.33 1528.37L1576.69 1528.97C1571.8 1533.47 1567.02 1537.61 1562.36 1541.39C1550.92 1550.84 1538.61 1559.18 1525.58 1566.29C1502.52 1578.68 1485.4 1581.61 1476.95 1581.61C1475.76 1581.62 1474.57 1581.54 1473.39 1581.38C1473.06 1581.33 1472.72 1581.31 1472.39 1581.31C1471.49 1581.32 1470.6 1581.46 1469.74 1581.72C1459.74 1584.59 1444.64 1601.66 1423.93 1606.57C1421.74 1607.07 1419.5 1607.32 1417.25 1607.3C1401 1607.3 1380.13 1596.23 1363.45 1590.16C1357.15 1587.86 1351.45 1586.29 1346.8 1586.29C1346 1586.29 1345.21 1586.34 1344.42 1586.44C1342.9 1586.66 1341.37 1586.76 1339.83 1586.76C1324.16 1586.76 1311.99 1575.3 1315.31 1561.42C1315.4 1561.05 1315.49 1560.67 1315.56 1560.25C1318.75 1543.67 1328.04 1500.04 1333.04 1484.02C1338.04 1468 1318.21 1443.7 1326.35 1426.37C1326.61 1425.82 1326.88 1425.27 1327.17 1424.72C1336.52 1406.84 1366.83 1369.08 1366.83 1369.08C1366.83 1369.08 1360.65 1242.36 1384.27 1242.36C1400.65 1242.36 1455.53 1220.28 1476.45 1215.36C1480.05 1214.5 1483.74 1214.07 1487.45 1214.06M1487.45 1205.06C1483.07 1205.08 1478.71 1205.59 1474.45 1206.6C1465.97 1208.6 1452.6 1213.12 1438.45 1217.92C1419.24 1224.43 1392.92 1233.35 1384.34 1233.35C1382.09 1233.37 1379.86 1233.86 1377.81 1234.79C1375.76 1235.72 1373.92 1237.06 1372.42 1238.74C1366.79 1244.66 1359.11 1258.84 1357.48 1313.51C1356.79 1336.61 1357.48 1357.98 1357.78 1366.09C1350.61 1375.15 1327.56 1404.71 1319.27 1420.54C1318.97 1421.13 1318.65 1421.76 1318.27 1422.47V1422.53C1312.38 1435.08 1316.84 1448.77 1320.78 1460.84C1323.33 1468.65 1325.96 1476.71 1324.52 1481.32C1319.24 1498.25 1309.7 1543.42 1306.8 1558.54C1306.8 1558.54 1306.8 1558.6 1306.8 1558.64C1306.8 1558.68 1306.72 1559.03 1306.67 1559.24C1306.67 1559.26 1306.67 1559.29 1306.67 1559.31C1305.65 1563.4 1305.59 1567.66 1306.49 1571.77C1307.39 1575.89 1309.23 1579.74 1311.87 1583.02C1318.15 1591.02 1328.64 1595.73 1339.93 1595.73C1341.88 1595.73 1343.83 1595.59 1345.77 1595.32C1346.14 1595.27 1346.52 1595.25 1346.9 1595.25C1349.9 1595.25 1354.32 1596.34 1360.48 1598.59C1364.67 1600.11 1369.19 1601.99 1373.96 1603.97C1388.52 1609.97 1403.58 1616.26 1417.35 1616.26C1420.3 1616.27 1423.23 1615.93 1426.1 1615.26C1440.3 1611.9 1451.61 1603.9 1460.71 1597.47C1465.19 1594.3 1469.82 1591.02 1472.32 1590.31H1472.48C1474 1590.51 1475.53 1590.6 1477.07 1590.59C1483.8 1590.59 1502.42 1589 1529.95 1574.21C1543.48 1566.83 1556.27 1558.17 1568.16 1548.36C1573.06 1544.36 1578.02 1540.08 1582.9 1535.58L1583.68 1534.85C1595.12 1523.95 1601.91 1508.7 1603.83 1489.54C1606.53 1462.54 1599.71 1427.96 1583.58 1386.71C1576.67 1369.05 1568.73 1351.8 1559.81 1335.06C1559.51 1327.88 1558.42 1303.74 1556.29 1279.86C1554.8 1263.05 1553.07 1249.58 1551.18 1239.86C1550.32 1234.9 1549 1230.03 1547.24 1225.31C1544.41 1218.31 1540.24 1214.82 1534.78 1214.81C1533.46 1214.81 1532.15 1215.05 1530.92 1215.51C1530.1 1215.82 1529.23 1215.97 1528.36 1215.96C1525.2 1215.96 1521.04 1214.21 1516.24 1212.18C1508.75 1209.02 1499.43 1205.09 1487.52 1205.09L1487.45 1205.06Z" fill="#17091D"/>
<path id="Vector_7" d="M1344.38 1586.42C1349.38 1585.72 1355.98 1587.42 1363.38 1590.14C1382.45 1597.08 1406.99 1610.55 1423.86 1606.55C1444.57 1601.64 1459.68 1584.55 1469.67 1581.7C1470.85 1581.32 1472.11 1581.21 1473.34 1581.36C1479.67 1582.36 1498.52 1580.78 1525.53 1566.27C1538.56 1559.16 1550.87 1550.82 1562.31 1541.37C1566.98 1537.58 1571.75 1533.44 1576.64 1528.95L1577.28 1528.35C1585.65 1520.23 1591.28 1506.35 1594.72 1488.63C1600.87 1427.01 1550.72 1337.51 1550.72 1337.51C1550.72 1337.51 1546.42 1219.23 1533.86 1223.9C1518.39 1229.67 1504.55 1208.74 1476.36 1215.35C1455.44 1220.26 1400.56 1242.35 1384.18 1242.35C1360.56 1242.35 1366.74 1369.07 1366.74 1369.07C1366.74 1369.07 1336.43 1406.83 1327.08 1424.71C1326.79 1425.26 1326.52 1425.81 1326.26 1426.36C1332.53 1420.63 1363.52 1393.18 1386.33 1389.97C1411.81 1386.39 1474.83 1384.07 1497.44 1378.58C1520.05 1373.09 1538.81 1402.52 1546.84 1437.88C1552.22 1461.49 1565.71 1491.09 1559.1 1513.56C1555.82 1524.74 1547.58 1534.15 1530.92 1540.21C1529.17 1540.85 1527.45 1541.46 1525.78 1542.05C1501.26 1550.6 1483.24 1554.18 1468.91 1557.34C1455.91 1560.2 1445.97 1562.71 1436.91 1568.23C1422.22 1577.23 1397.82 1593.74 1358.91 1582.23C1346.05 1578.42 1331.59 1571.52 1315.38 1560.23C1315.31 1560.65 1315.22 1561.03 1315.13 1561.4C1311.63 1576.61 1326.59 1588.92 1344.38 1586.42Z" fill="#9C398C"/>
<path id="Vector_8" d="M1390.57 1543.13C1390.57 1543.13 1386.38 1512.48 1350.57 1492.13" stroke="#17091D" stroke-width="8.86" stroke-linecap="round" stroke-linejoin="round"/>
<path id="Vector_9" d="M1371.86 1512.65C1371.86 1512.65 1336.51 1556.23 1366.51 1594.45" stroke="#17091D" stroke-width="8.86" stroke-linecap="round" stroke-linejoin="round"/>
<path id="Vector_10" d="M1455.58 1510.44C1455.58 1510.44 1474.99 1557.3 1469.23 1584.36" stroke="#17091D" stroke-width="10.67" stroke-linecap="round" stroke-linejoin="round"/>
<path id="Vector_11" d="M1518.18 1514.17C1518.18 1514.17 1535.44 1557.86 1521.64 1573.73" stroke="#17091D" stroke-width="8.79" stroke-linecap="round" stroke-linejoin="round"/>
<path id="Vector_12" d="M1558.81 1512.72C1558.81 1512.72 1570.7 1539.99 1555.6 1552.1" stroke="#17091D" stroke-width="7" stroke-linecap="round" stroke-linejoin="round"/>
<path id="Vector_13" d="M1425 1567C1432.18 1567 1438 1554.24 1438 1538.5C1438 1522.76 1432.18 1510 1425 1510C1417.82 1510 1412 1522.76 1412 1538.5C1412 1554.24 1417.82 1567 1425 1567Z" fill="#D969BD"/>
<path id="Vector_14" d="M1496.06 1539.13C1503.02 1537.35 1506.16 1526.15 1503.08 1514.11C1500 1502.07 1491.86 1493.75 1484.91 1495.53C1477.95 1497.31 1474.81 1508.51 1477.89 1520.55C1480.97 1532.59 1489.1 1540.91 1496.06 1539.13Z" fill="#D969BD"/>
<path id="Vector_15" d="M1540.37 1518.54C1546.38 1517 1549.51 1508.94 1547.36 1500.54C1545.21 1492.14 1538.6 1486.58 1532.59 1488.12C1526.58 1489.65 1523.45 1497.71 1525.6 1506.11C1527.75 1514.51 1534.36 1520.07 1540.37 1518.54Z" fill="#D969BD"/>
</g>
<g id="arm 2">
<path id="Vector_16" d="M1337 1348.43C1332.87 1348.45 1328.84 1347.14 1325.51 1344.68C1322.19 1342.22 1319.74 1338.76 1318.55 1334.8C1316.22 1327.24 1313.89 1319.39 1311.61 1311.5L1310.38 1307.25C1308.92 1302.17 1307.39 1296.75 1305.79 1291C1305.37 1289.52 1304.96 1288 1304.55 1286.51C1304.55 1286.51 1303.94 1284.33 1303.78 1283.74L1303.31 1281.98C1301.14 1273.98 1298.89 1265.58 1296.62 1256.87C1293.19 1243.62 1289.92 1230.47 1286.89 1217.79C1286.74 1217.14 1286.09 1214.43 1286.09 1214.43C1284.65 1208.31 1283.33 1202.66 1282.09 1197.14C1281.82 1195.97 1281.55 1194.77 1281.29 1193.58C1279.61 1186.22 1277.99 1178.88 1276.47 1171.78C1276.2 1170.55 1275.93 1169.3 1275.67 1168.05C1274.32 1161.75 1272.99 1155.35 1271.67 1149.05C1271.17 1146.63 1270.68 1144.18 1270.19 1141.71C1267.77 1129.59 1265.44 1117.32 1263.27 1105.26C1263.27 1105.26 1262.45 1100.63 1262.27 1099.57C1261.56 1095.57 1260.86 1091.54 1260.17 1087.48C1258.74 1079.02 1257.46 1071.15 1256.25 1063.42C1255.56 1058.97 1254.89 1054.55 1254.25 1050.31C1253.61 1046.07 1253.03 1042.01 1252.44 1037.83C1252.43 1037.7 1252.43 1037.57 1252.44 1037.44C1251.9 1033.63 1251.44 1029.82 1250.87 1025.98C1250.78 1025.36 1250.7 1024.71 1250.62 1024.07C1249.84 1018.16 1249.07 1012.13 1248.29 1005.63C1248.03 1003.47 1247.78 1001.31 1247.53 999.15C1247.53 998.76 1247.43 998.32 1247.38 997.89L1246.79 992.66L1246.08 986.15L1245.44 980.09C1245.44 979.88 1245.44 979.7 1245.44 979.52C1245.22 977.41 1245.01 975.28 1244.8 973.16C1244.59 971.04 1244.38 968.87 1244.18 966.72C1244.17 966.59 1244.17 966.46 1244.18 966.33V965.99C1243.99 963.99 1243.8 961.99 1243.63 959.99L1243.03 952.99L1242.87 951.12L1242.51 946.6C1242.4 945.33 1242.3 944.01 1242.21 942.69C1242.13 941.69 1242.05 940.69 1241.98 939.61V939.39C1241.83 937.39 1241.69 935.39 1241.55 933.39L1241.19 928.04L1241.05 925.75C1240.93 923.89 1240.82 922 1240.71 920.11C1240.43 915.44 1240.2 911.11 1239.99 906.8C1239.89 904.8 1239.8 902.74 1239.72 900.72C1239.61 898.32 1239.52 895.91 1239.43 893.49C1239.26 888.76 1239.13 884.4 1239.02 880.16C1234.82 711.74 1223.38 567.25 1216.93 496.11C1214.6 470.47 1213.04 455.84 1213.02 455.7C1212.94 454.9 1213.07 454.093 1213.4 453.36L1240.66 393.48L1258.8 353.61C1259.08 352.994 1259.49 352.449 1260.01 352.017C1260.53 351.584 1261.14 351.274 1261.8 351.11C1262.16 351.019 1262.54 350.972 1262.91 350.97C1263.89 350.968 1264.84 351.288 1265.62 351.88C1266.16 352.29 1278.99 362.05 1299.12 382.58C1326.12 410.14 1366.79 457.68 1406.89 527.58C1454.26 610.17 1489.49 703.82 1511.59 805.92C1515.1 822.12 1522.2 837.07 1529.06 851.52C1533.44 860.74 1537.58 869.45 1540.87 878.52C1548.91 901 1556.4 924.73 1563 949C1580.07 1012 1591.67 1080.53 1597.5 1152.82C1598.99 1171.35 1600.09 1190.15 1600.79 1208.69C1602.32 1249.32 1601.62 1281.3 1600.79 1300.97C1600.59 1305.94 1598.47 1310.63 1594.88 1314.08C1591.29 1317.52 1586.51 1319.44 1581.54 1319.43C1580.39 1319.43 1579.24 1319.32 1578.11 1319.12C1547.72 1313.69 1516.92 1310.86 1486.05 1310.68C1453.91 1310.68 1425.12 1314.17 1400.47 1321.05C1380.24 1326.71 1362.67 1334.72 1348.22 1344.85C1344.94 1347.18 1341.02 1348.44 1337 1348.43Z" fill="#CE44A2"/>
<path id="Vector_17" d="M1262.76 355.5C1262.76 355.5 1275.63 365.23 1295.76 385.76C1349.93 441 1456.76 574.42 1507.04 806.92C1512.87 833.83 1528.04 856.74 1536.49 880.08C1544.94 903.42 1552.31 926.86 1558.63 950.2C1578.2 1022.4 1588.15 1093.2 1592.98 1153.2C1594.58 1173.08 1595.62 1191.75 1596.26 1208.88C1597.81 1250.1 1597.04 1282.35 1596.26 1300.79C1596.18 1302.9 1595.64 1304.97 1594.69 1306.85C1593.73 1308.74 1592.39 1310.4 1590.74 1311.72C1589.09 1313.04 1587.18 1313.99 1585.13 1314.5C1583.08 1315.02 1580.95 1315.09 1578.87 1314.71C1548.22 1309.21 1517.16 1306.36 1486.02 1306.19C1457.79 1306.19 1427.42 1308.86 1399.23 1316.74C1379.85 1322.16 1361.51 1330.03 1345.61 1341.19C1343.7 1342.55 1341.5 1343.43 1339.18 1343.77C1336.86 1344.11 1334.49 1343.9 1332.27 1343.15C1330.06 1342.39 1328.05 1341.13 1326.41 1339.45C1324.78 1337.77 1323.56 1335.73 1322.87 1333.49C1320.87 1327.07 1318.56 1319.28 1315.95 1310.25L1314.72 1306C1313.27 1300.94 1311.75 1295.54 1310.14 1289.79C1309.73 1288.32 1309.32 1286.79 1308.91 1285.33C1308.66 1284.42 1308.4 1283.5 1308.15 1282.57L1307.67 1280.8C1305.53 1272.96 1303.31 1264.61 1301 1255.74C1297.86 1243.61 1294.59 1230.57 1291.29 1216.74C1291.02 1215.63 1290.76 1214.51 1290.49 1213.38C1289.16 1207.76 1287.82 1202.01 1286.49 1196.14C1286.22 1194.97 1285.95 1193.79 1285.69 1192.61C1284.08 1185.52 1282.47 1178.27 1280.88 1170.84C1280.61 1169.6 1280.34 1168.36 1280.08 1167.12C1278.75 1160.9 1277.41 1154.57 1276.08 1148.12C1275.58 1145.69 1275.09 1143.25 1274.6 1140.79C1272.24 1128.96 1269.94 1116.84 1267.7 1104.42C1267.37 1102.54 1267.03 1100.66 1266.7 1098.76C1265.99 1094.76 1265.29 1090.74 1264.61 1086.69C1263.28 1078.78 1261.97 1070.78 1260.7 1062.69C1260.03 1058.35 1259.37 1053.99 1258.7 1049.62C1258.08 1045.44 1257.47 1041.24 1256.88 1037.02C1256.88 1036.98 1256.88 1036.94 1256.88 1036.9C1256.34 1033.06 1255.81 1029.21 1255.3 1025.34C1255.21 1024.7 1255.13 1024.06 1255.05 1023.42C1254.24 1017.33 1253.47 1011.21 1252.73 1005.05C1252.47 1002.9 1252.22 1000.74 1251.97 998.59C1251.97 998.19 1251.87 997.79 1251.83 997.39L1251.23 992.11C1250.99 989.95 1250.76 987.78 1250.52 985.61L1249.89 979.61C1249.89 979.44 1249.89 979.28 1249.84 979.12C1249.62 976.986 1249.41 974.85 1249.2 972.71C1248.98 970.53 1248.77 968.34 1248.57 966.16C1248.57 966.12 1248.57 966.08 1248.57 966.04C1248.37 963.89 1248.17 961.75 1247.98 959.6L1247.38 952.66C1247.21 950.55 1247.03 948.43 1246.87 946.31C1246.76 945.02 1246.66 943.72 1246.57 942.43C1246.48 941.32 1246.4 940.21 1246.32 939.11C1246.17 937.11 1246.03 935.11 1245.89 933.11C1245.76 931.26 1245.64 929.42 1245.52 927.57C1245.52 926.89 1245.43 926.2 1245.39 925.52C1245.27 923.64 1245.16 921.76 1245.05 919.88C1244.79 915.46 1244.55 911.04 1244.34 906.62C1244.24 904.62 1244.15 902.62 1244.07 900.62C1243.96 898.21 1243.87 895.81 1243.78 893.4C1243.62 888.98 1243.48 884.557 1243.37 880.13C1239.12 709.77 1227.37 563.64 1221.26 495.78C1218.9 469.78 1217.35 455.3 1217.35 455.3L1244.61 395.42L1258.61 364.65L1262.75 355.55M1262.75 346.55C1262 346.549 1261.26 346.643 1260.54 346.83C1259.23 347.159 1258.01 347.779 1256.97 348.645C1255.93 349.511 1255.1 350.599 1254.54 351.83L1250.4 360.93L1236.4 391.7L1209.14 451.58C1208.47 453.047 1208.21 454.667 1208.38 456.27C1208.38 456.41 1209.95 471.01 1212.28 496.6C1218.72 567.69 1230.15 712.08 1234.35 880.36C1234.46 884.63 1234.59 889 1234.77 893.74C1234.86 896.17 1234.95 898.59 1235.06 901.02C1235.14 903.02 1235.23 905.057 1235.33 907.13C1235.53 911.33 1235.76 915.7 1236.05 920.47C1236.16 922.36 1236.27 924.26 1236.39 926.15C1236.39 926.47 1236.39 926.83 1236.45 927.15C1236.51 927.47 1236.45 927.79 1236.52 928.15C1236.64 930.02 1236.76 931.87 1236.89 933.74C1237.02 935.61 1237.17 937.74 1237.33 939.74V940C1237.4 941 1237.48 942.1 1237.57 943.16C1237.66 944.46 1237.76 945.77 1237.87 947.08C1237.98 948.57 1238.1 950.08 1238.22 951.54L1238.38 953.43L1238.93 959.76V960.43C1239.12 962.54 1239.31 964.62 1239.51 966.71C1239.51 966.89 1239.51 967.06 1239.56 967.24C1239.75 969.38 1239.95 971.52 1240.18 973.66V974.02C1240.38 976.02 1240.57 978.02 1240.78 980.02C1240.78 980.24 1240.78 980.46 1240.84 980.69L1241.15 983.69L1241.47 986.69C1241.59 987.69 1241.7 988.69 1241.81 989.77C1241.92 990.85 1242.06 992.06 1242.19 993.19L1242.54 996.3L1242.78 998.44L1242.93 999.76C1243.18 1001.92 1243.44 1004.07 1243.69 1006.22C1244.47 1012.71 1245.24 1018.74 1246.02 1024.65C1246.11 1025.34 1246.19 1025.99 1246.28 1026.65C1246.77 1030.29 1247.28 1034.17 1247.84 1038.07C1247.84 1038.25 1247.84 1038.43 1247.92 1038.61C1248.45 1042.41 1249.04 1046.48 1249.72 1051.04C1250.33 1055.26 1251 1059.69 1251.72 1064.18C1252.92 1071.88 1254.2 1079.77 1255.65 1088.29C1256.27 1092 1256.96 1095.98 1257.75 1100.43C1257.93 1101.48 1258.12 1102.55 1258.31 1103.62C1258.46 1104.44 1258.6 1105.26 1258.74 1106.07C1260.93 1118.2 1263.26 1130.49 1265.68 1142.65C1266.18 1145.13 1266.68 1147.59 1267.17 1150.03C1268.44 1156.27 1269.77 1162.69 1271.17 1169.03C1271.43 1170.26 1271.7 1171.52 1271.98 1172.79C1273.5 1179.88 1275.12 1187.23 1276.8 1194.6C1277.06 1195.8 1277.34 1197 1277.61 1198.19C1278.88 1203.77 1280.2 1209.43 1281.61 1215.48L1281.93 1216.84C1282.1 1217.53 1282.26 1218.21 1282.42 1218.9C1285.49 1231.73 1288.68 1244.54 1292.17 1258.03C1294.44 1266.75 1296.69 1275.22 1298.87 1283.2L1299.09 1284.04L1299.34 1284.96C1299.5 1285.55 1299.67 1286.16 1299.84 1286.76L1300.11 1287.76C1300.52 1289.27 1300.94 1290.76 1301.35 1292.26C1302.89 1297.78 1304.44 1303.26 1305.95 1308.53L1306.47 1310.35L1307.19 1312.81C1309.48 1320.73 1311.82 1328.6 1314.19 1336.18C1315.3 1339.78 1317.24 1343.06 1319.86 1345.76C1322.48 1348.46 1325.71 1350.5 1329.27 1351.71C1332.84 1352.93 1336.64 1353.28 1340.36 1352.73C1344.09 1352.19 1347.63 1350.78 1350.7 1348.6C1364.7 1338.77 1381.84 1330.98 1401.57 1325.46C1425.83 1318.68 1454.21 1315.24 1485.94 1315.24C1516.54 1315.43 1547.07 1318.23 1577.2 1323.62C1578.6 1323.87 1580.01 1324 1581.43 1324C1587.56 1324.01 1593.47 1321.64 1597.89 1317.39C1602.32 1313.15 1604.93 1307.35 1605.17 1301.22C1606.03 1281.48 1606.73 1249.38 1605.17 1208.59C1604.48 1189.98 1603.37 1171.12 1601.87 1152.53C1596.02 1079.96 1584.37 1011.11 1567.24 947.9C1560.63 923.48 1553.1 899.64 1544.87 877.05C1541.5 867.81 1537.13 858.6 1532.87 849.69C1526.12 835.47 1519.14 820.76 1515.74 805.06C1493.54 702.51 1458.15 608.43 1410.55 525.44C1370.21 455.11 1329.3 407.26 1302.09 379.51C1281.72 358.74 1268.63 348.78 1268.09 348.37C1266.53 347.188 1264.62 346.549 1262.66 346.55H1262.75Z" fill="#17091D"/>
<path id="Vector_18" d="M1399.21 1316.74C1379.83 1322.16 1361.49 1330.03 1345.59 1341.19C1343.68 1342.55 1341.48 1343.44 1339.16 1343.78C1336.84 1344.12 1334.47 1343.9 1332.25 1343.15C1330.03 1342.4 1328.02 1341.13 1326.39 1339.45C1324.75 1337.77 1323.54 1335.73 1322.85 1333.49C1303.48 1270.25 1248.23 1074.05 1243.38 880.08C1237.5 644.5 1217.38 455.25 1217.38 455.25L1244.64 395.37C1249.89 387.6 1252.89 383.18 1252.89 383.18C1252.89 383.18 1323 562.1 1314.72 652.8C1306.44 743.5 1280.6 996.01 1306.05 1060.26C1331.5 1124.51 1390.57 1277.26 1390.57 1277.26L1399.21 1316.74Z" fill="#9C398C"/>
<path id="Vector_19" d="M1337 1348.43C1332.87 1348.45 1328.84 1347.13 1325.51 1344.68C1322.19 1342.22 1319.75 1338.76 1318.55 1334.8C1313.49 1318.32 1305.55 1291.42 1296.62 1256.87L1295.82 1253.75L1298.51 1251.98C1330.72 1230.81 1400.24 1195.31 1503.95 1195.31C1535.22 1195.41 1566.42 1198.48 1597.11 1204.46L1600.62 1205.14L1600.76 1208.71C1602.29 1249.34 1601.59 1281.32 1600.76 1300.99C1600.56 1305.96 1598.44 1310.65 1594.85 1314.1C1591.26 1317.54 1586.48 1319.46 1581.51 1319.45C1580.36 1319.45 1579.21 1319.34 1578.08 1319.14C1547.69 1313.71 1516.89 1310.88 1486.02 1310.7C1453.88 1310.7 1425.09 1314.19 1400.44 1321.07C1380.21 1326.73 1362.64 1334.74 1348.19 1344.87C1344.92 1347.19 1341.01 1348.43 1337 1348.43Z" fill="#7E4282"/>
<path id="Vector_20" d="M1504 1199.81C1534.99 1199.89 1565.9 1202.93 1596.31 1208.88C1597.86 1250.1 1597.09 1282.35 1596.31 1300.79C1596.23 1302.9 1595.69 1304.97 1594.74 1306.85C1593.78 1308.74 1592.44 1310.4 1590.79 1311.72C1589.14 1313.03 1587.23 1313.99 1585.18 1314.5C1583.13 1315.02 1581 1315.09 1578.92 1314.71C1548.27 1309.21 1517.21 1306.36 1486.07 1306.19C1457.84 1306.19 1427.47 1308.86 1399.28 1316.74C1379.9 1322.16 1361.56 1330.03 1345.66 1341.19C1343.75 1342.55 1341.55 1343.43 1339.23 1343.77C1336.91 1344.11 1334.54 1343.9 1332.32 1343.14C1330.11 1342.39 1328.1 1341.13 1326.46 1339.45C1324.83 1337.77 1323.61 1335.73 1322.92 1333.49C1317.68 1316.4 1309.83 1289.59 1301.05 1255.74C1331.63 1235.65 1400.66 1199.81 1504.05 1199.81M1504.05 1190.81C1399.17 1190.81 1328.77 1226.81 1296.14 1248.22L1290.75 1251.76L1292.37 1258C1301.37 1292.62 1309.28 1319.59 1314.37 1336.13C1315.48 1339.73 1317.42 1343.01 1320.04 1345.71C1322.66 1348.41 1325.89 1350.45 1329.45 1351.66C1333.02 1352.88 1336.82 1353.23 1340.54 1352.68C1344.27 1352.14 1347.81 1350.73 1350.88 1348.55C1364.88 1338.72 1382.02 1330.93 1401.75 1325.41C1426.01 1318.63 1454.39 1315.19 1486.12 1315.19C1516.72 1315.38 1547.25 1318.18 1577.38 1323.57C1578.78 1323.82 1580.19 1323.95 1581.61 1323.95C1587.74 1323.96 1593.64 1321.59 1598.07 1317.34C1602.5 1313.1 1605.11 1307.3 1605.35 1301.17C1606.21 1281.43 1606.91 1249.33 1605.35 1208.54L1605.08 1201.39L1598.08 1200.04C1567.11 1194 1535.63 1190.91 1504.08 1190.81H1504.05Z" fill="#17091D"/>
<path id="Vector_21" d="M1590 1156.59C1577.36 1145.59 1563.49 1133.12 1548.78 1119.59C1508.38 1082.46 1480.98 1033.33 1470.63 979.44L1438.19 812.76L1440.19 811.06C1445.43 806.661 1451.58 803.475 1458.19 801.73C1464.86 799.968 1471.74 799.117 1478.64 799.2C1488.49 799.331 1498.3 800.45 1507.92 802.54L1510.21 803.02L1511.14 805.15C1522.58 831.44 1532.52 856.15 1540.69 878.57C1548.86 900.99 1556.4 924.73 1563 949C1580.07 1012 1591.67 1080.53 1597.5 1152.82L1598.38 1163.82L1590 1156.59Z" fill="#7E4282"/>
<path id="Vector_22" d="M1478.67 803.67C1488.21 803.796 1497.72 804.885 1507.04 806.92C1518.04 832.17 1528.04 856.74 1536.49 880.08C1544.94 903.42 1552.31 926.86 1558.63 950.2C1578.2 1022.4 1588.15 1093.2 1592.98 1153.2C1578.9 1140.93 1564.84 1128.2 1551.85 1116.2C1512.25 1079.65 1485.35 1031.4 1475.07 978.5L1443.13 814.39C1447.87 810.416 1453.44 807.544 1459.43 805.98C1465.71 804.33 1472.18 803.536 1478.67 803.62M1478.67 794.62C1471.37 794.539 1464.08 795.444 1457.02 797.31C1449.76 799.226 1443.01 802.731 1437.26 807.57L1433.26 810.98L1434.26 816.11L1466.2 980.22C1476.84 1035.01 1504.69 1084.97 1545.71 1122.82C1560.46 1136.41 1574.36 1148.89 1587.03 1159.94L1603.69 1174.45L1601.91 1152.45C1596.06 1079.88 1584.41 1011.03 1567.28 947.82C1560.67 923.4 1553.14 899.56 1544.91 876.97C1536.68 854.38 1526.73 829.67 1515.25 803.3L1513.39 799.02L1508.82 798.08C1498.9 795.922 1488.78 794.77 1478.63 794.64L1478.67 794.62Z" fill="#17091D"/>
<path id="Vector_23" d="M1558.63 950.199C1557.32 968.819 1550.63 979.409 1534.81 973.359C1490.5 956.439 1467.81 854.199 1459.43 806.029C1472.8 802.309 1489.43 803.279 1507.04 806.919C1518.04 832.169 1528.04 856.739 1536.49 880.079C1544.94 903.419 1552.31 926.859 1558.63 950.199Z" fill="#5C2C66"/>
</g>
<g id="pants">
<path id="Vector_24" d="M821.681 1619C808.211 1619 794.751 1618.82 781.681 1618.46C677.601 1615.6 602.451 1602 557.731 1591C523.491 1582.63 506.161 1575.67 505.441 1575.38L502.941 1574.38L502.651 1571.69C502.651 1571.19 497.431 1520.95 498.771 1451.18C500.001 1386.74 507.201 1291.9 534.481 1206.05C535.481 1203.05 536.261 1200.33 537.011 1197.75C540.011 1187.55 542.671 1177.06 544.911 1166.56C561.671 1088.37 555.991 1010.56 548.281 959.12C539.901 903.23 527.391 865.39 527.281 865.02L526.391 862.34L626.941 764.26L967.311 682.76L1065.57 729.28L1166.24 831V832.84C1166.24 833.07 1166.33 855.77 1166.14 884.4C1165.88 926.13 1165.05 980.16 1162.6 1000.53C1159.77 1023.99 1164.72 1087.04 1173.42 1138.22C1178.1 1165.81 1183.42 1187.64 1188.91 1201.35C1189.45 1202.7 1189.97 1204.12 1190.46 1205.56C1207.92 1256.33 1216.46 1401.4 1216.76 1407.56V1407.76L1211.87 1574.26L1211.51 1575.08C1206.2 1586.92 1126.93 1600.08 999.451 1610.28C975.451 1612.18 950.051 1614 923.901 1615.66C892.901 1617.66 862.031 1618.75 832.281 1618.96C828.731 1619 825.191 1619 821.681 1619Z" fill="#7E4282"/>
<path id="Vector_25" d="M966.8 687.53L1062.91 733L1161.75 832.83C1161.75 832.83 1161.84 855.4 1161.65 884.34C1161.39 925.59 1160.57 979.77 1158.14 999.96C1155.35 1023.09 1160.01 1086.09 1168.99 1138.96C1173.34 1164.6 1178.71 1187.85 1184.74 1202.96C1185.24 1204.21 1185.74 1205.54 1186.2 1206.96C1203.67 1257.76 1212.28 1407.78 1212.28 1407.78L1207.42 1573.2C1207.42 1573.2 1200.04 1589.68 999.11 1605.75C976.49 1607.55 951.421 1609.36 923.63 1611.13C891.34 1613.19 860.88 1614.22 832.271 1614.42C828.721 1614.42 825.19 1614.42 821.701 1614.42C807.961 1614.42 794.66 1614.24 781.8 1613.88C678.62 1611.05 604 1597.64 558.8 1586.59C524.48 1578.2 507.131 1571.17 507.131 1571.17C507.131 1571.17 486.281 1372.56 538.771 1207.36C539.661 1204.56 540.521 1201.76 541.331 1198.95C544.417 1188.47 547.084 1177.97 549.331 1167.45C582.071 1014.66 531.55 863.54 531.55 863.54L629.191 768.3L966.8 687.53ZM967.8 678.04L964.711 678.78L627.071 759.63L624.66 760.21L622.891 761.94L525.25 857.18L521.25 861.12L523.04 866.47C523.17 866.84 535.6 904.47 543.91 960.01C551.54 1011.07 557.16 1088.19 540.56 1165.64C538.34 1176.05 535.71 1186.42 532.75 1196.48V1196.54C532.03 1199.04 531.221 1201.71 530.261 1204.71C518.131 1242.91 508.9 1286.01 502.83 1332.82C497.847 1372.07 495.012 1411.56 494.34 1451.12C492.99 1521.17 498.2 1571.69 498.25 1572.19L498.81 1577.56L503.81 1579.56C504.54 1579.86 522.16 1586.93 556.72 1595.38C601.65 1606.38 677.14 1620.06 781.61 1622.93C794.75 1623.28 808.26 1623.47 821.76 1623.47C825.28 1623.47 828.861 1623.47 832.391 1623.47C862.211 1623.26 893.12 1622.15 924.26 1620.16C950.48 1618.49 975.921 1616.68 999.88 1614.77C1083.65 1608.07 1144.47 1600.5 1180.67 1592.27C1208.22 1586.01 1213.78 1581.2 1215.67 1576.93L1216.4 1575.3L1216.46 1573.51L1221.32 1408.09V1407.7V1407.31C1220.96 1401.14 1212.43 1255.53 1194.77 1204.12C1194.26 1202.6 1193.77 1201.12 1193.15 1199.69C1187.81 1186.28 1182.54 1164.77 1177.91 1137.48C1169.43 1087.54 1164.39 1023.8 1167.13 1001.09C1169.6 980.51 1170.44 926.3 1170.7 884.45C1170.89 855.79 1170.8 833.07 1170.8 832.84V829.16L1168.21 826.55L1069.37 726.72L1068.25 725.59L1066.82 724.92L970.651 679.4L967.79 678L967.8 678.04Z" fill="#17091D"/>
<path id="Vector_26" d="M1184.74 1203C1178.74 1187.85 1173.34 1164.6 1168.99 1139L615.51 1164.5C618.31 1080.61 622.22 942.18 636.01 929.7C654.75 912.7 746.28 911.7 824.77 871.47C903.26 831.24 922.28 776.66 989.67 768.71C1057.06 760.76 1065.28 856.66 1103.41 885.71C1124.6 901.86 1146.41 894.29 1161.65 884.38C1161.84 855.44 1161.75 832.87 1161.75 832.87L1062.91 733L966.8 687.53L629.17 768.38L531.53 863.62C531.53 863.62 582.05 1014.74 549.31 1167.53L541.31 1199.03C540.5 1201.84 539.64 1204.64 538.75 1207.44C486.26 1372.64 507.11 1571.25 507.11 1571.25C507.11 1571.25 524.46 1578.25 558.78 1586.67C561.54 1515.67 567.97 1372.18 575.9 1338.67C579.404 1324.37 583.745 1310.29 588.9 1296.5C588.897 1296.48 588.897 1296.45 588.9 1296.43C589.49 1294.83 590.07 1293.26 590.66 1291.69C596.58 1277.58 618.74 1238.13 678.4 1248.53C750.7 1261.14 1002.98 1265.47 1087.34 1246.8C1137.5 1235.71 1168.9 1218.8 1186.12 1207C1185.73 1205.6 1185.24 1204.27 1184.74 1203Z" fill="#5C2C66"/>
<path id="Vector_27" d="M1025.12 1516.28C1020.01 1540.83 1008.92 1576.4 999.121 1605.79C976.501 1607.59 951.431 1609.4 923.641 1611.17C891.351 1613.23 860.891 1614.26 832.281 1614.46C814.761 1614.58 797.937 1614.41 781.811 1613.96C787.581 1574.82 796.001 1513.69 795.551 1492.96C794.891 1461.56 863.321 1517.46 955.091 1499.77C1046.86 1482.08 1035.3 1467.25 1025.12 1516.28Z" fill="#5C2C66"/>
<path id="Vector_28" d="M834.16 1538.93C838.27 1559.93 834.971 1593.93 832.271 1614.46" stroke="#17091D" stroke-width="7" stroke-linecap="round" stroke-linejoin="round"/>
<path id="Vector_29" d="M836.341 1571.85C836.341 1571.85 880.961 1554.47 940.251 1560.17" stroke="#17091D" stroke-width="7" stroke-linecap="round" stroke-linejoin="round"/>
</g>
<g id="body">
<path id="Vector_30" d="M762.881 1498.94C703.261 1498.94 647.351 1492.09 596.721 1478.57C556.131 1467.74 518.821 1452.57 485.821 1433.64C429.381 1401.19 405.371 1369.06 404.381 1367.71C404.024 1367.23 403.767 1366.68 403.626 1366.1C403.485 1365.52 403.463 1364.91 403.561 1364.32L497.501 786.64V355.5C497.499 354.44 497.873 353.414 498.556 352.604C499.239 351.793 500.186 351.25 501.231 351.07C501.391 351.07 517.751 348.2 545.031 343.85C601.651 334.8 714.311 317.85 832.681 305.63C925.121 296.11 1003.91 291.28 1066.84 291.28C1108.62 291.28 1143.84 293.43 1171.53 297.68C1210.99 303.73 1235.75 313.86 1247.23 328.68C1253.33 336.55 1258.61 348.23 1262.95 363.38C1263.11 363.96 1263.27 364.54 1263.44 365.13C1268.2 382.32 1271.99 404.47 1274.69 430.95C1274.82 432.26 1274.95 433.56 1275.07 434.89C1287.07 559 1275.07 756.1 1262.85 899.6C1261.01 921.27 1257.9 943.39 1254.85 964.78L1253.67 973.17C1253.68 973.247 1253.68 973.324 1253.67 973.4C1246.06 1027.61 1240.56 1076.4 1250.38 1124C1271.71 1227.54 1268.63 1293.39 1262.3 1330.39C1255.83 1368.15 1244.84 1384.63 1242.83 1387.39C1239.34 1393.99 1201.62 1452.54 953.551 1479.07H953.461C950.561 1479.39 947.631 1479.99 944.531 1480.62C942.751 1480.98 940.911 1481.36 939.041 1481.68C926.981 1483.8 914.041 1485.91 900.671 1487.96C893.291 1489.08 885.851 1490.13 878.561 1491.09C872.561 1491.88 866.411 1492.62 860.331 1493.3C847.851 1494.7 835.331 1495.86 823.171 1496.73C802.751 1498.2 782.461 1498.94 762.881 1498.94Z" fill="#CE44A2"/>
<path id="Vector_31" d="M1066.84 295.78C1106.26 295.78 1141.84 297.67 1170.84 302.13C1206.54 307.6 1232.44 316.95 1243.66 331.42C1249.58 339.06 1254.53 350.33 1258.61 364.6C1258.77 365.16 1258.93 365.73 1259.09 366.31C1263.99 383.99 1267.62 406.08 1270.2 431.39C1270.33 432.68 1270.46 433.97 1270.58 435.28C1282.69 560.56 1270.08 761.28 1258.36 899.2C1256.29 923.58 1252.65 948.13 1249.21 972.71C1242.04 1023.82 1235.7 1075.01 1245.97 1124.85C1286.97 1323.96 1238.97 1384.96 1238.97 1384.96C1238.97 1384.96 1210.97 1446.96 953.05 1474.55C948.14 1475.08 943.26 1476.34 938.26 1477.21C925.954 1479.37 913.194 1481.46 899.98 1483.47C892.54 1484.6 885.207 1485.64 877.98 1486.59C871.86 1487.39 865.814 1488.12 859.84 1488.79C847.174 1490.21 834.84 1491.35 822.84 1492.2C801.94 1493.7 781.94 1494.43 762.84 1494.4C503.2 1494.44 408 1365 408 1365L502 787V355.5C502 355.5 518.17 352.69 545.74 348.29C604.74 338.86 716.13 322.15 833.14 310.11C913.38 301.84 996.31 295.78 1066.84 295.78ZM1066.84 286.78C1003.73 286.78 924.84 291.62 832.21 301.16C713.73 313.35 601 330.35 544.32 339.4C517.01 343.76 500.62 346.6 500.46 346.63C498.371 346.993 496.477 348.082 495.112 349.705C493.748 351.327 493 353.38 493 355.5V786.27L399.12 1363.6C398.929 1364.78 398.974 1365.99 399.254 1367.15C399.534 1368.31 400.042 1369.41 400.75 1370.37C401.75 1371.76 426.33 1404.63 483.57 1437.54C516.92 1456.72 554.57 1471.98 595.57 1482.92C646.57 1496.54 702.88 1503.44 762.89 1503.44C782.58 1503.44 802.97 1502.69 823.51 1501.22C835.74 1500.34 848.3 1499.22 860.85 1497.77C866.99 1497.09 873.15 1496.34 879.16 1495.55C886.44 1494.55 893.91 1493.55 901.36 1492.41C914.81 1490.35 927.75 1488.24 939.85 1486.11C941.76 1485.78 943.64 1485.4 945.45 1485.03C948.45 1484.42 951.25 1483.85 953.94 1483.55H954C1013.24 1477.21 1065.29 1468.55 1108.7 1457.69C1143.7 1448.97 1173.3 1438.83 1196.63 1427.56C1233.3 1409.86 1244.11 1394.26 1246.63 1389.81C1252.38 1381.75 1294.26 1314.7 1254.78 1123.08C1245.12 1076.16 1250.58 1027.81 1258.12 974.01C1258.13 973.904 1258.13 973.797 1258.12 973.69L1259.29 965.4C1262.29 943.95 1265.44 921.76 1267.29 899.97C1279.5 756.29 1291.53 558.89 1279.5 434.42C1279.38 433.13 1279.25 431.82 1279.11 430.5C1276.39 403.75 1272.56 381.35 1267.72 363.92C1267.56 363.32 1267.39 362.72 1267.22 362.13C1262.67 346.21 1257.28 334.36 1250.73 325.92C1238.52 310.16 1212.82 299.47 1172.16 293.24C1144.25 288.96 1108.8 286.79 1066.8 286.79L1066.84 286.78Z" fill="#17091D"/>
<path id="Vector_32" d="M822.86 1492.24C517.72 1514.17 408 1365 408 1365L502 787V416.66C556.9 399.61 596 388 596 388C596 388 685 506.6 601.51 700.3C518.02 894 493 1129.34 531 1243.17C569 1357 621.32 1439.67 728.66 1461.34C761.162 1467.91 792.779 1478.28 822.86 1492.24Z" fill="#9C398C"/>
<path id="Vector_33" d="M1295.76 385.761C1289.11 402.682 1280.89 418.94 1271.2 434.321C1271 434.641 1270.8 434.961 1270.59 435.321C1256.59 457.345 1240.04 477.636 1221.27 495.771C1205.05 511.499 1187.39 525.684 1168.54 538.141C1123.28 568.141 1068.27 590.661 1004.78 601.021C992.693 603.021 980.293 604.547 967.58 605.601C965.74 605.761 963.88 605.911 962.02 606.041C949.893 606.921 938.02 607.254 926.4 607.041C924.75 607.041 923.11 607.041 921.47 606.941C847.65 604.941 784.06 582.511 730.18 549.231C691.18 525.111 657.18 495.301 628.18 463.431C608.558 441.805 590.531 418.784 574.24 394.551C563.67 378.891 554.19 363.351 545.75 348.301C604.75 338.871 716.14 322.161 833.15 310.121C895.48 327.951 967.72 338.121 1042.51 338.511C1093.32 338.791 1135.9 323.821 1170.86 302.141C1206.56 307.611 1232.46 316.961 1243.68 331.431C1249.6 339.071 1254.55 350.341 1258.63 364.611L1262.77 355.511C1262.77 355.511 1275.63 365.231 1295.76 385.761Z" fill="#9C398C"/>
<path id="Vector_34" d="M900.21 1516.71C893.649 1516.72 887.157 1515.37 881.148 1512.73C875.139 1510.09 869.746 1506.24 865.31 1501.4L728.21 1352.67C704.098 1326.34 691.432 1291.51 693 1255.84L730.48 445.84L733.41 444.84C735.41 444.18 933.22 378.7 1056.89 378.7C1106.42 378.7 1138.51 389.24 1152.29 410.03C1180.8 453.03 1174.78 639.47 1168.65 746.77C1168.2 754.57 1167.73 762.404 1167.24 770.27C1161.62 859.7 1152.57 957.27 1141.75 1045.03V1045.31C1140.2 1057.8 1138.64 1069.92 1137.12 1081.31C1123.71 1181.83 1109.93 1252.1 1098.33 1279.17C1068.75 1348.17 986.33 1444.82 939.83 1496.29C938.3 1497.97 936.83 1499.61 935.36 1501.2C930.904 1506.09 925.476 1510 919.423 1512.67C913.37 1515.34 906.826 1516.72 900.21 1516.71Z" fill="#7E4282"/>
<path id="Vector_35" d="M1056.85 383.18C1100.01 383.18 1134.33 391.12 1148.5 412.5C1171.58 447.33 1173.18 587.83 1164.12 746.5C1163.67 754.287 1163.2 762.114 1162.71 769.98C1156.89 862.57 1147.71 959.78 1137.21 1044.74C1135.69 1057.01 1134.15 1069.01 1132.59 1080.74C1120 1175.08 1106.08 1249.51 1094.12 1277.42C1064.97 1345.42 984.12 1440.54 936.42 1493.29L931.97 1498.19C927.964 1502.6 923.082 1506.13 917.636 1508.56C912.19 1510.98 906.299 1512.24 900.339 1512.26C894.379 1512.28 888.48 1511.05 883.018 1508.67C877.557 1506.28 872.653 1502.78 868.62 1498.39L731.52 1349.65C719.937 1337.08 710.961 1322.34 705.113 1306.28C699.265 1290.22 696.661 1273.15 697.45 1256.08L704.78 1097.77L705.56 1080.85L719.16 786.91L720.34 761.36L734.79 449.12C734.79 449.12 932.48 383.21 1056.85 383.21M1056.85 374.21C1004.53 374.21 933.91 385.39 846.97 407.44C782.43 423.81 732.44 440.44 731.97 440.58L726.11 442.53L725.83 448.7L711.35 760.91L710.17 786.46L696.57 1080.4L695.79 1097.33L688.46 1255.63C687.616 1273.89 690.402 1292.14 696.657 1309.32C702.912 1326.5 712.511 1342.27 724.9 1355.72L862 1504.46C864.417 1507.09 867.097 1509.47 870 1511.55C880.356 1518.93 893.055 1522.25 905.698 1520.9C918.34 1519.55 930.048 1513.61 938.61 1504.21C940.063 1502.63 941.55 1500.99 943.07 1499.3C989.77 1447.62 1072.54 1350.54 1102.37 1280.94C1118.24 1243.94 1133.69 1140.34 1141.49 1081.94C1143.03 1070.39 1144.59 1058.26 1146.12 1045.89L1146.19 1045.34C1157 957.59 1166.05 860.04 1171.67 770.59C1172.16 762.74 1172.67 754.83 1173.08 747.07C1177.9 662.81 1179.37 588.72 1177.34 532.79C1175 466.54 1168 425.59 1156 407.53C1148 395.53 1134.63 386.67 1116.1 381.19C1100.37 376.54 1080.44 374.19 1056.85 374.19V374.21Z" fill="#17091D"/>
<path id="Vector_36" d="M1000.32 866.82C990.59 1020.46 951.68 1362.06 936.42 1493.26L931.97 1498.16C924.891 1505.93 915.214 1510.83 904.766 1511.95C894.318 1513.07 883.822 1510.32 875.26 1504.23C888.73 1418.45 916.12 1225 926.5 1011.5C934.41 848.69 928.28 702.9 921.5 606.93C916.24 533.14 910.58 488.79 910.58 488.79H1000.37C1000.37 488.79 1003.27 533.01 1004.82 600.65C1006.41 671.61 1006.56 768.35 1000.32 866.82Z" fill="#CE44A2" stroke="#17091D" stroke-width="9" stroke-linecap="round" stroke-linejoin="round"/>
<path id="Vector_37" d="M1004.77 600.65C990.62 603.199 976.343 604.985 962 606C948.147 607 934.63 607.31 921.45 606.93C916.19 533.14 910.53 488.79 910.53 488.79H1000.32C1000.32 488.79 1003.22 533 1004.77 600.65Z" fill="#9C398C"/>
<path id="Vector_38" d="M1137.21 1044.74L1132.59 1080.74C1113.88 1102.87 1070.31 1129.65 969.94 1145.03C828.09 1166.76 740.88 1122.57 704.78 1097.77L705.56 1080.85L1137.21 1044.74Z" fill="#5C2C66"/>
<path id="Vector_39" d="M1164.12 746.49C1163.67 754.277 1163.2 762.104 1162.71 769.97C1132.13 786.82 1074.71 808.97 969.94 824.97C844.3 844.22 761.52 811.74 719.16 786.85L720.34 761.3L1164.12 746.49Z" fill="#5C2C66"/>
<path id="Vector_40" d="M1000.32 866.82C990.59 1020.46 951.68 1362.06 936.42 1493.26L931.97 1498.16C924.891 1505.93 915.214 1510.83 904.766 1511.95C894.318 1513.07 883.822 1510.32 875.26 1504.23C888.73 1418.45 916.12 1225 926.5 1011.5C940.5 723.5 910.5 488.79 910.5 488.79H1000.29C1000.29 488.79 1012.5 674.5 1000.32 866.82Z" stroke="#17091D" stroke-width="9" stroke-linecap="round" stroke-linejoin="round"/>
<path id="Vector_41" d="M658.61 1061.72C658.61 1061.72 872.5 1155.5 1015.5 1103.5C1158.5 1051.5 1175.5 1035.5 1175.5 1035.5V969.5C1175.5 969.5 981.5 1125.5 665.5 993.5L658.61 1061.72Z" fill="#7E4282" stroke="#17091D" stroke-width="9" stroke-miterlimit="10"/>
<path id="Vector_42" d="M631.79 981.44L628 1073.06C627.865 1076.18 628.904 1079.24 630.912 1081.64C632.92 1084.03 635.752 1085.59 638.85 1086L659.85 1088.74C661.58 1088.97 663.339 1088.84 665.014 1088.35C666.689 1087.86 668.244 1087.02 669.576 1085.9C670.909 1084.77 671.992 1083.38 672.753 1081.81C673.515 1080.24 673.94 1078.52 674 1076.78L677.17 989.66C677.264 987.003 676.509 984.385 675.015 982.186C673.521 979.987 671.365 978.321 668.86 977.43L648.48 970.18C646.634 969.524 644.661 969.31 642.717 969.556C640.774 969.802 638.916 970.501 637.292 971.596C635.669 972.692 634.325 974.153 633.369 975.863C632.413 977.573 631.872 979.483 631.79 981.44Z" fill="#7E4282" stroke="#17091D" stroke-width="9" stroke-miterlimit="10"/>
<path id="Vector_43" d="M1171.15 950.13L1187.67 948.33C1189.73 948.106 1191.81 948.336 1193.78 949.005C1195.74 949.674 1197.53 950.765 1199.02 952.2C1200.52 953.636 1201.68 955.383 1202.42 957.316C1203.17 959.249 1203.48 961.323 1203.34 963.39L1197.34 1051.56C1197.11 1054.9 1195.71 1058.05 1193.38 1060.45C1191.05 1062.86 1187.95 1064.36 1184.62 1064.7L1174.12 1065.76C1172.15 1065.96 1170.16 1065.74 1168.27 1065.13C1166.39 1064.51 1164.66 1063.5 1163.19 1062.17C1161.72 1060.85 1160.54 1059.22 1159.74 1057.41C1158.94 1055.6 1158.52 1053.64 1158.52 1051.66V964.22C1158.52 960.728 1159.81 957.359 1162.14 954.758C1164.47 952.158 1167.68 950.51 1171.15 950.13Z" fill="#7E4282" stroke="#17091D" stroke-width="9" stroke-miterlimit="10"/>
<path id="Vector_44" d="M686.79 711.15C686.79 711.15 1053.38 785.33 1180.94 686.91L1190 747.17C1190 747.17 1034 858.5 679.74 769.5L686.79 711.15Z" fill="#7E4282" stroke="#17091D" stroke-width="9" stroke-miterlimit="10"/>
<path id="Vector_45" d="M658.92 693.82C659.03 718.05 658.77 758.95 658.61 780.37C658.579 784.293 660.03 788.083 662.675 790.982C665.319 793.88 668.96 795.672 672.87 796C682.69 796.83 694.09 797.17 694.96 794.41C696.16 790.59 699.46 725.41 700.86 696.78C701.043 693.078 699.899 689.432 697.633 686.499C695.367 683.566 692.128 681.538 688.5 680.78L677.68 678.51C675.408 678.034 673.058 678.073 670.803 678.622C668.548 679.172 666.444 680.219 664.645 681.687C662.847 683.155 661.399 685.006 660.409 687.105C659.418 689.204 658.909 691.499 658.92 693.82Z" fill="#7E4282" stroke="#17091D" stroke-width="9" stroke-miterlimit="10"/>
<path id="Vector_46" d="M1211.14 665.82L1208.81 757.12C1208.73 760.432 1207.36 763.58 1204.99 765.893C1202.61 768.207 1199.43 769.501 1196.12 769.5H1185.92C1182.63 769.5 1179.48 768.225 1177.11 765.944C1174.74 763.664 1173.35 760.554 1173.23 757.27L1169.94 667.47C1169.82 664.231 1170.94 661.07 1173.08 658.632C1175.22 656.195 1178.2 654.667 1181.43 654.36L1197.24 652.86C1199.03 652.69 1200.83 652.901 1202.53 653.479C1204.23 654.057 1205.79 654.989 1207.1 656.214C1208.42 657.439 1209.46 658.928 1210.15 660.584C1210.85 662.24 1211.19 664.024 1211.14 665.82Z" fill="#7E4282" stroke="#17091D" stroke-width="9" stroke-miterlimit="10"/>
</g>
<g id="glove 1">
<path id="Vector_47" d="M486 1632.18C474.17 1632.18 463.08 1628.76 454.17 1626C448.26 1624.18 443.17 1622.6 439.76 1622.6H439.41C438.823 1622.59 438.242 1622.71 437.7 1622.93C432.95 1625.32 422.7 1627.85 408.26 1627.85C399.011 1627.79 389.786 1626.92 380.69 1625.25H380.57C365.683 1622.48 351.094 1618.3 337 1612.77C331.18 1610.54 325.21 1608.03 319.26 1605.32L318.38 1604.9C305.1 1598.57 294.64 1586.9 287.31 1570.34C263.39 1516.12 279.11 1424.98 281.56 1411.82C279.61 1407.67 273.5 1394.51 267.91 1380.37C255.23 1348.27 256.01 1338.88 257.71 1334.6C258.097 1333.52 258.711 1332.53 259.512 1331.7C260.312 1330.88 261.28 1330.23 262.35 1329.81C267.35 1327.87 272.82 1325.69 278.59 1323.38C313.29 1309.5 360.82 1290.5 398.99 1290.5C410.68 1290.5 420.99 1292.29 429.67 1295.84C430.13 1296.03 430.6 1296.25 431.11 1296.51C432.088 1297 433.027 1297.57 433.92 1298.21L434.17 1298.39C454.17 1312.97 471.67 1370.49 474.79 1381.19C482.19 1386.07 515.79 1408.47 529.06 1421.37C529.54 1421.84 530.01 1422.37 530.46 1422.8C535.247 1428.04 538.982 1434.15 541.46 1440.8C542.74 1444.01 543.82 1447.25 544.86 1450.38C547.1 1457.11 549.22 1463.47 553.06 1468.86C558.86 1477.02 564.92 1495.86 570.77 1514.1C575.08 1527.52 579.54 1541.39 582.97 1547.58L583.45 1548.41C585.503 1551.65 586.707 1555.36 586.95 1559.19C587.193 1563.02 586.467 1566.85 584.84 1570.32C580.76 1579.43 571.68 1586.05 560.54 1588.04C555.85 1588.88 549.77 1593.33 545.54 1596.6C541.95 1599.42 538.21 1602.6 534.25 1606.04C520.78 1617.6 505.51 1630.71 490.76 1631.94C489.28 1632.11 487.63 1632.18 486 1632.18Z" fill="#CE44A2"/>
<path id="Vector_48" d="M399 1295C409.57 1295 419.38 1296.49 428 1300C428.34 1300.14 428.7 1300.31 429.09 1300.51C429.915 1300.92 430.705 1301.4 431.45 1301.95L431.63 1302.07C452.14 1317.07 470.96 1384.07 470.96 1384.07C470.96 1384.07 511.5 1410.54 525.96 1424.63C526.4 1425.06 526.83 1425.5 527.25 1425.94C531.652 1430.77 535.081 1436.41 537.35 1442.54C541.35 1452.54 543.35 1462.95 549.47 1471.54C559.2 1485.21 570.93 1535.06 579.11 1549.83C579.31 1550.2 579.51 1550.54 579.71 1550.83C587.9 1564.16 577.51 1580.5 559.82 1583.66C554.82 1584.55 549.11 1588.23 542.89 1593.11C526.89 1605.63 507.78 1626.11 490.51 1627.5C489 1627.63 487.51 1627.68 485.99 1627.68C466.87 1627.68 449.51 1618.11 439.75 1618.11H439.24C437.998 1618.12 436.773 1618.4 435.65 1618.93C431.89 1620.81 422.65 1623.36 408.25 1623.36C399.229 1623.3 390.231 1622.45 381.36 1620.81C366.769 1618.1 352.471 1614 338.66 1608.57C333.06 1606.42 327.233 1603.97 321.18 1601.22L320.39 1600.85C307.13 1594.52 297.85 1582.95 291.47 1568.51C266.47 1511.86 286.3 1411.21 286.3 1411.21C286.3 1411.21 251.5 1338.83 264 1334C299.4 1320.32 355.52 1295 399 1295ZM399 1286C360 1286 312 1305.2 276.92 1319.21C271.17 1321.52 265.73 1323.69 260.74 1325.62C259.096 1326.27 257.605 1327.26 256.365 1328.52C255.125 1329.78 254.163 1331.28 253.54 1332.94C251.27 1338.69 250.7 1349.01 263.75 1382.03C268.95 1395.2 274.47 1407.24 276.89 1412.44C273.697 1430.86 271.563 1449.45 270.5 1468.12C267.98 1512.34 272.26 1547.34 283.21 1572.12C290.99 1589.73 302.21 1602.12 316.48 1608.94L317.37 1609.36C323.44 1612.13 329.49 1614.67 335.37 1616.94C349.715 1622.57 364.561 1626.82 379.71 1629.64H379.89C389.228 1631.35 398.698 1632.23 408.19 1632.29C420.97 1632.29 432.58 1630.34 439.34 1627.05H439.69C442.4 1627.05 447.44 1628.6 452.77 1630.25C461.97 1633.09 473.42 1636.62 485.93 1636.62C487.71 1636.62 489.48 1636.55 491.2 1636.41C507.4 1635.06 523.2 1621.41 537.2 1609.41C541.13 1606.04 544.83 1602.86 548.34 1600.1C554.21 1595.5 558.58 1592.92 561.34 1592.43C573.93 1590.18 584.25 1582.59 588.94 1572.12C590.845 1567.98 591.692 1563.43 591.406 1558.88C591.12 1554.33 589.709 1549.92 587.3 1546.05V1545.98C587.19 1545.8 587.08 1545.63 586.99 1545.45C586.992 1545.42 586.992 1545.4 586.99 1545.37C583.78 1539.56 579.39 1525.9 575.14 1512.68C568.91 1493.27 563.02 1474.94 556.81 1466.22C553.36 1461.37 551.35 1455.32 549.21 1448.92C548.15 1445.73 547.05 1442.43 545.72 1439.09C543.043 1431.91 539.002 1425.31 533.82 1419.67V1419.61C533.27 1419.04 532.82 1418.54 532.31 1418.08C519.49 1405.58 488.31 1384.61 478.74 1378.26C477 1372.41 472.96 1359.47 467.44 1345.32C457.01 1318.61 447.06 1302.07 437.01 1294.73L436.86 1294.62L436.55 1294.41C435.49 1293.66 434.374 1292.99 433.21 1292.41C432.61 1292.1 432.05 1291.85 431.51 1291.62C422.27 1287.84 411.38 1285.93 399.11 1285.93L399 1286Z" fill="#17091D"/>
<path id="Vector_49" d="M559.81 1583.66C554.81 1584.55 549.1 1588.23 542.88 1593.11C526.88 1605.63 507.77 1626.11 490.5 1627.5C469.28 1629.27 449.62 1617.74 439.23 1618.12C437.988 1618.13 436.762 1618.41 435.64 1618.94C429.92 1621.81 411.52 1626.21 381.35 1620.82C366.759 1618.11 352.461 1614.01 338.65 1608.58C333.05 1606.43 327.223 1603.98 321.17 1601.23L320.38 1600.86C309.9 1595.74 300.26 1584.24 291.46 1568.52C266.46 1511.87 286.29 1411.22 286.29 1411.22C286.29 1411.22 251.5 1338.83 264 1334C308 1317 384 1282 428 1300C428.34 1300.14 428.7 1300.31 429.09 1300.51C429.9 1300.95 430.688 1301.43 431.45 1301.95L431.63 1302.07C452.14 1317.07 470.96 1384.07 470.96 1384.07C470.96 1384.07 511.5 1410.54 525.96 1424.63C526.4 1425.06 526.83 1425.5 527.25 1425.94C531.651 1430.77 535.08 1436.41 537.35 1442.54C502.81 1438.71 437.48 1432.11 421.01 1435.04C395.68 1439.56 345.2 1450.23 322.01 1452.04C298.82 1453.85 317.82 1469.34 321.17 1505.44C323.4 1529.56 319.77 1561.88 333.04 1581.19C339.63 1590.79 350.39 1597.19 368.11 1597.76L373.57 1597.91C399.57 1598.42 417.77 1596.22 432.37 1594.77C445.6 1593.45 455.84 1592.77 466.12 1595.19C482.89 1599.19 511.2 1607.29 544.55 1584.19C555.55 1576.57 567.19 1565.52 579.1 1549.79C579.3 1550.16 579.5 1550.5 579.7 1550.79C587.89 1564.16 577.5 1580.5 559.81 1583.66Z" fill="#9C398C"/>
<path id="Vector_50" d="M502.45 1556.87C502.45 1556.87 496.91 1526.43 524.63 1496" stroke="#17091D" stroke-width="8.86" stroke-linecap="round" stroke-linejoin="round"/>
<path id="Vector_51" d="M510.77 1522.09C510.77 1522.09 557.91 1552.52 541.27 1598.17" stroke="#17091D" stroke-width="8.86" stroke-linecap="round" stroke-linejoin="round"/>
<path id="Vector_52" d="M430.5 1546C430.5 1546 426.61 1596.57 440.5 1620.5" stroke="#17091D" stroke-width="10.67" stroke-linecap="round" stroke-linejoin="round"/>
<path id="Vector_53" d="M372.16 1569C372.16 1569 369.34 1615.89 387.38 1626.68" stroke="#17091D" stroke-width="8.79" stroke-linecap="round" stroke-linejoin="round"/>
<path id="Vector_54" d="M333.1 1580.26C333.1 1580.26 330.27 1609.87 348.38 1616.68" stroke="#17091D" stroke-width="7" stroke-linecap="round" stroke-linejoin="round"/>
<path id="Vector_55" d="M461.5 1577C467.299 1577 472 1564.24 472 1548.5C472 1532.76 467.299 1520 461.5 1520C455.701 1520 451 1532.76 451 1548.5C451 1564.24 455.701 1577 461.5 1577Z" fill="#D969BD"/>
<path id="Vector_56" d="M397.5 1573C403.299 1573 408 1563.37 408 1551.5C408 1539.63 403.299 1530 397.5 1530C391.701 1530 387 1539.63 387 1551.5C387 1563.37 391.701 1573 397.5 1573Z" fill="#D969BD"/>
<path id="Vector_57" d="M350.5 1584C356.299 1584 361 1576.61 361 1567.5C361 1558.39 356.299 1551 350.5 1551C344.701 1551 340 1558.39 340 1567.5C340 1576.61 344.701 1584 350.5 1584Z" fill="#D969BD"/>
</g>
<g id="arm 1">
<path id="Vector_58" d="M239.71 1397.32C234.638 1397.35 229.647 1396.04 225.253 1393.5C220.859 1390.97 217.22 1387.31 214.71 1382.9C202.71 1362.07 192.21 1335.9 183.41 1305.27C180.16 1293.96 177.09 1281.86 174.3 1269.27C153.94 1177.55 146.53 1056.07 153.44 927.2C161.44 778.2 187.97 640.44 224.44 558.64C287.84 416.24 410.18 326.9 477.46 286.33C480.178 284.691 483.032 283.289 485.99 282.14C498.754 277.223 512.901 277.288 525.619 282.324C538.336 287.36 548.693 296.997 554.63 309.32L602.55 408.54C602.656 408.755 602.743 408.979 602.81 409.21C616.01 453.42 617.94 506.8 608.56 567.86C601.08 616.47 586.46 670.09 565.08 727.2C531.6 816.67 491.69 887.12 485.25 898.26C495.09 946.99 455.3 992.47 445.64 1002.64C466.64 1065.72 479.29 1171.64 486.25 1249.91C488.13 1271.04 489.8 1292.58 491.25 1313.91C491.535 1317.86 490.997 1321.83 489.669 1325.56C488.342 1329.3 486.255 1332.71 483.54 1335.6C479.885 1339.55 475.201 1342.39 470.015 1343.82C464.83 1345.24 459.349 1345.19 454.19 1343.67C436.024 1338.33 417.194 1335.59 398.26 1335.53C393.6 1335.53 388.9 1335.71 384.26 1336.05C325.17 1340.41 280.26 1371.9 258.67 1390.29C253.387 1394.81 246.665 1397.3 239.71 1397.32Z" fill="#CE44A2"/>
<path id="Vector_59" d="M505.49 283C514.906 282.99 524.134 285.639 532.111 290.642C540.088 295.645 546.49 302.799 550.58 311.28L598.5 410.5C655.5 601.5 480.5 897.5 480.5 897.5C492.5 950.5 440.5 1001.5 440.5 1001.5C461.85 1063.79 474.7 1170.88 481.77 1250.34C483.96 1275.05 485.59 1297.08 486.77 1314.27C487.043 1318.21 486.359 1322.15 484.777 1325.76C483.195 1329.38 480.762 1332.55 477.686 1335.02C474.61 1337.49 470.982 1339.18 467.112 1339.95C463.241 1340.71 459.244 1340.53 455.46 1339.41C436.887 1333.94 417.631 1331.14 398.27 1331.09C393.397 1331.09 388.62 1331.27 383.94 1331.62C324.82 1335.98 279.86 1366.36 255.75 1386.92C251.297 1390.75 245.621 1392.85 239.75 1392.85C235.468 1392.87 231.256 1391.76 227.544 1389.62C223.833 1387.48 220.753 1384.4 218.62 1380.69C206.49 1359.57 196.23 1333.64 187.74 1304.06C184.473 1292.67 181.473 1280.77 178.74 1268.35C157.49 1172.63 151.48 1048.75 157.98 927.5C165.64 784.75 190.65 645.65 228.58 560.5C291.46 419.36 412.58 330.76 479.86 290.18C482.359 288.676 484.982 287.388 487.7 286.33C493.375 284.137 499.406 283.008 505.49 283ZM505.49 274C498.266 273.991 491.104 275.327 484.37 277.94C481.169 279.182 478.081 280.698 475.14 282.47C407.4 323.32 284.23 413.29 220.28 556.84C201.48 599 185.58 654.15 173 720.7C161.1 783.7 152.76 855.02 148.9 926.99C141.97 1056.25 149.42 1178.17 169.9 1270.27C172.72 1282.91 175.8 1295.11 179.08 1306.51C187.99 1337.51 198.66 1364 210.81 1385.14C213.28 1389.39 216.655 1393.05 220.696 1395.85C224.737 1398.65 229.345 1400.53 234.194 1401.35C239.042 1402.17 244.012 1401.91 248.75 1400.6C253.488 1399.28 257.878 1396.94 261.61 1393.74C282.73 1375.74 326.8 1344.83 384.61 1340.57C389.14 1340.23 393.74 1340.06 398.28 1340.06C416.793 1340.13 435.203 1342.82 452.96 1348.06C456.021 1348.95 459.192 1349.4 462.38 1349.41C466.971 1349.39 471.51 1348.44 475.718 1346.61C479.927 1344.77 483.715 1342.09 486.85 1338.74C489.989 1335.41 492.401 1331.45 493.935 1327.14C495.468 1322.82 496.09 1318.24 495.76 1313.67C494.32 1292.28 492.64 1270.67 490.76 1249.54C483.87 1172.06 471.38 1067.54 450.76 1003.77C459.052 994.585 466.42 984.607 472.76 973.98C488.2 947.98 494.13 922.16 490.01 899.09C498.58 884.09 537.01 815.29 569.33 728.81C590.81 671.41 605.52 617.49 613.03 568.57C622.52 506.85 620.54 452.81 607.15 407.96C607.017 407.499 606.843 407.05 606.63 406.62L558.71 307.4C553.887 297.385 546.332 288.935 536.916 283.026C527.5 277.117 516.606 273.988 505.49 274Z" fill="#17091D"/>
<path id="Vector_60" d="M440.5 1001.47C468.71 1083.8 482.1 1244.4 486.87 1316.02C487.125 1319.76 486.473 1323.5 484.97 1326.93C483.468 1330.35 481.159 1333.37 478.24 1335.71C475.322 1338.06 471.88 1339.66 468.207 1340.39C464.535 1341.12 460.742 1340.94 457.15 1339.89C433.457 1332.65 408.632 1329.84 383.92 1331.59C382.34 1286.31 380.58 1235.96 379.69 1212.41C377.88 1164.31 334 991.5 312 947.68C280 884 359.52 888.5 387.4 866.82C405.74 852.56 376.4 800.63 354.17 766.77C352.211 763.768 350.996 760.342 350.625 756.777C350.254 753.211 350.739 749.609 352.038 746.268C353.337 742.926 355.413 739.943 358.095 737.565C360.777 735.186 363.987 733.481 367.46 732.59C406.98 722.14 432.58 692.71 446.95 670.29C458.121 652.818 470.983 636.486 485.35 621.53C582.2 520.91 519.73 354.53 487.64 286.33C499.356 281.821 512.339 281.884 524.011 286.506C535.682 291.128 545.188 299.972 550.64 311.28L598.5 410.5C655.5 601.5 480.5 897.5 480.5 897.5C492.48 950.5 440.5 1001.47 440.5 1001.47Z" fill="#9C398C"/>
<path id="Vector_61" d="M445.5 1001.5C445.5 1001.5 417.5 940.22 361 948.36" stroke="#17091D" stroke-width="7" stroke-linecap="round" stroke-linejoin="round"/>
<path id="Vector_62" d="M483.55 897.5C483.55 897.5 458 849.78 435.25 836.14" stroke="#17091D" stroke-width="7" stroke-linecap="round" stroke-linejoin="round"/>
<path id="Vector_63" d="M216.15 683.42C218.302 689.12 222.378 693.889 227.673 696.901C232.969 699.914 239.151 700.982 245.15 699.92C261.41 697.14 287.44 687.67 299.98 656C318.98 608 334.98 594 305.98 581C276.98 568 262.98 582 249.98 610C236.98 638 210.98 669 215.98 683L216.15 683.42Z" fill="#D969BD"/>
<path id="Vector_64" d="M174.27 1269.3C153.91 1177.58 146.5 1056.1 153.41 927.23L153.53 924.93L155.47 923.68C162.99 918.85 170.4 914.42 177.47 910.51C204.93 895.36 228.15 887.68 246.47 887.68C248.12 887.68 249.76 887.74 251.34 887.86C258.179 888.312 264.834 890.269 270.83 893.59L273.1 894.89V1064.69C273.237 1119.56 255.729 1173.02 223.16 1217.18C208.47 1237.18 194.68 1255.32 182.16 1271.12L176.29 1278.52L174.27 1269.3Z" fill="#7E4282"/>
<path id="Vector_65" d="M246.5 892.18C248.03 892.18 249.5 892.23 251.02 892.35C257.198 892.744 263.212 894.503 268.63 897.5V1064.69C268.647 1118.58 251.455 1171.07 219.56 1214.51C206.799 1231.88 192.68 1250.62 178.66 1268.32C157.41 1172.6 151.399 1048.72 157.899 927.47C164.899 922.94 172.26 918.53 179.66 914.47C202.71 901.75 226.66 892.2 246.5 892.2M246.5 883.2C227.4 883.2 203.45 891.07 175.32 906.59C168.15 910.54 160.659 915.03 153.039 919.92L149.169 922.41L148.919 927.01C141.989 1056.28 149.439 1178.19 169.919 1270.29L174.02 1288.75L185.759 1273.93C198.319 1258.09 212.149 1239.93 226.869 1219.86C243.288 1197.51 256.047 1172.7 264.67 1146.34C273.292 1119.99 277.68 1092.44 277.67 1064.71V892.28L273.14 889.69C266.576 886.037 259.285 883.882 251.789 883.38C250.069 883.24 248.309 883.18 246.539 883.18L246.5 883.2Z" fill="#17091D"/>
<path id="Vector_66" d="M209 1071C166.77 1097.29 174.69 968.071 179.66 914.451C204.49 900.751 230.33 890.72 251.02 892.35C252 941.24 249.26 1045.93 209 1071Z" fill="#5C2C66"/>
<path id="Vector_67" d="M239.71 1397.34C234.638 1397.38 229.647 1396.06 225.252 1393.53C220.858 1391 217.219 1387.34 214.71 1382.93C202.71 1362.1 192.2 1335.93 183.39 1305.27L182.54 1302.34L184.95 1300.47C221.32 1272.28 287 1238.67 393.4 1238.67C423.23 1238.8 453.006 1241.2 482.47 1245.86L485.95 1246.4L486.26 1249.91C488.14 1271.06 489.82 1292.62 491.26 1313.98C491.547 1317.93 491.01 1321.89 489.685 1325.62C488.36 1329.35 486.274 1332.77 483.56 1335.65C480.851 1338.55 477.578 1340.87 473.94 1342.46C470.303 1344.05 466.379 1344.87 462.41 1344.89C459.645 1344.88 456.895 1344.49 454.24 1343.72C436.053 1338.37 417.199 1335.62 398.24 1335.56C393.58 1335.56 388.88 1335.74 384.24 1336.08C325.14 1340.44 280.17 1371.95 258.62 1390.34C253.345 1394.84 246.644 1397.32 239.71 1397.34Z" fill="#7E4282"/>
<path id="Vector_68" d="M393.39 1243.17C422.989 1243.29 452.536 1245.67 481.77 1250.31C483.96 1275.04 485.6 1297.09 486.77 1314.31C487.044 1318.24 486.363 1322.18 484.784 1325.79C483.205 1329.4 480.775 1332.58 477.703 1335.04C474.63 1337.51 471.005 1339.2 467.139 1339.96C463.272 1340.72 459.279 1340.54 455.5 1339.42C436.914 1333.94 417.645 1331.14 398.27 1331.09C393.396 1331.09 388.62 1331.27 383.94 1331.62C324.8 1335.98 279.82 1366.38 255.73 1386.95C251.275 1390.77 245.599 1392.87 239.73 1392.87C235.451 1392.89 231.244 1391.78 227.536 1389.64C223.828 1387.51 220.752 1384.43 218.62 1380.72C206.48 1359.59 196.21 1333.65 187.72 1304.06C222.34 1277.22 287.18 1243.2 393.41 1243.2M393.41 1234.2C285.74 1234.2 219.12 1268.32 182.21 1296.95L177.39 1300.68L179.07 1306.54C187.98 1337.54 198.66 1364.05 210.82 1385.2C213.285 1389.45 216.656 1393.11 220.693 1395.91C224.73 1398.71 229.335 1400.58 234.179 1401.4C239.024 1402.22 243.989 1401.97 248.723 1400.65C253.457 1399.33 257.843 1396.99 261.57 1393.79C282.7 1375.79 326.78 1344.86 384.57 1340.6C389.1 1340.26 393.7 1340.09 398.24 1340.09C416.766 1340.16 435.189 1342.85 452.96 1348.09C458.911 1349.84 465.232 1349.89 471.212 1348.25C477.193 1346.6 482.597 1343.32 486.82 1338.78C489.953 1335.46 492.361 1331.52 493.893 1327.21C495.425 1322.91 496.047 1318.34 495.72 1313.78C494.29 1292.4 492.61 1270.78 490.72 1249.61L490.1 1242.61L483.1 1241.54C453.408 1236.84 423.401 1234.42 393.34 1234.29L393.41 1234.2Z" fill="#17091D"/>
<path id="Vector_69" d="M458.64 435C468.195 426.405 474.751 414.978 477.35 402.39C481.54 382.86 487.43 340.39 459.35 340.2C422.95 340.01 339.2 429.8 398.07 445.9C427.56 454 446.78 445.47 458.64 435Z" fill="#D969BD"/>
</g>
<g id="collar front">
<path id="Vector_70" d="M969.48 538C862.29 538 750.74 506.54 663.42 451.7C568.42 392.04 513.26 311.51 508.09 224.96C507.393 213.195 507.591 201.394 508.68 189.66C508.766 188.704 509.155 187.801 509.79 187.082C510.425 186.362 511.272 185.864 512.21 185.66C512.522 185.592 512.84 185.559 513.16 185.56C513.955 185.56 514.735 185.772 515.422 186.172C516.109 186.573 516.678 187.148 517.07 187.84C536.39 221.84 586.82 250.12 662.93 269.69C732.13 287.49 820.72 297.3 912.37 297.3C999.11 297.3 1084.57 288.46 1153.01 272.41C1227.47 254.94 1279.89 229.76 1304.6 199.57C1305.02 199.055 1305.55 198.64 1306.15 198.354C1306.76 198.069 1307.41 197.921 1308.08 197.92C1308.58 197.92 1309.07 198.001 1309.54 198.16C1310.4 198.467 1311.15 199.028 1311.68 199.769C1312.22 200.51 1312.52 201.396 1312.54 202.31C1312.7 209.05 1312.71 215.85 1312.54 222.53C1312.88 241.914 1311.82 261.299 1309.36 280.53C1303.64 324.36 1290.17 363.73 1269.36 397.53C1249.87 429.14 1223.83 456.1 1191.98 477.64C1133.65 517.17 1056.7 538 969.48 538Z" fill="#CE44A2"/>
<path id="Vector_71" d="M513.16 190.11C555.8 265.11 733.84 301.85 912.37 301.85C1083.07 301.85 1254.21 268.28 1308.08 202.47C1308.24 209.283 1308.24 215.983 1308.08 222.57C1308.45 241.762 1307.42 260.957 1305 280C1281.59 459.23 1132.29 533.53 969.5 533.53C757.95 533.53 523.57 408.17 512.6 224.72C511.916 213.182 512.11 201.608 513.18 190.1M513.18 181.1C512.541 181.102 511.905 181.169 511.28 181.3C509.404 181.706 507.707 182.701 506.436 184.141C505.166 185.58 504.39 187.388 504.22 189.3C503.111 201.267 502.911 213.302 503.62 225.3C506.35 271.09 522.48 314.94 551.54 355.64C578.34 393.15 615.18 426.77 661.04 455.58C704.13 482.64 754.93 504.84 807.96 519.78C860.99 534.72 916.75 542.57 969.5 542.57C1057.62 542.57 1135.5 521.44 1194.56 481.47C1226.29 460.236 1253.12 432.457 1273.23 400C1294.41 365.65 1308.1 325.68 1313.9 281.22C1316.39 261.793 1317.47 242.212 1317.12 222.63C1317.25 215.91 1317.24 209.07 1317.12 202.3C1317.09 200.453 1316.48 198.661 1315.4 197.167C1314.31 195.674 1312.79 194.551 1311.04 193.952C1309.29 193.352 1307.41 193.305 1305.63 193.816C1303.86 194.327 1302.28 195.373 1301.12 196.81C1277.04 226.22 1225.47 250.88 1151.98 268.12C1083.87 284.12 998.78 292.89 912.37 292.89C821.09 292.89 732.9 283.13 664.05 265.42C589.15 246.16 539.68 218.59 520.98 185.7C520.194 184.318 519.057 183.17 517.683 182.371C516.309 181.571 514.749 181.15 513.16 181.15L513.18 181.1Z" fill="#17091D"/>
<path id="Vector_72" d="M1308.12 222.57C1308.48 241.763 1307.43 260.957 1305 280C1132.19 468.34 682.389 406.36 512.599 224.72C511.916 213.182 512.11 201.608 513.179 190.1C596.579 336.79 1197.89 337.1 1308.1 202.46C1308.25 209.28 1308.25 215.983 1308.12 222.57Z" fill="#D969BD"/>
</g>
</g>
</svg>
