<svg width="1000" height="1000" viewBox="0 0 1000 1000" fill="none" xmlns="http://www.w3.org/2000/svg">
<path d="M687.919 986.098C683.243 986.098 677.924 983.887 672.783 981.734C671.028 981.007 669.375 980.316 667.816 979.749C665.36 978.854 663.616 978.44 662.323 978.44C662.109 978.439 661.895 978.453 661.683 978.48C661.057 978.568 660.426 978.613 659.794 978.614C656.186 978.614 652.854 977.116 650.881 974.614C650.078 973.613 649.517 972.44 649.242 971.186C648.967 969.932 648.986 968.631 649.297 967.385C649.326 967.276 649.348 967.167 649.37 967.051C650.423 961.563 653.868 945.233 655.768 939.134C656.444 936.953 655.452 933.916 654.402 930.694C653.068 926.593 651.55 921.942 653.417 917.967C653.526 917.738 653.635 917.523 653.748 917.305C656.858 911.353 665.931 899.825 667.947 897.305C667.849 894.996 667.547 886.593 667.813 877.691C668.456 856.142 671.718 852.709 672.794 851.582C673.188 851.133 673.672 850.772 674.214 850.522C674.755 850.271 675.344 850.137 675.94 850.127C679.327 850.127 688.657 846.971 696.124 844.433C701.21 842.702 706.053 841.065 709.058 840.36C710.487 840.019 711.95 839.844 713.418 839.84C717.415 839.84 720.634 841.2 723.228 842.291C725.139 843.098 726.789 843.796 728.268 843.796C728.779 843.799 729.286 843.708 729.765 843.527C730.031 843.43 730.313 843.379 730.597 843.378C732.958 843.378 734.048 846.487 734.957 851.16C735.632 854.647 736.25 859.487 736.773 865.545C737.587 874.683 737.979 883.927 738.059 885.909C740.127 889.673 756.226 919.803 754.046 941.473C753.388 948.04 751.089 953.243 747.212 956.942L746.968 957.167C745.213 958.785 743.437 960.327 741.678 961.76C737.439 965.259 732.878 968.348 728.057 970.985C718.378 976.189 711.936 976.749 709.614 976.749C709.1 976.753 708.586 976.721 708.077 976.651H707.954C707.778 976.656 707.605 976.685 707.438 976.738C706.264 977.076 704.626 978.236 702.714 979.578C699.528 981.833 695.56 984.64 690.724 985.793C689.804 986.002 688.863 986.105 687.919 986.098Z" fill="#CE44A2"/>
<path d="M713.415 841.472C719.98 841.472 724.151 845.425 728.253 845.425C728.959 845.431 729.659 845.308 730.321 845.061C730.404 845.03 730.493 845.014 730.582 845.014C734.942 845.014 736.446 886.374 736.446 886.374C736.446 886.374 754.66 918.919 752.433 941.327C751.859 947.036 749.962 952.083 746.096 955.77L745.864 955.989C744.086 957.625 742.35 959.13 740.657 960.505C736.502 963.943 732.027 966.975 727.294 969.559C718.915 974.065 712.695 975.13 709.625 975.13C709.192 975.134 708.76 975.106 708.332 975.047C708.211 975.029 708.09 975.021 707.968 975.021C707.642 975.025 707.318 975.075 707.005 975.17C703.372 976.214 697.886 982.421 690.361 984.207C689.565 984.389 688.751 984.478 687.934 984.472C682.03 984.472 674.447 980.447 668.387 978.239C666.098 977.403 664.027 976.832 662.337 976.832C662.048 976.831 661.759 976.85 661.472 976.887C660.92 976.965 660.363 977.004 659.805 977.003C654.111 977.003 649.69 972.836 650.896 967.789C650.929 967.654 650.961 967.516 650.987 967.363C652.146 961.334 655.521 945.469 657.338 939.643C659.154 933.818 651.949 924.981 654.907 918.679C655.001 918.479 655.1 918.279 655.205 918.079C658.602 911.578 669.615 897.847 669.615 897.847C669.615 897.847 667.369 851.767 675.951 851.767C681.903 851.767 701.842 843.738 709.443 841.949C710.753 841.636 712.094 841.478 713.44 841.476M713.44 838.203C711.849 838.209 710.265 838.397 708.717 838.763C705.636 839.49 700.778 841.134 695.637 842.879C688.657 845.247 679.094 848.49 675.977 848.49C675.158 848.498 674.35 848.676 673.605 849.013C672.859 849.351 672.192 849.84 671.646 850.45C669.6 852.603 666.81 857.759 666.218 877.639C665.967 886.039 666.218 893.81 666.327 896.759C663.722 900.054 655.347 910.803 652.335 916.559C652.226 916.774 652.109 917.003 651.971 917.261V917.283C649.831 921.847 651.452 926.825 652.883 931.214C653.81 934.054 654.765 936.985 654.242 938.661C652.324 944.818 648.858 961.243 647.804 966.741C647.804 966.741 647.804 966.763 647.804 966.774C647.804 966.847 647.775 966.919 647.757 966.996C647.756 967.004 647.756 967.013 647.757 967.021C647.387 968.507 647.365 970.058 647.692 971.554C648.02 973.049 648.689 974.449 649.646 975.643C651.928 978.552 655.739 980.265 659.841 980.265C660.551 980.264 661.26 980.214 661.963 980.116C662.099 980.099 662.236 980.09 662.374 980.09C663.464 980.09 665.069 980.487 667.308 981.305C668.83 981.858 670.472 982.541 672.205 983.261C677.495 985.443 682.967 987.73 687.97 987.73C689.041 987.734 690.108 987.612 691.15 987.367C696.309 986.145 700.418 983.236 703.724 980.898C705.352 979.745 707.034 978.552 707.943 978.294H708.001C708.554 978.366 709.111 978.4 709.669 978.396C712.114 978.396 718.879 977.818 728.882 972.439C733.797 969.754 738.445 966.606 742.765 963.039C744.545 961.585 746.347 960.029 748.12 958.392L748.149 958.367L748.396 958.134C752.56 954.159 755.027 948.614 755.725 941.65C756.706 931.832 754.228 919.258 748.367 904.258C745.856 897.834 742.973 891.563 739.731 885.476C739.622 882.865 739.226 874.087 738.452 865.403C737.911 859.29 737.282 854.392 736.595 850.858C736.283 849.054 735.803 847.282 735.164 845.567C734.136 843.021 732.62 841.752 730.637 841.749C730.158 841.749 729.683 841.835 729.234 842.003C728.937 842.115 728.621 842.17 728.304 842.167C727.156 842.167 725.644 841.53 723.9 840.792C721.179 839.643 717.793 838.214 713.465 838.214L713.44 838.203Z" fill="#17091D"/>
<path d="M661.458 976.88C663.275 976.626 665.673 977.244 668.361 978.233C675.29 980.756 684.206 985.655 690.336 984.2C697.86 982.415 703.35 976.2 706.98 975.164C707.41 975.027 707.865 974.984 708.313 975.04C710.613 975.404 717.462 974.829 727.276 969.553C732.009 966.968 736.484 963.936 740.639 960.498C742.335 959.121 744.07 957.616 745.846 955.982L746.078 955.764C749.119 952.811 751.165 947.764 752.415 941.32C754.649 918.913 736.428 886.367 736.428 886.367C736.428 886.367 734.866 843.356 730.302 845.055C724.682 847.153 719.653 839.542 709.411 841.946C701.81 843.731 681.87 851.764 675.919 851.764C667.337 851.764 669.582 897.844 669.582 897.844C669.582 897.844 658.569 911.575 655.172 918.076C655.067 918.276 654.969 918.476 654.874 918.676C657.153 916.593 668.412 906.611 676.7 905.444C685.958 904.142 708.855 903.298 717.07 901.302C725.285 899.306 732.101 910.007 735.018 922.866C736.973 931.451 741.875 942.215 739.473 950.386C738.281 954.451 735.287 957.873 729.234 960.076C728.598 960.309 727.973 960.531 727.367 960.746C718.458 963.855 711.91 965.156 706.704 966.306C701.981 967.346 698.369 968.258 695.077 970.266C689.74 973.538 680.875 979.542 666.737 975.356C662.065 973.971 656.811 971.462 650.921 967.356C650.896 967.509 650.863 967.647 650.831 967.782C649.559 973.313 654.994 977.789 661.458 976.88Z" fill="#9C398C"/>
<path d="M662.403 941.851C662.813 941.131 663.728 940.879 664.448 941.288C671.228 945.144 675.049 950 677.172 953.926C678.231 955.884 678.865 957.606 679.236 958.852C679.422 959.474 679.542 959.979 679.617 960.336C679.655 960.514 679.681 960.656 679.698 960.757C679.707 960.807 679.713 960.847 679.718 960.877C679.72 960.892 679.722 960.904 679.724 960.914C679.724 960.919 679.725 960.922 679.726 960.926C679.726 960.927 679.725 960.929 679.726 960.931L679.727 960.933C679.727 960.933 679.712 960.937 678.24 961.138L679.727 960.935C679.838 961.755 679.264 962.511 678.443 962.623C677.623 962.735 676.866 962.161 676.754 961.34V961.339C676.754 961.337 676.753 961.335 676.753 961.333C676.751 961.32 676.748 961.297 676.742 961.264C676.731 961.198 676.711 961.093 676.682 960.952C676.622 960.67 676.522 960.247 676.361 959.709C676.04 958.633 675.481 957.105 674.533 955.353C672.642 951.856 669.197 947.439 662.966 943.895C662.246 943.486 661.994 942.571 662.403 941.851Z" fill="#17091D"/>
<path d="M670.277 949.11C670.799 948.467 671.743 948.368 672.387 948.889C673.03 949.411 673.128 950.353 672.608 950.997L672.609 950.998C672.608 950.998 672.607 951 672.605 951.003C672.601 951.008 672.594 951.017 672.584 951.029C672.564 951.054 672.533 951.094 672.492 951.147C672.41 951.255 672.286 951.42 672.131 951.637C671.82 952.07 671.382 952.712 670.888 953.526C669.896 955.16 668.689 957.469 667.81 960.179C666.055 965.589 665.641 972.45 670.679 978.874C671.19 979.526 671.076 980.469 670.424 980.98C669.772 981.491 668.83 981.377 668.318 980.725C662.457 973.251 663.014 965.24 664.956 959.253C665.926 956.264 667.248 953.741 668.323 951.97C668.862 951.082 669.343 950.376 669.692 949.888C669.867 949.645 670.009 949.455 670.109 949.324C670.16 949.258 670.199 949.208 670.228 949.172C670.242 949.154 670.254 949.14 670.262 949.13C670.266 949.125 670.269 949.12 670.272 949.117C670.273 949.116 670.274 949.114 670.275 949.113L670.276 949.111C670.28 949.113 670.336 949.158 671.427 950.042L670.277 949.11Z" fill="#17091D"/>
<path d="M701.287 947.864C702.053 947.548 702.929 947.911 703.246 948.677L701.86 949.25C703.241 948.679 703.247 948.676 703.247 948.677V948.678C703.247 948.679 703.248 948.68 703.248 948.682C703.249 948.684 703.251 948.688 703.253 948.692C703.257 948.702 703.263 948.715 703.27 948.732C703.284 948.767 703.305 948.818 703.331 948.884C703.384 949.016 703.461 949.21 703.558 949.458C703.751 949.954 704.023 950.67 704.342 951.56C704.98 953.337 705.808 955.813 706.571 958.605C708.075 964.104 709.416 971.136 708.287 976.442C708.115 977.253 707.318 977.77 706.508 977.598C705.698 977.425 705.181 976.629 705.353 975.818C706.317 971.285 705.177 964.876 703.678 959.396C702.94 956.698 702.137 954.298 701.518 952.573C701.208 951.711 700.946 951.019 700.762 950.545C700.67 950.308 700.596 950.125 700.547 950.003C700.523 949.942 700.505 949.896 700.492 949.866C700.486 949.852 700.481 949.84 700.479 949.833C700.477 949.83 700.475 949.827 700.475 949.825V949.823C700.158 949.058 700.522 948.181 701.287 947.864Z" fill="#17091D"/>
<path d="M724.054 949.211C724.825 948.906 725.696 949.285 726.001 950.055L724.605 950.606C726 950.055 726 950.056 726.001 950.056V950.057C726.001 950.058 726.002 950.059 726.003 950.06C726.004 950.063 726.005 950.067 726.006 950.071C726.01 950.08 726.016 950.093 726.022 950.11C726.035 950.143 726.053 950.191 726.077 950.254C726.124 950.378 726.192 950.559 726.275 950.789C726.442 951.249 726.673 951.909 726.934 952.718C727.455 954.333 728.1 956.557 728.585 958.976C729.068 961.385 729.405 964.048 729.279 966.522C729.154 968.969 728.566 971.439 726.995 973.248C726.451 973.873 725.504 973.939 724.879 973.396C724.253 972.853 724.187 971.906 724.73 971.281C725.665 970.204 726.173 968.524 726.283 966.369C726.391 964.241 726.101 961.85 725.643 959.566C725.187 957.292 724.577 955.184 724.079 953.639C723.83 952.869 723.611 952.242 723.455 951.811C723.377 951.596 723.314 951.429 723.272 951.318C723.251 951.263 723.235 951.221 723.224 951.194C723.219 951.18 723.215 951.17 723.213 951.164C723.212 951.161 723.211 951.159 723.211 951.158L723.21 951.157C722.905 950.386 723.284 949.515 724.054 949.211Z" fill="#17091D"/>
<path d="M738.768 948.705C739.528 948.374 740.411 948.722 740.742 949.482L739.367 950.08C740.742 949.481 740.743 949.482 740.743 949.483V949.484C740.743 949.484 740.745 949.485 740.745 949.486C740.746 949.489 740.747 949.492 740.749 949.495C740.752 949.502 740.756 949.512 740.761 949.524C740.771 949.547 740.784 949.58 740.802 949.622C740.836 949.706 740.884 949.826 740.942 949.978C741.058 950.28 741.216 950.712 741.386 951.241C741.723 952.296 742.117 953.766 742.329 955.396C742.74 958.558 742.523 962.855 739.14 965.57C738.493 966.089 737.55 965.985 737.031 965.339C736.513 964.693 736.617 963.749 737.263 963.231C739.366 961.542 739.731 958.679 739.354 955.782C739.172 954.383 738.829 953.097 738.528 952.155C738.378 951.687 738.24 951.31 738.141 951.053C738.092 950.925 738.053 950.826 738.027 950.763C738.014 950.731 738.005 950.708 737.999 950.694L737.991 950.678H737.992C737.662 949.919 738.009 949.036 738.768 948.705Z" fill="#17091D"/>
<path d="M690.75 969.817C693.358 969.817 695.473 965.177 695.473 959.453C695.473 953.73 693.358 949.09 690.75 949.09C688.141 949.09 686.026 953.73 686.026 959.453C686.026 965.177 688.141 969.817 690.75 969.817Z" fill="#D969BD"/>
<path d="M716.568 959.681C719.095 959.034 720.237 954.961 719.118 950.583C717.999 946.206 715.043 943.181 712.516 943.828C709.989 944.475 708.847 948.549 709.966 952.927C711.085 957.304 714.041 960.329 716.568 959.681Z" fill="#D969BD"/>
<path d="M732.668 952.194C734.851 951.635 735.988 948.706 735.207 945.651C734.426 942.597 732.023 940.573 729.84 941.132C727.657 941.691 726.52 944.621 727.301 947.676C728.082 950.73 730.485 952.753 732.668 952.194Z" fill="#D969BD"/>
<path d="M408.622 530.544C408.38 530.544 408.141 530.49 407.922 530.386C407.704 530.283 407.511 530.131 407.357 529.944L374.294 489.58C374.117 489.365 373.999 489.108 373.949 488.834C373.899 488.559 373.921 488.277 374.011 488.013L392.682 433.38C392.755 433.15 392.88 432.938 393.046 432.762L403.855 421.795C404.345 421.279 416.866 408.559 457.265 408.559C466.974 408.608 476.672 409.241 486.306 410.453C519.395 414.49 539.138 423.468 549.889 430.286C561.705 437.791 565.564 444.362 565.72 444.639C565.881 444.916 565.955 445.235 565.934 445.555L561.545 517.035C561.521 517.429 561.355 517.801 561.079 518.082C560.803 518.363 560.434 518.535 560.041 518.566L408.749 530.544H408.622Z" fill="#CE44A2"/>
<path d="M457.287 410.181C466.931 410.226 476.563 410.856 486.132 412.065C549.595 419.817 564.31 445.454 564.31 445.454L559.917 516.937L408.622 528.908L375.558 488.545L394.226 433.912L405.036 422.945C405.036 422.945 417.124 410.181 457.287 410.181ZM457.287 406.908C416.917 406.908 403.666 419.668 402.703 420.654L391.901 431.614C391.556 431.964 391.294 432.388 391.134 432.854L372.47 487.486C372.29 488.014 372.248 488.579 372.347 489.127C372.446 489.676 372.683 490.19 373.037 490.621L406.1 530.985C406.409 531.361 406.797 531.663 407.237 531.87C407.677 532.077 408.157 532.183 408.644 532.181C408.731 532.181 408.814 532.181 408.902 532.181L560.197 520.21C560.983 520.148 561.72 519.805 562.273 519.242C562.826 518.679 563.157 517.936 563.206 517.148L567.58 445.654C567.618 445.019 567.469 444.386 567.151 443.835C566.988 443.545 562.933 436.635 550.78 428.926C543.811 424.483 535.534 420.632 526.16 417.454C514.562 413.526 501.224 410.625 486.528 408.832C476.829 407.605 467.066 406.962 457.29 406.908H457.287Z" fill="#17091D"/>
<path d="M401.791 436.821C401.791 436.821 426.759 415.53 474.37 422.945C521.982 430.359 547.037 437.272 555.394 452.545C563.75 467.818 561.934 512.265 561.934 512.265L479.911 534.305L414.148 519.058C414.148 519.058 395.08 483.101 394.946 476.552C394.811 470.003 401.791 436.821 401.791 436.821Z" fill="#9C398C"/>
<path d="M419.718 425.691C432.13 421.217 450.529 417.714 474.601 421.463C498.409 425.17 516.693 428.768 530.091 433.38C543.47 437.985 552.261 443.694 556.71 451.825C558.927 455.878 560.411 461.73 561.423 468.084C562.44 474.475 563 481.524 563.297 488.064C563.593 494.609 563.628 500.671 563.588 505.095C563.568 507.307 563.528 509.112 563.495 510.365C563.478 510.992 563.463 511.481 563.452 511.813C563.446 511.98 563.441 512.107 563.438 512.193C563.437 512.236 563.435 512.269 563.434 512.291C563.434 512.302 563.434 512.31 563.433 512.316C563.433 512.319 563.432 512.322 563.432 512.323V512.325L561.934 512.264L563.432 512.326C563.406 512.981 562.956 513.543 562.323 513.714L480.301 535.754C480.063 535.818 479.813 535.821 479.573 535.765L413.809 520.518C413.386 520.42 413.026 520.144 412.823 519.761L414.148 519.057L412.823 519.76L412.822 519.759C412.821 519.757 412.82 519.755 412.819 519.753C412.817 519.748 412.813 519.742 412.808 519.733C412.799 519.716 412.785 519.689 412.767 519.655C412.731 519.586 412.677 519.484 412.607 519.351C412.467 519.085 412.261 518.694 412 518.195C411.477 517.197 410.73 515.764 409.834 514.024C408.041 510.545 405.648 505.835 403.25 500.918C400.853 496.005 398.443 490.867 396.621 486.538C395.71 484.375 394.938 482.393 394.386 480.731C393.852 479.12 393.468 477.65 393.446 476.583C393.409 474.787 393.847 471.347 394.477 467.347C395.116 463.293 395.979 458.514 396.844 453.951C397.71 449.386 398.58 445.026 399.233 441.809C399.56 440.201 399.832 438.877 400.023 437.955C400.119 437.494 400.194 437.134 400.245 436.888C400.27 436.766 400.29 436.672 400.303 436.608C400.31 436.577 400.315 436.553 400.318 436.537C400.32 436.529 400.321 436.522 400.322 436.518C400.322 436.516 400.323 436.514 400.323 436.513V436.512L400.354 436.392C400.437 436.116 400.597 435.868 400.818 435.679L401.791 436.821C400.854 435.723 400.82 435.681 400.819 435.679C400.819 435.678 400.821 435.677 400.822 435.677C400.824 435.675 400.826 435.674 400.828 435.672C400.833 435.668 400.839 435.662 400.846 435.656C400.862 435.643 400.883 435.624 400.911 435.601C400.966 435.556 401.048 435.491 401.152 435.408C401.361 435.242 401.667 435.005 402.071 434.71C402.879 434.119 404.075 433.292 405.656 432.329C408.817 430.402 413.517 427.927 419.718 425.691ZM474.139 424.427C450.601 420.761 432.71 424.196 420.735 428.513C414.743 430.674 410.226 433.058 407.217 434.891C405.713 435.808 404.586 436.586 403.842 437.131C403.553 437.342 403.322 437.519 403.149 437.654C403.101 437.886 403.038 438.193 402.961 438.564C402.77 439.483 402.498 440.802 402.173 442.406C401.521 445.615 400.654 449.961 399.792 454.51C398.929 459.06 398.072 463.805 397.44 467.814C396.8 471.878 396.416 475.042 396.446 476.521C396.458 477.091 396.699 478.177 397.233 479.786C397.75 481.344 398.49 483.246 399.385 485.375C401.176 489.629 403.559 494.709 405.946 499.603C408.331 504.494 410.713 509.183 412.5 512.65C413.393 514.383 414.137 515.81 414.657 516.804C414.857 517.186 415.025 517.504 415.155 517.751L479.884 532.759L560.47 511.104C560.478 510.867 560.488 510.593 560.496 510.285C560.529 509.048 560.568 507.26 560.588 505.067C560.627 500.68 560.593 494.676 560.3 488.2C560.006 481.72 559.452 474.793 558.46 468.554C557.461 462.279 556.039 456.848 554.078 453.264C550.17 446.122 542.255 440.74 529.115 436.217C515.993 431.7 497.943 428.133 474.139 424.427Z" fill="#17091D"/>
<path d="M488.555 957.978L468.437 854.2L454.518 532.193L469.382 510.375L470.519 510.702C470.621 510.731 480.972 513.655 497.01 513.655C513.989 513.639 530.82 510.507 546.67 504.415C547.565 504.063 548.517 503.879 549.479 503.873C551.659 503.873 553.777 504.873 555.717 506.84C564.012 515.251 570.465 542.542 575.443 590.277C579.341 627.669 582.219 677.208 583.999 737.509C587.029 840.153 585.816 939.779 585.794 940.782V941.426L568.717 959.349L488.555 957.978Z" fill="#7E4282"/>
<path d="M549.479 505.499C589.729 505.499 584.159 940.739 584.159 940.739L568.005 957.681L489.91 956.364L470.069 854.008L456.175 532.666L470.069 512.266C470.069 512.266 480.515 515.273 497.01 515.273C514.186 515.244 531.213 512.076 547.252 505.924C547.961 505.645 548.716 505.499 549.479 505.491M549.479 502.219C548.318 502.225 547.167 502.444 546.085 502.866C530.423 508.889 513.789 511.985 497.01 512.001C481.241 512.001 471.071 509.139 470.97 509.11L468.699 508.462L467.365 510.415L453.493 530.822L452.879 531.721L452.927 532.811L466.817 854.153V854.397L466.864 854.637L486.706 956.99L487.211 959.597L489.859 959.641L567.958 960.957L569.389 960.979L570.378 959.942L586.532 943.004L587.418 942.073L587.436 940.786C587.436 939.79 588.675 840.132 585.641 737.455C583.861 677.091 580.976 627.531 577.074 590.099C574.749 567.793 572.027 549.579 568.986 535.961C565.484 520.288 561.527 510.386 556.887 505.684C554.627 503.393 552.138 502.23 549.486 502.23L549.479 502.219Z" fill="#17091D"/>
<path d="M659.503 873.635C659.09 873.637 658.691 873.481 658.388 873.2C658.085 872.918 657.901 872.531 657.872 872.119C657.85 871.802 655.441 840.264 649.214 827.62C648.723 826.624 648.186 825.493 647.611 824.257C637.269 801.988 630.416 778.258 627.294 753.9L614.454 654.628C614.437 654.5 614.437 654.37 614.454 654.242L627.501 532.504L627.773 529.959C627.795 529.747 627.858 529.542 627.959 529.355L641.311 504.628C641.431 504.407 641.6 504.217 641.804 504.072C642.009 503.927 642.244 503.831 642.492 503.791C642.577 503.777 642.664 503.77 642.75 503.77C643.169 503.77 643.572 503.931 643.876 504.22C644.643 504.948 662.77 522.442 673.008 555.719L676.58 567.315C688.359 605.533 710.283 676.675 711.46 685.795C712.085 690.66 711.206 694.039 710.497 696.755C710.403 697.119 710.312 697.464 710.228 697.806C709.611 700.308 709.589 701.635 711.057 703.38C711.438 703.831 711.9 704.402 712.459 705.122C717.651 711.791 726.775 725.675 728.057 735.417C728.642 739.857 731.196 752.326 733.896 765.526C737.569 783.46 741.729 803.788 742.162 809.853C742.663 816.9 746.754 837.988 749.145 849.93C750.344 855.922 751.227 860.173 751.234 860.213C751.284 860.451 751.281 860.698 751.224 860.934C751.167 861.171 751.058 861.391 750.905 861.58C750.751 861.769 750.558 861.922 750.338 862.026C750.119 862.13 749.879 862.184 749.635 862.184C749.575 862.188 749.514 862.188 749.454 862.184C749.319 862.184 735.956 860.7 719.428 860.7C699.245 860.7 672.652 862.882 660.568 873.246C660.271 873.5 659.893 873.638 659.503 873.635Z" fill="#CE44A2"/>
<path d="M642.746 505.41C642.746 505.41 661.214 522.956 671.45 556.203C681.685 589.45 708.553 675.999 709.821 686.007C710.486 691.203 709.309 694.625 708.622 697.418C707.986 699.996 707.768 702.036 709.789 704.439C710.188 704.912 710.646 705.483 711.155 706.134C716.005 712.367 725.161 726.087 726.415 735.636C727.806 746.181 739.767 799.581 740.508 809.974C741.01 816.992 744.988 837.61 747.521 850.254C748.734 856.323 749.613 860.552 749.613 860.552C749.613 860.552 736.228 859.058 719.406 859.058C698.333 859.058 671.809 861.407 659.5 871.999C659.5 871.999 657.12 839.978 650.678 826.909C650.176 825.887 649.642 824.77 649.086 823.578C638.823 801.459 632.019 777.893 628.911 753.705L616.07 654.432L629.118 532.694L629.39 530.167L642.743 505.439M642.743 502.167C642.57 502.167 642.397 502.181 642.227 502.207C641.731 502.286 641.26 502.478 640.85 502.769C640.441 503.06 640.104 503.441 639.865 503.883L626.513 528.61C626.316 528.985 626.193 529.393 626.149 529.814L625.877 532.341L612.829 654.083C612.8 654.339 612.8 654.598 612.829 654.854L625.67 754.127C628.815 778.65 635.716 802.542 646.129 824.963C646.707 826.21 647.252 827.352 647.749 828.359C653.835 840.723 656.219 871.941 656.24 872.258C656.285 872.862 656.497 873.441 656.851 873.932C657.205 874.423 657.689 874.806 658.248 875.038C658.807 875.27 659.419 875.342 660.016 875.247C660.614 875.152 661.173 874.892 661.632 874.498C666.748 870.101 675.196 866.836 686.739 864.792C695.92 863.167 706.915 862.345 719.41 862.345C735.836 862.345 749.123 863.799 749.254 863.799C749.374 863.814 749.496 863.821 749.617 863.821C750.103 863.821 750.583 863.713 751.021 863.504C751.46 863.295 751.846 862.991 752.153 862.614C752.46 862.237 752.678 861.796 752.793 861.324C752.908 860.851 752.917 860.359 752.818 859.883C752.818 859.839 751.928 855.592 750.729 849.607C748.345 837.705 744.272 816.694 743.775 809.738C743.335 803.556 739.342 784.061 735.48 765.196C732.784 752.029 730.237 739.589 729.666 735.203C728.031 722.781 715.199 705.992 713.742 704.119C713.164 703.392 712.688 702.792 712.288 702.323C711.322 701.17 711.238 700.476 711.801 698.199C711.881 697.865 711.972 697.523 712.063 697.167C712.768 694.465 713.731 690.767 713.069 685.589C711.979 677.043 694.47 619.818 678.149 566.85C676.812 562.523 675.606 558.607 674.571 555.236C670.356 541.449 664.079 528.381 655.953 516.476C649.933 507.749 645.199 503.221 645.003 503.021C644.394 502.444 643.588 502.122 642.75 502.123L642.743 502.167Z" fill="#17091D"/>
<path d="M749.61 860.552C749.61 860.552 681.666 852.955 659.503 871.999C659.503 871.999 657.123 839.977 650.681 826.908C650.18 825.886 649.646 824.77 649.09 823.577C638.827 801.458 632.022 777.892 628.914 753.704L616.074 654.432L629.121 532.693L633.928 542.275C640.492 555.361 645.077 569.35 647.535 583.784C650.928 603.741 654.983 632.181 654.02 649.392C652.418 678.028 651.989 708.573 660.197 700.028C668.405 691.482 680.18 672.188 683.374 674.573C686.568 676.959 672.038 703.493 667.678 711.493C663.318 719.493 664.386 721.944 669.858 718.901C675.33 715.857 691.222 700.577 704.705 698.035C706.115 697.77 707.423 697.581 708.633 697.457C707.997 700.035 707.779 702.075 709.799 704.479C710.199 704.952 710.657 705.522 711.165 706.173C704.262 709.839 695.716 714.115 690.194 715.842C679.679 719.115 642.048 738.988 653.777 739.057C665.505 739.126 700.396 717.537 706.933 725.424C713.469 733.312 683.014 738.879 673.353 746.813C663.692 754.748 660.237 753.53 664.506 777.784C668.775 802.039 671.046 835.333 682.622 839.239C690.513 841.893 725.811 847.191 747.535 850.301C748.738 856.322 749.61 860.552 749.61 860.552Z" fill="#9C398C"/>
<path d="M658.188 869.887L654.721 870.934C653.586 871.277 652.616 872.025 651.995 873.037C651.375 874.048 651.146 875.252 651.353 876.421L653.671 889.49C653.894 890.744 654.6 891.86 655.637 892.597C656.675 893.334 657.96 893.632 659.216 893.428C675.094 890.836 727.159 882.832 753.581 884.661C754.278 884.711 754.977 884.61 755.631 884.364C756.285 884.118 756.878 883.734 757.37 883.237C757.862 882.741 758.24 882.143 758.48 881.487C758.72 880.83 758.815 880.129 758.758 879.432L757.356 862.363C757.266 861.296 756.825 860.288 756.102 859.498C755.379 858.709 754.414 858.182 753.359 857.999C746.688 856.839 731.348 854.923 710.529 857.003C683.719 859.679 660.967 868.781 658.606 869.73C658.475 869.792 658.333 869.843 658.188 869.887Z" fill="#9C398C"/>
<path d="M712.331 855.326C732.32 853.534 747.051 855.38 753.616 856.522H753.615C754.997 856.761 756.261 857.451 757.208 858.486C758.155 859.52 758.733 860.84 758.85 862.238L758.851 862.241L760.254 879.31V879.312C760.327 880.224 760.203 881.142 759.89 882.001C759.576 882.861 759.08 883.643 758.436 884.293C757.793 884.943 757.016 885.447 756.159 885.769C755.303 886.091 754.386 886.223 753.474 886.158V886.157C740.414 885.253 720.917 886.781 702.615 888.877C684.345 890.97 667.385 893.615 659.458 894.91H659.457C657.812 895.177 656.128 894.785 654.769 893.82C653.411 892.855 652.486 891.394 652.195 889.752L649.877 876.684C649.605 875.154 649.905 873.577 650.718 872.252C651.531 870.928 652.801 869.948 654.288 869.498L657.754 868.451L657.757 868.451C657.855 868.421 657.922 868.395 657.965 868.374C657.992 868.362 658.019 868.35 658.047 868.339C660.446 867.375 683.356 858.209 710.381 855.511L712.331 855.326ZM753.102 859.478C746.537 858.336 731.336 856.432 710.679 858.495C684.18 861.141 661.654 870.122 659.191 871.112C658.992 871.202 658.795 871.271 658.619 871.324L655.156 872.37C654.373 872.607 653.703 873.123 653.274 873.822C652.846 874.52 652.688 875.352 652.831 876.16L655.148 889.229L655.182 889.39C655.364 890.19 655.834 890.897 656.506 891.374C657.221 891.883 658.108 892.089 658.975 891.949L662.366 891.402C671.199 889.995 686.23 887.734 702.274 885.897C720.578 883.8 740.322 882.24 753.684 883.165H753.688C754.169 883.2 754.652 883.13 755.103 882.96C755.555 882.791 755.965 882.525 756.305 882.182C756.644 881.839 756.906 881.427 757.071 880.973C757.237 880.52 757.302 880.036 757.264 879.555L755.861 862.489C755.799 861.752 755.495 861.057 754.996 860.512C754.497 859.967 753.832 859.603 753.104 859.478H753.102Z" fill="#17091D"/>
<path d="M470.243 968.142C450.114 968.142 426.556 965.295 417.723 961.793C413.676 960.19 406.038 958.521 395.022 956.83C372.928 953.444 344.631 951.164 344.348 951.142C343.994 951.114 343.658 950.971 343.393 950.735C343.127 950.499 342.946 950.182 342.877 949.833C342.786 949.386 333.917 904.982 332.245 882.135V882.026C331.915 877.411 331.882 874.026 332.173 871.688C338.208 821.484 342.869 761.844 337.863 745.019C331.272 722.928 330.4 667.637 330.342 663.364C330.007 661.953 327.707 652.193 324.561 638.182C318.039 609.131 306.46 555.426 302.205 522.099C298.88 496.048 301.093 491.579 303.974 490.63C315.67 486.771 378.999 460.084 381.688 458.931L382.84 458.451C383.039 458.368 383.252 458.325 383.468 458.324C383.637 458.324 383.805 458.35 383.966 458.401C397.678 462.963 411.14 468.247 424.296 474.23C452.465 487.142 469.829 499.684 475.911 511.517C481.43 522.248 485.554 530.961 488.893 538.939C490.281 542.251 491.542 545.455 492.748 548.739C492.791 548.851 493.002 549.43 493.002 549.43C493.671 551.248 494.328 553.131 494.968 555.015C494.976 555.035 494.982 555.056 494.986 555.077C497.511 562.55 499.855 570.542 502.816 581.786C504.269 587.35 505.537 594.204 506.544 602.15C510.286 631.546 510.54 674.15 507.201 713.364C505.257 736.215 505.199 791.353 505.141 844.677C505.112 871.451 505.083 896.739 504.821 917.193L504.778 920.433C504.709 925.019 504.64 928.877 504.563 932.222C504.04 954.731 503.168 959.393 502.471 960.95C500.32 965.724 489.463 968.142 470.243 968.142Z" fill="#CE44A2"/>
<path d="M383.468 459.96C383.468 459.96 460.215 484.545 474.465 512.265C479.864 522.764 483.973 531.4 487.392 539.571C488.769 542.844 490.034 546.073 491.222 549.302C491.309 549.535 491.393 549.771 491.48 550.004C492.148 551.822 492.795 553.676 493.427 555.542C496.134 563.542 498.554 571.996 501.243 582.2C502.725 587.829 503.953 594.654 504.931 602.36C508.735 632.254 508.8 675.385 505.581 713.229C502.656 747.607 503.982 855.836 503.194 917.174V917.993C503.194 918.807 503.183 919.615 503.161 920.414C503.099 924.596 503.03 928.534 502.947 932.189C502.583 947.658 501.995 958.065 500.999 960.269C498.961 964.778 485.739 966.502 470.254 966.502C450.46 966.502 426.959 963.687 418.337 960.269C413.676 958.422 405.043 956.705 395.28 955.207C372.87 951.774 344.49 949.505 344.49 949.505C344.49 949.505 335.541 904.884 333.88 881.905C333.579 877.705 333.517 874.229 333.8 871.88C335.617 856.673 346.154 767.087 339.432 744.549C332.71 722.011 331.973 663.164 331.973 663.164C331.973 663.164 329.597 653.091 326.156 637.818C319.213 606.909 308.015 554.695 303.825 521.887C301.667 504.967 301.373 493.204 304.487 492.178C315.685 488.487 373.455 464.178 382.324 460.436L383.468 459.956M383.468 456.684C383.035 456.683 382.606 456.77 382.207 456.938L381.059 457.418C378.367 458.553 315.103 485.233 303.462 489.055C299.531 490.349 298.957 495.833 298.91 501.029C298.866 506.084 299.426 513.236 300.581 522.287C304.846 555.698 316.437 609.454 322.966 638.545C326.003 652.087 328.256 661.658 328.707 663.574C328.786 669.029 329.724 723.465 336.286 745.494C341.22 762.076 336.555 821.458 330.538 871.502C330.243 873.945 330.265 877.433 330.603 882.153C330.603 882.204 330.603 882.254 330.603 882.309C332.289 905.269 340.893 948.334 341.26 950.16C341.4 950.857 341.762 951.49 342.293 951.962C342.824 952.434 343.495 952.721 344.203 952.778C344.486 952.8 372.728 955.08 394.761 958.454C405.661 960.124 413.174 961.764 417.109 963.324C426.098 966.887 449.929 969.785 470.229 969.785C478.745 969.785 485.808 969.287 491.226 968.309C498.438 967.004 502.489 964.88 503.942 961.629C504.792 959.745 505.654 954.884 506.18 932.276C506.257 928.905 506.326 925.044 506.395 920.473L506.427 918.047V917.229C506.689 896.764 506.718 871.469 506.747 844.694C506.805 791.404 506.863 736.298 508.804 713.516C512.146 674.207 511.892 631.458 508.139 601.956C507.121 593.934 505.853 587.011 504.367 581.378C501.439 570.258 499.015 561.989 496.516 554.585C496.508 554.556 496.498 554.527 496.487 554.498C495.847 552.607 495.182 550.72 494.514 548.887V548.862L494.394 548.538C494.35 548.415 494.303 548.291 494.256 548.175C493.042 544.873 491.774 541.651 490.379 538.32C487.025 530.32 482.88 521.549 477.343 510.782C471.119 498.604 453.493 485.818 424.986 472.727C411.766 466.722 398.239 461.42 384.46 456.844C384.138 456.739 383.803 456.687 383.465 456.687L383.468 456.684Z" fill="#17091D"/>
<path d="M503.183 917.996C503.183 918.81 503.172 919.618 503.15 920.418C503.089 924.599 503.02 928.538 502.936 932.192C502.573 947.661 501.984 958.069 500.988 960.272C496.341 970.545 433.692 966.363 418.327 960.272C413.665 958.425 405.032 956.708 395.269 955.21C372.859 951.778 344.479 949.509 344.479 949.509C344.479 949.509 335.53 904.887 333.87 881.909C333.568 877.708 333.506 874.232 333.79 871.883C335.606 856.676 346.143 767.09 339.421 744.552C332.7 722.014 331.973 663.163 331.973 663.163C331.973 663.163 329.597 653.09 326.156 637.818C319.213 606.909 308.015 554.694 303.826 521.887C318.664 550.458 369.436 649.454 368.742 664.941C367.929 683.09 359.427 701.65 370.218 728.363C381.009 755.076 393.758 765.738 382.117 792.774C371.257 817.992 360.6 830.676 368.266 851.047C368.819 852.516 369.469 854.027 370.218 855.581C371.784 858.832 373.273 861.952 374.727 864.938C383.617 883.192 391.186 896.243 407.307 901.421C426.062 907.447 472.994 912.876 481.503 914.512C484.464 915.083 489.409 915.883 494.583 916.694C496.523 916.992 498.5 917.29 500.418 917.578L503.183 917.996Z" fill="#9C398C"/>
<path d="M505.581 713.233C502.656 747.611 503.982 855.84 503.194 917.178L500.44 917.589L494.499 918.48L494.601 916.705L498.768 844.876C499.353 821.029 500.727 738.909 500.988 712C501.25 685.091 498.547 609.454 497.486 600.338C497.26 598.411 496.817 595.302 496.254 591.611C494.161 577.822 490.441 555.811 490.441 555.811L489.398 550.527L489.169 549.367L491.476 550.014C492.145 551.833 492.791 553.687 493.424 555.553C496.13 563.553 498.55 572.011 501.239 582.214C502.721 587.844 503.949 594.669 504.927 602.374C508.72 632.258 508.8 675.389 505.581 713.233Z" fill="#D969BD"/>
<path d="M431.428 706.756C405.595 706.756 375.9 698.414 373.658 690.527C372.663 687.025 372.128 675.214 372.016 654.418C371.965 644.6 372.016 633.167 372.158 620.389C372.23 613.887 372.325 607.2 372.441 600.52C372.493 597.484 373.472 594.538 375.247 592.076C377.023 589.615 379.509 587.757 382.371 586.752C394.121 582.687 408.742 581.836 418.937 581.836C432.965 581.836 447.858 583.45 459.79 586.265C468.873 588.41 480.202 592.178 482.553 597.945C483.875 601.192 484.616 607.614 484.82 617.581C485.398 644.938 481.579 689.774 481.55 690.225C481.513 690.626 481.329 690.999 481.034 691.272C471.729 700.065 457.319 705.33 439.367 706.505C436.78 706.669 434.12 706.756 431.428 706.756Z" fill="#CE44A2"/>
<path d="M418.933 583.472C447.506 583.472 477.608 590.141 481.038 598.563C482.379 601.836 483.007 608.861 483.185 617.61C483.766 645.196 479.915 690.079 479.915 690.079C469.8 699.636 454.787 703.854 439.262 704.868C436.66 705.039 434.037 705.119 431.428 705.119C403.837 705.119 376.961 696.17 375.232 690.079C374.142 686.265 373.742 671.421 373.651 654.41C373.593 643.166 373.673 630.977 373.793 620.406C373.88 612.541 373.989 605.57 374.076 600.548C374.116 597.847 374.984 595.223 376.563 593.032C378.143 590.84 380.356 589.188 382.905 588.297C392.686 584.916 405.646 583.472 418.933 583.472ZM418.933 580.199C408.607 580.199 393.794 581.068 381.83 585.203C378.651 586.319 375.89 588.383 373.918 591.117C371.946 593.85 370.857 597.123 370.799 600.494C370.683 607.188 370.588 613.876 370.515 620.37C370.37 633.145 370.323 644.603 370.374 654.428C370.523 682.326 371.417 688.646 372.078 690.974C372.768 693.406 375.141 695.668 379.323 697.883C382.753 699.701 387.385 701.479 392.719 703.021C404.523 706.428 418.632 708.385 431.421 708.385C434.15 708.385 436.871 708.297 439.469 708.126C448.025 707.566 455.819 706.101 462.664 703.763C470.468 701.097 477.023 697.29 482.15 692.446C482.733 691.895 483.094 691.149 483.163 690.348C483.2 689.897 487.026 644.974 486.433 617.53C486.226 607.348 485.445 600.748 484.043 597.316C481.946 592.17 473.906 587.912 460.146 584.665C448.116 581.817 433.092 580.199 418.941 580.199H418.933Z" fill="#17091D"/>
<path d="M406.623 627.055C406.602 627.123 406.57 627.186 406.529 627.244C406.488 627.297 406.438 627.341 406.38 627.375C406.326 627.404 406.267 627.422 406.205 627.426C406.144 627.428 406.083 627.416 406.027 627.389C398.786 624.229 390.433 621.382 383.69 615.695C383.435 615.487 383.213 615.242 383.032 614.968C382.112 613.674 381.493 612.191 381.221 610.626C380.948 609.062 381.028 607.457 381.455 605.928C381.477 605.843 381.525 605.768 381.593 605.713C381.623 605.687 381.658 605.668 381.695 605.656C381.733 605.644 381.772 605.64 381.811 605.644C381.851 605.647 381.89 605.659 381.926 605.678C381.961 605.696 381.993 605.722 382.018 605.753C382.078 605.82 382.116 605.904 382.127 605.993C382.527 609.928 383.617 612.565 385.397 613.906C391.875 618.863 398.913 623.041 406.365 626.353C406.485 626.412 406.577 626.515 406.623 626.64C406.668 626.775 406.668 626.92 406.623 627.055Z" fill="#9C398C"/>
<path d="M451.55 627.676C452.939 625.758 454.709 624.149 456.749 622.949C460.956 620.397 465.022 617.621 468.931 614.632C470.109 613.714 471.169 612.652 472.085 611.472C472.165 611.36 472.28 611.277 472.412 611.236C472.534 611.207 472.662 611.22 472.776 611.272C472.903 611.333 473.008 611.434 473.073 611.56C473.147 611.695 473.182 611.849 473.175 612.003C473.135 615.138 471.359 617.094 468.979 618.661C463.628 622.143 457.988 625.432 452.058 628.531C452.014 628.554 451.965 628.568 451.915 628.572C451.865 628.576 451.815 628.569 451.768 628.552C451.665 628.517 451.578 628.447 451.521 628.356C451.461 628.255 451.43 628.139 451.43 628.021C451.434 627.897 451.476 627.776 451.55 627.676Z" fill="#9C398C"/>
<path d="M432.017 618.368C431.691 618.034 431.291 617.781 430.849 617.629C430.408 617.477 429.937 617.431 429.475 617.494C429.012 617.558 428.571 617.729 428.187 617.993C427.802 618.258 427.485 618.609 427.261 619.019C425.687 621.819 423.478 626.964 426.963 629.132C431.875 632.183 434.996 626.975 433.615 621.579C433.362 620.391 432.812 619.286 432.017 618.368Z" fill="#D969BD"/>
<path d="M429.272 616.006C429.967 615.911 430.674 615.98 431.337 616.208C431.917 616.408 432.45 616.724 432.902 617.136L433.091 617.319L433.151 617.384C434.099 618.478 434.757 619.792 435.069 621.205C435.84 624.22 435.414 627.38 433.84 629.434C433.033 630.488 431.898 631.27 430.491 631.48C429.093 631.688 427.62 631.304 426.171 630.405L426.17 630.404C423.684 628.857 423.376 626.251 423.735 624.068C424.091 621.898 425.141 619.728 425.953 618.283C426.29 617.674 426.763 617.151 427.336 616.756C427.914 616.358 428.577 616.101 429.272 616.006ZM429.678 618.979C429.448 619.01 429.229 619.095 429.037 619.227C428.846 619.359 428.688 619.534 428.577 619.738C428.574 619.742 428.571 619.748 428.569 619.752C427.808 621.106 426.966 622.909 426.696 624.554C426.428 626.185 426.758 627.235 427.755 627.856H427.754C428.762 628.481 429.522 628.59 430.047 628.512C430.563 628.435 431.044 628.15 431.458 627.61C432.328 626.474 432.772 624.331 432.162 621.95C432.157 621.93 432.153 621.91 432.149 621.89C431.952 620.966 431.527 620.106 430.914 619.387C430.758 619.234 430.57 619.118 430.363 619.046C430.143 618.971 429.908 618.947 429.678 618.979Z" fill="#17091D"/>
<path d="M479.911 690.08C469.8 699.636 454.787 703.854 439.262 704.869C439.389 702.851 440.177 701.087 442.074 700C449.37 695.818 460.215 691.818 469.404 686.451C476.242 682.451 475.631 657.094 474.872 644.396C474.811 643.339 474.531 642.307 474.05 641.365C473.568 640.423 472.896 639.591 472.075 638.924C471.255 638.256 470.304 637.767 469.285 637.488C468.265 637.209 467.198 637.145 466.152 637.301C463.48 637.707 460.883 638.506 458.446 639.672C450.503 643.527 434.055 651.091 428.289 651.611C422.523 652.131 429.317 694 425.589 689.792C421.862 685.585 425.684 655.443 423.322 653.141C420.961 650.84 390.441 639.08 383.988 636.189C379.09 634.007 375.221 647.683 373.636 654.4C373.578 643.156 373.789 629.832 373.909 619.261L404.066 632.716L423.141 640.898L431.385 641.989L439.127 639.807L483.17 617.6C483.766 645.196 479.911 690.08 479.911 690.08Z" fill="#9C398C"/>
<path d="M372.445 617.615C372.778 616.857 373.663 616.513 374.422 616.846L423.74 638.519C425.831 639.437 428.095 639.897 430.379 639.866C432.662 639.836 434.914 639.316 436.98 638.342L482.56 616.862C483.31 616.509 484.203 616.83 484.556 617.579C484.91 618.329 484.588 619.222 483.839 619.575L438.258 641.056C435.805 642.213 433.131 642.83 430.419 642.866C427.706 642.902 425.018 642.356 422.534 641.265L373.215 619.592C372.456 619.259 372.112 618.374 372.445 617.615Z" fill="#17091D"/>
<path d="M374.243 866.596C373.242 866.596 372.246 866.446 371.289 866.152C366.965 864.832 365.396 862.13 364.84 860.097C363.793 856.272 365.458 851.232 369.084 847.261C375.693 840.014 390.851 814.897 398.993 801.421C400.105 799.577 401.09 797.945 401.9 796.596C404.316 792.621 407.117 787.359 410.082 781.788C415.67 771.297 420.946 761.392 424.485 758.356C425.462 757.476 426.724 756.981 428.038 756.963C430.073 756.963 432.096 758.185 433.728 760.399C436.406 764.036 438.164 770.745 436.06 777.574C433.099 787.185 394.724 844.508 383.036 861.85C382.069 863.302 380.76 864.495 379.225 865.322C377.69 866.15 375.976 866.587 374.232 866.596H374.243Z" fill="#7E4282"/>
<path d="M428.06 758.6C432.674 758.6 437.358 767.876 434.52 777.091C431.588 786.611 391.796 845.96 381.702 860.935C380.882 862.162 379.775 863.17 378.477 863.872C377.179 864.573 375.729 864.947 374.254 864.96C373.414 864.962 372.579 864.84 371.776 864.596C363.572 862.087 365.527 853.604 370.301 848.371C377.931 840.007 396.461 808.735 403.317 797.462C410.173 786.189 420.441 764.007 425.571 759.611C426.251 758.986 427.136 758.631 428.06 758.615M428.06 755.342C426.356 755.359 424.715 755.993 423.442 757.127C419.932 760.138 415.31 768.549 408.661 781.033C405.708 786.585 402.917 791.825 400.523 795.76C399.705 797.109 398.706 798.742 397.616 800.589C389.503 814.044 374.399 839.044 367.895 846.171C364.72 849.655 361.839 855.262 363.285 860.545C364.222 863.978 366.918 866.531 370.831 867.735C371.944 868.073 373.101 868.246 374.265 868.247C376.277 868.243 378.258 867.743 380.032 866.792C381.806 865.841 383.319 864.467 384.438 862.793C389.318 855.556 401.922 836.778 413.566 818.793C435.657 784.64 437.183 779.72 437.67 778.105C440.097 770.225 437.797 763.145 435.09 759.476C433.143 756.833 430.654 755.375 428.085 755.375L428.06 755.342Z" fill="#17091D"/>
<path d="M470.243 968.141C450.114 968.141 426.556 965.294 417.723 961.792C413.676 960.189 406.038 958.52 395.022 956.829C372.924 953.443 344.631 951.163 344.348 951.141C343.994 951.113 343.658 950.97 343.393 950.734C343.127 950.498 342.946 950.181 342.876 949.832C342.786 949.385 333.888 904.843 332.238 882.025C332.215 881.707 332.286 881.389 332.441 881.11C332.597 880.832 332.83 880.605 333.112 880.457C333.395 880.31 333.715 880.248 334.032 880.28C334.349 880.311 334.65 880.435 334.898 880.636C336.892 882.258 384.751 920.272 472.031 920.272C481.964 920.272 492.17 919.771 502.373 918.781H502.511H503.143C503.36 918.781 503.575 918.824 503.775 918.907C503.975 918.991 504.157 919.114 504.309 919.269C504.461 919.423 504.581 919.607 504.662 919.809C504.742 920.01 504.782 920.226 504.778 920.443C504.709 925.029 504.64 928.883 504.563 932.229C504.04 954.738 503.168 959.4 502.471 960.956C500.32 965.723 489.463 968.141 470.243 968.141Z" fill="#CE44A2"/>
<path d="M333.869 881.91C336.122 883.728 384.318 921.91 472.031 921.91C481.721 921.91 491.89 921.444 502.551 920.412H503.165C503.103 924.593 503.034 928.532 502.95 932.186C502.587 947.655 501.998 958.063 501.003 960.266C498.965 964.775 485.743 966.499 470.258 966.499C450.463 966.499 426.963 963.684 418.341 960.266C413.679 958.419 405.046 956.703 395.284 955.204C372.873 951.772 344.493 949.503 344.493 949.503C344.493 949.503 335.544 904.881 333.884 881.903M333.884 878.63C333.434 878.629 332.989 878.72 332.576 878.9C332.163 879.079 331.791 879.341 331.484 879.67C331.177 880 330.941 880.389 330.792 880.814C330.642 881.239 330.582 881.69 330.614 882.139C332.271 905.048 340.915 948.321 341.281 950.139C341.421 950.836 341.784 951.469 342.315 951.941C342.846 952.413 343.516 952.7 344.224 952.757C344.508 952.779 372.75 955.059 394.782 958.433C405.682 960.103 413.196 961.743 417.131 963.303C426.12 966.866 449.951 969.764 470.25 969.764C478.767 969.764 485.83 969.266 491.247 968.288C498.459 966.983 502.511 964.859 503.964 961.608C504.814 959.724 505.675 954.863 506.202 932.255C506.278 928.884 506.347 925.023 506.416 920.452C506.423 920.018 506.343 919.587 506.181 919.185C506.02 918.782 505.78 918.416 505.476 918.107C505.171 917.798 504.809 917.553 504.409 917.385C504.009 917.218 503.58 917.132 503.146 917.132H503.107H502.492C502.402 917.132 502.307 917.132 502.216 917.132C492.072 918.117 481.913 918.615 472.027 918.615C385.317 918.615 337.902 880.935 335.926 879.343C335.343 878.871 334.616 878.614 333.866 878.615L333.884 878.63Z" fill="#17091D"/>
<path d="M503.15 920.417C503.088 924.599 503.019 928.537 502.936 932.192C491.604 932.675 477.114 933.126 464.339 932.977C438.669 932.679 415.888 926.363 396.065 922.137C381.702 919.079 389.779 941.559 395.269 955.21C372.859 951.777 344.479 949.508 344.479 949.508C344.479 949.508 335.53 904.886 333.87 881.908C336.369 883.937 395.524 930.803 502.536 920.425L503.15 920.417Z" fill="#9C398C"/>
<path d="M349.58 993.521C345.282 993.521 341.252 992.277 338.015 991.273C335.868 990.612 334.018 990.037 332.779 990.037H332.652C332.439 990.035 332.228 990.075 332.031 990.157C330.305 991.026 326.581 991.946 321.334 991.946C317.974 991.926 314.622 991.609 311.317 991.001H311.274C305.865 989.994 300.564 988.474 295.443 986.463C293.329 985.652 291.163 984.739 289.001 983.753L288.681 983.601C283.856 981.295 280.056 977.055 277.393 971.033C268.702 951.317 274.413 918.175 275.304 913.39C274.595 911.881 272.375 907.095 270.344 901.953C265.737 890.281 266.02 886.866 266.638 885.31C266.779 884.916 267.002 884.557 267.293 884.256C267.584 883.956 267.935 883.721 268.324 883.568C270.141 882.863 272.128 882.07 274.224 881.23C286.832 876.183 304.101 869.273 317.97 869.273C322.217 869.273 325.963 869.924 329.117 871.215C337.136 874.488 344.141 897.503 345.51 902.252C348.206 904.03 360.407 912.172 365.229 916.863C365.403 917.033 365.574 917.226 365.737 917.383C368.673 920.503 369.843 924.015 370.977 927.415C371.794 929.87 372.564 932.186 373.959 934.15C376.067 937.113 378.269 943.968 380.394 950.597C381.964 955.477 383.581 960.521 384.827 962.772L385.001 963.073C385.747 964.252 386.185 965.6 386.273 966.992C386.361 968.385 386.097 969.777 385.506 971.041C384.024 974.353 380.721 976.761 376.677 977.484C374.973 977.79 372.764 979.408 371.227 980.597C369.923 981.623 368.564 982.779 367.125 984.03C362.231 988.233 356.683 993.001 351.324 993.448C350.772 993.495 350.172 993.521 349.58 993.521Z" fill="#CE44A2"/>
<path d="M317.97 870.91C321.81 870.91 325.375 871.452 328.507 872.728C336.449 875.979 344.13 903.273 344.13 903.273C344.13 903.273 358.859 912.899 364.113 918.023C364.273 918.179 364.429 918.339 364.582 918.499C369.349 923.568 369.145 930.135 372.655 935.084C376.165 940.033 380.452 958.183 383.424 963.553C383.497 963.688 383.57 963.812 383.642 963.917C386.618 968.764 382.843 974.706 376.416 975.855C374.599 976.179 372.524 977.517 370.264 979.292C364.451 983.844 357.508 991.292 351.233 991.797C350.684 991.844 350.143 991.863 349.591 991.863C342.644 991.863 336.336 988.383 332.79 988.383H332.605C332.154 988.386 331.709 988.488 331.301 988.681C329.934 989.364 326.577 990.292 321.345 990.292C318.068 990.27 314.798 989.96 311.575 989.364C306.274 988.379 301.079 986.888 296.061 984.913C294.026 984.133 291.909 983.242 289.71 982.241L289.423 982.106C284.605 979.804 281.233 975.597 278.915 970.346C269.832 949.746 277.037 913.146 277.037 913.146C277.037 913.146 264.378 886.848 268.92 885.092C281.782 880.117 302.172 870.91 317.97 870.91ZM317.97 867.637C303.8 867.637 286.36 874.619 273.614 879.713C271.525 880.553 269.548 881.343 267.735 882.044C267.138 882.281 266.596 882.64 266.146 883.098C265.695 883.557 265.346 884.104 265.119 884.706C264.295 886.797 264.088 890.55 268.829 902.557C270.718 907.346 272.724 911.724 273.603 913.615C272.443 920.314 271.668 927.075 271.282 933.863C270.366 949.943 271.921 962.67 275.899 971.681C278.726 978.084 282.803 982.59 287.988 985.07L288.3 985.219H288.325C290.505 986.219 292.715 987.143 294.865 987.968C300.078 990.014 305.472 991.56 310.976 992.586H311.041C314.434 993.206 317.874 993.529 321.323 993.55C325.967 993.55 330.185 992.841 332.641 991.644H332.768C333.753 991.644 335.584 992.208 337.521 992.808C340.863 993.841 345.024 995.124 349.569 995.124C350.216 995.124 350.859 995.099 351.484 995.048C357.37 994.557 363.11 989.593 368.197 985.23C369.625 984.004 370.969 982.848 372.245 981.844C374.377 980.172 375.965 979.233 376.968 979.055C381.542 978.237 385.292 975.477 386.996 971.67C387.688 970.164 387.996 968.509 387.892 966.855C387.788 965.2 387.275 963.597 386.4 962.19V962.168C386.36 962.103 386.32 962.037 386.284 961.968C386.285 961.96 386.285 961.951 386.284 961.943C385.117 959.83 383.522 954.863 381.978 950.055C379.715 942.997 377.575 936.332 375.318 933.161C374.065 931.397 373.331 929.193 372.553 926.859C371.42 923.459 370.137 919.586 366.962 916.23C366.766 916.026 366.598 915.844 366.413 915.673C361.755 911.128 350.426 903.503 346.949 901.193C346.266 898.899 344.613 893.593 342.353 887.983C340.901 884.239 339.152 880.617 337.121 877.153C334.687 873.153 332.285 870.706 329.778 869.681C326.432 868.31 322.475 867.615 318.017 867.615L317.97 867.637Z" fill="#17091D"/>
<path d="M376.398 975.877C374.581 976.201 372.506 977.539 370.246 979.314C364.433 983.866 357.49 991.314 351.215 991.819C343.505 992.463 336.362 988.27 332.587 988.408C332.136 988.412 331.69 988.513 331.282 988.706C329.204 989.75 322.519 991.35 311.557 989.39C306.256 988.404 301.061 986.914 296.043 984.939C294.008 984.159 291.891 983.268 289.692 982.266L289.405 982.132C285.597 980.27 282.094 976.088 278.897 970.372C269.814 949.772 277.019 913.172 277.019 913.172C277.019 913.172 264.378 886.848 268.92 885.092C284.907 878.91 312.52 866.183 328.507 872.728C336.449 875.979 344.13 903.274 344.13 903.274C344.13 903.274 326.588 879.248 318.333 880.728C309.13 882.372 290.789 886.252 282.363 886.91C273.938 887.568 288.471 934.292 289.688 947.419C290.498 956.19 289.179 967.943 294.001 974.965C296.395 978.456 300.305 980.783 306.743 980.99L308.727 981.045C318.173 981.23 324.786 980.43 330.091 979.903C334.898 979.423 338.618 979.176 342.353 980.056C348.446 981.51 358.732 984.456 370.849 976.056C374.846 973.285 379.075 969.266 383.403 963.546C383.475 963.681 383.548 963.805 383.621 963.91C386.6 968.786 382.825 974.728 376.398 975.877Z" fill="#9C398C"/>
<path d="M362.506 942.99C363.064 942.378 364.013 942.333 364.625 942.891C365.238 943.448 365.282 944.397 364.725 945.01C359.902 950.309 357.997 955.575 357.285 959.485C356.928 961.446 356.871 963.071 356.9 964.193C356.914 964.754 356.95 965.188 356.982 965.475C356.997 965.618 357.011 965.724 357.021 965.79C357.026 965.823 357.029 965.847 357.031 965.859C357.032 965.863 357.032 965.865 357.032 965.867C357.18 966.682 356.64 967.462 355.825 967.61C355.01 967.759 354.23 967.218 354.081 966.403L355.557 966.135L354.081 966.401L354.08 966.399C354.08 966.398 354.08 966.396 354.079 966.395C354.079 966.391 354.078 966.387 354.077 966.383C354.076 966.373 354.074 966.361 354.071 966.346C354.067 966.316 354.06 966.276 354.053 966.226C354.038 966.124 354.019 965.981 353.999 965.8C353.96 965.438 353.917 964.92 353.901 964.271C353.867 962.972 353.935 961.138 354.334 958.948C355.134 954.558 357.258 948.756 362.506 942.99Z" fill="#17091D"/>
<path d="M357.32 952.674C357.77 951.978 358.698 951.779 359.394 952.229L358.58 953.488C359.394 952.228 359.394 952.229 359.395 952.23L359.396 952.231C359.397 952.231 359.399 952.232 359.401 952.233C359.404 952.236 359.409 952.239 359.415 952.242C359.426 952.249 359.441 952.259 359.46 952.272C359.498 952.297 359.552 952.333 359.62 952.38C359.756 952.473 359.949 952.61 360.191 952.787C360.674 953.142 361.35 953.662 362.138 954.338C363.711 955.687 365.751 957.673 367.6 960.213C371.305 965.3 374.322 972.74 371.071 981.667C370.787 982.445 369.926 982.847 369.148 982.564C368.37 982.28 367.968 981.419 368.252 980.641C371.046 972.968 368.523 966.575 365.175 961.98C363.499 959.678 361.634 957.86 360.184 956.615C359.461 955.995 358.846 955.521 358.417 955.205C358.202 955.048 358.033 954.93 357.921 954.854C357.866 954.815 357.824 954.787 357.797 954.77C357.785 954.761 357.776 954.755 357.77 954.751C357.768 954.75 357.767 954.748 357.766 954.747C357.765 954.748 357.764 954.747 357.764 954.747L357.765 954.748C357.07 954.298 356.87 953.37 357.32 952.674Z" fill="#17091D"/>
<path d="M329.53 960.688C330.356 960.752 330.974 961.472 330.91 962.298C330.91 962.3 330.91 962.304 330.909 962.308C330.909 962.316 330.909 962.328 330.907 962.343C330.905 962.376 330.901 962.426 330.897 962.492C330.888 962.623 330.876 962.819 330.862 963.073C330.833 963.581 330.799 964.321 330.773 965.236C330.72 967.068 330.701 969.598 330.837 972.392C331.114 978.068 332.021 984.512 334.346 988.521C334.762 989.238 334.518 990.156 333.801 990.572C333.084 990.987 332.166 990.743 331.75 990.027C329.029 985.334 328.119 978.233 327.841 972.539C327.7 969.648 327.719 967.037 327.774 965.149C327.801 964.205 327.837 963.439 327.866 962.908C327.881 962.642 327.894 962.434 327.904 962.292C327.908 962.221 327.913 962.166 327.915 962.128C327.917 962.11 327.917 962.096 327.918 962.086C327.919 962.081 327.919 962.077 327.919 962.074V962.069C327.983 961.243 328.704 960.625 329.53 960.688Z" fill="#17091D"/>
<path d="M308.308 969.05C309.083 969.096 309.685 969.724 309.716 970.483L309.715 970.637V970.638C309.715 970.639 309.715 970.641 309.714 970.644C309.714 970.651 309.714 970.662 309.713 970.677C309.712 970.706 309.709 970.75 309.707 970.809C309.701 970.928 309.693 971.106 309.686 971.335C309.671 971.793 309.657 972.457 309.66 973.266C309.666 974.889 309.741 977.084 310.014 979.387C310.288 981.7 310.756 984.062 311.519 986.051C312.292 988.065 313.296 989.503 314.518 990.234C315.229 990.66 315.46 991.581 315.035 992.292C314.609 993.003 313.688 993.234 312.977 992.808C310.922 991.578 309.596 989.413 308.718 987.127C307.83 984.815 307.325 982.179 307.036 979.739C306.745 977.289 306.666 974.975 306.66 973.278C306.656 972.428 306.671 971.728 306.687 971.239C306.695 970.994 306.703 970.802 306.709 970.669C306.713 970.602 306.715 970.551 306.717 970.515C306.718 970.498 306.719 970.483 306.719 970.473C306.719 970.469 306.72 970.465 306.72 970.462V970.458C306.72 970.457 306.721 970.457 308.218 970.547L306.72 970.457C306.77 969.63 307.481 969 308.308 969.05Z" fill="#17091D"/>
<path d="M294.169 973.148C294.993 973.226 295.598 973.959 295.52 974.783L295.518 974.799C295.516 974.814 295.514 974.84 295.512 974.874C295.507 974.943 295.5 975.048 295.493 975.185C295.479 975.459 295.465 975.861 295.468 976.353C295.474 977.341 295.547 978.67 295.809 980.056C296.349 982.925 297.585 985.532 300.106 986.481C300.882 986.772 301.273 987.638 300.981 988.413C300.689 989.188 299.825 989.58 299.05 989.288C294.991 987.761 293.451 983.744 292.86 980.611C292.556 978.997 292.475 977.479 292.468 976.371C292.464 975.815 292.481 975.355 292.497 975.031C292.505 974.869 292.514 974.741 292.52 974.65C292.524 974.605 292.526 974.57 292.528 974.544C292.529 974.531 292.531 974.521 292.531 974.514C292.532 974.51 292.532 974.506 292.532 974.504C292.532 974.503 292.532 974.501 292.532 974.5L292.533 974.499C292.539 974.499 292.631 974.507 294.026 974.641L292.533 974.498C292.612 973.673 293.344 973.069 294.169 973.148Z" fill="#17091D"/>
<path d="M340.678 973.456C342.785 973.456 344.493 968.816 344.493 963.092C344.493 957.368 342.785 952.729 340.678 952.729C338.571 952.729 336.863 957.368 336.863 963.092C336.863 968.816 338.571 973.456 340.678 973.456Z" fill="#D969BD"/>
<path d="M317.425 972.002C319.532 972.002 321.24 968.501 321.24 964.183C321.24 959.866 319.532 956.365 317.425 956.365C315.318 956.365 313.61 959.866 313.61 964.183C313.61 968.501 315.318 972.002 317.425 972.002Z" fill="#D969BD"/>
<path d="M300.348 976C302.455 976 304.163 973.314 304.163 970C304.163 966.686 302.455 964 300.348 964C298.241 964 296.533 966.686 296.533 970C296.533 973.314 298.241 976 300.348 976Z" fill="#D969BD"/>
<path d="M246.757 889.272C246.527 889.272 246.299 889.223 246.088 889.13C245.857 889.026 245.653 888.87 245.493 888.674C245.332 888.477 245.219 888.247 245.162 887.999C244.882 886.77 217.236 765.196 213.821 756.068C213.792 755.992 213.763 755.916 213.734 755.857C211.881 752.097 212.059 744.661 214.249 733.73C214.613 731.89 215.049 729.948 215.521 727.959C215.779 726.868 216.484 723.843 217.549 719.232C223.623 692.999 242.11 613.177 248.704 591.425C249.467 588.916 250.314 586.083 251.23 583.01C254.249 572.908 258.002 560.334 262.086 548.047C269.527 525.668 296.686 493.967 303.818 490.545C305.308 489.799 306.948 489.402 308.614 489.385C313.661 489.385 318.45 493.276 322.843 500.948C341.031 532.705 349.417 622.508 349.032 628.487C345.914 676.654 339.872 695.534 335.461 709.319C335.232 710.047 335.007 710.734 334.789 711.421C333.063 716.876 331.497 720.967 330.113 724.588C328.045 729.999 326.261 734.672 324.663 741.908C323.337 747.887 324.299 754.93 325.389 763.087C326.479 771.036 327.686 780.039 327.054 790.119C326.944 792.514 327.032 794.914 327.315 797.294V797.327C329.8 820.618 345.867 864.101 346.03 864.537C346.122 864.785 346.152 865.051 346.118 865.313C346.085 865.574 345.989 865.824 345.838 866.041C345.688 866.258 345.487 866.435 345.254 866.557C345.02 866.68 344.761 866.744 344.497 866.745H344.406C341.692 866.592 338.905 866.516 336.13 866.516C307.521 866.516 281.506 874.516 264.724 881.225C254.096 885.476 247.618 889.054 247.553 889.087C247.308 889.216 247.034 889.28 246.757 889.272Z" fill="#CE44A2"/>
<path d="M308.614 491.003C313.32 491.003 317.589 495.047 321.426 501.745C339.327 533 347.804 622.109 347.4 628.363C344.13 678.909 337.507 697.432 333.23 710.909C328.954 724.385 325.782 729.272 323.057 741.534C320.332 753.796 326.69 769.723 325.415 790C325.3 792.485 325.389 794.976 325.68 797.447C328.205 821.21 344.49 865.083 344.49 865.083C341.681 864.927 338.887 864.85 336.133 864.85C306.994 864.85 280.543 873.105 264.121 879.676C253.246 884.029 246.757 887.636 246.757 887.636C246.757 887.636 218.846 764.832 215.35 755.494C215.289 755.334 215.238 755.203 215.19 755.112C213.101 750.876 214.355 741.516 215.852 734.054C216.277 731.945 216.72 729.985 217.113 728.338C218.896 720.858 242.579 617.272 250.27 591.912C253.54 581.192 258.315 564.592 263.637 548.574C270.908 526.698 297.842 495.225 304.527 492C305.796 491.362 307.194 491.021 308.614 491.003ZM308.614 487.73C306.702 487.748 304.819 488.199 303.106 489.05C298.423 491.312 288.987 501.85 281.713 511.294C275.715 519.08 265 534.145 260.534 547.541C256.443 559.854 252.683 572.44 249.664 582.545C248.759 585.581 247.901 588.45 247.142 590.956C240.529 612.774 222.032 692.621 215.957 718.865C214.889 723.461 214.188 726.501 213.933 727.57C213.454 729.578 213.021 731.538 212.647 733.389C210.351 744.825 210.224 752.392 212.247 756.523L212.295 756.636C215.016 763.949 233.938 845.97 243.567 888.345C243.679 888.84 243.906 889.303 244.228 889.696C244.55 890.088 244.959 890.401 245.423 890.608C245.886 890.815 246.392 890.911 246.899 890.889C247.406 890.867 247.901 890.727 248.345 890.48C248.406 890.443 254.812 886.909 265.327 882.705C281.978 876.047 307.779 868.112 336.126 868.112C338.873 868.112 341.627 868.189 344.312 868.341H344.494C345.021 868.341 345.541 868.214 346.008 867.97C346.476 867.725 346.877 867.371 347.178 866.938C347.48 866.505 347.672 866.005 347.738 865.481C347.805 864.957 347.744 864.425 347.56 863.931C347.397 863.494 331.406 820.218 328.939 797.127C328.939 797.127 328.939 797.098 328.939 797.083C328.667 794.791 328.582 792.48 328.685 790.174C329.328 779.93 328.096 770.84 327.01 762.818C325.924 754.796 324.993 747.909 326.258 742.21C327.835 735.09 329.601 730.472 331.642 725.12C333.034 721.483 334.611 717.345 336.366 711.861L337.034 709.763C341.224 696.727 347.535 676.945 350.67 628.574C350.895 625.069 348.806 600.785 344.494 573.912C340.61 549.589 333.957 517.043 324.252 500.116C319.529 491.898 314.279 487.73 308.603 487.73H308.614Z" fill="#17091D"/>
<path d="M264.114 879.683C253.246 884.029 246.757 887.636 246.757 887.636C246.757 887.636 218.846 764.832 215.351 755.494C223.097 756.287 234.498 758.287 235.316 763.17C236.046 767.52 251.709 827.96 264.114 879.683Z" fill="#9C398C"/>
<path d="M263.637 548.574C257.711 599.974 236.554 705.92 231.25 716.16C227.544 723.32 220.07 731.501 215.873 735.636C215.937 735.11 215.929 734.578 215.852 734.054C216.277 731.945 216.72 729.985 217.112 728.338C218.896 720.858 242.578 617.272 250.27 591.912C253.522 581.192 258.314 564.592 263.637 548.574Z" fill="#9C398C"/>
<path d="M262.355 733.381C249.148 734.036 235.97 737.294 222.977 739.868C222.861 739.891 222.741 739.889 222.626 739.86C222.511 739.831 222.404 739.777 222.312 739.702C222.22 739.627 222.146 739.533 222.096 739.426C222.045 739.318 222.018 739.201 222.018 739.083C222.061 728.276 251.055 728.981 262.511 731.81C262.694 731.859 262.854 731.972 262.961 732.128C263.069 732.284 263.118 732.473 263.099 732.662C263.08 732.851 262.995 733.027 262.859 733.158C262.722 733.29 262.544 733.369 262.355 733.381Z" fill="#5C2C66"/>
<path d="M234.24 747.179C243.193 742.531 261.359 742.939 272.684 743.179C272.904 743.176 273.116 743.26 273.273 743.414C273.431 743.567 273.521 743.777 273.524 743.997C273.527 744.217 273.442 744.429 273.289 744.586C273.135 744.744 272.926 744.834 272.706 744.837C270.624 744.95 267.725 744.426 266.628 744.906C266.54 744.948 266.445 744.976 266.348 744.986C255.706 745.804 245.532 748.644 234.632 748.76C234.44 748.772 234.249 748.715 234.093 748.6C233.938 748.486 233.827 748.32 233.78 748.133C233.734 747.945 233.754 747.747 233.838 747.573C233.922 747.398 234.064 747.259 234.24 747.179Z" fill="#5C2C66"/>
<path d="M347.4 628.362C344.13 678.908 337.507 697.431 333.23 710.908C328.954 724.384 325.782 729.271 323.057 741.533C320.332 753.795 326.69 769.722 325.415 789.999C325.3 792.484 325.389 794.975 325.68 797.446C320.684 784.675 315.296 771.21 313.669 768.308C310.399 762.49 308.971 754.29 310.965 752.919C312.96 751.548 277.302 733.035 279.65 729.315C279.969 728.81 280.896 728.668 282.277 728.777C291.138 729.479 318.657 740.639 322.498 734.959C326.941 728.413 339.393 661.261 340.119 646.322C340.57 637.09 343.04 623.271 340.86 605.817C340.824 605.504 325.659 527.075 321.426 501.744C339.327 532.999 347.804 622.108 347.4 628.362Z" fill="#9C398C"/>
<path d="M309.846 737.13C320.979 740.508 320.717 744.595 308.807 740.355L308.702 740.308C302.162 737.002 295.186 735.057 288.479 732.366C288.278 732.274 288.115 732.115 288.019 731.917C287.922 731.718 287.898 731.492 287.949 731.277C288.001 731.063 288.125 730.872 288.301 730.739C288.477 730.606 288.694 730.538 288.915 730.548C294.942 731.1 305.177 735.868 309.846 737.13Z" fill="#5C2C66"/>
<path d="M253.054 912.949C250.089 912.949 248.247 912.022 247.582 910.196C239.668 888.418 240.853 886.393 241.405 885.418C241.841 884.662 242.913 883.516 247.516 880.763C252.267 877.937 257.25 875.523 262.413 873.549C263.31 873.185 264.281 872.822 265.276 872.491C285.631 865.337 306.854 860.953 328.376 859.458H328.467C328.707 859.458 330.44 859.393 332.733 859.393C344.29 859.393 345.736 860.647 346.278 862.047C346.397 862.353 346.739 863.138 347.168 864.156C353.239 878.382 355.568 885.207 355.212 887.716C355.119 888.321 354.859 888.888 354.46 889.353C352.313 891.898 346.085 892.462 336.104 893.185C333.543 893.371 330.894 893.549 328.474 893.814C318.145 894.884 281.822 904.694 272.946 907.909C263.579 911.298 257.068 912.949 253.054 912.949Z" fill="#CE44A2"/>
<path d="M332.74 861.025C337.376 861.025 344.229 861.261 344.763 862.636C345.58 864.727 354.122 883.817 353.599 887.479C353.551 887.783 353.417 888.067 353.214 888.297C350.801 891.145 338.012 891.177 328.325 892.181C317.789 893.272 281.455 903.09 272.408 906.363C266.061 908.657 257.875 911.308 253.054 911.308C250.997 911.308 249.555 910.828 249.119 909.632C247.665 905.632 241.489 888.541 242.833 886.239C243.353 885.345 245.7 883.763 248.374 882.163C253.039 879.384 257.934 877.012 263.005 875.072C263.938 874.708 264.878 874.362 265.825 874.032C286.044 866.923 307.128 862.57 328.507 861.09C328.507 861.09 330.324 861.025 332.74 861.025ZM332.74 857.752C330.426 857.752 328.671 857.81 328.42 857.817H328.271C306.602 859.32 285.234 863.735 264.742 870.941C263.728 871.305 262.744 871.668 261.835 872.032C256.595 874.04 251.536 876.493 246.714 879.363C242.074 882.141 240.682 883.468 240.021 884.607C239.16 886.083 238.695 888.134 241.816 898.272C243.444 903.559 245.413 908.981 246.06 910.763C246.706 912.545 248.425 914.592 253.068 914.592C257.334 914.592 263.837 912.959 273.535 909.45C282.36 906.257 318.436 896.505 328.678 895.443C331.058 895.196 333.696 895.007 336.246 894.821C346.964 894.043 353.152 893.454 355.721 890.421C356.322 889.724 356.714 888.87 356.851 887.959C357.265 885.05 355.056 878.425 348.694 863.519C348.269 862.523 347.935 861.737 347.822 861.45C346.823 858.879 343.716 858.367 340.621 858.065C338.553 857.865 335.897 857.759 332.754 857.759L332.74 857.752Z" fill="#17091D"/>
<path d="M353.213 888.298C350.801 891.145 338.011 891.178 328.325 892.182C317.788 893.273 281.455 903.091 272.408 906.363C263.361 909.636 250.572 913.636 249.118 909.636C247.665 905.636 241.488 888.545 242.833 886.243C243.352 885.349 245.699 883.767 248.373 882.167C253.039 879.388 257.934 877.016 263.005 875.076C263.005 875.076 262.867 892.72 269.345 894.713C275.823 896.705 332.939 888 345.983 887.636C348.411 887.555 350.84 887.777 353.213 888.298Z" fill="#9C398C"/>
<path d="M561.628 919.692C560.299 919.692 558.969 919.649 557.675 919.561C557.303 919.537 556.951 919.386 556.676 919.133C556.402 918.881 556.222 918.541 556.168 918.172C556.051 917.394 544.508 839.787 544.508 779.263C544.508 740.11 540.991 686.441 534.059 619.747L533.837 617.619C533.659 615.899 533.474 614.019 533.31 611.87L533.132 609.689C533.005 607.958 532.882 606.238 532.769 604.576L532.613 602.121L532.475 599.732L532.366 597.743C532.293 596.412 532.228 595.067 532.162 593.714C532.162 593.372 532.133 593.038 532.115 592.707V592.583C532.115 592.285 532.089 591.987 532.075 591.692C531.959 589.067 531.846 586.31 531.744 583.478C531.683 581.659 531.624 579.878 531.574 578.103L531.541 576.936C531.508 575.798 531.479 574.667 531.454 573.55C531.454 572.961 531.428 572.372 531.414 571.787C531.414 571.787 531.374 569.969 531.374 569.947C531.374 569.794 531.374 569.645 531.374 569.492C531.374 569.056 531.356 568.619 531.348 568.187V568.078C531.319 566.361 531.297 564.689 531.279 563.074C531.279 562.496 531.279 561.921 531.279 561.354C531.279 559.172 531.257 557.449 531.279 555.936V554.954C531.279 553.863 531.279 552.805 531.308 551.819C531.308 551.696 531.308 551.543 531.308 551.398C531.308 551.252 531.308 551.121 531.308 550.983C531.308 550.845 531.308 550.703 531.308 550.561C531.308 550.314 531.308 550.049 531.308 549.787C531.308 549.281 531.334 548.787 531.348 548.332C531.643 538.819 536.74 527.201 540.835 517.867C543.033 512.852 544.93 508.521 545.66 505.547C545.918 504.485 546.299 502.75 546.783 500.558C548.487 492.794 551.342 479.805 554.907 468.518C559.579 453.721 563.903 446.834 568.514 446.834C569.164 446.835 569.807 446.969 570.403 447.23C586.64 454.209 639.436 498.474 642.528 501.798C644.28 503.67 646.743 508.434 647.916 528.085C648.643 540.019 648.763 555.907 648.32 575.314C647.539 609.47 645.086 647.245 643.629 664.299C643.128 670.183 642.379 678.194 641.515 687.474C637.99 725.292 632.664 782.441 633.089 808.787C633.158 813.267 633.398 816.678 633.816 818.921C635.807 830.204 637.198 841.585 637.983 853.016C638.539 861.307 638.92 872.579 637.569 879.172C636.001 886.453 633.769 893.575 630.902 900.449C630.741 900.818 630.45 901.116 630.084 901.285C628.456 902.034 589.914 919.616 561.934 919.696L561.628 919.692Z" fill="#CE44A2"/>
<path d="M568.521 448.462C568.948 448.465 569.369 448.555 569.76 448.728C585.721 455.589 638.35 499.713 641.337 502.909C651.873 514.182 644.85 630.855 642.005 664.157C639.494 693.517 630.923 775.76 631.468 808.808C631.537 813.24 631.774 816.808 632.195 819.208C634.175 830.431 635.559 841.751 636.341 853.12C637.067 863.877 637.067 873.437 635.956 878.837C633.703 889.819 629.39 899.793 629.39 899.793C629.39 899.793 589.863 917.975 561.919 918.055H561.618C560.31 918.055 559.031 918.013 557.781 917.928C557.781 917.928 546.154 840.364 546.154 779.273C546.154 718.182 537.51 637.091 535.476 617.455C535.29 615.669 535.112 613.757 534.949 611.739L534.851 610.517C534.825 610.2 534.8 609.884 534.774 609.56C534.651 607.917 534.531 606.215 534.411 604.469C534.389 604.153 534.371 603.837 534.349 603.517C534.317 603.019 534.288 602.52 534.255 602.015L534.2 601.066C534.171 600.589 534.146 600.113 534.117 599.633L534.062 598.644L534.008 597.651C533.935 596.324 533.87 594.982 533.804 593.633C533.804 593.295 533.775 592.957 533.757 592.619C533.739 592.28 533.728 591.939 533.71 591.6C533.59 588.884 533.481 586.146 533.383 583.419C533.321 581.619 533.263 579.826 533.212 578.055L533.179 576.891C533.148 575.754 533.119 574.628 533.092 573.513C533.073 572.786 533.057 572.069 533.045 571.364L533.012 569.946C533.012 569.782 533.012 569.619 533.012 569.455C533.012 568.986 532.994 568.517 532.987 568.051C532.958 566.335 532.936 564.666 532.918 563.055C532.918 562.466 532.918 561.884 532.918 561.313C532.918 559.422 532.896 557.626 532.918 555.942C532.918 555.608 532.918 555.277 532.918 554.953C532.918 553.862 532.918 552.822 532.947 551.844C532.947 551.702 532.947 551.557 532.947 551.419C532.947 551.28 532.947 551.146 532.947 551.008C532.947 550.869 532.947 550.742 532.947 550.608C532.947 550.342 532.947 550.084 532.947 549.829C532.947 549.32 532.972 548.833 532.987 548.375C533.426 534.193 545.086 514.768 547.251 505.928C549.326 497.444 558.653 448.473 568.521 448.473M568.521 445.2C562.944 445.2 558.409 452.029 553.355 468.033C549.769 479.389 546.906 492.422 545.195 500.211C544.712 502.393 544.334 504.12 544.079 505.164C543.385 508 541.511 512.269 539.356 517.215C535.207 526.669 530.04 538.459 529.735 548.288C529.735 548.76 529.706 549.255 529.695 549.771C529.695 550.033 529.695 550.295 529.695 550.564C529.695 550.706 529.695 550.844 529.695 550.982C529.695 551.12 529.695 551.255 529.695 551.393C529.695 551.531 529.695 551.691 529.695 551.84C529.695 552.797 529.673 553.775 529.666 554.953V555.444C529.666 555.615 529.666 555.789 529.666 555.964C529.666 557.484 529.666 559.204 529.666 561.36C529.666 561.935 529.666 562.52 529.666 563.117C529.688 565.008 529.71 566.6 529.735 568.128C529.735 568.597 529.735 569.077 529.76 569.553C529.76 569.688 529.76 569.829 529.76 569.968V570.044L529.793 571.462V571.539C529.793 572.226 529.819 572.917 529.837 573.619C529.862 574.728 529.891 575.862 529.924 577.008L529.957 578.168C530.004 579.782 530.062 581.542 530.131 583.553C530.229 586.36 530.342 589.124 530.458 591.768V591.8C530.476 592.124 530.491 592.451 530.505 592.779V592.815C530.523 593.142 530.538 593.469 530.553 593.797C530.622 595.251 530.687 596.553 530.756 597.851L530.785 598.335L530.811 598.844L530.865 599.837C530.865 600.077 530.894 600.302 530.905 600.524C530.916 600.746 530.934 601.033 530.952 601.288L531.003 602.226V602.248L531.047 602.942C531.047 603.215 531.079 603.484 531.098 603.753C531.098 603.913 531.119 604.066 531.127 604.215L531.159 604.717C531.268 606.371 531.388 608.091 531.523 609.808L531.592 610.695V610.782L531.69 612.008C531.868 614.168 532.053 616.059 532.224 617.797L532.446 619.928C539.36 686.571 542.873 740.179 542.873 779.273C542.873 839.906 554.434 917.637 554.551 918.415C554.662 919.152 555.021 919.829 555.568 920.334C556.116 920.84 556.82 921.143 557.563 921.193C558.893 921.284 560.259 921.328 561.621 921.328H561.941C573.876 921.295 589.104 918.153 607.19 911.993C620.572 907.437 630.349 902.957 630.76 902.768C631.493 902.43 632.075 901.833 632.395 901.091C635.306 894.115 637.572 886.886 639.164 879.495C640.552 872.724 640.17 861.313 639.607 852.902C638.818 841.411 637.42 829.969 635.418 818.626C635.029 816.469 634.797 813.149 634.727 808.757C634.302 782.502 639.625 725.408 643.146 687.629C644.011 678.342 644.759 670.324 645.264 664.437C646.717 647.346 649.177 609.528 649.958 575.346C650.402 555.895 650.267 539.96 649.551 527.982C648.36 508.026 645.813 502.891 643.738 500.673C641.921 498.72 627.174 486.273 612.455 474.626C598.438 463.531 579.879 449.509 571.064 445.72C570.262 445.37 569.396 445.189 568.521 445.189V445.2Z" fill="#17091D"/>
<path d="M561.923 918.054C560.508 918.054 559.129 918.012 557.784 917.927C557.784 917.927 546.158 840.363 546.158 779.272C546.158 718.182 537.514 637.091 535.479 617.454C535.294 615.669 535.116 613.756 534.952 611.738L534.854 610.516C534.829 610.2 534.803 609.883 534.778 609.56C534.654 607.916 534.535 606.214 534.415 604.469C534.393 604.152 534.375 603.836 534.353 603.516C534.32 603.018 534.291 602.52 534.258 602.014L534.204 601.065C534.175 600.589 534.149 600.112 534.12 599.632L534.066 598.643L534.011 597.651C533.942 596.323 533.873 594.982 533.808 593.632C533.808 593.294 533.779 592.956 533.761 592.618C533.742 592.28 533.732 591.938 533.713 591.6C533.593 588.883 533.484 586.145 533.386 583.418C533.325 581.618 533.266 579.825 533.216 578.054L533.183 576.891C533.151 575.754 533.122 574.628 533.096 573.512C533.076 572.785 533.061 572.069 533.048 571.363L533.016 569.945C533.016 569.782 533.016 569.618 533.016 569.454C533.016 568.985 532.998 568.516 532.99 568.051C532.961 566.334 532.939 564.665 532.921 563.054C532.921 562.465 532.921 561.883 532.921 561.312C532.921 559.422 532.9 557.625 532.921 555.942C532.921 555.607 532.921 555.276 532.921 554.952C532.921 553.862 532.921 552.822 532.95 551.843C532.95 551.702 532.95 551.556 532.95 551.418C532.95 551.28 532.95 551.145 532.95 551.007C532.95 550.869 532.95 550.742 532.95 550.607C532.95 550.342 532.95 550.083 532.95 549.829C532.95 549.32 532.976 548.832 532.99 548.374C533.43 534.192 545.089 514.767 547.255 505.927C549.42 497.087 549.798 517.349 545.438 525.814C541.078 534.28 537.419 536.542 539.523 559.814C541.627 583.087 546.975 611.054 548.843 632.345C550.71 653.636 552.352 676.683 552.618 693.338C552.883 709.992 551.84 759.814 557.087 777.087C562.333 794.36 561.919 859.807 561.944 870.905C561.944 880.363 561.93 909.665 561.923 918.054Z" fill="#D969BD"/>
<path d="M634.934 853.953C627.969 842.142 605.453 787.887 598.717 771.538C597.658 769.034 597.162 766.328 597.265 763.61C597.367 760.893 598.065 758.232 599.309 755.815C599.599 755.251 599.923 754.706 600.28 754.182C601.417 752.531 602.75 752.186 603.673 752.186C605.817 752.186 609.385 753.742 615.58 767.211C617.985 772.44 623.624 785.902 628.601 797.782C630.164 801.509 631.657 805.055 632.961 808.167L633.085 808.462V808.778C633.154 813.258 633.394 816.669 633.812 818.913C635.803 830.196 637.194 841.577 637.979 853.007L638.441 859.887L634.934 853.953Z" fill="#7E4282"/>
<path d="M603.677 753.818C606.609 753.818 610.471 760 614.097 767.891C617.244 774.734 626.015 795.891 631.458 808.8C631.527 813.232 631.763 816.8 632.184 819.2C634.164 830.423 635.548 841.743 636.33 853.112C629.426 841.403 607.071 787.545 600.214 770.909C599.253 768.624 598.802 766.157 598.893 763.68C598.984 761.202 599.615 758.775 600.741 756.567C601.004 756.065 601.297 755.58 601.617 755.112C602.224 754.229 602.914 753.825 603.663 753.825M603.663 750.552C602.573 750.552 600.541 750.916 598.939 753.258C598.539 753.835 598.175 754.436 597.849 755.058C596.498 757.685 595.739 760.578 595.626 763.531C595.513 766.484 596.048 769.426 597.195 772.149C603.942 788.512 626.498 842.865 633.528 854.771L640.534 866.643L639.607 852.887C638.818 841.395 637.42 829.954 635.418 818.611C635.029 816.454 634.797 813.134 634.728 808.742V808.105L634.48 807.52C633.18 804.429 631.686 800.865 630.12 797.142C625.135 785.251 619.489 771.771 617.073 766.516C615.028 762.072 613.076 758.516 611.303 756.003C609.647 753.658 607.06 750.549 603.673 750.549L603.663 750.552Z" fill="#17091D"/>
<path d="M591.305 701.495C588.829 701.511 586.355 701.339 583.904 700.979L583.799 700.96C581.324 700.553 579.054 699.338 577.341 697.504C575.628 695.67 574.57 693.321 574.331 690.822C573.277 680.219 570.585 653.975 568.325 639.291C567.685 635.117 567.122 632.153 566.65 630.484C565.872 627.739 565.113 623.68 564.39 618.422C563.754 613.746 563.151 608.157 562.599 601.811C562.348 598.862 563.271 595.933 565.166 593.66C567.062 591.388 569.777 589.956 572.721 589.677L626.131 584.659C626.494 584.626 626.858 584.611 627.221 584.611C629.881 584.615 632.457 585.549 634.503 587.25C636.549 588.952 637.938 591.315 638.43 593.931L643.324 620.062C643.326 620.09 643.326 620.118 643.324 620.146L645.021 632.72C645.115 633.403 645.145 634.094 645.112 634.782L643.349 672.542C643.349 672.746 643.324 672.95 643.306 673.15L642.216 683.833C641.998 686.087 641.113 688.226 639.675 689.974C638.237 691.723 636.311 693.003 634.142 693.651C624.383 696.571 605.824 701.495 591.305 701.495Z" fill="#CE44A2"/>
<path d="M627.199 586.248C629.482 586.25 631.692 587.05 633.446 588.512C635.201 589.973 636.389 592.002 636.806 594.248L641.7 620.365L643.397 632.939C643.476 633.525 643.503 634.116 643.477 634.706L641.7 672.466C641.7 672.641 641.7 672.83 641.664 672.986L640.574 683.67C640.382 685.597 639.624 687.423 638.395 688.918C637.166 690.414 635.522 691.51 633.67 692.07C624.155 694.928 605.657 699.859 591.295 699.859C588.902 699.877 586.511 699.71 584.144 699.361H584.057C581.936 699.012 579.991 697.971 578.523 696.399C577.056 694.828 576.149 692.815 575.944 690.674C574.781 678.99 572.158 653.583 569.927 639.059C569.313 635.059 568.724 631.874 568.208 630.052C567.369 627.092 566.628 622.826 565.996 618.215C565.236 612.641 564.637 606.579 564.212 601.685C563.993 599.164 564.779 596.659 566.399 594.718C568.02 592.776 570.342 591.555 572.859 591.321L626.269 586.306C626.578 586.277 626.887 586.263 627.192 586.263M627.192 582.99C626.781 582.99 626.367 583.008 625.964 583.045L572.554 588.063C569.18 588.384 566.069 590.025 563.897 592.628C561.725 595.232 560.667 598.588 560.953 601.968C561.509 608.343 562.115 613.968 562.769 618.659C563.496 623.994 564.277 628.114 565.077 630.946C565.389 632.037 565.927 634.434 566.708 639.554C568.961 654.19 571.653 680.408 572.703 690.997C572.982 693.857 574.199 696.544 576.164 698.64C578.13 700.735 580.732 702.12 583.567 702.579H583.665C586.199 702.956 588.758 703.136 591.32 703.117C606.046 703.117 624.779 698.15 634.637 695.19C637.114 694.451 639.314 692.991 640.958 690.995C642.602 688.998 643.614 686.557 643.865 683.983L644.955 673.299C644.981 673.07 644.995 672.837 645.006 672.608L646.772 634.845C646.808 634.056 646.773 633.266 646.667 632.485L644.97 619.91C644.97 619.855 644.952 619.801 644.944 619.746L640.047 593.615C639.486 590.623 637.898 587.92 635.558 585.974C633.217 584.029 630.271 582.963 627.228 582.961L627.192 582.99Z" fill="#17091D"/>
<path d="M601.631 641.367C595.898 640.007 569.942 628.545 569.942 631.512V639.043C569.327 635.043 568.739 631.858 568.223 630.036C567.384 627.076 566.642 622.811 566.01 618.2L570.007 619.672L586.866 626.84L599.797 632.363L605.308 634.6L610.947 634.305L628.129 625.6L641.336 616.916L642.426 624C639.687 625.181 626.131 633.091 624.26 634.581C617.535 639.887 607.365 642.727 601.631 641.367Z" fill="#9C398C"/>
<path d="M639.959 690.081C639.959 690.081 603.96 702.466 584.159 699.361C586.369 698.086 588.713 697.06 591.149 696.303C604.727 692.055 630.618 687.455 635.014 681.928C635.846 680.885 641.093 668.71 642.063 665.092L639.959 690.081Z" fill="#9C398C"/>
<path d="M641.092 614.906C641.796 614.471 642.72 614.688 643.156 615.392C643.593 616.096 643.375 617.021 642.671 617.457L615.897 634.035C615.875 634.048 615.854 634.061 615.832 634.073C613.69 635.255 611.306 635.935 608.862 636.06C606.422 636.185 603.986 635.752 601.736 634.798L563.914 619.021C563.15 618.702 562.788 617.823 563.107 617.059C563.426 616.294 564.304 615.933 565.069 616.252L602.892 632.03L602.901 632.034C604.734 632.813 606.72 633.165 608.709 633.064C610.687 632.962 612.617 632.414 614.354 631.461L641.092 614.906Z" fill="#17091D"/>
<path d="M610.09 627.219C609.024 627.168 607.967 627.005 606.936 626.731L606.544 626.644C605.832 626.493 605.162 626.186 604.583 625.746C604.003 625.306 603.527 624.744 603.19 624.099C602.213 622.259 602.22 619.764 603.212 617.262C604.091 615.037 605.715 614.717 606.602 614.717C607.439 614.74 608.256 614.975 608.978 615.4C610.096 616.031 611.051 616.915 611.765 617.982C612.662 619.28 613.73 621.291 613.73 623.488C613.73 624.739 613.367 625.71 612.64 626.371C611.936 626.98 611.026 627.295 610.097 627.251L610.09 627.219Z" fill="#CE44A2"/>
<path d="M606.594 616.32C607.156 616.348 607.703 616.514 608.186 616.803C609.078 617.312 609.841 618.022 610.413 618.876C611.14 619.927 612.088 621.651 612.088 623.454C612.088 625.101 611.271 625.581 610.082 625.581C609.003 625.508 607.933 625.329 606.889 625.047C604.233 624.454 603.368 621.272 604.709 617.843C605.163 616.701 605.857 616.32 606.58 616.32M606.58 613.047C604.4 613.047 602.561 614.389 601.671 616.64C600.501 619.589 600.523 622.581 601.722 624.847C602.168 625.704 602.798 626.453 603.566 627.039C604.334 627.626 605.221 628.036 606.166 628.24L606.554 628.327C607.703 628.631 608.881 628.808 610.068 628.854C613.272 628.854 615.343 626.734 615.343 623.454C615.343 620.836 614.115 618.509 613.087 617.018C612.23 615.741 611.083 614.684 609.741 613.934C608.78 613.374 607.692 613.069 606.58 613.047Z" fill="#17091D"/>
<path d="M577.117 615.332C577.057 615.302 576.988 615.297 576.925 615.316C576.861 615.336 576.807 615.379 576.774 615.437C576.741 615.495 576.731 615.564 576.747 615.629C576.763 615.694 576.803 615.75 576.859 615.786C580.067 618.143 587.505 623.346 592.726 625.048C599.553 627.274 599.916 625.819 599.916 625.819C599.916 625.819 600.643 625.455 595.92 624.728C591.036 623.975 583.588 618.448 580.852 617.044C579.515 616.364 578.16 615.761 577.117 615.332Z" fill="#9C398C"/>
<path d="M619.689 624.572C620.523 623.696 621.463 622.928 622.487 622.284C625.361 620.503 630.139 617.383 631.443 615.637C633.343 613.092 634.433 610.91 632.617 612.001C630.8 613.092 629.55 615.539 626.905 617.044C624.26 618.55 620.99 619.837 619.537 622.103C618.083 624.368 618.447 625.819 619.537 624.728L619.689 624.572Z" fill="#9C398C"/>
<path d="M561.254 962.873C560.044 962.873 556.84 962.825 556.208 960.494C554.565 954.491 555.982 921.585 556.15 917.854C556.165 917.503 556.294 917.166 556.517 916.893C556.739 916.621 557.044 916.427 557.385 916.342L628.983 898.207C629.114 898.172 629.248 898.155 629.383 898.156C629.698 898.156 630.005 898.247 630.27 898.418C630.534 898.589 630.743 898.833 630.873 899.12C631.818 901.389 632.565 903.736 633.103 906.134C634.165 910.581 634.668 915.142 634.6 919.713C634.568 921.825 634.6 923.676 634.6 925.313C634.691 932.742 634.735 936.473 629.15 941.454C623.279 946.698 595.557 956.185 576.522 960.545L574.865 960.909C568.946 962.207 564.419 962.865 561.421 962.865L561.254 962.873Z" fill="#CE44A2"/>
<path d="M629.394 899.794C630.295 901.969 631.007 904.217 631.523 906.514C632.551 910.828 633.039 915.254 632.976 919.688C632.791 931.198 634.251 934.728 628.089 940.234C622.534 945.198 595.106 954.619 576.187 958.95C575.635 959.078 575.097 959.201 574.549 959.314C569.099 960.514 564.451 961.234 561.443 961.234H561.269C559.249 961.212 557.999 960.852 557.784 960.063C556.164 954.132 557.784 917.925 557.784 917.925L629.394 899.79M629.394 896.518C629.123 896.518 628.853 896.552 628.591 896.619L556.981 914.75C556.3 914.923 555.692 915.311 555.249 915.857C554.805 916.402 554.549 917.077 554.518 917.779C554.242 923.91 552.959 954.808 554.631 960.925C554.859 961.776 555.586 963.321 557.842 964.052C558.944 964.371 560.086 964.524 561.232 964.507H561.443C564.564 964.507 569.208 963.834 575.25 962.51C575.791 962.394 576.34 962.267 576.921 962.147C594.219 958.187 623.606 948.634 630.266 942.681C636.395 937.227 636.341 932.725 636.253 925.303C636.253 923.678 636.213 921.838 636.253 919.75C636.324 915.042 635.807 910.344 634.713 905.765C634.148 903.267 633.368 900.823 632.384 898.459C632.126 897.884 631.706 897.396 631.177 897.053C630.648 896.711 630.031 896.528 629.401 896.528L629.394 896.518Z" fill="#17091D"/>
<path d="M576.187 958.949C575.635 959.076 575.097 959.2 574.548 959.313C571.958 951.084 567.06 929.204 564.615 927.705C561.781 925.974 562.736 951.229 561.269 961.233C559.248 961.211 557.999 960.851 557.784 960.062C556.164 954.131 557.784 917.924 557.784 917.924L629.394 899.789C630.294 901.964 631.007 904.212 631.523 906.509C617.934 912.262 583.955 924.247 576.191 926.669C567.216 929.473 575.373 948.182 576.187 958.949Z" fill="#9C398C"/>
<path d="M479.471 512.181C479.471 512.181 527.431 515.817 544.145 504.908C544.145 504.908 536.878 520.908 535.061 525.635C533.245 530.363 529.975 538.726 529.975 544.908C529.975 551.09 530.817 556.37 530.759 558.457C530.701 560.545 531.428 566.861 531.428 566.861C531.428 566.861 532.518 575.817 501.635 574.363C501.635 574.363 498.001 559.214 496.548 554.606C495.095 549.999 489.405 533.272 487.345 528.908C485.285 524.545 479.471 512.181 479.471 512.181Z" fill="#7E4282"/>
<path d="M528.474 544.91C528.474 541.595 529.344 537.789 530.401 534.294C531.464 530.778 532.756 527.454 533.661 525.099C534.586 522.691 536.876 517.468 538.914 512.89C539.655 511.226 540.367 509.64 540.972 508.293C537.044 510.019 532.286 511.248 527.246 512.127C520.304 513.336 512.666 513.908 505.588 514.136C498.505 514.365 491.953 514.251 487.172 514.08C485.023 514.003 483.231 513.912 481.907 513.838C482.469 515.033 483.204 516.594 483.993 518.271C485.704 521.908 487.671 526.088 488.701 528.269C490.812 532.742 496.532 549.571 497.978 554.157C498.721 556.513 500.005 561.501 501.091 565.85C501.637 568.036 502.138 570.077 502.501 571.571C502.628 572.09 502.737 572.543 502.827 572.914C517.419 573.495 524.241 571.65 527.367 569.858C528.933 568.96 529.524 568.102 529.755 567.606C529.875 567.35 529.914 567.158 529.926 567.057C529.931 567.02 529.931 566.994 529.931 566.981C529.93 566.975 529.93 566.968 529.929 566.961C529.924 566.913 529.916 566.843 529.906 566.754C529.886 566.575 529.858 566.318 529.824 566.004C529.756 565.375 529.667 564.513 529.579 563.585C529.407 561.771 529.228 559.572 529.26 558.418C529.286 557.487 529.105 555.792 528.894 553.349C528.689 550.982 528.474 548.066 528.474 544.91ZM531.474 544.91C531.474 547.936 531.681 550.751 531.883 553.091C532.079 555.355 532.291 557.344 532.258 558.501C532.232 559.434 532.388 561.436 532.565 563.302C532.651 564.214 532.739 565.062 532.806 565.682C532.84 565.992 532.868 566.246 532.887 566.421C532.897 566.508 532.904 566.576 532.91 566.622C532.912 566.645 532.915 566.663 532.917 566.674C532.917 566.68 532.917 566.683 532.917 566.686L532.918 566.692C532.919 566.696 532.919 566.699 532.919 566.703C532.92 566.711 532.922 566.719 532.922 566.728C532.924 566.746 532.926 566.766 532.927 566.789C532.93 566.834 532.932 566.889 532.932 566.953C532.933 567.08 532.927 567.241 532.903 567.432C532.854 567.816 532.736 568.312 532.475 568.873C531.945 570.01 530.88 571.302 528.859 572.461C524.888 574.737 517.08 576.594 501.564 575.863C500.897 575.832 500.332 575.363 500.176 574.715L500.175 574.714V574.712C500.175 574.71 500.174 574.707 500.173 574.704C500.172 574.697 500.169 574.686 500.166 574.672C500.159 574.643 500.149 574.599 500.135 574.544C500.108 574.432 500.068 574.267 500.017 574.056C499.915 573.634 499.768 573.025 499.586 572.28C499.224 570.79 498.725 568.755 498.181 566.578C497.088 562.2 495.828 557.31 495.118 555.059C493.658 550.43 487.996 533.805 485.988 529.55C484.957 527.368 482.989 523.185 481.278 519.549C480.422 517.73 479.631 516.048 479.054 514.821C478.766 514.208 478.531 513.708 478.368 513.361C478.286 513.188 478.222 513.052 478.179 512.961C478.158 512.915 478.141 512.88 478.13 512.856C478.125 512.845 478.12 512.836 478.118 512.83C478.116 512.827 478.115 512.824 478.115 512.823L478.114 512.821C477.887 512.338 477.933 511.771 478.236 511.332C478.539 510.892 479.052 510.647 479.584 510.687H479.592C479.598 510.688 479.606 510.688 479.617 510.689C479.639 510.691 479.672 510.694 479.716 510.697C479.805 510.703 479.939 510.712 480.115 510.724C480.466 510.748 480.985 510.781 481.652 510.82C482.986 510.898 484.914 510.997 487.28 511.082C492.014 511.251 498.496 511.364 505.492 511.138C512.493 510.912 519.979 510.347 526.731 509.171C533.519 507.988 539.406 506.212 543.325 503.654C543.883 503.289 544.615 503.338 545.122 503.772C545.596 504.179 545.765 504.834 545.557 505.415L545.51 505.53L545.509 505.533C545.508 505.535 545.507 505.538 545.505 505.542C545.502 505.549 545.497 505.561 545.49 505.576C545.476 505.606 545.455 505.652 545.428 505.711C545.375 505.829 545.296 506.003 545.195 506.225C544.993 506.671 544.703 507.314 544.348 508.1C543.639 509.673 542.675 511.818 541.655 514.111C539.605 518.715 537.353 523.856 536.461 526.175C535.55 528.548 534.298 531.769 533.272 535.162C532.24 538.575 531.474 542.043 531.474 544.91Z" fill="#17091D"/>
<path d="M505.813 608.728C502.543 605.568 498.546 595.56 496.254 591.604C495.004 589.476 494.038 587.194 493.38 584.815C488.943 568.171 474.25 557.342 451.313 554.546C437.143 552.815 413.722 556.331 405.169 558.546C399.876 559.917 402.114 545.4 402.114 545.4L405.533 545.455C405.533 545.455 412.193 539.946 418.406 537.138C423.278 534.984 427.672 531.877 431.329 528C434.414 524.746 444.657 521.88 452.316 521.302C457.511 520.913 458.896 523.157 463.303 525.455C468.219 528.018 476.416 537.855 483.649 544.364C485.125 547.891 489.652 548.898 490.916 552.364C491.585 554.182 492.795 553.677 493.427 555.542C496.134 563.542 498.553 572 501.242 582.204C502.724 587.833 504.835 601.022 505.813 608.728Z" fill="#9C398C"/>
<path d="M496.548 561.454C496.28 561.454 496.015 561.388 495.779 561.261C495.543 561.134 495.341 560.951 495.193 560.727C495.193 560.705 493.543 558.283 490.636 554.618C485.063 547.596 473.56 534.44 459.026 525.247C457.003 523.941 454.643 523.254 452.236 523.273C441.467 523.273 429.16 535.662 419.274 545.618C411.55 553.393 407.012 557.789 403.484 557.789C402.781 557.79 402.092 557.594 401.494 557.224C400.896 556.854 400.414 556.324 400.101 555.694C394.495 545.465 381.051 462.862 380.481 459.331C380.433 459.046 380.463 458.753 380.568 458.483C380.615 458.36 385.292 446.094 386.382 443.211C387.681 439.926 389.144 436.708 390.767 433.571C393.674 427.985 396.242 424.331 398.43 422.705C399.927 421.614 401.536 420.523 403.302 420.523C406.725 420.523 409.094 424.011 413.065 434.865C417.181 446.138 420.295 449.556 425.008 454.734C426.337 456.189 427.849 457.854 429.498 459.825C436.671 468.44 454.568 481.549 460.643 485.247C467.706 489.549 471.979 496.047 482.407 518.36C492.878 540.771 498.07 559.156 498.121 559.342C498.226 559.715 498.194 560.114 498.032 560.467C497.869 560.819 497.587 561.102 497.235 561.265C497.023 561.38 496.788 561.444 496.548 561.454Z" fill="#CE44A2"/>
<path d="M403.302 422.182C405.714 422.182 407.858 425.411 411.528 435.451C416.978 450.36 420.974 452.178 428.241 460.905C435.508 469.633 453.311 482.724 459.793 486.676C466.275 490.629 470.388 496.545 480.924 519.091C491.461 541.636 496.548 559.818 496.548 559.818C496.548 559.818 494.905 557.374 491.919 553.604C485.898 546.018 474.424 533.065 459.887 523.869C457.605 522.402 454.948 521.628 452.236 521.64C433.448 521.64 411.208 556.156 403.484 556.156C403.073 556.159 402.671 556.043 402.325 555.821C401.98 555.6 401.705 555.283 401.536 554.909C395.999 544.811 382.098 459.091 382.098 459.091C382.098 459.091 386.821 446.727 387.911 443.818C389.188 440.596 390.626 437.441 392.22 434.364C394.4 430.134 397.067 425.793 399.403 424.062C400.9 422.953 402.132 422.193 403.302 422.193M403.302 418.92C401.038 418.92 399.098 420.214 397.459 421.429C395.032 423.247 392.373 426.967 389.317 432.858C387.661 436.052 386.17 439.329 384.848 442.676C383.758 445.542 379.089 457.807 379.035 457.931C378.83 458.47 378.771 459.053 378.864 459.622C378.897 459.836 382.392 481.345 386.516 503.811C394.949 549.716 397.743 554.814 398.662 556.491C399.115 557.378 399.805 558.123 400.654 558.643C401.504 559.162 402.481 559.437 403.476 559.436C407.658 559.436 412.164 555.098 420.426 546.782C429.589 537.556 442.142 524.92 452.228 524.92C454.322 524.906 456.374 525.505 458.133 526.644C472.459 535.705 483.842 548.705 489.35 555.647C492.206 559.251 493.812 561.629 493.826 561.654C494.259 562.303 494.909 562.775 495.659 562.986C496.409 563.197 497.21 563.134 497.917 562.806C498.624 562.479 499.191 561.91 499.516 561.202C499.842 560.493 499.903 559.692 499.691 558.942C499.48 558.189 494.408 540.244 483.878 517.713C473.284 495.04 468.887 488.4 461.486 483.894C455.495 480.24 437.804 467.302 430.744 458.825C429.073 456.814 427.551 455.145 426.21 453.669C421.628 448.633 418.602 445.305 414.583 434.342C412.625 428.985 411.117 425.585 409.697 423.324C409.013 422.233 406.932 418.924 403.287 418.924L403.302 418.92Z" fill="#17091D"/>
<path d="M496.548 559.817C496.548 559.817 494.905 557.374 491.919 553.603C483.09 539.119 471.656 520.763 464.607 510.995C451.84 493.305 420.793 487.701 403.622 462.035C398.113 453.799 394.538 443.945 392.22 434.355C394.4 430.126 397.067 425.785 399.403 424.054C403.992 420.657 406.078 420.545 411.528 435.454C416.978 450.363 420.974 452.181 428.241 460.908C435.508 469.635 453.311 482.726 459.793 486.679C466.275 490.632 470.388 496.545 480.924 519.09C491.461 541.635 496.548 559.817 496.548 559.817Z" fill="#D969BD"/>
<path d="M597.01 535.635C593.932 533.85 574.846 537.799 566.853 540.362C554.351 544.362 541.496 562.526 532.7 570.181C532.7 568.962 532.874 556.072 532.881 554.962C538.204 547.944 557.134 523.995 572.121 517.762C582.756 513.344 592.555 529.613 597.01 535.635Z" fill="#9C398C"/>
<path d="M531.428 558.546C531.258 558.546 531.088 558.519 530.927 558.466C530.597 558.359 530.31 558.152 530.107 557.872C529.903 557.592 529.793 557.255 529.793 556.909V548.789C529.793 540.426 533.117 529.153 535.414 524.542C536.413 522.542 537.881 519.215 539.439 515.687C541.256 511.611 543.098 507.393 544.443 504.753C546.136 501.444 547.306 490.702 548.003 484.284C548.287 481.698 548.508 479.655 548.708 478.466C548.886 477.396 549.173 475.458 549.536 473.011C550.659 465.415 552.352 453.938 553.482 450.266C554.663 446.411 556.81 444.473 560.662 443.786C561.843 443.582 563.036 443.461 564.233 443.422H564.433C571.493 443.422 579.021 460.513 579.09 460.676C580.449 464.084 584.5 472.222 584.827 472.873C585.288 473.684 591.985 485.455 597.511 498.204C605.504 516.655 607.248 527.873 602.808 532.498C601.239 534.135 599.687 534.931 598.063 534.931C594.713 534.931 592.366 531.633 589.649 527.811C586.466 523.338 582.858 518.266 577.368 518.266C575.779 518.299 574.212 518.645 572.757 519.284C572.543 519.375 572.314 519.473 572.089 519.575L571.573 519.811L571.442 519.873C571.209 519.986 570.999 520.087 570.788 520.196C569.883 520.658 568.931 521.196 567.947 521.804L567.511 522.076L567.463 522.109C567.394 522.149 567.329 522.193 567.264 522.236C567.046 522.375 566.853 522.498 566.664 522.626C565.574 523.353 564.422 524.175 563.26 525.069C562.98 525.28 562.707 525.491 562.438 525.709C561.043 526.8 559.597 528.026 558.122 529.346C557.973 529.476 557.842 529.596 557.711 529.709C555.771 531.462 553.784 533.375 551.789 535.411L551.56 535.647L551.044 536.178C548.952 538.342 546.775 540.709 544.57 543.226L543.865 544.036C541.994 546.193 540.126 548.429 538.324 550.669L537.797 551.324C536.569 552.855 535.385 554.375 534.182 555.956L533.455 556.913C532.998 557.52 532.754 557.858 532.729 557.869C532.579 558.075 532.384 558.244 532.158 558.361C531.932 558.478 531.682 558.542 531.428 558.546Z" fill="#CE44A2"/>
<path d="M564.433 445.046C569.331 445.046 576.129 457.665 577.571 461.272C579.014 464.879 583.385 473.636 583.385 473.636C583.385 473.636 610.976 521.614 601.631 531.352C600.33 532.708 599.157 533.283 598.063 533.283C592.145 533.283 588.351 516.621 577.353 516.617C575.548 516.648 573.767 517.037 572.114 517.763L571.409 518.068L570.864 518.319L570.697 518.399C570.475 518.505 570.25 518.614 570.025 518.73C569.055 519.225 568.07 519.785 567.075 520.399C566.92 520.494 566.763 520.592 566.606 520.694C566.515 520.748 566.428 520.806 566.341 520.865C566.141 520.992 565.937 521.123 565.737 521.257C564.582 522.025 563.416 522.865 562.249 523.759C561.966 523.974 561.679 524.196 561.396 524.425C559.942 525.577 558.464 526.821 557.036 528.116L556.603 528.505C554.565 530.345 552.559 532.286 550.626 534.261C550.372 534.523 550.118 534.781 549.867 535.043C547.56 537.425 545.365 539.836 543.327 542.141L542.622 542.952C540.526 545.366 538.626 547.646 537.034 549.639L536.511 550.29C534.978 552.203 533.739 553.814 532.878 554.963C532.594 555.326 532.351 555.657 532.151 555.93C531.679 556.559 531.424 556.908 531.424 556.908V548.788C531.424 540.668 534.694 529.636 536.874 525.272C539.054 520.908 543.414 510.363 545.896 505.497C548.377 500.632 549.591 483.09 550.318 478.726C551.044 474.363 553.588 455.454 555.041 450.726C556.131 447.199 558.017 445.901 560.945 445.377C562.057 445.195 563.18 445.086 564.306 445.05H564.429M564.429 441.777H564.161C562.887 441.812 561.617 441.933 560.36 442.141C555.953 442.926 553.268 445.345 551.916 449.748C550.826 453.246 549.409 462.617 547.92 472.734C547.556 475.185 547.269 477.116 547.095 478.188C546.888 479.432 546.662 481.494 546.368 484.105C545.729 489.999 544.533 500.966 542.978 504.006C541.608 506.69 539.741 510.916 537.932 515.025C536.384 518.534 534.923 521.846 533.935 523.81C531.566 528.537 528.122 540.174 528.122 548.788V556.908C528.122 557.601 528.341 558.276 528.749 558.836C529.156 559.395 529.731 559.811 530.39 560.024C531.048 560.236 531.758 560.233 532.415 560.017C533.072 559.8 533.644 559.38 534.048 558.817C534.048 558.817 534.287 558.483 534.727 557.897C534.93 557.625 535.167 557.312 535.454 556.952C536.653 555.37 537.826 553.865 539.051 552.337L539.458 551.832L539.574 551.686C541.358 549.468 543.207 547.25 545.078 545.097C545.184 544.981 545.296 544.85 545.409 544.734L545.772 544.319C547.952 541.814 550.132 539.465 552.185 537.334C552.349 537.163 552.512 536.992 552.679 536.825L552.926 536.566C554.888 534.566 556.85 532.676 558.74 530.959L558.769 530.934C558.889 530.821 559.012 530.712 559.132 530.603L559.157 530.581C560.611 529.283 562.028 528.086 563.376 527.021L563.412 526.996C563.637 526.814 563.881 526.632 564.182 526.396C565.32 525.526 566.435 524.726 567.492 524.025L568.026 523.661L568.085 523.625L568.219 523.534C568.254 523.515 568.288 523.495 568.321 523.472L568.684 523.236H568.71C569.654 522.654 570.57 522.145 571.431 521.697C571.642 521.588 571.849 521.49 572.019 521.406L572.081 521.377L572.168 521.334L572.666 521.105L573.306 520.828C574.558 520.276 575.906 519.975 577.273 519.941C581.92 519.941 585.125 524.446 588.224 528.799C591.08 532.799 593.776 536.606 597.969 536.606C600.033 536.606 602.027 535.617 603.895 533.668C606.87 530.57 607.499 525.305 605.824 517.581C604.654 512.181 602.329 505.457 598.921 497.581C593.373 484.792 586.862 473.326 586.179 472.126C585.732 471.232 581.819 463.377 580.518 460.094C578.977 456.548 577.094 453.161 574.897 449.981C571.046 444.406 567.692 441.81 564.342 441.81L564.429 441.777Z" fill="#17091D"/>
<path d="M558.031 480.642C558.86 488.726 551.934 510.399 547.404 517.926C543.531 524.362 534.731 546.035 532.144 555.93C531.671 556.559 531.417 556.908 531.417 556.908V548.788C531.417 540.668 534.687 529.635 536.867 525.271C539.047 520.908 543.407 510.362 545.889 505.497C548.37 500.631 549.584 483.09 550.31 478.726C551.037 474.362 553.58 455.453 555.034 450.726C556.124 447.199 558.009 445.901 560.938 445.377C559.604 455.999 557.443 474.861 558.031 480.642Z" fill="#D969BD"/>
</svg>
