<svg width="1800" height="1650" viewBox="0 0 1800 1650" fill="none" xmlns="http://www.w3.org/2000/svg">
<g id="Body 08">
<path id="Vector" d="M896.199 1495.11C772.539 1495.11 639.639 1482.11 501.199 1456.38L500.139 1456.19L402.939 1381.74L424.209 1296.74L432.699 1293.26L449.929 1286.17L523.469 1255.95L824.179 1275.52L1314.53 1307.42L1329.32 1386.33C1331.25 1396.5 1329.5 1407.03 1324.39 1416.03C1319.27 1425.03 1311.11 1431.92 1301.38 1435.46C1287.7 1440.46 1272.73 1445.39 1256.9 1450.01C1186.31 1470.56 1066.45 1495.11 896.199 1495.11Z" fill="#7E4282"/>
<path id="Vector_2" d="M524.199 1260.47L823.869 1280L1310.73 1311.67L1324.88 1387.15C1326.59 1396.28 1325.01 1405.71 1320.42 1413.78C1315.83 1421.85 1308.53 1428.04 1299.81 1431.23C1288.31 1435.46 1273.58 1440.44 1255.62 1445.68C1185.52 1466.13 1066.08 1490.68 896.199 1490.68C786.089 1490.68 654.799 1480.39 501.999 1452.03L407.999 1380.03L427.999 1300.03L434.389 1297.41L451.619 1290.32L524.199 1260.5M522.709 1251.38L520.779 1252.18L448.199 1282L430.999 1289.06L424.619 1291.67L420.399 1293.4L419.299 1297.82L399.299 1377.82L397.859 1383.55L402.559 1387.14L496.559 1459.14L498.269 1460.46L500.389 1460.85C639.119 1486.59 772.299 1499.65 896.229 1499.65C1067.01 1499.65 1187.32 1475 1258.17 1454.33C1274.11 1449.68 1289.17 1444.75 1302.95 1439.69C1313.68 1435.78 1322.67 1428.18 1328.31 1418.26C1333.96 1408.33 1335.89 1396.72 1333.76 1385.5L1319.58 1310L1318.29 1303.13L1311.29 1302.68L824.449 1271L524.779 1251.5L522.709 1251.36V1251.38Z" fill="#17091D"/>
<path id="Vector_3" d="M1299.81 1431.2C1288.31 1435.43 1273.58 1440.41 1255.62 1445.65C1261.62 1421.94 1266.04 1390.4 1249.5 1385.5C1222.5 1377.5 1046.5 1417.5 875.12 1430C703.74 1442.5 430 1360 430 1360L434.39 1297.34L435.25 1285L451.62 1290.25L524.2 1313.53L823.87 1280L1310.73 1311.67L1324.88 1387.15C1326.58 1396.27 1325 1405.7 1320.41 1413.77C1315.82 1421.83 1308.52 1428.01 1299.81 1431.2Z" fill="#5C2C66"/>
<g id="glove 2">
<path id="Vector_4" d="M1417.21 1611.77C1404.34 1611.77 1389.7 1605.69 1375.55 1599.77C1370.72 1597.77 1366.17 1595.87 1361.88 1594.31C1355.12 1591.85 1350.32 1590.71 1346.76 1590.71C1346.17 1590.71 1345.58 1590.75 1345 1590.82C1343.28 1591.06 1341.54 1591.19 1339.8 1591.19C1329.87 1591.19 1320.7 1587.07 1315.27 1580.19C1313.06 1577.44 1311.51 1574.21 1310.76 1570.76C1310 1567.31 1310.05 1563.73 1310.91 1560.31C1310.99 1560.01 1311.05 1559.71 1311.11 1559.39C1314.01 1544.3 1323.49 1499.39 1328.72 1482.62C1330.58 1476.62 1327.85 1468.27 1324.96 1459.41C1321.29 1448.13 1317.11 1435.34 1322.25 1424.41C1322.55 1423.78 1322.85 1423.18 1323.16 1422.59C1331.72 1406.22 1356.69 1374.52 1362.24 1367.59C1361.97 1361.24 1361.14 1338.13 1361.87 1313.65C1363.64 1254.39 1372.62 1244.95 1375.58 1241.85C1376.67 1240.62 1378 1239.62 1379.49 1238.93C1380.98 1238.25 1382.6 1237.88 1384.24 1237.85C1393.56 1237.85 1419.24 1229.17 1439.79 1222.19C1453.79 1217.43 1467.12 1212.93 1475.39 1210.99C1479.32 1210.05 1483.35 1209.57 1487.39 1209.56C1498.39 1209.56 1507.25 1213.3 1514.39 1216.3C1519.65 1218.52 1524.19 1220.44 1528.26 1220.44C1529.67 1220.45 1531.06 1220.2 1532.38 1219.7C1533.11 1219.43 1533.89 1219.29 1534.67 1219.29C1541.17 1219.29 1544.17 1227.84 1546.67 1240.69C1548.53 1250.28 1550.23 1263.59 1551.67 1280.25C1553.91 1305.38 1554.99 1330.8 1555.21 1336.25C1560.9 1346.6 1605.21 1429.46 1599.21 1489.05C1597.4 1507.11 1591.07 1521.42 1580.4 1531.59L1579.73 1532.21C1574.9 1536.66 1570.01 1540.9 1565.17 1544.84C1553.5 1554.46 1540.95 1562.96 1527.68 1570.21C1501.04 1584.52 1483.31 1586.06 1476.92 1586.06C1475.51 1586.07 1474.09 1585.98 1472.69 1585.79H1472.35C1471.87 1585.8 1471.39 1585.88 1470.93 1586.03C1467.7 1586.96 1463.19 1590.15 1457.93 1593.84C1449.16 1600.04 1438.24 1607.76 1424.93 1610.93C1422.4 1611.51 1419.81 1611.79 1417.21 1611.77Z" fill="#CE44A2"/>
<path id="Vector_5" d="M1487.38 1214.05C1505.45 1214.05 1516.93 1224.92 1528.22 1224.92C1530.16 1224.94 1532.09 1224.6 1533.91 1223.92C1534.14 1223.83 1534.38 1223.79 1534.63 1223.79C1546.63 1223.79 1550.77 1337.53 1550.77 1337.53C1550.77 1337.53 1600.9 1427.03 1594.77 1488.65C1593.19 1504.35 1587.97 1518.23 1577.33 1528.37L1576.69 1528.97C1571.8 1533.47 1567.02 1537.61 1562.36 1541.39C1550.92 1550.84 1538.61 1559.18 1525.58 1566.29C1502.52 1578.68 1485.4 1581.61 1476.95 1581.61C1475.76 1581.62 1474.57 1581.54 1473.39 1581.38C1473.06 1581.33 1472.72 1581.31 1472.39 1581.31C1471.49 1581.32 1470.59 1581.46 1469.73 1581.72C1459.73 1584.59 1444.63 1601.66 1423.92 1606.57C1421.73 1607.07 1419.49 1607.32 1417.24 1607.3C1400.99 1607.3 1380.12 1596.23 1363.44 1590.16C1357.14 1587.86 1351.44 1586.29 1346.79 1586.29C1345.99 1586.29 1345.2 1586.34 1344.41 1586.44C1342.89 1586.65 1341.36 1586.76 1339.82 1586.76C1324.15 1586.76 1311.98 1575.3 1315.3 1561.42C1315.39 1561.05 1315.48 1560.67 1315.55 1560.25C1318.74 1543.67 1328.03 1500.04 1333.03 1484.02C1338.03 1468 1318.2 1443.7 1326.34 1426.37C1326.6 1425.82 1326.87 1425.27 1327.16 1424.72C1336.51 1406.84 1366.82 1369.08 1366.82 1369.08C1366.82 1369.08 1360.64 1242.36 1384.26 1242.36C1400.64 1242.36 1455.52 1220.27 1476.44 1215.36C1480.04 1214.5 1483.74 1214.06 1487.44 1214.06M1487.44 1205.06C1483.06 1205.08 1478.7 1205.59 1474.44 1206.6C1465.96 1208.6 1452.59 1213.12 1438.44 1217.92C1419.22 1224.43 1392.91 1233.35 1384.33 1233.35C1382.08 1233.37 1379.85 1233.86 1377.8 1234.79C1375.75 1235.72 1373.91 1237.06 1372.41 1238.74C1366.78 1244.66 1359.1 1258.84 1357.47 1313.51C1356.78 1336.61 1357.47 1357.98 1357.77 1366.09C1350.6 1375.15 1327.55 1404.71 1319.26 1420.54C1318.96 1421.12 1318.65 1421.75 1318.26 1422.47V1422.53C1312.37 1435.08 1316.83 1448.77 1320.77 1460.84C1323.32 1468.65 1325.95 1476.71 1324.51 1481.32C1319.23 1498.25 1309.69 1543.42 1306.79 1558.54C1306.79 1558.54 1306.79 1558.6 1306.79 1558.63C1306.79 1558.83 1306.71 1559.03 1306.66 1559.24V1559.31C1305.64 1563.4 1305.58 1567.66 1306.48 1571.77C1307.39 1575.89 1309.23 1579.74 1311.86 1583.02C1318.14 1591.02 1328.63 1595.73 1339.92 1595.73C1341.87 1595.73 1343.82 1595.59 1345.76 1595.32C1346.13 1595.27 1346.51 1595.25 1346.89 1595.25C1349.89 1595.25 1354.31 1596.34 1360.46 1598.59C1364.66 1600.11 1369.18 1601.99 1373.95 1603.97C1388.51 1609.97 1403.57 1616.26 1417.34 1616.26C1420.29 1616.27 1423.22 1615.93 1426.09 1615.26C1440.29 1611.9 1451.6 1603.9 1460.7 1597.47C1465.18 1594.3 1469.81 1591.02 1472.31 1590.31H1472.47C1473.99 1590.51 1475.53 1590.6 1477.06 1590.59C1483.79 1590.59 1502.41 1589 1529.94 1574.21C1543.47 1566.82 1556.26 1558.17 1568.15 1548.36C1573.04 1544.36 1578.01 1540.08 1582.89 1535.58L1582.99 1535.49L1583.65 1534.87C1595.11 1523.94 1601.9 1508.69 1603.82 1489.54C1606.52 1462.54 1599.7 1427.96 1583.57 1386.71C1576.66 1369.04 1568.72 1351.8 1559.8 1335.06C1559.5 1327.88 1558.41 1303.74 1556.28 1279.86C1554.79 1263.05 1553.06 1249.58 1551.17 1239.86C1550.31 1234.9 1548.99 1230.03 1547.23 1225.31C1544.4 1218.31 1540.23 1214.82 1534.77 1214.81C1533.45 1214.81 1532.14 1215.05 1530.91 1215.51C1530.09 1215.82 1529.22 1215.97 1528.35 1215.96C1525.19 1215.96 1521.03 1214.21 1516.23 1212.18C1508.74 1209.02 1499.42 1205.09 1487.51 1205.09L1487.44 1205.06Z" fill="#17091D"/>
<path id="Vector_6" d="M1344.38 1586.42C1349.38 1585.72 1355.98 1587.42 1363.38 1590.14C1382.45 1597.08 1406.99 1610.55 1423.86 1606.55C1444.57 1601.64 1459.68 1584.55 1469.67 1581.7C1470.85 1581.32 1472.11 1581.21 1473.34 1581.36C1479.67 1582.36 1498.52 1580.78 1525.53 1566.27C1538.56 1559.16 1550.87 1550.82 1562.31 1541.37C1566.98 1537.58 1571.75 1533.44 1576.64 1528.95L1577.28 1528.35C1585.65 1520.23 1591.28 1506.35 1594.72 1488.63C1600.87 1427.01 1550.72 1337.51 1550.72 1337.51C1550.72 1337.51 1546.42 1219.23 1533.86 1223.9C1518.39 1229.67 1504.55 1208.74 1476.36 1215.35C1455.44 1220.26 1400.56 1242.35 1384.18 1242.35C1360.56 1242.35 1366.74 1369.07 1366.74 1369.07C1366.74 1369.07 1336.43 1406.83 1327.08 1424.71C1326.79 1425.26 1326.52 1425.81 1326.26 1426.36C1332.53 1420.63 1363.52 1393.18 1386.33 1389.97C1411.81 1386.39 1474.83 1384.07 1497.44 1378.58C1520.05 1373.09 1538.81 1402.52 1546.84 1437.88C1552.22 1461.49 1565.71 1491.09 1559.1 1513.56C1555.82 1524.74 1547.58 1534.15 1530.92 1540.21C1529.17 1540.85 1527.45 1541.46 1525.78 1542.05C1501.26 1550.6 1483.24 1554.18 1468.91 1557.34C1455.91 1560.2 1445.97 1562.71 1436.91 1568.23C1422.22 1577.23 1397.82 1593.74 1358.91 1582.23C1346.05 1578.42 1331.59 1571.52 1315.38 1560.23C1315.31 1560.65 1315.22 1561.03 1315.13 1561.4C1311.63 1576.61 1326.59 1588.92 1344.38 1586.42Z" fill="#9C398C"/>
<path id="Vector_7" d="M1390.57 1543.13C1390.57 1543.13 1386.38 1512.48 1350.57 1492.13" stroke="#17091D" stroke-width="8.86" stroke-linecap="round" stroke-linejoin="round"/>
<path id="Vector_8" d="M1371.86 1512.65C1371.86 1512.65 1336.51 1556.23 1366.51 1594.45" stroke="#17091D" stroke-width="8.86" stroke-linecap="round" stroke-linejoin="round"/>
<path id="Vector_9" d="M1455.58 1510.44C1455.58 1510.44 1474.99 1557.3 1469.23 1584.36" stroke="#17091D" stroke-width="10.67" stroke-linecap="round" stroke-linejoin="round"/>
<path id="Vector_10" d="M1518.18 1514.17C1518.18 1514.17 1535.44 1557.86 1521.64 1573.73" stroke="#17091D" stroke-width="8.79" stroke-linecap="round" stroke-linejoin="round"/>
<path id="Vector_11" d="M1558.81 1512.72C1558.81 1512.72 1570.7 1539.99 1555.6 1552.1" stroke="#17091D" stroke-width="7" stroke-linecap="round" stroke-linejoin="round"/>
<path id="Vector_12" d="M1425 1567C1432.18 1567 1438 1554.24 1438 1538.5C1438 1522.76 1432.18 1510 1425 1510C1417.82 1510 1412 1522.76 1412 1538.5C1412 1554.24 1417.82 1567 1425 1567Z" fill="#D969BD"/>
<path id="Vector_13" d="M1496.06 1539.13C1503.02 1537.35 1506.16 1526.15 1503.08 1514.11C1500 1502.07 1491.86 1493.75 1484.91 1495.53C1477.95 1497.31 1474.81 1508.51 1477.89 1520.55C1480.97 1532.59 1489.1 1540.91 1496.06 1539.13Z" fill="#D969BD"/>
<path id="Vector_14" d="M1540.37 1518.54C1546.38 1517 1549.51 1508.94 1547.36 1500.54C1545.21 1492.14 1538.6 1486.58 1532.59 1488.12C1526.58 1489.65 1523.45 1497.71 1525.6 1506.11C1527.75 1514.51 1534.36 1520.07 1540.37 1518.54Z" fill="#D969BD"/>
</g>
<g id="glove 1">
<path id="Vector_15" d="M486 1632.18C474.17 1632.18 463.08 1628.76 454.17 1626C448.26 1624.18 443.17 1622.6 439.76 1622.6H439.41C438.824 1622.59 438.242 1622.71 437.7 1622.93C432.95 1625.32 422.7 1627.85 408.26 1627.85C399.012 1627.79 389.786 1626.92 380.69 1625.25H380.57C365.683 1622.49 351.094 1618.31 337 1612.77C331.18 1610.54 325.21 1608.03 319.27 1605.32C319.27 1605.32 318.64 1605.03 318.39 1604.9C305.11 1598.56 294.65 1586.9 287.32 1570.34C263.4 1516.12 279.12 1424.98 281.57 1411.82C279.62 1407.67 273.51 1394.51 267.92 1380.37C255.24 1348.27 256.02 1338.88 257.72 1334.6C258.108 1333.52 258.722 1332.53 259.522 1331.7C260.323 1330.88 261.29 1330.23 262.36 1329.81C267.36 1327.87 272.83 1325.69 278.6 1323.38C313.3 1309.5 360.83 1290.5 399 1290.5C410.69 1290.5 421 1292.29 429.68 1295.84C451.75 1304.84 471.03 1368.13 474.8 1381.19C482.22 1386.08 515.8 1408.47 529.07 1421.37C529.55 1421.84 530.01 1422.37 530.47 1422.79C538.55 1431.38 541.77 1441.04 544.89 1450.39C547.14 1457.14 549.26 1463.51 553.1 1468.91C558.9 1477.06 564.96 1495.91 570.81 1514.14C575.13 1527.56 579.58 1541.43 583.01 1547.62L583.49 1548.45C585.544 1551.69 586.748 1555.4 586.991 1559.23C587.233 1563.06 586.508 1566.89 584.88 1570.36C580.8 1579.47 571.71 1586.09 560.58 1588.08C555.89 1588.92 549.8 1593.37 545.58 1596.64C541.99 1599.46 538.25 1602.64 534.29 1606.08C520.82 1617.64 505.55 1630.75 490.8 1631.98C489.28 1632.11 487.63 1632.18 486 1632.18Z" fill="#CE44A2"/>
<path id="Vector_16" d="M399 1295C409.57 1295 419.38 1296.49 428 1300C449.86 1308.94 471 1384 471 1384C471 1384 511.54 1410.47 526 1424.56C526.44 1424.99 526.87 1425.43 527.29 1425.87C540.41 1439.81 539.85 1457.87 549.51 1471.48C559.17 1485.09 570.97 1535 579.15 1549.77C579.35 1550.14 579.55 1550.48 579.75 1550.77C587.94 1564.1 577.55 1580.44 559.86 1583.6C554.86 1584.49 549.15 1588.17 542.93 1593.05C526.93 1605.57 507.82 1626.05 490.55 1627.44C489.04 1627.57 487.55 1627.62 486.03 1627.62C466.91 1627.62 449.55 1618.05 439.79 1618.05H439.28C438.038 1618.06 436.813 1618.34 435.69 1618.87C431.93 1620.75 422.69 1623.3 408.29 1623.3C399.269 1623.24 390.271 1622.39 381.4 1620.75C366.809 1618.04 352.511 1613.94 338.7 1608.51C333.1 1606.36 327.273 1603.91 321.22 1601.16L320.43 1600.79C307.17 1594.46 297.89 1582.89 291.51 1568.45C266.51 1511.8 286.34 1411.15 286.34 1411.15C286.34 1411.15 251.5 1338.83 264 1334C299.4 1320.32 355.52 1295 399 1295ZM399 1286C360 1286 312 1305.2 276.92 1319.21C271.17 1321.52 265.73 1323.69 260.74 1325.62C259.096 1326.27 257.605 1327.26 256.365 1328.52C255.125 1329.78 254.163 1331.28 253.54 1332.94C251.27 1338.69 250.7 1349.01 263.75 1382.03C268.95 1395.2 274.47 1407.24 276.89 1412.44C273.697 1430.86 271.563 1449.45 270.5 1468.12C267.98 1512.34 272.26 1547.34 283.21 1572.12C290.99 1589.73 302.21 1602.12 316.48 1608.94L317.32 1609.33H317.37C323.44 1612.1 329.49 1614.64 335.37 1616.91C349.715 1622.53 364.562 1626.79 379.71 1629.61H379.89C389.228 1631.32 398.698 1632.2 408.19 1632.26C420.97 1632.26 432.58 1630.31 439.34 1627.02H439.69C442.4 1627.02 447.44 1628.57 452.77 1630.22C461.97 1633.06 473.42 1636.59 485.93 1636.59C487.71 1636.59 489.48 1636.52 491.2 1636.38C507.4 1635.02 523.2 1621.38 537.2 1609.38C541.13 1606.01 544.83 1602.83 548.34 1600.07C554.21 1595.47 558.58 1592.89 561.34 1592.4C573.93 1590.15 584.25 1582.56 588.94 1572.09C590.845 1567.95 591.692 1563.4 591.406 1558.85C591.12 1554.3 589.709 1549.89 587.3 1546.02V1545.96C587.19 1545.78 587.08 1545.6 586.99 1545.42V1545.34C583.78 1539.53 579.39 1525.87 575.14 1512.65C568.91 1493.24 563.02 1474.91 556.81 1466.19C553.36 1461.34 551.34 1455.28 549.2 1448.86C546.08 1439.51 542.55 1428.86 533.81 1419.63C533.27 1419.06 532.81 1418.56 532.3 1418.1C519.48 1405.6 488.3 1384.63 478.73 1378.28C476.85 1371.97 472.29 1357.38 466.08 1341.95C462.084 1331.65 457.269 1321.7 451.68 1312.17C444.98 1301.17 438.37 1294.44 431.47 1291.62C422.26 1287.85 411.37 1285.94 399.1 1285.94L399 1286Z" fill="#17091D"/>
<path id="Vector_17" d="M559.81 1583.66C554.81 1584.55 549.1 1588.23 542.88 1593.11C526.88 1605.63 507.77 1626.11 490.5 1627.5C469.28 1629.27 449.62 1617.74 439.23 1618.12C437.988 1618.13 436.762 1618.41 435.64 1618.94C429.92 1621.81 411.52 1626.21 381.35 1620.82C366.759 1618.11 352.461 1614.01 338.65 1608.58C333.05 1606.43 327.223 1603.98 321.17 1601.23L320.38 1600.86C309.9 1595.74 300.26 1584.24 291.46 1568.52C266.46 1511.87 286.29 1411.22 286.29 1411.22C286.29 1411.22 251.5 1338.83 264 1334C308 1317 384 1282 428 1300C449.86 1308.94 471 1384 471 1384C471 1384 439.68 1393 417 1397C391.67 1401.52 356.19 1415.19 333 1417C309.81 1418.81 317.81 1469.3 321.16 1505.4C323.39 1529.52 319.76 1561.84 333.03 1581.15C339.62 1590.75 350.38 1597.15 368.1 1597.72L373.56 1597.87C399.56 1598.38 417.76 1596.18 432.36 1594.73C445.59 1593.41 455.83 1592.73 466.11 1595.15C482.88 1599.15 511.19 1607.25 544.54 1584.15C555.54 1576.53 567.18 1565.48 579.09 1549.75C579.29 1550.12 579.49 1550.46 579.69 1550.75C587.89 1564.16 577.5 1580.5 559.81 1583.66Z" fill="#9C398C"/>
<path id="Vector_18" d="M502.45 1556.87C502.45 1556.87 496.91 1526.43 524.63 1496" stroke="#17091D" stroke-width="8.86" stroke-linecap="round" stroke-linejoin="round"/>
<path id="Vector_19" d="M510.77 1522.09C510.77 1522.09 557.91 1552.52 541.27 1598.17" stroke="#17091D" stroke-width="8.86" stroke-linecap="round" stroke-linejoin="round"/>
<path id="Vector_20" d="M430.499 1546C430.499 1546 426.609 1596.57 440.499 1620.5" stroke="#17091D" stroke-width="10.67" stroke-linecap="round" stroke-linejoin="round"/>
<path id="Vector_21" d="M372.16 1569C372.16 1569 369.34 1615.89 387.38 1626.68" stroke="#17091D" stroke-width="8.79" stroke-linecap="round" stroke-linejoin="round"/>
<path id="Vector_22" d="M333.1 1580.26C333.1 1580.26 330.27 1609.87 348.38 1616.68" stroke="#17091D" stroke-width="7" stroke-linecap="round" stroke-linejoin="round"/>
<path id="Vector_23" d="M461.5 1577C467.299 1577 472 1564.24 472 1548.5C472 1532.76 467.299 1520 461.5 1520C455.701 1520 451 1532.76 451 1548.5C451 1564.24 455.701 1577 461.5 1577Z" fill="#D969BD"/>
<path id="Vector_24" d="M397.5 1573C403.299 1573 408 1563.37 408 1551.5C408 1539.63 403.299 1530 397.5 1530C391.701 1530 387 1539.63 387 1551.5C387 1563.37 391.701 1573 397.5 1573Z" fill="#D969BD"/>
<path id="Vector_25" d="M350.5 1584C356.299 1584 361 1576.61 361 1567.5C361 1558.39 356.299 1551 350.5 1551C344.701 1551 340 1558.39 340 1567.5C340 1576.61 344.701 1584 350.5 1584Z" fill="#D969BD"/>
</g>
<g id="collar back">
<path id="Vector_26" d="M877.099 343.669C875.099 343.669 872.639 343.669 775.009 288.369C727.779 261.619 677.939 233.009 675.179 231.369C672.419 229.729 647.749 211.619 623.999 193.719C575.859 157.359 574.219 154.089 573.429 152.509C572.519 150.689 570.989 147.629 574.369 108.599C575.989 89.8894 578.009 71.6694 578.029 71.4894C578.147 70.3201 578.718 69.2434 579.619 68.4894C580.209 67.9894 594.559 56.2294 630.129 44.4894C662.529 33.8194 719.749 21.1094 808.359 21.1094C820.169 21.1094 832.409 21.3294 844.759 21.7794C947.989 25.4894 1024.63 43.6994 1070.76 58.3194C1120.92 74.2294 1146.27 89.0894 1147.33 89.7094C1147.9 90.0517 1148.39 90.516 1148.77 91.0694L1211.23 183.999C1211.75 184.773 1212.02 185.691 1212 186.625C1211.97 187.559 1211.66 188.462 1211.1 189.209L1101.82 334.829C1101.41 335.368 1100.89 335.809 1100.29 336.121C1099.69 336.432 1099.03 336.606 1098.36 336.629C1023.64 338.939 881.359 343.379 877.449 343.629L877.099 343.669Z" fill="#CE44A2"/>
<path id="Vector_27" d="M808.4 25.6797C819.94 25.6797 832.02 25.8997 844.64 26.3397C1043.5 33.4997 1145.06 93.6497 1145.06 93.6497L1207.5 186.5L1098.22 332.13C1098.22 332.13 881.75 338.83 877.12 339.13C871.94 339.13 682.51 230.46 677.52 227.46C672.53 224.46 580.52 156.46 577.52 150.46C574.52 144.46 582.52 71.9397 582.52 71.9397C582.52 71.9397 638 25.6797 808.4 25.6797ZM808.4 16.6797C636.72 16.6797 579.14 63.0997 576.77 65.0697C574.987 66.5626 573.851 68.6877 573.6 70.9997C573.6 71.1797 571.6 89.4497 569.93 108.22C566.44 148.51 568.04 151.71 569.45 154.53C570.74 157.12 572.35 160.33 621.33 197.32C643.62 214.15 669.63 233.32 672.87 235.23C675.73 236.94 724.51 264.95 772.79 292.3C800.84 308.18 823.48 320.87 840.08 330.03C873 348.18 874.2 348.18 877.08 348.18C877.29 348.18 877.53 348.18 877.74 348.18C882.56 347.89 1024.24 343.46 1098.48 341.18C1099.83 341.137 1101.15 340.792 1102.35 340.168C1103.55 339.545 1104.59 338.66 1105.4 337.58L1214.7 191.9C1215.82 190.406 1216.45 188.6 1216.5 186.733C1216.55 184.866 1216.01 183.03 1214.97 181.48L1152.52 88.6297C1151.78 87.5186 1150.79 86.589 1149.64 85.9097C1148.57 85.2697 1122.79 70.1597 1072.14 54.0997C1040.98 44.3334 1009.22 36.6169 977.05 30.9997C933.402 23.4014 889.279 18.8404 845 17.3497C832.6 16.8997 820.3 16.6797 808.44 16.6797H808.4Z" fill="#17091D"/>
<path id="Vector_28" d="M626.5 108.5C626.5 108.5 691.5 43.5595 867 63.4995C1042.5 83.4395 1131.61 104.13 1145.06 134.8C1158.51 165.47 1160.32 245.86 1160.32 245.86C1160.32 245.86 1027.61 328.219 1027.55 325.859C1027.49 323.5 858 323.25 858 323.25L598.5 172.5L626.5 108.5Z" fill="#9C398C" stroke="#17091D" stroke-width="9" stroke-linecap="round" stroke-linejoin="round"/>
</g>
<path id="Vector_29" d="M272 1409.5C271.601 1409.5 271.204 1409.45 270.82 1409.34C270.211 1409.17 269.646 1408.87 269.16 1408.47C268.674 1408.07 268.279 1407.57 268 1407C257.06 1385.07 161 1192.21 157.61 1174.85C156.33 1168.29 144.45 1139.85 131.88 1109.85C113.49 1065.85 92.6496 1016.03 86.8796 993.06V992.93C86.3296 990.8 85.8796 988.86 85.6596 987.19C81.3596 960.08 86.2496 942.26 91.9096 921.63C92.3096 920.16 92.7196 918.63 93.1296 917.17C93.8296 914.56 94.5896 911.73 95.3296 908.81C95.5596 907.86 95.8696 906.5 96.1996 904.89C96.1996 904.89 96.3296 904.34 96.3496 904.21L96.5896 903.04C96.6696 902.64 96.7596 902.22 96.8396 901.78C97.1196 900.35 97.4196 898.78 97.7396 897.12L98.0696 895.4C98.1896 894.75 98.3196 894.08 98.4396 893.4C98.5596 892.72 98.6396 892.29 98.7396 891.75C98.9696 890.59 99.1796 889.41 99.3996 888.18L99.5996 887.02C99.8196 885.88 100.02 884.74 100.23 883.56L100.28 883.31C100.37 882.84 100.44 882.4 100.52 881.95L100.69 881C101.11 878.646 101.546 876.186 102 873.62L102.78 869.13C103.23 866.54 103.7 863.86 104.17 861.13L105.92 850.97C106.01 850.38 106.12 849.73 106.23 849.08C106.23 849.08 106.43 847.93 106.44 847.9C106.45 847.87 106.44 847.75 106.44 847.7C106.63 846.61 106.81 845.51 107 844.39L107.86 839.31C108.24 837.04 108.63 834.71 109.03 832.31V832.16C109.03 832.05 109.03 831.95 109.09 831.84L111.25 818.93C113.25 806.99 115.32 794.46 117.43 781.69C117.77 779.62 118.11 777.55 118.43 775.46C120.18 764.87 121.93 754.16 123.66 743.53C124.046 741.13 124.436 738.746 124.83 736.38C125.436 732.62 126.046 728.873 126.66 725.14C127.37 720.74 128.08 716.36 128.78 712.04C141.813 631.732 164.967 553.398 197.69 478.91C199.323 475.196 200.99 471.463 202.69 467.71C203.4 466.07 204.13 464.42 204.86 462.78C206.92 458.153 209.003 453.51 211.11 448.85C212.19 446.45 213.27 444.05 214.37 441.65C214.89 440.48 215.43 439.3 215.97 438.11L217.57 434.6C220.64 427.88 223.89 420.85 227.24 413.73C227.7 412.73 228.24 411.68 228.68 410.65L228.85 410.29C231.36 404.93 234.01 399.38 236.94 393.29C237.94 391.14 239.02 388.99 240.06 386.88C241.1 384.77 242.16 382.56 243.22 380.44C245.22 376.44 247.01 372.81 248.76 369.38C249.31 368.29 249.86 367.2 250.42 366.12C250.98 365.04 251.42 364.25 251.86 363.31L252.05 362.94C253.21 360.66 254.38 358.43 255.54 356.23L256.99 353.49L257.32 352.87L258.32 351.04C264.71 339.04 270.52 329.04 275.58 321.13L276.28 320.04C276.97 318.97 277.66 317.92 278.34 316.92C278.52 316.65 279.04 315.92 279.04 315.92C279.41 315.36 279.8 314.78 280.2 314.22L281.35 312.61C282.06 311.61 282.73 310.71 283.4 309.85C283.61 309.56 283.83 309.28 284.05 309C284.27 308.72 284.6 308.29 284.88 307.95L285.98 306.6C287.14 305.22 288.25 304 289.28 302.95L289.78 302.46C290.3 301.94 290.78 301.46 291.25 301.09C291.47 300.89 291.71 300.69 291.94 300.51L292.67 299.91C292.9 299.73 293.16 299.54 293.41 299.37C293.66 299.2 293.82 299.08 294.04 298.94C294.26 298.8 294.54 298.62 294.79 298.48H294.84C295.17 298.28 295.51 298.1 295.84 297.94C300.25 295.77 307.58 292.33 317.57 287.74C365.75 265.62 462.5 222.74 491.01 210.18L503.82 204.52C504.394 204.27 505.013 204.141 505.64 204.14C505.931 204.141 506.222 204.168 506.51 204.22C519.02 206.68 628.93 228.22 635.02 230.29C641.11 232.36 798.52 322.3 831.25 341L959.25 381.39L1096 328.18L1218.72 232C1219.51 231.365 1220.49 231.013 1221.5 231C1222.1 230.997 1222.69 231.116 1223.24 231.35C1223.42 231.42 1241.37 238.94 1266.24 249.78C1290 260.1 1312 269.94 1331.68 279C1386.22 304.19 1407.12 376.62 1407.98 379.69C1408.84 382.76 1485.09 677.13 1506.98 750.8C1523.21 805.35 1521.28 815.09 1518.84 827.43C1518.44 829.43 1518.03 831.53 1517.71 833.89C1517.48 835.48 1517.33 837.05 1517.22 838.72C1517.1 840.56 1517.05 842.35 1517.06 844.19C1517.06 858.62 1524.62 862.33 1536.06 867.94C1543.94 871.83 1552.86 876.23 1559.78 885.3C1571.02 900.06 1572.58 946.63 1574.08 991.66C1574.79 1012.78 1575.45 1032.73 1577.16 1045.53L1577.33 1046.82C1581.24 1076.11 1581.24 1076.11 1592.39 1088.05C1594.93 1090.77 1598.09 1094.15 1601.92 1098.51C1605.75 1102.87 1610.34 1112.94 1606.6 1150.67C1604.47 1172.14 1599.87 1200.18 1592.95 1234.01C1581.18 1291.47 1566.54 1346.59 1566.39 1347.14C1566.22 1347.8 1565.9 1348.41 1565.46 1348.93C1565.02 1349.45 1564.47 1349.86 1563.85 1350.14C1563.28 1350.39 1562.66 1350.52 1562.04 1350.52C1561.31 1350.52 1560.59 1350.34 1559.94 1350C1521.42 1329.72 1485.76 1319.44 1453.94 1319.44C1449.35 1319.44 1444.79 1319.66 1440.38 1320.09C1390.28 1324.95 1367.92 1356.27 1367.7 1356.58C1367.29 1357.18 1366.73 1357.67 1366.09 1358.01C1365.44 1358.34 1364.73 1358.52 1364 1358.52C1363.7 1358.52 1363.4 1358.49 1363.1 1358.43C1362.24 1358.25 1361.45 1357.83 1360.82 1357.21C1360.2 1356.59 1359.77 1355.8 1359.59 1354.94C1359.46 1354.27 1345.42 1287.21 1336 1248.68C1335.5 1246.63 1335 1244.68 1334.54 1242.76C1332.03 1258.63 1328.35 1274.3 1323.54 1289.64C1323.54 1289.8 1323.43 1290.02 1323.36 1290.24C1319.16 1303.45 1312.36 1321.61 1304.07 1333.02C1303.58 1333.69 1303.07 1334.35 1302.56 1335.02C1292.48 1347.49 1246.56 1362.89 1182.78 1375.23C1107.26 1389.82 1016.06 1398.49 926 1399.63C920.19 1399.7 915.34 1399.73 910.72 1399.73H910.54H903.54C901.2 1399.73 898.85 1399.73 896.54 1399.67L886.48 1399.53L878.97 1399.37H877.87C873.203 1399.25 868.536 1399.11 863.87 1398.95L855.8 1398.65L854.23 1398.58L846.86 1398.26L840.68 1397.96H840.25L839.17 1397.9L836.91 1397.78L831.29 1397.48H831.01L824.09 1397.07L823.09 1397.01L817.38 1396.65L814.44 1396.46L808.19 1396.03L807.19 1395.95L799.94 1395.42L799.05 1395.35H798.94L797.3 1395.21C795.64 1395.09 793.91 1394.96 792.17 1394.81H791.96C784.1 1394.17 775.96 1393.46 767.21 1392.63L760.89 1392.02C755.39 1391.47 749.936 1390.9 744.53 1390.32C742.39 1390.1 740.25 1389.86 738.13 1389.62L731.76 1388.9L728.84 1388.57L723.15 1387.89H722.92L715.72 1387.01C713.27 1386.72 710.82 1386.4 708.37 1386.09C704.65 1385.62 700.96 1385.14 697.3 1384.65L696 1384.47C695.05 1384.35 694.05 1384.22 693.06 1384.07L686.2 1383.13L682.2 1382.57C681.65 1382.48 681.2 1382.41 680.7 1382.35C679.32 1382.16 677.95 1381.95 676.57 1381.75C670.71 1380.9 665.43 1380.11 660.41 1379.34L656.46 1378.73L649.07 1377.57L646.89 1377.21L640.83 1376.21L637.57 1375.67C634.836 1375.22 632.126 1374.76 629.44 1374.29L625.72 1373.66L621.99 1373L618.99 1372.47L618.37 1372.36L613.02 1371.36L610.28 1370.87H610.06L606 1370.11L604 1369.75C593.16 1367.75 582.8 1365.68 573.2 1363.68L569.71 1362.94L567.87 1362.55C555.45 1359.92 543.71 1357.25 532.97 1354.61C531.71 1354.31 530.45 1354 529.21 1353.68C527.97 1353.36 526.78 1353.08 525.58 1352.76L522.58 1352L519.64 1351.22C510.97 1348.95 503.28 1346.73 496.75 1344.63L495.05 1344.08C491.32 1342.86 488.05 1341.69 485.33 1340.61L484.02 1340.08C481.852 1339.22 479.753 1338.2 477.74 1337.02C477.25 1336.72 476.74 1336.4 476.29 1336.02C474.6 1334.79 473.032 1333.41 471.61 1331.88C471.14 1331.39 470.61 1330.88 470.18 1330.3C469.75 1329.72 469.28 1329.22 468.8 1328.62L468.09 1327.71C467.9 1327.46 467.65 1327.13 467.41 1326.79C465.755 1324.51 464.216 1322.15 462.8 1319.71C462.2 1318.71 461.58 1317.59 460.96 1316.43C460.58 1315.76 460.18 1315 459.78 1314.23C459.51 1313.72 459.25 1313.23 458.99 1312.69L458.69 1312.09C457.69 1310.01 456.61 1307.83 455.57 1305.51C457.82 1311.78 459.86 1317.41 461.57 1322.27C465.76 1333.81 468.26 1340.59 468.26 1340.6C468.499 1341.28 468.573 1342 468.475 1342.71C468.377 1343.42 468.111 1344.1 467.698 1344.69C467.285 1345.28 466.737 1345.76 466.101 1346.09C465.464 1346.42 464.758 1346.6 464.04 1346.6C463.586 1346.6 463.134 1346.53 462.7 1346.4C455.796 1344.37 448.626 1343.39 441.43 1343.49C440.54 1343.49 439.66 1343.49 438.76 1343.49C373.38 1345.19 275.47 1408.2 274.49 1408.84C273.74 1409.29 272.876 1409.52 272 1409.5ZM416.32 850.18C408.46 854.86 400.04 889.62 393.27 917.55C387.39 941.78 381.32 966.84 374.19 982.55C373.94 983.09 373.71 983.55 373.49 984.11C371.37 988.85 369.91 992.36 368.88 995.17C368.67 995.75 368.47 996.32 368.29 996.86C366.19 1003.12 366.7 1004.43 368.38 1008.74C369.942 1012.55 371.141 1016.5 371.96 1020.54C373.335 1027.88 374.065 1035.33 374.14 1042.8C374.34 1051.27 377.91 1068 384.75 1092.53C397.05 1136.67 417.75 1198.3 435.59 1249.26L434.48 1245.53L433.48 1242.09C433.04 1240.59 432.62 1239.09 432.2 1237.67L432.08 1237.25C431.68 1235.9 431.28 1234.53 430.9 1233.18L427.9 1222.55C427.68 1221.75 427.46 1220.98 427.24 1220.22C426.42 1217.3 425.62 1214.48 424.85 1211.78C424.63 1211.01 424.41 1210.23 424.2 1209.47C422.2 1202.6 420.73 1197.54 419.47 1193.57C419.41 1193.36 419.09 1192.37 419.09 1192.37C418.99 1192.05 418.89 1191.74 418.78 1191.43C410.19 1165.34 417.47 1142.6 428.5 1108.19C432.07 1097.05 436.12 1084.41 440.09 1070.11C455.59 1014.4 429.18 879.59 424.66 861.17C424.23 859.41 423.86 857.67 423.55 855.87V855.66C423.55 855.44 423.47 855.22 423.44 855C423.41 854.78 423.35 854.44 423.3 854.17C423.08 852.76 422.92 851.46 422.79 850.36C422.79 850.23 422.79 850.05 422.73 849.85L422.58 848.52C422.51 847.89 422.45 847.3 422.38 846.76C421 847.46 419.1 848.55 416.66 849.99L416.56 850.05L416.32 850.18Z" fill="#CE44A2"/>
<path id="Vector_30" d="M505.54 208.58C505.54 208.58 627.54 232.5 633.54 234.5C639.54 236.5 829.44 345.18 829.44 345.18L959.44 386.18L1098.25 332.12L1221.5 235.5C1221.5 235.5 1239.31 242.95 1264.5 253.91C1283.56 262.2 1306.83 272.5 1329.8 283.11C1383.09 307.71 1403.66 380.93 1403.66 380.93C1403.66 380.93 1480.51 677.5 1502.66 752.1C1521.42 815.16 1515.48 816.91 1513.24 833.3C1513.02 834.86 1512.84 836.56 1512.72 838.46C1512.61 840.2 1512.54 842.1 1512.55 844.23C1512.63 872.96 1540.48 867.5 1556.14 888.05C1571.8 908.6 1567.48 1007.5 1572.64 1046.15C1577.8 1084.8 1576.48 1076.5 1598.48 1101.5C1620.48 1126.5 1562 1346 1562 1346C1518.09 1322.89 1482.35 1314.92 1453.94 1314.92C1449.06 1314.92 1444.39 1315.16 1439.94 1315.59C1386.94 1320.73 1364 1354 1364 1354C1364 1354 1349.92 1286.64 1340.37 1247.59C1339.6 1244.45 1338.87 1241.49 1338.17 1238.76C1337.29 1235.33 1336.47 1232.28 1335.74 1229.69C1334.09 1223.89 1332.84 1220.43 1332.22 1220.43C1331.92 1220.43 1331.76 1221.27 1331.78 1223.06C1331.78 1224.25 1331.78 1225.53 1331.7 1226.89C1331.61 1229.09 1331.42 1231.5 1331.14 1234.08C1331.03 1235.13 1330.9 1236.2 1330.76 1237.31C1328.35 1254.6 1324.48 1271.66 1319.21 1288.31L1319.03 1288.89C1313.74 1305.56 1307.25 1321.01 1300.4 1330.38C1299.95 1331 1299.48 1331.6 1299.02 1332.17C1281.54 1353.8 1128.51 1392.54 925.9 1395.11C920.833 1395.17 915.76 1395.2 910.68 1395.21H910.5H903.5C901.173 1395.21 898.84 1395.19 896.5 1395.15L886.5 1395.01L879.03 1394.85H877.94C873.273 1394.73 868.606 1394.59 863.94 1394.43L854.64 1394.08L846.98 1393.74C844.893 1393.65 842.806 1393.55 840.72 1393.44H840.52L837.1 1393.26L831.17 1392.94L823.28 1392.47C821.386 1392.36 819.496 1392.24 817.61 1392.11L814.61 1391.92L808.39 1391.49L807.31 1391.41L801.63 1390.99L800.22 1390.89L799.22 1390.81L797.63 1390.68C795.88 1390.55 794.14 1390.42 792.4 1390.27H792.23C783.943 1389.6 775.713 1388.88 767.54 1388.1L761.23 1387.49C755.756 1386.94 750.32 1386.37 744.92 1385.8L738.47 1385.09C735.55 1384.77 732.63 1384.43 729.73 1384.09H729.31L723.59 1383.41H723.41L716.19 1382.53L708.85 1381.61C705.136 1381.14 701.47 1380.66 697.85 1380.17L696.59 1380L693.66 1379.6L689.49 1379.03L687.49 1378.75L682.77 1378.09L681.26 1377.87L677.16 1377.28C671.72 1376.49 666.346 1375.69 661.04 1374.87L657.04 1374.26L653.1 1373.64L649.67 1373.1L641.46 1371.76L638.21 1371.22C635.476 1370.77 632.773 1370.32 630.1 1369.85L626.37 1369.21L622.68 1368.56L619.02 1367.92L613.7 1366.92L610.75 1366.39L604.75 1365.27C593.99 1363.27 583.75 1361.27 574.05 1359.22L568.73 1358.1C556.02 1355.41 544.38 1352.75 533.97 1350.19C532.71 1349.89 531.47 1349.58 530.25 1349.27C529.03 1348.96 527.83 1348.67 526.65 1348.36L523.65 1347.59L520.73 1346.82C511.95 1344.51 504.35 1342.31 498.09 1340.3L496.42 1339.76C492.753 1338.56 489.6 1337.43 486.96 1336.38L485.7 1335.87C483.73 1335.06 481.824 1334.1 480 1333C479.613 1332.76 479.223 1332.5 478.83 1332.22C477.384 1331.16 476.045 1329.96 474.83 1328.64C474.4 1328.19 473.97 1327.71 473.55 1327.22C473.13 1326.73 472.7 1326.22 472.27 1325.67L471.64 1324.85C471.42 1324.57 471.21 1324.29 471 1324C469.433 1321.84 467.977 1319.6 466.64 1317.29C466.04 1316.29 465.45 1315.23 464.87 1314.15C464.48 1313.45 464.1 1312.73 463.72 1312C463.34 1311.27 463.01 1310.61 462.65 1309.9C460.09 1304.79 457.65 1299.11 455.2 1293.06C454.92 1292.37 454.65 1291.68 454.38 1290.99C449.06 1277.34 444.12 1261.99 439.67 1247.08C439.39 1246.14 439.11 1245.21 438.84 1244.29L438.42 1242.85L437.82 1240.85C437.353 1239.24 436.89 1237.64 436.43 1236.05C436.03 1234.72 435.64 1233.38 435.26 1232.05L432.26 1221.42C432.04 1220.63 431.82 1219.85 431.6 1219.08C430.78 1216.17 429.98 1213.35 429.21 1210.65C428.99 1209.88 428.77 1209.11 428.56 1208.36C426.82 1202.26 425.22 1196.81 423.79 1192.36C423.7 1192.06 423.6 1191.77 423.51 1191.48C423.36 1191.01 423.22 1190.56 423.07 1190.12C412.22 1157.18 428.57 1128.62 444.46 1071.47C460.35 1014.32 433.5 878.5 429 860.13C428.56 858.33 428.22 856.66 427.95 855.13C427.9 854.85 427.85 854.58 427.81 854.31C427.77 854.04 427.72 853.78 427.68 853.52C427.47 852.2 427.32 850.98 427.19 849.87C427.19 849.73 427.19 849.59 427.14 849.45C426.88 847.2 426.72 845.45 426.44 844.11C426.44 843.94 426.37 843.77 426.32 843.62C426.27 843.47 426.24 843.31 426.19 843.17C426.086 842.815 425.927 842.477 425.72 842.17L425.63 842.06C425.557 841.97 425.473 841.89 425.38 841.82C425.335 841.777 425.284 841.74 425.23 841.71L425.02 841.59C424.906 841.546 424.789 841.513 424.67 841.49H424.49H424.2H424C423.543 841.536 423.093 841.636 422.66 841.79C422.33 841.9 421.98 842.04 421.59 842.2C419.065 843.398 416.608 844.734 414.23 846.2L414.04 846.32C397.57 856.14 386.52 944.51 370.11 980.73L369.39 982.33C367.3 987.01 365.76 990.69 364.67 993.66C364.44 994.3 364.23 994.9 364.04 995.47C359.97 1007.62 364.57 1006.86 367.57 1021.47C368.895 1028.55 369.594 1035.74 369.66 1042.94C369.89 1052.49 374.02 1070.76 380.43 1093.77C400.09 1164.27 441.2 1279.23 457.32 1323.66C461.52 1335.21 464.02 1342 464.02 1342C456.683 1339.83 449.06 1338.78 441.41 1338.89C440.49 1338.89 439.56 1338.89 438.62 1338.89C371.2 1340.68 272 1405 272 1405C272 1405 165.37 1191.26 162 1174C158.8 1157.6 101.18 1031.5 91.1697 991.92C90.6397 989.85 90.2497 988.02 89.9997 986.45C85.5497 958.38 91.3897 940.35 97.3697 918.32C98.1097 915.58 98.8597 912.77 99.5897 909.88C99.8397 908.88 100.15 907.5 100.51 905.78C100.51 905.54 100.62 905.29 100.67 905.03C100.72 904.77 100.81 904.32 100.89 903.94C100.97 903.56 101.07 903.06 101.16 902.59C101.44 901.18 101.74 899.59 102.06 897.92C102.14 897.49 102.23 897.06 102.31 896.61C102.46 895.82 102.62 894.99 102.77 894.14C102.87 893.613 102.97 893.073 103.07 892.52C103.29 891.373 103.51 890.173 103.73 888.92C103.8 888.55 103.86 888.18 103.93 887.8C104.16 886.59 104.38 885.35 104.61 884.06C104.75 883.3 104.88 882.53 105.02 881.75C105.44 879.4 105.88 876.93 106.33 874.36C106.46 873.6 106.6 872.82 106.73 872.04C107.3 868.78 107.9 865.37 108.51 861.81C108.81 860.05 109.116 858.26 109.43 856.44C109.7 854.87 109.97 853.28 110.25 851.66C110.41 850.66 110.59 849.66 110.76 848.66C110.765 848.574 110.765 848.487 110.76 848.4C110.95 847.31 111.14 846.2 111.33 845.08C111.61 843.41 111.9 841.71 112.19 840C112.57 837.713 112.96 835.38 113.36 833C113.36 832.81 113.43 832.62 113.46 832.44C114.16 828.247 114.876 823.967 115.61 819.6C117.61 807.66 119.68 795.13 121.79 782.35C122.13 780.277 122.463 778.197 122.79 776.11C124.54 765.53 126.29 754.82 128.02 744.18C128.406 741.787 128.796 739.407 129.19 737.04C129.803 733.273 130.413 729.527 131.02 725.8C131.73 721.39 132.44 717.01 133.14 712.69C146.109 632.769 169.156 554.815 201.73 480.69C203.356 476.977 205.003 473.247 206.67 469.5C207.39 467.86 208.113 466.223 208.84 464.59C210.9 459.963 212.98 455.323 215.08 450.67C216.16 448.27 217.243 445.877 218.33 443.49C218.86 442.31 219.39 441.14 219.93 439.97C220.47 438.8 220.99 437.63 221.53 436.46C224.73 429.46 227.96 422.46 231.18 415.61C231.71 414.46 232.25 413.32 232.79 412.18C235.456 406.44 238.146 400.797 240.86 395.25L243.97 388.85C245.023 386.69 246.073 384.553 247.12 382.44C248.966 378.693 250.806 375.027 252.64 371.44L254.29 368.2C254.83 367.13 255.38 366.07 255.92 365.02C257.08 362.747 258.236 360.523 259.39 358.35L260.88 355.54C260.96 355.37 261.05 355.21 261.14 355.05L262.14 353.17C268.24 341.77 274 331.72 279.22 323.58C279.44 323.23 279.66 322.88 279.89 322.58C280.57 321.52 281.25 320.49 281.89 319.5L282.56 318.5C282.94 317.94 283.32 317.38 283.7 316.84L284.84 315.24C285.51 314.31 286.17 313.42 286.84 312.58C287.03 312.32 287.23 312.06 287.43 311.81L288.21 310.81L289.28 309.5C290.28 308.25 291.35 307.12 292.28 306.14L292.76 305.66C293.186 305.24 293.606 304.85 294.02 304.49C294.2 304.33 294.38 304.17 294.56 304.03L295.23 303.49C295.42 303.34 295.62 303.19 295.81 303.06L296.27 302.75L296.36 302.69C296.55 302.56 296.75 302.45 296.94 302.34C297.147 302.212 297.36 302.095 297.58 301.99C302.23 299.7 309.75 296.18 319.24 291.82C365.54 270.56 458.62 229.32 492.62 214.29L505.43 208.63M505.43 199.63C504.18 199.632 502.945 199.891 501.8 200.39L489.09 206C460.55 218.62 363.67 261.5 315.59 283.58C305.59 288.18 298.23 291.63 293.75 293.84C293.312 294.049 292.885 294.279 292.47 294.53C292.25 294.66 291.88 294.87 291.47 295.15C291.06 295.43 290.96 295.48 290.71 295.66L289.79 296.34L289 297C288.65 297.28 288.37 297.53 288.15 297.73C287.64 298.18 287.15 298.67 286.57 299.19L286.5 299.27L286.02 299.75C284.86 300.91 283.67 302.23 282.45 303.68L281.28 305.11C280.99 305.47 280.69 305.84 280.4 306.22L279.71 307.12C279.05 307.98 278.36 308.9 277.62 309.94L277.15 310.6L276.47 311.55C276.05 312.15 275.65 312.74 275.25 313.33L275.11 313.53L274.53 314.38C273.82 315.44 273.12 316.5 272.45 317.53C272.19 317.917 271.94 318.307 271.7 318.7C266.58 326.7 260.7 336.83 254.28 348.86L253.94 349.5L253.31 350.7C253.21 350.88 253.07 351.12 252.93 351.41L252.3 352.61C252.03 353.1 251.77 353.61 251.51 354.1C250.14 356.68 249.02 358.83 247.99 360.86L247.63 361.56C247.2 362.39 246.77 363.22 246.35 364.06C245.79 365.14 245.24 366.23 244.69 367.32C242.93 370.76 241.11 374.4 239.13 378.42C238.13 380.42 237.13 382.52 235.96 384.88C234.96 386.98 233.88 389.13 232.84 391.29C229.9 397.37 227.24 402.94 224.72 408.29C224.19 409.42 223.64 410.58 223.1 411.75C219.73 418.93 216.47 425.96 213.42 432.66C212.89 433.8 212.36 434.98 211.83 436.16C211.3 437.34 210.75 438.51 210.21 439.7C209.12 442.1 208.04 444.5 206.95 446.91C204.86 451.55 202.75 456.24 200.7 460.91C199.97 462.54 199.24 464.2 198.51 465.86C196.86 469.6 195.2 473.33 193.57 477.05C160.696 551.887 137.434 630.587 124.34 711.27C123.64 715.59 122.93 719.98 122.21 724.39L120.39 735.62C120 737.97 119.61 740.36 119.22 742.75C117.22 755.23 115.53 765.37 113.99 774.66C113.65 776.773 113.316 778.857 112.99 780.91C111.06 792.57 108.88 805.8 106.81 818.13L105.71 824.75L104.71 830.98V831.07V831.21C104.71 831.31 104.71 831.41 104.71 831.51C104.31 833.87 103.91 836.2 103.53 838.51L103.32 839.75C103.1 841.04 102.88 842.31 102.67 843.57C102.49 844.66 102.3 845.76 102.11 846.84C102.11 846.94 102.11 847.04 102.11 847.14L101.92 848.22L101.59 850.16L101.11 852.97L100.78 854.9L100.29 857.74L99.8597 860.28C99.3597 863.21 98.8597 866.05 98.3797 868.79L98.0797 870.47C98.0846 870.493 98.0846 870.517 98.0797 870.54C98.0097 870.99 97.9297 871.43 97.8497 871.87L97.6897 872.87C97.2497 875.39 96.8097 877.87 96.3897 880.19L96.2097 881.19C96.1397 881.61 96.0697 882.03 95.9897 882.45V882.5V882.76C95.7897 883.92 95.5897 885.04 95.3797 886.14C95.3797 886.34 95.3097 886.54 95.2697 886.73C95.2297 886.92 95.2697 887.05 95.1897 887.21C95.1849 887.25 95.1849 887.29 95.1897 887.33C94.9697 888.54 94.7597 889.69 94.5497 890.8V890.88C94.4497 891.41 94.3497 891.93 94.2597 892.44V892.55C94.1397 893.21 94.0097 893.87 93.8897 894.5L93.8197 894.9V895L93.6997 895.62L93.5797 896.24C93.2697 897.89 92.9797 899.42 92.6997 900.81V900.87C92.6197 901.29 92.5397 901.69 92.4597 902.07C92.3897 902.38 92.3297 902.7 92.2697 903.01V903.24V903.31C92.2733 903.383 92.2733 903.457 92.2697 903.53L92.1897 903.92C91.7697 905.92 91.4997 907.05 91.3497 907.67C90.6197 910.56 89.8697 913.36 89.1697 915.94C88.7697 917.43 88.3597 918.94 87.9597 920.38C82.3997 940.63 77.1497 959.76 81.5997 987.83C81.8897 989.64 82.3197 991.68 82.8897 993.93C82.8944 993.99 82.8944 994.05 82.8897 994.11C88.7897 1017.4 109.7 1067.4 128.14 1111.52C140.08 1140.07 152.42 1169.59 153.62 1175.7C154.25 1178.97 155.95 1187.7 210.62 1299.89C237.41 1354.89 264.13 1408.46 264.4 1409C264.965 1410.13 265.764 1411.13 266.743 1411.94C267.721 1412.74 268.858 1413.33 270.08 1413.66C270.851 1413.88 271.649 1413.98 272.45 1413.98C274.189 1413.98 275.891 1413.48 277.35 1412.53C278.35 1411.9 375.22 1349.53 439.28 1347.91C440.14 1347.91 441 1347.91 441.84 1347.91C448.581 1347.81 455.299 1348.72 461.77 1350.61C462.637 1350.88 463.541 1351.02 464.45 1351.02C465.9 1351.02 467.329 1350.67 468.614 1350C469.9 1349.33 471.005 1348.36 471.835 1347.17C472.665 1345.98 473.195 1344.61 473.38 1343.17C473.566 1341.73 473.401 1340.27 472.9 1338.91C472.9 1338.91 472.9 1338.8 472.79 1338.61C473.21 1338.95 473.63 1339.27 474.06 1339.61C474.49 1339.95 475.16 1340.37 475.73 1340.72C477.95 1342.03 480.266 1343.17 482.66 1344.12L484.05 1344.68C486.84 1345.79 490.21 1347 494.05 1348.24L495.77 1348.8C502.36 1350.92 510.13 1353.15 518.87 1355.45L520.5 1355.88L521.8 1356.23H521.86L523.31 1356.6L524.81 1356.99C526.02 1357.31 527.25 1357.61 528.49 1357.92C529.73 1358.23 531.01 1358.55 532.3 1358.86C543.09 1361.51 554.86 1364.19 567.3 1366.86L569.18 1367.26L572.66 1367.99C582.26 1369.99 592.66 1372.05 603.53 1374.08L605.45 1374.44L609.6 1375.2C610.58 1375.39 611.58 1375.57 612.6 1375.74L617.9 1376.74L618.61 1376.86L621.55 1377.38L623.39 1377.7L625.24 1378.03H625.33L627.04 1378.33L629.04 1378.68C631.71 1379.13 634.43 1379.6 637.18 1380.05L639.18 1380.38L640.43 1380.59L646.09 1381.51L648.67 1381.93L649.58 1382.08L652.16 1382.48L654.33 1382.82L656.08 1383.1L657.72 1383.35L660.06 1383.71C664.94 1384.46 670.24 1385.26 676.23 1386.13H676.56C677.84 1386.31 679.1 1386.5 680.38 1386.67L681.74 1386.87H681.88L686.61 1387.53H686.67L687.67 1387.67L688.67 1387.81L690.8 1388.1L692.8 1388.37L695.8 1388.78L696.48 1388.87L697.01 1388.94H697.08C700.68 1389.42 704.42 1389.94 708.19 1390.39L715.57 1391.31L722.74 1392.19H723.05C724.92 1392.42 726.79 1392.65 728.67 1392.86H729.02H729.18L731.74 1393.15L737.96 1393.86L744.44 1394.57C749.37 1395.1 754.73 1395.65 760.8 1396.26L763.8 1396.56L767.13 1396.88C775.96 1397.71 784.07 1398.42 791.94 1399.06H792.16H792.23C793.93 1399.21 795.62 1399.33 797.33 1399.46L798.95 1399.59H799.15H799.89H800.12H800.74H801.48L803.13 1399.71L807.13 1400.01H807.3C807.58 1400.01 807.84 1400.01 808.1 1400.07H808.26L811.26 1400.27L814.53 1400.5H814.59L816 1400.59L817.53 1400.69L823.26 1401.05H823.86L831.16 1401.49L837.16 1401.81L839.47 1401.93H840.41H840.96L847.14 1402.22L854.14 1402.53H854.81H855.39L864.18 1402.86C868.83 1403.02 873.56 1403.17 878.24 1403.29H879.34L886.42 1403.44H886.9L896.97 1403.58C899.31 1403.58 901.67 1403.63 904.02 1403.64H911.02H911.2C915.79 1403.64 920.8 1403.64 926.53 1403.54C1016.86 1402.39 1108.34 1393.7 1184.11 1379.05C1215.7 1372.95 1290.86 1356.66 1306.54 1337.26C1307.19 1336.45 1307.72 1335.77 1308.2 1335.1C1316.88 1323.23 1323.83 1304.59 1328.13 1291.04C1328.2 1290.82 1328.27 1290.61 1328.33 1290.39C1331.06 1281.7 1333.53 1272.47 1335.57 1263.5C1344.57 1302.22 1355.57 1354.72 1355.72 1355.31C1356.08 1357.03 1356.94 1358.62 1358.19 1359.86C1359.44 1361.1 1361.02 1361.95 1362.75 1362.29C1364.48 1362.64 1366.27 1362.48 1367.9 1361.82C1369.54 1361.16 1370.94 1360.03 1371.94 1358.58C1371.94 1358.58 1377.34 1350.99 1388.57 1343C1403.57 1332.35 1421.29 1326 1441.34 1324C1445.61 1323.58 1450.03 1323.37 1454.47 1323.37C1485.47 1323.37 1520.47 1333.48 1558.34 1353.37C1559.63 1354.04 1561.07 1354.38 1562.53 1354.37C1563.77 1354.37 1565 1354.11 1566.14 1353.61C1567.38 1353.07 1568.48 1352.26 1569.36 1351.23C1570.24 1350.21 1570.88 1349 1571.23 1347.69C1571.37 1347.14 1586.06 1291.89 1597.85 1234.3C1604.85 1200.3 1609.42 1172.13 1611.56 1150.51C1615.44 1111.46 1610.56 1100.29 1605.79 1094.92C1601.91 1090.52 1598.73 1087.11 1596.17 1084.37C1590.17 1077.97 1588.24 1075.77 1586.9 1072.17C1585.22 1067.65 1584.18 1059.82 1582.28 1045.62L1582.11 1044.33C1580.43 1031.74 1579.77 1011.9 1579.11 990.9C1577.23 934.7 1575.11 896.76 1563.89 881.97C1556.33 872.05 1546.49 867.2 1538.58 863.3C1526.91 857.55 1522.17 854.77 1522.14 843.58C1522.14 841.83 1522.14 840.14 1522.29 838.4C1522.39 836.84 1522.54 835.4 1522.74 833.92C1523.05 831.66 1523.43 829.74 1523.84 827.7C1526.68 813.32 1527.62 801.83 1511.84 748.9C1489.96 675.31 1413.66 381.01 1412.84 378.04C1412.85 377.984 1412.85 377.927 1412.84 377.87C1408.41 363.419 1402.46 349.475 1395.11 336.27C1378.74 306.6 1357.63 285.18 1334.11 274.27C1314.42 265.17 1292.38 255.32 1268.63 244.99C1243.68 234.13 1225.7 226.6 1225.52 226.53C1224.05 225.917 1222.44 225.707 1220.85 225.922C1219.27 226.136 1217.78 226.767 1216.52 227.75L1094.28 323.56L959.1 376.65L833.1 336.89C826.51 333.12 782.41 307.89 738.2 282.77C640.93 227.49 638.06 226.53 636.35 226C630.27 224 536.02 205.43 507.27 199.79C506.7 199.679 506.12 199.622 505.54 199.62L505.43 199.63ZM373.11 996.71C374.11 994.04 375.56 990.53 377.59 985.99L378.28 984.44C385.59 968.31 391.72 943.05 397.64 918.62C401.58 902.34 405.31 886.97 409.24 874.62C414.74 857.35 418.18 854.35 418.65 854.01C418.65 854.3 418.73 854.6 418.78 854.9C418.83 855.2 418.87 855.46 418.92 855.76C418.97 856.06 419.01 856.28 419.06 856.54V856.67C419.38 858.52 419.78 860.4 420.23 862.25C424.71 880.52 450.94 1014.13 435.7 1068.92C431.7 1083.13 427.7 1095.72 424.15 1106.83C417.43 1127.83 411.86 1145.19 410.71 1161.83C402.42 1136.41 394.81 1111.92 389.06 1091.29C380.67 1061.19 378.75 1048.23 378.62 1042.66C378.535 1034.93 377.776 1027.21 376.35 1019.61C375.48 1015.32 374.207 1011.12 372.55 1007.07C371.07 1003.28 370.95 1002.98 372.55 998.26L373.11 996.65V996.71Z" fill="#17091D"/>
<path id="Vector_31" d="M1372.84 1029.76C1386.52 1076.18 1424.43 1238.11 1439.94 1315.59C1386.94 1320.73 1364 1354 1364 1354C1364 1354 1349.92 1286.64 1340.37 1247.59L1332 1194L1323 1133L1315 1064L1315.42 1029.66L1316.42 1008.28L1328 920.999L1327 789.879L1327.22 785.569L1335 706.999L1338.72 681.799L1349 638.999L1357 560.999L1355 508.999L1354.87 496.639L1355.5 495.199C1355.5 495.199 1375.16 550.289 1376.08 607.639C1377 664.989 1383.66 745.449 1381.33 802.229C1379 859.009 1381.33 884.069 1401.69 864.529C1418.79 848.079 1493.89 831.969 1506.26 837.299C1508.4 838.199 1509.72 838.419 1507 840.999C1506.77 841.229 1505.26 842.909 1505 843.149C1490.8 855.319 1452.55 868.589 1423 882.909C1409.72 889.359 1399.62 895.199 1396.94 899.729C1396.39 900.547 1396.15 901.541 1396.29 902.519C1399 915.999 1519.59 865.589 1522.8 889.299C1526.01 913.009 1447.42 923.209 1411.21 954.099C1375 984.989 1355.68 971.519 1372.84 1029.76Z" fill="#9C398C"/>
<path id="Vector_32" d="M1330.75 1237.31C1327.06 1266.52 1313.75 1313.93 1299.01 1332.13C1281.53 1353.76 1128.5 1392.5 925.89 1395.07C723.28 1397.64 505 1348.32 480 1333C455 1317.68 433.85 1222.94 423 1190C412.15 1157.06 428.5 1128.5 444.39 1071.35C460.28 1014.2 433.5 878.499 429 860.129C425.6 846.329 428.16 839.929 422.65 841.759L424.47 830.919L442.58 759.529L454.39 708.999L465.07 636.399L469.07 622.859C469.07 622.859 465.63 683.399 486.54 661.449C489.64 658.189 493.54 652.259 497.84 644.519C509.07 624.449 539.72 634.519 536.84 657.329C531.9 695.809 528.84 730.859 531.07 748.579C537.5 800.499 534.07 964.299 531.8 1013.9C529.53 1063.5 502.92 1097.33 496.21 1147.9C489.5 1198.47 544.74 1255.9 583.12 1267.68C621.5 1279.46 631.22 1309.89 659.36 1319.68C687.5 1329.47 800.99 1379.9 970.24 1368.68C1139.49 1357.46 1210.24 1357.68 1245.39 1334.59C1280.54 1311.5 1294.22 1306.15 1300.86 1280.31C1307.5 1254.47 1326.28 1218.52 1326.28 1218.52L1330.75 1237.31Z" fill="#9C398C"/>
<path id="Vector_33" d="M1351.9 424.19C1353.9 441.41 1355.39 458.56 1356.64 475.78C1357.89 493 1358.75 510.22 1359.16 527.47C1359.57 544.72 1359.55 562 1358.81 579.27C1358.46 587.9 1357.9 596.54 1357.18 605.16C1356.76 609.47 1356.39 613.78 1355.84 618.08C1355.29 622.38 1354.71 626.67 1354.09 630.96C1353.78 633.11 1353.35 635.24 1352.99 637.38L1352.42 640.59C1352.22 641.66 1351.98 642.72 1351.76 643.78C1351.29 645.91 1350.88 648.04 1350.38 650.16L1348.77 656.5C1348.24 658.62 1347.53 660.69 1346.92 662.79L1345 669C1343.69 673 1342.67 677.16 1341.59 681.27C1339.59 689.55 1337.97 697.93 1336.59 706.36C1335.21 714.79 1334.13 723.28 1333.27 731.81C1331.47 748.81 1330.49 765.97 1329.85 783.12C1329.21 800.27 1329.17 817.44 1329.32 834.62C1329.47 851.8 1329.89 868.98 1330.32 886.18C1330.52 894.79 1330.77 903.38 1330.76 912.07C1330.76 914.24 1330.76 916.42 1330.64 918.64C1330.52 920.86 1330.34 923.04 1330.15 925.21C1329.75 929.54 1329.28 933.83 1328.77 938.12C1324.67 972.36 1319.49 1006.39 1315.87 1040.49C1315.63 1042.62 1315.43 1044.75 1315.24 1046.87C1315.05 1048.99 1314.83 1051.13 1314.71 1053.24C1314.59 1055.35 1314.37 1057.49 1314.33 1059.56L1314.23 1062.68C1314.23 1063.68 1314.23 1064.68 1314.23 1065.76C1314.6 1074.15 1315.46 1082.76 1316.32 1091.25L1317.7 1104.04L1319.26 1116.83C1320.34 1125.35 1321.44 1133.83 1322.61 1142.38C1323.78 1150.93 1325.08 1159.38 1326.36 1167.88C1327.64 1176.38 1329.06 1184.88 1330.47 1193.31C1331.88 1201.74 1333.47 1210.22 1335.07 1218.61C1335.91 1222.8 1336.76 1226.98 1337.69 1231.1C1338.14 1233.17 1338.69 1235.2 1339.16 1237.19C1339.42 1238.13 1339.68 1239.19 1339.95 1240.03L1340.36 1241.32C1340.47 1241.54 1340.56 1241.76 1340.65 1241.99L1341.01 1243.05C1341.36 1244.01 1341.52 1245.02 1341.47 1246.04C1341.42 1247.06 1341.17 1248.05 1340.73 1248.97C1340.29 1249.89 1339.67 1250.71 1338.91 1251.39C1338.15 1252.06 1337.26 1252.58 1336.29 1252.91C1335.33 1253.23 1334.31 1253.36 1333.29 1253.29C1332.28 1253.22 1331.29 1252.94 1330.38 1252.48C1329.47 1252.01 1328.67 1251.37 1328.01 1250.59C1327.35 1249.82 1326.86 1248.91 1326.56 1247.94V1247.88C1326.3 1247.09 1326.03 1246.25 1325.83 1245.48L1325.43 1243.65C1325.16 1242.41 1325.02 1241.35 1324.81 1240.2C1324.45 1237.97 1324.14 1235.78 1323.81 1233.61C1323.19 1229.26 1322.67 1224.95 1322.16 1220.61C1321.1 1212.01 1320.16 1203.42 1319.22 1194.84L1316.46 1169.12C1315.54 1160.55 1314.65 1151.97 1313.8 1143.4C1312.95 1134.83 1312.09 1126.25 1311.22 1117.67L1308.86 1091.91C1308.14 1083.29 1307.41 1074.73 1307.17 1065.91C1307.17 1064.79 1307.17 1063.65 1307.17 1062.54L1307.31 1059.22C1307.37 1056.98 1307.6 1054.84 1307.75 1052.66C1307.9 1050.48 1308.14 1048.33 1308.35 1046.17C1308.56 1044.01 1308.78 1041.86 1309.03 1039.71C1312.97 1005.4 1318.43 971.41 1322.78 937.35C1323.33 933.09 1323.83 928.843 1324.26 924.61C1324.45 922.5 1324.69 920.36 1324.78 918.32C1324.87 916.28 1324.92 914.12 1324.93 911.99C1324.93 903.46 1324.76 894.85 1324.6 886.26C1324.23 869.06 1323.87 851.84 1323.81 834.6C1323.75 817.36 1323.96 800.13 1324.54 782.89C1325.12 765.65 1326.14 748.4 1327.95 731.21C1328.81 722.61 1329.95 714.03 1331.28 705.47C1332.61 696.91 1334.28 688.4 1336.35 679.95C1337.46 675.74 1338.5 671.52 1339.84 667.36L1341.73 661.19C1342.31 659.19 1343 657.19 1343.51 655.09L1345.07 648.92C1345.56 646.86 1345.96 644.77 1346.41 642.69C1346.63 641.69 1346.86 640.61 1347.06 639.57L1347.61 636.42C1347.97 634.32 1348.38 632.23 1348.69 630.12C1351.21 613.201 1352.72 596.148 1353.22 579.05C1353.83 561.93 1353.71 544.77 1353.16 527.63C1352.01 493.36 1349.3 459.04 1344.88 425.1V425.05C1344.81 424.591 1344.84 424.124 1344.95 423.675C1345.07 423.226 1345.27 422.805 1345.55 422.436C1345.83 422.066 1346.18 421.756 1346.59 421.524C1346.99 421.291 1347.43 421.14 1347.89 421.08C1348.35 421.019 1348.82 421.051 1349.26 421.173C1349.71 421.294 1350.13 421.503 1350.49 421.788C1350.86 422.073 1351.17 422.427 1351.39 422.831C1351.62 423.235 1351.77 423.68 1351.82 424.14L1351.9 424.19Z" fill="#17091D"/>
<path id="Vector_34" d="M360.939 308.25C360.939 308.25 471.629 387.63 470.569 545.06C469.509 702.49 419.499 848.5 419.499 848.5C419.499 848.5 505.899 714.66 524.199 649.58" stroke="#17091D" stroke-width="7" stroke-linecap="round" stroke-linejoin="round"/>
<path id="Vector_35" d="M368.5 997.5C368.5 997.5 278.16 902.999 181.33 900.729" stroke="#17091D" stroke-width="7" stroke-linecap="round" stroke-linejoin="round"/>
<path id="Vector_36" d="M1486.79 845.37C1486.79 845.37 1332.56 929.62 1323.5 966.5" stroke="#17091D" stroke-width="7" stroke-linecap="round" stroke-linejoin="round"/>
<path id="Vector_37" d="M1448.06 900.489C1448.06 900.489 1333.42 946.769 1320.5 980.489" stroke="#17091D" stroke-width="7" stroke-linecap="round" stroke-linejoin="round"/>
<path id="Vector_38" d="M232.25 512.14C215.5 575.5 146.09 823.14 134.25 855.31C127.96 872.47 111.41 898.11 97.3301 918.31C98.0701 915.57 98.8201 912.76 99.5501 909.87C103.14 895.65 118.12 805.28 131.04 725.87C145.65 635.784 171.819 547.96 208.9 464.57C242.21 389.74 280.79 310.24 297.69 301.94C302.34 299.65 309.86 296.13 319.35 291.77L341 282C346.28 289.86 249 448.78 232.25 512.14Z" fill="#D969BD"/>
<path id="Vector_39" d="M457.3 1323.66C461.5 1335.21 464 1342 464 1342C455.758 1339.6 447.177 1338.56 438.6 1338.93C371.2 1340.68 272 1405 272 1405C272 1405 165.37 1191.26 162 1174C158.8 1157.6 101.18 1031.5 91.1699 991.92C118.312 1032.08 143.291 1073.65 166 1116.47C215.54 1209.47 281.52 1350.2 320.53 1342.35C346.79 1337.06 415.38 1328.61 457.3 1323.66Z" fill="#9C398C"/>
<path id="Vector_40" d="M367.55 1021.47C344.7 1020.81 310.92 1008.23 269.23 1004.02C224.97 999.55 230.5 980.5 241.48 972.82C252.46 965.14 328.48 1008.5 315.31 986.23C302.14 963.96 240.5 945.5 259.82 941.77C274.77 938.88 336.75 977.77 364.02 995.46C360 1007.61 364.55 1006.85 367.55 1021.47Z" fill="#9C398C"/>
<path id="Vector_41" d="M455 681L438 768C438 768 423.75 826.75 423 827C421.18 827.6 418.12 843.87 414 846.31C397.53 856.13 386.48 944.5 370.07 980.72L369.35 982.32C348.35 957.26 300.35 901.73 279.96 891.63C253.5 878.5 312.5 871.5 329.5 883.5C346.5 895.5 364.5 922.5 376.99 888.98C389.48 855.46 400.99 814.38 406.5 806.5C412.01 798.62 455 681 455 681Z" fill="#9C398C"/>
<path id="Vector_42" d="M910.49 1399.67C906.08 1399.67 901.37 1399.67 896.49 1399.59L886.42 1399.45L878.91 1399.29H877.81C873.143 1399.17 868.477 1399.03 863.81 1398.87L855.81 1398.57L854.21 1398.51L846.76 1398.18L840.58 1397.88H840.16L839.08 1397.82L836.81 1397.7L831.14 1397.4H830.91L823.91 1396.99L822.91 1396.93C821.01 1396.82 819.1 1396.7 817.2 1396.57L814.26 1396.38L807.91 1395.94L806.99 1395.87L799.82 1395.35L798.82 1395.27H798.64L791.72 1394.73C783.88 1394.09 775.79 1393.38 766.98 1392.55L760.66 1391.94C755.16 1391.39 749.707 1390.82 744.3 1390.24L737.83 1389.53L731.49 1388.82L729.08 1388.54L722.9 1387.81C717.96 1387.22 713.02 1386.61 708.14 1385.98C704.42 1385.51 700.73 1385.03 697.07 1384.54L695.77 1384.36C693.42 1384.05 691.04 1383.73 688.68 1383.36L681.93 1382.42C681.38 1382.33 680.93 1382.26 680.43 1382.2L676.3 1381.6C668.5 1380.47 660.39 1379.25 652.23 1377.95L648.8 1377.42L646.57 1377.05L640.57 1376.05L637.31 1375.51C633.31 1374.84 629.353 1374.18 625.44 1373.51L621.73 1372.86C617.73 1372.15 613.73 1371.44 609.79 1370.73L605.43 1369.94L610.15 1341.2L593.49 1272.2C592.128 1266.56 592.371 1260.64 594.193 1255.13C596.015 1249.62 599.343 1244.72 603.8 1241C638.64 1211.45 721.59 1130.26 739.37 1014.77C740.586 1006.63 744.691 999.203 750.934 993.843C757.177 988.483 765.142 985.55 773.37 985.58C773.95 985.58 774.52 985.58 775.1 985.63C792.98 986.51 811.65 987.34 830.59 988.09C876.25 989.92 944.34 992.09 1009.38 992.09C1078.72 992.09 1131.2 989.67 1165.38 984.89C1167.95 984.531 1170.54 984.35 1173.14 984.35C1184.31 984.305 1195.24 987.651 1204.47 993.944C1213.7 1000.24 1220.81 1009.18 1224.85 1019.6C1236.15 1048.63 1245.83 1078.27 1253.85 1108.38C1271.58 1174.46 1306.65 1199.64 1321.62 1210.38L1323.62 1211.8L1323.55 1213.62C1324.03 1214.71 1325.55 1217.21 1326.55 1218.92C1330.09 1224.8 1331.62 1227.61 1331.55 1230.12C1331.64 1230.95 1332.12 1233.63 1332.44 1235.43C1333.51 1241.43 1333.65 1242.52 1333.51 1243.61C1330.96 1262.81 1326.49 1281.71 1320.17 1300.02C1314.73 1315.52 1308.8 1327.28 1302.56 1335.02C1292.48 1347.49 1246.56 1362.89 1182.78 1375.23C1107.26 1389.82 1016.06 1398.49 926 1399.63C920.15 1399.7 915.26 1399.73 910.6 1399.73L910.49 1399.67Z" fill="#7E4282"/>
<path id="Vector_43" d="M1173.18 988.8C1183.44 988.792 1193.46 991.879 1201.94 997.658C1210.42 1003.44 1216.96 1011.64 1220.7 1021.19C1231.93 1050.07 1241.54 1079.55 1249.5 1109.5C1267.16 1175.32 1301.24 1201.25 1319 1214C1318.91 1216.2 1327.28 1227.42 1327 1230C1326.89 1231 1329.14 1241.89 1329 1243C1326.49 1261.89 1322.09 1280.48 1315.87 1298.49C1311.08 1312.14 1305.34 1324.31 1299.01 1332.13C1281.53 1353.76 1128.5 1392.5 925.89 1395.07C920.776 1395.13 915.663 1395.16 910.55 1395.17H910.49C905.85 1395.17 901.19 1395.17 896.49 1395.09L886.49 1394.95L879.02 1394.79H877.93C873.263 1394.67 868.596 1394.53 863.93 1394.37L854.63 1394.02L846.97 1393.68C844.883 1393.59 842.796 1393.49 840.71 1393.38H840.51L837.09 1393.2L831.16 1392.88L823.27 1392.41C821.376 1392.3 819.486 1392.18 817.6 1392.05L814.6 1391.86L808.38 1391.43L807.3 1391.35L800.21 1390.83L799.21 1390.75L792.21 1390.2C783.923 1389.53 775.693 1388.81 767.52 1388.03L761.21 1387.42C755.736 1386.87 750.3 1386.3 744.9 1385.73L738.45 1385.02C735.53 1384.7 732.61 1384.36 729.71 1384.02L723.57 1383.29C718.616 1382.7 713.703 1382.1 708.83 1381.47C705.116 1381 701.45 1380.52 697.83 1380.03L696.57 1379.86L689.47 1378.86L687.47 1378.58L682.75 1377.92L681.24 1377.7L677.14 1377.11C668.98 1375.93 660.98 1374.72 653.14 1373.47L649.71 1372.93L641.5 1371.59L638.25 1371.05C634.25 1370.38 630.303 1369.72 626.41 1369.05L622.72 1368.4C618.68 1367.69 614.703 1366.98 610.79 1366.27L614.94 1341L598 1271.09C596.836 1266.27 597.035 1261.22 598.573 1256.5C600.11 1251.79 602.927 1247.59 606.71 1244.38C639.49 1216.58 725.63 1133.56 743.82 1015.38C744.921 1008.31 748.509 1001.88 753.938 997.222C759.367 992.568 766.279 990.007 773.43 990C773.93 990 774.43 990 774.93 990C789.24 990.71 808.29 991.589 830.46 992.469C880.46 994.469 946.39 996.469 1009.46 996.469C1069.71 996.469 1127.35 994.639 1166.07 989.229C1168.43 988.895 1170.82 988.728 1173.21 988.729M1173.21 979.729C1170.4 979.732 1167.6 979.929 1164.82 980.32C1130.82 985.07 1078.59 987.469 1009.46 987.469C944.46 987.469 876.46 985.299 830.85 983.469C807.16 982.529 787.62 981.61 775.41 981C774.76 981 774.1 980.95 773.41 980.95C764.111 980.956 755.12 984.284 748.058 990.335C740.997 996.386 736.33 1004.76 734.9 1013.95C717.36 1127.95 635.32 1208.22 600.9 1237.44C595.832 1241.71 592.057 1247.32 590.001 1253.62C587.945 1259.93 587.688 1266.68 589.26 1273.12L605.71 1341.25L601.86 1364.72L600.42 1373.45L609.13 1375.03C612.99 1375.74 617.02 1376.46 621.13 1377.17L622.93 1377.49L624.79 1377.82C628.97 1378.55 632.87 1379.21 636.79 1379.82L638.67 1380.13L640.02 1380.36L645.66 1381.28L648.26 1381.7L649.04 1381.83L651.75 1382.25C659.94 1383.55 668.06 1384.78 675.87 1385.91H676.17C677.46 1386.1 678.73 1386.29 680.02 1386.46L681.37 1386.66H681.52L686.25 1387.32H686.31L687.31 1387.46L688.31 1387.6C690.65 1387.93 693.02 1388.24 695.39 1388.6L696.1 1388.7L696.62 1388.77H696.69C700.27 1389.25 704.01 1389.77 707.8 1390.22C713.04 1390.89 717.89 1391.48 722.61 1392.05L728.72 1392.77H728.79L731.34 1393.06L737.57 1393.77L744.05 1394.48C748.98 1395.01 754.34 1395.56 760.41 1396.17L763.41 1396.47L766.74 1396.79C775.58 1397.62 783.74 1398.34 791.56 1398.97L798.56 1399.52H798.74H799.48H799.63L803.03 1399.77L806.73 1400.04H806.88C807.15 1400.04 807.42 1400.04 807.67 1400.1H807.84L810.84 1400.31L814.08 1400.53H814.14L815.55 1400.62L817.08 1400.72L822.8 1401.08H823.44L830.71 1401.52H830.78L836.65 1401.84L838.97 1401.96H839.91H840.47L846.64 1402.25L853.59 1402.56H854.3H854.83C857.83 1402.68 860.72 1402.79 863.67 1402.89C868.35 1403.06 873.08 1403.2 877.73 1403.32H878.83L886.1 1403.47H886.5L896.5 1403.61C901.5 1403.66 906.12 1403.69 910.56 1403.69H910.62C915.24 1403.69 920.29 1403.69 926.07 1403.59C1016.4 1402.44 1107.88 1393.75 1183.65 1379.1C1215.24 1373 1290.4 1356.71 1306.08 1337.31C1312.65 1329.19 1318.82 1316.97 1324.43 1300.99C1330.86 1282.38 1335.4 1263.17 1338 1243.65C1338.23 1241.79 1338 1240.14 1336.89 1234.13C1336.62 1232.59 1336.22 1230.35 1336.08 1229.39C1336.08 1225.65 1334.08 1222.09 1330.45 1216.07C1329.73 1214.87 1328.73 1213.21 1328.13 1212.07L1328.26 1208.99L1324.32 1206.16C1309.73 1195.69 1275.58 1171.16 1258.26 1106.64C1250.22 1076.37 1240.5 1046.56 1229.15 1017.37C1224.75 1006.14 1217.06 996.49 1207.09 989.693C1197.11 982.896 1185.33 979.264 1173.26 979.27L1173.21 979.729Z" fill="#17091D"/>
<path id="Vector_44" d="M1315.87 1298.49C1311.08 1312.14 1305.34 1324.31 1299.01 1332.13C1281.53 1353.76 1128.5 1392.5 925.89 1395.07C920.777 1395.13 915.663 1395.16 910.55 1395.17H910.49C905.85 1395.17 901.19 1395.17 896.49 1395.09L886.49 1394.95L879.02 1394.79H877.93C873.263 1394.67 868.597 1394.53 863.93 1394.37L854.63 1394.02L846.97 1393.68C844.883 1393.59 842.797 1393.49 840.71 1393.38H840.51L837.09 1393.2L831.16 1392.88L823.27 1392.41C821.377 1392.3 819.487 1392.18 817.6 1392.05L814.6 1391.86L808.38 1391.43L807.3 1391.35L800.21 1390.83L799.21 1390.75L792.21 1390.2C783.923 1389.53 775.693 1388.81 767.52 1388.03L761.21 1387.42C755.737 1386.87 750.3 1386.3 744.9 1385.73L738.45 1385.02C735.53 1384.7 732.61 1384.36 729.71 1384.02L723.57 1383.29C718.617 1382.7 713.703 1382.1 708.83 1381.47C705.117 1381 701.45 1380.52 697.83 1380.03L696.57 1379.86L689.47 1378.86L687.47 1378.58L682.75 1377.92L681.24 1377.7L677.14 1377.11C668.98 1375.93 660.98 1374.72 653.14 1373.47L649.71 1372.93L641.5 1371.59L638.25 1371.05C634.25 1370.38 630.303 1369.72 626.41 1369.05L622.72 1368.4C618.68 1367.69 614.703 1366.98 610.79 1366.27L614.94 1341L598 1271.09C596.837 1266.27 597.035 1261.22 598.573 1256.5C600.111 1251.79 602.928 1247.59 606.71 1244.38C639.49 1216.58 725.63 1133.56 743.82 1015.38C744.964 1008.06 748.775 1001.43 754.518 996.75C760.262 992.073 767.532 989.687 774.93 990.05C789.24 990.76 808.29 991.64 830.46 992.52C830.46 992.52 791.84 1119.27 776 1156C760.16 1192.73 647.5 1279.5 692.5 1300.5C737.5 1321.5 1000.29 1319.9 1048.4 1319.7C1096.51 1319.5 1238.78 1320.18 1302.14 1302.34L1315.87 1298.49Z" fill="#5C2C66"/>
<path id="Vector_45" d="M791.5 1026.12C791.5 1026.12 743.2 1216.58 634.35 1285" stroke="#17091D" stroke-width="9" stroke-linecap="round" stroke-linejoin="round"/>
<path id="Vector_46" d="M1174.13 1026.11C1174.13 1026.11 1213.78 1221.34 1302.13 1265.42" stroke="#17091D" stroke-width="9" stroke-linecap="round" stroke-linejoin="round"/>
<g id="collar front">
<path id="Vector_47" d="M1264.49 253.91C1237.49 288 1196.21 338.26 1174.49 355.5C1140.49 382.5 972.02 453.33 905.99 451C839.96 448.67 742.15 402.5 701.99 363C661.83 323.5 576.99 288 576.99 288C465.37 258.09 486.78 224.17 492.72 214.24L505.53 208.58C505.53 208.58 627.53 232.5 633.53 234.5C639.53 236.5 829.44 345.18 829.44 345.18L959.44 386.18L1098.25 332.12L1221.5 235.5C1221.5 235.5 1239.31 243 1264.49 253.91Z" fill="#9C398C"/>
<path id="Vector_48" d="M978.46 394.31C941.116 393.982 903.956 389.028 867.83 379.56C855.65 376.42 843.16 372.69 830.69 368.47C795.96 356.69 760.28 340.67 724.69 320.85C663.236 286.782 599.659 256.694 534.35 230.77C527.971 228.276 522.211 224.424 517.471 219.479C512.731 214.535 509.125 208.618 506.903 202.139C504.681 195.66 503.896 188.775 504.604 181.963C505.312 175.15 507.494 168.573 511 162.69C514.52 156.84 518.81 150.59 523.77 143.35C531.4 132.24 540.89 118.41 551.77 99.8596C556.66 91.5296 561.85 84.8596 567.19 80.0296C574.64 73.2996 582.61 69.8896 590.9 69.8896C614.52 69.8896 633.13 97.9796 639.25 107.21C639.75 107.97 640.17 108.6 640.5 109.08C645.37 116.08 676.96 143.55 689.02 153.78C744.14 189.78 849.57 258.41 855.7 261.78C863.86 266.31 878.62 275.58 902.65 294C913.855 302.619 927.039 308.295 941 310.51H941.1C962.339 313.837 984.051 309.011 1001.88 297L1001.99 296.91C1007.75 292.989 1013.01 288.374 1017.65 283.17L1018.12 282.63L1018.33 282.39C1041.8 255.82 1120.83 176.89 1142.51 161.97C1146.6 159.15 1147.16 156.56 1147.22 154.85C1147.64 143.85 1127.07 127.29 1114.78 117.37C1113.17 116.07 1111.64 114.84 1110.23 113.68C1103.04 107.78 1103.51 102.58 1104.43 99.9996C1106.43 94.3596 1113.61 91.2496 1124.6 91.2496C1139.12 91.2496 1157.4 96.7296 1174.76 106.25C1189.52 114.37 1203.45 132.66 1216.16 160.63C1231.16 193.69 1240.24 230.97 1242.65 241.63C1243.14 243.81 1243.39 245 1243.39 245C1243.53 245.658 1243.51 246.339 1243.35 246.992C1243.19 247.645 1242.88 248.253 1242.45 248.77C1210.45 287.52 1154.52 327.68 1089.16 358.97C1080.24 363.24 1071.31 367.25 1062.63 370.9C1027.16 385.8 996.77 394.34 979.25 394.34L978.46 394.31Z" fill="#CE44A2"/>
<path id="Vector_49" d="M590.91 74.3796C613.97 74.3796 632.55 105.47 636.81 111.63C643.12 120.75 686.34 157.39 686.34 157.39C686.34 157.39 845.63 261.39 853.53 265.74C863 271 877.94 280.74 899.93 297.6C911.739 306.684 925.635 312.666 940.35 315H940.42C962.827 318.511 985.733 313.39 1004.51 300.67C1010.58 296.512 1016.12 291.622 1021 286.11C1021.22 285.85 1021.45 285.6 1021.67 285.35C1043.88 260.2 1123.46 180.5 1145.02 165.66C1166.58 150.82 1130.46 124.5 1113.02 110.2C1103.28 102.2 1109.57 95.7396 1124.54 95.7296C1136.34 95.7296 1153.54 99.7296 1172.54 110.2C1188.46 118.95 1201.68 139.75 1212.02 162.5C1226.82 195.07 1235.73 231.65 1238.22 242.61C1238.7 244.73 1238.94 245.89 1238.94 245.89C1202.75 289.63 1142.15 328.58 1087.17 354.89C1078.17 359.18 1069.38 363.14 1060.84 366.73C1026.03 381.35 995.84 389.82 979.2 389.82H978.48C941.526 389.458 904.756 384.551 869 375.21C857.36 372.21 845.08 368.58 832.18 364.21C800.68 353.53 765.48 338.39 726.88 316.92C665.262 282.737 601.503 252.564 536 226.59C530.229 224.334 525.019 220.848 520.731 216.375C516.443 211.903 513.18 206.55 511.169 200.689C509.158 194.828 508.448 188.6 509.087 182.436C509.726 176.273 511.7 170.323 514.87 165C523.71 150.29 537.69 132.77 555.66 102.12C560.53 93.8196 565.4 87.6996 570.21 83.3496C577.32 76.9296 584.3 74.3496 590.91 74.3496M590.91 65.3496C581.48 65.3496 572.49 69.1496 564.19 76.6396C558.5 81.8296 553 88.8596 547.91 97.5796C537.11 116 527.67 129.75 520.09 140.81C515.09 148.11 510.76 154.41 507.17 160.38C502.002 168.932 499.46 178.815 499.86 188.8C500.251 198.855 503.561 208.579 509.388 216.784C515.215 224.988 523.305 231.318 532.67 235C597.789 260.851 661.182 290.853 722.46 324.82C758.34 344.82 794.27 360.91 829.24 372.82C841.82 377.08 854.43 380.82 866.71 384.01C903.179 393.567 940.691 398.572 978.39 398.91H979.25C997.34 398.91 1028.37 390.24 1064.37 375.13C1073.13 371.44 1082.12 367.4 1091.1 363.13C1157.03 331.56 1213.46 290.97 1245.91 251.74C1246.77 250.702 1247.38 249.485 1247.71 248.178C1248.03 246.872 1248.06 245.509 1247.79 244.19C1247.79 244.19 1247.54 242.97 1247.04 240.75C1244.59 230 1235.45 192.35 1220.25 158.9C1207.13 130.03 1192.55 111.04 1176.92 102.44C1158.92 92.5496 1139.85 86.8696 1124.6 86.8696C1107.03 86.8696 1101.77 94.2196 1100.2 98.5996C1099.14 101.6 1097.71 109.33 1107.38 117.26C1108.79 118.43 1110.33 119.67 1111.96 120.98C1118.75 126.46 1127.21 133.29 1133.62 140.06C1142.01 148.93 1142.79 153.32 1142.73 154.79C1142.73 155.26 1142.67 156.52 1139.96 158.38C1116.88 174.27 1035.96 255.82 1014.96 279.52L1014.76 279.75L1014.26 280.32C1009.88 285.241 1004.91 289.607 999.46 293.32L999.3 293.43C986.016 302.416 970.339 307.207 954.3 307.18C950.124 307.167 945.955 306.833 941.83 306.18H941.7C933.768 304.936 926.07 302.495 918.87 298.94C914.125 296.602 909.62 293.805 905.42 290.59C881.17 271.99 866.2 262.59 857.91 258C852.34 254.91 755.67 192 691.74 150.29C674.17 135.38 648.07 112.21 644.22 106.64L643.02 104.85C640.02 100.27 633.68 90.7396 625.28 82.3996C614 71.0796 602.42 65.3996 590.91 65.3996V65.3496Z" fill="#17091D"/>
<path id="Vector_50" d="M840 348C854.912 348 867 333.897 867 316.5C867 299.103 854.912 285 840 285C825.088 285 813 299.103 813 316.5C813 333.897 825.088 348 840 348Z" fill="#5C2C66"/>
<path id="Vector_51" d="M863.4 340.71C862.399 334.672 860.583 328.798 858 323.25C854.23 315.25 848.12 306.57 839.69 307.62C824.53 309.5 823.41 329.56 829.47 351.53C835.53 373.5 849.42 486.82 849.47 525.66C849.52 564.5 856.47 611.5 847.47 617.5C838.47 623.5 828.62 683.01 862.47 687.07C899.47 691.5 888.79 628.56 884.13 617.07C879.47 605.58 873.95 527.07 873.71 507.32C873.56 495.01 872.83 452.32 872.3 421.81C871.93 400.2 869.901 378.65 866.23 357.35L863.4 340.71Z" fill="#7E4282" stroke="#17091D" stroke-width="9" stroke-miterlimit="10"/>
<path id="Vector_52" d="M1054 351C1068.91 351 1081 336.897 1081 319.5C1081 302.103 1068.91 288 1054 288C1039.09 288 1027 302.103 1027 319.5C1027 336.897 1039.09 351 1054 351Z" fill="#5C2C66"/>
<path id="Vector_53" d="M1091.48 368.7C1086.87 350.622 1078.95 333.555 1068.12 318.36C1063.33 311.7 1058.87 306.69 1056.86 307.73C1051.5 310.5 1042.69 319.86 1053.6 345.18C1064.51 370.5 1080.49 446 1081 483.25C1081.51 520.5 1082.92 636.66 1077.72 649.58C1072.52 662.5 1061.51 715.82 1085.01 717.66C1108.51 719.5 1116.75 675.77 1111.63 651.66C1106.51 627.55 1106.95 623.25 1106.73 583.39C1106.51 543.53 1110.12 471.29 1105.14 434.8C1102 411.73 1096.08 386.5 1091.48 368.7Z" fill="#7E4282" stroke="#17091D" stroke-width="9" stroke-miterlimit="10"/>
<path id="Vector_54" d="M899.93 297.6C904.592 301.178 909.597 304.286 914.87 306.88C883.57 296.67 829.35 278 786 258C721 228 642 157 598.5 122.77C581.41 109.31 573.5 95.3499 570.21 83.3599C602.15 54.5199 631.33 103.7 636.81 111.63C643.12 120.75 686.34 157.39 686.34 157.39C686.34 157.39 844 260 853.53 265.74C856.88 267.76 877.94 280.74 899.93 297.6Z" fill="#D969BD"/>
<path id="Vector_55" d="M1212.07 162.5C1207.33 163.624 1202.47 164.129 1197.6 164C1156.19 163 1144 211 1085 255C1046.46 283.74 1019 295.75 1004.52 300.62C1010.59 296.477 1016.12 291.604 1021 286.11C1021.22 285.85 1021.45 285.6 1021.67 285.35C1043.88 260.2 1123.46 180.5 1145.02 165.66C1166.58 150.82 1130.46 124.5 1113.02 110.2C1095.58 95.9 1129.44 86.5 1172.53 110.2C1188.51 119 1201.73 139.75 1212.07 162.5Z" fill="#D969BD"/>
</g>
</g>
</svg>
