<svg width="1000" height="1000" viewBox="0 0 1000 1000" fill="none" xmlns="http://www.w3.org/2000/svg">
<path d="M470.254 995.272C448.123 995.272 423.021 991.886 395.632 985.206C363.659 977.406 339.817 967.752 339.581 967.646L338.437 967.177L354.452 824.904L356.204 825.268C361.341 826.315 367.104 827.275 373.331 828.119C399.771 831.712 436.086 833.533 481.266 833.533C496.89 833.533 513.665 833.312 531.094 832.875C579.552 831.664 619.726 829.126 627.286 828.628L630.084 828.435L630.375 829.832C630.375 829.832 630.448 830.166 630.575 830.795C630.749 831.657 634.935 852.228 640.167 877.199C645.148 901.072 656.153 927.879 663.42 945.617C666.476 953.064 668.87 958.948 669.793 962.093C670.941 966.093 670.425 969.639 668.26 972.675C664.67 977.712 656.826 981.162 643.578 983.537C631.759 985.653 617.19 986.599 603.201 987.308C599.608 987.49 596.258 987.581 592.97 987.581C585.914 987.581 580.42 987.162 575.112 986.759C570.08 986.395 565.327 986.032 559.405 985.995H558.86C546.281 985.995 531.145 987.602 509.781 991.206L508.378 991.442C506.064 991.835 503.655 992.261 500.995 992.737C491.592 994.421 481.256 995.272 470.254 995.272Z" fill="#7E4282"/>
<path d="M355.877 826.869C361.174 827.96 366.948 828.901 373.113 829.738C403.165 833.821 442.51 835.167 481.263 835.167C498.271 835.167 515.173 834.909 531.134 834.509C579.705 833.294 619.588 830.771 627.392 830.258L628.773 830.163C628.773 830.163 628.842 830.494 628.969 831.12C629.874 835.549 633.827 854.843 638.561 877.531C645.711 911.778 665.266 952.294 668.22 962.545C673.405 980.545 639.698 983.818 603.114 985.672C599.354 985.861 596.011 985.941 592.966 985.941C579.45 985.941 571.802 984.403 559.409 984.356H558.86C548.167 984.356 533.91 985.472 509.505 989.589L508.103 989.825C505.731 990.23 503.264 990.663 500.701 991.123C490.891 992.887 480.653 993.643 470.269 993.643C444.675 993.643 418.312 989.051 396.032 983.621C363.797 975.76 340.214 966.134 340.214 966.134L355.891 826.861M353.043 822.941L352.643 826.494L336.965 965.767L336.686 968.229L338.978 969.163C339.218 969.261 363.158 978.981 395.259 986.8C422.77 993.512 448.007 996.916 470.269 996.916C481.369 996.916 491.803 996.051 501.279 994.345C503.921 993.869 506.333 993.447 508.651 993.051L508.887 993.011L510.039 992.818C531.323 989.229 546.372 987.629 558.86 987.629H559.416C565.28 987.651 570 987.992 575.003 988.389C580.344 988.796 585.87 989.214 592.985 989.214C596.302 989.214 599.677 989.123 603.3 988.941C617.339 988.214 631.974 987.276 643.88 985.145C657.578 982.691 665.749 979.029 669.604 973.625C672.075 970.16 672.674 966.127 671.381 961.625C670.447 958.392 668.14 952.763 664.946 944.978C657.68 927.294 646.732 900.571 641.78 876.847C636.559 851.825 632.366 831.312 632.192 830.451L631.992 829.48L631.411 826.687L628.566 826.883L627.24 826.974H627.167C619.613 827.469 579.472 830.007 531.043 831.218C513.603 831.654 496.872 831.876 481.267 831.876C436.159 831.876 399.92 830.058 373.557 826.476C367.355 825.636 361.628 824.683 356.534 823.643L353.032 822.916L353.043 822.941Z" fill="#17091D"/>
<path d="M396.944 956.362C396.835 963.999 396.461 973.919 396.018 983.635C363.783 975.773 340.199 966.148 340.199 966.148L355.877 826.875C361.174 827.966 366.947 828.908 373.113 829.744C370.348 839.108 364.833 861.493 370.955 873.959C378.828 889.999 397.26 934.362 396.944 956.362Z" fill="#5C2C66"/>
<path d="M515.26 975.636C533.205 968.247 541.933 915.418 547.234 921.454C552.16 927.065 551.325 967.436 556.786 978.967C557.692 980.879 558.567 982.676 559.413 984.356C548.658 984.316 533.194 986.356 508.357 990.538C512.266 985.741 501.679 981.232 515.26 975.636Z" fill="#5C2C66"/>
<path d="M579.643 943.243C580.134 942.847 580.479 942.571 580.646 942.443C580.482 942.578 580.141 942.851 579.643 943.243Z" fill="#5C2C66"/>
<path d="M638.565 877.531C631.44 870.654 623.05 862.818 618.996 859.967C611.184 854.48 591.197 861.818 567.166 867.24C543.135 872.661 510.025 871.309 510.025 871.309L508.935 860.458L508.531 859.858L508.357 834.181C508.357 834.181 513.444 834.931 517.077 834.909C517.945 834.909 523.156 836.047 531.134 834.509C579.705 833.294 619.588 830.771 627.392 830.258L628.969 831.12C629.877 835.549 633.83 854.843 638.565 877.531Z" fill="#5C2C66"/>
<path d="M508.529 832.863C509.357 832.864 510.028 833.536 510.028 834.364L510.017 859.862L509.584 991.41C509.583 992.239 508.909 992.909 508.081 992.907C507.252 992.905 506.583 992.232 506.584 991.403L506.588 989.821L507.017 859.857L507.028 834.362C507.028 833.534 507.7 832.863 508.529 832.863Z" fill="#17091D"/>
<path d="M545.122 855.066C545.122 855.07 545.122 855.075 545.123 855.082C545.123 855.097 545.123 855.119 545.124 855.147C545.125 855.203 545.126 855.286 545.127 855.396C545.131 855.615 545.135 855.94 545.139 856.363C545.147 857.208 545.154 858.447 545.149 860.026C545.139 863.183 545.083 867.7 544.899 873.148C544.531 884.039 543.648 898.67 541.59 913.594C539.535 928.5 536.296 943.787 531.177 955.951C526.091 968.038 518.964 977.474 508.879 979.902C508.074 980.096 507.264 979.599 507.07 978.794C506.876 977.989 507.371 977.179 508.176 976.985C516.798 974.909 523.412 966.673 528.413 954.787C533.382 942.978 536.577 927.99 538.619 913.184C540.658 898.396 541.535 883.876 541.901 873.046C542.084 867.634 542.139 863.147 542.149 860.016C542.154 858.451 542.147 857.225 542.139 856.391C542.135 855.974 542.131 855.655 542.127 855.441C542.126 855.334 542.125 855.253 542.124 855.2C542.123 855.173 542.123 855.152 542.123 855.139V855.121L543.623 855.09C545.122 855.06 545.122 855.061 545.122 855.062C545.122 855.063 545.122 855.064 545.122 855.066ZM543.592 853.59C544.42 853.574 545.105 854.232 545.122 855.06L543.623 855.09L542.123 855.12C542.106 854.292 542.764 853.607 543.592 853.59Z" fill="#17091D"/>
<path d="M687.92 986.098C683.244 986.098 677.925 983.887 672.783 981.734C671.029 981.007 669.375 980.316 667.817 979.749C665.361 978.854 663.617 978.44 662.323 978.44C662.109 978.439 661.896 978.453 661.684 978.48C661.058 978.568 660.426 978.613 659.794 978.614C656.186 978.614 652.855 977.116 650.882 974.614C650.078 973.613 649.517 972.44 649.242 971.186C648.967 969.932 648.986 968.631 649.298 967.385C649.327 967.276 649.348 967.167 649.37 967.051C650.424 961.563 653.868 945.233 655.769 939.134C656.444 936.953 655.452 933.916 654.402 930.694C653.069 926.593 651.55 921.942 653.418 917.967C653.527 917.738 653.636 917.523 653.748 917.305C656.859 911.353 665.931 899.825 667.947 897.305C667.849 894.996 667.548 886.593 667.813 877.691C668.456 856.142 671.719 852.709 672.794 851.582C673.189 851.133 673.672 850.772 674.214 850.522C674.756 850.271 675.344 850.137 675.941 850.127C679.327 850.127 688.658 846.971 696.124 844.433C701.211 842.702 706.054 841.065 709.059 840.36C710.487 840.019 711.95 839.844 713.419 839.84C717.415 839.84 720.634 841.2 723.229 842.291C725.14 843.098 726.789 843.796 728.268 843.796C728.779 843.799 729.287 843.708 729.765 843.527C730.032 843.43 730.313 843.379 730.597 843.378C732.959 843.378 734.049 846.487 734.957 851.16C735.633 854.647 736.251 859.487 736.774 865.545C737.588 874.683 737.98 883.927 738.06 885.909C740.127 889.673 756.227 919.803 754.047 941.473C753.389 948.04 751.089 953.243 747.212 956.942L746.969 957.167C745.214 958.785 743.437 960.327 741.679 961.76C737.44 965.259 732.879 968.348 728.057 970.985C718.378 976.189 711.936 976.749 709.615 976.749C709.101 976.753 708.587 976.721 708.078 976.651H707.954C707.779 976.656 707.605 976.685 707.438 976.738C706.265 977.076 704.626 978.236 702.715 979.578C699.528 981.833 695.561 984.64 690.725 985.793C689.805 986.002 688.864 986.105 687.92 986.098Z" fill="#CE44A2"/>
<path d="M713.415 841.472C719.98 841.472 724.151 845.425 728.253 845.425C728.959 845.431 729.66 845.308 730.321 845.061C730.404 845.03 730.493 845.014 730.582 845.014C734.942 845.014 736.447 886.374 736.447 886.374C736.447 886.374 754.66 918.919 752.433 941.327C751.859 947.036 749.963 952.083 746.097 955.77L745.864 955.989C744.086 957.625 742.351 959.13 740.658 960.505C736.502 963.943 732.027 966.975 727.294 969.559C718.916 974.065 712.695 975.13 709.625 975.13C709.193 975.134 708.76 975.107 708.332 975.047C708.211 975.029 708.09 975.021 707.968 975.021C707.641 975.025 707.315 975.075 707.002 975.17C703.369 976.214 697.882 982.421 690.358 984.207C689.562 984.389 688.747 984.478 687.931 984.472C682.026 984.472 674.444 980.447 668.383 978.239C666.094 977.403 664.023 976.832 662.334 976.832C662.045 976.831 661.756 976.85 661.469 976.887C660.917 976.965 660.359 977.004 659.801 977.003C654.108 977.003 649.686 972.836 650.892 967.789C650.925 967.654 650.958 967.516 650.983 967.363C652.142 961.334 655.518 945.469 657.334 939.643C659.151 933.818 651.946 924.981 654.904 918.679C654.998 918.479 655.096 918.279 655.202 918.079C658.599 911.578 669.611 897.847 669.611 897.847C669.611 897.847 667.366 851.767 675.948 851.767C681.899 851.767 701.839 843.734 709.44 841.949C710.749 841.636 712.091 841.478 713.437 841.476M713.437 838.203C711.846 838.209 710.261 838.397 708.713 838.763C705.632 839.49 700.774 841.134 695.633 842.879C688.65 845.247 679.091 848.49 675.973 848.49C675.155 848.498 674.347 848.676 673.601 849.013C672.856 849.351 672.188 849.84 671.642 850.45C669.597 852.603 666.806 857.759 666.214 877.639C665.963 886.039 666.214 893.81 666.323 896.759C663.718 900.054 655.343 910.803 652.331 916.559C652.222 916.77 652.11 916.999 651.968 917.261V917.283C649.828 921.847 651.448 926.825 652.88 931.214C653.806 934.054 654.762 936.985 654.239 938.661C652.32 944.818 648.854 961.243 647.8 966.741C647.8 966.741 647.8 966.763 647.8 966.774C647.8 966.847 647.771 966.919 647.753 966.996V967.021C647.383 968.507 647.361 970.058 647.689 971.554C648.017 973.049 648.685 974.449 649.643 975.643C651.924 978.552 655.736 980.265 659.838 980.265C660.548 980.264 661.257 980.214 661.96 980.116C662.096 980.099 662.233 980.09 662.37 980.09C663.46 980.09 665.066 980.487 667.304 981.301C668.827 981.858 670.465 982.538 672.202 983.261C677.492 985.443 682.964 987.73 687.967 987.73C689.037 987.734 690.104 987.612 691.146 987.367C696.305 986.145 700.415 983.236 703.721 980.898C705.349 979.745 707.031 978.552 707.939 978.294H707.998C708.55 978.366 709.108 978.4 709.665 978.396C712.11 978.396 718.876 977.818 728.878 972.439C733.793 969.754 738.442 966.606 742.761 963.039C744.542 961.585 746.344 960.029 748.117 958.392L748.139 958.37L748.393 958.134C752.557 954.159 755.024 948.614 755.721 941.65C756.702 931.832 754.224 919.258 748.364 904.258C745.853 897.834 742.969 891.563 739.727 885.476C739.618 882.865 739.222 874.087 738.449 865.403C737.907 859.29 737.279 854.392 736.592 850.858C736.279 849.054 735.8 847.282 735.16 845.567C734.132 843.021 732.617 841.752 730.633 841.749C730.154 841.749 729.679 841.835 729.231 842.003C728.933 842.115 728.618 842.17 728.301 842.167C727.152 842.167 725.641 841.53 723.897 840.792C721.176 839.643 717.789 838.214 713.462 838.214L713.437 838.203Z" fill="#17091D"/>
<path d="M661.458 976.88C663.275 976.626 665.673 977.244 668.361 978.233C675.29 980.756 684.206 985.655 690.336 984.2C697.86 982.415 703.35 976.2 706.98 975.164C707.41 975.027 707.865 974.984 708.313 975.04C710.613 975.404 717.462 974.829 727.276 969.553C732.009 966.968 736.484 963.936 740.639 960.498C742.335 959.121 744.07 957.616 745.846 955.982L746.078 955.764C749.119 952.811 751.165 947.764 752.415 941.32C754.649 918.913 736.428 886.367 736.428 886.367C736.428 886.367 734.866 843.356 730.302 845.055C724.682 847.153 719.653 839.542 709.411 841.946C701.81 843.731 681.87 851.764 675.919 851.764C667.337 851.764 669.582 897.844 669.582 897.844C669.582 897.844 658.569 911.575 655.172 918.076C655.067 918.276 654.969 918.476 654.874 918.676C657.153 916.593 668.412 906.611 676.7 905.444C685.958 904.142 708.855 903.298 717.07 901.302C725.285 899.306 732.101 910.007 735.018 922.866C736.973 931.451 741.875 942.215 739.473 950.386C738.281 954.451 735.287 957.873 729.234 960.076C728.598 960.309 727.973 960.531 727.367 960.746C718.458 963.855 711.91 965.156 706.704 966.306C701.981 967.346 698.369 968.258 695.077 970.266C689.74 973.538 680.875 979.542 666.737 975.356C662.065 973.971 656.811 971.462 650.921 967.356C650.896 967.509 650.863 967.647 650.831 967.782C649.559 973.313 654.994 977.789 661.458 976.88Z" fill="#9C398C"/>
<path d="M662.403 941.851C662.813 941.131 663.728 940.879 664.448 941.288C671.228 945.144 675.049 950 677.172 953.926C678.231 955.884 678.865 957.606 679.236 958.852C679.422 959.474 679.542 959.979 679.617 960.336C679.655 960.514 679.681 960.656 679.698 960.757C679.707 960.807 679.713 960.847 679.718 960.877C679.72 960.892 679.722 960.904 679.724 960.914C679.724 960.919 679.725 960.922 679.726 960.926C679.726 960.927 679.725 960.929 679.726 960.931L679.727 960.933C679.727 960.933 679.712 960.937 678.24 961.138L679.727 960.935C679.838 961.755 679.264 962.511 678.443 962.623C677.623 962.735 676.866 962.161 676.754 961.34V961.339C676.754 961.337 676.753 961.335 676.753 961.333C676.751 961.32 676.748 961.297 676.742 961.264C676.731 961.198 676.711 961.093 676.682 960.952C676.622 960.67 676.522 960.247 676.361 959.709C676.04 958.633 675.481 957.105 674.533 955.353C672.642 951.856 669.197 947.439 662.966 943.895C662.246 943.486 661.994 942.571 662.403 941.851Z" fill="#17091D"/>
<path d="M670.277 949.11C670.799 948.467 671.743 948.368 672.387 948.889C673.03 949.411 673.128 950.353 672.608 950.997L672.609 950.998C672.608 950.998 672.607 951 672.605 951.003C672.601 951.008 672.594 951.017 672.584 951.029C672.564 951.054 672.533 951.094 672.492 951.147C672.41 951.255 672.286 951.42 672.131 951.637C671.82 952.07 671.382 952.712 670.888 953.526C669.896 955.16 668.689 957.469 667.81 960.179C666.055 965.589 665.641 972.45 670.679 978.874C671.19 979.526 671.076 980.469 670.424 980.98C669.772 981.491 668.83 981.377 668.318 980.725C662.457 973.251 663.014 965.24 664.956 959.253C665.926 956.264 667.248 953.741 668.323 951.97C668.862 951.082 669.343 950.376 669.692 949.888C669.867 949.645 670.009 949.455 670.109 949.324C670.16 949.258 670.199 949.208 670.228 949.172C670.242 949.154 670.254 949.14 670.262 949.13C670.266 949.125 670.269 949.12 670.272 949.117C670.273 949.116 670.274 949.114 670.275 949.113L670.276 949.111C670.28 949.113 670.336 949.158 671.427 950.042L670.277 949.11Z" fill="#17091D"/>
<path d="M701.288 947.864C702.053 947.548 702.93 947.911 703.247 948.677L701.861 949.25C703.241 948.679 703.247 948.676 703.248 948.677V948.678C703.248 948.679 703.248 948.68 703.249 948.682C703.25 948.684 703.252 948.688 703.253 948.692C703.257 948.702 703.263 948.715 703.27 948.732C703.284 948.767 703.305 948.818 703.332 948.884C703.385 949.016 703.462 949.21 703.558 949.458C703.751 949.954 704.023 950.67 704.342 951.56C704.98 953.337 705.808 955.813 706.572 958.605C708.076 964.104 709.416 971.136 708.288 976.442C708.115 977.253 707.319 977.77 706.508 977.598C705.698 977.425 705.181 976.629 705.353 975.818C706.317 971.285 705.177 964.876 703.678 959.396C702.94 956.698 702.137 954.298 701.518 952.573C701.209 951.711 700.947 951.019 700.762 950.545C700.67 950.308 700.597 950.125 700.547 950.003C700.523 949.942 700.505 949.896 700.493 949.866C700.487 949.852 700.482 949.84 700.479 949.833C700.478 949.83 700.476 949.827 700.475 949.825V949.823C700.159 949.058 700.522 948.181 701.288 947.864Z" fill="#17091D"/>
<path d="M724.055 949.211C724.825 948.906 725.697 949.285 726.001 950.055L724.606 950.606C726.001 950.055 726.001 950.056 726.001 950.056V950.057C726.001 950.058 726.003 950.059 726.003 950.06C726.004 950.063 726.005 950.067 726.007 950.071C726.011 950.08 726.016 950.093 726.023 950.11C726.035 950.143 726.054 950.191 726.077 950.254C726.124 950.378 726.192 950.559 726.276 950.789C726.442 951.249 726.674 951.909 726.935 952.718C727.456 954.333 728.1 956.557 728.585 958.976C729.068 961.385 729.405 964.048 729.279 966.522C729.155 968.969 728.567 971.439 726.995 973.248C726.452 973.873 725.504 973.939 724.879 973.396C724.254 972.853 724.187 971.906 724.731 971.281C725.666 970.204 726.174 968.524 726.283 966.369C726.392 964.241 726.102 961.85 725.644 959.566C725.188 957.292 724.577 955.184 724.079 953.639C723.831 952.869 723.612 952.242 723.455 951.811C723.377 951.596 723.315 951.429 723.273 951.318C723.252 951.263 723.235 951.221 723.225 951.194C723.219 951.18 723.215 951.17 723.213 951.164C723.212 951.161 723.212 951.159 723.211 951.158L723.21 951.157C722.906 950.386 723.284 949.515 724.055 949.211Z" fill="#17091D"/>
<path d="M738.769 948.705C739.528 948.374 740.412 948.722 740.743 949.482L739.368 950.08C740.743 949.481 740.743 949.482 740.744 949.483V949.484C740.744 949.484 740.745 949.485 740.745 949.486C740.746 949.489 740.748 949.492 740.749 949.495C740.752 949.502 740.756 949.512 740.761 949.524C740.771 949.547 740.785 949.58 740.802 949.622C740.837 949.706 740.885 949.826 740.943 949.978C741.059 950.28 741.217 950.712 741.386 951.241C741.723 952.296 742.117 953.766 742.329 955.396C742.741 958.558 742.523 962.855 739.14 965.57C738.494 966.089 737.55 965.985 737.032 965.339C736.513 964.693 736.617 963.749 737.263 963.231C739.366 961.542 739.732 958.679 739.355 955.782C739.173 954.383 738.83 953.097 738.529 952.155C738.379 951.687 738.241 951.31 738.142 951.053C738.093 950.925 738.054 950.826 738.028 950.763C738.015 950.731 738.005 950.708 737.999 950.694L737.992 950.678H737.993C737.663 949.919 738.01 949.036 738.769 948.705Z" fill="#17091D"/>
<path d="M690.75 969.817C693.359 969.817 695.474 965.177 695.474 959.453C695.474 953.73 693.359 949.09 690.75 949.09C688.142 949.09 686.027 953.73 686.027 959.453C686.027 965.177 688.142 969.817 690.75 969.817Z" fill="#D969BD"/>
<path d="M716.569 959.683C719.096 959.036 720.237 954.963 719.118 950.585C717.999 946.208 715.044 943.183 712.516 943.83C709.989 944.477 708.848 948.551 709.967 952.928C711.086 957.306 714.041 960.33 716.569 959.683Z" fill="#D969BD"/>
<path d="M732.668 952.194C734.851 951.635 735.988 948.706 735.207 945.651C734.426 942.597 732.023 940.573 729.84 941.132C727.657 941.691 726.52 944.621 727.301 947.676C728.082 950.73 730.485 952.753 732.668 952.194Z" fill="#D969BD"/>
<path d="M349.58 993.521C345.282 993.521 341.252 992.277 338.015 991.273C335.868 990.612 334.018 990.037 332.779 990.037H332.652C332.439 990.035 332.228 990.075 332.031 990.157C330.305 991.026 326.581 991.946 321.334 991.946C317.974 991.926 314.622 991.609 311.317 991.001H311.274C305.865 989.994 300.564 988.474 295.443 986.463C293.329 985.652 291.163 984.739 289.001 983.753L288.681 983.601C283.856 981.295 280.056 977.055 277.393 971.033C268.702 951.317 274.413 918.175 275.304 913.39C274.595 911.881 272.375 907.095 270.344 901.953C265.737 890.281 266.02 886.866 266.638 885.31C266.779 884.916 267.002 884.557 267.293 884.256C267.584 883.956 267.935 883.721 268.324 883.568C270.141 882.863 272.128 882.07 274.224 881.23C286.832 876.183 304.101 869.273 317.97 869.273C322.217 869.273 325.963 869.924 329.117 871.215C337.136 874.488 344.141 897.503 345.51 902.252C348.206 904.03 360.407 912.172 365.229 916.863C365.403 917.033 365.574 917.226 365.737 917.383C368.673 920.503 369.843 924.015 370.977 927.415C371.794 929.87 372.564 932.186 373.959 934.15C376.067 937.113 378.269 943.968 380.394 950.597C381.964 955.477 383.581 960.521 384.827 962.772L385.001 963.073C385.747 964.252 386.185 965.6 386.273 966.992C386.361 968.385 386.097 969.777 385.506 971.041C384.024 974.353 380.721 976.761 376.677 977.484C374.973 977.79 372.764 979.408 371.227 980.597C369.923 981.623 368.564 982.779 367.125 984.03C362.231 988.233 356.683 993.001 351.324 993.448C350.772 993.495 350.172 993.521 349.58 993.521Z" fill="#CE44A2"/>
<path d="M317.97 870.909C321.81 870.909 325.375 871.451 328.507 872.728C336.449 875.979 344.13 903.273 344.13 903.273C344.13 903.273 358.859 912.899 364.113 918.022C364.273 918.179 364.429 918.339 364.582 918.499C369.349 923.568 369.145 930.135 372.655 935.084C376.165 940.033 380.452 958.182 383.424 963.553C383.497 963.688 383.57 963.811 383.642 963.917C386.618 968.764 382.843 974.706 376.416 975.855C374.599 976.179 372.524 977.517 370.264 979.291C364.451 983.844 357.508 991.291 351.233 991.797C350.684 991.844 350.143 991.866 349.591 991.866C342.644 991.866 336.336 988.382 332.79 988.382H332.605C332.154 988.386 331.709 988.487 331.301 988.68C329.934 989.364 326.577 990.291 321.345 990.291C318.068 990.27 314.798 989.96 311.575 989.364C306.274 988.378 301.079 986.888 296.061 984.913C294.026 984.133 291.909 983.242 289.71 982.24L289.423 982.106C284.605 979.804 281.233 975.597 278.915 970.346C269.832 949.746 277.037 913.146 277.037 913.146C277.037 913.146 264.378 886.848 268.92 885.091C281.782 880.117 302.172 870.909 317.97 870.909ZM317.97 867.637C303.8 867.637 286.36 874.619 273.614 879.713C271.525 880.553 269.548 881.342 267.735 882.044C267.138 882.28 266.596 882.639 266.146 883.098C265.695 883.556 265.346 884.104 265.119 884.706C264.295 886.797 264.088 890.549 268.829 902.557C270.718 907.346 272.724 911.724 273.603 913.615C272.443 920.314 271.668 927.074 271.282 933.862C270.366 949.942 271.921 962.669 275.899 971.68C278.726 978.084 282.803 982.589 287.988 985.069L288.3 985.215H288.325C290.505 986.215 292.715 987.139 294.865 987.964C300.078 990.01 305.472 991.556 310.976 992.582H311.041C314.434 993.202 317.874 993.525 321.323 993.546C325.967 993.546 330.185 992.837 332.641 991.64H332.768C333.753 991.64 335.584 992.204 337.521 992.804C340.863 993.837 345.024 995.12 349.569 995.12C350.216 995.12 350.859 995.095 351.484 995.044C357.37 994.549 363.11 989.589 368.197 985.226C369.625 984 370.969 982.844 372.245 981.84C374.377 980.168 375.965 979.229 376.968 979.051C381.542 978.233 385.292 975.473 386.996 971.666C387.688 970.16 387.996 968.505 387.892 966.851C387.788 965.196 387.275 963.593 386.4 962.186V962.164C386.36 962.099 386.32 962.033 386.284 961.964V961.939C385.117 959.826 383.522 954.859 381.978 950.051C379.715 942.993 377.575 936.328 375.318 933.157C374.065 931.393 373.331 929.189 372.553 926.855C371.42 923.455 370.137 919.582 366.962 916.226C366.766 916.022 366.598 915.84 366.413 915.669C361.755 911.124 350.426 903.499 346.949 901.189C346.266 898.895 344.613 893.589 342.353 887.979C340.901 884.235 339.152 880.613 337.121 877.15C334.687 873.15 332.285 870.702 329.778 869.677C326.432 868.306 322.475 867.611 318.017 867.611L317.97 867.637Z" fill="#17091D"/>
<path d="M376.398 975.877C374.581 976.201 372.506 977.539 370.246 979.314C364.433 983.866 357.49 991.314 351.215 991.819C343.505 992.463 336.362 988.27 332.587 988.408C332.136 988.412 331.69 988.513 331.282 988.706C329.204 989.75 322.519 991.35 311.557 989.39C306.256 988.404 301.061 986.914 296.043 984.939C294.008 984.159 291.891 983.268 289.692 982.266L289.405 982.132C285.597 980.27 282.094 976.088 278.897 970.372C269.814 949.772 277.019 913.172 277.019 913.172C277.019 913.172 264.378 886.848 268.92 885.092C284.907 878.91 312.52 866.183 328.507 872.728C336.449 875.979 344.13 903.274 344.13 903.274C344.13 903.274 326.588 879.248 318.333 880.728C309.13 882.372 290.789 886.252 282.363 886.91C273.938 887.568 288.471 934.292 289.688 947.419C290.498 956.19 289.179 967.943 294.001 974.965C296.395 978.456 300.305 980.783 306.743 980.99L308.727 981.045C318.173 981.23 324.786 980.43 330.091 979.903C334.898 979.423 338.618 979.176 342.353 980.056C348.446 981.51 358.732 984.456 370.849 976.056C374.846 973.285 379.075 969.266 383.403 963.546C383.475 963.681 383.548 963.805 383.621 963.91C386.6 968.786 382.825 974.728 376.398 975.877Z" fill="#9C398C"/>
<path d="M362.506 942.99C363.063 942.378 364.012 942.333 364.625 942.891C365.237 943.448 365.282 944.397 364.724 945.01C359.901 950.309 357.997 955.575 357.285 959.485C356.928 961.446 356.87 963.071 356.899 964.193C356.914 964.754 356.95 965.188 356.981 965.475C356.997 965.618 357.01 965.724 357.02 965.79C357.025 965.823 357.029 965.847 357.031 965.859C357.031 965.863 357.032 965.865 357.032 965.867C357.18 966.682 356.64 967.462 355.825 967.61C355.01 967.759 354.229 967.218 354.081 966.403L355.556 966.135L354.081 966.401L354.08 966.399C354.08 966.398 354.079 966.396 354.079 966.395C354.078 966.391 354.078 966.387 354.077 966.383C354.075 966.373 354.073 966.361 354.071 966.346C354.066 966.316 354.06 966.276 354.052 966.226C354.038 966.124 354.018 965.981 353.999 965.8C353.959 965.438 353.917 964.92 353.9 964.271C353.866 962.972 353.935 961.138 354.334 958.948C355.133 954.558 357.257 948.756 362.506 942.99Z" fill="#17091D"/>
<path d="M357.32 952.674C357.77 951.978 358.698 951.779 359.394 952.229L358.58 953.488C359.394 952.228 359.394 952.229 359.395 952.23L359.396 952.231C359.397 952.231 359.399 952.232 359.401 952.233C359.404 952.236 359.409 952.239 359.415 952.242C359.426 952.249 359.441 952.259 359.46 952.272C359.498 952.297 359.552 952.333 359.62 952.38C359.756 952.473 359.949 952.61 360.191 952.787C360.674 953.142 361.35 953.662 362.138 954.338C363.711 955.687 365.751 957.673 367.6 960.213C371.305 965.3 374.322 972.74 371.071 981.667C370.787 982.445 369.926 982.847 369.148 982.564C368.37 982.28 367.968 981.419 368.252 980.641C371.046 972.968 368.523 966.575 365.175 961.98C363.499 959.678 361.634 957.86 360.184 956.615C359.461 955.995 358.846 955.521 358.417 955.205C358.202 955.048 358.033 954.93 357.921 954.854C357.866 954.815 357.824 954.787 357.797 954.77C357.785 954.761 357.776 954.755 357.77 954.751C357.768 954.75 357.767 954.748 357.766 954.747C357.765 954.748 357.764 954.747 357.764 954.747L357.765 954.748C357.07 954.298 356.87 953.37 357.32 952.674Z" fill="#17091D"/>
<path d="M329.53 960.688C330.356 960.752 330.974 961.472 330.91 962.298C330.91 962.3 330.91 962.304 330.909 962.308C330.909 962.316 330.909 962.328 330.907 962.343C330.905 962.376 330.901 962.426 330.897 962.492C330.888 962.623 330.876 962.819 330.862 963.073C330.833 963.581 330.799 964.321 330.773 965.236C330.72 967.068 330.701 969.598 330.837 972.392C331.114 978.068 332.021 984.512 334.346 988.521C334.762 989.238 334.518 990.156 333.801 990.572C333.084 990.987 332.166 990.743 331.75 990.027C329.029 985.334 328.119 978.233 327.841 972.539C327.7 969.648 327.719 967.037 327.774 965.149C327.801 964.205 327.837 963.439 327.866 962.908C327.881 962.642 327.894 962.434 327.904 962.292C327.908 962.221 327.913 962.166 327.915 962.128C327.917 962.11 327.917 962.096 327.918 962.086C327.919 962.081 327.919 962.077 327.919 962.074V962.069C327.983 961.243 328.704 960.625 329.53 960.688Z" fill="#17091D"/>
<path d="M308.308 969.05C309.083 969.096 309.685 969.724 309.716 970.483L309.715 970.637V970.638C309.715 970.639 309.715 970.641 309.714 970.644C309.714 970.651 309.714 970.662 309.713 970.677C309.712 970.706 309.709 970.75 309.707 970.809C309.701 970.928 309.693 971.106 309.686 971.335C309.671 971.793 309.657 972.457 309.66 973.266C309.666 974.889 309.741 977.084 310.014 979.387C310.288 981.7 310.756 984.062 311.519 986.051C312.292 988.065 313.296 989.503 314.518 990.234C315.229 990.66 315.46 991.581 315.035 992.292C314.609 993.003 313.688 993.234 312.977 992.808C310.922 991.578 309.596 989.413 308.718 987.127C307.83 984.815 307.325 982.179 307.036 979.739C306.745 977.289 306.666 974.975 306.66 973.278C306.656 972.428 306.671 971.728 306.687 971.239C306.695 970.994 306.703 970.802 306.709 970.669C306.713 970.602 306.715 970.551 306.717 970.515C306.718 970.498 306.719 970.483 306.719 970.473C306.719 970.469 306.72 970.465 306.72 970.462V970.458C306.72 970.457 306.721 970.457 308.218 970.547L306.72 970.457C306.77 969.63 307.481 969 308.308 969.05Z" fill="#17091D"/>
<path d="M294.169 973.148C294.993 973.226 295.598 973.959 295.52 974.783L295.518 974.799C295.516 974.814 295.514 974.84 295.512 974.874C295.507 974.943 295.5 975.048 295.493 975.185C295.479 975.459 295.465 975.861 295.468 976.353C295.474 977.341 295.547 978.67 295.809 980.056C296.349 982.925 297.585 985.532 300.106 986.481C300.882 986.772 301.273 987.638 300.981 988.413C300.689 989.188 299.825 989.58 299.05 989.288C294.991 987.761 293.451 983.744 292.86 980.611C292.556 978.997 292.475 977.479 292.468 976.371C292.464 975.815 292.481 975.355 292.497 975.031C292.505 974.869 292.514 974.741 292.52 974.65C292.524 974.605 292.526 974.57 292.528 974.544C292.529 974.531 292.531 974.521 292.531 974.514C292.532 974.51 292.532 974.506 292.532 974.504C292.532 974.503 292.532 974.501 292.532 974.5L292.533 974.499C292.539 974.499 292.631 974.507 294.026 974.641L292.533 974.498C292.612 973.673 293.344 973.069 294.169 973.148Z" fill="#17091D"/>
<path d="M340.678 973.456C342.785 973.456 344.493 968.816 344.493 963.092C344.493 957.368 342.785 952.729 340.678 952.729C338.571 952.729 336.863 957.368 336.863 963.092C336.863 968.816 338.571 973.456 340.678 973.456Z" fill="#D969BD"/>
<path d="M317.425 972C319.532 972 321.24 968.499 321.24 964.181C321.24 959.864 319.532 956.363 317.425 956.363C315.318 956.363 313.61 959.864 313.61 964.181C313.61 968.499 315.318 972 317.425 972Z" fill="#D969BD"/>
<path d="M300.348 976C302.455 976 304.163 973.314 304.163 970C304.163 966.686 302.455 964 300.348 964C298.241 964 296.533 966.686 296.533 970C296.533 973.314 298.241 976 300.348 976Z" fill="#D969BD"/>
<path d="M262.039 917.784C261.528 917.79 261.023 917.677 260.564 917.453C256.142 915.227 233.928 891.158 229.426 852.307C229.175 850.126 228.932 848.002 228.699 846.002C228.485 844.111 228.282 842.336 228.096 840.74C228.096 840.715 228.096 840.66 228.096 840.656C227.475 835.318 226.476 829.42 225.211 821.962C223.58 812.329 221.549 800.336 219.267 783.416C218.072 774.576 217.309 767.158 216.931 760.747C216.793 758.453 216.724 756.638 216.659 755.038C216.51 751.155 216.433 749.22 215.641 746.486C215.587 746.289 215.529 746.104 215.47 745.915C215.43 745.798 215.39 745.667 215.351 745.551C215.271 745.318 215.18 745.06 215.085 744.791C211.815 735.631 213.973 722.038 215.053 716.616C215.245 715.656 215.416 714.798 215.612 714.009C215.826 713.078 216.339 710.736 217.004 707.551C217.752 704.031 218.751 699.3 219.947 693.646C228.736 652.06 247.026 565.533 255.168 535.053C260.833 513.864 279.007 500.871 293.256 493.726C301.63 489.511 310.461 486.28 319.576 484.096L334.222 476.22C334.461 476.094 334.726 476.028 334.996 476.027C335.407 476.028 335.802 476.182 336.104 476.46L395.219 530.889C395.506 531.162 395.686 531.53 395.724 531.926L403.474 611.769C403.492 611.909 403.492 612.051 403.474 612.191L387.367 710.776C387.316 711.086 387.177 711.375 386.967 711.609L345.435 757.638C345.281 757.808 345.094 757.943 344.885 758.036C344.676 758.128 344.45 758.176 344.221 758.176C344.106 758.177 343.992 758.165 343.88 758.14C343.599 758.081 343.34 757.949 343.127 757.758C342.913 757.566 342.755 757.322 342.666 757.049C342.643 756.974 342.623 756.897 342.608 756.82L342.586 756.707C341.776 752.344 340.501 748.18 339.585 746.74L339.505 746.893C339.355 747.197 339.224 747.51 339.113 747.831L339.08 747.922C339 748.14 338.913 748.391 338.808 748.736C338.634 749.324 338.429 749.902 338.194 750.467C336.09 755.58 332.518 757.264 329.913 758.496C327.733 759.525 327.006 759.951 326.959 761.129C326.959 761.224 326.959 761.322 326.959 761.42C326.982 761.863 327.049 762.303 327.159 762.733C328.227 767.096 329.205 782.005 329.837 793.762C330.251 801.464 330.52 807.878 330.643 811.013C330.967 819.136 330.967 819.136 330.56 819.7C330.421 819.892 330.242 820.052 330.036 820.169C329.83 820.286 329.601 820.356 329.365 820.376C328.169 820.482 327.889 820.973 327.784 821.158C327.373 821.885 326.796 824.351 330.327 831.769C335.37 842.373 350.859 893.009 351.513 895.158C351.588 895.403 351.605 895.662 351.562 895.914C351.519 896.166 351.417 896.405 351.265 896.611C351.113 896.816 350.915 896.984 350.687 897.099C350.459 897.214 350.207 897.275 349.951 897.275C349.796 897.274 349.642 897.252 349.493 897.209C343.741 895.56 337.785 894.735 331.802 894.758C309.207 894.758 287.73 905.809 274.897 912.413C268.601 915.635 264.448 917.78 262.039 917.784Z" fill="#CE44A2"/>
<path d="M334.985 477.654L394.099 532.083L401.849 611.926L385.739 710.512L380.209 716.643L344.239 756.541C344.238 756.53 344.238 756.519 344.239 756.508C344.239 756.486 344.239 756.457 344.221 756.417C343.985 755.145 342.066 745.319 339.763 744.781C339.697 744.764 339.628 744.755 339.559 744.755C339.42 744.756 339.283 744.791 339.16 744.857C338.796 745.032 338.433 745.457 338.07 746.192C337.882 746.572 337.718 746.965 337.579 747.366C337.474 747.646 337.376 747.948 337.274 748.283C337.114 748.817 336.928 749.342 336.715 749.857C333.23 758.181 325.6 756.126 325.328 761.043C325.328 761.177 325.328 761.315 325.328 761.457C325.352 762.018 325.435 762.575 325.575 763.119C327.544 771.152 329.419 818.726 329.237 818.755C324.129 819.206 325.448 825.326 328.848 832.483C333.891 843.086 349.944 895.635 349.944 895.635C344.044 893.94 337.933 893.092 331.795 893.119C298.594 893.119 268.575 916.148 262.035 916.148C261.779 916.158 261.523 916.107 261.29 915.999C257.381 914.032 235.494 890.545 231.043 852.126C230.552 847.897 230.098 843.843 229.717 840.559C229.717 840.559 229.717 840.526 229.717 840.512C228.3 828.297 224.961 813.454 220.88 783.206C219.427 772.552 218.846 765.577 218.555 760.661C218.079 752.708 218.391 750.115 217.203 746.039C217.149 745.843 217.087 745.643 217.022 745.435L216.902 745.072C216.815 744.806 216.72 744.537 216.622 744.257C213.995 736.883 214.925 725.617 216.647 716.945C216.824 716.062 217.007 715.214 217.196 714.399C217.41 713.475 217.89 711.235 218.595 707.915C224.688 679.217 247.484 570.181 256.738 535.465C262.108 515.37 278.988 502.708 293.979 495.177C302.3 490.992 311.079 487.79 320.139 485.635L334.989 477.654M334.989 474.381C334.449 474.381 333.917 474.514 333.441 474.77L318.988 482.544C309.823 484.767 300.942 488.027 292.515 492.261C283.406 496.835 275.653 502.221 269.465 508.261C261.519 516.035 256.174 524.901 253.58 534.61C245.423 565.126 227.133 651.672 218.337 693.261C217.138 698.93 216.135 703.668 215.387 707.195C214.707 710.392 214.213 712.708 213.999 713.617C213.813 714.435 213.635 715.301 213.432 716.272C212.342 721.835 210.129 735.781 213.53 745.33V745.348C213.614 745.588 213.694 745.821 213.77 746.05C213.81 746.17 213.846 746.294 213.886 746.414C213.926 746.534 213.991 746.745 214.035 746.905V746.945C214.762 749.468 214.842 751.352 214.991 755.101C215.049 756.628 215.125 758.534 215.263 760.846C215.626 767.301 216.411 774.755 217.61 783.639C219.896 800.585 221.93 812.588 223.565 822.235C224.822 829.661 225.814 835.53 226.432 840.821V840.93C226.614 842.497 226.814 844.243 227.024 846.101C227.257 848.126 227.504 850.29 227.751 852.497C229.655 869.069 235.028 885.053 243.52 899.406C250.183 910.577 257.039 917.541 259.779 918.919C260.468 919.258 261.227 919.429 261.995 919.417C264.68 919.417 268.306 917.599 275.598 913.861C288.297 907.315 309.552 896.388 331.751 896.388C337.581 896.365 343.384 897.168 348.988 898.774C349.554 898.938 350.154 898.947 350.724 898.798C351.295 898.65 351.814 898.349 352.228 897.93C352.642 897.51 352.935 896.986 353.076 896.413C353.217 895.84 353.2 895.24 353.028 894.675C352.367 892.519 336.845 841.774 331.755 831.057C328.725 824.686 329.008 822.505 329.128 822.054C329.247 822.025 329.369 822.007 329.492 821.999C329.959 821.957 330.413 821.815 330.821 821.583C331.229 821.35 331.583 821.032 331.857 820.65C332.507 819.752 332.496 818.923 332.485 818.105C332.485 817.741 332.485 817.181 332.445 816.497C332.405 815.09 332.336 813.163 332.249 810.926C332.126 807.788 331.853 801.366 331.439 793.65C330.516 776.465 329.601 765.923 328.718 762.323C328.633 762.002 328.582 761.673 328.565 761.341C328.561 761.295 328.561 761.249 328.565 761.203C328.562 761.158 328.562 761.113 328.565 761.068C328.801 760.788 329.858 760.29 330.567 759.955C333.219 758.704 337.209 756.821 339.57 751.283C340.123 753.158 340.577 755.062 340.933 756.985C340.933 757.028 340.951 757.072 340.962 757.119C340.989 757.264 341.025 757.408 341.071 757.548C341.25 758.092 341.569 758.58 341.996 758.962C342.422 759.344 342.942 759.607 343.502 759.726C344.062 759.844 344.644 759.813 345.188 759.635C345.733 759.458 346.221 759.141 346.605 758.715L382.644 718.835L388.173 712.705C388.594 712.238 388.872 711.66 388.973 711.039L405.083 612.454C405.129 612.175 405.139 611.891 405.112 611.61L397.355 531.766C397.276 530.965 396.905 530.22 396.312 529.675L337.198 475.246C336.595 474.69 335.805 474.382 334.985 474.381H334.989Z" fill="#17091D"/>
<path d="M380.209 716.642L344.239 756.54C344.239 756.54 340.134 737.453 337.59 747.635C337.449 748.206 336.686 723.322 336.686 723.322L341.805 706.595L347.578 685.293L350.202 669.657L355.35 645.173V625.297C355.35 625.297 357.069 605.639 361.77 601.453C366.472 597.268 371.987 607.664 370.49 631.559C368.993 655.453 358.529 681.773 364.677 696.068C367.987 703.74 374.701 711.297 380.209 716.642Z" fill="#9C398C"/>
<path d="M349.944 895.636C308.643 883.636 266.642 918.69 261.29 915.999C257.381 914.032 235.494 890.545 231.043 852.127C230.552 847.898 230.098 843.843 229.717 840.559C229.717 840.559 229.717 840.527 229.717 840.512C228.3 828.298 224.96 813.454 220.88 783.207C219.427 772.552 218.846 765.578 218.555 760.661C218.602 760.825 218.646 760.996 218.689 761.17C221.138 771.432 251.484 885.094 260.578 892.079C269.672 899.065 283.105 882.559 313.734 881.603C344.363 880.647 316.88 804.363 317.97 800.781C319.06 797.199 309.977 785.818 297.525 777.047C285.074 768.276 266.74 773.09 275.824 767.272C285.394 761.141 297.624 769.818 309.614 768.363C321.604 766.908 300.53 760.363 276.881 755.207C257.657 751.014 228.99 747.028 218.965 745.687L217.018 745.432L215.347 745.214L216.898 745.054L224.775 744.239L231.762 743.73L247.64 742.57L274.828 744.239L302.056 749.61L316.764 755.683L321.676 757.712L324.045 760.145L325.324 761.458C325.349 762.019 325.431 762.576 325.571 763.119C327.54 771.152 329.415 818.727 329.234 818.756C324.125 819.207 325.444 825.327 328.845 832.483C333.891 843.087 349.944 895.636 349.944 895.636Z" fill="#9C398C"/>
<path d="M296.848 502.222C297.241 501.493 298.151 501.221 298.88 501.613L298.168 502.934C298.88 501.613 298.881 501.614 298.882 501.614C298.883 501.615 298.885 501.616 298.886 501.616C298.889 501.618 298.893 501.621 298.898 501.623C298.908 501.629 298.923 501.637 298.941 501.647C298.978 501.667 299.031 501.696 299.099 501.735C299.236 501.811 299.435 501.925 299.692 502.075C300.206 502.377 300.951 502.828 301.892 503.432C303.773 504.64 306.437 506.462 309.593 508.934C315.903 513.876 324.192 521.426 332.13 531.866C348.026 552.773 362.476 585.23 356.882 631.412C351.339 677.182 347.415 695.413 344.689 705.276C341.96 715.148 340.559 716.284 339.895 728.186L340.724 747.021C340.76 747.848 340.119 748.548 339.292 748.585C338.464 748.622 337.764 747.98 337.727 747.152L336.895 728.243C336.893 728.194 336.892 728.144 336.895 728.095C337.581 715.7 339.14 714.091 341.797 704.477C344.464 694.831 348.367 676.773 353.905 631.052C359.393 585.744 345.23 554.052 329.743 533.682C321.99 523.484 313.895 516.113 307.744 511.295C304.669 508.887 302.083 507.119 300.272 505.956C299.367 505.375 298.655 504.946 298.174 504.663C297.934 504.522 297.75 504.418 297.629 504.35C297.569 504.316 297.524 504.29 297.495 504.275C297.48 504.267 297.47 504.261 297.463 504.258C297.46 504.256 297.459 504.255 297.458 504.254C296.728 503.861 296.455 502.951 296.848 502.222Z" fill="#17091D"/>
<path d="M251.808 712.595C274.374 712.719 305.011 716.287 337.271 730.074C338.033 730.399 338.386 731.281 338.061 732.042C337.736 732.804 336.854 733.158 336.092 732.832C304.289 719.241 274.068 715.718 251.792 715.595C240.656 715.534 231.513 716.323 225.163 717.125C221.988 717.527 219.512 717.931 217.835 718.234C216.996 718.385 216.357 718.511 215.93 718.599C215.717 718.643 215.557 718.678 215.452 718.701C215.399 718.712 215.36 718.72 215.335 718.726C215.322 718.729 215.312 718.731 215.306 718.732C215.304 718.733 215.301 718.734 215.3 718.734L215.149 718.76C214.394 718.854 213.677 718.363 213.503 717.606C213.319 716.799 213.823 715.994 214.63 715.809L214.906 717.011C214.631 715.809 214.631 715.809 214.632 715.809C214.633 715.809 214.634 715.808 214.635 715.808C214.638 715.808 214.641 715.807 214.645 715.806C214.653 715.804 214.666 715.802 214.681 715.798C214.712 715.791 214.756 715.782 214.814 715.769C214.931 715.744 215.102 715.707 215.327 715.661C215.776 715.568 216.438 715.438 217.301 715.282C219.027 714.97 221.556 714.557 224.787 714.149C231.248 713.333 240.523 712.533 251.808 712.595Z" fill="#17091D"/>
<path d="M254.982 740.783C277.406 740.695 305.409 744.523 327.034 760.427C327.701 760.918 327.845 761.858 327.354 762.525C326.863 763.192 325.924 763.335 325.256 762.844C304.4 747.505 277.176 743.696 254.994 743.783C243.927 743.826 234.174 744.839 227.189 745.84C223.698 746.341 220.901 746.839 218.981 747.21C218.021 747.396 217.279 747.55 216.781 747.658C216.532 747.711 216.344 747.754 216.218 747.782C216.156 747.796 216.108 747.807 216.078 747.814C216.063 747.817 216.052 747.82 216.044 747.822C216.041 747.823 216.038 747.822 216.037 747.823L216.035 747.824C215.228 748.013 214.422 747.513 214.232 746.707C214.043 745.9 214.543 745.092 215.349 744.903L215.692 746.363C215.367 744.98 215.35 744.907 215.35 744.903C215.351 744.903 215.353 744.902 215.354 744.902C215.357 744.901 215.36 744.9 215.365 744.899C215.374 744.897 215.388 744.894 215.405 744.89C215.44 744.882 215.491 744.87 215.558 744.855C215.693 744.825 215.891 744.781 216.15 744.725C216.668 744.614 217.429 744.455 218.411 744.265C220.374 743.885 223.219 743.38 226.763 742.872C233.85 741.855 243.745 740.827 254.982 740.783Z" fill="#17091D"/>
<path d="M293.99 495.178C286.702 504.447 276.75 519.24 270.929 536.92C260.927 567.272 249.3 626.909 237.31 664C232.406 679.163 226.141 693.851 218.591 707.883C224.688 679.218 247.484 570.181 256.738 535.465C262.108 515.37 278.988 502.709 293.99 495.178Z" fill="#D969BD"/>
<path d="M749.687 890.593C749.554 890.594 749.422 890.578 749.294 890.546C748.898 890.448 709.433 880.79 682.681 880.79C668.511 880.79 662.992 883.517 660.859 885.804C660.621 886.059 660.308 886.231 659.965 886.296C659.622 886.36 659.268 886.313 658.954 886.161C658.64 886.01 658.383 885.762 658.219 885.454C658.056 885.145 657.996 884.793 658.047 884.448C660.59 867.102 666.323 820.448 662.16 813.055L661.458 811.808C656.056 802.208 649.334 790.259 644.552 776.637C643.814 774.491 643.234 772.293 642.816 770.062C641.13 761.441 641.192 751.793 641.239 744.037C641.264 739.699 641.29 735.953 640.966 733.782C639.978 727.113 640.77 681.782 640.937 672.757V672.557L618.047 608.441C617.992 608.282 617.96 608.117 617.953 607.95C617.953 607.731 617.204 585.993 617.259 571.295C617.291 560.833 617.706 558.43 618.062 557.502C619.083 554.266 616.925 514.866 615.322 490.793C615.314 490.656 615.323 490.518 615.348 490.382L616.289 485.335C616.331 485.11 616.42 484.896 616.551 484.708C616.682 484.52 616.852 484.362 617.048 484.244C617.303 484.09 617.596 484.008 617.895 484.008C618.057 484.009 618.219 484.033 618.374 484.081L624.649 486.008C630.968 487.23 637.111 489.235 642.936 491.975C655.936 498.051 665.179 506.942 669.67 517.681C675.559 531.764 684.09 558.408 691.615 581.895C697.537 600.379 703.133 617.841 706.032 624.666C709.113 631.913 711.304 640.117 713.626 648.801C716.278 658.742 719.025 669.019 723.338 678.648C727.312 687.506 729.776 690.681 731.251 692.579C733.01 694.841 733.613 695.851 733.551 700.033C733.489 704.004 733.696 705.521 734.517 707.095C735.032 708.015 735.593 708.907 736.2 709.768C736.781 710.633 737.504 711.71 738.343 713.041C740.251 716.07 742.663 723.404 745.519 734.841C747.892 744.335 749.879 753.946 750.464 757.448C751.151 761.546 753.432 784.321 755.449 804.419C756.746 817.361 757.865 828.535 758.356 832.619C759.137 839.233 756.343 858.859 753.861 874.161C752.484 882.684 751.318 889.186 751.296 889.248C751.256 889.47 751.171 889.681 751.046 889.869C750.921 890.057 750.759 890.217 750.569 890.339C750.305 890.505 749.999 890.593 749.687 890.593Z" fill="#CE44A2"/>
<path d="M617.902 485.637L624.278 487.597C624.278 487.597 657.578 492.971 668.169 518.306C678.76 543.64 697.962 609.866 704.535 625.298C711.108 640.731 713.72 661.16 721.855 679.309C729.99 697.458 732.028 692.364 731.923 700C731.858 704.266 732.101 705.975 733.075 707.844C733.849 709.324 735.077 710.898 736.966 713.909C739.059 717.237 741.69 726.182 743.939 735.237C746.307 744.717 748.299 754.32 748.858 757.72C749.974 764.364 755.496 822.349 756.732 832.811C757.502 839.357 754.552 859.597 752.248 873.902C750.856 882.509 749.705 888.96 749.705 888.96C749.705 888.96 709.967 879.142 682.699 879.142C672.162 879.142 663.475 880.597 659.682 884.677C659.682 884.677 668.954 821.768 663.602 812.24C658.25 802.713 651.06 790.175 646.115 776.084C645.403 774.013 644.843 771.894 644.44 769.742C641.806 756.262 643.517 739.698 642.601 733.531C641.598 726.757 642.489 678.226 642.601 672.775C642.601 672.448 642.601 672.277 642.601 672.277L642.067 670.786L641.915 670.357L619.595 607.891C619.595 607.891 618.847 586.138 618.901 571.302C618.923 564.629 619.108 559.357 619.595 558.088C621.172 554 616.961 490.684 616.961 490.684L617.902 485.637ZM617.902 482.364C617.138 482.364 616.399 482.631 615.812 483.119C615.224 483.607 614.826 484.286 614.686 485.037L613.745 490.084C613.695 490.354 613.679 490.628 613.698 490.902C615.947 524.72 617.168 553.658 616.496 557.044C616.085 558.193 615.667 560.564 615.631 571.291C615.577 586.018 616.318 607.786 616.329 608.018C616.339 608.356 616.402 608.689 616.514 609.008L638.815 671.484L638.968 671.909L639.302 672.837C639.062 685.684 638.372 727.437 639.349 734.037C639.651 736.084 639.629 739.771 639.604 744.044C639.557 751.869 639.495 761.611 641.213 770.397C641.646 772.703 642.247 774.974 643.012 777.193C647.837 790.949 654.599 802.968 660.034 812.622L660.735 813.869C661.4 815.055 663.344 821.284 660.372 851.713C658.748 868.36 656.444 884.077 656.422 884.226C656.328 884.914 656.455 885.613 656.784 886.224C657.114 886.835 657.629 887.325 658.255 887.624C658.881 887.923 659.586 888.015 660.267 887.886C660.949 887.758 661.572 887.416 662.047 886.909C663.613 885.233 668.372 882.415 682.673 882.415C709.222 882.415 748.502 892.026 748.898 892.124C749.154 892.186 749.416 892.218 749.679 892.218C750.445 892.219 751.187 891.95 751.776 891.459C752.364 890.968 752.761 890.286 752.898 889.531C752.898 889.466 754.086 882.949 755.467 874.411C759.1 852.004 760.616 837.877 759.972 832.418C759.489 828.346 758.37 817.171 757.066 804.233C755.049 784.117 752.764 761.324 752.07 757.168C751.47 753.637 749.479 743.971 747.096 734.433C744.189 722.829 741.719 715.335 739.72 712.157C738.87 710.8 738.136 709.713 737.54 708.837C736.814 707.746 736.301 706.989 735.945 706.317C735.371 705.226 735.102 704.226 735.168 700.04C735.233 695.466 734.535 694.149 732.523 691.557C731.095 689.717 728.704 686.64 724.813 677.96C720.551 668.451 717.822 658.237 715.184 648.36C712.852 639.633 710.646 631.36 707.518 623.997C704.648 617.244 699.063 599.815 693.155 581.364C685.616 557.837 677.074 531.182 671.159 517.026C668.55 510.786 664.452 505.175 658.98 500.346C654.352 496.339 649.177 493.013 643.611 490.466C637.684 487.684 631.438 485.643 625.012 484.389L618.836 482.491C618.525 482.394 618.202 482.345 617.876 482.346L617.902 482.364Z" fill="#17091D"/>
<path d="M752.248 873.899C750.857 882.506 749.705 888.957 749.705 888.957C749.705 888.957 673.281 870.106 659.682 884.688C659.682 884.688 668.954 821.779 663.602 812.252C658.25 802.724 651.06 790.186 646.115 776.095C641.17 762.004 643.666 740.724 642.601 733.55C641.537 726.375 642.601 672.295 642.601 672.295L642.067 670.804L643.386 668.753L647.02 645.742L649.367 617.092L651.728 599.957L653.291 601.862C653.291 601.862 659.798 622.041 660.834 641.113C661.869 660.186 663.606 694.859 666.552 706.615C669.499 718.372 677.089 732.586 671.483 741.113C665.877 749.641 676.758 731.615 701.64 729.539C726.521 727.462 744.916 727.128 733.362 731.113C721.808 735.099 724.391 727.641 708.565 733.553C692.738 739.466 671.795 745.372 670.458 755.692C669.121 766.012 673.895 786.873 678.23 801.532C682.565 816.19 669.913 845.07 676.239 854.622C682.565 864.175 702.668 874.913 733.671 872.441C739.901 871.914 746.176 872.406 752.248 873.899Z" fill="#9C398C"/>
<path d="M646.997 638.863C646.997 640.077 644.178 656.888 641.911 670.368L619.595 607.892C619.595 607.892 618.846 586.139 618.901 571.303C621.855 576.823 625.619 584.103 629.387 592.074C637.522 609.274 647.03 636.815 646.997 638.863Z" fill="#9C398C"/>
<path d="M652.418 542.909C652.633 553.858 652.651 564.781 652.567 575.719C652.535 578.45 652.527 581.174 652.477 583.919L652.331 592.123C652.186 597.578 652.066 603.058 651.837 608.527C651.739 611.261 651.644 613.999 651.495 616.734L651.081 624.938L650.551 633.141L650.416 635.196L650.249 637.247L649.908 641.349L649.563 645.45C649.439 646.818 649.279 648.185 649.137 649.552L648.698 653.654L648.48 655.709C648.404 656.392 648.295 657.072 648.207 657.756C647.822 660.49 647.481 663.21 647.059 665.959L645.606 674.163C645.455 675.009 644.974 675.761 644.269 676.252C643.564 676.744 642.693 676.935 641.847 676.783C641.002 676.632 640.251 676.15 639.76 675.445C639.269 674.739 639.078 673.868 639.229 673.021V672.956L639.266 672.781L640.875 664.901C641.344 662.25 641.751 659.578 642.194 656.901C642.296 656.232 642.419 655.57 642.51 654.901L642.775 652.887L643.306 648.858C643.477 647.516 643.669 646.174 643.826 644.829L644.262 640.781L644.701 636.734L644.916 634.709L645.097 632.679L645.824 624.556L646.434 616.418C646.649 613.705 646.798 610.989 646.976 608.272C647.339 602.839 647.59 597.396 647.866 591.956L648.229 583.789C648.345 581.069 648.422 578.334 648.52 575.621C648.883 564.712 649.116 553.803 649.17 542.93C649.167 542.496 649.336 542.079 649.64 541.77C649.944 541.46 650.359 541.285 650.792 541.281C651.226 541.278 651.643 541.447 651.952 541.752C652.261 542.056 652.437 542.471 652.44 542.905L652.418 542.909Z" fill="#17091D"/>
<path d="M724.186 706.135C727.163 706.114 729.559 706.177 731.214 706.245C732.041 706.279 732.684 706.315 733.122 706.342C733.341 706.355 733.509 706.367 733.623 706.375C733.68 706.379 733.724 706.382 733.754 706.385C733.769 706.386 733.78 706.386 733.788 706.387C733.792 706.387 733.796 706.387 733.798 706.388C733.799 706.388 733.8 706.388 733.801 706.388C733.802 706.388 733.8 706.419 733.682 707.883L733.802 706.388C734.628 706.454 735.243 707.178 735.177 708.004C735.11 708.829 734.387 709.444 733.562 709.378H733.554C733.548 709.377 733.539 709.377 733.526 709.376C733.501 709.374 733.462 709.371 733.409 709.367C733.304 709.36 733.146 709.349 732.937 709.336C732.518 709.31 731.896 709.275 731.091 709.242C729.479 709.176 727.131 709.115 724.206 709.135C718.354 709.174 710.201 709.54 701.005 710.844C682.572 713.457 660.143 719.81 643.584 734.658C642.967 735.211 642.019 735.16 641.466 734.543C640.913 733.926 640.965 732.978 641.582 732.425C658.787 716.997 681.908 710.52 700.583 707.873C709.941 706.547 718.232 706.175 724.186 706.135Z" fill="#17091D"/>
<path d="M744.675 733.665C744.676 733.666 744.68 733.706 744.796 735.16L744.915 736.655H744.914C744.911 736.655 744.907 736.656 744.903 736.656C744.893 736.657 744.878 736.658 744.858 736.66C744.818 736.663 744.757 736.669 744.676 736.676C744.515 736.69 744.275 736.71 743.96 736.739C743.331 736.797 742.402 736.885 741.214 737.009C738.838 737.256 735.421 737.645 731.271 738.206C722.967 739.329 711.737 741.143 700.02 743.91C688.293 746.679 676.131 750.391 665.937 755.288C655.7 760.206 647.678 766.213 643.914 773.448C643.532 774.183 642.626 774.469 641.891 774.087C641.156 773.705 640.87 772.799 641.252 772.064C645.469 763.957 654.214 757.592 664.638 752.584C675.106 747.555 687.5 743.785 699.331 740.991C711.171 738.195 722.503 736.364 730.87 735.232C735.054 734.667 738.501 734.276 740.904 734.025C742.105 733.9 743.045 733.811 743.687 733.752C744.008 733.723 744.254 733.701 744.42 733.687C744.503 733.679 744.567 733.673 744.61 733.67C744.631 733.668 744.648 733.667 744.659 733.666C744.664 733.666 744.668 733.665 744.671 733.665C744.673 733.665 744.674 733.665 744.675 733.665ZM744.676 733.665C745.502 733.599 746.225 734.214 746.291 735.04C746.358 735.866 745.742 736.589 744.916 736.655L744.676 733.665Z" fill="#17091D"/>
<path d="M479.835 632.363C479.759 632.369 479.682 632.369 479.606 632.363L410.173 622.469C409.805 622.417 409.465 622.24 409.211 621.968C408.956 621.697 408.802 621.346 408.774 620.974C406.91 596.996 403.837 560.567 402.888 556.905C402.292 556.011 402.525 554.632 403.219 552.447C403.688 550.923 404.425 548.88 405.399 546.378C407.059 542.152 408.88 537.989 408.898 537.949L408.927 537.887L421.317 512.567C421.45 512.294 421.657 512.064 421.913 511.902C422.17 511.741 422.467 511.653 422.77 511.651C422.901 511.65 423.032 511.666 423.159 511.698L467.914 522.676L518.701 526.545L563.086 504.265L578.07 484.662C578.209 484.479 578.384 484.328 578.585 484.218C578.786 484.108 579.008 484.041 579.236 484.022L594.859 482.76H594.994C595.357 482.76 595.709 482.882 595.996 483.105C596.283 483.328 596.488 483.64 596.578 483.992L612.564 546.712C612.591 546.817 612.607 546.924 612.612 547.032L616.608 623.967C616.62 624.182 616.588 624.397 616.516 624.6C616.444 624.803 616.333 624.989 616.189 625.149C616.045 625.309 615.871 625.439 615.677 625.531C615.482 625.623 615.272 625.676 615.057 625.687L479.915 632.363H479.835Z" fill="#CE44A2"/>
<path d="M594.993 484.362L610.98 547.082L614.977 624.02L479.817 630.718L410.402 620.831C410.402 620.831 405.442 557.002 404.305 556.046C403.168 555.089 410.402 538.591 410.402 538.591L422.792 513.271L467.663 524.282L519.017 528.191L564.139 505.537L579.356 485.635L594.979 484.369M594.979 481.097C594.892 481.097 594.801 481.097 594.714 481.097L579.09 482.362C578.634 482.399 578.191 482.531 577.789 482.751C577.387 482.97 577.036 483.271 576.758 483.635L562.003 502.94L518.374 524.86L468.194 521.042L423.569 510.093C423.315 510.029 423.054 509.998 422.792 509.998C422.182 509.997 421.583 510.167 421.065 510.488C420.546 510.809 420.127 511.27 419.856 511.817L407.466 537.137L407.408 537.26C407.335 537.431 405.555 541.493 403.887 545.747C402.888 548.293 402.14 550.369 401.657 551.929C401.137 553.609 400.465 555.795 401.348 557.478C402.336 562.206 405.399 598.646 407.143 621.068C407.2 621.81 407.509 622.512 408.018 623.055C408.528 623.599 409.207 623.952 409.944 624.057L479.374 633.947C479.526 633.969 479.681 633.98 479.835 633.98H480.017L615.177 627.282C615.606 627.261 616.027 627.155 616.416 626.97C616.805 626.785 617.153 626.526 617.441 626.206C617.73 625.887 617.952 625.514 618.096 625.108C618.24 624.702 618.302 624.272 618.28 623.842L614.283 546.904C614.272 546.688 614.239 546.473 614.185 546.264L598.198 483.544C598.018 482.84 597.609 482.215 597.035 481.77C596.462 481.324 595.756 481.082 595.03 481.082L594.979 481.097Z" fill="#17091D"/>
<path d="M511.384 855.068C480.587 855.068 450.809 852.483 422.875 847.388C399.451 843.116 377.292 837.039 357.01 829.33C356.22 829.025 355.529 828.507 355.016 827.832C354.502 827.157 354.187 826.352 354.104 825.508C353.377 817.926 351.124 792.625 352.018 785.454C352.4 782.417 349.638 777.817 346.964 773.388C343.051 766.879 339 760.152 342.968 755.479C345.166 752.894 352.051 745.21 364.019 731.988C377.196 717.431 385.89 699.374 389.056 679.988L397.657 627.305C399.734 614.565 400.185 601.613 398.997 588.759L398.358 581.85C395.434 550.022 380.816 520.411 357.334 498.748L335.715 478.788C335.233 478.342 334.853 477.797 334.602 477.189C334.351 476.582 334.234 475.928 334.26 475.271C334.286 474.614 334.454 473.971 334.752 473.385C335.05 472.8 335.472 472.286 335.988 471.879L352.945 458.516C353.746 457.885 354.735 457.542 355.753 457.541C356.429 457.542 357.097 457.692 357.708 457.981C362.431 460.228 374.843 466.686 387.995 478.039C404.778 492.526 416.397 509.348 422.512 528.039C431.901 556.592 434.964 576.948 435.908 588.996C436.14 592.09 437.519 594.985 439.774 597.114C442.029 599.243 444.998 600.451 448.098 600.501C470.988 600.959 513.774 601.73 543.251 601.73C558.511 601.73 568.107 601.519 571.762 601.108C588.352 599.236 590.499 598.603 591.142 591.916C593.686 565.425 595.521 534.686 593.123 527.872C590.267 519.766 585.638 482.457 584.286 471.217C584.21 470.594 584.264 469.961 584.444 469.359C584.625 468.757 584.928 468.199 585.335 467.721C585.742 467.242 586.244 466.853 586.809 466.579C587.374 466.305 587.99 466.15 588.617 466.126C588.861 466.126 589.115 466.126 589.38 466.126C594.467 466.126 605.16 468.072 619.977 481.086C620.856 481.861 621.855 482.741 621.644 508.432C621.532 522.301 621.092 538.676 620.798 549.523C620.66 554.701 620.551 558.796 620.532 560.534C620.507 563.243 620.351 567.443 620.169 572.323C619.773 582.905 619.235 597.396 619.991 600.912C620.306 602.635 620.466 604.382 620.471 606.134C620.616 610.519 620.801 615.974 625.169 624.574C631.207 636.454 641.33 668.905 642.463 672.574C642.598 673.01 642.667 673.463 642.667 673.919V731.007C642.667 731.108 642.667 731.21 642.667 731.308L640.89 757.952C640.874 758.189 640.84 758.425 640.788 758.657C637.882 771.425 635.099 786.839 635.883 790.519C636.494 793.374 638.005 803.054 637.7 813.428C637.337 826.639 634.187 835.396 628.38 839.446C620.78 844.726 572.594 855.068 511.384 855.068Z" fill="#7E4282"/>
<path d="M355.757 459.174C356.189 459.173 356.616 459.269 357.007 459.454C365.748 463.636 406.729 485.116 420.975 528.545C430.313 556.999 433.357 577.221 434.277 589.123C434.549 592.619 436.112 595.888 438.661 598.293C441.21 600.699 444.562 602.069 448.065 602.137C469.952 602.577 513.618 603.366 543.258 603.366C557.094 603.366 567.871 603.196 571.962 602.734C588.123 600.916 591.992 600.323 592.784 592.072C593.576 583.821 597.962 536.654 594.677 527.326C591.862 519.326 587.2 481.625 585.925 471.021C585.877 470.622 585.913 470.218 586.029 469.834C586.145 469.45 586.34 469.094 586.6 468.788C586.86 468.483 587.181 468.235 587.542 468.06C587.903 467.884 588.296 467.786 588.697 467.77C588.919 467.77 589.151 467.77 589.398 467.77C594.525 467.77 604.68 469.817 618.912 482.316C621.433 484.534 618.999 551.559 618.912 560.497C618.825 569.436 617.266 595.926 618.407 601.225C619.548 606.523 617.364 612.759 623.726 625.283C629.681 637.003 639.665 668.977 640.915 673.017C641.002 673.296 641.046 673.587 641.046 673.879V731.006C641.046 731.072 641.046 731.137 641.046 731.203L639.269 757.843C639.258 757.995 639.237 758.145 639.204 758.294C638.615 760.872 633.107 785.308 634.295 790.861C635.545 796.726 640.109 829.279 627.468 838.094C620.361 843.054 572.747 853.432 511.405 853.432C483.952 853.432 453.748 851.352 423.191 845.796C401.217 841.796 379.057 835.977 357.613 827.821C357.106 827.628 356.662 827.296 356.334 826.863C356.005 826.431 355.804 825.915 355.753 825.374C355.092 818.337 352.785 792.73 353.664 785.676C354.667 777.454 338.498 763.272 344.221 756.541C346.895 753.396 356.149 743.13 365.24 733.086C378.624 718.297 387.456 699.954 390.673 680.261L399.273 627.577C401.376 614.699 401.832 601.604 400.628 588.61L399.989 581.701C397.009 549.474 382.208 519.493 358.442 497.545L336.827 477.585C336.518 477.299 336.275 476.95 336.114 476.562C335.952 476.173 335.877 475.755 335.894 475.334C335.91 474.914 336.017 474.502 336.208 474.127C336.398 473.752 336.668 473.423 336.998 473.163L353.94 459.796C354.453 459.392 355.086 459.173 355.738 459.174M355.738 455.901C354.353 455.901 353.008 456.367 351.92 457.225L334.974 470.588C334.272 471.142 333.698 471.841 333.292 472.639C332.886 473.436 332.658 474.312 332.623 475.206C332.589 476.1 332.749 476.991 333.092 477.818C333.435 478.644 333.953 479.386 334.611 479.992L356.229 499.948C379.415 521.336 393.85 550.57 396.741 581.996L397.38 588.905C398.557 601.622 398.111 614.438 396.054 627.043L387.45 679.734C384.334 698.81 375.78 716.58 362.816 730.908C350.67 744.326 343.97 751.803 341.743 754.439C339.516 757.076 339.141 760.541 340.653 764.781C341.743 767.861 343.698 771.108 345.587 774.236C347.996 778.236 350.728 782.781 350.419 785.254C349.529 792.388 351.578 815.894 352.498 825.665C352.61 826.813 353.04 827.907 353.738 828.825C354.436 829.744 355.375 830.45 356.451 830.865C376.826 838.61 399.084 844.712 422.606 848.999C450.634 854.116 480.511 856.708 511.409 856.708C545.831 856.708 573.299 853.526 590.281 850.857C609.879 847.781 624.845 843.919 629.339 840.781C635.592 836.417 638.964 827.228 639.357 813.468C639.654 802.923 638.114 793.105 637.493 790.196C636.799 786.948 639.498 771.719 642.394 759.039C642.464 758.723 642.51 758.402 642.532 758.079L644.309 731.439C644.309 731.297 644.309 731.163 644.309 731.025V673.894C644.307 673.277 644.214 672.665 644.033 672.076C642.172 666.083 632.602 635.577 626.633 623.828C622.429 615.552 622.273 610.297 622.109 606.076C622.105 604.226 621.934 602.381 621.597 600.563C620.87 597.25 621.441 582.283 621.807 572.381C621.989 567.497 622.149 563.29 622.171 560.548C622.171 558.821 622.298 554.73 622.436 549.556C622.73 538.716 623.163 522.33 623.283 508.465C623.348 500.806 623.283 494.73 623.148 490.414C622.879 482.777 622.367 481.028 621.059 479.868C614.519 474.108 608.088 469.894 601.991 467.341C597.486 465.457 593.246 464.501 589.387 464.501C589.108 464.501 588.828 464.501 588.559 464.501C587.707 464.534 586.871 464.743 586.104 465.116C585.337 465.488 584.655 466.015 584.101 466.664C583.548 467.313 583.134 468.07 582.887 468.887C582.64 469.704 582.565 470.563 582.666 471.41C584.406 485.868 588.751 520.374 591.582 528.41C593.486 533.821 592.672 558.686 589.518 591.756C589.013 597.028 588.483 597.574 571.584 599.479C567.987 599.883 558.457 600.09 543.244 600.09C513.814 600.09 471.006 599.319 448.12 598.861C445.426 598.817 442.846 597.767 440.886 595.918C438.926 594.069 437.727 591.553 437.525 588.865C436.587 576.73 433.492 556.232 424.081 527.519C420.579 516.96 415.435 507.02 408.84 498.065C403.075 490.243 396.44 483.102 389.063 476.781C375.758 465.297 363.194 458.759 358.409 456.483C357.579 456.089 356.672 455.884 355.753 455.883L355.738 455.901Z" fill="#17091D"/>
<path d="M469.182 808.657H469.327C469.451 808.666 469.565 808.724 469.646 808.817C469.727 808.911 469.767 809.033 469.758 809.157C469.749 809.28 469.691 809.395 469.597 809.476C469.503 809.556 469.382 809.597 469.258 809.587C443.552 808.769 419.412 808.035 410.398 807.864C387.908 807.438 371.714 813.082 379.446 819.169C384.834 823.413 407.542 836.726 420.811 844.402C420.906 844.458 420.977 844.545 421.014 844.649C421.05 844.752 421.05 844.865 421.012 844.968C420.974 845.071 420.901 845.157 420.806 845.212C420.711 845.267 420.6 845.286 420.492 845.267C398.91 841.187 377.186 835.347 356.182 827.246C356.101 827.214 356.03 827.16 355.978 827.091C355.925 827.022 355.893 826.939 355.884 826.853C355.568 823.58 352.679 793.398 353.649 785.642C354.666 777.453 338.498 763.271 344.221 756.54C346.895 753.395 356.149 743.129 365.239 733.086C369.528 728.35 373.368 723.226 376.71 717.78C376.771 717.682 376.865 717.61 376.975 717.577L379.413 716.871C379.492 716.849 379.576 716.848 379.656 716.868C379.736 716.888 379.809 716.929 379.867 716.987C379.926 717.044 379.969 717.116 379.991 717.196C380.014 717.275 380.015 717.359 379.994 717.438C378.396 723.457 368.767 761.857 380.209 773.075C392.635 785.271 424.739 803.682 469.182 808.657Z" fill="#5C2C66"/>
<path d="M404.625 603.427C404.625 603.427 402.609 633.937 419.057 635.238C435.505 636.54 434.509 599.635 434.509 599.635L404.625 603.427Z" fill="#D969BD"/>
<path d="M436.009 599.596L434.509 599.636C436.008 599.595 436.009 599.595 436.009 599.596V599.604C436.009 599.61 436.009 599.617 436.01 599.627C436.01 599.646 436.011 599.675 436.012 599.712C436.013 599.785 436.015 599.893 436.017 600.031C436.02 600.309 436.022 600.714 436.019 601.227C436.014 602.251 435.989 603.709 435.906 605.453C435.741 608.935 435.345 613.588 434.422 618.219C433.504 622.821 432.038 627.544 429.652 631.066C427.228 634.645 423.743 637.115 418.938 636.734C414.289 636.366 410.957 633.908 408.633 630.578C406.34 627.293 404.997 623.128 404.202 619.139C403.404 615.13 403.136 611.183 403.067 608.251C403.033 606.782 403.048 605.559 403.071 604.701C403.083 604.272 403.097 603.933 403.108 603.699C403.114 603.583 403.118 603.492 403.122 603.43C403.124 603.399 403.126 603.375 403.127 603.358C403.127 603.35 403.128 603.343 403.128 603.338V603.331C403.128 603.33 403.128 603.33 404.625 603.429L403.128 603.329L403.21 602.096L435.964 597.939L436.009 599.596ZM406.07 604.757C406.07 604.766 406.07 604.774 406.07 604.783C406.048 605.598 406.033 606.77 406.066 608.181C406.133 611.01 406.39 614.771 407.143 618.553C407.901 622.353 409.137 626.06 411.093 628.861C413.017 631.618 415.6 633.461 419.175 633.744C422.595 634.015 425.153 632.358 427.168 629.384C429.221 626.353 430.59 622.094 431.479 617.633C432.363 613.2 432.747 608.708 432.909 605.311C432.986 603.686 433.011 602.318 433.018 601.337L406.07 604.757Z" fill="#17091D"/>
<path d="M401.475 576.384C409.13 574.246 423.533 571.144 432.845 574.802C434.108 575.299 435.237 576.086 436.14 577.1C437.043 578.114 437.695 579.326 438.044 580.639C439.738 586.966 442.793 600.275 439.342 602.733C434.782 606.006 404.138 609.791 398.568 604.439C394.815 600.831 395.077 590.071 395.662 583.442C395.798 581.814 396.428 580.265 397.466 579.004C398.505 577.743 399.904 576.829 401.475 576.384Z" fill="#D969BD"/>
<path d="M416.386 571.928C422.187 571.334 428.403 571.446 433.394 573.406H433.395C434.877 573.989 436.2 574.913 437.26 576.102C438.319 577.291 439.084 578.712 439.493 580.251L439.828 581.525C440.638 584.675 441.624 588.99 442.111 592.954C442.389 595.211 442.514 597.431 442.325 599.286C442.147 601.033 441.647 602.933 440.212 603.955L440.211 603.954C439.437 604.508 438.268 604.982 436.961 605.395C435.61 605.822 433.962 606.231 432.129 606.603C428.461 607.348 423.966 607.969 419.448 608.316C414.936 608.663 410.35 608.741 406.509 608.384C404.589 608.205 402.816 607.915 401.313 607.476C399.837 607.046 398.48 606.433 397.529 605.52C396.331 604.368 395.544 602.745 395.014 601.006C394.478 599.249 394.164 597.244 393.993 595.198C393.652 591.105 393.871 586.661 394.167 583.31H394.168C394.331 581.38 395.077 579.546 396.309 578.051C397.541 576.554 399.201 575.468 401.067 574.94L401.071 574.939C404.944 573.858 410.548 572.525 416.386 571.928ZM432.296 576.197C427.974 574.5 422.333 574.335 416.692 574.912C411.087 575.485 405.662 576.772 401.879 577.829L401.878 577.828C400.603 578.19 399.468 578.934 398.624 579.958C397.78 580.983 397.267 582.242 397.156 583.567V583.574C396.867 586.852 396.663 591.103 396.984 594.949C397.144 596.872 397.431 598.649 397.883 600.131C398.341 601.631 398.93 602.706 399.608 603.357C400.05 603.782 400.869 604.222 402.153 604.596C403.409 604.963 404.979 605.229 406.786 605.397C410.4 605.733 414.804 605.664 419.219 605.325C423.628 604.986 427.998 604.381 431.531 603.663C433.299 603.304 434.838 602.92 436.057 602.535C437.317 602.136 438.101 601.777 438.467 601.514L438.472 601.511C438.763 601.304 439.174 600.618 439.341 598.981C439.497 597.452 439.4 595.488 439.134 593.32C438.603 588.999 437.437 584.17 436.596 581.026L436.595 581.024C436.306 579.939 435.766 578.936 435.02 578.097C434.273 577.259 433.34 576.609 432.296 576.198V576.197Z" fill="#17091D"/>
<path d="M412.488 585.472C415.518 584.625 421.669 583.33 424.536 585.778C424.536 585.778 426.839 593.28 425.295 594.381C423.751 595.483 413.389 596.77 411.488 594.96C410.22 593.741 410.308 590.101 410.5 587.858C410.548 587.304 410.764 586.779 411.119 586.352C411.474 585.926 411.952 585.618 412.488 585.472Z" fill="#9C398C"/>
<path d="M596.538 595.865C596.538 595.865 590.797 620.916 601.443 623.822C612.088 626.727 619.301 598.036 619.301 598.036L596.538 595.865Z" fill="#D969BD"/>
<path d="M621.18 596.708L620.756 598.4L619.301 598.035L620.755 598.401V598.403C620.754 598.405 620.754 598.406 620.754 598.408C620.753 598.412 620.751 598.418 620.749 598.426C620.745 598.441 620.74 598.464 620.732 598.492C620.718 598.549 620.695 598.633 620.667 598.74C620.61 598.956 620.525 599.27 620.414 599.667C620.192 600.46 619.864 601.587 619.436 602.928C618.583 605.606 617.328 609.164 615.726 612.645C614.136 616.101 612.154 619.592 609.81 622.052C607.474 624.504 604.488 626.207 601.048 625.268C597.731 624.362 595.818 621.737 594.768 618.72C593.725 615.72 593.445 612.113 593.498 608.729C593.552 605.324 593.947 602.028 594.325 599.594C594.515 598.374 594.7 597.364 594.84 596.656C594.909 596.302 594.968 596.024 595.009 595.832C595.029 595.736 595.046 595.662 595.057 595.611C595.063 595.586 595.067 595.566 595.07 595.553C595.072 595.546 595.073 595.54 595.074 595.536C595.074 595.534 595.075 595.532 595.075 595.531C595.075 595.531 595.076 595.529 596.538 595.864L595.076 595.529L595.37 594.246L621.18 596.708ZM597.736 597.484C597.61 598.139 597.45 599.017 597.289 600.054C596.923 602.407 596.549 605.556 596.498 608.776C596.447 612.019 596.727 615.22 597.601 617.734C598.47 620.231 599.832 621.827 601.838 622.374C603.72 622.888 605.627 622.093 607.638 619.982C609.64 617.88 611.458 614.744 613.001 611.391C614.533 608.061 615.746 604.628 616.578 602.018C616.909 600.977 617.176 600.07 617.38 599.358L597.736 597.484Z" fill="#17091D"/>
<path d="M597.569 573.2C603.935 572.793 615.489 572.731 622.639 576.742C623.89 577.453 624.939 578.471 625.689 579.699C626.439 580.927 626.865 582.326 626.927 583.764C627.199 589.48 627.257 600.065 624.129 601.436C619.813 603.331 593.972 601.127 590.313 595.76C587.85 592.145 589.95 583.342 591.549 577.989C591.947 576.673 592.736 575.51 593.812 574.654C594.888 573.798 596.198 573.291 597.569 573.2Z" fill="#D969BD"/>
<path d="M597.474 571.703C600.701 571.496 605.267 571.376 609.952 571.821C614.609 572.264 619.529 573.277 623.373 575.433L623.381 575.438C624.852 576.275 626.087 577.472 626.969 578.917C627.85 580.36 628.351 582.003 628.425 583.692L628.474 584.829C628.577 587.605 628.605 591.188 628.296 594.374C628.12 596.187 627.829 597.947 627.346 599.38C626.892 600.723 626.134 602.196 624.731 602.81V602.809C623.962 603.147 622.886 603.336 621.733 603.449C620.538 603.566 619.104 603.616 617.527 603.603C614.372 603.579 610.561 603.308 606.778 602.808C603.002 602.309 599.204 601.576 596.09 600.61C594.534 600.128 593.11 599.576 591.932 598.945C590.778 598.328 589.73 597.566 589.074 596.604C588.254 595.401 587.884 593.884 587.748 592.343C587.611 590.782 587.704 589.061 587.92 587.34C588.352 583.897 589.303 580.265 590.111 577.559L590.113 577.554C590.6 575.947 591.564 574.526 592.878 573.48C594.192 572.435 595.794 571.814 597.47 571.703H597.474ZM609.668 574.807C605.197 574.383 600.803 574.496 597.665 574.697L597.664 574.696C596.599 574.768 595.582 575.163 594.746 575.828C593.911 576.492 593.296 577.395 592.985 578.417L592.986 578.418C592.196 581.064 591.298 584.512 590.897 587.713C590.696 589.313 590.624 590.806 590.736 592.08C590.85 593.373 591.141 594.311 591.553 594.915C591.812 595.295 592.371 595.777 593.348 596.3C594.3 596.809 595.529 597.296 596.978 597.745C599.873 598.643 603.491 599.348 607.171 599.834C610.845 600.319 614.533 600.58 617.551 600.603C619.061 600.615 620.383 600.567 621.44 600.464C622.541 600.356 623.217 600.198 623.526 600.062H623.527C623.69 599.991 624.096 599.626 624.503 598.421C624.88 597.304 625.144 595.804 625.311 594.085C625.642 590.661 625.564 586.671 625.429 583.835L625.428 583.828C625.377 582.643 625.026 581.492 624.408 580.48C623.791 579.469 622.927 578.631 621.897 578.046V578.045C618.592 576.193 614.163 575.234 609.668 574.807Z" fill="#17091D"/>
<path d="M605.032 582.58C607.67 582.409 612.953 582.417 614.886 584.926C614.886 584.926 615.478 591.489 614.018 592.129C612.557 592.769 603.815 592.024 602.58 590.209C601.748 588.987 602.453 586.013 602.998 584.202C603.132 583.757 603.398 583.363 603.762 583.073C604.126 582.783 604.569 582.611 605.032 582.58Z" fill="#9C398C"/>
<path d="M494.55 790.387C481.252 790.371 468.463 785.272 458.798 776.131C449.132 766.99 443.322 754.499 442.553 741.213L438.557 671.667C438.438 669.563 438.75 667.456 439.473 665.476C440.196 663.496 441.316 661.685 442.763 660.153C444.209 658.621 445.954 657.401 447.888 656.567C449.823 655.733 451.907 655.303 454.013 655.304H454.173C457.029 655.333 460.063 655.351 463.198 655.351C505.512 655.351 562.65 652.689 585.253 651.544C585.467 651.544 585.678 651.525 585.888 651.525C589.154 651.541 592.284 652.834 594.609 655.129C596.935 657.424 598.271 660.538 598.333 663.805L599.503 741.198C599.688 753.469 595.043 765.32 586.571 774.192C578.099 783.064 566.48 788.245 554.224 788.616L496.149 790.369C495.64 790.38 495.091 790.387 494.55 790.387Z" fill="#CE44A2"/>
<path d="M585.899 653.156C588.739 653.16 591.464 654.28 593.486 656.276C595.508 658.272 596.666 660.983 596.708 663.826L597.878 741.218C598.058 753.06 593.576 764.497 585.401 773.058C577.225 781.62 566.012 786.619 554.184 786.975L496.112 788.727C495.593 788.727 495.077 788.749 494.561 788.749C481.678 788.737 469.287 783.798 459.923 774.943C450.558 766.087 444.93 753.985 444.188 741.113L440.192 671.571C440.084 669.689 440.361 667.805 441.006 666.034C441.651 664.264 442.65 662.643 443.943 661.272C445.235 659.901 446.794 658.809 448.523 658.062C450.252 657.315 452.115 656.929 453.998 656.927H454.144C457.067 656.959 460.079 656.975 463.18 656.975C505.276 656.975 561.643 654.364 585.318 653.164C585.507 653.164 585.681 653.164 585.874 653.164M585.874 649.891C585.634 649.891 585.394 649.891 585.147 649.909C562.555 651.055 505.45 653.716 463.173 653.716C460.044 653.716 456.996 653.716 454.169 653.673H453.991C451.663 653.674 449.359 654.151 447.221 655.074C445.082 655.997 443.155 657.347 441.557 659.042C439.958 660.737 438.722 662.74 437.924 664.929C437.125 667.118 436.782 669.448 436.914 671.775L440.911 741.32C441.704 755.024 447.7 767.907 457.671 777.332C467.642 786.758 480.835 792.014 494.55 792.025C495.095 792.025 495.64 792.025 496.2 792L554.271 790.244C566.96 789.863 578.99 784.5 587.761 775.314C596.531 766.128 601.338 753.857 601.141 741.153L599.971 663.76C599.915 660.059 598.407 656.528 595.773 653.929C593.139 651.331 589.591 649.873 585.892 649.869L585.874 649.891Z" fill="#17091D"/>
<path d="M446.599 683.008C447.046 682.311 447.974 682.109 448.671 682.556C448.673 682.557 448.675 682.558 448.677 682.559C448.687 682.565 448.705 682.576 448.731 682.592C448.783 682.623 448.868 682.673 448.987 682.74C449.224 682.874 449.599 683.075 450.119 683.33C451.158 683.839 452.783 684.561 455.073 685.382C459.651 687.022 466.89 689.056 477.427 690.558C498.505 693.564 532.774 694.444 585.322 685.814C586.139 685.68 586.911 686.234 587.045 687.051C587.18 687.869 586.625 688.64 585.808 688.774C533.029 697.442 498.447 696.585 477.004 693.528C466.282 691.999 458.844 689.92 454.06 688.206C451.669 687.349 449.941 686.583 448.799 686.024C448.228 685.745 447.803 685.516 447.515 685.354C447.371 685.273 447.262 685.209 447.185 685.163C447.147 685.14 447.116 685.121 447.094 685.107C447.083 685.1 447.074 685.095 447.067 685.091C447.063 685.088 447.06 685.086 447.058 685.085C447.057 685.084 447.055 685.083 447.054 685.083C447.053 685.082 447.052 685.081 447.862 683.818L447.051 685.081C446.354 684.633 446.152 683.705 446.599 683.008Z" fill="#17091D"/>
<path d="M580.456 762.81C581.012 762.196 581.961 762.149 582.575 762.704C583.189 763.26 583.236 764.209 582.68 764.823C576.505 771.648 572.538 775.948 564.387 778.45C556.426 780.894 544.485 781.622 522.395 781.927C500.16 782.234 486.445 780.345 478.245 778.347C474.142 777.347 471.411 776.318 469.678 775.518C468.812 775.117 468.195 774.774 467.781 774.52C467.574 774.393 467.417 774.288 467.306 774.209C467.251 774.17 467.207 774.138 467.174 774.112C467.157 774.1 467.142 774.088 467.131 774.079C467.125 774.075 467.12 774.07 467.115 774.067C467.113 774.065 467.11 774.063 467.108 774.062C467.107 774.061 467.106 774.06 467.105 774.06C467.104 774.059 467.103 774.057 468.049 772.893L467.103 774.057C466.46 773.535 466.362 772.59 466.884 771.947C467.406 771.305 468.348 771.207 468.991 771.727H468.992L468.99 771.725C468.999 771.731 469.014 771.743 469.037 771.759C469.094 771.8 469.198 771.869 469.351 771.963C469.659 772.152 470.171 772.44 470.936 772.794C472.468 773.502 475.013 774.471 478.955 775.432C486.843 777.354 500.291 779.232 522.353 778.928C544.56 778.622 556.037 777.875 563.508 775.582C570.789 773.347 574.27 769.646 580.456 762.81ZM468.986 771.722C468.987 771.723 468.989 771.724 468.99 771.725C468.988 771.723 468.986 771.722 468.984 771.721L468.986 771.722Z" fill="#17091D"/>
<path d="M377.691 420.448C377.691 420.448 402.085 401.423 478.563 410.255C555.041 419.088 574.647 439.772 577.924 450.339C581.201 460.906 576.351 484.357 563.518 495.179C550.685 506.001 503.997 527.234 474.832 520.797C445.667 514.361 434.938 515.197 417.6 496.434C400.261 477.67 378.109 457.244 374.472 446.91C370.835 436.575 377.691 420.448 377.691 420.448Z" fill="#CE44A2"/>
<path d="M399.107 410.579C414.963 406.88 440.358 404.333 478.735 408.765C517.075 413.193 541.289 420.604 556.376 428.31C571.447 436.008 577.554 444.081 579.357 449.894C581.116 455.567 580.652 464.395 578.206 473.07C575.752 481.773 571.212 490.653 564.485 496.326C557.87 501.904 542.796 509.991 525.79 515.877C508.8 521.757 489.509 525.572 474.509 522.261C460.089 519.079 449.893 517.633 441.29 514.655C432.525 511.62 425.306 506.983 416.498 497.451C412.177 492.775 407.553 487.993 402.981 483.277C398.413 478.566 393.893 473.918 389.801 469.534C385.711 465.151 382.025 461.005 379.125 457.292C376.249 453.609 374.052 450.235 373.057 447.408C371.087 441.81 371.987 434.831 373.258 429.458C373.902 426.733 374.662 424.342 375.261 422.633C375.56 421.778 375.821 421.091 376.007 420.615C376.1 420.377 376.175 420.191 376.227 420.064C376.253 420 376.273 419.951 376.287 419.917C376.294 419.9 376.3 419.887 376.304 419.878C376.306 419.873 376.308 419.869 376.309 419.866C376.309 419.865 376.309 419.864 376.31 419.863L376.311 419.862C376.315 419.864 376.394 419.896 377.691 420.448L376.311 419.861C376.41 419.627 376.568 419.422 376.769 419.265L377.691 420.448C376.804 419.31 376.771 419.266 376.771 419.263C376.771 419.263 376.773 419.262 376.773 419.261C376.776 419.26 376.778 419.258 376.781 419.255C376.787 419.251 376.794 419.245 376.803 419.239C376.82 419.226 376.844 419.208 376.874 419.186C376.934 419.142 377.018 419.081 377.128 419.004C377.348 418.852 377.67 418.636 378.102 418.371C378.965 417.839 380.266 417.103 382.057 416.256C385.639 414.563 391.179 412.428 399.107 410.579ZM478.392 411.745C440.292 407.344 415.25 409.893 399.789 413.5C392.059 415.303 386.721 417.371 383.339 418.969C381.648 419.768 380.445 420.451 379.676 420.924C379.343 421.129 379.091 421.296 378.916 421.416C378.882 421.5 378.844 421.598 378.801 421.708C378.626 422.154 378.379 422.807 378.093 423.625C377.519 425.262 376.793 427.55 376.178 430.148C374.93 435.422 374.22 441.675 375.887 446.412C376.71 448.752 378.647 451.806 381.489 455.446C384.308 459.055 387.924 463.126 391.994 467.487C396.062 471.846 400.559 476.469 405.135 481.188C409.706 485.902 414.353 490.71 418.701 495.416C427.231 504.647 434.047 508.973 442.272 511.82C450.659 514.724 460.411 516.078 475.155 519.332C489.32 522.458 507.955 518.874 524.809 513.042C541.646 507.214 556.333 499.275 562.551 494.032C568.657 488.883 572.958 480.626 575.318 472.256C577.687 463.858 578.009 455.677 576.491 450.783C575.017 446.028 569.682 438.476 555.012 430.982C540.358 423.497 516.53 416.149 478.392 411.745Z" fill="#17091D"/>
<path d="M387.45 434.651C387.45 434.651 437.18 419.775 489.572 427.07C541.965 434.364 562.751 445.615 562.715 455.266C562.679 464.917 568.234 512.884 516.208 515.266C464.183 517.648 429.121 498.728 415.42 485.637C401.718 472.546 388.228 446.037 386.614 441.291C385.001 436.546 387.45 434.651 387.45 434.651Z" fill="#9C398C"/>
<path d="M418.645 426.641C437.71 423.822 463.394 421.91 489.779 425.584C516.03 429.239 534.472 433.898 546.386 438.901C552.338 441.401 556.743 444.021 559.682 446.708C562.618 449.393 564.226 452.279 564.215 455.271C564.197 459.909 565.603 474.7 560.36 488.523C557.721 495.482 553.381 502.265 546.305 507.453C539.227 512.642 529.519 516.158 516.276 516.765C463.876 519.163 428.405 500.118 414.384 486.722C407.384 480.033 400.502 469.992 395.196 461.103C389.9 452.232 386.055 444.305 385.194 441.774C384.286 439.104 384.478 437.08 385.027 435.653C385.296 434.955 385.637 434.434 385.928 434.076C386.073 433.897 386.205 433.759 386.311 433.658C386.363 433.608 386.41 433.567 386.447 433.535C386.466 433.519 386.482 433.505 386.496 433.493C386.503 433.487 386.511 433.482 386.517 433.477C386.519 433.475 386.522 433.473 386.524 433.471C386.526 433.47 386.527 433.469 386.528 433.468L386.53 433.467C386.531 433.466 386.532 433.465 387.37 434.548L386.532 433.465C386.678 433.352 386.844 433.268 387.021 433.215L387.45 434.651C387.02 433.214 387.021 433.214 387.021 433.214L387.023 433.213C387.025 433.212 387.028 433.212 387.031 433.211C387.038 433.209 387.049 433.206 387.062 433.202C387.087 433.194 387.125 433.183 387.174 433.169C387.273 433.14 387.419 433.097 387.611 433.043C387.995 432.934 388.562 432.776 389.301 432.578C390.777 432.182 392.94 431.625 395.697 430.98C401.212 429.692 409.107 428.052 418.645 426.641ZM489.365 428.556C463.358 424.935 437.981 426.814 419.083 429.609C409.64 431.006 401.827 432.628 396.38 433.901C393.657 434.538 391.526 435.087 390.078 435.475C389.355 435.67 388.802 435.823 388.432 435.929C388.363 435.948 388.3 435.966 388.244 435.982C388.127 436.13 387.964 436.375 387.827 436.73C387.555 437.437 387.33 438.734 388.035 440.808C388.788 443.023 392.494 450.724 397.771 459.565C403.039 468.39 409.755 478.15 416.456 484.553C429.838 497.338 464.49 516.132 516.14 513.767C528.909 513.183 538.017 509.809 544.531 505.033C551.046 500.256 555.075 493.997 557.555 487.46C562.549 474.292 561.196 460.274 561.215 455.261C561.222 453.428 560.245 451.288 557.657 448.922C555.071 446.557 551.012 444.098 545.224 441.667C533.656 436.809 515.507 432.195 489.365 428.556Z" fill="#17091D"/>
<path d="M590.833 524L575.25 506.425L561.04 504L545.377 520.102L537.423 524L531.973 528.364C527.646 528.575 526.756 522.204 519.257 523.273C498.129 526.28 499.473 530.335 485.103 524C470.733 517.665 449.497 515.273 449.497 515.273L425.153 531.273L434.6 569.455C434.6 569.455 451.513 555.495 464.393 558.909C477.273 562.324 499.56 567.498 505.813 567.636C516.539 567.873 547.015 559.709 556.317 558.545C565.037 557.455 580.449 567.975 587.2 571.636C593.951 575.298 591.262 562.382 592.287 552.727C594.103 535.636 590.833 524 590.833 524Z" fill="#9C398C"/>
<path d="M455.492 506.727C455.492 506.727 497.384 531.88 547.106 500.393L569.578 512.545C569.578 512.545 546.688 542.363 500.908 540.182C455.128 538 442.048 517.636 442.048 517.636L455.492 506.727Z" fill="#CE44A2"/>
<path d="M546.481 499.029C546.906 498.834 547.402 498.847 547.82 499.073L570.292 511.225C570.678 511.434 570.954 511.803 571.046 512.232C571.137 512.662 571.036 513.11 570.768 513.459L569.579 512.545L570.767 513.46L570.765 513.462C570.764 513.463 570.763 513.466 570.761 513.469C570.757 513.474 570.752 513.481 570.745 513.489C570.731 513.507 570.711 513.532 570.686 513.563C570.637 513.626 570.564 513.716 570.47 513.831C570.28 514.062 570.001 514.395 569.631 514.814C568.891 515.653 567.791 516.839 566.329 518.25C563.406 521.071 559.033 524.797 553.209 528.452C541.552 535.767 524.085 542.787 500.838 541.68C477.725 540.578 462.766 534.88 453.543 529.379C448.935 526.63 445.772 523.939 443.747 521.912C442.735 520.899 442.008 520.053 441.527 519.45C441.287 519.149 441.108 518.908 440.986 518.737C440.925 518.652 440.879 518.585 440.846 518.536C440.829 518.512 440.816 518.491 440.806 518.476C440.802 518.469 440.797 518.463 440.794 518.458C440.792 518.455 440.791 518.453 440.79 518.451L440.788 518.449C440.787 518.448 440.787 518.446 442.049 517.636L440.787 518.447C440.374 517.804 440.51 516.953 441.103 516.472L454.547 505.562L454.64 505.492C455.121 505.16 455.755 505.137 456.263 505.44C456.263 505.441 456.265 505.441 456.266 505.442C456.27 505.444 456.276 505.448 456.284 505.453C456.301 505.463 456.327 505.478 456.363 505.499C456.436 505.541 456.55 505.606 456.701 505.689C457.004 505.857 457.461 506.103 458.064 506.407C459.271 507.015 461.061 507.855 463.368 508.77C467.983 510.601 474.658 512.725 482.863 513.882C499.253 516.192 521.787 514.65 546.304 499.125L546.481 499.029ZM547.161 502.127C522.243 517.651 499.263 519.223 482.444 516.852C473.961 515.657 467.055 513.461 462.262 511.559C459.864 510.608 457.992 509.73 456.714 509.086C456.294 508.874 455.939 508.686 455.649 508.53L444.122 517.885C444.533 518.38 445.107 519.03 445.869 519.792C447.727 521.652 450.696 524.187 455.08 526.803C463.841 532.028 478.313 537.603 500.98 538.683C523.512 539.757 540.381 532.96 551.614 525.911C557.235 522.384 561.446 518.792 564.245 516.091C565.553 514.828 566.551 513.759 567.24 512.985L547.161 502.127Z" fill="#17091D"/>
<path d="M423.7 552.544C423.311 552.544 422.934 552.405 422.638 552.152C422.341 551.898 422.145 551.548 422.084 551.163C421.942 550.243 419.726 539.843 417.36 532.679C416.849 530.969 416.182 529.31 415.366 527.723C392.298 487.319 352.676 457.49 352.276 457.177C351.95 456.931 351.726 456.572 351.648 456.17C349.769 446.228 355.902 435.559 369.386 425.315C372.292 423.108 385.874 414.257 389.075 413.315C393.642 411.977 397.359 411.326 400.436 411.326C406.097 411.326 408.695 413.599 410.78 415.428C411.071 415.679 411.358 415.93 411.649 416.155C414.621 418.617 413.353 423.679 412.895 425.17C412.255 427.272 409.48 428.443 405.265 430.192C399.869 432.45 393.151 435.283 391.52 440.253C390.644 442.937 391.306 446.05 393.54 449.766C393.638 449.933 393.733 450.086 393.831 450.239C405.734 469.112 456.092 506.781 456.6 507.159C456.878 507.367 457.083 507.658 457.185 507.99C457.287 508.322 457.281 508.678 457.167 509.006C450.95 527.177 425.88 551.086 424.827 552.097C424.522 552.384 424.119 552.544 423.7 552.544Z" fill="#CE44A2"/>
<path d="M400.447 412.985C406.235 412.985 408.248 415.49 410.62 417.454C412.553 419.054 411.935 422.81 411.347 424.726C409.923 429.395 380.805 431.774 392.17 450.646C392.268 450.814 392.374 450.985 392.483 451.155C404.68 470.497 455.652 508.508 455.652 508.508C449.453 526.472 423.7 550.908 423.7 550.908C423.529 549.817 421.277 539.323 418.93 532.17C418.38 530.355 417.667 528.593 416.797 526.908C393.282 485.723 353.268 455.883 353.268 455.883C351.088 444.246 361.094 433.701 370.388 426.635C373.531 424.246 386.775 415.726 389.547 414.908C394.27 413.526 397.765 412.985 400.447 412.985ZM400.447 409.712C397.21 409.712 393.344 410.385 388.624 411.766C385.045 412.814 370.984 422.068 368.408 424.028C354.398 434.675 348.061 445.901 350.052 456.49C350.204 457.297 350.653 458.017 351.31 458.508C351.408 458.581 361.356 466.039 374.011 478.374C385.637 489.715 402.016 507.621 413.956 528.534C414.319 529.159 414.926 530.472 415.819 533.192C418.127 540.217 420.321 550.505 420.466 551.417C420.559 552.006 420.811 552.559 421.195 553.015C421.579 553.471 422.079 553.813 422.643 554.005C423.207 554.197 423.813 554.232 424.395 554.104C424.977 553.977 425.513 553.693 425.946 553.283C427.036 552.265 452.353 528.083 458.74 509.577C458.967 508.92 458.979 508.208 458.775 507.544C458.57 506.88 458.16 506.298 457.603 505.883C457.098 505.519 406.98 468.017 395.244 449.41L394.986 448.992C394.986 448.992 394.986 448.966 394.968 448.955C393.017 445.719 392.388 442.974 393.1 440.799C394.499 436.519 401.094 433.755 405.922 431.737C410.38 429.872 413.603 428.523 414.471 425.683C415.002 423.948 416.452 418.046 412.702 414.93C412.433 414.708 412.157 414.468 411.87 414.203C409.69 412.301 406.722 409.697 400.447 409.697V409.712Z" fill="#17091D"/>
<path d="M580.468 550.439C579.976 550.438 579.505 550.243 579.156 549.897C579.079 549.823 579.01 549.742 578.949 549.654L545.758 501.319C545.595 501.081 545.498 500.804 545.476 500.516C545.454 500.228 545.509 499.939 545.635 499.679L545.668 499.61C551.034 489.53 562.018 467.167 561.752 462.381C561.705 461.563 561.705 460.683 561.709 459.756C561.709 457.85 561.709 455.694 561.265 453.836C560.437 450.367 561.102 446.825 563.042 444.359C563.738 443.438 564.638 442.69 565.671 442.174C566.704 441.658 567.843 441.388 568.997 441.385C569.193 441.385 569.39 441.385 569.589 441.407C572.354 441.614 576.551 443.377 580.853 450.603C583.948 455.814 584.73 461.897 585.213 465.53C585.256 465.872 585.3 466.196 585.34 466.501C585.602 468.447 586.067 471.203 586.633 474.392C588.203 483.457 590.579 497.163 590.83 508.857C590.906 512.334 589.863 519.799 588.04 528.836C586.95 534.185 585.78 539.199 584.715 542.948C582.858 549.399 581.943 550.439 580.468 550.439Z" fill="#CE44A2"/>
<path d="M568.997 443.022C569.15 443.022 569.306 443.022 569.466 443.022C572.431 443.243 576.006 445.625 579.436 451.422C582.637 456.811 583.218 463.182 583.694 466.694C584.726 474.331 588.835 493.24 589.17 508.876C589.25 512.512 588.011 520.571 586.412 528.512C584.345 538.763 581.689 548.803 580.468 548.803C580.436 548.803 580.404 548.795 580.375 548.782C580.345 548.769 580.319 548.75 580.297 548.727L547.107 500.392C547.47 499.723 563.758 468.847 563.38 462.298C563.239 459.818 563.566 456.436 562.853 453.465C561.556 448.054 564.507 443.032 568.994 443.032M568.994 439.76C567.592 439.76 566.208 440.085 564.953 440.71C563.697 441.334 562.603 442.241 561.756 443.36C559.507 446.214 558.726 450.269 559.674 454.229C560.074 455.898 560.07 457.865 560.07 459.763C560.07 460.716 560.07 461.618 560.114 462.483C560.147 463.032 559.932 466.545 552.564 482.152C548.44 490.88 544.262 498.778 544.207 498.854C544.197 498.869 544.189 498.885 544.182 498.902C543.944 499.367 543.82 499.881 543.818 500.403C543.818 501.065 544.018 501.712 544.392 502.258L577.583 550.592C577.706 550.768 577.845 550.933 577.997 551.083C578.652 551.726 579.532 552.087 580.45 552.087C583.077 552.087 584.159 549.454 584.621 548.331C585.249 546.719 585.791 545.076 586.245 543.407C587.335 539.618 588.512 534.56 589.598 529.171C590.292 525.745 592.538 514.149 592.421 508.832C592.167 497.014 589.78 483.24 588.2 474.123C587.651 470.949 587.175 468.207 586.917 466.291C586.877 465.992 586.833 465.672 586.79 465.331C586.307 461.571 585.496 455.28 582.23 449.778C577.579 441.949 572.845 440.022 569.691 439.785C569.459 439.785 569.215 439.76 568.965 439.76H568.994Z" fill="#17091D"/>
<path d="M455.652 508.508C449.453 526.472 423.7 550.908 423.7 550.908C423.529 549.818 421.277 539.323 418.93 532.17C425.491 524.108 433.775 513.839 433.354 510.181C432.293 500.908 396.632 472.545 381.314 457.261C372.939 448.898 370.701 436.327 370.388 426.636C373.531 424.247 386.775 415.727 389.547 414.908C404.443 410.545 407.154 414.581 410.62 417.454C412.553 419.054 411.935 422.81 411.347 424.727C409.922 429.396 380.805 431.774 392.17 450.647C392.268 450.814 392.373 450.985 392.482 451.156C404.68 470.498 455.652 508.508 455.652 508.508Z" fill="#D969BD"/>
<path d="M586.412 528.511C584.232 539.275 581.405 549.806 580.297 548.726L547.106 500.391C547.47 499.722 563.758 468.846 563.38 462.297C563.238 459.817 563.565 456.435 562.853 453.464C561.513 447.867 564.714 442.686 569.462 443.049C570.324 444.821 570.797 446.756 570.85 448.726C571.032 463.635 564.347 497.631 568.143 505.358C569.59 508.297 578.389 518.831 586.412 528.511Z" fill="#D969BD"/>
</svg>
