<svg width="1000" height="1000" viewBox="0 0 1000 1000" fill="none" xmlns="http://www.w3.org/2000/svg">
<path d="M687.92 986.098C683.244 986.098 677.924 983.887 672.783 981.734C671.028 981.007 669.375 980.316 667.816 979.749C665.36 978.854 663.616 978.44 662.323 978.44C662.109 978.439 661.895 978.453 661.683 978.48C661.057 978.568 660.426 978.613 659.794 978.614C656.186 978.614 652.854 977.116 650.881 974.614C650.078 973.613 649.517 972.44 649.242 971.186C648.967 969.932 648.986 968.631 649.297 967.385C649.326 967.276 649.348 967.167 649.37 967.051C650.424 961.563 653.868 945.233 655.768 939.134C656.444 936.953 655.452 933.916 654.402 930.694C653.069 926.593 651.55 921.942 653.418 917.967C653.527 917.738 653.636 917.523 653.748 917.305C656.858 911.353 665.931 899.825 667.947 897.305C667.849 894.996 667.548 886.593 667.813 877.691C668.456 856.142 671.719 852.709 672.794 851.582C673.188 851.133 673.672 850.772 674.214 850.522C674.756 850.271 675.344 850.137 675.941 850.127C679.327 850.127 688.657 846.971 696.124 844.433C701.21 842.702 706.054 841.065 709.058 840.36C710.487 840.019 711.95 839.844 713.418 839.84C717.415 839.84 720.634 841.2 723.228 842.291C725.14 843.098 726.789 843.796 728.268 843.796C728.779 843.799 729.287 843.708 729.765 843.527C730.031 843.43 730.313 843.379 730.597 843.378C732.958 843.378 734.049 846.487 734.957 851.16C735.633 854.647 736.25 859.487 736.773 865.545C737.587 874.683 737.98 883.927 738.06 885.909C740.127 889.673 756.226 919.803 754.046 941.473C753.389 948.04 751.089 953.243 747.212 956.942L746.969 957.167C745.214 958.785 743.437 960.327 741.679 961.76C737.439 965.259 732.879 968.348 728.057 970.985C718.378 976.189 711.936 976.749 709.614 976.749C709.1 976.753 708.587 976.721 708.077 976.651H707.954C707.779 976.656 707.605 976.685 707.438 976.738C706.264 977.076 704.626 978.236 702.715 979.578C699.528 981.833 695.561 984.64 690.725 985.793C689.805 986.002 688.863 986.105 687.92 986.098Z" fill="#CE44A2"/>
<path d="M713.415 841.472C719.98 841.472 724.151 845.425 728.253 845.425C728.959 845.431 729.66 845.308 730.321 845.061C730.404 845.03 730.493 845.014 730.582 845.014C734.942 845.014 736.447 886.374 736.447 886.374C736.447 886.374 754.66 918.919 752.433 941.327C751.859 947.036 749.963 952.083 746.097 955.77L745.864 955.989C744.086 957.625 742.351 959.13 740.658 960.505C736.502 963.943 732.027 966.975 727.294 969.559C718.916 974.065 712.695 975.13 709.625 975.13C709.193 975.134 708.76 975.107 708.332 975.047C708.211 975.029 708.09 975.021 707.968 975.021C707.641 975.025 707.315 975.075 707.002 975.17C703.369 976.214 697.882 982.421 690.358 984.207C689.562 984.389 688.747 984.478 687.931 984.472C682.026 984.472 674.444 980.447 668.383 978.239C666.094 977.403 664.023 976.832 662.334 976.832C662.045 976.831 661.756 976.85 661.469 976.887C660.917 976.965 660.359 977.004 659.801 977.003C654.108 977.003 649.686 972.836 650.892 967.789C650.925 967.654 650.958 967.516 650.983 967.363C652.142 961.334 655.518 945.469 657.334 939.643C659.151 933.818 651.946 924.981 654.904 918.679C654.998 918.479 655.096 918.279 655.202 918.079C658.599 911.578 669.611 897.847 669.611 897.847C669.611 897.847 667.366 851.767 675.948 851.767C681.899 851.767 701.839 843.734 709.44 841.949C710.749 841.636 712.091 841.478 713.437 841.476M713.437 838.203C711.846 838.209 710.261 838.397 708.713 838.763C705.632 839.49 700.774 841.134 695.633 842.879C688.654 845.247 679.091 848.49 675.973 848.49C675.155 848.498 674.347 848.676 673.601 849.013C672.856 849.351 672.188 849.84 671.642 850.45C669.597 852.603 666.806 857.759 666.214 877.639C665.963 886.039 666.214 893.81 666.323 896.759C663.718 900.054 655.343 910.803 652.331 916.559C652.222 916.77 652.11 916.999 651.968 917.261V917.283C649.828 921.847 651.448 926.825 652.88 931.214C653.806 934.054 654.762 936.985 654.239 938.661C652.32 944.818 648.854 961.243 647.8 966.741C647.8 966.741 647.8 966.763 647.8 966.774C647.8 966.847 647.771 966.919 647.753 966.996V967.021C647.383 968.507 647.361 970.058 647.689 971.554C648.017 973.049 648.685 974.449 649.643 975.643C651.924 978.552 655.736 980.265 659.838 980.265C660.548 980.264 661.257 980.214 661.96 980.116C662.096 980.099 662.233 980.09 662.37 980.09C663.46 980.09 665.066 980.487 667.304 981.305C668.827 981.858 670.465 982.538 672.202 983.261C677.492 985.443 682.964 987.73 687.967 987.73C689.037 987.734 690.104 987.612 691.146 987.367C696.305 986.145 700.415 983.236 703.721 980.898C705.349 979.745 707.031 978.552 707.939 978.294H707.998C708.55 978.366 709.108 978.4 709.665 978.396C712.11 978.396 718.876 977.818 728.878 972.439C733.793 969.754 738.442 966.606 742.761 963.039C744.542 961.585 746.344 960.025 748.117 958.392L748.149 958.363L748.4 958.127C752.557 954.163 755.024 948.614 755.721 941.65C756.702 931.832 754.224 919.258 748.364 904.258C745.853 897.834 742.969 891.563 739.727 885.476C739.618 882.865 739.222 874.087 738.452 865.403C737.907 859.29 737.279 854.392 736.592 850.858C736.279 849.054 735.8 847.282 735.16 845.567C734.132 843.021 732.617 841.752 730.633 841.749C730.154 841.749 729.679 841.835 729.231 842.003C728.933 842.115 728.618 842.17 728.301 842.167C727.152 842.167 725.645 841.53 723.897 840.792C721.176 839.643 717.789 838.214 713.462 838.214L713.437 838.203Z" fill="#17091D"/>
<path d="M661.458 976.88C663.275 976.626 665.673 977.244 668.362 978.233C675.29 980.756 684.207 985.655 690.336 984.2C697.861 982.415 703.351 976.2 706.98 975.164C707.411 975.027 707.866 974.984 708.314 975.04C710.614 975.404 717.462 974.829 727.276 969.553C732.009 966.968 736.484 963.936 740.64 960.498C742.335 959.121 744.071 957.616 745.846 955.982L746.079 955.764C749.12 952.811 751.165 947.764 752.415 941.32C754.65 918.913 736.428 886.367 736.428 886.367C736.428 886.367 734.866 843.356 730.303 845.055C724.682 847.153 719.653 839.542 709.411 841.946C701.81 843.731 681.87 851.764 675.919 851.764C667.337 851.764 669.582 897.844 669.582 897.844C669.582 897.844 658.57 911.575 655.173 918.076C655.067 918.276 654.969 918.476 654.875 918.676C657.153 916.593 668.412 906.611 676.7 905.444C685.958 904.142 708.855 903.298 717.07 901.302C725.285 899.306 732.101 910.007 735.019 922.866C736.973 931.451 741.875 942.215 739.473 950.386C738.281 954.451 735.288 957.873 729.234 960.076C728.599 960.309 727.974 960.531 727.367 960.746C718.458 963.855 711.911 965.156 706.704 966.306C701.981 967.346 698.369 968.258 695.078 970.266C689.74 973.538 680.875 979.542 666.738 975.356C662.065 973.971 656.811 971.462 650.922 967.356C650.896 967.509 650.863 967.647 650.831 967.782C649.559 973.313 654.995 977.789 661.458 976.88Z" fill="#9C398C"/>
<path d="M662.404 941.851C662.813 941.131 663.728 940.879 664.448 941.288C671.228 945.144 675.049 950 677.172 953.926C678.231 955.884 678.865 957.606 679.237 958.852C679.422 959.474 679.542 959.979 679.617 960.336C679.655 960.514 679.681 960.656 679.698 960.757C679.707 960.807 679.713 960.847 679.718 960.877C679.72 960.892 679.722 960.904 679.724 960.914C679.724 960.919 679.725 960.922 679.726 960.926C679.726 960.927 679.726 960.929 679.726 960.931L679.727 960.933C679.727 960.933 679.712 960.937 678.24 961.138L679.727 960.935C679.839 961.755 679.264 962.511 678.444 962.623C677.623 962.735 676.866 962.161 676.754 961.34V961.339C676.754 961.337 676.753 961.335 676.753 961.333C676.751 961.32 676.748 961.297 676.742 961.264C676.731 961.198 676.711 961.093 676.682 960.952C676.623 960.67 676.522 960.247 676.362 959.709C676.041 958.633 675.481 957.105 674.533 955.353C672.642 951.856 669.197 947.439 662.966 943.895C662.246 943.486 661.994 942.571 662.404 941.851Z" fill="#17091D"/>
<path d="M670.278 949.11C670.799 948.467 671.744 948.368 672.387 948.889C673.03 949.411 673.128 950.353 672.608 950.997L672.609 950.998C672.608 950.998 672.607 951 672.605 951.003C672.601 951.008 672.594 951.017 672.584 951.029C672.565 951.054 672.534 951.094 672.493 951.147C672.41 951.255 672.286 951.42 672.131 951.637C671.821 952.07 671.383 952.712 670.888 953.526C669.896 955.16 668.689 957.469 667.81 960.179C666.055 965.589 665.642 972.45 670.679 978.874C671.19 979.526 671.076 980.469 670.424 980.98C669.772 981.491 668.83 981.377 668.319 980.725C662.457 973.251 663.014 965.24 664.956 959.253C665.926 956.264 667.248 953.741 668.324 951.97C668.863 951.082 669.344 950.376 669.693 949.888C669.867 949.645 670.009 949.455 670.11 949.324C670.16 949.258 670.2 949.208 670.228 949.172C670.242 949.154 670.254 949.14 670.262 949.13C670.266 949.125 670.269 949.12 670.272 949.117C670.273 949.116 670.274 949.114 670.275 949.113L670.277 949.111C670.28 949.113 670.336 949.158 671.427 950.042L670.278 949.11Z" fill="#17091D"/>
<path d="M701.288 947.864C702.053 947.548 702.93 947.911 703.247 948.677L701.861 949.25C703.241 948.679 703.247 948.676 703.248 948.677V948.678C703.248 948.679 703.248 948.68 703.249 948.682C703.25 948.684 703.252 948.688 703.253 948.692C703.257 948.702 703.263 948.715 703.27 948.732C703.284 948.767 703.305 948.818 703.332 948.884C703.385 949.016 703.462 949.21 703.558 949.458C703.751 949.954 704.023 950.67 704.342 951.56C704.98 953.337 705.808 955.813 706.572 958.605C708.076 964.104 709.416 971.136 708.288 976.442C708.115 977.253 707.319 977.77 706.508 977.598C705.698 977.425 705.181 976.629 705.353 975.818C706.317 971.285 705.177 964.876 703.678 959.396C702.94 956.698 702.137 954.298 701.518 952.573C701.209 951.711 700.947 951.019 700.762 950.545C700.67 950.308 700.597 950.125 700.547 950.003C700.523 949.942 700.505 949.896 700.493 949.866C700.487 949.852 700.482 949.84 700.479 949.833C700.478 949.83 700.476 949.827 700.475 949.825V949.823C700.159 949.058 700.522 948.181 701.288 947.864Z" fill="#17091D"/>
<path d="M724.055 949.211C724.825 948.906 725.697 949.285 726.001 950.055L724.606 950.606C726.001 950.055 726.001 950.056 726.001 950.056V950.057C726.001 950.058 726.003 950.059 726.003 950.06C726.004 950.063 726.005 950.067 726.007 950.071C726.011 950.08 726.016 950.093 726.023 950.11C726.035 950.143 726.054 950.191 726.077 950.254C726.124 950.378 726.192 950.559 726.276 950.789C726.442 951.249 726.674 951.909 726.935 952.718C727.456 954.333 728.1 956.557 728.585 958.976C729.068 961.385 729.405 964.048 729.279 966.522C729.155 968.969 728.567 971.439 726.995 973.248C726.452 973.873 725.504 973.939 724.879 973.396C724.254 972.853 724.187 971.906 724.731 971.281C725.666 970.204 726.174 968.524 726.283 966.369C726.392 964.241 726.102 961.85 725.644 959.566C725.188 957.292 724.577 955.184 724.079 953.639C723.831 952.869 723.612 952.242 723.455 951.811C723.377 951.596 723.315 951.429 723.273 951.318C723.252 951.263 723.235 951.221 723.225 951.194C723.219 951.18 723.215 951.17 723.213 951.164C723.212 951.161 723.212 951.159 723.211 951.158L723.21 951.157C722.906 950.386 723.284 949.515 724.055 949.211Z" fill="#17091D"/>
<path d="M738.769 948.705C739.528 948.374 740.412 948.722 740.743 949.482L739.368 950.08C740.743 949.481 740.743 949.482 740.744 949.483V949.484C740.744 949.484 740.745 949.485 740.745 949.486C740.746 949.489 740.748 949.492 740.749 949.495C740.752 949.502 740.756 949.512 740.761 949.524C740.771 949.547 740.785 949.58 740.802 949.622C740.837 949.706 740.885 949.826 740.943 949.978C741.059 950.28 741.217 950.712 741.386 951.241C741.723 952.296 742.117 953.766 742.329 955.396C742.741 958.558 742.523 962.855 739.14 965.57C738.494 966.089 737.55 965.985 737.032 965.339C736.513 964.693 736.617 963.749 737.263 963.231C739.366 961.542 739.732 958.679 739.355 955.782C739.173 954.383 738.83 953.097 738.529 952.155C738.379 951.687 738.241 951.31 738.142 951.053C738.093 950.925 738.054 950.826 738.028 950.763C738.015 950.731 738.005 950.708 737.999 950.694L737.992 950.678H737.993C737.663 949.919 738.01 949.036 738.769 948.705Z" fill="#17091D"/>
<path d="M690.75 969.817C693.359 969.817 695.474 965.177 695.474 959.453C695.474 953.73 693.359 949.09 690.75 949.09C688.142 949.09 686.027 953.73 686.027 959.453C686.027 965.177 688.142 969.817 690.75 969.817Z" fill="#D969BD"/>
<path d="M716.569 959.683C719.096 959.036 720.237 954.963 719.118 950.585C717.999 946.208 715.044 943.183 712.516 943.83C709.989 944.477 708.848 948.551 709.967 952.928C711.086 957.306 714.041 960.33 716.569 959.683Z" fill="#D969BD"/>
<path d="M732.668 952.194C734.851 951.635 735.988 948.706 735.207 945.651C734.426 942.597 732.023 940.573 729.84 941.132C727.657 941.691 726.52 944.621 727.301 947.676C728.082 950.73 730.485 952.753 732.668 952.194Z" fill="#D969BD"/>
<path d="M349.58 993.521C345.282 993.521 341.252 992.277 338.015 991.273C335.868 990.612 334.018 990.037 332.78 990.037H332.652C332.439 990.035 332.228 990.075 332.031 990.157C330.305 991.026 326.581 991.946 321.335 991.946C317.974 991.926 314.622 991.609 311.317 991.001H311.274C305.865 989.994 300.564 988.474 295.443 986.463C293.329 985.652 291.163 984.739 289.001 983.753L288.682 983.601C283.857 981.295 280.056 977.055 277.393 971.033C268.702 951.317 274.414 918.175 275.304 913.39C274.595 911.881 272.375 907.095 270.344 901.953C265.737 890.281 266.021 886.866 266.638 885.31C266.779 884.916 267.002 884.557 267.293 884.256C267.584 883.956 267.935 883.721 268.324 883.568C270.141 882.863 272.128 882.07 274.225 881.23C286.832 876.183 304.102 869.273 317.97 869.273C322.217 869.273 325.963 869.924 329.117 871.215C337.136 874.488 344.141 897.503 345.511 902.252C348.207 904.03 360.407 912.172 365.229 916.863C365.403 917.033 365.574 917.226 365.737 917.383C368.673 920.503 369.843 924.015 370.977 927.415C371.794 929.87 372.564 932.186 373.96 934.15C376.067 937.113 378.269 943.968 380.394 950.597C381.964 955.477 383.581 960.521 384.827 962.772L385.001 963.073C385.747 964.252 386.185 965.6 386.273 966.992C386.361 968.385 386.098 969.777 385.506 971.041C384.024 974.353 380.721 976.761 376.677 977.484C374.973 977.79 372.764 979.408 371.227 980.597C369.923 981.623 368.564 982.779 367.125 984.03C362.231 988.233 356.683 993.001 351.324 993.448C350.772 993.495 350.172 993.521 349.58 993.521Z" fill="#CE44A2"/>
<path d="M317.97 870.91C321.811 870.91 325.375 871.452 328.507 872.728C336.449 875.979 344.13 903.273 344.13 903.273C344.13 903.273 358.86 912.899 364.113 918.023C364.273 918.179 364.43 918.339 364.582 918.499C369.349 923.568 369.146 930.135 372.655 935.084C376.165 940.033 380.453 958.183 383.425 963.553C383.497 963.688 383.57 963.812 383.643 963.917C386.618 968.764 382.843 974.706 376.416 975.855C374.599 976.179 372.525 977.517 370.265 979.292C364.451 983.844 357.508 991.292 351.233 991.797C350.685 991.844 350.143 991.863 349.591 991.863C342.644 991.863 336.337 988.383 332.79 988.383H332.605C332.154 988.386 331.709 988.488 331.301 988.681C329.935 989.364 326.577 990.292 321.345 990.292C318.068 990.27 314.799 989.96 311.575 989.364C306.274 988.379 301.079 986.888 296.061 984.913C294.026 984.133 291.909 983.242 289.71 982.241L289.423 982.106C284.605 979.804 281.233 975.597 278.915 970.346C269.832 949.746 277.037 913.146 277.037 913.146C277.037 913.146 264.378 886.848 268.92 885.092C281.782 880.117 302.176 870.91 317.97 870.91ZM317.97 867.637C303.8 867.637 286.36 874.619 273.614 879.713C271.525 880.553 269.549 881.343 267.736 882.044C267.138 882.281 266.597 882.64 266.146 883.098C265.696 883.557 265.346 884.104 265.12 884.706C264.295 886.797 264.088 890.55 268.829 902.557C270.719 907.346 272.724 911.724 273.603 913.615C272.443 920.314 271.668 927.075 271.282 933.863C270.366 949.943 271.921 962.67 275.9 971.681C278.726 978.084 282.803 982.59 287.988 985.07L288.289 985.212H288.311C290.517 986.219 292.715 987.143 294.851 987.968C300.063 990.014 305.458 991.56 310.961 992.586H311.027C314.42 993.206 317.86 993.529 321.309 993.55C325.953 993.55 330.171 992.841 332.627 991.644H332.754C333.739 991.644 335.57 992.208 337.507 992.808C340.849 993.841 345.009 995.124 349.555 995.124C350.201 995.124 350.844 995.099 351.469 995.048C357.355 994.557 363.096 989.593 368.183 985.23C369.611 984.004 370.955 982.848 372.23 981.844C374.363 980.172 375.947 979.233 376.954 979.055C381.528 978.237 385.278 975.477 386.982 971.67C387.674 970.164 387.982 968.509 387.878 966.855C387.774 965.2 387.261 963.597 386.386 962.19V962.168C386.346 962.103 386.306 962.037 386.273 961.972C386.274 961.962 386.274 961.952 386.273 961.943C385.107 959.83 383.512 954.863 381.968 950.055C379.704 942.997 377.564 936.332 375.308 933.161C374.054 931.397 373.32 929.193 372.543 926.859C371.409 923.459 370.127 919.586 366.951 916.23C366.755 916.026 366.588 915.844 366.402 915.673C361.744 911.128 350.416 903.503 346.939 901.193C346.256 898.899 344.599 893.593 342.342 887.983C340.891 884.239 339.141 880.617 337.11 877.153C334.676 873.153 332.275 870.706 329.768 869.681C326.421 868.31 322.465 867.615 318.006 867.615L317.97 867.637Z" fill="#17091D"/>
<path d="M376.398 975.877C374.581 976.201 372.506 977.539 370.247 979.314C364.433 983.866 357.49 991.314 351.215 991.819C343.505 992.463 336.362 988.27 332.587 988.408C332.136 988.412 331.691 988.513 331.283 988.706C329.204 989.75 322.519 991.35 311.557 989.39C306.256 988.404 301.061 986.914 296.043 984.939C294.008 984.159 291.891 983.268 289.692 982.266L289.405 982.132C285.597 980.27 282.095 976.088 278.897 970.372C269.814 949.772 277.019 913.172 277.019 913.172C277.019 913.172 264.378 886.848 268.92 885.092C284.907 878.91 312.52 866.183 328.507 872.728C336.449 875.979 344.13 903.274 344.13 903.274C344.13 903.274 326.588 879.248 318.333 880.728C309.13 882.372 290.789 886.252 282.363 886.91C273.938 887.568 288.471 934.292 289.688 947.419C290.498 956.19 289.18 967.943 294.001 974.965C296.395 978.456 300.305 980.783 306.743 980.99L308.727 981.045C318.174 981.23 324.786 980.43 330.091 979.903C334.898 979.423 338.618 979.176 342.353 980.056C348.447 981.51 358.732 984.456 370.85 976.056C374.846 973.285 379.076 969.266 383.403 963.546C383.475 963.681 383.548 963.805 383.621 963.91C386.6 968.786 382.825 974.728 376.398 975.877Z" fill="#9C398C"/>
<path d="M362.506 942.99C363.064 942.378 364.013 942.333 364.625 942.891C365.238 943.448 365.282 944.397 364.725 945.01C359.902 950.309 357.997 955.575 357.285 959.485C356.928 961.446 356.871 963.071 356.9 964.193C356.914 964.754 356.95 965.188 356.982 965.475C356.997 965.618 357.011 965.724 357.021 965.79C357.026 965.823 357.029 965.847 357.031 965.859C357.032 965.863 357.032 965.865 357.032 965.867C357.18 966.682 356.64 967.462 355.825 967.61C355.01 967.759 354.23 967.218 354.081 966.403L355.557 966.135L354.081 966.401L354.08 966.399C354.08 966.398 354.08 966.396 354.079 966.395C354.079 966.391 354.078 966.387 354.077 966.383C354.076 966.373 354.074 966.361 354.071 966.346C354.067 966.316 354.06 966.276 354.053 966.226C354.038 966.124 354.019 965.981 353.999 965.8C353.96 965.438 353.917 964.92 353.901 964.271C353.867 962.972 353.935 961.138 354.334 958.948C355.134 954.558 357.258 948.756 362.506 942.99Z" fill="#17091D"/>
<path d="M357.32 952.674C357.77 951.978 358.699 951.779 359.394 952.229L358.58 953.488C359.394 952.228 359.395 952.229 359.395 952.23L359.396 952.231C359.398 952.231 359.399 952.232 359.401 952.233C359.405 952.236 359.409 952.239 359.415 952.242C359.426 952.249 359.441 952.259 359.46 952.272C359.498 952.297 359.552 952.333 359.62 952.38C359.756 952.473 359.95 952.61 360.191 952.787C360.674 953.142 361.35 953.662 362.139 954.338C363.711 955.687 365.751 957.673 367.6 960.213C371.305 965.3 374.322 972.74 371.071 981.667C370.788 982.445 369.927 982.847 369.148 982.564C368.37 982.28 367.968 981.419 368.252 980.641C371.046 972.968 368.523 966.575 365.176 961.98C363.499 959.678 361.634 957.86 360.184 956.615C359.461 955.995 358.847 955.521 358.417 955.205C358.202 955.048 358.033 954.93 357.922 954.854C357.866 954.815 357.824 954.787 357.798 954.77C357.785 954.761 357.776 954.755 357.77 954.751C357.768 954.75 357.767 954.748 357.766 954.747C357.766 954.748 357.765 954.747 357.764 954.747L357.765 954.748C357.07 954.298 356.871 953.37 357.32 952.674Z" fill="#17091D"/>
<path d="M329.53 960.688C330.356 960.752 330.974 961.472 330.911 962.298C330.911 962.3 330.91 962.304 330.91 962.308C330.909 962.316 330.909 962.328 330.908 962.343C330.905 962.376 330.901 962.426 330.897 962.492C330.888 962.623 330.876 962.819 330.862 963.073C330.834 963.581 330.799 964.321 330.773 965.236C330.72 967.068 330.701 969.598 330.837 972.392C331.114 978.068 332.021 984.512 334.346 988.521C334.762 989.238 334.518 990.156 333.801 990.572C333.085 990.987 332.166 990.743 331.751 990.027C329.029 985.334 328.119 978.233 327.841 972.539C327.7 969.648 327.719 967.037 327.774 965.149C327.801 964.205 327.837 963.439 327.867 962.908C327.881 962.642 327.894 962.434 327.904 962.292C327.909 962.221 327.913 962.166 327.916 962.128C327.917 962.11 327.918 962.096 327.918 962.086C327.919 962.081 327.919 962.077 327.919 962.074V962.069C327.983 961.243 328.704 960.625 329.53 960.688Z" fill="#17091D"/>
<path d="M308.309 969.05C309.084 969.096 309.686 969.724 309.717 970.483L309.716 970.637V970.638C309.716 970.639 309.715 970.641 309.715 970.644C309.714 970.651 309.715 970.662 309.714 970.677C309.712 970.706 309.71 970.75 309.707 970.809C309.701 970.928 309.694 971.106 309.686 971.335C309.672 971.793 309.657 972.457 309.66 973.266C309.666 974.889 309.742 977.084 310.015 979.387C310.289 981.7 310.756 984.062 311.519 986.051C312.293 988.065 313.296 989.503 314.519 990.234C315.229 990.66 315.461 991.581 315.035 992.292C314.61 993.003 313.688 993.234 312.978 992.808C310.923 991.578 309.597 989.413 308.719 987.127C307.831 984.815 307.325 982.179 307.036 979.739C306.746 977.289 306.667 974.975 306.66 973.278C306.657 972.428 306.672 971.728 306.687 971.239C306.695 970.994 306.704 970.802 306.71 970.669C306.713 970.602 306.716 970.551 306.718 970.515C306.719 970.498 306.719 970.483 306.72 970.473C306.72 970.469 306.721 970.465 306.721 970.462V970.458C306.721 970.457 306.721 970.457 308.219 970.547L306.721 970.457C306.77 969.63 307.482 969 308.309 969.05Z" fill="#17091D"/>
<path d="M294.169 973.148C294.994 973.226 295.599 973.959 295.52 974.783L295.518 974.799C295.517 974.814 295.515 974.84 295.512 974.874C295.507 974.943 295.501 975.048 295.494 975.185C295.48 975.459 295.465 975.861 295.468 976.353C295.474 977.341 295.548 978.67 295.809 980.056C296.35 982.925 297.586 985.532 300.107 986.481C300.882 986.772 301.274 987.638 300.982 988.413C300.69 989.188 299.825 989.58 299.05 989.288C294.991 987.761 293.451 983.744 292.861 980.611C292.557 978.997 292.475 977.479 292.468 976.371C292.465 975.815 292.481 975.355 292.498 975.031C292.506 974.869 292.514 974.741 292.521 974.65C292.524 974.605 292.527 974.57 292.529 974.544C292.53 974.531 292.531 974.521 292.532 974.514C292.532 974.51 292.532 974.506 292.533 974.504C292.533 974.503 292.533 974.501 292.533 974.5L292.534 974.499C292.54 974.499 292.632 974.507 294.027 974.641L292.534 974.498C292.612 973.673 293.345 973.069 294.169 973.148Z" fill="#17091D"/>
<path d="M340.678 973.456C342.785 973.456 344.493 968.816 344.493 963.092C344.493 957.368 342.785 952.729 340.678 952.729C338.571 952.729 336.863 957.368 336.863 963.092C336.863 968.816 338.571 973.456 340.678 973.456Z" fill="#D969BD"/>
<path d="M317.425 972.002C319.532 972.002 321.24 968.501 321.24 964.183C321.24 959.866 319.532 956.365 317.425 956.365C315.318 956.365 313.61 959.866 313.61 964.183C313.61 968.501 315.318 972.002 317.425 972.002Z" fill="#D969BD"/>
<path d="M300.348 976C302.455 976 304.163 973.314 304.163 970C304.163 966.686 302.455 964 300.348 964C298.241 964 296.533 966.686 296.533 970C296.533 973.314 298.241 976 300.348 976Z" fill="#D969BD"/>
<path d="M546.583 452.556C546.418 452.556 546.253 452.535 546.093 452.494C542.459 451.905 452.102 442.534 404.563 437.636C404.31 437.61 404.067 437.525 403.852 437.388C403.638 437.251 403.458 437.065 403.328 436.847C398.383 428.538 398.576 427.25 398.652 426.767C398.805 425.749 400.658 422.439 404.153 416.949C404.378 416.597 404.729 416.345 405.134 416.243C405.86 416.058 423.3 411.756 452.854 411.756C484.744 411.756 517.527 416.698 550.227 426.443C550.486 426.519 550.722 426.658 550.914 426.847L566.417 442.181C566.607 442.369 566.748 442.599 566.828 442.854C566.908 443.108 566.925 443.378 566.876 443.641C566.828 443.903 566.716 444.149 566.551 444.358C566.385 444.567 566.171 444.732 565.927 444.839C557.923 448.363 548.066 452.556 546.583 452.556Z" fill="#CE44A2"/>
<path d="M452.854 413.382C477.768 413.382 511.172 416.506 549.777 428L565.269 443.342C565.269 443.342 548.033 450.909 546.583 450.909C546.558 450.915 546.532 450.915 546.507 450.909C545.78 450.546 404.73 436 404.73 436C404.73 436 400.083 428.204 400.269 427.011C400.454 425.818 405.533 417.818 405.533 417.818C405.533 417.818 423.166 413.382 452.854 413.382ZM452.854 410.109C423.104 410.109 405.471 414.473 404.738 414.644C403.926 414.848 403.224 415.356 402.776 416.062C402.721 416.146 401.468 418.12 400.167 420.277C397.456 424.775 397.151 425.731 397.035 426.524C396.882 427.513 396.672 428.873 401.922 437.684C402.182 438.122 402.542 438.494 402.972 438.768C403.401 439.043 403.889 439.213 404.396 439.266C442.284 443.168 540.889 453.378 545.769 454.102C546.036 454.164 546.309 454.194 546.583 454.193C547.389 454.193 548.149 454.193 557.741 450.149C562.203 448.266 566.541 446.36 566.584 446.338C567.073 446.125 567.502 445.795 567.834 445.377C568.166 444.959 568.391 444.467 568.489 443.942C568.587 443.418 568.556 442.877 568.397 442.367C568.239 441.858 567.958 441.395 567.58 441.018L552.087 425.673C551.705 425.295 551.236 425.017 550.721 424.862C533.015 419.575 514.93 415.656 496.625 413.138C482.12 411.146 467.498 410.134 452.857 410.109H452.854Z" fill="#17091D"/>
<path d="M405.13 428.541C405.13 428.541 435.214 417.269 482.774 422.174C530.335 427.08 564.434 443.345 564.434 443.345L567.3 492.643L551.753 530.796C551.753 530.796 498.122 542.069 497.7 541.661C497.279 541.254 433.615 510.494 433.615 510.494C433.615 510.494 385.405 475.01 384.842 473.596C384.278 472.181 405.13 428.541 405.13 428.541Z" fill="#5C2C66"/>
<path d="M425.874 422.038C439.453 419.815 458.999 418.214 482.928 420.682C506.836 423.148 527.356 428.468 541.901 433.172C549.174 435.524 554.957 437.723 558.927 439.337C560.912 440.144 562.445 440.805 563.484 441.265C564.003 441.495 564.398 441.676 564.666 441.799C564.8 441.861 564.902 441.908 564.971 441.941C565.005 441.957 565.032 441.969 565.05 441.978C565.059 441.982 565.066 441.985 565.07 441.987C565.073 441.989 565.075 441.99 565.076 441.99H565.078C565.079 441.991 565.079 441.991 564.748 442.685L565.079 441.991L565.879 442.373L568.818 492.895L552.842 532.1L552.062 532.264L552.059 532.265C552.057 532.265 552.055 532.265 552.052 532.266C552.045 532.267 552.036 532.27 552.023 532.273C551.997 532.278 551.958 532.285 551.907 532.296C551.806 532.317 551.655 532.35 551.459 532.391C551.066 532.473 550.489 532.594 549.755 532.748C548.287 533.056 546.19 533.494 543.673 534.02C538.638 535.07 531.919 536.467 525.187 537.851C518.455 539.235 511.706 540.607 506.612 541.608C504.067 542.108 501.927 542.517 500.407 542.788C499.65 542.924 499.032 543.027 498.591 543.091C498.375 543.122 498.176 543.148 498.016 543.161C497.941 543.167 497.835 543.175 497.724 543.172C497.672 543.171 497.571 543.166 497.451 543.145C497.423 543.14 497.112 543.094 496.801 542.861C496.815 542.872 496.824 542.879 496.828 542.882C496.855 542.901 496.875 542.913 496.883 542.918C496.898 542.928 496.905 542.932 496.895 542.926C496.877 542.916 496.84 542.895 496.778 542.862C496.657 542.799 496.476 542.706 496.234 542.583C495.751 542.339 495.051 541.989 494.161 541.55C492.384 540.672 489.865 539.438 486.852 537.968C480.826 535.028 472.829 531.145 464.845 527.275C456.861 523.404 448.891 519.547 442.916 516.657C439.929 515.212 437.44 514.009 435.698 513.167C434.828 512.746 434.144 512.416 433.678 512.191C433.445 512.078 433.266 511.991 433.146 511.933C433.086 511.904 433.04 511.882 433.009 511.867C432.994 511.86 432.982 511.854 432.975 511.851C432.971 511.849 432.968 511.847 432.966 511.846L432.963 511.845L432.838 511.784L432.726 511.702L432.724 511.7C432.722 511.699 432.72 511.698 432.717 511.695C432.711 511.691 432.703 511.685 432.692 511.677C432.668 511.66 432.633 511.634 432.588 511.601C432.497 511.534 432.36 511.433 432.184 511.303C431.83 511.043 431.312 510.661 430.653 510.174C429.333 509.201 427.447 507.809 425.182 506.134C420.652 502.785 414.606 498.303 408.542 493.778C402.479 489.253 396.394 484.68 391.787 481.149C389.485 479.384 387.544 477.873 386.157 476.756C385.466 476.199 384.9 475.729 384.491 475.37C384.289 475.193 384.109 475.027 383.966 474.883C383.895 474.812 383.817 474.729 383.744 474.641C383.699 474.586 383.548 474.404 383.447 474.151C383.323 473.837 383.327 473.555 383.331 473.446C383.336 473.303 383.356 473.171 383.375 473.069C383.413 472.864 383.474 472.638 383.542 472.417C383.68 471.967 383.891 471.386 384.153 470.711C384.681 469.353 385.459 467.509 386.4 465.359C388.282 461.053 390.842 455.453 393.414 449.907C395.988 444.359 398.578 438.856 400.525 434.74C401.498 432.683 402.312 430.971 402.881 429.775C403.166 429.176 403.389 428.706 403.542 428.386C403.618 428.226 403.677 428.103 403.717 428.021C403.737 427.98 403.751 427.948 403.761 427.927C403.766 427.916 403.77 427.908 403.773 427.903C403.774 427.9 403.775 427.898 403.776 427.897L403.777 427.896C403.781 427.897 403.845 427.927 404.805 428.386L403.777 427.896L404.037 427.349L404.604 427.137L405.13 428.541C404.637 427.226 404.605 427.142 404.604 427.137L404.607 427.136C404.608 427.135 404.61 427.135 404.612 427.134C404.617 427.132 404.624 427.129 404.633 427.126C404.65 427.12 404.675 427.11 404.706 427.099C404.769 427.076 404.862 427.043 404.983 427.001C405.225 426.916 405.582 426.794 406.05 426.641C406.987 426.335 408.371 425.907 410.176 425.41C413.786 424.417 419.085 423.15 425.874 422.038ZM496.657 542.74C496.706 542.788 496.752 542.824 496.784 542.849C496.742 542.816 496.699 542.781 496.657 542.74ZM482.62 423.666C458.989 421.229 439.713 422.812 426.36 424.998C419.683 426.091 414.488 427.336 410.972 428.303C409.214 428.787 407.875 429.201 406.981 429.492C406.672 429.593 406.417 429.681 406.215 429.75C406.064 430.066 405.853 430.51 405.59 431.064C405.021 432.259 404.209 433.968 403.236 436.024C401.291 440.135 398.704 445.63 396.135 451.169C393.565 456.71 391.017 462.286 389.149 466.561C388.213 468.7 387.454 470.498 386.949 471.797C386.737 472.343 386.578 472.783 386.469 473.114C386.47 473.115 386.472 473.116 386.473 473.117C386.833 473.434 387.36 473.872 388.04 474.42C389.398 475.514 391.316 477.007 393.612 478.768C398.204 482.287 404.277 486.85 410.337 491.373C416.396 495.895 422.438 500.374 426.965 503.722C429.229 505.396 431.114 506.787 432.433 507.76C433.092 508.246 433.61 508.628 433.963 508.888C434.14 509.018 434.275 509.118 434.366 509.185C434.375 509.191 434.384 509.197 434.392 509.203C434.409 509.212 434.429 509.221 434.45 509.232C434.571 509.29 434.75 509.377 434.983 509.489C435.449 509.715 436.133 510.045 437.004 510.466C438.746 511.308 441.235 512.511 444.223 513.956C450.198 516.846 458.169 520.705 466.153 524.575C474.138 528.446 482.138 532.33 488.167 535.272C491.181 536.742 493.705 537.979 495.489 538.861C496.381 539.301 497.092 539.655 497.588 539.906C497.763 539.995 497.914 540.072 498.038 540.137C498.076 540.132 498.117 540.129 498.161 540.122C498.552 540.066 499.131 539.969 499.88 539.835C501.374 539.568 503.493 539.164 506.034 538.664C511.115 537.666 517.853 536.296 524.582 534.912C531.311 533.529 538.027 532.132 543.061 531.082C545.577 530.557 547.673 530.119 549.14 529.812C549.769 529.68 550.283 529.571 550.664 529.491L565.782 492.391L562.987 444.332C562.785 444.24 562.545 444.131 562.268 444.008C561.256 443.56 559.753 442.911 557.798 442.116C553.888 440.527 548.174 438.354 540.978 436.027C526.582 431.371 506.272 426.106 482.62 423.666Z" fill="#17091D"/>
<path d="M657.505 882.546C657.354 882.545 657.204 882.524 657.058 882.484C656.739 882.393 656.455 882.208 656.244 881.952C656.033 881.696 655.905 881.382 655.877 881.051C655.34 874.818 650.736 819.909 654.693 811.596C657.516 805.676 648.879 783 645.192 773.32C644.138 770.553 643.375 768.553 643.044 767.455C641.377 762 635.116 693.716 634.851 690.811C634.844 690.72 634.844 690.629 634.851 690.538C634.913 689.716 641.082 607.92 643.753 573.906C644.876 559.582 644.97 559.066 645.003 558.898C645.366 556.931 659.899 528.767 666.134 516.753C666.271 516.486 666.48 516.262 666.736 516.106C666.993 515.95 667.287 515.868 667.587 515.869H667.642C667.952 515.878 668.254 515.975 668.511 516.149C668.768 516.323 668.971 516.566 669.095 516.851C669.342 517.422 693.984 574.186 700.509 603.815C707.307 634.684 718.974 684.422 720.976 691.058C722.538 696.244 722.989 701.538 723.385 706.215C723.53 707.916 723.664 709.524 723.846 711.08C724.231 714.393 727.697 718.313 731.051 722.109C733.078 724.404 735.178 726.778 736.679 729.113C739.902 734.127 742.63 758.866 745.152 783.775C745.515 787.371 745.828 790.48 746.064 792.564C747.43 804.658 747.768 858.746 747.782 861.036C747.784 861.252 747.743 861.467 747.662 861.667C747.581 861.867 747.461 862.048 747.309 862.202C747.156 862.355 746.975 862.476 746.776 862.559C746.577 862.642 746.363 862.684 746.147 862.684H746.097C744.538 862.684 707.67 862.767 681.514 869.935C670.015 873.084 662.381 877.102 658.831 881.873C658.679 882.082 658.48 882.252 658.249 882.369C658.019 882.486 657.763 882.547 657.505 882.546Z" fill="#CE44A2"/>
<path d="M667.58 517.52C667.58 517.52 692.33 574.364 698.9 604.182C705.469 634.001 717.339 684.724 719.395 691.546C721.452 698.368 721.51 705.295 722.207 711.284C722.905 717.273 731.323 723.851 735.287 730.015C739.251 736.179 743.048 780.619 744.422 792.764C745.795 804.91 746.129 861.062 746.129 861.062H746.078C744.52 861.062 707.452 861.139 681.063 868.371C670.527 871.259 661.687 875.28 657.501 880.91C657.501 880.91 652.284 820.451 656.164 812.317C660.045 804.182 646.242 772.364 644.607 766.993C642.972 761.622 636.479 690.677 636.479 690.677C636.479 690.677 642.677 608.455 645.381 574.048C646.067 565.27 646.532 559.604 646.605 559.211C646.968 557.273 667.58 517.52 667.58 517.52ZM667.58 514.248C666.981 514.247 666.393 514.411 665.88 514.722C665.367 515.033 664.95 515.479 664.674 516.011C664.623 516.113 659.456 526.077 654.315 536.15C643.702 556.931 643.528 557.862 643.386 558.608C643.335 558.884 643.244 559.382 642.118 573.793C639.444 607.811 633.278 689.608 633.216 690.43C633.2 690.611 633.2 690.794 633.216 690.975C633.885 698.273 639.789 762.43 641.471 767.95C641.834 769.099 642.594 771.121 643.651 773.917C645.722 779.371 648.858 787.586 651.045 795.142C654.435 806.859 653.552 810.171 653.203 810.906C652.436 812.513 651.543 815.731 651.455 826.44C651.405 832.531 651.623 840.401 652.102 849.83C652.912 865.83 654.22 881.041 654.231 881.19C654.287 881.852 654.544 882.481 654.966 882.994C655.388 883.507 655.956 883.879 656.594 884.061C657.233 884.243 657.911 884.226 658.54 884.012C659.169 883.799 659.718 883.399 660.114 882.866C663.384 878.455 670.934 874.535 681.914 871.528C707.859 864.415 744.516 864.335 746.064 864.335H746.115C746.546 864.335 746.972 864.25 747.37 864.084C747.768 863.919 748.129 863.676 748.433 863.37C748.737 863.064 748.978 862.701 749.141 862.302C749.304 861.903 749.387 861.475 749.385 861.044C749.385 858.742 749.021 804.575 747.655 792.397C747.423 790.32 747.107 787.219 746.743 783.626C743.568 752.2 741.122 733.081 738.023 728.244C736.45 725.804 734.31 723.382 732.243 721.04C729.205 717.6 725.764 713.706 725.437 710.906C725.259 709.375 725.125 707.779 724.98 706.091C724.576 701.335 724.122 695.946 722.509 690.601C720.558 684.135 708.702 633.651 702.075 603.477C695.513 573.691 671.577 518.546 670.56 516.204C670.311 515.635 669.905 515.149 669.391 514.801C668.876 514.454 668.273 514.261 667.653 514.244L667.58 514.248Z" fill="#17091D"/>
<path d="M704.012 744.547C690.932 748.183 678.502 742.423 674.36 760.576C670.218 778.729 675.01 808.594 679.883 814.936C682.084 817.798 681.14 869.281 680.94 874.91C670.403 877.798 659.692 883.47 655.507 889.092C655.507 889.092 652.287 820.452 656.168 812.318C660.048 804.183 646.242 772.365 644.607 766.994C642.972 761.623 636.479 690.678 636.479 690.678C636.479 690.678 642.677 608.456 645.38 574.049L665.727 568.678C665.727 568.678 667.427 644.729 665.727 668.456C664.027 692.183 643.484 729.91 667.544 726.143C691.604 722.376 706.184 716.005 701.81 723.732C697.435 731.46 685.547 728.46 679.814 733.82C674.08 739.18 693.377 733.82 705.214 735.187C717.052 736.554 717.092 740.91 704.012 744.547Z" fill="#9C398C"/>
<path d="M642.79 752.786C646.786 750.241 650.805 747.779 654.838 745.321C658.871 742.863 662.926 740.448 667.002 738.048C671.079 735.648 675.199 733.339 679.356 731.088L682.502 729.434C683.552 728.884 684.628 728.368 685.689 727.834L686.488 727.437L687.302 727.074L688.937 726.328C689.209 726.208 689.475 726.074 689.758 725.964L690.604 725.63L692.298 724.964C692.594 724.837 692.93 724.832 693.23 724.952C693.53 725.071 693.77 725.306 693.898 725.603C694.026 725.9 694.03 726.235 693.911 726.536C693.791 726.836 693.557 727.077 693.26 727.204L693.17 727.248L691.618 727.975L690.844 728.339C690.586 728.455 690.332 728.604 690.074 728.739L688.541 729.554L687.774 729.961L687.018 730.394C686.008 730.979 684.995 731.546 683.992 732.146L680.994 733.964C676.998 736.434 673.085 738.983 669.175 741.579C665.266 744.175 661.396 746.83 657.548 749.503C653.701 752.175 649.846 754.888 646.049 757.615C645.423 758.065 644.643 758.248 643.883 758.123C643.122 757.997 642.442 757.575 641.992 756.948C641.543 756.321 641.36 755.541 641.486 754.78C641.611 754.019 642.033 753.338 642.659 752.888L642.79 752.786Z" fill="#17091D"/>
<path d="M709.555 731.228H709.659C709.659 731.228 709.66 731.245 709.643 732.728L709.66 731.228C710.488 731.237 711.152 731.916 711.143 732.744C711.135 733.521 710.537 734.153 709.78 734.222L709.627 734.228H709.54C709.479 734.227 709.388 734.226 709.268 734.227C709.028 734.227 708.67 734.229 708.209 734.235C707.286 734.249 705.948 734.281 704.296 734.356C700.989 734.508 696.435 734.835 691.441 735.531C681.358 736.938 669.841 739.81 663.009 745.516C662.373 746.047 661.426 745.961 660.895 745.325C660.365 744.689 660.449 743.744 661.085 743.213C668.622 736.919 680.903 733.972 691.026 732.561C696.135 731.848 700.785 731.515 704.158 731.36C705.845 731.283 707.215 731.249 708.166 731.235C708.641 731.229 709.012 731.227 709.265 731.227C709.392 731.226 709.489 731.227 709.555 731.228Z" fill="#17091D"/>
<path d="M669.03 744.549C678.622 737.96 681.648 740.716 670.901 747.374C670.869 747.395 670.835 747.413 670.799 747.429C664.139 750.469 658.257 754.702 651.968 758.276C651.769 758.39 651.536 758.428 651.311 758.384C651.086 758.34 650.885 758.216 650.744 758.035C650.603 757.854 650.532 757.629 650.544 757.4C650.556 757.171 650.65 756.954 650.809 756.789C655.02 752.432 665.131 747.411 669.03 744.549Z" fill="#5C2C66"/>
<path d="M659.579 896.811C658.358 896.816 657.161 896.461 656.14 895.791C655.118 895.12 654.317 894.163 653.835 893.04C652.335 889.516 651.79 885.367 651.601 882.494C651.483 880.794 651.779 879.091 652.465 877.531C653.15 875.971 654.204 874.6 655.535 873.538C660.121 869.902 669.066 866.142 680.718 862.916C696.454 858.553 714.617 855.865 728.126 855.865C741.271 855.865 749.058 858.309 751.277 863.138C755.347 871.974 753.636 878.243 751.485 881.942C750.532 883.568 749.172 884.918 747.537 885.856C745.903 886.794 744.053 887.289 742.169 887.291C741.613 887.29 741.058 887.248 740.508 887.163C735.83 886.48 731.106 886.153 726.378 886.185C700.76 886.185 670.062 894.145 661.265 896.585C660.716 896.736 660.149 896.812 659.579 896.811Z" fill="#CE44A2"/>
<path d="M728.126 857.512C739.259 857.512 747.746 859.331 749.792 863.818C753.454 871.771 752.204 877.447 750.071 881.116C749.264 882.497 748.109 883.642 746.722 884.437C745.335 885.233 743.764 885.651 742.165 885.651C741.693 885.65 741.222 885.614 740.756 885.542C735.995 884.845 731.189 884.512 726.378 884.545C700.833 884.545 670.712 892.262 660.829 895.003C659.755 895.304 658.607 895.206 657.599 894.728C656.59 894.25 655.788 893.423 655.34 892.4C653.926 889.083 653.414 885.127 653.232 882.396C653.132 880.961 653.382 879.523 653.96 878.205C654.538 876.888 655.426 875.73 656.549 874.832C661.218 871.142 670.356 867.494 681.154 864.505C696.076 860.382 714.189 857.516 728.126 857.512ZM728.126 854.24C714.476 854.24 696.153 856.967 680.279 861.349C671.889 863.672 660.611 867.447 654.518 872.258C652.979 873.484 651.76 875.066 650.967 876.869C650.174 878.671 649.83 880.639 649.966 882.603C650.166 885.592 650.736 889.942 652.327 893.676C652.936 895.098 653.95 896.308 655.243 897.155C656.535 898.003 658.049 898.449 659.594 898.44C660.311 898.439 661.025 898.342 661.716 898.152C670.465 895.723 700.985 887.811 726.389 887.811C731.032 887.778 735.671 888.098 740.265 888.767C741.988 889.036 743.748 888.94 745.432 888.483C746.993 888.067 748.457 887.346 749.741 886.363C751.024 885.38 752.1 884.153 752.909 882.752C755.256 878.72 757.135 871.916 752.771 862.44C750.228 856.92 742.173 854.232 728.141 854.232L728.126 854.24Z" fill="#17091D"/>
<path d="M744.567 885.331C743.325 885.667 742.027 885.739 740.755 885.542C713.484 881.313 672.66 891.724 660.822 894.996C659.747 895.299 658.599 895.203 657.59 894.724C656.58 894.245 655.778 893.417 655.332 892.393C653.919 889.076 653.406 885.12 653.225 882.389C653.125 880.954 653.375 879.516 653.952 878.198C654.53 876.881 655.419 875.723 656.542 874.825C661.211 871.134 670.349 867.487 681.147 864.498C681.147 864.498 677.365 875.745 681.147 879.142C684.929 882.538 703.274 880.356 712.448 880.902C721.622 881.447 741.253 882.545 741.253 882.545L744.567 885.331Z" fill="#9C398C"/>
<path d="M237.673 885.636C237.272 885.635 236.884 885.487 236.585 885.218C236.285 884.95 236.095 884.581 236.049 884.182C235.977 883.582 228.586 823.894 227.18 813.767C226.755 810.691 226.257 805.833 225.687 800.207C224.368 787.283 222.566 769.582 220.324 761.993C220.124 761.324 219.935 760.633 219.761 759.949C217.512 751.334 218.246 746.054 219.583 736.473C219.801 734.924 220.034 733.254 220.273 731.425C220.902 726.644 222.228 721.916 224.426 714.084C228.746 698.676 236.78 669.993 250.172 602.585C257.657 564.873 266.035 537.756 275.064 522.018C282.392 509.24 288.333 507.334 291.221 507.334C291.66 507.329 292.097 507.38 292.522 507.487L337.688 514.033C337.905 514.064 338.113 514.139 338.3 514.253C338.488 514.366 338.65 514.517 338.778 514.694L372.528 561.454C372.736 561.74 372.844 562.086 372.837 562.44L371.322 646.713C371.316 647.034 371.216 647.346 371.035 647.611L369.622 649.665L369.578 649.731L350.532 677.367L343.338 723.422C343.32 723.524 343.294 723.625 343.258 723.724C340.5 731.334 333.811 752.404 336.079 758.444C339.065 766.476 348.105 854.891 348.49 858.651C348.515 858.88 348.492 859.111 348.421 859.331C348.351 859.55 348.235 859.752 348.082 859.923C347.928 860.095 347.74 860.232 347.53 860.326C347.32 860.42 347.092 860.469 346.862 860.469C346.786 860.476 346.71 860.476 346.633 860.469C344.355 860.149 342.005 859.891 339.643 859.709C336.707 859.48 333.702 859.364 330.716 859.364C326.234 859.362 321.756 859.604 317.302 860.091C276.114 864.625 238.843 885.233 238.458 885.44C238.217 885.571 237.947 885.638 237.673 885.636Z" fill="#CE44A2"/>
<path d="M291.221 508.97C291.543 508.96 291.864 509 292.173 509.09L337.456 515.636L371.202 562.396L370.988 574.33L370.624 595.348V595.37L369.701 646.668L368.248 648.785L348.991 676.745L341.725 723.167C341.725 723.167 331.595 751.09 334.545 759.018C337.496 766.945 346.862 858.821 346.862 858.821C344.484 858.482 342.12 858.224 339.77 858.047C336.718 857.804 333.7 857.683 330.716 857.683C326.175 857.686 321.637 857.939 317.123 858.439C275.097 863.079 237.673 883.999 237.673 883.999C237.673 883.999 230.225 823.818 228.801 813.559C227.377 803.301 225.138 772.545 221.897 761.559C221.694 760.876 221.511 760.214 221.349 759.574C218.827 749.916 220.172 744.778 221.897 731.668C223.736 717.687 231.682 704.192 251.778 602.941C269.305 514.636 286.989 508.988 291.225 508.988M291.225 505.716C289.586 505.716 286.967 506.221 283.766 508.625C280.369 511.188 276.964 515.425 273.651 521.207C264.531 537.09 256.091 564.363 248.573 602.287C235.21 669.632 227.173 698.287 222.857 713.661C220.64 721.563 219.303 726.334 218.66 731.232C218.42 733.05 218.191 734.683 217.97 736.265C216.607 746.054 215.855 751.45 218.188 760.392C218.366 761.079 218.551 761.788 218.766 762.483C220.946 769.916 222.762 787.53 224.067 800.392C224.641 806.032 225.138 810.905 225.571 814.01C226.973 824.127 234.36 883.799 234.436 884.403C234.502 884.935 234.698 885.443 235.006 885.882C235.314 886.321 235.725 886.677 236.203 886.919C236.681 887.162 237.211 887.283 237.747 887.272C238.283 887.261 238.808 887.119 239.276 886.857C239.367 886.807 248.69 881.628 262.961 875.948C276.078 870.741 296.188 864.039 317.487 861.698C321.882 861.213 326.301 860.97 330.723 860.97C333.666 860.97 336.627 861.087 339.527 861.308C341.848 861.49 344.166 861.741 346.412 862.061C346.563 862.083 346.716 862.094 346.87 862.094C347.328 862.096 347.782 862.002 348.202 861.817C348.622 861.632 348.999 861.361 349.307 861.021C349.615 860.682 349.849 860.281 349.992 859.844C350.136 859.408 350.186 858.947 350.14 858.49C350.118 858.257 347.767 835.217 345.086 811.523C339.617 763.207 338.124 759.192 337.634 757.876C337.288 756.945 336.453 752.839 340.199 739.018C342.299 731.265 344.795 724.356 344.82 724.287C344.892 724.089 344.945 723.884 344.977 723.676L352.116 677.992L370.948 650.647L371.013 650.548L372.405 648.527C372.773 647.991 372.974 647.358 372.982 646.708L373.905 595.41V595.363L374.269 574.37L374.483 562.436C374.496 561.728 374.279 561.035 373.865 560.461L340.108 513.719C339.852 513.364 339.527 513.063 339.152 512.836C338.778 512.609 338.361 512.459 337.928 512.396L292.849 505.879C292.316 505.754 291.769 505.693 291.221 505.698L291.225 505.716Z" fill="#17091D"/>
<path d="M371.562 574L370.61 595.349V595.371L368.23 648.785L348.973 676.745L341.707 723.167C341.707 723.167 331.595 751.091 334.545 759.018C337.496 766.945 346.499 857.367 346.499 857.367C344.12 857.028 341.756 856.77 339.407 856.593C338.404 844.982 333.88 794.589 333.168 788.164C332.198 779.415 325.782 760.527 317.788 756.891C309.795 753.255 290.538 749.982 291.567 748.222C292.595 746.462 310.885 748.891 320.372 751.916C329.858 754.942 324.692 749.982 322.148 746.709C319.605 743.436 286.542 735.073 279.424 733.8C272.306 732.527 250.208 732.527 242.942 730.709C235.675 728.891 238.582 726.709 256.748 723.436C274.915 720.164 302.165 730.345 312.575 733.553C322.984 736.76 315.608 727.073 312.527 721.32C309.446 715.567 298.895 701.982 303.887 701.753C308.879 701.524 309.068 706.364 318.697 720.76C328.325 735.156 325.418 714.727 325.451 707.669C325.484 700.611 331.595 694 332.322 684.182C333.048 674.364 337.045 670 339.57 662C342.095 654 345.038 643.818 348.021 633.105C351.004 622.393 365.443 577.545 365.443 577.545L370.988 574.342L371.562 574Z" fill="#9C398C"/>
<path d="M324.51 858.909C282.491 863.534 237.673 884 237.673 884C237.673 884 230.225 823.818 228.801 813.56C227.377 803.301 225.138 772.545 221.898 761.56C221.694 760.876 221.511 760.214 221.349 759.574C223.296 764.523 225.636 769.636 228.23 773.465C235.134 783.647 238.073 797.949 238.785 806.251C239.497 814.552 244.166 833.596 247.098 835.894C250.03 838.192 257.388 852.185 271.463 853.818C275.249 854.258 320.804 857.92 324.51 858.909Z" fill="#9C398C"/>
<path d="M320.997 738.563C336.031 742.28 335.97 747.731 319.841 742.927C319.792 742.912 319.743 742.894 319.696 742.873C310.783 738.934 301.362 736.832 292.257 733.72C291.972 733.619 291.733 733.42 291.581 733.159C291.43 732.897 291.377 732.59 291.432 732.293C291.487 731.996 291.646 731.728 291.88 731.537C292.115 731.347 292.409 731.247 292.711 731.254C300.763 731.589 314.7 737.211 320.997 738.563Z" fill="#5C2C66"/>
<path d="M255.346 917.091C252.52 917.093 249.787 916.077 247.647 914.229C241.387 908.818 236.66 900.047 235.889 892.411C235.647 889.941 236.092 887.452 237.177 885.22C238.261 882.988 239.942 881.101 242.033 879.767C262.38 866.909 284.104 859.098 306.569 856.545C311.716 855.956 316.892 855.658 322.072 855.654C336.297 855.654 344.984 857.938 345.347 858.032C345.7 858.127 346.011 858.337 346.23 858.629C353.428 868.163 353.348 875.971 352.011 880.843C351.162 884.043 349.499 886.968 347.186 889.334C346.884 889.613 346.488 889.768 346.078 889.767H345.99C343.898 889.654 341.772 889.596 339.668 889.596C333.257 889.605 326.855 890.119 320.524 891.134C292.079 895.669 270.268 909.276 262.213 914.916C260.202 916.331 257.804 917.09 255.346 917.091Z" fill="#CE44A2"/>
<path d="M322.076 857.29C336.246 857.29 344.929 859.614 344.929 859.614C358.086 877.046 346.081 888.13 346.081 888.13C343.921 888.014 341.784 887.955 339.672 887.955C333.174 887.962 326.686 888.483 320.27 889.515C291.952 894.028 270.373 907.206 261.29 913.57C259.551 914.79 257.48 915.445 255.357 915.446C252.922 915.452 250.568 914.578 248.726 912.985C243.094 908.115 238.291 899.795 237.528 892.225C237.31 890.059 237.699 887.876 238.652 885.92C239.604 883.963 241.082 882.311 242.92 881.148C266.595 866.199 289.012 860.188 306.769 858.17C311.854 857.587 316.968 857.293 322.087 857.29M322.087 854.017C316.844 854.021 311.606 854.322 306.398 854.919C283.686 857.501 261.741 865.392 241.176 878.381C238.829 879.877 236.942 881.993 235.724 884.496C234.505 887 234.003 889.791 234.273 892.563C235.079 900.595 240.028 909.799 246.586 915.472C249.021 917.581 252.133 918.743 255.353 918.745C258.148 918.747 260.875 917.885 263.161 916.275C271.126 910.701 292.682 897.254 320.793 892.774C327.041 891.77 333.359 891.261 339.687 891.254C341.761 891.254 343.858 891.312 345.918 891.425H346.096C346.917 891.425 347.708 891.116 348.312 890.559C350.852 887.982 352.668 884.78 353.577 881.275C355.008 876.05 355.121 867.708 347.524 857.639C347.085 857.057 346.465 856.639 345.761 856.45C345.398 856.348 336.5 854.014 322.061 854.014L322.087 854.017Z" fill="#17091D"/>
<path d="M320.27 889.515C291.952 894.028 270.373 907.206 261.29 913.57C259.429 914.885 257.183 915.541 254.908 915.435C252.632 915.329 250.457 914.466 248.726 912.984C243.094 908.115 238.291 899.795 237.528 892.224C237.31 890.059 237.699 887.876 238.652 885.92C239.604 883.963 241.082 882.311 242.92 881.148C266.595 866.199 289.012 860.188 306.769 858.17C306.144 858.395 286.026 865.544 275.293 871.363C264.393 877.272 267.917 894.759 275.293 894.839C281.637 894.908 326.327 888.726 326.327 888.726L320.27 889.515Z" fill="#9C398C"/>
<path d="M498.91 899.011C480.743 899.011 462.464 898.211 444.577 896.636L442.644 896.462C435.25 895.789 427.853 894.974 420.652 894.04C383.675 889.265 361.254 882.64 361.029 882.574C360.692 882.473 360.396 882.266 360.186 881.984C359.976 881.702 359.862 881.359 359.862 881.007V845.371C359.863 844.937 360.036 844.521 360.342 844.215C360.649 843.908 361.064 843.735 361.497 843.734L365.062 843.796L409.973 844.56L539.665 846.767C584.188 847.52 624.216 848.2 624.99 848.2C626.858 848.2 634.172 852.265 639.978 855.676C640.177 855.793 640.349 855.95 640.483 856.138C640.617 856.326 640.71 856.541 640.755 856.767L640.777 856.883L646.227 887.353C646.293 887.731 646.224 888.12 646.032 888.452C645.84 888.785 645.537 889.039 645.177 889.171C644.814 889.298 642.405 890.003 629.052 891.353C626.422 891.618 623.377 891.902 619.747 892.222C618.56 892.328 617.315 892.435 616.012 892.542C611.053 892.963 605.755 893.382 600.262 893.793C598.484 893.926 596.633 894.062 594.71 894.2C579.05 895.331 560.074 896.542 538.313 897.793L537.95 897.814L534.618 898.003L533.02 898.091C529.187 898.302 525.266 898.48 521.03 898.633H520.866C519.5 898.68 518.134 898.723 516.779 898.76C510.849 898.909 504.836 899.011 498.91 899.011Z" fill="#CE44A2"/>
<path d="M361.494 845.352L365.029 845.414L409.941 846.178L539.651 848.385C586.463 849.178 624.307 849.818 625.005 849.818C626.822 849.818 639.175 857.069 639.175 857.069L639.197 857.185L644.647 887.636C644.647 887.636 642.743 888.33 628.918 889.716C626.28 889.981 623.207 890.269 619.631 890.585C618.447 890.692 617.204 890.798 615.904 890.905C611.395 891.269 606.184 891.705 600.171 892.152C598.396 892.286 596.546 892.421 594.623 892.559C580.282 893.596 561.872 894.792 538.248 896.152L534.517 896.363L532.922 896.45C528.889 896.671 524.904 896.85 520.968 896.989C519.551 897.036 518.138 897.083 516.732 897.119C510.662 897.294 504.719 897.379 498.903 897.374C479.119 897.374 460.935 896.436 444.715 895.007L442.786 894.832C434.996 894.105 427.671 893.301 420.859 892.418C383.585 887.603 361.494 881.007 361.494 881.007V845.37M361.494 842.098C360.627 842.098 359.795 842.442 359.182 843.056C358.568 843.67 358.224 844.502 358.224 845.37V881.007C358.224 881.711 358.452 882.397 358.873 882.962C359.294 883.526 359.885 883.94 360.56 884.141C361.472 884.414 383.33 890.869 420.441 895.665C427.657 896.599 435.076 897.418 442.488 898.09L444.421 898.265C462.366 899.847 480.693 900.647 498.921 900.647C504.869 900.647 510.911 900.559 516.844 900.392C518.261 900.356 519.7 900.305 521.095 900.258C525.354 900.105 529.285 899.93 533.118 899.719H533.427L534.713 899.65L537.754 899.476L538.412 899.439C560.157 898.185 579.141 896.978 594.837 895.843C596.775 895.705 598.628 895.568 600.396 895.432C605.876 895.025 611.18 894.607 616.158 894.185C617.462 894.076 618.701 893.97 619.9 893.861C623.534 893.541 626.589 893.254 629.223 892.989C642.067 891.705 645.057 890.981 645.744 890.73C646.465 890.467 647.07 889.959 647.454 889.294C647.838 888.629 647.976 887.85 647.844 887.094L642.394 856.643V856.614L642.369 856.498C642.283 856.038 642.1 855.603 641.831 855.22C641.563 854.837 641.216 854.517 640.814 854.279C640.683 854.203 637.645 852.421 634.328 850.603C627.53 846.847 626.077 846.545 624.987 846.545C624.013 846.545 584.083 845.865 539.687 845.112L496.189 844.385L409.995 842.93L365.084 842.167L361.552 842.105L361.494 842.098Z" fill="#17091D"/>
<path d="M644.607 887.635C644.607 887.635 642.703 888.33 628.878 889.715C628.66 883.246 628.475 877.268 628.515 876.17C628.58 873.624 622.639 873.988 620.46 876.534C619.257 877.937 619.602 884.654 619.606 890.574C618.421 890.68 617.179 890.787 615.878 890.894C615.878 886.501 616.107 881.639 615.812 878.923C615.162 872.948 607.379 876.897 603.303 877.377C599.226 877.857 599.75 881.261 600.113 889.988C600.142 890.715 600.153 891.443 600.146 892.141C598.37 892.274 596.521 892.41 594.597 892.548C595.099 887.243 595.6 881.755 594.438 879.821C592.032 875.854 567.413 881.606 567.413 881.606C567.413 881.606 545.613 882.334 538.346 883.788C532.507 884.955 536.991 888.941 538.223 896.123L534.517 896.363L532.922 896.45C532.787 890.181 532.435 884.061 530.124 883.315C525.19 881.726 522.345 885.635 521.255 891.817C521.01 893.529 520.914 895.259 520.968 896.988C519.551 897.035 518.138 897.083 516.731 897.119C516.448 892.755 516.241 888.614 515.805 886.726C514.715 881.999 506.358 885.635 497.239 883.315C488.119 880.995 481.288 885.635 470.399 885.461C459.51 885.286 451.143 883.817 447.022 884.37C445.3 884.595 444.842 889.461 444.715 895.017L442.786 894.843C442.466 889.814 441.333 885.388 437.994 884.494C429.579 882.246 423.882 876.555 419.522 879.828C418.163 880.846 419.027 885.923 420.859 892.428C383.584 887.614 361.494 881.017 361.494 881.017V845.381L365.029 845.443L409.941 846.206L410.257 846.614C419.885 858.832 505.995 856.574 522.439 856.199C534.6 855.923 537.024 854.57 537.46 853.886L535.643 865.944L536.275 865.89L639.157 857.184L644.607 887.635Z" fill="#9C398C"/>
<path d="M535.821 869.305C535.458 869.305 499.622 868.33 460.818 865.116C408.498 860.781 375.98 854.61 364.128 846.781C363.343 846.27 362.597 845.699 361.897 845.076C342.582 827.741 345.097 806.872 347.117 790.101C347.48 786.999 347.843 784.072 348.051 781.287C349.268 764.989 348.003 746.923 346.779 729.454C346.648 727.585 346.518 725.715 346.39 723.843C344.937 702.614 348.021 680.687 353.878 670.527C359.303 661.119 363.194 607.214 361.37 592.989C360.829 588.781 359.19 575.97 354.787 562.919C349.758 547.989 342.608 536.796 333.535 529.661L333.463 529.599C333.379 529.53 333.299 529.469 333.216 529.407L333.009 529.243C311.75 513.021 291.447 508.759 291.243 508.727C290.907 508.659 290.601 508.488 290.367 508.236C290.134 507.985 289.985 507.666 289.943 507.326C289.9 506.985 289.966 506.64 290.13 506.338C290.294 506.037 290.549 505.795 290.858 505.647L332.169 485.767L381.096 462.934C381.312 462.833 381.547 462.78 381.786 462.781H421.389C421.543 462.781 421.696 462.803 421.844 462.847L498.1 485.029C498.479 485.138 498.805 485.381 499.019 485.712L523.188 523.13C526.521 528.287 529.243 533.814 531.301 539.599C537.707 557.629 552.095 604.469 547.35 649.949C542.223 699.039 543.251 722.261 543.8 734.734C543.905 737.047 543.993 739.047 544.014 740.705C544.145 750.818 543.201 814.41 542.943 830.887C542.863 835.839 542.292 841.818 541.249 848.654C540.087 856.261 538.637 862.941 537.881 866.25C537.616 867.421 537.453 868.069 537.453 868.069C537.365 868.424 537.161 868.739 536.873 868.965C536.585 869.19 536.23 869.312 535.865 869.312L535.821 869.305Z" fill="#CE44A2"/>
<path d="M421.389 464.41L497.646 486.592L521.8 523.999C525.065 529.05 527.732 534.463 529.746 540.13C536.555 559.29 550.376 605.036 545.707 649.759C539.589 708.367 542.23 730.487 542.365 740.709C542.499 750.93 541.54 815.138 541.293 830.843C541.202 836.403 540.493 842.647 539.618 848.389C538.452 856.025 536.984 862.763 536.272 865.865C536.01 867.021 535.85 867.683 535.85 867.683C535.85 867.683 393.031 863.945 365.014 845.429C364.297 844.963 363.616 844.444 362.976 843.876C340.86 823.999 348.33 799.541 349.682 781.407C351.033 763.272 349.373 743.458 348.021 723.73C346.67 704.003 349.384 681.596 355.288 671.345C361.192 661.094 364.764 606.654 362.983 592.781C362.119 586.036 360.389 574.439 356.327 562.396C352.12 549.901 345.405 536.941 334.527 528.374C334.407 528.276 334.291 528.181 334.164 528.094L333.96 527.934C312.157 511.272 291.567 507.116 291.567 507.116L332.867 487.236L381.775 464.41H421.378M421.378 461.138H381.775C381.298 461.138 380.827 461.242 380.394 461.443L331.497 484.269H331.461L290.15 504.149C289.532 504.446 289.024 504.93 288.697 505.532C288.369 506.134 288.239 506.824 288.324 507.504C288.409 508.184 288.705 508.82 289.171 509.323C289.637 509.825 290.249 510.169 290.92 510.305C291.116 510.345 311.092 514.559 331.977 530.509L332.02 530.538L332.053 530.567L332.14 530.636L332.242 530.712L332.387 530.829L332.511 530.93C341.329 537.865 348.297 548.799 353.221 563.421C357.581 576.323 359.197 589.01 359.732 593.181C360.571 599.727 360.16 616.519 358.754 633.127C357.185 651.672 354.758 665.665 352.447 669.69C346.441 680.105 343.273 702.418 344.744 723.934C344.87 725.808 345 727.678 345.133 729.545C346.354 746.959 347.611 764.963 346.408 781.145C346.201 783.894 345.852 786.803 345.478 789.872C344.461 798.323 343.298 807.901 344.86 817.559C346.677 828.887 351.891 838.287 360.792 846.265C361.553 846.942 362.363 847.561 363.216 848.116C375.293 856.098 408.084 862.356 460.669 866.712C499.517 869.934 535.407 870.898 535.763 870.909H535.85C536.581 870.909 537.292 870.663 537.867 870.212C538.443 869.76 538.851 869.128 539.026 868.418C539.026 868.389 539.196 867.723 539.462 866.552C540.225 863.232 541.682 856.501 542.852 848.847C543.905 841.938 544.479 835.883 544.563 830.861C544.821 814.374 545.765 750.745 545.653 740.629C545.631 738.945 545.54 736.934 545.438 734.603C544.89 722.174 543.865 699.039 548.977 650.065C551.034 630.349 549.777 608.363 545.257 584.727C542.262 569.202 538.112 553.923 532.842 539.018C530.741 533.116 527.962 527.478 524.561 522.218L500.392 484.799C499.965 484.139 499.313 483.655 498.558 483.436L422.301 461.254C422.005 461.167 421.698 461.123 421.389 461.123L421.378 461.138Z" fill="#17091D"/>
<path d="M537.06 869.271C536.83 869.271 536.603 869.223 536.393 869.129C536.183 869.035 535.995 868.897 535.842 868.726C535.689 868.554 535.573 868.352 535.503 868.133C535.433 867.914 535.41 867.682 535.436 867.453C535.436 867.417 535.843 863.882 536.402 858.686C537.623 847.26 539.709 826.686 539.93 817.119C540.021 813.297 540.225 807.944 540.457 801.744C541.049 786.173 541.856 764.85 541.108 757.886C540.486 752.148 541.06 733.842 541.565 717.693C541.929 705.973 542.292 694.901 542.11 690.555C541.94 685.988 542.706 678.573 543.68 669.188C544.948 656.962 546.525 641.744 546.547 626.984C546.587 601.962 535.865 557.955 535.418 556.133L526.389 528.239C526.261 527.846 526.287 527.42 526.462 527.046L549.384 477.497C549.48 477.289 549.618 477.104 549.79 476.953C549.961 476.802 550.162 476.689 550.38 476.62L578.902 467.711C579.06 467.664 579.223 467.639 579.388 467.639C579.758 467.641 580.115 467.769 580.402 468.002C586.22 472.526 592.296 476.707 598.598 480.526C608.084 486.166 667.707 515.77 668.307 516.068C668.609 516.218 668.857 516.458 669.018 516.755C669.178 517.052 669.243 517.391 669.204 517.726C669.164 518.053 665.302 550.686 664.43 564.435C663.598 577.599 658.468 634.537 654.915 656.599C653.421 665.871 652.313 679.471 651.136 693.868C649.566 713.108 647.942 733.006 645.163 746.279C641.013 766.104 642.223 769.806 646.227 782.068C646.805 783.835 647.459 785.835 648.153 788.061L648.941 790.588C653.069 803.777 656.052 813.304 654.544 823.882C654.145 826.658 653.459 829.386 652.498 832.021L652.269 832.66C651.877 833.751 651.445 834.879 650.907 836.253C647.96 843.703 644.501 850.94 640.556 857.911C640.425 858.133 640.245 858.32 640.029 858.459C639.813 858.598 639.568 858.684 639.313 858.711L537.216 869.279L537.06 869.271Z" fill="#CE44A2"/>
<path d="M579.388 469.273C585.261 473.844 591.396 478.067 597.762 481.92C607.412 487.658 667.58 517.52 667.58 517.52C667.58 517.52 663.681 550.364 662.799 564.32C661.916 578.276 656.778 634.727 653.301 656.32C649.824 677.913 648.421 722.724 643.564 745.927C638.706 769.131 641.155 771.087 646.59 788.531C650.994 802.665 654.475 812.764 652.923 823.633C652.539 826.299 651.881 828.919 650.961 831.451L650.732 832.084C650.293 833.295 649.838 834.48 649.384 835.64C646.475 843.012 643.053 850.171 639.146 857.065L537.06 867.636C537.06 867.636 537.463 864.124 538.026 858.858C539.28 847.145 541.34 826.771 541.565 817.156C541.892 803.222 543.781 767.455 542.731 757.709C541.681 747.964 544.145 700.909 543.745 690.491C543.345 680.073 548.141 652.909 548.181 626.985C548.221 601.062 536.991 555.684 536.991 555.684L527.944 527.731L550.866 478.182L579.388 469.273ZM579.388 466C579.058 465.999 578.729 466.049 578.414 466.149L549.893 475.058C549.457 475.194 549.054 475.42 548.71 475.721C548.367 476.023 548.09 476.392 547.898 476.807L524.975 526.356C524.63 527.104 524.58 527.955 524.834 528.738L533.844 556.578C534.451 559.065 544.948 602.371 544.911 626.982C544.89 641.655 543.316 656.825 542.052 669.018C541.075 678.473 540.301 685.931 540.479 690.615C540.642 694.905 540.297 705.949 539.93 717.644C539.4 734.636 538.84 752.207 539.48 758.062C540.206 764.905 539.411 786.164 538.826 801.698C538.589 807.902 538.386 813.262 538.295 817.095C538.073 826.593 535.995 847.127 534.774 858.524C534.219 863.716 533.815 867.251 533.812 867.276C533.76 867.734 533.806 868.197 533.946 868.635C534.086 869.074 534.317 869.478 534.623 869.821C534.93 870.164 535.305 870.439 535.725 870.627C536.145 870.815 536.6 870.913 537.06 870.913C537.172 870.913 537.285 870.913 537.398 870.913L639.494 860.345C640.004 860.293 640.494 860.121 640.925 859.843C641.356 859.566 641.716 859.191 641.976 858.749C645.974 851.71 649.469 844.398 652.436 836.865C652.981 835.473 653.421 834.32 653.817 833.229L654.002 832.716L654.046 832.593C655.046 829.85 655.758 827.01 656.171 824.12C657.734 813.182 654.547 803 650.511 790.109C650.253 789.284 649.991 788.44 649.722 787.585C649.025 785.349 648.371 783.342 647.793 781.571C643.891 769.629 642.706 766.025 646.776 746.629C649.577 733.255 651.205 713.305 652.778 694.011C653.948 679.647 655.056 666.08 656.542 656.869C660.099 634.767 665.24 577.735 666.072 564.553C666.941 550.847 670.796 518.258 670.839 517.931C670.918 517.26 670.788 516.582 670.467 515.988C670.146 515.394 669.649 514.914 669.044 514.615C668.445 514.316 608.876 484.742 599.444 479.131C593.204 475.351 587.189 471.211 581.43 466.731C580.852 466.273 580.136 466.025 579.399 466.025L579.388 466Z" fill="#17091D"/>
<path d="M636.003 801.727C633.603 798.471 632.044 796.214 631.327 794.956C629.987 792.602 628.52 790.322 626.934 788.127C624.536 784.792 622.441 781.25 620.674 777.541C618.276 772.48 616.513 768.974 615.384 767.025C612.55 762.123 610.806 756.843 607.965 751.607C607.718 751.15 607.538 750.66 607.43 750.152C606.704 746.729 605.258 743.19 603.092 739.534C603.056 739.482 603.03 739.423 603.017 739.36C603.004 739.298 603.003 739.233 603.016 739.171C603.041 739.078 603.09 738.994 603.158 738.927C603.225 738.86 603.307 738.81 603.397 738.781C603.49 738.758 603.588 738.758 603.681 738.781C603.776 738.799 603.864 738.84 603.939 738.901C605.226 739.969 606.218 741.349 606.82 742.909C608.738 747.74 609.982 750.771 610.552 752C610.922 752.78 613.544 758.356 618.418 768.727C620.305 772.741 623.255 778.155 627.268 784.967C630.454 790.371 633.519 795.825 636.464 801.331C636.482 801.364 636.493 801.4 636.497 801.437C636.501 801.475 636.497 801.513 636.486 801.549C636.464 801.621 636.415 801.683 636.348 801.72L636.25 801.774C636.21 801.79 636.166 801.79 636.127 801.774C636.104 801.776 636.081 801.772 636.06 801.764C636.038 801.756 636.019 801.743 636.003 801.727Z" fill="#5C2C66"/>
<path d="M649.385 835.636C646.475 843.008 643.054 850.168 639.146 857.062L537.06 867.636C537.06 867.636 537.463 864.124 538.027 858.858C539.613 862.208 542.198 862.303 545.78 859.142C546.03 858.915 546.224 858.634 546.347 858.32C548.273 853.042 549.428 849.263 549.813 846.982C550.416 843.345 550.804 841.095 550.976 840.229C551.452 837.993 551.657 835.707 551.586 833.422C551.528 831.909 551.607 828 551.822 821.695C551.934 818.359 551.87 814.459 551.63 809.996C551.496 807.465 551.294 800.173 551.023 788.12C550.921 783.735 549.846 778.738 549.882 774.331C549.915 770.771 548.469 765.073 548.887 760.796C548.893 760.742 548.917 760.69 548.956 760.651C548.996 760.61 549.048 760.585 549.105 760.578C549.162 760.568 549.22 760.577 549.272 760.604C549.32 760.63 549.36 760.671 549.384 760.72C550.071 762.325 550.56 764.007 550.838 765.731C551.83 771.476 551.855 777.945 552.262 783.069C553.495 798.536 553.999 814.051 553.773 829.615C553.73 833.345 553.221 839.229 552.996 842.044C552.477 848.402 551.08 854.13 548.803 859.225C548.733 859.384 548.71 859.56 548.738 859.731C548.765 859.905 548.84 860.067 548.956 860.2C549.074 860.335 549.225 860.437 549.395 860.495C549.568 860.553 549.753 860.566 549.933 860.535C553.75 859.873 557.55 859.379 561.331 859.055C579.902 857.433 599.338 855.139 619.638 852.175C620.104 852.104 623.582 851.235 630.073 849.567C639.157 847.247 645.355 842.938 649.385 835.636Z" fill="#5C2C66"/>
<path d="M652.923 823.636C652.539 826.303 651.882 828.922 650.961 831.454L650.732 832.087C651.023 830.54 651.198 828.973 651.256 827.4C651.498 822.372 651.566 817.281 651.459 812.127C652.807 815.72 653.083 819.658 652.923 823.636Z" fill="#5C2C66"/>
<path d="M533.79 867.637C533.79 867.637 393.045 863.931 365.029 845.415C364.312 844.949 363.63 844.43 362.991 843.862C340.86 824 348.33 799.542 349.682 781.407C351.033 763.273 349.373 743.458 348.021 723.731C346.67 704.004 349.384 681.596 355.288 671.346C361.192 661.095 364.764 606.655 362.983 592.782C362.119 586.036 360.389 574.44 356.327 562.396C360.364 572.913 359.146 570.924 361.777 581.891C364.727 594.146 365.741 636.902 365.741 636.902L360.48 668.727L364.059 663.72C368.128 658.045 371.066 651.639 372.713 644.851C373.04 643.498 373.24 642.476 373.197 642.149C373.015 640.84 378.828 623.455 379.399 616.033C379.969 608.611 386.822 597.273 388.166 607.273C389.51 617.273 383.915 635.815 381.048 646.109C378.181 656.404 378.828 712.909 377.88 740.255C376.932 767.6 375.922 775.455 369.687 789.277C363.452 803.098 369.745 830.367 379.399 839.691C389.052 849.015 390.092 845.637 388.845 842.553C387.599 839.469 384.042 821.724 388.453 817.826C392.864 813.927 400.603 834.189 409.937 846.189L410.253 846.596C419.881 858.815 505.991 856.556 522.436 856.182C534.596 855.906 534.789 853.786 535.24 853.102L533.79 867.637Z" fill="#9C398C"/>
<path d="M537.459 853.857L537.518 853.457C537.544 853.523 537.552 853.595 537.542 853.665C537.532 853.735 537.503 853.801 537.459 853.857Z" fill="#9C398C"/>
<path d="M595.958 728.479C601.464 727.855 607.035 728.822 612.01 731.264C616.83 733.629 620.898 737.284 623.764 741.818L624.038 742.261L624.039 742.262C633.289 757.521 644.684 776.422 647.954 783.154C648.316 783.899 648.005 784.797 647.26 785.159C646.515 785.521 645.617 785.21 645.256 784.465C642.065 777.895 630.775 759.161 621.473 743.816V743.817C618.892 739.568 615.149 736.147 610.688 733.957C606.227 731.767 601.233 730.9 596.296 731.46L596.294 731.461C576.004 733.725 543.019 734.06 514.185 733.751C485.349 733.442 460.517 732.488 456.504 732.152V732.151C454.999 732.027 453.014 732.678 450.543 734.296C448.105 735.891 445.384 738.302 442.463 741.366C436.625 747.49 430.163 756.037 423.8 765.34C411.082 783.932 398.891 805.336 393.056 815.87C392.034 817.717 391.428 819.766 391.279 821.872C391.13 823.978 391.442 826.092 392.194 828.064L403.12 856.737C403.415 857.511 403.027 858.379 402.253 858.674C401.479 858.969 400.611 858.58 400.316 857.806L389.391 829.133C388.484 826.752 388.107 824.202 388.287 821.66C388.467 819.119 389.199 816.647 390.432 814.418L391.602 812.313C397.812 801.184 409.323 781.187 421.323 763.645C427.718 754.296 434.287 745.594 440.291 739.296C443.291 736.149 446.193 733.557 448.9 731.785C451.573 730.036 454.253 728.954 456.753 729.162H456.754C460.643 729.488 485.374 730.442 514.217 730.751C543.062 731.06 575.874 730.721 595.958 728.48V728.479Z" fill="#17091D"/>
<path d="M383.222 603.696C383.466 602.976 384.222 602.544 384.979 602.718C385.786 602.904 386.29 603.71 386.104 604.517L384.642 604.18C386.009 604.495 386.097 604.516 386.103 604.518C386.103 604.519 386.103 604.52 386.103 604.521C386.102 604.523 386.101 604.527 386.1 604.531C386.098 604.539 386.096 604.552 386.092 604.568C386.084 604.601 386.073 604.649 386.058 604.712C386.028 604.84 385.984 605.029 385.925 605.274C385.808 605.764 385.634 606.483 385.406 607.399C384.951 609.231 384.281 611.854 383.421 615.022C381.701 621.356 379.215 629.881 376.156 638.629C373.102 647.368 369.459 656.38 365.413 663.665C363.391 667.307 361.246 670.556 358.997 673.133C356.759 675.698 354.341 677.687 351.748 678.673C350.974 678.968 350.107 678.579 349.813 677.804C349.518 677.03 349.908 676.163 350.682 675.869C352.631 675.127 354.663 673.537 356.736 671.161C358.799 668.796 360.828 665.742 362.79 662.208C366.715 655.14 370.293 646.311 373.324 637.64C376.352 628.98 378.817 620.527 380.526 614.236C381.379 611.092 382.044 608.49 382.494 606.676C382.719 605.769 382.892 605.059 383.007 604.577C383.065 604.336 383.108 604.151 383.137 604.028C383.151 603.966 383.162 603.919 383.169 603.888C383.173 603.873 383.176 603.862 383.178 603.854C383.179 603.85 383.179 603.847 383.18 603.845V603.843L383.222 603.696Z" fill="#17091D"/>
<path d="M401.26 832.496L402.304 833.573C401.709 834.15 400.76 834.136 400.183 833.541C399.606 832.946 399.622 831.997 400.216 831.42L401.26 832.496ZM453.141 763.859C453.293 763.044 454.076 762.507 454.89 762.658C455.704 762.81 456.242 763.593 456.09 764.407C455.079 769.835 451.091 776.881 445.91 784.244C440.685 791.669 434.093 799.627 427.643 806.923C421.189 814.223 414.857 820.884 410.139 825.718C407.78 828.136 405.822 830.098 404.455 831.456C403.771 832.135 403.234 832.664 402.868 833.023C402.685 833.202 402.545 833.339 402.45 833.432C402.402 833.478 402.366 833.514 402.341 833.537L402.307 833.571L402.305 833.572C402.305 833.573 402.304 833.573 401.26 832.496C400.225 831.428 400.216 831.419 400.216 831.419L400.218 831.418C400.22 831.417 400.221 831.414 400.224 831.411L400.356 831.284C400.449 831.194 400.587 831.058 400.768 830.881C401.13 830.526 401.661 830.002 402.34 829.327C403.698 827.978 405.644 826.027 407.992 823.622C412.687 818.811 418.984 812.188 425.396 804.936C431.812 797.679 438.322 789.814 443.456 782.518C448.634 775.16 452.261 768.584 453.141 763.859Z" fill="#17091D"/>
<path d="M557.843 501.859C558.131 501.082 558.994 500.687 559.771 500.975C560.547 501.263 560.944 502.127 560.655 502.904L538.648 562.158C538.466 562.646 538.044 563.005 537.533 563.107C537.022 563.208 536.495 563.037 536.141 562.655L485.638 508.11C485.075 507.502 485.111 506.552 485.719 505.99C486.327 505.427 487.276 505.464 487.839 506.072L536.685 558.827L557.843 501.859Z" fill="#17091D"/>
<path d="M570.828 527.165C570.749 527.171 570.668 527.171 570.589 527.165C570.309 527.124 570.045 527.011 569.822 526.837C569.599 526.663 569.425 526.434 569.317 526.173L549.537 478.278C549.4 477.944 549.376 477.575 549.47 477.226C549.564 476.878 549.77 476.57 550.057 476.351C550.187 476.253 563.191 466.122 563.104 452.714C563.046 444.405 558.017 436.449 548.124 429.078C547.848 428.873 547.644 428.585 547.54 428.257C547.437 427.929 547.44 427.577 547.548 427.25C547.656 426.924 547.865 426.639 548.143 426.438C548.422 426.237 548.757 426.129 549.101 426.129C549.216 426.129 549.33 426.141 549.443 426.165C549.613 426.202 550.533 426.434 551.986 426.918C552.08 426.947 552.178 426.976 552.273 427.013C561.298 430.02 590.343 442.369 586.83 475.376C582.811 513.151 572.514 526.056 572.075 526.587C571.922 526.769 571.731 526.914 571.515 527.014C571.3 527.114 571.066 527.166 570.828 527.165Z" fill="#CE44A2"/>
<path d="M549.101 427.748C549.184 427.748 550.071 427.985 551.513 428.475C551.59 428.497 551.673 428.523 551.753 428.552C560.644 431.512 588.602 443.417 585.22 475.195C581.223 512.919 570.828 525.541 570.828 525.541L570.069 523.723L551.742 479.359L551.048 477.679C551.048 477.679 583.109 453.174 549.101 427.792M549.101 424.519C548.414 424.52 547.745 424.736 547.189 425.139C546.632 425.541 546.216 426.109 546 426.761C545.783 427.413 545.778 428.117 545.984 428.773C546.189 429.428 546.596 430.002 547.146 430.414C556.593 437.465 561.407 444.959 561.469 452.737C561.56 465.308 549.184 474.985 549.057 475.083C548.486 475.521 548.076 476.136 547.889 476.831C547.703 477.527 547.75 478.264 548.025 478.93L548.719 480.61L567.046 524.974L567.805 526.792C568.022 527.315 568.369 527.772 568.815 528.12C569.261 528.468 569.789 528.695 570.349 528.777C570.508 528.802 570.67 528.814 570.832 528.814C571.318 528.816 571.798 528.711 572.238 528.504C572.678 528.298 573.066 527.996 573.375 527.621C573.826 527.075 584.42 513.803 588.493 475.541C589.333 467.646 588.399 460.294 585.721 453.686C583.376 448.009 579.846 442.898 575.366 438.697C567.333 431.039 557.821 427.119 552.84 425.457C552.738 425.421 552.625 425.385 552.509 425.352C551.056 424.865 550.049 424.625 549.817 424.559C549.588 424.512 549.356 424.487 549.123 424.486L549.101 424.519Z" fill="#17091D"/>
<path d="M585.22 475.184C581.223 512.908 570.828 525.53 570.828 525.53L570.069 523.712C573.469 505.352 578.309 473.326 574.301 457.29C570.752 443.079 559.768 433.704 551.753 428.562C560.644 431.501 588.602 443.406 585.22 475.184Z" fill="#9C398C"/>
<path d="M565.4 459.272C562.13 468.726 560.291 474.734 556.487 476.639C555.034 477.366 553.512 479.057 551.957 479.999L551.048 477.635C551.048 477.635 583.109 453.13 549.101 427.748C549.184 427.748 550.071 427.984 551.513 428.475C553.199 429.566 555.43 431.384 558.133 434.555C564.673 442.181 568.67 449.817 565.4 459.272Z" fill="#D969BD"/>
<path d="M470.12 529.526C457.955 529.323 439.16 518.454 414.257 497.217C395.865 481.534 380.754 465.697 380.601 465.537C380.42 465.367 380.28 465.156 380.195 464.921C380.109 464.687 380.079 464.436 380.107 464.188C380.136 463.955 380.218 463.732 380.348 463.536C380.478 463.34 380.652 463.178 380.856 463.061C381.219 462.723 385.216 458.73 389.361 439.981C392.13 427.468 396.723 422.032 400.083 419.672C401.311 418.81 402.314 418.035 402.939 417.534C403.364 417.195 403.76 416.872 404.084 416.592C404.387 416.332 404.774 416.191 405.174 416.195C405.552 416.191 405.92 416.319 406.213 416.559C406.509 416.806 406.707 417.149 406.774 417.529C406.84 417.908 406.77 418.299 406.576 418.632C406.511 418.745 404.981 421.523 406.638 426.545C408.251 431.435 413.272 439.323 428.031 449.126C462.867 472.268 497.842 484.901 498.191 485.025C498.425 485.108 498.637 485.243 498.811 485.421C498.985 485.599 499.116 485.814 499.194 486.05C499.272 486.286 499.295 486.537 499.262 486.783C499.228 487.03 499.139 487.265 499.001 487.472L471.507 528.799C471.358 529.023 471.156 529.207 470.919 529.333C470.682 529.46 470.417 529.527 470.149 529.526H470.12Z" fill="#CE44A2"/>
<path d="M405.17 417.818C405.01 418.094 397.682 430.934 427.133 450.498C462.54 474.018 497.649 486.574 497.649 486.574L496.134 488.85L479.057 514.487L470.149 527.89C441.754 527.418 381.786 464.41 381.786 464.41C381.786 464.41 386.277 461.454 390.956 440.334C393.594 428.418 397.834 423.243 401.024 421.014C402.227 420.17 403.241 419.392 403.964 418.832C404.687 418.272 405.115 417.865 405.17 417.818ZM405.17 414.545C404.389 414.545 403.634 414.825 403.041 415.334C402.743 415.592 402.351 415.916 401.951 416.243C401.344 416.727 400.37 417.48 399.171 418.32C393.936 421.992 390.088 429.156 387.788 439.61C383.846 457.429 380.122 461.49 379.795 461.792C379.433 462.073 379.134 462.426 378.917 462.83C378.7 463.233 378.57 463.678 378.536 464.135C378.502 464.592 378.564 465.051 378.718 465.482C378.872 465.914 379.115 466.308 379.431 466.64C379.584 466.796 394.757 482.694 413.221 498.436C438.419 519.923 457.548 530.923 470.116 531.134H470.17C470.708 531.134 471.238 531.002 471.713 530.748C472.188 530.494 472.593 530.127 472.892 529.68L481.812 516.28L498.888 490.643L500.403 488.367C500.679 487.953 500.857 487.482 500.924 486.989C500.99 486.496 500.943 485.994 500.787 485.522C500.631 485.05 500.369 484.619 500.022 484.264C499.675 483.908 499.251 483.636 498.783 483.469C498.419 483.345 463.612 470.741 428.976 447.749C414.933 438.421 410.02 431.021 408.375 426.44C406.787 422.025 407.957 419.589 408.048 419.41C408.326 418.911 408.468 418.347 408.461 417.775C408.453 417.203 408.296 416.643 408.005 416.151C407.714 415.658 407.299 415.251 406.801 414.969C406.304 414.688 405.741 414.541 405.17 414.545Z" fill="#17091D"/>
<path d="M479.068 514.49L470.149 527.89C441.754 527.417 381.786 464.41 381.786 464.41C381.786 464.41 386.277 461.454 390.956 440.334C393.594 428.417 397.834 423.243 401.024 421.014C399.571 429.279 399.208 441.337 404.443 455.039C412.004 474.835 458.257 502.737 479.068 514.49Z" fill="#9C398C"/>
<path d="M497.646 486.577L496.13 488.853C493.089 488.006 489.532 486.944 485.369 485.617C456.763 476.504 408.985 442.726 404.625 432.18C402.082 426.064 402.866 421.537 403.964 418.813C404.69 418.238 405.115 417.864 405.166 417.82C405.006 418.097 397.678 430.937 427.13 450.5C462.537 474.02 497.646 486.577 497.646 486.577Z" fill="#D969BD"/>
</svg>
