<svg width="1800" height="1650" viewBox="0 0 1800 1650" fill="none" xmlns="http://www.w3.org/2000/svg">
<g id="Body 01">
<g id="collar back">
<g id="collar back_2">
<path id="Vector" d="M887.57 356.12C849.57 356.12 829.13 348.48 805.5 339.65C801.01 337.97 796.37 336.23 791.5 334.48L787.9 333.19L784.13 331.82C766.13 325.2 745.71 316.93 726.59 308.53C678.91 287.58 616.59 256.16 590.15 225.42C550.79 179.56 509.59 161.31 509.15 161.13C505.91 159.76 504.15 157.78 503.85 155.25C503.42 151.18 506.85 148.74 510.56 146.15C512.408 144.9 514.16 143.512 515.8 142C518.37 139.52 526.39 121.49 532.8 107C535.33 101.32 537.93 95.4601 540.51 89.7901C544.91 80.1801 548.12 73.5201 550.93 68.2101C551.47 67.2101 552.03 66.1501 552.56 65.2101C565.75 41.4101 623.16 30.0101 627.62 29.1501L628.33 28.9901H628.43H628.63C632.38 28.1601 636.88 27.2901 641.63 26.4701L643.88 26.0801C646.6 25.6301 649.55 25.1701 652.65 24.7001L657.11 24.0601L658.86 23.8201L661.28 23.5101C662.04 23.4001 662.88 23.2801 663.73 23.1801L665.45 22.9701L666.74 22.8101L668.59 22.5901L670.59 22.3501C674.69 21.8801 678.42 21.4901 681.94 21.1501L684.32 20.9301C689.82 20.4101 695.32 19.9301 700.73 19.6001L705.47 19.2901C707.843 19.1434 710.257 19.0067 712.71 18.8801L714.99 18.7601L719.14 18.5601L724.87 18.3301L727.81 18.2301C736.12 17.9601 744.53 17.8301 752.81 17.8301H759.74H763.82C830.192 18.8338 896.239 27.3174 960.71 43.1201C966.86 44.6101 972.8 46.1201 978.38 47.6901C986.81 50.0001 995 52.4601 1002.69 55.0001C1006.57 56.2701 1010.1 57.4701 1013.5 58.6801C1015.5 59.3801 1017.5 60.1001 1019.5 60.8301L1022.5 61.9701C1023.07 62.1801 1023.7 62.4201 1024.31 62.6701L1026.62 63.5601C1028.18 64.1601 1029.72 64.7801 1031.25 65.4001C1032.13 65.7501 1033.03 66.1201 1033.91 66.4901C1039.1 68.6401 1044.17 70.8701 1048.91 73.1201L1050.91 74.0501C1055.83 76.3901 1060.46 78.7301 1064.67 81.0501C1065.41 81.4401 1066.19 81.8701 1066.96 82.2901L1069.7 83.8101C1071.03 84.5701 1072.31 85.3001 1073.55 86.0301C1076.68 87.8601 1079.75 89.7401 1082.66 91.6101L1084.32 92.6901C1087.41 94.6901 1090.32 96.6901 1093.03 98.6901C1093.6 99.0901 1094.21 99.5301 1094.8 99.9801L1097.09 101.68C1097.6 102.07 1098.09 102.45 1098.59 102.84C1102.76 106.06 1106.73 109.39 1110.37 112.72C1110.81 113.11 1111.28 113.55 1111.75 113.99C1114.87 116.9 1117.83 119.87 1120.53 122.81C1120.89 123.19 1121.28 123.62 1121.67 124.05C1122.81 125.33 1123.73 126.38 1124.56 127.37C1124.84 127.7 1125.16 128.07 1125.46 128.44C1125.76 128.81 1126.08 129.18 1126.37 129.55C1127.52 130.95 1128.67 132.41 1129.76 133.86C1130.21 134.46 1130.64 135.05 1131.06 135.63L1132.06 136.99L1132.37 137.43L1132.64 137.83C1132.84 138.12 1133.05 138.41 1133.24 138.71C1136.02 142.77 1138.55 147.002 1140.8 151.38C1140.99 151.78 1141.58 152.94 1141.58 152.94C1142.4 154.63 1143.07 156.1 1143.66 157.46L1143.72 157.61C1143.8 157.8 1143.89 157.98 1143.96 158.18C1144.03 158.38 1144.24 158.84 1144.38 159.18L1144.89 160.43C1145.1 160.94 1145.29 161.43 1145.48 161.96L1145.69 162.53C1145.8 162.83 1145.91 163.12 1146.01 163.41C1146.94 165.99 1147.78 168.7 1148.47 171.41C1148.74 172.48 1148.97 173.48 1149.18 174.41L1149.24 174.7C1149.3 175 1149.37 175.29 1149.43 175.59C1149.49 175.89 1149.43 175.82 1149.43 175.89L1149.51 176.29C1149.58 176.65 1149.65 177 1149.7 177.36C1149.91 178.52 1150.1 179.8 1150.27 181.18C1150.27 181.48 1150.34 181.81 1150.38 182.18C1150.7 185.339 1150.64 188.525 1150.2 191.67C1150.08 192.51 1149.96 193.49 1149.83 194.59C1149.1 200.257 1148.77 205.967 1148.83 211.68C1148.99 216.68 1148.14 232.97 1146.29 260.18C1145.86 266.41 1145.5 271.5 1145.29 274.09C1145.23 274.79 1145.22 275.47 1145.21 276.15V276.56C1145.06 285.73 1135.12 317.56 1013.51 340.99C1010.88 341.5 1008.19 341.99 1005.44 342.51C1000.56 343.4 995.44 344.31 989.72 345.29C946.18 352.64 913.73 356.12 887.57 356.12Z" fill="#CE44A2"/>
<path id="Vector_2" d="M752.88 22.2603H759.76H763.82C829.837 23.2915 895.528 31.7548 959.65 47.4903C965.69 48.957 971.533 50.4703 977.18 52.0303C985.633 54.3503 993.67 56.7603 1001.29 59.2603C1004.96 60.4603 1008.53 61.6736 1012 62.9003C1014 63.6003 1015.96 64.3103 1017.88 65.0303L1020.88 66.1503C1021.48 66.3703 1022.07 66.6003 1022.65 66.8303L1024.98 67.7303C1026.53 68.3303 1028.05 68.9403 1029.56 69.5503L1032.17 70.6203C1037.37 72.767 1042.33 74.9503 1047.05 77.1703L1049.05 78.0903C1053.79 80.3503 1058.31 82.637 1062.6 84.9503C1063.36 85.3503 1064.11 85.7603 1064.85 86.1703C1065.77 86.6703 1066.68 87.1703 1067.59 87.6903C1068.86 88.4103 1070.11 89.1303 1071.33 89.8503C1074.45 91.6703 1077.45 93.5003 1080.33 95.3403L1081.97 96.4103C1084.95 98.3636 1087.79 100.317 1090.49 102.27C1091.07 102.68 1091.64 103.1 1092.2 103.52C1092.97 104.08 1093.73 104.65 1094.47 105.21L1095.91 106.32C1100.09 109.547 1103.93 112.767 1107.43 115.98C1107.89 116.39 1108.33 116.8 1108.78 117.22C1111.88 120.114 1114.73 122.974 1117.32 125.8C1117.7 126.2 1118.06 126.6 1118.43 127.01C1119.43 128.08 1120.32 129.14 1121.21 130.2L1122.1 131.25L1122.96 132.3C1124.12 133.72 1125.22 135.124 1126.27 136.51C1126.69 137.07 1127.1 137.63 1127.5 138.19C1127.94 138.79 1128.36 139.39 1128.78 139.98C1129.04 140.36 1129.31 140.74 1129.56 141.12C1132.25 145.045 1134.69 149.137 1136.87 153.37L1137.63 154.89C1138.34 156.35 1139 157.77 1139.63 159.17C1139.73 159.4 1139.83 159.62 1139.92 159.85C1140.1 160.26 1140.27 160.68 1140.44 161.09L1140.82 162.04C1141.02 162.52 1141.2 163.04 1141.38 163.47C1141.56 163.9 1141.71 164.36 1141.86 164.8C1142.86 167.53 1143.62 170.09 1144.22 172.43C1144.47 173.43 1144.69 174.38 1144.89 175.29C1144.97 175.66 1145.05 176.01 1145.12 176.37C1145.12 176.54 1145.18 176.71 1145.22 176.87C1145.29 177.25 1145.36 177.62 1145.42 177.99C1145.66 179.32 1145.83 180.54 1145.96 181.63C1145.96 181.94 1146.03 182.24 1146.06 182.53C1146.34 185.33 1146.29 188.153 1145.9 190.94C1145.78 191.8 1145.65 192.82 1145.52 193.94C1144.75 199.821 1144.39 205.749 1144.44 211.68C1144.65 217.98 1143.05 242.96 1141.91 259.68C1141.48 265.89 1141.12 270.97 1140.91 273.56C1140.84 274.46 1140.83 275.36 1140.81 276.26C1140.72 281.74 1134.65 312.89 1012.76 336.37C1010.14 336.877 1007.47 337.38 1004.76 337.88C999.36 338.874 994.137 339.8 989.09 340.66C943.73 348.44 911.95 351.54 887.7 351.54C843.41 351.54 824.19 341.2 793.08 330.16L789.38 329L785.62 327.63C769.97 321.87 749.84 313.89 728.35 304.45C677.07 281.88 618 251.06 593.51 222.49C557 180 518 160 510.89 157C503.78 154 513 151 518.89 145.28C523.12 141.19 534.1 114.74 544.6 91.7003C548.19 83.8403 551.71 76.3803 554.9 70.3503C555.44 69.3503 555.98 68.3503 556.5 67.3503C569.05 44.7103 628.63 33.5203 628.63 33.5203H628.74H628.94L629.18 33.4603L629.59 33.3703C631.41 32.9703 635.75 32.0403 642.4 30.8903L644.63 30.5103C647.223 30.0836 650.12 29.627 653.32 29.1403L656.51 28.6803L658.58 28.3903L661.84 27.9603L664.27 27.6403L665.98 27.4303L667.26 27.2703L669.1 27.0503L671.1 26.8203C674.66 26.4103 678.43 26.0003 682.41 25.6203L684.76 25.4003C689.88 24.9203 695.32 24.4703 701.07 24.0803L705.79 23.7703C708.143 23.617 710.537 23.4803 712.97 23.3603L715.1 23.2503L719.37 23.0503L725.07 22.8203L727.98 22.7203C735.88 22.4703 744.18 22.3203 752.86 22.3203M752.86 13.3203C744.53 13.3203 736.06 13.4603 727.69 13.7203L724.69 13.8303L719 14.0003L714.66 14.2003L713.66 14.2503L712.52 14.3103C710.28 14.4203 707.89 14.5603 705.24 14.7303L700.45 15.0403C695.05 15.4103 689.45 15.8603 683.94 16.3803L682.61 16.5003L681.61 16.6003C678.02 16.9403 674.28 17.3403 670.13 17.8103L668.13 18.0503L666.24 18.2803C665.79 18.2803 665.34 18.3803 664.9 18.4503L663.25 18.6503C662.42 18.7503 661.57 18.8603 660.75 18.9803L658.51 19.2703L657.51 19.4103H657.42L656.56 19.5303C656.14 19.5903 655.72 19.6403 655.31 19.7103L653.71 19.9403L652.13 20.1603C649.04 20.6303 646.07 21.1003 643.27 21.5603L642.22 21.7403L641 22.0003H640.95C636.06 22.8503 631.61 23.7103 627.74 24.5603H627.61H627.54L627.3 24.6203L626.99 24.6903L626.69 24.7503H626.63C615.727 26.9559 604.976 29.8517 594.44 33.4203C570.37 41.6503 555 51.6003 548.67 63.0003C548.08 64.0603 547.53 65.0703 546.97 66.1703C544.11 71.5703 540.87 78.2903 536.45 87.9503C533.86 93.6403 531.25 99.5203 528.72 105.2C522.99 118.07 515.17 135.66 512.55 138.92C511.099 140.207 509.562 141.393 507.95 142.47C504.03 145.24 498.65 149.03 499.37 155.72C499.69 158.67 501.37 162.72 507.37 165.28C507.77 165.45 547.99 183.28 586.67 228.35C613.61 259.73 676.61 291.51 724.72 312.65C743.91 321.08 764.43 329.39 782.5 336.04L783.78 336.5L786.32 337.43L786.68 337.56L789.94 338.73C794.82 340.46 799.44 342.19 803.94 343.86C827.94 352.86 848.72 360.62 887.58 360.62C914 360.62 946.7 357.12 990.49 349.62C996.18 348.62 1001.34 347.73 1006.26 346.82C1009.44 346.24 1012.03 345.75 1014.39 345.29C1067.05 335.15 1105.09 322.29 1127.39 307.1C1146.53 294.1 1149.57 282.36 1149.68 276.52V276.15C1149.68 275.49 1149.68 274.86 1149.74 274.35C1149.94 271.71 1150.3 266.62 1150.74 260.35C1153.54 219.1 1153.35 213.29 1153.29 211.35C1153.24 205.88 1153.57 200.413 1154.29 194.99V195C1154.41 194 1154.52 193.06 1154.64 192.2C1155.13 188.694 1155.2 185.142 1154.84 181.62V181.54C1154.84 181.22 1154.78 180.89 1154.73 180.54C1154.56 179.11 1154.36 177.77 1154.13 176.46L1153.95 175.46V175.27V174.99V174.86V174.76V174.68C1153.89 174.34 1153.82 174.01 1153.74 173.68V173.43C1153.49 172.31 1153.25 171.3 1153 170.29V170.23C1152.28 167.44 1151.41 164.61 1150.41 161.85C1150.3 161.55 1150.2 161.25 1150.08 160.95L1149.92 160.5V160.42V160.35C1149.74 159.88 1149.53 159.35 1149.28 158.73C1149.16 158.42 1149.04 158.11 1148.91 157.8L1148.8 157.52C1148.66 157.2 1148.53 156.87 1148.38 156.52L1148.1 155.85L1148.04 155.72C1147.45 154.33 1146.74 152.8 1145.91 151.09L1145.65 150.57L1145.18 149.63V149.56V149.49C1142.85 144.938 1140.22 140.539 1137.33 136.32L1136.74 135.45L1136.51 135.12V135.05V134.98L1136.19 134.53C1135.87 134.07 1135.53 133.6 1135.19 133.13C1134.85 132.66 1134.32 131.93 1133.87 131.33C1132.74 129.83 1131.57 128.344 1130.36 126.87C1130.06 126.49 1129.75 126.11 1129.44 125.74L1128.44 124.62C1127.58 123.62 1126.62 122.48 1125.5 121.24L1125.43 121.17C1125.05 120.74 1124.67 120.32 1124.27 119.9C1121.5 116.9 1118.48 113.9 1115.27 110.9C1114.78 110.45 1114.27 110 1113.81 109.56C1110.1 106.17 1106.06 102.78 1101.81 99.4803L1099.8 98.0003C1099.04 97.4203 1098.25 96.8303 1097.46 96.2503C1096.67 95.6703 1096.2 95.3203 1095.64 94.9203C1092.89 92.9203 1089.92 90.9203 1086.81 88.8503L1086.12 88.4003L1085.12 87.7403C1082.12 85.8403 1079.03 83.9203 1075.81 82.0503C1074.66 81.3603 1073.39 80.6303 1071.98 79.8303C1070.98 79.2903 1070.08 78.7603 1069.13 78.2503C1068.36 77.8203 1067.58 77.4003 1066.78 76.9803C1062.52 74.6703 1057.84 72.3103 1052.87 69.9803L1051.87 69.4903L1050.94 69.0603C1046.1 66.7903 1040.94 64.5303 1035.68 62.3403L1032.99 61.2403C1031.52 60.6503 1029.93 60.0103 1028.3 59.3803L1026 58.4903C1025.41 58.2503 1024.77 58.0003 1024.11 57.7603C1023.11 57.3803 1022.11 57.0003 1021.11 56.6303C1019.11 55.8903 1017.11 55.1603 1015.11 54.4503C1011.67 53.2303 1008.11 52.0203 1004.21 50.7503C996.44 48.2003 988.21 45.7503 979.68 43.3903C974.06 41.8403 968.07 40.2903 961.9 38.7903C897.081 22.8871 830.674 14.3464 763.94 13.3303H759.89H759.83H752.83L752.86 13.3203Z" fill="#17091D"/>
<path id="Vector_3" d="M1066.74 209.49C1061.15 213.11 1055.49 216.443 1049.74 219.49C1021.01 234.69 990.64 242.71 960.83 246.01C907.4 251.95 855.78 242.73 818.64 232.57C784.64 223.27 762.78 213.18 762.78 213.18C762.78 213.18 692.4 185.71 645.5 151.18C607.18 123.02 584.5 90.18 628.66 63.77C703.72 18.89 865 47.11 936.86 62.89C970.581 70.2085 1003.06 82.3713 1033.3 99C1081.39 125.62 1130.76 167.94 1066.74 209.49Z" fill="#9C398C" stroke="#17091D" stroke-width="9" stroke-miterlimit="10"/>
<path id="Vector_4" d="M1049.75 219.46C922.39 286.84 762.75 213.15 762.75 213.15C762.75 213.15 692.37 185.68 645.47 151.15C669.28 110.4 757.62 89.7803 858.04 104.45C965.38 120.16 1047.94 170.48 1049.75 219.46Z" fill="#5C2C66" stroke="#17091D" stroke-width="9" stroke-miterlimit="10"/>
</g>
</g>
<g id="collar front">
<g id="collar front_2">
<path id="Vector_5" d="M882.52 355.719C838.92 355.719 817.97 346.469 786.26 332.479C770.26 325.429 752.16 317.429 726.88 308.659L726.71 308.599L726.54 308.529C678.86 287.579 616.54 256.159 590.1 225.419C550.74 179.559 509.54 161.309 509.1 161.129C505.86 159.759 504.1 157.779 503.8 155.239C503.37 151.179 506.8 148.739 510.51 146.149C512.375 144.901 514.144 143.514 515.8 141.999C518.46 139.399 527.38 119.319 533.89 104.669C540.06 90.7894 546.44 76.4294 550.99 68.1394L551.05 68.0494L551.1 67.9494C561.2 51.5094 583.62 39.0294 617.76 30.8594C619.44 30.4526 621.162 30.2445 622.89 30.2394C627.264 30.2237 631.517 31.6667 634.978 34.3399C638.439 37.0132 640.91 40.7641 642 44.9994C643.45 51.1194 641.06 56.7394 635.91 59.3294C614.36 70.1594 605.48 82.8494 608.75 98.1194C614.41 124.529 657.61 159.209 724.3 190.899C783.4 218.979 851.3 239.739 889.48 241.389H889.75C901.792 242.668 913.891 243.326 926 243.359C971.94 243.359 1012.85 233.979 1047.62 215.489L1047.73 215.429C1076.66 201.009 1092.33 185.319 1094.31 168.799C1096.09 153.969 1086.94 137.959 1067.1 121.209C1062.41 117.209 1061.18 109.779 1063.96 102.209C1066.61 94.9894 1071.85 90.4994 1077.66 90.4994C1080.05 90.5253 1082.38 91.2482 1084.36 92.5794C1122.46 117.129 1144.67 147.159 1150.36 181.839L1150.43 182.289V182.739C1149.69 201.959 1148.43 223.049 1147.05 245.389C1146.44 255.319 1145.83 265.449 1145.24 275.679C1145.94 277.919 1146.05 281.129 1143.85 285.189C1134.44 302.569 1080.35 332.699 989.57 345.239C942.37 352.419 908.34 355.759 882.52 355.759V355.719Z" fill="#CE44A2"/>
<path id="Vector_6" d="M622.89 34.7695C636.08 34.7695 642.74 50.8895 633.89 55.3395C512.08 116.54 790.36 241.64 889.29 245.92C901.485 247.197 913.738 247.845 926 247.86C968.81 247.86 1011.76 239.66 1049.73 219.46C1118.14 185.34 1105.85 148.06 1069.99 117.77C1063.19 112.02 1068.99 94.9595 1077.65 94.9595C1079.17 94.9903 1080.65 95.4666 1081.91 96.3295C1113.68 116.8 1139.65 144.42 1145.91 182.53C1144.83 210.53 1142.57 242.92 1140.68 276.34C1147.2 290.17 1089.1 326.9 988.93 340.75C941 348 907.87 351.22 882.52 351.22C818.39 351.22 804.36 330.77 728.35 304.41C677.07 281.88 618 251.06 593.51 222.49C557 180 518 160 510.89 157C503.78 154 513 151 518.89 145.28C524.78 139.56 544.65 89.0195 554.89 70.3495C565.72 52.7795 590.57 41.9995 618.81 35.2595C620.146 34.9356 621.516 34.7711 622.89 34.7695ZM622.89 25.7695C620.808 25.775 618.734 26.0233 616.71 26.5095C580.87 35.0895 558.16 47.8895 547.27 65.6295L547.15 65.8195L547.05 66.0095C542.41 74.4595 535.99 88.8995 529.78 102.87C524.01 115.87 515.3 135.45 512.52 138.94C511.08 140.221 509.553 141.4 507.95 142.47C504.03 145.24 498.65 149.03 499.37 155.72C499.69 158.67 501.37 162.72 507.37 165.28C507.77 165.45 547.99 183.28 586.67 228.35C613.61 259.73 676.61 291.51 724.72 312.65L725.05 312.79L725.39 312.91C750.5 321.62 768.53 329.58 784.44 336.6C816.67 350.82 837.96 360.22 882.51 360.22C908.56 360.22 942.79 356.86 990.24 349.65C1040.66 342.65 1076.18 330.71 1097.09 321.89C1112.57 315.36 1139.74 302.19 1147.81 287.29C1150.52 282.29 1150.47 278.1 1149.81 275.19C1150.38 265.19 1150.98 255.24 1151.57 245.59C1152.93 223.24 1154.21 202.13 1154.95 182.88V181.97L1154.8 181.07C1148.88 145.07 1126 114.07 1086.8 88.7595C1084.09 86.9534 1080.91 85.98 1077.66 85.9595C1069.91 85.9595 1063.05 91.5795 1059.74 100.62C1056.3 110.02 1058.05 119.45 1064.2 124.62C1082.8 140.33 1091.43 155.01 1089.84 168.24C1088.05 183.15 1073.21 197.67 1045.72 211.38L1045.61 211.43L1045.51 211.49C1011.4 229.63 971.19 238.83 926.01 238.83C914.052 238.813 902.103 238.182 890.21 236.94H889.94H889.67C852.05 235.31 784.84 214.72 726.22 186.87C695.22 172.15 668.55 156.36 649.04 141.19C628.26 125.05 615.85 109.84 613.14 97.1895C612.14 92.4095 609 77.8895 637.92 63.3595C645 59.8295 648.32 52.2195 646.37 43.9995C645.042 38.783 642.011 34.1586 637.758 30.8584C633.505 27.5583 628.273 25.771 622.89 25.7795V25.7695Z" fill="#17091D"/>
<path id="Vector_7" d="M789.38 328.999C737.71 310.289 629.16 263.999 593.51 222.489C557 179.999 518 159.999 510.89 156.999C503.78 153.999 513 150.999 518.89 145.279C524.57 139.789 542.38 94.0794 554.89 70.3494C559.06 69.6994 562.08 71.4694 563.33 76.6194C571 107.999 521.28 147.249 672 222.999C749.51 261.999 793.93 300.729 789.38 328.999Z" fill="#9C398C"/>
<path id="Vector_8" d="M1144.32 211.71C1144.53 218.01 1142.93 242.99 1141.79 259.71C1095.68 266.37 1011.79 276.42 1073.51 251.01C1108.76 236.51 1131.23 214.44 1145.4 193.92C1144.62 199.817 1144.26 205.762 1144.32 211.71Z" fill="#9C398C"/>
<path id="Vector_9" d="M1012.66 336.45L1007.87 284C1007.31 277.787 1008.9 271.571 1012.37 266.386C1015.84 261.201 1020.98 257.359 1026.93 255.5C1081.65 238.17 1129.4 192.44 1145 176.35" stroke="#17091D" stroke-width="7" stroke-linecap="round" stroke-linejoin="round"/>
<path id="Vector_10" d="M544.64 91.6895C566.85 132.869 607.99 188.149 676.24 211.689C735.92 232.289 765.64 246.379 780.44 255.169C784.885 257.827 788.434 261.75 790.635 266.438C792.835 271.125 793.586 276.363 792.79 281.479L785.62 327.569" stroke="#17091D" stroke-width="7" stroke-linecap="round" stroke-linejoin="round"/>
</g>
</g>
<g id="Body_&#208;&#156;&#208;&#190;&#208;&#189;&#209;&#130;&#208;&#176;&#208;&#182;&#208;&#189;&#208;&#176;&#209;&#143; &#208;&#190;&#208;&#177;&#208;&#187;&#208;&#176;&#209;&#129;&#209;&#130;&#209;&#140; 1 5">
<g id="body">
<g id="arm 2.1">
<path id="Vector_11" d="M1294.42 881.07C1294.25 880.9 1277.42 864.07 1256.51 841.47C1225.51 807.95 1186 762.39 1174.14 735.72C1166.6 718.72 1159.9 681.13 1154.22 623.88C1148.52 566.16 1145.89 508.38 1145.86 507.8V507.3L1174.25 347.24L1184.66 342.37L1227 322.52L1252.36 310.66L1278.92 357.76L1377.08 531.91C1378.55 534.09 1395.89 560 1416.56 592.97C1446.22 640.31 1483.46 703.4 1492.47 735.15C1507.54 788.28 1531.33 839.25 1531.56 839.76L1534.11 845.18L1296 882.69L1294.42 881.07Z" fill="#7E4282"/>
<path id="Vector_12" d="M1250.5 316.5L1275 360L1373.25 534.3C1373.25 534.3 1391.04 560.76 1412.75 595.39C1442.37 642.67 1479.28 705.18 1488.14 736.39C1503.49 790.51 1527.49 841.68 1527.49 841.68L1378.64 865.13L1297.59 877.9C1297.59 877.9 1280.89 861.2 1259.8 838.42C1229.4 805.58 1189.9 760.12 1178.24 733.9C1169.61 714.49 1163.18 668.75 1158.69 623.45C1152.93 565.18 1150.35 507.61 1150.35 507.61L1178.24 350.34L1186.54 346.46L1228.91 326.61L1250.49 316.51M1254.23 304.82L1246.67 308.36L1225.09 318.46L1182.72 338.31L1174.43 342.19L1170.19 344.19L1169.38 348.79L1141.5 506L1141.32 507V508C1141.32 508.58 1143.98 566.48 1149.69 624.33C1155.4 682.18 1162.24 720.14 1169.98 737.55C1182.09 764.78 1221.89 810.75 1253.16 844.55C1274.16 867.2 1291.02 884.12 1291.16 884.28L1294.4 887.52L1298.92 886.81L1379.92 874.04L1528.77 850.59L1540.6 848.73L1535.52 837.88C1535.28 837.37 1511.64 786.7 1496.68 733.95C1487.53 701.69 1450.07 638.2 1420.26 590.61C1399.94 558.21 1382.83 532.61 1380.8 529.61L1282.72 355.61L1258.21 312.14L1254.11 304.87L1254.23 304.82Z" fill="#17091D"/>
<path id="Vector_13" d="M1412.76 595.36C1396.16 595.81 1381.16 591.03 1371.76 576.71C1365.9 567.8 1356.9 559.45 1346.07 551.71C1331.85 541.58 1314.48 532.55 1296.93 524.82C1269.39 512.716 1245.38 493.816 1227.14 469.891C1208.91 445.966 1197.05 417.802 1192.68 388.04L1186.57 346.42L1178.27 289.88L1228.94 326.57L1275 360L1373.25 534.3C1373.25 534.3 1391.05 560.73 1412.76 595.36Z" fill="#5C2C66"/>
<path id="Vector_14" d="M1378.65 865.12L1297.6 877.89C1297.6 877.89 1280.9 861.19 1259.81 838.41C1229.41 805.57 1189.91 760.11 1178.25 733.89C1169.62 714.48 1163.19 668.74 1158.7 623.44L1158 504C1158 504 1251.22 745.22 1314.26 821C1329.72 839.57 1345.55 852.95 1361 857.49C1369.23 859.88 1375 862.45 1378.65 865.12Z" fill="#5C2C66"/>
<path id="Vector_15" d="M1228.5 810.5C1238.67 807.41 1270.33 797.01 1294.26 788.98C1355.34 768.48 1439.73 736.73 1437.47 718.48C1434.78 696.72 1380.92 607.83 1346.06 551.75C1335.24 534.33 1328.18 523.17 1328.18 523.17" stroke="#17091D" stroke-width="7" stroke-linecap="round" stroke-linejoin="round"/>
</g>
<g id="glove 2">
<path id="Vector_16" d="M1175.43 1443.14L1174.8 1440.68L1174.61 1439.92V1439.77C1174.54 1439.53 1174.48 1439.29 1174.43 1439.04C1174.38 1438.79 1174.1 1437.76 1174.1 1437.76C1174.1 1437.76 1174 1437.4 1173.95 1437.18L1173.87 1436.87C1165.95 1405.37 1126.87 1245.2 1134.56 1181.51C1136.76 1163.18 1142.91 1153.2 1152.81 1151.85C1155.08 1151.54 1157.44 1151.34 1159.81 1151.24C1161.04 1151.24 1162.33 1151.16 1163.62 1151.16C1166.29 1151.16 1169.11 1151.28 1172.01 1151.5C1217.34 1155.06 1272.09 1185.25 1274.4 1186.5L1274.6 1186.62C1275.92 1187.44 1307.03 1207.22 1321.92 1243.86C1327.59 1257.56 1330.48 1272.25 1330.41 1287.07C1330.41 1308.76 1324.12 1328.95 1318.69 1344.12C1305.17 1381.89 1246.38 1414.87 1234.69 1421.12C1217.38 1430.4 1199.59 1438.76 1181.4 1446.18L1176.69 1448.03L1175.43 1443.14Z" fill="#CE44A2"/>
<path id="Vector_17" d="M1163.6 1155.65C1166.23 1155.65 1168.91 1155.77 1171.6 1155.98C1216.47 1159.5 1272.16 1190.46 1272.16 1190.46C1272.16 1190.46 1303.16 1209.87 1317.7 1245.58C1323.13 1258.74 1325.91 1272.85 1325.86 1287.09C1325.86 1306.64 1320.7 1325.09 1314.4 1342.63C1303.84 1372.13 1261.6 1401.63 1232.55 1417.16C1215.4 1426.36 1197.77 1434.65 1179.74 1442C1179.74 1442 1179.52 1441.16 1179.12 1439.58C1179.04 1439.28 1178.96 1438.95 1178.87 1438.58C1178.81 1438.38 1178.76 1438.17 1178.71 1437.95C1178.6 1437.54 1178.49 1437.1 1178.37 1436.63C1178.29 1436.34 1178.22 1436.04 1178.14 1435.73C1169.76 1402.39 1131.39 1244.73 1138.94 1182.04C1140.75 1167.04 1145.2 1157.4 1153.34 1156.29C1155.48 1156 1157.68 1155.81 1159.93 1155.72C1161.13 1155.72 1162.34 1155.64 1163.56 1155.64M1163.56 1146.64C1162.2 1146.64 1160.85 1146.64 1159.56 1146.72C1157.05 1146.82 1154.56 1147.04 1152.14 1147.36C1139.95 1149.03 1132.51 1160.36 1130.03 1180.95C1126.72 1208.44 1131.33 1255.74 1143.74 1321.55C1153.39 1372.68 1164.92 1419.95 1169.43 1437.9V1437.96L1169.5 1438.23C1169.5 1438.46 1169.61 1438.68 1169.67 1438.9L1169.74 1439.18C1169.82 1439.5 1169.9 1439.8 1169.98 1440.09C1170.06 1440.38 1170.1 1440.6 1170.18 1440.89V1441C1170.25 1441.28 1170.31 1441.55 1170.38 1441.8C1170.78 1443.4 1171.01 1444.25 1171.01 1444.25L1173.57 1454.03L1182.98 1450.34C1201.34 1442.87 1219.29 1434.44 1236.75 1425.06C1254.27 1415.7 1270.81 1404.62 1286.14 1391.99C1305.14 1375.99 1317.52 1360.43 1322.82 1345.63C1328.38 1330.13 1334.76 1309.46 1334.82 1287.08C1334.88 1271.67 1331.88 1256.4 1325.99 1242.16C1310.56 1204.16 1278.26 1183.67 1276.9 1182.81L1276.7 1182.69L1276.5 1182.58C1274.15 1181.27 1218.56 1150.58 1172.27 1146.99C1169.27 1146.76 1166.27 1146.64 1163.53 1146.64H1163.56Z" fill="#17091D"/>
<path id="Vector_18" d="M1325.9 1287.09C1325.9 1306.64 1320.74 1325.09 1314.44 1342.63C1303.88 1372.13 1261.64 1401.63 1232.59 1417.16C1215.44 1426.36 1197.81 1434.65 1179.78 1442C1179.78 1442 1179.56 1441.16 1179.16 1439.58C1179.08 1439.27 1178.99 1438.95 1178.91 1438.58C1178.85 1438.38 1178.8 1438.17 1178.75 1437.95C1178.64 1437.54 1178.53 1437.1 1178.41 1436.63C1178.33 1436.34 1178.26 1436.04 1178.18 1435.73C1169.8 1402.39 1131.43 1244.73 1138.98 1182.04C1140.79 1167.04 1145.24 1157.4 1153.38 1156.29C1155.52 1156 1157.72 1155.81 1159.97 1155.72C1163.86 1155.57 1167.76 1155.65 1171.64 1155.97C1170.46 1185.47 1170.16 1246.69 1187.05 1259.55C1209.49 1276.63 1210.81 1279.73 1217.41 1301.47C1224.01 1323.21 1225.33 1315.47 1238.53 1344.95C1251.73 1374.43 1274.18 1382.21 1303.22 1326.31C1311.64 1310.13 1319.29 1297.23 1325.9 1287.09Z" fill="#9C398C"/>
<path id="Vector_19" d="M1191.67 1302.26L1157 1354" stroke="#17091D" stroke-width="7" stroke-linecap="round" stroke-linejoin="round"/>
<path id="Vector_20" d="M1220.71 1351.94C1219.39 1351.94 1168 1406 1168 1406" stroke="#17091D" stroke-width="7" stroke-linecap="round" stroke-linejoin="round"/>
<path id="Vector_21" d="M1267.17 1376.79L1231.5 1420.5" stroke="#17091D" stroke-width="7" stroke-linecap="round" stroke-linejoin="round"/>
</g>
<g id="arm 2.2">
<path id="Vector_22" d="M1375.63 1301.57C1374.95 1301.57 1374.28 1301.43 1373.65 1301.16C1373.03 1300.89 1372.47 1300.5 1372 1300C1369.81 1297.71 1370 1294.41 1370.42 1284.62C1371.08 1270.23 1372.31 1243.44 1364.42 1214.56C1354.72 1178.81 1312.06 1133.83 1252.13 1120.86C1241.31 1118.5 1230.27 1117.31 1219.2 1117.31C1214.45 1117.31 1209.64 1117.53 1204.9 1117.97L1199.17 1118.51L1200.04 1112.82C1200.57 1109.32 1213.48 1026.5 1243.48 968.48C1264.82 927.2 1270.72 913.65 1272.34 909.48C1268.79 904.23 1262.26 889.15 1280.54 864.94C1289 853.74 1307.66 840.94 1331.76 829.7L1332.66 829.28C1369.89 812.1 1412.47 801.86 1446.78 801.86C1450.51 801.86 1454.2 801.98 1457.78 802.22C1467.94 802.836 1478.04 804.217 1488 806.35C1506.24 810.35 1520.85 817.05 1531.41 826.16C1538.6 832.238 1544.13 840.042 1547.48 848.84C1552.97 863.44 1557 883.54 1549.48 931.28C1548.91 934.85 1548.34 938.2 1547.74 941.53C1542.16 972.69 1498.58 1066.08 1463.01 1138.94C1425.47 1215.8 1384.66 1294.34 1380.42 1299.13C1379.84 1299.86 1379.12 1300.45 1378.29 1300.87C1377.46 1301.29 1376.56 1301.53 1375.63 1301.57Z" fill="#CE44A2"/>
<path id="Vector_23" d="M1446.81 806.32C1450.42 806.32 1453.98 806.433 1457.47 806.66C1467.4 807.244 1477.28 808.581 1487.01 810.66C1507.01 815.09 1520.01 822.18 1528.46 829.48C1535.1 835.046 1540.2 842.23 1543.26 850.34C1547.71 862.18 1552.85 880.88 1544.98 930.5C1544.46 933.753 1543.89 937.14 1543.26 940.66C1533 998 1384 1288.21 1377 1296.11C1376.42 1296.76 1376 1297.11 1375.63 1297.11C1371.82 1297.11 1380.98 1258.28 1368.78 1213.42C1358.22 1174.53 1312.87 1129.42 1253.1 1116.51C1241.97 1114.09 1230.61 1112.86 1219.22 1112.86C1214.37 1112.86 1209.46 1113.09 1204.5 1113.54C1204.5 1113.54 1217.5 1028.62 1247.5 970.54C1277.25 913 1277.38 908.6 1277.38 908.54L1277.23 908.38C1275.77 906.84 1264.6 893.52 1284.16 867.62C1292.31 856.82 1310.55 844.49 1333.68 833.74C1366.55 818.44 1409.27 806.33 1446.81 806.33M1446.81 797.33C1412.16 797.33 1369.28 807.56 1331.71 824.74L1329.9 825.58C1304.8 837.25 1286.01 850.25 1277 862.2C1267.42 874.87 1263 886.86 1263.86 897.83C1264.17 902.034 1265.36 906.124 1267.37 909.83C1264.98 915.51 1258.26 930.17 1239.53 966.39C1209.2 1025.07 1196.18 1108.59 1195.64 1112.12L1193.9 1123.49L1205.35 1122.43C1209.96 1122 1214.63 1121.78 1219.24 1121.78C1230 1121.78 1240.73 1122.94 1251.24 1125.23C1278.05 1131.11 1302.92 1143.74 1323.5 1161.91C1341.92 1178.16 1355.28 1197.77 1360.16 1215.71C1367.82 1243.92 1366.62 1270.25 1365.97 1284.4C1365.48 1295.01 1365.28 1299.4 1368.79 1303.08C1369.67 1304.03 1370.74 1304.78 1371.92 1305.3C1373.11 1305.81 1374.39 1306.08 1375.68 1306.08C1377.24 1306.05 1378.77 1305.67 1380.17 1304.98C1381.57 1304.29 1382.8 1303.3 1383.77 1302.08C1384.67 1301.08 1387.41 1297.98 1412.52 1249.44C1422.52 1230.11 1442.9 1190.31 1467.03 1140.88C1502.74 1067.77 1546.49 973.96 1552.16 942.29C1552.76 938.95 1553.34 935.47 1553.9 931.97C1561.64 883.18 1557.43 862.41 1551.72 847.23C1548.12 837.718 1542.14 829.282 1534.37 822.72C1523.26 813.13 1507.99 806.13 1489 801.93C1478.83 799.751 1468.5 798.337 1458.12 797.7C1454.48 797.46 1450.69 797.34 1446.86 797.34L1446.81 797.33Z" fill="#17091D"/>
<path id="Vector_24" d="M1528.46 829.52C1524.62 852.417 1518.46 874.866 1510.08 896.52C1469.46 1000.45 1392.59 1030.33 1391.08 1030.9C1422.49 1003.9 1450.44 931.63 1469.08 872.68C1476.78 848.37 1482.88 826.32 1486.99 810.68C1507.05 815.13 1520 822.22 1528.46 829.52Z" fill="#D969BD"/>
<path id="Vector_25" d="M1333.67 833.73C1327.35 849.43 1319.78 868.73 1311.84 890.25C1286.08 960.03 1256.46 1052.48 1253.1 1116.47C1237.15 1112.98 1220.76 1111.97 1204.5 1113.47C1204.5 1113.47 1217.5 1028.55 1247.5 970.47C1277.25 912.93 1277.38 908.53 1277.38 908.47L1277.23 908.31C1275.77 906.77 1264.6 893.45 1284.16 867.55C1292.3 856.81 1310.54 844.48 1333.67 833.73Z" fill="#9C398C"/>
<path id="Vector_26" d="M1277.22 908.37C1286.61 902.95 1298.45 896.54 1311.84 890.25C1352.32 871.25 1407.03 853.25 1451.38 866.4C1457.4 868.186 1463.31 870.295 1469.1 872.72C1483.74 878.862 1497.52 886.876 1510.1 896.56C1523.02 906.498 1534.73 917.908 1545 930.56" stroke="#17091D" stroke-width="7" stroke-linecap="round" stroke-linejoin="round"/>
<path id="Vector_27" d="M1330.8 1336.59C1329.98 1336.6 1329.16 1336.55 1328.35 1336.45L1323.88 1335.79L1324.56 1331.32C1324.63 1330.87 1331.32 1285.45 1318.5 1242.32C1314.65 1229.44 1308.55 1217.33 1300.5 1206.56C1286.94 1188.25 1267.5 1174.86 1242.74 1166.76C1221.07 1159.67 1200.17 1158.19 1186.44 1158.19C1179 1158.19 1174.44 1158.65 1174.36 1158.65L1164.12 1159.65L1198.88 1113.52L1198.69 1108.98C1198.91 1108.98 1204.13 1108.53 1212.57 1108.53C1226.17 1108.52 1239.74 1109.64 1253.15 1111.87C1284.63 1117.27 1308.7 1128.55 1324.69 1145.42C1334.96 1156.28 1344.43 1167.86 1353.03 1180.07C1356.51 1185.07 1359.82 1190.07 1362.87 1195.07C1376.24 1216.97 1391.4 1249.07 1387.66 1277.78C1386.77 1284.99 1384.5 1291.95 1380.96 1298.29C1360.74 1333.83 1337.46 1336.59 1330.8 1336.59Z" fill="#CE44A2"/>
<path id="Vector_28" d="M1212.52 1113.06C1225.86 1113.05 1239.18 1114.14 1252.34 1116.34C1276.34 1120.45 1303.25 1129.43 1321.34 1148.55C1331.46 1159.24 1340.79 1170.65 1349.26 1182.69C1352.65 1187.52 1355.88 1192.44 1358.94 1197.45C1375.46 1224.51 1386.22 1253.45 1383.11 1277.24C1382.31 1283.87 1380.22 1290.28 1376.96 1296.11C1358.02 1329.46 1336.96 1332.11 1330.76 1332.11C1330.16 1332.12 1329.56 1332.09 1328.96 1332.02C1328.96 1332.02 1336.04 1285.73 1322.77 1241.02C1318.76 1227.63 1312.41 1215.05 1304.02 1203.86C1287.81 1181.98 1265.57 1169.51 1244.02 1162.47C1221.35 1155.05 1199.48 1153.67 1186.32 1153.67C1178.51 1153.67 1173.78 1154.16 1173.78 1154.16L1204.43 1113.48H1199C1199 1113.48 1204.15 1113.04 1212.5 1113.04M1212.5 1104.04C1203.87 1104.04 1198.5 1104.49 1198.24 1104.51L1198.43 1108.9L1197.3 1108.05L1166.65 1148.73L1154.25 1165.19L1174.75 1163.08C1174.75 1163.08 1179.21 1162.64 1186.37 1162.64C1199.77 1162.64 1220.17 1164.09 1241.28 1170.99C1265.14 1178.8 1283.82 1191.65 1296.82 1209.19C1304.57 1219.54 1310.45 1231.17 1314.17 1243.55C1326.68 1285.67 1320.17 1330.16 1320.1 1330.61L1318.74 1339.54L1327.68 1340.85C1328.71 1340.99 1329.74 1341.05 1330.78 1341.04C1334.95 1341.04 1343.45 1340.17 1353.57 1334.36C1365.38 1327.58 1375.89 1316.19 1384.79 1300.51C1388.62 1293.67 1391.09 1286.14 1392.04 1278.36C1395.95 1248.36 1380.38 1215.25 1366.63 1192.73C1363.54 1187.66 1360.18 1182.53 1356.63 1177.49C1347.9 1165.1 1338.29 1153.35 1327.87 1142.33C1311.2 1124.74 1286.29 1113.01 1253.87 1107.44C1240.21 1105.17 1226.38 1104.03 1212.53 1104.04H1212.5Z" fill="#17091D"/>
<path id="Vector_29" d="M1252.34 1116.34L1244.09 1162.49C1207.95 1150.67 1173.85 1154.18 1173.85 1154.18L1204.5 1113.5H1199C1216.83 1112.42 1234.73 1113.37 1252.34 1116.34Z" fill="#9C398C"/>
<path id="Vector_30" d="M1359 1197.45C1341.07 1204.86 1321.11 1212.78 1328.19 1208.3C1334.25 1204.48 1342.53 1193.13 1349.32 1182.69C1352.7 1187.52 1355.93 1192.44 1359 1197.45Z" fill="#D969BD"/>
<path id="Vector_31" d="M1383.15 1277.24C1382.35 1283.87 1380.26 1290.28 1377 1296.11C1354.5 1335.72 1329 1332 1329 1332C1329 1332 1336.08 1285.71 1322.81 1241C1329.57 1254.61 1340.39 1279.86 1339 1300C1337.23 1325.67 1372.3 1295.07 1383.15 1277.24Z" fill="#9C398C"/>
</g>
<g id="body_2">
<path id="Vector_32" d="M818.54 1620.61C695.02 1620.61 606.88 1605.41 554.69 1592.66C520.45 1584.28 503.12 1577.33 502.4 1577.04L499.9 1576.04L499.62 1573.35C499.56 1572.85 494.39 1522.62 495.73 1452.84C496.96 1388.4 504.16 1293.56 531.44 1207.71C532.44 1204.71 533.23 1201.98 533.97 1199.42C536.97 1189.21 539.63 1178.73 541.87 1168.23C558.62 1090.03 552.95 1012.23 545.24 960.78C536.87 904.89 524.35 867.06 524.24 866.68L523.35 864L623.9 765.93L964.25 684.4L1062.51 730.93L1163.2 832.63V834.47C1163.2 834.69 1163.29 857.39 1163.1 886.02C1162.84 927.77 1162.01 981.8 1159.56 1002.15C1156.73 1025.62 1161.68 1088.67 1170.38 1139.84C1175.06 1167.43 1180.38 1189.26 1185.87 1202.97C1186.41 1204.31 1186.93 1205.73 1187.42 1207.18C1204.88 1257.95 1213.42 1403.03 1213.72 1409.18V1409.37L1208.82 1575.88L1208.46 1576.69C1206.31 1581.49 1192.14 1586.52 1166.33 1591.69C1118.23 1601.27 1033.33 1610.13 920.85 1617.31C886.2 1619.49 851.76 1620.61 818.54 1620.61Z" fill="#7E4282"/>
<path id="Vector_33" d="M963.76 689.141L1059.87 734.651L1158.71 834.481C1158.71 834.481 1158.8 857.051 1158.61 885.991C1158.35 927.241 1157.53 981.421 1155.1 1001.61C1152.31 1024.74 1156.97 1087.74 1165.95 1140.61C1170.3 1166.25 1175.67 1189.5 1181.7 1204.61C1182.2 1205.86 1182.7 1207.19 1183.16 1208.61C1200.63 1259.41 1209.24 1409.43 1209.24 1409.43L1204.38 1574.85C1204.38 1574.85 1195.24 1595.25 920.59 1612.78C884.24 1615.11 850.21 1616.11 818.53 1616.11C694.58 1616.11 606.53 1600.7 555.76 1588.28C521.44 1579.89 504.09 1572.86 504.09 1572.86C504.09 1572.86 483.24 1374.25 535.73 1209.05C536.62 1206.25 537.48 1203.45 538.29 1200.65C541.377 1190.16 544.043 1179.66 546.29 1169.15C579.03 1016.35 528.51 865.231 528.51 865.231L626.13 770.001L963.76 689.151M964.76 679.661L961.68 680.401L624 761.241L621.58 761.821L619.81 763.551L522.17 858.791L518.17 862.731L519.96 868.091C520.08 868.461 532.51 906.091 540.82 961.631C548.45 1012.63 554.07 1089.8 537.47 1167.26C535.25 1177.66 532.63 1188.04 529.66 1198.1V1198.15C528.94 1200.65 528.13 1203.32 527.17 1206.33C515.04 1244.52 505.81 1287.62 499.74 1334.44C494.756 1373.69 491.922 1413.18 491.25 1452.74C489.9 1522.74 495.11 1573.3 495.16 1573.8L495.72 1579.18L500.72 1581.18C501.45 1581.47 519.07 1588.55 553.63 1597C606.07 1609.81 694.63 1625.08 818.54 1625.08C851.87 1625.08 886.4 1623.96 921.17 1621.74C1035.47 1614.44 1118.26 1605.8 1167.25 1596.04C1183.04 1592.9 1194.79 1589.71 1202.19 1586.57C1208.08 1584.07 1211.19 1581.66 1212.6 1578.5L1213.33 1576.87L1213.39 1575.09L1218.25 1409.67V1409.28V1408.89C1217.89 1402.71 1209.37 1257.11 1191.71 1205.7C1191.2 1204.18 1190.65 1202.7 1190.08 1201.26C1184.74 1187.86 1179.47 1166.35 1174.84 1139.06C1166.36 1089.11 1161.32 1025.38 1164.06 1002.66C1166.53 982.091 1167.37 927.881 1167.63 886.021C1167.82 857.371 1167.73 834.641 1167.73 834.421V830.741L1165.14 828.121L1066.3 728.291L1065.18 727.171L1063.75 726.491L967.61 681.001L964.75 679.641L964.76 679.661Z" fill="#17091D"/>
<path id="Vector_34" d="M1181.7 1204.63C1175.7 1189.48 1170.3 1166.23 1165.95 1140.63L612.47 1166.13C615.27 1082.24 619.18 943.81 632.97 931.33C651.71 914.33 743.24 913.33 821.73 873.1C900.22 832.87 919.24 778.29 986.63 770.34C1054.02 762.39 1062.24 858.34 1100.37 887.34C1121.56 903.49 1143.37 895.92 1158.61 886.01C1158.8 857.07 1158.71 834.5 1158.71 834.5L1059.87 734.67L963.76 689.16L626.13 770L528.49 865.24C528.49 865.24 579.01 1016.36 546.27 1169.15L538.27 1200.65C537.46 1203.46 536.6 1206.26 535.71 1209.06C483.22 1374.26 504.07 1572.87 504.07 1572.87C504.07 1572.87 521.42 1579.87 555.74 1588.29C558.5 1517.29 564.93 1373.8 572.86 1340.29C576.364 1325.99 580.705 1311.91 585.86 1298.12C585.857 1298.1 585.857 1298.07 585.86 1298.05C586.45 1296.45 587.03 1294.88 587.62 1293.31C593.54 1279.2 615.7 1239.75 675.36 1250.15C747.66 1262.76 999.94 1267.09 1084.3 1248.42C1134.46 1237.33 1165.86 1220.42 1183.08 1208.62C1182.69 1207.21 1182.2 1205.88 1181.7 1204.63Z" fill="#5C2C66"/>
<path id="Vector_35" d="M716.78 1414C790.67 1456.45 837.24 1496.67 864.63 1575.69C924.83 1605.96 1018.54 1482.69 1049.19 1431.8C1055.06 1425.06 1060.28 1407.95 1069.66 1394.38C1067.76 1409.45 1029.93 1471.06 1023.93 1478.45C972.79 1548.14 935.98 1579.57 863.81 1595.74C843.35 1506.26 783.67 1462.26 716.78 1414Z" fill="#17091D"/>
</g>
<g id="corps">
<path id="Vector_36" d="M632.46 891.08C581.6 891.08 539.25 880.63 506.6 860.03C481.55 844.22 467.9 826.27 458.8 812.4C444.39 790.4 428.54 700.7 427.87 696.89L427.74 696.13L455.52 528.13L457 425.32L459.41 256.48L548.41 196.83L588.25 224.16L588.43 224.3C588.8 224.62 626.43 256.21 681.9 287.37C732.9 316.02 810.06 350.17 887.53 350.17C900.565 350.192 913.582 349.188 926.46 347.17C1013.07 333.41 1063.66 323.03 1095.61 312.46C1134.48 299.61 1140.61 287.46 1141.67 278.26C1142.8 268.15 1149.67 267.05 1152.56 267.05C1171.01 267.05 1211.24 311.46 1219.12 320.36L1219.63 320.94L1219.92 321.66C1220.26 322.49 1253.45 405.76 1258.22 499.35C1260.41 542.15 1260.68 565.35 1259.22 582.13C1258.29 592.67 1256.71 600.62 1254.7 610.69C1253.33 617.59 1251.77 625.42 1250.06 635.87C1248.46 645.66 1247.27 655.25 1246.12 664.52C1241.4 702.72 1236.93 738.8 1205.24 787.78C1200.37 795.3 1196.04 802.19 1191.85 808.84C1171.08 841.84 1158.54 861.73 1140.78 861.73C1133.11 861.73 1125.12 857.98 1115.63 849.93C1101.16 837.65 1093.98 821.15 1087.05 805.19C1077.72 783.73 1068.91 763.47 1042.98 755.85C1023.57 750.14 996.51 746.73 970.59 746.73C937.64 746.73 878.77 752.17 854.64 788.6C809.52 856.74 737.82 890.26 635.45 891.07L632.46 891.08Z" fill="#CE44A2"/>
<path id="Vector_37" d="M548.36 202.27L585.5 227.74C585.5 227.74 735.5 354.66 887.5 354.66C900.773 354.687 914.028 353.667 927.14 351.61C1091.49 325.5 1142.73 309.01 1146.14 278.76C1146.71 273.67 1149.05 271.56 1152.56 271.55C1169.92 271.55 1215.75 323.34 1215.75 323.34C1215.75 323.34 1248.94 405.66 1253.75 499.58C1256.03 544.29 1256.13 565.97 1254.75 581.74C1253.21 599.09 1249.87 609.29 1245.63 635.14C1237.55 684.5 1240.4 725.14 1201.47 785.34C1172.71 829.79 1159.19 857.23 1140.79 857.23C1134.28 857.23 1127.17 853.81 1118.55 846.5C1085.55 818.5 1091.98 765.5 1044.26 751.5C1026.19 746.19 999.14 742.2 970.6 742.2C923.75 742.2 872.86 752.92 850.9 786.09C815.55 839.47 754.29 885.6 635.42 886.54H632.51C515.89 886.54 476.51 831.13 462.61 809.89C448.5 788.5 432.3 696.11 432.3 696.11L460 528.55L461.48 425.38L463.86 258.9L548.34 202.27M548.4 191.4L543.33 194.79L458.85 251.42L455 254.05L454.93 258.77L452.5 425.25L451 527.75L423.42 694.64L423.17 696.15L423.44 697.66C425.13 707.31 440.38 792.53 455.04 814.87C464.38 829.12 478.42 847.56 504.2 863.87C537.58 884.94 580.73 895.62 632.46 895.62H635.46C691.73 895.17 739.91 884.54 778.66 864.01C811.26 846.75 837.33 822.91 858.37 791.14C867.37 777.56 882.76 767.2 904.13 760.36C922.68 754.42 945.66 751.28 970.57 751.28C996.09 751.28 1022.68 754.62 1041.69 760.21C1065.6 767.21 1073.62 785.68 1082.9 807.03C1090.04 823.46 1097.43 840.46 1112.7 853.41C1123.05 862.19 1131.96 866.28 1140.76 866.28C1161.01 866.28 1174.04 845.59 1195.64 811.28C1199.82 804.64 1204.15 797.76 1209 790.28C1241.25 740.43 1245.78 703.85 1250.57 665.13C1251.71 655.9 1252.89 646.35 1254.48 636.64C1256.18 626.27 1257.73 618.49 1259.1 611.64C1261.1 601.44 1262.73 593.38 1263.68 582.64C1265.18 565.64 1264.91 542.25 1262.68 499.22C1260.16 449.89 1249.82 403.87 1241.58 373.95C1232.65 341.51 1224.4 320.95 1224.06 320.07L1223.48 318.64L1222.48 317.48C1222 316.94 1210.61 304.09 1196.86 291.02C1170.39 265.88 1159.28 262.65 1152.55 262.65C1145.82 262.65 1138.44 266.65 1137.19 277.86C1134.52 301.74 1081.19 318.13 925.75 342.86C913.104 344.838 900.321 345.822 887.52 345.8C811.09 345.8 734.8 312.02 684.26 283.67C629.07 252.72 591.69 221.32 591.32 221.01L590.97 220.71L590.6 220.46L553.46 194.99L548.46 191.54L548.4 191.4Z" fill="#17091D"/>
<path id="Vector_38" d="M1254.7 581.74C1253.16 599.09 1249.82 609.29 1245.58 635.14C1237.5 684.5 1240.35 725.14 1201.42 785.34C1162.49 845.54 1151.5 874.5 1118.5 846.5C1085.5 818.5 1091.93 765.5 1044.21 751.5C996.49 737.5 886.21 732.71 850.85 786.09C815.49 839.47 754.24 885.6 635.37 886.54C516.5 887.48 476.61 831.32 462.56 809.9C448.51 788.48 432.3 696.11 432.3 696.11L460 528.55L461.48 425.38L539.35 366.24C539.35 366.24 601.87 383.71 582.68 466.6C563.49 549.49 545.5 650.6 645.49 669.04C745.48 687.48 855.38 644.89 950.43 621.69C1045.48 598.49 1073.15 660.07 1145.81 654.28C1186.18 651.07 1226.67 614 1254.7 581.74Z" fill="#9C398C"/>
<path id="Vector_39" d="M455.47 794.16C478.47 814.22 521.47 837.821 596.72 837.701C727.5 837.501 742.85 804.001 804.67 724.771C866.49 645.541 944 614.901 1007.76 637.201C1071.52 659.501 1085.01 667.501 1111.76 741.001C1128.76 787.871 1160.06 809.121 1180.46 818.371" stroke="#17091D" stroke-width="7" stroke-linecap="round" stroke-linejoin="round"/>
<path id="Vector_40" d="M927.15 352.9C927.15 352.9 986.86 478 967.68 624.27" stroke="#17091D" stroke-width="7" stroke-linecap="round" stroke-linejoin="round"/>
<path id="Vector_41" d="M433.73 704.001C597.73 637.001 608.32 380.351 608.32 380.351" stroke="#17091D" stroke-width="7" stroke-linecap="round" stroke-linejoin="round"/>
<path id="Vector_42" d="M753 583C706.65 583 666 542.35 666 496C666 470.59 671.77 451.71 683.63 438.28C697.27 422.83 719.27 415 749 415C773.46 415 795.89 423.72 812.17 439.57C820.099 447.293 826.385 456.538 830.652 466.75C834.919 476.963 837.078 487.932 837 499C836.977 521.271 828.119 542.623 812.371 558.371C796.623 574.119 775.271 582.976 753 583Z" fill="#FBDAFA"/>
<path id="Vector_43" d="M749 419C798 419 833 454.82 833 499C833 509.506 830.931 519.909 826.911 529.615C822.89 539.321 816.998 548.14 809.569 555.569C802.14 562.997 793.321 568.89 783.615 572.91C773.909 576.931 763.506 579 753 579C708.82 579 670 540.18 670 496C670 451.82 688 419 749 419ZM749 411C718.07 411 695.07 419.29 680.63 435.64C668.09 449.83 662 469.57 662 496C662 519.16 671.941 542.39 689.271 559.73C706.601 577.07 729.84 587 753 587C776.331 586.974 798.699 577.694 815.197 561.196C831.694 544.699 840.974 522.331 841 499C841.087 487.4 838.829 475.901 834.361 465.196C829.893 454.49 823.308 444.797 815 436.7C798 420.13 774.55 411 749 411Z" fill="#17091D"/>
<path id="Vector_44" d="M783.86 503.44C786.67 485.07 775.16 468.07 758.14 465.44C741.12 462.81 725.05 475.61 722.24 493.98C719.43 512.35 731 529.39 748 532C765 534.61 781.05 521.81 783.86 503.44Z" fill="#D969BD"/>
<path id="Vector_45" d="M765.72 457.3C770.873 458.93 775.638 461.598 779.72 465.14C783.857 468.739 787.233 473.128 789.65 478.05C792.101 483.058 793.568 488.489 793.97 494.05C794.358 499.69 793.679 505.352 791.97 510.74C788.619 521.571 781.238 530.702 771.35 536.25C766.599 538.919 761.355 540.593 755.936 541.171C750.517 541.748 745.037 541.217 739.83 539.61C734.675 537.985 729.91 535.317 725.83 531.77C721.73 528.173 718.388 523.795 716 518.89C713.549 513.882 712.083 508.451 711.68 502.89C711.298 497.247 711.976 491.583 713.68 486.19C717.035 475.361 724.415 466.23 734.3 460.68C739.037 458.022 744.264 456.352 749.664 455.772C755.064 455.191 760.527 455.711 765.72 457.3ZM758.14 465.47C754.028 464.866 749.836 465.123 745.828 466.225C741.821 467.327 738.086 469.249 734.86 471.87C728.074 477.437 723.586 485.316 722.259 493.992C720.931 502.669 722.859 511.529 727.67 518.87C729.942 522.356 732.923 525.323 736.42 527.577C739.917 529.831 743.851 531.322 747.963 531.952C752.076 532.581 756.275 532.336 760.286 531.231C764.297 530.126 768.03 528.187 771.24 525.54C778.026 519.973 782.515 512.094 783.842 503.418C785.169 494.742 783.242 485.881 778.43 478.54C776.138 475.075 773.15 472.125 769.658 469.875C766.165 467.625 762.243 466.125 758.14 465.47Z" fill="#17091D"/>
</g>
<g id="arm 1.1">
<path id="Vector_46" d="M130.701 948.83C130.331 947.75 122.131 922.33 148.181 895.35C148.751 881.67 152.591 791.22 155.671 755.72C156.381 747.49 156.921 736.09 157.541 722.9C159.921 672.55 163.181 603.59 181.031 585.22C190.291 575.7 235.881 545.38 316.551 495.09C372.331 460.34 424.961 428.49 425.481 428.17L427.921 426.7L518.791 486.7L501.541 550.32C501.111 553.57 497.251 582.62 491.791 619.92L491.741 620.25C481.541 689.92 467.171 778.84 456.671 806.84C449.361 826.36 439.351 848.08 430.521 867.25C418.991 892.25 408.101 915.93 406.651 927.19C406.21 930.841 405.976 934.513 405.951 938.19C405.821 944.32 405.651 951.95 396.731 951.95C392.981 951.95 387.511 950.46 378.081 947.54C369.241 944.78 343.341 942.07 310.481 940.47C291.311 939.46 271.001 939 251.811 939C223.531 939 184.241 940.06 157.601 945.1C148.211 946.88 141.351 948.98 137.181 951.34L132.451 954.04L130.701 948.83Z" fill="#7E4282"/>
<path id="Vector_47" d="M427.81 432L513.6 488.63L497.12 549.4C497.12 549.4 493.12 579.58 487.29 619.56C477.68 685.16 463 777.1 452.46 805.22C435.46 850.47 404.87 905.7 402.19 926.58C400.36 940.8 403.41 947.36 396.73 947.36C393.6 947.36 388.33 945.92 379.42 943.15C370.04 940.23 343.35 937.48 310.7 935.88C292.29 934.97 271.98 934.43 251.81 934.43C215.81 934.43 180.29 936.16 156.76 940.61C147.3 942.4 139.76 944.61 134.96 947.36C134.96 947.36 126.71 923.02 152.6 897.24C152.6 897.24 156.8 794.68 160.15 756.08C163.5 717.48 163 610.22 184.26 588.36C195.18 577.12 259.26 536.11 318.93 498.91C375.33 463.77 427.81 432 427.81 432ZM428.02 421.35L423.15 424.3C422.63 424.62 369.98 456.48 314.15 491.25C192.15 567.32 181.33 578.42 177.78 582.07C160.17 600.18 156.15 656.46 153.03 722.67C152.41 735.81 151.87 747.17 151.16 755.31C148.16 789.68 144.5 875.31 143.73 893.46C117.27 922 126 949.1 126.44 950.28L129.93 960.6L139.41 955.21C141.97 953.76 147.35 951.58 158.41 949.48C178.93 945.6 212.1 943.48 251.79 943.48C270.94 943.48 291.15 943.98 310.24 944.92C349.14 946.83 370.37 949.81 376.72 951.79C386.8 954.92 392.35 956.41 396.72 956.41C405.1 956.41 408.18 950.78 409.12 948.41C410.28 945.41 410.35 942.27 410.44 938.3C410.465 934.8 410.688 931.304 411.11 927.83C412.46 917.25 423.22 893.9 434.6 869.19C443.46 849.95 453.5 828.19 460.88 808.48C471.52 780 486 690.78 496.19 620.89L496.29 620.25C501.59 584.03 505.38 555.64 505.96 551.25L522.29 491L523.99 484.71L518.56 481.13L432.77 424.5L428 421.37L428.02 421.35Z" fill="#17091D"/>
<path id="Vector_48" d="M493 580L487.29 619.59C477.68 685.19 463 777.13 452.46 805.25C435.46 850.5 404.87 905.73 402.19 926.61C399.51 947.49 407.34 951.85 379.42 943.18C370.04 940.26 343.35 937.51 310.7 935.91C287.51 916.59 254.23 886.41 258.53 875.6C265.06 859.19 297 878 351.64 875.6C406.28 873.2 481 569 481 569L493 580Z" fill="#5C2C66"/>
<path id="Vector_49" d="M367.241 559.8C367.241 559.8 329.731 642.49 284.001 662.12C282.151 662.921 280.258 663.619 278.331 664.21C276.238 664.862 274.103 665.366 271.941 665.72C220.941 674 183.481 682.34 184.231 718.17C184.981 754 188.631 878.34 181.301 903.17C178.551 912.46 168.391 926.59 156.731 940.64C147.271 942.43 139.731 944.64 134.931 947.39C134.931 947.39 126.681 923.05 152.571 897.27C152.571 897.27 156.771 794.71 160.121 756.11C163.471 717.51 163.001 610.22 184.261 588.36C195.181 577.12 259.261 536.11 318.931 498.91L367.241 559.8Z" fill="#5C2C66"/>
<path id="Vector_50" d="M287.671 643.561C286.257 650.227 285.021 656.561 283.961 662.561C276.4 705.351 271.249 748.532 268.531 791.901C268.523 792.044 268.462 792.179 268.361 792.281C268.259 792.371 268.127 792.421 267.991 792.421C267.856 792.418 267.727 792.364 267.631 792.271C267.582 792.222 267.544 792.164 267.518 792.101C267.492 792.037 267.479 791.969 267.481 791.901C267.561 775.901 267.081 760.45 268.391 743.97C270.801 713.759 274.75 683.69 280.221 653.881C280.044 648.307 281.117 642.765 283.361 637.66C283.484 637.377 283.669 637.124 283.902 636.921C284.135 636.717 284.41 636.568 284.708 636.485C285.006 636.402 285.319 636.386 285.624 636.439C285.929 636.492 286.218 636.612 286.471 636.79C286.81 637.044 287.067 637.392 287.211 637.79C288.091 640.05 288.261 642.001 287.671 643.561Z" fill="#17091D"/>
<path id="Vector_51" d="M387.84 456.38C369.74 538.07 328.61 726.38 326.84 758.38C325.36 784.79 396.08 807.02 446.84 819.54" stroke="#17091D" stroke-width="7" stroke-linecap="round" stroke-linejoin="round"/>
<path id="Vector_52" d="M154.391 856.65C164.061 848.06 175.601 842.65 185.531 851.29C200.441 864.29 202.931 908.59 202.991 935.68" stroke="#17091D" stroke-width="7" stroke-linecap="round" stroke-linejoin="round"/>
<path id="Vector_53" d="M552.5 409.5C552.5 409.5 554.31 552.83 496.5 589.5C496.5 589.5 437.1 533.71 432.3 479.6C427.5 425.49 552.5 409.5 552.5 409.5Z" fill="#5C2C66" stroke="#17091D" stroke-width="9" stroke-miterlimit="10"/>
</g>
<g id="shoulder">
<path id="Vector_54" d="M1388.55 568.2C1385.03 565.82 1301.89 509.12 1267.13 441.72C1264.34 436.31 1261.39 430.84 1258.36 425.45C1226.48 368.68 1191.44 331.04 1191.09 330.67L1190.16 329.67L1166.83 193.87L1170.93 192.87C1176.23 191.815 1181.63 191.332 1187.04 191.43C1220.28 191.43 1305.36 207.18 1377.3 353.03C1378.3 354.96 1379.21 356.92 1380.16 358.91C1434.67 472.59 1430.16 524.91 1416.73 548.7C1406.93 566.14 1392.44 568.78 1391.82 568.89L1390.05 569.19L1388.55 568.2Z" fill="#CE44A2"/>
<path id="Vector_55" d="M1187 196C1220.25 196 1302.63 212 1373.22 355.09C1374.17 357.01 1375.11 358.954 1376.06 360.92C1429.94 473.29 1425.5 523.92 1412.77 546.57C1403.91 562.33 1391.03 564.57 1391.03 564.57C1391.03 564.57 1305.72 506.91 1271.09 439.76C1268.19 434.127 1265.24 428.654 1262.24 423.34C1229.69 365.34 1194.33 327.69 1194.33 327.69L1174.14 210.18L1171.94 197.37C1176.9 196.38 1181.95 195.921 1187 196ZM1187 187C1181.24 186.895 1175.49 187.422 1169.84 188.57L1161.64 190.57L1163.07 198.88L1165.27 211.69L1185.46 329.2L1185.92 331.87L1187.77 333.87C1188.11 334.24 1222.77 371.54 1254.39 427.77C1257.39 433.1 1260.32 438.53 1263.09 443.9C1277.96 472.74 1303.19 503.08 1338.09 534.09C1353.29 547.705 1369.29 560.394 1386.01 572.09L1389.01 574.09L1392.57 573.48C1394.32 573.18 1409.99 570.03 1420.65 551.07C1429.48 535.36 1432.07 513.56 1428.34 486.27C1423.64 451.84 1408.79 408.39 1384.21 357.12C1383.37 355.36 1382.45 353.47 1381.32 351.19C1350.02 287.73 1312.92 241.71 1271.05 214.43C1236.39 191.83 1206.23 187.09 1187.05 187.09L1187 187Z" fill="#17091D"/>
<path id="Vector_56" d="M1373.26 355C1287.26 233.41 1203.34 213.28 1174.18 210L1171.98 197.19C1171.98 197.19 1282.39 170.8 1373.26 355Z" fill="#D969BD"/>
<path id="Vector_57" d="M1420.18 522.5C1366.7 525.5 1365.18 521.64 1310.5 441.5C1259.15 366.19 1220.81 350.05 1210.82 346.96C1209.98 346.687 1209.13 346.463 1208.26 346.29" stroke="#17091D" stroke-width="7" stroke-linecap="round" stroke-linejoin="round"/>
<path id="Vector_58" d="M1412.81 546.52C1403.95 562.28 1391.07 564.52 1391.07 564.52C1391.07 564.52 1305.76 506.86 1271.13 439.71C1268.23 434.077 1265.28 428.603 1262.28 423.29C1287.62 456.93 1328.04 506.64 1354.5 519.55C1374.57 529.29 1396.08 539.08 1412.81 546.52Z" fill="#9C398C"/>
<path id="Vector_59" d="M1206.14 380C1201.63 380 1195.44 379.21 1191.5 375.47C1186.95 371.15 1179.08 350.99 1166.66 318.3C1161 303.41 1154.59 286.54 1152.84 284.09C1147.54 276.67 1146.21 272.34 1146.07 271.87L1145.86 271.13L1151.32 183.98L1157.58 187.52C1158.86 188.24 1189.08 205.6 1206.5 239.41C1220.69 266.94 1251.58 344.08 1240.36 362.79C1233.26 374.64 1217.65 380 1206.14 380Z" fill="#CE44A2"/>
<path id="Vector_60" d="M1155.36 191.47C1155.36 191.47 1185.5 208.47 1202.5 241.47C1219.5 274.47 1245.5 345.47 1236.5 360.47C1230.41 370.62 1216.62 375.47 1206.14 375.47C1201.14 375.47 1196.89 374.36 1194.6 372.18C1187.5 365.44 1161.5 288.44 1156.5 281.44C1151.5 274.44 1150.4 270.6 1150.4 270.6L1155.4 191.41M1147.32 176.5L1146.42 190.85L1141.42 270.04L1141.32 271.59L1141.75 273.08C1142 273.97 1143.55 278.77 1149.12 286.59C1150.95 289.59 1157.32 306.37 1162.45 319.87C1177.71 360.01 1183.59 374.14 1188.45 378.7C1193.45 383.47 1200.86 384.47 1206.19 384.47C1219.35 384.47 1236.19 378.47 1244.27 365.07C1247.59 359.54 1248.27 351.18 1246.27 338.78C1244.29 327.321 1241.47 316.024 1237.83 304.98C1230.59 282.05 1219.83 255.49 1210.5 237.32C1192.5 202.32 1161.12 184.32 1159.79 183.57L1147.28 176.5H1147.32Z" fill="#17091D"/>
</g>
<g id="shoulder_2">
<path id="Vector_61" d="M515.38 159.43C508.443 156.185 500.785 154.787 493.148 155.37C485.511 155.954 478.155 158.499 471.79 162.76C449.5 177.5 443.26 191.2 463.88 203.85C484.5 216.5 523.24 231.5 539.37 307.5C555.5 383.5 586.14 399.1 608.37 380.3C630.6 361.5 633 342.39 618.78 304.45C604.56 266.51 609.56 240.8 585.55 218.15C561.54 195.5 515.38 159.43 515.38 159.43Z" fill="#CE44A2" stroke="#17091D" stroke-width="9" stroke-miterlimit="10"/>
<path id="Vector_62" d="M275 628.77C252.88 628.77 231.48 623.71 212.59 619.26C208.2 618.26 204.05 617.26 199.93 616.32C174.22 610.62 158.63 596.32 150.87 571.23C143.66 547.94 142.96 514.92 148.59 464.15C153.86 416.61 166.37 372.93 185.78 334.33C208.2 289.74 239.18 253.6 277.85 226.89C286.232 221.119 294.925 215.815 303.89 211C333.89 194.84 364.89 186.64 395.99 186.64C413.139 186.616 430.199 189.095 446.63 194C475.049 202.681 499.605 220.895 516.16 245.57C549.08 294.36 554.09 356.12 554.16 388.57C554.243 398.153 553.802 407.734 552.84 417.27L552.4 420.97L548.68 421.23C497.34 424.78 460.52 473.14 421.54 524.33C405.24 545.74 388.39 567.88 370.47 586.2C342.45 614.85 311.22 628.77 275 628.77Z" fill="#CE44A2"/>
<path id="Vector_63" d="M396 191.09C412.715 191.09 429.34 193.529 445.35 198.33C472.791 206.677 496.497 224.266 512.44 248.11C544.2 295.18 549.6 354.33 549.66 388.61C549.741 398.013 549.31 407.413 548.37 416.77C472.21 422 426.5 522.5 367.24 583.08C335.95 615.08 304.59 624.27 274.96 624.27C248.46 624.27 223.35 616.92 200.86 611.93C153.22 601.37 142.5 559.5 153 464.65C162.56 378.39 199 286.79 280.35 230.59C288.605 224.895 297.168 219.661 306 214.91C339.17 197.05 369.84 191.09 396 191.09ZM396 182.09C364.14 182.09 332.43 190.47 301.76 206.99C292.641 211.899 283.798 217.303 275.27 223.18C236 250.33 204.48 287 181.72 332.3C162.07 371.39 149.4 415.58 144.07 463.66C138.37 515.07 139.13 548.66 146.53 572.56C154.71 598.96 171.84 614.72 198.91 620.72C203.01 621.62 207.14 622.6 211.52 623.64C230.64 628.15 252.31 633.27 274.96 633.27C312.49 633.27 344.78 618.91 373.67 589.37C391.79 570.86 408.73 548.61 425.11 527.09C463.46 476.73 499.67 429.16 548.98 425.75L556.41 425.23L557.3 417.84C558.28 408.125 558.73 398.364 558.65 388.6C558.641 365.983 556.322 343.426 551.73 321.28C545.3 291.17 534.59 264.86 519.89 243.08C502.748 217.533 477.318 198.683 447.89 189.71C431.056 184.659 413.575 182.092 396 182.09Z" fill="#17091D"/>
<path id="Vector_64" d="M344.39 242.72C371.39 214.61 405.79 221.14 419.34 257.66C422.39 265.88 422.48 273.9 417.05 279.89C368.58 336.6 283.05 371.06 328.85 263.11C331.027 258.049 334.107 253.427 337.94 249.47C340.14 247.19 342.29 244.92 344.39 242.72Z" fill="#D969BD"/>
<path id="Vector_65" d="M549.65 388.61C549.731 398.013 549.3 407.413 548.36 416.77C472.21 422 426.5 522.5 367.24 583.08C307.98 643.66 248.5 622.5 200.86 611.93C153.22 601.36 142.5 559.5 153 464.65C162.56 378.39 199 286.79 280.35 230.59C264.89 257.36 239.1 307.46 223.45 367.27C199.98 457 199.83 550.46 273.45 561.27C347.07 572.08 405 494 445 452C477.76 417.61 518.37 395.87 549.65 388.61Z" fill="#9C398C"/>
<path id="Vector_66" d="M219.88 530.72C231.571 534.027 242.787 538.826 253.25 545C244.437 542.333 236.177 539.633 228.47 536.9C222.234 534.844 215.626 534.162 209.1 534.9C200.75 535.64 189.03 543.9 182.61 548.16C182.574 548.17 182.536 548.17 182.5 548.16C182.48 548.158 182.461 548.152 182.443 548.142C182.426 548.131 182.411 548.117 182.4 548.1C182.394 548.084 182.39 548.067 182.39 548.05C182.39 548.033 182.394 548.016 182.4 548C182.393 547.982 182.389 547.964 182.389 547.945C182.389 547.926 182.393 547.907 182.4 547.89C192.66 536.483 205.154 530.76 219.88 530.72Z" fill="#17091D"/>
<path id="Vector_67" d="M151.25 552.18C160.67 558.42 171.25 564.34 181.33 567.43C208.66 575.85 314 617 357.6 520.79C401.2 424.58 552.5 391.5 552.5 391.5" stroke="#17091D" stroke-width="7" stroke-linecap="round" stroke-linejoin="round"/>
</g>
<g id="arm 1.2">
<path id="Vector_68" d="M225 1342.83C216.24 1342.83 208.77 1341.97 202.82 1340.28C198.975 1339.25 195.338 1337.55 192.07 1335.28L190.84 1334.38L190.4 1332.93C190.14 1332.08 164.86 1248.35 149.1 1217.25C132.87 1185.24 106.49 1037.57 110 1023C111.8 1015.45 111.75 1012.74 111.71 1012.18C109.015 1003.33 107.868 994.073 108.32 984.83C109.53 964.83 119.57 950.83 137.37 944.28C142.43 942.43 150.02 940.72 159.92 939.21C182.99 935.68 217.59 933.29 254.92 932.65C261.26 932.54 267.67 932.479 273.92 932.479C283.46 932.479 292.92 932.609 301.92 932.859C327.48 933.549 349.77 935.23 366.39 937.71C393.16 941.71 400.09 946.9 402.99 950.45C427.27 980.26 421.05 1112.12 417.25 1167.45C415.74 1189.45 414.86 1207.83 414.09 1224.01C412.77 1251.93 411.89 1270.38 408.82 1283.24C405.41 1297.57 399.14 1304.84 387.82 1307.53C383.76 1308.53 376.46 1310.64 367.22 1313.35C338.22 1321.87 289.61 1336.12 250.07 1341.07C241.757 1342.17 233.385 1342.76 225 1342.83Z" fill="#CE44A2"/>
<path id="Vector_69" d="M273.88 937C283.28 937 292.64 937.12 301.77 937.37C349.9 938.67 391.55 943.58 399.47 953.31C418 976.05 419.47 1069.06 412.74 1167.14C406.01 1265.22 411.6 1297.23 386.8 1303.14C369.8 1307.14 301.48 1330.09 249.53 1336.59C241.404 1337.67 233.218 1338.25 225.02 1338.32C217.945 1338.48 210.881 1337.68 204.02 1335.94C200.68 1335.06 197.516 1333.62 194.67 1331.66C194.67 1331.66 169.2 1247.07 153.08 1215.25C136.96 1183.43 111.27 1036.67 114.29 1024.04C117 1012.94 116 1011 116 1011C116 1011 99.7802 962.92 138.89 948.57C143.78 946.78 151.23 945.15 160.57 943.72C183.84 940.16 218.81 937.83 254.92 937.21C261.22 937.1 267.56 937.05 273.92 937.05M273.92 928.05C267.6 928.05 261.17 928.05 254.81 928.21C217.34 928.86 182.51 931.27 159.25 934.83C149.04 936.39 141.17 938.17 135.84 940.12C124.96 944.12 116.67 950.7 111.18 959.69C106.726 967.268 104.209 975.827 103.85 984.61C103.39 994.176 104.533 1003.75 107.23 1012.94C106.98 1016.01 106.447 1019.04 105.64 1022.01C105.15 1024.01 104.13 1028.32 108 1056.07C110.31 1072.63 113.78 1093.27 117.77 1114.19C122.47 1138.85 134.56 1198.46 145.15 1219.37C160.73 1250.13 185.9 1333.47 186.15 1334.31L187.03 1337.23L189.51 1339.01C193.198 1341.58 197.307 1343.48 201.65 1344.64C208.1 1346.48 215.75 1347.37 225.06 1347.37C233.632 1347.29 242.192 1346.69 250.69 1345.57C290.59 1340.57 339.39 1326.26 368.55 1317.7C377.73 1315.01 384.98 1312.88 388.93 1311.94C405.56 1307.94 410.64 1295.09 413.2 1284.32C416.37 1271.05 417.2 1252.44 418.59 1224.26C419.36 1208.1 420.23 1189.78 421.75 1167.8C425.36 1115.14 426.35 1068.04 424.6 1031.58C422.48 987.48 416.55 960.04 406.48 947.67C402.83 943.2 395.06 937.52 367.07 933.33C350.27 930.82 327.79 929.12 302.07 928.43C292.99 928.18 283.52 928.05 273.94 928.05H273.92Z" fill="#17091D"/>
<path id="Vector_70" d="M249.53 1336.61C231.43 1338.88 215.33 1339.16 204.07 1335.96C200.73 1335.08 197.566 1333.64 194.72 1331.68C194.72 1331.68 169.25 1247.09 153.13 1215.27C137.01 1183.45 111.32 1036.69 114.34 1024.06C117 1012.94 116 1011 116 1011C116 1011 99.7802 962.92 138.89 948.57C143.78 946.78 151.23 945.15 160.57 943.72C159.78 985.52 159.82 1096.18 181.33 1164.88C203.54 1235.77 238.48 1312.84 249.53 1336.61Z" fill="#9C398C"/>
<path id="Vector_71" d="M314 1095.69C313.52 1140.89 300.23 1166.69 300.23 1166.69C304.51 1109.63 271.95 993.33 254.89 937.21C270.58 936.94 286.48 937 301.74 937.42C306.47 982.73 314.36 1063.91 314 1095.69Z" fill="#D969BD"/>
<path id="Vector_72" d="M116.13 1011.6C162.91 1000.48 321.72 969.8 415.88 1039.05" stroke="#17091D" stroke-width="7" stroke-linecap="round" stroke-linejoin="round"/>
<path id="Vector_73" d="M266.43 1418.77C262.81 1418.77 259.23 1418.71 255.78 1418.6C245.613 1418.35 235.478 1417.35 225.46 1415.6C211.83 1413.08 201.6 1406.46 195.05 1395.92C180.12 1371.92 189.96 1336.19 190.39 1334.68L191.27 1331.54L194.53 1331.41C194.77 1331.41 218.53 1330.41 246.61 1328.69C279.16 1326.69 303.75 1324.51 319.7 1322.27C359.32 1316.69 407.05 1293.56 407.53 1293.27L409.53 1292.27L411.53 1293.27C418.6 1296.75 424.53 1306.36 427.28 1318.99C429.613 1329.63 429.542 1340.66 427.072 1351.27C424.602 1361.88 419.794 1371.8 413 1380.32C400.85 1395.38 373 1404.41 351.8 1409.32C325.92 1415.33 294.8 1418.77 266.43 1418.77Z" fill="#CE44A2"/>
<path id="Vector_74" d="M409.5 1297.4C423.5 1304.29 434.5 1346.5 409.5 1377.5C390.01 1401.66 320.1 1414.28 266.43 1414.28C262.85 1414.28 259.35 1414.22 255.93 1414.11C245.989 1413.88 236.079 1412.91 226.28 1411.22C176.06 1401.94 194.71 1335.94 194.71 1335.94C194.71 1335.94 218.47 1334.94 246.89 1333.22C272.15 1331.65 301.11 1329.46 320.32 1326.76C361.14 1321.01 409.5 1297.4 409.5 1297.4ZM409.5 1287.4L405.5 1289.33C404.94 1289.61 357.86 1312.4 319.01 1317.87C303.19 1320.09 278.72 1322.24 246.27 1324.26C218.27 1325.99 194.52 1326.96 194.27 1326.97L187.75 1327.23L185.98 1333.51C185.53 1335.09 175.18 1372.67 191.15 1398.35C198.4 1410 209.64 1417.35 224.57 1420.07C234.815 1421.84 245.177 1422.84 255.57 1423.07C259.06 1423.19 262.69 1423.25 266.36 1423.25C295.05 1423.25 326.54 1419.76 352.74 1413.68C384.6 1406.29 406.03 1396.01 416.42 1383.12C423.613 1374.09 428.704 1363.57 431.321 1352.33C433.938 1341.08 434.017 1329.4 431.55 1318.12C428.47 1304.12 421.68 1293.4 413.4 1289.33L409.4 1287.38L409.5 1287.4Z" fill="#17091D"/>
<path id="Vector_75" d="M255.93 1414.11C245.989 1413.88 236.079 1412.91 226.28 1411.22C176.06 1401.94 194.71 1335.94 194.71 1335.94C194.71 1335.94 218.47 1334.94 246.89 1333.22C245.68 1335.64 235.63 1358.6 255.93 1414.11Z" fill="#9C398C"/>
</g>
<g id="glove 1">
<path id="Vector_76" d="M426 1632.18C414.17 1632.18 403.08 1628.76 394.17 1626.01C388.25 1624.18 383.17 1622.61 379.76 1622.61C379.046 1622.57 378.333 1622.69 377.67 1622.96C372.95 1625.33 362.74 1627.86 348.25 1627.86C330.25 1627.86 300.15 1623.95 259.31 1605.32C230.07 1591.98 214.95 1554.84 214.37 1494.92C213.94 1451.25 221.81 1410.75 221.89 1410.35C222.093 1409.33 222.644 1408.41 223.448 1407.75C224.252 1407.09 225.26 1406.73 226.3 1406.73C226.463 1406.72 226.627 1406.72 226.79 1406.73C226.95 1406.73 243.74 1408.55 269.48 1408.55C285.54 1408.55 301.67 1407.86 317.4 1406.55C368.04 1402.19 408.4 1380.34 408.82 1380.12C409.535 1379.73 410.341 1379.54 411.155 1379.57C411.968 1379.61 412.758 1379.86 413.44 1380.3C415.11 1381.39 454.51 1407.17 469.11 1421.4C469.59 1421.87 470.11 1422.4 470.51 1422.83C478.59 1431.41 481.81 1441.07 484.93 1450.42C487.18 1457.17 489.3 1463.54 493.14 1468.94C498.94 1477.09 505 1495.94 510.85 1514.17C515.16 1527.59 519.62 1541.46 523.05 1547.65L523.53 1548.48C525.583 1551.72 526.787 1555.43 527.03 1559.26C527.273 1563.09 526.547 1566.92 524.92 1570.39C520.84 1579.5 511.75 1586.12 500.62 1588.11C493.94 1589.3 484 1597.84 474.38 1606.11C460.91 1617.68 445.64 1630.79 430.89 1632.02C429.28 1632.11 427.63 1632.18 426 1632.18Z" fill="#CE44A2"/>
<path id="Vector_77" d="M411 1384C411 1384 451.54 1410.47 466 1424.56C466.44 1424.99 466.87 1425.43 467.29 1425.87C480.41 1439.81 479.85 1457.87 489.51 1471.48C499.17 1485.09 510.97 1535 519.15 1549.77C519.35 1550.14 519.55 1550.48 519.75 1550.77C527.94 1564.1 517.55 1580.44 499.86 1583.6C482.17 1586.76 454.55 1625.44 430.55 1627.44C429.04 1627.57 427.55 1627.62 426.03 1627.62C406.91 1627.62 389.54 1618.05 379.79 1618.05C378.377 1618 376.973 1618.29 375.69 1618.88C371.93 1620.77 362.69 1623.31 348.28 1623.31C328.67 1623.31 299.43 1618.61 261.21 1601.17C194.86 1570.91 226.33 1411.17 226.33 1411.17C226.33 1411.17 243.18 1413.01 269.51 1413.01C283.35 1413.01 299.81 1412.5 317.82 1410.95C370.08 1406.45 411.01 1383.95 411.01 1383.95M411.01 1374.95C409.5 1374.95 408.014 1375.33 406.69 1376.06C405.98 1376.44 366.46 1397.7 317.05 1401.96C301.44 1403.3 285.44 1403.96 269.51 1403.96C244.06 1403.96 227.51 1402.19 227.3 1402.18C226.968 1402.14 226.634 1402.12 226.3 1402.12C224.22 1402.12 222.206 1402.85 220.599 1404.17C218.993 1405.49 217.895 1407.33 217.49 1409.37C212.352 1437.58 209.805 1466.19 209.88 1494.86C210.14 1521.17 213.28 1543.59 219.22 1561.49C227.09 1585.23 239.96 1601.32 257.46 1609.3C299.03 1628.3 329.79 1632.25 348.26 1632.25C361.05 1632.25 372.65 1630.25 379.41 1627H379.77C382.48 1627 387.52 1628.56 392.85 1630.2C402.05 1633.04 413.5 1636.57 426.01 1636.57C427.79 1636.57 429.56 1636.5 431.28 1636.36C447.48 1635.01 463.33 1621.36 477.28 1609.36C486.01 1601.86 495.91 1593.36 501.38 1592.36C513.98 1590.11 524.3 1582.52 528.99 1572.05C530.895 1567.91 531.742 1563.36 531.456 1558.81C531.17 1554.26 529.759 1549.85 527.35 1545.98V1545.92C527.24 1545.73 527.13 1545.56 527.03 1545.37V1545.3C523.82 1539.49 519.43 1525.83 515.18 1512.61C508.95 1493.2 503.06 1474.87 496.85 1466.15C493.4 1461.3 491.38 1455.24 489.24 1448.82C486.12 1439.47 482.59 1428.82 473.85 1419.59C473.31 1419.02 472.85 1418.52 472.34 1418.05C457.43 1403.51 417.67 1377.5 415.98 1376.4C414.495 1375.45 412.762 1374.97 411 1375L411.01 1374.95Z" fill="#17091D"/>
<path id="Vector_78" d="M499.81 1583.66C482.12 1586.81 454.5 1625.5 430.5 1627.5C406.5 1629.5 384.5 1614.5 375.64 1618.94C366.78 1623.38 327.5 1631.5 261.16 1601.23C194.82 1570.96 226.28 1411.23 226.28 1411.23C226.28 1411.23 265.5 1415.51 317.77 1411.01C370.04 1406.51 411 1384 411 1384C411 1384 451.54 1410.47 466 1424.56C466.44 1424.99 466.87 1425.43 467.29 1425.87C459.55 1422.37 421.56 1405.87 398.88 1409.95C373.55 1414.47 312.93 1431.85 289.74 1433.66C266.55 1435.47 257.86 1469.27 261.21 1505.37C264.56 1541.47 254.75 1595.92 308.15 1597.69C361.55 1599.46 383.76 1589.77 406.15 1595.12C428.54 1600.47 471.26 1613.02 519.15 1549.77C519.35 1550.14 519.55 1550.48 519.75 1550.77C527.89 1564.16 517.5 1580.5 499.81 1583.66Z" fill="#9C398C"/>
<path id="Vector_79" d="M442.45 1556.87C442.45 1556.87 436.91 1526.43 464.63 1496" stroke="#17091D" stroke-width="8.86" stroke-linecap="round" stroke-linejoin="round"/>
<path id="Vector_80" d="M450.77 1522.09C450.77 1522.09 497.91 1552.52 481.27 1598.17" stroke="#17091D" stroke-width="8.86" stroke-linecap="round" stroke-linejoin="round"/>
<path id="Vector_81" d="M370.5 1546C370.5 1546 366.61 1596.57 380.5 1620.5" stroke="#17091D" stroke-width="10.67" stroke-linecap="round" stroke-linejoin="round"/>
<path id="Vector_82" d="M312.16 1569C312.16 1569 309.34 1615.89 327.38 1626.68" stroke="#17091D" stroke-width="8.79" stroke-linecap="round" stroke-linejoin="round"/>
<path id="Vector_83" d="M273.1 1580.26C273.1 1580.26 270.27 1609.87 288.38 1616.68" stroke="#17091D" stroke-width="7" stroke-linecap="round" stroke-linejoin="round"/>
</g>
<g id="belt">
<path id="Vector_84" d="M912.79 1245.6C910.4 1245.6 908.04 1245.6 905.69 1245.53C897.05 1245.38 888.24 1245.14 879.5 1244.83C837.326 1243.4 795.249 1239.86 753.43 1234.21C734.19 1231.62 717.16 1228.92 702.13 1226.53C692.75 1225.04 683.89 1223.63 675.69 1222.44C656.1 1219.61 629.96 1212.9 611.49 1207.76C571.29 1196.57 521.43 1179.93 514.16 1173.93C505.55 1166.8 506.68 1120.29 506.84 1115C507.32 1098.75 509.76 1058.31 521.97 1033.8C524.319 1029.1 528.316 1025.44 533.197 1023.5C538.079 1021.57 543.502 1021.5 548.43 1023.31C560.92 1027.9 586.64 1037.11 618.54 1047.31C674.48 1065.22 724.82 1078.46 768.18 1086.67C798.69 1092.45 825.43 1095.61 847.64 1096.07C851.02 1096.14 854.49 1096.17 857.96 1096.17C865.91 1096.17 874.21 1095.99 882.64 1095.62C937.93 1093.24 992.77 1083.56 1029.05 1075.86C1055.57 1070.24 1081.83 1063.6 1102.99 1057.16C1117.49 1052.75 1128.83 1048.65 1134.12 1045.9C1139.12 1043.33 1143.23 1040.99 1146.9 1038.9C1155.65 1033.99 1161.42 1030.75 1166.9 1030.75C1172.99 1030.75 1176.98 1034.84 1179.45 1037.92C1185.95 1046 1187.91 1087.52 1188.45 1111.56C1188.6 1118.04 1189.84 1175.18 1184.29 1184.89C1183.41 1186.44 1181.29 1190.08 1158.79 1198.66C1144.52 1204.08 1125.38 1210.18 1104.9 1215.81C1078.83 1222.99 1050.9 1229.34 1024.28 1234.19C982.83 1241.77 945.3 1245.6 912.79 1245.6Z" fill="#CE44A2"/>
<path id="Vector_85" d="M541.06 1026.49C543.044 1026.48 545.014 1026.82 546.88 1027.49C560.78 1032.59 586 1041.58 617.17 1051.55C660.56 1065.44 715.46 1081.22 767.34 1091.04C795.79 1096.43 823.34 1100.04 847.55 1100.52C851.004 1100.59 854.477 1100.63 857.97 1100.63C866.157 1100.63 874.447 1100.44 882.84 1100.07C933 1098 985.55 1089.69 1030 1080.26C1059.33 1074.04 1085.12 1067.26 1104.32 1061.46C1119.67 1056.79 1130.82 1052.69 1136.21 1049.89C1152.54 1041.41 1160.7 1035.27 1166.94 1035.27C1170.18 1035.27 1172.94 1036.92 1175.94 1040.76C1184.94 1052 1186.94 1171.38 1180.43 1182.69C1177.63 1187.6 1146.92 1199.63 1103.75 1211.51C1079.94 1218.06 1052.33 1224.51 1023.52 1229.8C986.76 1236.48 948.03 1241.1 912.76 1241.1C910.4 1241.1 908.067 1241.08 905.76 1241.04C896.767 1240.88 888.064 1240.65 879.65 1240.34C828.65 1238.52 787.76 1234.34 754.02 1229.76C722.81 1225.56 697.7 1221.09 676.32 1217.99C659.53 1215.57 636.27 1209.99 612.68 1203.43C568.37 1191.1 522.9 1175.32 517.01 1170.43C509.08 1163.87 506.77 1074.35 526.01 1035.77C527.407 1032.97 529.557 1030.61 532.22 1028.97C534.882 1027.32 537.951 1026.46 541.08 1026.46M541.08 1017.46C536.275 1017.44 531.56 1018.77 527.473 1021.29C523.386 1023.82 520.09 1027.44 517.96 1031.75C505.36 1057.06 502.86 1098.28 502.36 1114.82C501.914 1127.54 502.282 1140.28 503.46 1152.96C505.24 1170.15 508.29 1174.83 511.31 1177.33C512.88 1178.63 517.03 1182.05 547.53 1192.59C566.31 1199.07 589.19 1206.16 610.3 1212.04C628.9 1217.21 655.24 1223.98 675.07 1226.84C683.24 1228.02 692.07 1229.43 701.45 1230.92C716.5 1233.31 733.56 1236.02 752.85 1238.62C794.816 1244.28 837.039 1247.84 879.36 1249.27C888.15 1249.58 896.99 1249.82 905.63 1249.98C907.97 1249.98 910.39 1250.04 912.81 1250.04C945.59 1250.04 983.39 1246.19 1025.18 1238.59C1051.97 1233.72 1079.98 1227.33 1106.18 1220.13C1126.8 1214.45 1146.08 1208.31 1160.47 1202.84C1182.67 1194.39 1186.47 1190.28 1188.29 1187.09C1190.11 1183.9 1191.82 1178.3 1192.75 1157.68C1193.34 1144.68 1193.44 1128.23 1193.03 1111.43C1192.6 1094.06 1191.65 1077.61 1190.35 1065.11C1188.15 1044.03 1185.52 1038.22 1183 1035.11C1181.24 1032.92 1175.89 1026.26 1166.94 1026.26C1160.27 1026.26 1154.08 1029.74 1144.72 1034.99C1141.08 1036.99 1136.95 1039.36 1132.07 1041.9C1129.68 1043.14 1121.94 1046.69 1101.7 1052.84C1080.7 1059.24 1054.54 1065.84 1028.14 1071.45C992.03 1079.11 937.45 1088.74 882.47 1091.11C874.11 1091.48 865.87 1091.66 857.99 1091.66C854.55 1091.66 851.1 1091.66 847.76 1091.55C825.76 1091.1 799.3 1087.96 769.03 1082.23C725.86 1074.06 675.7 1060.86 619.93 1043.01C588.1 1032.83 562.45 1023.64 550 1019.07C547.143 1018.02 544.123 1017.49 541.08 1017.49V1017.46Z" fill="#17091D"/>
<path id="Vector_86" d="M617.17 1051.59L612.69 1203.43C568.38 1191.1 522.91 1175.32 517.02 1170.43C509.09 1163.87 506.78 1074.35 526.02 1035.77C527.876 1032.06 531.032 1029.17 534.886 1027.64C538.74 1026.12 543.021 1026.07 546.91 1027.5C560.78 1032.63 586 1041.62 617.17 1051.59Z" fill="#9C398C"/>
<path id="Vector_87" d="M879.5 1244.84C837.326 1243.41 795.25 1239.86 753.43 1234.22L748.67 1233.58L749.67 1228.87C757.59 1189.52 761.35 1125.52 762.89 1090.87L763.13 1085.68L768.23 1086.68C798.74 1092.46 825.48 1095.62 847.69 1096.08C851.07 1096.15 854.53 1096.19 858.01 1096.19C865.96 1096.19 874.26 1096 882.69 1095.63L887.5 1095.42L884.06 1245L879.5 1244.84Z" fill="#7E4282"/>
<path id="Vector_88" d="M767.341 1091.08C795.791 1096.47 823.341 1100.08 847.551 1100.56C851.004 1100.63 854.477 1100.67 857.971 1100.67C866.157 1100.67 874.447 1100.48 882.841 1100.11L879.661 1240.34C828.661 1238.52 787.771 1234.34 754.031 1229.76C762.081 1189.76 765.861 1124.38 767.341 1091.08ZM758.811 1080.3L758.351 1090.68C756.811 1125.2 753.071 1188.94 745.211 1227.98L743.311 1237.4L752.831 1238.68C794.795 1244.35 837.019 1247.9 879.341 1249.33L888.451 1249.66L888.661 1240.54L891.841 1100.31L892.061 1090.7L882.451 1091.12C874.081 1091.48 865.851 1091.67 857.971 1091.67C854.521 1091.67 851.081 1091.67 847.741 1091.56C825.741 1091.11 799.281 1087.97 769.021 1082.24L758.811 1080.3Z" fill="#17091D"/>
<g id="Vector_89">
<path d="M1104.3 1061.46C1106.1 1093.46 1104.81 1166.96 1103.78 1211.46C1079.97 1218.01 1052.36 1224.46 1023.55 1229.75C1021.98 1181.13 1027.35 1110.75 1029.98 1080.21" fill="#7E4282"/>
<path d="M1104.3 1061.46C1106.1 1093.46 1104.81 1166.96 1103.78 1211.46C1079.97 1218.01 1052.36 1224.46 1023.55 1229.75C1021.98 1181.13 1027.35 1110.75 1029.98 1080.21" stroke="#17091D" stroke-width="9" stroke-miterlimit="10"/>
</g>
</g>
</g>
</g>
</g>
</svg>
