<svg width="1800" height="1650" viewBox="0 0 1800 1650" fill="none" xmlns="http://www.w3.org/2000/svg">
<g id="Body 03">
<g id="Body_&#208;&#156;&#208;&#190;&#208;&#189;&#209;&#130;&#208;&#176;&#208;&#182;&#208;&#189;&#208;&#176;&#209;&#143; &#208;&#190;&#208;&#177;&#208;&#187;&#208;&#176;&#209;&#129;&#209;&#130;&#209;&#140; 1-03 4">
<g id="glove 2">
<path id="Vector" d="M1521.21 1611.77C1508.34 1611.77 1493.7 1605.69 1479.55 1599.77C1474.72 1597.77 1470.17 1595.87 1465.88 1594.31C1459.12 1591.85 1454.32 1590.71 1450.76 1590.71C1450.17 1590.71 1449.58 1590.75 1449 1590.82C1447.28 1591.06 1445.54 1591.19 1443.8 1591.19C1433.87 1591.19 1424.7 1587.07 1419.27 1580.19C1417.06 1577.44 1415.51 1574.21 1414.76 1570.76C1414 1567.31 1414.05 1563.74 1414.91 1560.31C1414.99 1560.01 1415.05 1559.71 1415.11 1559.39C1418.01 1544.3 1427.49 1499.39 1432.72 1482.62C1434.58 1476.62 1431.85 1468.27 1428.96 1459.41C1425.29 1448.13 1421.11 1435.34 1426.25 1424.41C1426.55 1423.78 1426.85 1423.19 1427.16 1422.59C1435.72 1406.22 1460.69 1374.52 1466.24 1367.59C1465.97 1361.24 1465.14 1338.13 1465.87 1313.65C1467.64 1254.39 1476.62 1244.95 1479.58 1241.85C1480.67 1240.62 1482 1239.62 1483.49 1238.94C1484.98 1238.25 1486.6 1237.88 1488.24 1237.85C1497.56 1237.85 1523.24 1229.17 1543.79 1222.19C1557.79 1217.43 1571.12 1212.93 1579.39 1210.99C1583.32 1210.05 1587.35 1209.57 1591.39 1209.56C1602.39 1209.56 1611.25 1213.3 1618.39 1216.3C1623.65 1218.52 1628.19 1220.44 1632.26 1220.44C1633.67 1220.45 1635.06 1220.2 1636.38 1219.7C1637.11 1219.43 1637.89 1219.29 1638.67 1219.29C1645.17 1219.29 1648.17 1227.84 1650.67 1240.69C1652.53 1250.28 1654.23 1263.59 1655.67 1280.25C1657.91 1305.38 1658.99 1330.8 1659.21 1336.25C1664.9 1346.6 1709.21 1429.46 1703.21 1489.05C1701.4 1507.11 1695.07 1521.42 1684.4 1531.59L1683.73 1532.21C1678.9 1536.66 1674.01 1540.9 1669.17 1544.84C1657.5 1554.46 1644.95 1562.96 1631.68 1570.21C1605.04 1584.52 1587.31 1586.06 1580.92 1586.06C1579.51 1586.07 1578.09 1585.98 1576.69 1585.79H1576.35C1575.87 1585.8 1575.39 1585.89 1574.93 1586.03C1571.7 1586.96 1567.19 1590.15 1561.93 1593.84C1553.16 1600.04 1542.24 1607.76 1528.93 1610.93C1526.4 1611.51 1523.81 1611.79 1521.21 1611.77Z" fill="#CE44A2"/>
<path id="Vector_2" d="M1591.38 1214.05C1609.45 1214.05 1620.93 1224.92 1632.22 1224.92C1634.16 1224.94 1636.09 1224.6 1637.91 1223.92C1638.14 1223.83 1638.38 1223.79 1638.63 1223.79C1650.63 1223.79 1654.77 1337.53 1654.77 1337.53C1654.77 1337.53 1704.9 1427.03 1698.77 1488.65C1697.19 1504.35 1691.97 1518.23 1681.33 1528.37L1680.69 1528.97C1675.8 1533.47 1671.02 1537.61 1666.36 1541.39C1654.92 1550.84 1642.61 1559.18 1629.58 1566.29C1606.52 1578.68 1589.4 1581.61 1580.95 1581.61C1579.76 1581.62 1578.57 1581.54 1577.39 1581.38C1577.06 1581.33 1576.72 1581.31 1576.39 1581.31C1575.49 1581.32 1574.59 1581.46 1573.73 1581.72C1563.73 1584.59 1548.63 1601.66 1527.92 1606.57C1525.73 1607.07 1523.49 1607.32 1521.24 1607.3C1504.99 1607.3 1484.12 1596.23 1467.44 1590.16C1461.14 1587.86 1455.44 1586.29 1450.79 1586.29C1449.99 1586.29 1449.2 1586.34 1448.41 1586.44C1446.89 1586.66 1445.36 1586.76 1443.82 1586.76C1428.15 1586.76 1415.98 1575.3 1419.3 1561.42C1419.39 1561.05 1419.48 1560.67 1419.55 1560.25C1422.74 1543.67 1432.03 1500.04 1437.03 1484.02C1442.03 1468 1422.2 1443.7 1430.34 1426.37C1430.6 1425.82 1430.87 1425.27 1431.16 1424.72C1440.51 1406.84 1470.82 1369.08 1470.82 1369.08C1470.82 1369.08 1464.64 1242.36 1488.26 1242.36C1504.64 1242.36 1559.52 1220.27 1580.44 1215.36C1584.04 1214.5 1587.74 1214.07 1591.44 1214.06M1591.44 1205.06C1587.06 1205.08 1582.7 1205.59 1578.44 1206.6C1569.96 1208.6 1556.59 1213.12 1542.44 1217.92C1523.23 1224.43 1496.91 1233.35 1488.33 1233.35C1486.08 1233.37 1483.85 1233.86 1481.8 1234.79C1479.75 1235.72 1477.91 1237.06 1476.41 1238.74C1470.78 1244.66 1463.1 1258.84 1461.47 1313.51C1460.78 1336.61 1461.47 1357.98 1461.77 1366.09C1454.6 1375.15 1431.55 1404.71 1423.26 1420.54C1422.96 1421.12 1422.65 1421.75 1422.26 1422.47V1422.53C1416.37 1435.08 1420.83 1448.77 1424.77 1460.84C1427.32 1468.65 1429.95 1476.71 1428.51 1481.32C1423.23 1498.25 1413.69 1543.42 1410.79 1558.54C1410.79 1558.54 1410.79 1558.6 1410.79 1558.63C1410.79 1558.83 1410.71 1559.03 1410.66 1559.24V1559.31C1409.64 1563.4 1409.58 1567.66 1410.48 1571.77C1411.39 1575.89 1413.23 1579.74 1415.86 1583.02C1422.14 1591.02 1432.63 1595.73 1443.92 1595.73C1445.87 1595.73 1447.82 1595.59 1449.76 1595.32C1450.13 1595.27 1450.51 1595.25 1450.89 1595.25C1453.89 1595.25 1458.31 1596.34 1464.47 1598.59C1468.66 1600.11 1473.17 1601.98 1477.95 1603.97C1492.51 1609.97 1507.57 1616.26 1521.34 1616.26C1524.29 1616.27 1527.22 1615.93 1530.09 1615.26C1544.29 1611.9 1555.6 1603.9 1564.7 1597.47C1569.18 1594.3 1573.81 1591.02 1576.31 1590.31H1576.47C1577.99 1590.51 1579.53 1590.6 1581.06 1590.59C1587.79 1590.59 1606.41 1589 1633.94 1574.21C1647.47 1566.83 1660.26 1558.17 1672.15 1548.36C1677.05 1544.36 1682.01 1540.07 1686.89 1535.58L1686.98 1535.5L1687.67 1534.85C1699.11 1523.95 1705.9 1508.69 1707.82 1489.54C1710.52 1462.54 1703.7 1427.96 1687.57 1386.71C1680.66 1369.05 1672.72 1351.8 1663.8 1335.06C1663.5 1327.88 1662.41 1303.74 1660.29 1279.86C1658.79 1263.05 1657.06 1249.58 1655.17 1239.86C1654.31 1234.9 1652.99 1230.03 1651.23 1225.31C1648.4 1218.31 1644.23 1214.82 1638.77 1214.81C1637.45 1214.81 1636.14 1215.05 1634.91 1215.51C1634.09 1215.82 1633.22 1215.97 1632.35 1215.96C1629.19 1215.96 1625.04 1214.21 1620.23 1212.18C1612.74 1209.02 1603.42 1205.09 1591.51 1205.09L1591.44 1205.06Z" fill="#17091D"/>
<path id="Vector_3" d="M1448.38 1586.42C1453.38 1585.72 1459.98 1587.42 1467.38 1590.14C1486.45 1597.08 1510.99 1610.55 1527.86 1606.55C1548.57 1601.64 1563.68 1584.55 1573.67 1581.7C1574.85 1581.32 1576.11 1581.21 1577.34 1581.36C1583.67 1582.36 1602.52 1580.78 1629.53 1566.27C1642.56 1559.16 1654.87 1550.82 1666.31 1541.37C1670.98 1537.58 1675.75 1533.44 1680.64 1528.95L1681.28 1528.35C1689.65 1520.23 1695.28 1506.35 1698.72 1488.63C1704.87 1427.01 1654.72 1337.51 1654.72 1337.51C1654.72 1337.51 1650.42 1219.23 1637.86 1223.9C1622.39 1229.67 1608.55 1208.74 1580.36 1215.35C1559.44 1220.26 1504.56 1242.35 1488.18 1242.35C1464.56 1242.35 1470.74 1369.07 1470.74 1369.07C1470.74 1369.07 1440.43 1406.83 1431.08 1424.71C1430.79 1425.26 1430.52 1425.81 1430.26 1426.36C1436.53 1420.63 1467.52 1393.18 1490.33 1389.97C1515.81 1386.39 1578.83 1384.07 1601.44 1378.58C1624.05 1373.09 1642.81 1402.52 1650.84 1437.88C1656.22 1461.49 1669.71 1491.09 1663.1 1513.56C1659.82 1524.74 1651.58 1534.15 1634.92 1540.21C1633.17 1540.85 1631.45 1541.46 1629.78 1542.05C1605.26 1550.6 1587.24 1554.18 1572.91 1557.34C1559.91 1560.2 1549.97 1562.71 1540.91 1568.23C1526.22 1577.23 1501.82 1593.74 1462.91 1582.23C1450.05 1578.42 1435.59 1571.52 1419.38 1560.23C1419.31 1560.65 1419.22 1561.03 1419.13 1561.4C1415.63 1576.61 1430.59 1588.92 1448.38 1586.42Z" fill="#9C398C"/>
<path id="Vector_4" d="M1494.57 1543.13C1494.57 1543.13 1490.38 1512.48 1454.57 1492.13" stroke="#17091D" stroke-width="8.86" stroke-linecap="round" stroke-linejoin="round"/>
<path id="Vector_5" d="M1475.86 1512.65C1475.86 1512.65 1440.51 1556.23 1470.51 1594.45" stroke="#17091D" stroke-width="8.86" stroke-linecap="round" stroke-linejoin="round"/>
<path id="Vector_6" d="M1559.58 1510.44C1559.58 1510.44 1578.99 1557.3 1573.23 1584.36" stroke="#17091D" stroke-width="10.67" stroke-linecap="round" stroke-linejoin="round"/>
<path id="Vector_7" d="M1622.18 1514.17C1622.18 1514.17 1639.44 1557.86 1625.64 1573.73" stroke="#17091D" stroke-width="8.79" stroke-linecap="round" stroke-linejoin="round"/>
<path id="Vector_8" d="M1662.81 1512.72C1662.81 1512.72 1674.7 1539.99 1659.6 1552.1" stroke="#17091D" stroke-width="7" stroke-linecap="round" stroke-linejoin="round"/>
<path id="Vector_9" d="M1529 1567C1536.18 1567 1542 1554.24 1542 1538.5C1542 1522.76 1536.18 1510 1529 1510C1521.82 1510 1516 1522.76 1516 1538.5C1516 1554.24 1521.82 1567 1529 1567Z" fill="#D969BD"/>
<path id="Vector_10" d="M1600.06 1539.12C1607.01 1537.34 1610.15 1526.14 1607.07 1514.1C1603.99 1502.06 1595.86 1493.75 1588.9 1495.53C1581.95 1497.31 1578.8 1508.51 1581.88 1520.55C1584.96 1532.58 1593.1 1540.9 1600.06 1539.12Z" fill="#D969BD"/>
<path id="Vector_11" d="M1644.37 1518.54C1650.38 1517 1653.51 1508.95 1651.36 1500.55C1649.21 1492.15 1642.6 1486.58 1636.59 1488.12C1630.58 1489.66 1627.46 1497.71 1629.6 1506.11C1631.75 1514.51 1638.37 1520.08 1644.37 1518.54Z" fill="#D969BD"/>
</g>
<g id="body">
<path id="Vector_12" d="M902 519.5C901.296 519.5 900.601 519.335 899.972 519.017C899.343 518.699 898.798 518.238 898.38 517.67C897.76 516.83 836.23 433.14 775.57 350.33C739.94 301.69 711.57 262.86 691.26 234.93C679.2 218.34 669.88 205.46 663.56 196.64C652.73 181.52 651.77 180.18 652.44 178.12C652.61 172.42 650.75 127.39 649.5 99.54C649.475 98.9434 649.568 98.3477 649.776 97.7878C649.984 97.228 650.302 96.7153 650.71 96.28L682.55 62.09C682.917 61.6785 683.358 61.3393 683.85 61.09C685.37 60.34 722.06 42.75 808.44 42.75C817.84 42.75 827.63 42.96 837.51 43.39C901 46.13 948.5 52.06 987 62.07C1035.82 74.77 1071.59 94.37 1096.36 122C1099.98 126 1104.24 135.83 1105.06 176.06C1105.53 199.37 1104.76 230.25 1102.77 267.84C1099.38 331.74 1093.55 393.84 1093.49 394.42C1093.43 395.094 1093.22 395.746 1092.87 396.328C1092.53 396.91 1092.05 397.406 1091.49 397.78L904.49 518.78C903.75 519.262 902.883 519.512 902 519.5Z" fill="#CE44A2"/>
<path id="Vector_13" d="M808.44 47.28C817.507 47.28 827.134 47.49 837.32 47.91C944.5 52.5 1041 67 1093 125C1112.37 146.61 1089 394 1089 394L902 515C902 515 656.24 180.74 656.87 179.12C657.5 177.5 654 99.34 654 99.34L685.84 65.16C685.84 65.16 722.12 47.28 808.44 47.28ZM808.44 38.28C721.03 38.28 683.44 56.28 681.86 57.08C680.883 57.5638 680.002 58.2212 679.26 59.02L647.41 93.21C646.596 94.0859 645.964 95.1154 645.552 96.2384C645.14 97.3613 644.956 98.5551 645.01 99.75C646.24 127.16 648.09 171.89 647.94 177.88C647.678 180.474 648.391 183.073 649.94 185.17C650.43 185.91 651.13 186.94 652.08 188.3C653.82 190.8 656.44 194.49 659.85 199.3C666.18 208.13 675.51 221.02 687.57 237.62C707.89 265.55 736.25 304.38 771.89 353.03C832.6 435.8 894.13 519.5 894.75 520.33C896.108 522.179 898.121 523.44 900.378 523.854C902.634 524.268 904.964 523.806 906.89 522.56L1093.89 401.56C1095.03 400.821 1095.99 399.834 1096.7 398.672C1097.4 397.51 1097.83 396.203 1097.96 394.85C1098.02 394.23 1103.86 332.07 1107.25 268.08C1109.25 230.38 1110.02 199.39 1109.55 175.96C1108.7 134.5 1104.1 123.89 1099.7 118.96C1074.32 90.66 1037.82 70.61 988.12 57.69C949.31 47.59 901.52 41.62 837.71 38.89C827.71 38.46 817.91 38.25 808.44 38.25V38.28Z" fill="#17091D"/>
<path id="Vector_14" d="M877.76 1637.69C790.76 1637.69 696.3 1632.94 597.15 1623.56C562.54 1620.29 527.42 1616.44 492.73 1612.12C485.117 1611.16 477.874 1610.23 471 1609.33L465.53 1608.61L456.09 1607.34L453.59 1607C452.04 1606.79 450.48 1606.58 448.95 1606.35C448.22 1606.26 447.45 1606.15 446.69 1606.04C440.69 1605.22 435.18 1604.42 430.09 1603.68L429.09 1603.53L427.49 1603.3C425.49 1603.02 423.6 1602.73 421.75 1602.45L418.64 1601.99L416.26 1601.63L415.62 1601.54L413.81 1601.26C410.72 1600.8 407.95 1600.36 405.52 1599.98L403.59 1599.68L402.92 1599.58H402.77L401.4 1599.36L400.79 1599.27C400.37 1599.19 400.05 1599.14 399.74 1599.1L397.17 1598.68C397.053 1598.66 396.936 1598.64 396.82 1598.61C394.16 1598.19 392.82 1597.95 392.82 1597.95C391.681 1597.75 390.663 1597.12 389.977 1596.19C389.292 1595.26 388.992 1594.1 389.14 1592.95L389.67 1588.85V1588.67C389.8 1587.67 389.94 1586.56 390.1 1585.33L390.21 1584.46C390.21 1584.12 390.3 1583.75 390.35 1583.35L390.57 1581.75C390.57 1581.43 390.74 1580.39 390.74 1580.39L390.89 1579.27C390.89 1578.93 390.98 1578.48 391.04 1578.03L392.4 1567.57C392.46 1567.07 392.53 1566.57 392.6 1565.96L392.94 1563.34C393.34 1560.25 393.76 1556.98 394.22 1553.52L394.83 1548.77C395.41 1544.27 396.03 1539.47 396.69 1534.4L398.37 1521.46C398.5 1520.46 398.64 1519.33 398.79 1518.24L399.5 1512.74L399.86 1510.01L401.92 1494.12C402.24 1491.71 402.56 1489.28 402.92 1486.81L406.27 1461.04C406.744 1457.48 407.214 1453.88 407.68 1450.25L408.98 1440.25C410.37 1429.68 411.79 1418.79 413.24 1407.66L414.53 1397.79C414.77 1395.95 415.02 1394.09 415.26 1392.23L422.88 1334.04C423.07 1332.68 423.25 1331.38 423.42 1330.04L423.72 1327.75C424.28 1323.47 424.844 1319.19 425.41 1314.9L426.1 1309.68C426.78 1304.47 427.47 1299.24 428.16 1294.02C465.16 1013.48 467.7 1007.21 468.52 1005.15C468.637 1004.85 468.73 1004.54 468.8 1004.23L468.97 1003.46C468.966 1003.41 468.966 1003.36 468.97 1003.31C469.1 1002.68 469.24 1001.88 469.41 1000.78L469.58 999.57L469.67 998.91C469.67 998.56 469.83 997.56 469.84 997.48L469.9 996.97C469.9 996.91 470.08 995.26 470.11 994.89L470.29 993C470.35 992.36 470.4 991.72 470.45 991C470.45 991 470.45 990.93 470.45 990.9C470.45 990.63 470.5 990.35 470.52 990.08L470.58 989.24C470.68 988.01 470.77 986.74 470.86 985.43C470.86 985.43 470.97 983.81 470.99 983.43L471.1 981.63C471.1 981.52 471.1 981.37 471.1 981.2L471.16 980.2C471.22 979.2 471.28 978.07 471.33 976.96C471.42 975.44 471.48 973.96 471.56 972.37C471.56 971.66 471.62 970.94 471.66 970.2L471.78 967.04C471.78 966.43 471.78 965.89 471.85 965.33C471.85 965.33 471.85 965.13 471.85 965.09C471.85 964.64 471.85 964.18 471.9 963.72V963.61C471.9 963.19 471.9 962.77 471.9 962.35C472.08 957.35 472.22 952.87 472.33 948.77C472.33 947.97 472.38 947.19 472.4 946.42V946.19C472.4 945.57 472.4 944.98 472.45 944.4L472.59 938.4V936.33L472.67 932.88V930.76C472.73 927.27 472.79 923.85 472.84 920.52C472.84 919.61 472.84 918.7 472.84 917.82L472.95 910.24V908.02V906.02L473.01 899.48C473.01 898.75 473.01 898.04 473.01 897.34V896.05C473.01 893.47 473.01 891.17 473.06 889.15V888.62C473.06 885.92 473.06 883.77 473.06 882.29C472.45 881.83 471.85 881.37 471.28 880.91C470.96 880.66 470.59 880.37 470.28 880.07C469.47 879.41 468.75 878.8 468.09 878.2C467.75 877.91 467.41 877.59 467.09 877.27L466.09 876.27L465.73 875.92C465.49 875.7 465.25 875.47 465.02 875.23C464.79 874.99 464.36 874.58 464.02 874.23L463.07 873.23C462.76 872.91 462.43 872.55 462.07 872.18C461.71 871.81 461.46 871.51 461.14 871.18C460.82 870.85 460.53 870.49 460.22 870.12C459.64 869.44 459.07 868.74 458.51 868.05L458.25 867.73C457.76 867.09 457.25 866.44 456.79 865.79C456.484 865.39 456.194 864.99 455.92 864.59L455.29 863.7C455.19 863.57 455.09 863.43 455 863.29C454.54 862.61 454.09 861.93 453.65 861.24L452.94 860.11C452.52 859.43 452.12 858.76 451.73 858.11L451.43 857.59C451.25 857.27 451.06 856.94 450.89 856.59C450.55 855.98 450.19 855.31 449.89 854.65L449.44 853.78C449.12 853.14 448.81 852.53 448.52 851.9C448.32 851.49 448.12 851.04 447.92 850.6L447.34 849.32C447.13 848.85 446.89 848.32 446.67 847.74C446.61 847.58 446.34 846.94 446.34 846.94C446.13 846.42 445.93 845.94 445.75 845.44L445.34 844.33C445.19 843.95 445.04 843.53 444.89 843.09C444.6 842.28 444.3 841.42 444.03 840.55L443.65 839.33C443.51 838.9 443.38 838.47 443.26 838.03C443.07 837.39 442.89 836.75 442.72 836.09C442.55 835.43 442.28 834.44 442.07 833.58L441.66 831.77C441.58 831.46 441.51 831.13 441.45 830.77V830.56L441.3 829.85C441.24 829.56 441.18 829.26 441.13 828.97C440.97 828.13 440.82 827.3 440.67 826.46C440.5 825.46 440.34 824.46 440.22 823.46C440.12 822.77 440.02 822.03 439.94 821.27C439.89 820.87 439.83 820.41 439.79 819.97V819.74C439.71 818.94 439.64 818.18 439.58 817.43C439.52 816.68 439.43 815.59 439.39 814.66C439.39 814.22 439.33 813.8 439.32 813.36V813.29C439.32 812.51 439.26 811.72 439.24 810.95V810.83C439.24 810.09 439.24 809.27 439.24 808.44C439.233 800.746 440.024 793.071 441.6 785.54C441.75 784.83 441.88 784.16 442.02 783.54L442.12 783.04C445.37 766.81 444.71 761.87 443.39 752.04C441.96 741.824 441.125 731.533 440.89 721.22C440.85 719.573 440.8 717.983 440.74 716.45C430.17 761 404 847.12 399.15 862.82C400.15 869 405.43 902.82 418.22 1015.1C429.74 1116.18 421.57 1233.54 417.52 1279.31C417.19 1283.06 416.9 1286.13 416.68 1288.45C416.36 1291.78 416.16 1293.55 416.16 1293.55C416.035 1294.65 415.511 1295.66 414.687 1296.4C413.863 1297.14 412.796 1297.55 411.69 1297.55C411.354 1297.55 411.019 1297.51 410.69 1297.44C394.051 1293.7 377.045 1291.84 359.99 1291.89C304.05 1291.89 251.13 1310.89 216.58 1326.89C179 1344.27 154.41 1361.89 154.16 1362.08C153.394 1362.63 152.474 1362.93 151.53 1362.93C150.91 1362.93 150.296 1362.8 149.73 1362.55C149.012 1362.24 148.388 1361.74 147.92 1361.11C147.452 1360.49 147.155 1359.75 147.06 1358.97L146.99 1358.41C146.988 1358.44 146.988 1358.46 146.99 1358.49C146.99 1358.41 146.99 1358.34 146.99 1358.26L146.93 1357.78V1357.86C146.889 1357.67 146.862 1357.48 146.85 1357.29V1357.15C146.85 1357 146.8 1356.84 146.78 1356.68C146.67 1355.89 146.54 1354.91 146.4 1353.76L145.8 1349.18C145.8 1348.88 145.74 1348.67 145.71 1348.46C145.706 1348.4 145.706 1348.35 145.71 1348.29C145.71 1348.1 145.71 1347.92 145.63 1347.72L145.53 1346.95C145.477 1346.55 145.427 1346.14 145.38 1345.72C145.38 1345.72 145.28 1344.94 145.24 1344.65C145.24 1344.56 145.18 1344.25 145.17 1344.18C145.1 1343.62 145.04 1343.08 144.96 1342.54L144.89 1341.88C144.75 1340.76 143.79 1333.21 143.79 1333.21C143.67 1332.27 143.54 1331.21 143.4 1330.21C143.4 1330.21 143.4 1329.83 143.4 1329.81C142.78 1324.92 142.11 1319.54 141.4 1313.74C135.68 1266.84 125.64 1179.27 122.7 1119.74C121.03 1085.98 119.92 1023.53 119.4 934.11C118.91 848.3 119.16 767.99 119.16 767.18C119.146 766.984 119.146 766.786 119.16 766.59C126.68 711.34 140.43 634.06 150.65 578.97C160.58 525.35 168.76 483.97 168.85 483.57C168.88 483.397 168.923 483.226 168.98 483.06C169.15 482.52 169.34 481.93 169.55 481.32C181.6 445.46 240.06 307.49 269.18 271.56L270.18 270.39C272.9 267.19 276.88 263.79 282.42 259.92C336.42 222.19 573.85 159.32 583.93 156.66C584.228 156.579 584.533 156.532 584.84 156.52C589.25 156.28 1026.37 133.21 1069.25 133.21C1072.57 133.21 1073.5 133.31 1074.51 133.78C1074.98 134 1076.9 134.78 1080.87 136.38L1081.07 136.46L1083.63 137.46C1090.15 140.06 1100.04 143.94 1112.24 148.7L1119.4 151.5C1144.96 161.45 1178.4 174.4 1190.08 178.79C1201.99 183.28 1227.08 193.28 1266.78 209.38C1280.96 215.13 1295.53 221.05 1309.23 226.63C1349.29 242.96 1380.12 314.63 1396.67 353.09C1399.25 359.09 1401.48 364.26 1403.12 367.72C1407.93 377.84 1418.65 402.2 1432.21 433.04C1450.9 475.54 1474.16 528.43 1491.63 565.93C1518.15 622.86 1518.53 623.28 1538.02 645.46C1540.38 648.13 1543.02 651.12 1546.02 654.55C1558.02 668.37 1589.55 788.55 1636.31 970.23C1648.23 1016.54 1659.49 1060.29 1669.64 1098.68C1680.45 1139.55 1695.64 1195.84 1702.77 1212.75C1721.67 1257.66 1712.85 1281.91 1712.47 1282.92C1712.24 1283.61 1711.85 1284.23 1711.32 1284.73C1710.8 1285.23 1710.17 1285.6 1709.47 1285.8C1709.07 1285.91 1708.66 1285.96 1708.25 1285.96C1707.3 1285.97 1706.37 1285.63 1705.64 1285.02C1704.64 1284.46 1696.12 1280.21 1661.23 1274.83C1659.32 1274.55 1657.4 1274.42 1655.47 1274.44C1644.55 1274.44 1628.19 1277.75 1606.85 1284.29C1543.67 1303.66 1490.25 1332.16 1448.07 1369.02C1444.86 1371.96 1441.17 1374.33 1437.16 1376.02C1434.91 1376.95 1432.51 1377.44 1430.08 1377.47C1413.63 1377.47 1408.96 1354.47 1407.64 1340.78V1340.43C1404.16 1307.17 1398.98 1271.55 1392.24 1234.54C1392.24 1234.54 1392.24 1234.44 1392.24 1234.39C1368.49 1104.01 1330.07 979.34 1302.01 897.71C1294.44 875.71 1286.85 854.55 1279.45 834.85C1272.29 815.85 1265.36 798.24 1259.75 784.97C1259.94 786.28 1260.13 787.59 1260.32 788.88C1262.08 801.02 1264.32 816.12 1265.4 831.69V831.79C1265.4 832.15 1265.4 832.5 1265.47 832.86V833C1266.7 851.27 1256.29 868.23 1234.52 883.41C1228.87 887.286 1223.02 890.842 1216.97 894.06C1215.97 894.62 1214.97 895.13 1214.33 895.51C1213.58 898.7 1212.95 913.17 1223.55 978.32C1226.61 997.12 1230.45 1019.12 1234.95 1043.71L1235.23 1045.22C1235.93 1049.07 1236.65 1052.97 1237.38 1056.92C1245.38 1099.92 1274.21 1202.24 1302.08 1301.15C1342.08 1442.97 1366.15 1530.15 1363.95 1544.91C1363.1 1550.58 1357.65 1558.74 1322.65 1571.58C1302.87 1578.83 1275.65 1586.87 1241.75 1595.48C1184.16 1610.11 1126.33 1621.48 1125.75 1621.6H1125.55C1053.19 1632.29 969.86 1637.69 877.76 1637.69Z" fill="#CE44A2"/>
<path id="Vector_15" d="M1069.17 137.7C1070.29 137.644 1071.42 137.694 1072.53 137.85C1073.22 138.17 1075.53 139.13 1079.12 140.55L1081.9 141.64C1088.9 144.43 1099.09 148.43 1110.52 152.88L1117.67 155.68C1145.38 166.47 1177.51 178.89 1188.4 182.99C1202.23 188.2 1232.64 200.42 1265 213.54C1279.18 219.29 1293.74 225.21 1307.44 230.79C1352.38 249.1 1387.44 345.49 1398.97 369.64C1410.5 393.79 1457.49 503.49 1487.46 567.82C1517.43 632.15 1514.53 625.26 1542.46 657.49C1558.46 675.99 1622.91 940.15 1665.13 1099.82C1680.05 1156.24 1692.19 1199.61 1698.46 1214.49C1716.88 1258.25 1708.1 1281.31 1708.1 1281.31C1708.1 1281.31 1701.46 1276.49 1661.8 1270.37C1659.66 1270.06 1657.51 1269.91 1655.35 1269.93C1642.76 1269.93 1624.81 1274.04 1605.41 1279.93C1546.94 1297.85 1491.04 1325.33 1444.99 1365.57C1442.17 1368.18 1438.93 1370.29 1435.4 1371.81C1433.69 1372.54 1431.86 1372.94 1430 1373C1414.62 1373 1412.26 1342.47 1412 1340C1408.33 1305 1403 1269.33 1396.55 1233.78C1373.82 1108.92 1336.77 985.46 1306.13 896.31C1298.01 872.71 1290.35 851.51 1283.52 833.31C1274.98 810.57 1267.74 792.55 1262.52 780.45C1257.68 769.13 1254.62 762.97 1253.99 762.97C1250.5 765.4 1258.33 797.71 1260.79 832.06C1260.79 832.48 1260.79 832.9 1260.87 833.32C1262.27 854.09 1246.21 869.72 1231.87 879.74C1222.22 886.49 1213.33 890.74 1211.01 892.24C1207.16 894.84 1210.79 928.1 1219.08 979.02C1222.25 998.5 1226.08 1020.57 1230.49 1044.5C1231.29 1048.84 1232.1 1053.25 1232.93 1057.72C1250.26 1150.97 1363.6 1516.47 1359.47 1544.23C1355.34 1571.99 1124.86 1617.16 1124.86 1617.16C1045.96 1628.79 960.98 1633.16 877.86 1633.16C777.02 1633.16 678.92 1626.74 597.67 1619.05C558.45 1615.34 523.16 1611.33 493.39 1607.62C485.79 1606.67 478.557 1605.74 471.69 1604.84L466.31 1604.13H466.23L458.23 1603.05L454.36 1602.52C452.79 1602.31 451.25 1602.1 449.74 1601.88L447.49 1601.57C441.49 1600.74 435.954 1599.96 430.88 1599.21L428.26 1598.83L421.48 1597.83L419.39 1597.52L416.95 1597.15L416.4 1597.07L414.57 1596.79C410.71 1596.21 407.35 1595.68 404.52 1595.24L403.61 1595.1L401.61 1594.78L400.48 1594.6L398.02 1594.2H397.84C395.1 1593.77 393.67 1593.52 393.67 1593.52C393.67 1593.52 393.85 1592.12 394.2 1589.45V1589.16C394.32 1588.22 394.46 1587.14 394.62 1585.92L394.74 1585.02C394.74 1584.68 394.82 1584.34 394.87 1584.02C394.94 1583.49 395.01 1582.93 395.09 1582.36C395.17 1581.79 395.2 1581.47 395.26 1581C395.32 1580.53 395.36 1580.26 395.41 1579.88C395.46 1579.5 395.5 1579.1 395.56 1578.7C395.63 1578.14 395.71 1577.57 395.78 1576.98C395.97 1575.47 396.18 1573.87 396.4 1572.17C396.46 1571.74 396.51 1571.31 396.57 1570.88C396.68 1570.01 396.8 1569.11 396.92 1568.19C397.04 1567.27 397.16 1566.34 397.28 1565.38C397.34 1564.9 397.41 1564.38 397.47 1563.92C397.864 1560.87 398.287 1557.61 398.74 1554.15C398.94 1552.6 399.14 1551.02 399.35 1549.39C399.93 1544.89 400.55 1540.09 401.21 1535.02C401.28 1534.46 401.36 1533.9 401.43 1533.33C401.75 1530.85 402.084 1528.31 402.43 1525.7C402.59 1524.51 402.74 1523.31 402.9 1522.09C403.08 1520.67 403.27 1519.23 403.46 1517.77C403.65 1516.31 403.84 1514.84 404.03 1513.35C404.22 1511.86 404.42 1510.35 404.62 1508.84C405.207 1504.28 405.817 1499.58 406.45 1494.74C406.77 1492.33 407.087 1489.88 407.4 1487.41C408.26 1480.8 409.147 1473.99 410.06 1466.96C410.29 1465.2 410.52 1463.44 410.75 1461.66C411.217 1458.11 411.687 1454.52 412.16 1450.87C412.59 1447.56 413.02 1444.23 413.46 1440.87C414.85 1430.3 416.27 1419.41 417.72 1408.28L418.5 1402.28C418.91 1399.14 419.33 1395.99 419.74 1392.82C420.5 1387.05 421.264 1381.23 422.03 1375.35C423.39 1364.96 424.77 1354.44 426.16 1343.85C426.53 1341.02 426.91 1338.17 427.28 1335.32L427.37 1334.61C427.55 1333.29 427.73 1331.97 427.9 1330.61C428.567 1325.58 429.234 1320.54 429.9 1315.49L430.59 1310.27C431.257 1305.05 431.944 1299.83 432.65 1294.61C451.35 1152.97 470.26 1013.01 472.73 1006.82C472.915 1006.34 473.069 1005.84 473.19 1005.34C473.19 1005.19 473.26 1005.04 473.3 1004.88C473.34 1004.72 473.39 1004.49 473.43 1004.28C473.61 1003.46 473.77 1002.51 473.93 1001.45C473.93 1001.25 473.96 1001.04 474.02 1000.82L474.11 1000.18L474.2 999.5C474.2 999.1 474.3 998.69 474.35 998.26C474.35 998.2 474.35 998.14 474.35 998.08C474.35 997.84 474.41 997.59 474.43 997.34C474.435 997.27 474.435 997.2 474.43 997.13C474.49 996.55 474.56 995.95 474.62 995.32C474.68 994.69 474.74 994.06 474.8 993.4C474.86 992.74 474.92 992.07 474.97 991.4C474.97 991.08 475.03 990.76 475.05 990.4L475.11 989.63C475.21 988.39 475.3 987.1 475.39 985.77C475.39 985.1 475.48 984.42 475.52 983.77C475.56 983.12 475.6 982.51 475.64 981.87C475.635 981.8 475.635 981.73 475.64 981.66C475.72 980.23 475.81 978.77 475.88 977.26C475.95 975.75 476.03 974.26 476.1 972.66C476.1 971.96 476.16 971.26 476.2 970.54C476.2 969.47 476.29 968.39 476.33 967.29C476.33 966.68 476.33 966.07 476.4 965.45C476.47 964.83 476.4 964.45 476.46 963.9C476.52 963.35 476.46 963 476.46 962.55C476.62 958.12 476.77 953.55 476.89 948.98C476.89 948.12 476.94 947.25 476.96 946.39C476.96 945.78 476.96 945.17 477.01 944.57C477.06 942.57 477.1 940.57 477.15 938.62C477.15 937.91 477.15 937.2 477.15 936.5C477.15 935.37 477.2 934.24 477.23 933.11C477.23 932.38 477.23 931.65 477.23 930.93C477.29 927.45 477.35 924.03 477.4 920.7C477.4 919.81 477.4 918.91 477.4 918.03C477.4 916.77 477.42 915.53 477.46 914.31C477.46 913.76 477.46 913.21 477.46 912.67V910.41C477.46 909.67 477.46 908.93 477.46 908.19V906.24C477.46 904.04 477.48 901.933 477.52 899.92C477.52 899.09 477.52 898.28 477.52 897.49C477.52 897.06 477.52 896.62 477.52 896.2C477.52 893.43 477.52 890.94 477.57 888.79C477.57 886.09 477.57 883.93 477.57 882.44C477.57 880.97 477.57 880.17 477.57 880.17C476.96 879.74 476.37 879.31 475.78 878.87C475.19 878.43 474.64 878 474.09 877.56L473.14 876.79C472.43 876.21 471.73 875.62 471.05 875.01L470.05 874.1L469.05 873.18L468.05 872.24L467.1 871.29L466.18 870.29C465.87 869.97 465.57 869.64 465.27 869.29C464.97 868.94 464.68 868.64 464.39 868.29C464.1 867.94 463.8 867.62 463.52 867.29C462.95 866.62 462.4 865.94 461.85 865.29L461.68 865.08C461.2 864.46 460.73 863.84 460.26 863.21C460 862.86 459.74 862.51 459.5 862.21L459 861C458.968 860.968 458.941 860.931 458.92 860.89C458.46 860.21 458.01 859.53 457.57 858.89L456.88 857.8C456.49 857.17 456.11 856.54 455.74 855.9C455.48 855.44 455.21 854.98 454.96 854.52C454.71 854.06 454.29 853.29 453.96 852.67L453.51 851.8C453.22 851.23 452.94 850.66 452.67 850.08C452.4 849.5 452.26 849.2 452.06 848.76C451.86 848.32 451.71 847.99 451.54 847.6C451.37 847.21 451.1 846.6 450.9 846.1C450.78 845.82 450.67 845.53 450.55 845.25C450.37 844.817 450.2 844.387 450.04 843.96L449.64 842.88C449.49 842.48 449.35 842.09 449.21 841.69C448.917 840.89 448.647 840.09 448.4 839.29C448.27 838.89 448.14 838.49 448.02 838.08C447.9 837.67 447.77 837.28 447.66 836.87C447.47 836.25 447.3 835.63 447.13 835C446.91 834.21 446.71 833.42 446.52 832.62L446.1 830.77C446.04 830.55 445.99 830.32 445.95 830.1C445.91 829.88 445.8 829.41 445.74 829.1C445.68 828.79 445.63 828.59 445.59 828.34C445.43 827.51 445.28 826.69 445.14 825.87C445 825.05 444.83 823.98 444.71 823.04C444.61 822.33 444.52 821.63 444.44 820.92C444.44 820.51 444.34 820.09 444.3 819.68V819.41C444.23 818.68 444.16 817.94 444.1 817.21C444.02 816.32 443.96 815.42 443.92 814.53C443.92 814.15 443.9 813.77 443.86 813.39C443.86 812.59 443.8 811.78 443.78 810.98C443.78 810.193 443.78 809.403 443.78 808.61C443.776 801.218 444.533 793.846 446.04 786.61C446.23 785.73 446.4 784.88 446.57 784.05C452.2 755.93 446.51 759.42 445.43 721.18C445.17 711.65 444.74 705.02 444.26 700.45C444.18 699.66 444.1 698.93 444.01 698.26V698.05C444.01 697.78 443.94 697.51 443.9 697.26C443.86 697.01 443.83 696.76 443.79 696.52C443.75 696.28 443.71 695.98 443.66 695.72V695.55L443.6 695.22C443.6 695.03 443.53 694.84 443.49 694.66C443.45 694.48 443.39 694.17 443.34 693.95C443.29 693.73 443.26 693.63 443.23 693.49C443.235 693.47 443.235 693.45 443.23 693.43C443.195 693.264 443.152 693.101 443.1 692.94C443.071 692.818 443.034 692.698 442.99 692.58C442.99 692.48 442.93 692.39 442.89 692.29L442.74 691.9C442.679 691.751 442.606 691.607 442.52 691.47C442.484 691.39 442.437 691.316 442.38 691.25C442.362 691.216 442.338 691.186 442.31 691.16L442.18 691.02L442.07 690.94C441.987 690.885 441.89 690.853 441.79 690.85C441.19 690.85 440.79 692.02 440.79 692.02C441.93 708.43 394.68 862.63 394.68 862.63C394.68 862.63 399.68 890.63 413.9 1015.72C425.55 1117.97 416.78 1238.42 413.19 1279.02C412.86 1282.76 412.57 1285.82 412.35 1288.13C412.03 1291.42 411.84 1293.13 411.84 1293.13C394.874 1289.31 377.531 1287.41 360.14 1287.47C250.14 1287.47 151.68 1358.55 151.68 1358.55C151.68 1358.55 151.68 1358.38 151.61 1358.04C151.61 1357.95 151.61 1357.85 151.61 1357.75C151.61 1357.65 151.61 1357.59 151.61 1357.5C151.61 1357.41 151.61 1357.24 151.55 1357.09C151.49 1356.94 151.55 1356.79 151.5 1356.62C151.45 1356.45 151.5 1356.39 151.45 1356.27C151.34 1355.48 151.21 1354.49 151.06 1353.27C150.99 1352.75 150.92 1352.19 150.84 1351.59L150.75 1350.91L150.66 1350.19C150.6 1349.7 150.53 1349.19 150.46 1348.67C150.46 1348.41 150.4 1348.15 150.36 1347.88C150.32 1347.61 150.29 1347.34 150.25 1347.06C150.18 1346.49 150.1 1345.9 150.03 1345.29C149.98 1344.89 149.93 1344.48 149.87 1344.06C149.87 1343.94 149.87 1343.83 149.82 1343.71C149.75 1343.15 149.68 1342.58 149.6 1342L149.54 1341.47C149.39 1340.27 149.23 1339.01 149.06 1337.7C148.89 1336.39 148.74 1335.17 148.57 1333.83C148.57 1333.49 148.48 1333.13 148.44 1332.83C148.314 1331.83 148.184 1330.8 148.05 1329.74C148.05 1329.6 148.05 1329.47 148 1329.33C147.39 1324.45 146.72 1319.07 146 1313.27C139.73 1261.9 130.19 1177.72 127.32 1119.58C125.32 1079.67 124.44 1004.7 124.03 934.14C123.53 847.36 123.79 767.26 123.79 767.26C131.12 713.42 144.3 638.88 155.24 579.85C165.24 525.64 173.43 484.5 173.43 484.5C173.6 483.97 173.79 483.4 173.99 482.8C186.39 445.91 244.35 309.62 272.85 274.45C273.17 274.05 273.49 273.67 273.8 273.3C277.169 269.639 280.975 266.405 285.13 263.67C338.89 225.89 585 161 585 161C585 161 1025.91 137.7 1069.17 137.7ZM1069.17 128.7C1026.17 128.7 602.54 151.06 584.53 152.01C583.915 152.041 583.305 152.138 582.71 152.3C572.59 155 334.42 218 279.77 256.22C273.9 260.31 269.64 263.97 266.77 267.41L266.67 267.53C266.36 267.9 266.04 268.28 265.72 268.68C249.29 288.91 225.8 337.21 209 374.18C188.57 419 171.22 462.1 165.25 479.86V479.92C165.04 480.54 164.85 481.13 164.67 481.68C164.564 482.008 164.477 482.342 164.41 482.68C164.33 483.09 156.14 524.5 146.2 578.14C136 633.29 122.2 710.64 114.66 766C114.609 766.391 114.582 766.785 114.58 767.18C114.58 767.98 114.33 848.31 114.82 934.18C115.34 1023.65 116.45 1086.18 118.12 1120.01C121.07 1179.68 131.12 1267.38 136.86 1314.35C137.57 1320.16 138.24 1325.55 138.86 1330.44V1330.51C138.86 1330.65 138.86 1330.77 138.86 1330.88C138.99 1331.88 139.12 1332.88 139.25 1333.88C139.25 1334.08 139.3 1334.29 139.32 1334.49V1334.88V1334.96L139.51 1336.43C139.61 1337.26 139.71 1338.07 139.81 1338.85C139.98 1340.13 140.14 1341.36 140.28 1342.53V1342.75V1342.99V1343.23C140.35 1343.7 140.41 1344.16 140.46 1344.62V1344.83V1345.07C140.46 1345.18 140.46 1345.29 140.51 1345.39C140.51 1345.68 140.58 1345.97 140.62 1346.25V1346.36C140.62 1346.77 140.72 1347.16 140.77 1347.55L140.85 1348.16C140.846 1348.22 140.846 1348.27 140.85 1348.33V1348.44C140.85 1348.59 140.85 1348.73 140.9 1348.87C140.95 1349.01 140.9 1349.09 140.95 1349.2L141.01 1349.7C141.005 1349.75 141.005 1349.8 141.01 1349.85L141.08 1350.37C141.08 1350.68 141.16 1350.99 141.2 1351.28V1351.67V1352.03L141.3 1352.81L141.4 1353.58L141.51 1354.4C141.66 1355.55 141.78 1356.52 141.89 1357.31C141.89 1357.5 141.94 1357.67 141.96 1357.83C141.98 1357.99 141.96 1358.29 142.05 1358.52V1358.6C142.05 1358.75 142.05 1358.88 142.05 1358.99C142.05 1359.1 142.05 1359.06 142.05 1359.1C142.05 1359.14 142.05 1359.25 142.05 1359.31C142.05 1359.37 142.05 1359.55 142.05 1359.59C142.238 1361.14 142.828 1362.62 143.762 1363.88C144.695 1365.14 145.941 1366.13 147.374 1366.75C148.808 1367.38 150.381 1367.63 151.938 1367.46C153.494 1367.29 154.981 1366.73 156.25 1365.81C156.49 1365.63 180.87 1348.17 218.1 1330.96C252.19 1315.21 304.38 1296.43 359.42 1296.43C376.145 1296.38 392.822 1298.2 409.14 1301.86C409.796 1302.02 410.467 1302.09 411.14 1302.09C413.355 1302.09 415.493 1301.28 417.144 1299.8C418.795 1298.32 419.844 1296.29 420.09 1294.09C420.09 1294.09 420.28 1292.29 420.61 1288.94C420.83 1286.6 421.12 1283.52 421.46 1279.75C425.51 1233.85 433.71 1116.13 422.14 1014.64C409.95 907.64 404.58 871.74 403.2 863.18C405.79 854.69 416.06 820.87 426.11 785.9C430.76 769.72 434.48 756.39 437.45 745.38C437.77 748.18 438.09 750.59 438.38 752.73C439.67 762.38 440.26 766.78 437.16 782.29L437.05 782.83C436.92 783.44 436.79 784.07 436.65 784.72V784.77C435.014 792.608 434.193 800.593 434.2 808.6C434.2 809.44 434.2 810.29 434.2 811.13V811.21C434.2 812.03 434.25 812.86 434.28 813.68C434.28 814.15 434.28 814.62 434.36 815.09C434.36 816.09 434.47 817.09 434.55 817.99L434.76 820.28C434.76 820.28 434.76 820.37 434.76 820.42V820.63C434.76 821.07 434.86 821.53 434.91 821.98C435 822.73 435.09 823.48 435.2 824.24C435.32 825.18 435.47 826.18 435.68 827.39C435.82 828.24 435.98 829.08 436.14 829.93C436.2 830.28 436.26 830.62 436.34 830.93C436.42 831.24 436.44 831.44 436.49 831.69V831.88C436.56 832.24 436.64 832.6 436.73 832.94L436.91 833.74L437.11 834.63V834.73C437.34 835.73 437.57 836.57 437.8 837.4C437.96 838 438.14 838.68 438.36 839.4C438.48 839.85 438.62 840.31 438.77 840.78C438.92 841.25 439.04 841.65 439.18 842.08C439.46 842.96 439.76 843.86 440.08 844.75C440.23 845.18 440.38 845.6 440.55 846.03L440.76 846.62C440.82 846.76 440.87 846.91 440.92 847.06V847.14C441.12 847.68 441.33 848.23 441.56 848.77V848.84L441.66 849.08C441.72 849.25 441.79 849.41 441.86 849.57C442.12 850.21 442.36 850.78 442.61 851.32C442.86 851.86 442.97 852.15 443.17 852.57L443.8 853.94C444.1 854.57 444.41 855.22 444.8 855.94L445.26 856.81C445.64 857.56 446 858.23 446.36 858.87C446.55 859.22 446.75 859.57 446.95 859.87L447.19 860.29V860.37C447.58 861.05 448 861.74 448.47 862.5L449.21 863.67C449.64 864.35 450.09 865.03 450.59 865.77C450.73 865.99 450.88 866.2 451.03 866.41L451.26 866.73L451.59 867.2C451.89 867.63 452.2 868.07 452.53 868.5C453.04 869.19 453.53 869.85 454.06 870.5L454.21 870.69L454.38 870.91C454.96 871.62 455.53 872.33 456.16 873.06C456.48 873.44 456.82 873.84 457.16 874.23C457.5 874.62 457.79 874.95 458.16 875.3C458.53 875.65 458.84 876.04 459.16 876.4C459.48 876.76 459.8 877.08 460.16 877.4C460.52 877.72 460.89 878.15 461.26 878.51L461.98 879.21L462.28 879.49C462.311 879.526 462.345 879.559 462.38 879.59C462.74 879.93 463.11 880.28 463.48 880.59L464.54 881.59C465.24 882.22 466.01 882.87 466.89 883.59L468 884.49C468 885.66 468 887.04 468 888.6V889.13C468 891.13 468 893.45 467.95 895.98V896.61C467.95 896.87 467.95 897.12 467.95 897.37C467.95 898.11 467.95 898.86 467.95 899.63V899.69C467.95 901.69 467.93 903.793 467.89 906V907.93C467.89 908.34 467.89 908.73 467.89 909.12C467.89 909.51 467.89 909.82 467.89 910.12V912.38C467.89 912.63 467.89 912.93 467.89 913.24C467.89 913.55 467.89 913.73 467.89 913.98L467.83 917.7C467.83 918.59 467.83 919.5 467.83 920.4C467.83 923.4 467.73 926.4 467.68 929.47V930.6C467.68 930.97 467.68 931.31 467.68 931.6C467.68 931.89 467.68 932.34 467.68 932.71C467.68 933.27 467.68 933.83 467.68 934.39C467.68 934.95 467.68 935.49 467.68 936.04V936.15C467.68 936.48 467.68 936.81 467.68 937.15C467.68 937.49 467.68 937.88 467.68 938.24C467.68 939.24 467.68 940.24 467.61 941.16C467.54 942.08 467.61 943.16 467.54 944.16V944.24C467.54 944.79 467.54 945.35 467.49 945.91V946.05L467.43 948.49V948.56C467.33 952.56 467.19 957 467.01 962.05C467.005 962.09 467.005 962.13 467.01 962.17C467.01 962.55 467.01 962.94 467.01 963.32C467.01 963.39 467.01 963.47 467.01 963.55C467.01 963.95 467.01 964.35 467.01 964.74C467.01 964.82 467.01 964.9 467.01 964.98C467.01 965.55 467.01 966.11 466.95 966.67V966.78C466.95 967.35 466.9 967.91 466.88 968.47L466.82 969.94C466.82 970.67 466.75 971.38 466.72 972.09C466.65 973.62 466.58 975.09 466.5 976.6V976.66C466.5 977.74 466.39 978.79 466.33 979.82L466.27 980.82C466.27 981.01 466.27 981.19 466.27 981.35L466.16 983.03V983.1L466.1 984.1L466.04 985.01C465.95 986.3 465.87 987.55 465.77 988.75L465.71 989.52C465.705 989.573 465.705 989.627 465.71 989.68L465.65 990.36C465.65 990.43 465.65 990.49 465.65 990.56C465.65 991.2 465.55 991.81 465.5 992.42C465.45 993.03 465.38 993.68 465.32 994.28C465.32 994.65 465.25 995 465.21 995.28L465.14 995.98C465.14 996.05 465.14 996.11 465.14 996.17C465.136 996.247 465.136 996.323 465.14 996.4V996.65C465.14 996.8 465.14 996.93 465.14 997.04C465.09 997.43 465.04 997.8 465 998.16V999L464.92 999.59V999.64C464.92 999.82 464.87 999.99 464.85 1000.15C464.7 1001.15 464.57 1001.86 464.46 1002.39C464.438 1002.47 464.421 1002.56 464.41 1002.64V1002.71C464.41 1002.78 464.41 1002.84 464.41 1002.91C464.389 1002.98 464.372 1003.05 464.36 1003.12C464.3 1003.36 464.26 1003.48 464.25 1003.52C463.18 1006.21 460.53 1013.83 423.62 1293.43C422.954 1298.66 422.267 1303.89 421.56 1309.11L420.87 1314.31C420.28 1318.72 419.7 1323.14 419.13 1327.54L418.88 1329.44C418.71 1330.77 418.53 1332.07 418.35 1333.36C418.35 1333.36 418.35 1333.43 418.35 1333.47V1333.81L418.3 1334.17C418.09 1335.77 417.88 1337.4 417.66 1339.03L417.19 1342.65C415.8 1353.24 414.42 1363.76 413.06 1374.15L412.19 1380.76C411.71 1384.4 411.237 1388.02 410.77 1391.61C410.52 1393.51 410.28 1395.38 410.03 1397.24L409.53 1401.08C409.27 1403.08 409.01 1405.08 408.75 1407.08C407.3 1418.21 405.88 1429.08 404.49 1439.67C404.204 1441.87 403.92 1444.05 403.64 1446.22L403.18 1449.69C402.72 1453.33 402.254 1456.92 401.78 1460.46C401.54 1462.26 401.32 1464.02 401.09 1465.77C400.424 1470.67 399.8 1475.46 399.22 1480.15L398.43 1486.23C398.11 1488.73 397.8 1491.15 397.48 1493.54C396.814 1498.4 396.2 1503.11 395.64 1507.66L395.42 1509.42L395.06 1512.12V1512.19C394.87 1513.67 394.68 1515.14 394.5 1516.59L394.35 1517.73L393.93 1520.94L393.75 1522.36C393.66 1523.07 393.56 1523.78 393.47 1524.48C393.13 1527.13 392.79 1529.67 392.47 1532.16V1532.21C392.47 1532.48 392.4 1532.75 392.36 1533.02C392.32 1533.29 392.29 1533.6 392.25 1533.88C391.59 1538.88 390.97 1543.72 390.39 1548.22L390.09 1550.58L389.78 1552.98C389.33 1556.42 388.9 1559.69 388.51 1562.76V1562.83C388.51 1563.07 388.45 1563.3 388.42 1563.53L388.33 1564.24C388.33 1564.65 388.23 1565.05 388.17 1565.45C388.11 1565.85 388.03 1566.52 387.97 1567.05L387.87 1567.82C387.79 1568.45 387.7 1569.08 387.63 1569.69L387.54 1570.36C387.54 1570.54 387.49 1570.72 387.47 1570.91C387.47 1570.91 387.47 1570.97 387.47 1571L387.3 1572.33C387.14 1573.55 386.99 1574.72 386.85 1575.84V1575.9C386.85 1576.21 386.78 1576.52 386.74 1576.82L386.66 1577.44C386.59 1577.88 386.53 1578.34 386.48 1578.79C386.43 1579.24 386.4 1579.44 386.36 1579.79C386.36 1579.79 386.36 1579.86 386.36 1579.89V1580.2C386.36 1580.56 386.27 1580.91 386.23 1581.25C386.19 1581.59 386.13 1582.02 386.08 1582.39L386.02 1582.84C385.97 1583.24 385.92 1583.62 385.88 1583.99C385.84 1584.36 385.81 1584.51 385.77 1584.76V1584.82C385.6 1586.05 385.46 1587.14 385.34 1588.09V1588.33V1588.47L384.82 1592.47C384.529 1594.77 385.133 1597.09 386.507 1598.95C387.881 1600.81 389.92 1602.07 392.2 1602.47L396.2 1603.12L396.64 1603.2L397.69 1603.37L399.08 1603.6H399.32L400.09 1603.72H400.29L400.88 1603.81L402.21 1604.02H402.52L403.06 1604.1H403.19L404.93 1604.37C407.4 1604.75 410.2 1605.19 413.33 1605.66L414.06 1605.77L415.12 1605.93L415.85 1606.04L416.55 1606.15L418.1 1606.38H418.18L418.91 1606.49L420.28 1606.7L421.47 1606.87C423.25 1607.14 425.12 1607.42 427.05 1607.69L428.7 1607.94L429.7 1608.08C435.17 1608.87 440.77 1609.67 446.34 1610.44L448.62 1610.75C450.14 1610.98 451.68 1611.19 453.25 1611.4L455.78 1611.74L457.13 1611.93L465.13 1613.01H465.37L468.82 1613.46L470.63 1613.7C477.93 1614.7 485.25 1615.6 492.39 1616.49C527.09 1620.81 562.26 1624.67 596.94 1627.95C696.23 1637.34 790.79 1642.1 877.94 1642.1C970.26 1642.1 1053.8 1636.69 1126.25 1626L1126.67 1625.93C1127.25 1625.82 1185.2 1614.42 1242.91 1599.76C1276.91 1591.12 1304.33 1583.03 1324.24 1575.76C1354.07 1564.82 1366.88 1556.07 1368.45 1545.54C1369.36 1539.42 1367.8 1524.66 1350.36 1458.54C1338.68 1414.24 1323.03 1358.7 1306.46 1299.9C1278.61 1201.09 1249.82 1098.9 1241.86 1056.07C1241.19 1052.59 1240.56 1049.15 1239.95 1045.75L1239.42 1042.86C1234.92 1018.28 1231.09 996.31 1228.04 977.56C1218.92 921.56 1218.22 903.83 1218.57 898.3L1219.16 897.98C1225.36 894.686 1231.37 891.04 1237.16 887.06C1246.7 880.41 1254.3 873.25 1259.71 865.8C1267.32 855.33 1270.79 844.18 1270.01 832.67C1270.01 832.28 1270.01 831.93 1269.94 831.58C1269.94 831.51 1269.94 831.44 1269.94 831.37C1269.66 827.43 1269.33 823.543 1268.94 819.71C1271.03 825.1 1273.16 830.71 1275.31 836.43C1282.7 856.1 1290.31 877.21 1297.84 899.18C1325.84 980.65 1364.19 1105.06 1387.84 1235.18C1387.84 1235.24 1387.84 1235.31 1387.84 1235.37C1394.55 1272.25 1399.71 1307.77 1403.19 1340.92V1341.23C1403.76 1348.03 1405.1 1354.74 1407.19 1361.23C1413.33 1379.34 1424.19 1382.04 1430.09 1382.04C1433.1 1382.01 1436.07 1381.41 1438.85 1380.27C1443.33 1378.38 1447.46 1375.73 1451.04 1372.44C1492.74 1336 1545.61 1307.8 1608.18 1288.63C1629.09 1282.22 1645.01 1278.97 1655.48 1278.97C1657.18 1278.95 1658.88 1279.07 1660.56 1279.31C1694.04 1284.47 1702.56 1288.52 1703.43 1288.97C1704.87 1289.87 1706.53 1290.35 1708.23 1290.35C1709.1 1290.35 1709.97 1290.22 1710.8 1289.97C1712.12 1289.58 1713.34 1288.88 1714.35 1287.94C1715.37 1287 1716.15 1285.84 1716.64 1284.55C1716.93 1283.8 1719.44 1276.84 1719.32 1264.26C1719.16 1248.18 1714.98 1230.26 1706.88 1211.04C1699.88 1194.39 1684.73 1138.3 1673.96 1097.56C1663.81 1059.18 1652.56 1015.44 1640.64 969.13C1622.04 896.84 1602.8 822.08 1586.64 763.31C1562.23 674.72 1554.33 657.31 1549.43 651.63C1546.43 648.19 1543.79 645.18 1541.43 642.52C1522.36 620.81 1521.99 620.4 1495.74 564.06C1478.29 526.61 1455.04 473.75 1436.37 431.28C1422.78 400.39 1412.06 376 1407.22 365.82C1405.61 362.43 1403.4 357.29 1400.84 351.34C1393.03 333.18 1381.22 305.74 1366.4 280.67C1347.76 249.13 1329.62 230.1 1310.96 222.49C1295.96 216.4 1281.71 210.59 1268.5 205.24C1228.74 189.12 1203.62 179.1 1191.69 174.61C1181.38 170.74 1151 159 1121 147.3L1113.86 144.51C1101.63 139.75 1091.76 135.87 1085.3 133.29H1085.24L1082.76 132.29L1082.5 132.18C1077.36 130.13 1076.4 129.69 1076.36 129.67C1074.36 128.73 1072.43 128.67 1069.22 128.67L1069.17 128.7Z" fill="#17091D"/>
<path id="Vector_16" d="M361.92 889.91C334.83 880.81 214 902 238.71 887.07C263.42 872.14 380 871 357.77 853.17C335.54 835.34 261.77 819.09 261.77 819.09C291.51 804.18 365 843 364.42 831.65C363.85 820.51 307.19 749.65 305.09 747C364.09 808.88 378 836 394.03 774.48C410.06 712.96 453.57 596.77 453.79 596.18C453.74 596.54 446.66 646.18 443.98 697.97C442.52 686.81 440.68 691.92 440.68 691.92C441.82 708.33 394.57 862.53 394.57 862.53C394.57 862.53 399.57 890.53 413.79 1015.62C425.44 1117.87 416.67 1238.32 413.08 1278.92C408.08 1256.15 402.76 1217.84 405.08 1163.02C409 1067 389 899 361.92 889.91Z" fill="#9C398C"/>
<path id="Vector_17" d="M504.101 966.371C499.101 1015.99 459.481 1336 457.891 1348.8C457.871 1349.07 457.871 1349.33 457.891 1349.6L471.331 1599.38C471.366 1600.05 471.253 1600.72 471 1601.34C470.747 1601.97 470.36 1602.52 469.866 1602.98C469.372 1603.44 468.784 1603.78 468.144 1603.98C467.504 1604.18 466.826 1604.24 466.161 1604.15C431.271 1599.51 407.231 1595.73 397.881 1594.22C396.714 1594.03 395.666 1593.39 394.959 1592.45C394.252 1591.5 393.94 1590.31 394.091 1589.14C397.411 1563.43 414.881 1428.26 432.521 1294.6C451.221 1152.96 470.131 1013 472.601 1006.81C477.241 995.191 477.771 898.661 477.821 882.391C477.828 881.69 477.671 880.997 477.362 880.368C477.053 879.74 476.6 879.192 476.041 878.771C445.871 856.121 439.651 816.911 446.041 786.571C446.231 785.691 446.401 784.841 446.571 784.011C448.971 796.881 452.741 806.541 458.371 811.011C478.901 827.231 502.821 773.01 517.111 732.91C518.911 727.91 526.441 729.52 525.941 734.91C519.711 801.62 507.811 929.511 504.101 966.371Z" fill="#9C398C"/>
<path id="Vector_18" d="M371.66 851.21C402.29 860.51 401.58 871.75 368.8 860.08C368.701 860.046 368.604 860.006 368.51 859.96C350.51 850.87 331.3 845.51 312.84 838.11C312.288 837.857 311.841 837.42 311.575 836.874C311.309 836.328 311.241 835.707 311.383 835.116C311.525 834.525 311.867 834.002 312.352 833.637C312.836 833.271 313.433 833.084 314.04 833.11C330.63 834.63 358.81 847.75 371.66 851.21Z" fill="#5C2C66"/>
<path id="Vector_19" d="M444.79 369.65L453.79 508.02C455.74 538.154 455.7 568.383 453.67 598.51C450.32 648.32 444.24 720.94 436.54 735.51" stroke="#17091D" stroke-width="9" stroke-linecap="round" stroke-linejoin="round"/>
<path id="Vector_20" d="M240.94 840.9C204.6 842.7 168.33 851.66 132.56 858.74C132.241 858.803 131.912 858.795 131.596 858.717C131.281 858.638 130.986 858.491 130.734 858.286C130.482 858.081 130.278 857.822 130.138 857.529C129.997 857.236 129.923 856.915 129.92 856.59C130.04 826.86 209.85 828.8 241.37 836.59C241.867 836.731 242.298 837.042 242.589 837.469C242.879 837.896 243.01 838.411 242.959 838.925C242.908 839.439 242.677 839.918 242.308 840.279C241.939 840.64 241.455 840.86 240.94 840.9Z" fill="#5C2C66"/>
<path id="Vector_21" d="M163.57 878.84C188.2 866.06 238.21 867.19 269.38 867.84C269.958 867.871 270.503 868.122 270.903 868.54C271.304 868.958 271.53 869.513 271.536 870.092C271.543 870.67 271.329 871.23 270.938 871.657C270.546 872.084 270.008 872.346 269.43 872.39C263.7 872.71 255.72 871.26 252.7 872.59C252.46 872.701 252.203 872.771 251.94 872.8C222.64 875.05 194.65 882.86 164.64 883.19C164.116 883.206 163.602 883.042 163.184 882.725C162.766 882.408 162.47 881.957 162.345 881.448C162.219 880.939 162.273 880.402 162.496 879.927C162.719 879.452 163.098 879.069 163.57 878.84Z" fill="#5C2C66"/>
<path id="Vector_22" d="M190.311 1311.51L147.781 1329.26C147.171 1324.38 146.501 1319 145.781 1313.2C139.511 1261.83 129.971 1177.65 127.101 1119.51C125.101 1079.6 124.221 1004.63 123.811 934.07L190.311 1311.51Z" fill="#9C398C"/>
<path id="Vector_23" d="M1230.39 1044.53C1191.54 1056.11 1124.79 1075.27 1086.21 1082.2C1029.42 1092.41 904 1099 853.75 1097.33C803.5 1095.66 688 1071 585.25 1071.47C482.5 1071.94 487 1113 487 1113L472.57 1084.25L496.12 984.71L650.12 980.95L1219 979.05C1222.15 998.53 1226 1020.6 1230.39 1044.53Z" fill="#9C398C"/>
<path id="Vector_24" d="M446 705.12C446 705.12 481.51 665.35 487 635.43" stroke="#17091D" stroke-width="9" stroke-linecap="round" stroke-linejoin="round"/>
<path id="Vector_25" d="M412.2 1288C411.88 1291.29 411.69 1293 411.69 1293C282.89 1263.58 151.53 1358.42 151.53 1358.42C151.53 1358.42 149.12 1340.42 145.79 1313.13C165.64 1297.67 198.03 1290.97 247.54 1280.61C375 1254 386.79 1281.75 412.2 1288Z" fill="#9C398C"/>
<path id="Vector_26" d="M272.64 274.38C240.57 357 191.16 485.57 155 579.78C165 525.57 173.19 484.43 173.19 484.43C173.36 483.9 173.55 483.33 173.75 482.73C186.18 445.84 244.14 309.55 272.64 274.38Z" fill="#D969BD"/>
<path id="Vector_27" d="M1298.22 350.47C1298.4 368.6 1298.04 386.58 1297.7 404.61C1297.36 422.64 1296.43 440.81 1294.77 458.85C1293.95 467.877 1292.95 476.877 1291.77 485.85C1291.2 490.35 1290.59 494.84 1289.92 499.32L1287.92 512.71C1285.19 530.45 1282.69 548.217 1280.43 566.01C1275.94 601.6 1272.33 637.3 1270.34 673.01C1268.35 708.72 1267.72 744.52 1271.05 779.66L1271.11 780.38C1271.11 780.38 1271.11 780.32 1271.11 779.54C1271.04 778.887 1270.9 778.244 1270.69 777.62C1270.44 776.914 1270.11 776.242 1269.69 775.62C1269.41 775.207 1269.1 774.819 1268.75 774.46L1268.64 774.34L1271.11 779.65C1271.37 782.23 1271.67 784.78 1272.04 787.25C1272.41 789.72 1272.85 792.06 1273.43 794.38C1274.01 796.7 1274.72 799.12 1275.5 801.74C1276.28 804.36 1277.04 807.03 1277.77 809.74C1278.39 812.046 1278.07 814.504 1276.87 816.573C1275.68 818.641 1273.72 820.151 1271.41 820.77C1269.1 821.39 1266.65 821.068 1264.58 819.875C1262.51 818.682 1261 816.716 1260.38 814.41L1260.31 814.16C1259.71 811.63 1259.08 809.16 1258.39 806.56C1257.7 803.96 1256.96 801.24 1256.33 798.32C1255.7 795.4 1255.23 792.43 1254.89 789.58C1254.55 786.73 1254.3 783.91 1254.09 781.13L1256.56 786.44L1256.44 786.31C1255.58 785.412 1254.92 784.337 1254.52 783.16C1254.3 782.536 1254.16 781.888 1254.1 781.23C1254.03 780.45 1254.1 780.41 1254.1 780.38V781.11C1251.42 744.47 1252.92 708.11 1255.61 672.01C1258.3 635.91 1262.76 600.01 1268.03 564.28C1270.66 546.42 1273.54 528.6 1276.67 510.82L1278.98 497.57C1279.71 493.16 1280.42 488.75 1281.07 484.34C1282.4 475.5 1283.56 466.64 1284.53 457.76C1286.53 439.99 1287.84 422.18 1288.53 404.27C1289.22 386.36 1289.97 368.32 1290.15 350.46C1290.15 349.384 1290.58 348.351 1291.34 347.59C1292.1 346.828 1293.13 346.4 1294.21 346.4C1295.29 346.4 1296.32 346.828 1297.08 347.59C1297.84 348.351 1298.27 349.384 1298.27 350.46L1298.22 350.47Z" fill="#17091D"/>
<path id="Vector_28" d="M1079.12 140.55C1089.66 155.72 1109.42 175.55 1146.02 192.66C1178.89 207.97 1225.08 212.78 1265.02 213.55L1079.12 140.55Z" fill="#D969BD"/>
<path id="Vector_29" d="M1435.44 1371.87C1415.15 1379.92 1412.29 1342.75 1412 1340C1395.44 1182 1345.49 1010.82 1306.13 896.29C1298.01 872.69 1290.35 851.49 1283.52 833.29C1274.98 810.55 1280.18 824.08 1275 811.98C1273 804.98 1270 777.98 1271 777.98C1270 764.98 1280.54 772.98 1301.72 833.1C1304.9 842.1 1308.18 851.31 1311.5 860.46C1313.1 864.86 1314.7 869.26 1316.31 873.63C1319.03 880.99 1321.76 888.28 1324.49 895.43C1329.76 909.27 1335.01 922.56 1340.06 934.67C1374 1016 1402.34 1278 1426.17 1309C1436.18 1322 1437.55 1347.12 1435.44 1371.87Z" fill="#9C398C"/>
<path id="Vector_30" d="M1316.42 860.36C1317.36 860.83 1318.33 861.25 1319.31 861.65C1345.06 871.88 1384.14 857.8 1379.16 875.07C1376.16 885.42 1350.05 883.48 1327.49 883.45C1321.36 883.349 1315.23 883.63 1309.13 884.29C1301.01 860.69 1293.35 839.49 1286.52 821.29C1292.59 821.598 1298.66 821.534 1304.72 821.1C1327.44 819.697 1349.78 814.632 1370.88 806.1C1415 788 1408 817.93 1378 828C1358.09 834.66 1326.21 841.18 1314.5 848.51C1308.57 852.19 1307.82 856.11 1316.42 860.36Z" fill="#9C398C"/>
<path id="Vector_31" d="M1443.47 827.52C1466.26 824.94 1468.98 832.52 1444.11 834.17H1443.88C1429.47 833.3 1415.31 835.23 1401.07 835.61C1400.62 835.621 1400.18 835.471 1399.83 835.186C1399.49 834.902 1399.25 834.502 1399.17 834.059C1399.09 833.616 1399.18 833.16 1399.41 832.773C1399.63 832.386 1399.99 832.094 1400.42 831.95C1411.78 828.27 1434 828.89 1443.47 827.52Z" fill="#5C2C66"/>
<path id="Vector_32" d="M1420.41 804.81C1384.07 806.61 1347.8 815.58 1312.03 822.65C1311.71 822.713 1311.38 822.705 1311.07 822.627C1310.75 822.548 1310.46 822.401 1310.2 822.196C1309.95 821.991 1309.75 821.732 1309.61 821.439C1309.47 821.146 1309.39 820.825 1309.39 820.5C1309.51 790.78 1389.32 792.72 1420.84 800.5C1421.34 800.641 1421.77 800.952 1422.06 801.379C1422.35 801.806 1422.48 802.321 1422.43 802.835C1422.38 803.349 1422.15 803.828 1421.78 804.189C1421.41 804.55 1420.93 804.77 1420.41 804.81Z" fill="#5C2C66"/>
<path id="Vector_33" d="M1427 861.05C1401.41 871.79 1351.66 866.61 1320.65 863.46C1320.08 863.383 1319.55 863.091 1319.19 862.642C1318.82 862.194 1318.64 861.622 1318.68 861.044C1318.72 860.466 1318.97 859.925 1319.4 859.53C1319.82 859.136 1320.38 858.917 1320.96 858.92C1326.7 859.07 1334.53 861.15 1337.65 860.08C1337.9 859.985 1338.16 859.934 1338.43 859.93C1367.82 860.06 1396.35 854.55 1426.28 856.66C1426.79 856.699 1427.27 856.909 1427.65 857.256C1428.03 857.603 1428.28 858.066 1428.36 858.572C1428.45 859.078 1428.36 859.597 1428.11 860.046C1427.86 860.495 1427.47 860.849 1427 861.05Z" fill="#5C2C66"/>
<path id="Vector_34" d="M611.5 1305.5C604.28 1345.14 572.13 1507.73 573.5 1617.5C534.28 1613.79 523.06 1611.36 493.29 1607.65C491.68 1580.9 485.37 1548.91 487 1510.44C496.5 1286.5 612.5 1044.5 612.5 1044.5L694.5 1055.5C694.5 1055.5 622.39 1245.68 611.5 1305.5Z" fill="#7E4282" stroke="#17091D" stroke-width="9" stroke-miterlimit="10"/>
<path id="Vector_35" d="M1708.14 1281.32C1708.14 1281.32 1701.5 1276.5 1661.84 1270.38C1649.44 1268.47 1628.46 1272.94 1605.45 1279.99C1546.98 1297.91 1491.08 1325.39 1445.03 1365.63C1442.21 1368.24 1438.97 1370.35 1435.44 1371.87C1415.15 1379.92 1412.29 1342.75 1412 1340C1408.33 1305 1403 1269.33 1396.55 1233.78C1399.91 1246.15 1413.97 1290.7 1443.55 1298.69C1477.99 1308 1568.26 1262.69 1607.12 1248.82C1645.98 1234.95 1670.51 1214.06 1667.25 1154.53C1666.37 1138.53 1665.69 1119.35 1665.16 1099.83C1680.08 1156.25 1692.22 1199.62 1698.49 1214.5C1716.92 1258.26 1708.14 1281.32 1708.14 1281.32Z" fill="#9C398C"/>
<path id="Vector_36" d="M703.87 83.7698C703.87 83.7698 797.87 55.2898 927.7 76.8898C1057.53 98.4898 1064.5 130.5 1073.5 167.5C1082.5 204.5 980.58 485.79 980.58 485.79L838.85 435C838.85 435 662.85 162.17 662.68 160.36C662.51 158.55 662.68 109.02 662.68 109.02L703.87 83.7698Z" fill="#5C2C66" stroke="#17091D" stroke-width="9" stroke-miterlimit="10"/>
<path id="Vector_37" d="M151.53 1358.49C151.53 1358.49 136.33 1375.24 269.91 1352.87C403.49 1330.5 411.69 1293.07 411.69 1293.07C411.69 1293.07 365.94 1280.64 322.22 1290.07C278.5 1299.5 175.61 1339.9 163.55 1349.2C151.49 1358.5 151.53 1358.49 151.53 1358.49Z" fill="#7E4282" stroke="#17091D" stroke-width="9" stroke-miterlimit="10"/>
<g id="belt">
<g id="belt_2">
<path id="Vector_38" d="M907.821 1072.48C896.731 1072.48 885.901 1072.18 875.631 1071.58C867.571 1071.11 859.491 1070.58 851.631 1070.11C769.841 1064.84 499.441 1044.22 453.791 999.971C413.301 960.721 459.181 881.551 461.151 878.201C461.667 877.324 462.465 876.649 463.416 876.285C464.366 875.922 465.411 875.892 466.381 876.201C468.161 876.761 647.201 932.271 847.381 936.911C856.331 937.121 865.311 937.221 874.071 937.221C897.321 937.221 920.23 936.481 942.16 935.021C961.161 933.761 979.871 931.931 997.891 929.581C1135.03 911.581 1196.7 898.061 1224.3 889.841C1228.13 888.694 1232.18 888.423 1236.13 889.045C1240.08 889.668 1243.84 891.169 1247.14 893.439C1250.43 895.708 1253.18 898.687 1255.17 902.158C1257.16 905.628 1258.34 909.501 1258.64 913.491L1265.36 1005.16C1265.43 1006.17 1265.17 1007.17 1264.61 1008C1264.04 1008.84 1263.22 1009.46 1262.26 1009.77C1261.72 1009.95 1207.35 1027.49 1133.55 1043.77H1133.41C1047.39 1062.84 971.501 1072.48 907.821 1072.48Z" fill="#CE44A2"/>
<path id="Vector_39" d="M465 880.48C465 880.48 644.05 936.691 847.24 941.401C856.134 941.614 865.067 941.717 874.04 941.711C896.69 941.711 919.55 941.031 942.42 939.501C961.127 938.261 979.794 936.437 998.42 934.031C1132.77 916.431 1195.89 902.971 1225.53 894.151C1228.72 893.192 1232.08 892.962 1235.37 893.477C1238.66 893.992 1241.79 895.239 1244.53 897.126C1247.27 899.013 1249.56 901.492 1251.21 904.38C1252.87 907.268 1253.86 910.491 1254.1 913.811L1260.82 1005.48C1260.82 1005.48 1206.97 1022.94 1132.53 1039.41C1066.17 1054.09 983.4 1068 907.82 1068C897 1068 886.357 1067.7 875.89 1067.11C868.004 1066.65 860.004 1066.16 851.89 1065.64C690.35 1055.24 493.46 1032.21 456.89 996.761C418.5 959.501 465 880.48 465 880.48ZM465 871.48C463.433 871.479 461.893 871.887 460.532 872.664C459.171 873.441 458.036 874.56 457.24 875.91C455.24 879.39 407.63 961.511 450.63 1003.2C468.91 1020.92 519.78 1036.06 606.15 1049.47C672.48 1059.77 759.54 1068.69 851.31 1074.6C859.31 1075.11 867.38 1075.6 875.31 1076.07C885.66 1076.68 896.58 1076.98 907.76 1076.98C971.76 1076.98 1047.96 1067.31 1134.25 1048.24H1134.44C1208.44 1031.86 1263.02 1014.24 1263.57 1014.08C1265.49 1013.46 1267.14 1012.21 1268.26 1010.54C1269.39 1008.87 1269.92 1006.87 1269.77 1004.86L1263.05 913.191C1262.71 908.533 1261.33 904.012 1259.01 899.959C1256.69 895.906 1253.49 892.425 1249.65 889.77C1245.81 887.116 1241.42 885.357 1236.81 884.621C1232.2 883.886 1227.48 884.193 1223 885.521C1195.57 893.691 1134.14 907.18 997.29 925.11C979.37 927.45 960.71 929.271 941.85 930.521C920.02 931.981 897.22 932.711 874.07 932.711C865.34 932.711 856.39 932.611 847.48 932.401C743.29 930.001 645.62 913.68 582 900.42C513 886 468.16 872.001 467.71 871.891C466.84 871.617 465.933 871.479 465.02 871.48H465Z" fill="#17091D"/>
<path id="Vector_40" d="M851.91 1065.62C690.37 1055.22 493.481 1032.19 456.911 996.74C418.501 959.5 465.001 880.48 465.001 880.48C465.001 880.48 644.051 936.691 847.241 941.401C847.1 946.821 846.91 951.401 846.91 951.401C846.91 951.401 823.1 949.85 756.04 942.94C688.98 936.03 619.361 933.48 578.171 930.75C536.981 928.02 522.171 916.751 526.091 938.891C530.011 961.031 538.391 1004.1 568.691 1012.56C598.991 1021.02 697.611 1027 738.811 1030C780.011 1033 857.061 1039 858.531 1040C859.171 1040.42 855.861 1052.33 851.91 1065.62Z" fill="#9C398C"/>
<path id="Vector_41" d="M1187.77 982.141C1186.53 962.291 1141 966.001 1075.55 974.891C1010.1 983.781 972.001 979.001 972.001 979.001C972.001 979.001 939.001 961.001 938.001 960.561C937.631 960.391 939.701 951.041 942.421 939.501C961.128 938.261 979.794 936.437 998.421 934.031C1135 916.151 1198 902.53 1227 893.72C1230.02 892.813 1233.2 892.595 1236.31 893.083C1239.42 893.57 1242.38 894.751 1244.97 896.538C1247.56 898.325 1249.72 900.673 1251.29 903.406C1252.85 906.14 1253.78 909.19 1254 912.331L1260.83 1005.48C1260.83 1005.48 1206.98 1022.94 1132.54 1039.41C1156.2 1021.57 1188.55 994.771 1187.77 982.141Z" fill="#9C398C"/>
</g>
<path id="Vector_42" d="M699.36 1580.52C685.82 1580.52 651.1 1576.91 628.36 1568.2C627.28 1567.76 626.318 1567.08 625.55 1566.2C622.22 1562.59 613.35 1552.99 622.9 1417.66C627.55 1351.66 634.43 1287.12 634.5 1286.47C634.57 1285.82 640.99 1226.53 680.05 1092.3C700.94 1020.53 741.34 985.671 771.55 969.071C804.42 951.011 832.08 950.071 833.24 950.071H833.36C833.577 950.056 833.794 950.056 834.01 950.071L852.32 952.741C853.366 952.893 854.325 953.408 855.029 954.196C855.732 954.984 856.137 955.995 856.17 957.051L858.17 1021.13C858.201 1022.16 857.876 1023.18 857.25 1024L828.82 1061.58C815.68 1078.94 771.58 1179.41 761.3 1223.43C761.15 1224.08 760.99 1224.82 760.83 1225.62C757.39 1242.37 752.54 1285.3 746.93 1335.01C740.93 1387.8 734.21 1447.62 727.08 1494.94C723.17 1520.94 719.6 1540.15 716.15 1553.84C711.39 1572.84 707.15 1580.27 701.05 1580.44L699.36 1580.52Z" fill="#CE44A2"/>
<path id="Vector_43" d="M833.39 954.58L851.7 957.25L853.7 1021.33L853.25 1021.93L825.25 1058.93C812.05 1076.36 767.44 1177.5 756.94 1222.47C756.78 1223.17 756.61 1223.95 756.44 1224.79C745.75 1277.07 722.18 1575.4 701 1576H699.36C686.25 1576 652.12 1572.46 630 1564C629.573 1563.82 629.193 1563.55 628.89 1563.2C611.48 1544.35 639 1287 639 1287C639 1287 645 1229 684.4 1093.61C724 957.53 833.4 954.61 833.4 954.61M833.4 945.61H833.16C831.95 945.61 803.24 946.61 769.42 965.21C749.433 976.253 731.774 991.062 717.42 1008.82C699.15 1031.23 685.14 1058.92 675.77 1091.13C636.59 1225.75 630.31 1283.7 630.06 1286.13C629.99 1286.75 623.11 1351.37 618.45 1417.46C615.7 1456.38 614.25 1488.22 614.13 1512.11C613.951 1523.72 614.369 1535.34 615.38 1546.91C616.61 1558.73 618.67 1565.45 622.29 1569.37C623.527 1570.73 625.064 1571.79 626.78 1572.46C650.05 1581.38 685.54 1585.08 699.37 1585.08H701.26C709.48 1584.84 713.34 1576.39 714.61 1573.62C717.146 1567.63 719.154 1561.42 720.61 1555.08C724.09 1541.25 727.69 1521.84 731.61 1495.75C738.75 1448.35 745.51 1388.48 751.48 1335.66C757.08 1286.06 761.92 1243.22 765.32 1226.66C765.48 1225.87 765.63 1225.17 765.77 1224.53C770.31 1205.12 782.52 1171.25 798.42 1133.96C812.55 1100.85 826.56 1072.25 832.48 1064.42L849.63 1041.76L860.47 1027.43V1027.36L860.86 1026.84C862.115 1025.2 862.765 1023.17 862.7 1021.1L860.7 957.02C860.633 954.908 859.824 952.887 858.417 951.311C857.009 949.735 855.091 948.705 853 948.4L834.69 945.73C834.259 945.671 833.825 945.64 833.39 945.64L833.4 945.61Z" fill="#17091D"/>
<path id="Vector_44" d="M853.431 1021.33L853.301 1021.93L825.301 1058.93C812.101 1076.36 767.491 1177.5 756.991 1222.47C756.831 1223.17 756.661 1223.95 756.491 1224.79C745.751 1277.07 722.181 1575.4 701.001 1576C689.341 1576.33 653.111 1572.86 630.001 1564C629.574 1563.82 629.194 1563.55 628.891 1563.2C647.681 1560.03 673.261 1556.34 679.001 1557C706.671 1560.14 730.501 1242.5 742.111 1212.11C753.721 1181.72 777.501 1085.5 798.791 1044.9C820.081 1004.3 806.501 1011.5 802.731 994.081C798.961 976.661 846.931 960.561 846.931 960.561L853.431 1021.33Z" fill="#9C398C"/>
<path id="Vector_45" d="M1123 1515.51C1119.29 1515.51 1118 1512.51 1114.79 1504.02C1112.79 1498.72 1110.12 1491.02 1106.58 1480.41C1099.96 1460.54 1091.33 1433.58 1081.35 1402.36C1052.52 1312.24 1013.05 1188.81 997.721 1163.99C971.721 1121.9 946.801 1046.87 945.721 1043.69C945.475 1042.95 945.426 1042.16 945.581 1041.39L961.581 961.951C961.782 960.931 962.333 960.013 963.138 959.354C963.942 958.696 964.951 958.337 965.991 958.341C966.603 958.34 967.209 958.466 967.771 958.711C970.191 959.711 1027.63 985.191 1075.11 1063.34C1082.11 1074.84 1089.03 1087.16 1095.72 1099.96C1130.25 1165.96 1213.84 1463.16 1217.38 1475.78C1217.68 1476.84 1217.58 1477.98 1217.1 1478.97C1216.62 1479.96 1215.79 1480.74 1214.77 1481.16C1214.4 1481.31 1177.38 1496.57 1147.85 1507.32C1137.91 1510.93 1130.22 1513.54 1124.34 1515.32C1123.91 1515.45 1123.45 1515.51 1123 1515.51Z" fill="#CE44A2"/>
<path id="Vector_46" d="M965.941 962.841C965.941 962.841 1023.94 987.841 1071.21 1065.68C1078.51 1077.68 1085.35 1089.93 1091.68 1102.04C1126.39 1168.34 1213 1477.04 1213 1477.04C1213 1477.04 1176 1492.29 1146.26 1503.13C1137.51 1506.31 1129.39 1509.13 1123 1511.04C1117.53 1511.04 1027.5 1203.68 1001.55 1161.66C975.601 1119.64 950.001 1042.28 950.001 1042.28L966.001 962.841M966.001 953.841C963.922 953.842 961.907 954.562 960.299 955.88C958.691 957.198 957.589 959.032 957.181 961.071L941.181 1040.51C940.869 1042.04 940.962 1043.62 941.451 1045.1C942.511 1048.3 967.611 1123.82 993.871 1166.36C1008.87 1190.71 1048.29 1313.84 1077.04 1403.74C1087.04 1434.97 1095.66 1461.94 1102.3 1481.83C1105.85 1492.48 1108.55 1500.25 1110.55 1505.6C1111.7 1508.65 1112.63 1510.94 1113.39 1512.6C1114.33 1514.6 1116.83 1520.03 1122.98 1520.03C1123.87 1520.03 1124.76 1519.9 1125.62 1519.64C1131.62 1517.85 1139.35 1515.21 1149.35 1511.57C1178.97 1500.79 1216.08 1485.49 1216.45 1485.34C1218.49 1484.5 1220.15 1482.94 1221.11 1480.96C1222.08 1478.98 1222.29 1476.71 1221.69 1474.59C1218.14 1461.95 1134.42 1164.26 1099.69 1097.89C1092.96 1085.01 1085.98 1072.61 1078.94 1061.03C1053.81 1019.67 1025.64 993.031 1006.43 978.031C985.351 961.521 970.181 954.891 969.551 954.621C968.424 954.13 967.209 953.878 965.981 953.881L966.001 953.841Z" fill="#17091D"/>
<path id="Vector_47" d="M1146.26 1503.09C1137.51 1506.27 1129.39 1509.09 1123 1511C1117.93 1512.52 1027.52 1203.75 1001.51 1161.63C975.5 1119.51 950 1042.28 950 1042.28L966 962.841C966 962.841 1024 987.841 1071.27 1065.68C1078.57 1077.68 1085.41 1089.93 1091.74 1102.04C1083.74 1101.7 1072.87 1095.29 1058.87 1074.41C1025 1024 999.19 996.931 997.6 997.471C996.01 998.011 1022 1036 1012 1072C1012 1072 1000.64 1011.64 992.32 1008.82C984 1006 983.89 1030.52 974.45 1049.76C965.01 1069 997.45 1120.55 1011.21 1148.27C1021.89 1169.76 1117.9 1417.12 1146.26 1503.09Z" fill="#9C398C"/>
<path id="Vector_48" d="M836.13 922.9C846.81 916.9 864.62 910.9 886.13 919.41C886.13 919.41 937.68 926.78 956.13 926.64C974.58 926.5 978.31 938.64 977.43 960.56C976.55 982.48 968.71 1050.35 956.13 1060.43C943.55 1070.51 840.59 1065.32 832.55 1064.5C824.51 1063.68 832.76 1047.05 834.65 1026.27C836.28 1008.46 837.65 962.15 830 939.71C828.9 936.633 828.91 933.268 830.03 930.198C831.149 927.128 833.307 924.546 836.13 922.9Z" fill="#CE44A2" stroke="#17091D" stroke-width="9" stroke-linecap="round" stroke-linejoin="round"/>
</g>
</g>
<g id="glove 1">
<path id="Vector_49" d="M426 1632.18C414.17 1632.18 403.08 1628.76 394.17 1626C388.26 1624.18 383.17 1622.6 379.76 1622.6H379.41C378.824 1622.59 378.242 1622.71 377.7 1622.93C372.95 1625.32 362.7 1627.85 348.26 1627.85C339.012 1627.79 329.786 1626.92 320.69 1625.25H320.57C305.684 1622.48 291.095 1618.3 277 1612.77C271.18 1610.54 265.22 1608.03 259.27 1605.32L258.39 1604.9C245.11 1598.56 234.65 1586.9 227.32 1570.34C203.4 1516.12 219.12 1424.98 221.57 1411.82C219.57 1407.67 213.51 1394.51 207.92 1380.37C195.24 1348.27 196.02 1338.88 197.72 1334.6C198.108 1333.52 198.722 1332.53 199.522 1331.7C200.323 1330.88 201.29 1330.23 202.36 1329.81C207.36 1327.87 212.83 1325.69 218.6 1323.38C253.3 1309.5 300.83 1290.5 339 1290.5C350.69 1290.5 361 1292.29 369.68 1295.84C391.75 1304.84 411.03 1368.13 414.8 1381.19C422.22 1386.08 455.8 1408.47 469.07 1421.37C469.55 1421.84 470.07 1422.37 470.47 1422.8C478.55 1431.38 481.77 1441.04 484.89 1450.39C487.14 1457.14 489.26 1463.51 493.1 1468.91C498.9 1477.06 504.96 1495.91 510.81 1514.14C515.13 1527.56 519.58 1541.43 523.01 1547.62L523.49 1548.45C525.544 1551.69 526.748 1555.4 526.991 1559.23C527.233 1563.06 526.508 1566.89 524.88 1570.36C520.8 1579.47 511.71 1586.09 500.58 1588.08C495.89 1588.92 489.81 1593.37 485.58 1596.64C481.99 1599.46 478.25 1602.64 474.29 1606.08C460.82 1617.64 445.55 1630.75 430.8 1631.98C429.28 1632.11 427.63 1632.18 426 1632.18Z" fill="#CE44A2"/>
<path id="Vector_50" d="M339 1295C349.57 1295 359.38 1296.49 368 1300C389.86 1308.94 411 1384 411 1384C411 1384 451.54 1410.47 466 1424.56C466.44 1424.99 466.87 1425.43 467.29 1425.87C480.41 1439.81 479.85 1457.87 489.51 1471.48C499.17 1485.09 510.97 1535 519.15 1549.77C519.35 1550.14 519.55 1550.48 519.75 1550.77C527.94 1564.1 517.55 1580.44 499.86 1583.6C494.86 1584.49 489.15 1588.17 482.93 1593.05C466.93 1605.57 447.82 1626.05 430.55 1627.44C429.04 1627.57 427.55 1627.63 426.03 1627.63C406.91 1627.63 389.55 1618.05 379.79 1618.05H379.28C378.038 1618.06 376.813 1618.34 375.69 1618.87C371.93 1620.75 362.69 1623.3 348.29 1623.3C339.269 1623.24 330.271 1622.39 321.4 1620.75C306.809 1618.04 292.511 1613.94 278.7 1608.51C273.1 1606.36 267.273 1603.91 261.22 1601.16L260.43 1600.79C247.17 1594.46 237.89 1582.89 231.51 1568.45C206.51 1511.8 226.34 1411.15 226.34 1411.15C226.34 1411.15 191.5 1338.83 204 1334C239.4 1320.32 295.53 1295 339 1295ZM339 1286C300 1286 252 1305.2 216.92 1319.21C211.17 1321.52 205.73 1323.69 200.74 1325.62C199.096 1326.27 197.605 1327.26 196.365 1328.52C195.125 1329.78 194.163 1331.28 193.54 1332.94C191.27 1338.69 190.7 1349.01 203.75 1382.03C208.95 1395.2 214.47 1407.24 216.89 1412.44C213.697 1430.86 211.563 1449.45 210.5 1468.12C207.98 1512.34 212.26 1547.34 223.21 1572.12C230.99 1589.73 242.21 1602.12 256.48 1608.94L257.31 1609.33H257.37C263.44 1612.1 269.49 1614.64 275.37 1616.91C289.715 1622.53 304.562 1626.79 319.71 1629.61H319.89C329.228 1631.32 338.698 1632.2 348.19 1632.26C360.97 1632.26 372.58 1630.31 379.34 1627.02H379.69C382.4 1627.02 387.44 1628.57 392.77 1630.22C401.97 1633.06 413.42 1636.59 425.93 1636.59C427.71 1636.59 429.48 1636.52 431.2 1636.38C447.4 1635.02 463.25 1621.38 477.2 1609.38C481.13 1606.01 484.83 1602.83 488.34 1600.07C494.21 1595.47 498.57 1592.89 501.34 1592.4C513.93 1590.15 524.25 1582.56 528.94 1572.09C530.845 1567.95 531.692 1563.4 531.406 1558.85C531.12 1554.3 529.709 1549.89 527.3 1546.02V1545.96C527.19 1545.78 527.08 1545.6 526.99 1545.42C526.992 1545.39 526.992 1545.37 526.99 1545.34C523.78 1539.53 519.39 1525.87 515.14 1512.65C508.91 1493.24 503.02 1474.91 496.81 1466.19C493.36 1461.34 491.34 1455.28 489.2 1448.86C486.08 1439.51 482.55 1428.86 473.81 1419.63C473.27 1419.07 472.81 1418.57 472.3 1418.1C459.48 1405.6 428.3 1384.63 418.73 1378.28C416.85 1371.97 412.29 1357.38 406.08 1341.95C402.084 1331.65 397.269 1321.7 391.68 1312.17C384.98 1301.17 378.37 1294.44 371.47 1291.62C362.26 1287.85 351.37 1285.94 339.1 1285.94L339 1286Z" fill="#17091D"/>
<path id="Vector_51" d="M499.81 1583.66C494.81 1584.55 489.1 1588.23 482.88 1593.11C466.88 1605.63 447.77 1626.11 430.5 1627.5C409.28 1629.27 389.62 1617.74 379.23 1618.12C377.988 1618.13 376.762 1618.41 375.64 1618.94C369.92 1621.81 351.52 1626.21 321.35 1620.82C306.759 1618.11 292.461 1614.01 278.65 1608.58C273.05 1606.43 267.223 1603.98 261.17 1601.23L260.38 1600.86C249.9 1595.74 240.26 1584.24 231.46 1568.52C206.46 1511.87 226.29 1411.22 226.29 1411.22C226.29 1411.22 191.5 1338.83 204 1334C248 1317 324 1282 368 1300C389.86 1308.94 411 1384 411 1384C411 1384 362.72 1317.93 340 1322C314.67 1326.52 264.19 1337.19 241 1339C217.81 1340.81 257.81 1469.3 261.16 1505.4C263.39 1529.52 259.76 1561.84 273.03 1581.15C279.62 1590.75 290.38 1597.15 308.1 1597.72L313.56 1597.87C339.56 1598.38 357.76 1596.18 372.36 1594.73C385.59 1593.41 395.83 1592.73 406.11 1595.15C422.88 1599.15 451.19 1607.25 484.54 1584.15C495.54 1576.53 507.18 1565.48 519.09 1549.75C519.29 1550.12 519.49 1550.46 519.69 1550.75C527.89 1564.16 517.5 1580.5 499.81 1583.66Z" fill="#9C398C"/>
<path id="Vector_52" d="M442.45 1556.87C442.45 1556.87 436.91 1526.43 464.63 1496" stroke="#17091D" stroke-width="8.86" stroke-linecap="round" stroke-linejoin="round"/>
<path id="Vector_53" d="M450.77 1522.09C450.77 1522.09 497.91 1552.52 481.27 1598.17" stroke="#17091D" stroke-width="8.86" stroke-linecap="round" stroke-linejoin="round"/>
<path id="Vector_54" d="M370.499 1546C370.499 1546 366.609 1596.57 380.499 1620.5" stroke="#17091D" stroke-width="10.67" stroke-linecap="round" stroke-linejoin="round"/>
<path id="Vector_55" d="M312.16 1569C312.16 1569 309.34 1615.89 327.38 1626.68" stroke="#17091D" stroke-width="8.79" stroke-linecap="round" stroke-linejoin="round"/>
<path id="Vector_56" d="M273.1 1580.26C273.1 1580.26 270.27 1609.87 288.38 1616.68" stroke="#17091D" stroke-width="7" stroke-linecap="round" stroke-linejoin="round"/>
<path id="Vector_57" d="M401.5 1577C407.299 1577 412 1564.24 412 1548.5C412 1532.76 407.299 1520 401.5 1520C395.701 1520 391 1532.76 391 1548.5C391 1564.24 395.701 1577 401.5 1577Z" fill="#D969BD"/>
<path id="Vector_58" d="M337.5 1573C343.299 1573 348 1563.37 348 1551.5C348 1539.63 343.299 1530 337.5 1530C331.701 1530 327 1539.63 327 1551.5C327 1563.37 331.701 1573 337.5 1573Z" fill="#D969BD"/>
<path id="Vector_59" d="M290.5 1584C296.299 1584 301 1576.61 301 1567.5C301 1558.39 296.299 1551 290.5 1551C284.701 1551 280 1558.39 280 1567.5C280 1576.61 284.701 1584 290.5 1584Z" fill="#D969BD"/>
</g>
</g>
<g id="collar front">
<path id="Vector_60" d="M897.999 552.42C857.459 530.1 793.139 456.81 706.839 334.61C642.779 243.88 589.839 158.54 589.279 157.69L588.279 156.12L588.689 154.32C598.539 111.12 652.929 68.8901 671.629 58.3901C674.913 56.5663 678.613 55.6257 682.369 55.6601C693.709 55.6601 705.479 63.6601 708.609 73.3801C710.679 79.8701 708.529 85.9701 702.709 90.1201C695.599 95.1801 691.259 98.6301 690.829 103.9C690.109 112.9 700.439 127.83 722.429 149.56C768.859 195.45 963.429 431.42 965.429 433.8L967.379 436.16L901.999 554.58L897.999 552.42Z" fill="#7E4282"/>
<path id="Vector_61" d="M682.4 60.1604C697.4 60.1604 712.98 77.2904 700.13 86.4504C684.76 97.4504 672.499 106.45 719.299 152.76C766.1 199.07 962 436.66 962 436.66L900.18 548.48C803.87 495.48 593.109 155.32 593.109 155.32C602.719 113.13 657.499 71.5004 673.859 62.3204C676.471 60.8721 679.414 60.1278 682.4 60.1604ZM682.4 51.1604C677.869 51.1223 673.406 52.263 669.45 54.4704C659.45 60.0704 641.179 73.6004 624.609 90.0604C609.359 105.21 590 128.48 584.34 153.32L583.52 156.92L585.46 160.06C585.99 160.91 639.04 246.37 703.18 337.2C789.87 460 854.7 533.71 895.84 556.36L903.71 560.69L908.06 552.83L969.88 441L972.88 435.65L968.979 430.93C960.979 421.21 772.259 192.4 725.669 146.35C698.529 119.53 695.05 108.46 695.39 104.25C695.65 100.93 699.34 98.0804 705.39 93.7704C712.8 88.4904 715.63 80.3504 712.96 72.0004C709.29 60.5004 695.59 51.1504 682.44 51.1504L682.4 51.1604Z" fill="#17091D"/>
<path id="Vector_62" d="M1051.67 143.8C1053.28 151.697 1053.59 159.804 1052.58 167.8C1047.5 207.5 933 404.07 910.5 433.5C888 462.93 806.5 611.5 806.5 611.5L663.5 918.5C663.5 918.5 722.5 927.5 760.5 930.5C760.5 930.5 829.3 766.26 862.5 715.5C889.7 673.92 1040.69 425.1 1064.5 373.5C1088.5 321.5 1145.2 235.16 1137.85 204.83C1132.63 183.28 1114.73 150.12 1099.51 127.76C1093.31 118.66 1046.25 116.66 1051.67 143.8Z" fill="#7E4282" stroke="#17091D" stroke-width="9" stroke-miterlimit="10"/>
</g>
</g>
</svg>
