<svg width="1800" height="1650" viewBox="0 0 1800 1650" fill="none" xmlns="http://www.w3.org/2000/svg">
<g id="Body 11">
<g id="pants">
<path id="Vector" d="M945.75 1593.87C854.45 1593.87 728.92 1568.32 679.2 1557.34C636.96 1548.01 596.89 1537.76 566.36 1528.48C517.92 1513.75 514.12 1507.91 512.69 1505.71C500.94 1487.64 481.28 1345.21 479.08 1329.03L478.32 1323.5L878.37 1354.24L1286.22 1391.6L1286.31 1395.6C1286.4 1399.73 1288.21 1497.18 1259.43 1524.78C1230.31 1552.69 1094.11 1593.48 946.94 1593.85L945.75 1593.87Z" fill="#7E4282"/>
<path id="Vector_2" d="M483.53 1328.42L878 1358.73L1281.79 1395.73C1281.79 1395.73 1283.98 1495.02 1256.29 1521.57C1228.6 1548.12 1094 1589 946.93 1589.37H945.75C798.4 1589.37 527.97 1520.95 516.46 1503.26C504.95 1485.57 483.53 1328.42 483.53 1328.42ZM473.11 1318.59L474.62 1329.59C474.67 1329.99 480.06 1369.46 486.79 1410.59C500.68 1495.43 506.66 1504.59 508.92 1508.11C510.82 1511.04 514.55 1514.55 528.78 1520.33C537.78 1523.98 550 1528.16 565.05 1532.74C595.69 1542.05 635.88 1552.34 678.22 1561.74C728.1 1572.74 854 1598.37 945.75 1598.37H947C1013.54 1598.2 1085.13 1589.55 1148.58 1574.02C1204.14 1560.42 1246.76 1543.23 1262.58 1528.02C1275.65 1515.49 1284.34 1489.1 1288.44 1449.57C1290.26 1431.6 1291.06 1413.55 1290.85 1395.49L1290.67 1387.49L1282.67 1386.76L878.88 1349.76H878.75L484.26 1319.44L473.15 1318.59H473.11Z" fill="#17091D"/>
</g>
<g id="collar back">
<path id="Vector_3" d="M875.5 304.5C820.2 304.5 753.63 279.44 697.43 237.5C643.19 197 609.5 148.88 609.5 112C609.5 24.4697 696.32 17.2197 793.04 17.2197C802.64 17.2197 812.55 17.2897 822.14 17.3597C831.92 17.4297 842.03 17.4997 852 17.4997C939.52 17.4997 1054.15 48.1197 1103.92 106.63C1124.1 130.36 1132.01 156.63 1127.44 184.72C1114.65 263.36 991 304.5 875.5 304.5Z" fill="#CE44A2"/>
<path id="Vector_4" d="M793 21.7197C812.29 21.7197 832.12 21.9997 852 21.9997C971 21.9997 1140 79.4997 1123 184C1111.07 257.32 994.52 300 875.5 300C756.48 300 614 186.28 614 112C614 28.6697 696.63 21.7197 793 21.7197ZM793 12.7197C739 12.7197 696.48 15.1797 664.19 27.1797C645.13 34.2597 631.06 44.1797 621.19 57.3497C610.45 71.7297 605 90.1197 605 112C605 131.73 613.93 154.55 630.82 178C646.52 199.77 668.62 221.58 694.73 241.09C721.284 260.94 750.338 277.207 781.14 289.47C814.14 302.47 845.91 309.02 875.5 309.02C937.28 309.02 996.76 297.92 1043 277.76C1067.51 267.08 1087.48 254.2 1102.36 239.47C1118.76 223.25 1128.69 205.08 1131.88 185.47C1136.67 156.01 1128.42 128.52 1107.35 103.74C1056.7 44.1597 940.55 12.9997 852 12.9997C842 12.9997 831.94 12.9297 822.17 12.8597C812.57 12.7897 802.65 12.7197 793.04 12.7197H793Z" fill="#17091D"/>
<path id="Vector_5" d="M1091 206.499C1079.07 279.819 994.52 340.999 875.5 340.999C756.48 340.999 614 227.279 614 152.999C614 52.9995 733 62.9995 852 62.9995C971 62.9995 1108 101.999 1091 206.499Z" fill="#9C398C" stroke="#17091D" stroke-width="9" stroke-linecap="round" stroke-linejoin="round"/>
</g>
<g id="glove 2">
<path id="Vector_6" d="M1417.21 1611.77C1404.34 1611.77 1389.7 1605.69 1375.55 1599.77C1370.72 1597.77 1366.17 1595.87 1361.88 1594.31C1355.12 1591.85 1350.32 1590.71 1346.76 1590.71C1346.17 1590.71 1345.58 1590.75 1345 1590.82C1343.28 1591.06 1341.54 1591.19 1339.8 1591.19C1329.87 1591.19 1320.7 1587.07 1315.27 1580.19C1313.06 1577.44 1311.51 1574.21 1310.76 1570.76C1310 1567.31 1310.05 1563.73 1310.91 1560.31C1310.99 1560.01 1311.05 1559.71 1311.11 1559.39C1314.01 1544.3 1323.49 1499.39 1328.72 1482.62C1330.58 1476.62 1327.85 1468.27 1324.96 1459.41C1321.29 1448.13 1317.11 1435.34 1322.25 1424.41C1322.55 1423.78 1322.85 1423.18 1323.16 1422.59C1331.72 1406.22 1356.69 1374.52 1362.24 1367.59C1361.97 1361.24 1361.14 1338.13 1361.87 1313.65C1363.64 1254.39 1372.62 1244.95 1375.58 1241.85C1376.67 1240.62 1378 1239.62 1379.49 1238.93C1380.98 1238.25 1382.6 1237.88 1384.24 1237.85C1393.56 1237.85 1419.24 1229.17 1439.79 1222.19C1453.79 1217.43 1467.12 1212.93 1475.39 1210.99C1479.32 1210.05 1483.35 1209.57 1487.39 1209.56C1498.39 1209.56 1507.25 1213.3 1514.39 1216.3C1519.65 1218.52 1524.19 1220.44 1528.26 1220.44C1529.67 1220.45 1531.06 1220.2 1532.38 1219.7C1533.11 1219.43 1533.89 1219.29 1534.67 1219.29C1541.17 1219.29 1544.17 1227.84 1546.67 1240.69C1548.53 1250.28 1550.23 1263.59 1551.67 1280.25C1553.91 1305.38 1554.99 1330.8 1555.21 1336.25C1560.9 1346.6 1605.21 1429.46 1599.21 1489.05C1597.4 1507.11 1591.07 1521.42 1580.4 1531.59L1579.73 1532.21C1574.9 1536.66 1570.01 1540.9 1565.17 1544.84C1553.5 1554.46 1540.95 1562.96 1527.68 1570.21C1501.04 1584.52 1483.31 1586.06 1476.92 1586.06C1475.51 1586.07 1474.09 1585.98 1472.69 1585.79H1472.35C1471.87 1585.8 1471.39 1585.88 1470.93 1586.03C1467.7 1586.96 1463.19 1590.15 1457.93 1593.84C1449.16 1600.04 1438.24 1607.76 1424.93 1610.93C1422.4 1611.51 1419.81 1611.79 1417.21 1611.77Z" fill="#CE44A2"/>
<path id="Vector_7" d="M1487.38 1214.05C1505.45 1214.05 1516.93 1224.92 1528.22 1224.92C1530.16 1224.94 1532.09 1224.6 1533.91 1223.92C1534.14 1223.83 1534.38 1223.79 1534.63 1223.79C1546.63 1223.79 1550.77 1337.53 1550.77 1337.53C1550.77 1337.53 1600.9 1427.03 1594.77 1488.65C1593.19 1504.35 1587.97 1518.23 1577.33 1528.37L1576.69 1528.97C1571.8 1533.47 1567.02 1537.61 1562.36 1541.39C1550.92 1550.84 1538.61 1559.18 1525.58 1566.29C1502.52 1578.68 1485.4 1581.61 1476.95 1581.61C1475.76 1581.62 1474.57 1581.54 1473.39 1581.38C1473.06 1581.33 1472.72 1581.31 1472.39 1581.31C1471.49 1581.32 1470.59 1581.46 1469.73 1581.72C1459.73 1584.59 1444.63 1601.66 1423.92 1606.57C1421.73 1607.07 1419.49 1607.32 1417.24 1607.3C1400.99 1607.3 1380.12 1596.23 1363.44 1590.16C1357.14 1587.86 1351.44 1586.29 1346.79 1586.29C1345.99 1586.29 1345.2 1586.34 1344.41 1586.44C1342.89 1586.65 1341.36 1586.76 1339.82 1586.76C1324.15 1586.76 1311.98 1575.3 1315.3 1561.42C1315.39 1561.05 1315.48 1560.67 1315.55 1560.25C1318.74 1543.67 1328.03 1500.04 1333.03 1484.02C1338.03 1468 1318.2 1443.7 1326.34 1426.37C1326.6 1425.82 1326.87 1425.27 1327.16 1424.72C1336.51 1406.84 1366.82 1369.08 1366.82 1369.08C1366.82 1369.08 1360.64 1242.36 1384.26 1242.36C1400.64 1242.36 1455.52 1220.27 1476.44 1215.36C1480.04 1214.5 1483.74 1214.06 1487.44 1214.06M1487.44 1205.06C1483.06 1205.08 1478.7 1205.59 1474.44 1206.6C1465.96 1208.6 1452.59 1213.12 1438.44 1217.92C1419.22 1224.43 1392.91 1233.35 1384.33 1233.35C1382.08 1233.37 1379.85 1233.86 1377.8 1234.79C1375.75 1235.72 1373.91 1237.06 1372.41 1238.74C1366.78 1244.66 1359.1 1258.84 1357.47 1313.51C1356.78 1336.61 1357.47 1357.98 1357.77 1366.09C1350.6 1375.15 1327.55 1404.71 1319.26 1420.54C1318.96 1421.12 1318.65 1421.75 1318.26 1422.47V1422.53C1312.37 1435.08 1316.83 1448.77 1320.77 1460.84C1323.32 1468.65 1325.95 1476.71 1324.51 1481.32C1319.23 1498.25 1309.69 1543.42 1306.79 1558.54C1306.79 1558.54 1306.79 1558.6 1306.79 1558.64C1306.79 1558.68 1306.71 1559.03 1306.66 1559.24V1559.31C1305.64 1563.4 1305.58 1567.66 1306.48 1571.77C1307.39 1575.89 1309.23 1579.74 1311.86 1583.02C1318.14 1591.02 1328.63 1595.73 1339.92 1595.73C1341.87 1595.73 1343.82 1595.59 1345.76 1595.32C1346.13 1595.27 1346.51 1595.25 1346.89 1595.25C1349.89 1595.25 1354.31 1596.34 1360.46 1598.59C1364.66 1600.11 1369.18 1601.99 1373.95 1603.97C1388.51 1609.97 1403.57 1616.26 1417.34 1616.26C1420.29 1616.27 1423.22 1615.93 1426.09 1615.26C1440.29 1611.9 1451.61 1603.9 1460.7 1597.47C1465.18 1594.3 1469.81 1591.02 1472.31 1590.31H1472.47C1473.99 1590.51 1475.53 1590.6 1477.06 1590.59C1483.79 1590.59 1502.41 1589 1529.94 1574.21C1543.47 1566.82 1556.26 1558.17 1568.15 1548.36C1573.04 1544.36 1578.01 1540.08 1582.89 1535.58L1582.99 1535.49L1583.65 1534.87C1595.11 1523.94 1601.9 1508.69 1603.82 1489.54C1606.52 1462.54 1599.7 1427.96 1583.57 1386.71C1576.66 1369.04 1568.72 1351.8 1559.8 1335.06C1559.5 1327.88 1558.41 1303.74 1556.28 1279.86C1554.79 1263.05 1553.06 1249.58 1551.17 1239.86C1550.31 1234.9 1548.99 1230.03 1547.23 1225.31C1544.4 1218.31 1540.23 1214.82 1534.77 1214.81C1533.45 1214.81 1532.14 1215.05 1530.91 1215.51C1530.09 1215.82 1529.22 1215.97 1528.35 1215.96C1525.19 1215.96 1521.03 1214.21 1516.23 1212.18C1508.74 1209.02 1499.42 1205.09 1487.51 1205.09L1487.44 1205.06Z" fill="#17091D"/>
<path id="Vector_8" d="M1344.38 1586.42C1349.38 1585.72 1355.98 1587.42 1363.38 1590.14C1382.45 1597.08 1406.99 1610.55 1423.86 1606.55C1444.57 1601.64 1459.68 1584.55 1469.67 1581.7C1470.85 1581.32 1472.11 1581.21 1473.34 1581.36C1479.67 1582.36 1498.52 1580.78 1525.53 1566.27C1538.56 1559.16 1550.87 1550.82 1562.31 1541.37C1566.98 1537.58 1571.75 1533.44 1576.64 1528.95L1577.28 1528.35C1585.65 1520.23 1591.28 1506.35 1594.72 1488.63C1600.87 1427.01 1550.72 1337.51 1550.72 1337.51C1550.72 1337.51 1546.42 1219.23 1533.86 1223.9C1518.39 1229.67 1504.55 1208.74 1476.36 1215.35C1455.44 1220.26 1400.56 1242.35 1384.18 1242.35C1360.56 1242.35 1366.74 1369.07 1366.74 1369.07C1366.74 1369.07 1336.43 1406.83 1327.08 1424.71C1326.79 1425.26 1326.52 1425.81 1326.26 1426.36C1332.53 1420.63 1363.52 1393.18 1386.33 1389.97C1411.81 1386.39 1474.83 1384.07 1497.44 1378.58C1520.05 1373.09 1538.81 1402.52 1546.84 1437.88C1552.22 1461.49 1565.71 1491.09 1559.1 1513.56C1555.82 1524.74 1547.58 1534.15 1530.92 1540.21C1529.17 1540.85 1527.45 1541.46 1525.78 1542.05C1501.26 1550.6 1483.24 1554.18 1468.91 1557.34C1455.91 1560.2 1445.97 1562.71 1436.91 1568.23C1422.22 1577.23 1397.82 1593.74 1358.91 1582.23C1346.05 1578.42 1331.59 1571.52 1315.38 1560.23C1315.31 1560.65 1315.22 1561.03 1315.13 1561.4C1311.63 1576.61 1326.59 1588.92 1344.38 1586.42Z" fill="#9C398C"/>
<path id="Vector_9" d="M1390.57 1543.13C1390.57 1543.13 1386.38 1512.48 1350.57 1492.13" stroke="#17091D" stroke-width="8.86" stroke-linecap="round" stroke-linejoin="round"/>
<path id="Vector_10" d="M1371.86 1512.65C1371.86 1512.65 1336.51 1556.23 1366.51 1594.45" stroke="#17091D" stroke-width="8.86" stroke-linecap="round" stroke-linejoin="round"/>
<path id="Vector_11" d="M1455.58 1510.44C1455.58 1510.44 1474.99 1557.3 1469.23 1584.36" stroke="#17091D" stroke-width="10.67" stroke-linecap="round" stroke-linejoin="round"/>
<path id="Vector_12" d="M1518.18 1514.17C1518.18 1514.17 1535.44 1557.86 1521.64 1573.73" stroke="#17091D" stroke-width="8.79" stroke-linecap="round" stroke-linejoin="round"/>
<path id="Vector_13" d="M1558.81 1512.72C1558.81 1512.72 1570.7 1539.99 1555.6 1552.1" stroke="#17091D" stroke-width="7" stroke-linecap="round" stroke-linejoin="round"/>
<path id="Vector_14" d="M1425 1567C1432.18 1567 1438 1554.24 1438 1538.5C1438 1522.76 1432.18 1510 1425 1510C1417.82 1510 1412 1522.76 1412 1538.5C1412 1554.24 1417.82 1567 1425 1567Z" fill="#D969BD"/>
<path id="Vector_15" d="M1496.06 1539.13C1503.02 1537.35 1506.16 1526.15 1503.08 1514.11C1500 1502.07 1491.86 1493.75 1484.91 1495.53C1477.95 1497.31 1474.81 1508.51 1477.89 1520.55C1480.97 1532.59 1489.1 1540.91 1496.06 1539.13Z" fill="#D969BD"/>
<path id="Vector_16" d="M1540.37 1518.54C1546.38 1517 1549.51 1508.94 1547.36 1500.54C1545.21 1492.14 1538.6 1486.58 1532.59 1488.12C1526.58 1489.65 1523.45 1497.71 1525.6 1506.11C1527.75 1514.51 1534.36 1520.07 1540.37 1518.54Z" fill="#D969BD"/>
</g>
<g id="arm 2">
<path id="Vector_17" d="M1335.67 1310.16C1335.67 1310.09 1335.56 1303.58 1335.19 1293.16C1333.87 1254.24 1329.19 1159.86 1314.42 1124C1295.49 1078 1232.09 903.859 1231.42 902.109L1231.23 901.57V901C1231.13 899.49 1221.13 748.17 1218.88 666.1C1217.53 617.35 1219.47 613.81 1220.51 611.91C1225.33 603.1 1240.93 473.66 1249.63 394.13L1249.69 393.61L1287.45 297C1287.99 295.509 1288.4 293.973 1288.66 292.41C1289.28 289.41 1290.31 284.27 1295.51 284.27C1297.01 284.322 1298.47 284.722 1299.78 285.44C1320.17 295.56 1369.39 322.84 1385.89 357.58C1400.83 389.02 1430.71 523.03 1452.53 620.88C1462.72 666.55 1471.53 706 1475.96 722.21C1481.89 743.89 1487.68 763.78 1492.78 781.33C1499.68 805.04 1504.66 822.17 1506.24 830.71C1506.73 833.35 1509.08 842.2 1512.34 854.44C1526.6 908 1560 1033.47 1560 1098.37C1560 1169.37 1566.57 1262.68 1567.89 1280.66L1568.46 1288.23L1335.76 1314.56L1335.67 1310.16Z" fill="#FBDAFA"/>
<path id="Vector_18" d="M1295.51 288.249C1296.39 288.314 1297.24 288.57 1298 288.999C1317.55 298.699 1366.16 325.349 1382.28 359.279C1404 404.999 1458.2 672.509 1472.1 723.279C1486 774.049 1499.61 816.869 1502.31 831.449C1505.01 846.029 1556 1018.73 1556 1098.37C1556 1169.18 1562.47 1261.37 1563.9 1280.95C1564.08 1283.38 1564.18 1284.69 1564.18 1284.69L1381.31 1305.38L1339.68 1310.09C1339.68 1310.09 1339.57 1303.61 1339.2 1292.98C1337.87 1253.98 1333.2 1158.98 1318.13 1122.44C1299 1076 1235.21 900.699 1235.21 900.699C1235.21 900.699 1225.14 748.889 1222.87 665.999C1222.08 637.489 1222.22 617.109 1224.01 613.839C1231.01 601.049 1253.6 394.579 1253.6 394.579L1291.18 298.489C1293.18 293.429 1292.49 288.299 1295.51 288.299M1295.51 280.299C1293.56 280.294 1291.65 280.86 1290.02 281.926C1288.39 282.992 1287.1 284.512 1286.32 286.299C1285.57 288.019 1285.04 289.827 1284.74 291.679C1284.52 293.015 1284.18 294.33 1283.74 295.609L1246.16 391.699L1245.77 392.699L1245.66 393.759C1245.6 394.259 1240.05 444.899 1233.66 496.889C1221.95 592.619 1217.9 607.799 1216.91 610.169C1215.44 612.859 1213.49 617.169 1214.85 666.269C1217.1 748.409 1227.11 899.809 1227.21 901.329L1227.28 902.469L1227.67 903.539C1228.31 905.289 1291.74 1079.54 1310.67 1125.54C1325.19 1160.79 1329.83 1254.6 1331.14 1293.3C1331.51 1303.73 1331.62 1310.21 1331.62 1310.3L1331.77 1319.1L1340.52 1318.1L1382.15 1313.39L1565.02 1292.7L1572.68 1291.83L1572.1 1284.14C1572.1 1284.14 1572 1282.83 1571.82 1280.42C1570.5 1262.47 1563.95 1169.28 1563.94 1098.42C1563.94 1032.99 1530.46 907.169 1516.16 853.419C1513.04 841.719 1510.59 832.489 1510.16 829.999C1508.54 821.249 1503.53 803.999 1496.6 780.219C1491.5 762.689 1485.72 742.809 1479.8 721.169C1475.38 705.039 1466.59 665.639 1456.42 620.009C1433.34 516.519 1404.61 387.719 1389.49 355.879C1381.95 340.009 1367.36 324.109 1346.12 308.619C1332.02 298.491 1317.11 289.54 1301.54 281.859C1299.69 280.878 1297.64 280.337 1295.54 280.279L1295.51 280.299Z" fill="#17091D"/>
<path id="Vector_19" d="M1394.57 1374.69C1346.82 1378.47 1323.4 1380.85 1317.01 1368.47C1311.9 1358.57 1308.22 1337.07 1306.01 1320.3C1305.61 1317.3 1305.81 1314.26 1306.59 1311.34C1307.37 1308.42 1308.73 1305.69 1310.58 1303.3C1312.42 1300.91 1314.72 1298.91 1317.35 1297.41C1319.98 1295.92 1322.87 1294.96 1325.87 1294.59L1339.21 1292.98C1337.88 1253.98 1333.21 1158.98 1318.14 1122.44C1299 1076 1235.21 900.699 1235.21 900.699C1235.21 900.699 1225.14 748.889 1222.87 665.999H1313.47C1313.47 665.999 1299.17 796.479 1305.8 901.859C1305.91 903.719 1306.03 905.569 1306.16 907.409C1306.52 912.489 1306.93 917.489 1307.4 922.409C1308.83 938.904 1311.27 955.295 1314.72 971.489C1328.72 1034.59 1357.51 1181.85 1378.08 1288.7C1379.18 1294.4 1380.25 1299.97 1381.3 1305.42C1386.54 1332.61 1391.1 1356.5 1394.57 1374.69Z" fill="#F9B4F9"/>
<path id="Vector_20" d="M1571.72 1355.91C1553.53 1361.43 1520.92 1368.14 1466.5 1370.24C1438.05 1371.34 1414.25 1373.13 1394.57 1374.69C1346.82 1378.47 1323.4 1380.85 1317.01 1368.47C1311.9 1358.57 1308.22 1337.07 1306.01 1320.3C1305.61 1317.3 1305.81 1314.26 1306.59 1311.34C1307.37 1308.42 1308.73 1305.69 1310.58 1303.3C1312.42 1300.91 1314.73 1298.91 1317.35 1297.41C1319.98 1295.92 1322.87 1294.96 1325.87 1294.59L1339.21 1292.98C1350.4 1291.67 1363.64 1290.17 1378.1 1288.66C1439.02 1282.27 1521.51 1275.58 1562.8 1280.78C1563.17 1280.78 1563.54 1280.88 1563.91 1280.95C1568.7 1281.78 1573.12 1284.08 1576.56 1287.52C1580 1290.96 1582.29 1295.38 1583.13 1300.17L1588.21 1329.17C1589.21 1334.87 1588.08 1340.74 1585.04 1345.67C1582 1350.6 1577.26 1354.24 1571.72 1355.91Z" fill="#FBDAFA" stroke="#17091D" stroke-width="8" stroke-miterlimit="10"/>
<path id="Vector_21" d="M1333.35 882.149L1306.14 907.379C1305.86 907.631 1305.51 907.789 1305.14 907.829C1304.77 907.867 1304.4 907.787 1304.08 907.599L1303.4 907.189C1303.21 907.066 1303.04 906.902 1302.92 906.709C1302.8 906.502 1302.72 906.271 1302.69 906.032C1302.66 905.792 1302.68 905.55 1302.75 905.319C1302.81 905.092 1302.93 904.883 1303.09 904.709L1349.76 854.359C1359.37 844.319 1366.55 837.652 1371.28 834.359C1395.31 817.532 1420.57 802.53 1446.84 789.479C1447.15 789.321 1447.51 789.289 1447.84 789.389C1448.17 789.477 1448.46 789.678 1448.66 789.959C1448.87 790.248 1448.99 790.591 1449 790.947C1449.01 791.302 1448.92 791.654 1448.74 791.959C1440.52 805.359 1423.74 816.959 1408.47 826.869C1389.63 839.159 1369.84 849.109 1353.1 864.099C1346.43 870.079 1339.85 876.096 1333.35 882.149Z" fill="#5C2C66"/>
<path id="Vector_22" d="M1397.61 902.73C1397.48 902.778 1397.34 902.812 1397.2 902.83C1378.03 905.62 1357.31 908.54 1341.37 921.29C1341.16 921.455 1340.92 921.576 1340.66 921.646C1340.4 921.717 1340.13 921.735 1339.87 921.7C1339.33 921.611 1338.85 921.33 1338.5 920.91C1338.14 920.448 1337.94 919.885 1337.93 919.303C1337.92 918.72 1338.09 918.148 1338.42 917.67C1341.77 913.366 1346.15 909.986 1351.17 907.85C1359.66 904.036 1369.08 899.79 1379.43 895.11C1384.76 892.703 1389.76 890.683 1394.43 889.05C1399.51 887.238 1404.44 885.007 1409.15 882.38C1409.5 882.183 1409.77 881.872 1409.91 881.5C1410.06 881.11 1410.08 880.684 1409.98 880.28C1409.89 879.882 1409.66 879.528 1409.34 879.28C1409.04 879.053 1408.66 878.953 1408.28 879L1407.8 879.06C1407.31 879.12 1406.82 879.008 1406.41 878.742C1406 878.476 1405.69 878.074 1405.54 877.605C1405.4 877.137 1405.42 876.632 1405.61 876.179C1405.8 875.727 1406.14 875.355 1406.58 875.13L1413.23 871.66C1413.31 871.61 1413.37 871.536 1413.41 871.45C1413.44 871.355 1413.44 871.255 1413.41 871.16C1413.39 871.062 1413.35 870.971 1413.28 870.9C1413.22 870.832 1413.14 870.786 1413.05 870.77C1412.54 870.739 1412.06 870.523 1411.7 870.163C1411.34 869.803 1411.12 869.323 1411.09 868.814C1411.06 868.306 1411.21 867.803 1411.53 867.4C1411.84 866.998 1412.29 866.724 1412.79 866.63C1431.69 863.25 1452.6 863.47 1469.79 870.33C1476.52 872.979 1483.47 875.05 1490.55 876.52C1491.76 876.79 1492.83 877.503 1493.55 878.52C1494.32 879.599 1494.72 880.902 1494.69 882.23V883.44C1494.68 883.958 1494.58 884.471 1494.38 884.95C1494.19 885.422 1493.91 885.85 1493.55 886.21C1493.21 886.556 1492.8 886.825 1492.35 887C1491.91 887.168 1491.43 887.23 1490.96 887.18C1479.33 885.98 1471.43 885.61 1467.25 886.07C1443.45 888.774 1420.06 894.368 1397.61 902.73Z" fill="#F9B4F9"/>
<path id="Vector_23" d="M1362.66 359.649C1363 359.999 1353 563.999 1334 635.999" stroke="#17091D" stroke-width="9" stroke-linecap="round" stroke-linejoin="round"/>
<path id="Vector_24" d="M1275 944.999C1275 944.999 1365 877.089 1416.5 870.499" stroke="#17091D" stroke-width="9" stroke-linecap="round" stroke-linejoin="round"/>
</g>
<g id="shirt">
<path id="Vector_25" d="M991.58 830C990.15 830 986.9 829.6 834.06 774C758.28 746.42 682.06 718.48 681.33 718.2L679.58 717.56L543.91 344.56L578.45 243L782.77 323.34L944.49 371.34C984.86 356.27 1048.8 331.74 1056.33 327.13C1061.76 316.4 1107.6 232.96 1117.12 215.63L1119 212.2L1171.78 239.79L1189.24 615.27L1188.16 616.49C1187.68 617.02 1140.36 670.15 1093.09 722.6C1065.31 753.42 1042.99 777.97 1026.73 795.6C994.94 830 994 830 991.62 830H991.58Z" fill="#FBDAFA"/>
<path id="Vector_26" d="M1120.62 217.52L1167.89 242.23L1185.17 613.79C1185.17 613.79 996.21 826 991.61 826C987.01 826 682.7 714.41 682.7 714.41L548.15 344.47L580.89 248.24L781.46 327.12L944.64 375.51C944.64 375.51 1058.11 333.2 1059.55 329.6C1060.99 326 1120.62 217.52 1120.62 217.52ZM1117.39 206.8L1113.61 213.67C1097.15 243.61 1060.61 310.21 1053.35 324.16C1042.35 329.95 977.69 354.62 944.35 367.08L784.07 319.55L583.82 240.8L576.02 237.73L573.32 245.67L540.58 341.89L539.67 344.56L540.67 347.2L675.18 717.14L676.46 720.64L679.95 721.92C680.71 722.2 756.9 750.13 832.68 777.72C877.19 793.92 912.85 806.83 938.68 816.09C988.62 834 989.62 834 991.61 834C995.55 834 997.38 832.39 1007 822.44C1012.36 816.89 1020 808.76 1029.67 798.26C1045.94 780.64 1068.27 756.07 1096.06 725.26C1143.34 672.8 1190.67 619.66 1191.15 619.13L1193.31 616.69L1193.16 613.44L1175.88 241.88L1175.66 237.29L1171.59 235.16L1124.33 210.45L1117.39 206.82V206.8Z" fill="#17091D"/>
<path id="Vector_27" d="M932.17 409.72C932.17 409.72 956.28 695.09 944.64 761" stroke="#17091D" stroke-width="9" stroke-miterlimit="10"/>
<path id="Vector_28" d="M988 547.86C983.382 547.758 978.781 547.283 974.24 546.44C962.99 544.56 960.79 537.86 960.36 535.07C959.27 527.87 964.85 520.07 974.58 515.13C977.623 513.596 980.982 512.795 984.39 512.79C988.795 512.785 993.095 514.132 996.71 516.65C1006.23 523.26 1007.15 529.81 1006.23 534.15C1004.23 543.5 998.47 547.86 988 547.86Z" fill="#7E4282"/>
<path id="Vector_29" d="M984.41 517.29C987.9 517.29 991.305 518.358 994.17 520.35C998.61 523.43 1002.97 527.91 1001.85 533.23C1000.33 540.47 996.52 543.36 988.02 543.36C983.651 543.251 979.298 542.796 975 542C959.85 539.48 962.41 526.33 976.63 519.15C979.042 517.929 981.707 517.292 984.41 517.29ZM984.41 508.29C980.297 508.297 976.242 509.266 972.57 511.12C961.07 516.92 954.57 526.59 955.93 535.75C957.13 543.58 963.7 549.24 973.52 550.88C978.306 551.764 983.155 552.259 988.02 552.36C1000.63 552.36 1008.25 546.55 1010.66 535.08C1011.66 530.43 1011.46 521.39 999.3 512.95C994.931 509.909 989.734 508.282 984.41 508.29Z" fill="#17091D"/>
<path id="Vector_30" d="M988 733.86C983.382 733.758 978.781 733.283 974.24 732.44C962.99 730.56 960.79 723.86 960.36 721.07C959.27 713.87 964.85 706.07 974.58 701.13C977.623 699.596 980.982 698.795 984.39 698.79C988.795 698.785 993.095 700.132 996.71 702.65C1006.23 709.26 1007.15 715.81 1006.23 720.15C1004.23 729.5 998.47 733.86 988 733.86Z" fill="#7E4282"/>
<path id="Vector_31" d="M984.41 703.29C987.9 703.29 991.305 704.358 994.17 706.35C998.61 709.43 1002.97 713.91 1001.85 719.23C1000.33 726.47 996.52 729.36 988.02 729.36C983.651 729.251 979.298 728.796 975 728C959.85 725.48 962.41 712.33 976.63 705.15C979.042 703.929 981.707 703.292 984.41 703.29ZM984.41 694.29C980.297 694.297 976.242 695.266 972.57 697.12C961.07 702.92 954.57 712.59 955.93 721.75C957.13 729.58 963.7 735.24 973.52 736.88C978.306 737.764 983.155 738.259 988.02 738.36C1000.63 738.36 1008.25 732.55 1010.66 721.08C1011.66 716.43 1011.46 707.39 999.3 698.95C994.931 695.909 989.734 694.282 984.41 694.29Z" fill="#17091D"/>
</g>
<g id="vest">
<path id="Vector_32" d="M1083.1 1526.62C1082.43 1526.62 1081.8 1526.62 1081.21 1526.62C1062.84 1525.92 1042.39 1507.49 1020.42 1471.83C1002.91 1443.38 988 1410 978.53 1387C978.328 1386.46 977.965 1386 977.491 1385.68C977.016 1385.36 976.454 1385.19 975.88 1385.2C975.607 1385.2 975.334 1385.24 975.07 1385.31C974.588 1385.43 974.148 1385.68 973.796 1386.04C973.444 1386.39 973.193 1386.83 973.07 1387.31C958.46 1435.18 922.79 1472.67 895.44 1495.7C893.63 1497.23 891.77 1498.7 889.92 1500.05C877.73 1509.06 863.822 1515.47 849.056 1518.89C834.289 1522.3 818.978 1522.66 804.07 1519.92L718.66 1504.23H718.47C626.63 1483.38 554.84 1439.87 510.88 1378.42C490.128 1349.47 475.69 1316.49 468.5 1281.61C461.28 1246.87 460.96 1210.24 467.57 1172.75C480.89 1097.16 471.66 1012.88 461.57 955.48C450.62 893.21 436.36 848.38 436.21 847.93C435.961 847.146 435.93 846.31 436.12 845.51L483.34 647.85C485.04 639.98 486.56 631.94 487.82 624.06C506.29 508.73 473.75 413.66 443.21 354.22C410 289.54 372 251.83 371.58 251.45C371.049 250.931 370.655 250.288 370.433 249.579C370.211 248.87 370.169 248.117 370.309 247.388C370.45 246.658 370.77 245.975 371.239 245.4C371.709 244.824 372.314 244.374 373 244.09L579.16 158.23C579.707 157.998 580.296 157.879 580.89 157.88C581.764 157.881 582.618 158.136 583.349 158.614C584.081 159.091 584.658 159.771 585.01 160.57C585.61 161.93 645.65 298.2 744.72 452.99C836.22 595.99 958.88 715.58 978.21 734.07C1072.02 653.21 1119.56 461.48 1131.65 370.5C1144.96 270.35 1121.1 192.29 1120.86 191.5C1120.59 190.637 1120.58 189.711 1120.84 188.844C1121.11 187.978 1121.62 187.211 1122.33 186.644C1123.04 186.077 1123.9 185.738 1124.8 185.669C1125.7 185.6 1126.61 185.806 1127.39 186.26L1292.85 281.26C1293.65 281.723 1294.28 282.422 1294.67 283.26C1295.1 284.17 1305.45 306.2 1323.78 374.32C1334.91 415.67 1334.78 463.47 1334.68 509.69C1334.61 540.69 1334.54 569.94 1337.92 594.98C1346.56 658.84 1294.25 857.91 1273.36 929.23C1260.57 972.92 1268.58 1044.16 1275.72 1093.94C1279.72 1121.94 1284.47 1149.53 1289.05 1176.26L1290.32 1183.63C1293.79 1203.89 1297.41 1225.19 1299.98 1243.46C1300.96 1250.49 1301.9 1257.12 1302.79 1263.35C1313.31 1337.35 1316.49 1359.69 1303.04 1398.98C1292.89 1428.59 1227.34 1467.81 1207.49 1479.12C1169.07 1501.05 1113.44 1526.62 1083.1 1526.62Z" fill="#CE44A2"/>
<path id="Vector_33" d="M580.89 162.38C580.89 162.38 640.5 298.5 740.89 455.38C835 602.35 960.79 723.72 976.42 738.58L977.42 739.52L978.04 740.099C1071.57 662.699 1122.5 473.5 1136.11 371.1C1149.72 268.7 1125.11 190.18 1125.11 190.18L1290.57 285.23C1290.57 285.23 1301 307 1319.43 375.51C1337.86 444.02 1325 532.999 1333.43 595.599C1341.86 658.199 1291 853 1269 928C1257.16 968.45 1262.15 1031.31 1271.23 1094.62C1275.62 1125.28 1280.98 1156.05 1285.84 1184.43C1289.56 1206.09 1292.98 1226.36 1295.48 1244.13C1308 1333.25 1312.96 1356.02 1298.74 1397.56C1284.67 1438.64 1135.33 1522.14 1083.06 1522.14C1082.47 1522.14 1081.9 1522.14 1081.34 1522.14C1042.73 1520.68 1000.51 1428.81 982.65 1385.3C982.112 1383.94 981.174 1382.77 979.958 1381.95C978.742 1381.13 977.306 1380.7 975.84 1380.71C975.165 1380.71 974.493 1380.8 973.84 1380.97C972.624 1381.29 971.512 1381.92 970.611 1382.79C969.71 1383.67 969.052 1384.76 968.7 1385.97C954.63 1432.04 920.7 1468.46 892.47 1492.23C890.75 1493.68 888.99 1495.07 887.19 1496.39C875.495 1505.04 862.149 1511.19 847.979 1514.47C833.808 1517.75 819.116 1518.09 804.81 1515.46L719.4 1499.77C528.94 1456.47 446 1321 472 1173.42C498 1025.84 440.5 846.419 440.5 846.419L487.72 648.76C489.48 640.62 490.994 632.576 492.26 624.63C528.43 398.8 374.73 248.24 374.73 248.24L521.85 187L580.85 162.41M580.85 153.41C579.663 153.409 578.487 153.644 577.39 154.1L518.39 178.69L371.27 239.93C369.897 240.501 368.687 241.403 367.748 242.556C366.81 243.709 366.171 245.076 365.89 246.536C365.608 247.996 365.693 249.503 366.136 250.923C366.58 252.342 367.368 253.629 368.43 254.67C368.81 255.04 406.53 292.45 439.36 356.46C469.51 415.25 501.63 509.25 483.36 623.24C482.12 631 480.63 638.93 478.93 646.799L431.75 844.359C431.367 845.959 431.429 847.633 431.93 849.2C432.07 849.64 446.3 894.4 457.19 956.43C467.19 1013.43 476.32 1097 463.14 1171.86C456.43 1209.92 456.75 1247.11 464.09 1282.42C471.408 1317.91 486.102 1351.48 507.22 1380.93C551.84 1443.29 624.54 1487.41 717.48 1508.51L717.84 1508.58L803.25 1524.27C818.767 1527.12 834.705 1526.76 850.076 1523.2C865.447 1519.64 879.924 1512.97 892.61 1503.59C894.51 1502.19 896.45 1500.67 898.34 1499.07C925.34 1476.33 960.34 1439.64 976.04 1392.73C985.6 1415.66 999.93 1447.12 1016.59 1474.16C1039.72 1511.7 1060.8 1530.32 1081.04 1531.08C1081.71 1531.08 1082.4 1531.08 1083.1 1531.08C1096.78 1531.08 1115.98 1526.27 1140.16 1516.77C1164.11 1507.17 1187.36 1495.89 1209.72 1483.01C1233.85 1469.26 1255.44 1454.83 1272.16 1441.29C1291.57 1425.57 1303.39 1411.82 1307.29 1400.42C1321.09 1360.11 1317.6 1335.56 1307.29 1262.7C1306.4 1256.46 1305.46 1249.83 1304.47 1242.82C1301.89 1224.47 1298.27 1203.13 1294.79 1182.82L1293.52 1175.38C1288.94 1148.71 1284.21 1121.13 1280.22 1093.25C1273.14 1043.88 1265.22 973.25 1277.72 930.44C1289.72 889.56 1307.48 823.049 1321.49 759C1339.21 678 1346.25 622.63 1342.42 594.32C1339.08 569.59 1339.15 540.48 1339.22 509.65C1339.33 463.14 1339.45 415.03 1328.16 373.1C1309.73 304.59 1299.21 282.19 1298.77 281.27C1297.98 279.624 1296.71 278.257 1295.13 277.35L1129.67 182.3C1128.31 181.51 1126.76 181.096 1125.19 181.1C1123.78 181.099 1122.39 181.431 1121.13 182.069C1119.86 182.707 1118.77 183.632 1117.94 184.77C1117.1 185.908 1116.54 187.227 1116.31 188.62C1116.08 190.014 1116.18 191.442 1116.6 192.79C1116.66 192.98 1122.6 212.4 1126.92 243.79C1132.55 285.594 1132.66 327.958 1127.23 369.79C1119.23 430.16 1101.05 501.9 1078.66 561.71C1050.57 636.71 1016 693.94 978.38 727.84C951.83 702.16 835.92 586.96 748.55 450.46C649.69 296 589.77 160.01 589.17 158.66C588.469 157.058 587.316 155.695 585.853 154.738C584.389 153.781 582.679 153.27 580.93 153.27L580.85 153.41Z" fill="#17091D"/>
<path id="Vector_34" d="M980.36 734.419C979.49 736.18 978.508 737.884 977.42 739.519C975.125 743.099 972.284 746.298 969 748.999C963.32 753.519 955.77 755.999 946.91 750.569C926.85 738.209 799 598.999 743.11 519.139C687.22 439.279 591 233.999 576.58 206.999C568.34 191.589 542.5 187.559 521.85 186.949L580.85 162.359C580.85 162.359 640.46 298.479 740.85 455.359C835 602.349 960.79 723.719 976.42 738.579C977.88 736.579 979.14 734.889 980.13 733.579L980.36 734.419Z" fill="#D969BD"/>
<path id="Vector_35" d="M975.5 1384.5C974.96 1383.35 974.43 1382.16 973.91 1380.92C950.44 1325.68 939.54 1187.43 941.42 1139.39C943.34 1090.28 940.5 832.499 941.42 806.999C941.98 791.379 957.26 766.209 969.02 748.999C971.75 744.999 974.3 741.449 976.42 738.539C977.88 736.539 979.14 734.849 980.13 733.539C981.63 731.539 982.5 730.449 982.5 730.449" stroke="#17091D" stroke-width="9" stroke-linecap="round" stroke-linejoin="round"/>
<path id="Vector_36" d="M773.69 1233.12C771.759 1233.12 769.835 1232.88 767.96 1232.42L571.27 1184.5C565.476 1183.11 560.406 1179.62 557.046 1174.7C553.686 1169.78 552.276 1163.78 553.09 1157.88L559.3 1111.61C560.089 1105.83 562.938 1100.54 567.322 1096.7C571.707 1092.86 577.331 1090.73 583.16 1090.71C585.128 1090.71 587.089 1090.95 589 1091.42L786.1 1140.42C791.912 1141.85 796.98 1145.4 800.31 1150.37C803.64 1155.34 804.992 1161.38 804.1 1167.3L797.48 1212.52C796.616 1218.22 793.745 1223.43 789.385 1227.21C785.024 1230.98 779.459 1233.08 773.69 1233.12Z" fill="#7E4282"/>
<path id="Vector_37" d="M583.16 1095.21C584.761 1095.21 586.357 1095.4 587.91 1095.79L785.01 1144.79C789.732 1145.96 793.85 1148.85 796.561 1152.89C799.273 1156.93 800.384 1161.84 799.68 1166.65L793.06 1211.88C792.664 1214.58 791.71 1217.16 790.259 1219.47C788.808 1221.77 786.892 1223.75 784.634 1225.27C782.376 1226.8 779.824 1227.84 777.143 1228.32C774.461 1228.8 771.708 1228.72 769.06 1228.08L572.38 1180.16C567.676 1179.01 563.563 1176.17 560.832 1172.17C558.101 1168.17 556.946 1163.31 557.59 1158.51L563.8 1112.23C564.431 1107.53 566.745 1103.22 570.312 1100.09C573.878 1096.97 578.457 1095.24 583.2 1095.23M583.2 1086.23C576.282 1086.25 569.606 1088.78 564.402 1093.33C559.197 1097.89 555.816 1104.18 554.88 1111.03L548.67 1157.3C547.717 1164.3 549.396 1171.41 553.382 1177.25C557.369 1183.09 563.379 1187.24 570.25 1188.9L766.93 1236.82C770.8 1237.76 774.824 1237.88 778.744 1237.18C782.664 1236.48 786.394 1234.96 789.695 1232.73C792.996 1230.51 795.796 1227.61 797.915 1224.24C800.034 1220.87 801.425 1217.09 802 1213.15L808.62 1167.93C809.674 1160.9 808.064 1153.73 804.105 1147.83C800.145 1141.93 794.123 1137.72 787.22 1136.03L590.12 1087.03C587.857 1086.46 585.533 1086.18 583.2 1086.18V1086.23Z" fill="#17091D"/>
<path id="Vector_38" d="M1285.88 1184.41C1256.83 1194.98 1207.88 1212.2 1186.26 1216.41C1154.5 1222.54 1143.43 1236.48 1138.46 1205.01C1136.32 1191.03 1135.2 1176.91 1135.11 1162.77C1135.07 1157.94 1136.57 1153.22 1139.4 1149.3C1142.22 1145.39 1146.23 1142.48 1150.83 1141C1180.59 1131.42 1245.5 1109.71 1271.27 1094.64C1275.66 1125.26 1281 1156 1285.88 1184.41Z" fill="#7E4282" stroke="#17091D" stroke-width="9" stroke-miterlimit="10"/>
<path id="Vector_39" d="M1018.5 838.849L1015.87 832.309C1014.84 829.624 1013.3 827.168 1011.32 825.083C1009.34 822.998 1006.97 821.325 1004.34 820.159C1001.83 819.082 999.103 818.573 996.369 818.668C993.634 818.764 990.955 819.46 988.52 820.709L981.66 824.189C979.135 825.478 976.9 827.267 975.09 829.449C973.209 831.724 971.764 834.328 970.83 837.129C968.888 842.914 969.062 849.201 971.32 854.869L973.96 861.409C974.987 864.094 976.534 866.55 978.512 868.635C980.491 870.72 982.863 872.394 985.49 873.559C988.006 874.637 990.728 875.145 993.463 875.048C996.198 874.952 998.877 874.252 1001.31 872.999L1008.17 869.529C1010.69 868.235 1012.92 866.446 1014.73 864.269C1016.62 861.997 1018.07 859.393 1019 856.589C1020.95 850.804 1020.77 844.515 1018.5 838.849ZM1012.67 859.189C1008.08 864.709 997.6 873.549 990.61 869.829C981.47 864.983 976.137 857.253 974.61 846.639C973.93 842.039 974.67 838.309 976.82 835.419C983.774 826.153 991.774 821.749 1000.82 822.209C1002.01 822.278 1003.15 822.688 1004.11 823.389C1010.78 828.169 1014.3 836.236 1014.67 847.589C1014.89 853.463 1014.22 857.329 1012.67 859.189Z" fill="#17091D"/>
<path id="Vector_40" d="M1004.12 823.389C1010.79 828.169 1014.31 836.236 1014.68 847.589C1014.89 853.456 1014.23 857.323 1012.68 859.189C1008.09 864.709 997.61 873.549 990.62 869.829C981.48 864.983 976.147 857.253 974.62 846.639C973.94 842.039 974.68 838.309 976.83 835.419C983.784 826.153 991.784 821.749 1000.83 822.209C1002.02 822.278 1003.16 822.688 1004.12 823.389Z" fill="#CE44A2"/>
<path id="Vector_41" d="M1019.64 1009.13C1018.22 1005.72 1016.12 1002.63 1013.48 1000.06C1010.83 997.478 1007.7 995.462 1004.25 994.13C1000.89 992.902 997.305 992.414 993.739 992.701C990.173 992.987 986.711 994.041 983.591 995.79C976.937 999.574 971.987 1005.77 969.761 1013.09C967.374 1020.58 967.768 1028.67 970.87 1035.89C972.286 1039.3 974.379 1042.39 977.022 1044.97C979.666 1047.55 982.805 1049.56 986.25 1050.89C989.612 1052.12 993.199 1052.61 996.767 1052.32C1000.34 1052.04 1003.8 1050.98 1006.92 1049.23C1013.57 1045.45 1018.52 1039.25 1020.74 1031.93C1023.13 1024.44 1022.74 1016.35 1019.64 1009.13ZM1014.71 1022.62C1014.71 1022.91 1014.71 1023.21 1014.71 1023.5C1014.71 1023.79 1014.71 1024.08 1014.66 1024.36C1014.58 1025.51 1014.41 1026.65 1014.16 1027.77C1014.16 1027.97 1014.07 1028.17 1014.02 1028.36C1013.97 1028.55 1013.94 1028.71 1013.89 1028.88C1013.84 1029.05 1013.74 1029.42 1013.65 1029.69C1013.56 1029.96 1013.47 1030.26 1013.37 1030.53C1013.27 1030.8 1013.17 1031.09 1013.06 1031.36C1012.95 1031.63 1012.84 1031.9 1012.72 1032.17C1011.91 1034.03 1010.85 1035.78 1009.57 1037.35C1009.36 1037.6 1009.15 1037.85 1008.93 1038.09C1008.71 1038.33 1008.47 1038.6 1008.23 1038.84L1007.49 1039.55L1006.73 1040.22C1006.47 1040.44 1006.21 1040.65 1005.94 1040.85L1005.22 1041.37C1005.15 1041.43 1005.07 1041.48 1004.99 1041.52C1004.75 1041.68 1004.51 1041.84 1004.27 1041.98C1004.03 1042.12 1003.69 1042.32 1003.4 1042.48L1002.62 1042.88C1002.25 1043.06 1001.88 1043.23 1001.5 1043.37C1001.12 1043.51 1000.96 1043.59 1000.68 1043.68C1000.4 1043.77 1000.04 1043.9 999.68 1044L999.031 1044.18C998.821 1044.18 998.601 1044.29 998.381 1044.33C998.161 1044.37 997.971 1044.42 997.761 1044.45L997.381 1044.52C997.021 1044.58 996.66 1044.62 996.3 1044.65C995.5 1044.73 994.695 1044.76 993.891 1044.73C993.022 1044.7 992.156 1044.6 991.3 1044.45C990.87 1044.37 990.451 1044.28 990.031 1044.17L989.441 1044.01C988.581 1043.76 987.741 1043.45 986.93 1043.07L986.42 1042.83C985.161 1042.2 983.974 1041.44 982.881 1040.56C982.651 1040.38 982.44 1040.2 982.22 1040.01L982.131 1039.93C981.641 1039.5 981.13 1039.04 980.72 1038.56C980.49 1038.31 980.26 1038.05 980.04 1037.79L979.41 1037.01C979.21 1036.74 979.011 1036.47 978.821 1036.19C978.631 1035.91 978.441 1035.62 978.261 1035.32L977.73 1034.44C977.57 1034.13 977.4 1033.83 977.25 1033.51C977.101 1033.19 976.95 1032.88 976.81 1032.51C976.67 1032.14 976.54 1031.88 976.42 1031.51C976.3 1031.14 976.151 1030.79 976.031 1030.42C975.911 1030.05 975.83 1029.78 975.74 1029.42C975.65 1029.06 975.55 1028.73 975.47 1028.42C975.39 1028.11 975.29 1027.59 975.22 1027.16C975.212 1027.11 975.212 1027.05 975.22 1027C975.022 1025.83 974.912 1024.65 974.891 1023.46C974.891 1023.07 974.891 1022.68 974.891 1022.29V1021.56L974.951 1020.83C974.951 1020.59 974.951 1020.35 975.031 1020.1C975.11 1019.37 975.23 1018.65 975.391 1017.94C975.391 1017.73 975.481 1017.52 975.531 1017.31C975.651 1016.84 975.78 1016.37 975.92 1015.91C976.18 1015.06 976.49 1014.24 976.85 1013.43C977.08 1012.9 977.33 1012.37 977.61 1011.86V1011.79C977.74 1011.55 977.871 1011.32 978.011 1011.09C978.151 1010.86 978.28 1010.62 978.43 1010.39V1010.33C978.57 1010.09 978.731 1009.86 978.891 1009.63C979.201 1009.17 979.541 1008.72 979.891 1008.29C980.091 1008.05 980.28 1007.82 980.49 1007.59C980.7 1007.36 980.841 1007.2 981.031 1007.01C981.153 1006.87 981.283 1006.73 981.42 1006.6C981.57 1006.45 981.721 1006.3 981.881 1006.16C982.41 1005.65 982.971 1005.18 983.56 1004.74C983.81 1004.55 984.071 1004.37 984.331 1004.19C984.591 1004.01 984.821 1003.86 985.071 1003.71L985.67 1003.35L985.841 1003.25C986.071 1003.12 986.31 1003 986.55 1002.88C986.79 1002.76 987.071 1002.62 987.331 1002.51C987.591 1002.4 987.84 1002.28 988.1 1002.18H988.191C988.435 1002.07 988.686 1001.98 988.941 1001.9L989.781 1001.63C990.411 1001.44 991.052 1001.29 991.701 1001.18L992.081 1001.11C992.441 1001.05 992.8 1001.01 993.17 1000.98C993.968 1000.9 994.77 1000.87 995.571 1000.9C996.876 1000.95 998.173 1001.14 999.441 1001.46L1000.06 1001.63C1000.91 1001.88 1001.73 1002.19 1002.53 1002.56L1002.99 1002.77C1004.58 1003.57 1006.06 1004.58 1007.39 1005.77L1007.94 1006.29C1008.22 1006.56 1008.5 1006.84 1008.76 1007.12C1009.02 1007.4 1009.21 1007.62 1009.43 1007.88C1009.65 1008.14 1009.84 1008.38 1010.03 1008.63L1010.12 1008.75C1010.31 1009 1010.49 1009.26 1010.67 1009.52C1010.85 1009.78 1011.05 1010.09 1011.23 1010.38C1011.41 1010.67 1011.58 1010.97 1011.76 1011.27C1011.92 1011.57 1012.09 1011.88 1012.24 1012.19C1012.39 1012.5 1012.54 1012.82 1012.68 1013.19C1012.82 1013.56 1012.93 1013.78 1013.05 1014.08C1013.17 1014.38 1013.34 1014.84 1013.46 1015.23C1013.58 1015.62 1013.66 1015.87 1013.75 1016.23C1013.84 1016.59 1013.94 1016.92 1014.02 1017.23C1014.1 1017.54 1014.19 1018.03 1014.26 1018.43C1014.27 1018.53 1014.27 1018.62 1014.26 1018.72C1014.4 1019.51 1014.49 1020.31 1014.54 1021.11C1014.55 1021.19 1014.55 1021.28 1014.54 1021.36C1014.54 1021.78 1014.54 1022.19 1014.54 1022.61L1014.71 1022.62Z" fill="#17091D"/>
<path id="Vector_42" d="M999.69 1044C1010.36 1040.88 1016.81 1028.87 1014.09 1017.17C1011.37 1005.47 1000.52 998.52 989.85 1001.64C979.18 1004.76 972.74 1016.77 975.45 1028.46C978.16 1040.15 989 1047.12 999.69 1044Z" fill="#CE44A2"/>
<path id="Vector_43" d="M1021.87 1194.49C1020.65 1191.16 1018.82 1188.08 1016.47 1185.43C1014.22 1182.88 1011.47 1180.81 1008.39 1179.37C1005.4 1177.97 1002.15 1177.24 998.851 1177.24C995.501 1177.28 992.197 1178.02 989.159 1179.44C986.121 1180.85 983.418 1182.89 981.231 1185.43C976.52 1190.94 973.932 1197.95 973.932 1205.19C973.932 1212.44 976.52 1219.45 981.231 1224.96C983.419 1227.5 986.122 1229.54 989.16 1230.95C992.198 1232.36 995.501 1233.11 998.851 1233.15C1002.15 1233.14 1005.4 1232.41 1008.39 1231.02C1011.47 1229.57 1014.22 1227.51 1016.47 1224.96C1018.82 1222.3 1020.65 1219.22 1021.87 1215.89C1024.4 1208.98 1024.4 1201.4 1021.87 1194.49ZM1019.04 1208.49C1019.04 1208.88 1018.94 1209.26 1018.88 1209.65C1018.73 1210.57 1018.53 1211.48 1018.27 1212.37C1018.18 1212.67 1018.09 1212.97 1017.99 1213.27C1017.97 1213.35 1017.94 1213.42 1017.91 1213.5C1017.81 1213.79 1017.71 1214.07 1017.59 1214.35C1017.41 1214.84 1017.2 1215.35 1016.97 1215.8C1016.82 1216.12 1016.66 1216.43 1016.5 1216.73C1016.34 1217.03 1016.24 1217.21 1016.1 1217.44C1015.79 1217.96 1015.46 1218.47 1015.1 1218.96C1014.97 1219.15 1014.84 1219.33 1014.7 1219.51C1014.39 1219.93 1014.06 1220.33 1013.7 1220.72L1013.38 1221.08L1012.79 1221.68C1012.55 1221.91 1012.31 1222.14 1012.06 1222.36C1011.31 1223.02 1010.51 1223.63 1009.67 1224.18C1009.39 1224.36 1009.11 1224.53 1008.82 1224.69C1008.53 1224.85 1008.25 1225.01 1007.96 1225.16L1007.19 1225.53C1006.44 1225.86 1005.67 1226.14 1004.88 1226.37C1004.68 1226.44 1004.48 1226.49 1004.27 1226.54C1003.42 1226.76 1002.55 1226.92 1001.68 1227.01L1001.02 1227.07C1000.59 1227.07 1000.15 1227.07 999.701 1227.07C999.251 1227.07 998.921 1227.07 998.531 1227.07C998.141 1227.07 997.801 1227.01 997.431 1226.97C997.061 1226.93 996.831 1226.89 996.531 1226.83L996.111 1226.75C995.841 1226.71 995.574 1226.65 995.311 1226.58L994.421 1226.34C994.101 1226.25 993.781 1226.14 993.421 1226.03C993.121 1225.92 992.811 1225.81 992.511 1225.68C992.211 1225.55 991.881 1225.42 991.571 1225.27C991.261 1225.12 991.021 1225.01 990.751 1224.86C990.481 1224.71 990.091 1224.51 989.751 1224.31C989.411 1224.11 989.161 1223.95 988.881 1223.76L988.181 1223.26C987.841 1223.02 987.521 1222.76 987.181 1222.5C986.841 1222.24 986.661 1222.06 986.411 1221.83C986.161 1221.6 985.891 1221.36 985.641 1221.11C985.391 1220.86 985.151 1220.61 984.911 1220.35C984.428 1219.83 983.974 1219.28 983.551 1218.71L982.961 1217.9L982.891 1217.79L982.351 1216.96C982.161 1216.66 981.981 1216.35 981.801 1216.03C981.621 1215.71 981.471 1215.42 981.311 1215.1C981.151 1214.78 980.981 1214.44 980.841 1214.1C980.571 1213.5 980.331 1212.89 980.111 1212.27C979.663 1210.99 979.329 1209.68 979.111 1208.34C979.111 1208.11 979.031 1207.88 979.001 1207.65C978.971 1207.42 978.921 1207.08 978.891 1206.79C978.861 1206.5 978.891 1206.26 978.821 1205.99C978.816 1205.96 978.816 1205.94 978.821 1205.91C978.776 1205.05 978.776 1204.18 978.821 1203.32C978.821 1203.02 978.821 1202.73 978.821 1202.44C978.821 1202.15 978.881 1201.72 978.921 1201.36C979.037 1200.35 979.22 1199.35 979.471 1198.36C979.482 1198.27 979.502 1198.18 979.531 1198.1C979.611 1197.81 979.691 1197.52 979.781 1197.23L979.841 1197.04C979.911 1196.82 979.981 1196.61 980.061 1196.39C980.141 1196.17 980.211 1195.96 980.291 1195.75C980.371 1195.54 980.431 1195.38 980.511 1195.2C980.651 1194.86 980.801 1194.52 980.961 1194.2C981.121 1193.88 981.271 1193.57 981.431 1193.27C981.591 1192.97 981.771 1192.66 981.951 1192.36C982.131 1192.06 982.311 1191.77 982.511 1191.48L983.101 1190.64L983.671 1189.91C983.681 1189.88 983.703 1189.85 983.731 1189.84C983.931 1189.6 984.121 1189.37 984.321 1189.15L984.591 1188.86C984.761 1188.68 984.931 1188.5 985.111 1188.33C985.291 1188.16 985.601 1187.86 985.851 1187.64L986.601 1186.99L987.321 1186.44C987.816 1186.08 988.33 1185.74 988.861 1185.44C989.021 1185.35 989.181 1185.25 989.351 1185.17C989.521 1185.09 989.891 1184.88 990.161 1184.74L990.771 1184.46C991.504 1184.13 992.259 1183.86 993.031 1183.64C993.231 1183.57 993.435 1183.52 993.641 1183.47C994.491 1183.25 995.357 1183.09 996.231 1183L996.891 1182.94C997.331 1182.94 997.771 1182.89 998.211 1182.89C998.651 1182.89 998.991 1182.89 999.381 1182.89C999.771 1182.89 1000.12 1182.95 1000.49 1182.99H1000.58L1001.35 1183.11L1001.77 1183.19C1002.04 1183.23 1002.31 1183.29 1002.58 1183.36C1002.88 1183.43 1003.17 1183.51 1003.46 1183.6C1003.75 1183.69 1004.11 1183.79 1004.46 1183.9C1005.1 1184.12 1005.73 1184.38 1006.34 1184.67L1007.25 1185.13C1007.56 1185.29 1007.86 1185.46 1008.15 1185.64C1008.61 1185.92 1009.06 1186.21 1009.5 1186.52L1010.04 1186.92C1010.54 1187.3 1011.04 1187.7 1011.49 1188.12C1011.75 1188.35 1012 1188.59 1012.25 1188.84C1012.5 1189.09 1012.75 1189.34 1012.98 1189.6C1013.21 1189.86 1013.43 1190.1 1013.64 1190.35C1013.7 1190.41 1013.76 1190.49 1013.81 1190.56C1014 1190.78 1014.17 1191.01 1014.35 1191.24C1014.53 1191.47 1014.68 1191.68 1014.84 1191.91L1015.14 1192.36C1015.15 1192.38 1015.15 1192.41 1015.14 1192.43C1015.28 1192.62 1015.4 1192.81 1015.52 1193.01C1015.64 1193.21 1015.88 1193.61 1016.06 1193.92C1016.23 1194.22 1016.39 1194.53 1016.55 1194.85C1017.06 1195.86 1017.49 1196.9 1017.85 1197.97C1017.95 1198.27 1018.05 1198.58 1018.14 1198.89C1018.23 1199.2 1018.3 1199.45 1018.37 1199.73C1018.52 1200.32 1018.65 1200.91 1018.75 1201.51C1018.85 1202.11 1018.92 1202.59 1018.98 1203.14C1018.98 1203.43 1019.04 1203.71 1019.06 1204C1019.14 1205.16 1019.14 1206.33 1019.06 1207.49C1019.1 1207.85 1019.07 1208.15 1019 1208.45L1019.04 1208.49Z" fill="#17091D"/>
<path id="Vector_44" d="M1008.15 1185.66C998.211 1179.66 986.031 1183.52 980.951 1194.18C975.871 1204.84 979.831 1218.32 989.771 1224.28C999.711 1230.24 1011.9 1226.42 1016.97 1215.76C1022.04 1205.1 1018.1 1191.62 1008.15 1185.66Z" fill="#CE44A2"/>
<path id="Vector_45" d="M887.26 1496.35C875.565 1505 862.219 1511.15 848.049 1514.43C833.878 1517.71 819.185 1518.05 804.88 1515.42L719.47 1499.73C528.94 1456.47 446 1321 472 1173.42C498 1025.84 440.5 846.42 440.5 846.42L487.72 648.76C489.48 640.62 490.993 632.577 492.26 624.63C503.95 689.29 533.59 855.2 539.32 907.72C546.5 973.47 537.32 1153.46 553.9 1221.97C570.48 1290.48 638.84 1377.62 734.67 1413.04C789 1433.17 847.14 1469.06 887.26 1496.35Z" fill="#9C398C"/>
</g>
<g id="glove 1">
<path id="Vector_46" d="M486 1632.18C474.17 1632.18 463.08 1628.76 454.17 1626C448.26 1624.18 443.17 1622.6 439.76 1622.6H439.41C438.824 1622.59 438.242 1622.71 437.7 1622.93C432.95 1625.32 422.7 1627.85 408.26 1627.85C399.012 1627.79 389.786 1626.92 380.69 1625.25H380.57C365.684 1622.48 351.094 1618.3 337 1612.77C331.18 1610.54 325.21 1608.03 319.26 1605.32L318.38 1604.9C305.1 1598.57 294.64 1586.9 287.31 1570.34C263.39 1516.12 279.11 1424.98 281.56 1411.82C279.61 1407.67 273.5 1394.51 267.91 1380.37C255.23 1348.27 256.01 1338.88 257.71 1334.6C258.098 1333.52 258.712 1332.53 259.512 1331.7C260.312 1330.88 261.28 1330.23 262.35 1329.81C267.35 1327.87 272.82 1325.69 278.59 1323.38C313.29 1309.5 360.82 1290.5 398.99 1290.5C410.68 1290.5 420.99 1292.29 429.67 1295.84C430.13 1296.03 430.6 1296.25 431.09 1296.5C432.305 1297.11 433.46 1297.84 434.54 1298.67C454.33 1313.5 471.68 1370.54 474.79 1381.19C482.2 1386.07 515.79 1408.47 529.06 1421.37C529.54 1421.84 530.01 1422.37 530.46 1422.8C531.59 1424 532.65 1425.26 533.65 1426.56C539.48 1434.19 542.23 1442.43 544.89 1450.41C547.13 1457.15 549.26 1463.51 553.09 1468.91C558.89 1477.06 564.95 1495.91 570.8 1514.14C575.12 1527.56 579.57 1541.43 583 1547.62L583.48 1548.45C585.534 1551.69 586.737 1555.4 586.98 1559.23C587.223 1563.06 586.498 1566.89 584.87 1570.36C580.79 1579.47 571.71 1586.09 560.57 1588.08C555.88 1588.92 549.8 1593.37 545.57 1596.64C541.98 1599.46 538.24 1602.64 534.28 1606.08C520.81 1617.64 505.54 1630.75 490.79 1631.98C489.28 1632.11 487.63 1632.18 486 1632.18Z" fill="#CE44A2"/>
<path id="Vector_47" d="M399 1295C409.57 1295 419.38 1296.49 428 1300C428.34 1300.14 428.7 1300.31 429.07 1300.5C430.055 1301 430.992 1301.59 431.87 1302.26C452.29 1317.57 471 1384 471 1384C471 1384 511.54 1410.47 526 1424.56C526.44 1424.99 526.87 1425.43 527.29 1425.87C528.29 1426.98 529.29 1428.11 530.16 1429.26C540.39 1442.65 540.62 1458.98 549.51 1471.48C559.24 1485.15 570.97 1535 579.15 1549.77C579.35 1550.14 579.55 1550.48 579.75 1550.77C587.94 1564.1 577.55 1580.44 559.86 1583.6C554.86 1584.49 549.15 1588.17 542.93 1593.05C526.93 1605.57 507.82 1626.05 490.55 1627.44C489.04 1627.57 487.55 1627.63 486.03 1627.63C466.91 1627.63 449.55 1618.05 439.79 1618.05H439.28C438.038 1618.06 436.813 1618.34 435.69 1618.87C431.93 1620.75 422.69 1623.3 408.29 1623.3C399.269 1623.24 390.271 1622.39 381.4 1620.75C366.809 1618.04 352.511 1613.94 338.7 1608.51C333.1 1606.36 327.273 1603.91 321.22 1601.16L320.43 1600.79C307.17 1594.46 297.89 1582.89 291.51 1568.45C266.51 1511.8 286.34 1411.15 286.34 1411.15C286.34 1411.15 251.5 1338.83 264 1334C299.4 1320.32 355.52 1295 399 1295ZM399 1286C360 1286 312 1305.2 276.92 1319.21C271.17 1321.52 265.73 1323.69 260.74 1325.62C259.096 1326.27 257.605 1327.26 256.365 1328.52C255.125 1329.78 254.163 1331.28 253.54 1332.94C251.27 1338.69 250.7 1349.01 263.75 1382.03C268.95 1395.2 274.47 1407.24 276.89 1412.44C273.697 1430.86 271.563 1449.45 270.5 1468.12C267.98 1512.34 272.26 1547.34 283.21 1572.12C290.99 1589.73 302.21 1602.12 316.48 1608.94L317.34 1609.34H317.41C323.41 1612.09 329.49 1614.63 335.41 1616.9C349.755 1622.53 364.602 1626.78 379.75 1629.6H379.93C389.268 1631.31 398.738 1632.19 408.23 1632.25C421.01 1632.25 432.62 1630.3 439.38 1627.01H439.73C442.44 1627.01 447.48 1628.56 452.81 1630.21C462.01 1633.05 473.46 1636.58 485.97 1636.58C487.75 1636.58 489.52 1636.51 491.24 1636.37C507.44 1635.01 523.24 1621.37 537.24 1609.37C541.17 1606 544.87 1602.82 548.38 1600.06C554.25 1595.46 558.62 1592.88 561.38 1592.39C573.97 1590.14 584.29 1582.55 588.98 1572.08C590.885 1567.94 591.732 1563.39 591.446 1558.84C591.16 1554.29 589.749 1549.88 587.34 1546.01V1545.95C587.23 1545.76 587.12 1545.59 587.03 1545.41C587.032 1545.38 587.032 1545.36 587.03 1545.33C583.82 1539.52 579.43 1525.86 575.18 1512.64C568.95 1493.23 563.06 1474.9 556.85 1466.18C553.41 1461.34 551.39 1455.28 549.25 1448.86C546.6 1440.93 543.6 1431.93 537.32 1423.71C536.23 1422.29 535.07 1420.92 533.87 1419.63L533.81 1419.57C533.26 1419 532.81 1418.5 532.3 1418.04C519.48 1405.54 488.3 1384.57 478.73 1378.22C477 1372.41 473 1359.56 467.52 1345.5C457.17 1318.96 447.3 1302.42 437.33 1294.95C436.033 1293.97 434.651 1293.1 433.2 1292.36C432.61 1292.06 432.04 1291.79 431.5 1291.57C422.26 1287.79 411.37 1285.88 399.1 1285.88L399 1286Z" fill="#17091D"/>
<path id="Vector_48" d="M559.81 1583.66C554.81 1584.55 549.1 1588.23 542.88 1593.11C526.88 1605.63 507.77 1626.11 490.5 1627.5C469.28 1629.27 449.62 1617.74 439.23 1618.12C437.988 1618.13 436.763 1618.41 435.64 1618.94C429.92 1621.81 411.52 1626.21 381.35 1620.82C366.759 1618.11 352.461 1614.01 338.65 1608.58C333.05 1606.43 327.223 1603.98 321.17 1601.23L320.38 1600.86C309.9 1595.74 300.26 1584.24 291.46 1568.52C266.46 1511.87 286.29 1411.22 286.29 1411.22C286.29 1411.22 251.5 1338.83 264 1334C308 1317 384 1282 428 1300C428.34 1300.14 428.7 1300.31 429.07 1300.5C430.041 1301.02 430.976 1301.61 431.87 1302.26C452.29 1317.57 471 1384 471 1384C471 1384 511.54 1410.47 526 1424.56C526.44 1424.99 526.87 1425.43 527.29 1425.87C528.29 1426.98 529.29 1428.11 530.16 1429.26C509.41 1418.26 447.81 1386.63 429.05 1389.97C403.72 1394.49 353.24 1405.16 330.05 1406.97C306.86 1408.78 317.86 1469.27 321.21 1505.37C323.44 1529.49 319.81 1561.81 333.08 1581.12C339.67 1590.72 350.43 1597.12 368.15 1597.69L373.61 1597.84C399.61 1598.35 417.81 1596.15 432.41 1594.7C445.64 1593.38 455.88 1592.7 466.16 1595.12C482.93 1599.12 511.24 1607.22 544.59 1584.12C555.59 1576.5 567.23 1565.45 579.14 1549.72C579.34 1550.09 579.54 1550.43 579.74 1550.72C587.89 1564.16 577.5 1580.5 559.81 1583.66Z" fill="#9C398C"/>
<path id="Vector_49" d="M502.45 1556.87C502.45 1556.87 496.91 1526.43 524.63 1496" stroke="#17091D" stroke-width="8.86" stroke-linecap="round" stroke-linejoin="round"/>
<path id="Vector_50" d="M510.77 1522.09C510.77 1522.09 557.91 1552.52 541.27 1598.17" stroke="#17091D" stroke-width="8.86" stroke-linecap="round" stroke-linejoin="round"/>
<path id="Vector_51" d="M430.5 1546C430.5 1546 426.61 1596.57 440.5 1620.5" stroke="#17091D" stroke-width="10.67" stroke-linecap="round" stroke-linejoin="round"/>
<path id="Vector_52" d="M372.16 1569C372.16 1569 369.34 1615.89 387.38 1626.68" stroke="#17091D" stroke-width="8.79" stroke-linecap="round" stroke-linejoin="round"/>
<path id="Vector_53" d="M333.1 1580.26C333.1 1580.26 330.27 1609.87 348.38 1616.68" stroke="#17091D" stroke-width="7" stroke-linecap="round" stroke-linejoin="round"/>
<path id="Vector_54" d="M461.5 1577C467.299 1577 472 1564.24 472 1548.5C472 1532.76 467.299 1520 461.5 1520C455.701 1520 451 1532.76 451 1548.5C451 1564.24 455.701 1577 461.5 1577Z" fill="#D969BD"/>
<path id="Vector_55" d="M397.5 1573C403.299 1573 408 1563.37 408 1551.5C408 1539.63 403.299 1530 397.5 1530C391.701 1530 387 1539.63 387 1551.5C387 1563.37 391.701 1573 397.5 1573Z" fill="#D969BD"/>
<path id="Vector_56" d="M350.5 1584C356.299 1584 361 1576.61 361 1567.5C361 1558.39 356.299 1551 350.5 1551C344.701 1551 340 1558.39 340 1567.5C340 1576.61 344.701 1584 350.5 1584Z" fill="#D969BD"/>
</g>
<g id="arm 1">
<path id="Vector_57" d="M242.21 1367.32C241.85 1366.32 206.44 1270.14 174.07 1182.94C150.07 1118.34 133.78 1074.94 125.61 1053.86C115.28 1027.21 111.97 1005.86 114.88 984.53C116.5 972.62 119.88 961.92 123.39 950.59C126.603 940.834 129.32 930.921 131.53 920.89C133.53 911.24 138.04 885.3 144.26 849.41C166.48 721.07 212.72 454.02 244.26 369.81C256.04 338.36 273.65 311.36 296.6 289.56C313.076 273.872 332.096 261.097 352.85 251.78C358.094 249.42 363.78 248.203 369.53 248.21C375.854 248.229 382.088 249.701 387.752 252.511C393.417 255.322 398.36 259.396 402.2 264.42C412.86 278.42 430.08 301.59 451.59 332.29C464.75 351.08 475.26 377.55 483.7 413.24C492.13 448.78 496.84 486.49 500.63 516.79C502.71 533.43 504.5 547.79 506.45 557.97C512.18 587.97 497.94 664.79 493.45 687.63C484.54 732.87 470.83 787.36 461.79 800.12C451.59 814.52 443.91 842.25 436.49 869.06C433.02 881.59 429.43 894.55 425.57 906.24C424.347 910.127 423.52 914.127 423.1 918.18C418.72 956.91 438.84 1020.68 439.04 1021.32L439.12 1021.56L492.54 1315.05L243.4 1370.61L242.21 1367.32Z" fill="#FBDAFA"/>
<path id="Vector_58" d="M369.56 252.21C375.271 252.213 380.905 253.536 386.02 256.075C391.136 258.615 395.595 262.302 399.05 266.85C410.47 281.85 427.39 304.69 448.34 334.59C462.71 355.09 472.64 383.74 479.84 414.16C492.84 469.16 497.04 529.92 502.55 558.72C511.1 603.45 474 776 458.55 797.81C443.1 819.62 434 868 421.79 905C420.479 909.146 419.594 913.414 419.15 917.74C414.62 957.74 435.25 1022.54 435.25 1022.54L487.94 1312L245.94 1366C245.94 1366 210.55 1269.82 177.8 1181.61C157.8 1127.61 138.68 1076.61 129.32 1052.47C118.03 1023.35 116.38 1002.99 118.82 985.13C121.7 963.98 130.31 946.32 135.43 921.77C144.9 876.43 208 478 248 371.21C274.09 301.6 323.35 269.41 354.49 255.43C359.206 253.309 364.319 252.212 369.49 252.21M369.49 244.21C363.175 244.204 356.93 245.54 351.17 248.13C330.005 257.636 310.606 270.664 293.8 286.66C270.41 308.88 252.47 336.38 240.47 368.4C208.77 452.97 162.47 720.28 140.24 848.74C134.03 884.59 129.55 910.49 127.55 920.08C125.36 929.982 122.673 939.768 119.5 949.4C115.9 960.89 112.5 971.75 110.84 983.99C107.84 1005.99 111.22 1027.99 121.84 1055.3C130.02 1076.4 146.32 1119.81 170.28 1184.3C202.65 1271.49 238.06 1367.71 238.41 1368.67L240.83 1375.24L247.66 1373.72L489.66 1319.72L497.17 1318.04L495.79 1310.48L443.12 1021.1L443.03 1020.59L442.87 1020.1C442.67 1019.47 422.82 956.5 427.1 918.63C427.479 914.848 428.247 911.115 429.39 907.49C433.28 895.71 436.88 882.71 440.39 870.13C447.73 843.65 455.31 816.26 465.11 802.43C474.54 789.12 488.11 735.57 497.43 688.43C501.96 665.43 516.3 587.93 510.43 557.24C508.51 547.19 506.72 532.88 504.65 516.32C500.85 485.92 496.12 448.09 487.65 412.32C479.09 376.14 468.38 349.21 454.92 330.01C433.37 299.24 416.12 276.01 405.45 262.01C401.234 256.497 395.808 252.026 389.591 248.941C383.373 245.857 376.53 244.241 369.59 244.22L369.49 244.21Z" fill="#17091D"/>
<path id="Vector_59" d="M458.55 797.81C443.1 819.62 434 868 421.79 905C420.479 909.145 419.594 913.414 419.15 917.74C404.43 903.37 382.78 872.22 373.08 867.3C333.85 842.6 265.77 726.76 344.08 812.5C403.19 881.42 382.92 850.79 400.72 782.5C407.62 706.5 465.3 522.36 479.86 414.22C492.86 469.22 497.06 529.98 502.57 558.78C511.1 603.45 474 776 458.55 797.81Z" fill="#F9B4F9"/>
<path id="Vector_60" d="M301.75 773.16C311.53 796.82 325.763 819.247 344.45 840.44C349.497 846.35 354.968 851.885 360.82 857L373.08 867.33C388.29 882.1 399.93 893.06 409.7 906.43C411.754 909.258 414.206 911.774 416.98 913.9C417.14 914.02 417.324 914.102 417.52 914.14C417.716 914.17 417.917 914.152 418.105 914.088C418.294 914.023 418.463 913.914 418.6 913.77C418.749 913.617 418.862 913.432 418.93 913.23L421.79 905.03C420.421 927.17 420.621 949.379 422.39 971.49L416.7 954.2C416.543 953.724 416.234 953.313 415.82 953.03L403 944.73C402.814 944.608 402.601 944.533 402.38 944.51C390.38 943.35 380.317 936.583 372.19 924.21C372.016 923.939 371.929 923.622 371.94 923.3C371.958 922.982 372.07 922.676 372.26 922.42C372.452 922.2 372.713 922.052 373 922C373.29 921.941 373.592 921.999 373.84 922.16C382.131 927.219 390.942 931.373 400.12 934.55C402.589 935.444 405.17 935.989 407.79 936.17C408.34 936.197 408.886 936.073 409.37 935.81C409.865 935.528 410.282 935.126 410.58 934.64C410.899 934.133 411.094 933.557 411.15 932.96C411.202 932.356 411.12 931.748 410.91 931.18L407.51 922.35C407.421 922.1 407.296 921.864 407.14 921.65C395.93 905.924 383.202 891.337 369.14 878.1C348.21 858.21 329.92 834.16 315.59 814.31C310.249 807.085 305.44 799.482 301.2 791.56C294.86 779.21 289.48 771.49 284.69 759.56C283.197 755.813 277.76 742.727 268.38 720.3C268.335 720.174 268.335 720.036 268.38 719.91C268.41 719.793 268.486 719.692 268.59 719.63C268.645 719.605 268.705 719.593 268.765 719.593C268.825 719.593 268.885 719.605 268.94 719.63C269.066 719.671 269.173 719.756 269.24 719.87L301.75 773.16Z" fill="#5C2C66"/>
<path id="Vector_61" d="M272.15 893C288.38 894.52 303.15 895.28 314.32 903C314.745 903.294 315.061 903.719 315.22 904.21C315.38 904.721 315.38 905.269 315.22 905.78C315.079 906.277 314.772 906.712 314.35 907.01C313.955 907.297 313.463 907.419 312.98 907.35C298.93 905.7 276.73 903.89 260.51 905.35C245.1 906.75 227.37 906.75 210.01 909.29C194.363 911.597 177.807 914.93 160.34 919.29C159.789 919.432 159.207 919.408 158.67 919.22C158.116 919.024 157.628 918.678 157.26 918.22C156.87 917.735 156.605 917.162 156.49 916.55C156.371 915.929 156.399 915.289 156.57 914.68V914.56C157.547 911.357 159.444 908.511 162.026 906.377C164.608 904.244 167.76 902.916 171.09 902.56C184.9 901 199 898 211 897C231.413 895.273 251.797 893.94 272.15 893Z" fill="#5C2C66"/>
<path id="Vector_62" d="M329.42 943C234.61 945.94 145 1002 189.75 1110C189.923 1110.42 190.06 1110.85 190.16 1111.29C192.87 1123.07 197.35 1131.47 206.68 1133.73C207.84 1134.06 208.921 1134.63 209.859 1135.38C210.797 1136.14 211.573 1137.08 212.14 1138.15C212.203 1138.25 212.273 1138.35 212.35 1138.45C213.126 1139.35 213.688 1140.41 213.997 1141.56C214.305 1142.7 214.35 1143.9 214.13 1145.07C214.01 1145.65 213.89 1146.24 213.8 1146.82C213.56 1148.13 213.016 1149.37 212.212 1150.44C211.409 1151.5 210.367 1152.37 209.17 1152.96C197.79 1158.85 193.59 1171.81 184.55 1179.59C183.635 1180.38 182.56 1180.96 181.398 1181.3C180.235 1181.63 179.015 1181.71 177.82 1181.52C157.82 1127.52 138.7 1076.52 129.34 1052.38C118.05 1023.26 116.4 1002.9 118.84 985.04C130.44 994.56 140.84 1003.04 142.84 1004.59C154.1 1014.43 176.16 1049.97 165.62 1011.73C165.52 1011.4 165.4 1011.06 165.27 1010.73C154.91 985.96 192.27 963.31 211.17 952.73C211.769 952.382 212.32 951.959 212.81 951.47C244.94 920.22 433.71 934.66 329.42 943Z" fill="#F9B4F9"/>
<path id="Vector_63" d="M359.77 296.72C359.77 296.72 502.38 572.11 456.5 809.5" stroke="#17091D" stroke-width="9" stroke-linecap="round" stroke-linejoin="round"/>
<path id="Vector_64" d="M249.69 1409.4C243.64 1409.4 239.36 1408.28 236.62 1405.98C222.87 1394.43 202.55 1366.41 200.17 1343.82C199.48 1337.23 198.84 1331.12 198.3 1325.82C197.674 1319.64 199.089 1313.43 202.329 1308.13C205.569 1302.83 210.455 1298.74 216.24 1296.48C260.5 1279.29 373.14 1238.89 462.92 1235.02C463.53 1235.02 464.15 1235.02 464.75 1235.02C472.798 1235.05 480.673 1237.36 487.464 1241.68C494.254 1246 499.683 1252.15 503.12 1259.43C518.54 1292.2 520.64 1312.54 509.36 1319.88C505.36 1322.46 501.92 1325.22 498.25 1328.14C484.06 1339.45 467.97 1352.26 412.56 1366.72C391.81 1372.14 369.35 1378.96 347.62 1385.55C307.21 1397.82 269 1409.4 249.69 1409.4Z" fill="#FBDAFA"/>
<path id="Vector_65" d="M464.75 1239C472.043 1239.01 479.183 1241.09 485.336 1245.01C491.49 1248.92 496.402 1254.51 499.5 1261.11C508.95 1281.2 518.98 1308.82 507.17 1316.5C488 1328.98 481.11 1344.68 411.55 1362.83C352.03 1378.36 278.55 1405.38 249.69 1405.38C244.83 1405.38 241.24 1404.62 239.19 1402.9C225 1390.98 206.3 1363.79 204.19 1343.38C203.5 1336.8 202.86 1330.69 202.32 1325.38C201.772 1320.07 202.981 1314.73 205.764 1310.18C208.546 1305.63 212.747 1302.11 217.72 1300.18C260.33 1283.63 373.49 1242.85 463.13 1238.98H464.79M464.79 1230.98C464.13 1230.98 463.45 1230.98 462.79 1230.98C372.4 1234.88 259.27 1275.45 214.79 1292.71C208.189 1295.29 202.613 1299.96 198.917 1306C195.22 1312.05 193.605 1319.14 194.32 1326.19C194.86 1331.45 195.5 1337.57 196.2 1344.19C197.61 1357.61 204.68 1371.34 210.36 1380.51C217.36 1391.89 226.05 1402.28 234.05 1408.99C237.59 1411.99 242.56 1413.35 249.69 1413.35C269.64 1413.35 306.31 1402.22 348.78 1389.35C370.47 1382.76 392.9 1375.96 413.57 1370.56C469.8 1355.89 486.96 1342.22 500.74 1331.24C504.34 1328.38 507.74 1325.68 511.54 1323.24C519.87 1317.82 522.42 1307.24 519.13 1291.82C517.13 1282.43 512.96 1270.96 506.74 1257.73C502.978 1249.77 497.035 1243.03 489.602 1238.31C482.169 1233.58 473.548 1231.06 464.74 1231.03L464.79 1230.98Z" fill="#17091D"/>
</g>
<g id="collar front">
<path id="Vector_66" d="M664 311.999C664 311.999 737.93 363.999 750.46 391.999C762.99 419.999 769.36 437.599 768 465.999C766.64 494.399 839 507.999 895 479.999C951 451.999 950.21 427.849 991.61 450.919C1033.01 473.989 994.48 491.829 1043 492.999C1091.52 494.169 1133.16 470.629 1110 436.999C1086.84 403.369 1091.43 344.929 1091.21 344.469C1090.99 344.009 1099.38 271.529 1099.38 271.529C1099.38 271.529 877.38 322.399 873.68 321.199C869.98 319.999 687.81 296.659 687.81 296.659L664 311.999Z" fill="#F9B4F9"/>
<path id="Vector_67" d="M907.28 411.729C839.36 411.729 760.76 393.519 716.13 367.449C687.25 350.589 657.73 324.449 633.01 293.959C606.92 261.729 587.58 226.709 577.07 192.659C562.57 145.659 568.33 135.589 579.77 121.779C584.34 116.259 589.52 110.009 593.43 98.3688C608.61 53.1488 661.43 33.1188 677.28 28.0588C679.595 27.2572 682.021 26.8187 684.47 26.7588C688.85 26.7588 691.24 28.6988 692.47 30.3188C694.89 33.5188 695.14 38.3188 693.24 45.0688C689.717 57.3807 681.702 67.9222 670.78 74.6088C665.47 77.8988 660.17 83.1988 655.05 90.3488C650.69 96.4388 649.91 102.799 652.59 110.349C656.54 121.539 667.39 133.259 677.88 144.589C678.98 145.769 680.07 146.959 681.15 148.129C700.27 168.909 809.28 242.129 852.61 254.639C897.5 267.639 936.18 273.899 970.87 273.899C979.62 273.899 988.24 273.489 996.49 272.679C997.02 272.629 997.49 272.579 997.99 272.509L999.49 272.309C1000.83 272.119 1002.2 271.879 1003.73 271.579C1046.52 262.909 1078.61 217.039 1081.12 195.949C1081.36 193.909 1081.6 191.882 1081.85 189.869C1087.71 141.509 1092.85 118.479 1106.01 118.479C1112.59 118.479 1119.01 124.689 1126.85 138.619C1133.07 149.679 1140.01 165.359 1148.06 186.539C1166.78 235.799 1146.71 300.889 1127.24 329.369C1107.32 358.509 1022.24 396.929 952.15 408.439C937.306 410.734 922.301 411.834 907.28 411.729Z" fill="#FBDAFA"/>
<path id="Vector_68" d="M684.47 30.7593C691.14 30.7593 691.42 36.7593 689.39 43.9793C686.123 55.3236 678.733 65.0363 668.67 71.2093C664.07 74.0593 658.19 79.0993 651.8 88.0193C646.25 95.7693 645.99 103.719 648.8 111.699C653.46 124.879 666.54 138.179 678.19 150.849C696.92 171.189 806.5 245.499 851.5 258.489C888.63 269.209 929.85 277.909 970.87 277.909C979.56 277.909 988.25 277.509 996.87 276.669C997.42 276.619 997.96 276.559 998.5 276.489L1000.09 276.269C1001.57 276.059 1003.04 275.799 1004.5 275.509C1049.64 266.369 1082.44 218.669 1085.08 196.429C1085.32 194.429 1085.56 192.409 1085.81 190.369C1090.2 154.099 1094.95 122.499 1106 122.489C1110.57 122.489 1116.21 127.889 1123.35 140.589C1129.24 151.059 1136.15 166.499 1144.35 187.969C1162.35 235.189 1143.53 298.499 1123.97 327.119C1104.41 355.739 1018.5 393.499 951.5 404.499C936.87 406.759 922.083 407.84 907.28 407.729C843.19 407.729 764.1 390.839 718.15 363.999C660.8 330.509 602.5 261.499 580.89 191.479C559.28 121.459 584.5 137.479 597.22 99.6393C609.94 61.7993 651.5 40.4993 678.5 31.8693C680.431 31.1946 682.455 30.8202 684.5 30.7593M684.5 22.7593C681.639 22.8153 678.805 23.318 676.1 24.2493C666 27.4593 646.36 34.8693 627.81 48.3193C608.69 62.1693 595.81 78.5793 589.64 97.0893C585.96 108.029 581.25 113.719 576.69 119.229C571.5 125.499 566.13 131.979 564.78 143.739C563.46 155.159 566.08 170.609 573.25 193.839C583.9 228.369 603.49 263.839 629.9 296.469C654.9 327.369 684.82 353.799 714.12 370.909C759.29 397.299 838.73 415.729 907.28 415.729C922.519 415.843 937.741 414.726 952.8 412.389C985.67 406.999 1024.29 395.089 1058.8 379.719C1079.7 370.409 1116.8 351.779 1130.58 331.639C1141.78 315.249 1151.32 290.729 1156.09 266.039C1160.17 244.959 1162.74 213.799 1151.84 185.129C1143.72 163.759 1136.69 147.909 1130.37 136.669C1121.75 121.329 1114.25 114.489 1106.05 114.489C1102.15 114.489 1096.53 116.139 1091.95 123.959C1089.59 127.959 1087.55 133.519 1085.7 140.879C1082.64 153.079 1080.38 169.109 1077.92 189.409C1077.67 191.409 1077.43 193.436 1077.19 195.489C1076.19 203.839 1068.77 219.939 1054.81 235.549C1039.59 252.549 1021.17 263.979 1002.96 267.669C1001.54 267.949 1000.24 268.179 999.02 268.349H998.92L997.52 268.549L996.2 268.689H996.14C988.02 269.479 979.53 269.889 970.91 269.889C936.61 269.889 898.29 263.639 853.76 250.779C834.76 245.289 800.33 227.029 759.36 200.679C725.31 178.769 692.97 155.009 684.14 145.409L680.86 141.859C670.64 130.859 660.08 119.419 656.4 109.009C654.16 102.699 654.76 97.6593 658.34 92.6593C664.34 84.2793 669.58 80.0593 672.92 77.9893C684.698 70.7791 693.339 59.4083 697.13 46.1293C699.39 38.1293 698.93 32.1293 695.7 27.8893C694.24 25.9593 690.85 22.7393 684.51 22.7393L684.5 22.7593Z" fill="#17091D"/>
<path id="Vector_69" d="M1123.36 140.589C1118.61 176.589 1102.78 216.869 1094 235.999C1082.49 261.079 984 327.999 937 334.589C890 341.179 883 306.999 831 283.159C779 259.319 668 158.999 651.8 138.619C645.86 131.139 646.11 121.239 648.8 111.699C653.46 124.879 666.54 138.179 678.19 150.849C696.92 171.189 806.5 245.499 851.5 258.489C896.5 271.479 947.5 281.489 996.88 276.669C997.43 276.619 997.97 276.559 998.51 276.489L1000.1 276.269C1001.58 276.059 1003.05 275.799 1004.51 275.509C1005.68 275.269 1006.83 274.999 1007.98 274.709C1008.71 274.529 1009.43 274.329 1010.15 274.129L1011.01 273.879C1052.31 261.649 1079.55 216.989 1085.09 196.429C1085.59 194.449 1085.84 192.412 1085.82 190.369C1092 139.099 1099 97.1692 1123.36 140.589Z" fill="#F9B4F9"/>
<path id="Vector_70" d="M825.79 469.939C820.933 469.977 816.09 469.416 811.37 468.269C797.09 464.669 788.67 456.489 786.37 443.959C784.44 433.589 786.82 421.959 789.11 410.619C790.61 403.239 792.03 396.259 792.03 390.499C792.03 379.419 793.38 351.809 797.03 324.859C803.03 279.939 810.7 271.029 815.92 268.239C817.556 267.404 819.374 266.989 821.21 267.029C833.51 267.029 860.75 283.769 902.21 316.769C910.67 323.519 916.97 328.769 919.29 330.769L919.75 331.149C920.227 331.544 920.618 332.033 920.898 332.585C921.179 333.137 921.343 333.741 921.38 334.359C921.54 337.019 925.32 399.749 922.31 419.969C922.095 421.753 921.683 423.507 921.08 425.199C918.86 430.919 909.79 437.889 902.59 442.719C883.77 455.249 852.43 469.939 825.79 469.939Z" fill="#CE44A2"/>
<path id="Vector_71" d="M821.16 271.529C835.89 271.529 875.99 301.699 899.33 320.289C908.12 327.289 914.54 332.679 916.33 334.169L916.83 334.589C916.83 334.589 920.77 399.279 917.83 419.269C917.651 420.715 917.316 422.137 916.83 423.509C915.46 427.039 909.18 432.799 900.02 438.939C881.43 451.419 851.02 465.439 825.81 465.439C821.324 465.481 816.85 464.967 812.49 463.909C774.49 454.309 796.49 414.499 796.49 390.499C796.49 366.499 802.49 280.499 817.98 272.209C818.965 271.726 820.053 271.493 821.15 271.529M821.15 262.529C818.569 262.487 816.019 263.088 813.73 264.279C806.73 268.029 798.73 278.089 792.51 324.279C788.85 351.439 787.51 379.329 787.51 390.519C787.51 395.829 786.14 402.589 784.68 409.749C782.3 421.459 779.84 433.569 781.93 444.749C784.61 459.159 794.15 468.529 810.28 472.609C815.36 473.844 820.572 474.449 825.8 474.409C853.45 474.409 885.8 459.309 905.03 446.409C916.29 438.859 923.08 432.249 925.21 426.769C925.94 424.759 926.44 422.672 926.7 420.549C929.77 399.909 925.97 336.719 925.8 334.039C925.724 332.805 925.394 331.6 924.831 330.499C924.269 329.398 923.485 328.424 922.53 327.639L922.15 327.309C919.78 325.309 913.44 320.019 904.95 313.249C893.82 304.389 877.35 291.679 862.02 281.449C836.89 264.679 827.02 262.529 821.18 262.529H821.15Z" fill="#17091D"/>
<path id="Vector_72" d="M1103.79 476.199C1098.96 476.199 1092.87 475.129 1085.17 472.939C1070.99 468.889 1035.52 457.499 1012.51 439.209C1003.62 432.209 997.72 424.849 994.97 417.499C993.924 414.744 993.317 411.843 993.17 408.899C992.61 396.149 993.08 385.429 993.49 375.969C993.93 365.969 994.28 358.069 993.23 351.569C991.35 340.029 980.84 330.569 980.74 330.489C980.239 330.042 979.844 329.489 979.584 328.87C979.323 328.251 979.205 327.582 979.236 326.911C979.268 326.24 979.449 325.585 979.766 324.993C980.084 324.401 980.529 323.887 981.07 323.489C981.16 323.429 983.41 321.789 987.26 319.139C993.63 314.769 1003.54 308.199 1014.55 301.699C1040.44 286.419 1060.09 278.699 1072.97 278.699C1074.37 278.694 1075.77 278.794 1077.15 278.999C1092.74 281.359 1105.7 289.259 1113.64 301.239C1121.78 313.519 1123.83 328.869 1119.55 345.619C1117.58 353.255 1115.11 360.748 1112.13 368.049C1107.13 380.799 1104.82 386.619 1112.51 416.049L1113.24 418.809C1120.24 445.609 1124.49 461.809 1117.71 470.589C1114.8 474.289 1110.12 476.199 1103.79 476.199Z" fill="#CE44A2"/>
<path id="Vector_73" d="M1073 283.159C1074.17 283.153 1075.35 283.237 1076.51 283.409C1103.51 287.499 1123.91 310.409 1115.22 344.469C1106.53 378.529 1096.85 373.759 1108.22 417.129C1117.44 452.399 1123.02 471.699 1103.85 471.699C1099.44 471.699 1093.74 470.699 1086.47 468.609C1061.84 461.609 1033.3 449.939 1015.37 435.689C1007.62 429.539 1001.85 422.889 999.24 415.919C998.364 413.606 997.855 411.17 997.73 408.699C996.56 382.499 999.89 364.199 997.73 350.849C995.57 337.499 983.78 327.119 983.78 327.119C983.78 327.119 986.03 325.479 989.87 322.839C995.87 318.729 1005.7 312.169 1016.87 305.559C1035.73 294.429 1058.43 283.159 1073 283.159ZM1073 274.159C1059.3 274.159 1038.88 282.159 1012.3 297.809C1001.17 304.379 991.17 311.009 984.75 315.419C980.84 318.099 978.54 319.779 978.45 319.849C977.366 320.643 976.472 321.67 975.837 322.854C975.201 324.039 974.839 325.351 974.776 326.694C974.714 328.036 974.953 329.376 975.476 330.614C976 331.853 976.794 332.958 977.8 333.849C980.39 336.169 987.48 344.049 988.8 352.269C989.8 358.269 989.44 366.009 989.01 375.749C988.59 385.299 988.11 396.129 988.69 409.079C988.856 412.483 989.551 415.84 990.75 419.029C993.81 427.189 1000.19 435.149 1009.75 442.719C1033.38 461.509 1069.53 473.119 1083.97 477.239C1092.07 479.559 1098.56 480.679 1103.82 480.679C1111.62 480.679 1117.5 478.179 1121.3 473.249C1129.44 462.719 1124.99 445.739 1117.62 417.609L1116.9 414.829C1109.58 386.829 1111.56 381.829 1116.34 369.629C1119.4 362.162 1121.94 354.494 1123.94 346.679C1128.54 328.679 1126.29 312.059 1117.42 298.679C1108.9 285.819 1094.48 276.999 1077.86 274.479C1076.25 274.242 1074.63 274.125 1073 274.129V274.159Z" fill="#17091D"/>
<path id="Vector_74" d="M1024.5 427.5C1023.37 429.99 1019.97 432.84 1015.31 435.69C1007.56 429.54 1001.79 422.89 999.18 415.92C993.68 419.51 985.45 420.5 974.5 420.5C955.36 420.5 927.88 425.8 917.78 419.27C917.601 420.715 917.266 422.137 916.78 423.51C915.41 427.04 909.13 432.8 899.97 438.94C890.47 414.5 881.34 405.37 885.91 377.43C889.73 354.06 889.45 335.36 899.3 320.29C908.09 327.29 914.51 332.68 916.3 334.17C920.261 329.365 925.737 326.047 931.83 324.76C936.802 323.738 941.848 323.109 946.92 322.88C966.64 321.88 981.33 319.67 989.8 322.88C995.8 318.77 1005.63 312.21 1016.8 305.6C1016.93 321.6 1017.91 342.78 1021.69 356.66C1028.5 381.5 1029.5 416.5 1024.5 427.5Z" fill="#9C398C"/>
<path id="Vector_75" d="M851.5 342.499L925.02 371.859L871.5 400.499" stroke="#17091D" stroke-width="9" stroke-linecap="round" stroke-linejoin="round"/>
<path id="Vector_76" d="M1031.47 344.47L975.5 362.5L1026.91 387.17" stroke="#17091D" stroke-width="9" stroke-linecap="round" stroke-linejoin="round"/>
<path id="Vector_77" d="M935.48 426.999C925.94 426.999 919.54 425.729 915.34 422.999C913.109 421.626 911.362 419.591 910.34 417.179C907.52 410.419 905.88 388.529 905.45 352.109C905.37 344.686 907.86 337.463 912.499 331.667C917.138 325.871 923.639 321.858 930.9 320.309C936.106 319.226 941.389 318.557 946.7 318.309C951.42 318.069 955.79 317.759 960.01 317.469C966.59 317.009 972.28 316.619 977.31 316.619C983.4 316.619 987.86 317.229 991.38 318.539C993.579 319.295 995.586 320.524 997.258 322.139C998.931 323.755 1000.23 325.718 1001.06 327.889C1006 340.639 1012 374.289 1012 395.499C1012 407.389 1008.71 415.079 1001.64 419.689C995.86 423.459 988 424.999 974.5 424.999C968.78 424.999 962.06 425.499 955.56 425.999C948.78 426.499 941.76 426.999 935.48 426.999Z" fill="#CE44A2"/>
<path id="Vector_78" d="M977.32 321.199C982.32 321.199 986.55 321.619 989.81 322.839C991.418 323.367 992.888 324.248 994.112 325.417C995.335 326.587 996.281 328.016 996.88 329.599C1001.5 341.499 1007.5 374.499 1007.5 395.499C1007.5 406.039 1004.73 412.299 999.18 415.919C993.63 419.539 985.45 420.499 974.5 420.499C962.66 420.499 947.62 422.499 935.5 422.499C928.03 422.499 921.65 421.729 917.8 419.239C916.343 418.353 915.196 417.035 914.52 415.469C911.15 407.369 910.23 373.349 909.98 352.079C909.909 345.695 912.049 339.483 916.037 334.498C920.026 329.512 925.616 326.061 931.86 324.729C936.833 323.707 941.879 323.078 946.95 322.849C959.07 322.239 969.3 321.169 977.34 321.169M977.34 312.169C972.15 312.169 966.34 312.569 959.73 313.029C955.52 313.319 951.18 313.629 946.5 313.859C940.953 314.143 935.436 314.858 930 315.999C921.726 317.766 914.317 322.342 909.031 328.949C903.746 335.556 900.908 343.788 901 352.249C901.66 408.009 905 415.999 906.23 419.009C907.604 422.269 909.955 425.022 912.96 426.889C917.96 430.129 924.96 431.579 935.52 431.579C941.97 431.579 949.07 431.049 955.94 430.579C962.65 430.079 968.99 429.579 974.54 429.579C985.1 429.579 996 428.849 1004.14 423.579C1012.48 418.129 1016.54 408.989 1016.54 395.579C1016.54 373.289 1010.4 339.519 1005.31 326.419C1004.27 323.636 1002.62 321.116 1000.5 319.041C998.367 316.965 995.808 315.383 993 314.409C988.92 312.879 984.09 312.199 977.37 312.199L977.34 312.169Z" fill="#17091D"/>
<path id="Vector_79" d="M936.77 469.009L933.43 428.109" stroke="#17091D" stroke-width="9" stroke-miterlimit="10"/>
</g>
</g>
</svg>
