<svg width="1800" height="1650" viewBox="0 0 1800 1650" fill="none" xmlns="http://www.w3.org/2000/svg">
<g id="Body 02">
<g id="Body_&#208;&#156;&#208;&#190;&#208;&#189;&#209;&#130;&#208;&#176;&#208;&#182;&#208;&#189;&#208;&#176;&#209;&#143; &#208;&#190;&#208;&#177;&#208;&#187;&#208;&#176;&#209;&#129;&#209;&#130;&#209;&#140; 1-02 12">
<g id="body 2">
<g id="glove 1">
<path id="Vector" d="M426 1632.18C414.17 1632.18 403.08 1628.76 394.17 1626.01C388.25 1624.18 383.17 1622.61 379.76 1622.61C379.046 1622.57 378.333 1622.69 377.67 1622.96C372.95 1625.33 362.74 1627.86 348.25 1627.86C330.25 1627.86 300.15 1623.95 259.31 1605.32C230.07 1591.98 214.95 1554.84 214.37 1494.92C213.94 1451.25 221.81 1410.75 221.89 1410.35C222.093 1409.33 222.643 1408.41 223.448 1407.75C224.252 1407.09 225.259 1406.73 226.3 1406.73C226.463 1406.72 226.626 1406.72 226.79 1406.73C226.95 1406.73 243.74 1408.55 269.48 1408.55C285.54 1408.55 301.67 1407.86 317.4 1406.55C368.04 1402.19 408.4 1380.34 408.82 1380.12C409.534 1379.73 410.341 1379.54 411.154 1379.57C411.968 1379.61 412.757 1379.86 413.44 1380.3C415.11 1381.39 454.51 1407.17 469.11 1421.4C469.59 1421.87 470.05 1422.4 470.51 1422.82C478.59 1431.41 481.81 1441.07 484.93 1450.42C487.18 1457.17 489.3 1463.54 493.14 1468.94C498.94 1477.09 505 1495.94 510.85 1514.17C515.16 1527.59 519.62 1541.46 523.05 1547.65L523.53 1548.48C525.583 1551.72 526.787 1555.43 527.03 1559.26C527.273 1563.09 526.547 1566.92 524.92 1570.39C520.84 1579.5 511.75 1586.12 500.62 1588.11C493.94 1589.3 484 1597.84 474.38 1606.11C460.91 1617.68 445.64 1630.79 430.89 1632.02C429.28 1632.11 427.63 1632.18 426 1632.18Z" fill="#CE44A2"/>
<path id="Vector_2" d="M411 1384C411 1384 451.54 1410.47 466 1424.56C466.44 1424.99 466.87 1425.43 467.29 1425.87C480.41 1439.81 479.85 1457.87 489.51 1471.48C499.17 1485.09 510.97 1535 519.15 1549.77C519.35 1550.14 519.55 1550.48 519.75 1550.77C527.94 1564.1 517.55 1580.44 499.86 1583.6C482.17 1586.76 454.55 1625.44 430.55 1627.44C429.04 1627.57 427.55 1627.62 426.03 1627.62C406.91 1627.62 389.54 1618.05 379.79 1618.05C378.377 1618 376.972 1618.29 375.69 1618.88C371.93 1620.77 362.69 1623.31 348.28 1623.31C328.67 1623.31 299.43 1618.61 261.21 1601.17C194.86 1570.91 226.33 1411.17 226.33 1411.17C226.33 1411.17 243.18 1413.01 269.51 1413.01C283.35 1413.01 299.81 1412.5 317.82 1410.95C370.08 1406.45 411.01 1383.95 411.01 1383.95M411.01 1374.95C409.499 1374.95 408.014 1375.33 406.69 1376.06C406.18 1376.34 366.59 1397.69 317.05 1401.96C301.44 1403.3 285.44 1403.96 269.51 1403.96C244.06 1403.96 227.51 1402.19 227.3 1402.18C226.968 1402.14 226.634 1402.12 226.3 1402.12C224.219 1402.12 222.205 1402.85 220.599 1404.17C218.993 1405.49 217.894 1407.33 217.49 1409.37C212.351 1437.57 209.804 1466.18 209.88 1494.85C210.14 1521.17 213.28 1543.59 219.22 1561.49C227.09 1585.23 239.96 1601.32 257.46 1609.3C299.03 1628.3 329.79 1632.25 348.26 1632.25C361.05 1632.25 372.65 1630.25 379.41 1627H379.77C382.48 1627 387.52 1628.56 392.85 1630.2C402.05 1633.04 413.5 1636.57 426.01 1636.57C427.79 1636.57 429.56 1636.5 431.28 1636.36C447.48 1635.01 463.33 1621.36 477.28 1609.36C486.01 1601.86 495.91 1593.36 501.38 1592.36C513.98 1590.11 524.3 1582.52 528.99 1572.05C530.895 1567.91 531.742 1563.36 531.456 1558.81C531.169 1554.26 529.759 1549.85 527.35 1545.98V1545.92C527.24 1545.74 527.13 1545.56 527.04 1545.38V1545.3C523.83 1539.49 519.44 1525.83 515.19 1512.61C508.96 1493.2 503.07 1474.87 496.86 1466.15C493.41 1461.3 491.39 1455.24 489.25 1448.82C486.13 1439.47 482.6 1428.82 473.86 1419.59C473.32 1419.02 472.86 1418.52 472.35 1418.05C457.44 1403.51 417.68 1377.49 415.99 1376.39C414.498 1375.45 412.763 1374.96 411 1375L411.01 1374.95Z" fill="#17091D"/>
<path id="Vector_3" d="M499.81 1583.66C482.12 1586.81 454.5 1625.5 430.5 1627.5C406.5 1629.5 384.5 1614.5 375.64 1618.94C366.78 1623.38 327.5 1631.5 261.16 1601.23C194.82 1570.96 226.28 1411.23 226.28 1411.23C226.28 1411.23 265.5 1415.51 317.77 1411.01C370.04 1406.51 411 1384 411 1384C411 1384 451.54 1410.47 466 1424.56C466.44 1424.99 466.87 1425.43 467.29 1425.87C459.55 1422.37 421.56 1405.87 398.88 1409.95C373.55 1414.47 312.93 1431.85 289.74 1433.66C266.549 1435.47 257.86 1469.27 261.209 1505.37C264.559 1541.47 254.75 1595.92 308.15 1597.69C361.549 1599.46 383.76 1589.77 406.15 1595.12C428.54 1600.47 471.26 1613.02 519.15 1549.77C519.35 1550.14 519.549 1550.48 519.75 1550.77C527.89 1564.16 517.5 1580.5 499.81 1583.66Z" fill="#9C398C"/>
<path id="Vector_4" d="M442.45 1556.87C442.45 1556.87 436.91 1526.43 464.63 1496" stroke="#17091D" stroke-width="8.86" stroke-linecap="round" stroke-linejoin="round"/>
<path id="Vector_5" d="M450.77 1522.09C450.77 1522.09 497.91 1552.52 481.27 1598.17" stroke="#17091D" stroke-width="8.86" stroke-linecap="round" stroke-linejoin="round"/>
<path id="Vector_6" d="M370.499 1546C370.499 1546 366.609 1596.57 380.499 1620.5" stroke="#17091D" stroke-width="10.67" stroke-linecap="round" stroke-linejoin="round"/>
<path id="Vector_7" d="M312.16 1569C312.16 1569 309.34 1615.89 327.38 1626.68" stroke="#17091D" stroke-width="8.79" stroke-linecap="round" stroke-linejoin="round"/>
<path id="Vector_8" d="M273.1 1580.26C273.1 1580.26 270.27 1609.87 288.38 1616.68" stroke="#17091D" stroke-width="7" stroke-linecap="round" stroke-linejoin="round"/>
</g>
<path id="Vector_9" d="M1486.65 1552.85C1484.83 1552.85 1483 1552.78 1481.19 1552.63C1461.05 1550.96 1441.52 1540.17 1423.19 1520.56C1420.52 1517.7 1417.87 1514.65 1415.3 1511.56C1415.14 1511.36 1415 1511.15 1414.88 1510.93C1414.05 1509.47 1394.71 1474.58 1389.62 1415.68C1389.29 1414.44 1388.21 1410.35 1386.8 1404.59C1383.8 1392.27 1378.53 1368.78 1376.52 1349.67C1375.27 1337.78 1378.42 1320.72 1385.88 1298.97C1389.7 1287.83 1394.08 1276.9 1399.02 1266.21C1399.48 1265.23 1400.27 1264.46 1401.26 1264.02L1460.84 1237.57C1461.34 1237.35 1461.87 1237.22 1462.41 1237.19L1549.56 1232.36H1549.81C1550.26 1232.36 1550.71 1232.42 1551.14 1232.56L1605.69 1249.45C1606.42 1249.68 1607.08 1250.1 1607.61 1250.66C1608.13 1251.22 1608.5 1251.91 1608.69 1252.65C1608.88 1253.43 1627.96 1330.11 1633.69 1353.93C1633.99 1355.2 1634.33 1356.55 1634.69 1357.99C1641.11 1383.86 1654.49 1437.7 1594.02 1494.86L1593.82 1495.03C1592.82 1495.83 1570.38 1514.65 1551.08 1526.12C1547.26 1528.45 1543.28 1530.51 1539.18 1532.29C1537.76 1532.89 1536.45 1533.38 1535.18 1533.77C1531 1537.55 1512.74 1552.85 1486.65 1552.85Z" fill="#CE44A2"/>
<path id="Vector_10" d="M1549.77 1236.8L1604.32 1253.69C1604.32 1253.69 1623.52 1330.85 1629.26 1354.92C1635 1378.99 1652.73 1433.07 1590.87 1491.54C1590.87 1491.54 1567.93 1510.79 1548.72 1522.21C1545.08 1524.42 1541.29 1526.39 1537.38 1528.1C1535.9 1528.74 1534.39 1529.28 1532.84 1529.72C1532.84 1529.72 1514.3 1548.36 1486.65 1548.36C1484.98 1548.36 1483.29 1548.29 1481.56 1548.15C1465.35 1546.81 1446.41 1538.82 1426.43 1517.49C1423.89 1514.77 1421.33 1511.84 1418.75 1508.67C1418.75 1508.67 1399.04 1473.67 1394.02 1414.85C1394.02 1414.85 1392.83 1410.42 1391.13 1403.47C1387.91 1390.17 1382.89 1367.63 1380.95 1349.15C1379.54 1335.72 1384.51 1316.65 1390.09 1300.38C1393.88 1289.4 1398.22 1278.62 1403.09 1268.08L1462.67 1241.63L1549.82 1236.8M1549.82 1227.8H1549.32L1462.17 1232.63C1461.08 1232.69 1460.01 1232.95 1459.02 1233.39L1399.44 1259.84C1397.48 1260.71 1395.89 1262.26 1394.97 1264.2C1389.97 1275.05 1385.52 1286.14 1381.64 1297.44C1373.97 1319.8 1370.74 1337.51 1372.06 1350.06C1373.99 1368.46 1378.77 1390.39 1382.45 1405.55C1383.76 1410.94 1384.77 1414.8 1385.18 1416.37C1390.42 1476 1410.13 1511.56 1410.97 1513.05C1411.22 1513.5 1411.51 1513.92 1411.83 1514.31C1414.46 1517.55 1417.18 1520.67 1419.91 1523.59C1439.08 1544.06 1459.58 1555.32 1480.91 1557.08C1482.84 1557.24 1484.8 1557.32 1486.74 1557.32C1513.01 1557.32 1531.85 1542.69 1537.54 1537.67C1538.62 1537.29 1539.76 1536.86 1540.97 1536.35C1545.25 1534.49 1549.4 1532.34 1553.39 1529.91C1573.01 1518.25 1595.78 1499.2 1596.74 1498.39L1597.13 1498.04C1623.9 1472.74 1639.64 1444.95 1643.91 1415.44C1647.49 1390.7 1642.43 1370.31 1639.08 1356.82C1638.72 1355.4 1638.39 1354.06 1638.08 1352.82C1632.4 1328.98 1613.31 1252.27 1613.08 1251.5C1612.71 1250 1611.95 1248.62 1610.89 1247.5C1609.83 1246.37 1608.5 1245.54 1607.02 1245.08L1552.47 1228.19C1551.61 1227.93 1550.71 1227.79 1549.81 1227.79L1549.82 1227.8Z" fill="#17091D"/>
<path id="Vector_11" d="M1590.87 1491.54C1590.87 1491.54 1567.93 1510.79 1548.72 1522.21C1545.07 1524.42 1541.29 1526.39 1537.38 1528.1C1530.76 1528.52 1525.99 1527.81 1523.38 1526.92C1514.74 1524 1500.81 1541.45 1481.58 1548.15C1465.37 1546.81 1446.43 1538.82 1426.45 1517.49C1454.91 1524.82 1474.22 1512.24 1486.7 1504.91C1506.88 1493.08 1531.35 1499.75 1582.7 1485C1634.05 1470.25 1608.37 1405.79 1600.9 1360.73C1593.43 1315.67 1574.9 1276.26 1551.9 1279.5C1528.9 1282.74 1464.75 1275.69 1438.79 1276.11C1423.04 1276.37 1403.25 1289.83 1390.12 1300.38C1393.91 1289.4 1398.25 1278.62 1403.12 1268.08L1462.7 1241.63L1549.85 1236.8L1604.4 1253.69C1604.4 1253.69 1623.6 1330.85 1629.34 1354.92C1635.08 1378.99 1652.73 1433.07 1590.87 1491.54Z" fill="#9C398C"/>
<path id="Vector_12" d="M1548.72 1522.21C1542.82 1525.71 1537.27 1528.48 1532.84 1529.72C1532.84 1529.72 1479.51 1583.35 1418.75 1508.72C1418.75 1508.72 1399.04 1473.72 1394.02 1414.9C1394.02 1414.9 1392.83 1410.47 1391.13 1403.52C1392.12 1403.57 1393.1 1403.79 1394.02 1404.18C1407.5 1409.55 1400.22 1430.18 1431.36 1444.89C1462.5 1459.6 1478.11 1463.07 1478.3 1450.31C1478.49 1437.55 1471.37 1333.15 1485.43 1341.85C1499.49 1350.55 1503.95 1419.64 1539.72 1424.09C1575.49 1428.54 1590.5 1407.55 1593.5 1422.55C1595.63 1433.13 1566.09 1490 1548.72 1522.21Z" fill="#9C398C"/>
<path id="Vector_13" d="M1429 1513.32C1433 1512.58 1436.94 1511.71 1440.71 1510.62C1444.34 1509.62 1447.87 1508.28 1451.26 1506.62C1452.72 1505.87 1454.13 1505.01 1455.46 1504.05C1456.52 1503.26 1457.46 1502.31 1458.25 1501.24C1460.17 1498.22 1461.71 1494.97 1462.82 1491.57C1464.13 1487.87 1465.2 1483.94 1466.17 1479.97C1467.14 1476 1467.95 1471.97 1468.63 1467.82C1469.31 1463.67 1469.9 1459.59 1470.34 1455.45C1470.6 1453.38 1470.7 1451.3 1470.86 1449.22L1471.33 1442.97C1471.82 1434.73 1471.65 1426.47 1470.82 1418.26C1470.59 1416.26 1470.3 1414.26 1469.92 1412.34L1469.27 1409.17C1469.01 1407.99 1468.85 1406.81 1468.67 1405.64C1468.05 1401 1467.9 1396.31 1468.2 1391.64C1468.81 1382.67 1470.4 1373.8 1472.92 1365.17C1474.15 1360.91 1475.54 1356.72 1477.08 1352.59C1478.63 1348.43 1480.27 1344.43 1482.24 1340.33C1482.61 1339.49 1483.3 1338.84 1484.16 1338.5C1485.01 1338.17 1485.96 1338.18 1486.8 1338.54C1487.65 1338.9 1488.31 1339.58 1488.67 1340.42C1489.02 1341.27 1489.02 1342.22 1488.68 1343.07V1343.17C1487.98 1345.04 1487.28 1347.08 1486.68 1349.07C1486.08 1351.06 1485.41 1353.07 1484.84 1355.12C1483.67 1359.12 1482.68 1363.25 1481.84 1367.35C1480.01 1375.44 1479.05 1383.71 1479 1392C1479.01 1395.96 1479.38 1399.92 1480.1 1403.81C1480.29 1404.75 1480.47 1405.7 1480.73 1406.61L1481.56 1409.74C1482.13 1412.01 1482.56 1414.27 1482.98 1416.52C1484.4 1425.4 1485.07 1434.38 1484.98 1443.37L1484.78 1450.03C1484.7 1452.24 1484.68 1454.47 1484.5 1456.69C1484.23 1461.13 1483.81 1465.55 1483.26 1469.98C1482.25 1479 1480.42 1487.92 1477.8 1496.61C1477.09 1498.85 1476.3 1501.09 1475.32 1503.38L1474.58 1505.09C1474.31 1505.67 1474 1506.25 1473.71 1506.83C1473.11 1508.05 1472.44 1509.23 1471.71 1510.37C1471.34 1510.97 1470.82 1511.6 1470.38 1512.21L1469.67 1513.12L1468.9 1513.95C1467.9 1515.02 1466.84 1516.02 1465.71 1516.95C1463.62 1518.61 1461.39 1520.08 1459.05 1521.35C1454.75 1523.6 1450.25 1525.44 1445.6 1526.83C1441.2 1528.19 1436.72 1529.31 1432.2 1530.17C1431.08 1530.42 1429.93 1530.45 1428.8 1530.25C1427.67 1530.05 1426.6 1529.62 1425.64 1529C1424.68 1528.37 1423.86 1527.56 1423.22 1526.62C1422.57 1525.67 1422.13 1524.6 1421.91 1523.48C1421.69 1522.36 1421.69 1521.2 1421.93 1520.08C1422.16 1518.96 1422.62 1517.9 1423.27 1516.95C1423.92 1516.01 1424.75 1515.21 1425.72 1514.6C1426.68 1513.98 1427.76 1513.57 1428.89 1513.38H1428.97L1429 1513.32Z" fill="#17091D"/>
<path id="Vector_14" d="M1531.84 1529.23C1533.4 1523.74 1535.95 1519.23 1538.39 1514.66C1539.62 1512.37 1540.96 1510.19 1542.39 1508.05L1543.46 1506.47L1544.46 1504.85C1545.15 1503.78 1545.88 1502.73 1546.59 1501.67C1552.38 1493.25 1557.68 1484.49 1562.74 1475.58C1567.8 1466.67 1572.49 1457.51 1576.9 1448.2C1579.13 1443.55 1581.19 1438.83 1583.27 1434.09C1585.35 1429.35 1587.27 1424.48 1589.06 1419.78L1589.12 1419.62C1589.42 1418.82 1590 1418.15 1590.75 1417.75C1591.51 1417.34 1592.38 1417.23 1593.22 1417.43C1594.05 1417.62 1594.78 1418.12 1595.28 1418.82C1595.77 1419.51 1595.99 1420.37 1595.9 1421.22C1595.29 1426.63 1594.35 1431.99 1593.1 1437.29C1591.85 1442.53 1590.4 1447.72 1588.74 1452.86C1585.42 1463.14 1581.36 1473.17 1576.58 1482.86C1571.84 1492.59 1566.42 1501.97 1560.38 1510.95L1558.11 1514.32L1557 1516L1555.74 1517.59C1554.02 1519.69 1552.24 1521.74 1550.34 1523.69C1548.45 1525.68 1546.4 1527.5 1544.21 1529.16C1542.02 1530.91 1539.67 1532.46 1537.21 1533.79C1536.32 1534.25 1535.29 1534.34 1534.33 1534.04C1533.38 1533.74 1532.58 1533.08 1532.12 1532.19C1531.67 1531.34 1531.57 1530.35 1531.84 1529.42V1529.23Z" fill="#17091D"/>
<path id="Vector_15" d="M892.32 1502.53C892.32 1502.53 1013.97 1499.59 1032.23 1491.53C1050.49 1483.47 986.76 1326 986.76 1326L886.34 1341.8L892.32 1502.53Z" fill="#7E4282" stroke="#17091D" stroke-width="9" stroke-miterlimit="10"/>
<path id="Vector_16" d="M697 35.0004C697 35.0004 763.59 9.17041 857.8 10.0904C952.01 11.0104 1007.88 20.5704 1023.32 24.3704C1115 47.0004 1155 102 1102 143C1026.5 201.4 719 79.0004 709 67.0004C699 55.0004 697 35.0004 697 35.0004Z" fill="#FBDAFA" stroke="#17091D" stroke-width="8" stroke-miterlimit="10"/>
<path id="Vector_17" d="M716 1561.31C673.77 1561.31 628.88 1560.03 586.17 1557.61C565.48 1556.44 546.77 1555.05 530.56 1553.48C521.16 1552.56 517.43 1537.72 512.26 1517.19C508.41 1501.9 504.05 1484.58 497.39 1475.7C481.28 1454.2 485 1358.62 485.5 1347C484.88 1324.38 478.5 1284.6 471.7 1242.48C460.19 1170.95 447.14 1089.87 455.75 1055.48C455.85 1055.09 455.96 1054.69 456.07 1054.29L456.17 1053.93C471.34 999.931 447.65 919.091 437.53 884.561C436.53 881.071 435.61 878.001 434.88 875.411C430.66 860.686 425.225 846.336 418.63 832.511C412.08 819.021 407.51 813.511 405.4 811.691C405.34 811.781 405.18 812.061 405.15 812.111L405.03 812.341C404.93 812.531 404.86 812.661 404.79 812.811L404.73 812.931C404.67 813.061 404.62 813.141 404.59 813.221L404.5 813.421C404.44 813.541 404.39 813.681 404.33 813.811C404.04 814.521 403.8 815.131 403.6 815.731C403.51 815.991 403.44 816.181 403.38 816.381C403.368 816.426 403.351 816.469 403.33 816.511C403.27 816.721 403.21 816.911 403.14 817.121C402.98 817.631 402.85 818.121 402.71 818.541C402.47 819.391 402.23 820.291 402 821.211C401.93 821.501 401.88 821.691 401.84 821.891L401.76 822.211C401.69 822.451 401.64 822.701 401.58 822.951L401.37 823.891C401.32 824.131 401.25 824.431 401.19 824.751C401.04 825.421 400.92 826.031 400.79 826.631C400.61 827.561 400.43 828.501 400.26 829.441C400.03 830.701 399.83 831.901 399.63 833.101C399.43 834.301 399.29 835.231 399.14 836.251C399.06 836.791 399 837.251 398.93 837.721C398.05 843.861 397.56 848.831 397.44 850.141C397.457 850.451 397.42 850.763 397.33 851.061L396.94 853.781L396.76 854.951C396.46 857.131 396.02 860.201 395.5 863.771C395.5 863.771 394.92 867.861 394.79 868.771C394.73 869.231 394.67 869.681 394.6 870.131L394.54 870.481C394.54 870.761 394.46 871.121 394.4 871.481L392.13 887.481C392.13 887.481 391.97 888.741 391.95 888.801C391.95 889.041 391.88 889.281 391.85 889.521C391.85 889.521 391.27 893.651 391.26 893.681C391.21 894.021 391.17 894.361 391.12 894.681C391.12 894.681 390.33 900.301 390.12 901.581C390.12 901.581 389.66 904.971 389.61 905.261L389.04 909.561L388.94 910.371L388.83 911.241C388.78 911.621 388.74 911.941 388.72 912.181C388.72 912.241 388.72 912.531 388.72 912.541C388.72 912.961 389.02 914.541 389.24 915.671C390.35 921.381 392.65 933.271 382.98 936.621C381.901 937.008 380.889 937.562 379.98 938.261L379.89 938.321L379.6 938.551L379.44 938.671C379.339 938.745 379.242 938.825 379.15 938.911L378.81 939.221C377.58 940.426 376.733 941.968 376.377 943.653C376.022 945.338 376.172 947.091 376.81 948.691C377.22 949.751 377.67 950.981 378.16 952.371C378.22 952.541 378.3 952.771 378.38 953.021L378.48 953.331C378.62 953.721 378.75 954.131 378.9 954.561L379.09 955.141C379.34 955.911 379.61 956.741 379.87 957.601L379.97 957.921C380.03 958.141 380.1 958.361 380.17 958.591C380.52 959.761 380.91 961.101 381.32 962.511V962.641C381.46 963.131 381.6 963.641 381.74 964.141L381.87 964.621C382.05 965.281 382.24 965.981 382.42 966.691L382.6 967.381L382.99 968.891C383.84 972.251 384.68 975.891 385.5 979.611L385.6 980.101C385.79 980.981 385.99 981.891 386.18 982.801C390.83 1005.17 390.73 1018 390.65 1028.31C390.65 1032.01 390.65 1035.2 390.81 1038.31C391.03 1041.62 392.52 1045.95 394.57 1051.94C396.51 1057.62 398.94 1064.68 401.25 1073.77C401.25 1073.77 401.25 1073.87 401.25 1073.92C405.086 1089.43 407.496 1105.26 408.45 1121.21C410.23 1147.58 429.68 1228.78 445.31 1294.02L446.31 1298.31C447.86 1304.83 451.85 1310.85 455.54 1315.89C456.9 1317.75 458.33 1319.61 459.72 1321.41C465.29 1328.66 470.56 1335.51 472.31 1343.09C477.92 1367.21 469.98 1384.51 460.24 1390.37C458.074 1391.73 455.593 1392.5 453.04 1392.61C338.28 1395.7 275.44 1429.61 237.9 1449.95L233.69 1452.22C230.43 1453.98 227.82 1455.37 225.47 1456.57C214.426 1461.95 202.322 1464.79 190.04 1464.89C171.89 1464.89 159.69 1457.71 156.56 1445.2C152.26 1427.98 155.56 1415.35 157.94 1406.12C159.33 1400.79 160.43 1396.58 159.12 1394.51C142 1367 68.05 1019.14 64.91 1004.34L64.83 1004.06C64.83 1003.95 64.76 1003.84 64.74 1003.73C64.72 1003.62 64.66 1003.49 64.64 1003.4C64.62 1003.31 64.53 1003.04 64.47 1002.84L64.06 1001.36C64 1001.17 63.95 1000.98 63.9 1000.79L63.82 1000.52C63.5 999.391 63.14 998.051 62.73 996.521V996.341C62.62 995.921 62.5 995.491 62.39 995.051C61.68 992.291 60.94 989.271 60.2 986.101L59.72 984.001L59.26 981.901L59 981.001C58.81 980.101 58.61 979.181 58.42 978.251C58.23 977.321 58.09 976.621 57.92 975.781C57.65 974.421 57.39 973.021 57.12 971.591C57.04 971.171 56.96 970.711 56.88 970.251L56.72 969.361C56.55 968.451 56.4 967.561 56.26 966.661C55.82 964.061 55.48 961.871 55.19 959.781C55.08 958.971 54.97 958.161 54.87 957.351C54.79 956.781 54.71 956.181 54.64 955.571L54.48 954.231L54.17 951.341C54.11 950.831 54.06 950.341 54.02 949.801V949.461L53.93 948.461C53.83 947.381 53.75 946.311 53.67 945.241V944.551L53.58 943.161C53.58 942.621 53.52 942.011 53.49 941.391C52.82 927.781 54.06 916.711 57.16 908.501C60.6287 899.273 63.0245 889.676 64.3 879.901C65.3984 872.071 65.7066 864.152 65.22 856.261C65.1099 854.644 65.2141 853.02 65.53 851.431L135.12 503.681C136.53 495.801 137.86 488.051 139.12 480.561C142.89 458.561 146.45 437.841 151.12 419.661C174.81 328.001 201.4 308.001 224.85 290.311C227.06 288.651 229.15 287.081 231.23 285.461C251.15 269.861 457.23 190.461 626.59 126.461L636.4 122.751C658.7 114.291 791.21 108.391 896.2 108.391C948.13 108.391 993.03 109.761 1026.05 112.391C1079.05 116.551 1090.35 122.711 1094.25 127.611C1113.32 151.611 1124.25 153.881 1133.04 155.741C1134.04 155.961 1135.04 156.171 1136.04 156.391C1144.43 158.391 1224.87 190.881 1259.04 204.751H1259.14C1259.47 204.883 1259.8 204.996 1260.14 205.091C1330.2 223.721 1366.08 246.321 1369.94 248.831C1370.36 249.101 1370.74 249.381 1371.13 249.671C1389.83 264.031 1405.39 294.401 1417.39 339.931C1423.29 362.619 1427.71 385.668 1430.61 408.931C1430.61 409.011 1430.61 409.161 1430.67 409.301L1431 411.301C1441.53 473.641 1494.12 785.391 1495.75 800.371C1497.47 816.121 1501.82 837.211 1505.27 846.441C1506.53 849.769 1507.97 853.027 1509.58 856.201C1512.26 861.489 1514.58 866.951 1516.52 872.551C1518.23 877.432 1519.22 882.535 1519.46 887.701C1519.63 890.879 1519.5 894.065 1519.09 897.221C1518.95 898.29 1519.01 899.376 1519.28 900.421V900.581C1519.28 900.741 1519.37 900.901 1519.41 901.061C1531.84 941.061 1594.06 1141.22 1596.9 1151.66C1599.9 1162.79 1615.53 1211.46 1617.97 1218.66C1619.12 1221.68 1620.5 1224.6 1622.1 1227.4C1624.4 1231.49 1626.4 1235.73 1628.1 1240.1C1629.59 1244.1 1628.66 1248.83 1625.49 1253.39C1620.72 1260.24 1612.57 1264.66 1604.71 1264.66C1599.98 1264.65 1595.4 1263.04 1591.71 1260.08C1589.3 1258.19 1574.71 1254.61 1536.89 1254.61C1502.31 1254.61 1466.32 1257.78 1445.2 1262.67C1432.74 1265.55 1428.06 1268.39 1426.37 1269.82C1410.55 1283.25 1387.37 1292.53 1374.92 1296.82C1373.01 1297.49 1371 1297.82 1368.98 1297.82C1366.39 1297.84 1363.84 1297.28 1361.49 1296.18C1359.15 1295.09 1357.08 1293.49 1355.43 1291.5C1350.51 1285.5 1350.58 1279.13 1350.62 1274.5C1350.71 1273.12 1350.64 1271.73 1350.39 1270.36C1343.56 1264.27 1338.7 1253.81 1334.63 1236.46L1334.5 1235.94C1334.14 1234.08 1333.15 1232.39 1331.69 1231.18C1330.23 1229.96 1328.4 1229.28 1326.5 1229.26H1326.04C1324.77 1229.25 1323.51 1229.49 1322.33 1229.98C1321.16 1230.46 1320.09 1231.17 1319.19 1232.07C1318.39 1232.95 1317.78 1233.98 1317.41 1235.1C1317.03 1236.23 1316.9 1237.42 1317.01 1238.6C1319.46 1283.6 1322.94 1343.92 1325.62 1375.71C1327.06 1392.71 1330.62 1408.3 1333.71 1422.01C1340.77 1453.01 1346.86 1479.87 1324.56 1506.01C1301.56 1533.01 1198.56 1542.84 1134.88 1542.84C1093.6 1542.84 1060.96 1539.21 1045.34 1532.84C1016.34 1521.08 995.2 1474.73 982.61 1437.91C982.023 1436.17 980.91 1434.66 979.425 1433.58C977.94 1432.5 976.157 1431.91 974.321 1431.88C972.485 1431.86 970.688 1432.41 969.177 1433.45C967.667 1434.5 966.518 1435.99 965.89 1437.71C951.89 1476.32 926.76 1526.37 886.89 1545.52C858.37 1559.26 767.58 1561.31 716 1561.31Z" fill="#CE44A2"/>
<path id="Vector_18" d="M896.2 112.931C992.34 112.931 1080.54 117.621 1090.73 130.411C1112.96 158.331 1125.5 158.501 1134.94 160.771C1143.94 162.941 1247.54 204.951 1257.43 208.961C1257.94 209.17 1258.46 209.344 1259 209.481C1328 227.831 1363 249.691 1367.48 252.641C1367.8 252.851 1368.1 253.061 1368.4 253.291C1411.25 286.201 1425.34 402.531 1426.14 409.471C1426.14 409.691 1426.2 409.911 1426.24 410.131C1428.39 422.871 1489.53 784.791 1491.24 800.861C1493.02 817.231 1497.46 838.501 1501.01 848.011C1504.56 857.521 1507.46 860.501 1512.24 874.011C1513.8 878.481 1514.7 883.152 1514.93 887.881C1515.08 890.785 1514.97 893.697 1514.59 896.581C1514.37 898.214 1514.47 899.873 1514.87 901.471C1514.93 901.751 1515.01 902.031 1515.09 902.301C1523.86 930.511 1589.67 1142.22 1592.55 1152.8C1595.63 1164.13 1611.46 1213.46 1613.7 1220.03C1615.94 1226.6 1620.46 1232.46 1623.85 1241.59C1626.45 1248.59 1616 1260.08 1604.68 1260.08C1600.96 1260.08 1597.35 1258.8 1594.46 1256.46C1589.02 1252.19 1565.2 1250.03 1536.86 1250.03C1505.14 1250.03 1467.77 1252.73 1444.15 1258.21C1434.51 1260.44 1427.15 1263.14 1423.43 1266.31C1407.91 1279.49 1384.57 1288.64 1373.43 1292.53C1372 1293.03 1370.49 1293.29 1368.97 1293.29C1367.05 1293.3 1365.15 1292.89 1363.4 1292.08C1361.66 1291.27 1360.12 1290.09 1358.89 1288.61C1352.06 1280.31 1357.44 1270.54 1353.45 1266.99C1348.45 1262.53 1343.45 1254.46 1339 1235.35C1339 1235.16 1338.91 1234.97 1338.86 1234.77C1338.26 1231.97 1336.74 1229.45 1334.54 1227.62C1332.34 1225.79 1329.59 1224.76 1326.73 1224.68H1326.07C1319.07 1224.68 1312.07 1229.77 1312.55 1238.78C1315 1283.84 1318.46 1343.94 1321.17 1376.02C1325.86 1431.57 1351.48 1467.48 1321.17 1503.02C1301.23 1526.43 1208.92 1538.27 1134.91 1538.27C1096.45 1538.27 1062.91 1535.07 1047.06 1528.64C1019.42 1517.45 998.94 1471.64 986.9 1436.42C986.012 1433.8 984.332 1431.52 982.092 1429.89C979.851 1428.27 977.162 1427.38 974.394 1427.35C971.626 1427.32 968.917 1428.15 966.642 1429.72C964.366 1431.3 962.635 1433.54 961.69 1436.14C948.35 1472.85 923.85 1522.76 884.98 1541.43C862.13 1552.43 792.92 1556.76 715.98 1556.76C672.98 1556.76 627.52 1555.4 586.41 1553.07C566.07 1551.92 547.26 1550.53 530.97 1548.95C518.97 1547.78 515.97 1492.95 500.97 1472.95C485.27 1452.01 489.97 1346.95 489.97 1346.95C488.39 1286.37 446.6 1110.34 460.09 1056.44C460.21 1055.95 460.35 1055.44 460.48 1054.98C477.48 994.501 447.48 903.451 439.18 874.061C430.88 844.671 414.47 809.451 405.74 806.621C405.497 806.542 405.244 806.501 404.99 806.501C404.867 806.491 404.743 806.491 404.62 806.501L404.26 806.581L403.91 806.721L403.64 806.871C403.364 807.025 403.112 807.217 402.89 807.441L402.56 807.781L402.23 808.161L401.99 808.481C401.76 808.811 401.53 809.171 401.3 809.571C401.2 809.731 401.11 809.911 401.02 810.081C400.93 810.251 400.78 810.531 400.67 810.771C400.56 811.011 400.49 811.131 400.41 811.321C400.33 811.511 400.22 811.751 400.13 811.971C399.85 812.641 399.57 813.361 399.31 814.121C399.22 814.371 399.13 814.631 399.05 814.891C398.97 815.151 398.88 815.411 398.8 815.681C398.65 816.161 398.5 816.681 398.36 817.141C398.1 818.051 397.84 819.001 397.6 819.981C397.52 820.281 397.45 820.591 397.38 820.891C397.31 821.191 397.23 821.501 397.16 821.811C397.09 822.121 397.03 822.401 396.96 822.701L396.75 823.701C396.61 824.331 396.48 824.971 396.35 825.611C396.16 826.611 395.97 827.541 395.8 828.511C395.57 829.761 395.36 831.001 395.16 832.231C394.96 833.461 394.81 834.411 394.66 835.471C394.58 835.981 394.51 836.471 394.44 836.981C393.44 843.591 392.99 848.891 392.91 849.761C392.908 849.801 392.908 849.841 392.91 849.881C392.916 849.954 392.916 850.027 392.91 850.101C392.915 850.124 392.915 850.148 392.91 850.171C392.91 850.301 392.91 850.471 392.84 850.671C392.77 850.871 392.79 851.061 392.75 851.291C392.71 851.521 392.7 851.611 392.68 851.791C392.68 852.151 392.57 852.551 392.51 853.001C392.45 853.451 392.41 853.671 392.35 854.001C392.03 856.271 391.59 859.341 391.08 862.901L390.99 863.521C390.79 864.911 390.59 866.361 390.37 867.871C390.31 868.301 390.25 868.741 390.18 869.181L390.12 869.581C390.12 869.891 390.04 870.201 389.99 870.511L387.71 886.581C387.66 886.981 387.6 887.371 387.55 887.771C387.5 888.171 387.46 888.361 387.42 888.661L387.24 889.931C387.24 890.231 387.15 890.541 387.11 890.841C387.07 891.141 387 891.651 386.94 892.051L386.85 892.711C386.79 893.091 386.74 893.471 386.69 893.851C386.35 896.291 386.02 898.611 385.69 900.721L385.54 901.821C385.49 902.191 385.44 902.541 385.39 902.891C385.32 903.401 385.26 903.891 385.19 904.371C384.98 905.951 384.79 907.371 384.64 908.501C384.64 908.641 384.64 908.771 384.64 908.901C384.59 909.251 384.55 909.581 384.51 909.901C384.51 910.031 384.51 910.161 384.46 910.291C384.4 910.791 384.35 911.201 384.32 911.501C384.32 911.601 384.32 911.691 384.32 911.761C384.316 911.831 384.316 911.901 384.32 911.971C384.05 915.571 389.59 929.371 381.6 932.141C380.066 932.677 378.625 933.45 377.33 934.431L376.8 934.841C376.6 934.991 376.41 935.151 376.22 935.321C376.03 935.491 375.86 935.641 375.69 935.811C373.849 937.635 372.583 939.959 372.05 942.496C371.517 945.032 371.739 947.669 372.69 950.081C373.09 951.081 373.52 952.291 373.99 953.631C374.1 953.931 374.2 954.251 374.31 954.571C374.48 955.061 374.65 955.571 374.83 956.121C375.09 956.921 375.37 957.771 375.64 958.671C375.73 958.971 375.83 959.271 375.92 959.591C376.29 960.821 376.68 962.151 377.08 963.591V963.691C377.26 964.311 377.43 964.951 377.61 965.611C377.79 966.271 377.97 966.941 378.15 967.611C378.33 968.281 378.52 969.021 378.7 969.751C379.5 972.921 380.33 976.441 381.18 980.351C381.4 981.351 381.63 982.421 381.85 983.491C388.11 1013.6 385.58 1026.38 386.4 1038.39C386.9 1045.79 392.18 1055.85 396.97 1074.65C400.751 1089.98 403.105 1105.63 404 1121.4C405.84 1148.73 425.9 1232.04 442 1299.25C443.66 1306.19 447.62 1312.49 452 1318.44C458.57 1327.44 466.07 1335.59 468 1344C473.28 1366.72 465.84 1381.68 458 1386.4C456.501 1387.36 454.777 1387.91 453 1388C332.68 1391.24 268.23 1428.46 231.63 1448.15C228.743 1449.71 226.026 1451.15 223.48 1452.46C213.078 1457.52 201.677 1460.19 190.11 1460.28C176.27 1460.28 163.95 1455.79 161 1444C154 1416 168.51 1400.75 163 1392C146 1365 69.3097 1003.41 69.3097 1003.41L69.2197 1003.04V1002.95L69.1397 1002.69C69.1397 1002.58 69.0997 1002.45 69.0197 1002.3C69.0197 1002.22 69.0197 1002.13 68.9397 1002.03L68.8497 1001.73L68.4097 1000.15C68.3297 999.891 68.2597 999.621 68.1797 999.341C67.8697 998.241 67.5097 996.921 67.1097 995.401C66.9897 994.951 66.8597 994.471 66.7397 993.991C66.0797 991.441 65.3397 988.451 64.5597 985.111C64.4197 984.471 64.2697 983.821 64.1197 983.111C64.1197 983.111 64.1197 983.061 64.1197 983.031C63.9697 982.341 63.8097 981.631 63.6497 980.911C63.3997 979.741 63.1397 978.551 62.8897 977.331C62.7197 976.531 62.5597 975.711 62.3997 974.891C62.1297 973.541 61.8697 972.161 61.6097 970.751C61.4697 970.021 61.3397 969.271 61.1997 968.521C61.0597 967.771 60.8997 966.801 60.7597 965.931C60.3897 963.711 60.0297 961.441 59.7097 959.141C59.5997 958.351 59.4897 957.561 59.3897 956.771C59.3097 956.181 59.2397 955.601 59.1697 955.021C59.0997 954.441 59.0597 954.091 58.9997 953.631L58.8497 952.241L58.6997 950.851C58.6997 950.371 58.5997 949.851 58.5597 949.411C58.5197 948.971 58.4697 948.521 58.4397 948.071C58.3397 947.001 58.2597 945.941 58.1797 944.871C58.1797 944.221 58.0897 943.571 58.0597 942.871C58.0297 942.171 57.9897 941.681 57.9597 941.091C57.3997 929.541 58.1597 918.461 61.3497 910.011C64.9397 900.46 67.4194 890.528 68.7397 880.411C69.8997 872.275 70.2347 864.043 69.7397 855.841C69.6564 854.636 69.7337 853.425 69.9697 852.241L139.56 504.481C145.24 472.791 149.35 444.761 155.56 420.711C181 322.001 209.75 308.001 234 289.001C259.3 269.201 611.54 137.001 638 127.001C657.77 119.501 782.52 112.931 896.2 112.931ZM896.2 103.931C841.38 103.931 781.31 105.471 731.38 108.161C694.62 110.161 648.02 113.561 634.79 118.591L624.98 122.291C594.21 133.901 500.58 169.231 412.85 203.531C244.48 269.361 232.4 278.811 228.43 281.911C226.43 283.511 224.32 285.071 222.13 286.721C210.5 295.471 197.31 305.381 184.21 324.951C169.65 346.681 157.39 377.281 146.74 418.501C141.99 436.851 138.41 457.691 134.62 479.751C133.34 487.211 132.02 494.931 130.62 502.851L60.9997 850.511C60.6138 852.486 60.486 854.503 60.6197 856.511V856.581C61.0895 864.158 60.7913 871.763 59.7297 879.281C58.5056 888.722 56.1935 897.99 52.8397 906.901C49.5197 915.691 48.1897 927.361 48.8397 941.601C48.8397 942.221 48.8997 942.831 48.9397 943.451L49.0297 944.831V945.441V945.561C49.1197 946.651 49.1997 947.731 49.2997 948.821C49.2997 949.181 49.3597 949.531 49.3897 949.891V950.231C49.3897 950.751 49.4797 951.231 49.5397 951.801L49.6897 953.231L49.8397 954.571V954.621V954.811C49.8397 955.031 49.8397 955.241 49.9097 955.461L49.9997 956.121C50.0697 956.731 50.1397 957.341 50.2297 957.951C50.3297 958.771 50.4397 959.581 50.5497 960.391C50.8497 962.491 51.1897 964.721 51.6397 967.391C51.7897 968.301 51.9397 969.201 52.0997 970.081C52.0997 970.081 52.0997 970.141 52.0997 970.171L52.2697 971.071C52.3497 971.521 52.4297 971.981 52.5197 972.431C52.7797 973.871 53.0497 975.281 53.3197 976.651C53.4897 977.481 53.6497 978.351 53.8297 979.191C54.0097 980.031 54.2197 981.021 54.4097 981.921L54.5997 982.791V982.861L54.7497 983.511C54.8597 984.001 54.9597 984.511 55.0697 984.941C55.0697 985.011 55.0697 985.081 55.0697 985.151V985.201L55.2097 985.851C55.2997 986.241 55.3897 986.621 55.4697 986.991V987.121C56.2097 990.291 56.9497 993.331 57.6897 996.121C57.7997 996.571 57.9197 997.021 58.0297 997.451L58.0797 997.641C58.4597 999.071 58.8397 1000.45 59.1897 1001.7L59.2597 1001.96C59.3197 1002.16 59.3697 1002.36 59.4297 1002.56C59.5497 1003.01 59.6697 1003.41 59.7597 1003.76L59.8397 1004.04C59.8927 1004.25 59.9561 1004.45 60.0297 1004.65C60.0537 1004.76 60.0837 1004.86 60.1197 1004.96L60.2097 1005.29V1005.37C61.0397 1009.26 79.9797 1098.37 100.68 1189.54C143.07 1376.15 152.01 1391.89 154.95 1396.54C155.14 1397.88 154.1 1401.87 153.34 1404.8C150.96 1413.95 147.34 1427.8 151.95 1446.1C155.62 1460.78 169.41 1469.2 189.79 1469.2C202.788 1469.13 215.601 1466.12 227.27 1460.39C229.68 1459.15 232.27 1457.75 235.59 1455.99L239.79 1453.72C276.98 1433.62 339.22 1399.98 452.92 1396.92C456.259 1396.78 459.505 1395.78 462.34 1394.01C473.78 1387.14 482.59 1368.34 476.45 1341.88C474.45 1333.35 468.65 1325.79 463.03 1318.47C461.66 1316.7 460.25 1314.86 458.92 1313.04C455.49 1308.36 451.8 1302.81 450.43 1297.04L449.43 1292.8C433.83 1227.7 414.43 1146.68 412.67 1120.68C411.698 1104.49 409.248 1088.42 405.35 1072.68C405.35 1072.61 405.35 1072.54 405.3 1072.48C402.94 1063.22 400.49 1056.05 398.52 1050.3C396.65 1044.85 395.17 1040.54 394.99 1037.83C394.79 1034.89 394.81 1031.78 394.84 1028.18C394.92 1018.18 395.02 1004.55 390.27 981.711C390.09 980.821 389.89 979.921 389.71 979.051L389.59 978.501C388.76 974.691 387.9 971.031 387.04 967.601C386.92 967.121 386.78 966.601 386.65 966.091L386.48 965.421C386.28 964.651 386.08 963.931 385.89 963.241L385.78 962.831C385.63 962.281 385.49 961.741 385.33 961.211V961.121C384.96 959.811 384.57 958.481 384.17 957.121C384.1 956.871 384.02 956.621 383.95 956.381L383.87 956.131C383.61 955.281 383.35 954.461 383.1 953.691L383 953.391V953.321L382.87 952.931C382.72 952.491 382.58 952.071 382.44 951.671L382.36 951.431C382.28 951.171 382.19 950.911 382.1 950.651C381.58 949.181 381.1 947.941 380.71 946.871C380.405 946.109 380.327 945.275 380.485 944.469C380.643 943.664 381.03 942.921 381.6 942.331L381.7 942.231L381.84 942.101H381.9L382.17 941.891L382.25 941.831L382.39 941.721C382.934 941.295 383.541 940.958 384.19 940.721C390.25 938.611 394.02 933.331 394.53 926.221C394.655 922.331 394.275 918.442 393.4 914.651C393.25 913.901 393.06 912.911 392.98 912.371C392.98 912.151 393.04 911.881 393.08 911.551V911.431C393.08 911.431 393.08 911.351 393.08 911.311C393.08 911.271 393.08 911.211 393.08 911.161L393.13 910.801C393.13 910.631 393.13 910.451 393.2 910.261C393.27 910.071 393.2 910.031 393.2 909.911V909.861C393.2 909.861 393.2 909.791 393.2 909.751C393.29 909.061 393.4 908.271 393.52 907.411L393.74 905.711C393.79 905.391 393.83 905.061 393.88 904.711L393.95 904.191L394.1 903.101L394.25 902.001C394.42 900.761 394.6 899.441 394.8 898.061L395.2 895.161V895.091C395.2 894.791 395.28 894.491 395.33 894.191V893.991L395.41 893.381C395.41 893.161 395.48 892.931 395.51 892.701L395.57 892.221C395.574 892.177 395.574 892.134 395.57 892.091L395.62 891.761C395.62 891.581 395.67 891.411 395.7 891.231L395.79 890.571L395.87 890.001C395.87 889.811 395.92 889.631 395.95 889.451L396.01 889.041L396.07 888.571L396.16 887.931L397.35 879.511L398.42 872.001L398.57 871.001V870.751C398.64 870.351 398.7 869.911 398.76 869.481V869.311C398.88 868.481 399.01 867.611 399.13 866.771L399.38 864.991V864.711V864.361C399.88 860.841 400.32 857.801 400.64 855.531C400.64 855.241 400.73 854.971 400.77 854.711V854.501C400.77 854.451 400.77 854.391 400.77 854.341C400.77 854.091 400.84 853.861 400.87 853.641L400.93 853.181C400.935 853.131 400.935 853.081 400.93 853.031V852.801C400.93 852.621 400.98 852.451 401 852.291V852.181C401 852.071 401 851.961 401.05 851.851C401.1 851.741 401.05 851.601 401.1 851.471C401.15 851.341 401.1 851.271 401.1 851.171C401.1 851.071 401.1 850.911 401.1 850.791V850.721C401.19 849.771 401.67 844.721 402.58 838.401C402.65 837.921 402.71 837.471 402.78 837.001C402.78 837.001 402.78 836.921 402.78 836.871C402.91 835.951 403.07 834.931 403.25 833.871C403.47 832.491 403.67 831.361 403.86 830.311V830.231C404.01 829.331 404.19 828.421 404.37 827.531C404.48 826.981 404.6 826.401 404.73 825.821V825.681C404.73 825.401 404.84 825.131 404.9 824.861C404.96 824.591 404.97 824.541 405 824.391C405.03 824.241 405.05 824.201 405.07 824.101V823.971C405.07 823.771 405.16 823.581 405.21 823.381L405.27 823.111V822.961C405.27 822.801 405.34 822.641 405.39 822.481C405.44 822.321 405.39 822.361 405.39 822.301C405.52 821.761 405.67 821.191 405.85 820.561C409.125 825.66 412.032 830.987 414.55 836.501C420.605 849.466 425.621 862.891 429.55 876.651C430.29 879.281 431.18 882.321 432.21 885.841C442.21 920.011 465.66 1000.01 450.85 1052.69V1052.78L450.76 1053.13C450.64 1053.57 450.52 1054.01 450.41 1054.45C441.58 1089.73 454.7 1171.29 466.29 1243.25C473.03 1285.13 479.39 1324.69 480.02 1347.03C479.89 1350.2 478.91 1375.37 479.65 1402.49C481.13 1456.84 487.88 1471.9 492.83 1478.49C498.94 1486.64 503.19 1503.49 506.93 1518.37C509.16 1527.21 511.26 1535.55 513.71 1542.04C515.27 1546.15 519.41 1557.1 529.16 1558.04C545.43 1559.62 564.16 1561.04 584.96 1562.19C627.74 1564.61 672.72 1565.89 715.04 1565.89C778.5 1565.89 860.04 1563.08 887.93 1549.67C929.16 1529.87 954.93 1478.74 969.2 1439.34C969.471 1438.48 970.016 1437.74 970.751 1437.22C971.487 1436.71 972.372 1436.45 973.27 1436.48C974.197 1436.45 975.107 1436.73 975.859 1437.27C976.612 1437.82 977.164 1438.59 977.43 1439.48C985.09 1461.87 993.49 1480.97 1002.43 1496.23C1014.91 1517.59 1028.43 1531.35 1042.75 1537.13C1064.84 1546.13 1109.39 1547.42 1133.98 1547.42C1173.27 1547.42 1215.15 1544.15 1248.89 1538.42C1290.07 1531.42 1316.38 1521.55 1327.09 1508.98C1338.09 1496.09 1343.38 1482.36 1343.79 1465.78C1344.14 1451.57 1340.79 1436.78 1337.2 1421.04C1333.97 1406.8 1330.62 1392.04 1329.2 1375.35C1327.08 1350.27 1324.1 1302.91 1320.6 1238.35C1320.53 1237.78 1320.58 1237.19 1320.75 1236.64C1320.93 1236.09 1321.21 1235.58 1321.6 1235.15C1322.07 1234.69 1322.63 1234.33 1323.25 1234.09C1323.86 1233.85 1324.52 1233.73 1325.18 1233.74H1325.43C1326.35 1233.74 1327.24 1234.08 1327.94 1234.68C1328.64 1235.28 1329.1 1236.12 1329.24 1237.03V1237.16V1237.32C1329.24 1237.38 1329.24 1237.41 1329.24 1237.47C1333.24 1254.73 1338.24 1265.66 1345.12 1272.47C1345.12 1273.06 1345.12 1273.79 1345.12 1274.4C1345.07 1279.15 1344.98 1287.11 1350.94 1294.35C1353.01 1296.86 1355.6 1298.87 1358.54 1300.26C1361.48 1301.64 1364.69 1302.35 1367.94 1302.35C1370.47 1302.35 1372.97 1301.92 1375.36 1301.09C1388.08 1296.66 1411.86 1287.09 1428.25 1273.23C1429.11 1272.49 1432.88 1269.88 1445.17 1267.04C1466 1262.21 1501.59 1259.04 1535.85 1259.04C1568.14 1259.04 1584.68 1261.79 1588.03 1263.66C1592.49 1267.17 1598 1269.08 1603.67 1269.09C1612.96 1269.09 1622.56 1263.91 1628.14 1255.89C1632.14 1250.17 1633.26 1243.82 1631.28 1238.47C1629.52 1233.91 1627.44 1229.48 1625.05 1225.21C1623.57 1222.62 1622.28 1219.92 1621.21 1217.14C1618.82 1210.14 1603.14 1161.14 1600.21 1150.45C1597.46 1140.33 1540.21 956.011 1522.68 899.681C1522.67 899.637 1522.67 899.594 1522.68 899.551L1522.62 899.301C1522.49 898.808 1522.46 898.295 1522.53 897.791C1522.98 894.364 1523.12 890.903 1522.94 887.451C1522.67 881.852 1521.6 876.322 1519.75 871.031C1517.74 865.265 1515.35 859.64 1512.6 854.191C1511.05 851.152 1509.67 848.03 1508.47 844.841C1505.12 835.841 1500.89 815.301 1499.21 799.841C1497.61 785.131 1449.21 498.261 1434.45 410.691L1434.09 408.581C1434.09 408.544 1434.09 408.507 1434.09 408.471C1434.09 408.421 1434.09 408.37 1434.09 408.321C1431.16 384.872 1426.71 361.64 1420.76 338.771C1408.5 292.251 1392.4 261.071 1372.9 246.101C1372.44 245.751 1371.96 245.411 1371.44 245.101C1365.01 240.911 1329.57 219.181 1260.33 200.761C1260.17 200.761 1260.04 200.671 1259.92 200.631L1259.79 200.571C1217.2 183.301 1144.49 154.031 1136.12 152.011C1135.12 151.761 1134.04 151.541 1133.04 151.331C1124.96 149.611 1114.9 147.481 1096.84 124.791C1091.84 118.531 1079.76 112.151 1025.48 107.891C992.35 105.291 947.34 103.891 895.31 103.891L896.2 103.931Z" fill="#17091D"/>
<path id="Vector_19" d="M1050.55 57.3705C1034.75 49.2504 1017.89 43.4026 1000.46 40.0005C951.61 30.2905 812.21 12.5505 728 48.5005C627.24 91.5005 820 215.32 968.31 202.41C1116.62 189.5 1111.42 131.74 1104.53 110.5C1099.19 94.1305 1085.29 75.4105 1050.55 57.3705Z" fill="#5C2C66" stroke="#17091D" stroke-width="9" stroke-miterlimit="10"/>
<path id="Vector_20" d="M1134.49 960.42C1134.5 966.708 1132.33 972.804 1128.35 977.67C1124.36 982.536 1118.82 985.871 1112.65 987.108C1106.49 988.344 1100.09 987.405 1094.54 984.45C1088.99 981.495 1084.63 976.708 1082.22 970.903C1079.8 965.098 1079.47 958.635 1081.29 952.615C1083.1 946.595 1086.95 941.39 1092.17 937.887C1097.39 934.384 1103.66 932.8 1109.92 933.404C1116.18 934.008 1122.03 936.763 1126.49 941.2C1131.6 946.295 1134.47 953.207 1134.49 960.42ZM1129.84 961.14C1129.84 956.263 1128.15 951.536 1125.06 947.766C1121.96 943.996 1117.66 941.415 1112.87 940.463C1108.09 939.512 1103.12 940.249 1098.82 942.548C1094.52 944.848 1091.15 948.567 1089.28 953.074C1087.42 957.58 1087.17 962.594 1088.59 967.261C1090 971.928 1093 975.959 1097.05 978.668C1101.11 981.377 1105.98 982.596 1110.83 982.116C1115.68 981.637 1120.22 979.49 1123.67 976.04C1127.62 972.088 1129.84 966.728 1129.84 961.14Z" fill="#17091D"/>
<path id="Vector_21" d="M1108.76 982.221C1112.93 982.221 1117 980.984 1120.47 978.668C1123.94 976.352 1126.64 973.059 1128.23 969.208C1129.83 965.356 1130.25 961.117 1129.43 957.028C1128.62 952.939 1126.61 949.183 1123.67 946.235C1120.72 943.287 1116.96 941.279 1112.87 940.466C1108.78 939.652 1104.54 940.07 1100.69 941.665C1096.84 943.261 1093.55 945.963 1091.23 949.429C1088.92 952.896 1087.68 956.971 1087.68 961.141C1087.68 966.731 1089.9 972.093 1093.85 976.046C1097.81 980 1103.17 982.221 1108.76 982.221Z" fill="#9C398C"/>
<path id="Vector_22" d="M1109.16 1189.58C1117.16 1194.46 1125 1200.72 1122.8 1210.42C1120.36 1221.08 1109.8 1237.19 1096.8 1234.87C1093.66 1234.39 1090.68 1233.15 1088.13 1231.25C1085.58 1229.35 1083.54 1226.85 1082.18 1223.97C1078.51 1216.65 1078.57 1201.85 1084.65 1195.6C1089 1191.07 1103.12 1185.92 1109.16 1189.58ZM1109.32 1195.02C1107.34 1193.99 1105.17 1193.4 1102.95 1193.27C1100.72 1193.15 1098.5 1193.49 1096.42 1194.29C1091.93 1195.99 1088.22 1199.28 1086 1203.53C1084.87 1205.66 1084.13 1207.97 1083.8 1210.36C1083.48 1212.7 1083.61 1215.07 1084.17 1217.36C1084.7 1219.55 1085.68 1221.62 1087.04 1223.42C1088.36 1225.17 1090.05 1226.61 1091.98 1227.64C1093.96 1228.66 1096.13 1229.26 1098.35 1229.38C1100.57 1229.51 1102.8 1229.16 1104.88 1228.37C1109.37 1226.67 1113.07 1223.38 1115.29 1219.12C1116.43 1216.99 1117.17 1214.68 1117.5 1212.29C1117.82 1209.95 1117.69 1207.58 1117.13 1205.29C1116.6 1203.09 1115.62 1201.03 1114.26 1199.23C1112.94 1197.48 1111.26 1196.03 1109.32 1195V1195.02Z" fill="#17091D"/>
<path id="Vector_23" d="M1115.29 1219.1C1120.08 1210.1 1117.4 1199.32 1109.29 1195.02C1101.18 1190.72 1090.77 1194.53 1085.98 1203.53C1081.19 1212.53 1083.87 1223.32 1091.98 1227.62C1100.09 1231.92 1110.5 1228.11 1115.29 1219.1Z" fill="#9C398C"/>
<path id="Vector_24" d="M1189.85 1173.05C1187.25 1173.13 1184.65 1172.85 1182.13 1172.21C1174.13 1169.83 1170.35 1158.27 1169.8 1134.72C1169.42 1118.07 1170.8 1099.3 1172.04 1086.48C1172.42 1082.55 1174.1 1078.85 1176.82 1075.98C1179.54 1073.11 1183.13 1071.23 1187.04 1070.64C1192.12 1069.84 1198.59 1068.94 1206.04 1067.89C1233.13 1064.1 1274.04 1058.38 1289.48 1051.89C1290.75 1051.36 1292.11 1051.08 1293.48 1051.08C1295.98 1051.08 1298.4 1051.99 1300.28 1053.65C1302.16 1055.31 1303.36 1057.59 1303.67 1060.08C1306.67 1084.81 1311.3 1128.68 1307.85 1144.59C1307.37 1146.73 1306.31 1148.69 1304.77 1150.25C1303.23 1151.82 1301.28 1152.91 1299.15 1153.42C1279.69 1158 1214.21 1173.05 1189.85 1173.05Z" fill="#7E4282"/>
<path id="Vector_25" d="M1293.51 1055.6C1294.91 1055.59 1296.26 1056.1 1297.32 1057.02C1298.37 1057.94 1299.06 1059.21 1299.24 1060.6C1301.74 1080.98 1306.9 1127.86 1303.48 1143.6C1303.19 1144.91 1302.53 1146.12 1301.59 1147.07C1300.64 1148.03 1299.45 1148.7 1298.14 1149C1282.14 1152.78 1214.14 1168.5 1189.85 1168.5C1187.69 1168.57 1185.52 1168.35 1183.42 1167.85C1170.53 1164 1174.3 1109.93 1176.52 1086.85C1176.8 1083.92 1178.05 1081.16 1180.08 1079.02C1182.1 1076.88 1184.78 1075.47 1187.69 1075.02C1212.03 1071.23 1271.09 1064.45 1291.22 1056.02C1291.95 1055.72 1292.72 1055.56 1293.51 1055.56M1293.51 1046.56C1291.53 1046.56 1289.57 1046.95 1287.74 1047.72C1272.86 1053.96 1232.28 1059.64 1205.42 1063.4C1197.91 1064.4 1191.42 1065.4 1186.3 1066.15C1181.41 1066.91 1176.92 1069.27 1173.52 1072.87C1170.13 1076.46 1168.03 1081.09 1167.56 1086.01C1166.32 1098.95 1164.92 1117.92 1165.31 1134.78C1165.54 1144.86 1166.37 1152.78 1167.84 1158.91C1168.71 1162.56 1171.35 1173.65 1180.84 1176.48C1183.78 1177.25 1186.81 1177.58 1189.84 1177.48C1214.7 1177.48 1280.6 1162.37 1300.2 1157.74C1303.16 1157.04 1305.86 1155.51 1307.99 1153.35C1310.12 1151.18 1311.6 1148.46 1312.26 1145.49C1315.68 1129.76 1311.91 1090.03 1308.16 1059.49C1307.71 1055.92 1305.98 1052.63 1303.28 1050.25C1300.58 1047.86 1297.1 1046.55 1293.5 1046.55L1293.51 1046.56Z" fill="#17091D"/>
<path id="Vector_26" d="M1170.5 549.501C1170.5 549.501 1262.02 543.201 1293.26 542.851" stroke="#17091D" stroke-width="7" stroke-linecap="round" stroke-linejoin="round"/>
<path id="Vector_27" d="M1155.5 591.5L1320.71 582.54" stroke="#17091D" stroke-width="7" stroke-linecap="round" stroke-linejoin="round"/>
<path id="Vector_28" d="M586.44 1553.12C566.1 1551.97 547.29 1550.58 531 1549C519 1547.83 516 1493 501 1473C485.3 1452.06 490 1347 490 1347C488.42 1286.42 446.63 1110.39 460.12 1056.49C460.24 1056 460.38 1055.49 460.51 1055.03C477.51 994.55 447.51 903.5 439.21 874.11C430.91 844.72 414.5 809.5 405.77 806.67C405.409 806.552 405.025 806.521 404.65 806.58C404.527 806.592 404.407 806.619 404.29 806.66C404.17 806.698 404.053 806.745 403.94 806.8C403.844 806.839 403.753 806.889 403.67 806.95C403.395 807.104 403.142 807.296 402.92 807.52C402.8 807.624 402.69 807.737 402.59 807.86C402.472 807.98 402.362 808.107 402.26 808.24L402.02 808.56C401.767 808.909 401.537 809.273 401.33 809.65C401.225 809.813 401.131 809.984 401.05 810.16C400.93 810.38 400.81 810.61 400.7 810.85C400.59 811.09 400.52 811.21 400.44 811.4C400.36 811.59 400.25 811.83 400.16 812.05C399.88 812.72 399.6 813.44 399.34 814.2C399.25 814.45 399.16 814.71 399.08 814.97C399 815.23 398.91 815.49 398.83 815.76C398.67 816.24 398.53 816.76 398.39 817.22C398.13 818.13 397.87 819.08 397.63 820.06C397.55 820.36 397.48 820.67 397.41 820.97C397.34 821.27 397.26 821.58 397.19 821.89C397.12 822.2 397.06 822.48 396.99 822.78L396.78 823.78C396.64 824.41 396.51 825.05 396.38 825.69C396.19 826.69 396 827.62 395.83 828.59C395.6 829.84 395.39 831.08 395.19 832.31C394.99 833.54 394.84 834.49 394.69 835.55C394.61 836.06 394.53 836.55 394.47 837.06C393.47 843.67 393.02 848.97 392.94 849.84C392.938 849.88 392.938 849.92 392.94 849.96C392.946 850.033 392.946 850.107 392.94 850.18C392.945 850.203 392.945 850.227 392.94 850.25C392.94 850.38 392.94 850.55 392.87 850.75C392.8 850.95 392.82 851.14 392.78 851.37C392.74 851.6 392.73 851.69 392.71 851.87C392.71 852.23 392.6 852.63 392.54 853.08C392.48 853.53 392.44 853.75 392.38 854.08C392.06 856.35 391.62 859.42 391.11 862.98L391.02 863.6C390.82 864.99 390.62 866.44 390.4 867.95C390.34 868.38 390.28 868.82 390.21 869.26L390.15 869.66C390.15 869.97 390.07 870.28 390.02 870.59L387.74 886.66C387.69 887.06 387.63 887.45 387.58 887.85C387.53 888.25 387.49 888.44 387.45 888.74L387.27 890.01C387.27 890.31 387.18 890.62 387.14 890.92C387.1 891.22 387.03 891.73 386.97 892.13L386.88 892.79C386.82 893.17 386.77 893.55 386.72 893.93C386.38 896.37 386.05 898.69 385.72 900.8L385.57 901.9C385.52 902.27 385.47 902.62 385.42 902.97C385.35 903.48 385.29 903.97 385.22 904.45C385.01 906.03 384.82 907.45 384.67 908.58C384.67 908.72 384.67 908.85 384.67 908.98C384.62 909.33 384.58 909.66 384.54 909.98C384.54 910.11 384.54 910.24 384.49 910.37C384.43 910.87 384.38 911.28 384.35 911.58C384.35 911.68 384.35 911.77 384.35 911.84C384.346 911.91 384.346 911.98 384.35 912.05C384.08 915.65 389.62 929.45 381.63 932.22C380.096 932.756 378.656 933.529 377.36 934.51L376.83 934.92C376.63 935.07 376.44 935.23 376.25 935.4C376.06 935.57 375.89 935.72 375.72 935.89C373.285 938.209 371.331 940.985 369.97 944.06C371.032 946.022 371.944 948.061 372.7 950.16C373.1 951.16 373.53 952.37 374 953.71C374.11 954.01 374.21 954.33 374.32 954.65C374.49 955.14 374.66 955.65 374.84 956.2C375.1 957 375.38 957.85 375.65 958.75C375.74 959.05 375.84 959.35 375.93 959.67C376.31 960.9 376.7 962.23 377.09 963.67V963.77C377.27 964.39 377.44 965.03 377.62 965.69C377.8 966.35 377.98 967.02 378.16 967.69C378.34 968.36 378.53 969.1 378.71 969.83C379.51 973 380.34 976.52 381.19 980.43C381.41 981.43 381.64 982.5 381.86 983.57C388.12 1013.68 385.59 1026.46 386.41 1038.47C386.91 1045.87 392.19 1055.93 396.98 1074.73C385.65 1050.85 347.15 970.02 339.77 958.96C331.09 945.96 326.27 927.09 330.68 923.53C335.09 919.97 248.45 883.18 253.27 874.07C253.92 872.84 256.06 872.34 259.27 872.34C280.1 872.34 346.4 893.47 354.35 879.55C363.55 863.46 380.55 704.46 379.55 669.46C378.93 647.81 383.1 596.65 386.36 560.79C386.462 560.195 386.773 559.655 387.238 559.27C387.703 558.884 388.29 558.677 388.894 558.687C389.498 558.697 390.079 558.922 390.531 559.322C390.983 559.723 391.277 560.272 391.36 560.87C393.86 602.43 400.98 662.05 421.21 656.46C452.01 647.96 477.79 593.63 498.9 599.29C520.01 604.95 461.4 625.15 473.2 700.06C485 774.97 543.48 956.28 532.2 1021.62C520.92 1086.96 517.74 1154.85 539.35 1209.41C560.96 1263.97 560.05 1320.76 559.01 1373.41C558.53 1399.17 573.71 1489.18 586.44 1553.12Z" fill="#9C398C"/>
<path id="Vector_29" d="M530.999 1045.47C570.059 1053.53 699.319 1079.47 748.249 1079.69C751.774 1079.71 755.156 1081.09 757.701 1083.52C760.247 1085.96 761.763 1089.28 761.939 1092.8C763.329 1120.48 763.089 1179.48 735.519 1177.32C699.519 1174.5 525.759 1149.56 519.649 1142.53C514.929 1137.08 510.379 1083.77 514.109 1057.42C514.375 1055.5 515.031 1053.65 516.039 1052C517.046 1050.34 518.383 1048.91 519.966 1047.79C521.549 1046.67 523.344 1045.88 525.242 1045.49C527.14 1045.09 529.099 1045.08 530.999 1045.47Z" fill="#7E4282" stroke="#17091D" stroke-width="9" stroke-miterlimit="10"/>
<path id="Vector_30" d="M995.5 886.5C995.5 886.5 963.93 1339.03 973.5 1431.5" stroke="#17091D" stroke-width="7" stroke-linecap="round" stroke-linejoin="round"/>
<g id="arm 1">
<path id="Vector_31" d="M155.469 420.75C144.049 549.34 119.869 803.32 104.359 833.23C94.1595 852.92 80.2395 869.08 68.6895 880.45C70.7795 864.86 69.4894 854.17 69.4894 854.17L139.489 504.52C145.139 472.83 150.459 445.08 155.469 420.75Z" fill="#9C398C"/>
<path id="Vector_32" d="M231.629 1448.15C228.742 1449.71 226.026 1451.15 223.479 1452.46C203.579 1462.66 166.419 1465.69 160.999 1444C153.999 1416 168.509 1400.75 162.999 1392C145.999 1365 69.309 1003.41 69.309 1003.41L69.219 1003.04V1002.95C69.219 1002.89 69.219 1002.8 69.139 1002.69C69.139 1002.58 69.099 1002.45 69.019 1002.3C69.019 1002.22 69.019 1002.13 68.939 1002.03C68.9155 1001.93 68.8854 1001.83 68.849 1001.73L68.409 1000.15C68.329 999.89 68.259 999.62 68.179 999.34C67.869 998.24 67.509 996.92 67.109 995.4L66.739 993.99C66.079 991.44 65.339 988.45 64.559 985.11C64.419 984.47 64.269 983.82 64.119 983.11C64.119 983.11 64.119 983.06 64.119 983.03C63.969 982.34 63.809 981.63 63.649 980.91C63.399 979.74 63.139 978.55 62.889 977.33C62.729 976.53 62.559 975.71 62.399 974.89C62.129 973.54 61.869 972.16 61.609 970.75C61.469 970.02 61.339 969.27 61.199 968.52C61.059 967.77 60.899 966.8 60.759 965.93C60.389 963.71 60.029 961.44 59.709 959.14C59.599 958.35 59.489 957.56 59.389 956.77C59.309 956.18 59.239 955.6 59.169 955.02C59.099 954.44 59.059 954.09 58.999 953.63L58.849 952.24L58.699 950.85C58.699 950.37 58.599 949.85 58.559 949.41C58.519 948.97 58.469 948.52 58.439 948.07C58.339 947 58.259 945.94 58.179 944.87C58.179 944.22 58.089 943.57 58.059 942.87C58.029 942.17 57.989 941.68 57.959 941.09C79.219 943.09 113.249 948.46 115.599 962.47C118.499 980.05 209.789 1329.15 231.629 1448.15Z" fill="#9C398C"/>
<path id="Vector_33" d="M189.999 880.59C153.649 882.39 117.379 891.35 81.619 898.43C81.3013 898.492 80.9738 898.483 80.66 898.404C80.3461 898.324 80.0536 898.177 79.8034 897.972C79.5532 897.766 79.3513 897.508 79.2123 897.216C79.0732 896.924 79.0004 896.604 78.999 896.28C79.119 866.55 158.919 868.49 190.449 876.28C190.946 876.423 191.378 876.735 191.668 877.164C191.957 877.593 192.087 878.11 192.033 878.624C191.979 879.139 191.746 879.618 191.374 879.978C191.002 880.337 190.515 880.554 189.999 880.59Z" fill="#5C2C66"/>
<path id="Vector_34" d="M112.589 918.53C137.229 905.75 187.229 906.88 218.399 907.53C218.977 907.56 219.522 907.809 219.924 908.227C220.325 908.644 220.553 909.198 220.561 909.777C220.568 910.356 220.355 910.917 219.965 911.344C219.575 911.772 219.036 912.035 218.459 912.08C212.729 912.4 204.749 910.96 201.729 912.28C201.484 912.39 201.225 912.461 200.959 912.49C171.669 914.74 143.669 922.56 113.669 922.88C113.144 922.899 112.628 922.737 112.208 922.421C111.788 922.105 111.49 921.654 111.363 921.144C111.237 920.634 111.289 920.096 111.513 919.62C111.736 919.144 112.116 918.759 112.589 918.53Z" fill="#5C2C66"/>
<path id="Vector_35" d="M320.679 890.9C351.319 900.2 350.599 911.44 317.819 899.77C317.719 899.741 317.622 899.7 317.529 899.65C299.529 890.56 280.329 885.21 261.869 877.8C261.317 877.547 260.87 877.111 260.604 876.565C260.338 876.018 260.27 875.397 260.412 874.806C260.554 874.216 260.896 873.693 261.381 873.327C261.866 872.961 262.463 872.775 263.069 872.8C279.659 874.33 307.829 887.44 320.679 890.9Z" fill="#5C2C66"/>
<path id="Vector_36" d="M161.499 1394.5C161.499 1394.5 247.499 1324.5 453.499 1314.5" stroke="#17091D" stroke-width="9" stroke-linecap="round" stroke-linejoin="round"/>
<path id="Vector_37" d="M341.849 324.29C343.169 325.12 344.219 325.9 345.349 326.74C346.479 327.58 347.529 328.43 348.579 329.31L351.689 331.99L354.689 334.79C358.59 338.572 362.289 342.558 365.769 346.73C372.679 355.067 378.938 363.923 384.489 373.22C395.375 391.872 404.261 411.622 410.999 432.14C417.741 452.601 422.936 473.54 426.539 494.78C430.251 515.955 432.762 537.322 434.059 558.78C436.979 601.68 435.719 644.72 432.149 687.46C428.579 730.2 422.489 772.72 414.839 814.9C414.663 815.869 414.298 816.794 413.765 817.622C413.231 818.45 412.54 819.165 411.73 819.726C410.921 820.287 410.008 820.683 409.046 820.891C408.083 821.099 407.089 821.116 406.119 820.94C405.15 820.764 404.225 820.399 403.397 819.866C402.569 819.332 401.854 818.641 401.293 817.831C400.733 817.021 400.337 816.109 400.128 815.146C399.92 814.184 399.903 813.189 400.079 812.22V812.12V812.04C408.449 770.43 415.259 728.49 419.619 686.3C423.979 644.11 426.019 601.65 423.949 559.3C423.079 538.153 421.013 517.073 417.759 496.16C414.627 475.254 409.93 454.613 403.709 434.41C397.494 414.259 389.175 394.819 378.889 376.41C373.67 367.306 367.763 358.614 361.219 350.41C357.95 346.324 354.465 342.415 350.779 338.7L347.999 336L345.109 333.39C344.109 332.55 343.109 331.73 342.109 330.92C341.109 330.11 340.029 329.34 339.109 328.73L339.019 328.67C338.469 328.288 338.089 327.707 337.957 327.05C337.826 326.394 337.955 325.711 338.316 325.147C338.677 324.583 339.242 324.18 339.894 324.024C340.545 323.868 341.232 323.971 341.809 324.31L341.849 324.29Z" fill="#17091D"/>
</g>
<g id="arm 2">
<path id="Vector_38" d="M1514.91 901.511C1478.63 901.071 1406.91 906.421 1389.34 953.611C1371.02 1002.71 1420.34 1179.18 1444.19 1258.25C1434.55 1260.48 1427.19 1263.18 1423.47 1266.35C1407.95 1279.53 1384.61 1288.68 1373.47 1292.57C1370.93 1293.48 1368.18 1293.59 1365.59 1292.89C1362.99 1292.18 1360.67 1290.71 1358.93 1288.65C1352.1 1280.35 1357.48 1270.58 1353.49 1267.03C1348.49 1262.57 1343.49 1254.5 1339.04 1235.39C1339.04 1235.2 1338.95 1235.01 1338.9 1234.81C1338.3 1232.01 1336.78 1229.49 1334.58 1227.66C1332.38 1225.83 1329.63 1224.8 1326.77 1224.72L1315.94 1174.22C1315.94 1174.22 1307.7 1083.52 1306.11 1062.51C1304.52 1041.5 1303.75 948.411 1304.63 939.961C1305.51 931.511 1306.24 886.661 1309.88 855.581C1313.52 824.501 1331.2 741.341 1331.2 741.341L1353 666.411L1366.15 582.781L1369.75 565.061C1369.75 565.061 1378.82 678.661 1372.15 768.061C1365.48 857.461 1365.6 883.061 1388.03 889.791C1404.68 894.791 1478.13 890.451 1514.94 887.901C1515.09 890.805 1514.98 893.717 1514.6 896.601C1514.39 898.242 1514.49 899.909 1514.91 901.511Z" fill="#9C398C"/>
<path id="Vector_39" d="M1306 920.87C1317 913.87 1328 907.1 1339.16 900.34C1350.32 893.58 1361.42 886.94 1372.64 880.34C1383.86 873.74 1395.2 867.4 1406.64 861.21L1415.3 856.65C1418.2 855.14 1421.15 853.72 1424.07 852.25L1426.27 851.16L1428.52 850.16L1433.01 848.16C1433.76 847.83 1434.49 847.46 1435.27 847.16L1437.6 846.23L1442.26 844.4C1443.07 844.103 1443.96 844.127 1444.74 844.466C1445.53 844.804 1446.16 845.433 1446.5 846.221C1446.84 847.01 1446.87 847.899 1446.58 848.706C1446.28 849.513 1445.69 850.176 1444.92 850.56L1444.66 850.68L1440.39 852.68L1438.26 853.68C1437.55 854.01 1436.85 854.42 1436.15 854.78L1432 857L1429.89 858.12L1427.8 859.32C1425.03 860.93 1422.23 862.48 1419.48 864.13L1411.22 869.13C1400.28 875.91 1389.45 882.93 1378.7 890.07C1367.95 897.21 1357.28 904.5 1346.7 911.86C1336.12 919.22 1325.5 926.66 1315.05 934.17C1313.33 935.408 1311.18 935.911 1309.09 935.568C1306.99 935.225 1305.12 934.064 1303.88 932.34C1302.64 930.616 1302.14 928.471 1302.48 926.376C1302.82 924.281 1303.99 922.408 1305.71 921.17L1306 920.87Z" fill="#17091D"/>
<path id="Vector_40" d="M1481.15 864.36C1481.15 864.36 1389.61 869.55 1350.05 902.53" stroke="#17091D" stroke-width="10" stroke-linecap="round" stroke-linejoin="round"/>
<path id="Vector_41" d="M1369.21 909.221C1395.61 891.111 1403.94 898.691 1374.35 917.001L1374.07 917.151C1355.74 925.511 1339.55 937.151 1322.24 946.971C1321.69 947.289 1321.05 947.398 1320.43 947.278C1319.81 947.159 1319.26 946.818 1318.87 946.32C1318.48 945.822 1318.28 945.2 1318.32 944.569C1318.35 943.939 1318.62 943.342 1319.06 942.891C1330.64 930.911 1358.48 917.091 1369.21 909.221Z" fill="#5C2C66"/>
<path id="Vector_42" d="M1350.05 1268.08C1350.05 1268.08 1438.98 1162.64 1613.74 1220.08" stroke="#17091D" stroke-width="9" stroke-linecap="round" stroke-linejoin="round"/>
<path id="Vector_43" d="M1367 288.12C1369.1 307.81 1370.65 327.51 1371.92 347.25C1373.19 366.99 1374.2 386.75 1374.81 406.52C1375.42 426.29 1375.71 446.08 1375.67 465.87C1375.63 485.66 1375.24 505.47 1374.37 525.26C1372.53 564.82 1369.18 604.43 1362.23 643.61C1358.86 663.267 1354.32 682.705 1348.64 701.82L1339.55 730.02C1338.19 734.71 1336.72 739.38 1335.44 744.1C1334.16 748.82 1332.88 753.55 1331.71 758.31C1322.24 796.31 1316.45 835.31 1312.84 874.43C1311.05 894.004 1309.8 913.624 1309.07 933.29C1308.34 952.957 1307.98 972.624 1307.98 992.29C1308.16 1031.62 1309.91 1070.96 1313.24 1110.29C1316.63 1149.56 1320.8 1188.85 1324.98 1228.09C1325.09 1229.02 1324.82 1229.95 1324.24 1230.68C1323.66 1231.42 1322.81 1231.89 1321.88 1232C1320.96 1232.1 1320.02 1231.84 1319.29 1231.26C1318.56 1230.68 1318.09 1229.83 1317.98 1228.9C1315.5 1209.29 1313.15 1189.66 1310.92 1170.03C1308.7 1150.39 1306.56 1130.75 1304.63 1111.03C1300.9 1071.57 1299 1031.97 1298.54 992.34C1298.36 972.527 1298.61 952.71 1299.29 932.89C1299.97 913.07 1301.25 893.277 1303.13 873.51C1306.8 834 1312.66 794.59 1322.31 755.94C1323.51 751.11 1324.85 746.32 1326.11 741.5C1327.37 736.68 1328.92 731.94 1330.31 727.15C1330.99 724.76 1331.82 722.4 1332.58 720.03L1335 713L1339.55 699C1345.22 680.287 1349.78 661.254 1353.2 642L1354.52 634.77C1354.94 632.35 1355.3 629.92 1355.69 627.5C1356.43 622.65 1357.27 617.82 1357.89 612.94C1358.51 608.06 1359.26 603.22 1359.89 598.34L1361.6 583.7C1363.69 564.15 1365.19 544.52 1366.33 524.87C1367.47 505.22 1368.2 485.52 1368.54 465.82C1368.88 446.12 1368.9 426.4 1368.61 406.68C1368.09 367.26 1366.51 327.79 1363.61 288.47C1363.6 288.032 1363.75 287.605 1364.04 287.276C1364.33 286.948 1364.74 286.743 1365.17 286.703C1365.61 286.664 1366.05 286.793 1366.39 287.063C1366.74 287.334 1366.96 287.727 1367.03 288.16L1367 288.12Z" fill="#17091D"/>
</g>
</g>
</g>
<g id="collar front">
<g id="shirt collar">
<path id="Vector_44" d="M710 251L728.38 420.75L1059 807L1086 695L1175 326L1148 142L1039.37 179C1039.37 179 995.24 199 919.87 203.25C844.5 207.5 710 251 710 251Z" fill="#FBDAFA"/>
<path id="Vector_45" d="M832.15 337.87C826.92 337.866 821.869 335.961 817.94 332.51C786.86 305.23 711.17 236.86 679.71 191.27C640.06 133.83 620.65 97.2704 620.46 96.8704L619.1 94.2804L621.1 92.1904C622.69 90.5804 660.29 52.5804 682.95 39.5304C688.399 36.2785 694.605 34.5099 700.95 34.4004C709.57 34.4004 716.84 38.1704 720.39 44.5004C723.94 50.8304 723.33 58.9904 718.39 67.0804C705.47 88.3004 698.39 99.9904 760.05 137.58C856.64 196.44 937.45 198.4 938.25 198.41L946.03 198.53L849.5 329.12C847.489 331.829 844.873 334.031 841.861 335.55C838.849 337.069 835.523 337.864 832.15 337.87Z" fill="#FBDAFA"/>
<path id="Vector_46" d="M701 38.4004C715 38.4004 724.21 49.9404 715 65.0004C701 88.0004 694 102 758 141C856.78 201.19 938.22 202.41 938.22 202.41L846.28 326.74C844.835 328.694 843.001 330.326 840.894 331.534C838.786 332.743 836.451 333.5 834.035 333.76C831.62 334.019 829.177 333.775 826.861 333.042C824.545 332.308 822.406 331.103 820.58 329.5C789 301.8 714.14 234.11 683 189C643 131.09 624 95.0004 624 95.0004C624 95.0004 662.55 55.9304 685 43.0004C689.839 40.0936 695.356 38.5075 701 38.4004ZM701 30.4004C693.952 30.5088 687.056 32.4639 681 36.0704C657.87 49.3804 619.9 87.7504 618.3 89.3804L614.18 93.5504L616.91 98.7304C617.7 100.22 636.62 135.91 676.41 193.54C708.12 239.54 784.1 308.14 815.29 335.54C817.947 337.874 821.059 339.63 824.43 340.699C827.801 341.768 831.356 342.125 834.872 341.749C838.389 341.373 841.788 340.272 844.857 338.515C847.925 336.758 850.596 334.383 852.7 331.54L944.64 207.21L953.9 194.68L938.33 194.45C938.14 194.45 918.06 194.02 886.43 186.45C857.28 179.45 812.05 164.67 762.15 134.26C734.15 117.26 718.66 104.09 714.67 94.1204C711.8 86.9504 714.67 81.0404 721.82 69.2504C727.45 60.0104 728.2 50.3104 723.88 42.6304C719.56 34.9504 711.05 30.4004 701 30.4004Z" fill="#17091D"/>
<path id="Vector_47" d="M1069.82 302.881C1064.63 302.881 1061.82 296.171 1055.09 279.961C1044.17 253.701 1025.9 209.761 995.85 202.021C994.418 201.676 993.123 200.907 992.135 199.814C991.147 198.722 990.512 197.357 990.312 195.897C990.112 194.438 990.357 192.952 991.015 191.634C991.673 190.317 992.713 189.228 994 188.511C1004.41 182.671 1019.4 177.351 1033.89 172.201C1051.12 166.081 1068.89 159.751 1078.62 152.761C1081.74 150.501 1084.73 148.591 1087.62 146.761C1101.28 138.011 1109.52 132.761 1105.03 108.761C1104.29 104.841 1106.28 98.5407 1109.45 94.7607C1112.07 91.6007 1114.8 90.9307 1116.63 90.9307C1121.02 90.9307 1124.73 94.5007 1127.63 101.521C1148.63 152.041 1108.63 230.981 1087.06 273.381C1081.53 284.281 1077.15 292.901 1075.75 297.281C1074.31 301.901 1071.72 302.881 1069.82 302.881Z" fill="#FBDAFA"/>
<path id="Vector_48" d="M1116.67 94.8701C1118.96 94.8701 1121.51 97.0301 1124 103C1149.8 164.95 1079.09 273.89 1072 296C1071.37 298 1070.65 298.88 1069.82 298.88C1061.63 298.88 1043.07 210.04 996.82 198.15C996.169 197.991 995.581 197.639 995.133 197.141C994.685 196.642 994.397 196.02 994.309 195.355C994.22 194.691 994.334 194.015 994.636 193.416C994.938 192.818 995.413 192.324 996 192C1018.41 179.44 1062.51 169.36 1081 156C1099 143 1115 140 1109 108C1108.3 104.28 1111.9 94.8701 1116.67 94.8701ZM1116.67 86.8701C1114.68 86.9313 1112.72 87.436 1110.95 88.3476C1109.17 89.2592 1107.62 90.5547 1106.41 92.1401C1102.41 96.9201 1100.18 104.37 1101.14 109.47C1105.14 130.79 1098.98 134.73 1085.51 143.37C1082.57 145.25 1079.51 147.2 1076.32 149.51C1067.1 156.17 1049.56 162.4 1032.59 168.43C1017.94 173.64 1002.79 179.02 992.08 185.03C990.102 186.139 988.502 187.815 987.487 189.843C986.472 191.871 986.089 194.157 986.388 196.404C986.686 198.652 987.652 200.759 989.161 202.452C990.669 204.145 992.651 205.346 994.85 205.9C1022.97 213.13 1040.77 255.9 1051.4 281.49C1053.94 287.6 1056.14 292.88 1058.08 296.75C1059.87 300.29 1063.18 306.88 1069.82 306.88C1071.95 306.88 1077.18 306.06 1079.62 298.44C1080.93 294.36 1085.45 285.44 1090.69 275.13C1112.51 232.13 1153.14 152.13 1131.39 99.9201C1127.78 91.2601 1122.83 86.9201 1116.67 86.9201V86.8701Z" fill="#17091D"/>
</g>
<g id="tie">
<path id="Vector_49" d="M946.999 349.92C943.387 349.926 939.819 349.12 936.56 347.562C933.301 346.004 930.433 343.735 928.169 340.92L892.469 295.77C885.579 287.29 889.639 274.18 895.219 265.54L895.339 265.36L925.269 223.46C925.859 222.54 926.719 221.01 927.719 219.25C934.009 208.11 939.299 199.52 945.269 198.54L990.599 191.16L1024.23 225.85C1027.41 229.02 1033.85 240.29 1038.47 249.39C1048.93 269.97 1047.83 273.56 1047.3 275.29V275.48L1026.11 328.38C1024.68 332.997 1021.89 337.077 1018.11 340.092C1014.33 343.107 1009.74 344.918 1004.92 345.29L948.999 349.84C948.349 349.89 947.689 349.92 946.999 349.92Z" fill="#7E4282"/>
<path id="Vector_50" d="M988.999 196L1021 229C1026 234 1044.57 268.86 1043 274L1021.81 326.9C1020.65 330.689 1018.39 334.043 1015.3 336.527C1012.22 339.012 1008.46 340.511 1004.51 340.83L948.599 345.35C948.059 345.35 947.529 345.42 946.999 345.42C944.06 345.418 941.158 344.761 938.504 343.496C935.851 342.232 933.512 340.392 931.659 338.11L895.999 293C890.609 286.36 894.359 275.18 898.999 268L928.999 226C931.999 221.31 940.489 203.9 945.999 203L988.999 196ZM992.189 186.36L987.549 187.12L944.549 194.12C936.549 195.42 930.919 204.45 923.799 217.05C922.909 218.63 922.059 220.13 921.539 220.96L891.679 262.77L891.549 262.94L891.439 263.12C885.059 273 880.589 288.22 888.969 298.62L924.599 343.69V343.74C927.294 347.085 930.706 349.782 934.583 351.63C938.46 353.479 942.704 354.432 946.999 354.42C947.769 354.42 948.549 354.42 949.319 354.32L1005.23 349.8C1010.91 349.361 1016.34 347.234 1020.8 343.692C1025.27 340.15 1028.58 335.354 1030.3 329.92L1051.3 277.35L1051.45 276.99L1051.56 276.62C1052.63 273.12 1052 269.21 1049.25 262.21C1047.25 257.03 1044.42 251.28 1042.44 247.37C1041.44 245.37 1032.44 227.84 1027.38 222.7L995.379 189.7L992.109 186.33L992.189 186.36Z" fill="#17091D"/>
<path id="Vector_51" d="M938.219 346.19L913.499 650.5L1022.5 758.5L1069.5 781.5L1100.62 624.38L1017.9 339.75L938.219 346.19Z" fill="#7E4282" stroke="#17091D" stroke-width="9" stroke-miterlimit="10"/>
</g>
<g id="collar">
<path id="Vector_52" d="M1046.4 815.48C1044.88 815.482 1043.38 815.176 1041.98 814.581C1040.58 813.987 1039.31 813.116 1038.26 812.02L624.83 383.89C623.75 382.777 622.908 381.455 622.356 380.005C621.804 378.555 621.554 377.008 621.621 375.458C621.687 373.908 622.069 372.387 622.743 370.99C623.417 369.593 624.368 368.347 625.54 367.33L673.25 325.91C673.591 325.609 673.841 325.218 673.971 324.782C674.101 324.346 674.105 323.882 673.984 323.443C673.863 323.004 673.622 322.608 673.287 322.3C672.952 321.992 672.537 321.784 672.09 321.7L600 308.6C597.443 308.126 595.123 306.797 593.42 304.831C591.718 302.865 590.734 300.379 590.63 297.78C589.54 266.22 586.91 160.66 599.12 127.5C609.12 100.44 631.38 79.3604 643.78 69.2104C645.805 67.5286 648.357 66.6119 650.99 66.6204C653.605 66.6029 656.146 67.489 658.183 69.1289C660.22 70.7688 661.628 73.0619 662.17 75.6204C674.17 132.01 699.23 179.54 721.29 221.47C723.41 225.524 725.49 229.494 727.53 233.38C746.53 269.76 957.53 595.38 1037.01 717.94C1054.28 744.59 1066.77 763.84 1070.93 770.34C1072.55 772.843 1073.11 775.884 1072.5 778.8C1072.41 779.226 1072.27 779.637 1072.06 780.02L1057.49 807.02C1056.84 809.439 1055.41 811.575 1053.42 813.095C1051.43 814.615 1048.99 815.433 1046.49 815.42L1046.4 815.48Z" fill="#CE44A2"/>
<path id="Vector_53" d="M650.939 71.1104C652.528 71.104 654.069 71.6457 655.304 72.6441C656.54 73.6424 657.393 75.0362 657.719 76.5904C671.109 139.19 700.789 192 723.499 235.5C746.499 279.67 1042.94 735.16 1067.1 772.8C1068.1 774.312 1068.45 776.155 1068.1 777.93L1053.26 805.46C1052.94 807.028 1052.09 808.436 1050.85 809.443C1049.6 810.45 1048.05 810.994 1046.45 810.98C1045.53 810.981 1044.62 810.797 1043.78 810.438C1042.93 810.078 1042.17 809.552 1041.53 808.89L628.069 380.77C627.419 380.097 626.913 379.299 626.58 378.424C626.248 377.549 626.097 376.616 626.136 375.68C626.175 374.745 626.404 373.828 626.809 372.984C627.213 372.14 627.785 371.387 628.489 370.77L676.189 329.35C677.168 328.495 677.886 327.382 678.26 326.137C678.634 324.893 678.65 323.568 678.305 322.315C677.961 321.062 677.27 319.931 676.312 319.053C675.354 318.175 674.168 317.585 672.889 317.35L600.749 304.25C599.197 303.971 597.788 303.169 596.754 301.977C595.721 300.786 595.127 299.276 595.069 297.7C594.169 271.7 591.169 162.05 603.289 129.12C612.849 103.12 634.289 82.7904 646.569 72.7604C647.798 71.7414 649.343 71.1827 650.939 71.1804M650.939 62.1804C647.271 62.195 643.72 63.4695 640.879 65.7904C628.129 76.2404 605.189 97.9404 594.879 126C582.379 159.94 585.009 266.23 586.109 298C586.251 301.615 587.614 305.074 589.975 307.815C592.336 310.555 595.556 312.415 599.109 313.09L666.999 325.35L622.599 363.93C620.961 365.347 619.629 367.084 618.686 369.034C617.743 370.984 617.208 373.106 617.115 375.27C617.021 377.434 617.371 379.594 618.142 381.618C618.913 383.642 620.09 385.487 621.599 387.04L1035 815.13C1036.92 817.114 1039.32 818.564 1041.97 819.338C1044.62 820.111 1047.42 820.181 1050.11 819.542C1052.79 818.902 1055.26 817.574 1057.28 815.689C1059.29 813.804 1060.78 811.426 1061.6 808.79L1075.94 782.19C1076.36 781.424 1076.66 780.598 1076.83 779.74C1077.68 775.675 1076.9 771.438 1074.64 767.95C1070.47 761.45 1057.98 742.18 1040.64 715.5C961.299 593 750.349 267.53 731.469 231.34C729.429 227.44 727.346 223.47 725.219 219.43C703.289 177.75 678.439 130.51 666.509 74.7204C665.77 71.1445 663.815 67.9351 660.976 65.638C658.138 63.3409 654.591 62.0979 650.939 62.1204V62.1804Z" fill="#17091D"/>
<path id="Vector_54" d="M995.41 891.11C994.636 891.096 993.875 890.909 993.183 890.563C992.491 890.217 991.885 889.721 991.41 889.11C990.92 888.507 990.575 887.799 990.401 887.042C990.228 886.284 990.231 885.497 990.41 884.74C995.58 862.95 1022.02 752.23 1034.48 712.22C1048.78 666.31 1094.48 483.45 1100.54 427.48C1111.54 326.02 1120.06 236.73 1113.54 171.41C1110.8 143.93 1107.54 128.21 1105.22 119.85C1102.79 111.116 1103.89 101.775 1108.3 93.8504C1112.86 85.8504 1118.3 84.1504 1121.98 84.1504C1130.59 84.1504 1144.74 91.4304 1168.22 154.4C1173.4 168.29 1188.87 193.87 1202.51 216.4C1220.86 246.75 1231.25 264.27 1231.51 271.55C1231.72 276.9 1228.22 285.1 1199.13 301.05C1197.97 301.687 1197 302.623 1196.33 303.761C1195.66 304.899 1195.3 306.198 1195.3 307.52C1195.3 308.843 1195.66 310.141 1196.33 311.28C1197 312.418 1197.97 313.354 1199.13 313.99C1227.34 329.46 1242.9 343.11 1245.36 354.55C1246.69 360.74 1240.5 384.66 1226.96 425.64C1213.42 466.62 1195.43 515.59 1176.19 563.93C1146.44 638.64 1089.52 772.3 1042.29 828.56L999.6 888.94C999.125 889.61 998.497 890.156 997.768 890.533C997.039 890.911 996.23 891.109 995.41 891.11Z" fill="#CE44A2"/>
<path id="Vector_55" d="M1122 88.6709C1130.89 88.6709 1144.36 103.261 1164 156.001C1174.84 185.061 1226.55 259.071 1227 271.781C1227.27 278.961 1211.11 289.421 1197 297.181C1195.13 298.204 1193.57 299.71 1192.49 301.541C1191.41 303.373 1190.83 305.462 1190.83 307.591C1190.83 309.72 1191.41 311.809 1192.49 313.641C1193.57 315.472 1195.13 316.978 1197 318.001C1214.87 327.801 1238.25 342.821 1241 355.571C1245.5 376.501 1120 729.261 1038.76 825.881L995.929 886.341C995.873 886.427 995.796 886.498 995.705 886.547C995.614 886.596 995.512 886.621 995.409 886.621C995.311 886.622 995.213 886.601 995.124 886.558C995.034 886.516 994.956 886.454 994.894 886.377C994.833 886.3 994.789 886.21 994.768 886.113C994.746 886.017 994.747 885.917 994.769 885.821C999.629 865.371 1026.3 753.591 1038.77 713.601C1052.5 669.501 1098.84 485.001 1105 428.001C1116.57 321.001 1124.4 235.161 1118 171.001C1115.2 143.001 1111.82 127.001 1109.54 118.711C1107.4 111.12 1108.36 102.993 1112.19 96.1009C1114.52 92.0109 1117.72 88.6709 1121.97 88.6709M1121.97 79.6709C1117.05 79.6709 1109.97 81.7409 1104.38 91.6709C1099.4 100.638 1098.14 111.205 1100.88 121.091C1103.11 129.271 1106.34 144.731 1109.06 171.901C1115.54 236.791 1107.06 325.841 1096.06 427.041C1090.06 482.791 1044.44 665.131 1030.17 710.931C1017.68 751.041 991.169 861.931 986.019 883.761C985.68 885.177 985.667 886.651 985.981 888.073C986.294 889.495 986.926 890.827 987.83 891.969C988.733 893.11 989.883 894.032 991.194 894.665C992.506 895.298 993.943 895.625 995.399 895.621C996.937 895.616 998.452 895.245 999.817 894.537C1001.18 893.829 1002.36 892.805 1003.25 891.551L1045.87 831.391C1093.48 774.561 1150.56 640.571 1180.38 565.681C1199.66 517.251 1217.73 468.051 1231.25 427.131C1252.04 364.211 1250.45 356.841 1249.77 353.691C1248.07 345.761 1241.66 337.561 1230.19 328.611C1221.06 321.703 1211.41 315.524 1201.31 310.131C1200.84 309.89 1200.45 309.524 1200.19 309.073C1199.92 308.622 1199.78 308.105 1199.79 307.581C1199.78 307.064 1199.92 306.555 1200.18 306.112C1200.45 305.668 1200.83 305.308 1201.29 305.071C1232.29 288.071 1236.29 278.521 1236 271.461C1235.7 263.461 1227.18 248.631 1206.34 214.161C1192.79 191.761 1177.44 166.361 1172.41 152.871C1163.1 127.871 1154.34 109.291 1146.41 97.5309C1138.28 85.5309 1130.3 79.7009 1122 79.7009L1121.97 79.6709Z" fill="#17091D"/>
</g>
</g>
</g>
</svg>
