<svg width="1000" height="1000" viewBox="0 0 1000 1000" fill="none" xmlns="http://www.w3.org/2000/svg">
<path d="M725.706 986.098C721.03 986.098 715.711 983.887 710.57 981.734C708.815 981.007 707.162 980.316 705.603 979.749C703.147 978.854 701.403 978.44 700.109 978.44C699.896 978.439 699.682 978.453 699.47 978.48C698.844 978.568 698.213 978.613 697.581 978.614C693.973 978.614 690.641 977.116 688.668 974.614C687.865 973.613 687.304 972.44 687.029 971.186C686.754 969.932 686.773 968.631 687.084 967.385C687.113 967.276 687.135 967.167 687.157 967.051C688.21 961.563 691.655 945.233 693.555 939.134C694.231 936.953 693.239 933.916 692.189 930.694C690.855 926.593 689.337 921.942 691.204 917.967C691.313 917.738 691.422 917.523 691.535 917.305C694.645 911.353 703.717 899.825 705.734 897.305C705.636 894.996 705.334 886.593 705.599 877.691C706.243 856.142 709.505 852.709 710.581 851.582C710.975 851.133 711.459 850.772 712 850.522C712.542 850.271 713.13 850.137 713.727 850.127C717.113 850.127 726.444 846.971 733.91 844.433C738.997 842.702 743.84 841.065 746.845 840.36C748.273 840.019 749.737 839.844 751.205 839.84C755.202 839.84 758.421 841.2 761.015 842.291C762.926 843.098 764.576 843.796 766.054 843.796C766.566 843.799 767.073 843.708 767.551 843.527C767.818 843.43 768.1 843.379 768.383 843.378C770.745 843.378 771.835 846.487 772.743 851.16C773.419 854.647 774.037 859.487 774.56 865.545C775.374 874.683 775.766 883.927 775.846 885.909C777.914 889.673 794.013 919.803 791.833 941.473C791.175 948.04 788.875 953.243 784.999 956.942L784.755 957.167C783 958.785 781.224 960.327 779.465 961.76C775.226 965.259 770.665 968.348 765.844 970.985C756.165 976.189 749.723 976.749 747.401 976.749C746.887 976.753 746.373 976.721 745.864 976.651H745.74C745.565 976.656 745.392 976.685 745.225 976.738C744.051 977.076 742.412 978.236 740.501 979.578C737.315 981.833 733.347 984.64 728.511 985.793C727.591 986.002 726.65 986.105 725.706 986.098Z" fill="#CE44A2"/>
<path d="M751.201 841.472C757.767 841.472 761.938 845.425 766.04 845.425C766.745 845.431 767.446 845.308 768.107 845.061C768.191 845.03 768.28 845.014 768.369 845.014C772.729 845.014 774.233 886.374 774.233 886.374C774.233 886.374 792.447 918.919 790.22 941.327C789.646 947.036 787.749 952.083 783.883 955.77L783.651 955.989C781.873 957.625 780.137 959.13 778.444 960.505C774.288 963.943 769.814 966.975 765.081 969.559C756.702 974.065 750.482 975.13 747.412 975.13C746.979 975.134 746.547 975.107 746.118 975.047C745.998 975.029 745.877 975.021 745.755 975.021C745.428 975.025 745.102 975.075 744.789 975.17C741.155 976.214 735.669 982.421 728.144 984.207C727.348 984.389 726.534 984.478 725.717 984.472C719.813 984.472 712.23 980.447 706.17 978.239C703.881 977.403 701.81 976.832 700.12 976.832C699.831 976.831 699.542 976.85 699.256 976.887C698.703 976.965 698.146 977.004 697.588 977.003C691.895 977.003 687.473 972.836 688.679 967.789C688.712 967.654 688.744 967.516 688.77 967.363C689.929 961.334 693.304 945.469 695.121 939.643C696.938 933.818 689.733 924.981 692.69 918.679C692.785 918.479 692.883 918.279 692.988 918.079C696.385 911.578 707.398 897.847 707.398 897.847C707.398 897.847 705.153 851.767 713.735 851.767C719.686 851.767 739.626 843.734 747.227 841.949C748.536 841.636 749.877 841.478 751.223 841.476M751.223 838.203C749.633 838.209 748.048 838.397 746.5 838.763C743.419 839.49 738.561 841.134 733.42 842.879C726.44 845.247 716.877 848.49 713.76 848.49C712.942 848.498 712.134 848.676 711.388 849.013C710.642 849.351 709.975 849.84 709.429 850.45C707.383 852.603 704.593 857.759 704.001 877.639C703.75 886.039 704.001 893.81 704.11 896.759C701.505 900.054 693.13 910.803 690.118 916.559C690.009 916.77 689.896 916.999 689.755 917.261V917.283C687.614 921.847 689.235 926.825 690.666 931.214C691.593 934.054 692.549 936.985 692.025 938.661C690.107 944.818 686.641 961.243 685.587 966.741C685.587 966.741 685.587 966.763 685.587 966.774C685.587 966.847 685.558 966.919 685.54 966.996V967.021C685.17 968.507 685.148 970.058 685.476 971.554C685.803 973.049 686.472 974.449 687.429 975.643C689.711 978.552 693.522 980.265 697.624 980.265C698.334 980.264 699.043 980.214 699.746 980.116C699.882 980.099 700.02 980.09 700.157 980.09C701.247 980.09 702.853 980.487 705.091 981.305C706.613 981.858 708.252 982.538 709.989 983.261C715.279 985.443 720.75 987.73 725.754 987.73C726.824 987.734 727.891 987.612 728.933 987.367C734.092 986.145 738.201 983.236 741.508 980.898C743.135 979.745 744.818 978.552 745.726 978.294H745.784C746.337 978.366 746.894 978.4 747.452 978.396C749.897 978.396 756.662 977.818 766.665 972.439C771.58 969.754 776.229 966.606 780.548 963.039C782.328 961.585 784.13 960.025 785.903 958.392L785.936 958.363L786.187 958.127C790.343 954.163 792.81 948.614 793.508 941.65C794.489 931.832 792.011 919.258 786.15 904.258C783.64 897.834 780.756 891.563 777.514 885.476C777.405 882.865 777.009 874.087 776.239 865.403C775.694 859.29 775.065 854.392 774.379 850.858C774.066 849.054 773.586 847.282 772.947 845.567C771.919 843.021 770.404 841.752 768.42 841.749C767.941 841.749 767.466 841.835 767.017 842.003C766.72 842.115 766.405 842.17 766.087 842.167C764.939 842.167 763.431 841.53 761.684 840.792C758.962 839.643 755.576 838.214 751.249 838.214L751.223 838.203Z" fill="#17091D"/>
<path d="M699.245 976.88C701.062 976.626 703.46 977.244 706.148 978.233C713.077 980.756 721.993 985.655 728.123 984.2C735.647 982.415 741.137 976.2 744.767 975.164C745.197 975.027 745.652 974.984 746.1 975.04C748.4 975.404 755.249 974.829 765.063 969.553C769.796 966.968 774.27 963.936 778.426 960.498C780.122 959.121 781.857 957.616 783.633 955.982L783.865 955.764C786.906 952.811 788.952 947.764 790.202 941.32C792.436 918.913 774.215 886.367 774.215 886.367C774.215 886.367 772.653 843.356 768.089 845.055C762.469 847.153 757.44 839.542 747.198 841.946C739.597 843.731 719.657 851.764 713.706 851.764C705.124 851.764 707.369 897.844 707.369 897.844C707.369 897.844 696.356 911.575 692.959 918.076C692.854 918.276 692.756 918.476 692.661 918.676C694.939 916.593 706.199 906.611 714.487 905.444C723.744 904.142 746.642 903.298 754.857 901.302C763.072 899.306 769.888 910.007 772.805 922.866C774.76 931.451 779.661 942.215 777.26 950.386C776.068 954.451 773.074 957.873 767.021 960.076C766.385 960.309 765.76 960.531 765.154 960.746C756.245 963.855 749.697 965.156 744.491 966.306C739.767 967.346 736.156 968.258 732.864 970.266C727.527 973.538 718.661 979.542 704.524 975.356C699.852 973.971 694.598 971.462 688.708 967.356C688.683 967.509 688.65 967.647 688.617 967.782C687.346 973.313 692.781 977.789 699.245 976.88Z" fill="#9C398C"/>
<path d="M700.19 941.851C700.6 941.131 701.515 940.879 702.235 941.288C709.015 945.144 712.836 950 714.959 953.926C716.018 955.884 716.652 957.606 717.023 958.852C717.209 959.474 717.329 959.979 717.404 960.336C717.441 960.514 717.468 960.656 717.485 960.757C717.494 960.807 717.5 960.847 717.505 960.877C717.507 960.892 717.509 960.904 717.51 960.914C717.511 960.919 717.512 960.922 717.512 960.926C717.513 960.927 717.512 960.929 717.512 960.931L717.513 960.933C717.513 960.933 717.499 960.937 716.027 961.138L717.513 960.935C717.625 961.755 717.051 962.511 716.23 962.623C715.409 962.735 714.653 962.161 714.541 961.34V961.339C714.54 961.337 714.54 961.335 714.54 961.333C714.538 961.32 714.535 961.297 714.529 961.264C714.518 961.198 714.498 961.093 714.468 960.952C714.409 960.67 714.308 960.247 714.148 959.709C713.827 958.633 713.268 957.105 712.32 955.353C710.429 951.856 706.984 947.439 700.753 943.895C700.033 943.486 699.781 942.571 700.19 941.851Z" fill="#17091D"/>
<path d="M708.064 949.11C708.586 948.467 709.53 948.368 710.173 948.889C710.817 949.411 710.915 950.353 710.394 950.997L710.395 950.998C710.395 950.998 710.393 951 710.391 951.003C710.387 951.008 710.38 951.017 710.371 951.029C710.351 951.054 710.32 951.094 710.279 951.147C710.196 951.255 710.073 951.42 709.918 951.637C709.607 952.07 709.169 952.712 708.674 953.526C707.682 955.16 706.475 957.469 705.596 960.179C703.842 965.589 703.428 972.45 708.465 978.874C708.977 979.526 708.862 980.469 708.211 980.98C707.559 981.491 706.616 981.377 706.105 980.725C700.243 973.251 700.801 965.24 702.743 959.253C703.712 956.264 705.034 953.741 706.11 951.97C706.649 951.082 707.13 950.376 707.479 949.888C707.654 949.645 707.796 949.455 707.896 949.324C707.946 949.258 707.986 949.208 708.014 949.172C708.028 949.154 708.04 949.14 708.048 949.13C708.053 949.125 708.056 949.12 708.058 949.117C708.059 949.116 708.06 949.114 708.061 949.113L708.063 949.111C708.066 949.113 708.123 949.158 709.213 950.042L708.064 949.11Z" fill="#17091D"/>
<path d="M739.074 947.864C739.84 947.548 740.716 947.911 741.033 948.677L739.648 949.25C741.028 948.679 741.034 948.676 741.034 948.677V948.678C741.035 948.679 741.035 948.68 741.035 948.682C741.036 948.684 741.038 948.688 741.04 948.692C741.044 948.702 741.05 948.715 741.057 948.732C741.071 948.767 741.092 948.818 741.118 948.884C741.171 949.016 741.248 949.21 741.345 949.458C741.538 949.954 741.81 950.67 742.129 951.56C742.767 953.337 743.595 955.813 744.358 958.605C745.862 964.104 747.203 971.136 746.074 976.442C745.902 977.253 745.105 977.77 744.295 977.598C743.485 977.425 742.968 976.629 743.14 975.818C744.104 971.285 742.964 964.876 741.465 959.396C740.727 956.698 739.924 954.298 739.305 952.573C738.995 951.711 738.733 951.019 738.549 950.545C738.457 950.308 738.383 950.125 738.334 950.003C738.31 949.942 738.292 949.896 738.279 949.866C738.273 949.852 738.269 949.84 738.266 949.833C738.264 949.83 738.262 949.827 738.262 949.825V949.823C737.945 949.058 738.309 948.181 739.074 947.864Z" fill="#17091D"/>
<path d="M761.841 949.211C762.612 948.906 763.484 949.285 763.788 950.055L762.392 950.606C763.787 950.055 763.788 950.056 763.788 950.056V950.057C763.788 950.058 763.789 950.059 763.79 950.06C763.791 950.063 763.792 950.067 763.794 950.071C763.797 950.08 763.803 950.093 763.809 950.11C763.822 950.143 763.84 950.191 763.864 950.254C763.911 950.378 763.979 950.559 764.062 950.789C764.229 951.249 764.46 951.909 764.721 952.718C765.242 954.333 765.887 956.557 766.372 958.976C766.855 961.385 767.192 964.048 767.066 966.522C766.941 968.969 766.353 971.439 764.782 973.248C764.239 973.873 763.291 973.939 762.666 973.396C762.04 972.853 761.974 971.906 762.517 971.281C763.453 970.204 763.96 968.524 764.07 966.369C764.178 964.241 763.888 961.85 763.43 959.566C762.974 957.292 762.364 955.184 761.866 953.639C761.617 952.869 761.398 952.242 761.242 951.811C761.164 951.596 761.101 951.429 761.059 951.318C761.038 951.263 761.022 951.221 761.011 951.194C761.006 951.18 761.002 951.17 761 951.164C760.999 951.161 760.998 951.159 760.998 951.158L760.997 951.157C760.693 950.386 761.071 949.515 761.841 949.211Z" fill="#17091D"/>
<path d="M776.556 948.705C777.315 948.374 778.198 948.722 778.529 949.482L777.154 950.08C778.529 949.481 778.53 949.482 778.53 949.483V949.484C778.531 949.484 778.532 949.485 778.532 949.486C778.533 949.489 778.535 949.492 778.536 949.495C778.539 949.502 778.543 949.512 778.548 949.524C778.558 949.547 778.572 949.58 778.589 949.622C778.623 949.706 778.671 949.826 778.729 949.978C778.846 950.28 779.003 950.712 779.173 951.241C779.51 952.296 779.904 953.766 780.116 955.396C780.528 958.558 780.31 962.855 776.927 965.57C776.281 966.089 775.337 965.985 774.818 965.339C774.3 964.693 774.404 963.749 775.05 963.231C777.153 961.542 777.518 958.679 777.141 955.782C776.959 954.383 776.616 953.097 776.315 952.155C776.166 951.687 776.027 951.31 775.929 951.053C775.879 950.925 775.84 950.826 775.814 950.763C775.801 950.731 775.792 950.708 775.786 950.694L775.778 950.678H775.779C775.449 949.919 775.796 949.036 776.556 948.705Z" fill="#17091D"/>
<path d="M728.537 969.817C731.145 969.817 733.26 965.177 733.26 959.453C733.26 953.73 731.145 949.09 728.537 949.09C725.928 949.09 723.813 953.73 723.813 959.453C723.813 965.177 725.928 969.817 728.537 969.817Z" fill="#D969BD"/>
<path d="M754.353 959.68C756.881 959.032 758.022 954.959 756.903 950.581C755.784 946.204 752.828 943.179 750.301 943.826C747.774 944.473 746.632 948.547 747.751 952.925C748.87 957.302 751.826 960.327 754.353 959.68Z" fill="#D969BD"/>
<path d="M770.456 952.196C772.639 951.637 773.776 948.708 772.995 945.653C772.215 942.599 769.812 940.575 767.629 941.134C765.446 941.693 764.309 944.623 765.09 947.677C765.87 950.732 768.273 952.755 770.456 952.196Z" fill="#D969BD"/>
<path d="M500.727 588.909C500.471 588.909 500.218 588.849 499.99 588.733C499.761 588.617 499.563 588.45 499.412 588.243C499.186 587.938 476.83 557.505 454.791 527.392C441.845 509.705 431.537 495.585 424.158 485.429C419.776 479.396 416.39 474.712 414.094 471.505C410.159 466.007 409.81 465.519 410.053 464.77C410.115 462.698 409.439 446.323 408.985 436.196C408.976 435.979 409.01 435.762 409.085 435.559C409.161 435.355 409.276 435.169 409.425 435.01L420.993 422.578C421.127 422.428 421.287 422.305 421.466 422.214C422.018 421.941 435.349 415.545 466.733 415.545C470.149 415.545 473.706 415.621 477.295 415.778C500.363 416.774 517.622 418.93 531.61 422.57C549.348 427.189 562.345 434.316 571.344 444.363C572.66 445.818 574.207 449.392 574.505 464.021C574.676 472.498 574.396 483.727 573.673 497.396C572.442 520.632 570.323 543.214 570.302 543.425C570.28 543.67 570.203 543.907 570.077 544.119C569.952 544.33 569.78 544.511 569.575 544.647L501.632 588.647C501.363 588.822 501.048 588.913 500.727 588.909Z" fill="#CE44A2"/>
<path d="M466.733 417.192C470.028 417.192 473.525 417.268 477.226 417.421C516.168 419.09 551.23 424.363 570.123 445.454C577.161 453.312 568.67 543.272 568.67 543.272L500.727 587.272C500.727 587.272 411.434 465.723 411.663 465.134C411.892 464.545 410.62 436.123 410.62 436.123L422.189 423.694C422.189 423.694 435.37 417.192 466.733 417.192ZM466.733 413.919C434.974 413.919 421.317 420.465 420.743 420.755C420.388 420.931 420.068 421.17 419.798 421.461L408.226 433.894C407.93 434.212 407.7 434.587 407.551 434.995C407.401 435.403 407.334 435.837 407.354 436.272C407.801 446.239 408.473 462.505 408.418 464.683C408.323 465.626 408.582 466.571 409.145 467.334C409.323 467.603 409.577 467.977 409.923 468.472C410.555 469.381 411.507 470.723 412.746 472.472C415.046 475.683 418.435 480.37 422.817 486.406C430.2 496.563 440.504 510.683 453.453 528.374C475.511 558.472 497.867 588.908 498.093 589.21C498.586 589.882 499.317 590.341 500.137 590.491C500.957 590.642 501.803 590.474 502.503 590.021L570.447 546.021C570.861 545.752 571.21 545.393 571.466 544.971C571.722 544.548 571.879 544.073 571.926 543.581C571.947 543.355 574.069 520.752 575.301 497.483C576.028 483.774 576.307 472.505 576.137 463.985C575.828 448.908 574.156 445.05 572.558 443.257C563.336 432.966 550.075 425.675 532.017 420.977C517.916 417.305 500.552 415.134 477.368 414.141C473.735 413.985 470.174 413.908 466.733 413.908V413.919Z" fill="#17091D"/>
<path d="M491.92 995.523C460.31 995.523 425.989 993.796 389.965 990.385C377.39 989.196 364.629 987.796 352.025 986.225C349.259 985.876 346.627 985.538 344.13 985.21L342.143 984.949L338.713 984.487L337.804 984.363C337.241 984.287 336.675 984.21 336.119 984.127C335.853 984.094 335.574 984.054 335.297 984.014C333.117 983.716 331.116 983.425 329.266 983.156L328.903 983.101L328.321 983.018C327.595 982.916 326.908 982.81 326.236 982.708L325.106 982.541L324.241 982.41L324.009 982.378L323.351 982.276C322.228 982.109 321.222 981.949 320.339 981.81L319.638 981.701L319.394 981.665H319.34L318.842 981.585L318.62 981.552C318.468 981.523 318.352 981.505 318.239 981.49L317.305 981.338C317.262 981.332 317.22 981.323 317.178 981.312C316.212 981.159 315.725 981.072 315.725 981.072C315.311 981 314.941 980.77 314.692 980.432C314.443 980.093 314.334 979.671 314.388 979.254L314.58 977.763V977.698C314.627 977.334 314.678 976.93 314.736 976.483L314.776 976.167C314.776 976.043 314.809 975.909 314.827 975.763L314.907 975.181C314.907 975.065 314.969 974.687 314.969 974.687L315.023 974.279C315.023 974.156 315.056 973.992 315.078 973.829L315.572 970.025C315.594 969.843 315.619 969.661 315.645 969.439L315.768 968.487C315.914 967.363 316.066 966.174 316.233 964.916L316.455 963.189C316.666 961.552 316.891 959.807 317.131 957.963L317.741 953.258C317.788 952.894 317.839 952.483 317.894 952.087L318.152 950.087L318.283 949.094L319.031 943.316C319.147 942.439 319.264 941.556 319.394 940.658L320.612 931.287C320.784 929.992 320.954 928.684 321.124 927.363L321.596 923.727C322.101 919.883 322.617 915.923 323.144 911.876L323.613 908.287C323.7 907.618 323.791 906.941 323.878 906.265L326.647 885.105C326.716 884.61 326.781 884.138 326.843 883.65L326.952 882.818C327.155 881.261 327.36 879.704 327.566 878.145L327.816 876.247C328.064 874.352 328.314 872.45 328.565 870.552C342.008 768.538 342.931 766.258 343.229 765.509C343.271 765.4 343.305 765.288 343.331 765.174L343.393 764.894C343.391 764.876 343.391 764.858 343.393 764.839C343.44 764.61 343.491 764.319 343.552 763.919L343.614 763.479L343.647 763.239C343.647 763.112 343.705 762.749 343.709 762.719L343.73 762.534C343.73 762.512 343.796 761.912 343.807 761.778L343.872 761.09C343.894 760.858 343.912 760.625 343.93 760.363C343.93 760.363 343.93 760.338 343.93 760.327C343.93 760.229 343.948 760.127 343.956 760.029L343.978 759.723C344.014 759.276 344.047 758.814 344.079 758.338C344.079 758.338 344.119 757.749 344.126 757.61L344.166 756.956C344.166 756.916 344.166 756.861 344.166 756.799L344.188 756.436C344.21 756.072 344.232 755.661 344.25 755.258C344.283 754.705 344.305 754.167 344.334 753.589C344.334 753.33 344.355 753.069 344.37 752.799L344.413 751.65C344.413 751.428 344.413 751.232 344.439 751.029C344.439 751.029 344.439 750.956 344.439 750.941C344.439 750.778 344.439 750.61 344.457 750.443V750.403C344.457 750.25 344.457 750.098 344.457 749.945C344.523 748.127 344.573 746.498 344.613 745.007C344.613 744.716 344.632 744.432 344.639 744.152V744.069C344.639 743.843 344.639 743.629 344.657 743.418L344.708 741.236V740.483L344.737 739.229V738.458C344.759 737.189 344.78 735.945 344.799 734.734C344.799 734.403 344.799 734.072 344.799 733.752L344.839 730.996V730.189V729.461L344.86 727.083C344.86 726.818 344.86 726.559 344.86 726.305V725.836C344.86 724.898 344.86 724.061 344.879 723.327V723.134C344.879 722.152 344.879 721.37 344.879 720.832C344.657 720.665 344.439 720.498 344.232 720.33C344.116 720.239 343.981 720.134 343.869 720.025C343.574 719.785 343.313 719.563 343.073 719.345C342.949 719.239 342.826 719.123 342.709 719.007L342.346 718.643L342.215 718.516C342.128 718.436 342.041 718.352 341.957 718.265C341.874 718.178 341.718 718.029 341.594 717.901L341.249 717.538C341.136 717.421 341.016 717.29 340.886 717.156C340.755 717.021 340.664 716.912 340.548 716.792C340.431 716.672 340.326 716.541 340.213 716.407C340.003 716.159 339.796 715.905 339.592 715.654L339.498 715.538C339.32 715.305 339.134 715.069 338.967 714.832C338.856 714.687 338.75 714.541 338.651 714.396L338.422 714.072C338.386 714.025 338.349 713.974 338.317 713.923C338.15 713.676 337.986 713.429 337.826 713.178L337.568 712.767C337.416 712.519 337.27 712.276 337.129 712.039L337.02 711.85C336.954 711.734 336.885 711.614 336.823 711.487C336.7 711.265 336.569 711.021 336.46 710.781L336.297 710.465C336.18 710.232 336.068 710.01 335.962 709.781C335.89 709.632 335.817 709.469 335.744 709.309L335.534 708.843C335.457 708.672 335.37 708.479 335.29 708.269C335.268 708.21 335.17 707.978 335.17 707.978C335.094 707.789 335.021 707.614 334.956 707.432L334.807 707.029C334.752 706.89 334.698 706.738 334.643 706.578C334.538 706.283 334.429 705.97 334.331 705.654L334.193 705.21C334.142 705.054 334.095 704.898 334.051 704.738C333.982 704.505 333.917 704.272 333.855 704.032C333.793 703.792 333.695 703.432 333.619 703.119L333.47 702.461C333.441 702.349 333.415 702.229 333.394 702.098V702.021L333.339 701.763C333.317 701.658 333.296 701.549 333.277 701.443C333.219 701.138 333.165 700.836 333.11 700.53C333.048 700.167 332.99 699.803 332.947 699.439C332.91 699.189 332.874 698.919 332.845 698.643C332.827 698.498 332.805 698.33 332.79 698.17V698.087C332.761 697.796 332.736 697.519 332.714 697.247C332.692 696.974 332.66 696.578 332.645 696.239C332.645 696.079 332.623 695.927 332.62 695.767V695.741C332.62 695.458 332.598 695.17 332.591 694.89V694.847C332.591 694.578 332.591 694.279 332.591 693.978C332.588 691.18 332.875 688.389 333.448 685.65C333.503 685.392 333.55 685.149 333.601 684.923L333.637 684.741C334.818 678.839 334.578 677.043 334.098 673.469C333.579 669.754 333.275 666.011 333.19 662.261C333.176 661.662 333.157 661.084 333.136 660.527C329.295 676.727 319.787 708.043 318.025 713.752C318.388 715.999 320.306 728.298 324.953 769.127C329.139 805.883 326.171 848.559 324.699 865.203C324.579 866.567 324.474 867.683 324.394 868.527C324.278 869.738 324.205 870.381 324.205 870.381C324.159 870.781 323.969 871.15 323.669 871.418C323.37 871.686 322.983 871.835 322.581 871.836C322.459 871.835 322.337 871.822 322.217 871.796C316.172 870.436 309.993 869.759 303.796 869.778C283.472 869.778 264.244 876.687 251.691 882.505C238.037 888.825 229.102 895.232 229.012 895.301C228.733 895.502 228.399 895.61 228.056 895.61C227.831 895.612 227.608 895.565 227.402 895.472C227.141 895.358 226.914 895.179 226.744 894.95C226.574 894.722 226.466 894.453 226.432 894.17L226.406 893.967C226.405 893.976 226.405 893.986 226.406 893.996C226.406 893.967 226.406 893.941 226.406 893.912L226.385 893.738V893.767C226.37 893.698 226.36 893.629 226.356 893.559V893.509C226.356 893.454 226.337 893.396 226.33 893.338C226.29 893.05 226.243 892.694 226.192 892.276L225.974 890.61C225.974 890.501 225.952 890.425 225.941 890.349C225.94 890.328 225.94 890.307 225.941 890.287C225.941 890.218 225.941 890.152 225.912 890.079L225.876 889.799C225.857 889.654 225.838 889.505 225.821 889.352C225.821 889.352 225.785 889.069 225.771 888.963C225.771 888.93 225.749 888.818 225.745 888.792C225.72 888.589 225.698 888.392 225.669 888.196L225.643 887.956C225.593 887.549 225.244 884.803 225.244 884.803C225.2 884.461 225.153 884.076 225.102 883.712C225.102 883.712 225.102 883.574 225.102 883.567C224.877 881.789 224.633 879.832 224.375 877.723C222.297 860.669 218.649 828.825 217.581 807.178C216.974 794.901 216.571 772.192 216.382 739.676C216.204 708.472 216.295 679.269 216.295 678.974C216.29 678.903 216.29 678.831 216.295 678.759C219.027 658.669 224.023 630.567 227.736 610.534C231.344 591.036 234.316 575.989 234.349 575.843C234.36 575.78 234.375 575.718 234.396 575.658C234.458 575.461 234.527 575.247 234.603 575.025C238.981 561.985 260.222 511.814 270.802 498.749L271.165 498.323C272.154 497.159 273.6 495.923 275.613 494.516C295.233 480.796 381.499 457.934 385.161 456.967C385.269 456.937 385.38 456.92 385.492 456.916C387.094 456.829 545.915 448.439 561.494 448.439C562.701 448.439 563.038 448.476 563.405 448.647C563.576 448.727 564.274 449.01 565.716 449.592L565.789 449.621L566.719 449.985C569.088 450.93 572.681 452.341 577.114 454.072L579.715 455.09C589.002 458.709 601.152 463.418 605.396 465.014C609.723 466.647 618.839 470.283 633.264 476.138C638.416 478.229 643.709 480.381 648.687 482.41C663.242 488.349 674.444 514.41 680.457 528.396C681.394 530.578 682.205 532.458 682.8 533.716C684.548 537.396 688.443 546.254 693.37 557.469C700.16 572.923 708.612 592.156 714.959 605.792C724.595 626.494 724.733 626.647 731.814 634.712C732.672 635.683 733.631 636.77 734.721 638.018C739.081 643.043 750.537 686.745 767.526 752.81C771.857 769.65 775.948 785.559 779.636 799.519C783.564 814.381 789.083 834.85 791.673 840.999C798.54 857.33 795.336 866.149 795.198 866.516C795.114 866.766 794.971 866.991 794.781 867.174C794.592 867.356 794.36 867.49 794.108 867.563C793.963 867.602 793.814 867.621 793.664 867.621C793.318 867.624 792.981 867.503 792.716 867.279C792.353 867.076 789.257 865.53 776.58 863.574C775.887 863.474 775.188 863.427 774.488 863.432C770.52 863.432 764.576 864.636 756.822 867.014C733.867 874.058 714.458 884.421 699.132 897.825C697.966 898.894 696.626 899.755 695.168 900.37C694.352 900.707 693.479 900.886 692.596 900.898C686.619 900.898 684.922 892.534 684.443 887.556V887.429C683.178 875.334 681.296 862.381 678.847 848.923C678.847 848.923 678.847 848.887 678.847 848.869C670.218 801.458 656.259 756.123 646.064 726.439C643.313 718.439 640.556 710.745 637.867 703.581C635.265 696.672 632.748 690.269 630.709 685.443C630.778 685.919 630.847 686.396 630.916 686.865C631.556 691.279 632.37 696.77 632.762 702.432V702.469C632.762 702.599 632.762 702.727 632.788 702.858V702.909C633.234 709.552 629.452 715.719 621.542 721.239C619.491 722.649 617.362 723.942 615.166 725.112C614.803 725.316 614.439 725.501 614.207 725.639C613.934 726.799 613.705 732.061 617.557 755.752C618.668 762.589 620.064 770.589 621.699 779.53L621.8 780.079C622.055 781.478 622.315 782.896 622.582 784.334C625.488 799.97 635.963 837.178 646.089 873.145C660.622 924.716 669.368 956.418 668.569 961.785C668.26 963.847 666.28 966.814 653.563 971.483C646.376 974.119 636.486 977.043 624.169 980.174C603.245 985.494 582.233 989.629 582.023 989.672H581.95C555.659 993.559 525.383 995.523 491.92 995.523Z" fill="#CE44A2"/>
<path d="M561.465 450.073C561.873 450.052 562.282 450.071 562.686 450.127C562.937 450.244 563.776 450.593 565.08 451.109L566.09 451.505C568.634 452.52 572.336 453.975 576.489 455.593L579.087 456.611C589.155 460.535 600.829 465.051 604.785 466.542C609.81 468.436 620.859 472.88 632.617 477.651C637.769 479.742 643.059 481.895 648.037 483.924C664.365 490.582 677.103 525.633 681.293 534.415C685.482 543.196 702.555 583.087 713.444 606.48C724.333 629.873 723.279 627.367 733.427 639.087C739.241 645.815 762.657 741.873 777.997 799.934C783.418 820.451 787.829 836.222 790.107 841.633C796.8 857.545 793.61 865.931 793.61 865.931C793.61 865.931 791.197 864.178 776.787 861.953C776.011 861.84 775.228 861.787 774.444 861.793C769.87 861.793 763.348 863.287 756.299 865.429C735.055 871.945 714.745 881.938 698.013 896.571C696.989 897.52 695.811 898.288 694.529 898.84C693.908 899.106 693.242 899.252 692.567 899.273C686.979 899.273 686.121 888.171 686.027 887.273C684.693 874.545 682.757 861.574 680.413 848.647C672.155 803.244 658.693 758.349 647.561 725.931C644.61 717.349 641.827 709.64 639.346 703.022C636.243 694.753 633.612 688.2 631.716 683.8C629.957 679.684 628.845 677.444 628.616 677.444C627.348 678.327 630.193 690.076 631.087 702.567C631.087 702.72 631.087 702.873 631.116 703.025C631.625 710.578 625.79 716.262 620.58 719.905C617.073 722.36 613.843 723.905 613 724.451C611.602 725.396 612.92 737.491 615.932 756.007C617.084 763.091 618.476 771.116 620.078 779.818C620.369 781.396 620.664 782.999 620.965 784.625C627.261 818.534 668.441 951.444 666.941 961.538C665.44 971.633 581.699 988.058 581.699 988.058C553.032 992.287 522.156 993.876 491.956 993.876C455.317 993.876 419.674 991.542 390.154 988.745C375.904 987.396 363.082 985.938 352.265 984.589C349.504 984.242 346.876 983.905 344.381 983.578L342.426 983.32H342.397L339.49 982.927L338.084 982.734C337.514 982.658 336.954 982.582 336.406 982.502L335.588 982.389C333.408 982.088 331.396 981.802 329.553 981.531L328.601 981.393L326.138 981.029L325.378 980.916L324.492 980.782L324.292 980.753L323.627 980.651C322.225 980.44 321.004 980.247 319.976 980.087L319.645 980.036L318.918 979.92L318.508 979.854L317.614 979.709H317.549C316.553 979.553 316.034 979.462 316.034 979.462C316.034 979.462 316.099 978.953 316.226 977.982V977.876C316.27 977.534 316.321 977.142 316.379 976.698L316.422 976.371C316.422 976.247 316.451 976.124 316.47 976.007C316.495 975.814 316.52 975.611 316.549 975.404C316.579 975.196 316.589 975.08 316.611 974.909C316.633 974.738 316.648 974.64 316.666 974.502C316.684 974.364 316.698 974.218 316.72 974.073C316.746 973.869 316.775 973.662 316.8 973.447C316.869 972.898 316.946 972.316 317.025 971.698C317.047 971.542 317.065 971.385 317.087 971.229C317.127 970.913 317.171 970.585 317.214 970.251C317.258 969.916 317.302 969.578 317.345 969.229C317.367 969.054 317.392 968.865 317.414 968.698C317.557 967.588 317.711 966.404 317.876 965.145C317.948 964.582 318.021 964.007 318.097 963.414C318.308 961.778 318.533 960.033 318.773 958.189C318.799 957.985 318.828 957.782 318.853 957.574C318.969 956.673 319.09 955.748 319.216 954.8C319.274 954.367 319.329 953.931 319.387 953.487C319.452 952.971 319.522 952.447 319.591 951.916C319.66 951.385 319.729 950.851 319.798 950.309C319.867 949.767 319.939 949.218 320.012 948.669C320.225 947.011 320.447 945.302 320.677 943.542C320.793 942.664 320.908 941.776 321.022 940.876C321.335 938.474 321.657 935.995 321.989 933.44C322.072 932.8 322.156 932.16 322.239 931.513C322.409 930.223 322.58 928.915 322.752 927.589C322.908 926.385 323.064 925.174 323.224 923.953C323.729 920.109 324.245 916.149 324.772 912.102L325.055 909.92C325.204 908.778 325.357 907.633 325.506 906.48C325.782 904.383 326.059 902.265 326.338 900.127C326.832 896.349 327.333 892.524 327.838 888.673C327.973 887.644 328.111 886.607 328.245 885.571L328.278 885.313C328.343 884.833 328.409 884.353 328.47 883.858C328.713 882.028 328.955 880.195 329.197 878.36L329.448 876.462C329.69 874.564 329.94 872.665 330.196 870.767C336.991 819.262 343.861 768.367 344.759 766.116C344.826 765.941 344.882 765.761 344.926 765.578C344.926 765.524 344.951 765.469 344.966 765.411C344.98 765.353 344.998 765.269 345.013 765.193C345.078 764.895 345.137 764.549 345.195 764.164C345.195 764.091 345.206 764.014 345.227 763.935L345.26 763.702L345.293 763.454C345.293 763.309 345.329 763.16 345.347 763.004C345.347 762.982 345.347 762.96 345.347 762.938C345.347 762.851 345.369 762.76 345.376 762.669C345.378 762.644 345.378 762.618 345.376 762.593C345.398 762.382 345.424 762.164 345.445 761.935C345.467 761.705 345.489 761.476 345.511 761.236C345.533 760.996 345.554 760.753 345.573 760.509C345.573 760.393 345.594 760.276 345.602 760.145L345.623 759.865C345.66 759.415 345.692 758.945 345.725 758.462C345.725 758.218 345.758 757.971 345.772 757.735C345.787 757.498 345.801 757.276 345.816 757.044C345.814 757.018 345.814 756.993 345.816 756.967C345.845 756.447 345.878 755.916 345.903 755.367C345.929 754.818 345.958 754.276 345.983 753.694C345.983 753.44 346.005 753.185 346.019 752.924C346.019 752.534 346.052 752.142 346.067 751.742C346.067 751.52 346.067 751.298 346.092 751.073C346.118 750.847 346.092 750.709 346.114 750.509C346.136 750.309 346.114 750.182 346.114 750.018C346.172 748.407 346.227 746.745 346.27 745.084C346.27 744.771 346.288 744.454 346.296 744.142C346.296 743.92 346.296 743.698 346.314 743.48C346.332 742.753 346.346 742.025 346.365 741.316C346.365 741.058 346.365 740.8 346.365 740.545C346.365 740.134 346.383 739.724 346.394 739.313C346.394 739.047 346.394 738.782 346.394 738.52C346.415 737.255 346.437 736.011 346.455 734.8C346.455 734.476 346.455 734.149 346.455 733.829C346.455 733.371 346.463 732.92 346.477 732.476C346.477 732.276 346.477 732.076 346.477 731.88V731.058C346.477 730.789 346.477 730.52 346.477 730.251V729.542C346.477 728.742 346.485 727.976 346.499 727.244C346.499 726.942 346.499 726.647 346.499 726.36C346.499 726.204 346.499 726.044 346.499 725.891C346.499 724.884 346.499 723.978 346.517 723.196C346.517 722.215 346.517 721.429 346.517 720.887C346.517 720.353 346.517 720.062 346.517 720.062C346.296 719.905 346.081 719.749 345.867 719.589C345.652 719.429 345.453 719.273 345.253 719.113L344.908 718.833C344.65 718.622 344.395 718.407 344.148 718.185L343.785 717.854L343.422 717.52L343.058 717.178L342.713 716.833L342.379 716.469C342.266 716.353 342.157 716.233 342.048 716.105C341.939 715.978 341.834 715.869 341.728 715.742C341.623 715.615 341.514 715.498 341.412 715.378C341.205 715.135 341.005 714.887 340.806 714.651L340.744 714.575C340.569 714.349 340.399 714.124 340.228 713.895C340.133 713.767 340.039 713.64 339.952 713.531L339.77 713.091C339.758 713.079 339.749 713.066 339.741 713.051C339.574 712.804 339.41 712.556 339.251 712.324L339 711.927C338.858 711.698 338.72 711.469 338.586 711.236C338.491 711.069 338.393 710.902 338.302 710.735C338.211 710.567 338.059 710.287 337.939 710.062L337.775 709.745C337.67 709.538 337.568 709.331 337.47 709.12C337.372 708.909 337.321 708.8 337.249 708.64C337.176 708.48 337.121 708.36 337.06 708.218C336.998 708.076 336.9 707.854 336.827 707.673C336.784 707.571 336.744 707.465 336.7 707.364C336.635 707.206 336.573 707.05 336.515 706.895L336.369 706.502C336.315 706.356 336.264 706.215 336.213 706.069C336.106 705.778 336.008 705.487 335.919 705.196C335.872 705.051 335.824 704.905 335.781 704.756C335.737 704.607 335.69 704.465 335.65 704.316C335.581 704.091 335.519 703.865 335.457 703.636C335.377 703.349 335.305 703.062 335.236 702.771L335.083 702.098C335.061 702.018 335.043 701.935 335.029 701.855C335.014 701.775 334.974 701.604 334.952 701.491C334.931 701.378 334.912 701.305 334.898 701.215C334.84 700.913 334.785 700.615 334.734 700.316C334.683 700.018 334.622 699.629 334.578 699.287C334.542 699.029 334.509 698.775 334.48 698.516C334.48 698.367 334.444 698.215 334.429 698.065V697.967C334.404 697.702 334.378 697.433 334.356 697.167C334.327 696.844 334.306 696.516 334.291 696.193C334.291 696.055 334.284 695.916 334.269 695.778C334.269 695.487 334.247 695.193 334.24 694.902C334.24 694.616 334.24 694.328 334.24 694.04C334.238 691.352 334.514 688.671 335.061 686.04C335.13 685.72 335.192 685.411 335.254 685.109C337.299 674.884 335.232 676.153 334.84 662.247C334.745 658.782 334.589 656.371 334.415 654.709C334.386 654.422 334.356 654.156 334.324 653.913V653.836C334.324 653.738 334.298 653.64 334.284 653.549C334.269 653.458 334.258 653.367 334.244 653.28C334.229 653.193 334.215 653.084 334.197 652.989V652.927L334.175 652.807C334.175 652.738 334.149 652.669 334.135 652.604C334.12 652.538 334.098 652.425 334.08 652.345C334.062 652.265 334.051 652.229 334.04 652.178C334.042 652.171 334.042 652.164 334.04 652.156C334.028 652.096 334.012 652.037 333.993 651.978C333.982 651.934 333.969 651.89 333.953 651.847C333.953 651.811 333.931 651.778 333.917 651.742L333.862 651.6C333.84 651.546 333.813 651.493 333.782 651.444C333.769 651.415 333.752 651.388 333.732 651.364C333.725 651.351 333.716 651.34 333.706 651.331L333.659 651.28L333.619 651.251C333.589 651.231 333.553 651.219 333.517 651.218C333.299 651.218 333.154 651.644 333.154 651.644C333.568 657.611 316.4 713.684 316.4 713.684C316.4 713.684 318.217 723.865 323.384 769.353C327.617 806.535 324.43 850.334 323.126 865.098C323.006 866.458 322.901 867.571 322.821 868.411C322.704 869.607 322.635 870.229 322.635 870.229C316.471 868.84 310.17 868.15 303.851 868.171C263.884 868.171 228.11 894.018 228.11 894.018C228.11 894.018 228.111 893.956 228.085 893.833C228.085 893.8 228.085 893.764 228.085 893.727C228.085 893.691 228.085 893.669 228.085 893.636C228.085 893.604 228.085 893.542 228.063 893.487C228.041 893.433 228.063 893.378 228.045 893.316C228.027 893.254 228.045 893.233 228.027 893.189C227.987 892.902 227.94 892.542 227.885 892.098C227.86 891.909 227.834 891.705 227.805 891.487L227.773 891.24L227.74 890.978C227.718 890.8 227.693 890.615 227.667 890.425C227.667 890.331 227.645 890.236 227.631 890.138C227.616 890.04 227.605 889.942 227.591 889.84C227.566 889.633 227.536 889.418 227.511 889.196C227.493 889.051 227.475 888.902 227.453 888.749C227.453 888.705 227.453 888.665 227.435 888.622C227.409 888.418 227.384 888.211 227.355 888L227.333 887.807C227.278 887.371 227.22 886.913 227.159 886.436C227.097 885.96 227.042 885.516 226.981 885.029C226.981 884.905 226.948 884.774 226.933 884.665C226.887 884.302 226.84 883.927 226.792 883.542C226.792 883.491 226.792 883.444 226.773 883.393C226.552 881.618 226.308 879.662 226.047 877.553C223.769 858.873 220.302 828.262 219.26 807.12C218.533 792.607 218.213 765.345 218.064 739.687C217.883 708.131 217.977 679.004 217.977 679.004C220.64 659.425 225.429 632.32 229.404 610.855C233.037 591.142 236.013 576.182 236.013 576.182C236.075 575.989 236.144 575.782 236.216 575.564C240.722 562.149 261.781 512.589 272.136 499.8C272.252 499.655 272.368 499.516 272.481 499.382C273.705 498.051 275.087 496.875 276.597 495.88C296.13 482.142 385.55 458.545 385.55 458.545C385.55 458.545 545.747 450.073 561.465 450.073ZM561.465 446.8C545.842 446.8 391.923 454.931 385.379 455.276C385.156 455.287 384.934 455.323 384.718 455.382C381.041 456.364 294.506 479.273 274.65 493.171C272.517 494.658 270.969 495.989 269.927 497.24L269.89 497.284C269.778 497.418 269.661 497.556 269.545 497.702C263.575 505.058 255.041 522.622 248.937 536.065C241.514 552.364 235.21 568.036 233.041 574.495V574.516C232.965 574.742 232.896 574.956 232.83 575.156C232.791 575.276 232.76 575.397 232.736 575.52C232.707 575.669 229.731 590.727 226.119 610.233C222.413 630.287 217.399 658.415 214.66 678.545C214.641 678.688 214.631 678.831 214.631 678.975C214.631 679.265 214.54 708.476 214.718 739.702C214.907 772.236 215.31 794.975 215.917 807.276C216.989 828.975 220.64 860.865 222.726 877.945C222.984 880.058 223.227 882.018 223.453 883.796V883.822C223.453 883.873 223.453 883.916 223.453 883.956C223.5 884.32 223.547 884.684 223.594 885.047C223.594 885.12 223.612 885.196 223.62 885.269V885.411V885.44L223.689 885.974C223.725 886.276 223.761 886.571 223.798 886.854C223.86 887.32 223.918 887.767 223.969 888.193V888.273V888.36V888.447C223.994 888.618 224.016 888.785 224.034 888.953V889.029V889.116C224.034 889.156 224.034 889.196 224.052 889.233C224.052 889.338 224.078 889.444 224.092 889.545V889.585C224.092 889.734 224.128 889.876 224.147 890.018L224.176 890.24C224.174 890.261 224.174 890.281 224.176 890.302V890.342C224.176 890.396 224.176 890.447 224.194 890.498C224.212 890.549 224.194 890.578 224.212 890.618L224.234 890.8C224.232 890.818 224.232 890.836 224.234 890.854L224.259 891.044C224.259 891.156 224.288 891.269 224.303 891.374V891.516V891.647L224.339 891.931L224.375 892.211L224.415 892.509C224.47 892.927 224.514 893.28 224.553 893.567C224.553 893.636 224.572 893.698 224.579 893.756C224.586 893.814 224.579 893.924 224.612 894.007V894.036C224.612 894.091 224.612 894.138 224.612 894.178C224.612 894.218 224.612 894.204 224.612 894.218C224.612 894.233 224.612 894.273 224.612 894.294C224.612 894.316 224.612 894.382 224.612 894.396C224.68 894.961 224.894 895.499 225.233 895.956C225.573 896.413 226.025 896.773 226.546 897.002C227.067 897.23 227.638 897.318 228.204 897.258C228.77 897.198 229.31 896.991 229.771 896.658C229.858 896.593 238.716 890.244 252.243 883.985C264.629 878.258 283.592 871.429 303.589 871.429C309.666 871.41 315.725 872.072 321.654 873.404C321.892 873.46 322.136 873.488 322.381 873.487C323.186 873.488 323.962 873.191 324.562 872.655C325.162 872.118 325.543 871.378 325.633 870.578C325.633 870.578 325.702 869.924 325.822 868.705C325.902 867.854 326.007 866.734 326.131 865.364C327.602 848.673 330.581 805.865 326.378 768.96C321.949 730.051 319.998 716.996 319.496 713.884C320.437 710.796 324.169 698.498 327.82 685.782C329.51 679.898 330.861 675.051 331.94 671.047C332.057 672.065 332.173 672.942 332.278 673.72C332.747 677.229 332.961 678.829 331.835 684.469L331.795 684.665C331.748 684.887 331.7 685.116 331.65 685.353V685.371C331.055 688.221 330.757 691.125 330.759 694.036C330.759 694.342 330.759 694.651 330.759 694.956V694.985C330.759 695.284 330.778 695.585 330.789 695.884C330.789 696.055 330.788 696.225 330.818 696.396C330.818 696.76 330.858 697.124 330.887 697.451L330.963 698.284C330.963 698.284 330.963 698.316 330.963 698.335V698.411C330.963 698.571 330.999 698.738 331.017 698.902C331.05 699.174 331.083 699.447 331.123 699.724C331.166 700.065 331.221 700.429 331.297 700.869C331.348 701.178 331.406 701.484 331.464 701.793C331.486 701.92 331.508 702.044 331.537 702.156C331.566 702.269 331.573 702.342 331.591 702.433V702.502C331.617 702.633 331.646 702.764 331.679 702.887L331.744 703.178L331.817 703.502V703.538C331.9 703.902 331.984 704.207 332.067 704.509C332.126 704.727 332.191 704.975 332.271 705.236C332.314 705.4 332.365 705.567 332.42 705.738C332.474 705.909 332.518 706.055 332.569 706.211C332.671 706.531 332.78 706.858 332.896 707.182C332.95 707.338 333.005 707.491 333.067 707.647L333.143 707.862C333.165 707.913 333.183 707.967 333.201 708.022V708.051C333.274 708.247 333.35 708.447 333.434 708.644V708.669L333.47 708.756C333.492 708.818 333.517 708.876 333.543 708.935C333.637 709.167 333.724 709.375 333.815 709.571C333.906 709.767 333.946 709.873 334.019 710.025L334.247 710.524C334.356 710.753 334.469 710.989 334.611 711.251L334.778 711.567C334.916 711.84 335.047 712.084 335.178 712.316C335.247 712.444 335.319 712.571 335.392 712.68L335.479 712.833V712.862C335.621 713.109 335.773 713.36 335.944 713.636L336.213 714.062C336.369 714.309 336.533 714.556 336.714 714.825C336.765 714.905 336.82 714.982 336.874 715.058L336.958 715.174L337.078 715.345C337.187 715.502 337.299 715.662 337.419 715.818C337.605 716.069 337.783 716.309 337.975 716.545L338.03 716.615L338.092 716.694C338.302 716.953 338.509 717.211 338.738 717.476C338.854 717.615 338.978 717.76 339.102 717.902C339.225 718.044 339.33 718.164 339.465 718.291C339.599 718.418 339.712 718.56 339.828 718.691C339.945 718.822 340.061 718.938 340.192 719.055C340.322 719.171 340.457 719.327 340.591 719.458L340.853 719.713L340.962 719.815C340.973 719.828 340.985 719.84 340.998 719.851C341.129 719.975 341.263 720.102 341.398 720.215L341.783 720.578C342.037 720.807 342.317 721.044 342.637 721.305L343.04 721.633C343.04 722.058 343.04 722.56 343.04 723.127V723.32C343.04 724.047 343.04 724.891 343.022 725.811V726.04C343.022 726.134 343.022 726.225 343.022 726.316C343.022 726.585 343.022 726.858 343.022 727.138V727.16C343.022 727.887 343.015 728.652 343 729.454V730.156C343 730.305 343 730.447 343 730.589C343 730.731 343 730.844 343 730.953V731.775C343 731.865 343 731.974 343 732.087C343 732.2 343 732.265 343 732.356L342.978 733.709C342.978 734.033 342.978 734.364 342.978 734.691C342.978 735.782 342.942 736.873 342.924 737.989V738.4C342.924 738.535 342.924 738.658 342.924 738.764C342.924 738.869 342.924 739.033 342.924 739.167C342.924 739.371 342.924 739.574 342.924 739.778C342.924 739.982 342.924 740.178 342.924 740.378V740.418C342.924 740.538 342.924 740.658 342.924 740.782C342.924 740.905 342.924 741.047 342.924 741.178C342.924 741.542 342.924 741.905 342.898 742.24C342.873 742.574 342.898 742.967 342.873 743.331V743.36C342.873 743.56 342.873 743.764 342.855 743.967V744.018L342.833 744.905V744.931C342.797 746.385 342.746 748 342.68 749.836C342.679 749.851 342.679 749.865 342.68 749.88C342.68 750.018 342.68 750.16 342.68 750.298C342.68 750.324 342.68 750.353 342.68 750.382C342.68 750.527 342.68 750.673 342.68 750.815C342.68 750.844 342.68 750.873 342.68 750.902C342.68 751.109 342.68 751.313 342.659 751.516V751.556C342.659 751.764 342.64 751.967 342.633 752.171L342.611 752.705C342.611 752.971 342.586 753.229 342.575 753.487C342.55 754.044 342.524 754.578 342.495 755.127V755.149C342.495 755.542 342.455 755.924 342.433 756.298L342.412 756.662C342.412 756.731 342.412 756.796 342.412 756.854L342.372 757.465V757.491L342.35 757.854L342.328 758.185C342.295 758.655 342.266 759.109 342.23 759.545L342.208 759.825C342.206 759.845 342.206 759.864 342.208 759.884L342.186 760.131C342.186 760.156 342.186 760.178 342.186 760.204C342.186 760.436 342.15 760.658 342.132 760.88C342.114 761.102 342.088 761.338 342.066 761.556C342.066 761.691 342.041 761.818 342.026 761.92L342.001 762.174C342.001 762.2 342.001 762.222 342.001 762.244C341.999 762.271 341.999 762.299 342.001 762.327V762.418C342.001 762.473 342.001 762.52 342.001 762.56C341.983 762.702 341.965 762.836 341.95 762.967V763.273L341.921 763.487V763.505C341.921 763.571 341.903 763.633 341.896 763.691C341.841 764.055 341.794 764.313 341.754 764.505C341.746 764.535 341.74 764.566 341.736 764.596V764.622C341.736 764.647 341.736 764.669 341.736 764.694C341.728 764.72 341.722 764.745 341.718 764.771C341.696 764.858 341.681 764.902 341.678 764.916C341.289 765.895 340.326 768.665 326.915 870.338C326.673 872.241 326.424 874.142 326.167 876.04L325.916 877.931C325.702 879.535 325.491 881.142 325.284 882.742L325.193 883.433C325.131 883.916 325.066 884.389 325.001 884.858C325.001 884.858 325.001 884.884 325.001 884.898V885.022L324.982 885.153C324.906 885.734 324.83 886.327 324.75 886.92L324.579 888.236C324.074 892.087 323.573 895.913 323.079 899.691L322.762 902.094C322.588 903.418 322.416 904.733 322.247 906.04C322.156 906.731 322.069 907.411 321.978 908.087L321.796 909.484C321.702 910.211 321.607 910.938 321.513 911.665C320.986 915.713 320.47 919.665 319.965 923.516C319.861 924.316 319.758 925.11 319.656 925.898L319.489 927.16C319.322 928.484 319.152 929.789 318.98 931.076C318.893 931.731 318.813 932.371 318.729 933.007C318.487 934.789 318.261 936.532 318.05 938.236L317.763 940.447C317.647 941.356 317.534 942.236 317.418 943.105C317.176 944.873 316.953 946.584 316.749 948.24L316.669 948.88L316.539 949.862V949.887C316.47 950.425 316.401 950.96 316.335 951.487L316.281 951.902L316.128 953.069L316.063 953.585C316.03 953.844 315.994 954.102 315.961 954.356C315.837 955.32 315.714 956.244 315.598 957.149V957.167C315.598 957.265 315.572 957.364 315.558 957.462C315.543 957.56 315.532 957.673 315.518 957.774C315.278 959.593 315.053 961.353 314.842 962.989L314.733 963.847L314.62 964.72C314.457 965.971 314.3 967.16 314.159 968.276V968.302C314.159 968.389 314.137 968.473 314.126 968.556L314.093 968.814C314.093 968.964 314.057 969.109 314.035 969.254C314.013 969.4 313.984 969.644 313.963 969.836L313.926 970.116C313.897 970.345 313.864 970.574 313.839 970.796L313.806 971.04C313.806 971.105 313.788 971.171 313.781 971.24C313.781 971.24 313.781 971.262 313.781 971.273L313.719 971.756C313.661 972.2 313.606 972.625 313.556 973.033V973.055C313.556 973.167 313.53 973.28 313.516 973.389L313.487 973.614C313.461 973.774 313.439 973.942 313.421 974.105C313.403 974.269 313.392 974.342 313.378 974.469C313.378 974.469 313.378 974.494 313.378 974.505V974.618C313.378 974.749 313.345 974.876 313.33 975C313.316 975.124 313.294 975.28 313.276 975.414L313.254 975.578C313.236 975.724 313.218 975.862 313.203 975.996C313.189 976.131 313.178 976.185 313.163 976.276V976.298C313.101 976.745 313.051 977.142 313.007 977.487V977.574V977.625L312.818 979.08C312.712 979.915 312.932 980.758 313.431 981.436C313.93 982.113 314.671 982.572 315.499 982.716L316.953 982.953L317.113 982.982L317.494 983.044L317.999 983.127H318.086L318.366 983.171H318.439L318.653 983.204L319.136 983.28H319.249L319.445 983.309H319.492L320.125 983.407C321.022 983.545 322.039 983.705 323.177 983.876L323.442 983.916L323.827 983.974L324.092 984.014L324.347 984.055L324.91 984.138H324.939L325.204 984.178L325.702 984.254L326.134 984.316C326.781 984.414 327.46 984.516 328.162 984.614L328.761 984.705L329.124 984.756C331.112 985.044 333.147 985.334 335.17 985.614L335.999 985.727C336.551 985.811 337.111 985.887 337.681 985.964L338.6 986.087L339.091 986.156L341.997 986.549H342.085L343.338 986.713L343.996 986.8C346.648 987.164 349.308 987.491 351.902 987.814C364.509 989.385 377.288 990.789 389.888 991.982C425.964 995.396 460.32 997.127 491.985 997.127C525.528 997.127 555.881 995.16 582.204 991.273L582.357 991.247C582.568 991.207 603.623 987.062 624.591 981.731C636.944 978.589 646.907 975.647 654.141 973.004C664.979 969.025 669.633 965.844 670.204 962.014C670.534 959.789 669.967 954.422 663.631 930.378C659.387 914.269 653.701 894.073 647.681 872.691C637.562 836.76 627.101 799.6 624.209 784.025C623.967 782.76 623.736 781.509 623.515 780.273L623.323 779.222C621.688 770.284 620.296 762.294 619.188 755.476C615.874 735.113 615.62 728.665 615.747 726.655L615.962 726.538C618.215 725.34 620.399 724.015 622.502 722.567C625.968 720.149 628.729 717.545 630.695 714.836C633.46 711.029 634.72 706.974 634.437 702.789C634.437 702.647 634.437 702.52 634.412 702.393C634.412 702.367 634.412 702.342 634.412 702.316C634.31 700.884 634.189 699.47 634.048 698.076C634.808 700.036 635.582 702.076 636.363 704.156C639.048 711.309 641.813 718.985 644.549 726.975C654.722 756.6 668.656 801.84 677.249 849.156C677.249 849.178 677.249 849.204 677.249 849.225C679.687 862.636 681.561 875.553 682.826 887.607V887.72C683.031 890.192 683.519 892.632 684.279 894.993C686.51 901.578 690.456 902.56 692.599 902.56C693.691 902.548 694.771 902.329 695.782 901.916C697.411 901.228 698.909 900.265 700.211 899.069C715.362 885.818 734.572 875.564 757.306 868.593C764.903 866.262 770.687 865.08 774.491 865.08C775.109 865.074 775.726 865.115 776.337 865.204C788.501 867.08 791.597 868.553 791.913 868.716C792.435 869.045 793.04 869.219 793.657 869.218C793.973 869.219 794.288 869.172 794.591 869.08C795.072 868.936 795.513 868.684 795.881 868.342C796.249 868 796.534 867.579 796.713 867.109C796.818 866.836 797.73 864.305 797.686 859.731C797.628 853.884 796.109 847.367 793.167 840.378C790.623 834.324 785.119 813.927 781.206 799.113C777.518 785.156 773.43 769.251 769.099 752.411C762.341 726.124 755.351 698.938 749.479 677.567C740.61 645.353 737.74 639.022 735.96 636.956C734.87 635.705 733.911 634.611 733.053 633.644C726.124 625.749 725.99 625.6 716.452 605.113C710.112 591.495 701.665 572.273 694.881 556.829C689.944 545.596 686.049 536.727 684.29 533.025C683.705 531.793 682.902 529.924 681.972 527.76C679.134 521.156 674.843 511.178 669.459 502.062C662.686 490.593 656.095 483.673 649.316 480.905C643.866 478.691 638.688 476.578 633.888 474.633C619.442 468.771 610.315 465.127 605.981 463.495C602.235 462.087 591.197 457.818 580.297 453.564L577.703 452.549C573.259 450.818 569.673 449.407 567.326 448.469H567.304L566.403 448.105L566.308 448.065C564.441 447.32 564.092 447.16 564.078 447.153C563.351 446.811 562.65 446.789 561.483 446.789L561.465 446.8Z" fill="#17091D"/>
<path d="M304.498 723.602C294.655 720.293 250.754 727.998 259.731 722.569C268.709 717.14 311.067 716.726 302.99 710.242C294.913 703.758 268.11 697.849 268.11 697.849C278.915 692.427 305.617 706.544 305.406 702.416C305.199 698.366 284.613 672.598 283.85 671.635C305.286 694.136 310.34 703.998 316.164 681.627C321.989 659.256 337.797 617.006 337.877 616.791C337.859 616.922 335.287 634.973 334.313 653.806C333.782 649.747 333.114 651.606 333.114 651.606C333.528 657.573 316.361 713.646 316.361 713.646C316.361 713.646 318.177 723.827 323.344 769.315C327.577 806.496 324.39 850.296 323.086 865.06C321.269 856.78 319.336 842.849 320.179 822.915C321.603 787.998 314.337 726.907 304.498 723.602Z" fill="#9C398C"/>
<path d="M356.157 751.406C354.34 769.45 339.945 885.817 339.367 890.471C339.36 890.568 339.36 890.665 339.367 890.762L344.25 981.591C344.263 981.835 344.222 982.079 344.13 982.305C344.038 982.531 343.897 982.735 343.718 982.9C343.539 983.066 343.325 983.19 343.092 983.263C342.86 983.337 342.614 983.358 342.372 983.326C329.695 981.639 320.96 980.264 317.563 979.715C317.139 979.646 316.759 979.415 316.502 979.07C316.245 978.725 316.132 978.294 316.186 977.868C317.393 968.519 323.74 919.366 330.149 870.762C336.944 819.257 343.814 768.362 344.712 766.111C346.397 761.886 346.59 726.784 346.608 720.868C346.611 720.613 346.554 720.361 346.442 720.132C346.329 719.904 346.165 719.705 345.961 719.551C335 711.315 332.74 697.057 335.061 686.024C335.13 685.704 335.192 685.395 335.254 685.093C336.126 689.773 337.496 693.286 339.541 694.911C347.001 700.81 355.692 681.093 360.884 666.511C361.538 664.693 364.273 665.279 364.092 667.239C361.828 691.497 357.505 738.002 356.157 751.406Z" fill="#9C398C"/>
<path d="M308.037 709.53C319.166 712.912 318.908 716.999 306.997 712.755C306.961 712.743 306.926 712.728 306.892 712.712C300.352 709.406 293.372 707.457 286.665 704.766C286.465 704.674 286.302 704.516 286.206 704.317C286.109 704.118 286.084 703.892 286.136 703.678C286.187 703.463 286.312 703.273 286.488 703.14C286.664 703.007 286.881 702.939 287.101 702.948C293.129 703.501 303.368 708.272 308.037 709.53Z" fill="#5C2C66"/>
<path d="M334.51 532.921C335.337 532.868 336.05 533.494 336.104 534.321L339.374 584.637V584.638C340.087 595.661 340.072 606.719 339.33 617.741C338.721 626.804 337.863 637.96 336.805 647.52C336.276 652.298 335.696 656.698 335.069 660.247C334.455 663.72 333.762 666.594 332.936 668.158C332.549 668.891 331.642 669.171 330.909 668.784C330.177 668.398 329.897 667.491 330.283 666.758C330.856 665.673 331.489 663.26 332.115 659.725C332.726 656.267 333.298 651.94 333.824 647.19C334.874 637.693 335.729 626.588 336.337 617.539L336.466 615.497C337.069 605.284 337.04 595.043 336.38 584.832L333.111 534.516C333.057 533.689 333.683 532.975 334.51 532.921Z" fill="#17091D"/>
<path d="M260.542 705.78C247.338 706.435 234.16 709.693 221.164 712.268C221.048 712.291 220.928 712.288 220.813 712.259C220.699 712.231 220.592 712.177 220.5 712.103C220.409 712.028 220.335 711.934 220.283 711.827C220.232 711.721 220.205 711.604 220.204 711.486C220.248 700.675 249.246 701.38 260.698 704.213C260.878 704.264 261.035 704.377 261.141 704.533C261.246 704.688 261.294 704.875 261.275 705.062C261.257 705.249 261.173 705.423 261.039 705.555C260.905 705.686 260.729 705.766 260.542 705.78Z" fill="#5C2C66"/>
<path d="M232.431 719.577C241.38 714.93 259.55 715.341 270.875 715.577C271.085 715.589 271.283 715.68 271.428 715.832C271.574 715.984 271.656 716.186 271.658 716.396C271.661 716.607 271.583 716.81 271.441 716.965C271.299 717.121 271.103 717.216 270.893 717.232C268.811 717.348 265.912 716.821 264.815 717.305C264.727 717.345 264.634 717.371 264.538 717.381C253.893 718.199 243.723 721.039 232.819 721.159C232.629 721.165 232.442 721.106 232.29 720.99C232.138 720.875 232.031 720.711 231.985 720.526C231.94 720.341 231.959 720.145 232.04 719.973C232.121 719.8 232.259 719.661 232.431 719.577Z" fill="#5C2C66"/>
<path d="M242.146 876.911L226.693 883.366C226.472 881.591 226.228 879.635 225.967 877.526C223.689 858.846 220.223 828.235 219.18 807.093C218.453 792.58 218.133 765.318 217.984 739.66L242.146 876.911Z" fill="#9C398C"/>
<path d="M620.042 779.829C605.926 784.039 581.674 791.007 567.656 793.527C547.023 797.239 501.453 799.636 483.196 799.028C464.938 798.421 422.973 789.454 385.641 789.625C348.308 789.796 349.943 804.727 349.943 804.727L344.7 794.272L353.257 758.076L409.21 756.708L615.903 756.018C617.048 763.101 618.447 771.127 620.042 779.829Z" fill="#9C398C"/>
<path d="M348.468 630.794C348.617 629.98 349.399 629.44 350.214 629.589C351.029 629.739 351.568 630.521 351.419 631.335C350.358 637.12 346.462 643.684 342.977 648.674C341.213 651.199 339.515 653.377 338.258 654.923C337.629 655.697 337.109 656.314 336.745 656.74C336.563 656.952 336.42 657.117 336.321 657.229C336.272 657.285 336.234 657.328 336.208 657.358C336.195 657.373 336.185 657.384 336.178 657.392C336.174 657.396 336.172 657.4 336.17 657.402C336.169 657.403 336.168 657.403 336.167 657.404V657.405L336.166 657.406C335.614 658.024 334.666 658.077 334.048 657.526C333.43 656.974 333.376 656.026 333.928 655.408L333.929 655.407C333.93 655.405 333.932 655.403 333.935 655.4C333.94 655.394 333.949 655.384 333.96 655.371C333.983 655.346 334.018 655.307 334.063 655.254C334.155 655.15 334.291 654.993 334.466 654.788C334.815 654.38 335.319 653.783 335.931 653.031C337.155 651.525 338.806 649.407 340.518 646.956C343.982 641.996 347.534 635.89 348.468 630.794Z" fill="#17091D"/>
<path d="M322.766 868.362C322.65 869.559 322.581 870.18 322.581 870.18C275.783 859.482 228.056 893.97 228.056 893.97C228.056 893.97 227.18 887.424 225.97 877.5C233.183 871.879 244.951 869.442 262.94 865.675C309.25 855.999 313.534 866.09 322.766 868.362Z" fill="#9C398C"/>
<path d="M272.059 499.773C260.407 529.817 242.455 576.57 229.317 610.828C232.95 591.115 235.926 576.155 235.926 576.155C235.987 575.963 236.056 575.755 236.129 575.537C240.645 562.123 261.704 512.563 272.059 499.773Z" fill="#D969BD"/>
<path d="M644.687 527.443C644.752 534.036 644.621 540.574 644.498 547.13C644.374 553.687 644.036 560.294 643.433 566.854C643.135 570.136 642.772 573.409 642.343 576.672C642.137 578.308 641.913 579.941 641.671 581.57L640.944 586.439C639.951 592.89 639.044 599.351 638.223 605.821C636.592 618.763 635.28 631.745 634.557 644.73C633.834 657.716 633.605 670.734 634.815 683.512L634.837 683.774C634.837 683.774 634.837 683.752 634.837 683.468C634.81 683.231 634.759 682.997 634.684 682.77C634.594 682.513 634.472 682.269 634.321 682.043C634.219 681.893 634.105 681.752 633.979 681.621L633.939 681.577L634.837 683.508C634.931 684.447 635.04 685.374 635.175 686.272C635.309 687.17 635.469 688.021 635.68 688.865C635.89 689.708 636.148 690.588 636.432 691.541C636.715 692.494 636.991 693.465 637.257 694.45C637.482 695.289 637.364 696.182 636.931 696.935C636.498 697.687 635.784 698.236 634.946 698.461C634.108 698.686 633.215 698.569 632.463 698.135C631.712 697.702 631.163 696.987 630.938 696.148L630.913 696.057C630.695 695.137 630.466 694.239 630.215 693.294C629.964 692.348 629.696 691.359 629.467 690.297C629.238 689.236 629.067 688.156 628.943 687.119C628.82 686.083 628.729 685.057 628.653 684.047L629.55 685.977L629.507 685.93C629.194 685.604 628.956 685.213 628.809 684.785C628.73 684.558 628.679 684.322 628.656 684.083C628.631 683.799 628.656 683.785 628.656 683.774V684.039C627.683 670.716 628.228 657.494 629.205 644.367C630.182 631.239 631.803 618.185 633.718 605.192C634.672 598.697 635.718 592.217 636.857 585.752L637.696 580.934C637.961 579.33 638.219 577.727 638.456 576.123C638.94 572.908 639.359 569.687 639.713 566.457C640.439 559.996 640.915 553.519 641.166 547.007C641.417 540.494 641.689 533.934 641.755 527.439C641.755 527.048 641.91 526.672 642.187 526.395C642.463 526.118 642.838 525.963 643.23 525.963C643.621 525.963 643.996 526.118 644.273 526.395C644.549 526.672 644.705 527.048 644.705 527.439L644.687 527.443Z" fill="#17091D"/>
<path d="M565.08 451.107C568.91 456.624 576.089 463.835 589.387 470.057C601.33 475.624 618.112 477.373 632.624 477.653L565.08 451.107Z" fill="#D969BD"/>
<path d="M694.543 898.861C687.171 901.788 686.132 888.272 686.027 887.272C680.01 829.817 661.861 767.57 647.561 725.922C644.61 717.341 641.827 709.632 639.346 703.013C636.243 694.744 638.132 699.664 636.25 695.264C635.523 692.719 634.433 682.901 634.797 682.901C634.433 678.173 638.263 681.082 645.958 702.944C647.114 706.217 648.306 709.566 649.512 712.893C650.093 714.493 650.674 716.093 651.259 717.682C652.248 720.359 653.24 723.01 654.231 725.61C656.146 730.642 658.054 735.475 659.889 739.879C672.22 769.453 682.517 864.726 691.175 875.999C694.812 880.726 695.31 889.861 694.543 898.861Z" fill="#9C398C"/>
<path d="M651.299 712.857C651.641 713.028 651.993 713.181 652.35 713.326C661.705 717.046 675.904 711.926 674.095 718.206C673.005 721.97 663.518 721.264 655.322 721.253C653.094 721.217 650.866 721.319 648.651 721.559C645.7 712.977 642.917 705.268 640.436 698.65C642.639 698.762 644.848 698.739 647.048 698.581C655.302 698.071 663.42 696.229 671.087 693.126C687.117 686.544 684.574 697.428 673.674 701.09C666.44 703.512 654.856 705.882 650.602 708.548C648.447 709.886 648.175 711.312 651.299 712.857Z" fill="#9C398C"/>
<path d="M697.461 700.916C705.741 699.977 706.729 702.734 697.693 703.334H697.61C692.374 703.017 687.229 703.719 682.055 703.857C681.892 703.861 681.733 703.807 681.606 703.703C681.48 703.6 681.395 703.455 681.366 703.294C681.337 703.133 681.367 702.967 681.451 702.826C681.534 702.685 681.665 702.579 681.819 702.527C685.947 701.188 694.02 701.414 697.461 700.916Z" fill="#5C2C66"/>
<path d="M689.082 692.657C675.879 693.311 662.701 696.573 649.704 699.144C649.588 699.167 649.469 699.164 649.354 699.136C649.24 699.107 649.133 699.054 649.041 698.979C648.949 698.904 648.875 698.81 648.824 698.704C648.773 698.597 648.746 698.48 648.745 698.362C648.789 687.555 677.786 688.26 689.239 691.09C689.419 691.141 689.576 691.254 689.681 691.409C689.787 691.564 689.835 691.752 689.816 691.939C689.797 692.125 689.714 692.3 689.58 692.431C689.445 692.562 689.269 692.642 689.082 692.657Z" fill="#5C2C66"/>
<path d="M691.477 713.108C682.179 717.013 664.103 715.129 652.836 713.984C652.628 713.956 652.438 713.85 652.304 713.687C652.171 713.524 652.105 713.316 652.119 713.106C652.134 712.895 652.227 712.699 652.382 712.555C652.536 712.412 652.739 712.332 652.949 712.333C655.035 712.388 657.879 713.144 659.013 712.755C659.104 712.72 659.2 712.702 659.296 712.7C669.975 712.748 680.341 710.744 691.215 711.511C691.401 711.526 691.576 711.602 691.714 711.728C691.851 711.854 691.942 712.023 691.972 712.207C692.002 712.391 691.97 712.579 691.88 712.743C691.79 712.906 691.648 713.035 691.477 713.108Z" fill="#5C2C66"/>
<path d="M395.178 874.725C392.555 889.14 380.874 948.264 381.372 988.18C367.122 986.831 363.045 985.947 352.229 984.598C351.644 974.871 349.351 963.238 349.943 949.249C353.395 867.816 395.542 779.816 395.542 779.816L425.335 783.816C425.335 783.816 399.135 852.973 395.178 874.725Z" fill="#7E4282"/>
<path d="M427.407 782.582L426.738 784.349L425.335 783.817L426.737 784.35L426.736 784.352C426.735 784.354 426.735 784.357 426.733 784.361C426.73 784.37 426.725 784.382 426.719 784.398C426.706 784.432 426.688 784.481 426.663 784.547C426.613 784.678 426.539 784.873 426.443 785.128C426.251 785.639 425.968 786.392 425.606 787.357C424.883 789.289 423.845 792.073 422.587 795.482C420.07 802.301 416.674 811.618 413.155 821.613C406.097 841.66 398.606 864.262 396.654 874.995C394.018 889.48 382.376 948.427 382.872 988.162L382.892 989.832L381.23 989.675C366.957 988.323 362.786 987.428 352.043 986.088L350.806 985.934L350.731 984.689C350.441 979.857 349.732 974.623 349.152 968.668C348.577 962.763 348.145 956.28 348.445 949.187C350.18 908.263 361.629 865.75 372.617 833.513C378.114 817.384 383.503 803.806 387.519 794.258C389.527 789.484 391.193 785.716 392.357 783.14C392.939 781.852 393.396 780.862 393.708 780.192C393.864 779.858 393.983 779.603 394.064 779.432C394.105 779.346 394.136 779.281 394.157 779.237C394.167 779.216 394.175 779.199 394.18 779.188C394.183 779.182 394.185 779.178 394.186 779.175C394.187 779.173 394.188 779.172 394.188 779.171C394.19 779.171 394.238 779.193 395.542 779.817L394.189 779.17L394.66 778.186L427.407 782.582ZM396.428 781.459C396.12 782.118 395.668 783.098 395.091 784.375C393.936 786.929 392.282 790.673 390.285 795.421C386.291 804.918 380.928 818.43 375.457 834.48C364.509 866.601 353.159 908.804 351.442 949.313C351.15 956.209 351.568 962.537 352.138 968.377C352.654 973.682 353.309 978.698 353.641 983.266C363.211 984.484 367.475 985.319 379.858 986.526C379.694 946.471 391.128 888.605 393.703 874.458L393.907 873.391C396.181 862.013 403.515 839.961 410.326 820.616C413.851 810.603 417.253 801.271 419.772 794.443C421.032 791.029 422.072 788.241 422.797 786.306C422.972 785.837 423.129 785.418 423.266 785.053L396.431 781.449C396.43 781.452 396.429 781.456 396.428 781.459Z" fill="#17091D"/>
<path d="M793.624 865.934C793.624 865.934 791.212 864.181 776.802 861.956C772.297 861.261 764.674 862.887 756.314 865.45C735.07 871.967 714.759 881.959 698.028 896.592C697.004 897.541 695.825 898.309 694.543 898.861C687.171 901.788 686.132 888.272 686.027 887.272C684.693 874.545 682.757 861.574 680.413 848.647C681.634 853.145 686.743 869.345 697.49 872.25C710.003 875.636 742.801 859.159 756.92 854.116C771.04 849.072 779.952 841.476 778.768 819.828C778.448 814.01 778.201 807.036 778.008 799.938C783.429 820.454 787.84 836.225 790.118 841.636C796.814 857.548 793.624 865.934 793.624 865.934Z" fill="#9C398C"/>
<path d="M428.739 430.46C428.739 430.46 462.893 420.104 510.064 427.958C557.236 435.813 559.768 447.453 563.038 460.907C566.308 474.362 529.277 576.649 529.277 576.649L477.782 558.18C477.782 558.18 413.836 458.969 413.774 458.311C413.712 457.653 413.774 439.642 413.774 439.642L428.739 430.46Z" fill="#5C2C66"/>
<path d="M451.546 424.773C466.09 423.153 486.563 422.524 510.311 426.479C533.945 430.414 546.699 435.335 553.954 441.163C561.326 447.086 562.863 453.832 564.496 460.553C564.754 461.614 564.79 462.982 564.695 464.517C564.599 466.078 564.36 467.925 564.005 469.997C563.295 474.143 562.105 479.29 560.594 485.049C557.571 496.572 553.238 510.651 548.811 524.287C544.382 537.928 539.852 551.146 536.429 560.951C534.717 565.855 533.283 569.906 532.276 572.732C531.772 574.144 531.375 575.25 531.104 576.004C530.968 576.381 530.864 576.67 530.794 576.864C530.759 576.962 530.733 577.036 530.715 577.085C530.706 577.11 530.699 577.128 530.695 577.141L530.689 577.158L529.278 576.65L530.688 577.16L530.179 578.566L476.797 559.42L476.522 558.992L477.782 558.18L476.521 558.991C476.52 558.991 476.52 558.99 476.519 558.988C476.517 558.985 476.514 558.981 476.51 558.975C476.502 558.963 476.49 558.945 476.475 558.921C476.444 558.873 476.399 558.802 476.338 558.708C476.217 558.52 476.037 558.242 475.803 557.878C475.335 557.151 474.648 556.085 473.774 554.729C472.025 552.015 469.526 548.136 466.528 543.481C460.532 534.169 452.537 521.747 444.539 509.304C436.542 496.861 428.542 484.396 422.537 475.001C419.535 470.304 417.03 466.372 415.274 463.593C414.396 462.204 413.702 461.099 413.227 460.33C412.99 459.947 412.803 459.64 412.673 459.421C412.609 459.313 412.552 459.215 412.508 459.136C412.487 459.098 412.46 459.048 412.435 458.995C412.423 458.97 412.402 458.926 412.381 458.871C412.377 458.862 412.302 458.684 412.28 458.451C412.265 458.286 412.26 457.838 412.256 457.331C412.252 456.771 412.249 456.01 412.247 455.118C412.244 453.335 412.246 451.02 412.25 448.727C412.254 446.434 412.26 444.161 412.265 442.462C412.267 441.613 412.27 440.906 412.272 440.412C412.272 440.165 412.272 439.971 412.273 439.839C412.273 439.773 412.273 439.723 412.274 439.689V439.637L412.277 438.801L427.955 429.182L428.119 429.08L428.304 429.025L428.739 430.46C428.331 429.113 428.307 429.03 428.306 429.025L428.308 429.024C428.309 429.023 428.311 429.022 428.314 429.022C428.319 429.02 428.327 429.018 428.336 429.015C428.355 429.009 428.382 429.002 428.417 428.991C428.488 428.971 428.591 428.941 428.727 428.903C428.998 428.826 429.397 428.716 429.92 428.579C430.966 428.306 432.506 427.927 434.497 427.498C438.48 426.641 444.274 425.582 451.546 424.773ZM509.818 429.438C486.394 425.537 466.204 426.159 451.878 427.754C444.717 428.552 439.024 429.592 435.129 430.431C433.182 430.85 431.684 431.219 430.678 431.482C430.175 431.613 429.794 431.718 429.542 431.789C429.467 431.811 429.403 431.829 429.351 431.844L415.271 440.482C415.269 440.972 415.267 441.655 415.265 442.471C415.26 444.169 415.254 446.441 415.25 448.733C415.246 451.024 415.244 453.335 415.247 455.113C415.249 456.003 415.252 456.758 415.256 457.309C415.258 457.57 415.261 457.767 415.263 457.906C415.378 458.101 415.55 458.383 415.778 458.752C416.246 459.508 416.933 460.603 417.81 461.989C419.562 464.762 422.063 468.69 425.065 473.386C431.067 482.778 439.066 495.24 447.063 507.682C455.059 520.124 463.055 532.545 469.051 541.856C472.049 546.511 474.546 550.39 476.295 553.104C477.169 554.46 477.856 555.526 478.324 556.253C478.505 556.533 478.653 556.762 478.767 556.939L528.372 574.731C528.637 573.993 529.002 572.98 529.449 571.724C530.455 568.903 531.887 564.858 533.596 559.962C537.014 550.169 541.537 536.973 545.957 523.361C550.379 509.743 554.691 495.727 557.692 484.287C559.193 478.565 560.359 473.513 561.048 469.49C561.393 467.478 561.614 465.747 561.701 464.332C561.79 462.891 561.732 461.882 561.581 461.262C559.945 454.529 558.579 448.727 552.075 443.502C545.454 438.183 533.354 433.357 509.818 429.438Z" fill="#17091D"/>
<path d="M228.056 893.995C228.056 893.995 222.533 900.086 271.067 891.951C319.601 883.817 322.581 870.206 322.581 870.206C322.581 870.206 305.958 865.686 290.073 869.115C274.188 872.544 236.805 887.235 232.423 890.617C228.041 893.999 228.056 893.995 228.056 893.995Z" fill="#7E4282"/>
<path d="M289.757 867.649C297.919 865.887 306.226 866.173 312.454 866.884C315.576 867.241 318.194 867.707 320.036 868.084C320.957 868.273 321.686 868.439 322.186 868.56C322.437 868.62 322.631 868.669 322.764 868.703C322.83 868.72 322.881 868.734 322.916 868.744C322.933 868.748 322.947 868.752 322.957 868.754L322.973 868.758H322.974C322.974 868.758 322.975 868.759 322.581 870.206L324.045 870.532C324.045 870.532 324.044 870.535 324.044 870.536C324.043 870.54 324.042 870.544 324.041 870.548C324.039 870.556 324.037 870.565 324.035 870.575C324.03 870.594 324.025 870.616 324.018 870.642C324.004 870.693 323.984 870.757 323.959 870.832C323.909 870.984 323.834 871.184 323.724 871.427C323.503 871.913 323.143 872.568 322.563 873.352C321.403 874.921 319.373 876.995 315.841 879.286C308.791 883.86 295.691 889.346 271.315 893.431C247.062 897.496 236.118 898.046 231.2 897.515C229.958 897.381 229.014 897.17 228.307 896.884C227.611 896.603 226.985 896.185 226.633 895.535C226.252 894.832 226.345 894.155 226.508 893.717C226.586 893.507 226.683 893.34 226.76 893.226C226.799 893.167 226.837 893.118 226.868 893.078C226.884 893.059 226.898 893.042 226.911 893.027C226.917 893.019 226.923 893.012 226.929 893.005C226.931 893.002 226.935 892.999 226.937 892.996C226.939 892.995 226.941 892.992 226.941 892.992H226.942C226.975 892.956 227 892.929 227.011 892.919C227.027 892.904 227.041 892.891 227.049 892.884C227.075 892.86 227.097 892.842 227.1 892.84C227.112 892.83 227.123 892.82 227.129 892.816C227.143 892.805 227.164 892.789 227.198 892.762C227.268 892.707 227.405 892.6 227.678 892.389C228.223 891.966 229.316 891.121 231.507 889.43C232.186 888.906 233.373 888.249 234.839 887.52C236.342 886.773 238.249 885.897 240.446 884.938C244.842 883.02 250.445 880.75 256.4 878.482C268.283 873.956 281.693 869.389 289.757 867.649ZM312.113 869.866C306.059 869.174 298.112 868.914 290.39 870.581C282.568 872.27 269.344 876.763 257.469 881.286C251.545 883.541 245.987 885.793 241.645 887.688C239.474 888.636 237.617 889.49 236.175 890.206C234.695 890.942 233.756 891.484 233.34 891.805C231.756 893.027 230.747 893.807 230.104 894.304C230.459 894.386 230.922 894.468 231.522 894.533C235.977 895.013 246.538 894.542 270.819 890.472C294.978 886.423 307.634 881.035 314.208 876.77C317.487 874.642 319.236 872.805 320.151 871.568C320.239 871.449 320.316 871.334 320.39 871.227C320.102 871.164 319.783 871.094 319.435 871.023C317.663 870.66 315.133 870.21 312.113 869.866ZM324.352 869.133L324.046 870.527L322.581 870.206L322.975 868.759L324.352 869.133Z" fill="#17091D"/>
<path d="M502.841 789.99C498.812 789.99 494.877 789.881 491.146 789.663C488.217 789.492 485.281 789.3 482.426 789.129C452.709 787.212 354.463 779.714 337.877 763.623C323.166 749.35 339.835 720.561 340.551 719.343C340.739 719.024 341.029 718.779 341.374 718.647C341.719 718.515 342.099 718.504 342.451 718.616C343.098 718.82 408.149 739.005 480.881 740.692C484.133 740.769 487.396 740.805 490.579 740.805C499.026 740.805 507.35 740.536 515.318 740.005C522.222 739.547 529.02 738.881 535.567 738.027C585.394 731.481 607.801 726.565 617.829 723.576C619.222 723.159 620.69 723.06 622.126 723.287C623.562 723.513 624.929 724.059 626.126 724.884C627.323 725.709 628.32 726.793 629.044 728.055C629.767 729.317 630.198 730.725 630.306 732.176L632.748 765.51C632.774 765.876 632.678 766.239 632.474 766.543C632.27 766.847 631.969 767.074 631.621 767.187C631.425 767.252 611.671 773.63 584.857 779.55H584.806C553.552 786.485 525.978 789.99 502.841 789.99Z" fill="#CE44A2"/>
<path d="M341.95 720.173C341.95 720.173 407.005 740.613 480.831 742.326C484.062 742.403 487.308 742.441 490.568 742.439C498.797 742.439 507.103 742.191 515.413 741.635C522.209 741.184 528.992 740.521 535.759 739.646C584.573 733.246 607.507 728.351 618.276 725.144C619.434 724.796 620.656 724.712 621.851 724.899C623.046 725.086 624.183 725.54 625.18 726.226C626.176 726.912 627.006 727.814 627.608 728.864C628.209 729.914 628.568 731.086 628.656 732.293L631.098 765.628C631.098 765.628 611.532 771.977 584.486 777.966C560.375 783.304 530.302 788.362 502.841 788.362C498.91 788.362 495.043 788.254 491.24 788.039C488.375 787.871 485.468 787.693 482.52 787.504C423.827 783.722 352.291 775.348 339.003 762.457C325.055 748.908 341.95 720.173 341.95 720.173ZM341.95 716.9C341.381 716.9 340.821 717.048 340.326 717.331C339.832 717.613 339.42 718.02 339.131 718.511C338.404 719.777 321.106 749.639 336.729 764.799C343.371 771.242 361.853 776.748 393.235 781.624C417.334 785.369 448.966 788.613 482.309 790.762C485.216 790.948 488.148 791.126 491.029 791.297C494.79 791.519 498.757 791.628 502.82 791.628C526.073 791.628 553.759 788.111 585.111 781.177H585.18C612.067 775.22 631.897 768.813 632.097 768.755C632.793 768.529 633.394 768.076 633.802 767.468C634.211 766.86 634.403 766.133 634.35 765.402L631.908 732.068C631.784 730.374 631.282 728.73 630.439 727.256C629.596 725.783 628.434 724.517 627.039 723.551C625.643 722.586 624.048 721.946 622.373 721.679C620.697 721.411 618.983 721.523 617.357 722.006C607.39 724.977 585.071 729.882 535.349 736.402C528.838 737.253 522.058 737.915 515.206 738.37C507.274 738.9 498.99 739.166 490.579 739.166C487.407 739.166 484.155 739.13 480.918 739.053C443.062 738.18 407.575 732.246 384.46 727.424C359.39 722.18 343.098 717.089 342.935 717.049C342.618 716.95 342.289 716.9 341.957 716.9H341.95Z" fill="#17091D"/>
<path d="M482.527 787.497C423.835 783.716 352.298 775.341 339.011 762.45C325.055 748.908 341.95 720.174 341.95 720.174C341.95 720.174 407.005 740.614 480.831 742.327C480.78 744.297 480.711 745.963 480.711 745.963C480.711 745.963 472.06 745.399 447.695 742.887C423.33 740.374 398.034 739.447 383.069 738.454C368.103 737.461 362.722 733.363 364.146 741.414C365.57 749.465 368.615 765.127 379.624 768.203C390.633 771.279 426.465 773.454 441.434 774.545C456.404 775.636 484.399 777.817 484.933 778.181C485.165 778.334 483.963 782.665 482.527 787.497Z" fill="#9C398C"/>
<path d="M604.556 757.141C604.106 749.923 587.563 751.272 563.783 754.505C540.003 757.737 526.16 755.999 526.16 755.999C526.16 755.999 514.17 749.454 513.807 749.294C513.672 749.232 514.424 745.832 515.413 741.635C522.209 741.185 528.992 740.522 535.759 739.646C585.383 733.145 608.273 728.192 618.81 724.988C619.905 724.658 621.061 724.579 622.191 724.756C623.322 724.934 624.398 725.363 625.34 726.013C626.281 726.663 627.065 727.516 627.633 728.51C628.201 729.504 628.538 730.613 628.62 731.755L631.101 765.628C631.101 765.628 611.536 771.977 584.489 777.966C593.086 771.479 604.84 761.734 604.556 757.141Z" fill="#9C398C"/>
<path d="M427.101 974.733C422.181 974.733 409.566 973.42 401.304 970.253C400.912 970.094 400.562 969.845 400.283 969.526C399.073 968.213 395.85 964.722 399.32 915.511C401.01 891.511 403.51 868.042 403.535 867.806C403.56 867.57 405.893 846.01 420.085 797.199C427.675 771.1 442.353 758.424 453.33 752.388C465.273 745.82 475.322 745.479 475.744 745.479H475.787C475.866 745.473 475.945 745.473 476.024 745.479L482.676 746.45C483.056 746.505 483.404 746.692 483.66 746.979C483.916 747.265 484.063 747.633 484.075 748.017L484.802 771.319C484.813 771.695 484.695 772.063 484.467 772.362L474.138 786.028C469.364 792.34 453.341 828.875 449.606 844.882C449.551 845.119 449.493 845.388 449.435 845.679C448.185 851.77 446.423 867.38 444.385 885.457C442.205 904.653 439.763 926.406 437.172 943.613C435.752 953.068 434.455 960.053 433.201 965.031C431.472 971.94 429.931 974.642 427.715 974.704L427.101 974.733Z" fill="#CE44A2"/>
<path d="M475.798 747.119L482.451 748.09L483.178 771.392L483.014 771.61L472.841 785.065C468.045 791.403 451.837 828.181 448.022 844.534C447.963 844.788 447.902 845.072 447.84 845.377C443.956 864.388 435.392 972.872 427.697 973.09H427.101C422.338 973.09 409.937 971.803 401.9 968.727C401.745 968.662 401.607 968.562 401.497 968.436C395.171 961.581 405.17 867.999 405.17 867.999C405.17 867.999 407.35 846.908 421.665 797.676C436.053 748.192 475.802 747.13 475.802 747.13M475.802 743.857H475.715C475.275 743.857 464.844 744.221 452.556 750.985C445.294 755 438.878 760.385 433.663 766.843C427.025 774.992 421.934 785.061 418.53 796.774C404.294 845.727 402.013 866.799 401.922 867.683C401.896 867.908 399.397 891.407 397.704 915.439C396.704 929.592 396.178 941.17 396.134 949.857C396.069 954.081 396.221 958.304 396.588 962.512C397.035 966.81 397.784 969.254 399.099 970.679C399.548 971.175 400.107 971.56 400.73 971.803C409.185 975.047 422.08 976.392 427.105 976.392H427.791C430.778 976.305 432.18 973.232 432.642 972.225C433.563 970.045 434.293 967.789 434.822 965.483C436.086 960.454 437.394 953.396 438.818 943.908C441.413 926.672 443.869 904.901 446.038 885.694C448.072 867.657 449.831 852.079 451.066 846.057C451.124 845.77 451.179 845.516 451.23 845.283C452.879 838.225 457.316 825.908 463.093 812.348C468.227 800.308 473.317 789.908 475.468 787.061L481.699 778.821L485.637 773.61V773.585L485.779 773.396C486.235 772.797 486.471 772.06 486.448 771.308L485.721 748.007C485.697 747.238 485.403 746.503 484.891 745.93C484.38 745.357 483.683 744.983 482.923 744.872L476.271 743.901C476.114 743.879 475.956 743.868 475.798 743.868L475.802 743.857Z" fill="#17091D"/>
<path d="M483.08 771.391L483.032 771.609L472.859 785.064C468.063 791.402 451.855 828.18 448.04 844.533C447.982 844.788 447.92 845.071 447.858 845.377C443.956 864.388 435.392 972.871 427.697 973.089C423.46 973.209 410.297 971.948 401.9 968.726C401.745 968.661 401.607 968.562 401.497 968.435C408.324 967.282 417.618 965.94 419.703 966.18C429.757 967.322 438.415 851.817 442.633 840.766C446.852 829.715 455.492 794.726 463.227 779.962C470.963 765.198 466.028 767.817 464.659 761.482C463.289 755.148 480.718 749.293 480.718 749.293L483.08 771.391Z" fill="#9C398C"/>
<path d="M581.023 951.094C579.676 951.094 579.207 950.003 578.041 946.915C577.314 944.988 576.344 942.188 575.058 938.33C572.652 931.105 569.517 921.301 565.891 909.948C555.416 877.177 541.075 832.294 535.505 823.268C526.058 807.963 517.004 780.679 516.612 779.523C516.522 779.253 516.505 778.965 516.561 778.686L522.374 749.799C522.448 749.428 522.648 749.094 522.94 748.855C523.232 748.615 523.599 748.485 523.977 748.486C524.199 748.486 524.419 748.532 524.623 748.621C525.503 748.985 546.372 758.25 563.623 786.668C566.167 790.85 568.681 795.33 571.112 799.985C583.658 823.984 614.029 932.057 615.315 936.646C615.424 937.032 615.388 937.445 615.213 937.805C615.039 938.166 614.737 938.45 614.367 938.603C614.232 938.657 600.782 944.206 590.052 948.115C586.441 949.428 583.647 950.377 581.51 951.025C581.352 951.072 581.188 951.095 581.023 951.094Z" fill="#CE44A2"/>
<path d="M523.958 750.122C523.958 750.122 545.032 759.213 562.206 787.519C564.859 791.882 567.344 796.337 569.644 800.741C582.255 824.85 613.723 937.104 613.723 937.104C613.723 937.104 600.28 942.65 589.474 946.591C586.295 947.748 583.345 948.773 581.023 949.468C579.036 949.468 546.325 837.701 536.897 822.421C527.468 807.141 518.167 779.01 518.167 779.01L523.98 750.122M523.98 746.85C523.225 746.85 522.493 747.112 521.909 747.591C521.324 748.071 520.924 748.737 520.775 749.479L514.962 778.366C514.849 778.921 514.883 779.497 515.06 780.035C515.445 781.199 524.565 808.661 534.106 824.13C539.556 832.984 553.879 877.759 564.325 910.45C567.958 921.806 571.09 931.613 573.502 938.846C574.792 942.719 575.773 945.544 576.5 947.49C576.918 948.599 577.256 949.431 577.532 950.035C577.873 950.762 578.782 952.737 581.016 952.737C581.341 952.735 581.664 952.688 581.975 952.595C584.155 951.944 586.964 950.984 590.597 949.66C601.359 945.74 614.842 940.177 614.977 940.122C615.717 939.817 616.32 939.251 616.671 938.53C617.022 937.809 617.097 936.985 616.881 936.213C615.591 931.617 585.173 823.366 572.554 799.231C570.109 794.548 567.573 790.039 565.015 785.828C555.884 770.788 545.649 761.101 538.67 755.646C531.011 749.642 525.499 747.231 525.27 747.133C524.861 746.955 524.419 746.863 523.973 746.864L523.98 746.85Z" fill="#17091D"/>
<path d="M589.475 946.578C586.295 947.734 583.345 948.759 581.023 949.454C579.181 950.007 546.332 837.727 536.882 822.41C527.432 807.094 518.167 779.01 518.167 779.01L523.98 750.123C523.98 750.123 545.053 759.214 562.228 787.519C564.881 791.883 567.366 796.338 569.666 800.741C566.759 800.618 562.81 798.287 557.723 790.694C545.417 772.363 536.039 762.519 535.461 762.716C534.884 762.912 544.327 776.727 540.693 789.818C540.693 789.818 536.566 767.868 533.543 766.843C530.52 765.818 530.48 774.734 527.05 781.73C523.62 788.727 535.407 807.472 540.406 817.552C544.287 825.367 579.17 915.316 589.475 946.578Z" fill="#9C398C"/>
<path d="M476.794 735.599C480.674 733.417 487.145 731.235 494.961 734.33C494.961 734.33 513.69 737.01 520.394 736.959C527.097 736.908 528.453 741.323 528.133 749.294C527.813 757.264 524.965 781.944 520.394 785.61C515.823 789.275 478.414 787.388 475.493 787.09C472.572 786.792 475.57 780.744 476.256 773.188C476.848 766.712 477.346 749.872 474.567 741.712C474.167 740.593 474.171 739.369 474.577 738.253C474.984 737.136 475.768 736.198 476.794 735.599Z" fill="#CE44A2"/>
<path d="M476.059 734.291C480.155 731.988 487.042 729.655 495.334 732.867C495.349 732.869 495.366 732.872 495.383 732.874C495.521 732.894 495.724 732.922 495.985 732.958C496.509 733.031 497.265 733.136 498.192 733.261C500.048 733.511 502.592 733.843 505.343 734.173C510.886 734.84 517.145 735.483 520.383 735.458C522.215 735.445 523.808 735.734 525.145 736.401C526.506 737.08 527.512 738.106 528.216 739.402C529.567 741.89 529.792 745.363 529.632 749.353C529.469 753.411 528.669 761.64 527.336 769.323C526.669 773.164 525.861 776.912 524.919 779.954C524.448 781.473 523.934 782.851 523.37 783.99C522.821 785.099 522.158 786.117 521.332 786.78C520.451 787.486 519.039 787.908 517.571 788.207C516.021 788.523 514.105 788.755 511.979 788.924C507.722 789.263 502.477 789.361 497.317 789.335C487.009 789.284 476.872 788.738 475.341 788.581C474.693 788.515 474.058 788.266 473.566 787.744C473.097 787.244 472.891 786.636 472.803 786.096C472.636 785.076 472.816 783.812 473.048 782.582C473.547 779.935 474.428 776.739 474.763 773.052V773.051C475.053 769.871 475.324 764.1 475.177 758.118C475.028 752.089 474.456 746.04 473.146 742.195L473.147 742.194C472.638 740.751 472.644 739.177 473.168 737.739C473.694 736.294 474.71 735.078 476.038 734.303L476.059 734.291ZM494.408 735.724C487.159 732.854 481.179 734.857 477.543 736.898C476.823 737.32 476.272 737.981 475.986 738.766C475.735 739.455 475.702 740.202 475.887 740.907L475.979 741.206L475.986 741.228C477.456 745.542 478.026 751.993 478.176 758.043C478.307 763.378 478.114 768.553 477.861 771.971L477.75 773.324C477.398 777.193 476.437 780.798 475.996 783.138C475.759 784.396 475.693 785.171 475.763 785.606C477.525 785.763 487.313 786.286 497.332 786.335C502.461 786.361 507.609 786.263 511.742 785.934C513.811 785.769 515.591 785.549 516.973 785.268C518.436 784.97 519.193 784.649 519.455 784.439C519.772 784.185 520.199 783.631 520.682 782.658C521.149 781.714 521.61 780.5 522.054 779.066C522.941 776.2 523.723 772.592 524.38 768.809C525.693 761.243 526.477 753.146 526.634 749.233C526.793 745.252 526.501 742.532 525.579 740.833C525.146 740.036 524.575 739.469 523.807 739.085C523.015 738.69 521.925 738.447 520.405 738.458C516.94 738.485 510.482 737.813 504.984 737.152C502.215 736.819 499.657 736.485 497.792 736.234C496.859 736.108 496.098 736.004 495.571 735.93C495.308 735.893 495.103 735.865 494.963 735.845C494.893 735.835 494.84 735.827 494.804 735.822C494.786 735.819 494.772 735.817 494.763 735.816C494.758 735.815 494.754 735.815 494.752 735.815C494.751 735.815 494.75 735.814 494.749 735.814H494.748C494.632 735.797 494.517 735.767 494.408 735.724Z" fill="#17091D"/>
<path d="M327.78 993.521C323.482 993.521 319.452 992.277 316.215 991.273C314.068 990.612 312.218 990.037 310.979 990.037H310.852C310.639 990.035 310.428 990.075 310.231 990.157C308.505 991.026 304.781 991.946 299.534 991.946C296.174 991.926 292.822 991.609 289.517 991.001H289.474C284.065 989.994 278.764 988.474 273.643 986.463C271.529 985.652 269.363 984.739 267.201 983.753L266.882 983.601C262.057 981.295 258.256 977.055 255.593 971.033C246.902 951.317 252.614 918.175 253.504 913.39C252.777 911.881 250.575 907.095 248.544 901.953C243.937 890.281 244.221 886.866 244.838 885.31C244.979 884.916 245.202 884.557 245.493 884.256C245.784 883.956 246.135 883.721 246.524 883.568C248.341 882.863 250.328 882.07 252.425 881.23C265.032 876.183 282.302 869.273 296.17 869.273C300.417 869.273 304.163 869.924 307.317 871.215C315.336 874.488 322.341 897.503 323.711 902.252C326.407 904.03 338.607 912.172 343.429 916.863C343.603 917.033 343.792 917.226 343.937 917.383C346.873 920.503 348.043 924.015 349.177 927.415C349.994 929.87 350.764 932.186 352.16 934.15C354.267 937.113 356.469 943.968 358.594 950.597C360.164 955.477 361.781 960.521 363.027 962.772L363.201 963.073C363.947 964.252 364.385 965.6 364.473 966.992C364.561 968.385 364.298 969.777 363.706 971.041C362.224 974.353 358.921 976.761 354.877 977.484C353.173 977.79 350.964 979.408 349.427 980.597C348.123 981.623 346.764 982.779 345.325 984.03C340.431 988.233 334.883 993.001 329.524 993.448C328.972 993.495 328.372 993.521 327.78 993.521Z" fill="#CE44A2"/>
<path d="M296.17 870.91C300.01 870.91 303.575 871.452 306.707 872.728C314.649 875.979 322.33 903.273 322.33 903.273C322.33 903.273 337.06 912.899 342.313 918.023C342.473 918.179 342.629 918.339 342.782 918.499C347.549 923.568 347.346 930.135 350.855 935.084C354.365 940.033 358.652 958.183 361.625 963.553C361.697 963.688 361.77 963.812 361.843 963.917C364.818 968.764 361.043 974.706 354.616 975.855C352.799 976.179 350.725 977.517 348.465 979.292C342.651 983.844 335.708 991.292 329.433 991.797C328.885 991.844 328.343 991.866 327.791 991.866C320.844 991.866 314.537 988.383 310.99 988.383H310.805C310.354 988.386 309.909 988.488 309.501 988.681C308.135 989.364 304.777 990.292 299.545 990.292C296.268 990.27 292.998 989.96 289.775 989.364C284.474 988.379 279.279 986.888 274.261 984.913C272.226 984.133 270.109 983.242 267.91 982.241L267.623 982.106C262.805 979.804 259.433 975.597 257.115 970.346C248.032 949.746 255.237 913.146 255.237 913.146C255.237 913.146 242.578 886.848 247.12 885.092C259.982 880.117 280.376 870.91 296.17 870.91ZM296.17 867.637C282 867.637 264.56 874.619 251.814 879.713C249.725 880.553 247.749 881.343 245.936 882.044C245.338 882.281 244.797 882.64 244.346 883.098C243.896 883.557 243.546 884.104 243.32 884.706C242.495 886.797 242.288 890.55 247.029 902.557C248.919 907.346 250.924 911.724 251.803 913.615C250.643 920.314 249.868 927.075 249.482 933.863C248.566 949.943 250.121 962.67 254.1 971.681C256.926 978.084 261.003 982.59 266.188 985.07L266.489 985.212H266.511C268.717 986.219 270.915 987.143 273.051 987.968C278.263 990.014 283.657 991.56 289.161 992.586H289.227C292.62 993.206 296.06 993.529 299.509 993.55C304.152 993.55 308.371 992.841 310.827 991.644H310.954C311.939 991.644 313.77 992.208 315.706 992.808C319.049 993.841 323.209 995.124 327.755 995.124C328.401 995.124 329.044 995.099 329.669 995.048C335.555 994.553 341.314 989.593 346.383 985.23C347.811 984.004 349.155 982.848 350.43 981.844C352.563 980.172 354.147 979.233 355.154 979.055C359.728 978.237 363.478 975.477 365.182 971.67C365.874 970.164 366.182 968.509 366.078 966.855C365.974 965.2 365.461 963.597 364.586 962.19V962.168C364.546 962.103 364.506 962.037 364.473 961.972C364.474 961.962 364.474 961.952 364.473 961.943C363.307 959.83 361.712 954.863 360.168 950.055C357.904 942.997 355.764 936.332 353.508 933.161C352.254 931.397 351.52 929.193 350.743 926.859C349.609 923.459 348.327 919.586 345.151 916.23C344.955 916.026 344.788 915.844 344.602 915.673C339.944 911.128 328.616 903.503 325.139 901.193C324.456 898.899 322.799 893.593 320.542 887.983C319.091 884.239 317.341 880.617 315.31 877.153C312.876 873.153 310.474 870.706 307.967 869.681C304.621 868.31 300.664 867.615 296.206 867.615L296.17 867.637Z" fill="#17091D"/>
<path d="M354.598 975.877C352.781 976.201 350.706 977.539 348.446 979.314C342.633 983.866 335.69 991.314 329.415 991.819C321.705 992.463 314.562 988.27 310.787 988.408C310.336 988.412 309.891 988.513 309.483 988.706C307.404 989.75 300.719 991.35 289.757 989.39C284.456 988.404 279.261 986.914 274.243 984.939C272.208 984.159 270.091 983.268 267.892 982.266L267.605 982.132C263.797 980.27 260.295 976.088 257.097 970.372C248.014 949.772 255.219 913.172 255.219 913.172C255.219 913.172 242.578 886.848 247.12 885.092C263.107 878.91 290.72 866.183 306.707 872.728C314.649 875.979 322.33 903.274 322.33 903.274C322.33 903.274 304.788 879.248 296.533 880.728C287.33 882.372 268.989 886.252 260.563 886.91C252.138 887.568 266.671 934.292 267.888 947.419C268.698 956.19 267.38 967.943 272.201 974.965C274.595 978.456 278.505 980.783 284.943 980.99L286.927 981.045C296.374 981.23 302.986 980.43 308.291 979.903C313.098 979.423 316.818 979.176 320.553 980.056C326.646 981.51 336.932 984.456 349.05 976.056C353.046 973.285 357.275 969.266 361.603 963.546C361.675 963.681 361.748 963.805 361.821 963.91C364.8 968.786 361.025 974.728 354.598 975.877Z" fill="#9C398C"/>
<path d="M340.706 942.99C341.264 942.378 342.212 942.333 342.825 942.891C343.438 943.448 343.482 944.397 342.925 945.01C338.102 950.309 336.197 955.575 335.485 959.485C335.128 961.446 335.07 963.071 335.1 964.193C335.114 964.754 335.15 965.188 335.182 965.475C335.197 965.618 335.211 965.724 335.221 965.79C335.225 965.823 335.229 965.847 335.231 965.859C335.232 965.863 335.232 965.865 335.232 965.867C335.38 966.682 334.84 967.462 334.025 967.61C333.21 967.759 332.43 967.218 332.281 966.403L333.757 966.135L332.281 966.401L332.28 966.399C332.28 966.398 332.28 966.396 332.279 966.395C332.279 966.391 332.278 966.387 332.277 966.383C332.276 966.373 332.274 966.361 332.271 966.346C332.267 966.316 332.26 966.276 332.253 966.226C332.238 966.124 332.219 965.981 332.199 965.8C332.16 965.438 332.117 964.92 332.101 964.271C332.067 962.972 332.135 961.138 332.534 958.948C333.334 954.558 335.458 948.756 340.706 942.99Z" fill="#17091D"/>
<path d="M335.52 952.674C335.97 951.978 336.899 951.779 337.594 952.229L336.78 953.488C337.594 952.228 337.595 952.229 337.595 952.23L337.596 952.231C337.597 952.231 337.599 952.232 337.601 952.233C337.605 952.236 337.609 952.239 337.615 952.242C337.626 952.249 337.641 952.259 337.66 952.272C337.698 952.297 337.752 952.333 337.82 952.38C337.956 952.473 338.15 952.61 338.391 952.787C338.874 953.142 339.55 953.662 340.338 954.338C341.911 955.687 343.951 957.673 345.8 960.213C349.505 965.3 352.522 972.74 349.271 981.667C348.988 982.445 348.127 982.847 347.348 982.564C346.57 982.28 346.168 981.419 346.452 980.641C349.246 972.968 346.723 966.575 343.376 961.98C341.699 959.678 339.834 957.86 338.384 956.615C337.661 955.995 337.047 955.521 336.617 955.205C336.402 955.048 336.233 954.93 336.122 954.854C336.066 954.815 336.024 954.787 335.998 954.77C335.985 954.761 335.976 954.755 335.97 954.751C335.968 954.75 335.967 954.748 335.966 954.747C335.966 954.748 335.964 954.747 335.964 954.747L335.965 954.748C335.27 954.298 335.071 953.37 335.52 952.674Z" fill="#17091D"/>
<path d="M307.73 960.688C308.556 960.752 309.174 961.472 309.111 962.298C309.11 962.3 309.11 962.304 309.11 962.308C309.109 962.316 309.109 962.328 309.108 962.343C309.105 962.376 309.101 962.426 309.097 962.492C309.088 962.623 309.076 962.819 309.062 963.073C309.034 963.581 308.999 964.321 308.973 965.236C308.92 967.068 308.901 969.598 309.037 972.392C309.314 978.068 310.221 984.512 312.546 988.521C312.962 989.238 312.718 990.156 312.001 990.572C311.285 990.987 310.366 990.743 309.95 990.027C307.229 985.334 306.319 978.233 306.041 972.539C305.9 969.648 305.919 967.037 305.974 965.149C306.001 964.205 306.037 963.439 306.067 962.908C306.081 962.642 306.094 962.434 306.104 962.292C306.108 962.221 306.113 962.166 306.115 962.128C306.117 962.11 306.118 962.096 306.118 962.086C306.119 962.081 306.119 962.077 306.119 962.074V962.069C306.183 961.243 306.904 960.625 307.73 960.688Z" fill="#17091D"/>
<path d="M286.509 969.05C287.284 969.096 287.885 969.724 287.917 970.483L287.916 970.637V970.638C287.916 970.639 287.915 970.641 287.915 970.644C287.914 970.651 287.915 970.662 287.914 970.677C287.912 970.706 287.91 970.75 287.907 970.809C287.901 970.928 287.894 971.106 287.886 971.335C287.872 971.793 287.857 972.457 287.86 973.266C287.866 974.889 287.942 977.084 288.215 979.387C288.489 981.7 288.956 984.062 289.719 986.051C290.493 988.065 291.496 989.503 292.718 990.234C293.429 990.66 293.661 991.581 293.235 992.292C292.81 993.003 291.888 993.234 291.177 992.808C289.122 991.578 287.797 989.413 286.919 987.127C286.031 984.815 285.525 982.179 285.236 979.739C284.946 977.289 284.867 974.975 284.86 973.278C284.857 972.428 284.872 971.728 284.887 971.239C284.895 970.994 284.904 970.802 284.91 970.669C284.913 970.602 284.916 970.551 284.918 970.515C284.919 970.498 284.919 970.483 284.92 970.473C284.92 970.469 284.92 970.465 284.921 970.462V970.458C284.921 970.457 284.921 970.457 286.419 970.547L284.921 970.457C284.97 969.63 285.682 969 286.509 969.05Z" fill="#17091D"/>
<path d="M272.369 973.148C273.194 973.226 273.798 973.959 273.72 974.783L273.718 974.799C273.716 974.814 273.714 974.84 273.712 974.874C273.707 974.943 273.7 975.048 273.693 975.185C273.679 975.459 273.665 975.861 273.668 976.353C273.674 977.341 273.748 978.67 274.009 980.056C274.549 982.925 275.786 985.532 278.307 986.481C279.082 986.772 279.473 987.638 279.182 988.413C278.89 989.188 278.025 989.58 277.25 989.288C273.191 987.761 271.651 983.744 271.061 980.611C270.756 978.997 270.675 977.479 270.668 976.371C270.665 975.815 270.681 975.355 270.697 975.031C270.705 974.869 270.714 974.741 270.721 974.65C270.724 974.605 270.726 974.57 270.728 974.544C270.73 974.531 270.731 974.521 270.731 974.514C270.732 974.51 270.732 974.506 270.732 974.504C270.733 974.503 270.732 974.501 270.732 974.5L270.733 974.499C270.739 974.499 270.832 974.507 272.227 974.641L270.733 974.498C270.812 973.673 271.544 973.069 272.369 973.148Z" fill="#17091D"/>
<path d="M318.878 973.456C320.985 973.456 322.693 968.816 322.693 963.092C322.693 957.368 320.985 952.729 318.878 952.729C316.772 952.729 315.063 957.368 315.063 963.092C315.063 968.816 316.772 973.456 318.878 973.456Z" fill="#D969BD"/>
<path d="M295.625 972.002C297.732 972.002 299.44 968.501 299.44 964.183C299.44 959.866 297.732 956.365 295.625 956.365C293.518 956.365 291.81 959.866 291.81 964.183C291.81 968.501 293.518 972.002 295.625 972.002Z" fill="#D969BD"/>
<path d="M278.548 976C280.655 976 282.363 973.314 282.363 970C282.363 966.686 280.655 964 278.548 964C276.441 964 274.733 966.686 274.733 970C274.733 973.314 276.441 976 278.548 976Z" fill="#D969BD"/>
<path d="M499.273 600.879C484.543 592.762 461.174 566.111 429.818 521.675C406.543 488.682 387.308 457.65 387.105 457.34L386.741 456.77L386.89 456.115C390.469 440.406 410.231 425.05 417.025 421.231C418.218 420.568 419.563 420.226 420.927 420.239C425.047 420.239 429.324 423.148 430.461 426.682C431.213 429.042 430.432 431.26 428.317 432.77C425.734 434.61 424.157 435.864 424.001 437.78C423.739 441.053 427.493 446.482 435.482 454.384C452.352 471.071 523.046 556.879 523.772 557.744L524.481 558.602L500.726 601.664L499.273 600.879Z" fill="#7E4282"/>
<path d="M420.938 421.876C426.388 421.876 432.049 428.105 427.38 431.436C421.796 435.436 417.341 438.709 434.345 455.549C451.349 472.389 522.526 558.785 522.526 558.785L500.065 599.447C465.072 580.174 388.496 456.48 388.496 456.48C391.988 441.138 411.891 426 417.835 422.661C418.784 422.135 419.853 421.864 420.938 421.876ZM420.938 418.603C419.292 418.589 417.671 419.004 416.233 419.807C412.6 421.843 405.962 426.763 399.941 432.749C394.4 438.258 387.366 446.72 385.31 455.752L385.012 457.061L385.717 458.203C385.909 458.512 405.184 489.589 428.488 522.618C459.986 567.272 483.54 594.076 498.488 602.312L501.347 603.887L502.928 601.029L525.389 560.363L526.479 558.418L525.062 556.701C522.156 553.167 453.587 469.963 436.66 453.218C426.799 443.465 425.534 439.44 425.658 437.909C425.752 436.701 427.093 435.665 429.291 434.098C431.983 432.178 433.012 429.218 432.042 426.181C430.708 422 425.73 418.6 420.953 418.6L420.938 418.603Z" fill="#17091D"/>
<path d="M555.106 452.29C555.692 455.161 555.803 458.11 555.437 461.017C553.591 475.454 511.989 546.934 503.814 557.635C495.639 568.337 466.028 622.363 466.028 622.363L414.071 733.999C414.071 733.999 435.508 737.272 449.314 738.363C449.314 738.363 474.312 678.639 486.374 660.181C496.257 645.061 551.117 554.581 559.768 535.817C568.488 516.908 589.089 485.512 586.418 474.483C584.522 466.646 578.018 454.588 572.488 446.457C570.235 443.148 553.137 442.421 555.106 452.29Z" fill="#7E4282"/>
<path d="M561.994 442.948C564.326 442.603 566.788 442.702 568.841 443.114C569.868 443.32 570.833 443.613 571.648 443.994C572.384 444.338 573.128 444.813 573.631 445.477L573.728 445.613C579.289 453.789 585.915 466.027 587.876 474.13C588.276 475.782 588.218 477.703 587.877 479.756C587.533 481.822 586.884 484.116 586.021 486.559C584.296 491.444 581.662 497.064 578.701 502.876C572.908 514.244 565.936 526.227 561.547 535.551L561.13 536.445C556.762 545.918 540.831 573.315 524.821 600.133C508.791 626.986 492.59 653.412 487.63 661.002C481.675 670.113 472.459 689.543 464.689 706.809C460.815 715.418 457.317 723.452 454.787 729.335C453.522 732.276 452.5 734.678 451.794 736.345C451.441 737.179 451.166 737.828 450.98 738.269C450.887 738.49 450.817 738.658 450.769 738.771C450.746 738.828 450.728 738.871 450.716 738.899C450.71 738.913 450.706 738.924 450.703 738.931L450.698 738.941L450.279 739.943L449.196 739.858C442.25 739.309 433.405 738.214 426.315 737.258C422.767 736.78 419.65 736.336 417.421 736.011C416.306 735.849 415.412 735.717 414.798 735.625C414.49 735.579 414.252 735.544 414.091 735.519C414.01 735.507 413.949 735.497 413.908 735.491C413.887 735.488 413.872 735.486 413.861 735.484C413.856 735.483 413.851 735.483 413.848 735.482C413.847 735.482 413.846 735.482 413.845 735.482L413.844 735.481L411.867 735.179L464.668 621.729L464.688 621.684L464.713 621.641L466.028 622.362C464.713 621.641 464.712 621.642 464.713 621.641L464.714 621.638C464.715 621.637 464.716 621.635 464.718 621.632C464.721 621.625 464.727 621.615 464.734 621.602C464.748 621.576 464.769 621.536 464.798 621.485C464.854 621.382 464.938 621.23 465.048 621.031C465.267 620.632 465.59 620.045 466.003 619.296C466.829 617.796 468.018 615.643 469.47 613.026C472.376 607.791 476.335 600.699 480.551 593.271C488.949 578.474 498.457 562.178 502.623 556.724C506.632 551.475 519.025 531.029 530.687 509.999C536.507 499.505 542.12 488.91 546.39 480.048C548.526 475.615 550.318 471.633 551.63 468.322C552.956 464.975 553.744 462.43 553.949 460.827C554.295 458.082 554.189 455.3 553.636 452.59L553.635 452.583C553.047 449.634 553.89 447.294 555.652 445.652C557.325 444.094 559.688 443.289 561.994 442.948ZM568.25 446.055C566.525 445.709 564.411 445.623 562.433 445.916C560.43 446.212 558.747 446.87 557.697 447.847C556.738 448.741 556.182 450.008 556.576 451.99C557.194 455.022 557.311 458.135 556.925 461.205V461.207C556.668 463.213 555.753 466.06 554.419 469.426C553.07 472.83 551.245 476.884 549.094 481.35C544.789 490.285 539.145 500.935 533.311 511.454C521.668 532.448 509.172 553.092 505.007 558.546C500.997 563.794 491.611 579.861 483.16 594.753C478.951 602.169 474.996 609.252 472.094 614.481C470.642 617.096 469.455 619.247 468.63 620.744C468.217 621.492 467.895 622.077 467.677 622.475C467.567 622.674 467.484 622.826 467.427 622.928C467.401 622.978 467.379 623.015 467.365 623.041L416.278 732.81C416.735 732.878 417.262 732.957 417.852 733.043C420.074 733.366 423.179 733.808 426.716 734.285C433.429 735.189 441.669 736.212 448.353 736.778C448.528 736.362 448.756 735.824 449.031 735.174C449.739 733.503 450.764 731.095 452.031 728.149C454.565 722.257 458.07 714.206 461.953 705.578C469.697 688.368 479.011 668.707 485.119 659.36L486.171 657.731C492.062 648.53 507.214 623.776 522.245 598.596C538.298 571.705 554.123 544.48 558.406 535.189C562.771 525.725 570.195 512.961 576.028 501.513C578.973 495.734 581.534 490.255 583.192 485.56C584.021 483.214 584.612 481.098 584.918 479.262C585.226 477.413 585.228 475.94 584.961 474.836C583.129 467.266 576.747 455.387 571.248 447.3C571.185 447.209 570.951 446.979 570.379 446.712C569.836 446.458 569.111 446.228 568.25 446.055Z" fill="#17091D"/>
</svg>
