<svg width="1000" height="1000" viewBox="0 0 1000 1000" fill="none" xmlns="http://www.w3.org/2000/svg">
<path d="M470.253 995.275C448.122 995.275 423.02 991.889 395.632 985.209C363.658 977.409 339.816 967.755 339.58 967.649L338.516 967.213L342.149 881.238L354.629 824.947L356.203 825.267C361.34 826.315 367.103 827.275 373.33 828.118C399.77 831.711 436.078 833.533 481.24 833.533C489.938 833.533 499.044 833.467 508.33 833.329H508.694C510.801 833.296 512.897 833.267 514.987 833.227L518.297 833.165C522.573 833.082 526.875 832.987 531.086 832.882C579.54 831.671 619.714 829.133 627.278 828.635L630.076 828.442L630.367 829.838C630.367 829.838 630.439 830.173 630.567 830.802C630.741 831.664 634.927 852.235 640.159 877.205C645.14 901.078 656.145 927.885 663.412 945.624C666.468 953.071 668.862 958.955 669.785 962.1C670.933 966.1 670.417 969.645 668.252 972.682C664.662 977.718 656.817 981.169 643.57 983.544C631.751 985.66 617.178 986.605 603.193 987.315C599.596 987.496 596.25 987.587 592.962 987.587C585.906 987.587 580.412 987.169 575.104 986.765C570.072 986.402 565.319 986.038 559.397 986.002H558.826C546.251 986.002 531.115 987.609 509.755 991.213L509.17 991.311L508.552 991.413L508.352 991.449C506.038 991.842 503.629 992.267 500.969 992.744C491.592 994.424 481.255 995.275 470.253 995.275Z" fill="#7E4282"/>
<path d="M355.876 826.87C361.174 827.961 366.947 828.903 373.113 829.739C403.157 833.823 442.48 835.168 481.244 835.168C490.357 835.168 499.436 835.095 508.36 834.964H508.527C510.707 834.931 512.872 834.895 515.023 834.859L518.337 834.797C522.657 834.714 526.93 834.619 531.134 834.514C579.704 833.299 619.587 830.775 627.391 830.263L628.772 830.168C628.772 830.168 628.841 830.499 628.968 831.124C629.873 835.554 633.826 854.848 638.56 877.535C645.711 911.783 665.265 952.299 668.219 962.55C673.404 980.55 639.698 983.823 603.114 985.677C599.353 985.866 596.01 985.946 592.966 985.946C579.45 985.946 571.801 984.408 559.408 984.361H558.86C548.17 984.361 533.909 985.477 509.508 989.594L508.927 989.692L508.106 989.83C505.734 990.235 503.267 990.667 500.704 991.128C490.894 992.892 480.656 993.648 470.272 993.648C444.678 993.648 418.315 989.055 396.035 983.626C363.8 975.764 340.216 966.139 340.216 966.139L343.766 881.455L355.876 826.87ZM353.38 823.023L352.682 826.161L340.573 880.746L340.511 881.03V881.317L336.943 965.997L336.845 968.295L338.974 969.164C339.214 969.263 363.154 978.983 395.254 986.801C422.766 993.514 448.003 996.917 470.264 996.917C481.364 996.917 491.799 996.052 501.275 994.346C503.92 993.87 506.332 993.448 508.647 993.052L508.796 993.026L509.435 992.921H509.446L509.998 992.826H510.035C531.301 989.241 546.368 987.641 558.841 987.641H559.412C565.265 987.663 569.985 988.004 574.988 988.401C580.329 988.808 585.855 989.226 592.969 989.226C596.286 989.226 599.662 989.135 603.281 988.954C617.324 988.226 631.959 987.288 643.865 985.157C657.563 982.703 665.734 979.041 669.589 973.637C672.06 970.172 672.659 966.139 671.366 961.637C670.432 958.404 668.125 952.775 664.931 944.99C657.664 927.306 646.717 900.583 641.765 876.859C636.555 851.892 632.351 831.324 632.177 830.463L631.977 829.492L631.392 826.699L628.551 826.895L627.224 826.986H627.166C619.612 827.481 579.468 830.019 531.043 831.23C526.875 831.335 522.577 831.43 518.264 831.514L514.958 831.575C512.807 831.617 510.649 831.652 508.483 831.681H508.302C499.029 831.815 489.921 831.884 481.233 831.884C436.14 831.884 399.908 830.066 373.541 826.484C367.339 825.644 361.613 824.692 356.519 823.652L353.369 823.012L353.38 823.023Z" fill="#17091D"/>
<path d="M396.944 956.364C396.835 964 396.46 973.92 396.017 983.636C363.782 975.775 340.198 966.149 340.198 966.149L343.766 881.455L355.876 826.869C361.173 827.96 366.947 828.902 373.113 829.738C370.348 839.102 364.832 861.487 370.954 873.953C371.365 874.789 371.805 875.702 372.266 876.684C380.699 894.546 397.242 935.509 396.944 956.364Z" fill="#5C2C66"/>
<path d="M515.259 975.638C533.204 968.249 541.932 915.42 547.233 921.456C552.159 927.067 551.324 967.438 556.785 978.969C557.691 980.881 558.566 982.678 559.412 984.358C548.657 984.318 533.193 986.358 508.356 990.54C512.265 985.743 501.678 981.234 515.259 975.638Z" fill="#5C2C66"/>
<path d="M579.643 943.243C580.133 942.847 580.478 942.571 580.645 942.443C580.482 942.578 580.14 942.851 579.643 943.243Z" fill="#5C2C66"/>
<path d="M638.564 877.532C631.439 870.656 623.049 862.82 618.994 859.969C611.183 854.482 591.196 861.82 567.165 867.242C559.724 868.922 551.407 869.951 543.476 870.572C532.345 871.403 521.179 871.646 510.024 871.3L508.934 860.449L508.53 859.849L508.374 834.954V834.183C508.374 834.183 511.797 834.689 515.041 834.856C515.746 834.892 516.444 834.914 517.094 834.911C517.297 834.911 517.737 834.969 518.391 835.045C522.646 835.534 526.952 835.353 531.151 834.511C579.722 833.296 619.605 830.772 627.409 830.26L628.986 831.122C629.876 835.551 633.829 854.845 638.564 877.532Z" fill="#5C2C66"/>
<path d="M545.121 855.068C545.121 855.071 545.122 855.077 545.122 855.084C545.122 855.099 545.123 855.121 545.123 855.149C545.124 855.205 545.125 855.288 545.127 855.398C545.13 855.617 545.135 855.942 545.139 856.365C545.147 857.21 545.153 858.449 545.148 860.028C545.139 863.185 545.083 867.702 544.898 873.15C544.53 884.041 543.648 898.672 541.59 913.596C539.534 928.502 536.295 943.789 531.177 955.952C526.09 968.04 518.963 977.476 508.879 979.904C508.074 980.098 507.263 979.601 507.069 978.796C506.876 977.991 507.371 977.181 508.176 976.987C516.798 974.911 523.411 966.674 528.412 954.789C533.381 942.98 536.577 927.992 538.618 913.186C540.657 898.398 541.534 883.878 541.9 873.048C542.083 867.636 542.139 863.149 542.148 860.018C542.153 858.453 542.146 857.227 542.139 856.393C542.135 855.976 542.13 855.657 542.127 855.443C542.125 855.336 542.124 855.255 542.123 855.201C542.123 855.175 542.122 855.154 542.122 855.141V855.123L543.622 855.092C545.121 855.062 545.121 855.063 545.121 855.064C545.121 855.065 545.121 855.066 545.121 855.068ZM543.592 853.592C544.42 853.576 545.104 854.234 545.121 855.062L543.622 855.092L542.122 855.122C542.105 854.294 542.764 853.609 543.592 853.592Z" fill="#17091D"/>
<path d="M522.527 861.455L510.024 871.309L508.48 870.982C494.238 868.029 385.942 846.647 372.267 876.684C371.573 878.221 371.13 879.86 370.955 881.538C368.833 901.069 359.099 893.571 349.787 880.978L355.877 826.869C361.174 827.96 366.947 828.902 373.113 829.738C410.22 834.782 461.487 835.636 508.357 834.964V834.182C508.357 834.182 511.779 834.687 515.024 834.855L518.337 834.793L518.374 835.044L522.527 861.455Z" fill="#5C2C66"/>
<path d="M508.528 832.865C509.357 832.866 510.028 833.538 510.027 834.366L510.017 859.864L509.584 991.412C509.582 992.241 508.909 992.911 508.08 992.909C507.252 992.907 506.582 992.234 506.584 991.405L506.588 989.823L507.017 859.859L507.027 834.364C507.028 833.536 507.7 832.865 508.528 832.865Z" fill="#17091D"/>
<path d="M584.599 525.358C584.477 525.359 584.355 525.347 584.235 525.321C583.828 525.234 543.062 516.405 502.736 507.303C479.047 501.954 460.139 497.561 446.543 494.245C438.455 492.274 432.177 490.663 427.878 489.46C420.219 487.314 419.747 486.812 419.5 485.678C418.824 482.554 411.143 444.14 410.82 442.503C410.737 442.095 410.813 441.671 411.034 441.318L425.931 417.318C426.088 417.065 426.312 416.861 426.578 416.729C427.533 416.227 450.354 404.467 478.836 404.467C482.982 404.463 487.124 404.726 491.236 405.256C506.347 407.227 522.189 409.743 535.647 414.78C549.413 419.932 559.514 427.165 567.427 437.55C583.905 459.172 586.143 521.041 586.23 523.663C586.238 523.883 586.202 524.101 586.124 524.307C586.046 524.512 585.927 524.699 585.774 524.857C585.622 525.015 585.439 525.14 585.237 525.226C585.035 525.311 584.818 525.355 584.599 525.354V525.358Z" fill="#CE44A2"/>
<path d="M478.836 406.106C482.91 406.1 486.981 406.36 491.022 406.884C524.706 411.273 549.776 417.092 566.126 438.546C582.476 460.001 584.598 523.721 584.598 523.721C584.598 523.721 421.792 488.473 421.098 485.328C420.404 482.183 412.436 442.183 412.436 442.183L427.333 418.183C427.333 418.183 450.427 406.11 478.836 406.106ZM478.836 402.833C463.735 402.833 450.154 406.204 441.412 409.015C431.947 412.099 426.065 415.153 425.818 415.273C425.3 415.546 424.864 415.951 424.554 416.448L409.657 440.448C409.221 441.156 409.068 442.003 409.228 442.819C409.555 444.452 417.222 482.881 417.916 486.015C418.366 488.095 420.368 488.797 421.978 489.361C423.26 489.808 425.048 490.353 427.449 491.026C431.769 492.233 438.066 493.852 446.168 495.826C459.775 499.146 478.69 503.543 502.391 508.892C542.721 517.983 583.497 526.826 583.904 526.913C584.132 526.963 584.365 526.987 584.598 526.986C585.037 526.986 585.471 526.898 585.875 526.727C586.279 526.556 586.645 526.305 586.95 525.989C587.255 525.674 587.494 525.3 587.651 524.89C587.809 524.481 587.883 524.043 587.868 523.604C587.868 523.444 587.301 507.292 584.736 488.724C581.241 463.459 575.856 445.906 568.75 436.553C560.64 425.913 550.311 418.506 536.242 413.244C522.632 408.153 506.678 405.608 491.469 403.63C487.286 403.092 483.074 402.823 478.857 402.826L478.836 402.833Z" fill="#17091D"/>
<path d="M428.532 453.212L509.279 444.805L571.471 467.83L583.265 541.736L558.133 669.488L494.732 650.001C494.732 650.001 405.853 485.219 406.874 483.43C407.895 481.641 406.874 459.03 406.874 459.03L412.102 451.819L428.532 453.212Z" fill="#5C2C66"/>
<path d="M509.8 443.397L572.814 466.727L584.788 541.762L584.737 542.024L559.284 671.41L493.703 651.253L493.411 650.712L494.731 650C493.411 650.712 493.411 650.711 493.41 650.71C493.41 650.709 493.408 650.707 493.407 650.705C493.405 650.7 493.401 650.692 493.396 650.682C493.385 650.662 493.368 650.632 493.347 650.593C493.304 650.514 493.24 650.395 493.156 650.239C492.988 649.927 492.738 649.464 492.413 648.86C491.762 647.653 490.808 645.882 489.594 643.627C487.165 639.117 483.697 632.673 479.539 624.935C471.222 609.458 460.144 588.803 449.097 568.092C438.05 547.381 427.033 526.611 418.841 510.904C414.745 503.053 411.352 496.459 409.014 491.77C407.845 489.427 406.933 487.546 406.327 486.217C406.026 485.556 405.79 485.007 405.634 484.597C405.558 484.397 405.486 484.191 405.438 484.004C405.415 483.914 405.385 483.781 405.372 483.63C405.367 483.566 405.317 483.13 405.571 482.686C405.499 482.812 405.521 482.839 405.567 482.589C405.604 482.39 405.64 482.107 405.673 481.735C405.738 480.996 405.781 480.005 405.805 478.832C405.852 476.492 405.821 473.523 405.757 470.591C405.693 467.663 405.598 464.789 405.519 462.646C405.479 461.574 405.443 460.686 405.417 460.066C405.404 459.757 405.394 459.514 405.387 459.349C405.383 459.266 405.38 459.203 405.378 459.16C405.377 459.139 405.376 459.123 405.376 459.112V459.097L405.352 458.573L411.385 450.252L428.514 451.704L509.472 443.275L509.8 443.397ZM428.547 454.718L428.405 454.706L412.819 453.384L408.395 459.486C408.4 459.616 408.407 459.768 408.414 459.941C408.44 460.565 408.477 461.458 408.517 462.534C408.597 464.686 408.693 467.577 408.757 470.525C408.821 473.47 408.853 476.49 408.805 478.893C408.78 480.091 408.735 481.16 408.661 481.999C408.624 482.417 408.578 482.803 408.518 483.132C408.497 483.242 408.468 483.372 408.432 483.513C408.434 483.519 408.436 483.526 408.438 483.532C408.559 483.85 408.764 484.328 409.058 484.973C409.641 486.253 410.534 488.096 411.698 490.431C414.025 495.095 417.408 501.669 421.501 509.517C429.686 525.21 440.698 545.971 451.743 566.68C462.788 587.387 473.866 608.039 482.182 623.515C486.34 631.252 489.807 637.696 492.235 642.205C493.449 644.459 494.403 646.23 495.054 647.438C495.356 647.998 495.593 648.438 495.76 648.747L556.982 667.564L581.741 541.705L570.128 468.932L509.088 446.331L428.547 454.718Z" fill="#17091D"/>
<path d="M423.932 423.273C423.932 423.273 456.915 415.128 491.098 415.455C529.248 415.819 559.041 438.728 559.041 438.728L567.311 494.546C567.311 494.546 551.411 451.819 484.921 453.273C420.004 454.695 412.509 471.433 412.509 471.433L423.932 423.273Z" fill="#9C398C"/>
<path d="M491.113 413.955C510.475 414.14 527.68 420.042 540.017 425.871C546.191 428.788 551.163 431.695 554.595 433.876C556.312 434.966 557.644 435.877 558.551 436.517C559.005 436.836 559.353 437.09 559.589 437.264C559.706 437.35 559.797 437.417 559.858 437.464C559.889 437.487 559.912 437.505 559.928 437.517C559.937 437.524 559.943 437.529 559.948 437.532C559.95 437.534 559.952 437.535 559.954 437.536L559.955 437.538C559.952 437.542 559.913 437.594 559.425 438.227L559.955 437.538C560.263 437.775 560.469 438.123 560.526 438.508L568.795 494.326C568.907 495.085 568.429 495.808 567.685 495.999C566.942 496.19 566.173 495.789 565.905 495.069C565.904 495.067 565.902 495.061 565.899 495.054C565.893 495.038 565.884 495.012 565.87 494.977C565.842 494.907 565.798 494.798 565.736 494.652C565.613 494.361 565.419 493.926 565.148 493.367C564.606 492.248 563.753 490.635 562.522 488.696C560.06 484.819 556.088 479.642 550.076 474.504C538.079 464.251 517.843 454.053 484.955 454.772C452.605 455.481 434.716 460.005 424.972 464.261C420.108 466.385 417.29 468.435 415.714 469.895C414.927 470.625 414.447 471.211 414.175 471.588C414.039 471.777 413.955 471.914 413.91 471.993C413.887 472.032 413.874 472.057 413.87 472.066C413.868 472.071 413.866 472.071 413.868 472.068C413.869 472.067 413.87 472.064 413.872 472.06C413.873 472.059 413.874 472.056 413.875 472.054L413.813 472.175C413.462 472.794 412.715 473.086 412.028 472.853C411.295 472.605 410.871 471.84 411.049 471.087L422.473 422.927L422.535 422.727C422.71 422.277 423.095 421.934 423.573 421.816H423.575C423.576 421.816 423.578 421.816 423.581 421.815L423.674 421.792C423.74 421.776 423.837 421.753 423.964 421.723C424.218 421.662 424.593 421.574 425.082 421.462C426.059 421.238 427.49 420.918 429.313 420.537C432.959 419.774 438.174 418.762 444.461 417.76C457.027 415.757 473.908 413.79 491.113 413.955ZM491.084 416.955C474.106 416.792 457.405 418.735 444.933 420.723C438.701 421.716 433.534 422.719 429.927 423.474C428.124 423.851 426.712 424.166 425.752 424.386C425.538 424.435 425.347 424.479 425.178 424.518L415.253 466.366C417.156 464.898 419.885 463.209 423.771 461.512C434.004 457.043 452.322 452.487 484.889 451.773C518.491 451.038 539.45 461.477 552.025 472.224C557.931 477.271 561.963 482.366 564.582 486.356L557.649 439.563C557.44 439.41 557.164 439.21 556.823 438.969C555.952 438.354 554.659 437.471 552.986 436.408C549.64 434.282 544.779 431.439 538.736 428.584C526.639 422.868 509.871 417.134 491.084 416.955Z" fill="#17091D"/>
<path d="M687.919 986.099C683.243 986.099 677.924 983.888 672.783 981.735C671.028 981.008 669.371 980.317 667.813 979.75C665.36 978.855 663.616 978.441 662.323 978.441C662.109 978.44 661.895 978.454 661.683 978.481C661.057 978.569 660.426 978.614 659.794 978.615C656.186 978.615 652.854 977.117 650.881 974.615C650.078 973.614 649.517 972.441 649.242 971.187C648.967 969.933 648.986 968.632 649.297 967.386C649.327 967.276 649.351 967.164 649.37 967.052C650.423 961.564 653.868 945.233 655.768 939.135C656.444 936.953 655.452 933.917 654.402 930.695C653.068 926.593 651.55 921.943 653.417 917.968C653.526 917.743 653.632 917.524 653.744 917.31C656.858 911.353 665.931 899.826 667.947 897.292C667.849 894.983 667.547 886.579 667.813 877.677C668.456 856.128 671.718 852.695 672.794 851.568C673.188 851.12 673.672 850.758 674.214 850.508C674.755 850.258 675.344 850.123 675.94 850.113C679.327 850.113 688.657 846.957 696.124 844.419C701.21 842.688 706.053 841.052 709.058 840.346C710.487 840.005 711.95 839.831 713.418 839.826C717.415 839.826 720.63 841.186 723.228 842.277C725.139 843.084 726.789 843.783 728.268 843.783C728.779 843.786 729.286 843.695 729.765 843.513C730.031 843.416 730.313 843.365 730.597 843.364C732.958 843.364 734.048 846.473 734.957 851.146C735.632 854.633 736.25 859.473 736.773 865.532C737.587 874.67 737.979 883.913 738.059 885.895C740.127 889.659 756.226 919.79 754.046 941.459C753.388 948.026 751.089 953.23 747.212 956.928L746.968 957.157C745.213 958.772 743.437 960.313 741.678 961.746C737.439 965.245 732.878 968.334 728.057 970.972C718.378 976.175 711.936 976.735 709.614 976.735C709.1 976.74 708.586 976.707 708.077 976.637H707.954C707.778 976.642 707.605 976.672 707.438 976.724C706.264 977.063 704.626 978.223 702.714 979.564C699.528 981.819 695.56 984.626 690.724 985.779C689.805 985.994 688.864 986.101 687.919 986.099Z" fill="#CE44A2"/>
<path d="M713.414 841.474C719.98 841.474 724.151 845.427 728.253 845.427C728.958 845.433 729.659 845.31 730.32 845.063C730.404 845.032 730.492 845.016 730.582 845.016C734.942 845.016 736.446 886.376 736.446 886.376C736.446 886.376 754.66 918.921 752.433 941.329C751.859 947.038 749.962 952.085 746.096 955.772L745.864 955.991C744.086 957.627 742.35 959.132 740.657 960.507C736.501 963.945 732.026 966.977 727.294 969.561C718.915 974.067 712.695 975.132 709.625 975.132C709.192 975.136 708.76 975.108 708.331 975.049C708.211 975.031 708.09 975.023 707.968 975.023C707.64 975.027 707.315 975.077 707.001 975.172C703.368 976.216 697.882 982.423 690.357 984.209C689.561 984.391 688.747 984.48 687.93 984.474C682.026 984.474 674.443 980.449 668.383 978.241C666.094 977.405 664.023 976.834 662.333 976.834C662.044 976.833 661.755 976.852 661.469 976.889C660.916 976.967 660.359 977.006 659.801 977.005C654.107 977.005 649.686 972.838 650.892 967.791C650.925 967.656 650.957 967.518 650.983 967.365C652.142 961.336 655.517 945.471 657.334 939.645C659.151 933.82 651.946 924.983 654.903 918.681C654.998 918.481 655.096 918.281 655.201 918.081C658.598 911.58 669.611 897.849 669.611 897.849C669.611 897.849 667.365 851.769 675.947 851.769C681.899 851.769 701.839 843.74 709.439 841.951C710.749 841.638 712.09 841.48 713.436 841.478M713.436 838.205C711.845 838.211 710.261 838.399 708.713 838.765C705.632 839.492 700.774 841.136 695.633 842.881C688.653 845.249 679.09 848.492 675.973 848.492C675.154 848.5 674.347 848.678 673.601 849.015C672.855 849.353 672.188 849.842 671.642 850.452C669.596 852.605 666.806 857.761 666.214 877.641C665.963 886.041 666.214 893.812 666.323 896.761C663.718 900.056 655.343 910.805 652.331 916.561C652.222 916.772 652.109 917.001 651.967 917.263V917.285C649.827 921.849 651.448 926.827 652.879 931.216C653.806 934.056 654.761 936.987 654.238 938.663C652.32 944.82 648.854 961.245 647.8 966.743C647.8 966.743 647.8 966.765 647.8 966.78C647.8 966.794 647.771 966.921 647.753 966.998V967.023C647.383 968.509 647.361 970.06 647.689 971.556C648.016 973.051 648.685 974.451 649.642 975.645C651.924 978.554 655.735 980.267 659.837 980.267C660.547 980.266 661.256 980.216 661.959 980.118C662.095 980.101 662.232 980.092 662.37 980.092C663.46 980.092 665.066 980.489 667.304 981.303C668.826 981.86 670.465 982.54 672.201 983.263C677.492 985.445 682.963 987.732 687.966 987.732C689.037 987.736 690.104 987.614 691.146 987.369C696.305 986.147 700.414 983.238 703.721 980.9C705.348 979.747 707.031 978.554 707.939 978.296H707.997C708.55 978.368 709.107 978.402 709.665 978.398C712.11 978.398 718.875 977.82 728.878 972.441C733.793 969.756 738.441 966.608 742.761 963.041C744.541 961.587 746.343 960.03 748.116 958.394L748.138 958.372L748.392 958.136C752.556 954.161 755.023 948.616 755.721 941.652C756.702 931.834 754.224 919.26 748.363 904.26C745.852 897.836 742.969 891.565 739.727 885.478C739.618 882.867 739.222 874.089 738.448 865.405C737.907 859.292 737.278 854.394 736.591 850.86C736.279 849.055 735.799 847.284 735.16 845.569C734.132 843.023 732.617 841.754 730.633 841.751C730.154 841.751 729.679 841.837 729.23 842.005C728.933 842.117 728.618 842.172 728.3 842.169C727.152 842.169 725.641 841.532 723.896 840.794C721.175 839.645 717.789 838.216 713.462 838.216L713.436 838.205Z" fill="#17091D"/>
<path d="M661.458 976.882C663.275 976.627 665.673 977.246 668.361 978.235C675.29 980.758 684.206 985.657 690.336 984.202C697.86 982.417 703.35 976.202 706.98 975.166C707.41 975.029 707.865 974.986 708.313 975.042C710.613 975.406 717.462 974.831 727.276 969.555C732.009 966.97 736.484 963.938 740.639 960.5C742.335 959.123 744.07 957.618 745.846 955.984L746.078 955.766C749.119 952.813 751.165 947.766 752.415 941.322C754.649 918.915 736.428 886.369 736.428 886.369C736.428 886.369 734.866 843.358 730.302 845.057C724.682 847.155 719.653 839.544 709.411 841.947C701.81 843.733 681.87 851.766 675.919 851.766C667.337 851.766 669.582 897.846 669.582 897.846C669.582 897.846 658.569 911.577 655.172 918.078C655.067 918.278 654.969 918.478 654.874 918.678C657.153 916.595 668.412 906.613 676.7 905.446C685.958 904.144 708.855 903.3 717.07 901.304C725.285 899.307 732.101 910.009 735.018 922.867C736.973 931.453 741.875 942.217 739.473 950.387C738.281 954.453 735.287 957.875 729.234 960.078C728.598 960.311 727.973 960.533 727.367 960.747C718.458 963.857 711.91 965.158 706.704 966.307C701.981 967.347 698.369 968.26 695.077 970.267C689.74 973.54 680.875 979.544 666.737 975.358C662.065 973.973 656.811 971.464 650.921 967.358C650.896 967.511 650.863 967.649 650.831 967.784C649.559 973.315 654.994 977.791 661.458 976.882Z" fill="#9C398C"/>
<path d="M662.403 941.853C662.813 941.132 663.728 940.881 664.448 941.29C671.228 945.146 675.049 950.002 677.172 953.928C678.231 955.886 678.865 957.608 679.236 958.853C679.422 959.476 679.542 959.981 679.617 960.338C679.655 960.516 679.681 960.658 679.698 960.759C679.707 960.809 679.713 960.849 679.718 960.879C679.72 960.894 679.722 960.906 679.724 960.916C679.724 960.921 679.725 960.924 679.726 960.928C679.726 960.929 679.725 960.931 679.726 960.933L679.727 960.935C679.727 960.935 679.712 960.939 678.24 961.14L679.727 960.936C679.838 961.757 679.264 962.513 678.443 962.625C677.623 962.737 676.866 962.163 676.754 961.342V961.341C676.754 961.339 676.753 961.337 676.753 961.335C676.751 961.322 676.748 961.299 676.742 961.266C676.731 961.2 676.711 961.095 676.682 960.954C676.622 960.672 676.522 960.249 676.361 959.711C676.04 958.635 675.481 957.107 674.533 955.354C672.642 951.858 669.197 947.441 662.966 943.897C662.246 943.488 661.994 942.573 662.403 941.853Z" fill="#17091D"/>
<path d="M670.277 949.112C670.799 948.469 671.743 948.37 672.387 948.891C673.03 949.413 673.128 950.355 672.608 950.999L672.609 951C672.608 951 672.607 951.002 672.605 951.005C672.601 951.01 672.594 951.019 672.584 951.031C672.564 951.056 672.533 951.095 672.492 951.149C672.41 951.257 672.286 951.422 672.131 951.638C671.82 952.072 671.382 952.713 670.888 953.528C669.896 955.162 668.689 957.471 667.81 960.18C666.055 965.591 665.641 972.452 670.679 978.876C671.19 979.528 671.076 980.471 670.424 980.982C669.772 981.493 668.83 981.379 668.318 980.727C662.457 973.253 663.014 965.242 664.956 959.255C665.926 956.265 667.248 953.743 668.323 951.971C668.862 951.083 669.343 950.378 669.692 949.89C669.867 949.647 670.009 949.457 670.109 949.326C670.16 949.26 670.199 949.209 670.228 949.174C670.242 949.156 670.254 949.142 670.262 949.132C670.266 949.127 670.269 949.122 670.272 949.119C670.273 949.118 670.274 949.116 670.275 949.115L670.276 949.113C670.28 949.115 670.336 949.16 671.427 950.044L670.277 949.112Z" fill="#17091D"/>
<path d="M701.287 947.866C702.053 947.55 702.929 947.913 703.246 948.679L701.86 949.252C703.241 948.681 703.247 948.678 703.247 948.679V948.68C703.247 948.681 703.248 948.682 703.248 948.684C703.249 948.686 703.251 948.69 703.253 948.694C703.257 948.704 703.263 948.717 703.27 948.734C703.284 948.769 703.305 948.82 703.331 948.886C703.384 949.018 703.461 949.212 703.558 949.46C703.751 949.956 704.023 950.672 704.342 951.562C704.98 953.339 705.808 955.815 706.571 958.606C708.075 964.106 709.416 971.138 708.287 976.444C708.115 977.254 707.318 977.772 706.508 977.6C705.698 977.427 705.181 976.631 705.353 975.82C706.317 971.287 705.177 964.878 703.678 959.398C702.94 956.699 702.137 954.3 701.518 952.575C701.208 951.713 700.946 951.021 700.762 950.547C700.67 950.31 700.596 950.127 700.547 950.005C700.523 949.944 700.505 949.898 700.492 949.868C700.486 949.853 700.481 949.842 700.479 949.835C700.477 949.831 700.475 949.829 700.475 949.827V949.825C700.158 949.06 700.522 948.183 701.287 947.866Z" fill="#17091D"/>
<path d="M724.054 949.213C724.825 948.908 725.696 949.287 726.001 950.057L724.605 950.608C726 950.057 726 950.058 726.001 950.058V950.059C726.001 950.06 726.002 950.061 726.003 950.062C726.004 950.065 726.005 950.068 726.006 950.073C726.01 950.082 726.016 950.095 726.022 950.112C726.035 950.145 726.053 950.193 726.077 950.256C726.124 950.38 726.192 950.56 726.275 950.791C726.442 951.251 726.673 951.911 726.934 952.72C727.455 954.335 728.1 956.559 728.585 958.978C729.068 961.387 729.405 964.05 729.279 966.524C729.154 968.971 728.566 971.441 726.995 973.25C726.451 973.875 725.504 973.941 724.879 973.398C724.253 972.855 724.187 971.908 724.73 971.283C725.665 970.206 726.173 968.526 726.283 966.371C726.391 964.243 726.101 961.852 725.643 959.568C725.187 957.294 724.577 955.186 724.079 953.641C723.83 952.871 723.611 952.244 723.455 951.813C723.377 951.598 723.314 951.431 723.272 951.32C723.251 951.265 723.235 951.223 723.224 951.196C723.219 951.182 723.215 951.172 723.213 951.166C723.212 951.163 723.211 951.161 723.211 951.16L723.21 951.159C722.905 950.388 723.284 949.517 724.054 949.213Z" fill="#17091D"/>
<path d="M738.768 948.707C739.528 948.376 740.411 948.724 740.742 949.484L739.367 950.082C740.742 949.483 740.743 949.484 740.743 949.485V949.485C740.743 949.486 740.745 949.487 740.745 949.488C740.746 949.491 740.747 949.494 740.749 949.497C740.752 949.504 740.756 949.514 740.761 949.526C740.771 949.549 740.784 949.582 740.802 949.624C740.836 949.708 740.884 949.828 740.942 949.98C741.058 950.282 741.216 950.714 741.386 951.243C741.723 952.298 742.117 953.767 742.329 955.398C742.74 958.56 742.523 962.857 739.14 965.572C738.493 966.091 737.55 965.987 737.031 965.341C736.513 964.695 736.617 963.751 737.263 963.233C739.366 961.544 739.731 958.681 739.354 955.784C739.172 954.385 738.829 953.099 738.528 952.157C738.378 951.689 738.24 951.312 738.141 951.055C738.092 950.927 738.053 950.828 738.027 950.765C738.014 950.733 738.005 950.71 737.999 950.695L737.991 950.68H737.992C737.662 949.921 738.009 949.038 738.768 948.707Z" fill="#17091D"/>
<path d="M690.75 969.819C693.358 969.819 695.473 965.179 695.473 959.455C695.473 953.732 693.358 949.092 690.75 949.092C688.141 949.092 686.026 953.732 686.026 959.455C686.026 965.179 688.141 969.819 690.75 969.819Z" fill="#D969BD"/>
<path d="M716.568 959.685C719.095 959.038 720.237 954.965 719.118 950.587C717.999 946.209 715.043 943.185 712.515 943.832C709.988 944.479 708.847 948.553 709.966 952.93C711.085 957.308 714.04 960.332 716.568 959.685Z" fill="#D969BD"/>
<path d="M732.667 952.196C734.85 951.637 735.987 948.708 735.206 945.653C734.426 942.599 732.023 940.575 729.84 941.134C727.656 941.693 726.52 944.623 727.301 947.677C728.081 950.732 730.484 952.755 732.667 952.196Z" fill="#D969BD"/>
<path d="M675.577 878.638C670.595 878.614 665.819 876.645 662.267 873.148C658.715 869.652 656.667 864.906 656.56 859.921C656.56 859.816 656.56 859.692 656.56 859.558C656.56 859.507 656.56 859.463 656.56 859.427V859.343C656.56 858.823 656.56 858.299 656.542 857.776V857.699C656.542 857.419 656.542 857.139 656.542 856.859C656.498 848.401 656.905 841.372 657.697 835.976C660.15 819.583 651.43 776.339 644.657 745.245C637.18 710.896 629.913 660.452 634.052 631.339C636.108 616.863 635.607 597.521 635.12 578.79C634.662 561.107 634.23 544.401 636.166 534.481C636.46 532.871 636.894 531.289 637.463 529.754C643.742 513.492 660.197 501.438 660.895 500.932C661.174 500.731 661.51 500.623 661.854 500.623C662.07 500.622 662.285 500.665 662.485 500.749C662.684 500.833 662.865 500.955 663.017 501.11C663.235 501.329 668.441 506.656 674.756 517.987C680.547 528.376 688.403 546.019 692.923 571.078C701.788 620.063 715.086 661.492 720.074 677.089C722.876 685.834 726.702 695.07 730.077 703.219C733.71 712.038 736.879 719.656 737.762 724.31C737.983 725.485 738.212 726.663 738.445 727.863C739.927 735.529 741.609 744.227 743.466 759.136C743.793 761.783 744.4 766.278 745.166 771.969C747.884 792.158 752.433 825.947 754.33 848.547C754.555 851.165 754.736 853.638 754.875 855.899C754.925 856.743 754.98 857.518 755.027 858.23C755.496 865.292 755.623 867.19 751.394 872.154C750.765 872.881 750.765 872.881 737.878 873.572C723.294 874.339 698.881 875.627 680.951 878.067L680.002 878.198C679.585 878.256 679.181 878.31 678.785 878.372H678.702L678.418 878.412C677.478 878.557 676.528 878.632 675.577 878.638Z" fill="#CE44A2"/>
<path d="M661.839 502.277C661.839 502.277 682.615 523.309 691.313 571.368C700.011 619.426 712.673 659.368 718.516 677.586C724.358 695.804 734.502 715.938 736.156 724.597C737.809 733.255 739.702 742.12 741.842 759.324C743.313 771.164 750.264 819.593 752.702 848.669C752.924 851.277 753.105 853.731 753.243 855.986C753.806 865.138 754.333 866.168 750.155 871.077C749.643 871.68 707.827 872.742 680.736 876.429L679.77 876.564L678.516 876.742L678.182 876.789C677.326 876.916 676.461 876.98 675.595 876.982C671.039 876.978 666.666 875.186 663.416 871.99C660.166 868.794 658.298 864.45 658.213 859.891C658.213 859.76 658.213 859.629 658.213 859.498C658.212 859.479 658.212 859.46 658.213 859.44C658.213 858.891 658.213 858.349 658.195 857.778C658.195 857.477 658.195 857.175 658.195 856.873C658.159 849.771 658.421 842.309 659.332 836.233C661.898 819.091 652.451 773.273 646.274 744.909C640.098 716.546 631.276 662.618 635.687 631.582C639.752 602.982 633.899 554.728 637.79 534.808C638.066 533.294 638.473 531.807 639.008 530.364C645.184 514.364 661.872 502.277 661.872 502.277M661.872 499.004C661.183 499.004 660.512 499.221 659.954 499.626C659.227 500.142 642.408 512.473 635.956 529.186C635.351 530.807 634.892 532.479 634.582 534.182C632.609 544.277 633.045 561.069 633.492 578.848C633.975 597.498 634.477 616.782 632.439 631.12C630.437 645.197 630.88 664.88 633.75 689.626C636.711 715.12 641.253 737.262 643.07 745.608C646.954 763.451 658.78 817.757 656.088 835.749C655.267 841.226 654.871 848.338 654.914 856.891C654.914 857.164 654.914 857.455 654.914 857.746V857.818C654.914 858.331 654.914 858.862 654.933 859.389V859.462C654.933 859.498 654.933 859.553 654.933 859.615C654.933 859.677 654.933 859.848 654.933 859.978C655.032 865.396 657.252 870.558 661.113 874.355C664.975 878.153 670.171 880.283 675.584 880.288C676.611 880.287 677.636 880.211 678.651 880.058H678.691C678.771 880.058 678.843 880.033 678.923 880.026L679.061 880.004C679.447 879.946 679.832 879.891 680.224 879.84H680.257L681.176 879.713C699.048 877.28 723.417 875.997 737.98 875.229C741.613 875.04 744.723 874.866 746.889 874.735C750.631 874.495 751.637 874.433 752.655 873.237C754.704 870.826 756.005 868.938 756.571 866.429C757.069 864.211 756.917 861.928 756.666 858.146C756.619 857.418 756.564 856.662 756.513 855.826C756.375 853.549 756.19 851.062 755.968 848.433C754.068 825.793 749.515 791.978 746.794 771.771C746.027 766.088 745.421 761.589 745.094 758.96C743.23 743.982 741.544 735.262 740.058 727.571C739.825 726.371 739.596 725.197 739.375 724.026C738.463 719.222 735.28 711.535 731.592 702.633C728.231 694.513 724.42 685.306 721.637 676.626C716.645 661.058 703.387 619.706 694.539 570.826C689.965 545.549 682.03 527.731 676.177 517.233C669.753 505.709 664.397 500.229 664.187 500C663.882 499.693 663.52 499.448 663.121 499.282C662.722 499.115 662.294 499.029 661.861 499.029L661.872 499.004Z" fill="#17091D"/>
<path d="M750.155 871.092C749.367 871.026 707.809 872.717 680.737 876.445L679.77 876.579L678.517 876.757C676.023 877.118 673.481 876.944 671.06 876.247C668.638 875.549 666.393 874.344 664.472 872.712C662.552 871.079 661 869.056 659.92 866.778C658.841 864.499 658.258 862.017 658.21 859.496C658.208 859.476 658.208 859.457 658.21 859.437C658.21 858.888 658.21 858.347 658.192 857.776C658.192 857.474 658.192 857.172 658.192 856.87C658.156 849.768 658.417 842.306 659.329 836.23C661.894 819.088 652.448 773.27 646.271 744.907C640.094 716.543 631.272 662.616 635.683 631.579C639.749 602.979 633.896 554.725 637.787 534.805L656.96 584.932L658.007 587.823C659.358 591.59 673.95 618.91 666.043 692.001C666.043 692.001 661.436 720.994 675.007 712.87C688.577 704.747 703.605 701.848 702.62 705.477C701.636 709.106 672.583 719.637 671.493 725.456C670.403 731.274 682.851 724.917 696.066 724.641C709.28 724.365 733.068 725.194 718.084 728.416C703.1 731.637 694.747 724.728 683.847 738.547C672.947 752.365 663.5 761.819 670.04 776.365C676.58 790.91 678.175 849.172 697.181 850.586C708.292 851.416 734.081 850.536 752.702 848.685C752.924 851.292 753.105 853.746 753.243 856.001C753.807 865.154 754.333 866.183 750.155 871.092Z" fill="#9C398C"/>
<path d="M674.461 729.712C685.984 725.677 701.362 722.369 716.412 725.57C717.222 725.742 717.739 726.539 717.567 727.349C717.395 728.159 716.598 728.676 715.788 728.504C701.51 725.468 686.743 728.59 675.452 732.543C669.823 734.514 665.096 736.679 661.779 738.349C660.122 739.184 658.819 739.894 657.933 740.394C657.491 740.643 657.152 740.84 656.927 740.974C656.814 741.04 656.729 741.091 656.674 741.124C656.646 741.141 656.625 741.153 656.612 741.161C656.606 741.165 656.601 741.168 656.599 741.17C656.597 741.171 656.596 741.172 656.596 741.172C655.891 741.607 654.967 741.388 654.532 740.683C654.097 739.978 654.316 739.053 655.021 738.618L655.808 739.896C655.075 738.707 655.025 738.624 655.022 738.618L655.024 738.616C655.026 738.616 655.027 738.615 655.029 738.613C655.034 738.611 655.041 738.606 655.05 738.601C655.067 738.59 655.091 738.576 655.123 738.557C655.186 738.519 655.279 738.462 655.4 738.391C655.643 738.248 655.998 738.04 656.459 737.78C657.381 737.26 658.726 736.527 660.43 735.669C663.835 733.954 668.683 731.735 674.461 729.712Z" fill="#17091D"/>
<path d="M694.39 709.473C695.154 709.152 696.033 709.511 696.354 710.275C696.675 711.038 696.316 711.918 695.553 712.238C686.544 716.021 679.217 721.951 674.127 726.968C671.586 729.472 669.615 731.735 668.282 733.369C667.616 734.186 667.11 734.844 666.772 735.295C666.604 735.521 666.477 735.694 666.394 735.81C666.353 735.867 666.322 735.911 666.303 735.939C666.293 735.953 666.285 735.963 666.281 735.969C666.279 735.972 666.278 735.974 666.277 735.975C665.805 736.656 664.87 736.826 664.189 736.354C663.509 735.882 663.339 734.948 663.811 734.267L665.044 735.121C663.829 734.279 663.811 734.266 663.811 734.266L663.812 734.265C663.813 734.264 663.814 734.262 663.815 734.261C663.817 734.258 663.82 734.254 663.823 734.249C663.83 734.24 663.839 734.226 663.851 734.208C663.876 734.173 663.912 734.123 663.959 734.058C664.052 733.928 664.19 733.739 664.37 733.498C664.73 733.016 665.263 732.325 665.958 731.473C667.347 729.77 669.391 727.423 672.021 724.831C677.272 719.656 684.91 713.454 694.39 709.473Z" fill="#17091D"/>
<path d="M753.469 846.353C754.278 846.177 755.077 846.69 755.254 847.5C755.43 848.309 754.917 849.108 754.107 849.285C733.349 853.809 709.315 854.09 690.53 853.254C681.126 852.836 673.011 852.137 667.247 851.542C664.365 851.244 662.068 850.972 660.491 850.775C659.703 850.676 659.093 850.596 658.681 850.541C658.474 850.513 658.317 850.491 658.211 850.476C658.158 850.469 658.117 850.462 658.09 850.459L658.051 850.454L658.048 850.453C658.048 850.449 658.058 850.378 658.261 848.968L658.047 850.453C657.227 850.335 656.658 849.574 656.776 848.754C656.894 847.935 657.655 847.365 658.474 847.483L658.475 847.484C658.477 847.484 658.479 847.484 658.482 847.485C658.488 847.486 658.498 847.487 658.511 847.489L659.082 847.567C659.486 847.621 660.085 847.701 660.864 847.798C662.422 847.993 664.696 848.262 667.556 848.557C673.274 849.148 681.329 849.842 690.664 850.257C709.358 851.089 733.087 850.796 753.469 846.353Z" fill="#17091D"/>
<path d="M728.903 851.603C729.05 850.788 729.83 850.246 730.645 850.393C731.46 850.54 732.002 851.321 731.855 852.136L731.854 852.14C731.853 852.144 731.852 852.152 731.85 852.162C731.847 852.181 731.842 852.21 731.835 852.25C731.822 852.329 731.802 852.45 731.777 852.608C731.727 852.923 731.657 853.387 731.58 853.973C731.426 855.146 731.243 856.804 731.127 858.732C730.893 862.614 730.938 867.484 731.98 871.695C732.179 872.499 731.688 873.312 730.884 873.511C730.08 873.71 729.267 873.22 729.068 872.416C727.919 867.772 727.891 862.549 728.132 858.551C728.253 856.54 728.445 854.812 728.606 853.584C728.686 852.969 728.76 852.479 728.814 852.14C728.84 851.971 728.862 851.839 728.877 851.749C728.885 851.703 728.891 851.667 728.895 851.643C728.897 851.631 728.9 851.622 728.901 851.615C728.901 851.612 728.901 851.609 728.902 851.607L728.903 851.605V851.603Z" fill="#17091D"/>
<path d="M698.959 852.538C699.142 851.73 699.945 851.224 700.753 851.406C701.561 851.589 702.067 852.392 701.885 853.2L701.884 853.204C701.883 853.209 701.881 853.217 701.879 853.228C701.874 853.249 701.867 853.283 701.857 853.327C701.838 853.418 701.811 853.554 701.776 853.734C701.707 854.093 701.61 854.621 701.508 855.288C701.302 856.623 701.07 858.504 700.966 860.678C700.754 865.061 701.069 870.474 703.026 875.001C703.355 875.762 703.005 876.645 702.245 876.974C701.485 877.302 700.602 876.952 700.273 876.192C698.049 871.046 697.749 865.096 697.969 860.533C698.08 858.234 698.325 856.247 698.543 854.832C698.652 854.124 698.754 853.557 698.83 853.164C698.868 852.968 698.899 852.815 698.922 852.709C698.933 852.657 698.942 852.616 698.948 852.587C698.951 852.573 698.953 852.561 698.955 852.553C698.956 852.549 698.957 852.546 698.958 852.543C698.958 852.542 698.958 852.541 698.958 852.54L698.959 852.539V852.538Z" fill="#17091D"/>
<path d="M672.812 849.464C673.637 849.534 674.25 850.261 674.18 851.086V851.088C674.18 851.09 674.179 851.094 674.179 851.098C674.178 851.107 674.177 851.122 674.176 851.14C674.173 851.177 674.168 851.233 674.162 851.307C674.151 851.455 674.134 851.675 674.114 851.958C674.075 852.523 674.024 853.341 673.975 854.344C673.875 856.353 673.784 859.099 673.816 862.054C673.849 865.014 674.004 868.155 674.392 870.961C674.785 873.81 675.395 876.146 676.243 877.612C676.658 878.329 676.413 879.247 675.696 879.662C674.979 880.076 674.061 879.831 673.646 879.114C672.496 877.125 671.825 874.309 671.42 871.372C671.009 868.392 670.849 865.114 670.816 862.086C670.783 859.054 670.876 856.245 670.978 854.196C671.028 853.17 671.082 852.333 671.122 851.751C671.142 851.459 671.159 851.231 671.171 851.076C671.177 850.998 671.182 850.938 671.186 850.897C671.187 850.877 671.188 850.861 671.188 850.85C671.189 850.845 671.19 850.84 671.19 850.837V850.834C671.261 850.008 671.986 849.395 672.812 849.464Z" fill="#17091D"/>
<path d="M585.779 854.507C536.605 854.507 483.475 853.311 443.661 851.311C418.86 850.064 398.815 848.511 384.075 846.696C360.959 843.849 355.775 840.98 353.882 839.06C353.504 838.713 353.202 838.293 352.992 837.826C352.782 837.358 352.669 836.852 352.661 836.34C352.708 830.591 355.829 810.627 357.904 806.205C362.489 796.413 365.748 782.82 366.566 779.216C354.554 767.58 355.302 738.314 355.429 734.929C351.854 722.533 348.424 696.94 346.691 682.722C346.248 679.085 345.965 676.613 345.91 676.082C344.686 671.129 304.973 510.674 303.291 503.645C302.085 498.598 308.32 492.951 313.762 489.1C320.07 484.642 328.103 480.663 334.229 478.969C339.966 477.383 358.463 469.802 386.313 457.62C389.426 456.256 392.268 455.005 394.669 453.94L396.301 453.213L398.993 452.02C401.42 450.929 405.918 449.042 405.965 449.02C406.167 448.936 406.383 448.893 406.601 448.893C406.819 448.893 407.036 448.936 407.237 449.02C407.438 449.106 407.621 449.231 407.773 449.388C407.925 449.546 408.044 449.732 408.124 449.936L418.882 477.573L496.392 625.318L517.2 634.547L543.531 590.267L576.899 462.129C576.96 461.905 577.067 461.697 577.214 461.519C577.362 461.34 577.545 461.195 577.753 461.093C577.98 460.983 578.228 460.926 578.48 460.925C578.698 460.925 578.915 460.97 579.116 461.056C586.746 464.293 653.988 492.907 660.295 500.947C661.781 502.845 663.856 508.18 664.699 532.485C665.218 547.394 665.117 564.151 665.062 576.394C665.018 583.194 664.986 588.562 665.095 590.445C665.622 599.58 659.281 652.936 653.77 681.696C648.32 710.191 652.294 726.387 655.198 738.213L655.517 739.522C656.731 744.485 656.407 752.798 654.562 764.227C653.159 772.914 651.292 780.725 650.856 782.493C652.393 789.798 653.036 795.896 652.829 801.125L652.785 801.994C652.422 808.307 650.805 812.082 649.515 815.118C648.788 816.871 648.123 818.391 647.905 820.009C647.938 820.467 648.269 822.129 648.585 823.736C650.997 835.904 653.181 849.191 648.498 852.609C647.913 853.038 647.117 853.624 629.415 854.064C618.174 854.354 603.092 854.507 585.779 854.507Z" fill="#CE44A2"/>
<path d="M406.623 450.546L417.414 478.281L495.208 626.583L517.865 636.637L545.053 590.91L578.48 462.546C578.48 462.546 652.782 494.001 659.009 501.943C665.237 509.884 662.955 582.001 663.446 590.524C663.936 599.048 657.868 651.455 652.146 681.372C646.423 711.288 650.965 727.819 653.912 739.895C655.292 745.55 654.337 755.244 652.931 763.95C651.336 773.833 649.159 782.448 649.159 782.448C650.878 790.499 651.361 796.455 651.176 801.044L651.136 801.903C650.555 811.721 646.859 815.041 646.253 819.873C646.06 821.455 652.963 847.273 647.513 851.273C646.216 852.223 620.961 852.87 585.783 852.87C499.717 852.87 354.194 849.015 354.303 836.364C354.351 830.833 357.45 811.048 359.39 806.91C364.84 795.273 368.375 778.659 368.375 778.659C355.561 767.495 357.083 734.739 357.083 734.739C353.45 722.288 349.864 695.172 348.323 682.535C347.818 678.39 347.531 675.801 347.531 675.801C347.531 675.801 306.609 510.452 304.89 503.273C303.172 496.095 322.875 483.819 334.683 480.557C342.353 478.437 369.171 466.921 386.985 459.128C390.103 457.764 392.944 456.513 395.36 455.448L399.691 453.532C402.118 452.452 406.623 450.546 406.623 450.546ZM406.623 447.273C406.187 447.274 405.754 447.361 405.352 447.532C405.166 447.612 400.792 449.459 398.358 450.539L395.607 451.757L394.027 452.455C391.847 453.423 388.893 454.717 385.67 456.128C357.886 468.281 339.469 475.837 333.804 477.401C327.511 479.143 319.271 483.219 312.829 487.775C304.309 493.797 300.57 499.273 301.711 504.037C303.382 511.03 342.637 669.637 344.305 676.379C344.384 677.106 344.668 679.488 345.078 682.924C346.804 697.106 350.216 722.535 353.798 735.135C353.647 741.079 353.937 747.027 354.667 752.928C356.247 765.332 359.641 774.335 364.764 779.735C363.707 784.255 360.622 796.535 356.407 805.521C354.085 810.473 351.059 830.928 351.012 836.335C351.017 837.064 351.17 837.785 351.461 838.453C351.753 839.122 352.177 839.723 352.708 840.223C354.943 842.481 360.506 845.441 383.861 848.317C398.63 850.135 418.719 851.695 443.556 852.943C483.399 854.946 536.57 856.143 585.761 856.143C603.085 856.143 618.182 855.99 629.416 855.699C647.63 855.23 648.422 854.648 649.425 853.913C654.373 850.277 653.421 839.975 650.151 823.401C649.89 822.081 649.595 820.608 649.512 820.019C649.726 818.688 650.286 817.375 650.965 815.743C652.306 812.593 653.974 808.67 654.362 802.095V802.055L654.402 801.197V801.175C654.617 795.899 653.984 789.786 652.473 782.506C653.036 780.19 654.769 772.83 656.106 764.473C657.988 752.837 658.286 744.295 657.036 739.117L656.717 737.808C653.85 726.128 649.922 710.132 655.307 681.986C660.826 653.143 667.188 599.546 666.657 590.35C666.552 588.532 666.585 583.172 666.628 576.404C666.701 564.146 666.803 547.357 666.265 532.43C665.419 508.066 663.388 502.332 661.513 499.939C660.314 498.404 657.378 495.841 645.235 489.546C638.248 485.91 628.987 481.47 617.698 476.306C598.525 467.532 579.872 459.626 579.686 459.546C579.305 459.38 578.896 459.288 578.48 459.273C577.756 459.273 577.053 459.514 576.48 459.956C575.908 460.399 575.498 461.02 575.316 461.721L542.005 589.633L516.539 632.47L497.573 624.052L420.394 476.921L409.672 449.357C409.433 448.743 409.013 448.215 408.47 447.844C407.926 447.472 407.282 447.273 406.623 447.273Z" fill="#17091D"/>
<path d="M649.16 782.449C650.878 790.5 651.361 796.456 651.176 801.045L651.136 801.903C650.555 811.722 646.86 815.042 646.253 819.874C646.06 821.456 652.964 847.274 647.514 851.274C643.048 854.547 354.151 854.183 354.304 836.365C354.351 830.834 357.45 811.049 359.39 806.911C364.84 795.274 368.376 778.66 368.376 778.66C355.561 767.496 357.083 734.74 357.083 734.74C353.45 722.289 349.864 695.173 348.323 682.536L354.137 677.274C354.137 677.274 366.621 660.154 371.453 640.365C376.285 620.576 380.282 597.638 383.915 603.456C387.549 609.274 380.758 648.22 378.887 657.274C377.016 666.329 379.217 701.849 388.108 728.096C396.999 754.343 370.432 763.634 411.144 779.733C451.855 795.831 450.416 787.369 466.941 790.871C468.91 791.285 471.155 791.725 473.582 792.176C498.24 796.818 523.66 795.31 547.597 787.783C554.936 785.456 562.661 783.696 569.35 783.638C589.562 783.456 602.933 783.085 615.856 781.271C624.994 779.991 643.085 769.816 652.916 763.951C651.336 773.82 649.16 782.449 649.16 782.449Z" fill="#9C398C"/>
<path d="M379.89 602.859C380.018 602.041 380.786 601.482 381.605 601.61C382.423 601.739 382.982 602.506 382.854 603.324L381.372 603.092C382.783 603.313 382.851 603.324 382.854 603.325V603.327C382.854 603.329 382.853 603.332 382.853 603.335C382.852 603.341 382.85 603.35 382.848 603.361C382.844 603.384 382.839 603.418 382.831 603.462C382.817 603.55 382.796 603.679 382.767 603.848C382.709 604.187 382.62 604.685 382.498 605.329C382.255 606.617 381.88 608.492 381.348 610.848C380.284 615.561 378.592 622.209 376.077 629.964C371.053 645.461 362.725 665.445 349.514 683.258C349.02 683.923 348.081 684.063 347.415 683.569C346.75 683.076 346.61 682.136 347.104 681.471C360.053 664.011 368.257 644.359 373.224 629.038C375.705 621.384 377.374 614.827 378.421 610.187C378.945 607.868 379.313 606.029 379.55 604.773C379.668 604.145 379.754 603.663 379.81 603.34C379.838 603.178 379.858 603.056 379.871 602.975C379.878 602.935 379.883 602.905 379.886 602.886C379.888 602.876 379.889 602.868 379.89 602.864V602.859Z" fill="#17091D"/>
<path d="M361.089 798.767C361.397 797.998 362.27 797.624 363.039 797.932L363.038 797.933C363.039 797.933 363.04 797.933 363.041 797.933C363.043 797.934 363.047 797.935 363.051 797.937C363.061 797.941 363.077 797.947 363.098 797.955C363.14 797.972 363.205 797.997 363.292 798.031C363.467 798.098 363.733 798.199 364.09 798.33C364.804 798.594 365.882 798.98 367.325 799.467C370.21 800.442 374.555 801.82 380.371 803.424C392.004 806.632 409.519 810.744 432.998 814.341C479.956 821.535 550.777 826.669 646.116 818.379C646.941 818.308 647.668 818.918 647.74 819.743C647.811 820.569 647.201 821.296 646.375 821.368C550.8 829.678 479.739 824.537 432.543 817.307C408.946 813.692 391.317 809.554 379.574 806.316C373.702 804.697 369.303 803.302 366.365 802.31C364.895 801.814 363.792 801.418 363.052 801.145C362.683 801.009 362.404 800.903 362.216 800.83C362.122 800.794 362.051 800.766 362.002 800.747C361.978 800.738 361.96 800.731 361.947 800.726C361.94 800.723 361.935 800.721 361.931 800.72C361.929 800.719 361.928 800.718 361.927 800.718C361.926 800.718 361.925 800.717 362.482 799.325L361.924 800.717C361.155 800.409 360.782 799.536 361.089 798.767Z" fill="#17091D"/>
<path d="M598.28 821.581C599.102 821.681 599.688 822.429 599.589 823.251C599.589 823.252 599.588 823.253 599.588 823.254C599.588 823.257 599.588 823.261 599.587 823.266C599.586 823.276 599.584 823.292 599.581 823.314C599.576 823.356 599.569 823.42 599.559 823.504C599.539 823.671 599.51 823.918 599.474 824.236C599.401 824.87 599.3 825.787 599.181 826.907C598.944 829.15 598.641 832.211 598.379 835.486C598.117 838.763 597.897 842.242 597.823 845.324C597.748 848.444 597.827 851.039 598.121 852.613C598.274 853.427 597.736 854.211 596.922 854.363C596.108 854.516 595.325 853.978 595.172 853.164C594.814 851.252 594.748 848.378 594.824 845.253C594.9 842.092 595.125 838.552 595.389 835.246C595.653 831.938 595.959 828.85 596.198 826.591C596.317 825.461 596.42 824.538 596.493 823.896C596.53 823.575 596.559 823.324 596.579 823.154C596.589 823.069 596.598 823.003 596.603 822.959C596.605 822.937 596.607 822.92 596.609 822.908C596.609 822.903 596.609 822.899 596.61 822.896C596.61 822.894 596.611 822.893 596.611 822.892V822.891L596.637 822.739C596.804 821.998 597.509 821.488 598.28 821.581Z" fill="#17091D"/>
<path d="M526.915 823.616C527.053 822.799 527.828 822.248 528.645 822.386C529.41 822.516 529.942 823.205 529.892 823.964L529.873 824.116V824.118C529.873 824.12 529.873 824.123 529.872 824.127C529.871 824.134 529.869 824.146 529.866 824.162C529.861 824.193 529.852 824.241 529.842 824.304C529.821 824.431 529.791 824.619 529.752 824.864C529.675 825.353 529.565 826.069 529.435 826.968C529.173 828.768 528.83 831.302 528.507 834.233C527.858 840.112 527.292 847.527 527.586 853.825C527.625 854.652 526.985 855.355 526.157 855.393C525.33 855.432 524.628 854.792 524.589 853.965C524.284 847.43 524.871 839.831 525.525 833.904C525.853 830.932 526.2 828.364 526.465 826.538C526.597 825.625 526.71 824.896 526.789 824.395C526.829 824.145 526.86 823.952 526.882 823.82C526.893 823.754 526.901 823.704 526.906 823.67C526.909 823.653 526.912 823.639 526.913 823.631C526.914 823.626 526.915 823.622 526.915 823.62V823.616Z" fill="#17091D"/>
<path d="M448.712 817.717C448.995 816.939 449.855 816.536 450.634 816.819C451.412 817.102 451.814 817.962 451.531 818.741L451.53 818.743C451.53 818.745 451.529 818.749 451.527 818.753C451.524 818.763 451.519 818.777 451.512 818.796C451.498 818.835 451.477 818.894 451.45 818.971C451.396 819.126 451.315 819.357 451.214 819.656C451.012 820.253 450.726 821.121 450.396 822.195C449.734 824.345 448.894 827.31 448.181 830.579C447.466 833.853 446.886 837.397 446.728 840.713C446.568 844.056 446.846 847.028 447.74 849.237C448.051 850.005 447.681 850.879 446.913 851.19C446.145 851.501 445.271 851.131 444.96 850.363C443.827 847.565 443.563 844.086 443.731 840.571C443.899 837.028 444.515 833.306 445.25 829.939C445.986 826.567 446.85 823.517 447.528 821.312C447.868 820.209 448.162 819.314 448.372 818.694C448.477 818.384 448.561 818.142 448.619 817.976C448.648 817.894 448.671 817.83 448.687 817.787C448.694 817.765 448.701 817.748 448.705 817.736C448.707 817.73 448.709 817.726 448.71 817.723C448.711 817.722 448.711 817.72 448.711 817.719V817.718C448.711 817.718 448.712 817.717 450.121 818.229L448.712 817.717Z" fill="#17091D"/>
<path d="M385.463 806.081C385.768 805.384 386.558 805.018 387.297 805.256C388.085 805.511 388.518 806.356 388.264 807.144V807.145L388.258 807.163C388.254 807.176 388.247 807.196 388.239 807.223C388.221 807.277 388.196 807.359 388.162 807.465C388.095 807.679 387.997 807.994 387.873 808.401C387.626 809.214 387.275 810.392 386.867 811.837C386.049 814.731 385.002 818.694 384.079 822.982C383.156 827.276 382.364 831.864 382.047 836.013C381.727 840.214 381.912 843.764 382.79 846.102C383.082 846.877 382.69 847.742 381.914 848.034C381.139 848.325 380.274 847.932 379.983 847.157C378.863 844.175 378.729 840.072 379.056 835.786C379.387 831.448 380.209 826.713 381.147 822.351C382.086 817.983 383.151 813.955 383.98 811.021C384.395 809.553 384.75 808.357 385.003 807.527C385.13 807.112 385.231 806.788 385.3 806.567C385.335 806.457 385.362 806.372 385.38 806.314C385.389 806.285 385.397 806.263 385.402 806.248C385.404 806.24 385.405 806.235 385.407 806.231C385.407 806.229 385.408 806.227 385.409 806.226V806.224L385.463 806.081Z" fill="#17091D"/>
<path d="M349.58 993.521C345.282 993.521 341.252 992.277 338.015 991.273C335.868 990.612 334.018 990.037 332.779 990.037H332.652C332.439 990.035 332.228 990.075 332.031 990.157C330.305 991.026 326.581 991.946 321.331 991.946C317.972 991.925 314.621 991.609 311.317 991.001H311.274C305.865 989.994 300.564 988.475 295.443 986.463C293.325 985.652 291.156 984.739 288.998 983.753C288.874 983.695 288.776 983.652 288.678 983.601C283.853 981.299 280.053 977.055 277.389 971.033C268.698 951.317 274.41 918.175 275.3 913.39C274.592 911.881 272.372 907.095 270.341 901.953C265.734 890.281 266.017 886.866 266.635 885.31C266.775 884.916 266.999 884.557 267.289 884.256C267.58 883.956 267.932 883.721 268.321 883.568C270.137 882.863 272.125 882.07 274.221 881.23C286.829 876.183 304.098 869.273 317.966 869.273C322.214 869.273 325.96 869.924 329.113 871.215C329.281 871.284 329.451 871.364 329.637 871.459C329.991 871.636 330.33 871.841 330.65 872.073L330.778 872.161C338.015 877.448 344.373 898.343 345.507 902.252C348.199 904.026 360.404 912.172 365.225 916.863C365.4 917.033 365.567 917.226 365.734 917.379C367.473 919.284 368.83 921.506 369.73 923.924C370.196 925.092 370.588 926.27 370.966 927.408C371.78 929.855 372.55 932.168 373.945 934.128C376.052 937.095 378.254 943.946 380.38 950.575C381.946 955.459 383.566 960.503 384.812 962.753C384.878 962.873 384.932 962.968 384.987 963.055C385.733 964.234 386.17 965.582 386.259 966.974C386.347 968.367 386.083 969.759 385.492 971.023C384.009 974.335 380.707 976.743 376.663 977.466C374.959 977.772 372.746 979.39 371.213 980.579C369.909 981.604 368.55 982.761 367.111 984.012C362.217 988.215 356.669 992.983 351.309 993.43C350.772 993.495 350.172 993.521 349.58 993.521Z" fill="#CE44A2"/>
<path d="M317.97 870.909C321.81 870.909 325.375 871.451 328.507 872.728C328.63 872.779 328.761 872.84 328.903 872.913C329.202 873.064 329.489 873.239 329.76 873.437L329.825 873.48C337.277 878.935 344.115 903.299 344.115 903.299C344.115 903.299 358.845 912.924 364.099 918.048C364.259 918.204 364.415 918.364 364.567 918.524C366.167 920.282 367.413 922.331 368.237 924.56C369.69 928.197 370.417 931.982 372.641 935.106C376.176 940.077 380.438 958.204 383.41 963.575C383.482 963.709 383.555 963.833 383.628 963.939C386.604 968.786 382.828 974.728 376.401 975.877C374.584 976.2 372.51 977.539 370.25 979.313C364.437 983.866 357.493 991.313 351.218 991.819C350.67 991.866 350.128 991.888 349.576 991.888C342.629 991.888 336.322 988.404 332.776 988.404H332.59C332.139 988.407 331.694 988.509 331.286 988.702C329.92 989.386 326.563 990.313 321.331 990.313C318.053 990.292 314.784 989.982 311.561 989.386C306.259 988.4 301.064 986.91 296.046 984.935C294.012 984.154 291.895 983.263 289.695 982.262L289.408 982.128C284.59 979.826 281.219 975.619 278.901 970.368C269.817 949.768 277.022 913.168 277.022 913.168C277.022 913.168 264.378 886.848 268.92 885.091C281.782 880.117 302.172 870.909 317.97 870.909ZM317.97 867.637C303.8 867.637 286.36 874.619 273.614 879.713C271.525 880.553 269.548 881.342 267.735 882.044C267.138 882.28 266.596 882.639 266.146 883.098C265.695 883.556 265.346 884.104 265.119 884.706C264.295 886.797 264.088 890.549 268.829 902.557C270.718 907.346 272.724 911.724 273.603 913.615C272.443 920.314 271.668 927.074 271.282 933.862C270.366 949.942 271.921 962.669 275.899 971.68C278.726 978.084 282.803 982.589 287.988 985.069L288.311 985.222C290.516 986.229 292.715 987.153 294.851 987.979C300.063 990.024 305.457 991.57 310.961 992.597H311.027C314.419 993.217 317.86 993.539 321.309 993.56C325.952 993.56 330.171 992.851 332.627 991.655H332.754C333.739 991.655 335.57 992.219 337.506 992.819C340.849 993.851 345.009 995.135 349.554 995.135C350.201 995.135 350.844 995.11 351.469 995.059C357.355 994.564 363.096 989.604 368.183 985.24C369.61 984.015 370.955 982.859 372.23 981.855C374.363 980.182 375.951 979.244 376.953 979.066C381.528 978.248 385.277 975.488 386.981 971.68C387.674 970.174 387.981 968.52 387.877 966.865C387.773 965.211 387.261 963.608 386.386 962.2V962.179C386.346 962.109 386.306 962.048 386.273 961.982C386.274 961.973 386.274 961.963 386.273 961.953C385.107 959.84 383.512 954.873 381.967 950.066C379.704 943.008 377.564 936.342 375.307 933.171C374.054 931.408 373.324 929.208 372.546 926.88C372.161 925.72 371.761 924.52 371.278 923.306C370.306 920.695 368.837 918.297 366.954 916.244V916.222C366.755 916.015 366.591 915.833 366.406 915.666C361.748 911.12 350.419 903.495 346.942 901.186C346.31 899.059 344.842 894.353 342.836 889.208C339.047 879.495 335.432 873.48 331.78 870.811L331.726 870.775L331.613 870.695C331.228 870.421 330.822 870.178 330.399 869.968C330.181 869.855 329.978 869.764 329.782 869.68C326.425 868.306 322.468 867.611 318.01 867.611L317.97 867.637Z" fill="#17091D"/>
<path d="M376.397 975.877C374.58 976.201 372.506 977.539 370.246 979.314C364.432 983.866 357.489 991.314 351.214 991.819C343.504 992.463 336.361 988.27 332.586 988.408C332.135 988.412 331.69 988.513 331.282 988.706C329.204 989.75 322.518 991.35 311.557 989.39C306.255 988.404 301.06 986.914 296.042 984.939C294.008 984.159 291.891 983.268 289.691 982.266L289.404 982.132C285.596 980.27 282.094 976.088 278.897 970.372C269.813 949.772 277.018 913.172 277.018 913.172C277.018 913.172 264.378 886.848 268.919 885.092C284.906 878.91 312.519 866.183 328.506 872.728C328.63 872.779 328.76 872.841 328.902 872.914C329.197 873.074 329.483 873.248 329.76 873.437L329.825 873.481C337.277 878.936 344.115 903.299 344.115 903.299C344.115 903.299 358.844 912.925 364.098 918.048C364.258 918.205 364.414 918.365 364.567 918.525C366.166 920.282 367.412 922.332 368.237 924.561C355.687 923.168 331.95 920.768 325.966 921.834C316.763 923.477 298.422 927.357 289.996 928.016C281.571 928.674 288.474 934.306 289.691 947.434C290.501 956.205 289.182 967.957 294.004 974.979C296.398 978.47 300.308 980.797 306.746 981.005L308.73 981.059C318.176 981.245 324.789 980.445 330.094 979.917C334.901 979.437 338.621 979.19 342.356 980.07C348.449 981.525 358.735 984.47 370.853 976.07C374.849 973.299 379.078 969.281 383.406 963.561C383.478 963.696 383.551 963.819 383.624 963.925C386.599 968.786 382.824 974.728 376.397 975.877Z" fill="#9C398C"/>
<path d="M362.506 942.99C363.063 942.378 364.012 942.333 364.625 942.891C365.237 943.448 365.282 944.397 364.724 945.01C359.901 950.309 357.997 955.575 357.285 959.485C356.928 961.446 356.87 963.071 356.899 964.193C356.914 964.754 356.95 965.188 356.981 965.475C356.997 965.618 357.01 965.724 357.02 965.79C357.025 965.823 357.029 965.847 357.031 965.859C357.031 965.863 357.032 965.865 357.032 965.867C357.18 966.682 356.64 967.462 355.825 967.61C355.01 967.759 354.229 967.218 354.081 966.403L355.556 966.135L354.081 966.401L354.08 966.399C354.08 966.398 354.079 966.396 354.079 966.395C354.078 966.391 354.078 966.387 354.077 966.383C354.075 966.373 354.073 966.361 354.071 966.346C354.066 966.316 354.06 966.276 354.052 966.226C354.038 966.124 354.018 965.981 353.999 965.8C353.959 965.438 353.917 964.92 353.9 964.271C353.866 962.972 353.935 961.138 354.334 958.948C355.133 954.558 357.257 948.756 362.506 942.99Z" fill="#17091D"/>
<path d="M357.319 952.674C357.769 951.978 358.698 951.779 359.394 952.229L358.579 953.488C359.393 952.228 359.394 952.229 359.395 952.23L359.396 952.231C359.397 952.231 359.399 952.232 359.4 952.233C359.404 952.236 359.409 952.239 359.414 952.242C359.425 952.249 359.44 952.259 359.459 952.272C359.497 952.297 359.551 952.333 359.619 952.38C359.755 952.473 359.949 952.61 360.191 952.787C360.674 953.142 361.35 953.662 362.138 954.338C363.71 955.687 365.75 957.673 367.6 960.213C371.305 965.3 374.322 972.74 371.07 981.667C370.787 982.445 369.926 982.847 369.148 982.564C368.369 982.28 367.968 981.419 368.251 980.641C371.046 972.968 368.522 966.575 365.175 961.98C363.498 959.678 361.634 957.86 360.184 956.615C359.461 955.995 358.846 955.521 358.416 955.205C358.201 955.048 358.033 954.93 357.921 954.854C357.865 954.815 357.823 954.787 357.797 954.77C357.784 954.761 357.775 954.755 357.77 954.751C357.768 954.75 357.767 954.748 357.766 954.747C357.765 954.748 357.764 954.747 357.764 954.747L357.765 954.748C357.069 954.298 356.87 953.37 357.319 952.674Z" fill="#17091D"/>
<path d="M329.529 960.688C330.355 960.752 330.973 961.472 330.91 962.298C330.91 962.3 330.909 962.304 330.909 962.308C330.908 962.316 330.908 962.328 330.907 962.343C330.905 962.376 330.901 962.426 330.896 962.492C330.887 962.623 330.875 962.819 330.861 963.073C330.833 963.581 330.799 964.321 330.772 965.236C330.719 967.068 330.7 969.598 330.837 972.392C331.114 978.068 332.02 984.512 334.345 988.521C334.761 989.238 334.517 990.156 333.801 990.572C333.084 990.987 332.165 990.743 331.75 990.027C329.028 985.334 328.119 978.233 327.841 972.539C327.699 969.648 327.719 967.037 327.773 965.149C327.8 964.205 327.837 963.439 327.866 962.908C327.881 962.642 327.894 962.434 327.903 962.292C327.908 962.221 327.912 962.166 327.915 962.128C327.916 962.11 327.917 962.096 327.918 962.086C327.918 962.081 327.919 962.077 327.919 962.074V962.069C327.982 961.243 328.703 960.625 329.529 960.688Z" fill="#17091D"/>
<path d="M308.308 969.05C309.083 969.096 309.685 969.724 309.716 970.483L309.715 970.637V970.638C309.715 970.639 309.715 970.641 309.714 970.644C309.714 970.651 309.714 970.662 309.713 970.677C309.712 970.706 309.709 970.75 309.707 970.809C309.701 970.928 309.693 971.106 309.686 971.335C309.671 971.793 309.657 972.457 309.66 973.266C309.666 974.889 309.741 977.084 310.014 979.387C310.288 981.7 310.756 984.062 311.519 986.051C312.292 988.065 313.296 989.503 314.518 990.234C315.229 990.66 315.46 991.581 315.035 992.292C314.609 993.003 313.688 993.234 312.977 992.808C310.922 991.578 309.596 989.413 308.718 987.127C307.83 984.815 307.325 982.179 307.036 979.739C306.745 977.289 306.666 974.975 306.66 973.278C306.656 972.428 306.671 971.728 306.687 971.239C306.695 970.994 306.703 970.802 306.709 970.669C306.713 970.602 306.715 970.551 306.717 970.515C306.718 970.498 306.719 970.483 306.719 970.473C306.719 970.469 306.72 970.465 306.72 970.462V970.458C306.72 970.457 306.721 970.457 308.218 970.547L306.72 970.457C306.77 969.63 307.481 969 308.308 969.05Z" fill="#17091D"/>
<path d="M294.169 973.148C294.994 973.226 295.599 973.959 295.52 974.783L295.518 974.799C295.517 974.814 295.515 974.84 295.512 974.874C295.507 974.943 295.501 975.048 295.494 975.185C295.48 975.459 295.465 975.861 295.468 976.353C295.474 977.341 295.548 978.67 295.809 980.056C296.35 982.925 297.586 985.532 300.107 986.481C300.882 986.772 301.274 987.638 300.982 988.413C300.69 989.188 299.825 989.58 299.05 989.288C294.991 987.761 293.451 983.744 292.861 980.611C292.557 978.997 292.475 977.479 292.468 976.371C292.465 975.815 292.481 975.355 292.498 975.031C292.506 974.869 292.514 974.741 292.521 974.65C292.524 974.605 292.527 974.57 292.529 974.544C292.53 974.531 292.531 974.521 292.532 974.514C292.532 974.51 292.532 974.506 292.533 974.504C292.533 974.503 292.533 974.501 292.533 974.5L292.534 974.499C292.54 974.499 292.632 974.507 294.027 974.641L292.534 974.498C292.612 973.673 293.345 973.069 294.169 973.148Z" fill="#17091D"/>
<path d="M340.678 973.456C342.785 973.456 344.493 968.816 344.493 963.092C344.493 957.368 342.785 952.729 340.678 952.729C338.571 952.729 336.863 957.368 336.863 963.092C336.863 968.816 338.571 973.456 340.678 973.456Z" fill="#D969BD"/>
<path d="M317.424 972C319.531 972 321.239 968.499 321.239 964.181C321.239 959.864 319.531 956.363 317.424 956.363C315.317 956.363 313.609 959.864 313.609 964.181C313.609 968.499 315.317 972 317.424 972Z" fill="#D969BD"/>
<path d="M300.348 976C302.455 976 304.163 973.314 304.163 970C304.163 966.686 302.455 964 300.348 964C298.241 964 296.533 966.686 296.533 970C296.533 973.314 298.241 976 300.348 976Z" fill="#D969BD"/>
<path d="M270.028 906.881C263.521 906.881 260.545 905.834 260.08 903.386C258.79 896.605 241.913 814.706 239.37 803.241C236.71 791.397 232.685 759.877 231.177 745.557C229.593 730.452 229.36 725.488 234.759 711.885C238.207 703.157 241.663 684.514 245.343 664.757C247.069 655.466 248.853 645.848 250.732 636.732C256.425 609.096 268.651 563.746 269.49 560.641C271.67 523.634 289.038 504.976 299.215 497.139L299.32 497.059C301.185 495.634 303.458 494.846 305.804 494.81C308.15 494.774 310.445 495.492 312.353 496.859C318.341 501.139 329.72 509.776 338.713 519.499C350.288 532.023 354.83 551.812 360.088 574.732C360.97 578.576 361.882 582.554 362.853 586.605C364.861 595.181 366.056 603.927 366.42 612.728C367.358 633.117 364.306 652.659 361.541 667.405C359.161 680.132 356.396 689.746 353.471 699.939C351.077 708.281 348.603 716.906 346.303 727.517C342.001 747.357 344.046 759.906 347.433 780.696C347.985 784.074 348.555 787.572 349.148 791.39L349.351 792.696C349.94 796.296 350.714 800.332 351.651 804.696C351.651 804.721 351.68 804.815 351.687 804.845C357.363 831.085 367.434 861.652 370.384 870.397C371.78 874.525 369.044 878.848 362.253 883.241C357.272 886.463 351.487 888.874 349.017 889.903C348.624 890.066 348.217 890.234 348.123 890.266H348.098C336.783 896.816 289.481 906.881 270.028 906.881Z" fill="#CE44A2"/>
<path d="M305.951 496.445C307.905 496.442 309.811 497.052 311.401 498.19C317.781 502.754 328.757 511.143 337.51 520.612C350.67 534.859 354.485 558.728 361.246 586.986C363.24 595.461 364.426 604.106 364.789 612.805C365.679 632.208 362.972 650.936 359.935 667.103C355.575 690.376 349.761 703.83 344.704 727.172C339.646 750.514 343.221 763.819 347.53 791.637C347.6 792.077 347.669 792.517 347.738 792.95C348.363 796.79 349.155 800.866 350.059 805.063C350.059 805.103 350.077 805.146 350.088 805.186C355.756 831.306 365.872 862.128 368.836 870.91C371.801 879.692 348.61 888.172 347.374 888.816H347.349C336.303 895.27 289.357 905.234 270.028 905.234C265.105 905.234 261.973 904.586 261.671 903.052C260.265 895.616 243.486 814.183 240.943 802.881C238.4 791.579 234.403 760.728 232.79 745.386C231.177 730.045 231.133 725.456 236.263 712.488C241.394 699.521 246.393 665.819 252.319 637.063C258.245 608.306 271.1 560.906 271.1 560.906C273.214 524.001 290.778 505.688 300.195 498.437L300.301 498.357C301.922 497.114 303.908 496.442 305.951 496.445ZM305.951 493.172C303.194 493.177 300.514 494.085 298.321 495.757L298.212 495.841C293.318 499.608 286.203 506.321 280.085 516.932C272.964 529.263 268.854 543.881 267.862 560.394C266.703 564.648 254.75 609.128 249.118 636.401C247.232 645.539 245.448 655.157 243.719 664.459C240.086 684.132 236.616 702.717 233.222 711.281C227.718 725.201 227.954 730.641 229.538 745.728C231.046 760.081 235.086 791.696 237.76 803.597C240.333 815.07 257.184 896.921 258.47 903.692C258.746 905.146 259.815 907.048 263.339 907.91C265.003 908.317 267.19 908.517 270.024 908.517C279.18 908.517 295.458 906.27 312.472 902.656C329.727 898.994 343.298 894.917 348.857 891.746L349.641 891.416C352.152 890.368 358.031 887.921 363.136 884.619C366.224 882.619 368.473 880.681 370.006 878.688C372.822 875.03 372.608 871.877 371.932 869.877C368.985 861.15 358.939 830.663 353.282 804.503L353.26 804.416C353.26 804.39 353.26 804.361 353.242 804.332C352.308 800.005 351.542 796.001 350.96 792.43L350.757 791.136C350.165 787.317 349.594 783.819 349.042 780.434C345.685 759.837 343.661 747.405 347.897 727.87C350.183 717.325 352.653 708.71 355.037 700.397C357.976 690.165 360.749 680.499 363.147 667.71C365.926 652.877 368.996 633.216 368.052 612.659C367.674 603.757 366.457 594.911 364.418 586.237C363.452 582.194 362.54 578.219 361.657 574.379C356.349 551.234 351.763 531.245 339.893 518.405C330.81 508.586 319.318 499.859 313.283 495.543C311.144 494.006 308.576 493.182 305.943 493.186L305.951 493.172Z" fill="#17091D"/>
<path d="M347.375 888.816H347.349C333.492 896.914 263.107 910.536 261.686 903.07C260.265 895.605 243.487 814.183 240.943 802.881C238.4 791.579 234.403 760.728 232.79 745.387C231.177 730.045 231.133 725.456 236.264 712.488C241.394 699.521 246.393 665.819 252.319 637.063C258.245 608.307 271.1 560.907 271.1 560.907C273.215 524.001 290.778 505.688 300.196 498.438C292.7 513.223 281.302 538.699 278.192 562.034C273.469 597.637 273.469 645.638 272.379 655.456C271.289 665.274 258.089 675.768 250.88 693.976C243.672 712.183 231.678 718.001 238.945 735.819C246.212 753.637 262.834 863.885 272.917 876.365C278.777 883.638 303.418 877.365 321.603 871.274C337.99 865.787 349.911 863.638 347.465 846.507C345.649 833.779 344.268 823.467 344.021 819.874C343.185 807.747 332.503 748.365 320.877 741.092C309.25 733.819 260.2 737.092 256.069 731.783C251.938 726.474 268.557 726.547 288.177 725.819C307.797 725.092 327.053 731.637 318.54 726.005C310.027 720.372 266.74 712.728 269.716 704.365C272.691 696.001 323.42 722.547 332.231 727.048C341.042 731.55 326.69 715.274 316.19 700.001C305.689 684.728 296.533 658.547 303.11 662.779C309.686 667.012 329.96 704.728 333.928 709.572C337.895 714.416 341.587 675.274 345.009 660.445C348.432 645.616 363.572 610.932 363.572 610.932C363.572 610.932 364.015 611.605 364.789 612.794C365.679 632.197 362.972 650.925 359.935 667.092C355.575 690.365 349.762 703.819 344.704 727.161C339.646 750.503 343.222 763.819 347.531 791.638C347.6 792.078 347.669 792.517 347.738 792.95C348.432 797.237 349.217 801.27 350.06 805.063C350.06 805.103 350.078 805.147 350.089 805.187C355.757 831.307 365.872 862.128 368.837 870.91C371.801 879.692 348.61 888.172 347.375 888.816Z" fill="#9C398C"/>
<path d="M364.03 851.563C364.751 851.156 365.666 851.411 366.073 852.132C366.48 852.854 366.225 853.769 365.503 854.176C336.666 870.442 309.39 877.592 289.317 880.674C279.28 882.215 271.039 882.74 265.298 882.879C262.428 882.949 260.182 882.922 258.648 882.877C257.881 882.855 257.292 882.828 256.892 882.807C256.692 882.796 256.539 882.787 256.435 882.781C256.383 882.777 256.343 882.774 256.315 882.772C256.301 882.771 256.29 882.77 256.283 882.77C256.279 882.77 256.276 882.769 256.274 882.769C256.273 882.769 256.272 882.769 256.271 882.769C256.27 882.767 256.273 882.723 256.384 881.273L256.27 882.769C255.444 882.706 254.825 881.984 254.888 881.158C254.952 880.333 255.673 879.715 256.499 879.778C256.499 879.778 256.502 879.777 256.504 879.778C256.509 879.778 256.517 879.779 256.528 879.78C256.55 879.781 256.584 879.783 256.63 879.786C256.723 879.792 256.864 879.801 257.052 879.811C257.429 879.831 257.993 879.858 258.735 879.879C260.219 879.922 262.411 879.948 265.225 879.88C270.853 879.744 278.965 879.228 288.861 877.708C308.654 874.669 335.57 867.616 364.03 851.563Z" fill="#17091D"/>
<path d="M343.045 862.596C343.242 861.862 343.967 861.382 344.733 861.506C345.551 861.639 346.106 862.409 345.974 863.227V863.228C345.973 863.229 345.973 863.232 345.973 863.235C345.972 863.242 345.969 863.253 345.967 863.268C345.962 863.298 345.955 863.344 345.946 863.405C345.928 863.528 345.901 863.712 345.869 863.95C345.805 864.427 345.719 865.123 345.633 865.985C345.46 867.712 345.288 870.098 345.29 872.737C345.294 878.112 346.023 884.168 348.594 887.989C349.056 888.677 348.874 889.609 348.187 890.071C347.499 890.534 346.567 890.351 346.105 889.664C342.993 885.038 342.294 878.173 342.29 872.739C342.288 869.975 342.468 867.485 342.647 865.687C342.737 864.787 342.828 864.057 342.896 863.55C342.931 863.297 342.959 863.098 342.98 862.962C342.99 862.894 342.997 862.842 343.003 862.806C343.006 862.788 343.008 862.773 343.01 862.763C343.011 862.758 343.011 862.754 343.012 862.751C343.012 862.75 343.013 862.749 343.013 862.748V862.746L343.045 862.596Z" fill="#17091D"/>
<path d="M313.763 872.5C314.591 872.485 315.276 873.144 315.291 873.972V873.985C315.291 873.993 315.292 874.006 315.292 874.024C315.293 874.059 315.294 874.112 315.296 874.182C315.3 874.322 315.305 874.529 315.313 874.795C315.329 875.327 315.356 876.094 315.398 877.03C315.482 878.903 315.628 881.448 315.875 884.14C316.123 886.837 316.469 889.654 316.949 892.08C317.441 894.573 318.035 896.428 318.67 897.375C319.132 898.063 318.948 898.996 318.26 899.457C317.572 899.919 316.64 899.734 316.179 899.046C315.179 897.555 314.501 895.165 314.006 892.662C313.498 890.092 313.14 887.161 312.888 884.414C312.635 881.663 312.487 879.069 312.401 877.165C312.358 876.213 312.33 875.431 312.314 874.886C312.305 874.614 312.3 874.401 312.296 874.255C312.294 874.182 312.294 874.126 312.293 874.088C312.293 874.069 312.292 874.054 312.292 874.044C312.292 874.039 312.291 874.035 312.291 874.032V874.029C312.276 873.2 312.935 872.516 313.763 872.5Z" fill="#17091D"/>
<path d="M281.437 878.655C282.265 878.683 282.913 879.377 282.885 880.205V880.207C282.885 880.209 282.884 880.212 282.884 880.216C282.884 880.224 282.884 880.237 282.883 880.254C282.882 880.288 282.881 880.338 282.879 880.405C282.876 880.54 282.871 880.74 282.867 880.997C282.858 881.511 282.849 882.254 282.852 883.162C282.858 884.98 282.907 887.453 283.086 890.08C283.264 892.714 283.569 895.467 284.075 897.857C284.593 900.305 285.279 902.15 286.086 903.152C286.605 903.798 286.503 904.741 285.858 905.261C285.213 905.78 284.268 905.678 283.749 905.033C282.472 903.447 281.675 901.004 281.14 898.478C280.593 895.895 280.276 892.987 280.092 890.283C279.909 887.573 279.858 885.032 279.852 883.171C279.849 882.24 279.857 881.476 279.867 880.944C279.871 880.678 279.877 880.47 279.88 880.327C279.882 880.256 279.884 880.201 279.885 880.163C279.886 880.144 279.886 880.13 279.886 880.12V880.104C279.886 880.104 279.887 880.103 281.386 880.154L279.886 880.103C279.914 879.275 280.609 878.627 281.437 878.655Z" fill="#17091D"/>
<path d="M526.607 656.483C517.08 657.017 506.536 657.614 496.309 658.199C492.185 658.448 488.072 657.563 484.415 655.64C480.759 653.717 477.697 650.83 475.562 647.29C473.203 643.457 470.563 639.805 467.663 636.363C431.483 592.425 420.067 538.181 408.077 504.254C400.062 481.57 398.267 462.21 397.903 454.181C401.021 452.817 402.754 451.974 405.17 450.908C405.555 449.047 407.114 450.181 407.713 448.068L410.587 452.068L428.322 476.817L450.641 507.959L542.51 635.636L546.507 641.817C544.971 645.932 542.272 649.51 538.738 652.115C535.204 654.719 530.989 656.237 526.607 656.483Z" fill="#9C398C"/>
<path d="M503.23 641.092L486.037 641.259C485.777 641.259 485.521 641.197 485.29 641.078C485.059 640.959 484.859 640.787 484.707 640.576L484.144 639.794L484.013 639.638C470.003 620.267 459.456 604.027 455.078 595.07C442.989 570.343 420.961 520.259 413.436 499.198C412.106 495.47 410.82 492.245 409.581 489.125C404.898 477.361 401.515 468.863 404.643 453.67C405.043 451.736 405.544 449.707 406.129 447.634C406.522 446.223 406.972 444.725 407.466 443.223C409.788 436.067 412.811 429.943 416.455 425.019L416.499 424.961L416.898 424.434C421.949 417.958 427.072 416.99 429.688 416.99C432.304 416.99 434.484 417.87 435.247 419.172C435.429 419.471 435.53 419.813 435.538 420.164C435.547 420.514 435.462 420.861 435.294 421.168C433.902 423.638 434.702 430.547 436.293 433.703C438.76 438.612 457.239 467.983 465.621 476.441C474.291 485.168 502.591 527.921 508.535 538.485C509.076 539.448 509.905 540.99 510.995 543.067C511.14 543.339 511.285 543.619 511.434 543.91C512.114 545.205 512.887 546.678 513.709 548.274L514.054 548.947C514.682 550.158 515.351 551.459 516.048 552.823C516.31 553.33 516.575 553.846 516.844 554.372L517.255 555.176C517.451 555.539 517.651 555.939 517.851 556.336L518.683 557.968C519.242 559.059 519.813 560.176 520.394 561.318L521.706 563.896L525.521 571.405L525.782 571.921L526.146 572.678L528.246 576.819L529.194 578.696L529.608 579.514C531.061 582.423 532.54 585.314 533.986 588.183L535.076 590.365L535.712 591.627C536.046 592.292 536.388 592.961 536.722 593.63L541.202 602.518C541.34 602.805 541.475 603.074 541.613 603.343L542.841 605.783C542.928 605.954 543.004 606.11 543.084 606.263L543.24 606.576C543.495 607.085 543.749 607.583 543.996 608.074C544.011 608.101 544.024 608.129 544.036 608.158L544.763 609.612L546.652 613.368L548.378 616.808C550.34 620.768 547.226 623.434 544.726 625.579C543.048 627.016 541.315 628.488 540.781 630.288C540.737 630.437 540.672 630.579 540.588 630.71L536.726 636.685L535.687 640.394C535.591 640.738 535.386 641.041 535.102 641.258C534.817 641.474 534.47 641.591 534.113 641.59L503.23 641.092Z" fill="#CE44A2"/>
<path d="M429.692 418.618C432.453 418.618 434.183 419.818 433.874 420.364C432.155 423.404 433.056 430.909 434.833 434.437C437.427 439.6 455.855 468.909 464.463 477.593C473.07 486.277 501.272 528.909 507.111 539.273C507.659 540.251 508.492 541.818 509.549 543.815L509.985 544.648C510.664 545.946 511.438 547.415 512.256 549.011L512.597 549.673C513.229 550.895 513.898 552.193 514.596 553.553C514.988 554.317 515.389 555.101 515.798 555.906C515.998 556.288 516.194 556.669 516.39 557.058C517.208 558.658 518.062 560.331 518.934 562.044L519.373 562.906L519.53 563.215L520.256 564.622L524.071 572.131C524.286 572.553 524.5 572.982 524.718 573.408L526.814 577.546L527.759 579.418L528.17 580.229C529.623 583.138 531.105 586.048 532.551 588.906L533.024 589.84L533.652 591.084L534.281 592.335L535.295 594.342L535.396 594.546L536.123 596L539.756 603.233C539.894 603.513 540.032 603.789 540.174 604.066L540.588 604.888C540.862 605.431 541.132 605.968 541.399 606.498C541.529 606.764 541.664 607.026 541.795 607.288C542.049 607.797 542.302 608.298 542.554 608.793L542.572 608.833C542.814 609.337 543.064 609.834 543.321 610.324C543.982 611.644 544.614 612.898 545.206 614.077L545.57 614.822L546.921 617.517C549.356 622.429 540.781 624.538 539.219 629.797L535.222 635.978L534.132 639.928L503.227 639.44L486.03 639.608C485.801 639.288 485.565 638.964 485.333 638.644C472.779 621.291 461.353 604.128 456.542 594.32C444.712 570.138 422.61 520 414.98 498.64C408.44 480.342 402.438 472.506 406.26 453.993C406.646 452.131 407.125 450.168 407.714 448.069C408.101 446.68 408.541 445.226 409.033 443.706C411.492 436.12 414.526 430.368 417.782 425.971C417.92 425.786 418.058 425.608 418.2 425.418C422.382 420.055 426.662 418.604 429.699 418.604M429.699 415.331C426.792 415.331 421.095 416.382 415.62 423.404L415.158 424.015C411.405 429.106 408.299 435.371 405.923 442.695C405.425 444.229 404.967 445.735 404.564 447.171C403.971 449.277 403.474 451.346 403.056 453.313C399.826 468.993 403.285 477.677 408.073 489.709C409.309 492.815 410.588 496.026 411.91 499.728C419.446 520.818 441.515 571 453.621 595.768C459.67 608.131 474.436 629.149 482.688 640.571L482.804 640.731C482.996 640.993 483.189 641.258 483.374 641.52C483.677 641.943 484.076 642.288 484.539 642.526C485.001 642.764 485.514 642.888 486.034 642.888H486.067L503.22 642.72L534.103 643.208H534.154C534.867 643.208 535.562 642.975 536.13 642.543C536.699 642.112 537.111 641.506 537.304 640.818L538.274 637.346L542.002 631.582C542.169 631.32 542.3 631.036 542.391 630.738C542.783 629.411 544.331 628.084 545.828 626.8C547.183 625.64 548.585 624.44 549.534 622.935C550.207 621.929 550.596 620.761 550.66 619.552C550.724 618.344 550.46 617.14 549.897 616.069L549.432 615.142L548.538 613.357C548.473 613.233 548.415 613.113 548.356 612.993L548.16 612.604L547.684 611.662C547.234 610.768 546.765 609.844 546.282 608.866C546.038 608.386 545.799 607.913 545.555 607.433L545.501 607.32V607.298C545.258 606.814 545.016 606.329 544.774 605.844C544.719 605.731 544.661 605.618 544.603 605.506L544.385 605.069V605.037L543.858 603.993L543.579 603.433L543.168 602.622V602.589C543.034 602.328 542.903 602.069 542.772 601.804C542.773 601.794 542.773 601.785 542.772 601.775L540.592 597.433L539.139 594.546L538.775 593.818C538.652 593.575 538.532 593.331 538.412 593.091L538.394 593.055L538.299 592.866C537.97 592.204 537.636 591.541 537.297 590.877L536.668 589.626C536.559 589.411 536.457 589.208 536.352 589.008C536.247 588.808 536.141 588.582 536.032 588.371L535.88 588.066L535.563 587.444C534.11 584.575 532.657 581.669 531.182 578.764L530.767 577.949L529.83 576.091L528.704 574.037L527.614 571.946L527.25 571.189L526.989 570.669L523.174 563.16L522.81 562.408L522.476 561.753V561.735L522.338 561.466V561.433L522.12 561.011L521.899 560.571C521.31 559.418 520.732 558.284 520.165 557.178L519.352 555.589C519.159 555.208 518.959 554.815 518.752 554.426L518.425 553.782L517.553 552.077C516.859 550.72 516.191 549.422 515.558 548.2L515.319 547.735L515.213 547.531C514.367 545.895 513.6 544.418 512.931 543.142C512.786 542.862 512.637 542.578 512.492 542.306C511.402 540.211 510.559 538.669 510.014 537.684C503.997 527.073 475.526 484.106 466.784 475.273C458.497 466.909 440.199 437.818 437.754 432.953C436.206 429.869 435.803 423.582 436.719 421.96C437.033 421.404 437.193 420.774 437.183 420.135C437.174 419.496 436.995 418.871 436.664 418.324C435.6 416.506 432.864 415.32 429.692 415.32L429.699 415.331Z" fill="#17091D"/>
<path d="M550.751 625.127L548.298 633.363L544.327 641.818L542.147 640C537.703 634.469 534.917 633.487 529.463 623.836C528.453 622.047 527.283 620.033 525.971 617.814C524.046 614.542 521.815 610.847 519.333 606.789C492.298 562.567 435.854 476.102 424.79 454.545C420.957 447.076 417.865 431.687 417.774 425.985C417.912 425.8 418.051 425.622 418.192 425.433C426.171 415.196 434.524 419.214 433.874 420.363C432.155 423.403 433.056 430.909 434.833 434.436C437.427 439.6 455.855 468.909 464.463 477.593C473.07 486.276 501.272 528.909 507.111 539.273C507.659 540.251 508.491 541.818 509.549 543.814L509.985 544.647C510.664 545.945 511.438 547.414 512.256 549.011L512.597 549.673C513.585 551.582 514.657 553.673 515.798 555.905C515.994 556.269 516.194 556.669 516.39 557.058C517.208 558.658 518.062 560.331 518.934 562.043L519.373 562.905L519.53 563.214L520.256 564.622L524.071 572.131C524.286 572.553 524.5 572.982 524.718 573.407L526.814 577.545C527.127 578.166 527.442 578.788 527.759 579.411C527.893 579.683 528.032 579.956 528.17 580.229C529.623 583.138 531.105 586.047 532.551 588.905L533.024 589.84L533.652 591.083L534.281 592.334L535.295 594.342L535.396 594.545L536.123 596L539.756 603.233C539.894 603.513 540.036 603.789 540.174 604.065L540.588 604.887C540.862 605.43 541.132 605.967 541.399 606.498C541.529 606.763 541.664 607.025 541.795 607.287C542.049 607.796 542.302 608.298 542.554 608.793L542.572 608.833L543.321 610.323C543.982 611.643 544.614 612.898 545.206 614.076L545.57 614.822L546.921 617.516C549.308 622.247 550.751 625.127 550.751 625.127Z" fill="#D969BD"/>
<path d="M503.23 641.092L486.052 641.259H485.103C484.855 641.259 484.61 641.203 484.387 641.094C484.164 640.985 483.969 640.827 483.816 640.632C483.663 640.436 483.556 640.208 483.504 639.965C483.452 639.723 483.456 639.471 483.516 639.23L483.752 638.259C487.425 623.146 491.651 608.361 495.378 595.321C496.178 592.528 496.952 589.813 497.7 587.175C500.607 576.703 506.842 564.455 513.156 552.783C515.38 548.674 517.654 544.568 520.06 540.219C534.037 515.001 549.882 486.401 549.777 464.721C549.806 453.848 552.32 447.03 554.387 443.226C557.007 438.448 560.564 435.59 563.867 435.59C564.743 435.584 565.607 435.801 566.376 436.221C567.146 436.641 567.796 437.25 568.267 437.99C569.56 439.924 570.879 442.077 572.18 444.386C576.133 451.412 579.417 458.979 579.995 462.383C581.005 468.332 577.543 489.564 573.531 514.15C570.461 532.968 567.289 552.43 565.934 566.321C565.928 566.383 565.918 566.445 565.905 566.506C561.545 586.692 554.874 610.234 544.857 640.586C544.75 640.913 544.542 641.198 544.263 641.4C543.985 641.602 543.65 641.71 543.306 641.71L503.23 641.092Z" fill="#CE44A2"/>
<path d="M563.87 437.247C564.478 437.242 565.077 437.393 565.609 437.686C566.142 437.979 566.59 438.404 566.911 438.92C568.234 440.895 569.535 443.036 570.759 445.211C574.708 452.229 577.862 459.578 578.389 462.666C580.111 472.807 567.405 534.462 564.313 566.171C559.321 589.371 551.76 614.48 543.313 640.084L534.142 639.938L503.237 639.451L486.041 639.618L485.103 639.636C485.183 639.313 485.259 638.989 485.339 638.666C489.787 620.364 495.015 602.658 499.273 587.636C501.984 577.818 507.797 566.138 514.595 553.575C530.4 524.364 551.539 490.462 551.415 464.727C551.466 446.182 558.969 437.247 563.87 437.247ZM563.87 433.975C559.946 433.975 555.877 437.142 552.97 442.451C550.79 446.426 548.192 453.513 548.16 464.716V464.727C548.261 485.993 532.536 514.382 518.65 539.426C516.237 543.789 513.963 547.884 511.746 552C505.384 563.76 499.091 576.105 496.148 586.742C495.404 589.371 494.626 592.087 493.83 594.869C490.074 607.942 485.83 622.742 482.16 637.891L482.044 638.382C482.004 638.538 481.968 638.695 481.928 638.851C481.808 639.333 481.801 639.836 481.905 640.322C482.009 640.808 482.222 641.263 482.528 641.654C482.834 642.045 483.225 642.362 483.671 642.579C484.117 642.796 484.607 642.909 485.103 642.909H485.129H486.062L503.223 642.742L534.106 643.229L543.276 643.375H543.327C544.016 643.375 544.686 643.158 545.244 642.754C545.802 642.351 546.218 641.781 546.434 641.127C556.465 610.716 563.169 587.124 567.507 566.876C567.533 566.756 567.551 566.633 567.565 566.513C568.913 552.676 572.085 533.24 575.148 514.447C579.81 485.873 582.615 468.062 581.608 462.142C580.998 458.506 577.706 450.902 573.615 443.618C572.292 441.269 570.955 439.08 569.636 437.113C569.013 436.153 568.16 435.364 567.154 434.818C566.148 434.273 565.022 433.988 563.877 433.989L563.87 433.975Z" fill="#17091D"/>
<path d="M570.759 445.212C568.836 458.368 565.828 471.342 561.767 484.001C551.197 517.016 517.716 593.041 503.234 639.463L486.026 639.19C490.524 620.55 494.939 602.91 499.274 587.638C508.291 555.03 551.594 501.528 551.415 464.728C551.481 441.507 563.202 433.379 566.912 438.91C568.234 440.896 569.535 443.038 570.759 445.212Z" fill="#D969BD"/>
</svg>
