<svg width="1800" height="1650" viewBox="0 0 1800 1650" fill="none" xmlns="http://www.w3.org/2000/svg">
<g id="Body 05">
<path id="Vector" d="M928.74 1419.92C928.74 1419.92 1009.9 1453.42 1118.74 1412.46C1227.58 1371.5 1042.86 1213.7 1042.86 1213.7C1042.86 1213.7 900.5 1201.93 900 1212.21C899.5 1222.49 928.74 1419.92 928.74 1419.92Z" fill="#7E4282" stroke="#17091D" stroke-width="9" stroke-miterlimit="10"/>
<g id="glove 2">
<path id="Vector_2" d="M1417.21 1611.77C1404.34 1611.77 1389.7 1605.69 1375.55 1599.77C1370.72 1597.77 1366.17 1595.87 1361.88 1594.31C1355.12 1591.85 1350.32 1590.71 1346.76 1590.71C1346.17 1590.71 1345.58 1590.75 1345 1590.82C1343.28 1591.06 1341.54 1591.19 1339.8 1591.19C1329.87 1591.19 1320.7 1587.07 1315.27 1580.19C1313.06 1577.44 1311.51 1574.21 1310.76 1570.76C1310 1567.31 1310.05 1563.74 1310.91 1560.31C1310.99 1560.01 1311.05 1559.71 1311.11 1559.39C1314.01 1544.3 1323.49 1499.39 1328.72 1482.62C1330.58 1476.62 1327.85 1468.27 1324.96 1459.41C1321.29 1448.13 1317.11 1435.34 1322.25 1424.41C1322.55 1423.78 1322.85 1423.19 1323.16 1422.59C1331.72 1406.22 1356.69 1374.52 1362.24 1367.59C1361.97 1361.24 1361.14 1338.13 1361.87 1313.65C1363.64 1254.39 1372.62 1244.95 1375.58 1241.85C1376.67 1240.62 1378 1239.62 1379.49 1238.94C1380.98 1238.25 1382.6 1237.88 1384.24 1237.85C1393.56 1237.85 1419.24 1229.17 1439.79 1222.19C1453.79 1217.43 1467.12 1212.93 1475.39 1210.99C1479.32 1210.05 1483.35 1209.57 1487.39 1209.56C1498.39 1209.56 1507.25 1213.3 1514.39 1216.3C1519.65 1218.52 1524.19 1220.44 1528.26 1220.44C1529.67 1220.45 1531.06 1220.2 1532.38 1219.7C1533.11 1219.43 1533.89 1219.29 1534.67 1219.29C1541.17 1219.29 1544.17 1227.84 1546.67 1240.69C1548.53 1250.28 1550.23 1263.59 1551.67 1280.25C1553.91 1305.38 1554.99 1330.8 1555.21 1336.25C1560.9 1346.6 1605.21 1429.46 1599.21 1489.05C1597.4 1507.11 1591.07 1521.42 1580.4 1531.59L1579.73 1532.21C1574.9 1536.66 1570.01 1540.9 1565.17 1544.84C1553.5 1554.46 1540.95 1562.96 1527.68 1570.21C1501.04 1584.52 1483.31 1586.06 1476.92 1586.06C1475.51 1586.07 1474.09 1585.98 1472.69 1585.79H1472.35C1471.87 1585.8 1471.39 1585.89 1470.93 1586.03C1467.7 1586.96 1463.19 1590.15 1457.93 1593.84C1449.16 1600.04 1438.24 1607.76 1424.93 1610.93C1422.4 1611.51 1419.81 1611.79 1417.21 1611.77Z" fill="#CE44A2"/>
<path id="Vector_3" d="M1487.38 1214.05C1505.45 1214.05 1516.93 1224.92 1528.22 1224.92C1530.16 1224.94 1532.09 1224.6 1533.91 1223.92C1534.14 1223.83 1534.38 1223.79 1534.63 1223.79C1546.63 1223.79 1550.77 1337.53 1550.77 1337.53C1550.77 1337.53 1600.9 1427.03 1594.77 1488.65C1593.19 1504.35 1587.97 1518.23 1577.33 1528.37L1576.69 1528.97C1571.8 1533.47 1567.02 1537.61 1562.36 1541.39C1550.92 1550.84 1538.6 1559.18 1525.58 1566.29C1502.52 1578.68 1485.4 1581.61 1476.95 1581.61C1475.76 1581.62 1474.57 1581.54 1473.39 1581.38C1473.06 1581.33 1472.72 1581.31 1472.39 1581.31C1471.49 1581.32 1470.59 1581.46 1469.73 1581.72C1459.73 1584.59 1444.63 1601.66 1423.92 1606.57C1421.73 1607.07 1419.49 1607.32 1417.24 1607.3C1400.99 1607.3 1380.12 1596.23 1363.44 1590.16C1357.14 1587.86 1351.44 1586.29 1346.79 1586.29C1345.99 1586.29 1345.2 1586.34 1344.41 1586.44C1342.89 1586.66 1341.35 1586.76 1339.82 1586.76C1324.15 1586.76 1311.98 1575.3 1315.3 1561.42C1315.39 1561.05 1315.48 1560.67 1315.55 1560.25C1318.74 1543.67 1328.03 1500.04 1333.03 1484.02C1338.03 1468 1318.2 1443.7 1326.34 1426.37C1326.6 1425.82 1326.87 1425.27 1327.16 1424.72C1336.51 1406.84 1366.82 1369.08 1366.82 1369.08C1366.82 1369.08 1360.64 1242.36 1384.26 1242.36C1400.64 1242.36 1455.52 1220.27 1476.44 1215.36C1480.04 1214.5 1483.73 1214.07 1487.44 1214.06M1487.44 1205.06C1483.06 1205.08 1478.7 1205.59 1474.44 1206.6C1465.96 1208.6 1452.59 1213.12 1438.44 1217.92C1419.22 1224.43 1392.91 1233.35 1384.33 1233.35C1382.08 1233.37 1379.85 1233.86 1377.8 1234.79C1375.75 1235.72 1373.91 1237.06 1372.41 1238.74C1366.78 1244.66 1359.1 1258.84 1357.47 1313.51C1356.78 1336.61 1357.47 1357.98 1357.77 1366.09C1350.6 1375.15 1327.55 1404.71 1319.26 1420.54C1318.96 1421.12 1318.65 1421.75 1318.26 1422.47V1422.53C1312.37 1435.08 1316.83 1448.77 1320.77 1460.84C1323.32 1468.65 1325.95 1476.71 1324.51 1481.32C1319.23 1498.25 1309.69 1543.42 1306.79 1558.54C1306.79 1558.54 1306.79 1558.6 1306.79 1558.63C1306.79 1558.83 1306.71 1559.03 1306.66 1559.24V1559.31C1305.64 1563.4 1305.58 1567.66 1306.48 1571.77C1307.38 1575.89 1309.22 1579.74 1311.86 1583.02C1318.14 1591.02 1328.63 1595.73 1339.92 1595.73C1341.87 1595.73 1343.82 1595.59 1345.76 1595.32C1346.13 1595.27 1346.51 1595.25 1346.89 1595.25C1349.89 1595.25 1354.31 1596.34 1360.47 1598.58C1364.66 1600.11 1369.17 1601.98 1373.95 1603.97C1388.51 1609.97 1403.57 1616.26 1417.34 1616.26C1420.28 1616.27 1423.22 1615.93 1426.09 1615.26C1440.29 1611.9 1451.6 1603.9 1460.7 1597.47C1465.18 1594.3 1469.81 1591.02 1472.31 1590.31H1472.47C1473.99 1590.51 1475.52 1590.6 1477.06 1590.59C1483.79 1590.59 1502.41 1589 1529.94 1574.21C1543.47 1566.83 1556.26 1558.17 1568.15 1548.36C1573.05 1544.36 1578.01 1540.08 1582.89 1535.58L1582.95 1535.52L1583.65 1534.87C1595.11 1523.94 1601.9 1508.69 1603.82 1489.54C1606.52 1462.54 1599.7 1427.96 1583.57 1386.71C1576.66 1369.05 1568.72 1351.8 1559.8 1335.06C1559.5 1327.88 1558.41 1303.74 1556.28 1279.86C1554.79 1263.05 1553.06 1249.58 1551.17 1239.86C1550.31 1234.9 1548.99 1230.03 1547.23 1225.31C1544.4 1218.31 1540.23 1214.82 1534.77 1214.81C1533.45 1214.81 1532.14 1215.05 1530.91 1215.51C1530.09 1215.82 1529.22 1215.97 1528.35 1215.96C1525.19 1215.96 1521.03 1214.21 1516.23 1212.18C1508.74 1209.02 1499.42 1205.09 1487.51 1205.09L1487.44 1205.06Z" fill="#17091D"/>
<path id="Vector_4" d="M1344.38 1586.42C1349.38 1585.72 1355.98 1587.42 1363.38 1590.14C1382.45 1597.08 1406.99 1610.55 1423.86 1606.55C1444.57 1601.64 1459.68 1584.55 1469.67 1581.7C1470.85 1581.32 1472.11 1581.21 1473.34 1581.36C1479.67 1582.36 1498.52 1580.78 1525.53 1566.27C1538.56 1559.16 1550.87 1550.82 1562.31 1541.37C1566.98 1537.58 1571.75 1533.44 1576.64 1528.95L1577.28 1528.35C1585.65 1520.23 1591.28 1506.35 1594.72 1488.63C1600.87 1427.01 1550.72 1337.51 1550.72 1337.51C1550.72 1337.51 1546.42 1219.23 1533.86 1223.9C1518.39 1229.67 1504.55 1208.74 1476.36 1215.35C1455.44 1220.26 1400.56 1242.35 1384.18 1242.35C1360.56 1242.35 1366.74 1369.07 1366.74 1369.07C1366.74 1369.07 1336.43 1406.83 1327.08 1424.71C1326.79 1425.26 1326.52 1425.81 1326.26 1426.36C1332.53 1420.63 1363.52 1393.18 1386.33 1389.97C1411.81 1386.39 1474.83 1384.07 1497.44 1378.58C1520.05 1373.09 1538.81 1402.52 1546.84 1437.88C1552.22 1461.49 1565.71 1491.09 1559.1 1513.56C1555.82 1524.74 1547.58 1534.15 1530.92 1540.21C1529.17 1540.85 1527.45 1541.46 1525.78 1542.05C1501.26 1550.6 1483.24 1554.18 1468.91 1557.34C1455.91 1560.2 1445.97 1562.71 1436.91 1568.23C1422.22 1577.23 1397.82 1593.74 1358.91 1582.23C1346.05 1578.42 1331.59 1571.52 1315.38 1560.23C1315.31 1560.65 1315.22 1561.03 1315.13 1561.4C1311.63 1576.61 1326.59 1588.92 1344.38 1586.42Z" fill="#9C398C"/>
<path id="Vector_5" d="M1390.57 1543.13C1390.57 1543.13 1386.38 1512.48 1350.57 1492.13" stroke="#17091D" stroke-width="8.86" stroke-linecap="round" stroke-linejoin="round"/>
<path id="Vector_6" d="M1371.86 1512.65C1371.86 1512.65 1336.51 1556.23 1366.51 1594.45" stroke="#17091D" stroke-width="8.86" stroke-linecap="round" stroke-linejoin="round"/>
<path id="Vector_7" d="M1455.58 1510.44C1455.58 1510.44 1474.99 1557.3 1469.23 1584.36" stroke="#17091D" stroke-width="10.67" stroke-linecap="round" stroke-linejoin="round"/>
<path id="Vector_8" d="M1518.18 1514.17C1518.18 1514.17 1535.44 1557.86 1521.64 1573.73" stroke="#17091D" stroke-width="8.79" stroke-linecap="round" stroke-linejoin="round"/>
<path id="Vector_9" d="M1558.81 1512.72C1558.81 1512.72 1570.7 1539.99 1555.6 1552.1" stroke="#17091D" stroke-width="7" stroke-linecap="round" stroke-linejoin="round"/>
<path id="Vector_10" d="M1425 1567C1432.18 1567 1438 1554.24 1438 1538.5C1438 1522.76 1432.18 1510 1425 1510C1417.82 1510 1412 1522.76 1412 1538.5C1412 1554.24 1417.82 1567 1425 1567Z" fill="#D969BD"/>
<path id="Vector_11" d="M1496.06 1539.13C1503.01 1537.35 1506.16 1526.15 1503.08 1514.11C1500 1502.07 1491.86 1493.75 1484.9 1495.53C1477.95 1497.31 1474.81 1508.51 1477.89 1520.55C1480.97 1532.59 1489.1 1540.91 1496.06 1539.13Z" fill="#D969BD"/>
<path id="Vector_12" d="M1540.37 1518.54C1546.38 1517 1549.51 1508.94 1547.36 1500.54C1545.21 1492.14 1538.6 1486.58 1532.59 1488.12C1526.58 1489.65 1523.45 1497.71 1525.6 1506.11C1527.75 1514.51 1534.36 1520.07 1540.37 1518.54Z" fill="#D969BD"/>
</g>
<g id="glove 1">
<path id="Vector_13" d="M486 1632.18C474.17 1632.18 463.08 1628.76 454.17 1626C448.26 1624.18 443.17 1622.6 439.76 1622.6H439.41C438.824 1622.59 438.242 1622.71 437.7 1622.93C432.95 1625.32 422.7 1627.85 408.26 1627.85C399.012 1627.79 389.786 1626.92 380.69 1625.25H380.57C365.684 1622.48 351.095 1618.3 337 1612.77C331.18 1610.54 325.22 1608.03 319.27 1605.32L318.39 1604.9C305.11 1598.56 294.65 1586.9 287.32 1570.34C263.4 1516.12 279.12 1424.98 281.57 1411.82C279.62 1407.67 273.51 1394.51 267.92 1380.37C255.24 1348.27 256.02 1338.88 257.72 1334.6C258.108 1333.52 258.722 1332.53 259.522 1331.7C260.323 1330.88 261.29 1330.23 262.36 1329.81C267.36 1327.87 272.83 1325.69 278.6 1323.38C313.3 1309.5 360.83 1290.5 399 1290.5C410.69 1290.5 421 1292.29 429.68 1295.84C451.75 1304.84 471.03 1368.13 474.8 1381.19C482.22 1386.08 515.8 1408.47 529.07 1421.37C529.55 1421.84 530.02 1422.37 530.47 1422.8C538.55 1431.38 541.77 1441.04 544.89 1450.39C547.14 1457.14 549.26 1463.51 553.1 1468.91C558.9 1477.06 564.96 1495.91 570.81 1514.14C575.13 1527.56 579.58 1541.43 583.01 1547.62L583.49 1548.45C585.544 1551.69 586.748 1555.4 586.991 1559.23C587.233 1563.06 586.508 1566.89 584.88 1570.36C580.8 1579.47 571.71 1586.09 560.58 1588.08C555.89 1588.92 549.81 1593.37 545.58 1596.64C541.99 1599.46 538.25 1602.64 534.29 1606.08C520.82 1617.64 505.55 1630.75 490.8 1631.98C489.28 1632.11 487.63 1632.18 486 1632.18Z" fill="#CE44A2"/>
<path id="Vector_14" d="M399 1295C409.57 1295 419.38 1296.49 428 1300C449.86 1308.94 471 1384 471 1384C471 1384 511.54 1410.47 526 1424.56C526.44 1424.99 526.87 1425.43 527.29 1425.87C540.41 1439.81 539.85 1457.87 549.51 1471.48C559.17 1485.09 570.97 1535 579.15 1549.77C579.35 1550.14 579.55 1550.48 579.75 1550.77C587.94 1564.1 577.55 1580.44 559.86 1583.6C554.86 1584.49 549.15 1588.17 542.93 1593.05C526.93 1605.57 507.82 1626.05 490.55 1627.44C489.04 1627.57 487.55 1627.62 486.03 1627.62C466.91 1627.62 449.55 1618.05 439.79 1618.05H439.28C438.038 1618.06 436.813 1618.34 435.69 1618.87C431.93 1620.75 422.69 1623.3 408.29 1623.3C399.269 1623.24 390.271 1622.39 381.4 1620.75C366.809 1618.04 352.511 1613.94 338.7 1608.51C333.1 1606.36 327.273 1603.91 321.22 1601.16L320.43 1600.79C307.17 1594.46 297.89 1582.89 291.51 1568.45C266.51 1511.8 286.34 1411.15 286.34 1411.15C286.34 1411.15 251.5 1338.83 264 1334C299.4 1320.32 355.52 1295 399 1295ZM399 1286C360 1286 312 1305.2 276.92 1319.21C271.17 1321.52 265.73 1323.69 260.74 1325.62C259.096 1326.27 257.605 1327.26 256.365 1328.52C255.125 1329.78 254.163 1331.29 253.54 1332.94C251.27 1338.69 250.7 1349.01 263.75 1382.03C268.95 1395.2 274.47 1407.24 276.89 1412.44C273.697 1430.86 271.563 1449.45 270.5 1468.12C267.98 1512.34 272.26 1547.34 283.21 1572.12C290.99 1589.73 302.21 1602.12 316.48 1608.94L317.32 1609.33H317.37C323.44 1612.1 329.49 1614.64 335.37 1616.91C349.715 1622.54 364.562 1626.79 379.71 1629.61H379.89C389.228 1631.32 398.698 1632.2 408.19 1632.26C420.97 1632.26 432.58 1630.31 439.34 1627.02H439.69C442.4 1627.02 447.44 1628.57 452.77 1630.22C461.97 1633.06 473.42 1636.59 485.93 1636.59C487.71 1636.59 489.48 1636.52 491.2 1636.38C507.4 1635.03 523.2 1621.38 537.2 1609.38C541.13 1606.01 544.83 1602.83 548.34 1600.07C554.21 1595.47 558.58 1592.89 561.34 1592.4C573.93 1590.15 584.25 1582.56 588.94 1572.09C590.845 1567.95 591.692 1563.4 591.406 1558.85C591.12 1554.3 589.709 1549.89 587.3 1546.02V1545.96C587.19 1545.78 587.08 1545.6 586.99 1545.42V1545.34C583.78 1539.53 579.39 1525.87 575.14 1512.65C568.91 1493.24 563.02 1474.91 556.81 1466.19C553.36 1461.34 551.34 1455.28 549.2 1448.86C546.08 1439.51 542.55 1428.86 533.81 1419.63C533.27 1419.06 532.81 1418.56 532.3 1418.1C519.48 1405.6 488.3 1384.63 478.73 1378.28C476.85 1371.97 472.29 1357.38 466.08 1341.95C462.084 1331.65 457.269 1321.7 451.68 1312.17C444.98 1301.17 438.37 1294.44 431.47 1291.62C422.26 1287.85 411.37 1285.94 399.1 1285.94L399 1286Z" fill="#17091D"/>
<path id="Vector_15" d="M559.81 1583.66C554.81 1584.55 549.1 1588.23 542.88 1593.11C526.88 1605.63 507.77 1626.11 490.5 1627.5C469.28 1629.27 449.62 1617.74 439.23 1618.12C437.988 1618.13 436.762 1618.41 435.64 1618.94C429.92 1621.81 411.52 1626.21 381.35 1620.82C366.759 1618.11 352.461 1614.01 338.65 1608.58C333.05 1606.43 327.223 1603.98 321.17 1601.23L320.38 1600.86C309.9 1595.74 300.26 1584.24 291.46 1568.52C266.46 1511.87 286.29 1411.22 286.29 1411.22C286.29 1411.22 251.5 1338.83 264 1334C308 1317 384 1282 428 1300C449.86 1308.94 471 1384 471 1384C471 1384 422.72 1317.93 400 1322C374.67 1326.52 324.19 1337.19 301 1339C277.81 1340.81 317.81 1469.3 321.16 1505.4C323.39 1529.52 319.76 1561.84 333.03 1581.15C339.62 1590.75 350.38 1597.15 368.1 1597.72L373.56 1597.87C399.56 1598.38 417.76 1596.18 432.36 1594.73C445.59 1593.41 455.83 1592.73 466.11 1595.15C482.88 1599.15 511.19 1607.25 544.54 1584.15C555.54 1576.53 567.18 1565.48 579.09 1549.75C579.29 1550.12 579.49 1550.46 579.69 1550.75C587.89 1564.16 577.5 1580.5 559.81 1583.66Z" fill="#9C398C"/>
<path id="Vector_16" d="M502.45 1556.87C502.45 1556.87 496.91 1526.43 524.63 1496" stroke="#17091D" stroke-width="8.86" stroke-linecap="round" stroke-linejoin="round"/>
<path id="Vector_17" d="M510.77 1522.09C510.77 1522.09 557.91 1552.52 541.27 1598.17" stroke="#17091D" stroke-width="8.86" stroke-linecap="round" stroke-linejoin="round"/>
<path id="Vector_18" d="M430.5 1546C430.5 1546 426.61 1596.57 440.5 1620.5" stroke="#17091D" stroke-width="10.67" stroke-linecap="round" stroke-linejoin="round"/>
<path id="Vector_19" d="M372.16 1569C372.16 1569 369.34 1615.89 387.38 1626.68" stroke="#17091D" stroke-width="8.79" stroke-linecap="round" stroke-linejoin="round"/>
<path id="Vector_20" d="M333.1 1580.26C333.1 1580.26 330.27 1609.87 348.38 1616.68" stroke="#17091D" stroke-width="7" stroke-linecap="round" stroke-linejoin="round"/>
<path id="Vector_21" d="M461.5 1577C467.299 1577 472 1564.24 472 1548.5C472 1532.76 467.299 1520 461.5 1520C455.701 1520 451 1532.76 451 1548.5C451 1564.24 455.701 1577 461.5 1577Z" fill="#D969BD"/>
<path id="Vector_22" d="M397.5 1573C403.299 1573 408 1563.37 408 1551.5C408 1539.63 403.299 1530 397.5 1530C391.701 1530 387 1539.63 387 1551.5C387 1563.37 391.701 1573 397.5 1573Z" fill="#D969BD"/>
<path id="Vector_23" d="M350.5 1584C356.299 1584 361 1576.61 361 1567.5C361 1558.39 356.299 1551 350.5 1551C344.701 1551 340 1558.39 340 1567.5C340 1576.61 344.701 1584 350.5 1584Z" fill="#D969BD"/>
</g>
<g id="collar back">
<path id="Vector_24" d="M1028.62 144.56C1028.03 144.573 1027.44 144.506 1026.87 144.36C1016.92 142.75 768.181 116.97 637.331 103.5C636.634 103.428 635.964 103.194 635.374 102.818C634.784 102.441 634.289 101.932 633.931 101.33C620.321 78.4804 620.851 74.9404 621.061 73.6104C621.481 70.8104 626.581 61.7104 636.201 46.6104C636.836 45.6029 637.841 44.8848 639.001 44.6104C639.521 44.4904 691.671 32.8604 774.741 32.8604C840.426 32.9622 905.927 39.7912 970.221 53.2404C1019.91 63.6184 1066.48 85.4738 1106.22 117.06L1116.79 125.48C1117.49 126.025 1118.01 126.763 1118.29 127.602C1118.56 128.44 1118.59 129.342 1118.36 130.196C1118.13 131.049 1117.65 131.815 1116.99 132.399C1116.33 132.984 1115.51 133.36 1114.63 133.48C1106.68 134.59 1036.68 144.56 1028.62 144.56Z" fill="#CE44A2"/>
<path id="Vector_25" d="M774.74 37.3604C840.118 37.4708 905.314 44.2662 969.31 57.6404C1018.33 67.8256 1064.27 89.3848 1103.43 120.58L1114 129C1114 129 1036.59 140.06 1028.62 140.06C1028.41 140.075 1028.2 140.055 1028 140C1026 139 637.79 99.0004 637.79 99.0004C637.79 99.0004 625 77.5603 625.5 74.2803C626 71.0004 640 49.0004 640 49.0004C640 49.0004 691.21 37.3604 774.74 37.3604ZM774.74 28.3604C691.15 28.3604 640.13 39.7404 638 40.2204C635.677 40.7592 633.663 42.1978 632.4 44.2204C617.4 67.8204 616.85 71.3103 616.6 72.9903C616.18 75.7104 615.6 79.4504 630.05 103.68C630.768 104.886 631.757 105.907 632.939 106.663C634.122 107.418 635.464 107.886 636.86 108.03C741.21 118.77 1012.86 146.88 1025.99 148.83C1026.85 149.026 1027.73 149.12 1028.61 149.11C1036.81 149.11 1102.23 139.82 1115.26 137.96C1117.01 137.722 1118.66 136.972 1119.99 135.805C1121.31 134.638 1122.27 133.106 1122.73 131.399C1123.2 129.692 1123.15 127.886 1122.59 126.208C1122.03 124.529 1120.99 123.052 1119.6 121.96L1109 113.54C1068.71 81.5157 1021.48 59.3559 971.1 48.8304C906.519 35.3299 840.727 28.4708 774.75 28.3604H774.74Z" fill="#17091D"/>
<path id="Vector_26" d="M638.89 78.4907C638.89 78.4907 721.69 47.4907 852.59 60.9807C983.49 74.4707 1077.34 119.201 1077.34 119.201L1085.23 254.771L1042.44 359.691C1042.44 359.691 894.83 390.691 893.67 389.571C892.51 388.451 717.29 303.861 717.29 303.861C717.29 303.861 584.6 206.281 583.05 202.391C581.5 198.501 638.89 78.4907 638.89 78.4907Z" fill="#5C2C66" stroke="#17091D" stroke-width="9" stroke-miterlimit="10"/>
</g>
<g id="qrm 2">
<path id="Vector_27" d="M1333.5 1327C1333.08 1327 1332.67 1326.94 1332.27 1326.83C1331.39 1326.58 1330.61 1326.07 1330.03 1325.37C1329.45 1324.66 1329.1 1323.8 1329.02 1322.89C1327.54 1305.75 1314.87 1154.75 1325.76 1131.89C1333.53 1115.61 1309.76 1053.25 1299.61 1026.63C1296.71 1019.02 1294.61 1013.52 1293.7 1010.5C1289.11 995.5 1271.88 807.72 1271.15 799.73C1271.13 799.48 1271.13 799.229 1271.15 798.98C1271.32 796.72 1288.3 571.78 1295.65 478.24C1298.74 438.85 1299 437.43 1299.09 436.97C1300.09 431.55 1332.28 306.18 1333.65 300.84C1333.88 299.957 1334.37 299.163 1335.06 298.565C1335.75 297.967 1336.6 297.592 1337.51 297.49C1337.68 297.48 1337.84 297.48 1338.01 297.49C1338.84 297.49 1339.65 297.718 1340.35 298.148C1341.06 298.579 1341.63 299.195 1342.01 299.93C1345.75 307.2 1433.84 478.93 1451.83 560.52C1470.54 645.42 1502.65 782.19 1508.16 800.44C1512.46 814.7 1513.7 829.27 1514.79 842.12C1515.19 846.8 1515.56 851.22 1516.06 855.5C1517.12 864.61 1526.66 875.39 1535.89 885.83C1541.47 892.14 1547.25 898.67 1551.38 905.09C1560.25 918.88 1567.76 986.91 1574.7 1055.41C1575.7 1065.3 1576.56 1073.85 1577.21 1079.58C1580.97 1112.84 1581.9 1261.58 1581.94 1267.88C1581.94 1268.47 1581.83 1269.06 1581.61 1269.61C1581.38 1270.16 1581.05 1270.66 1580.64 1271.08C1580.22 1271.51 1579.72 1271.84 1579.17 1272.07C1578.62 1272.29 1578.03 1272.41 1577.44 1272.41H1577.3C1573.01 1272.41 1471.54 1272.64 1399.55 1292.35C1367.9 1301.01 1346.89 1312.06 1337.12 1325.18C1336.7 1325.75 1336.16 1326.21 1335.53 1326.52C1334.9 1326.84 1334.2 1327 1333.5 1327Z" fill="#CE44A2"/>
<path id="Vector_28" d="M1338 302C1338 302 1429.35 479.5 1447.43 561.5C1465.51 643.5 1498.18 782.99 1503.84 801.75C1509.5 820.51 1509.66 839.56 1511.58 856.03C1513.5 872.5 1536.67 890.59 1547.58 907.54C1558.49 924.49 1568.94 1046.7 1572.72 1080.1C1576.5 1113.5 1577.42 1267.92 1577.42 1267.92H1577.28C1573 1267.92 1470.97 1268.13 1398.34 1288.02C1369.34 1295.96 1345.01 1307.02 1333.49 1322.5C1333.49 1322.5 1319.13 1156.24 1329.81 1133.87C1340.49 1111.5 1302.5 1024 1298 1009.23C1293.5 994.46 1275.63 799.36 1275.63 799.36C1275.63 799.36 1292.69 573.25 1300.13 478.63C1302.02 454.49 1303.3 438.91 1303.5 437.83C1304.5 432.5 1338 302 1338 302ZM1338 293C1337.67 293.001 1337.33 293.021 1337 293.06C1335.19 293.264 1333.48 294.014 1332.1 295.21C1330.73 296.407 1329.75 297.993 1329.29 299.76C1325.86 313.15 1295.69 430.76 1294.66 436.17C1294.52 436.93 1294.27 438.29 1291.17 477.93C1283.81 571.48 1266.84 796.42 1266.67 798.68C1266.63 799.179 1266.63 799.681 1266.67 800.18C1268.51 820.25 1284.76 996.68 1289.39 1011.86C1290.39 1015.02 1292.48 1020.58 1295.39 1028.27C1301.09 1043.27 1309.72 1065.86 1315.74 1086.64C1325.07 1118.86 1322.64 1127.97 1321.68 1129.99C1319.57 1134.41 1317.11 1143.26 1316.87 1172.71C1316.73 1189.46 1317.33 1211.1 1318.65 1237.03C1320.88 1281.03 1324.48 1322.86 1324.51 1323.27C1324.66 1325.09 1325.37 1326.82 1326.53 1328.23C1327.69 1329.64 1329.26 1330.67 1331.01 1331.17C1332.77 1331.67 1334.64 1331.62 1336.37 1331.03C1338.1 1330.45 1339.61 1329.35 1340.7 1327.88C1349.7 1315.75 1370.48 1304.97 1400.7 1296.7C1472.11 1277.14 1573 1276.92 1577.26 1276.92H1577.4C1578.59 1276.92 1579.76 1276.69 1580.86 1276.23C1581.95 1275.77 1582.95 1275.11 1583.78 1274.27C1584.62 1273.43 1585.28 1272.43 1585.73 1271.33C1586.18 1270.23 1586.41 1269.06 1586.4 1267.87C1586.4 1261.54 1585.4 1112.58 1581.64 1079.09C1581 1073.38 1580.13 1064.85 1579.13 1054.98C1570.39 968.55 1563.66 915.93 1555.13 902.67C1550.8 895.96 1544.91 889.3 1539.22 882.86C1530.86 873.4 1521.39 862.69 1520.49 854.99C1520 850.78 1519.63 846.4 1519.23 841.75C1518.12 828.67 1516.87 813.86 1512.43 799.15C1507.06 781.37 1474.43 642.54 1456.19 559.56C1438.1 477.37 1349.75 305.17 1346 297.88C1345.24 296.41 1344.1 295.178 1342.69 294.317C1341.27 293.456 1339.65 293 1338 293Z" fill="#17091D"/>
<path id="Vector_29" d="M1461.5 947.5C1425.5 957.5 1391.29 941.66 1379.89 991.58C1368.49 1041.5 1381.68 1123.63 1395.09 1141.07C1401.15 1148.94 1398.55 1290.52 1398 1306C1369 1313.94 1339.52 1329.54 1328 1345C1328 1345 1319.14 1156.24 1329.82 1133.87C1340.5 1111.5 1302.5 1024 1298 1009.23C1293.5 994.46 1275.63 799.36 1275.63 799.36C1275.63 799.36 1292.69 573.25 1300.13 478.63L1343 305C1343 305 1360.86 673 1356.18 738.25C1351.5 803.5 1294.96 907.25 1361.18 896.89C1427.4 886.53 1467.53 869.01 1455.49 890.26C1443.45 911.51 1410.73 903.26 1394.95 918C1379.17 932.74 1432.28 918 1464.86 921.76C1497.44 925.52 1497.5 937.5 1461.5 947.5Z" fill="#9C398C"/>
<path id="Vector_30" d="M1293 970.16C1304 963.16 1315.06 956.39 1326.16 949.63C1337.26 942.87 1348.42 936.23 1359.64 929.63C1370.86 923.03 1382.2 916.68 1393.64 910.49L1402.3 905.94C1405.19 904.43 1408.15 903.01 1411.07 901.54L1413.27 900.45L1415.51 899.45L1420.01 897.4C1420.76 897.07 1421.49 896.7 1422.27 896.4L1424.6 895.48L1429.26 893.65C1430.08 893.298 1431 893.286 1431.83 893.615C1432.65 893.944 1433.31 894.588 1433.67 895.405C1434.02 896.222 1434.03 897.145 1433.7 897.971C1433.37 898.797 1432.73 899.458 1431.91 899.81L1431.66 899.93L1427.39 901.93L1425.26 902.93C1424.55 903.25 1423.85 903.66 1423.14 904.03L1418.92 906.27L1416.81 907.39L1414.73 908.58C1411.95 910.19 1409.16 911.75 1406.4 913.4L1398.15 918.4C1387.15 925.19 1376.38 932.2 1365.62 939.34C1354.86 946.48 1344.21 953.78 1333.62 961.13C1323.03 968.48 1312.42 975.94 1301.97 983.44C1300.25 984.677 1298.1 985.179 1296.01 984.835C1293.91 984.491 1292.04 983.329 1290.81 981.605C1289.57 979.881 1289.07 977.736 1289.41 975.642C1289.75 973.548 1290.92 971.677 1292.64 970.44L1293 970.16Z" fill="#17091D"/>
<path id="Vector_31" d="M1477 915C1477 915 1385.55 914 1346 947" stroke="#17091D" stroke-width="10" stroke-linecap="round" stroke-linejoin="round"/>
<path id="Vector_32" d="M1365.22 947.51C1391.62 929.39 1399.95 936.97 1370.37 955.28C1370.28 955.337 1370.19 955.388 1370.09 955.43C1351.76 963.79 1335.57 975.43 1318.26 985.26C1317.71 985.573 1317.07 985.678 1316.45 985.557C1315.83 985.435 1315.28 985.094 1314.89 984.597C1314.5 984.1 1314.31 983.48 1314.34 982.85C1314.37 982.221 1314.63 981.624 1315.07 981.17C1326.66 969.19 1354.49 955.38 1365.22 947.51Z" fill="#5C2C66"/>
<path id="Vector_33" d="M1339.21 1366.23C1335.85 1366.24 1332.56 1365.27 1329.74 1363.43C1326.93 1361.58 1324.73 1358.95 1323.4 1355.86C1319.27 1346.17 1317.77 1334.76 1317.25 1326.86C1316.93 1322.18 1317.74 1317.5 1319.63 1313.21C1321.52 1308.92 1324.42 1305.15 1328.08 1302.23C1340.7 1292.23 1365.32 1281.89 1397.39 1273.02C1440.7 1261.02 1490.69 1253.63 1527.87 1253.63C1564.05 1253.63 1585.48 1260.35 1591.59 1273.63C1602.79 1297.93 1598.08 1315.17 1592.16 1325.34C1589.54 1329.81 1585.79 1333.52 1581.3 1336.1C1576.8 1338.68 1571.71 1340.04 1566.52 1340.05C1564.99 1340.05 1563.46 1339.93 1561.95 1339.7C1549.07 1337.82 1536.07 1336.92 1523.06 1337.01C1452.55 1337.01 1368.06 1358.9 1343.85 1365.61C1342.34 1366.03 1340.78 1366.23 1339.21 1366.23Z" fill="#CE44A2"/>
<path id="Vector_34" d="M1527.87 1258.16C1558.51 1258.16 1581.87 1263.16 1587.5 1275.5C1597.58 1297.37 1594.14 1312.98 1588.27 1323.07C1586.05 1326.87 1582.87 1330.01 1579.05 1332.2C1575.23 1334.39 1570.91 1335.54 1566.51 1335.54C1565.21 1335.54 1563.91 1335.44 1562.63 1335.24C1549.53 1333.32 1536.3 1332.41 1523.06 1332.5C1452.75 1332.5 1369.85 1353.72 1342.65 1361.26C1339.69 1362.09 1336.53 1361.82 1333.76 1360.5C1330.98 1359.19 1328.77 1356.91 1327.54 1354.1C1323.65 1344.98 1322.24 1334.1 1321.74 1326.59C1321.47 1322.64 1322.15 1318.69 1323.74 1315.06C1325.33 1311.44 1327.78 1308.26 1330.87 1305.79C1343.72 1295.64 1368.87 1285.61 1398.59 1277.39C1439.66 1266.05 1489.51 1258.17 1527.87 1258.16ZM1527.87 1249.16C1490.3 1249.16 1439.87 1256.66 1396.18 1268.71C1373.09 1275.1 1342.05 1285.48 1325.28 1298.71C1321.04 1302.08 1317.69 1306.43 1315.51 1311.39C1313.32 1316.34 1312.38 1321.76 1312.75 1327.16C1313.3 1335.38 1314.87 1347.34 1319.25 1357.61C1320.93 1361.52 1323.72 1364.85 1327.27 1367.18C1330.83 1369.51 1335 1370.74 1339.25 1370.71C1341.22 1370.71 1343.19 1370.44 1345.09 1369.92C1369.17 1363.24 1453.17 1341.48 1523.09 1341.48C1535.87 1341.39 1548.64 1342.27 1561.28 1344.11C1566.02 1344.85 1570.87 1344.58 1575.5 1343.33C1579.8 1342.18 1583.83 1340.2 1587.36 1337.5C1590.89 1334.79 1593.86 1331.42 1596.08 1327.57C1602.54 1316.48 1607.71 1297.77 1595.7 1271.71C1588.7 1256.53 1566.53 1249.14 1527.91 1249.14L1527.87 1249.16Z" fill="#17091D"/>
<path id="Vector_35" d="M1573.12 1334.66C1569.7 1335.59 1566.13 1335.78 1562.63 1335.24C1487.57 1323.61 1375.21 1352.24 1342.63 1361.24C1339.67 1362.07 1336.51 1361.81 1333.73 1360.49C1330.96 1359.18 1328.75 1356.9 1327.52 1354.08C1323.63 1344.96 1322.22 1334.08 1321.72 1326.57C1321.45 1322.62 1322.13 1318.67 1323.72 1315.05C1325.31 1311.42 1327.76 1308.24 1330.85 1305.77C1343.7 1295.62 1368.85 1285.59 1398.57 1277.37C1398.57 1277.37 1388.16 1308.3 1398.57 1317.64C1408.98 1326.98 1459.47 1320.98 1484.72 1322.48C1509.97 1323.98 1564 1327 1564 1327L1573.12 1334.66Z" fill="#9C398C"/>
</g>
<g id="arm 1">
<path id="Vector_36" d="M178.001 1335.5C176.895 1335.5 175.828 1335.09 175.004 1334.35C174.18 1333.61 173.656 1332.6 173.531 1331.5C173.331 1329.85 152.991 1165.71 149.121 1137.86C147.951 1129.4 146.581 1116.04 145.011 1100.57C141.381 1065.03 136.421 1016.35 130.251 995.48C129.701 993.64 129.181 991.74 128.701 989.86C122.511 966.17 124.531 951.65 128.211 925.3C128.811 921.04 129.451 916.45 130.111 911.42C131.841 898.27 135.491 885.27 141.541 863.73C153.431 821.36 175.541 742.48 212.401 557.11C267.781 278.31 347.541 273.52 350.911 273.45H351.001C351.565 273.453 352.124 273.558 352.651 273.76L454.281 313.76C455.081 314.082 455.774 314.622 456.281 315.32L549.161 444C549.732 444.786 550.031 445.738 550.011 446.71L545.841 678.46C545.824 679.343 545.549 680.201 545.051 680.93L541.141 686.6L492.271 764.71L468.791 889.55C468.749 889.789 468.685 890.023 468.601 890.25C461.011 911.18 442.601 969.12 448.841 985.73C457.061 1007.82 481.941 1250.96 483.001 1261.3C483.069 1261.93 483.005 1262.57 482.811 1263.17C482.617 1263.77 482.299 1264.33 481.876 1264.8C481.454 1265.27 480.936 1265.65 480.358 1265.91C479.78 1266.17 479.154 1266.3 478.521 1266.3C478.311 1266.32 478.1 1266.32 477.891 1266.3C471.621 1265.42 465.141 1264.71 458.651 1264.21C450.571 1263.58 442.301 1263.26 434.081 1263.26C421.747 1263.26 409.422 1263.92 397.161 1265.26C283.801 1277.73 181.221 1334.4 180.161 1334.97C179.497 1335.33 178.754 1335.51 178.001 1335.5Z" fill="#CE44A2"/>
<path id="Vector_37" d="M351 278L452.63 318L545.51 446.59L544.92 479.41L543.92 537.21V537.27L541.38 678.34L537.38 684.16L488 763L464.37 888.72C464.37 888.72 436.5 965.5 444.62 987.3C452.74 1009.1 478.52 1261.76 478.52 1261.76C471.973 1260.83 465.467 1260.12 459 1259.63C450.6 1258.96 442.293 1258.63 434.08 1258.63C421.581 1258.64 409.093 1259.33 396.67 1260.71C281 1273.47 178 1331 178 1331C178 1331 157.5 1165.5 153.58 1137.29C149.66 1109.08 143.5 1024.5 134.58 994.29C134.02 992.41 133.517 990.59 133.07 988.83C126.13 962.27 129.83 948.14 134.58 912.09C139.64 873.64 161.51 836.53 216.82 558.09C272.13 279.65 351 278 351 278ZM351 269H350.82C348.35 269.05 325.92 270.57 297.47 308.17C281.47 329.28 266.47 358.01 252.72 393.57C235.72 437.52 220.72 492.26 207.98 556.29C171.2 741.49 149.08 820.29 137.2 862.57C131.1 884.3 127.42 897.42 125.65 910.89C124.99 915.89 124.36 920.38 123.75 924.73C120 951.65 117.93 966.49 124.35 991.08C124.84 992.97 125.35 994.92 125.94 996.83C131.94 1017.27 136.94 1065.71 140.53 1101.08C142.11 1116.59 143.48 1129.99 144.67 1138.53C148.53 1166.35 168.86 1330.45 169.07 1332.11C169.252 1333.57 169.79 1334.97 170.638 1336.18C171.486 1337.38 172.618 1338.36 173.933 1339.03C175.249 1339.7 176.708 1340.03 178.183 1340C179.658 1339.97 181.102 1339.58 182.39 1338.86C182.64 1338.72 208.3 1324.48 247.58 1308.86C283.68 1294.54 339.03 1276.11 397.65 1269.67C409.748 1268.34 421.909 1267.67 434.08 1267.67C442.18 1267.67 450.33 1267.99 458.31 1268.6C464.7 1269.1 471.08 1269.79 477.26 1270.67C477.677 1270.73 478.099 1270.76 478.52 1270.76C479.783 1270.77 481.032 1270.51 482.188 1270C483.344 1269.49 484.38 1268.75 485.229 1267.81C486.078 1266.88 486.72 1265.77 487.115 1264.57C487.51 1263.38 487.648 1262.11 487.52 1260.85C487.46 1260.21 480.99 1196.85 473.61 1131.69C458.56 998.82 454.45 987.78 453.1 984.16C452.15 981.6 449.85 970.31 460.16 932.3C465.94 910.98 472.81 891.98 472.88 891.79C473.05 891.332 473.18 890.86 473.27 890.38L496.58 766.38L544.92 689L548.75 683.45C549.765 681.978 550.319 680.238 550.34 678.45L552.88 537.38V537.25L553.88 479.52L554.47 446.7C554.506 444.754 553.909 442.849 552.77 441.27L459.93 312.73C458.921 311.335 457.533 310.26 455.93 309.63L354.3 269.63C353.25 269.212 352.13 268.998 351 269Z" fill="#17091D"/>
<path id="Vector_38" d="M546.5 478.5L543.88 537.21V537.27L537.33 684.16L488 763L464.37 888.72C464.37 888.72 436.5 965.5 444.62 987.3C452.74 1009.1 477.52 1257.76 477.52 1257.76C470.973 1256.83 464.467 1256.12 458 1255.63C455.24 1223.7 442.79 1085.12 440.83 1067.45C438.16 1043.39 420.5 991.45 398.5 981.45C376.5 971.45 323.5 962.45 326.33 957.61C329.16 952.77 379.5 959.45 405.61 967.77C431.72 976.09 417.5 962.45 410.5 953.45C403.5 944.45 312.5 921.45 292.91 917.95C273.32 914.45 212.5 914.45 192.5 909.45C172.5 904.45 180.5 898.45 230.5 889.45C280.5 880.45 355.5 908.45 384.15 917.27C412.8 926.09 392.5 899.45 384.02 883.63C375.54 867.81 346.5 830.45 360.24 829.82C373.98 829.19 374.5 842.5 401 882.09C427.5 921.68 419.5 865.5 419.59 846.09C419.68 826.68 436.5 808.5 438.5 781.5C440.5 754.5 451.5 742.5 458.45 720.5C465.4 698.5 473.5 670.5 481.71 641.04C489.92 611.58 529.66 488.25 529.66 488.25L544.92 479.44L546.5 478.5Z" fill="#9C398C"/>
<path id="Vector_39" d="M417 1262C301.35 1274.72 178 1331 178 1331C178 1331 157.5 1165.5 153.58 1137.29C149.66 1109.08 143.5 1024.5 134.58 994.29C134.02 992.41 133.517 990.59 133.07 988.83C138.43 1002.44 144.87 1016.5 152.01 1027.03C171.01 1055.03 179.1 1094.36 181.06 1117.19C183.02 1140.02 195.87 1192.39 203.94 1198.71C212.01 1205.03 232.26 1243.51 271 1248C281.42 1249.21 406.8 1259.28 417 1262Z" fill="#9C398C"/>
<path id="Vector_40" d="M407.33 931.05C448.71 941.27 448.54 956.26 404.15 943.05C404.014 943.009 403.88 942.959 403.75 942.9C379.22 932.07 353.29 926.29 328.23 917.73C327.446 917.454 326.787 916.907 326.371 916.187C325.954 915.468 325.809 914.624 325.959 913.806C326.11 912.989 326.547 912.252 327.193 911.729C327.838 911.205 328.649 910.929 329.48 910.95C351.64 911.87 390 927.33 407.33 931.05Z" fill="#5C2C66"/>
<path id="Vector_41" d="M226.64 1422C218.861 1422.01 211.339 1419.21 205.45 1414.13C188.22 1399.25 175.21 1375.13 173.09 1354.13C172.421 1347.34 173.648 1340.49 176.632 1334.36C179.617 1328.22 184.244 1323.03 190 1319.36C246 1284 305.79 1262.52 367.62 1255.5C381.785 1253.88 396.032 1253.06 410.29 1253.05C449.44 1253.05 473.35 1259.33 474.35 1259.59C475.32 1259.85 476.176 1260.43 476.78 1261.23C496.59 1287.45 496.37 1308.92 492.69 1322.32C490.352 1331.12 485.777 1339.16 479.41 1345.67C478.58 1346.44 477.49 1346.86 476.36 1346.86H476.12C470.36 1346.55 464.51 1346.39 458.72 1346.39C441.073 1346.41 423.455 1347.83 406.03 1350.62C327.74 1363.09 267.71 1400.51 245.54 1416.02C240.005 1419.91 233.405 1422 226.64 1422Z" fill="#CE44A2"/>
<path id="Vector_42" d="M410.301 1257.55C449.301 1257.55 473.201 1263.94 473.201 1263.94C509.411 1311.88 476.371 1342.36 476.371 1342.36C470.424 1342.04 464.544 1341.88 458.731 1341.88C440.845 1341.9 422.989 1343.33 405.331 1346.17C327.391 1358.58 268.001 1394.82 243.001 1412.32C238.215 1415.67 232.514 1417.48 226.671 1417.48C219.97 1417.5 213.489 1415.09 208.421 1410.71C192.921 1397.32 179.701 1374.44 177.601 1353.62C177.001 1347.67 178.072 1341.66 180.693 1336.28C183.315 1330.9 187.382 1326.36 192.441 1323.16C257.601 1282.05 319.301 1265.52 368.171 1259.97C382.167 1258.37 396.243 1257.56 410.331 1257.55M410.331 1248.55C395.902 1248.56 381.486 1249.39 367.151 1251.03C304.641 1258.13 244.241 1279.83 187.641 1315.55C181.182 1319.66 175.988 1325.48 172.634 1332.37C169.281 1339.25 167.898 1346.93 168.641 1354.55C170.861 1376.64 184.481 1401.95 202.531 1417.55C209.232 1423.35 217.797 1426.55 226.661 1426.55C234.353 1426.56 241.859 1424.19 248.151 1419.76C270.071 1404.43 329.401 1367.45 406.771 1355.13C423.967 1352.37 441.354 1350.97 458.771 1350.95C464.481 1350.95 470.251 1351.11 475.921 1351.42H476.411C478.671 1351.42 480.848 1350.57 482.511 1349.04C489.501 1341.95 494.5 1333.15 497.001 1323.51C500.941 1309.14 501.251 1286.2 480.341 1258.51C479.133 1256.91 477.426 1255.76 475.491 1255.24C474.491 1254.96 450.001 1248.54 410.261 1248.54L410.331 1248.55Z" fill="#17091D"/>
<path id="Vector_43" d="M405.33 1346.17C327.39 1358.58 268 1394.82 243 1412.32C237.878 1415.93 231.697 1417.74 225.434 1417.45C219.171 1417.16 213.185 1414.79 208.42 1410.71C192.92 1397.32 179.7 1374.44 177.6 1353.62C177.001 1347.67 178.072 1341.66 180.693 1336.28C183.314 1330.9 187.382 1326.36 192.44 1323.16C257.6 1282.05 319.3 1265.52 368.17 1259.97C366.45 1260.59 311.08 1280.25 281.54 1296.25C251.54 1312.5 261.24 1360.59 281.54 1360.81C299 1361 422 1344 422 1344L405.33 1346.17Z" fill="#9C398C"/>
</g>
<path id="Vector_44" d="M835.42 1524.42C816.57 1524.42 795.61 1522.7 771.33 1520.72C755.76 1519.44 739.66 1518.13 721.95 1517.07C710.14 1516.36 699.22 1515.87 688.56 1515.56C597.29 1512.86 579.79 1468.23 562.87 1425.08C557.64 1411.73 552.23 1397.93 544.63 1385.82C526.63 1357.15 519.8 1253.73 517.25 1172.02C514.38 1080.1 516.07 984.841 519.46 953.541C525.72 895.721 491.08 789.471 490.73 788.411C490.43 787.505 490.43 786.527 490.73 785.621C505.33 740.321 496.93 687.811 489.53 641.481C486.82 624.551 484.26 608.551 482.93 593.741C474.47 499.861 438.1 419.861 409.09 369.281C377.59 314.371 347.7 281.281 347.4 280.961C346.916 280.429 346.567 279.789 346.381 279.095C346.196 278.401 346.179 277.672 346.333 276.97C346.486 276.268 346.806 275.613 347.265 275.06C347.724 274.507 348.308 274.072 348.97 273.791L546.69 189.791C546.951 189.679 547.222 189.592 547.5 189.531L620.64 173.721C620.968 173.649 621.304 173.615 621.64 173.621C622.442 173.619 623.229 173.833 623.92 174.241L743.52 244.591L990.11 272.211L1054.48 192.601C1054.9 192.079 1055.43 191.657 1056.04 191.368C1056.65 191.079 1057.31 190.93 1057.98 190.931C1058.53 190.932 1059.08 191.034 1059.6 191.231L1334.47 297.231C1335.3 297.55 1336.01 298.106 1336.52 298.83C1337.04 299.555 1337.32 300.414 1337.35 301.301C1337.35 301.901 1339.09 362.181 1342.22 438.661C1343.87 479.051 1341.02 523.201 1338.51 562.161C1336.19 598.001 1334.01 631.851 1335.78 656.031C1337.59 680.741 1326.58 722.881 1313.78 771.671C1300 824.481 1284.36 884.281 1283.66 930.001C1282.79 986.001 1283.17 1046.68 1283.48 1095.44C1283.64 1121.86 1283.78 1144.68 1283.66 1159.38C1283.5 1177.98 1296 1222.79 1308.09 1266.13C1322.84 1319 1336.77 1368.95 1334.09 1388.71C1331.09 1410.65 1285.79 1434.71 1248.35 1450.94C1206.95 1468.94 1160.35 1483.57 1142.2 1484.25H1141.73C1131.46 1484.25 1112.53 1473.18 1066.85 1377.45C1048.85 1339.8 1032.96 1301.79 1025.57 1283.75C1010.57 1323.75 958.05 1459.22 919.57 1496.9C899.87 1516.19 874.71 1524.42 835.42 1524.42Z" fill="#CE44A2"/>
<path id="Vector_45" d="M621.58 178.16L742 249L992 277L1057.92 195.47L1332.79 301.47C1332.79 301.47 1334.5 361.47 1337.66 438.88C1340.82 516.29 1327.5 605.49 1331.23 656.4C1334.96 707.31 1280.5 842.49 1279.16 929.93C1277.82 1017.37 1279.5 1118.49 1279.16 1159.34C1278.82 1200.19 1334.5 1352.49 1329.59 1388.1C1324.68 1423.71 1175.5 1478.49 1141.99 1479.75H1141.69C1107.97 1479.75 1025.34 1271.28 1025.34 1271.28C1025.34 1271.28 960.5 1450.5 916.4 1493.7C895.48 1514.18 869.46 1519.92 835.4 1519.92C804.84 1519.92 767.81 1515.3 722.2 1512.58C711.51 1511.94 700.34 1511.4 688.67 1511.06C571.86 1507.61 580.48 1434.5 548.42 1383.43C516.36 1332.36 517.5 1013.5 523.93 954C530.36 894.5 495 787 495 787C515.27 724.12 492.42 649 487.4 593.34C470.86 409.84 350.72 277.93 350.72 277.93L548.44 193.93L621.58 178.12M621.58 169.12C620.942 169.122 620.305 169.189 619.68 169.32L546.54 185.13C545.984 185.247 545.441 185.422 544.92 185.65L347.2 269.65C345.876 270.212 344.707 271.084 343.789 272.192C342.871 273.299 342.232 274.611 341.925 276.016C341.619 277.421 341.654 278.88 342.027 280.269C342.4 281.658 343.101 282.938 344.07 284C344.36 284.32 374.07 317.2 405.3 371.75C434.04 421.9 470.06 501.19 478.44 594.16C479.79 609.16 482.35 625.16 485.07 642.16C492.4 687.99 500.7 739.94 486.43 784.16C485.845 785.971 485.845 787.919 486.43 789.73C486.78 790.79 521.12 896.13 514.96 952.97C511.56 984.43 509.85 1079.97 512.73 1172.08C514.37 1224.41 517.22 1268.82 521.21 1304.08C526.13 1347.48 532.53 1374.97 540.8 1388.14C548.17 1399.89 553.27 1412.88 558.66 1426.64C567.23 1448.49 576.09 1471.08 594.84 1488.72C605.07 1498.35 617.16 1505.53 631.78 1510.72C647.72 1516.33 666.24 1519.37 688.4 1520.03C698.99 1520.33 709.86 1520.83 721.66 1521.53C739.32 1522.59 755.4 1523.9 770.95 1525.17C795.32 1527.17 816.37 1528.89 835.4 1528.89C864.02 1528.89 896.77 1525.47 922.68 1500.1C958.83 1464.69 1006.78 1345.5 1025.68 1295.97C1034.07 1316.13 1047.68 1347.88 1062.68 1379.38C1077.28 1409.97 1090.38 1434.38 1101.68 1452.01C1117.91 1477.41 1130.24 1488.74 1141.68 1488.74H1142.32C1160.92 1488.04 1208.26 1473.25 1250.09 1455.06C1273.44 1444.91 1293.43 1434.43 1307.91 1424.75C1326.91 1412.01 1336.91 1400.43 1338.5 1389.33C1341.35 1368.64 1327.3 1318.26 1312.42 1264.92C1300.42 1221.92 1288 1177.38 1288.15 1159.42C1288.27 1144.69 1288.15 1121.85 1287.97 1095.42C1287.66 1046.69 1287.28 986.03 1288.15 930.08C1288.84 884.9 1304.39 825.38 1318.15 772.86C1331 723.68 1342.15 681.21 1340.24 655.75C1338.49 631.88 1340.66 598.18 1342.97 562.5C1345.49 523.43 1348.35 479.15 1346.68 438.5C1343.56 362.06 1341.83 301.8 1341.82 301.2C1341.77 299.427 1341.2 297.708 1340.17 296.259C1339.15 294.811 1337.72 293.698 1336.06 293.06L1061.19 187.06C1060.16 186.666 1059.06 186.462 1057.95 186.46C1056.61 186.46 1055.28 186.759 1054.07 187.337C1052.86 187.915 1051.79 188.757 1050.95 189.8L988.13 267.5L744.91 240.27L626.14 170.4C624.758 169.588 623.184 169.16 621.58 169.16V169.12Z" fill="#17091D"/>
<path id="Vector_46" d="M1074.94 884.69C1077.99 886.046 1080.72 888.051 1082.92 890.565C1085.12 893.08 1086.74 896.044 1087.68 899.25C1089.8 906.36 1089.34 913.99 1086.37 920.79C1084.92 924.241 1082.89 927.42 1080.37 930.19C1077.94 932.86 1075.04 935.06 1071.81 936.68C1068.76 938.222 1065.43 939.114 1062.02 939.3C1058.76 939.474 1055.5 938.903 1052.49 937.63C1049.44 936.275 1046.71 934.271 1044.51 931.756C1042.31 929.242 1040.68 926.278 1039.74 923.07C1037.62 915.964 1038.08 908.337 1041.05 901.54C1042.5 898.09 1044.53 894.914 1047.05 892.15C1049.48 889.474 1052.38 887.268 1055.61 885.64C1058.66 884.104 1061.99 883.215 1065.4 883.03C1068.67 882.858 1071.93 883.425 1074.94 884.69ZM1068.66 933.75C1088.44 924.01 1090.66 897.3 1071.44 886.1C1070.24 885.406 1068.87 885.041 1067.48 885.041C1066.09 885.041 1064.72 885.406 1063.52 886.1C1050.27 893.73 1033.05 909.49 1047.1 924.92C1053.77 932.22 1059.52 935.603 1064.36 935.07C1065.86 934.888 1067.32 934.441 1068.66 933.75Z" fill="#17091D"/>
<path id="Vector_47" d="M1064.36 935C1059.49 935.527 1053.74 932.144 1047.1 924.85C1033.1 909.42 1050.27 893.66 1063.52 886.03C1064.72 885.336 1066.09 884.971 1067.48 884.971C1068.87 884.971 1070.23 885.336 1071.44 886.03C1090.7 897.23 1088.44 923.94 1068.66 933.68C1067.32 934.371 1065.86 934.818 1064.36 935Z" fill="#CE44A2"/>
<path id="Vector_48" d="M1095.16 1139.24C1095.17 1145.54 1092.99 1151.66 1088.99 1156.53C1085 1161.41 1079.44 1164.75 1073.25 1165.99C1067.07 1167.22 1060.65 1166.28 1055.09 1163.31C1049.53 1160.35 1045.16 1155.54 1042.74 1149.72C1040.33 1143.9 1040 1137.42 1041.83 1131.38C1043.65 1125.35 1047.51 1120.13 1052.75 1116.62C1057.99 1113.12 1064.28 1111.53 1070.55 1112.15C1076.83 1112.76 1082.7 1115.53 1087.16 1119.98C1089.7 1122.51 1091.71 1125.51 1093.08 1128.81C1094.45 1132.12 1095.16 1135.66 1095.16 1139.24ZM1090.83 1138.24C1090.64 1135.6 1089.88 1133.02 1088.58 1130.71C1087.22 1128.31 1085.38 1126.21 1083.18 1124.55C1080.86 1122.8 1078.24 1121.49 1075.44 1120.7C1072.56 1119.86 1069.55 1119.52 1066.55 1119.7C1060.6 1120.03 1054.97 1122.48 1050.67 1126.6C1048.71 1128.46 1047.17 1130.73 1046.17 1133.24C1045.16 1135.76 1044.71 1138.46 1044.85 1141.16C1045.03 1143.81 1045.79 1146.39 1047.09 1148.7C1048.45 1151.1 1050.29 1153.19 1052.49 1154.85C1054.81 1156.6 1057.43 1157.91 1060.23 1158.7C1063.12 1159.54 1066.13 1159.88 1069.13 1159.7C1075.08 1159.37 1080.71 1156.92 1085 1152.79C1086.96 1150.93 1088.5 1148.66 1089.5 1146.15C1090.51 1143.64 1090.96 1140.94 1090.83 1138.24Z" fill="#17091D"/>
<path id="Vector_49" d="M1069.13 1159.71C1081.83 1158.89 1091.54 1149.28 1090.83 1138.24C1090.12 1127.2 1079.24 1118.93 1066.55 1119.75C1053.86 1120.57 1044.14 1130.18 1044.85 1141.21C1045.56 1152.24 1056.43 1160.52 1069.13 1159.71Z" fill="#CE44A2"/>
<path id="Vector_50" d="M1078 758.24C1078 762.897 1076.39 767.411 1073.44 771.012C1070.48 774.614 1066.37 777.08 1061.8 777.99C1057.24 778.9 1052.5 778.199 1048.39 776.005C1044.28 773.811 1041.06 770.26 1039.28 765.958C1037.49 761.656 1037.25 756.868 1038.61 752.411C1039.96 747.954 1042.81 744.103 1046.68 741.514C1050.55 738.926 1055.2 737.759 1059.84 738.215C1064.47 738.67 1068.81 740.718 1072.1 744.01C1073.97 745.877 1075.46 748.095 1076.47 750.537C1077.48 752.979 1078 755.597 1078 758.24ZM1074.8 757.5C1074.67 755.546 1074.1 753.647 1073.14 751.94C1072.13 750.165 1070.77 748.616 1069.14 747.39C1067.43 746.095 1065.49 745.132 1063.42 744.55C1061.29 743.938 1059.06 743.698 1056.85 743.84C1052.46 744.084 1048.3 745.893 1045.13 748.94C1043.68 750.316 1042.54 751.991 1041.8 753.848C1041.06 755.706 1040.73 757.702 1040.83 759.7C1040.96 761.655 1041.53 763.555 1042.49 765.26C1043.5 767.035 1044.86 768.584 1046.49 769.81C1048.2 771.103 1050.14 772.066 1052.2 772.65C1054.33 773.262 1056.56 773.502 1058.77 773.36C1063.16 773.114 1067.32 771.305 1070.5 768.26C1071.95 766.884 1073.09 765.21 1073.84 763.353C1074.59 761.497 1074.93 759.5 1074.84 757.5H1074.8Z" fill="#17091D"/>
<path id="Vector_51" d="M1058.81 773.36C1068.19 772.75 1075.37 765.65 1074.81 757.5C1074.25 749.35 1066.25 743.24 1056.87 743.84C1047.49 744.44 1040.32 751.55 1040.87 759.7C1041.42 767.85 1049.44 774 1058.81 773.36Z" fill="#CE44A2"/>
<path id="Vector_52" d="M1026.5 1274.5C1007.74 1170.86 980.12 855.36 1002.5 735.5" stroke="#17091D" stroke-width="7" stroke-linecap="round" stroke-linejoin="round"/>
<path id="Vector_53" d="M1302 1244.88L1262.46 1266.5C1195.08 1198.21 1229.73 986.5 1229.73 986.5L1285 1005" stroke="#17091D" stroke-width="7" stroke-linecap="round" stroke-linejoin="round"/>
<path id="Vector_54" d="M722.22 1512.58C711.53 1511.94 700.36 1511.4 688.69 1511.06C571.88 1507.61 580.5 1434.5 548.44 1383.43C516.38 1332.36 517.5 1013.5 523.93 954C530.36 894.5 488 786 488 786C508.27 723.12 492.42 649 487.4 593.34L483 557C483 557 517.15 673.5 544.83 735.5C572.51 797.5 606.93 905.29 579.22 968.9C551.51 1032.51 538.89 1102.4 560.69 1173.45C582.49 1244.5 603.32 1280.32 636.41 1320.45C667.05 1357.53 720.22 1439.17 722.22 1512.58Z" fill="#9C398C"/>
<path id="Vector_55" d="M539.5 1357.5C539.5 1357.5 599.5 1312.75 641.5 1263.5C714 1178.49 753.26 1030 753.26 1030L703.6 1007.53C703.6 1007.53 601.25 1241 527.5 1290.5" stroke="#17091D" stroke-width="7" stroke-linecap="round" stroke-linejoin="round"/>
<g id="collar front">
<path id="Vector_56" d="M1060.27 650.31H1059.82L1002.55 644.5C1001.92 644.437 1001.31 644.242 1000.77 643.929C1000.22 643.615 999.743 643.19 999.37 642.68L795 363.51L706.46 317.78C705.856 317.468 705.33 317.023 704.922 316.478C704.515 315.934 704.236 315.303 704.107 314.635C703.978 313.967 704.002 313.279 704.178 312.622C704.353 311.964 704.675 311.355 705.12 310.84L778.38 226C778.803 225.511 779.327 225.118 779.915 224.849C780.504 224.58 781.143 224.441 781.79 224.44H782.15L893.51 233.56C900.25 232.97 995.51 224.39 1039.02 209.24C1044.21 207.421 1049.67 206.488 1055.17 206.48C1096.61 206.48 1128.23 258.8 1129.56 261.03C1129.94 261.671 1130.15 262.396 1130.18 263.14L1138.8 468.31C1138.83 468.969 1138.71 469.625 1138.45 470.23L1064.45 647.531C1064.11 648.358 1063.53 649.064 1062.78 649.559C1062.04 650.055 1061.16 650.316 1060.27 650.31Z" fill="#FBDAFA"/>
<path id="Vector_57" d="M1055.17 211C1094.53 211 1125.69 263.35 1125.69 263.35L1134.3 468.52L1060.3 645.82L1003 640L798 360L708.52 313.78L781.79 228.93L893.52 238.09C893.52 238.09 994.52 229.5 1040.52 213.5C1045.23 211.845 1050.19 210.997 1055.19 210.99M1055.19 201.99C1049.19 201.998 1043.23 203.012 1037.56 204.99C995.17 219.73 902.73 228.23 893.56 229.05L782.56 219.95C782.32 219.95 782.07 219.95 781.83 219.95C780.536 219.949 779.257 220.228 778.08 220.766C776.903 221.304 775.856 222.09 775.01 223.07L701.7 307.9C700.811 308.931 700.167 310.149 699.817 311.464C699.467 312.779 699.419 314.157 699.678 315.493C699.937 316.829 700.496 318.089 701.312 319.178C702.128 320.267 703.181 321.157 704.39 321.78L792 367L995.75 645.3C996.496 646.316 997.446 647.164 998.54 647.789C999.634 648.415 1000.85 648.803 1002.1 648.93L1059.37 654.74C1059.68 654.74 1059.98 654.74 1060.28 654.74C1062.06 654.741 1063.79 654.217 1065.27 653.233C1066.75 652.249 1067.91 650.849 1068.59 649.21L1142.59 471.91C1143.09 470.692 1143.33 469.378 1143.27 468.06L1134.68 263C1134.62 261.51 1134.19 260.059 1133.42 258.78C1132.04 256.46 1099.14 202.03 1055.17 202.03L1055.19 201.99Z" fill="#17091D"/>
<g id="tie">
<path id="Vector_58" d="M1042.87 304.89L1103.13 279.94L1051.6 203.19L981.6 225.19C981.6 225.19 947.2 239.45 887.85 236C828.5 232.55 813.43 249.32 813.43 249.32L805.5 298.52C805.5 298.52 822.28 326.52 905.39 330C988.5 333.48 1042.87 304.89 1042.87 304.89Z" fill="#5C2C66" stroke="#17091D" stroke-width="9" stroke-miterlimit="10"/>
<path id="Vector_59" d="M938.89 383.891C935.278 383.894 931.712 383.086 928.453 381.529C925.195 379.971 922.327 377.703 920.06 374.891L884.36 329.741C877.48 321.251 881.54 308.141 887.11 299.501L887.23 299.331L917.17 257.421C917.75 256.511 918.61 254.981 919.61 253.211C925.9 242.081 931.19 233.481 937.17 232.501L982.49 225.131L1016.12 259.811C1019.3 262.991 1025.74 274.251 1030.37 283.361C1040.82 303.941 1039.72 307.531 1039.2 309.261L1039.14 309.441L1018 362.381C1016.57 366.998 1013.78 371.079 1010.01 374.095C1006.23 377.11 1001.63 378.92 996.81 379.291L940.9 383.811C940.25 383.871 939.59 383.891 938.9 383.891H938.89Z" fill="#7E4282"/>
<path id="Vector_60" d="M980.89 230.001L1012.89 263.001C1017.89 268.001 1036.46 302.871 1034.89 308.001L1013.71 360.901C1012.55 364.685 1010.28 368.033 1007.19 370.511C1004.1 372.99 1000.35 374.484 996.4 374.801L940.49 379.331C939.96 379.331 939.42 379.391 938.89 379.391C935.95 379.391 933.047 378.735 930.393 377.47C927.739 376.205 925.401 374.364 923.55 372.081L887.89 327.001C882.51 320.371 886.25 309.191 890.89 302.001L920.89 260.001C923.89 255.311 932.38 237.911 937.89 237.001L980.89 230.001ZM984.08 220.371L979.45 221.121L936.45 228.121C928.45 229.421 922.82 238.451 915.69 251.061C914.8 252.641 913.95 254.141 913.43 254.971L883.57 296.771L883.45 296.951L883.33 297.121C876.95 307.011 872.48 322.231 880.86 332.621L916.49 377.701V377.751C919.18 381.077 922.581 383.759 926.444 385.598C930.306 387.438 934.532 388.388 938.81 388.381C939.58 388.381 940.37 388.381 941.13 388.291L997.05 383.761C1002.73 383.324 1008.16 381.198 1012.62 377.655C1017.09 374.113 1020.39 369.316 1022.11 363.881L1043.17 311.311L1043.31 310.961L1043.42 310.591C1044.49 307.081 1043.86 303.181 1041.11 296.181C1039.11 291.001 1036.28 285.251 1034.3 281.341C1033.3 279.341 1024.3 261.801 1019.24 256.671L987.24 223.671L983.97 220.301L984.08 220.371Z" fill="#17091D"/>
<path id="Vector_61" d="M930.11 380.171L911.5 565.501L1002.5 645.501L1018.5 648.501L1082.5 562.501L1009.79 373.721L930.11 380.171Z" fill="#7E4282" stroke="#17091D" stroke-width="9" stroke-miterlimit="10"/>
</g>
<path id="Vector_62" d="M1114.34 356.2C1113.7 356.203 1113.06 356.063 1112.48 355.79C1111.8 355.482 1111.21 355.011 1110.75 354.417C1110.3 353.824 1110.01 353.127 1109.89 352.39L1098.18 276.79C1098.04 275.871 1098.19 274.933 1098.6 274.1L1136 198.51C1136.36 197.781 1136.91 197.162 1137.59 196.72C1138.28 196.278 1139.07 196.03 1139.88 196H1140.04C1140.82 196 1141.59 196.205 1142.27 196.594C1142.95 196.984 1143.52 197.544 1143.92 198.22L1201.92 296.72C1202.51 297.728 1202.69 298.928 1202.41 300.065C1202.14 301.202 1201.43 302.186 1200.44 302.81L1116.78 355.51C1116.05 355.97 1115.2 356.209 1114.34 356.2Z" fill="#9C398C"/>
<path id="Vector_63" d="M1140.05 200.5L1198.05 299L1114.39 351.7L1102.68 276.1L1140.1 200.5M1140.1 191.5H1139.77C1138.15 191.559 1136.57 192.054 1135.21 192.935C1133.85 193.815 1132.75 195.047 1132.03 196.5L1094.61 272.1C1093.79 273.763 1093.5 275.638 1093.79 277.47L1105.5 353.07C1105.83 355.192 1106.91 357.126 1108.54 358.524C1110.17 359.921 1112.24 360.689 1114.39 360.69C1116.09 360.687 1117.75 360.209 1119.19 359.31L1202.85 306.6C1204.83 305.36 1206.26 303.395 1206.82 301.123C1207.38 298.851 1207.03 296.451 1205.85 294.43L1147.85 195.93C1147.06 194.58 1145.92 193.46 1144.56 192.681C1143.21 191.902 1141.67 191.492 1140.1 191.49V191.5Z" fill="#17091D"/>
<path id="Vector_64" d="M708.52 390.17C706.04 390.17 705.19 388.9 703.15 385.82C702.15 384.29 700.65 382.04 698.79 379.17C695.26 373.76 690.12 365.8 683.51 355.53C672.37 338.22 656.9 314.1 637.51 283.83C604.51 232.29 571.17 180.07 570.84 179.55C570.457 178.953 570.221 178.274 570.151 177.568C570.081 176.862 570.179 176.149 570.438 175.489C570.696 174.828 571.108 174.239 571.638 173.768C572.169 173.297 572.803 172.958 573.49 172.78L586.83 169.3L603.59 164.92C604.301 164.739 605.046 164.735 605.759 164.909C606.473 165.084 607.132 165.431 607.68 165.92L818.13 348.93C818.739 349.456 819.195 350.137 819.452 350.9C819.708 351.663 819.754 352.481 819.585 353.268C819.416 354.056 819.039 354.783 818.493 355.374C817.946 355.966 817.251 356.399 816.48 356.63C777 368.54 717 386.89 711 389.43C710.263 389.914 709.401 390.171 708.52 390.17Z" fill="#9C398C"/>
<path id="Vector_65" d="M604.74 169.271L804.74 343.21L815.21 352.321C815.21 352.321 708.5 384.501 708.52 385.671C707.8 385.671 574.64 177.131 574.64 177.131L588 173.65L604.76 169.271M604.76 160.271C603.991 160.273 603.225 160.371 602.48 160.561L585.72 164.941L572.39 168.421C571.01 168.774 569.734 169.45 568.666 170.393C567.598 171.336 566.77 172.52 566.248 173.845C565.727 175.171 565.528 176.602 565.667 178.019C565.807 179.437 566.281 180.802 567.05 182.001C567.39 182.521 600.73 234.741 633.73 286.291C653.11 316.561 668.59 340.69 679.73 357.99C686.35 368.27 691.49 376.23 695.01 381.65C696.92 384.58 698.39 386.831 699.4 388.34C701.57 391.611 703.63 394.701 708.52 394.701C710.096 394.701 711.644 394.287 713.01 393.501C720.54 390.501 780.74 372.141 817.78 360.971C819.321 360.506 820.71 359.637 821.801 358.454C822.893 357.271 823.647 355.817 823.985 354.243C824.323 352.669 824.232 351.033 823.723 349.506C823.214 347.979 822.305 346.617 821.09 345.561L810.62 336.451L610.62 162.51C608.981 161.085 606.882 160.3 604.71 160.301L604.76 160.271Z" fill="#17091D"/>
<path id="Vector_66" d="M1016.65 681.71C1015.7 681.709 1014.78 681.412 1014.01 680.86L719 467.58C718.048 466.888 717.404 465.851 717.206 464.691C717.008 463.531 717.271 462.339 717.94 461.37L795.6 349.14C796.002 348.558 796.536 348.079 797.158 347.742C797.78 347.405 798.473 347.219 799.18 347.2H799.3C799.986 347.201 800.664 347.358 801.281 347.659C801.898 347.961 802.438 348.399 802.86 348.94L806.23 353.29L1029.87 642.29C1030.3 642.85 1030.6 643.505 1030.73 644.2C1030.86 644.895 1030.82 645.612 1030.62 646.29L1024 668.49L1021 678.49C1020.72 679.414 1020.15 680.223 1019.37 680.799C1018.6 681.375 1017.66 681.687 1016.69 681.69L1016.65 681.71Z" fill="#CE44A2"/>
<path id="Vector_67" d="M799.3 351.7L802.67 356.05L1026.31 645.05L1019.66 667.21L1016.66 677.21L721.66 463.93L799.3 351.7ZM799.3 342.7H799.06C797.645 342.739 796.26 343.11 795.016 343.784C793.772 344.458 792.704 345.416 791.9 346.58L714.28 458.81C712.942 460.746 712.415 463.13 712.813 465.45C713.211 467.769 714.503 469.841 716.41 471.22L1011.41 684.5C1012.94 685.614 1014.79 686.213 1016.68 686.21C1018.61 686.21 1020.5 685.587 1022.05 684.432C1023.6 683.278 1024.74 681.653 1025.3 679.8L1028.3 669.8L1034.95 647.64C1035.36 646.268 1035.44 644.817 1035.18 643.409C1034.92 642 1034.33 640.673 1033.45 639.54L809.81 350.54L806.44 346.19C805.598 345.103 804.519 344.224 803.285 343.619C802.051 343.014 800.694 342.7 799.32 342.7H799.3Z" fill="#17091D"/>
<path id="Vector_68" d="M1019.66 667.2L1016.66 677.2L721.66 463.92L799.3 351.7L802.67 356.05C791.67 373.87 752.6 441.38 780.15 463.93C807.7 486.48 973.78 628.08 1019.66 667.2Z" fill="#9C398C"/>
<path id="Vector_69" d="M1002.9 738.801C1002.22 738.801 1001.55 738.647 1000.94 738.351C1000.33 738.055 999.79 737.625 999.368 737.092C998.947 736.559 998.652 735.937 998.505 735.273C998.358 734.61 998.363 733.922 998.52 733.261L1000.27 725.871L1090 348.361L1100.33 303.871C1100.52 303.06 1100.92 302.317 1101.51 301.726C1102.09 301.134 1102.83 300.717 1103.64 300.521C1103.99 300.433 1104.35 300.389 1104.71 300.391C1105.36 300.391 1106 300.531 1106.59 300.802C1107.18 301.073 1107.7 301.468 1108.12 301.961L1205.79 415.591C1206.21 416.084 1206.51 416.66 1206.68 417.282C1206.86 417.903 1206.89 418.554 1206.79 419.191C1194.61 499.471 1014.08 727.431 1006.4 737.101C1005.98 737.628 1005.45 738.055 1004.84 738.349C1004.24 738.644 1003.57 738.798 1002.9 738.801Z" fill="#CE44A2"/>
<path id="Vector_70" d="M1104.69 304.89L1202.36 418.52C1190.22 498.52 1002.9 734.3 1002.9 734.3L1004.65 726.91L1094.36 349.4L1095.25 345.57L1104.69 304.89ZM1104.69 295.89C1103.96 295.888 1103.24 295.975 1102.54 296.15C1100.92 296.547 1099.45 297.385 1098.28 298.569C1097.11 299.754 1096.29 301.239 1095.92 302.86L1086.48 343.54L1085.59 347.36L995.889 724.83L994.139 732.23C993.64 734.235 993.847 736.351 994.724 738.222C995.6 740.093 997.094 741.606 998.955 742.505C1000.81 743.405 1002.93 743.637 1004.94 743.163C1006.95 742.688 1008.74 741.536 1010 739.9C1010.47 739.31 1057.55 679.95 1105.5 611.58C1170.5 518.94 1206.06 454.44 1211.31 419.87C1211.5 418.589 1211.41 417.281 1211.06 416.036C1210.7 414.79 1210.08 413.636 1209.24 412.65L1111.52 299C1110.67 298.017 1109.63 297.229 1108.45 296.688C1107.27 296.148 1105.99 295.869 1104.69 295.87V295.89Z" fill="#17091D"/>
<path id="Vector_71" d="M1202.36 418.521C1190.22 498.521 1002.9 734.301 1002.9 734.301L1004.65 726.911C1033.19 679.041 1085.42 591.831 1096.71 576.111C1112.42 554.211 1143 455.001 1139.54 423.681C1136.25 394.001 1099 350.001 1095.25 345.571L1104.69 304.891L1202.36 418.521Z" fill="#9C398C"/>
<g id="collar front_2">
<path id="Vector_72" d="M1094.94 349.71C1094.72 349.725 1094.5 349.725 1094.28 349.71C1093.51 349.596 1092.78 349.285 1092.17 348.807C1091.56 348.328 1091.08 347.699 1090.78 346.98L1036.34 215.27C1035.96 214.349 1035.9 213.329 1036.16 212.368C1036.42 211.408 1037 210.561 1037.79 209.96L1038.09 209.73C1038.82 209.14 1040.47 207.79 1042.67 205.73L1043.67 204.85C1043.78 204.73 1043.91 204.61 1044.04 204.49C1044.38 204.17 1044.72 203.85 1045.04 203.49C1045.86 202.68 1046.7 201.84 1047.56 200.94L1047.63 200.86C1047.86 200.63 1048.09 200.4 1048.32 200.15C1049.51 198.89 1050.67 197.6 1051.81 196.3C1052.95 195 1053.97 193.76 1054.94 192.54C1055.25 192.16 1055.51 191.82 1055.79 191.46C1056.07 191.1 1056.15 190.99 1056.32 190.77L1056.67 190.31C1056.93 189.97 1057.19 189.64 1057.43 189.31L1057.52 189.18C1057.76 188.87 1057.98 188.56 1058.21 188.25L1058.59 187.72L1059.12 186.96C1059.14 186.922 1059.17 186.885 1059.2 186.85C1059.46 186.48 1059.71 186.11 1059.96 185.73L1060.07 185.58C1060.32 185.22 1060.56 184.86 1060.79 184.48L1061.4 183.55L1061.79 182.93C1061.95 182.69 1062.1 182.44 1062.25 182.18L1062.42 181.91C1062.71 181.44 1062.96 181.03 1063.21 180.6C1063.46 180.17 1063.66 179.85 1063.86 179.48C1064.16 178.96 1064.44 178.48 1064.71 177.94L1064.78 177.83C1065.01 177.42 1065.23 177.01 1065.44 176.59C1065.44 176.557 1065.44 176.523 1065.44 176.49C1065.67 176.07 1065.89 175.65 1066.09 175.21L1066.15 175.09C1066.35 174.7 1066.54 174.31 1066.73 173.91L1066.97 173.42C1067.13 173.09 1067.3 172.72 1067.46 172.35C1067.62 171.98 1067.89 171.4 1068.08 170.94L1068.15 170.78C1068.34 170.35 1068.53 169.9 1068.7 169.46C1068.7 169.46 1068.7 169.39 1068.7 169.35C1069.12 168.35 1069.51 167.35 1069.87 166.27C1070.05 165.78 1070.19 165.38 1070.31 164.97V164.83C1070.62 163.93 1070.91 162.96 1071.19 161.95C1071.19 161.83 1071.27 161.67 1071.31 161.53C1071.43 161.13 1071.54 160.7 1071.64 160.27V160.13C1071.77 159.65 1071.89 159.13 1072 158.67C1072.11 158.21 1072.18 157.85 1072.25 157.47V157.34C1072.4 156.65 1072.53 155.96 1072.65 155.26C1072.71 154.86 1072.78 154.46 1072.84 154.05V153.83C1072.84 153.71 1072.84 153.59 1072.84 153.48C1072.9 153.16 1072.94 152.84 1072.97 152.48C1072.97 152.36 1073.05 151.75 1073.06 151.68C1073.12 151.26 1073.16 150.83 1073.19 150.4C1073.2 150.357 1073.2 150.313 1073.19 150.27C1073.19 149.8 1073.28 149.32 1073.29 148.85C1073.29 148.74 1073.29 148.64 1073.29 148.53C1073.29 148.03 1073.35 147.53 1073.36 147.03C1073.36 146.97 1073.36 146.69 1073.36 146.62C1073.49 140.86 1074.71 121.91 1085.27 114.82L1085.41 114.72C1087.85 113.098 1090.71 112.242 1093.64 112.26C1102.01 112.26 1111.35 118.75 1122.2 132.13C1136.38 149.61 1142.1 175.57 1138.72 207.2C1129.21 296.52 1106.72 335.57 1100.01 345.42C1098.88 347.09 1098.19 347.94 1098.11 348.03C1097.73 348.513 1097.25 348.912 1096.7 349.201C1096.16 349.49 1095.56 349.664 1094.94 349.71Z" fill="#CE44A2"/>
<path id="Vector_73" d="M1093.94 116.801C1100.09 116.801 1108.29 121.801 1119 135.001C1132.65 151.831 1137.75 176.741 1134.55 206.761C1125.1 295.501 1102.83 333.761 1096.55 342.931C1095.55 344.481 1094.9 345.211 1094.9 345.211L1092.81 340.211L1043.11 219.961L1042.37 218.171L1040.46 213.551L1040.57 213.471C1040.64 213.405 1040.72 213.345 1040.8 213.291C1041.5 212.721 1043.28 211.291 1045.7 209.041L1046.7 208.111L1047.02 207.801C1047.39 207.451 1047.77 207.091 1048.16 206.701C1048.98 205.901 1049.85 205.021 1050.75 204.081L1051.56 203.241C1052.71 202.021 1053.91 200.701 1055.14 199.291C1056.22 198.051 1057.32 196.741 1058.41 195.361C1058.71 194.991 1059 194.621 1059.3 194.231L1060.18 193.081C1060.48 192.691 1060.78 192.301 1061.06 191.901L1061.94 190.701C1062.23 190.291 1062.53 189.881 1062.81 189.461C1063.09 189.041 1063.39 188.631 1063.67 188.201C1063.95 187.771 1064.25 187.351 1064.53 186.911C1064.81 186.471 1065.18 185.911 1065.53 185.391C1065.88 184.871 1066 184.631 1066.23 184.251C1066.46 183.871 1066.78 183.351 1067.05 182.891C1067.32 182.431 1067.52 182.101 1067.75 181.691C1067.98 181.281 1068.35 180.621 1068.64 180.081C1068.93 179.541 1069.16 179.131 1069.41 178.641C1069.66 178.151 1069.92 177.641 1070.16 177.171C1070.4 176.701 1070.74 175.991 1071.03 175.391C1071.22 174.991 1071.41 174.581 1071.59 174.171C1071.77 173.761 1072.05 173.171 1072.26 172.641C1072.47 172.111 1072.71 171.641 1072.91 171.081C1073.36 169.987 1073.78 168.877 1074.17 167.751C1074.35 167.261 1074.52 166.751 1074.67 166.291C1075.02 165.291 1075.34 164.211 1075.67 163.161L1075.76 162.841C1075.91 162.331 1076.04 161.841 1076.16 161.301C1076.28 160.761 1076.45 160.181 1076.57 159.611C1076.69 159.041 1076.77 158.731 1076.85 158.291C1077.01 157.541 1077.15 156.791 1077.28 156.041C1077.36 155.571 1077.44 155.101 1077.5 154.621C1077.5 154.511 1077.5 154.401 1077.5 154.281C1077.57 153.871 1077.62 153.461 1077.67 153.041C1077.67 152.821 1077.67 152.601 1077.74 152.381C1077.81 151.871 1077.86 151.381 1077.9 150.831C1077.94 150.281 1078 149.671 1078.02 149.091C1078.03 149.054 1078.03 149.017 1078.02 148.981C1078.02 148.391 1078.09 147.801 1078.1 147.201C1078.1 147.041 1078.1 146.871 1078.1 146.711C1078.34 135.711 1081.23 123.101 1088.1 118.581C1089.8 117.446 1091.8 116.847 1093.85 116.861M1093.85 107.861C1090.04 107.843 1086.32 108.957 1083.15 111.061L1082.93 111.211C1070.93 119.301 1069.25 138.571 1069.07 146.521V146.661C1069.07 146.791 1069.07 146.921 1069.07 147.061C1069.07 147.421 1069.07 147.811 1069.02 148.281C1069.01 148.451 1069.01 148.621 1069.02 148.791C1069.02 149.161 1069.02 149.541 1068.94 149.911C1068.93 149.991 1068.93 150.071 1068.94 150.151C1068.94 150.561 1068.87 150.891 1068.83 151.151C1068.83 151.281 1068.83 151.421 1068.83 151.551V151.681C1068.83 151.811 1068.83 151.941 1068.83 152.071C1068.83 152.201 1068.83 152.531 1068.74 152.751L1068.68 153.141C1068.68 153.261 1068.68 153.381 1068.68 153.491C1068.68 153.841 1068.58 154.181 1068.52 154.491C1068.39 155.201 1068.28 155.811 1068.16 156.371C1068.15 156.461 1068.15 156.551 1068.16 156.641C1068.1 156.951 1068.03 157.251 1067.96 157.561C1067.96 157.561 1067.96 157.671 1067.96 157.711C1067.89 158.061 1067.8 158.451 1067.67 158.931C1067.67 159.031 1067.61 159.131 1067.59 159.231C1067.5 159.621 1067.41 159.961 1067.33 160.231C1067.33 160.351 1067.24 160.531 1067.19 160.711C1066.94 161.611 1066.67 162.491 1066.39 163.321L1066.3 163.591C1066.21 163.901 1066.08 164.261 1065.96 164.591L1065.9 164.751C1065.57 165.751 1065.21 166.661 1064.83 167.591C1064.83 167.651 1064.83 167.721 1064.75 167.791C1064.61 168.161 1064.45 168.541 1064.3 168.881L1064.15 169.211C1064.01 169.571 1063.83 169.971 1063.66 170.351C1063.63 170.394 1063.61 170.441 1063.59 170.491C1063.45 170.811 1063.3 171.131 1063.15 171.491L1062.93 171.941C1062.76 172.301 1062.59 172.661 1062.41 173.011C1062.36 173.091 1062.32 173.175 1062.29 173.261C1062.11 173.621 1061.93 173.981 1061.74 174.331C1061.74 174.401 1061.67 174.471 1061.63 174.531C1061.45 174.891 1061.26 175.261 1061.08 175.531L1060.95 175.761L1060.16 177.201C1059.96 177.561 1059.77 177.871 1059.57 178.201V178.271C1059.34 178.671 1059.11 179.051 1058.87 179.441L1058.81 179.531L1058.65 179.791L1058.26 180.431L1057.86 181.061L1057.32 181.891L1057.24 182.021C1057.05 182.311 1056.84 182.641 1056.65 182.911C1056.57 183.013 1056.5 183.12 1056.43 183.231C1056.21 183.561 1055.99 183.891 1055.76 184.231L1055.62 184.441C1055.47 184.671 1055.31 184.891 1055.15 185.111L1054.93 185.421L1054.17 186.421L1054 186.661C1053.8 186.951 1053.58 187.231 1053.36 187.511L1052.96 188.031C1052.81 188.221 1052.67 188.421 1052.52 188.601V188.661C1052.27 188.991 1052.02 189.301 1051.77 189.611L1051.7 189.701C1050.78 190.861 1049.8 192.031 1048.7 193.301C1047.6 194.571 1046.48 195.801 1045.36 196.991C1045.17 197.201 1044.97 197.401 1044.78 197.601C1044.73 197.642 1044.68 197.689 1044.64 197.741C1043.81 198.601 1043.01 199.411 1042.27 200.141L1042.18 200.221C1041.87 200.531 1041.57 200.821 1041.27 201.101C1041.14 201.221 1041 201.351 1040.88 201.481L1039.97 202.331C1037.97 204.181 1036.43 205.441 1035.7 206.031L1035.35 206.311C1033.8 207.525 1032.68 209.213 1032.17 211.118C1031.66 213.024 1031.79 215.043 1032.53 216.871L1034.44 221.491L1035.18 223.281L1084.88 343.531L1086.97 348.531C1087.56 349.968 1088.52 351.227 1089.75 352.184C1090.98 353.141 1092.43 353.763 1093.97 353.991C1094.41 354.058 1094.85 354.092 1095.3 354.091C1096.64 354.098 1097.96 353.808 1099.17 353.241C1100.38 352.673 1101.45 351.843 1102.3 350.811C1102.5 350.561 1103.3 349.621 1104.45 347.861C1111.27 337.801 1134.29 297.951 1143.91 207.591C1147.41 174.751 1141.36 147.651 1126.4 129.211C1114.65 114.721 1104.17 107.681 1094.4 107.681L1093.85 107.861Z" fill="#17091D"/>
<path id="Vector_74" d="M1134.55 206.761C1125.1 295.501 1102.83 333.761 1096.55 342.931L1095.35 340.161C1105.18 289.671 1119.17 201.601 1107.58 157.501C1103.76 143.338 1097.16 130.08 1088.15 118.501C1094.57 114.271 1104.48 117.121 1118.96 134.981C1132.65 151.831 1137.75 176.741 1134.55 206.761Z" fill="#9C398C"/>
<path id="Vector_75" d="M1087.47 128.48C1085.25 135.546 1083.73 142.81 1082.91 150.17C1082.44 154.545 1081.46 158.85 1080 163C1071 189 1065.94 205.52 1055.47 210.76C1051.47 212.76 1047.28 217.41 1043 220L1040.5 213.5L1040.61 213.42C1040.68 213.354 1040.76 213.294 1040.84 213.24C1041.54 212.67 1043.32 211.24 1045.74 208.99L1046.74 208.06L1047.06 207.75L1048.2 206.65C1049.02 205.85 1049.89 204.97 1050.79 204.03L1051.6 203.19C1052.75 201.97 1053.95 200.65 1055.18 199.24C1056.26 198 1057.35 196.69 1058.45 195.31C1058.75 194.94 1059.04 194.57 1059.34 194.18L1060.22 193.03C1060.51 192.64 1060.81 192.25 1061.1 191.85L1061.98 190.65L1062.85 189.41C1063.14 189 1063.43 188.57 1063.71 188.15L1064.57 186.86C1064.9 186.36 1065.22 185.86 1065.57 185.34C1065.92 184.82 1066.04 184.59 1066.27 184.2C1066.5 183.81 1066.82 183.3 1067.09 182.84C1067.36 182.38 1067.56 182.04 1067.79 181.64C1068.02 181.24 1068.39 180.57 1068.68 180.03C1068.97 179.49 1069.2 179.03 1069.45 178.59C1069.7 178.15 1069.96 177.59 1070.2 177.12C1070.44 176.65 1070.78 175.94 1071.07 175.34C1071.26 174.94 1071.44 174.53 1071.63 174.12C1071.82 173.71 1072.08 173.12 1072.3 172.59C1072.52 172.06 1072.74 171.59 1072.95 171.03C1073.4 169.937 1073.82 168.827 1074.21 167.7C1074.39 167.21 1074.55 166.7 1074.71 166.24C1075.05 165.24 1075.37 164.16 1075.71 163.11L1075.8 162.79C1075.94 162.28 1076.08 161.79 1076.2 161.25C1076.32 160.71 1076.48 160.12 1076.61 159.56C1076.74 159 1076.8 158.68 1076.89 158.24C1077.05 157.49 1077.19 156.74 1077.32 155.99C1077.4 155.52 1077.47 155.05 1077.54 154.57C1077.54 154.46 1077.54 154.35 1077.54 154.23C1077.6 153.82 1077.66 153.41 1077.71 152.99C1077.71 152.77 1077.71 152.55 1077.78 152.33C1077.84 151.82 1077.89 151.33 1077.94 150.78C1077.99 150.23 1078.03 149.62 1078.06 149.04C1078.07 149.004 1078.07 148.967 1078.06 148.93C1078.06 148.34 1078.12 147.75 1078.14 147.15C1078.14 146.99 1078.14 146.82 1078.14 146.66C1078.38 135.66 1081.27 123.05 1088.14 118.53C1089.54 120.05 1088.78 124.21 1087.47 128.48Z" fill="#D969BD"/>
<path id="Vector_76" d="M817.761 356.2C784.281 355.64 732.551 325.75 664.011 267.35C613.391 224.22 571.801 180.67 571.381 180.23C570.881 179.761 570.497 179.181 570.261 178.537C570.025 177.892 569.943 177.202 570.021 176.52C570.099 175.879 570.326 175.265 570.684 174.727C571.042 174.188 571.52 173.741 572.081 173.42C573.081 172.49 584.081 161.51 595.491 109.95C603.111 75.5404 615.751 60.5904 625.001 54.1004C628.381 51.7304 631.141 49.6004 632.861 48.2204C634.031 47.2904 635.121 46.4004 636.011 45.6304C636.846 44.9167 637.912 44.5295 639.011 44.5404C640.052 44.5272 641.065 44.8813 641.871 45.5404C642.685 46.2188 643.232 47.1637 643.415 48.2073C643.598 49.2508 643.405 50.3255 642.871 51.2404C642.691 51.5504 638.481 59.1904 643.041 73.0004C647.481 86.4504 661.301 108.14 701.921 135.1C797.801 198.74 894.061 233.48 895.021 233.82C895.666 234.049 896.249 234.422 896.728 234.911C897.206 235.399 897.567 235.991 897.782 236.64C897.997 237.289 898.061 237.979 897.969 238.657C897.877 239.334 897.631 239.982 897.251 240.55L821.581 354.2C821.171 354.816 820.614 355.321 819.962 355.67C819.309 356.019 818.581 356.201 817.841 356.2H817.761Z" fill="#CE44A2"/>
<path id="Vector_77" d="M639.001 49.0002C638.561 49.7602 618.391 85.0702 699.451 138.87C796.901 203.55 893.531 238.08 893.531 238.08L889.361 244.34L842.361 314.84L817.841 351.7C739.691 350.4 574.641 177.13 574.641 177.13C574.641 177.13 587.001 169 599.881 110.92C607.141 78.1502 618.811 63.9202 627.591 57.7902C630.901 55.4702 633.691 53.3302 635.681 51.7902C637.671 50.2502 638.851 49.1302 639.001 49.0002ZM639.001 40.0002C636.851 40.0004 634.772 40.7702 633.141 42.1702C632.671 42.5802 631.641 43.4502 630.141 44.6702C628.471 46.0002 625.791 48.0702 622.491 50.3802C608.081 60.4802 597.491 80.1802 591.161 108.93C580.311 157.93 570.061 169.1 569.161 169.93C568.164 170.702 567.341 171.674 566.744 172.784C566.147 173.893 565.79 175.116 565.696 176.373C565.602 177.629 565.773 178.892 566.197 180.078C566.622 181.265 567.29 182.349 568.161 183.26C568.581 183.69 610.341 227.41 661.161 270.7C730.511 329.79 783.161 360.04 817.751 360.62H817.901C819.382 360.621 820.84 360.257 822.147 359.559C823.453 358.861 824.568 357.852 825.391 356.62L849.941 319.77L896.941 249.27L901.111 243.01C901.87 241.872 902.359 240.576 902.542 239.221C902.726 237.865 902.597 236.486 902.167 235.187C901.737 233.888 901.017 232.705 900.061 231.726C899.105 230.748 897.939 230 896.651 229.54C895.651 229.2 799.851 194.54 704.521 131.31C665.871 105.66 652.351 85.3102 647.821 72.7102C643.451 60.5702 646.671 53.8702 646.921 53.3802C647.686 52.006 648.078 50.4552 648.058 48.8822C648.037 47.3093 647.605 45.7693 646.803 44.4156C646.002 43.0619 644.86 41.9419 643.491 41.1672C642.122 40.3924 640.574 39.9901 639.001 40.0002Z" fill="#17091D"/>
<path id="Vector_78" d="M842.391 314.85L817.841 351.7C739.691 350.4 574.641 177.13 574.641 177.13C574.641 177.13 587.001 169 599.881 110.92C607.141 78.15 618.811 63.92 627.591 57.79C623.591 80.52 622.591 113.68 637.001 151.36C657.811 205.8 785.111 282.53 842.391 314.85Z" fill="#9C398C"/>
<path id="Vector_79" d="M893.521 238.09L889.351 244.35C880.981 242.02 871.191 239.1 859.731 235.45C781.001 210.39 649.501 117.5 637.501 88.4998C630.501 71.6798 632.661 59.2298 635.681 51.7398C637.681 50.1598 638.851 49.1298 638.991 49.0098C638.551 49.7698 618.381 85.0798 699.441 138.88C796.891 203.56 893.521 238.09 893.521 238.09Z" fill="#D969BD"/>
</g>
</g>
</g>
</svg>
