<svg width="1000" height="1000" viewBox="0 0 1000 1000" fill="none" xmlns="http://www.w3.org/2000/svg">
<path d="M510.442 916.334C510.442 916.334 539.93 928.516 579.475 913.621C619.021 898.727 551.906 841.345 551.906 841.345C551.906 841.345 500.182 837.065 500 840.803C499.818 844.541 510.442 916.334 510.442 916.334Z" fill="#7E4282"/>
<path d="M508.149 837.811C513.079 837.685 519.606 837.872 526.09 838.174C532.583 838.476 539.068 838.895 543.926 839.238C546.356 839.41 548.381 839.563 549.798 839.673C550.507 839.728 551.065 839.772 551.445 839.803C551.635 839.818 551.781 839.83 551.879 839.838C551.928 839.842 551.966 839.844 551.991 839.846C552.003 839.847 552.013 839.849 552.019 839.849H552.029C552.029 839.85 552.028 839.861 551.913 841.259L552.03 839.85L552.512 839.889L552.88 840.205L551.906 841.345C552.825 840.27 552.878 840.209 552.881 840.206C552.882 840.206 552.883 840.207 552.884 840.208C552.887 840.21 552.89 840.213 552.894 840.217C552.903 840.224 552.916 840.235 552.933 840.25C552.966 840.279 553.016 840.321 553.08 840.377C553.208 840.488 553.396 840.653 553.64 840.867C554.128 841.296 554.836 841.924 555.721 842.729C557.492 844.339 559.975 846.654 562.83 849.477C568.531 855.117 575.747 862.818 581.731 871.012C587.677 879.155 592.571 888.001 593.343 895.898C593.734 899.895 593.076 903.718 590.902 907.057C588.733 910.389 585.159 913.084 580.004 915.025C559.984 922.566 542.49 923.258 529.986 922.056C523.735 921.456 518.73 920.381 515.278 919.453C513.551 918.989 512.212 918.561 511.298 918.247C510.841 918.09 510.49 917.961 510.25 917.87C510.131 917.824 510.039 917.788 509.975 917.762C509.943 917.75 509.918 917.74 509.901 917.733C509.892 917.73 509.885 917.727 509.879 917.724C509.877 917.723 509.875 917.722 509.873 917.721L509.871 917.72C509.872 917.715 509.904 917.636 510.442 916.334C509.054 916.539 508.964 916.552 508.958 916.553L508.957 916.551C508.957 916.548 508.957 916.545 508.956 916.541C508.955 916.532 508.953 916.519 508.951 916.502C508.946 916.467 508.937 916.415 508.927 916.347C508.907 916.211 508.878 916.009 508.839 915.746C508.762 915.219 508.646 914.446 508.501 913.461C508.211 911.49 507.797 908.67 507.3 905.275C506.307 898.485 504.984 889.392 503.667 880.182C502.351 870.974 501.039 861.644 500.068 854.381C499.582 850.75 499.181 847.629 498.907 845.297C498.77 844.131 498.663 843.155 498.593 842.406C498.528 841.701 498.484 841.09 498.501 840.73C498.559 839.552 499.575 839.014 500 838.824C500.564 838.572 501.277 838.401 502.034 838.274C503.573 838.015 505.694 837.874 508.149 837.811ZM525.951 841.171C519.482 840.87 513.044 840.687 508.225 840.81C505.805 840.872 503.855 841.01 502.531 841.232C502.091 841.306 501.762 841.385 501.527 841.456C501.54 841.645 501.556 841.869 501.581 842.129C501.647 842.842 501.75 843.791 501.886 844.946C502.158 847.255 502.557 850.358 503.041 853.983C504.011 861.232 505.322 870.551 506.638 879.758C507.954 888.963 509.276 898.053 510.269 904.841C510.765 908.235 511.18 911.053 511.47 913.023C511.609 913.968 511.72 914.718 511.797 915.242C511.938 915.292 512.097 915.349 512.274 915.41C513.127 915.703 514.401 916.111 516.057 916.556C519.369 917.447 524.209 918.487 530.273 919.07C542.399 920.236 559.422 919.571 578.947 912.218C583.679 910.435 586.657 908.078 588.387 905.421C590.112 902.772 590.698 899.667 590.358 896.19C589.668 889.139 585.198 880.847 579.309 872.782C573.458 864.769 566.365 857.195 560.719 851.61C557.9 848.821 555.449 846.536 553.704 844.949C552.831 844.156 552.135 843.538 551.659 843.119C551.517 842.995 551.395 842.888 551.293 842.8C551.265 842.797 551.235 842.795 551.205 842.793C550.827 842.762 550.273 842.719 549.567 842.664C548.155 842.554 546.137 842.401 543.715 842.23C538.87 841.888 532.411 841.471 525.951 841.171ZM509.87 917.72L509.082 917.395L508.958 916.553L510.442 916.334L509.87 917.72ZM501.498 840.878C501.497 840.881 501.498 840.881 501.498 840.885C501.498 840.882 501.498 840.879 501.498 840.876C501.498 840.878 501.498 840.875 501.498 840.878Z" fill="#17091D"/>
<path d="M687.92 986.098C683.244 986.098 677.925 983.887 672.783 981.734C671.029 981.007 669.375 980.316 667.817 979.749C665.361 978.854 663.617 978.44 662.323 978.44C662.109 978.439 661.896 978.453 661.684 978.48C661.058 978.568 660.426 978.613 659.794 978.614C656.186 978.614 652.855 977.116 650.882 974.614C650.078 973.613 649.517 972.44 649.242 971.186C648.967 969.932 648.986 968.631 649.298 967.385C649.327 967.276 649.348 967.167 649.37 967.051C650.424 961.563 653.868 945.233 655.769 939.134C656.444 936.953 655.452 933.916 654.402 930.694C653.069 926.593 651.55 921.942 653.418 917.967C653.527 917.738 653.636 917.523 653.748 917.305C656.859 911.353 665.931 899.825 667.947 897.305C667.849 894.996 667.548 886.593 667.813 877.691C668.456 856.142 671.719 852.709 672.794 851.582C673.189 851.133 673.672 850.772 674.214 850.522C674.756 850.271 675.344 850.137 675.941 850.127C679.327 850.127 688.658 846.971 696.124 844.433C701.211 842.702 706.054 841.065 709.059 840.36C710.487 840.019 711.95 839.844 713.419 839.84C717.415 839.84 720.634 841.2 723.229 842.291C725.14 843.098 726.789 843.796 728.268 843.796C728.779 843.799 729.287 843.708 729.765 843.527C730.032 843.43 730.313 843.379 730.597 843.378C732.959 843.378 734.049 846.487 734.957 851.16C735.633 854.647 736.251 859.487 736.774 865.545C737.588 874.683 737.98 883.927 738.06 885.909C740.127 889.673 756.227 919.803 754.047 941.473C753.389 948.04 751.089 953.243 747.212 956.942L746.969 957.167C745.214 958.785 743.437 960.327 741.679 961.76C737.44 965.259 732.879 968.348 728.057 970.985C718.378 976.189 711.936 976.749 709.615 976.749C709.101 976.753 708.587 976.721 708.078 976.651H707.954C707.779 976.656 707.605 976.685 707.438 976.738C706.265 977.076 704.626 978.236 702.715 979.578C699.528 981.833 695.561 984.64 690.725 985.793C689.805 986.002 688.864 986.105 687.92 986.098Z" fill="#CE44A2"/>
<path d="M713.415 841.472C719.98 841.472 724.151 845.425 728.253 845.425C728.959 845.431 729.66 845.308 730.321 845.061C730.404 845.03 730.493 845.014 730.582 845.014C734.942 845.014 736.447 886.374 736.447 886.374C736.447 886.374 754.66 918.919 752.433 941.327C751.859 947.036 749.963 952.083 746.097 955.77L745.864 955.989C744.086 957.625 742.351 959.13 740.658 960.505C736.502 963.943 732.027 966.975 727.294 969.559C718.916 974.065 712.695 975.13 709.625 975.13C709.193 975.134 708.76 975.107 708.332 975.047C708.211 975.029 708.09 975.021 707.968 975.021C707.641 975.025 707.315 975.075 707.002 975.17C703.369 976.214 697.882 982.421 690.358 984.207C689.562 984.389 688.747 984.478 687.931 984.472C682.026 984.472 674.444 980.447 668.383 978.239C666.094 977.403 664.023 976.832 662.334 976.832C662.045 976.831 661.756 976.85 661.469 976.887C660.917 976.965 660.359 977.004 659.801 977.003C654.108 977.003 649.686 972.836 650.892 967.789C650.925 967.654 650.958 967.516 650.983 967.363C652.142 961.334 655.518 945.469 657.334 939.643C659.151 933.818 651.946 924.981 654.904 918.679C654.998 918.479 655.096 918.279 655.202 918.079C658.599 911.578 669.611 897.847 669.611 897.847C669.611 897.847 667.366 851.767 675.948 851.767C681.899 851.767 701.839 843.734 709.44 841.949C710.749 841.636 712.091 841.478 713.437 841.476M713.437 838.203C711.846 838.209 710.261 838.397 708.713 838.763C705.632 839.49 700.774 841.134 695.633 842.879C688.65 845.247 679.091 848.49 675.973 848.49C675.155 848.498 674.347 848.676 673.601 849.013C672.856 849.351 672.188 849.84 671.642 850.45C669.597 852.603 666.806 857.759 666.214 877.639C665.963 886.039 666.214 893.81 666.323 896.759C663.718 900.054 655.343 910.803 652.331 916.559C652.222 916.77 652.11 916.999 651.968 917.261V917.283C649.828 921.847 651.448 926.825 652.88 931.214C653.806 934.054 654.762 936.985 654.239 938.661C652.32 944.818 648.854 961.243 647.8 966.741C647.8 966.741 647.8 966.763 647.8 966.774C647.8 966.847 647.771 966.919 647.753 966.996V967.021C647.383 968.507 647.361 970.058 647.689 971.554C648.017 973.049 648.685 974.449 649.643 975.643C651.924 978.552 655.736 980.265 659.838 980.265C660.548 980.264 661.257 980.214 661.96 980.116C662.096 980.099 662.233 980.09 662.37 980.09C663.46 980.09 665.066 980.487 667.304 981.301C668.827 981.858 670.465 982.538 672.202 983.261C677.492 985.443 682.964 987.73 687.967 987.73C689.037 987.734 690.104 987.612 691.146 987.367C696.305 986.145 700.415 983.236 703.721 980.898C705.349 979.745 707.031 978.552 707.939 978.294H707.998C708.55 978.366 709.108 978.4 709.665 978.396C712.11 978.396 718.876 977.818 728.878 972.439C733.793 969.754 738.442 966.606 742.761 963.039C744.542 961.585 746.344 960.029 748.117 958.392L748.139 958.37L748.393 958.134C752.557 954.159 755.024 948.614 755.721 941.65C756.702 931.832 754.224 919.258 748.364 904.258C745.853 897.834 742.969 891.563 739.727 885.476C739.618 882.865 739.222 874.087 738.449 865.403C737.907 859.29 737.279 854.392 736.592 850.858C736.279 849.054 735.8 847.282 735.16 845.567C734.132 843.021 732.617 841.752 730.633 841.749C730.154 841.749 729.679 841.835 729.231 842.003C728.933 842.115 728.618 842.17 728.301 842.167C727.152 842.167 725.641 841.53 723.897 840.792C721.176 839.643 717.789 838.214 713.462 838.214L713.437 838.203Z" fill="#17091D"/>
<path d="M661.458 976.88C663.275 976.626 665.673 977.244 668.361 978.233C675.29 980.756 684.206 985.655 690.336 984.2C697.86 982.415 703.35 976.2 706.98 975.164C707.41 975.027 707.865 974.984 708.313 975.04C710.613 975.404 717.462 974.829 727.276 969.553C732.009 966.968 736.484 963.936 740.639 960.498C742.335 959.121 744.07 957.616 745.846 955.982L746.078 955.764C749.119 952.811 751.165 947.764 752.415 941.32C754.649 918.913 736.428 886.367 736.428 886.367C736.428 886.367 734.866 843.356 730.302 845.055C724.682 847.153 719.653 839.542 709.411 841.946C701.81 843.731 681.87 851.764 675.919 851.764C667.337 851.764 669.582 897.844 669.582 897.844C669.582 897.844 658.569 911.575 655.172 918.076C655.067 918.276 654.969 918.476 654.874 918.676C657.153 916.593 668.412 906.611 676.7 905.444C685.958 904.142 708.855 903.298 717.07 901.302C725.285 899.306 732.101 910.007 735.018 922.866C736.973 931.451 741.875 942.215 739.473 950.386C738.281 954.451 735.287 957.873 729.234 960.076C728.598 960.309 727.973 960.531 727.367 960.746C718.458 963.855 711.91 965.156 706.704 966.306C701.981 967.346 698.369 968.258 695.077 970.266C689.74 973.538 680.875 979.542 666.737 975.356C662.065 973.971 656.811 971.462 650.921 967.356C650.896 967.509 650.863 967.647 650.831 967.782C649.559 973.313 654.994 977.789 661.458 976.88Z" fill="#9C398C"/>
<path d="M662.403 941.851C662.813 941.131 663.728 940.879 664.448 941.288C671.228 945.144 675.049 950 677.172 953.926C678.231 955.884 678.865 957.606 679.236 958.852C679.422 959.474 679.542 959.979 679.617 960.336C679.655 960.514 679.681 960.656 679.698 960.757C679.707 960.807 679.713 960.847 679.718 960.877C679.72 960.892 679.722 960.904 679.724 960.914C679.724 960.919 679.725 960.922 679.726 960.926C679.726 960.927 679.725 960.929 679.726 960.931L679.727 960.933C679.727 960.933 679.712 960.937 678.24 961.138L679.727 960.935C679.838 961.755 679.264 962.511 678.443 962.623C677.623 962.735 676.866 962.161 676.754 961.34V961.339C676.754 961.337 676.753 961.335 676.753 961.333C676.751 961.32 676.748 961.297 676.742 961.264C676.731 961.198 676.711 961.093 676.682 960.952C676.622 960.67 676.522 960.247 676.361 959.709C676.04 958.633 675.481 957.105 674.533 955.353C672.642 951.856 669.197 947.439 662.966 943.895C662.246 943.486 661.994 942.571 662.403 941.851Z" fill="#17091D"/>
<path d="M670.277 949.11C670.799 948.467 671.743 948.368 672.387 948.889C673.03 949.411 673.128 950.353 672.608 950.997L672.609 950.998C672.608 950.998 672.607 951 672.605 951.003C672.601 951.008 672.594 951.017 672.584 951.029C672.564 951.054 672.533 951.094 672.492 951.147C672.41 951.255 672.286 951.42 672.131 951.637C671.82 952.07 671.382 952.712 670.888 953.526C669.896 955.16 668.689 957.469 667.81 960.179C666.055 965.589 665.641 972.45 670.679 978.874C671.19 979.526 671.076 980.469 670.424 980.98C669.772 981.491 668.83 981.377 668.318 980.725C662.457 973.251 663.014 965.24 664.956 959.253C665.926 956.264 667.248 953.741 668.323 951.97C668.862 951.082 669.343 950.376 669.692 949.888C669.867 949.645 670.009 949.455 670.109 949.324C670.16 949.258 670.199 949.208 670.228 949.172C670.242 949.154 670.254 949.14 670.262 949.13C670.266 949.125 670.269 949.12 670.272 949.117C670.273 949.116 670.274 949.114 670.275 949.113L670.276 949.111C670.28 949.113 670.336 949.158 671.427 950.042L670.277 949.11Z" fill="#17091D"/>
<path d="M701.288 947.864C702.053 947.548 702.93 947.911 703.247 948.677L701.861 949.25C703.241 948.679 703.247 948.676 703.248 948.677V948.678C703.248 948.679 703.248 948.68 703.249 948.682C703.25 948.684 703.252 948.688 703.253 948.692C703.257 948.702 703.263 948.715 703.27 948.732C703.284 948.767 703.305 948.818 703.332 948.884C703.385 949.016 703.462 949.21 703.558 949.458C703.751 949.954 704.023 950.67 704.342 951.56C704.98 953.337 705.808 955.813 706.572 958.605C708.076 964.104 709.416 971.136 708.288 976.442C708.115 977.253 707.319 977.77 706.508 977.598C705.698 977.425 705.181 976.629 705.353 975.818C706.317 971.285 705.177 964.876 703.678 959.396C702.94 956.698 702.137 954.298 701.518 952.573C701.209 951.711 700.947 951.019 700.762 950.545C700.67 950.308 700.597 950.125 700.547 950.003C700.523 949.942 700.505 949.896 700.493 949.866C700.487 949.852 700.482 949.84 700.479 949.833C700.478 949.83 700.476 949.827 700.475 949.825V949.823C700.159 949.058 700.522 948.181 701.288 947.864Z" fill="#17091D"/>
<path d="M724.055 949.211C724.825 948.906 725.697 949.285 726.001 950.055L724.606 950.606C726.001 950.055 726.001 950.056 726.001 950.056V950.057C726.001 950.058 726.003 950.059 726.003 950.06C726.004 950.063 726.005 950.067 726.007 950.071C726.011 950.08 726.016 950.093 726.023 950.11C726.035 950.143 726.054 950.191 726.077 950.254C726.124 950.378 726.192 950.559 726.276 950.789C726.442 951.249 726.674 951.909 726.935 952.718C727.456 954.333 728.1 956.557 728.585 958.976C729.068 961.385 729.405 964.048 729.279 966.522C729.155 968.969 728.567 971.439 726.995 973.248C726.452 973.873 725.504 973.939 724.879 973.396C724.254 972.853 724.187 971.906 724.731 971.281C725.666 970.204 726.174 968.524 726.283 966.369C726.392 964.241 726.102 961.85 725.644 959.566C725.188 957.292 724.577 955.184 724.079 953.639C723.831 952.869 723.612 952.242 723.455 951.811C723.377 951.596 723.315 951.429 723.273 951.318C723.252 951.263 723.235 951.221 723.225 951.194C723.219 951.18 723.215 951.17 723.213 951.164C723.212 951.161 723.212 951.159 723.211 951.158L723.21 951.157C722.906 950.386 723.284 949.515 724.055 949.211Z" fill="#17091D"/>
<path d="M738.769 948.705C739.528 948.374 740.412 948.722 740.743 949.482L739.368 950.08C740.743 949.481 740.743 949.482 740.744 949.483V949.484C740.744 949.484 740.745 949.485 740.745 949.486C740.746 949.489 740.748 949.492 740.749 949.495C740.752 949.502 740.756 949.512 740.761 949.524C740.771 949.547 740.785 949.58 740.802 949.622C740.837 949.706 740.885 949.826 740.943 949.978C741.059 950.28 741.217 950.712 741.386 951.241C741.723 952.296 742.117 953.766 742.329 955.396C742.741 958.558 742.523 962.855 739.14 965.57C738.494 966.089 737.55 965.985 737.032 965.339C736.513 964.693 736.617 963.749 737.263 963.231C739.366 961.542 739.732 958.679 739.355 955.782C739.173 954.383 738.83 953.097 738.529 952.155C738.379 951.687 738.241 951.31 738.142 951.053C738.093 950.925 738.054 950.826 738.028 950.763C738.015 950.731 738.005 950.708 737.999 950.694L737.992 950.678H737.993C737.663 949.919 738.01 949.036 738.769 948.705Z" fill="#17091D"/>
<path d="M690.75 969.817C693.359 969.817 695.474 965.177 695.474 959.453C695.474 953.73 693.359 949.09 690.75 949.09C688.142 949.09 686.027 953.73 686.027 959.453C686.027 965.177 688.142 969.817 690.75 969.817Z" fill="#D969BD"/>
<path d="M716.569 959.681C719.096 959.034 720.237 954.961 719.118 950.583C717.999 946.206 715.044 943.181 712.516 943.828C709.989 944.475 708.848 948.549 709.967 952.927C711.086 957.304 714.041 960.329 716.569 959.681Z" fill="#D969BD"/>
<path d="M732.668 952.194C734.851 951.635 735.988 948.706 735.207 945.651C734.426 942.597 732.023 940.573 729.84 941.132C727.657 941.691 726.52 944.621 727.301 947.676C728.082 950.73 730.485 952.753 732.668 952.194Z" fill="#D969BD"/>
<path d="M349.58 993.521C345.282 993.521 341.252 992.277 338.015 991.273C335.868 990.612 334.018 990.037 332.779 990.037H332.652C332.439 990.035 332.228 990.075 332.031 990.157C330.305 991.026 326.581 991.946 321.334 991.946C317.974 991.926 314.622 991.609 311.317 991.001H311.274C305.865 989.994 300.564 988.474 295.443 986.463C293.329 985.652 291.163 984.739 289.001 983.753L288.681 983.601C283.856 981.295 280.056 977.055 277.393 971.033C268.702 951.317 274.413 918.175 275.304 913.39C274.595 911.881 272.375 907.095 270.344 901.953C265.737 890.281 266.02 886.866 266.638 885.31C266.779 884.916 267.002 884.557 267.293 884.256C267.584 883.956 267.935 883.721 268.324 883.568C270.141 882.863 272.128 882.07 274.224 881.23C286.832 876.183 304.101 869.273 317.97 869.273C322.217 869.273 325.963 869.924 329.117 871.215C337.136 874.488 344.141 897.503 345.51 902.252C348.206 904.03 360.407 912.172 365.229 916.863C365.403 917.033 365.574 917.226 365.737 917.383C368.673 920.503 369.843 924.015 370.977 927.415C371.794 929.87 372.564 932.186 373.959 934.15C376.067 937.113 378.269 943.968 380.394 950.597C381.964 955.477 383.581 960.521 384.827 962.772L385.001 963.073C385.747 964.252 386.185 965.6 386.273 966.992C386.361 968.385 386.097 969.777 385.506 971.041C384.024 974.353 380.721 976.761 376.677 977.484C374.973 977.79 372.764 979.408 371.227 980.597C369.923 981.623 368.564 982.779 367.125 984.03C362.231 988.233 356.683 993.001 351.324 993.448C350.772 993.495 350.172 993.521 349.58 993.521Z" fill="#CE44A2"/>
<path d="M317.97 870.91C321.81 870.91 325.375 871.452 328.507 872.728C336.449 875.979 344.13 903.273 344.13 903.273C344.13 903.273 358.859 912.899 364.113 918.023C364.273 918.179 364.429 918.339 364.582 918.499C369.349 923.568 369.145 930.135 372.655 935.084C376.165 940.033 380.452 958.183 383.424 963.553C383.497 963.688 383.57 963.812 383.642 963.917C386.618 968.764 382.843 974.706 376.416 975.855C374.599 976.179 372.524 977.517 370.264 979.292C364.451 983.844 357.508 991.292 351.233 991.797C350.684 991.844 350.143 991.863 349.591 991.863C342.644 991.863 336.336 988.383 332.79 988.383H332.605C332.154 988.386 331.709 988.488 331.301 988.681C329.934 989.364 326.577 990.292 321.345 990.292C318.068 990.27 314.798 989.96 311.575 989.364C306.274 988.379 301.079 986.888 296.061 984.913C294.026 984.133 291.909 983.242 289.71 982.241L289.423 982.106C284.605 979.804 281.233 975.597 278.915 970.346C269.832 949.746 277.037 913.146 277.037 913.146C277.037 913.146 264.378 886.848 268.92 885.092C281.782 880.117 302.172 870.91 317.97 870.91ZM317.97 867.637C303.8 867.637 286.36 874.619 273.614 879.713C271.525 880.553 269.548 881.343 267.735 882.044C267.138 882.281 266.596 882.64 266.146 883.098C265.695 883.557 265.346 884.104 265.119 884.706C264.295 886.797 264.088 890.55 268.829 902.557C270.718 907.346 272.724 911.724 273.603 913.615C272.443 920.314 271.668 927.075 271.282 933.863C270.366 949.943 271.921 962.67 275.899 971.681C278.726 978.084 282.803 982.59 287.988 985.07L288.293 985.212H288.311C290.516 986.219 292.715 987.143 294.851 987.968C300.063 990.014 305.457 991.56 310.961 992.586H311.027C314.419 993.206 317.86 993.529 321.309 993.55C325.952 993.55 330.171 992.841 332.627 991.644H332.754C333.739 991.644 335.57 992.208 337.506 992.808C340.849 993.841 345.009 995.124 349.554 995.124C350.201 995.124 350.844 995.099 351.469 995.048C357.355 994.557 363.096 989.593 368.183 985.23C369.61 984.004 370.955 982.848 372.23 981.844C374.363 980.172 375.951 979.233 376.953 979.055C381.528 978.237 385.277 975.477 386.981 971.67C387.674 970.164 387.981 968.509 387.877 966.855C387.773 965.2 387.261 963.597 386.386 962.19V962.168C386.346 962.103 386.306 962.037 386.273 961.972V961.943C385.107 959.83 383.512 954.863 381.967 950.055C379.704 942.997 377.564 936.332 375.307 933.161C374.054 931.397 373.32 929.193 372.543 926.859C371.409 923.459 370.126 919.586 366.951 916.23C366.755 916.023 366.587 915.841 366.402 915.673C361.744 911.128 350.416 903.503 346.938 901.193C346.255 898.899 344.599 893.593 342.342 887.983C340.89 884.239 339.141 880.617 337.11 877.153C334.676 873.153 332.274 870.706 329.767 869.681C326.421 868.31 322.464 867.615 318.006 867.615L317.97 867.637Z" fill="#17091D"/>
<path d="M376.398 975.877C374.581 976.201 372.506 977.539 370.246 979.314C364.433 983.866 357.49 991.314 351.215 991.819C343.505 992.463 336.362 988.27 332.587 988.408C332.136 988.412 331.69 988.513 331.282 988.706C329.204 989.75 322.519 991.35 311.557 989.39C306.256 988.404 301.061 986.914 296.043 984.939C294.008 984.159 291.891 983.268 289.692 982.266L289.405 982.132C285.597 980.27 282.094 976.088 278.897 970.372C269.814 949.772 277.019 913.172 277.019 913.172C277.019 913.172 264.378 886.848 268.92 885.092C284.907 878.91 312.52 866.183 328.507 872.728C336.449 875.979 344.13 903.274 344.13 903.274C344.13 903.274 326.588 879.248 318.333 880.728C309.13 882.372 290.789 886.252 282.363 886.91C273.938 887.568 288.471 934.292 289.688 947.419C290.498 956.19 289.179 967.943 294.001 974.965C296.395 978.456 300.305 980.783 306.743 980.99L308.727 981.045C318.173 981.23 324.786 980.43 330.091 979.903C334.898 979.423 338.618 979.176 342.353 980.056C348.446 981.51 358.732 984.456 370.849 976.056C374.846 973.285 379.075 969.266 383.403 963.546C383.475 963.681 383.548 963.805 383.621 963.91C386.6 968.786 382.825 974.728 376.398 975.877Z" fill="#9C398C"/>
<path d="M362.506 942.99C363.064 942.378 364.013 942.333 364.625 942.891C365.238 943.448 365.282 944.397 364.725 945.01C359.902 950.309 357.997 955.575 357.285 959.485C356.928 961.446 356.871 963.071 356.9 964.193C356.914 964.754 356.95 965.188 356.982 965.475C356.997 965.618 357.011 965.724 357.021 965.79C357.026 965.823 357.029 965.847 357.031 965.859C357.032 965.863 357.032 965.865 357.032 965.867C357.18 966.682 356.64 967.462 355.825 967.61C355.01 967.759 354.23 967.218 354.081 966.403L355.557 966.135L354.081 966.401L354.08 966.399C354.08 966.398 354.08 966.396 354.079 966.395C354.079 966.391 354.078 966.387 354.077 966.383C354.076 966.373 354.074 966.361 354.071 966.346C354.067 966.316 354.06 966.276 354.053 966.226C354.038 966.124 354.019 965.981 353.999 965.8C353.96 965.438 353.917 964.92 353.901 964.271C353.867 962.972 353.935 961.138 354.334 958.948C355.134 954.558 357.258 948.756 362.506 942.99Z" fill="#17091D"/>
<path d="M357.32 952.674C357.77 951.978 358.698 951.779 359.394 952.229L358.58 953.488C359.394 952.228 359.394 952.229 359.395 952.23L359.396 952.231C359.397 952.231 359.399 952.232 359.401 952.233C359.404 952.236 359.409 952.239 359.415 952.242C359.426 952.249 359.441 952.259 359.46 952.272C359.498 952.297 359.552 952.333 359.62 952.38C359.756 952.473 359.949 952.61 360.191 952.787C360.674 953.142 361.35 953.662 362.138 954.338C363.711 955.687 365.751 957.673 367.6 960.213C371.305 965.3 374.322 972.74 371.071 981.667C370.787 982.445 369.926 982.847 369.148 982.564C368.37 982.28 367.968 981.419 368.252 980.641C371.046 972.968 368.523 966.575 365.175 961.98C363.499 959.678 361.634 957.86 360.184 956.615C359.461 955.995 358.846 955.521 358.417 955.205C358.202 955.048 358.033 954.93 357.921 954.854C357.866 954.815 357.824 954.787 357.797 954.77C357.785 954.761 357.776 954.755 357.77 954.751C357.768 954.75 357.767 954.748 357.766 954.747C357.765 954.748 357.764 954.747 357.764 954.747L357.765 954.748C357.07 954.298 356.87 953.37 357.32 952.674Z" fill="#17091D"/>
<path d="M329.53 960.688C330.356 960.752 330.974 961.472 330.91 962.298C330.91 962.3 330.91 962.304 330.909 962.308C330.909 962.316 330.909 962.328 330.907 962.343C330.905 962.376 330.901 962.426 330.897 962.492C330.888 962.623 330.876 962.819 330.862 963.073C330.833 963.581 330.799 964.321 330.773 965.236C330.72 967.068 330.701 969.598 330.837 972.392C331.114 978.068 332.021 984.512 334.346 988.521C334.762 989.238 334.518 990.156 333.801 990.572C333.084 990.987 332.166 990.743 331.75 990.027C329.029 985.334 328.119 978.233 327.841 972.539C327.7 969.648 327.719 967.037 327.774 965.149C327.801 964.205 327.837 963.439 327.866 962.908C327.881 962.642 327.894 962.434 327.904 962.292C327.908 962.221 327.913 962.166 327.915 962.128C327.917 962.11 327.917 962.096 327.918 962.086C327.919 962.081 327.919 962.077 327.919 962.074V962.069C327.983 961.243 328.704 960.625 329.53 960.688Z" fill="#17091D"/>
<path d="M308.308 969.05C309.083 969.096 309.685 969.724 309.716 970.483L309.715 970.637V970.638C309.715 970.639 309.715 970.641 309.714 970.644C309.714 970.651 309.714 970.662 309.713 970.677C309.712 970.706 309.709 970.75 309.707 970.809C309.701 970.928 309.693 971.106 309.686 971.335C309.671 971.793 309.657 972.457 309.66 973.266C309.666 974.889 309.741 977.084 310.014 979.387C310.288 981.7 310.756 984.062 311.519 986.051C312.292 988.065 313.296 989.503 314.518 990.234C315.229 990.66 315.46 991.581 315.035 992.292C314.609 993.003 313.688 993.234 312.977 992.808C310.922 991.578 309.596 989.413 308.718 987.127C307.83 984.815 307.325 982.179 307.036 979.739C306.745 977.289 306.666 974.975 306.66 973.278C306.656 972.428 306.671 971.728 306.687 971.239C306.695 970.994 306.703 970.802 306.709 970.669C306.713 970.602 306.715 970.551 306.717 970.515C306.718 970.498 306.719 970.483 306.719 970.473C306.719 970.469 306.72 970.465 306.72 970.462V970.458C306.72 970.457 306.721 970.457 308.218 970.547L306.72 970.457C306.77 969.63 307.481 969 308.308 969.05Z" fill="#17091D"/>
<path d="M294.169 973.148C294.993 973.226 295.598 973.959 295.52 974.783L295.518 974.799C295.516 974.814 295.514 974.84 295.512 974.874C295.507 974.943 295.5 975.048 295.493 975.185C295.479 975.459 295.465 975.861 295.468 976.353C295.474 977.341 295.547 978.67 295.809 980.056C296.349 982.925 297.585 985.532 300.106 986.481C300.882 986.772 301.273 987.638 300.981 988.413C300.689 989.188 299.825 989.58 299.05 989.288C294.991 987.761 293.451 983.744 292.86 980.611C292.556 978.997 292.475 977.479 292.468 976.371C292.464 975.815 292.481 975.355 292.497 975.031C292.505 974.869 292.514 974.741 292.52 974.65C292.524 974.605 292.526 974.57 292.528 974.544C292.529 974.531 292.531 974.521 292.531 974.514C292.532 974.51 292.532 974.506 292.532 974.504C292.532 974.503 292.532 974.501 292.532 974.5L292.533 974.499C292.539 974.499 292.631 974.507 294.026 974.641L292.533 974.498C292.612 973.673 293.344 973.069 294.169 973.148Z" fill="#17091D"/>
<path d="M340.678 973.456C342.785 973.456 344.493 968.816 344.493 963.092C344.493 957.368 342.785 952.729 340.678 952.729C338.571 952.729 336.863 957.368 336.863 963.092C336.863 968.816 338.571 973.456 340.678 973.456Z" fill="#D969BD"/>
<path d="M317.425 972C319.532 972 321.24 968.499 321.24 964.181C321.24 959.864 319.532 956.363 317.425 956.363C315.318 956.363 313.61 959.864 313.61 964.181C313.61 968.499 315.318 972 317.425 972Z" fill="#D969BD"/>
<path d="M300.348 976C302.455 976 304.163 973.314 304.163 970C304.163 966.686 302.455 964 300.348 964C298.241 964 296.533 966.686 296.533 970C296.533 973.314 298.241 976 300.348 976Z" fill="#D969BD"/>
<path d="M546.732 452.567C546.517 452.572 546.303 452.548 546.096 452.495C542.481 451.909 452.105 442.535 404.563 437.636C404.31 437.61 404.066 437.525 403.852 437.388C403.637 437.251 403.458 437.066 403.328 436.847C398.383 428.538 398.575 427.251 398.651 426.767C398.804 425.749 400.657 422.44 404.152 416.949C404.383 416.583 404.749 416.322 405.17 416.222C405.359 416.178 424.306 411.949 454.489 411.949C478.354 411.986 502.153 414.47 525.513 419.36C543.567 423.134 560.488 431.081 574.926 442.567L578.767 445.629C579.019 445.827 579.208 446.096 579.31 446.401C579.411 446.706 579.421 447.034 579.337 447.344C579.253 447.654 579.08 447.933 578.839 448.145C578.598 448.358 578.3 448.494 577.982 448.538C575.093 448.942 549.66 452.567 546.732 452.567Z" fill="#CE44A2"/>
<path d="M454.489 413.585C478.243 413.625 501.93 416.096 525.182 420.96C542.993 424.663 559.685 432.503 573.913 443.847L577.753 446.909C577.753 446.909 549.627 450.931 546.732 450.931C546.656 450.936 546.58 450.929 546.506 450.909C545.78 450.545 404.73 436 404.73 436C404.73 436 400.083 428.203 400.265 427.011C400.446 425.818 405.533 417.818 405.533 417.818C405.533 417.818 424.139 413.585 454.489 413.585ZM454.489 410.312C424.117 410.312 405.58 414.451 404.806 414.625C403.962 414.821 403.231 415.344 402.772 416.08C397.322 424.662 397.122 425.931 397.031 426.542C396.878 427.531 396.668 428.891 401.918 437.702C402.179 438.14 402.538 438.511 402.968 438.786C403.397 439.061 403.885 439.231 404.392 439.283C442.306 443.189 541.005 453.411 545.776 454.12C546.088 454.191 546.408 454.225 546.728 454.222C549.707 454.222 573.477 450.843 578.211 450.167C578.848 450.08 579.445 449.808 579.928 449.383C580.41 448.959 580.758 448.402 580.926 447.781C581.094 447.16 581.076 446.504 580.873 445.893C580.671 445.283 580.293 444.746 579.788 444.349L575.936 441.287C561.296 429.642 544.138 421.584 525.833 417.756C502.368 412.847 478.464 410.353 454.492 410.312H454.489Z" fill="#17091D"/>
<path d="M405.13 428.541C405.13 428.541 435.214 417.269 482.774 422.174C530.335 427.08 564.433 443.345 564.433 443.345L567.3 492.643L551.753 530.796C551.753 530.796 498.121 542.069 497.7 541.661C497.278 541.254 433.615 510.494 433.615 510.494C433.615 510.494 385.404 475.01 384.841 473.596C384.278 472.181 405.13 428.541 405.13 428.541Z" fill="#5C2C66"/>
<path d="M425.874 422.038C439.453 419.815 458.999 418.214 482.928 420.682C506.836 423.148 527.356 428.468 541.9 433.172C549.174 435.524 554.957 437.723 558.927 439.337C560.912 440.144 562.445 440.805 563.483 441.265C564.003 441.495 564.398 441.676 564.666 441.799C564.8 441.861 564.902 441.908 564.971 441.941C565.005 441.957 565.032 441.969 565.05 441.978C565.059 441.982 565.065 441.985 565.07 441.987C565.073 441.989 565.075 441.99 565.076 441.99H565.078C565.078 441.991 565.079 441.991 564.748 442.685L565.079 441.991L565.879 442.373L568.817 492.895L552.842 532.1L552.061 532.264L552.059 532.265C552.057 532.265 552.055 532.265 552.052 532.266C552.045 532.267 552.035 532.27 552.022 532.273C551.997 532.278 551.958 532.285 551.907 532.296C551.806 532.317 551.655 532.35 551.459 532.391C551.066 532.473 550.489 532.594 549.755 532.748C548.287 533.056 546.19 533.494 543.673 534.02C538.637 535.07 531.919 536.467 525.186 537.851C518.455 539.235 511.706 540.607 506.612 541.608C504.067 542.108 501.927 542.517 500.407 542.788C499.65 542.924 499.032 543.027 498.591 543.091C498.374 543.122 498.176 543.148 498.016 543.161C497.941 543.167 497.834 543.175 497.724 543.172C497.672 543.171 497.571 543.166 497.451 543.145C497.423 543.14 497.112 543.094 496.801 542.861C496.815 542.872 496.824 542.879 496.828 542.882C496.854 542.901 496.875 542.913 496.883 542.918C496.898 542.928 496.904 542.932 496.894 542.926C496.877 542.916 496.84 542.895 496.778 542.862C496.657 542.799 496.476 542.706 496.233 542.583C495.75 542.339 495.05 541.989 494.161 541.55C492.383 540.672 489.865 539.438 486.851 537.968C480.826 535.028 472.829 531.145 464.845 527.275C456.861 523.404 448.891 519.547 442.916 516.657C439.929 515.212 437.44 514.009 435.698 513.167C434.828 512.746 434.144 512.416 433.678 512.191C433.445 512.078 433.266 511.991 433.145 511.933C433.085 511.904 433.039 511.882 433.009 511.867C432.994 511.86 432.982 511.854 432.975 511.851C432.971 511.849 432.968 511.847 432.966 511.846L432.963 511.845L432.838 511.784L432.726 511.702L432.724 511.7C432.722 511.699 432.72 511.698 432.717 511.695C432.711 511.691 432.702 511.685 432.691 511.677C432.668 511.66 432.633 511.634 432.588 511.601C432.496 511.534 432.36 511.433 432.184 511.303C431.83 511.043 431.312 510.661 430.652 510.174C429.332 509.201 427.446 507.809 425.182 506.134C420.652 502.785 414.606 498.303 408.542 493.778C402.479 489.253 396.394 484.68 391.787 481.149C389.485 479.384 387.544 477.873 386.157 476.756C385.466 476.199 384.899 475.729 384.491 475.37C384.289 475.193 384.109 475.027 383.966 474.883C383.895 474.812 383.816 474.729 383.744 474.641C383.699 474.586 383.548 474.404 383.447 474.151C383.323 473.837 383.327 473.555 383.331 473.446C383.336 473.303 383.356 473.171 383.375 473.069C383.413 472.864 383.474 472.638 383.542 472.417C383.68 471.967 383.891 471.386 384.153 470.711C384.681 469.353 385.459 467.509 386.399 465.359C388.282 461.053 390.842 455.453 393.414 449.907C395.987 444.359 398.577 438.856 400.524 434.74C401.498 432.683 402.311 430.971 402.881 429.775C403.165 429.176 403.389 428.706 403.542 428.386C403.618 428.226 403.677 428.103 403.717 428.021C403.736 427.98 403.751 427.948 403.761 427.927C403.766 427.916 403.77 427.908 403.772 427.903C403.774 427.9 403.775 427.898 403.775 427.897L403.776 427.896C403.781 427.897 403.844 427.927 404.805 428.386L403.776 427.896L404.037 427.349L404.603 427.137L405.13 428.541C404.637 427.226 404.605 427.142 404.603 427.137L404.606 427.136C404.608 427.135 404.61 427.135 404.612 427.134C404.617 427.132 404.624 427.129 404.633 427.126C404.65 427.12 404.674 427.11 404.706 427.099C404.769 427.076 404.862 427.043 404.982 427.001C405.224 426.916 405.581 426.794 406.05 426.641C406.987 426.335 408.37 425.907 410.176 425.41C413.786 424.417 419.085 423.15 425.874 422.038ZM496.657 542.74C496.706 542.788 496.752 542.824 496.784 542.849C496.742 542.816 496.699 542.781 496.657 542.74ZM482.62 423.666C458.989 421.229 439.712 422.812 426.359 424.998C419.683 426.091 414.488 427.336 410.972 428.303C409.213 428.787 407.875 429.201 406.98 429.492C406.672 429.593 406.417 429.681 406.215 429.75C406.064 430.066 405.853 430.51 405.59 431.064C405.021 432.259 404.209 433.968 403.236 436.024C401.291 440.135 398.704 445.63 396.135 451.169C393.565 456.71 391.017 462.286 389.148 466.561C388.213 468.7 387.454 470.498 386.949 471.797C386.737 472.343 386.577 472.783 386.469 473.114C386.47 473.115 386.472 473.116 386.473 473.117C386.832 473.434 387.359 473.872 388.04 474.42C389.398 475.514 391.316 477.007 393.612 478.768C398.203 482.287 404.277 486.85 410.337 491.373C416.396 495.895 422.437 500.374 426.965 503.722C429.228 505.396 431.114 506.787 432.433 507.76C433.092 508.246 433.61 508.628 433.963 508.888C434.139 509.018 434.275 509.118 434.366 509.185C434.375 509.191 434.383 509.197 434.392 509.203C434.409 509.212 434.429 509.221 434.45 509.232C434.571 509.29 434.749 509.377 434.982 509.489C435.449 509.715 436.133 510.045 437.004 510.466C438.746 511.308 441.235 512.511 444.223 513.956C450.198 516.846 458.169 520.705 466.153 524.575C474.138 528.446 482.137 532.33 488.167 535.272C491.181 536.742 493.705 537.979 495.489 538.861C496.381 539.301 497.092 539.655 497.588 539.906C497.762 539.995 497.913 540.072 498.038 540.137C498.075 540.132 498.117 540.129 498.161 540.122C498.552 540.066 499.13 539.969 499.88 539.835C501.373 539.568 503.493 539.164 506.034 538.664C511.115 537.666 517.853 536.296 524.582 534.912C531.31 533.529 538.027 532.132 543.06 531.082C545.577 530.557 547.673 530.119 549.14 529.812C549.769 529.68 550.283 529.571 550.664 529.491L565.782 492.391L562.987 444.332C562.785 444.24 562.545 444.131 562.267 444.008C561.256 443.56 559.752 442.911 557.798 442.116C553.888 440.527 548.174 438.354 540.977 436.027C526.582 431.371 506.272 426.106 482.62 423.666Z" fill="#17091D"/>
<path d="M657.505 882.546C657.354 882.545 657.204 882.524 657.058 882.484C656.739 882.393 656.455 882.208 656.244 881.952C656.033 881.696 655.905 881.382 655.877 881.051C655.34 874.819 650.736 819.909 654.693 811.597C657.516 805.677 648.879 783 645.192 773.32C644.138 770.553 643.375 768.553 643.044 767.455C641.377 762 635.116 693.717 634.851 690.811C634.844 690.72 634.844 690.629 634.851 690.538C634.913 689.717 641.082 607.92 643.753 573.906C644.876 559.582 644.97 559.066 645.003 558.898C645.366 556.928 657.062 511.338 657.559 509.397C657.643 509.075 657.821 508.787 658.072 508.57C658.322 508.352 658.632 508.216 658.962 508.178C659.022 508.175 659.083 508.175 659.144 508.178C659.444 508.179 659.738 508.261 659.995 508.418C660.251 508.574 660.459 508.799 660.597 509.066C661.956 511.709 693.962 574.157 700.498 603.826C707.296 634.699 718.963 684.433 720.965 691.069C722.527 696.255 722.978 701.553 723.374 706.226C723.519 707.928 723.653 709.535 723.835 711.091C724.22 714.404 727.686 718.324 731.04 722.12C733.067 724.415 735.167 726.789 736.668 729.124C739.891 734.139 742.619 758.877 745.141 783.786C745.504 787.382 745.817 790.491 746.053 792.575C747.419 804.669 747.757 858.757 747.771 861.048C747.773 861.264 747.733 861.478 747.651 861.678C747.57 861.878 747.45 862.06 747.298 862.213C747.146 862.366 746.965 862.488 746.765 862.57C746.566 862.653 746.352 862.695 746.136 862.695H746.086C744.527 862.695 707.66 862.779 681.503 869.946C670.004 873.095 662.37 877.113 658.82 881.884C658.668 882.09 658.47 882.257 658.241 882.372C658.013 882.487 657.761 882.546 657.505 882.546Z" fill="#CE44A2"/>
<path d="M659.14 509.818C659.14 509.818 692.33 574.363 698.899 604.181C705.468 633.999 717.338 684.723 719.395 691.545C721.451 698.367 721.51 705.294 722.207 711.283C722.905 717.272 731.323 723.85 735.287 730.014C739.251 736.178 743.048 780.618 744.421 792.763C745.795 804.909 746.129 861.061 746.129 861.061H746.078C744.523 861.061 707.452 861.138 681.063 868.37C670.527 871.258 661.687 875.279 657.501 880.909C657.501 880.909 652.284 820.45 656.164 812.316C660.044 804.181 646.241 772.363 644.606 766.992C642.971 761.621 636.479 690.676 636.479 690.676C636.479 690.676 642.677 608.454 645.38 574.047C646.067 565.269 646.532 559.603 646.605 559.21C646.968 557.272 659.14 509.818 659.14 509.818ZM659.14 506.545C659.018 506.545 658.897 506.552 658.776 506.567C658.118 506.641 657.497 506.914 656.997 507.349C656.497 507.784 656.14 508.361 655.975 509.003C654.729 513.872 643.767 556.639 643.393 558.607C643.342 558.883 643.251 559.378 642.125 573.792C639.451 607.81 633.285 689.607 633.223 690.429C633.207 690.61 633.207 690.793 633.223 690.974C633.892 698.272 639.796 762.429 641.478 767.949C641.841 769.098 642.601 771.119 643.658 773.916C645.729 779.37 648.865 787.585 651.052 795.141C654.442 806.858 653.559 810.17 653.21 810.905C652.444 812.512 651.55 815.73 651.463 826.439C651.412 832.53 651.63 840.399 652.109 849.829C652.919 865.829 654.227 881.039 654.238 881.189C654.294 881.851 654.551 882.48 654.973 882.993C655.395 883.506 655.963 883.878 656.601 884.06C657.24 884.242 657.918 884.225 658.547 884.011C659.176 883.798 659.725 883.398 660.121 882.865C663.391 878.454 670.941 874.534 681.921 871.527C707.866 864.414 744.523 864.334 746.071 864.334H746.122C746.553 864.334 746.979 864.249 747.377 864.083C747.775 863.918 748.137 863.675 748.44 863.369C748.744 863.063 748.985 862.7 749.148 862.301C749.311 861.902 749.394 861.474 749.392 861.043C749.392 858.741 749.028 804.574 747.662 792.396C747.43 790.319 747.114 787.218 746.75 783.629C743.575 752.199 741.13 733.065 738.03 728.243C736.457 725.803 734.317 723.381 732.25 721.039C729.212 717.599 725.771 713.705 725.444 710.905C725.266 709.374 725.132 707.781 724.987 706.09C724.583 701.334 724.129 695.949 722.516 690.599C720.565 684.134 708.709 633.65 702.082 603.476C695.509 573.589 663.409 510.97 662.046 508.319C661.771 507.785 661.355 507.337 660.842 507.024C660.329 506.711 659.74 506.545 659.14 506.545Z" fill="#17091D"/>
<path d="M704.011 744.545C690.931 748.181 678.502 742.421 674.36 760.574C670.218 778.726 675.01 808.592 679.882 814.934C682.084 817.795 681.139 869.279 680.94 874.908C670.403 877.795 659.692 883.468 655.506 889.09C655.506 889.09 652.287 820.45 656.168 812.315C660.048 804.181 646.241 772.363 644.606 766.992C642.971 761.621 636.479 690.675 636.479 690.675C636.479 690.675 642.677 608.454 645.38 574.046L660.956 510.908C660.956 510.908 667.445 644.726 665.745 668.454C664.045 692.181 643.502 729.908 667.562 726.141C691.622 722.374 706.202 716.003 701.828 723.73C697.453 731.457 685.565 728.457 679.831 733.817C674.098 739.177 693.395 733.817 705.232 735.185C717.069 736.552 717.091 740.908 704.011 744.545Z" fill="#9C398C"/>
<path d="M642.79 752.784C646.786 750.239 650.805 747.777 654.838 745.319C658.871 742.861 662.926 740.446 667.002 738.046C671.079 735.646 675.199 733.337 679.355 731.086L682.502 729.432C683.552 728.883 684.627 728.366 685.688 727.832L686.488 727.435L687.302 727.072L688.937 726.326C689.209 726.206 689.474 726.072 689.758 725.963L690.604 725.628L692.297 724.963C692.594 724.835 692.93 724.83 693.23 724.95C693.53 725.07 693.77 725.304 693.898 725.601C694.026 725.898 694.03 726.233 693.911 726.534C693.791 726.834 693.557 727.075 693.26 727.203L693.169 727.246L691.618 727.973L690.844 728.337C690.586 728.453 690.332 728.603 690.074 728.737L688.541 729.552L687.774 729.959L687.018 730.392C686.008 730.977 684.994 731.544 683.992 732.144L680.994 733.963C676.997 736.432 673.084 738.981 669.175 741.577C665.265 744.173 661.396 746.828 657.548 749.501C653.7 752.173 649.846 754.886 646.049 757.613C645.422 758.063 644.643 758.246 643.882 758.121C643.122 757.996 642.442 757.573 641.992 756.946C641.543 756.319 641.36 755.539 641.485 754.778C641.61 754.017 642.032 753.336 642.659 752.886L642.79 752.784Z" fill="#17091D"/>
<path d="M709.555 731.228H709.659C709.659 731.228 709.659 731.245 709.643 732.728L709.66 731.228C710.488 731.237 711.152 731.916 711.143 732.744C711.135 733.521 710.537 734.153 709.78 734.222L709.626 734.228H709.54C709.479 734.227 709.388 734.226 709.268 734.227C709.027 734.227 708.67 734.229 708.208 734.235C707.286 734.249 705.947 734.281 704.295 734.356C700.989 734.508 696.435 734.835 691.441 735.531C681.358 736.938 669.841 739.81 663.008 745.516C662.372 746.047 661.426 745.961 660.895 745.325C660.364 744.689 660.449 743.744 661.084 743.213C668.622 736.919 680.903 733.972 691.026 732.561C696.135 731.848 700.785 731.515 704.158 731.36C705.845 731.283 707.215 731.249 708.166 731.235C708.641 731.229 709.012 731.227 709.265 731.227C709.392 731.226 709.489 731.227 709.555 731.228Z" fill="#17091D"/>
<path d="M669.029 744.549C678.621 737.96 681.648 740.716 670.901 747.374C670.868 747.395 670.834 747.413 670.799 747.429C664.139 750.469 658.257 754.702 651.967 758.276C651.769 758.39 651.535 758.428 651.311 758.384C651.086 758.34 650.885 758.216 650.744 758.035C650.603 757.854 650.532 757.629 650.544 757.4C650.556 757.171 650.65 756.954 650.808 756.789C655.019 752.432 665.131 747.411 669.029 744.549Z" fill="#5C2C66"/>
<path d="M659.579 896.811C658.357 896.816 657.161 896.461 656.14 895.791C655.118 895.12 654.317 894.163 653.835 893.04C652.334 889.516 651.789 885.367 651.6 882.494C651.483 880.794 651.779 879.091 652.465 877.531C653.15 875.971 654.204 874.6 655.535 873.538C660.121 869.902 669.066 866.142 680.718 862.916C696.454 858.553 714.617 855.865 728.126 855.865C741.271 855.865 749.057 858.309 751.277 863.138C755.347 871.974 753.635 878.243 751.484 881.942C750.532 883.568 749.171 884.918 747.537 885.856C745.903 886.794 744.052 887.289 742.168 887.291C741.613 887.29 741.058 887.248 740.508 887.163C735.83 886.48 731.106 886.153 726.378 886.185C700.759 886.185 670.061 894.145 661.265 896.585C660.716 896.736 660.149 896.812 659.579 896.811Z" fill="#CE44A2"/>
<path d="M728.126 857.512C739.259 857.512 747.746 859.331 749.792 863.818C753.454 871.771 752.204 877.447 750.071 881.116C749.264 882.497 748.109 883.642 746.722 884.437C745.335 885.233 743.764 885.651 742.165 885.651C741.693 885.65 741.222 885.614 740.756 885.542C735.995 884.845 731.189 884.512 726.378 884.545C700.833 884.545 670.712 892.262 660.829 895.003C659.755 895.304 658.607 895.206 657.599 894.728C656.59 894.25 655.788 893.423 655.34 892.4C653.926 889.083 653.414 885.127 653.232 882.396C653.132 880.961 653.382 879.523 653.96 878.205C654.538 876.888 655.426 875.73 656.549 874.832C661.218 871.142 670.356 867.494 681.154 864.505C696.076 860.382 714.189 857.516 728.126 857.512ZM728.126 854.24C714.476 854.24 696.153 856.967 680.279 861.349C671.889 863.672 660.611 867.447 654.518 872.258C652.979 873.484 651.76 875.066 650.967 876.869C650.174 878.671 649.83 880.639 649.966 882.603C650.166 885.592 650.736 889.942 652.327 893.676C652.936 895.098 653.95 896.308 655.243 897.155C656.535 898.003 658.049 898.449 659.594 898.44C660.311 898.439 661.025 898.342 661.716 898.152C670.465 895.723 700.985 887.811 726.389 887.811C731.032 887.778 735.671 888.098 740.265 888.767C741.988 889.036 743.748 888.94 745.432 888.483C746.993 888.067 748.457 887.346 749.741 886.363C751.024 885.38 752.1 884.153 752.909 882.752C755.256 878.72 757.135 871.916 752.771 862.44C750.228 856.92 742.173 854.232 728.141 854.232L728.126 854.24Z" fill="#17091D"/>
<path d="M744.567 885.331C743.325 885.667 742.026 885.739 740.755 885.542C713.483 881.313 672.659 891.724 660.822 894.996C659.747 895.299 658.599 895.203 657.589 894.724C656.58 894.245 655.778 893.417 655.332 892.393C653.919 889.076 653.406 885.12 653.225 882.389C653.125 880.954 653.374 879.516 653.952 878.198C654.53 876.881 655.419 875.723 656.542 874.825C661.211 871.134 670.348 867.487 681.147 864.498C681.147 864.498 677.364 875.745 681.147 879.142C684.929 882.538 703.274 880.356 712.448 880.902C721.622 881.447 741.253 882.545 741.253 882.545L744.567 885.331Z" fill="#9C398C"/>
<path d="M237.673 885.638C237.272 885.637 236.884 885.488 236.585 885.22C236.285 884.951 236.095 884.583 236.049 884.183C235.977 883.583 228.586 823.896 227.18 813.768C226.755 810.692 226.257 805.834 225.687 800.208C224.368 787.285 222.566 769.583 220.324 761.994C220.124 761.325 219.935 760.634 219.761 759.95C217.512 751.336 218.246 746.056 219.583 736.474C219.801 734.925 220.034 733.256 220.273 731.427C220.902 726.645 222.228 721.917 224.426 714.085C228.746 698.677 236.78 669.994 250.172 602.587C270.293 501.205 299.273 499.463 300.497 499.438H300.53C300.735 499.439 300.938 499.477 301.13 499.55L338.055 514.096C338.346 514.213 338.598 514.409 338.782 514.663L372.528 561.456C372.736 561.742 372.844 562.088 372.837 562.441L371.322 646.714C371.316 647.035 371.216 647.347 371.035 647.612L369.614 649.674L351.858 678.077L343.327 723.474C343.312 723.561 343.289 723.646 343.258 723.728C340.5 731.339 333.811 752.408 336.079 758.448C339.065 766.481 348.105 854.896 348.49 858.656C348.515 858.885 348.492 859.116 348.421 859.336C348.351 859.555 348.235 859.757 348.082 859.928C347.928 860.1 347.74 860.237 347.53 860.331C347.32 860.425 347.092 860.474 346.862 860.474C346.786 860.481 346.71 860.481 346.633 860.474C344.355 860.154 342.001 859.896 339.643 859.714C336.707 859.485 333.702 859.368 330.716 859.368C326.234 859.367 321.756 859.609 317.302 860.096C276.114 864.63 238.843 885.237 238.458 885.445C238.217 885.574 237.947 885.64 237.673 885.638Z" fill="#CE44A2"/>
<path d="M300.53 501.091L337.456 515.637L371.202 562.397L370.988 574.331L370.624 595.349V595.371L369.701 646.669L368.248 648.786L350.307 677.455L341.721 723.171C341.721 723.171 331.595 751.091 334.545 759.018C337.496 766.946 346.862 858.822 346.862 858.822C344.484 858.483 342.12 858.224 339.77 858.047C336.718 857.805 333.7 857.684 330.716 857.684C326.175 857.687 321.637 857.939 317.123 858.44C275.097 863.08 237.673 884 237.673 884C237.673 884 230.225 823.818 228.801 813.56C227.376 803.302 225.138 772.546 221.897 761.56C221.694 760.877 221.511 760.215 221.349 759.575C218.827 749.917 220.172 744.778 221.897 731.669C223.736 717.687 231.682 704.193 251.778 602.942C271.874 501.691 300.53 501.091 300.53 501.091ZM300.53 497.818H300.465C299.567 497.837 291.418 498.389 281.081 512.062C275.267 519.738 269.817 530.186 264.822 543.117C258.645 559.098 253.195 579.004 248.566 602.287C235.203 669.633 227.166 698.287 222.849 713.662C220.633 721.564 219.296 726.335 218.653 731.233C218.413 733.051 218.184 734.684 217.962 736.266C216.6 746.055 215.848 751.451 218.18 760.393C218.359 761.08 218.544 761.789 218.758 762.484C220.938 769.917 222.755 787.531 224.059 800.393C224.633 806.033 225.131 810.906 225.563 814.011C226.966 824.127 234.352 883.8 234.429 884.404C234.495 884.936 234.69 885.444 234.998 885.883C235.307 886.322 235.718 886.678 236.196 886.92C236.674 887.163 237.204 887.284 237.74 887.273C238.276 887.262 238.8 887.12 239.268 886.858C239.359 886.807 248.682 881.629 262.954 875.949C276.07 870.742 296.181 864.04 317.479 861.698C321.875 861.214 326.294 860.971 330.716 860.971C333.659 860.971 336.62 861.087 339.519 861.309C341.841 861.491 344.159 861.742 346.404 862.062C346.556 862.084 346.709 862.095 346.862 862.095C347.321 862.097 347.775 862.003 348.195 861.818C348.615 861.633 348.991 861.362 349.3 861.022C349.608 860.682 349.842 860.281 349.985 859.845C350.128 859.409 350.179 858.948 350.132 858.491C350.11 858.258 347.76 835.218 345.078 811.524C339.61 763.207 338.117 759.193 337.626 757.877C337.281 756.946 336.445 752.84 340.191 739.018C342.292 731.266 344.788 724.357 344.813 724.287C344.875 724.121 344.922 723.949 344.955 723.775L353.424 678.684L370.988 650.546L372.379 648.527C372.748 647.992 372.949 647.359 372.957 646.709L373.88 595.411V595.364L374.243 574.371L374.457 562.437C374.47 561.729 374.254 561.036 373.84 560.462L340.108 513.72C339.741 513.213 339.237 512.822 338.655 512.593L301.729 498.047C301.348 497.895 300.941 497.818 300.53 497.818Z" fill="#17091D"/>
<path d="M371.561 574L370.61 595.349V595.371L368.23 648.785L350.306 677.455L341.721 723.171C341.721 723.171 331.595 751.091 334.545 759.018C337.495 766.945 346.499 857.367 346.499 857.367C344.12 857.028 341.756 856.77 339.406 856.593C338.404 844.982 333.88 794.589 333.168 788.164C332.198 779.415 325.781 760.527 317.788 756.891C309.795 753.255 290.538 749.982 291.566 748.222C292.595 746.462 310.885 748.891 320.371 751.916C329.858 754.942 324.691 749.982 322.148 746.709C319.605 743.436 286.541 735.073 279.424 733.8C272.306 732.527 250.208 732.527 242.941 730.709C235.675 728.891 238.581 726.709 256.748 723.436C274.915 720.164 302.165 730.345 312.574 733.553C322.984 736.76 315.608 727.073 312.527 721.32C309.446 715.567 298.895 701.982 303.887 701.753C308.879 701.524 309.068 706.364 318.696 720.76C328.325 735.156 325.418 714.727 325.451 707.669C325.484 700.611 331.595 694 332.321 684.182C333.048 674.364 337.045 670 339.57 662C342.095 654 345.038 643.818 348.021 633.105C351.004 622.393 365.443 577.545 365.443 577.545L370.987 574.342L371.561 574Z" fill="#9C398C"/>
<path d="M324.51 858.909C282.49 863.534 237.673 884 237.673 884C237.673 884 230.225 823.818 228.801 813.56C227.376 803.301 225.138 772.545 221.897 761.56C221.694 760.876 221.511 760.214 221.349 759.574C223.296 764.523 225.636 769.636 228.23 773.465C235.133 783.647 238.073 797.949 238.785 806.251C239.497 814.552 244.166 833.596 247.098 835.894C250.03 838.192 257.388 852.185 271.463 853.818C275.249 854.258 320.804 857.92 324.51 858.909Z" fill="#9C398C"/>
<path d="M320.996 738.563C336.031 742.28 335.969 747.731 319.841 742.927C319.791 742.912 319.743 742.894 319.696 742.873C310.783 738.934 301.362 736.832 292.257 733.72C291.972 733.619 291.732 733.42 291.581 733.159C291.43 732.897 291.377 732.59 291.432 732.293C291.486 731.996 291.645 731.728 291.88 731.537C292.114 731.347 292.409 731.247 292.711 731.254C300.762 731.589 314.7 737.211 320.996 738.563Z" fill="#5C2C66"/>
<path d="M255.346 917.091C252.519 917.093 249.786 916.077 247.647 914.229C241.386 908.818 236.66 900.047 235.889 892.411C235.646 889.941 236.092 887.452 237.176 885.22C238.261 882.988 239.942 881.101 242.033 879.767C262.38 866.909 284.104 859.098 306.568 856.545C311.715 855.956 316.891 855.658 322.072 855.654C336.296 855.654 344.984 857.938 345.347 858.032C345.7 858.127 346.01 858.337 346.23 858.629C353.428 868.163 353.348 875.971 352.011 880.843C351.161 884.043 349.499 886.968 347.186 889.334C346.884 889.613 346.488 889.768 346.077 889.767H345.99C343.897 889.654 341.772 889.596 339.668 889.596C333.256 889.605 326.855 890.119 320.524 891.134C292.079 895.669 270.268 909.276 262.213 914.916C260.202 916.331 257.804 917.09 255.346 917.091Z" fill="#CE44A2"/>
<path d="M322.076 857.292C336.246 857.292 344.929 859.616 344.929 859.616C358.086 877.048 346.081 888.132 346.081 888.132C343.921 888.016 341.784 887.957 339.672 887.957C333.174 887.964 326.686 888.485 320.27 889.517C291.952 894.03 270.373 907.208 261.29 913.572C259.551 914.792 257.48 915.447 255.357 915.448C252.922 915.454 250.568 914.58 248.726 912.987C243.094 908.117 238.291 899.797 237.528 892.227C237.31 890.061 237.699 887.878 238.652 885.922C239.604 883.965 241.082 882.313 242.92 881.15C266.595 866.201 289.012 860.19 306.769 858.172C311.854 857.589 316.968 857.295 322.087 857.292M322.087 854.019C316.844 854.023 311.606 854.324 306.398 854.921C283.686 857.503 261.741 865.394 241.176 878.383C238.829 879.878 236.942 881.995 235.724 884.498C234.505 887.001 234.003 889.793 234.273 892.565C235.079 900.597 240.028 909.801 246.586 915.474C249.021 917.583 252.133 918.745 255.353 918.747C258.148 918.749 260.875 917.887 263.161 916.277C271.126 910.703 292.682 897.256 320.793 892.776C327.041 891.772 333.359 891.263 339.687 891.256C341.761 891.256 343.858 891.314 345.918 891.427H346.096C346.917 891.427 347.708 891.118 348.312 890.561C350.852 887.984 352.668 884.781 353.577 881.277C355.008 876.052 355.121 867.71 347.524 857.641C347.085 857.059 346.465 856.641 345.761 856.452C345.398 856.35 336.5 854.016 322.061 854.016L322.087 854.019Z" fill="#17091D"/>
<path d="M320.27 889.517C291.952 894.03 270.373 907.208 261.29 913.572C259.429 914.886 257.183 915.543 254.908 915.437C252.632 915.331 250.457 914.468 248.726 912.986C243.094 908.117 238.291 899.797 237.528 892.226C237.31 890.061 237.699 887.878 238.652 885.922C239.604 883.965 241.082 882.313 242.92 881.15C266.595 866.201 289.012 860.19 306.769 858.172C306.144 858.397 286.026 865.546 275.293 871.365C264.393 877.274 267.917 894.761 275.293 894.841C281.637 894.91 326.327 888.728 326.327 888.728L320.27 889.517Z" fill="#9C398C"/>
<path d="M476.536 954.335C469.687 954.335 462.072 953.71 453.25 952.99C447.593 952.524 441.743 952.048 435.308 951.662C431.017 951.404 427.05 951.226 423.177 951.113C390.015 950.131 383.657 933.902 377.509 918.211C375.609 913.357 373.643 908.339 370.882 903.935C364.342 893.509 361.861 855.902 360.934 826.19C359.891 792.764 360.505 758.124 361.737 746.742C364.012 725.717 351.426 687.08 351.298 686.695C351.19 686.366 351.19 686.01 351.298 685.68C356.603 669.208 353.551 650.113 350.862 633.266C349.878 627.11 348.948 621.291 348.464 615.906C345.391 581.768 332.176 552.677 321.636 534.284C310.191 514.317 299.331 502.284 299.222 502.168C299.046 501.974 298.919 501.742 298.852 501.489C298.784 501.237 298.778 500.972 298.834 500.717C298.89 500.461 299.006 500.223 299.173 500.022C299.34 499.821 299.552 499.663 299.792 499.56L371.631 469.015C371.725 468.974 371.824 468.943 371.925 468.92L398.499 463.171C398.618 463.145 398.74 463.133 398.862 463.135C399.154 463.134 399.44 463.212 399.691 463.36L443.146 488.942L532.74 498.986L556.128 470.037C556.281 469.847 556.475 469.694 556.695 469.589C556.915 469.484 557.155 469.429 557.399 469.43C557.6 469.43 557.8 469.467 557.988 469.539L657.857 508.084C658.158 508.2 658.418 508.402 658.604 508.666C658.79 508.929 658.895 509.242 658.904 509.564C658.904 509.782 659.536 531.702 660.673 559.513C661.273 574.2 660.237 590.255 659.325 604.422C658.482 617.455 657.69 629.764 658.333 638.557C658.991 647.542 654.991 662.866 650.34 680.608C645.333 699.811 639.651 721.557 639.396 738.182C639.08 758.546 639.218 780.611 639.331 798.342C639.389 807.949 639.44 816.248 639.396 821.593C639.338 828.357 643.88 844.651 648.273 860.411C653.632 879.637 658.693 897.8 657.719 904.986C656.629 912.964 640.17 921.713 626.567 927.615C611.525 934.16 594.594 939.48 587.999 939.728H587.828C584.097 939.728 577.219 935.702 560.622 900.891C554.082 887.2 548.309 873.379 545.624 866.819C540.174 881.364 521.091 930.626 507.11 944.328C499.953 951.342 490.811 954.335 476.536 954.335Z" fill="#CE44A2"/>
<path d="M398.841 464.785L442.593 490.545L533.427 500.727L557.378 471.08L657.247 509.625C657.247 509.625 657.868 531.443 659.017 559.593C660.165 587.742 655.325 620.178 656.68 638.691C658.035 657.204 638.248 706.36 637.762 738.156C637.275 769.953 637.885 806.723 637.762 821.578C637.638 836.433 657.868 891.814 656.084 904.763C654.3 917.713 600.098 937.633 587.923 938.091H587.814C575.562 938.091 545.54 862.284 545.54 862.284C545.54 862.284 521.982 927.454 505.959 943.163C498.358 950.611 488.904 952.698 476.529 952.698C465.425 952.698 451.971 951.018 435.399 950.029C431.515 949.796 427.457 949.6 423.217 949.476C380.776 948.222 383.908 921.636 372.259 903.065C360.611 884.494 361.025 768.545 363.361 746.909C365.698 725.273 352.85 686.182 352.85 686.182C360.215 663.316 351.913 636 350.089 615.76C344.079 549.033 300.428 501.065 300.428 501.065L372.267 470.52L398.841 464.771M398.841 461.498C398.609 461.499 398.377 461.523 398.15 461.571L371.576 467.32C371.374 467.362 371.177 467.426 370.988 467.509L299.149 498.054C298.668 498.259 298.243 498.576 297.91 498.979C297.576 499.381 297.344 499.858 297.233 500.369C297.121 500.88 297.134 501.411 297.27 501.916C297.405 502.421 297.66 502.886 298.012 503.273C298.118 503.389 308.912 515.345 320.259 535.182C330.701 553.418 343.789 582.251 346.833 616.058C347.324 621.513 348.254 627.331 349.242 633.513C351.905 650.178 354.921 669.069 349.736 685.149C349.524 685.807 349.524 686.516 349.736 687.174C349.863 687.56 362.34 725.865 360.102 746.534C358.867 757.974 358.246 792.716 359.292 826.211C359.888 845.24 360.923 861.389 362.373 874.211C364.161 889.993 366.486 899.989 369.491 904.778C372.168 909.051 374.021 913.774 375.98 918.778C379.094 926.724 382.313 934.938 389.125 941.353C392.842 944.854 397.235 947.465 402.547 949.353C408.338 951.393 415.067 952.498 423.119 952.738C426.966 952.847 430.916 953.029 435.203 953.284C441.62 953.669 447.462 954.145 453.112 954.607C461.966 955.334 469.614 955.96 476.529 955.96C486.927 955.96 498.826 954.716 508.24 945.491C521.375 932.614 538.797 889.273 545.664 871.262C548.712 878.593 553.657 890.138 559.107 901.593C564.412 912.716 569.171 921.593 573.277 928.003C579.174 937.24 583.654 941.36 587.81 941.36H588.043C594.801 941.105 612.001 935.727 627.199 929.113C635.683 925.422 642.946 921.611 648.207 918.091C655.111 913.458 658.744 909.247 659.322 905.211C660.357 897.687 655.252 879.367 649.846 859.971C645.486 844.334 640.973 828.138 641.028 821.607C641.072 816.251 641.028 807.945 640.962 798.334C640.85 780.614 640.712 758.556 641.028 738.211C641.279 721.782 646.928 700.138 651.928 681.04C656.597 663.156 660.648 647.713 659.954 638.454C659.318 629.774 660.107 617.52 660.946 604.545C661.861 590.338 662.901 574.236 662.294 559.454C661.16 531.658 660.532 509.745 660.528 509.527C660.509 508.882 660.301 508.257 659.929 507.731C659.556 507.204 659.037 506.799 658.435 506.567L558.566 468.022C558.19 467.878 557.791 467.804 557.389 467.804C556.901 467.803 556.42 467.912 555.979 468.123C555.539 468.333 555.152 468.639 554.845 469.018L532.021 497.273L443.651 487.371L400.498 461.964C399.995 461.668 399.423 461.513 398.841 461.513V461.498Z" fill="#17091D"/>
<path d="M563.562 721.706C564.671 722.199 565.66 722.929 566.459 723.843C567.259 724.757 567.849 725.835 568.19 727.001C568.961 729.586 568.792 732.361 567.714 734.834C567.187 736.089 566.45 737.244 565.534 738.252C564.651 739.223 563.597 740.023 562.424 740.612C561.317 741.173 560.106 741.497 558.867 741.565C557.682 741.628 556.498 741.42 555.405 740.957C554.295 740.465 553.305 739.736 552.505 738.821C551.705 737.907 551.114 736.829 550.772 735.663C550.002 733.079 550.17 730.305 551.248 727.834C551.775 726.579 552.512 725.424 553.428 724.419C554.311 723.446 555.366 722.644 556.538 722.052C557.646 721.493 558.857 721.17 560.095 721.103C561.281 721.04 562.466 721.246 563.562 721.706ZM561.28 739.546C568.467 736.005 569.273 726.292 562.29 722.219C561.852 721.967 561.356 721.834 560.851 721.834C560.346 721.834 559.85 721.967 559.412 722.219C554.598 724.994 548.341 730.725 553.446 736.335C555.869 738.99 557.959 740.22 559.717 740.026C560.262 739.96 560.791 739.798 561.28 739.546Z" fill="#17091D"/>
<path d="M559.717 739.999C557.949 740.191 555.859 738.96 553.446 736.308C548.359 730.697 554.598 724.966 559.412 722.192C559.85 721.94 560.346 721.807 560.851 721.807C561.356 721.807 561.852 721.94 562.29 722.192C569.287 726.265 568.466 735.977 561.28 739.519C560.791 739.77 560.262 739.933 559.717 739.999Z" fill="#CE44A2"/>
<path d="M570.908 814.268C570.91 816.561 570.118 818.783 568.667 820.557C567.216 822.33 565.195 823.546 562.948 823.995C560.702 824.444 558.37 824.101 556.349 823.022C554.327 821.943 552.743 820.196 551.864 818.079C550.985 815.962 550.867 813.606 551.53 811.411C552.193 809.217 553.595 807.32 555.499 806.044C557.402 804.769 559.688 804.193 561.968 804.416C564.248 804.638 566.38 805.645 568.001 807.265C568.922 808.183 569.653 809.275 570.152 810.477C570.651 811.678 570.908 812.967 570.908 814.268ZM569.335 813.905C569.267 812.943 568.988 812.008 568.517 811.166C568.024 810.293 567.356 809.531 566.555 808.926C565.712 808.29 564.759 807.815 563.743 807.526C562.695 807.22 561.603 807.097 560.513 807.163C558.352 807.282 556.305 808.172 554.743 809.672C554.03 810.349 553.472 811.173 553.107 812.087C552.742 813.001 552.579 813.984 552.629 814.966C552.693 815.93 552.971 816.866 553.443 817.708C553.938 818.58 554.605 819.341 555.405 819.945C556.248 820.581 557.201 821.056 558.217 821.345C559.266 821.65 560.36 821.773 561.451 821.708C563.611 821.588 565.657 820.697 567.217 819.196C567.929 818.518 568.487 817.695 568.853 816.781C569.218 815.868 569.383 814.887 569.335 813.905Z" fill="#17091D"/>
<path d="M561.451 821.713C566.065 821.415 569.593 817.921 569.335 813.906C569.077 809.892 565.124 806.884 560.513 807.182C555.903 807.481 552.371 810.975 552.629 814.986C552.887 818.997 556.836 822.008 561.451 821.713Z" fill="#CE44A2"/>
<path d="M564.673 675.723C564.674 677.417 564.088 679.058 563.015 680.368C561.942 681.677 560.448 682.574 558.789 682.905C557.129 683.236 555.407 682.981 553.914 682.183C552.421 681.385 551.251 680.094 550.603 678.53C549.955 676.965 549.869 675.224 550.36 673.604C550.85 671.983 551.887 670.583 553.294 669.641C554.701 668.7 556.39 668.276 558.074 668.441C559.758 668.607 561.333 669.352 562.53 670.549C563.209 671.228 563.749 672.034 564.117 672.922C564.484 673.81 564.674 674.762 564.673 675.723ZM563.511 675.454C563.463 674.744 563.256 674.053 562.907 673.432C562.541 672.787 562.047 672.224 561.454 671.778C560.832 671.307 560.127 670.957 559.376 670.745C558.601 670.523 557.793 670.435 556.989 670.487C555.393 670.576 553.883 671.234 552.73 672.341C552.203 672.842 551.79 673.451 551.52 674.126C551.251 674.802 551.131 675.528 551.168 676.254C551.214 676.965 551.421 677.656 551.771 678.276C552.137 678.922 552.632 679.485 553.225 679.931C553.846 680.401 554.55 680.751 555.299 680.963C556.074 681.186 556.882 681.273 557.686 681.221C559.283 681.132 560.794 680.474 561.948 679.367C562.477 678.866 562.891 678.258 563.163 677.583C563.435 676.907 563.559 676.182 563.525 675.454H563.511Z" fill="#17091D"/>
<path d="M557.701 681.222C561.109 681 563.718 678.418 563.514 675.455C563.311 672.491 560.404 670.269 556.996 670.487C553.588 670.706 550.983 673.291 551.183 676.255C551.382 679.218 554.296 681.455 557.701 681.222Z" fill="#CE44A2"/>
<path d="M533.801 666.814C534.155 664.914 535.983 663.661 537.883 664.015C539.783 664.37 541.036 666.197 540.682 668.097C536.706 689.408 537.143 728.574 539.489 767.456C541.83 806.233 546.032 844.182 549.405 862.832C549.75 864.735 548.486 866.556 546.584 866.9C544.682 867.244 542.862 865.98 542.518 864.078C539.075 845.041 534.85 806.784 532.502 767.878C530.16 729.079 529.645 689.089 533.801 666.814Z" fill="#17091D"/>
<path d="M619.027 757.444C619.404 757.217 619.861 757.167 620.278 757.306L640.359 764.033C641.145 764.296 641.569 765.147 641.306 765.932C641.042 766.717 640.192 767.14 639.407 766.878L621.017 760.716C620.952 761.162 620.878 761.688 620.795 762.289C620.5 764.428 620.106 767.517 619.709 771.301C618.915 778.874 618.111 789.22 618.067 800.331C618.024 811.449 618.743 823.285 620.975 833.851C623.113 843.971 626.607 852.757 631.989 858.673L645.34 851.369C646.066 850.971 646.978 851.238 647.376 851.964C647.773 852.691 647.507 853.603 646.78 854.001L632.414 861.862C631.826 862.184 631.096 862.076 630.626 861.599C624.21 855.091 620.326 845.292 618.04 834.471C615.747 823.619 615.023 811.551 615.067 800.319C615.111 789.079 615.924 778.627 616.725 770.989C617.126 767.168 617.524 764.048 617.822 761.88C617.971 760.797 618.096 759.951 618.183 759.375C618.227 759.087 618.262 758.866 618.285 758.716C618.297 758.642 618.305 758.585 618.311 758.546C618.314 758.527 618.318 758.513 618.319 758.503C618.32 758.498 618.32 758.494 618.32 758.491C618.32 758.49 618.321 758.489 618.321 758.488C618.321 758.487 618.321 758.486 619.802 758.728L618.321 758.486C618.392 758.052 618.651 757.671 619.027 757.444Z" fill="#17091D"/>
<path d="M435.407 950.029C431.523 949.796 427.464 949.599 423.224 949.476C380.783 948.221 383.915 921.636 372.267 903.065C360.618 884.494 361.025 768.545 363.361 746.909C365.698 725.272 350.307 685.818 350.307 685.818C357.672 662.952 351.913 635.999 350.089 615.759L348.49 602.545C348.49 602.545 360.898 644.909 370.955 667.454C381.012 689.999 393.518 729.196 383.45 752.327C373.382 775.458 368.797 800.872 376.718 826.709C384.638 852.545 392.206 865.57 404.229 880.163C415.362 893.647 434.68 923.334 435.407 950.029Z" fill="#9C398C"/>
<path d="M428.103 764.974C428.478 764.831 428.894 764.843 429.26 765.009L447.303 773.18C447.97 773.482 448.322 774.221 448.135 774.929L446.684 774.546L448.135 774.93C448.135 774.93 448.134 774.931 448.134 774.932C448.133 774.934 448.133 774.937 448.132 774.94C448.13 774.947 448.127 774.958 448.123 774.972C448.116 774.999 448.105 775.039 448.091 775.092C448.062 775.197 448.02 775.353 447.964 775.557C447.851 775.966 447.684 776.567 447.462 777.341C447.017 778.889 446.353 781.131 445.475 783.917C443.717 789.488 441.099 797.238 437.654 805.959C430.777 823.369 420.553 844.781 407.22 860.428C399.517 869.467 390.186 878.071 382.802 884.4C379.105 887.569 375.888 890.176 373.594 891.991C372.446 892.899 371.529 893.608 370.897 894.093C370.582 894.335 370.338 894.521 370.172 894.646C370.089 894.709 370.025 894.757 369.982 894.789C369.961 894.805 369.945 894.817 369.934 894.825C369.928 894.829 369.923 894.833 369.92 894.835L369.916 894.839H369.915C369.251 895.334 368.312 895.198 367.816 894.534C367.321 893.87 367.457 892.93 368.121 892.434L368.124 892.432C368.126 892.431 368.13 892.427 368.135 892.424C368.145 892.416 368.16 892.406 368.181 892.39C368.221 892.36 368.282 892.314 368.362 892.253C368.523 892.131 368.762 891.949 369.072 891.712C369.693 891.236 370.598 890.535 371.732 889.638C374.002 887.842 377.188 885.261 380.85 882.123C388.18 875.839 397.379 867.352 404.936 858.482C417.945 843.216 428.024 822.173 434.864 804.857C438.278 796.215 440.872 788.534 442.613 783.014C443.483 780.256 444.14 778.038 444.578 776.513C444.703 776.079 444.806 775.7 444.895 775.382L429.397 768.363C429.131 768.958 428.784 769.737 428.357 770.678C427.285 773.041 425.724 776.435 423.767 780.563C419.855 788.819 414.357 800.019 408.018 811.785C401.682 823.547 394.492 835.901 387.193 846.455C379.924 856.967 372.442 865.851 365.494 870.518C364.806 870.98 363.875 870.797 363.413 870.109C362.951 869.422 363.135 868.49 363.822 868.028C370.272 863.696 377.487 855.217 384.726 844.748C391.937 834.321 399.068 822.075 405.378 810.362C411.685 798.654 417.159 787.504 421.057 779.279C423.005 775.167 424.559 771.788 425.625 769.438C426.158 768.263 426.569 767.346 426.847 766.723C426.985 766.411 427.09 766.172 427.161 766.013C427.196 765.933 427.223 765.873 427.241 765.833C427.25 765.813 427.256 765.798 427.261 765.788C427.263 765.783 427.264 765.779 427.266 765.776C427.266 765.775 427.266 765.774 427.267 765.773C427.267 765.773 427.288 765.782 428.642 766.375L427.267 765.773C427.428 765.406 427.729 765.118 428.103 764.974Z" fill="#17091D"/>
<path d="M558.233 636.477H558.069L537.261 634.364C537.033 634.341 536.812 634.27 536.613 634.156C536.414 634.042 536.241 633.887 536.106 633.702L461.852 532.186L429.682 515.557C429.462 515.443 429.271 515.281 429.123 515.083C428.975 514.885 428.874 514.656 428.827 514.413C428.78 514.17 428.789 513.92 428.853 513.681C428.916 513.442 429.034 513.22 429.195 513.033L455.813 482.182C455.967 482.004 456.157 481.861 456.371 481.764C456.584 481.666 456.817 481.615 457.052 481.615H457.183L497.644 484.931C500.092 484.717 534.703 481.597 550.512 476.088C552.398 475.426 554.382 475.087 556.38 475.084C571.437 475.084 582.925 494.109 583.408 494.92C583.546 495.153 583.624 495.417 583.634 495.688L586.766 570.295C586.776 570.534 586.733 570.773 586.638 570.993L559.752 635.466C559.628 635.767 559.417 636.023 559.147 636.204C558.876 636.384 558.558 636.479 558.233 636.477Z" fill="#FBDAFA"/>
<path d="M556.38 476.728C570.681 476.728 582.002 495.764 582.002 495.764L585.131 570.371L558.244 634.844L537.425 632.728L462.942 530.909L430.431 514.102L457.052 483.248L497.647 486.578C497.647 486.578 534.344 483.455 551.057 477.637C552.77 477.035 554.572 476.726 556.387 476.724M556.387 473.451C554.206 473.454 552.041 473.823 549.982 474.542C534.58 479.902 500.994 482.993 497.662 483.291L457.332 479.982C457.245 479.982 457.154 479.982 457.067 479.982C456.596 479.982 456.132 480.083 455.704 480.279C455.276 480.475 454.896 480.76 454.589 481.117L427.953 511.964C427.63 512.339 427.396 512.782 427.268 513.26C427.141 513.738 427.124 514.239 427.218 514.725C427.312 515.211 427.515 515.669 427.812 516.065C428.108 516.461 428.49 516.784 428.93 517.011L460.762 533.455L534.791 634.655C535.062 635.024 535.407 635.333 535.804 635.56C536.202 635.787 536.643 635.929 537.098 635.975L557.906 638.088C558.019 638.088 558.128 638.088 558.237 638.088C558.882 638.088 559.513 637.897 560.05 637.539C560.588 637.182 561.007 636.673 561.256 636.077L588.143 571.604C588.326 571.161 588.41 570.683 588.39 570.204L585.269 495.637C585.247 495.095 585.09 494.567 584.811 494.102C584.31 493.258 572.356 473.466 556.38 473.466L556.387 473.451Z" fill="#17091D"/>
<path d="M551.911 510.869L573.805 501.796L555.083 473.887L529.649 481.887C529.649 481.887 517.151 487.072 495.587 485.818C474.023 484.563 468.548 490.661 468.548 490.661L465.667 508.552C465.667 508.552 471.763 518.734 501.96 519.999C532.157 521.265 551.911 510.869 551.911 510.869Z" fill="#5C2C66"/>
<path d="M576.071 502.48L552.55 512.227C552.546 512.229 552.542 512.231 552.538 512.233C552.494 512.256 552.432 512.287 552.351 512.327C552.189 512.408 551.951 512.524 551.641 512.67C551.021 512.962 550.108 513.373 548.922 513.86C546.55 514.835 543.082 516.115 538.664 517.353C529.827 519.828 517.181 522.139 501.897 521.498C486.64 520.859 477.344 517.962 471.808 515.138C469.039 513.725 467.217 512.333 466.067 511.259C465.493 510.723 465.088 510.268 464.818 509.932C464.683 509.764 464.582 509.626 464.51 509.522C464.475 509.471 464.446 509.428 464.424 509.395C464.414 509.378 464.404 509.364 464.397 509.352C464.393 509.346 464.39 509.34 464.387 509.335C464.386 509.333 464.385 509.33 464.383 509.328C464.383 509.327 464.382 509.326 464.381 509.325C464.384 509.322 464.451 509.279 465.667 508.552L464.379 509.323L464.099 508.854L467.137 489.987L467.431 489.659L468.547 490.661C467.509 489.729 467.438 489.663 467.434 489.657C467.434 489.657 467.435 489.655 467.436 489.654C467.438 489.653 467.439 489.651 467.441 489.649C467.444 489.646 467.448 489.641 467.452 489.637C467.46 489.628 467.47 489.618 467.481 489.606C467.503 489.583 467.532 489.554 467.566 489.521C467.635 489.453 467.728 489.366 467.849 489.263C468.091 489.055 468.443 488.782 468.923 488.47C469.885 487.845 471.358 487.069 473.502 486.348C477.789 484.905 484.749 483.685 495.674 484.32C506.319 484.94 514.708 483.968 520.417 482.851C523.271 482.292 525.455 481.696 526.917 481.244C527.647 481.018 528.196 480.829 528.558 480.697C528.739 480.632 528.873 480.58 528.959 480.547C529.003 480.53 529.034 480.517 529.053 480.51C529.062 480.506 529.069 480.503 529.073 480.502L529.075 480.501L529.136 480.476L529.2 480.456L555.704 472.119L576.071 502.48ZM530.156 483.299C530.128 483.31 530.093 483.326 530.048 483.343C529.941 483.384 529.785 483.443 529.583 483.517C529.177 483.664 528.581 483.87 527.803 484.11C526.247 484.592 523.958 485.214 520.993 485.795C515.061 486.956 506.419 487.951 495.5 487.315C484.862 486.697 478.301 487.898 474.459 489.19C472.54 489.836 471.296 490.507 470.557 490.986C470.289 491.16 470.088 491.311 469.943 491.427L467.248 508.162C467.435 508.385 467.716 508.694 468.115 509.066C469.052 509.941 470.641 511.174 473.171 512.465C478.233 515.048 487.084 517.875 502.023 518.501C516.936 519.126 529.265 516.87 537.855 514.464C542.149 513.261 545.507 512.021 547.783 511.086C548.92 510.618 549.787 510.227 550.365 509.955C550.654 509.819 550.87 509.713 551.012 509.643C551.083 509.607 551.136 509.581 551.169 509.563C551.186 509.555 551.197 509.549 551.205 509.545L551.212 509.541L551.273 509.509L571.54 501.11L554.461 475.653L530.156 483.299Z" fill="#17091D"/>
<path d="M514.131 539.596C512.819 539.597 511.523 539.304 510.339 538.737C509.155 538.171 508.113 537.346 507.29 536.323L494.319 519.905C491.819 516.818 493.294 512.051 495.318 508.909L495.362 508.847L506.24 493.607C506.451 493.276 506.763 492.72 507.126 492.076C509.412 488.029 511.334 484.902 513.507 484.545L529.973 481.865L542.192 494.476C543.347 495.633 545.687 499.727 547.369 503.04C551.166 510.523 550.766 511.829 550.577 512.458L550.556 512.523L542.875 531.774C542.355 533.453 541.343 534.937 539.97 536.034C538.597 537.13 536.927 537.789 535.176 537.923L514.862 539.567C514.626 539.589 514.386 539.596 514.135 539.596H514.131Z" fill="#7E4282"/>
<path d="M529.391 483.637L541.018 495.637C542.835 497.455 549.582 510.135 549.011 512L541.316 531.237C540.894 532.613 540.069 533.83 538.948 534.731C537.826 535.633 536.46 536.176 535.027 536.291L514.713 537.938C514.52 537.938 514.324 537.96 514.131 537.96C513.063 537.96 512.009 537.722 511.044 537.262C510.08 536.802 509.231 536.132 508.558 535.302L495.601 518.909C493.647 516.498 495.006 512.433 496.691 509.818L507.591 494.546C508.681 492.84 511.766 486.513 513.768 486.182L529.391 483.637ZM530.55 480.135L528.868 480.408L513.245 482.953C510.338 483.426 508.293 486.709 505.702 491.295C505.379 491.869 505.07 492.415 504.881 492.717L494.032 507.917L493.988 507.982L493.945 508.044C491.627 511.64 490.002 517.175 493.047 520.953L505.993 537.346V537.364C506.97 538.574 508.206 539.549 509.609 540.217C511.013 540.886 512.548 541.232 514.102 541.229C514.382 541.229 514.669 541.229 514.945 541.197L535.263 539.549C537.328 539.391 539.298 538.617 540.921 537.329C542.543 536.041 543.744 534.297 544.368 532.32L552.02 513.204L552.071 513.077L552.111 512.942C552.499 511.666 552.27 510.248 551.271 507.702C550.545 505.818 549.516 503.728 548.797 502.306C548.434 501.578 545.164 495.2 543.325 493.335L531.699 481.335L530.51 480.109L530.55 480.135Z" fill="#17091D"/>
<path d="M510.941 538.244L504.18 605.637L537.243 634.728L543.056 635.818L566.31 604.546L539.892 535.898L510.941 538.244Z" fill="#7E4282"/>
<path d="M567.71 604.007L568.006 604.778L543.701 637.466L536.562 636.126L502.61 606.254L509.573 536.85L540.889 534.312L567.71 604.007ZM512.309 539.638L505.748 605.019L537.923 633.328L542.412 634.171L564.613 604.312L538.895 537.483L512.309 539.638Z" fill="#17091D"/>
<path d="M577.879 529.526C577.645 529.527 577.414 529.476 577.203 529.377C576.956 529.265 576.74 529.094 576.576 528.878C576.412 528.662 576.304 528.409 576.262 528.141L572.007 500.65C571.957 500.316 572.01 499.974 572.16 499.671L585.748 472.184C585.879 471.919 586.079 471.694 586.328 471.533C586.576 471.373 586.863 471.282 587.158 471.271H587.216C587.501 471.271 587.781 471.346 588.028 471.488C588.276 471.629 588.482 471.833 588.626 472.079L609.699 507.897C609.915 508.264 609.979 508.7 609.879 509.113C609.779 509.527 609.521 509.885 609.162 510.111L578.765 529.275C578.5 529.442 578.192 529.529 577.879 529.526Z" fill="#9C398C"/>
<path d="M587.22 472.909L608.293 508.727L577.897 527.891L573.642 500.4L587.238 472.909M587.238 469.636H587.118C586.529 469.658 585.957 469.838 585.462 470.158C584.967 470.478 584.568 470.926 584.306 471.455L570.71 498.946C570.412 499.55 570.308 500.232 570.412 500.898L574.667 528.389C574.787 529.161 575.178 529.864 575.77 530.372C576.362 530.88 577.117 531.16 577.897 531.16C578.514 531.159 579.118 530.985 579.641 530.658L610.037 511.491C610.758 511.04 611.275 510.326 611.479 509.499C611.682 508.673 611.556 507.8 611.127 507.066L590.054 471.247C589.766 470.756 589.354 470.349 588.86 470.066C588.367 469.783 587.807 469.633 587.238 469.633V469.636Z" fill="#17091D"/>
<path d="M430.43 541.879C429.529 541.879 429.221 541.418 428.479 540.298C428.116 539.741 427.571 538.923 426.895 537.879C425.613 535.912 423.745 533.018 421.343 529.283C417.296 522.989 411.675 514.218 404.63 503.21C392.64 484.469 380.527 465.479 380.407 465.29C380.268 465.073 380.182 464.826 380.156 464.57C380.131 464.313 380.167 464.054 380.261 463.814C380.355 463.573 380.504 463.359 380.697 463.188C380.89 463.016 381.12 462.893 381.37 462.829L386.216 461.563L392.306 459.97C392.564 459.904 392.835 459.903 393.094 459.967C393.353 460.03 393.593 460.156 393.792 460.334L470.255 526.883C470.477 527.074 470.643 527.322 470.736 527.599C470.829 527.877 470.845 528.174 470.784 528.461C470.723 528.747 470.586 529.012 470.387 529.227C470.189 529.442 469.936 529.599 469.656 529.683C455.311 534.014 433.511 540.687 431.331 541.61C431.064 541.786 430.751 541.88 430.43 541.879Z" fill="#9C398C"/>
<path d="M392.724 461.552L465.391 524.803L469.195 528.116C469.195 528.116 430.423 539.817 430.431 540.243C430.169 540.243 381.788 464.41 381.788 464.41L386.642 463.145L392.731 461.552M392.731 458.279C392.452 458.28 392.174 458.316 391.903 458.385L385.813 459.977L380.97 461.243C380.469 461.372 380.005 461.617 379.617 461.96C379.229 462.303 378.928 462.733 378.739 463.216C378.549 463.698 378.477 464.218 378.527 464.733C378.578 465.249 378.75 465.745 379.03 466.181C379.153 466.37 391.267 485.359 403.257 504.105C410.298 515.112 415.923 523.887 419.97 530.177C422.376 533.916 424.243 536.81 425.522 538.781C426.216 539.847 426.75 540.665 427.117 541.214C427.905 542.403 428.654 543.527 430.431 543.527C431.003 543.527 431.566 543.376 432.062 543.09C434.798 541.999 456.671 535.323 470.128 531.261C470.688 531.092 471.193 530.776 471.589 530.346C471.986 529.916 472.26 529.387 472.383 528.815C472.506 528.242 472.473 527.648 472.288 527.092C472.103 526.537 471.772 526.042 471.331 525.657L467.527 522.345L394.86 459.094C394.265 458.575 393.502 458.29 392.713 458.29L392.731 458.279Z" fill="#17091D"/>
<path d="M542.384 647.894C542.04 647.894 541.705 647.785 541.425 647.585L434.238 570.028C433.892 569.777 433.658 569.4 433.586 568.978C433.514 568.556 433.61 568.123 433.853 567.77L462.07 526.959C462.216 526.748 462.41 526.574 462.636 526.451C462.862 526.328 463.113 526.261 463.37 526.254H463.414C463.663 526.254 463.909 526.311 464.134 526.421C464.358 526.53 464.554 526.69 464.707 526.887L465.932 528.468L547.188 633.559C547.345 633.763 547.451 634.001 547.499 634.254C547.546 634.507 547.533 634.767 547.46 635.014L545.055 643.087L543.965 646.723C543.862 647.059 543.655 647.353 543.373 647.563C543.091 647.772 542.75 647.886 542.399 647.887L542.384 647.894Z" fill="#CE44A2"/>
<path d="M463.414 527.89L464.638 529.472L545.894 634.563L543.478 642.621L542.388 646.257L435.205 568.701L463.414 527.89ZM463.414 524.617H463.327C462.813 524.631 462.309 524.766 461.857 525.011C461.405 525.256 461.018 525.605 460.725 526.028L432.523 566.839C432.037 567.543 431.846 568.41 431.99 569.253C432.135 570.097 432.604 570.85 433.297 571.352L540.481 648.908C541.037 649.313 541.707 649.531 542.395 649.53C543.098 649.53 543.783 649.303 544.347 648.883C544.911 648.464 545.325 647.873 545.527 647.199L546.617 643.563L549.033 635.504C549.183 635.006 549.212 634.478 549.117 633.966C549.023 633.453 548.807 632.971 548.488 632.559L467.233 527.468L466.008 525.886C465.702 525.491 465.31 525.171 464.862 524.951C464.413 524.731 463.921 524.617 463.421 524.617H463.414Z" fill="#17091D"/>
<path d="M543.478 642.618L542.388 646.254L435.205 568.698L463.414 527.891L464.638 529.472C460.642 535.952 446.446 560.502 456.456 568.702C466.466 576.902 526.808 628.392 543.478 642.618Z" fill="#9C398C"/>
<path d="M537.389 668.654C537.142 668.654 536.898 668.598 536.676 668.491C536.453 668.383 536.258 668.227 536.105 668.033C535.952 667.839 535.845 667.613 535.792 667.372C535.738 667.13 535.74 666.88 535.797 666.64L536.433 663.952L569.035 526.676L572.788 510.498C572.856 510.203 573.004 509.933 573.217 509.718C573.429 509.503 573.697 509.351 573.991 509.28C574.118 509.248 574.248 509.232 574.38 509.232C574.615 509.232 574.848 509.284 575.062 509.382C575.275 509.481 575.465 509.624 575.619 509.803L611.105 551.123C611.256 551.303 611.367 551.512 611.429 551.738C611.492 551.964 611.506 552.201 611.469 552.432C607.043 581.625 541.451 664.52 538.66 668.036C538.508 668.228 538.315 668.383 538.095 668.49C537.875 668.597 537.633 668.653 537.389 668.654Z" fill="#CE44A2"/>
<path d="M574.373 510.868L609.859 552.188C605.449 581.279 537.389 667.017 537.389 667.017L538.025 664.33L570.619 527.053L570.943 525.661L574.373 510.868ZM574.373 507.595C574.109 507.594 573.847 507.626 573.591 507.69C573.004 507.834 572.469 508.139 572.044 508.569C571.62 509 571.323 509.54 571.186 510.13L567.756 524.922L567.433 526.312L534.842 663.573L534.206 666.264C534.025 666.993 534.1 667.763 534.418 668.443C534.737 669.124 535.28 669.674 535.956 670.001C536.632 670.328 537.399 670.412 538.13 670.24C538.861 670.067 539.51 669.648 539.969 669.053C540.139 668.839 557.245 647.253 574.667 622.392C598.284 588.704 611.204 565.25 613.111 552.679C613.181 552.213 613.15 551.737 613.02 551.284C612.89 550.831 612.665 550.412 612.359 550.053L576.854 508.726C576.547 508.369 576.166 508.082 575.738 507.885C575.309 507.689 574.844 507.587 574.373 507.588V507.595Z" fill="#17091D"/>
<path d="M609.859 552.189C605.448 581.28 537.389 667.018 537.389 667.018L538.025 664.331C548.394 646.924 567.371 615.211 571.473 609.495C577.181 601.531 588.292 565.455 587.035 554.065C585.839 543.273 572.305 527.273 570.942 525.662L574.372 510.869L609.859 552.189Z" fill="#9C398C"/>
<path d="M570.83 527.166C570.75 527.171 570.67 527.171 570.59 527.166C570.311 527.125 570.047 527.011 569.824 526.837C569.601 526.663 569.427 526.435 569.319 526.173L549.539 478.279C549.401 477.944 549.379 477.573 549.474 477.223C549.569 476.874 549.777 476.566 550.066 476.348L550.175 476.264C550.44 476.05 551.04 475.559 551.839 474.81L552.202 474.49C552.242 474.446 552.289 474.402 552.337 474.359C552.46 474.242 552.584 474.126 552.7 473.995C552.998 473.7 553.303 473.395 553.616 473.068L553.641 473.039C553.725 472.955 553.808 472.871 553.892 472.78C554.324 472.322 554.746 471.853 555.16 471.38C555.574 470.908 555.944 470.457 556.297 470.013C556.41 469.875 556.504 469.751 556.606 469.62C556.708 469.49 556.737 469.45 556.798 469.37L556.926 469.202C557.02 469.079 557.114 468.959 557.202 468.839L557.234 468.791C557.322 468.679 557.401 468.566 557.485 468.453L557.623 468.26L557.816 467.984C557.824 467.97 557.834 467.957 557.845 467.944C557.939 467.81 558.03 467.675 558.121 467.537L558.161 467.482C558.252 467.351 558.339 467.22 558.422 467.082L558.644 466.744L558.786 466.519C558.844 466.431 558.898 466.34 558.953 466.246L559.015 466.148C559.12 465.977 559.211 465.828 559.302 465.671C559.393 465.515 559.465 465.399 559.538 465.264C559.647 465.075 559.749 464.9 559.847 464.704L559.872 464.664C559.956 464.515 560.036 464.366 560.112 464.213C560.111 464.201 560.111 464.189 560.112 464.177C560.195 464.024 560.275 463.871 560.348 463.711L560.37 463.668C560.443 463.526 560.512 463.384 560.581 463.239L560.668 463.06C560.726 462.94 560.788 462.806 560.846 462.671C560.904 462.537 561.002 462.326 561.071 462.159L561.097 462.1C561.166 461.944 561.235 461.78 561.296 461.62C561.296 461.62 561.296 461.595 561.296 461.58C561.449 461.217 561.591 460.853 561.721 460.46C561.787 460.282 561.838 460.137 561.881 459.988V459.937C561.994 459.61 562.099 459.257 562.201 458.89C562.201 458.846 562.23 458.788 562.245 458.737C562.288 458.591 562.328 458.435 562.365 458.279V458.228C562.412 458.053 562.455 457.864 562.495 457.697C562.535 457.53 562.561 457.399 562.586 457.26V457.213C562.641 456.962 562.688 456.711 562.732 456.457C562.753 456.311 562.779 456.166 562.801 456.017V455.937C562.801 455.893 562.801 455.85 562.801 455.81C562.822 455.693 562.837 455.577 562.848 455.446C562.848 455.402 562.877 455.18 562.881 455.155C562.902 455.002 562.917 454.846 562.928 454.69C562.93 454.674 562.93 454.658 562.928 454.642C562.928 454.471 562.96 454.297 562.964 454.126C562.964 454.086 562.964 454.05 562.964 454.01C562.964 453.828 562.986 453.646 562.99 453.464C562.99 453.442 562.99 453.34 562.99 453.315C563.037 451.22 563.48 444.33 567.317 441.751L567.368 441.715C568.253 441.125 569.294 440.814 570.358 440.82C573.399 440.82 576.793 443.18 580.735 448.046C585.887 454.402 587.965 463.842 586.737 475.344C583.282 507.824 575.11 522.024 572.672 525.606C572.262 526.213 572.011 526.522 571.982 526.555C571.842 526.731 571.668 526.876 571.47 526.981C571.272 527.086 571.054 527.149 570.83 527.166Z" fill="#CE44A2"/>
<path d="M570.467 442.473C572.702 442.473 575.681 444.291 579.572 449.091C584.532 455.211 586.385 464.269 585.222 475.185C581.789 507.454 573.697 521.367 571.415 524.702C571.052 525.265 570.816 525.531 570.816 525.531L570.056 523.713L551.999 479.985L551.73 479.334L551.036 477.654L551.076 477.625C551.102 477.601 551.13 477.579 551.16 477.56C551.414 477.353 552.061 476.833 552.94 476.014L553.303 475.676L553.419 475.564C553.554 475.436 553.692 475.305 553.834 475.164C554.132 474.873 554.448 474.553 554.775 474.211L555.069 473.905C555.487 473.462 555.923 472.982 556.37 472.469C556.762 472.018 557.162 471.542 557.558 471.04C557.667 470.905 557.772 470.771 557.881 470.629L558.201 470.211C558.31 470.069 558.419 469.927 558.521 469.782L558.84 469.345C558.946 469.196 559.055 469.047 559.156 468.894C559.258 468.742 559.367 468.593 559.469 468.436C559.571 468.28 559.68 468.127 559.781 467.967C559.883 467.807 560.018 467.604 560.145 467.414C560.272 467.225 560.315 467.138 560.399 467C560.483 466.862 560.599 466.673 560.697 466.505C560.795 466.338 560.868 466.218 560.951 466.069C561.035 465.92 561.169 465.68 561.275 465.484C561.38 465.287 561.464 465.138 561.554 464.96C561.645 464.782 561.74 464.596 561.827 464.425C561.914 464.254 562.038 463.996 562.143 463.778C562.212 463.633 562.281 463.484 562.347 463.334C562.412 463.185 562.514 462.971 562.59 462.778C562.666 462.585 562.753 462.414 562.826 462.211C562.988 461.813 563.141 461.41 563.284 461C563.349 460.822 563.411 460.636 563.466 460.469C563.593 460.105 563.709 459.713 563.829 459.331L563.862 459.214C563.916 459.029 563.963 458.851 564.007 458.654C564.051 458.458 564.112 458.247 564.156 458.04C564.2 457.833 564.229 457.72 564.258 457.56C564.316 457.287 564.367 457.014 564.414 456.742C564.443 456.571 564.472 456.4 564.494 456.225C564.494 456.185 564.494 456.145 564.494 456.102C564.519 455.953 564.537 455.804 564.556 455.651C564.556 455.571 564.556 455.491 564.581 455.411C564.606 455.225 564.625 455.047 564.639 454.847C564.654 454.647 564.675 454.425 564.683 454.214C564.685 454.201 564.685 454.188 564.683 454.174C564.683 453.96 564.708 453.745 564.712 453.527C564.712 453.469 564.712 453.407 564.712 453.349C564.799 449.349 565.849 444.764 568.345 443.12C568.964 442.707 569.691 442.49 570.434 442.494M570.434 439.222C569.052 439.215 567.699 439.62 566.547 440.385L566.467 440.44C562.107 443.382 561.496 450.389 561.431 453.28V453.331C561.431 453.378 561.431 453.425 561.431 453.476C561.431 453.607 561.431 453.749 561.413 453.92C561.409 453.982 561.409 454.044 561.413 454.105C561.413 454.24 561.413 454.378 561.384 454.513C561.382 454.542 561.382 454.571 561.384 454.6C561.384 454.749 561.358 454.869 561.344 454.964C561.344 455.011 561.344 455.062 561.344 455.109V455.156C561.344 455.204 561.344 455.251 561.344 455.298C561.344 455.345 561.344 455.465 561.311 455.545L561.289 455.687C561.289 455.731 561.289 455.774 561.289 455.814C561.289 455.942 561.253 456.065 561.231 456.178C561.184 456.436 561.144 456.658 561.1 456.862C561.099 456.894 561.099 456.927 561.1 456.96C561.079 457.073 561.053 457.182 561.028 457.294C561.028 457.294 561.028 457.334 561.028 457.349C561.002 457.476 560.97 457.618 560.922 457.793C560.922 457.829 560.9 457.865 560.893 457.902C560.86 458.044 560.828 458.167 560.799 458.265C560.799 458.309 560.766 458.374 560.748 458.44C560.657 458.767 560.559 459.087 560.457 459.389L560.425 459.487C560.392 459.6 560.345 459.731 560.301 459.851L560.279 459.909C560.159 460.273 560.028 460.604 559.89 460.942C559.89 460.964 559.89 460.989 559.861 461.014C559.81 461.149 559.752 461.287 559.698 461.411L559.643 461.531C559.592 461.662 559.527 461.807 559.465 461.945C559.455 461.961 559.446 461.978 559.44 461.996C559.389 462.113 559.334 462.229 559.28 462.36L559.2 462.524C559.138 462.654 559.077 462.785 559.011 462.913C558.994 462.942 558.98 462.972 558.968 463.004C558.902 463.134 558.837 463.265 558.768 463.393C558.768 463.418 558.742 463.444 558.728 463.465C558.662 463.596 558.593 463.731 558.528 463.829L558.481 463.913L558.194 464.436C558.121 464.567 558.052 464.68 557.979 464.8V464.825C557.896 464.971 557.812 465.109 557.725 465.251L557.703 465.284L557.645 465.378L557.503 465.611L557.358 465.84L557.162 466.142L557.133 466.189C557.064 466.294 556.987 466.414 556.918 466.513C556.89 466.55 556.863 466.589 556.838 466.629C556.758 466.749 556.679 466.869 556.595 466.993L556.544 467.069C556.49 467.153 556.431 467.233 556.373 467.313L556.293 467.425L556.017 467.789L555.955 467.876C555.883 467.982 555.803 468.084 555.723 468.185L555.578 468.374C555.523 468.444 555.472 468.516 555.418 468.582V468.604C555.327 468.724 555.236 468.836 555.145 468.949L555.12 468.982C554.786 469.404 554.429 469.829 554.03 470.291C553.63 470.753 553.223 471.2 552.816 471.633C552.747 471.709 552.675 471.782 552.606 471.854C552.587 471.87 552.57 471.887 552.555 471.905C552.253 472.218 551.962 472.513 551.694 472.778L551.661 472.807C551.548 472.92 551.439 473.025 551.33 473.127C551.283 473.171 551.232 473.218 551.189 473.265L550.858 473.574C550.131 474.247 549.572 474.705 549.306 474.92L549.179 475.022C548.615 475.463 548.209 476.077 548.024 476.77C547.839 477.463 547.885 478.197 548.155 478.862L548.849 480.542L549.118 481.193L567.175 524.92L567.935 526.738C568.151 527.261 568.499 527.719 568.945 528.066C569.39 528.414 569.919 528.641 570.478 528.724C570.638 528.748 570.799 528.76 570.961 528.76C571.447 528.763 571.927 528.657 572.367 528.451C572.807 528.244 573.196 527.943 573.505 527.567C573.577 527.476 573.868 527.134 574.286 526.494C576.764 522.836 585.128 508.345 588.623 475.487C589.894 463.545 587.696 453.691 582.261 446.985C577.992 441.716 574.184 439.156 570.634 439.156L570.434 439.222Z" fill="#17091D"/>
<path d="M585.222 475.184C581.788 507.454 573.697 521.366 571.415 524.701L570.979 523.694C574.551 505.334 579.634 473.308 575.423 457.272C574.035 452.122 571.635 447.3 568.363 443.09C570.696 441.552 574.296 442.588 579.558 449.083C584.532 455.21 586.385 464.268 585.222 475.184Z" fill="#9C398C"/>
<path d="M568.116 446.72C567.311 449.289 566.756 451.931 566.459 454.607C566.288 456.198 565.933 457.763 565.402 459.272C562.132 468.727 560.293 474.734 556.489 476.64C555.036 477.367 553.514 479.058 551.959 480L551.05 477.636L551.09 477.607C551.116 477.583 551.144 477.561 551.174 477.542C551.428 477.334 552.075 476.814 552.954 475.996L553.317 475.658L553.434 475.545L553.848 475.145C554.146 474.854 554.462 474.534 554.789 474.192L555.083 473.887C555.501 473.443 555.937 472.963 556.384 472.451C556.776 472 557.172 471.523 557.572 471.022C557.681 470.887 557.786 470.752 557.895 470.611L558.215 470.192C558.321 470.051 558.43 469.909 558.535 469.763L558.855 469.327L559.171 468.876C559.276 468.727 559.382 468.571 559.483 468.418L559.796 467.949C559.916 467.767 560.032 467.585 560.159 467.396C560.286 467.207 560.33 467.123 560.413 466.982C560.497 466.84 560.613 466.654 560.711 466.487C560.809 466.32 560.882 466.196 560.966 466.051C561.049 465.905 561.184 465.662 561.289 465.465C561.394 465.269 561.478 465.102 561.569 464.942C561.66 464.782 561.754 464.578 561.841 464.407C561.928 464.236 562.052 463.978 562.157 463.76C562.226 463.614 562.292 463.465 562.361 463.316C562.43 463.167 562.524 462.952 562.604 462.76C562.684 462.567 562.764 462.396 562.84 462.192C563.003 461.795 563.155 461.391 563.298 460.982C563.364 460.803 563.422 460.618 563.48 460.451C563.603 460.087 563.72 459.694 563.843 459.312L563.876 459.196C563.927 459.011 563.978 458.832 564.021 458.636C564.065 458.44 564.123 458.225 564.17 458.022C564.217 457.818 564.239 457.702 564.272 457.542C564.33 457.269 564.381 456.996 564.428 456.723C564.457 456.552 564.483 456.382 564.508 456.207C564.508 456.167 564.508 456.127 564.508 456.083C564.53 455.934 564.552 455.785 564.57 455.632C564.57 455.552 564.57 455.472 564.595 455.392C564.617 455.207 564.635 455.029 564.653 454.829C564.672 454.629 564.686 454.407 564.697 454.196C564.699 454.183 564.699 454.169 564.697 454.156C564.697 453.942 564.719 453.727 564.726 453.509C564.726 453.451 564.726 453.389 564.726 453.331C564.813 449.331 565.863 444.745 568.359 443.102C568.868 443.654 568.592 445.167 568.116 446.72Z" fill="#D969BD"/>
<path d="M470.121 529.526C457.957 529.323 439.162 518.454 414.259 497.217C395.867 481.534 380.756 465.697 380.603 465.537C380.421 465.367 380.282 465.156 380.196 464.921C380.111 464.687 380.081 464.436 380.109 464.188C380.138 463.955 380.22 463.732 380.35 463.536C380.48 463.34 380.654 463.178 380.858 463.061C381.221 462.723 385.218 458.73 389.363 439.981C392.132 427.468 396.724 422.032 400.085 419.672C401.313 418.81 402.316 418.035 402.941 417.534C403.366 417.195 403.762 416.872 404.085 416.592C404.389 416.332 404.776 416.191 405.175 416.195C405.554 416.191 405.922 416.319 406.215 416.559C406.51 416.806 406.709 417.149 406.775 417.529C406.842 417.908 406.772 418.299 406.578 418.632C406.512 418.745 404.983 421.523 406.64 426.545C408.253 431.435 413.274 439.323 428.033 449.126C462.869 472.268 497.844 484.901 498.192 485.025C498.427 485.108 498.639 485.243 498.813 485.421C498.986 485.599 499.118 485.814 499.196 486.05C499.274 486.286 499.297 486.537 499.264 486.783C499.23 487.03 499.141 487.265 499.003 487.472L471.509 528.799C471.36 529.023 471.158 529.207 470.921 529.333C470.684 529.46 470.419 529.527 470.15 529.526H470.121Z" fill="#CE44A2"/>
<path d="M405.172 417.818C405.012 418.094 397.684 430.934 427.135 450.498C462.542 474.018 497.651 486.574 497.651 486.574L496.136 488.85L479.059 514.487L470.15 527.89C441.756 527.418 381.788 464.41 381.788 464.41C381.788 464.41 386.279 461.454 390.958 440.334C393.596 428.418 397.836 423.243 401.026 421.014C402.229 420.17 403.243 419.392 403.966 418.832C404.689 418.272 405.117 417.865 405.172 417.818ZM405.172 414.545C404.391 414.545 403.636 414.825 403.043 415.334C402.872 415.483 402.498 415.8 401.953 416.243C401.346 416.727 400.372 417.48 399.173 418.32C393.938 421.992 390.09 429.156 387.79 439.61C383.848 457.429 380.124 461.49 379.797 461.792C379.435 462.073 379.136 462.426 378.919 462.83C378.702 463.233 378.572 463.678 378.538 464.135C378.504 464.592 378.566 465.051 378.72 465.482C378.874 465.914 379.117 466.308 379.433 466.64C379.586 466.796 394.759 482.694 413.223 498.436C438.421 519.923 457.55 530.923 470.118 531.134H470.172C470.71 531.134 471.24 531.002 471.715 530.748C472.19 530.494 472.595 530.127 472.894 529.68L481.813 516.28L498.89 490.643L500.405 488.367C500.681 487.953 500.859 487.482 500.925 486.989C500.992 486.496 500.945 485.994 500.789 485.522C500.633 485.05 500.371 484.619 500.024 484.264C499.677 483.908 499.253 483.636 498.785 483.469C498.421 483.345 463.614 470.741 428.978 447.749C414.935 438.421 410.022 431.021 408.377 426.44C406.789 422.025 407.959 419.589 408.05 419.41C408.328 418.911 408.47 418.347 408.463 417.775C408.455 417.203 408.298 416.643 408.007 416.151C407.716 415.658 407.301 415.251 406.803 414.969C406.306 414.688 405.743 414.541 405.172 414.545Z" fill="#17091D"/>
<path d="M479.07 514.49L470.15 527.89C441.756 527.417 381.788 464.41 381.788 464.41C381.788 464.41 386.278 461.454 390.958 440.334C393.596 428.417 397.836 423.243 401.026 421.014C399.573 429.279 399.209 441.337 404.445 455.039C412.006 474.835 458.258 502.737 479.07 514.49Z" fill="#9C398C"/>
<path d="M497.648 486.577L496.132 488.853C493.091 488.006 489.534 486.944 485.37 485.617C456.765 476.504 408.987 442.726 404.627 432.18C402.084 426.064 402.868 421.537 403.966 418.813C404.692 418.238 405.117 417.864 405.168 417.82C405.008 418.097 397.68 430.937 427.132 450.5C462.539 474.02 497.648 486.577 497.648 486.577Z" fill="#D969BD"/>
</svg>
