<svg width="1800" height="1650" viewBox="0 0 1800 1650" fill="none" xmlns="http://www.w3.org/2000/svg">
<g id="Body 13">
<g id="glove 2">
<path id="Vector" d="M1417.21 1611.77C1404.34 1611.77 1389.7 1605.69 1375.55 1599.77C1370.72 1597.77 1366.17 1595.87 1361.88 1594.31C1355.12 1591.85 1350.32 1590.71 1346.76 1590.71C1346.17 1590.71 1345.58 1590.75 1345 1590.82C1343.28 1591.06 1341.54 1591.19 1339.8 1591.19C1329.87 1591.19 1320.7 1587.07 1315.27 1580.19C1313.06 1577.44 1311.51 1574.21 1310.76 1570.76C1310 1567.31 1310.05 1563.73 1310.91 1560.31C1310.99 1560.01 1311.05 1559.71 1311.11 1559.39C1314.01 1544.3 1323.49 1499.39 1328.72 1482.62C1330.58 1476.62 1327.85 1468.27 1324.96 1459.41C1321.29 1448.13 1317.11 1435.34 1322.25 1424.41C1322.55 1423.78 1322.85 1423.19 1323.16 1422.59C1331.72 1406.22 1356.69 1374.52 1362.24 1367.59C1361.97 1361.24 1361.14 1338.13 1361.87 1313.65C1363.64 1254.39 1372.62 1244.95 1375.58 1241.85C1376.67 1240.62 1378 1239.62 1379.49 1238.93C1380.98 1238.25 1382.6 1237.88 1384.24 1237.85C1393.56 1237.85 1419.24 1229.17 1439.79 1222.19C1453.79 1217.43 1467.12 1212.93 1475.39 1210.99C1479.32 1210.05 1483.35 1209.57 1487.39 1209.56C1498.39 1209.56 1507.25 1213.3 1514.39 1216.3C1519.65 1218.52 1524.19 1220.44 1528.26 1220.44C1529.67 1220.45 1531.06 1220.2 1532.38 1219.7C1533.11 1219.43 1533.89 1219.29 1534.67 1219.29C1541.17 1219.29 1544.17 1227.84 1546.67 1240.69C1548.53 1250.28 1550.23 1263.59 1551.67 1280.25C1553.91 1305.38 1554.99 1330.8 1555.21 1336.25C1560.9 1346.6 1605.21 1429.46 1599.21 1489.05C1597.4 1507.11 1591.07 1521.42 1580.4 1531.59L1579.73 1532.21C1574.9 1536.66 1570.01 1540.9 1565.17 1544.84C1553.5 1554.46 1540.95 1562.96 1527.68 1570.21C1501.04 1584.52 1483.31 1586.06 1476.92 1586.06C1475.51 1586.07 1474.09 1585.98 1472.69 1585.79H1472.35C1471.87 1585.8 1471.39 1585.88 1470.93 1586.03C1467.7 1586.96 1463.19 1590.15 1457.93 1593.84C1449.16 1600.04 1438.24 1607.76 1424.93 1610.93C1422.4 1611.51 1419.81 1611.79 1417.21 1611.77Z" fill="#CE44A2"/>
<path id="Vector_2" d="M1487.38 1214.05C1505.45 1214.05 1516.93 1224.92 1528.22 1224.92C1530.16 1224.94 1532.09 1224.6 1533.91 1223.92C1534.14 1223.83 1534.38 1223.79 1534.63 1223.79C1546.63 1223.79 1550.77 1337.53 1550.77 1337.53C1550.77 1337.53 1600.9 1427.03 1594.77 1488.65C1593.19 1504.35 1587.97 1518.23 1577.33 1528.37L1576.69 1528.97C1571.8 1533.47 1567.02 1537.61 1562.36 1541.39C1550.92 1550.84 1538.61 1559.18 1525.58 1566.29C1502.52 1578.68 1485.4 1581.61 1476.95 1581.61C1475.76 1581.62 1474.57 1581.54 1473.39 1581.38C1473.06 1581.33 1472.72 1581.31 1472.39 1581.31C1471.49 1581.32 1470.59 1581.46 1469.73 1581.72C1459.73 1584.59 1444.63 1601.66 1423.91 1606.57C1421.72 1607.07 1419.48 1607.32 1417.24 1607.3C1400.99 1607.3 1380.12 1596.23 1363.44 1590.16C1357.14 1587.86 1351.44 1586.29 1346.79 1586.29C1345.99 1586.29 1345.2 1586.34 1344.41 1586.44C1342.89 1586.65 1341.36 1586.76 1339.82 1586.76C1324.15 1586.76 1311.98 1575.3 1315.3 1561.42C1315.39 1561.05 1315.48 1560.67 1315.55 1560.25C1318.74 1543.67 1328.03 1500.04 1333.03 1484.02C1338.03 1468 1318.2 1443.7 1326.34 1426.37C1326.6 1425.82 1326.87 1425.27 1327.16 1424.72C1336.51 1406.84 1366.82 1369.08 1366.82 1369.08C1366.82 1369.08 1360.64 1242.36 1384.26 1242.36C1400.64 1242.36 1455.52 1220.28 1476.44 1215.36C1480.04 1214.5 1483.74 1214.06 1487.44 1214.06M1487.44 1205.06C1483.06 1205.08 1478.7 1205.59 1474.44 1206.6C1465.96 1208.6 1452.59 1213.12 1438.44 1217.92C1419.23 1224.43 1392.91 1233.35 1384.33 1233.35C1382.08 1233.37 1379.85 1233.86 1377.8 1234.79C1375.75 1235.72 1373.91 1237.06 1372.41 1238.74C1366.78 1244.66 1359.1 1258.84 1357.47 1313.51C1356.78 1336.61 1357.47 1357.98 1357.77 1366.09C1350.6 1375.15 1327.55 1404.71 1319.27 1420.54C1318.96 1421.12 1318.65 1421.73 1318.27 1422.47V1422.53C1312.38 1435.08 1316.84 1448.77 1320.78 1460.84C1323.33 1468.65 1325.96 1476.71 1324.52 1481.32C1319.24 1498.25 1309.7 1543.42 1306.8 1558.54C1306.8 1558.54 1306.8 1558.6 1306.8 1558.63C1306.8 1558.82 1306.72 1559.03 1306.67 1559.26C1305.64 1563.35 1305.57 1567.63 1306.47 1571.75C1307.37 1575.87 1309.21 1579.73 1311.85 1583.02C1318.13 1591.02 1328.62 1595.73 1339.91 1595.73C1341.86 1595.73 1343.82 1595.59 1345.75 1595.32C1346.12 1595.27 1346.5 1595.25 1346.88 1595.25C1349.88 1595.25 1354.3 1596.34 1360.46 1598.59C1364.65 1600.11 1369.17 1601.99 1373.94 1603.97C1388.5 1609.97 1403.56 1616.26 1417.33 1616.26C1420.28 1616.27 1423.21 1615.93 1426.08 1615.26C1440.28 1611.9 1451.59 1603.9 1460.69 1597.47C1465.17 1594.3 1469.8 1591.02 1472.3 1590.31H1472.46C1473.98 1590.51 1475.52 1590.6 1477.05 1590.59C1483.78 1590.59 1502.4 1589 1529.93 1574.21C1543.46 1566.82 1556.25 1558.17 1568.14 1548.36C1573.04 1544.36 1578 1540.07 1582.88 1535.58L1582.99 1535.48L1583.6 1534.9C1595.05 1523.99 1601.84 1508.73 1603.76 1489.58C1606.45 1462.58 1599.64 1428 1583.51 1386.75C1576.6 1369.08 1568.66 1351.84 1559.74 1335.1C1559.44 1327.92 1558.35 1303.78 1556.23 1279.9C1554.73 1263.09 1553 1249.62 1551.11 1239.9C1550.25 1234.94 1548.93 1230.07 1547.17 1225.35C1544.34 1218.35 1540.17 1214.86 1534.71 1214.85C1533.39 1214.85 1532.08 1215.09 1530.85 1215.55C1530.03 1215.86 1529.16 1216.01 1528.29 1216C1525.13 1216 1520.98 1214.25 1516.17 1212.22C1508.68 1209.06 1499.36 1205.13 1487.45 1205.13L1487.44 1205.06Z" fill="#17091D"/>
<path id="Vector_3" d="M1344.38 1586.42C1349.38 1585.72 1355.98 1587.42 1363.38 1590.14C1382.45 1597.08 1406.99 1610.55 1423.86 1606.55C1444.57 1601.64 1459.68 1584.55 1469.67 1581.7C1470.85 1581.32 1472.11 1581.21 1473.34 1581.36C1479.67 1582.36 1498.52 1580.78 1525.53 1566.27C1538.56 1559.16 1550.87 1550.82 1562.31 1541.37C1566.98 1537.58 1571.75 1533.44 1576.64 1528.95L1577.28 1528.35C1585.65 1520.23 1591.28 1506.35 1594.72 1488.63C1600.87 1427.01 1550.72 1337.51 1550.72 1337.51C1550.72 1337.51 1546.42 1219.23 1533.86 1223.9C1518.39 1229.67 1504.55 1208.74 1476.36 1215.35C1455.44 1220.26 1400.56 1242.35 1384.18 1242.35C1360.56 1242.35 1366.74 1369.07 1366.74 1369.07C1366.74 1369.07 1336.43 1406.83 1327.08 1424.71C1326.79 1425.26 1326.52 1425.81 1326.26 1426.36C1332.53 1420.63 1363.52 1393.18 1386.33 1389.97C1411.81 1386.39 1474.83 1384.07 1497.44 1378.58C1520.05 1373.09 1538.81 1402.52 1546.84 1437.88C1552.22 1461.49 1565.71 1491.09 1559.1 1513.56C1555.82 1524.74 1547.58 1534.15 1530.92 1540.21C1529.17 1540.85 1527.45 1541.46 1525.78 1542.05C1501.26 1550.6 1483.24 1554.18 1468.91 1557.34C1455.91 1560.2 1445.97 1562.71 1436.91 1568.23C1422.22 1577.23 1397.82 1593.74 1358.91 1582.23C1346.05 1578.42 1331.59 1571.52 1315.38 1560.23C1315.31 1560.65 1315.22 1561.03 1315.13 1561.4C1311.63 1576.61 1326.59 1588.92 1344.38 1586.42Z" fill="#9C398C"/>
<path id="Vector_4" d="M1390.57 1543.13C1390.57 1543.13 1386.38 1512.48 1350.57 1492.13" stroke="#17091D" stroke-width="8.86" stroke-linecap="round" stroke-linejoin="round"/>
<path id="Vector_5" d="M1371.86 1512.65C1371.86 1512.65 1336.51 1556.23 1366.51 1594.45" stroke="#17091D" stroke-width="8.86" stroke-linecap="round" stroke-linejoin="round"/>
<path id="Vector_6" d="M1455.58 1510.44C1455.58 1510.44 1474.99 1557.3 1469.23 1584.36" stroke="#17091D" stroke-width="10.67" stroke-linecap="round" stroke-linejoin="round"/>
<path id="Vector_7" d="M1518.18 1514.17C1518.18 1514.17 1535.44 1557.86 1521.64 1573.73" stroke="#17091D" stroke-width="8.79" stroke-linecap="round" stroke-linejoin="round"/>
<path id="Vector_8" d="M1558.81 1512.72C1558.81 1512.72 1570.7 1539.99 1555.6 1552.1" stroke="#17091D" stroke-width="7" stroke-linecap="round" stroke-linejoin="round"/>
<path id="Vector_9" d="M1425 1567C1432.18 1567 1438 1554.24 1438 1538.5C1438 1522.76 1432.18 1510 1425 1510C1417.82 1510 1412 1522.76 1412 1538.5C1412 1554.24 1417.82 1567 1425 1567Z" fill="#D969BD"/>
<path id="Vector_10" d="M1496.06 1539.13C1503.02 1537.35 1506.16 1526.15 1503.08 1514.11C1500 1502.07 1491.86 1493.75 1484.91 1495.53C1477.95 1497.31 1474.81 1508.51 1477.89 1520.55C1480.97 1532.59 1489.1 1540.91 1496.06 1539.13Z" fill="#D969BD"/>
<path id="Vector_11" d="M1540.37 1518.54C1546.38 1517 1549.51 1508.94 1547.36 1500.54C1545.21 1492.14 1538.6 1486.58 1532.59 1488.12C1526.58 1489.65 1523.45 1497.71 1525.6 1506.11C1527.75 1514.51 1534.36 1520.07 1540.37 1518.54Z" fill="#D969BD"/>
</g>
<g id="panth">
<path id="Vector_12" d="M1050.11 1633.16C1046.82 1633.16 1043.54 1633.16 1040.27 1633.16C1016.95 1632.99 993.91 1632.24 973.57 1631.58C954.95 1630.97 938.87 1630.45 925.92 1630.45C913.8 1630.45 905.76 1630.93 901.34 1631.92C897.61 1632.76 891.99 1633.17 884.15 1633.17C876.31 1633.17 866.4 1632.75 854.46 1631.94C785.27 1627.19 655.76 1608.94 598.27 1597.36L595.27 1596.75C548.27 1586.94 521.21 1573.1 507.44 1551.88C496.25 1534.64 493.85 1512.3 500.09 1483.58C514.95 1415.25 569.75 1218.21 570.31 1216.22L570.88 1214.22L671.68 1170.03L1202.4 1202.71L1203.34 1205.62C1203.61 1206.44 1230.02 1288.38 1242.86 1363.3C1255.7 1438.22 1264.32 1575.43 1264.4 1576.81L1264.5 1578.33L1263.64 1579.6C1262.49 1581.32 1250.13 1597.1 1173.64 1620.83C1146.73 1629.09 1106.31 1633.16 1050.11 1633.16Z" fill="#7E4282"/>
<path id="Vector_13" d="M672.5 1174.5L772.5 1180.66L1199.02 1206.92C1199.02 1206.92 1225.45 1288.5 1238.38 1363.92C1251.31 1439.34 1259.87 1576.92 1259.87 1576.92C1259.87 1576.92 1249.45 1592.42 1172.28 1616.36C1140.93 1626.09 1095.28 1628.58 1050.05 1628.58C1046.78 1628.58 1043.51 1628.58 1040.25 1628.58C996.12 1628.26 953.4 1625.87 925.87 1625.87C914.35 1625.87 905.49 1626.29 900.31 1627.45C896.84 1628.23 891.31 1628.59 884.1 1628.59C876.15 1628.59 866.18 1628.15 854.72 1627.37C783.37 1622.47 654.5 1604.04 599.11 1592.87L596.11 1592.26C525.74 1577.57 489.64 1552.5 504.43 1484.46C519.43 1415.46 574.58 1217.35 574.58 1217.35L672.43 1174.46M670.81 1165.34L668.81 1166.22L571 1209.15L567.08 1210.86L566 1215C565.45 1217 510.61 1414.15 495.73 1482.61C489.22 1512.55 491.82 1536.01 503.73 1554.31C511.59 1566.44 523.4 1576.17 539.82 1584.08C553.82 1590.81 571.66 1596.38 594.39 1601.08L595.5 1601.31L597.45 1601.71C655.05 1613.32 784.85 1631.6 854.2 1636.36C866.2 1637.18 876.33 1637.6 884.2 1637.6C892.38 1637.6 898.32 1637.15 902.38 1636.24C906.44 1635.33 914.38 1634.88 925.97 1634.88C938.85 1634.88 954.89 1635.4 973.48 1636.01C993.84 1636.67 1016.91 1637.42 1040.28 1637.59C1043.64 1637.59 1046.96 1637.59 1050.15 1637.59C1107.6 1637.59 1147.29 1633.59 1175.05 1624.97C1251.38 1601.28 1265.4 1584.97 1267.44 1581.97L1269.14 1579.44L1268.95 1576.44C1268.87 1575.06 1260.21 1437.52 1247.35 1362.44C1234.46 1287.2 1207.95 1204.96 1207.68 1204.14L1205.79 1198.3L1199.67 1197.93L773.1 1171.68L673.05 1165.52L670.88 1165.38L670.81 1165.34Z" fill="#17091D"/>
<path id="Vector_14" d="M888.15 1319.42L914 1403C912 1402 857 1428 733.78 1315.9C701.89 1286.9 647.5 1294.5 632.5 1373.5C622.84 1424.36 606.5 1526.21 596.18 1592.3C525.81 1577.61 489.71 1552.54 504.5 1484.5C519.5 1415.5 574.65 1217.39 574.65 1217.39L672.5 1174.5L772.5 1180.66L888.15 1319.42Z" fill="#5C2C66"/>
<path id="Vector_15" d="M1069.94 1530C1064.2 1557.59 1049.85 1601 1040.3 1628.62C977.69 1628.16 917.929 1623.55 900.359 1627.49C893.059 1629.13 876.61 1628.9 854.77 1627.41C859.64 1595.13 869.02 1529.97 868.58 1509.54C868 1482 928.02 1531.03 1008.51 1515.54C1089 1500.05 1078.87 1487 1069.94 1530Z" fill="#5C2C66"/>
<path id="Vector_16" d="M898.5 1631.5C898.5 1631.5 907.89 1577.73 902.5 1549.87" stroke="#17091D" stroke-width="7" stroke-linecap="round" stroke-linejoin="round"/>
<path id="Vector_17" d="M904.359 1578.74C904.359 1578.74 943.499 1563.5 995.499 1568.5" stroke="#17091D" stroke-width="7" stroke-linecap="round" stroke-linejoin="round"/>
</g>
<g id="arm 2">
<path id="Vector_18" d="M1376.68 1361.83C1370.16 1361.83 1368.16 1361.63 1367.22 1361.47C1353.96 1359.27 1349.43 1351.71 1337.22 1322.85C1331.37 1308.94 1322.48 1265.55 1313.06 1219.61C1302.74 1169.31 1292.06 1117.31 1284.66 1099.61C1272.51 1070.61 1273.22 1043.74 1273.79 1022.11C1273.92 1017.22 1274.04 1012.61 1274.01 1008.31C1273.81 983.529 1305.76 943.479 1307.12 941.789L1307.91 940.789L1528.36 861.189C1529.79 860.595 1531.34 860.299 1532.89 860.319C1538.89 860.319 1547.95 864.319 1556.46 883.179C1568.15 909.099 1578.83 1024.48 1573.78 1070.18C1571.29 1092.73 1570.25 1132.29 1569.24 1170.55C1568.31 1206.14 1567.42 1239.75 1565.39 1252.77C1564.07 1261.16 1565.05 1273.45 1566.09 1286.45C1566.63 1293.18 1567.19 1300.15 1567.43 1306.78C1568.07 1324.58 1566.82 1343.46 1552.68 1348.52C1532.36 1355.88 1410.74 1361.83 1376.68 1361.83Z" fill="#7E4282"/>
<path id="Vector_19" d="M1532.94 864.86C1536.94 864.86 1544.52 867.56 1552.41 885.07C1563.84 910.42 1574.26 1025.41 1569.36 1069.78C1564.46 1114.15 1565.07 1226.06 1560.99 1252.16C1558.88 1265.66 1562.28 1287.76 1562.99 1307.03C1563.64 1325.03 1561.93 1340.54 1551.22 1344.37C1531.55 1351.37 1411.36 1357.37 1376.69 1357.37C1373.78 1357.44 1370.87 1357.34 1367.97 1357.07C1357.11 1355.27 1353.37 1349.49 1341.43 1321.14C1329.49 1292.79 1303.36 1132.44 1288.87 1097.93C1274.38 1063.42 1278.76 1031.79 1278.57 1008.33C1278.38 984.87 1310.69 944.67 1310.69 944.67L1377.49 920.55L1462.89 889.72L1526.06 866.91L1530.13 865.44C1531.02 865.055 1531.98 864.87 1532.95 864.9M1532.95 855.9C1530.84 855.882 1528.74 856.283 1526.78 857.08L1523 858.45L1459.83 881.25L1374.42 912L1307.62 936.12L1305.25 936.98L1303.67 938.98C1297.64 946.641 1292.04 954.63 1286.9 962.91C1275.3 981.61 1269.47 996.91 1269.56 1008.35C1269.56 1012.58 1269.47 1017.15 1269.34 1022C1268.76 1044.06 1268.04 1071.51 1280.56 1101.36C1287.81 1118.64 1298.91 1172.75 1308.7 1220.5C1318.57 1268.67 1327.1 1310.27 1333.12 1324.58C1344.65 1351.95 1349.99 1363.16 1366.49 1365.9C1367.75 1366.11 1369.95 1366.32 1376.68 1366.32C1395.61 1366.32 1435.79 1364.66 1470.14 1362.46C1516.37 1359.46 1544.66 1356.26 1554.24 1352.84C1562.15 1350.01 1567.48 1343.41 1570.08 1333.22C1571.78 1326.52 1572.39 1318.1 1571.97 1306.7C1571.73 1299.97 1571.17 1292.95 1570.63 1286.17C1569.63 1274 1568.63 1261.41 1569.88 1253.54C1571.96 1240.24 1572.81 1208.03 1573.79 1170.75C1574.79 1134.36 1575.79 1093.11 1578.31 1070.75C1581.1 1045.47 1578.93 1001.85 1575.97 969.45C1574.52 953.56 1569.12 900.22 1560.61 881.35C1551.12 860.26 1540.32 855.84 1532.94 855.84L1532.95 855.9Z" fill="#17091D"/>
<path id="Vector_20" d="M1551.21 1344.37C1529.01 1352.3 1378.82 1358.84 1367.96 1357.03C1357.1 1355.22 1353.36 1349.45 1341.42 1321.1C1329.48 1292.75 1303.35 1132.4 1288.86 1097.89C1274.37 1063.38 1278.75 1031.75 1278.56 1008.29C1278.37 984.83 1310.68 944.63 1310.68 944.63L1377.48 920.51C1370.96 939.73 1358.98 988.05 1369.31 1063.25C1383 1163 1392 1296 1425 1304C1445.71 1309 1514.56 1308.29 1563 1307C1563.63 1325 1561.92 1340.54 1551.21 1344.37Z" fill="#5C2C66"/>
<path id="Vector_21" d="M1289.16 987.619C1287.3 987.701 1285.45 987.261 1283.83 986.349C1279.71 983.799 1277.44 981.009 1276.83 977.799C1276.02 973.279 1278.83 969.799 1281.22 966.649C1285 961.839 1286.89 959.419 1281 953.769C1264 937.419 1235.23 893.319 1234 891.449C1233.61 890.85 1233.36 890.163 1233.29 889.449C1233.12 887.639 1216.15 708.449 1212.23 672.099C1212.23 671.919 1212.23 671.669 1212.16 671.429C1211.82 668.279 1211.65 666.989 1211.58 666.429C1210.81 664.269 1211.94 662.239 1216.75 653.579C1224.1 640.399 1238.09 616.579 1245.75 603.579C1256.6 585.169 1266.04 569.319 1266.13 569.169C1266.5 568.54 1267.02 568.011 1267.65 567.629C1268.27 567.248 1268.98 567.024 1269.71 566.979L1330.39 563.109H1330.68C1331.32 563.111 1331.96 563.251 1332.55 563.52C1333.14 563.789 1333.66 564.181 1334.08 564.669L1334.99 565.729L1430.35 578.849C1431.02 578.942 1431.67 579.186 1432.24 579.564C1432.8 579.941 1433.27 580.442 1433.62 581.029L1466.06 636.209C1466.2 636.455 1466.32 636.713 1466.42 636.979C1466.42 636.979 1469.14 644.609 1473.29 656.309C1486.17 692.679 1508.47 756.209 1513.03 772.999C1514.46 778.239 1516.45 784.999 1518.56 792.229C1523.33 808.509 1528.74 826.949 1531.72 841.009C1533.64 850.009 1534.29 856.009 1533.72 859.729C1533.33 862.449 1532.8 866.189 1497.72 887.399C1477.45 899.659 1450.72 914.649 1422.32 929.609C1396.65 943.189 1310.77 987.619 1289.16 987.619Z" fill="#CE44A2"/>
<path id="Vector_22" d="M1330.76 567.579C1332.03 569.049 1332.76 569.919 1332.76 569.919L1429.85 583.279L1462.29 638.459C1462.29 638.459 1465.01 646.089 1469.16 657.779C1480.94 691.039 1504.16 757.169 1508.8 774.149C1513.34 790.839 1523.12 821.589 1527.43 841.909C1529.05 849.519 1529.9 855.659 1529.43 859.069C1527.73 871.069 1320.43 983.069 1289.2 983.069C1288.16 983.138 1287.13 982.931 1286.2 982.469C1269.71 972.279 1301.04 966.649 1284.2 950.469C1267.36 934.289 1237.83 888.999 1237.83 888.999C1237.83 888.999 1220.73 708.359 1216.77 671.599C1216.77 671.399 1216.77 671.189 1216.71 670.999C1216.3 667.339 1216.05 665.259 1215.97 665.129C1215.89 664.999 1217.66 661.309 1220.74 655.779C1227.22 644.159 1239.18 623.699 1249.74 605.839C1260.74 587.229 1270.11 571.449 1270.11 571.449L1330.79 567.579M1330.79 558.579H1330.21L1269.54 562.449C1268.08 562.542 1266.67 562.988 1265.42 563.749C1264.17 564.511 1263.13 565.564 1262.38 566.819C1262.28 566.979 1252.84 582.819 1241.99 601.249C1234.29 614.299 1220.28 638.169 1212.91 651.369C1211.23 654.369 1210.01 656.649 1209.17 658.289C1207.88 660.799 1206.33 663.819 1207.25 667.289C1207.32 667.869 1207.48 669.119 1207.78 671.819C1207.78 672.069 1207.78 672.339 1207.86 672.599C1211.78 709.009 1228.73 888.019 1228.86 889.819C1229 891.268 1229.49 892.661 1230.28 893.879C1231.5 895.759 1260.49 940.279 1277.91 956.989C1278.91 957.81 1279.72 958.832 1280.29 959.989C1279.59 961.36 1278.72 962.64 1277.71 963.799C1275.14 967.069 1271.27 972.009 1272.42 978.519C1273.62 985.269 1279.52 988.909 1281.42 990.099C1283.74 991.486 1286.42 992.179 1289.12 992.099C1294.67 992.099 1306.33 990.189 1343.29 973.619C1365.85 963.509 1394.7 949.269 1424.52 933.539C1452.95 918.539 1479.81 903.539 1500.15 891.199C1510.74 884.789 1519.15 879.389 1525.06 875.149C1534.41 868.459 1537.62 864.849 1538.26 860.309C1538.87 855.969 1538.26 849.709 1536.16 840.009C1533.16 825.799 1527.71 807.269 1522.92 790.909C1520.81 783.739 1518.83 776.969 1517.41 771.769C1512.82 754.839 1490.48 691.189 1477.57 654.769C1473.42 643.069 1470.69 635.419 1470.69 635.419C1470.5 634.89 1470.26 634.378 1469.98 633.889L1437.54 578.709C1436.85 577.536 1435.91 576.535 1434.78 575.78C1433.64 575.025 1432.36 574.535 1431.01 574.349L1337.33 561.469C1336.49 560.556 1335.47 559.827 1334.33 559.328C1333.19 558.829 1331.96 558.57 1330.72 558.569L1330.79 558.579Z" fill="#17091D"/>
<path id="Vector_23" d="M1529.39 859.069C1527.62 871.579 1302.69 992.689 1286.19 982.519C1269.69 972.349 1301.03 966.699 1284.19 950.519C1267.35 934.339 1237.83 888.999 1237.83 888.999C1237.83 888.999 1220.73 708.359 1216.77 671.599C1216.81 671.397 1216.79 671.189 1216.71 670.999C1216.3 667.339 1216.05 665.259 1215.97 665.129C1215.89 664.999 1217.66 661.309 1220.74 655.779C1227.22 644.159 1239.18 623.699 1249.74 605.839C1260.74 587.229 1270.11 571.449 1270.11 571.449L1330.79 567.579C1332.06 569.049 1332.79 569.919 1332.79 569.919L1429.88 583.279L1462.32 638.459C1462.32 638.459 1465.04 646.089 1469.19 657.779C1434.25 656.399 1344.43 651.149 1332.14 660.529C1317.53 671.669 1309.54 773.599 1313.55 819.999C1317.56 866.399 1327.79 920.269 1391.35 902.999C1433.43 891.579 1492.42 861.149 1527.46 841.899C1529 849.519 1529.87 855.659 1529.39 859.069Z" fill="#9C398C"/>
<path id="Vector_24" d="M1454.86 643.289C1411.44 643.289 1309.7 617.449 1284.77 600.089C1276.55 594.359 1272.38 579.299 1271.65 552.699C1271.14 534.039 1272.4 510.079 1275.41 481.509V481.259C1278.93 448.019 1283.62 420.099 1283.67 419.819L1283.95 418.159L1408.14 316.789L1410.57 322.049C1410.86 322.669 1439.18 383.909 1451.71 408.349C1465.3 434.849 1481.64 584.819 1483.44 607.959C1483.92 613.712 1485.27 619.36 1487.44 624.709C1489 628.879 1490.35 632.489 1488.2 635.959C1485.54 640.239 1479.87 641.169 1463 642.899H1462.64C1460.38 643.169 1457.75 643.289 1454.86 643.289Z" fill="#7E4282"/>
<path id="Vector_25" d="M1406.51 323.939C1406.51 323.939 1435.01 385.589 1447.72 410.399C1460.43 435.209 1476.93 581.999 1479 608.309C1481.07 634.619 1498 634.769 1462.59 638.429H1462.28C1460.09 638.649 1457.61 638.759 1454.88 638.759C1412.88 638.759 1311.65 613.279 1287.36 596.369C1272.36 585.889 1275.03 528.199 1279.93 481.709C1283.47 448.219 1288.14 420.549 1288.14 420.549L1406.53 323.919M1409.83 309.609L1400.83 316.949L1282.43 413.599L1279.81 415.739L1279.25 419.069C1279.25 419.349 1274.49 447.409 1270.96 480.789V481.259C1267.96 509.929 1266.69 533.999 1267.2 552.809C1267.99 581.349 1272.63 597.069 1282.2 603.809C1300.31 616.419 1348.07 629.109 1362.28 632.689C1399.79 642.169 1434.4 647.819 1454.87 647.819C1457.61 647.835 1460.36 647.711 1463.09 647.449H1463.31H1463.48C1479.81 645.769 1488 644.919 1492.05 638.449C1495.36 633.099 1493.32 627.639 1491.67 623.249C1489.64 618.298 1488.38 613.063 1487.94 607.729C1486.8 593.079 1481.94 549.009 1476.25 507.669C1468.55 452.019 1461.64 417.949 1455.72 406.409C1443.23 382.059 1414.95 320.899 1414.72 320.289L1409.85 309.749L1409.83 309.609Z" fill="#17091D"/>
<path id="Vector_26" d="M1462.57 638.429H1462.26C1426.38 642.109 1313.26 614.379 1287.34 596.369C1272.34 585.889 1275.01 528.199 1279.91 481.709L1283.42 476.709C1283.42 476.709 1384 590.079 1462.57 638.429Z" fill="#5C2C66"/>
</g>
<path id="Vector_27" d="M1008.66 1406.06C955.66 1406.06 894.07 1397.37 865.2 1388.96C831.2 1379.07 801.49 1338.96 775.29 1303.61C760.6 1283.77 746.72 1265.03 733.76 1253.69C725.84 1246.76 712.63 1240.76 694.5 1235.85C644.92 1222.45 575.32 1221.85 574.62 1221.85C573.594 1221.84 572.601 1221.49 571.8 1220.85L558.27 1209.8C557.661 1209.3 557.193 1208.65 556.914 1207.91C556.635 1207.18 556.554 1206.38 556.68 1205.6C558.82 1192.25 577.59 1075.07 578.14 1072.5C578.89 1069.06 582.06 1067.43 591.72 1065.5C593.9 1065.07 596.06 1064.7 597.79 1064.42L599.68 943.42C598.912 943.029 598.17 942.588 597.46 942.1C589.15 936.45 575.16 920.47 555.86 894.62C519.34 845.62 501.23 641.07 497.97 600.55C497.66 596.79 497.51 594.73 497.51 594.73C497.443 593.782 497.677 592.836 498.177 592.029C498.678 591.221 499.421 590.591 500.3 590.23L661.77 524.38C662.31 524.161 662.888 524.049 663.47 524.05C663.755 524.052 664.04 524.078 664.32 524.13C961 581.51 1112.56 611.13 1114.79 612.23C1114.66 612.157 1114.52 612.1 1114.37 612.06C1119.29 613.6 1218.96 633.82 1284.76 647.06C1285.35 647.179 1285.91 647.416 1286.41 647.757C1286.91 648.098 1287.34 648.536 1287.66 649.045C1287.99 649.553 1288.21 650.122 1288.31 650.717C1288.41 651.313 1288.39 651.922 1288.25 652.51C1288.07 653.26 1270.53 727.79 1271.53 761.26C1271.59 766.198 1271.25 771.134 1270.53 776.02C1270.53 776.056 1270.53 776.093 1270.53 776.13C1265.1 817.49 1239.26 891.34 1238.17 894.46C1238.08 894.697 1237.98 894.927 1237.86 895.15C1237.76 895.33 1227.75 913.4 1215.58 934.15C1214.71 935.802 1214.01 937.542 1213.5 939.34C1204.95 967.43 1203.73 1055.34 1203.57 1073.65C1207.7 1075.29 1213.41 1078.65 1220.57 1083.48C1232.47 1091.66 1237.01 1116.48 1238.65 1130.58C1241.58 1155.58 1240.25 1186.07 1234.92 1216.42C1235.73 1221.1 1235.92 1236.99 1205.56 1247.22C1186.3 1253.71 1182.47 1258.08 1176.13 1265.34C1171.18 1271.19 1165.69 1276.56 1159.75 1281.4C1147.52 1291.4 1134.53 1315.21 1121.98 1338.22C1112.24 1356.06 1102.18 1374.51 1092.07 1387.32C1082.3 1399.79 1054.24 1406.06 1008.66 1406.06Z" fill="#CE44A2"/>
<path id="Vector_28" d="M663.47 528.64C663.47 528.64 1110 615 1112.83 616.37C1115.66 617.74 1283.83 651.54 1283.83 651.54C1283.83 651.54 1266 727 1267 761.46C1267.06 766.19 1266.74 770.918 1266.06 775.6C1260.66 817 1233.94 893 1233.94 893C1233.94 893 1224 911 1211.72 932C1210.66 933.948 1209.82 936.007 1209.22 938.14C1199.39 970.41 1199.07 1077.14 1199.07 1077.14C1200.01 1077.25 1200.92 1077.51 1201.77 1077.91C1204.43 1078.91 1209.39 1081.43 1217.98 1087.33C1232.98 1097.63 1241.98 1151.03 1230.3 1216.64C1230.3 1216.64 1235.49 1232.53 1204.08 1243.1C1172.67 1253.67 1179.49 1259.53 1156.86 1278.1C1134.23 1296.67 1111.49 1355.57 1088.5 1384.71C1078.75 1397.08 1046.5 1401.63 1008.65 1401.63C957.34 1401.63 895.83 1393.26 866.45 1384.71C815.4 1369.86 773.45 1282.57 736.71 1250.37C727.48 1242.29 712.71 1236.18 695.66 1231.58C644.92 1217.86 574.66 1217.46 574.66 1217.46L561.13 1206.41C561.13 1206.41 582 1076 582.54 1073.47C583.08 1070.94 602.24 1068.36 602.24 1068.36V1066.15L604.24 940C604.092 940.104 603.91 940.15 603.73 940.13C603.16 940.13 602.04 939.85 599.99 938.46C594.74 934.89 583.38 924.05 559.48 892.02C523.57 843.87 505.48 637.57 502.48 600.28C502.17 596.53 502.02 594.49 502.02 594.49L504.23 593.59L663.49 528.59M663.49 519.59C662.324 519.588 661.168 519.815 660.09 520.26L500.83 585.26L498.63 586.15C496.866 586.866 495.375 588.123 494.37 589.74C493.366 591.357 492.9 593.251 493.04 595.15C493.04 595.15 493.2 597.22 493.51 601.02C494.92 618.48 500.24 680.41 509.74 743.42C515.11 778.99 520.96 809.33 527.13 833.59C534.96 864.33 543.13 885.21 552.28 897.4C571.87 923.66 586.22 939.97 594.94 945.9L595.15 946.05L593.37 1060.66L590.87 1061.14C583.6 1062.58 575.36 1064.21 573.77 1071.56C573.21 1074.15 557.16 1174.29 552.25 1204.92C552.002 1206.48 552.167 1208.07 552.729 1209.54C553.29 1211.01 554.229 1212.31 555.45 1213.31L568.98 1224.31C570.577 1225.6 572.567 1226.31 574.62 1226.31C575.31 1226.31 644.35 1226.87 693.34 1240.12C710.81 1244.84 723.42 1250.52 730.81 1256.99C743.41 1267.99 757.15 1286.57 771.7 1306.2C798.32 1342.2 828.5 1382.88 863.97 1393.2C893.13 1401.69 955.24 1410.48 1008.68 1410.48C1029.48 1410.48 1047.02 1409.14 1060.82 1406.48C1078.16 1403.16 1089.53 1397.81 1095.6 1390.11C1105.94 1377.01 1116.09 1358.39 1125.92 1340.39C1138.27 1317.76 1151.04 1294.39 1162.59 1284.89C1168.73 1279.9 1174.39 1274.35 1179.51 1268.31C1185.75 1261.17 1188.88 1257.59 1206.98 1251.5C1222.35 1246.33 1232.47 1239.02 1237.06 1229.78C1239.17 1225.68 1240.01 1221.04 1239.48 1216.46C1244.77 1185.95 1246.06 1155.33 1243.11 1130.07C1241 1111.95 1235.81 1088.51 1223.11 1079.78C1218.34 1076.42 1213.32 1073.41 1208.11 1070.78C1208.37 1047.59 1209.82 966.94 1217.82 940.68C1218.22 939.211 1218.78 937.79 1219.49 936.44C1231.67 915.62 1241.7 897.51 1241.8 897.33C1242.05 896.889 1242.25 896.427 1242.42 895.95C1243.53 892.81 1269.52 818.54 1275 776.71V776.57C1275.74 771.454 1276.08 766.288 1276 761.12C1275 728.25 1292.42 654.29 1292.6 653.54C1292.88 652.364 1292.91 651.144 1292.71 649.954C1292.51 648.763 1292.06 647.626 1291.41 646.61C1290.76 645.593 1289.91 644.719 1288.91 644.039C1287.91 643.358 1286.78 642.886 1285.6 642.65C1220.6 629.59 1121.74 609.53 1115.6 607.76C1115.6 607.76 1115.93 607.86 1116.34 608.04C1114.67 607.35 1109.11 606.13 1043.1 593.18C1005.7 585.85 953.77 575.72 888.75 563.09C778.1 541.64 666.29 520 665.18 519.8C664.616 519.692 664.044 519.639 663.47 519.64L663.49 519.59Z" fill="#17091D"/>
<path id="Vector_29" d="M1267 761.46C1267.06 766.19 1266.74 770.918 1266.06 775.6C1262.97 760.06 1253.44 738.6 1224.06 746.49C1179.49 758.49 1022.46 746.56 955.48 755.03C888.5 763.5 837.701 767.27 792.09 754.39C746.48 741.51 664.79 697.09 654.09 713.8C643.39 730.51 676.98 751.05 686.21 800.28C695.44 849.51 696.21 1018.49 717.81 1032.99C739.41 1047.49 901.11 1044.06 903.94 1077.99C907.94 1125.99 917.34 1155.42 910.94 1177.99C906.34 1194.21 927.94 1211.99 886.94 1204.99C869.46 1201.99 834.74 1190.34 803.94 1170.99C764.64 1146.3 730.05 1113.12 727.94 1112.99L715.94 1110.99C706.41 1112.7 702.62 1117.17 698.44 1132.49C689.44 1165.49 674.44 1196.49 694.44 1229.49C694.85 1230.17 695.25 1230.84 695.61 1231.49C644.87 1217.77 574.61 1217.37 574.61 1217.37L561.08 1206.32C561.08 1206.32 582 1076 582.54 1073.47C583.08 1070.94 602.24 1068.36 602.24 1068.36V1066.15L604.24 940C604.24 940 603.42 940.78 599.99 938.46C594.74 934.89 583.38 924.05 559.48 892.02C523.57 843.87 505.48 637.57 502.48 600.28L504.23 593.59L663.49 528.59C663.49 528.59 1110 615 1112.83 616.37C1115.66 617.74 1283.83 651.54 1283.83 651.54C1283.83 651.54 1266 727 1267 761.46Z" fill="#9C398C"/>
<path id="Vector_30" d="M598.5 1065.5C598.5 1065.5 700.19 1080.99 757.84 1136.74C811.22 1188.36 873.84 1216.5 1002.05 1211.92C1018.13 1211.35 1034.21 1211.02 1050.3 1211.07C1070.79 1211.14 1106.07 1207.55 1127.3 1184.49C1158.54 1150.49 1157.97 1141.63 1179.3 1111.56C1200.63 1081.49 1202.59 1076.5 1202.59 1076.5" stroke="#17091D" stroke-width="7" stroke-linecap="round" stroke-linejoin="round"/>
<path id="Vector_31" d="M893.5 736.5C893.5 736.5 902.41 1014.5 905.73 1082.15C908.5 1138.5 913.5 1206.5 913.5 1206.5" stroke="#17091D" stroke-width="7" stroke-linecap="round" stroke-linejoin="round"/>
<path id="Vector_32" d="M1071.5 736.5C1071.5 736.5 1050.5 1132.5 1072.5 1206.34" stroke="#17091D" stroke-width="7" stroke-linecap="round" stroke-linejoin="round"/>
<g id="collar back">
<path id="Vector_33" d="M1050.37 306.45C1050.18 306.459 1050 306.459 1049.81 306.45C1046.81 306.1 825.229 262.19 780.809 253.39C779.894 253.212 779.058 252.75 778.419 252.07L609.419 73.5497C608.713 72.7987 608.285 71.8276 608.209 70.7991C608.132 69.7706 608.411 68.747 608.999 67.8997C624.916 44.1352 649.562 27.6062 677.589 21.8997C742.373 8.72298 809.121 8.47829 873.999 21.1797C901.269 26.5697 926.349 31.2897 950.609 35.8397C1045.67 53.6997 1108.47 65.4997 1126.39 85.9997C1136.25 97.2997 1136.86 128.19 1128.27 180.45C1122.1 217.99 1113.21 253.01 1113.13 253.36C1112.91 254.219 1112.44 254.995 1111.78 255.59C1111.64 255.71 1097.78 268.17 1083.78 280.46C1054.15 306.45 1052.65 306.45 1050.37 306.45Z" fill="#CE44A2"/>
<path id="Vector_34" d="M778 16.3496C809.948 16.3264 841.822 19.421 873.17 25.5896C1007.46 52.1596 1101.8 64.6996 1123 88.9996C1144.2 113.3 1108.77 252.29 1108.77 252.29C1108.77 252.29 1053.71 302 1050.37 302C1047.37 301.65 781.74 249 781.74 249L612.74 70.4797C628.055 47.7486 651.665 31.9212 678.51 26.3896C711.229 19.7232 744.538 16.373 777.93 16.3896M777.93 7.38965C743.934 7.33609 710.021 10.7301 676.71 17.5196C647.534 23.4636 621.875 40.662 605.29 65.3896C604.148 67.086 603.619 69.1203 603.788 71.1578C603.957 73.1954 604.814 75.1146 606.22 76.5996L775.22 255.12C776.498 256.478 778.17 257.401 780 257.76C860 273.62 1046.32 310.53 1049.32 310.88C1049.68 310.923 1050.05 310.946 1050.41 310.95C1054.14 310.95 1056.58 309.48 1066.68 301.12C1071.68 296.95 1078.49 291.12 1086.79 283.89C1100.86 271.57 1114.7 259.09 1114.79 258.97C1116.11 257.782 1117.05 256.23 1117.49 254.51C1117.58 254.16 1126.49 218.95 1132.71 181.22C1144.46 109.73 1136.71 90.9697 1129.78 83.0797C1110.84 61.3697 1050.84 50.0796 951.45 31.4196C927.2 26.8696 902.13 22.1496 874.87 16.7696C842.962 10.4919 810.519 7.33703 778 7.34965L777.93 7.38965Z" fill="#17091D"/>
<path id="Vector_35" d="M646.08 72.2296C647.43 69.3696 722.3 12.5396 858.81 38.9296C995.32 65.3196 1129.89 89.3796 1134.5 140.5C1139.11 191.62 1034.11 309.5 1034.11 309.5L766.7 218.5L622.52 125.5L646.08 72.2296Z" fill="#9C398C" stroke="#17091D" stroke-width="9" stroke-miterlimit="10"/>
<path id="Vector_36" d="M659.639 122.179C660.909 119.299 730.369 61.8295 855.809 86.9095C981.249 111.989 1125.74 137.479 1129.5 188.499C1133.26 239.519 1014.66 355.499 1014.66 355.499L769.319 267.099L637.449 175.559L659.639 122.179Z" fill="#5C2C66" stroke="#17091D" stroke-width="9" stroke-miterlimit="10"/>
</g>
<g id="glove 1">
<path id="Vector_37" d="M486 1632.18C474.17 1632.18 463.08 1628.76 454.17 1626.01C448.26 1624.18 443.17 1622.6 439.76 1622.6H439.41C438.824 1622.59 438.242 1622.71 437.7 1622.93C432.95 1625.32 422.7 1627.85 408.25 1627.85C399.005 1627.79 389.783 1626.92 380.69 1625.25H380.57C365.684 1622.48 351.095 1618.3 337 1612.77C331.18 1610.54 325.21 1608.03 319.27 1605.32L318.39 1604.9C305.11 1598.57 294.65 1586.9 287.32 1570.34C263.4 1516.12 279.12 1424.98 281.57 1411.82C279.62 1407.67 273.51 1394.51 267.92 1380.37C255.24 1348.27 256.02 1338.88 257.72 1334.6C258.108 1333.52 258.722 1332.53 259.522 1331.7C260.323 1330.88 261.29 1330.23 262.36 1329.81C267.36 1327.87 272.83 1325.69 278.6 1323.38C313.3 1309.5 360.83 1290.5 399 1290.5C410.69 1290.5 421 1292.29 429.68 1295.84C430.14 1296.03 430.6 1296.25 431.12 1296.51C432.095 1297 433.028 1297.56 433.91 1298.2L434.17 1298.38L434.26 1298.44C454.18 1312.98 471.68 1370.44 474.8 1381.19C482.2 1386.07 515.8 1408.47 529.07 1421.37C529.55 1421.84 530.01 1422.37 530.47 1422.79C535.258 1428.03 538.993 1434.14 541.47 1440.79C542.75 1444 543.83 1447.24 544.87 1450.37C547.11 1457.1 549.23 1463.46 553.07 1468.85C558.87 1477.01 564.93 1495.85 570.78 1514.09C575.09 1527.51 579.55 1541.38 582.98 1547.57L583.46 1548.4C585.514 1551.64 586.718 1555.35 586.961 1559.18C587.204 1563.01 586.478 1566.84 584.85 1570.31C580.77 1579.42 571.68 1586.04 560.55 1588.03C555.86 1588.87 549.77 1593.32 545.55 1596.59C541.96 1599.41 538.22 1602.59 534.26 1606.03C520.79 1617.59 505.52 1630.7 490.77 1631.93C489.28 1632.11 487.63 1632.18 486 1632.18Z" fill="#CE44A2"/>
<path id="Vector_38" d="M399 1295C409.57 1295 419.38 1296.49 428 1300C428.34 1300.14 428.7 1300.31 429.09 1300.51C429.915 1300.92 430.705 1301.4 431.45 1301.95L431.63 1302.07C452.14 1317.07 470.96 1384.07 470.96 1384.07C470.96 1384.07 511.5 1410.54 525.96 1424.63C526.4 1425.06 526.83 1425.5 527.25 1425.94C531.652 1430.77 535.081 1436.41 537.35 1442.54C541.35 1452.54 543.35 1462.95 549.47 1471.54C559.2 1485.21 570.93 1535.06 579.11 1549.83C579.31 1550.2 579.51 1550.54 579.71 1550.83C587.9 1564.16 577.51 1580.5 559.82 1583.66C554.82 1584.55 549.11 1588.23 542.89 1593.11C526.89 1605.63 507.78 1626.11 490.51 1627.5C489 1627.63 487.51 1627.68 485.99 1627.68C466.87 1627.68 449.51 1618.11 439.75 1618.11H439.24C437.998 1618.12 436.773 1618.4 435.65 1618.93C431.89 1620.81 422.65 1623.36 408.25 1623.36C399.229 1623.3 390.231 1622.45 381.36 1620.81C366.769 1618.1 352.471 1614 338.66 1608.57C333.06 1606.42 327.233 1603.97 321.18 1601.22L320.39 1600.85C307.13 1594.52 297.85 1582.95 291.47 1568.51C266.47 1511.86 286.3 1411.21 286.3 1411.21C286.3 1411.21 251.5 1338.83 264 1334C299.4 1320.32 355.52 1295 399 1295ZM399 1286C360 1286 312 1305.2 276.92 1319.21C271.17 1321.52 265.73 1323.69 260.74 1325.62C259.096 1326.27 257.605 1327.26 256.365 1328.52C255.125 1329.78 254.163 1331.28 253.54 1332.94C251.27 1338.69 250.7 1349.01 263.75 1382.03C268.95 1395.2 274.47 1407.24 276.89 1412.44C273.697 1430.86 271.563 1449.45 270.5 1468.12C267.98 1512.34 272.26 1547.34 283.21 1572.12C290.99 1589.73 302.21 1602.12 316.48 1608.94L317.37 1609.36C323.44 1612.13 329.49 1614.67 335.37 1616.94C349.715 1622.57 364.561 1626.82 379.71 1629.64H379.89C389.228 1631.35 398.698 1632.23 408.19 1632.29C420.97 1632.29 432.58 1630.34 439.34 1627.05H439.69C442.4 1627.05 447.44 1628.6 452.77 1630.25C461.97 1633.09 473.42 1636.62 485.93 1636.62C487.71 1636.62 489.48 1636.55 491.2 1636.41C507.4 1635.06 523.2 1621.41 537.2 1609.41C541.13 1606.04 544.83 1602.86 548.34 1600.1C554.21 1595.5 558.58 1592.92 561.34 1592.43C573.93 1590.18 584.25 1582.59 588.94 1572.12C590.845 1567.98 591.692 1563.43 591.406 1558.88C591.12 1554.33 589.709 1549.92 587.3 1546.05V1545.98C587.19 1545.8 587.08 1545.63 586.99 1545.45C586.992 1545.42 586.992 1545.4 586.99 1545.37C583.78 1539.56 579.39 1525.9 575.14 1512.68C568.91 1493.27 563.02 1474.94 556.81 1466.22C553.36 1461.37 551.35 1455.32 549.21 1448.92C548.15 1445.73 547.05 1442.43 545.72 1439.09C543.043 1431.91 539.002 1425.31 533.82 1419.67V1419.61C533.27 1419.04 532.82 1418.54 532.31 1418.08C519.49 1405.58 488.31 1384.61 478.74 1378.26C477 1372.41 472.96 1359.47 467.44 1345.32C457.01 1318.61 447.06 1302.07 437.01 1294.73L436.86 1294.62L436.55 1294.41C435.49 1293.66 434.374 1292.99 433.21 1292.41C432.61 1292.1 432.05 1291.85 431.51 1291.62C422.27 1287.84 411.38 1285.93 399.11 1285.93L399 1286Z" fill="#17091D"/>
<path id="Vector_39" d="M559.81 1583.66C554.81 1584.55 549.1 1588.23 542.88 1593.11C526.88 1605.63 507.77 1626.11 490.5 1627.5C469.28 1629.27 449.62 1617.74 439.23 1618.12C437.988 1618.13 436.762 1618.41 435.64 1618.94C429.92 1621.81 411.52 1626.21 381.35 1620.82C366.759 1618.11 352.461 1614.01 338.65 1608.58C333.05 1606.43 327.223 1603.98 321.17 1601.23L320.38 1600.86C309.9 1595.74 300.26 1584.24 291.46 1568.52C266.46 1511.87 286.29 1411.22 286.29 1411.22C286.29 1411.22 251.5 1338.83 264 1334C308 1317 384 1282 428 1300C428.34 1300.14 428.7 1300.31 429.09 1300.51C429.9 1300.95 430.688 1301.43 431.45 1301.95L431.63 1302.07C452.14 1317.07 470.96 1384.07 470.96 1384.07C470.96 1384.07 511.5 1410.54 525.96 1424.63C526.4 1425.06 526.83 1425.5 527.25 1425.94C531.651 1430.77 535.08 1436.41 537.35 1442.54C502.81 1438.71 437.48 1432.11 421.01 1435.04C395.68 1439.56 345.2 1450.23 322.01 1452.04C298.82 1453.85 317.82 1469.34 321.17 1505.44C323.4 1529.56 319.77 1561.88 333.04 1581.19C339.63 1590.79 350.39 1597.19 368.11 1597.76L373.57 1597.91C399.57 1598.42 417.77 1596.22 432.37 1594.77C445.6 1593.45 455.84 1592.77 466.12 1595.19C482.89 1599.19 511.2 1607.29 544.55 1584.19C555.55 1576.57 567.19 1565.52 579.1 1549.79C579.3 1550.16 579.5 1550.5 579.7 1550.79C587.89 1564.16 577.5 1580.5 559.81 1583.66Z" fill="#9C398C"/>
<path id="Vector_40" d="M502.45 1556.87C502.45 1556.87 496.91 1526.43 524.63 1496" stroke="#17091D" stroke-width="8.86" stroke-linecap="round" stroke-linejoin="round"/>
<path id="Vector_41" d="M510.77 1522.09C510.77 1522.09 557.91 1552.52 541.27 1598.17" stroke="#17091D" stroke-width="8.86" stroke-linecap="round" stroke-linejoin="round"/>
<path id="Vector_42" d="M430.499 1546C430.499 1546 426.609 1596.57 440.499 1620.5" stroke="#17091D" stroke-width="10.67" stroke-linecap="round" stroke-linejoin="round"/>
<path id="Vector_43" d="M372.16 1569C372.16 1569 369.34 1615.89 387.38 1626.68" stroke="#17091D" stroke-width="8.79" stroke-linecap="round" stroke-linejoin="round"/>
<path id="Vector_44" d="M333.1 1580.26C333.1 1580.26 330.27 1609.87 348.38 1616.68" stroke="#17091D" stroke-width="7" stroke-linecap="round" stroke-linejoin="round"/>
<path id="Vector_45" d="M461.5 1577C467.299 1577 472 1564.24 472 1548.5C472 1532.76 467.299 1520 461.5 1520C455.701 1520 451 1532.76 451 1548.5C451 1564.24 455.701 1577 461.5 1577Z" fill="#D969BD"/>
<path id="Vector_46" d="M397.5 1573C403.299 1573 408 1563.37 408 1551.5C408 1539.63 403.299 1530 397.5 1530C391.701 1530 387 1539.63 387 1551.5C387 1563.37 391.701 1573 397.5 1573Z" fill="#D969BD"/>
<path id="Vector_47" d="M350.5 1584C356.299 1584 361 1576.61 361 1567.5C361 1558.39 356.299 1551 350.5 1551C344.701 1551 340 1558.39 340 1567.5C340 1576.61 344.701 1584 350.5 1584Z" fill="#D969BD"/>
</g>
<g id="arm 1">
<path id="Vector_48" d="M483 970.499C482.731 970.5 482.464 970.477 482.2 970.429L211.08 920.649C209.922 920.434 208.894 919.775 208.216 918.813C207.538 917.851 207.263 916.661 207.45 915.499L217.53 852.999C216.869 852.421 216.25 851.796 215.68 851.129C210.9 845.599 208.51 836.799 208.58 824.979C208.58 818.739 208.33 812.279 207.73 805.779C202.97 754.139 249.73 622.069 251.73 616.469C251.996 615.719 252.457 615.054 253.065 614.541C253.673 614.028 254.406 613.686 255.19 613.549L504.6 569.449C504.857 569.401 505.118 569.377 505.38 569.379C506.036 569.377 506.685 569.521 507.28 569.799C509.5 570.799 529.39 581.569 545 641.339C545.17 642.009 545.35 642.709 545.52 643.409C559.44 700.489 540.45 787.569 533.3 820.349C532.92 822.089 532.57 823.699 532.3 825.149C532.23 825.469 532.17 825.709 532.13 825.939C525.76 855.579 501.81 902.989 490.3 925.769C479.99 946.209 486.94 963.569 487.24 964.299C487.521 964.988 487.627 965.736 487.548 966.476C487.469 967.216 487.208 967.925 486.788 968.54C486.368 969.154 485.802 969.655 485.141 969.997C484.479 970.339 483.744 970.511 483 970.499Z" fill="#CE44A2"/>
<path id="Vector_49" d="M505.34 573.85C505.34 573.85 525.08 583 540.6 642.45C540.78 643.11 540.94 643.78 541.11 644.45C555.49 703.45 534.2 794.58 527.82 824.17C527.75 824.45 527.68 824.73 527.63 825C521.4 854 497.63 901 486.2 923.71C474.77 946.42 483 966 483 966L211.89 916.22L222.4 851C221.156 850.235 220.039 849.28 219.09 848.17C214.09 842.39 213.03 832.57 213.09 824.98C213.09 818.42 212.83 811.87 212.23 805.34C207.49 754.09 255.93 618 255.93 618L505.34 573.9M505.34 564.9C504.817 564.902 504.295 564.949 503.78 565.04L254.36 609.14C252.795 609.417 251.331 610.103 250.118 611.128C248.904 612.154 247.983 613.483 247.45 614.98C245.45 620.62 198.45 753.6 203.25 806.22C203.84 812.57 204.12 818.88 204.08 824.97C204 837.97 206.76 847.72 212.29 854.11L212.72 854.6L203 914.79C202.627 917.112 203.177 919.488 204.534 921.41C205.891 923.331 207.946 924.645 210.26 925.07L481.37 974.85C481.924 974.952 482.486 975.006 483.05 975.01C484.535 975.019 486 974.658 487.31 973.958C488.621 973.259 489.736 972.244 490.555 971.005C491.374 969.765 491.872 968.341 492.002 966.862C492.132 965.382 491.89 963.893 491.3 962.53C490.88 961.45 485.05 945.95 494.23 927.76C505.82 904.76 529.95 857.05 536.43 826.89C536.425 826.86 536.425 826.83 536.43 826.8C536.43 826.62 536.51 826.43 536.56 826.23V826.07C536.88 824.62 537.22 823.02 537.56 821.29C541.14 804.87 547.81 774.29 551.72 741.37C556.53 700.71 555.88 667.37 549.72 642.37C549.54 641.63 549.36 640.9 549.17 640.19C542.47 614.52 534.17 594.49 524.37 580.71C516.71 569.87 510.67 566.51 509 565.71C507.812 565.161 506.518 564.878 505.21 564.88L505.34 564.9Z" fill="#17091D"/>
<path id="Vector_50" d="M527.82 824.169C527.75 824.449 527.68 824.729 527.63 824.999C521.4 853.999 497.63 900.999 486.2 923.709C474.77 946.419 487.83 957.999 487.83 957.999L211.89 916.219L222.4 850.999C221.155 850.234 220.039 849.28 219.09 848.169C210.09 837.759 213.86 814.269 213.86 814.269C200.92 772.549 255.93 617.999 255.93 617.999L505.34 573.899C505.34 573.899 525.08 583.049 540.6 642.499C540.78 643.159 540.94 643.829 541.11 644.499C516.72 651.449 461.28 673.599 412.35 678.069C352.35 683.549 285.19 699.429 282.03 749.989C279.61 788.989 259.03 840.269 273.95 863.049C278.37 869.799 283 875.519 294.78 876.049C306.56 876.579 325.57 880.949 339.78 884.049C388.15 894.569 443.18 909.549 468.15 881.639C489.07 858.169 513.35 836.499 527.82 824.169Z" fill="#9C398C"/>
<path id="Vector_51" d="M217.47 851.499C217.47 851.499 286.56 885.499 430.22 897.499" stroke="#17091D" stroke-width="7" stroke-linecap="round" stroke-linejoin="round"/>
<path id="Vector_52" d="M496.729 683.089C499.659 672.569 486.639 664.379 476.849 670.549C452.909 685.659 420.569 719.229 408.059 763.809C390.739 825.499 370.569 850.149 403.689 828.319C436.809 806.489 439.889 766.499 471.789 727.999C486.579 710.159 493.529 694.629 496.729 683.089Z" fill="#D969BD"/>
<path id="Vector_53" d="M278.079 1389.14C270.209 1389.14 264.679 1387.25 261.199 1383.35C255.549 1377.05 256.639 1367.24 257.899 1355.89C258.059 1354.45 258.229 1352.97 258.379 1351.46C259.529 1340.29 251.429 1312.96 239.159 1271.59C230.469 1242.26 219.649 1205.77 207.539 1160.12C177.689 1047.61 167.409 960.429 167.999 931.909C168.279 917.819 178.449 909.739 195.899 909.739C201.553 909.777 207.185 910.448 212.689 911.739L290.999 918.529L485.479 935.279L485.989 938.829C485.989 939.119 490.139 968.559 499.129 1062.83C506.199 1136.91 499.579 1224.02 496.029 1270.83C495.029 1284.28 494.259 1294 494.209 1298.77V1299.69C494.196 1304.6 494.56 1309.5 495.299 1314.36C496.429 1322.64 497.299 1329.18 491.809 1349.11C489.459 1357.59 477.809 1369.97 403.809 1379.44C361.019 1384.91 314.119 1387.34 291.589 1388.51C287.289 1388.73 283.959 1388.91 281.799 1389.04C280.489 1389.1 279.249 1389.14 278.079 1389.14Z" fill="#7E4282"/>
<path id="Vector_54" d="M195.85 914.239C201.242 914.298 206.609 914.969 211.85 916.239L258.12 920.239L290.6 923.039L341 927.379L481.52 939.489C481.52 939.489 485.52 968.029 494.64 1063.28C503.76 1158.53 490 1277 489.74 1298.7C489.74 1299.03 489.74 1299.35 489.74 1299.7C489.69 1320.39 495.36 1319.47 487.5 1347.92C479.5 1376.81 305.76 1383.03 281.5 1384.56C280.29 1384.64 279.15 1384.67 278.08 1384.67C257.6 1384.67 260.89 1371.03 262.86 1351.95C264.92 1331.87 242.14 1273.03 211.86 1158.95C181.58 1044.87 172 957.999 172.45 931.999C172.74 917.449 185.05 914.249 195.85 914.249M195.85 905.249C187.71 905.249 180.92 906.809 175.65 909.909C170.22 913.089 163.65 919.479 163.45 931.819C162.91 960.599 173.22 1048.33 203.19 1161.29C215.32 1207 226.19 1243.53 234.85 1272.88C247 1313.73 255 1340.72 253.91 1351C253.75 1352.5 253.59 1354 253.43 1355.39C252.11 1367.3 250.86 1378.55 257.84 1386.39C262.23 1391.29 268.84 1393.67 278.08 1393.67C279.34 1393.67 280.68 1393.67 282.08 1393.54C284.19 1393.41 287.55 1393.23 291.81 1393.01C314.4 1391.84 361.41 1389.41 404.37 1383.91C428.68 1380.8 448.24 1377.12 462.49 1372.98C483.11 1366.98 493.49 1359.98 496.18 1350.32C501.65 1330.5 501.11 1323.52 499.79 1313.77C499.097 1309.14 498.763 1304.45 498.79 1299.77V1299.42C498.79 1299.23 498.79 1299.04 498.79 1298.84C498.85 1294.2 499.62 1284.06 500.59 1271.23C504.16 1224.3 510.79 1136.93 503.69 1062.48C494.69 968.109 490.69 939.479 490.52 938.279L489.52 931.189L482.38 930.569L341.81 918.379L291.41 913.999L258.93 911.199L213.35 907.269C207.609 905.946 201.741 905.252 195.85 905.199V905.249Z" fill="#17091D"/>
<path id="Vector_55" d="M487.49 1347.89C479.49 1376.78 305.75 1383 281.49 1384.53C257.23 1386.06 260.78 1372 262.85 1351.92C264.92 1331.84 242.13 1273 211.85 1158.92C181.57 1044.84 172 957.999 172.45 931.999C172.9 905.999 211.89 916.229 211.89 916.229L258.16 920.229C253.28 963.349 246.47 1066.91 255.98 1116.44C267.98 1179.01 272.85 1323.44 304.4 1318.76C322.09 1316.1 361.9 1304.58 406.32 1299.17C430.7 1296.17 456.46 1295.09 480.73 1298.3C483.73 1298.69 486.73 1299.16 489.73 1299.69C489.68 1320.36 495.35 1319.44 487.49 1347.89Z" fill="#5C2C66"/>
<path id="Vector_56" d="M489.74 1298.7C489.74 1298.7 355.14 1290.3 294.25 1323.7" stroke="#17091D" stroke-width="7" stroke-linecap="round" stroke-linejoin="round"/>
<path id="Vector_57" d="M357.149 647C325.479 647 291.259 644.91 267.849 641.55C229.519 636.06 227.529 610.24 227.459 605.96C227.259 604.6 227.069 603.26 226.889 601.9C226.739 600.9 226.609 599.9 226.479 598.84C226.192 596.673 225.929 594.497 225.689 592.31C225.559 591.16 225.429 589.99 225.319 588.84C221.071 546.755 224.089 504.253 234.239 463.19C242.645 429.32 255.334 396.661 271.999 366C300.849 312.62 331.529 282.1 332.819 280.82L334.539 279.13L336.909 279.63C337.359 279.72 381.859 289.14 402.909 293.97C412.479 296.16 414.189 296.7 414.969 297.13C415.749 297.56 419.099 298.58 422.819 299.85C519.009 332.61 573.819 358.91 590.499 380.26C591.989 382.19 593.399 384 592.359 454.26C591.999 484.16 591.229 514 591.059 521C594.059 525.27 603.739 539.1 612.569 554.64C626.859 579.81 631.759 596.52 627.519 605.72C626.049 608.92 622.749 612.87 615.369 613.48C588.369 615.73 510.419 628.79 458.859 637.48L432.769 641.84L431.569 642.04C411.999 645.23 386.249 647 357.149 647Z" fill="#7E4282"/>
<path id="Vector_58" d="M336 283.999C336 283.999 380.67 293.449 401.95 298.329C408.26 299.769 412.51 300.819 412.95 301.089C415.11 302.519 559.22 347.359 587 382.999C590.08 386.999 586.52 522.389 586.52 522.389C587.98 524.389 647.03 606.299 614.97 608.959C582.91 611.619 481.09 629.179 431.97 637.319L430.81 637.509C409.6 641.019 383.23 642.409 357.09 642.409C323.29 642.409 289.86 640.079 268.43 637.009C230.43 631.559 231.9 605.529 231.9 605.529C231.69 604.089 231.48 602.659 231.29 601.219C231.14 600.219 231.01 599.219 230.88 598.219C230.6 596.069 230.34 593.909 230.1 591.759C229.97 590.619 229.85 589.479 229.74 588.349C211.35 406.829 336 283.999 336 283.999ZM333.13 274.189L329.68 277.589C328.37 278.879 297.23 309.859 268.06 363.829C251.213 394.823 238.38 427.835 229.87 462.069C219.602 503.637 216.558 546.66 220.87 589.259C220.98 590.399 221.1 591.589 221.24 592.779C221.48 594.979 221.75 597.209 222.04 599.379C222.17 600.379 222.3 601.439 222.46 602.509C222.62 603.739 222.8 604.959 222.98 606.189C223.149 612.49 224.981 618.635 228.29 623.999C233.29 632.209 244.11 642.699 267.21 645.999C290.82 649.379 325.28 651.489 357.15 651.489C386.47 651.489 412.46 649.749 432.3 646.489L432.88 646.389L433.4 646.309H433.5C441.11 645.049 449.97 643.559 459.65 641.939C511.12 633.309 588.9 620.259 615.74 618.039C625.74 617.209 630 611.179 631.61 607.669C634.73 600.899 636.55 587.809 616.48 552.479C608.27 537.999 599.37 524.999 595.59 519.619C595.82 510.559 596.5 482.449 596.91 454.319C597.21 434.319 597.31 418.179 597.22 406.389C597.17 399.299 597.05 393.689 596.85 389.689C596.52 382.869 596.06 379.989 594.11 377.479C582.82 362.999 555.51 346.749 510.61 327.789C475.86 313.109 439.75 300.789 424.33 295.559C421.13 294.469 418.09 293.439 416.95 293.019C415.71 292.379 413.47 291.729 403.95 289.559C382.85 284.719 338.31 275.289 337.86 275.189L333.13 274.189Z" fill="#17091D"/>
<path id="Vector_59" d="M615 608.999C582.8 611.669 481.12 629.219 432 637.359L430.84 637.549C382.21 645.549 306.47 642.549 268.46 637.049C230.45 631.549 232 605.569 232 605.569C231.79 604.129 231.58 602.699 231.39 601.259C231.24 600.259 231.11 599.259 230.98 598.259C230.7 596.109 230.44 593.949 230.2 591.799C230.07 590.659 229.95 589.519 229.84 588.389C211.35 406.829 336 283.999 336 283.999C336 283.999 380.67 293.449 401.95 298.329C374.58 328.489 288.21 381.579 293 469.999C301 616.799 333.48 652.999 388.49 608.249C443.5 563.499 529 525.699 576.76 516.599C578.406 516.276 580.084 516.148 581.76 516.219C584.84 520.219 586.56 522.389 586.56 522.389C588 524.449 647.06 606.339 615 608.999Z" fill="#5C2C66"/>
</g>
<path id="Vector_60" d="M1184.75 740.909C1173.2 740.909 1155.55 740.219 1135.11 739.419C1107.68 738.349 1073.53 737.009 1043.51 737.009C1025.51 737.009 1010.96 737.469 999.01 738.419C982.65 739.709 959.51 740.419 930.23 740.419C905.32 740.419 876.48 739.949 844.5 739.039C808.654 738.022 773.192 731.36 739.42 719.299C684.17 699.579 650.6 679.879 630.56 655.399C611.41 632.009 605.14 605.479 597.21 571.889C591.21 546.679 584.5 518.099 570.78 483.219C570.25 481.859 569.71 480.529 569.15 479.219C539.75 408.329 477.78 360.259 431 332.399C380 302.059 335.44 288.399 335 288.299C334.16 288.049 333.412 287.56 332.847 286.891C332.281 286.221 331.924 285.402 331.817 284.532C331.711 283.662 331.861 282.781 332.249 281.995C332.637 281.209 333.245 280.554 334 280.109C425.57 226.319 488 212.199 524.26 209.829C528.26 209.569 532.14 209.439 535.86 209.439C552.36 209.439 560.62 212.019 560.96 212.129C561.939 212.449 562.782 213.09 563.35 213.949L584.55 246.139L879 309.509L1172.93 220.399C1173.35 220.272 1173.8 220.208 1174.24 220.209C1174.58 220.211 1174.91 220.248 1175.24 220.319C1176.13 220.529 1265.24 241.029 1341.82 270.849C1421.89 301.999 1412.75 338.659 1412.33 340.199C1412.16 340.785 1411.88 341.332 1411.5 341.809C1405.91 348.809 1366.06 411.299 1341.8 451.629C1327.93 474.629 1324.2 482.079 1323.21 484.449C1320.15 491.859 1320.6 497.979 1321.12 505.069C1321.68 512.629 1322.3 521.209 1318.86 532.619C1312.4 554.009 1296.3 617.359 1290.4 645.909C1284.16 676.079 1217.34 737.009 1197.4 740.309C1193.2 740.816 1188.98 741.016 1184.75 740.909Z" fill="#CE44A2"/>
<path id="Vector_61" d="M535.82 213.939C551.82 213.939 559.56 216.419 559.56 216.419L581.77 250.149L879.2 314.149L967.91 287.259L1174.25 224.709C1174.25 224.709 1263 244.999 1340.2 274.999C1417.4 304.999 1408 338.999 1408 338.999C1402.26 346.179 1362.48 408.529 1338 449.309C1328.36 465.309 1321.08 478.009 1319.12 482.719C1312.2 499.449 1321.05 509.999 1314.61 531.319C1308.17 552.639 1292 615.999 1286 644.999C1280 673.999 1214 732.999 1196.65 735.869C1192.7 736.322 1188.72 736.502 1184.75 736.409C1157.48 736.409 1095.45 732.509 1043.51 732.509C1027.08 732.509 1011.65 732.899 998.66 733.929C980.59 735.359 956.02 735.869 930.23 735.869C900.63 735.869 869.43 735.199 844.62 734.489C809.249 733.468 774.258 726.891 740.93 714.999C582.93 658.609 625.76 610.669 574.93 481.509C574.39 480.129 573.83 478.759 573.26 477.399C515.42 337.999 336.25 283.999 336.25 283.999C427.69 230.289 489.53 216.619 524.52 214.329C528.66 214.059 532.43 213.949 535.82 213.949M535.82 204.949C532.01 204.949 528.01 205.079 523.93 205.349C487.2 207.739 424 221.999 331.69 276.229C330.181 277.119 328.964 278.43 328.188 280.001C327.413 281.572 327.113 283.335 327.325 285.075C327.538 286.814 328.253 288.453 329.384 289.792C330.514 291.13 332.011 292.109 333.69 292.609C334.13 292.739 378.37 306.279 428.9 336.379C475 363.879 536.09 411.259 565 480.859C565.61 482.319 566.13 483.589 566.6 484.799C580.2 519.399 586.92 547.799 592.84 572.869C600.89 606.999 607.27 633.999 627.08 658.199C647.66 683.339 681.84 703.479 737.9 723.479C772.119 735.7 808.05 742.45 844.37 743.479C876.37 744.399 905.28 744.869 930.23 744.869C959.62 744.869 982.89 744.209 999.37 742.869C1011.2 741.939 1025.64 741.479 1043.51 741.479C1073.45 741.479 1107.51 742.819 1134.94 743.889C1155.42 744.689 1173.12 745.379 1184.75 745.379C1189.22 745.495 1193.69 745.274 1198.12 744.719C1210.84 742.609 1235 722.909 1251.83 706.719C1266.1 692.949 1290.67 666.859 1294.83 646.829C1300.72 618.369 1316.77 555.239 1323.2 533.929C1326.88 521.719 1326.2 512.309 1325.64 504.749C1325.12 497.699 1324.75 492.599 1327.41 486.169C1328.16 484.369 1331.41 477.589 1345.68 453.959C1371.44 411.099 1410 350.999 1415 344.619C1415.76 343.67 1416.32 342.574 1416.64 341.399C1416.99 340.159 1419.76 328.779 1410.75 313.669C1400.01 295.669 1377.36 279.849 1343.43 266.669C1266.51 236.739 1177.12 216.159 1176.23 215.959C1175.57 215.81 1174.9 215.733 1174.23 215.729C1173.35 215.729 1172.47 215.861 1171.62 216.119L965.3 278.649L878.82 304.859L587.26 242.129L567.08 211.469C565.95 209.754 564.267 208.476 562.31 207.849C561.38 207.549 552.73 204.939 535.82 204.939V204.949Z" fill="#17091D"/>
<path id="Vector_62" d="M1408 339C1402.26 346.18 1362.48 408.53 1338 449.31C1336.56 450.48 1335.12 451.62 1333.67 452.71C1269.8 500.93 1290.55 553.5 1255.89 608.25C1221.23 663 1038.55 671.5 892.69 672.14C746.83 672.78 715.5 650.5 637 546.05C618.121 521.099 596.788 498.104 573.32 477.41C515.42 338 336.25 284 336.25 284C427.69 230.29 489.53 216.62 524.52 214.33C548.17 212.78 559.52 216.43 559.52 216.43L581.73 250.16L879.16 314.16L967.87 287.27L1174.21 224.72C1174.21 224.72 1263 245 1340.2 275C1417.4 305 1408 339 1408 339Z" fill="#D969BD"/>
<g id="collar front">
<path id="Vector_63" d="M1126 343C1126 343 1084.59 425.56 1038 443C991.41 460.44 914.74 483.93 843 443C771.26 402.07 777.2 406.22 737 418C696.8 429.78 670.33 404 593 342C544.28 302.91 539.37 241.46 524.52 214.32C548.17 212.77 559.52 216.42 559.52 216.42L581.729 250.15L879.159 314.15L967.87 287.26L1126 343Z" fill="#CE44A2"/>
<path id="Vector_64" d="M943.049 438C908.649 438 881.379 420.56 849.789 400.38C834.199 390.38 816.529 379.12 796.119 368.73C729.119 334.59 669.189 283.92 622.899 222.21C602.639 195.21 591.309 168.14 589.229 141.8C587.369 118.23 593.229 99.6502 597.719 87.7202C599.55 82.9558 601.802 78.3642 604.449 74.0002C621.889 44.9502 653.139 29.0002 668.859 24.2002C670.718 23.5814 672.66 23.2443 674.619 23.2002C677.829 23.2002 685.389 24.4102 686.429 35.6002C686.908 41.4198 685.543 47.2426 682.528 52.2431C679.513 57.2436 675 61.1681 669.629 63.4602C668.029 64.1702 666.429 64.8802 664.999 65.5302C660.679 67.5302 657.319 77.0302 659.619 90.7302C661.879 104.19 701.209 136.14 722.339 153.31L726.339 156.54C736.769 165.03 774.189 186.13 824.729 206.47C865.199 222.74 923.419 242.2 970.929 242.41H971.929C1052.52 242.41 1077.64 198.19 1089.72 176.93C1090.38 175.76 1091.01 174.65 1091.61 173.62C1092.21 172.59 1092.54 171.91 1092.89 171.13C1100.4 154.67 1095.77 128.03 1092.35 113.61V113.45C1091.16 108.21 1092.57 102.72 1096.35 97.9902C1098.79 94.9806 1101.87 92.5466 1105.36 90.8614C1108.85 89.1762 1112.67 88.2812 1116.55 88.2402C1124.72 88.2402 1131.94 92.3502 1136.91 99.8202V99.9002C1137.54 100.9 1138.08 101.76 1138.55 102.66C1138.6 102.73 1138.64 102.803 1138.68 102.88C1148.34 121.18 1153.16 143.02 1155.5 158.12V158.43C1155.58 158.93 1155.66 159.43 1155.73 159.91C1155.8 160.39 1155.89 160.99 1155.97 161.55C1156.46 165.12 1156.91 168.72 1157.36 172.63C1158.97 186.69 1159.66 224.8 1156.01 261.95C1154.01 281.88 1151.17 298.04 1147.43 309.95C1142.43 325.75 1136.04 334.1 1127.75 335.47C1117.75 337.11 1097.3 353.01 1075.6 369.85C1040.72 396.93 997.289 430.62 960.599 436.53C954.797 437.485 948.929 437.977 943.049 438Z" fill="#CE44A2"/>
<path id="Vector_65" d="M674.619 27.6897C679.619 27.6897 681.519 31.3697 681.949 36.0097C682.326 40.8859 681.166 45.7577 678.632 49.9405C676.097 54.1233 672.316 57.4068 667.819 59.3297C666.189 60.0497 664.569 60.7697 663.129 61.4297C656.759 64.3597 652.499 75.4997 655.129 91.4297C657.759 107.36 699.449 140.43 723.419 159.98C747.389 179.53 882.419 246.46 970.829 246.86H971.829C1059.38 246.86 1083.49 196.38 1095.4 175.86C1095.98 174.934 1096.51 173.98 1097 173C1104.55 156.45 1101.11 131.07 1096.73 112.61C1094.45 102.8 1105.14 92.8297 1116.51 92.8297C1122.45 92.8297 1128.51 95.5397 1133.12 102.4C1133.12 102.42 1133.12 102.44 1133.12 102.46C1133.66 103.277 1134.16 104.122 1134.62 104.99C1134.63 105.018 1134.65 105.045 1134.67 105.07C1143.29 121.4 1148.33 141.55 1151.02 158.9C1151.11 159.48 1151.2 160.05 1151.28 160.62C1151.36 161.19 1151.45 161.77 1151.53 162.33C1152.06 166.18 1152.53 169.84 1152.9 173.23C1156.3 202.87 1154.51 326.6 1127.03 331.14C1099.55 335.68 1019.5 422.5 959.909 432.1C954.335 433.012 948.697 433.476 943.049 433.49C893.349 433.49 859.789 396.09 798.159 364.71C729.829 329.91 671.499 279.5 626.499 219.5C581.499 159.5 592.259 114.72 601.929 89.3097C603.661 84.7951 605.793 80.4445 608.299 76.3097C624.219 49.7997 653.129 33.7197 670.179 28.4797C671.614 28.0093 673.11 27.7532 674.619 27.7197M674.619 18.7197C672.211 18.7525 669.822 19.1435 667.529 19.8797C651.209 24.8797 618.739 41.4497 600.579 71.6797C597.804 76.2786 595.441 81.1141 593.519 86.1297C588.829 98.4697 582.809 117.7 584.739 142.13C586.889 169.33 598.519 197.18 619.299 224.89C642.271 255.55 668.583 283.558 697.749 308.4C727.242 333.521 759.572 355.108 794.079 372.72C814.289 383.01 831.869 394.24 847.369 404.15C879.549 424.72 907.369 442.48 943.049 442.48C949.176 442.464 955.292 441.962 961.339 440.98C999.149 434.89 1043.07 400.8 1078.34 373.4C1098.64 357.65 1119.62 341.4 1128.46 339.91C1138.6 338.24 1146.19 328.91 1151.7 311.3C1155.53 299.07 1158.48 282.61 1160.47 262.37C1164.15 224.9 1163.47 186.37 1161.81 172.09C1161.36 168.15 1160.9 164.52 1160.42 160.99V160.89C1160.34 160.34 1160.26 159.77 1160.17 159.19C1160.08 158.61 1160.03 158.19 1159.95 157.71V157.41C1157.56 141.97 1152.62 119.61 1142.67 100.76L1142.5 100.44C1141.96 99.4397 1141.37 98.4397 1140.68 97.4397L1140.63 97.3697C1134.8 88.6097 1126.24 83.7797 1116.53 83.7797C1111.97 83.8294 1107.49 84.882 1103.39 86.8627C1099.28 88.8434 1095.67 91.7036 1092.8 95.2397C1088.18 101.05 1086.46 107.86 1087.94 114.44C1087.94 114.52 1087.94 114.61 1087.94 114.69C1093.62 138.62 1093.94 158 1088.78 169.26V169.34C1088.49 169.98 1088.14 170.67 1087.7 171.44C1087.11 172.44 1086.47 173.57 1085.8 174.75C1073.25 196.84 1049.9 237.95 971.929 237.95H970.929C934.419 237.78 883.089 225.13 826.389 202.33C776.829 182.4 739.079 161.16 729.159 153.09L725.159 149.86C712.979 139.96 697.809 127.63 685.329 115.86C666.659 98.2897 664.329 91.6197 664.049 89.9997C661.809 76.6797 665.609 70.2597 666.879 69.6297C668.319 68.9697 669.989 68.2197 671.449 67.6297C677.68 64.9576 682.912 60.3921 686.403 54.5804C689.894 48.7687 691.467 42.0055 690.899 35.2497C689.769 23.0897 681.749 18.7597 674.609 18.7597L674.619 18.7197Z" fill="#17091D"/>
<path id="Vector_66" d="M1151.52 162.23C1138.52 192.03 1105.63 217.8 1082.7 237.39C1055.9 260.28 956.5 278.5 893.7 271.22C830.9 263.94 735.46 213.5 649.7 138.38C623.7 115.65 612.01 94.5899 608.27 76.2799C624.19 49.7699 653.1 33.6899 670.15 28.4499C678.51 25.8699 681.379 30.1899 681.919 36.0099C682.297 40.886 681.137 45.7578 678.602 49.9406C676.068 54.1234 672.286 57.407 667.789 59.3299C666.159 60.0499 664.539 60.7699 663.099 61.4299C656.729 64.3599 652.469 75.4999 655.099 91.4299C657.729 107.36 699.42 140.43 723.39 159.98C747.36 179.53 882.389 246.46 970.799 246.86C1059.21 247.26 1083.42 196.46 1095.38 175.86C1095.97 174.935 1096.51 173.98 1097 173C1104.69 156.42 1102.27 130.77 1096.73 112.61C1093.26 97.6799 1119.82 82.3899 1133.12 102.4C1133.12 102.42 1133.12 102.44 1133.12 102.46C1133.63 103.29 1134.12 104.13 1134.62 104.99C1134.63 105.018 1134.65 105.045 1134.67 105.07C1143.82 121.07 1148.4 141.52 1151.02 158.9C1151.11 159.48 1151.2 160.05 1151.28 160.62C1151.36 161.19 1151.44 161.67 1151.52 162.23Z" fill="#D969BD"/>
<path id="Vector_67" d="M701.319 391.5C681.969 391.5 634.719 364.91 597.839 326.77C574.479 302.6 546.929 265.08 548.339 223.58C550.469 160.76 572.639 133.26 585.669 122.46C587.499 120.896 589.822 120.028 592.229 120.01C593.742 120.034 595.232 120.381 596.599 121.028C597.967 121.674 599.181 122.606 600.159 123.76C601.376 125.184 602.274 126.854 602.791 128.654C603.309 130.455 603.434 132.346 603.159 134.2V134.58C601.519 146 610.599 169.04 623.519 179.72C630.149 185.2 658.969 212.65 687.689 244.99C724.149 286.04 744.749 316.89 748.929 336.68C753.029 356.12 751.749 369.26 744.929 378.04C736.219 389.24 720.459 390.75 702.269 391.48L701.319 391.5Z" fill="#7E4282"/>
<path id="Vector_68" d="M592.229 124.51C595.959 124.51 599.359 128.51 598.669 133.6C598.669 133.72 598.669 133.85 598.669 133.98C596.779 147.09 606.549 171.56 620.669 183.19C634.789 194.82 734.999 292.85 744.439 337.61C753.879 382.37 731.999 385.78 701.999 387H701.319C670.209 387 550.019 306.72 552.839 223.73C554.949 161.52 577.259 135.28 588.539 125.92C589.565 125.03 590.872 124.531 592.229 124.51ZM592.229 115.51C588.772 115.522 585.432 116.759 582.799 119C569.189 130.29 546.039 158.86 543.799 223.43C542.339 266.52 570.599 305.11 594.569 329.91C612.17 348.014 631.952 363.862 653.459 377.09C665.069 384.15 686.729 396.01 701.279 396.01H702.279C720.899 395.26 738.429 393.54 748.279 380.83C755.989 370.93 757.529 356.61 753.139 335.78C748.909 315.18 727.999 283.64 690.999 242C663.999 211.62 634.559 183.05 626.339 176.25C614.669 166.61 606.109 145.3 607.559 135.25L607.619 134.8C607.989 132.316 607.824 129.782 607.134 127.367C606.444 124.952 605.246 122.713 603.619 120.8C602.219 119.162 600.484 117.843 598.531 116.931C596.579 116.018 594.454 115.534 592.299 115.51H592.229Z" fill="#17091D"/>
<path id="Vector_69" d="M1187.12 179.54C1184.33 174.399 1180.24 170.077 1175.27 167.001C1170.3 163.924 1164.6 162.2 1158.76 162C1151.25 161.77 1144.98 164.06 1147.15 174.89C1151.96 198.89 1137.69 257.52 1109.89 292.53C1084.21 324.88 1039.39 381.69 1141.7 386.1C1170.53 387.34 1197.58 329.27 1203.21 289.35C1208.84 249.43 1202.21 205.69 1193.91 191.57C1191.48 187.47 1189.17 183.34 1187.12 179.54Z" fill="#7E4282" stroke="#17091D" stroke-width="9" stroke-miterlimit="10"/>
</g>
</g>
</svg>
