<svg width="1000" height="1000" viewBox="0 0 1000 1000" fill="none" xmlns="http://www.w3.org/2000/svg">
<path d="M643.304 720.389C643.243 720.327 637.128 714.207 629.53 705.989C618.267 693.799 603.912 677.232 599.603 667.534C596.863 661.352 594.429 647.683 592.365 626.865C590.294 605.876 589.338 584.865 589.328 584.654V584.472L599.643 526.269L603.425 524.498L618.808 517.28L628.023 512.967L637.673 530.094L673.337 593.421C673.872 594.214 680.172 603.636 687.682 615.625C698.458 632.84 711.989 655.781 715.262 667.327C720.738 686.647 729.382 705.181 729.465 705.367L730.392 707.338L643.878 720.978L643.304 720.389Z" fill="#7E4282"/>
<path d="M627.346 515.091L636.248 530.909L671.945 594.291C671.945 594.291 678.409 603.913 686.297 616.506C697.059 633.698 710.47 656.429 713.689 667.778C719.266 687.458 727.986 706.066 727.986 706.066L673.904 714.593L644.456 719.236C644.456 719.236 638.388 713.164 630.725 704.88C619.68 692.938 605.328 676.407 601.092 666.873C597.956 659.815 595.62 643.182 593.989 626.709C591.896 605.52 590.958 584.586 590.958 584.586L601.092 527.396L604.107 525.986L619.502 518.767L627.343 515.095M628.701 510.844L625.955 512.131L618.114 515.804L602.719 523.022L599.707 524.433L598.167 525.16L597.873 526.833L587.743 584L587.677 584.364V584.727C587.677 584.938 588.644 605.993 590.719 627.029C592.793 648.066 595.278 661.869 598.091 668.2C602.491 678.102 616.951 694.818 628.313 707.109C635.943 715.346 642.068 721.498 642.119 721.556L643.297 722.735L644.939 722.476L674.369 717.833L728.451 709.306L732.749 708.629L730.903 704.684C730.816 704.498 722.227 686.073 716.792 666.891C713.467 655.16 699.857 632.073 689.026 614.767C681.643 602.986 675.426 593.676 674.689 592.586L639.053 529.313L630.147 513.506L628.658 510.862L628.701 510.844Z" fill="#17091D"/>
<path d="M686.301 616.494C680.27 616.657 674.82 614.919 671.405 609.712C669.275 606.472 666.005 603.436 662.07 600.621C656.904 596.937 650.593 593.654 644.216 590.843C634.211 586.442 625.486 579.569 618.86 570.869C612.235 562.169 607.927 551.927 606.339 541.105L604.119 525.97L601.103 505.41L619.513 518.752L636.248 530.908L671.946 594.29C671.946 594.29 678.413 603.901 686.301 616.494Z" fill="#5C2C66"/>
<path d="M673.908 714.588L644.459 719.231C644.459 719.231 638.392 713.159 630.729 704.875C619.684 692.933 605.332 676.402 601.096 666.868C597.96 659.81 595.624 643.177 593.992 626.704L593.738 583.271C593.738 583.271 627.608 670.988 650.513 698.544C656.13 705.297 661.881 710.162 667.495 711.813C670.485 712.682 672.581 713.617 673.908 714.588Z" fill="#5C2C66"/>
<path d="M619.355 694.726C623.05 693.602 634.553 689.82 643.248 686.9C665.44 679.446 696.102 667.9 695.281 661.264C694.303 653.351 674.734 621.028 662.068 600.635C658.137 594.3 655.572 590.242 655.572 590.242" stroke="#17091D" stroke-width="2.54333" stroke-linecap="round" stroke-linejoin="round"/>
<path d="M600.07 924.778L599.841 923.884L599.772 923.607V923.553C599.747 923.465 599.725 923.378 599.707 923.287C599.689 923.196 599.587 922.822 599.587 922.822C599.587 922.822 599.551 922.691 599.533 922.611L599.504 922.498C596.626 911.043 582.427 852.8 585.221 829.64C586.02 822.974 588.255 819.345 591.852 818.854C592.677 818.742 593.534 818.669 594.395 818.633C594.842 818.633 595.311 818.604 595.779 818.604C596.749 818.604 597.774 818.647 598.828 818.727C615.298 820.022 635.19 831 636.029 831.454L636.102 831.498C636.582 831.796 647.885 838.989 653.295 852.313C655.355 857.293 656.404 862.635 656.38 868.025C656.38 875.913 654.094 883.254 652.121 888.771C647.209 902.505 625.849 914.498 621.601 916.771C615.311 920.145 608.848 923.187 602.239 925.884L600.528 926.556L600.07 924.778Z" fill="#CE44A2"/>
<path d="M595.775 820.237C596.731 820.237 597.705 820.281 598.682 820.357C614.985 821.637 635.219 832.895 635.219 832.895C635.219 832.895 646.482 839.954 651.765 852.939C653.738 857.726 654.746 862.856 654.73 868.034C654.73 875.143 652.855 881.852 650.566 888.23C646.729 898.957 631.382 909.685 620.827 915.332C614.594 918.678 608.189 921.693 601.64 924.365C601.64 924.365 601.56 924.059 601.414 923.485C601.385 923.375 601.356 923.255 601.323 923.121C601.302 923.048 601.283 922.972 601.265 922.892C601.225 922.743 601.185 922.583 601.142 922.412C601.113 922.306 601.087 922.197 601.058 922.085C598.014 909.961 584.072 852.63 586.816 829.834C587.473 824.379 589.09 820.874 592.048 820.47C592.825 820.366 593.623 820.297 594.442 820.263C594.878 820.263 595.318 820.234 595.761 820.234M595.761 816.961C595.267 816.961 594.776 816.961 594.308 816.99C593.396 817.026 592.491 817.106 591.612 817.223C587.183 817.83 584.479 821.95 583.578 829.437C582.376 839.434 584.051 856.634 588.56 880.565C592.066 899.157 596.255 916.346 597.894 922.874V922.895L597.919 922.994C597.919 923.077 597.959 923.157 597.981 923.237L598.006 923.339C598.035 923.455 598.064 923.565 598.093 923.67C598.123 923.775 598.137 923.855 598.166 923.961V924.001C598.192 924.103 598.213 924.201 598.239 924.292C598.384 924.874 598.468 925.183 598.468 925.183L599.398 928.739L602.817 927.397C609.487 924.682 616.009 921.614 622.353 918.205C628.718 914.8 634.729 910.772 640.298 906.179C647.202 900.361 651.7 894.703 653.625 889.321C655.645 883.685 657.963 876.168 657.985 868.03C658.008 862.426 656.918 856.874 654.777 851.695C649.171 837.877 637.435 830.426 636.941 830.114L636.868 830.07L636.796 830.03C635.942 829.554 615.744 818.394 598.925 817.088C597.835 817.005 596.745 816.961 595.75 816.961H595.761Z" fill="#17091D"/>
<path d="M654.744 868.033C654.744 875.142 652.869 881.852 650.58 888.23C646.743 898.957 631.396 909.684 620.841 915.332C614.608 918.678 608.203 921.693 601.653 924.364C601.653 924.364 601.573 924.059 601.428 923.484C601.399 923.372 601.366 923.255 601.337 923.121C601.315 923.048 601.297 922.972 601.279 922.892C601.239 922.742 601.199 922.582 601.156 922.412C601.127 922.306 601.101 922.197 601.072 922.084C598.027 909.961 584.086 852.63 586.829 829.833C587.487 824.379 589.104 820.873 592.061 820.47C592.839 820.365 593.637 820.296 594.456 820.262C595.87 820.208 597.286 820.239 598.696 820.353C598.267 831.081 598.158 853.342 604.295 858.019C612.448 864.23 612.928 865.357 615.326 873.262C617.724 881.168 618.203 878.353 622.999 889.073C627.795 899.793 635.952 902.622 646.503 882.295C649.562 876.412 652.342 871.721 654.744 868.033Z" fill="#9C398C"/>
<path d="M605.974 873.551L593.377 892.365" stroke="#17091D" stroke-width="2.54333" stroke-linecap="round" stroke-linejoin="round"/>
<path d="M616.523 891.615C616.044 891.615 597.372 911.273 597.372 911.273" stroke="#17091D" stroke-width="2.54333" stroke-linecap="round" stroke-linejoin="round"/>
<path d="M633.406 900.652L620.446 916.547" stroke="#17091D" stroke-width="2.54333" stroke-linecap="round" stroke-linejoin="round"/>
<path d="M672.814 873.299C672.567 873.298 672.322 873.247 672.095 873.149C671.869 873.051 671.664 872.908 671.495 872.728C670.699 871.895 670.768 870.695 670.921 867.135C671.16 861.902 671.607 852.161 668.741 841.659C665.216 828.659 649.717 812.302 627.942 807.586C624.011 806.729 620 806.297 615.977 806.295C614.252 806.295 612.504 806.375 610.782 806.535L608.7 806.731L609.016 804.662C609.208 803.39 613.899 773.273 624.799 752.175C632.553 737.164 634.696 732.237 635.285 730.72C633.995 728.811 631.623 723.328 638.264 714.524C641.338 710.451 648.118 705.797 656.874 701.71L657.201 701.557C670.728 695.31 686.199 691.586 698.665 691.586C700.02 691.586 701.361 691.63 702.661 691.717C706.354 691.941 710.024 692.443 713.641 693.219C720.269 694.673 725.577 697.11 729.414 700.422C732.026 702.632 734.035 705.47 735.252 708.67C737.247 713.979 738.711 721.288 735.979 738.648C735.772 739.946 735.565 741.164 735.347 742.375C733.32 753.706 717.485 787.666 704.562 814.16C690.922 842.11 676.095 870.67 674.554 872.411C674.344 872.675 674.08 872.891 673.78 873.044C673.48 873.197 673.15 873.284 672.814 873.299Z" fill="#CE44A2"/>
<path d="M698.676 693.207C699.989 693.207 701.28 693.248 702.549 693.33C706.159 693.542 709.747 694.029 713.282 694.785C720.549 696.396 725.272 698.974 728.342 701.628C730.757 703.652 732.609 706.265 733.72 709.214C735.337 713.519 737.204 720.319 734.345 738.363C734.156 739.546 733.948 740.777 733.72 742.057C729.992 762.908 675.855 868.439 673.312 871.312C673.101 871.548 672.949 871.676 672.814 871.676C671.43 871.676 674.758 857.556 670.325 841.243C666.489 827.101 650.011 810.697 628.295 806.003C624.251 805.121 620.124 804.677 615.985 804.676C614.222 804.676 612.439 804.758 610.637 804.923C610.637 804.923 615.36 774.043 626.26 752.923C637.07 731.999 637.117 730.399 637.117 730.377L637.062 730.319C636.532 729.759 632.473 724.916 639.58 715.497C642.541 711.57 649.169 707.087 657.572 703.177C669.515 697.614 685.037 693.21 698.676 693.21M698.676 689.938C686.087 689.938 670.507 693.657 656.857 699.905L656.199 700.21C647.079 704.454 640.252 709.181 636.979 713.527C633.498 718.134 631.892 722.494 632.204 726.483C632.316 728.012 632.751 729.499 633.48 730.847C632.611 732.912 630.17 738.243 623.365 751.414C612.345 772.752 607.614 803.123 607.418 804.407L606.786 808.541L610.946 808.156C612.621 807.999 614.318 807.919 615.993 807.919C619.902 807.921 623.8 808.341 627.619 809.174C637.362 811.313 646.398 815.904 653.874 822.512C660.566 828.421 665.42 835.552 667.194 842.076C669.977 852.334 669.541 861.908 669.304 867.054C669.126 870.912 669.054 872.508 670.329 873.847C670.649 874.19 671.037 874.464 671.468 874.652C671.898 874.84 672.363 874.937 672.832 874.937C673.399 874.926 673.956 874.79 674.464 874.539C674.972 874.287 675.419 873.927 675.772 873.483C676.099 873.119 677.094 871.992 686.218 854.341C689.851 847.312 697.256 832.839 706.023 814.865C718.998 788.279 734.893 754.167 736.954 742.65C737.172 741.436 737.382 740.17 737.586 738.897C740.398 721.156 738.868 713.603 736.794 708.083C735.484 704.624 733.314 701.556 730.49 699.17C726.453 695.683 720.905 693.137 714.005 691.61C710.309 690.818 706.559 690.304 702.786 690.072C701.463 689.985 700.086 689.941 698.694 689.941L698.676 689.938Z" fill="#17091D"/>
<path d="M728.34 701.642C726.943 709.968 724.706 718.131 721.662 726.006C706.904 763.798 678.974 774.664 678.426 774.871C689.838 765.053 699.993 738.773 706.766 717.336C709.563 708.496 711.78 700.478 713.273 694.791C720.561 696.409 725.267 698.987 728.34 701.642Z" fill="#D969BD"/>
<path d="M657.569 703.174C655.273 708.883 652.522 715.901 649.637 723.727C640.278 749.101 629.516 782.719 628.295 805.988C622.5 804.72 616.544 804.352 610.637 804.897C610.637 804.897 615.36 774.017 626.26 752.897C637.07 731.974 637.117 730.374 637.117 730.352L637.062 730.294C636.532 729.734 632.473 724.89 639.58 715.472C642.538 711.567 649.165 707.083 657.569 703.174Z" fill="#9C398C"/>
<path d="M637.058 730.315C640.469 728.344 644.771 726.013 649.636 723.726C664.344 716.817 684.222 710.271 700.336 715.053C702.522 715.703 704.671 716.47 706.774 717.351C712.093 719.585 717.1 722.499 721.671 726.02C726.363 729.634 730.619 733.784 734.351 738.384" stroke="#17091D" stroke-width="2.54333" stroke-linecap="round" stroke-linejoin="round"/>
<path d="M656.526 886.032C656.228 886.035 655.931 886.018 655.635 885.982L654.011 885.742L654.258 884.116C654.284 883.952 656.715 867.436 652.057 851.752C650.656 847.067 648.443 842.665 645.517 838.749C640.59 832.091 633.527 827.222 624.53 824.276C616.657 821.698 609.063 821.16 604.075 821.16C601.372 821.16 599.715 821.327 599.686 821.327L595.965 821.691L608.595 804.916L608.526 803.265C608.606 803.265 610.502 803.102 613.569 803.102C618.508 803.098 623.44 803.505 628.313 804.316C639.751 806.28 648.496 810.382 654.306 816.516C658.035 820.464 661.477 824.674 664.603 829.116C665.867 830.934 667.07 832.752 668.178 834.571C673.035 842.534 678.544 854.207 677.185 864.647C676.863 867.267 676.036 869.8 674.75 872.105C667.404 885.029 658.945 886.032 656.526 886.032Z" fill="#CE44A2"/>
<path d="M613.549 804.749C618.397 804.743 623.236 805.142 628.017 805.941C636.737 807.436 646.514 810.701 653.087 817.654C656.763 821.542 660.154 825.691 663.231 830.069C664.464 831.824 665.637 833.613 666.748 835.436C672.751 845.276 676.66 855.8 675.53 864.451C675.238 866.862 674.479 869.192 673.296 871.312C666.414 883.44 658.762 884.403 656.51 884.403C656.291 884.406 656.073 884.395 655.856 884.371C655.856 884.371 658.428 867.538 653.607 851.28C652.148 846.409 649.842 841.835 646.794 837.767C640.905 829.811 632.824 825.276 624.994 822.716C616.757 820.018 608.811 819.516 604.03 819.516C601.192 819.516 599.474 819.694 599.474 819.694L610.61 804.901H608.637C608.637 804.901 610.508 804.741 613.542 804.741M613.542 801.469C610.406 801.469 608.455 801.632 608.361 801.64L608.43 803.236L608.019 802.927L596.883 817.72L592.378 823.705L599.826 822.938C599.826 822.938 601.447 822.778 604.048 822.778C608.917 822.778 616.329 823.305 623.999 825.814C632.668 828.654 639.455 833.327 644.178 839.705C646.995 843.468 649.129 847.697 650.482 852.2C655.027 867.516 652.662 883.694 652.637 883.858L652.142 887.105L655.391 887.581C655.764 887.632 656.14 887.655 656.517 887.651C658.032 887.651 661.12 887.334 664.797 885.221C669.088 882.756 672.907 878.614 676.141 872.912C677.534 870.424 678.428 867.689 678.775 864.858C680.195 853.949 674.538 841.909 669.542 833.72C668.42 831.876 667.199 830.011 665.909 828.178C662.736 823.671 659.244 819.398 655.46 815.392C649.403 808.996 640.352 804.731 628.573 802.705C623.609 801.879 618.585 801.466 613.553 801.469H613.542Z" fill="#17091D"/>
<path d="M628.02 805.942L625.023 822.723C611.892 818.425 599.502 819.702 599.502 819.702L610.638 804.909H608.64C615.118 804.516 621.62 804.862 628.02 805.942Z" fill="#9C398C"/>
<path d="M666.771 835.436C660.257 838.13 653.005 841.01 655.577 839.381C657.779 837.992 660.787 833.865 663.254 830.068C664.482 831.826 665.655 833.615 666.771 835.436Z" fill="#D969BD"/>
<path d="M675.544 864.45C675.252 866.861 674.493 869.191 673.309 871.311C665.134 885.715 655.869 884.362 655.869 884.362C655.869 884.362 658.442 867.53 653.62 851.271C656.076 856.221 660.008 865.402 659.503 872.726C658.86 882.061 671.602 870.933 675.544 864.45Z" fill="#9C398C"/>
<path d="M470.402 989.313C425.523 989.313 393.499 983.786 374.537 979.149C362.096 976.102 355.8 973.575 355.538 973.469L354.63 973.106L354.528 972.128C354.506 971.946 352.628 953.68 353.115 928.306C353.562 904.873 356.178 870.386 366.089 839.168C366.453 838.077 366.74 837.084 367.009 836.153C368.099 832.44 369.065 828.629 369.879 824.811C375.965 796.375 373.905 768.084 371.103 749.375C368.062 729.051 363.513 715.295 363.473 715.157L363.15 714.182L399.683 678.52L523.344 648.873L559.045 665.793L595.629 702.775V703.444C595.629 703.524 595.662 711.778 595.593 722.189C595.498 737.371 595.197 757.018 594.306 764.418C593.278 772.953 595.077 795.88 598.238 814.488C599.938 824.52 601.871 832.458 603.866 837.444C604.062 837.931 604.251 838.448 604.429 838.975C610.773 857.437 613.875 910.193 613.984 912.429V912.498L612.204 973.048L612.073 973.342C611.292 975.088 606.144 976.917 596.766 978.797C579.29 982.28 548.443 985.502 507.575 988.113C494.986 988.906 482.472 989.313 470.402 989.313Z" fill="#7E4282"/>
<path d="M523.163 650.597L558.083 667.146L593.995 703.448C593.995 703.448 594.028 711.655 593.959 722.179C593.864 737.179 593.566 756.881 592.684 764.223C591.67 772.633 593.363 795.543 596.626 814.768C598.206 824.092 600.157 832.546 602.348 838.041C602.53 838.495 602.712 838.979 602.879 839.495C609.226 857.968 612.354 912.521 612.354 912.521L610.589 972.673C610.589 972.673 607.268 980.092 507.478 986.466C494.271 987.313 481.907 987.677 470.396 987.677C425.361 987.677 393.37 982.073 374.923 977.557C362.454 974.506 356.15 971.95 356.15 971.95C356.15 971.95 348.574 899.728 367.646 839.655C367.969 838.637 368.282 837.619 368.576 836.601C369.697 832.785 370.666 828.967 371.483 825.146C383.378 769.583 365.023 714.63 365.023 714.63L400.491 680.001L523.163 650.601M523.527 647.15L522.408 647.419L399.717 676.815L398.838 677.026L398.195 677.655L362.719 712.288L361.266 713.721L361.916 715.67C361.96 715.804 366.476 729.488 369.495 749.684C372.267 768.23 374.309 796.292 368.278 824.459C367.471 828.241 366.519 832.015 365.44 835.673V835.692C365.179 836.601 364.884 837.572 364.536 838.666C360.128 852.553 356.775 868.226 354.569 885.252C352.758 899.524 351.729 913.885 351.485 928.27C350.994 953.724 352.887 972.11 352.905 972.292L353.109 974.248L354.925 974.975C355.191 975.081 361.593 977.655 374.149 980.728C393.203 985.386 425.379 990.939 470.4 990.939C482.51 990.939 495.056 990.532 507.689 989.724C549.218 987.07 579.298 983.928 597.098 980.379C602.835 979.237 607.104 978.077 609.793 976.935C611.933 976.026 613.063 975.15 613.575 974.001L613.84 973.408L613.862 972.761L615.628 912.608V912.466V912.324C615.497 910.077 612.402 857.132 605.985 838.437C605.8 837.884 605.6 837.346 605.393 836.823C603.453 831.95 601.538 824.128 599.856 814.204C596.775 796.041 594.943 772.866 595.939 764.604C596.836 757.124 597.142 737.412 597.236 722.19C597.305 711.772 597.272 703.506 597.272 703.426V702.088L596.331 701.135L560.42 664.833L560.013 664.426L559.493 664.179L524.562 647.637L523.523 647.143L523.527 647.15Z" fill="#17091D"/>
<path d="M602.351 838.047C600.171 832.538 598.209 824.084 596.629 814.774L395.531 824.047C396.548 793.542 397.969 743.204 402.979 738.665C409.788 732.484 443.044 732.12 471.562 717.491C500.08 702.862 506.991 683.014 531.476 680.124C555.961 677.233 558.948 712.124 572.801 722.669C580.501 728.542 588.425 725.789 593.962 722.185C594.031 711.662 593.998 703.454 593.998 703.454L558.087 667.153L523.167 650.604L400.494 680L365.018 714.633C365.018 714.633 383.374 769.585 371.479 825.145L368.572 836.6C368.278 837.622 367.965 838.64 367.642 839.658C348.57 899.731 356.146 971.953 356.146 971.953C356.146 971.953 362.45 974.498 374.919 977.56C375.922 951.742 378.258 899.564 381.14 887.378C382.413 882.178 383.99 877.058 385.863 872.044C385.862 872.035 385.862 872.027 385.863 872.018C386.077 871.436 386.288 870.865 386.502 870.294C388.653 865.164 396.705 850.818 418.381 854.6C444.65 859.185 536.312 860.76 566.963 853.971C585.188 849.938 596.596 843.789 602.853 839.498C602.711 838.985 602.533 838.502 602.351 838.047Z" fill="#5C2C66"/>
<path d="M433.429 914.183C460.276 929.62 477.196 944.245 487.148 972.98C509.021 983.987 543.069 939.162 554.205 920.656C556.338 918.205 558.234 911.983 561.642 907.049C560.952 912.529 547.207 934.932 545.027 937.62C526.446 962.962 513.072 974.391 486.85 980.271C479.416 947.732 457.733 931.732 433.429 914.183Z" fill="#17091D"/>
<path d="M402.795 724.029C384.316 724.029 368.929 720.229 357.066 712.738C347.965 706.989 343.005 700.462 339.699 695.418C334.463 687.418 328.704 654.8 328.461 653.414L328.414 653.138L338.507 592.047L339.045 554.661L339.92 493.265L372.257 471.574L386.732 481.512L386.798 481.563C386.932 481.68 400.604 493.167 420.759 504.498C439.289 514.916 467.323 527.334 495.471 527.334C500.207 527.342 504.936 526.977 509.615 526.243C541.084 521.24 559.465 517.465 571.073 513.621C585.196 508.949 587.423 504.531 587.808 501.185C588.219 497.509 590.715 497.109 591.765 497.109C598.468 497.109 613.085 513.258 615.948 516.494L616.134 516.705L616.239 516.967C616.363 517.269 628.422 547.549 630.155 581.582C630.95 597.145 631.049 605.581 630.518 611.683C630.18 615.516 629.606 618.407 628.876 622.069C628.378 624.578 627.811 627.425 627.19 631.225C626.609 634.785 626.176 638.272 625.758 641.643C624.043 655.534 622.419 668.654 610.905 686.465C609.136 689.2 607.563 691.705 606.04 694.123C598.494 706.123 593.938 713.356 587.485 713.356C584.698 713.356 581.795 711.992 578.347 709.065C573.09 704.6 570.481 698.6 567.963 692.796C564.573 684.992 561.372 677.625 551.951 674.854C544.899 672.778 535.067 671.538 525.649 671.538C513.677 671.538 492.288 673.516 483.521 686.763C467.127 711.541 441.076 723.731 403.882 724.025L402.795 724.029Z" fill="#CE44A2"/>
<path d="M372.238 473.552L385.732 482.814C385.732 482.814 440.232 528.967 495.459 528.967C500.281 528.977 505.097 528.606 509.861 527.858C569.575 518.363 588.192 512.367 589.431 501.367C589.638 499.516 590.488 498.749 591.764 498.745C598.071 498.745 614.723 517.578 614.723 517.578C614.723 517.578 626.782 547.512 628.529 581.665C629.358 597.923 629.394 605.807 628.893 611.541C628.333 617.851 627.12 621.56 625.579 630.96C622.643 648.909 623.679 663.687 609.534 685.578C599.085 701.741 594.173 711.72 587.487 711.72C585.122 711.72 582.539 710.476 579.407 707.818C567.417 697.636 569.753 678.363 552.415 673.272C545.849 671.341 536.021 669.891 525.652 669.891C508.629 669.891 490.139 673.789 482.161 685.851C469.317 705.261 447.059 722.036 403.87 722.378H402.812C360.44 722.378 346.132 702.229 341.082 694.505C335.955 686.727 330.069 653.131 330.069 653.131L340.134 592.2L340.671 554.683L341.536 494.145L372.23 473.552M372.252 469.6L370.41 470.832L339.716 491.425L338.317 492.381L338.291 494.098L337.409 554.636L336.864 591.909L326.843 652.596L326.752 653.145L326.85 653.694C327.464 657.203 333.005 688.192 338.331 696.316C341.725 701.498 346.826 708.203 356.193 714.134C368.321 721.796 383.999 725.68 402.794 725.68H403.884C424.329 725.516 441.834 721.651 455.913 714.185C467.758 707.909 477.23 699.24 484.875 687.687C488.145 682.749 493.736 678.981 501.501 676.494C508.241 674.334 516.59 673.192 525.641 673.192C534.913 673.192 544.574 674.407 551.481 676.44C560.168 678.985 563.082 685.701 566.454 693.465C569.048 699.44 571.733 705.621 577.281 710.331C581.042 713.523 584.279 715.011 587.476 715.011C594.834 715.011 599.568 707.487 607.416 695.011C608.935 692.596 610.508 690.094 612.27 687.374C623.988 669.247 625.634 655.945 627.374 641.865C627.788 638.509 628.217 635.036 628.795 631.505C629.412 627.734 629.975 624.905 630.473 622.414C631.2 618.705 631.792 615.774 632.137 611.869C632.682 605.687 632.584 597.181 631.774 581.534C630.858 563.596 627.102 546.861 624.108 535.981C620.863 524.185 617.866 516.709 617.742 516.389L617.531 515.869L617.168 515.447C616.994 515.251 612.855 510.578 607.859 505.825C598.242 496.683 594.205 495.509 591.76 495.509C589.315 495.509 586.633 496.963 586.179 501.04C585.209 509.723 565.833 515.683 509.356 524.676C504.761 525.395 500.117 525.753 495.466 525.745C467.696 525.745 439.978 513.461 421.615 503.152C401.562 491.898 387.981 480.48 387.847 480.367L387.719 480.258L387.585 480.167L374.091 470.905L372.274 469.651L372.252 469.6Z" fill="#17091D"/>
<path d="M628.873 611.541C628.313 617.85 627.1 621.56 625.559 630.96C622.624 648.909 623.659 663.687 609.515 685.578C595.37 707.469 591.377 718 579.387 707.818C567.397 697.636 569.733 678.363 552.395 673.272C535.057 668.181 494.988 666.44 482.141 685.85C469.293 705.261 447.039 722.036 403.85 722.378C360.66 722.72 346.167 702.298 341.062 694.509C335.957 686.72 330.068 653.13 330.068 653.13L340.132 592.2L340.67 554.683L368.963 533.178C368.963 533.178 391.678 539.53 384.706 569.672C377.733 599.814 371.197 636.581 407.527 643.287C443.856 649.992 483.787 634.505 518.322 626.069C552.856 617.632 562.91 640.025 589.31 637.92C603.977 636.752 618.689 623.272 628.873 611.541Z" fill="#9C398C"/>
<path d="M338.489 688.784C346.845 696.079 362.469 704.66 389.81 704.617C437.326 704.544 442.904 692.362 465.365 663.551C487.826 634.74 515.988 623.599 539.154 631.708C562.32 639.817 567.222 642.726 576.941 669.453C583.118 686.497 594.49 694.224 601.902 697.588" stroke="#17091D" stroke-width="2.54333" stroke-linecap="round" stroke-linejoin="round"/>
<path d="M509.866 528.326C509.866 528.326 531.561 573.817 524.592 627.006" stroke="#17091D" stroke-width="2.54333" stroke-linecap="round" stroke-linejoin="round"/>
<path d="M330.588 655.999C390.175 631.636 394.022 538.309 394.022 538.309" stroke="#17091D" stroke-width="2.54333" stroke-linecap="round" stroke-linejoin="round"/>
<path d="M446.592 611.999C429.751 611.999 414.982 597.217 414.982 580.363C414.982 571.123 417.078 564.257 421.388 559.374C426.343 553.755 434.337 550.908 445.139 550.908C454.026 550.908 462.175 554.079 468.09 559.843C470.971 562.651 473.255 566.013 474.805 569.727C476.356 573.44 477.14 577.429 477.112 581.454C477.103 589.552 473.885 597.316 468.163 603.043C462.442 608.77 454.684 611.99 446.592 611.999Z" fill="#FBDAFA"/>
<path d="M445.136 552.362C462.939 552.362 475.656 565.388 475.656 581.453C475.656 585.273 474.904 589.056 473.443 592.586C471.983 596.115 469.842 599.322 467.143 602.024C464.443 604.725 461.239 606.868 457.713 608.33C454.186 609.792 450.406 610.544 446.589 610.544C430.537 610.544 416.433 596.428 416.433 580.362C416.433 564.297 422.973 552.362 445.136 552.362ZM445.136 549.453C433.898 549.453 425.541 552.468 420.295 558.413C415.739 563.573 413.526 570.751 413.526 580.362C413.526 588.784 417.138 597.231 423.434 603.537C429.731 609.842 438.175 613.453 446.589 613.453C455.066 613.444 463.193 610.069 469.187 604.07C475.181 598.071 478.553 589.937 478.563 581.453C478.594 577.235 477.774 573.054 476.15 569.161C474.527 565.268 472.134 561.743 469.116 558.799C462.939 552.773 454.419 549.453 445.136 549.453Z" fill="#17091D"/>
<path d="M457.802 583.068C458.823 576.388 454.641 570.206 448.457 569.25C442.273 568.293 436.434 572.948 435.413 579.628C434.392 586.308 438.596 592.504 444.773 593.453C450.949 594.402 456.781 589.748 457.802 583.068Z" fill="#D969BD"/>
<path d="M451.213 566.29C453.085 566.883 454.816 567.853 456.3 569.141C457.803 570.45 459.029 572.046 459.908 573.836C460.798 575.656 461.331 577.632 461.477 579.654C461.618 581.704 461.371 583.763 460.75 585.723C459.533 589.661 456.851 592.982 453.259 594.999C451.532 595.97 449.627 596.578 447.658 596.788C445.689 596.998 443.698 596.805 441.806 596.221C439.933 595.63 438.202 594.66 436.72 593.37C435.23 592.062 434.015 590.47 433.148 588.686C432.258 586.865 431.725 584.89 431.578 582.868C431.439 580.816 431.686 578.757 432.305 576.796C433.524 572.858 436.205 569.537 439.797 567.519C441.518 566.553 443.417 565.945 445.379 565.734C447.341 565.523 449.326 565.712 451.213 566.29ZM448.459 569.261C446.965 569.041 445.442 569.135 443.985 569.535C442.529 569.936 441.172 570.635 440.001 571.588C437.535 573.612 435.904 576.478 435.422 579.633C434.94 582.788 435.64 586.01 437.388 588.679C438.213 589.947 439.297 591.026 440.567 591.845C441.838 592.665 443.267 593.207 444.761 593.436C446.256 593.665 447.781 593.576 449.239 593.174C450.696 592.772 452.052 592.067 453.219 591.105C455.684 589.08 457.315 586.215 457.797 583.06C458.279 579.905 457.579 576.683 455.831 574.014C454.998 572.754 453.913 571.681 452.644 570.863C451.375 570.045 449.95 569.499 448.459 569.261Z" fill="#17091D"/>
<path d="M220.488 745.028C220.354 744.635 217.374 735.391 226.839 725.58C227.046 720.606 228.442 687.715 229.561 674.806C229.819 671.813 230.015 667.668 230.24 662.871C231.105 644.562 232.289 619.486 238.775 612.806C242.139 609.344 258.704 598.318 288.014 580.031C308.28 567.395 327.403 555.813 327.592 555.697L328.478 555.162L361.494 576.98L355.227 600.115C355.071 601.297 353.668 611.86 351.684 625.424L351.666 625.544C347.96 650.878 342.739 683.213 338.924 693.395C336.268 700.493 332.631 708.391 329.423 715.362C325.234 724.453 321.277 733.064 320.75 737.158C320.59 738.486 320.505 739.821 320.496 741.158C320.449 743.388 320.387 746.162 317.146 746.162C315.783 746.162 313.796 745.62 310.37 744.558C307.158 743.555 297.747 742.569 285.808 741.988C278.843 741.62 271.464 741.453 264.492 741.453C254.216 741.453 239.941 741.838 230.262 743.671C226.85 744.318 224.358 745.082 222.843 745.94L221.124 746.922L220.488 745.028Z" fill="#7E4282"/>
<path d="M328.438 557.09L359.608 577.682L353.62 599.78C353.62 599.78 352.167 610.755 350.049 625.293C346.557 649.148 341.223 682.58 337.394 692.806C331.217 709.26 320.103 729.344 319.129 736.937C318.464 742.108 319.572 744.493 317.145 744.493C316.008 744.493 314.093 743.97 310.856 742.962C307.448 741.9 297.75 740.9 285.888 740.319C279.199 739.988 271.819 739.791 264.491 739.791C251.411 739.791 238.505 740.42 229.956 742.039C226.519 742.69 223.779 743.493 222.035 744.493C222.035 744.493 219.038 735.642 228.445 726.268C228.445 726.268 229.971 688.973 231.188 674.937C232.405 660.9 232.223 621.897 239.948 613.948C243.915 609.86 267.198 594.948 288.878 581.42C309.37 568.642 328.438 557.09 328.438 557.09ZM328.514 553.217L326.744 554.29C326.555 554.406 307.426 565.991 287.141 578.635C242.814 606.297 238.883 610.333 237.593 611.66C231.195 618.246 229.734 638.711 228.601 662.788C228.376 667.566 228.179 671.697 227.921 674.657C226.831 687.155 225.502 718.293 225.222 724.893C215.608 735.271 218.78 745.126 218.94 745.555L220.208 749.308L223.652 747.348C224.582 746.82 226.537 746.028 230.556 745.264C238.011 743.853 250.063 743.082 264.484 743.082C271.441 743.082 278.784 743.264 285.72 743.606C299.854 744.3 307.568 745.384 309.875 746.104C313.537 747.242 315.554 747.784 317.141 747.784C320.186 747.784 321.305 745.737 321.647 744.875C322.068 743.784 322.094 742.642 322.126 741.199C322.135 739.926 322.217 738.655 322.37 737.391C322.86 733.544 326.77 725.053 330.905 716.068C334.124 709.071 337.772 701.159 340.453 693.991C344.319 683.635 349.58 651.191 353.282 625.777L353.319 625.544C355.244 612.373 356.621 602.05 356.832 600.453L362.765 578.544L363.383 576.257L361.41 574.955L330.24 554.362L328.507 553.224L328.514 553.217Z" fill="#17091D"/>
<path d="M352.122 610.908L350.047 625.305C346.556 649.159 341.222 682.592 337.392 692.817C331.216 709.272 320.101 729.355 319.128 736.948C318.154 744.541 320.999 746.126 310.855 742.974C307.446 741.912 297.749 740.912 285.886 740.33C277.461 733.305 265.369 722.33 266.931 718.399C269.304 712.432 280.909 719.272 300.761 718.399C320.614 717.526 347.762 606.908 347.762 606.908L352.122 610.908Z" fill="#5C2C66"/>
<path d="M306.43 603.564C306.43 603.564 292.802 633.633 276.187 640.771C275.514 641.062 274.827 641.316 274.126 641.531C273.366 641.768 272.59 641.951 271.805 642.08C253.275 645.091 239.664 648.124 239.937 661.153C240.209 674.182 241.535 719.396 238.872 728.426C237.873 731.804 234.182 736.942 229.945 742.051C226.508 742.702 223.768 743.506 222.024 744.506C222.024 744.506 219.027 735.655 228.434 726.28C228.434 726.28 229.96 688.986 231.177 674.949C232.394 660.913 232.223 621.898 239.948 613.949C243.915 609.862 267.198 594.949 288.878 581.422L306.43 603.564Z" fill="#5C2C66"/>
<path d="M277.519 634.021C277.006 636.445 276.556 638.748 276.171 640.93C273.424 656.49 271.553 672.192 270.565 687.963C270.562 688.015 270.54 688.064 270.503 688.101C270.466 688.134 270.418 688.152 270.369 688.152C270.32 688.151 270.273 688.131 270.238 688.097C270.22 688.08 270.206 688.059 270.197 688.035C270.188 688.012 270.183 687.988 270.183 687.963C270.213 682.144 270.038 676.526 270.514 670.533C271.39 659.548 272.825 648.613 274.812 637.773C274.748 635.747 275.138 633.732 275.953 631.875C275.998 631.772 276.065 631.68 276.15 631.606C276.235 631.532 276.335 631.478 276.443 631.448C276.551 631.418 276.665 631.412 276.776 631.431C276.886 631.45 276.991 631.494 277.083 631.559C277.206 631.651 277.3 631.778 277.352 631.923C277.672 632.744 277.734 633.453 277.519 634.021Z" fill="#17091D"/>
<path d="M313.914 565.955C307.338 595.661 292.394 664.137 291.751 675.773C291.213 685.377 316.908 693.461 335.351 698.013" stroke="#17091D" stroke-width="2.54333" stroke-linecap="round" stroke-linejoin="round"/>
<path d="M229.095 711.509C232.608 708.386 236.801 706.418 240.409 709.56C245.826 714.287 246.731 730.396 246.753 740.247" stroke="#17091D" stroke-width="2.54333" stroke-linecap="round" stroke-linejoin="round"/>
<path d="M373.742 548.908C373.742 548.908 374.399 601.028 353.395 614.363C353.395 614.363 331.813 594.075 330.069 574.399C328.325 554.723 373.742 548.908 373.742 548.908Z" fill="#5C2C66" stroke="#17091D" stroke-width="3.27" stroke-miterlimit="10"/>
<path d="M677.503 606.617C676.224 605.752 646.017 585.134 633.387 560.625C632.374 558.657 631.302 556.668 630.201 554.708C618.618 534.065 605.887 520.377 605.759 520.243L605.422 519.879L596.945 470.497L598.435 470.134C600.361 469.75 602.324 469.574 604.288 469.61C616.365 469.61 647.278 475.337 673.416 528.374C673.779 529.075 674.11 529.788 674.455 530.512C694.26 571.85 692.622 590.875 687.742 599.526C684.181 605.868 678.917 606.828 678.691 606.868L678.048 606.977L677.503 606.617Z" fill="#CE44A2"/>
<path d="M604.276 471.274C616.357 471.274 646.288 477.092 671.936 529.125C672.28 529.823 672.624 530.529 672.968 531.245C692.544 572.106 690.931 590.517 686.306 598.754C683.087 604.485 678.407 605.299 678.407 605.299C678.407 605.299 647.411 584.332 634.829 559.914C633.775 557.865 632.703 555.875 631.613 553.943C619.787 532.852 606.939 519.161 606.939 519.161L599.604 476.43L598.804 471.772C600.605 471.412 602.44 471.245 604.276 471.274ZM604.276 468.001C602.183 467.963 600.092 468.154 598.041 468.572L595.062 469.299L595.581 472.321L596.381 476.979L603.717 519.71L603.884 520.681L604.556 521.408C604.679 521.543 617.273 535.106 628.761 555.554C629.851 557.492 630.916 559.466 631.922 561.419C637.325 571.906 646.492 582.939 659.172 594.215C664.694 599.166 670.508 603.78 676.583 608.034L677.673 608.761L678.966 608.539C679.602 608.43 685.296 607.285 689.169 600.39C692.377 594.677 693.318 586.75 691.963 576.826C690.255 564.306 684.86 548.506 675.929 529.863C675.624 529.223 675.29 528.535 674.879 527.706C663.507 504.63 650.027 487.895 634.814 477.975C622.221 469.757 611.263 468.034 604.294 468.034L604.276 468.001Z" fill="#17091D"/>
<path d="M671.952 529.09C640.705 484.875 610.214 477.555 599.62 476.363L598.82 471.705C598.82 471.705 638.936 462.108 671.952 529.09Z" fill="#D969BD"/>
<path d="M688.999 590C669.568 591.091 669.016 589.687 649.148 560.546C630.491 533.16 616.561 527.291 612.931 526.167C612.626 526.068 612.316 525.987 612.001 525.924" stroke="#17091D" stroke-width="2.54333" stroke-linecap="round" stroke-linejoin="round"/>
<path d="M686.32 598.735C683.101 604.466 678.421 605.28 678.421 605.28C678.421 605.28 647.425 584.313 634.843 559.895C633.789 557.846 632.717 555.856 631.627 553.924C640.834 566.157 655.52 584.233 665.134 588.927C672.426 592.469 680.241 596.029 686.32 598.735Z" fill="#9C398C"/>
<path d="M611.229 538.182C609.591 538.182 607.342 537.895 605.91 536.535C604.257 534.964 601.397 527.633 596.885 515.746C594.828 510.331 592.499 504.197 591.864 503.306C589.938 500.608 589.455 499.033 589.404 498.862L589.328 498.593L591.311 466.902L593.586 468.19C594.051 468.451 605.031 474.764 611.36 487.059C616.516 497.07 627.739 525.121 623.663 531.924C621.083 536.233 615.411 538.182 611.229 538.182Z" fill="#CE44A2"/>
<path d="M592.779 469.625C592.779 469.625 603.73 475.807 609.906 487.807C616.083 499.807 625.53 525.625 622.26 531.08C620.047 534.771 615.036 536.534 611.229 536.534C609.412 536.534 607.868 536.131 607.036 535.338C604.456 532.887 595.01 504.887 593.193 502.342C591.376 499.796 590.977 498.4 590.977 498.4L592.793 469.603M589.857 464.182L589.53 469.4L587.714 498.196L587.677 498.76L587.834 499.302C587.925 499.625 588.488 501.371 590.511 504.214C591.176 505.305 593.491 511.407 595.355 516.316C600.899 530.913 603.036 536.051 604.801 537.709C606.618 539.443 609.31 539.807 611.247 539.807C616.028 539.807 622.147 537.625 625.083 532.753C626.289 530.742 626.536 527.702 625.809 523.193C625.09 519.026 624.065 514.918 622.743 510.902C620.112 502.563 616.203 492.905 612.813 486.298C606.273 473.571 594.871 467.025 594.388 466.753L589.843 464.182H589.857Z" fill="#17091D"/>
<path d="M360.256 457.974C357.735 456.795 354.953 456.286 352.178 456.498C349.404 456.71 346.731 457.636 344.418 459.185C336.32 464.545 334.053 469.527 341.544 474.127C349.036 478.727 363.112 484.182 368.972 511.818C374.833 539.454 385.966 545.127 394.042 538.291C402.119 531.454 402.991 524.505 397.825 510.709C392.658 496.913 394.475 487.564 385.751 479.327C377.028 471.091 360.256 457.974 360.256 457.974Z" fill="#CE44A2" stroke="#17091D" stroke-width="3.27" stroke-miterlimit="10"/>
<path d="M272.92 628.644C264.883 628.644 257.107 626.804 250.244 625.186C248.649 624.822 247.141 624.458 245.644 624.116C236.303 622.044 230.639 616.844 227.819 607.72C225.199 599.251 224.945 587.244 226.991 568.782C228.905 551.495 233.451 535.611 240.503 521.575C248.649 505.36 259.905 492.218 273.955 482.506C277.001 480.407 280.159 478.478 283.416 476.727C294.316 470.851 305.58 467.869 316.879 467.869C323.11 467.86 329.308 468.762 335.279 470.546C345.604 473.703 354.526 480.326 360.541 489.298C372.502 507.04 374.322 529.498 374.348 541.298C374.378 544.783 374.218 548.267 373.868 551.735L373.708 553.08L372.357 553.175C353.703 554.466 340.325 572.051 326.163 590.666C320.24 598.451 314.118 606.502 307.607 613.164C297.426 623.582 286.08 628.644 272.92 628.644Z" fill="#CE44A2"/>
<path d="M316.881 469.488C322.954 469.487 328.995 470.374 334.812 472.12C344.782 475.156 353.395 481.552 359.188 490.222C370.727 507.338 372.689 528.848 372.711 541.313C372.74 544.732 372.584 548.151 372.242 551.553C344.571 553.455 327.963 590 306.432 612.029C295.063 623.666 283.669 627.008 272.903 627.008C263.275 627.008 254.152 624.335 245.98 622.52C228.671 618.68 224.776 603.455 228.591 568.964C232.065 537.597 245.305 504.288 274.862 483.851C277.861 481.78 280.972 479.877 284.181 478.149C296.233 471.655 307.376 469.488 316.881 469.488ZM316.881 466.215C305.305 466.215 293.784 469.262 282.641 475.269C279.327 477.054 276.114 479.02 273.016 481.157C258.748 491.029 247.296 504.364 239.026 520.837C231.887 535.051 227.283 551.12 225.347 568.604C223.276 587.298 223.552 599.513 226.24 608.204C229.213 617.804 235.436 623.535 245.272 625.717C246.762 626.044 248.262 626.4 249.854 626.778C256.8 628.418 264.674 630.28 272.903 630.28C286.539 630.28 298.271 625.058 308.768 614.317C315.352 607.586 321.506 599.495 327.458 591.669C341.392 573.357 354.548 556.058 372.464 554.818L375.164 554.629L375.487 551.942C375.843 548.409 376.007 544.86 375.977 541.309C375.974 533.085 375.131 524.882 373.463 516.829C371.127 505.88 367.236 496.313 361.895 488.393C355.666 479.103 346.427 472.249 335.735 468.986C329.618 467.149 323.267 466.216 316.881 466.215Z" fill="#17091D"/>
<path d="M298.13 488.261C307.94 478.039 320.439 480.414 325.362 493.694C326.47 496.683 326.503 499.599 324.53 501.777C306.919 522.399 275.844 534.93 292.484 495.675C293.275 493.835 294.394 492.154 295.787 490.715C296.586 489.886 297.367 489.061 298.13 488.261Z" fill="#D969BD"/>
<path d="M372.706 541.313C372.736 544.733 372.579 548.151 372.238 551.553C344.57 553.455 327.962 590.001 306.431 612.03C284.9 634.059 263.289 626.364 245.979 622.521C228.67 618.677 224.775 603.455 228.59 568.964C232.064 537.597 245.304 504.288 274.861 483.852C269.244 493.586 259.873 511.804 254.187 533.553C245.66 566.182 245.605 600.168 272.354 604.099C299.102 608.03 320.15 579.637 334.684 564.364C346.586 551.859 361.341 543.953 372.706 541.313Z" fill="#9C398C"/>
<path d="M252.889 592.988C257.137 594.191 261.212 595.936 265.013 598.181C261.811 597.211 258.81 596.23 256.01 595.236C253.744 594.488 251.343 594.24 248.972 594.508C245.938 594.777 241.68 597.781 239.348 599.33C239.335 599.334 239.321 599.334 239.308 599.33C239.3 599.33 239.293 599.327 239.287 599.324C239.281 599.32 239.275 599.315 239.271 599.308C239.269 599.303 239.268 599.296 239.268 599.29C239.268 599.284 239.269 599.278 239.271 599.272C239.269 599.266 239.267 599.259 239.267 599.252C239.267 599.245 239.269 599.238 239.271 599.232C242.999 595.084 247.538 593.003 252.889 592.988Z" fill="#17091D"/>
<path d="M227.954 600.792C231.376 603.061 235.22 605.214 238.883 606.338C248.813 609.4 287.086 624.363 302.927 589.378C318.769 554.392 373.741 542.363 373.741 542.363" stroke="#17091D" stroke-width="2.54333" stroke-linecap="round" stroke-linejoin="round"/>
<path d="M254.75 888.302C251.568 888.302 248.854 887.989 246.692 887.375C245.295 886.999 243.973 886.384 242.786 885.557L242.339 885.229L242.179 884.702C242.085 884.393 232.9 853.946 227.173 842.637C221.277 830.997 211.692 777.299 212.967 772C213.621 769.255 213.603 768.269 213.588 768.066C212.609 764.846 212.193 761.482 212.357 758.12C212.796 750.848 216.444 745.757 222.912 743.375C224.75 742.702 227.508 742.08 231.105 741.531C239.487 740.248 252.058 739.379 265.621 739.146C267.925 739.106 270.254 739.084 272.525 739.084C275.991 739.084 279.428 739.131 282.698 739.222C291.985 739.473 300.084 740.084 306.122 740.986C315.849 742.44 318.366 744.328 319.42 745.619C328.242 756.459 325.982 804.408 324.601 824.528C324.053 832.528 323.733 839.211 323.453 845.095C322.974 855.248 322.654 861.957 321.538 866.633C320.299 871.844 318.021 874.488 313.908 875.466C312.433 875.829 309.781 876.597 306.424 877.582C295.887 880.68 278.225 885.862 263.859 887.662C260.839 888.062 257.797 888.276 254.75 888.302Z" fill="#CE44A2"/>
<path d="M272.509 740.727C275.924 740.727 279.325 740.771 282.642 740.862C300.129 741.334 315.262 743.12 318.14 746.658C324.872 754.927 325.406 788.749 322.961 824.414C320.516 860.08 322.547 871.72 313.536 873.869C307.36 875.324 282.537 883.669 263.662 886.033C260.709 886.425 257.735 886.636 254.756 886.662C252.186 886.719 249.619 886.428 247.126 885.796C245.913 885.478 244.763 884.951 243.729 884.24C243.729 884.24 234.475 853.48 228.618 841.909C222.761 830.338 213.427 776.971 214.524 772.378C215.509 768.342 215.146 767.636 215.146 767.636C215.146 767.636 209.252 750.153 223.462 744.934C225.239 744.284 227.946 743.691 231.339 743.171C239.794 741.876 252.5 741.029 265.62 740.804C267.909 740.764 270.212 740.745 272.523 740.745M272.523 737.473C270.227 737.473 267.891 737.473 265.58 737.531C251.966 737.767 239.311 738.644 230.86 739.938C227.15 740.505 224.291 741.153 222.354 741.862C218.401 743.316 215.389 745.709 213.394 748.978C211.776 751.734 210.861 754.846 210.731 758.04C210.564 761.518 210.979 765 211.959 768.342C211.868 769.457 211.675 770.561 211.382 771.64C211.204 772.367 210.833 773.934 212.239 784.025C213.078 790.047 214.339 797.553 215.789 805.16C217.496 814.127 221.889 835.804 225.737 843.407C231.398 854.593 240.543 884.898 240.634 885.204L240.953 886.265L241.854 886.913C243.194 887.847 244.687 888.54 246.265 888.96C248.609 889.629 251.388 889.953 254.771 889.953C257.885 889.925 260.995 889.706 264.083 889.298C278.58 887.48 296.311 882.276 306.906 879.164C310.241 878.185 312.875 877.411 314.31 877.069C320.352 875.614 322.198 870.942 323.128 867.025C324.28 862.2 324.582 855.433 325.087 845.185C325.366 839.309 325.683 832.647 326.235 824.654C327.546 805.505 327.906 788.378 327.27 775.12C326.5 759.084 324.346 749.105 320.687 744.607C319.361 742.982 316.537 740.916 306.368 739.393C300.264 738.48 292.096 737.862 282.751 737.611C279.452 737.52 276.011 737.473 272.531 737.473H272.523Z" fill="#17091D"/>
<path d="M263.66 886.039C257.084 886.864 251.234 886.966 247.143 885.803C245.93 885.484 244.78 884.958 243.746 884.246C243.746 884.246 234.492 853.486 228.635 841.915C222.778 830.344 213.444 776.977 214.541 772.385C215.508 768.341 215.145 767.635 215.145 767.635C215.145 767.635 209.251 750.152 223.461 744.934C225.238 744.283 227.945 743.69 231.338 743.17C231.051 758.37 231.066 798.61 238.881 823.592C246.951 849.37 259.646 877.395 263.66 886.039Z" fill="#9C398C"/>
<path d="M287.086 798.433C286.911 814.869 282.083 824.251 282.083 824.251C283.638 803.502 271.808 761.211 265.609 740.804C271.31 740.705 277.087 740.727 282.631 740.88C284.35 757.356 287.217 786.876 287.086 798.433Z" fill="#D969BD"/>
<path d="M215.195 767.854C232.192 763.81 289.893 752.654 324.104 777.836" stroke="#17091D" stroke-width="2.54333" stroke-linecap="round" stroke-linejoin="round"/>
<path d="M269.801 915.916C268.486 915.916 267.185 915.894 265.932 915.854C262.238 915.765 258.556 915.4 254.916 914.763C249.963 913.847 246.247 911.44 243.867 907.607C238.442 898.88 242.017 885.887 242.174 885.338L242.493 884.196L243.678 884.149C243.765 884.149 252.398 883.785 262.6 883.16C274.427 882.432 283.361 881.64 289.156 880.825C303.552 878.796 320.893 870.385 321.068 870.28L321.794 869.916L322.521 870.28C325.09 871.545 327.244 875.04 328.244 879.632C329.091 883.502 329.066 887.512 328.168 891.37C327.27 895.228 325.524 898.837 323.055 901.934C318.641 907.411 308.522 910.694 300.819 912.48C291.416 914.665 280.109 915.916 269.801 915.916Z" fill="#CE44A2"/>
<path d="M321.785 871.782C326.871 874.288 330.868 889.637 321.785 900.91C314.703 909.695 289.302 914.284 269.802 914.284C268.502 914.284 267.23 914.264 265.987 914.222C262.376 914.137 258.775 913.786 255.215 913.171C236.968 909.797 243.744 885.797 243.744 885.797C243.744 885.797 252.377 885.433 262.703 884.808C271.881 884.237 282.403 883.44 289.382 882.459C304.214 880.368 321.785 871.782 321.785 871.782ZM321.785 868.146L320.331 868.848C320.128 868.95 303.022 877.237 288.906 879.226C283.159 880.033 274.268 880.815 262.478 881.55C252.304 882.179 243.675 882.531 243.584 882.535L241.215 882.63L240.572 884.913C240.409 885.488 236.648 899.153 242.451 908.491C245.085 912.728 249.169 915.4 254.593 916.39C258.316 917.032 262.08 917.397 265.857 917.48C267.125 917.524 268.444 917.546 269.777 917.546C280.201 917.546 291.642 916.277 301.162 914.066C312.737 911.379 320.524 907.64 324.299 902.953C326.912 899.67 328.762 895.845 329.713 891.756C330.664 887.667 330.692 883.418 329.796 879.317C328.677 874.226 326.21 870.328 323.201 868.848L321.748 868.139L321.785 868.146Z" fill="#17091D"/>
<path d="M265.986 914.221C262.374 914.136 258.774 913.785 255.213 913.17C236.967 909.796 243.743 885.796 243.743 885.796C243.743 885.796 252.376 885.432 262.702 884.807C262.262 885.687 258.611 894.036 265.986 914.221Z" fill="#9C398C"/>
<path d="M327.776 993.52C323.478 993.52 319.448 992.277 316.211 991.277C314.06 990.611 312.214 990.04 310.975 990.04C310.716 990.027 310.457 990.071 310.216 990.168C308.501 991.03 304.792 991.95 299.527 991.95C292.987 991.95 282.05 990.528 267.212 983.753C256.588 978.902 251.094 965.397 250.884 943.608C250.728 927.728 253.587 913 253.616 912.855C253.69 912.484 253.89 912.15 254.182 911.91C254.474 911.67 254.84 911.539 255.218 911.539C255.278 911.535 255.337 911.535 255.396 911.539C255.454 911.539 261.555 912.2 270.907 912.2C276.742 912.2 282.603 911.95 288.318 911.473C306.717 909.888 321.381 901.942 321.534 901.862C321.794 901.721 322.087 901.652 322.382 901.663C322.678 901.675 322.965 901.766 323.213 901.928C323.819 902.324 338.135 911.699 343.439 916.873C343.614 917.044 343.803 917.237 343.948 917.393C346.884 920.513 348.054 924.026 349.187 927.426C350.005 929.88 350.775 932.197 352.17 934.16C354.278 937.124 356.479 943.979 358.605 950.608C360.171 955.488 361.791 960.531 363.037 962.782L363.212 963.084C363.958 964.263 364.395 965.611 364.484 967.003C364.572 968.395 364.308 969.788 363.717 971.051C362.235 974.364 358.932 976.771 354.888 977.495C352.461 977.928 348.849 981.033 345.354 984.04C340.46 988.248 334.912 993.015 329.553 993.462C328.968 993.495 328.368 993.52 327.776 993.52Z" fill="#CE44A2"/>
<path d="M322.329 903.273C322.329 903.273 337.058 912.899 342.312 918.022C342.472 918.179 342.628 918.339 342.781 918.499C347.548 923.568 347.344 930.135 350.854 935.084C354.364 940.033 358.651 958.182 361.623 963.553C361.696 963.688 361.769 963.812 361.841 963.917C364.817 968.764 361.042 974.706 354.615 975.855C348.187 977.004 338.152 991.07 329.432 991.797C328.883 991.844 328.342 991.862 327.79 991.862C320.843 991.862 314.532 988.382 310.989 988.382C310.476 988.365 309.966 988.468 309.5 988.684C308.133 989.372 304.776 990.295 299.541 990.295C292.416 990.295 281.792 988.586 267.905 982.244C243.798 971.241 255.232 913.153 255.232 913.153C255.232 913.153 261.354 913.822 270.921 913.822C275.949 913.822 281.93 913.637 288.473 913.073C307.461 911.437 322.333 903.255 322.333 903.255M322.333 899.982C321.784 899.983 321.244 900.122 320.763 900.386C320.505 900.524 306.146 908.255 288.194 909.804C282.522 910.292 276.709 910.532 270.921 910.532C261.674 910.532 255.661 909.888 255.585 909.884C255.464 909.869 255.343 909.862 255.221 909.862C254.465 909.864 253.734 910.127 253.15 910.608C252.566 911.089 252.167 911.757 252.02 912.499C250.153 922.755 249.228 933.161 249.255 943.586C249.35 953.153 250.491 961.306 252.649 967.815C255.508 976.448 260.184 982.299 266.543 985.201C281.646 992.11 292.823 993.546 299.533 993.546C304.18 993.546 308.395 992.819 310.851 991.637H310.982C311.967 991.637 313.798 992.204 315.734 992.801C319.077 993.833 323.237 995.117 327.783 995.117C328.429 995.117 329.072 995.092 329.697 995.041C335.583 994.55 341.342 989.586 346.411 985.222C349.583 982.495 353.18 979.404 355.167 979.041C359.745 978.222 363.495 975.462 365.199 971.655C365.891 970.149 366.199 968.495 366.095 966.84C365.991 965.185 365.478 963.583 364.603 962.175V962.153C364.563 962.084 364.523 962.022 364.486 961.953V961.928C363.32 959.815 361.725 954.848 360.181 950.041C357.917 942.982 355.777 936.317 353.521 933.146C352.268 931.382 351.534 929.179 350.756 926.844C349.622 923.444 348.34 919.572 345.164 916.215C344.968 916.008 344.801 915.826 344.616 915.655C339.198 910.368 324.752 900.91 324.138 900.51C323.599 900.165 322.969 899.988 322.329 900.001L322.333 899.982Z" fill="#17091D"/>
<path d="M354.595 975.877C348.168 977.023 338.133 991.092 329.413 991.819C320.693 992.546 312.699 987.092 309.48 988.706C306.261 990.321 291.989 993.273 267.886 982.266C243.782 971.259 255.213 913.175 255.213 913.175C255.213 913.175 269.463 914.732 288.454 913.095C307.446 911.459 322.328 903.273 322.328 903.273C322.328 903.273 337.057 912.899 342.311 918.023C342.471 918.179 342.627 918.339 342.78 918.499C339.968 917.226 326.164 911.226 317.924 912.71C308.721 914.353 286.696 920.673 278.27 921.332C269.844 921.99 266.687 934.281 267.904 947.408C269.121 960.535 265.557 980.335 284.959 980.979C304.361 981.623 312.43 978.099 320.565 980.044C328.701 981.99 344.222 986.553 361.622 963.553C361.695 963.688 361.768 963.812 361.84 963.917C364.798 968.786 361.023 974.728 354.595 975.877Z" fill="#9C398C"/>
<path d="M333.755 966.135C333.755 966.135 331.742 955.065 341.813 944" stroke="#17091D" stroke-width="3.21913" stroke-linecap="round" stroke-linejoin="round"/>
<path d="M336.778 953.488C336.778 953.488 353.905 964.554 347.86 981.154" stroke="#17091D" stroke-width="3.21913" stroke-linecap="round" stroke-linejoin="round"/>
<path d="M307.612 962.182C307.612 962.182 306.199 980.571 311.246 989.273" stroke="#17091D" stroke-width="3.87677" stroke-linecap="round" stroke-linejoin="round"/>
<path d="M286.418 970.545C286.418 970.545 285.393 987.596 291.948 991.519" stroke="#17091D" stroke-width="3.1937" stroke-linecap="round" stroke-linejoin="round"/>
<path d="M272.224 974.641C272.224 974.641 271.195 985.408 277.775 987.884" stroke="#17091D" stroke-width="2.54333" stroke-linecap="round" stroke-linejoin="round"/>
<path d="M504.646 852.946C503.778 852.946 502.92 852.946 502.066 852.921C498.927 852.866 495.726 852.779 492.551 852.666C477.227 852.147 461.939 850.858 446.745 848.804C439.755 847.862 433.567 846.881 428.106 846.011C424.698 845.47 421.479 844.957 418.5 844.524C411.382 843.495 401.884 841.055 395.174 839.186C380.568 835.117 362.452 829.066 359.81 826.884C356.682 824.291 357.093 807.379 357.151 805.455C357.325 799.546 358.212 784.841 362.648 775.928C363.501 774.22 364.954 772.887 366.727 772.183C368.501 771.479 370.471 771.455 372.262 772.113C376.8 773.782 386.145 777.131 397.735 780.841C418.06 787.353 436.35 792.168 452.104 795.153C463.19 797.255 472.905 798.404 480.975 798.571C482.203 798.597 483.464 798.608 484.724 798.608C487.613 798.608 490.628 798.542 493.691 798.408C513.78 797.542 533.705 794.022 546.887 791.222C556.523 789.179 566.064 786.764 573.752 784.422C579.02 782.819 583.14 781.328 585.062 780.328C586.879 779.393 588.372 778.542 589.706 777.782C592.885 775.997 594.981 774.819 596.973 774.819C599.185 774.819 600.635 776.306 601.532 777.426C603.894 780.364 604.606 795.462 604.802 804.204C604.857 806.561 605.307 827.339 603.291 830.87C602.971 831.433 602.201 832.757 594.026 835.877C588.841 837.848 581.887 840.066 574.446 842.113C564.974 844.724 554.826 847.033 545.154 848.797C530.094 851.553 516.458 852.946 504.646 852.946Z" fill="#CE44A2"/>
<path d="M369.587 773.27C370.308 773.266 371.024 773.389 371.702 773.634C376.752 775.488 385.915 778.757 397.24 782.383C413.005 787.434 432.952 793.172 451.802 796.743C462.139 798.703 472.149 800.016 480.945 800.19C482.2 800.217 483.462 800.23 484.731 800.23C487.706 800.23 490.718 800.162 493.767 800.026C511.992 799.274 531.085 796.252 547.235 792.823C557.892 790.561 567.262 788.095 574.238 785.986C579.815 784.288 583.867 782.797 585.825 781.779C591.758 778.696 594.723 776.463 596.99 776.463C598.167 776.463 599.17 777.063 600.26 778.459C603.53 782.546 604.257 825.957 601.892 830.07C600.874 831.855 589.716 836.23 574.031 840.55C565.38 842.932 555.349 845.277 544.881 847.201C531.525 849.63 517.453 851.31 504.638 851.31C503.781 851.31 502.933 851.303 502.095 851.288C498.827 851.23 495.665 851.145 492.608 851.034C474.078 850.372 459.221 848.852 446.963 847.186C435.623 845.659 426.5 844.034 418.732 842.906C412.631 842.026 404.18 839.997 395.609 837.612C379.51 833.128 362.989 827.39 360.849 825.612C357.968 823.226 357.128 790.674 364.119 776.645C364.626 775.626 365.408 774.77 366.375 774.172C367.342 773.573 368.457 773.257 369.594 773.259M369.594 769.986C367.849 769.978 366.136 770.461 364.65 771.38C363.165 772.299 361.968 773.616 361.194 775.183C356.616 784.386 355.708 799.375 355.526 805.39C355.364 810.017 355.497 814.649 355.926 819.259C356.573 825.51 357.681 827.212 358.778 828.121C359.348 828.594 360.856 829.837 371.938 833.67C378.761 836.026 387.074 838.605 394.744 840.743C401.502 842.623 411.073 845.085 418.277 846.125C421.246 846.554 424.454 847.066 427.862 847.608C433.33 848.477 439.529 849.463 446.537 850.408C461.785 852.468 477.126 853.76 492.503 854.281C495.697 854.394 498.908 854.481 502.048 854.539C502.898 854.539 503.777 854.561 504.656 854.561C516.566 854.561 530.3 853.161 545.484 850.397C555.218 848.626 565.395 846.303 574.914 843.685C582.406 841.619 589.411 839.386 594.639 837.397C602.705 834.325 604.086 832.83 604.747 831.67C605.409 830.51 606.03 828.474 606.368 820.976C606.582 816.248 606.619 810.266 606.47 804.157C606.313 797.841 605.968 791.859 605.496 787.314C604.697 779.648 603.741 777.536 602.825 776.405C602.186 775.608 600.242 773.186 596.99 773.186C594.567 773.186 592.318 774.452 588.917 776.361C587.594 777.088 586.094 777.95 584.321 778.874C583.452 779.325 580.64 780.615 573.286 782.852C565.656 785.179 556.152 787.579 546.56 789.619C533.44 792.405 513.609 795.906 493.633 796.768C490.595 796.903 487.601 796.968 484.738 796.968C483.489 796.968 482.235 796.968 481.021 796.928C473.028 796.765 463.414 795.623 452.416 793.539C436.731 790.568 418.506 785.768 398.243 779.277C386.678 775.576 377.359 772.234 372.835 770.572C371.797 770.191 370.7 769.997 369.594 769.997V769.986Z" fill="#17091D"/>
<path d="M397.241 782.397L395.613 837.612C379.514 833.128 362.993 827.39 360.853 825.612C357.972 823.226 357.132 790.674 364.123 776.644C364.797 775.297 365.944 774.245 367.344 773.69C368.744 773.135 370.3 773.116 371.713 773.637C376.752 775.503 385.916 778.772 397.241 782.397Z" fill="#9C398C"/>
<path d="M492.552 852.669C477.229 852.149 461.941 850.86 446.747 848.807L445.017 848.575L445.38 846.862C448.258 832.553 449.624 809.28 450.184 796.68L450.271 794.793L452.124 795.157C463.209 797.258 472.925 798.407 480.994 798.575C482.222 798.6 483.48 798.615 484.744 798.615C487.633 798.615 490.648 798.546 493.711 798.411L495.459 798.335L494.209 852.727L492.552 852.669Z" fill="#7E4282"/>
<path d="M451.799 796.758C462.136 798.718 472.146 800.031 480.942 800.205C482.197 800.232 483.459 800.245 484.728 800.245C487.702 800.245 490.714 800.177 493.764 800.042L492.609 851.034C474.079 850.372 459.222 848.852 446.963 847.187C449.888 832.642 451.261 808.867 451.799 796.758ZM448.7 792.838L448.533 796.612C447.973 809.165 446.614 832.343 443.758 846.54L443.068 849.965L446.527 850.431C461.774 852.492 477.115 853.785 492.492 854.303L495.802 854.423L495.879 851.107L497.034 800.114L497.114 796.62L493.622 796.772C490.581 796.903 487.591 796.972 484.728 796.972C483.474 796.972 482.225 796.972 481.011 796.932C473.018 796.769 463.404 795.627 452.409 793.543L448.7 792.838Z" fill="#17091D"/>
<path d="M574.228 785.986C574.882 797.623 574.413 824.35 574.039 840.532C565.388 842.914 555.356 845.259 544.888 847.183C544.318 829.503 546.269 803.91 547.225 792.805" fill="#7E4282"/>
<path d="M574.228 785.986C574.882 797.623 574.413 824.35 574.039 840.532C565.388 842.914 555.356 845.259 544.888 847.183C544.318 829.503 546.269 803.91 547.225 792.805" stroke="#17091D" stroke-width="3.27" stroke-miterlimit="10"/>
<path d="M495.484 529.391C481.677 529.391 474.25 526.615 465.665 523.406C464.034 522.796 462.348 522.164 460.578 521.528L459.27 521.059L457.9 520.562C451.36 518.156 443.941 515.152 436.994 512.1C419.671 504.488 397.028 493.072 387.421 481.903C373.12 465.24 358.151 458.61 357.991 458.544C356.814 458.046 356.174 457.327 356.065 456.408C355.909 454.929 357.155 454.042 358.503 453.101C359.175 452.647 359.811 452.143 360.407 451.594C361.341 450.693 364.255 444.142 366.584 438.877C367.503 436.813 368.448 434.684 369.385 432.624C370.984 429.132 372.15 426.713 373.171 424.783C373.367 424.42 373.571 424.035 373.763 423.693C378.556 415.046 399.415 410.904 401.035 410.591L401.293 410.533H401.329H401.402C402.765 410.232 404.4 409.916 406.125 409.618L406.943 409.476C407.931 409.313 409.003 409.145 410.129 408.975L411.75 408.742L412.386 408.655L413.265 408.542C413.541 408.502 413.846 408.459 414.155 408.422L414.78 408.346L415.249 408.288L415.921 408.208L416.648 408.121C418.137 407.95 419.493 407.808 420.771 407.685L421.636 407.605C423.635 407.416 425.633 407.242 427.598 407.122L429.321 407.009C430.183 406.956 431.06 406.906 431.951 406.86L432.78 406.816L434.287 406.744L436.369 406.66L437.438 406.624C440.457 406.526 443.512 406.479 446.521 406.479H449.039H450.521C474.636 406.843 498.633 409.926 522.058 415.667C524.292 416.209 526.451 416.757 528.478 417.328C531.541 418.167 534.517 419.061 537.311 419.984C538.72 420.445 540.003 420.881 541.238 421.321C541.965 421.575 542.692 421.837 543.418 422.102L544.508 422.516C544.715 422.592 544.944 422.68 545.166 422.77L546.005 423.094C546.572 423.312 547.132 423.537 547.687 423.762C548.007 423.889 548.334 424.024 548.654 424.158C550.54 424.939 552.382 425.75 554.104 426.567L554.831 426.905C556.618 427.755 558.3 428.606 559.83 429.448C560.099 429.59 560.382 429.746 560.662 429.899L561.658 430.451C562.141 430.727 562.606 430.993 563.056 431.258C564.194 431.923 565.309 432.606 566.366 433.285L566.969 433.678C568.092 434.404 569.15 435.131 570.134 435.858C570.341 436.003 570.563 436.163 570.777 436.326L571.609 436.944C571.795 437.086 571.973 437.224 572.154 437.365C573.669 438.535 575.112 439.745 576.434 440.955C576.594 441.097 576.765 441.257 576.936 441.417C578.069 442.474 579.145 443.553 580.126 444.621C580.257 444.759 580.398 444.916 580.54 445.072C580.954 445.537 581.289 445.918 581.59 446.278C581.692 446.398 581.808 446.532 581.917 446.667C582.026 446.801 582.142 446.936 582.248 447.07C582.666 447.579 583.083 448.109 583.479 448.636C583.643 448.854 583.799 449.068 583.952 449.279L584.315 449.773L584.428 449.933L584.526 450.079C584.598 450.184 584.675 450.289 584.744 450.398C585.755 451.873 586.673 453.411 587.491 455.002C587.56 455.147 587.774 455.568 587.774 455.568C588.072 456.183 588.315 456.717 588.53 457.211L588.552 457.265C588.581 457.334 588.613 457.4 588.639 457.472C588.664 457.545 588.74 457.712 588.791 457.836L588.977 458.29C589.053 458.475 589.122 458.653 589.191 458.846L589.267 459.053C589.307 459.162 589.347 459.267 589.384 459.373C589.721 460.31 590.027 461.295 590.277 462.279C590.375 462.668 590.459 463.031 590.535 463.369L590.557 463.475C590.579 463.584 590.604 463.689 590.626 463.798C590.648 463.907 590.626 463.882 590.626 463.907L590.655 464.052C590.681 464.183 590.706 464.31 590.724 464.441C590.801 464.863 590.87 465.328 590.931 465.829C590.931 465.938 590.957 466.058 590.971 466.192C591.087 467.34 591.065 468.498 590.906 469.64C590.862 469.946 590.819 470.302 590.771 470.701C590.507 472.76 590.385 474.835 590.408 476.911C590.466 478.727 590.157 484.646 589.485 494.532C589.329 496.796 589.198 498.645 589.122 499.586C589.1 499.841 589.097 500.088 589.093 500.335V500.484C589.038 503.816 585.427 515.38 541.242 523.893C540.286 524.079 539.309 524.257 538.31 524.446C536.537 524.769 534.676 525.1 532.598 525.456C516.779 528.126 504.988 529.391 495.484 529.391Z" fill="#CE44A2"/>
<path d="M446.546 408.088H449.046H450.521C474.507 408.463 498.375 411.538 521.673 417.255C523.867 417.788 525.99 418.338 528.042 418.904C531.113 419.747 534.033 420.623 536.802 421.531C538.136 421.967 539.433 422.408 540.693 422.854C541.42 423.108 542.132 423.366 542.829 423.628L543.919 424.035C544.137 424.115 544.352 424.198 544.563 424.282L545.409 424.609C545.972 424.827 546.525 425.048 547.073 425.27L548.021 425.659C549.911 426.439 551.713 427.232 553.428 428.039L554.155 428.373C555.877 429.194 557.518 430.025 559.078 430.865C559.354 431.011 559.626 431.16 559.895 431.309C560.229 431.49 560.56 431.672 560.891 431.861C561.352 432.123 561.806 432.384 562.25 432.646C563.383 433.307 564.473 433.972 565.52 434.64L566.115 435.029C567.198 435.739 568.23 436.449 569.211 437.158C569.422 437.307 569.629 437.46 569.832 437.613C570.112 437.816 570.388 438.023 570.657 438.227L571.18 438.63C572.699 439.802 574.094 440.972 575.366 442.14C575.533 442.289 575.693 442.438 575.856 442.59C576.983 443.641 578.017 444.681 578.959 445.708C579.097 445.853 579.228 445.998 579.363 446.147C579.726 446.536 580.049 446.921 580.373 447.306L580.696 447.688L581.008 448.069C581.43 448.585 581.831 449.095 582.211 449.599C582.364 449.802 582.513 450.006 582.658 450.209C582.818 450.427 582.971 450.645 583.123 450.86C583.218 450.998 583.316 451.136 583.407 451.274C584.385 452.7 585.272 454.187 586.062 455.725L586.339 456.277C586.597 456.807 586.836 457.323 587.065 457.832C587.102 457.916 587.138 457.996 587.171 458.079C587.236 458.228 587.298 458.381 587.36 458.53L587.498 458.875C587.57 459.049 587.636 459.238 587.701 459.394C587.766 459.551 587.821 459.718 587.875 459.878C588.239 460.869 588.515 461.8 588.733 462.65C588.824 463.013 588.904 463.358 588.976 463.689C589.005 463.823 589.035 463.951 589.06 464.081C589.06 464.143 589.082 464.205 589.096 464.263C589.122 464.401 589.147 464.536 589.169 464.67C589.256 465.153 589.318 465.596 589.365 465.992C589.365 466.105 589.391 466.214 589.402 466.319C589.504 467.337 589.484 468.363 589.343 469.375C589.3 469.688 589.253 470.058 589.205 470.465C588.924 472.602 588.793 474.756 588.813 476.911C588.889 479.2 588.308 488.276 587.894 494.351C587.737 496.607 587.607 498.453 587.53 499.394C587.505 499.721 587.501 500.048 587.494 500.375C587.461 502.366 585.256 513.684 540.969 522.215C540.017 522.399 539.048 522.582 538.062 522.763C536.1 523.124 534.203 523.461 532.369 523.773C515.888 526.6 504.342 527.726 495.531 527.726C479.439 527.726 472.455 523.97 461.152 519.958L459.808 519.537L458.442 519.039C452.755 516.946 445.442 514.047 437.634 510.617C419.002 502.417 397.54 491.219 388.642 480.838C375.376 465.4 361.206 458.134 358.623 457.044C356.04 455.954 359.39 454.864 361.53 452.785C363.067 451.299 367.056 441.689 370.871 433.318C372.175 430.462 373.454 427.752 374.613 425.561C374.81 425.197 375.006 424.834 375.195 424.471C379.755 416.245 401.402 412.179 401.402 412.179H401.442H401.515L401.602 412.157L401.751 412.125C402.412 411.979 403.989 411.641 406.405 411.224L407.215 411.086C408.158 410.931 409.21 410.765 410.373 410.588L411.532 410.421L412.284 410.315L413.468 410.159L414.351 410.043L414.972 409.966L415.437 409.908L416.106 409.828L416.833 409.745C418.126 409.596 419.496 409.447 420.942 409.309L421.796 409.229C423.656 409.055 425.633 408.891 427.722 408.749L429.437 408.637C430.292 408.581 431.161 408.531 432.045 408.488L432.819 408.448L434.371 408.375L436.442 408.292L437.499 408.255C440.369 408.164 443.385 408.11 446.539 408.11M446.539 404.84C443.512 404.84 440.435 404.891 437.394 404.985L436.304 405.025L434.236 405.087L432.659 405.16L432.296 405.178L431.882 405.2C431.068 405.24 430.2 405.29 429.237 405.352L427.497 405.465C425.535 405.599 423.5 405.763 421.498 405.952L421.015 405.995L420.651 406.032C419.347 406.155 417.988 406.3 416.48 406.471L415.754 406.558L415.067 406.642C414.903 406.642 414.74 406.678 414.58 406.704L413.981 406.776C413.679 406.813 413.37 406.853 413.072 406.896L412.258 407.002L411.895 407.053H411.862L411.55 407.096C411.397 407.118 411.245 407.136 411.096 407.162L410.514 407.245L409.94 407.325C408.818 407.496 407.738 407.667 406.721 407.834L406.34 407.899L405.896 407.994H405.878C404.101 408.302 402.485 408.615 401.079 408.924H401.031H401.006L400.919 408.946L400.806 408.971L400.697 408.993H400.675C396.714 409.794 392.808 410.846 388.98 412.143C380.234 415.133 374.65 418.748 372.35 422.89C372.135 423.275 371.936 423.642 371.732 424.042C370.693 426.004 369.516 428.446 367.91 431.955C366.969 434.023 366.021 436.159 365.101 438.223C363.019 442.899 360.178 449.29 359.226 450.475C358.699 450.942 358.141 451.373 357.555 451.764C356.131 452.771 354.176 454.148 354.437 456.579C354.554 457.65 355.164 459.122 357.344 460.052C357.489 460.114 372.103 466.592 386.156 482.967C395.945 494.369 418.835 505.916 436.315 513.596C443.287 516.659 450.743 519.679 457.308 522.095L457.773 522.262L458.696 522.6L458.827 522.647L460.011 523.072C461.784 523.701 463.463 524.329 465.098 524.936C473.818 528.206 481.368 531.026 495.487 531.026C505.086 531.026 516.967 529.754 532.878 527.029C534.945 526.666 536.82 526.342 538.607 526.012C539.763 525.801 540.704 525.623 541.561 525.456C560.695 521.771 574.516 517.099 582.618 511.58C589.572 506.857 590.677 502.591 590.717 500.469V500.335C590.717 500.095 590.717 499.866 590.739 499.681C590.811 498.722 590.942 496.872 591.102 494.594C592.119 479.607 592.05 477.496 592.028 476.791C592.01 474.803 592.131 472.817 592.392 470.847V470.85C592.435 470.487 592.475 470.145 592.519 469.833C592.697 468.559 592.721 467.268 592.592 465.989V465.96C592.592 465.844 592.57 465.724 592.552 465.596C592.49 465.077 592.417 464.59 592.334 464.114L592.268 463.751V463.682V463.58V463.533V463.496V463.467C592.246 463.344 592.221 463.224 592.192 463.104V463.013C592.101 462.606 592.014 462.239 591.923 461.872V461.85C591.661 460.837 591.345 459.809 590.982 458.806C590.942 458.697 590.906 458.588 590.862 458.479L590.804 458.315V458.286V458.261C590.739 458.09 590.662 457.897 590.571 457.672C590.528 457.56 590.484 457.447 590.437 457.334L590.397 457.233C590.346 457.116 590.299 456.996 590.244 456.869L590.143 456.626L590.121 456.579C589.907 456.073 589.649 455.518 589.347 454.896L589.253 454.707L589.082 454.366V454.34V454.315C588.234 452.661 587.281 451.063 586.23 449.53L586.015 449.214L585.932 449.094V449.068V449.043L585.815 448.879C585.699 448.712 585.576 448.542 585.452 448.371C585.329 448.2 585.136 447.935 584.972 447.717C584.561 447.172 584.136 446.632 583.697 446.096C583.588 445.958 583.475 445.82 583.363 445.686L583 445.279C582.687 444.916 582.338 444.501 581.931 444.051L581.906 444.025C581.768 443.869 581.63 443.717 581.484 443.564C580.478 442.474 579.381 441.384 578.214 440.294C578.036 440.13 577.851 439.967 577.684 439.807C576.336 438.575 574.868 437.344 573.324 436.145L572.594 435.607C572.318 435.396 572.031 435.182 571.743 434.971C571.456 434.76 571.286 434.633 571.082 434.488C570.083 433.761 569.004 433.035 567.874 432.282L567.623 432.119L567.26 431.879C566.17 431.189 565.047 430.491 563.877 429.812C563.46 429.561 562.998 429.296 562.486 429.005C562.122 428.809 561.795 428.616 561.45 428.431C561.17 428.275 560.887 428.122 560.596 427.97C559.049 427.13 557.348 426.273 555.542 425.426L555.179 425.248L554.841 425.092C553.083 424.267 551.208 423.446 549.297 422.65L548.319 422.251C547.785 422.036 547.208 421.804 546.615 421.575L545.78 421.252C545.565 421.164 545.333 421.074 545.093 420.986C544.73 420.848 544.366 420.71 544.003 420.576C543.276 420.307 542.55 420.042 541.823 419.784C540.573 419.34 539.28 418.901 537.863 418.439C535.04 417.513 532.049 416.623 528.95 415.765C526.908 415.202 524.732 414.639 522.49 414.094C498.939 408.316 474.811 405.213 450.565 404.843H449.093H449.071H446.528L446.539 404.84Z" fill="#17091D"/>
<path d="M560.581 476.114C558.552 477.43 556.493 478.641 554.405 479.748C543.966 485.27 532.932 488.184 522.101 489.383C502.688 491.542 483.933 488.192 470.438 484.5C458.085 481.121 450.143 477.455 450.143 477.455C450.143 477.455 424.571 467.474 407.531 454.928C393.608 444.697 385.368 432.765 401.412 423.17C428.684 406.863 487.283 417.116 513.392 422.85C525.644 425.509 537.446 429.928 548.432 435.97C565.904 445.642 583.842 461.018 560.581 476.114Z" fill="#9C398C" stroke="#17091D" stroke-width="3.27" stroke-miterlimit="10"/>
<path d="M554.407 479.738C508.133 504.22 450.13 477.446 450.13 477.446C450.13 477.446 424.559 467.465 407.519 454.919C416.17 440.113 448.266 432.621 484.752 437.951C523.753 443.659 553.749 461.942 554.407 479.738Z" fill="#5C2C66" stroke="#17091D" stroke-width="3.27" stroke-miterlimit="10"/>
<path d="M493.648 529.246C477.806 529.246 470.194 525.885 458.673 520.802C452.86 518.241 446.283 515.334 437.098 512.148L437.037 512.126L436.975 512.1C419.651 504.489 397.008 493.073 387.402 481.904C373.101 465.241 358.132 458.61 357.972 458.545C356.794 458.047 356.155 457.328 356.046 456.405C355.89 454.93 357.136 454.043 358.484 453.102C359.162 452.649 359.804 452.145 360.406 451.594C361.372 450.65 364.613 443.354 366.979 438.031C369.22 432.988 371.539 427.771 373.192 424.759L373.214 424.726L373.232 424.69C376.901 418.716 385.047 414.182 397.451 411.214C398.062 411.066 398.687 410.99 399.315 410.988C400.904 410.983 402.45 411.507 403.707 412.478C404.965 413.449 405.863 414.812 406.259 416.351C406.786 418.575 405.917 420.617 404.046 421.558C396.216 425.493 392.99 430.103 394.178 435.651C396.234 445.247 411.93 457.847 436.161 469.361C457.634 479.564 482.304 487.107 496.176 487.706H496.274C500.65 488.171 505.046 488.41 509.445 488.422C526.137 488.422 541.001 485.014 553.634 478.296L553.674 478.274C564.185 473.035 569.879 467.334 570.598 461.332C571.245 455.944 567.92 450.127 560.712 444.041C559.008 442.587 558.561 439.888 559.571 437.137C560.534 434.514 562.438 432.883 564.548 432.883C565.416 432.892 566.262 433.155 566.983 433.639C580.826 442.558 588.895 453.469 590.963 466.07L590.988 466.233V466.397C590.719 473.38 590.262 481.043 589.76 489.159C589.539 492.767 589.317 496.448 589.103 500.165C589.357 500.979 589.397 502.145 588.597 503.62C585.179 509.935 565.526 520.882 532.542 525.438C515.393 528.047 503.029 529.261 493.648 529.261V529.246Z" fill="#CE44A2"/>
<path d="M399.316 412.633C404.109 412.633 406.529 418.49 403.313 420.107C359.055 442.343 460.164 487.796 496.108 489.351C500.539 489.815 504.991 490.051 509.446 490.056C525.001 490.056 540.606 487.077 554.402 479.737C579.257 467.34 574.792 453.795 561.763 442.79C559.292 440.701 561.399 434.502 564.546 434.502C565.099 434.514 565.637 434.687 566.094 435C577.637 442.438 587.073 452.473 589.347 466.319C588.955 476.493 588.133 488.261 587.447 500.404C589.816 505.429 568.706 518.774 532.311 523.806C514.896 526.44 502.859 527.61 493.649 527.61C470.348 527.61 465.25 520.18 437.634 510.602C419.002 502.417 397.54 491.219 388.642 480.838C375.376 465.4 361.206 458.134 358.623 457.044C356.04 455.954 359.39 454.864 361.53 452.785C363.67 450.707 370.889 432.344 374.61 425.561C378.545 419.177 387.573 415.26 397.834 412.811C398.319 412.694 398.817 412.634 399.316 412.633ZM399.316 409.363C398.56 409.365 397.806 409.455 397.071 409.632C384.049 412.75 375.798 417.4 371.841 423.846L371.798 423.915L371.761 423.984C370.075 427.054 367.743 432.301 365.486 437.376C363.39 442.1 360.225 449.214 359.215 450.482C358.692 450.947 358.137 451.376 357.555 451.764C356.131 452.771 354.176 454.148 354.437 456.578C354.554 457.65 355.164 459.122 357.344 460.052C357.489 460.114 372.103 466.592 386.156 482.967C395.945 494.369 418.835 505.915 436.315 513.596L436.435 513.647L436.558 513.691C445.681 516.855 452.232 519.748 458.013 522.298C469.723 527.465 477.458 530.88 493.645 530.88C503.11 530.88 515.547 529.659 532.787 527.04C551.106 524.496 564.012 520.158 571.609 516.954C577.233 514.581 587.105 509.796 590.037 504.382C591.022 502.566 591.004 501.043 590.764 499.986C590.971 496.353 591.189 492.737 591.403 489.231C591.898 481.111 592.363 473.441 592.632 466.447V466.116L592.577 465.789C590.426 452.709 582.113 441.446 567.87 432.25C566.887 431.593 565.732 431.24 564.549 431.232C561.734 431.232 559.241 433.274 558.039 436.559C556.789 439.974 557.424 443.4 559.659 445.279C566.417 450.987 569.553 456.32 568.975 461.127C568.325 466.545 562.933 471.82 552.945 476.802L552.905 476.82L552.868 476.842C540.475 483.432 525.865 486.775 509.45 486.775C505.105 486.769 500.764 486.54 496.443 486.088H496.345H496.246C482.578 485.496 458.158 478.015 436.86 467.896C425.596 462.548 415.906 456.811 408.818 451.299C401.267 445.435 396.759 439.909 395.774 435.313C395.411 433.576 394.27 428.3 404.777 423.021C407.35 421.738 408.556 418.973 407.847 415.987C407.365 414.091 406.264 412.411 404.718 411.212C403.173 410.013 401.272 409.364 399.316 409.367V409.363Z" fill="#17091D"/>
<path d="M459.809 519.537C441.035 512.739 401.595 495.92 388.643 480.838C375.377 465.4 361.207 458.133 358.624 457.043C356.041 455.953 359.391 454.863 361.531 452.785C363.594 450.79 370.065 434.182 374.611 425.56C376.126 425.324 377.223 425.967 377.677 427.839C380.464 439.24 362.399 453.501 417.161 481.023C445.323 495.193 461.462 509.265 459.809 519.537Z" fill="#9C398C"/>
<path d="M588.768 476.921C588.845 479.21 588.263 488.286 587.849 494.361C571.096 496.781 540.616 500.432 563.041 491.2C575.848 485.931 584.012 477.913 589.161 470.457C588.879 472.6 588.748 474.76 588.768 476.921Z" fill="#9C398C"/>
<path d="M540.935 522.244L539.194 503.187C538.992 500.93 539.569 498.671 540.829 496.787C542.089 494.904 543.956 493.508 546.119 492.832C566.001 486.535 583.35 469.92 589.018 464.074" stroke="#17091D" stroke-width="2.54333" stroke-linecap="round" stroke-linejoin="round"/>
<path d="M370.887 433.314C378.957 448.277 393.904 468.362 418.702 476.914C440.386 484.399 451.184 489.518 456.561 492.712C458.176 493.678 459.466 495.103 460.265 496.806C461.065 498.509 461.337 500.412 461.048 502.271L458.443 519.018" stroke="#17091D" stroke-width="2.54333" stroke-linecap="round" stroke-linejoin="round"/>
</svg>
