<svg width="1800" height="1650" viewBox="0 0 1800 1650" fill="none" xmlns="http://www.w3.org/2000/svg">
<g id="Body 04">
<g id="glove 2">
<path id="Vector" d="M1417.21 1611.77C1404.34 1611.77 1389.7 1605.69 1375.55 1599.77C1370.72 1597.77 1366.17 1595.87 1361.88 1594.31C1355.12 1591.85 1350.32 1590.71 1346.76 1590.71C1346.17 1590.71 1345.58 1590.75 1345 1590.82C1343.28 1591.06 1341.54 1591.19 1339.8 1591.19C1329.87 1591.19 1320.7 1587.07 1315.27 1580.19C1313.06 1577.44 1311.51 1574.21 1310.76 1570.76C1310 1567.31 1310.05 1563.74 1310.91 1560.31C1310.99 1560.01 1311.05 1559.71 1311.11 1559.39C1314.01 1544.3 1323.49 1499.39 1328.72 1482.62C1330.58 1476.62 1327.85 1468.27 1324.96 1459.41C1321.29 1448.13 1317.11 1435.34 1322.25 1424.41C1322.55 1423.78 1322.85 1423.19 1323.16 1422.59C1331.72 1406.22 1356.69 1374.52 1362.24 1367.59C1361.97 1361.24 1361.14 1338.13 1361.87 1313.65C1363.64 1254.39 1372.62 1244.95 1375.58 1241.85C1376.67 1240.62 1378 1239.62 1379.49 1238.94C1380.98 1238.25 1382.6 1237.88 1384.24 1237.85C1393.56 1237.85 1419.24 1229.17 1439.79 1222.19C1453.79 1217.43 1467.12 1212.93 1475.39 1210.99C1479.32 1210.05 1483.35 1209.57 1487.39 1209.56C1498.39 1209.56 1507.25 1213.3 1514.39 1216.3C1519.65 1218.52 1524.19 1220.44 1528.26 1220.44C1529.67 1220.45 1531.06 1220.2 1532.38 1219.7C1533.11 1219.43 1533.89 1219.29 1534.67 1219.29C1541.17 1219.29 1544.17 1227.84 1546.67 1240.69C1548.53 1250.28 1550.23 1263.59 1551.67 1280.25C1553.91 1305.38 1554.99 1330.8 1555.21 1336.25C1560.9 1346.6 1605.21 1429.46 1599.21 1489.05C1597.4 1507.11 1591.07 1521.42 1580.4 1531.59L1579.73 1532.21C1574.9 1536.66 1570.01 1540.9 1565.17 1544.84C1553.5 1554.46 1540.95 1562.96 1527.68 1570.21C1501.04 1584.52 1483.31 1586.06 1476.92 1586.06C1475.51 1586.07 1474.09 1585.98 1472.69 1585.79H1472.35C1471.87 1585.8 1471.39 1585.89 1470.93 1586.03C1467.7 1586.96 1463.19 1590.15 1457.93 1593.84C1449.16 1600.04 1438.24 1607.76 1424.93 1610.93C1422.4 1611.51 1419.81 1611.79 1417.21 1611.77Z" fill="#CE44A2"/>
<path id="Vector_2" d="M1487.38 1214.05C1505.45 1214.05 1516.93 1224.92 1528.22 1224.92C1530.16 1224.94 1532.09 1224.6 1533.91 1223.92C1534.14 1223.83 1534.38 1223.79 1534.63 1223.79C1546.63 1223.79 1550.77 1337.53 1550.77 1337.53C1550.77 1337.53 1600.9 1427.03 1594.77 1488.65C1593.19 1504.35 1587.97 1518.23 1577.33 1528.37L1576.69 1528.97C1571.8 1533.47 1567.02 1537.61 1562.36 1541.39C1550.92 1550.84 1538.61 1559.18 1525.58 1566.29C1502.52 1578.68 1485.4 1581.61 1476.95 1581.61C1475.76 1581.62 1474.57 1581.54 1473.39 1581.38C1473.06 1581.33 1472.72 1581.31 1472.39 1581.31C1471.49 1581.32 1470.59 1581.46 1469.73 1581.72C1459.73 1584.59 1444.63 1601.66 1423.92 1606.57C1421.73 1607.07 1419.49 1607.32 1417.24 1607.3C1400.99 1607.3 1380.12 1596.23 1363.44 1590.16C1357.14 1587.86 1351.44 1586.29 1346.79 1586.29C1345.99 1586.29 1345.2 1586.34 1344.41 1586.44C1342.89 1586.66 1341.36 1586.76 1339.82 1586.76C1324.15 1586.76 1311.98 1575.3 1315.3 1561.42C1315.39 1561.05 1315.48 1560.67 1315.55 1560.25C1318.74 1543.67 1328.03 1500.04 1333.03 1484.02C1338.03 1468 1318.2 1443.7 1326.34 1426.37C1326.6 1425.82 1326.87 1425.27 1327.16 1424.72C1336.51 1406.84 1366.82 1369.08 1366.82 1369.08C1366.82 1369.08 1360.64 1242.36 1384.26 1242.36C1400.64 1242.36 1455.52 1220.27 1476.44 1215.36C1480.04 1214.5 1483.74 1214.07 1487.44 1214.06M1487.44 1205.06C1483.06 1205.08 1478.7 1205.59 1474.44 1206.6C1465.96 1208.6 1452.59 1213.12 1438.44 1217.92C1419.23 1224.43 1392.91 1233.35 1384.33 1233.35C1382.08 1233.37 1379.85 1233.86 1377.8 1234.79C1375.75 1235.72 1373.91 1237.06 1372.41 1238.74C1366.78 1244.66 1359.1 1258.84 1357.47 1313.51C1356.78 1336.61 1357.47 1357.98 1357.77 1366.09C1350.6 1375.15 1327.55 1404.71 1319.26 1420.54C1318.96 1421.12 1318.65 1421.75 1318.26 1422.47V1422.53C1312.37 1435.08 1316.83 1448.77 1320.77 1460.84C1323.32 1468.65 1325.95 1476.71 1324.51 1481.32C1319.23 1498.25 1309.69 1543.42 1306.79 1558.54C1306.79 1558.54 1306.79 1558.6 1306.79 1558.63C1306.79 1558.83 1306.71 1559.03 1306.66 1559.24V1559.31C1305.64 1563.4 1305.58 1567.66 1306.48 1571.77C1307.39 1575.89 1309.23 1579.74 1311.86 1583.02C1318.14 1591.02 1328.63 1595.73 1339.92 1595.73C1341.87 1595.73 1343.82 1595.59 1345.76 1595.32C1346.13 1595.27 1346.51 1595.25 1346.89 1595.25C1349.89 1595.25 1354.31 1596.34 1360.47 1598.59C1364.66 1600.11 1369.17 1601.98 1373.95 1603.97C1388.51 1609.97 1403.57 1616.26 1417.34 1616.26C1420.29 1616.27 1423.22 1615.93 1426.09 1615.26C1440.29 1611.9 1451.6 1603.9 1460.7 1597.47C1465.18 1594.3 1469.81 1591.02 1472.31 1590.31H1472.47C1473.99 1590.51 1475.53 1590.6 1477.06 1590.59C1483.79 1590.59 1502.41 1589 1529.94 1574.21C1543.47 1566.83 1556.26 1558.17 1568.15 1548.36C1573.05 1544.36 1578.01 1540.07 1582.89 1535.58L1582.98 1535.5L1583.67 1534.85C1595.11 1523.95 1601.9 1508.69 1603.82 1489.54C1606.52 1462.54 1599.7 1427.96 1583.57 1386.71C1576.66 1369.05 1568.72 1351.8 1559.8 1335.06C1559.5 1327.88 1558.41 1303.74 1556.29 1279.86C1554.79 1263.05 1553.06 1249.58 1551.17 1239.86C1550.31 1234.9 1548.99 1230.03 1547.23 1225.31C1544.4 1218.31 1540.23 1214.82 1534.77 1214.81C1533.45 1214.81 1532.14 1215.05 1530.91 1215.51C1530.09 1215.82 1529.22 1215.97 1528.35 1215.96C1525.19 1215.96 1521.04 1214.21 1516.23 1212.18C1508.74 1209.02 1499.42 1205.09 1487.51 1205.09L1487.44 1205.06Z" fill="#17091D"/>
<path id="Vector_3" d="M1344.38 1586.42C1349.38 1585.72 1355.98 1587.42 1363.38 1590.14C1382.45 1597.08 1406.99 1610.55 1423.86 1606.55C1444.57 1601.64 1459.68 1584.55 1469.67 1581.7C1470.85 1581.32 1472.11 1581.21 1473.34 1581.36C1479.67 1582.36 1498.52 1580.78 1525.53 1566.27C1538.56 1559.16 1550.87 1550.82 1562.31 1541.37C1566.98 1537.58 1571.75 1533.44 1576.64 1528.95L1577.28 1528.35C1585.65 1520.23 1591.28 1506.35 1594.72 1488.63C1600.87 1427.01 1550.72 1337.51 1550.72 1337.51C1550.72 1337.51 1546.42 1219.23 1533.86 1223.9C1518.39 1229.67 1504.55 1208.74 1476.36 1215.35C1455.44 1220.26 1400.56 1242.35 1384.18 1242.35C1360.56 1242.35 1366.74 1369.07 1366.74 1369.07C1366.74 1369.07 1336.43 1406.83 1327.08 1424.71C1326.79 1425.26 1326.52 1425.81 1326.26 1426.36C1332.53 1420.63 1363.52 1393.18 1386.33 1389.97C1411.81 1386.39 1474.83 1384.07 1497.44 1378.58C1520.05 1373.09 1538.81 1402.52 1546.84 1437.88C1552.22 1461.49 1565.71 1491.09 1559.1 1513.56C1555.82 1524.74 1547.58 1534.15 1530.92 1540.21C1529.17 1540.85 1527.45 1541.46 1525.78 1542.05C1501.26 1550.6 1483.24 1554.18 1468.91 1557.34C1455.91 1560.2 1445.97 1562.71 1436.91 1568.23C1422.22 1577.23 1397.82 1593.74 1358.91 1582.23C1346.05 1578.42 1331.59 1571.52 1315.38 1560.23C1315.31 1560.65 1315.22 1561.03 1315.13 1561.4C1311.63 1576.61 1326.59 1588.92 1344.38 1586.42Z" fill="#9C398C"/>
<path id="Vector_4" d="M1390.57 1543.13C1390.57 1543.13 1386.38 1512.48 1350.57 1492.13" stroke="#17091D" stroke-width="8.86" stroke-linecap="round" stroke-linejoin="round"/>
<path id="Vector_5" d="M1371.86 1512.65C1371.86 1512.65 1336.51 1556.23 1366.51 1594.45" stroke="#17091D" stroke-width="8.86" stroke-linecap="round" stroke-linejoin="round"/>
<path id="Vector_6" d="M1455.58 1510.44C1455.58 1510.44 1474.99 1557.3 1469.23 1584.36" stroke="#17091D" stroke-width="10.67" stroke-linecap="round" stroke-linejoin="round"/>
<path id="Vector_7" d="M1518.18 1514.17C1518.18 1514.17 1535.44 1557.86 1521.64 1573.73" stroke="#17091D" stroke-width="8.79" stroke-linecap="round" stroke-linejoin="round"/>
<path id="Vector_8" d="M1558.81 1512.72C1558.81 1512.72 1570.7 1539.99 1555.6 1552.1" stroke="#17091D" stroke-width="7" stroke-linecap="round" stroke-linejoin="round"/>
<path id="Vector_9" d="M1425 1567C1432.18 1567 1438 1554.24 1438 1538.5C1438 1522.76 1432.18 1510 1425 1510C1417.82 1510 1412 1522.76 1412 1538.5C1412 1554.24 1417.82 1567 1425 1567Z" fill="#D969BD"/>
<path id="Vector_10" d="M1496.06 1539.13C1503.02 1537.35 1506.16 1526.15 1503.08 1514.11C1500 1502.07 1491.86 1493.75 1484.91 1495.53C1477.95 1497.31 1474.81 1508.51 1477.89 1520.55C1480.97 1532.59 1489.1 1540.91 1496.06 1539.13Z" fill="#D969BD"/>
<path id="Vector_11" d="M1540.37 1518.54C1546.38 1517 1549.51 1508.94 1547.36 1500.54C1545.21 1492.14 1538.6 1486.58 1532.59 1488.12C1526.58 1489.65 1523.45 1497.71 1525.6 1506.11C1527.75 1514.51 1534.36 1520.07 1540.37 1518.54Z" fill="#D969BD"/>
</g>
<g id="glove 1">
<path id="Vector_12" d="M486 1632.18C474.17 1632.18 463.08 1628.76 454.17 1626C448.26 1624.18 443.17 1622.6 439.76 1622.6H439.41C438.824 1622.59 438.242 1622.71 437.7 1622.93C432.95 1625.32 422.7 1627.85 408.26 1627.85C399.012 1627.79 389.786 1626.92 380.69 1625.25H380.57C365.684 1622.48 351.095 1618.3 337 1612.77C331.18 1610.54 325.22 1608.03 319.27 1605.32L318.39 1604.9C305.11 1598.56 294.65 1586.9 287.32 1570.34C263.4 1516.12 279.12 1424.98 281.57 1411.82C279.62 1407.67 273.51 1394.51 267.92 1380.37C255.24 1348.27 256.02 1338.88 257.72 1334.6C258.108 1333.52 258.722 1332.53 259.522 1331.7C260.323 1330.88 261.29 1330.23 262.36 1329.81C267.36 1327.87 272.83 1325.69 278.6 1323.38C313.3 1309.5 360.83 1290.5 399 1290.5C410.69 1290.5 421 1292.29 429.68 1295.84C451.75 1304.84 471.03 1368.13 474.8 1381.19C482.22 1386.08 515.8 1408.47 529.07 1421.37C529.55 1421.84 530.02 1422.37 530.47 1422.8C538.55 1431.38 541.77 1441.04 544.89 1450.39C547.14 1457.14 549.26 1463.51 553.1 1468.91C558.9 1477.06 564.96 1495.91 570.81 1514.14C575.13 1527.56 579.58 1541.43 583.01 1547.62L583.49 1548.45C585.544 1551.69 586.748 1555.4 586.991 1559.23C587.233 1563.06 586.508 1566.89 584.88 1570.36C580.8 1579.47 571.71 1586.09 560.58 1588.08C555.89 1588.92 549.81 1593.37 545.58 1596.64C541.99 1599.46 538.25 1602.64 534.29 1606.08C520.82 1617.64 505.55 1630.75 490.8 1631.98C489.28 1632.11 487.63 1632.18 486 1632.18Z" fill="#CE44A2"/>
<path id="Vector_13" d="M399 1295C409.57 1295 419.38 1296.49 428 1300C449.86 1308.94 471 1384 471 1384C471 1384 511.54 1410.47 526 1424.56C526.44 1424.99 526.87 1425.43 527.29 1425.87C540.41 1439.81 539.85 1457.87 549.51 1471.48C559.17 1485.09 570.97 1535 579.15 1549.77C579.35 1550.14 579.55 1550.48 579.75 1550.77C587.94 1564.1 577.55 1580.44 559.86 1583.6C554.86 1584.49 549.15 1588.17 542.93 1593.05C526.93 1605.57 507.82 1626.05 490.55 1627.44C489.04 1627.57 487.55 1627.62 486.03 1627.62C466.91 1627.62 449.55 1618.05 439.79 1618.05H439.28C438.038 1618.06 436.813 1618.34 435.69 1618.87C431.93 1620.75 422.69 1623.3 408.29 1623.3C399.269 1623.24 390.271 1622.39 381.4 1620.75C366.809 1618.04 352.511 1613.94 338.7 1608.51C333.1 1606.36 327.273 1603.91 321.22 1601.16L320.43 1600.79C307.17 1594.46 297.89 1582.89 291.51 1568.45C266.51 1511.8 286.34 1411.15 286.34 1411.15C286.34 1411.15 251.5 1338.83 264 1334C299.4 1320.32 355.53 1295 399 1295ZM399 1286C360 1286 312 1305.2 276.92 1319.21C271.17 1321.52 265.73 1323.69 260.74 1325.62C259.096 1326.27 257.605 1327.26 256.365 1328.52C255.125 1329.78 254.163 1331.28 253.54 1332.94C251.27 1338.69 250.7 1349.01 263.75 1382.03C268.95 1395.2 274.47 1407.24 276.89 1412.44C273.697 1430.86 271.563 1449.45 270.5 1468.12C267.98 1512.34 272.26 1547.34 283.21 1572.12C290.99 1589.73 302.21 1602.12 316.48 1608.94L317.31 1609.33H317.37C323.44 1612.1 329.49 1614.64 335.37 1616.91C349.715 1622.53 364.562 1626.79 379.71 1629.61H379.89C389.228 1631.32 398.698 1632.2 408.19 1632.26C420.97 1632.26 432.58 1630.31 439.34 1627.02H439.69C442.4 1627.02 447.44 1628.57 452.77 1630.22C461.97 1633.06 473.42 1636.59 485.93 1636.59C487.71 1636.59 489.48 1636.52 491.2 1636.38C507.4 1635.03 523.2 1621.38 537.2 1609.38C541.13 1606.01 544.83 1602.83 548.34 1600.07C554.21 1595.47 558.57 1592.89 561.34 1592.4C573.93 1590.15 584.25 1582.56 588.94 1572.09C590.845 1567.95 591.692 1563.4 591.406 1558.85C591.12 1554.3 589.709 1549.89 587.3 1546.02V1545.96C587.19 1545.78 587.08 1545.6 586.99 1545.42C586.992 1545.39 586.992 1545.37 586.99 1545.34C583.78 1539.53 579.39 1525.87 575.14 1512.65C568.91 1493.24 563.02 1474.91 556.81 1466.19C553.36 1461.34 551.34 1455.28 549.2 1448.86C546.08 1439.51 542.55 1428.86 533.81 1419.63C533.27 1419.07 532.81 1418.57 532.3 1418.1C519.48 1405.6 488.3 1384.63 478.73 1378.28C476.85 1371.97 472.29 1357.38 466.08 1341.95C462.084 1331.65 457.269 1321.7 451.68 1312.17C444.98 1301.17 438.37 1294.44 431.47 1291.62C422.26 1287.85 411.37 1285.94 399.1 1285.94L399 1286Z" fill="#17091D"/>
<path id="Vector_14" d="M559.81 1583.66C554.81 1584.55 549.1 1588.23 542.88 1593.11C526.88 1605.63 507.77 1626.11 490.5 1627.5C469.28 1629.27 449.62 1617.74 439.23 1618.12C437.988 1618.13 436.762 1618.41 435.64 1618.94C429.92 1621.81 411.52 1626.21 381.35 1620.82C366.759 1618.11 352.461 1614.01 338.65 1608.58C333.05 1606.43 327.223 1603.98 321.17 1601.23L320.38 1600.86C309.9 1595.74 300.26 1584.24 291.46 1568.52C266.46 1511.87 286.29 1411.22 286.29 1411.22C286.29 1411.22 251.5 1338.83 264 1334C308 1317 384 1282 428 1300C449.86 1308.94 471 1384 471 1384C471 1384 422.72 1317.93 400 1322C374.67 1326.52 324.19 1337.19 301 1339C277.81 1340.81 317.81 1469.3 321.16 1505.4C323.39 1529.52 319.76 1561.84 333.03 1581.15C339.62 1590.75 350.38 1597.15 368.1 1597.72L373.56 1597.87C399.56 1598.38 417.76 1596.18 432.36 1594.73C445.59 1593.41 455.83 1592.73 466.11 1595.15C482.88 1599.15 511.19 1607.25 544.54 1584.15C555.54 1576.53 567.18 1565.48 579.09 1549.75C579.29 1550.12 579.49 1550.46 579.69 1550.75C587.89 1564.16 577.5 1580.5 559.81 1583.66Z" fill="#9C398C"/>
<path id="Vector_15" d="M502.45 1556.87C502.45 1556.87 496.91 1526.43 524.63 1496" stroke="#17091D" stroke-width="8.86" stroke-linecap="round" stroke-linejoin="round"/>
<path id="Vector_16" d="M510.77 1522.09C510.77 1522.09 557.91 1552.52 541.27 1598.17" stroke="#17091D" stroke-width="8.86" stroke-linecap="round" stroke-linejoin="round"/>
<path id="Vector_17" d="M430.5 1546C430.5 1546 426.61 1596.57 440.5 1620.5" stroke="#17091D" stroke-width="10.67" stroke-linecap="round" stroke-linejoin="round"/>
<path id="Vector_18" d="M372.16 1569C372.16 1569 369.34 1615.89 387.38 1626.68" stroke="#17091D" stroke-width="8.79" stroke-linecap="round" stroke-linejoin="round"/>
<path id="Vector_19" d="M333.1 1580.26C333.1 1580.26 330.27 1609.87 348.38 1616.68" stroke="#17091D" stroke-width="7" stroke-linecap="round" stroke-linejoin="round"/>
<path id="Vector_20" d="M461.5 1577C467.299 1577 472 1564.24 472 1548.5C472 1532.76 467.299 1520 461.5 1520C455.701 1520 451 1532.76 451 1548.5C451 1564.24 455.701 1577 461.5 1577Z" fill="#D969BD"/>
<path id="Vector_21" d="M397.5 1573C403.299 1573 408 1563.37 408 1551.5C408 1539.63 403.299 1530 397.5 1530C391.701 1530 387 1539.63 387 1551.5C387 1563.37 391.701 1573 397.5 1573Z" fill="#D969BD"/>
<path id="Vector_22" d="M350.5 1584C356.299 1584 361 1576.61 361 1567.5C361 1558.39 356.299 1551 350.5 1551C344.701 1551 340 1558.39 340 1567.5C340 1576.61 344.701 1584 350.5 1584Z" fill="#D969BD"/>
</g>
<g id="collar">
<path id="Vector_23" d="M1028.21 144.53C1027.76 144.53 1027.3 144.473 1026.86 144.36C1016.86 142.74 768.171 116.97 637.331 103.5C636.634 103.428 635.964 103.194 635.374 102.817C634.784 102.441 634.289 101.931 633.931 101.33C620.321 78.4801 620.851 74.9401 621.061 73.6101C621.481 70.8101 626.581 61.7101 636.201 46.6101C636.821 45.6432 637.786 44.9493 638.901 44.6701C640.901 44.1601 688.901 32.3301 770.241 32.3301C858.011 32.3301 948.241 45.9201 1038.24 72.7201C1038.95 72.9298 1039.6 73.3109 1040.13 73.8301L1082.8 116C1083.32 116.515 1083.71 117.15 1083.93 117.849C1084.15 118.549 1084.2 119.292 1084.06 120.013C1083.93 120.734 1083.62 121.412 1083.17 121.987C1082.71 122.561 1082.12 123.016 1081.45 123.31C1059.42 133 1032.29 144.53 1028.21 144.53Z" fill="#CE44A2"/>
<path id="Vector_24" d="M770.241 36.7998C838.811 36.7998 930.751 45.3898 1037 76.9998L1079.64 119.19C1079.64 119.19 1032.2 140 1028.21 140C1028.14 140.014 1028.07 140.014 1028 140C1026 139 637.791 98.9998 637.791 98.9998C637.791 98.9998 625.001 77.5598 625.511 74.2798C626.021 70.9998 640.001 48.9998 640.001 48.9998C640.001 48.9998 688.531 36.7998 770.241 36.7998ZM770.241 27.7998C688.361 27.7998 639.831 39.7998 637.811 40.2698C635.578 40.8313 633.646 42.227 632.411 44.1698C632.261 44.3998 628.811 49.8298 625.231 55.7598C617.771 68.1298 616.931 70.7598 616.611 72.9398C616.191 75.6598 615.611 79.3998 630.061 103.63C630.778 104.836 631.768 105.857 632.95 106.612C634.133 107.367 635.475 107.836 636.871 107.98C741.151 118.71 1012.54 146.79 1025.97 148.78C1026.71 148.95 1027.46 149.033 1028.21 149.03C1030.43 149.03 1032.52 149.03 1058.92 137.91C1071.2 132.73 1083.14 127.49 1083.26 127.43C1084.61 126.842 1085.79 125.934 1086.7 124.786C1087.61 123.637 1088.23 122.282 1088.5 120.84C1088.77 119.397 1088.69 117.911 1088.25 116.509C1087.81 115.108 1087.04 113.834 1086 112.8L1043.36 70.5998C1042.31 69.5607 1041.02 68.7951 1039.6 68.3698C990.868 53.8313 941.092 43.053 890.711 36.1298C850.79 30.6499 810.546 27.8669 770.251 27.7998H770.241Z" fill="#17091D"/>
<path id="Vector_25" d="M638.89 78.4897C638.89 78.4897 721.69 47.4897 852.59 60.9797C983.49 74.4697 1077.34 119.2 1077.34 119.2L1085.23 254.77L1042.44 359.69C1042.44 359.69 894.83 390.69 893.67 389.57C892.51 388.45 717.29 303.86 717.29 303.86C717.29 303.86 584.6 206.28 583.05 202.39C581.5 198.5 638.89 78.4897 638.89 78.4897Z" fill="#5C2C66" stroke="#17091D" stroke-width="9" stroke-miterlimit="10"/>
</g>
<g id="qrm 2">
<path id="Vector_26" d="M1333.5 1327C1333.08 1327 1332.67 1326.94 1332.27 1326.83C1331.39 1326.58 1330.61 1326.07 1330.03 1325.37C1329.45 1324.66 1329.1 1323.8 1329.02 1322.89C1327.54 1305.75 1314.87 1154.75 1325.76 1131.89C1333.53 1115.61 1309.76 1053.25 1299.61 1026.63C1296.71 1019.02 1294.61 1013.52 1293.7 1010.5C1289.11 995.5 1271.88 807.72 1271.15 799.73C1271.13 799.48 1271.13 799.229 1271.15 798.98C1271.32 796.72 1288.3 571.78 1295.65 478.24C1298.74 438.85 1299 437.43 1299.09 436.97C1300.09 431.56 1340.09 354.11 1357.25 321.07C1357.63 320.335 1358.2 319.72 1358.91 319.291C1359.61 318.862 1360.42 318.637 1361.25 318.64H1361.4C1362.25 318.665 1363.08 318.932 1363.79 319.41C1364.5 319.888 1365.06 320.557 1365.4 321.34C1366.08 322.91 1433.9 479.01 1451.86 560.49C1470.57 645.38 1502.68 782.16 1508.19 800.41C1512.49 814.67 1513.73 829.23 1514.82 842.09C1515.22 846.77 1515.59 851.19 1516.09 855.47C1517.15 864.58 1526.69 875.36 1535.92 885.8C1541.5 892.11 1547.28 898.64 1551.41 905.06C1560.28 918.85 1567.79 986.88 1574.73 1055.38C1575.73 1065.27 1576.59 1073.82 1577.24 1079.55C1581 1112.81 1581.93 1261.55 1581.97 1267.85C1581.97 1268.44 1581.86 1269.03 1581.64 1269.58C1581.41 1270.13 1581.08 1270.63 1580.67 1271.05C1580.25 1271.48 1579.75 1271.81 1579.2 1272.04C1578.65 1272.26 1578.06 1272.38 1577.47 1272.38H1577.33C1573.04 1272.38 1471.57 1272.61 1399.58 1292.32C1367.93 1300.98 1346.92 1312.03 1337.15 1325.15C1336.73 1325.73 1336.18 1326.19 1335.55 1326.51C1334.91 1326.84 1334.21 1327 1333.5 1327Z" fill="#CE44A2"/>
<path id="Vector_27" d="M1361.23 323.18C1361.23 323.18 1429.35 479.5 1447.43 561.5C1465.51 643.5 1498.18 782.99 1503.84 801.75C1509.5 820.51 1509.66 839.56 1511.58 856.03C1513.5 872.5 1536.67 890.59 1547.58 907.54C1558.49 924.49 1568.94 1046.7 1572.72 1080.1C1576.5 1113.5 1577.42 1267.92 1577.42 1267.92H1577.28C1572.99 1267.92 1470.97 1268.13 1398.34 1288.02C1369.34 1295.96 1345.01 1307.02 1333.49 1322.5C1333.49 1322.5 1319.13 1156.24 1329.81 1133.87C1340.49 1111.5 1302.5 1024 1298 1009.23C1293.5 994.46 1275.63 799.36 1275.63 799.36C1275.63 799.36 1292.69 573.25 1300.13 478.63C1302.02 454.49 1303.3 438.91 1303.5 437.83C1304.5 432.5 1361.23 323.18 1361.23 323.18ZM1361.23 314.18C1359.58 314.177 1357.96 314.628 1356.55 315.484C1355.14 316.339 1353.99 317.566 1353.23 319.03C1353.09 319.31 1338.87 346.71 1324.72 374.41C1295.51 431.56 1295.03 434.12 1294.64 436.17C1294.5 436.93 1294.25 438.3 1291.15 477.93C1283.79 571.48 1266.82 796.42 1266.65 798.68C1266.6 799.179 1266.6 799.681 1266.65 800.18C1268.49 820.25 1284.74 996.68 1289.37 1011.86C1290.37 1015.02 1292.46 1020.58 1295.37 1028.27C1301.07 1043.27 1309.7 1065.86 1315.72 1086.64C1325.05 1118.86 1322.62 1127.97 1321.66 1129.99C1319.55 1134.41 1317.09 1143.26 1316.85 1172.71C1316.71 1189.46 1317.31 1211.1 1318.63 1237.03C1320.86 1281.03 1324.46 1322.86 1324.49 1323.27C1324.64 1325.09 1325.35 1326.82 1326.51 1328.23C1327.67 1329.64 1329.24 1330.67 1330.99 1331.17C1332.75 1331.67 1334.62 1331.62 1336.35 1331.03C1338.08 1330.45 1339.59 1329.35 1340.68 1327.88C1349.68 1315.75 1370.46 1304.97 1400.68 1296.7C1472.09 1277.14 1572.98 1276.92 1577.24 1276.92H1577.38C1578.57 1276.92 1579.74 1276.69 1580.84 1276.23C1581.93 1275.77 1582.93 1275.11 1583.76 1274.27C1584.6 1273.43 1585.26 1272.43 1585.71 1271.33C1586.16 1270.23 1586.39 1269.06 1586.38 1267.87C1586.38 1261.54 1585.38 1112.58 1581.62 1079.09C1580.98 1073.38 1580.11 1064.85 1579.11 1054.97C1570.37 968.55 1563.64 915.97 1555.11 902.67C1550.78 895.96 1544.89 889.3 1539.2 882.86C1530.84 873.4 1521.37 862.69 1520.47 854.99C1519.98 850.78 1519.61 846.39 1519.21 841.75C1518.1 828.67 1516.85 813.85 1512.41 799.15C1507.04 781.37 1474.41 642.54 1456.17 559.56C1438.11 477.65 1372.23 326 1369.43 319.56C1368.75 317.995 1367.63 316.657 1366.21 315.703C1364.8 314.748 1363.14 314.217 1361.43 314.17L1361.23 314.18Z" fill="#17091D"/>
<path id="Vector_28" d="M1461.5 947.5C1425.5 957.5 1391.29 941.66 1379.89 991.58C1368.49 1041.5 1381.68 1123.63 1395.09 1141.07C1401.15 1148.94 1398.55 1290.52 1398 1306C1369 1313.94 1339.52 1329.54 1328 1345C1328 1345 1319.14 1156.24 1329.82 1133.87C1340.5 1111.5 1302.5 1024 1298 1009.23C1293.5 994.46 1275.63 799.36 1275.63 799.36C1275.63 799.36 1292.69 573.25 1300.13 478.63L1356.13 463.86C1356.13 463.86 1360.81 673 1356.13 738.25C1351.45 803.5 1294.91 907.25 1361.13 896.89C1427.35 886.53 1467.48 869.01 1455.44 890.26C1443.4 911.51 1410.68 903.26 1394.9 918C1379.12 932.74 1432.23 918 1464.81 921.76C1497.39 925.52 1497.5 937.5 1461.5 947.5Z" fill="#9C398C"/>
<path id="Vector_29" d="M1293 970.16C1304 963.16 1315.06 956.39 1326.16 949.63C1337.26 942.87 1348.42 936.23 1359.64 929.63C1370.86 923.03 1382.2 916.68 1393.64 910.49L1402.3 905.94C1405.19 904.43 1408.15 903.01 1411.07 901.54L1413.27 900.45L1415.51 899.45L1420.01 897.4C1420.76 897.07 1421.49 896.7 1422.27 896.4L1424.6 895.48L1429.26 893.65C1430.08 893.298 1431 893.286 1431.83 893.615C1432.65 893.944 1433.31 894.588 1433.66 895.405C1434.02 896.222 1434.03 897.145 1433.7 897.971C1433.37 898.797 1432.73 899.458 1431.91 899.81L1431.66 899.93L1427.39 901.93L1425.26 902.93C1424.55 903.25 1423.85 903.66 1423.14 904.03L1418.92 906.27L1416.81 907.39L1414.73 908.58C1411.95 910.19 1409.16 911.75 1406.4 913.4L1398.15 918.4C1387.15 925.19 1376.38 932.2 1365.62 939.34C1354.86 946.48 1344.21 953.78 1333.62 961.13C1323.03 968.48 1312.42 975.94 1301.97 983.44C1300.25 984.677 1298.1 985.179 1296.01 984.835C1293.91 984.491 1292.04 983.329 1290.8 981.605C1289.57 979.881 1289.07 977.736 1289.41 975.642C1289.75 973.548 1290.92 971.677 1292.64 970.44L1293 970.16Z" fill="#17091D"/>
<path id="Vector_30" d="M1477 915C1477 915 1385.55 914 1346 947" stroke="#17091D" stroke-width="10" stroke-linecap="round" stroke-linejoin="round"/>
<path id="Vector_31" d="M1365.22 947.51C1391.62 929.39 1399.95 936.97 1370.37 955.28C1370.28 955.337 1370.19 955.388 1370.09 955.43C1351.76 963.79 1335.57 975.43 1318.26 985.26C1317.71 985.573 1317.07 985.678 1316.45 985.557C1315.83 985.435 1315.28 985.094 1314.89 984.597C1314.5 984.1 1314.31 983.48 1314.34 982.85C1314.37 982.221 1314.63 981.624 1315.07 981.17C1326.66 969.19 1354.49 955.38 1365.22 947.51Z" fill="#5C2C66"/>
<path id="Vector_32" d="M1339.21 1366.23C1335.85 1366.24 1332.56 1365.27 1329.74 1363.43C1326.93 1361.58 1324.73 1358.95 1323.4 1355.86C1319.27 1346.17 1317.77 1334.76 1317.25 1326.86C1316.93 1322.18 1317.74 1317.5 1319.63 1313.21C1321.52 1308.92 1324.42 1305.15 1328.08 1302.23C1340.7 1292.23 1365.32 1281.89 1397.39 1273.02C1440.7 1261.02 1490.69 1253.63 1527.87 1253.63C1564.05 1253.63 1585.48 1260.35 1591.59 1273.63C1602.79 1297.93 1598.08 1315.17 1592.16 1325.34C1589.54 1329.81 1585.79 1333.52 1581.3 1336.1C1576.8 1338.68 1571.71 1340.04 1566.52 1340.05C1564.99 1340.05 1563.46 1339.93 1561.95 1339.7C1549.07 1337.82 1536.07 1336.92 1523.06 1337.01C1452.55 1337.01 1368.06 1358.9 1343.85 1365.61C1342.34 1366.03 1340.78 1366.23 1339.21 1366.23Z" fill="#CE44A2"/>
<path id="Vector_33" d="M1527.87 1258.16C1558.51 1258.16 1581.87 1263.16 1587.5 1275.5C1597.58 1297.37 1594.14 1312.98 1588.27 1323.07C1586.05 1326.87 1582.87 1330.01 1579.05 1332.2C1575.23 1334.39 1570.91 1335.54 1566.51 1335.54C1565.21 1335.54 1563.91 1335.44 1562.63 1335.24C1549.53 1333.32 1536.3 1332.41 1523.06 1332.5C1452.75 1332.5 1369.85 1353.72 1342.65 1361.26C1339.69 1362.09 1336.53 1361.82 1333.76 1360.5C1330.98 1359.19 1328.77 1356.91 1327.54 1354.1C1323.65 1344.98 1322.24 1334.1 1321.74 1326.59C1321.47 1322.64 1322.15 1318.69 1323.74 1315.06C1325.33 1311.44 1327.78 1308.26 1330.87 1305.79C1343.72 1295.64 1368.87 1285.61 1398.59 1277.39C1439.66 1266.05 1489.51 1258.17 1527.87 1258.16ZM1527.87 1249.16C1490.3 1249.16 1439.87 1256.66 1396.18 1268.71C1373.09 1275.1 1342.05 1285.48 1325.28 1298.71C1321.04 1302.08 1317.69 1306.43 1315.51 1311.39C1313.32 1316.34 1312.38 1321.76 1312.75 1327.16C1313.3 1335.38 1314.87 1347.34 1319.25 1357.61C1320.92 1361.52 1323.72 1364.85 1327.27 1367.18C1330.83 1369.51 1335 1370.74 1339.25 1370.71C1341.22 1370.71 1343.19 1370.44 1345.09 1369.92C1369.17 1363.24 1453.17 1341.48 1523.09 1341.48C1535.87 1341.39 1548.63 1342.27 1561.28 1344.11C1566.02 1344.85 1570.87 1344.58 1575.5 1343.33C1579.8 1342.18 1583.83 1340.2 1587.36 1337.5C1590.89 1334.79 1593.85 1331.42 1596.08 1327.57C1602.54 1316.48 1607.71 1297.77 1595.7 1271.71C1588.7 1256.53 1566.53 1249.14 1527.91 1249.14L1527.87 1249.16Z" fill="#17091D"/>
<path id="Vector_34" d="M1573.12 1334.66C1569.7 1335.59 1566.13 1335.78 1562.63 1335.24C1487.57 1323.61 1375.21 1352.24 1342.63 1361.24C1339.67 1362.07 1336.51 1361.81 1333.73 1360.49C1330.96 1359.18 1328.75 1356.9 1327.52 1354.08C1323.63 1344.96 1322.22 1334.08 1321.72 1326.57C1321.45 1322.62 1322.13 1318.67 1323.72 1315.05C1325.31 1311.42 1327.76 1308.24 1330.85 1305.77C1343.7 1295.62 1368.85 1285.59 1398.57 1277.37C1398.57 1277.37 1388.16 1308.3 1398.57 1317.64C1408.98 1326.98 1459.47 1320.98 1484.72 1322.48C1509.97 1323.98 1564 1327 1564 1327L1573.12 1334.66Z" fill="#9C398C"/>
</g>
<g id="arm 1">
<path id="Vector_35" d="M178 1335.5C176.894 1335.5 175.827 1335.09 175.003 1334.35C174.179 1333.61 173.655 1332.6 173.53 1331.5C173.33 1329.85 152.99 1165.71 149.12 1137.86C147.95 1129.4 146.58 1116.04 145.01 1100.57C141.38 1065.03 136.42 1016.35 130.25 995.48C129.7 993.64 129.18 991.74 128.7 989.86C122.51 966.17 124.53 951.65 128.21 925.3C128.81 921.04 129.45 916.45 130.11 911.42C131.84 898.27 135.49 885.27 141.54 863.73C153.43 821.36 175.54 742.48 212.4 557.11C233 453.4 256.06 378.83 280.91 335.55C301.08 300.41 317.43 295.17 325.38 295.17C326.586 295.154 327.789 295.296 328.96 295.59L453.27 313.59C453.866 313.677 454.439 313.883 454.954 314.196C455.47 314.508 455.917 314.921 456.27 315.41L549.16 444C549.731 444.786 550.03 445.738 550.01 446.71L545.84 678.46C545.823 679.343 545.548 680.201 545.05 680.93L541.16 686.58L541.04 686.76L488.62 762.76L468.82 889.41C468.771 889.693 468.697 889.971 468.6 890.24C461.01 911.17 442.6 969.11 448.84 985.72C457.06 1007.81 481.94 1250.95 483 1261.29C483.068 1261.92 483.004 1262.56 482.81 1263.16C482.616 1263.76 482.298 1264.32 481.875 1264.79C481.453 1265.26 480.935 1265.64 480.357 1265.9C479.779 1266.16 479.153 1266.29 478.52 1266.29C478.31 1266.31 478.099 1266.31 477.89 1266.29C471.62 1265.41 465.15 1264.7 458.65 1264.2C450.57 1263.57 442.3 1263.25 434.08 1263.25C421.746 1263.25 409.421 1263.91 397.16 1265.25C283.8 1277.72 181.22 1334.39 180.16 1334.96C179.497 1335.32 178.754 1335.51 178 1335.5Z" fill="#CE44A2"/>
<path id="Vector_36" d="M325.38 299.67C326.265 299.641 327.149 299.753 328 300L452.63 318L545.51 446.59L544.92 479.41L543.92 537.21V537.27L541.38 678.34L537.38 684.16L484.38 761.05L464.38 888.71C464.38 888.71 436.5 965.5 444.62 987.3C452.74 1009.1 478.52 1261.76 478.52 1261.76C471.973 1260.83 465.466 1260.12 459 1259.63C450.6 1258.96 442.293 1258.63 434.08 1258.63C421.581 1258.64 409.092 1259.33 396.67 1260.71C281 1273.47 178 1331 178 1331C178 1331 157.5 1165.5 153.58 1137.29C149.66 1109.08 143.5 1024.5 134.58 994.29C134.02 992.41 133.516 990.59 133.07 988.83C126.13 962.27 129.83 948.14 134.58 912.09C139.64 873.64 161.51 836.53 216.82 558.09C265.06 315.25 313.73 299.72 325.39 299.72M325.39 290.72C320.88 290.72 313.67 292.11 304.86 298.72C295.51 305.77 286.14 317.42 277.02 333.32C251.92 377 228.69 452 208 556.29C171.22 741.49 149.1 820.29 137.22 862.57C131.12 884.3 127.44 897.42 125.67 910.89C125.01 915.89 124.38 920.38 123.77 924.73C120.02 951.65 117.95 966.49 124.37 991.08C124.86 992.97 125.37 994.92 125.96 996.83C131.96 1017.27 136.96 1065.71 140.55 1101.08C142.13 1116.59 143.5 1129.99 144.69 1138.53C148.55 1166.35 168.88 1330.45 169.09 1332.11C169.271 1333.57 169.81 1334.97 170.658 1336.18C171.506 1337.38 172.637 1338.36 173.953 1339.03C175.269 1339.7 176.728 1340.03 178.203 1340C179.677 1339.97 181.122 1339.58 182.41 1338.86C182.66 1338.72 208.32 1324.48 247.6 1308.86C283.7 1294.54 339.05 1276.11 397.67 1269.67C409.767 1268.34 421.929 1267.67 434.1 1267.67C442.2 1267.67 450.35 1267.99 458.33 1268.6C464.72 1269.1 471.1 1269.79 477.28 1270.67C477.697 1270.73 478.118 1270.76 478.54 1270.76C479.802 1270.77 481.052 1270.51 482.208 1270C483.364 1269.49 484.4 1268.75 485.248 1267.81C486.097 1266.88 486.74 1265.77 487.135 1264.57C487.529 1263.37 487.667 1262.11 487.54 1260.85C487.48 1260.21 481.01 1196.85 473.63 1131.69C458.58 998.82 454.47 987.78 453.12 984.16C452.17 981.6 449.87 970.31 460.18 932.3C465.96 910.98 472.83 891.98 472.9 891.79C473.098 891.245 473.242 890.682 473.33 890.11L492.98 764.48L544.81 689.28L544.99 689.01L548.82 683.45C549.835 681.978 550.388 680.237 550.41 678.45L552.95 537.38V537.25L553.95 479.52L554.54 446.7C554.575 444.753 553.979 442.848 552.84 441.27L459.93 312.73C459.224 311.752 458.33 310.926 457.299 310.301C456.268 309.675 455.123 309.264 453.93 309.09L329.86 291.17C328.392 290.824 326.888 290.657 325.38 290.67L325.39 290.72Z" fill="#17091D"/>
<path id="Vector_37" d="M546.5 478.5L543.88 537.21V537.27L537.33 684.16L484.33 761.05L464.33 888.71C464.33 888.71 436.5 965.5 444.62 987.3C452.74 1009.1 477.52 1257.76 477.52 1257.76C470.973 1256.83 464.467 1256.12 458 1255.63C455.24 1223.7 442.79 1085.12 440.83 1067.45C438.16 1043.39 420.5 991.45 398.5 981.45C376.5 971.45 323.5 962.45 326.33 957.61C329.16 952.77 379.5 959.45 405.61 967.77C431.72 976.09 417.5 962.45 410.5 953.45C403.5 944.45 312.5 921.45 292.91 917.95C273.32 914.45 212.5 914.45 192.5 909.45C172.5 904.45 180.5 898.45 230.5 889.45C280.5 880.45 355.5 908.45 384.15 917.27C412.8 926.09 392.5 899.45 384.02 883.63C375.54 867.81 346.5 830.45 360.24 829.82C373.98 829.19 374.5 842.5 401 882.09C427.5 921.68 419.5 865.5 419.59 846.09C419.68 826.68 436.5 808.5 438.5 781.5C440.5 754.5 451.5 742.5 458.45 720.5C465.4 698.5 473.5 670.5 481.71 641.04C489.92 611.58 529.66 488.25 529.66 488.25L544.92 479.44L546.5 478.5Z" fill="#9C398C"/>
<path id="Vector_38" d="M416.999 1262C301.349 1274.72 177.999 1331 177.999 1331C177.999 1331 157.499 1165.5 153.579 1137.29C149.659 1109.08 143.499 1024.5 134.579 994.29C134.019 992.41 133.516 990.59 133.069 988.83C138.429 1002.44 144.869 1016.5 152.009 1027.03C171.009 1055.03 179.099 1094.36 181.059 1117.19C183.019 1140.02 195.869 1192.39 203.939 1198.71C212.009 1205.03 232.259 1243.51 270.999 1248C281.419 1249.21 406.799 1259.28 416.999 1262Z" fill="#9C398C"/>
<path id="Vector_39" d="M407.33 931.049C448.71 941.269 448.54 956.259 404.15 943.049C404.014 943.008 403.88 942.958 403.75 942.899C379.22 932.069 353.29 926.289 328.23 917.729C327.446 917.453 326.787 916.906 326.371 916.186C325.954 915.467 325.809 914.623 325.959 913.805C326.11 912.988 326.547 912.251 327.193 911.728C327.838 911.204 328.649 910.928 329.48 910.949C351.64 911.869 390 927.329 407.33 931.049Z" fill="#5C2C66"/>
<path id="Vector_40" d="M226.64 1422C218.861 1422.01 211.339 1419.21 205.45 1414.13C188.22 1399.25 175.21 1375.13 173.09 1354.13C172.421 1347.34 173.648 1340.49 176.632 1334.36C179.617 1328.22 184.244 1323.03 190 1319.36C246 1284 305.79 1262.52 367.62 1255.5C381.785 1253.88 396.032 1253.06 410.29 1253.05C449.44 1253.05 473.35 1259.33 474.35 1259.59C475.32 1259.85 476.176 1260.43 476.78 1261.23C496.59 1287.45 496.37 1308.92 492.69 1322.32C490.352 1331.12 485.777 1339.16 479.41 1345.67C478.58 1346.44 477.49 1346.86 476.36 1346.86H476.12C470.36 1346.55 464.51 1346.39 458.72 1346.39C441.073 1346.41 423.455 1347.83 406.03 1350.62C327.74 1363.09 267.71 1400.51 245.54 1416.02C240.005 1419.91 233.405 1422 226.64 1422Z" fill="#CE44A2"/>
<path id="Vector_41" d="M410.3 1257.55C449.3 1257.55 473.2 1263.94 473.2 1263.94C509.41 1311.88 476.37 1342.36 476.37 1342.36C470.423 1342.04 464.543 1341.88 458.73 1341.88C440.844 1341.9 422.988 1343.33 405.33 1346.17C327.39 1358.58 268 1394.82 243 1412.32C238.214 1415.67 232.513 1417.48 226.67 1417.48C219.969 1417.5 213.488 1415.09 208.42 1410.71C192.92 1397.32 179.7 1374.44 177.6 1353.62C177 1347.67 178.071 1341.66 180.692 1336.28C183.314 1330.9 187.381 1326.36 192.44 1323.16C257.6 1282.05 319.3 1265.52 368.17 1259.97C382.166 1258.37 396.242 1257.56 410.33 1257.55M410.33 1248.55C395.901 1248.56 381.485 1249.39 367.15 1251.03C304.64 1258.13 244.24 1279.83 187.64 1315.55C181.181 1319.66 175.987 1325.48 172.633 1332.37C169.28 1339.25 167.897 1346.93 168.64 1354.55C170.86 1376.64 184.48 1401.95 202.53 1417.55C209.231 1423.35 217.796 1426.55 226.66 1426.55C234.352 1426.56 241.858 1424.19 248.15 1419.76C270.07 1404.43 329.4 1367.45 406.77 1355.13C423.966 1352.37 441.353 1350.97 458.77 1350.95C464.48 1350.95 470.25 1351.11 475.92 1351.42H476.41C478.67 1351.42 480.847 1350.57 482.51 1349.04C489.5 1341.95 494.499 1333.15 497 1323.51C500.94 1309.14 501.25 1286.2 480.34 1258.51C479.132 1256.91 477.425 1255.76 475.49 1255.24C474.49 1254.96 450 1248.54 410.26 1248.54L410.33 1248.55Z" fill="#17091D"/>
<path id="Vector_42" d="M405.329 1346.17C327.389 1358.58 267.999 1394.82 242.999 1412.32C237.877 1415.93 231.696 1417.74 225.433 1417.45C219.17 1417.16 213.184 1414.79 208.419 1410.71C192.919 1397.32 179.699 1374.44 177.599 1353.62C177 1347.67 178.071 1341.66 180.692 1336.28C183.313 1330.9 187.381 1326.36 192.439 1323.16C257.599 1282.05 319.299 1265.52 368.169 1259.97C366.449 1260.59 311.079 1280.25 281.539 1296.25C251.539 1312.5 261.239 1360.59 281.539 1360.81C298.999 1361 421.999 1344 421.999 1344L405.329 1346.17Z" fill="#9C398C"/>
</g>
<g id="Collar front + body">
<g id="body">
<path id="Vector_43" d="M897 1372.28C847 1372.28 796.69 1370.08 747.46 1365.75L742.14 1365.27C721.79 1363.42 701.43 1361.18 681.61 1358.61C579.84 1345.48 518.13 1327.26 517.51 1327.08C516.582 1326.8 515.769 1326.23 515.191 1325.46C514.613 1324.68 514.3 1323.74 514.3 1322.77V1224.77C514.302 1223.58 514.777 1222.43 515.621 1221.59C516.464 1220.75 517.607 1220.27 518.8 1220.27L528.61 1220.44L652.22 1222.54L1009.17 1228.61C1131.71 1230.68 1241.88 1232.55 1244.01 1232.55C1249.15 1232.55 1269.28 1243.73 1285.26 1253.11C1285.81 1253.43 1286.28 1253.86 1286.65 1254.38C1287.02 1254.9 1287.28 1255.49 1287.4 1256.11L1287.46 1256.43L1302.46 1340.22C1302.64 1341.26 1302.45 1342.33 1301.92 1343.24C1301.39 1344.16 1300.56 1344.86 1299.57 1345.22C1298.57 1345.57 1291.94 1347.51 1255.19 1351.22C1247.95 1351.95 1239.57 1352.73 1229.58 1353.61C1226.31 1353.9 1222.89 1354.2 1219.3 1354.49C1205.65 1355.65 1191.07 1356.8 1175.95 1357.93C1171.06 1358.3 1165.96 1358.67 1160.67 1359.05C1117.57 1362.16 1065.34 1365.49 1005.45 1368.93L1004.45 1368.99L995.28 1369.51L990.88 1369.75C980.33 1370.33 969.54 1370.82 957.88 1371.24H957.43C953.67 1371.37 949.91 1371.49 946.18 1371.59C929.86 1372 913.31 1372.28 897 1372.28Z" fill="#CE44A2"/>
<path id="Vector_44" d="M518.79 1224.72L528.52 1224.89L652.13 1226.99L1009.13 1233.06C1137.97 1235.24 1242.13 1237 1244.05 1237C1249.05 1237 1283.05 1256.94 1283.05 1256.94L1283.11 1257.26L1298.11 1341C1298.11 1341 1292.87 1342.91 1254.82 1346.72C1247.56 1347.45 1239.1 1348.24 1229.26 1349.11C1226 1349.4 1222.58 1349.7 1219 1349.99C1206.59 1350.99 1192.25 1352.19 1175.7 1353.42C1170.81 1353.79 1165.72 1354.16 1160.43 1354.54C1120.96 1357.39 1070.29 1360.68 1005.27 1364.42L995 1365L990.61 1365.24C979.51 1365.85 968.543 1366.34 957.71 1366.72C953.81 1366.85 949.92 1366.98 946.05 1367.08C929.343 1367.56 912.987 1367.79 896.98 1367.78C842.53 1367.78 792.48 1365.2 747.84 1361.27L742.53 1360.79C721.09 1358.79 700.93 1356.58 682.18 1354.15C579.59 1340.91 518.79 1322.77 518.79 1322.77V1224.77M518.79 1215.77C516.403 1215.77 514.114 1216.72 512.426 1218.41C510.738 1220.09 509.79 1222.38 509.79 1224.77V1322.77C509.791 1324.71 510.418 1326.59 511.576 1328.15C512.734 1329.7 514.363 1330.84 516.22 1331.39C518.73 1332.14 578.89 1349.89 681.03 1363.08C700.89 1365.65 721.31 1367.9 741.71 1369.75L747.03 1370.23C796.42 1374.58 846.86 1376.78 897.03 1376.78C913.4 1376.78 930.03 1376.54 946.36 1376.08C950.26 1375.98 954.22 1375.84 958.06 1375.71C969.78 1375.29 980.6 1374.81 991.15 1374.23H992L995.54 1374.04L1003.91 1373.56L1005.72 1373.46C1065.57 1370.01 1117.82 1366.69 1161.02 1363.57C1166.35 1363.19 1171.45 1362.81 1176.32 1362.44C1191.4 1361.32 1206 1360.17 1219.7 1359.01C1223.29 1358.71 1226.7 1358.42 1230 1358.12C1240 1357.24 1248.41 1356.45 1255.66 1355.72C1291.01 1352.19 1299.24 1350.2 1301.13 1349.51C1303.11 1348.79 1304.78 1347.39 1305.84 1345.56C1306.89 1343.73 1307.27 1341.59 1306.91 1339.51L1291.91 1255.77V1255.69L1291.84 1255.37C1291.6 1254.11 1291.1 1252.91 1290.36 1251.86C1289.62 1250.8 1288.67 1249.92 1287.56 1249.27C1287.2 1249.06 1278.84 1244.16 1269.71 1239.16C1251 1228.83 1247 1228 1244 1228C1241.32 1228 1131.42 1226.13 1009.23 1224.06L889.51 1222.06L652.28 1218.06L528.67 1215.96L518.95 1215.79L518.79 1215.77Z" fill="#17091D"/>
<path id="Vector_45" d="M1298 1341C1298 1341 1292.76 1342.91 1254.71 1346.72C1254.11 1328.93 1253.6 1312.49 1253.71 1309.47C1253.89 1302.47 1237.54 1303.47 1231.54 1310.47C1228.23 1314.33 1229.18 1332.8 1229.19 1349.08C1225.93 1349.37 1222.51 1349.67 1218.93 1349.96C1218.93 1337.88 1219.56 1324.51 1218.75 1317.04C1216.96 1300.61 1195.54 1311.47 1184.32 1312.79C1173.1 1314.11 1174.54 1323.47 1175.54 1347.47C1175.62 1349.47 1175.65 1351.47 1175.63 1353.39C1170.74 1353.76 1165.65 1354.13 1160.36 1354.51C1161.74 1339.92 1163.12 1324.83 1159.92 1319.51C1153.3 1308.6 1085.54 1324.42 1085.54 1324.42C1085.54 1324.42 1025.54 1326.42 1005.54 1330.42C989.47 1333.63 1001.81 1344.59 1005.2 1364.34L995 1365L990.61 1365.24C990.24 1348 989.27 1331.17 982.91 1329.12C969.33 1324.75 961.5 1335.5 958.5 1352.5C957.827 1357.21 957.563 1361.97 957.71 1366.72C953.81 1366.85 949.92 1366.98 946.05 1367.08C945.27 1355.08 944.7 1343.69 943.5 1338.5C940.5 1325.5 917.5 1335.5 892.4 1329.12C867.3 1322.74 848.5 1335.5 818.53 1335.02C788.56 1334.54 765.53 1330.5 754.19 1332.02C749.45 1332.64 748.19 1346.02 747.84 1361.3L742.53 1360.82C741.65 1346.99 738.53 1334.82 729.34 1332.36C706.18 1326.18 690.5 1310.53 678.5 1319.53C674.76 1322.33 677.14 1336.29 682.18 1354.18C579.59 1340.94 518.79 1322.8 518.79 1322.8V1224.8L528.52 1224.97L652.13 1227.07L653 1228.19C679.5 1261.79 916.5 1255.58 961.76 1254.55C995.23 1253.79 1001.9 1250.07 1003.1 1248.19L998.1 1281.35L999.84 1281.2L1283 1257.26L1298 1341Z" fill="#9C398C"/>
<path id="Vector_46" d="M998.59 1290.59C997.59 1290.59 898.96 1287.91 792.16 1279.07C648.16 1267.15 558.66 1250.18 526.04 1228.65C523.879 1227.24 521.826 1225.67 519.9 1223.96C466.74 1176.29 473.66 1118.9 479.22 1072.78C480.22 1064.25 481.22 1056.2 481.79 1048.54C485.14 1003.72 481.66 954.039 478.29 905.999C477.93 900.859 477.573 895.716 477.22 890.569C473.22 832.189 481.71 771.889 497.83 743.949C512.76 718.079 523.47 569.839 518.45 530.719C516.96 519.149 512.45 483.919 500.33 448.029C486.49 406.969 466.81 376.189 441.84 356.569L441.64 356.399C441.41 356.209 441.19 356.039 440.96 355.869L440.39 355.419C381.88 310.809 326 299.089 325.44 298.999C324.515 298.814 323.671 298.342 323.028 297.65C322.386 296.959 321.977 296.083 321.86 295.146C321.743 294.21 321.923 293.26 322.375 292.431C322.828 291.603 323.529 290.937 324.38 290.529L438.08 235.859L572.74 173.069C573.334 172.79 573.983 172.647 574.64 172.649H683.64C684.063 172.649 684.484 172.71 684.89 172.829L894.77 233.829C895.812 234.131 896.71 234.799 897.3 235.709L963.82 338.609C972.993 352.79 980.486 367.989 986.15 383.899C1003.78 433.479 1043.38 562.289 1030.32 687.359C1016.21 822.359 1019.04 886.219 1020.55 920.519C1020.84 926.879 1021.08 932.379 1021.14 936.939C1021.5 964.749 1018.9 1139.63 1018.19 1184.94C1017.97 1198.56 1016.4 1215 1013.53 1233.8C1010.33 1254.72 1006.34 1273.09 1004.26 1282.19C1003.53 1285.41 1003.08 1287.19 1003.08 1287.19C1002.84 1288.17 1002.28 1289.03 1001.49 1289.65C1000.69 1290.27 999.716 1290.61 998.71 1290.61L998.59 1290.59Z" fill="#CE44A2"/>
<path id="Vector_47" d="M683.64 177.13L893.52 238.13L960 341C968.986 354.888 976.326 369.775 981.87 385.36C1000.61 438.05 1038.65 563.85 1025.8 686.84C1008.96 848.01 1016.23 908.84 1016.6 936.95C1016.97 965.06 1014.33 1141.63 1013.65 1184.82C1013.4 1200.11 1011.45 1217.28 1009.04 1233.07C1005.83 1254.07 1001.79 1272.6 999.83 1281.13C999.11 1284.31 998.67 1286.13 998.67 1286.13C998.67 1286.13 605.59 1275.85 528.48 1224.93C526.506 1223.65 524.631 1222.22 522.87 1220.66C462 1166 482.56 1098.74 486.28 1048.87C490 999 485.43 944.51 481.71 890.26C477.99 836.01 485.46 774.39 501.71 746.2C517.96 718.01 527.79 568.3 522.89 530.15C520.51 511.6 515.75 479.71 504.57 446.59C492.99 412.23 474.51 376.59 444.57 353.03C444.24 352.76 443.92 352.5 443.57 352.26L443.01 351.82C383 306 326.33 294.57 326.33 294.57L440 239.9L574.61 177.13H683.61M683.61 168.13H574.61C573.298 168.132 572.001 168.418 570.81 168.97L436.23 231.74H436.13L322.43 286.41C320.732 287.228 319.333 288.558 318.431 290.214C317.53 291.869 317.17 293.766 317.405 295.637C317.639 297.507 318.455 299.257 319.737 300.639C321.019 302.021 322.702 302.966 324.55 303.34C325.09 303.45 380.07 315.04 437.55 358.9L437.67 358.98L437.76 359.06L438 359.25L438.28 359.46L438.68 359.78L439.02 360.06C463.29 379.13 482.47 409.2 496.02 449.41C508.02 484.89 512.47 519.78 513.94 531.25C516.25 549.25 515.12 595.43 511.25 641.1C506.93 692.1 500.25 730.58 493.89 741.65C477.36 770.29 468.64 831.65 472.69 890.82C473.037 895.973 473.393 901.117 473.76 906.25C477.12 954.14 480.58 1003.65 477.27 1048.15C476.7 1055.71 475.74 1063.71 474.71 1072.15C471.91 1095.39 468.71 1121.73 473.01 1148.29C478.01 1179.44 492.36 1205.29 516.86 1227.23C518.953 1229.09 521.182 1230.79 523.53 1232.32C556.77 1254.27 647.02 1271.48 791.75 1283.46C898.67 1292.32 997.45 1294.97 998.43 1295H998.67C1000.68 1295 1002.64 1294.33 1004.22 1293.08C1005.81 1291.84 1006.93 1290.1 1007.41 1288.15C1007.41 1288.07 1007.88 1286.24 1008.61 1283.02C1010.71 1273.89 1014.72 1255.38 1017.94 1234.33C1020.84 1215.33 1022.42 1198.68 1022.65 1184.87C1023.36 1139.53 1025.96 964.55 1025.65 936.73C1025.59 932.1 1025.34 926.57 1025.06 920.16C1023.55 885.98 1020.73 822.36 1034.8 687.68C1040.46 633.46 1037 573 1024.56 508C1016.32 465.307 1004.9 423.29 990.39 382.3C984.608 366.069 976.96 350.566 967.6 336.1L901.08 233.2C899.903 231.383 898.11 230.052 896.03 229.45L686.15 168.45C685.335 168.211 684.49 168.09 683.64 168.09L683.61 168.13Z" fill="#17091D"/>
<path id="Vector_48" d="M1002 1290.5C1001.37 1290.5 1000.74 1290.37 1000.16 1290.11C999.586 1289.85 999.069 1289.47 998.647 1289C998.226 1288.53 997.908 1287.97 997.715 1287.37C997.523 1286.77 997.46 1286.13 997.53 1285.5C997.53 1285.4 998.65 1275.68 1000.19 1261.39C1003.55 1229.97 1009.29 1173.39 1009.9 1147.08C1010.15 1136.57 1010.71 1121.85 1011.35 1104.8C1012.98 1061.98 1015.2 1003.34 1013.14 984.19C1011.43 968.41 1013.01 918.07 1014.4 873.66C1015.4 841.43 1016.4 810.98 1015.9 799.03C1015.43 786.47 1017.54 766.08 1020.22 740.27C1023.71 706.65 1028.05 664.8 1028.11 624.21C1028.22 555.4 998.71 434.38 997.48 429.37L972.63 352.66C972.279 351.581 972.35 350.408 972.83 349.38L1035.92 213.12C1036.18 212.549 1036.56 212.04 1037.04 211.625C1037.51 211.21 1038.06 210.898 1038.66 210.71L1117.16 186.21C1117.59 186.079 1118.05 186.012 1118.5 186.01C1119.52 186.016 1120.5 186.369 1121.29 187.01C1137.3 199.449 1154.02 210.949 1171.37 221.45C1197.48 236.96 1361.58 318.37 1363.23 319.19C1364.06 319.603 1364.74 320.263 1365.19 321.079C1365.63 321.895 1365.81 322.828 1365.7 323.75C1365.59 324.65 1354.96 414.39 1352.56 452.2C1350.27 488.4 1336.15 644.98 1326.37 705.65C1322.26 731.15 1319.21 768.55 1315.97 808.14C1311.65 861.05 1307.18 915.77 1299.53 952.27C1288.11 1006.79 1291.44 1016.97 1302.46 1050.69C1304.05 1055.55 1305.85 1061.05 1307.76 1067.17L1309.93 1074.12C1321.29 1110.39 1329.5 1136.59 1325.35 1165.68C1324.25 1173.31 1322.36 1180.81 1319.72 1188.06L1319.09 1189.82C1318.01 1192.82 1316.82 1195.92 1315.34 1199.7C1307.23 1220.19 1297.71 1240.09 1286.85 1259.26C1286.49 1259.87 1286 1260.38 1285.4 1260.77C1284.81 1261.15 1284.13 1261.39 1283.43 1261.46L1002.43 1290.52L1002 1290.5Z" fill="#CE44A2"/>
<path id="Vector_49" d="M1118.5 190.5C1134.66 203.07 1151.55 214.683 1169.07 225.28C1195.63 241.06 1361.23 323.18 1361.23 323.18C1361.23 323.18 1350.5 413.5 1348.07 451.88C1345.64 490.26 1331.5 645.5 1321.93 704.88C1312.36 764.26 1308.5 887.49 1295.13 951.3C1281.76 1015.11 1288.5 1020.49 1303.46 1068.46C1315.58 1107.33 1325.16 1135.1 1320.89 1164.99C1319.83 1172.32 1318.02 1179.53 1315.49 1186.49L1314.86 1188.23C1313.65 1191.56 1312.4 1194.82 1311.15 1198.01C1303.14 1218.28 1293.72 1237.97 1282.97 1256.93L1002 1286C1002 1286 1003.11 1276.34 1004.66 1261.86C1008.11 1229.65 1013.78 1173.62 1014.4 1147.18C1015.3 1108.86 1020.5 1010.5 1017.61 983.7C1014.72 956.9 1021.5 827.5 1020.4 798.85C1019.3 770.2 1032.5 695.5 1032.61 624.21C1032.72 552.92 1001.81 428.13 1001.81 428.13L976.909 351.26L1040 215L1118.5 190.5ZM1118.5 181.5C1117.59 181.498 1116.69 181.636 1115.82 181.91L1037.32 206.41C1036.12 206.784 1035.01 207.405 1034.06 208.234C1033.12 209.062 1032.36 210.079 1031.83 211.22L968.739 347.48C967.79 349.536 967.65 351.875 968.349 354.03L993.149 430.59C994.819 437.43 1023.71 556.52 1023.61 624.2C1023.55 664.55 1019.22 706.27 1015.74 739.8C1013.05 765.8 1010.92 786.31 1011.41 799.19C1011.86 810.99 1010.91 841.36 1009.9 873.52C1008.44 920.25 1006.9 968.57 1008.66 984.67C1010.66 1003.49 1008.47 1061.95 1006.86 1104.67C1006.21 1121.73 1005.65 1136.47 1005.4 1147.01C1004.79 1173.13 999.069 1229.6 995.709 1260.94C994.179 1275.22 993.069 1284.94 993.059 1285.01C992.919 1286.27 993.045 1287.54 993.43 1288.75C993.815 1289.95 994.45 1291.06 995.294 1292.01C996.138 1292.95 997.171 1293.71 998.326 1294.22C999.482 1294.74 1000.73 1295.01 1002 1295.01C1002.31 1295.01 1002.62 1295.01 1002.93 1295.01L1283.93 1265.95C1285.33 1265.8 1286.68 1265.33 1287.87 1264.57C1289.05 1263.81 1290.04 1262.78 1290.76 1261.56C1301.76 1242.2 1311.38 1222.09 1319.55 1201.38C1321.05 1197.55 1322.26 1194.38 1323.35 1191.38L1323.86 1189.97L1323.98 1189.63C1326.73 1182.09 1328.69 1174.28 1329.83 1166.33C1334.13 1136.25 1325.36 1108.25 1314.25 1072.8C1313.54 1070.53 1312.82 1068.21 1312.08 1065.86C1310.16 1059.71 1308.36 1054.19 1306.77 1049.32C1296.03 1016.48 1292.77 1006.57 1303.97 953.23C1311.68 916.45 1316.16 861.59 1320.49 808.53C1323.71 769.03 1326.76 731.72 1330.85 706.39C1340.64 645.61 1354.79 488.77 1357.08 452.52C1359.47 414.83 1370.08 325.21 1370.2 324.31C1370.42 322.466 1370.06 320.6 1369.18 318.967C1368.29 317.334 1366.92 316.015 1365.26 315.19C1363.61 314.37 1199.66 233.04 1173.7 217.61C1156.52 207.216 1139.97 195.83 1124.12 183.51C1122.53 182.252 1120.56 181.568 1118.53 181.57L1118.5 181.5Z" fill="#17091D"/>
<path id="Vector_50" d="M1274.32 1104.75C1267.71 1095.8 1263.42 1089.59 1261.45 1086.13C1257.76 1079.66 1253.73 1073.39 1249.36 1067.35C1242.76 1058.18 1236.99 1048.44 1232.13 1038.24C1225.53 1024.32 1220.68 1014.68 1217.57 1009.32C1209.77 995.839 1204.97 981.319 1197.15 966.919C1196.47 965.663 1195.98 964.316 1195.68 962.919C1193.68 953.506 1189.7 943.773 1183.74 933.719C1183.64 933.576 1183.57 933.413 1183.53 933.241C1183.5 933.069 1183.5 932.892 1183.53 932.719C1183.6 932.466 1183.73 932.235 1183.92 932.049C1184.11 931.866 1184.33 931.729 1184.58 931.649C1184.84 931.584 1185.1 931.584 1185.36 931.649C1185.62 931.697 1185.87 931.81 1186.07 931.979C1189.61 934.915 1192.34 938.709 1194 942.999C1199.28 956.286 1202.7 964.619 1204.27 967.999C1205.29 970.146 1212.51 985.479 1225.92 1014C1231.11 1025.04 1239.23 1039.93 1250.28 1058.66C1259.05 1073.52 1267.48 1088.52 1275.59 1103.66C1275.64 1103.75 1275.67 1103.85 1275.68 1103.95C1275.69 1104.06 1275.68 1104.16 1275.65 1104.26C1275.59 1104.46 1275.45 1104.63 1275.27 1104.73L1275 1104.88C1274.89 1104.92 1274.77 1104.92 1274.66 1104.88C1274.6 1104.88 1274.53 1104.87 1274.48 1104.85C1274.42 1104.83 1274.36 1104.79 1274.32 1104.75Z" fill="#5C2C66"/>
<path id="Vector_51" d="M1311.15 1198C1303.14 1218.27 1293.73 1237.96 1282.97 1256.92L1002 1286C1002 1286 1003.11 1276.34 1004.66 1261.86C1009.03 1271.07 1016.14 1271.33 1026 1262.64C1026.69 1262.02 1027.22 1261.24 1027.56 1260.38C1032.86 1245.87 1036.04 1235.47 1037.1 1229.2C1038.76 1219.2 1039.83 1213.01 1040.3 1210.63C1041.61 1204.48 1042.18 1198.19 1041.98 1191.91C1041.82 1187.75 1042.04 1177 1042.63 1159.66C1042.94 1150.49 1042.76 1139.76 1042.1 1127.49C1041.73 1120.53 1041.18 1100.48 1040.43 1067.33C1040.15 1055.27 1037.19 1041.53 1037.29 1029.41C1037.38 1019.62 1033.4 1003.95 1034.55 992.19C1034.57 992.039 1034.63 991.898 1034.74 991.79C1034.85 991.679 1034.99 991.608 1035.15 991.59C1035.31 991.563 1035.47 991.587 1035.61 991.66C1035.74 991.732 1035.85 991.844 1035.92 991.98C1037.81 996.393 1039.15 1001.02 1039.92 1005.76C1042.65 1021.56 1042.72 1039.35 1043.84 1053.44C1047.23 1095.97 1048.62 1138.64 1048 1181.44C1047.88 1191.7 1046.48 1207.88 1045.86 1215.62C1044.43 1233.11 1040.59 1248.86 1034.32 1262.87C1034.13 1263.31 1034.06 1263.79 1034.14 1264.26C1034.21 1264.74 1034.42 1265.19 1034.74 1265.55C1035.07 1265.92 1035.48 1266.2 1035.95 1266.36C1036.43 1266.52 1036.94 1266.56 1037.43 1266.47C1047.94 1264.65 1058.39 1263.29 1068.8 1262.4C1119.91 1257.94 1173.41 1251.63 1229.28 1243.48C1230.56 1243.29 1240.13 1240.9 1258 1236.31C1283 1229.93 1300.06 1218.08 1311.15 1198Z" fill="#5C2C66"/>
<path id="Vector_52" d="M1320.89 1165C1319.83 1172.33 1318.02 1179.54 1315.49 1186.5L1314.86 1188.24C1315.66 1183.98 1316.14 1179.68 1316.3 1175.35C1316.97 1161.52 1317.15 1147.52 1316.86 1133.35C1320.57 1143.23 1321.33 1154.06 1320.89 1165Z" fill="#5C2C66"/>
<path id="Vector_53" d="M993 1286C993 1286 605.63 1275.81 528.52 1224.89C526.545 1223.61 524.67 1222.18 522.91 1220.62C462 1166 482.56 1098.74 486.28 1048.87C490 999 485.43 944.51 481.71 890.26C477.99 836.01 485.46 774.39 501.71 746.2C517.96 718.01 527.79 568.3 522.89 530.15C520.51 511.6 515.75 479.71 504.57 446.59C515.68 475.51 512.33 470.04 519.57 500.2C527.69 533.9 530.48 651.48 530.48 651.48L516 739L525.85 725.23C537.049 709.624 545.136 692.006 549.67 673.34C550.57 669.62 551.12 666.81 551 665.91C550.5 662.31 566.5 614.5 568.07 594.09C569.64 573.68 588.5 542.5 592.2 570C595.9 597.5 580.5 648.49 572.61 676.8C564.72 705.11 566.5 860.5 563.89 935.7C561.28 1010.9 558.5 1032.5 541.34 1070.51C524.18 1108.52 541.5 1183.51 568.07 1209.15C594.64 1234.79 597.5 1225.5 594.07 1217.02C590.64 1208.54 580.85 1159.74 592.99 1149.02C605.13 1138.3 626.43 1194.02 652.12 1227.02L652.99 1228.14C679.49 1261.74 916.49 1255.53 961.75 1254.5C995.22 1253.74 995.75 1247.91 996.99 1246.03L993 1286Z" fill="#9C398C"/>
<path id="Vector_54" d="M1003.1 1248.11L1003.26 1247.01C1003.33 1247.19 1003.36 1247.39 1003.33 1247.58C1003.3 1247.77 1003.22 1247.96 1003.1 1248.11Z" fill="#9C398C"/>
<path id="Vector_55" d="M629.499 1257.5L599.429 1178.65C597.146 1172.66 596.197 1166.25 596.65 1159.86C597.102 1153.47 598.945 1147.25 602.049 1141.65C634.199 1083.65 736.549 905.65 780.629 909.31C802.379 911.13 1053.45 919.81 1164.57 907.42C1178.94 905.792 1193.48 908.312 1206.47 914.68C1219.45 921.048 1230.35 931 1237.86 943.36C1263.39 985.44 1294.61 1037.19 1303.5 1055.48" stroke="#17091D" stroke-width="9" stroke-linecap="round" stroke-linejoin="round"/>
<path id="Vector_56" d="M582.5 561.5C582.5 561.5 540.5 743.5 490.5 762.5" stroke="#17091D" stroke-width="9" stroke-linecap="round" stroke-linejoin="round"/>
<path id="Vector_57" d="M628.239 1189.37C628.239 1189.37 764.679 1057.21 775.089 1001.37" stroke="#17091D" stroke-width="9" stroke-linecap="round" stroke-linejoin="round"/>
<path id="Vector_58" d="M863.5 294.5L1002.5 444.5L1063.07 281.55" stroke="#17091D" stroke-width="9" stroke-linecap="round" stroke-linejoin="round"/>
</g>
<g id="collar_2">
<path id="Vector_59" d="M1094.94 349.709C1094.72 349.724 1094.5 349.724 1094.28 349.709C1093.51 349.596 1092.78 349.284 1092.17 348.806C1091.56 348.327 1091.08 347.698 1090.78 346.979L1036.34 215.269C1035.96 214.352 1035.9 213.335 1036.16 212.377C1036.41 211.419 1036.98 210.572 1037.77 209.969C1038.13 209.699 1073.92 181.839 1073.68 144.969C1073.52 122.119 1059.68 100.239 1032.45 79.9694C1031.69 79.4045 1031.13 78.6147 1030.84 77.7123C1030.56 76.8099 1030.57 75.8408 1030.87 74.9427C1031.16 74.0446 1031.74 73.2633 1032.5 72.7098C1033.27 72.1562 1034.19 71.8587 1035.14 71.8594C1035.46 71.8586 1035.77 71.8921 1036.08 71.9594C1036.55 72.0594 1039.08 72.6994 1043.08 74.0294C1043.34 74.1094 1043.61 74.1894 1043.87 74.2894C1068.71 82.5594 1148.65 116.519 1138.98 207.289C1127.92 311.169 1099.58 346.659 1098.37 348.119C1097.95 348.618 1097.42 349.019 1096.83 349.294C1096.24 349.569 1095.59 349.71 1094.94 349.709Z" fill="#CE44A2"/>
<path id="Vector_60" d="M1035.14 76.3098C1035.37 76.3098 1037.81 76.9598 1041.78 78.3098C1041.99 78.3698 1042.22 78.4398 1042.44 78.5198C1066.91 86.6598 1143.86 119.4 1134.55 206.79C1123.55 310.53 1094.94 345.24 1094.94 345.24L1092.85 340.24L1042.41 218.24L1040.5 213.62C1040.5 213.62 1128.74 146.23 1035.14 76.4298M1035.14 67.4298C1033.25 67.4312 1031.41 68.0275 1029.88 69.134C1028.34 70.2406 1027.2 71.8013 1026.6 73.5949C1026.01 75.3885 1025.99 77.3239 1026.56 79.1269C1027.13 80.9298 1028.25 82.5088 1029.76 83.6398C1055.76 103.03 1069.01 123.64 1069.18 145.03C1069.43 179.6 1035.37 206.21 1035.02 206.48C1033.45 207.685 1032.32 209.375 1031.8 211.288C1031.29 213.201 1031.42 215.23 1032.18 217.06L1034.09 221.68L1084.53 343.68L1086.62 348.68C1087.22 350.117 1088.17 351.376 1089.4 352.333C1090.63 353.29 1092.08 353.912 1093.62 354.14C1094.06 354.208 1094.5 354.241 1094.95 354.24C1096.29 354.247 1097.61 353.957 1098.82 353.39C1100.03 352.822 1101.1 351.992 1101.95 350.96C1103.19 349.46 1132.35 312.96 1143.56 207.74C1145.87 186.03 1143.3 165.81 1135.93 147.64C1129.48 132.026 1119.76 117.972 1107.43 106.42C1085.32 85.3598 1059.14 74.5798 1045.43 70.0098C1045.15 69.9098 1044.84 69.8098 1044.52 69.7198C1040.52 68.3798 1037.75 67.7198 1037.11 67.5398C1036.48 67.4096 1035.84 67.3426 1035.2 67.3398L1035.14 67.4298Z" fill="#17091D"/>
<path id="Vector_61" d="M1134.55 206.76C1123.55 310.5 1094.94 345.21 1094.94 345.21L1092.85 340.21C1102.21 289.72 1115.53 201.65 1104.5 157.55C1094.73 118.47 1064.5 92.6898 1042.44 78.5498C1066.91 86.6298 1143.86 119.37 1134.55 206.76Z" fill="#9C398C"/>
<path id="Vector_62" d="M1080 163C1071 189 1065.94 205.52 1055.47 210.76C1051.47 212.76 1047.28 217.41 1043 220L1040.5 213.5C1040.5 213.5 1128.74 146.11 1035.14 76.3096C1035.37 76.3096 1037.81 76.9596 1041.78 78.3096C1046.42 81.3096 1052.56 86.3096 1060 95.0296C1078 116 1089 137 1080 163Z" fill="#D969BD"/>
</g>
<g id="collar_3">
<path id="Vector_63" d="M817.76 356.199C784.28 355.639 732.55 325.749 664.01 267.349C613.39 224.219 571.8 180.669 571.38 180.229C570.88 179.76 570.496 179.18 570.26 178.536C570.024 177.892 569.942 177.201 570.02 176.519C570.098 175.878 570.325 175.264 570.683 174.726C571.041 174.187 571.519 173.74 572.08 173.419C573.08 172.489 584.08 161.509 595.49 109.949C603.11 75.5394 615.75 60.5894 625 54.0994C628.38 51.7294 631.14 49.5994 632.86 48.2194C634.03 47.2894 635.12 46.3994 636.01 45.6294C636.845 44.9157 637.911 44.5286 639.01 44.5394C640.051 44.5263 641.064 44.8803 641.87 45.5394C642.684 46.2179 643.231 47.1627 643.414 48.2063C643.597 49.2498 643.404 50.3245 642.87 51.2394C642.69 51.5494 638.48 59.1894 643.04 72.9994C647.48 86.4494 661.3 108.139 701.92 135.099C797.8 198.739 894.06 233.479 895.02 233.819C895.665 234.048 896.248 234.421 896.727 234.91C897.206 235.398 897.566 235.99 897.781 236.639C897.996 237.288 898.06 237.978 897.968 238.656C897.876 239.333 897.63 239.981 897.25 240.549L821.58 354.199C821.17 354.815 820.613 355.32 819.961 355.669C819.308 356.018 818.58 356.2 817.84 356.199H817.76Z" fill="#CE44A2"/>
<path id="Vector_64" d="M639 49.0002C638.56 49.7602 618.39 85.0702 699.45 138.87C796.9 203.55 893.53 238.08 893.53 238.08L889.36 244.34L842.36 314.84L817.84 351.7C739.69 350.4 574.64 177.13 574.64 177.13C574.64 177.13 587 169 599.88 110.92C607.14 78.1502 618.81 63.9202 627.59 57.7902C630.9 55.4702 633.69 53.3302 635.68 51.7902C637.67 50.2502 638.85 49.1302 639 49.0002ZM639 40.0002C636.85 40.0004 634.771 40.7702 633.14 42.1702C632.32 42.8802 631.24 43.7702 630.14 44.6702C628.47 46.0002 625.79 48.0702 622.49 50.3802C608.08 60.4802 597.49 80.1802 591.16 108.93C580.31 157.93 570.06 169.1 569.16 169.93C568.163 170.702 567.34 171.674 566.743 172.784C566.147 173.893 565.789 175.116 565.695 176.373C565.601 177.629 565.772 178.892 566.196 180.078C566.621 181.265 567.29 182.349 568.16 183.26C568.58 183.69 610.34 227.41 661.16 270.7C730.51 329.79 783.16 360.04 817.75 360.62H817.9C819.381 360.621 820.839 360.257 822.146 359.559C823.453 358.861 824.567 357.852 825.39 356.62L849.94 319.77L896.94 249.27L901.11 243.01C901.869 241.872 902.358 240.576 902.542 239.221C902.725 237.865 902.596 236.486 902.166 235.187C901.736 233.888 901.016 232.705 900.06 231.726C899.104 230.748 897.938 230 896.65 229.54C895.65 229.2 799.85 194.54 704.52 131.31C665.87 105.66 652.35 85.3102 647.82 72.7102C643.45 60.5702 646.67 53.8702 646.92 53.3802C647.685 52.006 648.077 50.4552 648.057 48.8822C648.036 47.3093 647.604 45.7693 646.802 44.4156C646.001 43.0619 644.859 41.9419 643.49 41.1672C642.121 40.3924 640.573 39.9901 639 40.0002Z" fill="#17091D"/>
<path id="Vector_65" d="M842.39 314.85L817.84 351.7C739.69 350.4 574.64 177.13 574.64 177.13C574.64 177.13 587 169 599.88 110.92C607.14 78.15 618.81 63.92 627.59 57.79C623.59 80.52 622.59 113.68 637 151.36C657.81 205.8 785.11 282.53 842.39 314.85Z" fill="#9C398C"/>
<path id="Vector_66" d="M893.52 238.09L889.35 244.35C880.98 242.02 871.19 239.1 859.73 235.45C781 210.39 649.5 117.5 637.5 88.4998C630.5 71.6798 632.66 59.2298 635.68 51.7398C637.68 50.1598 638.85 49.1298 638.99 49.0098C638.55 49.7698 618.38 85.0798 699.44 138.88C796.89 203.56 893.52 238.09 893.52 238.09Z" fill="#D969BD"/>
</g>
</g>
</g>
</svg>
