<svg width="1000" height="1004" viewBox="0 0 1000 1004" fill="none" xmlns="http://www.w3.org/2000/svg">
<path d="M328.724 996.654C324.4 996.654 320.346 995.403 317.089 994.398C314.924 993.729 313.067 993.155 311.821 993.155C311.56 993.142 311.299 993.186 311.057 993.283C309.331 994.15 305.599 995.074 300.302 995.074C293.722 995.074 282.719 993.645 267.79 986.835C257.101 981.958 251.574 968.382 251.362 946.478C251.204 930.514 254.081 915.709 254.111 915.562C254.185 915.19 254.386 914.854 254.68 914.613C254.974 914.371 255.343 914.239 255.723 914.239C255.782 914.236 255.842 914.236 255.902 914.239C255.96 914.239 262.098 914.905 271.507 914.905C277.378 914.905 283.275 914.652 289.025 914.173C307.537 912.58 322.29 904.592 322.444 904.512C322.705 904.369 323 904.3 323.297 904.312C323.595 904.323 323.883 904.415 324.133 904.578C324.743 904.976 339.146 914.4 344.483 919.602C344.659 919.774 344.827 919.967 344.995 920.121C347.949 923.261 349.126 926.792 350.266 930.21C351.089 932.678 351.864 935.006 353.268 936.98C355.388 939.96 357.603 946.85 359.742 953.514C361.317 958.42 362.948 963.49 364.201 965.753L364.377 966.057C365.127 967.242 365.568 968.596 365.656 969.996C365.745 971.396 365.48 972.796 364.885 974.066C363.393 977.396 360.071 979.816 356.002 980.544C353.56 980.979 349.926 984.101 346.41 987.124C341.486 991.353 335.904 996.146 330.512 996.595C329.923 996.628 329.32 996.654 328.724 996.654Z" fill="#CE44A2"/>
<path d="M323.242 905.929C323.242 905.929 338.061 915.606 343.347 920.756C343.508 920.914 343.665 921.074 343.819 921.235C348.615 926.331 348.41 932.933 351.942 937.908C355.473 942.883 359.786 961.128 362.777 966.528C362.85 966.663 362.923 966.787 362.996 966.893C365.99 971.766 362.192 977.739 355.725 978.894C349.258 980.049 339.162 994.189 330.388 994.92C329.836 994.968 329.292 994.986 328.736 994.986C321.747 994.986 315.397 991.488 311.833 991.488C311.316 991.47 310.803 991.574 310.334 991.791C308.96 992.482 305.582 993.411 300.314 993.411C293.146 993.411 282.457 991.692 268.485 985.317C244.231 974.255 255.735 915.862 255.735 915.862C255.735 915.862 261.894 916.534 271.519 916.534C276.579 916.534 282.596 916.348 289.179 915.781C308.283 914.136 323.245 905.911 323.245 905.911M323.245 902.621C322.693 902.622 322.15 902.761 321.666 903.027C321.48 903.129 307.008 910.934 288.898 912.495C283.192 912.985 277.343 913.226 271.519 913.226C262.216 913.226 256.166 912.579 256.089 912.575C255.968 912.56 255.846 912.553 255.724 912.553C254.963 912.555 254.227 912.82 253.64 913.303C253.053 913.786 252.651 914.458 252.503 915.204C250.625 925.513 249.694 935.972 249.721 946.451C249.816 956.073 250.964 964.268 253.136 970.812C256.013 979.49 260.717 985.372 267.114 988.289C282.311 995.235 293.555 996.679 300.307 996.679C304.982 996.679 309.223 995.947 311.694 994.759H311.826C312.816 994.759 314.659 995.33 316.607 995.929C319.97 996.967 324.156 998.258 328.729 998.258C329.38 998.258 330.027 998.232 330.655 998.181C336.577 997.687 342.371 992.698 347.471 988.311C350.662 985.569 354.281 982.462 356.281 982.097C360.887 981.274 364.659 978.499 366.374 974.672C367.07 973.158 367.38 971.495 367.275 969.832C367.171 968.168 366.655 966.557 365.774 965.142V965.12C365.734 965.054 365.694 964.989 365.661 964.923V964.894C364.487 962.77 362.883 957.776 361.329 952.943C359.052 945.848 356.899 939.147 354.628 935.96C353.367 934.187 352.629 931.972 351.847 929.625C350.706 926.207 349.416 922.314 346.221 918.939C346.023 918.731 345.855 918.548 345.669 918.377C340.218 913.061 325.684 903.55 325.066 903.148C324.521 902.803 323.887 902.626 323.242 902.639L323.245 902.621Z" fill="#17091D"/>
<path d="M355.707 978.917C349.241 980.068 339.144 994.211 330.371 994.942C321.597 995.674 313.555 990.19 310.316 991.813C307.077 993.436 292.718 996.405 268.467 985.339C244.217 974.274 255.717 915.884 255.717 915.884C255.717 915.884 270.054 917.448 289.162 915.803C308.269 914.158 323.242 905.93 323.242 905.93C323.242 905.93 338.062 915.606 343.348 920.757C343.509 920.914 343.666 921.075 343.819 921.235C340.99 919.956 327.103 913.924 318.812 915.416C309.552 917.068 287.392 923.422 278.915 924.083C270.438 924.745 267.261 937.101 268.486 950.297C269.71 963.494 266.124 983.398 285.645 984.045C305.166 984.692 313.285 981.15 321.469 983.106C329.654 985.061 345.271 989.649 362.777 966.528C362.85 966.663 362.923 966.787 362.996 966.893C365.972 971.788 362.174 977.761 355.707 978.917Z" fill="#9C398C"/>
<path d="M334.739 969.122C334.739 969.122 332.714 957.995 342.847 946.871" stroke="#17091D" stroke-width="3.23882" stroke-linecap="round" stroke-linejoin="round"/>
<path d="M337.779 956.408C337.779 956.408 355.012 967.532 348.929 984.22" stroke="#17091D" stroke-width="3.23882" stroke-linecap="round" stroke-linejoin="round"/>
<path d="M308.437 965.148C308.437 965.148 307.015 983.635 312.093 992.382" stroke="#17091D" stroke-width="3.90048" stroke-linecap="round" stroke-linejoin="round"/>
<path d="M287.11 973.557C287.11 973.557 286.079 990.698 292.674 994.642" stroke="#17091D" stroke-width="3.21323" stroke-linecap="round" stroke-linejoin="round"/>
<path d="M272.832 977.674C272.832 977.674 271.797 988.498 278.418 990.987" stroke="#17091D" stroke-width="2.55889" stroke-linecap="round" stroke-linejoin="round"/>
<path d="M499.191 949.258C499.191 949.258 543.661 948.183 550.336 945.237C557.011 942.291 533.714 884.727 533.714 884.727L497.005 890.502L499.191 949.258Z" fill="#7E4282" stroke="#17091D" stroke-width="3.29" stroke-miterlimit="10"/>
<path d="M427.791 412.794C427.791 412.794 452.133 403.352 486.572 403.688C521.011 404.025 541.434 407.519 547.079 408.909C580.593 417.181 595.215 437.287 575.841 452.274C548.241 473.623 435.833 428.879 432.177 424.492C428.522 420.106 427.791 412.794 427.791 412.794Z" fill="#FBDAFA" stroke="#17091D" stroke-width="2.92444" stroke-miterlimit="10"/>
<path d="M707.456 978.895C702.78 978.895 697.461 976.684 692.319 974.531C690.565 973.804 688.911 973.113 687.353 972.546C684.897 971.651 683.153 971.237 681.859 971.237C681.645 971.236 681.432 971.25 681.22 971.277C680.594 971.365 679.962 971.41 679.33 971.411C675.722 971.411 672.391 969.913 670.418 967.411C669.614 966.41 669.053 965.237 668.778 963.983C668.503 962.729 668.522 961.428 668.834 960.182C668.863 960.073 668.884 959.964 668.906 959.848C669.96 954.36 673.404 938.029 675.305 931.931C675.98 929.749 674.988 926.713 673.938 923.491C672.605 919.389 671.086 914.739 672.954 910.764C673.063 910.535 673.172 910.317 673.284 910.102C676.395 904.149 685.467 892.622 687.484 890.102C687.385 887.793 687.084 879.389 687.349 870.488C687.992 848.939 691.255 845.506 692.33 844.379C692.725 843.93 693.208 843.569 693.75 843.319C694.292 843.068 694.88 842.934 695.477 842.924C698.863 842.924 708.194 839.768 715.66 837.229C720.747 835.498 725.59 833.862 728.595 833.157C730.023 832.816 731.486 832.641 732.955 832.637C736.951 832.637 740.17 833.997 742.765 835.088C744.676 835.895 746.325 836.593 747.804 836.593C748.315 836.596 748.823 836.505 749.301 836.324C749.568 836.226 749.849 836.176 750.133 836.175C752.495 836.175 753.585 839.284 754.493 843.957C755.169 847.444 755.787 852.284 756.31 858.342C757.124 867.48 757.516 876.724 757.596 878.706C759.663 882.469 775.763 912.6 773.583 934.269C772.925 940.837 770.625 946.04 766.748 949.738L766.505 949.964C764.75 951.582 762.973 953.124 761.215 954.557C756.976 958.055 752.415 961.144 747.593 963.782C737.914 968.986 731.472 969.546 729.151 969.546C728.637 969.55 728.123 969.517 727.614 969.448H727.49C727.315 969.453 727.141 969.482 726.974 969.535C725.801 969.873 724.162 971.033 722.251 972.375C719.064 974.629 715.097 977.437 710.261 978.589C709.341 978.799 708.4 978.902 707.456 978.895Z" fill="#CE44A2"/>
<path d="M732.951 834.269C739.516 834.269 743.687 838.222 747.79 838.222C748.495 838.228 749.196 838.105 749.857 837.858C749.94 837.826 750.029 837.81 750.118 837.811C754.478 837.811 755.983 879.171 755.983 879.171C755.983 879.171 774.197 911.716 771.969 934.124C771.395 939.833 769.499 944.884 765.633 948.567L765.4 948.785C763.622 950.422 761.887 951.927 760.194 953.302C756.038 956.74 751.563 959.772 746.83 962.356C738.452 966.862 732.232 967.927 729.161 967.927C728.729 967.931 728.296 967.903 727.868 967.844C727.748 967.826 727.626 967.818 727.505 967.818C727.178 967.822 726.854 967.872 726.542 967.967C722.908 969.011 717.422 975.218 709.898 977.004C709.101 977.186 708.287 977.275 707.47 977.269C701.566 977.269 693.983 973.244 687.923 971.036C685.634 970.2 683.563 969.629 681.874 969.629C681.584 969.628 681.296 969.647 681.009 969.684C680.456 969.762 679.899 969.801 679.341 969.8C673.648 969.8 669.226 965.633 670.432 960.585C670.465 960.451 670.498 960.313 670.523 960.16C671.682 954.131 675.057 938.265 676.874 932.44C678.691 926.615 671.486 917.778 674.443 911.476C674.538 911.276 674.636 911.076 674.741 910.876C678.139 904.375 689.151 890.644 689.151 890.644C689.151 890.644 686.906 844.564 695.488 844.564C701.439 844.564 721.379 836.535 728.98 834.745C730.289 834.433 731.63 834.275 732.976 834.273M732.976 831C731.386 831.006 729.801 831.194 728.253 831.56C725.172 832.287 720.314 833.931 715.173 835.676C708.193 838.044 698.631 841.287 695.513 841.287C694.695 841.294 693.887 841.472 693.141 841.81C692.395 842.147 691.728 842.637 691.182 843.247C689.137 845.4 686.346 850.556 685.754 870.436C685.503 878.836 685.754 886.607 685.863 889.556C683.258 892.851 674.883 903.6 671.871 909.356C671.762 909.571 671.646 909.8 671.508 910.058V910.08C669.368 914.644 670.988 919.622 672.42 924.011C673.346 926.851 674.302 929.782 673.779 931.458C671.86 937.615 668.394 954.04 667.34 959.538C667.34 959.538 667.34 959.56 667.34 959.575C667.34 959.589 667.311 959.716 667.293 959.793C667.293 959.801 667.293 959.81 667.293 959.818C666.923 961.304 666.901 962.855 667.229 964.35C667.557 965.846 668.225 967.246 669.182 968.44C671.464 971.349 675.275 973.062 679.378 973.062C680.087 973.061 680.796 973.011 681.499 972.913C681.636 972.896 681.773 972.887 681.91 972.887C683 972.887 684.606 973.284 686.844 974.102C688.366 974.655 690.009 975.338 691.742 976.058C697.032 978.24 702.504 980.527 707.507 980.527C708.577 980.531 709.644 980.409 710.686 980.164C715.845 978.942 719.955 976.033 723.261 973.695C724.889 972.542 726.571 971.349 727.479 971.091H727.537C728.09 971.163 728.647 971.197 729.205 971.193C731.65 971.193 738.415 970.615 748.418 965.236C753.333 962.551 757.982 959.403 762.301 955.836C764.081 954.382 765.884 952.825 767.657 951.189L767.94 950.924C772.097 946.96 774.564 941.415 775.261 934.447C776.242 924.629 773.764 912.055 767.904 897.055C765.393 890.631 762.509 884.36 759.267 878.273C759.158 875.662 758.762 866.884 757.988 858.2C757.447 852.087 756.818 847.189 756.132 843.655C755.819 841.85 755.34 840.079 754.7 838.364C753.672 835.818 752.157 834.549 750.173 834.545C749.694 834.546 749.219 834.632 748.771 834.8C748.473 834.912 748.158 834.967 747.84 834.964C746.692 834.964 745.181 834.327 743.437 833.589C740.715 832.44 737.329 831.011 733.002 831.011L732.976 831Z" fill="#17091D"/>
<path d="M680.994 969.677C682.811 969.422 685.209 970.041 687.898 971.03C694.826 973.553 703.743 978.452 709.872 976.997C717.397 975.212 722.887 968.997 726.516 967.961C726.947 967.824 727.402 967.781 727.85 967.837C730.15 968.201 736.999 967.626 746.812 962.35C751.545 959.765 756.02 956.733 760.176 953.295C761.871 951.918 763.607 950.413 765.382 948.779L765.615 948.561C768.656 945.608 770.701 940.561 771.951 934.117C774.186 911.71 755.965 879.164 755.965 879.164C755.965 879.164 754.402 836.153 749.839 837.851C744.218 839.95 739.189 832.339 728.947 834.742C721.346 836.528 701.406 844.561 695.455 844.561C686.873 844.561 689.119 890.641 689.119 890.641C689.119 890.641 678.106 904.371 674.709 910.873C674.603 911.073 674.505 911.273 674.411 911.473C676.689 909.39 687.949 899.408 696.236 898.241C705.494 896.939 728.391 896.095 736.606 894.099C744.821 892.102 751.637 902.804 754.555 915.662C756.51 924.248 761.411 935.012 759.009 943.182C757.818 947.248 754.824 950.67 748.771 952.873C748.135 953.106 747.51 953.328 746.903 953.542C737.994 956.652 731.447 957.953 726.24 959.102C721.517 960.142 717.905 961.055 714.614 963.062C709.276 966.335 700.411 972.339 686.274 968.153C681.601 966.768 676.347 964.259 670.458 960.153C670.432 960.306 670.4 960.444 670.367 960.579C669.095 966.11 674.531 970.586 680.994 969.677Z" fill="#9C398C"/>
<path d="M681.94 934.647C682.349 933.927 683.265 933.676 683.985 934.085C690.764 937.941 694.585 942.797 696.708 946.723C697.767 948.681 698.401 950.403 698.773 951.648C698.958 952.271 699.079 952.776 699.154 953.133C699.191 953.311 699.217 953.453 699.235 953.554C699.243 953.604 699.25 953.644 699.254 953.674C699.256 953.689 699.259 953.701 699.26 953.711C699.261 953.715 699.261 953.719 699.262 953.723C699.262 953.724 699.262 953.726 699.262 953.728L699.263 953.729C699.263 953.73 699.248 953.733 697.777 953.935L699.263 953.731C699.375 954.552 698.8 955.308 697.98 955.42C697.159 955.532 696.402 954.957 696.29 954.137V954.136C696.29 954.134 696.29 954.132 696.289 954.13C696.287 954.117 696.284 954.093 696.279 954.061C696.267 953.995 696.248 953.89 696.218 953.749C696.159 953.467 696.058 953.043 695.898 952.506C695.577 951.43 695.017 949.902 694.07 948.149C692.179 944.653 688.733 940.236 682.502 936.692C681.782 936.283 681.53 935.367 681.94 934.647Z" fill="#17091D"/>
<path d="M689.814 941.907C690.335 941.263 691.28 941.165 691.923 941.686C692.566 942.208 692.664 943.15 692.144 943.794L692.145 943.795C692.144 943.795 692.143 943.797 692.141 943.8C692.137 943.805 692.13 943.814 692.12 943.826C692.101 943.851 692.07 943.89 692.029 943.944C691.946 944.052 691.822 944.217 691.667 944.433C691.357 944.867 690.919 945.508 690.424 946.323C689.432 947.957 688.225 950.266 687.346 952.975C685.591 958.386 685.178 965.247 690.215 971.671C690.726 972.323 690.612 973.266 689.96 973.777C689.308 974.288 688.366 974.174 687.855 973.522C681.993 966.048 682.55 958.037 684.492 952.05C685.462 949.06 686.784 946.538 687.86 944.766C688.399 943.878 688.88 943.173 689.229 942.685C689.403 942.442 689.545 942.252 689.646 942.121C689.696 942.055 689.736 942.004 689.764 941.969C689.778 941.951 689.79 941.937 689.798 941.927C689.802 941.921 689.805 941.917 689.808 941.914C689.809 941.912 689.81 941.911 689.811 941.91L689.813 941.908C689.816 941.91 689.872 941.954 690.963 942.839L689.814 941.907Z" fill="#17091D"/>
<path d="M720.824 940.661C721.589 940.345 722.466 940.708 722.783 941.474L721.397 942.047C722.777 941.476 722.784 941.473 722.784 941.474V941.475C722.784 941.475 722.784 941.477 722.785 941.479C722.786 941.481 722.788 941.485 722.79 941.489C722.793 941.499 722.799 941.512 722.806 941.529C722.82 941.564 722.841 941.615 722.868 941.681C722.921 941.813 722.998 942.007 723.094 942.255C723.287 942.751 723.559 943.467 723.878 944.356C724.516 946.134 725.344 948.61 726.108 951.401C727.612 956.901 728.952 963.933 727.824 969.239C727.651 970.049 726.855 970.567 726.044 970.395C725.234 970.222 724.717 969.425 724.889 968.615C725.853 964.081 724.713 957.673 723.214 952.192C722.477 949.494 721.673 947.095 721.054 945.37C720.745 944.508 720.483 943.816 720.298 943.342C720.206 943.105 720.133 942.922 720.084 942.8C720.059 942.739 720.041 942.693 720.029 942.663C720.023 942.648 720.018 942.637 720.015 942.63C720.014 942.626 720.012 942.624 720.011 942.622V942.62C719.695 941.855 720.058 940.978 720.824 940.661Z" fill="#17091D"/>
<path d="M743.591 942.007C744.362 941.703 745.233 942.082 745.537 942.852L744.142 943.403C745.537 942.852 745.537 942.853 745.537 942.853V942.854C745.538 942.855 745.539 942.856 745.539 942.857C745.54 942.86 745.541 942.863 745.543 942.868C745.547 942.877 745.552 942.89 745.559 942.907C745.572 942.94 745.59 942.988 745.613 943.05C745.661 943.175 745.728 943.355 745.812 943.586C745.979 944.046 746.21 944.706 746.471 945.515C746.992 947.13 747.636 949.354 748.121 951.773C748.604 954.182 748.942 956.845 748.816 959.319C748.691 961.766 748.103 964.236 746.531 966.045C745.988 966.67 745.041 966.736 744.415 966.193C743.79 965.65 743.724 964.703 744.267 964.078C745.202 963.001 745.71 961.321 745.819 959.166C745.928 957.038 745.638 954.647 745.18 952.363C744.724 950.089 744.114 947.981 743.615 946.436C743.367 945.666 743.148 945.039 742.991 944.608C742.913 944.393 742.851 944.226 742.809 944.115C742.788 944.06 742.771 944.018 742.761 943.991C742.756 943.977 742.752 943.967 742.749 943.961C742.748 943.958 742.748 943.956 742.747 943.955L742.746 943.954C742.442 943.183 742.82 942.312 743.591 942.007Z" fill="#17091D"/>
<path d="M758.305 941.502C759.065 941.171 759.948 941.519 760.279 942.278L758.904 942.877C760.279 942.278 760.279 942.279 760.28 942.279V942.28C760.28 942.281 760.281 942.282 760.282 942.283C760.283 942.286 760.284 942.289 760.286 942.292C760.289 942.299 760.292 942.309 760.297 942.32C760.307 942.344 760.321 942.377 760.338 942.419C760.373 942.503 760.421 942.623 760.479 942.775C760.595 943.077 760.753 943.508 760.922 944.038C761.26 945.093 761.653 946.562 761.866 948.193C762.277 951.355 762.059 955.652 758.676 958.367C758.03 958.885 757.086 958.782 756.568 958.136C756.049 957.49 756.153 956.546 756.799 956.027C758.902 954.339 759.268 951.476 758.891 948.579C758.709 947.18 758.366 945.894 758.065 944.952C757.915 944.484 757.777 944.107 757.678 943.85C757.629 943.721 757.59 943.623 757.564 943.56C757.551 943.528 757.541 943.504 757.536 943.49L757.528 943.475H757.529C757.199 942.716 757.546 941.833 758.305 941.502Z" fill="#17091D"/>
<path d="M434.736 970.746C419.298 970.746 402.888 970.278 387.276 969.393C379.712 968.966 372.873 968.458 366.947 967.884C363.511 967.547 362.147 962.123 360.257 954.618C358.85 949.028 357.256 942.697 354.822 939.451C348.932 931.591 350.292 896.652 350.475 892.404C350.248 884.135 347.916 869.593 345.43 854.196C341.223 828.048 336.452 798.409 339.6 785.837C339.636 785.694 339.677 785.548 339.717 785.402L339.753 785.27C345.299 765.53 336.639 735.979 332.939 723.356C332.574 722.081 332.238 720.958 331.971 720.011C330.428 714.629 328.441 709.383 326.03 704.329C323.636 699.398 321.965 697.384 321.194 696.718C321.172 696.751 321.114 696.854 321.103 696.872L321.059 696.956C321.022 697.025 320.997 697.073 320.971 697.128L320.949 697.172C320.927 697.219 320.909 697.248 320.898 697.278L320.865 697.351C320.843 697.395 320.825 697.446 320.803 697.493C320.697 697.753 320.609 697.976 320.536 698.195C320.503 698.29 320.478 698.36 320.456 698.433C320.451 698.449 320.445 698.465 320.437 698.48C320.415 698.557 320.394 698.626 320.368 698.703C320.309 698.89 320.262 699.069 320.211 699.222C320.123 699.533 320.035 699.862 319.951 700.198C319.926 700.304 319.907 700.374 319.893 700.447L319.864 700.564C319.838 700.652 319.82 700.743 319.798 700.834L319.721 701.178C319.703 701.266 319.677 701.375 319.655 701.492C319.6 701.737 319.556 701.96 319.509 702.18C319.443 702.52 319.377 702.863 319.315 703.207C319.231 703.667 319.158 704.106 319.085 704.545C319.012 704.983 318.961 705.323 318.906 705.696C318.877 705.894 318.855 706.062 318.829 706.234C318.507 708.478 318.328 710.295 318.284 710.774C318.291 710.887 318.277 711.001 318.244 711.11L318.102 712.104L318.036 712.532C317.926 713.329 317.765 714.451 317.575 715.756C317.575 715.756 317.363 717.252 317.316 717.584C317.294 717.752 317.272 717.917 317.246 718.081L317.224 718.209C317.224 718.312 317.195 718.443 317.173 718.575L316.343 724.424C316.343 724.424 316.285 724.884 316.277 724.906C316.277 724.994 316.252 725.082 316.241 725.169C316.241 725.169 316.029 726.679 316.025 726.69C316.007 726.814 315.992 726.939 315.974 727.056C315.974 727.056 315.685 729.11 315.608 729.578C315.608 729.578 315.44 730.817 315.422 730.923L315.214 732.495L315.177 732.791L315.137 733.109C315.119 733.248 315.104 733.365 315.097 733.453C315.097 733.475 315.097 733.581 315.097 733.585C315.097 733.738 315.206 734.316 315.287 734.729C315.693 736.816 316.533 741.163 312.998 742.387C312.604 742.529 312.234 742.731 311.902 742.987L311.869 743.009L311.763 743.093L311.704 743.137C311.667 743.164 311.632 743.193 311.598 743.224L311.474 743.338C311.024 743.778 310.715 744.342 310.585 744.958C310.455 745.574 310.51 746.215 310.743 746.799C310.893 747.187 311.057 747.637 311.236 748.145C311.258 748.207 311.288 748.291 311.317 748.382L311.353 748.496C311.405 748.638 311.452 748.788 311.507 748.945L311.576 749.157C311.668 749.439 311.766 749.742 311.861 750.056L311.898 750.173C311.92 750.254 311.946 750.334 311.971 750.418C312.099 750.846 312.242 751.336 312.392 751.851V751.899C312.443 752.078 312.494 752.264 312.545 752.447L312.593 752.623C312.658 752.864 312.728 753.12 312.794 753.379L312.859 753.632L313.002 754.184C313.313 755.412 313.62 756.742 313.92 758.102L313.956 758.281C314.026 758.603 314.099 758.936 314.168 759.268C315.868 767.446 315.831 772.136 315.802 775.905C315.802 777.257 315.802 778.424 315.861 779.56C315.941 780.77 316.486 782.353 317.235 784.543C317.944 786.619 318.833 789.2 319.677 792.523C319.677 792.523 319.677 792.56 319.677 792.578C321.079 798.248 321.96 804.034 322.309 809.865C322.96 819.505 330.07 849.188 335.783 873.037L336.149 874.605C336.716 876.988 338.174 879.189 339.523 881.031C340.02 881.711 340.543 882.391 341.051 883.049C343.087 885.7 345.014 888.204 345.653 890.974C347.704 899.792 344.802 906.116 341.241 908.258C340.449 908.754 339.543 909.036 338.609 909.077C296.658 910.206 273.687 922.602 259.964 930.038L258.425 930.868C257.233 931.511 256.279 932.019 255.42 932.458C251.383 934.423 246.958 935.462 242.468 935.499C235.833 935.499 231.373 932.874 230.229 928.301C228.657 922.006 229.864 917.39 230.734 914.015C231.242 912.067 231.644 910.528 231.165 909.771C224.907 899.715 197.874 772.553 196.726 767.143L196.697 767.04C196.697 767 196.671 766.96 196.664 766.92C196.657 766.879 196.635 766.832 196.627 766.799C196.62 766.766 196.587 766.667 196.565 766.594L196.415 766.053C196.393 765.984 196.375 765.914 196.357 765.845L196.328 765.746C196.211 765.333 196.079 764.843 195.929 764.284V764.218C195.889 764.065 195.845 763.907 195.805 763.747C195.545 762.738 195.275 761.634 195.004 760.475L194.829 759.707L194.661 758.939L194.566 758.61C194.496 758.281 194.423 757.945 194.354 757.605C194.284 757.265 194.233 757.009 194.171 756.702C194.072 756.205 193.977 755.693 193.878 755.171C193.849 755.017 193.82 754.849 193.791 754.681L193.732 754.355C193.67 754.023 193.615 753.697 193.564 753.368C193.403 752.418 193.279 751.617 193.173 750.853C193.133 750.557 193.092 750.261 193.056 749.965C193.027 749.757 192.997 749.537 192.972 749.314L192.913 748.825L192.8 747.768C192.778 747.582 192.76 747.403 192.745 747.205V747.081L192.712 746.715C192.676 746.32 192.647 745.929 192.617 745.538V745.286L192.584 744.778C192.584 744.58 192.562 744.357 192.551 744.131C192.307 739.156 192.76 735.109 193.893 732.108C195.161 728.734 196.037 725.226 196.503 721.653C196.905 718.791 197.017 715.896 196.839 713.011C196.799 712.42 196.837 711.826 196.953 711.245L222.392 584.123C222.907 581.243 223.393 578.41 223.854 575.672C225.232 567.63 226.534 560.055 228.241 553.41C236.901 519.903 246.621 512.592 255.193 506.125C256.001 505.518 256.765 504.944 257.525 504.352C264.807 498.649 340.141 469.624 402.051 446.229L405.637 444.872C413.789 441.78 462.229 439.623 500.609 439.623C519.592 439.623 536.006 440.124 548.076 441.085C567.451 442.606 571.581 444.858 573.007 446.649C579.978 455.422 583.974 456.252 587.187 456.932C587.553 457.013 587.918 457.089 588.284 457.17C591.351 457.901 620.756 469.778 633.247 474.848H633.284C633.403 474.896 633.525 474.938 633.649 474.972C659.26 481.783 672.376 490.044 673.787 490.962C673.941 491.06 674.08 491.163 674.222 491.269C681.058 496.518 686.746 507.62 691.133 524.264C693.29 532.557 694.905 540.983 695.965 549.487C695.965 549.516 695.965 549.571 695.987 549.622L696.108 550.353C699.957 573.142 719.182 687.104 719.778 692.58C720.406 698.338 721.997 706.047 723.258 709.421C723.718 710.638 724.244 711.829 724.833 712.989C725.812 714.922 726.659 716.919 727.37 718.966C727.994 720.75 728.356 722.616 728.445 724.504C728.506 725.666 728.461 726.831 728.31 727.984C728.258 728.375 728.282 728.772 728.379 729.154V729.212C728.379 729.271 728.412 729.329 728.427 729.388C732.971 744.01 755.715 817.18 756.754 820.996C757.85 825.065 763.564 842.856 764.456 845.488C764.875 846.591 765.38 847.659 765.966 848.683C766.806 850.177 767.539 851.728 768.159 853.326C768.704 854.788 768.364 856.517 767.205 858.184C765.461 860.688 762.482 862.304 759.609 862.304C757.881 862.3 756.205 861.71 754.856 860.63C753.975 859.939 748.642 858.63 734.817 858.63C722.176 858.63 709.019 859.789 701.299 861.577C696.744 862.629 695.033 863.667 694.415 864.19C688.632 869.1 680.159 872.492 675.608 874.06C674.91 874.304 674.175 874.427 673.436 874.426C672.491 874.431 671.556 874.227 670.7 873.828C669.843 873.428 669.086 872.843 668.483 872.115C666.684 869.922 666.71 867.594 666.725 865.901C666.758 865.395 666.73 864.887 666.64 864.388C664.144 862.161 662.367 858.338 660.879 851.995L660.832 851.805C660.7 851.124 660.337 850.509 659.804 850.064C659.271 849.619 658.601 849.372 657.907 849.363H657.739C657.274 849.359 656.814 849.448 656.384 849.625C655.954 849.801 655.563 850.061 655.235 850.39C654.942 850.71 654.72 851.088 654.583 851.499C654.446 851.911 654.396 852.346 654.438 852.778C655.334 869.228 656.606 891.278 657.586 902.899C658.112 909.113 659.413 914.812 660.543 919.824C663.124 931.156 665.35 940.975 657.198 950.531C648.79 960.401 611.138 963.994 587.86 963.994C572.769 963.994 560.838 962.667 555.128 960.339C544.527 956.04 536.799 939.096 532.196 925.636C531.982 925.001 531.575 924.447 531.032 924.052C530.489 923.658 529.837 923.441 529.166 923.433C528.495 923.425 527.838 923.626 527.286 924.007C526.734 924.389 526.314 924.933 526.084 925.563C520.967 939.677 511.78 957.974 497.205 964.974C486.78 969.997 453.591 970.746 434.736 970.746Z" fill="#CE44A2"/>
<path d="M500.609 441.283C535.754 441.283 567.996 442.998 571.721 447.673C579.847 457.879 584.431 457.942 587.882 458.771C591.172 459.565 629.043 474.922 632.659 476.387C632.845 476.464 633.037 476.527 633.233 476.578C658.456 483.285 671.25 491.277 672.888 492.355C673.005 492.432 673.115 492.508 673.224 492.593C688.888 504.623 694.039 547.148 694.332 549.685C694.332 549.765 694.354 549.846 694.368 549.926C695.154 554.583 717.504 686.885 718.129 692.76C718.78 698.744 720.403 706.519 721.701 709.996C722.998 713.472 724.059 714.561 725.806 719.5C726.376 721.134 726.707 722.842 726.789 724.57C726.844 725.632 726.802 726.697 726.665 727.751C726.586 728.348 726.62 728.954 726.767 729.538C726.789 729.641 726.818 729.743 726.848 729.842C730.054 740.154 754.111 817.546 755.164 821.413C756.29 825.555 762.076 843.588 762.895 845.99C763.714 848.391 765.366 850.534 766.606 853.871C767.556 856.43 763.736 860.63 759.598 860.63C758.238 860.629 756.919 860.162 755.862 859.307C753.873 857.746 745.166 856.956 734.806 856.956C723.21 856.956 709.55 857.943 700.915 859.947C697.391 860.762 694.701 861.749 693.341 862.908C687.668 867.726 679.135 871.07 675.063 872.492C674.539 872.676 673.988 872.77 673.433 872.77C672.73 872.775 672.035 872.624 671.398 872.328C670.761 872.033 670.198 871.599 669.748 871.059C667.251 868.025 669.218 864.454 667.759 863.156C665.932 861.526 664.104 858.576 662.477 851.59C662.477 851.521 662.444 851.451 662.426 851.378C662.208 850.355 661.652 849.435 660.848 848.765C660.044 848.096 659.038 847.717 657.992 847.69H657.75C655.192 847.69 652.633 849.55 652.808 852.844C653.704 869.316 654.969 891.286 655.959 903.013C657.674 923.319 667.039 936.446 655.959 949.438C648.67 957.996 614.926 962.324 587.871 962.324C573.812 962.324 561.551 961.154 555.757 958.804C545.653 954.713 538.166 937.967 533.765 925.092C533.44 924.134 532.826 923.3 532.007 922.706C531.188 922.112 530.205 921.786 529.193 921.775C528.182 921.764 527.191 922.067 526.36 922.643C525.528 923.219 524.895 924.039 524.549 924.99C519.673 938.409 510.717 956.654 496.508 963.479C488.155 967.5 462.855 969.083 434.729 969.083C419.01 969.083 402.392 968.586 387.364 967.734C379.928 967.314 373.052 966.806 367.097 966.228C362.711 965.8 361.614 945.757 356.131 938.446C350.391 930.791 352.109 892.386 352.109 892.386C351.532 870.241 336.255 805.892 341.187 786.188C341.231 786.009 341.282 785.823 341.329 785.655C347.544 763.546 336.577 730.262 333.543 719.518C330.509 708.775 324.51 695.9 321.319 694.865C321.23 694.837 321.138 694.822 321.045 694.822C321 694.818 320.954 694.818 320.909 694.822L320.778 694.851L320.65 694.902L320.551 694.957C320.45 695.013 320.358 695.083 320.277 695.165L320.156 695.289L320.036 695.428L319.948 695.545C319.864 695.666 319.78 695.798 319.696 695.944C319.659 696.002 319.626 696.068 319.593 696.13C319.56 696.192 319.506 696.295 319.465 696.382C319.425 696.47 319.4 696.514 319.37 696.583C319.341 696.653 319.301 696.741 319.268 696.821C319.166 697.066 319.063 697.329 318.968 697.607C318.935 697.698 318.902 697.793 318.873 697.889C318.844 697.984 318.811 698.079 318.782 698.177C318.727 698.353 318.672 698.543 318.621 698.711C318.526 699.044 318.431 699.391 318.343 699.749C318.314 699.859 318.288 699.972 318.263 700.082C318.237 700.192 318.208 700.305 318.182 700.418C318.157 700.531 318.135 700.634 318.109 700.743L318.032 701.109C317.981 701.339 317.934 701.573 317.886 701.807C317.817 702.173 317.747 702.513 317.685 702.867C317.601 703.324 317.524 703.778 317.451 704.227C317.378 704.677 317.323 705.024 317.268 705.412C317.239 705.598 317.214 705.777 317.188 705.964C316.822 708.38 316.658 710.317 316.629 710.635C316.628 710.65 316.628 710.665 316.629 710.679C316.631 710.706 316.631 710.733 316.629 710.76C316.63 710.768 316.63 710.777 316.629 710.785C316.629 710.833 316.629 710.895 316.603 710.968C316.577 711.041 316.585 711.111 316.57 711.195C316.556 711.279 316.552 711.312 316.545 711.378C316.545 711.509 316.504 711.655 316.482 711.82C316.46 711.984 316.446 712.065 316.424 712.185C316.307 713.015 316.146 714.137 315.96 715.439L315.927 715.665C315.854 716.174 315.781 716.704 315.7 717.256C315.678 717.413 315.656 717.574 315.631 717.735L315.609 717.881C315.609 717.994 315.579 718.107 315.561 718.221L314.728 724.095C314.709 724.241 314.688 724.384 314.669 724.53C314.651 724.676 314.636 724.746 314.622 724.856L314.556 725.32C314.556 725.429 314.523 725.543 314.508 725.652C314.494 725.762 314.468 725.949 314.446 726.095L314.413 726.336C314.391 726.475 314.373 726.614 314.355 726.753C314.231 727.645 314.11 728.493 313.989 729.264L313.935 729.666C313.916 729.802 313.898 729.929 313.88 730.057C313.854 730.244 313.832 730.423 313.807 730.598C313.73 731.176 313.66 731.695 313.606 732.108C313.606 732.159 313.606 732.207 313.606 732.254C313.587 732.382 313.573 732.503 313.558 732.62C313.558 732.667 313.558 732.715 313.54 732.763C313.518 732.945 313.499 733.095 313.489 733.205C313.489 733.241 313.489 733.274 313.489 733.3C313.487 733.325 313.487 733.351 313.489 733.377C313.39 734.693 315.415 739.737 312.494 740.75C311.933 740.946 311.407 741.228 310.933 741.587L310.74 741.737C310.666 741.792 310.597 741.85 310.528 741.912C310.458 741.975 310.396 742.029 310.334 742.091C309.661 742.758 309.198 743.608 309.003 744.535C308.808 745.462 308.89 746.427 309.237 747.308C309.383 747.674 309.541 748.116 309.712 748.606C309.753 748.715 309.789 748.832 309.829 748.949C309.891 749.128 309.954 749.315 310.019 749.516C310.114 749.808 310.217 750.119 310.316 750.448C310.348 750.558 310.385 750.667 310.418 750.784C310.553 751.234 310.696 751.72 310.842 752.247V752.283C310.908 752.51 310.97 752.744 311.036 752.985C311.101 753.226 311.167 753.471 311.233 753.716C311.299 753.961 311.368 754.232 311.434 754.498C311.727 755.657 312.03 756.944 312.341 758.373C312.421 758.739 312.505 759.13 312.586 759.521C314.874 770.528 313.949 775.2 314.249 779.59C314.432 782.295 316.362 785.973 318.113 792.845C319.495 798.45 320.355 804.171 320.683 809.935C321.355 819.926 328.688 850.38 334.574 874.949C335.181 877.486 336.628 879.789 338.229 881.964C340.631 885.254 343.373 888.233 344.078 891.308C346.008 899.613 343.289 905.082 340.423 906.807C339.875 907.158 339.245 907.36 338.595 907.392C294.611 908.576 271.051 922.182 257.672 929.38C256.617 929.951 255.624 930.476 254.693 930.956C250.89 932.806 246.722 933.783 242.494 933.814C237.435 933.814 232.931 932.173 231.853 927.863C229.294 917.628 234.598 912.053 232.584 908.854C226.369 898.984 198.335 766.803 198.335 766.803L198.302 766.668V766.635L198.273 766.54C198.273 766.498 198.258 766.451 198.229 766.397C198.229 766.368 198.229 766.335 198.2 766.299L198.167 766.189L198.006 765.611C197.977 765.516 197.951 765.418 197.922 765.315C197.808 764.913 197.677 764.431 197.531 763.875C197.487 763.71 197.439 763.535 197.395 763.359C197.154 762.427 196.884 761.334 196.598 760.113C196.547 759.879 196.492 759.642 196.438 759.382C196.438 759.382 196.438 759.364 196.438 759.353C196.383 759.101 196.324 758.841 196.266 758.578C196.174 758.15 196.079 757.715 195.988 757.269C195.926 756.977 195.867 756.677 195.809 756.377C195.71 755.884 195.615 755.379 195.52 754.864C195.469 754.597 195.421 754.323 195.37 754.049C195.319 753.775 195.261 753.42 195.209 753.102C195.074 752.29 194.943 751.461 194.826 750.62C194.785 750.331 194.745 750.042 194.709 749.754C194.679 749.538 194.654 749.326 194.628 749.114C194.603 748.902 194.588 748.774 194.566 748.606L194.511 748.098L194.456 747.589C194.456 747.414 194.42 747.224 194.405 747.063C194.391 746.902 194.372 746.738 194.361 746.573C194.325 746.182 194.295 745.795 194.266 745.403C194.266 745.166 194.233 744.928 194.222 744.672C194.211 744.416 194.197 744.237 194.186 744.022C193.981 739.799 194.259 735.749 195.425 732.66C196.737 729.169 197.644 725.538 198.126 721.84C198.551 718.866 198.673 715.857 198.492 712.858C198.462 712.418 198.49 711.975 198.576 711.542L224.015 584.416C226.091 572.832 227.594 562.585 229.864 553.794C239.164 517.71 249.673 512.592 258.538 505.647C267.787 498.409 396.55 450.082 406.223 446.427C413.45 443.685 459.053 441.283 500.609 441.283ZM500.609 437.993C480.569 437.993 458.61 438.556 440.358 439.539C426.92 440.271 409.886 441.513 405.049 443.352L401.463 444.705C390.215 448.949 355.988 461.864 323.918 474.402C262.369 498.467 257.953 501.921 256.502 503.055C255.771 503.64 255 504.21 254.199 504.813C249.948 508.012 245.126 511.634 240.337 518.788C235.015 526.732 230.533 537.918 226.64 552.986C224.903 559.694 223.595 567.312 222.209 575.376C221.741 578.103 221.259 580.925 220.747 583.821L195.297 710.91C195.156 711.632 195.109 712.369 195.158 713.103V713.129C195.33 715.898 195.221 718.679 194.833 721.427C194.385 724.878 193.54 728.266 192.314 731.523C191.101 734.737 190.614 739.003 190.852 744.208C190.852 744.435 190.874 744.658 190.888 744.884L190.921 745.389V745.612V745.656C190.954 746.054 190.984 746.449 191.02 746.847C191.02 746.979 191.042 747.107 191.053 747.239V747.363C191.053 747.553 191.086 747.728 191.108 747.937L191.163 748.459L191.217 748.949V748.968V749.037C191.217 749.117 191.217 749.194 191.243 749.275L191.276 749.516C191.302 749.739 191.327 749.962 191.36 750.185C191.397 750.485 191.437 750.781 191.477 751.077C191.587 751.845 191.711 752.66 191.875 753.636C191.93 753.968 191.985 754.297 192.044 754.619C192.044 754.619 192.044 754.641 192.044 754.652L192.106 754.981C192.135 755.145 192.164 755.314 192.197 755.478C192.292 756.005 192.391 756.52 192.49 757.021C192.552 757.324 192.61 757.642 192.676 757.949C192.742 758.256 192.819 758.618 192.888 758.947L192.958 759.265V759.291L193.012 759.529C193.053 759.708 193.089 759.894 193.129 760.051C193.129 760.077 193.129 760.102 193.129 760.128V760.146L193.181 760.384C193.213 760.526 193.246 760.665 193.276 760.801V760.848C193.546 762.007 193.817 763.118 194.087 764.138C194.127 764.303 194.171 764.467 194.211 764.624L194.23 764.694C194.369 765.217 194.507 765.721 194.635 766.178L194.661 766.273C194.683 766.346 194.701 766.419 194.723 766.492C194.767 766.657 194.811 766.803 194.844 766.931L194.873 767.033C194.892 767.109 194.916 767.183 194.943 767.256C194.951 767.295 194.962 767.333 194.975 767.37L195.008 767.49V767.52C195.312 768.942 202.235 801.516 209.802 834.844C225.298 903.06 228.566 908.814 229.641 910.514C229.71 911.004 229.33 912.462 229.052 913.533C228.182 916.878 226.859 921.941 228.544 928.631C229.886 933.997 234.927 937.075 242.377 937.075C247.128 937.049 251.812 935.948 256.078 933.855C256.959 933.401 257.906 932.89 259.119 932.246L260.655 931.416C274.25 924.069 297.002 911.771 338.566 910.653C339.786 910.603 340.973 910.236 342.009 909.589C346.191 907.078 349.412 900.205 347.167 890.533C346.436 887.414 344.316 884.651 342.261 881.975C341.761 881.328 341.245 880.655 340.759 879.99C339.505 878.279 338.156 876.25 337.655 874.141L337.29 872.591C331.587 848.794 324.495 819.176 323.852 809.672C323.497 803.754 322.601 797.88 321.176 792.125C321.176 792.1 321.176 792.074 321.158 792.052C320.295 788.667 319.4 786.046 318.679 783.944C317.996 781.952 317.455 780.376 317.389 779.385C317.316 778.311 317.323 777.174 317.334 775.858C317.363 772.202 317.4 767.22 315.664 758.87C315.598 758.545 315.525 758.216 315.459 757.898L315.415 757.697C315.112 756.304 314.797 754.966 314.483 753.712C314.439 753.537 314.388 753.347 314.34 753.161L314.278 752.916C314.205 752.634 314.132 752.371 314.062 752.119L314.022 751.969C313.967 751.768 313.916 751.57 313.858 751.377V751.344C313.722 750.865 313.58 750.379 313.434 749.881C313.408 749.79 313.379 749.699 313.353 749.611L313.324 749.52C313.229 749.209 313.134 748.909 313.043 748.628L313.006 748.518V748.492L312.958 748.35C312.904 748.189 312.852 748.035 312.801 747.889L312.772 747.801C312.743 747.706 312.71 747.611 312.677 747.516C312.487 746.979 312.311 746.526 312.169 746.135C312.057 745.856 312.029 745.551 312.087 745.257C312.144 744.962 312.286 744.691 312.494 744.475L312.531 744.438L312.582 744.391H312.604L312.703 744.314L312.732 744.292L312.783 744.252C312.982 744.096 313.204 743.973 313.441 743.886C315.656 743.115 317.034 741.185 317.221 738.586C317.267 737.164 317.128 735.742 316.808 734.356C316.753 734.082 316.683 733.72 316.654 733.523C316.654 733.442 316.676 733.344 316.691 733.223V733.179C316.691 733.179 316.691 733.15 316.691 733.135C316.691 733.121 316.691 733.099 316.691 733.081L316.709 732.949C316.709 732.887 316.709 732.821 316.735 732.752C316.76 732.682 316.735 732.667 316.735 732.624V732.605C316.735 732.605 316.735 732.58 316.735 732.565C316.768 732.313 316.808 732.024 316.852 731.71L316.932 731.088C316.95 730.971 316.965 730.851 316.983 730.723L317.009 730.533L317.064 730.134L317.118 729.732C317.181 729.279 317.246 728.796 317.32 728.292L317.466 727.232V727.206C317.466 727.096 317.495 726.987 317.513 726.877V726.804L317.543 726.581C317.543 726.501 317.568 726.416 317.579 726.332L317.601 726.157C317.603 726.141 317.603 726.125 317.601 726.109L317.619 725.989C317.619 725.923 317.638 725.861 317.649 725.795L317.681 725.554L317.711 725.345C317.711 725.276 317.729 725.21 317.74 725.144L317.762 724.994L317.784 724.823L317.817 724.589L318.252 721.511L318.643 718.765L318.698 718.4V718.308C318.723 718.162 318.745 718.001 318.767 717.844V717.782C318.811 717.479 318.859 717.161 318.902 716.854L318.994 716.203V716.1V715.973C319.177 714.686 319.337 713.575 319.454 712.745C319.454 712.639 319.487 712.54 319.502 712.445V712.368C319.502 712.35 319.502 712.328 319.502 712.31C319.502 712.218 319.527 712.134 319.538 712.054L319.56 711.886C319.562 711.867 319.562 711.849 319.56 711.831V711.747C319.56 711.681 319.579 711.619 319.586 711.56V711.52C319.586 711.48 319.586 711.44 319.604 711.399C319.623 711.359 319.604 711.308 319.623 711.261C319.641 711.213 319.623 711.187 319.623 711.151C319.623 711.114 319.623 711.056 319.623 711.012V710.986C319.655 710.639 319.831 708.793 320.164 706.483C320.189 706.307 320.211 706.143 320.237 705.971C320.237 705.971 320.237 705.942 320.237 705.923C320.284 705.587 320.343 705.214 320.408 704.827C320.489 704.322 320.562 703.909 320.631 703.525V703.496C320.686 703.167 320.752 702.834 320.818 702.509C320.858 702.308 320.902 702.096 320.95 701.884V701.833C320.95 701.73 320.99 701.632 321.012 701.533C321.034 701.434 321.037 701.416 321.048 701.361C321.059 701.306 321.066 701.292 321.074 701.255V701.208C321.074 701.135 321.107 701.065 321.125 700.992L321.147 700.893V700.839C321.147 700.78 321.173 700.722 321.191 700.663C321.209 700.605 321.191 700.619 321.191 700.597C321.238 700.4 321.293 700.191 321.359 699.961C322.556 701.826 323.619 703.773 324.539 705.788C326.753 710.528 328.586 715.435 330.023 720.465C330.293 721.427 330.618 722.538 330.995 723.825C334.651 736.316 343.223 765.56 337.809 784.818V784.851L337.776 784.978C337.732 785.139 337.688 785.3 337.648 785.461C334.42 798.358 339.216 828.173 343.453 854.478C345.917 869.787 348.242 884.249 348.472 892.415C348.425 893.574 348.066 902.775 348.337 912.689C348.878 932.557 351.345 938.062 353.155 940.471C355.389 943.45 356.942 949.61 358.309 955.049C359.124 958.281 359.892 961.33 360.788 963.702C361.358 965.205 362.871 969.208 366.436 969.551C372.383 970.129 379.23 970.648 386.834 971.068C402.472 971.953 418.915 972.421 434.385 972.421C457.583 972.421 487.391 971.394 497.586 966.491C512.658 959.253 522.078 940.563 527.295 926.16C527.394 925.846 527.593 925.574 527.862 925.386C528.131 925.197 528.454 925.101 528.782 925.114C529.121 925.104 529.454 925.206 529.729 925.404C530.004 925.603 530.206 925.886 530.303 926.211C533.103 934.396 536.174 941.378 539.442 946.956C544.004 954.764 548.947 959.794 554.181 961.907C562.256 965.197 578.542 965.669 587.531 965.669C601.894 965.669 617.203 964.474 629.537 962.379C644.59 959.82 654.208 956.212 658.123 951.617C662.144 946.905 664.078 941.886 664.228 935.825C664.356 930.63 663.131 925.224 661.819 919.47C660.638 914.265 659.414 908.869 658.895 902.768C658.12 893.6 657.03 876.287 655.751 852.687C655.725 852.477 655.744 852.264 655.807 852.062C655.87 851.861 655.976 851.675 656.116 851.517C656.29 851.349 656.495 851.217 656.719 851.128C656.944 851.04 657.184 850.997 657.425 851.001H657.517C657.854 851.003 658.18 851.125 658.435 851.345C658.691 851.566 658.859 851.871 658.909 852.204V852.252V852.31C658.909 852.332 658.909 852.343 658.909 852.365C660.371 858.674 662.199 862.67 664.714 865.159C664.714 865.375 664.714 865.642 664.714 865.865C664.696 867.601 664.663 870.511 666.842 873.158C667.597 874.074 668.547 874.811 669.621 875.317C670.696 875.822 671.869 876.084 673.056 876.082C673.98 876.081 674.897 875.926 675.769 875.622C680.419 874.002 689.111 870.504 695.103 865.437C695.417 865.167 696.795 864.213 701.288 863.174C708.903 861.409 721.913 860.25 734.437 860.25C746.24 860.25 752.287 861.255 753.511 861.939C755.142 863.221 757.155 863.92 759.229 863.924C762.625 863.924 766.134 862.03 768.174 859.099C769.636 857.008 770.045 854.686 769.322 852.731C768.678 851.063 767.917 849.443 767.044 847.883C766.502 846.937 766.033 845.951 765.641 844.933C764.767 842.374 759.035 824.462 757.964 820.554C756.959 816.855 736.031 749.476 729.622 728.884C729.62 728.868 729.62 728.852 729.622 728.836L729.6 728.745C729.553 728.565 729.542 728.377 729.568 728.193C729.732 726.94 729.783 725.675 729.717 724.413C729.62 722.367 729.227 720.345 728.551 718.411C727.817 716.303 726.944 714.247 725.938 712.255C725.372 711.144 724.868 710.003 724.428 708.837C723.203 705.547 721.657 698.038 721.043 692.387C720.458 687.01 702.765 582.143 697.369 550.131L697.238 549.36C697.239 549.346 697.239 549.333 697.238 549.319C697.24 549.301 697.24 549.283 697.238 549.265C696.167 540.693 694.54 532.2 692.365 523.84C687.883 506.835 681.998 495.437 674.869 489.964C674.701 489.836 674.526 489.712 674.336 489.599C671.985 488.067 659.03 480.123 633.719 473.39C633.66 473.39 633.613 473.357 633.569 473.342L633.521 473.32C617.952 467.007 591.373 456.307 588.313 455.569C587.948 455.478 587.553 455.397 587.187 455.32C584.234 454.692 580.556 453.913 573.954 445.619C572.126 443.33 567.71 440.998 547.868 439.441C535.757 438.49 519.304 437.979 500.284 437.979L500.609 437.993Z" fill="#17091D"/>
<path d="M557.033 420.972C551.259 418.004 545.094 415.866 538.722 414.623C520.865 411.073 469.906 404.588 439.123 417.73C402.29 433.449 472.754 478.712 526.97 473.992C581.185 469.273 579.284 448.159 576.766 440.394C574.814 434.41 569.732 427.567 557.033 420.972Z" fill="#5C2C66" stroke="#17091D" stroke-width="3.29" stroke-miterlimit="10"/>
<path d="M587.717 751.086C587.72 753.384 586.927 755.613 585.471 757.392C584.016 759.171 581.988 760.39 579.735 760.842C577.481 761.294 575.141 760.95 573.112 759.87C571.083 758.79 569.492 757.04 568.608 754.918C567.725 752.796 567.605 750.433 568.268 748.233C568.931 746.032 570.337 744.129 572.246 742.849C574.154 741.568 576.448 740.989 578.736 741.21C581.024 741.431 583.164 742.438 584.793 744.06C586.659 745.922 587.711 748.449 587.717 751.086ZM586.017 751.349C586.017 749.566 585.399 747.838 584.268 746.46C583.137 745.082 581.563 744.138 579.815 743.791C578.066 743.443 576.251 743.712 574.678 744.553C573.106 745.393 571.874 746.753 571.192 748.4C570.51 750.048 570.42 751.88 570.938 753.586C571.455 755.293 572.549 756.766 574.031 757.757C575.514 758.747 577.294 759.192 579.068 759.017C580.843 758.842 582.501 758.057 583.762 756.796C585.206 755.351 586.017 753.392 586.017 751.349Z" fill="#17091D"/>
<path d="M578.312 759.056C579.836 759.056 581.326 758.604 582.593 757.758C583.86 756.911 584.848 755.707 585.431 754.299C586.014 752.891 586.167 751.342 585.869 749.847C585.572 748.352 584.838 746.979 583.76 745.902C582.683 744.824 581.31 744.09 579.815 743.793C578.32 743.495 576.771 743.648 575.363 744.231C573.955 744.814 572.751 745.802 571.904 747.069C571.058 748.337 570.606 749.826 570.606 751.35C570.606 753.394 571.418 755.354 572.863 756.799C574.308 758.245 576.268 759.056 578.312 759.056Z" fill="#9C398C"/>
<path d="M578.457 834.857C581.382 836.641 584.248 838.929 583.444 842.475C582.552 846.372 578.691 852.261 573.939 851.413C572.79 851.238 571.701 850.783 570.769 850.088C569.837 849.393 569.09 848.48 568.595 847.428C567.253 844.752 567.275 839.342 569.498 837.057C571.088 835.402 576.249 833.519 578.457 834.857ZM578.516 836.845C577.793 836.47 576.999 836.253 576.187 836.207C575.374 836.161 574.56 836.287 573.8 836.579C572.159 837.199 570.803 838.401 569.991 839.956C569.579 840.735 569.307 841.58 569.187 842.453C569.071 843.307 569.117 844.175 569.322 845.012C569.518 845.814 569.875 846.568 570.371 847.227C570.855 847.866 571.471 848.392 572.177 848.77C572.9 849.144 573.694 849.361 574.506 849.407C575.319 849.453 576.132 849.327 576.893 849.037C578.533 848.415 579.888 847.211 580.698 845.655C581.113 844.878 581.387 844.032 581.506 843.159C581.623 842.305 581.577 841.437 581.371 840.6C581.177 839.797 580.82 839.043 580.322 838.384C579.84 837.743 579.224 837.215 578.516 836.838V836.845Z" fill="#17091D"/>
<path d="M580.699 845.648C582.45 842.358 581.471 838.418 578.506 836.846C575.541 835.274 571.736 836.667 569.985 839.957C568.234 843.247 569.213 847.191 572.178 848.763C575.143 850.335 578.948 848.942 580.699 845.648Z" fill="#9C398C"/>
<path d="M607.954 828.815C607.004 828.845 606.054 828.742 605.132 828.508C602.207 827.638 600.826 823.412 600.625 814.804C600.486 808.717 600.99 801.856 601.443 797.169C601.583 795.731 602.197 794.381 603.191 793.332C604.184 792.283 605.499 791.596 606.927 791.379C608.784 791.086 611.149 790.757 613.872 790.374C623.775 788.988 638.73 786.897 644.374 784.525C644.837 784.33 645.334 784.23 645.837 784.229C646.752 784.228 647.636 784.562 648.322 785.168C649.008 785.774 649.449 786.61 649.562 787.519C650.658 796.559 652.351 812.596 651.09 818.412C650.916 819.194 650.525 819.911 649.963 820.482C649.401 821.053 648.689 821.454 647.909 821.64C640.796 823.314 616.859 828.815 607.954 828.815Z" fill="#7E4282"/>
<path d="M645.848 785.881C646.359 785.878 646.854 786.062 647.24 786.399C647.626 786.735 647.875 787.201 647.942 787.708C648.856 795.158 650.742 812.296 649.492 818.049C649.386 818.529 649.147 818.969 648.801 819.318C648.456 819.668 648.019 819.912 647.54 820.023C641.691 821.405 616.833 827.152 607.954 827.152C607.163 827.178 606.373 827.098 605.604 826.914C600.891 825.507 602.27 805.741 603.081 797.304C603.185 796.232 603.642 795.225 604.382 794.442C605.121 793.659 606.1 793.144 607.164 792.98C616.062 791.594 637.652 789.116 645.01 786.034C645.276 785.924 645.56 785.867 645.848 785.866M645.848 782.576C645.123 782.576 644.406 782.72 643.738 783C638.299 785.281 623.465 787.357 613.646 788.732C610.9 789.097 608.528 789.463 606.656 789.737C604.87 790.014 603.227 790.878 601.986 792.193C600.746 793.507 599.979 795.198 599.806 796.997C599.353 801.727 598.841 808.662 598.983 814.825C599.067 818.51 599.371 821.405 599.908 823.646C600.226 824.98 601.191 829.034 604.66 830.069C605.734 830.349 606.842 830.472 607.95 830.434C617.038 830.434 641.128 824.911 648.293 823.218C649.374 822.961 650.361 822.404 651.14 821.612C651.92 820.82 652.461 819.825 652.702 818.74C653.952 812.99 652.574 798.467 651.203 787.303C651.04 785.996 650.405 784.795 649.418 783.924C648.431 783.052 647.16 782.572 645.844 782.572L645.848 782.576Z" fill="#17091D"/>
<path d="M600.881 600.872C600.881 600.872 634.337 598.569 645.757 598.441" stroke="#17091D" stroke-width="2.55889" stroke-linecap="round" stroke-linejoin="round"/>
<path d="M595.398 616.227L655.791 612.951" stroke="#17091D" stroke-width="2.55889" stroke-linecap="round" stroke-linejoin="round"/>
<path d="M387.374 967.751C379.939 967.331 373.063 966.823 367.108 966.245C362.721 965.817 361.624 945.774 356.141 938.463C350.402 930.808 352.12 892.403 352.12 892.403C351.542 870.258 336.266 805.909 341.197 786.205C341.241 786.026 341.292 785.84 341.34 785.672C347.554 763.563 336.587 730.279 333.553 719.535C330.519 708.792 324.52 695.917 321.329 694.882C321.197 694.839 321.057 694.828 320.92 694.849C320.875 694.854 320.831 694.864 320.788 694.879C320.744 694.892 320.701 694.91 320.66 694.93C320.625 694.944 320.592 694.962 320.561 694.985C320.461 695.041 320.369 695.111 320.287 695.193C320.243 695.231 320.203 695.272 320.167 695.317C320.124 695.361 320.083 695.407 320.046 695.456L319.958 695.573C319.866 695.701 319.782 695.834 319.706 695.972C319.668 696.031 319.633 696.094 319.604 696.158C319.56 696.238 319.516 696.323 319.476 696.41C319.436 696.498 319.41 696.542 319.381 696.611C319.351 696.681 319.311 696.769 319.278 696.849C319.176 697.094 319.074 697.357 318.979 697.635C318.946 697.726 318.913 697.821 318.884 697.916C318.854 698.011 318.821 698.106 318.792 698.205C318.734 698.381 318.683 698.571 318.631 698.739C318.536 699.072 318.441 699.419 318.354 699.777C318.324 699.887 318.299 700 318.273 700.11C318.247 700.219 318.218 700.333 318.193 700.446C318.167 700.559 318.145 700.662 318.12 700.771L318.043 701.137C317.992 701.367 317.944 701.601 317.897 701.835C317.827 702.201 317.758 702.541 317.695 702.895C317.611 703.352 317.535 703.805 317.462 704.255C317.388 704.705 317.334 705.052 317.279 705.44C317.25 705.626 317.22 705.805 317.198 705.992C316.833 708.408 316.668 710.345 316.639 710.663C316.638 710.678 316.638 710.693 316.639 710.707C316.641 710.734 316.641 710.761 316.639 710.788C316.641 710.796 316.641 710.805 316.639 710.813C316.639 710.861 316.639 710.923 316.613 710.996C316.588 711.069 316.595 711.139 316.581 711.223C316.566 711.307 316.562 711.34 316.555 711.405C316.555 711.537 316.515 711.683 316.493 711.848C316.471 712.012 316.456 712.093 316.434 712.213C316.317 713.043 316.157 714.165 315.97 715.467L315.937 715.693C315.864 716.201 315.791 716.732 315.711 717.284C315.689 717.441 315.667 717.602 315.641 717.762L315.619 717.909C315.619 718.022 315.59 718.135 315.572 718.249L314.738 724.123C314.72 724.269 314.698 724.412 314.68 724.558C314.661 724.704 314.647 724.774 314.632 724.883L314.566 725.348C314.566 725.457 314.533 725.571 314.519 725.68C314.504 725.79 314.479 725.976 314.457 726.123L314.424 726.364C314.402 726.503 314.384 726.642 314.365 726.781C314.241 727.673 314.12 728.521 314 729.292L313.945 729.694C313.927 729.829 313.908 729.957 313.89 730.085C313.864 730.272 313.843 730.451 313.817 730.626C313.74 731.204 313.671 731.723 313.616 732.136C313.616 732.187 313.616 732.235 313.616 732.282C313.598 732.41 313.583 732.531 313.568 732.648C313.568 732.695 313.568 732.743 313.55 732.79C313.528 732.973 313.51 733.123 313.499 733.233C313.499 733.269 313.499 733.302 313.499 733.328C313.497 733.353 313.497 733.379 313.499 733.405C313.4 734.721 315.425 739.765 312.505 740.778C311.944 740.974 311.417 741.256 310.944 741.615L310.75 741.765C310.677 741.82 310.607 741.878 310.538 741.94C310.468 742.002 310.406 742.057 310.344 742.119C309.454 742.967 308.74 743.982 308.242 745.106C308.63 745.823 308.964 746.569 309.24 747.336C309.386 747.701 309.544 748.144 309.715 748.634C309.756 748.743 309.792 748.86 309.832 748.977C309.895 749.156 309.957 749.343 310.022 749.544C310.118 749.836 310.22 750.147 310.319 750.476C310.351 750.586 310.388 750.695 310.421 750.812C310.56 751.262 310.702 751.748 310.845 752.275V752.311C310.911 752.538 310.973 752.772 311.039 753.013C311.105 753.254 311.17 753.499 311.236 753.744C311.302 753.989 311.371 754.259 311.437 754.526C311.73 755.685 312.033 756.972 312.344 758.401C312.424 758.767 312.508 759.158 312.589 759.549C314.877 770.556 313.952 775.228 314.252 779.618C314.435 782.323 316.365 786.001 318.116 792.873C313.974 784.144 299.9 754.596 297.202 750.553C294.029 745.801 292.267 738.902 293.88 737.601C295.492 736.3 263.82 722.851 265.582 719.521C265.82 719.071 266.602 718.888 267.775 718.888C275.39 718.888 299.626 726.613 302.532 721.524C305.895 715.642 312.11 657.519 311.744 644.724C311.518 636.81 313.042 618.108 314.234 604.999C314.271 604.782 314.385 604.585 314.555 604.444C314.725 604.303 314.939 604.227 315.16 604.231C315.381 604.234 315.593 604.317 315.758 604.463C315.924 604.609 316.031 604.81 316.061 605.029C316.975 620.221 319.578 642.016 326.973 639.972C338.232 636.865 347.656 617.004 355.373 619.073C363.09 621.142 341.665 628.527 345.979 655.91C350.292 683.294 371.67 749.573 367.546 773.458C363.423 797.344 362.26 822.161 370.16 842.106C378.06 862.051 377.727 882.811 377.347 902.057C377.171 911.474 382.721 944.378 387.374 967.751Z" fill="#9C398C"/>
<path d="M367.109 782.178C381.387 785.124 428.639 794.606 446.526 794.687C447.814 794.696 449.05 795.197 449.981 796.088C450.911 796.979 451.466 798.193 451.53 799.479C452.038 809.598 451.951 831.166 441.872 830.376C428.712 829.345 365.193 820.228 362.96 817.658C361.234 815.666 359.571 796.178 360.934 786.546C361.032 785.844 361.272 785.169 361.64 784.563C362.008 783.957 362.497 783.434 363.075 783.024C363.654 782.615 364.31 782.328 365.004 782.183C365.698 782.037 366.414 782.035 367.109 782.178Z" fill="#7E4282" stroke="#17091D" stroke-width="3.29" stroke-miterlimit="10"/>
<path d="M536.91 724.064C536.91 724.064 525.369 889.489 528.867 923.292" stroke="#17091D" stroke-width="2.55889" stroke-linecap="round" stroke-linejoin="round"/>
<path d="M229.832 553.807C225.658 600.813 216.818 693.657 211.149 704.591C207.42 711.789 202.331 717.696 198.109 721.853C198.873 716.154 198.402 712.246 198.402 712.246L223.991 584.429C226.056 572.845 228.001 562.701 229.832 553.807Z" fill="#9C398C"/>
<path d="M257.673 929.378C256.618 929.948 255.624 930.474 254.694 930.954C247.419 934.682 233.835 935.79 231.854 927.861C229.295 917.626 234.599 912.051 232.585 908.852C226.37 898.982 198.336 766.801 198.336 766.801L198.303 766.666V766.633C198.303 766.611 198.303 766.578 198.274 766.538C198.274 766.496 198.259 766.449 198.23 766.395C198.23 766.366 198.23 766.333 198.201 766.296C198.192 766.259 198.181 766.223 198.168 766.187L198.007 765.609C197.978 765.514 197.952 765.415 197.923 765.313C197.809 764.911 197.678 764.428 197.532 763.873L197.396 763.357C197.155 762.425 196.885 761.332 196.599 760.111C196.548 759.877 196.493 759.64 196.439 759.38C196.439 759.38 196.439 759.362 196.439 759.351C196.384 759.099 196.325 758.839 196.267 758.576C196.175 758.148 196.08 757.713 195.989 757.267C195.93 756.975 195.868 756.675 195.81 756.375C195.711 755.882 195.616 755.377 195.521 754.862C195.47 754.595 195.422 754.321 195.371 754.047C195.32 753.773 195.262 753.418 195.21 753.1C195.075 752.288 194.943 751.459 194.826 750.618C194.786 750.329 194.746 750.04 194.71 749.751C194.68 749.536 194.655 749.324 194.629 749.112C194.604 748.9 194.589 748.772 194.567 748.604L194.512 748.095L194.457 747.587C194.457 747.412 194.421 747.222 194.406 747.061C194.391 746.9 194.373 746.736 194.362 746.571C194.326 746.18 194.296 745.792 194.267 745.401C194.267 745.164 194.234 744.926 194.223 744.67C194.212 744.414 194.198 744.235 194.187 744.02C201.958 744.751 214.398 746.714 215.257 751.835C216.318 758.262 249.689 885.877 257.673 929.378Z" fill="#9C398C"/>
<path d="M242.454 721.904C229.166 722.562 215.908 725.837 202.835 728.425C202.719 728.448 202.6 728.444 202.485 728.415C202.37 728.386 202.263 728.332 202.172 728.257C202.08 728.182 202.006 728.088 201.956 727.981C201.905 727.874 201.878 727.758 201.878 727.639C201.922 716.771 231.093 717.48 242.619 720.328C242.801 720.38 242.958 720.494 243.064 720.651C243.17 720.808 243.218 720.997 243.198 721.185C243.178 721.373 243.093 721.548 242.957 721.68C242.821 721.811 242.643 721.89 242.454 721.904Z" fill="#5C2C66"/>
<path d="M214.157 735.773C223.164 731.101 241.442 731.514 252.836 731.752C253.047 731.763 253.247 731.854 253.394 732.006C253.54 732.159 253.624 732.362 253.626 732.573C253.629 732.785 253.551 732.99 253.409 733.146C253.266 733.303 253.069 733.399 252.858 733.415C250.763 733.532 247.846 733.006 246.742 733.488C246.653 733.528 246.558 733.554 246.461 733.565C235.754 734.388 225.518 737.246 214.551 737.363C214.359 737.37 214.171 737.311 214.017 737.195C213.864 737.08 213.755 736.915 213.709 736.728C213.662 736.542 213.682 736.345 213.763 736.171C213.845 735.997 213.984 735.857 214.157 735.773Z" fill="#5C2C66"/>
<path d="M290.225 725.672C301.426 729.072 301.162 733.181 289.179 728.915C289.143 728.904 289.107 728.889 289.073 728.871C282.493 725.548 275.475 723.592 268.727 720.883C268.525 720.791 268.361 720.631 268.264 720.432C268.167 720.232 268.142 720.005 268.194 719.789C268.246 719.573 268.371 719.382 268.548 719.248C268.725 719.114 268.943 719.046 269.165 719.056C275.23 719.615 285.528 724.407 290.225 725.672Z" fill="#5C2C66"/>
<path d="M232.036 909.766C232.036 909.766 263.474 884.177 338.778 880.521" stroke="#17091D" stroke-width="3.29" stroke-linecap="round" stroke-linejoin="round"/>
<path d="M297.965 518.545C298.447 518.848 298.831 519.134 299.244 519.441C299.657 519.748 300.041 520.058 300.425 520.38L301.562 521.36L302.658 522.383C304.085 523.766 305.437 525.223 306.709 526.748C309.235 529.796 311.523 533.033 313.552 536.432C317.531 543.25 320.78 550.47 323.243 557.97C325.707 565.45 327.606 573.104 328.924 580.869C330.28 588.609 331.198 596.42 331.673 604.264C332.74 619.947 332.279 635.68 330.974 651.304C329.669 666.928 327.443 682.471 324.647 697.89C324.582 698.245 324.449 698.583 324.254 698.885C324.059 699.188 323.806 699.449 323.51 699.654C323.214 699.859 322.881 700.004 322.529 700.08C322.177 700.156 321.813 700.163 321.459 700.098C321.105 700.034 320.767 699.9 320.464 699.705C320.161 699.51 319.9 699.258 319.695 698.962C319.49 698.666 319.345 698.332 319.269 697.98C319.193 697.628 319.187 697.265 319.251 696.911V696.874V696.845C322.311 681.634 324.8 666.303 326.394 650.88C327.988 635.457 328.734 619.936 327.977 604.454C327.659 596.724 326.903 589.018 325.714 581.373C324.569 573.731 322.852 566.185 320.578 558.8C318.306 551.434 315.265 544.327 311.505 537.598C309.597 534.27 307.438 531.092 305.046 528.093C303.85 526.6 302.577 525.171 301.229 523.813L300.213 522.826L299.156 521.872C298.791 521.565 298.425 521.265 298.06 520.969C297.694 520.673 297.299 520.391 296.963 520.168L296.93 520.146C296.729 520.006 296.59 519.794 296.542 519.554C296.494 519.314 296.541 519.065 296.673 518.858C296.805 518.652 297.012 518.505 297.25 518.448C297.488 518.391 297.739 518.428 297.95 518.552L297.965 518.545Z" fill="#17091D"/>
<path d="M726.783 729.552C713.52 729.391 687.303 731.347 680.88 748.597C674.183 766.546 692.212 831.056 700.931 859.96C697.407 860.775 694.716 861.762 693.356 862.921C687.683 867.739 679.151 871.084 675.079 872.506C674.152 872.837 673.147 872.877 672.197 872.621C671.247 872.365 670.398 871.825 669.763 871.073C667.267 868.039 669.233 864.467 667.775 863.17C665.947 861.539 664.119 858.589 662.493 851.603C662.493 851.534 662.46 851.465 662.441 851.391C662.223 850.368 661.668 849.448 660.863 848.779C660.059 848.11 659.053 847.731 658.007 847.703L654.048 829.242C654.048 829.242 651.036 796.087 650.455 788.406C649.874 780.726 649.592 746.696 649.914 743.607C650.235 740.518 650.502 724.123 651.833 712.762C653.164 701.4 659.627 671.001 659.627 671.001L667.596 643.61L672.403 613.038L673.719 606.561C673.719 606.561 677.034 648.088 674.596 680.768C672.158 713.449 672.202 722.807 680.401 725.267C686.488 727.095 713.338 725.509 726.794 724.577C726.848 725.638 726.807 726.703 726.669 727.757C726.593 728.357 726.631 728.966 726.783 729.552Z" fill="#9C398C"/>
<path d="M650.414 736.629C654.435 734.07 658.456 731.595 662.536 729.124C666.615 726.653 670.673 724.226 674.774 721.813C678.876 719.401 683.021 717.083 687.203 714.82L690.369 713.153C691.429 712.601 692.507 712.082 693.575 711.545L694.379 711.146L695.202 710.781L696.843 710.05C697.117 709.929 697.384 709.794 697.669 709.684L698.521 709.344L700.224 708.675C700.519 708.567 700.844 708.575 701.133 708.699C701.421 708.823 701.651 709.053 701.776 709.341C701.9 709.629 701.91 709.954 701.802 710.249C701.694 710.544 701.478 710.787 701.197 710.927L701.102 710.971L699.541 711.702L698.762 712.067C698.503 712.188 698.247 712.338 697.991 712.47L696.474 713.281L695.702 713.691L694.938 714.129C693.926 714.718 692.902 715.284 691.897 715.888L688.877 717.715C684.878 720.194 680.919 722.76 676.99 725.37C673.06 727.98 669.159 730.645 665.292 733.335C661.424 736.026 657.542 738.746 653.722 741.491C653.092 741.944 652.308 742.128 651.542 742.002C650.776 741.877 650.091 741.452 649.639 740.822C649.186 740.192 649.002 739.408 649.127 738.642C649.253 737.876 649.677 737.192 650.308 736.739L650.414 736.629Z" fill="#17091D"/>
<path d="M714.441 715.971C714.441 715.971 680.978 717.868 666.517 729.924" stroke="#17091D" stroke-width="3.65556" stroke-linecap="round" stroke-linejoin="round"/>
<path d="M673.521 732.371C683.172 725.75 686.217 728.521 675.4 735.215L675.298 735.269C668.597 738.325 662.679 742.58 656.351 746.17C656.151 746.286 655.916 746.326 655.69 746.283C655.463 746.239 655.26 746.115 655.118 745.932C654.976 745.75 654.905 745.523 654.918 745.292C654.931 745.062 655.027 744.844 655.188 744.679C659.422 740.299 669.599 735.247 673.521 732.371Z" fill="#5C2C66"/>
<path d="M666.517 863.554C666.517 863.554 699.026 825.01 762.91 846.007" stroke="#17091D" stroke-width="3.29" stroke-linecap="round" stroke-linejoin="round"/>
<path d="M672.713 505.323C673.481 512.521 674.048 519.723 674.512 526.939C674.976 534.155 675.345 541.378 675.568 548.605C675.791 555.832 675.897 563.066 675.883 570.301C675.868 577.535 675.726 584.777 675.407 592.011C674.735 606.473 673.51 620.952 670.97 635.275C669.739 642.46 668.08 649.566 666.002 656.554L662.679 666.862C662.182 668.577 661.644 670.284 661.176 672.009C660.708 673.735 660.241 675.464 659.813 677.204C656.351 691.095 654.234 705.352 652.915 719.652C652.262 726.807 651.802 733.98 651.537 741.169C651.271 748.358 651.138 755.547 651.138 762.737C651.204 777.115 651.845 791.494 653.061 805.872C654.3 820.228 655.825 834.59 657.353 848.935C657.392 849.274 657.295 849.615 657.083 849.883C656.87 850.15 656.561 850.323 656.221 850.362C655.882 850.401 655.541 850.304 655.273 850.092C655.006 849.88 654.833 849.57 654.794 849.231C653.887 842.061 653.027 834.888 652.213 827.71C651.401 820.531 650.619 813.351 649.914 806.143C648.55 791.718 647.856 777.242 647.687 762.755C647.622 755.512 647.713 748.268 647.962 741.023C648.21 733.777 648.678 726.542 649.365 719.316C650.707 704.873 652.849 690.466 656.377 676.338C656.815 674.572 657.305 672.821 657.766 671.059C658.226 669.297 658.793 667.564 659.301 665.813C659.55 664.939 659.853 664.077 660.131 663.21L661.016 660.641L662.679 655.523C664.753 648.682 666.419 641.724 667.669 634.686L668.151 632.043C668.305 631.159 668.436 630.27 668.579 629.386C668.849 627.613 669.156 625.847 669.383 624.063C669.61 622.279 669.884 620.51 670.114 618.726L670.739 613.374C671.503 606.228 672.052 599.052 672.468 591.869C672.885 584.685 673.152 577.484 673.276 570.283C673.401 563.081 673.408 555.872 673.302 548.664C673.112 534.253 672.534 519.825 671.474 505.451C671.469 505.291 671.525 505.135 671.632 505.015C671.738 504.895 671.886 504.82 672.046 504.805C672.205 504.791 672.365 504.838 672.491 504.937C672.617 505.036 672.7 505.179 672.724 505.338L672.713 505.323Z" fill="#17091D"/>
<path d="M430.964 491.273L437.643 553L557.768 693.455L567.578 652.728L599.914 518.546L590.104 451.637L550.636 465.091C550.636 465.091 534.602 472.364 507.217 473.909C479.833 475.455 430.964 491.273 430.964 491.273Z" fill="#FBDAFA"/>
<path d="M475.346 522.862C473.446 522.861 471.611 522.168 470.183 520.913C458.891 510.993 431.39 486.132 419.96 469.553C405.554 448.666 398.501 435.372 398.432 435.226L397.938 434.284L398.665 433.524C399.242 432.939 412.904 419.121 421.137 414.375C423.117 413.193 425.372 412.55 427.677 412.51C430.809 412.51 433.45 413.881 434.74 416.182C436.03 418.484 435.808 421.452 434.013 424.393C429.319 432.11 426.747 436.361 449.15 450.03C484.244 471.433 513.605 472.146 513.896 472.15L516.723 472.193L481.65 519.681C480.92 520.666 479.969 521.466 478.875 522.019C477.78 522.571 476.572 522.86 475.346 522.862Z" fill="#FBDAFA"/>
<path d="M427.695 413.964C432.781 413.964 436.128 418.16 432.781 423.637C427.695 432 425.151 437.091 448.405 451.273C484.295 473.16 513.885 473.604 513.885 473.604L480.48 518.815C479.955 519.525 479.289 520.119 478.523 520.558C477.757 520.997 476.909 521.273 476.031 521.367C475.153 521.462 474.266 521.373 473.424 521.106C472.583 520.839 471.806 520.401 471.142 519.818C459.668 509.746 432.469 485.131 421.155 468.727C406.621 447.669 399.718 434.546 399.718 434.546C399.718 434.546 413.724 420.338 421.881 415.637C423.639 414.579 425.644 414.003 427.695 413.964ZM427.695 411.055C425.134 411.094 422.628 411.805 420.428 413.117C412.024 417.957 398.228 431.909 397.647 432.502L396.15 434.018L397.142 435.902C397.429 436.444 404.303 449.422 418.76 470.378C430.282 487.106 457.888 512.051 469.22 522.015C470.185 522.863 471.316 523.502 472.541 523.891C473.766 524.279 475.058 524.409 476.335 524.272C477.613 524.136 478.848 523.735 479.963 523.096C481.078 522.457 482.048 521.594 482.812 520.56L516.217 475.349L519.582 470.793L513.925 470.709C513.855 470.709 506.56 470.553 495.068 467.8C484.476 465.255 468.043 459.88 449.912 448.822C439.739 442.64 434.111 437.851 432.661 434.226C431.619 431.618 432.661 429.469 435.259 425.182C437.305 421.822 437.577 418.295 436.008 415.502C434.438 412.709 431.346 411.055 427.695 411.055Z" fill="#17091D"/>
<path d="M561.7 510.139C559.814 510.139 558.793 507.699 556.348 501.805C552.38 492.255 545.742 476.277 534.824 473.463C534.304 473.337 533.833 473.058 533.474 472.66C533.115 472.263 532.884 471.767 532.812 471.236C532.739 470.705 532.828 470.165 533.067 469.686C533.306 469.207 533.684 468.811 534.152 468.55C537.934 466.426 543.38 464.492 548.645 462.619C554.905 460.394 561.362 458.092 564.897 455.55C566.031 454.728 567.117 454.034 568.167 453.368C573.13 450.186 576.124 448.277 574.493 439.55C574.224 438.125 574.947 435.834 576.099 434.459C577.051 433.31 578.042 433.066 578.707 433.066C580.302 433.066 581.65 434.365 582.704 436.917C590.334 455.288 575.801 483.994 567.964 499.412C565.954 503.376 564.363 506.51 563.854 508.103C563.331 509.783 562.39 510.139 561.7 510.139Z" fill="#FBDAFA"/>
<path d="M578.721 434.499C579.553 434.499 580.48 435.284 581.384 437.455C590.758 459.983 565.067 499.597 562.491 507.637C562.262 508.364 562.001 508.684 561.699 508.684C558.723 508.684 551.98 476.379 535.176 472.055C534.939 471.997 534.725 471.87 534.563 471.688C534.4 471.507 534.296 471.281 534.263 471.039C534.231 470.797 534.273 470.552 534.382 470.334C534.492 470.116 534.665 469.937 534.878 469.819C543.02 465.252 559.043 461.586 565.761 456.728C572.301 452.001 578.114 450.91 575.934 439.273C575.68 437.921 576.988 434.499 578.721 434.499ZM578.721 431.59C577.997 431.612 577.286 431.796 576.641 432.127C575.996 432.459 575.434 432.93 574.993 433.506C573.54 435.244 572.73 437.953 573.079 439.808C574.532 447.561 572.294 448.993 567.4 452.135C566.332 452.819 565.22 453.528 564.061 454.368C560.711 456.79 554.338 459.055 548.172 461.248C542.849 463.143 537.345 465.099 533.453 467.284C532.735 467.688 532.153 468.297 531.785 469.035C531.416 469.772 531.277 470.603 531.385 471.421C531.494 472.238 531.845 473.004 532.393 473.62C532.941 474.235 533.661 474.672 534.46 474.873C544.677 477.503 551.144 493.055 555.006 502.361C555.929 504.583 556.729 506.503 557.433 507.91C558.084 509.197 559.286 511.593 561.699 511.593C562.473 511.593 564.373 511.295 565.26 508.524C565.736 507.041 567.378 503.797 569.282 500.048C577.21 484.412 591.972 455.321 584.069 436.335C582.758 433.186 580.959 431.608 578.721 431.608V431.59Z" fill="#17091D"/>
<path d="M517.076 527.243C515.764 527.245 514.468 526.952 513.283 526.385C512.099 525.819 511.057 524.993 510.235 523.97L497.264 507.552C494.76 504.468 496.235 499.701 498.263 496.559L498.306 496.494L509.181 481.257C509.395 480.923 509.708 480.366 510.071 479.726C512.356 475.675 514.279 472.552 516.448 472.195L532.918 469.512L545.136 482.126C546.292 483.279 548.632 487.377 550.31 490.686C554.111 498.17 553.711 499.475 553.519 500.104V500.174L545.819 519.41C545.299 521.089 544.287 522.572 542.914 523.669C541.542 524.765 539.872 525.424 538.12 525.559L517.803 527.214C517.567 527.232 517.327 527.243 517.076 527.243Z" fill="#7E4282"/>
<path d="M532.336 471.272L543.963 483.272C545.78 485.09 552.527 497.767 551.956 499.636L544.257 518.872C543.838 520.25 543.014 521.47 541.893 522.373C540.772 523.276 539.406 523.822 537.972 523.938L517.658 525.581C517.461 525.581 517.269 525.607 517.076 525.607C516.008 525.606 514.954 525.367 513.99 524.907C513.026 524.447 512.176 523.778 511.503 522.949L498.546 506.545C496.588 504.13 497.95 500.065 499.636 497.454L510.536 482.181C511.626 480.476 514.711 474.145 516.713 473.818L532.336 471.272ZM533.495 467.767L531.809 468.043L516.186 470.589C513.279 471.061 511.234 474.345 508.647 478.927C508.324 479.501 508.015 480.047 507.826 480.349L496.977 495.552L496.929 495.614L496.89 495.679C494.571 499.272 492.947 504.807 495.992 508.589L508.938 524.978V524.996C509.917 526.212 511.157 527.193 512.565 527.865C513.974 528.537 515.516 528.884 517.076 528.879C517.356 528.879 517.64 528.879 517.919 528.843L538.233 527.199C540.298 527.04 542.269 526.266 543.892 524.978C545.515 523.69 546.716 521.947 547.342 519.97L554.972 500.854L555.026 500.723L555.066 500.589C555.455 499.316 555.226 497.894 554.227 495.349C553.5 493.465 552.472 491.374 551.753 489.952C551.39 489.225 548.12 482.85 546.281 480.981L534.654 468.981L533.466 467.756L533.495 467.767Z" fill="#17091D"/>
<path d="M513.886 525.887L504.905 636.545L544.508 675.818L561.585 684.181L572.892 627.047L542.837 523.545L513.886 525.887Z" fill="#7E4282" stroke="#17091D" stroke-width="3.29" stroke-miterlimit="10"/>
<path d="M553.19 696.539C552.638 696.54 552.091 696.429 551.583 696.212C551.075 695.996 550.616 695.68 550.233 695.281L400.02 539.598C399.627 539.193 399.322 538.712 399.121 538.185C398.921 537.657 398.83 537.095 398.854 536.531C398.878 535.967 399.017 535.415 399.262 534.907C399.506 534.398 399.852 533.946 400.278 533.576L417.613 518.514C417.736 518.404 417.827 518.262 417.874 518.104C417.922 517.945 417.923 517.776 417.879 517.617C417.835 517.457 417.748 517.313 417.626 517.201C417.504 517.089 417.354 517.014 417.191 516.983L390.998 512.219C390.069 512.047 389.226 511.564 388.608 510.849C387.989 510.134 387.632 509.23 387.594 508.285C387.198 496.808 386.242 458.423 390.679 446.365C394.312 436.525 402.4 428.859 406.905 425.168C407.641 424.557 408.568 424.224 409.525 424.227C410.475 424.22 411.398 424.543 412.138 425.139C412.878 425.735 413.39 426.569 413.587 427.499C417.947 448.005 427.052 465.288 435.067 480.536C435.837 482.01 436.593 483.453 437.334 484.867C444.238 498.096 520.901 616.503 549.779 661.07C556.053 670.761 560.591 677.761 562.103 680.125C562.691 681.035 562.896 682.141 562.673 683.201C562.642 683.356 562.588 683.506 562.513 683.645L557.22 693.463C556.984 694.343 556.465 695.119 555.742 695.672C555.018 696.225 554.133 696.522 553.223 696.518L553.19 696.539Z" fill="#CE44A2"/>
<path d="M409.507 425.859C410.084 425.857 410.644 426.054 411.093 426.417C411.542 426.78 411.852 427.287 411.97 427.852C416.835 450.615 427.619 469.819 435.871 485.637C444.227 501.699 551.934 667.332 560.712 681.019C561.074 681.569 561.204 682.239 561.075 682.885L555.683 692.895C555.568 693.465 555.258 693.977 554.806 694.344C554.355 694.71 553.79 694.908 553.209 694.903C552.875 694.903 552.545 694.836 552.238 694.705C551.931 694.575 551.653 694.383 551.421 694.143L401.198 538.463C400.961 538.218 400.777 537.928 400.657 537.609C400.536 537.291 400.481 536.952 400.495 536.612C400.509 536.272 400.593 535.938 400.74 535.631C400.887 535.324 401.094 535.05 401.35 534.826L418.681 519.765C419.037 519.454 419.298 519.049 419.433 518.596C419.569 518.143 419.575 517.662 419.45 517.206C419.325 516.75 419.074 516.339 418.726 516.02C418.378 515.701 417.947 515.486 417.482 515.401L391.271 510.637C390.707 510.536 390.195 510.244 389.82 509.811C389.444 509.377 389.228 508.829 389.208 508.255C388.881 498.801 387.791 458.928 392.194 446.954C395.668 437.499 403.458 430.106 407.919 426.459C408.366 426.088 408.927 425.885 409.507 425.884M409.507 422.612C408.174 422.617 406.884 423.081 405.852 423.924C401.219 427.724 392.885 435.615 389.139 445.819C384.597 458.161 385.552 496.812 385.952 508.365C386.004 509.679 386.499 510.937 387.357 511.933C388.214 512.93 389.384 513.606 390.675 513.852L415.342 518.31L399.21 532.339C398.615 532.854 398.131 533.486 397.788 534.195C397.446 534.904 397.251 535.676 397.217 536.462C397.183 537.249 397.31 538.035 397.591 538.771C397.871 539.507 398.298 540.178 398.847 540.743L549.049 696.412C549.746 697.133 550.618 697.66 551.581 697.942C552.543 698.223 553.562 698.248 554.538 698.016C555.513 697.783 556.411 697.3 557.143 696.615C557.875 695.929 558.417 695.065 558.713 694.106L563.924 684.434C564.076 684.155 564.185 683.854 564.247 683.543C564.557 682.065 564.271 680.523 563.451 679.255C561.936 676.892 557.398 669.885 551.098 660.183C522.271 615.637 445.626 497.285 438.766 484.124C438.025 482.706 437.268 481.263 436.495 479.794C428.528 464.637 419.499 447.459 415.164 427.172C414.895 425.871 414.185 424.704 413.154 423.869C412.122 423.034 410.834 422.582 409.507 422.59V422.612Z" fill="#17091D"/>
<path d="M534.664 724.042C534.383 724.036 534.106 723.968 533.855 723.843C533.603 723.717 533.383 723.536 533.211 723.314C533.033 723.095 532.907 722.838 532.844 722.562C532.781 722.287 532.782 722 532.847 721.725C534.726 713.802 544.332 673.54 548.859 658.991C554.055 642.296 570.659 575.802 572.861 555.449C576.858 518.554 579.953 486.085 577.584 462.332C576.589 452.34 575.404 446.623 574.561 443.583C573.678 440.407 574.08 437.011 575.681 434.129C577.337 431.22 579.314 430.602 580.651 430.602C583.779 430.602 588.92 433.249 597.451 456.147C599.334 461.198 604.954 470.5 609.91 478.692C616.577 489.729 620.352 496.1 620.447 498.747C620.523 500.692 619.251 503.674 608.682 509.474C608.261 509.706 607.909 510.046 607.665 510.46C607.42 510.874 607.291 511.346 607.291 511.827C607.291 512.308 607.42 512.78 607.665 513.194C607.909 513.608 608.261 513.948 608.682 514.18C618.932 519.805 624.585 524.769 625.479 528.929C625.962 531.18 623.713 539.878 618.794 554.78C613.874 569.682 607.338 587.489 600.347 605.067C589.538 632.234 568.857 680.838 551.697 701.296L536.186 723.252C536.014 723.496 535.785 723.695 535.521 723.832C535.256 723.969 534.962 724.041 534.664 724.042Z" fill="#CE44A2"/>
<path d="M580.659 432.245C583.889 432.245 588.783 437.551 595.919 456.729C599.858 467.296 618.646 494.209 618.809 498.831C618.907 501.442 613.036 505.245 607.909 508.067C607.231 508.439 606.665 508.987 606.271 509.653C605.877 510.319 605.669 511.079 605.669 511.853C605.669 512.627 605.877 513.387 606.271 514.053C606.665 514.719 607.231 515.266 607.909 515.638C614.402 519.202 622.897 524.664 623.896 529.3C625.531 536.911 579.933 665.187 550.415 700.322L534.854 722.307C534.833 722.339 534.805 722.364 534.772 722.382C534.739 722.4 534.702 722.409 534.665 722.409C534.629 722.409 534.593 722.402 534.561 722.386C534.529 722.371 534.5 722.348 534.478 722.32C534.455 722.292 534.44 722.259 534.432 722.224C534.424 722.189 534.424 722.153 534.432 722.118C536.198 714.682 545.888 674.034 550.419 659.493C555.408 643.456 572.244 576.365 574.483 555.638C578.686 516.729 581.531 485.514 579.206 462.184C578.189 452.002 576.961 446.184 576.132 443.169C575.357 440.409 575.703 437.453 577.095 434.947C577.941 433.46 579.104 432.245 580.648 432.245M580.648 428.973C578.861 428.973 576.288 429.725 574.257 433.336C572.447 436.597 571.99 440.44 572.986 444.034C573.796 447.009 574.969 452.631 575.958 462.511C578.312 486.107 575.231 518.489 571.234 555.289C569.054 575.562 552.479 641.867 547.294 658.522C542.756 673.107 533.124 713.431 531.253 721.369C531.13 721.884 531.125 722.42 531.239 722.937C531.353 723.454 531.583 723.938 531.911 724.354C532.239 724.769 532.657 725.104 533.133 725.334C533.61 725.564 534.132 725.683 534.661 725.682C535.22 725.68 535.77 725.545 536.266 725.288C536.763 725.03 537.19 724.658 537.513 724.202L552.999 702.325C570.297 681.66 591.036 632.936 601.871 605.704C608.876 588.093 615.441 570.202 620.353 555.322C627.907 532.442 627.329 529.762 627.082 528.616C626.465 525.733 624.136 522.751 619.968 519.496C616.652 516.984 613.144 514.737 609.475 512.776C609.306 512.689 609.164 512.555 609.067 512.392C608.969 512.228 608.919 512.04 608.923 511.849C608.92 511.661 608.969 511.476 609.065 511.315C609.162 511.154 609.301 511.022 609.468 510.936C620.731 504.754 622.185 501.282 622.079 498.714C621.97 495.805 618.875 490.413 611.303 477.878C606.38 469.733 600.802 460.496 598.975 455.591C595.592 446.5 592.409 439.744 589.528 435.467C586.574 431.104 583.675 428.984 580.659 428.984L580.648 428.973Z" fill="#17091D"/>
</svg>
