<svg width="24" height="24" viewBox="0 0 24 24" fill="none" xmlns="http://www.w3.org/2000/svg">
<g clip-path="url(#clip0_2403_20292)">
<path d="M12 24C18.6274 24 24 18.6274 24 12C24 5.37258 18.6274 0 12 0C5.37258 0 0 5.37258 0 12C0 18.6274 5.37258 24 12 24Z" fill="#6DA544"/>
<path d="M6.78271 14.3477C6.78271 15.2121 7.4835 15.9129 8.34792 15.9129H13.0436C13.0436 16.6332 13.6275 17.2172 14.3479 17.2172H15.9131C16.6335 17.2172 17.2175 16.6332 17.2175 15.9129V14.3477H6.78271Z" fill="#F0F0F0"/>
<path d="M17.3477 6.78296V10.4351C17.3477 11.0105 16.8796 11.4786 16.3042 11.4786V13.0438C17.7427 13.0438 18.9129 11.8735 18.9129 10.4351V6.78296H17.3477Z" fill="#F0F0F0"/>
<path d="M6.1304 10.4349C6.1304 11.0103 5.6623 11.4784 5.08691 11.4784V13.0436C6.52537 13.0436 7.6956 11.8733 7.6956 10.4349V6.78271H6.1304V10.4349Z" fill="#F0F0F0"/>
<path d="M16.5657 6.78296H15.0005V10.4351H16.5657V6.78296Z" fill="#F0F0F0"/>
<path d="M12.6519 8.86993C12.6519 9.01379 12.5349 9.13079 12.3911 9.13079C12.2473 9.13079 12.1302 9.01374 12.1302 8.86993V6.78296H10.565V8.86993C10.565 9.01379 10.448 9.13079 10.3041 9.13079C10.1603 9.13079 10.0433 9.01374 10.0433 8.86993V6.78296H8.47803V8.86993C8.47803 9.87685 9.29722 10.696 10.3041 10.696C10.6919 10.696 11.0516 10.5742 11.3476 10.3672C11.6436 10.5741 12.0033 10.696 12.3911 10.696C12.4692 10.696 12.546 10.6906 12.6215 10.6809C12.5106 11.1379 12.099 11.4786 11.6085 11.4786V13.0438C13.0469 13.0438 14.2172 11.8735 14.2172 10.4351V8.86993V6.78296H12.652V8.86993H12.6519Z" fill="#F0F0F0"/>
<path d="M10.8259 11.478H8.47803V13.0432H10.8259V11.478Z" fill="#F0F0F0"/>
</g>
<defs>
<clipPath id="clip0_2403_20292">
<rect width="24" height="24" fill="white"/>
</clipPath>
</defs>
</svg>
