<svg width="1000" height="1202" viewBox="0 0 1000 1202" fill="none" xmlns="http://www.w3.org/2000/svg">
<g id="Head 02">
<g id="3 neck">
<path id="Vector" d="M493.29 1141.5C482.675 1141.51 472.093 1140.33 461.74 1137.98C425.93 1129.84 395.8 1114.98 360.99 1088.22C352.66 1081.8 352.04 1074.78 352.99 1070.01C356.13 1053.91 360.14 871.41 360.3 850.77C360.35 844.53 360.36 828.6 360.3 812.03C360.3 793.41 360.14 775.15 359.99 761.93C359.85 750.34 359.68 742.929 359.5 739.229L359.08 731.02L366.22 735.09C367.32 735.72 371.77 737.879 376.49 740.159C395.14 749.159 403.84 753.59 406.1 755.75C409.26 758.32 433.15 765.86 443.36 769.07C453.03 772.07 454.36 772.58 455.3 773.14C462.88 777.75 471.03 781.19 479.67 784.83C486.17 787.57 492.9 790.409 500.01 793.979C511.4 799.699 516.85 802.25 519.01 802.25C519.807 802.191 520.593 802.033 521.35 801.78C524.05 801.06 528.14 799.96 536.96 799.96C540.52 799.96 544.64 800.14 549.19 800.5C557.93 800.59 562.26 806.24 565.43 810.38C568.15 813.92 569.43 815.38 571.58 815.38C572.574 815.345 573.554 815.142 574.48 814.78L580.61 812.59L580.5 819.099C580.5 821.439 580.5 824.89 580.57 828.81C580.78 838.35 581.3 850.02 582 860.81C582.46 867.98 583 899 583.67 934.93C584.67 988.56 586.1 1069.54 587.61 1076.17C590.17 1083.99 588.61 1091.63 583.19 1098.27C560.59 1125.84 535.87 1139.07 503.02 1141.16C499.77 1141.39 496.5 1141.5 493.29 1141.5Z" fill="#FFB07C"/>
<path id="Vector_2" d="M364 739C367.84 741.19 399.87 756 403 759C407.51 763.38 451 775.82 453 777C466.52 785.24 481.42 789.67 498 798C511.79 804.92 516 806.75 519 806.75C522.42 806.75 524.43 804.46 536.94 804.46C540.19 804.46 544.13 804.61 548.94 805H549.01C561.4 805 561.83 819.86 571.52 819.86C573.052 819.838 574.569 819.546 576 819C576 821.34 576 824.75 576.07 828.89C576.26 837.47 576.74 849.2 577.51 861.12C578.73 880.12 580.67 1069.53 583.31 1077.52C585.443 1083.95 584.243 1089.92 579.71 1095.44C560.29 1119.13 538.02 1134.44 502.71 1136.69C499.543 1136.9 496.397 1137.01 493.27 1137C482.991 1137.01 472.743 1135.87 462.72 1133.59C424.16 1124.83 394.26 1108.12 363.72 1084.65C358.487 1080.65 356.377 1076.06 357.39 1070.89C360.7 1053.95 364.65 868.55 364.79 850.81C364.84 844.99 364.85 829.65 364.79 812.02C364.79 795.32 364.65 776.56 364.48 761.88C364.35 751.48 364.19 743.12 363.98 739M354.16 723L354.99 739.42C355.18 743.05 355.34 750.42 355.48 761.95C355.69 779.95 355.76 801.01 355.79 811.95C355.84 828.58 355.79 844.49 355.79 850.64C355.63 870.71 351.58 1053.64 348.56 1069.07C347.56 1073.97 347.56 1083.46 358.23 1091.69C393.59 1118.86 424.23 1133.99 460.74 1142.28C471.417 1144.7 482.332 1145.92 493.28 1145.91C496.58 1145.91 499.96 1145.8 503.28 1145.58C521.61 1144.41 537.42 1139.92 551.6 1131.83C564.16 1124.68 575.3 1114.89 586.6 1101.06C593 1093.25 594.84 1084.26 591.92 1075.06C590.47 1066.22 589.05 987.22 588.1 934.8C587.42 897.35 586.89 867.8 586.42 860.49C585.73 849.74 585.21 838.13 585 828.64C584.91 824.79 584.89 821.4 584.93 819.1L585.15 806.1L573 810.53C572.603 810.682 572.191 810.789 571.77 810.85C570.77 809.86 569.857 808.786 569.04 807.64C565.74 803.33 560.23 796.14 549.42 796C544.81 795.64 540.63 795.46 536.99 795.46C527.58 795.46 523.15 796.65 520.22 797.46L519.03 797.76C516.78 797.36 507.6 792.76 502.08 789.98C494.83 786.34 488.08 783.47 481.47 780.71C472.99 777.13 464.98 773.71 457.72 769.33C456.3 768.48 454.93 768.02 444.82 764.83C436.14 762.1 413.27 754.88 408.96 752.22C406.22 749.83 399.77 746.44 378.55 736.16C374.32 734.11 369.55 731.79 368.55 731.23L354.18 723H354.16Z" fill="#020201"/>
<path id="Vector_3" d="M577.51 861.12C564.181 865.342 550.292 867.54 536.31 867.64C496.46 867.82 455.9 860.009 420.72 843.289C403.167 834.949 387.234 826.656 372.92 818.409C370.03 816.528 367.316 814.389 364.81 812.02C364.81 795.32 364.17 753.68 364 739.02C395.84 756.42 423.23 800.689 459.48 812.299C490 822.06 513 830 547.61 830.65C557.13 830.891 566.653 830.302 576.07 828.89C576.26 837.47 576.74 849.2 577.51 861.12Z" fill="#E37B4C"/>
</g>
<g id="3 head">
<g id="head">
<path id="Vector_4" d="M583 820C579.53 820.44 602.42 818.55 601 821C594.75 822.62 589.82 826.5 571.13 829.43C559.738 831.172 548.203 831.798 536.69 831.3C515.32 830.45 497.18 828.3 476.95 820.23C449.935 809.455 423.955 796.247 399.33 780.77C394.06 777.448 388.988 773.821 384.14 769.91C370.54 758.95 360.007 749.97 352.54 742.97C332.34 724 317 699.24 305 672C309.5 677.86 313 685.52 317.13 691.52C332.27 713.41 353.35 734.39 372.08 748.57C401.76 771.06 439.17 787.16 475 803C499.59 813.88 510.17 815.06 540 816C555.64 816.5 576.45 820 583 820Z" fill="#020201"/>
<g id="face">
<path id="Vector_5" d="M575.13 829H575C477.73 821.52 401.24 790.71 347.66 737.42C314.147 704.039 290.344 662.171 278.8 616.3C272.65 591.1 265.14 565.72 255.8 538.71C253.5 532.03 251.1 525.02 248.64 517.86L247.22 513.74C224.3 446.8 212 409.88 210.62 404C207.53 390.62 208.3 338.37 208.33 336.15V336C210.69 279 222.56 228.67 243.6 186.34C260.755 151.466 285.329 120.766 315.6 96.3903C340.03 76.7503 368.45 60.9303 400.07 49.3903C454.64 29.5003 501.21 28.4903 510 28.4903H510.89C511.67 28.4403 514.67 28.2803 519.53 28.2803C545.53 28.2803 612.8 32.5503 676.83 72.1103C713.459 94.7065 743.814 126.155 765.1 163.56C791.54 209.5 806.76 266.48 810.33 332.92C810.79 341.46 809.4 355.98 807.68 372.67L806.93 379.81C804.13 406.68 800.64 440.12 800.82 470.3C801.05 508.5 791.24 569.52 785.37 602.49C783.13 615.08 781.52 623.2 781.5 623.28V623.47L781.44 623.65C768.01 670.05 749.07 709.65 725.15 741.43C705.85 767.05 683.28 787.65 658.06 802.66C614.22 828.74 576.94 829 575.37 829H575.13Z" fill="#FFB07C"/>
<path id="Vector_6" d="M519.53 32.7998C566.32 32.7998 790.53 47.7298 805.84 333.17C806.27 341.17 804.97 355.1 803.2 372.22C800.29 400.38 796.12 437.17 796.32 470.34C796.55 508.49 786.61 569.85 780.94 601.71C778.68 614.4 777.09 622.41 777.09 622.41C718.92 823.28 578.87 824.54 575.37 824.54H575.3C352.56 807.42 296.72 670.67 283.17 615.23C276.74 588.88 268.93 562.9 260.1 537.23C257.36 529.23 254.47 520.85 251.52 512.23C234.9 463.83 216.61 410 215 403C212 390 212.83 336.23 212.83 336.23C215.34 275.65 228.35 227.17 247.63 188.38C323.22 36.2798 495.29 32.9998 510 32.9998H511C511 32.9998 514 32.7998 519.53 32.7998ZM519.53 23.7998C514.87 23.7998 511.83 23.9398 510.79 23.9998H510C501.08 23.9998 453.81 24.9998 398.56 45.2098C366.47 56.9098 337.62 72.9998 312.81 92.9198C282.022 117.699 257.024 148.911 239.57 184.37C218.25 227.28 206.23 278.24 203.84 335.86V336.09C203.75 341.71 203.09 391.35 206.24 405.02C207.63 411.02 220.01 448.12 243.02 515.2L244.55 519.66C246.97 526.66 249.33 533.6 251.6 540.18C260.85 567.05 268.32 592.3 274.44 617.36C279.193 636.643 286.156 655.313 295.19 673C307.909 698.02 324.535 720.853 344.44 740.64C369.26 765.32 399.39 785.51 433.98 800.64C474.53 818.39 521.85 829.45 574.61 833.5H574.95H575.37C579.37 833.5 616.23 832.74 660.37 806.5C686.1 791.19 709.1 770.2 728.75 744.11C753 711.91 772.19 671.8 785.75 624.87L785.86 624.5L785.94 624.12C785.94 624.04 787.57 615.88 789.82 603.25C795.72 570.12 805.57 508.79 805.34 470.25C805.16 440.31 808.64 407.01 811.43 380.25C811.68 377.82 811.93 375.43 812.17 373.11C813.92 356.22 815.32 341.52 814.85 332.65C811.23 265.5 795.85 207.85 769.03 161.3C747.369 123.26 716.489 91.2787 679.23 68.2998C614.2 28.1298 545.89 23.7998 519.54 23.7998H519.53Z" fill="#020201"/>
<path id="Vector_7" d="M251.52 512.28C234.9 463.83 216.61 410 215 403C212 390 212.83 336.23 212.83 336.23C215.34 275.65 228.35 227.17 247.63 188.38C239.63 218.25 226.09 299.57 258.63 446.94C272 507.59 266 521.56 251.52 512.28Z" fill="#E37B4C"/>
</g>
</g>
<g id="eyebrow">
<path id="Vector_8" d="M559.88 355.459C559.951 355.789 559.951 356.13 559.88 356.459C559.826 356.794 559.704 357.114 559.52 357.399C559.332 357.683 559.089 357.925 558.806 358.112C558.522 358.3 558.204 358.428 557.87 358.489C549.01 360.129 539.727 359.279 530.02 355.939C487.86 341.389 448.58 330.469 405.96 334.219C393.07 335.369 384.7 339.059 373.36 344.829C372.214 345.417 370.91 345.62 369.64 345.409C368.419 345.214 367.303 344.603 366.48 343.679C361.59 337.999 370.57 325.539 375.48 320.309C400.37 293.679 437.58 280.529 473.48 288.589C483.947 290.943 496.723 295.703 511.81 302.869C532.17 312.539 553.78 332.589 559.88 355.459Z" fill="#020101" stroke="black" stroke-width="9" stroke-miterlimit="10"/>
<path id="Vector_9" d="M663.11 356.06C661.385 356.64 659.528 356.697 657.771 356.225C656.014 355.752 654.436 354.771 653.235 353.404C652.034 352.038 651.263 350.346 651.021 348.543C650.778 346.74 651.073 344.906 651.87 343.27C664.93 316.76 695 295 729 301C747.41 304.25 766.51 309.73 772.8 327.39C773.296 328.816 773.435 330.342 773.206 331.834C772.976 333.327 772.385 334.74 771.483 335.952C770.582 337.163 769.398 338.135 768.034 338.783C766.67 339.431 765.168 339.736 763.66 339.67C722.19 337.93 699.14 344.05 663.11 356.06Z" fill="#020101" stroke="black" stroke-width="8" stroke-miterlimit="10"/>
</g>
<g id="eye">
<path id="Vector_10" d="M713 412C713 412 667.63 412.28 663.82 443.64C660.01 475 645.28 537 700.14 538C755 539 765.14 472.1 761.14 447.05C757.14 422 724 411 724 411L713 412Z" fill="white"/>
<path id="Vector_11" d="M764 448.66C763.445 449.066 762.787 449.308 762.101 449.36C761.416 449.411 760.729 449.269 760.12 448.95C759.638 448.702 759.251 448.301 759.02 447.81C748.273 423.31 729.9 413.063 703.9 417.07C698.334 417.928 693.007 419.934 688.259 422.963C683.511 425.991 679.445 429.975 676.32 434.66C676.21 434.829 676.161 435.03 676.18 435.23C676.199 435.432 676.279 435.624 676.41 435.78C676.554 435.929 676.738 436.033 676.94 436.08C677.146 436.121 677.359 436.097 677.55 436.01C682.91 433.47 687.74 429.78 693.22 430.39C706.14 431.79 714.12 440.81 717.84 452.39C724.6 473.49 724.21 502.08 707.05 517.58C697.59 526.15 689.19 524.28 680.13 515.84C662.04 498.99 663.01 467.84 671.5 446.3C671.56 446.139 671.56 445.961 671.5 445.8C671.457 445.63 671.354 445.481 671.21 445.38C671.063 445.28 670.888 445.23 670.71 445.24C670.533 445.251 670.366 445.325 670.24 445.45L670.04 445.6C669.422 446.091 668.668 446.382 667.88 446.432C667.092 446.483 666.308 446.291 665.632 445.883C664.956 445.475 664.421 444.87 664.099 444.149C663.777 443.428 663.683 442.626 663.83 441.85C665.18 435.067 667.944 428.644 671.94 423C679.567 411.667 689.13 404.827 700.63 402.48C729.05 396.64 758.33 412 766.14 439.3C767.38 443.673 766.667 446.793 764 448.66Z" fill="#020101"/>
</g>
<g id="eye_2">
<path id="Vector_12" d="M509 457.999C505 436.089 494.85 420.219 473.64 410.619C454.733 402.086 435.4 401.589 415.64 409.129C385.4 420.636 372.38 445.099 376.58 482.519C376.58 482.519 372.03 480.999 370.78 478.679C349.46 438.919 379.63 399.769 422.45 390.199C452.97 383.369 488.59 393.689 508.3 419.789C515.402 428.915 519.353 440.098 519.56 451.659C519.62 454.579 518.99 456.759 517.67 458.199C516 459.999 511.48 459.999 509 457.999Z" fill="#020101"/>
<path id="Vector_13" d="M476.2 409.09C500.51 420.72 513.94 447.32 509.66 473.92C509.4 475.55 509.13 477.16 508.87 478.75C504.87 502.95 490.71 525.46 466.97 533.58C463.05 534.913 456.553 535.48 447.48 535.28C427.78 534.82 418.26 534.76 402.8 522.76C386.327 509.98 377.467 495.77 376.22 480.13C371.98 442.683 385.123 418.196 415.65 406.67C435.61 399.13 455.133 399.63 474.22 408.17C474.89 408.47 475.55 408.77 476.2 409.09ZM440.88 421.09C436.373 421.346 432.016 422.803 428.26 425.31C424.086 428.095 420.554 431.74 417.9 436C414.886 440.816 412.686 446.097 411.39 451.63C409.976 457.563 409.413 463.668 409.72 469.76C410.32 482.24 414.42 494.03 421.12 502.54C427.82 511.05 436.57 515.589 445.44 515.159C449.947 514.901 454.304 513.444 458.06 510.94C462.233 508.139 465.762 504.481 468.41 500.21C471.429 495.395 473.628 490.113 474.92 484.58C476.344 478.648 476.907 472.542 476.59 466.45C475.99 453.97 471.89 442.18 465.19 433.67C458.49 425.16 449.75 420.62 440.88 421.05V421.09Z" fill="white"/>
<path id="Vector_14" d="M478 467C476.74 441.19 458.53 419.09 440 420C421.47 420.91 407.34 444.38 408.6 470.19C409.86 496 425.91 516.19 444.44 515.29C462.97 514.39 479.26 492.81 478 467Z" fill="#020101"/>
</g>
<g id="smile">
<path id="Vector_15" d="M474.28 655.66L518 702L574 717L615 708L627 694.36L640 667C640 667 619 663 618 663C617 663 553 660 553 660C553 660 513 655 512 655C511 655 479 650 479 650L474.28 655.66Z" fill="#FFF3DA"/>
<path id="Vector_16" d="M457.65 634.82C508.51 656.82 615.1 666.57 668.1 651.18C680.57 657.32 646.76 678.85 639.03 692.77C636.16 698.157 632.122 702.835 627.21 706.46C592.26 731.39 528 718.1 498 694C476.45 680.79 473.91 662.82 459.7 647.63C454.16 641.72 446.57 638.47 438.55 637.27C431.8 636.27 460.94 618.86 470.75 626.36C477.21 636.24 458.32 630.09 457.65 634.82ZM502.7 682.06C526.84 708.84 600.14 728.52 624.4 691.67C611.47 691.07 619.87 681.73 625.92 673.9C628.47 670.61 626.15 668.27 622 668C579.35 665.24 549.49 665.75 502 659C439.58 644.06 537.07 683.73 520 689.21C516.94 690.61 504.89 679.74 502.7 682.06Z" fill="#020101"/>
</g>
<g id="nose">
<path id="Vector_17" d="M625.69 564.7C621 587 590.88 600.84 575.75 600.56C568.466 600.423 561.291 598.765 554.685 595.693C548.079 592.621 542.189 588.202 537.39 582.72C534.08 578.92 531.81 575.07 532.15 571.9C532.27 570.77 532.808 569.725 533.66 568.972C534.511 568.219 535.614 567.811 536.75 567.83L584.85 570.62C598.724 571.432 612.618 569.418 625.69 564.7ZM542.69 577.89C543.239 579.142 544.166 580.191 545.34 580.89C550.014 584.056 555.314 586.18 560.88 587.12C561.882 587.303 562.916 587.14 563.813 586.658C564.71 586.177 565.418 585.406 565.82 584.47V584.38C565.953 584.03 566.008 583.654 565.98 583.28C565.95 582.908 565.841 582.547 565.66 582.22C565.477 581.893 565.224 581.61 564.92 581.39C564.621 581.175 564.281 581.025 563.92 580.95L543.36 577.07C543.259 577.04 543.151 577.04 543.05 577.07C542.955 577.102 542.872 577.161 542.81 577.24C542.74 577.32 542.692 577.416 542.67 577.52C542.64 577.642 542.643 577.77 542.68 577.89H542.69Z" fill="#E37B4C"/>
<path id="Vector_18" d="M542.69 577.89C542.655 577.786 542.655 577.674 542.69 577.57C542.704 577.466 542.749 577.368 542.82 577.29C542.883 577.209 542.971 577.149 543.07 577.12C543.168 577.09 543.272 577.09 543.37 577.12L563.91 581C564.269 581.076 564.609 581.222 564.91 581.43C565.215 581.653 565.467 581.94 565.65 582.27C565.836 582.595 565.945 582.957 565.97 583.33C566.003 583.704 565.948 584.081 565.81 584.43V584.52C565.413 585.457 564.707 586.23 563.81 586.71C562.913 587.189 561.881 587.351 560.88 587.17C555.316 586.232 550.02 584.107 545.35 580.94C544.159 580.235 543.227 579.166 542.69 577.89Z" fill="#201116"/>
<path id="Vector_19" d="M576.08 601.5C575.978 601.335 575.911 601.15 575.883 600.958C575.855 600.766 575.866 600.57 575.917 600.383C575.968 600.196 576.056 600.02 576.177 599.869C576.298 599.717 576.449 599.591 576.62 599.5C580 597.62 585.543 595.37 593.25 592.75C600.53 590.27 628 580.02 624.93 549.29C623.606 543.872 621.403 538.707 618.41 534C608.93 518.21 595 495.53 597.35 476C597.416 475.521 597.645 475.079 598 474.75C598.356 474.418 598.815 474.217 599.3 474.181C599.785 474.144 600.269 474.275 600.67 474.55C601.071 474.822 601.365 475.225 601.5 475.69C603.34 482.357 604.81 487.623 605.91 491.49C606.863 494.823 609.333 499.617 613.32 505.87C620.55 517.27 635.12 536.48 636.2 548.31C637.147 558.803 635.924 566.94 632.53 572.72C627.444 581.387 618.444 589.743 605.53 597.79C600 601 582.18 602.25 577 602C576.818 601.995 576.64 601.948 576.48 601.861C576.32 601.774 576.183 601.65 576.08 601.5Z" fill="#020101"/>
</g>
<g id="ear">
<path id="Vector_20" d="M271.27 445.47C271.27 445.47 217.61 341.33 171.81 398.66C126.01 455.99 162.69 560.79 207 591C251.31 621.21 277 584 277 584L271.27 445.47Z" fill="#FFB07C"/>
<path id="Vector_21" d="M229.13 540.159C226.59 528.999 226.66 512.209 241 494.999C241 494.999 222 422.999 191 418.999C160 414.999 166.13 472.669 172.06 486.329C177.99 499.989 191.06 548.819 211.53 550.409C214.53 550.639 217.17 550.879 219.45 551.109C220.871 551.253 222.305 551.056 223.635 550.535C224.965 550.015 226.151 549.185 227.097 548.116C228.043 547.046 228.72 545.766 229.074 544.383C229.427 542.999 229.447 541.551 229.13 540.159Z" fill="#E37B4C"/>
<path id="Vector_22" d="M229.83 552.06C229.51 551.06 229.04 550.06 228.5 548.89C227.96 547.72 227.44 546.39 227.01 545.1C226.187 542.546 225.569 539.931 225.16 537.28C224.724 534.635 224.503 531.96 224.5 529.28C224.45 527.94 224.56 526.6 224.6 525.28C224.64 523.96 224.81 522.61 225.05 521.28C225.852 515.99 227.439 510.85 229.76 506.03C232.078 501.276 234.962 496.82 238.35 492.76L237.66 495.85C236.16 490 234.32 484.05 232.33 478.24C230.34 472.43 228.13 466.67 225.67 461.04C223.249 455.413 220.48 449.943 217.38 444.66C214.381 439.407 210.769 434.53 206.62 430.13C205.62 429.02 204.47 428.13 203.38 427.08C202.81 426.61 202.21 426.18 201.63 425.73C201.34 425.51 201.06 425.27 200.75 425.07L199.83 424.49C199.241 424.092 198.63 423.728 198 423.4L196.06 422.4C194.746 421.85 193.383 421.425 191.99 421.13C189.23 420.464 186.351 420.464 183.59 421.13C182.254 421.485 180.977 422.034 179.8 422.76C178.618 423.522 177.537 424.429 176.58 425.46C174.657 427.678 173.137 430.217 172.09 432.96C171.003 435.782 170.189 438.702 169.66 441.68C168.614 447.74 168.201 453.893 168.43 460.04C168.442 460.315 168.344 460.585 168.157 460.788C167.971 460.992 167.711 461.113 167.435 461.125C167.159 461.137 166.89 461.038 166.687 460.852C166.483 460.665 166.362 460.405 166.35 460.13C165.913 453.847 166.131 447.537 167 441.3C167.464 438.124 168.23 434.999 169.29 431.97C170.377 428.838 172.009 425.923 174.11 423.36C175.226 422.062 176.507 420.916 177.92 419.95C179.363 418.99 180.94 418.248 182.6 417.75C185.89 416.81 189.357 416.673 192.71 417.35C194.375 417.646 196.009 418.098 197.59 418.7L199.88 419.7C200.611 420.093 201.318 420.527 202 421L203.07 421.63C203.42 421.85 203.74 422.1 204.07 422.34C204.74 422.82 205.42 423.29 206.07 423.79C207.31 424.85 208.61 425.86 209.74 427.03C214.304 431.535 218.313 436.571 221.68 442.03C225.069 447.393 228.118 452.964 230.81 458.71C233.53 464.42 235.98 470.24 238.21 476.13C240.44 482.02 242.49 487.95 244.3 494.13C244.442 494.622 244.466 495.141 244.371 495.645C244.275 496.149 244.063 496.623 243.75 497.03L243.61 497.22C240.584 500.822 238.005 504.777 235.93 509C233.887 513.197 232.485 517.676 231.77 522.29C231.55 523.43 231.51 524.6 231.37 525.75C231.23 526.9 231.22 528.07 231.26 529.24C231.284 533.906 232.002 538.544 233.39 543C233.748 544.083 234.162 545.148 234.63 546.19C235.11 547.27 235.7 548.54 236.17 549.95C236.451 550.79 236.387 551.708 235.991 552.502C235.595 553.295 234.901 553.898 234.06 554.18C233.219 554.461 232.301 554.396 231.508 554.001C230.715 553.605 230.111 552.91 229.83 552.07V552.06Z" fill="#020201"/>
<path id="Vector_23" d="M203 532.07C201.381 528.695 199.985 525.218 198.82 521.66C197.606 518.116 196.604 514.503 195.82 510.84C194.196 503.385 193.761 495.721 194.53 488.13C194.998 484.235 195.901 480.405 197.22 476.71C197.59 475.79 197.89 474.84 198.32 473.94L199.6 471.24C200.54 469.471 201.592 467.765 202.75 466.13C203.914 464.488 205.172 462.915 206.52 461.42C207.936 459.965 209.432 458.59 211 457.3C214.066 454.748 217.383 452.513 220.9 450.63C222.022 449.995 223.35 449.831 224.593 450.175C225.835 450.52 226.89 451.343 227.525 452.465C228.16 453.587 228.324 454.915 227.98 456.158C227.636 457.4 226.812 458.455 225.69 459.09C225.595 459.151 225.494 459.205 225.39 459.25L225.14 459.37C222.09 460.711 219.185 462.36 216.47 464.29C215.126 465.247 213.838 466.278 212.61 467.38C211.418 468.517 210.293 469.723 209.24 470.99C208.182 472.26 207.207 473.596 206.32 474.99L205.08 477.16C204.66 477.88 204.36 478.66 203.98 479.41C202.599 482.516 201.566 485.766 200.9 489.1C199.666 496.036 199.541 503.125 200.53 510.1C200.988 513.643 201.656 517.156 202.53 520.62C203.387 524.094 204.463 527.511 205.75 530.85V530.9C205.885 531.259 205.878 531.655 205.729 532.009C205.581 532.362 205.303 532.645 204.952 532.8C204.601 532.955 204.205 532.97 203.844 532.841C203.483 532.713 203.184 532.451 203.01 532.11L203 532.07Z" fill="#020201"/>
<path id="Vector_24" d="M271.27 445.47C271.27 445.47 244.83 394.16 213.27 383.4C199.85 378.83 185.5 381.57 171.85 398.66C126 456 162.69 560.79 207 591C251.31 621.21 277 584 277 584" stroke="black" stroke-width="7" stroke-linecap="round" stroke-linejoin="round"/>
</g>
</g>
</g>
</svg>
