<svg width="1000" height="1202" viewBox="0 0 1000 1202" fill="none" xmlns="http://www.w3.org/2000/svg">
<g id="Head 06">
<g id="5 head">
<path id="Vector" d="M493.29 1141.5C482.675 1141.51 472.093 1140.33 461.74 1137.98C425.93 1129.84 395.8 1114.98 360.99 1088.22C352.66 1081.8 352.04 1074.78 352.99 1070.01C356.13 1053.91 360.14 871.41 360.3 850.77C360.35 844.63 360.36 828.71 360.3 812.03C360.3 793.33 360.14 775.03 359.99 761.93C359.85 750.34 359.68 742.929 359.5 739.229L359.08 731.02L366.22 735.09C367.32 735.72 371.77 737.879 376.49 740.159C395.14 749.159 403.84 753.59 406.1 755.75C409.26 758.32 433.15 765.86 443.36 769.07C453.03 772.07 454.36 772.58 455.3 773.14C462.88 777.75 471.03 781.19 479.67 784.83C486.17 787.57 492.9 790.409 500.01 793.979C511.4 799.699 516.85 802.25 519.01 802.25C519.807 802.191 520.593 802.033 521.35 801.78C524.05 801.06 528.14 799.96 536.96 799.96C540.52 799.96 544.64 800.14 549.19 800.5C557.93 800.59 562.26 806.24 565.43 810.38C568.15 813.92 569.43 815.38 571.58 815.38C572.574 815.345 573.555 815.142 574.48 814.78L580.61 812.59L580.5 819.099C580.5 821.449 580.5 824.9 580.57 828.81C580.78 838.36 581.3 850.04 582 860.81C582.46 867.98 583 898.99 583.67 934.9C584.67 988.54 586.1 1069.54 587.61 1076.17C590.17 1083.99 588.61 1091.63 583.19 1098.27C560.59 1125.84 535.87 1139.07 503.02 1141.16C499.77 1141.39 496.5 1141.5 493.29 1141.5Z" fill="#996CB3"/>
<path id="Vector_2" d="M364 739C367.84 741.19 399.87 756 403 759C407.51 763.38 451 775.82 453 777C466.52 785.24 481.42 789.67 498 798C511.79 804.92 516 806.75 519 806.75C522.42 806.75 524.43 804.46 536.94 804.46C540.19 804.46 544.13 804.61 548.94 805H549.01C561.4 805 561.83 819.86 571.52 819.86C573.053 819.838 574.569 819.546 576 819C576 821.34 576 824.75 576.07 828.89C576.26 837.47 576.74 849.2 577.51 861.12C578.73 880.12 580.67 1069.53 583.31 1077.52C585.444 1083.95 584.244 1089.92 579.71 1095.44C560.29 1119.13 538.02 1134.44 502.71 1136.69C499.544 1136.9 496.397 1137.01 493.27 1137C482.991 1137.01 472.743 1135.87 462.72 1133.59C424.16 1124.83 394.26 1108.12 363.72 1084.65C358.487 1080.65 356.377 1076.06 357.39 1070.89C360.7 1053.95 364.65 868.55 364.79 850.81C364.84 844.99 364.85 829.65 364.79 812.02C364.79 795.32 364.65 776.56 364.48 761.88C364.35 751.48 364.19 743.12 363.98 739M354.15 723L354.99 739.42C355.18 743.04 355.34 750.42 355.48 761.95C355.69 779.95 355.76 801.02 355.79 811.95C355.84 828.58 355.79 844.49 355.79 850.64C355.63 870.71 351.58 1053.64 348.56 1069.07C347.56 1073.97 347.56 1083.46 358.23 1091.69C393.6 1118.86 424.23 1133.99 460.74 1142.28C471.417 1144.7 482.332 1145.92 493.28 1145.91C496.58 1145.91 499.96 1145.8 503.28 1145.58C521.61 1144.41 537.42 1139.92 551.6 1131.83C564.16 1124.68 575.3 1114.89 586.6 1101.06C593 1093.25 594.84 1084.26 591.92 1075.06C590.47 1066.22 589.05 987.22 588.1 934.8C587.42 897.34 586.89 867.8 586.42 860.49C585.73 849.74 585.21 838.13 585 828.64C584.91 824.79 584.89 821.4 584.93 819.1L585.15 806.1L573 810.53C572.604 810.682 572.191 810.789 571.77 810.85C570.77 809.86 569.857 808.786 569.04 807.64C565.74 803.33 560.23 796.14 549.42 796C544.81 795.64 540.63 795.46 536.99 795.46C527.58 795.46 523.15 796.65 520.22 797.46L519.03 797.76C516.78 797.36 507.6 792.76 502.08 789.98C494.83 786.34 488.08 783.47 481.47 780.71C472.99 777.13 464.98 773.71 457.72 769.33C456.3 768.48 454.93 768.02 444.82 764.83C436.14 762.1 413.27 754.88 408.96 752.22C406.22 749.83 399.77 746.44 378.55 736.16C374.32 734.11 369.55 731.79 368.55 731.23L354.17 723H354.15Z" fill="#020201"/>
<path id="Vector_3" d="M577.51 861.12C564.18 865.342 550.292 867.54 536.31 867.64C496.46 867.82 455.9 860.009 420.72 843.289C403.167 834.949 387.233 826.656 372.92 818.409C370.03 816.528 367.316 814.389 364.81 812.02C364.81 795.32 364.17 753.68 364 739.02C395.84 756.42 423.23 800.689 459.48 812.299C490 822.06 513 830 547.61 830.65C557.13 830.891 566.653 830.302 576.07 828.89C576.26 837.47 576.74 849.2 577.51 861.12Z" fill="#6D4E7E"/>
<path id="Vector_4" d="M786.47 414.93C786.47 414.93 841.53 362.28 865.59 366.14C889.65 370 856.52 516.26 807.22 559.14C757.92 602.02 734 603 734 603C734 603 726.46 598.67 741 543.33C755.54 487.99 771.58 421.25 771.58 421.25L786.47 414.93Z" fill="#6D4E7E" stroke="black" stroke-width="7" stroke-linecap="round" stroke-linejoin="round"/>
<path id="Vector_5" d="M763.36 490.2C764.66 488.2 765.88 486.35 767.17 484.48C768.46 482.61 769.74 480.78 771.06 478.95C773.68 475.303 776.37 471.71 779.13 468.17C784.66 461.08 790.48 454.22 796.7 447.67C802.917 441.035 809.677 434.93 816.91 429.42C820.62 426.654 824.535 424.174 828.62 422C832.81 419.75 837.288 418.084 841.93 417.05C842.826 416.836 843.771 416.984 844.559 417.462C845.347 417.94 845.914 418.71 846.138 419.604C846.362 420.498 846.224 421.444 845.754 422.237C845.285 423.03 844.521 423.606 843.63 423.84C839.746 425.031 836.045 426.75 832.63 428.95C829.114 431.193 825.771 433.697 822.63 436.44C816.247 442.125 810.35 448.333 805 455C799.59 461.65 794.52 468.64 789.75 475.83C787.37 479.423 785.06 483.06 782.82 486.74C781.7 488.58 780.6 490.43 779.52 492.29C778.46 494.13 777.37 496.05 776.43 497.81C775.979 498.716 775.351 499.523 774.583 500.182C773.814 500.84 772.921 501.338 771.957 501.646C770.993 501.953 769.976 502.064 768.969 501.971C767.961 501.878 766.982 501.584 766.089 501.106C765.197 500.628 764.41 499.975 763.775 499.187C763.14 498.399 762.669 497.492 762.392 496.518C762.114 495.545 762.034 494.526 762.157 493.521C762.281 492.517 762.605 491.547 763.11 490.67C763.16 490.53 763.26 490.36 763.36 490.2Z" fill="black"/>
<g id="head">
<path id="Vector_6" d="M577.55 820C574.34 820.44 595.55 818.55 594.22 821C588.43 822.62 583.87 826.5 566.56 829.43C556.025 831.171 545.336 831.798 534.67 831.3C514.88 830.45 498.08 828.3 479.34 820.23C454.187 809.377 430.12 796.164 407.46 780.77C402.559 777.432 397.86 773.806 393.39 769.91C380.79 758.95 371.037 749.97 364.13 742.97C345.42 724.04 331.26 699.24 320.13 671.97C324.3 677.83 327.53 685.49 331.36 691.49C345.389 712.934 362.541 732.163 382.25 748.54C409.74 771.03 444.39 787.13 477.57 802.97C500.34 813.85 510.14 815.03 537.76 815.97C552.21 816.5 571.49 820 577.55 820Z" fill="#020201"/>
<g id="face">
<path id="Vector_7" d="M570.241 829H570.051C479.841 821.52 408.901 790.66 359.211 737.3C317.481 692.48 301.381 642.19 295.501 616.2C289.801 590.99 282.841 565.61 274.231 538.6L267.651 517.9L266.291 513.62C245.031 446.7 233.611 409.79 232.351 403.92C229.501 390.58 230.211 338.36 230.251 336.15V336.04C232.431 279.1 243.411 228.78 262.881 186.48C279.181 151.06 301.631 120.8 329.601 96.48C352.874 76.4683 379.387 60.5676 408.001 49.46C458.611 29.46 501.841 28.46 510.001 28.46H510.811C511.581 28.41 514.371 28.25 518.811 28.25C542.921 28.25 605.391 32.53 664.811 72.16C698.811 94.84 726.331 125.63 746.611 163.66C771.001 209.61 785.111 266.55 788.421 333C788.841 341.52 787.561 356 785.961 372.7L785.271 379.85C782.671 406.72 779.441 440.16 779.611 470.36C779.821 508.53 770.741 569.53 765.301 602.49C763.231 615.08 761.741 623.19 761.721 623.27V623.45L761.671 623.63C749.241 670 731.671 709.63 709.561 741.36C691.681 766.99 670.761 787.61 647.371 802.64C606.641 828.74 572.001 829 570.491 829H570.241Z" fill="#996CB3"/>
<path id="Vector_8" d="M518.77 32.7998C562.1 32.7998 769.7 47.7298 783.92 333.17C784.32 341.17 783.12 355.1 781.48 372.22C778.78 400.38 774.92 437.17 775.11 470.34C775.32 508.49 766.11 569.85 760.86 601.71C758.77 614.4 757.3 622.41 757.3 622.41C703.43 823.28 573.73 824.54 570.49 824.54H570.42C364.15 807.42 312.42 670.67 299.89 615.23C293.89 588.88 286.7 562.9 278.52 537.23C275.98 529.23 273.31 520.85 270.58 512.23C255.18 463.83 238.25 410 236.75 403C233.98 390 234.75 336.23 234.75 336.23C237.07 275.65 249.12 227.17 266.97 188.38C337 36.2798 496.32 32.9998 510 32.9998H510.93C510.93 32.9998 513.75 32.7998 518.82 32.7998M518.82 23.7998C514.54 23.7998 511.71 23.9398 510.69 23.9998H510C501.7 23.9998 457.71 24.9998 406.35 45.2898C377.274 56.6021 350.338 72.7872 326.7 93.1498C298.25 117.85 275.42 148.63 258.85 184.63C239.13 227.47 228.01 278.36 225.8 335.89V336.11C225.72 341.72 225.1 391.29 228 404.89C229.29 410.89 240.74 447.95 262.05 515.01L263.38 519.2C265.65 526.34 267.87 533.33 270 539.99C278.57 566.88 285.49 592.14 291.16 617.22C295.524 636.374 301.959 654.997 310.35 672.76C321.963 697.533 337.353 720.351 355.97 740.4C378.97 765.13 406.97 785.4 439.1 800.56C476.77 818.36 520.72 829.45 569.73 833.56H570.1H570.54C574.33 833.56 608.73 832.8 649.82 806.39C673.66 791 695 770 713.22 743.88C735.66 711.71 753.42 671.62 765.99 624.74L766.08 624.39L766.15 624.04C766.15 623.96 767.66 615.8 769.74 603.17C775.2 570.07 784.32 508.78 784.11 470.29C783.94 440.29 787.11 407 789.75 380.23C789.984 377.79 790.214 375.406 790.44 373.08C792.05 356.22 793.35 341.55 792.91 332.72C789.57 265.67 775.31 208.09 750.53 161.59C729.91 122.9 701.89 91.5898 667.27 68.4598C606.83 28.1498 543.27 23.7998 518.78 23.7998H518.82Z" fill="#020201"/>
<path id="Vector_9" d="M270.581 512.28C255.181 463.83 238.251 410 236.751 403C233.981 390 234.751 336.23 234.751 336.23C237.071 275.65 249.121 227.17 266.971 188.38C259.531 218.25 246.971 299.57 277.151 446.94C289.541 507.59 284.001 521.56 270.581 512.28Z" fill="#6D3F8E"/>
</g>
</g>
<path id="Vector_10" d="M371.22 434.58C376.04 406.98 394.11 388.51 420.58 379.3C442.147 371.78 463.12 374.993 483.5 388.94C494.859 396.585 504.415 406.614 511.5 418.33C518.167 429.41 521.5 442.32 521.5 457.06C521.5 481.47 513.69 510.62 492.28 523.54C475.86 533.44 457.243 537.193 436.43 534.8C415.74 532.4 401.97 520.37 389.07 504.05C372.683 483.35 366.733 460.193 371.22 434.58ZM454.94 411.45C454.368 413.013 454.186 414.691 454.41 416.34C454.651 418.114 455.261 419.817 456.2 421.34C457.222 422.982 458.521 424.434 460.04 425.63C461.637 426.903 463.426 427.916 465.34 428.63C469.077 430.049 473.181 430.179 477 429C478.655 428.517 480.177 427.662 481.45 426.501C482.724 425.339 483.716 423.903 484.35 422.3C484.923 420.738 485.105 419.059 484.88 417.41C484.647 415.635 484.037 413.93 483.09 412.41C482.075 410.764 480.779 409.308 479.26 408.11C477.663 406.837 475.874 405.824 473.96 405.11C470.224 403.677 466.116 403.536 462.29 404.71C460.633 405.201 459.11 406.063 457.837 407.231C456.563 408.399 455.573 409.842 454.94 411.45Z" fill="#030201"/>
<path id="Vector_11" d="M474 405.15C465.88 402.15 457.36 404.98 455 411.45C452.64 417.92 457.28 425.58 465.4 428.57C473.52 431.56 482.04 428.74 484.4 422.27C486.76 415.8 482.08 408.14 474 405.15Z" fill="white"/>
<path id="Vector_12" d="M666.59 540C645.13 535.71 629.21 527.4 619.5 506.26C610.82 487.37 608.72 464.83 612.17 445.26C615.89 424 627.487 407.073 646.96 394.48C660.127 386.973 675.263 384.027 692.37 385.64C721.02 388.34 734.9 402.69 748.55 427.02C753.303 435.48 755.557 445.503 755.31 457.09C754.79 481.943 744.683 502.773 724.99 519.58C708.423 533.72 688.957 540.527 666.59 540ZM675.26 420.81C675.24 422.486 675.587 424.147 676.278 425.674C676.969 427.202 677.987 428.559 679.26 429.65C682.092 432.113 685.697 433.507 689.45 433.59C691.347 433.653 693.241 433.393 695.05 432.82C696.797 432.281 698.43 431.427 699.87 430.3C701.219 429.238 702.335 427.911 703.15 426.4C703.921 424.957 704.348 423.355 704.4 421.72C704.424 420.042 704.078 418.379 703.387 416.849C702.695 415.319 701.676 413.961 700.4 412.87C697.569 410.405 693.962 409.014 690.21 408.94C688.314 408.879 686.421 409.136 684.61 409.7C682.866 410.243 681.236 411.101 679.8 412.23C678.449 413.285 677.332 414.61 676.52 416.12C675.749 417.564 675.318 419.164 675.26 420.8V420.81Z" fill="#030201"/>
<path id="Vector_13" d="M690.21 408.929C682.21 408.679 675.48 413.989 675.21 420.799C674.94 427.609 681.35 433.319 689.39 433.579C697.43 433.839 704.13 428.519 704.34 421.709C704.55 414.899 698.26 409.179 690.21 408.929Z" fill="white"/>
<path id="Vector_14" d="M594.55 591.4C594.571 591.321 594.609 591.247 594.66 591.183C594.712 591.119 594.777 591.067 594.85 591.03C594.924 590.998 595.004 590.981 595.085 590.981C595.166 590.981 595.246 590.998 595.32 591.03L595.95 591.2C596.625 591.438 597.232 591.835 597.721 592.357C598.21 592.879 598.567 593.511 598.76 594.2C599.288 595.921 599.288 597.76 598.76 599.48L596.37 607.71C596.11 608.606 595.726 609.461 595.23 610.25C594.771 610.981 594.197 611.633 593.53 612.18C592.941 612.651 592.26 612.992 591.53 613.18C590.876 613.361 590.184 613.361 589.53 613.18L588.9 612.98C588.823 612.96 588.751 612.922 588.69 612.87C588.624 612.819 588.569 612.754 588.53 612.68C588.492 612.609 588.468 612.531 588.46 612.45C588.445 612.371 588.445 612.29 588.46 612.21L594.55 591.4Z" fill="#09040A"/>
<path id="Vector_15" d="M558.66 617.55C558.665 617.6 558.665 617.65 558.66 617.7C558.65 617.751 558.63 617.798 558.6 617.84L558.49 617.95H558.35H558.15C557.097 618.186 556 618.141 554.97 617.82C553.838 617.473 552.795 616.886 551.91 616.1C550.912 615.232 550.073 614.196 549.43 613.04C548.736 611.815 548.228 610.494 547.92 609.12L547 604.98C546.36 602.316 546.57 599.519 547.6 596.98C548.007 595.924 548.657 594.978 549.498 594.22C550.339 593.463 551.347 592.914 552.44 592.62L552.66 592.57C552.756 592.551 552.856 592.569 552.94 592.62C552.984 592.643 553.022 592.676 553.051 592.716C553.081 592.755 553.101 592.801 553.11 592.85L558.66 617.55Z" fill="#09040A"/>
<path id="Vector_16" d="M660.63 682.81L659.36 696.91C659.295 697.536 659.101 698.142 658.79 698.69C658.485 699.234 658.065 699.705 657.56 700.07C634.743 716.996 607.251 726.454 578.85 727.15C558.97 727.75 541.1 728.27 522.46 723.88C496.544 717.756 472.63 705.093 453 687.1C452.439 686.598 452.057 685.928 451.909 685.191C451.761 684.454 451.856 683.688 452.18 683.01C454.27 678.56 458.32 672.25 464.18 671.93C464.621 671.902 465.061 671.999 465.45 672.21C465.843 672.413 466.171 672.721 466.4 673.1C466.633 673.476 466.761 673.909 466.77 674.353C466.779 674.796 466.668 675.234 466.45 675.62L464.45 679.04C463.98 679.867 463.82 680.835 464 681.77C464.188 682.7 464.711 683.529 465.47 684.1C481.47 696.16 498.47 706.91 519.53 712.18C555.59 721.18 598.14 720.69 632.47 702.82C641.01 698.38 644.47 689.72 648.22 683.93C648.455 683.477 648.799 683.089 649.22 682.8C649.628 682.502 650.101 682.307 650.6 682.23L658.78 681.03C659.028 680.998 659.281 681.022 659.52 681.1C659.752 681.178 659.963 681.309 660.137 681.482C660.31 681.656 660.441 681.867 660.52 682.1C660.613 682.324 660.651 682.567 660.63 682.81Z" fill="#030201"/>
<path id="Vector_17" d="M657 184.08C663.79 211.75 656.75 240 642.4 262.89C636.06 272.94 624.59 279.89 612.18 287.89C592.87 300.36 566.24 300.46 545.85 291.08C535.008 286.262 524.814 280.1 515.51 272.74C493.25 254.74 480.51 218.81 484.64 190.64C488.64 163.56 501.26 142.17 524.32 127.87C530.32 124.13 538.346 121.66 548.4 120.46C569.48 117.97 587.55 115.85 606.54 123.81C633.026 134.923 649.846 155.013 657 184.08ZM572.81 147.15C572.174 148.812 571.974 150.609 572.23 152.37C572.508 154.297 573.19 156.143 574.23 157.79C575.402 159.621 576.876 161.241 578.59 162.58C582.257 165.462 586.691 167.201 591.34 167.58C593.506 167.759 595.687 167.57 597.79 167.02C599.68 166.538 601.446 165.658 602.97 164.44C604.363 163.329 605.439 161.871 606.088 160.211C606.738 158.552 606.938 156.751 606.67 154.99C606.394 153.065 605.712 151.221 604.67 149.58C603.498 147.745 602.024 146.122 600.31 144.78C598.494 143.341 596.471 142.184 594.31 141.35C592.15 140.496 589.875 139.97 587.56 139.79C585.394 139.603 583.212 139.789 581.11 140.34C579.219 140.827 577.454 141.71 575.93 142.93C574.532 144.043 573.444 145.496 572.77 147.15H572.81Z" fill="#030201"/>
<path id="Vector_18" d="M594.27 141.35C585.07 137.74 575.44 140.35 572.77 147.15C570.1 153.95 575.4 162.41 584.6 166C593.8 169.59 603.42 167 606.09 160.19C608.76 153.38 603.47 145 594.27 141.35Z" fill="white"/>
<path id="Vector_19" d="M369.85 358.79C369.254 358.972 368.623 359.01 368.009 358.9C367.396 358.791 366.817 358.537 366.32 358.16C365.828 357.78 365.43 357.291 365.16 356.73C364.891 356.166 364.761 355.545 364.78 354.92C365.53 329.24 391.91 309.03 414.57 302.14C441.117 294.04 466.704 296.204 491.33 308.63C506.43 316.24 516.91 330.82 514.33 348.33C513.23 355.744 508.71 358.117 500.77 355.45C482.77 349.45 473.25 345.51 458.9 343.52C434.562 339.944 409.71 343.155 387.08 352.8C381.4 355.2 374.42 357.37 369.85 358.79Z" fill="#09040A"/>
<path id="Vector_20" d="M765.17 362.129C763.31 363.463 760.913 363.663 757.98 362.729C721.52 351.179 685.21 341.219 648.21 355.469C645.204 356.502 642.022 356.927 638.85 356.719C619.18 356.089 628.85 335.429 635.68 327.519C651.8 308.773 670.907 299.233 693 298.899C731.51 298.299 761 320.679 766.19 359.739C766.251 360.191 766.189 360.65 766.01 361.069C765.833 361.493 765.542 361.86 765.17 362.129Z" fill="#09040A"/>
<path id="Vector_21" d="M283 448.1C283 448.1 211.55 348.64 140.09 363.32C68.63 378 183 609.839 299 606.419" fill="#996CB3"/>
<path id="Vector_22" d="M279.17 521.27C282.12 525.27 291.17 587 225.09 538.42C188.44 511.47 177.54 471.7 169.43 441C152.61 379.13 230.3 455 279.17 521.27Z" fill="#6D4E7E"/>
<path id="Vector_23" d="M279.17 521.269C279.131 521.516 279.077 521.759 279.01 521.999C278.962 522.17 278.864 522.324 278.73 522.439C278.595 522.562 278.429 522.645 278.25 522.679C278.072 522.724 277.887 522.724 277.71 522.679C277.539 522.62 277.384 522.521 277.26 522.389L256.46 498.859C256.368 498.746 256.247 498.66 256.11 498.609C255.969 498.559 255.819 498.539 255.67 498.549C255.519 498.568 255.375 498.623 255.25 498.709C255.131 498.791 255.035 498.901 254.97 499.029C250.44 507.769 249.52 520.419 253.45 529.229C256.571 536.361 261.055 542.815 266.65 548.229C266.705 548.274 266.741 548.338 266.75 548.409C266.755 548.443 266.753 548.479 266.742 548.512C266.732 548.545 266.714 548.575 266.69 548.599C266.648 548.664 266.584 548.711 266.51 548.729C266.438 548.749 266.362 548.749 266.29 548.729C258.756 545.683 252.836 541.483 248.53 536.129C244.476 531.103 242.346 524.406 242.14 516.039C241.98 507.717 243.847 499.48 247.58 492.039C248.029 491.142 248.229 490.141 248.16 489.139C248.093 488.137 247.769 487.17 247.22 486.329C234.46 466.759 215.11 449.329 197.74 436.139C190.81 430.839 181.84 426.309 173.35 422.139C172.283 421.633 171.395 420.816 170.802 419.795C170.209 418.773 169.94 417.597 170.03 416.419C170.056 416.172 170.134 415.934 170.26 415.719C170.396 415.507 170.572 415.323 170.78 415.179C170.995 415.042 171.237 414.95 171.49 414.909C171.743 414.854 172.006 414.854 172.26 414.909C180.97 417.097 189.272 420.669 196.85 425.489C225.596 443.94 249.72 468.748 267.36 497.999C271.949 505.407 275.9 513.192 279.17 521.269Z" fill="#09040A"/>
<path id="Vector_24" d="M283 448.1C283 448.1 211.55 348.64 140.09 363.32C68.63 378 183 609.839 299 606.419" stroke="black" stroke-width="7" stroke-linecap="round" stroke-linejoin="round"/>
</g>
</g>
</svg>
