<svg width="1000" height="1202" viewBox="0 0 1000 1202" fill="none" xmlns="http://www.w3.org/2000/svg">
<g id="Head 09">
<g id="8 head">
<g id="neck">
<path id="Vector" d="M493.29 1141.5C482.675 1141.51 472.092 1140.33 461.74 1137.98C425.93 1129.84 395.8 1114.98 360.99 1088.22C352.66 1081.8 352.04 1074.78 352.99 1070.01C356.13 1053.91 360.14 871.41 360.3 850.77C360.35 844.53 360.36 828.6 360.3 812.03C360.3 793.41 360.14 775.15 359.99 761.93C359.85 750.34 359.68 742.929 359.5 739.229L359.08 731.02L366.22 735.09C367.32 735.72 371.77 737.879 376.49 740.159C395.14 749.159 403.84 753.59 406.1 755.75C409.26 758.32 433.15 765.86 443.36 769.07C453.03 772.07 454.36 772.58 455.3 773.14C462.88 777.75 471.03 781.19 479.67 784.83C486.17 787.57 492.9 790.409 500.01 793.979C511.4 799.699 516.85 802.25 519.01 802.25C519.806 802.191 520.592 802.033 521.35 801.78C524.05 801.06 528.14 799.96 536.96 799.96C540.52 799.96 544.64 800.14 549.19 800.5C557.93 800.59 562.26 806.24 565.43 810.38C568.15 813.92 569.43 815.38 571.58 815.38C572.574 815.345 573.554 815.142 574.48 814.78L580.61 812.59L580.5 819.099C580.5 821.439 580.5 824.89 580.57 828.81C580.78 838.35 581.3 850.02 582 860.81C582.46 867.98 583 899 583.67 934.93C584.67 988.56 586.1 1069.54 587.61 1076.17C590.17 1083.99 588.61 1091.63 583.19 1098.27C560.59 1125.84 535.87 1139.07 503.02 1141.16C499.77 1141.39 496.5 1141.5 493.29 1141.5Z" fill="#4DA4DB"/>
<path id="Vector_2" d="M364 739C367.84 741.19 399.87 756 403 759C407.51 763.38 451 775.82 453 777C466.52 785.24 481.42 789.67 498 798C511.79 804.92 516 806.75 519 806.75C522.42 806.75 524.43 804.46 536.94 804.46C540.19 804.46 544.13 804.61 548.94 805H549.01C561.4 805 561.83 819.86 571.52 819.86C573.052 819.838 574.568 819.546 576 819C576 821.34 576 824.75 576.07 828.89C576.26 837.47 576.74 849.2 577.51 861.12C578.73 880.12 580.67 1069.53 583.31 1077.52C585.443 1083.95 584.243 1089.92 579.71 1095.44C560.29 1119.13 538.02 1134.44 502.71 1136.69C499.543 1136.9 496.396 1137.01 493.27 1137C482.991 1137.01 472.743 1135.87 462.72 1133.59C424.16 1124.83 394.26 1108.12 363.72 1084.65C358.486 1080.65 356.377 1076.06 357.39 1070.89C360.7 1053.95 364.65 868.55 364.79 850.81C364.84 844.99 364.85 829.65 364.79 812.02C364.79 795.32 364.65 776.56 364.48 761.88C364.35 751.48 364.19 743.12 363.98 739M354.16 723L354.99 739.42C355.18 743.05 355.34 750.42 355.48 761.95C355.69 779.95 355.76 801.01 355.79 811.95C355.84 828.58 355.79 844.49 355.79 850.64C355.63 870.71 351.58 1053.64 348.56 1069.07C347.56 1073.97 347.56 1083.46 358.23 1091.69C393.59 1118.86 424.23 1133.99 460.74 1142.28C471.417 1144.7 482.332 1145.92 493.28 1145.91C496.58 1145.91 499.96 1145.8 503.28 1145.58C521.61 1144.41 537.42 1139.92 551.6 1131.83C564.16 1124.68 575.3 1114.89 586.6 1101.06C593 1093.25 594.84 1084.26 591.92 1075.06C590.47 1066.22 589.05 987.22 588.1 934.8C587.42 897.35 586.89 867.8 586.42 860.49C585.73 849.74 585.21 838.13 585 828.64C584.91 824.79 584.89 821.4 584.93 819.1L585.15 806.1L573 810.53C572.603 810.682 572.19 810.789 571.77 810.85C570.77 809.86 569.856 808.786 569.04 807.64C565.74 803.33 560.23 796.14 549.42 796C544.81 795.64 540.63 795.46 536.99 795.46C527.58 795.46 523.15 796.65 520.22 797.46L519.03 797.76C516.78 797.36 507.6 792.76 502.08 789.98C494.83 786.34 488.08 783.47 481.47 780.71C472.99 777.13 464.98 773.71 457.72 769.33C456.3 768.48 454.93 768.02 444.82 764.83C436.14 762.1 413.27 754.88 408.96 752.22C406.22 749.83 399.77 746.44 378.55 736.16C374.32 734.11 369.55 731.79 368.55 731.23L354.18 723H354.16Z" fill="#020201"/>
<path id="Vector_3" d="M577.51 861.12C564.18 865.342 550.292 867.54 536.31 867.64C496.46 867.82 455.9 860.009 420.72 843.289C403.167 834.949 387.233 826.656 372.92 818.409C370.03 816.528 367.316 814.389 364.81 812.02C364.81 795.32 364.17 753.68 364 739.02C395.84 756.42 423.23 800.689 459.48 812.299C490 822.06 513 830 547.61 830.65C557.13 830.891 566.652 830.302 576.07 828.89C576.26 837.47 576.74 849.2 577.51 861.12Z" fill="#2D74AA"/>
</g>
<g id="head">
<path id="Vector_4" d="M579 820C575.72 820.44 597.39 818.55 596 821C590.08 822.62 585.41 826.5 567.73 829.43C556.96 831.171 546.039 831.798 535.14 831.3C514.92 830.45 497.75 828.3 478.6 820.23C452.939 809.398 428.348 796.187 405.15 780.77C400.15 777.437 395.351 773.811 390.78 769.91C377.967 758.95 368.04 749.98 361 743C341.89 724.07 327.42 699.27 316 672C320.25 677.86 323.56 685.52 327.48 691.52C341.865 713.028 359.393 732.259 379.48 748.57C407.57 771.06 442.97 787.16 476.87 803C500.14 813.88 510.16 815.06 538.38 816C553.15 816.5 572.85 820 579 820Z" fill="#020201"/>
<g id="face">
<path id="Vector_5" d="M571.58 829H571.4C415.65 816.34 344.88 739 312.93 676.31C303.207 657.238 295.82 637.062 290.93 616.22C287.36 600.76 283.21 584.89 278.6 569.05C277.31 564.61 275.95 560.05 274.6 555.57C272.91 550.07 271.1 544.36 269.23 538.57L261.11 513.57C251.49 483.94 242.11 447.57 233.2 405.57C232.95 404.37 232.76 403.47 232.63 402.9C231.73 398.76 230.49 390.43 228.97 378.12C223.09 330.69 226.24 284 238.34 239.37C243.219 221.176 249.677 203.442 257.64 186.37C274.29 150.96 297.23 120.69 325.81 96.3702C349.646 76.3198 376.692 60.4306 405.81 49.3702C457.5 29.3702 501.64 28.3702 509.97 28.3702H510.81C511.57 28.3202 514.42 28.1602 518.99 28.1602C543.6 28.1602 607.4 32.4402 668.07 72.0502C702.81 94.7202 730.93 125.5 751.64 163.54C776.64 209.45 791.04 266.41 794.42 332.81C794.86 341.36 793.54 355.86 791.91 372.53L791.19 379.83C788.54 406.66 785.25 440.05 785.42 470.18C785.64 508.28 776.36 569.33 770.81 602.33C768.68 614.91 767.17 623.03 767.15 623.11V623.29L767.1 623.47C748.93 689.79 720.46 741.59 682.49 777.47C650.4 807.77 618.21 820.23 596.86 825.36C582.42 828.83 572.86 828.93 571.86 828.93L571.58 829Z" fill="#4DA4DB"/>
<path id="Vector_6" d="M519 32.7998C563.28 32.7998 775.4 47.7298 789.94 333.17C790.35 341.17 789.12 355.1 787.44 372.22C784.69 400.38 780.74 437.17 780.93 470.34C781.15 508.49 771.74 569.85 766.38 601.71C764.24 614.4 762.74 622.41 762.74 622.41C721.61 772.5 637.22 811.15 595.74 821.09C581.74 824.46 572.63 824.54 571.79 824.54H571.73C418.17 812.06 348.43 736.07 316.94 674.3C307.368 655.557 300.105 635.722 295.31 615.23C291.63 599.29 287.5 583.487 282.92 567.82C281.587 563.286 280.237 558.773 278.87 554.28C277.123 548.593 275.327 542.927 273.48 537.28C270.89 529.28 268.15 520.9 265.36 512.28C249.63 463.83 238.52 409 237 402C236 397.44 234.69 388 233.41 377.63C227.572 331.796 230.71 285.264 242.65 240.63C247.447 222.699 253.804 205.222 261.65 188.4C333.21 36.2798 496 32.9998 510 32.9998H511C511 32.9998 513.89 32.7998 519.07 32.7998M519.07 23.7998C514.69 23.7998 511.8 23.9398 510.77 23.9998H510C501.53 23.9998 456.65 24.9998 404.22 45.2598C374.625 56.5231 347.137 72.6891 322.91 93.0798C293.83 117.78 270.51 148.56 253.58 184.56C245.504 201.856 238.952 219.824 234 238.26C221.75 283.45 218.56 330.72 224.52 378.74C226.08 391.36 227.3 399.6 228.25 403.93C228.37 404.49 228.56 405.38 228.81 406.57C237.74 448.79 247.17 485.29 256.81 515.06C259.29 522.69 261.72 530.18 264.05 537.33L264.93 540.03C266.79 545.76 268.59 551.44 270.28 556.93C271.66 561.43 273.01 565.93 274.28 570.34C278.87 586.11 283 601.9 286.54 617.25C291.513 638.456 299.028 658.984 308.92 678.39C341.39 742.08 413.22 820.69 571.03 833.51H571.4H571.82C573.6 833.51 583.24 833.33 597.88 829.81C619.75 824.56 652.73 811.81 685.54 780.81C724.12 744.38 753.01 691.87 771.4 624.75L771.5 624.39L771.57 624.03C771.57 623.95 773.11 615.79 775.23 603.17C780.81 570.02 790.13 508.69 789.91 470.25C789.74 440.34 793.02 407.08 795.66 380.36C795.9 377.87 796.15 375.43 796.38 373.05C798.03 356.21 799.38 341.53 798.91 332.67C795.49 265.59 780.91 207.99 755.59 161.48C734.52 122.79 705.9 91.4798 670.53 68.3698C608.84 28.1398 544 23.7998 519 23.7998H519.07Z" fill="#020201"/>
<path id="Vector_7" d="M278.87 554.279C277.123 548.593 275.327 542.926 273.48 537.279C270.89 529.279 268.15 520.899 265.36 512.279C249.63 463.829 238.52 408.999 237 401.999C236 397.439 234.69 387.999 233.41 377.629C227.572 331.796 230.71 285.264 242.65 240.629C247.447 222.698 253.805 205.222 261.65 188.399C254.04 218.269 250.19 297.999 272.05 446.959C273.33 455.689 274.47 464.019 275.46 471.899C275.46 472.019 275.46 472.139 275.51 472.249C282 523.829 282.51 555.859 278.87 554.279Z" fill="#2D74AA"/>
</g>
<path id="Vector_8" d="M271.15 442.43C271 443 284.53 519.35 282.77 575.18" stroke="#020201" stroke-width="9" stroke-linecap="round" stroke-linejoin="round"/>
</g>
<path id="Vector_9" d="M324.32 309.92C324.104 309.975 323.877 309.975 323.66 309.92C323.441 309.888 323.233 309.799 323.06 309.66C322.888 309.529 322.75 309.357 322.66 309.16C322.571 308.959 322.53 308.74 322.54 308.52C323.38 297.45 349.49 290.09 358.95 286.96C392.21 275.933 425.727 277.56 459.5 291.84C471.5 296.89 478.15 306.33 485.89 317.84C487.08 319.63 487.62 320.97 487.53 321.84C487.499 322.124 487.395 322.396 487.23 322.63C487.063 322.864 486.839 323.053 486.58 323.18C486.321 323.302 486.036 323.36 485.75 323.35C485.466 323.329 485.192 323.24 484.95 323.09C467.95 312.3 442.66 298.98 421.66 295.98C393.32 291.98 366.82 294.476 342.16 303.47C334.84 306.223 328.894 308.373 324.32 309.92Z" fill="#040200"/>
<path id="Vector_10" d="M778.71 308.09C745.58 300.23 709.45 291.16 675.96 304.51C664.667 308.983 656.777 312.043 652.29 313.69C651.825 313.863 651.319 313.891 650.839 313.769C650.358 313.648 649.926 313.383 649.6 313.01C649.271 312.632 649.059 312.166 648.99 311.67C648.926 311.172 649.014 310.667 649.24 310.22C659.67 289.91 675.46 284.86 697.85 281.87C728.21 277.79 759.75 282.09 780.54 305.01C780.798 305.31 780.955 305.684 780.99 306.079C781.024 306.474 780.933 306.869 780.73 307.21C780.529 307.553 780.225 307.823 779.86 307.98C779.496 308.129 779.096 308.167 778.71 308.09Z" fill="#040200"/>
<path id="Vector_11" d="M484.88 429.5C485.01 429.67 485.17 429.85 485.35 430.05C498.19 443.983 507.633 460.623 513.68 479.97C517.546 492.377 519.563 503.493 519.73 513.32C519.912 524.573 516.809 535.634 510.8 545.15C476.09 601.86 397.73 573.15 363.71 533.44C329.69 493.73 313.18 412 374.5 386.27C384.833 381.776 396.25 380.387 407.36 382.27C417.026 383.943 427.693 387.61 439.36 393.27C457.56 402.21 472.56 414.087 484.36 428.9C484.58 429.17 484.73 429.35 484.88 429.5ZM436.73 425.33C434.57 428.24 434.13 432.25 435.52 436.48C437.167 441.057 440.166 445.026 444.12 447.86C446.129 449.358 448.341 450.564 450.69 451.44C452.872 452.269 455.177 452.732 457.51 452.81C459.562 452.884 461.607 452.523 463.51 451.75C465.218 451.049 466.706 449.903 467.82 448.43C469.98 445.51 470.42 441.5 469.03 437.28C467.38 432.702 464.377 428.733 460.42 425.9C458.414 424.396 456.201 423.19 453.85 422.32C451.671 421.491 449.37 421.028 447.04 420.95C444.987 420.876 442.942 421.237 441.04 422.01C439.33 422.708 437.841 423.855 436.73 425.33Z" fill="#040200"/>
<path id="Vector_12" d="M460.43 425.899C451.85 419.519 441.23 419.269 436.73 425.329C432.23 431.389 435.53 441.489 444.12 447.859C452.71 454.229 463.32 454.489 467.83 448.429C472.34 442.369 469 432.279 460.43 425.899Z" fill="#FFFFFE"/>
<path id="Vector_13" d="M617.63 560.439C603.73 545.839 602.4 515.439 608.23 496.539C619.23 460.659 638.52 429.219 669.68 408.109C684.56 398.036 700.24 394.333 716.72 396.999C729.867 399.126 741.13 403.686 750.51 410.679C769.38 424.679 769.05 449.609 765.05 472.879C762.203 489.613 756.237 504.236 747.15 516.749C731.25 538.749 713.8 556.849 687.3 567.169C661.92 576.999 637.05 580.829 617.63 560.439ZM690.73 434.349C689.868 432.721 688.626 431.325 687.11 430.279C685.474 429.169 683.625 428.413 681.68 428.059C679.564 427.679 677.396 427.679 675.28 428.059C670.791 428.82 666.658 430.98 663.47 434.229C661.957 435.761 660.728 437.549 659.84 439.509C659.021 441.306 658.588 443.255 658.57 445.229C658.555 447.073 658.994 448.893 659.848 450.527C660.703 452.161 661.947 453.56 663.47 454.599C665.105 455.713 666.955 456.472 668.9 456.829C671.017 457.205 673.183 457.205 675.3 456.829C679.787 456.059 683.919 453.897 687.11 450.649C688.625 449.124 689.854 447.339 690.74 445.379C691.554 443.581 691.987 441.633 692.01 439.659C692.015 437.812 691.576 435.991 690.73 434.349Z" fill="#040200"/>
<path id="Vector_14" d="M681.69 454.67C690.22 450.21 694.27 441.12 690.69 434.35C687.11 427.58 677.37 425.73 668.85 430.18C660.33 434.63 656.27 443.74 659.85 450.5C663.43 457.26 673.16 459.13 681.69 454.67Z" fill="#FFFFFE"/>
<path id="Vector_15" d="M449 669C452.172 663.392 456.42 658.465 461.5 654.5C461.95 654.122 462.522 653.92 463.11 653.93C463.694 653.938 464.256 654.159 464.69 654.55C469.423 658.77 470.45 662.637 467.77 666.15C467.602 666.365 467.483 666.614 467.42 666.88C467.366 667.144 467.366 667.416 467.42 667.68C467.461 667.951 467.56 668.21 467.71 668.44C467.858 668.668 468.052 668.862 468.28 669.01C471.906 671.363 478.39 676.063 487.73 683.11C515.79 704.28 570.73 706.8 602.08 691.26C616.7 684.02 625.33 679.11 635.9 669.68C636.329 669.298 636.849 669.033 637.41 668.91C637.966 668.79 638.543 668.811 639.09 668.97C639.639 669.126 640.139 669.423 640.54 669.83C640.942 670.239 641.237 670.74 641.4 671.29L642.03 673.56C642.22 674.219 642.241 674.916 642.091 675.585C641.94 676.255 641.623 676.875 641.17 677.39C633.17 686.417 625.033 693.03 616.76 697.23C591.513 709.99 563.926 714.883 534 711.91C506.92 709.19 487.94 700.11 467.24 684.22C461.654 679.795 455.85 675.653 449.85 671.81C449.378 671.537 449.028 671.094 448.87 670.573C448.713 670.051 448.759 669.489 449 669Z" fill="#040200"/>
<path id="Vector_16" d="M584.63 737.569C584.839 737.568 585.046 737.619 585.23 737.719C585.408 737.824 585.554 737.976 585.65 738.159C585.748 738.34 585.793 738.544 585.781 738.749C585.768 738.954 585.699 739.152 585.58 739.319C583.819 741.814 581.394 743.764 578.58 744.949C562.4 752.189 525.58 766.069 519.84 740.819C519.764 740.481 519.81 740.127 519.97 739.819C520.141 739.512 520.418 739.277 520.75 739.159C523.222 738.297 525.822 737.857 528.44 737.859C546.813 738.133 565.543 738.036 584.63 737.569Z" fill="#2D74AA"/>
</g>
</g>
</svg>
