<svg width="1000" height="1202" viewBox="0 0 1000 1202" fill="none" xmlns="http://www.w3.org/2000/svg">
<g id="Head 07">
<g id="7 head">
<g id="neck">
<path id="Vector" d="M493.29 1141.5C482.675 1141.51 472.092 1140.33 461.74 1137.98C425.93 1129.84 395.8 1114.98 360.99 1088.22C352.66 1081.8 352.04 1074.78 352.99 1070.01C356.13 1053.91 360.14 871.41 360.3 850.77C360.35 844.53 360.36 828.6 360.3 812.03C360.3 793.41 360.14 775.15 359.99 761.93C359.85 750.34 359.68 742.929 359.5 739.229L359.08 731.02L366.22 735.09C367.32 735.72 371.77 737.879 376.49 740.159C395.14 749.159 403.84 753.59 406.1 755.75C409.26 758.32 433.15 765.86 443.36 769.07C453.03 772.07 454.36 772.58 455.3 773.14C462.88 777.75 471.03 781.19 479.67 784.83C486.17 787.57 492.9 790.409 500.01 793.979C511.4 799.699 516.85 802.25 519.01 802.25C519.806 802.191 520.593 802.033 521.35 801.78C524.05 801.06 528.14 799.96 536.96 799.96C540.52 799.96 544.64 800.14 549.19 800.5C557.93 800.59 562.26 806.24 565.43 810.38C568.15 813.92 569.43 815.38 571.58 815.38C572.574 815.345 573.554 815.142 574.48 814.78L580.61 812.59L580.5 819.099C580.5 821.439 580.5 824.89 580.57 828.81C580.78 838.35 581.3 850.02 582 860.81C582.46 867.98 583 899 583.67 934.93C584.67 988.56 586.1 1069.54 587.61 1076.17C590.17 1083.99 588.61 1091.63 583.19 1098.27C560.59 1125.84 535.87 1139.07 503.02 1141.16C499.77 1141.39 496.5 1141.5 493.29 1141.5Z" fill="#71BD66"/>
<path id="Vector_2" d="M364 739C367.84 741.19 399.87 756 403 759C407.51 763.38 451 775.82 453 777C466.52 785.24 481.42 789.67 498 798C511.79 804.92 516 806.75 519 806.75C522.42 806.75 524.43 804.46 536.94 804.46C540.19 804.46 544.13 804.61 548.94 805H549.01C561.4 805 561.83 819.86 571.52 819.86C573.052 819.838 574.568 819.546 576 819C576 821.34 576 824.75 576.07 828.89C576.26 837.47 576.74 849.2 577.51 861.12C578.73 880.12 580.67 1069.53 583.31 1077.52C585.443 1083.95 584.243 1089.92 579.71 1095.44C560.29 1119.13 538.02 1134.44 502.71 1136.69C499.543 1136.9 496.397 1137.01 493.27 1137C482.991 1137.01 472.743 1135.87 462.72 1133.59C424.16 1124.83 394.26 1108.12 363.72 1084.65C358.487 1080.65 356.377 1076.06 357.39 1070.89C360.7 1053.95 364.65 868.55 364.79 850.81C364.84 844.99 364.85 829.65 364.79 812.02C364.79 795.32 364.65 776.56 364.48 761.88C364.35 751.48 364.19 743.12 363.98 739M354.15 723L354.99 739.42C355.18 743.04 355.34 750.42 355.48 761.95C355.69 779.89 355.76 801.01 355.79 811.95C355.84 828.58 355.79 844.49 355.79 850.64C355.63 870.71 351.58 1053.64 348.56 1069.07C347.56 1073.97 347.56 1083.46 358.23 1091.69C393.6 1118.86 424.23 1133.99 460.74 1142.28C471.417 1144.7 482.332 1145.92 493.28 1145.91C496.58 1145.91 499.96 1145.8 503.28 1145.58C521.61 1144.41 537.42 1139.92 551.6 1131.83C564.16 1124.68 575.3 1114.89 586.6 1101.06C593 1093.25 594.84 1084.26 591.92 1075.06C590.47 1066.22 589.05 987.22 588.1 934.8C587.42 897.35 586.89 867.8 586.42 860.49C585.73 849.74 585.21 838.13 585 828.64C584.91 824.79 584.89 821.4 584.93 819.1L585.15 806.1L573 810.53C572.603 810.682 572.191 810.789 571.77 810.85C570.77 809.86 569.856 808.786 569.04 807.64C565.74 803.33 560.23 796.14 549.42 796C544.81 795.64 540.63 795.46 536.99 795.46C527.58 795.46 523.15 796.65 520.22 797.46L519.03 797.76C516.78 797.36 507.6 792.76 502.08 789.98C494.83 786.34 488.08 783.47 481.47 780.71C472.99 777.13 464.98 773.71 457.72 769.33C456.3 768.48 454.93 768.02 444.82 764.83C436.14 762.1 413.27 754.88 408.96 752.22C406.22 749.83 399.77 746.44 378.55 736.16C374.32 734.11 369.55 731.79 368.55 731.23L354.17 723H354.15Z" fill="#020201"/>
<path id="Vector_3" d="M577.51 861.12C564.18 865.342 550.292 867.54 536.31 867.64C496.46 867.82 455.9 860.009 420.72 843.289C403.167 834.949 387.233 826.656 372.92 818.409C370.03 816.528 367.316 814.389 364.81 812.02C364.81 795.32 364.17 753.68 364 739.02C395.84 756.42 423.23 800.689 459.48 812.299C490 822.06 513 830 547.61 830.65C557.13 830.891 566.652 830.302 576.07 828.89C576.26 837.47 576.74 849.2 577.51 861.12Z" fill="#427F41"/>
</g>
<g id="head">
<path id="Vector_4" d="M577.55 820C574.34 820.44 595.55 818.55 594.22 821C588.43 822.62 583.87 826.5 566.56 829.43C556.025 831.171 545.336 831.798 534.67 831.3C514.88 830.45 498.08 828.3 479.34 820.23C454.187 809.377 430.119 796.164 407.46 780.77C402.559 777.432 397.86 773.806 393.39 769.91C380.79 758.95 371.037 749.97 364.13 742.97C345.42 724.04 331.26 699.24 320.13 671.97C324.3 677.83 327.53 685.49 331.36 691.49C345.388 712.934 362.541 732.163 382.25 748.54C409.74 771.03 444.39 787.13 477.57 802.97C500.34 813.85 510.14 815.03 537.76 815.97C552.21 816.5 571.49 820 577.55 820Z" fill="#020201"/>
<g id="face">
<path id="Vector_5" d="M570.3 829H570.05C457.54 819.67 375.35 783.58 332.36 724.63C303.47 685.02 295.09 631.69 290.08 599.82C288.82 591.82 287.74 584.94 286.61 579.97C282.89 563.49 282.2 561.6 280.16 555.97C279.78 554.97 279.35 553.77 278.86 552.39C277.47 548.5 276 544.1 274.23 538.56C271.14 528.86 237.09 423.84 234.77 417.48L234.32 416.24C230.82 406.64 224.97 390.57 222.53 370.48C218.61 338.11 215 275.61 235 221.35C240.233 206.776 247.426 192.983 256.38 180.35C298.041 122.088 355.578 77.0341 422.13 50.5598C472.13 30.7698 509.13 28.5598 510.64 28.5598C510.64 28.5598 513.64 28.3398 518.78 28.3398C542.88 28.3398 605.35 32.6198 664.78 72.2498C698.78 94.9298 726.3 125.72 746.57 163.75C771 209.61 785.11 266.55 788.41 333C788.84 341.54 787.56 356 785.96 372.7C784.96 383.04 783.02 395.36 780.96 408.4C777.41 430.82 773.38 456.24 773.5 477.02C773.56 487.4 774.5 498.13 775.5 509.49C778.06 538.86 780.97 572.14 768.25 607.57C764.34 618.44 761.19 626.38 760.59 627.88C708 823.4 584.88 829 571 829H570.3Z" fill="#71BD66"/>
<path id="Vector_6" d="M518.78 32.7998C562.11 32.7998 769.69 47.7298 783.92 333.17C784.32 341.17 783.12 355.1 781.48 372.22C778.78 400.38 768.81 443.83 769 477C769.21 515.15 781.14 558.29 764 606C759.65 618.1 756.3 626.41 756.3 626.41C703.86 821.93 580.53 824.54 571 824.54H570.41C458.72 815.27 377.76 779.26 336 722C300.63 673.51 296.76 604.42 291 579C286.55 559.27 286.35 560.06 283.1 550.94C282.01 547.88 280.58 543.7 278.52 537.25C276 529.29 241.44 422.7 239 416C235.65 406.78 229.48 390.47 227 370C222.05 329.07 221.22 271.77 239.19 222.9C244.281 208.716 251.282 195.292 260 183C362.25 40.9998 510.88 32.9998 510.88 32.9998C510.88 32.9998 513.71 32.7998 518.78 32.7998ZM518.78 23.7998C513.88 23.7998 510.88 23.9798 510.32 24.0198C507.88 24.1598 470.56 26.5698 420.47 46.3798C390.809 58.0995 362.766 73.5578 337.02 92.3798C304.589 116.206 276.131 145.012 252.7 177.73C243.493 190.687 236.092 204.837 230.7 219.79C210.46 275 214.09 338.25 218.07 371.08C220.56 391.69 226.53 408.08 230.07 417.84L230.52 419.07C232.79 425.32 266.83 530.27 269.93 539.99C271.71 545.58 273.2 549.99 274.6 553.99C275.1 555.39 275.53 556.56 275.91 557.6C277.91 563.14 278.55 564.81 282.2 581.01C283.3 585.84 284.37 592.67 285.61 600.57C290.69 632.84 299.18 686.85 328.71 727.33C350.52 757.24 382.36 781.53 423.34 799.54C464.05 817.42 513.28 828.86 569.66 833.54H570.03H571.03C585.25 833.54 711.41 827.81 764.87 629.26C765.68 627.26 768.69 619.61 772.49 609.04C785.55 572.68 782.6 538.87 779.99 509.04C778.99 497.78 778.08 487.15 777.99 476.95C777.87 456.53 781.87 431.31 785.39 409.05C787.46 395.94 789.39 383.56 790.39 373.05C792 356.21 793.3 341.54 792.86 332.69C789.52 265.64 775.26 208.06 750.48 161.56C729.86 122.87 701.84 91.5598 667.22 68.4298C606.83 28.1498 543.3 23.7998 518.78 23.7998Z" fill="#020201"/>
</g>
<path id="Vector_7" d="M283.1 550.939C282.01 547.879 280.58 543.699 278.52 537.249C276 529.289 241.44 422.699 239 415.999C235.65 406.779 229.48 390.469 227 369.999C222.05 329.069 221.22 271.769 239.19 222.899C237.96 256.629 252.89 318.589 271.78 447.399C280.05 503.779 284 542.329 283.1 550.939Z" fill="#427F41"/>
<path id="Vector_8" d="M270.85 442.89C270.7 443.46 284.27 502.68 282.5 558.5" stroke="#020201" stroke-width="9" stroke-linecap="round" stroke-linejoin="round"/>
</g>
<g id="eye brown">
<path id="Vector_9" d="M497.62 377C496.859 376.785 496.116 376.508 495.4 376.171C463.72 354.231 428.667 347.007 390.24 354.5C382.707 355.98 371.197 359.45 355.71 364.91C355.352 365.03 354.969 365.051 354.6 364.97C354.223 364.887 353.876 364.7 353.6 364.43C353.32 364.159 353.125 363.811 353.04 363.43C352.94 363.067 352.94 362.684 353.04 362.321L353.27 361.68C353.699 360.343 354.395 359.106 355.317 358.045C356.238 356.985 357.365 356.122 358.63 355.511C390.96 339.721 424.99 333.28 460.45 343.46C479.61 348.97 491.63 356.81 499.77 374.46C499.914 374.773 499.963 375.121 499.91 375.46C499.855 375.806 499.703 376.129 499.47 376.391C499.234 376.652 498.929 376.843 498.59 376.94C498.278 377.049 497.943 377.069 497.62 377Z" fill="#040402"/>
<path id="Vector_10" d="M757.82 364.11C730.33 354.77 690.3 349.7 663.3 361.9C657.61 364.483 651.789 366.766 645.86 368.74C645.436 368.87 644.984 368.87 644.56 368.74C644.131 368.627 643.745 368.391 643.45 368.06C643.16 367.723 642.972 367.31 642.91 366.87C642.85 366.43 642.92 365.982 643.11 365.58C649.8 351.47 661.31 344.71 677.26 341.73C686.073 340.083 691.937 339.107 694.85 338.8C718.757 336.36 739.23 342.23 756.27 356.41C758.125 357.883 759.398 359.967 759.86 362.29C759.914 362.56 759.897 362.839 759.81 363.1C759.719 363.358 759.564 363.588 759.36 363.77C759.153 363.952 758.901 364.076 758.63 364.13C758.363 364.198 758.083 364.191 757.82 364.11Z" fill="#040402"/>
</g>
<g id="eyes">
<path id="Vector_11" d="M506.44 459.79C513.525 473.643 517.717 488.794 518.76 504.32C519.99 522.49 514.68 536.22 502.39 548.71C488.79 562.5 461.32 565.4 443.08 561.86C401.42 553.86 374.18 526.48 359.23 488.17C355.27 477.996 353.087 465.88 352.68 451.82C351.53 410.59 392 381 431 394.11C464.92 405.57 490.067 427.463 506.44 459.79ZM445.1 429.41C443.16 432.02 442.78 435.61 444.03 439.41C445.582 443.48 448.264 447.022 451.761 449.62C455.259 452.217 459.425 453.761 463.77 454.07C467.77 454.16 471.08 452.76 473.01 450.15C474.94 447.54 475.34 443.95 474.09 440.15C472.539 436.079 469.856 432.537 466.359 429.94C462.862 427.342 458.695 425.798 454.35 425.49C450.36 425.4 447 426.8 445.1 429.41Z" fill="#040402"/>
<path id="Vector_12" d="M466.36 429.939C458.65 424.219 449.13 423.939 445.1 429.409C441.07 434.879 444.05 443.879 451.76 449.609C459.47 455.339 468.98 455.609 473.02 450.139C477.06 444.669 474.07 435.669 466.36 429.939Z" fill="#FFFEFE"/>
<path id="Vector_13" d="M702.79 403.749C719.96 404.069 743.98 412.949 750.79 430.749C767.88 475.599 728.26 536.899 686.66 554.229C651.86 568.769 615.18 565.549 609.23 520.229C608.39 513.869 609.1 506.163 611.36 497.109C618.495 467.483 634.774 440.855 657.89 420.999C670.63 409.999 685.51 403.429 702.79 403.749ZM686.18 437.749C685.396 436.24 684.278 434.929 682.91 433.917C681.543 432.905 679.963 432.219 678.29 431.909C674.421 431.133 670.402 431.679 666.88 433.459C665.073 434.336 663.415 435.494 661.97 436.889C660.593 438.216 659.462 439.777 658.63 441.499C657.857 443.078 657.427 444.803 657.37 446.559C657.316 448.2 657.66 449.83 658.37 451.309C659.158 452.818 660.278 454.128 661.647 455.14C663.016 456.152 664.597 456.839 666.27 457.149C670.14 457.925 674.158 457.379 677.68 455.599C679.485 454.718 681.142 453.561 682.59 452.169C683.965 450.843 685.093 449.282 685.92 447.559C686.692 445.98 687.125 444.256 687.19 442.499C687.234 440.871 686.888 439.256 686.18 437.789V437.749Z" fill="#040402"/>
<path id="Vector_14" d="M677.68 455.64C685.35 451.9 689.16 443.91 686.18 437.79C683.2 431.67 674.55 429.79 666.88 433.5C659.21 437.21 655.39 445.23 658.37 451.35C661.35 457.47 670 459.39 677.68 455.64Z" fill="#FFFEFE"/>
</g>
<g id="smile">
<path id="Vector_15" d="M472 613C474.753 607.46 478.187 603.347 482.3 600.66C482.923 600.255 483.658 600.059 484.4 600.1C485.148 600.135 485.868 600.401 486.46 600.86C487.076 601.337 487.544 601.978 487.81 602.71C488.085 603.441 488.151 604.234 488 605C487.677 606.611 487.63 608.264 487.86 609.89C487.983 610.862 488.43 611.764 489.13 612.45C501.97 624.91 515.56 633.007 529.9 636.74C552.9 642.74 582.9 643.51 605.81 633.82C617.722 628.937 628.734 622.096 638.39 613.58C638.637 613.309 638.938 613.092 639.274 612.944C639.61 612.796 639.973 612.72 640.34 612.72C640.771 612.78 641.182 612.941 641.54 613.19C641.917 613.451 642.231 613.793 642.46 614.19C642.711 614.603 642.878 615.062 642.95 615.54C643.04 616.029 643.04 616.531 642.95 617.02C642.254 620.465 640.507 623.609 637.95 626.02C618.57 644.86 588.69 652.53 561.69 652.02C540.97 651.63 521.76 649.17 504.79 639.13C501.457 637.17 490.747 629.31 472.66 615.55C472.275 615.271 472.002 614.863 471.89 614.4C471.761 613.935 471.8 613.439 472 613Z" fill="#040402"/>
<path id="Vector_16" d="M590.76 673.49C591.202 673.471 591.639 673.59 592.01 673.83C592.375 674.069 592.653 674.42 592.8 674.83C592.945 675.252 592.945 675.709 592.8 676.13C592.654 676.536 592.385 676.886 592.03 677.13C578.55 686.464 563.983 690.587 548.33 689.5C540.677 688.96 536.217 684.927 534.95 677.4C534.831 676.687 534.921 675.954 535.21 675.29C535.5 674.627 535.979 674.064 536.588 673.671C537.196 673.278 537.906 673.072 538.63 673.08C539.343 673.097 540.036 673.315 540.63 673.71C541.824 674.541 543.236 675.003 544.69 675.04C555.47 675.307 570.827 674.79 590.76 673.49Z" fill="#427F41"/>
</g>
</g>
</g>
</svg>
