<svg width="1000" height="1202" viewBox="0 0 1000 1202" fill="none" xmlns="http://www.w3.org/2000/svg">
<g id="Head 03">
<g id="4 neck">
<path id="Vector" d="M493.29 1141.5C482.675 1141.51 472.093 1140.33 461.74 1137.98C425.93 1129.84 395.8 1114.98 360.99 1088.22C352.66 1081.8 352.04 1074.78 352.99 1070.01C356.13 1053.91 360.14 871.41 360.3 850.77C360.35 844.53 360.36 828.6 360.3 812.03C360.3 793.41 360.14 775.15 359.99 761.93C359.85 750.34 359.68 742.929 359.5 739.229L359.08 731.02L366.22 735.09C367.32 735.72 371.77 737.879 376.49 740.159C395.14 749.159 403.84 753.59 406.1 755.75C409.26 758.32 433.15 765.86 443.36 769.07C453.03 772.07 454.36 772.58 455.3 773.14C462.88 777.75 471.03 781.19 479.67 784.83C486.17 787.57 492.9 790.409 500.01 793.979C511.4 799.699 516.85 802.25 519.01 802.25C519.807 802.191 520.593 802.033 521.35 801.78C524.05 801.06 528.14 799.96 536.96 799.96C540.52 799.96 544.64 800.14 549.19 800.5C557.93 800.59 562.26 806.24 565.43 810.38C568.15 813.92 569.43 815.38 571.58 815.38C572.574 815.345 573.554 815.142 574.48 814.78L580.61 812.59L580.5 819.099C580.5 821.439 580.5 824.89 580.57 828.81C580.78 838.35 581.3 850.02 582 860.81C582.46 867.98 583 899 583.67 934.93C584.67 988.56 586.1 1069.54 587.61 1076.17C590.17 1083.99 588.61 1091.63 583.19 1098.27C560.59 1125.84 535.87 1139.07 503.02 1141.16C499.77 1141.39 496.5 1141.5 493.29 1141.5Z" fill="#FD8342"/>
<path id="Vector_2" d="M364 739C367.84 741.19 399.87 756 403 759C407.51 763.38 451 775.82 453 777C466.52 785.24 481.42 789.67 498 798C511.79 804.92 516 806.75 519 806.75C522.42 806.75 524.43 804.46 536.94 804.46C540.19 804.46 544.13 804.61 548.94 805H549.01C561.4 805 561.83 819.86 571.52 819.86C573.052 819.838 574.569 819.546 576 819C576 821.34 576 824.75 576.07 828.89C576.26 837.47 576.74 849.2 577.51 861.12C578.73 880.12 580.67 1069.53 583.31 1077.52C585.443 1083.95 584.243 1089.92 579.71 1095.44C560.29 1119.13 538.02 1134.44 502.71 1136.69C499.543 1136.9 496.397 1137.01 493.27 1137C482.991 1137.01 472.743 1135.87 462.72 1133.59C424.16 1124.83 394.26 1108.12 363.72 1084.65C358.487 1080.65 356.377 1076.06 357.39 1070.89C360.7 1053.95 364.65 868.55 364.79 850.81C364.84 844.99 364.85 829.65 364.79 812.02C364.79 795.32 364.65 776.56 364.48 761.88C364.35 751.48 364.19 743.12 363.98 739M354.16 723L354.99 739.42C355.18 743.05 355.34 750.42 355.48 761.95C355.69 779.95 355.76 801.01 355.79 811.95C355.84 828.58 355.79 844.49 355.79 850.64C355.63 870.71 351.58 1053.64 348.56 1069.07C347.56 1073.97 347.56 1083.46 358.23 1091.69C393.59 1118.86 424.23 1133.99 460.74 1142.28C471.417 1144.7 482.332 1145.92 493.28 1145.91C496.58 1145.91 499.96 1145.8 503.28 1145.58C521.61 1144.41 537.42 1139.92 551.6 1131.83C564.16 1124.68 575.3 1114.89 586.6 1101.06C593 1093.25 594.84 1084.26 591.92 1075.06C590.47 1066.22 589.05 987.22 588.1 934.79C587.42 897.34 586.89 867.79 586.42 860.49C585.73 849.74 585.21 838.13 585 828.64C584.91 824.79 584.89 821.4 584.93 819.1L585.15 806.1L573 810.53C572.603 810.682 572.191 810.789 571.77 810.85C570.77 809.86 569.857 808.786 569.04 807.64C565.74 803.33 560.23 796.14 549.42 796C544.81 795.64 540.63 795.46 536.99 795.46C527.58 795.46 523.15 796.65 520.22 797.46L519.03 797.76C516.78 797.36 507.6 792.76 502.08 789.98C494.83 786.34 488.08 783.47 481.47 780.71C472.99 777.13 464.98 773.71 457.72 769.33C456.3 768.48 454.93 768.02 444.82 764.83C436.14 762.1 413.27 754.88 408.96 752.22C406.22 749.83 399.77 746.44 378.55 736.16C374.32 734.11 369.55 731.79 368.55 731.23L354.18 723H354.16Z" fill="#020201"/>
<path id="Vector_3" d="M577.51 861.12C564.181 865.342 550.292 867.54 536.31 867.64C496.46 867.82 455.9 860.009 420.72 843.289C403.167 834.949 387.234 826.656 372.92 818.409C370.03 816.528 367.316 814.389 364.81 812.02C364.81 795.32 364.17 753.68 364 739.02C395.84 756.42 423.23 800.689 459.48 812.299C490 822.06 513 830 547.61 830.65C557.13 830.891 566.653 830.302 576.07 828.89C576.26 837.47 576.74 849.2 577.51 861.12Z" fill="#C6522E"/>
</g>
<g id="4 head">
<g id="head">
<path id="Vector_4" d="M583 820C579.53 820.44 602.42 818.55 601 821C594.75 822.62 589.82 826.5 571.13 829.43C559.738 831.172 548.203 831.798 536.69 831.3C515.32 830.45 497.18 828.3 476.95 820.23C449.935 809.455 423.955 796.247 399.33 780.77C394.06 777.448 388.988 773.821 384.14 769.91C370.54 758.95 360.007 749.97 352.54 742.97C332.34 724 317 699.24 305 672C309.5 677.86 313 685.52 317.13 691.52C332.27 713.41 353.35 734.39 372.08 748.57C401.76 771.06 439.17 787.16 475 803C499.59 813.88 510.17 815.06 540 816C555.64 816.5 576.45 820 583 820Z" fill="#020201"/>
<g id="face">
<path id="Vector_5" d="M575.13 829H575C477.73 821.52 401.24 790.71 347.66 737.42C314.147 704.039 290.344 662.171 278.8 616.3C272.65 591.1 265.14 565.72 255.8 538.71C253.5 532.03 251.1 525.02 248.64 517.86L247.22 513.74C224.3 446.8 212 409.88 210.62 404C207.53 390.62 208.3 338.37 208.33 336.15V336C210.69 279 222.56 228.67 243.6 186.34C260.755 151.466 285.329 120.766 315.6 96.3903C340.03 76.7503 368.45 60.9303 400.07 49.3903C454.64 29.5003 501.21 28.4903 510 28.4903H510.89C511.67 28.4403 514.67 28.2803 519.53 28.2803C545.53 28.2803 612.8 32.5503 676.83 72.1103C713.459 94.7065 743.814 126.155 765.1 163.56C791.54 209.5 806.76 266.48 810.33 332.92C810.79 341.46 809.4 355.98 807.68 372.67L806.93 379.81C804.13 406.68 800.64 440.12 800.82 470.3C801.05 508.5 791.24 569.52 785.37 602.49C783.13 615.08 781.52 623.2 781.5 623.28V623.47L781.44 623.65C768.01 670.05 749.07 709.65 725.15 741.43C705.85 767.05 683.28 787.65 658.06 802.66C614.22 828.74 576.94 829 575.37 829H575.13Z" fill="#FD8342"/>
<path id="Vector_6" d="M519.53 32.7998C566.32 32.7998 790.53 47.7298 805.84 333.17C806.27 341.17 804.97 355.1 803.2 372.22C800.29 400.38 796.12 437.17 796.32 470.34C796.55 508.49 786.61 569.85 780.94 601.71C778.68 614.4 777.09 622.41 777.09 622.41C718.92 823.28 578.87 824.54 575.37 824.54H575.3C352.56 807.42 296.72 670.67 283.17 615.23C276.74 588.88 268.93 562.9 260.1 537.23C257.36 529.23 254.47 520.85 251.52 512.23C234.9 463.83 216.61 410 215 403C212 390 212.83 336.23 212.83 336.23C215.34 275.65 228.35 227.17 247.63 188.38C323.22 36.2798 495.29 32.9998 510 32.9998H511C511 32.9998 514 32.7998 519.53 32.7998ZM519.53 23.7998C514.87 23.7998 511.83 23.9398 510.79 23.9998H510C501.08 23.9998 453.81 24.9998 398.56 45.2098C366.47 56.9098 337.62 72.9998 312.81 92.9198C282.021 117.699 257.024 148.911 239.57 184.37C218.25 227.28 206.23 278.24 203.84 335.86V336.09C203.75 341.71 203.09 391.35 206.24 405.02C207.63 411.02 220.01 448.12 243.02 515.2L244.55 519.66C246.97 526.66 249.33 533.6 251.6 540.18C260.85 567.05 268.32 592.3 274.44 617.36C279.193 636.643 286.156 655.313 295.19 673C307.909 698.02 324.534 720.853 344.44 740.64C369.26 765.32 399.39 785.51 433.98 800.64C474.53 818.39 521.85 829.45 574.61 833.5H574.95H575.37C579.37 833.5 616.23 832.74 660.37 806.5C686.1 791.19 709.1 770.2 728.75 744.11C753 711.91 772.19 671.8 785.75 624.87L785.85 624.5L785.93 624.12C785.93 624.04 787.56 615.88 789.81 603.25C795.71 570.12 805.56 508.79 805.33 470.25C805.15 440.31 808.63 407.01 811.42 380.25C811.673 377.81 811.92 375.43 812.16 373.11C813.91 356.22 815.31 341.52 814.84 332.65C811.22 265.5 795.84 207.85 769.02 161.3C747.359 123.26 716.479 91.2787 679.22 68.2998C614.2 28.1298 545.89 23.7998 519.54 23.7998H519.53Z" fill="#020201"/>
<path id="Vector_7" d="M251.52 512.28C234.9 463.83 216.61 410 215 403C212 390 212.83 336.23 212.83 336.23C215.34 275.65 228.35 227.17 247.63 188.38C239.63 218.25 226.09 299.57 258.63 446.94C272 507.59 266 521.56 251.52 512.28Z" fill="#C6522E"/>
</g>
</g>
<g id="eyebrow">
<path id="Vector_8" d="M370.19 347.22C369.959 347.116 369.757 346.958 369.599 346.761C369.441 346.563 369.332 346.331 369.281 346.083C369.231 345.835 369.239 345.578 369.307 345.335C369.374 345.091 369.499 344.866 369.67 344.68C369.85 344.45 370.07 344.19 370.31 343.9C382.64 329.48 400.98 321.24 425.06 314.14C449.96 306.807 476.89 306.027 505.85 311.8C528.02 316.21 549.06 325.8 540.18 342.15C537.72 346.663 532.387 348.057 524.18 346.33C511 343.57 498.65 339.79 484.92 338.33C455.774 335.106 426.308 336.303 397.52 341.88C390.81 343.164 384.25 345.131 377.94 347.75C377.111 348.091 376.234 348.3 375.34 348.37C374.416 348.441 373.487 348.381 372.58 348.19C371.75 348.023 370.955 347.716 370.23 347.28L370.19 347.22ZM398.85 333.22C409.577 332.427 425.143 331.783 445.55 331.29C463.81 330.85 489.4 331.29 508.2 336.68C514.552 338.286 521.003 339.475 527.51 340.24C527.961 340.305 528.419 340.305 528.87 340.24C529.301 340.189 529.722 340.074 530.12 339.9C530.458 339.751 530.761 339.533 531.01 339.26C531.219 339.037 531.352 338.753 531.39 338.45C532.15 332.277 529.533 327.303 523.54 323.53C522.986 323.188 522.4 322.9 521.79 322.67C489.13 310.06 447.28 312.82 414.49 323.67C408.558 325.597 403.028 328.589 398.17 332.5C398.089 332.562 398.032 332.65 398.01 332.75C398.007 332.798 398.015 332.846 398.032 332.891C398.049 332.936 398.076 332.976 398.11 333.01C398.194 333.1 398.301 333.166 398.42 333.2C398.563 333.219 398.709 333.212 398.85 333.18V333.22Z" fill="#010101"/>
<path id="Vector_9" d="M396.76 331.26C422.38 313.44 480.48 308.26 517 319.11C523.205 321.055 528.746 324.691 533 329.61C540.65 338.74 530 346.07 508.43 338.39C477.02 329.67 430.04 332.73 399.28 334.39C396.56 334.51 394.94 332.52 396.76 331.26Z" fill="#291614"/>
<path id="Vector_10" d="M672.27 360C670.591 360.416 668.832 360.384 667.169 359.909C665.505 359.433 663.996 358.53 662.79 357.29C662.551 357.073 662.359 356.812 662.223 356.52C662.087 356.228 662.012 355.911 662 355.59C661.68 327.94 720.39 325.14 751.31 339.4C756.96 342 788.01 358.53 774.72 362.65C769.16 364.37 766.57 364.55 761.06 362.25C754.72 359.583 749.903 358.003 746.61 357.51C721.26 353.59 696.89 355.36 672.27 360ZM674.63 353.32C691.083 351.32 712.277 349.986 738.21 349.32C738.35 349.32 740.19 349.113 743.73 348.7C744.135 348.653 744.53 348.542 744.9 348.37C745.193 348.238 745.442 348.026 745.62 347.76C745.692 347.656 745.738 347.536 745.755 347.411C745.773 347.286 745.761 347.159 745.72 347.04C745.616 346.767 745.422 346.538 745.17 346.39C735.82 340.24 720.22 333.26 704.03 335.9C697.62 336.9 690.23 336.9 685.03 338.8C676.923 341.8 672.923 346.403 673.03 352.61C673.044 352.73 673.097 352.842 673.18 352.93C673.282 353.043 673.409 353.132 673.55 353.19C673.718 353.264 673.897 353.312 674.08 353.33C674.261 353.367 674.446 353.377 674.63 353.36V353.32Z" fill="#010101"/>
<path id="Vector_11" d="M670.88 351.12C673.24 330.12 740 325.7 768 355.12C769.32 356.51 755.56 354.67 753 353.94C724 345.69 693.25 353.01 675.21 353.49C672.77 353.59 670.72 352.47 670.88 351.12Z" fill="#291614"/>
</g>
<g id="nose">
<path id="Vector_12" d="M611.52 576.499C604.34 585.379 588.43 598.429 586.65 600.369C586.454 600.578 586.219 600.748 585.96 600.869C578.87 603.869 568.23 600.059 562.1 595.439C561.835 595.246 561.615 594.997 561.457 594.71C561.298 594.423 561.205 594.105 561.183 593.778C561.161 593.451 561.211 593.123 561.33 592.817C561.448 592.511 561.633 592.236 561.87 592.009C563.776 590.289 563.566 588.106 561.24 585.459C560.711 584.867 560.012 584.452 559.24 584.269L537.35 580.409C537.105 580.364 536.877 580.255 536.688 580.093C536.5 579.932 536.357 579.723 536.275 579.489C536.193 579.254 536.174 579.002 536.22 578.758C536.267 578.514 536.377 578.287 536.54 578.099C539.12 575.099 542.27 572.529 546.33 571.889C554.139 570.63 562.097 570.586 569.92 571.759C581.07 573.399 597.19 572.469 609.83 572.819C610.251 572.831 610.659 572.961 611.01 573.194C611.361 573.426 611.64 573.752 611.816 574.135C611.992 574.517 612.057 574.941 612.005 575.359C611.952 575.777 611.784 576.172 611.52 576.499Z" fill="#C6522E"/>
<path id="Vector_13" d="M586.51 600.609C578.61 597.609 605.15 585.669 609 576.999C616.43 560.279 615.72 555.479 604.12 526.149C602.67 522.479 601.12 518.879 599.45 515.279C591.38 497.359 585.26 463.279 597.19 450.469C597.474 450.166 597.848 449.963 598.256 449.891C598.665 449.818 599.086 449.88 599.457 450.067C599.827 450.254 600.127 450.556 600.312 450.928C600.496 451.3 600.555 451.721 600.48 452.129C596.3 477.589 606.48 513.789 622.87 541.279C623.684 542.596 624.396 543.973 625 545.399C634.44 568.789 612.35 599.389 586.51 600.609Z" fill="#010101"/>
<path id="Vector_14" d="M564.81 591.729C564.197 592.526 563.339 593.098 562.368 593.356C561.397 593.615 560.367 593.546 559.44 593.159C555.02 591.452 550.656 589.812 546.35 588.239C541.817 586.767 537.931 583.775 535.35 579.769C535.259 579.616 535.216 579.439 535.225 579.261C535.235 579.083 535.298 578.912 535.405 578.769C535.512 578.627 535.659 578.519 535.827 578.461C535.995 578.402 536.177 578.394 536.35 578.439L561.19 584.109C562.041 584.302 562.81 584.757 563.39 585.409C565.557 587.889 566.03 589.996 564.81 591.729Z" fill="#010101"/>
</g>
<g id="smile">
<path id="Vector_15" d="M463.89 629.43C463.749 629.276 463.569 629.162 463.37 629.1C463.168 629.029 462.951 629.011 462.74 629.05C462.533 629.093 462.339 629.187 462.177 629.323C462.014 629.459 461.888 629.633 461.81 629.83C460.99 632.02 460.17 633.42 459.33 634.02C458.972 634.277 458.549 634.429 458.109 634.459C457.669 634.489 457.23 634.396 456.84 634.19C456.445 633.992 456.115 633.686 455.888 633.307C455.661 632.927 455.548 632.492 455.56 632.05C455.65 619.54 465.01 616.05 475.56 618.99C476.534 619.269 477.414 619.804 478.11 620.54C478.8 621.278 479.274 622.191 479.48 623.18L479.76 624.5C479.823 624.834 479.796 625.18 479.68 625.5C479.564 625.834 479.356 626.129 479.08 626.35C478.806 626.57 478.478 626.712 478.13 626.76C477.79 626.8 477.446 626.751 477.13 626.62C475.188 625.712 473.183 624.946 471.13 624.33C470.695 624.281 470.256 624.376 469.88 624.6C469.508 624.833 469.226 625.186 469.08 625.6C468.93 626.013 468.93 626.466 469.08 626.88C469.224 627.295 469.506 627.649 469.88 627.88C473.75 630.2 478.88 632.96 483.66 637.08C518.48 667 558 674.34 602.9 668.74C618.979 666.839 634.432 661.372 648.13 652.74C648.488 652.513 648.897 652.379 649.32 652.35C649.745 652.32 650.171 652.396 650.56 652.57C650.949 652.745 651.289 653.013 651.55 653.35C651.805 653.687 651.974 654.082 652.04 654.5V654.66C652.275 656.023 652.085 657.426 651.497 658.678C650.909 659.93 649.95 660.971 648.75 661.66C625 675.45 597.94 679.5 570.52 679C548.38 678.54 526.75 673.183 505.63 662.93C490.13 655.37 475.4 642.24 463.89 629.43Z" fill="#010101"/>
<path id="Vector_16" d="M531.82 705.53C552.95 702.96 574.77 704.82 590.53 705.77C591.23 705.804 591.909 706.017 592.504 706.387C593.1 706.757 593.591 707.272 593.932 707.884C594.273 708.496 594.453 709.185 594.454 709.886C594.455 710.586 594.279 711.276 593.94 711.89C589.94 718.72 580.27 723.43 571.2 725.33C565.445 726.488 559.492 726.21 553.87 724.52C545.52 722.06 534.75 718.519 529.26 712.789C528.707 712.214 528.325 711.496 528.157 710.716C527.988 709.936 528.039 709.124 528.304 708.371C528.57 707.618 529.039 706.954 529.66 706.452C530.281 705.951 531.028 705.631 531.82 705.53Z" fill="#C6522E"/>
</g>
<g id="eye">
<path id="Vector_17" d="M760 445C765.498 452.488 767.995 461.763 767 471C766.35 476.26 759 536 686.42 538C670.79 538.42 657.86 531.22 651.68 516.71C649.493 511.543 648.46 503.28 648.58 491.92C648.7 482.18 651.53 472.476 657.07 462.81C668 446 711 410.63 719 412C734.83 414.7 750.78 432.68 760 445Z" fill="white"/>
<path id="Vector_18" d="M775.62 448.57C777.43 455.98 767.62 460.84 763.24 454.57C763.092 454.357 762.955 454.137 762.83 453.91C753.35 437.323 739.267 427.433 720.58 424.24C712.58 422.87 695.76 424.94 694.88 435.67C693.63 448.3 699.23 453.29 709.44 454.05C710.496 454.127 711.52 454.442 712.436 454.972C713.353 455.502 714.137 456.233 714.73 457.11C728.92 478.11 714.66 511.62 693.22 522.96C692.805 523.172 692.374 523.349 691.93 523.49C659.39 533.27 654.2 486.65 657.07 462.75C666.09 389.79 758.26 377.6 775.62 448.57Z" fill="#010101"/>
</g>
<g id="eye_2">
<path id="Vector_19" d="M513.64 464.44C511.17 488.7 503.69 509 482.27 521C446.11 541.34 383.93 514.52 369.11 476.91C367.195 471.724 366.53 466.16 367.17 460.67C372.27 446.12 379.36 432.72 390 423C410.22 404.6 431.2 410 456.05 413.34C475.44 415.97 487.48 429.95 502.64 446.87C507.933 452.803 511.6 458.66 513.64 464.44Z" fill="white"/>
<path id="Vector_20" d="M513.64 464.44C511.6 458.647 507.933 452.79 502.64 446.87C487.48 429.95 475.44 415.97 456.05 413.34C431.2 409.98 411.05 405.87 390.79 424.27C379.983 434.226 371.859 446.745 367.17 460.67C363.65 451.67 362.39 448.12 364.09 439.72C364.735 436.498 365.693 433.346 366.95 430.31C378.13 403.4 401 391.31 429.6 388.31C440.5 387.163 452.22 389.697 464.76 395.91C471.947 399.47 480.727 406.107 491.1 415.82C495.98 420.393 500.796 426.727 505.55 434.82C512.503 446.633 516.433 453.497 517.34 455.41C519.833 460.47 518.6 463.48 513.64 464.44Z" fill="#010101"/>
<path id="Vector_21" d="M451.34 431.63C452.78 443.43 455.49 451.2 466.55 454.93C468.437 455.581 470.153 456.648 471.573 458.052C472.992 459.455 474.078 461.16 474.75 463.04C487.25 497.31 448.64 529.76 418.75 500.82C418.381 500.463 417.99 500.129 417.58 499.82C390.2 478.75 409.77 411 441.88 420.3C444.391 421.057 446.626 422.534 448.307 424.548C449.988 426.561 451.043 429.024 451.34 431.63Z" fill="#010101"/>
</g>
<g id="ear">
<path id="Vector_22" d="M271.27 445.47C271.27 445.47 217.61 341.33 171.81 398.66C126.01 455.99 162.69 560.79 207 591C251.31 621.21 277 584 277 584L271.27 445.47Z" fill="#FD8342"/>
<path id="Vector_23" d="M229.13 540.159C226.59 528.999 226.66 512.209 241 494.999C241 494.999 222 422.999 191 418.999C160 414.999 166.13 472.669 172.06 486.329C177.99 499.989 191.06 548.819 211.53 550.409C214.53 550.639 217.17 550.879 219.45 551.109C220.871 551.253 222.305 551.056 223.635 550.535C224.964 550.015 226.151 549.185 227.097 548.116C228.043 547.046 228.72 545.766 229.074 544.383C229.427 542.999 229.447 541.551 229.13 540.159Z" fill="#C6522E"/>
<path id="Vector_24" d="M229.83 552.06C229.51 551.06 229.04 550.06 228.5 548.89C227.96 547.72 227.44 546.39 227.01 545.1C226.187 542.546 225.569 539.931 225.16 537.28C224.723 534.635 224.503 531.96 224.5 529.28C224.45 527.94 224.56 526.6 224.6 525.28C224.64 523.96 224.81 522.61 225.05 521.28C225.851 515.99 227.439 510.85 229.76 506.03C232.077 501.276 234.962 496.82 238.35 492.76L237.66 495.85C236.16 490 234.32 484.05 232.33 478.24C230.34 472.43 228.13 466.67 225.67 461.04C223.248 455.413 220.48 449.943 217.38 444.66C214.381 439.407 210.769 434.53 206.62 430.13C205.62 429.02 204.47 428.13 203.38 427.08C202.81 426.61 202.21 426.18 201.63 425.73C201.34 425.51 201.06 425.27 200.75 425.07L199.83 424.49C199.241 424.092 198.63 423.728 198 423.4L196.06 422.4C194.746 421.85 193.383 421.425 191.99 421.13C189.229 420.464 186.35 420.464 183.59 421.13C182.254 421.485 180.977 422.034 179.8 422.76C178.618 423.522 177.536 424.429 176.58 425.46C174.657 427.678 173.137 430.217 172.09 432.96C171.003 435.782 170.189 438.702 169.66 441.68C168.613 447.74 168.201 453.893 168.43 460.04C168.442 460.315 168.344 460.585 168.157 460.788C167.97 460.992 167.711 461.113 167.435 461.125C167.159 461.137 166.89 461.038 166.686 460.852C166.483 460.665 166.362 460.405 166.35 460.13C165.913 453.847 166.13 447.537 167 441.3C167.463 438.124 168.23 434.999 169.29 431.97C170.377 428.838 172.009 425.923 174.11 423.36C175.226 422.062 176.507 420.916 177.92 419.95C179.363 418.99 180.94 418.248 182.6 417.75C185.889 416.81 189.356 416.673 192.71 417.35C194.375 417.646 196.009 418.098 197.59 418.7L199.88 419.7C200.61 420.093 201.318 420.527 202 421L203.07 421.63C203.42 421.85 203.74 422.1 204.07 422.34C204.74 422.82 205.42 423.29 206.07 423.79C207.31 424.85 208.61 425.86 209.74 427.03C214.304 431.535 218.312 436.571 221.68 442.03C225.069 447.393 228.118 452.964 230.81 458.71C233.53 464.42 235.98 470.24 238.21 476.13C240.44 482.02 242.49 487.95 244.3 494.13C244.442 494.622 244.466 495.141 244.371 495.645C244.275 496.149 244.062 496.623 243.75 497.03L243.61 497.22C240.584 500.822 238.005 504.777 235.93 509C233.887 513.197 232.484 517.676 231.77 522.29C231.55 523.43 231.51 524.6 231.37 525.75C231.23 526.9 231.22 528.07 231.26 529.24C231.284 533.906 232.002 538.544 233.39 543C233.748 544.083 234.162 545.148 234.63 546.19C235.11 547.27 235.7 548.54 236.17 549.95C236.451 550.79 236.387 551.708 235.991 552.502C235.595 553.295 234.901 553.898 234.06 554.18C233.219 554.461 232.301 554.396 231.508 554.001C230.715 553.605 230.111 552.91 229.83 552.07V552.06Z" fill="#020201"/>
<path id="Vector_25" d="M203 532.07C201.381 528.695 199.984 525.218 198.82 521.66C197.606 518.116 196.604 514.503 195.82 510.84C194.196 503.385 193.761 495.721 194.53 488.13C194.998 484.235 195.901 480.405 197.22 476.71C197.59 475.79 197.89 474.84 198.32 473.94L199.6 471.24C200.54 469.471 201.592 467.765 202.75 466.13C203.914 464.488 205.172 462.915 206.52 461.42C207.936 459.965 209.432 458.59 211 457.3C214.066 454.748 217.383 452.513 220.9 450.63C222.022 449.995 223.35 449.831 224.593 450.175C225.835 450.52 226.89 451.343 227.525 452.465C228.16 453.587 228.324 454.915 227.98 456.158C227.635 457.4 226.812 458.455 225.69 459.09C225.594 459.151 225.494 459.205 225.39 459.25L225.14 459.37C222.09 460.711 219.185 462.36 216.47 464.29C215.126 465.247 213.838 466.278 212.61 467.38C211.418 468.517 210.293 469.723 209.24 470.99C208.182 472.26 207.207 473.596 206.32 474.99L205.08 477.16C204.66 477.88 204.36 478.66 203.98 479.41C202.598 482.516 201.565 485.766 200.9 489.1C199.666 496.036 199.541 503.125 200.53 510.1C200.988 513.643 201.656 517.156 202.53 520.62C203.387 524.094 204.463 527.511 205.75 530.85V530.9C205.885 531.259 205.877 531.655 205.729 532.009C205.581 532.362 205.303 532.645 204.952 532.8C204.601 532.955 204.205 532.97 203.844 532.841C203.483 532.713 203.184 532.451 203.01 532.11L203 532.07Z" fill="#020201"/>
<path id="Vector_26" d="M271.27 445.47C271.27 445.47 244.83 394.16 213.27 383.4C199.85 378.83 185.5 381.57 171.85 398.66C126 456 162.69 560.79 207 591C251.31 621.21 277 584 277 584" stroke="black" stroke-width="7" stroke-linecap="round" stroke-linejoin="round"/>
</g>
</g>
</g>
</svg>
