<svg width="1000" height="1202" viewBox="0 0 1000 1202" fill="none" xmlns="http://www.w3.org/2000/svg">
<g id="Head 04">
<g id="4 neck">
<path id="Vector" d="M493.29 1141.5C482.675 1141.51 472.092 1140.33 461.74 1137.98C425.93 1129.84 395.8 1114.98 360.99 1088.22C352.66 1081.8 352.04 1074.78 352.99 1070.01C356.13 1053.91 360.14 871.41 360.3 850.77C360.35 844.53 360.36 828.6 360.3 812.03C360.3 793.41 360.14 775.15 359.99 761.93C359.85 750.34 359.68 742.929 359.5 739.229L359.08 731.02L366.22 735.09C367.32 735.72 371.77 737.879 376.49 740.159C395.14 749.159 403.84 753.59 406.1 755.75C409.26 758.32 433.15 765.86 443.36 769.07C453.03 772.07 454.36 772.58 455.3 773.14C462.88 777.75 471.03 781.19 479.67 784.83C486.17 787.57 492.9 790.409 500.01 793.979C511.4 799.699 516.85 802.25 519.01 802.25C519.806 802.191 520.592 802.033 521.35 801.78C524.05 801.06 528.14 799.96 536.96 799.96C540.52 799.96 544.64 800.14 549.19 800.5C557.93 800.59 562.26 806.24 565.43 810.38C568.15 813.92 569.43 815.38 571.58 815.38C572.574 815.345 573.554 815.142 574.48 814.78L580.61 812.59L580.5 819.099C580.5 821.439 580.5 824.89 580.57 828.81C580.78 838.35 581.3 850.02 582 860.81C582.46 867.98 583 899 583.67 934.93C584.67 988.56 586.1 1069.54 587.61 1076.17C590.17 1083.99 588.61 1091.63 583.19 1098.27C560.59 1125.84 535.87 1139.07 503.02 1141.16C499.77 1141.39 496.5 1141.5 493.29 1141.5Z" fill="#833511"/>
<path id="Vector_2" d="M364 739C367.84 741.19 399.87 756 403 759C407.51 763.38 451 775.82 453 777C466.52 785.24 481.42 789.67 498 798C511.79 804.92 516 806.75 519 806.75C522.42 806.75 524.43 804.46 536.94 804.46C540.19 804.46 544.13 804.61 548.94 805H549.01C561.4 805 561.83 819.86 571.52 819.86C573.052 819.838 574.568 819.546 576 819C576 821.34 576 824.75 576.07 828.89C576.26 837.47 576.74 849.2 577.51 861.12C578.73 880.12 580.67 1069.53 583.31 1077.52C585.443 1083.95 584.243 1089.92 579.71 1095.44C560.29 1119.13 538.02 1134.44 502.71 1136.69C499.543 1136.9 496.396 1137.01 493.27 1137C482.991 1137.01 472.743 1135.87 462.72 1133.59C424.16 1124.83 394.26 1108.12 363.72 1084.65C358.486 1080.65 356.377 1076.06 357.39 1070.89C360.7 1053.95 364.65 868.55 364.79 850.81C364.84 844.99 364.85 829.65 364.79 812.02C364.79 795.32 364.65 776.56 364.48 761.88C364.35 751.48 364.19 743.12 363.98 739M354.15 723L354.99 739.42C355.18 743.05 355.34 750.42 355.48 761.95C355.69 779.95 355.76 801.01 355.79 811.95C355.84 828.61 355.79 844.52 355.79 850.64C355.63 870.7 351.58 1053.64 348.56 1069.07C347.56 1073.97 347.56 1083.46 358.23 1091.69C393.6 1118.86 424.23 1133.99 460.74 1142.28C471.417 1144.7 482.332 1145.92 493.28 1145.91C496.58 1145.91 499.96 1145.8 503.28 1145.58C521.61 1144.41 537.42 1139.92 551.6 1131.83C564.16 1124.68 575.3 1114.89 586.6 1101.06C593 1093.25 594.84 1084.26 591.92 1075.06C590.47 1066.22 589.05 987.22 588.1 934.79C587.42 897.34 586.89 867.79 586.42 860.49C585.73 849.74 585.21 838.13 585 828.64C584.91 824.79 584.89 821.4 584.93 819.1L585.15 806.1L573 810.53C572.603 810.682 572.19 810.789 571.77 810.85C570.77 809.86 569.856 808.786 569.04 807.64C565.74 803.33 560.23 796.14 549.42 796C544.81 795.64 540.63 795.46 536.99 795.46C527.58 795.46 523.15 796.65 520.22 797.46L519.03 797.76C516.78 797.36 507.6 792.76 502.08 789.98C494.83 786.34 488.08 783.47 481.47 780.71C472.99 777.13 464.98 773.71 457.72 769.33C456.3 768.48 454.93 768.02 444.81 764.83C436.14 762.09 413.27 754.88 408.96 752.22C406.22 749.83 399.77 746.44 378.55 736.16C374.32 734.11 369.55 731.79 368.55 731.23L354.17 723H354.15Z" fill="#020201"/>
<path id="Vector_3" d="M577.51 861.12C564.18 865.342 550.292 867.54 536.31 867.64C496.46 867.82 455.9 860.009 420.72 843.289C403.167 834.949 387.233 826.656 372.92 818.409C370.03 816.528 367.316 814.389 364.81 812.02C364.81 795.32 364.17 753.68 364 739.02C395.84 756.42 423.23 800.689 459.48 812.299C490 822.06 513 830 547.61 830.65C557.13 830.891 566.652 830.302 576.07 828.89C576.26 837.47 576.74 849.2 577.51 861.12Z" fill="#5C210B"/>
</g>
<g id="&#208;&#161;&#208;&#187;&#208;&#190;&#208;&#185; 10">
<g id="head">
<path id="Vector_4" d="M583 820C579.53 820.44 602.42 818.55 601 821C594.75 822.62 589.82 826.5 571.13 829.43C559.738 831.172 548.203 831.798 536.69 831.3C515.32 830.45 497.18 828.3 476.95 820.23C449.935 809.455 423.955 796.247 399.33 780.77C394.06 777.448 388.988 773.821 384.14 769.91C370.54 758.95 360.007 749.97 352.54 742.97C332.34 724 317 699.24 305 672C309.5 677.86 313 685.52 317.13 691.52C332.27 713.41 353.35 734.39 372.08 748.57C401.76 771.06 439.17 787.16 475 803C499.59 813.88 510.17 815.06 540 816C555.64 816.5 576.45 820 583 820Z" fill="#020201"/>
<g id="face">
<path id="Vector_5" d="M575.13 829H575C477.73 821.52 401.24 790.71 347.66 737.42C314.147 704.039 290.344 662.171 278.8 616.3C272.65 591.1 265.14 565.72 255.8 538.71C253.5 532.03 251.1 525.02 248.64 517.86L247.22 513.74C224.3 446.8 212 409.88 210.62 404C207.53 390.62 208.3 338.37 208.33 336.15V336C210.69 279 222.56 228.67 243.6 186.34C260.755 151.466 285.329 120.766 315.6 96.3903C340.03 76.7503 368.45 60.9303 400.07 49.3903C454.64 29.5003 501.21 28.4903 510 28.4903H510.89C511.67 28.4403 514.67 28.2803 519.53 28.2803C545.53 28.2803 612.8 32.5503 676.83 72.1103C713.459 94.7065 743.814 126.155 765.1 163.56C791.54 209.5 806.76 266.48 810.33 332.92C810.79 341.46 809.4 355.98 807.68 372.67L806.93 379.81C804.13 406.68 800.64 440.12 800.82 470.3C801.05 508.5 791.24 569.52 785.37 602.49C783.13 615.08 781.52 623.2 781.5 623.28V623.47L781.44 623.65C768.01 670.05 749.07 709.65 725.15 741.43C705.85 767.05 683.28 787.65 658.06 802.66C614.22 828.74 576.94 829 575.37 829H575.13Z" fill="#833511"/>
<path id="Vector_6" d="M519.53 32.7998C566.32 32.7998 790.53 47.7298 805.84 333.17C806.27 341.17 804.97 355.1 803.2 372.22C800.29 400.38 796.12 437.17 796.32 470.34C796.55 508.49 786.61 569.85 780.94 601.71C778.68 614.4 777.09 622.41 777.09 622.41C718.92 823.28 578.87 824.54 575.37 824.54H575.3C352.56 807.42 296.72 670.67 283.17 615.23C276.74 588.88 268.93 562.9 260.1 537.23C257.36 529.23 254.47 520.85 251.52 512.23C234.9 463.83 216.61 410 215 403C212 390 212.83 336.23 212.83 336.23C215.34 275.65 228.35 227.17 247.63 188.38C323.22 36.2798 495.29 32.9998 510 32.9998H511C511 32.9998 514 32.7998 519.53 32.7998ZM519.53 23.7998C514.87 23.7998 511.83 23.9398 510.79 23.9998H510C501.08 23.9998 453.81 24.9998 398.56 45.2098C366.47 56.9098 337.62 72.9998 312.81 92.9198C282.021 117.699 257.024 148.911 239.57 184.37C218.25 227.28 206.22 278.24 203.84 335.86V336.09C203.75 341.71 203.09 391.35 206.24 405.02C207.63 411.02 220.01 448.12 243.02 515.2L244.84 520.52L251.6 540.18C260.85 567.05 268.32 592.3 274.44 617.36C279.193 636.643 286.156 655.313 295.19 673C307.909 698.02 324.534 720.853 344.44 740.64C369.26 765.32 399.39 785.51 433.98 800.64C474.53 818.39 521.85 829.45 574.61 833.5H574.96H575.37C579.37 833.5 616.23 832.74 660.37 806.5C686.1 791.19 709.1 770.2 728.75 744.11C753 711.91 772.19 671.8 785.75 624.87L785.85 624.5L785.93 624.12C785.93 624.04 787.56 615.88 789.81 603.25C795.71 570.12 805.56 508.79 805.33 470.25C805.15 440.31 808.63 407.01 811.42 380.25C811.673 377.81 811.92 375.43 812.16 373.11C813.91 356.22 815.31 341.52 814.84 332.65C811.22 265.5 795.84 207.85 769.02 161.3C747.359 123.26 716.479 91.2787 679.22 68.2998C614.2 28.1298 545.89 23.7998 519.54 23.7998H519.53Z" fill="#020201"/>
<path id="Vector_7" d="M251.52 512.28C234.9 463.83 216.61 410 215 403C212 390 212.83 336.23 212.83 336.23C215.34 275.65 228.35 227.17 247.63 188.38C239.63 218.25 226.09 299.57 258.63 446.94C272 507.59 266 521.56 251.52 512.28Z" fill="#3F1809"/>
</g>
</g>
<g id="nose">
<path id="Vector_8" d="M611.52 576.499C604.34 585.379 588.43 598.429 586.65 600.369C586.454 600.578 586.219 600.748 585.96 600.869C578.87 603.869 568.23 600.059 562.1 595.439C561.835 595.246 561.615 594.997 561.457 594.71C561.298 594.423 561.205 594.105 561.183 593.778C561.161 593.451 561.211 593.123 561.33 592.817C561.448 592.511 561.633 592.236 561.87 592.009C563.776 590.289 563.566 588.106 561.24 585.459C560.711 584.867 560.012 584.452 559.24 584.269L537.35 580.409C537.105 580.364 536.877 580.255 536.688 580.093C536.5 579.932 536.357 579.723 536.275 579.489C536.193 579.254 536.174 579.002 536.22 578.758C536.267 578.514 536.377 578.287 536.54 578.099C539.12 575.099 542.27 572.529 546.33 571.889C554.139 570.63 562.097 570.586 569.92 571.759C581.07 573.399 597.19 572.469 609.83 572.819C610.251 572.831 610.659 572.961 611.01 573.194C611.361 573.426 611.64 573.752 611.816 574.135C611.992 574.517 612.057 574.941 612.005 575.359C611.952 575.777 611.784 576.172 611.52 576.499Z" fill="#5C210B"/>
<path id="Vector_9" d="M586.51 600.609C578.61 597.609 605.15 585.669 609 576.999C616.43 560.279 615.72 555.479 604.12 526.149C602.67 522.479 601.12 518.879 599.45 515.279C591.38 497.359 585.26 463.279 597.19 450.469C597.474 450.166 597.848 449.963 598.256 449.891C598.665 449.818 599.086 449.88 599.457 450.067C599.827 450.254 600.127 450.556 600.312 450.928C600.496 451.3 600.555 451.721 600.48 452.129C596.3 477.589 606.48 513.789 622.87 541.279C623.684 542.596 624.396 543.973 625 545.399C634.44 568.789 612.35 599.389 586.51 600.609Z" fill="#010101"/>
<path id="Vector_10" d="M564.81 591.729C564.197 592.526 563.339 593.098 562.368 593.356C561.397 593.615 560.367 593.546 559.44 593.159C555.02 591.452 550.656 589.812 546.35 588.239C541.817 586.767 537.931 583.775 535.35 579.769C535.259 579.616 535.216 579.439 535.225 579.261C535.235 579.083 535.298 578.912 535.405 578.769C535.512 578.627 535.659 578.519 535.827 578.461C535.995 578.402 536.177 578.394 536.35 578.439L561.19 584.109C562.041 584.302 562.81 584.757 563.39 585.409C565.557 587.889 566.03 589.996 564.81 591.729Z" fill="#010101"/>
</g>
<path id="Vector_11" d="M521.18 341.729C522.745 341.946 524.339 341.733 525.792 341.112C527.245 340.491 528.502 339.487 529.427 338.206C530.352 336.925 530.911 335.417 531.044 333.842C531.176 332.268 530.878 330.687 530.18 329.269C525.81 320.429 516.46 310.109 496.44 306.589C461.18 300.409 381.26 325.589 353.74 355.199C353.417 355.541 353.214 355.979 353.162 356.447C353.111 356.914 353.213 357.386 353.454 357.79C353.696 358.194 354.062 358.508 354.498 358.685C354.934 358.862 355.416 358.891 355.87 358.769C379.23 352.379 459.6 331.769 500.4 338.929L521.18 341.729Z" fill="#291614" stroke="black" stroke-width="8" stroke-miterlimit="10"/>
<path id="Vector_12" d="M665.25 345.22L673.25 332.15C674.66 329.86 676.667 327.998 679.057 326.765C681.446 325.531 684.127 324.973 686.81 325.15C708.69 326.61 764.33 333.74 785.11 368.58C785.209 368.751 785.26 368.945 785.258 369.142C785.256 369.34 785.201 369.533 785.099 369.701C784.997 369.87 784.851 370.008 784.677 370.101C784.503 370.194 784.307 370.239 784.11 370.23C781.11 369.97 773.8 368.18 755.81 360C735.92 351 693.94 353.61 671.9 355.82C670.608 355.944 669.306 355.705 668.142 355.132C666.977 354.558 665.995 353.672 665.305 352.572C664.615 351.472 664.244 350.202 664.235 348.904C664.225 347.606 664.577 346.33 665.25 345.22Z" fill="#291614" stroke="black" stroke-width="8" stroke-miterlimit="10"/>
<g id="eye">
<path id="Vector_13" d="M510 459.33C503.35 426.18 481.4 407.57 448.82 405.33C427.35 403.86 407.42 407.77 390.71 421.86C375.29 434.86 374.24 452.21 371.89 471C368.837 462.287 368.013 451.557 369.42 438.81C372.833 407.897 389.737 391.177 420.13 388.65C445.36 386.54 481.46 392.65 499.04 411.92C509.48 423.34 513.667 438.307 511.6 456.82C511.32 459.17 510.78 460 510 459.33Z" fill="#020201"/>
<path id="Vector_14" d="M510 459.33C508.86 470.13 508 482.24 503.89 491.75C494.07 514.743 476.427 528.957 450.96 534.39C432.96 538.24 414.56 531.83 399.96 521.77C383.4 510.37 374.047 493.46 371.9 471.04C374.25 452.25 375.3 434.88 390.72 421.9C407.43 407.81 427.36 403.9 448.83 405.37C481.36 407.57 503.31 426.18 510 459.33ZM435 407.94C424.32 407.75 414 412.99 406.24 422.52C398.48 432.05 394.04 445.06 393.8 458.71C393.668 465.398 394.586 472.066 396.52 478.47C398.342 484.538 401.212 490.241 405 495.32C408.448 499.977 412.836 503.858 417.88 506.71C422.58 509.34 427.855 510.776 433.24 510.89C443.93 511.08 454.24 505.83 462.01 496.31C469.78 486.79 474.21 473.77 474.45 460.12C474.574 453.435 473.653 446.771 471.72 440.37C469.91 434.301 467.054 428.595 463.28 423.51C459.828 418.853 455.436 414.973 450.39 412.12C445.681 409.484 440.395 408.048 435 407.94Z" fill="#FDFAE9"/>
<path id="Vector_15" d="M435 407.941C440.383 408.053 445.656 409.492 450.35 412.131C455.398 414.976 459.79 418.854 463.24 423.511C467.018 428.594 469.875 434.3 471.68 440.371C473.618 446.77 474.539 453.435 474.41 460.121C474.17 473.771 469.7 486.791 461.97 496.311C454.24 505.831 443.89 511.081 433.2 510.901C427.815 510.778 422.541 509.34 417.84 506.711C412.811 503.853 408.437 499.973 405 495.321C401.223 490.239 398.363 484.537 396.55 478.471C394.62 472.066 393.703 465.399 393.83 458.711C394.07 445.061 398.54 432.041 406.27 422.521C414 413.001 424.33 407.751 435 407.941ZM455.87 430.781C454.863 430.788 453.869 431.017 452.96 431.451C452.023 431.889 451.186 432.516 450.5 433.291C449.787 434.095 449.234 435.029 448.87 436.041C448.487 437.074 448.297 438.169 448.31 439.271C448.311 441.462 449.119 443.577 450.58 445.211C451.26 445.974 452.093 446.584 453.026 447.003C453.958 447.422 454.968 447.639 455.99 447.641C456.997 447.636 457.99 447.411 458.9 446.981C459.834 446.536 460.67 445.91 461.36 445.141C462.07 444.333 462.622 443.401 462.99 442.391C463.364 441.355 463.55 440.261 463.54 439.161C463.545 436.968 462.736 434.851 461.27 433.221C460.595 432.459 459.767 431.848 458.84 431.428C457.913 431.007 456.908 430.787 455.89 430.781H455.87Z" fill="#020201"/>
<path id="Vector_16" d="M463.56 439.16C463.56 434.5 460.1 430.75 455.89 430.78C451.68 430.81 448.3 434.61 448.33 439.27C448.36 443.93 451.8 447.67 456.01 447.64C460.22 447.61 463.6 443.82 463.56 439.16Z" fill="#FDFAE9"/>
</g>
<g id="eye_2">
<path id="Vector_17" d="M772.57 485.1C773.99 470.853 774.06 459.773 772.78 451.859C770.113 435.479 760.74 423.093 744.66 414.7C743.212 413.95 741.64 413.473 740.02 413.29C720.473 411.056 704.977 411.86 693.53 415.7C675.63 421.7 663.147 436.303 656.08 459.51C657.64 423.776 675.483 404.033 709.61 400.279C720.943 399.039 730.127 399.059 737.16 400.339C758.93 404.339 777.08 419.789 780.91 442.459C783.277 456.519 780.497 470.733 772.57 485.1Z" fill="#020201"/>
<path id="Vector_18" d="M772.57 485.1C769.823 494.186 767.193 500.579 764.68 504.279C737.16 544.829 673.33 557.12 658.34 495.7C655.14 482.586 654.387 470.523 656.08 459.51C663.14 436.323 675.623 421.72 693.53 415.7C704.97 411.86 720.467 411.056 740.02 413.29C742.465 413.807 744.838 414.616 747.09 415.7C763.15 424.09 770.09 435.479 772.78 451.859C774.06 459.773 773.99 470.853 772.57 485.1ZM697.75 419.739C688.81 420.119 680.44 425.389 674.48 434.399C668.52 443.409 665.48 455.399 665.98 467.779C666.221 473.822 667.336 479.797 669.29 485.519C671.115 490.87 673.819 495.878 677.29 500.339C680.335 504.323 684.189 507.616 688.6 509.999C692.617 512.123 697.119 513.158 701.66 512.999C710.6 512.619 718.97 507.349 724.93 498.339C730.89 489.329 733.93 477.339 733.43 464.959C733.184 458.917 732.066 452.942 730.11 447.219C728.308 441.872 725.624 436.862 722.17 432.399C719.107 428.414 715.231 425.124 710.8 422.749C706.789 420.621 702.289 419.583 697.75 419.739Z" fill="#FDFAE9"/>
<path id="Vector_19" d="M697.75 419.739C702.291 419.581 706.794 420.615 710.81 422.739C715.24 425.112 719.113 428.402 722.17 432.389C725.622 436.854 728.306 441.862 730.11 447.209C732.075 452.947 733.194 458.94 733.43 464.999C733.95 477.359 730.89 489.379 724.93 498.379C718.97 507.379 710.6 512.619 701.66 512.999C697.14 513.15 692.658 512.116 688.66 509.999C684.229 507.625 680.354 504.335 677.29 500.349C673.836 495.886 671.153 490.877 669.35 485.529C667.383 479.809 666.254 473.834 666 467.789C665.49 455.419 668.54 443.409 674.5 434.399C680.46 425.389 688.81 420.119 697.75 419.739ZM723.92 444.569C723.92 442.785 723.256 441.064 722.057 439.742C720.859 438.42 719.211 437.591 717.435 437.416C715.659 437.241 713.882 437.733 712.448 438.796C711.015 439.858 710.028 441.416 709.679 443.166C709.33 444.916 709.645 446.734 710.561 448.265C711.478 449.796 712.931 450.931 714.639 451.45C716.346 451.97 718.185 451.835 719.799 451.074C721.413 450.312 722.686 448.977 723.37 447.329C723.733 446.455 723.92 445.517 723.92 444.569Z" fill="#020201"/>
<path id="Vector_20" d="M716.72 451.769C718.144 451.769 719.536 451.347 720.72 450.556C721.904 449.765 722.827 448.64 723.372 447.324C723.917 446.009 724.059 444.561 723.782 443.165C723.504 441.768 722.818 440.485 721.811 439.478C720.804 438.471 719.521 437.785 718.125 437.507C716.728 437.23 715.28 437.372 713.965 437.917C712.649 438.462 711.525 439.385 710.733 440.569C709.942 441.753 709.52 443.145 709.52 444.569C709.519 445.515 709.704 446.452 710.065 447.326C710.427 448.2 710.957 448.994 711.626 449.663C712.295 450.332 713.089 450.862 713.963 451.224C714.837 451.585 715.774 451.77 716.72 451.769Z" fill="#FDFAE9"/>
</g>
<path id="Vector_21" d="M446.49 622.43C448.936 622.531 451.386 622.508 453.83 622.36C456.26 622.224 458.679 621.926 461.07 621.47C463.357 621.067 465.593 620.416 467.74 619.53C469.605 618.783 471.304 617.675 472.74 616.27C473.5 615.453 474.553 614.972 475.668 614.931C476.783 614.891 477.868 615.295 478.685 616.055C479.502 616.815 479.983 617.868 480.024 618.983C480.064 620.098 479.66 621.183 478.9 622L478.69 622.22C476.318 624.324 473.542 625.92 470.53 626.91C467.823 627.817 465.027 628.434 462.19 628.75C459.476 629.075 456.743 629.222 454.01 629.19C451.286 629.182 448.566 629.022 445.86 628.71C445.027 628.641 444.256 628.244 443.716 627.607C443.176 626.969 442.911 626.143 442.98 625.31C443.049 624.477 443.446 623.706 444.084 623.166C444.721 622.626 445.547 622.361 446.38 622.43H446.49Z" fill="#010101"/>
<path id="Vector_22" d="M468.45 622C469.93 623 471.6 624.12 473.21 625.15C474.82 626.18 476.47 627.25 478.12 628.27C481.44 630.27 484.75 632.27 488.12 634.21L493.2 637L498.33 639.73C501.77 641.49 505.226 643.21 508.7 644.89L513.95 647.3L519.26 649.57C522.8 651.05 526.36 652.52 529.92 653.73L532.58 654.73C533.47 655.04 534.39 655.28 535.29 655.56C537.1 656.08 538.89 656.69 540.71 657.19L546.19 658.6C547.1 658.86 548.03 659.02 548.95 659.22L551.72 659.8C566.574 662.769 581.76 663.728 596.87 662.65C598.77 662.58 600.65 662.32 602.55 662.16L605.39 661.89L608.22 661.47C610.1 661.16 612.01 661.03 613.89 660.66L619.54 659.66C627.05 658.15 634.54 656.15 641.96 653.93H642.04C642.969 653.649 643.97 653.723 644.848 654.138C645.727 654.552 646.42 655.278 646.793 656.175C647.167 657.071 647.194 658.074 646.87 658.99C646.546 659.905 645.894 660.668 645.04 661.13C637.816 665.033 630.256 668.276 622.45 670.82L616.52 672.57C615.52 672.88 614.52 673.12 613.52 673.36C612.52 673.6 611.52 673.85 610.52 674.07L607.52 674.76L604.52 675.31C602.52 675.64 600.45 676.09 598.39 676.31C581.881 678.594 565.103 678.043 548.78 674.68C546.78 674.24 544.69 673.88 542.68 673.33L536.68 671.71C534.68 671.14 532.68 670.44 530.68 669.79C529.68 669.45 528.68 669.16 527.68 668.79L524.77 667.65C520.86 666.18 517.13 664.51 513.39 662.82L507.88 660.12L502.46 657.26L497.11 654.26C495.35 653.26 493.62 652.15 491.87 651.1L486.72 647.82C485.03 646.69 483.33 645.57 481.72 644.39C478.4 642.03 475.11 639.64 471.94 637.09C470.35 635.81 468.77 634.53 467.22 633.19C465.67 631.85 464.22 630.54 462.6 629.02C461.768 628.223 461.267 627.142 461.196 625.992C461.125 624.842 461.489 623.707 462.215 622.813C462.942 621.919 463.978 621.331 465.118 621.166C466.258 621 467.419 621.27 468.37 621.92L468.45 622Z" fill="#010101"/>
<path id="Vector_23" d="M640 648.45C640 648.45 641.37 656.16 654 660.38" stroke="#010101" stroke-width="10" stroke-linecap="round" stroke-linejoin="round"/>
<path id="Vector_24" d="M529.24 686.94C531.24 687.6 533.39 688.45 535.48 689.15C537.57 689.85 539.66 690.62 541.74 691.35C545.907 692.77 550.077 694.066 554.25 695.24C558.42 696.39 562.61 697.24 566.82 697.98C571.049 698.593 575.309 698.974 579.58 699.12H579.84C580.666 699.161 581.452 699.492 582.059 700.054C582.666 700.615 583.057 701.372 583.163 702.193C583.269 703.013 583.083 703.845 582.639 704.542C582.194 705.24 581.519 705.759 580.73 706.01C575.965 707.486 570.987 708.159 566 708C561.079 707.84 556.194 707.112 551.44 705.83C546.758 704.568 542.21 702.853 537.86 700.71C535.699 699.646 533.593 698.475 531.55 697.2C529.473 695.903 527.491 694.459 525.62 692.88C525.027 692.338 524.636 691.61 524.51 690.817C524.385 690.023 524.534 689.211 524.932 688.513C525.33 687.815 525.953 687.273 526.7 686.976C527.446 686.679 528.272 686.645 529.04 686.88L529.24 686.94Z" fill="#010101"/>
<g id="ear">
<path id="Vector_25" d="M271.27 445.47C271.27 445.47 217.61 341.33 171.81 398.66C126.01 455.99 162.69 560.79 207 591C251.31 621.21 277 584 277 584L271.27 445.47Z" fill="#833511"/>
<path id="Vector_26" d="M229.13 540.159C226.59 528.999 226.66 512.209 241 494.999C241 494.999 222 422.999 191 418.999C160 414.999 166.13 472.669 172.06 486.329C177.99 499.989 191.06 548.819 211.53 550.409C214.53 550.639 217.17 550.879 219.45 551.109C220.871 551.253 222.305 551.056 223.635 550.535C224.964 550.015 226.151 549.185 227.097 548.116C228.043 547.046 228.72 545.766 229.074 544.383C229.427 542.999 229.447 541.551 229.13 540.159Z" fill="#3F1809"/>
<path id="Vector_27" d="M229.83 552.06C229.51 551.06 229.04 550.06 228.5 548.89C227.935 547.653 227.435 546.388 227 545.1C225.369 539.993 224.519 534.67 224.48 529.31C224.43 527.97 224.54 526.63 224.58 525.31C224.62 523.99 224.79 522.64 225.03 521.31C225.831 516.02 227.419 510.88 229.74 506.06C232.057 501.306 234.942 496.85 238.33 492.79L237.64 495.88C236.14 490.03 234.3 484.08 232.31 478.27C230.32 472.46 228.11 466.7 225.65 461.07C223.228 455.443 220.46 449.973 217.36 444.69C214.361 439.437 210.749 434.56 206.6 430.16C205.6 429.05 204.45 428.16 203.36 427.11C202.79 426.64 202.19 426.21 201.61 425.76C201.32 425.54 201.04 425.3 200.73 425.1L199.81 424.52C199.228 424.112 198.624 423.739 198 423.4L196.06 422.4C194.746 421.85 193.383 421.425 191.99 421.13C189.233 420.464 186.357 420.464 183.6 421.13C182.26 421.483 180.979 422.032 179.8 422.76C178.618 423.522 177.536 424.429 176.58 425.46C174.657 427.678 173.137 430.217 172.09 432.96C171.003 435.782 170.189 438.702 169.66 441.68C168.613 447.74 168.201 453.893 168.43 460.04C168.442 460.315 168.344 460.585 168.157 460.788C167.97 460.992 167.711 461.113 167.435 461.125C167.159 461.137 166.89 461.038 166.686 460.852C166.483 460.665 166.362 460.405 166.35 460.13C165.913 453.847 166.13 447.537 167 441.3C167.463 438.124 168.23 434.999 169.29 431.97C170.377 428.838 172.009 425.923 174.11 423.36C175.226 422.062 176.507 420.916 177.92 419.95C179.363 418.99 180.94 418.248 182.6 417.75C185.889 416.81 189.356 416.673 192.71 417.35C194.375 417.646 196.009 418.098 197.59 418.7L199.88 419.7C200.61 420.093 201.318 420.527 202 421L203.07 421.63C203.42 421.85 203.74 422.1 204.07 422.34C204.74 422.82 205.42 423.29 206.07 423.79C207.31 424.85 208.61 425.86 209.74 427.03C214.304 431.535 218.312 436.571 221.68 442.03C225.069 447.393 228.118 452.964 230.81 458.71C233.53 464.42 235.98 470.24 238.21 476.13C240.44 482.02 242.49 487.95 244.3 494.13C244.442 494.622 244.466 495.141 244.371 495.645C244.275 496.149 244.062 496.623 243.75 497.03L243.61 497.22C240.584 500.822 238.005 504.777 235.93 509C233.887 513.197 232.484 517.676 231.77 522.29C231.55 523.43 231.51 524.6 231.37 525.75C231.23 526.9 231.22 528.07 231.26 529.24C231.284 533.906 232.002 538.544 233.39 543C233.748 544.083 234.162 545.148 234.63 546.19C235.1 547.27 235.7 548.54 236.17 549.95C236.451 550.79 236.387 551.708 235.991 552.502C235.595 553.295 234.901 553.898 234.06 554.18C233.219 554.461 232.301 554.396 231.508 554.001C230.715 553.605 230.111 552.91 229.83 552.07V552.06Z" fill="#020201"/>
<path id="Vector_28" d="M203 532.07C201.381 528.695 199.984 525.218 198.82 521.66C197.606 518.116 196.604 514.503 195.82 510.84C194.196 503.385 193.761 495.721 194.53 488.13C194.998 484.235 195.901 480.405 197.22 476.71C197.59 475.79 197.89 474.84 198.32 473.94L199.6 471.24C200.54 469.471 201.592 467.765 202.75 466.13C203.914 464.488 205.172 462.915 206.52 461.42C207.936 459.965 209.432 458.59 211 457.3C214.066 454.748 217.383 452.513 220.9 450.63C222.022 449.995 223.35 449.831 224.593 450.175C225.835 450.52 226.89 451.343 227.525 452.465C228.16 453.587 228.324 454.915 227.98 456.158C227.635 457.4 226.812 458.455 225.69 459.09C225.594 459.151 225.494 459.205 225.39 459.25L225.14 459.37C222.09 460.711 219.185 462.36 216.47 464.29C215.126 465.247 213.838 466.278 212.61 467.38C211.418 468.517 210.293 469.723 209.24 470.99C208.182 472.26 207.207 473.596 206.32 474.99L205.08 477.16C204.66 477.88 204.36 478.66 203.98 479.41C202.598 482.516 201.565 485.766 200.9 489.1C199.666 496.036 199.541 503.125 200.53 510.1C200.988 513.643 201.656 517.156 202.53 520.62C203.387 524.094 204.463 527.511 205.75 530.85V530.9C205.885 531.259 205.877 531.655 205.729 532.009C205.581 532.362 205.303 532.645 204.952 532.8C204.601 532.955 204.205 532.97 203.844 532.841C203.483 532.713 203.184 532.451 203.01 532.11L203 532.07Z" fill="#020201"/>
<path id="Vector_29" d="M271.27 445.47C271.27 445.47 244.83 394.16 213.27 383.4C199.85 378.83 185.5 381.57 171.85 398.66C126 456 162.69 560.79 207 591C251.31 621.21 277 584 277 584" stroke="black" stroke-width="7" stroke-linecap="round" stroke-linejoin="round"/>
</g>
</g>
</g>
</svg>
