<svg width="1000" height="1000" viewBox="0 0 1000 1000" fill="none" xmlns="http://www.w3.org/2000/svg">
<path d="M596.348 403.937C595.98 403.928 595.626 403.795 595.344 403.559C595.061 403.324 594.866 403 594.79 402.64L586.381 362.664C586.308 362.318 586.35 361.957 586.499 361.637C586.649 361.317 586.898 361.053 587.209 360.886C611.546 347.803 612.323 312.475 612.784 291.375C612.839 288.784 612.893 286.338 612.984 284.19C613.369 275.17 609.352 266.441 606.926 262.043C603.747 256.283 600.7 253.012 599.156 251.868C600.482 261.72 591.343 278.939 590.95 279.666C590.81 279.929 590.601 280.149 590.345 280.301C590.089 280.454 589.796 280.533 589.497 280.53C589.418 280.536 589.338 280.536 589.258 280.53C588.924 280.481 588.614 280.33 588.37 280.098C588.125 279.866 587.959 279.564 587.892 279.233C587.841 278.979 584.557 262.545 581.993 250.05C583.697 265.71 584.387 290.485 584.423 291.844C584.43 292.113 584.371 292.379 584.25 292.619C584.13 292.86 583.952 293.067 583.733 293.222C583.513 293.377 583.259 293.476 582.992 293.51C582.726 293.543 582.455 293.51 582.204 293.414C568.96 288.326 554.278 273.894 548.423 267.778L548.15 271.376C548.121 271.787 547.937 272.172 547.635 272.453C547.333 272.733 546.935 272.889 546.523 272.888C546.319 272.888 546.117 272.85 545.927 272.775C526.589 265.205 515.256 243.418 510.21 231.098C510.165 230.993 510.089 230.905 509.991 230.845C509.893 230.786 509.78 230.759 509.666 230.767C509.536 230.758 509.407 230.792 509.299 230.864C509.191 230.937 509.11 231.043 509.07 231.167C504.751 248.27 495.154 258.743 487.864 264.515C479.829 270.878 472.779 273.117 472.481 273.211C472.324 273.258 472.162 273.283 471.998 273.284C471.68 273.284 471.369 273.191 471.103 273.017C470.837 272.843 470.627 272.594 470.5 272.303C470.373 272.011 470.333 271.689 470.386 271.375C470.44 271.061 470.583 270.77 470.799 270.536C476.415 264.496 480.153 250.185 481.882 242.168C481.828 242.128 481.763 242.106 481.696 242.106C481.672 242.105 481.648 242.11 481.627 242.122C481.606 242.133 481.589 242.151 481.577 242.171L479.052 245.715C471.268 256.617 450.469 271.917 438.984 278.081C431.247 282.235 437.8 306.301 444.091 321.463C444.228 321.799 444.249 322.171 444.152 322.521C444.055 322.871 443.844 323.179 443.553 323.396C443.262 323.613 442.907 323.727 442.545 323.72C442.182 323.714 441.831 323.587 441.548 323.36L424.113 308.714C423.927 308.549 423.686 308.458 423.437 308.459C423.283 308.46 423.131 308.493 422.991 308.556C422.85 308.618 422.724 308.709 422.62 308.823C422.545 308.902 422.489 308.997 422.455 309.101C422.422 309.204 422.412 309.314 422.427 309.422C422.573 310.825 422.736 312.213 422.918 313.547C423.815 320.198 425.068 325.293 426.55 328.284C427.001 329.2 427.534 330.221 428.097 331.297C432.507 339.746 439.169 352.513 434.389 366.28C429.002 381.787 404.854 387.834 403.83 388.085C403.703 388.117 403.572 388.132 403.441 388.132C403.162 388.131 402.888 388.059 402.646 387.922C402.403 387.785 402.199 387.589 402.053 387.351C401.907 387.113 401.825 386.842 401.814 386.563C401.802 386.285 401.862 386.008 401.988 385.759C401.988 385.726 402.671 384.283 406.688 373.628C408.773 368.104 408.33 366.312 408.141 365.88C403.848 369.994 396.827 372.08 387.248 372.08C377.121 372.08 367.829 369.743 367.441 369.645C367.082 369.553 366.765 369.342 366.542 369.047C366.319 368.752 366.202 368.389 366.212 368.019C366.221 367.649 366.355 367.293 366.593 367.009C366.831 366.726 367.158 366.531 367.521 366.458C373.892 365.186 379.486 354.966 382.377 348.141C376.616 350.892 370.812 352.284 365.109 352.284C347.695 352.284 337.093 339.565 336.649 339.034C336.462 338.806 336.34 338.531 336.296 338.24C336.252 337.948 336.288 337.65 336.4 337.377C336.512 337.104 336.695 336.866 336.931 336.689C337.167 336.511 337.446 336.401 337.739 336.37C353.264 334.782 361.153 324.134 364.477 317.93C364.504 317.89 364.519 317.842 364.519 317.794C364.519 317.745 364.504 317.698 364.477 317.658C364.434 317.589 364.374 317.532 364.303 317.492C364.231 317.453 364.151 317.432 364.07 317.432C364.003 317.433 363.937 317.445 363.874 317.469L345.091 323.912C344.92 323.969 344.741 323.999 344.561 323.999C344.145 324.001 343.744 323.842 343.442 323.556C343.225 323.352 343.068 323.092 342.987 322.805C342.906 322.519 342.905 322.215 342.984 321.928C344.201 317.534 340.442 305.955 336.137 293.461C332.196 282.013 342.694 264.024 347.692 256.392C341.092 257.878 335.225 258.631 330.231 258.631C313.424 258.631 310.446 250.214 309.93 247.634C309.877 247.367 309.841 247.098 309.821 246.827C309.8 246.449 309.912 246.075 310.136 245.77C310.361 245.465 310.685 245.247 311.052 245.155C333.936 239.384 345.509 228.583 351.204 220.541C355.995 213.777 357.543 207.77 358 205.401L325.672 188.792C325.352 188.625 325.095 188.357 324.943 188.029C324.792 187.701 324.753 187.331 324.833 186.979C324.913 186.626 325.107 186.31 325.386 186.08C325.665 185.85 326.012 185.719 326.373 185.707H326.566C327.536 185.707 336.45 185.532 350.009 179.572C367.59 171.839 384.974 158.214 401.687 139.073C411.131 128.257 421.981 120.262 433.942 115.316C443.791 111.276 454.34 109.224 464.984 109.276C481.489 109.276 494.323 113.859 498.834 115.708C506.396 93.7033 540.711 91.2793 555.404 91.2793C558.484 91.2793 560.348 91.392 560.424 91.3956C560.823 91.4197 561.2 91.5892 561.482 91.8721C561.765 92.1551 561.934 92.5318 561.957 92.931C561.981 93.3303 561.858 93.7244 561.611 94.0388C561.364 94.3532 561.01 94.5661 560.617 94.6373C542.695 97.8863 534.791 105.718 531.59 110.33C532.738 109.995 534.108 109.636 535.681 109.283C541.466 107.994 547.377 107.348 553.305 107.357C569.61 107.357 585.055 112.06 599.214 121.331C624.546 137.921 644.419 140.399 654.012 140.399C655.873 140.428 657.734 140.307 659.576 140.036C659.674 140.02 659.772 140.012 659.871 140.01C660.179 140.011 660.482 140.099 660.742 140.264C661.003 140.43 661.212 140.665 661.345 140.944C661.478 141.223 661.529 141.533 661.494 141.84C661.458 142.147 661.336 142.437 661.142 142.678C660.703 143.206 660.217 143.692 659.689 144.132C654.604 148.424 643.641 151.28 638.142 152.49C647.118 161.361 655.047 179.063 655.41 179.881C661.019 191.943 667.43 200.629 674.447 205.684C680.067 209.718 684.618 210.321 686.855 210.321C687.354 210.331 687.853 210.294 688.345 210.209C688.455 210.187 688.567 210.176 688.679 210.176C688.96 210.176 689.237 210.249 689.482 210.387C689.727 210.525 689.933 210.724 690.079 210.965C690.225 211.205 690.306 211.479 690.316 211.761C690.325 212.042 690.262 212.321 690.132 212.571C690.074 212.676 690.016 212.782 689.954 212.883C689.943 212.906 689.931 212.928 689.917 212.949C685.177 221.119 671.302 223.281 662.787 223.822C665.184 225.296 667.389 227.061 669.351 229.077C675.642 235.586 678.893 244.654 678.752 255.309C678.703 260.118 677.991 264.897 676.638 269.512C676.529 269.839 676.321 270.124 676.042 270.326C675.763 270.528 675.427 270.637 675.083 270.638C674.993 270.638 674.903 270.631 674.814 270.616C674.429 270.552 674.079 270.352 673.829 270.052C673.578 269.752 673.443 269.372 673.448 268.981C673.554 260.851 667.789 255.415 663.848 252.653L667.386 263.359C667.386 263.402 667.415 263.45 667.426 263.497C669.747 273.346 667.742 284.554 661.614 295.91C658.867 301.047 655.514 305.836 651.629 310.175C651.381 310.437 651.053 310.61 650.696 310.667C650.34 310.724 649.974 310.66 649.657 310.487C649.34 310.314 649.09 310.041 648.944 309.71C648.799 309.38 648.767 309.01 648.854 308.659C650.063 303.775 648.28 294.849 646.918 290.79C646.006 292.676 644.716 295.965 643.456 299.178C642.414 301.834 641.233 304.851 639.86 308.183C638.69 311.025 637.546 313.7 636.362 316.364C629.192 332.438 651.513 346.142 652.977 347.018C653.251 347.166 653.477 347.39 653.629 347.662C653.781 347.935 653.851 348.245 653.833 348.556C653.814 348.867 653.707 349.167 653.523 349.419C653.34 349.671 653.089 349.866 652.798 349.98C651.302 350.563 649.708 350.856 648.102 350.845C642.777 350.845 637.441 347.916 633.155 345.561C630.757 344.245 628.276 342.883 627.114 342.883C627.067 342.876 627.019 342.876 626.972 342.883C626.755 343.311 625.995 345.957 629.57 358.873C631.524 365.927 633.805 372.523 633.83 372.589C633.917 372.836 633.943 373.1 633.906 373.359C633.87 373.619 633.771 373.865 633.62 374.079C633.468 374.292 633.268 374.466 633.035 374.587C632.803 374.707 632.545 374.769 632.283 374.769H632.236C630.093 374.716 627.957 374.491 625.85 374.097C616.918 372.407 612.211 367.842 609.835 364.31C609.385 363.638 608.974 362.942 608.604 362.224L597.939 402.709C597.847 403.058 597.643 403.367 597.357 403.587C597.071 403.808 596.72 403.927 596.359 403.926L596.348 403.937Z" fill="#CE44A2"/>
<path d="M555.415 92.9153C558.481 92.9153 560.337 93.028 560.337 93.028C541.405 96.4587 533.225 104.952 530.018 109.745C529.268 110.817 528.649 111.975 528.176 113.194C530.736 112.215 533.369 111.438 536.051 110.872C541.721 109.613 547.512 108.98 553.319 108.986C565.88 108.986 581.884 111.922 598.335 122.694C624.172 139.615 644.517 142.028 654.026 142.028C655.987 142.062 657.946 141.933 659.885 141.643C659.512 142.097 659.096 142.515 658.643 142.889C652.134 148.402 634.615 151.564 634.615 151.564C644.368 159.047 653.928 180.565 653.928 180.565C667.263 209.243 681.821 211.965 686.866 211.965C687.475 211.975 688.084 211.925 688.683 211.816C688.628 211.925 688.566 212.026 688.505 212.132C682.94 221.726 662.817 222.362 657.572 222.362C656.769 222.362 656.315 222.362 656.315 222.362C661.349 224.463 665.218 227.174 668.178 230.234C682.813 245.374 675.079 269.022 675.079 269.022C675.254 255.488 660.913 249.033 660.913 249.033L665.824 263.886C671.273 287.011 650.445 309.067 650.445 309.067C651.978 302.871 649.101 290.678 647.575 288.188C647.444 287.978 647.303 287.876 647.147 287.876C645.745 287.876 643.151 295.918 638.353 307.577C637.303 310.121 636.144 312.857 634.873 315.714C626.991 333.383 651.527 348.058 652.188 348.465C650.883 348.974 649.492 349.229 648.091 349.218C639.82 349.218 630.99 341.259 627.103 341.255C626.834 341.239 626.565 341.287 626.318 341.395C626.072 341.503 625.854 341.668 625.683 341.876C625.624 341.955 625.571 342.038 625.523 342.124C623.097 346.674 632.272 373.138 632.272 373.138C630.217 373.089 628.169 372.873 626.148 372.495C609.922 369.424 608.386 356.61 608.386 356.61L596.388 402.306L587.983 362.33C616.214 347.146 613.773 304.001 614.619 284.263C615.32 267.779 602 249.757 598.364 249.739C597.638 249.739 597.307 250.44 597.525 251.992C598.855 261.415 589.512 278.885 589.512 278.885C589.512 278.885 581.677 239.672 580.685 235.969C580.231 234.264 579.113 232.992 578.332 232.992C577.413 232.992 576.959 234.755 578.601 239.657C581.637 248.743 582.803 291.855 582.803 291.855C566.352 285.525 547.104 263.872 547.104 263.872L546.556 271.206C527.606 263.843 516.469 242.089 511.725 230.481C511.537 230.057 511.223 229.702 510.826 229.463C510.429 229.224 509.968 229.113 509.506 229.144C509.043 229.175 508.602 229.348 508.241 229.638C507.88 229.929 507.616 230.323 507.486 230.768C499.357 262.967 472.416 271.518 471.998 271.649C477.759 265.449 481.555 251.425 483.48 242.514C483.742 241.314 482.732 240.468 481.704 240.468C481.419 240.465 481.137 240.532 480.884 240.664C480.631 240.795 480.414 240.986 480.251 241.22L477.708 244.76C470.444 254.935 450.19 270.199 438.196 276.639C426.263 283.042 442.391 321.659 442.576 322.103L425.174 307.453C424.691 307.042 424.078 306.817 423.445 306.817C421.992 306.817 420.644 307.969 420.807 309.572C420.942 310.855 421.105 312.269 421.305 313.748C422.032 319.046 423.198 325.163 425.079 328.99C428.984 336.909 437.999 350.875 432.841 365.724C427.684 380.574 403.438 386.479 403.438 386.479C403.438 386.479 403.986 385.389 408.21 374.188C411.745 364.826 408.937 364.056 407.916 364.056C407.805 364.055 407.695 364.065 407.586 364.085C403.013 369.028 394.927 370.427 387.245 370.427C377.205 370.427 367.841 368.043 367.841 368.043C378.309 365.953 385.461 344.635 385.461 344.635C384.446 345.228 383.448 345.77 382.464 346.259C376.137 349.425 370.311 350.62 365.105 350.62C348.266 350.62 337.91 337.97 337.91 337.97C354.256 336.294 362.519 325.028 365.919 318.676C366.664 317.287 365.556 315.768 364.074 315.768C363.826 315.77 363.581 315.811 363.347 315.892L344.535 322.354C345.858 317.575 342.432 306.788 337.656 292.916C332.879 279.045 351.437 253.798 351.437 253.798C350.758 253.972 350.093 254.14 349.435 254.299C341.477 256.233 335.186 256.996 330.209 256.996C314.561 256.996 311.942 249.47 311.514 247.314C311.476 247.125 311.448 246.933 311.43 246.74C356.86 235.274 359.791 204.485 359.791 204.485L326.374 187.339H326.566C329.359 187.339 362.588 186.343 402.915 140.145C423.179 116.934 446.368 110.908 464.984 110.908C485.093 110.908 499.855 117.937 499.855 117.937C505.899 95.0413 542.074 92.9117 555.393 92.9117M555.415 89.6445C548.804 89.6445 535.931 90.1715 523.992 93.7112C517.246 95.7064 511.613 98.4357 507.239 101.783C502.931 105.094 499.804 109.051 497.908 113.583C487.374 109.673 476.231 107.661 464.995 107.641C454.136 107.594 443.374 109.694 433.328 113.819C421.134 118.864 410.081 127.004 400.466 138.012C383.914 156.957 366.722 170.444 349.363 178.076C336.108 183.89 327.514 184.072 326.577 184.072H326.374C325.642 184.076 324.933 184.325 324.359 184.779C323.786 185.234 323.381 185.868 323.21 186.579C323.04 187.291 323.112 188.04 323.417 188.705C323.722 189.371 324.241 189.915 324.892 190.25L356.13 206.281C355.465 209.017 353.787 214.12 349.748 219.767C341.793 230.892 328.273 239.123 310.649 243.568C309.915 243.754 309.267 244.189 308.818 244.799C308.369 245.41 308.146 246.158 308.186 246.915C308.208 247.253 308.252 247.589 308.317 247.921V247.954C308.891 250.861 312.171 260.267 330.22 260.267C334.934 260.206 339.631 259.707 344.252 258.777C342.868 261.045 341.324 263.748 339.846 266.685C334.074 278.176 332.302 287.36 334.579 293.978C337.765 303.23 342.57 317.208 341.401 321.478C341.242 322.051 341.243 322.657 341.404 323.23C341.564 323.803 341.878 324.322 342.311 324.73C342.744 325.138 343.28 325.42 343.862 325.545C344.443 325.671 345.048 325.635 345.611 325.443L361.284 320.068C357.423 325.93 350.107 333.445 337.565 334.732C336.978 334.792 336.417 335.01 335.944 335.363C335.471 335.716 335.102 336.191 334.877 336.737C334.651 337.283 334.578 337.88 334.664 338.464C334.751 339.048 334.994 339.598 335.367 340.056C335.829 340.623 346.915 353.906 365.091 353.906C369.881 353.877 374.627 352.989 379.104 351.285C378.661 352.183 378.178 353.103 377.652 354.055C374.143 360.36 370.423 364.191 367.176 364.837C366.449 364.983 365.792 365.371 365.315 365.939C364.837 366.506 364.567 367.219 364.548 367.961C364.529 368.703 364.762 369.429 365.21 370.02C365.658 370.612 366.293 371.033 367.012 371.215C367.408 371.317 376.892 373.701 387.223 373.701C395.337 373.701 401.734 372.247 406.322 369.34C406.004 370.6 405.608 371.839 405.138 373.051C401.523 382.641 400.633 384.727 400.492 385.044C400.191 385.589 400.058 386.212 400.109 386.833C400.16 387.454 400.393 388.047 400.779 388.536C401.083 388.929 401.474 389.245 401.922 389.46C402.37 389.675 402.861 389.783 403.358 389.775C403.64 389.776 403.922 389.742 404.197 389.674C405.257 389.415 430.237 383.157 435.914 366.818C438.148 360.389 438.236 353.64 436.187 346.187C434.509 340.088 431.748 334.793 429.529 330.56C428.969 329.491 428.439 328.481 428 327.58C426.605 324.745 425.402 319.824 424.531 313.348C424.424 312.573 424.325 311.785 424.233 310.986L440.495 324.639C441.055 325.109 441.757 325.378 442.488 325.401C443.219 325.425 443.936 325.203 444.526 324.771C445.116 324.338 445.544 323.721 445.742 323.016C445.939 322.312 445.895 321.562 445.616 320.885C442.931 314.297 440.712 307.528 438.977 300.628C436.201 289.159 436.492 281.269 439.747 279.521C450.567 273.706 469.572 259.871 478.54 249.033C475.921 258.846 472.812 265.958 469.594 269.421C469.16 269.888 468.872 270.47 468.765 271.098C468.658 271.726 468.736 272.371 468.99 272.955C469.244 273.539 469.663 274.036 470.196 274.385C470.728 274.734 471.351 274.92 471.987 274.92C472.316 274.921 472.643 274.87 472.957 274.771C473.266 274.676 480.585 272.351 488.867 265.798C493.634 262.034 497.811 257.577 501.26 252.577C505.061 247.028 507.962 240.914 509.858 234.46C515.481 247.293 526.81 267.048 545.368 274.269C545.844 274.455 546.356 274.526 546.864 274.478C547.372 274.43 547.862 274.263 548.294 273.991C548.726 273.72 549.089 273.351 549.353 272.914C549.617 272.477 549.775 271.984 549.814 271.475C556.799 278.492 569.745 290.329 581.63 294.904C582.132 295.101 582.676 295.17 583.211 295.105C583.747 295.04 584.258 294.843 584.7 294.533C585.141 294.222 585.499 293.807 585.741 293.325C585.983 292.843 586.102 292.308 586.087 291.768C586.04 290.078 585.847 283.388 585.458 275.222C585.782 276.842 586.076 278.3 586.319 279.524C586.451 280.185 586.784 280.79 587.273 281.254C587.761 281.719 588.381 282.021 589.047 282.119C589.206 282.144 589.366 282.156 589.527 282.156C590.118 282.155 590.698 281.995 591.205 281.691C591.713 281.387 592.128 280.951 592.407 280.429C594.144 277.095 595.702 273.67 597.075 270.17C599.254 264.562 600.536 259.769 600.856 255.862C602.784 258.253 604.473 260.827 605.898 263.548C608.077 267.67 611.709 275.821 611.368 284.122C611.274 286.302 611.223 288.741 611.165 291.339C610.936 301.788 610.623 316.099 607.314 329.073C603.504 344.01 596.679 353.942 586.45 359.444C585.828 359.779 585.33 360.305 585.033 360.946C584.735 361.587 584.652 362.307 584.797 362.999L593.206 402.975C593.357 403.696 593.747 404.345 594.313 404.816C594.879 405.288 595.587 405.554 596.323 405.573H596.406C597.128 405.573 597.83 405.333 598.401 404.892C598.973 404.451 599.383 403.833 599.566 403.135L609.272 366.28C612.015 369.878 616.958 374.079 625.596 375.729C627.786 376.141 630.005 376.376 632.232 376.431H632.327C632.85 376.432 633.367 376.307 633.832 376.068C634.298 375.828 634.699 375.479 635.002 375.052C635.305 374.624 635.501 374.13 635.573 373.611C635.646 373.092 635.592 372.564 635.418 372.069C635.396 372.008 633.238 365.811 631.353 359.037C629.036 350.769 628.505 346.786 628.447 344.955C629.617 345.467 631.222 346.35 632.417 347.008C636.867 349.45 642.406 352.492 648.153 352.492C649.964 352.502 651.761 352.169 653.449 351.511C654.025 351.283 654.525 350.897 654.89 350.396C655.255 349.896 655.471 349.301 655.512 348.683C655.552 348.065 655.417 347.447 655.12 346.903C654.824 346.359 654.379 345.91 653.837 345.609C649.757 343.065 646.05 339.966 642.824 336.4C636.853 329.629 635.196 323.117 637.902 317.044C639.097 314.369 640.245 311.68 641.422 308.82C642.799 305.473 643.987 302.449 645.029 299.785C645.548 298.466 646.086 297.092 646.602 295.806C647.47 299.934 648.087 305.164 647.328 308.278C647.155 308.98 647.219 309.719 647.509 310.38C647.8 311.042 648.302 311.588 648.936 311.934C649.57 312.281 650.3 312.407 651.013 312.294C651.727 312.181 652.383 311.835 652.878 311.309C656.854 306.865 660.283 301.96 663.093 296.7C665.732 291.896 667.702 286.753 668.948 281.414C670.368 275.043 670.401 268.894 669.042 263.134C669.021 263.041 668.994 262.949 668.963 262.858L667.295 257.814C669.783 260.568 671.901 264.293 671.839 268.974C671.829 269.756 672.098 270.516 672.6 271.116C673.101 271.716 673.8 272.117 674.571 272.245C674.75 272.274 674.931 272.289 675.112 272.289C675.8 272.288 676.471 272.069 677.028 271.665C677.585 271.26 678 270.69 678.214 270.036C679.622 265.264 680.362 260.321 680.412 255.346C680.561 244.251 677.143 234.78 670.554 227.955C669.557 226.921 668.497 225.95 667.379 225.048C669.373 224.815 671.498 224.488 673.623 224.037C682.54 222.14 688.516 218.684 691.356 213.767C691.375 213.738 691.392 213.708 691.407 213.676L691.545 213.436C691.872 212.869 692.025 212.218 691.985 211.564C691.946 210.911 691.716 210.283 691.323 209.759C690.945 209.263 690.43 208.89 689.842 208.685C689.253 208.48 688.618 208.453 688.014 208.607C687.637 208.663 687.255 208.688 686.874 208.683C683.06 208.683 669.635 206.553 656.91 179.199C656.438 178.141 649.566 162.888 641.291 153.454C647.31 151.975 656.151 149.275 660.761 145.375C661.369 144.869 661.927 144.306 662.428 143.692C662.817 143.212 663.063 142.631 663.135 142.017C663.208 141.403 663.106 140.781 662.84 140.223C662.573 139.665 662.155 139.194 661.632 138.864C661.109 138.535 660.503 138.36 659.885 138.361C659.684 138.361 659.484 138.379 659.286 138.416C657.543 138.662 655.783 138.773 654.023 138.746C644.611 138.746 625.098 136.304 600.122 119.947C592.466 114.903 584.064 111.095 575.226 108.662C568.085 106.716 560.717 105.731 553.316 105.733C547.551 105.726 541.8 106.324 536.16 107.518C540.388 103.415 547.9 98.6174 560.918 96.2515C561.708 96.1125 562.42 95.6876 562.917 95.0579C563.414 94.4282 563.663 93.6375 563.615 92.8363C563.568 92.0352 563.227 91.2795 562.659 90.713C562.091 90.1466 561.334 89.809 560.533 89.7645C560.457 89.7645 558.546 89.6445 555.415 89.6445Z" fill="#17091D"/>
<path d="M584.862 137.817C597.55 140.789 610.289 150.602 618.465 160.785C618.516 160.845 618.57 160.902 618.628 160.956C645.653 185.559 612.915 167.301 603.107 156.286C602.117 155.166 601.049 154.118 599.911 153.149C599 152.379 598.153 151.61 597.368 150.842C596.345 149.795 595.405 148.669 594.557 147.476C592.283 144.406 586.413 142.672 583.478 140.597C582.036 139.576 583.111 137.406 584.862 137.817Z" fill="#D969BD"/>
<path d="M411.468 150.695C406.231 158.047 398.544 164.628 390.666 169.375C388.133 170.901 385.665 172.518 383.263 174.226C360.016 190.726 381.959 164.748 394.16 157.418C395.455 156.648 396.695 155.789 397.873 154.849C398.8 154.098 399.718 153.408 400.626 152.781C401.867 151.955 403.17 151.226 404.523 150.6C405.749 149.937 406.838 149.047 407.731 147.976C409.659 145.836 413.132 148.365 411.468 150.695Z" fill="#D969BD"/>
<path d="M491.014 160.541C484.674 164.398 479.58 168.652 475.732 173.304C472.084 177.823 467.701 181.695 462.768 184.759C462.659 184.822 462.531 184.848 462.405 184.832C462.283 184.818 462.168 184.764 462.078 184.679C461.993 184.595 461.938 184.485 461.922 184.367C461.909 184.248 461.938 184.128 462.006 184.029C468.711 174.598 479.314 163.735 490.847 160.221C490.889 160.207 490.935 160.208 490.976 160.224C491.017 160.241 491.051 160.272 491.072 160.312C491.088 160.353 491.088 160.398 491.072 160.439C491.063 160.478 491.043 160.514 491.014 160.541Z" fill="#D969BD"/>
<path d="M345.494 249.121C355.472 246.748 361.793 244.033 365.705 241.812L349.435 254.3C316.446 262.32 312.077 250.157 311.514 247.315C320.199 249.771 333.093 252.068 345.494 249.121Z" fill="#9C398C"/>
<path d="M371.488 237.375C371.412 237.484 370.035 239.345 365.705 241.812L371.488 237.375Z" fill="#9C398C"/>
<path d="M652.214 348.465C605.945 333.619 638.393 307.576 638.393 307.576C637.343 310.12 636.185 312.857 634.913 315.713C627.017 333.383 651.553 348.072 652.214 348.465Z" fill="#9C398C"/>
<path d="M656.329 222.358C661.363 224.459 645.9 214.934 645.9 214.934C645.9 214.934 663.601 220.574 688.519 212.143C682.104 223.205 656.329 222.358 656.329 222.358Z" fill="#9C398C"/>
<path d="M659.881 141.649C659.508 142.104 659.092 142.521 658.639 142.896C642.777 146.167 624.39 146.792 610.757 137.764C587.354 122.261 542.378 115.897 527.969 113.023C540.101 110.297 568.433 102.538 598.32 122.704C610.91 131.194 620.833 134.941 630.038 137.735C648.091 143.219 659.881 141.649 659.881 141.649Z" fill="#D969BD"/>
<path d="M560.337 93.0358C526.193 94.8529 499.877 117.948 499.877 117.948C507.312 89.7904 560.337 93.0358 560.337 93.0358Z" fill="#D969BD"/>
<path d="M428.75 157.201C429.109 156.454 430.005 156.139 430.752 156.498C431.499 156.856 431.814 157.753 431.455 158.5L430.103 157.85C431.455 158.499 431.455 158.5 431.454 158.501L431.453 158.503C431.452 158.505 431.451 158.508 431.449 158.511C431.446 158.518 431.441 158.528 431.435 158.541C431.422 158.566 431.404 158.604 431.38 158.653C431.332 158.751 431.261 158.894 431.168 159.081C430.981 159.454 430.704 160 430.34 160.695C429.612 162.085 428.535 164.075 427.135 166.488C424.335 171.311 420.236 177.833 415.035 184.628C405.759 196.747 392.812 209.954 377.325 215.706C378.633 215.889 380.144 216.037 381.816 216.085C387.807 216.257 395.848 215.184 404.081 210.201C404.79 209.772 405.712 209.998 406.141 210.707C406.57 211.415 406.344 212.338 405.635 212.767C396.8 218.115 388.155 219.268 381.729 219.084C378.517 218.991 375.852 218.565 373.983 218.159C373.047 217.956 372.309 217.757 371.799 217.607C371.544 217.532 371.345 217.47 371.207 217.424C371.138 217.402 371.084 217.384 371.046 217.371C371.027 217.364 371.011 217.358 371 217.354C370.995 217.352 370.99 217.351 370.987 217.349C370.985 217.349 370.983 217.349 370.982 217.348L370.98 217.347C370.979 217.346 370.991 217.313 371.488 215.936L370.979 217.346C370.356 217.122 369.954 216.516 369.989 215.855C370.025 215.194 370.49 214.635 371.133 214.478C388.01 210.369 402.397 196.205 412.654 182.804C417.757 176.136 421.787 169.726 424.54 164.982C425.916 162.611 426.973 160.659 427.683 159.302C428.038 158.624 428.307 158.096 428.486 157.738C428.575 157.559 428.642 157.423 428.687 157.333C428.709 157.288 428.725 157.254 428.736 157.232C428.741 157.221 428.745 157.213 428.747 157.208C428.749 157.205 428.75 157.203 428.75 157.202V157.201Z" fill="#17091D"/>
<path d="M412.418 209.728C413.24 209.837 413.817 210.593 413.707 211.414L412.22 211.215C413.677 211.409 413.707 211.414 413.707 211.415C413.707 211.415 413.707 211.417 413.706 211.418C413.706 211.42 413.706 211.423 413.706 211.426C413.705 211.433 413.703 211.443 413.702 211.456C413.698 211.481 413.693 211.517 413.686 211.563C413.672 211.656 413.652 211.793 413.624 211.969C413.569 212.321 413.482 212.834 413.36 213.487C413.115 214.793 412.726 216.663 412.143 218.937C410.977 223.482 409.034 229.661 405.917 236.193C400.37 247.822 391.029 260.714 375.622 267.348C375.678 267.355 375.734 267.361 375.789 267.368C379.627 267.802 384.857 268.289 390.435 268.508C396.02 268.728 401.914 268.676 407.092 268.043C412.331 267.402 416.589 266.193 419.113 264.279C419.773 263.778 420.714 263.908 421.214 264.568C421.715 265.228 421.585 266.169 420.925 266.67C417.735 269.089 412.797 270.367 407.456 271.02C402.053 271.681 395.982 271.729 390.318 271.506C384.645 271.284 379.338 270.788 375.453 270.348C373.509 270.128 371.917 269.922 370.811 269.771C370.258 269.695 369.826 269.634 369.531 269.59C369.383 269.569 369.27 269.552 369.193 269.541C369.155 269.535 369.126 269.53 369.106 269.527L369.077 269.522H369.075C369.075 269.519 369.084 269.458 369.304 268.04L369.074 269.522C368.38 269.414 367.854 268.84 367.807 268.14C367.76 267.44 368.206 266.8 368.879 266.601C386.709 261.33 397.175 247.55 403.209 234.901C406.221 228.587 408.106 222.601 409.237 218.192C409.802 215.989 410.178 214.184 410.412 212.935C410.528 212.311 410.61 211.826 410.662 211.5C410.687 211.337 410.705 211.213 410.717 211.131C410.723 211.091 410.727 211.061 410.73 211.042C410.731 211.032 410.732 211.025 410.733 211.021L410.734 211.017L410.761 210.867C410.937 210.127 411.648 209.626 412.418 209.728Z" fill="#17091D"/>
<path d="M437.918 225.362C438.285 224.696 439.104 224.404 439.819 224.708C440.581 225.033 440.935 225.914 440.611 226.676L439.231 226.088C440.611 226.676 440.611 226.677 440.611 226.677L440.61 226.679L440.595 226.713C440.585 226.737 440.569 226.774 440.549 226.822C440.508 226.917 440.447 227.057 440.368 227.24C440.21 227.607 439.978 228.145 439.678 228.83C439.078 230.202 438.21 232.166 437.136 234.541C434.989 239.29 432.018 245.687 428.721 252.269C425.427 258.845 421.794 265.634 418.325 271.157C416.592 273.918 414.884 276.389 413.264 278.367C412.856 278.865 412.447 279.339 412.039 279.783C414.615 279.615 418.187 279.293 422.286 278.671C430.685 277.397 441.179 274.889 449.855 269.985C450.576 269.577 451.491 269.831 451.899 270.552C452.306 271.273 452.052 272.188 451.331 272.596C442.194 277.761 431.286 280.341 422.737 281.638C418.448 282.288 414.723 282.62 412.068 282.789C410.74 282.874 409.677 282.919 408.945 282.942C408.578 282.953 408.294 282.959 408.1 282.962C408.003 282.964 407.928 282.965 407.877 282.965C407.852 282.965 407.832 282.966 407.819 282.966H407.796C407.796 282.963 407.795 282.902 407.789 281.466L407.795 282.966C407.112 282.969 406.514 282.51 406.339 281.85C406.164 281.19 406.458 280.495 407.053 280.159C408.093 279.573 409.408 278.341 410.943 276.467C412.453 274.622 414.088 272.266 415.785 269.563C419.179 264.158 422.762 257.466 426.038 250.925C429.312 244.39 432.266 238.031 434.403 233.305C435.47 230.943 436.333 228.99 436.929 227.628C437.227 226.947 437.457 226.414 437.614 226.052C437.692 225.871 437.751 225.733 437.791 225.64C437.811 225.593 437.826 225.558 437.836 225.534C437.841 225.523 437.845 225.514 437.848 225.508C437.849 225.506 437.849 225.504 437.85 225.502L437.851 225.5L437.918 225.362Z" fill="#17091D"/>
<path d="M583.877 205.912C584.592 205.494 585.511 205.735 585.929 206.45L585.93 206.452C585.931 206.453 585.932 206.455 585.933 206.457C585.935 206.461 585.939 206.467 585.944 206.475C585.952 206.49 585.966 206.513 585.983 206.542C586.017 206.601 586.066 206.687 586.13 206.8C586.259 207.026 586.447 207.357 586.685 207.783C587.16 208.637 587.833 209.872 588.634 211.406C590.234 214.473 592.345 218.745 594.385 223.557C596.423 228.365 598.401 233.74 599.724 239.011C601.042 244.261 601.739 249.518 601.122 254.047C601.011 254.868 600.254 255.443 599.433 255.331C598.612 255.219 598.038 254.463 598.15 253.643C598.692 249.661 598.092 244.832 596.815 239.741C595.542 234.672 593.625 229.451 591.623 224.728C589.623 220.008 587.548 215.812 585.974 212.794C585.187 211.286 584.526 210.075 584.063 209.242C583.831 208.826 583.649 208.505 583.526 208.288C583.464 208.18 583.416 208.097 583.385 208.043C583.369 208.016 583.357 207.996 583.35 207.982C583.346 207.976 583.343 207.971 583.341 207.968C583.34 207.967 583.339 207.965 583.339 207.965C582.921 207.25 583.162 206.33 583.877 205.912Z" fill="#17091D"/>
<path d="M533.773 226.422C534.601 226.405 535.286 227.064 535.303 227.892V227.907C535.303 227.918 535.304 227.936 535.305 227.961C535.306 228.011 535.308 228.087 535.312 228.188C535.319 228.389 535.332 228.69 535.354 229.078C535.397 229.856 535.474 230.985 535.611 232.379C535.885 235.17 536.399 239.009 537.355 243.206C539.284 251.676 542.943 261.28 549.758 266.858C550.399 267.382 550.494 268.327 549.969 268.968C549.444 269.609 548.5 269.704 547.859 269.179C540.239 262.942 536.395 252.498 534.43 243.873C533.439 239.523 532.909 235.553 532.625 232.672C532.483 231.231 532.403 230.058 532.358 229.242C532.335 228.835 532.322 228.516 532.314 228.297C532.31 228.188 532.308 228.104 532.306 228.046C532.305 228.017 532.304 227.994 532.304 227.979C532.304 227.971 532.303 227.965 532.303 227.96V227.953C532.303 227.953 532.314 227.952 533.803 227.922L532.303 227.952C532.286 227.124 532.945 226.439 533.773 226.422Z" fill="#17091D"/>
<path d="M618.954 202.872C619.644 202.413 620.575 202.601 621.033 203.291L619.784 204.121C621.033 203.291 621.034 203.291 621.034 203.292L621.035 203.294C621.036 203.295 621.038 203.297 621.04 203.3C621.044 203.305 621.049 203.314 621.056 203.324C621.07 203.345 621.09 203.376 621.116 203.417C621.17 203.498 621.248 203.617 621.35 203.774C621.553 204.088 621.849 204.551 622.226 205.15C622.979 206.349 624.053 208.095 625.342 210.293C627.919 214.688 631.358 220.898 634.807 228.164C641.683 242.649 648.693 261.513 648.851 278.587C649.009 295.808 641.893 306.447 634.67 312.753C631.077 315.89 627.476 317.941 624.772 319.209C623.418 319.843 622.284 320.283 621.482 320.567C621.08 320.709 620.762 320.813 620.539 320.882C620.428 320.916 620.34 320.941 620.278 320.959C620.248 320.968 620.223 320.974 620.205 320.979C620.196 320.982 620.189 320.984 620.184 320.985C620.181 320.986 620.179 320.987 620.177 320.987L620.174 320.988C620.172 320.986 620.155 320.926 619.784 319.54L620.172 320.988C619.574 321.148 618.939 320.925 618.573 320.425C618.208 319.925 618.187 319.251 618.522 318.729C630.975 299.329 630.296 280.122 626.48 265.697C624.57 258.479 621.876 252.473 619.66 248.273C618.553 246.175 617.567 244.532 616.861 243.418C616.509 242.861 616.227 242.437 616.034 242.155C615.938 242.014 615.864 241.909 615.816 241.84C615.791 241.805 615.774 241.78 615.763 241.764C615.757 241.756 615.752 241.75 615.75 241.747L615.748 241.744C615.262 241.074 615.41 240.136 616.08 239.649C616.751 239.163 617.689 239.311 618.176 239.981L616.962 240.863C618.176 239.982 618.176 239.982 618.177 239.983L618.179 239.985C618.18 239.987 618.182 239.99 618.184 239.993C618.188 239.999 618.195 240.008 618.202 240.018C618.218 240.04 618.24 240.072 618.269 240.112C618.326 240.193 618.409 240.312 618.514 240.466C618.724 240.774 619.024 241.226 619.396 241.812C620.139 242.985 621.165 244.697 622.314 246.873C624.609 251.222 627.399 257.442 629.38 264.93C633.1 278.988 633.973 297.571 623.315 316.574C623.375 316.546 623.437 316.521 623.498 316.492C626.01 315.314 629.359 313.407 632.696 310.493C639.334 304.698 646.001 294.867 645.851 278.614C645.699 262.214 638.926 243.837 632.097 229.451C628.693 222.281 625.298 216.149 622.754 211.809C621.483 209.641 620.425 207.922 619.687 206.747C619.317 206.16 619.027 205.708 618.831 205.405C618.733 205.254 618.658 205.138 618.609 205.062C618.584 205.024 618.565 204.996 618.553 204.977C618.547 204.968 618.542 204.961 618.539 204.957C618.538 204.955 618.537 204.953 618.536 204.952L618.535 204.951C618.077 204.261 618.264 203.331 618.954 202.872Z" fill="#17091D"/>
<path d="M648.064 236.967C648.542 236.29 649.478 236.129 650.155 236.607L649.289 237.832C650.092 236.695 650.15 236.613 650.155 236.608H650.156C650.156 236.608 650.157 236.609 650.158 236.61C650.161 236.611 650.163 236.614 650.167 236.617C650.175 236.622 650.187 236.63 650.201 236.641C650.231 236.662 650.275 236.693 650.33 236.733C650.442 236.813 650.604 236.93 650.81 237.081C651.222 237.384 651.81 237.821 652.519 238.367C653.936 239.459 655.844 240.987 657.802 242.735C659.755 244.477 661.784 246.462 663.428 248.465C665.04 250.429 666.419 252.573 666.852 254.625C667.023 255.436 666.505 256.231 665.695 256.403C664.884 256.574 664.087 256.055 663.916 255.244C663.637 253.924 662.649 252.243 661.11 250.368C659.602 248.532 657.697 246.663 655.804 244.973C653.916 243.288 652.067 241.806 650.689 240.744C650 240.214 649.431 239.791 649.035 239.5C648.838 239.355 648.683 239.243 648.578 239.168C648.527 239.131 648.487 239.103 648.461 239.084C648.448 239.075 648.438 239.068 648.432 239.064C648.429 239.062 648.427 239.06 648.426 239.059L648.424 239.058C647.747 238.58 647.586 237.644 648.064 236.967Z" fill="#17091D"/>
<path d="M643.768 213.489C644.235 212.804 645.169 212.628 645.853 213.095C651.555 216.985 656.566 219.552 660.139 221.143C661.925 221.938 663.351 222.489 664.323 222.839C664.81 223.014 665.183 223.14 665.431 223.22C665.555 223.26 665.647 223.289 665.707 223.307C665.737 223.316 665.759 223.322 665.773 223.326L665.786 223.33C666.582 223.561 667.041 224.393 666.811 225.189C666.58 225.984 665.749 226.442 664.953 226.212L665.37 224.772C664.973 226.144 664.954 226.209 664.952 226.212H664.951C664.951 226.212 664.949 226.211 664.948 226.211C664.947 226.211 664.944 226.21 664.942 226.209C664.936 226.207 664.927 226.204 664.916 226.201C664.896 226.195 664.866 226.187 664.829 226.176C664.755 226.153 664.647 226.119 664.508 226.074C664.23 225.985 663.826 225.849 663.308 225.662C662.271 225.289 660.776 224.71 658.918 223.883C655.203 222.229 650.031 219.577 644.161 215.573C643.477 215.107 643.301 214.173 643.768 213.489Z" fill="#17091D"/>
<path d="M641.452 186.108C642.128 185.629 643.063 185.789 643.542 186.465H643.543C643.544 186.466 643.545 186.467 643.547 186.47C643.551 186.475 643.557 186.484 643.566 186.497C643.584 186.522 643.612 186.56 643.649 186.611C643.725 186.714 643.841 186.868 643.994 187.067C644.3 187.465 644.756 188.04 645.348 188.738C646.533 190.137 648.258 192.02 650.407 193.954C654.738 197.852 660.633 201.812 667.205 202.634C668.027 202.736 668.61 203.486 668.508 204.308C668.405 205.13 667.655 205.713 666.833 205.61C659.363 204.676 652.907 200.241 648.399 196.183C646.128 194.139 644.311 192.154 643.059 190.679C642.433 189.94 641.947 189.327 641.615 188.895C641.45 188.68 641.322 188.51 641.235 188.391C641.192 188.332 641.158 188.286 641.135 188.254C641.123 188.238 641.114 188.225 641.107 188.216C641.104 188.211 641.101 188.208 641.1 188.205C641.099 188.204 641.097 188.202 641.097 188.201V188.2C641.101 188.196 641.177 188.141 642.319 187.332L641.096 188.199C640.617 187.523 640.776 186.587 641.452 186.108Z" fill="#17091D"/>
<path d="M612.805 146.36C613.158 145.611 614.051 145.29 614.801 145.644H614.802C614.803 145.644 614.806 145.646 614.81 145.647C614.816 145.651 614.827 145.655 614.842 145.662C614.871 145.676 614.915 145.697 614.974 145.724C615.092 145.778 615.268 145.858 615.497 145.96C615.955 146.164 616.622 146.454 617.452 146.797C619.114 147.484 621.42 148.379 624.002 149.212C626.589 150.047 629.426 150.811 632.153 151.248C634.9 151.689 637.431 151.78 639.452 151.348C640.262 151.175 641.059 151.691 641.232 152.501C641.406 153.311 640.889 154.108 640.079 154.281C637.538 154.825 634.587 154.678 631.678 154.211C628.749 153.741 625.755 152.929 623.081 152.066C620.403 151.202 618.019 150.278 616.306 149.569C615.448 149.215 614.757 148.914 614.277 148.7C614.038 148.593 613.85 148.509 613.723 148.45C613.659 148.421 613.61 148.398 613.576 148.382C613.559 148.374 613.546 148.368 613.537 148.364C613.533 148.362 613.529 148.361 613.526 148.359C613.525 148.359 613.524 148.358 613.523 148.357H613.522L613.521 148.356C612.772 148.003 612.452 147.11 612.805 146.36Z" fill="#17091D"/>
<path d="M382.439 346.263C355.632 359.665 337.885 337.98 337.885 337.98C337.885 337.98 375.411 347.28 397.277 323.443C397.277 323.443 398.443 334.608 382.439 346.263Z" fill="#9C398C"/>
<path d="M432.824 365.729C427.666 380.574 403.42 386.484 403.42 386.484C403.42 386.484 403.968 385.393 408.193 374.193C412.417 362.992 407.568 364.09 407.568 364.09C397.034 375.483 367.815 368.047 367.815 368.047C367.815 368.047 408.803 362.64 413.329 347.43C416.471 336.891 418.356 322.314 421.287 313.756C422.014 319.055 423.18 325.171 425.061 328.998C428.966 336.913 437.982 350.879 432.824 365.729Z" fill="#9C398C"/>
<path d="M412.565 279.47C415.857 279.158 419.112 278.534 422.286 277.606C425.435 276.707 428.531 275.631 431.559 274.383C434.585 273.147 437.541 271.759 440.436 270.247L441.526 269.684L442.616 269.095C443.342 268.695 444.069 268.324 444.755 267.899L446.877 266.671L448.962 265.381C451.744 263.658 454.468 261.841 457.134 259.929L459.136 258.497L461.108 257.018C461.769 256.531 462.43 256.041 463.07 255.525L465.02 254.006C470.211 249.935 475.191 245.589 480.276 241.217C476.297 246.616 471.814 251.625 466.887 256.175C465.641 257.302 464.421 258.457 463.117 259.522L461.181 261.143L459.19 262.699C457.875 263.752 456.481 264.705 455.118 265.697C454.428 266.18 453.716 266.634 453.015 267.103C452.314 267.572 451.61 268.041 450.887 268.473C448.017 270.265 445.045 271.888 441.987 273.336C438.928 274.794 435.772 276.042 432.543 277.072C429.307 278.101 425.992 278.861 422.631 279.343C420.958 279.574 419.273 279.712 417.585 279.758C415.907 279.822 414.226 279.726 412.565 279.47Z" fill="#D969BD"/>
<path d="M471.998 271.648C475.934 269.028 479.723 266.194 483.349 263.159C485.144 261.651 486.883 260.099 488.565 258.485C490.247 256.872 491.867 255.215 493.396 253.47L493.981 252.827L494.54 252.162C494.904 251.718 495.296 251.282 495.652 250.828L496.742 249.472C497.105 249.018 497.428 248.539 497.784 248.081L498.304 247.386L498.798 246.66C499.117 246.18 499.47 245.718 499.782 245.231C500.403 244.254 501.05 243.287 501.624 242.28C502.197 241.274 502.76 240.253 503.334 239.235L504.115 237.669L504.511 236.88L504.874 236.08L505.601 234.47C505.819 233.925 506.03 233.38 506.262 232.828L506.603 232.003L506.901 231.167C507.116 230.607 507.315 230.044 507.541 229.484C507.501 230.084 507.435 230.68 507.384 231.28L507.283 232.181L507.137 233.071C507.043 233.667 506.919 234.26 506.811 234.856L506.378 236.618L506.149 237.501L505.877 238.366C505.688 238.944 505.514 239.522 505.303 240.1L504.635 241.797C504.417 242.368 504.163 242.92 503.908 243.472C502.888 245.691 501.691 247.823 500.33 249.85C499.989 250.356 499.651 250.868 499.288 251.359L498.198 252.812C497.835 253.299 497.428 253.757 497.047 254.233L496.462 254.935L495.855 255.622C495.049 256.534 494.199 257.406 493.345 258.275C492.492 259.143 491.591 259.957 490.668 260.746C488.839 262.337 486.917 263.817 484.911 265.18C482.911 266.536 480.83 267.766 478.678 268.865C476.536 269.985 474.301 270.916 471.998 271.648Z" fill="#D969BD"/>
<path d="M582.633 208.604C583.658 209.778 584.617 211.008 585.506 212.289C586.414 213.561 587.246 214.88 588.049 216.217C589.653 218.909 591.082 221.701 592.328 224.576C594.864 230.368 596.587 236.483 597.449 242.747C597.678 244.313 597.787 245.898 597.914 247.471L597.99 249.848C598.009 250.244 597.99 250.64 597.99 251.04L597.965 252.228L597.932 253.421C597.932 253.817 597.874 254.213 597.849 254.605C597.783 255.398 597.736 256.19 597.642 256.978L597.311 259.337L597.224 259.922L597.104 260.507L596.868 261.67C596.712 262.448 596.556 263.222 596.327 263.985L595.691 266.267C595.44 267.016 595.175 267.761 594.914 268.502C594.776 268.866 594.649 269.247 594.507 269.615L594.038 270.705C593.719 271.432 593.417 272.158 593.079 272.856C592.742 273.554 592.353 274.248 591.99 274.931C591.801 275.273 591.627 275.622 591.423 275.956L590.809 276.927C590.381 277.577 589.963 278.235 589.527 278.874C590.58 275.938 591.674 273.078 592.386 270.105L592.687 269.015C592.774 268.651 592.847 268.27 592.927 267.899L593.41 265.679C593.635 264.181 593.948 262.706 594.082 261.201C594.293 259.708 594.369 258.203 594.482 256.706C594.525 255.957 594.514 255.205 594.547 254.453C594.547 254.089 594.576 253.704 594.576 253.33L594.551 252.203C594.521 249.197 594.296 246.196 593.875 243.219C593.044 237.225 591.646 231.323 589.698 225.593C588.739 222.686 587.66 219.848 586.487 217.017C585.313 214.186 584.031 211.376 582.633 208.604Z" fill="#D969BD"/>
<path d="M536.008 227.863C536.361 231.275 537.06 234.642 538.093 237.912C539.087 241.153 540.317 244.317 541.772 247.379C544.672 253.482 548.291 259.217 552.553 264.46C556.824 269.73 561.545 274.619 566.661 279.073C571.747 283.597 577.224 287.759 582.814 291.865C576.439 289.041 570.411 285.491 564.849 281.286C559.212 277.089 554.126 272.199 549.709 266.731C545.248 261.246 541.681 255.09 539.139 248.491C537.882 245.199 536.952 241.79 536.364 238.315C536.068 236.586 535.882 234.839 535.808 233.086C535.707 231.342 535.774 229.594 536.008 227.863Z" fill="#D969BD"/>
</svg>
