<svg width="1000" height="1000" viewBox="0 0 1000 1000" fill="none" xmlns="http://www.w3.org/2000/svg">
<path d="M633.543 241.087C633.543 241.087 631.233 264.71 637.648 284.174C644.063 303.639 650.408 321.756 654.72 335.689C659.032 349.623 669.144 382.934 645.69 401.941C645.69 401.941 648.113 384.133 643.336 375.12C643.336 375.12 635.563 417.31 588.687 419.043L574.045 417.975C574.045 417.975 602.581 377.999 602.185 351.131C601.789 324.263 605.109 303.385 606.875 285.813C608.64 268.242 596.381 240.426 596.381 240.426L633.543 241.087Z" fill="#CE44A2"/>
<path d="M633.57 239.586C633.989 239.594 634.385 239.776 634.664 240.088C634.942 240.401 635.078 240.815 635.037 241.232L635.036 241.234C635.036 241.236 635.035 241.239 635.035 241.244C635.034 241.254 635.033 241.27 635.031 241.291C635.027 241.334 635.021 241.399 635.013 241.485C634.999 241.657 634.978 241.914 634.953 242.249C634.903 242.921 634.838 243.905 634.781 245.15C634.666 247.639 634.579 251.163 634.69 255.289C634.913 263.561 635.931 274.169 639.073 283.703C645.473 303.124 651.837 321.297 656.153 335.244C658.307 342.205 661.979 354.206 662.117 366.895C662.255 379.615 658.839 393.214 646.634 403.105C646.157 403.492 645.491 403.548 644.955 403.246C644.419 402.945 644.121 402.346 644.204 401.737V401.736C644.204 401.734 644.204 401.731 644.205 401.728C644.206 401.721 644.208 401.709 644.21 401.694C644.214 401.662 644.22 401.614 644.228 401.551C644.244 401.424 644.267 401.234 644.295 400.989C644.35 400.496 644.425 399.779 644.5 398.89C644.65 397.109 644.8 394.644 644.804 391.906C644.81 387.993 644.513 383.676 643.569 380.014C643.348 380.701 643.092 381.452 642.798 382.254C641.301 386.332 638.806 391.791 634.804 397.311C626.772 408.391 612.707 419.654 588.743 420.54C588.688 420.542 588.633 420.541 588.579 420.537L573.936 419.469C573.396 419.429 572.919 419.101 572.688 418.611C572.458 418.12 572.51 417.543 572.825 417.102L572.826 417.101C572.827 417.1 572.827 417.098 572.829 417.096C572.832 417.092 572.837 417.085 572.843 417.075C572.856 417.057 572.876 417.029 572.902 416.992C572.954 416.918 573.033 416.807 573.135 416.659C573.341 416.365 573.645 415.926 574.031 415.359C574.804 414.223 575.909 412.569 577.235 410.498C579.888 406.355 583.421 400.554 586.939 393.923C594.018 380.58 600.877 364.169 600.685 351.152C600.288 324.17 603.626 303.147 605.383 285.661C606.232 277.2 603.695 266.105 600.857 256.974C599.448 252.44 597.983 248.448 596.871 245.589C596.315 244.161 595.848 243.017 595.52 242.232C595.357 241.84 595.228 241.537 595.14 241.333C595.097 241.231 595.063 241.154 595.041 241.103C595.03 241.077 595.022 241.058 595.016 241.046C595.014 241.04 595.011 241.035 595.009 241.032C595.009 241.031 595.009 241.03 595.009 241.03V241.029C594.802 240.561 594.849 240.02 595.132 239.594C595.415 239.168 595.896 238.915 596.408 238.924L633.57 239.586ZM598.653 241.964C598.939 242.662 599.283 243.516 599.667 244.501C600.798 247.407 602.288 251.467 603.722 256.083C606.573 265.253 609.282 276.851 608.367 285.961C606.593 303.618 603.291 324.353 603.685 351.107C603.889 364.957 596.678 381.967 589.589 395.329C586.022 402.051 582.446 407.924 579.761 412.116C578.559 413.994 577.533 415.536 576.767 416.667L588.71 417.538C611.573 416.67 624.811 405.985 632.376 395.55C636.177 390.306 638.555 385.108 639.981 381.221C640.693 379.28 641.166 377.671 641.46 376.554C641.606 375.996 641.709 375.56 641.773 375.269C641.805 375.123 641.828 375.014 641.842 374.943C641.85 374.907 641.855 374.881 641.858 374.865C641.86 374.857 641.86 374.851 641.861 374.848V374.846C641.977 374.219 642.477 373.733 643.108 373.636C643.739 373.539 644.363 373.852 644.662 374.416C647.238 379.277 647.813 386.313 647.804 391.911C647.801 394.325 647.684 396.529 647.555 398.266C656.546 389.429 659.237 378.017 659.117 366.927C658.984 354.725 655.445 343.104 653.287 336.131C648.979 322.211 642.653 304.151 636.223 284.642C632.951 274.712 631.917 263.776 631.691 255.37C631.578 251.158 631.667 247.559 631.785 245.011C631.83 244.029 631.881 243.203 631.925 242.557L598.653 241.964Z" fill="#17091D"/>
<path d="M621.731 298.048C622.021 297.272 622.885 296.878 623.661 297.167C624.437 297.457 624.832 298.321 624.542 299.097V299.098C624.542 299.099 624.541 299.1 624.54 299.102C624.539 299.106 624.536 299.113 624.533 299.121C624.527 299.139 624.516 299.166 624.503 299.202C624.476 299.276 624.436 299.387 624.384 299.534C624.279 299.827 624.127 300.265 623.936 300.833C623.553 301.97 623.019 303.628 622.412 305.703C621.199 309.857 619.702 315.672 618.57 322.315C616.332 335.455 615.566 351.579 620.98 364.515L621.242 365.128C626.186 376.447 621.031 387.901 615.066 396.211C612.054 400.409 608.755 403.922 606.216 406.381C604.944 407.612 603.859 408.584 603.088 409.25C602.702 409.584 602.395 409.841 602.183 410.016C602.076 410.104 601.994 410.171 601.937 410.217C601.908 410.24 601.887 410.258 601.871 410.27C601.863 410.276 601.857 410.281 601.853 410.284C601.851 410.286 601.849 410.287 601.848 410.288L601.846 410.29C601.845 410.291 601.836 410.28 600.914 409.115L601.845 410.29C601.195 410.804 600.251 410.694 599.737 410.044C599.224 409.395 599.334 408.452 599.983 407.938C599.984 407.937 599.985 407.937 599.986 407.936C599.989 407.934 599.993 407.93 599.998 407.926C600.01 407.917 600.028 407.902 600.053 407.882C600.102 407.843 600.176 407.782 600.273 407.701C600.469 407.54 600.759 407.298 601.126 406.981C601.86 406.346 602.903 405.413 604.129 404.226C606.584 401.848 609.751 398.472 612.629 394.462C618.446 386.357 622.768 376.119 618.493 366.33L618.214 365.678C612.459 351.932 613.349 335.104 615.613 321.811C616.769 315.028 618.295 309.098 619.532 304.863C620.151 302.744 620.698 301.047 621.092 299.876C621.289 299.291 621.448 298.838 621.558 298.529C621.613 298.374 621.655 298.256 621.685 298.175C621.699 298.135 621.711 298.104 621.719 298.082C621.723 298.072 621.725 298.064 621.728 298.058C621.729 298.055 621.73 298.053 621.73 298.051L621.731 298.049C621.736 298.05 621.815 298.079 623.137 298.573L621.731 298.048Z" fill="#17091D"/>
<path d="M643.542 344.638C644.367 344.572 645.089 345.189 645.155 346.014V346.018C645.155 346.021 645.155 346.025 645.156 346.03C645.157 346.04 645.158 346.055 645.16 346.074C645.163 346.113 645.167 346.17 645.172 346.244C645.183 346.392 645.199 346.609 645.217 346.889C645.255 347.449 645.304 348.262 645.356 349.275C645.46 351.301 645.57 354.134 645.598 357.364C645.654 363.797 645.384 371.912 644.039 378.372C643.87 379.183 643.075 379.704 642.264 379.535C641.453 379.366 640.932 378.572 641.101 377.761C642.378 371.628 642.653 363.776 642.598 357.39C642.571 354.212 642.462 351.421 642.36 349.428C642.309 348.431 642.26 347.634 642.223 347.088C642.205 346.815 642.191 346.604 642.18 346.463C642.175 346.392 642.171 346.338 642.169 346.303C642.167 346.285 642.166 346.272 642.166 346.264C642.165 346.259 642.165 346.256 642.165 346.254V346.251C642.099 345.425 642.716 344.703 643.542 344.638Z" fill="#17091D"/>
<path d="M439.144 418.465H439.02C420.575 417.051 403.848 409.634 389.304 396.42C385.26 392.736 381.51 388.742 378.088 384.474C384.876 396.369 392.617 408.22 392.737 408.402C392.902 408.649 392.996 408.936 393.011 409.233C393.025 409.529 392.958 409.824 392.817 410.086C392.676 410.347 392.467 410.566 392.211 410.717C391.956 410.869 391.664 410.948 391.367 410.946H391.244C376.38 409.812 363.358 395.184 356.402 385.699L358.473 393.901C358.551 394.213 358.537 394.541 358.43 394.844C358.324 395.147 358.13 395.412 357.874 395.606C357.618 395.8 357.31 395.914 356.99 395.934C356.669 395.954 356.35 395.879 356.072 395.718C343.657 388.577 334.834 375.429 329.854 356.643C325.375 339.741 324.79 321.522 324.739 309.29C324.681 295.036 330.126 269.099 338.608 243.205C348.698 212.398 361.557 185.723 374.822 168.094C375.32 167.436 375.814 166.793 376.308 166.157C394.059 143.497 417.938 138.74 434.847 138.74C445.915 138.74 454.127 140.746 456.278 141.328C456.55 141.23 456.921 141.095 457.411 140.935C460.793 139.801 470.916 136.829 491.846 133.667C497.001 132.891 502.208 132.502 507.421 132.504C532.615 132.504 558.336 141.502 581.797 158.521C583.116 159.477 584.449 160.473 585.76 161.487C604.002 175.555 615.734 194.391 622.363 207.717C630.718 224.526 634.463 239.215 635.117 246.683C635.589 252.022 633.202 268.35 626.435 275.757C624.132 278.272 621.528 279.547 618.702 279.547C618.578 279.547 618.459 279.547 618.339 279.547C614.895 279.413 608.499 278.17 599.323 275.851C587.293 272.81 572.923 269.383 567.301 268.052C566.708 267.918 566.15 267.665 565.658 267.308C565.167 266.952 564.753 266.499 564.442 265.977C564.151 265.49 563.963 264.949 563.886 264.387C563.81 263.825 563.848 263.253 563.999 262.707C566.654 253.04 563.85 242.562 560.955 235.679C560.457 247.966 554.823 264.215 554.522 265.08C554.415 265.385 554.22 265.652 553.962 265.846C553.703 266.041 553.392 266.153 553.069 266.17L489.866 269.077H489.79C489.526 269.077 489.266 269.013 489.032 268.89C488.798 268.767 488.597 268.59 488.447 268.373C488.296 268.156 488.2 267.906 488.167 267.644C488.134 267.382 488.165 267.115 488.257 266.868C491.163 259.076 489.31 245.713 487.512 236.849C484.759 254.108 478.406 268.87 478.09 269.597C477.951 269.919 477.712 270.188 477.408 270.363C477.105 270.539 476.753 270.611 476.404 270.571C472.34 270.103 468.251 269.869 464.16 269.87C440.913 269.87 423.303 277.418 419.616 279.13C412.235 319.469 423.078 350.851 433.521 370.123C444.908 391.132 458.221 402.613 458.348 402.725C458.603 402.942 458.786 403.232 458.871 403.556C458.956 403.88 458.94 404.222 458.824 404.537C458.708 404.851 458.499 405.122 458.224 405.314C457.949 405.505 457.622 405.608 457.287 405.607H457.24C443.074 405.207 430.982 399.135 424.008 394.704C430.121 403.75 440.281 415.638 440.412 415.783C440.614 416.021 440.744 416.312 440.786 416.621C440.828 416.931 440.782 417.246 440.651 417.529C440.521 417.813 440.312 418.054 440.049 418.223C439.787 418.391 439.481 418.482 439.169 418.483L439.144 418.465Z" fill="#CE44A2"/>
<path d="M507.425 134.103C529.92 134.103 555.372 141.328 580.845 159.811C582.153 160.761 583.462 161.739 584.772 162.744C617.536 188.016 632.131 231.227 633.496 246.789C634.107 253.694 629.78 277.865 618.709 277.865H618.415C614.652 277.716 607.543 276.186 599.734 274.212C587.809 271.2 573.708 267.834 567.689 266.41C567.327 266.338 566.984 266.194 566.68 265.985C566.376 265.776 566.118 265.508 565.921 265.196C565.724 264.884 565.593 264.535 565.535 264.171C565.478 263.807 565.495 263.435 565.586 263.077C569.734 247.97 561.227 231.594 558.993 228.211C558.692 227.76 558.521 227.52 558.521 227.52C562.153 238.263 552.992 264.476 552.992 264.476L489.79 267.384C494.337 255.245 487.952 230.951 487.058 227.684C486.993 227.44 486.956 227.32 486.956 227.32C485.58 248.22 476.593 268.892 476.593 268.892C472.457 268.424 468.297 268.195 464.134 268.205C437.287 268.205 418.138 277.985 418.138 277.985C403.096 357.748 457.262 403.942 457.262 403.942C435.526 403.332 418.933 389.119 418.675 388.897C422.46 397.365 439.144 416.844 439.144 416.844C397.008 413.613 374.851 378.968 368.469 367.143C368.435 367.075 368.383 367.019 368.319 366.98C368.255 366.941 368.181 366.92 368.106 366.921C368.005 366.917 367.907 366.949 367.828 367.011C367.749 367.073 367.694 367.16 367.673 367.259C367.661 367.321 367.669 367.386 367.695 367.444C372.744 380.858 391.367 409.307 391.367 409.307C370.3 407.697 352.766 377.326 352.501 376.853L356.9 394.297C329.595 378.594 326.497 336.804 326.388 309.282C326.279 282.2 346.671 208.251 376.151 169.071C376.636 168.424 377.12 167.787 377.604 167.16C394.88 145.104 418.105 140.372 434.854 140.372C447.444 140.372 456.372 143.047 456.372 143.047C456.372 143.047 456.855 142.843 457.945 142.48C461.493 141.291 471.486 138.395 492.089 135.269C497.162 134.504 502.286 134.122 507.417 134.125M507.417 130.854C502.121 130.851 496.832 131.246 491.595 132.035C470.527 135.226 460.309 138.235 456.888 139.38C456.63 139.467 456.401 139.543 456.201 139.616C449.207 137.916 442.033 137.072 434.836 137.101C417.564 137.101 393.165 141.967 375.014 165.143C374.52 165.775 374.012 166.433 373.511 167.101C360.136 184.876 347.187 211.719 337.042 242.693C328.52 268.717 323.046 294.858 323.104 309.271C323.155 321.595 323.744 339.951 328.273 357.039C333.359 376.261 342.439 389.747 355.258 397.11C355.752 397.397 356.314 397.548 356.885 397.546C357.383 397.546 357.874 397.433 358.321 397.215C358.768 396.996 359.159 396.679 359.465 396.286C359.771 395.894 359.983 395.437 360.085 394.95C360.188 394.463 360.178 393.959 360.056 393.476L359.868 392.727C360.458 393.425 361.071 394.128 361.705 394.835C371.607 405.854 381.502 411.818 391.128 412.552H391.375C391.965 412.552 392.544 412.393 393.05 412.091C393.557 411.789 393.973 411.355 394.253 410.836C394.534 410.316 394.668 409.731 394.643 409.141C394.618 408.551 394.434 407.979 394.11 407.486C394.037 407.377 391.149 402.958 387.379 396.849C387.655 397.103 387.931 397.361 388.211 397.612C403.016 411.087 420.088 418.661 438.893 420.089H439.144C439.769 420.089 440.381 419.91 440.908 419.572C441.434 419.234 441.853 418.753 442.114 418.184C442.375 417.616 442.468 416.984 442.381 416.365C442.294 415.745 442.032 415.164 441.624 414.689C439.082 411.734 434.124 405.716 429.696 399.818C438.737 404.393 448.221 406.933 457.171 407.188H457.262C457.931 407.188 458.583 406.983 459.132 406.6C459.681 406.218 460.099 405.676 460.33 405.048C460.561 404.42 460.595 403.736 460.425 403.089C460.256 402.441 459.892 401.862 459.383 401.428C459.252 401.315 446.031 389.867 434.803 369.047C424.632 350.185 414.073 319.553 421.047 280.209C425.878 278.061 442.522 271.447 464.134 271.45C468.163 271.45 472.188 271.68 476.19 272.141C476.311 272.155 476.432 272.162 476.553 272.163C477.19 272.162 477.813 271.975 478.346 271.625C478.878 271.276 479.297 270.778 479.55 270.193C482.817 262.329 485.424 254.206 487.345 245.909C488.337 253.541 488.533 261.315 486.687 266.239C486.502 266.734 486.439 267.266 486.504 267.791C486.57 268.315 486.761 268.816 487.062 269.251C487.363 269.685 487.765 270.04 488.233 270.285C488.701 270.53 489.221 270.658 489.75 270.658H489.898L553.101 267.751C553.752 267.721 554.379 267.498 554.902 267.109C555.425 266.721 555.82 266.185 556.036 265.57C556.164 265.298 558.445 258.756 560.297 250.761C560.929 248.038 561.434 245.494 561.812 243.129C563.199 248.217 564.3 255.362 562.422 262.209C562.212 262.968 562.158 263.762 562.264 264.543C562.371 265.324 562.634 266.075 563.04 266.751C563.462 267.463 564.025 268.081 564.694 268.569C565.362 269.056 566.123 269.402 566.93 269.586C572.542 270.916 586.908 274.339 598.927 277.378C608.342 279.758 614.67 280.983 618.277 281.125C618.422 281.125 618.564 281.125 618.709 281.125C622.014 281.125 625.022 279.671 627.648 276.803C634.597 269.208 637.31 252.796 636.755 246.491C636.086 238.881 632.301 223.959 623.834 206.94C617.129 193.464 605.255 174.403 586.784 160.146C585.455 159.121 584.111 158.114 582.789 157.151C570.37 148.142 557.344 141.331 544.075 136.912C532.267 132.927 519.894 130.874 507.432 130.832L507.417 130.854Z" fill="#17091D"/>
<path d="M580.845 159.811C564.136 154.49 502.001 136.759 473.186 157.154C472.721 157.478 472.271 157.816 471.827 158.161C471.827 158.161 461.599 140.789 421.036 150.071C402.359 154.341 379.991 174.747 369.046 179.508C369.537 178.861 376.278 168.74 376.762 168.104C407.037 128.324 456.365 143.028 456.365 143.028C456.365 143.028 456.848 142.825 457.937 142.461C461.486 141.273 471.479 138.376 492.081 135.251C517.955 131.326 549.4 136.984 580.845 159.811Z" fill="#D969BD"/>
<path d="M455.505 141.39C455.832 140.629 456.714 140.276 457.475 140.602C463.347 143.119 467.743 147.358 470.65 150.912C472.109 152.695 473.209 154.325 473.946 155.513C474.315 156.108 474.594 156.593 474.783 156.934C474.877 157.104 474.949 157.239 474.999 157.333C475.023 157.379 475.043 157.417 475.056 157.443C475.063 157.456 475.068 157.466 475.072 157.474C475.074 157.478 475.075 157.481 475.077 157.483C475.077 157.484 475.078 157.486 475.079 157.487V157.488C475.073 157.491 474.99 157.534 473.739 158.161L475.08 157.489C475.45 158.229 475.151 159.13 474.411 159.501C473.67 159.873 472.768 159.572 472.397 158.832L472.396 158.831C472.394 158.827 472.391 158.821 472.387 158.813C472.378 158.796 472.364 158.768 472.344 158.73C472.304 158.654 472.242 158.539 472.159 158.388C471.992 158.087 471.738 157.644 471.397 157.095C470.715 155.996 469.689 154.475 468.328 152.811C465.593 149.469 461.562 145.618 456.293 143.36C455.532 143.033 455.179 142.152 455.505 141.39Z" fill="#17091D"/>
<path d="M414.934 200.697C415.309 199.958 416.211 199.663 416.949 200.037C417.688 200.412 417.983 201.315 417.609 202.054L417.608 202.055C417.607 202.056 417.607 202.058 417.606 202.06C417.603 202.064 417.6 202.071 417.595 202.08C417.586 202.099 417.572 202.128 417.553 202.165C417.515 202.242 417.457 202.356 417.382 202.508C417.232 202.811 417.011 203.263 416.728 203.852C416.161 205.03 415.347 206.756 414.362 208.943C412.393 213.317 409.743 219.528 407.02 226.868C401.565 241.572 395.857 260.71 394.706 278.661C394.653 279.488 393.94 280.116 393.113 280.063C392.287 280.01 391.659 279.297 391.712 278.47C392.89 260.09 398.713 240.633 404.207 225.825C406.958 218.409 409.636 212.134 411.627 207.711C412.623 205.5 413.447 203.751 414.024 202.552C414.312 201.953 414.539 201.491 414.694 201.178C414.771 201.022 414.83 200.902 414.87 200.822C414.89 200.781 414.906 200.751 414.916 200.73C414.921 200.719 414.926 200.711 414.929 200.705L414.933 200.698C414.933 200.697 414.933 200.697 416.271 201.375L414.934 200.697Z" fill="#17091D"/>
<path d="M372.327 228.532C372.571 227.74 373.411 227.296 374.202 227.539C374.994 227.783 375.439 228.623 375.195 229.414H375.194V229.416C375.194 229.418 375.193 229.42 375.192 229.423C375.19 229.43 375.187 229.44 375.183 229.453C375.174 229.48 375.163 229.521 375.147 229.574C375.114 229.68 375.066 229.839 375.005 230.043C374.882 230.452 374.705 231.047 374.489 231.789C374.058 233.275 373.471 235.347 372.853 237.692C371.609 242.403 370.255 248.137 369.74 252.432C369.642 253.254 368.895 253.842 368.072 253.743C367.25 253.645 366.663 252.898 366.762 252.075C367.304 247.558 368.705 241.652 369.952 236.926C370.579 234.552 371.172 232.455 371.608 230.952C371.827 230.201 372.006 229.597 372.131 229.181C372.193 228.973 372.242 228.811 372.275 228.701C372.292 228.647 372.306 228.604 372.314 228.575C372.319 228.561 372.322 228.551 372.324 228.543C372.325 228.54 372.326 228.536 372.326 228.534L372.327 228.533V228.532Z" fill="#17091D"/>
<path d="M359.082 343.547C359.88 343.326 360.707 343.794 360.928 344.592L360.929 344.595C360.929 344.597 360.931 344.6 360.932 344.605C360.934 344.614 360.939 344.629 360.944 344.649C360.956 344.688 360.972 344.748 360.994 344.827C361.039 344.985 361.107 345.219 361.196 345.522C361.375 346.128 361.639 347.011 361.984 348.109C362.673 350.304 363.683 353.355 364.956 356.775C367.516 363.647 371.1 371.882 375.263 377.68C375.746 378.353 375.592 379.289 374.919 379.773C374.246 380.256 373.309 380.102 372.826 379.429C368.42 373.292 364.724 364.746 362.145 357.821C360.849 354.343 359.824 351.241 359.122 349.008C358.771 347.891 358.501 346.99 358.318 346.367C358.226 346.056 358.157 345.814 358.11 345.65C358.086 345.567 358.068 345.503 358.056 345.46C358.05 345.439 358.045 345.423 358.042 345.411C358.041 345.406 358.039 345.402 358.038 345.399C358.038 345.397 358.037 345.396 358.037 345.395V345.393C357.816 344.594 358.284 343.768 359.082 343.547Z" fill="#17091D"/>
<path d="M584.014 195.438C584.611 194.863 585.56 194.88 586.135 195.477L585.233 196.347C586.136 195.477 586.136 195.478 586.137 195.479L586.145 195.486C586.15 195.491 586.155 195.498 586.163 195.506C586.177 195.521 586.198 195.543 586.223 195.57C586.274 195.625 586.345 195.704 586.436 195.807C586.618 196.012 586.878 196.314 587.201 196.713C587.847 197.511 588.749 198.7 589.797 200.291C591.895 203.473 594.58 208.261 596.988 214.743C601.808 227.719 605.498 247.432 601.193 274.561C601.063 275.379 600.295 275.937 599.477 275.808C598.659 275.678 598.1 274.909 598.23 274.091C602.454 247.47 598.816 228.279 594.175 215.788C591.853 209.537 589.276 204.951 587.293 201.942C586.301 200.438 585.457 199.327 584.869 198.6C584.575 198.236 584.344 197.969 584.191 197.796C584.114 197.709 584.057 197.646 584.02 197.606C584.002 197.587 583.989 197.573 583.981 197.565L583.974 197.558C583.4 196.961 583.418 196.012 584.014 195.438Z" fill="#17091D"/>
<path d="M542.447 196.282C543.071 195.736 544.018 195.799 544.564 196.422L543.548 197.311C544.505 196.473 544.561 196.425 544.565 196.423L544.569 196.426C544.571 196.429 544.574 196.432 544.577 196.436C544.584 196.444 544.593 196.456 544.606 196.47C544.63 196.499 544.665 196.54 544.71 196.593C544.8 196.7 544.929 196.856 545.094 197.06C545.423 197.47 545.895 198.074 546.476 198.868C547.638 200.455 549.239 202.803 551.018 205.87C554.575 212.002 558.849 221.017 561.745 232.585C561.946 233.388 561.458 234.203 560.654 234.404C559.851 234.605 559.036 234.117 558.835 233.313C556.018 222.062 551.865 213.307 548.423 207.375C546.703 204.409 545.16 202.15 544.055 200.639C543.502 199.884 543.059 199.316 542.757 198.941C542.606 198.753 542.491 198.614 542.414 198.523C542.376 198.478 542.347 198.444 542.329 198.423C542.321 198.413 542.314 198.406 542.311 198.402C542.309 198.4 542.307 198.399 542.307 198.398C542.307 198.398 542.307 198.397 542.308 198.396C541.763 197.773 541.825 196.827 542.447 196.282Z" fill="#17091D"/>
<path d="M479.361 193.939C480.131 193.632 481.004 194.008 481.311 194.777V194.779C481.311 194.78 481.312 194.781 481.313 194.782C481.314 194.785 481.315 194.789 481.317 194.794C481.322 194.805 481.328 194.821 481.336 194.841C481.352 194.882 481.375 194.941 481.404 195.018C481.464 195.172 481.55 195.399 481.658 195.692C481.876 196.279 482.184 197.136 482.551 198.224C483.285 200.4 484.256 203.507 485.208 207.241C487.109 214.695 488.954 224.713 488.663 234.85C488.639 235.678 487.948 236.33 487.12 236.306C486.292 236.282 485.64 235.592 485.664 234.764C485.944 225.012 484.166 215.293 482.301 207.982C481.37 204.334 480.422 201.301 479.708 199.183C479.351 198.125 479.053 197.296 478.845 196.734C478.741 196.453 478.659 196.239 478.605 196.096C478.577 196.025 478.557 195.972 478.543 195.937C478.536 195.92 478.532 195.907 478.528 195.899C478.527 195.895 478.525 195.892 478.524 195.89L478.523 195.888C478.217 195.119 478.592 194.246 479.361 193.939Z" fill="#17091D"/>
<path d="M478.166 196.518C479.045 197.822 479.826 199.19 480.502 200.61C481.203 202.02 481.806 203.473 482.376 204.942C483.489 207.902 484.387 210.938 485.064 214.027C486.398 220.223 486.953 226.562 486.717 232.896C486.602 236.061 486.298 239.216 485.809 242.345L485.627 243.515L485.409 244.682C485.267 245.456 485.111 246.23 484.955 247.004C484.592 248.538 484.261 250.082 483.807 251.594C482.142 257.654 479.709 263.476 476.568 268.918C478.043 262.838 479.448 256.864 480.462 250.842L480.662 249.715L480.821 248.585L481.185 246.332L481.464 244.068L481.613 242.941L481.726 241.807L481.958 239.543L482.129 237.279C482.202 236.523 482.231 235.767 482.274 235.011C482.318 234.255 482.369 233.499 482.376 232.743C482.601 226.678 482.377 220.605 481.708 214.572C481.373 211.552 480.912 208.536 480.342 205.527C479.771 202.489 479.045 199.482 478.166 196.518Z" fill="#D969BD"/>
<path d="M542.335 198.064C543.448 199.056 544.495 200.119 545.47 201.248C546.454 202.367 547.384 203.538 548.274 204.74C551.834 209.602 554.661 214.96 556.665 220.644C557.188 222.065 557.605 223.522 558.023 224.979C558.441 226.437 558.75 227.923 559.033 229.417C559.175 230.162 559.305 230.91 559.396 231.663L559.556 232.793L559.683 233.927C559.727 234.29 559.763 234.679 559.796 235.061L559.865 236.224C559.894 236.609 559.905 236.994 559.905 237.383V238.542C559.843 241.598 559.485 244.641 558.833 247.628C558.191 250.549 557.365 253.427 556.359 256.244C555.389 259.041 554.278 261.787 553.032 264.472C553.759 258.567 554.881 252.788 555.462 247.075C555.762 244.259 555.871 241.425 555.789 238.593C555.738 237.899 555.735 237.198 555.655 236.507L555.557 235.471L555.426 234.417L555.295 233.363L555.135 232.31C555.037 231.608 554.892 230.914 554.772 230.213C554.258 227.412 553.593 224.641 552.782 221.912L552.476 220.887L552.15 219.866C551.939 219.183 551.703 218.507 551.478 217.827C550.994 216.479 550.519 215.123 549.977 213.79C548.931 211.108 547.751 208.466 546.479 205.845C545.208 203.225 543.835 200.637 542.335 198.064Z" fill="#D969BD"/>
<path d="M584.144 197.545C585.168 198.842 586.112 200.205 587.013 201.593C587.914 202.982 588.764 204.403 589.574 205.845C591.201 208.744 592.672 211.727 593.98 214.782C596.632 220.913 598.597 227.319 599.839 233.883C599.991 234.705 600.144 235.53 600.268 236.358L600.453 237.605L600.605 238.855C600.82 240.512 600.969 242.213 601.059 243.83C601.292 247.101 601.423 250.426 601.394 253.759C601.36 257.085 601.1 260.404 600.616 263.695C600.147 266.98 599.418 270.224 598.437 273.394C598.415 270.08 598.437 266.809 598.342 263.557C598.248 260.304 598.088 257.08 597.816 253.861C597.543 250.641 597.187 247.428 596.853 244.179L596.592 241.755C596.512 240.963 596.428 240.17 596.316 239.378L596.159 238.19L595.97 237.005C595.862 236.213 595.723 235.424 595.585 234.636C594.438 228.299 592.872 222.046 590.9 215.916C588.938 209.738 586.672 203.636 584.144 197.545Z" fill="#D969BD"/>
</svg>
