<svg width="1000" height="1000" viewBox="0 0 1000 1000" fill="none" xmlns="http://www.w3.org/2000/svg">
<path d="M620.093 295.28C619.885 295.28 619.679 295.241 619.486 295.163C619.163 295.033 618.89 294.804 618.706 294.509C618.522 294.214 618.437 293.868 618.462 293.521C622.228 243.819 608.16 224.594 594.666 210.512C591.201 207.394 587.154 206.969 583.653 206.969C582.614 206.969 581.579 207.009 580.58 207.049C579.581 207.088 578.68 207.121 577.776 207.121C576.24 207.173 574.706 206.984 573.228 206.562C567.583 205.591 559.963 203.207 551.151 200.445C534.344 195.179 513.439 188.616 495.448 188.616C484.649 188.616 476.313 190.927 469.993 195.673C465.532 213.481 453.317 233.498 435.547 252.065C418.493 269.873 399.009 283.476 382.097 289.363C381.925 289.424 381.743 289.455 381.56 289.454H381.4C372.922 288.611 370.365 269.441 368.865 248.845C368.865 248.678 368.839 248.508 368.828 248.34C358.167 264.156 355.323 267.238 353.572 267.602C353.46 267.626 353.346 267.638 353.231 267.638C352.928 267.635 352.631 267.548 352.375 267.386C352.118 267.225 351.911 266.995 351.778 266.722C341.03 244.739 344.379 224.773 348.08 216.367C348.919 213.732 351.832 209.429 354.913 204.879C356.907 201.939 358.966 198.897 360.434 196.342C362.018 193.591 362.359 192.345 362.421 191.836C361.4 191.861 358.603 192.581 351.16 196.924C350.899 197.075 350.6 197.152 350.298 197.144C349.995 197.136 349.701 197.044 349.447 196.879C349.194 196.713 348.991 196.481 348.862 196.207C348.733 195.933 348.682 195.629 348.716 195.328C350.993 174.864 381.313 155.755 395.886 146.575L397.03 145.849C394.356 146.783 391.265 147.92 388.349 148.996C378.316 152.724 367.902 156.562 363.638 156.562C363.16 156.571 362.685 156.511 362.225 156.384C361.9 156.286 361.613 156.089 361.405 155.821C361.197 155.552 361.077 155.226 361.062 154.887C361.022 153.895 363.267 150.104 363.968 148.963C366.735 144.459 369.905 140.215 373.438 136.283C381.625 127.1 396.441 113.958 420.528 103.521L420.647 103.474C444.813 95.155 463.041 89.9981 479.208 89.9981C483.643 89.9955 488.069 90.3785 492.437 91.1428C494.617 91.5063 496.796 91.9896 498.881 92.5384C502.848 93.5741 508.06 95.6965 513.578 97.9424C522.865 101.722 533.396 106.007 540.188 106.007C540.424 106.007 540.657 106.007 540.886 106.007C542.441 105.936 543.972 105.587 545.404 104.975C546.399 104.56 547.402 104.171 548.397 103.819C549.298 103.499 550.134 103.227 550.94 102.979C555.703 101.542 560.65 100.807 565.626 100.799C584.15 100.799 600.318 110.575 616.638 121.467C637.103 135.12 642.628 147.491 647.513 158.405L647.8 159.048C647.913 159.297 647.961 159.57 647.941 159.842C647.92 160.114 647.832 160.377 647.684 160.606C647.535 160.836 647.332 161.024 647.092 161.154C646.853 161.285 646.584 161.353 646.311 161.352H646.155C646.064 161.352 637.074 160.48 628.894 159.826C630.151 162.188 636.22 167.977 640.768 172.316C645.014 176.369 649.827 180.962 653.601 185.16C659.841 192.105 662.046 196.64 660.746 199.864C660.55 200.359 660.269 200.815 659.914 201.212C659.071 202.622 657.397 203.334 654.934 203.334C650.895 203.334 644.982 201.397 641.099 199.936C644.531 208.004 650.034 223.86 646.849 229.104C646.499 229.703 645.997 230.198 645.393 230.537C644.789 230.876 644.105 231.048 643.412 231.034C643.28 231.035 643.149 231.02 643.02 230.991C641.542 230.627 639.994 229.373 638.356 228.025C637.96 227.702 637.448 227.28 636.954 226.902C642.831 259.174 639.689 272.224 621.368 294.676C621.213 294.865 621.019 295.018 620.798 295.122C620.578 295.226 620.337 295.28 620.093 295.28Z" fill="#CE44A2"/>
<path d="M479.212 91.6408C483.552 91.6388 487.883 92.0133 492.158 92.7601C494.366 93.1417 496.469 93.6033 498.467 94.1266C509.001 96.8813 528.957 107.649 540.188 107.649C540.454 107.649 540.712 107.649 540.962 107.649C542.712 107.573 544.434 107.184 546.047 106.501C547.021 106.094 547.991 105.72 548.953 105.378C549.785 105.084 550.61 104.811 551.434 104.564C556.045 103.172 560.835 102.464 565.651 102.463C584.387 102.463 601.089 113.064 615.778 122.855C636.25 136.516 641.444 148.792 646.344 159.746C646.344 159.746 637.198 158.866 628.847 158.201H628.789C621.066 158.201 641.139 173.708 652.399 186.275C657.187 191.603 660.39 196.408 659.246 199.275C659.099 199.645 658.879 199.981 658.6 200.264C658.058 201.314 656.711 201.717 654.967 201.717C649.09 201.717 638.585 197.193 637.935 196.909C641.873 204.497 650.688 229.417 643.445 229.417H643.424C641.157 228.887 637.365 224.369 635.581 224.369C635.448 224.367 635.316 224.399 635.199 224.463C635.082 224.526 634.983 224.619 634.913 224.733C641.404 258.829 638.382 271.312 620.133 293.67C623.903 243.881 609.802 223.926 595.843 209.356C592.077 205.933 587.743 205.359 583.693 205.359C581.623 205.359 579.625 205.511 577.816 205.511C576.398 205.558 574.981 205.375 573.621 204.97C557.395 202.23 523.131 186.991 495.449 186.991C485.151 186.991 475.761 189.096 468.544 194.736C459.459 232.306 415.486 276.022 381.56 287.83C371.095 286.79 370.717 243.878 369.991 243.856C369.984 243.856 369.978 243.858 369.973 243.862C369.968 243.866 369.964 243.872 369.962 243.878C369.962 243.878 369.962 243.838 369.944 243.838C369.697 243.838 355.897 265.443 353.235 266.006C343.428 245.949 345.44 226.306 349.603 216.945C351.549 210.519 369.384 190.204 362.472 190.2C360.576 190.2 356.813 191.73 350.34 195.503C353.246 169.336 404.949 144.773 404.462 142.443C404.415 142.302 404.219 142.233 403.899 142.233C399.467 142.233 370.739 154.909 363.631 154.909C363.317 154.923 363.002 154.893 362.697 154.818C362.664 154.818 375.047 125.017 421.178 105.029C447.331 96.0309 464.145 91.6408 479.212 91.6408ZM479.212 88.37C462.812 88.37 444.44 93.5633 420.114 101.937L419.878 102.027C409.557 106.443 399.759 111.995 390.666 118.581C383.952 123.456 377.768 129.024 372.218 135.193C368.614 139.197 365.38 143.518 362.555 148.105C361.52 149.821 360.808 151.169 360.394 152.001C359.595 153.608 359.395 154.106 359.432 154.949C359.461 155.626 359.7 156.278 360.116 156.814C360.531 157.35 361.104 157.743 361.753 157.94C362.366 158.114 363.001 158.197 363.638 158.187C367.27 158.187 374.103 155.944 383.91 152.372C377.964 156.329 372.263 160.642 366.838 165.288C361.39 170.012 357.031 174.686 353.849 179.152C349.951 184.622 347.674 190.004 347.114 195.143C347.047 195.745 347.148 196.354 347.407 196.902C347.665 197.45 348.071 197.916 348.578 198.247C349.085 198.578 349.675 198.761 350.28 198.776C350.886 198.792 351.484 198.639 352.007 198.334C354.483 196.843 357.048 195.508 359.69 194.336C359.424 194.845 359.09 195.426 358.68 196.131C357.27 198.508 355.411 201.285 353.573 203.97C350.322 208.771 347.503 212.932 346.562 215.789C344.063 221.505 342.741 229.421 342.93 237.547C343.214 247.938 345.729 258.146 350.304 267.478C350.575 268.025 350.994 268.486 351.513 268.807C352.033 269.128 352.632 269.297 353.242 269.295C353.471 269.296 353.698 269.272 353.921 269.223C355.97 268.786 358.109 266.948 367.55 253.141C368 258.792 368.712 266.177 370.024 272.828C371.506 280.336 374.277 290.392 381.237 291.086C381.346 291.086 381.455 291.086 381.56 291.086C381.931 291.088 382.299 291.026 382.65 290.904C399.798 284.937 419.514 271.189 436.743 253.192C445.008 244.642 452.361 235.254 458.682 225.18C464.813 215.295 469.103 205.7 471.446 196.64C477.425 192.341 485.293 190.248 495.463 190.248C513.189 190.248 533.966 196.76 550.675 201.99C559.484 204.752 567.111 207.139 572.832 208.139C574.438 208.589 576.102 208.793 577.769 208.742C578.706 208.742 579.643 208.706 580.635 208.669C581.626 208.633 582.64 208.59 583.646 208.59C586.984 208.59 590.486 208.953 593.519 211.675C606.759 225.507 620.536 244.405 616.827 293.383C616.776 294.076 616.946 294.768 617.314 295.358C617.682 295.948 618.229 296.405 618.874 296.664C619.52 296.922 620.231 296.967 620.904 296.793C621.577 296.62 622.177 296.236 622.617 295.698C631.19 285.195 637.416 275.83 639.947 264.262C641.862 255.507 641.695 245.531 639.283 230.849C640.273 231.643 641.413 232.229 642.635 232.572C642.873 232.63 643.117 232.66 643.362 232.659H643.405C644.379 232.671 645.338 232.426 646.187 231.949C647.036 231.471 647.744 230.779 648.24 229.94C649.424 227.989 650.608 224.035 647.23 212.275C646.264 208.906 645.116 205.591 644.001 202.698C647.579 203.876 651.734 204.959 654.927 204.959C658.56 204.959 660.354 203.534 661.229 202.175C661.664 201.662 662.012 201.081 662.261 200.456C663.837 196.528 661.607 191.621 654.807 184.055C650.993 179.81 646.159 175.195 641.891 171.124C638.923 168.293 634.935 164.485 632.447 161.752C639.41 162.337 645.886 162.962 645.977 162.969C646.081 162.975 646.185 162.975 646.289 162.969C646.835 162.969 647.372 162.832 647.851 162.572C648.33 162.311 648.736 161.934 649.032 161.476C649.329 161.018 649.506 160.493 649.548 159.949C649.59 159.405 649.495 158.859 649.272 158.361L648.985 157.718C644.019 146.605 638.393 134.005 617.536 120.086C600.998 109.052 584.583 99.1454 565.615 99.1454C560.49 99.1621 555.395 99.926 550.49 101.413C549.643 101.668 548.783 101.947 547.856 102.278C546.832 102.642 545.8 103.041 544.783 103.467C543.528 103.999 542.187 104.303 540.824 104.364C540.621 104.364 540.417 104.364 540.203 104.364C533.73 104.364 523.36 100.145 514.206 96.4198C508.638 94.152 503.378 92.0115 499.314 90.9467C497.174 90.387 494.955 89.9073 492.732 89.5221C488.274 88.7429 483.756 88.3526 479.23 88.3555L479.212 88.37Z" fill="#17091D"/>
<path d="M659.224 199.257C658.975 199.563 658.758 199.894 658.578 200.246C656.235 204.803 638.741 197.262 637.895 196.895C638.044 197.011 588.815 192.625 575.055 202.063C574.768 202.256 570.697 193.777 570.439 193.988C570.388 193.792 578.728 196.808 578.688 196.612C575.055 179.404 620.979 176.395 652.359 186.258C657.165 191.586 660.379 196.39 659.224 199.257Z" fill="#D969BD"/>
<path d="M643.383 229.403C640.768 228.792 636.119 222.861 634.873 224.707C632.61 223.195 629.787 221.505 626.7 219.754C611.535 211.159 594.532 206.467 577.129 205.522C575.941 205.49 574.761 205.305 573.62 204.97C573.33 205.311 571.332 204.832 568.056 203.84C568.012 203.44 567.427 202.985 565.996 202.426C565.996 202.36 575.905 195.673 575.905 195.633C575.274 195.39 574.608 195.246 573.933 195.208H573.878C573.487 195.176 573.1 195.103 572.723 194.99H572.687C572.448 194.936 572.205 194.898 571.96 194.878H571.902C571.365 194.794 570.813 194.721 570.279 194.663C569.806 194.612 569.334 194.572 568.858 194.55C568.619 194.154 568.404 193.824 568.183 193.46C568.786 193.46 569.407 193.431 570.043 193.417H570.329H571.303L572.476 193.398C573.886 193.398 575.556 203.411 576.9 203.189C609.955 197.738 631.854 199.587 640.804 203.552C644.422 213.114 649.388 229.701 643.383 229.403Z" fill="#D969BD"/>
<path d="M646.304 159.727C646.304 159.727 637.158 158.848 628.807 158.183C626.195 157.928 577.064 163.95 567.722 191.487C565.942 196.724 571.114 173.039 571.928 169.18C579.589 132.947 625.302 140.183 642.704 153.309C646.384 157.947 646.304 159.727 646.304 159.727Z" fill="#D969BD"/>
<path d="M420.637 263.594C408.356 270.099 383.587 279.101 383.587 279.101C383.587 279.101 379.526 279.021 375.018 278.974C371.357 266.425 370.22 244.947 369.962 243.896C370.369 244.838 378.211 261.566 415.835 257.496C422.613 256.769 426.027 256.947 427.048 257.754C428.414 258.833 425.508 261.017 420.637 263.594Z" fill="#9C398C"/>
<path d="M548.932 105.36V132.835L501.649 157.289C501.649 157.289 431.076 217.871 401.487 215.731C385.603 214.583 379.653 208.535 377.55 203.178C377.181 202.228 377.049 201.202 377.167 200.189C377.284 199.176 377.647 198.208 378.224 197.367C378.8 196.526 379.573 195.839 380.476 195.366C381.378 194.892 382.383 194.646 383.402 194.649C443.898 194.649 469.935 144.86 428.951 155.872C419.896 158.307 412.933 158.688 407.804 158.241C403.808 157.896 403.056 152.347 406.841 150.973C415.417 147.884 426.456 143.821 429.14 142.451C439.202 137.312 466.266 120.024 487.955 108.289C514.835 93.7525 529.916 108.148 540.988 107.621C542.738 107.544 544.46 107.155 546.073 106.472C547.003 106.076 547.973 105.702 548.932 105.36Z" fill="#D969BD"/>
<path d="M561.928 147.662C559.97 145.481 559.421 144.867 557.06 142.239L556.868 142.025C554.416 139.281 547.929 131.991 545.869 129.669L545.687 129.469C545.495 129.258 545.353 129.105 545.233 128.964L545.052 128.767C545.019 128.738 544.979 128.695 544.932 128.644V128.651C544.932 128.509 544.932 128.379 544.954 128.251C545.021 126.888 544.973 125.522 544.812 124.167C544.815 124.122 544.815 124.077 544.812 124.032C544.814 123.996 544.814 123.959 544.812 123.923C544.787 123.687 544.758 123.403 544.725 123.069C544.543 121.321 542.963 115.019 540.973 107.638C542.723 107.561 544.445 107.172 546.058 106.49C547.817 105.75 549.614 105.103 551.441 104.553C556.41 116.222 560.13 128.767 561.492 141.578C561.686 143.599 561.831 145.627 561.928 147.662Z" fill="#9C398C"/>
<path d="M601.43 162.598C602.209 162.316 603.069 162.718 603.352 163.497C603.634 164.275 603.232 165.136 602.453 165.418C584.399 171.97 577.831 181.486 575.623 189.118C574.507 192.978 574.479 196.445 574.73 198.945C574.855 200.193 575.05 201.195 575.21 201.876C575.29 202.217 575.362 202.477 575.411 202.646C575.436 202.731 575.456 202.793 575.468 202.832C575.474 202.85 575.478 202.864 575.481 202.871L575.482 202.874L575.525 203.021C575.699 203.761 575.288 204.527 574.554 204.781C573.771 205.051 572.916 204.636 572.646 203.853L574.064 203.363C572.671 203.844 572.646 203.852 572.645 203.851C572.645 203.851 572.644 203.849 572.644 203.848C572.643 203.846 572.643 203.843 572.642 203.84C572.64 203.835 572.637 203.827 572.634 203.818C572.628 203.8 572.62 203.776 572.611 203.746C572.591 203.685 572.564 203.599 572.533 203.49C572.469 203.272 572.384 202.96 572.29 202.564C572.104 201.772 571.885 200.64 571.744 199.245C571.464 196.455 571.495 192.591 572.742 188.284C575.259 179.581 582.632 169.42 601.43 162.598Z" fill="#17091D"/>
<path d="M580.267 190.307C585.898 183.254 596.74 176.929 617.339 178.467C618.164 178.529 618.784 179.249 618.722 180.075C618.661 180.901 617.941 181.52 617.115 181.458C597.275 179.977 587.493 186.065 582.611 192.179C580.138 195.276 578.852 198.466 578.185 200.883C577.852 202.09 577.675 203.099 577.582 203.796C577.535 204.145 577.51 204.415 577.496 204.592C577.489 204.681 577.485 204.746 577.483 204.787C577.482 204.807 577.48 204.821 577.48 204.829V204.833L577.479 204.832C577.455 205.66 576.766 206.311 575.938 206.288C575.11 206.264 574.458 205.573 574.482 204.745L575.981 204.789C574.572 204.748 574.487 204.744 574.482 204.743V204.731C574.482 204.725 574.483 204.717 574.483 204.707C574.484 204.688 574.485 204.662 574.487 204.629C574.49 204.565 574.496 204.474 574.505 204.36C574.522 204.131 574.554 203.806 574.608 203.399C574.717 202.585 574.918 201.441 575.293 200.085C576.04 197.376 577.484 193.793 580.267 190.307Z" fill="#17091D"/>
<path d="M569.665 206.787C565.978 207.535 559.836 205.5 556.225 204.286C546.872 201.132 533.886 200.801 521.86 201.808C508.652 202.916 496.611 205.631 491.831 207.986C493.357 203.596 495.485 198.007 498.184 192.177C500.981 186.119 504.395 179.796 508.384 174.272C513.073 167.766 518.554 162.366 524.806 159.782C527.768 158.521 530.988 157.982 534.2 158.209C537.411 158.436 540.523 159.422 543.28 161.087C557.239 169.133 565.84 191.821 569.182 204.893C569.378 205.562 569.523 206.191 569.665 206.787Z" fill="#9C398C"/>
<path d="M524.218 158.401C527.399 157.047 530.857 156.469 534.306 156.712C537.754 156.956 541.096 158.015 544.056 159.802H544.055C551.394 164.044 557.191 172.024 561.544 180.414C565.922 188.851 568.944 197.904 570.636 204.521C570.838 205.216 570.989 205.87 571.124 206.439L571.483 207.948L569.964 208.256C567.783 208.699 565.055 208.307 562.578 207.733C560.051 207.148 557.548 206.313 555.747 205.708H555.746C546.689 202.653 533.951 202.3 521.984 203.301L521.985 203.302C515.442 203.852 509.191 204.799 503.995 205.897C498.764 207.003 494.71 208.24 492.494 209.332L489.214 210.947L490.414 207.494C491.951 203.07 494.098 197.432 496.823 191.546C499.645 185.435 503.105 179.02 507.168 173.393C511.924 166.796 517.6 161.141 524.218 158.401ZM534.094 159.705C531.119 159.495 528.137 159.994 525.393 161.162L525.379 161.168C519.501 163.597 514.22 168.74 509.601 175.148L509.6 175.149C505.686 180.569 502.318 186.801 499.546 192.805L499.545 192.807C497.477 197.274 495.747 201.602 494.368 205.35C496.8 204.517 499.884 203.699 503.375 202.962C508.697 201.837 515.071 200.872 521.734 200.313L522.871 200.222C534.644 199.324 547.355 199.712 556.702 202.864H556.703C558.512 203.472 560.887 204.263 563.255 204.811C564.922 205.197 566.479 205.436 567.779 205.447C567.767 205.403 567.755 205.359 567.742 205.315L567.729 205.264C566.078 198.809 563.129 189.982 558.881 181.796C554.613 173.571 549.138 166.194 542.53 162.385L542.518 162.379L542.504 162.371C539.951 160.829 537.068 159.915 534.094 159.705Z" fill="#17091D"/>
<path d="M380.961 302.627C362.697 302.65 344.862 297.087 329.846 286.684C329.443 286.411 329.04 286.128 328.64 285.841L324.558 282.908L329.592 282.875C387.107 282.512 408.018 243.531 419.249 222.591C420.964 219.397 422.442 216.642 423.786 214.538C425.355 212.081 427.175 208.163 429.478 203.206C435.21 190.85 443.877 172.203 458.344 156.525C475.678 137.747 497.363 127.724 522.793 126.724C524.188 126.674 525.579 126.645 526.923 126.645C546.44 126.645 560.813 132.336 569.643 143.558C575.916 151.546 579.305 162.449 579.494 175.139C579.6 180.807 579.061 186.467 577.889 192.013L575.669 203.668C575.488 204.624 574.979 205.488 574.23 206.109C573.48 206.731 572.538 207.072 571.565 207.073C571.401 207.072 571.237 207.063 571.075 207.044L566.196 206.47L565.888 205.445C565.793 205.14 556.491 175.016 542.513 162.587L542.223 162.336C538.449 159.065 534.667 157.397 530.984 157.397C527.301 157.397 523.651 159.018 519.982 162.209C516.582 165.163 513.157 169.51 509.811 175.125L509.779 175.176C506.76 180.205 503.633 185.708 499.637 192.976C497.843 196.247 496.005 199.598 494.254 202.847C479.321 230.314 463.884 258.715 440.604 279.746C424.248 294.511 402.99 302.666 380.961 302.627Z" fill="#CE44A2"/>
<path d="M526.912 128.289C591.59 128.289 576.279 191.669 576.279 191.669L574.053 203.364C573.943 203.947 573.634 204.474 573.177 204.853C572.721 205.232 572.147 205.439 571.554 205.439C571.454 205.445 571.355 205.445 571.256 205.439L567.449 204.97C567.449 204.97 557.965 173.832 543.301 161.105C539.523 157.835 535.397 155.767 530.991 155.767C527.163 155.767 523.123 157.322 518.914 160.982C515.51 163.94 512.012 168.279 508.405 174.29C508.397 174.3 508.389 174.311 508.383 174.323C504.918 180.12 501.555 186.105 498.213 192.196C481.562 222.476 465.38 255.177 439.518 278.541C423.462 293.031 402.597 301.035 380.975 300.997C363.044 301 345.538 295.539 330.787 285.341C330.391 285.072 329.995 284.796 329.606 284.516C397.07 284.087 415.33 230.82 425.166 215.426C435.003 200.031 453.498 131.072 522.876 128.372C524.264 128.316 525.619 128.29 526.941 128.292M526.941 125.021C525.575 125.021 524.166 125.051 522.749 125.105C508.794 125.647 495.844 128.877 484.246 134.699C474.377 139.66 465.26 146.634 457.145 155.414C442.489 171.281 433.76 190.07 427.985 202.521C425.805 207.245 423.909 211.294 422.398 213.66C421.018 215.815 419.529 218.595 417.8 221.819C406.725 242.461 386.115 280.882 329.57 281.241L319.501 281.307L327.688 287.172C328.091 287.46 328.506 287.75 328.923 288.034C345.777 299.713 366.073 305.367 386.535 304.085C406.996 302.802 426.428 294.657 441.693 280.965C465.18 259.749 480.687 231.22 495.681 203.633C497.443 200.388 499.27 197.03 501.061 193.77C505.056 186.527 508.154 181.05 511.148 176.057L511.195 175.98C514.464 170.529 517.777 166.302 521.046 163.46C524.409 160.531 527.751 159.049 530.977 159.049C534.246 159.049 537.675 160.575 541.147 163.588L541.438 163.838C555.059 175.958 564.227 205.632 564.322 205.941L564.946 207.983L567.068 208.234L570.885 208.684C571.111 208.71 571.337 208.724 571.564 208.724C572.917 208.725 574.227 208.253 575.27 207.391C576.312 206.528 577.021 205.329 577.275 204L579.487 192.371C580.683 186.705 581.232 180.923 581.125 175.134C581.082 169.692 580.358 164.277 578.971 159.016C577.264 152.732 574.55 147.201 570.907 142.571C561.75 130.942 546.934 125.036 526.912 125.036L526.941 125.021Z" fill="#17091D"/>
<path d="M470.593 182.638C470.83 181.844 471.665 181.393 472.459 181.629C473.253 181.866 473.705 182.702 473.468 183.496L472.03 183.067C473.468 183.496 473.467 183.497 473.467 183.498C473.467 183.498 473.466 183.499 473.466 183.5C473.465 183.503 473.465 183.508 473.463 183.513C473.46 183.523 473.455 183.538 473.449 183.557C473.438 183.596 473.42 183.652 473.398 183.726C473.352 183.874 473.284 184.092 473.193 184.375C473.012 184.942 472.741 185.772 472.376 186.832C471.647 188.955 470.545 192.003 469.052 195.723C466.066 203.16 461.51 213.295 455.224 224.084C442.678 245.618 423.113 269.984 395.191 280.504C394.415 280.796 393.55 280.405 393.258 279.629C392.966 278.854 393.357 277.989 394.132 277.697C421.094 267.538 440.214 243.888 452.632 222.575C458.827 211.941 463.322 201.944 466.268 194.606C467.74 190.938 468.823 187.937 469.538 185.858C469.896 184.818 470.161 184.009 470.336 183.461C470.424 183.188 470.489 182.98 470.531 182.841C470.553 182.772 470.568 182.72 470.578 182.686C470.583 182.669 470.588 182.656 470.59 182.648C470.591 182.644 470.592 182.642 470.593 182.64V182.638Z" fill="#17091D"/>
<path d="M518.906 160.996C515.503 163.954 512.005 168.294 508.398 174.305C508.389 174.315 508.382 174.326 508.376 174.337C504.911 180.134 501.547 186.119 498.205 192.21C481.555 222.49 465.372 255.191 439.51 278.555C409.278 305.855 364.193 308.436 330.779 285.355C345.647 289.574 390.462 300.593 409.601 286.231C432.692 268.885 468.445 226.95 488.554 194.467C501.227 173.952 512.397 164.877 518.906 160.996Z" fill="#9C398C"/>
<path d="M424.626 194.253C425.284 193.751 426.226 193.876 426.728 194.535C427.231 195.193 427.106 196.134 426.447 196.637L425.537 195.445C426.438 196.624 426.447 196.638 426.446 196.638L426.444 196.639C426.443 196.64 426.441 196.642 426.438 196.644C426.433 196.648 426.426 196.653 426.417 196.66C426.399 196.673 426.374 196.692 426.342 196.716C426.276 196.765 426.179 196.836 426.055 196.927C425.805 197.109 425.441 197.369 424.972 197.693C424.033 198.34 422.673 199.24 420.975 200.259C417.585 202.294 412.823 204.82 407.362 206.762C396.498 210.626 382.453 212.304 371.104 202.542C370.476 202.002 370.406 201.055 370.946 200.427C371.486 199.799 372.433 199.728 373.061 200.268C383.18 208.972 395.862 207.669 406.357 203.936C411.576 202.08 416.154 199.655 419.432 197.687C421.068 196.705 422.374 195.84 423.268 195.223C423.715 194.915 424.059 194.67 424.289 194.502C424.404 194.419 424.49 194.354 424.547 194.312C424.575 194.291 424.596 194.275 424.609 194.265C424.616 194.26 424.621 194.257 424.624 194.254L424.626 194.253Z" fill="#17091D"/>
<path d="M446.861 153.875C447.361 153.215 448.302 153.086 448.962 153.586C449.623 154.086 449.753 155.027 449.253 155.688C443.148 163.743 432.658 166.946 424.011 168.197C419.647 168.829 415.656 168.976 412.757 168.967C411.307 168.962 410.125 168.918 409.303 168.875C408.892 168.853 408.571 168.832 408.35 168.815C408.24 168.807 408.154 168.801 408.095 168.796C408.066 168.793 408.043 168.791 408.027 168.79C408.019 168.789 408.013 168.789 408.008 168.788H408.001C408 168.788 408.002 168.767 408.137 167.294L408 168.787C407.175 168.711 406.567 167.981 406.643 167.156C406.719 166.332 407.449 165.724 408.274 165.8C408.274 165.8 408.276 165.801 408.277 165.801C408.279 165.801 408.283 165.801 408.289 165.802C408.3 165.803 408.319 165.804 408.343 165.806C408.393 165.81 408.468 165.816 408.569 165.823C408.77 165.838 409.071 165.858 409.461 165.879C410.239 165.92 411.371 165.962 412.767 165.967C415.562 165.976 419.4 165.833 423.582 165.228C432.028 164.006 441.498 160.953 446.861 153.875Z" fill="#17091D"/>
<path d="M604.737 198.335C609.406 198.3 613.593 198.471 616.611 198.651C618.121 198.741 619.34 198.833 620.184 198.903C620.606 198.938 620.934 198.967 621.158 198.988C621.27 198.998 621.355 199.007 621.414 199.012C621.443 199.015 621.465 199.018 621.48 199.019C621.488 199.02 621.494 199.021 621.498 199.021H621.505L621.657 199.045C622.401 199.198 622.924 199.893 622.845 200.666C622.767 201.438 622.114 202.015 621.354 202.014L621.201 202.006C621.2 202.006 621.198 202.006 621.197 202.006C621.194 202.005 621.189 202.005 621.183 202.005L620.881 201.975C620.666 201.955 620.348 201.927 619.936 201.893C619.113 201.825 617.917 201.734 616.432 201.645C613.462 201.468 609.345 201.3 604.759 201.335C595.518 201.404 584.624 202.297 577.299 205.439C576.538 205.766 575.655 205.413 575.329 204.652C575.002 203.891 575.355 203.009 576.116 202.682C584.04 199.283 595.468 198.404 604.737 198.335Z" fill="#17091D"/>
</svg>
