<svg width="1000" height="1000" viewBox="0 0 1000 1000" fill="none" xmlns="http://www.w3.org/2000/svg">
<path d="M409.871 295.047C409.48 295.047 409.096 294.952 408.75 294.771C408.404 294.59 408.106 294.328 407.884 294.007C401.97 285.438 395.41 283.639 390.95 283.639C389.711 283.632 388.476 283.778 387.274 284.075C387.079 284.124 386.879 284.148 386.678 284.148C386.094 284.146 385.53 283.933 385.09 283.549C384.65 283.164 384.364 282.633 384.284 282.054C384.139 280.997 383.841 278.74 383.482 275.582C383.445 275.251 383.409 274.92 383.373 274.579C382.708 268.582 381.829 259.315 381.433 249.317C380.739 231.63 381.756 217.972 384.459 208.727C384.735 207.786 385.011 206.641 385.33 205.314C387.622 195.818 391.778 178.581 412.297 163.394L408.171 162.983C407.912 162.957 407.662 162.87 407.444 162.728C407.225 162.587 407.044 162.395 406.914 162.169C406.783 161.944 406.709 161.691 406.697 161.431C406.685 161.171 406.736 160.912 406.845 160.675C409.22 155.457 417.825 153.287 423.517 151.852L424.556 151.586C422.74 150.859 419.925 149.896 416.129 148.77L416.071 148.752L415.177 148.49C414.879 148.404 414.611 148.234 414.405 148.001C414.199 147.768 414.063 147.481 414.014 147.174C413.965 146.867 414.004 146.552 414.127 146.266C414.25 145.981 414.452 145.736 414.709 145.561C418.272 143.148 422.827 141.927 428.239 141.927C432.095 141.965 435.93 142.501 439.649 143.522C442.039 127.895 457.029 122.807 457.694 122.6C458.014 122.494 458.358 122.49 458.68 122.587C459.002 122.685 459.287 122.88 459.494 123.145C459.702 123.41 459.822 123.733 459.839 124.069C459.857 124.405 459.77 124.739 459.59 125.024C457.509 128.331 457.262 131.228 457.516 133.27C459.536 130.413 462.177 128.051 465.241 126.363C468.305 124.675 471.712 123.706 475.206 123.527C475.528 123.527 475.843 123.622 476.111 123.801C476.379 123.98 476.588 124.234 476.713 124.532C476.837 124.829 476.87 125.157 476.809 125.473C476.748 125.79 476.594 126.081 476.368 126.31C475.506 127.165 474.73 128.104 474.054 129.112C487.494 119.467 499.844 118.693 500.414 118.664H500.501C500.797 118.665 501.086 118.747 501.339 118.9C501.592 119.053 501.798 119.271 501.937 119.532C502.076 119.793 502.141 120.087 502.126 120.382C502.111 120.677 502.017 120.962 501.853 121.208C501.068 122.48 495.939 130.857 492.772 137.126C497.141 136.667 501.531 136.434 505.925 136.428C531.758 136.428 555.023 144.787 575.077 161.261C589.334 172.988 601.706 188.528 611.877 207.466C616.272 215.668 619.643 224.776 621.121 232.462C623.046 242.347 623.115 252.505 621.324 262.415C620.939 264.743 620.799 267.105 620.907 269.462C620.961 272.369 621.027 275.694 617.481 276.003C617.18 276.032 616.882 276.043 616.602 276.043C610.972 276.043 610.594 271.017 610.159 265.192C609.795 260.104 609.261 253.18 605.687 245.64C605.378 244.985 605.037 244.335 604.71 243.703C604.383 243.07 603.984 242.351 603.678 241.656C596.446 226.247 584.925 207.422 571.082 205.256C570.97 205.238 570.857 205.229 570.744 205.231C568.495 205.231 564.206 207.775 559.262 210.744C549.949 216.308 537.192 223.925 521.275 225.848C520.069 225.991 518.856 226.063 517.643 226.062C505.536 226.062 494.247 219.19 484.283 213.128C477.676 209.105 471.969 205.634 467.69 205.267C467.058 205.216 466.423 205.187 465.802 205.187C454.647 205.187 445.239 213.742 437.832 230.627C432.206 243.47 429.896 256.618 429.718 257.665C429.623 259.021 429.474 260.402 429.271 261.772C428.014 270.306 424.714 278.411 419.653 285.394C418.694 286.739 417.669 288.043 416.609 289.268C415.021 291.137 413.289 292.879 411.429 294.476C410.994 294.845 410.441 295.048 409.871 295.047Z" fill="#CE44A2"/>
<path d="M500.509 120.292C500.229 120.747 493.011 132.452 490.015 139.085L490.741 138.994C495.779 138.376 500.849 138.063 505.924 138.056C563.414 138.067 595.237 179.915 610.424 208.24C614.419 215.657 617.935 224.616 619.505 232.771C621.385 242.459 621.453 252.412 619.704 262.124C618.371 269.462 620.692 274.081 617.325 274.383C617.067 274.404 616.824 274.415 616.599 274.415C608.735 274.415 614.924 261.332 607.155 244.945C606.504 243.572 605.763 242.285 605.146 240.97C596.937 223.471 585.23 205.823 571.325 203.646C571.129 203.617 570.931 203.602 570.733 203.603C563.544 203.603 546 221.221 521.068 224.231C519.931 224.367 518.787 224.435 517.642 224.434C497.828 224.434 479.14 204.609 467.828 203.646C467.143 203.588 466.467 203.559 465.802 203.559C437.273 203.559 428.337 256.015 428.098 257.462C428.098 257.483 428.098 257.505 428.098 257.527C428.003 258.904 427.854 260.245 427.662 261.547C426.426 269.815 423.226 277.667 418.33 284.442C417.324 285.852 416.325 287.106 415.381 288.2C413.846 290.003 412.174 291.685 410.379 293.23C410.296 293.299 410.199 293.35 410.095 293.38C409.99 293.41 409.881 293.419 409.774 293.404C409.666 293.39 409.563 293.353 409.47 293.297C409.377 293.241 409.297 293.166 409.235 293.077C402.835 283.81 395.614 282.014 390.95 282.014C389.575 282.008 388.205 282.172 386.87 282.501C386.807 282.516 386.743 282.523 386.678 282.523C386.489 282.523 386.307 282.455 386.164 282.33C386.022 282.206 385.93 282.034 385.904 281.847C385.744 280.681 385.45 278.438 385.105 275.407C385.069 275.083 385.033 274.752 384.996 274.415C384.306 268.186 383.456 259.083 383.067 249.263C382.519 235.297 382.908 219.873 386.028 209.196C388.4 201.092 390.514 179.759 416.837 162.213L416.343 162.162L408.33 161.359C411.407 154.61 428.548 153.262 428.25 151.852C428.007 150.678 419.409 148.039 416.543 147.189L415.628 146.92C419.413 144.354 424.008 143.562 428.243 143.562C432.592 143.608 436.909 144.313 441.047 145.652C442.333 129.298 457.963 124.232 458.206 124.152C453.593 131.478 457.051 137.213 457.051 137.213C458.747 133.78 461.32 130.857 464.51 128.74C467.699 126.624 471.392 125.389 475.213 125.162C470.026 130.417 471.428 133.219 471.428 133.219C485.957 121.077 500.509 120.296 500.509 120.296M500.509 117.021H500.476H500.287C499.404 117.076 489.8 117.803 478.391 124.373C478.217 123.662 477.809 123.029 477.233 122.577C476.657 122.125 475.945 121.88 475.213 121.88H475.173C469.47 122.172 464.04 124.413 459.79 128.229C460.096 127.432 460.479 126.666 460.934 125.943C461.252 125.462 461.437 124.905 461.47 124.329C461.504 123.753 461.384 123.178 461.123 122.664C460.863 122.149 460.471 121.712 459.987 121.398C459.504 121.083 458.946 120.903 458.37 120.874H458.206C458.108 120.874 458.014 120.874 457.916 120.874C457.635 120.899 457.359 120.96 457.095 121.055C453.764 122.272 450.661 124.037 447.912 126.278C442.939 130.341 439.703 135.556 438.363 141.512C435.045 140.725 431.649 140.311 428.239 140.28C422.493 140.28 417.633 141.6 413.79 144.202C413.274 144.551 412.869 145.04 412.622 145.612C412.375 146.184 412.297 146.814 412.395 147.429C412.494 148.044 412.766 148.618 413.18 149.083C413.594 149.549 414.132 149.886 414.731 150.056C414.731 150.056 415.068 150.151 415.602 150.311L415.69 150.336C416.914 150.7 418.007 151.038 418.98 151.35C413.568 152.902 407.488 155.315 405.356 159.992C405.14 160.466 405.04 160.984 405.065 161.503C405.089 162.023 405.237 162.529 405.496 162.98C405.756 163.431 406.119 163.814 406.555 164.096C406.992 164.379 407.49 164.553 408.007 164.604H408.076C400.971 170.441 395.319 177.102 391.222 184.487C386.711 192.609 384.924 200.016 383.739 204.922C383.427 206.227 383.155 207.35 382.889 208.255C380.14 217.671 379.101 231.513 379.802 249.368C380.198 259.421 381.077 268.72 381.745 274.753C381.782 275.088 381.818 275.422 381.858 275.749C382.221 278.911 382.519 281.2 382.664 282.269C382.799 283.236 383.276 284.122 384.01 284.765C384.744 285.408 385.684 285.766 386.66 285.772C386.989 285.772 387.317 285.733 387.637 285.656H387.662C388.732 285.394 389.83 285.265 390.931 285.271C395.003 285.271 401.011 286.946 406.518 294.93C406.839 295.395 407.254 295.787 407.735 296.082C408.216 296.376 408.754 296.567 409.313 296.642C409.873 296.717 410.442 296.674 410.984 296.517C411.525 296.359 412.028 296.09 412.46 295.726C414.389 294.069 416.187 292.265 417.836 290.329C418.926 289.072 419.976 287.727 420.964 286.332C426.181 279.148 429.585 270.81 430.887 262.026C431.094 260.645 431.251 259.25 431.345 257.88C431.588 256.466 433.888 243.735 439.336 231.284C446.452 215.058 455.355 206.834 465.802 206.834C466.375 206.834 466.968 206.859 467.552 206.91C471.45 207.241 477.273 210.784 483.437 214.542C493.077 220.411 505.078 227.716 517.642 227.716C518.918 227.716 520.193 227.641 521.46 227.49C537.718 225.524 550.65 217.805 560.087 212.169C564.445 209.57 568.935 206.884 570.733 206.884H570.831C576.385 207.753 582.117 211.714 587.867 218.656C592.778 224.587 597.598 232.564 602.196 242.365C602.538 243.092 602.905 243.797 603.261 244.473C603.617 245.149 603.914 245.73 604.212 246.352C607.652 253.62 608.139 260.111 608.528 265.33C608.767 268.517 608.956 271.039 609.773 273.114C610.95 276.109 613.315 277.693 616.602 277.693C616.929 277.693 617.274 277.693 617.627 277.646C618.693 277.591 619.715 277.196 620.542 276.521C621.37 275.845 621.961 274.923 622.229 273.888C622.592 272.587 622.574 271.126 622.541 269.436C622.437 267.189 622.567 264.937 622.93 262.717C624.76 252.607 624.691 242.245 622.726 232.16C621.219 224.321 617.786 215.04 613.315 206.721C603.061 187.59 590.547 171.883 576.127 160.032C555.786 143.315 532.176 134.829 505.939 134.825C502.557 134.825 499.103 134.971 495.623 135.254C498.663 129.607 502.525 123.309 503.251 122.138C503.578 121.649 503.767 121.08 503.798 120.492C503.828 119.904 503.7 119.319 503.426 118.797C503.152 118.276 502.742 117.839 502.24 117.532C501.738 117.224 501.163 117.058 500.574 117.051H500.534L500.509 117.021Z" fill="#17091D"/>
<path d="M415.367 289.835C415.149 289.834 414.933 289.791 414.731 289.708L384.463 276.904C384.195 276.791 383.963 276.608 383.789 276.375C383.615 276.142 383.507 275.867 383.475 275.578C383.438 275.251 383.402 274.92 383.366 274.578C382.701 268.582 381.822 259.315 381.426 249.317C381.416 249.059 381.468 248.803 381.576 248.569C381.683 248.334 381.845 248.129 382.047 247.969C385.48 245.254 391.037 242.02 398.029 242.02C402.352 242.02 406.642 243.284 410.783 245.774C417.414 249.84 423.481 254.762 428.828 260.412C429.002 260.592 429.132 260.81 429.208 261.048C429.284 261.286 429.305 261.539 429.268 261.786C428.011 270.321 424.711 278.425 419.649 285.408C418.69 286.753 417.666 288.058 416.605 289.282C416.45 289.458 416.26 289.598 416.046 289.693C415.832 289.789 415.601 289.837 415.367 289.835Z" fill="#9C398C"/>
<path d="M398.033 243.656C401.665 243.656 405.661 244.608 409.943 247.177C417.15 251.513 423.162 256.87 427.655 261.547C426.419 269.815 423.219 277.667 418.323 284.442C417.317 285.852 416.318 287.106 415.374 288.2L385.105 275.397C385.069 275.072 385.033 274.741 384.996 274.405C384.306 268.176 383.456 259.072 383.068 249.252C386.035 246.908 391.349 243.656 398.033 243.656ZM398.033 240.385C390.572 240.385 384.673 243.812 381.037 246.686C380.633 247.006 380.31 247.417 380.095 247.886C379.879 248.355 379.778 248.868 379.799 249.383C380.194 259.432 381.073 268.732 381.742 274.764C381.778 275.099 381.814 275.433 381.854 275.764C381.92 276.34 382.137 276.89 382.484 277.354C382.831 277.819 383.296 278.184 383.83 278.409L414.099 291.213C414.735 291.481 415.441 291.541 416.114 291.384C416.786 291.227 417.392 290.86 417.844 290.337C418.934 289.076 419.991 287.731 420.979 286.339C426.192 279.152 429.591 270.811 430.888 262.026C430.961 261.533 430.92 261.029 430.768 260.553C430.616 260.077 430.358 259.643 430.012 259.283C424.566 253.529 418.385 248.519 411.629 244.382C407.23 241.733 402.657 240.385 398.037 240.385H398.033Z" fill="#17091D"/>
<path d="M409.87 295.047C409.48 295.047 409.095 294.953 408.749 294.772C408.403 294.591 408.106 294.328 407.883 294.008C401.97 285.438 395.41 283.639 390.949 283.639C389.711 283.632 388.476 283.779 387.273 284.075C387.078 284.125 386.878 284.149 386.677 284.148C386.093 284.147 385.529 283.934 385.089 283.549C384.65 283.165 384.363 282.634 384.284 282.055C384.138 280.997 383.841 278.74 383.481 275.582C383.445 275.252 383.408 274.921 383.372 274.579C383.335 274.237 383.406 273.892 383.576 273.593C383.747 273.294 384.007 273.057 384.32 272.915C387.576 271.388 391.144 270.644 394.739 270.741C398.333 270.838 401.855 271.774 405.025 273.474C410.172 276.146 414.989 279.41 419.38 283.2C419.686 283.465 419.884 283.836 419.933 284.239C419.982 284.642 419.879 285.049 419.645 285.38C418.686 286.725 417.661 288.029 416.601 289.254C415.013 291.123 413.281 292.865 411.421 294.462C410.99 294.835 410.44 295.042 409.87 295.047Z" fill="#9C398C"/>
<path d="M394.128 272.365C397.673 272.383 401.162 273.256 404.299 274.909C409.33 277.526 414.04 280.719 418.334 284.424C417.328 285.834 416.329 287.088 415.385 288.181C413.85 289.985 412.178 291.667 410.383 293.211C410.299 293.281 410.203 293.332 410.098 293.362C409.994 293.392 409.885 293.4 409.777 293.386C409.67 293.372 409.566 293.335 409.474 293.279C409.381 293.222 409.301 293.147 409.239 293.059C402.835 283.809 395.614 282.014 390.95 282.014C389.575 282.008 388.205 282.172 386.871 282.501C386.807 282.516 386.743 282.523 386.678 282.523C386.489 282.523 386.307 282.454 386.165 282.33C386.022 282.206 385.93 282.034 385.904 281.847C385.745 280.68 385.45 278.438 385.105 275.407C385.069 275.083 385.033 274.752 384.996 274.415C387.86 273.091 390.974 272.396 394.128 272.376M394.128 269.105C390.507 269.122 386.932 269.916 383.645 271.435C383.019 271.719 382.498 272.194 382.157 272.792C381.816 273.39 381.672 274.08 381.745 274.764C381.782 275.127 381.818 275.444 381.858 275.774C382.221 278.932 382.519 281.226 382.664 282.29C382.799 283.257 383.276 284.143 384.01 284.786C384.744 285.43 385.684 285.787 386.66 285.794C386.99 285.793 387.319 285.754 387.641 285.677H387.662C388.732 285.416 389.83 285.286 390.932 285.292C395.003 285.292 401.011 286.968 406.518 294.952C406.839 295.416 407.254 295.808 407.735 296.103C408.216 296.398 408.754 296.589 409.313 296.664C409.873 296.739 410.442 296.696 410.984 296.538C411.526 296.38 412.029 296.111 412.461 295.748C414.389 294.091 416.187 292.286 417.836 290.351C418.926 289.094 419.976 287.749 420.964 286.353C421.445 285.69 421.659 284.869 421.564 284.055C421.47 283.24 421.072 282.491 420.452 281.956C415.965 278.084 411.043 274.748 405.784 272.016C402.188 270.13 398.192 269.133 394.132 269.109L394.128 269.105Z" fill="#17091D"/>
<path d="M619.704 262.125C618.371 269.462 620.692 274.081 617.325 274.383C608.349 275.186 615.145 261.823 607.154 244.946C606.505 243.572 605.836 242.247 605.146 240.97C608.415 238.317 613.91 234.429 619.504 232.771C621.385 242.459 621.453 252.412 619.704 262.125Z" fill="#9C398C"/>
<path d="M619.231 231.297C619.592 231.23 619.966 231.297 620.282 231.489C620.644 231.708 620.896 232.07 620.976 232.485C622.893 242.355 622.962 252.495 621.181 262.39L621.18 262.393C620.544 265.889 620.785 268.657 620.777 270.897C620.774 271.93 620.723 273.081 620.288 274.008C620.048 274.519 619.685 274.985 619.155 275.329C618.638 275.664 618.054 275.823 617.459 275.877H617.458C616.172 275.992 615.009 275.869 614.004 275.4C612.972 274.918 612.25 274.138 611.75 273.203C611.266 272.298 610.984 271.237 610.792 270.129C610.598 269.013 610.481 267.753 610.375 266.413C609.95 261.022 609.658 253.738 605.799 245.588L605.798 245.587C605.16 244.236 604.503 242.935 603.826 241.683C603.483 241.049 603.64 240.26 604.2 239.805C607.509 237.12 613.193 233.076 619.078 231.333L619.231 231.297ZM618.339 234.744C614.082 236.333 609.957 239.114 607.055 241.371C607.551 242.324 608.036 243.301 608.51 244.303C612.642 253.03 612.948 260.868 613.366 266.176C613.471 267.511 613.58 268.65 613.747 269.615C613.916 270.587 614.129 271.29 614.395 271.789C614.645 272.256 614.928 272.52 615.273 272.681C615.646 272.855 616.234 272.974 617.191 272.888C617.438 272.866 617.518 272.816 617.523 272.812C617.527 272.81 617.528 272.808 617.531 272.804C617.536 272.798 617.551 272.779 617.571 272.735C617.69 272.482 617.774 271.964 617.777 270.887C617.784 268.909 617.531 265.697 618.228 261.856C619.843 252.89 619.877 243.715 618.339 234.744Z" fill="#17091D"/>
<path d="M500.508 120.293C500 120.864 483.654 138.689 472.576 141.553C461.315 144.46 456.593 139.009 450.055 145.551C443.517 152.092 433.346 152.819 427.534 157.18C424.846 159.197 420.375 160.902 416.343 162.152L408.33 161.359C411.407 154.611 428.548 153.262 428.25 151.852C428.007 150.679 419.409 148.04 416.543 147.19L415.627 146.921C425.46 140.259 440.752 145.547 441.054 145.652C442.34 129.299 457.97 124.232 458.213 124.152C453.6 131.479 457.058 137.214 457.058 137.214C458.754 133.781 461.327 130.857 464.517 128.741C467.706 126.624 471.399 125.39 475.22 125.163C470.033 130.418 471.435 133.22 471.435 133.22C485.972 121.074 500.508 120.293 500.508 120.293Z" fill="#D969BD"/>
<path d="M563.327 173.625C563.327 173.625 555.306 156.616 536.157 153.484C517.007 150.351 512.862 146.51 512.862 146.51C512.862 146.51 523.324 161.93 535.336 162.064C547.348 162.199 563.327 173.625 563.327 173.625Z" fill="#D969BD"/>
<path d="M390.666 225.008C390.666 225.008 386.725 205.747 397.299 192.544C407.873 179.341 408.465 173.715 408.465 173.715C408.465 173.715 409.997 192.925 402.388 199.605C394.778 206.285 390.666 225.008 390.666 225.008Z" fill="#D969BD"/>
</svg>
