<svg width="1000" height="1000" viewBox="0 0 1000 1000" fill="none" xmlns="http://www.w3.org/2000/svg">
<path d="M608.607 310.48C608.345 310.481 608.086 310.419 607.853 310.299C607.62 310.179 607.419 310.005 607.268 309.792C607.116 309.578 607.018 309.331 606.982 309.071C606.945 308.811 606.972 308.547 607.059 308.3C615.228 284.39 606.028 244.846 601.749 233.148C601.614 232.784 601.462 232.403 601.284 232.003C601.284 231.974 601.258 231.941 601.244 231.912C598.142 225.047 589.468 217.739 574.364 217.739C569.402 217.789 564.467 218.474 559.679 219.778C552.414 221.689 545.487 222.66 539.091 222.66C533.607 222.685 528.148 221.919 522.883 220.385C522.239 220.188 521.584 220.026 520.922 219.901C520.635 219.956 519.832 220.039 516.338 220.039C505.949 220.039 482.411 219.312 472.484 217.841C470.414 217.535 468.402 217.168 466.455 216.812C461.754 215.954 457.316 215.144 452.11 215.144C449.689 215.146 447.271 215.322 444.875 215.671C440.049 216.41 435.313 217.647 430.741 219.36C411.788 226.236 417.923 271.972 417.988 272.419C417.988 272.47 417.988 272.521 417.988 272.575C418.017 273.262 418.638 289.511 413.019 295.38C412.376 296.09 411.591 296.658 410.715 297.047C409.839 297.436 408.892 297.637 407.934 297.637C405.885 297.637 403.608 296.761 401.156 295.035C396.971 292.087 392.612 290.594 388.199 290.594C380.255 290.594 374.672 295.482 374.618 295.529C374.318 295.797 373.93 295.946 373.528 295.947C373.443 295.947 373.358 295.94 373.274 295.925C373.035 295.888 372.807 295.798 372.607 295.661C372.407 295.525 372.241 295.346 372.119 295.137C371.919 294.799 367.226 286.709 362.453 272.485C356.076 253.29 352.778 233.205 352.682 212.978C352.569 187.259 359.616 173.06 365.544 165.675C370.324 159.722 375.144 157.084 377.531 156.059L377.487 155.874C377.418 155.616 377.36 155.358 377.298 155.092C377.251 154.896 377.208 154.689 377.16 154.478C371.748 129.886 383.935 111.98 387.8 107.077C388.373 106.351 388.726 105.962 388.74 105.947C388.893 105.777 389.079 105.642 389.288 105.549C389.496 105.456 389.722 105.409 389.95 105.409C390.189 105.409 390.426 105.461 390.643 105.562C390.86 105.663 391.053 105.811 391.206 105.995C391.36 106.178 391.471 106.394 391.532 106.626C391.593 106.857 391.602 107.1 391.559 107.335C391.407 108.175 391.268 109.022 391.149 109.847C390.095 117.242 390.662 122.203 391.49 125.31C395.079 113.921 403.437 103.28 415.907 94.2995C422.345 89.6424 429.315 85.7689 436.669 82.7609C436.854 82.6916 437.05 82.656 437.247 82.6555C437.521 82.6554 437.791 82.7243 438.031 82.8559C438.272 82.9874 438.475 83.1774 438.623 83.4083C438.771 83.6392 438.859 83.9037 438.878 84.1773C438.897 84.4509 438.847 84.7249 438.732 84.9741L432.194 99.2202C439.201 94.5684 451.257 89.655 468.234 84.5453C486.483 79.0468 504.031 75.2853 504.195 75.249C504.307 75.2243 504.421 75.2122 504.536 75.2127C504.832 75.2121 505.123 75.2921 505.378 75.4442C505.632 75.5962 505.84 75.8145 505.98 76.0758C506.12 76.3371 506.186 76.6315 506.172 76.9275C506.157 77.2236 506.063 77.5102 505.898 77.7566L495.248 93.798C515.081 92.039 528.786 85.919 536.828 81.0565C545.68 75.7069 549.723 70.7644 549.904 70.5572C550.159 70.2477 550.519 70.0426 550.915 69.981C551.311 69.9194 551.716 70.0056 552.053 70.2232C552.389 70.4408 552.635 70.7746 552.741 71.1611C552.848 71.5477 552.809 71.9601 552.632 72.3198L552.48 72.6287C552.48 72.6506 552.461 72.6724 552.454 72.6905L543.446 91.1995L544.572 90.9887C571.451 85.7773 583.511 68.235 583.627 68.0569C583.777 67.8338 583.979 67.6509 584.216 67.5242C584.453 67.3975 584.717 67.3308 584.985 67.3301H585.015C585.287 67.3359 585.554 67.4093 585.791 67.5438C586.028 67.6783 586.228 67.8696 586.373 68.1005C586.424 68.1805 586.467 68.2604 586.515 68.3404C593.852 80.8202 587.83 100.118 584.626 108.422C600.067 99.9761 599.213 84.5744 599.203 84.4145C599.177 84.0249 599.291 83.6389 599.525 83.3263C599.759 83.0137 600.097 82.7951 600.477 82.71C600.597 82.6839 600.719 82.6705 600.841 82.6701C601.169 82.6701 601.491 82.7693 601.762 82.9547C602.034 83.1401 602.243 83.4032 602.363 83.7094C603.013 85.3775 603.678 87.1183 604.339 88.8882C612.809 111.624 615.781 126.757 616.623 136.235L622.188 117.021C622.276 116.714 622.452 116.44 622.695 116.233C622.937 116.026 623.234 115.894 623.55 115.854C623.619 115.849 623.688 115.849 623.757 115.854C624.04 115.854 624.317 115.927 624.563 116.067C624.809 116.206 625.014 116.407 625.159 116.65C625.548 117.3 625.937 117.984 626.314 118.692C633.06 131.263 634.375 146.083 634.306 156.303C634.264 161.87 633.819 167.426 632.976 172.929L638.788 171.09C639.036 171.012 639.299 170.993 639.556 171.037C639.812 171.081 640.055 171.185 640.263 171.341C640.47 171.496 640.638 171.699 640.752 171.932C640.865 172.166 640.922 172.423 640.916 172.682C640.513 192.089 634.814 206.088 630.107 214.417C626.035 221.617 622.039 225.901 620.448 227.46C624.905 249.32 622.025 270.09 618.792 283.743C615.159 299.109 610.31 309.15 610.107 309.568C609.969 309.846 609.754 310.08 609.489 310.242C609.223 310.403 608.917 310.486 608.607 310.48Z" fill="#CE44A2"/>
<path d="M584.996 68.9661C585.033 69.0242 585.066 69.0824 585.098 69.1405C594.15 84.5314 581.491 111.723 581.491 111.723C582.562 111.286 583.576 110.821 584.535 110.327C601.989 101.394 600.834 84.3133 600.834 84.3133C601.519 86.0723 602.174 87.7901 602.799 89.4666C618.269 130.98 615.149 146.865 614.669 148.817L623.75 117.49C624.138 118.142 624.509 118.8 624.865 119.463C637.611 143.217 630.873 175.303 630.873 175.303L631.494 175.107L632.221 174.878L639.249 172.65C638.483 209.555 618.628 226.898 618.628 226.898C627.633 269.174 609.075 307.882 608.603 308.853C617.125 283.911 607.328 243.677 603.282 232.607C603.129 232.185 602.958 231.771 602.77 231.353C599.137 223.249 589.49 216.14 574.372 216.14C569.27 216.186 564.195 216.89 559.272 218.234C551.208 220.356 544.521 221.061 539.098 221.061C528.335 221.061 522.556 218.281 520.878 218.281C520.809 218.275 520.74 218.275 520.671 218.281C519.232 218.402 517.788 218.447 516.345 218.415C506.461 218.415 482.717 217.689 472.728 216.235C465.804 215.214 459.709 213.52 452.114 213.52C449.615 213.523 447.119 213.705 444.646 214.065C439.71 214.82 434.866 216.083 430.189 217.834C409.772 225.241 416.386 272.671 416.386 272.671C416.386 272.671 417.378 296.028 407.952 296.028C406.332 296.028 404.407 295.337 402.115 293.723C397.091 290.184 392.344 288.999 388.217 288.999C379.5 288.999 373.546 294.352 373.546 294.352C373.546 294.352 354.524 261.844 354.313 212.986C354.102 164.128 379.474 157.088 379.474 157.088C379.368 156.703 379.266 156.314 379.169 155.922C379.129 155.78 379.097 155.642 379.064 155.5C378.998 155.249 378.94 154.999 378.882 154.744C378.824 154.49 378.791 154.344 378.748 154.145C373.437 130.024 385.649 112.46 389.071 108.106C389.616 107.416 389.939 107.06 389.939 107.06C389.779 107.947 389.641 108.801 389.521 109.629C387.978 120.463 389.841 126.397 391.032 128.89C391.212 129.273 391.414 129.645 391.639 130.003C391.712 130.122 391.792 130.238 391.879 130.348C397.999 99.1809 437.236 84.3133 437.236 84.3133L436.306 86.3412L427.763 104.956L427.149 106.293C434.755 91.7562 504.54 76.856 504.54 76.856L492.553 94.9434L492.063 95.6702C492.869 95.6194 493.667 95.5624 494.456 95.4994C534.383 92.265 550.918 71.8989 551.179 71.5755L550.998 71.9389L540.62 93.268C542.073 93.0645 543.499 92.8222 544.899 92.5412C572.835 87.1226 585 68.9189 585 68.9189M584.996 65.6953C584.46 65.6961 583.931 65.8291 583.458 66.0827C582.985 66.3362 582.581 66.7024 582.283 67.149C582.21 67.258 579.261 71.5391 573.162 76.3762C567.808 80.6174 558.909 86.1304 546.374 88.9506L553.922 73.4107C553.937 73.3836 553.95 73.3557 553.962 73.3271L554.06 73.1273C554.311 72.6496 554.44 72.1172 554.436 71.5774C554.432 71.0376 554.294 70.5073 554.035 70.0337C553.776 69.5602 553.404 69.1581 552.952 68.8634C552.5 68.5687 551.982 68.3905 551.444 68.3446C551.354 68.3446 551.259 68.3446 551.168 68.3446H550.998C550.486 68.3729 549.988 68.5211 549.545 68.7771C549.238 68.9513 548.962 69.1748 548.727 69.4385C548.691 69.4822 548.655 69.5221 548.622 69.5657C548.408 69.8238 544.401 74.5991 535.996 79.6834C528.568 84.1716 516.218 89.7537 498.539 91.8434L507.231 78.7603C507.614 78.2129 507.819 77.5604 507.816 76.8923C507.817 76.0542 507.497 75.2477 506.921 74.6391C506.345 74.0304 505.558 73.6662 504.721 73.6215H504.547H504.322C504.143 73.6334 503.966 73.6601 503.792 73.7015C502.542 73.9704 485.477 77.6809 467.762 83.0159C456.942 86.2867 447.977 89.4994 441.112 92.603C439.208 93.4606 437.461 94.3086 435.87 95.1469L439.285 87.7041L440.175 85.7634C440.399 85.3118 440.514 84.814 440.512 84.3097C440.513 83.4602 440.183 82.6438 439.592 82.0334C439.002 81.4229 438.197 81.0663 437.349 81.0389H437.243H436.993C436.654 81.0629 436.322 81.1414 436.008 81.2715C428.55 84.3302 421.478 88.2593 414.941 92.9773C408.551 97.5782 403.179 102.626 398.958 107.983C396.302 111.336 394.04 114.983 392.217 118.853C392.129 115.92 392.304 112.985 392.74 110.083C392.852 109.313 392.979 108.517 393.121 107.729C393.168 107.506 393.191 107.28 393.19 107.053C393.191 106.217 392.873 105.412 392.3 104.804C391.728 104.196 390.944 103.83 390.11 103.782H389.747C389.126 103.813 388.527 104.022 388.021 104.385C387.86 104.499 387.709 104.628 387.571 104.77C387.537 104.804 387.506 104.839 387.476 104.876C387.378 104.981 387.022 105.388 386.485 106.068C382.507 111.116 369.965 129.537 375.533 154.839C375.555 154.944 375.58 155.049 375.602 155.155C372.867 156.565 368.508 159.378 364.266 164.666C360.343 169.554 357.237 175.608 355.036 182.662C352.337 191.312 350.993 201.52 351.04 213.001C351.137 233.402 354.464 253.659 360.895 273.019C365.722 287.404 370.499 295.635 370.702 295.98C370.947 296.399 371.283 296.757 371.683 297.03C372.084 297.303 372.541 297.483 373.02 297.558C373.187 297.583 373.355 297.597 373.525 297.598C374.33 297.596 375.106 297.297 375.704 296.758C375.744 296.725 380.909 292.244 388.188 292.244C392.257 292.244 396.299 293.636 400.204 296.387C402.972 298.339 405.497 299.295 407.923 299.295C409.104 299.293 410.271 299.046 411.352 298.571C412.433 298.096 413.403 297.402 414.203 296.533C416.877 293.742 418.591 288.774 419.289 281.763C419.595 278.695 419.702 275.611 419.608 272.529C419.604 272.424 419.594 272.32 419.579 272.216C419.579 272.1 417.981 260.463 418.853 248.161C419.615 237.506 422.387 224.125 431.264 220.905C435.729 219.231 440.355 218.023 445.067 217.3C447.388 216.96 449.729 216.789 452.074 216.787C457.13 216.787 461.518 217.587 466.124 218.43C468.086 218.793 470.12 219.157 472.212 219.466C482.248 220.938 505.906 221.686 516.345 221.686C519.251 221.686 520.384 221.624 520.915 221.566C521.252 221.635 521.906 221.817 522.451 221.97C527.863 223.553 533.474 224.346 539.113 224.325C545.651 224.325 552.716 223.34 560.119 221.388C564.77 220.121 569.565 219.454 574.386 219.404C588.672 219.404 596.842 226.185 599.751 232.571C599.751 232.614 599.787 232.658 599.806 232.702C599.969 233.065 600.103 233.392 600.223 233.719C604.451 245.283 613.55 284.3 605.523 307.795C605.253 308.583 605.293 309.445 605.636 310.204C605.979 310.963 606.599 311.563 607.369 311.881C608.138 312.198 609.001 312.21 609.779 311.913C610.557 311.617 611.193 311.034 611.556 310.285C611.763 309.859 616.685 299.662 620.365 284.118C622.45 275.403 623.736 266.516 624.208 257.567C624.741 247.663 624.068 237.732 622.203 227.992C624.146 225.982 627.818 221.759 631.512 215.225C636.314 206.732 642.122 192.464 642.533 172.704C642.544 172.184 642.431 171.669 642.203 171.202C641.975 170.734 641.639 170.328 641.223 170.016C640.807 169.704 640.322 169.497 639.81 169.41C639.297 169.323 638.771 169.36 638.276 169.517L634.952 170.571C635.566 165.839 635.893 161.075 635.933 156.303C636.02 145.895 634.673 130.78 627.76 117.901C627.371 117.174 626.972 116.465 626.569 115.796C626.242 115.251 625.763 114.812 625.191 114.535C624.618 114.257 623.977 114.153 623.347 114.234C622.716 114.316 622.123 114.579 621.639 114.993C621.156 115.407 620.804 115.952 620.626 116.563L617.223 128.298C615.65 118.791 612.363 105.737 605.868 88.3219C605.196 86.5048 604.546 84.8112 603.885 83.1213C603.645 82.5076 603.225 81.9808 602.68 81.6098C602.136 81.2389 601.492 81.0412 600.834 81.0426C600.589 81.0411 600.345 81.0679 600.107 81.1225C599.346 81.2942 598.671 81.7325 598.205 82.3584C597.739 82.9842 597.512 83.7562 597.564 84.535C597.588 87.4735 597.074 90.3915 596.046 93.1445C594.433 97.6306 591.557 101.554 587.764 104.44C590.964 94.6272 594.426 78.6367 587.913 67.516C587.862 67.4252 587.812 67.3343 587.753 67.2435C587.464 66.7792 587.064 66.3949 586.588 66.1257C586.112 65.8565 585.576 65.711 585.029 65.7026L584.996 65.6953Z" fill="#17091D"/>
<path d="M444.639 214.055C439.703 214.81 434.858 216.073 430.182 217.824C409.764 225.23 416.379 272.66 416.379 272.66C416.379 272.66 417.741 304.729 402.107 293.713C386.474 282.698 373.539 294.327 373.539 294.327C373.539 294.327 354.524 261.845 354.313 212.987C354.102 164.128 379.474 157.089 379.474 157.089C379.368 156.704 379.266 156.315 379.169 155.922C379.129 155.781 379.096 155.643 379.064 155.501C378.998 155.25 378.94 154.999 378.882 154.745C378.824 154.491 378.791 154.345 378.748 154.145C373.437 130.025 385.649 112.461 389.071 108.107C389.616 107.417 389.939 107.061 389.939 107.061C389.779 107.947 389.641 108.801 389.521 109.63C387.977 120.463 389.841 126.398 391.032 128.891C388.591 150.42 388.239 202.731 440.203 212.936C441.701 213.229 443.181 213.603 444.639 214.055Z" fill="#9C398C"/>
<path d="M618.636 226.891C627.64 269.168 609.083 307.876 608.61 308.846C617.132 283.905 607.336 243.671 603.289 232.601C603.137 232.179 602.966 231.765 602.777 231.347C599.163 223.141 588.629 218.78 588.629 218.78C607.154 220.96 606.366 214.055 607.804 212.86C617.154 205.104 624.909 190.993 629.94 180.028C630.775 178.211 631.534 176.485 632.214 174.886L639.242 172.658C638.49 209.549 618.636 226.891 618.636 226.891Z" fill="#9C398C"/>
<path d="M504.54 76.8633L492.553 94.9507C491.685 95.067 490.78 95.1579 489.847 95.216C463.552 96.8805 427.781 104.956 427.781 104.956L427.167 106.293C434.755 91.7526 504.54 76.8633 504.54 76.8633Z" fill="#D969BD"/>
<path d="M551.164 71.5938L550.983 71.9572C546.202 79.3643 540.446 86.0935 533.871 91.9635C522.156 102.437 496.621 96.0883 494.441 95.5213C534.368 92.2869 550.903 71.9208 551.164 71.5938Z" fill="#D969BD"/>
<path d="M585.087 69.1396C584.634 70.4479 584.12 71.8713 583.543 73.4097C569.377 111.205 540.682 93.3979 540.682 93.3979C540.682 93.3979 541.045 93.0345 544.884 92.5911C572.821 87.1725 584.985 68.9688 584.985 68.9688C585.022 69.0233 585.054 69.0814 585.087 69.1396Z" fill="#D969BD"/>
<path d="M602.316 99.2147C600.746 113.388 581.364 111.934 581.364 111.934L584.524 110.328C601.989 101.395 600.834 84.3145 600.834 84.3145C601.519 86.0734 602.174 87.7912 602.799 89.4678C602.839 92.7236 602.678 95.9788 602.316 99.2147Z" fill="#D969BD"/>
<path d="M630.88 175.296L631.501 175.099C631.007 176.808 630.488 178.447 629.954 180.017C623.136 200.085 611.614 213.23 606.064 216.962C603.452 218.717 602.795 218.052 602.795 218.052C602.795 218.052 616.235 201.335 623.136 168.264C627.531 147.185 626.329 129.519 624.872 119.471C637.618 143.209 630.88 175.296 630.88 175.296Z" fill="#D969BD"/>
<path d="M437.236 84.3145V85.5355C437.236 85.5355 436.906 85.8154 436.306 86.3423C430.818 91.1649 402.714 116.583 399.583 134.372C396.114 154.091 396.114 178.804 396.114 178.804L388.85 161.723L389.939 135.557L391.029 129.015L391.879 130.36C398 99.182 437.236 84.3145 437.236 84.3145Z" fill="#9C398C"/>
<path d="M408.876 168.673C409.704 168.642 410.4 169.287 410.432 170.114V170.125C410.432 170.133 410.433 170.147 410.434 170.165C410.435 170.202 410.439 170.259 410.442 170.334C410.45 170.484 410.463 170.71 410.484 171.003C410.524 171.59 410.593 172.448 410.708 173.519C410.938 175.662 411.35 178.654 412.072 182.033C413.526 188.831 416.208 197.034 421.077 203.124C421.595 203.771 421.49 204.715 420.843 205.233C420.196 205.75 419.252 205.645 418.734 204.998C413.434 198.369 410.629 189.627 409.139 182.66C408.39 179.158 407.964 176.061 407.726 173.838C407.606 172.726 407.533 171.831 407.49 171.21C407.469 170.9 407.455 170.658 407.446 170.492C407.442 170.409 407.439 170.345 407.437 170.301C407.436 170.279 407.435 170.262 407.435 170.25C407.434 170.244 407.434 170.239 407.434 170.235V170.23C407.434 170.229 407.459 170.228 408.933 170.172L407.434 170.229C407.402 169.401 408.048 168.704 408.876 168.673Z" fill="#17091D"/>
<path d="M423.273 152.295C423.863 151.713 424.814 151.72 425.395 152.31C425.976 152.9 425.968 153.848 425.38 154.43L425.381 154.431L425.38 154.432C425.376 154.435 425.369 154.443 425.358 154.454C425.336 154.477 425.3 154.514 425.251 154.567C425.153 154.673 425.002 154.84 424.811 155.069C424.429 155.528 423.883 156.234 423.256 157.19C422.001 159.103 420.422 162.021 419.189 165.983C416.73 173.888 415.611 186.055 421.326 202.851C421.593 203.635 421.173 204.487 420.389 204.754C419.605 205.021 418.753 204.601 418.486 203.816C412.577 186.45 413.668 173.632 416.325 165.092C417.65 160.832 419.357 157.663 420.747 155.544C421.442 154.485 422.058 153.688 422.508 153.148C422.732 152.879 422.916 152.673 423.048 152.531C423.113 152.46 423.166 152.404 423.204 152.365C423.223 152.346 423.238 152.33 423.25 152.318C423.256 152.312 423.26 152.308 423.264 152.304C423.266 152.302 423.269 152.3 423.27 152.299C423.271 152.298 423.272 152.297 423.272 152.297C423.277 152.3 423.336 152.359 424.114 153.148L423.273 152.295Z" fill="#17091D"/>
<path d="M473.452 118.276C473.863 117.556 474.779 117.306 475.499 117.717C476.218 118.128 476.468 119.045 476.057 119.764C474.83 121.913 472.936 123.778 470.641 125.653C468.353 127.522 465.515 129.516 462.365 131.837C456.025 136.51 448.069 142.759 439.31 152.928C430.775 162.838 429.024 174.111 429.431 182.985C429.635 187.421 430.377 191.236 431.069 193.939C431.414 195.289 431.746 196.358 431.989 197.083C432.11 197.446 432.21 197.723 432.278 197.906C432.312 197.997 432.337 198.065 432.354 198.109C432.362 198.13 432.369 198.146 432.373 198.156L432.376 198.165L432.426 198.311C432.637 199.041 432.265 199.827 431.544 200.117C430.776 200.426 429.902 200.053 429.593 199.285L430.985 198.725C429.616 199.276 429.593 199.284 429.592 199.284L429.591 199.282C429.591 199.28 429.59 199.278 429.589 199.276C429.587 199.271 429.585 199.264 429.582 199.256C429.575 199.24 429.567 199.218 429.556 199.19C429.534 199.133 429.503 199.052 429.464 198.947C429.386 198.736 429.276 198.429 429.144 198.036C428.88 197.248 428.528 196.11 428.163 194.682C427.433 191.829 426.65 187.808 426.435 183.123C426.006 173.753 427.85 161.637 437.037 150.97C446 140.563 454.155 134.163 460.585 129.423C463.821 127.039 466.532 125.135 468.743 123.33C470.946 121.53 472.499 119.943 473.452 118.276Z" fill="#17091D"/>
<path d="M527.428 112.577C528.243 112.429 529.024 112.97 529.172 113.785C529.32 114.6 528.779 115.38 527.964 115.528C497.845 120.995 479.074 132.092 467.859 141.747C462.246 146.578 458.512 151.06 456.191 154.313C455.03 155.94 454.222 157.261 453.708 158.165C453.451 158.617 453.268 158.965 453.152 159.195C453.093 159.31 453.052 159.396 453.026 159.45C453.013 159.477 453.004 159.496 452.998 159.508C452.996 159.513 452.994 159.517 452.993 159.519H452.992C452.65 160.272 451.762 160.607 451.008 160.266C450.253 159.924 449.919 159.035 450.261 158.28L451.543 158.86C450.261 158.28 450.261 158.278 450.262 158.277C450.262 158.277 450.262 158.275 450.263 158.274C450.264 158.272 450.265 158.27 450.267 158.267C450.27 158.26 450.274 158.252 450.279 158.241C450.288 158.22 450.303 158.19 450.321 158.153C450.356 158.079 450.408 157.973 450.477 157.838C450.614 157.567 450.819 157.178 451.1 156.684C451.661 155.695 452.524 154.287 453.748 152.571C456.197 149.139 460.091 144.475 465.902 139.474C477.532 129.462 496.796 118.137 527.428 112.577Z" fill="#17091D"/>
<path d="M559.682 113.501C560.02 112.745 560.908 112.406 561.665 112.744C562.421 113.082 562.759 113.97 562.421 114.726C561.256 117.333 559.084 119.775 556.619 121.939C554.134 124.119 551.248 126.104 548.527 127.776C545.802 129.45 543.213 130.827 541.307 131.784C540.353 132.264 539.568 132.639 539.019 132.896C538.745 133.024 538.529 133.123 538.381 133.19C538.307 133.223 538.25 133.248 538.211 133.266C538.191 133.274 538.176 133.282 538.166 133.286C538.16 133.289 538.156 133.29 538.153 133.291C538.152 133.292 538.151 133.293 538.15 133.293H538.149L538.148 133.294C537.39 133.628 536.504 133.284 536.17 132.526C535.837 131.767 536.181 130.882 536.939 130.548L536.941 130.547C536.943 130.546 536.946 130.545 536.95 130.543C536.958 130.54 536.971 130.534 536.988 130.527C537.022 130.511 537.074 130.488 537.143 130.457C537.281 130.395 537.486 130.301 537.749 130.178C538.275 129.932 539.035 129.569 539.961 129.104C541.814 128.173 544.325 126.837 546.958 125.22C549.595 123.6 552.327 121.713 554.639 119.684C556.971 117.638 558.773 115.535 559.682 113.501Z" fill="#17091D"/>
<path d="M563.262 195.279C563.951 194.82 564.883 195.007 565.342 195.697C565.801 196.386 565.613 197.318 564.923 197.777C556.74 203.218 545.743 207.362 536.877 210.136C532.428 211.528 528.483 212.584 525.649 213.293C524.232 213.648 523.092 213.915 522.305 214.095C521.911 214.185 521.605 214.253 521.396 214.298C521.292 214.321 521.212 214.338 521.158 214.35C521.131 214.356 521.111 214.36 521.097 214.363C521.09 214.364 521.084 214.366 521.08 214.366C521.078 214.367 521.076 214.367 521.075 214.367H521.073C520.262 214.537 519.468 214.018 519.298 213.207C519.128 212.397 519.647 211.602 520.458 211.432L520.461 211.431C520.464 211.43 520.468 211.429 520.475 211.428C520.487 211.425 520.505 211.422 520.53 211.416C520.58 211.406 520.656 211.389 520.756 211.367C520.956 211.324 521.253 211.258 521.638 211.17C522.407 210.995 523.526 210.732 524.921 210.383C527.711 209.685 531.598 208.644 535.98 207.273C544.777 204.521 555.444 200.478 563.262 195.279Z" fill="#17091D"/>
<path d="M445.784 185.612C446.61 185.679 447.225 186.403 447.158 187.229L447.157 187.235C447.157 187.242 447.156 187.253 447.155 187.269C447.153 187.3 447.15 187.348 447.146 187.412C447.138 187.541 447.127 187.736 447.117 187.988C447.097 188.494 447.079 189.233 447.089 190.149C447.109 191.982 447.241 194.509 447.687 197.282C448.589 202.893 450.726 209.211 455.488 213.047C456.134 213.567 456.236 214.511 455.716 215.156C455.196 215.801 454.252 215.903 453.607 215.383C447.97 210.842 445.665 203.607 444.725 197.758C444.249 194.802 444.11 192.122 444.089 190.182C444.078 189.21 444.097 188.42 444.119 187.869C444.13 187.594 444.142 187.377 444.151 187.228C444.156 187.153 444.16 187.095 444.163 187.055C444.165 187.035 444.165 187.018 444.166 187.007C444.167 187.001 444.167 186.997 444.167 186.993C444.167 186.992 444.168 186.99 444.168 186.989V186.987C444.171 186.987 444.24 186.992 445.663 187.107L444.168 186.986C444.235 186.161 444.959 185.546 445.784 185.612Z" fill="#17091D"/>
<path d="M383.934 198.385C383.923 198.394 383.903 198.411 383.875 198.436C383.818 198.484 383.73 198.561 383.617 198.667C383.391 198.878 383.065 199.201 382.689 199.627C381.935 200.482 380.993 201.739 380.24 203.342C378.908 206.175 378.127 210.153 380.162 215.085C380.529 214.788 380.957 214.447 381.439 214.073C383.189 212.719 385.663 210.92 388.561 209.145C394.282 205.639 401.95 202.037 409.022 202.477C409.849 202.528 410.478 203.241 410.426 204.067C410.375 204.894 409.662 205.522 408.836 205.471C402.748 205.093 395.767 208.247 390.129 211.702C387.347 213.407 384.964 215.139 383.276 216.445C382.433 217.098 381.766 217.643 381.311 218.022C381.084 218.212 380.91 218.361 380.795 218.461C380.737 218.511 380.694 218.548 380.666 218.573C380.652 218.586 380.641 218.595 380.634 218.601C380.631 218.603 380.629 218.605 380.628 218.606L380.627 218.607L380.492 218.714C380.165 218.943 379.758 219.034 379.361 218.962C378.907 218.879 378.517 218.591 378.302 218.183C374.81 211.525 375.696 205.957 377.525 202.065C378.427 200.146 379.546 198.655 380.439 197.643C380.887 197.135 381.282 196.744 381.57 196.475C381.714 196.34 381.832 196.235 381.917 196.162C381.959 196.125 381.994 196.096 382.019 196.075C382.032 196.065 382.042 196.056 382.05 196.05C382.055 196.046 382.058 196.043 382.061 196.041C382.063 196.04 382.064 196.039 382.065 196.038L382.066 196.037C382.067 196.037 382.068 196.036 382.907 197.085L382.068 196.036C382.715 195.519 383.659 195.623 384.176 196.27C384.694 196.916 384.589 197.859 383.943 198.377C383.941 198.378 383.938 198.381 383.934 198.385Z" fill="#17091D"/>
<path d="M412.573 213.137C413.241 212.647 414.18 212.79 414.671 213.457C415.162 214.125 415.018 215.064 414.351 215.555H414.35C414.349 215.556 414.347 215.557 414.345 215.559C414.34 215.562 414.332 215.568 414.322 215.576C414.302 215.591 414.271 215.614 414.229 215.645C414.147 215.706 414.025 215.798 413.869 215.917C413.556 216.157 413.106 216.506 412.564 216.941C411.48 217.812 410.035 219.023 408.584 220.383C407.127 221.75 405.696 223.237 404.619 224.663C403.501 226.145 402.935 227.34 402.877 228.154C402.818 228.98 402.101 229.602 401.274 229.543C400.448 229.484 399.826 228.766 399.885 227.94C400.008 226.209 401.044 224.42 402.225 222.856C403.447 221.237 405.014 219.617 406.531 218.195C408.055 216.766 409.563 215.504 410.686 214.602C411.249 214.15 411.718 213.786 412.047 213.535C412.212 213.409 412.342 213.311 412.432 213.244C412.476 213.21 412.511 213.184 412.535 213.166L412.57 213.14C412.571 213.139 412.572 213.139 412.572 213.138H412.573C412.575 213.141 412.611 213.188 413.206 213.998L412.573 213.137Z" fill="#17091D"/>
<path d="M618.836 227.839L618.837 227.84C618.838 227.842 618.839 227.842 618.84 227.843C618.841 227.845 618.842 227.846 618.843 227.847L618.842 227.846C618.838 227.841 618.827 227.828 618.81 227.806C618.774 227.763 618.71 227.688 618.615 227.586C618.423 227.383 618.106 227.071 617.634 226.689C616.692 225.925 615.13 224.871 612.734 223.835C607.942 221.761 599.774 219.739 586.51 220.277C585.683 220.31 584.984 219.667 584.95 218.839C584.917 218.012 585.561 217.313 586.389 217.28C600.004 216.728 608.636 218.794 613.924 221.082C616.568 222.225 618.366 223.42 619.524 224.359C620.102 224.828 620.519 225.232 620.8 225.532C620.941 225.681 621.047 225.805 621.123 225.897C621.161 225.943 621.192 225.981 621.215 226.011C621.227 226.026 621.236 226.039 621.244 226.049C621.248 226.055 621.252 226.06 621.255 226.064C621.257 226.066 621.258 226.068 621.259 226.07L621.261 226.072C621.262 226.073 621.263 226.075 620.12 226.904L621.263 226.075C621.749 226.745 621.6 227.683 620.929 228.169C620.259 228.655 619.323 228.507 618.836 227.839Z" fill="#17091D"/>
<path d="M376.652 154.794C377.368 154.377 378.286 154.619 378.703 155.335L378.704 155.336L378.724 155.37C378.738 155.395 378.761 155.433 378.791 155.483C378.851 155.585 378.941 155.737 379.062 155.936C379.302 156.334 379.662 156.922 380.134 157.673C381.078 159.175 382.471 161.332 384.263 163.933C387.847 169.138 393.017 176.115 399.356 183.21C412.108 197.482 429.305 211.9 447.669 213.836C448.493 213.923 449.09 214.661 449.003 215.484C448.916 216.308 448.178 216.906 447.355 216.819C427.793 214.757 409.938 199.556 397.119 185.209C390.673 177.995 385.426 170.912 381.792 165.635C379.974 162.995 378.558 160.803 377.594 159.27C377.112 158.503 376.743 157.899 376.494 157.486C376.37 157.28 376.274 157.122 376.21 157.014C376.178 156.96 376.154 156.918 376.138 156.89C376.129 156.876 376.123 156.865 376.118 156.857C376.116 156.854 376.115 156.851 376.113 156.849C376.113 156.848 376.113 156.846 376.112 156.846C376.119 156.841 376.207 156.789 377.407 156.09L376.111 156.845C375.694 156.129 375.937 155.211 376.652 154.794Z" fill="#17091D"/>
</svg>
