<svg width="1000" height="1000" viewBox="0 0 1000 1000" fill="none" xmlns="http://www.w3.org/2000/svg">
<path d="M393.957 352.982C393.636 352.983 393.321 352.888 393.053 352.71C382.632 345.769 377.521 330.839 375.069 319.537C374.568 317.233 374.197 315.176 373.932 313.5C370.151 316.986 363.863 318.05 363.511 318.109C363.425 318.123 363.337 318.13 363.25 318.13C362.968 318.131 362.691 318.059 362.445 317.922C362.199 317.784 361.993 317.585 361.847 317.344C361.701 317.103 361.619 316.828 361.61 316.546C361.602 316.264 361.666 315.985 361.797 315.735C364.739 310.132 364.612 292.073 364.165 281.879L355.811 291.895C355.657 292.079 355.466 292.226 355.249 292.327C355.033 292.429 354.796 292.481 354.557 292.48H354.379C354.111 292.451 353.854 292.355 353.632 292.202C353.41 292.049 353.228 291.844 353.104 291.604C352.995 291.39 352.883 291.172 352.781 290.954C345.019 275.091 352.781 255.597 357.078 246.98L345.818 252.217C345.568 252.333 345.293 252.385 345.018 252.366C344.742 252.347 344.476 252.26 344.244 252.11C344.012 251.961 343.822 251.756 343.691 251.513C343.559 251.271 343.491 250.999 343.493 250.723C343.54 241.928 353.05 223.525 357.754 214.955L350.126 218.332C349.917 218.422 349.692 218.469 349.465 218.47C349.23 218.469 348.999 218.419 348.785 218.321C348.572 218.223 348.382 218.081 348.229 217.903C348.076 217.726 347.962 217.517 347.897 217.292C347.831 217.067 347.815 216.83 347.848 216.598C349.726 203.726 365.24 185.18 371.095 178.566L359.973 177.454C359.715 177.428 359.466 177.342 359.248 177.2C359.03 177.059 358.848 176.868 358.719 176.643C358.59 176.417 358.516 176.164 358.504 175.905C358.492 175.645 358.543 175.386 358.651 175.15C362.371 166.991 376.29 163.477 385.501 161.151C387.132 160.74 388.898 160.293 390.162 159.912C387.619 158.658 382.022 156.576 373.3 153.992L373.239 153.973C372.312 153.694 371.749 153.534 371.746 153.534C371.447 153.448 371.178 153.279 370.972 153.047C370.766 152.814 370.63 152.527 370.581 152.22C370.532 151.913 370.571 151.598 370.694 151.313C370.818 151.027 371.02 150.783 371.277 150.608C376.987 146.738 384.314 144.775 393.049 144.775C401.593 144.775 409.311 146.69 412.798 147.708C414.142 137.031 419.377 127.742 428.022 120.735C435.058 115.033 441.825 112.852 442.093 112.765C442.253 112.715 442.42 112.689 442.587 112.689C442.88 112.689 443.167 112.767 443.419 112.916C443.671 113.064 443.878 113.278 444.02 113.534C444.161 113.79 444.231 114.079 444.223 114.372C444.214 114.664 444.127 114.949 443.971 115.196C439.362 122.516 439.939 128.705 440.913 132.154C445.102 125.293 451.398 119.974 458.86 116.992C465.322 114.408 470.484 114.357 470.695 114.357C471.017 114.357 471.332 114.453 471.6 114.632C471.868 114.81 472.077 115.064 472.201 115.362C472.326 115.659 472.359 115.987 472.298 116.303C472.237 116.62 472.083 116.911 471.857 117.141C467.999 121.051 466.546 123.988 466.045 125.914C489.292 107.761 511.45 106.365 512.427 106.314H512.514C512.841 106.315 513.161 106.413 513.431 106.597C513.702 106.781 513.911 107.041 514.032 107.346C514.153 107.65 514.18 107.983 514.109 108.303C514.039 108.622 513.874 108.913 513.636 109.138C513.593 109.178 509.405 113.136 505.434 117.62C498.104 125.896 498.402 128.087 498.46 128.312C498.577 128.767 498.667 129.126 499.913 129.181H500.193C502.547 129.181 506.731 128.04 513.07 126.313C517.617 125.071 523.273 123.526 530.287 121.851C538.278 119.939 547.857 118.969 558.71 118.969C568.196 118.984 577.669 119.659 587.061 120.989C587.413 121.045 587.738 121.215 587.985 121.472C588.232 121.73 588.388 122.061 588.429 122.416C588.47 122.771 588.394 123.129 588.213 123.436C588.031 123.744 587.754 123.983 587.424 124.118C587.093 124.257 586.759 124.409 586.436 124.576L586.381 124.605C577.439 129.224 576.683 142.457 576.683 146.818C578.343 146.927 579.978 146.981 581.561 146.981C582.368 146.981 583.174 146.981 583.962 146.938C584.3 146.938 584.634 146.912 584.968 146.894L585.597 146.858L586.272 146.814L586.588 146.789H586.625C586.752 146.789 586.875 146.77 586.988 146.756H587.035L587.729 146.694C587.98 146.669 588.201 146.65 588.423 146.621H588.474C588.568 146.621 588.666 146.603 588.761 146.589H588.833L589.422 146.52L589.763 146.476C590.043 146.44 590.326 146.403 590.606 146.356L591.009 146.294C591.172 146.269 591.325 146.247 591.478 146.218L591.804 146.164C592.102 146.116 592.386 146.062 592.669 146.007C592.952 145.953 593.308 145.887 593.617 145.822L594.253 145.684H594.322L594.583 145.626H594.638L594.939 145.553C595.43 145.44 595.913 145.32 596.392 145.19L596.665 145.113C597.231 144.957 597.711 144.815 598.154 144.677L598.546 144.554C598.728 144.499 598.88 144.448 599.033 144.394L599.531 144.223C599.839 144.117 600.108 144.023 600.373 143.921C600.715 143.798 601.034 143.674 601.35 143.558C601.561 143.474 601.743 143.402 601.917 143.325L602.487 143.085L602.531 143.067C602.923 142.898 603.312 142.723 603.697 142.544L604.242 142.279L604.852 141.977L605.284 141.748C606.032 141.359 606.763 140.941 607.464 140.509L607.801 140.298C607.929 140.222 608.03 140.156 608.128 140.091C608.226 140.025 608.379 139.931 608.492 139.855C608.669 139.738 608.818 139.64 608.967 139.535C609.403 139.24 609.825 138.939 610.279 138.601L610.457 138.466C610.983 138.066 611.474 137.67 611.942 137.271L612.24 137.009L612.266 136.987L612.527 136.751L612.571 136.715C612.661 136.638 612.752 136.555 612.836 136.475L612.93 136.387L613.294 136.06L613.326 136.031L613.58 135.788L613.66 135.712L613.958 135.417C614.281 135.086 614.539 134.814 614.768 134.563L614.797 134.534L614.957 134.356L614.99 134.323L615.302 133.96L615.418 133.822C615.553 133.665 615.68 133.513 615.8 133.367C615.92 133.222 616.05 133.051 616.163 132.913L616.316 132.717L616.366 132.648L616.392 132.615L616.715 132.165C616.864 131.957 616.98 131.779 617.078 131.645L617.235 131.398V131.361C617.33 131.195 617.453 131.047 617.598 130.922C617.895 130.666 618.274 130.526 618.666 130.526C618.76 130.525 618.853 130.533 618.945 130.551C619.184 130.592 619.411 130.685 619.609 130.825C619.807 130.965 619.971 131.147 620.09 131.358C620.246 131.634 623.842 138.317 617.147 152.462C613.915 159.29 612.6 162.637 612.062 164.247C627.354 165.479 636.21 170.974 640.994 175.462C646.49 180.619 647.993 185.595 648.055 185.805C648.126 186.049 648.14 186.306 648.094 186.556C648.049 186.806 647.946 187.041 647.794 187.245C647.641 187.448 647.444 187.613 647.217 187.726C646.99 187.84 646.74 187.899 646.486 187.899C646.434 187.902 646.382 187.902 646.33 187.899C646.239 187.899 637.096 187.016 628.851 186.358C628.535 186.332 628.244 186.318 627.99 186.318C627.794 186.318 627.627 186.318 627.511 186.336C627.511 186.336 627.547 186.412 627.554 186.43C628.317 187.964 630.569 190.563 633.409 193.844C635.705 196.49 638.56 199.786 641.473 203.511C650.816 215.453 659.305 216.783 660.242 216.896H660.307C660.678 216.917 661.03 217.063 661.307 217.31C661.583 217.558 661.767 217.893 661.829 218.259C661.89 218.625 661.825 219.001 661.644 219.326C661.463 219.65 661.177 219.903 660.834 220.043L653.529 223.001C648.996 224.819 644.39 225.222 641.324 225.222H640.758C642.498 228.878 645.52 235.761 646.569 241.623C648.197 250.68 648.204 254.575 646.595 256.498C646.298 256.864 645.921 257.157 645.494 257.356C645.067 257.555 644.6 257.654 644.129 257.646C643.814 257.645 643.501 257.608 643.195 257.534C641.717 257.17 640.166 255.916 638.527 254.568C637.921 254.067 637.031 253.34 636.37 252.896C636.435 254.181 636.618 255.458 636.918 256.709C639.679 269.643 634.263 290.234 634.031 291.106C633.939 291.453 633.735 291.76 633.452 291.979C633.168 292.199 632.82 292.319 632.461 292.32C632.105 292.321 631.758 292.204 631.474 291.988C631.189 291.772 630.984 291.469 630.889 291.125C629.744 287.047 628.135 283.028 627.093 281.516C626.801 282.436 626.595 283.381 626.479 284.34C624.452 298.513 616.09 304.546 615.734 304.797C615.46 304.994 615.131 305.099 614.794 305.098C614.636 305.097 614.48 305.074 614.329 305.029C614.092 304.959 613.874 304.837 613.692 304.671C613.509 304.504 613.367 304.299 613.275 304.07C613.007 303.397 606.737 287.447 609.963 272.994C611.136 267.742 611.884 264.126 612.36 261.662C610.751 263.312 608.942 264.78 607.086 264.78C605.756 264.78 603.98 264.075 603.09 260.706C601.721 255.618 596.824 242.572 593.646 234.246L592.887 244.374C592.858 244.751 592.7 245.107 592.439 245.38C592.178 245.654 591.831 245.829 591.456 245.875C591.389 245.879 591.323 245.879 591.256 245.875C590.913 245.875 590.578 245.767 590.3 245.566C590.021 245.365 589.813 245.082 589.705 244.756C588.288 240.493 575.117 230.702 554.471 218.568C554.267 218.446 554.033 218.382 553.796 218.382C553.615 218.38 553.436 218.415 553.27 218.486C553.104 218.558 552.955 218.664 552.833 218.797C552.778 218.858 552.739 218.932 552.72 219.012C552.7 219.091 552.7 219.175 552.72 219.255C556.291 235.936 550.392 249.757 549.172 252.359C549.095 252.526 549.015 252.686 548.939 252.849C548.81 253.117 548.612 253.344 548.364 253.508C548.117 253.672 547.83 253.766 547.533 253.78H547.464C547.18 253.779 546.901 253.705 546.654 253.564C546.407 253.423 546.2 253.221 546.055 252.976C541.456 245.17 532.114 240.169 523.077 235.332C521.918 234.715 520.77 234.097 519.644 233.483C515.525 231.237 511.435 228.304 507.824 225.716C504.919 223.641 501.424 221.126 499.742 220.501C500.36 223.409 505.002 231.916 509.503 238.948C509.661 239.196 509.75 239.481 509.76 239.774C509.771 240.068 509.702 240.359 509.561 240.616C509.42 240.874 509.213 241.089 508.96 241.238C508.708 241.388 508.419 241.467 508.126 241.467H507.992C499.405 240.998 488.66 235.463 476.052 225.026C472.217 221.849 470.68 221.602 470.302 221.602H470.215C470.201 221.632 470.189 221.662 470.179 221.693V221.726C470.098 222.083 470.079 222.452 470.124 222.816C470.124 222.834 470.124 222.852 470.124 222.871C470.129 222.922 470.136 222.973 470.146 223.023C470.169 223.143 470.18 223.265 470.179 223.387C469.925 239.781 466.328 249.146 463.357 254.114C463.346 254.135 463.334 254.156 463.321 254.176C462.561 255.504 461.637 256.731 460.571 257.828C460.517 257.886 460.459 257.941 460.393 257.999C460.175 258.19 459.91 258.32 459.626 258.375C459.341 258.43 459.047 258.409 458.773 258.313C458.5 258.217 458.256 258.049 458.069 257.828C457.881 257.607 457.756 257.34 457.705 257.054C457.091 253.616 456.467 250.349 455.864 247.194C454.694 241.074 453.684 235.794 453.292 231.931C453.092 229.954 452.638 229.107 452.431 228.885C452.159 228.994 450.935 229.67 448.933 233.508C447.451 236.343 447.691 244.629 447.905 251.941C448.268 264.032 448.268 271.587 445.363 274.553C444.992 274.946 444.544 275.26 444.048 275.474C443.551 275.688 443.016 275.797 442.475 275.796C442.247 275.795 442.021 275.778 441.796 275.745C436.71 274.971 432.983 271.536 430.739 268.792C430.704 268.759 430.663 268.732 430.618 268.715C430.573 268.699 430.525 268.691 430.477 268.694C430.377 268.692 430.279 268.718 430.194 268.771C429.467 281.585 430.746 307.333 430.757 307.591C430.778 308 430.645 308.401 430.385 308.717C430.125 309.032 429.756 309.239 429.351 309.296C429.276 309.301 429.201 309.301 429.126 309.296C428.756 309.295 428.397 309.17 428.108 308.94C427.818 308.709 427.615 308.388 427.531 308.027C426.954 305.483 424.004 301.875 419.584 298.248C418.022 310.673 426.627 340.121 426.721 340.437C426.805 340.726 426.808 341.033 426.73 341.324C426.652 341.615 426.495 341.879 426.278 342.087C425.975 342.377 425.571 342.538 425.152 342.538C424.969 342.537 424.787 342.505 424.615 342.443C424.16 342.287 423.717 342.113 423.292 341.931C423.005 341.807 422.715 341.676 422.428 341.535C421.858 341.258 421.291 340.957 420.753 340.641C420.419 340.441 420.078 340.226 419.707 339.983C419.398 339.783 419.068 339.558 418.737 339.318C418.49 339.14 418.236 338.954 417.982 338.751C416.549 337.631 415.206 336.401 413.964 335.073C413.743 334.84 413.518 334.597 413.293 334.346C412.969 333.983 412.631 333.619 412.257 333.169C412.039 332.911 411.825 332.653 411.614 332.391C410.703 331.275 409.762 330.022 408.828 328.681C408.636 328.404 408.443 328.128 408.254 327.848C407.961 327.41 407.671 326.969 407.383 326.525C407.201 326.242 407.019 325.962 406.841 325.679C406.562 325.232 406.293 324.796 406.028 324.359C405.763 323.923 405.508 323.502 405.254 323.066L405.225 323.018C404.767 322.237 404.284 321.383 403.747 320.402C401.6 316.539 399.747 312.683 398.295 309.594C397.328 307.584 396.453 305.752 395.734 304.429C394.815 312.298 395.116 335.684 395.61 351.311C395.617 351.53 395.579 351.748 395.5 351.952C395.42 352.156 395.301 352.342 395.149 352.499C394.996 352.656 394.814 352.781 394.613 352.867C394.411 352.952 394.194 352.997 393.976 352.997L393.957 352.982Z" fill="#CE44A2"/>
<path d="M512.536 107.936C512.536 107.936 495.642 123.872 496.916 128.709C497.28 130.09 498.184 130.726 499.866 130.803H500.229C504.588 130.803 513.669 127.503 530.705 123.429C539.727 121.27 549.724 120.59 558.746 120.59C568.138 120.6 577.516 121.27 586.814 122.597C586.41 122.76 586.022 122.96 585.648 123.138C573.824 129.244 575.114 148.323 575.114 148.323C577.377 148.516 579.534 148.603 581.59 148.603C582.429 148.603 583.247 148.603 584.049 148.559C584.413 148.559 584.743 148.53 585.088 148.512C585.31 148.512 585.528 148.49 585.746 148.472C585.964 148.454 586.207 148.447 586.432 148.428L586.759 148.403L587.206 148.367L587.932 148.298C588.176 148.276 588.415 148.254 588.659 148.225C588.786 148.225 588.917 148.2 589.044 148.181C589.258 148.16 589.469 148.134 589.68 148.105L589.999 148.061C590.301 148.025 590.606 147.985 590.907 147.938L591.307 147.876L591.797 147.796C591.906 147.774 592.019 147.76 592.128 147.742C592.428 147.691 592.726 147.636 593.021 147.578C593.348 147.516 593.671 147.455 593.991 147.385L594.659 147.24C594.779 147.218 594.899 147.189 595.023 147.16L595.386 147.077C595.898 146.96 596.399 146.833 596.89 146.713L597.191 146.63C597.711 146.488 598.216 146.339 598.713 146.183C598.851 146.143 598.993 146.099 599.127 146.052C599.262 146.004 599.491 145.943 599.647 145.881L600.159 145.706C600.449 145.608 600.736 145.507 601.016 145.401C601.379 145.274 601.706 145.143 602.04 145.005L602.622 144.769L603.246 144.504C603.658 144.327 604.061 144.145 604.456 143.958L605.037 143.679C605.255 143.573 605.469 143.468 605.676 143.359L606.116 143.13C606.919 142.712 607.678 142.276 608.393 141.836L608.757 141.618L609.12 141.396C609.251 141.313 609.378 141.233 609.505 141.146L610.003 140.811C610.475 140.491 610.926 140.168 611.357 139.841L611.564 139.685C612.112 139.27 612.625 138.857 613.105 138.445C613.188 138.376 613.272 138.307 613.352 138.235L613.664 137.958C613.78 137.86 613.896 137.755 614.005 137.653L614.064 137.599L614.427 137.235C614.536 137.137 614.637 137.035 614.739 136.937L614.794 136.883C614.913 136.77 615.026 136.654 615.139 136.541C615.44 136.232 615.723 135.938 615.981 135.654C616.056 135.574 616.129 135.494 616.199 135.414C616.345 135.254 616.479 135.098 616.61 134.949C616.741 134.8 616.933 134.568 617.078 134.386C617.224 134.204 617.344 134.055 617.442 133.899L617.558 133.75C617.605 133.692 617.649 133.637 617.689 133.579L618.026 133.11C618.193 132.874 618.324 132.678 618.422 132.525L618.491 132.416L618.539 132.34L618.6 132.242L618.622 132.205C618.63 132.194 618.636 132.182 618.64 132.169C618.64 132.169 622.055 138.227 615.644 151.768C609.232 165.309 610.061 165.745 610.061 165.745C640.936 167.468 646.446 186.257 646.446 186.257C646.446 186.257 637.296 185.377 628.942 184.712C628.578 184.683 628.248 184.669 627.95 184.669C625.709 184.669 625.251 185.49 626.018 187.078C627.503 190.138 633.547 196.066 640.147 204.522C649.806 216.879 658.672 218.361 660.009 218.521C660.066 218.525 660.123 218.525 660.18 218.521L652.875 221.48C648.571 223.224 644.158 223.58 641.284 223.58C640.192 223.589 639.101 223.532 638.015 223.409C638.182 223.729 643.504 233.949 644.917 241.9C646.29 249.532 647.016 255.997 644.085 255.997C643.895 255.996 643.706 255.973 643.522 255.928C641.255 255.398 637.459 250.88 635.676 250.88C634.644 250.88 634.285 252.385 635.276 257.037C637.986 269.756 632.407 290.671 632.407 290.671C632.407 290.671 629.247 279.372 626.838 279.372C626.028 279.372 625.298 280.655 624.808 284.097C622.857 297.722 614.739 303.453 614.739 303.453C614.739 303.453 608.35 287.462 611.503 273.34C614.656 259.217 614.772 256.768 614.772 256.768C613.446 257.466 609.741 263.135 607.031 263.135C606.029 263.135 605.161 262.361 604.601 260.271C603.108 254.718 597.507 239.92 594.467 232.03C594.371 231.805 594.209 231.614 594.002 231.484C593.795 231.354 593.552 231.291 593.308 231.303C593.011 231.28 592.717 231.372 592.486 231.56C592.254 231.748 592.104 232.018 592.066 232.313L591.172 244.241C588.993 237.652 566.167 223.591 555.212 217.159C554.756 216.89 554.237 216.748 553.708 216.748C552.121 216.748 550.693 218.013 551.035 219.597C554.486 235.726 548.855 249.034 547.606 251.665L547.377 252.145C541.929 242.903 530.305 237.485 520.338 232.048C511.384 227.164 502.223 218.721 499.027 218.718C498.869 218.707 498.711 218.733 498.565 218.792C498.418 218.851 498.287 218.942 498.181 219.059C496.208 221.345 508.039 239.832 508.039 239.832C498.486 239.309 487.08 232.066 477.051 223.762C473.597 220.902 471.508 219.964 470.259 219.964C469.87 219.945 469.487 220.066 469.18 220.306C468.872 220.545 468.661 220.887 468.584 221.269C468.444 221.828 468.406 222.408 468.472 222.981C468.482 223.102 468.499 223.224 468.522 223.344C468.268 239.774 464.57 248.845 461.933 253.253L461.901 253.312C461.208 254.527 460.365 255.651 459.391 256.655C459.36 256.688 459.327 256.72 459.293 256.75C457.476 246.548 455.479 237.466 454.897 231.757C454.607 228.901 453.75 227.218 452.467 227.218C451.185 227.218 449.471 228.893 447.462 232.742C443.51 240.308 450.146 274.15 442.471 274.15C442.326 274.15 442.182 274.139 442.039 274.117C437.564 273.434 434.178 270.411 431.999 267.747C431.813 267.524 431.579 267.345 431.315 267.225C431.051 267.104 430.764 267.044 430.473 267.049C429.536 267.049 428.617 267.649 428.559 268.633C427.8 281.677 429.122 307.665 429.122 307.665C428.134 303.347 422.471 298.445 419.852 296.373C419.042 295.734 418.523 295.363 418.523 295.363C415.003 306.422 425.174 340.925 425.174 340.925C424.763 340.78 424.36 340.623 423.961 340.453C423.692 340.336 423.427 340.216 423.165 340.089C422.637 339.847 422.118 339.568 421.607 339.253C421.276 339.061 420.953 338.854 420.63 338.643C420.307 338.432 420.02 338.232 419.722 338.018C419.424 337.803 419.235 337.654 418.995 337.473C417.626 336.403 416.342 335.228 415.156 333.958C414.938 333.729 414.72 333.493 414.502 333.257C414.164 332.893 413.834 332.508 413.507 332.123C413.3 331.876 413.093 331.629 412.889 331.374C411.945 330.219 411.04 329.005 410.172 327.74C409.983 327.468 409.809 327.199 409.613 326.922C409.326 326.497 409.039 326.068 408.759 325.632C408.581 325.356 408.396 325.08 408.229 324.8C407.96 324.371 407.691 323.942 407.43 323.506C407.168 323.07 406.91 322.645 406.656 322.212C406.652 322.202 406.646 322.192 406.638 322.183C406.133 321.326 405.65 320.464 405.185 319.61C400.881 311.801 397.884 304.347 396.122 301.912L396.082 301.854L395.897 301.625C395.603 301.261 395.349 301.076 395.134 301.076C395.036 301.079 394.942 301.119 394.873 301.189C394.758 301.311 394.671 301.458 394.619 301.617C392.57 307.123 393.968 351.333 393.968 351.333C383.798 344.563 378.905 329.441 376.678 319.178C375.901 315.616 375.447 312.636 375.225 310.819C375.062 309.551 374.997 308.824 374.997 308.824C373.649 314.821 363.279 316.507 363.279 316.507C367.616 308.181 365.578 277.654 365.578 277.654L354.557 290.846C354.456 290.649 354.354 290.453 354.259 290.25C344.452 270.196 360.66 243.732 360.87 243.401L345.142 250.724C345.2 239.821 361.35 211.896 361.6 211.475L349.487 216.839C351.713 201.597 374.503 177.266 374.503 177.266L360.155 175.819C365.24 164.662 393.572 162.431 393.086 160.102C392.679 158.161 378.465 153.8 373.729 152.397C372.784 152.114 372.214 151.95 372.214 151.95C378.473 147.713 386.068 146.401 393.071 146.401C404.262 146.401 413.939 149.748 414.237 149.849C416.362 122.822 442.206 114.438 442.602 114.311C434.974 126.42 440.691 135.898 440.691 135.898C450.767 116.055 470.716 115.979 470.716 115.979C462.144 124.664 464.461 129.294 464.461 129.294C488.504 109.23 512.536 107.936 512.536 107.936ZM512.536 104.665H512.507H512.314C511.675 104.705 505.525 105.138 496.535 107.965C487.636 110.796 479.178 114.859 471.406 120.038C471.886 119.489 472.42 118.911 473.016 118.305C473.475 117.851 473.791 117.272 473.922 116.64C474.053 116.008 473.994 115.351 473.753 114.752C473.512 114.153 473.099 113.639 472.566 113.275C472.034 112.91 471.405 112.712 470.76 112.704H470.709C470.477 112.704 465.021 112.759 458.272 115.459C451.809 118.038 446.162 122.315 441.926 127.837C441.81 124.719 442.5 120.656 445.348 116.109C445.666 115.627 445.851 115.069 445.884 114.492C445.917 113.916 445.796 113.34 445.534 112.825C445.273 112.31 444.879 111.873 444.394 111.56C443.909 111.246 443.35 111.067 442.773 111.04H442.609H442.337C442.06 111.06 441.788 111.118 441.527 111.211C436.261 113.115 431.354 115.897 427.015 119.438C418.541 126.307 413.213 135.298 411.473 145.605C407.401 144.536 400.539 143.104 393.071 143.104C383.99 143.104 376.362 145.161 370.38 149.217C369.864 149.566 369.459 150.055 369.212 150.627C368.965 151.198 368.886 151.828 368.984 152.443C369.082 153.058 369.354 153.632 369.767 154.098C370.181 154.563 370.718 154.901 371.317 155.072C371.317 155.072 371.884 155.232 372.77 155.504L372.861 155.53C377.946 157.034 382.08 158.415 385.087 159.527C375.57 161.93 361.208 165.56 357.165 174.428C356.95 174.901 356.85 175.419 356.874 175.939C356.899 176.458 357.047 176.965 357.306 177.416C357.565 177.866 357.928 178.249 358.365 178.531C358.802 178.814 359.299 178.988 359.817 179.039L367.808 179.839C360.907 187.925 347.997 204.377 346.25 216.319C346.166 216.898 346.238 217.488 346.459 218.03C346.68 218.571 347.042 219.043 347.508 219.397C347.973 219.75 348.525 219.973 349.106 220.041C349.686 220.108 350.274 220.019 350.809 219.782L354.096 218.329C352.926 220.553 351.64 223.053 350.358 225.71C344.677 237.419 341.899 245.585 341.873 250.673C341.87 251.225 342.006 251.768 342.269 252.253C342.532 252.737 342.913 253.147 343.377 253.445C343.841 253.743 344.373 253.918 344.923 253.955C345.473 253.992 346.023 253.89 346.523 253.657L353.704 250.31C352.551 252.97 351.541 255.69 350.678 258.458C349.013 263.623 348.064 268.992 347.856 274.415C347.685 280.793 348.847 286.59 351.314 291.638C351.43 291.881 351.546 292.11 351.651 292.314C351.898 292.793 352.259 293.203 352.703 293.509C353.147 293.815 353.659 294.006 354.194 294.066C354.315 294.073 354.436 294.073 354.557 294.066C355.036 294.066 355.509 293.961 355.943 293.758C356.376 293.555 356.76 293.259 357.067 292.892L362.697 286.198C363.003 297.296 362.607 310.688 360.355 314.973C360.092 315.473 359.963 316.031 359.98 316.596C359.997 317.16 360.16 317.71 360.453 318.192C360.745 318.675 361.157 319.073 361.649 319.349C362.141 319.625 362.696 319.769 363.26 319.767C363.436 319.767 363.611 319.752 363.783 319.723C364.561 319.6 369.003 318.796 372.788 316.43C372.984 317.503 373.217 318.662 373.485 319.89C375.999 331.483 381.281 346.827 392.156 354.052C392.655 354.386 393.237 354.576 393.838 354.601C394.439 354.626 395.034 354.485 395.56 354.193C396.086 353.901 396.521 353.47 396.817 352.947C397.114 352.424 397.26 351.829 397.241 351.228C397.241 351.115 396.878 340.1 396.798 328.551C396.733 320.137 396.823 314.446 396.969 310.601C398.422 313.65 400.238 317.386 402.33 321.191C402.882 322.198 403.362 323.045 403.834 323.844L403.874 323.913C404.15 324.382 404.404 324.804 404.647 325.207C404.891 325.61 405.178 326.072 405.454 326.512V326.534C405.639 326.828 405.817 327.115 406.006 327.402C406.318 327.885 406.631 328.354 406.896 328.75C407.096 329.045 407.288 329.328 407.488 329.612C408.447 330.985 409.409 332.268 410.354 333.428C410.561 333.682 410.782 333.951 411.004 334.213C411.393 334.671 411.731 335.074 412.094 335.445C412.323 335.699 412.559 335.95 412.791 336.197C414.092 337.584 415.499 338.868 416.997 340.038L417.023 340.06C417.277 340.253 417.539 340.453 417.818 340.652C418.098 340.852 418.501 341.136 418.843 341.357C419.184 341.579 419.598 341.844 419.958 342.055C420.528 342.393 421.131 342.717 421.749 343.015C422.05 343.16 422.366 343.305 422.686 343.444C423.136 343.636 423.616 343.807 424.102 343.992C424.669 344.189 425.278 344.226 425.864 344.1C426.45 343.974 426.99 343.689 427.425 343.276C427.86 342.863 428.173 342.339 428.33 341.76C428.487 341.182 428.482 340.571 428.316 339.995C428.29 339.911 425.773 331.345 423.735 321.577C421.698 311.808 421.087 305.651 421.077 301.734C423.79 304.307 425.581 306.72 425.969 308.41C426.134 309.132 426.538 309.776 427.116 310.238C427.694 310.7 428.411 310.952 429.151 310.954C429.303 310.953 429.455 310.943 429.605 310.925C430.416 310.812 431.155 310.399 431.676 309.768C432.197 309.137 432.463 308.333 432.42 307.516C432.42 307.28 431.331 285.62 431.712 272.228C434.694 275.07 438.058 276.832 441.578 277.37C441.884 277.416 442.194 277.439 442.504 277.439C443.264 277.443 444.016 277.29 444.715 276.99C445.413 276.691 446.043 276.251 446.565 275.698C449.961 272.202 449.91 264.378 449.551 251.902C449.354 245.142 449.111 236.729 450.393 234.272C450.781 233.523 451.209 232.795 451.676 232.091V232.124C452.071 236.046 453.089 241.359 454.265 247.515C454.868 250.666 455.493 253.926 456.103 257.356C456.205 257.928 456.456 258.462 456.831 258.903C457.207 259.345 457.693 259.679 458.24 259.871C458.787 260.063 459.376 260.106 459.945 259.996C460.514 259.885 461.044 259.625 461.479 259.243C461.534 259.192 461.628 259.112 461.737 258.999C462.895 257.808 463.901 256.477 464.73 255.038L464.767 254.972V254.94C467.803 249.852 471.461 240.359 471.791 223.973C472.909 224.669 473.974 225.446 474.977 226.299C487.861 236.969 498.925 242.627 507.872 243.114H508.05C508.637 243.114 509.213 242.957 509.718 242.657C510.223 242.358 510.638 241.928 510.92 241.413C511.201 240.897 511.339 240.316 511.319 239.729C511.298 239.142 511.12 238.571 510.803 238.077C510.778 238.041 508.347 234.236 505.928 229.958C504.595 227.6 503.64 225.764 502.957 224.347C504.236 225.219 505.609 226.204 506.796 227.054C510.429 229.671 514.581 232.637 518.783 234.93C519.92 235.551 521.093 236.18 522.23 236.787C531.064 241.511 540.203 246.407 544.573 253.817C544.862 254.307 545.273 254.713 545.767 254.996C546.261 255.278 546.819 255.427 547.388 255.427H547.53C548.122 255.401 548.696 255.216 549.19 254.889C549.685 254.563 550.081 254.108 550.337 253.573L550.577 253.068C551.794 250.47 557.533 237.03 554.573 220.582C560.167 223.867 567.86 228.592 574.616 233.316C586.389 241.562 587.9 244.72 588.081 245.269C588.298 245.92 588.713 246.487 589.269 246.889C589.825 247.29 590.494 247.507 591.18 247.508C591.316 247.508 591.452 247.5 591.586 247.482C592.336 247.389 593.029 247.039 593.55 246.491C594.07 245.944 594.385 245.234 594.442 244.48L594.652 241.682C598.216 251.153 600.631 258.036 601.456 261.118C602.691 265.715 605.484 266.402 607.042 266.402C608.016 266.384 608.973 266.135 609.832 265.675C609.432 267.583 608.935 269.873 608.324 272.613C604.99 287.557 611.437 303.965 611.713 304.656C611.897 305.115 612.181 305.526 612.546 305.859C612.911 306.192 613.347 306.438 613.82 306.578C614.122 306.666 614.435 306.711 614.75 306.713C615.425 306.712 616.084 306.503 616.635 306.113C616.998 305.859 625.059 300.026 627.688 286.71C628.248 288.2 628.807 289.89 629.269 291.547C629.461 292.234 629.873 292.84 630.442 293.271C631.01 293.702 631.704 293.935 632.418 293.935H632.44C633.156 293.93 633.852 293.69 634.419 293.252C634.986 292.813 635.393 292.2 635.578 291.507C635.81 290.628 641.226 270.036 638.56 256.706C639.955 257.818 641.324 258.763 642.792 259.105C643.219 259.208 643.656 259.26 644.096 259.261C644.806 259.267 645.509 259.115 646.153 258.815C646.797 258.515 647.366 258.075 647.819 257.527C650.06 254.842 649.664 249.757 648.146 241.311C647.26 236.373 645.015 230.721 643.257 226.793C646.976 226.632 650.643 225.857 654.11 224.5L661.415 221.545C662.102 221.268 662.675 220.766 663.04 220.12C663.404 219.475 663.539 218.725 663.422 217.993C663.304 217.261 662.942 216.59 662.394 216.092C661.846 215.593 661.144 215.295 660.405 215.247C659.544 215.145 651.687 213.902 642.737 202.48C639.795 198.722 636.926 195.408 634.619 192.748C633.126 191.021 631.746 189.43 630.703 188.125C638.331 188.754 646.064 189.495 646.148 189.502C646.252 189.508 646.356 189.508 646.46 189.502C646.968 189.502 647.469 189.384 647.924 189.157C648.378 188.93 648.773 188.6 649.078 188.193C649.382 187.786 649.588 187.314 649.678 186.814C649.769 186.314 649.742 185.8 649.599 185.312C649.53 185.087 647.906 179.697 642.083 174.239C638.562 171 634.48 168.43 630.039 166.654C624.999 164.64 619.7 163.347 614.3 162.813C615.048 160.919 616.345 157.903 618.589 153.153C625.527 138.503 621.917 131.319 621.495 130.548C621.256 130.123 620.926 129.757 620.527 129.477C620.129 129.197 619.673 129.009 619.192 128.927C619.012 128.898 618.83 128.884 618.648 128.884C617.846 128.879 617.07 129.168 616.468 129.698C616.199 129.937 615.971 130.218 615.793 130.53L615.771 130.563L615.702 130.679L615.68 130.715C615.671 130.726 615.663 130.738 615.658 130.752L615.346 131.213C615.251 131.34 615.15 131.486 615.037 131.642L615.008 131.678L614.943 131.762L614.855 131.875C614.844 131.886 614.834 131.9 614.826 131.915L614.514 132.307L614.492 132.333C614.387 132.467 614.271 132.605 614.151 132.747L614.096 132.812L614.038 132.878C613.947 132.983 613.853 133.092 613.751 133.201L613.697 133.267L613.588 133.387L613.53 133.445C613.319 133.681 613.072 133.939 612.778 134.237L612.502 134.513L612.443 134.568L612.404 134.608L612.2 134.804L612.135 134.862C612.037 134.956 611.931 135.058 611.826 135.153L611.779 135.196L611.695 135.273L611.499 135.451L611.415 135.523L611.147 135.76C611.085 135.814 611.023 135.869 610.958 135.92L610.925 135.949C610.482 136.33 610.017 136.705 609.545 137.061L609.494 137.097C609.454 137.133 609.41 137.162 609.367 137.195L609.341 137.213C608.913 137.537 608.513 137.82 608.125 138.086L608.074 138.118L607.678 138.387L607.623 138.424L607.318 138.62L607.286 138.642C607.206 138.692 607.118 138.751 607.031 138.801L606.977 138.834L606.661 139.03C605.982 139.448 605.28 139.848 604.569 140.219L604.154 140.437H604.133L603.588 140.709H603.555L603.032 140.96C602.669 141.127 602.306 141.298 601.913 141.465L601.343 141.734H601.307C601.147 141.803 600.976 141.869 600.809 141.934L600.758 141.956C600.482 142.069 600.184 142.185 599.85 142.319H599.825L599.062 142.592L599.004 142.614L598.582 142.755L598.51 142.781C598.379 142.828 598.245 142.872 598.114 142.912L598.056 142.93L597.729 143.032H597.692C597.264 143.163 596.803 143.301 596.279 143.446H596.229L596.051 143.497L595.985 143.515C595.517 143.642 595.052 143.759 594.609 143.86H594.558L594.311 143.922L594.231 143.94L594.031 143.984L593.897 144.013L593.283 144.147C592.999 144.206 592.698 144.267 592.396 144.322H592.367C592.099 144.373 591.826 144.424 591.554 144.467H591.536L591.427 144.485L591.205 144.522L590.776 144.591L590.588 144.62L590.362 144.656C590.134 144.693 589.879 144.729 589.581 144.765L589.382 144.791H589.262H589.215L588.681 144.856L588.535 144.874C588.466 144.874 588.394 144.874 588.325 144.896H588.237L587.616 144.958H587.573C587.358 144.98 587.14 145.001 586.923 145.016H586.828L586.519 145.041H586.443L586.214 145.06H586.171C585.964 145.06 585.753 145.092 585.539 145.103H585.477C585.292 145.103 585.114 145.129 584.917 145.136H584.878L583.9 145.183C583.138 145.209 582.349 145.223 581.561 145.223C580.511 145.223 579.436 145.198 578.343 145.15C578.532 140.088 579.836 129.705 587.133 125.936L587.206 125.896C587.482 125.755 587.765 125.624 588.045 125.508C588.704 125.236 589.256 124.757 589.618 124.143C589.98 123.529 590.131 122.813 590.049 122.105C589.966 121.397 589.655 120.735 589.162 120.22C588.669 119.706 588.022 119.366 587.318 119.253C577.843 117.894 568.283 117.211 558.71 117.211C547.726 117.211 538.038 118.196 529.909 120.136C522.87 121.819 517.196 123.367 512.641 124.61C506.731 126.223 502.441 127.394 500.291 127.423C500.727 126.307 502.212 123.549 507.243 117.956C510.821 113.98 514.417 110.553 514.759 110.229C515.24 109.785 515.578 109.207 515.727 108.569C515.876 107.931 515.831 107.262 515.596 106.65C515.361 106.039 514.948 105.512 514.41 105.138C513.872 104.764 513.234 104.56 512.579 104.553H512.539L512.536 104.665Z" fill="#17091D"/>
<path d="M403.32 181.155C403.994 180.673 404.931 180.828 405.413 181.502C405.895 182.176 405.739 183.113 405.066 183.595C405.065 183.595 405.062 183.597 405.059 183.6C405.053 183.604 405.043 183.611 405.03 183.621C405.002 183.641 404.959 183.673 404.902 183.716C404.788 183.801 404.616 183.931 404.395 184.104C403.952 184.452 403.311 184.972 402.534 185.652C400.978 187.014 398.882 189.01 396.736 191.539C392.424 196.619 388.007 203.731 387.179 212.091C387.098 212.915 386.363 213.517 385.539 213.435C384.714 213.354 384.111 212.619 384.193 211.795C385.105 202.58 389.942 194.907 394.449 189.598C396.711 186.932 398.916 184.831 400.558 183.394C401.38 182.676 402.063 182.121 402.544 181.744C402.784 181.556 402.974 181.411 403.106 181.312C403.172 181.263 403.223 181.225 403.259 181.199C403.277 181.186 403.292 181.175 403.302 181.168L403.318 181.156L403.319 181.155C403.319 181.155 403.32 181.155 404.193 182.375L403.32 181.155Z" fill="#17091D"/>
<path d="M395.659 242.528C395.986 241.842 396.787 241.502 397.518 241.764C398.298 242.044 398.704 242.902 398.424 243.682L398.423 243.684C398.423 243.686 398.422 243.689 398.42 243.694C398.417 243.703 398.412 243.716 398.406 243.735C398.393 243.772 398.372 243.829 398.346 243.905C398.294 244.056 398.217 244.281 398.121 244.575C397.927 245.162 397.653 246.021 397.335 247.096C396.698 249.248 395.888 252.26 395.194 255.698C393.795 262.632 392.92 271.066 394.708 277.672C394.924 278.472 394.451 279.296 393.652 279.512C392.852 279.729 392.029 279.256 391.812 278.457C389.833 271.144 390.835 262.134 392.253 255.104C392.969 251.56 393.802 248.459 394.458 246.245C394.785 245.136 395.069 244.248 395.272 243.634C395.373 243.328 395.454 243.089 395.51 242.926C395.538 242.845 395.561 242.782 395.576 242.739C395.583 242.717 395.589 242.7 395.593 242.689C395.595 242.684 395.597 242.679 395.598 242.676C395.599 242.675 395.599 242.673 395.599 242.672L395.6 242.67L395.659 242.528Z" fill="#17091D"/>
<path d="M442.237 182.8C442.601 182.675 442.913 182.719 443.022 182.738C443.167 182.761 443.288 182.8 443.366 182.828C443.525 182.885 443.678 182.96 443.804 183.027C444.065 183.164 444.382 183.357 444.73 183.582C445.434 184.039 446.374 184.702 447.468 185.515C449.659 187.144 452.522 189.417 455.438 191.95C458.352 194.481 461.343 197.291 463.778 199.991C466.167 202.641 468.183 205.358 468.924 207.688C469.175 208.477 468.739 209.32 467.949 209.571C467.16 209.822 466.316 209.386 466.065 208.597C465.537 206.933 463.92 204.628 461.551 202C459.227 199.423 456.334 196.701 453.472 194.215C450.612 191.732 447.808 189.505 445.678 187.922C444.61 187.129 443.726 186.507 443.097 186.099C442.779 185.893 442.553 185.757 442.411 185.683C441.915 185.576 441.485 185.221 441.308 184.706C441.038 183.923 441.454 183.07 442.237 182.8ZM442.958 185.698C442.981 185.695 443.005 185.69 443.029 185.685C443.005 185.69 442.982 185.695 442.958 185.698ZM443.078 185.675C443.122 185.665 443.167 185.653 443.214 185.637C443.169 185.652 443.123 185.664 443.078 185.675Z" fill="#17091D"/>
<path d="M570.927 179.387L570.769 180.879C570.918 179.472 570.927 179.392 570.928 179.387H570.935C570.94 179.388 570.946 179.389 570.955 179.39C570.972 179.392 570.996 179.395 571.028 179.398C571.091 179.405 571.184 179.416 571.304 179.43C571.545 179.459 571.895 179.502 572.34 179.561C573.232 179.68 574.508 179.865 576.051 180.127C579.135 180.65 583.305 181.485 587.63 182.733C591.943 183.978 596.474 185.651 600.246 187.873C603.99 190.078 607.189 192.943 608.507 196.659C608.783 197.44 608.375 198.297 607.594 198.574C606.814 198.851 605.956 198.442 605.679 197.661C604.707 194.917 602.219 192.516 598.723 190.458C595.256 188.415 590.992 186.826 586.798 185.616C582.614 184.409 578.561 183.596 575.549 183.085C574.045 182.829 572.805 182.65 571.943 182.535C571.512 182.477 571.177 182.436 570.95 182.409C570.836 182.395 570.75 182.386 570.693 182.38C570.665 182.376 570.643 182.374 570.63 182.373C570.623 182.372 570.618 182.371 570.615 182.371C570.614 182.371 570.613 182.37 570.612 182.37C569.788 182.283 569.191 181.544 569.278 180.72C569.365 179.897 570.104 179.3 570.927 179.387Z" fill="#17091D"/>
<path d="M547.738 154.674C554.996 154.667 563.988 155.432 569.863 158.805C570.582 159.217 570.83 160.134 570.418 160.853C570.006 161.571 569.089 161.819 568.37 161.406C563.251 158.467 554.989 157.667 547.741 157.674C544.167 157.677 540.928 157.875 538.581 158.072C537.409 158.171 536.461 158.269 535.809 158.343C535.483 158.379 535.231 158.41 535.062 158.431C534.977 158.441 534.913 158.45 534.871 158.455C534.85 158.458 534.834 158.46 534.824 158.461C534.82 158.462 534.816 158.463 534.814 158.463C534.812 158.463 534.811 158.463 534.811 158.463C533.99 158.574 533.234 157.999 533.123 157.178C533.012 156.357 533.587 155.601 534.408 155.49L534.609 156.977C534.418 155.565 534.409 155.494 534.409 155.49H534.41C534.411 155.49 534.412 155.49 534.414 155.489C534.418 155.489 534.423 155.488 534.429 155.487C534.441 155.486 534.46 155.484 534.483 155.481C534.531 155.474 534.6 155.465 534.69 155.454C534.871 155.432 535.135 155.399 535.474 155.361C536.15 155.285 537.126 155.184 538.329 155.083C540.734 154.881 544.06 154.677 547.738 154.674Z" fill="#17091D"/>
<path d="M660.017 218.507C623.958 215.429 625.993 187.496 626.025 187.082C627.511 190.142 633.555 196.069 640.155 204.526C649.814 216.853 658.687 218.347 660.017 218.507Z" fill="#D969BD"/>
<path d="M618.626 132.166C603.221 166.248 575.096 148.327 575.096 148.327C607.58 151.071 618.321 132.704 618.626 132.166Z" fill="#D969BD"/>
<path d="M586.814 122.597C586.411 122.76 586.022 122.96 585.648 123.138C573.102 126.794 548.028 134.146 539.063 137.05C526.902 141.008 513.804 151.598 507.265 143.312C500.727 135.026 479.659 144.904 484.382 137.573C488.773 130.756 498.511 130.766 499.848 130.803H500.001C504.287 130.905 513.371 127.565 530.672 123.429C555.176 117.578 586.814 122.597 586.814 122.597Z" fill="#D969BD"/>
<path d="M414.233 149.849C402.144 147.305 381.505 150.87 373.729 152.393C372.784 152.11 372.214 151.946 372.214 151.946C388.465 140.938 413.746 149.682 414.233 149.849Z" fill="#D969BD"/>
<path d="M643.533 255.931C639.955 255.095 632.581 244.338 635.287 257.021C637.993 269.705 632.418 290.656 632.418 290.656C632.418 290.656 626.769 270.45 624.819 284.078C622.868 297.706 614.75 303.455 614.75 303.455C625.618 286.4 637.997 223.412 637.997 223.412C638.164 223.732 643.486 233.951 644.899 241.903C646.384 249.982 647.111 256.767 643.533 255.931Z" fill="#9C398C"/>
<path d="M550.853 218.205C551.682 220.998 552.217 223.87 552.451 226.775C552.713 229.684 552.738 232.609 552.524 235.522C552.315 238.448 551.812 241.346 551.024 244.171C550.616 245.582 550.118 246.965 549.531 248.311C548.937 249.648 548.224 250.93 547.402 252.141C547.802 250.735 548.201 249.361 548.517 247.969C548.833 246.577 549.117 245.189 549.353 243.79C549.821 240.995 550.134 238.182 550.352 235.359C550.57 232.535 550.682 229.689 550.744 226.833C550.806 223.976 550.828 221.116 550.853 218.205Z" fill="#D969BD"/>
<path d="M468.609 221.27C468.847 224.394 468.847 227.532 468.609 230.657C468.387 233.783 467.972 236.892 467.367 239.968C466.778 243.072 465.896 246.115 464.733 249.053C464.143 250.535 463.413 251.957 462.554 253.301C461.675 254.624 460.647 255.907 459.321 256.776C460.271 255.566 461.042 254.226 461.61 252.796C462.194 251.391 462.694 249.952 463.106 248.486C463.96 245.557 464.61 242.559 465.22 239.55C465.83 236.54 466.361 233.499 466.902 230.464C467.443 227.43 467.974 224.344 468.609 221.27Z" fill="#D969BD"/>
<path d="M509.256 169.562C509.256 169.562 532.027 165.546 550.102 181.871C568.176 198.196 575.165 199.544 575.165 199.544C575.165 199.544 552.009 200.1 542.445 188.594C532.881 177.088 509.256 169.562 509.256 169.562Z" fill="#D969BD"/>
<path d="M361.607 211.457C361.607 211.457 361.371 233.847 345.146 250.706C345.204 239.804 361.353 211.879 361.604 211.457H361.607Z" fill="#9C398C"/>
<path d="M354.259 290.249C344.452 270.195 360.659 243.731 360.87 243.4C360.87 243.4 353.849 269.854 354.259 290.249Z" fill="#9C398C"/>
<path d="M418.549 295.378C418.549 295.378 419.068 295.741 419.879 296.388L409.81 284.624C407.405 281.818 402.411 282.491 401.074 285.798L400.191 287.978C398.342 292.557 391.837 294.08 387.627 290.911C384.903 288.85 380.725 289.923 379.636 292.804C379.491 293.181 379.274 293.526 378.996 293.818C377.355 295.534 374.234 295.134 373.221 293.092L365.593 277.643C365.593 277.643 367.631 308.17 363.265 316.5C363.265 316.5 373.635 314.813 374.983 308.817C374.983 308.817 375.048 309.544 375.211 310.812C375.353 311.902 375.575 313.421 375.894 315.217L375.916 315.333C375.916 315.438 375.956 315.544 375.974 315.649C375.992 315.754 376.014 315.874 376.036 315.991L376.058 316.1C377.932 326.145 382.727 343.854 393.973 351.352C393.973 351.352 392.574 307.141 394.623 301.636C394.675 301.476 394.762 301.33 394.877 301.207L394.677 301.705C394.95 300.978 395.356 301.014 395.901 301.643L396.087 301.872L396.127 301.93C397.877 304.296 400.87 311.771 405.189 319.629C405.661 320.483 406.148 321.344 406.642 322.202C406.65 322.21 406.656 322.22 406.66 322.231C406.915 322.663 407.173 323.096 407.434 323.524C407.696 323.953 407.964 324.389 408.233 324.818C408.408 325.098 408.596 325.374 408.764 325.65C409.043 326.087 409.33 326.515 409.617 326.941C409.802 327.217 409.98 327.486 410.176 327.758C411.045 329.005 411.949 330.219 412.893 331.392C413.097 331.647 413.304 331.894 413.511 332.119C413.838 332.508 414.168 332.886 414.506 333.257C414.721 333.493 414.938 333.726 415.16 333.958C416.346 335.228 417.63 336.403 418.999 337.472C419.243 337.658 419.486 337.836 419.726 338.018C419.966 338.199 420.329 338.443 420.634 338.643C420.939 338.843 421.281 339.061 421.611 339.253C422.122 339.556 422.642 339.835 423.169 340.089C423.431 340.216 423.696 340.336 423.965 340.453C424.364 340.623 424.768 340.78 425.178 340.925C425.174 340.925 415.004 306.422 418.549 295.378Z" fill="#9C398C"/>
</svg>
