<svg width="1000" height="1000" viewBox="0 0 1000 1000" fill="none" xmlns="http://www.w3.org/2000/svg">
<path d="M397.27 402.71C389.715 402.71 384.833 401.678 382.341 399.552C357.623 378.474 339.792 327.777 339.043 325.629C338.982 325.451 338.95 325.265 338.949 325.077C338.948 324.674 339.096 324.286 339.365 323.986C339.633 323.686 340.002 323.496 340.402 323.452L348.208 322.573C339.334 314.119 332.066 301.076 326.574 283.73C323.857 275.161 321.831 266.388 320.515 257.495C320.486 257.265 320.506 257.031 320.575 256.809C320.643 256.588 320.757 256.383 320.91 256.209C321.063 256.035 321.252 255.895 321.463 255.799C321.674 255.703 321.903 255.653 322.135 255.652C322.322 255.653 322.507 255.685 322.683 255.747L330.155 258.393C324.608 246.683 318.688 224.231 318.263 214.506C318.263 214.142 318.263 213.75 318.263 213.354V213.067C318.284 212.405 318.346 211.668 318.448 210.828L318.502 210.406C318.502 210.33 318.502 210.254 318.535 210.174C318.557 209.999 318.582 209.832 318.611 209.654C318.64 209.476 318.655 209.378 318.677 209.24C318.699 209.102 318.724 208.949 318.749 208.797C318.749 208.778 318.771 208.669 318.778 208.64C318.804 208.491 318.829 208.342 318.858 208.193L318.996 207.466C319.156 206.681 319.327 205.904 319.509 205.151C319.549 204.97 319.596 204.788 319.643 204.577C320.006 203.036 320.493 201.306 321.041 199.489C321.114 199.242 321.19 198.988 321.27 198.733C321.394 198.326 321.521 197.905 321.655 197.483C321.873 196.789 322.102 196.084 322.335 195.383C322.465 194.983 322.6 194.58 322.738 194.18C323.072 193.191 323.442 192.126 323.867 190.909L324.434 189.332L324.732 188.529C325.19 187.278 325.698 185.934 326.276 184.429L326.305 184.353L326.486 183.891C326.555 183.706 326.628 183.528 326.697 183.35L327.18 182.129L327.282 181.878C327.315 181.787 327.351 181.696 327.387 181.605L327.482 181.366L327.845 180.457C328.419 179.043 328.975 177.691 329.454 176.554C329.672 176.031 329.868 175.576 330.028 175.198L330.046 175.158L330.166 174.871C330.246 174.693 330.311 174.537 330.369 174.41L325.498 150.384C325.428 150.039 325.471 149.68 325.622 149.362C325.772 149.043 326.022 148.782 326.334 148.618C326.645 148.451 327.001 148.39 327.35 148.444C327.698 148.498 328.02 148.663 328.266 148.916L338.655 159.542C338.626 159.419 338.6 159.291 338.578 159.179C338.331 157.972 338.124 156.657 337.961 155.279C337.961 155.196 337.892 154.701 337.888 154.683L337.834 154.138C337.812 153.942 337.794 153.727 337.776 153.513C337.736 153.106 337.703 152.666 337.667 152.223C337.649 151.972 337.63 151.718 337.616 151.456C337.594 151.111 337.572 150.751 337.554 150.366V150.3C337.554 150.231 337.554 150.166 337.554 150.097L337.532 149.621V149.345C337.532 149.076 337.511 148.81 337.503 148.538C337.503 148.36 337.503 148.153 337.503 147.945C337.503 147.629 337.503 147.299 337.485 146.961V146.234C337.485 144.598 337.485 142.901 337.547 141.179C337.547 140.572 337.587 139.95 337.623 139.311C337.659 138.671 337.689 137.89 337.732 137.13C338.379 125.98 346.984 113.275 363.311 99.3597C370.902 92.9512 378.962 87.1202 387.423 81.9156C387.676 81.7654 387.964 81.6864 388.258 81.6866C388.647 81.6876 389.022 81.8267 389.317 82.079C389.613 82.3313 389.809 82.6804 389.871 83.064L390.256 85.4662C390.256 85.4662 390.278 85.5752 390.278 85.5934C394.331 73.3098 402.813 61.971 415.566 51.7953C422.809 46.029 430.72 41.1579 439.129 37.2875L439.333 37.2003C439.525 37.1244 439.729 37.085 439.936 37.084C440.238 37.0831 440.534 37.166 440.792 37.3234C441.05 37.4809 441.259 37.7067 441.396 37.9758C441.534 38.245 441.594 38.5469 441.57 38.8482C441.546 39.1495 441.439 39.4382 441.261 39.6825C441.211 39.7479 441.163 39.8206 441.113 39.8932C438.621 43.651 436.267 55.1569 435.795 60.6918C440.985 53.8486 452.162 43.0586 452.642 42.5971C452.953 42.3634 453.337 42.2486 453.726 42.2733C454.114 42.2979 454.481 42.4605 454.761 42.7316C455.04 43.0028 455.213 43.3648 455.25 43.7525C455.286 44.1402 455.183 44.5282 454.959 44.8467C454.559 45.2937 454.062 47.427 454.806 52.344C462.623 44.3233 475.703 37.7563 493.753 32.7993C502.813 30.3226 512.038 28.4936 521.358 27.3262H521.536C521.848 27.3263 522.153 27.4157 522.416 27.5838C522.679 27.7518 522.888 27.9915 523.019 28.2746C523.15 28.5577 523.197 28.8723 523.155 29.1814C523.113 29.4905 522.984 29.7812 522.782 30.0191L511.337 43.5456C518.369 40.402 526.229 38.8212 534.787 38.8212C558.652 38.8212 584.245 51.2828 601.51 61.7385C612.743 68.5301 623.442 76.1683 633.515 84.5867C633.748 84.7898 633.919 85.0549 634.008 85.3513C634.096 85.6476 634.099 85.9631 634.016 86.2611C633.933 86.5591 633.767 86.8273 633.537 87.0346C633.307 87.2419 633.024 87.3798 632.719 87.4323L608.164 91.6625C608.56 91.7643 608.942 91.866 609.319 91.9714C609.57 92.0368 609.817 92.1059 610.068 92.1785C611.237 92.502 612.432 92.8545 613.602 93.2252C614.038 93.3633 614.463 93.4978 614.884 93.6395C615.189 93.7376 615.494 93.843 615.803 93.9484L616.624 94.2282L616.907 94.33C617.194 94.4318 617.452 94.519 617.703 94.6135C618.019 94.7298 618.317 94.8352 618.611 94.9478C619.37 95.2276 620.18 95.5438 620.997 95.8745C621.815 96.2052 622.563 96.5178 623.326 96.8485C624.089 97.1792 624.851 97.5245 625.592 97.8697C627.045 98.5566 628.498 99.287 629.922 100.05C630.609 100.414 631.306 100.803 631.989 101.195C632.614 101.558 633.268 101.94 633.987 102.376L634.041 102.412C634.426 102.645 634.811 102.885 635.185 103.139L635.287 103.201L636.377 103.899L636.479 103.968C636.842 104.215 637.227 104.469 637.594 104.72C637.961 104.971 638.378 105.265 638.752 105.531C639.555 106.101 640.394 106.726 641.244 107.38C641.466 107.555 641.68 107.722 641.894 107.896C642.207 108.136 642.508 108.38 642.813 108.623C643.119 108.867 643.336 109.056 643.602 109.277L643.772 109.416L643.83 109.466L644.757 110.266C644.975 110.455 645.182 110.629 645.385 110.822C645.589 111.015 645.785 111.185 645.984 111.367C646.184 111.549 646.482 111.818 646.74 112.061C647.354 112.635 647.997 113.257 648.632 113.9C648.941 114.205 649.246 114.522 649.551 114.838L649.624 114.914C649.904 115.212 650.187 115.507 650.463 115.805C650.805 116.168 651.142 116.531 651.473 116.913C651.803 117.295 652.076 117.6 652.366 117.938C652.657 118.276 652.955 118.625 653.242 118.97C653.529 119.315 653.761 119.602 654.016 119.922L654.11 120.035C654.382 120.376 654.651 120.722 654.92 121.07C655.189 121.419 655.447 121.757 655.708 122.106L655.788 122.215L656.482 123.164L656.547 123.255C656.783 123.578 657.012 123.909 657.241 124.236L657.332 124.37C657.546 124.679 657.757 124.992 657.964 125.301C658.396 125.94 658.854 126.642 659.308 127.372C659.435 127.572 659.559 127.779 659.671 127.983L659.697 128.026C660.034 128.568 660.387 129.16 660.786 129.876C660.99 130.24 661.19 130.581 661.389 130.937C661.589 131.293 661.753 131.613 661.949 131.962C662.181 132.384 662.417 132.831 662.646 133.278C662.828 133.641 663.009 133.983 663.18 134.335C663.322 134.608 663.46 134.891 663.594 135.178C663.696 135.375 663.79 135.578 663.888 135.782L663.921 135.851C664.364 136.785 664.753 137.635 665.105 138.46C665.211 138.689 665.316 138.947 665.425 139.187L665.476 139.314C665.705 139.841 665.944 140.404 666.202 141.07C666.315 141.349 666.435 141.644 666.565 141.942C667.51 144.366 668.382 146.917 669.137 149.504C669.206 149.733 669.275 149.981 669.348 150.231V150.279C669.475 150.711 669.598 151.158 669.711 151.601C669.758 151.779 669.813 151.965 669.864 152.165C670.194 153.4 670.514 154.687 670.804 155.977V156.05C670.862 156.319 670.924 156.584 670.982 156.849C671.117 157.463 671.251 158.085 671.371 158.703C671.451 159.066 671.527 159.469 671.6 159.858C671.767 160.712 671.923 161.588 672.061 162.435C672.108 162.697 672.156 162.984 672.199 163.274C672.243 163.565 672.308 163.936 672.359 164.274V164.379C672.646 166.262 672.893 168.184 673.085 170.092L673.184 171.07C673.184 171.27 673.22 171.462 673.238 171.651C673.274 172.051 673.311 172.469 673.347 172.887C673.608 176.012 673.765 179.269 673.808 182.558C673.808 182.827 673.808 183.095 673.808 183.361C673.935 198.708 671.629 209.596 671.52 210.05C671.446 210.391 671.265 210.7 671.004 210.93C670.743 211.161 670.414 211.302 670.067 211.333H669.929C669.603 211.333 669.284 211.235 669.013 211.053C668.743 210.87 668.533 210.611 668.411 210.308C656.932 181.747 639.352 167.265 616.156 167.265C609.334 167.265 602.189 168.544 594.917 171.07C594.584 171.188 594.301 171.417 594.116 171.719C593.931 172.021 593.855 172.377 593.9 172.728C593.946 173.079 594.11 173.404 594.366 173.648C594.621 173.893 594.953 174.042 595.306 174.072C607.928 175.104 625.578 179.429 637.993 194.172C647.412 205.355 652.123 219.419 651.622 234.843C651.23 246.974 647.605 259.588 641.68 269.459C637.746 276 636.42 282.945 637.735 290.079C638.28 293.207 639.368 296.216 640.95 298.968C641.107 299.216 641.195 299.501 641.205 299.794C641.215 300.087 641.146 300.377 641.005 300.634C640.864 300.892 640.657 301.106 640.406 301.256C640.154 301.406 639.866 301.486 639.573 301.487C639.411 301.488 639.249 301.463 639.094 301.414C626.054 297.417 617.699 284.889 614.939 265.163C612.309 246.374 595.927 232.201 576.835 232.201C569.586 232.217 562.492 234.301 556.385 238.208C554.062 239.676 551.821 241.27 549.673 242.983C549.019 243.507 548.663 243.816 548.659 243.819C548.358 244.083 547.97 244.227 547.57 244.223C547.212 244.224 546.864 244.107 546.581 243.888C540.891 239.562 534.864 235.698 528.558 232.332C500.999 217.569 476.535 217.144 473.847 217.144H473.415C473.112 217.142 472.816 217.056 472.559 216.895C472.302 216.734 472.096 216.504 471.962 216.232C460.041 192.123 438.018 183.481 425.951 180.479C425.874 180.457 425.795 180.446 425.715 180.446C425.557 180.456 425.406 180.512 425.281 180.608C425.155 180.704 425.061 180.834 425.01 180.984C424.947 181.136 424.935 181.305 424.977 181.465C425.019 181.624 425.113 181.766 425.243 181.867C436.165 191.45 451.984 209.531 458.297 216.861C459.461 218.221 460.104 219.95 460.11 221.74C460.117 223.531 459.487 225.265 458.333 226.633C455.656 229.744 451.232 233.451 445.377 233.451C442.035 233.451 438.635 232.23 435.272 229.817C425.446 222.781 409.322 218.187 399.769 215.901C408.272 222.225 423.379 232.124 429.652 236.213C431.021 237.097 431.992 238.479 432.361 240.066C432.731 241.654 432.469 243.323 431.632 244.721L423.615 258.167C422.775 259.579 421.417 260.606 419.831 261.031C418.245 261.456 416.556 261.245 415.123 260.442L404.713 254.609L414.589 265.061C417.585 268.251 419.192 272.501 419.057 276.876C419.055 276.899 419.055 276.922 419.057 276.945L416.343 312.618C416.312 313.03 416.127 313.414 415.825 313.695C415.522 313.975 415.125 314.131 414.713 314.13H414.622C414.195 314.107 413.794 313.917 413.505 313.601C413.216 313.285 413.063 312.868 413.078 312.44C413.125 311.121 412.816 303.827 402.126 289.908C398.494 285.184 394.324 282.673 390.071 282.673C386.195 282.673 382.443 284.802 379.479 288.669C376.297 292.841 374.284 298.776 373.816 305.386C373.401 310.856 373.469 316.352 374.019 321.809C374.019 321.809 374.019 321.846 374.019 321.868C374.045 322.107 374.063 322.351 374.085 322.594C374.122 323.233 374.207 323.869 374.339 324.495C374.786 326.312 375.24 328.046 375.69 329.634C375.69 329.656 375.69 329.677 375.708 329.699C382.054 352.173 391.567 364.053 403.213 364.053C410.84 364.053 416.816 358.965 416.877 358.915C417.076 358.737 417.316 358.611 417.575 358.547C417.834 358.484 418.105 358.485 418.363 358.551C418.62 358.62 418.857 358.75 419.052 358.93C419.248 359.111 419.396 359.336 419.485 359.587L432.562 396.656C432.64 396.877 432.671 397.112 432.65 397.346C432.63 397.579 432.559 397.805 432.443 398.009C432.327 398.213 432.169 398.39 431.979 398.527C431.789 398.664 431.571 398.758 431.341 398.804C430.51 398.982 411.64 402.71 397.27 402.71Z" fill="#CE44A2"/>
<path d="M521.525 28.9505L505.979 47.3214L504.333 49.2657L504.239 49.3783C504.758 49.0149 505.285 48.6733 505.812 48.3426C514.678 42.7314 524.562 40.4382 534.776 40.4382C580.242 40.4382 632.432 85.804 632.432 85.804L606.522 90.2668L599.719 91.4406C600.623 91.6114 601.535 91.804 602.403 91.9748H602.432L603.569 92.222L604.376 92.4037L605.207 92.5963C605.571 92.6835 605.963 92.7744 606.337 92.8689C607.199 93.0796 608.047 93.2989 608.88 93.5266L609.606 93.7265C610.793 94.056 611.96 94.4013 613.108 94.7623L614.365 95.1693L615.295 95.4818L616.039 95.7362L616.402 95.8598L617.129 96.1251L618.03 96.4558C618.826 96.749 619.611 97.053 620.383 97.368C621.156 97.683 621.919 98.0028 622.672 98.3274C623.423 98.6545 624.164 98.9889 624.895 99.3305C626.348 100.014 627.764 100.725 629.145 101.464C629.832 101.83 630.508 102.204 631.172 102.587C631.835 102.97 632.49 103.357 633.137 103.75C633.529 103.99 633.921 104.233 634.306 104.477L634.393 104.531L635.483 105.225L635.57 105.283L636.66 106.01C637.023 106.272 637.416 106.533 637.786 106.799C638.621 107.391 639.435 107.998 640.227 108.616C640.441 108.783 640.656 108.95 640.866 109.121C641.168 109.354 641.462 109.59 641.756 109.848C642.05 110.106 642.294 110.288 642.555 110.509L642.693 110.622L643.674 111.465C643.878 111.643 644.077 111.828 644.273 111.996L644.862 112.53C645.109 112.752 645.352 112.977 645.588 113.21C646.225 113.803 646.846 114.409 647.452 115.027C647.771 115.346 648.087 115.673 648.4 115.997C648.712 116.32 648.966 116.593 649.242 116.891C649.58 117.254 649.911 117.618 650.238 117.981C650.565 118.345 650.819 118.643 651.106 118.977C651.393 119.311 651.68 119.649 651.96 119.987C652.239 120.325 652.519 120.671 652.795 121.012V121.034C653.064 121.368 653.325 121.706 653.587 122.044C653.848 122.382 654.117 122.738 654.379 123.087C654.64 123.436 654.894 123.785 655.145 124.138L655.17 124.17C655.407 124.497 655.639 124.828 655.868 125.159L655.93 125.25C656.144 125.559 656.355 125.867 656.558 126.176C657.016 126.847 657.456 127.526 657.88 128.211C658.015 128.426 658.145 128.64 658.276 128.855C658.639 129.454 659.003 130.058 659.366 130.672C659.566 131.035 659.762 131.362 659.954 131.711C660.147 132.06 660.318 132.376 660.503 132.711C660.739 133.139 660.968 133.572 661.189 134.004L661.716 135.047C661.858 135.324 661.992 135.6 662.123 135.876C662.232 136.094 662.337 136.316 662.442 136.537C662.846 137.384 663.234 138.235 663.601 139.081C663.728 139.365 663.848 139.652 663.964 139.935C664.211 140.506 664.444 141.077 664.669 141.651C664.785 141.938 664.898 142.221 665.007 142.508C665.976 144.98 666.823 147.461 667.55 149.951C667.626 150.202 667.699 150.456 667.771 150.711C667.898 151.143 668.018 151.576 668.134 152.008C668.185 152.19 668.236 152.372 668.283 152.557C668.62 153.814 668.93 155.068 669.213 156.318C669.279 156.606 669.344 156.889 669.406 157.176C669.54 157.787 669.671 158.394 669.791 158.993C669.867 159.357 669.943 159.749 670.012 160.127C670.179 160.981 670.332 161.828 670.47 162.671C670.521 162.947 670.564 163.223 670.608 163.5C670.67 163.863 670.724 164.226 670.779 164.59C671.069 166.494 671.309 168.38 671.505 170.23L671.603 171.2C671.603 171.386 671.64 171.564 671.654 171.753C671.695 172.167 671.732 172.578 671.763 172.985C672.043 176.303 672.181 179.526 672.221 182.546C672.221 182.808 672.221 183.07 672.221 183.328C672.348 198.682 669.969 209.672 669.969 209.672C655.886 174.638 634.502 165.604 616.21 165.604C608.026 165.604 600.46 167.421 594.434 169.5C591.165 170.63 591.8 175.402 595.229 175.678C607.405 176.674 624.699 180.835 636.798 195.201C657.35 219.604 650.39 251.84 640.332 268.59C630.274 285.34 639.628 299.826 639.628 299.826C624.39 295.163 618.622 279.267 616.613 264.912C613.707 244.114 595.822 230.54 576.89 230.54C569.329 230.545 561.928 232.718 555.564 236.802C553.19 238.302 550.899 239.931 548.703 241.682C548.009 242.238 547.638 242.562 547.638 242.562C541.88 238.181 535.78 234.269 529.397 230.863C501.656 216.065 477.334 215.509 473.847 215.509H473.415C461.384 191.16 439.561 182.183 426.336 178.89C426.129 178.838 425.917 178.811 425.704 178.811C425.212 178.823 424.735 178.983 424.336 179.271C423.936 179.558 423.633 179.96 423.465 180.423C423.298 180.886 423.274 181.388 423.396 181.865C423.519 182.342 423.783 182.771 424.153 183.095C434.963 192.577 450.578 210.414 457.029 217.925C457.944 218.984 458.451 220.335 458.458 221.735C458.464 223.134 457.971 224.49 457.066 225.557C454.57 228.465 450.556 231.808 445.348 231.808C442.609 231.808 439.536 230.885 436.194 228.486C425.569 220.88 407.738 216.061 398.817 214.004C398.709 213.979 398.598 213.965 398.487 213.964C398.205 213.971 397.933 214.066 397.708 214.234C397.482 214.402 397.314 214.637 397.227 214.904C397.14 215.172 397.138 215.46 397.221 215.729C397.304 215.998 397.468 216.235 397.691 216.406C405.886 222.624 421.548 232.913 428.733 237.583C429.742 238.242 430.457 239.266 430.728 240.441C430.999 241.616 430.805 242.85 430.186 243.885L422.17 257.331C421.547 258.376 420.542 259.137 419.368 259.451C418.193 259.766 416.942 259.609 415.882 259.014L399.773 250.034C399.677 249.977 399.568 249.947 399.456 249.946C399.331 249.947 399.208 249.985 399.103 250.055C398.999 250.125 398.917 250.225 398.868 250.341C398.82 250.457 398.806 250.584 398.829 250.708C398.852 250.832 398.911 250.946 398.999 251.037L413.361 266.231C414.701 267.65 415.746 269.321 416.437 271.147C417.127 272.973 417.448 274.918 417.382 276.869L414.669 312.542C414.731 310.801 414.273 303.137 403.379 288.941C399.199 283.49 394.495 281.066 390.027 281.066C381.135 281.066 373.176 290.69 372.141 305.295C371.715 310.863 371.786 316.458 372.352 322.013C372.407 322.989 372.529 323.96 372.715 324.92C373.158 326.725 373.614 328.457 374.081 330.117C382.196 358.885 393.899 365.707 403.172 365.707C411.527 365.707 417.905 360.168 417.905 360.168L430.982 397.237C430.982 397.237 411.639 401.093 397.266 401.093C391.069 401.093 385.799 400.366 383.398 398.327C358.774 377.318 340.928 326.101 340.583 325.109L352.054 323.819C328.153 304.354 322.135 257.313 322.135 257.313L333.58 261.387C327.895 252.181 320.38 225.528 319.897 214.473C319.883 214.139 319.883 213.79 319.897 213.426V213.176C319.919 212.514 319.981 211.809 320.071 211.064C320.071 210.962 320.097 210.864 320.108 210.762C320.119 210.661 320.133 210.559 320.151 210.454C320.173 210.283 320.199 210.116 320.228 209.941C320.257 209.767 320.268 209.676 320.289 209.541C320.311 209.407 320.333 209.265 320.358 209.123C320.358 209.073 320.377 209.018 320.387 208.967C320.409 208.829 320.435 208.687 320.464 208.549C320.507 208.313 320.555 208.073 320.602 207.822C320.747 207.096 320.912 206.348 321.096 205.58C321.139 205.391 321.183 205.217 321.23 205.017C321.626 203.4 322.095 201.71 322.607 199.994C322.679 199.747 322.756 199.5 322.832 199.267C322.956 198.857 323.083 198.442 323.213 198.032C323.431 197.338 323.657 196.64 323.885 195.946C324.016 195.55 324.151 195.154 324.285 194.757C324.648 193.667 325.03 192.577 325.407 191.523L325.803 190.433L325.978 189.949C326.076 189.688 326.17 189.426 326.265 189.168C326.791 187.736 327.318 186.348 327.823 185.036C327.957 184.698 328.084 184.364 328.215 184.036C328.415 183.524 328.615 183.026 328.807 182.543C328.836 182.463 328.869 182.383 328.902 182.303L328.996 182.063C329.12 181.751 329.239 181.449 329.359 181.155C329.977 179.632 330.522 178.313 330.961 177.266C331.186 176.728 331.386 176.263 331.55 175.881L331.666 175.605L332.069 174.678L327.1 150.093L343.057 166.356C342.962 166.24 342.861 166.102 342.748 165.942C342.683 165.844 342.614 165.738 342.541 165.622C342.468 165.506 342.436 165.451 342.381 165.357C342.327 165.262 342.236 165.102 342.163 164.961V164.942C342.123 164.87 342.087 164.793 342.047 164.713C341.777 164.163 341.534 163.599 341.321 163.024C341.194 162.66 341.063 162.297 340.936 161.868C340.896 161.733 340.856 161.595 340.812 161.454C340.747 161.217 340.678 160.974 340.612 160.727L340.514 160.334C340.478 160.196 340.445 160.054 340.413 159.909C340.333 159.572 340.256 159.22 340.184 158.851C339.959 157.743 339.755 156.493 339.588 155.076C339.566 154.905 339.548 154.73 339.526 154.556C339.526 154.538 339.526 154.52 339.526 154.501C339.508 154.327 339.49 154.138 339.472 153.963C339.454 153.789 339.432 153.56 339.414 153.357C339.374 152.946 339.341 152.521 339.308 152.088C339.29 151.848 339.272 151.601 339.258 151.361C339.236 151.016 339.214 150.664 339.196 150.3C339.196 150.217 339.196 150.137 339.196 150.053C339.196 149.817 339.174 149.577 339.163 149.326C339.152 149.075 339.141 148.781 339.134 148.501C339.134 148.312 339.134 148.116 339.134 147.92C339.134 147.604 339.134 147.28 339.116 146.949C339.116 146.706 339.116 146.455 339.116 146.204C339.116 144.661 339.136 143.001 339.178 141.226C339.178 140.63 339.218 140.019 339.25 139.408C339.279 138.708 339.316 137.989 339.359 137.25C340.852 111.476 388.254 83.3363 388.254 83.3363L388.639 85.7385L388.658 85.8403L389.918 93.7483C390.012 93.2032 390.114 92.6581 390.227 92.1238C397.204 57.8715 436.924 39.9948 439.728 38.7701L439.885 38.7047L439.707 38.9591C436.205 44.2359 432.525 64.5039 434.665 64.5039C434.908 64.5039 435.224 64.2422 435.624 63.6717C435.667 63.6062 435.718 63.5372 435.765 63.4609C436.092 62.963 436.474 62.4215 436.902 61.8509C441.712 55.4402 452.34 45.09 453.72 43.7599C452.198 45.4679 452.827 50.6648 453.357 53.6921C453.357 53.7612 453.382 53.8266 453.393 53.8956C453.608 55.1058 453.796 55.9163 453.796 55.9163C471.156 34.4236 521.529 28.9468 521.529 28.9468M521.525 25.6797H521.38C521.293 25.6797 521.209 25.6797 521.122 25.7015C511.728 26.8676 502.43 28.7113 493.302 31.2182C476.724 35.7719 464.243 41.6993 456.063 48.8841C455.969 47.0924 456.132 46.1403 456.259 45.8204C456.65 45.3403 456.896 44.7592 456.969 44.1446C457.043 43.53 456.94 42.9071 456.674 42.3484C456.408 41.7897 455.989 41.3181 455.465 40.9883C454.942 40.6585 454.335 40.4841 453.717 40.4854C453.213 40.4823 452.716 40.5955 452.264 40.8161C452.028 40.9315 451.807 41.0755 451.606 41.245L451.425 41.4085C450.916 41.8991 443.651 48.9241 438.097 55.2403C438.254 54.3499 438.443 53.4014 438.653 52.3984C439.794 47.067 441.265 42.5097 442.405 40.7689L442.485 40.6599C442.85 40.1742 443.073 39.5963 443.128 38.9911C443.184 38.3859 443.069 37.7773 442.798 37.2335C442.527 36.6897 442.11 36.2322 441.593 35.9124C441.076 35.5926 440.481 35.4232 439.874 35.423C439.423 35.4231 438.976 35.5158 438.562 35.6956L438.428 35.7537C429.876 39.6759 421.838 44.6337 414.494 50.5158C407.847 55.8145 402.246 61.5566 397.844 67.5966C394.827 71.6879 392.297 76.1162 390.303 80.7924C390.09 80.6135 389.854 80.4632 389.602 80.3454C389.119 80.1191 388.588 80.0145 388.056 80.0404C387.524 80.0664 387.006 80.2222 386.547 80.4944C377.998 85.7367 369.862 91.6255 362.21 98.1094C345.531 112.323 336.733 125.417 336.057 137.032C336.014 137.759 335.977 138.511 335.948 139.212C335.919 139.914 335.89 140.59 335.872 141.098C335.821 142.843 335.799 144.562 335.81 146.186V146.212V146.957C335.81 147.291 335.81 147.625 335.829 147.956C335.829 148.152 335.829 148.363 335.829 148.567C335.829 148.857 335.85 149.137 335.861 149.417V149.65C335.861 149.812 335.869 149.972 335.883 150.129V150.362V150.456C335.901 150.82 335.927 151.201 335.948 151.547C335.948 151.797 335.981 152.066 336.003 152.324C336.036 152.771 336.068 153.211 336.112 153.647C336.13 153.862 336.148 154.076 336.174 154.291C336.174 154.447 336.203 154.603 336.221 154.756L329.432 147.803C328.938 147.301 328.295 146.971 327.599 146.864C326.903 146.757 326.19 146.877 325.568 147.208C324.946 147.538 324.447 148.061 324.146 148.698C323.844 149.335 323.757 150.053 323.896 150.744L328.666 174.26C328.626 174.351 328.578 174.46 328.535 174.573L328.513 174.62C328.353 174.984 328.15 175.442 327.946 175.954C327.467 177.095 326.908 178.454 326.33 179.879C326.21 180.173 326.09 180.479 325.967 180.795L325.901 180.958L325.88 181.02C325.84 181.118 325.796 181.22 325.76 181.322L325.665 181.562C325.505 181.961 325.342 182.368 325.179 182.786C325.109 182.961 325.037 183.15 324.968 183.324C324.899 183.499 324.852 183.626 324.79 183.778C324.79 183.818 324.757 183.858 324.743 183.898C324.169 185.396 323.653 186.737 323.199 187.994L323.123 188.209C323.057 188.39 322.988 188.572 322.919 188.757V188.79L322.745 189.273C322.683 189.451 322.618 189.637 322.552 189.811C322.487 189.986 322.418 190.175 322.349 190.375C321.92 191.581 321.55 192.657 321.208 193.645C321.074 194.045 320.936 194.449 320.802 194.856C320.562 195.582 320.329 196.309 320.115 196.985C319.984 197.396 319.853 197.821 319.726 198.246C319.646 198.504 319.57 198.762 319.494 199.02C318.938 200.874 318.462 202.618 318.077 204.188C318.03 204.374 317.983 204.573 317.936 204.773C317.75 205.54 317.572 206.332 317.416 207.128V207.15L317.391 207.288C317.354 207.481 317.314 207.673 317.282 207.862C317.249 208.051 317.22 208.171 317.195 208.335C317.195 208.368 317.195 208.397 317.195 208.429V208.487C317.166 208.651 317.14 208.811 317.115 208.974C317.089 209.138 317.071 209.247 317.049 209.389L316.969 209.923C316.969 210.007 316.944 210.094 316.933 210.177V210.243C316.933 210.279 316.933 210.315 316.933 210.355V210.443L316.911 210.628C316.806 211.504 316.741 212.274 316.719 212.99V213.103V213.226C316.719 213.252 316.719 213.277 316.719 213.303C316.719 213.732 316.719 214.153 316.719 214.557C316.875 220.131 318.746 229.446 321.651 239.494C323.203 244.948 325.034 250.318 327.136 255.583L323.235 254.195C322.709 254.007 322.143 253.957 321.592 254.051C321.041 254.144 320.523 254.377 320.087 254.728C319.652 255.079 319.314 255.535 319.105 256.054C318.896 256.573 318.824 257.136 318.895 257.691C320.213 266.686 322.261 275.558 325.019 284.221C327.692 292.663 330.86 300.247 334.434 306.753C337.254 312.004 340.701 316.894 344.699 321.315L340.22 321.82C339.421 321.909 338.683 322.29 338.147 322.889C337.611 323.489 337.315 324.265 337.314 325.069C337.316 325.426 337.374 325.78 337.485 326.119C337.485 326.119 337.485 326.145 337.485 326.159C338.237 328.34 356.21 379.411 381.266 400.791C384.103 403.212 389.184 404.338 397.248 404.338C411.777 404.338 430.8 400.581 431.603 400.421C432.063 400.329 432.498 400.14 432.878 399.865C433.258 399.591 433.575 399.238 433.807 398.83C434.039 398.422 434.18 397.969 434.222 397.502C434.263 397.034 434.204 396.564 434.047 396.121L420.971 359.052C420.794 358.55 420.496 358.098 420.104 357.736C419.712 357.375 419.238 357.114 418.723 356.978C418.207 356.842 417.666 356.834 417.147 356.955C416.628 357.076 416.146 357.322 415.744 357.672C415.697 357.711 410.128 362.396 403.154 362.396C392.323 362.396 383.358 350.941 377.23 329.267C377.223 329.233 377.215 329.201 377.205 329.168C376.762 327.595 376.311 325.898 375.868 324.081C375.758 323.536 375.686 322.985 375.654 322.431C375.636 322.187 375.614 321.944 375.588 321.704C375.588 321.678 375.588 321.649 375.588 321.624C375.045 316.263 374.978 310.864 375.389 305.492C376.242 293.408 382.53 284.301 390.012 284.301C393.739 284.301 397.459 286.579 400.771 290.897C411.342 304.67 411.414 311.641 411.389 312.389C411.358 313.245 411.664 314.078 412.24 314.711C412.817 315.344 413.618 315.725 414.473 315.773H414.658C415.484 315.775 416.28 315.465 416.886 314.904C417.493 314.343 417.865 313.573 417.927 312.749L420.64 277.076C420.64 277.032 420.64 276.985 420.64 276.941C420.787 272.135 419.021 267.467 415.729 263.964L413.212 261.3L414.284 261.899C416.087 262.911 418.215 263.178 420.213 262.643C422.21 262.108 423.92 260.814 424.977 259.036L432.994 245.589C434.049 243.829 434.38 241.727 433.915 239.727C433.451 237.728 432.229 235.987 430.506 234.872C425.784 231.801 416.075 225.423 407.953 219.797C416.441 222.268 427.204 226.102 434.28 231.176C437.912 233.785 441.646 235.108 445.337 235.108C450.462 235.108 455.373 232.564 459.532 227.72C460.939 226.054 461.708 223.942 461.702 221.761C461.696 219.58 460.915 217.472 459.499 215.814C453.662 209.022 439.667 193.013 428.893 183.004C441.069 186.639 459.877 195.546 470.473 216.981C470.743 217.527 471.161 217.986 471.679 218.307C472.197 218.628 472.795 218.798 473.404 218.798H473.847C476.502 218.798 500.592 219.219 527.857 233.778C534.084 237.103 540.036 240.921 545.655 245.197C546.254 245.651 546.992 245.886 547.743 245.86C548.495 245.834 549.215 245.55 549.781 245.055C549.781 245.055 550.119 244.76 550.74 244.263C552.844 242.589 555.036 241.03 557.308 239.593C563.152 235.85 569.943 233.854 576.882 233.84C595.164 233.84 610.849 247.406 613.369 265.395C614.601 274.208 616.936 281.695 620.307 287.644C624.728 295.447 630.903 300.607 638.665 302.984C638.975 303.078 639.297 303.125 639.62 303.126C640.208 303.126 640.785 302.967 641.29 302.667C641.795 302.367 642.21 301.936 642.491 301.419C642.772 300.903 642.908 300.321 642.887 299.733C642.865 299.146 642.685 298.575 642.366 298.081C640.883 295.469 639.867 292.617 639.366 289.654C638.167 282.967 639.432 276.458 643.126 270.302C649.192 260.202 652.9 247.297 653.296 234.901C653.812 219.063 648.963 204.617 639.283 193.107C626.638 178.095 608.771 173.585 595.891 172.465C602.854 170.092 609.693 168.889 616.195 168.889C638.658 168.889 655.73 183.026 666.936 210.908C667.179 211.513 667.598 212.032 668.139 212.397C668.679 212.762 669.316 212.958 669.969 212.957H670.245C670.939 212.896 671.596 212.614 672.119 212.152C672.642 211.69 673.003 211.074 673.151 210.392C673.249 209.927 675.602 198.871 675.475 183.339C675.475 183.07 675.475 182.797 675.475 182.528C675.432 179.203 675.272 175.907 675.007 172.734C674.974 172.334 674.938 171.913 674.898 171.491L674.843 170.917V170.899L674.796 170.412L674.745 169.929C674.545 167.981 674.295 166.033 674.019 164.114V164.067C673.964 163.703 673.91 163.34 673.848 162.976C673.804 162.693 673.757 162.406 673.706 162.122C673.568 161.275 673.412 160.4 673.238 159.524C673.169 159.131 673.089 158.742 673.009 158.35C672.878 157.685 672.737 157.023 672.613 156.467L672.442 155.708L672.413 155.588C672.119 154.283 671.796 152.979 671.458 151.718C671.407 151.525 671.356 151.332 671.302 151.14C671.167 150.645 671.044 150.206 670.939 149.799C670.862 149.526 670.79 149.268 670.71 149.01C669.94 146.386 669.061 143.799 668.094 141.324C667.982 141.026 667.866 140.731 667.731 140.437C667.477 139.786 667.237 139.201 667.005 138.649L666.954 138.529C666.845 138.275 666.736 138.017 666.623 137.762C666.26 136.919 665.868 136.054 665.421 135.12C665.312 134.888 665.203 134.659 665.09 134.433C664.938 134.11 664.796 133.823 664.662 133.557L664.132 132.507C663.885 132.031 663.645 131.573 663.405 131.141C663.165 130.708 663.009 130.414 662.835 130.098C662.66 129.781 662.446 129.404 662.225 129.007C661.81 128.281 661.451 127.688 661.099 127.118C660.964 126.9 660.83 126.678 660.692 126.46C660.23 125.715 659.776 125.006 659.319 124.341C659.13 124.058 658.93 123.763 658.69 123.418L658.578 123.247L657.884 122.266L657.797 122.15C657.546 121.786 657.295 121.459 657.07 121.128V121.11C656.805 120.747 656.529 120.383 656.242 120.02C655.955 119.657 655.704 119.326 655.418 118.97V118.952L655.381 118.908C655.109 118.566 654.829 118.225 654.549 117.883C654.27 117.541 654.008 117.236 653.659 116.833C653.362 116.489 653.064 116.147 652.766 115.808L652.74 115.779C652.355 115.35 652.014 114.99 651.709 114.649C651.404 114.307 651.135 114.038 650.841 113.729V113.711C650.517 113.373 650.187 113.031 649.853 112.701C649.217 112.057 648.567 111.425 647.924 110.829C647.67 110.586 647.408 110.342 647.147 110.102L646.54 109.553C646.348 109.379 646.148 109.19 645.948 109.03L645.912 108.997L645.08 108.271L644.92 108.133L644.884 108.1L644.738 107.984C644.477 107.762 644.212 107.54 643.943 107.326C643.62 107.057 643.314 106.813 643.009 106.577C642.791 106.403 642.574 106.214 642.352 106.057C641.484 105.385 640.627 104.745 639.809 104.157C639.446 103.888 639.046 103.619 638.654 103.346H638.632C638.269 103.092 637.884 102.837 637.503 102.583L637.459 102.554L637.39 102.507L636.587 101.987L636.308 101.805L636.221 101.754C636.209 101.744 636.195 101.735 636.181 101.729C635.817 101.493 635.432 101.257 635.055 101.028L634.938 100.955C634.212 100.515 633.558 100.126 632.933 99.7666C632.243 99.3741 631.535 98.978 630.819 98.5964C629.388 97.8295 627.913 97.0845 626.413 96.3868C625.661 96.0233 624.884 95.6817 624.11 95.3474C623.337 95.013 622.537 94.675 621.742 94.3516C620.946 94.0282 620.093 93.7011 619.312 93.4103C619.007 93.2941 618.698 93.185 618.386 93.0724C618.131 92.9779 617.874 92.8834 617.612 92.7925H617.59L617.325 92.6981L617.223 92.6617L616.925 92.56L616.479 92.4073L615.516 92.0839L633.133 89.0493C633.742 88.9438 634.309 88.6676 634.768 88.2527C635.226 87.8379 635.558 87.3014 635.724 86.7056C635.89 86.1098 635.884 85.479 635.707 84.8865C635.529 84.294 635.187 83.764 634.72 83.3581C634.034 82.8603 621.103 71.6778 602.345 60.3282C591.299 53.6413 580.551 48.3062 570.38 44.4722C557.529 39.6314 545.553 37.1747 534.783 37.1747C528.632 37.1303 522.509 38.0149 516.622 39.7986L523.974 31.1056C524.379 30.6421 524.646 30.0734 524.743 29.465C524.839 28.8565 524.762 28.2332 524.521 27.6666C524.279 27.1 523.882 26.6132 523.376 26.2624C522.87 25.9115 522.275 25.7108 521.66 25.6833L521.525 25.6797Z" fill="#17091D"/>
<path d="M669.972 209.694C649.595 159.001 613.936 162.744 594.419 169.522C591.15 170.652 591.786 175.424 595.215 175.7C607.39 176.696 624.684 180.857 636.783 195.223C657.335 219.627 650.376 251.862 640.318 268.612C630.26 285.362 639.613 299.848 639.613 299.848C624.375 295.186 618.607 279.289 616.598 264.934C612.577 236.224 580.013 221.269 555.549 236.824C553.175 238.324 550.884 239.954 548.688 241.705C547.994 242.261 547.623 242.584 547.623 242.584C541.865 238.203 535.765 234.291 529.382 230.886C521.619 214.135 508.456 184.44 508.786 176.322C508.874 174.177 509.15 170.903 509.705 166.873C511.038 157.315 513.992 143.57 519.901 130.945C524.823 120.431 527.969 117.462 537.776 111.571C564.292 95.6277 601.531 91.7936 602.432 91.979C691.381 110.731 669.972 209.694 669.972 209.694Z" fill="#D969BD"/>
<path d="M430.986 397.219C430.986 397.219 391.393 405.116 383.402 398.309C358.778 377.299 340.932 326.083 340.587 325.09L352.058 323.8C328.157 304.336 322.139 257.294 322.139 257.294L333.584 261.368C327.899 252.163 320.384 225.51 319.901 214.454C319.887 214.12 319.887 213.771 319.901 213.408V213.157C319.923 212.496 319.985 211.791 320.075 211.046C320.075 210.944 320.101 210.846 320.112 210.744C320.123 210.642 320.137 210.54 320.155 210.435C320.177 210.264 320.203 210.097 320.232 209.923C320.261 209.748 320.272 209.657 320.293 209.523C320.315 209.388 320.337 209.247 320.362 209.105C320.362 209.054 320.381 208.999 320.391 208.949C320.413 208.81 320.439 208.669 320.468 208.531C320.511 208.294 320.558 208.055 320.606 207.804C320.751 207.077 320.916 206.33 321.1 205.562C321.143 205.373 321.187 205.198 321.234 204.998C321.63 203.381 322.099 201.691 322.611 199.976C322.683 199.729 322.76 199.481 322.836 199.249C322.959 198.838 323.087 198.424 323.217 198.013C323.435 197.319 323.661 196.621 323.889 195.927C324.02 195.531 324.155 195.135 324.289 194.739C324.652 193.649 325.034 192.558 325.411 191.504L325.807 190.414L325.982 189.931C326.08 189.669 326.174 189.407 326.269 189.149C326.795 187.718 327.322 186.329 327.827 185.017C327.962 184.681 328.093 184.346 328.219 184.014C328.419 183.502 328.619 183.004 328.811 182.521C328.84 182.441 328.873 182.361 328.906 182.281L329 182.041L329.363 181.132C329.981 179.61 330.526 178.29 330.965 177.244C331.19 176.706 331.39 176.241 331.554 175.859L331.67 175.583L332.073 174.656L327.1 150.093L343.057 166.356C342.963 166.239 342.861 166.101 342.749 165.941C342.683 165.843 342.614 165.738 342.541 165.622C342.469 165.505 342.436 165.451 342.382 165.356L342.164 164.96V164.942L342.047 164.713C341.777 164.162 341.535 163.598 341.321 163.023C341.194 162.66 341.063 162.296 340.936 161.867C340.896 161.733 340.856 161.595 340.812 161.453C340.747 161.217 340.678 160.973 340.613 160.726L340.515 160.334C340.478 160.196 340.446 160.054 340.413 159.909C340.333 159.572 340.257 159.219 340.184 158.851C339.959 157.743 339.755 156.492 339.588 155.075C339.567 154.904 339.548 154.73 339.527 154.555C339.527 154.537 339.527 154.519 339.527 154.501C339.508 154.326 339.49 154.137 339.472 153.963C339.454 153.789 339.432 153.56 339.414 153.356C339.374 152.945 339.338 152.524 339.309 152.088C339.291 151.848 339.272 151.601 339.258 151.361C339.232 151.016 339.214 150.66 339.196 150.3C339.196 150.216 339.196 150.136 339.196 150.053C339.196 149.816 339.174 149.577 339.163 149.326C339.153 149.075 339.142 148.781 339.134 148.501C339.134 148.312 339.134 148.116 339.134 147.919C339.134 147.603 339.134 147.28 339.116 146.949C339.116 146.706 339.116 146.455 339.116 146.204C339.116 144.661 339.137 143.001 339.178 141.225C339.2 140.629 339.222 140.019 339.251 139.408C339.28 138.708 339.316 137.988 339.36 137.249C340.852 111.476 388.255 83.3359 388.255 83.3359L388.64 85.7381L388.542 86.3378C387.612 92.0798 386.388 99.5299 385.658 103.549C385.43 104.993 385.302 106.45 385.272 107.91C385.269 107.936 385.269 107.961 385.272 107.987C384.978 116.593 386.184 132.042 389.159 140.375C389.159 140.393 389.159 140.407 389.177 140.422C389.637 141.826 390.295 143.158 391.131 144.376C394.764 149.268 398.959 153.494 403.296 155.936H403.322C405.059 156.951 406.963 157.648 408.945 157.997H408.974C410.087 158.152 411.188 158.385 412.268 158.695C412.995 158.942 413.151 159.138 413.078 159.284C413.006 159.429 412.588 159.556 412.522 159.571L412.45 159.607L412.087 159.796C407.739 162.031 373.231 180.358 365.058 197.443V197.464C360.58 206.837 357.147 214.941 354.797 222.159C352.57 228.98 351.317 235.006 351.063 240.573C350.54 252.032 353.497 279.877 359.101 293.575C363.511 304.35 370.111 319.087 372.726 324.883C372.974 326.664 373.432 328.408 374.092 330.08C389.515 384.793 417.909 360.15 417.909 360.15L430.986 397.219Z" fill="#9C398C"/>
<path d="M439.885 38.7051L439.707 38.9595C439.707 38.8977 439.707 38.8323 439.728 38.7705L439.885 38.7051Z" fill="#D969BD"/>
<path d="M521.525 28.9512L505.979 47.3221L504.333 49.2664C503.244 50.0659 502.226 50.8327 501.307 51.5487C492.259 58.5772 487.468 73.9572 476.415 96.809C465.362 119.661 464.541 157.907 464.541 157.907C463.639 157.56 462.784 157.099 461.998 156.537C461.988 156.527 461.976 156.519 461.962 156.515C458.578 154.145 455.386 151.512 452.416 148.64C435.231 131.098 433.847 84.1148 435.707 71.5949C435.707 71.5949 436.216 67.4374 436.902 61.8516C441.711 55.4409 452.34 45.0907 453.72 43.7606C452.198 45.4686 452.826 50.6655 453.357 53.6928C453.357 53.7619 453.382 53.8273 453.393 53.8963C453.607 55.1065 453.796 55.917 453.796 55.917C471.152 34.4279 521.525 28.9512 521.525 28.9512Z" fill="#D969BD"/>
<path d="M589.661 73.4903C589.661 73.4903 575.303 55.2393 549.477 57.6597C523.65 60.0801 517.345 56.7402 517.345 56.7402C517.345 56.7402 534.555 72.251 550.341 68.4751C566.127 64.6991 589.661 73.4903 589.661 73.4903Z" fill="#D969BD"/>
<path d="M560.464 190.371C561.115 189.478 562.366 189.282 563.258 189.932C564.151 190.583 564.347 191.834 563.697 192.726C555.68 203.732 552.427 216.082 551.191 225.744C550.574 230.566 550.464 234.692 550.507 237.605C550.529 239.061 550.588 240.211 550.642 240.991C550.669 241.381 550.694 241.678 550.712 241.874C550.721 241.972 550.729 242.045 550.734 242.092C550.736 242.115 550.738 242.131 550.739 242.141C550.739 242.146 550.74 242.151 550.741 242.152C550.867 243.249 550.079 244.241 548.982 244.367C547.885 244.493 546.892 243.706 546.766 242.609L548.753 242.381L546.766 242.607V242.605C546.766 242.604 546.765 242.601 546.765 242.598C546.765 242.593 546.764 242.586 546.763 242.578C546.761 242.561 546.758 242.537 546.755 242.507C546.749 242.446 546.74 242.357 546.73 242.244C546.709 242.018 546.681 241.689 546.652 241.266C546.594 240.421 546.53 239.198 546.507 237.665C546.462 234.599 546.578 230.28 547.223 225.236C548.511 215.167 551.921 202.1 560.464 190.371Z" fill="#17091D"/>
<path d="M610.555 89.401C610.556 89.4061 610.56 89.4999 610.602 91.2272L610.557 89.401C611.661 89.3742 612.578 90.2471 612.605 91.3512C612.631 92.4552 611.758 93.372 610.654 93.399H610.652C610.651 93.3991 610.648 93.3999 610.645 93.4C610.637 93.4002 610.625 93.4005 610.61 93.401C610.577 93.4019 610.527 93.4036 610.459 93.4059C610.324 93.4105 610.121 93.4175 609.853 93.4293C609.316 93.453 608.521 93.4941 607.498 93.5621C605.453 93.6981 602.5 93.943 598.89 94.3776C591.664 95.2473 581.828 96.8739 571.374 99.899C550.357 105.981 527.371 117.556 517.523 139.425C507.618 161.42 511.932 184.328 518.896 201.942C522.369 210.728 526.475 218.125 529.714 223.326C531.332 225.924 532.731 227.969 533.722 229.36C534.217 230.055 534.609 230.586 534.876 230.941C535.009 231.118 535.111 231.252 535.179 231.339C535.212 231.383 535.238 231.415 535.254 231.435C535.262 231.445 535.267 231.453 535.271 231.458L535.275 231.463L535.393 231.63C535.937 232.484 535.757 233.629 534.944 234.271C534.078 234.956 532.819 234.808 532.135 233.941L533.705 232.702C532.196 233.893 532.137 233.938 532.134 233.939C532.133 233.939 532.133 233.937 532.132 233.936C532.13 233.934 532.127 233.931 532.124 233.927C532.118 233.92 532.111 233.909 532.101 233.896C532.08 233.87 532.05 233.832 532.012 233.782C531.935 233.682 531.823 233.536 531.68 233.345C531.393 232.964 530.98 232.405 530.464 231.68C529.432 230.23 527.986 228.116 526.319 225.44C522.988 220.091 518.759 212.477 515.176 203.413C508.026 185.328 503.337 161.187 513.875 137.784C524.47 114.255 548.938 102.227 570.263 96.0563C580.98 92.9551 591.038 91.2935 598.412 90.4059C602.102 89.9618 605.127 89.711 607.234 89.5709C608.287 89.5009 609.112 89.4581 609.676 89.4332C609.958 89.4208 610.175 89.4129 610.323 89.4078C610.397 89.4053 610.454 89.4031 610.493 89.402C610.513 89.4014 610.528 89.4013 610.538 89.401H610.555Z" fill="#17091D"/>
<path d="M484.649 118.698C484.973 117.643 486.092 117.05 487.148 117.374C488.204 117.698 488.797 118.818 488.472 119.874C488.472 119.875 488.471 119.876 488.471 119.877C488.47 119.881 488.468 119.888 488.465 119.897C488.459 119.917 488.449 119.948 488.437 119.991C488.412 120.076 488.374 120.207 488.326 120.381C488.229 120.728 488.09 121.247 487.924 121.919C487.592 123.263 487.156 125.216 486.744 127.624C485.918 132.448 485.198 139.062 485.601 146.26C486.408 160.66 491.667 177.093 509.263 186.522C510.236 187.044 510.603 188.256 510.081 189.229C509.56 190.203 508.347 190.569 507.373 190.048C488.076 179.707 482.456 161.64 481.607 146.483C481.182 138.902 481.941 131.974 482.8 126.95C483.231 124.434 483.689 122.386 484.04 120.961C484.216 120.248 484.366 119.69 484.473 119.306C484.526 119.115 484.569 118.967 484.599 118.865C484.614 118.814 484.626 118.774 484.634 118.746C484.638 118.732 484.642 118.721 484.644 118.713C484.645 118.709 484.646 118.705 484.647 118.703C484.647 118.702 484.648 118.701 484.648 118.7C484.649 118.699 484.675 118.706 486.537 119.279L484.649 118.698Z" fill="#17091D"/>
<path d="M436.116 59.2494C437.213 59.3746 438.002 60.3659 437.877 61.4632C432.071 112.398 443.084 136.83 454.951 148.576C460.907 154.471 467.194 157.295 471.976 158.649C474.369 159.326 476.384 159.635 477.786 159.775C478.486 159.845 479.032 159.872 479.394 159.882C479.575 159.887 479.709 159.888 479.794 159.888C479.835 159.888 479.865 159.887 479.882 159.887H479.897C481 159.852 481.923 160.717 481.96 161.82C481.996 162.924 481.131 163.848 480.027 163.885L479.961 161.886C480.027 163.885 480.024 163.885 480.022 163.885H480.002C479.99 163.885 479.975 163.886 479.957 163.886C479.92 163.887 479.87 163.888 479.807 163.888C479.682 163.888 479.504 163.888 479.28 163.881C478.831 163.868 478.19 163.835 477.389 163.755C475.787 163.596 473.537 163.248 470.886 162.497C465.58 160.995 458.659 157.873 452.137 151.418C439.048 138.463 428.025 112.571 433.902 61.0101C434.027 59.9127 435.018 59.1243 436.116 59.2494Z" fill="#17091D"/>
<path d="M389.698 82.8603C390.802 82.8271 391.724 83.6949 391.757 84.7988C392.809 119.78 406.768 136.678 420.14 144.94C426.885 149.108 433.577 151.139 438.587 152.124C441.089 152.616 443.162 152.845 444.599 152.952C445.317 153.005 445.876 153.028 446.248 153.037C446.434 153.042 446.574 153.044 446.664 153.044C446.708 153.044 446.741 153.044 446.76 153.044C446.77 153.044 446.777 153.043 446.78 153.043H446.781V153.044C447.884 153.025 448.795 153.903 448.815 155.007C448.835 156.111 447.955 157.023 446.851 157.043L446.815 155.043C446.851 157.043 446.85 157.043 446.848 157.043H446.831C446.821 157.043 446.808 157.044 446.791 157.044C446.758 157.044 446.711 157.044 446.652 157.044C446.533 157.044 446.364 157.042 446.148 157.036C445.715 157.025 445.091 157 444.303 156.941C442.729 156.824 440.495 156.576 437.815 156.049C432.461 154.996 425.289 152.825 418.038 148.344C403.416 139.309 388.847 121.114 387.759 84.9199C387.726 83.8159 388.594 82.8937 389.698 82.8603Z" fill="#17091D"/>
<path d="M387.47 82.136C387.769 81.0728 388.875 80.4537 389.938 80.7532C391 81.0528 391.618 82.1563 391.32 83.219V83.2209C391.319 83.2223 391.319 83.2252 391.318 83.2288C391.316 83.2357 391.313 83.2469 391.309 83.262C391.3 83.2928 391.287 83.3409 391.27 83.4045C391.235 83.532 391.183 83.7242 391.117 83.9768C390.986 84.4824 390.798 85.2304 390.573 86.1868C390.122 88.0999 389.524 90.8461 388.944 94.1604C387.781 100.801 386.696 109.669 386.968 118.671C387.241 127.703 388.876 136.675 392.991 143.668C397.046 150.558 403.569 155.641 414.005 156.943C414.883 157.052 415.584 157.726 415.73 158.598C415.866 159.416 415.484 160.227 414.782 160.646L414.636 160.724C414.635 160.724 414.633 160.725 414.631 160.726L414.52 160.781C414.439 160.822 414.317 160.883 414.157 160.964C413.835 161.127 413.359 161.371 412.747 161.693C411.523 162.337 409.757 163.292 407.603 164.529C403.292 167.002 397.438 170.596 391.263 175.073C378.822 184.092 365.446 196.441 360.398 210.2C352.814 230.869 347.631 264.404 375.588 324.233C376.056 325.233 375.623 326.423 374.622 326.891C373.622 327.358 372.432 326.927 371.964 325.926C343.619 265.267 348.644 230.623 356.643 208.823C362.128 193.872 376.371 180.929 388.915 171.834C395.233 167.254 401.213 163.584 405.613 161.059C406.419 160.596 407.172 160.173 407.866 159.788C399.295 157.395 393.412 152.269 389.544 145.698C384.941 137.876 383.252 128.131 382.97 118.791C382.687 109.422 383.815 100.263 385.004 93.47C385.6 90.0677 386.213 87.2449 386.679 85.2688C386.912 84.2805 387.108 83.5031 387.246 82.97C387.316 82.7035 387.371 82.4981 387.409 82.3577L387.465 82.1536C387.467 82.1485 387.467 82.1438 387.468 82.1409C387.468 82.1397 387.469 82.1387 387.469 82.1379C387.469 82.1368 387.47 82.1357 389.395 82.678L387.47 82.136Z" fill="#17091D"/>
<path d="M329.986 171.907C331.085 171.796 332.065 172.596 332.177 173.694C332.177 173.698 332.178 173.706 332.18 173.716C332.183 173.743 332.19 173.79 332.199 173.856C332.219 173.988 332.252 174.195 332.307 174.466C332.415 175.01 332.605 175.811 332.926 176.791C333.569 178.752 334.732 181.413 336.804 184.161C340.901 189.595 348.726 195.603 363.787 196.981C364.887 197.082 365.697 198.055 365.597 199.155C365.496 200.255 364.523 201.065 363.423 200.964C347.311 199.49 338.428 192.96 333.609 186.569C331.224 183.405 329.877 180.331 329.125 178.037C328.749 176.889 328.52 175.931 328.384 175.249C328.316 174.907 328.27 174.633 328.241 174.438C328.227 174.341 328.217 174.263 328.21 174.206C328.206 174.177 328.204 174.154 328.202 174.136C328.201 174.127 328.2 174.119 328.199 174.113C328.199 174.11 328.199 174.106 328.198 174.104C328.198 174.103 328.198 174.102 328.198 174.101C328.198 174.1 328.198 174.098 330.188 173.897L328.197 174.098C328.086 172.999 328.887 172.018 329.986 171.907Z" fill="#17091D"/>
<path d="M327.007 180.275C328.102 180.123 329.111 180.889 329.262 181.983C329.263 181.985 329.264 181.987 329.264 181.99C329.266 181.999 329.268 182.016 329.271 182.039C329.278 182.084 329.289 182.157 329.305 182.254C329.337 182.446 329.389 182.737 329.463 183.112C329.611 183.862 329.85 184.947 330.212 186.257C330.936 188.886 332.14 192.389 334.056 195.922C337.888 202.988 344.42 209.953 355.558 210.675C356.66 210.747 357.496 211.698 357.424 212.8C357.353 213.903 356.402 214.738 355.299 214.667C342.286 213.823 334.744 205.58 330.541 197.83C328.439 193.955 327.135 190.149 326.355 187.32C325.964 185.902 325.703 184.72 325.539 183.886C325.456 183.47 325.398 183.139 325.36 182.909C325.341 182.794 325.327 182.703 325.317 182.639C325.312 182.608 325.308 182.582 325.305 182.564C325.304 182.555 325.303 182.548 325.302 182.543C325.302 182.54 325.302 182.538 325.301 182.536V182.533C325.306 182.531 325.405 182.516 327.282 182.256L325.3 182.531C325.149 181.437 325.913 180.427 327.007 180.275Z" fill="#17091D"/>
<path d="M336.929 156.114C337.918 155.625 339.116 156.03 339.607 157.018C339.607 157.02 339.61 157.023 339.612 157.029C339.619 157.041 339.631 157.064 339.647 157.094C339.679 157.156 339.73 157.252 339.801 157.379C339.943 157.635 340.162 158.013 340.46 158.484C341.057 159.427 341.963 160.729 343.186 162.138C345.643 164.97 349.306 168.155 354.232 169.822C355.278 170.176 355.839 171.312 355.485 172.358C355.131 173.404 353.996 173.965 352.95 173.611C347.135 171.643 342.911 167.924 340.165 164.759C338.787 163.171 337.763 161.702 337.08 160.624C336.738 160.083 336.48 159.638 336.305 159.323C336.217 159.165 336.15 159.039 336.103 158.95C336.079 158.905 336.061 158.869 336.048 158.843C336.041 158.83 336.035 158.819 336.031 158.811C336.029 158.807 336.028 158.803 336.026 158.8C336.026 158.799 336.025 158.798 336.025 158.796L336.024 158.795C336.023 158.795 336.023 158.794 337.816 157.907L336.023 158.794C335.533 157.804 335.939 156.604 336.929 156.114Z" fill="#17091D"/>
<path d="M454.136 49.9647C454.942 49.2095 456.207 49.2501 456.963 50.0555C457.718 50.861 457.677 52.1262 456.873 52.8817C456.871 52.8836 456.868 52.8868 456.864 52.8905C456.851 52.9032 456.827 52.9258 456.795 52.9588C456.729 53.0253 456.624 53.1332 456.487 53.2821C456.212 53.5801 455.807 54.0437 455.315 54.6747C454.332 55.9367 453.006 57.8668 451.698 60.4852C449.086 65.712 446.524 73.7133 446.907 84.6756C446.945 85.7795 446.082 86.7064 444.978 86.745C443.874 86.7836 442.948 85.9192 442.91 84.8153C442.501 73.1298 445.236 64.4701 448.12 58.6981C449.559 55.8174 451.032 53.6637 452.159 52.2166C452.722 51.4931 453.201 50.9453 453.546 50.5711C453.718 50.3842 453.857 50.2404 453.958 50.1395C454.008 50.089 454.049 50.0485 454.079 50.0194C454.093 50.0052 454.105 49.9933 454.115 49.9842C454.12 49.9797 454.124 49.9757 454.128 49.9725L454.134 49.9657C454.136 49.9655 454.162 49.9931 455.352 51.2625L454.136 49.9647ZM456.875 52.8807L456.873 52.8817C456.874 52.8803 456.875 52.8793 456.876 52.8788L456.875 52.8807Z" fill="#17091D"/>
<path d="M513.473 40.5397C514.466 40.0567 515.663 40.4704 516.146 41.4636C516.629 42.4569 516.216 43.6543 515.223 44.1374C514.993 44.2488 514.761 44.3699 514.515 44.5017L514.514 44.5007C512.194 45.7609 510.026 47.2812 508.049 49.03C508.043 49.035 508.037 49.0397 508.031 49.0446C507.744 49.2926 507.458 49.5477 507.173 49.8103L507.168 49.8151C497.844 58.3356 490.185 72.1042 484.823 83.9353C482.157 89.8175 480.087 95.1576 478.683 99.0261C477.982 100.96 477.448 102.524 477.09 103.601C476.911 104.14 476.776 104.557 476.686 104.838C476.642 104.978 476.608 105.085 476.586 105.155C476.575 105.19 476.567 105.216 476.561 105.233C476.559 105.242 476.557 105.248 476.556 105.252C476.555 105.253 476.555 105.255 476.555 105.256C476.23 106.311 475.11 106.905 474.055 106.581C472.999 106.256 472.406 105.137 472.73 104.081L474.642 104.669C472.731 104.081 472.731 104.08 472.731 104.08V104.078L472.741 104.049C472.747 104.028 472.756 103.998 472.768 103.96C472.793 103.882 472.829 103.769 472.876 103.622C472.97 103.327 473.11 102.895 473.294 102.341C473.662 101.232 474.208 99.6331 474.923 97.6618C476.353 93.7209 478.462 88.2818 481.181 82.2839C486.588 70.3537 494.517 55.9566 504.47 46.862C504.777 46.579 505.087 46.3031 505.398 46.0339L505.814 45.6706C507.908 43.8708 510.189 42.2991 512.616 40.9812L512.626 40.9753C512.896 40.8309 513.179 40.6827 513.473 40.5397Z" fill="#17091D"/>
</svg>
