<svg width="1000" height="1000" viewBox="0 0 1000 1000" fill="none" xmlns="http://www.w3.org/2000/svg">
<path d="M418.112 276.747C414.287 276.747 410.506 276.703 406.877 276.616C404.854 276.569 404.745 274.072 404.618 271.19C404.516 268.843 404.505 265.688 404.498 262.635C404.498 260.538 404.498 258.074 404.436 255.941C403.761 258.122 403.041 260.666 402.468 262.697C399.275 274.01 398.472 276.227 396.405 276.231H396.311C394.727 276.151 393.151 276.111 391.491 276.111C388.879 276.111 386.518 276.209 384.226 276.3C382.152 276.387 380.194 276.467 378.229 276.467C374.452 276.519 370.683 276.086 367.016 275.181C366.697 275.1 366.41 274.926 366.192 274.68C365.974 274.435 365.834 274.129 365.792 273.803C361.796 242.913 373.848 207.973 401.614 170.01C402.072 169.385 402.529 168.775 402.987 168.171C419.427 146.577 441.552 142.045 457.214 142.045C463.897 142.008 470.557 142.832 477.029 144.498C477.28 144.404 477.61 144.284 478.039 144.135C481.159 143.045 490.519 140.228 509.894 137.208C514.673 136.468 519.501 136.098 524.337 136.1C547.664 136.1 571.474 144.665 593.192 160.874C594.43 161.793 595.662 162.746 596.86 163.698C613.736 177.09 624.593 195.014 630.725 207.693C638.462 223.684 641.916 237.657 642.522 244.762C642.966 249.937 640.706 265.655 634.317 272.619C632.203 274.926 629.813 276.096 627.219 276.096H626.856C623.663 275.966 617.735 274.777 609.243 272.575C598.117 269.668 584.837 266.422 579.639 265.154C579.08 265.022 578.553 264.778 578.09 264.438C577.627 264.098 577.237 263.668 576.944 263.173C576.659 262.697 576.473 262.169 576.397 261.619C576.321 261.07 576.356 260.511 576.501 259.975C578.891 251.031 576.501 241.368 573.911 234.83C573.312 246.459 568.259 261.447 567.987 262.254C567.878 262.561 567.68 262.829 567.417 263.024C567.155 263.218 566.841 263.329 566.516 263.344L508.067 266.124H507.991C507.73 266.123 507.473 266.06 507.241 265.94C507.01 265.819 506.81 265.645 506.66 265.431C506.509 265.218 506.412 264.971 506.376 264.712C506.341 264.454 506.368 264.19 506.455 263.944C509.081 256.733 507.515 244.519 505.899 236.102C503.298 252.223 497.581 265.902 497.294 266.568C497.169 266.863 496.96 267.116 496.692 267.294C496.425 267.472 496.111 267.567 495.79 267.567C495.726 267.571 495.662 267.571 495.597 267.567C491.845 267.124 488.069 266.902 484.29 266.902C460.204 266.902 442.703 275.926 442.518 276.016C442.31 276.124 442.083 276.186 441.85 276.198C441.766 276.198 431.643 276.747 418.112 276.747Z" fill="#CE44A2"/>
<path d="M524.337 137.736C545.132 137.736 568.651 144.608 592.215 162.183C593.425 163.089 594.636 164.021 595.847 164.978C626.141 189.014 639.635 230.106 640.888 244.908C641.451 251.479 637.448 274.465 627.212 274.465H626.933C623.456 274.324 616.885 272.87 609.664 270.995C598.64 268.127 585.604 264.926 580.039 263.57C579.7 263.495 579.38 263.353 579.097 263.151C578.815 262.95 578.576 262.694 578.394 262.398C578.212 262.103 578.092 261.774 578.04 261.43C577.988 261.087 578.006 260.737 578.092 260.401C581.928 246.035 574.071 230.459 571.997 227.239C571.721 226.814 571.565 226.585 571.565 226.585C574.932 236.804 566.45 261.731 566.45 261.731L507.991 264.508C512.194 252.965 506.295 229.859 505.467 226.748C505.405 226.519 505.369 226.385 505.369 226.385C504.097 246.26 495.79 265.921 495.79 265.921C491.975 265.469 488.136 265.243 484.294 265.245C459.474 265.245 441.77 274.545 441.77 274.545C441.77 274.545 431.752 275.109 418.109 275.109C414.585 275.109 410.815 275.069 406.917 274.978C405.417 274.941 406.856 250.12 405.323 250.065C403.35 250.065 398.421 274.592 396.416 274.592C394.687 274.505 393.06 274.473 391.516 274.473C386.493 274.473 382.337 274.836 378.262 274.836C374.609 274.886 370.965 274.467 367.419 273.589C362.428 234.991 384.059 196.788 402.94 170.974C403.39 170.356 403.844 169.753 404.295 169.157C420.277 148.184 441.737 143.681 457.222 143.681C468.845 143.681 477.12 146.225 477.12 146.225C477.12 146.225 477.567 146.033 478.573 145.687C481.842 144.557 491.093 141.799 510.174 138.83C514.861 138.102 519.597 137.737 524.34 137.739M524.34 134.468C519.426 134.468 514.519 134.844 509.662 135.595C490.156 138.637 480.687 141.504 477.519 142.595L476.971 142.787C470.515 141.183 463.885 140.385 457.233 140.41C441.199 140.41 418.552 145.055 401.705 167.176C401.185 167.867 400.731 168.474 400.314 169.041C388.476 185.231 379.355 201.116 373.209 216.26C364.902 236.702 361.869 256.134 364.179 274.018C364.263 274.669 364.542 275.28 364.978 275.771C365.414 276.261 365.987 276.609 366.624 276.769C370.425 277.709 374.331 278.159 378.247 278.107C380.245 278.107 382.221 278.027 384.313 277.94C386.58 277.845 388.926 277.751 391.502 277.751C393.133 277.751 394.684 277.791 396.224 277.867H396.402C399.424 277.867 400.51 274.629 401.487 271.776C401.937 270.439 402.413 268.869 402.9 267.182C402.918 268.669 402.943 270.064 402.998 271.26C403.029 272.319 403.118 273.376 403.263 274.425C403.329 274.93 403.45 275.427 403.626 275.904C403.866 276.572 404.301 277.152 404.873 277.57C405.445 277.988 406.129 278.226 406.837 278.252C410.47 278.336 414.269 278.383 418.098 278.383C431.675 278.383 441.842 277.831 441.944 277.827C442.412 277.803 442.869 277.679 443.284 277.464C443.451 277.376 460.647 268.538 484.29 268.538C488.003 268.538 491.714 268.757 495.401 269.192C495.529 269.207 495.658 269.214 495.786 269.214C496.429 269.214 497.057 269.025 497.592 268.67C498.128 268.315 498.547 267.81 498.798 267.219C501.648 260.164 503.956 252.901 505.699 245.493C506.462 252.282 506.52 259.02 504.925 263.392C504.746 263.885 504.689 264.415 504.757 264.935C504.826 265.455 505.019 265.952 505.319 266.382C505.62 266.812 506.02 267.164 506.485 267.407C506.95 267.65 507.466 267.777 507.991 267.778H508.147L566.592 264.995C567.248 264.964 567.879 264.736 568.404 264.342C568.929 263.947 569.323 263.403 569.534 262.781C569.621 262.523 571.714 256.302 573.446 248.71C573.93 246.57 574.334 244.544 574.656 242.63C575.785 247.354 576.519 253.572 574.925 259.554C574.725 260.3 574.678 261.079 574.786 261.844C574.894 262.609 575.155 263.344 575.553 264.006C575.955 264.689 576.491 265.284 577.128 265.755C577.765 266.227 578.491 266.565 579.262 266.75C584.456 268.018 597.736 271.274 608.84 274.164C617.557 276.431 623.438 277.598 626.794 277.736H627.209C629.319 277.736 632.472 277.038 635.512 273.738C639.261 269.65 641.404 263.199 642.544 258.504C643.772 253.416 644.415 247.856 644.143 244.636C643.521 237.389 640.02 223.194 632.185 206.989C625.977 194.157 614.986 176.007 597.863 162.423C596.653 161.46 595.407 160.5 594.158 159.57C582.654 150.986 570.587 144.495 558.292 140.283C547.372 136.481 535.899 134.515 524.337 134.465L524.34 134.468Z" fill="#17091D"/>
<path d="M592.204 162.183C576.755 157.124 519.31 140.261 492.677 159.661C492.248 159.966 491.831 160.285 491.424 160.617C491.424 160.617 481.98 144.095 444.465 152.923C427.197 156.986 406.5 176.389 396.398 180.906C396.852 180.288 403.085 170.661 403.528 170.058C431.516 132.237 477.116 146.221 477.116 146.221C477.116 146.221 477.563 146.029 478.569 145.684C481.838 144.553 491.09 141.795 510.171 138.826C534.06 135.097 563.119 140.476 592.204 162.183Z" fill="#D969BD"/>
<path d="M476.684 144.825C476.907 144.32 477.497 144.091 478.003 144.314C483.356 146.673 487.373 150.653 490.037 154.002C491.372 155.682 492.379 157.216 493.052 158.333C493.39 158.892 493.644 159.349 493.815 159.667C493.901 159.826 493.966 159.951 494.01 160.037C494.032 160.08 494.049 160.114 494.061 160.138C494.067 160.15 494.072 160.16 494.075 160.166C494.076 160.169 494.078 160.172 494.079 160.174C494.079 160.175 494.08 160.176 494.081 160.177V160.178L494.122 160.273C494.296 160.748 494.085 161.288 493.62 161.515C493.123 161.757 492.525 161.55 492.283 161.054C492.283 161.053 492.282 161.052 492.281 161.05C492.279 161.046 492.276 161.04 492.272 161.031C492.263 161.014 492.249 160.986 492.23 160.948C492.192 160.874 492.133 160.762 492.054 160.615C491.897 160.323 491.659 159.895 491.34 159.366C490.701 158.308 489.744 156.847 488.471 155.247C485.919 152.038 482.143 148.324 477.196 146.144C476.691 145.921 476.462 145.331 476.684 144.825Z" fill="#17091D"/>
<path d="M447.029 198.096C447.559 197.127 448.774 196.77 449.743 197.3C450.712 197.83 451.069 199.045 450.539 200.014L450.538 200.013V200.015C450.537 200.017 450.534 200.023 450.53 200.03C450.523 200.043 450.512 200.065 450.496 200.095C450.464 200.155 450.415 200.248 450.351 200.373C450.221 200.624 450.029 201.004 449.788 201.505C449.305 202.507 448.623 203.995 447.838 205.911C446.268 209.746 444.293 215.286 442.688 222.08C439.478 235.677 437.771 254.218 443.694 274.131C444.009 275.19 443.406 276.302 442.348 276.617C441.289 276.932 440.175 276.329 439.86 275.271C433.681 254.499 435.476 235.216 438.795 221.161C440.455 214.13 442.501 208.388 444.136 204.396C444.953 202.399 445.67 200.837 446.185 199.769C446.442 199.234 446.649 198.822 446.794 198.541C446.866 198.401 446.923 198.293 446.963 198.218C446.983 198.181 446.999 198.153 447.01 198.132C447.015 198.122 447.019 198.114 447.022 198.108C447.024 198.105 447.025 198.102 447.026 198.1C447.027 198.099 447.028 198.097 447.028 198.097C447.032 198.098 447.102 198.136 448.444 198.869L447.029 198.096Z" fill="#17091D"/>
<path d="M399.791 227.675C399.949 227.146 400.507 226.845 401.036 227.003C401.565 227.161 401.865 227.718 401.707 228.247V228.25C401.706 228.252 401.706 228.254 401.705 228.257C401.703 228.263 401.7 228.273 401.696 228.285C401.689 228.311 401.677 228.35 401.662 228.401C401.632 228.502 401.587 228.654 401.53 228.849C401.416 229.239 401.253 229.807 401.054 230.514C400.654 231.929 400.112 233.904 399.539 236.138C398.39 240.621 397.134 246.1 396.657 250.216C396.593 250.764 396.097 251.157 395.549 251.094C395 251.03 394.607 250.534 394.671 249.986C395.164 245.725 396.45 240.134 397.601 235.642C398.179 233.388 398.726 231.398 399.129 229.971C399.33 229.257 399.495 228.684 399.61 228.289C399.668 228.092 399.713 227.938 399.744 227.834C399.759 227.782 399.771 227.743 399.779 227.716C399.783 227.703 399.786 227.693 399.788 227.686C399.789 227.683 399.789 227.68 399.79 227.678L399.791 227.675Z" fill="#17091D"/>
<path d="M594.73 195.634C595.537 194.879 596.803 194.92 597.558 195.727L596.261 196.941C597.486 195.795 597.555 195.732 597.559 195.729C597.56 195.73 597.562 195.731 597.562 195.731C597.564 195.733 597.566 195.736 597.568 195.738C597.573 195.744 597.579 195.751 597.587 195.759C597.602 195.775 597.622 195.797 597.646 195.824C597.696 195.879 597.766 195.958 597.852 196.059C598.026 196.26 598.271 196.555 598.575 196.941C599.183 197.715 600.027 198.861 601.007 200.391C602.966 203.45 605.468 208.043 607.709 214.25C612.195 226.678 615.615 245.517 611.623 271.398C611.455 272.49 610.433 273.238 609.342 273.07C608.25 272.902 607.501 271.88 607.67 270.788C611.56 245.566 608.205 227.404 603.946 215.608C601.815 209.704 599.451 205.378 597.639 202.548C596.732 201.133 595.964 200.091 595.431 199.413C595.164 199.074 594.957 198.826 594.82 198.668C594.752 198.589 594.702 198.532 594.671 198.497C594.655 198.48 594.644 198.468 594.639 198.462L594.636 198.459C594.636 198.459 594.636 198.459 594.637 198.458C594.636 198.457 594.635 198.457 594.635 198.457C593.883 197.651 593.925 196.388 594.73 195.634Z" fill="#17091D"/>
<path d="M556.324 196.424C557.165 195.708 558.428 195.81 559.143 196.651L557.809 197.786C559.138 196.656 559.144 196.652 559.144 196.652L559.145 196.654C559.146 196.655 559.147 196.656 559.148 196.657C559.151 196.66 559.154 196.664 559.157 196.668C559.164 196.676 559.174 196.688 559.186 196.702C559.21 196.731 559.244 196.771 559.286 196.823C559.371 196.928 559.493 197.08 559.648 197.278C559.958 197.674 560.399 198.256 560.941 199.019C562.026 200.544 563.517 202.794 565.172 205.73C568.481 211.599 572.453 220.219 575.146 231.272C575.408 232.345 574.75 233.427 573.677 233.689C572.603 233.95 571.521 233.292 571.26 232.219C568.667 221.579 564.848 213.301 561.687 207.694C560.107 204.892 558.693 202.759 557.681 201.337C557.176 200.626 556.771 200.092 556.497 199.741C556.36 199.566 556.255 199.437 556.187 199.354C556.153 199.312 556.128 199.282 556.113 199.264C556.105 199.255 556.1 199.248 556.098 199.244L556.097 199.243L555.972 199.081C555.396 198.247 555.535 197.095 556.324 196.424Z" fill="#17091D"/>
<path d="M498.187 194.107C499.216 193.707 500.375 194.218 500.775 195.247L499.064 195.911C500.758 195.254 500.775 195.248 500.776 195.248V195.25C500.776 195.251 500.777 195.253 500.778 195.254C500.779 195.257 500.781 195.262 500.783 195.267C500.787 195.278 500.793 195.293 500.8 195.313C500.815 195.352 500.837 195.409 500.865 195.484C500.92 195.632 501.001 195.85 501.102 196.131C501.304 196.694 501.591 197.514 501.932 198.554C502.614 200.634 503.514 203.601 504.398 207.167C506.161 214.281 507.878 223.86 507.608 233.568C507.577 234.672 506.657 235.543 505.553 235.512C504.449 235.481 503.579 234.56 503.61 233.456C503.866 224.248 502.233 215.057 500.516 208.129C499.66 204.674 498.787 201.802 498.13 199.799C497.802 198.798 497.529 198.015 497.338 197.486C497.243 197.221 497.168 197.019 497.118 196.886C497.094 196.819 497.075 196.77 497.063 196.738C497.057 196.721 497.052 196.71 497.049 196.702C497.048 196.699 497.047 196.696 497.046 196.695L497.045 196.694C496.646 195.664 497.158 194.506 498.187 194.107Z" fill="#17091D"/>
<path d="M497.275 197.094C498.105 198.337 498.844 199.639 499.484 200.99C500.145 202.334 500.712 203.715 501.249 205.114C502.302 207.926 503.152 210.809 503.792 213.742C505.048 219.633 505.573 225.657 505.354 231.677C505.248 234.683 504.966 237.68 504.507 240.653L504.34 241.765L504.137 242.856C504.003 243.582 503.854 244.328 503.708 245.065C503.345 246.519 503.058 247.973 502.619 249.426C501.059 255.192 498.765 260.734 495.793 265.915C497.097 260.1 498.362 254.42 499.27 248.696L499.448 247.606L499.593 246.515L499.909 244.371C499.989 243.644 500.069 242.939 500.16 242.223L500.294 241.151L500.392 240.061L500.606 237.913L500.759 235.762C500.824 235.035 500.853 234.326 500.893 233.61C500.933 232.894 500.977 232.157 500.984 231.455C501.193 225.704 501 219.946 500.407 214.222C500.112 211.347 499.702 208.483 499.193 205.616C498.685 202.749 498.078 199.958 497.275 197.094Z" fill="#D969BD"/>
<path d="M556.603 198.576C557.652 199.526 558.64 200.542 559.56 201.618C560.486 202.708 561.358 203.799 562.193 204.954C563.859 207.264 565.352 209.693 566.661 212.223C567.978 214.765 569.107 217.401 570.039 220.109C570.522 221.461 570.911 222.845 571.292 224.23C571.674 225.615 571.964 227.028 572.226 228.446C572.357 229.154 572.473 229.867 572.564 230.583L572.713 231.655L572.825 232.745C572.865 233.108 572.901 233.472 572.927 233.835L572.989 234.925C573.014 235.289 573.018 235.652 573.021 236.016C573.025 236.379 573.021 236.743 573.021 237.106C572.96 240.002 572.618 242.885 572.001 245.715C571.397 248.489 570.618 251.221 569.669 253.896C568.741 256.56 567.674 259.173 566.472 261.724C567.068 256.109 568.078 250.618 568.586 245.196C568.852 242.526 568.946 239.842 568.866 237.161C568.804 235.83 568.717 234.544 568.532 233.207L568.412 232.203L568.288 231.208C568.201 230.543 568.067 229.881 567.958 229.216C567.489 226.561 566.883 223.933 566.142 221.341C565.96 220.687 565.778 220.04 565.564 219.393C565.35 218.746 565.157 218.099 564.95 217.456C564.511 216.169 564.075 214.879 563.581 213.607C562.625 211.063 561.554 208.519 560.395 206.026C559.236 203.533 557.972 201.04 556.603 198.576Z" fill="#D969BD"/>
<path d="M595.251 198.062C597.154 200.569 598.864 203.216 600.365 205.981C601.891 208.739 603.268 211.577 604.492 214.482C606.967 220.321 608.794 226.415 609.94 232.653C610.227 234.216 610.471 235.793 610.641 237.377C610.812 238.962 610.961 240.568 611.055 242.102C611.266 245.213 611.393 248.367 611.339 251.533C611.29 254.696 611.031 257.853 610.561 260.981C610.104 264.102 609.4 267.181 608.458 270.191C608.4 267.036 608.393 263.929 608.287 260.843C608.182 257.758 608.011 254.698 607.75 251.645C607.488 248.592 607.154 245.54 606.842 242.454C606.758 241.684 606.686 240.895 606.595 240.154C606.504 239.412 606.446 238.646 606.341 237.897L606.195 236.767L606.025 235.644C605.923 234.892 605.799 234.143 605.661 233.394C604.605 227.375 603.174 221.427 601.375 215.587C599.61 209.728 597.543 203.906 595.251 198.062Z" fill="#D969BD"/>
<path d="M447.364 198.58C446.161 201.655 445.09 204.733 444.094 207.833C443.099 210.933 442.202 214.033 441.414 217.162C439.818 223.382 438.653 229.705 437.927 236.085C437.84 236.877 437.771 237.673 437.691 238.469C437.611 239.265 437.56 240.065 437.509 240.86C437.458 241.656 437.371 242.456 437.356 243.255C437.342 244.055 437.302 244.851 437.262 245.65C437.2 248.848 437.204 252.054 437.4 255.259C437.731 261.681 438.74 268.062 440.026 274.546C438.51 271.597 437.252 268.521 436.267 265.355C435.733 263.774 435.348 262.157 434.941 260.54C434.73 259.729 434.599 258.908 434.429 258.09C434.258 257.272 434.091 256.451 433.993 255.623L433.63 253.14C433.528 252.312 433.47 251.476 433.39 250.644L433.274 249.394C433.248 248.976 433.237 248.558 433.216 248.14C433.186 247.304 433.136 246.468 433.121 245.632C433.121 243.957 433.121 242.281 433.205 240.61C433.241 239.774 433.285 238.938 433.364 238.106C433.444 237.273 433.499 236.438 433.59 235.605C434.338 228.964 435.866 222.435 438.141 216.151C439.282 213.026 440.616 209.974 442.137 207.015C442.888 205.54 443.702 204.108 444.563 202.676C445.415 201.257 446.35 199.889 447.364 198.58Z" fill="#D969BD"/>
</svg>
