<svg width="1000" height="1000" viewBox="0 0 1000 1000" fill="none" xmlns="http://www.w3.org/2000/svg">
<path d="M648.745 288.555C648.645 288.556 648.545 288.546 648.447 288.526C648.136 288.468 647.849 288.321 647.619 288.103C647.39 287.885 647.228 287.605 647.154 287.297C644.666 276.867 638.847 259.619 633.827 257.744C631.615 256.915 630.195 256.581 628.931 256.581C627.213 256.581 625.495 257.203 622.374 258.329C619.966 259.201 616.668 260.393 611.989 261.771C610.466 262.235 608.885 262.48 607.293 262.498C594.017 262.479 589.523 244.944 589.356 244.218C584.943 226.704 579.444 213.643 573.011 205.404C565.946 196.337 559.407 195.054 555.078 194.207C554.613 194.116 554.173 194.029 553.77 193.942C551.697 193.481 549.535 193.64 547.551 194.4C546.647 194.736 545.718 195.002 544.773 195.196C543.652 195.424 542.512 195.539 541.369 195.541C539.653 195.546 537.947 195.27 536.32 194.723C532.463 193.422 527.406 192.765 521.29 192.765C509.114 192.765 497.091 195.378 493.433 197.184C493.168 197.304 492.917 197.454 492.685 197.631C491.595 198.568 489.924 202.243 488.01 206.498C483.48 216.558 476.633 231.76 463.444 244.923C449.641 258.693 433.576 262.93 425.228 264.235C423.168 264.575 421.086 264.773 418.999 264.827H418.828L418.102 264.751L417.938 264.725L415.759 264.271C415.604 264.665 415.4 265.037 415.152 265.38C409.061 274.004 367.267 280.803 365.491 281.087C365.405 281.101 365.319 281.108 365.233 281.108C364.88 281.109 364.536 280.995 364.253 280.784C363.97 280.573 363.763 280.276 363.662 279.937C363.562 279.598 363.574 279.236 363.697 278.905C363.82 278.574 364.046 278.291 364.343 278.099C367.87 275.817 370.718 272.928 372.799 270.831C374.252 269.377 375.316 268.287 376.268 267.702C369.279 266.288 362.628 262.272 356.497 255.763C351.534 250.396 347.435 244.289 344.347 237.661C344.239 237.412 344.195 237.14 344.218 236.87C344.242 236.6 344.332 236.339 344.48 236.112C344.629 235.885 344.832 235.699 345.07 235.57C345.309 235.44 345.576 235.373 345.847 235.372C345.935 235.372 346.022 235.379 346.108 235.394C350.082 236.073 354.104 236.438 358.135 236.484C365.08 236.484 369.112 235.132 371.273 233.995C371.292 233.995 371.273 233.929 371.273 233.915H371.233C357.129 231.992 348.143 223.503 343.083 216.714C337.7 209.486 335.596 202.784 335.509 202.504C335.434 202.259 335.418 202.001 335.461 201.748C335.504 201.496 335.605 201.258 335.757 201.052C335.909 200.846 336.107 200.678 336.335 200.562C336.563 200.447 336.815 200.386 337.071 200.385C337.245 200.384 337.418 200.413 337.583 200.469C343.098 202.356 348.878 203.348 354.706 203.409C378.8 203.409 392.624 184.21 397.452 175.953C397.608 175.687 397.699 175.388 397.717 175.08C397.735 174.772 397.68 174.464 397.555 174.182C397.43 173.9 397.24 173.652 397.001 173.458C396.761 173.264 396.479 173.13 396.177 173.067C385.058 170.712 375.999 163.825 369.25 152.592C365.178 145.822 362.785 138.746 361.491 133.999C360.703 131.217 360.096 128.386 359.675 125.524C359.636 125.216 359.685 124.903 359.817 124.622C359.949 124.341 360.159 124.103 360.421 123.937C360.684 123.771 360.988 123.684 361.299 123.685C361.609 123.686 361.913 123.776 362.174 123.944C362.345 124.053 379.639 134.875 404.31 134.875C418.439 134.875 432.279 131.376 445.453 124.471C470.408 111.409 490.556 108.662 503.041 108.662C506.885 108.65 510.725 108.923 514.53 109.479C510.113 106.747 505.013 103.868 504.955 103.836C504.663 103.671 504.429 103.422 504.284 103.12C504.138 102.818 504.089 102.479 504.143 102.149C504.196 101.818 504.35 101.512 504.583 101.272C504.816 101.031 505.117 100.868 505.445 100.805C508.943 100.125 512.347 99.6126 515.616 99.2819H515.659C518.872 98.9484 522.099 98.7786 525.329 98.7731C539.288 98.7731 551.453 102.127 561.485 108.742C567.942 112.985 573.41 118.57 577.515 125.117C576.116 114.251 568.071 98.8967 567.998 98.7404C567.866 98.4906 567.801 98.211 567.81 97.9287C567.818 97.6464 567.899 97.3711 568.046 97.1296C568.192 96.888 568.398 96.6885 568.645 96.5505C568.891 96.4124 569.169 96.3406 569.451 96.3418C569.648 96.3411 569.844 96.3769 570.028 96.4472C587.068 102.891 598.524 111.867 604.082 123.133C607.744 130.596 608.769 139.082 606.988 147.203C606.986 147.216 606.986 147.229 606.988 147.242C606.915 147.606 606.835 147.926 606.759 148.246C606.681 148.566 606.673 148.899 606.735 149.223C606.798 149.547 606.93 149.853 607.122 150.121C607.305 150.387 607.543 150.61 607.82 150.775C608.097 150.941 608.407 151.045 608.728 151.08C615.373 151.849 621.814 153.863 627.714 157.018C636.493 161.743 643.38 168.833 648.179 178.057C655.312 191.761 663.798 198.481 669.664 201.705C675.999 205.186 680.724 205.455 680.768 205.455C681.016 205.468 681.257 205.536 681.474 205.655C681.692 205.775 681.879 205.942 682.023 206.144C682.166 206.346 682.262 206.578 682.304 206.822C682.345 207.067 682.33 207.318 682.261 207.556C681.513 209.987 680.338 212.266 678.792 214.286C674.749 219.687 668.621 223.517 664.204 225.781C663.684 226.048 663.223 226.418 662.852 226.87C662.481 227.322 662.207 227.846 662.047 228.409C661.854 229.08 661.826 229.788 661.963 230.473C665.203 246.547 661.822 261.28 658.415 270.813C654.728 281.127 650.325 287.585 650.14 287.853C649.984 288.077 649.775 288.258 649.531 288.381C649.288 288.503 649.018 288.563 648.745 288.555Z" fill="#CE44A2"/>
<path d="M569.431 97.9737C607.691 112.441 607.637 136.209 605.337 146.905C605.268 147.239 605.192 147.559 605.119 147.864C604.987 148.405 604.972 148.968 605.074 149.515C605.176 150.062 605.393 150.581 605.71 151.038C606.028 151.496 606.439 151.88 606.917 152.166C607.394 152.452 607.927 152.633 608.479 152.698C617.284 153.715 636.005 158.316 646.666 178.806C660.949 206.251 680.632 207.083 680.632 207.083C679.939 209.329 678.852 211.434 677.421 213.298C673.495 218.542 667.432 222.253 663.397 224.317C662.676 224.684 662.039 225.197 661.525 225.822C661.011 226.448 660.632 227.172 660.411 227.951C660.146 228.874 660.107 229.848 660.298 230.789C666.426 261.189 648.729 286.916 648.729 286.916C648.729 286.916 642.093 259.089 634.382 256.207C632.05 255.335 630.444 254.942 628.933 254.942C625.413 254.942 622.286 257.036 611.53 260.197C610.157 260.614 608.73 260.83 607.295 260.841C595.145 260.841 590.928 243.807 590.928 243.807C585.842 223.674 579.965 211.655 574.288 204.38C566.075 193.84 558.306 193.244 554.107 192.325C553.223 192.129 552.32 192.03 551.415 192.031C549.896 192.033 548.39 192.31 546.969 192.848C546.142 193.156 545.292 193.399 544.426 193.575C543.414 193.782 542.383 193.887 541.35 193.888C539.81 193.892 538.281 193.647 536.82 193.161C532.461 191.707 526.944 191.115 521.27 191.115C509.443 191.115 496.933 193.611 492.691 195.701C492.302 195.879 491.937 196.102 491.601 196.366C487.395 199.935 481.641 224.411 462.259 243.749C448.855 257.134 433.28 261.298 424.962 262.603C422.989 262.934 420.997 263.131 418.998 263.192L418.271 263.116L414.406 262.309C416.012 271.082 366.016 279.342 365.239 279.469C371.359 275.505 375.318 270.021 377.294 268.988L377.345 268.963C377.627 268.827 377.86 268.606 378.009 268.33C378.158 268.055 378.217 267.74 378.176 267.429C378.136 267.118 377.999 266.828 377.785 266.6C377.57 266.372 377.289 266.217 376.982 266.157C369.136 264.686 362.671 259.903 357.702 254.626C352.872 249.392 348.878 243.445 345.86 236.993C349.921 237.682 354.03 238.047 358.148 238.083C365.166 238.083 369.478 236.757 372.046 235.408C372.429 235.214 372.721 234.876 372.856 234.467C372.933 234.229 372.957 233.978 372.926 233.73C372.896 233.481 372.811 233.243 372.677 233.032C372.544 232.82 372.366 232.641 372.156 232.505C371.946 232.37 371.709 232.283 371.461 232.25C358.337 230.502 349.721 222.889 344.396 215.736C341.264 211.569 338.794 206.943 337.073 202.021C343.463 204.14 349.336 205.045 354.709 205.045C379.434 205.045 393.575 185.831 398.863 176.778C399.15 176.289 399.317 175.739 399.35 175.173C399.382 174.607 399.28 174.041 399.051 173.523C398.822 173.004 398.473 172.547 398.033 172.19C397.593 171.833 397.075 171.585 396.521 171.468C384.109 168.841 375.954 160.566 370.655 151.749C366.797 145.335 364.447 138.622 363.07 133.578C362.31 130.868 361.723 128.113 361.312 125.328C361.312 125.328 378.838 136.518 404.334 136.518C416.775 136.518 431.108 133.854 446.237 125.928C470.283 113.328 489.825 110.301 503.039 110.301C507.605 110.273 512.163 110.673 516.653 111.497C516.731 111.511 516.81 111.518 516.889 111.518C517.052 111.519 517.213 111.484 517.36 111.415C517.507 111.346 517.636 111.244 517.739 111.119C517.848 110.996 517.928 110.851 517.975 110.694C518.021 110.537 518.033 110.371 518.01 110.209C517.986 110.047 517.928 109.892 517.839 109.755C517.749 109.617 517.631 109.501 517.492 109.414C512.694 106.321 505.753 102.407 505.753 102.407C509.245 101.727 512.583 101.226 515.767 100.906C518.937 100.574 522.122 100.406 525.309 100.401C556.591 100.401 571.026 117.602 576.358 126.386C576.48 126.591 576.648 126.766 576.849 126.895C577.084 127.044 577.358 127.122 577.637 127.12C577.854 127.124 578.07 127.082 578.27 126.995C578.47 126.909 578.648 126.78 578.794 126.619C578.94 126.457 579.049 126.266 579.114 126.058C579.18 125.851 579.2 125.632 579.173 125.416C577.917 114.091 569.421 97.97 569.421 97.97M569.421 94.6993C568.856 94.6967 568.3 94.8405 567.808 95.1166C567.315 95.3927 566.903 95.7917 566.61 96.2748C566.318 96.7578 566.155 97.3084 566.138 97.873C566.122 98.4376 566.251 98.9969 566.515 99.4964C566.576 99.6127 571.36 108.756 574.143 117.776C570.725 113.769 566.758 110.265 562.359 107.368C552.058 100.576 539.592 97.1305 525.309 97.1305C522.034 97.1368 518.76 97.309 515.502 97.6466H515.436C512.142 97.9809 508.673 98.5006 505.128 99.1911C504.472 99.3193 503.871 99.6457 503.406 100.126C502.941 100.607 502.634 101.218 502.527 101.878C502.421 102.538 502.519 103.216 502.808 103.818C503.098 104.421 503.565 104.921 504.147 105.249C504.176 105.268 505.527 106.027 507.416 107.132C505.98 107.059 504.519 107.023 503.032 107.023C494.565 107.078 486.136 108.144 477.922 110.199C467.046 112.852 455.873 117.162 444.711 123.013C431.776 129.791 418.195 133.229 404.326 133.229C380.066 133.229 363.23 122.661 363.063 122.552C362.538 122.218 361.928 122.041 361.306 122.041C360.683 122.042 360.074 122.22 359.55 122.555C359.025 122.89 358.607 123.368 358.345 123.933C358.082 124.498 357.987 125.125 358.068 125.743C358.497 128.68 359.114 131.586 359.917 134.443C361.236 139.287 363.684 146.516 367.854 153.446C370.989 158.669 374.686 163.051 378.845 166.471C383.762 170.546 389.597 173.363 395.845 174.677C395.902 174.689 395.954 174.718 395.994 174.761C396.039 174.809 396.068 174.87 396.076 174.935C396.085 175 396.072 175.066 396.041 175.124C391.359 183.119 377.956 201.77 354.709 201.77C349.056 201.71 343.449 200.746 338.101 198.914C337.77 198.803 337.423 198.746 337.073 198.747C336.562 198.747 336.057 198.867 335.601 199.097C335.144 199.328 334.748 199.663 334.444 200.075C334.14 200.487 333.937 200.964 333.851 201.469C333.765 201.973 333.799 202.491 333.95 202.98C335.777 208.26 338.417 213.223 341.774 217.688C347.974 226.014 355.94 231.662 365.061 234.253C362.781 234.642 360.472 234.828 358.159 234.809C354.215 234.769 350.28 234.418 346.39 233.758C346.218 233.729 346.043 233.715 345.867 233.715C345.325 233.715 344.791 233.85 344.314 234.108C343.837 234.366 343.431 234.739 343.134 235.193C342.837 235.647 342.657 236.168 342.611 236.708C342.565 237.249 342.654 237.793 342.871 238.29C346.034 245.091 350.237 251.356 355.33 256.861C360.778 262.654 366.655 266.55 372.83 268.491C372.467 268.854 372.075 269.246 371.657 269.672C369.518 271.852 366.855 274.538 363.477 276.729C362.888 277.113 362.439 277.676 362.195 278.336C361.952 278.995 361.927 279.715 362.125 280.39C362.323 281.064 362.732 281.657 363.293 282.081C363.854 282.504 364.536 282.735 365.239 282.74C365.414 282.74 365.589 282.726 365.762 282.7C365.867 282.7 376.891 280.883 388.468 278.063C409.811 272.892 414.686 268.887 416.498 266.321L416.636 266.121L417.599 266.321C417.708 266.343 417.817 266.361 417.926 266.372L418.652 266.448C418.765 266.448 418.881 266.466 418.994 266.466C421.157 266.405 423.314 266.195 425.449 265.838C433.988 264.507 450.432 260.165 464.562 246.068C477.969 232.697 484.903 217.328 489.465 207.16C490.973 203.813 492.847 199.655 493.7 198.874C493.835 198.787 493.974 198.708 494.118 198.638C497.718 196.864 509.777 194.389 521.256 194.389C527.111 194.389 532.127 195.036 535.76 196.264C537.557 196.866 539.44 197.17 541.335 197.166C542.586 197.169 543.835 197.047 545.062 196.802C546.092 196.592 547.103 196.302 548.088 195.934C549.778 195.278 551.623 195.134 553.395 195.519C553.823 195.614 554.266 195.701 554.739 195.792C558.843 196.61 565.018 197.813 571.705 206.393C577.997 214.454 583.394 227.311 587.753 244.61C588.653 247.913 589.998 251.078 591.749 254.019C595.744 260.622 601.113 264.115 607.284 264.115C609.032 264.104 610.769 263.842 612.442 263.337C617.164 261.949 620.491 260.746 622.921 259.867C625.867 258.802 627.491 258.217 628.922 258.217C629.979 258.217 631.232 258.522 633.245 259.274C633.608 259.405 636.768 260.91 641.359 273.702C643.902 280.767 645.54 287.61 645.558 287.679C645.705 288.294 646.026 288.854 646.484 289.29C646.942 289.726 647.516 290.02 648.137 290.136C648.335 290.172 648.536 290.19 648.737 290.19C649.266 290.19 649.788 290.061 650.257 289.814C650.726 289.567 651.128 289.21 651.428 288.773C651.621 288.497 656.15 281.868 659.899 271.358C663.375 261.633 666.826 246.587 663.509 230.146C663.423 229.718 663.44 229.276 663.56 228.856C663.657 228.508 663.825 228.184 664.054 227.905C664.283 227.626 664.567 227.398 664.89 227.235C669.47 224.891 675.812 220.915 680.044 215.264C681.715 213.091 682.986 210.637 683.796 208.017C683.942 207.539 683.975 207.033 683.895 206.539C683.814 206.045 683.621 205.576 683.331 205.168C683.043 204.765 682.665 204.434 682.228 204.2C681.791 203.966 681.306 203.836 680.81 203.82C680.56 203.802 676.128 203.456 670.229 200.167C664.617 197.038 656.484 190.533 649.594 177.297C644.643 167.779 637.531 160.471 628.457 155.576C622.374 152.323 615.734 150.246 608.882 149.452C608.791 149.442 608.703 149.413 608.624 149.366C608.545 149.319 608.477 149.255 608.425 149.18C608.37 149.102 608.333 149.013 608.316 148.92C608.299 148.826 608.302 148.73 608.327 148.638V148.616C608.403 148.304 608.486 147.948 608.563 147.57V147.522C610.418 139.048 609.348 130.194 605.526 122.406C599.78 110.759 588.025 101.51 570.587 94.9137C570.217 94.7742 569.826 94.7028 569.431 94.7029L569.421 94.6993Z" fill="#17091D"/>
<path d="M648.744 286.92C648.744 286.92 642.107 259.093 634.396 256.211C626.684 253.329 626.95 255.666 611.512 260.208C596.075 264.751 590.909 243.818 590.909 243.818C585.824 223.685 579.947 211.666 574.27 204.391C582.577 206.607 597.88 211.637 620.466 222.685L633.473 232.051L644.37 234.958L660.411 227.962C660.146 228.885 660.107 229.859 660.298 230.8C666.441 261.193 648.744 286.92 648.744 286.92Z" fill="#9C398C"/>
<path d="M462.489 210.834L459.144 220.37L451.48 233.533L441.116 245.617L425.374 258.213L421.905 260.572C418.204 261.15 418.999 263.192 418.999 263.192L418.273 263.116L414.408 262.309C416.013 271.082 366.018 279.342 365.24 279.47C371.361 275.505 375.32 270.021 377.296 268.989L377.347 268.963C377.629 268.827 377.861 268.606 378.01 268.331C378.16 268.055 378.218 267.74 378.178 267.429C378.138 267.118 378.001 266.828 377.786 266.6C377.572 266.372 377.291 266.217 376.984 266.157C369.138 264.686 362.672 259.903 357.703 254.626C424.313 268.091 462.489 210.834 462.489 210.834Z" fill="#9C398C"/>
<path d="M415.001 200.789C414.707 201.287 396.135 232.497 372.866 234.467C372.943 234.23 372.967 233.978 372.936 233.73C372.906 233.482 372.821 233.243 372.687 233.032C372.554 232.82 372.376 232.641 372.166 232.506C371.956 232.371 371.719 232.283 371.471 232.25C358.347 230.502 349.731 222.889 344.406 215.737C358.631 219.076 393.984 223.681 415.001 200.789Z" fill="#9C398C"/>
<path d="M442.973 142.098C442.366 142.574 413.362 166.429 398.342 172.472C397.85 171.965 397.218 171.615 396.526 171.469C384.114 168.842 375.96 160.567 370.66 151.75C377.227 153.811 413.983 162.58 442.973 142.098Z" fill="#9C398C"/>
<path d="M544.431 193.579C541.903 194.112 539.279 193.968 536.825 193.161C523.385 188.622 498.957 192.608 492.695 195.705C496.629 184.406 506.364 161.543 520.766 161.572C535.168 161.601 541.961 183.01 544.431 193.579Z" fill="#9C398C"/>
<path d="M520.77 159.936C528.887 159.952 534.61 165.999 538.495 172.813C542.419 179.693 544.777 187.868 546.024 193.206L546.405 194.835L544.769 195.18C541.959 195.773 539.042 195.612 536.313 194.715L536.301 194.711C529.915 192.554 520.73 192.388 512.224 193.198C508 193.601 504.005 194.237 500.691 194.961C497.342 195.692 494.801 196.489 493.421 197.172L489.835 198.944L491.15 195.167C493.134 189.471 496.604 180.78 501.441 173.486C506.21 166.298 512.673 159.919 520.77 159.936ZM520.763 163.209C514.457 163.196 508.852 168.235 504.169 175.295C500.396 180.983 497.458 187.632 495.446 192.93C496.786 192.522 498.324 192.128 499.993 191.764C503.441 191.011 507.567 190.354 511.913 189.94C520.546 189.118 530.295 189.228 537.35 191.61C538.986 192.147 540.708 192.351 542.414 192.219C541.119 187.091 538.954 180.225 535.651 174.434C531.922 167.894 527.047 163.222 520.763 163.209Z" fill="#17091D"/>
<path d="M529.544 115.624H506.66C468.837 116.954 488.193 127.014 428.078 143.088C390.345 153.18 371.853 142.688 363.059 133.57C362.299 130.86 361.711 128.105 361.301 125.32C361.301 125.32 400.109 150.091 446.24 125.92C480.896 107.749 506.21 109.508 516.657 111.499C516.854 111.546 517.061 111.537 517.253 111.473C517.446 111.409 517.616 111.292 517.746 111.136L529.544 115.624Z" fill="#D969BD"/>
<path d="M680.647 207.087C679.954 209.333 678.867 211.437 677.436 213.302C660.085 211.019 651.316 201.432 635.21 176.233C615.828 145.898 589.748 158.996 589.355 159.177L606.064 150.092C607.517 151.458 606.5 150.877 606.428 151.182C605.872 153.475 606.26 151.64 608.607 151.909C617.412 152.926 636.02 158.32 646.681 178.802C660.964 206.255 680.647 207.087 680.647 207.087Z" fill="#D969BD"/>
<path d="M578.672 144.932C577.434 153.941 570.946 170.499 570.946 170.499C570.946 170.499 570.83 146.458 557.194 122.629C547.652 105.959 527.202 101.863 515.785 100.911C553.733 97.0042 570.529 116.76 576.377 126.39C576.498 126.596 576.666 126.77 576.867 126.899C578.16 133.23 579.275 140.538 578.672 144.932Z" fill="#D969BD"/>
<path d="M471.858 138.988C471.858 138.988 448.789 141.67 437.35 164.958C425.912 188.246 419.723 191.884 419.723 191.884C419.723 191.884 441.942 185.343 446.991 169.901C452.04 154.459 471.858 138.988 471.858 138.988Z" fill="#D969BD"/>
<path d="M576.098 209.135C576.907 208.734 577.888 209.065 578.289 209.875C578.289 209.875 578.291 209.875 578.292 209.877C578.294 209.88 578.296 209.887 578.301 209.895C578.309 209.912 578.324 209.939 578.343 209.976C578.381 210.051 578.441 210.165 578.521 210.315C578.683 210.616 578.929 211.061 579.26 211.625C579.922 212.752 580.922 214.352 582.262 216.216C584.946 219.951 588.973 224.718 594.353 228.887C604.302 236.597 618.923 242.323 638.541 235.539C636.494 234.838 633.942 233.834 631.214 232.444C624.709 229.13 617.033 223.547 612.92 214.552C612.544 213.73 612.906 212.759 613.727 212.383C614.549 212.008 615.521 212.369 615.896 213.191C619.579 221.244 626.528 226.383 632.7 229.528C635.772 231.093 638.612 232.144 640.681 232.801C641.714 233.13 642.552 233.36 643.127 233.506C643.414 233.58 643.635 233.631 643.781 233.665C643.854 233.681 643.908 233.693 643.943 233.701C643.961 233.705 643.974 233.708 643.981 233.71C643.985 233.71 643.987 233.71 643.988 233.711C644.689 233.854 645.215 234.437 645.287 235.149C645.359 235.861 644.961 236.537 644.303 236.818C621.147 246.72 603.815 240.36 592.349 231.474C586.651 227.058 582.414 222.035 579.604 218.127C578.198 216.17 577.143 214.484 576.437 213.282C576.084 212.681 575.818 212.199 575.639 211.865C575.549 211.698 575.48 211.568 575.434 211.477C575.41 211.432 575.392 211.397 575.38 211.372C575.374 211.359 575.369 211.349 575.365 211.341C575.363 211.338 575.361 211.335 575.36 211.333C575.36 211.332 575.36 211.33 575.359 211.33C575.363 211.327 575.441 211.287 576.824 210.601L575.358 211.328C574.957 210.518 575.288 209.537 576.098 209.135Z" fill="#17091D"/>
<path d="M634.998 219.37C635.542 218.649 636.566 218.505 637.288 219.048C637.289 219.048 637.291 219.049 637.293 219.051C637.298 219.054 637.306 219.06 637.317 219.068C637.34 219.085 637.377 219.112 637.426 219.147C637.524 219.218 637.674 219.325 637.871 219.46C638.265 219.731 638.848 220.118 639.588 220.568C641.07 221.471 643.166 222.624 645.624 223.625C650.597 225.651 656.754 226.939 662.302 224.709C663.14 224.372 664.093 224.779 664.43 225.617C664.767 226.456 664.36 227.409 663.522 227.746C656.799 230.448 649.653 228.799 644.39 226.655C641.73 225.572 639.474 224.332 637.885 223.363C637.089 222.878 636.455 222.459 636.018 222.158C635.799 222.008 635.628 221.887 635.511 221.802C635.452 221.76 635.407 221.726 635.375 221.702C635.359 221.69 635.346 221.681 635.337 221.674C635.333 221.671 635.329 221.668 635.326 221.666C635.325 221.665 635.323 221.664 635.322 221.663L635.321 221.662C635.321 221.662 635.32 221.661 636.305 220.355L635.32 221.661C634.599 221.117 634.454 220.092 634.998 219.37Z" fill="#17091D"/>
<path d="M513.876 139.516C526.005 139.045 534.54 141.515 540.453 145.678C546.377 149.849 549.485 155.591 551.001 161.299C552.511 166.986 552.458 172.687 552.043 176.927C551.835 179.056 551.534 180.836 551.283 182.089C551.158 182.716 551.045 183.213 550.963 183.556C550.922 183.728 550.888 183.861 550.864 183.954C550.852 184 550.843 184.037 550.836 184.062C550.833 184.075 550.829 184.085 550.827 184.092C550.826 184.096 550.826 184.099 550.825 184.101C550.825 184.102 550.824 184.103 550.824 184.104L549.246 183.672L550.823 184.106C550.583 184.977 549.683 185.489 548.812 185.249C547.94 185.009 547.428 184.108 547.668 183.237L547.669 183.235C547.67 183.232 547.672 183.226 547.674 183.217C547.678 183.2 547.686 183.172 547.695 183.134C547.715 183.059 547.744 182.944 547.78 182.792C547.854 182.486 547.958 182.03 548.074 181.448C548.307 180.282 548.589 178.611 548.785 176.609C549.178 172.589 549.212 167.314 547.838 162.139C546.469 156.987 543.721 151.983 538.568 148.354C533.405 144.718 525.642 142.335 514.003 142.787C490.869 143.685 476.23 155.593 466.478 168.683C461.59 175.243 457.94 182.09 455.081 187.99C453.646 190.951 452.429 193.632 451.331 195.964C450.252 198.258 449.274 200.243 448.366 201.663C441.866 211.828 428.848 249.445 381.515 249.743C380.611 249.748 379.873 249.02 379.867 248.116C379.862 247.213 380.59 246.475 381.493 246.469C426.624 246.186 438.626 210.821 445.609 199.9C446.387 198.684 447.28 196.886 448.37 194.571C449.441 192.295 450.692 189.541 452.136 186.562C455.034 180.582 458.788 173.526 463.854 166.727C474.007 153.099 489.474 140.464 513.876 139.516Z" fill="#17091D"/>
<path d="M467.738 196.323C467.997 195.457 468.909 194.965 469.774 195.223C470.64 195.482 471.132 196.393 470.874 197.259L469.306 196.791C470.8 197.238 470.87 197.259 470.873 197.261C470.873 197.262 470.872 197.263 470.872 197.264C470.871 197.266 470.871 197.269 470.87 197.273C470.868 197.28 470.864 197.291 470.86 197.304C470.852 197.331 470.84 197.372 470.824 197.423C470.792 197.526 470.744 197.678 470.682 197.873C470.556 198.266 470.369 198.838 470.117 199.569C469.614 201.031 468.857 203.128 467.829 205.686C465.775 210.8 462.639 217.769 458.313 225.19C449.687 239.983 436.186 256.818 416.851 264.102C416.005 264.421 415.061 263.993 414.742 263.148C414.424 262.302 414.851 261.358 415.696 261.039C433.985 254.15 447 238.094 455.485 223.541C459.713 216.29 462.781 209.471 464.792 204.466C465.797 201.965 466.536 199.92 467.022 198.504C467.266 197.797 467.447 197.246 467.565 196.875C467.625 196.69 467.669 196.549 467.697 196.456C467.712 196.41 467.722 196.375 467.729 196.353C467.732 196.342 467.735 196.334 467.736 196.329C467.737 196.326 467.737 196.325 467.737 196.324L467.738 196.323Z" fill="#17091D"/>
<path d="M550.001 143.303C550.9 143.212 551.703 143.867 551.794 144.766L550.166 144.931C551.687 144.777 551.787 144.768 551.794 144.767L551.795 144.768C551.795 144.77 551.795 144.772 551.795 144.774C551.795 144.779 551.796 144.786 551.797 144.796C551.799 144.814 551.802 144.842 551.806 144.879C551.813 144.951 551.823 145.057 551.836 145.196C551.862 145.473 551.898 145.879 551.941 146.399C552.028 147.439 552.143 148.935 552.254 150.766C552.476 154.426 552.685 159.435 552.632 164.821C552.579 170.2 552.264 175.995 551.427 181.215C550.598 186.383 549.225 191.201 546.923 194.464C546.402 195.202 545.381 195.379 544.643 194.858C543.904 194.337 543.728 193.315 544.249 192.577C546.106 189.945 547.386 185.742 548.195 180.696C548.997 175.699 549.307 170.083 549.359 164.789C549.411 159.501 549.206 154.573 548.987 150.965C548.878 149.161 548.765 147.69 548.68 146.672C548.637 146.162 548.602 145.766 548.577 145.499C548.565 145.365 548.554 145.264 548.548 145.196C548.544 145.162 548.543 145.136 548.541 145.12C548.54 145.112 548.539 145.106 548.539 145.102C548.539 145.1 548.538 145.098 548.538 145.097V145.096C548.447 144.197 549.102 143.395 550.001 143.303Z" fill="#17091D"/>
<path d="M457.493 137.289C458.242 136.783 459.259 136.979 459.766 137.727C460.241 138.429 460.098 139.368 459.461 139.899L459.327 140L459.325 140.001C459.324 140.002 459.321 140.004 459.318 140.006C459.312 140.01 459.304 140.016 459.292 140.023C459.269 140.039 459.233 140.063 459.188 140.094C459.096 140.156 458.96 140.248 458.782 140.367C458.427 140.606 457.904 140.958 457.234 141.405C455.896 142.3 453.969 143.583 451.62 145.129C446.923 148.221 440.529 152.374 433.747 156.615C426.969 160.855 419.788 165.192 413.52 168.648C407.326 172.064 401.816 174.737 398.474 175.492C397.592 175.691 396.717 175.138 396.518 174.257C396.319 173.375 396.871 172.499 397.753 172.3C400.567 171.664 405.673 169.237 411.939 165.782C418.132 162.368 425.255 158.067 432.012 153.841C438.765 149.617 445.137 145.478 449.821 142.394C452.163 140.853 454.082 139.576 455.415 138.684C456.082 138.239 456.602 137.89 456.955 137.652C457.132 137.533 457.267 137.443 457.357 137.382C457.402 137.351 457.436 137.328 457.459 137.312L457.491 137.291L457.493 137.29C457.498 137.296 457.557 137.384 458.41 138.644L457.493 137.289Z" fill="#17091D"/>
<path d="M576.349 121.813C577.213 121.551 578.127 122.04 578.389 122.905C581.612 133.551 579.706 146.52 577.113 156.631C575.9 161.361 574.517 165.529 573.386 168.639C575.752 166.793 578.824 164.465 582.227 162.071C586.057 159.375 590.324 156.578 594.48 154.277C598.609 151.99 602.741 150.129 606.276 149.397C607.161 149.214 608.027 149.782 608.21 150.667C608.393 151.552 607.825 152.419 606.94 152.602C603.894 153.233 600.108 154.9 596.066 157.139C592.049 159.363 587.886 162.09 584.11 164.747C580.338 167.403 576.97 169.975 574.545 171.885C573.333 172.839 572.358 173.627 571.687 174.175C571.351 174.449 571.092 174.663 570.917 174.808C570.83 174.88 570.764 174.936 570.72 174.973C570.698 174.991 570.681 175.005 570.67 175.014C570.665 175.018 570.661 175.023 570.658 175.025C570.657 175.026 570.656 175.026 570.655 175.027H570.654C570.071 175.517 569.226 175.54 568.617 175.081C568.008 174.622 567.797 173.804 568.108 173.108L568.108 173.105C568.11 173.102 568.113 173.097 568.115 173.091C568.121 173.078 568.13 173.057 568.142 173.031C568.165 172.977 568.201 172.895 568.247 172.786C568.341 172.569 568.479 172.244 568.652 171.823C569 170.979 569.491 169.745 570.064 168.2C571.209 165.108 572.671 160.776 573.942 155.819C576.504 145.831 578.208 133.602 575.257 123.854C574.995 122.989 575.484 122.075 576.349 121.813Z" fill="#17091D"/>
</svg>
