<svg width="1000" height="1000" viewBox="0 0 1000 1000" fill="none" xmlns="http://www.w3.org/2000/svg">
<path d="M379.043 289.828C378.826 289.827 378.611 289.784 378.411 289.701C378.141 289.588 377.907 289.404 377.733 289.169C377.558 288.935 377.45 288.658 377.419 288.367C376.588 280.704 376.14 273.005 376.079 265.297C375.926 238.084 381.36 215.283 392.25 197.432L381.716 200.703C381.558 200.75 381.394 200.775 381.229 200.776C380.927 200.776 380.631 200.692 380.374 200.534C380.116 200.376 379.908 200.149 379.771 199.88C379.635 199.61 379.575 199.308 379.6 199.007C379.625 198.706 379.732 198.417 379.911 198.173C380.895 196.829 383.289 191.486 385.036 187.583C386.18 185.039 387.165 182.833 387.771 181.667C396.289 165.313 415.264 163.681 424.382 162.903C425.431 162.813 426.339 162.736 427.091 162.649C427.329 162.623 427.558 162.546 427.764 162.424C427.969 162.302 428.146 162.137 428.283 161.94C428.422 161.741 428.517 161.515 428.562 161.276C428.606 161.037 428.599 160.792 428.541 160.556L428.519 160.476C428.461 160.221 428.395 159.96 428.341 159.68C426.81 152.73 427.682 145.467 430.814 139.078C435.558 129.465 445.322 121.808 459.837 116.32C460.021 116.25 460.217 116.214 460.415 116.215C460.697 116.214 460.975 116.285 461.221 116.424C461.467 116.562 461.673 116.761 461.82 117.003C461.966 117.244 462.047 117.519 462.056 117.802C462.064 118.084 461.999 118.364 461.867 118.613C461.802 118.741 455.544 130.697 453.993 139.761C457.421 134.596 461.859 130.179 467.04 126.776C475.591 121.136 485.954 118.275 497.846 118.275C500.593 118.28 503.337 118.424 506.07 118.708H506.106C508.888 118.995 511.794 119.435 514.747 120.005C515.078 120.071 515.38 120.237 515.613 120.481C515.846 120.725 515.998 121.034 516.048 121.368C516.099 121.701 516.045 122.042 515.895 122.344C515.745 122.646 515.505 122.894 515.209 123.054C515.14 123.088 515.073 123.126 515.009 123.167L514.976 123.189C514.25 123.603 511.162 125.369 508.136 127.187C510.98 126.838 513.844 126.671 516.709 126.689C527.337 126.689 544.46 129.018 565.647 140.135C576.784 145.972 588.488 148.934 600.431 148.934C621.342 148.934 635.901 139.79 636.028 139.699C636.29 139.531 636.595 139.442 636.907 139.441C637.138 139.442 637.367 139.492 637.578 139.588C637.789 139.683 637.977 139.823 638.13 139.996C638.283 140.17 638.398 140.374 638.466 140.596C638.534 140.817 638.555 141.05 638.527 141.28C638.197 143.573 637.723 145.843 637.107 148.076C637.107 148.076 637.027 148.381 636.987 148.512C636.838 149.072 636.66 149.693 636.46 150.351C635.031 155.242 632.996 159.935 630.401 164.321C625.091 173.174 618.051 178.883 609.508 181.285L609.432 181.311C608.745 181.5 608.062 181.674 607.401 181.805L607.329 181.823L607.231 181.852H607.205C607.014 181.917 606.842 182.028 606.704 182.176C606.484 182.394 606.344 182.68 606.305 182.987C606.267 183.295 606.331 183.606 606.49 183.873C608.487 187.287 610.835 190.483 613.496 193.409C613.711 193.643 613.852 193.934 613.904 194.248C613.956 194.561 613.915 194.882 613.787 195.173C613.659 195.463 613.45 195.71 613.184 195.884C612.918 196.057 612.608 196.149 612.29 196.149H609.297C623.01 216.323 626.98 239.709 627.855 256.081C628.843 274.546 626.293 287.935 626.184 288.494C626.112 288.866 625.912 289.202 625.62 289.443C625.328 289.684 624.961 289.817 624.582 289.817C624.204 289.818 623.838 289.687 623.546 289.447C623.254 289.207 623.054 288.873 622.98 288.502L622.548 286.321C621.764 282.389 618.073 279.536 613.776 279.536C613.544 279.536 613.308 279.536 613.075 279.561H612.966C612.608 279.561 612.26 279.444 611.974 279.227L513.952 204.606C508.354 210.181 484.261 233.64 463.847 244.746C432.609 261.747 395.806 281.771 395.806 281.771C395.691 281.835 395.569 281.885 395.443 281.92L395.05 282.022C389.598 283.455 384.497 285.992 380.063 289.476C379.773 289.706 379.413 289.83 379.043 289.828Z" fill="#CE44A2"/>
<path d="M460.407 117.865C460.407 117.865 453.201 131.558 452.133 141.145C452.094 141.447 452.164 141.752 452.331 142.006C452.497 142.26 452.749 142.446 453.041 142.53C453.169 142.57 453.303 142.591 453.437 142.592C453.673 142.593 453.905 142.526 454.105 142.399C454.275 142.29 454.417 142.141 454.519 141.967C459.049 134.52 471.304 119.929 497.821 119.929C500.523 119.934 503.223 120.077 505.91 120.358C508.612 120.634 511.444 121.059 514.406 121.633L514.141 121.786C512.953 122.458 508.006 125.282 504.446 127.575C504.327 127.649 504.226 127.748 504.15 127.866C504.074 127.983 504.024 128.115 504.004 128.254C503.985 128.392 503.995 128.533 504.036 128.667C504.076 128.801 504.146 128.925 504.239 129.029C504.346 129.156 504.484 129.253 504.641 129.31C504.797 129.367 504.965 129.381 505.129 129.352H505.158C508.968 128.65 512.835 128.305 516.709 128.324C527.907 128.324 544.489 130.868 564.888 141.57C577.718 148.294 589.883 150.554 600.431 150.554C622.062 150.554 636.925 141.062 636.925 141.062C636.601 143.281 636.14 145.477 635.545 147.64C635.509 147.778 635.472 147.916 635.432 148.057C635.275 148.637 635.102 149.242 634.913 149.875C633.509 154.639 631.523 159.211 628.999 163.488C624.793 170.499 618.466 177.095 609.021 179.733H608.989C608.36 179.908 607.714 180.068 607.056 180.206L606.976 180.224L606.871 180.249H606.828C606.762 180.266 606.698 180.287 606.635 180.311C606.21 180.464 605.826 180.713 605.513 181.038C605.05 181.514 604.756 182.13 604.676 182.789C604.596 183.449 604.734 184.117 605.069 184.69C607.125 188.204 609.543 191.493 612.283 194.503H606.152C635.124 234.043 624.59 288.192 624.59 288.192L624.157 286.012C623.213 281.287 618.822 277.911 613.783 277.911C613.515 277.911 613.242 277.911 612.966 277.94L513.803 202.425C513.803 202.425 486.128 230.772 463.066 243.31C431.817 260.311 395.025 280.335 395.025 280.335L394.633 280.437C388.958 281.921 383.65 284.561 379.043 288.192C378.218 280.588 377.774 272.946 377.713 265.297C377.535 233.763 384.862 210.969 396.068 194.539L381.222 199.154C382.937 196.818 387.615 185.512 389.213 182.437C398.258 165.058 419.805 165.149 427.273 164.288C427.742 164.233 428.194 164.079 428.599 163.836C429.004 163.593 429.352 163.267 429.622 162.879C429.891 162.491 430.075 162.05 430.161 161.586C430.247 161.121 430.233 160.644 430.121 160.185C430.059 159.927 429.994 159.658 429.936 159.371C428 150.285 427.952 130.137 460.407 117.865ZM460.407 114.594H460.168C459.828 114.619 459.495 114.697 459.18 114.826C424.055 128.138 424.781 150.859 426.735 160.032C426.801 160.348 426.87 160.632 426.928 160.886V160.941C426.928 160.966 426.928 160.984 426.928 161.01C426.924 161.016 426.918 161.021 426.912 161.025C426.906 161.028 426.899 161.031 426.892 161.032C426.165 161.115 425.268 161.192 424.229 161.279C414.818 162.082 395.239 163.754 386.307 180.903C385.679 182.114 384.684 184.334 383.532 186.907C381.912 190.523 379.46 195.993 378.578 197.196C378.213 197.684 377.992 198.264 377.939 198.871C377.886 199.478 378.004 200.087 378.279 200.631C378.554 201.175 378.975 201.631 379.495 201.948C380.015 202.265 380.613 202.43 381.222 202.425C381.552 202.426 381.881 202.375 382.196 202.276L388.734 200.237C379.101 217.765 374.299 239.603 374.444 265.29C374.484 272.674 374.938 280.492 375.792 288.527C375.853 289.109 376.07 289.664 376.419 290.134C376.768 290.605 377.237 290.972 377.776 291.199C378.316 291.426 378.907 291.504 379.487 291.424C380.066 291.345 380.614 291.111 381.073 290.747C385.331 287.401 390.229 284.965 395.465 283.588L395.846 283.49C396.099 283.423 396.343 283.326 396.572 283.199C396.572 283.199 433.365 263.175 464.614 246.174C484.163 235.555 506.989 213.764 514.094 206.757L610.987 280.561C611.557 280.989 612.253 281.219 612.966 281.215H613.202C613.395 281.215 613.591 281.193 613.783 281.193C617.303 281.193 620.322 283.493 620.95 286.644L621.382 288.825C621.529 289.568 621.929 290.238 622.514 290.719C623.099 291.2 623.832 291.463 624.59 291.463C625.347 291.461 626.08 291.196 626.663 290.714C627.247 290.231 627.645 289.561 627.79 288.817C627.902 288.247 630.489 274.67 629.49 256.004C628.986 245.483 627.28 235.054 624.404 224.921C621.685 215.355 617.626 206.223 612.349 197.795C612.979 197.788 613.595 197.598 614.12 197.249C614.645 196.9 615.059 196.406 615.31 195.827C615.561 195.248 615.639 194.609 615.535 193.986C615.431 193.364 615.15 192.784 614.724 192.318C612.213 189.556 609.988 186.546 608.084 183.335C608.676 183.204 609.283 183.055 609.9 182.884L610.009 182.851C618.963 180.329 626.308 174.376 631.836 165.16C634.505 160.653 636.601 155.831 638.077 150.805C638.28 150.129 638.458 149.511 638.614 148.93C638.661 148.773 638.698 148.621 638.738 148.472C639.359 146.201 639.844 143.895 640.191 141.567C640.217 141.394 640.23 141.219 640.231 141.043C640.231 140.176 639.886 139.344 639.273 138.731C638.66 138.117 637.829 137.773 636.962 137.773C636.33 137.771 635.711 137.954 635.182 138.3C634.542 138.696 620.431 147.265 600.467 147.265C588.793 147.265 577.344 144.358 566.443 138.656C544.936 127.415 527.537 125.053 516.709 125.053C516.124 125.053 515.546 125.053 514.973 125.053L515.75 124.61L515.815 124.573L515.968 124.486C516.559 124.164 517.037 123.668 517.335 123.064C517.634 122.461 517.739 121.78 517.637 121.115C517.534 120.449 517.229 119.832 516.762 119.346C516.296 118.861 515.691 118.531 515.031 118.402C512.03 117.814 509.07 117.37 506.24 117.083H506.193C503.411 116.8 500.617 116.659 497.821 116.658C485.605 116.658 474.937 119.609 466.114 125.427C463.004 127.474 460.144 129.876 457.592 132.587C459.192 128.092 461.083 123.707 463.255 119.46C463.53 118.967 463.672 118.412 463.669 117.848C463.665 117.284 463.516 116.73 463.236 116.241C462.955 115.751 462.553 115.343 462.069 115.055C461.584 114.767 461.033 114.609 460.469 114.597L460.407 114.594Z" fill="#17091D"/>
<path d="M408.225 409.393C407.767 409.393 407.324 409.228 406.977 408.927C406.631 408.627 406.405 408.211 406.34 407.757L400.234 365.346C400.195 365.075 400.214 364.799 400.291 364.536C400.368 364.274 400.501 364.031 400.68 363.824C400.859 363.617 401.081 363.451 401.33 363.338C401.579 363.224 401.849 363.165 402.123 363.166C402.221 363.166 402.32 363.173 402.417 363.187C403.385 363.341 404.364 363.42 405.345 363.424C406.724 363.433 408.098 363.243 409.424 362.86C412.077 362.112 414.361 360.41 415.838 358.081C416.033 357.706 416.347 357.405 416.73 357.228C417.114 357.05 417.546 357.005 417.958 357.099C418.37 357.193 418.739 357.422 419.007 357.749C419.275 358.077 419.427 358.484 419.438 358.906C419.903 376.118 439.62 404.948 439.819 405.239C440.013 405.52 440.127 405.848 440.15 406.188C440.174 406.529 440.105 406.869 439.953 407.175C439.8 407.48 439.568 407.738 439.281 407.923C438.995 408.108 438.664 408.213 438.323 408.226L408.301 409.385L408.225 409.393Z" fill="#CE44A2"/>
<path d="M417.545 358.961C418.032 376.936 438.25 406.326 438.25 406.326L419.104 407.053L408.207 407.474L402.104 365.063C403.17 365.235 404.247 365.322 405.326 365.325C406.889 365.335 408.446 365.119 409.947 364.682C415.395 363.065 417.513 358.951 417.513 358.951M417.513 355.08C416.811 355.075 416.122 355.269 415.525 355.64C414.929 356.01 414.449 356.542 414.142 357.173C412.908 359.056 411.032 360.425 408.864 361.026C407.716 361.358 406.525 361.522 405.33 361.513C404.449 361.509 403.57 361.436 402.7 361.295C402.504 361.266 402.306 361.251 402.108 361.251C401.561 361.25 401.02 361.367 400.522 361.594C400.024 361.821 399.581 362.153 399.223 362.567C398.864 362.981 398.6 363.467 398.446 363.992C398.293 364.518 398.255 365.07 398.334 365.612L404.469 408.027C404.6 408.935 405.054 409.765 405.747 410.366C406.44 410.967 407.326 411.297 408.243 411.298H408.392L419.271 410.876L438.417 410.149C439.099 410.123 439.762 409.914 440.336 409.544C440.91 409.173 441.374 408.656 441.68 408.045C441.985 407.434 442.122 406.753 442.074 406.071C442.027 405.39 441.797 404.734 441.41 404.171C441.214 403.888 421.813 375.501 421.359 358.871C421.344 358.011 421.041 357.182 420.499 356.514C419.957 355.847 419.208 355.381 418.37 355.189C418.099 355.132 417.823 355.102 417.545 355.102L417.513 355.08Z" fill="#17091D"/>
<path d="M438.25 406.327L419.104 407.054C415.511 395.032 412.13 377.253 409.965 364.682C415.413 363.065 417.531 358.951 417.531 358.951C418.018 376.937 438.25 406.327 438.25 406.327Z" fill="#9C398C"/>
<path d="M463.066 243.31C431.817 260.311 395.025 280.336 395.025 280.336L394.633 280.437C388.958 281.921 383.65 284.561 379.043 288.193C378.218 280.588 377.774 272.946 377.713 265.297C391.349 257.026 415.366 253.668 429.896 226.411C436.779 213.503 466.946 203.152 466.946 203.152C466.946 203.152 462.826 230.358 463.066 243.31Z" fill="#9C398C"/>
<path d="M635.883 147.51C635.69 148.237 635.538 148.833 635.44 149.258C635.272 149.461 635.102 149.661 634.927 149.865C633.524 154.629 631.537 159.201 629.014 163.478C624.808 170.489 618.48 177.085 609.036 179.723H609.003C608.309 179.891 607.659 180.047 607.071 180.196L606.991 180.214L606.886 180.239H606.842C606.777 180.256 606.712 180.277 606.649 180.301C606.133 180.48 605.677 180.801 605.335 181.228C596.421 177.023 581.724 164.205 573.435 156.628C569.897 153.397 567.522 151.119 567.26 150.868C585.244 165.728 617.252 155.247 635.549 147.615C635.668 147.597 635.774 147.55 635.883 147.51Z" fill="#9C398C"/>
<path d="M635.56 147.64C635.669 147.596 635.774 147.549 635.883 147.509C635.69 148.236 635.538 148.832 635.44 149.257C635.273 149.46 635.102 149.66 634.928 149.864C627.223 158.815 611.433 168.627 579.945 158.775C577.659 158.048 575.49 157.34 573.439 156.652C529.346 141.654 535.935 130.65 505.085 129.378L505.144 129.341H505.173C514.036 127.651 535.506 126.169 564.903 141.574C604.031 162.086 636.94 141.062 636.94 141.062C636.616 143.281 636.155 145.477 635.56 147.64Z" fill="#D969BD"/>
<path d="M514.421 121.63L514.155 121.782C504.312 122.742 486.248 124.548 478.195 141.007C466.572 164.837 454.222 186.072 454.222 186.072C454.222 186.072 452.475 169.627 451.417 160.632C450.902 156.238 451.853 148.93 452.965 142.599C452.987 142.583 453.008 142.565 453.027 142.545C453.203 142.602 453.389 142.62 453.573 142.597C453.757 142.574 453.934 142.512 454.091 142.414C454.261 142.304 454.403 142.156 454.505 141.981C459.467 133.815 473.713 117.058 505.903 120.369C508.62 120.635 511.459 121.056 514.421 121.63Z" fill="#D969BD"/>
<path d="M440.977 184.645C441.764 184.387 442.611 184.818 442.868 185.605C443.109 186.343 442.748 187.134 442.053 187.442L441.909 187.497H441.908C441.907 187.497 441.904 187.498 441.899 187.499C441.891 187.502 441.877 187.508 441.857 187.514C441.818 187.527 441.758 187.547 441.678 187.576C441.517 187.632 441.276 187.719 440.964 187.836C440.339 188.072 439.429 188.431 438.309 188.922C436.066 189.906 432.986 191.413 429.652 193.504C422.96 197.702 415.37 204.168 411.338 213.342C411.004 214.101 410.12 214.445 409.361 214.112C408.603 213.778 408.258 212.894 408.592 212.135C412.964 202.187 421.113 195.318 428.059 190.962C431.543 188.777 434.757 187.203 437.103 186.174C438.277 185.66 439.237 185.281 439.906 185.029C440.241 184.903 440.504 184.808 440.685 184.745C440.776 184.713 440.847 184.689 440.895 184.672C440.92 184.664 440.939 184.657 440.952 184.653C440.959 184.651 440.965 184.649 440.969 184.648C440.971 184.647 440.972 184.646 440.974 184.646L440.976 184.645C440.976 184.645 440.984 184.668 441.442 186.071L440.977 184.645Z" fill="#17091D"/>
<path d="M499.367 142.149C507.771 140.55 518.801 139.653 528.941 142.659C529.735 142.894 530.188 143.73 529.952 144.524C529.717 145.318 528.882 145.771 528.088 145.536C518.613 142.727 508.132 143.535 499.928 145.096C495.842 145.873 492.359 146.83 489.9 147.591C488.671 147.972 487.699 148.303 487.038 148.537C486.708 148.655 486.455 148.749 486.287 148.812C486.203 148.843 486.14 148.867 486.099 148.883C486.078 148.891 486.063 148.897 486.054 148.901C486.049 148.903 486.046 148.904 486.044 148.905L486.042 148.906V148.905C485.272 149.208 484.401 148.83 484.097 148.06C483.793 147.289 484.172 146.417 484.943 146.114L485.492 147.509C484.942 146.114 484.943 146.114 484.943 146.114L484.944 146.113C484.946 146.112 484.947 146.112 484.949 146.112C484.953 146.11 484.958 146.107 484.965 146.105C484.978 146.1 484.997 146.093 485.021 146.083C485.069 146.065 485.141 146.038 485.233 146.003C485.417 145.934 485.686 145.835 486.034 145.711C486.73 145.464 487.741 145.12 489.013 144.726C491.555 143.939 495.149 142.951 499.367 142.149Z" fill="#17091D"/>
<path d="M434.109 287.08C393.26 287.08 370.906 259.344 363.202 247.416C362.131 245.797 361.146 244.123 360.249 242.401C360.089 242.079 360.041 241.712 360.11 241.359C360.18 241.006 360.364 240.685 360.635 240.447C360.905 240.21 361.246 240.068 361.605 240.044C361.965 240.02 362.322 240.115 362.621 240.315C362.675 240.348 370.045 244.829 396.169 244.829C422.293 244.829 453.404 198.467 453.713 198.002C453.863 197.778 454.066 197.595 454.303 197.468C454.541 197.341 454.806 197.275 455.075 197.275H455.173L513.985 200.768C514.415 200.794 514.819 200.989 515.106 201.311C515.394 201.633 515.543 202.056 515.521 202.487C515.521 202.792 515.096 210.075 512.586 220.396C507.345 241.965 492.122 279.158 449.06 285.888C444.115 286.67 439.116 287.069 434.109 287.08Z" fill="#CE44A2"/>
<path d="M455.075 198.908L513.89 202.4C513.89 202.4 513.501 209.719 510.984 220.008C505.641 242.056 490.556 277.744 448.806 284.271C443.945 285.044 439.031 285.436 434.109 285.445C393.906 285.445 371.952 257.938 364.575 246.53C363.537 244.958 362.582 243.332 361.713 241.66C361.713 241.66 368.89 246.45 396.169 246.45C423.448 246.45 455.075 198.908 455.075 198.908ZM455.075 195.637C454.537 195.636 454.007 195.769 453.533 196.022C453.058 196.276 452.653 196.643 452.354 197.09C446.651 205.363 440.32 213.185 433.419 220.487C419.271 235.333 406.387 243.179 396.169 243.179C371.702 243.179 364.048 239.222 363.496 238.916C362.967 238.535 362.332 238.327 361.68 238.324C361.115 238.322 360.559 238.467 360.067 238.744C359.574 239.021 359.162 239.421 358.87 239.905C358.578 240.388 358.416 240.94 358.401 241.505C358.385 242.07 358.516 242.629 358.781 243.128C359.708 244.911 360.727 246.644 361.832 248.322C368.052 257.857 375.938 266.192 385.112 272.929C399.554 283.417 416.042 288.734 434.109 288.734C439.2 288.723 444.282 288.317 449.31 287.52C468.587 284.508 484.341 275.244 496.139 259.98C506.404 246.686 511.623 231.328 514.166 220.782C516.709 210.315 517.13 202.883 517.145 202.574C517.19 201.712 516.893 200.867 516.318 200.223C515.743 199.578 514.937 199.188 514.075 199.136L455.26 195.644H455.068L455.075 195.637Z" fill="#17091D"/>
<path d="M510.999 220.008C505.641 242.057 490.556 277.745 448.806 284.272C399.188 292.031 372.806 259.258 364.575 246.531C366.148 246.985 367.717 247.436 369.275 247.959C378.49 251.037 391.796 252.912 406.191 249.754C412.312 248.428 418.123 245.941 423.31 242.428C452.732 222.476 455.115 214.266 455.787 221.778C456.459 229.29 434.77 244.252 443.593 247.352C452.416 250.452 492.63 233.033 502.361 226.859C506.015 224.54 508.787 222.022 510.999 220.008Z" fill="#D969BD"/>
<path d="M453.088 201.641L459.561 192.25L514.5 193.751L513.538 206.107L459.252 204.326L453.088 201.641Z" fill="#CE44A2"/>
<path d="M494.529 213.147C494.784 212.43 495.545 212.009 496.3 212.194C497.104 212.391 497.597 213.204 497.4 214.008L495.942 213.651C497.399 214.008 497.4 214.009 497.4 214.009L497.399 214.01C497.398 214.011 497.398 214.013 497.398 214.015C497.397 214.019 497.395 214.024 497.394 214.031C497.39 214.044 497.386 214.063 497.38 214.087C497.368 214.136 497.349 214.207 497.325 214.298C497.277 214.481 497.205 214.746 497.109 215.084C496.918 215.759 496.629 216.726 496.236 217.909C495.451 220.272 494.246 223.507 492.566 226.99C489.234 233.896 483.91 242.044 476.054 246.103C475.318 246.483 474.413 246.195 474.032 245.459C473.652 244.723 473.941 243.818 474.677 243.438C481.647 239.836 486.613 232.425 489.863 225.686C491.474 222.347 492.633 219.238 493.389 216.963C493.766 215.827 494.043 214.902 494.224 214.264C494.314 213.946 494.38 213.7 494.424 213.535C494.446 213.452 494.462 213.39 494.472 213.349C494.477 213.329 494.48 213.314 494.483 213.305C494.484 213.301 494.485 213.297 494.485 213.295V213.293L494.529 213.147Z" fill="#17091D"/>
<path d="M596.065 285.772C591.058 285.761 586.059 285.362 581.114 284.58C538.052 277.849 522.829 240.657 517.588 219.088C515.078 208.766 514.682 201.484 514.653 201.178C514.631 200.747 514.78 200.325 515.068 200.003C515.355 199.681 515.758 199.486 516.189 199.459L575.001 195.967H575.099C575.368 195.967 575.633 196.033 575.871 196.16C576.108 196.286 576.311 196.47 576.461 196.694C576.77 197.162 607.917 243.506 634.005 243.506C660.092 243.506 667.498 239.028 667.571 238.981C667.869 238.782 668.225 238.688 668.583 238.713C668.94 238.738 669.279 238.881 669.547 239.119C669.815 239.36 669.996 239.683 670.061 240.037C670.127 240.391 670.074 240.757 669.91 241.078C669.014 242.805 668.029 244.484 666.957 246.108C659.246 258.035 636.9 285.772 596.057 285.772H596.065Z" fill="#CE44A2"/>
<path d="M575.099 197.599C575.099 197.599 606.729 245.142 634.005 245.142C661.28 245.142 668.461 240.352 668.461 240.352C667.593 242.024 666.638 243.65 665.599 245.222C658.222 256.629 636.268 284.137 596.065 284.137C591.142 284.128 586.227 283.735 581.365 282.963C539.593 276.421 524.529 240.751 519.172 218.699C516.669 208.411 516.266 201.091 516.266 201.091L575.081 197.599M575.081 194.328H574.888L516.091 197.828C515.23 197.879 514.423 198.27 513.848 198.914C513.273 199.558 512.976 200.403 513.022 201.266C513.022 201.578 513.454 209.007 516 219.473C518.561 230.012 523.77 245.378 534.035 258.654C545.833 273.917 561.586 283.184 580.863 286.197C585.892 286.991 590.974 287.396 596.065 287.407C614.132 287.407 630.619 282.091 645.062 271.606C654.235 264.867 662.122 256.532 668.345 246.999C669.449 245.321 670.466 243.587 671.393 241.805C671.653 241.308 671.782 240.751 671.765 240.189C671.748 239.628 671.587 239.08 671.298 238.598C671.008 238.117 670.599 237.719 670.11 237.441C669.622 237.164 669.07 237.017 668.508 237.015C667.856 237.021 667.222 237.227 666.692 237.608C666.14 237.917 658.487 241.871 634.019 241.871C623.783 241.871 610.881 234.003 596.704 219.113C589.822 211.833 583.507 204.035 577.816 195.789C577.517 195.341 577.112 194.975 576.638 194.721C576.163 194.467 575.633 194.335 575.095 194.335L575.081 194.328Z" fill="#17091D"/>
<path d="M519.175 218.7C524.533 240.752 539.593 276.436 581.365 282.963C630.983 290.722 657.365 257.949 665.595 245.222C664.023 245.676 662.453 246.131 660.895 246.65C651.68 249.732 638.375 251.604 623.98 248.446C617.858 247.121 612.046 244.634 606.86 241.119C577.42 221.171 575.055 212.961 574.383 220.469C573.711 227.978 595.404 242.947 586.581 246.036C577.758 249.125 537.544 231.714 527.813 225.539C524.159 223.231 521.387 220.713 519.175 218.7Z" fill="#D969BD"/>
<path d="M577.086 200.336L570.609 190.941L515.673 192.442L516.636 204.799L570.921 203.018L577.086 200.336Z" fill="#CE44A2"/>
<path d="M533.875 210.885C534.679 210.688 535.491 211.181 535.688 211.986V211.987C535.689 211.988 535.69 211.992 535.691 211.996C535.693 212.006 535.697 212.021 535.702 212.041C535.712 212.082 535.728 212.144 535.75 212.226C535.793 212.391 535.86 212.638 535.95 212.956C536.13 213.594 536.406 214.519 536.783 215.656C537.538 217.93 538.696 221.04 540.306 224.379C543.555 231.119 548.521 238.531 555.497 242.132C556.233 242.512 556.521 243.418 556.141 244.154C555.761 244.89 554.856 245.178 554.12 244.798C546.258 240.739 540.934 232.589 537.604 225.682C535.925 222.199 534.721 218.964 533.936 216.6C533.543 215.417 533.254 214.449 533.063 213.774C532.967 213.436 532.896 213.171 532.848 212.989C532.824 212.898 532.806 212.827 532.794 212.779C532.787 212.755 532.783 212.735 532.78 212.722C532.778 212.715 532.777 212.709 532.776 212.705C532.776 212.704 532.775 212.703 532.775 212.702L532.774 212.7C532.774 212.699 532.786 212.696 534.231 212.342L532.774 212.699C532.577 211.894 533.07 211.082 533.875 210.885Z" fill="#17091D"/>
</svg>
