<svg width="1000" height="1000" viewBox="0 0 1000 1000" fill="none" xmlns="http://www.w3.org/2000/svg">
<path d="M401.948 338.707C401.531 338.706 401.129 338.547 400.826 338.26C386.659 324.872 376.006 303.648 372.283 281.48C371.401 276.251 370.928 270.962 370.87 265.66C370.851 263.868 370.822 262.026 370.782 260.15C370.764 259.216 370.743 258.275 370.724 257.327L370.684 255.539C370.496 246.715 370.234 234.627 371.389 222.5C371.636 219.912 371.941 217.376 372.297 214.959C375.159 195.334 381.85 178.617 392.747 163.909C406.118 145.851 420.353 132.797 436.223 124.002C454.574 113.826 475.667 108.898 500.712 108.898C503.759 108.898 506.909 108.975 510.072 109.12C540.907 110.574 565.524 118.227 583.239 131.878C602.668 146.854 613.347 168.768 614.986 197.021C627.568 199.35 637.971 205.637 645.134 215.257C652.206 224.76 656.031 237.32 656.144 251.574C656.271 265.485 651.683 281.211 643.55 294.723C634.92 309.063 622.951 320.028 609.846 325.592C609.644 325.677 609.426 325.722 609.206 325.722C608.913 325.723 608.625 325.644 608.372 325.494C608.12 325.344 607.912 325.129 607.771 324.872C607.631 324.614 607.562 324.323 607.572 324.03C607.582 323.736 607.671 323.451 607.83 323.204C613.478 314.402 615.959 301.813 615.011 286.796C615.013 286.788 615.013 286.779 615.011 286.771C613.82 267.873 607.492 249.273 601.746 239.199C594.735 226.926 591.818 226.047 587.852 226.047C587.191 226.047 586.479 226.08 585.727 226.109C584.859 226.149 583.874 226.189 582.821 226.189C581.276 226.193 579.732 226.092 578.201 225.887C577.781 225.83 577.4 225.612 577.136 225.28C565.538 210.598 544.587 201.832 521.086 201.832C511.301 201.807 501.577 203.375 492.296 206.477C490.189 207.204 488.115 208.01 486.121 208.886L485.558 209.137C467.468 243.513 439.95 257.265 417.967 265.402C416.594 265.911 415.101 266.448 413.408 267.044C412.666 267.3 411.946 267.615 411.254 267.986L411.185 268.018C406.877 270.355 404.262 274.724 403.194 281.363C401.89 289.497 403.067 299.596 404.204 309.347C405.62 321.525 406.844 332.042 403.347 337.882C403.221 338.093 403.049 338.272 402.845 338.407C402.641 338.542 402.409 338.63 402.166 338.664C402.095 338.684 402.022 338.698 401.948 338.707Z" fill="#CE44A2"/>
<path d="M500.726 110.548C503.748 110.548 506.843 110.622 510.011 110.77C567.609 113.474 610.561 138.633 613.424 198.427C639.94 202.719 654.255 223.946 654.506 251.606C654.756 279.266 636.395 312.541 609.203 324.101C615.672 314.016 617.506 300.443 616.638 286.709C615.472 268.174 609.374 249.335 603.159 238.407C596.021 225.887 592.668 224.408 587.852 224.408C586.366 224.408 584.739 224.549 582.817 224.549C581.345 224.554 579.874 224.458 578.415 224.262C565.509 207.908 543.232 200.197 521.082 200.193C511.118 200.16 501.215 201.755 491.765 204.918C489.61 205.644 487.512 206.464 485.47 207.378C485.107 207.541 484.744 207.705 484.381 207.872C466.836 241.561 440.502 255.313 417.4 263.864C415.875 264.431 414.36 264.955 412.867 265.496C412.044 265.781 411.245 266.131 410.477 266.543C405.181 269.381 402.624 274.64 401.588 281.101C398.661 299.345 407.876 327.161 401.952 337.068C388.646 324.479 377.666 303.633 373.899 281.203C373.029 276.066 372.563 270.869 372.504 265.66C372.485 263.857 372.456 262.013 372.417 260.128C372.388 258.617 372.352 257.079 372.319 255.52C372.101 245.366 371.916 234.242 373.016 222.671C373.252 220.203 373.547 217.714 373.914 215.21C376.333 198.627 381.865 181.371 394.062 164.898C418.301 132.161 448.813 110.548 500.726 110.548ZM500.726 107.277C475.398 107.277 454.043 112.285 435.446 122.585C426.74 127.436 418.674 133.355 411.436 140.207C404.534 146.668 397.996 154.108 391.458 162.95C380.372 177.894 373.594 194.833 370.688 214.737C370.325 217.179 370.023 219.745 369.773 222.369C368.61 234.591 368.872 246.718 369.046 255.6L369.086 257.355C369.086 258.315 369.126 259.263 369.144 260.201C369.184 262.069 369.213 263.915 369.231 265.703C369.299 271.078 369.786 276.439 370.688 281.737C372.622 293.072 376.25 304.05 381.451 314.303C386.489 324.203 392.805 332.896 399.721 339.438C400.328 340.011 401.131 340.331 401.966 340.332C402.116 340.331 402.265 340.321 402.413 340.303C402.898 340.235 403.361 340.06 403.769 339.789C404.177 339.519 404.519 339.16 404.77 338.74C408.552 332.424 407.313 321.659 405.86 309.172C404.734 299.516 403.572 289.547 404.843 281.625C405.817 275.534 408.148 271.558 411.966 269.472L412.057 269.425C412.672 269.096 413.312 268.816 413.971 268.589C415.682 267.989 417.186 267.448 418.566 266.935C427.879 263.486 441.788 257.766 454.959 247.917C468.206 238.021 478.623 225.749 486.782 210.391L486.829 210.369C488.758 209.515 490.788 208.723 492.851 208.014C501.948 204.978 511.478 203.44 521.067 203.46C544.075 203.46 564.547 211.997 575.836 226.287C576.361 226.951 577.122 227.386 577.961 227.5C579.566 227.716 581.184 227.822 582.803 227.817C583.893 227.817 584.895 227.773 585.781 227.737C586.508 227.704 587.209 227.675 587.837 227.675C590.743 227.675 593.264 227.675 600.304 240.031C605.956 249.942 612.181 268.265 613.358 286.887C613.358 286.887 613.358 286.909 613.358 286.923C614.285 301.587 611.905 313.816 606.435 322.342C606.118 322.836 605.94 323.407 605.919 323.993C605.899 324.58 606.036 325.161 606.317 325.676C606.599 326.191 607.013 326.621 607.518 326.921C608.022 327.221 608.598 327.379 609.185 327.379C609.624 327.38 610.059 327.291 610.463 327.118C623.881 321.419 636.122 310.222 644.931 295.587C649.026 288.798 652.234 281.512 654.477 273.906C656.656 266.665 657.758 259.143 657.746 251.581C657.615 236.978 653.696 224.088 646.413 214.305C639.242 204.67 628.941 198.267 616.511 195.679C614.597 167.543 603.74 145.658 584.209 130.605C566.221 116.744 541.292 108.975 510.109 107.51C506.919 107.361 503.745 107.285 500.665 107.285L500.726 107.277Z" fill="#17091D"/>
<path d="M418.817 265.093C416.065 265.749 413.275 266.235 410.463 266.547C405.167 269.385 402.609 274.644 401.574 281.105C398.646 299.349 407.862 327.165 401.937 337.072C388.632 324.483 377.651 303.637 373.885 281.207C373.019 276.069 372.558 270.87 372.504 265.66C372.485 263.857 372.456 262.014 372.417 260.129C369.555 258.904 366.805 257.559 364.165 256.131L372.319 255.531L404.952 253.133L417.4 263.879L418.817 265.093Z" fill="#9C398C"/>
<path d="M426.927 225.873C428.973 224.466 431.774 224.981 433.183 227.027C434.593 229.073 434.078 231.875 432.032 233.285L429.478 229.58C432.032 233.285 432.03 233.286 432.029 233.287C432.028 233.288 432.026 233.288 432.025 233.289C432.023 233.291 432.02 233.294 432.016 233.296C432.009 233.301 432 233.306 431.99 233.314C431.968 233.328 431.938 233.349 431.901 233.374C431.827 233.424 431.722 233.494 431.588 233.583C431.318 233.761 430.929 234.013 430.424 234.329C429.416 234.962 427.947 235.851 426.059 236.907C422.285 239.02 416.823 241.809 410.003 244.569C396.381 250.078 377.207 255.516 355.161 255.077C352.676 255.028 350.702 252.974 350.752 250.489C350.801 248.005 352.856 246.03 355.341 246.079C375.829 246.487 393.769 241.427 406.628 236.226C413.046 233.629 418.166 231.011 421.664 229.054C423.411 228.076 424.751 227.264 425.642 226.705C426.087 226.426 426.42 226.209 426.635 226.068C426.743 225.997 426.821 225.945 426.87 225.912C426.894 225.896 426.911 225.884 426.92 225.878C426.924 225.875 426.927 225.873 426.927 225.872V225.873Z" fill="#17091D"/>
<path d="M515.391 138.378C542.563 136.817 561.143 153.727 571.72 167.642C581.024 179.875 585.664 195.141 584.173 210.487C584.155 210.668 584.134 210.849 584.115 211.03C586.684 207.397 589.897 203.867 593.565 202.075C594.31 201.712 595.208 202.021 595.571 202.765C595.935 203.509 595.626 204.407 594.882 204.771C590.755 206.787 586.988 211.727 584.181 216.444C583.496 217.597 582.878 218.717 582.338 219.749C581.657 221.803 580.778 223.727 579.644 225.425C579.218 226.064 578.377 226.277 577.697 225.919C577.018 225.561 576.718 224.746 577.005 224.033L578.397 224.593C577.005 224.034 577.006 224.033 577.006 224.032V224.031C577.006 224.031 577.006 224.03 577.007 224.028C577.008 224.026 577.01 224.021 577.012 224.017C577.015 224.007 577.021 223.994 577.028 223.977C577.042 223.942 577.063 223.892 577.09 223.827C577.144 223.698 577.223 223.51 577.326 223.271C577.533 222.792 577.838 222.105 578.231 221.271C578.598 220.493 579.044 219.584 579.56 218.589C580.385 216.028 580.901 213.168 581.186 210.199V210.197C582.579 195.87 578.339 181.576 569.744 170.006L569.332 169.457C558.993 155.854 541.257 139.897 515.563 141.373C514.736 141.421 514.028 140.789 513.98 139.962C513.933 139.135 514.564 138.426 515.391 138.378Z" fill="#17091D"/>
<path d="M654.506 251.602C654.76 279.262 636.395 312.551 609.203 324.1C615.673 314.016 617.507 300.442 616.639 286.708C622.258 272.393 627.209 257.867 628.586 248.218C632.218 222.779 613.424 198.43 613.424 198.43C639.955 202.714 654.255 223.942 654.506 251.602Z" fill="#9C398C"/>
<path d="M541.046 131.193C541.046 131.193 573.188 134.068 584.634 157.36C596.079 180.651 588.266 198.426 588.266 198.426C588.266 198.426 581.325 179.336 576.279 163.901C571.234 148.467 541.046 131.193 541.046 131.193Z" fill="#D969BD"/>
<path d="M563.955 162.928C566.861 167.485 525.121 152.498 533.051 152.421C533.548 152.058 543.585 154.682 542.248 152.451C534.74 145.949 529.019 143.55 519.615 143.187C517.435 143.1 512.35 141.37 515.103 141.272C532.063 140.665 548.95 146.705 563.955 162.928Z" fill="#9C398C"/>
<path d="M405.653 268.568C357.855 268.568 331.706 236.107 322.679 222.148C321.426 220.253 320.274 218.292 319.229 216.275C319.069 215.952 319.02 215.586 319.09 215.233C319.16 214.879 319.344 214.559 319.614 214.321C319.885 214.084 320.226 213.942 320.585 213.918C320.944 213.894 321.301 213.989 321.6 214.189C321.669 214.233 330.318 219.531 361.128 219.531C391.937 219.531 428.533 164.993 428.896 164.451C429.046 164.228 429.249 164.044 429.487 163.917C429.724 163.791 429.989 163.724 430.259 163.725H430.404L548.455 174.264C548.76 174.291 549.051 174.404 549.295 174.588C549.539 174.773 549.727 175.022 549.836 175.308C549.945 175.594 549.972 175.905 549.914 176.205C549.855 176.506 549.714 176.784 549.505 177.008C535.413 191.784 520.574 205.828 505.045 219.084C471.333 247.755 443.782 263.923 423.154 267.15C417.365 268.073 411.514 268.547 405.653 268.568Z" fill="#CE44A2"/>
<path d="M430.259 165.355L540.82 175.225L548.31 175.894C548.31 175.894 471.914 257.874 422.903 265.535C417.197 266.441 411.43 266.901 405.653 266.913C358.472 266.913 332.708 234.63 324.052 221.242C322.835 219.397 321.713 217.49 320.692 215.529C320.692 215.529 329.116 221.147 361.128 221.147C393.14 221.147 430.259 165.355 430.259 165.355ZM430.259 162.084C429.721 162.084 429.191 162.216 428.716 162.47C428.242 162.723 427.837 163.09 427.538 163.538C420.831 173.27 413.386 182.471 405.268 191.06C388.559 208.602 373.285 217.873 361.128 217.873C331.978 217.873 323.035 213.097 322.48 212.785C321.95 212.404 321.315 212.199 320.663 212.196C320.101 212.195 319.549 212.339 319.059 212.615C318.568 212.89 318.157 213.287 317.865 213.767C317.573 214.247 317.41 214.795 317.391 215.357C317.372 215.919 317.498 216.476 317.757 216.975C318.835 219.048 320.019 221.064 321.303 223.015C328.568 234.139 337.775 243.865 348.484 251.725C365.334 263.962 384.567 270.165 405.649 270.165C411.595 270.152 417.532 269.678 423.404 268.748C435.028 266.931 448.983 260.978 464.9 251.053C477.468 243.218 491.333 232.882 506.099 220.315C521.677 207.024 536.564 192.942 550.7 178.125C551.122 177.678 551.409 177.121 551.528 176.518C551.647 175.915 551.595 175.29 551.375 174.716C551.156 174.141 550.78 173.64 550.289 173.27C549.798 172.9 549.213 172.676 548.601 172.623L541.111 171.955L430.549 162.084C430.452 162.079 430.355 162.079 430.259 162.084Z" fill="#17091D"/>
<path d="M548.31 175.895C548.31 175.895 471.914 257.875 422.903 265.536C364.673 274.639 333.711 236.179 324.052 221.242C325.897 221.776 327.739 222.307 329.566 222.918C340.383 226.552 356.013 228.732 372.889 225.025C380.074 223.471 386.894 220.552 392.98 216.427C427.531 193.015 430.306 183.381 431.094 192.194C431.882 201.007 406.43 218.571 416.783 222.209C424.934 225.069 505.358 195.883 543.588 178.438L548.31 175.895Z" fill="#D969BD"/>
<path d="M428.079 168.625L435.526 157.541L555.938 167.898L548.31 175.894L435.162 171.714L428.079 168.625Z" fill="#CE44A2"/>
<path d="M476.748 182.302C476.945 181.497 477.758 181.005 478.563 181.202C479.367 181.399 479.859 182.21 479.662 183.015L478.205 182.659C479.59 182.997 479.659 183.015 479.662 183.016V183.018C479.662 183.019 479.661 183.021 479.66 183.023C479.659 183.027 479.658 183.034 479.656 183.041C479.653 183.057 479.647 183.079 479.64 183.107C479.625 183.163 479.604 183.245 479.576 183.351C479.52 183.563 479.437 183.873 479.325 184.268C479.102 185.057 478.764 186.189 478.305 187.574C477.386 190.34 475.977 194.125 474.012 198.201C470.111 206.291 463.894 215.791 454.746 220.515C454.01 220.895 453.105 220.607 452.725 219.87C452.345 219.135 452.634 218.23 453.369 217.85C461.631 213.583 467.489 204.82 471.31 196.897C473.205 192.965 474.568 189.305 475.457 186.628C475.901 185.291 476.226 184.202 476.439 183.451C476.545 183.075 476.624 182.783 476.675 182.588C476.701 182.491 476.719 182.418 476.732 182.37C476.738 182.345 476.742 182.327 476.745 182.316C476.747 182.31 476.748 182.306 476.748 182.304V182.302Z" fill="#17091D"/>
</svg>
