<svg width="1000" height="1000" viewBox="0 0 1000 1000" fill="none" xmlns="http://www.w3.org/2000/svg">
<path d="M420.248 324.816C419.909 324.818 419.577 324.714 419.3 324.519C419.023 324.323 418.813 324.046 418.7 323.726C418.657 323.595 418.61 323.421 418.472 322.894C418.352 322.45 418.185 321.803 417.967 321.033C416.31 315.026 413.455 306.253 409.271 298.552C403.822 288.514 397.833 283.423 391.472 283.423C387.873 283.423 384.033 285.091 380.067 288.38C379.215 289.124 378.125 289.538 376.994 289.546C369.936 289.546 363.263 272.52 361.945 261.258C361.048 253.626 360.881 247.237 361.436 242.102C358.389 246.532 354.836 252.754 354.673 257.874C354.659 258.238 354.666 258.602 354.695 258.964C354.775 260.055 354.713 260.894 354.15 261.508C353.985 261.686 353.787 261.828 353.566 261.926C353.345 262.024 353.106 262.076 352.864 262.079C351.462 262.079 350.794 260.596 350.231 259.077C347.386 251.423 341.121 219.101 362.461 200.755L362.842 200.432C362.743 199.331 362.713 198.226 362.751 197.121C362.947 191.453 364.673 185.944 367.746 181.178C372.261 174.149 379.547 168.756 389.413 165.133V165.104C389.471 164.875 389.536 164.635 389.616 164.377C389.616 164.377 389.765 163.879 389.787 163.814C389.809 163.748 389.831 163.665 389.86 163.588C389.864 163.568 389.87 163.549 389.878 163.53C389.878 163.53 389.936 163.341 389.954 163.29C392.133 156.607 399.398 140.508 419.572 135.481L419.757 135.438C420.077 135.358 420.4 135.285 420.727 135.216L421.072 135.136L421.276 135.096L421.715 135.005C423.103 134.725 424.603 134.493 426.143 134.326C426.39 134.297 426.641 134.271 426.888 134.249H427.011C427.215 134.228 427.422 134.209 427.629 134.195L427.883 134.177C428.123 134.155 428.362 134.14 428.609 134.122C429.016 133.795 429.677 133.279 430.582 132.625L431.134 132.225L431.432 132.014L431.472 131.989C431.537 131.938 431.603 131.894 431.672 131.847C437.422 127.828 449.314 120.727 464.203 118.401C467.392 117.895 470.615 117.639 473.843 117.634C474.479 117.634 475.122 117.634 475.757 117.663C476.52 117.681 477.305 117.721 478.089 117.779L478.162 117.746C479.168 117.31 481.29 116.438 484.239 115.482C489.898 113.647 498.674 111.456 508.358 111.456C512.468 111.417 516.571 111.821 520.595 112.662C523.259 113.243 525.868 114.052 528.394 115.079C528.884 114.952 529.672 114.766 530.715 114.563H530.759C534.365 113.881 538.028 113.539 541.699 113.542C550.344 113.542 562.869 115.497 573.718 124.75C574.543 124.84 576.261 125.055 578.582 125.476L579.628 125.676H579.708L580.587 125.858L580.693 125.88L581.51 126.054C581.964 126.152 582.447 126.265 582.941 126.381L583.42 126.498H583.471L584.198 126.683L584.318 126.716L584.899 126.868C585.077 126.912 585.284 126.966 585.494 127.028L586.294 127.25L587.213 127.515L587.536 127.613L587.732 127.671C589.047 128.075 590.326 128.5 591.546 128.951L591.855 129.067C606.348 134.478 614.877 143.353 616.555 154.739C617.031 155.241 617.891 156.193 618.956 157.523L619.017 157.603C619.26 157.923 619.521 158.261 619.802 158.617C619.827 158.653 619.857 158.689 619.882 158.729L619.907 158.758L620.02 158.911C626.035 167.012 637.677 187.749 619.036 208.503C622.386 210.774 625.318 213.608 627.702 216.88C632.141 222.931 636.903 233.492 634.375 249.446C634.323 249.784 634.165 250.097 633.925 250.34C633.686 250.583 633.375 250.745 633.038 250.802C632.947 250.819 632.855 250.828 632.762 250.827C632.465 250.83 632.173 250.753 631.917 250.602C631.661 250.452 631.451 250.234 631.309 249.973C629.435 246.525 626.816 241.978 624.31 238.013C625.718 243.111 626.313 248.4 626.071 253.684V253.706C625.454 266.28 619.918 277.746 609.617 287.78C609.379 288.013 609.075 288.167 608.747 288.223C608.419 288.278 608.082 288.232 607.78 288.091C607.479 287.949 607.228 287.719 607.061 287.431C606.894 287.143 606.819 286.811 606.845 286.479C606.871 286.203 609.058 258.688 607.55 238.457C606.573 225.333 604.463 220.569 602.864 218.883C602.41 218.405 601.924 217.957 601.411 217.542C601.259 217.411 601.106 217.295 600.954 217.178C600.725 217.004 600.482 216.815 600.271 216.688L600.202 216.644L599.933 216.47L599.893 216.444C599.791 216.379 599.693 216.313 599.588 216.255C598.656 215.692 597.67 215.222 596.646 214.852L596.58 214.831C596.486 214.794 596.395 214.758 596.301 214.729L596.214 214.7L595.927 214.605H595.883C595.72 214.551 595.556 214.504 595.396 214.456L595 214.351C594.608 214.246 594.212 214.155 593.802 214.075H593.762C593.678 214.075 593.598 214.042 593.515 214.031H593.464C593.101 213.962 592.799 213.915 592.523 213.878L592.069 213.82C591.09 213.706 590.105 213.649 589.12 213.65C588.876 213.65 588.633 213.65 588.393 213.65H588.095H587.761H587.667H587.51H587.249H587.213C586.898 213.666 586.589 213.692 586.286 213.726C586.163 213.726 586.057 213.726 585.956 213.759H585.919L585.298 213.828L584.971 213.871L584.579 213.926H584.543L584.278 213.962H584.227C584.103 213.962 583.983 213.998 583.864 214.024H583.776C583.706 214.032 583.635 214.044 583.566 214.06H583.515L583.152 214.129H583.097L582.629 214.224L582.116 214.333L581.753 214.42L581.55 214.467L581.455 214.489C580.94 214.616 580.558 214.725 580.326 214.794C579.988 214.896 579.799 214.961 579.777 214.969C579.604 215.029 579.423 215.06 579.24 215.06C578.883 215.06 578.536 214.943 578.252 214.727C577.968 214.511 577.762 214.208 577.667 213.864L575.665 206.788L543.116 222.986L542.803 223.146C542.578 223.259 542.329 223.319 542.077 223.32C541.767 223.321 541.463 223.233 541.202 223.066L521.006 210.193V213.05C521.006 213.484 520.833 213.9 520.527 214.206C520.22 214.513 519.805 214.685 519.371 214.685C519.272 214.686 519.174 214.677 519.077 214.66L518.321 214.522L473.513 206.425L476.026 210.47L476.942 211.923L477.025 212.065C477.175 212.313 477.257 212.597 477.261 212.886C477.266 213.176 477.193 213.462 477.051 213.715C476.908 213.967 476.702 214.178 476.451 214.324C476.201 214.47 475.916 214.547 475.627 214.547C475.559 214.553 475.491 214.553 475.423 214.547L464.228 213.093L454.141 211.785C452.274 216.51 445.104 234.492 437.498 250.351C432.838 260.066 428.802 267.348 425.511 271.993C417.088 283.837 417.934 305.38 421.221 320.23C421.403 321.051 421.61 321.909 421.832 322.774C421.936 323.183 421.878 323.617 421.67 323.985C421.461 324.352 421.118 324.624 420.713 324.743C420.562 324.79 420.406 324.815 420.248 324.816Z" fill="#CE44A2"/>
<path d="M508.38 113.025C512.367 113.008 516.345 113.422 520.243 114.26C522.995 114.859 525.686 115.711 528.281 116.804C528.281 116.804 529.273 116.51 531.024 116.172C534.542 115.505 538.115 115.17 541.696 115.173C550.668 115.173 562.683 117.284 573.039 126.322C573.039 126.322 575.088 126.497 578.284 127.082C578.619 127.144 578.967 127.209 579.327 127.282H579.392L580.249 127.456L581.147 127.649C581.604 127.747 582.073 127.856 582.556 127.972L583.043 128.089L583.798 128.278L584.481 128.456L585.048 128.608L585.861 128.834L586.77 129.099C586.94 129.146 587.107 129.201 587.282 129.252C588.495 129.615 589.741 130.037 591.005 130.502L591.259 130.596C601.793 134.528 613.278 141.895 614.986 155.498C615.929 156.467 616.821 157.486 617.655 158.551C617.917 158.885 618.197 159.241 618.484 159.623V159.641L618.527 159.699C618.571 159.757 618.618 159.815 618.662 159.877C625.098 168.541 635.93 188.758 616.428 208.87C616.428 208.87 637.448 219.387 632.726 249.209C632.726 249.209 622.327 230.072 618.36 227.768C618.36 227.768 625.156 238.765 624.419 253.625C623.929 263.597 620.06 275.31 608.437 286.609C608.437 286.609 610.674 258.931 609.141 238.336C608.415 228.825 606.918 220.823 604.009 217.755C603.509 217.229 602.976 216.735 602.414 216.276C602.247 216.138 602.08 216.007 601.909 215.876C601.659 215.684 601.401 215.513 601.143 215.324L600.78 215.081C600.649 214.993 600.522 214.913 600.391 214.837C599.373 214.224 598.298 213.713 597.18 213.311C597.042 213.26 596.907 213.209 596.769 213.165C596.631 213.122 596.497 213.071 596.359 213.031L595.814 212.867L595.385 212.751C594.953 212.635 594.521 212.537 594.092 212.453L593.729 212.388C593.366 212.322 593.035 212.264 592.69 212.22L592.222 212.159C591.181 212.036 590.135 211.976 589.087 211.977C588.825 211.977 588.571 211.977 588.317 211.977H588.015H587.634C587.565 211.973 587.496 211.973 587.427 211.977H587.093C586.751 211.977 586.417 212.024 586.09 212.057L585.727 212.093L585.073 212.166L584.75 212.21C584.594 212.228 584.441 212.25 584.285 212.275L583.965 212.322C583.813 212.344 583.664 212.369 583.515 212.399L583.199 212.453L582.818 212.602C582.629 212.635 582.454 212.671 582.269 212.711L581.761 212.82L581.397 212.904L581.063 212.984C580.565 213.107 580.159 213.22 579.854 213.311C579.45 213.431 579.232 213.507 579.232 213.507L579.054 212.867L576.904 205.181L576.697 204.454L576.025 204.789H576.003L542.382 221.506L542.059 221.669L541.761 221.48L520.341 207.841L519.36 207.216V213.053L518.605 212.915L471.606 204.411L470.186 204.153L470.941 205.366L471.054 205.544L474.642 211.316L475.558 212.769L475.63 212.889H475.543L464.443 211.435L453.088 209.96C453.088 209.96 444.912 231.089 436.016 249.606C431.977 258.026 427.789 265.901 424.164 271.007C415.028 283.854 416.557 306.746 419.612 320.545C419.812 321.45 420.023 322.322 420.233 323.147C420.172 322.966 419.939 322.028 419.529 320.545C417.012 311.423 407.833 281.739 391.476 281.736C387.709 281.736 383.565 283.309 379.028 287.071C378.468 287.569 377.747 287.849 376.998 287.859C371.455 287.859 364.869 272.098 363.558 261.017C362.468 251.688 362.185 241.697 364.557 235.254C364.557 235.254 353.336 248.083 353.028 257.786C353.014 258.205 353.023 258.625 353.053 259.044C353.122 259.967 353.053 260.399 352.85 260.399C351.073 260.399 340.136 222.026 363.507 201.95C363.852 201.656 364.201 201.365 364.557 201.082C364.37 199.774 364.306 198.451 364.368 197.131C364.608 189.863 367.949 174.359 390.775 166.331C390.775 166.331 390.775 166.31 390.775 166.27C390.797 166.161 390.851 165.906 390.957 165.543C390.957 165.517 390.957 165.492 390.975 165.463C391.026 165.267 391.087 165.045 391.16 164.794L391.273 164.431C391.273 164.38 391.305 164.322 391.324 164.267C391.342 164.213 391.371 164.111 391.4 164.027C391.398 164.021 391.398 164.015 391.4 164.009C391.398 163.997 391.398 163.985 391.4 163.973C391.418 163.911 391.44 163.842 391.462 163.777C393.488 157.555 400.441 141.873 419.95 137.032C419.997 137.032 420.045 137.011 420.095 137H420.117C420.422 136.923 420.731 136.854 421.043 136.785L421.385 136.709C421.581 136.669 421.774 136.625 421.973 136.589C423.349 136.31 424.786 136.089 426.285 135.924L427.07 135.844H427.102C427.302 135.822 427.505 135.804 427.709 135.79L427.956 135.771C428.261 135.746 428.566 135.724 428.878 135.706H428.984H429.194L429.318 135.601L429.351 135.575C429.652 135.328 430.386 134.739 431.501 133.929L432.042 133.54L432.333 133.333H432.351L432.554 133.187C438.028 129.364 449.75 122.285 464.417 119.995C467.541 119.483 470.7 119.218 473.865 119.203C474.483 119.203 475.1 119.203 475.725 119.232C476.608 119.254 477.501 119.301 478.398 119.374L478.838 119.178C479.695 118.814 481.787 117.938 484.766 116.972C490.298 115.176 498.896 113.025 508.376 113.025M508.376 109.754C498.478 109.754 489.524 111.989 483.752 113.861C480.995 114.755 478.94 115.58 477.824 116.041C477.152 115.998 476.48 115.969 475.819 115.95C475.158 115.932 474.512 115.921 473.861 115.921C470.548 115.926 467.24 116.19 463.967 116.71C448.784 119.109 436.641 126.348 430.756 130.469L430.557 130.607L430.513 130.64L430.19 130.869L429.648 131.261C428.969 131.752 428.424 132.17 428.01 132.49L427.8 132.508L427.505 132.53C427.295 132.544 427.088 132.562 426.884 132.584H426.735L425.987 132.66C424.411 132.835 422.871 133.071 421.414 133.365L420.967 133.456L420.793 133.493H420.749L420.386 133.573L419.471 133.783L419.358 133.809L419.176 133.856C410.096 136.12 402.526 140.805 396.703 147.775C393.036 152.205 390.226 157.281 388.418 162.741L388.37 162.886C388.345 162.959 388.323 163.028 388.301 163.101C388.28 163.173 388.261 163.224 388.243 163.282C388.225 163.34 388.2 163.424 388.182 163.489L388.142 163.62C388.123 163.686 388.102 163.747 388.083 163.809C388.065 163.871 388.083 163.842 388.083 163.856C378.276 167.6 370.986 173.113 366.395 180.254C363.163 185.269 361.349 191.066 361.146 197.029C361.11 198.069 361.146 198.966 361.175 199.69C352.072 207.641 346.729 219.314 345.708 233.455C344.848 245.354 347.194 255.478 348.716 259.585C349.206 260.912 350.231 263.677 352.893 263.677C353.36 263.676 353.821 263.578 354.249 263.39C354.676 263.203 355.06 262.929 355.378 262.587C356.406 261.497 356.449 260.043 356.359 258.811C356.334 258.509 356.328 258.205 356.34 257.902C356.431 255.035 357.772 251.622 359.519 248.366C359.538 252.73 359.817 257.089 360.354 261.42C361.033 267.235 363.107 274.351 365.763 280.006C369.239 287.405 373.027 291.152 377.023 291.152C378.534 291.14 379.991 290.594 381.138 289.611C384.803 286.569 388.291 285.028 391.498 285.028C398.596 285.028 404.306 292.794 407.843 299.307C411.955 306.87 414.767 315.515 416.401 321.439C416.619 322.217 416.783 322.842 416.899 323.282C417.041 323.812 417.099 324.03 417.164 324.223C417.453 325.001 418.027 325.64 418.77 326.011C419.513 326.381 420.369 326.455 421.164 326.217C421.959 325.98 422.634 325.448 423.052 324.731C423.47 324.014 423.6 323.164 423.415 322.355C423.197 321.497 422.994 320.658 422.82 319.858C421.076 311.887 420.33 303.73 420.597 295.575C421 285.933 423.157 278.101 426.841 272.923C430.197 268.198 434.276 260.835 438.976 251.037C446.074 236.25 452.779 219.631 455.198 213.551L464.04 214.71L475.14 216.164H475.242C475.377 216.181 475.513 216.189 475.649 216.189C476.228 216.189 476.798 216.034 477.298 215.741C477.799 215.448 478.212 215.027 478.497 214.522C478.781 214.016 478.926 213.444 478.916 212.864C478.906 212.284 478.743 211.717 478.442 211.221L478.369 211.101L478.347 211.065L477.432 209.611L476.862 208.692L518.038 216.142L518.786 216.276C518.98 216.312 519.177 216.331 519.375 216.331C520.221 216.331 521.034 216.004 521.644 215.417C522.254 214.83 522.612 214.029 522.644 213.184L539.981 224.231L540.018 224.257L540.315 224.446C540.793 224.749 541.342 224.923 541.908 224.95C542.473 224.978 543.036 224.858 543.541 224.602L543.857 224.442L574.623 209.131L575.916 213.761L576.094 214.394C576.285 215.082 576.697 215.689 577.266 216.122C577.834 216.554 578.529 216.789 579.243 216.789C579.614 216.79 579.983 216.727 580.333 216.603L580.805 216.458C581.023 216.393 581.379 216.291 581.873 216.171L581.96 216.149L582.117 216.109L582.236 216.08L582.36 216.051L582.509 216.018L582.945 215.924H582.996C583.126 215.895 583.253 215.869 583.384 215.847L583.5 215.826L583.82 215.767L583.922 215.746H584.02C584.078 215.746 584.14 215.727 584.198 215.713L584.485 215.666H584.579L584.754 215.64H584.79H584.87L585.186 215.597H585.255L585.542 215.557L586.105 215.495H586.177L586.435 215.473H586.45C586.784 215.437 587.053 215.415 587.3 215.404H587.358H587.565H587.736H587.852C587.95 215.404 588.044 215.404 588.143 215.404H588.437C588.662 215.404 588.887 215.404 589.12 215.404C590.039 215.403 590.957 215.456 591.869 215.564L592.269 215.615H592.313C592.556 215.644 592.825 215.687 593.159 215.753H593.257L593.413 215.782H593.486C593.849 215.855 594.212 215.938 594.554 216.029H594.594L594.957 216.124L595.393 216.254L595.48 216.28L595.687 216.349L595.741 216.371L595.814 216.393L596.021 216.469L596.079 216.487H596.097C597.013 216.817 597.894 217.235 598.727 217.737L598.774 217.766C598.843 217.806 598.916 217.85 598.996 217.904L599.069 217.952L599.312 218.108L599.367 218.144C599.555 218.275 599.77 218.424 599.962 218.573C600.155 218.722 600.238 218.787 600.376 218.9C600.836 219.274 601.27 219.677 601.677 220.107C602.614 221.092 604.895 224.871 605.923 238.681C607.419 258.778 605.244 286.173 605.222 286.445C605.168 287.109 605.318 287.773 605.652 288.349C605.985 288.925 606.487 289.386 607.089 289.669C607.524 289.875 607.999 289.982 608.48 289.982C609.332 289.982 610.151 289.649 610.761 289.055C621.368 278.719 627.07 266.886 627.71 253.887V253.854C627.826 251.465 627.77 249.071 627.543 246.691C628.934 249.119 629.864 250.827 629.878 250.856C630.159 251.373 630.575 251.804 631.08 252.105C631.586 252.405 632.163 252.564 632.751 252.564C632.938 252.564 633.124 252.548 633.307 252.517C633.98 252.4 634.6 252.077 635.079 251.59C635.559 251.104 635.874 250.48 635.981 249.805C638.596 233.292 633.634 222.313 629.007 216.007C626.876 213.064 624.327 210.447 621.44 208.241C624.949 204.04 627.499 199.602 629.039 195.005C630.686 190.08 631.202 184.846 630.547 179.694C629.395 170.453 624.906 162.784 621.331 157.969C621.288 157.904 621.241 157.842 621.193 157.784C621.153 157.726 621.117 157.678 621.084 157.638C620.816 157.275 620.55 156.944 620.318 156.643L620.249 156.555V156.534C619.377 155.443 618.629 154.593 618.109 154.022C616.188 142.258 607.343 133.126 592.458 127.562L592.28 127.496L592.229 127.478C592.193 127.46 592.153 127.449 592.116 127.434C590.874 126.98 589.574 126.544 588.262 126.141H588.222L588.048 126.09L587.685 125.984L586.755 125.712L585.934 125.487C585.731 125.428 585.524 125.37 585.317 125.319L584.761 125.174L584.626 125.141L583.835 124.941C583.657 124.898 583.471 124.854 583.312 124.818C582.752 124.683 582.287 124.574 581.859 124.483L581.03 124.305L580.929 124.284C580.616 124.218 580.318 124.156 580.024 124.102L579.937 124.084L578.898 123.884C576.93 123.52 575.371 123.31 574.412 123.197C563.272 113.897 550.533 111.931 541.721 111.931C537.954 111.929 534.195 112.279 530.493 112.978H530.428C529.658 113.127 529.022 113.268 528.536 113.385C526.077 112.417 523.544 111.649 520.962 111.088C516.828 110.191 512.61 109.744 508.38 109.754H508.376Z" fill="#17091D"/>
<path d="M419.928 256.939C425.066 254.031 430.456 251.591 436.031 249.649C431.991 258.069 427.803 265.945 424.178 271.051C415.043 283.897 416.572 306.789 419.627 320.588H419.543C416.456 309.355 403.27 267.009 379.043 287.103C373.213 291.936 365.047 273.525 363.587 261.049C370.169 250.51 388.814 230.122 433.052 230.006C433.052 230.006 402.177 242.26 396.216 250.39C396.216 250.39 433.789 237.83 439.231 238.921C439.231 238.921 428.41 250.735 419.928 256.939Z" fill="#9C398C"/>
<path d="M618.687 160.107C618.495 173.481 616.079 197.437 602.857 215.754C602.808 215.822 602.745 215.881 602.673 215.925C602.6 215.969 602.52 215.999 602.436 216.012C602.353 216.025 602.267 216.022 602.185 216.002C602.102 215.982 602.025 215.945 601.956 215.895C601.706 215.703 601.448 215.532 601.19 215.343L600.827 215.099C600.7 215.016 600.569 214.936 600.438 214.856C599.42 214.243 598.345 213.732 597.227 213.33L596.817 213.184L596.406 213.05L595.861 212.886L595.433 212.77C595 212.654 594.568 212.556 594.14 212.472L593.776 212.407C593.413 212.341 593.083 212.283 592.738 212.239L592.269 212.178C590.973 212.027 589.668 211.97 588.364 212.007H588.063H587.681C587.612 212.003 587.543 212.003 587.474 212.007H587.14C586.799 212.007 586.464 212.054 586.138 212.087L585.774 212.123L585.12 212.196L584.797 212.239C584.641 212.258 584.488 212.279 584.332 212.305L584.013 212.352C583.86 212.374 583.711 212.399 583.562 212.428L583.246 212.483L582.818 212.603L582.269 212.712L581.761 212.821L581.397 212.904L581.063 212.984C580.566 213.108 580.159 213.221 579.854 213.311C579.772 213.336 579.686 213.344 579.602 213.334C579.517 213.325 579.435 213.299 579.361 213.258C579.286 213.217 579.221 213.161 579.168 213.094C579.116 213.027 579.077 212.95 579.054 212.868L576.904 205.182C576.877 205.094 576.833 205.013 576.772 204.945C576.712 204.876 576.638 204.821 576.555 204.782C576.472 204.744 576.382 204.724 576.291 204.724C576.199 204.723 576.109 204.741 576.025 204.778H576.003L542.382 221.496C542.285 221.544 542.177 221.566 542.068 221.562C541.96 221.558 541.854 221.526 541.761 221.47L520.341 207.842C520.244 207.782 520.132 207.749 520.018 207.746C519.904 207.744 519.791 207.771 519.691 207.827C519.591 207.883 519.508 207.964 519.45 208.062C519.392 208.161 519.361 208.273 519.36 208.387V212.283C519.361 212.377 519.341 212.47 519.301 212.556C519.261 212.641 519.203 212.717 519.131 212.777C519.059 212.837 518.975 212.881 518.884 212.905C518.793 212.929 518.697 212.932 518.605 212.915L471.606 204.411C471.486 204.391 471.362 204.405 471.249 204.452C471.137 204.499 471.04 204.578 470.97 204.678C470.9 204.778 470.861 204.896 470.856 205.018C470.85 205.14 470.88 205.261 470.941 205.367L471.054 205.545L470.066 205.011C470.016 204.986 469.97 204.953 469.931 204.913C468.181 203.237 428.61 165.602 408.396 165.958C399.605 166.11 394.553 166.201 391.647 166.256C391.554 166.257 391.463 166.238 391.378 166.201C391.294 166.164 391.218 166.109 391.156 166.04C391.095 165.971 391.049 165.89 391.021 165.802C390.994 165.714 390.985 165.621 390.997 165.529C390.997 165.504 390.997 165.478 391.015 165.449C391.066 165.253 391.127 165.031 391.2 164.78L391.313 164.417C391.313 164.366 391.345 164.308 391.364 164.253C391.382 164.199 391.411 164.097 391.44 164.013C391.438 164.008 391.438 164.001 391.44 163.995C391.438 163.983 391.438 163.971 391.44 163.959C391.49 163.825 391.585 163.712 391.709 163.639C397.615 160.099 412.482 158.86 422.246 163.894C433.702 169.795 457.305 185.728 466.404 192.506C466.526 192.599 466.676 192.645 466.829 192.637C466.981 192.628 467.126 192.565 467.236 192.459C467.346 192.354 467.415 192.212 467.43 192.059C467.444 191.907 467.404 191.755 467.316 191.63L453.15 170.642C453.064 170.509 453.03 170.349 453.055 170.193C453.08 170.036 453.162 169.894 453.284 169.794C453.407 169.695 453.563 169.643 453.721 169.651C453.879 169.659 454.029 169.724 454.141 169.835L474.951 191.408C475.059 191.52 475.204 191.588 475.358 191.601C475.513 191.615 475.667 191.571 475.792 191.48C475.918 191.388 476.006 191.254 476.04 191.103C476.074 190.951 476.053 190.793 475.979 190.656L462.223 165.155C462.146 165.015 462.124 164.851 462.16 164.696C462.197 164.541 462.29 164.404 462.421 164.314C462.552 164.223 462.713 164.185 462.871 164.206C463.029 164.227 463.174 164.306 463.277 164.428L485.107 189.842C485.201 189.952 485.329 190.028 485.471 190.056C485.612 190.085 485.76 190.064 485.889 189.999C486.018 189.933 486.121 189.826 486.181 189.695C486.242 189.563 486.256 189.415 486.222 189.275C483.68 178.768 470.603 138.36 419.827 138.73C419.698 138.73 419.573 138.692 419.467 138.619C419.361 138.547 419.278 138.445 419.231 138.326C419.183 138.207 419.172 138.076 419.199 137.95C419.227 137.825 419.291 137.711 419.384 137.622L419.885 137.149C419.96 137.076 420.052 137.023 420.154 136.997H420.175C420.48 136.92 420.789 136.851 421.102 136.782L421.443 136.706C421.639 136.666 421.832 136.622 422.031 136.586C423.407 136.308 424.844 136.086 426.343 135.921L427.128 135.841H427.16C427.36 135.819 427.564 135.801 427.767 135.787L428.014 135.768C428.319 135.743 428.624 135.721 428.937 135.703H429.042C429.162 135.696 429.278 135.656 429.376 135.587L429.409 135.561C429.71 135.314 430.444 134.725 431.559 133.915L432.1 133.526L432.391 133.319H432.409C432.546 133.228 432.712 133.193 432.874 133.221C450.342 136.346 492.808 149.433 514.635 203.746C514.668 203.834 514.72 203.914 514.787 203.979C514.855 204.044 514.936 204.094 515.025 204.124C515.114 204.154 515.208 204.164 515.302 204.154C515.395 204.143 515.485 204.112 515.565 204.062C515.679 203.996 515.769 203.895 515.821 203.774C515.874 203.653 515.887 203.519 515.859 203.39C515.612 202.104 515.339 200.69 515.045 199.185C515.045 199.16 515.045 199.138 515.045 199.113C512.942 188.384 509.738 173.077 507.348 166.336C507.299 166.199 507.298 166.049 507.346 165.911C507.393 165.773 507.486 165.656 507.61 165.578C507.733 165.501 507.879 165.468 508.024 165.484C508.168 165.501 508.303 165.567 508.405 165.671C512.557 169.814 520.93 178.997 525.321 189.537C525.381 189.68 525.491 189.797 525.63 189.866C525.77 189.935 525.929 189.95 526.079 189.911C526.23 189.871 526.36 189.778 526.447 189.649C526.534 189.52 526.572 189.364 526.552 189.209L523.316 165.075C523.297 164.918 523.336 164.76 523.426 164.63C523.516 164.5 523.651 164.408 523.804 164.371C523.958 164.335 524.119 164.356 524.258 164.43C524.398 164.505 524.504 164.628 524.558 164.777L535.346 195.878C535.399 196.023 535.503 196.145 535.637 196.22C535.772 196.295 535.93 196.319 536.081 196.288C536.232 196.257 536.367 196.172 536.461 196.049C536.555 195.927 536.601 195.774 536.592 195.62C535.39 179.586 527.711 125.825 478.838 119.207C479.695 118.844 481.787 117.968 484.766 117.001C499.659 115.94 528.928 122.435 542.437 184.521C542.465 184.662 542.541 184.789 542.65 184.882C542.76 184.974 542.897 185.028 543.041 185.033C543.184 185.038 543.325 184.994 543.441 184.909C543.557 184.825 543.641 184.703 543.679 184.565L547.275 171.922C547.318 171.773 547.413 171.645 547.543 171.561C547.673 171.476 547.829 171.442 547.982 171.464C548.136 171.485 548.276 171.562 548.378 171.678C548.479 171.795 548.535 171.945 548.535 172.1V211.712C548.531 211.835 548.564 211.957 548.628 212.062C548.693 212.166 548.787 212.25 548.899 212.301L548.95 212.323C549.093 212.374 549.25 212.372 549.392 212.318C549.534 212.263 549.651 212.159 549.723 212.025C553.33 205.483 564.042 185.495 568.074 172.325C568.122 172.179 568.221 172.055 568.353 171.976C568.485 171.896 568.641 171.867 568.793 171.893C568.944 171.919 569.082 171.998 569.18 172.117C569.278 172.236 569.33 172.385 569.327 172.539C568.964 182.243 568.034 197.187 565.644 206.654C565.6 206.793 565.605 206.944 565.659 207.08C565.713 207.217 565.812 207.33 565.94 207.402C566.068 207.474 566.216 207.5 566.361 207.476C566.505 207.451 566.637 207.378 566.734 207.268C574.292 199.799 596.432 173.833 582.149 137.335C580.816 133.926 579.665 130.884 578.677 128.169C578.639 128.068 578.627 127.958 578.643 127.851C578.659 127.744 578.702 127.643 578.767 127.557C578.833 127.471 578.919 127.403 579.019 127.359C579.118 127.316 579.226 127.298 579.334 127.308H579.4L580.257 127.482L581.154 127.675C581.612 127.773 582.08 127.882 582.563 127.999L583.05 128.115L583.806 128.304L584.488 128.482L585.055 128.634L585.869 128.86L586.777 129.125C586.948 129.172 587.115 129.227 587.289 129.278C588.502 129.641 589.748 130.063 591.012 130.528C591.094 130.561 591.168 130.61 591.231 130.673C591.293 130.735 591.342 130.809 591.375 130.891C595.68 141.151 598.48 154.601 594.833 169.988C590.042 190.212 587.569 199.367 586.363 203.495C586.322 203.638 586.331 203.791 586.39 203.928C586.448 204.064 586.552 204.176 586.684 204.245C586.816 204.313 586.967 204.334 587.113 204.303C587.258 204.273 587.388 204.193 587.482 204.077C591.579 198.869 600.086 187.222 603.133 176.697C603.174 176.552 603.266 176.426 603.391 176.341C603.516 176.257 603.667 176.219 603.817 176.235C603.967 176.251 604.106 176.32 604.21 176.429C604.315 176.538 604.377 176.681 604.386 176.831L605.2 187.236C605.209 187.373 605.262 187.503 605.351 187.607C605.44 187.712 605.56 187.785 605.694 187.815C605.827 187.846 605.967 187.834 606.093 187.779C606.218 187.724 606.323 187.631 606.392 187.512C608.851 183.329 614.997 172.034 617.401 159.98C617.424 159.865 617.478 159.759 617.557 159.672C617.636 159.586 617.737 159.523 617.849 159.489C617.961 159.456 618.08 159.454 618.193 159.483C618.306 159.513 618.409 159.572 618.491 159.656V159.674L618.527 159.718C618.624 159.825 618.68 159.963 618.687 160.107Z" fill="#9C398C"/>
<path d="M624.448 253.639C623.957 263.611 620.089 275.324 608.465 286.623C608.465 286.623 610.703 258.945 609.17 238.35C614.056 241.261 620.231 246.12 624.448 253.639Z" fill="#9C398C"/>
<path d="M475.634 212.212L475.561 212.797V212.906L464.461 211.453C458.006 207.568 448.003 202.458 433.066 196.818C400.397 184.505 363.423 202.629 363.423 202.629L363.54 201.967C363.885 201.673 364.233 201.382 364.589 201.099C364.402 199.791 364.339 198.468 364.4 197.148L364.589 196.091C426.383 173.076 467.857 205.478 474.65 211.333C475.3 211.896 475.634 212.212 475.634 212.212Z" fill="#D969BD"/>
<path d="M548.964 212.293C548.844 212.656 548.768 212.845 548.75 212.896L548.913 212.271C562.16 160.698 528.281 116.8 528.281 116.8C528.281 116.8 529.273 116.506 531.024 116.168C568.564 151.761 551.176 205.951 548.964 212.293Z" fill="#D969BD"/>
<path d="M517.206 210.567C516.671 208.336 516.125 206.155 515.568 204.025C501.137 149.076 478.267 127.951 464.479 119.952C468.201 119.353 471.971 119.11 475.739 119.225C499.008 136.109 510.632 178.524 515.049 199.076C515.049 199.101 515.049 199.123 515.049 199.148C516.472 205.795 517.141 210.134 517.206 210.567Z" fill="#D969BD"/>
<path d="M542.38 129.707C543.096 129.291 544.014 129.534 544.431 130.25L543.134 131.004C544.349 130.297 544.426 130.253 544.431 130.251L544.432 130.252C544.433 130.253 544.434 130.255 544.435 130.257C544.437 130.261 544.44 130.267 544.445 130.274C544.453 130.288 544.464 130.309 544.48 130.336C544.51 130.39 544.555 130.468 544.612 130.57C544.726 130.774 544.891 131.073 545.099 131.461C545.514 132.238 546.101 133.37 546.792 134.808C548.175 137.681 549.981 141.78 551.682 146.692C555.076 156.489 558.095 169.644 556.391 182.803C556.284 183.624 555.532 184.204 554.71 184.098C553.889 183.991 553.309 183.239 553.415 182.417C555.035 169.911 552.169 157.263 548.848 147.674C547.191 142.892 545.431 138.901 544.088 136.109C543.417 134.713 542.85 133.619 542.453 132.876C542.255 132.505 542.099 132.222 541.993 132.033C541.941 131.939 541.901 131.869 541.874 131.822C541.861 131.8 541.851 131.782 541.845 131.772C541.842 131.767 541.84 131.763 541.839 131.761C541.838 131.76 541.837 131.758 541.837 131.758C541.421 131.042 541.664 130.124 542.38 129.707Z" fill="#17091D"/>
<path d="M454.642 139.997C454.861 139.199 455.687 138.729 456.486 138.949L456.088 140.395C456.485 138.948 456.487 138.948 456.488 138.949L456.49 138.949C456.491 138.95 456.494 138.951 456.496 138.951C456.501 138.953 456.508 138.955 456.516 138.957C456.532 138.962 456.555 138.968 456.584 138.977C456.642 138.994 456.725 139.018 456.83 139.051C457.043 139.117 457.349 139.215 457.743 139.352C458.532 139.625 459.669 140.049 461.093 140.663C463.941 141.891 467.937 143.877 472.584 146.922C481.883 153.015 493.78 163.344 504.297 180.308C504.733 181.012 504.516 181.936 503.812 182.372C503.108 182.809 502.184 182.592 501.747 181.888C491.484 165.334 479.912 155.311 470.94 149.432C466.452 146.491 462.611 144.585 459.906 143.418C458.553 142.835 457.484 142.436 456.761 142.186C456.4 142.061 456.125 141.972 455.944 141.916C455.853 141.888 455.786 141.869 455.743 141.857C455.722 141.851 455.707 141.846 455.698 141.843C455.694 141.842 455.691 141.841 455.69 141.841L455.691 141.84C454.892 141.62 454.422 140.796 454.642 139.997Z" fill="#17091D"/>
<path d="M595.94 148.464C596.75 148.289 597.549 148.803 597.724 149.613C599.335 157.076 597.625 167.593 595.619 176.031C594.606 180.294 593.496 184.107 592.641 186.852C592.213 188.226 591.848 189.335 591.589 190.102C591.46 190.485 591.357 190.783 591.286 190.986C591.251 191.088 591.223 191.167 591.204 191.22C591.195 191.246 591.187 191.266 591.183 191.28C591.18 191.287 591.178 191.292 591.177 191.296C591.176 191.298 591.176 191.3 591.176 191.301L591.175 191.302C591.172 191.301 591.107 191.278 589.763 190.796L591.175 191.303C590.895 192.082 590.037 192.487 589.257 192.208C588.477 191.928 588.071 191.07 588.351 190.29L588.352 190.287C588.352 190.284 588.354 190.279 588.356 190.273C588.361 190.262 588.367 190.244 588.376 190.22C588.393 190.171 588.419 190.097 588.453 190C588.521 189.806 588.62 189.516 588.746 189.143C588.998 188.395 589.356 187.309 589.776 185.96C590.617 183.261 591.707 179.517 592.7 175.338C594.708 166.89 596.245 156.975 594.791 150.246C594.616 149.437 595.131 148.639 595.94 148.464Z" fill="#17091D"/>
<path d="M394.081 187.274C405.624 184.817 419.136 186.545 429.647 188.827C434.925 189.973 439.492 191.269 442.742 192.279C444.367 192.784 445.664 193.218 446.557 193.527C447.004 193.681 447.35 193.804 447.585 193.889C447.703 193.932 447.794 193.965 447.855 193.988C447.885 193.999 447.909 194.007 447.925 194.013C447.933 194.016 447.94 194.018 447.945 194.02C447.947 194.021 447.948 194.022 447.95 194.022L447.951 194.023C447.951 194.023 447.952 194.024 447.425 195.428L447.952 194.023C448.727 194.314 449.12 195.179 448.83 195.955C448.539 196.73 447.674 197.123 446.899 196.833C446.898 196.832 446.897 196.831 446.895 196.831C446.892 196.83 446.887 196.828 446.88 196.826C446.867 196.821 446.846 196.813 446.819 196.803C446.763 196.783 446.679 196.752 446.567 196.712C446.343 196.631 446.011 196.512 445.578 196.362C444.711 196.062 443.443 195.638 441.851 195.143C438.665 194.153 434.184 192.882 429.01 191.758C418.618 189.502 405.613 187.887 394.706 190.209C393.895 190.381 393.099 189.864 392.926 189.053C392.754 188.243 393.27 187.447 394.081 187.274Z" fill="#17091D"/>
</svg>
