<svg width="1000" height="1000" viewBox="0 0 1000 1000" fill="none" xmlns="http://www.w3.org/2000/svg">
<path d="M370.688 317.817C370.454 317.815 370.223 317.764 370.009 317.667C369.796 317.57 369.605 317.429 369.45 317.254C362.984 309.957 360.387 298.611 358.298 289.496C357.14 284.43 356.137 280.047 354.793 277.848C354.561 277.474 354.433 277.044 354.425 276.603C354.417 276.162 354.528 275.727 354.746 275.344C355.032 274.829 355.492 274.432 356.044 274.227C356.597 274.022 357.204 274.021 357.757 274.225L368.509 278.095L366.856 275.915C354.659 260.651 349.875 235.728 348.382 225.716C348.328 225.365 348.351 225.007 348.447 224.666C348.544 224.325 348.712 224.009 348.941 223.739C349.178 223.465 349.47 223.246 349.798 223.097C350.127 222.947 350.484 222.869 350.845 222.87C351.25 222.869 351.65 222.968 352.008 223.158C352.366 223.348 352.671 223.624 352.897 223.96C353.956 225.615 355.345 227.032 356.978 228.122C358.611 229.213 360.452 229.954 362.385 230.298C355.026 215.177 353.337 197.845 357.361 178.751C360.761 162.619 367.496 149.237 371.208 142.7C371.525 142.142 371.819 141.634 372.09 141.173C372.306 140.8 372.616 140.49 372.989 140.275C373.362 140.06 373.785 139.948 374.215 139.948C374.565 139.948 374.91 140.021 375.23 140.161C375.549 140.302 375.836 140.508 376.072 140.766C376.303 141.019 376.478 141.318 376.586 141.644C376.694 141.97 376.731 142.315 376.696 142.656C375.875 150.952 377.724 159.293 381.974 166.464C382.563 154.507 388.422 143.343 393.55 135.747C400.772 125.052 410.815 115.16 421.102 108.6C437.244 98.3114 441.443 83.7637 442.34 79.5516C442.432 79.126 442.633 78.7318 442.925 78.4088C443.217 78.0857 443.588 77.8451 444.002 77.7111C444.416 77.5771 444.858 77.5544 445.284 77.6452C445.709 77.7361 446.103 77.9373 446.427 78.2288C446.63 78.4105 446.826 78.5922 447.022 78.7812C455.954 87.4633 455.329 100.855 454.131 108.167C458.907 103.636 468.25 95.4476 478.635 90.0727C491.515 83.4003 497.886 60.2068 499.016 55.624C499.111 55.2451 499.293 54.8939 499.549 54.5989C499.805 54.304 500.127 54.0737 500.489 53.9267C500.851 53.7797 501.242 53.7203 501.631 53.7531C502.02 53.786 502.396 53.9103 502.728 54.1158L503.033 54.3085C515.837 62.5363 515.899 89.1968 515.459 98.9619C530.654 92.6856 545.855 58.8839 548.808 52.0298C549 51.5841 549.319 51.2045 549.724 50.9378C550.13 50.671 550.604 50.5289 551.089 50.5289C551.552 50.5267 552.005 50.6551 552.398 50.8994C552.79 51.1437 553.106 51.494 553.309 51.9099C553.97 53.2364 554.602 54.6646 555.187 56.1474C555.2 56.1766 555.211 56.207 555.219 56.2382C559.981 68.3401 560.704 81.445 560.715 88.092C565.012 83.0041 567.718 72.4649 568.579 57.4121C569.345 43.9655 568.448 30.8824 568.031 25.8744C567.991 25.4071 568.085 24.9382 568.301 24.5221C568.518 24.1061 568.848 23.76 569.253 23.524C569.658 23.2881 570.121 23.172 570.59 23.1892C571.058 23.2064 571.512 23.3562 571.899 23.6212C602.981 44.5324 623.635 69.841 633.286 98.8493C638.493 114.395 640.298 130.879 638.578 147.184C643.148 136.474 648.691 122.261 651.121 115.97C651.321 115.446 651.693 115.006 652.176 114.721C652.658 114.436 653.223 114.323 653.778 114.4C654.334 114.477 654.846 114.74 655.233 115.146C655.62 115.552 655.858 116.077 655.908 116.635C655.973 117.333 656.032 118.034 656.09 118.739V118.765C658.215 145.342 653.387 173.576 641.742 202.693C636.962 214.646 623.26 228.252 609.163 235.037C597.844 240.492 585.687 243.997 573.203 245.406H573.167C559.577 246.943 545.822 246.062 532.539 242.804L491.079 232.664C487.372 232.227 483.643 232.002 479.91 231.992C454.745 231.992 441.672 243.233 435.137 252.66C426.957 264.471 426.191 276.918 427.066 279.258C427.182 279.575 427.259 279.774 429.609 308.07C429.681 308.975 429.725 309.495 429.725 309.499C429.748 309.759 429.708 310.02 429.608 310.262C429.508 310.503 429.351 310.716 429.151 310.883C428.851 311.135 428.471 311.271 428.08 311.268C427.251 311.268 427.164 311.167 425.007 308.663C423.644 307.078 421.585 304.687 419.093 301.976L419.031 301.914C416.343 299.007 413.725 296.321 411.244 293.992C402.591 285.858 395.381 281.559 390.394 281.559C389.768 281.555 389.145 281.629 388.538 281.781C379.631 284.056 374.252 295.096 372.555 314.601C372.505 315.164 372.468 315.611 372.432 315.913C372.254 317.479 371.404 317.814 370.725 317.817H370.688Z" fill="#CE44A2"/>
<path d="M570.515 24.821C570.681 24.8208 570.843 24.8716 570.979 24.9664C642.599 73.1523 639.609 132.568 636.147 152.614C636.124 152.737 636.129 152.864 636.161 152.985C636.193 153.106 636.251 153.218 636.333 153.313C636.414 153.409 636.516 153.484 636.63 153.535C636.744 153.586 636.869 153.61 636.994 153.606C637.109 153.608 637.224 153.584 637.329 153.537C637.434 153.49 637.528 153.421 637.604 153.334C637.666 153.267 637.717 153.189 637.753 153.105C642.551 142.424 649.74 123.98 652.646 116.534C652.704 116.373 652.811 116.235 652.952 116.138C653.092 116.041 653.26 115.99 653.43 115.992C653.643 115.988 653.85 116.065 654.008 116.209C654.166 116.352 654.264 116.55 654.28 116.763C654.346 117.453 654.405 118.146 654.458 118.842C656.5 144.321 652.232 172.035 640.223 202.065C635.388 214.152 621.771 227.141 608.454 233.555C597.296 238.924 585.314 242.376 573.01 243.767C568.751 244.253 564.467 244.496 560.18 244.494C551.002 244.496 541.856 243.398 532.938 241.223L491.442 231.069C491.406 231.059 491.37 231.051 491.333 231.048C487.541 230.598 483.727 230.367 479.909 230.357C429.594 230.353 423.321 273.917 425.536 279.833C425.645 280.128 427.476 302.303 427.963 308.205C428.035 309.11 428.079 309.634 428.079 309.634C427.894 309.634 424.81 305.77 420.259 300.832L420.23 300.803C417.919 298.288 415.231 295.497 412.358 292.807C405.217 286.095 396.924 279.931 390.39 279.931C389.626 279.924 388.865 280.013 388.123 280.197C371.189 284.521 371.146 316.175 370.688 316.175C360.862 305.087 360.209 283.576 356.198 276.999C356.121 276.87 356.078 276.722 356.076 276.572C356.074 276.421 356.112 276.273 356.185 276.141C356.259 276.01 356.367 275.901 356.497 275.825C356.627 275.749 356.774 275.709 356.925 275.708C357.027 275.709 357.127 275.728 357.223 275.763L370.463 280.531C370.557 280.566 370.656 280.584 370.757 280.585C370.914 280.584 371.068 280.538 371.201 280.454C371.334 280.37 371.441 280.251 371.51 280.11C371.579 279.968 371.608 279.811 371.593 279.654C371.578 279.498 371.52 279.348 371.425 279.223L368.156 274.898C356.267 260.034 351.549 235.798 349.994 225.473C349.975 225.351 349.983 225.227 350.017 225.109C350.051 224.991 350.11 224.882 350.191 224.79C350.272 224.697 350.372 224.624 350.484 224.574C350.596 224.524 350.718 224.5 350.841 224.502C350.977 224.5 351.113 224.533 351.234 224.596C351.355 224.659 351.458 224.752 351.535 224.866C352.866 226.928 354.656 228.655 356.764 229.911C358.872 231.167 361.242 231.92 363.688 232.109H363.786C363.93 232.108 364.072 232.07 364.197 231.999C364.322 231.928 364.427 231.826 364.502 231.703C364.577 231.58 364.619 231.439 364.624 231.295C364.629 231.151 364.597 231.009 364.531 230.88C346.533 195.825 365.032 156.928 372.653 143.5C372.965 142.954 373.256 142.453 373.525 141.995C373.597 141.866 373.702 141.759 373.83 141.685C373.958 141.612 374.104 141.574 374.251 141.577C374.37 141.574 374.488 141.596 374.597 141.642C374.707 141.688 374.805 141.757 374.886 141.844C374.967 141.931 375.028 142.034 375.066 142.147C375.103 142.259 375.117 142.378 375.105 142.497C373.441 160.867 383.739 171.643 383.739 171.643C383.712 171.35 383.691 171.055 383.674 170.76C382.221 148.362 402.395 122.479 422.017 109.974C438.613 99.3949 442.972 84.5019 443.945 79.8974C443.976 79.7521 444.045 79.6176 444.145 79.5073C444.244 79.3971 444.371 79.315 444.513 79.2693C444.654 79.2236 444.805 79.216 444.95 79.2471C445.095 79.2783 445.23 79.3471 445.34 79.4468C445.529 79.6176 445.703 79.792 445.896 79.9664C455.304 89.1101 453.429 103.952 452.071 110.283C452.043 110.407 452.045 110.536 452.074 110.66C452.103 110.784 452.16 110.9 452.241 110.999C452.321 111.098 452.422 111.177 452.538 111.231C452.653 111.285 452.779 111.313 452.906 111.311C453.015 111.311 453.123 111.289 453.223 111.246C453.324 111.204 453.415 111.142 453.491 111.064C453.945 110.617 454.464 110.112 455.046 109.56C459.946 104.886 469.146 96.84 479.382 91.5305C492.822 84.5746 499.28 61.3048 500.599 56.0243C500.632 55.895 500.694 55.7752 500.782 55.6747C500.869 55.5742 500.979 55.4958 501.103 55.4458C501.226 55.3959 501.36 55.3758 501.493 55.3873C501.625 55.3988 501.754 55.4415 501.867 55.5119L502.161 55.6972C515.056 63.9614 514.13 93.7001 513.777 100.053V100.074C513.771 100.189 513.788 100.304 513.828 100.413C513.867 100.521 513.929 100.619 514.008 100.703C514.087 100.786 514.183 100.852 514.289 100.898C514.394 100.943 514.508 100.966 514.624 100.965C514.716 100.965 514.808 100.95 514.896 100.921C530.984 95.6807 546.857 60.7451 550.315 52.6954C550.38 52.5422 550.489 52.4116 550.628 52.3204C550.767 52.2292 550.93 52.1813 551.096 52.1829C551.253 52.1811 551.408 52.2243 551.542 52.3073C551.676 52.3904 551.783 52.5098 551.852 52.6518C552.52 54.0001 553.123 55.3738 553.668 56.7693C558.964 70.1396 559.171 85.0398 559.069 90.0259C559.067 90.1391 559.087 90.2517 559.128 90.3569C559.17 90.4622 559.232 90.5581 559.311 90.639C559.391 90.7199 559.485 90.7842 559.589 90.8281C559.694 90.8719 559.806 90.8945 559.919 90.8945C560.123 90.8942 560.319 90.8192 560.471 90.6837C573.413 79.4177 570.453 35.1313 569.665 25.7405C569.651 25.6035 569.672 25.4653 569.725 25.3384C569.778 25.2115 569.862 25.0999 569.97 25.0136C570.122 24.8848 570.315 24.8141 570.515 24.8138M570.515 21.543C569.945 21.5441 569.381 21.6632 568.86 21.8928C568.338 22.1224 567.87 22.4575 567.484 22.877C567.098 23.2965 566.803 23.7913 566.618 24.3304C566.432 24.8695 566.36 25.4412 566.406 26.0094C566.824 30.981 567.714 43.9878 566.951 57.3181C566.225 70.0378 564.325 77.8041 562.196 82.5431C561.797 75.3183 560.504 65.2007 556.748 55.65L556.701 55.5264C556.098 54 555.444 52.5282 554.765 51.1654C554.427 50.4766 553.903 49.8968 553.252 49.4925C552.6 49.0882 551.848 48.8757 551.081 48.8795C550.278 48.8791 549.492 49.1139 548.82 49.5549C548.148 49.9959 547.62 50.624 547.3 51.3616C539.861 68.6423 527.929 89.6371 517.173 96.2259C517.315 90.1786 516.981 84.1296 516.175 78.1348C514.358 65.466 510.232 56.991 503.937 52.9498L503.915 52.9316L503.766 52.8407L503.621 52.7463H503.588C503.039 52.4107 502.419 52.2087 501.777 52.1565C501.136 52.1044 500.491 52.2035 499.894 52.446C499.298 52.6885 498.767 53.0675 498.344 53.5526C497.92 54.0377 497.617 54.6154 497.457 55.2393C496.342 59.6985 490.163 82.2778 477.908 88.6304C469.379 93.0496 461.562 99.3113 456.313 103.978C456.934 96.1278 456.016 85.2288 448.191 77.6224C447.963 77.4007 447.756 77.2081 447.563 77.0336C447.028 76.5495 446.375 76.2147 445.669 76.0627C444.964 75.9108 444.231 75.9471 443.544 76.168C442.857 76.3888 442.24 76.7866 441.755 77.3212C441.27 77.8559 440.935 78.5087 440.781 79.2142C439.913 83.2808 435.87 97.2907 420.262 107.238C409.794 113.91 399.576 123.973 392.235 134.857C387.774 141.461 382.791 150.706 381.004 160.897C378.64 155.176 377.717 148.963 378.316 142.802C378.369 142.235 378.304 141.664 378.125 141.124C377.945 140.584 377.655 140.087 377.273 139.666C376.884 139.24 376.41 138.901 375.882 138.669C375.354 138.437 374.784 138.317 374.208 138.317C373.492 138.314 372.788 138.5 372.167 138.857C371.547 139.214 371.031 139.729 370.673 140.349C370.397 140.818 370.103 141.326 369.783 141.882C366.02 148.518 359.199 162.07 355.752 178.417C351.949 196.465 353.165 212.986 359.359 227.613C357.277 226.588 355.513 225.015 354.255 223.063C353.739 222.28 352.971 221.697 352.078 221.411C351.185 221.125 350.221 221.152 349.346 221.489C348.471 221.826 347.738 222.451 347.267 223.263C346.796 224.074 346.617 225.022 346.758 225.949C347.938 233.904 349.711 241.76 352.061 249.451C355.243 259.703 359.213 268.178 363.885 274.694L358.338 272.685C357.537 272.397 356.667 272.364 355.846 272.591C355.026 272.818 354.296 273.293 353.757 273.952C353.218 274.611 352.896 275.421 352.836 276.27C352.775 277.12 352.979 277.967 353.42 278.696C354.629 280.68 355.654 285.139 356.732 289.86C358.861 299.16 361.513 310.731 368.261 318.345C368.571 318.689 368.95 318.964 369.373 319.152C369.796 319.34 370.254 319.436 370.717 319.435C371.211 319.435 373.695 319.272 374.059 316.081C374.099 315.746 374.139 315.296 374.186 314.725C374.462 311.556 375.112 304.139 377.4 297.234C380.034 289.304 383.917 284.634 388.951 283.347C389.427 283.231 389.915 283.173 390.404 283.177C393.586 283.177 399.594 285.255 410.135 295.17C412.583 297.47 415.173 300.108 417.836 303.001C417.865 303.038 417.898 303.07 417.93 303.107C420.393 305.781 422.427 308.147 423.778 309.714C424.341 310.368 424.785 310.884 425.115 311.255C425.733 311.945 426.568 312.893 428.094 312.893C428.547 312.895 428.996 312.802 429.412 312.621C429.828 312.44 430.201 312.174 430.509 311.84C430.816 311.506 431.051 311.112 431.198 310.683C431.345 310.254 431.401 309.799 431.363 309.347C431.363 309.347 431.319 308.827 431.246 307.929C431.047 305.509 430.444 298.171 429.892 291.626C428.853 279.27 428.838 279.27 428.628 278.685C428.41 278.038 428.195 274.658 429.434 269.443C430.845 263.533 433.384 257.951 436.913 253.005C443.248 244.156 455.856 233.613 479.927 233.613C483.569 233.622 487.207 233.84 490.824 234.264L532.161 244.367C541.337 246.61 550.749 247.746 560.195 247.75C564.589 247.756 568.981 247.513 573.348 247.024H573.399C586.067 245.593 598.405 242.037 609.893 236.506C616.762 233.192 623.841 228.147 629.824 222.275C636.126 216.096 640.775 209.537 643.263 203.282C649.224 188.382 653.456 173.576 655.839 159.308C658.125 145.881 658.758 132.223 657.724 118.642C657.725 118.631 657.725 118.62 657.724 118.609C657.662 117.813 657.604 117.115 657.542 116.476C657.454 115.552 657.057 114.685 656.415 114.016C655.773 113.347 654.924 112.914 654.005 112.788C653.086 112.661 652.152 112.849 651.354 113.321C650.555 113.792 649.939 114.52 649.605 115.385C647.822 120.004 644.36 128.894 640.841 137.518C641.081 124.215 639.053 110.969 634.844 98.3483C630.412 85.0216 623.561 72.2728 614.477 60.4617C603.74 46.5027 589.726 33.6594 572.825 22.3025C572.149 21.8444 571.352 21.6001 570.536 21.6011L570.515 21.543Z" fill="#17091D"/>
<path d="M637.604 153.333L637.052 156.197L630.688 174.128L616.493 199.106L605.411 211.252L585.36 227.5C597.347 211.968 616.053 114.658 607.634 81.3579C601.822 58.4443 581.866 36.49 569.97 25.0278C570.109 24.9089 570.283 24.8392 570.465 24.8293C570.648 24.8195 570.829 24.8701 570.98 24.9732C642.599 73.1592 639.609 132.575 636.148 152.621C636.118 152.801 636.147 152.985 636.231 153.147C636.314 153.309 636.448 153.439 636.611 153.519C636.775 153.599 636.959 153.624 637.138 153.591C637.317 153.557 637.481 153.467 637.604 153.333Z" fill="#D969BD"/>
<path d="M640.208 202.061C635.374 214.149 621.756 227.137 608.44 233.552C597.286 238.92 585.309 242.373 573.01 243.767C578.458 240.951 584.386 237.8 587.848 235.772C595.392 231.287 622.773 211.51 631.491 196.61C637.371 186.558 649.235 143.318 654.443 118.838C656.485 144.325 652.217 172.039 640.208 202.061Z" fill="#D969BD"/>
<path d="M553.675 56.7546C553.526 72.6833 549.037 95.626 526.901 108.233C490.737 128.832 482.928 129.119 482.928 129.119L489.103 122.141L509.081 105.391L513.763 100.052C513.723 100.827 513.686 101.255 513.686 101.255C532.328 96.938 551.016 51.0234 551.016 51.0234C552.017 52.8787 552.905 54.7925 553.675 56.7546Z" fill="#9C398C"/>
<path d="M497.595 91.7693C486.923 107.571 429.532 143.549 429.532 143.549L442.245 122.834L452.053 110.842L455.053 109.559C459.953 104.885 469.154 96.839 479.39 91.5294C494.566 83.665 500.861 54.9512 500.861 54.9512C501.31 55.1679 501.747 55.4106 502.168 55.678C503.574 66.5043 504.086 82.1641 497.595 91.7693Z" fill="#9C398C"/>
<path d="M445.896 79.9517C446.698 90.6654 445.296 108.229 430.611 120.593C408.09 139.538 395.776 148.355 389.769 159.937L383.764 171.534L383.644 170.77C382.191 148.373 402.366 122.49 421.988 109.985C441.882 97.3123 444.203 78.498 444.203 78.498C444.792 78.9533 445.357 79.4385 445.896 79.9517Z" fill="#9C398C"/>
<path d="M381.168 162.239C381.986 162.11 382.755 162.668 382.885 163.486V163.487C382.885 163.488 382.886 163.49 382.886 163.491C382.887 163.495 382.888 163.501 382.889 163.508C382.891 163.523 382.895 163.546 382.9 163.576C382.909 163.637 382.924 163.728 382.943 163.846C382.981 164.082 383.037 164.429 383.11 164.873C383.255 165.762 383.467 167.039 383.732 168.587C384.26 171.685 384.998 175.868 385.837 180.215C386.677 184.566 387.614 189.064 388.54 192.798C389.003 194.666 389.459 196.325 389.895 197.67C390.34 199.047 390.731 199.991 391.039 200.497C391.47 201.205 391.245 202.127 390.537 202.558C389.83 202.988 388.907 202.764 388.477 202.057C387.974 201.23 387.495 200 387.04 198.594C386.575 197.157 386.1 195.424 385.628 193.521C384.684 189.713 383.735 185.155 382.892 180.783C382.048 176.408 381.306 172.203 380.775 169.092C380.509 167.536 380.296 166.253 380.15 165.359C380.076 164.911 380.019 164.561 379.981 164.322C379.961 164.203 379.947 164.112 379.937 164.05C379.932 164.019 379.928 163.995 379.926 163.98C379.925 163.972 379.924 163.966 379.923 163.962C379.923 163.96 379.922 163.958 379.922 163.957C379.792 163.139 380.35 162.369 381.168 162.239Z" fill="#17091D"/>
<path d="M422.744 165.51C423.521 165.524 424.149 166.126 424.212 166.883L424.217 167.035V167.095C424.217 167.143 424.217 167.22 424.22 167.323C424.225 167.528 424.237 167.84 424.267 168.243C424.325 169.051 424.451 170.223 424.722 171.652C425.264 174.511 426.381 178.374 428.68 182.382C433.237 190.328 442.557 199.056 461.865 201.482C462.687 201.585 463.269 202.336 463.166 203.157C463.063 203.979 462.313 204.562 461.491 204.459C441.284 201.921 431.122 192.668 426.078 183.875C423.576 179.514 422.363 175.317 421.774 172.21C421.48 170.655 421.34 169.367 421.274 168.46C421.242 168.006 421.227 167.646 421.221 167.396C421.218 167.271 421.217 167.172 421.217 167.103V166.996C421.217 166.993 421.218 166.991 421.218 166.989V166.986C421.218 166.984 421.217 166.983 422.717 167.01L421.218 166.983C421.233 166.155 421.916 165.495 422.744 165.51Z" fill="#17091D"/>
<path d="M449.344 170.157C450.17 170.106 450.882 170.733 450.935 171.56V171.562C450.935 171.565 450.935 171.571 450.936 171.58C450.937 171.597 450.939 171.626 450.942 171.664C450.949 171.742 450.959 171.862 450.976 172.023C451.009 172.344 451.066 172.826 451.158 173.452C451.343 174.704 451.671 176.529 452.243 178.788C453.387 183.307 455.504 189.551 459.392 196.407C467.151 210.092 482.007 226.299 510.476 236.076C511.259 236.345 511.676 237.199 511.407 237.982C511.138 238.766 510.285 239.183 509.502 238.914C480.3 228.885 464.88 212.171 456.781 197.887C452.74 190.759 450.533 184.256 449.335 179.524C448.736 177.158 448.389 175.232 448.19 173.89C448.091 173.219 448.03 172.693 447.992 172.33C447.974 172.149 447.96 172.008 447.952 171.91C447.948 171.861 447.945 171.823 447.943 171.796C447.942 171.782 447.942 171.772 447.941 171.764C447.941 171.76 447.941 171.757 447.94 171.754C447.94 171.753 447.941 171.751 447.94 171.75C447.942 171.749 447.985 171.745 449.438 171.654L447.94 171.748C447.889 170.921 448.517 170.209 449.344 170.157Z" fill="#17091D"/>
<path d="M509.859 170.155C510.686 170.109 511.394 170.743 511.44 171.57V171.577C511.44 171.583 511.441 171.593 511.442 171.606C511.443 171.632 511.445 171.672 511.449 171.724C511.455 171.83 511.466 171.988 511.481 172.197C511.511 172.614 511.558 173.232 511.629 174.025C511.771 175.611 512.005 177.899 512.374 180.692C513.114 186.282 514.394 193.88 516.551 201.925C518.71 209.978 521.736 218.431 525.949 225.756C530.165 233.087 535.515 239.195 542.281 242.704C543.016 243.085 543.304 243.991 542.922 244.726C542.541 245.461 541.635 245.748 540.9 245.367C533.447 241.502 527.732 234.874 523.348 227.251C518.961 219.623 515.851 210.902 513.653 202.703C511.452 194.496 510.152 186.763 509.401 181.085C509.025 178.245 508.786 175.915 508.641 174.291C508.569 173.48 508.52 172.845 508.489 172.411C508.473 172.194 508.462 172.027 508.454 171.913C508.451 171.857 508.448 171.813 508.447 171.784C508.446 171.769 508.445 171.757 508.445 171.749C508.445 171.746 508.445 171.743 508.445 171.741C508.445 171.74 508.444 171.738 508.444 171.738C508.444 171.737 508.444 171.736 509.942 171.653L508.444 171.736C508.398 170.909 509.032 170.201 509.859 170.155Z" fill="#17091D"/>
<path d="M528.684 188.399C529.505 188.293 530.257 188.872 530.364 189.693V189.694C530.364 189.695 530.365 189.697 530.365 189.699C530.366 189.704 530.367 189.71 530.368 189.72C530.371 189.739 530.375 189.769 530.38 189.809C530.391 189.887 530.407 190.006 530.429 190.162C530.473 190.474 530.541 190.936 530.634 191.529C530.819 192.717 531.104 194.431 531.501 196.528C532.295 200.726 533.536 206.449 535.321 212.555C537.108 218.666 539.431 225.125 542.378 230.811C545.335 236.516 548.859 241.324 552.994 244.269C553.669 244.749 553.826 245.686 553.346 246.36C552.865 247.035 551.929 247.192 551.254 246.712C546.564 243.373 542.771 238.089 539.714 232.19C536.647 226.272 534.261 219.615 532.442 213.396C530.622 207.172 529.36 201.35 528.554 197.086C528.15 194.953 527.86 193.207 527.67 191.992C527.575 191.385 527.505 190.909 527.459 190.585C527.436 190.423 527.419 190.298 527.407 190.213C527.401 190.171 527.397 190.138 527.395 190.116C527.393 190.105 527.391 190.096 527.391 190.09C527.39 190.087 527.39 190.085 527.39 190.083V190.081C527.392 190.08 527.445 190.073 528.877 189.887L527.39 190.08C527.283 189.259 527.862 188.506 528.684 188.399Z" fill="#17091D"/>
<path d="M598.419 226.445C599.048 225.906 599.995 225.979 600.535 226.607C601.074 227.236 601 228.183 600.372 228.723C595.009 233.32 587.804 237.675 581.994 240.859C579.078 242.458 576.493 243.772 574.636 244.688C573.707 245.146 572.96 245.504 572.444 245.749C572.186 245.871 571.985 245.965 571.848 246.028C571.78 246.06 571.727 246.085 571.692 246.102C571.674 246.11 571.661 246.116 571.652 246.12C571.647 246.122 571.644 246.124 571.641 246.125C571.64 246.125 571.639 246.126 571.638 246.126L571.637 246.127H571.636C570.883 246.472 569.993 246.14 569.648 245.387C569.303 244.634 569.635 243.743 570.388 243.398L570.39 243.397C570.392 243.397 570.395 243.395 570.399 243.394C570.407 243.39 570.419 243.384 570.435 243.377C570.468 243.362 570.518 243.339 570.583 243.309C570.714 243.248 570.908 243.157 571.16 243.038C571.663 242.8 572.396 242.447 573.309 241.997C575.136 241.096 577.682 239.802 580.551 238.229C586.312 235.071 593.299 230.836 598.419 226.445Z" fill="#17091D"/>
<path d="M639.367 139.326C640.195 139.363 640.836 140.063 640.799 140.89C639.688 165.844 626.275 188.277 613.295 204.355C606.79 212.412 600.358 218.919 595.554 223.4C593.151 225.641 591.153 227.379 589.753 228.553C589.053 229.14 588.501 229.588 588.12 229.889C587.931 230.039 587.78 230.156 587.672 230.237C587.621 230.276 587.567 230.316 587.52 230.348C587.503 230.36 587.454 230.393 587.396 230.427C587.391 230.43 587.277 230.5 587.123 230.553C587.001 230.59 586.562 230.634 586.25 230.586C585.631 230.254 585.133 229.205 585.188 228.727L585.237 228.582C585.356 228.28 585.566 228.037 585.825 227.872C585.835 227.865 585.85 227.854 585.87 227.838C585.951 227.778 586.081 227.678 586.259 227.537C586.614 227.256 587.144 226.826 587.825 226.254C589.187 225.112 591.146 223.41 593.508 221.207C598.234 216.798 604.564 210.394 610.961 202.47C623.785 186.586 636.733 164.767 637.802 140.757C637.839 139.93 638.54 139.289 639.367 139.326ZM585.955 227.797C585.952 227.799 585.948 227.801 585.944 227.803C585.95 227.8 585.956 227.798 585.962 227.794C585.96 227.796 585.957 227.796 585.955 227.797ZM587.015 227.686L587.013 227.685C587.01 227.685 587.008 227.684 587.005 227.684C587.008 227.685 587.012 227.685 587.015 227.686Z" fill="#17091D"/>
<path d="M559.392 87.7456C559.604 86.9448 560.425 86.4673 561.226 86.6792C562.026 86.8912 562.504 87.7124 562.292 88.5131C562.025 89.5232 561.22 91.4051 560.451 93.1059C559.66 94.8562 558.829 96.585 558.433 97.3706L558.43 97.3764C556.296 101.564 553.284 105.242 549.601 108.16C541.957 114.278 535.476 120.891 530.511 126.244C528.002 128.948 525.955 131.249 524.244 133.108C523.405 134.02 522.658 134.813 522.019 135.445C521.399 136.058 520.809 136.592 520.296 136.929C519.603 137.384 518.673 137.191 518.219 136.498C517.764 135.806 517.957 134.876 518.649 134.421C518.894 134.261 519.303 133.911 519.909 133.312C520.496 132.731 521.204 131.981 522.036 131.077C523.668 129.303 525.833 126.876 528.312 124.204C533.32 118.804 539.919 112.067 547.732 105.813L547.738 105.808C551.084 103.158 553.819 99.8175 555.757 96.0141C556.132 95.2702 556.943 93.5845 557.718 91.8706C558.517 90.1028 559.201 88.4653 559.392 87.7456Z" fill="#17091D"/>
<path d="M515.606 97.4834C516.26 96.9751 517.203 97.0939 517.711 97.748C518.187 98.3611 518.114 99.2272 517.564 99.7519L517.447 99.8525L517.446 99.8535C517.445 99.8542 517.444 99.8551 517.442 99.8564L517.354 99.9248C517.292 99.9729 517.2 100.045 517.081 100.139C516.84 100.327 516.485 100.605 516.034 100.962C515.13 101.675 513.837 102.704 512.278 103.962C509.159 106.479 504.982 109.91 500.746 113.573C496.504 117.24 492.224 121.121 488.889 124.539C487.22 126.25 485.81 127.823 484.764 129.18C483.685 130.579 483.111 131.603 482.942 132.236C482.728 133.036 481.905 133.511 481.105 133.297C480.305 133.083 479.83 132.261 480.043 131.461C480.377 130.214 481.276 128.79 482.388 127.348C483.533 125.862 485.032 124.197 486.742 122.444C490.164 118.937 494.518 114.992 498.784 111.304C503.054 107.611 507.259 104.158 510.394 101.628C511.962 100.363 513.264 99.3275 514.174 98.6084C514.629 98.2488 514.987 97.9683 515.231 97.7773C515.353 97.6819 515.446 97.6079 515.509 97.5586C515.541 97.534 515.565 97.5155 515.581 97.5029C515.59 97.4967 515.596 97.4915 515.6 97.4883C515.602 97.4868 515.604 97.4861 515.605 97.4853L515.606 97.4844C515.61 97.4889 515.667 97.5609 516.527 98.6679L515.606 97.4834Z" fill="#17091D"/>
<path d="M453.625 106.065C454.155 105.429 455.102 105.343 455.738 105.873C456.374 106.404 456.46 107.35 455.929 107.987L455.928 107.988C455.928 107.988 455.927 107.99 455.926 107.992C455.923 107.995 455.918 108 455.913 108.006C455.902 108.019 455.885 108.039 455.863 108.066C455.819 108.119 455.753 108.199 455.667 108.303C455.494 108.511 455.241 108.817 454.918 109.209C454.271 109.994 453.345 111.125 452.228 112.502C449.994 115.259 446.999 119.004 443.956 122.962C440.91 126.924 437.826 131.084 435.407 134.673C434.197 136.469 433.166 138.105 432.391 139.491C431.598 140.909 431.139 141.956 430.985 142.606C430.794 143.412 429.984 143.91 429.178 143.719C428.373 143.528 427.874 142.719 428.065 141.913C428.321 140.833 428.96 139.481 429.772 138.027C430.603 136.54 431.685 134.828 432.92 132.996C435.389 129.331 438.516 125.115 441.578 121.133C444.642 117.148 447.653 113.382 449.897 110.614C451.019 109.229 451.95 108.092 452.601 107.302C452.927 106.907 453.183 106.598 453.357 106.388C453.444 106.283 453.511 106.202 453.556 106.148C453.579 106.121 453.596 106.1 453.607 106.086C453.613 106.079 453.618 106.074 453.621 106.071C453.622 106.069 453.623 106.068 453.624 106.067L453.625 106.066V106.065Z" fill="#17091D"/>
<path d="M369.598 227.501C374.117 249.473 396.278 275.959 412.337 292.8C404.346 285.285 394.901 278.459 388.109 280.197C371.037 284.558 371.131 316.695 370.674 316.175C360.848 305.087 360.194 283.576 356.184 276.999C356.093 276.849 356.051 276.674 356.063 276.499C356.075 276.324 356.142 276.157 356.253 276.021C356.364 275.885 356.515 275.788 356.684 275.741C356.853 275.695 357.033 275.703 357.198 275.763L370.438 280.531C370.609 280.593 370.797 280.598 370.972 280.545C371.146 280.492 371.299 280.384 371.408 280.237C371.516 280.09 371.574 279.911 371.573 279.729C371.571 279.546 371.511 279.368 371.4 279.223L368.131 274.898C356.242 260.034 351.524 235.798 349.969 225.473C349.939 225.282 349.976 225.087 350.072 224.919C350.169 224.752 350.321 224.623 350.501 224.554C350.681 224.485 350.88 224.48 351.063 224.54C351.247 224.6 351.404 224.722 351.509 224.884C352.841 226.946 354.63 228.673 356.739 229.929C358.847 231.186 361.217 231.938 363.663 232.127C363.812 232.138 363.962 232.11 364.096 232.044C364.231 231.978 364.346 231.878 364.428 231.753C364.511 231.628 364.559 231.484 364.568 231.334C364.576 231.185 364.545 231.036 364.477 230.902C346.479 195.847 364.978 156.95 372.599 143.521C369.326 164.266 364.513 202.748 369.598 227.501Z" fill="#9C398C"/>
<path d="M428.079 309.634C427.962 309.732 424.853 305.837 420.251 300.836C423.662 304.201 426.371 306.742 427.962 308.206C428.035 309.111 428.079 309.634 428.079 309.634Z" fill="#9C398C"/>
</svg>
