<svg width="1000" height="1000" viewBox="0 0 1000 1000" fill="none" xmlns="http://www.w3.org/2000/svg">
<path d="M636.104 216.026C616.918 216.026 596.875 193.025 596.05 192.04C595.82 191.772 595.683 191.436 595.66 191.084C595.636 190.732 595.727 190.381 595.92 190.085L615.309 160.139C615.429 159.953 615.584 159.793 615.766 159.668C615.948 159.543 616.153 159.456 616.37 159.412C616.473 159.393 616.577 159.383 616.682 159.383C617.017 159.384 617.344 159.486 617.619 159.677C617.728 159.754 628.629 167.309 636.947 167.309C639.551 167.309 641.52 166.582 642.966 165.085C645.145 162.828 646.151 158.776 645.959 153.038C645.948 152.715 646.033 152.397 646.202 152.123C646.371 151.849 646.618 151.631 646.911 151.497C647.125 151.398 647.358 151.347 647.593 151.348C647.998 151.352 648.386 151.506 648.683 151.78C653.351 156.374 657.076 161.837 659.649 167.861C663.474 176.914 665.733 190.844 654.771 205.795C649.82 212.602 643.536 216.026 636.104 216.026Z" fill="#9C398C"/>
<path d="M647.593 153.001C647.593 153.001 673.808 177.096 653.467 204.847C648.382 211.784 642.326 214.39 636.104 214.39C617.445 214.39 597.289 190.979 597.289 190.979L616.682 161.036C616.682 161.036 628.004 168.963 636.947 168.963C643.027 168.963 648.007 165.303 647.593 153.001ZM647.593 149.73C647.155 149.73 646.72 149.818 646.317 149.989C645.913 150.161 645.547 150.411 645.242 150.727C644.937 151.042 644.699 151.416 644.541 151.825C644.383 152.235 644.31 152.672 644.324 153.11C644.502 158.314 643.623 162.069 641.782 163.966C640.659 165.129 639.075 165.692 636.94 165.692C630.474 165.692 621.469 160.397 618.545 158.354C617.997 157.971 617.344 157.766 616.675 157.766C616.464 157.766 616.253 157.787 616.046 157.827C615.615 157.912 615.206 158.082 614.842 158.328C614.478 158.574 614.167 158.891 613.929 159.259L594.539 189.202C594.154 189.795 593.972 190.497 594.02 191.203C594.068 191.908 594.343 192.58 594.804 193.116C595.669 194.119 616.17 217.661 636.097 217.661C644.088 217.661 650.804 214.001 656.097 206.784C667.51 191.211 665.152 176.685 661.16 167.244C658.491 161.007 654.631 155.351 649.798 150.592C649.195 150.038 648.405 149.73 647.586 149.73H647.593Z" fill="#17091D"/>
<path d="M601.706 370.141C601.43 370.142 601.158 370.072 600.917 369.939C600.675 369.806 600.471 369.614 600.323 369.381C600.175 369.147 600.089 368.88 600.073 368.605C600.056 368.329 600.109 368.054 600.228 367.804C600.384 367.474 615.847 334.399 610.5 310.976C605.574 289.447 605.266 276.713 604.971 264.4C604.931 262.772 604.895 261.155 604.844 259.531C604.459 247.036 591.742 241.029 591.615 240.971C591.262 240.809 590.978 240.525 590.815 240.172C590.651 239.819 590.62 239.419 590.725 239.045L598.124 212.559L599.977 205.937C600.058 205.646 600.218 205.384 600.439 205.179C600.661 204.973 600.934 204.833 601.23 204.774L608.244 203.382C612.817 202.473 617.468 202.014 622.131 202.012C632.667 201.978 643.067 204.402 652.504 209.092C670.666 218.246 678.734 233.11 675.842 252.077C675.777 253.167 675.021 262.009 667.125 272.668C663.493 277.498 659.215 281.805 654.411 285.468C652.028 287.31 650.528 289.883 650.292 292.526C650.147 294.161 650.481 295.397 651.313 296.309C652.552 297.664 655.054 298.384 658.545 298.384C663.59 298.384 670.688 296.93 679.634 294.059C679.795 294.009 679.963 293.983 680.132 293.983C680.374 293.984 680.613 294.038 680.831 294.142C681.05 294.246 681.243 294.397 681.396 294.584C681.549 294.771 681.66 294.99 681.719 295.225C681.778 295.459 681.784 295.704 681.737 295.942C681.701 296.12 680.808 300.401 676.957 305.064C673.626 309.094 667.375 314.189 656.253 316.155C657.665 324.462 656.225 333.002 652.167 340.384C644.902 353.715 629.864 363.28 607.463 368.873C605.672 369.316 603.853 369.734 602.055 370.109C601.94 370.131 601.823 370.142 601.706 370.141Z" fill="#CE44A2"/>
<path d="M622.113 203.648C632.395 203.606 642.546 205.971 651.753 210.553C665.287 217.374 677.611 229.716 674.197 251.91C674.197 251.91 673.855 260.814 665.792 271.695C662.25 276.406 658.076 280.605 653.387 284.174C650.71 286.246 648.927 289.171 648.64 292.38C648.309 296.066 649.951 300.012 658.52 300.012C663.285 300.012 670.198 298.788 680.107 295.611C680.107 295.611 676.888 311.624 654.266 314.803C654.266 314.803 654.335 315.047 654.441 315.494C654.491 315.705 654.542 315.956 654.6 316.254C655.952 323.326 658.752 354.413 607.056 367.278C605.337 367.707 603.556 368.114 601.713 368.499C601.713 368.499 617.659 334.868 612.102 310.606C606.544 286.344 606.904 273.134 606.486 259.484C606.068 245.834 592.32 239.496 592.32 239.496L599.723 213.009L601.572 206.392L608.542 204.971C613.011 204.083 617.556 203.635 622.113 203.633M622.113 200.377C617.343 200.379 612.585 200.848 607.906 201.78L600.921 203.172C600.329 203.29 599.781 203.569 599.338 203.98C598.895 204.39 598.574 204.916 598.411 205.498L596.559 212.115L589.156 238.605C588.948 239.354 589.012 240.152 589.338 240.857C589.664 241.562 590.231 242.128 590.936 242.454C593.206 243.621 595.294 245.11 597.137 246.877C601.027 250.602 603.072 254.872 603.217 259.596C603.268 261.214 603.308 262.867 603.344 264.459C603.642 276.852 603.951 289.666 608.916 311.34C614.15 334.199 598.913 366.78 598.746 367.107C598.509 367.606 598.402 368.157 598.436 368.709C598.469 369.26 598.642 369.794 598.938 370.261C599.233 370.727 599.642 371.111 600.126 371.377C600.61 371.643 601.154 371.782 601.706 371.781C601.929 371.781 602.152 371.758 602.371 371.712C604.187 371.348 606.036 370.912 607.841 370.461C620.14 367.401 630.402 363.066 638.335 357.574C645.055 352.926 650.187 347.399 653.591 341.17C657.55 333.939 659.129 325.644 658.102 317.464C668.719 315.225 674.847 310.159 678.192 306.107C681.963 301.542 683.071 297.352 683.278 296.418C683.342 296.158 683.375 295.89 683.376 295.622C683.376 294.765 683.04 293.941 682.439 293.33C681.838 292.718 681.022 292.367 680.165 292.351H679.954C679.641 292.366 679.332 292.425 679.035 292.526C670.281 295.328 663.38 296.749 658.516 296.749C654.499 296.749 653.017 295.782 652.49 295.204C652.305 295.001 651.738 294.383 651.891 292.66C652.087 290.48 653.344 288.299 655.381 286.747C660.306 282.993 664.692 278.578 668.414 273.628C676.376 262.885 677.335 253.8 677.444 252.241C680.426 232.54 672.05 217.109 653.22 207.616C643.555 202.808 632.903 200.32 622.109 200.348L622.113 200.377Z" fill="#17091D"/>
<path d="M607.057 367.285C613.787 364.955 620.7 361.063 625.407 354.565C631.045 346.773 632.795 336.419 633.035 327.508C633.157 322.574 632.888 317.638 632.232 312.746C631.869 310.137 631.553 308.574 631.553 308.574L638.222 312.724L639.443 313.062L648.055 315.45L654.43 315.512C654.481 315.723 654.531 315.973 654.59 316.271C655.952 323.333 658.752 354.423 607.057 367.285Z" fill="#9C398C"/>
<path d="M674.196 251.91C674.196 251.91 673.855 260.813 665.791 271.694C665.351 269.314 664.799 266.661 664.106 263.837C661.316 252.447 656.263 238.238 647.259 227.673C646.275 226.521 645.214 225.437 644.084 224.428C644.068 224.409 644.049 224.392 644.03 224.377C631.037 212.777 610.79 212.257 599.715 213.009L601.564 206.391L608.541 204.97C623.209 202.063 638.588 203.905 651.766 210.538C665.272 217.374 677.622 229.716 674.196 251.91Z" fill="#D969BD"/>
<path d="M636.911 218.654C637.37 217.964 638.302 217.777 638.991 218.236L638.179 219.457C638.954 218.293 638.99 218.239 638.992 218.237L638.994 218.239C638.996 218.239 638.998 218.24 639 218.241C639.004 218.244 639.01 218.248 639.017 218.253C639.031 218.263 639.051 218.277 639.076 218.294C639.127 218.329 639.2 218.379 639.293 218.445C639.48 218.576 639.749 218.771 640.088 219.027C640.767 219.538 641.732 220.299 642.892 221.307C645.212 223.323 648.322 226.335 651.51 230.338C657.886 238.344 664.595 250.346 665.856 266.269C665.921 267.095 665.305 267.818 664.479 267.883C663.653 267.948 662.931 267.332 662.865 266.506C661.664 251.328 655.272 239.878 649.163 232.207C646.109 228.372 643.132 225.49 640.924 223.572C639.821 222.613 638.911 221.896 638.282 221.422C637.968 221.185 637.724 221.01 637.562 220.895C637.481 220.837 637.419 220.795 637.38 220.768C637.361 220.755 637.347 220.745 637.338 220.74L637.329 220.734C636.64 220.275 636.453 219.343 636.911 218.654Z" fill="#17091D"/>
<path d="M627.703 302.393C627.712 302.402 627.724 302.413 627.738 302.427C627.767 302.454 627.806 302.493 627.855 302.542C627.953 302.64 628.091 302.78 628.259 302.963C628.52 303.246 628.856 303.632 629.24 304.116C629.37 304.249 629.508 304.39 629.655 304.536C630.879 305.749 632.712 307.366 635.123 308.955C639.941 312.129 647.048 315.18 656.261 314.715C657.088 314.673 657.793 315.309 657.835 316.136C657.877 316.964 657.239 317.669 656.412 317.711C646.418 318.216 638.689 314.897 633.473 311.46C633.429 311.431 633.385 311.401 633.342 311.372C635.358 316.666 636.352 324.112 632.929 333.262C632.638 334.038 631.775 334.432 630.999 334.142C630.223 333.852 629.829 332.988 630.119 332.212C633.406 323.427 632.229 316.505 630.283 311.794C629.304 309.424 628.124 307.598 627.194 306.371C627.118 306.27 627.041 306.174 626.968 306.081C626.574 305.671 626.257 305.32 626.018 305.045C625.846 304.846 625.713 304.686 625.622 304.574C625.576 304.518 625.541 304.473 625.516 304.441C625.503 304.425 625.494 304.413 625.486 304.403C625.483 304.398 625.479 304.394 625.476 304.391C625.475 304.39 625.474 304.389 625.474 304.387L625.473 304.386C625.475 304.383 625.529 304.341 626.664 303.474C627.654 302.409 627.685 302.377 627.686 302.377L627.703 302.393ZM625.656 302.364C626.233 301.84 627.115 301.845 627.685 302.376L626.664 303.474L625.472 304.385C624.999 303.765 625.079 302.888 625.656 302.364Z" fill="#17091D"/>
<path d="M409.852 364.296C395.969 364.296 383.314 359.346 372.232 349.581C366.614 344.618 361.804 338.808 357.975 332.362C355.097 333.235 352.108 333.685 349.101 333.7C335.418 333.7 325.727 323.96 319.999 315.769C319.986 315.755 319.975 315.739 319.966 315.721C318.174 313.164 316.571 310.478 315.171 307.686C314.999 307.345 314.917 306.965 314.934 306.584C314.95 306.202 315.065 305.831 315.266 305.506C315.482 305.163 315.782 304.88 316.137 304.685C316.492 304.489 316.891 304.386 317.296 304.386C317.694 304.387 318.086 304.486 318.437 304.674C323.762 307.505 328.349 308.94 332.069 308.94C340.06 308.94 342.076 302.108 342.566 299.128C337.95 296.381 333.582 293.238 329.512 289.733C319.472 280.924 314.71 271.508 315.411 261.779C316.501 246.461 330.986 234.584 337.797 229.798C331.277 228.021 326.293 223.14 323.308 215.552C320.718 208.974 320.282 202.105 320.216 199.474C320.216 199.474 320.216 199.445 320.216 199.431C320.217 199.243 320.24 199.056 320.286 198.875C320.42 198.369 320.719 197.923 321.134 197.605C321.55 197.288 322.058 197.117 322.581 197.119C322.892 197.119 323.2 197.178 323.489 197.294C329.039 199.521 334.139 200.652 338.64 200.652C345.509 200.652 351.164 198.013 355.447 192.805C357.681 190.087 359.559 186.667 361.019 182.63C362.827 177.501 363.901 172.142 364.208 166.712C364.204 166.662 364.204 166.612 364.208 166.563C364.212 166.524 364.218 166.485 364.226 166.447C364.502 164.778 364.836 163.139 365.21 161.573C365.298 161.21 365.385 160.846 365.479 160.483C365.541 160.236 365.606 159.981 365.679 159.727C365.792 159.302 365.919 158.844 366.042 158.397C366.449 157.001 366.907 155.624 367.397 154.312C367.561 153.854 367.739 153.396 367.917 152.96C368.28 152.033 368.69 151.096 369.112 150.183C369.275 149.82 369.449 149.457 369.624 149.115C371.541 145.185 373.96 141.52 376.819 138.212C377.132 137.849 377.459 137.486 377.786 137.122C378.113 136.759 378.458 136.395 378.792 136.065C379.297 135.549 379.82 135.036 380.343 134.549L380.859 134.073C392.933 123.09 410.691 117.523 433.651 117.523C445.295 117.578 456.899 118.9 468.257 121.466C471.678 117.189 487.065 101.521 528.75 101.521H529.883C547.133 101.638 567.318 107.794 583.878 117.984C592.941 123.559 600.696 130.123 606.929 137.493C613.776 145.59 618.607 154.472 621.28 163.892C622.123 166.868 622.846 169.481 623.485 171.887C631.342 201.259 632.475 218.172 627.666 234.294C622.788 250.647 599.523 267.041 592.509 271.679C592.015 272.005 591.419 272.139 590.834 272.054C590.249 271.97 589.715 271.673 589.334 271.221C589.124 270.968 588.972 270.672 588.889 270.355C588.807 270.037 588.795 269.705 588.854 269.382C589.414 266.333 588.931 262.866 588.397 260.398C582.091 266.751 565.949 270.65 560.885 271.748C560.715 271.784 560.54 271.802 560.366 271.802C560.004 271.802 559.646 271.72 559.32 271.562C558.995 271.404 558.709 271.174 558.484 270.89C558.272 270.618 558.125 270.3 558.056 269.961C557.986 269.622 557.996 269.272 558.085 268.938C562.927 250.662 538.154 238.24 529.687 234.581C532.484 243.484 537.863 248.096 540.947 250.106C541.357 250.368 541.671 250.754 541.843 251.208C542.016 251.663 542.038 252.16 541.906 252.628C541.764 253.11 541.47 253.533 541.068 253.835C540.666 254.136 540.178 254.301 539.676 254.303C538.979 254.303 538.278 254.325 537.584 254.325C519.041 254.325 502.012 249.332 486.978 239.48C479.204 234.407 472.264 228.16 466.404 220.96C461.039 255.819 429.089 268.026 423.542 269.891L423.324 270.592V270.65C410.935 311.033 440.571 322.666 446.641 324.589C447.008 324.703 447.342 324.906 447.611 325.181C447.88 325.455 448.077 325.793 448.184 326.163C448.286 326.522 448.297 326.9 448.216 327.264C448.135 327.629 447.964 327.967 447.719 328.249C441.588 335.324 429.863 336.811 421.109 336.811C419.093 336.811 417.295 336.731 415.845 336.633C423.328 346.634 437.843 350.443 442.3 351.384C442.769 351.479 443.197 351.719 443.523 352.071C443.849 352.422 444.056 352.867 444.116 353.343C444.176 353.814 444.086 354.292 443.859 354.71C443.632 355.127 443.28 355.463 442.852 355.669C436.533 358.892 429.835 361.309 422.914 362.861C418.617 363.793 414.234 364.27 409.838 364.285L409.852 364.296Z" fill="#CE44A2"/>
<path d="M528.764 103.212H529.887C562.778 103.434 608.778 125.846 619.722 164.394C620.504 167.139 621.238 169.793 621.923 172.357C629.188 199.46 631.146 217.006 626.115 233.873C621.35 249.823 597.921 266.217 591.608 270.364C591.48 270.447 591.331 270.491 591.179 270.491C591.079 270.498 590.978 270.483 590.884 270.447C590.79 270.41 590.706 270.354 590.636 270.281C590.567 270.208 590.514 270.12 590.483 270.025C590.451 269.929 590.441 269.828 590.453 269.728C591.219 265.563 590.217 260.784 589.559 258.331C589.534 258.238 589.488 258.151 589.425 258.078C589.362 258.004 589.284 257.945 589.196 257.906C589.082 257.852 588.958 257.825 588.833 257.826C588.719 257.825 588.606 257.85 588.504 257.901C588.402 257.951 588.313 258.025 588.244 258.117C583.348 264.818 565.31 269.11 560.511 270.146C560.453 270.153 560.395 270.153 560.337 270.146C560.233 270.151 560.129 270.133 560.034 270.092C559.938 270.051 559.853 269.989 559.785 269.91C559.717 269.831 559.669 269.737 559.643 269.636C559.617 269.535 559.615 269.43 559.636 269.328C565.197 248.337 535.237 235.01 528.547 232.325C528.452 232.286 528.351 232.266 528.249 232.266C528.126 232.265 528.004 232.294 527.895 232.351C527.786 232.408 527.693 232.492 527.624 232.594C527.576 232.663 527.544 232.743 527.529 232.826C527.515 232.909 527.519 232.995 527.54 233.077C530.294 243.9 536.756 249.325 540.028 251.455C540.149 251.534 540.24 251.652 540.287 251.789C540.333 251.925 540.333 252.074 540.286 252.211C540.239 252.347 540.148 252.464 540.027 252.543C539.906 252.622 539.762 252.659 539.618 252.647C538.928 252.647 538.238 252.669 537.555 252.669C494.693 252.669 471.566 225.252 466.361 218.282C466.292 218.189 466.201 218.113 466.097 218.062C465.993 218.011 465.877 217.985 465.761 217.988C465.588 217.98 465.418 218.037 465.284 218.147C465.15 218.257 465.062 218.412 465.035 218.584C460.676 255.289 426.401 267.242 422.565 268.474C422.46 268.504 422.363 268.559 422.284 268.635C422.205 268.711 422.145 268.806 422.111 268.91C421.973 269.328 421.843 269.742 421.715 270.157C408.828 312.175 440.171 324.255 446.103 326.123C446.209 326.149 446.306 326.201 446.386 326.275C446.466 326.349 446.526 326.442 446.559 326.546C446.593 326.649 446.599 326.76 446.578 326.867C446.556 326.973 446.508 327.073 446.437 327.156C440.625 333.872 429.046 335.151 421.065 335.151C417.992 335.151 415.45 334.962 413.979 334.82H413.899C413.734 334.818 413.573 334.871 413.441 334.969C413.337 335.044 413.258 335.147 413.212 335.267C413.178 335.354 413.165 335.448 413.175 335.541C413.184 335.634 413.216 335.723 413.267 335.801C420.564 347.482 436.47 351.792 441.915 352.962C442.052 352.982 442.18 353.045 442.278 353.143C442.376 353.241 442.44 353.369 442.46 353.506C442.48 353.643 442.455 353.784 442.389 353.906C442.323 354.028 442.219 354.125 442.093 354.183C435.126 357.668 428.61 359.94 422.54 361.237C418.363 362.149 414.102 362.616 409.827 362.629C377.822 362.629 361.32 335.053 359.01 330.895C358.945 330.781 358.85 330.688 358.735 330.624C358.621 330.56 358.491 330.528 358.36 330.532C358.276 330.533 358.193 330.546 358.113 330.572C355.192 331.52 352.143 332.011 349.072 332.025C335.996 332.025 326.682 322.493 321.277 314.748C319.532 312.257 317.972 309.64 316.61 306.92C316.563 306.815 316.545 306.699 316.557 306.585C316.569 306.471 316.61 306.361 316.677 306.268C316.743 306.174 316.833 306.099 316.937 306.05C317.041 306.002 317.156 305.981 317.271 305.99C317.398 305.992 317.522 306.024 317.634 306.084C323.711 309.315 328.408 310.544 332.033 310.544C342.265 310.544 343.99 300.775 344.245 298.652C344.228 298.509 344.175 298.371 344.092 298.253C344.047 298.171 343.99 298.098 343.921 298.035C339.187 295.257 334.712 292.059 330.551 288.48C298.223 260.094 332.621 235.014 340.601 229.828C340.716 229.754 340.805 229.646 340.855 229.519C340.904 229.392 340.912 229.252 340.877 229.12C340.841 228.988 340.765 228.87 340.659 228.785C340.553 228.699 340.422 228.649 340.285 228.643C323.471 226.023 321.942 204.432 321.811 199.406C321.81 199.353 321.816 199.301 321.829 199.25C321.875 199.094 321.972 198.959 322.103 198.865C322.235 198.771 322.394 198.723 322.556 198.73C322.658 198.73 322.758 198.749 322.854 198.784C328.923 201.223 334.136 202.262 338.614 202.262C346.907 202.262 352.672 198.694 356.682 193.82C359.315 190.622 361.193 186.861 362.53 183.176C364.39 177.886 365.49 172.359 365.799 166.76C365.799 166.76 365.799 166.72 365.799 166.705C366.075 165.063 366.397 163.473 366.765 161.937C366.849 161.574 366.936 161.24 367.023 160.894C367.085 160.654 367.147 160.415 367.212 160.167C367.332 159.728 367.452 159.284 367.575 158.848C367.975 157.477 368.413 156.152 368.89 154.872C369.054 154.433 369.221 153.997 369.395 153.568C369.761 152.642 370.148 151.741 370.557 150.864C370.717 150.5 370.888 150.17 371.055 149.824C372.907 146.023 375.246 142.48 378.015 139.285C378.323 138.922 378.636 138.58 378.955 138.235C379.275 137.89 379.602 137.545 379.925 137.214C380.416 136.712 380.913 136.222 381.422 135.76L381.93 135.288C396.006 122.575 416.241 119.203 433.666 119.203C445.365 119.247 457.024 120.598 468.424 123.229C468.487 123.244 468.552 123.251 468.616 123.251C468.732 123.254 468.847 123.229 468.951 123.179C469.056 123.128 469.146 123.053 469.216 122.96C471.304 120.158 485.75 103.212 528.764 103.212ZM528.764 99.9414C488.638 99.9414 472.303 114.402 467.672 119.704C456.499 117.258 445.1 115.994 433.662 115.932C423.404 115.932 413.997 117.073 405.693 119.319C395.315 122.132 386.598 126.7 379.784 132.9H379.762L379.598 133.049L379.253 133.369C378.701 133.885 378.164 134.412 377.637 134.95C377.31 135.284 376.972 135.64 376.609 136.04C376.246 136.44 375.882 136.836 375.592 137.181C372.644 140.59 370.15 144.365 368.171 148.414C368 148.778 367.808 149.141 367.641 149.526C367.212 150.45 366.798 151.409 366.413 152.376C366.231 152.823 366.05 153.295 365.875 153.771C365.37 155.116 364.905 156.526 364.488 157.961C364.371 158.35 364.248 158.786 364.106 159.328C364.03 159.597 363.965 159.851 363.903 160.098C363.808 160.462 363.721 160.825 363.63 161.189C363.245 162.795 362.904 164.459 362.621 166.168C362.621 166.255 362.599 166.331 362.592 166.382C362.584 166.433 362.592 166.564 362.57 166.654C362.273 171.917 361.232 177.111 359.479 182.082C358.08 185.93 356.297 189.19 354.179 191.763C350.183 196.64 345.098 199.013 338.636 199.013C334.343 199.013 329.45 197.923 324.107 195.772C323.625 195.579 323.111 195.48 322.592 195.481C321.705 195.472 320.84 195.762 320.136 196.304C319.433 196.845 318.932 197.608 318.713 198.468C318.632 198.782 318.592 199.104 318.593 199.428C318.593 199.457 318.593 199.486 318.593 199.511C318.662 202.241 319.116 209.324 321.797 216.149C324.51 223.054 328.793 227.844 334.339 230.3C330.947 232.872 327.787 235.736 324.895 238.859C318.092 246.273 314.361 253.941 313.802 261.645C313.075 271.916 317.99 281.779 328.455 290.959C332.303 294.284 336.421 297.284 340.765 299.928C340.038 302.952 337.993 307.295 332.091 307.295C328.64 307.295 324.314 305.924 319.225 303.217C318.638 302.905 317.983 302.742 317.318 302.741C316.635 302.741 315.963 302.915 315.365 303.246C314.767 303.577 314.263 304.055 313.9 304.634C313.551 305.194 313.351 305.835 313.321 306.494C313.291 307.154 313.432 307.81 313.729 308.399C315.166 311.265 316.81 314.022 318.647 316.649L318.691 316.711C324.644 325.218 334.742 335.322 349.123 335.322C351.86 335.311 354.586 334.955 357.234 334.26C361.053 340.421 365.749 345.991 371.175 350.796C376.025 355.113 381.517 358.648 387.455 361.273C394.528 364.354 402.163 365.936 409.878 365.918C414.386 365.905 418.881 365.418 423.288 364.464C430.349 362.885 437.183 360.422 443.629 357.134C444.363 356.774 444.965 356.193 445.351 355.473C445.737 354.753 445.888 353.93 445.783 353.119C445.678 352.309 445.321 351.552 444.763 350.954C444.206 350.357 443.475 349.95 442.674 349.789C438.809 348.961 427.12 345.933 419.601 338.436C420.099 338.436 420.611 338.436 421.138 338.436C430.219 338.436 442.445 336.852 448.98 329.314C449.403 328.828 449.699 328.243 449.84 327.614C449.981 326.984 449.962 326.33 449.786 325.709C449.606 325.078 449.272 324.501 448.813 324.032C448.355 323.562 447.787 323.214 447.16 323.02C444.617 322.22 435.9 319 429.452 311.129C421.345 301.225 419.812 287.775 424.905 271.152C432.1 268.572 460.709 256.434 467.421 224.656C472.905 230.854 479.193 236.291 486.117 240.821C501.424 250.852 518.75 255.936 537.617 255.936C538.321 255.936 539.037 255.936 539.745 255.914C540.596 255.906 541.422 255.623 542.1 255.107C542.778 254.592 543.272 253.872 543.508 253.054C543.739 252.251 543.705 251.396 543.411 250.614C543.118 249.832 542.58 249.166 541.877 248.715C539.425 247.116 535.441 243.772 532.673 237.707C536.73 239.68 542.001 242.635 546.668 246.483C555.219 253.534 558.539 260.937 556.537 268.489C556.384 269.066 556.365 269.672 556.485 270.257C556.604 270.843 556.857 271.393 557.224 271.865C557.601 272.347 558.083 272.736 558.633 273.005C559.183 273.273 559.787 273.413 560.399 273.413C560.692 273.414 560.984 273.382 561.27 273.318C566.09 272.276 570.841 270.941 575.498 269.321C580.584 267.504 584.507 265.592 587.318 263.535C587.586 265.389 587.577 267.273 587.293 269.125C587.19 269.683 587.211 270.256 587.355 270.805C587.499 271.354 587.761 271.865 588.124 272.301C588.762 273.062 589.658 273.562 590.641 273.705C591.623 273.849 592.624 273.626 593.453 273.079C600.587 268.354 624.241 251.666 629.279 234.796C634.884 216.011 631.822 196.637 625.113 171.499C624.47 169.089 623.747 166.469 622.901 163.485C620.162 153.84 615.222 144.751 608.222 136.476C601.88 128.975 593.991 122.303 584.779 116.63C576.151 111.356 566.882 107.213 557.199 104.302C547.867 101.5 538.43 99.9887 529.909 99.9414H528.764Z" fill="#17091D"/>
<path d="M621.923 172.36C620.344 171.173 618.851 169.876 617.455 168.479C614.971 165.986 607.648 158.365 597.982 150.813L597.957 150.791C587.652 142.752 574.673 134.801 561.996 133.184H561.975C545.524 131.101 532.781 129.317 522.545 129.411C522.542 129.409 522.537 129.408 522.533 129.408C522.528 129.408 522.524 129.409 522.52 129.411C517.471 129.455 513.025 129.96 509.055 131.112C497.257 134.535 484.355 138.344 483.912 138.479C478.847 137.777 473.746 137.372 468.634 137.265C467.704 137.247 466.771 137.236 465.841 137.236C452.618 137.222 439.469 139.217 426.844 143.152C404.636 150.093 384.763 162.951 370.143 180.621C367.35 183.993 364.723 186.955 362.406 189.259C360.176 191.48 358.229 193.093 356.703 193.875C359.337 190.677 361.215 186.915 362.551 183.23C364.411 177.94 365.512 172.413 365.82 166.814C365.82 166.814 365.82 166.774 365.82 166.76C366.096 165.117 366.418 163.528 366.787 161.992C366.87 161.628 366.957 161.294 367.044 160.949C367.106 160.709 367.168 160.469 367.233 160.222C367.353 159.782 367.473 159.339 367.597 158.903C367.996 157.531 368.434 156.206 368.911 154.927C369.075 154.487 369.242 154.051 369.416 153.622C369.782 152.697 370.169 151.795 370.579 150.918C370.739 150.555 370.909 150.224 371.076 149.879C372.928 146.078 375.268 142.535 378.036 139.34C378.345 138.976 378.657 138.635 378.977 138.29C379.296 137.944 379.623 137.599 379.947 137.268C380.437 136.767 380.935 136.276 381.443 135.815L381.952 135.342C409.921 109.903 462.662 121.859 468.402 123.255C468.545 123.293 468.697 123.287 468.838 123.239C468.979 123.191 469.102 123.103 469.193 122.986C471.311 120.148 485.975 102.932 529.854 103.23C562.745 103.452 608.745 125.864 619.689 164.412C620.493 167.148 621.238 169.797 621.923 172.36Z" fill="#D969BD"/>
<path d="M362.407 189.241C361.68 197.473 358.459 208.866 346.494 212.137C330.17 216.585 323.544 203.516 321.866 199.301C321.897 199.201 321.949 199.108 322.018 199.029C322.088 198.951 322.172 198.887 322.268 198.843C322.363 198.799 322.466 198.776 322.571 198.775C322.676 198.773 322.78 198.794 322.876 198.835C340.188 205.784 350.529 201.379 356.704 193.871C359.338 190.673 361.215 186.912 362.552 183.227C362.629 185.233 362.581 187.241 362.407 189.241Z" fill="#9C398C"/>
<path d="M442.133 354.216C435.167 357.701 428.65 359.972 422.581 361.27C420.321 359.089 417.829 356.545 415.098 353.569C397.045 333.944 399.755 320.309 399.755 320.309L402.697 324.47L413.474 334.991L414.459 335.95C414.044 335.743 413.641 335.521 413.242 335.289C413.21 335.376 413.198 335.47 413.208 335.563C413.218 335.655 413.25 335.745 413.3 335.823C420.597 347.503 436.503 351.814 441.948 352.984C442.09 352.998 442.223 353.06 442.326 353.158C442.429 353.257 442.497 353.387 442.518 353.528C442.539 353.669 442.513 353.813 442.443 353.938C442.374 354.062 442.265 354.16 442.133 354.216Z" fill="#9C398C"/>
<path d="M345.262 323.731C336.337 324.564 327.827 319.952 321.289 314.788C319.544 312.296 317.984 309.679 316.621 306.96C316.327 306.371 317.042 305.797 317.656 306.124C340.878 318.48 343.922 301.563 344.267 298.692C344.267 298.543 347.009 294.916 346.918 294.792C346.828 294.669 349.417 287.033 349.417 287.033C349.417 287.033 364.426 321.951 345.262 323.731Z" fill="#9C398C"/>
<path d="M504.101 131.031C516.873 128.478 534.49 126.838 553.819 130.522C554.632 130.677 555.166 131.463 555.011 132.276C554.856 133.09 554.07 133.625 553.256 133.469C534.409 129.878 517.199 131.472 504.689 133.972C498.437 135.222 493.369 136.696 489.87 137.854C488.122 138.433 486.766 138.933 485.852 139.287C485.395 139.464 485.048 139.604 484.818 139.699C484.703 139.746 484.617 139.782 484.561 139.805L484.486 139.838C484.484 139.838 484.484 139.839 484.484 139.84C484.247 139.943 483.988 139.983 483.732 139.957C466.251 138.184 447.502 137.066 431.088 143.058C414.813 149 400.637 162.014 392.465 189.011C392.225 189.804 391.388 190.252 390.595 190.012C389.802 189.772 389.354 188.935 389.594 188.142C398.003 160.361 412.786 146.547 430.059 140.241C447.067 134.032 466.296 135.185 483.652 136.934C483.659 136.931 483.666 136.929 483.674 136.926C483.924 136.823 484.291 136.674 484.77 136.489C485.726 136.119 487.128 135.602 488.927 135.007C492.524 133.815 497.711 132.308 504.101 131.031Z" fill="#17091D"/>
<path d="M429.482 207.111C429.755 206.329 430.61 205.917 431.392 206.19C432.174 206.462 432.588 207.317 432.315 208.1C423.586 233.124 411.27 243.131 400.843 246.724C395.666 248.507 391.047 248.675 387.715 248.394C386.049 248.253 384.7 248.001 383.759 247.779C383.289 247.669 382.919 247.566 382.662 247.488C382.533 247.45 382.432 247.417 382.36 247.394L382.24 247.354C382.239 247.353 382.237 247.352 382.237 247.352C382.237 247.347 382.264 247.27 382.741 245.94L382.234 247.351C381.455 247.071 381.049 246.212 381.329 245.433C381.608 244.654 382.466 244.248 383.245 244.526C383.246 244.527 383.248 244.527 383.252 244.528C383.26 244.531 383.277 244.537 383.3 244.545C383.347 244.56 383.422 244.584 383.523 244.614C383.727 244.675 384.038 244.763 384.446 244.858C385.263 245.051 386.466 245.278 387.967 245.404C390.971 245.658 395.16 245.509 399.867 243.887C409.209 240.668 420.972 231.508 429.482 207.111Z" fill="#17091D"/>
<path d="M476.689 181.557C476.974 180.78 477.836 180.381 478.613 180.666C479.391 180.952 479.789 181.813 479.504 182.59C479.504 182.591 479.504 182.592 479.504 182.593C479.503 182.596 479.501 182.6 479.499 182.606C479.495 182.618 479.488 182.638 479.479 182.665C479.46 182.718 479.431 182.801 479.394 182.912C479.319 183.133 479.21 183.464 479.08 183.894C478.82 184.754 478.472 186.005 478.126 187.551C477.434 190.649 476.76 194.904 476.82 199.556C476.941 208.855 479.967 219.542 491.431 226.01C492.152 226.417 492.407 227.333 492 228.054C491.593 228.776 490.678 229.031 489.956 228.624C477.221 221.438 473.949 209.504 473.82 199.595C473.756 194.644 474.472 190.148 475.198 186.897C475.562 185.269 475.931 183.945 476.21 183.024C476.35 182.563 476.467 182.202 476.551 181.954C476.593 181.83 476.626 181.734 476.65 181.667C476.661 181.634 476.67 181.608 476.677 181.589C476.68 181.58 476.683 181.573 476.685 181.568C476.686 181.565 476.686 181.563 476.687 181.561L476.688 181.559C476.688 181.558 476.689 181.558 478.097 182.075L476.689 181.557Z" fill="#17091D"/>
<path d="M517.943 196.522C518.771 196.544 519.425 197.232 519.403 198.06V198.072C519.403 198.081 519.403 198.096 519.402 198.117C519.402 198.158 519.4 198.221 519.399 198.305C519.398 198.474 519.397 198.726 519.4 199.054C519.407 199.71 519.43 200.668 519.495 201.861C519.625 204.248 519.923 207.564 520.597 211.276C521.952 218.747 524.79 227.601 530.619 233.785C531.187 234.387 531.159 235.337 530.557 235.905C529.954 236.473 529.004 236.445 528.436 235.842C522.013 229.03 519.039 219.488 517.646 211.812C516.945 207.95 516.634 204.505 516.499 202.024C516.431 200.783 516.408 199.779 516.401 199.084C516.398 198.736 516.398 198.464 516.399 198.278C516.4 198.185 516.402 198.113 516.402 198.063C516.403 198.038 516.404 198.019 516.404 198.005V197.983C516.404 197.982 516.405 197.981 517.904 198.021L516.404 197.981C516.426 197.153 517.115 196.5 517.943 196.522Z" fill="#17091D"/>
<path d="M574.734 202.448C575.306 201.849 576.255 201.828 576.854 202.4L576.06 203.231C576.854 202.4 576.855 202.4 576.856 202.401L576.863 202.408C576.867 202.412 576.873 202.417 576.879 202.423C576.893 202.437 576.911 202.455 576.935 202.478C576.982 202.525 577.049 202.591 577.134 202.678C577.304 202.853 577.547 203.109 577.85 203.443C578.456 204.112 579.303 205.098 580.286 206.39C582.25 208.973 584.766 212.784 586.996 217.723C591.464 227.617 594.774 242.02 590.244 260.074C590.042 260.877 589.228 261.365 588.424 261.164C587.621 260.962 587.133 260.147 587.334 259.343C591.674 242.048 588.498 228.339 584.262 218.958C582.141 214.26 579.751 210.643 577.898 208.207C576.972 206.989 576.181 206.069 575.627 205.458C575.351 205.152 575.133 204.924 574.988 204.775C574.915 204.701 574.861 204.646 574.826 204.612C574.808 204.595 574.796 204.582 574.788 204.575L574.781 204.568L574.782 204.567C574.183 203.995 574.162 203.047 574.734 202.448Z" fill="#17091D"/>
<path d="M378.54 264.469C379.125 263.886 380.071 263.886 380.656 264.468L380.644 264.456L380.659 264.469C380.689 264.494 380.753 264.546 380.855 264.619C381.06 264.766 381.422 265.001 381.984 265.288C383.11 265.862 385.042 266.646 388.138 267.36C394.339 268.79 405.155 269.924 423.394 268.559C424.22 268.498 424.94 269.118 425.002 269.944C425.063 270.77 424.444 271.49 423.618 271.552C405.189 272.931 394.051 271.803 387.465 270.284C384.168 269.524 381.998 268.662 380.621 267.96C379.932 267.608 379.441 267.296 379.107 267.056C378.94 266.937 378.812 266.835 378.719 266.756C378.672 266.716 378.634 266.682 378.603 266.654C378.588 266.64 378.574 266.628 378.563 266.617L378.539 266.593C378.537 266.591 378.536 266.59 379.598 265.531L378.536 266.59C377.951 266.003 377.953 265.053 378.54 264.469Z" fill="#17091D"/>
<path d="M399.291 317.993C400.046 317.652 400.935 317.986 401.277 318.74C401.952 320.233 402.725 321.68 403.588 323.072L403.963 323.666L403.968 323.674C406.148 327.092 409.537 331.358 414.003 334.009C414.377 334.227 414.748 334.43 415.123 334.617C415.598 334.846 416.086 335.068 416.587 335.282C417.349 335.608 417.702 336.489 417.377 337.251C417.052 338.013 416.171 338.366 415.409 338.041C414.861 337.807 414.325 337.563 413.802 337.311C413.796 337.308 413.789 337.305 413.783 337.302C413.335 337.078 412.903 336.841 412.483 336.596L412.472 336.589C407.425 333.594 403.732 328.882 401.444 325.294C400.347 323.597 399.378 321.82 398.544 319.979C398.202 319.224 398.537 318.335 399.291 317.993Z" fill="#17091D"/>
<path d="M349.137 260.205C349.47 259.446 350.356 259.102 351.114 259.436C351.872 259.769 352.215 260.654 351.883 261.412V261.414C351.881 261.416 351.879 261.422 351.876 261.429C351.869 261.444 351.859 261.47 351.845 261.504C351.816 261.574 351.772 261.682 351.716 261.827C351.603 262.116 351.441 262.553 351.253 263.121C350.876 264.257 350.393 265.919 349.981 267.988C349.157 272.129 348.624 277.872 349.774 284.294C351.021 291.254 349.551 295.349 347.39 297.701C346.336 298.848 345.188 299.498 344.297 299.863C343.851 300.045 343.466 300.157 343.182 300.225C343.041 300.259 342.923 300.282 342.835 300.297C342.791 300.305 342.754 300.311 342.725 300.315C342.711 300.317 342.698 300.318 342.687 300.32C342.682 300.32 342.678 300.321 342.674 300.322C342.672 300.322 342.67 300.322 342.668 300.323H342.665C342.663 300.318 342.652 300.236 342.486 298.833L342.663 300.324C341.84 300.421 341.094 299.833 340.997 299.01C340.9 298.188 341.486 297.442 342.308 297.344H342.307C342.311 297.344 342.315 297.343 342.32 297.342C342.351 297.337 342.407 297.326 342.484 297.307C342.639 297.27 342.877 297.202 343.162 297.085C343.733 296.852 344.485 296.429 345.181 295.67C346.523 294.21 347.957 291.167 346.821 284.823C345.589 277.941 346.162 271.809 347.039 267.402C347.478 265.196 347.995 263.415 348.405 262.177C348.61 261.558 348.789 261.074 348.919 260.741C348.983 260.574 349.036 260.445 349.073 260.355C349.092 260.31 349.107 260.275 349.118 260.249C349.123 260.237 349.127 260.228 349.131 260.22C349.132 260.216 349.134 260.213 349.135 260.21C349.135 260.209 349.135 260.208 349.136 260.207L349.137 260.207C349.137 260.206 349.137 260.205 350.51 260.809L349.137 260.205ZM342.302 297.345C342.3 297.345 342.298 297.346 342.297 297.346C342.295 297.346 342.294 297.346 342.294 297.346C342.295 297.346 342.298 297.345 342.304 297.344L342.302 297.345Z" fill="#17091D"/>
<path d="M592.127 160.134C592.127 160.134 580.409 142.392 554.932 141.6C529.455 140.808 523.737 141.516 523.737 141.516C523.737 141.516 538.561 152.782 554.42 151.241C570.279 149.7 592.127 160.134 592.127 160.134Z" fill="#D969BD"/>
<path d="M405.246 183.038C405.246 183.038 409.456 166.811 428.261 159.725C447.065 152.638 450.418 148.43 450.418 148.43C450.418 148.43 443.335 163.904 431.101 166.782C418.867 169.661 405.246 183.038 405.246 183.038Z" fill="#D969BD"/>
<path d="M467.141 122.463C467.57 121.755 468.493 121.528 469.202 121.957L468.424 123.241C469.146 122.05 469.198 121.964 469.202 121.958H469.203C469.203 121.959 469.205 121.96 469.206 121.96C469.207 121.961 469.21 121.963 469.212 121.964C469.219 121.968 469.228 121.974 469.24 121.981C469.263 121.995 469.295 122.015 469.337 122.041C469.422 122.094 469.545 122.171 469.702 122.271C470.015 122.471 470.465 122.763 471.017 123.137C472.121 123.886 473.641 124.966 475.312 126.296C478.624 128.933 482.646 132.647 485.123 136.786C485.549 137.496 485.318 138.418 484.607 138.843C483.896 139.269 482.975 139.037 482.549 138.327C480.352 134.656 476.668 131.211 473.443 128.643C471.845 127.371 470.389 126.336 469.333 125.621C468.806 125.263 468.38 124.987 468.088 124.8C467.942 124.707 467.829 124.637 467.754 124.59C467.717 124.567 467.689 124.55 467.671 124.539C467.662 124.533 467.656 124.528 467.652 124.526L467.647 124.524L467.52 124.438C466.913 123.98 466.739 123.128 467.141 122.463Z" fill="#17091D"/>
<path d="M485.273 136.555C501.245 135.687 515.197 142.965 525.064 150.326C530.012 154.016 533.973 157.759 536.7 160.579C538.064 161.989 539.122 163.171 539.841 164.004C540.2 164.421 540.475 164.751 540.662 164.978C540.755 165.092 540.827 165.18 540.876 165.241C540.9 165.271 540.918 165.295 540.931 165.311C540.938 165.319 540.943 165.326 540.947 165.33C540.949 165.333 540.951 165.335 540.952 165.336L540.953 165.338C540.949 165.342 540.883 165.395 539.774 166.266L540.954 165.339C541.465 165.991 541.352 166.933 540.701 167.445C540.049 167.956 539.106 167.843 538.594 167.192C538.594 167.191 538.593 167.191 538.592 167.19C538.59 167.187 538.588 167.182 538.583 167.176C538.573 167.164 538.557 167.145 538.536 167.119C538.494 167.066 538.429 166.987 538.343 166.882C538.171 166.673 537.912 166.362 537.569 165.964C536.883 165.169 535.864 164.029 534.544 162.663C531.901 159.93 528.06 156.303 523.27 152.731C513.663 145.565 500.404 138.737 485.435 139.551C470.602 140.358 461.524 148.92 456.094 157.414C453.377 161.667 451.593 165.877 450.49 169.029C449.939 170.602 449.56 171.907 449.319 172.812C449.199 173.264 449.113 173.616 449.058 173.852C449.031 173.97 449.011 174.059 448.999 174.117C448.992 174.145 448.989 174.167 448.986 174.18C448.985 174.186 448.984 174.19 448.983 174.193L448.982 174.194C448.818 175.006 448.027 175.532 447.216 175.368C446.403 175.204 445.878 174.412 446.042 173.6L447.512 173.898C446.129 173.618 446.047 173.601 446.043 173.599V173.596C446.043 173.594 446.044 173.592 446.045 173.589C446.046 173.583 446.047 173.576 446.05 173.566C446.054 173.546 446.059 173.518 446.067 173.482C446.083 173.41 446.106 173.307 446.136 173.174C446.198 172.909 446.291 172.526 446.42 172.041C446.677 171.072 447.079 169.693 447.659 168.038C448.816 164.731 450.692 160.297 453.567 155.798C459.323 146.792 469.166 137.431 485.273 136.555Z" fill="#17091D"/>
</svg>
