<svg width="115" height="135" viewBox="0 0 115 135" fill="none" xmlns="http://www.w3.org/2000/svg">
<g filter="url(#filter0_ii_2718_2211)">
<path d="M98.5548 0C107.542 0 114.827 7.28526 114.827 16.2721V117.589C114.827 127.16 107.067 134.92 97.4955 134.92H96.2596C90.5608 134.92 85.2261 132.118 81.9912 127.427L33.6339 57.2939C33.5291 57.1419 33.3562 57.0511 33.1716 57.0511C32.8615 57.0511 32.6101 57.3025 32.6101 57.6127V118.615C32.6101 127.62 25.31 134.92 16.305 134.92C7.30001 134.92 0 127.62 0 118.615V17.3314C0 7.75956 7.75955 0 17.3314 0H18.914C24.6398 0 29.996 2.82791 33.2255 7.55596L80.9445 77.4176C81.0811 77.6175 81.3076 77.7371 81.5498 77.7371C81.9546 77.7371 82.2828 77.409 82.2828 77.0041V16.2721C82.2828 7.28527 89.568 0 98.5548 0Z" fill="#FF20C8"/>
</g>
<defs>
<filter id="filter0_ii_2718_2211" x="-14.6147" y="-9.7431" width="129.442" height="147.035" filterUnits="userSpaceOnUse" color-interpolation-filters="sRGB">
<feFlood flood-opacity="0" result="BackgroundImageFix"/>
<feBlend mode="normal" in="SourceGraphic" in2="BackgroundImageFix" result="shape"/>
<feColorMatrix in="SourceAlpha" type="matrix" values="0 0 0 0 0 0 0 0 0 0 0 0 0 0 0 0 0 0 127 0" result="hardAlpha"/>
<feOffset dx="-14.6147" dy="2.37179"/>
<feGaussianBlur stdDeviation="7.30733"/>
<feComposite in2="hardAlpha" operator="arithmetic" k2="-1" k3="1"/>
<feColorMatrix type="matrix" values="0 0 0 0 1 0 0 0 0 1 0 0 0 0 1 0 0 0 1 0"/>
<feBlend mode="normal" in2="shape" result="effect1_innerShadow_2718_2211"/>
<feColorMatrix in="SourceAlpha" type="matrix" values="0 0 0 0 0 0 0 0 0 0 0 0 0 0 0 0 0 0 127 0" result="hardAlpha"/>
<feOffset dx="-14.6147" dy="-9.7431"/>
<feGaussianBlur stdDeviation="9.7431"/>
<feComposite in2="hardAlpha" operator="arithmetic" k2="-1" k3="1"/>
<feColorMatrix type="matrix" values="0 0 0 0 0.804167 0 0 0 0 0.0208333 0 0 0 0 1 0 0 0 0.8 0"/>
<feBlend mode="normal" in2="effect1_innerShadow_2718_2211" result="effect2_innerShadow_2718_2211"/>
</filter>
</defs>
</svg>
