<svg width="108" height="135" viewBox="0 0 108 135" fill="none" xmlns="http://www.w3.org/2000/svg">
<g filter="url(#filter0_ii_2718_2121)">
<path d="M87.5944 41.2075C80.3715 41.2075 74.8455 34.6461 69.1285 30.2317C65.7908 27.5786 61.0196 26.2521 54.815 26.2521C50.7071 26.2521 47.2838 26.787 44.5452 27.8568C41.8066 28.9266 39.7526 30.4028 38.3833 32.2856C37.014 34.1256 36.308 36.2438 36.2652 38.6401C36.1796 40.6084 36.5647 42.3415 37.4205 43.8391C38.3191 45.3368 39.6029 46.6633 41.2717 47.8187C42.9833 48.9312 45.0373 49.9154 47.4336 50.7712C49.8298 51.6271 52.5257 52.3759 55.521 53.0178L66.8178 55.5852C73.322 56.9973 79.0559 58.8801 84.0197 61.2336C89.0262 63.5871 93.2197 66.3899 96.6002 69.642C100.023 72.8941 102.612 76.6383 104.367 80.8745C106.121 85.1108 107.02 89.8606 107.062 95.1239C107.02 103.425 104.923 110.55 100.772 116.498C96.6216 122.446 90.6522 127.003 82.8643 130.17C75.1192 133.336 65.7694 134.919 54.815 134.919C43.8177 134.919 34.2326 133.272 26.0596 129.977C17.8865 126.682 11.5321 121.676 6.99629 114.957C4.99402 111.992 3.42118 108.68 2.27776 105.022C-0.310896 96.7414 7.09148 89.4755 15.7676 89.4755H19.1525C25.4851 89.4755 30.1528 94.9079 33.8261 100.066C35.8373 102.89 38.5973 105.03 42.1061 106.485C45.6578 107.94 49.7657 108.667 54.4299 108.667C58.7089 108.667 62.3461 108.089 65.3415 106.934C68.3796 105.779 70.7117 104.174 72.3378 102.12C73.9638 100.066 74.7983 97.7127 74.8411 95.0597C74.7983 92.5778 74.028 90.4597 72.5304 88.7053C71.0327 86.908 68.722 85.3676 65.5982 84.0839C62.5173 82.7573 58.5806 81.5378 53.788 80.4252L40.0522 77.2159C28.6698 74.6057 19.7051 70.3908 13.1582 64.5713C6.61117 58.7089 3.35908 50.7926 3.40187 40.8224C3.35908 32.6921 5.5414 25.5675 9.94885 19.4484C14.3563 13.3293 20.454 8.55815 28.2419 5.1349C36.0298 1.71163 44.9089 0 54.8792 0C65.0634 0 73.8997 1.73302 81.388 5.19907C88.9192 8.62234 94.7602 13.4363 98.9109 19.641C100.186 21.5464 101.269 23.5447 102.16 25.6359C105.61 33.7304 98.0829 41.2075 89.2837 41.2075H87.5944Z" fill="#FF20C8"/>
</g>
<defs>
<filter id="filter0_ii_2718_2121" x="-12.8607" y="-9.7431" width="119.923" height="147.034" filterUnits="userSpaceOnUse" color-interpolation-filters="sRGB">
<feFlood flood-opacity="0" result="BackgroundImageFix"/>
<feBlend mode="normal" in="SourceGraphic" in2="BackgroundImageFix" result="shape"/>
<feColorMatrix in="SourceAlpha" type="matrix" values="0 0 0 0 0 0 0 0 0 0 0 0 0 0 0 0 0 0 127 0" result="hardAlpha"/>
<feOffset dx="-14.6147" dy="2.37179"/>
<feGaussianBlur stdDeviation="7.30733"/>
<feComposite in2="hardAlpha" operator="arithmetic" k2="-1" k3="1"/>
<feColorMatrix type="matrix" values="0 0 0 0 1 0 0 0 0 1 0 0 0 0 1 0 0 0 1 0"/>
<feBlend mode="normal" in2="shape" result="effect1_innerShadow_2718_2121"/>
<feColorMatrix in="SourceAlpha" type="matrix" values="0 0 0 0 0 0 0 0 0 0 0 0 0 0 0 0 0 0 127 0" result="hardAlpha"/>
<feOffset dx="-14.6147" dy="-9.7431"/>
<feGaussianBlur stdDeviation="9.7431"/>
<feComposite in2="hardAlpha" operator="arithmetic" k2="-1" k3="1"/>
<feColorMatrix type="matrix" values="0 0 0 0 0.804167 0 0 0 0 0.0208333 0 0 0 0 1 0 0 0 0.8 0"/>
<feBlend mode="normal" in2="effect1_innerShadow_2718_2121" result="effect2_innerShadow_2718_2121"/>
</filter>
</defs>
</svg>
