<svg width="121" height="135" viewBox="0 0 121 135" fill="none" xmlns="http://www.w3.org/2000/svg">
<g filter="url(#filter0_ii_2718_2149)">
<path d="M116.403 32.1073C120.124 40.9145 112.336 49.3766 102.775 49.3766H97.8941C92.5537 49.3766 88.3165 45.2398 85.9281 40.4632C84.6029 37.8127 82.8501 35.5469 80.6699 33.6659C78.4896 31.7849 75.9032 30.3527 72.9107 29.3695C69.9609 28.3435 66.6905 27.8305 63.0995 27.8305C56.7297 27.8305 51.2363 29.3908 46.6192 32.5116C42.0449 35.6324 38.518 40.1425 36.0385 46.0421C33.6017 51.9416 32.3834 59.0809 32.3834 67.46C32.3834 76.1811 33.6231 83.4914 36.1026 89.3909C38.6249 95.2477 42.1518 99.6724 46.6833 102.665C51.2576 105.615 56.6655 107.09 62.9071 107.09C66.4126 107.09 69.5975 106.641 72.4618 105.743C75.3688 104.845 77.9125 103.541 80.0927 101.831C82.3157 100.078 84.1326 97.9623 85.5434 95.4828C88.1647 90.934 92.3991 86.9772 97.6491 87.0087L102.601 87.0384C112.281 87.0965 119.883 95.6734 115.554 104.332C112.775 109.975 108.949 115.127 104.076 119.786C99.2021 124.403 93.2598 128.08 86.2488 130.816C79.2805 133.552 71.2862 134.92 62.2658 134.92C50.3812 134.92 39.7364 132.312 30.3314 127.097C20.969 121.838 13.5732 114.186 8.14394 104.14C2.71464 94.0934 0 81.8669 0 67.46C0 53.0104 2.7574 40.7624 8.27219 30.7161C13.787 20.6698 21.2469 13.0388 30.652 7.82331C40.057 2.60777 50.595 0 62.2658 0C70.2174 0 77.5704 1.11151 84.325 3.33453C91.0796 5.51479 97.0219 8.72106 102.152 12.9533C107.282 17.1429 111.45 22.2943 114.656 28.4076C115.285 29.6071 115.868 30.8403 116.403 32.1073Z" fill="white"/>
</g>
<defs>
<filter id="filter0_ii_2718_2149" x="-14.6147" y="-9.7431" width="131.966" height="147.035" filterUnits="userSpaceOnUse" color-interpolation-filters="sRGB">
<feFlood flood-opacity="0" result="BackgroundImageFix"/>
<feBlend mode="normal" in="SourceGraphic" in2="BackgroundImageFix" result="shape"/>
<feColorMatrix in="SourceAlpha" type="matrix" values="0 0 0 0 0 0 0 0 0 0 0 0 0 0 0 0 0 0 127 0" result="hardAlpha"/>
<feOffset dx="-14.6147" dy="2.37179"/>
<feGaussianBlur stdDeviation="7.30733"/>
<feComposite in2="hardAlpha" operator="arithmetic" k2="-1" k3="1"/>
<feColorMatrix type="matrix" values="0 0 0 0 0.2 0 0 0 0 1 0 0 0 0 0.682353 0 0 0 1 0"/>
<feBlend mode="normal" in2="shape" result="effect1_innerShadow_2718_2149"/>
<feColorMatrix in="SourceAlpha" type="matrix" values="0 0 0 0 0 0 0 0 0 0 0 0 0 0 0 0 0 0 127 0" result="hardAlpha"/>
<feOffset dx="-14.6147" dy="-9.7431"/>
<feGaussianBlur stdDeviation="9.7431"/>
<feComposite in2="hardAlpha" operator="arithmetic" k2="-1" k3="1"/>
<feColorMatrix type="matrix" values="0 0 0 0 0.2 0 0 0 0 1 0 0 0 0 0.960784 0 0 0 0.8 0"/>
<feBlend mode="normal" in2="effect1_innerShadow_2718_2149" result="effect2_innerShadow_2718_2149"/>
</filter>
</defs>
</svg>
