<svg width="110" height="135" viewBox="0 0 110 135" fill="none" xmlns="http://www.w3.org/2000/svg">
<g filter="url(#filter0_ii_2718_2235)">
<path d="M16.305 134.92C7.30001 134.92 0 127.62 0 118.615V17.3314C0 7.75956 7.75954 0 17.3314 0H55.7336C65.835 0 74.553 1.82265 81.8875 5.46795C89.2659 9.06933 94.9535 14.2518 98.9501 21.0154C102.947 27.735 104.945 35.7064 104.945 44.9294C104.945 54.2842 102.903 62.2336 98.8184 68.7776C94.7339 75.2776 88.9365 80.2405 81.4263 83.6662C73.9161 87.048 65.0225 88.7389 54.7454 88.7389H32.3465C25.2517 88.7389 19.5002 82.9874 19.5002 75.8925C19.5002 68.7976 25.2517 63.0461 32.3465 63.0461H48.6845C53.6035 63.0461 57.7099 62.4093 61.0039 61.1356C64.3417 59.8181 66.8671 57.8417 68.5799 55.2065C70.2928 52.5275 71.1492 49.1017 71.1492 44.9294C71.1492 40.7571 70.2928 37.3094 68.5799 34.5864C66.8671 31.8195 64.3417 29.7553 61.0039 28.3938C57.666 26.9884 53.5596 26.2857 48.6845 26.2857C39.8068 26.2857 32.6101 33.4825 32.6101 42.3601V118.615C32.6101 127.62 25.31 134.92 16.305 134.92ZM66.7899 73.2573C72.4414 73.2573 77.6411 76.3456 80.3451 81.3083L97.0052 111.884C102.662 122.267 95.1472 134.92 83.3235 134.92C77.573 134.92 72.29 131.753 69.5806 126.68L53.1741 95.9675C47.6811 85.6847 55.1319 73.2573 66.7899 73.2573Z" fill="#FF20C8"/>
</g>
<defs>
<filter id="filter0_ii_2718_2235" x="-14.6147" y="-9.7431" width="119.56" height="147.035" filterUnits="userSpaceOnUse" color-interpolation-filters="sRGB">
<feFlood flood-opacity="0" result="BackgroundImageFix"/>
<feBlend mode="normal" in="SourceGraphic" in2="BackgroundImageFix" result="shape"/>
<feColorMatrix in="SourceAlpha" type="matrix" values="0 0 0 0 0 0 0 0 0 0 0 0 0 0 0 0 0 0 127 0" result="hardAlpha"/>
<feOffset dx="-14.6147" dy="2.37179"/>
<feGaussianBlur stdDeviation="7.30733"/>
<feComposite in2="hardAlpha" operator="arithmetic" k2="-1" k3="1"/>
<feColorMatrix type="matrix" values="0 0 0 0 1 0 0 0 0 1 0 0 0 0 1 0 0 0 1 0"/>
<feBlend mode="normal" in2="shape" result="effect1_innerShadow_2718_2235"/>
<feColorMatrix in="SourceAlpha" type="matrix" values="0 0 0 0 0 0 0 0 0 0 0 0 0 0 0 0 0 0 127 0" result="hardAlpha"/>
<feOffset dx="-14.6147" dy="-9.7431"/>
<feGaussianBlur stdDeviation="9.7431"/>
<feComposite in2="hardAlpha" operator="arithmetic" k2="-1" k3="1"/>
<feColorMatrix type="matrix" values="0 0 0 0 0.804167 0 0 0 0 0.0208333 0 0 0 0 1 0 0 0 0.8 0"/>
<feBlend mode="normal" in2="effect1_innerShadow_2718_2235" result="effect2_innerShadow_2718_2235"/>
</filter>
</defs>
</svg>
