<svg width="118" height="135" viewBox="0 0 118 135" fill="none" xmlns="http://www.w3.org/2000/svg">
<g filter="url(#filter0_ii_2718_2229)">
<path d="M60.285 96.3558C55.4715 89.985 60.016 80.8555 68.0008 80.8555C70.9732 80.8555 73.7804 82.2224 75.6135 84.5622L82.9674 93.9492L96.4232 109.396L103.195 117.748C108.78 124.635 103.878 134.92 95.0114 134.92C91.8907 134.92 88.9307 133.537 86.9288 131.143L75.6059 117.602L67.0376 105.293L60.285 96.3558ZM117.964 63.4776C117.964 77.0742 115.35 88.5991 110.12 98.0523C104.891 107.506 97.811 114.686 88.8807 119.594C79.9906 124.501 70.0144 126.955 58.9521 126.955C47.8495 126.955 37.8532 124.481 28.9632 119.533C20.0731 114.585 13.0133 107.405 7.78385 97.992C2.59462 88.5387 0 77.0339 0 63.4776C0 49.881 2.59462 38.3561 7.78385 28.9028C13.0133 19.4496 20.0731 12.2691 28.9632 7.36147C37.8532 2.45382 47.8495 0 58.9521 0C70.0144 0 79.9906 2.45382 88.8807 7.36147C97.811 12.2691 104.891 19.4496 110.12 28.9028C115.35 38.3561 117.964 49.881 117.964 63.4776ZM87.4325 63.4776C87.4325 55.4322 86.286 48.634 83.9931 43.0827C81.7404 37.5314 78.4821 33.3277 74.2181 30.4716C69.9943 27.6156 64.9056 26.1875 58.9521 26.1875C53.0388 26.1875 47.9501 27.6156 43.6861 30.4716C39.4221 33.3277 36.1436 37.5314 33.8507 43.0827C31.598 48.634 30.4716 55.4322 30.4716 63.4776C30.4716 71.5229 31.598 78.3212 33.8507 83.8724C36.1436 89.4237 39.4221 93.6274 43.6861 96.4835C47.9501 99.3396 53.0388 100.768 58.9521 100.768C64.9056 100.768 69.9943 99.3396 74.2181 96.4835C78.4821 93.6274 81.7404 89.4237 83.9931 83.8724C86.286 78.3212 87.4325 71.5229 87.4325 63.4776Z" fill="#FF20C8"/>
</g>
<defs>
<filter id="filter0_ii_2718_2229" x="-14.6147" y="-9.7431" width="132.579" height="147.035" filterUnits="userSpaceOnUse" color-interpolation-filters="sRGB">
<feFlood flood-opacity="0" result="BackgroundImageFix"/>
<feBlend mode="normal" in="SourceGraphic" in2="BackgroundImageFix" result="shape"/>
<feColorMatrix in="SourceAlpha" type="matrix" values="0 0 0 0 0 0 0 0 0 0 0 0 0 0 0 0 0 0 127 0" result="hardAlpha"/>
<feOffset dx="-14.6147" dy="2.37179"/>
<feGaussianBlur stdDeviation="7.30733"/>
<feComposite in2="hardAlpha" operator="arithmetic" k2="-1" k3="1"/>
<feColorMatrix type="matrix" values="0 0 0 0 1 0 0 0 0 1 0 0 0 0 1 0 0 0 1 0"/>
<feBlend mode="normal" in2="shape" result="effect1_innerShadow_2718_2229"/>
<feColorMatrix in="SourceAlpha" type="matrix" values="0 0 0 0 0 0 0 0 0 0 0 0 0 0 0 0 0 0 127 0" result="hardAlpha"/>
<feOffset dx="-14.6147" dy="-9.7431"/>
<feGaussianBlur stdDeviation="9.7431"/>
<feComposite in2="hardAlpha" operator="arithmetic" k2="-1" k3="1"/>
<feColorMatrix type="matrix" values="0 0 0 0 0.804167 0 0 0 0 0.0208333 0 0 0 0 1 0 0 0 0.8 0"/>
<feBlend mode="normal" in2="effect1_innerShadow_2718_2229" result="effect2_innerShadow_2718_2229"/>
</filter>
</defs>
</svg>
