<svg width="108" height="135" viewBox="0 0 108 135" fill="none" xmlns="http://www.w3.org/2000/svg">
<g filter="url(#filter0_ii_2718_2143)">
<path d="M17.3314 134.92C7.75954 134.92 0 127.16 0 117.589V17.3314C0 7.75956 7.75955 0 17.3314 0H56.2606C66.362 0 74.8165 1.42737 81.624 4.28212C88.4754 7.13688 93.6139 11.1335 97.0396 16.2721C100.509 21.4106 102.244 27.3617 102.244 34.1253C102.244 39.2638 101.168 43.8534 99.016 47.894C96.864 51.8906 93.8994 55.2065 90.1223 57.8417C86.4961 60.3716 82.3233 62.1729 77.604 63.2455C77.2598 63.3237 77.0124 63.6279 77.0124 63.9809C77.0124 64.3797 77.3258 64.7074 77.7236 64.7345C82.8969 65.0874 87.6886 66.5449 92.0987 69.107C96.7542 71.786 100.487 75.5192 103.298 80.3064C106.109 85.0497 107.514 90.6713 107.514 97.1714C107.514 104.418 105.67 110.896 101.981 116.606C98.2913 122.271 92.9551 126.751 85.972 130.045C78.9888 133.295 70.5124 134.92 60.5427 134.92H17.3314ZM32.6101 92.5599C32.6101 101.438 39.8068 108.634 48.6845 108.634H52.769C59.84 108.634 65.0444 107.295 68.3823 104.616C71.7641 101.937 73.455 98.2035 73.455 93.4163C73.455 89.9467 72.6425 86.9602 71.0175 84.4568C69.3925 81.9094 67.0867 79.955 64.1002 78.5935C61.1137 77.1881 57.5342 76.4854 53.3619 76.4854H48.6845C39.8068 76.4854 32.6101 83.6822 32.6101 92.5599ZM32.6101 40.6802C32.6101 48.8484 39.2317 55.47 47.3999 55.47H50.6609C54.2183 55.47 57.3805 54.8771 60.1474 53.6913C62.9144 52.5055 65.0664 50.7926 66.6036 48.5528C68.1847 46.3129 68.9752 43.6118 68.9752 40.4496C68.9752 35.926 67.3722 32.3685 64.1661 29.7773C60.9599 27.186 56.6339 25.8904 51.1879 25.8904H47.3999C39.2317 25.8904 32.6101 32.512 32.6101 40.6802Z" fill="white"/>
</g>
<defs>
<filter id="filter0_ii_2718_2143" x="-14.6147" y="-9.7431" width="122.129" height="147.035" filterUnits="userSpaceOnUse" color-interpolation-filters="sRGB">
<feFlood flood-opacity="0" result="BackgroundImageFix"/>
<feBlend mode="normal" in="SourceGraphic" in2="BackgroundImageFix" result="shape"/>
<feColorMatrix in="SourceAlpha" type="matrix" values="0 0 0 0 0 0 0 0 0 0 0 0 0 0 0 0 0 0 127 0" result="hardAlpha"/>
<feOffset dx="-14.6147" dy="2.37179"/>
<feGaussianBlur stdDeviation="7.30733"/>
<feComposite in2="hardAlpha" operator="arithmetic" k2="-1" k3="1"/>
<feColorMatrix type="matrix" values="0 0 0 0 0.2 0 0 0 0 1 0 0 0 0 0.682353 0 0 0 1 0"/>
<feBlend mode="normal" in2="shape" result="effect1_innerShadow_2718_2143"/>
<feColorMatrix in="SourceAlpha" type="matrix" values="0 0 0 0 0 0 0 0 0 0 0 0 0 0 0 0 0 0 127 0" result="hardAlpha"/>
<feOffset dx="-14.6147" dy="-9.7431"/>
<feGaussianBlur stdDeviation="9.7431"/>
<feComposite in2="hardAlpha" operator="arithmetic" k2="-1" k3="1"/>
<feColorMatrix type="matrix" values="0 0 0 0 0.2 0 0 0 0 1 0 0 0 0 0.960784 0 0 0 0.8 0"/>
<feBlend mode="normal" in2="effect1_innerShadow_2718_2143" result="effect2_innerShadow_2718_2143"/>
</filter>
</defs>
</svg>
