<svg width="122" height="135" viewBox="0 0 122 135" fill="none" xmlns="http://www.w3.org/2000/svg">
<g filter="url(#filter0_ii_2718_2169)">
<path d="M95.4398 44.6955C90.8111 44.6955 87.0115 41.3918 84.3891 37.5775C82.9784 35.4828 81.247 33.7086 79.195 32.2551C77.143 30.8016 74.7917 29.7115 72.1412 28.9847C69.4906 28.2152 66.5836 27.8305 63.4201 27.8305C57.0503 27.8305 51.5355 29.3695 46.8757 32.4475C42.2587 35.5255 38.689 40.0143 36.1668 45.9138C33.6445 51.7706 32.3834 58.8886 32.3834 67.2676C32.3834 75.6894 33.6017 82.8715 36.0385 88.8138C38.4753 94.7561 42.0022 99.2876 46.6192 102.408C51.2363 105.529 56.8365 107.09 63.4201 107.09C69.2341 107.09 74.1504 106.149 78.169 104.268C82.2302 102.344 85.3083 99.6296 87.403 96.1241C88.5769 94.1597 89.4218 92.0006 89.9379 89.6469C90.6148 86.5595 93.3064 84.078 96.4447 84.4532H76.0849C69.6924 84.4532 64.5102 79.2711 64.5102 72.8786C64.5102 66.4861 69.6924 61.304 76.0849 61.304H103.802C113.373 61.304 121.133 69.1101 121.133 78.682C121.133 90.4383 118.632 100.506 113.63 108.885C108.671 117.264 101.831 123.698 93.1102 128.187C84.4319 132.676 74.4497 134.92 63.1636 134.92C50.6378 134.92 39.6295 132.205 30.139 126.776C20.6484 121.347 13.2526 113.609 7.95156 103.563C2.65052 93.4736 0 81.5035 0 67.6524C0 56.8793 1.60314 47.3246 4.80941 38.9883C8.01569 30.6092 12.4831 23.5127 18.2116 17.6986C23.9829 11.8846 30.652 7.48131 38.2188 4.48878C45.8283 1.49626 54.015 0 62.7788 0C70.3884 0 77.4636 1.09013 84.0044 3.2704C90.5879 5.45067 96.402 8.52869 101.447 12.5045C106.534 16.4802 110.659 21.2042 113.823 26.6762C118.91 35.4753 110.792 44.6955 100.628 44.6955H95.4398Z" fill="#FF20C8"/>
</g>
<defs>
<filter id="filter0_ii_2718_2169" x="-14.6147" y="-9.7431" width="135.747" height="147.035" filterUnits="userSpaceOnUse" color-interpolation-filters="sRGB">
<feFlood flood-opacity="0" result="BackgroundImageFix"/>
<feBlend mode="normal" in="SourceGraphic" in2="BackgroundImageFix" result="shape"/>
<feColorMatrix in="SourceAlpha" type="matrix" values="0 0 0 0 0 0 0 0 0 0 0 0 0 0 0 0 0 0 127 0" result="hardAlpha"/>
<feOffset dx="-14.6147" dy="2.37179"/>
<feGaussianBlur stdDeviation="7.30733"/>
<feComposite in2="hardAlpha" operator="arithmetic" k2="-1" k3="1"/>
<feColorMatrix type="matrix" values="0 0 0 0 1 0 0 0 0 1 0 0 0 0 1 0 0 0 1 0"/>
<feBlend mode="normal" in2="shape" result="effect1_innerShadow_2718_2169"/>
<feColorMatrix in="SourceAlpha" type="matrix" values="0 0 0 0 0 0 0 0 0 0 0 0 0 0 0 0 0 0 127 0" result="hardAlpha"/>
<feOffset dx="-14.6147" dy="-9.7431"/>
<feGaussianBlur stdDeviation="9.7431"/>
<feComposite in2="hardAlpha" operator="arithmetic" k2="-1" k3="1"/>
<feColorMatrix type="matrix" values="0 0 0 0 0.804167 0 0 0 0 0.0208333 0 0 0 0 1 0 0 0 0.8 0"/>
<feBlend mode="normal" in2="effect1_innerShadow_2718_2169" result="effect2_innerShadow_2718_2169"/>
</filter>
</defs>
</svg>
