<svg width="119" height="135" viewBox="0 0 119 135" fill="none" xmlns="http://www.w3.org/2000/svg">
<g filter="url(#filter0_ii_2718_2177)">
<path d="M16.305 134.92C7.30001 134.92 0 127.62 0 118.615V16.305C0 7.30002 7.30001 0 16.305 0C25.31 0 32.6101 7.30001 32.6101 16.305V54.1525H85.7743V16.2721C85.7743 7.28526 93.0596 0 102.046 0C111.033 0 118.319 7.28526 118.319 16.2721V118.648C118.319 127.635 111.033 134.92 102.046 134.92C93.0596 134.92 85.7743 127.635 85.7743 118.648V80.7017H32.6101V118.615C32.6101 127.62 25.31 134.92 16.305 134.92Z" fill="#FF4AD2"/>
</g>
<defs>
<filter id="filter0_ii_2718_2177" x="-14.6147" y="-9.7431" width="132.933" height="147.035" filterUnits="userSpaceOnUse" color-interpolation-filters="sRGB">
<feFlood flood-opacity="0" result="BackgroundImageFix"/>
<feBlend mode="normal" in="SourceGraphic" in2="BackgroundImageFix" result="shape"/>
<feColorMatrix in="SourceAlpha" type="matrix" values="0 0 0 0 0 0 0 0 0 0 0 0 0 0 0 0 0 0 127 0" result="hardAlpha"/>
<feOffset dx="-14.6147" dy="2.37179"/>
<feGaussianBlur stdDeviation="7.30733"/>
<feComposite in2="hardAlpha" operator="arithmetic" k2="-1" k3="1"/>
<feColorMatrix type="matrix" values="0 0 0 0 1 0 0 0 0 0.0528846 0 0 0 0 0.400017 0 0 0 1 0"/>
<feBlend mode="normal" in2="shape" result="effect1_innerShadow_2718_2177"/>
<feColorMatrix in="SourceAlpha" type="matrix" values="0 0 0 0 0 0 0 0 0 0 0 0 0 0 0 0 0 0 127 0" result="hardAlpha"/>
<feOffset dx="-14.6147" dy="-9.7431"/>
<feGaussianBlur stdDeviation="9.7431"/>
<feComposite in2="hardAlpha" operator="arithmetic" k2="-1" k3="1"/>
<feColorMatrix type="matrix" values="0 0 0 0 0.990385 0 0 0 0 0.428532 0 0 0 0 0.63446 0 0 0 0.8 0"/>
<feBlend mode="normal" in2="effect1_innerShadow_2718_2177" result="effect2_innerShadow_2718_2177"/>
</filter>
</defs>
</svg>
