<svg width="1000" height="1202" viewBox="0 0 1000 1202" fill="none" xmlns="http://www.w3.org/2000/svg">
<path d="M583.001 820C579.531 820.44 602.421 818.55 601.001 821C594.751 822.62 589.821 826.5 571.131 829.43C559.739 831.172 548.204 831.798 536.691 831.3C515.321 830.45 497.181 828.3 476.951 820.23C449.936 809.455 423.956 796.247 399.331 780.77C394.061 777.448 388.989 773.821 384.141 769.91C370.541 758.95 360.008 749.97 352.541 742.97C332.341 724 317.001 699.24 305.001 672C309.501 677.86 313.001 685.52 317.131 691.52C332.271 713.41 353.351 734.39 372.081 748.57C401.761 771.06 439.171 787.16 475.001 803C499.591 813.88 510.171 815.06 540.001 816C555.641 816.5 576.451 820 583.001 820Z" fill="#020201"/>
<path d="M575.131 829H575.001C477.731 821.52 401.241 790.71 347.661 737.42C314.148 704.039 290.345 662.171 278.801 616.3C272.651 591.09 265.141 565.72 255.801 538.71C253.431 531.86 250.961 524.66 248.441 517.3L247.211 513.74C224.301 446.81 212.001 409.89 210.621 404C207.531 390.62 208.301 338.37 208.331 336.15V336C210.691 279 222.561 228.67 243.601 186.34C260.76 151.469 285.333 120.769 315.601 96.3903C340.031 76.7503 368.451 60.9303 400.071 49.3903C454.641 29.5003 501.211 28.4903 510.001 28.4903H510.891C511.671 28.4403 514.671 28.2803 519.531 28.2803C545.531 28.2803 612.801 32.5503 676.831 72.1103C713.46 94.7065 743.815 126.155 765.101 163.56C791.541 209.5 806.761 266.48 810.331 332.92C810.791 341.46 809.401 355.98 807.681 372.67L806.931 379.81C804.131 406.68 800.641 440.12 800.821 470.3C801.051 508.5 791.241 569.52 785.371 602.49C783.131 615.08 781.521 623.2 781.501 623.28V623.47L781.441 623.65C768.011 670.05 749.071 709.65 725.151 741.43C705.851 767.05 683.281 787.65 658.061 802.66C614.221 828.74 576.941 829 575.371 829H575.131Z" fill="#E68856"/>
<path d="M519.531 32.7998C566.321 32.7998 790.531 47.7298 805.841 333.17C806.271 341.17 804.971 355.1 803.201 372.22C800.291 400.38 796.121 437.17 796.321 470.34C796.551 508.49 786.611 569.85 780.941 601.71C778.681 614.4 777.091 622.41 777.091 622.41C718.921 823.28 578.871 824.54 575.371 824.54H575.301C352.561 807.42 296.721 670.67 283.171 615.23C276.741 588.88 268.931 562.9 260.101 537.23C257.361 529.23 254.471 520.85 251.521 512.23C234.901 463.83 216.611 410 215.001 403C212.001 390 212.831 336.23 212.831 336.23C215.341 275.65 228.351 227.17 247.631 188.38C323.221 36.2798 495.291 32.9998 510.001 32.9998H511.001C511.001 32.9998 514.001 32.7998 519.531 32.7998ZM519.531 23.7998C514.871 23.7998 511.831 23.9398 510.791 23.9998H510.001C501.081 23.9998 453.811 24.9998 398.561 45.2098C366.471 56.9098 337.621 72.9998 312.811 92.9198C282.022 117.699 257.025 148.911 239.571 184.37C218.251 227.28 206.221 278.24 203.841 335.86V336.09C203.751 341.71 203.091 391.35 206.241 405.02C207.631 411.02 220.011 448.12 243.021 515.2L244.511 519.55C246.941 526.63 249.321 533.55 251.601 540.18C260.851 567.05 268.321 592.29 274.441 617.36C279.194 636.643 286.157 655.313 295.191 673C307.91 698.02 324.535 720.853 344.441 740.64C369.261 765.32 399.391 785.51 433.981 800.64C474.531 818.39 521.851 829.45 574.611 833.5H574.951H575.371C579.371 833.5 616.231 832.74 660.371 806.5C686.101 791.19 709.101 770.2 728.751 744.11C753.001 711.91 772.191 671.8 785.751 624.87L785.861 624.5L785.941 624.12C785.941 624.04 787.571 615.88 789.821 603.25C795.721 570.12 805.571 508.79 805.341 470.25C805.161 440.31 808.641 407.01 811.431 380.25C811.681 377.81 811.931 375.42 812.171 373.1C813.921 356.21 815.321 341.51 814.851 332.64C811.231 265.49 795.851 207.84 769.031 161.29C747.37 123.25 716.489 91.2687 679.231 68.2898C614.201 28.1298 545.891 23.7998 519.541 23.7998H519.531Z" fill="#020201"/>
<path d="M251.521 512.28C234.901 463.83 216.611 410 215.001 403C212.001 390 212.831 336.23 212.831 336.23C215.341 275.65 228.351 227.17 247.631 188.38C239.631 218.25 226.091 299.57 258.631 446.94C272.001 507.59 266.001 521.56 251.521 512.28Z" fill="#CE6D40"/>
<path d="M448.28 614.739C448.513 614.728 448.743 614.799 448.93 614.939C449.122 615.075 449.26 615.273 449.32 615.499C449.399 615.719 449.399 615.96 449.32 616.179C449.235 616.396 449.08 616.579 448.88 616.699L439.88 621.879C439.144 622.3 438.593 622.982 438.337 623.79C438.081 624.598 438.14 625.472 438.5 626.239C442.86 635.849 467.91 649.299 476.95 653.339C506.375 666.711 538.234 673.896 570.55 674.449C602.17 674.929 625.95 674.449 654.2 663.249C662 660.129 667.52 656.023 670.76 650.929C670.89 650.711 671.077 650.531 671.3 650.409C671.528 650.29 671.782 650.229 672.04 650.229C672.299 650.236 672.551 650.312 672.77 650.449C672.995 650.581 673.184 650.767 673.32 650.989L674.07 652.259C674.541 653.095 674.747 654.054 674.66 655.009C674.571 655.96 674.187 656.859 673.56 657.579C663.8 668.759 646.25 674.579 631.56 677.369C586.1 685.876 540.657 682.743 495.23 667.969C471.938 660.44 450.566 647.926 432.6 631.299C432.355 631.081 432.069 630.911 431.76 630.799C431.44 630.684 431.098 630.643 430.76 630.679C430.433 630.697 430.115 630.789 429.83 630.949C429.541 631.099 429.288 631.311 429.09 631.569L424.52 637.379C424.341 637.616 424.093 637.79 423.81 637.879C423.528 637.975 423.222 637.975 422.94 637.879C422.662 637.777 422.427 637.584 422.271 637.332C422.115 637.08 422.048 636.784 422.08 636.489C423.05 623.439 436.3 615.069 448.28 614.739Z" fill="#020201"/>
<path d="M636.82 591.859C627.63 609.119 602 627.999 586.88 627.709C579.597 627.577 572.421 625.922 565.815 622.852C559.208 619.781 553.317 615.362 548.52 609.879C545.2 606.069 542.93 602.229 543.27 599.049C543.393 597.919 543.934 596.875 544.787 596.124C545.64 595.373 546.744 594.968 547.88 594.989L596 597.779C609.877 598.583 623.773 596.569 636.85 591.859H636.82ZM553.82 605.049C554.366 606.304 555.293 607.354 556.47 608.049C561.137 611.231 566.434 613.369 572 614.319C573.002 614.496 574.034 614.331 574.93 613.85C575.826 613.37 576.534 612.601 576.94 611.669V611.579C577.078 611.23 577.132 610.853 577.1 610.479C577.08 610.102 576.971 609.736 576.78 609.409C576.601 609.08 576.347 608.796 576.04 608.579C575.741 608.367 575.4 608.221 575.04 608.149L554.48 604.259C554.382 604.234 554.279 604.234 554.18 604.259C554.084 604.298 553.998 604.36 553.93 604.439C553.858 604.516 553.812 604.614 553.8 604.719C553.772 604.828 553.776 604.943 553.81 605.049H553.82Z" fill="#CE6D40"/>
<path d="M553.811 605.05C553.786 604.944 553.786 604.835 553.811 604.73C553.827 604.626 553.872 604.529 553.941 604.45C554.01 604.372 554.095 604.311 554.191 604.27C554.289 604.245 554.392 604.245 554.491 604.27L575.001 608.15C575.363 608.214 575.705 608.361 576.001 608.58C576.308 608.796 576.561 609.08 576.741 609.41C576.929 609.737 577.042 610.103 577.071 610.48C577.094 610.854 577.036 611.23 576.901 611.58V611.67C576.497 612.602 575.791 613.371 574.896 613.852C574.002 614.333 572.971 614.498 571.97 614.32C566.405 613.375 561.107 611.251 556.431 608.09C555.261 607.375 554.344 606.312 553.811 605.05Z" fill="#201116"/>
<path d="M610 443.999C608.87 445.129 609.12 447.399 609 448.999C608.34 457.999 603.37 495.329 610.68 515.289C619 537.999 622.3 552.659 635 570.999C647.7 589.339 612.84 622.219 590.42 625.609C590.42 625.609 584.6 629.609 599.3 629.329C614 629.049 636.88 613.399 642.44 595.699C648 577.999 646.88 574.569 642.44 566.789C638 559.009 618 523.999 616 498.999C614 473.999 620 452.999 612 443.999C611.34 443.249 611 442.999 610 443.999Z" fill="#020201"/>
<path d="M841.001 368C842.561 369 816.431 366.57 814.001 366C810.391 368 798.521 363.54 794.351 363.36C771.211 362.3 749.994 361.607 730.701 361.28C716.881 361.07 700.051 364.42 690.291 365.28C676.684 366.5 666.798 368.547 660.631 371.42C648.311 377.2 638.598 384.97 631.491 394.73C631.129 395.228 630.818 395.76 630.561 396.32L621.251 416.79C621.038 417.263 620.732 417.688 620.351 418.04C619.965 418.389 619.512 418.658 619.021 418.83C618.533 419 618.016 419.068 617.501 419.03C616.982 418.997 616.476 418.861 616.011 418.63C604.171 412.73 592.137 410.633 579.911 412.34C575.371 412.97 571.661 412.79 567.211 415.44C566.914 415.619 566.584 415.737 566.241 415.789C565.898 415.84 565.548 415.824 565.211 415.74C564.526 415.569 563.934 415.139 563.561 414.54C559.861 408.42 557.301 399.69 554.201 394.73C545.074 380.15 532.881 370.483 517.621 365.73C480.661 354.17 441.388 349.483 399.801 351.67C386.294 352.37 376.791 352.72 371.291 352.72C356.871 352.72 317.391 354.2 313.061 368.23C311.208 374.15 310.104 382.25 309.751 392.53C309.71 393.739 309.8 394.95 310.021 396.14C311.791 406.309 312.956 416.573 313.511 426.88C313.841 434.238 314.757 441.558 316.251 448.77C321.731 475.37 327.064 498.223 332.251 517.33C335.851 531.183 343.003 543.857 353.001 554.1C353.833 554.954 354.774 555.694 355.801 556.3C373.801 566.74 389.548 572.953 403.041 574.94C420.02 577.268 437.156 578.271 454.291 577.94C471.482 577.85 488.431 573.889 503.881 566.35C510.866 562.877 517.167 558.172 522.481 552.46C529.987 544.5 534.928 538.45 537.301 534.31C542.021 526.123 547.741 512.143 554.461 492.37C558.461 480.6 560.391 461.37 561.781 452.44C562.891 445.19 565.961 439.44 572.281 436.67C588.041 429.643 602.104 431.9 614.471 443.44C618.777 447.5 620.864 451.796 620.731 456.33C619.971 477.85 621.084 496.967 624.071 513.68C629.341 543.16 651.071 576.19 684.201 580.68C695.141 582.16 709.744 583.183 728.011 583.75C741.564 584.19 757.471 580.647 775.731 573.12C790.624 567 801.604 555.91 808.671 539.85C816.204 522.75 822.418 507.063 827.311 492.79C827.667 491.746 827.908 490.666 828.031 489.57C828.969 481.248 831.592 473.204 835.741 465.93L833.601 492.4C826.131 522.09 815.261 550.4 793.701 570.98C792.911 571.74 758.991 600.98 682.181 587.9C671.748 586.02 659.748 580.61 646.181 571.67C633.001 560 608.401 522.44 615.751 461.18C616.094 458.154 615.659 455.09 614.486 452.28C613.314 449.469 611.443 447.005 609.051 445.12C599.281 437.3 582.331 429.12 568.951 449.53C568.421 450.364 568.102 451.315 568.021 452.3C565.611 484.13 557.931 512.73 540.741 539.89C524.601 565.343 501.478 579.896 471.371 583.55C441.252 587.299 410.689 585.073 381.431 577C357.371 570.38 340.994 556.32 332.301 534.82C316.441 495.58 307.308 452.473 304.901 405.5C304.802 403.777 304.071 402.152 302.847 400.936C301.623 399.72 299.994 398.998 298.271 398.91C284.971 398.31 269.948 400.047 253.201 404.12C252.991 404.12 246.001 409.02 242.201 406.07C236.991 401.98 233.011 396.45 227.781 392.07C226.969 391.401 226.079 390.834 225.131 390.38C221.611 388.71 210.231 387.76 207.001 385.52C205.311 384.36 207.461 378.75 207.621 378.25C209.361 372.47 220.311 367.35 224.471 364.88C225.518 364.253 226.71 363.908 227.931 363.88L243.231 363.31C265.351 363.65 284.558 361.403 300.851 356.57C321.851 350.343 334.248 347.11 338.041 346.87C355.381 345.76 371.791 342.87 389.341 342.81C418.945 342.579 448.531 344.37 477.891 348.17C493.16 350.267 508.148 354.053 522.581 359.46C545.011 367.74 558.681 383.06 565.721 404.53C566.021 405.439 566.666 406.194 567.516 406.633C568.367 407.072 569.356 407.161 570.271 406.88C585.604 402.34 600.248 403.833 614.201 411.36C614.406 411.476 614.635 411.544 614.871 411.56C615.107 411.571 615.342 411.53 615.561 411.44C615.78 411.349 615.978 411.213 616.141 411.04C616.303 410.868 616.42 410.658 616.481 410.43C622.174 391.596 632.604 378.12 647.771 370C663.971 361.333 682.448 356.213 703.201 354.64C734.031 352.27 766.441 353.34 797.971 357.04C803.071 357.6 836.691 365.29 841.001 368ZM302.001 370.38C302.001 369.733 301.857 369.095 301.581 368.51C301.304 367.926 300.901 367.41 300.401 367C299.905 366.588 299.325 366.291 298.701 366.13C298.076 365.975 297.425 365.955 296.791 366.07C275.443 369.932 253.741 371.477 232.061 370.68C231.204 370.638 230.349 370.792 229.561 371.13C228.037 371.772 226.671 372.738 225.557 373.96C224.443 375.183 223.609 376.633 223.111 378.21C222.941 378.672 222.92 379.175 223.051 379.65C223.175 380.126 223.453 380.547 223.841 380.85L244.491 397.05C245.025 397.464 245.654 397.739 246.321 397.85C246.99 397.967 247.679 397.912 248.321 397.69C263.872 392.234 280.473 390.44 296.831 392.45C297.484 392.518 298.145 392.45 298.771 392.25C299.709 391.945 300.528 391.351 301.109 390.554C301.691 389.757 302.007 388.797 302.011 387.81L302.001 370.38Z" fill="#020201"/>
<path d="M816.001 365L832.001 368C832.161 368 840.291 371.12 840.441 371.22C843.661 373.22 845.208 376.22 845.081 380.22C844.701 392.486 844.108 405.153 843.301 418.22C839.311 433.848 836.784 449.813 835.751 465.91C831.584 473.19 828.947 481.245 828.001 489.58C827.878 490.676 827.637 491.756 827.281 492.8C822.381 507.066 816.168 522.753 808.641 539.86C801.581 555.92 790.601 567.01 775.701 573.13C757.468 580.656 741.568 584.2 728.001 583.76C709.735 583.2 695.131 582.176 684.191 580.69C651.041 576.17 629.331 543.14 624.061 513.69C621.068 496.983 619.955 477.866 620.721 456.34C620.861 451.8 618.775 447.503 614.461 443.45C602.088 431.91 588.025 429.653 572.271 436.68C565.951 439.48 562.881 445.2 561.771 452.45C560.381 461.4 558.451 480.61 554.451 492.38C547.745 512.126 542.031 526.096 537.311 534.29C534.945 538.416 530.005 544.466 522.491 552.44C517.178 558.151 510.877 562.857 503.891 566.33C488.442 573.869 471.492 577.83 454.301 577.92C437.166 578.251 420.031 577.248 403.051 574.92C389.531 572.92 373.785 566.706 355.811 556.28C354.785 555.674 353.843 554.934 353.011 554.08C342.992 543.837 335.822 531.155 332.211 517.29C327.051 498.183 321.718 475.33 316.211 448.73C314.717 441.518 313.801 434.198 313.471 426.84C312.922 416.54 311.764 406.282 310.001 396.12C309.781 394.93 309.69 393.719 309.731 392.51C310.091 382.23 311.195 374.13 313.041 368.21C317.371 354.21 356.851 352.7 371.271 352.7C376.771 352.7 386.275 352.35 399.781 351.65C441.368 349.463 480.641 354.15 517.601 365.71C532.855 370.49 545.048 380.156 554.181 394.71C557.281 399.71 559.841 408.4 563.541 414.52C563.917 415.116 564.508 415.546 565.191 415.72C565.528 415.804 565.878 415.82 566.221 415.769C566.564 415.717 566.894 415.599 567.191 415.42C571.641 412.77 575.351 412.95 579.891 412.32C592.125 410.606 604.158 412.703 615.991 418.61C616.456 418.841 616.963 418.977 617.481 419.01C617.996 419.049 618.514 418.981 619.001 418.81C619.493 418.638 619.945 418.369 620.331 418.02C620.713 417.668 621.019 417.243 621.231 416.77L630.541 396.3C630.798 395.74 631.109 395.208 631.471 394.71C638.571 384.95 648.285 377.18 660.611 371.4C666.778 368.526 676.665 366.48 690.271 365.26C700.031 364.39 716.861 361.04 730.681 361.26C749.968 361.593 771.185 362.286 794.331 363.34C798.001 363.52 815.461 364.83 816.001 365ZM367.341 370.92C325.491 381.31 333.341 422.8 334.591 454.56C334.94 464.783 336.341 474.943 338.771 484.88C343.371 503.306 347.998 517.086 352.651 526.22C368.851 557.92 398.271 560.12 430.421 561.57C460.111 562.92 484.741 563.04 506.961 545.43C520.091 535.01 527.791 520.43 534.541 505.54C539.781 493.97 541.641 478.8 544.751 466.06C547.751 453.87 547.001 441.4 547.061 429.27C547.061 423.73 544.745 415.67 540.111 405.09C536.538 397.003 532.271 391.243 527.311 387.81C523.161 384.92 512.741 381.7 497.001 376C495.791 375.56 495.281 375 494.001 375C479.731 374.91 465.681 369.29 451.231 368.57C421.338 367.07 402.448 366.356 394.561 366.43C388.241 366.49 379.168 367.986 367.341 370.92ZM819.221 406.33C816.001 370 726.801 377 703.061 378.36C676.441 379.83 640.581 392.42 636.911 423.13C635.178 437.556 634.275 455.63 634.201 477.35C634.161 492.27 637.925 510.696 645.491 532.63C651.571 550.25 660.841 557.11 678.191 562.8C695.652 568.714 714.281 570.337 732.501 567.53C750.235 564.743 760.361 563.056 762.881 562.47C770.881 560.6 776.471 557.12 781.001 552C796.042 535.224 806.844 515.089 812.501 493.28C814.415 485.946 817.458 472.613 821.631 453.28C824.225 441.246 823.421 425.596 819.221 406.33Z" fill="#501C49"/>
<path d="M302.001 370.38V387.81C302.001 388.465 301.861 389.113 301.591 389.71C301.331 390.311 300.942 390.847 300.451 391.28C299.962 391.718 299.386 392.049 298.76 392.25C298.135 392.452 297.474 392.52 296.821 392.45C280.466 390.439 263.868 392.232 248.321 397.69C247.679 397.907 246.994 397.962 246.326 397.85C245.657 397.739 245.027 397.464 244.491 397.05L215.841 379.85C215.453 379.547 215.175 379.126 215.051 378.65C214.919 378.175 214.943 377.67 215.121 377.21C216.421 373.69 218.971 372.21 221.961 371C225.254 370.145 228.593 369.477 231.961 369C255.201 369.68 276.881 369.83 296.791 366.07C297.747 365.886 298.737 366.027 299.604 366.468C300.472 366.91 301.167 367.628 301.581 368.51C301.855 369.095 301.999 369.733 302.001 370.38Z" fill="#501C49"/>
<path d="M334.59 454.56C333.38 422.8 325.49 381.31 367.34 370.92C379.174 367.987 388.247 366.49 394.56 366.43C402.447 366.35 421.337 367.063 451.23 368.57C465.68 369.29 495.79 374.57 497 375C512.74 380.7 523.16 384.92 527.31 387.81C532.27 391.243 536.537 397.003 540.11 405.09C544.777 415.67 547.094 423.73 547.06 429.27C547 441.4 547.7 453.87 544.75 466.06C541.64 478.8 539.75 493.97 534.54 505.54C527.79 520.47 520.09 535 507 545.43C484.78 563.04 460.15 562.92 430.46 561.57C398.31 560.12 368.89 557.92 352.69 526.22C348.024 517.093 343.397 503.313 338.81 484.88C336.367 474.945 334.952 464.785 334.59 454.56ZM361.89 379.71C326 393.86 342.32 467.15 349 497.41C354.51 522.41 364.23 541.24 390.4 548.8C405.248 553.158 420.601 555.559 436.07 555.94C472.38 556.75 502.97 551 521.37 519.02C524.204 514.093 527.717 504.55 531.91 490.39C542.63 454.39 551.81 396.09 502.43 383.84C464.964 374.586 426.228 371.572 387.78 374.92C378.33 375.71 371.47 376 361.89 379.71Z" fill="#020201"/>
<path d="M821.001 400C817.001 389 821.001 378 740.001 376C659.001 374 649.001 393 649.001 393C637.001 405 636.001 413 634.201 424.83C632.401 436.66 634.001 434 631.381 464.83C628.761 495.66 632.001 504 634.001 513C636.001 522 646.001 543 652.751 551.21C659.501 559.42 683.001 570 706.001 570C729.001 570 762.001 572 786.001 549C810.001 526 820.001 478 824.001 456C828.001 434 825.001 411 821.001 400ZM818.921 456.9C815.131 477.73 805.661 523.19 782.921 544.97C760.181 566.75 728.921 564.85 707.161 564.85C685.401 564.85 663.161 554.85 656.741 547.06C650.321 539.27 640.891 519.4 639.001 510.88C637.111 502.36 634.001 494.43 636.521 465.25C639.041 436.07 637.521 438.58 639.191 427.38C640.861 416.18 641.841 408.6 653.191 397.24C653.191 397.24 662.661 379.24 739.361 381.14C816.061 383.04 812.281 393.45 816.071 403.87C819.861 414.29 822.711 436.06 818.921 456.9Z" fill="#020201"/>
<path d="M849.701 398.52C850.652 391.415 850.652 384.215 849.701 377.11C849.121 372.31 846.141 369.19 840.761 367.75C827.887 364.29 817.887 362.274 810.761 361.7L817.001 365C817.161 365 840.291 371.12 840.451 371.22C843.657 373.22 845.201 376.22 845.081 380.22C844.811 389.12 843.501 398.65 843.001 407.97C842.901 408.77 841.361 427.08 839.001 434.97C836.591 443.03 830.611 477.6 830.611 477.6C830.611 477.6 828.001 509.97 832.531 496.6C836.781 484.01 848.211 408.46 849.531 399.41L849.591 399.03C849.681 398.7 849.701 398.52 849.701 398.52Z" fill="#020201"/>
<path d="M271.27 445.47C271.27 445.47 217.61 341.33 171.81 398.66C126.01 455.99 162.69 560.79 207 591C251.31 621.21 277 584 277 584L271.27 445.47Z" fill="#E68856"/>
<path d="M229.131 540.159C226.591 528.999 226.661 512.209 241.001 494.999C241.001 494.999 222.001 422.999 191.001 418.999C160.001 414.999 166.131 472.669 172.061 486.329C177.991 499.989 191.061 548.819 211.531 550.409C214.531 550.639 217.171 550.879 219.451 551.109C220.872 551.253 222.306 551.056 223.636 550.535C224.965 550.015 226.152 549.185 227.098 548.116C228.044 547.046 228.721 545.766 229.075 544.383C229.428 542.999 229.447 541.551 229.131 540.159Z" fill="#CE6D40"/>
<path d="M229.831 552.06C229.511 551.06 229.041 550.06 228.501 548.89C227.961 547.72 227.441 546.39 227.011 545.1C226.188 542.546 225.57 539.931 225.161 537.28C224.724 534.635 224.504 531.96 224.501 529.28C224.451 527.94 224.561 526.6 224.601 525.28C224.641 523.96 224.811 522.61 225.051 521.28C225.852 515.99 227.44 510.85 229.761 506.03C232.078 501.276 234.963 496.82 238.351 492.76L237.661 495.85C236.161 490 234.321 484.05 232.331 478.24C230.341 472.43 228.131 466.67 225.671 461.04C223.249 455.413 220.481 449.943 217.381 444.66C214.382 439.407 210.77 434.53 206.621 430.13C205.621 429.02 204.471 428.13 203.381 427.08C202.811 426.61 202.211 426.18 201.631 425.73C201.341 425.51 201.061 425.27 200.751 425.07L199.831 424.49C199.242 424.092 198.631 423.728 198.001 423.4L196.061 422.4C194.747 421.85 193.384 421.425 191.991 421.13C189.23 420.464 186.351 420.464 183.591 421.13C182.255 421.485 180.978 422.034 179.801 422.76C178.619 423.522 177.537 424.429 176.581 425.46C174.658 427.678 173.138 430.217 172.091 432.96C171.004 435.782 170.19 438.702 169.661 441.68C168.614 447.74 168.202 453.893 168.431 460.04C168.443 460.315 168.345 460.585 168.158 460.788C167.971 460.992 167.712 461.113 167.436 461.125C167.16 461.137 166.891 461.038 166.687 460.852C166.484 460.665 166.363 460.405 166.351 460.13C165.914 453.847 166.131 447.537 167.001 441.3C167.464 438.124 168.231 434.999 169.291 431.97C170.378 428.838 172.01 425.923 174.111 423.36C175.227 422.062 176.508 420.916 177.921 419.95C179.364 418.99 180.941 418.248 182.601 417.75C185.89 416.81 189.357 416.673 192.711 417.35C194.376 417.646 196.01 418.098 197.591 418.7L199.881 419.7C200.611 420.093 201.319 420.527 202.001 421L203.071 421.63C203.421 421.85 203.741 422.1 204.071 422.34C204.741 422.82 205.421 423.29 206.071 423.79C207.311 424.85 208.611 425.86 209.741 427.03C214.305 431.535 218.313 436.571 221.681 442.03C225.07 447.393 228.119 452.964 230.811 458.71C233.531 464.42 235.981 470.24 238.211 476.13C240.441 482.02 242.491 487.95 244.301 494.13C244.443 494.622 244.467 495.141 244.372 495.645C244.276 496.149 244.063 496.623 243.751 497.03L243.611 497.22C240.585 500.822 238.006 504.777 235.931 509C233.888 513.197 232.485 517.676 231.771 522.29C231.551 523.43 231.511 524.6 231.371 525.75C231.231 526.9 231.221 528.07 231.261 529.24C231.285 533.906 232.003 538.544 233.391 543C233.749 544.083 234.163 545.148 234.631 546.19C235.111 547.27 235.701 548.54 236.171 549.95C236.452 550.79 236.388 551.708 235.992 552.502C235.596 553.295 234.902 553.898 234.061 554.18C233.22 554.461 232.302 554.396 231.509 554.001C230.716 553.605 230.112 552.91 229.831 552.07V552.06Z" fill="#020201"/>
<path d="M203 532.07C201.381 528.695 199.984 525.218 198.82 521.66C197.606 518.116 196.604 514.503 195.82 510.84C194.196 503.385 193.761 495.721 194.53 488.13C194.998 484.235 195.901 480.405 197.22 476.71C197.59 475.79 197.89 474.84 198.32 473.94L199.6 471.24C200.54 469.471 201.592 467.765 202.75 466.13C203.914 464.488 205.172 462.915 206.52 461.42C207.936 459.965 209.432 458.59 211 457.3C214.066 454.748 217.383 452.513 220.9 450.63C222.022 449.995 223.35 449.831 224.593 450.175C225.835 450.52 226.89 451.343 227.525 452.465C228.16 453.587 228.324 454.915 227.98 456.158C227.635 457.4 226.812 458.455 225.69 459.09C225.594 459.151 225.494 459.205 225.39 459.25L225.14 459.37C222.09 460.711 219.185 462.36 216.47 464.29C215.126 465.247 213.838 466.278 212.61 467.38C211.418 468.517 210.293 469.723 209.24 470.99C208.182 472.26 207.207 473.596 206.32 474.99L205.08 477.16C204.66 477.88 204.36 478.66 203.98 479.41C202.598 482.516 201.565 485.766 200.9 489.1C199.666 496.036 199.541 503.125 200.53 510.1C200.988 513.643 201.656 517.156 202.53 520.62C203.387 524.094 204.463 527.511 205.75 530.85V530.9C205.885 531.259 205.877 531.655 205.729 532.009C205.581 532.362 205.303 532.645 204.952 532.8C204.601 532.955 204.205 532.97 203.844 532.841C203.483 532.713 203.184 532.451 203.01 532.11L203 532.07Z" fill="#020201"/>
<path d="M271.27 445.47C271.27 445.47 244.83 394.16 213.27 383.4C199.85 378.83 185.5 381.57 171.85 398.66C126 456 162.69 560.79 207 591C251.31 621.21 277 584 277 584" stroke="black" stroke-width="7" stroke-linecap="round" stroke-linejoin="round"/>
<path d="M354.13 336.87C353.787 336.897 353.443 336.835 353.13 336.69C352.828 336.539 352.568 336.315 352.376 336.037C352.183 335.759 352.064 335.436 352.03 335.1C352.003 334.757 352.065 334.412 352.21 334.1C365.797 305.173 387.464 287.487 417.21 281.04C427.164 278.88 440.69 278.3 457.79 279.3C478.48 280.53 502.39 287.67 515.24 304.2C523.24 314.53 530.36 328.5 526.71 340.57C526.326 341.847 525.453 342.921 524.28 343.558C523.108 344.195 521.731 344.343 520.45 343.97C491.976 335.621 462.631 330.598 433 329C420.9 328.333 404.567 329.137 384 331.41C376.23 332.26 363.28 336.2 354.13 336.87Z" fill="#201116" stroke="black" stroke-width="7" stroke-miterlimit="10"/>
<path d="M793.63 348.43L789.45 348.13C789.364 348.131 789.278 348.11 789.2 348.07C772 342.01 755.794 338.757 740.58 338.31C730.4 337.99 716.087 339.053 697.64 341.5C683.397 343.359 669.422 346.883 656 352C655.099 352.343 654.102 352.34 653.202 351.991C652.303 351.642 651.565 350.972 651.13 350.11C650.839 349.541 650.692 348.909 650.7 348.27C651.16 328.643 659.714 313.527 676.36 302.92C694 291.73 722.94 288.54 742 292.4C770.4 298.18 790.84 316.72 796.26 345.4C796.332 345.782 796.315 346.175 796.211 346.55C796.107 346.924 795.918 347.27 795.66 347.56C795.409 347.852 795.09 348.079 794.73 348.22C794.384 348.372 794.008 348.443 793.63 348.43Z" fill="#201116" stroke="black" stroke-width="7" stroke-miterlimit="10"/>
<path d="M510.881 458.63C504.221 425.48 482.271 406.87 449.691 404.63C428.231 403.16 408.301 407.07 391.581 421.16C376.171 434.16 375.121 451.51 372.771 470.3C369.711 461.593 368.887 450.863 370.301 438.11C373.714 407.23 390.614 390.527 421.001 388C446.231 385.89 482.331 392 499.921 411.27C510.354 422.69 514.537 437.657 512.471 456.17C512.231 458.477 511.701 459.297 510.881 458.63Z" fill="#020201"/>
<path d="M510.881 458.63C509.731 469.43 508.881 481.54 504.761 491.05C494.921 514.043 477.277 528.257 451.831 533.69C433.831 537.54 415.431 531.13 400.831 521.07C384.277 509.69 374.924 492.78 372.771 470.34C375.121 451.55 376.171 434.18 391.581 421.2C408.301 407.11 428.231 403.2 449.691 404.67C482.271 406.87 504.221 425.48 510.881 458.63ZM435.931 407.24C425.241 407.05 414.931 412.29 407.161 421.82C399.391 431.35 395.001 444.36 394.721 458C394.592 464.689 395.513 471.356 397.451 477.76C399.256 483.827 402.113 489.53 405.891 494.61C409.34 499.269 413.732 503.15 418.781 506C423.477 508.63 428.749 510.066 434.131 510.18C444.821 510.37 455.131 505.12 462.901 495.6C470.671 486.08 475.101 473.06 475.341 459.41C475.468 452.725 474.55 446.061 472.621 439.66C470.808 433.591 467.948 427.885 464.171 422.8C460.72 418.145 456.332 414.266 451.291 411.41C446.589 408.783 441.315 407.351 435.931 407.24Z" fill="#FDFAE9"/>
<path d="M435.931 407.239C441.317 407.352 446.593 408.791 451.291 411.429C456.334 414.278 460.722 418.155 464.171 422.809C467.948 427.894 470.808 433.6 472.621 439.669C474.55 446.071 475.468 452.735 475.341 459.419C475.101 473.069 470.631 486.089 462.901 495.609C455.171 505.129 444.831 510.379 434.131 510.199C428.748 510.073 423.478 508.631 418.781 505.999C413.733 503.152 409.344 499.271 405.901 494.609C402.116 489.533 399.255 483.829 397.451 477.759C395.514 471.356 394.592 464.688 394.721 457.999C394.961 444.349 399.441 431.329 407.171 421.809C414.901 412.289 425.241 407.049 435.931 407.239ZM456.801 430.079C455.793 430.087 454.8 430.316 453.891 430.749C452.955 431.191 452.118 431.816 451.431 432.589C450.721 433.397 450.168 434.329 449.801 435.339C449.428 436.375 449.239 437.468 449.241 438.569C449.246 440.762 450.057 442.876 451.521 444.509C452.199 445.272 453.03 445.883 453.961 446.302C454.892 446.72 455.9 446.938 456.921 446.939C457.927 446.935 458.921 446.71 459.831 446.279C460.766 445.837 461.603 445.212 462.291 444.439C463 443.632 463.553 442.699 463.921 441.689C464.304 440.656 464.493 439.561 464.481 438.459C464.482 436.265 463.67 434.149 462.201 432.519C461.524 431.754 460.693 431.141 459.762 430.721C458.831 430.3 457.822 430.082 456.801 430.079Z" fill="#020201"/>
<path d="M464.48 438.46C464.48 433.8 461.01 430.05 456.8 430.08C452.59 430.11 449.21 433.91 449.24 438.57C449.27 443.23 452.71 446.97 456.92 446.94C461.13 446.91 464.51 443.12 464.48 438.46Z" fill="#FDFAE9"/>
<path d="M764.481 484.4C765.907 470.154 765.977 459.074 764.691 451.16C762.024 434.78 752.651 422.394 736.571 414C735.124 413.25 733.551 412.772 731.931 412.59C712.384 410.364 696.891 411.167 685.451 415C667.537 421 655.051 435.604 647.991 458.81C649.557 423.077 667.401 403.334 701.521 399.58C712.854 398.34 722.037 398.36 729.071 399.64C750.841 403.59 769.001 419.09 772.821 441.76C775.194 455.82 772.414 470.034 764.481 484.4Z" fill="#020201"/>
<path d="M764.481 484.4C761.734 493.494 759.104 499.887 756.591 503.58C729.071 544.13 665.241 556.42 650.251 495C647.057 481.887 646.304 469.824 647.991 458.81C655.051 435.604 667.537 421 685.451 415C696.891 411.16 712.384 410.357 731.931 412.59C734.376 413.105 736.75 413.914 739.001 415C755.061 423.39 762.001 434.78 764.691 451.16C765.984 459.054 765.914 470.134 764.481 484.4ZM689.661 419C680.721 419.38 672.351 424.65 666.391 433.66C660.431 442.67 657.391 454.66 657.891 467.04C658.135 473.083 659.253 479.058 661.211 484.78C663.013 490.128 665.697 495.137 669.151 499.6C672.214 503.586 676.09 506.875 680.521 509.25C684.533 511.375 689.033 512.41 693.571 512.25C702.521 511.87 710.891 506.6 716.841 497.59C722.791 488.58 725.841 476.59 725.341 464.21C725.083 458.184 723.958 452.226 722.001 446.52C720.195 441.172 717.508 436.163 714.051 431.7C710.993 427.713 707.12 424.423 702.691 422.05C698.688 419.914 694.196 418.863 689.661 419Z" fill="#FDFAE9"/>
<path d="M689.67 419C694.208 418.843 698.707 419.878 702.72 422C707.15 424.373 711.023 427.662 714.08 431.65C717.534 436.128 720.211 441.155 722 446.52C723.957 452.242 725.072 458.217 725.31 464.26C725.83 476.62 722.78 488.64 716.82 497.64C710.86 506.64 702.49 511.92 693.55 512.3C689.01 512.458 684.507 511.424 680.49 509.3C676.061 506.927 672.188 503.637 669.13 499.65C665.673 495.187 662.986 490.178 661.18 484.83C659.227 479.111 658.112 473.139 657.87 467.1C657.35 454.73 660.41 442.72 666.36 433.71C672.31 424.7 680.72 419.42 689.67 419ZM715.83 443.83C715.866 442.862 715.707 441.898 715.362 440.993C715.016 440.089 714.492 439.263 713.821 438.566C713.149 437.869 712.344 437.314 711.453 436.936C710.562 436.557 709.604 436.362 708.635 436.362C707.667 436.362 706.709 436.557 705.818 436.936C704.927 437.314 704.122 437.869 703.45 438.566C702.779 439.263 702.254 440.089 701.909 440.993C701.564 441.898 701.404 442.862 701.44 443.83C701.437 444.777 701.624 445.716 701.99 446.59C702.352 447.459 702.878 448.25 703.54 448.92C704.547 449.926 705.83 450.612 707.226 450.889C708.623 451.167 710.07 451.024 711.385 450.48C712.701 449.935 713.825 449.012 714.616 447.829C715.407 446.645 715.83 445.254 715.83 443.83Z" fill="#020201"/>
<path d="M708.631 451.07C710.055 451.07 711.447 450.648 712.631 449.856C713.815 449.065 714.738 447.941 715.283 446.625C715.828 445.31 715.97 443.862 715.692 442.465C715.415 441.069 714.729 439.786 713.722 438.779C712.715 437.772 711.432 437.086 710.035 436.808C708.639 436.53 707.191 436.673 705.875 437.218C704.56 437.763 703.435 438.686 702.644 439.87C701.853 441.054 701.431 442.446 701.431 443.87C701.431 445.779 702.189 447.611 703.539 448.961C704.89 450.311 706.721 451.07 708.631 451.07Z" fill="#FDFAE9"/>
</svg>
