<svg width="1000" height="1202" viewBox="0 0 1000 1202" fill="none" xmlns="http://www.w3.org/2000/svg">
<path d="M826 559C820.17 559 812.5 555.76 809.08 540.32C807.25 532.04 807.19 522.89 807.19 518.63C806.47 518.14 803.45 516.63 793.59 516.63C787.739 516.68 781.895 517.074 776.09 517.81L771.09 518.48L769.37 437.84L776.09 441.3C779.051 442.484 782.223 443.049 785.41 442.96C789.306 442.913 793.17 442.251 796.86 441C802.19 439.25 805.42 431.89 809.17 423.36C813.66 413.14 818.75 401.55 829.66 395.21C836.09 391.47 842.29 389.58 848.08 389.58C855.33 389.58 872.54 393.07 875.5 425.42C878.17 454.49 869.4 533.1 840.29 553.42C835 557.15 830.31 559 826 559Z" fill="#3B51AE"/>
<path d="M848.08 394.07C859.85 394.07 868.99 403.68 871.02 425.82C873.92 457.41 863.78 531.53 837.72 549.76C832.99 553.06 829.12 554.45 825.96 554.45C811.65 554.45 811.65 526.13 811.65 518.17C811.65 513.31 802.65 512.09 793.55 512.09C787.498 512.143 781.454 512.551 775.45 513.31L774 445.31C774 445.31 778.19 447.47 785.38 447.47C789.761 447.438 794.109 446.709 798.26 445.31C813.1 440.45 813.1 410.08 831.92 399.14C837.55 395.87 843.05 394.14 848.08 394.14M848.08 385.14C841.48 385.14 834.53 387.24 827.4 391.38C815.22 398.45 809.58 411.3 805.05 421.61C802.05 428.52 798.87 435.61 795.46 436.78C792.212 437.88 788.809 438.457 785.38 438.49C782.879 438.553 780.389 438.142 778.04 437.28L764.31 429.42L765 445.52L766.45 513.57L766.66 523.64L776.66 522.3C782.267 521.596 787.91 521.215 793.56 521.16C796.615 521.094 799.669 521.321 802.68 521.84C802.716 528.379 803.386 534.899 804.68 541.31C808.96 560.63 819.87 563.52 825.99 563.52C831.29 563.52 836.83 561.45 842.9 557.2C859.9 545.29 869.25 516.69 874.05 494.8C879.26 471.04 881.66 443.01 880.05 425.07C876.75 389.07 856.64 385.14 848.15 385.14H848.08Z" fill="#020201"/>
<path d="M854.931 475.546C858.252 443.625 853.864 417.011 845.13 416.102C836.396 415.193 826.623 440.334 823.302 472.255C819.98 504.176 824.369 530.789 833.103 531.698C841.837 532.607 851.61 507.467 854.931 475.546Z" fill="#294089"/>
<path d="M579 820C575.72 820.44 597.39 818.55 596 821C590.08 822.62 585.41 826.5 567.73 829.43C556.96 831.171 546.039 831.798 535.14 831.3C514.92 830.45 497.75 828.3 478.6 820.23C452.939 809.398 428.348 796.187 405.15 780.77C400.15 777.437 395.351 773.811 390.78 769.91C377.967 758.95 368.04 749.98 361 743C341.89 724.07 327.42 699.27 316 672C320.25 677.86 323.56 685.52 327.48 691.52C341.865 713.028 359.393 732.259 379.48 748.57C407.57 771.06 442.97 787.16 476.87 803C500.14 813.88 510.16 815.06 538.38 816C553.15 816.5 572.85 820 579 820Z" fill="#020201"/>
<path d="M571.58 829H571.39C479.25 821.54 406.8 790.7 356 737.36C313.35 692.54 296.9 642.24 290.89 616.24C285.11 591 278 565.65 269.2 538.64L261.69 515.55L261.08 513.67C239.35 446.74 227.69 409.82 226.4 404C223.49 390.65 224.21 338.42 224.25 336.2V336.09C226.48 279.14 237.71 228.81 257.61 186.5C274.26 151.09 297.2 120.82 325.78 96.5C349.617 76.4497 376.662 60.5604 405.78 49.5C457.47 29.5 501.61 28.5 509.94 28.5H510.78C511.54 28.45 514.39 28.29 518.96 28.29C543.57 28.29 607.37 32.57 668.04 72.18C702.78 94.85 730.9 125.63 751.61 163.67C776.61 209.58 791.01 266.54 794.4 332.94C794.83 341.48 793.51 355.94 791.88 372.66L791.18 379.83C788.52 406.69 785.18 440.13 785.39 470.31C785.61 508.47 776.33 569.48 770.78 602.46C768.65 615.04 767.13 623.16 767.12 623.24V623.42L767.07 623.6C754.36 669.98 736.45 709.6 713.82 741.35C695.55 766.98 674.17 787.59 650.28 802.61C608.74 828.74 573.28 829.04 571.84 829.04L571.58 829Z" fill="#8178DD"/>
<path d="M519 32.7998C563.28 32.7998 775.4 47.7298 789.94 333.17C790.35 341.17 789.12 355.1 787.44 372.22C784.69 400.38 780.74 437.17 780.93 470.34C781.15 508.49 771.74 569.85 766.38 601.71C764.24 614.4 762.74 622.41 762.74 622.41C707.69 823.28 575.16 824.54 571.84 824.54H571.78C361 807.42 308.13 670.67 295.31 615.23C289.23 588.88 281.84 562.9 273.48 537.23C270.89 529.23 268.15 520.85 265.36 512.23C249.63 463.83 232.32 410 230.8 403C227.96 390 228.75 336.23 228.75 336.23C231.12 275.65 243.43 227.17 261.68 188.38C333.21 36.2798 496 32.9998 510 32.9998H511C511 32.9998 513.89 32.7998 519.07 32.7998M519.07 23.7998C514.69 23.7998 511.8 23.9398 510.77 23.9998H510C501.53 23.9998 456.65 24.9998 404.22 45.2598C374.625 56.5231 347.137 72.6891 322.91 93.0798C293.83 117.78 270.51 148.56 253.57 184.56C233.42 227.42 222.05 278.33 219.79 335.89V336.11C219.71 341.72 219.07 391.31 222.05 404.93C223.36 410.93 235.05 448 256.84 515.07L258.16 519.14C260.5 526.32 262.78 533.35 264.96 540.05C273.72 566.92 280.79 592.18 286.58 617.26C291.053 636.449 297.633 655.086 306.2 672.83C318.118 697.669 333.848 720.492 352.82 740.47C376.34 765.19 404.9 785.41 437.7 800.59C476.12 818.37 521 829.45 571 833.51H571.36H571.79C575.65 833.51 610.72 832.75 652.63 806.39C677.02 791.05 698.82 770.04 717.43 743.93C740.37 711.75 758.51 671.65 771.37 624.76L771.46 624.4L771.53 624.04C771.53 623.96 773.08 615.8 775.2 603.18C780.78 570.06 790.1 508.77 789.88 470.26C789.71 440.26 793 406.97 795.65 380.2C795.89 377.773 796.123 375.396 796.35 373.07C798 356.2 799.35 341.52 798.88 332.68C795.46 265.6 780.88 208 755.56 161.49C734.49 122.8 705.87 91.4898 670.5 68.3798C608.84 28.1398 544 23.7998 519 23.7998H519.07Z" fill="#020201"/>
<path d="M261.68 487C245.95 438.55 232.32 410 230.8 403C227.96 390 228.75 336.23 228.75 336.23C231.12 275.65 243.43 227.17 261.68 188.38C254.07 218.25 241.3 299.57 272.08 446.94C272.08 495 275.38 496.28 261.68 487Z" fill="#3B51AE"/>
<path d="M371.22 434.58C376.04 406.98 394.11 388.51 420.58 379.3C442.146 371.78 463.12 374.993 483.5 388.94C494.859 396.585 504.414 406.614 511.5 418.33C518.166 429.41 521.5 442.32 521.5 457.06C521.5 481.47 513.69 510.62 492.28 523.54C475.86 533.44 457.243 537.193 436.43 534.8C415.74 532.4 401.97 520.37 389.07 504.05C372.683 483.35 366.733 460.193 371.22 434.58ZM454.94 411.45C454.367 413.013 454.185 414.691 454.41 416.34C454.651 418.114 455.26 419.817 456.2 421.34C457.221 422.982 458.521 424.434 460.04 425.63C461.637 426.903 463.426 427.916 465.34 428.63C469.077 430.049 473.18 430.179 477 429C478.654 428.517 480.176 427.662 481.45 426.501C482.724 425.339 483.716 423.903 484.35 422.3C484.922 420.738 485.104 419.059 484.88 417.41C484.647 415.635 484.036 413.93 483.09 412.41C482.075 410.764 480.778 409.308 479.26 408.11C477.662 406.837 475.874 405.824 473.96 405.11C470.224 403.677 466.115 403.536 462.29 404.71C460.633 405.201 459.11 406.063 457.836 407.231C456.563 408.399 455.572 409.842 454.94 411.45Z" fill="#030201"/>
<path d="M474 405.15C465.88 402.15 457.36 404.98 455 411.45C452.64 417.92 457.28 425.58 465.4 428.57C473.52 431.56 489.68 435.47 492.06 429C494.44 422.53 482.08 408.14 474 405.15Z" fill="white"/>
<path d="M666.59 540C645.13 535.71 629.21 527.4 619.5 506.26C610.82 487.37 608.72 464.83 612.17 445.26C615.89 424 627.487 407.073 646.96 394.48C660.127 386.973 675.263 384.027 692.37 385.64C721.02 388.34 734.9 402.69 748.55 427.02C753.303 435.48 755.557 445.503 755.31 457.09C754.79 481.943 744.683 502.773 724.99 519.58C708.423 533.72 688.957 540.527 666.59 540Z" fill="#030201"/>
<path d="M696.39 407.82C689.39 403.94 680.96 405.65 677.68 411.61C674.4 417.57 677.47 425.56 684.53 429.43C691.59 433.3 708.82 439.8 712.09 433.83C715.36 427.86 703.45 411.69 696.39 407.82Z" fill="white"/>
<path d="M470.88 646.109C473.64 640.569 477.074 636.453 481.18 633.759C481.806 633.361 482.54 633.169 483.28 633.209C484.029 633.245 484.748 633.51 485.34 633.969C485.956 634.446 486.425 635.087 486.69 635.819C486.961 636.555 487.02 637.352 486.86 638.119C486.537 639.73 486.49 641.383 486.72 643.009C486.851 643.981 487.301 644.882 488 645.569C500.834 658.029 514.424 666.126 528.77 669.859C551.77 675.859 581.77 676.619 604.67 666.939C616.583 662.056 627.594 655.215 637.25 646.699C637.503 646.422 637.812 646.201 638.157 646.053C638.502 645.904 638.875 645.832 639.25 645.839C639.684 645.891 640.097 646.053 640.45 646.309C640.827 646.57 641.142 646.912 641.37 647.309C641.622 647.722 641.788 648.181 641.86 648.659C641.95 649.149 641.95 649.65 641.86 650.139C641.164 653.584 639.417 656.728 636.86 659.139C617.48 677.979 587.6 685.649 560.61 685.139C539.88 684.739 520.67 682.289 503.7 672.249C500.367 670.289 489.657 662.429 471.57 648.669C471.185 648.39 470.912 647.982 470.8 647.519C470.659 647.055 470.687 646.555 470.88 646.109Z" fill="#040402"/>
<path d="M369.85 358.79C369.254 358.972 368.623 359.01 368.009 358.9C367.395 358.791 366.817 358.537 366.32 358.16C365.827 357.78 365.43 357.291 365.16 356.73C364.891 356.166 364.761 355.545 364.78 354.92C365.53 329.24 391.91 309.03 414.57 302.14C441.117 294.04 466.703 296.204 491.33 308.63C506.43 316.24 516.91 330.82 514.33 348.33C513.23 355.744 508.71 358.117 500.77 355.45C482.77 349.45 473.25 345.51 458.9 343.52C434.562 339.944 409.709 343.155 387.08 352.8C381.4 355.2 374.42 357.37 369.85 358.79Z" fill="#09040A"/>
<path d="M765.17 362.13C763.31 363.464 760.913 363.664 757.98 362.73C721.52 351.18 685.21 341.22 648.21 355.47C645.204 356.503 642.022 356.928 638.85 356.72C619.18 356.09 628.85 335.43 635.68 327.52C651.8 308.774 670.907 299.234 693 298.9C731.51 298.3 761 320.68 766.19 359.74C766.251 360.192 766.189 360.651 766.01 361.07C765.833 361.494 765.542 361.861 765.17 362.13Z" fill="#09040A"/>
<path d="M166.57 566.72C137.16 566.72 113.47 490.98 113.47 428.28C113.47 375.92 136.07 357.34 155.42 357.34C159.967 357.393 164.455 358.374 168.609 360.223C172.763 362.071 176.496 364.748 179.58 368.09C194.53 384.09 232.81 421.38 265.33 423.79C276.05 424.59 284.24 428.53 289.67 435.53C298.72 447.19 296.54 463.14 296.2 465.3C293.34 497.38 273.57 498.98 230.36 502.49C207.92 504.3 203.84 516.3 198.68 531.49C194.59 543.49 189.97 557.08 174.68 564.76C172.174 566.052 169.399 566.737 166.58 566.76L166.57 566.72Z" fill="#8178DD"/>
<path d="M155.42 361.84C159.353 361.887 163.235 362.739 166.826 364.343C170.417 365.948 173.641 368.271 176.3 371.17C194.52 390.61 232.19 425.85 265 428.28C297.81 430.71 291.73 464.73 291.73 464.73C289.3 492.68 275 494.35 230 498C185 501.65 204 545 172.65 560.72C170.771 561.695 168.687 562.209 166.57 562.22C142.17 562.22 117.97 492.22 117.97 428.28C117.97 380.01 137.45 361.84 155.42 361.84ZM155.42 352.84C142.47 352.84 130.77 359.62 122.49 371.94C113.49 385.27 108.97 404.22 108.97 428.28C108.97 460.1 114.69 494.35 124.64 522.28C132.64 544.62 146.36 571.28 166.57 571.28C170.089 571.27 173.556 570.43 176.69 568.83C193.63 560.33 198.79 545.17 202.94 532.99C207.94 518.31 211.23 508.61 230.73 506.99C255.35 504.99 269.8 503.62 280.57 498.68C296.33 491.44 299.62 477.41 300.66 465.89C301.21 462.46 303.22 445.67 293.22 432.79C286.98 424.79 277.71 420.22 265.66 419.32C234.72 417.03 197.45 380.59 182.86 365.04C179.357 361.247 175.116 358.211 170.398 356.116C165.679 354.022 160.582 352.914 155.42 352.86V352.84Z" fill="#020201"/>
<path d="M127.2 458.63C131.37 500.36 152.4 550.42 164.75 549.18C177.1 547.94 176.11 495.88 171.94 454.18C167.77 412.48 157.67 373 145.31 374.21C132.95 375.42 123 416.89 127.2 458.63Z" fill="#3B51AE"/>
<path d="M178.611 421.249C178.611 421.249 186 465 182.726 496.342" stroke="black" stroke-width="7" stroke-linecap="round" stroke-linejoin="round"/>
<path d="M555.59 589.86C555.636 591.438 555.365 593.009 554.793 594.48C554.221 595.951 553.359 597.293 552.259 598.425C551.159 599.557 549.844 600.457 548.39 601.072C546.936 601.687 545.373 602.003 543.795 602.003C542.216 602.003 540.654 601.687 539.2 601.072C537.746 600.457 536.43 599.557 535.33 598.425C534.231 597.293 533.369 595.951 532.797 594.48C532.225 593.009 531.954 591.438 532 589.86C532 583.35 537.28 562.34 543.79 562.34C550.3 562.34 555.59 583.35 555.59 589.86Z" fill="#09040A"/>
<path d="M589 589.86C589.046 591.438 588.775 593.009 588.203 594.48C587.63 595.951 586.769 597.293 585.669 598.425C584.569 599.557 583.254 600.457 581.8 601.072C580.346 601.687 578.783 602.003 577.205 602.003C575.626 602.003 574.064 601.687 572.61 601.072C571.156 600.457 569.84 599.557 568.74 598.425C567.641 597.293 566.779 595.951 566.207 594.48C565.635 593.009 565.364 591.438 565.41 589.86C565.41 583.35 570.69 562.34 577.21 562.34C583.73 562.34 589 583.35 589 589.86Z" fill="#09040A"/>
</svg>
