<svg width="1000" height="1000" viewBox="0 0 1000 1000" fill="none" xmlns="http://www.w3.org/2000/svg">
<path d="M617.838 348.694C615.722 348.694 612.937 347.514 611.696 341.888C611.032 338.87 611.01 335.536 611.01 333.984C610.749 333.805 609.652 333.255 606.073 333.255C603.949 333.273 601.828 333.417 599.721 333.685L597.906 333.929L597.281 304.545L599.721 305.805C600.795 306.237 601.947 306.443 603.104 306.41C604.518 306.393 605.921 306.152 607.26 305.696C609.195 305.058 610.367 302.376 611.729 299.268C613.359 295.544 615.206 291.321 619.167 289.011C621.501 287.648 623.751 286.959 625.853 286.959C628.485 286.959 634.732 288.231 635.806 300.019C636.776 310.612 633.592 339.257 623.025 346.661C621.105 348.02 619.402 348.694 617.838 348.694Z" fill="#3B51AE"/>
<path d="M625.853 288.596C630.125 288.596 633.443 292.098 634.18 300.165C635.233 311.676 631.552 338.685 622.092 345.328C620.375 346.531 618.97 347.037 617.823 347.037C612.629 347.037 612.629 336.718 612.629 333.817C612.629 332.046 609.362 331.601 606.058 331.601C603.862 331.621 601.668 331.769 599.488 332.046L598.962 307.267C598.962 307.267 600.483 308.054 603.093 308.054C604.683 308.043 606.261 307.777 607.768 307.267C613.155 305.496 613.155 294.43 619.987 290.443C622.03 289.252 624.027 288.621 625.853 288.621M625.853 285.342C623.457 285.342 620.934 286.107 618.346 287.616C613.925 290.192 611.877 294.874 610.233 298.631C609.144 301.149 607.99 303.733 606.752 304.159C605.573 304.56 604.338 304.77 603.093 304.782C602.185 304.805 601.281 304.656 600.428 304.341L595.444 301.477L595.695 307.344L596.221 332.141L596.297 335.81L599.927 335.322C601.963 335.065 604.011 334.927 606.062 334.906C607.171 334.882 608.28 334.965 609.373 335.154C609.386 337.537 609.629 339.913 610.099 342.249C611.652 349.289 615.613 350.342 617.834 350.342C619.758 350.342 621.769 349.588 623.973 348.039C630.144 343.699 633.538 333.278 635.28 325.301C637.171 316.643 638.042 306.429 637.458 299.892C636.26 286.774 628.96 285.342 625.878 285.342H625.853Z" fill="#020201"/>
<path d="M628.34 318.284C629.545 306.653 627.952 296.955 624.782 296.624C621.611 296.293 618.064 305.454 616.858 317.085C615.653 328.717 617.246 338.415 620.416 338.746C623.587 339.077 627.134 329.916 628.34 318.284Z" fill="#294089"/>
<path d="M497.064 560.953C493.211 560.955 489.37 560.525 485.612 559.67C472.613 556.704 461.675 551.289 449.039 541.538C446.016 539.199 445.791 536.641 446.135 534.902C447.275 529.036 448.731 462.534 448.789 455.013C448.807 452.739 448.811 446.934 448.789 440.896C448.789 434.111 448.731 427.458 448.676 422.64C448.626 418.417 448.564 415.717 448.499 414.369L448.346 411.377L450.938 412.86C451.337 413.09 452.953 413.877 454.666 414.707C461.436 417.987 464.594 419.601 465.414 420.388C466.561 421.325 475.233 424.072 478.94 425.242C482.45 426.335 482.933 426.521 483.274 426.725C486.025 428.405 488.984 429.659 492.12 430.985C494.48 431.983 496.923 433.018 499.504 434.319C503.638 436.403 505.617 437.333 506.401 437.333C506.69 437.311 506.975 437.254 507.25 437.161C508.23 436.899 509.715 436.498 512.917 436.498C514.209 436.498 515.704 436.564 517.356 436.695C520.529 436.728 522.1 438.787 523.251 440.295C524.238 441.585 524.703 442.117 525.484 442.117C525.844 442.105 526.2 442.031 526.536 441.898L528.761 441.1L528.722 443.473C528.722 444.325 528.722 445.582 528.747 447.011C528.823 450.487 529.012 454.74 529.266 458.671C529.433 461.284 529.629 472.588 529.872 485.68C530.235 505.223 530.754 534.731 531.302 537.147C532.232 539.997 531.665 542.781 529.698 545.2C521.494 555.246 512.521 560.067 500.596 560.829C499.417 560.913 498.23 560.953 497.064 560.953Z" fill="#8178DD"/>
<path d="M450.132 414.285C451.526 415.083 463.153 420.48 464.289 421.573C465.926 423.169 481.713 427.702 482.439 428.132C487.347 431.135 492.755 432.749 498.774 435.785C503.78 438.306 505.308 438.973 506.397 438.973C507.638 438.973 508.368 438.139 512.909 438.139C514.089 438.139 515.519 438.193 517.265 438.335H517.291C521.788 438.335 521.944 443.75 525.462 443.75C526.018 443.742 526.568 443.636 527.088 443.437C527.088 444.289 527.088 445.532 527.113 447.041C527.182 450.167 527.357 454.441 527.636 458.785C528.079 465.708 528.783 534.728 529.741 537.64C530.516 539.981 530.08 542.158 528.435 544.169C521.385 552.802 513.301 558.381 500.484 559.201C499.334 559.278 498.192 559.316 497.057 559.314C493.326 559.319 489.606 558.902 485.967 558.071C471.97 554.879 461.116 548.79 450.03 540.238C448.131 538.78 447.365 537.109 447.732 535.224C448.934 529.051 450.368 461.492 450.419 455.028C450.437 452.907 450.44 447.318 450.419 440.893C450.419 434.808 450.368 427.972 450.306 422.623C450.259 418.833 450.201 415.787 450.125 414.285M446.556 408.455L446.861 414.438C446.93 415.761 446.988 418.447 447.039 422.648C447.115 429.207 447.141 436.881 447.152 440.868C447.17 446.939 447.152 452.736 447.152 454.966C447.094 462.276 445.623 528.938 444.527 534.56C444.164 536.346 444.164 539.804 448.037 542.803C460.877 552.704 471.995 558.217 485.249 561.238C489.124 562.12 493.086 562.564 497.061 562.56C498.258 562.56 499.485 562.52 500.691 562.44C507.344 562.014 513.083 560.378 518.231 557.43C522.79 554.824 526.834 551.257 530.936 546.217C533.259 543.371 533.927 540.096 532.867 536.743C532.34 533.522 531.825 504.735 531.48 485.63C531.233 471.983 531.041 461.215 530.87 458.555C530.62 454.638 530.431 450.408 530.355 446.95C530.322 445.547 530.315 444.311 530.329 443.473L530.409 438.736L525.999 440.35C525.855 440.406 525.705 440.445 525.552 440.467C525.189 440.106 524.858 439.715 524.561 439.297C523.364 437.727 521.363 435.107 517.439 435.056C515.766 434.925 514.249 434.859 512.927 434.859C509.511 434.859 507.903 435.293 506.84 435.588L506.408 435.697C505.591 435.551 502.259 433.875 500.255 432.862C497.623 431.536 495.173 430.49 492.774 429.484C489.695 428.18 486.788 426.933 484.152 425.337C483.637 425.028 483.139 424.86 479.466 423.698C476.319 422.699 468.017 420.072 466.452 419.103C465.458 418.232 463.116 416.996 455.414 413.25C453.878 412.503 452.147 411.658 451.784 411.454L446.564 408.455H446.556Z" fill="#020201"/>
<path d="M527.636 458.785C522.797 460.324 517.756 461.125 512.68 461.161C498.215 461.227 483.492 458.381 470.721 452.288C464.349 449.249 458.566 446.227 453.37 443.222C452.321 442.536 451.335 441.757 450.426 440.894C450.426 434.808 450.194 419.635 450.132 414.293C461.69 420.633 471.632 436.765 484.791 440.996C495.87 444.552 504.219 447.445 516.782 447.682C520.238 447.77 523.695 447.556 527.113 447.041C527.182 450.167 527.356 454.442 527.636 458.785Z" fill="#3B51AE"/>
<path d="M528.177 443.801C526.986 443.962 534.853 443.273 534.348 444.166C532.199 444.756 530.504 446.17 524.086 447.237C520.176 447.872 516.212 448.1 512.256 447.919C504.916 447.609 498.683 446.826 491.732 443.885C482.417 439.938 473.49 435.124 465.069 429.506C463.254 428.292 461.512 426.97 459.853 425.549C455.202 421.555 451.599 418.286 449.043 415.743C442.106 408.845 436.853 399.808 432.708 389.871C434.251 392.006 435.452 394.798 436.875 396.984C442.097 404.822 448.46 411.829 455.751 417.773C465.948 425.968 478.798 431.835 491.104 437.607C499.551 441.571 503.188 442.001 513.432 442.344C518.793 442.526 525.945 443.801 528.177 443.801Z" fill="#020201"/>
<path d="M525.483 447.081H525.415C491.968 444.363 465.668 433.125 447.228 413.689C431.746 397.356 425.775 379.027 423.593 369.553C421.495 360.356 418.914 351.119 415.72 341.276L412.993 332.863L412.772 332.178C404.884 307.789 400.651 294.335 400.183 292.215C399.127 287.35 399.388 268.318 399.403 267.509V267.469C400.212 246.716 404.289 228.377 411.512 212.959C417.556 200.056 425.884 189.026 436.258 180.164C444.911 172.858 454.728 167.068 465.298 163.037C484.062 155.75 500.084 155.385 503.108 155.385H503.413C503.689 155.367 504.724 155.309 506.382 155.309C515.316 155.309 538.475 156.868 560.498 171.302C573.109 179.563 583.317 190.779 590.834 204.64C599.909 221.369 605.137 242.125 606.367 266.321C606.523 269.433 606.044 274.702 605.452 280.795L605.198 283.407C604.233 293.195 603.02 305.38 603.097 316.377C603.176 330.283 599.808 352.514 597.793 364.532C597.02 369.116 596.468 372.075 596.465 372.104V372.17L596.446 372.235C591.833 389.136 585.331 403.573 577.117 415.142C570.485 424.482 562.724 431.992 554.052 437.465C538.973 446.987 526.101 447.096 525.578 447.096L525.483 447.081Z" fill="#8178DD"/>
<path d="M506.397 156.951C522.471 156.951 599.47 162.392 604.748 266.404C604.897 269.319 604.451 274.395 603.841 280.634C602.843 290.895 601.409 304.301 601.478 316.388C601.557 330.289 598.142 352.648 596.196 364.258C595.419 368.882 594.875 371.801 594.875 371.801C574.892 444.997 526.783 445.456 525.578 445.456H525.556C449.043 439.217 429.851 389.387 425.198 369.185C422.991 359.583 420.308 350.116 417.273 340.762C416.333 337.847 415.338 334.793 414.326 331.652C408.616 314.016 402.332 294.4 401.78 291.85C400.75 287.112 401.036 267.519 401.036 267.519C401.897 245.444 406.365 227.778 412.99 213.644C438.955 158.219 498.048 157.024 503.13 157.024H503.493C503.493 157.024 504.542 156.951 506.422 156.951M506.422 153.672C504.833 153.672 503.783 153.723 503.41 153.745H503.13C500.055 153.745 483.764 154.109 464.732 161.492C453.989 165.596 444.011 171.487 435.216 178.917C424.66 187.917 416.195 199.134 410.046 212.252C402.732 227.87 398.604 246.421 397.784 267.395V267.475C397.755 269.52 397.522 287.59 398.604 292.553C399.08 294.739 403.323 308.247 411.233 332.687L411.712 334.17C412.562 336.786 413.389 339.348 414.181 341.79C417.36 351.581 419.927 360.785 422.029 369.924C423.652 376.917 426.041 383.708 429.151 390.174C433.477 399.225 439.187 407.541 446.074 414.821C454.611 423.829 464.979 431.197 476.885 436.728C490.832 443.207 507.123 447.245 525.273 448.724H525.404H525.56C526.961 448.724 539.691 448.447 554.905 438.842C563.758 433.252 571.672 425.596 578.427 416.082C586.754 404.356 593.339 389.744 598.007 372.657L598.04 372.526L598.065 372.395C598.065 372.366 598.628 369.392 599.398 364.794C601.423 352.725 604.806 330.391 604.726 316.359C604.665 305.427 605.859 293.296 606.821 283.541C606.908 282.657 606.993 281.791 607.075 280.943C607.674 274.796 608.164 269.447 607.993 266.225C606.752 241.782 601.459 220.793 592.268 203.845C584.62 189.747 574.231 178.338 561.392 169.917C539.009 155.253 515.472 153.672 506.397 153.672H506.422Z" fill="#020201"/>
<path d="M412.99 322.46C407.28 304.805 402.332 294.401 401.78 291.85C400.749 287.113 401.036 267.52 401.036 267.52C401.896 245.445 406.365 227.779 412.99 213.645C410.227 224.529 405.592 254.161 416.765 307.862C416.765 325.375 417.963 325.841 412.99 322.46Z" fill="#3B51AE"/>
<path d="M452.753 303.357C454.502 293.3 461.062 286.569 470.67 283.213C478.499 280.473 486.112 281.644 493.51 286.726C497.634 289.512 501.102 293.166 503.674 297.436C506.094 301.473 507.304 306.177 507.304 311.549C507.304 320.443 504.469 331.065 496.697 335.773C490.737 339.381 483.979 340.749 476.424 339.876C468.913 339.002 463.915 334.618 459.232 328.671C453.284 321.128 451.124 312.69 452.753 303.357ZM483.143 294.929C482.935 295.498 482.869 296.11 482.951 296.71C483.038 297.357 483.259 297.977 483.6 298.532C483.971 299.131 484.443 299.66 484.994 300.096C485.574 300.56 486.223 300.929 486.918 301.189C488.275 301.706 489.764 301.753 491.151 301.324C491.751 301.147 492.304 300.836 492.766 300.413C493.229 299.99 493.589 299.466 493.819 298.882C494.027 298.313 494.093 297.701 494.011 297.1C493.927 296.453 493.705 295.832 493.361 295.278C492.993 294.678 492.522 294.148 491.971 293.711C491.391 293.247 490.742 292.879 490.047 292.618C488.691 292.096 487.2 292.045 485.811 292.473C485.21 292.651 484.657 292.966 484.194 293.391C483.732 293.817 483.373 294.343 483.143 294.929Z" fill="#030201"/>
<path d="M490.062 292.634C487.114 291.541 484.021 292.572 483.165 294.93C482.308 297.287 483.992 300.078 486.94 301.168C489.887 302.257 495.753 303.682 496.617 301.325C497.481 298.967 492.995 293.723 490.062 292.634Z" fill="white"/>
<path d="M559.972 341.771C552.182 340.208 546.403 337.179 542.878 329.476C539.728 322.593 538.965 314.379 540.218 307.248C541.568 299.501 545.778 293.333 552.846 288.744C557.626 286.009 563.121 284.935 569.33 285.523C579.73 286.507 584.769 291.736 589.724 300.602C591.449 303.685 592.267 307.337 592.177 311.559C591.989 320.615 588.32 328.206 581.171 334.33C575.158 339.482 568.091 341.963 559.972 341.771Z" fill="#030201"/>
<path d="M570.789 293.605C568.248 292.192 565.188 292.815 563.998 294.987C562.807 297.158 563.921 300.07 566.484 301.48C569.047 302.89 575.302 305.259 576.489 303.083C577.676 300.908 573.352 295.016 570.789 293.605Z" fill="white"/>
<path d="M488.929 380.437C489.931 378.418 491.178 376.918 492.668 375.937C492.895 375.792 493.162 375.722 493.431 375.736C493.702 375.749 493.963 375.846 494.178 376.013C494.402 376.187 494.572 376.421 494.668 376.687C494.767 376.955 494.788 377.246 494.73 377.525C494.613 378.112 494.596 378.715 494.679 379.307C494.727 379.661 494.89 379.99 495.144 380.24C499.802 384.781 504.736 387.731 509.943 389.091C518.292 391.278 529.182 391.555 537.495 388.027C541.819 386.248 545.817 383.755 549.322 380.652C549.413 380.551 549.526 380.47 549.651 380.416C549.776 380.362 549.911 380.336 550.048 380.339C550.205 380.357 550.355 380.416 550.483 380.51C550.62 380.605 550.734 380.729 550.817 380.874C550.908 381.025 550.969 381.192 550.995 381.366C551.028 381.544 551.028 381.727 550.995 381.905C550.742 383.161 550.108 384.306 549.18 385.185C542.145 392.05 531.299 394.845 521.501 394.659C513.976 394.513 507.003 393.621 500.843 389.962C499.633 389.248 495.745 386.384 489.18 381.37C489.04 381.268 488.941 381.119 488.9 380.951C488.849 380.781 488.859 380.599 488.929 380.437Z" fill="#040402"/>
<path d="M452.256 275.74C452.039 275.806 451.81 275.819 451.587 275.78C451.365 275.74 451.155 275.647 450.974 275.51C450.795 275.372 450.651 275.193 450.553 274.989C450.456 274.783 450.408 274.557 450.415 274.329C450.687 264.972 460.263 257.607 468.489 255.097C478.125 252.145 487.413 252.933 496.353 257.462C501.834 260.235 505.638 265.547 504.702 271.928C504.303 274.629 502.662 275.494 499.78 274.522C493.246 272.336 489.79 270.9 484.581 270.175C475.746 268.872 466.725 270.042 458.51 273.557C456.448 274.431 453.915 275.222 452.256 275.74Z" fill="#09040A"/>
<path d="M595.757 276.957C595.081 277.443 594.211 277.516 593.147 277.176C579.912 272.967 566.731 269.337 553.3 274.53C552.209 274.906 551.054 275.061 549.902 274.986C542.762 274.756 546.272 267.228 548.752 264.345C554.603 257.514 561.539 254.038 569.559 253.916C583.538 253.698 594.243 261.853 596.127 276.086C596.149 276.251 596.126 276.418 596.062 276.571C595.997 276.725 595.892 276.859 595.757 276.957Z" fill="#09040A"/>
<path d="M378.465 351.509C367.789 351.509 359.189 323.91 359.189 301.063C359.189 281.983 367.393 275.213 374.417 275.213C376.068 275.232 377.697 275.59 379.205 276.263C380.713 276.937 382.068 277.912 383.187 279.13C388.614 284.96 402.51 298.549 414.315 299.427C418.206 299.718 421.179 301.154 423.15 303.705C426.435 307.954 425.644 313.766 425.52 314.553C424.482 326.242 417.306 326.825 401.621 328.104C393.475 328.764 391.994 333.137 390.121 338.672C388.636 343.045 386.959 347.997 381.409 350.795C380.499 351.266 379.492 351.516 378.468 351.524L378.465 351.509Z" fill="#8178DD"/>
<path d="M374.418 276.852C375.845 276.869 377.254 277.179 378.558 277.764C379.861 278.349 381.032 279.195 381.997 280.252C388.611 287.335 402.285 300.177 414.195 301.062C426.105 301.948 423.898 314.344 423.898 314.344C423.016 324.529 417.825 325.137 401.49 326.468C385.155 327.798 392.052 343.594 380.672 349.322C379.99 349.678 379.233 349.865 378.465 349.869C369.608 349.869 360.823 324.361 360.823 301.062C360.823 283.473 367.894 276.852 374.418 276.852ZM374.418 273.572C369.717 273.572 365.47 276.043 362.464 280.532C359.197 285.39 357.556 292.295 357.556 301.062C357.556 312.657 359.633 325.137 363.244 335.315C366.148 343.456 371.129 353.17 378.465 353.17C379.742 353.167 381.001 352.861 382.139 352.277C388.288 349.18 390.161 343.656 391.667 339.218C393.482 333.868 394.677 330.334 401.755 329.743C410.692 329.015 415.937 328.515 419.847 326.715C425.568 324.077 426.762 318.965 427.14 314.767C427.339 313.517 428.069 307.399 424.439 302.705C422.174 299.79 418.809 298.125 414.435 297.797C403.203 296.963 389.674 283.684 384.378 278.018C383.107 276.636 381.567 275.529 379.854 274.766C378.142 274.003 376.291 273.599 374.418 273.58V273.572Z" fill="#020201"/>
<path d="M364.174 312.122C365.687 327.328 373.321 345.569 377.804 345.117C382.287 344.665 381.928 325.695 380.414 310.5C378.901 295.305 375.234 280.919 370.748 281.359C366.261 281.8 362.649 296.912 364.174 312.122Z" fill="#3B51AE"/>
<path d="M382.836 298.501C382.836 298.501 385.518 314.443 384.329 325.864" stroke="black" stroke-width="3" stroke-linecap="round" stroke-linejoin="round"/>
<path d="M519.679 359.94C519.696 360.515 519.598 361.088 519.39 361.624C519.182 362.16 518.869 362.649 518.47 363.061C518.071 363.474 517.593 363.802 517.066 364.026C516.538 364.25 515.971 364.365 515.398 364.365C514.825 364.365 514.257 364.25 513.73 364.026C513.202 363.802 512.724 363.474 512.325 363.061C511.926 362.649 511.613 362.16 511.405 361.624C511.198 361.088 511.099 360.515 511.116 359.94C511.116 357.568 513.033 349.912 515.396 349.912C517.759 349.912 519.679 357.568 519.679 359.94Z" fill="#09040A"/>
<path d="M531.807 359.94C531.824 360.515 531.725 361.088 531.518 361.624C531.31 362.16 530.997 362.649 530.598 363.061C530.199 363.474 529.721 363.802 529.194 364.026C528.666 364.25 528.099 364.365 527.526 364.365C526.953 364.365 526.385 364.25 525.858 364.026C525.33 363.802 524.852 363.474 524.453 363.061C524.054 362.649 523.741 362.16 523.533 361.624C523.326 361.088 523.227 360.515 523.244 359.94C523.244 357.568 525.161 349.912 527.527 349.912C529.894 349.912 531.807 357.568 531.807 359.94Z" fill="#09040A"/>
</svg>
