<svg width="1000" height="1000" viewBox="0 0 1000 1000" fill="none" xmlns="http://www.w3.org/2000/svg">
<path d="M497.064 560.953C493.211 560.955 489.369 560.525 485.611 559.67C472.612 556.704 461.675 551.289 449.039 541.538C446.015 539.199 445.79 536.641 446.135 534.902C447.275 529.036 448.73 462.534 448.788 455.013C448.807 452.739 448.81 446.934 448.788 440.896C448.788 434.111 448.73 427.458 448.676 422.64C448.625 418.417 448.563 415.717 448.498 414.369L448.346 411.377L450.937 412.86C451.337 413.09 452.952 413.877 454.665 414.707C461.435 417.987 464.593 419.601 465.414 420.388C466.561 421.325 475.233 424.072 478.939 425.242C482.449 426.335 482.932 426.521 483.273 426.725C486.025 428.405 488.983 429.659 492.12 430.985C494.479 431.983 496.922 433.018 499.503 434.319C503.638 436.403 505.616 437.333 506.4 437.333C506.689 437.311 506.975 437.254 507.25 437.161C508.23 436.899 509.714 436.498 512.916 436.498C514.208 436.498 515.704 436.564 517.356 436.695C520.528 436.728 522.1 438.787 523.251 440.295C524.238 441.585 524.703 442.117 525.483 442.117C525.844 442.105 526.2 442.031 526.536 441.898L528.761 441.1L528.721 443.473C528.721 444.325 528.721 445.582 528.746 447.011C528.823 450.487 529.011 454.74 529.266 458.671C529.433 461.284 529.629 472.588 529.872 485.68C530.235 505.223 530.754 534.731 531.302 537.147C532.231 539.997 531.665 542.781 529.698 545.2C521.494 555.246 512.52 560.067 500.596 560.829C499.416 560.913 498.229 560.953 497.064 560.953Z" fill="#D35079"/>
<path d="M450.132 414.285C451.526 415.083 463.153 420.48 464.289 421.573C465.926 423.169 481.713 427.702 482.439 428.132C487.347 431.135 492.755 432.749 498.774 435.785C503.78 438.306 505.308 438.973 506.397 438.973C507.638 438.973 508.368 438.139 512.909 438.139C514.089 438.139 515.519 438.193 517.265 438.335H517.291C521.788 438.335 521.944 443.75 525.462 443.75C526.018 443.742 526.568 443.636 527.088 443.437C527.088 444.289 527.088 445.532 527.113 447.041C527.182 450.167 527.357 454.441 527.636 458.785C528.079 465.708 528.783 534.728 529.741 537.64C530.516 539.981 530.08 542.158 528.435 544.169C521.385 552.802 513.301 558.381 500.484 559.201C499.334 559.278 498.192 559.316 497.057 559.314C493.326 559.319 489.606 558.902 485.967 558.071C471.97 554.879 461.116 548.79 450.03 540.238C448.131 538.78 447.365 537.109 447.732 535.224C448.934 529.051 450.368 461.492 450.419 455.028C450.437 452.907 450.44 447.318 450.419 440.893C450.419 434.808 450.368 427.972 450.306 422.623C450.259 418.833 450.201 415.787 450.125 414.285M446.56 408.455L446.861 414.438C446.93 415.761 446.988 418.447 447.039 422.648C447.115 429.207 447.141 436.881 447.152 440.868C447.17 446.928 447.152 452.725 447.152 454.966C447.094 462.28 445.623 528.938 444.527 534.56C444.164 536.346 444.164 539.804 448.037 542.803C460.873 552.704 471.995 558.217 485.249 561.238C489.124 562.12 493.086 562.564 497.061 562.56C498.258 562.56 499.485 562.52 500.691 562.44C507.344 562.014 513.083 560.378 518.231 557.43C522.79 554.824 526.834 551.257 530.936 546.217C533.259 543.371 533.927 540.096 532.867 536.743C532.34 533.522 531.825 504.735 531.48 485.63C531.233 471.983 531.041 461.215 530.87 458.555C530.62 454.638 530.431 450.408 530.355 446.95C530.322 445.547 530.315 444.311 530.329 443.473L530.409 438.736L525.999 440.35C525.855 440.406 525.705 440.445 525.552 440.467C525.189 440.106 524.858 439.715 524.561 439.297C523.364 437.727 521.363 435.107 517.439 435.056C515.766 434.925 514.249 434.859 512.927 434.859C509.511 434.859 507.903 435.293 506.84 435.588L506.408 435.697C505.591 435.551 502.259 433.875 500.255 432.862C497.623 431.536 495.173 430.49 492.774 429.484C489.695 428.18 486.788 426.933 484.152 425.337C483.637 425.028 483.139 424.86 479.47 423.698C476.319 422.703 468.017 420.072 466.452 419.103C465.458 418.232 463.116 416.996 455.414 413.25C453.878 412.503 452.147 411.658 451.784 411.454L446.567 408.455H446.56Z" fill="#020201"/>
<path d="M527.636 458.785C522.797 460.324 517.756 461.125 512.68 461.161C498.215 461.227 483.492 458.381 470.721 452.288C464.349 449.249 458.566 446.227 453.37 443.222C452.321 442.536 451.335 441.757 450.426 440.894C450.426 434.808 450.194 419.635 450.132 414.293C461.69 420.633 471.632 436.765 484.791 440.996C495.87 444.552 504.219 447.445 516.782 447.682C520.238 447.77 523.695 447.556 527.113 447.041C527.182 450.167 527.356 454.442 527.636 458.785Z" fill="#BC3364"/>
<path d="M528.177 443.801C526.986 443.962 534.853 443.273 534.348 444.166C532.199 444.756 530.504 446.17 524.086 447.237C520.176 447.872 516.212 448.1 512.256 447.919C504.916 447.609 498.683 446.826 491.732 443.885C482.417 439.938 473.49 435.124 465.069 429.506C463.254 428.292 461.512 426.97 459.853 425.549C455.202 421.555 451.599 418.286 449.043 415.743C442.106 408.845 436.853 399.808 432.708 389.871C434.251 392.006 435.452 394.798 436.875 396.984C442.097 404.822 448.46 411.829 455.751 417.773C465.948 425.968 478.798 431.835 491.104 437.607C499.551 441.571 503.188 442.001 513.432 442.344C518.793 442.526 525.945 443.801 528.177 443.801Z" fill="#020201"/>
<path d="M525.484 447.081H525.418C491.971 444.362 465.668 433.124 447.228 413.688C431.746 397.352 425.775 379.027 423.593 369.552C421.941 362.378 419.945 354.944 417.654 347.456C417.037 345.448 416.384 343.371 415.705 341.261L412.758 332.151C410.322 324.619 406.587 311.702 402.594 292.935L402.434 292.214C402.071 290.614 401.613 287.342 401.033 282.481C398.944 265.673 400.124 248.617 404.507 232.26C406.278 225.63 408.622 219.168 411.512 212.947C417.556 200.044 425.884 189.014 436.258 180.152C444.911 172.846 454.728 167.056 465.298 163.026C484.062 155.738 500.084 155.373 503.108 155.373H503.413C503.689 155.355 504.724 155.297 506.382 155.297C515.316 155.297 538.475 156.856 560.499 171.29C573.109 179.551 583.317 190.767 590.834 204.628C599.909 221.358 605.137 242.113 606.364 266.309C606.523 269.425 606.044 274.708 605.452 280.783L605.191 283.443C604.229 293.219 603.035 305.387 603.097 316.366C603.176 330.249 599.808 352.495 597.793 364.52C597.02 369.104 596.472 372.063 596.465 372.092V372.158L596.446 372.223C591.833 389.124 585.328 403.561 577.113 415.131C570.481 424.47 562.724 431.98 554.052 437.453C538.969 446.975 526.101 447.084 525.574 447.084L525.484 447.081Z" fill="#D35079"/>
<path d="M506.397 156.951C522.471 156.951 599.47 162.392 604.748 266.404C604.897 269.319 604.451 274.395 603.841 280.634C602.842 290.895 601.409 304.301 601.478 316.388C601.557 330.289 598.142 352.648 596.196 364.258C595.419 368.882 594.875 371.801 594.875 371.801C574.891 444.997 526.783 445.456 525.578 445.456H525.556C449.043 439.217 429.851 389.387 425.198 369.185C423.477 361.704 421.469 354.299 419.23 346.957C418.596 344.884 417.944 342.82 417.273 340.762C416.333 337.847 415.338 334.793 414.326 331.652C408.616 314.016 404.583 294.4 404.031 291.85C403.65 290.1 403.142 286.333 402.655 282.27C400.606 265.671 401.77 248.832 406.082 232.676C407.823 226.142 410.131 219.773 412.979 213.644C438.955 158.219 498.048 157.024 503.13 157.024H503.493C503.493 157.024 504.542 156.951 506.422 156.951M506.422 153.672C504.832 153.672 503.783 153.723 503.409 153.745H503.13C500.055 153.745 483.764 154.109 464.732 161.492C453.989 165.596 444.011 171.487 435.216 178.917C424.66 187.917 416.195 199.134 410.05 212.252C407.118 218.554 404.74 225.102 402.942 231.82C398.504 248.379 397.31 265.647 399.428 282.663C400.013 287.575 400.495 290.902 400.855 292.549L401.014 293.307C405.007 312.143 408.786 325.119 411.233 332.683C412.133 335.464 413.015 338.193 413.861 340.798L414.18 341.782C414.856 343.87 415.509 345.94 416.123 347.941C418.399 355.389 420.388 362.786 422.029 369.921C423.652 376.913 426.041 383.704 429.151 390.17C433.476 399.222 439.186 407.538 446.074 414.818C454.611 423.825 464.979 431.193 476.889 436.725C490.835 443.207 507.123 447.245 525.273 448.724H525.407H525.56C526.961 448.724 539.691 448.447 554.905 438.842C563.758 433.252 571.672 425.596 578.427 416.082C586.754 404.356 593.343 389.744 598.007 372.657L598.044 372.526L598.069 372.395C598.069 372.366 598.628 369.392 599.398 364.794C601.423 352.714 604.806 330.362 604.726 316.359C604.665 305.46 605.855 293.344 606.814 283.603C606.901 282.696 606.992 281.807 607.075 280.94C607.674 274.803 608.164 269.454 607.993 266.225C606.752 241.782 601.459 220.793 592.268 203.845C584.62 189.747 574.231 178.338 561.391 169.917C539.009 155.253 515.472 153.672 506.397 153.672H506.422Z" fill="#020201"/>
<path d="M419.23 346.976C418.596 344.904 417.943 342.839 417.273 340.781C416.333 337.866 415.338 334.812 414.325 331.671C408.615 314.017 404.583 294.401 404.031 291.85C403.65 290.101 403.141 286.334 402.655 282.271C400.606 265.672 401.77 248.832 406.082 232.677C407.823 226.143 410.131 219.774 412.979 213.645C410.216 224.529 408.819 253.582 416.754 307.862C420.29 331.974 420.754 347.639 419.23 346.976Z" fill="#BC3364"/>
<path d="M416.427 306.217C416.373 306.425 421.284 334.246 420.645 354.59" stroke="#020201" stroke-width="4" stroke-linecap="round" stroke-linejoin="round"/>
<path d="M593.88 288.569C579.2 275.283 521.363 295.981 534.377 342.135C536.555 349.922 543.938 355.202 551.975 354.524C579.022 352.338 612.393 305.331 593.88 288.569Z" fill="#040200"/>
<path d="M563.442 305.966C565.798 304.731 566.916 302.209 565.94 300.336C564.963 298.463 562.263 297.946 559.91 299.181C557.558 300.417 556.44 302.934 557.417 304.811C558.393 306.688 561.09 307.202 563.442 305.966Z" fill="#FFFFFE"/>
<path d="M551.348 318.374C554.999 315.824 556.731 310.613 555.217 306.739C553.703 302.866 549.522 301.795 545.87 304.349C542.218 306.903 540.49 312.111 542 315.984C543.51 319.858 547.699 320.929 551.348 318.374Z" fill="#FFFFFE"/>
<path d="M441.638 288.569C456.318 275.283 514.155 295.981 501.141 342.135C498.963 349.922 491.583 355.202 483.546 354.524C456.496 352.338 423.121 305.331 441.638 288.569Z" fill="#040200"/>
<path d="M472.075 305.966C469.723 304.731 468.605 302.209 469.578 300.336C470.551 298.463 473.255 297.946 475.607 299.181C477.959 300.417 479.077 302.934 478.105 304.811C477.132 306.688 474.427 307.202 472.075 305.966Z" fill="#FFFFFE"/>
<path d="M484.17 318.374C480.54 315.824 478.787 310.613 480.301 306.739C481.814 302.866 486 301.795 489.648 304.349C493.296 306.903 495.031 312.111 493.517 315.984C492.004 319.858 487.818 320.929 484.17 318.374Z" fill="#FFFFFE"/>
<path d="M480.987 388.779C482.138 386.735 483.68 384.94 485.524 383.495C485.688 383.357 485.895 383.284 486.109 383.287C486.321 383.29 486.525 383.371 486.682 383.513C488.4 385.051 488.773 386.46 487.8 387.74C487.739 387.819 487.696 387.909 487.673 388.006C487.654 388.102 487.654 388.201 487.673 388.298C487.688 388.396 487.724 388.491 487.778 388.575C487.832 388.658 487.903 388.728 487.985 388.782C489.302 389.64 491.655 391.352 495.046 393.92C505.231 401.634 525.175 402.553 536.555 396.89C541.862 394.252 544.994 392.463 548.831 389.026C548.987 388.887 549.176 388.791 549.379 388.746C549.581 388.702 549.791 388.71 549.989 388.768C550.189 388.825 550.37 388.933 550.516 389.081C550.662 389.23 550.769 389.413 550.828 389.613L551.057 390.44C551.126 390.68 551.133 390.934 551.079 391.178C551.024 391.422 550.909 391.648 550.744 391.836C547.84 395.125 544.887 397.535 541.883 399.065C532.719 403.715 522.705 405.498 511.842 404.415C502.012 403.424 495.122 400.115 487.608 394.325C485.58 392.712 483.473 391.203 481.295 389.803C481.124 389.703 480.997 389.542 480.94 389.352C480.882 389.162 480.899 388.957 480.987 388.779Z" fill="#040200"/>
<path d="M429.532 278.597C429.257 278.663 428.973 278.677 428.693 278.637C428.421 278.6 428.159 278.509 427.924 278.367C427.709 278.239 427.528 278.06 427.397 277.846C427.277 277.648 427.216 277.419 427.223 277.187C427.564 267.833 439.565 260.465 449.9 257.954C462 255.003 473.653 255.791 484.86 260.319C491.736 263.092 496.509 268.405 495.326 274.789C494.827 277.486 492.77 278.349 489.155 277.38C480.973 275.194 476.62 273.761 470.083 273.033C458.709 271.76 447.805 272.887 437.373 276.414C434.795 277.274 431.619 278.08 429.532 278.597Z" fill="#09040A"/>
<path d="M600.341 278.778C599.564 279.205 598.566 279.27 597.343 278.968C582.14 275.299 567 272.136 551.569 276.661C550.295 276.991 548.98 277.125 547.666 277.059C539.466 276.858 543.514 270.295 546.345 267.785C553.068 261.831 561.034 258.8 570.245 258.693C586.304 258.504 598.581 265.617 600.766 278.006C600.791 278.151 600.766 278.3 600.693 278.429C600.61 278.575 600.488 278.696 600.341 278.778Z" fill="#09040A"/>
<path d="M520.623 363.026C520.623 364.166 520.172 365.258 519.37 366.064C518.567 366.87 517.478 367.322 516.343 367.322C515.208 367.322 514.12 366.87 513.317 366.064C512.514 365.258 512.063 364.166 512.063 363.026C512.063 360.654 513.98 352.998 516.343 352.998C518.706 352.998 520.623 360.654 520.623 363.026Z" fill="#09040A"/>
<path d="M532.755 363.026C532.722 364.144 532.257 365.206 531.457 365.985C530.658 366.765 529.587 367.201 528.473 367.201C527.359 367.201 526.288 366.765 525.489 365.985C524.689 365.206 524.224 364.144 524.191 363.026C524.191 360.654 526.108 352.998 528.471 352.998C530.834 352.998 532.755 360.654 532.755 363.026Z" fill="#09040A"/>
</svg>
