<svg width="1000" height="1000" viewBox="0 0 1000 1000" fill="none" xmlns="http://www.w3.org/2000/svg">
<path d="M497.066 560.955C493.213 560.957 489.371 560.527 485.613 559.672C472.614 556.706 461.677 551.291 449.041 541.54C446.017 539.201 445.792 536.643 446.137 534.904C447.277 529.038 448.732 462.536 448.79 455.015C448.809 452.778 448.812 446.976 448.79 440.898C448.79 434.084 448.732 427.416 448.678 422.642C448.627 418.419 448.565 415.719 448.5 414.371L448.348 411.379L450.939 412.862C451.339 413.092 452.954 413.879 454.667 414.709C461.437 417.989 464.595 419.603 465.416 420.39C466.563 421.327 475.235 424.074 478.941 425.244C482.451 426.337 482.934 426.523 483.275 426.727C486.027 428.407 488.985 429.66 492.122 430.987C494.481 431.985 496.924 433.02 499.505 434.321C503.64 436.405 505.618 437.335 506.402 437.335C506.691 437.313 506.977 437.256 507.252 437.163C508.232 436.901 509.716 436.5 512.918 436.5C514.21 436.5 515.706 436.566 517.357 436.697C520.53 436.73 522.102 438.789 523.253 440.297C524.24 441.587 524.705 442.119 525.485 442.119C525.846 442.107 526.202 442.033 526.538 441.9L528.763 441.102L528.723 443.475C528.723 444.331 528.723 445.588 528.748 447.013C528.825 450.493 529.013 454.749 529.268 458.673C529.434 461.286 529.631 472.586 529.874 485.671C530.237 505.217 530.756 534.733 531.304 537.149C532.233 539.999 531.667 542.783 529.699 545.202C521.496 555.248 512.522 560.069 500.598 560.831C499.418 560.915 498.231 560.955 497.066 560.955Z" fill="#996CB3"/>
<path d="M450.134 414.285C451.528 415.083 463.155 420.48 464.291 421.573C465.928 423.169 481.715 427.702 482.441 428.132C487.349 431.135 492.757 432.749 498.776 435.785C503.782 438.306 505.31 438.973 506.399 438.973C507.64 438.973 508.37 438.139 512.911 438.139C514.091 438.139 515.521 438.193 517.267 438.335H517.292C521.79 438.335 521.946 443.75 525.464 443.75C526.02 443.742 526.57 443.636 527.09 443.437C527.09 444.289 527.09 445.532 527.115 447.041C527.184 450.167 527.358 454.441 527.638 458.785C528.081 465.708 528.785 534.728 529.743 537.64C530.518 539.981 530.082 542.158 528.437 544.169C521.387 552.802 513.303 558.381 500.486 559.201C499.336 559.278 498.194 559.316 497.059 559.314C493.328 559.319 489.608 558.902 485.969 558.071C471.972 554.879 461.118 548.79 450.032 540.238C448.133 538.78 447.367 537.109 447.734 535.224C448.936 529.051 450.37 461.492 450.421 455.028C450.439 452.907 450.442 447.318 450.421 440.893C450.421 434.808 450.37 427.972 450.308 422.623C450.261 418.833 450.203 415.787 450.127 414.285M446.558 408.455L446.863 414.438C446.932 415.758 446.99 418.447 447.041 422.648C447.117 429.207 447.143 436.885 447.154 440.868C447.172 446.928 447.154 452.725 447.154 454.966C447.096 462.28 445.625 528.938 444.529 534.56C444.166 536.346 444.166 539.804 448.039 542.803C460.879 552.704 471.997 558.217 485.25 561.238C489.126 562.12 493.088 562.564 497.062 562.56C498.26 562.56 499.487 562.52 500.692 562.44C507.346 562.014 513.085 560.378 518.233 557.43C522.792 554.824 526.836 551.257 530.938 546.217C533.261 543.371 533.929 540.096 532.869 536.743C532.342 533.522 531.827 504.735 531.482 485.633C531.235 471.983 531.043 461.219 530.872 458.555C530.622 454.638 530.433 450.408 530.357 446.95C530.324 445.547 530.317 444.311 530.331 443.473L530.411 438.736L526.001 440.35C525.857 440.406 525.707 440.445 525.554 440.467C525.191 440.106 524.86 439.715 524.563 439.297C523.365 437.727 521.365 435.107 517.441 435.056C515.768 434.925 514.251 434.859 512.929 434.859C509.513 434.859 507.905 435.293 506.842 435.588L506.41 435.697C505.593 435.551 502.261 433.875 500.257 432.862C497.625 431.536 495.175 430.49 492.775 429.484C489.697 428.18 486.79 426.933 484.154 425.337C483.639 425.028 483.141 424.86 479.472 423.698C476.321 422.703 468.019 420.072 466.454 419.103C465.46 418.232 463.118 416.996 455.415 413.25C453.88 412.503 452.148 411.658 451.785 411.454L446.566 408.455H446.558Z" fill="#020201"/>
<path d="M527.637 458.785C522.798 460.324 517.757 461.125 512.681 461.161C498.216 461.227 483.493 458.381 470.722 452.288C464.35 449.249 458.567 446.227 453.371 443.222C452.322 442.536 451.336 441.757 450.427 440.894C450.427 434.808 450.195 419.635 450.133 414.293C461.691 420.633 471.633 436.765 484.792 440.996C495.871 444.552 504.22 447.445 516.783 447.682C520.239 447.77 523.696 447.556 527.114 447.041C527.183 450.167 527.357 454.442 527.637 458.785Z" fill="#6D4E7E"/>
<path d="M603.49 296.196C603.49 296.196 623.477 277.011 632.211 278.417C640.945 279.824 628.919 333.12 611.023 348.745C593.127 364.37 584.444 364.728 584.444 364.728C584.444 364.728 581.707 363.15 586.985 342.984C592.263 322.819 598.085 298.499 598.085 298.499L603.49 296.196Z" fill="#6D4E7E" stroke="black" stroke-width="3" stroke-linecap="round" stroke-linejoin="round"/>
<path d="M595.101 323.624C595.573 322.895 596.016 322.221 596.485 321.539C596.953 320.858 597.417 320.191 597.897 319.524C598.848 318.196 599.824 316.886 600.826 315.596C602.833 313.013 604.946 310.513 607.204 308.126C609.461 305.708 611.915 303.484 614.54 301.476C615.887 300.468 617.308 299.564 618.791 298.772C620.312 297.952 621.937 297.345 623.622 296.968C623.948 296.89 624.291 296.944 624.577 297.119C624.863 297.293 625.069 297.573 625.15 297.899C625.231 298.225 625.181 298.57 625.011 298.859C624.84 299.148 624.563 299.358 624.24 299.443C622.83 299.877 621.486 300.503 620.247 301.305C618.97 302.122 617.757 303.034 616.617 304.034C614.299 306.106 612.159 308.368 610.217 310.797C608.253 313.22 606.413 315.767 604.681 318.387C603.817 319.697 602.979 321.022 602.165 322.363C601.759 323.033 601.36 323.708 600.968 324.385C600.583 325.056 600.187 325.755 599.846 326.397C599.682 326.727 599.454 327.021 599.175 327.261C598.896 327.501 598.572 327.683 598.222 327.795C597.872 327.907 597.503 327.947 597.137 327.913C596.772 327.879 596.416 327.772 596.092 327.598C595.768 327.424 595.483 327.186 595.252 326.899C595.022 326.612 594.851 326.281 594.75 325.926C594.649 325.572 594.62 325.2 594.665 324.834C594.71 324.468 594.827 324.115 595.011 323.795C595.029 323.744 595.065 323.682 595.101 323.624Z" fill="black"/>
<path d="M527.65 443.8C526.485 443.961 534.184 443.272 533.702 444.165C531.6 444.755 529.945 446.169 523.661 447.237C519.837 447.871 515.957 448.1 512.085 447.918C504.901 447.608 498.803 446.825 492 443.884C482.87 439.93 474.133 435.115 465.908 429.505C464.129 428.289 462.423 426.968 460.8 425.548C456.227 421.554 452.686 418.282 450.179 415.731C443.387 408.833 438.247 399.796 434.207 389.859C435.721 391.995 436.893 394.786 438.284 396.972C443.376 404.786 449.602 411.793 456.757 417.761C466.735 425.956 479.313 431.823 491.358 437.595C499.623 441.559 503.181 441.989 513.207 442.332C518.452 442.525 525.451 443.8 527.65 443.8Z" fill="#020201"/>
<path d="M524.998 447.08H524.929C492.183 444.355 466.432 433.11 448.394 413.666C433.246 397.334 427.402 379.008 425.268 369.538C423.198 360.351 420.672 351.103 417.547 341.261L415.158 333.718L414.664 332.158C406.947 307.773 402.801 294.323 402.344 292.184C401.31 287.323 401.567 268.295 401.582 267.489V267.449C402.373 246.701 406.359 228.365 413.426 212.951C419.343 200.044 427.493 189.018 437.646 180.155C446.094 172.863 455.718 167.069 466.105 163.022C484.476 155.734 500.169 155.369 503.131 155.369H503.425C503.705 155.351 504.717 155.293 506.329 155.293C515.081 155.293 537.758 156.853 559.327 171.293C571.669 179.558 581.659 190.778 589.02 204.635C597.874 221.379 602.996 242.128 604.197 266.342C604.35 269.446 603.885 274.723 603.305 280.808L603.054 283.413C602.11 293.205 600.938 305.39 600.999 316.395C601.076 330.303 597.78 352.531 595.805 364.542C595.054 369.13 594.513 372.085 594.505 372.114V372.18L594.487 372.245C589.975 389.142 583.597 403.583 575.571 415.145C569.081 424.484 561.487 431.998 552.996 437.475C538.211 446.986 525.637 447.08 525.089 447.08H524.998Z" fill="#996CB3"/>
<path d="M506.314 156.951C522.043 156.951 597.401 162.392 602.563 266.404C602.708 269.319 602.273 274.395 601.677 280.634C600.697 290.895 599.296 304.301 599.365 316.388C599.441 330.289 596.098 352.648 594.192 364.258C593.434 368.882 592.9 371.801 592.9 371.801C573.345 444.997 526.264 445.456 525.088 445.456H525.063C450.187 439.217 431.409 389.387 426.86 369.185C424.682 359.583 422.072 350.116 419.103 340.762C418.181 337.847 417.212 334.793 416.221 331.652C410.631 314.016 404.485 294.4 403.94 291.85C402.935 287.112 403.214 267.519 403.214 267.519C404.057 245.444 408.431 227.778 414.91 213.644C440.331 158.219 498.164 157.024 503.13 157.024H503.468C503.468 157.024 504.491 156.951 506.332 156.951M506.332 153.672C504.778 153.672 503.751 153.723 503.381 153.745H503.13C500.117 153.745 484.149 154.109 465.505 161.503C454.951 165.625 445.173 171.523 436.592 178.943C426.265 187.943 417.978 199.159 411.963 212.277C404.804 227.888 400.768 246.432 399.966 267.395V267.475C399.937 269.52 399.712 287.583 400.764 292.538C401.232 294.725 405.389 308.229 413.124 332.665L413.607 334.192C414.431 336.794 415.237 339.341 416.01 341.768C419.121 351.566 421.633 360.771 423.691 369.91C425.275 376.889 427.611 383.675 430.657 390.148C434.873 399.175 440.459 407.49 447.217 414.796C455.566 423.807 465.73 431.193 477.394 436.718C491.068 443.204 507.022 447.245 524.812 448.742H524.947H525.106C526.482 448.742 538.969 448.466 553.885 438.842C562.539 433.234 570.285 425.582 576.899 416.064C585.045 404.341 591.492 389.733 596.055 372.65L596.087 372.522L596.113 372.395C596.113 372.366 596.661 369.392 597.416 364.79C599.398 352.729 602.708 330.395 602.632 316.37C602.57 305.438 603.721 293.307 604.679 283.552C604.764 282.663 604.848 281.795 604.93 280.947C605.514 274.803 605.986 269.458 605.827 266.24C604.614 241.808 599.438 220.826 590.443 203.882C582.958 189.783 572.786 178.374 560.219 169.946C538.28 155.257 515.207 153.672 506.317 153.672H506.332Z" fill="#020201"/>
<path d="M416.222 331.671C410.631 314.017 404.486 294.401 403.941 291.85C402.936 287.113 403.215 267.52 403.215 267.52C404.058 245.445 408.432 227.779 414.911 213.645C412.211 224.529 407.651 254.161 418.607 307.862C423.104 329.962 421.093 335.053 416.222 331.671Z" fill="#6D3F8E"/>
<path d="M452.756 303.357C454.505 293.3 461.065 286.569 470.673 283.213C478.502 280.473 486.115 281.644 493.513 286.726C497.637 289.512 501.105 293.166 503.677 297.436C506.097 301.473 507.307 306.177 507.307 311.549C507.307 320.443 504.472 331.065 496.7 335.773C490.74 339.381 483.982 340.749 476.427 339.876C468.916 339.002 463.918 334.618 459.235 328.671C453.287 321.128 451.127 312.69 452.756 303.357ZM483.146 294.929C482.938 295.498 482.872 296.11 482.954 296.71C483.041 297.357 483.262 297.977 483.603 298.532C483.974 299.131 484.446 299.66 484.997 300.096C485.577 300.56 486.226 300.929 486.921 301.189C488.278 301.706 489.767 301.753 491.154 301.324C491.754 301.147 492.307 300.836 492.769 300.413C493.232 299.99 493.592 299.466 493.822 298.882C494.03 298.313 494.096 297.701 494.014 297.1C493.93 296.453 493.708 295.832 493.364 295.278C492.996 294.678 492.525 294.148 491.974 293.711C491.394 293.247 490.745 292.879 490.05 292.618C488.694 292.096 487.203 292.045 485.814 292.473C485.213 292.651 484.66 292.966 484.197 293.391C483.735 293.817 483.376 294.343 483.146 294.929Z" fill="#030201"/>
<path d="M490.062 292.632C487.114 291.539 484.021 292.57 483.165 294.928C482.308 297.285 483.992 300.076 486.94 301.166C489.887 302.256 492.98 301.228 493.837 298.87C494.693 296.513 492.995 293.721 490.062 292.632Z" fill="white"/>
<path d="M559.972 341.771C552.182 340.208 546.403 337.179 542.878 329.476C539.728 322.593 538.965 314.379 540.218 307.248C541.568 299.501 545.778 293.333 552.846 288.744C557.626 286.009 563.121 284.935 569.33 285.523C579.73 286.507 584.769 291.736 589.724 300.602C591.449 303.685 592.267 307.337 592.177 311.559C591.989 320.615 588.32 328.206 581.171 334.33C575.158 339.482 568.091 341.963 559.972 341.771ZM563.119 298.339C563.112 298.95 563.238 299.555 563.489 300.111C563.74 300.668 564.109 301.162 564.571 301.56C565.599 302.458 566.908 302.966 568.27 302.996C568.959 303.019 569.646 302.924 570.303 302.715C570.937 302.519 571.53 302.208 572.053 301.797C572.542 301.41 572.948 300.926 573.243 300.376C573.523 299.85 573.678 299.266 573.697 298.67C573.706 298.059 573.58 297.453 573.329 296.896C573.078 296.338 572.708 295.843 572.245 295.446C571.218 294.548 569.908 294.041 568.546 294.014C567.858 293.991 567.171 294.085 566.513 294.29C565.88 294.488 565.289 294.801 564.767 295.212C564.277 295.597 563.871 296.08 563.577 296.63C563.297 297.156 563.14 297.739 563.119 298.335V298.339Z" fill="#030201"/>
<path d="M568.546 294.011C565.642 293.92 563.199 295.855 563.101 298.336C563.003 300.818 565.329 302.898 568.248 302.993C571.167 303.088 573.599 301.149 573.675 298.668C573.751 296.186 571.468 294.102 568.546 294.011Z" fill="white"/>
<path d="M533.824 360.5C533.832 360.471 533.845 360.444 533.864 360.421C533.883 360.398 533.906 360.379 533.933 360.365C533.96 360.354 533.989 360.348 534.018 360.348C534.048 360.348 534.077 360.354 534.104 360.365L534.332 360.427C534.577 360.514 534.798 360.659 534.975 360.849C535.153 361.039 535.282 361.27 535.352 361.521C535.544 362.147 535.544 362.818 535.352 363.445L534.485 366.444C534.39 366.77 534.251 367.081 534.071 367.369C533.904 367.635 533.696 367.873 533.454 368.072C533.24 368.244 532.993 368.368 532.728 368.437C532.49 368.503 532.239 368.503 532.002 368.437L531.773 368.364C531.745 368.356 531.719 368.343 531.697 368.324C531.673 368.305 531.653 368.282 531.639 368.255C531.625 368.229 531.616 368.2 531.613 368.171C531.608 368.142 531.608 368.112 531.613 368.083L533.824 360.5Z" fill="#09040A"/>
<path d="M520.794 370.031C520.796 370.049 520.796 370.068 520.794 370.086C520.791 370.104 520.783 370.122 520.772 370.137L520.732 370.177H520.682H520.609C520.227 370.263 519.829 370.246 519.455 370.129C519.044 370.003 518.665 369.789 518.344 369.503C517.982 369.186 517.677 368.809 517.444 368.388C517.192 367.941 517.007 367.46 516.895 366.959L516.562 365.451C516.329 364.48 516.405 363.461 516.779 362.535C516.927 362.151 517.163 361.806 517.468 361.53C517.774 361.254 518.139 361.054 518.536 360.947L518.616 360.929C518.651 360.922 518.687 360.928 518.718 360.947C518.734 360.955 518.747 360.967 518.758 360.982C518.769 360.996 518.776 361.013 518.779 361.031L520.794 370.031Z" fill="#09040A"/>
<path d="M557.81 393.81L557.349 398.948C557.325 399.176 557.255 399.397 557.142 399.597C557.031 399.795 556.879 399.967 556.695 400.099C548.413 406.267 538.433 409.714 528.124 409.967C520.907 410.186 514.42 410.375 507.654 408.776C498.247 406.544 489.566 401.93 482.44 395.373C482.237 395.191 482.098 394.947 482.044 394.678C481.991 394.409 482.025 394.13 482.142 393.883C482.901 392.261 484.371 389.962 486.498 389.845C486.659 389.835 486.818 389.871 486.959 389.948C487.102 390.021 487.221 390.134 487.304 390.272C487.389 390.409 487.436 390.567 487.439 390.728C487.442 390.89 487.402 391.049 487.322 391.19L486.596 392.436C486.426 392.738 486.368 393.091 486.433 393.431C486.502 393.77 486.691 394.072 486.967 394.28C492.775 398.675 498.946 402.592 506.591 404.512C519.68 407.792 535.126 407.613 547.588 401.102C550.688 399.484 551.944 396.328 553.305 394.218C553.391 394.053 553.515 393.912 553.668 393.806C553.816 393.698 553.988 393.627 554.169 393.599L557.138 393.161C557.229 393.15 557.32 393.159 557.407 393.187C557.491 393.215 557.568 393.263 557.631 393.326C557.694 393.39 557.741 393.467 557.77 393.551C557.804 393.633 557.817 393.722 557.81 393.81Z" fill="#030201"/>
<path d="M556.492 212.076C558.956 222.158 556.401 232.452 551.192 240.793C548.89 244.456 544.727 246.988 540.222 249.903C533.212 254.447 523.546 254.484 516.144 251.066C512.208 249.31 508.508 247.065 505.131 244.383C497.05 237.824 492.426 224.731 493.925 214.466C495.377 204.598 499.958 196.804 508.329 191.593C510.507 190.23 513.42 189.33 517.07 188.893C524.722 187.986 531.281 187.213 538.175 190.114C547.789 194.163 553.895 201.484 556.492 212.076ZM525.931 198.619C525.7 199.224 525.627 199.879 525.72 200.521C525.821 201.223 526.069 201.896 526.446 202.496C526.872 203.163 527.407 203.753 528.029 204.241C529.36 205.292 530.97 205.925 532.657 206.063C533.443 206.129 534.235 206.06 534.998 205.859C535.685 205.684 536.326 205.363 536.879 204.919C537.384 204.514 537.775 203.983 538.011 203.378C538.247 202.774 538.319 202.117 538.222 201.475C538.122 200.774 537.874 200.102 537.496 199.504C537.07 198.836 536.535 198.244 535.913 197.755C535.254 197.231 534.52 196.809 533.735 196.505C532.951 196.194 532.125 196.003 531.285 195.937C530.499 195.869 529.707 195.936 528.943 196.137C528.257 196.315 527.616 196.636 527.063 197.081C526.556 197.486 526.161 198.016 525.916 198.619H525.931Z" fill="#030201"/>
<path d="M533.72 196.506C530.38 195.191 526.884 196.142 525.915 198.62C524.946 201.098 526.87 204.18 530.209 205.488C533.549 206.797 537.041 205.853 538.01 203.371C538.979 200.89 537.059 197.836 533.72 196.506Z" fill="white"/>
<path d="M452.255 275.74C452.039 275.806 451.81 275.819 451.587 275.78C451.364 275.74 451.154 275.647 450.974 275.51C450.795 275.372 450.651 275.193 450.553 274.989C450.455 274.783 450.408 274.557 450.415 274.329C450.687 264.972 460.263 257.607 468.489 255.097C478.125 252.145 487.413 252.933 496.352 257.462C501.834 260.235 505.638 265.547 504.701 271.928C504.302 274.629 502.661 275.494 499.779 274.522C493.245 272.336 489.789 270.9 484.58 270.175C475.746 268.872 466.724 270.042 458.51 273.557C456.448 274.431 453.914 275.222 452.255 275.74Z" fill="#09040A"/>
<path d="M595.757 276.957C595.081 277.443 594.211 277.516 593.147 277.176C579.912 272.967 566.731 269.337 553.3 274.53C552.209 274.906 551.054 275.061 549.902 274.986C542.762 274.756 546.272 267.228 548.752 264.345C554.603 257.514 561.539 254.038 569.559 253.916C583.538 253.698 594.243 261.853 596.127 276.086C596.149 276.251 596.126 276.418 596.062 276.571C595.997 276.725 595.892 276.859 595.757 276.957Z" fill="#09040A"/>
<path d="M420.73 308.284C420.73 308.284 394.794 272.041 368.854 277.39C342.914 282.74 384.43 367.22 426.538 365.974" fill="#996CB3"/>
<path d="M419.342 334.947C420.412 336.405 423.698 358.899 399.71 341.197C386.407 331.376 382.45 316.885 379.506 305.698C373.4 283.153 401.602 310.799 419.342 334.947Z" fill="#6D4E7E"/>
<path d="M419.339 334.948C419.325 335.037 419.305 335.126 419.281 335.214C419.263 335.276 419.228 335.332 419.179 335.374C419.13 335.418 419.07 335.449 419.005 335.461C418.941 335.478 418.873 335.478 418.809 335.461C418.747 335.44 418.691 335.404 418.645 335.356L411.095 326.782C411.062 326.74 411.018 326.709 410.968 326.69C410.917 326.672 410.862 326.665 410.808 326.669C410.754 326.675 410.701 326.695 410.656 326.727C410.613 326.757 410.578 326.797 410.554 326.844C408.91 330.028 408.576 334.638 410.002 337.848C411.136 340.447 412.763 342.799 414.794 344.772C414.814 344.788 414.827 344.811 414.83 344.837C414.832 344.85 414.831 344.862 414.828 344.874C414.824 344.886 414.817 344.897 414.809 344.906C414.794 344.93 414.77 344.947 414.743 344.954C414.717 344.961 414.689 344.961 414.663 344.954C411.929 343.844 409.78 342.313 408.216 340.362C406.745 338.531 405.972 336.091 405.897 333.042C405.839 330.009 406.517 327.008 407.872 324.296C408.035 323.969 408.107 323.604 408.082 323.24C408.058 322.875 407.94 322.522 407.741 322.216C403.109 315.085 396.085 308.733 389.78 303.927C387.264 301.996 384.008 300.345 380.926 298.825C380.539 298.641 380.216 298.343 380.001 297.971C379.786 297.599 379.688 297.17 379.721 296.741C379.73 296.651 379.759 296.564 379.804 296.486C379.854 296.408 379.918 296.342 379.993 296.289C380.072 296.239 380.159 296.206 380.251 296.191C380.343 296.171 380.438 296.171 380.53 296.191C383.692 296.988 386.706 298.29 389.457 300.046C399.892 306.769 408.649 315.809 415.052 326.468C416.718 329.168 418.152 332.004 419.339 334.948Z" fill="#09040A"/>
<path d="M420.73 308.284C420.73 308.284 394.794 272.041 368.854 277.39C342.914 282.74 384.43 367.22 426.538 365.974" stroke="black" stroke-width="3" stroke-linecap="round" stroke-linejoin="round"/>
</svg>
