<svg width="1000" height="1000" viewBox="0 0 1000 1000" fill="none" xmlns="http://www.w3.org/2000/svg">
<path d="M497.064 560.953C493.211 560.955 489.369 560.525 485.611 559.67C472.612 556.704 461.675 551.289 449.039 541.538C446.015 539.199 445.79 536.641 446.135 534.902C447.275 529.036 448.731 462.534 448.789 455.013C448.807 452.739 448.81 446.934 448.789 440.896C448.789 434.111 448.731 427.458 448.676 422.64C448.625 418.417 448.564 415.717 448.498 414.369L448.346 411.377L450.938 412.86C451.337 413.09 452.952 413.877 454.666 414.707C461.436 417.987 464.594 419.601 465.414 420.388C466.561 421.325 475.233 424.072 478.939 425.242C482.45 426.335 482.932 426.521 483.274 426.725C486.025 428.405 488.984 429.659 492.12 430.985C494.48 431.983 496.923 433.018 499.503 434.319C503.638 436.403 505.616 437.333 506.4 437.333C506.69 437.311 506.975 437.254 507.25 437.161C508.23 436.899 509.715 436.498 512.916 436.498C514.209 436.498 515.704 436.564 517.356 436.695C520.528 436.728 522.1 438.787 523.251 440.295C524.238 441.585 524.703 442.117 525.483 442.117C525.844 442.105 526.2 442.031 526.536 441.898L528.761 441.1L528.721 443.473C528.721 444.325 528.721 445.582 528.747 447.011C528.823 450.487 529.012 454.74 529.266 458.671C529.433 461.284 529.629 472.588 529.872 485.68C530.235 505.223 530.754 534.731 531.302 537.147C532.232 539.997 531.665 542.781 529.698 545.2C521.494 555.246 512.521 560.067 500.596 560.829C499.416 560.913 498.229 560.953 497.064 560.953Z" fill="#833511"/>
<path d="M450.132 414.285C451.526 415.083 463.153 420.48 464.289 421.573C465.926 423.169 481.713 427.702 482.439 428.132C487.347 431.135 492.755 432.749 498.774 435.785C503.78 438.306 505.308 438.973 506.397 438.973C507.638 438.973 508.368 438.139 512.909 438.139C514.089 438.139 515.519 438.193 517.265 438.335H517.291C521.788 438.335 521.944 443.75 525.462 443.75C526.018 443.742 526.568 443.636 527.088 443.437C527.088 444.289 527.088 445.532 527.113 447.041C527.182 450.167 527.357 454.441 527.636 458.785C528.079 465.708 528.783 534.728 529.741 537.64C530.516 539.981 530.08 542.158 528.435 544.169C521.385 552.802 513.301 558.381 500.484 559.201C499.334 559.278 498.192 559.316 497.057 559.314C493.326 559.319 489.606 558.902 485.967 558.071C471.97 554.879 461.116 548.79 450.03 540.238C448.131 538.78 447.365 537.109 447.732 535.224C448.934 529.051 450.368 461.492 450.419 455.028C450.437 452.907 450.44 447.318 450.419 440.893C450.419 434.808 450.368 427.972 450.306 422.623C450.259 418.833 450.201 415.787 450.125 414.285M446.556 408.455L446.861 414.438C446.93 415.761 446.988 418.447 447.039 422.648C447.115 429.207 447.141 436.881 447.152 440.868C447.17 446.939 447.152 452.736 447.152 454.966C447.094 462.276 445.623 528.938 444.527 534.56C444.164 536.346 444.164 539.804 448.037 542.803C460.877 552.704 471.995 558.217 485.249 561.238C489.124 562.12 493.086 562.564 497.061 562.56C498.258 562.56 499.485 562.52 500.691 562.44C507.344 562.014 513.083 560.378 518.231 557.43C522.79 554.824 526.834 551.257 530.936 546.217C533.259 543.371 533.927 540.096 532.867 536.743C532.34 533.522 531.825 504.735 531.48 485.63C531.233 471.983 531.041 461.215 530.87 458.555C530.62 454.638 530.431 450.408 530.355 446.95C530.322 445.547 530.315 444.311 530.329 443.473L530.409 438.736L525.999 440.35C525.855 440.406 525.705 440.445 525.552 440.467C525.189 440.106 524.858 439.715 524.561 439.297C523.364 437.727 521.363 435.107 517.439 435.056C515.766 434.925 514.249 434.859 512.927 434.859C509.511 434.859 507.903 435.293 506.84 435.588L506.408 435.697C505.591 435.551 502.259 433.875 500.255 432.862C497.623 431.536 495.173 430.49 492.774 429.484C489.695 428.18 486.788 426.933 484.152 425.337C483.637 425.028 483.139 424.86 479.466 423.698C476.319 422.699 468.017 420.072 466.452 419.103C465.458 418.232 463.116 416.996 455.414 413.25C453.878 412.503 452.147 411.658 451.784 411.454L446.564 408.455H446.556Z" fill="#020201"/>
<path d="M527.636 458.785C522.798 460.324 517.756 461.125 512.681 461.161C498.215 461.227 483.492 458.381 470.721 452.288C464.35 449.249 458.566 446.227 453.37 443.222C452.321 442.536 451.336 441.757 450.426 440.894C450.426 434.808 450.194 419.635 450.132 414.293C461.69 420.633 471.633 436.765 484.791 440.996C495.87 444.552 504.219 447.445 516.783 447.682C520.238 447.77 523.695 447.556 527.113 447.041C527.182 450.167 527.357 454.442 527.636 458.785Z" fill="#5C210B"/>
<path d="M529.629 443.801C528.369 443.962 536.679 443.273 536.163 444.166C533.894 444.756 532.105 446.17 525.32 447.237C521.185 447.872 516.998 448.1 512.819 447.919C505.061 447.609 498.476 446.826 491.133 443.885C481.326 439.959 471.896 435.146 462.957 429.506C461.044 428.295 459.203 426.974 457.443 425.549C452.506 421.555 448.683 418.283 445.972 415.732C438.64 408.82 433.071 399.797 428.715 389.871C430.349 392.006 431.619 394.798 433.118 396.984C438.614 404.961 446.266 412.606 453.065 417.773C463.839 425.968 477.419 431.835 490.425 437.607C499.351 441.571 503.192 442.001 514.02 442.344C519.697 442.526 527.251 443.801 529.629 443.801Z" fill="#020201"/>
<path d="M526.772 447.081H526.725C491.416 444.356 463.65 433.129 444.201 413.71C432.035 401.546 423.395 386.29 419.204 369.575C416.972 360.392 414.246 351.144 410.855 341.302C410.021 338.868 409.149 336.313 408.256 333.704L407.741 332.203C399.421 307.81 394.956 294.357 394.455 292.214C393.333 287.339 393.613 268.299 393.624 267.49V267.436C394.481 246.665 398.789 228.325 406.427 212.901C412.654 200.193 421.575 189.006 432.563 180.123C441.431 172.967 451.747 167.202 463.225 162.997C483.034 155.749 499.939 155.381 503.13 155.381H503.453C503.736 155.363 504.825 155.305 506.589 155.305C516.027 155.305 540.446 156.861 563.689 171.276C576.986 179.51 588.004 190.97 595.731 204.6C605.329 221.34 610.854 242.103 612.15 266.313C612.317 269.425 611.812 274.716 611.188 280.798L610.916 283.4C609.899 293.191 608.632 305.376 608.698 316.374C608.781 330.293 605.22 352.529 603.089 364.543C602.276 369.13 601.692 372.089 601.685 372.118V372.188L601.663 372.253C596.788 389.161 589.912 403.591 581.23 415.171C574.224 424.507 566.031 432.014 556.876 437.483C540.962 446.986 527.429 447.081 526.859 447.081H526.772Z" fill="#833511"/>
<path d="M506.589 156.951C523.574 156.951 604.962 162.392 610.52 266.404C610.676 269.319 610.204 274.395 609.562 280.634C608.505 290.895 606.992 304.301 607.064 316.388C607.148 330.289 603.54 352.649 601.481 364.258C600.661 368.882 600.084 371.801 600.084 371.801C578.968 444.997 528.13 445.456 526.859 445.456H526.834C445.979 439.217 425.709 389.387 420.791 369.185C418.457 359.583 415.622 350.116 412.416 340.762C411.422 337.847 410.373 334.793 409.302 331.652C403.269 314.016 396.63 294.4 396.045 291.85C394.956 287.112 395.257 267.519 395.257 267.519C396.169 245.444 400.891 227.778 407.89 213.644C435.329 158.219 497.79 157.024 503.13 157.024H503.493C503.493 157.024 504.582 156.951 506.589 156.951ZM506.589 153.672C504.898 153.672 503.794 153.723 503.417 153.745H503.13C499.892 153.745 482.733 154.109 462.677 161.474C451.029 165.737 440.556 171.6 431.55 178.859C420.374 187.888 411.3 199.262 404.964 212.182C397.225 227.818 392.858 246.388 391.994 267.384V267.468C391.961 269.516 391.722 287.604 392.865 292.586C393.37 294.772 397.864 308.291 406.216 332.734L406.877 334.673L409.331 341.837C412.689 351.628 415.4 360.829 417.622 369.961C419.347 376.987 421.875 383.791 425.154 390.236C429.771 399.353 435.806 407.673 443.032 414.883C452.041 423.876 462.979 431.233 475.535 436.747C490.254 443.215 507.432 447.245 526.584 448.721H526.711H526.859C528.311 448.721 541.692 448.444 557.714 438.882C567.054 433.303 575.403 425.655 582.536 416.148C591.339 404.414 598.305 389.798 603.227 372.697L603.264 372.563L603.293 372.424C603.293 372.395 603.884 369.422 604.701 364.819C606.843 352.747 610.418 330.399 610.335 316.355C610.27 305.445 611.533 293.311 612.546 283.56C612.637 282.671 612.727 281.803 612.814 280.958C613.449 274.803 613.958 269.447 613.787 266.215C612.473 241.746 606.89 220.738 597.154 203.776C589.292 189.914 578.082 178.261 564.557 169.887C540.955 155.25 516.158 153.672 506.593 153.672H506.589Z" fill="#020201"/>
<path d="M409.302 331.671C403.269 314.017 396.63 294.401 396.045 291.85C394.956 287.113 395.257 267.52 395.257 267.52C396.169 245.445 400.891 227.779 407.89 213.645C404.986 224.529 400.071 254.161 411.883 307.862C416.736 329.962 414.558 335.053 409.302 331.671Z" fill="#3F1809"/>
<path d="M539.982 355.071C537.375 358.307 531.6 363.062 530.954 363.769C530.883 363.845 530.798 363.907 530.703 363.952C528.13 365.045 524.267 363.656 522.042 361.973C521.946 361.903 521.866 361.812 521.809 361.707C521.751 361.603 521.717 361.487 521.709 361.368C521.701 361.248 521.72 361.129 521.763 361.017C521.806 360.906 521.873 360.806 521.959 360.723C522.651 360.096 522.575 359.301 521.73 358.336C521.538 358.121 521.285 357.969 521.004 357.903L513.058 356.496C512.969 356.48 512.886 356.44 512.818 356.381C512.749 356.322 512.698 356.246 512.668 356.161C512.638 356.075 512.631 355.984 512.648 355.895C512.665 355.806 512.705 355.723 512.764 355.654C513.7 354.561 514.844 353.625 516.318 353.391C519.153 352.933 522.041 352.917 524.881 353.344C528.928 353.942 534.78 353.603 539.368 353.73C539.521 353.735 539.669 353.782 539.797 353.867C539.924 353.952 540.026 354.07 540.089 354.21C540.153 354.349 540.177 354.504 540.158 354.656C540.139 354.808 540.078 354.952 539.982 355.071Z" fill="#5C210B"/>
<path d="M530.903 363.857C528.035 362.764 537.669 358.413 539.067 355.254C541.764 349.161 541.506 347.412 537.295 336.725C536.769 335.387 536.206 334.075 535.6 332.764C532.671 326.234 530.449 313.815 534.78 309.147C534.883 309.037 535.019 308.963 535.167 308.937C535.315 308.91 535.468 308.933 535.603 309.001C535.737 309.069 535.846 309.179 535.913 309.314C535.98 309.45 536.001 309.603 535.974 309.752C534.457 319.03 538.152 332.221 544.102 342.238C544.397 342.718 544.656 343.22 544.875 343.739C548.302 352.262 540.283 363.413 530.903 363.857Z" fill="#010101"/>
<path d="M523.026 360.621C522.804 360.911 522.492 361.12 522.14 361.214C521.787 361.308 521.413 361.283 521.077 361.142C519.472 360.52 517.888 359.922 516.325 359.349C514.679 358.813 513.269 357.723 512.332 356.263C512.299 356.207 512.283 356.142 512.287 356.078C512.29 356.013 512.313 355.95 512.352 355.898C512.391 355.847 512.444 355.807 512.505 355.786C512.566 355.765 512.632 355.762 512.695 355.778L521.712 357.844C522.021 357.915 522.3 358.08 522.511 358.318C523.297 359.222 523.469 359.989 523.026 360.621Z" fill="#010101"/>
<path d="M507.188 269.523C507.757 269.602 508.335 269.524 508.863 269.298C509.39 269.072 509.846 268.705 510.182 268.239C510.518 267.772 510.721 267.222 510.769 266.649C510.817 266.075 510.709 265.499 510.455 264.982C508.869 261.761 505.475 258.001 498.208 256.718C485.408 254.466 456.397 263.641 446.408 274.431C446.29 274.556 446.217 274.715 446.198 274.886C446.179 275.056 446.217 275.228 446.304 275.375C446.392 275.522 446.525 275.637 446.683 275.701C446.841 275.766 447.016 275.776 447.181 275.732C455.661 273.403 484.835 265.893 499.645 268.502L507.188 269.523Z" fill="#291614" stroke="black" stroke-width="8" stroke-miterlimit="10"/>
<path d="M559.486 270.796L562.39 266.033C562.902 265.199 563.63 264.52 564.498 264.071C565.365 263.621 566.338 263.418 567.312 263.482C575.255 264.014 595.452 266.613 602.995 279.308C603.031 279.37 603.05 279.441 603.049 279.513C603.048 279.585 603.028 279.655 602.991 279.717C602.954 279.778 602.901 279.828 602.838 279.862C602.775 279.896 602.704 279.912 602.632 279.909C601.543 279.814 598.89 279.162 592.359 276.181C585.139 272.902 569.9 273.853 561.9 274.658C561.431 274.703 560.958 274.616 560.536 274.407C560.113 274.198 559.756 273.875 559.506 273.475C559.255 273.074 559.121 272.611 559.117 272.138C559.114 271.665 559.241 271.2 559.486 270.796Z" fill="#291614" stroke="black" stroke-width="8" stroke-miterlimit="10"/>
<path d="M503.13 312.376C500.716 300.297 492.748 293.515 480.922 292.699C473.128 292.163 465.893 293.588 459.828 298.722C454.23 303.46 453.849 309.782 452.996 316.629C451.888 313.454 451.589 309.544 452.099 304.899C453.339 293.634 459.474 287.542 470.507 286.621C479.666 285.852 492.77 288.079 499.152 295.1C502.941 299.262 504.461 304.716 503.711 311.462C503.609 312.318 503.413 312.62 503.13 312.376Z" fill="#020201"/>
<path d="M503.13 312.376C502.716 316.311 502.404 320.724 500.912 324.189C497.347 332.568 490.943 337.747 481.699 339.727C475.165 341.13 468.485 338.794 463.186 335.128C457.174 330.974 453.779 324.812 453 316.643C453.853 309.796 454.234 303.466 459.831 298.737C465.897 293.602 473.132 292.177 480.925 292.713C492.734 293.515 500.702 300.296 503.13 312.376ZM475.905 293.65C472.028 293.58 468.282 295.49 465.465 298.962C462.648 302.435 461.037 307.176 460.949 312.15C460.902 314.587 461.235 317.017 461.937 319.35C462.598 321.561 463.64 323.639 465.015 325.49C466.267 327.187 467.86 328.601 469.691 329.641C471.397 330.599 473.311 331.122 475.266 331.164C479.147 331.233 482.889 329.32 485.71 325.851C488.53 322.382 490.138 317.638 490.225 312.664C490.271 310.228 489.936 307.799 489.234 305.467C488.578 303.255 487.541 301.176 486.171 299.323C484.918 297.626 483.324 296.212 481.492 295.173C479.782 294.212 477.864 293.689 475.905 293.65Z" fill="#FDFAE9"/>
<path d="M475.905 293.65C477.859 293.691 479.773 294.216 481.477 295.177C483.31 296.214 484.904 297.627 486.156 299.324C487.528 301.176 488.565 303.255 489.22 305.468C489.923 307.8 490.258 310.228 490.211 312.664C490.124 317.638 488.501 322.383 485.695 325.852C482.889 329.321 479.132 331.234 475.252 331.168C473.297 331.124 471.382 330.599 469.676 329.641C467.85 328.6 466.262 327.186 465.015 325.491C463.644 323.639 462.606 321.561 461.948 319.351C461.247 317.017 460.914 314.588 460.96 312.15C461.047 307.177 462.67 302.432 465.476 298.963C468.282 295.494 472.032 293.581 475.905 293.65ZM483.481 301.973C483.115 301.976 482.755 302.059 482.424 302.217C482.084 302.377 481.78 302.605 481.532 302.888C481.273 303.181 481.072 303.521 480.94 303.89C480.801 304.266 480.732 304.665 480.737 305.067C480.737 305.865 481.03 306.636 481.561 307.231C481.807 307.509 482.11 307.732 482.448 307.884C482.787 308.037 483.153 308.116 483.524 308.117C483.89 308.115 484.25 308.033 484.581 307.876C484.92 307.714 485.223 307.486 485.474 307.206C485.731 306.911 485.932 306.572 486.065 306.204C486.201 305.826 486.269 305.428 486.265 305.027C486.267 304.228 485.973 303.456 485.441 302.862C485.196 302.585 484.895 302.362 484.559 302.209C484.222 302.056 483.858 301.975 483.488 301.973H483.481Z" fill="#020201"/>
<path d="M486.272 305.026C486.272 303.328 485.016 301.962 483.488 301.973C481.96 301.984 480.733 303.368 480.744 305.066C480.755 306.764 482.003 308.127 483.532 308.116C485.06 308.105 486.287 306.724 486.272 305.026Z" fill="#FDFAE9"/>
<path d="M598.443 321.767C598.959 316.575 598.984 312.538 598.519 309.654C597.551 303.686 594.149 299.172 588.312 296.113C587.786 295.84 587.215 295.666 586.627 295.6C579.532 294.786 573.907 295.079 569.752 296.478C563.254 298.664 558.722 303.986 556.157 312.442C556.724 299.421 563.201 292.227 575.589 290.859C579.703 290.407 583.036 290.414 585.589 290.881C593.492 292.338 600.08 297.968 601.471 306.229C602.33 311.352 601.32 316.532 598.443 321.767Z" fill="#020201"/>
<path d="M598.443 321.766C597.446 325.077 596.491 327.407 595.579 328.755C585.589 343.531 562.419 348.01 556.978 325.629C555.816 320.85 555.543 316.455 556.157 312.442C558.72 303.992 563.251 298.671 569.752 296.477C573.904 295.078 579.53 294.785 586.627 295.599C587.515 295.788 588.376 296.083 589.194 296.477C595.024 299.535 597.543 303.685 598.519 309.654C598.984 312.537 598.959 316.575 598.443 321.766ZM571.283 297.95C568.038 298.088 565 300.008 562.836 303.292C560.673 306.575 559.569 310.944 559.751 315.455C559.838 317.657 560.243 319.834 560.952 321.919C561.615 323.869 562.596 325.694 563.856 327.32C564.962 328.771 566.361 329.971 567.962 330.84C569.42 331.614 571.054 331.991 572.703 331.933C575.948 331.794 578.986 329.874 581.15 326.591C583.313 323.308 584.417 318.939 584.235 314.427C584.146 312.226 583.74 310.048 583.03 307.963C582.376 306.014 581.402 304.189 580.148 302.563C579.036 301.11 577.629 299.912 576.021 299.046C574.564 298.271 572.931 297.893 571.283 297.95Z" fill="#FDFAE9"/>
<path d="M571.284 297.949C572.932 297.891 574.566 298.268 576.024 299.042C577.632 299.907 579.038 301.106 580.148 302.559C581.401 304.185 582.375 306.011 583.03 307.959C583.744 310.05 584.15 312.233 584.235 314.442C584.424 318.945 583.313 323.325 581.15 326.605C578.986 329.884 575.948 331.794 572.703 331.932C571.062 331.987 569.435 331.61 567.984 330.839C566.375 329.974 564.969 328.775 563.857 327.323C562.603 325.697 561.629 323.871 560.974 321.923C560.26 319.838 559.85 317.661 559.758 315.458C559.573 310.951 560.68 306.574 562.844 303.291C565.007 300.008 568.038 298.088 571.284 297.949ZM580.783 306.997C580.783 306.347 580.542 305.72 580.107 305.238C579.672 304.756 579.074 304.454 578.429 304.39C577.785 304.327 577.139 304.506 576.619 304.893C576.099 305.28 575.74 305.848 575.614 306.486C575.487 307.123 575.601 307.786 575.934 308.344C576.267 308.901 576.794 309.315 577.414 309.504C578.034 309.694 578.701 309.645 579.287 309.367C579.873 309.09 580.335 308.603 580.584 308.003C580.715 307.684 580.783 307.342 580.783 306.997Z" fill="#020201"/>
<path d="M578.169 309.622C578.686 309.622 579.192 309.468 579.622 309.18C580.051 308.892 580.386 308.482 580.584 308.003C580.782 307.523 580.834 306.996 580.733 306.487C580.632 305.978 580.383 305.51 580.018 305.143C579.652 304.777 579.186 304.527 578.679 304.425C578.172 304.324 577.647 304.376 577.169 304.575C576.692 304.773 576.284 305.11 575.996 305.541C575.709 305.972 575.556 306.48 575.556 306.999C575.555 307.343 575.623 307.685 575.754 308.003C575.885 308.322 576.078 308.611 576.32 308.855C576.563 309.099 576.851 309.292 577.169 309.424C577.486 309.555 577.826 309.623 578.169 309.622Z" fill="#FDFAE9"/>
<path d="M480.076 371.808C480.964 371.845 481.853 371.836 482.74 371.782C483.623 371.733 484.5 371.624 485.368 371.458C486.199 371.311 487.01 371.074 487.79 370.751C488.467 370.479 489.083 370.075 489.605 369.563C489.88 369.265 490.263 369.09 490.667 369.075C491.072 369.061 491.466 369.208 491.763 369.485C492.059 369.762 492.234 370.145 492.249 370.552C492.263 370.958 492.117 371.353 491.841 371.651L491.764 371.731C490.904 372.498 489.896 373.079 488.802 373.44C487.82 373.771 486.805 373.995 485.775 374.111C484.79 374.229 483.798 374.283 482.806 374.271C481.817 374.268 480.829 374.21 479.847 374.096C479.545 374.071 479.265 373.926 479.069 373.694C478.873 373.462 478.777 373.161 478.802 372.857C478.827 372.554 478.971 372.273 479.202 372.076C479.434 371.879 479.734 371.783 480.036 371.808H480.076Z" fill="#010101"/>
<path d="M488.047 371.651C488.585 372.016 489.191 372.424 489.775 372.799C490.36 373.175 490.959 373.565 491.558 373.936C492.763 374.665 493.964 375.394 495.188 376.101L497.032 377.117L498.894 378.112C500.142 378.753 501.397 379.38 502.658 379.992L504.564 380.871L506.491 381.698C507.776 382.237 509.069 382.773 510.361 383.214L511.326 383.578C511.65 383.691 511.984 383.778 512.31 383.88C512.967 384.07 513.617 384.292 514.278 384.474L516.267 384.988C516.597 385.083 516.935 385.141 517.269 385.214L518.274 385.426C523.666 386.507 529.179 386.857 534.664 386.464C535.353 386.439 536.036 386.344 536.726 386.285L537.757 386.187L538.784 386.034C539.466 385.921 540.16 385.874 540.842 385.739L542.893 385.374C545.619 384.824 548.338 384.095 551.031 383.287H551.06C551.398 383.184 551.761 383.211 552.08 383.362C552.399 383.513 552.65 383.778 552.786 384.104C552.922 384.431 552.932 384.797 552.814 385.13C552.696 385.464 552.46 385.742 552.149 385.91C549.527 387.332 546.783 388.514 543.949 389.441L541.797 390.079C541.434 390.192 541.071 390.279 540.708 390.367C540.345 390.454 539.982 390.545 539.619 390.625L538.53 390.877L537.441 391.077C536.715 391.198 535.963 391.361 535.216 391.442C529.223 392.274 523.132 392.073 517.207 390.848C516.481 390.687 515.722 390.556 514.993 390.356L512.815 389.765C512.089 389.558 511.363 389.303 510.637 389.066C510.274 388.942 509.911 388.836 509.548 388.701L508.491 388.286C507.072 387.75 505.718 387.142 504.361 386.526L502.36 385.542L500.393 384.5L498.451 383.407C497.812 383.042 497.184 382.638 496.549 382.255L494.679 381.06C494.066 380.648 493.449 380.24 492.864 379.81C491.659 378.95 490.465 378.079 489.314 377.15C488.737 376.684 488.163 376.217 487.601 375.729C487.038 375.241 486.512 374.763 485.924 374.21C485.622 373.919 485.44 373.525 485.414 373.106C485.388 372.687 485.521 372.274 485.784 371.948C486.048 371.622 486.424 371.408 486.838 371.347C487.252 371.287 487.673 371.385 488.018 371.622L488.047 371.651Z" fill="#010101"/>
<path d="M550.32 381.289C550.32 381.289 550.817 384.099 555.402 385.636" stroke="#010101" stroke-width="3" stroke-linecap="round" stroke-linejoin="round"/>
<path d="M510.114 395.314C510.84 395.555 511.621 395.865 512.379 396.12C513.138 396.375 513.897 396.655 514.652 396.921C516.164 397.439 517.678 397.911 519.193 398.339C520.706 398.758 522.227 399.068 523.756 399.337C525.291 399.561 526.837 399.7 528.388 399.753H528.482C528.782 399.768 529.067 399.888 529.287 400.093C529.508 400.298 529.65 400.574 529.688 400.873C529.727 401.171 529.659 401.474 529.498 401.729C529.336 401.983 529.091 402.172 528.805 402.263C527.075 402.801 525.268 403.046 523.458 402.988C521.672 402.93 519.898 402.665 518.173 402.198C516.473 401.738 514.822 401.113 513.243 400.332C512.459 399.944 511.694 399.518 510.953 399.053C510.199 398.58 509.479 398.054 508.8 397.479C508.585 397.281 508.443 397.016 508.397 396.727C508.352 396.438 508.406 396.142 508.55 395.887C508.695 395.633 508.921 395.436 509.192 395.328C509.463 395.219 509.763 395.207 510.042 395.292L510.114 395.314Z" fill="#010101"/>
<path d="M416.471 307.324C416.471 307.324 396.993 269.377 380.367 290.267C363.742 311.158 377.057 349.346 393.141 360.355C409.226 371.363 418.551 357.804 418.551 357.804L416.471 307.324Z" fill="#833511"/>
<path d="M401.174 341.83C400.252 337.763 400.278 331.645 405.483 325.374C405.483 325.374 398.586 299.137 387.333 297.68C376.08 296.222 378.305 317.237 380.458 322.214C382.611 327.192 387.355 344.985 394.786 345.565C395.875 345.648 396.833 345.736 397.661 345.82C398.176 345.872 398.697 345.8 399.18 345.611C399.662 345.421 400.093 345.119 400.436 344.729C400.78 344.339 401.026 343.873 401.154 343.369C401.282 342.864 401.289 342.337 401.174 341.83Z" fill="#3F1809"/>
<path d="M401.428 346.165C401.312 345.801 401.142 345.436 400.946 345.01C400.741 344.559 400.559 344.098 400.401 343.629C399.809 341.768 399.501 339.829 399.486 337.875C399.468 337.387 399.508 336.899 399.523 336.418C399.537 335.937 399.599 335.445 399.686 334.96C399.977 333.033 400.553 331.16 401.396 329.403C402.237 327.671 403.284 326.047 404.514 324.568L404.263 325.694C403.719 323.562 403.051 321.394 402.329 319.277C401.606 317.16 400.804 315.061 399.911 313.009C399.032 310.959 398.027 308.965 396.902 307.04C395.813 305.127 394.502 303.349 392.996 301.746C392.633 301.341 392.215 301.017 391.82 300.634C391.613 300.463 391.395 300.306 391.185 300.142C391.079 300.062 390.978 299.975 390.865 299.902L390.531 299.691C390.32 299.542 390.101 299.406 389.874 299.282L389.17 298.918C388.693 298.718 388.198 298.563 387.692 298.455C386.692 298.213 385.648 298.213 384.647 298.455C384.16 298.584 383.696 298.784 383.268 299.049C382.839 299.327 382.446 299.657 382.099 300.033C381.401 300.842 380.849 301.767 380.469 302.766C380.074 303.794 379.779 304.859 379.587 305.944C379.207 308.152 379.057 310.394 379.14 312.634C379.145 312.734 379.109 312.832 379.041 312.907C378.973 312.981 378.879 313.025 378.779 313.029C378.679 313.034 378.581 312.998 378.507 312.93C378.433 312.862 378.389 312.767 378.385 312.667C378.226 310.377 378.306 308.078 378.621 305.805C378.789 304.648 379.068 303.509 379.452 302.405C379.847 301.264 380.439 300.202 381.202 299.268C381.607 298.795 382.072 298.377 382.585 298.025C383.109 297.675 383.681 297.405 384.284 297.224C385.478 296.881 386.737 296.831 387.954 297.078C388.558 297.186 389.151 297.351 389.725 297.57L390.557 297.934C390.822 298.077 391.079 298.236 391.326 298.408L391.715 298.638C391.842 298.718 391.958 298.809 392.078 298.896C392.321 299.071 392.568 299.242 392.804 299.425C393.254 299.811 393.726 300.179 394.136 300.605C395.792 302.247 397.248 304.082 398.47 306.071C399.7 308.026 400.807 310.056 401.784 312.149C402.771 314.23 403.661 316.351 404.47 318.497C405.28 320.643 406.024 322.804 406.681 325.056C406.733 325.235 406.741 325.425 406.707 325.608C406.672 325.792 406.595 325.965 406.481 326.113L406.431 326.182C405.332 327.495 404.396 328.936 403.643 330.474C402.901 332.004 402.392 333.636 402.133 335.317C402.053 335.733 402.038 336.159 401.987 336.578C401.937 336.997 401.933 337.423 401.947 337.85C401.956 339.55 402.217 341.24 402.721 342.864C402.851 343.259 403.001 343.647 403.171 344.026C403.341 344.42 403.559 344.883 403.73 345.396C403.832 345.703 403.808 346.037 403.665 346.326C403.521 346.615 403.269 346.835 402.964 346.938C402.659 347.04 402.325 347.017 402.038 346.873C401.75 346.728 401.53 346.475 401.428 346.169V346.165Z" fill="#020201"/>
<path d="M391.689 338.881C391.101 337.651 390.595 336.384 390.172 335.087C389.731 333.796 389.368 332.479 389.083 331.145C388.493 328.428 388.335 325.635 388.615 322.869C388.785 321.45 389.112 320.054 389.591 318.708C389.725 318.373 389.834 318.026 389.99 317.699L390.455 316.715C390.796 316.07 391.178 315.448 391.598 314.853C392.021 314.254 392.478 313.681 392.967 313.136C393.481 312.606 394.024 312.105 394.593 311.635C395.706 310.705 396.91 309.891 398.187 309.205C398.594 308.973 399.076 308.913 399.527 309.039C399.978 309.164 400.361 309.464 400.592 309.873C400.822 310.282 400.882 310.766 400.757 311.219C400.632 311.671 400.333 312.056 399.926 312.287C399.891 312.31 399.855 312.329 399.817 312.346L399.726 312.389C398.619 312.878 397.564 313.479 396.579 314.182C396.091 314.531 395.623 314.907 395.178 315.308C394.745 315.723 394.336 316.162 393.954 316.624C393.57 317.086 393.216 317.573 392.894 318.081L392.444 318.872C392.292 319.134 392.183 319.418 392.045 319.692C391.543 320.824 391.168 322.008 390.927 323.223C390.479 325.75 390.434 328.333 390.793 330.875C390.959 332.166 391.201 333.446 391.519 334.708C391.83 335.974 392.22 337.219 392.687 338.436V338.454C392.736 338.585 392.734 338.73 392.68 338.858C392.626 338.987 392.525 339.09 392.398 339.147C392.271 339.203 392.127 339.209 391.995 339.162C391.864 339.115 391.756 339.02 391.693 338.895L391.689 338.881Z" fill="#020201"/>
<path d="M416.471 307.324C416.471 307.324 406.873 288.627 395.417 284.706C390.546 283.041 385.337 284.04 380.382 290.267C363.738 311.161 377.057 349.346 393.141 360.354C409.226 371.363 418.551 357.804 418.551 357.804" stroke="black" stroke-width="4" stroke-linecap="round" stroke-linejoin="round"/>
</svg>
