<svg width="1000" height="1000" viewBox="0 0 1000 1000" fill="none" xmlns="http://www.w3.org/2000/svg">
<path d="M497.066 560.955C493.213 560.957 489.371 560.527 485.613 559.672C472.614 556.706 461.677 551.291 449.041 541.54C446.017 539.201 445.792 536.643 446.137 534.904C447.277 529.038 448.732 462.536 448.79 455.015C448.809 452.778 448.812 446.976 448.79 440.898C448.79 436.89 448.754 429.198 448.678 422.642C448.627 418.419 448.565 415.719 448.5 414.371L448.348 411.379L450.939 412.862C451.339 413.092 452.954 413.879 454.667 414.709C461.437 417.989 464.595 419.603 465.416 420.39C466.563 421.327 475.235 424.074 478.938 425.244C482.451 426.337 482.931 426.523 483.275 426.727C486.027 428.407 488.985 429.66 492.122 430.987C494.481 431.985 496.924 433.02 499.505 434.321C503.64 436.405 505.618 437.335 506.402 437.335C506.691 437.313 506.977 437.256 507.252 437.163C508.232 436.901 509.716 436.5 512.918 436.5C514.21 436.5 515.706 436.566 517.357 436.697C520.53 436.73 522.102 438.789 523.253 440.297C524.24 441.587 524.705 442.119 525.485 442.119C525.846 442.107 526.202 442.033 526.538 441.9L528.763 441.102L528.723 443.475C528.723 444.327 528.723 445.584 528.748 447.013C528.825 450.489 529.013 454.742 529.268 458.673C529.434 461.286 529.631 472.59 529.874 485.682C530.237 505.225 530.756 534.733 531.304 537.149C532.233 539.999 531.667 542.783 529.699 545.202C521.496 555.248 512.522 560.069 500.598 560.831C499.418 560.915 498.231 560.955 497.066 560.955Z" fill="#E68856"/>
<path d="M450.134 414.287C451.528 415.085 463.155 420.482 464.291 421.575C465.928 423.171 481.715 427.704 482.441 428.134C487.349 431.137 492.757 432.751 498.776 435.786C503.782 438.308 505.31 438.975 506.399 438.975C507.64 438.975 508.37 438.14 512.911 438.14C514.091 438.14 515.521 438.195 517.267 438.337H517.293C521.79 438.337 521.946 443.752 525.464 443.752C526.02 443.744 526.57 443.638 527.09 443.439C527.09 444.291 527.09 445.534 527.115 447.043C527.184 450.169 527.359 454.443 527.638 458.787C528.081 465.71 528.785 534.73 529.743 537.642C530.518 539.983 530.082 542.16 528.437 544.171C521.387 552.804 513.303 558.383 500.486 559.203C499.336 559.28 498.194 559.318 497.059 559.316C493.328 559.321 489.608 558.904 485.969 558.073C471.972 554.881 461.118 548.792 450.032 540.24C448.133 538.782 447.367 537.111 447.734 535.226C448.936 529.053 450.37 461.494 450.421 455.03C450.439 452.909 450.442 447.32 450.421 440.895C450.421 434.81 450.37 427.974 450.308 422.625C450.261 418.835 450.203 415.789 450.127 414.287M446.558 408.457L446.863 414.44C446.932 415.759 446.99 418.449 447.041 422.65C447.117 429.209 447.143 436.887 447.154 440.87C447.172 446.93 447.154 452.727 447.154 454.968C447.096 462.281 445.625 528.94 444.529 534.562C444.166 536.348 444.166 539.806 448.039 542.805C460.875 552.706 471.997 558.219 485.251 561.24C489.126 562.122 493.088 562.566 497.063 562.562C498.26 562.562 499.487 562.522 500.693 562.442C507.346 562.016 513.085 560.38 518.233 557.432C522.792 554.826 526.836 551.259 530.938 546.219C533.261 543.373 533.929 540.098 532.869 536.745C532.343 533.524 531.827 504.737 531.482 485.635C531.235 471.985 531.043 461.221 530.872 458.557C530.622 454.64 530.433 450.41 530.357 446.951C530.324 445.549 530.317 444.313 530.332 443.475L530.411 438.738L526.001 440.352C525.857 440.408 525.707 440.447 525.554 440.469C525.191 440.108 524.86 439.717 524.563 439.299C523.366 437.729 521.365 435.109 517.441 435.058C515.768 434.927 514.251 434.861 512.929 434.861C509.513 434.861 507.905 435.295 506.842 435.59L506.41 435.699C505.593 435.553 502.261 433.877 500.257 432.864C497.625 431.538 495.175 430.492 492.776 429.486C489.697 428.182 486.79 426.935 484.154 425.339C483.639 425.03 483.142 424.862 479.472 423.7C476.321 422.705 468.019 420.074 466.454 419.105C465.46 418.234 463.118 416.998 455.416 413.252C453.88 412.505 452.149 411.66 451.786 411.456L446.566 408.457H446.558Z" fill="#020201"/>
<path d="M527.637 458.787C522.798 460.326 517.757 461.127 512.681 461.163C498.216 461.229 483.493 458.383 470.722 452.29C464.35 449.251 458.567 446.229 453.371 443.224C452.322 442.538 451.336 441.759 450.427 440.896C450.427 434.81 450.195 419.637 450.133 414.295C461.691 420.635 471.633 436.767 484.792 440.998C495.871 444.554 504.22 447.447 516.783 447.684C520.239 447.772 523.696 447.558 527.114 447.043C527.183 450.169 527.357 454.444 527.637 458.787Z" fill="#CE6D40"/>
<path d="M529.629 443.801C528.369 443.962 536.678 443.273 536.163 444.166C533.894 444.756 532.105 446.17 525.32 447.237C521.185 447.872 516.998 448.1 512.818 447.919C505.061 447.609 498.476 446.826 491.133 443.885C481.326 439.959 471.895 435.146 462.957 429.506C461.044 428.295 459.203 426.974 457.443 425.549C452.506 421.555 448.682 418.283 445.972 415.732C438.639 408.82 433.071 399.797 428.715 389.871C430.348 392.006 431.619 394.798 433.118 396.984C438.614 404.961 446.266 412.606 453.065 417.773C463.839 425.968 477.419 431.835 490.425 437.607C499.351 441.571 503.192 442.001 514.02 442.344C519.697 442.526 527.251 443.801 529.629 443.801Z" fill="#020201"/>
<path d="M526.769 447.081H526.722C491.413 444.356 463.647 433.129 444.197 413.71C432.032 401.546 423.392 386.29 419.201 369.575C416.969 360.389 414.243 351.144 410.852 341.302C409.992 338.806 409.095 336.182 408.181 333.5L407.734 332.203C399.418 307.814 394.953 294.361 394.452 292.214C393.33 287.339 393.61 268.299 393.621 267.49V267.436C394.477 246.665 398.786 228.325 406.424 212.901C412.652 200.194 421.572 189.007 432.56 180.123C441.428 172.967 451.744 167.202 463.222 162.997C483.031 155.749 499.936 155.381 503.127 155.381H503.45C503.733 155.363 504.822 155.305 506.586 155.305C516.024 155.305 540.443 156.861 563.686 171.276C576.982 179.51 588.001 190.97 595.728 204.6C605.326 221.34 610.851 242.103 612.147 266.313C612.314 269.425 611.809 274.716 611.185 280.798L610.912 283.4C609.896 293.191 608.629 305.376 608.695 316.374C608.778 330.293 605.217 352.529 603.086 364.543C602.273 369.13 601.689 372.089 601.681 372.118V372.188L601.66 372.253C596.785 389.161 589.909 403.591 581.226 415.171C574.22 424.507 566.028 432.014 556.873 437.483C540.959 446.986 527.426 447.081 526.856 447.081H526.769Z" fill="#E68856"/>
<path d="M506.588 156.951C523.572 156.951 604.961 162.392 610.518 266.404C610.674 269.319 610.202 274.395 609.56 280.634C608.503 290.895 606.99 304.301 607.062 316.388C607.146 330.289 603.538 352.649 601.479 364.258C600.659 368.882 600.082 371.801 600.082 371.801C578.966 444.997 528.128 445.456 526.857 445.456H526.832C445.977 439.217 425.708 389.387 420.789 369.185C418.455 359.583 415.62 350.116 412.414 340.762C411.42 337.847 410.371 334.793 409.3 331.652C403.267 314.016 396.628 294.4 396.043 291.85C394.954 287.112 395.255 267.519 395.255 267.519C396.167 245.444 400.889 227.778 407.888 213.644C435.327 158.219 497.788 157.024 503.128 157.024H503.491C503.491 157.024 504.58 156.951 506.588 156.951ZM506.588 153.672C504.896 153.672 503.792 153.723 503.415 153.745H503.128C499.89 153.745 482.731 154.109 462.675 161.474C451.027 165.737 440.554 171.6 431.548 178.859C420.372 187.888 411.298 199.262 404.962 212.182C397.223 227.818 392.856 246.388 391.992 267.384V267.468C391.959 269.516 391.72 287.604 392.863 292.586C393.368 294.772 397.862 308.291 406.214 332.734L406.755 334.32C407.637 336.899 408.501 339.421 409.329 341.837C412.687 351.628 415.398 360.825 417.62 369.961C419.345 376.987 421.873 383.791 425.152 390.236C429.769 399.353 435.804 407.673 443.03 414.883C452.04 423.876 462.977 431.233 475.533 436.747C490.253 443.215 507.43 447.245 526.582 448.721H526.705H526.857C528.309 448.721 541.69 448.444 557.712 438.882C567.052 433.303 575.401 425.655 582.534 416.148C591.337 404.414 598.303 389.798 603.225 372.697L603.265 372.563L603.294 372.424C603.294 372.395 603.886 369.422 604.703 364.819C606.845 352.747 610.42 330.399 610.337 316.355C610.271 305.445 611.534 293.311 612.547 283.56C612.638 282.671 612.729 281.8 612.816 280.954C613.451 274.8 613.959 269.443 613.789 266.211C612.475 241.742 606.892 220.735 597.156 203.772C589.293 189.911 578.084 178.257 564.559 169.884C540.953 155.25 516.156 153.672 506.591 153.672H506.588Z" fill="#020201"/>
<path d="M409.301 331.671C403.268 314.017 396.629 294.401 396.045 291.85C394.956 287.113 395.257 267.52 395.257 267.52C396.168 245.445 400.891 227.779 407.889 213.645C404.985 224.529 400.07 254.161 411.882 307.862C416.736 329.962 414.558 335.053 409.301 331.671Z" fill="#CE6D40"/>
<path d="M480.724 369.006C480.809 369.002 480.893 369.028 480.96 369.079C481.03 369.128 481.08 369.201 481.102 369.283C481.131 369.363 481.131 369.451 481.102 369.531C481.071 369.61 481.015 369.677 480.942 369.721L477.675 371.608C477.408 371.761 477.208 372.01 477.115 372.304C477.022 372.599 477.043 372.917 477.174 373.197C478.757 376.699 487.85 381.6 491.132 383.072C501.813 387.944 513.378 390.563 525.108 390.764C536.586 390.939 545.219 390.764 555.473 386.683C558.305 385.546 560.308 384.05 561.485 382.194C561.532 382.114 561.6 382.049 561.681 382.004C561.764 381.961 561.856 381.938 561.949 381.939C562.043 381.941 562.135 381.969 562.214 382.019C562.296 382.067 562.365 382.134 562.414 382.216L562.686 382.678C562.857 382.983 562.932 383.332 562.9 383.68C562.868 384.027 562.728 384.354 562.501 384.617C558.958 388.691 552.587 390.812 547.255 391.828C530.753 394.928 514.257 393.786 497.767 388.403C489.312 385.659 481.554 381.099 475.033 375.041C474.943 374.961 474.84 374.899 474.728 374.858C474.611 374.817 474.487 374.802 474.365 374.815C474.246 374.821 474.13 374.855 474.027 374.913C473.922 374.968 473.83 375.045 473.758 375.139L472.099 377.256C472.034 377.342 471.944 377.406 471.842 377.438C471.739 377.473 471.628 377.473 471.526 377.438C471.425 377.401 471.34 377.331 471.283 377.239C471.227 377.147 471.202 377.039 471.214 376.932C471.566 372.177 476.376 369.127 480.724 369.006Z" fill="#020201"/>
<path d="M549.166 360.67C545.83 366.959 536.527 373.839 531.038 373.733C528.394 373.685 525.789 373.082 523.391 371.963C520.993 370.844 518.855 369.234 517.113 367.236C515.908 365.848 515.084 364.449 515.208 363.29C515.252 362.878 515.448 362.498 515.758 362.224C516.068 361.95 516.468 361.803 516.881 361.81L534.349 362.827C539.386 363.12 544.43 362.386 549.177 360.67H549.166ZM519.037 365.476C519.235 365.933 519.572 366.316 519.999 366.569C521.693 367.729 523.616 368.508 525.637 368.854C526 368.919 526.375 368.858 526.7 368.683C527.025 368.508 527.282 368.228 527.43 367.889V367.856C527.48 367.728 527.499 367.591 527.488 367.455C527.48 367.318 527.441 367.184 527.372 367.065C527.306 366.945 527.214 366.841 527.103 366.763C526.994 366.685 526.871 366.632 526.74 366.606L519.277 365.188C519.241 365.179 519.204 365.179 519.168 365.188C519.133 365.203 519.102 365.225 519.077 365.254C519.051 365.282 519.034 365.318 519.03 365.356C519.02 365.396 519.021 365.437 519.034 365.476H519.037Z" fill="#CE6D40"/>
<path d="M519.034 365.477C519.025 365.438 519.025 365.398 519.034 365.36C519.04 365.322 519.056 365.287 519.081 365.258C519.106 365.23 519.137 365.207 519.172 365.192C519.208 365.183 519.245 365.183 519.281 365.192L526.726 366.606C526.858 366.629 526.982 366.683 527.089 366.763C527.2 366.842 527.292 366.945 527.358 367.065C527.426 367.185 527.467 367.318 527.477 367.455C527.486 367.592 527.465 367.729 527.416 367.856V367.889C527.269 368.229 527.013 368.509 526.688 368.684C526.363 368.859 525.989 368.919 525.626 368.855C523.606 368.51 521.683 367.736 519.985 366.584C519.56 366.324 519.228 365.937 519.034 365.477Z" fill="#201116"/>
<path d="M539.43 306.791C539.02 307.203 539.111 308.03 539.067 308.613C538.828 311.893 537.024 325.495 539.677 332.769C542.697 341.044 543.895 346.386 548.505 353.069C553.115 359.752 540.461 371.733 532.323 372.968C532.323 372.968 530.21 374.426 535.546 374.324C540.882 374.222 549.188 368.519 551.206 362.069C553.224 355.62 552.818 354.37 551.206 351.535C549.594 348.7 542.334 335.943 541.608 326.833C540.882 317.723 543.06 310.071 540.156 306.791C539.917 306.518 539.793 306.427 539.43 306.791Z" fill="#020201"/>
<path d="M623.282 279.096C623.848 279.461 614.363 278.575 613.481 278.368C612.171 279.096 607.862 277.471 606.348 277.406C597.948 277.019 590.247 276.767 583.243 276.648C578.227 276.571 572.117 277.792 568.574 278.105C563.635 278.55 560.046 279.296 557.808 280.343C553.336 282.449 549.81 285.28 547.23 288.837C547.099 289.018 546.986 289.212 546.892 289.416L543.513 296.875C543.436 297.048 543.325 297.203 543.186 297.331C543.046 297.458 542.882 297.556 542.703 297.618C542.526 297.681 542.339 297.705 542.152 297.691C541.964 297.68 541.78 297.63 541.611 297.546C537.313 295.396 532.945 294.632 528.507 295.254C526.858 295.483 525.512 295.418 523.896 296.383C523.788 296.448 523.669 296.492 523.544 296.51C523.42 296.529 523.293 296.523 523.17 296.493C522.922 296.43 522.707 296.274 522.571 296.055C521.228 293.825 520.299 290.644 519.174 288.837C515.861 283.524 511.435 280.001 505.895 278.269C492.479 274.057 478.223 272.349 463.127 273.146C458.224 273.401 454.774 273.529 452.777 273.529C447.543 273.529 433.212 274.068 431.64 279.18C430.967 281.337 430.567 284.289 430.438 288.035C430.424 288.476 430.456 288.917 430.536 289.35C431.179 293.056 431.602 296.796 431.803 300.552C431.923 303.233 432.256 305.9 432.798 308.528C434.787 318.221 436.723 326.549 438.606 333.511C439.913 338.559 442.509 343.178 446.138 346.91C446.44 347.221 446.782 347.491 447.155 347.712C453.689 351.516 459.405 353.78 464.303 354.504C470.466 355.352 476.686 355.718 482.906 355.597C489.147 355.564 495.299 354.121 500.908 351.374C503.443 350.108 505.731 348.394 507.659 346.312C510.384 343.412 512.178 341.207 513.039 339.699C514.752 336.715 516.829 331.621 519.268 324.416C520.72 320.127 521.421 313.12 521.925 309.866C522.328 307.224 523.443 305.129 525.737 304.119C531.458 301.559 536.563 302.381 541.052 306.586C542.615 308.066 543.373 309.631 543.324 311.283C543.048 319.125 543.452 326.091 544.537 332.181C546.45 342.923 554.338 354.959 566.364 356.595C570.335 357.135 575.636 357.508 582.267 357.714C587.187 357.874 592.961 356.583 599.589 353.841C604.995 351.611 608.981 347.569 611.546 341.717C614.281 335.486 616.536 329.77 618.313 324.569C618.442 324.189 618.529 323.795 618.574 323.396C618.914 320.363 619.867 317.432 621.373 314.781L620.596 324.427C617.884 335.246 613.939 345.562 606.112 353.061C605.826 353.338 593.513 363.993 565.631 359.226C561.843 358.541 557.487 356.57 552.563 353.312C547.778 349.06 538.848 335.373 541.516 313.051C541.641 311.948 541.483 310.832 541.057 309.807C540.632 308.783 539.953 307.885 539.084 307.198C535.538 304.349 529.385 301.368 524.528 308.805C524.336 309.109 524.22 309.456 524.19 309.815C523.316 321.413 520.528 331.835 514.288 341.732C508.429 351.007 500.035 356.31 489.106 357.641C478.173 359.008 467.079 358.196 456.458 355.254C447.724 352.842 441.78 347.719 438.624 339.884C432.867 325.586 429.551 309.878 428.678 292.761C428.642 292.134 428.377 291.541 427.932 291.098C427.488 290.655 426.897 290.392 426.271 290.36C421.443 290.141 415.99 290.774 409.911 292.258C409.835 292.258 407.297 294.044 405.918 292.969C404.027 291.478 402.582 289.463 400.683 287.867C400.389 287.624 400.066 287.417 399.721 287.252C398.444 286.643 394.313 286.297 393.14 285.481C392.527 285.058 393.307 283.014 393.365 282.831C393.997 280.725 397.972 278.86 399.482 277.96C399.862 277.731 400.295 277.605 400.738 277.595L406.292 277.387C414.321 277.511 421.293 276.693 427.208 274.931C434.831 272.662 439.331 271.484 440.708 271.397C447.002 270.992 452.959 269.939 459.33 269.917C470.076 269.833 480.815 270.486 491.473 271.871C497.016 272.635 502.457 274.014 507.696 275.985C515.838 279.002 520.8 284.584 523.356 292.408C523.465 292.739 523.699 293.014 524.007 293.174C524.316 293.334 524.675 293.366 525.007 293.264C530.573 291.61 535.889 292.154 540.954 294.896C541.028 294.939 541.112 294.964 541.197 294.969C541.283 294.973 541.368 294.958 541.447 294.926C541.527 294.893 541.599 294.843 541.658 294.78C541.717 294.717 541.759 294.641 541.781 294.558C543.848 287.695 547.634 282.784 553.14 279.825C559.02 276.667 565.727 274.801 573.261 274.228C584.452 273.365 596.217 273.754 607.662 275.103C609.514 275.307 621.718 278.109 623.282 279.096ZM427.625 279.964C427.625 279.728 427.573 279.495 427.473 279.282C427.372 279.069 427.226 278.881 427.044 278.732C426.864 278.582 426.654 278.474 426.427 278.415C426.2 278.359 425.964 278.351 425.734 278.393C417.985 279.8 410.107 280.364 402.237 280.073C401.926 280.058 401.616 280.114 401.329 280.237C400.776 280.471 400.28 280.823 399.876 281.268C399.472 281.714 399.169 282.242 398.988 282.817C398.927 282.985 398.919 283.169 398.966 283.342C399.011 283.515 399.112 283.669 399.253 283.779L406.749 289.682C406.943 289.833 407.171 289.933 407.413 289.974C407.656 290.016 407.906 289.996 408.139 289.915C413.784 287.927 419.811 287.274 425.748 288.006C425.986 288.031 426.226 288.006 426.453 287.933C426.793 287.822 427.09 287.606 427.302 287.315C427.513 287.025 427.627 286.675 427.629 286.315L427.625 279.964Z" fill="#020201"/>
<path d="M614.205 278.004L620.013 279.097C620.071 279.097 623.023 280.234 623.077 280.271C624.246 280.999 624.807 282.092 624.761 283.55C624.623 288.02 624.408 292.636 624.115 297.397C622.667 303.092 621.749 308.909 621.375 314.775C619.862 317.428 618.905 320.363 618.561 323.4C618.517 323.799 618.429 324.193 618.3 324.573C616.521 329.772 614.266 335.488 611.534 341.722C608.971 347.574 604.985 351.615 599.576 353.845C592.958 356.588 587.186 357.879 582.261 357.719C575.63 357.514 570.329 357.142 566.358 356.6C554.325 354.953 546.444 342.917 544.531 332.186C543.444 326.098 543.04 319.132 543.319 311.288C543.369 309.633 542.612 308.068 541.046 306.591C536.555 302.385 531.45 301.563 525.731 304.124C523.437 305.144 522.323 307.228 521.92 309.87C521.415 313.131 520.715 320.131 519.263 324.42C516.828 331.616 514.754 336.706 513.041 339.692C512.182 341.196 510.388 343.4 507.661 346.306C505.732 348.387 503.445 350.102 500.909 351.367C495.301 354.114 489.148 355.558 482.908 355.59C476.688 355.711 470.468 355.346 464.304 354.497C459.397 353.769 453.681 351.504 447.156 347.705C446.784 347.484 446.442 347.215 446.14 346.903C442.503 343.171 439.9 338.55 438.589 333.497C436.716 326.535 434.78 318.207 432.781 308.515C432.239 305.887 431.907 303.219 431.787 300.538C431.588 296.785 431.167 293.047 430.527 289.344C430.447 288.91 430.414 288.469 430.429 288.028C430.56 284.282 430.96 281.331 431.631 279.174C433.203 274.072 447.534 273.522 452.768 273.522C454.765 273.522 458.214 273.394 463.117 273.139C478.213 272.343 492.47 274.05 505.886 278.263C511.423 280.004 515.849 283.527 519.165 288.83C520.29 290.652 521.219 293.819 522.562 296.049C522.699 296.266 522.913 296.423 523.161 296.486C523.283 296.517 523.41 296.523 523.535 296.504C523.66 296.485 523.779 296.442 523.887 296.377C525.503 295.411 526.849 295.477 528.497 295.247C532.938 294.623 537.306 295.387 541.602 297.539C541.77 297.623 541.954 297.673 542.143 297.685C542.329 297.699 542.517 297.674 542.694 297.612C542.873 297.549 543.037 297.451 543.177 297.324C543.315 297.196 543.427 297.041 543.504 296.869L546.883 289.409C546.976 289.206 547.09 289.012 547.221 288.83C549.798 285.274 553.324 282.442 557.799 280.336C560.037 279.289 563.626 278.543 568.565 278.099C572.108 277.782 578.217 276.561 583.234 276.641C590.235 276.763 597.937 277.015 606.339 277.399C607.671 277.465 614.009 277.942 614.205 278.004ZM451.342 280.161C436.15 283.947 439 299.066 439.453 310.639C439.58 314.364 440.089 318.067 440.971 321.687C442.641 328.402 444.32 333.423 446.009 336.751C451.89 348.303 462.569 349.104 474.24 349.633C485.017 350.125 493.958 350.168 502.024 343.751C506.79 339.954 509.585 334.642 512.035 329.216C513.937 325 514.613 319.472 515.742 314.83C516.831 310.388 516.558 305.844 516.58 301.423C516.58 299.405 515.739 296.468 514.057 292.612C512.76 289.666 511.211 287.567 509.411 286.316C507.904 285.263 504.122 284.089 498.408 282.012C497.969 281.852 497.784 281.648 497.319 281.648C492.139 281.615 487.039 279.567 481.794 279.305C470.942 278.758 464.085 278.498 461.223 278.525C458.928 278.547 455.635 279.092 451.342 280.161ZM615.374 293.064C614.205 279.826 581.826 282.377 573.208 282.872C563.545 283.408 550.528 287.996 549.196 299.186C548.566 304.443 548.238 311.029 548.212 318.944C548.197 324.38 549.563 331.095 552.31 339.087C554.517 345.508 557.882 348.007 564.18 350.081C570.519 352.236 577.281 352.827 583.895 351.804C590.332 350.789 594.008 350.174 594.923 349.961C597.827 349.279 599.856 348.011 601.5 346.145C606.96 340.033 610.881 332.695 612.935 324.748C613.629 322.076 614.734 317.217 616.249 310.173C617.19 305.788 616.899 300.085 615.374 293.064Z" fill="#501C49"/>
<path d="M427.625 279.962V286.314C427.625 286.553 427.574 286.789 427.476 287.006C427.382 287.225 427.24 287.42 427.062 287.578C426.884 287.738 426.675 287.858 426.448 287.932C426.221 288.005 425.981 288.03 425.744 288.005C419.808 287.272 413.783 287.925 408.139 289.914C407.906 289.993 407.657 290.013 407.414 289.973C407.172 289.932 406.943 289.832 406.748 289.681L396.349 283.413C396.208 283.303 396.107 283.149 396.062 282.976C396.014 282.803 396.023 282.619 396.087 282.451C396.559 281.169 397.485 280.629 398.57 280.188C399.765 279.877 400.977 279.634 402.2 279.46C410.636 279.707 418.506 279.762 425.733 278.392C426.08 278.325 426.44 278.376 426.755 278.537C427.069 278.698 427.322 278.96 427.472 279.281C427.572 279.494 427.624 279.727 427.625 279.962Z" fill="#501C49"/>
<path d="M439.455 310.64C439.015 299.066 436.151 283.948 451.343 280.162C455.638 279.093 458.932 278.548 461.224 278.526C464.087 278.496 470.944 278.756 481.795 279.305C487.04 279.568 497.97 281.492 498.409 281.648C504.123 283.726 507.906 285.263 509.412 286.316C511.212 287.567 512.761 289.666 514.058 292.613C515.752 296.468 516.593 299.405 516.581 301.424C516.559 305.844 516.814 310.388 515.743 314.83C514.614 319.472 513.928 325 512.036 329.216C509.586 334.657 506.791 339.951 502.039 343.752C493.974 350.169 485.033 350.125 474.255 349.633C462.585 349.105 451.905 348.303 446.025 336.752C444.331 333.426 442.651 328.405 440.986 321.688C440.099 318.068 439.586 314.365 439.455 310.64ZM449.364 283.365C436.336 288.521 442.261 315.227 444.685 326.254C446.686 335.364 450.214 342.225 459.714 344.98C465.103 346.568 470.676 347.443 476.292 347.582C489.472 347.877 500.577 345.782 507.256 334.128C508.284 332.333 509.56 328.856 511.082 323.696C514.973 310.578 518.305 289.334 500.381 284.87C486.78 281.498 472.719 280.4 458.763 281.619C455.332 281.907 452.842 282.013 449.364 283.365Z" fill="#020201"/>
<path d="M616.024 290.756C614.572 286.748 616.024 282.74 586.621 282.011C557.218 281.282 553.588 288.205 553.588 288.205C549.232 292.578 548.869 295.493 548.216 299.804C547.562 304.115 548.143 303.146 547.192 314.38C546.241 325.614 547.417 328.653 548.143 331.933C548.869 335.212 552.499 342.864 554.949 345.856C557.399 348.848 565.93 352.703 574.279 352.703C582.628 352.703 594.607 353.432 603.319 345.051C612.031 336.67 615.661 319.179 617.113 311.162C618.565 303.146 617.476 294.765 616.024 290.756ZM615.269 311.49C613.893 319.08 610.455 335.646 602.201 343.582C593.946 351.519 582.599 350.826 574.7 350.826C566.801 350.826 558.728 347.182 556.398 344.344C554.067 341.505 550.644 334.265 549.958 331.16C549.272 328.055 548.143 325.166 549.058 314.533C549.972 303.9 549.421 304.814 550.027 300.733C550.633 296.652 550.989 293.89 555.109 289.75C555.109 289.75 558.546 283.191 586.389 283.884C614.231 284.576 612.859 288.369 614.234 292.166C615.61 295.963 616.645 303.896 615.269 311.49Z" fill="#020201"/>
<path d="M626.44 290.218C626.785 287.629 626.785 285.005 626.44 282.416C626.229 280.667 625.148 279.53 623.195 279.005C618.522 277.745 614.892 277.01 612.305 276.801L614.57 278.003C614.628 278.003 623.024 280.233 623.082 280.27C624.246 280.999 624.806 282.092 624.763 283.549C624.665 286.792 624.189 290.265 624.008 293.661C623.972 293.953 623.412 300.625 622.556 303.5C621.681 306.437 619.51 319.034 619.51 319.034C619.51 319.034 618.563 330.829 620.207 325.957C621.75 321.37 625.899 293.84 626.378 290.542L626.4 290.404C626.433 290.283 626.44 290.218 626.44 290.218Z" fill="#020201"/>
<path d="M416.47 307.326C416.47 307.326 396.992 269.379 380.366 290.269C363.741 311.16 377.056 349.348 393.14 360.356C409.225 371.365 418.55 357.806 418.55 357.806L416.47 307.326Z" fill="#E68856"/>
<path d="M401.174 341.831C400.252 337.765 400.278 331.647 405.483 325.375C405.483 325.375 398.586 299.139 387.333 297.682C376.08 296.224 378.305 317.239 380.458 322.216C382.611 327.194 387.355 344.987 394.786 345.566C395.875 345.65 396.833 345.738 397.661 345.822C398.176 345.874 398.697 345.802 399.18 345.613C399.662 345.423 400.093 345.121 400.436 344.731C400.78 344.341 401.026 343.875 401.154 343.371C401.282 342.866 401.289 342.339 401.174 341.831Z" fill="#CE6D40"/>
<path d="M401.427 346.167C401.311 345.803 401.141 345.438 400.945 345.012C400.749 344.586 400.56 344.101 400.404 343.631C400.105 342.7 399.881 341.748 399.732 340.781C399.574 339.818 399.494 338.843 399.493 337.866C399.474 337.378 399.514 336.89 399.529 336.409C399.543 335.928 399.605 335.436 399.692 334.951C399.983 333.024 400.559 331.151 401.402 329.394C402.243 327.662 403.29 326.038 404.52 324.559L404.27 325.685C403.725 323.553 403.057 321.385 402.335 319.268C401.613 317.151 400.81 315.052 399.917 313C399.038 310.95 398.033 308.957 396.908 307.031C395.819 305.118 394.508 303.34 393.002 301.737C392.639 301.332 392.222 301.008 391.826 300.625C391.619 300.454 391.401 300.297 391.191 300.133C391.086 300.053 390.984 299.966 390.871 299.893L390.537 299.682C390.324 299.537 390.102 299.404 389.873 299.284L389.169 298.92C388.692 298.72 388.197 298.565 387.691 298.457C386.689 298.215 385.644 298.215 384.642 298.457C384.157 298.587 383.694 298.787 383.267 299.051C382.838 299.329 382.445 299.659 382.098 300.035C381.4 300.844 380.848 301.769 380.468 302.768C380.073 303.796 379.778 304.86 379.586 305.946C379.206 308.154 379.056 310.396 379.139 312.636C379.144 312.736 379.108 312.834 379.04 312.909C378.972 312.983 378.878 313.027 378.778 313.031C378.678 313.035 378.58 313 378.506 312.932C378.432 312.864 378.389 312.769 378.384 312.669C378.225 310.379 378.305 308.08 378.62 305.807C378.788 304.65 379.067 303.511 379.451 302.407C379.846 301.266 380.438 300.204 381.201 299.27C381.606 298.797 382.071 298.379 382.584 298.027C383.108 297.677 383.68 297.407 384.283 297.226C385.477 296.883 386.736 296.833 387.953 297.08C388.557 297.188 389.15 297.353 389.724 297.572L390.556 297.936C390.821 298.079 391.078 298.238 391.325 298.41L391.714 298.639C391.841 298.72 391.957 298.811 392.077 298.898C392.32 299.073 392.567 299.244 392.803 299.427C393.253 299.813 393.725 300.181 394.135 300.607C395.791 302.249 397.247 304.084 398.469 306.073C399.699 308.028 400.806 310.058 401.783 312.151C402.771 314.232 403.66 316.353 404.469 318.499C405.279 320.645 406.023 322.806 406.68 325.058C406.732 325.237 406.74 325.427 406.706 325.61C406.671 325.794 406.594 325.967 406.48 326.115L406.43 326.184C405.331 327.497 404.395 328.938 403.642 330.476C402.9 332.006 402.391 333.638 402.132 335.319C402.052 335.735 402.037 336.161 401.986 336.58C401.936 336.999 401.932 337.425 401.947 337.852C401.955 339.552 402.216 341.242 402.72 342.866C402.85 343.261 403 343.649 403.17 344.028C403.344 344.422 403.558 344.885 403.729 345.398C403.831 345.705 403.808 346.039 403.664 346.328C403.52 346.617 403.268 346.837 402.963 346.94C402.658 347.042 402.324 347.019 402.037 346.874C401.749 346.73 401.529 346.477 401.427 346.171V346.167Z" fill="#020201"/>
<path d="M391.689 338.883C391.101 337.653 390.594 336.386 390.172 335.089C389.731 333.798 389.367 332.481 389.083 331.147C388.493 328.43 388.335 325.637 388.614 322.871C388.784 321.452 389.112 320.056 389.591 318.71C389.725 318.375 389.834 318.028 389.99 317.7L390.455 316.717C390.796 316.072 391.178 315.45 391.598 314.855C392.021 314.256 392.478 313.683 392.967 313.138C393.481 312.608 394.024 312.107 394.593 311.637C395.706 310.707 396.91 309.893 398.187 309.206C398.594 308.975 399.076 308.915 399.527 309.041C399.978 309.166 400.361 309.466 400.592 309.875C400.822 310.284 400.881 310.768 400.757 311.221C400.632 311.673 400.333 312.058 399.925 312.289C399.891 312.312 399.854 312.331 399.817 312.348L399.726 312.391C398.619 312.88 397.564 313.481 396.579 314.184C396.091 314.533 395.623 314.909 395.177 315.31C394.745 315.724 394.336 316.164 393.954 316.626C393.57 317.088 393.216 317.575 392.894 318.083L392.444 318.874C392.292 319.136 392.183 319.42 392.045 319.694C391.543 320.826 391.168 322.01 390.927 323.225C390.479 325.752 390.433 328.335 390.792 330.877C390.959 332.168 391.201 333.448 391.518 334.71C391.829 335.976 392.22 337.221 392.687 338.438V338.456C392.736 338.587 392.733 338.732 392.68 338.86C392.626 338.989 392.525 339.092 392.398 339.149C392.27 339.205 392.126 339.21 391.995 339.164C391.864 339.117 391.756 339.022 391.693 338.897L391.689 338.883Z" fill="#020201"/>
<path d="M416.471 307.326C416.471 307.326 406.873 288.629 395.417 284.708C390.546 283.043 385.337 284.042 380.382 290.269C363.738 311.163 377.057 349.348 393.141 360.356C409.226 371.365 418.551 357.806 418.551 357.806" stroke="black" stroke-width="2.54545" stroke-linecap="round" stroke-linejoin="round"/>
<path d="M446.55 267.753C446.425 267.762 446.3 267.74 446.187 267.687C446.077 267.632 445.983 267.55 445.913 267.449C445.843 267.348 445.8 267.23 445.787 267.108C445.778 266.983 445.8 266.857 445.853 266.743C450.785 256.203 458.65 249.758 469.448 247.409C473.061 246.621 477.971 246.41 484.178 246.775C491.689 247.223 500.368 249.825 505.033 255.848C507.937 259.612 510.521 264.703 509.196 269.101C509.057 269.566 508.74 269.958 508.314 270.19C507.888 270.422 507.389 270.476 506.924 270.34C496.588 267.298 485.935 265.467 475.18 264.885C470.787 264.642 464.858 264.935 457.393 265.763C454.572 266.073 449.871 267.508 446.55 267.753Z" fill="#201116" stroke="black" stroke-width="2.54545" stroke-miterlimit="10"/>
<path d="M606.087 271.964L604.57 271.855C604.538 271.855 604.507 271.847 604.479 271.833C598.235 269.625 592.352 268.439 586.83 268.277C583.134 268.16 577.939 268.547 571.242 269.439C566.072 270.116 560.999 271.4 556.127 273.265C555.8 273.39 555.438 273.389 555.111 273.262C554.785 273.135 554.517 272.89 554.359 272.576C554.254 272.369 554.2 272.139 554.203 271.906C554.37 264.754 557.475 259.246 563.518 255.381C569.921 251.303 580.426 250.141 587.345 251.547C597.654 253.653 605.074 260.409 607.042 270.86C607.067 270.999 607.061 271.142 607.023 271.279C606.986 271.415 606.917 271.541 606.824 271.647C606.732 271.754 606.616 271.836 606.486 271.888C606.36 271.943 606.224 271.969 606.087 271.964Z" fill="#201116" stroke="black" stroke-width="2.54545" stroke-miterlimit="10"/>
<path d="M503.449 312.12C501.032 300.04 493.064 293.259 481.237 292.443C473.448 291.907 466.213 293.332 460.144 298.466C454.55 303.203 454.169 309.525 453.316 316.372C452.205 313.2 451.906 309.29 452.419 304.642C453.658 293.39 459.793 287.303 470.823 286.383C479.982 285.614 493.086 287.84 499.471 294.862C503.258 299.023 504.777 304.477 504.027 311.223C503.94 312.064 503.747 312.363 503.449 312.12Z" fill="#020201"/>
<path d="M503.45 312.12C503.033 316.055 502.724 320.468 501.229 323.933C497.657 332.312 491.252 337.491 482.015 339.471C475.481 340.874 468.802 338.538 463.502 334.873C457.493 330.726 454.098 324.564 453.316 316.387C454.169 309.54 454.551 303.21 460.144 298.481C466.214 293.346 473.448 291.922 481.238 292.457C493.065 293.259 501.033 300.04 503.45 312.12ZM476.243 293.394C472.363 293.324 468.62 295.234 465.8 298.707C462.979 302.179 461.386 306.92 461.284 311.89C461.238 314.328 461.572 316.757 462.275 319.091C462.931 321.302 463.968 323.38 465.339 325.231C466.591 326.929 468.185 328.343 470.018 329.381C471.723 330.34 473.636 330.863 475.59 330.904C479.471 330.974 483.213 329.06 486.034 325.591C488.854 322.122 490.462 317.378 490.549 312.404C490.596 309.968 490.262 307.54 489.562 305.207C488.904 302.996 487.866 300.917 486.495 299.064C485.242 297.368 483.649 295.954 481.819 294.913C480.113 293.956 478.198 293.434 476.243 293.394Z" fill="#FDFAE9"/>
<path d="M476.241 293.392C478.196 293.434 480.111 293.958 481.817 294.919C483.647 295.957 485.24 297.37 486.492 299.066C487.863 300.919 488.901 302.998 489.559 305.21C490.26 307.542 490.593 309.971 490.547 312.406C490.46 317.38 488.837 322.125 486.031 325.594C483.225 329.063 479.472 330.976 475.587 330.91C473.634 330.864 471.721 330.339 470.015 329.38C468.183 328.342 466.59 326.928 465.34 325.229C463.966 323.38 462.928 321.301 462.273 319.089C461.569 316.756 461.235 314.326 461.282 311.889C461.369 306.915 462.995 302.171 465.801 298.702C468.607 295.233 472.36 293.323 476.241 293.392ZM483.817 301.715C483.451 301.718 483.09 301.801 482.76 301.959C482.421 302.12 482.117 302.348 481.867 302.63C481.61 302.924 481.409 303.264 481.276 303.632C481.14 304.009 481.072 304.408 481.072 304.809C481.074 305.608 481.369 306.378 481.9 306.973C482.146 307.251 482.448 307.474 482.786 307.626C483.124 307.779 483.49 307.858 483.86 307.859C484.226 307.857 484.586 307.775 484.917 307.618C485.256 307.457 485.56 307.229 485.81 306.948C486.067 306.654 486.268 306.314 486.401 305.946C486.54 305.569 486.609 305.17 486.605 304.769C486.605 303.969 486.31 303.198 485.777 302.604C485.531 302.326 485.23 302.102 484.892 301.949C484.554 301.796 484.187 301.716 483.817 301.715Z" fill="#020201"/>
<path d="M486.606 304.769C486.606 303.07 485.347 301.704 483.819 301.715C482.29 301.726 481.063 303.111 481.074 304.809C481.085 306.507 482.334 307.87 483.862 307.859C485.39 307.848 486.617 306.467 486.606 304.769Z" fill="#FDFAE9"/>
<path d="M595.505 321.511C596.022 316.319 596.048 312.282 595.581 309.398C594.613 303.43 591.21 298.916 585.373 295.858C584.848 295.584 584.277 295.41 583.689 295.344C576.594 294.532 570.969 294.825 566.817 296.222C560.314 298.408 555.782 303.73 553.219 312.186C553.787 299.165 560.265 291.971 572.65 290.603C576.764 290.151 580.098 290.158 582.651 290.625C590.553 292.064 597.145 297.712 598.532 305.973C599.394 311.096 598.384 316.276 595.505 321.511Z" fill="#020201"/>
<path d="M595.506 321.51C594.509 324.824 593.554 327.154 592.642 328.5C582.652 343.276 559.482 347.754 554.04 325.373C552.881 320.595 552.608 316.199 553.22 312.186C555.783 303.729 560.315 298.408 566.818 296.222C570.97 294.822 576.595 294.53 583.69 295.343C584.578 295.531 585.439 295.826 586.256 296.222C592.086 299.279 594.605 303.429 595.582 309.398C596.051 312.274 596.026 316.312 595.506 321.51ZM568.346 297.679C565.101 297.818 562.062 299.738 559.899 303.021C557.735 306.304 556.632 310.673 556.813 315.185C556.902 317.386 557.308 319.564 558.019 321.649C558.673 323.598 559.647 325.423 560.901 327.049C562.013 328.502 563.42 329.7 565.028 330.566C566.485 331.34 568.118 331.717 569.765 331.659C573.014 331.52 576.052 329.6 578.212 326.317C580.372 323.034 581.479 318.665 581.298 314.153C581.204 311.957 580.796 309.786 580.085 307.707C579.43 305.758 578.455 303.933 577.2 302.307C576.09 300.854 574.684 299.655 573.076 298.791C571.623 298.012 569.992 297.629 568.346 297.679Z" fill="#FDFAE9"/>
<path d="M568.349 297.679C569.996 297.622 571.629 297.999 573.086 298.773C574.694 299.637 576.1 300.836 577.21 302.289C578.464 303.921 579.435 305.753 580.085 307.708C580.795 309.792 581.2 311.97 581.287 314.172C581.475 318.676 580.368 323.056 578.205 326.335C576.041 329.615 573.003 331.539 569.758 331.677C568.109 331.735 566.475 331.358 565.017 330.584C563.409 329.72 562.003 328.521 560.893 327.068C559.638 325.442 558.663 323.616 558.007 321.667C557.298 319.583 556.894 317.407 556.806 315.207C556.617 310.699 557.728 306.323 559.888 303.04C562.048 299.756 565.1 297.833 568.349 297.679ZM577.845 306.727C577.858 306.375 577.801 306.023 577.675 305.694C577.55 305.364 577.36 305.063 577.116 304.809C576.872 304.555 576.58 304.353 576.256 304.215C575.933 304.077 575.585 304.006 575.234 304.006C574.882 304.006 574.534 304.077 574.211 304.215C573.887 304.353 573.595 304.555 573.351 304.809C573.107 305.063 572.917 305.364 572.792 305.694C572.666 306.023 572.609 306.375 572.622 306.727C572.621 307.073 572.688 307.415 572.821 307.733C572.953 308.05 573.144 308.338 573.384 308.582C573.75 308.949 574.215 309.199 574.722 309.3C575.229 309.401 575.754 309.349 576.232 309.15C576.709 308.952 577.117 308.616 577.405 308.184C577.692 307.753 577.845 307.246 577.845 306.727Z" fill="#020201"/>
<path d="M575.231 309.364C575.748 309.364 576.253 309.211 576.683 308.922C577.113 308.634 577.448 308.224 577.645 307.745C577.843 307.265 577.895 306.738 577.794 306.229C577.693 305.72 577.444 305.253 577.079 304.886C576.713 304.519 576.248 304.269 575.741 304.168C575.234 304.066 574.708 304.118 574.231 304.317C573.753 304.515 573.345 304.852 573.058 305.283C572.77 305.715 572.617 306.222 572.617 306.741C572.617 307.437 572.893 308.104 573.383 308.596C573.873 309.088 574.538 309.364 575.231 309.364Z" fill="#FDFAE9"/>
</svg>
