<svg width="1000" height="1000" viewBox="0 0 1000 1000" fill="none" xmlns="http://www.w3.org/2000/svg">
<path d="M497.064 560.953C493.211 560.955 489.369 560.525 485.611 559.67C472.612 556.704 461.675 551.289 449.039 541.538C446.015 539.199 445.79 536.641 446.135 534.902C447.275 529.036 448.731 462.534 448.789 455.013C448.807 452.739 448.81 446.934 448.789 440.896C448.789 434.111 448.731 427.458 448.676 422.64C448.625 418.417 448.564 415.717 448.498 414.369L448.346 411.377L450.938 412.86C451.337 413.09 452.952 413.877 454.666 414.707C461.436 417.987 464.594 419.601 465.414 420.388C466.561 421.325 475.233 424.072 478.939 425.242C482.45 426.335 482.932 426.521 483.274 426.725C486.025 428.405 488.984 429.659 492.12 430.985C494.48 431.983 496.923 433.018 499.503 434.319C503.638 436.403 505.616 437.333 506.4 437.333C506.69 437.311 506.975 437.254 507.25 437.161C508.23 436.899 509.715 436.498 512.916 436.498C514.209 436.498 515.704 436.564 517.356 436.695C520.528 436.728 522.1 438.787 523.251 440.295C524.238 441.585 524.703 442.117 525.483 442.117C525.844 442.105 526.2 442.031 526.536 441.898L528.761 441.1L528.721 443.473C528.721 444.325 528.721 445.582 528.747 447.011C528.823 450.487 529.012 454.74 529.266 458.671C529.433 461.284 529.629 472.588 529.872 485.68C530.235 505.223 530.754 534.731 531.302 537.147C532.232 539.997 531.665 542.781 529.698 545.2C521.494 555.246 512.521 560.067 500.596 560.829C499.416 560.913 498.229 560.953 497.064 560.953Z" fill="#FD8342"/>
<path d="M450.132 414.285C451.526 415.083 463.153 420.48 464.289 421.573C465.926 423.169 481.713 427.702 482.439 428.132C487.347 431.135 492.755 432.749 498.774 435.785C503.78 438.306 505.308 438.973 506.397 438.973C507.638 438.973 508.368 438.139 512.909 438.139C514.089 438.139 515.519 438.193 517.265 438.335H517.291C521.788 438.335 521.944 443.75 525.462 443.75C526.018 443.742 526.568 443.636 527.088 443.437C527.088 444.289 527.088 445.532 527.113 447.041C527.182 450.167 527.357 454.441 527.636 458.785C528.079 465.708 528.783 534.728 529.741 537.64C530.516 539.981 530.08 542.158 528.435 544.169C521.385 552.802 513.301 558.381 500.484 559.201C499.334 559.278 498.192 559.316 497.057 559.314C493.326 559.319 489.606 558.902 485.967 558.071C471.97 554.879 461.116 548.79 450.03 540.238C448.131 538.78 447.365 537.109 447.732 535.224C448.934 529.051 450.368 461.492 450.419 455.028C450.437 452.907 450.44 447.318 450.419 440.893C450.419 434.808 450.368 427.972 450.306 422.623C450.259 418.833 450.201 415.787 450.125 414.285M446.56 408.455L446.861 414.438C446.93 415.761 446.988 418.447 447.039 422.648C447.115 429.207 447.141 436.881 447.152 440.868C447.17 446.928 447.152 452.725 447.152 454.966C447.094 462.28 445.623 528.938 444.527 534.56C444.164 536.346 444.164 539.804 448.037 542.803C460.873 552.704 471.995 558.217 485.249 561.238C489.124 562.12 493.086 562.564 497.061 562.56C498.258 562.56 499.485 562.52 500.691 562.44C507.344 562.014 513.083 560.378 518.231 557.43C522.79 554.824 526.834 551.257 530.936 546.217C533.259 543.371 533.927 540.096 532.867 536.743C532.34 533.522 531.825 504.735 531.48 485.63C531.233 471.983 531.041 461.215 530.87 458.555C530.62 454.638 530.431 450.408 530.355 446.95C530.322 445.547 530.315 444.311 530.329 443.473L530.409 438.736L525.999 440.35C525.855 440.406 525.705 440.445 525.552 440.467C525.189 440.106 524.858 439.715 524.561 439.297C523.364 437.727 521.363 435.107 517.439 435.056C515.766 434.925 514.249 434.859 512.927 434.859C509.511 434.859 507.903 435.293 506.84 435.588L506.408 435.697C505.591 435.551 502.259 433.875 500.255 432.862C497.623 431.536 495.173 430.49 492.774 429.484C489.695 428.18 486.788 426.933 484.152 425.337C483.637 425.028 483.139 424.86 479.47 423.698C476.319 422.703 468.017 420.072 466.452 419.103C465.458 418.232 463.116 416.996 455.414 413.25C453.878 412.503 452.147 411.658 451.784 411.454L446.567 408.455H446.56Z" fill="#020201"/>
<path d="M527.636 458.785C522.798 460.324 517.756 461.125 512.681 461.161C498.215 461.227 483.492 458.381 470.721 452.288C464.35 449.249 458.566 446.227 453.37 443.222C452.321 442.536 451.336 441.757 450.426 440.894C450.426 434.808 450.194 419.635 450.132 414.293C461.69 420.633 471.633 436.765 484.791 440.996C495.87 444.552 504.219 447.445 516.783 447.682C520.238 447.77 523.695 447.556 527.113 447.041C527.182 450.167 527.357 454.442 527.636 458.785Z" fill="#C6522E"/>
<path d="M529.629 443.801C528.369 443.962 536.679 443.273 536.163 444.166C533.894 444.756 532.105 446.17 525.32 447.237C521.185 447.872 516.998 448.1 512.819 447.919C505.061 447.609 498.476 446.826 491.133 443.885C481.326 439.959 471.896 435.146 462.957 429.506C461.044 428.295 459.203 426.974 457.443 425.549C452.506 421.555 448.683 418.283 445.972 415.732C438.64 408.82 433.071 399.797 428.715 389.871C430.349 392.006 431.619 394.798 433.118 396.984C438.614 404.961 446.266 412.606 453.065 417.773C463.839 425.968 477.419 431.835 490.425 437.607C499.351 441.571 503.192 442.001 514.02 442.344C519.697 442.526 527.251 443.801 529.629 443.801Z" fill="#020201"/>
<path d="M526.772 447.081H526.725C491.416 444.356 463.65 433.129 444.201 413.71C432.035 401.546 423.395 386.29 419.204 369.575C416.972 360.392 414.246 351.144 410.855 341.302C410.021 338.868 409.149 336.313 408.256 333.704L407.741 332.203C399.421 307.81 394.956 294.357 394.455 292.214C393.333 287.339 393.613 268.299 393.624 267.49V267.436C394.481 246.665 398.789 228.325 406.427 212.901C412.654 200.193 421.575 189.006 432.563 180.123C441.431 172.967 451.747 167.202 463.225 162.997C483.034 155.749 499.939 155.381 503.13 155.381H503.453C503.736 155.363 504.825 155.305 506.589 155.305C516.027 155.305 540.446 156.861 563.689 171.276C576.986 179.51 588.004 190.97 595.731 204.6C605.329 221.34 610.854 242.103 612.15 266.313C612.317 269.425 611.812 274.716 611.188 280.798L610.916 283.4C609.899 293.191 608.632 305.376 608.698 316.374C608.781 330.293 605.22 352.529 603.089 364.543C602.276 369.13 601.692 372.089 601.685 372.118V372.188L601.663 372.253C596.788 389.161 589.912 403.591 581.23 415.171C574.224 424.507 566.031 432.014 556.876 437.483C540.962 446.986 527.429 447.081 526.859 447.081H526.772Z" fill="#FD8342"/>
<path d="M506.589 156.951C523.574 156.951 604.962 162.392 610.52 266.404C610.676 269.319 610.204 274.395 609.562 280.634C608.505 290.895 606.992 304.301 607.064 316.388C607.148 330.289 603.54 352.649 601.481 364.258C600.661 368.882 600.084 371.801 600.084 371.801C578.968 444.997 528.13 445.456 526.859 445.456H526.834C445.979 439.217 425.709 389.387 420.791 369.185C418.457 359.583 415.622 350.116 412.416 340.762C411.422 337.847 410.373 334.793 409.302 331.652C403.269 314.016 396.63 294.4 396.045 291.85C394.956 287.112 395.257 267.519 395.257 267.519C396.169 245.444 400.891 227.778 407.89 213.644C435.329 158.219 497.79 157.024 503.13 157.024H503.493C503.493 157.024 504.582 156.951 506.589 156.951ZM506.589 153.672C504.898 153.672 503.794 153.723 503.417 153.745H503.13C499.892 153.745 482.733 154.109 462.677 161.474C451.029 165.737 440.556 171.6 431.55 178.859C420.374 187.888 411.3 199.262 404.964 212.182C397.225 227.818 392.862 246.388 391.994 267.384V267.468C391.961 269.516 391.722 287.604 392.865 292.586C393.37 294.772 397.864 308.291 406.216 332.734L406.772 334.36C407.65 336.91 408.507 339.439 409.331 341.837C412.689 351.628 415.4 360.829 417.622 369.961C419.347 376.987 421.875 383.791 425.154 390.236C429.771 399.353 435.806 407.673 443.032 414.883C452.041 423.876 462.979 431.233 475.535 436.747C490.254 443.215 507.432 447.245 526.584 448.721H526.707H526.859C528.311 448.721 541.692 448.444 557.714 438.882C567.054 433.303 575.403 425.655 582.536 416.148C591.339 404.414 598.305 389.798 603.227 372.697L603.264 372.563L603.293 372.424C603.293 372.395 603.884 369.422 604.701 364.819C606.843 352.747 610.418 330.399 610.335 316.355C610.27 305.445 611.533 293.311 612.546 283.56C612.637 282.671 612.727 281.803 612.814 280.958C613.449 274.803 613.958 269.447 613.787 266.215C612.473 241.746 606.89 220.738 597.154 203.776C589.292 189.914 578.082 178.261 564.557 169.887C540.955 155.25 516.158 153.672 506.593 153.672H506.589Z" fill="#020201"/>
<path d="M409.302 331.671C403.269 314.017 396.63 294.401 396.045 291.85C394.956 287.113 395.257 267.52 395.257 267.52C396.169 245.445 400.891 227.779 407.89 213.645C404.986 224.529 400.071 254.161 411.883 307.862C416.736 329.962 414.558 335.053 409.302 331.671Z" fill="#C6522E"/>
<path d="M452.379 271.523C452.295 271.485 452.222 271.428 452.164 271.356C452.107 271.284 452.068 271.199 452.049 271.109C452.031 271.019 452.034 270.925 452.058 270.836C452.083 270.747 452.128 270.666 452.19 270.598C452.256 270.514 452.335 270.419 452.423 270.314C456.898 265.059 463.556 262.056 472.297 259.469C481.336 256.797 491.111 256.513 501.624 258.617C509.671 260.224 517.309 263.718 514.085 269.676C513.192 271.321 511.256 271.828 508.277 271.199C503.493 270.193 499.01 268.816 494.026 268.284C483.446 267.109 472.75 267.545 462.3 269.578C459.864 270.045 457.483 270.762 455.192 271.717C454.891 271.841 454.573 271.917 454.248 271.942C453.913 271.968 453.576 271.946 453.247 271.877C452.945 271.816 452.657 271.704 452.394 271.545L452.379 271.523ZM462.783 266.422C466.676 266.133 472.327 265.898 479.735 265.719C486.363 265.558 495.652 265.719 502.477 267.683C504.783 268.268 507.124 268.701 509.486 268.98C509.65 269.004 509.816 269.004 509.98 268.98C510.136 268.961 510.289 268.919 510.434 268.856C510.556 268.802 510.666 268.722 510.757 268.623C510.833 268.541 510.881 268.438 510.895 268.328C511.171 266.078 510.221 264.266 508.045 262.891C507.844 262.766 507.631 262.661 507.41 262.578C495.554 257.983 480.363 258.988 468.46 262.942C466.307 263.644 464.299 264.734 462.536 266.16C462.506 266.182 462.486 266.214 462.478 266.251C462.477 266.268 462.479 266.286 462.486 266.302C462.492 266.318 462.502 266.333 462.514 266.345C462.545 266.378 462.583 266.402 462.627 266.415C462.679 266.422 462.731 266.419 462.783 266.407V266.422Z" fill="#010101"/>
<path d="M462.024 265.708C471.324 259.214 492.414 257.327 505.671 261.28C507.924 261.989 509.935 263.314 511.479 265.106C514.256 268.433 510.39 271.104 502.56 268.306C491.158 265.128 474.105 266.243 462.939 266.848C461.951 266.892 461.363 266.167 462.024 265.708Z" fill="#291614"/>
<path d="M562.034 276.179C561.425 276.331 560.786 276.32 560.182 276.146C559.579 275.973 559.031 275.644 558.593 275.192C558.506 275.113 558.436 275.018 558.387 274.911C558.338 274.805 558.31 274.69 558.306 274.573C558.19 264.497 579.502 263.477 590.726 268.673C592.777 269.62 604.048 275.644 599.223 277.145C597.205 277.772 596.265 277.837 594.265 276.999C591.963 276.028 590.215 275.452 589.02 275.272C579.818 273.844 570.971 274.489 562.034 276.179ZM562.891 273.745C568.863 273.017 576.557 272.531 585.97 272.288C586.021 272.288 586.689 272.212 587.974 272.062C588.121 272.045 588.265 272.004 588.399 271.942C588.505 271.894 588.596 271.817 588.66 271.719C588.686 271.681 588.703 271.638 588.709 271.592C588.716 271.547 588.711 271.501 588.696 271.457C588.659 271.358 588.588 271.274 588.497 271.22C585.103 268.979 579.44 266.436 573.563 267.398C571.236 267.762 568.554 267.762 566.666 268.454C563.723 269.548 562.271 271.225 562.31 273.487C562.315 273.53 562.334 273.571 562.364 273.603C562.401 273.645 562.447 273.677 562.499 273.698C562.56 273.725 562.625 273.742 562.691 273.749C562.757 273.762 562.824 273.766 562.891 273.76V273.745Z" fill="#010101"/>
<path d="M561.53 272.944C562.386 265.292 586.62 263.681 596.784 274.402C597.263 274.908 592.268 274.238 591.339 273.972C580.812 270.966 569.65 273.633 563.101 273.808C562.216 273.844 561.471 273.436 561.53 272.944Z" fill="#291614"/>
<path d="M539.982 355.071C537.375 358.307 531.6 363.062 530.954 363.769C530.883 363.845 530.798 363.907 530.703 363.952C528.13 365.045 524.267 363.656 522.042 361.973C521.946 361.903 521.866 361.812 521.809 361.707C521.751 361.603 521.717 361.487 521.709 361.368C521.701 361.248 521.72 361.129 521.763 361.017C521.806 360.906 521.873 360.806 521.959 360.723C522.651 360.096 522.575 359.301 521.73 358.336C521.538 358.121 521.285 357.969 521.004 357.903L513.058 356.496C512.969 356.48 512.886 356.44 512.818 356.381C512.749 356.322 512.698 356.246 512.668 356.161C512.638 356.075 512.631 355.984 512.648 355.895C512.665 355.806 512.705 355.723 512.764 355.654C513.7 354.561 514.844 353.625 516.318 353.391C519.153 352.933 522.041 352.917 524.881 353.344C528.928 353.942 534.78 353.603 539.368 353.73C539.521 353.735 539.669 353.782 539.797 353.867C539.924 353.952 540.026 354.07 540.089 354.21C540.153 354.349 540.177 354.504 540.158 354.656C540.139 354.808 540.078 354.952 539.982 355.071Z" fill="#C6522E"/>
<path d="M530.903 363.857C528.035 362.764 537.669 358.413 539.067 355.254C541.764 349.161 541.506 347.412 537.295 336.725C536.769 335.387 536.206 334.075 535.6 332.764C532.671 326.234 530.449 313.815 534.78 309.147C534.883 309.037 535.019 308.963 535.167 308.937C535.315 308.91 535.468 308.933 535.603 309.001C535.737 309.069 535.846 309.179 535.913 309.314C535.98 309.45 536.001 309.603 535.974 309.752C534.457 319.03 538.152 332.221 544.102 342.238C544.397 342.718 544.656 343.22 544.875 343.739C548.302 352.262 540.283 363.413 530.903 363.857Z" fill="#010101"/>
<path d="M523.026 360.621C522.804 360.911 522.492 361.12 522.14 361.214C521.787 361.308 521.413 361.283 521.077 361.142C519.472 360.52 517.888 359.922 516.325 359.349C514.679 358.813 513.269 357.723 512.332 356.263C512.299 356.207 512.283 356.142 512.287 356.078C512.29 356.013 512.313 355.95 512.352 355.898C512.391 355.847 512.444 355.807 512.505 355.786C512.566 355.765 512.632 355.762 512.695 355.778L521.712 357.844C522.021 357.915 522.3 358.08 522.511 358.318C523.297 359.222 523.469 359.989 523.026 360.621Z" fill="#010101"/>
<path d="M486.392 374.358C486.341 374.302 486.276 374.261 486.204 374.238C486.13 374.212 486.051 374.206 485.975 374.22C485.9 374.236 485.829 374.27 485.77 374.319C485.711 374.369 485.666 374.432 485.637 374.504C485.34 375.302 485.042 375.812 484.737 376.031C484.607 376.125 484.454 376.18 484.294 376.191C484.134 376.202 483.975 376.168 483.833 376.093C483.69 376.021 483.57 375.909 483.488 375.771C483.405 375.633 483.364 375.474 483.369 375.313C483.401 370.754 486.799 369.483 490.629 370.554C490.982 370.656 491.302 370.851 491.554 371.119C491.805 371.388 491.977 371.721 492.051 372.081L492.153 372.562C492.176 372.684 492.166 372.81 492.124 372.926C492.082 373.048 492.007 373.156 491.906 373.236C491.807 373.316 491.688 373.368 491.561 373.385C491.438 373.4 491.313 373.382 491.198 373.334C490.494 373.003 489.766 372.725 489.02 372.5C488.863 372.482 488.703 372.517 488.567 372.598C488.432 372.683 488.329 372.812 488.276 372.963C488.222 373.113 488.222 373.278 488.276 373.429C488.328 373.581 488.431 373.709 488.567 373.794C489.971 374.639 491.834 375.645 493.569 377.146C506.208 388.049 520.554 390.723 536.853 388.683C542.69 387.99 548.299 385.998 553.271 382.852C553.401 382.77 553.55 382.721 553.703 382.71C553.858 382.699 554.012 382.727 554.154 382.791C554.295 382.854 554.418 382.952 554.513 383.075C554.606 383.197 554.667 383.341 554.691 383.494V383.552C554.776 384.049 554.707 384.56 554.494 385.016C554.28 385.472 553.932 385.852 553.496 386.103C544.875 391.128 535.052 392.603 525.099 392.421C517.062 392.254 509.21 390.302 501.544 386.565C495.917 383.811 490.57 379.026 486.392 374.358Z" fill="#010101"/>
<path d="M511.051 402.088C518.721 401.152 526.642 401.83 532.363 402.176C532.617 402.189 532.863 402.266 533.079 402.401C533.295 402.536 533.474 402.723 533.597 402.946C533.721 403.169 533.786 403.42 533.787 403.676C533.787 403.931 533.723 404.182 533.6 404.406C532.148 406.895 528.638 408.611 525.346 409.303C523.257 409.726 521.096 409.624 519.055 409.008C516.024 408.112 512.114 406.822 510.122 404.734C509.921 404.524 509.782 404.263 509.721 403.978C509.66 403.694 509.678 403.398 509.775 403.124C509.871 402.85 510.041 402.608 510.267 402.425C510.492 402.242 510.763 402.125 511.051 402.088Z" fill="#C6522E"/>
<path d="M593.88 307.154C595.876 309.883 596.782 313.263 596.421 316.628C596.185 318.545 593.517 340.314 567.17 341.043C561.497 341.196 556.803 338.572 554.56 333.285C553.766 331.402 553.391 328.391 553.435 324.252C553.478 320.702 554.505 317.167 556.516 313.644C560.484 307.519 576.093 294.63 578.997 295.129C584.743 296.113 590.533 302.665 593.88 307.154Z" fill="white"/>
<path d="M599.55 308.455C600.207 311.156 596.646 312.926 595.056 310.642C595.002 310.564 594.953 310.484 594.907 310.401C591.466 304.357 586.354 300.753 579.571 299.59C576.667 299.091 570.561 299.845 570.242 303.755C569.788 308.357 571.821 310.175 575.527 310.452C575.91 310.48 576.282 310.595 576.615 310.788C576.947 310.981 577.232 311.248 577.447 311.567C582.598 319.22 577.422 331.43 569.639 335.563C569.488 335.64 569.332 335.704 569.171 335.756C557.359 339.319 555.475 322.331 556.516 313.622C559.791 287.036 593.248 282.594 599.55 308.455Z" fill="#010101"/>
<path d="M504.451 314.238C503.555 323.078 500.839 330.475 493.064 334.848C479.938 342.26 457.367 332.487 451.987 318.782C451.292 316.892 451.051 314.865 451.283 312.864C453.134 307.562 455.708 302.679 459.57 299.137C466.91 292.433 474.526 294.4 483.546 295.617C490.585 296.576 494.955 301.67 500.458 307.835C502.38 309.998 503.711 312.132 504.451 314.238Z" fill="white"/>
<path d="M504.451 314.237C503.711 312.126 502.38 309.992 500.458 307.835C494.955 301.669 490.585 296.575 483.546 295.617C474.526 294.392 467.211 292.895 459.857 299.6C455.934 303.227 452.985 307.789 451.283 312.864C450.005 309.584 449.548 308.29 450.165 305.23C450.399 304.055 450.747 302.907 451.203 301.801C455.261 291.995 463.563 287.589 473.945 286.496C477.902 286.078 482.156 287.001 486.708 289.265C489.317 290.563 492.504 292.981 496.269 296.521C498.041 298.187 499.789 300.495 501.515 303.444C504.039 307.749 505.465 310.25 505.794 310.947C506.7 312.791 506.252 313.887 504.451 314.237Z" fill="#010101"/>
<path d="M481.836 302.282C482.359 306.582 483.343 309.413 487.358 310.772C488.043 311.01 488.666 311.398 489.181 311.91C489.696 312.421 490.09 313.043 490.334 313.728C494.872 326.215 480.856 338.04 470.006 327.494C469.872 327.364 469.731 327.242 469.582 327.13C459.643 319.452 466.747 294.765 478.402 298.153C479.314 298.429 480.125 298.967 480.736 299.701C481.346 300.435 481.729 301.332 481.836 302.282Z" fill="#010101"/>
<path d="M416.471 307.324C416.471 307.324 396.993 269.377 380.367 290.267C363.742 311.158 377.057 349.346 393.141 360.355C409.226 371.363 418.551 357.804 418.551 357.804L416.471 307.324Z" fill="#FD8342"/>
<path d="M401.174 341.83C400.252 337.763 400.278 331.645 405.483 325.374C405.483 325.374 398.586 299.137 387.333 297.68C376.08 296.222 378.305 317.237 380.458 322.214C382.611 327.192 387.355 344.985 394.786 345.565C395.875 345.648 396.833 345.736 397.661 345.82C398.176 345.872 398.697 345.8 399.18 345.611C399.662 345.421 400.093 345.119 400.436 344.729C400.78 344.339 401.026 343.873 401.154 343.369C401.282 342.864 401.289 342.337 401.174 341.83Z" fill="#C6522E"/>
<path d="M401.428 346.165C401.312 345.801 401.142 345.436 400.946 345.01C400.75 344.584 400.561 344.099 400.405 343.629C400.106 342.699 399.882 341.746 399.733 340.78C399.575 339.816 399.495 338.841 399.494 337.864C399.475 337.376 399.515 336.888 399.53 336.407C399.544 335.926 399.606 335.434 399.693 334.949C399.984 333.022 400.56 331.149 401.403 329.392C402.244 327.66 403.291 326.036 404.521 324.557L404.271 325.683C403.726 323.551 403.058 321.383 402.336 319.266C401.614 317.149 400.811 315.05 399.918 312.998C399.039 310.948 398.034 308.955 396.909 307.029C395.82 305.116 394.509 303.338 393.003 301.735C392.64 301.33 392.223 301.006 391.827 300.623C391.62 300.452 391.402 300.295 391.192 300.132C391.087 300.051 390.985 299.964 390.872 299.891L390.538 299.68C390.325 299.535 390.103 299.402 389.874 299.282L389.17 298.918C388.693 298.718 388.198 298.563 387.692 298.455C386.69 298.213 385.645 298.213 384.643 298.455C384.158 298.585 383.695 298.785 383.268 299.049C382.839 299.327 382.446 299.657 382.099 300.033C381.401 300.842 380.849 301.767 380.469 302.766C380.074 303.794 379.779 304.859 379.587 305.944C379.207 308.152 379.057 310.394 379.14 312.634C379.145 312.734 379.109 312.832 379.041 312.907C378.973 312.981 378.879 313.025 378.779 313.029C378.679 313.034 378.581 312.998 378.507 312.93C378.433 312.862 378.389 312.767 378.385 312.667C378.226 310.377 378.306 308.078 378.621 305.805C378.789 304.648 379.068 303.509 379.452 302.405C379.847 301.264 380.439 300.202 381.202 299.268C381.607 298.795 382.072 298.377 382.585 298.025C383.109 297.675 383.681 297.405 384.284 297.224C385.478 296.881 386.737 296.831 387.954 297.078C388.558 297.186 389.151 297.351 389.725 297.57L390.557 297.934C390.822 298.077 391.079 298.236 391.326 298.408L391.715 298.638C391.842 298.718 391.958 298.809 392.078 298.896C392.321 299.071 392.568 299.242 392.804 299.425C393.254 299.811 393.726 300.179 394.136 300.605C395.792 302.247 397.248 304.082 398.47 306.071C399.7 308.026 400.807 310.056 401.784 312.149C402.771 314.23 403.661 316.351 404.47 318.497C405.28 320.643 406.024 322.804 406.681 325.056C406.733 325.235 406.741 325.425 406.707 325.608C406.672 325.792 406.595 325.965 406.481 326.113L406.431 326.182C405.332 327.495 404.396 328.936 403.643 330.474C402.901 332.004 402.392 333.636 402.133 335.317C402.053 335.733 402.038 336.159 401.987 336.578C401.937 336.997 401.933 337.423 401.947 337.85C401.956 339.55 402.217 341.24 402.721 342.864C402.851 343.259 403.001 343.647 403.171 344.026C403.345 344.42 403.559 344.883 403.73 345.396C403.832 345.703 403.808 346.037 403.665 346.326C403.521 346.615 403.269 346.835 402.964 346.938C402.659 347.04 402.325 347.017 402.038 346.873C401.75 346.728 401.53 346.475 401.428 346.169V346.165Z" fill="#020201"/>
<path d="M391.689 338.881C391.101 337.651 390.595 336.384 390.172 335.087C389.731 333.796 389.368 332.479 389.083 331.145C388.493 328.428 388.335 325.635 388.615 322.869C388.785 321.45 389.112 320.054 389.591 318.708C389.725 318.373 389.834 318.026 389.99 317.699L390.455 316.715C390.796 316.07 391.178 315.448 391.598 314.853C392.021 314.254 392.478 313.681 392.967 313.136C393.481 312.606 394.024 312.105 394.593 311.635C395.706 310.705 396.91 309.891 398.187 309.205C398.594 308.973 399.076 308.913 399.527 309.039C399.978 309.164 400.361 309.464 400.592 309.873C400.822 310.282 400.882 310.766 400.757 311.219C400.632 311.671 400.333 312.056 399.926 312.287C399.891 312.31 399.855 312.329 399.817 312.346L399.726 312.389C398.619 312.878 397.564 313.479 396.579 314.182C396.091 314.531 395.623 314.907 395.178 315.308C394.745 315.723 394.336 316.162 393.954 316.624C393.57 317.086 393.216 317.573 392.894 318.081L392.444 318.872C392.292 319.134 392.183 319.418 392.045 319.692C391.543 320.824 391.168 322.008 390.927 323.223C390.479 325.75 390.434 328.333 390.793 330.875C390.959 332.166 391.201 333.446 391.519 334.708C391.83 335.974 392.22 337.219 392.687 338.436V338.454C392.736 338.585 392.734 338.73 392.68 338.858C392.626 338.987 392.525 339.09 392.398 339.147C392.271 339.203 392.127 339.209 391.995 339.162C391.864 339.115 391.756 339.02 391.693 338.895L391.689 338.881Z" fill="#020201"/>
<path d="M416.471 307.324C416.471 307.324 406.873 288.627 395.417 284.706C390.546 283.041 385.337 284.04 380.382 290.267C363.738 311.161 377.057 349.346 393.141 360.354C409.226 371.363 418.551 357.804 418.551 357.804" stroke="black" stroke-width="4" stroke-linecap="round" stroke-linejoin="round"/>
</svg>
