<svg width="1000" height="1202" viewBox="0 0 1000 1202" fill="none" xmlns="http://www.w3.org/2000/svg">
<path d="M579 820C575.72 820.44 597.39 818.55 596 821C590.08 822.62 585.41 826.5 567.73 829.43C556.96 831.171 546.039 831.798 535.14 831.3C514.92 830.45 497.75 828.3 478.6 820.23C452.939 809.398 428.348 796.187 405.15 780.77C400.15 777.437 395.351 773.811 390.78 769.91C377.967 758.95 368.04 749.98 361 743C341.89 724.07 327.42 699.27 316 672C320.25 677.86 323.56 685.52 327.48 691.52C341.865 713.028 359.393 732.259 379.48 748.57C407.57 771.06 442.97 787.16 476.87 803C500.14 813.88 510.16 815.06 538.38 816C553.15 816.5 572.85 820 579 820Z" fill="#020201"/>
<path d="M571.58 829H571.4C415.65 816.34 344.88 739 312.93 676.31C303.207 657.237 295.82 637.062 290.93 616.22C287.36 600.76 283.21 584.89 278.6 569.05C277.31 564.61 275.95 560.05 274.6 555.57C272.91 550.07 271.1 544.36 269.23 538.57L261.11 513.57C251.49 483.94 242.11 447.57 233.2 405.57C232.95 404.37 232.76 403.47 232.63 402.9C231.73 398.76 230.49 390.43 228.97 378.12C223.09 330.69 226.24 284 238.34 239.37C243.219 221.175 249.677 203.441 257.64 186.37C274.29 150.96 297.23 120.69 325.81 96.3697C349.646 76.3193 376.692 60.4301 405.81 49.3697C457.5 29.3697 501.64 28.3697 509.97 28.3697H510.81C511.57 28.3197 514.42 28.1597 518.99 28.1597C543.6 28.1597 607.4 32.4397 668.07 72.0497C702.81 94.7197 730.93 125.5 751.64 163.54C776.64 209.45 791.04 266.41 794.42 332.81C794.86 341.36 793.54 355.86 791.91 372.53L791.19 379.83C788.54 406.66 785.25 440.05 785.42 470.18C785.64 508.28 776.36 569.33 770.81 602.33C768.68 614.91 767.17 623.03 767.15 623.11V623.29L767.1 623.47C748.93 689.79 720.46 741.59 682.49 777.47C650.4 807.77 618.21 820.23 596.86 825.36C582.42 828.83 572.86 828.93 571.86 828.93L571.58 829Z" fill="#4DA4DB"/>
<path d="M519 32.7998C563.28 32.7998 775.4 47.7298 789.94 333.17C790.35 341.17 789.12 355.1 787.44 372.22C784.69 400.38 780.74 437.17 780.93 470.34C781.15 508.49 771.74 569.85 766.38 601.71C764.24 614.4 762.74 622.41 762.74 622.41C721.61 772.5 637.22 811.15 595.74 821.09C581.74 824.46 572.63 824.54 571.79 824.54H571.73C418.17 812.06 348.43 736.07 316.94 674.3C307.368 655.557 300.105 635.722 295.31 615.23C291.63 599.29 287.5 583.487 282.92 567.82C281.587 563.286 280.237 558.773 278.87 554.28C277.123 548.593 275.327 542.927 273.48 537.28C270.89 529.28 268.15 520.9 265.36 512.28C249.63 463.83 238.52 409 237 402C236 397.44 234.69 388 233.41 377.63C227.572 331.796 230.71 285.264 242.65 240.63C247.447 222.699 253.804 205.222 261.65 188.4C333.21 36.2798 496 32.9998 510 32.9998H511C511 32.9998 513.89 32.7998 519.07 32.7998M519.07 23.7998C514.69 23.7998 511.8 23.9398 510.77 23.9998H510C501.53 23.9998 456.65 24.9998 404.22 45.2598C374.625 56.5231 347.137 72.6891 322.91 93.0798C293.83 117.78 270.51 148.56 253.58 184.56C245.504 201.856 238.952 219.824 234 238.26C221.75 283.45 218.56 330.72 224.52 378.74C226.08 391.36 227.3 399.6 228.25 403.93C228.37 404.49 228.56 405.38 228.81 406.57C237.74 448.79 247.17 485.29 256.81 515.06C259.29 522.69 261.72 530.18 264.05 537.33L264.93 540.03C266.79 545.76 268.59 551.44 270.28 556.93C271.66 561.43 273.01 565.93 274.28 570.34C278.87 586.11 283 601.9 286.54 617.25C291.513 638.456 299.028 658.984 308.92 678.39C341.39 742.08 413.22 820.69 571.03 833.51H571.4H571.82C573.6 833.51 583.24 833.33 597.88 829.81C619.75 824.56 652.73 811.81 685.54 780.81C724.12 744.38 753.01 691.87 771.4 624.75L771.5 624.39L771.57 624.03C771.57 623.95 773.11 615.79 775.23 603.17C780.81 570.02 790.13 508.69 789.91 470.25C789.74 440.34 793.02 407.08 795.66 380.36C795.9 377.87 796.15 375.43 796.38 373.05C798.03 356.21 799.38 341.53 798.91 332.67C795.49 265.59 780.91 207.99 755.59 161.48C734.52 122.79 705.9 91.4798 670.53 68.3698C608.84 28.1398 544 23.7998 519 23.7998H519.07Z" fill="#020201"/>
<path d="M278.87 554.28C277.123 548.593 275.327 542.927 273.48 537.28C270.89 529.28 268.15 520.9 265.36 512.28C249.63 463.83 238.52 409 237 402C236 397.44 234.69 388 233.41 377.63C227.572 331.796 230.71 285.264 242.65 240.63C247.447 222.699 253.805 205.222 261.65 188.4C254.04 218.27 250.19 298 272.05 446.96C273.33 455.69 274.47 464.02 275.46 471.9C275.46 472.02 275.46 472.14 275.51 472.25C282 523.83 282.51 555.86 278.87 554.28Z" fill="#2D74AA"/>
<path d="M271.15 442.43C271 443 284.53 519.35 282.77 575.18" stroke="#020201" stroke-width="9" stroke-linecap="round" stroke-linejoin="round"/>
<path d="M324.32 309.92C324.104 309.975 323.877 309.975 323.66 309.92C323.441 309.888 323.233 309.799 323.06 309.66C322.888 309.529 322.75 309.357 322.66 309.16C322.571 308.959 322.53 308.74 322.54 308.52C323.38 297.45 349.49 290.09 358.95 286.96C392.21 275.933 425.727 277.56 459.5 291.84C471.5 296.89 478.15 306.33 485.89 317.84C487.08 319.63 487.62 320.97 487.53 321.84C487.499 322.124 487.395 322.396 487.23 322.63C487.063 322.864 486.839 323.053 486.58 323.18C486.321 323.302 486.036 323.36 485.75 323.35C485.466 323.329 485.192 323.24 484.95 323.09C467.95 312.3 442.66 298.98 421.66 295.98C393.32 291.98 366.82 294.476 342.16 303.47C334.84 306.223 328.894 308.373 324.32 309.92Z" fill="#040200"/>
<path d="M778.71 308.09C745.58 300.23 709.45 291.16 675.96 304.51C664.667 308.983 656.777 312.043 652.29 313.69C651.825 313.863 651.319 313.891 650.839 313.769C650.358 313.648 649.926 313.383 649.6 313.01C649.271 312.632 649.059 312.166 648.99 311.67C648.926 311.172 649.014 310.667 649.24 310.22C659.67 289.91 675.46 284.86 697.85 281.87C728.21 277.79 759.75 282.09 780.54 305.01C780.798 305.31 780.955 305.684 780.99 306.079C781.024 306.474 780.933 306.869 780.73 307.21C780.529 307.553 780.225 307.823 779.86 307.98C779.496 308.129 779.096 308.167 778.71 308.09Z" fill="#040200"/>
<path d="M484.88 429.5C485.01 429.67 485.17 429.85 485.35 430.05C498.19 443.983 507.633 460.623 513.68 479.97C517.546 492.376 519.563 503.493 519.73 513.32C519.912 524.572 516.809 535.634 510.8 545.15C476.09 601.86 397.73 573.15 363.71 533.44C329.69 493.73 313.18 412 374.5 386.27C384.833 381.776 396.25 380.386 407.36 382.27C417.026 383.943 427.693 387.61 439.36 393.27C457.56 402.21 472.56 414.086 484.36 428.9C484.58 429.17 484.73 429.35 484.88 429.5ZM436.73 425.33C434.57 428.24 434.13 432.25 435.52 436.48C437.167 441.057 440.166 445.025 444.12 447.86C446.129 449.358 448.341 450.563 450.69 451.44C452.872 452.268 455.177 452.731 457.51 452.81C459.562 452.884 461.607 452.523 463.51 451.75C465.218 451.049 466.706 449.902 467.82 448.43C469.98 445.51 470.42 441.5 469.03 437.28C467.38 432.701 464.377 428.732 460.42 425.9C458.414 424.396 456.201 423.19 453.85 422.32C451.671 421.49 449.37 421.027 447.04 420.95C444.987 420.875 442.942 421.236 441.04 422.01C439.33 422.708 437.841 423.855 436.73 425.33Z" fill="#040200"/>
<path d="M460.43 425.9C451.85 419.52 441.23 419.27 436.73 425.33C432.23 431.39 435.53 441.49 444.12 447.86C452.71 454.23 463.32 454.49 467.83 448.43C472.34 442.37 469 432.28 460.43 425.9Z" fill="#FFFFFE"/>
<path d="M617.63 560.44C603.73 545.84 602.4 515.44 608.23 496.54C619.23 460.66 638.52 429.22 669.68 408.11C684.56 398.037 700.24 394.333 716.72 397C729.867 399.127 741.13 403.687 750.51 410.68C769.38 424.68 769.05 449.61 765.05 472.88C762.203 489.613 756.237 504.237 747.15 516.75C731.25 538.75 713.8 556.85 687.3 567.17C661.92 577 637.05 580.83 617.63 560.44ZM690.73 434.35C689.868 432.722 688.626 431.326 687.11 430.28C685.474 429.17 683.625 428.414 681.68 428.06C679.564 427.679 677.396 427.679 675.28 428.06C670.791 428.821 666.658 430.98 663.47 434.23C661.957 435.761 660.728 437.549 659.84 439.51C659.021 441.307 658.588 443.255 658.57 445.23C658.555 447.074 658.994 448.893 659.848 450.528C660.703 452.162 661.947 453.56 663.47 454.6C665.105 455.713 666.955 456.473 668.9 456.83C671.017 457.205 673.183 457.205 675.3 456.83C679.787 456.06 683.919 453.898 687.11 450.65C688.625 449.124 689.854 447.339 690.74 445.38C691.554 443.582 691.987 441.634 692.01 439.66C692.015 437.813 691.576 435.992 690.73 434.35Z" fill="#040200"/>
<path d="M681.69 454.67C690.22 450.21 694.27 441.12 690.69 434.35C687.11 427.58 677.37 425.73 668.85 430.18C660.33 434.63 656.27 443.74 659.85 450.5C663.43 457.26 673.16 459.13 681.69 454.67Z" fill="#FFFFFE"/>
<path d="M449 669C452.172 663.392 456.42 658.465 461.5 654.5C461.95 654.122 462.522 653.92 463.11 653.93C463.694 653.938 464.256 654.159 464.69 654.55C469.423 658.77 470.45 662.637 467.77 666.15C467.602 666.365 467.483 666.614 467.42 666.88C467.366 667.144 467.366 667.416 467.42 667.68C467.461 667.951 467.56 668.21 467.71 668.44C467.858 668.668 468.052 668.862 468.28 669.01C471.906 671.363 478.39 676.063 487.73 683.11C515.79 704.28 570.73 706.8 602.08 691.26C616.7 684.02 625.33 679.11 635.9 669.68C636.329 669.298 636.849 669.033 637.41 668.91C637.966 668.79 638.543 668.811 639.09 668.97C639.639 669.126 640.139 669.423 640.54 669.83C640.942 670.239 641.237 670.74 641.4 671.29L642.03 673.56C642.22 674.219 642.241 674.916 642.091 675.585C641.94 676.255 641.623 676.875 641.17 677.39C633.17 686.417 625.033 693.03 616.76 697.23C591.513 709.99 563.926 714.883 534 711.91C506.92 709.19 487.94 700.11 467.24 684.22C461.654 679.795 455.85 675.653 449.85 671.81C449.378 671.537 449.028 671.094 448.87 670.573C448.713 670.051 448.759 669.489 449 669Z" fill="#040200"/>
<path d="M584.63 737.57C584.839 737.568 585.046 737.62 585.23 737.72C585.408 737.825 585.554 737.977 585.65 738.16C585.748 738.34 585.793 738.545 585.781 738.75C585.768 738.955 585.699 739.152 585.58 739.32C583.819 741.814 581.394 743.765 578.58 744.95C562.4 752.19 525.58 766.07 519.84 740.82C519.764 740.482 519.81 740.127 519.97 739.82C520.141 739.513 520.418 739.278 520.75 739.16C523.222 738.297 525.822 737.858 528.44 737.86C546.813 738.133 565.543 738.037 584.63 737.57Z" fill="#2D74AA"/>
</svg>
