<svg width="1000" height="1202" viewBox="0 0 1000 1202" fill="none" xmlns="http://www.w3.org/2000/svg">
<path d="M583 820C579.53 820.44 602.42 818.55 601 821C594.75 822.62 589.82 826.5 571.13 829.43C559.738 831.172 548.203 831.798 536.69 831.3C515.32 830.45 497.18 828.3 476.95 820.23C449.934 809.455 423.954 796.247 399.329 780.77C394.06 777.448 388.988 773.821 384.14 769.91C370.54 758.95 360.006 749.97 352.54 742.97C332.34 724 317 699.24 305 672C309.5 677.86 313 685.52 317.13 691.52C332.27 713.41 353.349 734.39 372.079 748.57C401.759 771.06 439.17 787.16 475 803C499.59 813.88 510.17 815.06 540 816C555.64 816.5 576.45 820 583 820Z" fill="#020201"/>
<path d="M575.13 829H575C477.73 821.52 401.24 790.71 347.66 737.42C314.147 704.039 290.344 662.171 278.8 616.3C272.65 591.1 265.14 565.72 255.8 538.71C253.5 532.03 251.1 525.02 248.64 517.86L247.22 513.74C224.3 446.8 212 409.88 210.62 404C207.53 390.62 208.3 338.37 208.33 336.15V336C210.69 279 222.56 228.67 243.6 186.34C260.755 151.466 285.329 120.766 315.6 96.3903C340.03 76.7503 368.45 60.9303 400.07 49.3903C454.64 29.5003 501.21 28.4903 510 28.4903H510.89C511.67 28.4403 514.67 28.2803 519.53 28.2803C545.53 28.2803 612.8 32.5503 676.83 72.1103C713.459 94.7065 743.814 126.155 765.1 163.56C791.54 209.5 806.76 266.48 810.33 332.92C810.79 341.46 809.4 355.98 807.68 372.67L806.93 379.81C804.13 406.68 800.64 440.12 800.82 470.3C801.05 508.5 791.24 569.52 785.37 602.49C783.13 615.08 781.52 623.2 781.5 623.28V623.47L781.44 623.65C768.01 670.05 749.07 709.65 725.15 741.43C705.85 767.05 683.28 787.65 658.06 802.66C614.22 828.74 576.94 829 575.37 829H575.13Z" fill="#753018"/>
<path d="M519.53 32.7998C566.32 32.7998 790.53 47.7298 805.84 333.17C806.27 341.17 804.97 355.1 803.2 372.22C800.29 400.38 796.12 437.17 796.32 470.34C796.55 508.49 786.61 569.85 780.94 601.71C778.68 614.4 777.09 622.41 777.09 622.41C718.92 823.28 578.87 824.54 575.37 824.54H575.3C352.56 807.42 296.72 670.67 283.17 615.23C276.74 588.88 268.93 562.9 260.1 537.23C257.36 529.23 254.47 520.85 251.52 512.23C234.9 463.83 216.61 410 215 403C212 390 212.83 336.23 212.83 336.23C215.34 275.65 228.35 227.17 247.63 188.38C323.22 36.2798 495.29 32.9998 510 32.9998H511C511 32.9998 514 32.7998 519.53 32.7998ZM519.53 23.7998C514.87 23.7998 511.83 23.9398 510.79 23.9998H510C501.08 23.9998 453.81 24.9998 398.56 45.2098C366.47 56.9098 337.62 72.9998 312.81 92.9198C282.021 117.699 257.024 148.911 239.57 184.37C218.25 227.28 206.22 278.24 203.84 335.86V336.09C203.75 341.71 203.09 391.35 206.24 405.02C207.63 411.02 220.01 448.12 243.02 515.2L244.51 519.55C246.94 526.63 249.32 533.55 251.6 540.18C260.85 567.05 268.32 592.29 274.44 617.36C279.193 636.643 286.156 655.313 295.19 673C307.909 698.02 324.534 720.853 344.44 740.64C369.26 765.32 399.39 785.51 433.98 800.64C474.53 818.39 521.85 829.45 574.61 833.5H574.95H575.37C579.37 833.5 616.23 832.74 660.37 806.5C686.1 791.19 709.1 770.2 728.75 744.11C753 711.91 772.19 671.8 785.75 624.87L785.86 624.5L785.94 624.12C785.94 624.04 787.57 615.88 789.82 603.25C795.72 570.12 805.57 508.79 805.34 470.25C805.16 440.31 808.64 407.01 811.43 380.25C811.68 377.82 811.93 375.43 812.17 373.11C813.92 356.22 815.32 341.52 814.85 332.65C811.23 265.5 795.85 207.85 769.03 161.3C747.369 123.26 716.488 91.2787 679.23 68.2998C614.2 28.1298 545.89 23.7998 519.54 23.7998H519.53Z" fill="#020201"/>
<path d="M251.52 512.28C234.9 463.83 216.61 410 215 403C212 390 212.83 336.23 212.83 336.23C215.34 275.65 228.35 227.17 247.63 188.38C239.63 218.25 226.09 299.57 258.63 446.94C272 507.59 266 521.56 251.52 512.28Z" fill="#571E12"/>
<path d="M271.27 445.47C271.27 445.47 217.61 341.33 171.81 398.66C126.01 455.99 162.69 560.79 207 591C251.31 621.21 277 584 277 584L271.27 445.47Z" fill="#753018"/>
<path d="M229.13 540.159C226.59 528.999 226.66 512.209 241 494.999C241 494.999 222 422.999 191 418.999C160 414.999 166.13 472.669 172.06 486.329C177.99 499.989 191.06 548.819 211.53 550.409C214.53 550.639 217.17 550.879 219.45 551.109C220.871 551.253 222.305 551.056 223.635 550.535C224.964 550.015 226.151 549.185 227.097 548.116C228.043 547.046 228.72 545.766 229.074 544.383C229.427 542.999 229.447 541.551 229.13 540.159Z" fill="#571E12"/>
<path d="M229.83 552.06C229.51 551.06 229.04 550.06 228.5 548.89C227.96 547.72 227.44 546.39 227.01 545.1C226.187 542.546 225.569 539.931 225.16 537.28C224.723 534.635 224.503 531.96 224.5 529.28C224.45 527.94 224.56 526.6 224.6 525.28C224.64 523.96 224.81 522.61 225.05 521.28C225.851 515.99 227.439 510.85 229.76 506.03C232.077 501.276 234.962 496.82 238.35 492.76L237.66 495.85C236.16 490 234.32 484.05 232.33 478.24C230.34 472.43 228.13 466.67 225.67 461.04C223.248 455.413 220.48 449.943 217.38 444.66C214.381 439.407 210.769 434.53 206.62 430.13C205.62 429.02 204.47 428.13 203.38 427.08C202.81 426.61 202.21 426.18 201.63 425.73C201.34 425.51 201.06 425.27 200.75 425.07L199.83 424.49C199.241 424.092 198.63 423.728 198 423.4L196.06 422.4C194.746 421.85 193.383 421.425 191.99 421.13C189.233 420.464 186.357 420.464 183.6 421.13C182.26 421.483 180.979 422.032 179.8 422.76C178.618 423.522 177.536 424.429 176.58 425.46C174.657 427.678 173.137 430.217 172.09 432.96C171.003 435.782 170.189 438.702 169.66 441.68C168.613 447.74 168.201 453.893 168.43 460.04C168.442 460.315 168.344 460.585 168.157 460.788C167.97 460.992 167.711 461.113 167.435 461.125C167.159 461.137 166.89 461.038 166.686 460.852C166.483 460.665 166.362 460.405 166.35 460.13C165.913 453.847 166.13 447.537 167 441.3C167.463 438.124 168.23 434.999 169.29 431.97C170.377 428.838 172.009 425.923 174.11 423.36C175.226 422.062 176.507 420.916 177.92 419.95C179.363 418.99 180.94 418.248 182.6 417.75C185.889 416.81 189.356 416.673 192.71 417.35C194.375 417.646 196.009 418.098 197.59 418.7L199.88 419.7C200.61 420.093 201.318 420.527 202 421L203.07 421.63C203.42 421.85 203.74 422.1 204.07 422.34C204.74 422.82 205.42 423.29 206.07 423.79C207.31 424.85 208.61 425.86 209.74 427.03C214.304 431.535 218.312 436.571 221.68 442.03C225.069 447.393 228.118 452.964 230.81 458.71C233.53 464.42 235.98 470.24 238.21 476.13C240.44 482.02 242.49 487.95 244.3 494.13C244.442 494.622 244.466 495.141 244.371 495.645C244.275 496.149 244.062 496.623 243.75 497.03L243.61 497.22C240.584 500.822 238.005 504.777 235.93 509C233.887 513.197 232.484 517.676 231.77 522.29C231.55 523.43 231.51 524.6 231.37 525.75C231.23 526.9 231.22 528.07 231.26 529.24C231.284 533.906 232.002 538.544 233.39 543C233.748 544.083 234.162 545.148 234.63 546.19C235.11 547.27 235.7 548.54 236.17 549.95C236.451 550.79 236.387 551.708 235.991 552.502C235.595 553.295 234.901 553.898 234.06 554.18C233.219 554.461 232.301 554.396 231.508 554.001C230.715 553.605 230.111 552.91 229.83 552.07V552.06Z" fill="#020201"/>
<path d="M203 532.07C201.381 528.695 199.984 525.218 198.82 521.66C197.606 518.116 196.604 514.503 195.82 510.84C194.196 503.385 193.761 495.721 194.53 488.13C194.998 484.235 195.901 480.405 197.22 476.71C197.59 475.79 197.89 474.84 198.32 473.94L199.6 471.24C200.54 469.471 201.592 467.765 202.75 466.13C203.914 464.488 205.172 462.915 206.52 461.42C207.936 459.965 209.432 458.59 211 457.3C214.066 454.748 217.383 452.513 220.9 450.63C222.022 449.995 223.35 449.831 224.593 450.175C225.835 450.52 226.89 451.343 227.525 452.465C228.16 453.587 228.324 454.915 227.98 456.158C227.635 457.4 226.812 458.455 225.69 459.09C225.594 459.151 225.494 459.205 225.39 459.25L225.14 459.37C222.09 460.711 219.185 462.36 216.47 464.29C215.126 465.247 213.838 466.278 212.61 467.38C211.418 468.517 210.293 469.723 209.24 470.99C208.182 472.26 207.207 473.596 206.32 474.99L205.08 477.16C204.66 477.88 204.36 478.66 203.98 479.41C202.598 482.516 201.565 485.766 200.9 489.1C199.666 496.036 199.541 503.125 200.53 510.1C200.988 513.643 201.656 517.156 202.53 520.62C203.387 524.094 204.463 527.511 205.75 530.85V530.9C205.885 531.259 205.877 531.655 205.729 532.009C205.581 532.362 205.303 532.645 204.952 532.8C204.601 532.955 204.205 532.97 203.844 532.841C203.483 532.713 203.184 532.451 203.01 532.11L203 532.07Z" fill="#020201"/>
<path d="M271.27 445.47C271.27 445.47 244.83 394.16 213.27 383.4C199.85 378.83 185.5 381.57 171.85 398.66C126 456 162.69 560.79 207 591C251.31 621.21 277 584 277 584" stroke="black" stroke-width="7" stroke-linecap="round" stroke-linejoin="round"/>
<path d="M360 343.89C359.806 343.848 359.625 343.763 359.47 343.64C359.312 343.522 359.186 343.367 359.1 343.19C359.012 343.01 358.967 342.811 358.97 342.61C358.967 342.413 359.012 342.217 359.1 342.04C367.867 324.237 381.764 309.466 399 299.63C419.666 287.464 444.04 282.887 472.12 285.9C480.91 286.84 492.91 291.76 498.95 294.5C514.35 301.5 526.58 317.59 524.83 335.14C524.707 336.402 524.181 337.591 523.33 338.53C522.471 339.472 521.337 340.119 520.09 340.38C513.273 341.688 506.299 341.967 499.4 341.21C485.24 339.804 471.153 338.65 457.14 337.75C450.288 337.244 443.413 337.15 436.55 337.47C419.04 338.47 404.55 336.17 389 338.91C376.64 341.1 363.21 344.67 360 343.89ZM381.36 330.6L444.36 327.01C444.753 326.98 445.147 326.98 445.54 327.01C467.22 329.264 486.103 330.98 502.19 332.16C506.332 332.557 510.512 332.266 514.56 331.3C515.086 331.165 515.58 330.923 516.01 330.59C516.439 330.259 516.796 329.844 517.06 329.37C517.324 328.898 517.489 328.377 517.546 327.839C517.602 327.301 517.549 326.757 517.39 326.24C513.39 313.45 504.5 302.73 491.04 298.78C487.553 297.76 483.373 296.367 478.5 294.6C468.14 290.83 434.02 293.71 427.9 296.92C411.229 305.6 395.141 315.357 379.74 326.13C379.42 326.359 379.16 326.663 378.983 327.014C378.807 327.366 378.718 327.755 378.725 328.149C378.732 328.542 378.834 328.928 379.023 329.273C379.212 329.618 379.482 329.912 379.81 330.13C380.269 330.46 380.825 330.626 381.39 330.6H381.36Z" fill="black"/>
<path d="M379.81 321.94C388.15 314.94 403.61 308.44 415.05 302.18C427.776 295.089 442.154 291.497 456.72 291.77C483.45 292.49 514.46 301.52 518.72 321.84C519.043 323.319 519.026 324.852 518.67 326.323C518.314 327.795 517.629 329.166 516.666 330.334C515.703 331.502 514.488 332.436 513.111 333.066C511.735 333.696 510.233 334.005 508.72 333.97C473.1 333.39 422.04 327.97 383.97 331.9C382.769 332.015 381.563 331.742 380.528 331.122C379.493 330.502 378.684 329.567 378.219 328.454C377.754 327.34 377.658 326.107 377.944 324.935C378.23 323.764 378.884 322.714 379.81 321.94Z" fill="#1F1014"/>
<path d="M773.13 315.14C752.94 296.99 727.43 290.76 701.43 293.05C680.403 294.87 664.89 304.507 654.89 321.96C654.021 323.456 653.365 325.064 652.94 326.74C652.94 326.74 643.25 354.79 654.13 355.89C654.486 356.002 654.865 356.019 655.23 355.94H655.42C656.238 355.883 657.042 355.694 657.8 355.38C665.271 353.576 672.62 351.294 679.8 348.55C705.14 338.91 729.66 338.8 756.14 344.14C765.387 346.048 774.763 347.268 784.19 347.79C787.56 347.91 793 333 773.13 315.14ZM777.13 336.72C776.765 337.367 776.246 337.913 775.62 338.31C774.99 338.719 774.268 338.966 773.52 339.03C762.98 339.94 754.66 336.15 740.71 332.03C719.71 325.8 699.62 333.76 679.86 339.64C678.32 340.088 676.732 340.353 675.13 340.43C672.549 340.551 669.975 340.805 667.42 341.19C668.064 339.159 668.591 337.092 669 335L678.4 308.5C683.5 306.34 688.72 304.73 692.9 302.74C694.46 302.009 696.128 301.532 697.84 301.33C730.65 297.63 760.99 302.48 777.14 332.54C777.494 333.18 777.679 333.899 777.679 334.63C777.679 335.361 777.494 336.081 777.14 336.72H777.13Z" fill="black"/>
<path d="M654.43 341.43C658.83 287.35 759.78 286.43 778.31 332.94C778.652 333.613 778.824 334.359 778.813 335.114C778.801 335.868 778.606 336.609 778.243 337.271C777.881 337.933 777.362 338.497 776.732 338.913C776.103 339.329 775.381 339.585 774.63 339.66C763.99 340.6 755.63 336.66 741.51 332.42C713.21 324.19 687.2 341.26 659.51 343.6C658.542 343.871 657.512 343.803 656.588 343.409C655.664 343.014 654.903 342.316 654.43 341.43Z" fill="#1F1014"/>
<path d="M519 468C519 498.38 492 532 452 532C412 532 368 499.38 368 469C368 438.62 399 410 439 410C479 410 519 437.62 519 468Z" fill="white"/>
<path d="M469 529.9C552.2 504.19 488.73 409.69 462.89 430.22C461.056 431.709 459.628 433.638 458.74 435.827C457.852 438.016 457.532 440.394 457.81 442.74L457.87 443.17C458.148 444.987 458.884 446.703 460.008 448.157C461.132 449.612 462.608 450.755 464.297 451.482C465.985 452.208 467.831 452.492 469.66 452.308C471.488 452.125 473.24 451.478 474.75 450.43C476.75 449.07 478.75 448.1 479.5 449.43C497.06 474.61 480.33 515.57 447.81 517.7C399.52 521.08 387.51 453.79 415.43 423.87C415.937 423.323 416.257 422.629 416.345 421.889C416.433 421.148 416.284 420.399 415.92 419.748C415.556 419.097 414.995 418.579 414.318 418.267C413.64 417.954 412.882 417.865 412.15 418.01C401.32 420.29 388.5 428.77 380 439.01C365 457.01 376.79 474.23 370 482.01C345.51 416.57 417 363.18 478.88 400.43C533 433 537.06 521.44 469 529.9Z" fill="black"/>
<path d="M765.61 491.569C750.97 528.419 705.69 546.719 673.52 533.939C641.35 521.159 635.85 482.849 650.52 446.009C665.19 409.169 714.66 395.539 746.84 408.319C760.43 413.719 766.18 424.029 769.84 435.539C774.88 451.269 774.06 470.289 765.61 491.569Z" fill="#FFFFFE"/>
<path d="M699.69 537.92C746.8 531.64 800.14 451.35 736.53 430.72C722.96 426.24 687.4 431.36 705.17 450.85C707.24 453.85 709.67 454.27 712.17 453.75C715.223 453.061 718.423 453.565 721.117 455.158C723.81 456.751 725.793 459.313 726.66 462.32C732.94 485.59 727.91 510.93 702.21 522.85C663.21 535.41 645.64 500.04 654.21 464.69C654.295 464.343 654.251 463.978 654.088 463.662C653.925 463.345 653.653 463.097 653.323 462.965C652.992 462.832 652.625 462.824 652.288 462.94C651.951 463.057 651.668 463.291 651.49 463.6C645.24 474.16 645 489.4 645.13 502.35C639.85 494.01 641.03 484.74 642.24 470.9C649.48 387.68 785.81 369.9 772.76 467.82C769.53 497.78 747.84 535.83 699.69 537.92Z" fill="black"/>
<path d="M633.21 587.94C626.18 590.472 619.834 594.6 614.67 600C609.764 605.123 603.499 608.741 596.61 610.43C574.32 615.96 545.77 613.07 530.41 595.78C530.084 595.412 529.864 594.961 529.776 594.477C529.687 593.994 529.732 593.495 529.906 593.035C530.08 592.574 530.376 592.171 530.763 591.867C531.149 591.563 531.612 591.37 532.1 591.31C543.1 590.01 562.01 593.64 574.93 592.96C580.59 592.67 580.43 584.27 574.76 584.21C570.95 584.21 566.87 584.21 563.29 584.14C562.21 584.14 549.29 588.77 550 587.96C550.71 587.15 523.13 587.58 521 586.96C519.55 586.54 520.16 585.7 521.35 584.55C525.089 581.281 529.681 579.144 534.59 578.39C567.46 574.9 615.53 568.67 633.72 585.09C633.948 585.277 634.121 585.522 634.223 585.798C634.325 586.075 634.351 586.374 634.299 586.664C634.247 586.954 634.119 587.225 633.928 587.45C633.736 587.674 633.489 587.843 633.21 587.94Z" fill="#571E12"/>
<path d="M549.15 584.81C551.128 584.449 553.14 584.298 555.15 584.36C563.95 584.63 594.37 581.36 589.27 588.7C577.91 602.35 507.18 578.83 538.74 602.7C538.87 602.793 538.967 602.925 539.017 603.077C539.066 603.23 539.066 603.394 539.016 603.546C538.965 603.698 538.868 603.829 538.737 603.922C538.607 604.015 538.45 604.063 538.29 604.06C527.86 603.76 522.53 595.82 514.87 595.12C512.643 594.985 510.479 594.328 508.552 593.202C506.626 592.077 504.991 590.514 503.78 588.64C494.89 574 506.91 550.73 522.16 552.31C522.488 552.347 522.795 552.487 523.039 552.71C523.282 552.932 523.449 553.227 523.514 553.55C523.58 553.873 523.541 554.209 523.404 554.509C523.266 554.809 523.037 555.058 522.75 555.22C484.68 576.46 522.69 589.64 549.15 584.81Z" fill="black"/>
<path d="M605 607C611.3 598 624.85 590.56 635.66 587.09C641.073 583.85 643.17 578.247 641.95 570.28C641.61 567.907 639.857 561.743 636.69 551.79C631.64 535.89 623.92 526.28 613.16 510.68C604.493 498.087 602.8 482.617 608.08 464.27C608.209 463.849 608.451 463.472 608.78 463.18C609.113 462.889 609.523 462.698 609.96 462.63H610.15C610.34 462.608 610.532 462.632 610.71 462.7C610.894 462.76 611.06 462.866 611.19 463.01C611.321 463.149 611.417 463.317 611.47 463.5C611.515 463.684 611.515 463.876 611.47 464.06C606.33 489.06 620.17 505.63 635.16 526.61C648.153 544.73 653.03 564.78 649.79 586.76C649.538 588.436 648.96 590.046 648.09 591.5C647.22 592.948 646.071 594.209 644.71 595.21C634.81 602.45 618.24 607.2 605 607Z" fill="black"/>
<path d="M677.87 676.47C677.95 676.758 677.95 677.062 677.87 677.35C677.791 677.641 677.627 677.902 677.4 678.1C677.179 678.297 676.904 678.423 676.61 678.46C676.314 678.508 676.01 678.463 675.74 678.33C672.797 676.781 669.587 675.8 666.28 675.44C664.853 675.339 663.422 675.558 662.09 676.08C632.99 687.57 608.66 687.18 574.27 685.81C541.79 684.5 515.61 680.81 485.81 667.35C462.81 657.01 449.02 642.23 430.59 623.2C430.332 622.921 430.158 622.574 430.09 622.2C430.04 621.822 430.11 621.437 430.29 621.1C430.747 620.188 431.469 619.436 432.362 618.942C433.254 618.447 434.275 618.234 435.29 618.33C441.07 618.33 446.91 618.3 452.81 618.24C453.273 618.24 453.728 618.35 454.14 618.56C454.557 618.759 454.918 619.058 455.19 619.43C455.458 619.806 455.639 620.236 455.72 620.69C455.789 621.143 455.751 621.605 455.61 622.04L453.75 627.7C453.567 628.236 453.506 628.805 453.57 629.367C453.634 629.929 453.822 630.47 454.12 630.95C462.96 645.24 474.12 650.51 491.24 658.72C514.74 669.974 540.457 675.69 568.39 675.87L604.39 676.14C617.63 676.24 627.99 675.317 635.47 673.37C645.665 670.79 655.664 667.489 665.39 663.49C666.277 663.117 667.255 663.013 668.2 663.191C669.146 663.369 670.019 663.821 670.71 664.49C674.013 667.86 676.467 671.966 677.87 676.47Z" fill="black"/>
<path d="M529.75 720.81C529.529 720.573 529.389 720.272 529.35 719.95C529.318 719.629 529.392 719.306 529.56 719.03C529.73 718.751 529.992 718.539 530.3 718.43C530.605 718.325 530.936 718.325 531.24 718.43C559.64 728.264 589.51 728.374 620.85 718.76C621.178 718.676 621.522 718.676 621.85 718.76C622.107 718.83 622.346 718.954 622.551 719.122C622.757 719.291 622.925 719.501 623.044 719.739C623.163 719.977 623.23 720.237 623.241 720.502C623.253 720.768 623.208 721.033 623.11 721.28C621.71 724.76 618.864 727 614.57 728C587.92 734.07 551 742.22 529.75 720.81Z" fill="black"/>
</svg>
