<svg width="1000" height="1000" viewBox="0 0 1000 1000" fill="none" xmlns="http://www.w3.org/2000/svg">
<path d="M497.065 571.953C493.212 571.955 489.37 571.525 485.612 570.67C472.613 567.704 461.676 562.289 449.04 552.538C446.016 550.199 445.791 547.641 446.136 545.902C447.276 540.036 448.731 473.534 448.789 466.013C448.808 463.739 448.811 457.934 448.789 451.896C448.789 445.111 448.731 438.458 448.677 433.64C448.626 429.417 448.564 426.717 448.499 425.369L448.347 422.377L450.938 423.86C451.338 424.09 452.953 424.877 454.666 425.707C461.436 428.987 464.594 430.601 465.415 431.388C466.562 432.325 475.234 435.072 478.94 436.242C482.45 437.335 482.933 437.521 483.274 437.725C486.026 439.405 488.984 440.659 492.121 441.985C494.48 442.983 496.923 444.018 499.504 445.319C503.639 447.403 505.617 448.333 506.401 448.333C506.69 448.311 506.976 448.254 507.251 448.161C508.231 447.899 509.715 447.498 512.917 447.498C514.209 447.498 515.705 447.564 517.357 447.695C520.529 447.728 522.101 449.787 523.252 451.295C524.239 452.585 524.704 453.117 525.484 453.117C525.845 453.105 526.201 453.031 526.537 452.898L528.762 452.1L528.722 454.473C528.722 455.325 528.722 456.582 528.747 458.011C528.824 461.487 529.012 465.74 529.267 469.671C529.434 472.284 529.63 483.588 529.873 496.68C530.236 516.223 530.755 545.731 531.303 548.147C532.232 550.997 531.666 553.781 529.699 556.2C521.495 566.246 512.521 571.067 500.597 571.829C499.417 571.913 498.23 571.953 497.065 571.953Z" fill="#71BD66"/>
<path d="M450.132 425.285C451.526 426.083 463.153 431.48 464.289 432.573C465.927 434.169 481.713 438.702 482.439 439.132C487.347 442.135 492.756 443.749 498.774 446.785C503.78 449.306 505.308 449.973 506.397 449.973C507.639 449.973 508.368 449.139 512.91 449.139C514.089 449.139 515.52 449.193 517.266 449.335H517.291C521.789 449.335 521.945 454.75 525.462 454.75C526.018 454.742 526.569 454.636 527.088 454.437C527.088 455.289 527.088 456.532 527.114 458.041C527.183 461.167 527.357 465.441 527.637 469.785C528.079 476.708 528.784 545.728 529.742 548.64C530.516 550.981 530.081 553.158 528.435 555.169C521.386 563.802 513.302 569.381 500.484 570.201C499.335 570.278 498.192 570.316 497.057 570.314C493.326 570.319 489.606 569.902 485.968 569.071C471.97 565.879 461.117 559.79 450.031 551.238C448.131 549.78 447.365 548.109 447.733 546.224C448.934 540.051 450.368 472.492 450.419 466.028C450.437 463.907 450.441 458.318 450.419 451.893C450.419 445.808 450.368 438.972 450.307 433.623C450.259 429.833 450.201 426.787 450.125 425.285M446.557 419.455L446.862 425.438C446.931 426.758 446.989 429.447 447.04 433.648C447.116 440.185 447.141 447.881 447.152 451.868C447.17 457.928 447.152 463.725 447.152 465.966C447.094 473.28 445.624 539.938 444.528 545.56C444.165 547.346 444.165 550.804 448.038 553.803C460.877 563.704 471.996 569.217 485.249 572.238C489.125 573.12 493.087 573.564 497.061 573.56C498.259 573.56 499.486 573.52 500.691 573.44C507.345 573.014 513.084 571.378 518.231 568.43C522.79 565.824 526.834 562.257 530.936 557.217C533.259 554.371 533.927 551.096 532.867 547.743C532.341 544.522 531.826 515.735 531.481 496.633C531.234 482.987 531.041 472.219 530.871 469.555C530.62 465.638 530.432 461.408 530.355 457.95C530.323 456.547 530.315 455.311 530.33 454.473L530.41 449.736L525.999 451.35C525.855 451.406 525.706 451.445 525.553 451.467C525.19 451.106 524.858 450.715 524.562 450.297C523.364 448.727 521.364 446.107 517.44 446.056C515.766 445.925 514.249 445.859 512.928 445.859C509.512 445.859 507.904 446.293 506.84 446.588L506.408 446.697C505.592 446.551 502.259 444.875 500.255 443.862C497.624 442.536 495.173 441.49 492.774 440.484C489.696 439.18 486.788 437.933 484.153 436.337C483.637 436.028 483.14 435.86 479.47 434.698C476.319 433.703 468.017 431.072 466.453 430.103C465.458 429.232 463.117 427.996 455.414 424.25C453.879 423.503 452.147 422.658 451.784 422.454L446.564 419.455H446.557Z" fill="#020201"/>
<path d="M527.636 469.785C522.798 471.324 517.756 472.125 512.681 472.161C498.215 472.227 483.492 469.381 470.722 463.288C464.35 460.249 458.566 457.227 453.37 454.222C452.321 453.536 451.336 452.757 450.426 451.894C450.426 445.808 450.194 430.635 450.132 425.293C461.69 431.633 471.633 447.765 484.792 451.996C495.87 455.552 504.219 458.445 516.783 458.682C520.238 458.77 523.695 458.556 527.114 458.041C527.183 461.167 527.357 465.442 527.636 469.785Z" fill="#427F41"/>
<path d="M527.651 454.8C526.486 454.961 534.185 454.272 533.702 455.165C531.6 455.755 529.945 457.169 523.662 458.237C519.837 458.871 515.957 459.1 512.086 458.918C504.902 458.608 498.803 457.825 492.001 454.884C482.87 450.93 474.134 446.115 465.908 440.505C464.129 439.289 462.424 437.968 460.801 436.548C456.227 432.554 452.687 429.282 450.18 426.731C443.388 419.833 438.248 410.796 434.208 400.859C435.721 402.995 436.894 405.786 438.284 407.972C443.376 415.786 449.603 422.793 456.757 428.761C466.736 436.956 479.314 442.823 491.358 448.595C499.624 452.559 503.181 452.989 513.207 453.332C518.453 453.525 525.451 454.8 527.651 454.8Z" fill="#020201"/>
<path d="M525.019 458.081H524.929C484.087 454.681 454.252 441.53 438.647 420.049C428.16 405.616 425.118 386.182 423.299 374.569C422.842 371.654 422.45 369.147 422.04 367.336C420.69 361.331 420.439 360.642 419.699 358.591C419.561 358.226 419.404 357.789 419.227 357.286C418.722 355.869 418.188 354.265 417.546 352.247C416.424 348.712 404.064 310.443 403.222 308.126L403.059 307.674C401.788 304.176 399.665 298.32 398.779 290.999C397.356 279.204 396.045 256.43 403.305 236.658C405.205 231.347 407.816 226.321 411.066 221.718C426.189 200.487 447.075 184.07 471.234 174.423C489.384 167.212 502.815 166.406 503.363 166.406C503.363 166.406 504.452 166.326 506.318 166.326C515.066 166.326 537.742 167.886 559.316 182.327C571.658 190.591 581.647 201.811 589.005 215.669C597.873 232.38 602.995 253.128 604.193 277.342C604.349 280.454 603.885 285.723 603.304 291.808C602.941 295.576 602.237 300.066 601.489 304.817C600.2 312.987 598.737 322.25 598.781 329.822C598.803 333.604 599.144 337.514 599.507 341.654C600.436 352.356 601.493 364.483 596.875 377.393C595.456 381.354 594.312 384.248 594.095 384.794C575.004 456.04 530.312 458.081 525.273 458.081H525.019Z" fill="#71BD66"/>
<path d="M506.317 167.951C522.046 167.951 597.398 173.392 602.563 277.404C602.708 280.319 602.273 285.395 601.677 291.634C600.697 301.895 597.078 317.728 597.147 329.815C597.223 343.716 601.554 359.436 595.332 376.821C593.753 381.23 592.537 384.259 592.537 384.259C573.501 455.505 528.733 456.456 525.273 456.456H525.059C484.516 453.078 455.127 439.956 439.968 419.091C427.129 401.421 425.724 376.246 423.633 366.983C422.018 359.793 421.945 360.081 420.765 356.758C420.37 355.643 419.851 354.12 419.103 351.769C418.188 348.869 405.643 310.028 404.757 307.587C403.541 304.227 401.301 298.284 400.401 290.825C398.604 275.91 398.303 255.03 404.826 237.222C406.674 232.054 409.216 227.162 412.38 222.683C449.497 170.939 503.45 168.024 503.45 168.024C503.45 168.024 504.477 167.951 506.317 167.951ZM506.317 164.672C504.539 164.672 503.45 164.737 503.246 164.752C502.361 164.803 488.813 165.681 470.631 172.9C459.864 177.17 449.684 182.803 440.338 189.662C428.566 198.344 418.236 208.841 409.73 220.763C406.388 225.484 403.701 230.64 401.744 236.089C394.397 256.207 395.715 279.255 397.16 291.218C398.063 298.728 400.231 304.701 401.516 308.257L401.679 308.705C402.503 310.983 414.859 349.226 415.985 352.768C416.631 354.805 417.172 356.412 417.68 357.869C417.861 358.379 418.018 358.806 418.156 359.185C418.882 361.203 419.114 361.812 420.439 367.715C420.838 369.475 421.226 371.964 421.677 374.843C423.521 386.602 426.603 406.282 437.322 421.033C445.239 431.932 456.797 440.783 471.673 447.346C486.45 453.861 504.321 458.03 524.787 459.735H524.921H525.284C530.446 459.735 576.242 457.647 595.648 385.297C595.942 384.568 597.035 381.781 598.414 377.929C603.155 364.68 602.084 352.36 601.137 341.49C600.774 337.387 600.443 333.513 600.411 329.796C600.367 322.356 601.819 313.166 603.097 305.054C603.848 300.277 604.549 295.766 604.912 291.936C605.496 285.8 605.968 280.454 605.808 277.229C604.596 252.797 599.42 231.815 590.424 214.871C582.939 200.772 572.768 189.363 560.201 180.935C538.279 166.257 515.218 164.672 506.317 164.672Z" fill="#020201"/>
<path d="M420.766 356.758C420.37 355.643 419.851 354.12 419.103 351.769C418.188 348.869 405.643 310.028 404.757 307.587C403.541 304.227 401.301 298.284 400.401 290.825C398.604 275.91 398.303 255.031 404.826 237.223C404.38 249.514 409.799 272.091 416.656 319.029C419.658 339.573 421.092 353.621 420.766 356.758Z" fill="#427F41"/>
<path d="M416.319 317.385C416.264 317.592 421.19 339.172 420.548 359.512" stroke="#020201" stroke-width="4" stroke-linecap="round" stroke-linejoin="round"/>
<path d="M498.636 293.376C498.36 293.298 498.09 293.196 497.83 293.074C486.331 285.079 473.606 282.447 459.657 285.177C456.923 285.716 452.745 286.981 447.123 288.971C446.993 289.014 446.854 289.022 446.72 288.992C446.583 288.962 446.457 288.894 446.357 288.796C446.255 288.697 446.185 288.57 446.154 288.431C446.117 288.299 446.117 288.159 446.154 288.027L446.237 287.794C446.393 287.306 446.646 286.855 446.98 286.469C447.315 286.082 447.724 285.768 448.183 285.545C459.919 279.791 472.272 277.445 485.144 281.154C492.099 283.162 496.462 286.019 499.417 292.45C499.469 292.564 499.487 292.691 499.468 292.815C499.448 292.941 499.392 293.058 499.308 293.154C499.222 293.249 499.111 293.319 498.988 293.354C498.875 293.394 498.753 293.401 498.636 293.376Z" fill="#040402"/>
<path d="M593.089 288.678C583.11 285.275 568.579 283.427 558.778 287.873C556.713 288.814 554.6 289.646 552.448 290.365C552.294 290.413 552.129 290.413 551.976 290.365C551.82 290.324 551.68 290.238 551.573 290.118C551.467 289.995 551.399 289.844 551.377 289.684C551.355 289.524 551.38 289.36 551.449 289.214C553.878 284.072 558.056 281.609 563.846 280.523C567.045 279.923 569.173 279.567 570.231 279.456C578.909 278.566 586.341 280.705 592.526 285.873C593.2 286.409 593.662 287.169 593.83 288.015C593.849 288.113 593.843 288.215 593.811 288.31C593.778 288.404 593.722 288.488 593.648 288.554C593.573 288.621 593.481 288.666 593.383 288.686C593.286 288.711 593.185 288.708 593.089 288.678Z" fill="#040402"/>
<path d="M501.838 323.543C504.41 328.591 505.932 334.112 506.31 339.769C506.757 346.39 504.829 351.394 500.368 355.945C495.431 360.97 485.46 362.027 478.839 360.737C463.716 357.821 453.828 347.844 448.401 333.884C446.964 330.177 446.171 325.762 446.023 320.639C445.606 305.615 460.297 294.833 474.454 299.61C486.766 303.786 495.895 311.763 501.838 323.543ZM479.572 312.473C478.868 313.424 478.73 314.732 479.183 316.117C479.747 317.6 480.72 318.891 481.99 319.837C483.259 320.784 484.772 321.346 486.349 321.459C487.801 321.491 489.003 320.981 489.703 320.03C490.404 319.079 490.549 317.771 490.095 316.386C489.532 314.903 488.558 313.612 487.289 312.666C486.019 311.719 484.507 311.157 482.93 311.044C481.481 311.012 480.262 311.522 479.572 312.473Z" fill="#040402"/>
<path d="M487.289 312.667C484.49 310.582 481.035 310.48 479.572 312.474C478.109 314.467 479.191 317.746 481.989 319.834C484.788 321.922 488.24 322.021 489.707 320.027C491.173 318.034 490.088 314.755 487.289 312.667Z" fill="#FFFEFE"/>
<path d="M573.113 303.123C579.346 303.24 588.065 306.476 590.537 312.962C596.741 329.305 582.359 351.642 567.258 357.957C554.625 363.255 541.311 362.082 539.151 345.568C538.846 343.25 539.104 340.442 539.924 337.143C542.514 326.347 548.423 316.644 556.814 309.409C561.439 305.401 566.84 303.007 573.113 303.123ZM567.084 315.513C566.799 314.963 566.393 314.485 565.897 314.116C565.4 313.747 564.827 313.497 564.22 313.385C562.815 313.102 561.356 313.3 560.078 313.949C559.422 314.269 558.82 314.691 558.295 315.199C557.795 315.683 557.385 316.251 557.083 316.879C556.802 317.454 556.646 318.083 556.626 318.723C556.606 319.321 556.731 319.915 556.989 320.454C557.275 321.004 557.681 321.481 558.178 321.85C558.675 322.218 559.249 322.469 559.856 322.582C561.261 322.864 562.72 322.666 563.998 322.017C564.653 321.696 565.255 321.274 565.78 320.767C566.28 320.284 566.689 319.715 566.989 319.087C567.269 318.512 567.426 317.884 567.45 317.243C567.466 316.65 567.341 316.062 567.084 315.527V315.513Z" fill="#040402"/>
<path d="M563.998 322.031C566.783 320.668 568.166 317.757 567.084 315.527C566.002 313.297 562.862 312.612 560.078 313.964C557.294 315.315 555.907 318.238 556.989 320.468C558.071 322.698 561.21 323.398 563.998 322.031Z" fill="#FFFEFE"/>
<path d="M489.336 379.373C490.336 377.354 491.582 375.855 493.075 374.876C493.301 374.728 493.568 374.657 493.837 374.672C494.109 374.685 494.37 374.781 494.585 374.949C494.809 375.122 494.979 375.356 495.075 375.623C495.175 375.889 495.199 376.178 495.144 376.457C495.027 377.044 495.01 377.647 495.093 378.239C495.138 378.594 495.3 378.922 495.554 379.172C500.215 383.713 505.148 386.663 510.354 388.023C518.703 390.21 529.593 390.49 537.909 386.959C542.233 385.18 546.231 382.687 549.736 379.584C549.825 379.485 549.935 379.406 550.057 379.352C550.179 379.298 550.31 379.27 550.444 379.271C550.6 379.292 550.749 379.351 550.879 379.442C551.016 379.537 551.13 379.661 551.213 379.806C551.304 379.957 551.365 380.124 551.391 380.298C551.424 380.476 551.424 380.659 551.391 380.837C551.138 382.093 550.504 383.238 549.576 384.117C542.541 390.982 531.695 393.777 521.894 393.591C514.372 393.449 507.399 392.553 501.239 388.894C500.029 388.18 496.141 385.316 489.576 380.302C489.436 380.2 489.337 380.051 489.296 379.883C489.249 379.713 489.263 379.533 489.336 379.373Z" fill="#040402"/>
<path d="M532.446 401.415C532.606 401.408 532.765 401.451 532.9 401.539C533.032 401.626 533.133 401.754 533.187 401.903C533.239 402.057 533.239 402.224 533.187 402.377C533.134 402.525 533.036 402.652 532.907 402.741C528.014 406.142 522.726 407.645 517.044 407.249C514.266 407.052 512.647 405.583 512.187 402.84C512.144 402.58 512.177 402.313 512.281 402.071C512.387 401.829 512.561 401.624 512.781 401.481C513.002 401.338 513.26 401.263 513.523 401.266C513.782 401.272 514.033 401.351 514.249 401.495C514.682 401.798 515.195 401.966 515.723 401.98C519.636 402.077 525.21 401.889 532.446 401.415Z" fill="#427F41"/>
</svg>
