<svg width="1000" height="1000" viewBox="0 0 1000 1000" fill="none" xmlns="http://www.w3.org/2000/svg">
<path d="M497.064 560.953C493.211 560.955 489.37 560.525 485.612 559.67C472.613 556.704 461.675 551.289 449.039 541.538C446.016 539.199 445.791 536.641 446.135 534.902C447.275 529.036 448.731 462.534 448.789 455.013C448.807 452.739 448.811 446.934 448.789 440.896C448.789 434.111 448.731 427.458 448.676 422.64C448.626 418.417 448.564 415.717 448.499 414.369L448.346 411.377L450.938 412.86C451.337 413.09 452.953 413.877 454.666 414.707C461.436 417.987 464.594 419.601 465.414 420.388C466.561 421.325 475.233 424.072 478.94 425.242C482.45 426.335 482.933 426.521 483.274 426.725C486.025 428.405 488.984 429.659 492.12 430.985C494.48 431.983 496.923 433.018 499.504 434.319C503.638 436.403 505.617 437.333 506.401 437.333C506.69 437.311 506.975 437.254 507.25 437.161C508.23 436.899 509.715 436.498 512.917 436.498C514.209 436.498 515.704 436.564 517.356 436.695C520.529 436.728 522.1 438.787 523.251 440.295C524.238 441.585 524.703 442.117 525.484 442.117C525.844 442.105 526.2 442.031 526.536 441.898L528.761 441.1L528.722 443.473C528.722 444.325 528.722 445.582 528.747 447.011C528.823 450.487 529.012 454.74 529.266 458.671C529.433 461.284 529.629 472.588 529.872 485.68C530.235 505.223 530.754 534.731 531.302 537.147C532.232 539.997 531.665 542.781 529.698 545.2C521.494 555.246 512.521 560.067 500.596 560.829C499.417 560.913 498.23 560.953 497.064 560.953Z" fill="#753018"/>
<path d="M450.132 414.285C451.526 415.083 463.153 420.48 464.289 421.573C465.926 423.169 481.713 427.702 482.439 428.132C487.347 431.135 492.755 432.749 498.774 435.785C503.78 438.306 505.308 438.973 506.397 438.973C507.638 438.973 508.368 438.139 512.909 438.139C514.089 438.139 515.519 438.193 517.265 438.335H517.291C521.788 438.335 521.944 443.75 525.462 443.75C526.018 443.742 526.568 443.636 527.088 443.437C527.088 444.289 527.088 445.532 527.113 447.041C527.182 450.167 527.357 454.441 527.636 458.785C528.079 465.708 528.783 534.728 529.741 537.64C530.516 539.981 530.08 542.158 528.435 544.169C521.385 552.802 513.301 558.381 500.484 559.201C499.334 559.278 498.192 559.316 497.057 559.314C493.326 559.319 489.606 558.902 485.967 558.071C471.97 554.879 461.116 548.79 450.03 540.238C448.131 538.78 447.365 537.109 447.732 535.224C448.934 529.051 450.368 461.492 450.419 455.028C450.437 452.907 450.44 447.318 450.419 440.893C450.419 434.808 450.368 427.972 450.306 422.623C450.259 418.833 450.201 415.787 450.125 414.285M446.556 408.455L446.861 414.438C446.93 415.758 446.988 418.447 447.039 422.648C447.115 429.185 447.141 436.881 447.152 440.868C447.17 446.928 447.152 452.725 447.152 454.966C447.094 462.28 445.623 528.938 444.527 534.56C444.164 536.346 444.164 539.804 448.037 542.803C460.873 552.704 471.995 558.217 485.249 561.238C489.124 562.12 493.086 562.564 497.061 562.56C498.258 562.56 499.485 562.52 500.691 562.44C507.344 562.014 513.083 560.378 518.231 557.43C522.79 554.824 526.834 551.257 530.936 546.217C533.259 543.371 533.927 540.096 532.867 536.743C532.34 533.522 531.825 504.735 531.48 485.633C531.233 471.987 531.041 461.219 530.87 458.555C530.62 454.638 530.431 450.408 530.355 446.95C530.322 445.547 530.315 444.311 530.329 443.473L530.409 438.736L525.999 440.35C525.855 440.406 525.705 440.445 525.552 440.467C525.189 440.106 524.858 439.715 524.561 439.297C523.364 437.727 521.363 435.107 517.439 435.056C515.766 434.925 514.249 434.859 512.927 434.859C509.511 434.859 507.903 435.293 506.84 435.588L506.408 435.697C505.591 435.551 502.259 433.875 500.255 432.862C497.623 431.536 495.173 430.49 492.774 429.484C489.695 428.18 486.788 426.933 484.152 425.337C483.637 425.028 483.139 424.86 479.47 423.698C476.319 422.703 468.017 420.072 466.452 419.103C465.458 418.232 463.116 416.996 455.414 413.25C453.878 412.503 452.147 411.658 451.784 411.454L446.564 408.455H446.556Z" fill="#020201"/>
<path d="M527.636 458.785C522.797 460.324 517.756 461.125 512.68 461.161C498.215 461.227 483.492 458.381 470.721 452.288C464.349 449.249 458.566 446.227 453.37 443.222C452.321 442.536 451.335 441.757 450.426 440.894C450.426 434.808 450.194 419.635 450.132 414.293C461.69 420.633 471.632 436.765 484.791 440.996C495.87 444.552 504.219 447.445 516.782 447.682C520.238 447.77 523.695 447.556 527.113 447.041C527.182 450.167 527.356 454.442 527.636 458.785Z" fill="#571E12"/>
<path d="M529.629 443.801C528.37 443.962 536.679 443.273 536.163 444.166C533.895 444.756 532.105 446.17 525.321 447.237C521.185 447.872 516.998 448.1 512.819 447.919C505.061 447.609 498.477 446.826 491.133 443.885C481.327 439.959 471.896 435.146 462.957 429.506C461.044 428.295 459.203 426.974 457.443 425.549C452.506 421.555 448.683 418.283 445.972 415.732C438.64 408.82 433.071 399.797 428.715 389.871C430.349 392.006 431.619 394.798 433.119 396.984C438.614 404.961 446.266 412.606 453.065 417.773C463.839 425.968 477.419 431.835 490.425 437.607C499.352 441.571 503.192 442.001 514.02 442.344C519.698 442.526 527.252 443.801 529.629 443.801Z" fill="#020201"/>
<path d="M526.772 447.081H526.725C491.416 444.356 463.65 433.129 444.201 413.71C432.036 401.546 423.395 386.29 419.205 369.575C416.972 360.392 414.246 351.144 410.856 341.302C410.021 338.868 409.15 336.313 408.257 333.704L407.741 332.203C399.421 307.81 394.956 294.357 394.455 292.214C393.334 287.339 393.613 268.299 393.624 267.49V267.436C394.481 246.665 398.79 228.325 406.427 212.901C412.654 200.193 421.575 189.006 432.563 180.123C441.431 172.967 451.748 167.202 463.226 162.997C483.035 155.749 499.94 155.381 503.13 155.381H503.453C503.737 155.363 504.826 155.305 506.59 155.305C516.028 155.305 540.447 156.861 563.69 171.276C576.986 179.51 588.005 190.97 595.732 204.6C605.329 221.34 610.854 242.103 612.15 266.313C612.317 269.425 611.812 274.716 611.188 280.798L610.916 283.4C609.899 293.191 608.633 305.376 608.698 316.374C608.781 330.293 605.22 352.529 603.09 364.543C602.276 369.13 601.692 372.089 601.685 372.118V372.188L601.663 372.253C596.788 389.161 589.913 403.591 581.23 415.171C574.224 424.507 566.031 432.014 556.876 437.483C540.962 446.986 527.43 447.081 526.86 447.081H526.772Z" fill="#753018"/>
<path d="M506.589 156.951C523.574 156.951 604.962 162.392 610.52 266.404C610.676 269.319 610.204 274.395 609.562 280.634C608.505 290.895 606.992 304.301 607.064 316.388C607.148 330.289 603.54 352.649 601.481 364.258C600.661 368.882 600.084 371.801 600.084 371.801C578.968 444.997 528.13 445.456 526.859 445.456H526.834C445.979 439.217 425.709 389.387 420.791 369.185C418.457 359.583 415.622 350.116 412.416 340.762C411.422 337.847 410.373 334.793 409.302 331.652C403.269 314.016 396.63 294.4 396.045 291.85C394.956 287.112 395.257 267.519 395.257 267.519C396.169 245.444 400.891 227.778 407.89 213.644C435.329 158.219 497.79 157.024 503.13 157.024H503.493C503.493 157.024 504.582 156.951 506.589 156.951ZM506.589 153.672C504.898 153.672 503.794 153.723 503.417 153.745H503.13C499.892 153.745 482.733 154.109 462.677 161.474C451.029 165.737 440.556 171.6 431.55 178.859C420.374 187.888 411.3 199.262 404.964 212.182C397.225 227.818 392.858 246.388 391.994 267.384V267.468C391.961 269.516 391.722 287.604 392.865 292.586C393.37 294.772 397.864 308.291 406.216 332.734L406.757 334.32C407.639 336.899 408.503 339.421 409.331 341.837C412.689 351.628 415.4 360.825 417.622 369.961C419.347 376.987 421.875 383.791 425.154 390.236C429.771 399.353 435.806 407.673 443.032 414.883C452.041 423.876 462.979 431.233 475.535 436.747C490.254 443.215 507.432 447.245 526.584 448.721H526.707H526.859C528.311 448.721 541.692 448.444 557.714 438.882C567.054 433.303 575.403 425.655 582.536 416.148C591.339 404.414 598.305 389.798 603.227 372.697L603.267 372.563L603.296 372.424C603.296 372.395 603.888 369.422 604.705 364.819C606.846 352.747 610.422 330.399 610.339 316.355C610.273 305.445 611.536 293.311 612.549 283.56C612.64 282.674 612.731 281.803 612.818 280.958C613.453 274.803 613.961 269.447 613.791 266.215C612.477 241.746 606.894 220.738 597.158 203.776C589.295 189.914 578.085 178.261 564.561 169.887C540.955 155.25 516.158 153.672 506.593 153.672H506.589Z" fill="#020201"/>
<path d="M409.302 331.671C403.269 314.017 396.63 294.401 396.045 291.85C394.956 287.113 395.257 267.52 395.257 267.52C396.169 245.445 400.891 227.779 407.89 213.645C404.986 224.529 400.071 254.161 411.883 307.862C416.736 329.962 414.558 335.053 409.302 331.671Z" fill="#571E12"/>
<path d="M416.471 307.324C416.471 307.324 396.993 269.377 380.367 290.267C363.742 311.158 377.057 349.346 393.141 360.355C409.226 371.363 418.551 357.804 418.551 357.804L416.471 307.324Z" fill="#753018"/>
<path d="M401.174 341.83C400.252 337.763 400.278 331.645 405.483 325.374C405.483 325.374 398.586 299.137 387.333 297.68C376.08 296.222 378.305 317.237 380.458 322.214C382.611 327.192 387.355 344.985 394.786 345.565C395.875 345.648 396.833 345.736 397.661 345.82C398.176 345.872 398.697 345.8 399.18 345.611C399.662 345.421 400.093 345.119 400.436 344.729C400.78 344.339 401.026 343.873 401.154 343.369C401.282 342.864 401.289 342.337 401.174 341.83Z" fill="#571E12"/>
<path d="M401.428 346.165C401.312 345.801 401.142 345.436 400.946 345.01C400.75 344.584 400.561 344.099 400.405 343.629C400.106 342.699 399.882 341.746 399.733 340.78C399.575 339.816 399.495 338.841 399.494 337.864C399.475 337.376 399.515 336.888 399.53 336.407C399.544 335.926 399.606 335.434 399.693 334.949C399.984 333.022 400.56 331.149 401.403 329.392C402.244 327.66 403.291 326.036 404.521 324.557L404.271 325.683C403.726 323.551 403.058 321.383 402.336 319.266C401.614 317.149 400.811 315.05 399.918 312.998C399.039 310.948 398.034 308.955 396.909 307.029C395.82 305.116 394.509 303.338 393.003 301.735C392.64 301.33 392.223 301.006 391.827 300.623C391.62 300.452 391.402 300.295 391.192 300.132C391.087 300.051 390.985 299.964 390.872 299.891L390.538 299.68C390.325 299.535 390.103 299.402 389.874 299.282L389.17 298.918C388.693 298.718 388.198 298.563 387.692 298.455C386.692 298.213 385.648 298.213 384.647 298.455C384.16 298.584 383.696 298.784 383.268 299.049C382.839 299.327 382.446 299.657 382.099 300.033C381.401 300.842 380.849 301.767 380.469 302.766C380.074 303.794 379.779 304.859 379.587 305.944C379.207 308.152 379.057 310.394 379.14 312.634C379.145 312.734 379.109 312.832 379.041 312.907C378.973 312.981 378.879 313.025 378.779 313.029C378.679 313.034 378.581 312.998 378.507 312.93C378.433 312.862 378.389 312.767 378.385 312.667C378.226 310.377 378.306 308.078 378.621 305.805C378.789 304.648 379.068 303.509 379.452 302.405C379.847 301.264 380.439 300.202 381.202 299.268C381.607 298.795 382.072 298.377 382.585 298.025C383.109 297.675 383.681 297.405 384.284 297.224C385.478 296.881 386.737 296.831 387.954 297.078C388.558 297.186 389.151 297.351 389.725 297.57L390.557 297.934C390.822 298.077 391.079 298.236 391.326 298.408L391.715 298.638C391.842 298.718 391.958 298.809 392.078 298.896C392.321 299.071 392.568 299.242 392.804 299.425C393.254 299.811 393.726 300.179 394.136 300.605C395.792 302.247 397.248 304.082 398.47 306.071C399.7 308.026 400.807 310.056 401.784 312.149C402.771 314.23 403.661 316.351 404.47 318.497C405.28 320.643 406.024 322.804 406.681 325.056C406.733 325.235 406.741 325.425 406.707 325.608C406.672 325.792 406.595 325.965 406.481 326.113L406.431 326.182C405.332 327.495 404.396 328.936 403.643 330.474C402.901 332.004 402.392 333.636 402.133 335.317C402.053 335.733 402.038 336.159 401.987 336.578C401.937 336.997 401.933 337.423 401.947 337.85C401.956 339.55 402.217 341.24 402.721 342.864C402.851 343.259 403.001 343.647 403.171 344.026C403.345 344.42 403.559 344.883 403.73 345.396C403.832 345.703 403.808 346.037 403.665 346.326C403.521 346.615 403.269 346.835 402.964 346.938C402.659 347.04 402.325 347.017 402.038 346.873C401.75 346.728 401.53 346.475 401.428 346.169V346.165Z" fill="#020201"/>
<path d="M391.689 338.881C391.101 337.651 390.594 336.384 390.172 335.087C389.731 333.796 389.367 332.479 389.083 331.145C388.493 328.428 388.335 325.635 388.614 322.869C388.784 321.45 389.112 320.054 389.591 318.708C389.725 318.373 389.834 318.026 389.99 317.699L390.455 316.715C390.796 316.07 391.178 315.448 391.598 314.853C392.021 314.254 392.478 313.681 392.967 313.136C393.481 312.606 394.024 312.105 394.593 311.635C395.706 310.705 396.91 309.891 398.187 309.205C398.594 308.973 399.076 308.913 399.527 309.039C399.978 309.164 400.361 309.464 400.592 309.873C400.822 310.282 400.881 310.766 400.757 311.219C400.632 311.671 400.333 312.056 399.925 312.287C399.891 312.31 399.854 312.329 399.817 312.346L399.726 312.389C398.619 312.878 397.564 313.479 396.579 314.182C396.091 314.531 395.623 314.907 395.177 315.308C394.745 315.723 394.336 316.162 393.954 316.624C393.57 317.086 393.216 317.573 392.894 318.081L392.444 318.872C392.292 319.134 392.183 319.418 392.045 319.692C391.543 320.824 391.168 322.008 390.927 323.223C390.479 325.75 390.433 328.333 390.792 330.875C390.959 332.166 391.201 333.446 391.518 334.708C391.829 335.974 392.22 337.219 392.687 338.436V338.454C392.736 338.585 392.733 338.73 392.68 338.858C392.626 338.987 392.525 339.09 392.398 339.147C392.27 339.203 392.126 339.209 391.995 339.162C391.864 339.115 391.756 339.02 391.693 338.895L391.689 338.881Z" fill="#020201"/>
<path d="M416.471 307.324C416.471 307.324 406.873 288.627 395.417 284.706C390.546 283.041 385.337 284.04 380.382 290.267C363.738 311.161 377.057 349.346 393.141 360.354C409.226 371.363 418.551 357.804 418.551 357.804" stroke="black" stroke-width="3" stroke-linecap="round" stroke-linejoin="round"/>
<path d="M448.68 270.31C448.61 270.294 448.544 270.263 448.488 270.219C448.431 270.175 448.385 270.119 448.353 270.055C448.321 269.989 448.305 269.916 448.306 269.843C448.305 269.771 448.322 269.7 448.353 269.636C451.536 263.148 456.58 257.766 462.837 254.182C470.339 249.748 479.187 248.08 489.38 249.179C492.57 249.521 496.926 251.314 499.119 252.312C504.709 254.863 509.149 260.726 508.513 267.121C508.469 267.581 508.278 268.014 507.969 268.357C507.657 268.7 507.246 268.935 506.793 269.031C504.318 269.507 501.787 269.609 499.282 269.333C494.142 268.82 489.029 268.4 483.942 268.072C481.455 267.888 478.959 267.854 476.468 267.97C470.112 268.335 464.852 267.497 459.207 268.495C454.72 269.293 449.845 270.594 448.68 270.31ZM456.434 265.467L479.303 264.159C479.445 264.148 479.589 264.148 479.731 264.159C487.601 264.98 494.456 265.605 500.295 266.035C501.799 266.18 503.316 266.074 504.785 265.722C504.976 265.673 505.156 265.584 505.312 265.463C505.467 265.342 505.597 265.191 505.693 265.019C505.789 264.847 505.849 264.657 505.869 264.461C505.89 264.265 505.871 264.066 505.813 263.878C504.361 259.218 501.134 255.311 496.248 253.872C494.982 253.5 493.465 252.992 491.696 252.349C487.935 250.975 475.549 252.024 473.328 253.194C467.276 256.357 461.436 259.912 455.846 263.838C455.73 263.922 455.635 264.032 455.571 264.16C455.507 264.288 455.475 264.43 455.477 264.574C455.48 264.717 455.517 264.858 455.585 264.983C455.654 265.109 455.752 265.216 455.871 265.296C456.038 265.416 456.24 265.476 456.445 265.467H456.434Z" fill="black"/>
<path d="M455.871 262.312C458.899 259.761 464.511 257.392 468.663 255.111C473.283 252.527 478.502 251.218 483.789 251.318C493.492 251.58 504.749 254.871 506.295 262.275C506.413 262.814 506.406 263.373 506.277 263.909C506.148 264.445 505.899 264.945 505.55 265.37C505.2 265.796 504.759 266.136 504.259 266.366C503.76 266.595 503.215 266.708 502.665 266.695C489.735 266.484 471.201 264.509 457.381 265.941C456.945 265.983 456.507 265.883 456.132 265.657C455.756 265.431 455.462 265.09 455.294 264.685C455.125 264.279 455.09 263.83 455.194 263.403C455.298 262.976 455.535 262.593 455.871 262.312Z" fill="#1F1014"/>
<path d="M598.646 259.834C591.317 253.22 582.057 250.95 572.619 251.784C564.987 252.448 559.355 255.959 555.725 262.319C555.41 262.864 555.172 263.45 555.017 264.061C555.017 264.061 551.5 274.282 555.449 274.683C555.579 274.724 555.716 274.73 555.849 274.701H555.918C556.215 274.68 556.507 274.611 556.782 274.497C559.494 273.839 562.161 273.008 564.768 272.008C573.966 268.496 582.867 268.455 592.479 270.401C595.836 271.096 599.239 271.541 602.661 271.731C603.885 271.775 605.859 266.342 598.646 259.834ZM600.098 267.697C599.966 267.933 599.778 268.132 599.55 268.277C599.322 268.426 599.06 268.516 598.788 268.539C594.962 268.871 591.942 267.49 586.878 265.988C579.255 263.718 571.962 266.619 564.789 268.762C564.23 268.925 563.654 269.021 563.072 269.049C562.135 269.093 561.201 269.186 560.274 269.326C560.507 268.586 560.699 267.833 560.847 267.071L564.259 257.414C566.111 256.627 568.006 256.041 569.523 255.315C570.089 255.049 570.695 254.875 571.316 254.802C583.226 253.453 594.24 255.221 600.102 266.174C600.23 266.407 600.298 266.67 600.298 266.936C600.298 267.202 600.23 267.464 600.102 267.697H600.098Z" fill="black"/>
<path d="M555.558 269.412C557.155 249.706 593.8 249.371 600.527 266.318C600.651 266.564 600.713 266.836 600.709 267.111C600.705 267.386 600.634 267.655 600.502 267.897C600.371 268.138 600.183 268.343 599.954 268.495C599.725 268.647 599.463 268.74 599.191 268.767C595.328 269.11 592.294 267.674 587.168 266.129C576.895 263.13 567.454 269.35 557.402 270.203C557.051 270.302 556.677 270.277 556.342 270.133C556.006 269.989 555.73 269.735 555.558 269.412Z" fill="#1F1014"/>
<path d="M506.397 315.535C506.397 326.605 496.596 338.856 482.076 338.856C467.556 338.856 451.584 326.97 451.584 315.9C451.584 304.829 462.837 294.4 477.357 294.4C491.877 294.4 506.397 304.465 506.397 315.535Z" fill="white"/>
<path d="M488.247 338.09C518.449 328.722 495.409 294.287 486.029 301.768C485.363 302.31 484.845 303.013 484.523 303.811C484.2 304.608 484.084 305.475 484.185 306.33L484.207 306.487C484.308 307.149 484.575 307.774 484.983 308.304C485.391 308.834 485.927 309.251 486.54 309.515C487.153 309.78 487.823 309.883 488.486 309.816C489.15 309.749 489.786 309.514 490.334 309.132C491.06 308.636 491.786 308.283 492.059 308.768C498.433 317.943 492.36 332.869 480.555 333.645C463.026 334.876 458.666 310.356 468.801 299.454C468.985 299.254 469.101 299.002 469.133 298.732C469.165 298.462 469.111 298.189 468.979 297.952C468.847 297.715 468.643 297.526 468.397 297.412C468.152 297.298 467.876 297.265 467.611 297.318C463.679 298.149 459.026 301.239 455.94 304.971C450.495 311.53 454.775 317.805 452.31 320.64C443.42 296.794 469.371 277.339 491.834 290.912C511.479 302.781 512.953 335.008 488.247 338.09Z" fill="black"/>
<path d="M595.917 324.125C590.603 337.553 574.166 344.221 562.488 339.564C550.81 334.907 548.814 320.947 554.139 307.523C559.464 294.099 577.422 289.132 589.103 293.789C594.037 295.757 596.124 299.514 597.452 303.708C599.282 309.44 598.984 316.37 595.917 324.125Z" fill="#FFFFFE"/>
<path d="M571.988 341.014C589.089 338.726 608.451 309.468 585.361 301.951C580.435 300.319 567.526 302.184 573.977 309.286C574.728 310.379 575.61 310.532 576.518 310.343C577.626 310.092 578.788 310.276 579.765 310.856C580.743 311.437 581.463 312.37 581.778 313.466C584.057 321.945 582.232 331.179 572.902 335.523C558.745 340.099 552.368 327.211 555.478 314.329C555.509 314.203 555.493 314.07 555.434 313.955C555.375 313.839 555.276 313.749 555.156 313.701C555.036 313.653 554.903 313.65 554.781 313.692C554.658 313.735 554.556 313.82 554.491 313.932C552.222 317.78 552.135 323.334 552.182 328.052C550.266 325.013 550.694 321.636 551.133 316.592C553.761 286.268 603.249 279.789 598.512 315.47C597.34 326.387 589.466 340.252 571.988 341.014Z" fill="black"/>
<path d="M547.856 359.242C545.304 360.165 543 361.669 541.125 363.637C539.345 365.503 537.07 366.822 534.57 367.437C526.478 369.452 516.115 368.399 510.539 362.099C510.421 361.965 510.341 361.801 510.309 361.624C510.277 361.448 510.293 361.266 510.356 361.098C510.419 360.931 510.527 360.784 510.667 360.673C510.807 360.562 510.975 360.492 511.153 360.47C515.146 359.996 522.01 361.319 526.7 361.071C528.754 360.966 528.696 357.905 526.638 357.883C525.255 357.883 523.774 357.883 522.475 357.857C522.082 357.857 517.393 359.544 517.65 359.249C517.908 358.954 507.896 359.111 507.123 358.885C506.597 358.732 506.818 358.426 507.25 358.007C508.608 356.816 510.275 356.037 512.056 355.762C523.988 354.49 541.438 352.22 548.041 358.203C548.123 358.272 548.186 358.361 548.223 358.462C548.26 358.562 548.27 358.671 548.251 358.777C548.232 358.883 548.186 358.982 548.116 359.063C548.047 359.145 547.957 359.207 547.856 359.242Z" fill="#571E12"/>
<path d="M517.342 358.101C518.06 357.97 518.79 357.915 519.52 357.937C522.714 358.035 533.757 356.844 531.905 359.519C527.782 364.493 502.107 355.922 513.563 364.62C513.61 364.654 513.645 364.702 513.663 364.758C513.681 364.813 513.681 364.873 513.663 364.928C513.645 364.984 513.609 365.032 513.562 365.065C513.514 365.099 513.458 365.117 513.399 365.116C509.613 365.006 507.679 362.113 504.898 361.858C504.09 361.809 503.304 361.569 502.605 361.159C501.905 360.749 501.312 360.18 500.872 359.497C497.645 354.162 502.009 345.683 507.544 346.258C507.663 346.272 507.775 346.323 507.863 346.404C507.952 346.485 508.012 346.592 508.036 346.71C508.06 346.828 508.046 346.95 507.996 347.06C507.946 347.169 507.863 347.26 507.758 347.319C493.939 355.058 507.737 359.861 517.342 358.101Z" fill="black"/>
<path d="M537.615 366.186C539.902 362.907 544.821 360.196 548.745 358.931C550.71 357.751 551.471 355.709 551.028 352.806C550.905 351.941 550.268 349.695 549.119 346.068C547.286 340.274 544.483 336.773 540.577 331.088C537.431 326.499 536.817 320.862 538.733 314.177C538.78 314.023 538.868 313.886 538.987 313.779C539.108 313.673 539.257 313.604 539.416 313.579H539.485C539.554 313.571 539.623 313.58 539.688 313.605C539.755 313.626 539.815 313.665 539.862 313.718C539.91 313.768 539.944 313.829 539.964 313.896C539.98 313.963 539.98 314.033 539.964 314.1C538.098 323.21 543.122 329.248 548.563 336.893C553.28 343.496 555.05 350.802 553.874 358.811C553.782 359.422 553.573 360.008 553.257 360.538C552.941 361.066 552.524 361.526 552.03 361.89C548.436 364.528 542.421 366.259 537.615 366.186Z" fill="black"/>
<path d="M564.067 391.5C564.096 391.605 564.096 391.716 564.067 391.82C564.038 391.926 563.979 392.022 563.896 392.094C563.816 392.166 563.716 392.211 563.61 392.225C563.502 392.242 563.392 392.226 563.294 392.178C562.225 391.613 561.06 391.256 559.86 391.125C559.342 391.088 558.822 391.167 558.339 391.358C547.776 395.545 538.944 395.402 526.46 394.903C514.67 394.426 505.167 393.081 494.349 388.177C486 384.409 480.995 379.023 474.304 372.089C474.211 371.987 474.148 371.861 474.123 371.724C474.105 371.586 474.13 371.446 474.196 371.323C474.361 370.991 474.624 370.717 474.947 370.537C475.271 370.357 475.642 370.279 476.011 370.314C478.109 370.314 480.229 370.303 482.37 370.281C482.538 370.281 482.704 370.321 482.853 370.398C483.004 370.47 483.135 370.579 483.234 370.715C483.331 370.852 483.397 371.009 483.427 371.174C483.452 371.339 483.438 371.507 483.387 371.666L482.712 373.728C482.645 373.923 482.623 374.131 482.646 374.336C482.669 374.541 482.738 374.738 482.846 374.913C486.055 380.12 490.106 382.04 496.32 385.032C504.851 389.132 514.186 391.216 524.326 391.281L537.394 391.38C542.2 391.416 545.961 391.08 548.676 390.37C552.377 389.43 556.006 388.227 559.537 386.77C559.859 386.634 560.214 386.596 560.557 386.661C560.9 386.726 561.217 386.89 561.468 387.134C562.667 388.362 563.558 389.858 564.067 391.5Z" fill="black"/>
<path d="M510.3 407.658C510.22 407.571 510.169 407.462 510.155 407.344C510.143 407.227 510.17 407.11 510.231 407.009C510.293 406.907 510.387 406.83 510.499 406.79C510.61 406.752 510.73 406.752 510.841 406.79C521.15 410.374 531.993 410.414 543.369 406.911C543.488 406.88 543.613 406.88 543.732 406.911C543.825 406.936 543.912 406.981 543.987 407.043C544.061 407.104 544.122 407.181 544.165 407.267C544.208 407.354 544.233 407.449 544.237 407.545C544.241 407.642 544.225 407.739 544.189 407.829C543.681 409.097 542.648 409.913 541.089 410.278C531.415 412.49 518.014 415.459 510.3 407.658Z" fill="black"/>
</svg>
