<svg width="1000" height="1000" viewBox="0 0 1000 1000" fill="none" xmlns="http://www.w3.org/2000/svg">
<path d="M497.064 560.953C493.211 560.955 489.369 560.525 485.611 559.67C472.612 556.704 461.675 551.289 449.039 541.538C446.015 539.199 445.79 536.641 446.135 534.902C447.275 529.036 448.73 462.534 448.788 455.013C448.807 452.739 448.81 446.934 448.788 440.896C448.788 434.111 448.73 427.458 448.676 422.64C448.625 418.417 448.563 415.717 448.498 414.369L448.346 411.377L450.937 412.86C451.337 413.09 452.952 413.877 454.665 414.707C461.435 417.987 464.593 419.601 465.414 420.388C466.561 421.325 475.233 424.072 478.939 425.242C482.449 426.335 482.932 426.521 483.273 426.725C486.025 428.405 488.983 429.659 492.12 430.985C494.479 431.983 496.922 433.018 499.503 434.319C503.638 436.403 505.616 437.333 506.4 437.333C506.689 437.311 506.975 437.254 507.25 437.161C508.23 436.899 509.714 436.498 512.916 436.498C514.208 436.498 515.704 436.564 517.356 436.695C520.528 436.728 522.1 438.787 523.251 440.295C524.238 441.585 524.703 442.117 525.483 442.117C525.844 442.105 526.2 442.031 526.536 441.898L528.761 441.1L528.721 443.473C528.721 444.325 528.721 445.582 528.746 447.011C528.823 450.487 529.011 454.74 529.266 458.671C529.433 461.284 529.629 472.588 529.872 485.68C530.235 505.223 530.754 534.731 531.302 537.147C532.231 539.997 531.665 542.781 529.698 545.2C521.494 555.246 512.52 560.067 500.596 560.829C499.416 560.913 498.229 560.953 497.064 560.953Z" fill="#4DA4DB"/>
<path d="M450.132 414.285C451.526 415.083 463.153 420.48 464.289 421.573C465.926 423.169 481.713 427.702 482.439 428.132C487.347 431.135 492.755 432.749 498.774 435.785C503.78 438.306 505.308 438.973 506.397 438.973C507.638 438.973 508.368 438.139 512.909 438.139C514.089 438.139 515.519 438.193 517.265 438.335H517.291C521.788 438.335 521.944 443.75 525.462 443.75C526.018 443.742 526.568 443.636 527.088 443.437C527.088 444.289 527.088 445.532 527.113 447.041C527.182 450.167 527.357 454.441 527.636 458.785C528.079 465.708 528.783 534.728 529.741 537.64C530.516 539.981 530.08 542.158 528.435 544.169C521.385 552.802 513.301 558.381 500.484 559.201C499.334 559.278 498.192 559.316 497.057 559.314C493.326 559.319 489.606 558.902 485.967 558.071C471.97 554.879 461.116 548.79 450.03 540.238C448.131 538.78 447.365 537.109 447.732 535.224C448.934 529.051 450.368 461.492 450.419 455.028C450.437 452.907 450.44 447.318 450.419 440.893C450.419 434.808 450.368 427.972 450.306 422.623C450.259 418.833 450.201 415.787 450.125 414.285M446.56 408.455L446.861 414.438C446.93 415.761 446.988 418.447 447.039 422.648C447.115 429.207 447.141 436.881 447.152 440.868C447.17 446.928 447.152 452.725 447.152 454.966C447.094 462.28 445.623 528.938 444.527 534.56C444.164 536.346 444.164 539.804 448.037 542.803C460.873 552.704 471.995 558.217 485.249 561.238C489.124 562.12 493.086 562.564 497.061 562.56C498.258 562.56 499.485 562.52 500.691 562.44C507.344 562.014 513.083 560.378 518.231 557.43C522.79 554.824 526.834 551.257 530.936 546.217C533.259 543.371 533.927 540.096 532.867 536.743C532.34 533.522 531.825 504.735 531.48 485.633C531.233 471.987 531.041 461.219 530.87 458.555C530.62 454.638 530.431 450.408 530.355 446.95C530.322 445.547 530.315 444.311 530.329 443.473L530.409 438.736L525.999 440.35C525.855 440.406 525.705 440.445 525.552 440.467C525.189 440.106 524.858 439.715 524.561 439.297C523.364 437.727 521.363 435.107 517.439 435.056C515.766 434.925 514.249 434.859 512.927 434.859C509.511 434.859 507.903 435.293 506.84 435.588L506.408 435.697C505.591 435.551 502.259 433.875 500.255 432.862C497.623 431.536 495.173 430.49 492.774 429.484C489.695 428.18 486.788 426.933 484.152 425.337C483.637 425.028 483.139 424.86 479.47 423.698C476.319 422.703 468.017 420.072 466.452 419.103C465.458 418.232 463.116 416.996 455.414 413.25C453.878 412.503 452.147 411.658 451.784 411.454L446.567 408.455H446.56Z" fill="#020201"/>
<path d="M527.636 458.785C522.797 460.324 517.756 461.125 512.68 461.161C498.215 461.227 483.492 458.381 470.721 452.288C464.349 449.249 458.566 446.227 453.37 443.222C452.321 442.536 451.335 441.757 450.426 440.894C450.426 434.808 450.194 419.635 450.132 414.293C461.69 420.633 471.632 436.765 484.791 440.996C495.87 444.552 504.219 447.445 516.782 447.682C520.238 447.77 523.695 447.556 527.113 447.041C527.182 450.167 527.356 454.442 527.636 458.785Z" fill="#2D74AA"/>
<path d="M528.177 443.801C526.986 443.962 534.853 443.273 534.348 444.166C532.199 444.756 530.504 446.17 524.086 447.237C520.176 447.872 516.212 448.1 512.256 447.919C504.916 447.609 498.683 446.826 491.732 443.885C482.417 439.938 473.49 435.124 465.069 429.506C463.254 428.292 461.512 426.97 459.853 425.549C455.202 421.555 451.599 418.286 449.043 415.743C442.106 408.845 436.853 399.808 432.708 389.871C434.251 392.006 435.452 394.798 436.875 396.984C442.097 404.822 448.46 411.829 455.751 417.773C465.948 425.968 478.798 431.835 491.104 437.607C499.551 441.571 503.188 442.001 513.432 442.344C518.793 442.526 525.945 443.801 528.177 443.801Z" fill="#020201"/>
<path d="M525.483 447.08H525.418C468.881 442.467 443.191 414.285 431.593 391.441C428.064 384.491 425.382 377.139 423.607 369.545C422.311 363.911 420.805 358.128 419.131 352.356C418.663 350.738 418.169 349.077 417.679 347.444C417.066 345.44 416.409 343.359 415.73 341.249L412.782 332.14C409.29 321.343 405.885 308.09 402.651 292.785C402.56 292.348 402.491 292.02 402.444 291.812C402.118 290.304 401.667 287.268 401.116 282.783C398.981 265.499 400.125 248.486 404.517 232.223C406.288 225.593 408.632 219.131 411.523 212.91C417.567 200.007 425.894 188.977 436.269 180.115C444.921 172.809 454.739 167.019 465.309 162.989C484.072 155.701 500.095 155.336 503.119 155.336H503.424C503.699 155.318 504.734 155.26 506.393 155.26C515.326 155.26 538.486 156.819 560.509 171.253C573.12 179.514 583.327 190.73 590.845 204.591C599.92 221.321 605.147 242.076 606.374 266.272C606.534 269.388 606.055 274.671 605.463 280.746L605.202 283.406C604.24 293.182 603.045 305.349 603.107 316.329C603.187 330.212 599.818 352.458 597.804 364.483C597.03 369.067 596.482 372.026 596.475 372.055V372.121L596.457 372.186C589.861 396.353 579.527 415.228 565.743 428.303C554.095 439.344 542.41 443.884 534.66 445.754C529.418 447.018 525.948 447.055 525.585 447.055L525.483 447.08Z" fill="#4DA4DB"/>
<path d="M506.397 156.951C522.47 156.951 599.47 162.392 604.748 266.404C604.897 269.319 604.45 274.395 603.84 280.634C602.842 290.895 601.408 304.301 601.477 316.388C601.557 330.289 598.141 352.648 596.196 364.258C595.419 368.882 594.874 371.801 594.874 371.801C579.944 426.493 549.311 440.576 534.253 444.199C529.171 445.427 525.864 445.456 525.559 445.456H525.538C469.795 440.908 444.48 413.218 433.049 390.709C429.574 383.879 426.938 376.652 425.197 369.185C423.861 363.376 422.362 357.618 420.7 351.909C420.216 350.257 419.726 348.612 419.229 346.975C418.595 344.903 417.943 342.838 417.273 340.78C416.333 337.865 415.338 334.811 414.325 331.67C408.615 314.016 404.582 294.036 404.031 291.485C403.668 289.824 403.192 286.384 402.727 282.605C400.608 265.904 401.747 248.948 406.082 232.683C407.823 226.149 410.131 219.781 412.979 213.651C438.955 158.219 498.048 157.024 503.13 157.024H503.493C503.493 157.024 504.542 156.951 506.422 156.951M506.422 153.672C504.832 153.672 503.783 153.723 503.409 153.745H503.13C500.055 153.745 483.764 154.109 464.732 161.492C453.988 165.596 444.01 171.487 435.216 178.917C424.66 187.917 416.195 199.134 410.049 212.252C407.118 218.554 404.739 225.102 402.942 231.82C398.495 248.286 397.337 265.511 399.5 283.009C400.067 287.608 400.51 290.611 400.854 292.188C400.898 292.393 400.967 292.717 401.058 293.15C404.299 308.535 407.722 321.835 411.222 332.683C412.122 335.464 413.004 338.193 413.85 340.798L414.169 341.782C414.844 343.87 415.498 345.94 416.111 347.941C416.612 349.58 417.102 351.22 417.563 352.827C419.229 358.574 420.729 364.327 422.014 369.921C423.819 377.648 426.547 385.128 430.138 392.2C441.924 415.408 467.999 444.053 525.284 448.724H525.418H525.57C526.216 448.724 529.716 448.659 535.03 447.376C542.969 445.463 554.941 440.817 566.851 429.521C580.855 416.246 591.342 397.112 598.018 372.654L598.054 372.522L598.08 372.391C598.08 372.362 598.639 369.389 599.408 364.79C601.434 352.71 604.817 330.362 604.737 316.355C604.675 305.456 605.866 293.336 606.824 283.6C606.911 282.692 607.002 281.803 607.086 280.936C607.685 274.8 608.175 269.45 608.004 266.222C606.763 241.778 601.47 220.789 592.279 203.841C584.63 189.743 574.241 178.334 561.402 169.913C539.009 155.253 515.472 153.672 506.397 153.672H506.422Z" fill="#020201"/>
<path d="M419.229 346.974C418.595 344.902 417.943 342.837 417.273 340.78C416.333 337.865 415.338 334.811 414.325 331.67C408.615 314.015 404.582 294.035 404.031 291.485C403.668 289.823 403.192 286.383 402.727 282.604C400.608 265.903 401.747 248.947 406.081 232.683C407.823 226.149 410.131 219.78 412.978 213.65C410.216 224.535 408.819 253.588 416.754 307.868C417.218 311.049 417.632 314.084 417.992 316.956C417.992 316.999 417.992 317.043 418.01 317.083C420.366 335.879 420.551 347.55 419.229 346.974Z" fill="#2D74AA"/>
<path d="M416.427 306.217C416.373 306.425 421.284 334.246 420.645 354.59" stroke="#020201" stroke-width="4" stroke-linecap="round" stroke-linejoin="round"/>
<path d="M435.728 257.932C435.649 257.952 435.567 257.952 435.488 257.932C435.408 257.921 435.333 257.888 435.27 257.837C435.208 257.79 435.158 257.727 435.125 257.655C435.093 257.582 435.078 257.502 435.082 257.422C435.387 253.388 444.864 250.706 448.298 249.566C460.372 245.548 472.538 246.14 484.798 251.344C489.154 253.184 491.568 256.624 494.378 260.818C494.81 261.47 495.006 261.959 494.973 262.276C494.962 262.379 494.924 262.478 494.864 262.563C494.803 262.649 494.722 262.718 494.628 262.764C494.534 262.808 494.431 262.83 494.327 262.826C494.224 262.818 494.124 262.786 494.036 262.731C487.865 258.799 478.685 253.946 471.062 252.852C460.775 251.395 451.155 252.305 442.204 255.582C439.547 256.585 437.388 257.368 435.728 257.932Z" fill="#040200"/>
<path d="M600.672 257.266C588.646 254.402 575.53 251.096 563.374 255.961C559.274 257.591 556.41 258.706 554.781 259.306C554.613 259.369 554.429 259.38 554.255 259.335C554.08 259.291 553.923 259.194 553.805 259.058C553.685 258.921 553.608 258.751 553.583 258.57C553.56 258.389 553.592 258.205 553.674 258.042C557.46 250.641 563.192 248.801 571.32 247.711C582.34 246.225 593.789 247.791 601.336 256.143C601.43 256.253 601.487 256.389 601.499 256.533C601.512 256.677 601.479 256.821 601.405 256.945C601.332 257.07 601.222 257.168 601.089 257.226C600.957 257.28 600.812 257.294 600.672 257.266Z" fill="#040200"/>
<path d="M494.011 301.506C494.058 301.568 494.116 301.634 494.182 301.706C498.843 306.784 502.271 312.847 504.466 319.897C505.869 324.418 506.601 328.469 506.662 332.049C506.728 336.15 505.601 340.181 503.42 343.648C490.82 364.313 462.376 353.851 450.026 339.381C437.677 324.911 431.684 295.129 453.943 285.753C457.694 284.116 461.839 283.609 465.871 284.296C469.38 284.905 473.252 286.242 477.487 288.304C484.094 291.562 489.539 295.89 493.822 301.287C493.902 301.386 493.957 301.451 494.011 301.506ZM476.533 299.986C475.749 301.047 475.589 302.508 476.094 304.049C476.691 305.717 477.78 307.164 479.215 308.196C479.945 308.742 480.748 309.181 481.6 309.501C482.392 309.803 483.229 309.971 484.076 310C484.821 310.027 485.563 309.895 486.254 309.614C486.874 309.358 487.414 308.941 487.818 308.404C488.603 307.34 488.762 305.879 488.258 304.341C487.659 302.673 486.569 301.226 485.132 300.194C484.404 299.646 483.601 299.207 482.747 298.89C481.956 298.587 481.121 298.419 480.275 298.39C479.53 298.363 478.788 298.495 478.097 298.777C477.477 299.031 476.936 299.449 476.533 299.986Z" fill="#040200"/>
<path d="M485.136 300.194C482.022 297.869 478.167 297.778 476.533 299.987C474.9 302.195 476.097 305.875 479.216 308.196C482.334 310.518 486.185 310.612 487.822 308.404C489.46 306.196 488.247 302.519 485.136 300.194Z" fill="#FFFFFE"/>
<path d="M542.199 349.219C537.153 343.899 536.671 332.821 538.787 325.934C542.78 312.86 549.782 301.403 561.093 293.711C566.495 290.04 572.187 288.691 578.169 289.663C582.941 290.437 587.03 292.099 590.435 294.647C597.284 299.749 597.165 308.833 595.713 317.313C594.679 323.41 592.513 328.739 589.215 333.299C583.443 341.315 577.109 347.911 567.489 351.671C558.276 355.253 549.249 356.649 542.199 349.219ZM568.734 303.273C568.422 302.679 567.971 302.171 567.42 301.79C566.827 301.385 566.155 301.109 565.449 300.981C564.681 300.842 563.894 300.842 563.126 300.981C561.497 301.258 559.996 302.045 558.839 303.229C558.29 303.787 557.844 304.438 557.521 305.153C557.224 305.808 557.067 306.518 557.06 307.237C557.055 307.909 557.214 308.572 557.524 309.168C557.835 309.763 558.286 310.273 558.839 310.652C559.433 311.057 560.104 311.334 560.81 311.464C561.579 311.601 562.365 311.601 563.133 311.464C564.762 311.184 566.262 310.396 567.42 309.212C567.97 308.656 568.417 308.006 568.738 307.292C569.034 306.637 569.191 305.927 569.199 305.208C569.201 304.534 569.042 303.871 568.734 303.273Z" fill="#040200"/>
<path d="M565.453 310.678C568.55 309.052 570.02 305.74 568.72 303.273C567.421 300.806 563.885 300.132 560.792 301.754C557.7 303.375 556.226 306.695 557.525 309.158C558.825 311.621 562.357 312.303 565.453 310.678Z" fill="#FFFFFE"/>
<path d="M480.987 388.779C482.138 386.735 483.68 384.94 485.524 383.495C485.688 383.357 485.895 383.284 486.109 383.287C486.321 383.29 486.525 383.371 486.682 383.513C488.4 385.051 488.773 386.46 487.8 387.74C487.739 387.819 487.696 387.909 487.673 388.006C487.654 388.102 487.654 388.201 487.673 388.298C487.688 388.396 487.724 388.491 487.778 388.575C487.832 388.658 487.903 388.728 487.985 388.782C489.302 389.64 491.655 391.352 495.046 393.92C505.231 401.634 525.175 402.553 536.555 396.89C541.862 394.252 544.994 392.463 548.831 389.026C548.987 388.887 549.176 388.791 549.379 388.746C549.581 388.702 549.791 388.71 549.989 388.768C550.189 388.825 550.37 388.933 550.516 389.081C550.662 389.23 550.769 389.413 550.828 389.613L551.057 390.44C551.126 390.68 551.133 390.934 551.079 391.178C551.024 391.422 550.909 391.648 550.744 391.836C547.84 395.125 544.887 397.535 541.883 399.065C532.719 403.715 522.705 405.498 511.842 404.415C502.012 403.424 495.122 400.115 487.608 394.325C485.58 392.712 483.473 391.203 481.295 389.803C481.124 389.703 480.997 389.542 480.94 389.352C480.882 389.162 480.899 388.957 480.987 388.779Z" fill="#040200"/>
<path d="M530.22 413.764C530.296 413.763 530.371 413.782 530.438 413.818C530.503 413.856 530.556 413.912 530.59 413.979C530.626 414.044 530.642 414.119 530.638 414.194C530.633 414.268 530.608 414.34 530.565 414.401C529.926 415.31 529.045 416.021 528.024 416.453C522.151 419.091 508.785 424.149 506.701 414.948C506.674 414.825 506.691 414.696 506.749 414.584C506.811 414.472 506.911 414.386 507.032 414.343C507.929 414.029 508.873 413.869 509.823 413.869C516.493 413.969 523.292 413.934 530.22 413.764Z" fill="#2D74AA"/>
</svg>
