<svg width="1000" height="1000" viewBox="0 0 1000 1000" fill="none" xmlns="http://www.w3.org/2000/svg">
<path d="M497.064 560.953C493.211 560.955 489.37 560.525 485.612 559.67C472.613 556.704 461.675 551.289 449.039 541.538C446.016 539.199 445.791 536.641 446.135 534.902C447.275 529.036 448.731 462.534 448.789 455.013C448.807 452.739 448.811 446.934 448.789 440.896C448.789 434.111 448.731 427.458 448.676 422.64C448.626 418.417 448.564 415.717 448.499 414.369L448.346 411.377L450.938 412.86C451.337 413.09 452.953 413.877 454.666 414.707C461.436 417.987 464.594 419.601 465.414 420.388C466.561 421.325 475.233 424.072 478.94 425.242C482.45 426.335 482.933 426.521 483.274 426.725C486.025 428.405 488.984 429.659 492.12 430.985C494.48 431.983 496.923 433.018 499.504 434.319C503.638 436.403 505.617 437.333 506.401 437.333C506.69 437.311 506.975 437.254 507.25 437.161C508.23 436.899 509.715 436.498 512.917 436.498C514.209 436.498 515.704 436.564 517.356 436.695C520.529 436.728 522.1 438.787 523.251 440.295C524.238 441.585 524.703 442.117 525.484 442.117C525.844 442.105 526.2 442.031 526.536 441.898L528.761 441.1L528.722 443.473C528.722 444.325 528.722 445.582 528.747 447.011C528.823 450.487 529.012 454.74 529.266 458.671C529.433 461.284 529.629 472.588 529.872 485.68C530.235 505.223 530.754 534.731 531.302 537.147C532.232 539.997 531.665 542.781 529.698 545.2C521.494 555.246 512.521 560.067 500.596 560.829C499.417 560.913 498.23 560.953 497.064 560.953Z" fill="#FFB07C"/>
<path d="M450.132 414.285C451.526 415.083 463.153 420.48 464.289 421.573C465.926 423.169 481.713 427.702 482.439 428.132C487.347 431.135 492.755 432.749 498.774 435.785C503.78 438.306 505.308 438.973 506.397 438.973C507.638 438.973 508.368 438.139 512.909 438.139C514.089 438.139 515.519 438.193 517.265 438.335H517.291C521.788 438.335 521.944 443.75 525.462 443.75C526.018 443.742 526.568 443.636 527.088 443.437C527.088 444.289 527.088 445.532 527.113 447.041C527.182 450.167 527.357 454.441 527.636 458.785C528.079 465.708 528.783 534.728 529.742 537.64C530.516 539.981 530.08 542.158 528.435 544.169C521.385 552.802 513.301 558.381 500.484 559.201C499.334 559.278 498.192 559.316 497.057 559.314C493.326 559.319 489.606 558.902 485.967 558.071C471.97 554.879 461.116 548.79 450.03 540.238C448.131 538.78 447.365 537.109 447.733 535.224C448.934 529.051 450.368 461.492 450.419 455.028C450.437 452.907 450.441 447.318 450.419 440.893C450.419 434.808 450.368 427.972 450.306 422.623C450.259 418.833 450.201 415.787 450.125 414.285M446.56 408.455L446.861 414.438C446.93 415.761 446.988 418.447 447.039 422.648C447.115 429.207 447.141 436.881 447.152 440.868C447.17 446.928 447.152 452.725 447.152 454.966C447.094 462.28 445.624 528.938 444.527 534.56C444.164 536.346 444.164 539.804 448.038 542.803C460.873 552.704 471.996 558.217 485.249 561.238C489.124 562.12 493.086 562.564 497.061 562.56C498.259 562.56 499.485 562.52 500.691 562.44C507.344 562.014 513.083 560.378 518.231 557.43C522.79 554.824 526.834 551.257 530.936 546.217C533.259 543.371 533.927 540.096 532.867 536.743C532.341 533.522 531.825 504.735 531.48 485.633C531.233 471.987 531.041 461.219 530.87 458.555C530.62 454.638 530.431 450.408 530.355 446.95C530.322 445.547 530.315 444.311 530.33 443.473L530.409 438.736L525.999 440.35C525.855 440.406 525.705 440.445 525.553 440.467C525.189 440.106 524.858 439.715 524.562 439.297C523.364 437.727 521.364 435.107 517.439 435.056C515.766 434.925 514.249 434.859 512.927 434.859C509.512 434.859 507.903 435.293 506.84 435.588L506.408 435.697C505.591 435.551 502.259 433.875 500.255 432.862C497.623 431.536 495.173 430.49 492.774 429.484C489.695 428.18 486.788 426.933 484.152 425.337C483.637 425.028 483.14 424.86 479.47 423.698C476.319 422.703 468.017 420.072 466.452 419.103C465.458 418.232 463.117 416.996 455.414 413.25C453.878 412.503 452.147 411.658 451.784 411.454L446.567 408.455H446.56Z" fill="#020201"/>
<path d="M527.636 458.785C522.798 460.324 517.756 461.125 512.681 461.161C498.215 461.227 483.492 458.381 470.721 452.288C464.35 449.249 458.566 446.227 453.37 443.222C452.321 442.536 451.336 441.757 450.426 440.894C450.426 434.808 450.194 419.635 450.132 414.293C461.69 420.633 471.633 436.765 484.791 440.996C495.87 444.552 504.219 447.445 516.783 447.682C520.238 447.77 523.695 447.556 527.113 447.041C527.182 450.167 527.357 454.442 527.636 458.785Z" fill="#E37B4C"/>
<path d="M529.629 443.801C528.369 443.962 536.678 443.273 536.163 444.166C533.894 444.756 532.105 446.17 525.32 447.237C521.185 447.872 516.998 448.1 512.818 447.919C505.061 447.609 498.476 446.826 491.133 443.885C481.326 439.959 471.896 435.146 462.957 429.506C461.044 428.295 459.203 426.974 457.443 425.549C452.506 421.555 448.682 418.283 445.972 415.732C438.639 408.82 433.071 399.797 428.715 389.871C430.348 392.006 431.619 394.798 433.118 396.984C438.614 404.961 446.266 412.606 453.065 417.773C463.839 425.968 477.419 431.835 490.425 437.607C499.351 441.571 503.192 442.001 514.02 442.344C519.697 442.526 527.251 443.801 529.629 443.801Z" fill="#020201"/>
<path d="M526.772 447.081H526.725C491.416 444.356 463.65 433.129 444.201 413.71C432.035 401.546 423.395 386.29 419.204 369.575C416.972 360.392 414.246 351.144 410.855 341.302C410.02 338.868 409.149 336.313 408.256 333.704L407.741 332.203C399.421 307.81 394.956 294.357 394.455 292.214C393.333 287.339 393.613 268.299 393.624 267.49V267.436C394.48 246.665 398.789 228.325 406.427 212.901C412.654 200.193 421.574 189.006 432.563 180.123C441.431 172.967 451.747 167.202 463.225 162.997C483.034 155.749 499.939 155.381 503.13 155.381H503.453C503.736 155.363 504.825 155.305 506.589 155.305C516.027 155.305 540.446 156.861 563.689 171.276C576.985 179.51 588.004 190.97 595.731 204.6C605.329 221.34 610.854 242.103 612.15 266.313C612.317 269.425 611.812 274.716 611.188 280.798L610.916 283.4C609.899 293.191 608.632 305.376 608.698 316.374C608.781 330.293 605.22 352.529 603.089 364.543C602.276 369.13 601.692 372.089 601.684 372.118V372.188L601.663 372.253C596.788 389.161 589.912 403.591 581.229 415.171C574.223 424.507 566.031 432.014 556.876 437.483C540.962 446.986 527.429 447.081 526.859 447.081H526.772Z" fill="#FFB07C"/>
<path d="M506.589 156.951C523.574 156.951 604.962 162.392 610.52 266.404C610.676 269.319 610.204 274.395 609.562 280.634C608.505 290.895 606.992 304.301 607.064 316.388C607.148 330.289 603.539 352.649 601.481 364.258C600.661 368.882 600.084 371.801 600.084 371.801C578.968 444.997 528.13 445.456 526.859 445.456H526.834C445.979 439.217 425.709 389.387 420.791 369.185C418.457 359.583 415.622 350.116 412.416 340.762C411.422 337.847 410.373 334.793 409.302 331.652C403.269 314.016 396.629 294.4 396.045 291.85C394.956 287.112 395.257 267.519 395.257 267.519C396.168 245.444 400.891 227.778 407.89 213.644C435.329 158.219 497.79 157.024 503.13 157.024H503.493C503.493 157.024 504.582 156.951 506.589 156.951ZM506.589 153.672C504.898 153.672 503.794 153.723 503.417 153.745H503.13C499.892 153.745 482.733 154.109 462.677 161.474C451.029 165.737 440.556 171.6 431.55 178.859C420.374 187.888 411.3 199.262 404.964 212.182C397.225 227.818 392.861 246.388 391.994 267.384V267.468C391.961 269.516 391.722 287.604 392.865 292.586C393.37 294.772 397.864 308.291 406.216 332.734L406.772 334.36C407.65 336.91 408.507 339.439 409.331 341.837C412.689 351.628 415.4 360.829 417.622 369.961C419.347 376.987 421.875 383.791 425.154 390.236C429.771 399.353 435.806 407.673 443.032 414.883C452.041 423.876 462.979 431.233 475.535 436.747C490.254 443.215 507.432 447.245 526.583 448.721H526.707H526.859C528.311 448.721 541.691 448.444 557.714 438.882C567.054 433.303 575.403 425.655 582.536 416.148C591.339 404.414 598.305 389.798 603.227 372.697L603.267 372.563L603.296 372.424C603.296 372.395 603.888 369.422 604.705 364.819C606.846 352.747 610.422 330.399 610.338 316.355C610.273 305.445 611.536 293.311 612.549 283.56C612.64 282.674 612.731 281.803 612.818 280.958C613.453 274.803 613.961 269.447 613.791 266.215C612.476 241.746 606.894 220.738 597.158 203.776C589.295 189.914 578.085 178.261 564.56 169.887C540.955 155.25 516.158 153.672 506.593 153.672H506.589Z" fill="#020201"/>
<path d="M409.302 331.671C403.269 314.017 396.629 294.401 396.045 291.85C394.956 287.113 395.257 267.52 395.257 267.52C396.168 245.445 400.891 227.779 407.89 213.645C404.986 224.529 400.071 254.161 411.883 307.862C416.736 329.962 414.558 335.053 409.302 331.671Z" fill="#E37B4C"/>
<path d="M521.236 274.527C521.262 274.647 521.262 274.771 521.236 274.892C521.217 275.014 521.172 275.13 521.106 275.234C521.037 275.337 520.949 275.426 520.846 275.494C520.743 275.562 520.628 275.609 520.507 275.631C517.29 276.229 513.921 275.919 510.397 274.702C495.093 269.4 480.834 265.421 465.363 266.787C460.684 267.206 457.646 268.551 453.53 270.654C453.114 270.868 452.64 270.942 452.179 270.865C451.736 270.794 451.331 270.571 451.032 270.235C449.257 268.165 452.517 263.625 454.299 261.719C463.334 252.015 476.841 247.223 489.873 250.16C493.673 251.018 498.31 252.752 503.787 255.364C511.178 258.887 519.022 266.193 521.236 274.527Z" fill="#020101" stroke="black" stroke-width="9" stroke-miterlimit="10"/>
<path d="M558.709 274.746C558.083 274.957 557.409 274.978 556.771 274.806C556.133 274.633 555.56 274.276 555.124 273.778C554.688 273.28 554.409 272.664 554.32 272.007C554.232 271.35 554.339 270.681 554.629 270.085C559.369 260.425 570.285 252.496 582.627 254.682C589.31 255.866 596.243 257.863 598.526 264.299C598.706 264.818 598.757 265.374 598.674 265.918C598.59 266.462 598.376 266.977 598.048 267.418C597.721 267.86 597.291 268.214 596.796 268.45C596.301 268.686 595.756 268.797 595.208 268.773C580.155 268.139 571.788 270.369 558.709 274.746Z" fill="#020101" stroke="black" stroke-width="8" stroke-miterlimit="10"/>
<path d="M576.819 295.128C576.819 295.128 560.35 295.23 558.967 306.657C557.584 318.085 552.237 340.677 572.151 341.042C592.065 341.406 595.746 317.028 594.294 307.9C592.842 298.772 580.812 294.764 580.812 294.764L576.819 295.128Z" fill="white"/>
<path d="M595.332 308.487C595.13 308.635 594.892 308.724 594.643 308.742C594.394 308.761 594.145 308.709 593.923 308.593C593.748 308.503 593.608 308.357 593.524 308.178C589.623 299.25 582.954 295.516 573.516 296.976C571.495 297.289 569.562 298.02 567.838 299.124C566.114 300.227 564.638 301.679 563.504 303.386C563.464 303.447 563.446 303.521 563.453 303.594C563.46 303.667 563.489 303.737 563.537 303.794C563.589 303.848 563.656 303.886 563.729 303.903C563.804 303.918 563.881 303.91 563.951 303.878C565.896 302.952 567.65 301.608 569.639 301.83C574.329 302.34 577.225 305.627 578.576 309.847C581.03 317.535 580.888 327.953 574.659 333.601C571.225 336.724 568.176 336.043 564.887 332.967C558.32 326.827 558.673 315.477 561.754 307.628C561.776 307.569 561.776 307.504 561.754 307.445C561.739 307.383 561.701 307.329 561.649 307.292C561.596 307.256 561.532 307.238 561.468 307.241C561.403 307.245 561.343 307.272 561.297 307.318L561.224 307.372C561 307.551 560.726 307.657 560.44 307.676C560.154 307.694 559.87 307.624 559.624 307.476C559.379 307.327 559.185 307.106 559.068 306.844C558.951 306.581 558.917 306.289 558.97 306.006C559.46 303.534 560.463 301.194 561.914 299.137C564.683 295.007 568.154 292.515 572.329 291.66C582.645 289.532 593.274 295.129 596.109 305.077C596.559 306.67 596.3 307.807 595.332 308.487Z" fill="#020101"/>
<path d="M502.767 311.891C501.315 303.907 497.63 298.124 489.931 294.626C483.068 291.516 476.05 291.335 468.877 294.083C457.9 298.276 453.174 307.19 454.698 320.826C454.698 320.826 453.047 320.272 452.593 319.426C444.854 304.938 455.806 290.672 471.349 287.185C482.428 284.696 495.358 288.457 502.513 297.967C505.091 301.292 506.525 305.367 506.6 309.58C506.622 310.644 506.393 311.439 505.914 311.964C505.308 312.619 503.667 312.619 502.767 311.891Z" fill="#020101"/>
<path d="M490.861 294.068C499.685 298.306 504.56 307.999 503.007 317.692C502.912 318.286 502.814 318.872 502.72 319.452C501.268 328.27 496.128 336.473 487.51 339.431C486.087 339.917 483.729 340.124 480.435 340.051C473.284 339.883 469.828 339.861 464.216 335.489C458.237 330.832 455.02 325.654 454.568 319.955C453.029 306.309 457.8 297.387 468.881 293.186C476.126 290.439 483.213 290.621 490.142 293.733C490.385 293.842 490.625 293.952 490.861 294.068ZM478.039 298.441C476.403 298.535 474.822 299.065 473.458 299.979C471.943 300.994 470.661 302.322 469.698 303.874C468.603 305.629 467.805 307.554 467.335 309.569C466.821 311.732 466.617 313.956 466.728 316.176C466.946 320.724 468.434 325.02 470.867 328.121C473.299 331.222 476.475 332.876 479.695 332.719C481.331 332.625 482.912 332.094 484.276 331.182C485.791 330.161 487.071 328.828 488.033 327.272C489.128 325.517 489.927 323.593 490.396 321.576C490.913 319.415 491.117 317.19 491.002 314.97C490.784 310.422 489.296 306.126 486.864 303.025C484.432 299.924 481.259 298.27 478.039 298.426V298.441Z" fill="white"/>
<path d="M491.514 315.17C491.057 305.765 484.446 297.711 477.72 298.043C470.994 298.375 465.864 306.927 466.322 316.332C466.779 325.737 472.605 333.094 479.332 332.766C486.058 332.438 491.971 324.575 491.514 315.17Z" fill="#020101"/>
<path d="M490.164 383.918L506.034 400.804L526.362 406.27L541.245 402.99L545.601 398.02L550.32 388.05C550.32 388.05 542.697 386.593 542.334 386.593C541.971 386.593 518.739 385.499 518.739 385.499C518.739 385.499 504.219 383.677 503.856 383.677C503.493 383.677 491.877 381.855 491.877 381.855L490.164 383.918Z" fill="#FFF3DA"/>
<path d="M484.127 376.323C502.589 384.34 541.281 387.892 560.52 382.284C565.047 384.522 552.774 392.367 549.968 397.439C548.926 399.403 547.46 401.107 545.677 402.428C532.99 411.512 509.664 406.67 498.774 397.888C490.951 393.074 490.029 386.526 484.871 380.991C482.86 378.837 480.105 377.653 477.194 377.216C474.743 376.851 485.321 370.507 488.882 373.24C491.227 376.84 484.37 374.599 484.127 376.323ZM500.48 393.537C509.243 403.295 535.851 410.467 544.657 397.039C539.964 396.82 543.013 393.417 545.209 390.563C546.135 389.365 545.292 388.512 543.786 388.413C528.304 387.408 517.465 387.594 500.226 385.134C477.568 379.69 512.956 394.145 506.76 396.142C505.649 396.652 501.275 392.691 500.48 393.537Z" fill="#020101"/>
<path d="M545.125 350.771C543.423 358.897 532.489 363.941 526.997 363.839C524.353 363.789 521.749 363.184 519.351 362.065C516.953 360.945 514.814 359.335 513.073 357.338C511.871 355.953 511.047 354.55 511.17 353.395C511.214 352.983 511.409 352.603 511.718 352.328C512.027 352.054 512.428 351.905 512.84 351.912L530.301 352.929C535.337 353.225 540.38 352.491 545.125 350.771ZM514.996 355.578C515.196 356.034 515.532 356.416 515.958 356.671C517.655 357.824 519.579 358.599 521.599 358.941C521.963 359.008 522.338 358.948 522.664 358.773C522.99 358.597 523.247 358.316 523.393 357.976V357.943C523.441 357.815 523.461 357.678 523.451 357.542C523.44 357.406 523.4 357.275 523.335 357.156C523.268 357.036 523.176 356.933 523.066 356.853C522.957 356.775 522.834 356.72 522.703 356.693L515.24 355.279C515.203 355.268 515.164 355.268 515.127 355.279C515.093 355.291 515.062 355.312 515.04 355.341C515.015 355.37 514.997 355.405 514.989 355.443C514.978 355.487 514.979 355.534 514.993 355.578H514.996Z" fill="#E37B4C"/>
<path d="M514.996 355.578C514.984 355.54 514.984 355.499 514.996 355.461C515.002 355.423 515.018 355.388 515.044 355.359C515.067 355.329 515.098 355.308 515.134 355.297C515.17 355.286 515.208 355.286 515.243 355.297L522.699 356.711C522.829 356.739 522.953 356.792 523.062 356.868C523.173 356.949 523.265 357.054 523.331 357.174C523.398 357.292 523.438 357.424 523.447 357.56C523.459 357.696 523.439 357.834 523.389 357.961V357.994C523.245 358.335 522.989 358.617 522.663 358.792C522.337 358.966 521.963 359.025 521.599 358.959C519.58 358.618 517.657 357.843 515.962 356.689C515.53 356.432 515.191 356.043 514.996 355.578Z" fill="#201116"/>
<path d="M527.117 364.182C527.08 364.121 527.056 364.054 527.045 363.984C527.035 363.914 527.039 363.843 527.058 363.774C527.076 363.706 527.108 363.642 527.152 363.587C527.196 363.532 527.251 363.486 527.313 363.453C528.54 362.768 530.552 361.948 533.35 360.993C535.992 360.089 545.964 356.354 544.85 345.157C544.369 343.182 543.569 341.3 542.483 339.585C539.042 333.831 533.985 325.567 534.838 318.45C534.862 318.276 534.945 318.115 535.074 317.995C535.203 317.874 535.37 317.801 535.546 317.787C535.722 317.774 535.898 317.822 536.043 317.922C536.189 318.021 536.295 318.168 536.345 318.337C537.012 320.767 537.546 322.686 537.945 324.095C538.291 325.309 539.188 327.056 540.635 329.335C543.26 333.489 548.549 340.489 548.941 344.799C549.284 348.623 548.84 351.588 547.608 353.694C545.762 356.852 542.495 359.897 537.807 362.83C535.8 363.999 529.331 364.455 527.451 364.364C527.385 364.362 527.32 364.345 527.262 364.313C527.204 364.281 527.154 364.236 527.117 364.182Z" fill="#020101"/>
<path d="M416.471 307.324C416.471 307.324 396.992 269.377 380.367 290.267C363.742 311.158 377.056 349.346 393.141 360.355C409.225 371.363 418.551 357.804 418.551 357.804L416.471 307.324Z" fill="#FFB07C"/>
<path d="M401.174 341.83C400.252 337.763 400.278 331.645 405.483 325.374C405.483 325.374 398.586 299.137 387.333 297.68C376.08 296.222 378.305 317.237 380.458 322.214C382.61 327.192 387.355 344.985 394.785 345.565C395.874 345.648 396.833 345.736 397.66 345.82C398.176 345.872 398.697 345.8 399.179 345.611C399.662 345.421 400.093 345.119 400.436 344.729C400.779 344.339 401.025 343.873 401.154 343.369C401.282 342.864 401.289 342.337 401.174 341.83Z" fill="#E37B4C"/>
<path d="M401.428 346.165C401.312 345.801 401.141 345.436 400.945 345.01C400.749 344.584 400.561 344.099 400.405 343.629C400.106 342.699 399.881 341.746 399.733 340.78C399.575 339.816 399.495 338.841 399.493 337.864C399.475 337.376 399.515 336.888 399.53 336.407C399.544 335.926 399.606 335.434 399.693 334.949C399.984 333.022 400.56 331.149 401.403 329.392C402.244 327.66 403.291 326.036 404.521 324.557L404.271 325.683C403.726 323.551 403.058 321.383 402.336 319.266C401.613 317.149 400.811 315.05 399.918 312.998C399.039 310.948 398.034 308.955 396.909 307.029C395.82 305.116 394.509 303.338 393.003 301.735C392.64 301.33 392.223 301.006 391.827 300.623C391.62 300.452 391.402 300.295 391.192 300.132C391.086 300.051 390.985 299.964 390.872 299.891L390.538 299.68C390.324 299.535 390.103 299.402 389.874 299.282L389.17 298.918C388.693 298.718 388.198 298.563 387.692 298.455C386.69 298.213 385.645 298.213 384.643 298.455C384.158 298.585 383.695 298.785 383.267 299.049C382.838 299.327 382.446 299.657 382.099 300.033C381.4 300.842 380.849 301.767 380.469 302.766C380.074 303.794 379.779 304.859 379.587 305.944C379.207 308.152 379.057 310.394 379.14 312.634C379.144 312.734 379.109 312.832 379.041 312.907C378.973 312.981 378.879 313.025 378.779 313.029C378.679 313.034 378.581 312.998 378.507 312.93C378.433 312.862 378.389 312.767 378.385 312.667C378.226 310.377 378.305 308.078 378.621 305.805C378.789 304.648 379.068 303.509 379.452 302.405C379.847 301.264 380.439 300.202 381.202 299.268C381.607 298.795 382.072 298.377 382.585 298.025C383.109 297.675 383.681 297.405 384.284 297.224C385.478 296.881 386.736 296.831 387.954 297.078C388.558 297.186 389.151 297.351 389.725 297.57L390.556 297.934C390.822 298.077 391.079 298.236 391.326 298.408L391.714 298.638C391.841 298.718 391.958 298.809 392.077 298.896C392.321 299.071 392.567 299.242 392.803 299.425C393.254 299.811 393.725 300.179 394.136 300.605C395.792 302.247 397.247 304.082 398.47 306.071C399.7 308.026 400.807 310.056 401.784 312.149C402.771 314.23 403.661 316.351 404.47 318.497C405.28 320.643 406.024 322.804 406.681 325.056C406.732 325.235 406.741 325.425 406.707 325.608C406.672 325.792 406.595 325.965 406.481 326.113L406.43 326.182C405.332 327.495 404.396 328.936 403.643 330.474C402.901 332.004 402.392 333.636 402.132 335.317C402.053 335.733 402.038 336.159 401.987 336.578C401.936 336.997 401.933 337.423 401.947 337.85C401.956 339.55 402.217 341.24 402.721 342.864C402.851 343.259 403.001 343.647 403.171 344.026C403.345 344.42 403.559 344.883 403.73 345.396C403.832 345.703 403.808 346.037 403.665 346.326C403.521 346.615 403.269 346.835 402.964 346.938C402.659 347.04 402.325 347.017 402.037 346.873C401.749 346.728 401.53 346.475 401.428 346.169V346.165Z" fill="#020201"/>
<path d="M391.689 338.881C391.101 337.651 390.594 336.384 390.172 335.087C389.731 333.796 389.367 332.479 389.083 331.145C388.493 328.428 388.335 325.635 388.614 322.869C388.784 321.45 389.112 320.054 389.591 318.708C389.725 318.373 389.834 318.026 389.99 317.699L390.455 316.715C390.796 316.07 391.178 315.448 391.598 314.853C392.021 314.254 392.478 313.681 392.967 313.136C393.481 312.606 394.024 312.105 394.593 311.635C395.706 310.705 396.91 309.891 398.187 309.205C398.594 308.973 399.076 308.913 399.527 309.039C399.978 309.164 400.361 309.464 400.592 309.873C400.822 310.282 400.881 310.766 400.757 311.219C400.632 311.671 400.333 312.056 399.925 312.287C399.891 312.31 399.854 312.329 399.817 312.346L399.726 312.389C398.619 312.878 397.564 313.479 396.579 314.182C396.091 314.531 395.623 314.907 395.177 315.308C394.745 315.723 394.336 316.162 393.954 316.624C393.57 317.086 393.216 317.573 392.894 318.081L392.444 318.872C392.292 319.134 392.183 319.418 392.045 319.692C391.543 320.824 391.168 322.008 390.927 323.223C390.479 325.75 390.433 328.333 390.792 330.875C390.959 332.166 391.201 333.446 391.518 334.708C391.829 335.974 392.22 337.219 392.687 338.436V338.454C392.736 338.585 392.733 338.73 392.68 338.858C392.626 338.987 392.525 339.09 392.398 339.147C392.27 339.203 392.126 339.209 391.995 339.162C391.864 339.115 391.756 339.02 391.693 338.895L391.689 338.881Z" fill="#020201"/>
<path d="M416.471 307.324C416.471 307.324 406.873 288.627 395.417 284.706C390.545 283.041 385.336 284.04 380.381 290.267C363.738 311.161 377.056 349.346 393.141 360.354C409.225 371.363 418.551 357.804 418.551 357.804" stroke="black" stroke-width="3" stroke-linecap="round" stroke-linejoin="round"/>
</svg>
