<svg width="1000" height="1202" viewBox="0 0 1000 1202" fill="none" xmlns="http://www.w3.org/2000/svg">
<path d="M579 820C575.72 820.44 597.39 818.55 596 821C590.08 822.62 585.41 826.5 567.73 829.43C556.96 831.171 546.039 831.798 535.14 831.3C514.92 830.45 497.75 828.3 478.6 820.23C452.939 809.398 428.348 796.187 405.15 780.77C400.15 777.437 395.351 773.811 390.78 769.91C377.967 758.95 368.04 749.98 361 743C341.89 724.07 327.42 699.27 316 672C320.25 677.86 323.56 685.52 327.48 691.52C341.865 713.028 359.393 732.259 379.48 748.57C407.57 771.06 442.97 787.16 476.87 803C500.14 813.88 510.16 815.06 538.38 816C553.15 816.5 572.85 820 579 820Z" fill="#020201"/>
<path d="M571.58 829H571.4C479.26 821.54 406.8 790.7 356 737.36C313.35 692.53 296.9 642.24 290.89 616.24C286.34 596.55 280.84 576.15 274.53 555.6C272.83 550.09 271.03 544.39 269.16 538.6L261.04 513.6C254.33 492.93 244.04 457.48 233.04 405.98L232.6 404C231.6 399.61 230.34 390.63 228.74 377.29C222.986 331.163 226.236 284.358 238.31 239.47C243.19 221.275 249.647 203.541 257.61 186.47C274.26 151.06 297.2 120.79 325.78 96.4698C349.617 76.4194 376.662 60.5302 405.78 49.4698C457.47 29.4698 501.61 28.4698 509.94 28.4698H510.78C511.54 28.4198 514.39 28.2598 518.96 28.2598C543.57 28.2598 607.37 32.5398 668.04 72.1498C702.78 94.8198 730.9 125.6 751.61 163.64C776.61 209.55 791.01 266.51 794.39 332.91C794.83 341.46 793.51 355.96 791.88 372.63L791.16 379.93C788.51 406.76 785.22 440.15 785.39 470.28C785.61 508.38 776.33 569.43 770.78 602.43C768.65 615.01 767.14 623.13 767.12 623.21V623.39L767.07 623.57C754.36 669.95 736.44 709.57 713.81 741.32C695.54 766.95 674.17 787.56 650.28 802.58C608.73 828.71 573.28 829.01 571.83 829.01L571.58 829Z" fill="#D35079"/>
<path d="M519 32.7998C563.28 32.7998 775.4 47.7298 789.94 333.17C790.35 341.17 789.12 355.1 787.44 372.22C784.69 400.38 780.74 437.17 780.93 470.34C781.15 508.49 771.74 569.85 766.38 601.71C764.24 614.4 762.74 622.41 762.74 622.41C707.69 823.28 575.16 824.54 571.84 824.54H571.78C361 807.42 308.13 670.67 295.31 615.23C290.57 594.7 285.04 574.38 278.87 554.23C277.123 548.543 275.327 542.876 273.48 537.23C270.89 529.23 268.15 520.85 265.36 512.23C249.63 463.83 238.52 410 237 403C235.95 398.2 234.55 387.86 233.21 376.71C227.566 331.158 230.771 284.946 242.65 240.61C247.447 222.679 253.804 205.202 261.65 188.38C333.21 36.2798 496 32.9998 510 32.9998H511C511 32.9998 513.89 32.7998 519.07 32.7998M519.07 23.7998C514.69 23.7998 511.8 23.9398 510.77 23.9998H510C501.53 23.9998 456.65 24.9998 404.22 45.2598C374.625 56.5231 347.137 72.6891 322.91 93.0798C293.83 117.78 270.51 148.56 253.58 184.56C245.504 201.856 238.952 219.824 234 238.26C221.774 283.705 218.486 331.092 224.32 377.79C225.93 391.27 227.26 400.4 228.25 404.92L228.69 407C239.69 458.69 250.1 494.3 256.84 515.06C259.32 522.69 261.75 530.18 264.08 537.33L264.96 540.03C266.82 545.76 268.62 551.44 270.31 556.93C276.58 577.37 282.06 597.67 286.58 617.25C291.053 636.439 297.633 655.076 306.2 672.82C318.115 697.661 333.846 720.484 352.82 740.46C376.34 765.18 404.9 785.4 437.71 800.58C476.13 818.37 521 829.45 571 833.51H571.37H571.79C575.65 833.51 610.72 832.75 652.63 806.39C677.02 791.05 698.82 770.04 717.43 743.93C740.37 711.75 758.52 671.65 771.37 624.76L771.47 624.4L771.54 624.04C771.54 623.96 773.08 615.8 775.2 603.18C780.78 570.03 790.1 508.69 789.88 470.26C789.71 440.35 792.99 407.1 795.63 380.37C795.87 377.88 796.12 375.44 796.35 373.06C798 356.22 799.35 341.54 798.88 332.68C795.46 265.6 780.88 208 755.56 161.49C734.49 122.8 705.87 91.4898 670.5 68.3798C608.84 28.1398 544 23.7998 519 23.7998H519.07Z" fill="#020201"/>
<path d="M278.87 554.28C277.123 548.593 275.327 542.927 273.48 537.28C270.89 529.28 268.15 520.9 265.36 512.28C249.63 463.83 238.52 410 237 403C235.95 398.2 234.55 387.86 233.21 376.71C227.566 331.159 230.771 284.946 242.65 240.61C247.447 222.679 253.804 205.202 261.65 188.38C254.04 218.25 250.19 297.98 272.05 446.94C281.79 513.11 283.07 556.1 278.87 554.28Z" fill="#BC3364"/>
<path d="M271.15 442.43C271 443 284.53 519.35 282.77 575.18" stroke="#020201" stroke-width="9" stroke-linecap="round" stroke-linejoin="round"/>
<path d="M760 394C719.56 357.54 560.23 414.34 596.08 541C602.08 562.37 622.42 576.86 644.56 575C719.07 569 811 440 760 394Z" fill="#040200"/>
<path d="M676.15 441.74C682.64 438.35 685.72 431.43 683.03 426.29C680.34 421.15 672.9 419.73 666.42 423.12C659.94 426.51 656.86 433.42 659.55 438.57C662.24 443.72 669.67 445.13 676.15 441.74Z" fill="#FFFFFE"/>
<path d="M642.83 475.79C652.89 468.79 657.66 454.49 653.49 443.86C649.32 433.23 637.8 430.29 627.74 437.3C617.68 444.31 612.92 458.6 617.08 469.23C621.24 479.86 632.78 482.8 642.83 475.79Z" fill="#FFFFFE"/>
<path d="M340.6 394C381.04 357.54 540.37 414.34 504.52 541C498.52 562.37 478.19 576.86 456.05 575C381.53 569 289.59 440 340.6 394Z" fill="#040200"/>
<path d="M424.45 441.74C417.97 438.35 414.89 431.43 417.57 426.29C420.25 421.15 427.7 419.73 434.18 423.12C440.66 426.51 443.74 433.42 441.06 438.57C438.38 443.72 430.93 445.13 424.45 441.74Z" fill="#FFFFFE"/>
<path d="M457.77 475.79C447.77 468.79 442.94 454.49 447.11 443.86C451.28 433.23 462.81 430.29 472.86 437.3C482.91 444.31 487.69 458.6 483.52 469.23C479.35 479.86 467.82 482.8 457.77 475.79Z" fill="#FFFFFE"/>
<path d="M449 669C452.173 663.392 456.421 658.465 461.5 654.5C461.951 654.122 462.522 653.92 463.11 653.93C463.695 653.938 464.256 654.159 464.69 654.55C469.424 658.77 470.45 662.637 467.77 666.15C467.602 666.365 467.483 666.614 467.42 666.88C467.366 667.144 467.366 667.416 467.42 667.68C467.461 667.951 467.56 668.21 467.71 668.44C467.858 668.668 468.052 668.862 468.28 669.01C471.907 671.363 478.39 676.063 487.73 683.11C515.79 704.28 570.73 706.8 602.08 691.26C616.7 684.02 625.33 679.11 635.9 669.68C636.329 669.298 636.849 669.033 637.41 668.91C637.966 668.79 638.544 668.811 639.09 668.97C639.64 669.126 640.139 669.423 640.54 669.83C640.942 670.239 641.237 670.74 641.4 671.29L642.03 673.56C642.22 674.219 642.241 674.916 642.091 675.585C641.941 676.255 641.624 676.875 641.17 677.39C633.17 686.417 625.034 693.03 616.76 697.23C591.514 709.99 563.927 714.883 534 711.91C506.92 709.19 487.94 700.11 467.24 684.22C461.655 679.795 455.851 675.653 449.85 671.81C449.379 671.537 449.029 671.094 448.871 670.573C448.713 670.051 448.759 669.489 449 669Z" fill="#040200"/>
<path d="M307.25 366.63C306.494 366.811 305.71 366.849 304.94 366.74C304.191 366.64 303.469 366.388 302.82 366C302.228 365.649 301.73 365.158 301.37 364.57C301.038 364.026 300.871 363.397 300.89 362.76C301.83 337.09 334.89 316.87 363.36 309.98C396.693 301.88 428.797 304.043 459.67 316.47C478.61 324.08 491.76 338.66 488.5 356.18C487.127 363.58 481.46 365.95 471.5 363.29C448.96 357.29 436.97 353.36 418.96 351.36C387.627 347.867 357.59 350.96 328.85 360.64C321.75 363 313 365.21 307.25 366.63Z" fill="#09040A"/>
<path d="M777.8 367.13C775.66 368.3 772.91 368.48 769.54 367.65C727.66 357.58 685.95 348.9 643.44 361.32C639.932 362.225 636.308 362.592 632.69 362.41C610.1 361.86 621.25 343.85 629.05 336.96C647.57 320.62 669.517 312.303 694.89 312.01C739.13 311.49 772.95 331.01 778.97 365.01C779.039 365.408 778.969 365.818 778.77 366.17C778.539 366.572 778.204 366.904 777.8 367.13Z" fill="#09040A"/>
<path d="M558.19 598.33C558.19 601.456 556.948 604.455 554.737 606.666C552.526 608.877 549.527 610.12 546.4 610.12C543.273 610.12 540.274 608.877 538.063 606.666C535.852 604.455 534.61 601.456 534.61 598.33C534.61 591.82 539.89 570.81 546.4 570.81C552.91 570.81 558.19 591.82 558.19 598.33Z" fill="#09040A"/>
<path d="M591.61 598.33C591.521 601.398 590.239 604.311 588.036 606.451C585.834 608.59 582.885 609.786 579.815 609.786C576.745 609.786 573.796 608.59 571.593 606.451C569.391 604.311 568.109 601.398 568.02 598.33C568.02 591.82 573.3 570.81 579.81 570.81C586.32 570.81 591.61 591.82 591.61 598.33Z" fill="#09040A"/>
</svg>
