<svg width="1000" height="1000" viewBox="0 0 1000 1000" fill="none" xmlns="http://www.w3.org/2000/svg">
<g id="body1">
<g id="body">
<g id="body_2">
<g id="arm 2.1">
<path id="Vector" d="M643.305 720.39C643.243 720.328 637.128 714.208 629.531 705.99C618.268 693.8 603.912 677.233 599.603 667.535C596.864 661.353 594.429 647.684 592.366 626.866C590.295 605.877 589.339 584.866 589.328 584.655V584.473L599.643 526.27L603.425 524.499L618.809 517.28L628.023 512.968L637.673 530.095L673.338 593.422C673.872 594.215 680.172 603.637 687.682 615.626C698.459 632.84 711.989 655.782 715.263 667.328C720.739 686.648 729.382 705.182 729.466 705.368L730.392 707.339L643.879 720.979L643.305 720.39Z" fill="#7E4282"/>
<path id="Vector_2" d="M627.348 515.091L636.25 530.909L671.948 594.291C671.948 594.291 678.411 603.913 686.299 616.506C697.061 633.698 710.472 656.429 713.691 667.778C719.268 687.458 727.988 706.066 727.988 706.066L673.906 714.593L644.458 719.236C644.458 719.236 638.39 713.164 630.727 704.88C619.682 692.938 605.33 676.407 601.094 666.873C597.958 659.815 595.622 643.182 593.991 626.709C591.898 605.52 590.961 584.586 590.961 584.586L601.094 527.396L604.11 525.986L619.504 518.767L627.345 515.095M628.704 510.844L625.957 512.131L618.116 515.804L602.722 523.022L599.71 524.433L598.169 525.16L597.875 526.833L587.745 584L587.68 584.364V584.727C587.68 584.938 588.646 605.993 590.721 627.029C592.795 648.066 595.281 661.869 598.093 668.2C602.493 678.102 616.953 694.818 628.315 707.109C635.945 715.346 642.071 721.498 642.122 721.556L643.299 722.735L644.941 722.476L674.371 717.833L728.453 709.306L732.751 708.629L730.906 704.684C730.819 704.498 722.229 686.073 716.794 666.891C713.469 655.16 699.859 632.073 689.028 614.767C681.645 602.986 675.428 593.676 674.691 592.586L639.055 529.313L630.15 513.506L628.66 510.862L628.704 510.844Z" fill="#17091D"/>
<path id="Vector_3" d="M686.303 616.495C680.272 616.658 674.822 614.92 671.407 609.713C669.278 606.473 666.008 603.437 662.073 600.622C656.906 596.938 650.595 593.655 644.219 590.844C634.213 586.443 625.488 579.57 618.863 570.87C612.238 562.17 607.929 551.928 606.341 541.106L604.121 525.971L601.105 505.411L619.516 518.753L636.251 530.909L671.948 594.291C671.948 594.291 678.416 603.902 686.303 616.495Z" fill="#5C2C66"/>
<path id="Vector_4" d="M673.908 714.59L644.46 719.233C644.46 719.233 638.392 713.161 630.729 704.877C619.684 692.935 605.332 676.404 601.096 666.87C597.96 659.812 595.624 643.179 593.993 626.706L593.738 583.273C593.738 583.273 627.608 670.99 650.513 698.546C656.13 705.299 661.881 710.164 667.495 711.815C670.485 712.684 672.582 713.619 673.908 714.59Z" fill="#5C2C66"/>
<path id="Vector_5" d="M619.355 694.728C623.051 693.604 634.554 689.822 643.248 686.902C665.441 679.448 696.102 667.902 695.281 661.266C694.304 653.353 674.735 621.03 662.069 600.637C658.138 594.302 655.573 590.244 655.573 590.244" stroke="#17091D" stroke-width="2.54545" stroke-linecap="round" stroke-linejoin="round"/>
</g>
<g id="glove 2">
<path id="Vector_6" d="M600.071 924.778L599.842 923.884L599.773 923.607V923.553C599.748 923.465 599.726 923.378 599.708 923.287C599.689 923.196 599.588 922.822 599.588 922.822C599.588 922.822 599.551 922.691 599.533 922.611L599.504 922.498C596.627 911.044 582.428 852.8 585.222 829.64C586.021 822.974 588.255 819.345 591.852 818.854C592.677 818.742 593.535 818.669 594.396 818.633C594.843 818.633 595.311 818.604 595.78 818.604C596.75 818.604 597.775 818.647 598.828 818.727C615.298 820.022 635.191 831 636.03 831.454L636.103 831.498C636.582 831.796 647.886 838.989 653.296 852.313C655.356 857.293 656.405 862.635 656.38 868.025C656.38 875.913 654.095 883.254 652.122 888.771C647.21 902.505 625.849 914.498 621.602 916.771C615.312 920.145 608.849 923.187 602.24 925.884L600.529 926.556L600.071 924.778Z" fill="#CE44A2"/>
<path id="Vector_7" d="M595.774 820.236C596.729 820.236 597.703 820.28 598.68 820.356C614.983 821.636 635.217 832.894 635.217 832.894C635.217 832.894 646.48 839.953 651.763 852.938C653.737 857.725 654.744 862.855 654.728 868.033C654.728 875.142 652.853 881.851 650.564 888.229C646.728 898.956 631.38 909.684 620.826 915.331C614.593 918.677 608.188 921.692 601.638 924.364C601.638 924.364 601.558 924.058 601.413 923.484C601.384 923.374 601.354 923.254 601.322 923.12C601.3 923.047 601.282 922.971 601.264 922.891C601.224 922.742 601.184 922.582 601.14 922.411C601.111 922.305 601.086 922.196 601.057 922.084C598.012 909.96 584.071 852.629 586.814 829.833C587.471 824.378 589.088 820.873 592.046 820.469C592.823 820.365 593.622 820.296 594.44 820.262C594.876 820.262 595.316 820.233 595.759 820.233M595.759 816.96C595.265 816.96 594.775 816.96 594.306 816.989C593.394 817.025 592.489 817.105 591.61 817.222C587.181 817.829 584.478 821.949 583.577 829.436C582.374 839.433 584.049 856.633 588.558 880.564C592.064 899.156 596.253 916.345 597.892 922.873V922.894L597.917 922.993C597.917 923.076 597.957 923.156 597.979 923.236L598.005 923.338C598.034 923.455 598.063 923.564 598.092 923.669C598.121 923.774 598.135 923.855 598.164 923.96V924C598.19 924.102 598.212 924.2 598.237 924.291C598.382 924.873 598.466 925.182 598.466 925.182L599.396 928.738L602.815 927.396C609.486 924.681 616.007 921.613 622.352 918.204C628.716 914.799 634.727 910.771 640.297 906.178C647.2 900.36 651.698 894.702 653.624 889.32C655.644 883.684 657.962 876.167 657.984 868.029C658.007 862.425 656.916 856.873 654.775 851.695C649.169 837.876 637.433 830.425 636.939 830.113L636.867 830.069L636.794 830.029C635.94 829.553 615.742 818.393 598.924 817.087C597.834 817.004 596.744 816.96 595.748 816.96H595.759Z" fill="#17091D"/>
<path id="Vector_8" d="M654.742 868.032C654.742 875.141 652.868 881.851 650.579 888.229C646.742 898.956 631.395 909.683 620.84 915.331C614.607 918.677 608.202 921.692 601.652 924.363C601.652 924.363 601.572 924.058 601.427 923.483C601.398 923.371 601.365 923.254 601.336 923.12C601.314 923.047 601.296 922.971 601.278 922.891C601.238 922.741 601.198 922.581 601.154 922.411C601.125 922.305 601.1 922.196 601.071 922.083C598.026 909.96 584.085 852.629 586.828 829.832C587.486 824.378 589.103 820.872 592.06 820.469C592.838 820.365 593.636 820.295 594.454 820.261C595.868 820.207 597.284 820.238 598.695 820.352C598.266 831.08 598.157 853.341 604.294 858.018C612.447 864.229 612.926 865.356 615.324 873.261C617.722 881.167 618.202 878.352 622.998 889.072C627.794 899.792 635.951 902.621 646.502 882.294C649.561 876.411 652.341 871.72 654.742 868.032Z" fill="#9C398C"/>
<path id="Vector_9" d="M605.972 873.549L593.375 892.363" stroke="#17091D" stroke-width="2.54545" stroke-linecap="round" stroke-linejoin="round"/>
<path id="Vector_10" d="M616.522 891.614C616.043 891.614 597.371 911.272 597.371 911.272" stroke="#17091D" stroke-width="2.54545" stroke-linecap="round" stroke-linejoin="round"/>
<path id="Vector_11" d="M633.405 900.651L620.445 916.546" stroke="#17091D" stroke-width="2.54545" stroke-linecap="round" stroke-linejoin="round"/>
</g>
<g id="arm 2.2">
<path id="Vector_12" d="M672.809 873.299C672.562 873.298 672.318 873.247 672.091 873.149C671.864 873.051 671.66 872.908 671.49 872.728C670.694 871.895 670.764 870.695 670.916 867.135C671.156 861.902 671.603 852.161 668.736 841.659C665.212 828.659 649.712 812.302 627.937 807.586C624.007 806.729 619.996 806.297 615.973 806.295C614.247 806.295 612.499 806.375 610.777 806.535L608.695 806.731L609.011 804.662C609.204 803.39 613.895 773.273 624.795 752.175C632.548 737.164 634.692 732.237 635.28 730.72C633.991 728.811 631.618 723.328 638.26 714.524C641.334 710.451 648.113 705.797 656.87 701.71L657.197 701.557C670.724 695.31 686.194 691.586 698.66 691.586C700.016 691.586 701.356 691.63 702.657 691.717C706.349 691.941 710.02 692.443 713.637 693.219C720.264 694.673 725.572 697.11 729.409 700.422C732.022 702.632 734.031 705.47 735.248 708.67C737.243 713.979 738.707 721.288 735.975 738.648C735.767 739.946 735.56 741.164 735.342 742.375C733.315 753.706 717.481 787.666 704.557 814.16C690.918 842.11 676.09 870.67 674.549 872.411C674.34 872.675 674.076 872.891 673.775 873.044C673.475 873.197 673.146 873.284 672.809 873.299Z" fill="#CE44A2"/>
<path id="Vector_13" d="M698.672 693.208C699.985 693.208 701.276 693.249 702.545 693.331C706.154 693.543 709.742 694.03 713.278 694.786C720.545 696.397 725.268 698.975 728.338 701.629C730.752 703.653 732.604 706.266 733.715 709.215C735.332 713.52 737.2 720.32 734.34 738.364C734.151 739.547 733.943 740.778 733.715 742.058C729.988 762.909 675.851 868.44 673.308 871.313C673.097 871.549 672.944 871.677 672.81 871.677C671.426 871.677 674.754 857.557 670.321 841.244C666.484 827.102 650.007 810.698 628.291 806.004C624.247 805.122 620.12 804.678 615.981 804.677C614.217 804.677 612.435 804.759 610.633 804.924C610.633 804.924 615.356 774.044 626.256 752.924C637.065 732 637.112 730.4 637.112 730.378L637.058 730.32C636.527 729.76 632.469 724.917 639.576 715.498C642.537 711.571 649.164 707.088 657.568 703.178C669.511 697.615 685.032 693.211 698.672 693.211M698.672 689.938C686.082 689.938 670.503 693.658 656.852 699.906L656.195 700.211C647.075 704.455 640.248 709.182 636.974 713.528C633.494 718.135 631.888 722.495 632.2 726.484C632.311 728.012 632.746 729.5 633.475 730.848C632.607 732.913 630.165 738.244 623.36 751.415C612.34 772.753 607.61 803.124 607.413 804.408L606.781 808.542L610.941 808.157C612.616 808 614.313 807.92 615.988 807.92C619.897 807.922 623.795 808.342 627.615 809.175C637.357 811.314 646.393 815.905 653.869 822.513C660.562 828.422 665.416 835.553 667.189 842.077C669.972 852.335 669.536 861.909 669.3 867.055C669.122 870.913 669.049 872.509 670.325 873.848C670.645 874.191 671.033 874.465 671.463 874.653C671.894 874.841 672.358 874.938 672.828 874.938C673.395 874.927 673.952 874.791 674.46 874.54C674.968 874.288 675.414 873.928 675.767 873.484C676.094 873.12 677.09 871.993 686.213 854.342C689.847 847.313 697.251 832.84 706.018 814.866C718.993 788.28 734.889 754.168 736.949 742.651C737.167 741.437 737.378 740.171 737.581 738.898C740.393 721.157 738.864 713.604 736.789 708.084C735.479 704.625 733.31 701.557 730.485 699.171C726.449 695.684 720.901 693.138 714.001 691.611C710.305 690.819 706.554 690.305 702.781 690.073C701.459 689.986 700.082 689.942 698.69 689.942L698.672 689.938Z" fill="#17091D"/>
<path id="Vector_14" d="M728.337 701.644C726.94 709.97 724.702 718.133 721.659 726.008C706.9 763.8 678.971 774.666 678.422 774.873C689.834 765.055 699.989 738.775 706.762 717.338C709.56 708.498 711.776 700.48 713.269 694.793C720.558 696.411 725.263 698.989 728.337 701.644Z" fill="#D969BD"/>
<path id="Vector_15" d="M657.565 703.175C655.268 708.884 652.518 715.902 649.633 723.728C640.274 749.102 629.512 782.72 628.291 805.989C622.496 804.721 616.54 804.353 610.633 804.898C610.633 804.898 615.356 774.018 626.256 752.898C637.065 731.975 637.113 730.375 637.113 730.353L637.058 730.295C636.528 729.735 632.469 724.891 639.576 715.473C642.533 711.568 649.161 707.084 657.565 703.175Z" fill="#9C398C"/>
<path id="Vector_16" d="M637.055 730.317C640.466 728.346 644.768 726.015 649.633 723.728C664.341 716.819 684.219 710.273 700.333 715.055C702.519 715.705 704.668 716.472 706.771 717.353C712.09 719.587 717.097 722.501 721.668 726.022C726.36 729.636 730.616 733.786 734.348 738.386" stroke="#17091D" stroke-width="2.54545" stroke-linecap="round" stroke-linejoin="round"/>
<path id="Vector_17" d="M656.521 886.033C656.224 886.036 655.926 886.019 655.631 885.983L654.007 885.743L654.254 884.117C654.28 883.953 656.71 867.437 652.052 851.753C650.652 847.068 648.438 842.666 645.512 838.75C640.586 832.092 633.522 827.223 624.526 824.277C616.653 821.699 609.059 821.161 604.071 821.161C601.367 821.161 599.711 821.328 599.681 821.328L595.961 821.692L608.59 804.917L608.521 803.266C608.601 803.266 610.498 803.103 613.564 803.103C618.504 803.099 623.436 803.506 628.309 804.317C639.746 806.281 648.492 810.383 654.301 816.517C658.031 820.465 661.472 824.675 664.598 829.117C665.863 830.935 667.065 832.753 668.173 834.572C673.031 842.535 678.539 854.208 677.18 864.648C676.859 867.268 676.032 869.801 674.746 872.106C667.4 885.03 658.941 886.033 656.521 886.033Z" fill="#CE44A2"/>
<path id="Vector_18" d="M613.546 804.75C618.394 804.744 623.233 805.143 628.014 805.942C636.734 807.437 646.512 810.702 653.084 817.655C656.761 821.543 660.151 825.692 663.229 830.07C664.462 831.825 665.634 833.614 666.746 835.437C672.748 845.277 676.657 855.801 675.527 864.452C675.236 866.863 674.477 869.193 673.293 871.313C666.411 883.441 658.76 884.404 656.507 884.404C656.289 884.407 656.07 884.396 655.853 884.372C655.853 884.372 658.425 867.539 653.604 851.281C652.145 846.41 649.839 841.836 646.791 837.768C640.902 829.812 632.821 825.277 624.991 822.717C616.755 820.019 608.809 819.517 604.027 819.517C601.189 819.517 599.471 819.695 599.471 819.695L610.607 804.902H608.634C608.634 804.902 610.505 804.742 613.539 804.742M613.539 801.47C610.404 801.47 608.452 801.633 608.358 801.641L608.427 803.237L608.017 802.928L596.88 817.721L592.375 823.706L599.823 822.939C599.823 822.939 601.444 822.779 604.045 822.779C608.914 822.779 616.326 823.306 623.996 825.815C632.665 828.655 639.452 833.328 644.175 839.706C646.993 843.469 649.126 847.698 650.479 852.201C655.025 867.517 652.659 883.695 652.634 883.859L652.14 887.106L655.388 887.582C655.761 887.633 656.138 887.656 656.514 887.652C658.029 887.652 661.118 887.335 664.795 885.222C669.086 882.757 672.904 878.615 676.138 872.913C677.531 870.425 678.426 867.69 678.772 864.859C680.193 853.95 674.536 841.91 669.54 833.721C668.417 831.877 667.196 830.012 665.906 828.179C662.734 823.672 659.241 819.399 655.457 815.393C649.4 808.997 640.35 804.732 628.57 802.706C623.606 801.88 618.582 801.467 613.55 801.47H613.539Z" fill="#17091D"/>
<path id="Vector_19" d="M628.014 805.943L625.017 822.724C611.886 818.426 599.496 819.703 599.496 819.703L610.632 804.91H608.634C615.112 804.517 621.614 804.863 628.014 805.943Z" fill="#9C398C"/>
<path id="Vector_20" d="M666.769 835.437C660.255 838.131 653.002 841.011 655.575 839.382C657.777 837.993 660.785 833.866 663.252 830.069C664.48 831.827 665.652 833.616 666.769 835.437Z" fill="#D969BD"/>
<path id="Vector_21" d="M675.541 864.452C675.249 866.863 674.49 869.193 673.306 871.313C665.131 885.717 655.866 884.364 655.866 884.364C655.866 884.364 658.439 867.532 653.617 851.273C656.073 856.223 660.005 865.404 659.5 872.728C658.856 882.063 671.599 870.935 675.541 864.452Z" fill="#9C398C"/>
</g>
<g id="body_3">
<path id="Vector_22" d="M470.403 989.312C425.524 989.312 393.5 983.785 374.538 979.148C362.097 976.101 355.801 973.574 355.539 973.468L354.631 973.105L354.529 972.127C354.507 971.945 352.629 953.679 353.116 928.305C353.563 904.872 356.179 870.385 366.09 839.167C366.454 838.076 366.741 837.083 367.01 836.152C368.1 832.439 369.066 828.628 369.88 824.81C375.966 796.374 373.906 768.083 371.104 749.374C368.063 729.05 363.514 715.294 363.474 715.156L363.151 714.181L399.684 678.519L523.345 648.872L559.046 665.792L595.63 702.774V703.443C595.63 703.523 595.662 711.778 595.593 722.188C595.499 737.37 595.197 757.018 594.307 764.418C593.279 772.952 595.078 795.879 598.239 814.487C599.939 824.519 601.872 832.457 603.867 837.443C604.063 837.93 604.252 838.447 604.43 838.974C610.774 857.436 613.876 910.192 613.985 912.428V912.497L612.205 973.047L612.074 973.341C611.293 975.087 606.145 976.916 596.767 978.796C579.291 982.279 548.444 985.501 507.576 988.112C494.986 988.905 482.473 989.312 470.403 989.312Z" fill="#7E4282"/>
<path id="Vector_23" d="M523.166 650.596L558.086 667.145L593.998 703.447C593.998 703.447 594.031 711.654 593.962 722.178C593.867 737.178 593.569 756.88 592.686 764.222C591.673 772.632 593.366 795.542 596.628 814.767C598.209 824.091 600.16 832.545 602.351 838.04C602.533 838.494 602.714 838.978 602.881 839.494C609.229 857.967 612.357 912.52 612.357 912.52L610.591 972.673C610.591 972.673 607.27 980.091 507.481 986.465C494.274 987.313 481.91 987.676 470.399 987.676C425.364 987.676 393.372 982.073 374.926 977.556C362.456 974.505 356.153 971.949 356.153 971.949C356.153 971.949 348.577 899.727 367.648 839.654C367.972 838.636 368.284 837.618 368.579 836.6C369.7 832.784 370.669 828.966 371.485 825.145C383.381 769.582 365.025 714.629 365.025 714.629L400.494 680L523.166 650.6M523.529 647.149L522.41 647.418L399.72 676.814L398.841 677.025L398.198 677.654L362.722 712.287L361.268 713.72L361.919 715.669C361.962 715.803 366.479 729.487 369.498 749.683C372.27 768.229 374.312 796.291 368.281 824.458C367.474 828.24 366.522 832.014 365.443 835.673V835.691C365.181 836.6 364.887 837.571 364.538 838.665C360.131 852.552 356.778 868.225 354.572 885.251C352.761 899.523 351.731 913.884 351.487 928.269C350.997 953.723 352.89 972.109 352.908 972.291L353.111 974.247L354.928 974.974C355.193 975.08 361.595 977.654 374.152 980.727C393.205 985.385 425.382 990.938 470.403 990.938C482.513 990.938 495.059 990.531 507.692 989.723C549.221 987.069 579.301 983.927 597.101 980.378C602.838 979.236 607.107 978.076 609.796 976.934C611.936 976.025 613.066 975.149 613.578 974L613.843 973.407L613.865 972.76L615.631 912.607V912.465V912.323C615.5 910.076 612.404 857.131 605.988 838.436C605.803 837.883 605.603 837.345 605.396 836.822C603.455 831.949 601.541 824.127 599.858 814.203C596.777 796.04 594.946 772.865 595.942 764.603C596.839 757.123 597.144 737.411 597.239 722.189C597.308 711.771 597.275 703.505 597.275 703.425V702.087L596.334 701.134L560.422 664.832L560.015 664.425L559.496 664.178L524.565 647.636L523.526 647.142L523.529 647.149Z" fill="#17091D"/>
<path id="Vector_24" d="M602.351 838.047C600.171 832.538 598.209 824.084 596.628 814.774L395.53 824.047C396.548 793.542 397.968 743.204 402.979 738.665C409.787 732.484 443.043 732.12 471.561 717.491C500.079 702.862 506.99 683.014 531.475 680.124C555.96 677.233 558.947 712.124 572.801 722.669C580.5 728.542 588.424 725.789 593.961 722.185C594.03 711.662 593.997 703.454 593.997 703.454L558.086 667.153L523.166 650.604L400.493 680L365.018 714.633C365.018 714.633 383.373 769.585 371.478 825.145L368.571 836.6C368.277 837.622 367.964 838.64 367.641 839.658C348.569 899.731 356.145 971.953 356.145 971.953C356.145 971.953 362.449 974.498 374.918 977.56C375.921 951.742 378.257 899.564 381.139 887.378C382.412 882.178 383.989 877.058 385.862 872.044C385.861 872.035 385.861 872.027 385.862 872.018C386.076 871.436 386.287 870.865 386.501 870.294C388.652 865.164 396.704 850.818 418.38 854.6C444.649 859.185 536.311 860.76 566.962 853.971C585.187 849.938 596.595 843.789 602.852 839.498C602.71 838.985 602.532 838.502 602.351 838.047Z" fill="#5C2C66"/>
<path id="Vector_25" d="M433.43 914.181C460.276 929.618 477.197 944.243 487.149 972.978C509.021 983.985 543.069 939.16 554.205 920.654C556.338 918.203 558.235 911.981 561.643 907.047C560.952 912.527 547.208 934.93 545.028 937.618C526.447 962.96 513.072 974.389 486.851 980.269C479.417 947.731 457.733 931.731 433.43 914.181Z" fill="#17091D"/>
</g>
<g id="corps">
<path id="Vector_26" d="M402.792 724.029C384.313 724.029 368.925 720.229 357.063 712.738C347.961 706.989 343.002 700.462 339.695 695.418C334.46 687.418 328.701 654.8 328.457 653.414L328.41 653.138L338.504 592.047L339.041 554.661L339.917 493.265L372.254 471.574L386.729 481.512L386.794 481.563C386.929 481.68 400.601 493.167 420.755 504.498C439.285 514.916 467.32 527.334 495.467 527.334C500.203 527.342 504.933 526.977 509.612 526.243C541.08 521.24 559.461 517.465 571.07 513.621C585.192 508.949 587.42 504.531 587.805 501.185C588.215 497.509 590.711 497.109 591.761 497.109C598.465 497.109 613.082 513.258 615.945 516.494L616.13 516.705L616.236 516.967C616.359 517.269 628.418 547.549 630.151 581.582C630.947 597.145 631.045 605.581 630.515 611.683C630.177 615.516 629.603 618.407 628.872 622.069C628.374 624.578 627.808 627.425 627.186 631.225C626.605 634.785 626.173 638.272 625.755 641.643C624.04 655.534 622.416 668.654 610.902 686.465C609.132 689.2 607.559 691.705 606.037 694.123C598.49 706.123 593.934 713.356 587.481 713.356C584.695 713.356 581.792 711.992 578.344 709.065C573.086 704.6 570.477 698.6 567.959 692.796C564.57 684.992 561.369 677.625 551.947 674.854C544.895 672.778 535.063 671.538 525.646 671.538C513.674 671.538 492.284 673.516 483.517 686.763C467.124 711.541 441.073 723.731 403.878 724.025L402.792 724.029Z" fill="#CE44A2"/>
<path id="Vector_27" d="M372.236 473.552L385.73 482.814C385.73 482.814 440.23 528.967 495.457 528.967C500.279 528.977 505.095 528.606 509.859 527.858C569.573 518.363 588.19 512.367 589.429 501.367C589.636 499.516 590.486 498.749 591.762 498.745C598.069 498.745 614.721 517.578 614.721 517.578C614.721 517.578 626.78 547.512 628.527 581.665C629.356 597.923 629.392 605.807 628.891 611.541C628.331 617.851 627.118 621.56 625.577 630.96C622.641 648.909 623.677 663.687 609.532 685.578C599.083 701.741 594.171 711.72 587.485 711.72C585.12 711.72 582.537 710.476 579.405 707.818C567.415 697.636 569.751 678.363 552.413 673.272C545.847 671.341 536.019 669.891 525.65 669.891C508.627 669.891 490.137 673.789 482.159 685.851C469.315 705.261 447.057 722.036 403.867 722.378H402.81C360.438 722.378 346.13 702.229 341.08 694.505C335.953 686.727 330.067 653.131 330.067 653.131L340.132 592.2L340.669 554.683L341.534 494.145L372.228 473.552M372.25 469.6L370.408 470.832L339.714 491.425L338.315 492.381L338.289 494.098L337.407 554.636L336.862 591.909L326.841 652.596L326.75 653.145L326.848 653.694C327.462 657.203 333.003 688.192 338.329 696.316C341.723 701.498 346.824 708.203 356.191 714.134C368.319 721.796 383.997 725.68 402.792 725.68H403.882C424.327 725.516 441.832 721.651 455.911 714.185C467.756 707.909 477.228 699.24 484.873 687.687C488.143 682.749 493.734 678.981 501.499 676.494C508.239 674.334 516.588 673.192 525.639 673.192C534.911 673.192 544.572 674.407 551.479 676.44C560.166 678.985 563.08 685.701 566.452 693.465C569.046 699.44 571.731 705.621 577.279 710.331C581.04 713.523 584.277 715.011 587.474 715.011C594.832 715.011 599.566 707.487 607.414 695.011C608.933 692.596 610.506 690.094 612.268 687.374C623.986 669.247 625.632 655.945 627.372 641.865C627.786 638.509 628.215 635.036 628.793 631.505C629.41 627.734 629.973 624.905 630.471 622.414C631.198 618.705 631.79 615.774 632.135 611.869C632.68 605.687 632.582 597.181 631.772 581.534C630.856 563.596 627.099 546.861 624.106 535.981C620.861 524.185 617.864 516.709 617.74 516.389L617.529 515.869L617.166 515.447C616.992 515.251 612.853 510.578 607.857 505.825C598.24 496.683 594.203 495.509 591.758 495.509C589.313 495.509 586.631 496.963 586.177 501.04C585.207 509.723 565.831 515.683 509.354 524.676C504.759 525.395 500.115 525.753 495.464 525.745C467.694 525.745 439.976 513.461 421.613 503.152C401.56 491.898 387.979 480.48 387.844 480.367L387.717 480.258L387.583 480.167L374.089 470.905L372.272 469.651L372.25 469.6Z" fill="#17091D"/>
<path id="Vector_28" d="M628.872 611.541C628.312 617.85 627.099 621.56 625.558 630.96C622.622 648.909 623.658 663.687 609.513 685.578C595.369 707.469 591.376 718 579.386 707.818C567.396 697.636 569.732 678.363 552.394 673.272C535.055 668.181 494.987 666.44 482.14 685.85C469.292 705.261 447.038 722.036 403.849 722.378C360.659 722.72 346.166 702.298 341.061 694.509C335.956 686.72 330.066 653.13 330.066 653.13L340.131 592.2L340.668 554.683L368.961 533.178C368.961 533.178 391.677 539.53 384.704 569.672C377.732 599.814 371.196 636.581 407.525 643.287C443.855 649.992 483.785 634.505 518.32 626.069C552.855 617.632 562.909 640.025 589.308 637.92C603.976 636.752 618.688 623.272 628.872 611.541Z" fill="#9C398C"/>
<path id="Vector_29" d="M338.484 688.785C346.841 696.08 362.464 704.661 389.805 704.618C437.322 704.545 442.899 692.363 465.36 663.552C487.822 634.741 515.984 623.6 539.15 631.709C562.316 639.818 567.217 642.727 576.936 669.454C583.113 686.498 594.485 694.225 601.897 697.589" stroke="#17091D" stroke-width="2.54545" stroke-linecap="round" stroke-linejoin="round"/>
<path id="Vector_30" d="M509.863 528.327C509.863 528.327 531.558 573.818 524.589 627.007" stroke="#17091D" stroke-width="2.54545" stroke-linecap="round" stroke-linejoin="round"/>
<path id="Vector_31" d="M330.586 656C390.173 631.636 394.02 538.309 394.02 538.309" stroke="#17091D" stroke-width="2.54545" stroke-linecap="round" stroke-linejoin="round"/>
<path id="Vector_32" d="M446.587 611.999C429.746 611.999 414.977 597.217 414.977 580.363C414.977 571.123 417.073 564.257 421.382 559.374C426.338 553.755 434.331 550.908 445.133 550.908C454.02 550.908 462.17 554.079 468.085 559.843C470.966 562.651 473.25 566.013 474.8 569.727C476.35 573.44 477.135 577.429 477.107 581.454C477.098 589.552 473.88 597.316 468.158 603.043C462.436 608.769 454.678 611.99 446.587 611.999Z" fill="#FBDAFA"/>
<path id="Vector_33" d="M445.133 552.363C462.937 552.363 475.653 565.389 475.653 581.454C475.653 585.274 474.902 589.057 473.441 592.587C471.98 596.116 469.839 599.323 467.14 602.024C464.441 604.726 461.237 606.869 457.71 608.331C454.184 609.793 450.404 610.545 446.587 610.545C430.535 610.545 416.43 596.429 416.43 580.363C416.43 564.298 422.97 552.363 445.133 552.363ZM445.133 549.454C433.896 549.454 425.539 552.469 420.292 558.414C415.736 563.574 413.523 570.752 413.523 580.363C413.523 588.785 417.135 597.232 423.432 603.538C429.728 609.843 438.172 613.454 446.587 613.454C455.064 613.444 463.191 610.07 469.185 604.071C475.179 598.072 478.55 589.938 478.56 581.454C478.592 577.236 477.771 573.055 476.148 569.162C474.524 565.269 472.132 561.744 469.113 558.8C462.937 552.774 454.417 549.454 445.133 549.454Z" fill="#17091D"/>
<path id="Vector_34" d="M457.799 583.069C458.82 576.389 454.638 570.207 448.454 569.251C442.27 568.294 436.432 572.949 435.411 579.629C434.39 586.309 438.593 592.505 444.77 593.454C450.947 594.403 456.778 589.749 457.799 583.069Z" fill="#D969BD"/>
<path id="Vector_35" d="M451.211 566.29C453.084 566.883 454.815 567.853 456.298 569.141C457.801 570.45 459.028 572.046 459.906 573.836C460.796 575.656 461.329 577.632 461.475 579.654C461.616 581.704 461.37 583.763 460.749 585.723C459.531 589.661 456.849 592.982 453.257 594.999C451.531 595.97 449.625 596.578 447.656 596.788C445.687 596.998 443.696 596.805 441.805 596.221C439.931 595.63 438.2 594.66 436.718 593.37C435.228 592.062 434.014 590.47 433.146 588.686C432.256 586.865 431.723 584.89 431.577 582.868C431.438 580.816 431.684 578.757 432.303 576.796C433.522 572.858 436.204 569.537 439.795 567.519C441.516 566.553 443.415 565.945 445.378 565.734C447.34 565.523 449.324 565.712 451.211 566.29ZM448.457 569.261C446.963 569.041 445.44 569.135 443.984 569.535C442.528 569.936 441.171 570.635 439.999 571.588C437.533 573.612 435.902 576.478 435.42 579.633C434.938 582.788 435.638 586.01 437.386 588.679C438.212 589.947 439.295 591.026 440.566 591.845C441.836 592.665 443.265 593.207 444.76 593.436C446.254 593.665 447.779 593.576 449.237 593.174C450.694 592.772 452.05 592.067 453.217 591.105C455.682 589.08 457.313 586.215 457.795 583.06C458.278 579.905 457.577 576.683 455.829 574.014C454.996 572.754 453.911 571.681 452.642 570.863C451.373 570.045 449.948 569.499 448.457 569.261Z" fill="#17091D"/>
</g>
<g id="arm 1.1">
<path id="Vector_36" d="M220.486 745.03C220.352 744.637 217.372 735.393 226.837 725.582C227.044 720.608 228.44 687.717 229.559 674.808C229.817 671.815 230.013 667.67 230.238 662.873C231.103 644.564 232.287 619.488 238.773 612.808C242.137 609.346 258.702 598.32 288.012 580.033C308.278 567.397 327.401 555.815 327.59 555.699L328.476 555.164L361.492 576.982L355.225 600.117C355.068 601.299 353.666 611.862 351.682 625.426L351.664 625.546C347.958 650.88 342.737 683.215 338.922 693.397C336.266 700.495 332.629 708.393 329.421 715.364C325.232 724.455 321.275 733.066 320.748 737.16C320.588 738.488 320.503 739.823 320.494 741.16C320.446 743.39 320.385 746.164 317.144 746.164C315.781 746.164 313.794 745.622 310.368 744.56C307.156 743.557 297.745 742.571 285.806 741.99C278.841 741.622 271.462 741.455 264.489 741.455C254.214 741.455 239.939 741.84 230.26 743.673C226.848 744.32 224.356 745.084 222.841 745.942L221.122 746.924L220.486 745.03Z" fill="#7E4282"/>
<path id="Vector_37" d="M328.437 557.09L359.608 577.683L353.62 599.781C353.62 599.781 352.167 610.756 350.048 625.294C346.557 649.149 341.223 682.581 337.393 692.807C331.217 709.261 320.102 729.345 319.129 736.938C318.464 742.109 319.572 744.494 317.145 744.494C316.008 744.494 314.093 743.971 310.856 742.963C307.447 741.901 297.75 740.901 285.887 740.32C279.198 739.989 271.819 739.792 264.491 739.792C251.411 739.792 238.505 740.421 229.956 742.04C226.519 742.691 223.779 743.494 222.035 744.494C222.035 744.494 219.038 735.643 228.444 726.269C228.444 726.269 229.97 688.974 231.187 674.938C232.405 660.901 232.223 621.898 239.947 613.949C243.915 609.861 267.197 594.949 288.877 581.421C309.369 568.643 328.437 557.09 328.437 557.09ZM328.513 553.218L326.744 554.29C326.555 554.407 307.426 565.992 287.141 578.636C242.814 606.298 238.883 610.334 237.593 611.661C231.195 618.247 229.734 638.712 228.6 662.789C228.375 667.567 228.179 671.698 227.921 674.658C226.831 687.156 225.501 718.294 225.221 724.894C215.608 735.272 218.78 745.127 218.939 745.556L220.207 749.309L223.652 747.349C224.582 746.821 226.537 746.029 230.555 745.265C238.011 743.854 250.063 743.083 264.483 743.083C271.441 743.083 278.784 743.265 285.72 743.607C299.854 744.301 307.567 745.385 309.875 746.105C313.537 747.243 315.553 747.785 317.141 747.785C320.186 747.785 321.305 745.738 321.646 744.876C322.068 743.785 322.093 742.643 322.126 741.2C322.135 739.927 322.216 738.656 322.37 737.392C322.86 733.545 326.77 725.054 330.904 716.069C334.123 709.072 337.771 701.16 340.453 693.992C344.319 683.636 349.58 651.192 353.282 625.778L353.318 625.545C355.244 612.374 356.621 602.05 356.832 600.454L362.765 578.545L363.383 576.258L361.41 574.956L330.239 554.363L328.506 553.225L328.513 553.218Z" fill="#17091D"/>
<path id="Vector_38" d="M352.121 610.909L350.047 625.306C346.555 649.16 341.221 682.593 337.392 692.818C331.215 709.273 320.101 729.356 319.127 736.949C318.153 744.542 320.998 746.127 310.854 742.975C307.446 741.913 297.748 740.913 285.886 740.331C277.46 733.306 265.368 722.331 266.93 718.4C269.303 712.433 280.908 719.273 300.76 718.4C320.613 717.527 347.761 606.909 347.761 606.909L352.121 610.909Z" fill="#5C2C66"/>
<path id="Vector_39" d="M306.43 603.564C306.43 603.564 292.802 633.633 276.187 640.771C275.514 641.062 274.827 641.316 274.126 641.531C273.366 641.768 272.591 641.951 271.805 642.08C253.275 645.091 239.664 648.124 239.937 661.153C240.209 674.182 241.535 719.396 238.872 728.425C237.873 731.804 234.182 736.942 229.945 742.051C226.508 742.702 223.768 743.506 222.024 744.506C222.024 744.506 219.027 735.655 228.434 726.28C228.434 726.28 229.96 688.985 231.177 674.949C232.394 660.913 232.223 621.898 239.948 613.949C243.915 609.862 267.198 594.949 288.878 581.422L306.43 603.564Z" fill="#5C2C66"/>
<path id="Vector_40" d="M277.52 634.022C277.006 636.446 276.557 638.749 276.172 640.931C273.425 656.491 271.553 672.193 270.565 687.964C270.563 688.016 270.541 688.065 270.504 688.102C270.467 688.135 270.419 688.153 270.369 688.153C270.32 688.152 270.274 688.132 270.238 688.098C270.221 688.081 270.207 688.06 270.198 688.036C270.188 688.013 270.184 687.989 270.184 687.964C270.213 682.145 270.039 676.527 270.515 670.534C271.391 659.548 272.825 648.614 274.813 637.774C274.749 635.748 275.138 633.733 275.954 631.876C275.998 631.773 276.066 631.681 276.15 631.607C276.235 631.533 276.335 631.479 276.443 631.449C276.552 631.419 276.665 631.413 276.776 631.432C276.887 631.451 276.992 631.495 277.084 631.56C277.207 631.652 277.3 631.779 277.353 631.924C277.672 632.745 277.734 633.454 277.52 634.022Z" fill="#17091D"/>
<path id="Vector_41" d="M313.914 565.956C307.337 595.662 292.394 664.138 291.75 675.774C291.213 685.378 316.908 693.461 335.35 698.014" stroke="#17091D" stroke-width="2.54545" stroke-linecap="round" stroke-linejoin="round"/>
<path id="Vector_42" d="M229.094 711.509C232.607 708.386 236.8 706.418 240.408 709.56C245.825 714.287 246.73 730.396 246.752 740.247" stroke="#17091D" stroke-width="2.54545" stroke-linecap="round" stroke-linejoin="round"/>
<path id="Vector_43" d="M373.741 548.909C373.741 548.909 374.399 601.029 353.395 614.364C353.395 614.364 331.813 594.076 330.069 574.4C328.325 554.724 373.741 548.909 373.741 548.909Z" fill="#5C2C66" stroke="#17091D" stroke-width="3.27273" stroke-miterlimit="10"/>
</g>
<g id="shoulder">
<path id="Vector_44" d="M677.508 606.618C676.229 605.753 646.021 585.135 633.392 560.626C632.378 558.658 631.306 556.669 630.205 554.709C618.622 534.066 605.891 520.378 605.764 520.244L605.426 519.88L596.949 470.498L598.439 470.135C600.366 469.751 602.328 469.575 604.292 469.611C616.369 469.611 647.282 475.338 673.42 528.375C673.783 529.076 674.114 529.789 674.459 530.513C694.264 571.851 692.626 590.876 687.746 599.527C684.186 605.869 678.921 606.829 678.696 606.869L678.053 606.978L677.508 606.618Z" fill="#CE44A2"/>
<path id="Vector_45" d="M604.277 471.273C616.357 471.273 646.289 477.091 671.937 529.124C672.281 529.822 672.624 530.528 672.968 531.244C692.545 572.105 690.932 590.516 686.306 598.753C683.087 604.484 678.408 605.298 678.408 605.298C678.408 605.298 647.412 584.331 634.829 559.913C633.776 557.864 632.704 555.874 631.614 553.942C619.787 532.851 606.94 519.16 606.94 519.16L599.604 476.429L598.805 471.771C600.606 471.411 602.44 471.244 604.277 471.273ZM604.277 468C602.184 467.962 600.093 468.153 598.042 468.571L595.062 469.298L595.582 472.32L596.381 476.978L603.717 519.709L603.884 520.68L604.556 521.407C604.68 521.542 617.273 535.105 628.762 555.553C629.852 557.491 630.916 559.465 631.923 561.418C637.325 571.905 646.492 582.938 659.173 594.214C664.695 599.165 670.509 603.78 676.584 608.033L677.674 608.76L678.967 608.538C679.603 608.429 685.296 607.284 689.169 600.389C692.378 594.676 693.319 586.749 691.963 576.825C690.256 564.305 684.86 548.505 675.93 529.862C675.624 529.222 675.29 528.534 674.88 527.705C663.507 504.629 650.028 487.894 634.815 477.974C622.222 469.756 611.264 468.033 604.295 468.033L604.277 468Z" fill="#17091D"/>
<path id="Vector_46" d="M671.952 529.091C640.705 484.876 610.214 477.556 599.62 476.364L598.82 471.706C598.82 471.706 638.936 462.109 671.952 529.091Z" fill="#D969BD"/>
<path id="Vector_47" d="M688.998 590C669.567 591.091 669.014 589.687 649.147 560.546C630.49 533.16 616.56 527.291 612.93 526.167C612.625 526.068 612.315 525.987 612 525.924" stroke="#17091D" stroke-width="2.54545" stroke-linecap="round" stroke-linejoin="round"/>
<path id="Vector_48" d="M686.321 598.735C683.102 604.466 678.423 605.28 678.423 605.28C678.423 605.28 647.427 584.313 634.844 559.895C633.791 557.846 632.719 555.856 631.629 553.924C640.836 566.157 655.522 584.233 665.135 588.927C672.428 592.469 680.243 596.029 686.321 598.735Z" fill="#9C398C"/>
<path id="Vector_49" d="M611.23 538.181C609.591 538.181 607.342 537.894 605.911 536.534C604.257 534.963 601.398 527.632 596.885 515.745C594.829 510.33 592.5 504.196 591.864 503.305C589.939 500.607 589.455 499.032 589.404 498.861L589.328 498.592L591.312 466.901L593.586 468.189C594.051 468.45 605.031 474.763 611.361 487.058C616.516 497.069 627.74 525.12 623.663 531.923C621.083 536.232 615.412 538.181 611.23 538.181Z" fill="#CE44A2"/>
<path id="Vector_50" d="M592.781 469.625C592.781 469.625 603.732 475.807 609.908 487.807C616.085 499.807 625.532 525.625 622.262 531.08C620.049 534.771 615.039 536.534 611.231 536.534C609.414 536.534 607.87 536.131 607.038 535.338C604.458 532.887 595.012 504.887 593.195 502.342C591.378 499.796 590.979 498.4 590.979 498.4L592.795 469.603M589.86 464.182L589.533 469.4L587.716 498.196L587.68 498.76L587.836 499.302C587.927 499.625 588.49 501.371 590.514 504.214C591.179 505.305 593.493 511.407 595.357 516.316C600.901 530.913 603.038 536.051 604.804 537.709C606.62 539.443 609.313 539.807 611.249 539.807C616.031 539.807 622.149 537.625 625.085 532.753C626.291 530.742 626.538 527.702 625.812 523.193C625.093 519.026 624.068 514.918 622.745 510.902C620.114 502.563 616.205 492.905 612.815 486.298C606.275 473.571 594.874 467.025 594.39 466.753L589.845 464.182H589.86Z" fill="#17091D"/>
</g>
<g id="shoulder_2">
<path id="Vector_51" d="M360.255 457.974C357.734 456.795 354.951 456.286 352.177 456.498C349.402 456.71 346.729 457.636 344.417 459.185C336.318 464.545 334.051 469.527 341.543 474.127C349.035 478.727 363.11 484.182 368.971 511.818C374.831 539.454 385.964 545.127 394.041 538.291C402.118 531.454 402.99 524.505 397.823 510.709C392.657 496.913 394.473 487.564 385.75 479.327C377.026 471.091 360.255 457.974 360.255 457.974Z" fill="#CE44A2" stroke="#17091D" stroke-width="3.27273" stroke-miterlimit="10"/>
<path id="Vector_52" d="M272.917 628.644C264.88 628.644 257.104 626.804 250.241 625.186C248.646 624.822 247.138 624.458 245.641 624.116C236.3 622.044 230.636 616.844 227.816 607.72C225.196 599.251 224.942 587.244 226.988 568.782C228.902 551.495 233.448 535.611 240.5 521.575C248.646 505.36 259.902 492.218 273.952 482.506C276.998 480.407 280.156 478.478 283.413 476.727C294.313 470.851 305.577 467.869 316.876 467.869C323.107 467.86 329.305 468.762 335.276 470.546C345.601 473.703 354.523 480.326 360.538 489.298C372.499 507.04 374.319 529.498 374.345 541.298C374.375 544.783 374.215 548.267 373.865 551.735L373.705 553.08L372.354 553.175C353.7 554.466 340.322 572.051 326.16 590.666C320.237 598.451 314.115 606.502 307.604 613.164C297.424 623.582 286.077 628.644 272.917 628.644Z" fill="#CE44A2"/>
<path id="Vector_53" d="M316.88 469.488C322.953 469.487 328.993 470.374 334.81 472.12C344.781 475.156 353.394 481.552 359.187 490.222C370.726 507.338 372.688 528.848 372.71 541.313C372.739 544.732 372.583 548.151 372.241 551.553C344.57 553.455 327.962 590 306.431 612.029C295.062 623.666 283.668 627.008 272.902 627.008C263.274 627.008 254.15 624.335 245.979 622.52C228.67 618.68 224.775 603.455 228.59 568.964C232.063 537.597 245.303 504.288 274.86 483.851C277.86 481.78 280.971 479.877 284.18 478.149C296.232 471.655 307.375 469.488 316.88 469.488ZM316.88 466.215C305.304 466.215 293.783 469.262 282.639 475.269C279.326 477.054 276.113 479.02 273.015 481.157C258.747 491.029 247.294 504.364 239.025 520.837C231.885 535.051 227.282 551.12 225.345 568.604C223.274 587.298 223.551 599.513 226.239 608.204C229.211 617.804 235.435 623.535 245.271 625.717C246.76 626.044 248.261 626.4 249.852 626.778C256.799 628.418 264.673 630.28 272.902 630.28C286.538 630.28 298.27 625.058 308.767 614.317C315.35 607.586 321.505 599.495 327.457 591.669C341.39 573.357 354.547 556.058 372.463 554.818L375.162 554.629L375.486 551.942C375.842 548.409 376.005 544.86 375.976 541.309C375.973 533.085 375.13 524.882 373.462 516.829C371.126 505.88 367.234 496.313 361.893 488.393C355.665 479.103 346.425 472.249 335.733 468.986C329.617 467.149 323.266 466.216 316.88 466.215Z" fill="#17091D"/>
<path id="Vector_54" d="M298.128 488.262C307.938 478.04 320.437 480.415 325.36 493.695C326.468 496.684 326.501 499.6 324.528 501.778C306.917 522.4 275.842 534.931 292.482 495.676C293.273 493.836 294.392 492.155 295.785 490.716C296.584 489.887 297.365 489.062 298.128 488.262Z" fill="#D969BD"/>
<path id="Vector_55" d="M372.706 541.312C372.735 544.732 372.578 548.15 372.237 551.552C344.569 553.454 327.961 590 306.43 612.029C284.899 634.058 263.288 626.363 245.979 622.52C228.669 618.676 224.774 603.454 228.589 568.963C232.063 537.596 245.303 504.287 274.86 483.851C269.243 493.585 259.872 511.803 254.186 533.552C245.659 566.181 245.604 600.167 272.353 604.098C299.102 608.029 320.149 579.636 334.683 564.363C346.586 551.858 361.341 543.952 372.706 541.312Z" fill="#9C398C"/>
<path id="Vector_56" d="M252.891 592.989C257.139 594.192 261.214 595.937 265.016 598.182C261.814 597.212 258.812 596.23 256.012 595.237C253.746 594.489 251.345 594.241 248.975 594.509C245.941 594.778 241.683 597.782 239.35 599.331C239.337 599.335 239.323 599.335 239.31 599.331C239.303 599.331 239.296 599.328 239.289 599.324C239.283 599.321 239.278 599.315 239.274 599.309C239.271 599.303 239.27 599.297 239.27 599.291C239.27 599.285 239.271 599.279 239.274 599.273C239.271 599.267 239.27 599.26 239.27 599.253C239.27 599.246 239.271 599.239 239.274 599.233C243.001 595.085 247.541 593.004 252.891 592.989Z" fill="#17091D"/>
<path id="Vector_57" d="M227.953 600.792C231.376 603.061 235.22 605.214 238.882 606.338C248.812 609.4 287.086 624.363 302.927 589.378C318.768 554.392 373.741 542.363 373.741 542.363" stroke="#17091D" stroke-width="2.54545" stroke-linecap="round" stroke-linejoin="round"/>
</g>
<g id="arm 1.2">
<path id="Vector_58" d="M254.749 888.302C251.566 888.302 248.852 887.989 246.69 887.375C245.293 886.999 243.972 886.384 242.784 885.557L242.337 885.229L242.178 884.702C242.083 884.393 232.898 853.946 227.172 842.637C221.275 830.997 211.69 777.299 212.966 772C213.62 769.255 213.601 768.269 213.587 768.066C212.608 764.846 212.191 761.482 212.355 758.12C212.795 750.848 216.443 745.757 222.91 743.375C224.748 742.702 227.506 742.08 231.103 741.531C239.485 740.248 252.057 739.379 265.62 739.146C267.923 739.106 270.252 739.084 272.523 739.084C275.989 739.084 279.426 739.131 282.696 739.222C291.983 739.473 300.082 740.084 306.121 740.986C315.847 742.44 318.365 744.328 319.419 745.619C328.24 756.459 325.98 804.408 324.6 824.528C324.051 832.528 323.731 839.211 323.452 845.095C322.972 855.248 322.652 861.957 321.537 866.633C320.298 871.844 318.02 874.488 313.907 875.466C312.432 875.829 309.779 876.597 306.422 877.582C295.885 880.68 278.224 885.862 263.858 887.662C260.837 888.062 257.795 888.276 254.749 888.302Z" fill="#CE44A2"/>
<path id="Vector_59" d="M272.509 740.727C275.924 740.727 279.325 740.771 282.642 740.862C300.13 741.334 315.262 743.12 318.14 746.658C324.873 754.927 325.407 788.749 322.961 824.414C320.516 860.08 322.547 871.72 313.537 873.869C307.36 875.324 282.537 883.669 263.662 886.033C260.709 886.425 257.735 886.636 254.756 886.662C252.186 886.719 249.619 886.428 247.126 885.796C245.913 885.478 244.763 884.951 243.729 884.24C243.729 884.24 234.475 853.48 228.618 841.909C222.761 830.338 213.427 776.971 214.525 772.378C215.509 768.342 215.146 767.636 215.146 767.636C215.146 767.636 209.253 750.153 223.463 744.934C225.239 744.284 227.946 743.691 231.34 743.171C239.794 741.876 252.5 741.029 265.62 740.804C267.909 740.764 270.213 740.745 272.523 740.745M272.523 737.473C270.227 737.473 267.891 737.473 265.58 737.531C251.966 737.767 239.311 738.644 230.86 739.938C227.15 740.505 224.291 741.153 222.354 741.862C218.401 743.316 215.389 745.709 213.395 748.978C211.776 751.734 210.862 754.846 210.731 758.04C210.564 761.518 210.979 765 211.959 768.342C211.868 769.457 211.675 770.561 211.382 771.64C211.204 772.367 210.833 773.934 212.239 784.025C213.078 790.047 214.339 797.553 215.789 805.16C217.497 814.127 221.889 835.804 225.737 843.407C231.398 854.593 240.543 884.898 240.634 885.204L240.953 886.265L241.854 886.913C243.194 887.847 244.687 888.54 246.265 888.96C248.609 889.629 251.388 889.953 254.771 889.953C257.886 889.925 260.995 889.706 264.083 889.298C278.58 887.48 296.311 882.276 306.906 879.164C310.241 878.185 312.875 877.411 314.31 877.069C320.353 875.614 322.198 870.942 323.129 867.025C324.28 862.2 324.582 855.433 325.087 845.185C325.367 839.309 325.683 832.647 326.235 824.654C327.547 805.505 327.906 788.378 327.271 775.12C326.5 759.084 324.346 749.105 320.687 744.607C319.361 742.982 316.538 740.916 306.368 739.393C300.264 738.48 292.096 737.862 282.751 737.611C279.452 737.52 276.011 737.473 272.531 737.473H272.523Z" fill="#17091D"/>
<path id="Vector_60" d="M263.661 886.04C257.085 886.865 251.235 886.967 247.144 885.804C245.93 885.485 244.781 884.958 243.747 884.247C243.747 884.247 234.493 853.487 228.636 841.916C222.779 830.345 213.445 776.978 214.542 772.385C215.508 768.342 215.145 767.636 215.145 767.636C215.145 767.636 209.252 750.153 223.462 744.935C225.238 744.284 227.945 743.691 231.339 743.171C231.052 758.371 231.066 798.611 238.882 823.593C246.951 849.371 259.646 877.396 263.661 886.04Z" fill="#9C398C"/>
<path id="Vector_61" d="M287.086 798.433C286.912 814.869 282.083 824.251 282.083 824.251C283.638 803.502 271.808 761.211 265.609 740.804C271.31 740.705 277.087 740.727 282.632 740.88C284.35 757.356 287.217 786.876 287.086 798.433Z" fill="#D969BD"/>
<path id="Vector_62" d="M215.191 767.855C232.188 763.811 289.889 752.655 324.101 777.837" stroke="#17091D" stroke-width="2.54545" stroke-linecap="round" stroke-linejoin="round"/>
<path id="Vector_63" d="M269.803 915.916C268.487 915.916 267.187 915.894 265.933 915.854C262.239 915.765 258.557 915.4 254.917 914.763C249.965 913.847 246.248 911.44 243.868 907.607C238.443 898.88 242.019 885.887 242.175 885.338L242.495 884.196L243.679 884.149C243.766 884.149 252.399 883.785 262.601 883.16C274.428 882.432 283.362 881.64 289.157 880.825C303.553 878.796 320.895 870.385 321.069 870.28L321.796 869.916L322.522 870.28C325.091 871.545 327.246 875.04 328.245 879.632C329.093 883.502 329.067 887.512 328.169 891.37C327.272 895.228 325.525 898.837 323.056 901.934C318.642 907.411 308.523 910.694 300.82 912.48C291.417 914.665 280.11 915.916 269.803 915.916Z" fill="#CE44A2"/>
<path id="Vector_64" d="M321.783 871.781C326.87 874.287 330.867 889.636 321.783 900.909C314.702 909.694 289.301 914.283 269.801 914.283C268.501 914.283 267.229 914.263 265.986 914.221C262.374 914.136 258.774 913.785 255.213 913.17C236.967 909.796 243.743 885.796 243.743 885.796C243.743 885.796 252.376 885.432 262.702 884.807C271.88 884.236 282.402 883.44 289.381 882.458C304.213 880.367 321.783 871.781 321.783 871.781ZM321.783 868.145L320.33 868.847C320.127 868.949 303.021 877.236 288.905 879.225C283.157 880.032 274.267 880.814 262.477 881.549C252.303 882.178 243.674 882.53 243.583 882.534L241.214 882.629L240.571 884.912C240.408 885.487 236.647 899.152 242.45 908.49C245.084 912.727 249.168 915.399 254.592 916.389C258.314 917.031 262.079 917.396 265.856 917.479C267.124 917.523 268.442 917.545 269.776 917.545C280.2 917.545 291.641 916.276 301.161 914.065C312.736 911.378 320.523 907.64 324.298 902.952C326.911 899.669 328.761 895.844 329.712 891.755C330.663 887.666 330.691 883.417 329.795 879.316C328.676 874.225 326.209 870.327 323.2 868.847L321.747 868.138L321.783 868.145Z" fill="#17091D"/>
<path id="Vector_65" d="M265.986 914.222C262.374 914.137 258.773 913.786 255.213 913.171C236.966 909.797 243.743 885.797 243.743 885.797C243.743 885.797 252.375 885.433 262.701 884.808C262.262 885.688 258.61 894.037 265.986 914.222Z" fill="#9C398C"/>
</g>
<g id="glove 1">
<path id="Vector_66" d="M327.777 993.519C323.479 993.519 319.45 992.276 316.212 991.276C314.061 990.61 312.216 990.039 310.977 990.039C310.717 990.026 310.458 990.07 310.217 990.167C308.502 991.029 304.793 991.949 299.528 991.949C292.988 991.949 282.052 990.527 267.213 983.752C256.589 978.901 251.096 965.396 250.885 943.607C250.729 927.727 253.588 912.999 253.617 912.854C253.691 912.483 253.891 912.149 254.183 911.909C254.476 911.669 254.842 911.538 255.22 911.538C255.279 911.534 255.338 911.534 255.398 911.538C255.456 911.538 261.556 912.199 270.908 912.199C276.744 912.199 282.604 911.949 288.319 911.472C306.719 909.887 321.383 901.941 321.535 901.861C321.795 901.72 322.088 901.651 322.384 901.662C322.679 901.674 322.966 901.765 323.214 901.927C323.821 902.323 338.136 911.698 343.441 916.872C343.615 917.043 343.804 917.236 343.949 917.392C346.885 920.512 348.055 924.025 349.189 927.425C350.006 929.879 350.776 932.196 352.172 934.159C354.279 937.123 356.481 943.978 358.606 950.607C360.172 955.487 361.793 960.53 363.039 962.781L363.213 963.083C363.959 964.262 364.397 965.61 364.485 967.002C364.573 968.395 364.31 969.787 363.718 971.05C362.236 974.363 358.933 976.77 354.889 977.494C352.462 977.927 348.851 981.032 345.355 984.039C340.461 988.247 334.913 993.014 329.554 993.461C328.969 993.494 328.37 993.519 327.777 993.519Z" fill="#CE44A2"/>
<path id="Vector_67" d="M322.328 903.272C322.328 903.272 337.058 912.898 342.311 918.021C342.471 918.178 342.628 918.338 342.78 918.498C347.547 923.567 347.344 930.134 350.853 935.083C354.363 940.032 358.651 958.181 361.623 963.552C361.695 963.687 361.768 963.811 361.841 963.916C364.816 968.763 361.041 974.705 354.614 975.854C348.187 977.003 338.151 991.069 329.431 991.796C328.883 991.843 328.341 991.861 327.789 991.861C320.842 991.861 314.531 988.381 310.988 988.381C310.475 988.364 309.965 988.467 309.499 988.683C308.133 989.371 304.775 990.294 299.54 990.294C292.415 990.294 281.791 988.585 267.904 982.243C243.797 971.24 255.231 913.152 255.231 913.152C255.231 913.152 261.353 913.821 270.92 913.821C275.949 913.821 281.929 913.636 288.473 913.072C307.46 911.436 322.332 903.254 322.332 903.254M322.332 899.981C321.783 899.982 321.243 900.121 320.762 900.385C320.504 900.523 306.145 908.254 288.193 909.803C282.521 910.291 276.708 910.531 270.92 910.531C261.673 910.531 255.66 909.887 255.584 909.883C255.463 909.868 255.342 909.861 255.22 909.861C254.465 909.863 253.733 910.126 253.149 910.607C252.566 911.088 252.166 911.756 252.019 912.498C250.153 922.754 249.227 933.16 249.254 943.585C249.349 953.152 250.49 961.305 252.648 967.814C255.507 976.447 260.184 982.298 266.542 985.2C281.646 992.109 292.822 993.545 299.533 993.545C304.18 993.545 308.394 992.818 310.85 991.636H310.981C311.966 991.636 313.797 992.203 315.734 992.8C319.076 993.832 323.236 995.116 327.782 995.116C328.428 995.116 329.072 995.091 329.696 995.04C335.582 994.549 341.341 989.585 346.41 985.221C349.582 982.494 353.179 979.403 355.166 979.04C359.744 978.221 363.494 975.461 365.198 971.654C365.89 970.148 366.198 968.494 366.094 966.839C365.99 965.184 365.477 963.582 364.602 962.174V962.152C364.562 962.083 364.522 962.021 364.486 961.952V961.927C363.319 959.814 361.724 954.847 360.18 950.04C357.917 942.981 355.777 936.316 353.52 933.145C352.267 931.381 351.533 929.178 350.755 926.843C349.622 923.443 348.339 919.571 345.164 916.214C344.967 916.007 344.8 915.825 344.615 915.654C339.198 910.367 324.752 900.909 324.137 900.509C323.598 900.164 322.968 899.987 322.328 900L322.332 899.981Z" fill="#17091D"/>
<path id="Vector_68" d="M354.595 975.876C348.168 977.022 338.132 991.091 329.412 991.818C320.692 992.545 312.699 987.091 309.48 988.705C306.261 990.32 291.989 993.272 267.885 982.265C243.782 971.258 255.212 913.174 255.212 913.174C255.212 913.174 269.462 914.731 288.454 913.094C307.445 911.458 322.327 903.272 322.327 903.272C322.327 903.272 337.057 912.898 342.311 918.022C342.47 918.178 342.627 918.338 342.779 918.498C339.967 917.225 326.164 911.225 317.924 912.709C308.72 914.352 286.695 920.672 278.269 921.331C269.844 921.989 266.686 934.28 267.904 947.407C269.121 960.534 265.556 980.334 284.958 980.978C304.36 981.622 312.43 978.098 320.565 980.043C328.7 981.989 344.222 986.552 361.622 963.552C361.694 963.687 361.767 963.811 361.84 963.916C364.797 968.785 361.022 974.727 354.595 975.876Z" fill="#9C398C"/>
<path id="Vector_69" d="M333.754 966.135C333.754 966.135 331.741 955.065 341.813 944" stroke="#17091D" stroke-width="3.22182" stroke-linecap="round" stroke-linejoin="round"/>
<path id="Vector_70" d="M336.777 953.486C336.777 953.486 353.905 964.552 347.859 981.152" stroke="#17091D" stroke-width="3.22182" stroke-linecap="round" stroke-linejoin="round"/>
<path id="Vector_71" d="M307.612 962.182C307.612 962.182 306.198 980.571 311.245 989.273" stroke="#17091D" stroke-width="3.88" stroke-linecap="round" stroke-linejoin="round"/>
<path id="Vector_72" d="M286.417 970.545C286.417 970.545 285.393 987.596 291.947 991.519" stroke="#17091D" stroke-width="3.19636" stroke-linecap="round" stroke-linejoin="round"/>
<path id="Vector_73" d="M272.226 974.64C272.226 974.64 271.198 985.407 277.778 987.883" stroke="#17091D" stroke-width="2.54545" stroke-linecap="round" stroke-linejoin="round"/>
</g>
<g id="belt">
<path id="Vector_74" d="M504.646 852.945C503.777 852.945 502.92 852.945 502.066 852.92C498.927 852.865 495.726 852.778 492.55 852.665C477.227 852.146 461.939 850.857 446.745 848.803C439.754 847.861 433.567 846.88 428.106 846.01C424.698 845.469 421.479 844.956 418.499 844.523C411.382 843.494 401.884 841.054 395.173 839.185C380.567 835.116 362.452 829.065 359.81 826.883C356.682 824.29 357.092 807.378 357.151 805.454C357.325 799.545 358.211 784.84 362.648 775.927C363.501 774.219 364.953 772.886 366.727 772.182C368.5 771.479 370.471 771.454 372.262 772.112C376.8 773.781 386.145 777.13 397.735 780.84C418.06 787.352 436.35 792.167 452.104 795.152C463.189 797.254 472.905 798.403 480.975 798.57C482.203 798.596 483.463 798.607 484.724 798.607C487.613 798.607 490.628 798.541 493.691 798.407C513.78 797.541 533.705 794.021 546.887 791.221C556.522 789.178 566.064 786.763 573.752 784.421C579.02 782.818 583.14 781.327 585.062 780.327C586.879 779.392 588.372 778.541 589.706 777.781C592.885 775.996 594.981 774.818 596.972 774.818C599.185 774.818 600.635 776.305 601.532 777.425C603.894 780.363 604.606 795.461 604.802 804.203C604.857 806.56 605.307 827.338 603.291 830.869C602.971 831.432 602.201 832.756 594.026 835.876C588.841 837.847 581.887 840.065 574.446 842.112C564.974 844.723 554.826 847.032 545.154 848.796C530.094 851.552 516.458 852.945 504.646 852.945Z" fill="#CE44A2"/>
<path id="Vector_75" d="M369.585 773.269C370.305 773.265 371.021 773.388 371.699 773.633C376.75 775.487 385.913 778.756 397.238 782.382C413.003 787.433 432.95 793.171 451.8 796.742C462.137 798.702 472.146 800.015 480.943 800.189C482.197 800.216 483.459 800.229 484.729 800.229C487.703 800.229 490.715 800.161 493.765 800.025C511.99 799.273 531.083 796.251 547.233 792.822C557.89 790.56 567.26 788.095 574.236 785.985C579.813 784.287 583.864 782.796 585.823 781.778C591.756 778.695 594.721 776.462 596.988 776.462C598.165 776.462 599.168 777.062 600.258 778.458C603.528 782.545 604.255 825.956 601.889 830.069C600.872 831.855 589.714 836.229 574.029 840.549C565.378 842.931 555.346 845.276 544.879 847.2C531.522 849.629 517.451 851.309 504.636 851.309C503.778 851.309 502.931 851.302 502.092 851.287C498.825 851.229 495.663 851.144 492.606 851.033C474.076 850.371 459.219 848.851 446.96 847.185C435.621 845.658 426.497 844.033 418.729 842.905C412.629 842.025 404.178 839.996 395.607 837.611C379.507 833.127 362.987 827.389 360.847 825.611C357.965 823.225 357.126 790.673 364.117 776.644C364.624 775.625 365.405 774.769 366.373 774.171C367.34 773.572 368.455 773.256 369.592 773.258M369.592 769.985C367.846 769.978 366.133 770.46 364.648 771.379C363.163 772.298 361.965 773.615 361.192 775.182C356.614 784.385 355.705 799.375 355.524 805.389C355.362 810.016 355.495 814.648 355.923 819.258C356.57 825.509 357.678 827.211 358.776 828.12C359.346 828.593 360.854 829.836 371.936 833.669C378.759 836.025 387.072 838.604 394.742 840.742C401.5 842.622 411.07 845.084 418.275 846.124C421.243 846.553 424.452 847.065 427.86 847.607C433.328 848.476 439.526 849.462 446.535 850.407C461.783 852.467 477.124 853.759 492.5 854.28C495.694 854.393 498.906 854.48 502.045 854.538C502.895 854.538 503.775 854.56 504.654 854.56C516.564 854.56 530.298 853.16 545.482 850.396C555.215 848.625 565.392 846.302 574.912 843.684C582.404 841.618 589.409 839.385 594.637 837.396C602.703 834.324 604.084 832.829 604.745 831.669C605.406 830.509 606.028 828.473 606.365 820.975C606.58 816.247 606.616 810.265 606.467 804.156C606.311 797.84 605.966 791.858 605.493 787.313C604.694 779.647 603.739 777.535 602.823 776.404C602.183 775.607 600.24 773.185 596.988 773.185C594.564 773.185 592.315 774.451 588.915 776.36C587.592 777.087 586.091 777.949 584.318 778.873C583.45 779.324 580.638 780.615 573.284 782.851C565.654 785.178 556.149 787.578 546.557 789.618C533.437 792.404 513.606 795.905 493.63 796.767C490.593 796.902 487.599 796.967 484.736 796.967C483.486 796.967 482.233 796.967 481.019 796.927C473.026 796.764 463.412 795.622 452.414 793.538C436.729 790.567 418.504 785.767 398.241 779.276C386.676 775.575 377.356 772.233 372.833 770.571C371.795 770.19 370.698 769.996 369.592 769.996V769.985Z" fill="#17091D"/>
<path id="Vector_76" d="M397.239 782.396L395.611 837.611C379.512 833.127 362.991 827.389 360.851 825.611C357.97 823.225 357.13 790.673 364.121 776.643C364.795 775.296 365.942 774.244 367.342 773.689C368.742 773.134 370.298 773.115 371.711 773.636C376.75 775.502 385.914 778.771 397.239 782.396Z" fill="#9C398C"/>
<path id="Vector_77" d="M492.551 852.669C477.227 852.149 461.94 850.86 446.745 848.807L445.016 848.575L445.379 846.862C448.257 832.553 449.623 809.28 450.182 796.68L450.269 794.793L452.122 795.157C463.208 797.258 472.923 798.407 480.993 798.575C482.221 798.6 483.478 798.615 484.743 798.615C487.631 798.615 490.647 798.546 493.71 798.411L495.457 798.335L494.207 852.727L492.551 852.669Z" fill="#7E4282"/>
<path id="Vector_78" d="M451.801 796.756C462.138 798.716 472.148 800.029 480.944 800.203C482.199 800.23 483.461 800.243 484.73 800.243C487.705 800.243 490.717 800.175 493.766 800.04L492.611 851.032C474.081 850.37 459.224 848.85 446.965 847.185C449.89 832.64 451.263 808.865 451.801 796.756ZM448.702 792.836L448.535 796.61C447.975 809.163 446.616 832.341 443.761 846.538L443.07 849.963L446.529 850.429C461.776 852.49 477.118 853.783 492.495 854.301L495.805 854.421L495.881 851.105L497.036 800.112L497.116 796.618L493.625 796.77C490.583 796.901 487.593 796.97 484.73 796.97C483.477 796.97 482.227 796.97 481.013 796.93C473.02 796.767 463.406 795.625 452.412 793.541L448.702 792.836Z" fill="#17091D"/>
<g id="Vector_79">
<path d="M574.227 785.985C574.881 797.622 574.412 824.349 574.038 840.531C565.387 842.913 555.355 845.258 544.888 847.182C544.317 829.502 546.268 803.909 547.224 792.804" fill="#7E4282"/>
<path d="M574.227 785.985C574.881 797.622 574.412 824.349 574.038 840.531C565.387 842.913 555.355 845.258 544.888 847.182C544.317 829.502 546.268 803.909 547.224 792.804" stroke="#17091D" stroke-width="3.27273" stroke-miterlimit="10"/>
</g>
</g>
</g>
<g id="colar back">
<g id="colar back_2">
<path id="Vector_80" d="M496.188 529.498C482.37 529.498 474.938 526.72 466.345 523.509C464.712 522.898 463.025 522.265 461.254 521.629L459.945 521.16L458.574 520.662C452.028 518.254 444.603 515.247 437.65 512.192C420.312 504.574 397.65 493.149 388.036 481.971C373.723 465.294 358.741 458.658 358.581 458.592C357.403 458.094 356.763 457.374 356.654 456.454C356.498 454.974 357.745 454.087 359.094 453.145C359.766 452.691 360.403 452.186 360.999 451.636C361.934 450.734 364.85 444.178 367.181 438.909C368.101 436.843 369.047 434.712 369.985 432.651C371.585 429.156 372.752 426.734 373.774 424.803C373.97 424.44 374.174 424.054 374.367 423.712C379.163 415.058 400.039 410.912 401.661 410.6L401.919 410.542H401.956H402.028C403.392 410.24 405.028 409.923 406.756 409.625L407.574 409.483C408.563 409.32 409.636 409.152 410.763 408.982L412.385 408.749L413.021 408.662L413.901 408.549C414.178 408.509 414.483 408.465 414.792 408.429L415.418 408.352L415.887 408.294L416.559 408.214L417.287 408.127C418.778 407.956 420.134 407.814 421.414 407.691L422.279 407.611C424.279 407.422 426.279 407.247 428.247 407.127L429.97 407.014C430.833 406.961 431.711 406.911 432.603 406.865L433.432 406.822L434.941 406.749L437.025 406.665L438.094 406.629C441.116 406.531 444.174 406.483 447.185 406.483H449.705H451.188C475.324 406.848 499.341 409.933 522.785 415.68C525.021 416.222 527.181 416.771 529.21 417.342C532.276 418.182 535.254 419.076 538.05 420C539.461 420.462 540.745 420.898 541.981 421.338C542.708 421.592 543.436 421.854 544.163 422.12L545.254 422.534C545.461 422.611 545.69 422.698 545.912 422.789L546.752 423.112C547.319 423.331 547.879 423.556 548.436 423.782C548.756 423.909 549.083 424.043 549.403 424.178C551.29 424.96 553.134 425.771 554.858 426.589L555.585 426.927C557.374 427.778 559.058 428.629 560.589 429.472C560.858 429.614 561.141 429.771 561.421 429.923L562.418 430.476C562.901 430.752 563.367 431.018 563.818 431.283C564.956 431.949 566.072 432.632 567.13 433.312L567.734 433.705C568.858 434.432 569.916 435.16 570.901 435.887C571.108 436.032 571.33 436.192 571.545 436.356L572.378 436.974C572.563 437.116 572.741 437.254 572.923 437.396C574.439 438.567 575.883 439.778 577.207 440.989C577.367 441.131 577.538 441.291 577.708 441.451C578.843 442.509 579.919 443.589 580.901 444.658C581.032 444.796 581.174 444.952 581.316 445.109C581.73 445.574 582.065 445.956 582.367 446.316C582.469 446.436 582.585 446.571 582.694 446.705C582.803 446.84 582.919 446.974 583.025 447.109C583.443 447.618 583.861 448.149 584.258 448.676C584.421 448.894 584.578 449.109 584.73 449.32L585.094 449.814L585.207 449.974L585.305 450.12C585.378 450.225 585.454 450.331 585.523 450.44C586.535 451.916 587.454 453.455 588.272 455.047C588.341 455.192 588.556 455.614 588.556 455.614C588.854 456.229 589.098 456.763 589.312 457.258L589.334 457.312C589.363 457.382 589.396 457.447 589.421 457.52C589.447 457.592 589.523 457.76 589.574 457.883L589.759 458.338C589.836 458.523 589.905 458.702 589.974 458.894L590.05 459.102C590.09 459.211 590.13 459.316 590.167 459.422C590.505 460.36 590.81 461.345 591.061 462.331C591.159 462.72 591.243 463.083 591.319 463.422L591.341 463.527C591.363 463.636 591.389 463.742 591.41 463.851C591.432 463.96 591.41 463.934 591.41 463.96L591.439 464.105C591.465 464.236 591.49 464.363 591.508 464.494C591.585 464.916 591.654 465.382 591.716 465.883C591.716 465.992 591.741 466.112 591.756 466.247C591.872 467.396 591.85 468.554 591.69 469.698C591.647 470.003 591.603 470.36 591.556 470.76C591.291 472.82 591.169 474.897 591.192 476.974C591.25 478.792 590.941 484.716 590.268 494.611C590.112 496.876 589.981 498.727 589.905 499.669C589.883 499.923 589.879 500.171 589.876 500.418V500.567C589.821 503.902 586.207 515.476 541.985 523.996C541.028 524.182 540.05 524.36 539.05 524.549C537.276 524.872 535.414 525.203 533.334 525.56C517.501 528.232 505.701 529.498 496.188 529.498Z" fill="#CE44A2"/>
<path id="Vector_81" d="M447.209 408.095H449.711H451.187C475.194 408.47 499.081 411.547 522.398 417.269C524.595 417.803 526.72 418.353 528.773 418.92C531.847 419.764 534.769 420.64 537.54 421.549C538.876 421.986 540.174 422.427 541.435 422.873C542.162 423.127 542.875 423.386 543.573 423.647L544.664 424.055C544.882 424.135 545.097 424.218 545.307 424.302L546.155 424.629C546.718 424.847 547.271 425.069 547.82 425.291L548.769 425.68C550.66 426.461 552.464 427.255 554.18 428.062L554.907 428.396C556.631 429.218 558.273 430.05 559.835 430.891C560.111 431.036 560.384 431.186 560.653 431.335C560.987 431.516 561.318 431.698 561.649 431.887C562.111 432.149 562.566 432.411 563.009 432.673C564.144 433.335 565.235 434 566.282 434.669L566.878 435.058C567.962 435.769 568.995 436.479 569.977 437.189C570.187 437.338 570.395 437.491 570.598 437.644C570.878 437.847 571.155 438.055 571.424 438.258L571.947 438.662C573.467 439.835 574.864 441.006 576.137 442.175C576.304 442.324 576.464 442.473 576.627 442.626C577.755 443.678 578.79 444.718 579.733 445.746C579.871 445.891 580.002 446.036 580.137 446.186C580.5 446.575 580.824 446.96 581.147 447.346L581.471 447.727L581.784 448.109C582.206 448.626 582.607 449.136 582.987 449.64C583.14 449.844 583.289 450.047 583.435 450.251C583.595 450.469 583.747 450.687 583.9 450.902C583.995 451.04 584.093 451.178 584.184 451.316C585.163 452.744 586.051 454.232 586.842 455.771L587.118 456.324C587.377 456.855 587.617 457.371 587.846 457.88C587.882 457.964 587.918 458.044 587.951 458.127C588.017 458.276 588.078 458.429 588.14 458.578L588.278 458.924C588.351 459.098 588.417 459.287 588.482 459.444C588.547 459.6 588.602 459.767 588.656 459.927C589.02 460.92 589.296 461.851 589.515 462.702C589.606 463.066 589.686 463.411 589.758 463.742C589.787 463.876 589.816 464.004 589.842 464.135C589.842 464.196 589.864 464.258 589.878 464.316C589.904 464.455 589.929 464.589 589.951 464.724C590.038 465.207 590.1 465.651 590.147 466.047C590.147 466.16 590.173 466.269 590.184 466.375C590.286 467.393 590.267 468.419 590.126 469.433C590.082 469.746 590.035 470.116 589.987 470.524C589.706 472.662 589.575 474.818 589.595 476.975C589.671 479.266 589.089 488.349 588.675 494.429C588.518 496.687 588.387 498.535 588.311 499.476C588.286 499.804 588.282 500.131 588.275 500.458C588.242 502.451 586.035 513.778 541.711 522.316C540.758 522.501 539.789 522.684 538.802 522.866C536.838 523.227 534.939 523.564 533.104 523.876C516.609 526.706 505.053 527.833 496.235 527.833C480.129 527.833 473.14 524.073 461.827 520.058L460.482 519.636L459.115 519.138C453.424 517.044 446.104 514.142 438.289 510.709C419.642 502.502 398.162 491.295 389.257 480.906C375.98 465.455 361.798 458.182 359.213 457.091C356.627 456 359.98 454.909 362.122 452.829C363.66 451.342 367.653 441.724 371.471 433.346C372.776 430.487 374.057 427.775 375.217 425.582C375.413 425.218 375.609 424.855 375.798 424.491C380.362 416.258 402.027 412.189 402.027 412.189H402.067H402.14L402.227 412.167L402.377 412.135C403.038 411.989 404.617 411.651 407.035 411.233L407.846 411.095C408.789 410.94 409.842 410.773 411.006 410.596L412.166 410.429L412.918 410.324L414.104 410.167L414.987 410.051L415.609 409.975L416.075 409.916L416.744 409.836L417.471 409.753C418.766 409.604 420.136 409.455 421.584 409.316L422.438 409.236C424.3 409.062 426.278 408.898 428.369 408.756L430.086 408.644C430.941 408.588 431.812 408.538 432.696 408.495L433.471 408.455L435.024 408.382L437.097 408.298L438.155 408.262C441.027 408.171 444.046 408.116 447.202 408.116M447.202 404.844C444.173 404.844 441.093 404.895 438.049 404.989L436.958 405.029L434.889 405.091L433.311 405.164L432.947 405.182L432.533 405.204C431.718 405.244 430.849 405.295 429.886 405.356L428.144 405.469C426.18 405.604 424.144 405.767 422.14 405.956L421.657 406L421.293 406.036C419.987 406.16 418.627 406.306 417.118 406.476L416.391 406.564L415.704 406.647C415.54 406.647 415.377 406.684 415.217 406.709L414.617 406.782C414.315 406.818 414.006 406.858 413.707 406.902L412.893 407.007L412.529 407.058H412.497L412.184 407.102C412.031 407.124 411.878 407.142 411.729 407.167L411.147 407.251L410.573 407.331C409.449 407.502 408.369 407.673 407.351 407.84L406.969 407.906L406.526 408H406.507C404.729 408.309 403.111 408.622 401.704 408.931H401.657H401.631L401.544 408.953L401.431 408.978L401.322 409H401.3C397.336 409.802 393.426 410.855 389.595 412.153C380.842 415.146 375.253 418.764 372.951 422.909C372.736 423.295 372.536 423.662 372.333 424.062C371.293 426.026 370.115 428.469 368.507 431.982C367.566 434.051 366.616 436.189 365.696 438.255C363.613 442.935 360.769 449.331 359.817 450.516C359.289 450.984 358.73 451.415 358.144 451.807C356.718 452.815 354.762 454.193 355.024 456.626C355.14 457.698 355.751 459.171 357.933 460.102C358.078 460.164 372.704 466.647 386.769 483.036C396.566 494.447 419.475 506.004 436.969 513.691C443.947 516.756 451.409 519.778 457.98 522.196L458.446 522.364L459.369 522.702L459.5 522.749L460.686 523.175C462.46 523.804 464.14 524.433 465.777 525.04C474.504 528.313 482.06 531.135 496.191 531.135C505.798 531.135 517.689 529.862 533.613 527.135C535.682 526.771 537.558 526.447 539.347 526.116C540.504 525.906 541.446 525.727 542.304 525.56C561.453 521.873 575.286 517.196 583.395 511.673C590.355 506.946 591.46 502.676 591.5 500.553V500.418C591.5 500.178 591.5 499.949 591.522 499.764C591.595 498.804 591.726 496.953 591.886 494.673C592.904 479.673 592.835 477.56 592.813 476.855C592.794 474.866 592.916 472.878 593.177 470.906V470.909C593.22 470.546 593.26 470.204 593.304 469.891C593.482 468.616 593.506 467.324 593.376 466.044V466.015C593.376 465.898 593.355 465.778 593.337 465.651C593.275 465.131 593.202 464.644 593.118 464.167L593.053 463.804V463.735V463.633V463.586V463.549V463.52C593.031 463.396 593.006 463.276 592.977 463.156V463.066C592.886 462.658 592.798 462.291 592.707 461.924V461.902C592.446 460.887 592.129 459.858 591.766 458.855C591.726 458.746 591.689 458.636 591.646 458.527L591.587 458.364V458.335V458.309C591.522 458.138 591.446 457.946 591.355 457.72C591.311 457.607 591.267 457.495 591.22 457.382L591.18 457.28C591.129 457.164 591.082 457.044 591.027 456.916L590.926 456.673L590.904 456.626C590.689 456.12 590.431 455.564 590.129 454.942L590.035 454.753L589.864 454.411V454.386V454.36C589.015 452.705 588.061 451.105 587.009 449.571L586.795 449.255L586.711 449.135V449.109V449.084L586.595 448.92C586.478 448.753 586.355 448.582 586.231 448.411C586.107 448.24 585.915 447.975 585.751 447.756C585.339 447.211 584.913 446.67 584.475 446.135C584.366 445.996 584.253 445.858 584.14 445.724L583.776 445.316C583.464 444.953 583.115 444.538 582.707 444.087L582.682 444.062C582.544 443.906 582.406 443.753 582.26 443.6C581.253 442.509 580.155 441.418 578.987 440.327C578.809 440.164 578.624 440 578.457 439.84C577.107 438.607 575.638 437.375 574.093 436.175L573.362 435.636C573.086 435.426 572.798 435.211 572.511 435C572.224 434.789 572.053 434.662 571.849 434.516C570.849 433.789 569.769 433.062 568.638 432.309L568.387 432.146L568.024 431.906C566.933 431.215 565.809 430.516 564.638 429.836C564.22 429.586 563.758 429.32 563.246 429.029C562.882 428.833 562.555 428.64 562.209 428.455C561.929 428.298 561.646 428.146 561.355 427.993C559.806 427.153 558.104 426.295 556.297 425.447L555.933 425.269L555.595 425.113C553.835 424.287 551.958 423.466 550.046 422.669L549.067 422.269C548.533 422.055 547.955 421.822 547.362 421.593L546.526 421.269C546.311 421.182 546.078 421.091 545.838 421.004C545.475 420.866 545.111 420.727 544.747 420.593C544.02 420.324 543.293 420.058 542.566 419.8C541.315 419.356 540.02 418.916 538.602 418.455C535.777 417.527 532.784 416.636 529.682 415.778C527.638 415.215 525.46 414.651 523.217 414.106C499.646 408.323 475.498 405.217 451.231 404.847H449.758H449.737H447.191L447.202 404.844Z" fill="#17091D"/>
<path id="Vector_82" d="M561.338 476.178C559.307 477.494 557.246 478.706 555.156 479.814C544.709 485.341 533.666 488.258 522.826 489.458C503.396 491.618 484.626 488.265 471.12 484.57C458.757 481.189 450.807 477.519 450.807 477.519C450.807 477.519 425.215 467.53 408.16 454.974C394.226 444.734 385.978 432.792 402.036 423.189C429.331 406.869 487.978 417.13 514.109 422.869C526.371 425.53 538.184 429.953 549.178 435.999C566.666 445.679 584.618 461.069 561.338 476.178Z" fill="#9C398C" stroke="#17091D" stroke-width="3.27273" stroke-miterlimit="10"/>
<path id="Vector_83" d="M555.163 479.804C508.851 504.306 450.8 477.509 450.8 477.509C450.8 477.509 425.207 467.52 408.152 454.964C416.811 440.146 448.934 432.647 485.451 437.982C524.483 443.695 554.505 461.993 555.163 479.804Z" fill="#5C2C66" stroke="#17091D" stroke-width="3.27273" stroke-miterlimit="10"/>
</g>
</g>
</g>
</g>
</svg>
