<svg width="1000" height="1001" viewBox="0 0 1000 1001" fill="none" xmlns="http://www.w3.org/2000/svg">
<g id="body2">
<g id="body2_2">
<g id="body">
<g id="body 2">
<g id="glove 1">
<path id="Vector" d="M328.165 994.509C323.856 994.509 319.817 993.264 316.571 992.262C314.415 991.596 312.565 991.024 311.322 991.024C311.062 991.01 310.803 991.054 310.561 991.151C308.842 992.014 305.123 992.936 299.845 992.936C293.289 992.936 282.325 991.512 267.449 984.726C256.799 979.867 251.292 966.339 251.08 944.514C250.924 928.607 253.79 913.855 253.82 913.71C253.894 913.338 254.094 913.004 254.387 912.763C254.68 912.523 255.047 912.391 255.426 912.391C255.485 912.387 255.545 912.387 255.604 912.391C255.663 912.391 261.778 913.054 271.154 913.054C277.004 913.054 282.879 912.803 288.608 912.325C307.054 910.737 321.754 902.779 321.907 902.699C322.168 902.557 322.462 902.488 322.758 902.499C323.054 902.511 323.342 902.602 323.59 902.764C324.198 903.161 338.55 912.551 343.868 917.734C344.042 917.906 344.21 918.099 344.377 918.252C347.321 921.381 348.493 924.899 349.63 928.305C350.449 930.763 351.222 933.084 352.62 935.051C354.733 938.019 356.94 944.885 359.071 951.525C360.641 956.413 362.265 961.465 363.515 963.72L363.69 964.022C364.438 965.203 364.876 966.553 364.964 967.948C365.053 969.343 364.789 970.737 364.196 972.003C362.71 975.321 359.399 977.732 355.345 978.457C352.912 978.891 349.291 982.001 345.787 985.014C340.881 989.228 335.319 994.003 329.946 994.451C329.36 994.484 328.759 994.509 328.165 994.509Z" fill="#CE44A2"/>
<path id="Vector_2" d="M322.702 904.112C322.702 904.112 337.469 913.753 342.736 918.886C342.896 919.042 343.053 919.202 343.206 919.363C347.984 924.44 347.78 931.018 351.299 935.976C354.818 940.933 359.116 959.112 362.095 964.492C362.168 964.627 362.241 964.751 362.314 964.857C365.297 969.712 361.512 975.664 355.069 976.815C348.625 977.966 338.565 992.055 329.823 992.783C329.273 992.83 328.731 992.849 328.177 992.849C321.213 992.849 314.886 989.363 311.334 989.363C310.82 989.345 310.308 989.448 309.841 989.665C308.471 990.354 305.106 991.279 299.857 991.279C292.714 991.279 282.064 989.567 268.142 983.214C243.975 972.192 255.438 914.008 255.438 914.008C255.438 914.008 261.575 914.679 271.166 914.679C276.207 914.679 282.202 914.493 288.762 913.928C307.798 912.289 322.706 904.094 322.706 904.094M322.706 900.815C322.156 900.816 321.615 900.955 321.132 901.22C320.947 901.322 306.526 909.098 288.482 910.654C282.796 911.142 276.968 911.382 271.166 911.382C261.896 911.382 255.867 910.737 255.791 910.734C255.67 910.719 255.549 910.712 255.427 910.712C254.669 910.713 253.935 910.977 253.35 911.459C252.765 911.94 252.365 912.609 252.218 913.353C250.346 923.625 249.418 934.047 249.446 944.488C249.541 954.075 250.684 962.241 252.848 968.761C255.715 977.408 260.402 983.269 266.777 986.176C281.918 993.096 293.122 994.535 299.85 994.535C304.508 994.535 308.734 993.807 311.196 992.623H311.327C312.314 992.623 314.15 993.191 316.091 993.788C319.442 994.823 323.613 996.109 328.17 996.109C328.818 996.109 329.463 996.083 330.089 996.032C335.99 995.54 341.763 990.568 346.844 986.198C350.024 983.466 353.63 980.37 355.623 980.005C360.212 979.186 363.971 976.421 365.679 972.608C366.373 971.099 366.682 969.442 366.578 967.784C366.473 966.127 365.959 964.522 365.082 963.112V963.09C365.042 963.024 365.002 962.959 364.969 962.893V962.864C363.8 960.748 362.201 955.772 360.653 950.957C358.384 943.887 356.238 937.211 353.976 934.034C352.72 932.268 351.984 930.06 351.204 927.722C350.068 924.316 348.782 920.437 345.599 917.075C345.402 916.868 345.234 916.686 345.049 916.514C339.618 911.218 325.135 901.741 324.52 901.34C323.977 900.997 323.345 900.821 322.702 900.834L322.706 900.815Z" fill="#17091D"/>
<path id="Vector_3" d="M355.053 976.836C348.61 977.983 338.55 992.076 329.808 992.804C321.066 993.533 313.053 988.069 309.825 989.686C306.598 991.304 292.291 994.261 268.127 983.236C243.963 972.21 255.422 914.03 255.422 914.03C255.422 914.03 269.708 915.589 288.747 913.95C307.786 912.31 322.705 904.111 322.705 904.111C322.705 904.111 337.471 913.753 342.738 918.885C342.899 919.042 343.055 919.202 343.208 919.362C340.389 918.087 326.551 912.077 318.29 913.563C309.064 915.21 286.984 921.54 278.537 922.2C270.09 922.859 266.925 935.17 268.145 948.319C269.365 961.469 265.792 981.302 285.243 981.946C304.693 982.591 312.783 979.061 320.938 981.01C329.094 982.959 344.654 987.53 362.098 964.492C362.171 964.627 362.244 964.75 362.316 964.856C365.281 969.733 361.497 975.685 355.053 976.836Z" fill="#9C398C"/>
<path id="Vector_4" d="M334.161 967.078C334.161 967.078 332.143 955.99 342.24 944.906" stroke="#17091D" stroke-width="3.22719" stroke-linecap="round" stroke-linejoin="round"/>
<path id="Vector_5" d="M337.188 954.41C337.188 954.41 354.358 965.494 348.297 982.122" stroke="#17091D" stroke-width="3.22719" stroke-linecap="round" stroke-linejoin="round"/>
<path id="Vector_6" d="M307.952 963.119C307.952 963.119 306.535 981.539 311.595 990.255" stroke="#17091D" stroke-width="3.88647" stroke-linecap="round" stroke-linejoin="round"/>
<path id="Vector_7" d="M286.703 971.496C286.703 971.496 285.676 988.575 292.247 992.506" stroke="#17091D" stroke-width="3.20169" stroke-linecap="round" stroke-linejoin="round"/>
<path id="Vector_8" d="M272.476 975.598C272.476 975.598 271.446 986.383 278.042 988.863" stroke="#17091D" stroke-width="2.5497" stroke-linecap="round" stroke-linejoin="round"/>
</g>
<path id="Vector_9" d="M714.5 965.615C713.837 965.615 713.171 965.59 712.511 965.535C705.176 964.927 698.062 960.996 691.385 953.854C690.413 952.812 689.448 951.701 688.511 950.575C688.454 950.504 688.403 950.427 688.359 950.346C688.056 949.814 681.012 937.106 679.158 915.652C679.038 915.2 678.644 913.71 678.131 911.612C677.038 907.125 675.118 898.569 674.386 891.608C673.931 887.277 675.078 881.063 677.795 873.141C679.186 869.085 680.784 865.102 682.582 861.209C682.748 860.853 683.038 860.57 683.398 860.411L705.099 850.777C705.28 850.696 705.473 850.649 705.671 850.638L737.415 848.879H737.506C737.67 848.878 737.834 848.902 737.99 848.952L757.86 855.104C758.126 855.188 758.367 855.34 758.558 855.544C758.749 855.748 758.885 855.998 758.952 856.269C759.022 856.554 765.971 884.484 768.058 893.16C768.168 893.623 768.291 894.114 768.423 894.639C770.761 904.062 775.635 923.673 753.609 944.493L753.536 944.555C753.172 944.846 744.998 951.701 737.968 955.879C736.576 956.726 735.128 957.477 733.634 958.126C733.117 958.345 732.639 958.523 732.177 958.665C730.654 960.042 724.003 965.615 714.5 965.615Z" fill="#CE44A2"/>
<path id="Vector_10" d="M737.49 850.496L757.36 856.648C757.36 856.648 764.353 884.753 766.444 893.52C768.535 902.287 774.993 921.986 752.461 943.283C752.461 943.283 744.105 950.294 737.108 954.454C735.78 955.26 734.401 955.977 732.978 956.599C732.439 956.831 731.887 957.028 731.324 957.19C731.324 957.19 724.571 963.979 714.5 963.979C713.891 963.979 713.276 963.954 712.646 963.903C706.741 963.414 699.842 960.504 692.565 952.735C691.64 951.744 690.707 950.677 689.767 949.522C689.767 949.522 682.588 936.774 680.76 915.349C680.76 915.349 680.326 913.735 679.707 911.204C678.534 906.36 676.706 898.15 675.999 891.418C675.485 886.527 677.296 879.58 679.328 873.654C680.709 869.656 682.289 865.729 684.063 861.889L705.765 852.255L737.509 850.496M737.509 847.218H737.327L705.583 848.977C705.187 848.998 704.798 849.092 704.435 849.254L682.734 858.888C682.019 859.206 681.442 859.769 681.106 860.476C679.283 864.427 677.662 868.468 676.25 872.583C673.457 880.728 672.28 887.179 672.761 891.75C673.464 898.452 675.205 906.44 676.545 911.962C677.023 913.925 677.391 915.331 677.54 915.903C679.448 937.622 686.628 950.575 686.934 951.118C687.024 951.28 687.129 951.433 687.247 951.577C688.205 952.757 689.196 953.893 690.19 954.957C697.173 962.413 704.639 966.514 712.409 967.155C713.112 967.214 713.826 967.243 714.532 967.243C724.101 967.243 730.963 961.914 733.036 960.085C733.429 959.947 733.844 959.79 734.285 959.604C735.845 958.927 737.356 958.143 738.809 957.259C745.955 953.012 754.249 946.073 754.599 945.778L754.741 945.65C764.492 936.435 770.225 926.313 771.78 915.564C773.084 906.553 771.241 899.126 770.021 894.212C769.89 893.695 769.77 893.207 769.657 892.755C767.588 884.072 760.634 856.131 760.551 855.85C760.415 855.303 760.14 854.801 759.753 854.392C759.367 853.982 758.881 853.679 758.343 853.512L738.474 847.36C738.16 847.264 737.833 847.215 737.505 847.214L737.509 847.218Z" fill="#17091D"/>
<path id="Vector_11" d="M752.462 943.283C752.462 943.283 744.106 950.295 737.109 954.454C735.781 955.261 734.401 955.977 732.978 956.6C730.567 956.753 728.829 956.494 727.879 956.17C724.732 955.107 719.658 961.463 712.653 963.903C706.749 963.415 699.85 960.505 692.573 952.735C702.939 955.405 709.973 950.823 714.518 948.153C721.869 943.844 730.782 946.274 749.486 940.901C768.189 935.528 758.836 912.049 756.115 895.637C753.394 879.224 746.645 864.869 738.267 866.049C729.889 867.229 706.523 864.661 697.068 864.814C691.331 864.909 684.122 869.812 679.34 873.655C680.72 869.656 682.301 865.729 684.075 861.89L705.777 852.255L737.52 850.496L757.39 856.648C757.39 856.648 764.383 884.753 766.474 893.52C768.565 902.288 774.994 921.986 752.462 943.283Z" fill="#9C398C"/>
<path id="Vector_12" d="M737.108 954.454C734.959 955.729 732.937 956.738 731.324 957.19C731.324 957.19 711.899 976.724 689.767 949.541C689.767 949.541 682.588 936.792 680.76 915.367C680.76 915.367 680.326 913.754 679.707 911.222C680.069 911.24 680.426 911.322 680.76 911.463C685.67 913.419 683.018 920.933 694.36 926.291C705.703 931.649 711.389 932.913 711.458 928.265C711.527 923.618 708.934 885.591 714.055 888.76C719.176 891.928 720.801 917.094 733.83 918.715C746.859 920.336 752.326 912.69 753.419 918.154C754.195 922.008 743.435 942.722 737.108 954.454Z" fill="#9C398C"/>
<path id="Vector_13" d="M693.501 951.216C694.958 950.947 696.393 950.63 697.766 950.233C699.089 949.867 700.376 949.379 701.609 948.776C702.142 948.504 702.654 948.191 703.139 947.84C703.526 947.551 703.869 947.206 704.155 946.816C704.856 945.717 705.415 944.533 705.82 943.294C706.297 941.946 706.687 940.515 707.04 939.069C707.393 937.623 707.688 936.155 707.936 934.643C708.184 933.132 708.399 931.646 708.559 930.138C708.653 929.384 708.69 928.626 708.748 927.868L708.919 925.592C709.099 922.592 709.037 919.582 708.734 916.591C708.65 915.863 708.544 915.134 708.406 914.435L708.169 913.28C708.074 912.851 708.016 912.421 707.951 911.995C707.726 910.305 707.668 908.597 707.779 906.895C708.003 903.629 708.579 900.396 709.499 897.254C709.948 895.702 710.453 894.175 711.014 892.672C711.578 891.156 712.176 889.699 712.893 888.206C713.03 887.901 713.281 887.663 713.591 887.541C713.902 887.419 714.248 887.424 714.555 887.555C714.863 887.686 715.106 887.932 715.234 888.24C715.362 888.548 715.364 888.894 715.239 889.204V889.24C714.984 889.922 714.729 890.665 714.511 891.389C714.292 892.114 714.048 892.846 713.84 893.593C713.414 895.05 713.054 896.554 712.748 898.048C712.08 900.995 711.733 904.005 711.713 907.026C711.716 908.469 711.85 909.909 712.114 911.328C712.183 911.671 712.249 912.017 712.343 912.348L712.646 913.488C712.853 914.315 713.01 915.138 713.163 915.958C713.681 919.191 713.925 922.463 713.891 925.738L713.818 928.163C713.789 928.968 713.782 929.781 713.716 930.589C713.618 932.206 713.465 933.816 713.265 935.43C712.898 938.717 712.232 941.964 711.276 945.13C711.017 945.946 710.73 946.762 710.373 947.596L710.103 948.219C710.005 948.43 709.892 948.641 709.786 948.852C709.567 949.295 709.324 949.726 709.058 950.142C708.923 950.36 708.734 950.59 708.573 950.812L708.315 951.143L708.034 951.446C707.672 951.835 707.283 952.2 706.872 952.538C706.112 953.143 705.301 953.679 704.447 954.141C702.881 954.962 701.24 955.63 699.547 956.137C697.944 956.633 696.315 957.039 694.667 957.354C694.26 957.446 693.839 957.456 693.429 957.382C693.018 957.309 692.627 957.154 692.277 956.927C691.928 956.7 691.628 956.404 691.394 956.059C691.161 955.714 690.999 955.325 690.918 954.916C690.838 954.507 690.84 954.086 690.925 953.678C691.01 953.27 691.176 952.883 691.413 952.54C691.65 952.197 691.953 951.905 692.305 951.682C692.657 951.458 693.05 951.307 693.461 951.238H693.49L693.501 951.216Z" fill="#17091D"/>
<path id="Vector_14" d="M730.96 957.011C731.528 955.011 732.457 953.369 733.345 951.704C733.793 950.87 734.281 950.076 734.802 949.296L735.192 948.721L735.556 948.131C735.808 947.741 736.074 947.359 736.332 946.972C738.441 943.906 740.372 940.715 742.215 937.469C744.058 934.224 745.766 930.887 747.372 927.496C748.185 925.803 748.935 924.083 749.693 922.357C750.45 920.63 751.15 918.857 751.802 917.145L751.823 917.086C751.932 916.794 752.143 916.552 752.418 916.404C752.693 916.257 753.012 916.216 753.316 916.287C753.619 916.359 753.886 916.539 754.066 916.793C754.246 917.048 754.327 917.359 754.293 917.669C754.069 919.639 753.729 921.593 753.273 923.523C752.819 925.431 752.29 927.322 751.685 929.194C750.477 932.939 748.996 936.591 747.256 940.121C745.528 943.664 743.556 947.083 741.355 950.353L740.528 951.58L740.124 952.192L739.665 952.771C739.038 953.536 738.39 954.283 737.698 954.993C737.009 955.716 736.262 956.383 735.465 956.985C734.666 957.621 733.813 958.186 732.916 958.672C732.592 958.84 732.216 958.873 731.868 958.763C731.521 958.654 731.231 958.412 731.062 958.089C730.899 957.778 730.862 957.417 730.96 957.08V957.011Z" fill="#17091D"/>
<path id="Vector_15" d="M498.022 947.286C498.022 947.286 542.332 946.215 548.983 943.279C555.634 940.344 532.421 882.986 532.421 882.986L495.844 888.741L498.022 947.286Z" fill="#7E4282" stroke="#17091D" stroke-width="3.27818" stroke-miterlimit="10"/>
<path id="Vector_16" d="M426.879 412.749C426.879 412.749 451.134 403.341 485.449 403.676C519.764 404.011 540.115 407.493 545.738 408.877C579.132 417.12 593.702 437.153 574.397 452.087C546.897 473.359 434.892 428.776 431.25 424.405C427.607 420.034 426.879 412.749 426.879 412.749Z" fill="#FBDAFA" stroke="#17091D" stroke-width="2.91394" stroke-miterlimit="10"/>
<path id="Vector_17" d="M433.797 968.696C418.415 968.696 402.064 968.229 386.507 967.348C378.971 966.922 372.156 966.415 366.251 965.844C362.828 965.508 361.469 960.103 359.586 952.625C358.183 947.056 356.595 940.747 354.169 937.513C348.302 929.682 349.657 894.867 349.839 890.635C349.613 882.396 347.289 867.906 344.812 852.564C340.62 826.51 335.866 796.977 339.002 784.451C339.039 784.309 339.079 784.163 339.119 784.017L339.155 783.886C344.681 764.217 336.052 734.772 332.366 722.195C332.002 720.923 331.667 719.805 331.401 718.862C329.864 713.498 327.884 708.272 325.482 703.236C323.096 698.322 321.431 696.315 320.663 695.652C320.641 695.685 320.583 695.787 320.572 695.805L320.528 695.889C320.492 695.958 320.466 696.005 320.441 696.06L320.419 696.104C320.397 696.151 320.379 696.18 320.368 696.209L320.335 696.282C320.313 696.326 320.295 696.377 320.273 696.424C320.167 696.683 320.08 696.905 320.007 697.124C319.974 697.218 319.949 697.288 319.927 697.36C319.923 697.377 319.916 697.393 319.909 697.408C319.887 697.484 319.865 697.553 319.84 697.63C319.781 697.816 319.734 697.994 319.683 698.147C319.596 698.457 319.508 698.785 319.424 699.12C319.399 699.225 319.381 699.295 319.366 699.367L319.337 699.484C319.311 699.571 319.293 699.662 319.271 699.754L319.195 700.096C319.177 700.183 319.151 700.293 319.129 700.409C319.075 700.653 319.031 700.875 318.984 701.094C318.918 701.433 318.853 701.775 318.791 702.117C318.707 702.576 318.634 703.013 318.561 703.451C318.488 703.888 318.437 704.226 318.383 704.598C318.354 704.795 318.332 704.962 318.306 705.133C317.986 707.37 317.807 709.18 317.763 709.657C317.77 709.77 317.756 709.884 317.723 709.992L317.581 710.983L317.516 711.409C317.407 712.203 317.246 713.322 317.057 714.622C317.057 714.622 316.846 716.112 316.798 716.443C316.776 716.611 316.755 716.775 316.729 716.939L316.707 717.066C316.707 717.168 316.678 717.299 316.656 717.43L315.829 723.258C315.829 723.258 315.771 723.717 315.764 723.739C315.764 723.826 315.738 723.914 315.727 724.001C315.727 724.001 315.516 725.505 315.512 725.516C315.494 725.64 315.48 725.764 315.461 725.881C315.461 725.881 315.174 727.928 315.097 728.394C315.097 728.394 314.93 729.629 314.911 729.734L314.704 731.301L314.667 731.596L314.627 731.913C314.609 732.051 314.595 732.167 314.587 732.255C314.587 732.277 314.587 732.382 314.587 732.386C314.587 732.539 314.697 733.115 314.777 733.526C315.181 735.606 316.019 739.937 312.497 741.157C312.103 741.298 311.735 741.5 311.404 741.754L311.371 741.776L311.265 741.86L311.207 741.904C311.17 741.931 311.135 741.96 311.101 741.991L310.978 742.104C310.529 742.543 310.221 743.105 310.092 743.719C309.962 744.332 310.017 744.971 310.249 745.553C310.398 745.939 310.562 746.387 310.741 746.894C310.763 746.956 310.792 747.039 310.821 747.131L310.857 747.243C310.908 747.386 310.956 747.535 311.01 747.691L311.08 747.903C311.171 748.183 311.269 748.486 311.364 748.799L311.4 748.915C311.422 748.995 311.448 749.076 311.473 749.159C311.6 749.586 311.743 750.074 311.892 750.587V750.635C311.943 750.813 311.994 750.999 312.045 751.181L312.092 751.356C312.158 751.596 312.227 751.851 312.293 752.11L312.358 752.361L312.5 752.911C312.81 754.135 313.116 755.461 313.414 756.816L313.451 756.994C313.52 757.315 313.593 757.646 313.662 757.978C315.356 766.126 315.319 770.799 315.29 774.554C315.29 775.902 315.29 777.064 315.349 778.197C315.429 779.402 315.971 780.98 316.718 783.161C317.425 785.23 318.31 787.802 319.151 791.113C319.151 791.113 319.151 791.149 319.151 791.167C320.549 796.817 321.426 802.583 321.774 808.392C322.422 817.998 329.507 847.574 335.2 871.337L335.564 872.9C336.129 875.275 337.582 877.467 338.926 879.303C339.421 879.981 339.942 880.658 340.448 881.314C342.477 883.955 344.397 886.45 345.034 889.211C347.078 897.996 344.186 904.298 340.638 906.432C339.849 906.926 338.945 907.207 338.015 907.248C296.215 908.373 273.326 920.725 259.652 928.134L258.119 928.96C256.931 929.601 255.981 930.108 255.125 930.545C251.102 932.503 246.693 933.538 242.22 933.575C235.609 933.575 231.165 930.96 230.025 926.403C228.458 920.131 229.66 915.531 230.527 912.169C231.034 910.227 231.434 908.694 230.957 907.94C224.721 897.92 197.786 771.214 196.642 765.823L196.613 765.721C196.613 765.681 196.587 765.641 196.58 765.601C196.573 765.561 196.551 765.514 196.544 765.481C196.536 765.448 196.504 765.35 196.482 765.277L196.332 764.738C196.31 764.669 196.292 764.6 196.274 764.53L196.245 764.432C196.128 764.02 195.997 763.532 195.848 762.975V762.91C195.808 762.757 195.764 762.6 195.724 762.44C195.465 761.434 195.196 760.334 194.926 759.18L194.752 758.415L194.584 757.65L194.489 757.322C194.42 756.994 194.347 756.659 194.278 756.32C194.209 755.982 194.158 755.727 194.096 755.421C193.998 754.925 193.903 754.415 193.804 753.895C193.775 753.742 193.746 753.574 193.717 753.406L193.659 753.082C193.597 752.751 193.542 752.427 193.491 752.099C193.331 751.152 193.207 750.354 193.101 749.593C193.061 749.298 193.021 749.003 192.985 748.708C192.956 748.5 192.927 748.282 192.901 748.059L192.843 747.571L192.73 746.519C192.708 746.333 192.69 746.154 192.675 745.958V745.834L192.643 745.47C192.606 745.076 192.577 744.686 192.548 744.297V744.045L192.515 743.539C192.515 743.342 192.493 743.12 192.482 742.894C192.238 737.937 192.69 733.905 193.819 730.914C195.082 727.553 195.955 724.058 196.42 720.497C196.82 717.645 196.932 714.761 196.755 711.886C196.715 711.298 196.753 710.706 196.868 710.127L222.215 583.462C222.729 580.592 223.213 577.769 223.672 575.041C225.046 567.027 226.342 559.48 228.043 552.858C236.672 519.472 246.357 512.187 254.899 505.743C255.704 505.139 256.465 504.567 257.223 503.977C264.478 498.295 339.542 469.374 401.23 446.062L404.803 444.711C412.925 441.629 461.191 439.48 499.433 439.48C518.348 439.48 534.703 439.979 546.73 440.937C566.035 442.453 570.151 444.696 571.571 446.481C578.517 455.223 582.499 456.05 585.7 456.727C586.064 456.807 586.429 456.884 586.793 456.964C589.849 457.693 619.149 469.527 631.595 474.579H631.631C631.75 474.627 631.872 474.668 631.995 474.703C657.514 481.489 670.583 489.72 671.989 490.635C672.142 490.733 672.281 490.835 672.423 490.941C679.234 496.171 684.902 507.233 689.273 523.817C691.423 532.081 693.031 540.476 694.088 548.95C694.088 548.979 694.088 549.034 694.11 549.085L694.23 549.813C698.065 572.52 717.221 686.073 717.815 691.529C718.441 697.266 720.026 704.948 721.282 708.31C721.741 709.522 722.265 710.709 722.852 711.865C723.827 713.791 724.672 715.78 725.38 717.82C726.001 719.598 726.362 721.457 726.451 723.338C726.512 724.496 726.467 725.656 726.316 726.806C726.265 727.195 726.288 727.591 726.385 727.971V728.03C726.385 728.088 726.418 728.146 726.433 728.204C730.96 742.774 753.623 815.681 754.658 819.484C755.75 823.538 761.443 841.265 762.332 843.888C762.75 844.987 763.253 846.051 763.837 847.071C764.674 848.559 765.404 850.105 766.022 851.697C766.565 853.154 766.226 854.877 765.071 856.538C763.334 859.033 760.365 860.643 757.502 860.643C755.781 860.639 754.111 860.051 752.767 858.975C751.889 858.286 746.575 856.982 732.799 856.982C720.204 856.982 707.095 858.137 699.402 859.918C694.864 860.967 693.159 862.002 692.543 862.523C686.781 867.414 678.338 870.794 673.803 872.357C673.108 872.6 672.376 872.723 671.64 872.721C670.698 872.727 669.766 872.523 668.913 872.125C668.059 871.727 667.305 871.145 666.704 870.419C664.912 868.234 664.937 865.914 664.952 864.227C664.986 863.723 664.958 863.217 664.868 862.719C662.381 860.501 660.61 856.691 659.128 850.371L659.08 850.182C658.949 849.503 658.587 848.89 658.056 848.447C657.526 848.004 656.858 847.757 656.167 847.749H655.999C655.536 847.745 655.077 847.834 654.648 848.009C654.22 848.185 653.831 848.444 653.504 848.772C653.212 849.091 652.991 849.467 652.854 849.877C652.717 850.287 652.668 850.721 652.71 851.151C653.602 867.542 654.87 889.513 655.846 901.092C656.371 907.284 657.667 912.963 658.793 917.957C661.364 929.248 663.583 939.032 655.46 948.553C647.082 958.388 609.565 961.968 586.37 961.968C571.334 961.968 559.446 960.646 553.756 958.326C543.193 954.042 535.493 937.159 530.907 923.748C530.693 923.114 530.288 922.563 529.747 922.17C529.206 921.776 528.557 921.561 527.888 921.553C527.219 921.545 526.565 921.745 526.014 922.125C525.464 922.505 525.046 923.047 524.817 923.675C519.718 937.739 510.564 955.969 496.042 962.944C485.654 967.949 452.584 968.696 433.797 968.696Z" fill="#CE44A2"/>
<path id="Vector_18" d="M499.433 441.135C534.451 441.135 566.578 442.843 570.289 447.502C578.386 457.671 582.954 457.733 586.392 458.56C589.671 459.35 627.406 474.652 631.009 476.113C631.195 476.189 631.386 476.252 631.58 476.302C656.713 482.986 669.462 490.948 671.093 492.023C671.21 492.099 671.319 492.176 671.428 492.26C687.036 504.247 692.168 546.619 692.46 549.147C692.46 549.227 692.482 549.307 692.496 549.387C693.279 554.028 715.549 685.854 716.172 691.708C716.82 697.67 718.438 705.418 719.731 708.882C721.024 712.346 722.08 713.431 723.821 718.352C724.389 719.98 724.719 721.682 724.801 723.404C724.855 724.462 724.814 725.523 724.677 726.573C724.598 727.168 724.633 727.772 724.779 728.354C724.801 728.456 724.83 728.558 724.859 728.657C728.054 738.932 752.024 816.046 753.073 819.899C754.195 824.026 759.961 841.994 760.777 844.387C761.593 846.78 763.239 848.915 764.474 852.24C765.421 854.79 761.615 858.975 757.492 858.975C756.137 858.974 754.823 858.509 753.769 857.657C751.788 856.101 743.111 855.315 732.789 855.315C721.235 855.315 707.623 856.298 699.02 858.294C695.509 859.106 692.828 860.09 691.473 861.244C685.82 866.045 677.318 869.378 673.261 870.795C672.738 870.978 672.189 871.071 671.636 871.072C670.936 871.077 670.244 870.926 669.609 870.632C668.974 870.337 668.412 869.905 667.965 869.367C665.477 866.344 667.436 862.785 665.983 861.492C664.162 859.868 662.341 856.928 660.72 849.967C660.72 849.898 660.687 849.829 660.669 849.756C660.452 848.737 659.898 847.82 659.096 847.153C658.295 846.486 657.293 846.109 656.25 846.081H656.01C653.46 846.081 650.911 847.935 651.086 851.217C651.978 867.63 653.238 889.521 654.225 901.205C655.934 921.439 665.266 934.519 654.225 947.464C646.962 955.991 613.339 960.304 586.382 960.304C572.373 960.304 560.156 959.138 554.383 956.796C544.315 952.72 536.855 936.034 532.47 923.206C532.147 922.251 531.535 921.42 530.719 920.828C529.903 920.236 528.923 919.912 527.915 919.901C526.907 919.889 525.92 920.192 525.091 920.765C524.262 921.339 523.632 922.156 523.287 923.104C518.428 936.475 509.505 954.654 495.346 961.455C487.023 965.461 461.814 967.039 433.789 967.039C418.127 967.039 401.569 966.543 386.595 965.695C379.186 965.276 372.334 964.769 366.401 964.194C362.03 963.768 360.937 943.796 355.474 936.511C349.755 928.884 351.467 890.617 351.467 890.617C350.892 868.551 335.67 804.434 340.583 784.801C340.627 784.622 340.678 784.437 340.726 784.269C346.918 762.24 335.99 729.075 332.967 718.37C329.944 707.665 323.967 694.837 320.787 693.806C320.699 693.777 320.606 693.762 320.514 693.762C320.469 693.759 320.424 693.759 320.379 693.762L320.248 693.791L320.12 693.842L320.022 693.897C319.922 693.953 319.83 694.023 319.749 694.105L319.629 694.228L319.508 694.367L319.421 694.483C319.337 694.604 319.253 694.735 319.17 694.88C319.133 694.939 319.1 695.004 319.068 695.066C319.035 695.128 318.98 695.23 318.94 695.317C318.9 695.405 318.875 695.449 318.845 695.518C318.816 695.587 318.776 695.674 318.743 695.755C318.641 695.999 318.539 696.261 318.445 696.538C318.412 696.629 318.379 696.723 318.35 696.818C318.321 696.913 318.288 697.008 318.259 697.106C318.204 697.281 318.15 697.47 318.099 697.638C318.004 697.969 317.909 698.315 317.822 698.672C317.793 698.781 317.767 698.894 317.742 699.004C317.716 699.113 317.687 699.226 317.662 699.339C317.636 699.452 317.614 699.554 317.589 699.663L317.512 700.027C317.461 700.257 317.414 700.49 317.367 700.723C317.297 701.087 317.228 701.426 317.166 701.779C317.083 702.234 317.006 702.686 316.933 703.134C316.86 703.582 316.806 703.928 316.751 704.314C316.722 704.5 316.696 704.678 316.671 704.864C316.307 707.272 316.143 709.202 316.114 709.519C316.113 709.534 316.113 709.548 316.114 709.563C316.116 709.59 316.116 709.616 316.114 709.643C316.115 709.652 316.115 709.66 316.114 709.669C316.114 709.716 316.114 709.778 316.088 709.851C316.063 709.924 316.07 709.993 316.055 710.077C316.041 710.16 316.037 710.193 316.03 710.259C316.03 710.39 315.99 710.536 315.968 710.699C315.946 710.863 315.932 710.943 315.91 711.064C315.793 711.891 315.633 713.009 315.447 714.305L315.414 714.531C315.341 715.038 315.269 715.566 315.188 716.116C315.167 716.272 315.145 716.433 315.119 716.593L315.097 716.739C315.097 716.851 315.068 716.964 315.05 717.077L314.22 722.931C314.201 723.076 314.18 723.218 314.161 723.364C314.143 723.51 314.129 723.579 314.114 723.688L314.048 724.151C314.048 724.26 314.016 724.373 314.001 724.482C313.986 724.592 313.961 724.777 313.939 724.923L313.906 725.163C313.884 725.302 313.866 725.44 313.848 725.579C313.724 726.467 313.604 727.312 313.484 728.081L313.429 728.482C313.411 728.617 313.393 728.744 313.375 728.871C313.349 729.057 313.327 729.236 313.302 729.411C313.225 729.986 313.156 730.503 313.101 730.915C313.101 730.966 313.101 731.013 313.101 731.061C313.083 731.188 313.069 731.308 313.054 731.425C313.054 731.472 313.054 731.52 313.036 731.567C313.014 731.749 312.996 731.898 312.985 732.008C312.985 732.044 312.985 732.077 312.985 732.102C312.983 732.128 312.983 732.153 312.985 732.179C312.886 733.49 314.904 738.517 311.994 739.526C311.435 739.721 310.911 740.002 310.439 740.36L310.246 740.509C310.173 740.564 310.104 740.622 310.034 740.684C309.965 740.746 309.903 740.8 309.841 740.862C309.171 741.527 308.71 742.374 308.516 743.297C308.321 744.221 308.402 745.182 308.749 746.06C308.894 746.424 309.051 746.865 309.222 747.353C309.262 747.462 309.299 747.579 309.339 747.696C309.401 747.874 309.463 748.06 309.528 748.26C309.623 748.551 309.725 748.861 309.823 749.189C309.856 749.298 309.892 749.407 309.925 749.524C310.06 749.972 310.202 750.456 310.348 750.981V751.017C310.413 751.243 310.475 751.476 310.541 751.717C310.606 751.957 310.672 752.201 310.737 752.445C310.803 752.689 310.872 752.959 310.938 753.225C311.229 754.379 311.531 755.661 311.841 757.086C311.921 757.45 312.005 757.84 312.085 758.229C314.365 769.197 313.444 773.852 313.742 778.226C313.925 780.922 315.848 784.586 317.592 791.434C318.97 797.019 319.827 802.719 320.153 808.462C320.823 818.417 328.13 848.762 333.994 873.243C334.599 875.77 336.041 878.065 337.637 880.232C340.03 883.511 342.762 886.479 343.465 889.542C345.388 897.818 342.678 903.267 339.822 904.986C339.276 905.336 338.648 905.537 338.001 905.569C294.175 906.749 270.7 920.306 257.369 927.478C256.317 928.047 255.328 928.57 254.4 929.048C250.611 930.892 246.459 931.865 242.245 931.897C237.204 931.897 232.717 930.261 231.642 925.967C229.092 915.768 234.378 910.213 232.371 907.026C226.179 897.192 198.245 765.485 198.245 765.485L198.212 765.35V765.318L198.183 765.223C198.183 765.182 198.168 765.134 198.139 765.081C198.139 765.052 198.139 765.019 198.11 764.982L198.077 764.873L197.917 764.298C197.888 764.203 197.862 764.105 197.833 764.003C197.72 763.602 197.589 763.121 197.443 762.568C197.4 762.404 197.352 762.229 197.309 762.054C197.068 761.125 196.799 760.036 196.515 758.819C196.464 758.586 196.409 758.35 196.354 758.091C196.354 758.091 196.354 758.073 196.354 758.062C196.3 757.811 196.241 757.552 196.183 757.29C196.092 756.863 195.997 756.43 195.906 755.986C195.844 755.694 195.786 755.396 195.728 755.097C195.63 754.605 195.535 754.103 195.44 753.589C195.389 753.323 195.342 753.05 195.291 752.777C195.24 752.504 195.182 752.15 195.131 751.833C194.996 751.025 194.865 750.198 194.748 749.36C194.708 749.072 194.668 748.785 194.632 748.497C194.602 748.282 194.577 748.071 194.551 747.859C194.526 747.648 194.511 747.521 194.489 747.353L194.435 746.847L194.38 746.341C194.38 746.166 194.344 745.976 194.329 745.816C194.315 745.656 194.296 745.492 194.285 745.328C194.249 744.938 194.22 744.552 194.191 744.162C194.191 743.926 194.158 743.689 194.147 743.434C194.136 743.179 194.122 743 194.111 742.786C193.907 738.579 194.183 734.543 195.345 731.465C196.653 727.986 197.556 724.368 198.037 720.683C198.46 717.72 198.582 714.722 198.401 711.734C198.371 711.295 198.399 710.854 198.485 710.423L223.833 583.754C225.902 572.211 227.399 562.001 229.661 553.241C238.927 517.287 249.399 512.187 258.232 505.267C267.447 498.055 395.748 449.902 405.386 446.259C412.587 443.528 458.026 441.135 499.433 441.135ZM499.433 437.856C479.465 437.856 457.585 438.417 439.399 439.397C426.009 440.126 409.036 441.364 404.217 443.196L400.643 444.544C389.436 448.773 355.332 461.641 323.377 474.135C262.049 498.113 257.649 501.555 256.203 502.684C255.475 503.267 254.706 503.835 253.908 504.436C249.672 507.623 244.868 511.233 240.096 518.361C234.793 526.276 230.327 537.422 226.448 552.436C224.718 559.12 223.414 566.711 222.033 574.746C221.567 577.463 221.086 580.275 220.576 583.16L195.218 709.792C195.077 710.512 195.031 711.247 195.08 711.978V712.003C195.251 714.763 195.142 717.534 194.755 720.272C194.309 723.711 193.467 727.087 192.246 730.332C191.036 733.534 190.552 737.784 190.789 742.971C190.789 743.197 190.811 743.419 190.825 743.645L190.858 744.148V744.37V744.414C190.891 744.811 190.92 745.204 190.956 745.601C190.956 745.732 190.978 745.86 190.989 745.991V746.115C190.989 746.304 191.022 746.479 191.044 746.687L191.098 747.207L191.153 747.696V747.714V747.783C191.153 747.863 191.153 747.94 191.178 748.02L191.211 748.26C191.237 748.482 191.262 748.704 191.295 748.927C191.331 749.225 191.372 749.52 191.412 749.815C191.521 750.58 191.645 751.393 191.809 752.365C191.863 752.697 191.918 753.024 191.976 753.345C191.976 753.345 191.976 753.367 191.976 753.378L192.038 753.706C192.067 753.869 192.096 754.037 192.129 754.201C192.224 754.725 192.322 755.239 192.421 755.738C192.482 756.04 192.541 756.357 192.606 756.663C192.672 756.969 192.748 757.33 192.818 757.658L192.887 757.974V758L192.941 758.237C192.981 758.415 193.018 758.601 193.058 758.758C193.058 758.783 193.058 758.809 193.058 758.834V758.852L193.109 759.089C193.142 759.231 193.175 759.369 193.204 759.504V759.552C193.473 760.706 193.743 761.814 194.012 762.83C194.052 762.994 194.096 763.158 194.136 763.314L194.154 763.383C194.293 763.904 194.431 764.407 194.559 764.862L194.584 764.957C194.606 765.03 194.624 765.103 194.646 765.176C194.69 765.339 194.733 765.485 194.766 765.613L194.795 765.715C194.815 765.79 194.838 765.864 194.865 765.937C194.873 765.975 194.884 766.013 194.897 766.05L194.93 766.17V766.199C195.233 767.616 202.131 800.074 209.671 833.282C225.111 901.253 228.368 906.986 229.439 908.68C229.508 909.168 229.129 910.621 228.852 911.688C227.985 915.021 226.667 920.066 228.346 926.732C229.683 932.079 234.705 935.146 242.129 935.146C246.863 935.119 251.53 934.022 255.781 931.937C256.658 931.485 257.602 930.975 258.811 930.334L260.341 929.507C273.887 922.186 296.557 909.933 337.972 908.818C339.188 908.769 340.371 908.403 341.403 907.758C345.57 905.256 348.779 898.408 346.542 888.77C345.814 885.663 343.701 882.91 341.654 880.243C341.155 879.599 340.642 878.928 340.157 878.266C338.908 876.561 337.564 874.539 337.065 872.438L336.701 870.893C331.018 847.181 323.952 817.67 323.311 808.2C322.957 802.303 322.065 796.451 320.645 790.716C320.645 790.691 320.645 790.665 320.627 790.643C319.767 787.27 318.875 784.659 318.157 782.564C317.476 780.579 316.937 779.009 316.871 778.022C316.798 776.951 316.806 775.819 316.817 774.507C316.846 770.865 316.882 765.9 315.152 757.581C315.086 757.257 315.014 756.929 314.948 756.612L314.904 756.412C314.602 755.024 314.289 753.691 313.976 752.442C313.932 752.267 313.881 752.077 313.833 751.892L313.772 751.648C313.699 751.367 313.626 751.105 313.557 750.853L313.517 750.704C313.462 750.504 313.411 750.307 313.353 750.114V750.081C313.218 749.604 313.076 749.12 312.93 748.624C312.905 748.533 312.876 748.442 312.85 748.355L312.821 748.264C312.726 747.954 312.631 747.655 312.54 747.375L312.504 747.266V747.24L312.457 747.098C312.402 746.938 312.351 746.785 312.3 746.639L312.271 746.552C312.242 746.457 312.209 746.362 312.176 746.268C311.987 745.732 311.812 745.281 311.67 744.891C311.559 744.613 311.53 744.31 311.588 744.016C311.645 743.723 311.786 743.452 311.994 743.237L312.03 743.201L312.081 743.153H312.103L312.202 743.077L312.231 743.055L312.282 743.015C312.48 742.86 312.701 742.737 312.937 742.651C315.145 741.882 316.518 739.959 316.704 737.369C316.749 735.953 316.611 734.536 316.292 733.155C316.237 732.882 316.168 732.521 316.139 732.324C316.139 732.244 316.161 732.146 316.176 732.026V731.982C316.176 731.982 316.176 731.953 316.176 731.938C316.176 731.924 316.176 731.902 316.176 731.884L316.194 731.753C316.194 731.691 316.194 731.625 316.219 731.556C316.245 731.487 316.219 731.472 316.219 731.428V731.41C316.219 731.41 316.219 731.385 316.219 731.37C316.252 731.119 316.292 730.831 316.336 730.518L316.416 729.899C316.434 729.782 316.449 729.662 316.467 729.534L316.492 729.345L316.547 728.948L316.602 728.547C316.664 728.096 316.729 727.615 316.802 727.112L316.948 726.056V726.03C316.948 725.921 316.977 725.812 316.995 725.703V725.63L317.024 725.408C317.024 725.327 317.05 725.244 317.061 725.16L317.083 724.985C317.084 724.969 317.084 724.953 317.083 724.938L317.101 724.817C317.101 724.752 317.119 724.69 317.13 724.624L317.163 724.384L317.192 724.176C317.192 724.107 317.21 724.042 317.221 723.976L317.243 723.827L317.265 723.656L317.297 723.422L317.731 720.355L318.121 717.62L318.175 717.256V717.165C318.201 717.019 318.223 716.859 318.244 716.702V716.64C318.288 716.338 318.336 716.021 318.379 715.715L318.47 715.067V714.965V714.837C318.652 713.555 318.813 712.448 318.929 711.621C318.929 711.515 318.962 711.417 318.977 711.322V711.246C318.977 711.228 318.977 711.206 318.977 711.188C318.977 711.096 319.002 711.013 319.013 710.933L319.035 710.765C319.037 710.747 319.037 710.729 319.035 710.71V710.627C319.035 710.561 319.053 710.499 319.06 710.441V710.401C319.06 710.361 319.06 710.321 319.079 710.281C319.097 710.24 319.079 710.189 319.097 710.142C319.115 710.095 319.097 710.069 319.097 710.033C319.097 709.996 319.097 709.938 319.097 709.894V709.869C319.13 709.523 319.304 707.684 319.636 705.382C319.661 705.207 319.683 705.043 319.709 704.872C319.709 704.872 319.709 704.842 319.709 704.824C319.756 704.489 319.814 704.118 319.88 703.731C319.96 703.229 320.033 702.817 320.102 702.435V702.406C320.157 702.078 320.222 701.746 320.288 701.422C320.328 701.222 320.372 701.011 320.419 700.799V700.748C320.419 700.646 320.459 700.548 320.481 700.45C320.503 700.351 320.506 700.333 320.517 700.278C320.528 700.224 320.536 700.209 320.543 700.173V700.125C320.543 700.053 320.576 699.983 320.594 699.911L320.616 699.812V699.758C320.616 699.699 320.641 699.641 320.659 699.583C320.678 699.524 320.659 699.539 320.659 699.517C320.707 699.32 320.761 699.113 320.827 698.883C322.02 700.741 323.079 702.681 323.996 704.689C326.201 709.412 328.028 714.302 329.459 719.314C329.729 720.272 330.053 721.379 330.428 722.661C334.071 735.107 342.612 764.247 337.218 783.435V783.468L337.185 783.595C337.141 783.756 337.098 783.916 337.058 784.076C333.841 796.927 338.62 826.634 342.842 852.845C345.297 868.099 347.613 882.509 347.843 890.646C347.795 891.801 347.438 900.969 347.708 910.847C348.247 930.644 350.706 936.129 352.509 938.529C354.734 941.498 356.282 947.635 357.645 953.055C358.457 956.275 359.222 959.313 360.114 961.677C360.682 963.174 362.19 967.163 365.742 967.505C371.668 968.08 378.49 968.598 386.066 969.016C401.649 969.898 418.032 970.364 433.447 970.364C456.562 970.364 486.262 969.341 496.421 964.456C511.439 957.244 520.825 938.62 526.023 924.269C526.122 923.957 526.32 923.686 526.588 923.498C526.856 923.31 527.178 923.215 527.505 923.228C527.843 923.217 528.175 923.319 528.449 923.517C528.723 923.714 528.924 923.997 529.021 924.32C531.811 932.476 534.87 939.433 538.127 944.991C542.672 952.771 547.597 957.783 552.813 959.889C560.859 963.167 577.086 963.637 586.043 963.637C600.354 963.637 615.608 962.446 627.898 960.358C642.897 957.809 652.481 954.214 656.382 949.635C660.388 944.94 662.315 939.939 662.464 933.9C662.592 928.724 661.372 923.337 660.064 917.604C658.888 912.417 657.667 907.041 657.15 900.961C656.378 891.826 655.293 874.576 654.018 851.06C653.992 850.851 654.011 850.639 654.074 850.438C654.137 850.237 654.242 850.052 654.382 849.895C654.555 849.727 654.759 849.596 654.983 849.507C655.206 849.419 655.445 849.376 655.686 849.381H655.777C656.113 849.382 656.438 849.504 656.692 849.724C656.947 849.944 657.114 850.247 657.165 850.579V850.627V850.685C657.165 850.707 657.165 850.718 657.165 850.74C658.622 857.027 660.443 861.008 662.949 863.488C662.949 863.703 662.949 863.969 662.949 864.191C662.931 865.921 662.898 868.821 665.069 871.458C665.822 872.371 666.768 873.105 667.838 873.609C668.909 874.113 670.078 874.373 671.261 874.372C672.181 874.371 673.095 874.216 673.964 873.913C678.597 872.299 687.258 868.813 693.228 863.765C693.542 863.495 694.915 862.545 699.391 861.51C706.979 859.751 719.942 858.596 732.421 858.596C744.182 858.596 750.207 859.598 751.427 860.279C753.052 861.557 755.057 862.253 757.124 862.257C760.508 862.257 764.004 860.37 766.037 857.449C767.494 855.366 767.902 853.053 767.181 851.104C766.539 849.442 765.781 847.828 764.911 846.274C764.371 845.331 763.904 844.348 763.513 843.335C762.642 840.785 756.931 822.937 755.864 819.043C754.862 815.357 734.009 748.22 727.624 727.702C727.622 727.687 727.622 727.671 727.624 727.655L727.602 727.564C727.555 727.384 727.544 727.198 727.569 727.014C727.734 725.766 727.784 724.505 727.719 723.248C727.622 721.208 727.23 719.194 726.557 717.267C725.825 715.167 724.955 713.118 723.952 711.133C723.389 710.026 722.887 708.889 722.448 707.727C721.228 704.449 719.687 696.967 719.075 691.336C718.492 685.978 700.863 581.488 695.487 549.591L695.356 548.823C695.357 548.81 695.357 548.796 695.356 548.783C695.357 548.765 695.357 548.746 695.356 548.728C694.289 540.187 692.667 531.725 690.5 523.395C686.035 506.45 680.17 495.093 673.068 489.641C672.9 489.513 672.725 489.389 672.536 489.276C670.194 487.75 657.285 479.835 632.065 473.126C632.007 473.126 631.959 473.093 631.915 473.079L631.868 473.057C616.355 466.766 589.871 456.105 586.822 455.369C586.458 455.278 586.065 455.198 585.7 455.121C582.757 454.495 579.093 453.719 572.515 445.454C570.694 443.174 566.294 440.85 546.522 439.299C534.455 438.352 518.061 437.842 499.109 437.842L499.433 437.856Z" fill="#17091D"/>
<path id="Vector_19" d="M555.655 420.897C549.901 417.939 543.759 415.809 537.41 414.57C519.617 411.033 468.841 404.572 438.168 417.666C401.467 433.329 471.679 478.429 525.699 473.727C579.72 469.024 577.826 447.986 575.316 440.249C573.371 434.287 568.308 427.468 555.655 420.897Z" fill="#5C2C66" stroke="#17091D" stroke-width="3.27818" stroke-miterlimit="10"/>
<path id="Vector_20" d="M586.23 749.827C586.233 752.117 585.442 754.337 583.992 756.11C582.542 757.882 580.522 759.097 578.276 759.547C576.031 759.998 573.699 759.656 571.677 758.579C569.656 757.503 568.07 755.759 567.19 753.645C566.31 751.531 566.19 749.177 566.851 746.984C567.512 744.791 568.912 742.895 570.814 741.619C572.716 740.343 575.001 739.766 577.281 739.986C579.56 740.206 581.693 741.21 583.316 742.826C585.176 744.682 586.224 747.199 586.23 749.827ZM584.536 750.089C584.536 748.312 583.92 746.591 582.793 745.217C581.666 743.844 580.098 742.904 578.356 742.558C576.613 742.211 574.805 742.479 573.238 743.317C571.671 744.154 570.444 745.509 569.764 747.151C569.084 748.792 568.995 750.618 569.511 752.318C570.027 754.018 571.116 755.487 572.593 756.473C574.071 757.46 575.844 757.904 577.612 757.729C579.38 757.555 581.033 756.773 582.289 755.516C583.728 754.076 584.536 752.124 584.536 750.089Z" fill="#17091D"/>
<path id="Vector_21" d="M576.858 757.767C578.377 757.767 579.861 757.316 581.124 756.473C582.386 755.629 583.37 754.43 583.952 753.027C584.533 751.624 584.685 750.08 584.389 748.59C584.092 747.101 583.361 745.733 582.287 744.659C581.213 743.585 579.845 742.854 578.356 742.558C576.866 742.261 575.323 742.413 573.92 742.995C572.517 743.576 571.317 744.56 570.474 745.823C569.63 747.085 569.18 748.57 569.18 750.088C569.18 752.125 569.989 754.078 571.429 755.518C572.869 756.958 574.822 757.767 576.858 757.767Z" fill="#9C398C"/>
<path id="Vector_22" d="M577.001 833.296C579.915 835.073 582.771 837.353 581.97 840.886C581.081 844.769 577.234 850.637 572.499 849.792C571.354 849.618 570.269 849.165 569.341 848.472C568.412 847.78 567.668 846.87 567.174 845.822C565.837 843.156 565.859 837.765 568.074 835.488C569.658 833.838 574.801 831.962 577.001 833.296ZM577.06 835.277C576.34 834.903 575.549 834.686 574.739 834.641C573.929 834.595 573.118 834.721 572.361 835.011C570.726 835.629 569.375 836.827 568.565 838.377C568.155 839.153 567.883 839.995 567.764 840.865C567.649 841.715 567.694 842.58 567.899 843.414C568.094 844.213 568.45 844.965 568.944 845.622C569.426 846.258 570.04 846.782 570.744 847.159C571.464 847.532 572.255 847.748 573.065 847.794C573.874 847.84 574.685 847.714 575.442 847.425C577.077 846.805 578.426 845.606 579.234 844.055C579.648 843.28 579.92 842.438 580.039 841.568C580.155 840.717 580.11 839.852 579.904 839.018C579.711 838.218 579.355 837.467 578.859 836.811C578.379 836.172 577.765 835.646 577.06 835.27V835.277Z" fill="#17091D"/>
<path id="Vector_23" d="M579.237 844.049C580.981 840.771 580.005 836.844 577.051 835.278C574.097 833.712 570.305 835.1 568.561 838.378C566.816 841.656 567.792 845.586 570.746 847.152C573.7 848.719 577.492 847.331 579.237 844.049Z" fill="#9C398C"/>
<path id="Vector_24" d="M606.393 827.275C605.446 827.305 604.499 827.202 603.581 826.969C600.667 826.102 599.29 821.892 599.09 813.314C598.951 807.249 599.454 800.412 599.906 795.743C600.044 794.31 600.657 792.965 601.646 791.92C602.636 790.875 603.946 790.19 605.369 789.973C607.22 789.682 609.576 789.354 612.29 788.972C622.157 787.591 637.058 785.508 642.682 783.144C643.144 782.95 643.639 782.85 644.139 782.849C645.051 782.848 645.932 783.181 646.616 783.785C647.3 784.389 647.739 785.222 647.851 786.127C648.944 795.135 650.63 811.114 649.373 816.909C649.2 817.688 648.811 818.403 648.251 818.972C647.69 819.541 646.981 819.941 646.205 820.125C639.116 821.793 615.266 827.275 606.393 827.275Z" fill="#7E4282"/>
<path id="Vector_25" d="M644.15 784.495C644.66 784.492 645.153 784.676 645.537 785.011C645.922 785.346 646.17 785.81 646.237 786.316C647.147 793.739 649.027 810.815 647.781 816.548C647.676 817.026 647.437 817.464 647.093 817.812C646.749 818.16 646.313 818.404 645.836 818.515C640.008 819.892 615.24 825.618 606.392 825.618C605.605 825.643 604.817 825.564 604.05 825.381C599.355 823.978 600.728 804.284 601.537 795.877C601.64 794.809 602.096 793.806 602.833 793.025C603.57 792.245 604.545 791.732 605.606 791.568C614.471 790.188 635.983 787.718 643.316 784.648C643.58 784.538 643.863 784.481 644.15 784.48M644.15 781.202C643.428 781.202 642.714 781.345 642.048 781.624C636.628 783.897 621.847 785.966 612.064 787.336C609.328 787.7 606.964 788.064 605.099 788.337C603.32 788.613 601.682 789.474 600.446 790.784C599.21 792.094 598.446 793.778 598.273 795.571C597.822 800.285 597.312 807.194 597.454 813.335C597.538 817.007 597.84 819.892 598.375 822.125C598.692 823.454 599.654 827.493 603.111 828.524C604.18 828.803 605.284 828.926 606.389 828.888C615.444 828.888 639.447 823.385 646.587 821.698C647.664 821.442 648.647 820.887 649.424 820.098C650.2 819.309 650.74 818.317 650.979 817.236C652.225 811.507 650.852 797.035 649.486 785.912C649.323 784.61 648.691 783.413 647.708 782.545C646.724 781.677 645.458 781.198 644.146 781.198L644.15 781.202Z" fill="#17091D"/>
<path id="Vector_26" d="M599.348 600.152C599.348 600.152 632.683 597.857 644.062 597.729" stroke="#17091D" stroke-width="2.5497" stroke-linecap="round" stroke-linejoin="round"/>
<path id="Vector_27" d="M593.883 615.45L654.059 612.187" stroke="#17091D" stroke-width="2.5497" stroke-linecap="round" stroke-linejoin="round"/>
<path id="Vector_28" d="M386.605 965.713C379.196 965.294 372.345 964.788 366.411 964.212C362.04 963.786 360.948 943.815 355.484 936.53C349.766 928.903 351.477 890.635 351.477 890.635C350.902 868.57 335.68 804.452 340.594 784.819C340.638 784.641 340.689 784.455 340.736 784.287C346.928 762.258 336.001 729.094 332.978 718.389C329.954 707.684 323.977 694.855 320.797 693.824C320.666 693.781 320.526 693.77 320.389 693.791C320.345 693.796 320.301 693.806 320.258 693.821C320.215 693.834 320.172 693.851 320.131 693.872C320.096 693.886 320.063 693.904 320.032 693.926C319.932 693.982 319.84 694.052 319.759 694.134C319.716 694.171 319.675 694.213 319.639 694.258C319.596 694.301 319.556 694.348 319.519 694.396L319.431 694.513C319.339 694.64 319.255 694.772 319.18 694.91C319.142 694.969 319.108 695.031 319.078 695.095C319.034 695.176 318.991 695.259 318.951 695.347C318.911 695.434 318.885 695.478 318.856 695.547C318.827 695.616 318.787 695.704 318.754 695.784C318.652 696.028 318.55 696.29 318.455 696.567C318.422 696.658 318.39 696.753 318.361 696.847C318.331 696.942 318.299 697.037 318.269 697.135C318.211 697.31 318.16 697.499 318.109 697.667C318.015 697.998 317.92 698.344 317.832 698.701C317.803 698.811 317.778 698.924 317.752 699.033C317.727 699.142 317.698 699.255 317.672 699.368C317.647 699.481 317.625 699.583 317.599 699.692L317.523 700.056C317.472 700.286 317.424 700.519 317.377 700.752C317.308 701.116 317.239 701.455 317.177 701.808C317.093 702.264 317.016 702.715 316.944 703.163C316.871 703.611 316.816 703.957 316.762 704.344C316.732 704.529 316.703 704.708 316.681 704.894C316.317 707.301 316.153 709.232 316.124 709.549C316.123 709.563 316.123 709.578 316.124 709.592C316.126 709.619 316.126 709.646 316.124 709.672C316.126 709.681 316.126 709.69 316.124 709.698C316.124 709.745 316.124 709.807 316.099 709.88C316.073 709.953 316.08 710.022 316.066 710.106C316.051 710.19 316.048 710.222 316.04 710.288C316.04 710.419 316 710.565 315.978 710.729C315.957 710.893 315.942 710.973 315.92 711.093C315.804 711.92 315.643 713.038 315.458 714.335L315.425 714.561C315.352 715.067 315.279 715.595 315.199 716.145C315.177 716.302 315.155 716.462 315.13 716.622L315.108 716.768C315.108 716.881 315.079 716.994 315.06 717.107L314.23 722.96C314.212 723.106 314.19 723.248 314.172 723.393C314.154 723.539 314.139 723.608 314.124 723.718L314.059 724.18C314.059 724.289 314.026 724.402 314.011 724.512C313.997 724.621 313.971 724.807 313.95 724.952L313.917 725.193C313.895 725.331 313.877 725.47 313.858 725.608C313.735 726.497 313.614 727.342 313.494 728.11L313.44 728.511C313.421 728.646 313.403 728.773 313.385 728.901C313.359 729.087 313.338 729.265 313.312 729.44C313.236 730.015 313.166 730.533 313.112 730.944C313.112 730.995 313.112 731.043 313.112 731.09C313.094 731.217 313.079 731.338 313.064 731.454C313.064 731.501 313.064 731.549 313.046 731.596C313.024 731.778 313.006 731.928 312.995 732.037C312.995 732.073 312.995 732.106 312.995 732.132C312.994 732.157 312.994 732.183 312.995 732.208C312.897 733.519 314.915 738.546 312.005 739.555C311.446 739.75 310.921 740.032 310.449 740.389L310.256 740.538C310.183 740.593 310.114 740.651 310.045 740.713C309.976 740.775 309.914 740.83 309.852 740.892C308.965 741.736 308.253 742.748 307.757 743.867C308.144 744.582 308.476 745.325 308.752 746.089C308.898 746.454 309.054 746.894 309.225 747.382C309.265 747.492 309.302 747.608 309.342 747.725C309.404 747.903 309.466 748.089 309.531 748.289C309.626 748.581 309.728 748.89 309.826 749.218C309.859 749.327 309.896 749.437 309.928 749.553C310.067 750.001 310.209 750.486 310.351 751.01V751.047C310.416 751.273 310.478 751.506 310.544 751.746C310.609 751.986 310.675 752.23 310.741 752.475C310.806 752.719 310.875 752.988 310.941 753.254C311.232 754.409 311.535 755.691 311.844 757.115C311.924 757.479 312.008 757.869 312.088 758.259C314.368 769.226 313.447 773.881 313.746 778.256C313.928 780.951 315.851 784.615 317.596 791.463C313.469 782.765 299.445 753.323 296.757 749.295C293.596 744.56 291.84 737.686 293.446 736.39C295.053 735.093 263.495 721.692 265.25 718.374C265.487 717.926 266.267 717.744 267.436 717.744C275.023 717.744 299.172 725.44 302.068 720.37C305.419 714.51 311.611 656.595 311.247 643.847C311.021 635.961 312.54 617.326 313.727 604.264C313.764 604.047 313.878 603.851 314.047 603.71C314.216 603.57 314.43 603.495 314.65 603.498C314.87 603.502 315.082 603.584 315.247 603.73C315.411 603.876 315.518 604.075 315.549 604.293C316.459 619.431 319.053 641.147 326.421 639.111C337.64 636.015 347.03 616.226 354.719 618.288C362.408 620.349 341.06 627.707 345.358 654.992C349.656 682.278 370.957 748.319 366.848 772.118C362.74 795.918 361.582 820.646 369.453 840.519C377.324 860.392 376.993 881.078 376.614 900.255C376.439 909.638 381.968 942.423 386.605 965.713Z" fill="#9C398C"/>
<path id="Vector_29" d="M366.414 780.805C380.641 783.741 427.723 793.189 445.545 793.269C446.829 793.278 448.061 793.778 448.988 794.666C449.915 795.553 450.468 796.763 450.532 798.045C451.038 808.127 450.951 829.617 440.909 828.83C427.796 827.803 364.505 818.719 362.28 816.158C360.56 814.173 358.903 794.756 360.262 785.158C360.358 784.458 360.598 783.786 360.965 783.182C361.332 782.579 361.818 782.057 362.395 781.649C362.972 781.241 363.626 780.956 364.317 780.81C365.008 780.665 365.722 780.663 366.414 780.805Z" fill="#7E4282" stroke="#17091D" stroke-width="3.27818" stroke-miterlimit="10"/>
<path id="Vector_30" d="M535.605 722.901C535.605 722.901 524.106 887.732 527.592 921.413" stroke="#17091D" stroke-width="2.5497" stroke-linecap="round" stroke-linejoin="round"/>
<g id="arm 1">
<path id="Vector_31" d="M229.628 553.256C225.469 600.094 216.661 692.604 211.012 703.499C207.297 710.671 202.227 716.557 198.02 720.698C198.781 715.02 198.311 711.126 198.311 711.126L223.808 583.768C225.866 572.226 227.804 562.118 229.628 553.256Z" fill="#9C398C"/>
<path id="Vector_32" d="M257.371 927.478C256.32 928.046 255.33 928.569 254.403 929.048C247.154 932.763 233.619 933.867 231.645 925.966C229.095 915.768 234.38 910.213 232.373 907.026C226.181 897.191 198.247 765.485 198.247 765.485L198.215 765.35V765.317C198.215 765.295 198.215 765.263 198.186 765.222C198.186 765.181 198.171 765.134 198.142 765.08C198.142 765.051 198.142 765.019 198.113 764.982C198.104 764.945 198.093 764.908 198.08 764.873L197.92 764.297C197.89 764.203 197.865 764.104 197.836 764.002C197.723 763.602 197.592 763.121 197.446 762.567L197.311 762.054C197.071 761.125 196.801 760.036 196.517 758.819C196.466 758.586 196.412 758.349 196.357 758.091C196.357 758.091 196.357 758.072 196.357 758.061C196.302 757.81 196.244 757.552 196.186 757.289C196.095 756.863 196 756.43 195.909 755.985C195.851 755.694 195.789 755.395 195.731 755.097C195.632 754.605 195.537 754.102 195.443 753.589C195.392 753.323 195.344 753.05 195.293 752.776C195.242 752.503 195.184 752.15 195.133 751.833C194.998 751.024 194.867 750.197 194.751 749.36C194.711 749.072 194.671 748.784 194.634 748.496C194.605 748.282 194.58 748.07 194.554 747.859C194.529 747.648 194.514 747.52 194.492 747.353L194.437 746.846L194.383 746.34C194.383 746.165 194.346 745.976 194.332 745.816C194.317 745.655 194.299 745.491 194.288 745.328C194.252 744.938 194.223 744.552 194.193 744.162C194.193 743.925 194.161 743.688 194.15 743.433C194.139 743.179 194.124 743 194.113 742.785C201.857 743.514 214.252 745.47 215.108 750.573C216.165 756.976 249.416 884.133 257.371 927.478Z" fill="#9C398C"/>
<path id="Vector_33" d="M242.204 720.749C228.964 721.405 215.753 724.668 202.728 727.247C202.612 727.269 202.493 727.266 202.378 727.237C202.264 727.208 202.158 727.155 202.066 727.08C201.975 727.005 201.902 726.911 201.851 726.805C201.8 726.698 201.774 726.582 201.773 726.464C201.817 715.635 230.884 716.342 242.368 719.179C242.549 719.231 242.707 719.345 242.812 719.501C242.918 719.657 242.965 719.845 242.945 720.033C242.926 720.22 242.841 720.395 242.705 720.526C242.57 720.657 242.392 720.736 242.204 720.749Z" fill="#5C2C66"/>
<path id="Vector_34" d="M214.01 734.569C222.985 729.914 241.197 730.325 252.55 730.562C252.761 730.573 252.96 730.664 253.106 730.816C253.252 730.968 253.335 731.17 253.338 731.38C253.341 731.591 253.263 731.795 253.121 731.951C252.979 732.107 252.783 732.203 252.572 732.219C250.485 732.336 247.579 731.811 246.479 732.292C246.39 732.332 246.295 732.358 246.198 732.369C235.529 733.188 225.331 736.037 214.403 736.153C214.212 736.16 214.024 736.101 213.871 735.986C213.718 735.871 213.61 735.706 213.564 735.521C213.518 735.335 213.537 735.139 213.618 734.965C213.699 734.792 213.838 734.652 214.01 734.569Z" fill="#5C2C66"/>
<path id="Vector_35" d="M289.806 724.504C300.967 727.891 300.704 731.985 288.765 727.735C288.728 727.724 288.693 727.709 288.659 727.691C282.103 724.38 275.109 722.431 268.385 719.732C268.184 719.64 268.021 719.481 267.924 719.282C267.828 719.083 267.803 718.857 267.854 718.642C267.906 718.427 268.031 718.236 268.207 718.103C268.384 717.97 268.601 717.902 268.822 717.911C274.865 718.468 285.126 723.244 289.806 724.504Z" fill="#5C2C66"/>
<path id="Vector_36" d="M231.824 907.936C231.824 907.936 263.149 882.439 338.183 878.797" stroke="#17091D" stroke-width="3.27818" stroke-linecap="round" stroke-linejoin="round"/>
<path id="Vector_37" d="M297.518 518.121C297.999 518.423 298.381 518.707 298.793 519.013C299.204 519.319 299.587 519.629 299.969 519.949L301.102 520.925L302.195 521.945C303.616 523.323 304.963 524.775 306.231 526.294C308.748 529.331 311.027 532.557 313.049 535.943C317.014 542.737 320.251 549.931 322.705 557.404C325.161 564.857 327.053 572.484 328.366 580.22C329.718 587.933 330.632 595.716 331.105 603.532C332.168 619.158 331.709 634.835 330.409 650.403C329.109 665.97 326.89 681.458 324.104 696.822C324.04 697.175 323.907 697.512 323.713 697.813C323.518 698.115 323.266 698.375 322.972 698.58C322.677 698.784 322.344 698.928 321.994 699.004C321.643 699.08 321.281 699.086 320.928 699.022C320.575 698.958 320.238 698.825 319.936 698.63C319.635 698.436 319.374 698.184 319.17 697.889C318.966 697.594 318.821 697.262 318.746 696.911C318.67 696.561 318.664 696.199 318.728 695.846V695.809V695.78C321.776 680.624 324.257 665.348 325.845 649.98C327.433 634.613 328.176 619.147 327.422 603.721C327.105 596.019 326.353 588.341 325.168 580.723C324.027 573.108 322.316 565.59 320.05 558.231C317.786 550.891 314.756 543.81 311.009 537.105C309.109 533.789 306.957 530.623 304.573 527.635C303.383 526.146 302.113 524.723 300.771 523.37L299.758 522.386L298.705 521.435C298.341 521.129 297.977 520.831 297.613 520.536C297.248 520.241 296.855 519.96 296.52 519.738L296.487 519.716C296.287 519.577 296.148 519.366 296.1 519.126C296.053 518.887 296.099 518.638 296.231 518.433C296.362 518.227 296.568 518.081 296.806 518.024C297.043 517.967 297.293 518.004 297.503 518.128L297.518 518.121Z" fill="#17091D"/>
</g>
<g id="arm 2">
<path id="Vector_38" d="M724.794 728.37C711.579 728.209 685.456 730.158 679.056 747.347C672.383 765.231 690.347 829.509 699.035 858.31C695.523 859.122 692.843 860.105 691.488 861.26C685.835 866.061 677.333 869.393 673.275 870.81C672.352 871.14 671.351 871.18 670.404 870.925C669.458 870.67 668.612 870.132 667.979 869.383C665.492 866.359 667.451 862.801 665.998 861.508C664.177 859.883 662.355 856.944 660.735 849.983C660.735 849.914 660.702 849.845 660.684 849.772C660.467 848.752 659.913 847.835 659.111 847.169C658.31 846.502 657.307 846.124 656.265 846.096L652.321 827.702C652.321 827.702 649.319 794.665 648.74 787.013C648.161 779.36 647.88 745.453 648.201 742.375C648.522 739.297 648.787 722.961 650.113 711.64C651.439 700.319 657.879 670.029 657.879 670.029L665.819 642.736L670.609 612.275L671.92 605.82C671.92 605.82 675.224 647.198 672.795 679.762C670.365 712.325 670.409 721.649 678.579 724.101C684.643 725.922 711.397 724.341 724.805 723.412C724.859 724.47 724.818 725.531 724.681 726.581C724.604 727.179 724.643 727.786 724.794 728.37Z" fill="#9C398C"/>
<path id="Vector_39" d="M648.699 735.421C652.705 732.871 656.712 730.405 660.777 727.943C664.842 725.481 668.885 723.062 672.972 720.658C677.059 718.254 681.189 715.945 685.356 713.69L688.511 712.029C689.567 711.479 690.641 710.962 691.705 710.427L692.506 710.03L693.326 709.665L694.961 708.937C695.234 708.817 695.5 708.682 695.784 708.573L696.633 708.234L698.331 707.567C698.624 707.459 698.948 707.468 699.236 707.591C699.523 707.715 699.753 707.944 699.877 708.231C700.001 708.518 700.01 708.842 699.903 709.136C699.795 709.43 699.579 709.671 699.299 709.811L699.205 709.855L697.649 710.583L696.874 710.948C696.615 711.068 696.36 711.217 696.105 711.348L694.593 712.157L693.825 712.565L693.064 713.002C692.055 713.588 691.035 714.153 690.033 714.754L687.024 716.575C683.04 719.045 679.095 721.602 675.179 724.202C671.264 726.803 667.377 729.458 663.523 732.139C659.67 734.82 655.802 737.53 651.995 740.265C651.367 740.717 650.586 740.9 649.823 740.775C649.06 740.65 648.378 740.227 647.927 739.599C647.476 738.971 647.292 738.19 647.417 737.427C647.542 736.664 647.965 735.981 648.593 735.53L648.699 735.421Z" fill="#17091D"/>
<path id="Vector_40" d="M712.498 714.838C712.498 714.838 679.156 716.728 664.746 728.741" stroke="#17091D" stroke-width="3.64242" stroke-linecap="round" stroke-linejoin="round"/>
<path id="Vector_41" d="M671.725 731.177C681.341 724.581 684.375 727.342 673.597 734.011L673.495 734.066C666.819 737.111 660.922 741.351 654.617 744.927C654.418 745.043 654.184 745.083 653.958 745.039C653.732 744.996 653.53 744.872 653.388 744.69C653.247 744.509 653.176 744.282 653.189 744.053C653.202 743.823 653.298 743.606 653.459 743.441C657.676 739.078 667.817 734.044 671.725 731.177Z" fill="#5C2C66"/>
<path id="Vector_42" d="M664.746 861.889C664.746 861.889 697.138 823.484 760.793 844.406" stroke="#17091D" stroke-width="3.27818" stroke-linecap="round" stroke-linejoin="round"/>
<path id="Vector_43" d="M670.921 504.946C671.686 512.118 672.251 519.294 672.714 526.484C673.176 533.674 673.544 540.872 673.766 548.073C673.988 555.274 674.094 562.482 674.079 569.691C674.065 576.899 673.923 584.115 673.606 591.323C672.936 605.732 671.715 620.16 669.184 634.431C667.957 641.591 666.304 648.671 664.234 655.634L660.923 665.905C660.428 667.613 659.892 669.314 659.426 671.034C658.96 672.753 658.493 674.476 658.067 676.21C654.618 690.051 652.509 704.256 651.194 718.505C650.543 725.635 650.086 732.781 649.821 739.945C649.556 747.108 649.424 754.272 649.424 761.435C649.489 775.762 650.128 790.089 651.34 804.416C652.575 818.719 654.093 833.03 655.616 847.323C655.655 847.661 655.558 848.001 655.347 848.268C655.135 848.535 654.827 848.707 654.489 848.746C654.151 848.785 653.811 848.688 653.544 848.477C653.277 848.265 653.105 847.957 653.066 847.618C652.163 840.474 651.306 833.327 650.495 826.175C649.686 819.022 648.907 811.868 648.204 804.685C646.845 790.312 646.153 775.888 645.985 761.453C645.92 754.236 646.011 747.018 646.259 739.799C646.506 732.58 646.973 725.37 647.657 718.17C648.994 703.779 651.129 689.424 654.643 675.346C655.081 673.587 655.569 671.842 656.028 670.087C656.487 668.331 657.051 666.605 657.557 664.86C657.805 663.989 658.107 663.13 658.384 662.266L659.266 659.706L660.923 654.606C662.989 647.79 664.65 640.857 665.895 633.845L666.376 631.211C666.529 630.33 666.66 629.444 666.802 628.563C667.071 626.796 667.377 625.037 667.603 623.26C667.829 621.482 668.102 619.719 668.332 617.942L668.955 612.609C669.716 605.488 670.262 598.338 670.677 591.181C671.093 584.023 671.359 576.848 671.482 569.672C671.606 562.497 671.614 555.314 671.508 548.131C671.318 533.773 670.743 519.396 669.687 505.074C669.682 504.914 669.738 504.759 669.844 504.639C669.95 504.519 670.097 504.445 670.256 504.43C670.415 504.416 670.574 504.463 670.7 504.561C670.825 504.66 670.909 504.803 670.932 504.961L670.921 504.946Z" fill="#17091D"/>
</g>
</g>
</g>
</g>
</g>
</svg>
