<svg width="1000" height="1000" viewBox="0 0 1000 1000" fill="none" xmlns="http://www.w3.org/2000/svg">
<g id="collar front1">
<g id="colar front">
<g id="colar front_2">
<path id="Vector" d="M494.351 529.353C478.496 529.353 470.878 525.989 459.347 520.902C453.529 518.338 446.947 515.429 437.754 512.24L437.693 512.218L437.631 512.193C420.293 504.574 397.631 493.149 388.016 481.971C373.703 465.294 358.722 458.658 358.562 458.593C357.383 458.094 356.743 457.374 356.634 456.451C356.478 454.974 357.725 454.087 359.074 453.145C359.753 452.691 360.396 452.187 360.998 451.636C361.965 450.691 365.209 443.389 367.576 438.062C369.82 433.014 372.14 427.793 373.794 424.778L373.816 424.745L373.834 424.709C377.507 418.731 385.66 414.193 398.074 411.222C398.685 411.074 399.311 410.998 399.94 410.996C401.53 410.99 403.077 411.515 404.335 412.487C405.594 413.459 406.493 414.823 406.889 416.363C407.416 418.589 406.547 420.633 404.674 421.574C396.838 425.513 393.609 430.127 394.798 435.68C396.856 445.283 412.565 457.894 436.816 469.418C458.307 479.629 482.998 487.178 496.882 487.778H496.98C501.359 488.243 505.758 488.482 510.162 488.494C526.867 488.494 541.743 485.083 554.387 478.36L554.427 478.338C564.947 473.094 570.645 467.389 571.365 461.382C572.013 455.989 568.685 450.167 561.471 444.076C559.765 442.622 559.318 439.92 560.329 437.167C561.293 434.542 563.198 432.909 565.311 432.909C566.179 432.918 567.026 433.181 567.747 433.665C581.602 442.593 589.678 453.513 591.747 466.123L591.773 466.287V466.451C591.504 473.44 591.045 481.109 590.544 489.233C590.322 492.843 590.1 496.527 589.885 500.247C590.14 501.062 590.18 502.229 589.38 503.705C585.958 510.025 566.289 520.982 533.278 525.542C516.114 528.153 503.74 529.367 494.351 529.367V529.353Z" fill="#CE44A2"/>
<path id="Vector_2" d="M399.94 412.644C404.737 412.644 407.158 418.506 403.94 420.124C359.646 442.378 460.838 487.869 496.813 489.426C501.247 489.89 505.703 490.126 510.162 490.131C525.729 490.131 541.347 487.149 555.155 479.804C580.031 467.397 575.562 453.84 562.522 442.826C560.049 440.735 562.158 434.531 565.307 434.531C565.861 434.542 566.4 434.715 566.857 435.029C578.409 442.473 587.853 452.517 590.129 466.375C589.737 476.557 588.915 488.335 588.227 500.487C590.598 505.517 569.471 518.873 533.046 523.909C515.617 526.546 503.569 527.717 494.351 527.717C471.031 527.717 465.929 520.28 438.289 510.695C419.642 502.502 398.162 491.295 389.257 480.906C375.98 465.455 361.798 458.182 359.213 457.091C356.627 456 359.98 454.909 362.122 452.829C364.264 450.749 371.489 432.371 375.213 425.582C379.151 419.193 388.187 415.273 398.457 412.822C398.942 412.704 399.44 412.644 399.94 412.644ZM399.94 409.371C399.183 409.373 398.429 409.463 397.693 409.64C384.66 412.76 376.402 417.415 372.442 423.866L372.398 423.935L372.362 424.004C370.675 427.077 368.34 432.327 366.082 437.407C363.984 442.135 360.817 449.255 359.806 450.524C359.282 450.99 358.727 451.419 358.144 451.807C356.718 452.815 354.762 454.193 355.024 456.626C355.14 457.698 355.751 459.171 357.933 460.102C358.078 460.164 372.704 466.647 386.769 483.037C396.566 494.447 419.475 506.004 436.969 513.691L437.089 513.742L437.213 513.786C446.344 516.953 452.9 519.847 458.686 522.4C470.406 527.571 478.147 530.989 494.347 530.989C503.82 530.989 516.267 529.767 533.522 527.146C551.857 524.6 564.773 520.258 572.376 517.051C578.006 514.677 587.886 509.887 590.82 504.469C591.806 502.651 591.787 501.127 591.547 500.069C591.755 496.433 591.973 492.815 592.187 489.306C592.682 481.178 593.147 473.502 593.416 466.502V466.171L593.362 465.844C591.209 452.753 582.889 441.48 568.635 432.277C567.65 431.62 566.495 431.266 565.311 431.258C562.493 431.258 559.998 433.302 558.795 436.589C557.544 440.007 558.18 443.437 560.416 445.317C567.18 451.029 570.318 456.367 569.74 461.178C569.089 466.6 563.693 471.88 553.696 476.866L553.656 476.884L553.62 476.906C541.217 483.502 526.595 486.847 510.166 486.847C505.817 486.841 501.472 486.612 497.147 486.16H497.049H496.951C483.271 485.567 458.831 478.08 437.515 467.953C426.242 462.6 416.544 456.858 409.449 451.342C401.893 445.473 397.38 439.942 396.395 435.342C396.031 433.604 394.889 428.324 405.406 423.04C407.98 421.757 409.187 418.989 408.478 416C407.995 414.103 406.893 412.422 405.347 411.222C403.8 410.022 401.898 409.372 399.94 409.375V409.371Z" fill="#17091D"/>
<path id="Vector_3" d="M460.481 519.637C441.692 512.833 402.219 496 389.255 480.906C375.979 465.455 361.797 458.182 359.212 457.091C356.626 456 359.979 454.909 362.121 452.829C364.186 450.833 370.662 434.211 375.212 425.582C376.728 425.346 377.826 425.989 378.281 427.862C381.07 439.273 362.99 453.546 417.797 481.091C445.982 495.273 462.135 509.357 460.481 519.637Z" fill="#9C398C"/>
<path id="Vector_4" d="M589.552 476.986C589.628 479.277 589.046 488.36 588.632 494.44C571.864 496.862 541.359 500.517 563.803 491.277C576.621 486.004 584.792 477.978 589.944 470.517C589.662 472.661 589.531 474.823 589.552 476.986Z" fill="#9C398C"/>
<path id="Vector_5" d="M541.676 522.345L539.934 503.272C539.732 501.013 540.31 498.753 541.57 496.867C542.831 494.982 544.7 493.585 546.865 492.909C566.763 486.607 584.127 469.978 589.799 464.127" stroke="#17091D" stroke-width="2.54545" stroke-linecap="round" stroke-linejoin="round"/>
<path id="Vector_6" d="M371.484 433.342C379.561 448.316 394.521 468.418 419.339 476.978C441.041 484.469 451.848 489.593 457.23 492.789C458.846 493.755 460.137 495.182 460.937 496.887C461.737 498.591 462.01 500.496 461.721 502.356L459.113 519.116" stroke="#17091D" stroke-width="2.54545" stroke-linecap="round" stroke-linejoin="round"/>
</g>
</g>
</g>
</svg>
