<svg width="1000" height="1000" viewBox="0 0 1000 1000" fill="none" xmlns="http://www.w3.org/2000/svg">
<g id="collar front2">
<g id="collar front2_2">
<g id="collar front2_3">
<g id="collar front">
<g id="shirt collar">
<path id="Vector" d="M424.383 491.273L431.061 553L551.186 693.455L560.996 652.728L593.333 518.546L583.523 451.637L544.054 465.091C544.054 465.091 528.02 472.364 500.636 473.909C473.251 475.455 424.383 491.273 424.383 491.273Z" fill="#FBDAFA"/>
<path id="Vector_2" d="M468.764 522.862C466.863 522.86 465.028 522.167 463.601 520.912C452.308 510.992 424.808 486.131 413.377 469.552C398.971 448.665 391.919 435.371 391.85 435.225L391.355 434.283L392.082 433.523C392.66 432.938 406.321 419.12 414.554 414.374C416.534 413.192 418.789 412.549 421.094 412.509C424.226 412.509 426.868 413.88 428.158 416.182C429.447 418.483 429.226 421.451 427.431 424.392C422.737 432.109 420.164 436.36 442.567 450.029C477.662 471.432 507.023 472.145 507.313 472.149L510.14 472.192L475.067 519.68C474.337 520.665 473.387 521.465 472.292 522.018C471.198 522.57 469.989 522.859 468.764 522.862Z" fill="#FBDAFA"/>
<path id="Vector_3" d="M421.111 413.964C426.198 413.964 429.544 418.16 426.198 423.637C421.111 432 418.568 437.091 441.821 451.273C477.711 473.16 507.301 473.604 507.301 473.604L473.896 518.815C473.371 519.525 472.705 520.119 471.939 520.558C471.173 520.997 470.325 521.273 469.447 521.367C468.57 521.462 467.682 521.373 466.841 521.106C465.999 520.839 465.222 520.401 464.558 519.818C453.084 509.746 425.885 485.131 414.571 468.727C400.038 447.669 393.134 434.546 393.134 434.546C393.134 434.546 407.141 420.338 415.298 415.637C417.056 414.579 419.06 414.003 421.111 413.964ZM421.111 411.055C418.55 411.094 416.045 411.805 413.844 413.117C405.44 417.957 391.645 431.909 391.063 432.502L389.566 434.018L390.558 435.902C390.845 436.444 397.72 449.422 412.177 470.378C423.698 487.106 451.304 512.051 462.636 522.015C463.602 522.863 464.733 523.502 465.957 523.89C467.182 524.279 468.474 524.409 469.751 524.272C471.029 524.136 472.264 523.735 473.379 523.096C474.494 522.457 475.464 521.594 476.229 520.56L509.634 475.349L512.998 470.793L507.341 470.709C507.272 470.709 499.976 470.553 488.484 467.8C477.893 465.255 461.459 459.88 443.329 448.822C433.156 442.64 427.527 437.851 426.078 434.226C425.035 431.618 426.078 429.469 428.676 425.182C430.721 421.822 430.994 418.295 429.424 415.502C427.854 412.709 424.763 411.055 421.111 411.055Z" fill="#17091D"/>
<path id="Vector_4" d="M555.12 510.138C553.234 510.138 552.213 507.698 549.768 501.804C545.8 492.255 539.162 476.276 528.244 473.462C527.723 473.336 527.253 473.057 526.894 472.659C526.535 472.262 526.304 471.766 526.232 471.235C526.159 470.704 526.248 470.164 526.487 469.685C526.726 469.206 527.104 468.81 527.572 468.549C531.354 466.425 536.8 464.491 542.065 462.618C548.325 460.393 554.782 458.091 558.317 455.549C559.45 454.727 560.537 454.033 561.587 453.367C566.55 450.185 569.544 448.276 567.913 439.549C567.644 438.124 568.367 435.833 569.518 434.458C570.47 433.309 571.462 433.065 572.127 433.065C573.722 433.065 575.07 434.364 576.124 436.916C583.754 455.287 569.221 483.993 561.383 499.411C559.374 503.375 557.783 506.509 557.274 508.102C556.751 509.782 555.81 510.138 555.12 510.138Z" fill="#FBDAFA"/>
<path id="Vector_5" d="M572.141 434.498C572.973 434.498 573.9 435.283 574.804 437.454C584.178 459.982 558.487 499.596 555.911 507.636C555.682 508.363 555.421 508.683 555.119 508.683C552.143 508.683 545.4 476.378 528.596 472.054C528.359 471.997 528.145 471.869 527.983 471.687C527.82 471.506 527.716 471.28 527.683 471.038C527.651 470.796 527.693 470.551 527.802 470.333C527.912 470.115 528.085 469.936 528.298 469.818C536.44 465.251 552.463 461.585 559.181 456.727C565.721 452 571.534 450.909 569.354 439.273C569.1 437.92 570.408 434.498 572.141 434.498ZM572.141 431.589C571.417 431.611 570.706 431.795 570.061 432.126C569.416 432.458 568.854 432.929 568.413 433.505C566.96 435.243 566.15 437.953 566.499 439.807C567.952 447.56 565.714 448.993 560.82 452.134C559.752 452.818 558.64 453.527 557.481 454.367C554.131 456.789 547.758 459.054 541.592 461.247C536.269 463.142 530.765 465.098 526.874 467.283C526.155 467.687 525.574 468.296 525.205 469.034C524.836 469.771 524.697 470.602 524.805 471.42C524.914 472.237 525.265 473.003 525.813 473.619C526.361 474.234 527.081 474.671 527.88 474.873C538.097 477.502 544.564 493.054 548.426 502.36C549.349 504.582 550.149 506.502 550.854 507.909C551.504 509.196 552.707 511.593 555.119 511.593C555.893 511.593 557.793 511.294 558.68 508.523C559.156 507.04 560.798 503.796 562.702 500.047C570.63 484.411 585.392 455.32 577.49 436.334C576.178 433.185 574.379 431.607 572.141 431.607V431.589Z" fill="#17091D"/>
</g>
<g id="tie">
<path id="Vector_6" d="M510.49 527.244C509.178 527.246 507.882 526.953 506.698 526.386C505.514 525.82 504.472 524.994 503.649 523.971L490.678 507.553C488.175 504.469 489.65 499.702 491.677 496.56L491.721 496.495L502.595 481.258C502.81 480.924 503.122 480.367 503.485 479.727C505.771 475.676 507.693 472.553 509.862 472.196L526.332 469.513L538.551 482.127C539.706 483.28 542.046 487.378 543.725 490.687C547.525 498.171 547.125 499.476 546.933 500.105V500.175L539.234 519.411C538.713 521.09 537.701 522.573 536.329 523.67C534.956 524.766 533.286 525.425 531.535 525.56L511.217 527.215C510.981 527.233 510.741 527.244 510.49 527.244Z" fill="#7E4282"/>
<path id="Vector_7" d="M525.75 471.272L537.377 483.272C539.194 485.09 545.941 497.767 545.37 499.636L537.671 518.872C537.252 520.25 536.428 521.47 535.307 522.373C534.186 523.276 532.82 523.822 531.386 523.938L511.072 525.581C510.875 525.581 510.683 525.607 510.49 525.607C509.422 525.606 508.368 525.367 507.404 524.907C506.44 524.447 505.59 523.778 504.917 522.949L491.96 506.545C490.002 504.13 491.364 500.065 493.05 497.454L503.95 482.181C505.04 480.476 508.125 474.145 510.127 473.818L525.75 471.272ZM526.909 467.767L525.223 468.043L509.6 470.589C506.693 471.061 504.648 474.345 502.061 478.927C501.738 479.501 501.429 480.047 501.24 480.349L490.391 495.552L490.343 495.614L490.303 495.679C487.985 499.272 486.361 504.807 489.406 508.589L502.352 524.978V524.996C503.331 526.212 504.57 527.193 505.979 527.865C507.388 528.537 508.93 528.884 510.49 528.879C510.77 528.879 511.053 528.879 511.333 528.843L531.647 527.199C533.712 527.04 535.683 526.266 537.306 524.978C538.929 523.69 540.13 521.947 540.756 519.97L548.386 500.854L548.44 500.723L548.48 500.589C548.869 499.316 548.64 497.894 547.641 495.349C546.914 493.465 545.886 491.374 545.167 489.952C544.803 489.225 541.533 482.85 539.695 480.981L528.068 468.981L526.88 467.756L526.909 467.767Z" fill="#17091D"/>
<path id="Vector_8" d="M507.298 525.887L498.316 636.545L537.92 675.818L554.996 684.181L566.303 627.047L536.248 523.545L507.298 525.887Z" fill="#7E4282" stroke="#17091D" stroke-width="3.27818" stroke-miterlimit="10"/>
</g>
<g id="collar">
<path id="Vector_9" d="M546.605 696.537C546.053 696.538 545.506 696.427 544.998 696.211C544.49 695.994 544.03 695.678 543.648 695.279L393.435 539.596C393.042 539.191 392.736 538.71 392.536 538.183C392.335 537.655 392.244 537.093 392.269 536.529C392.293 535.966 392.431 535.413 392.676 534.905C392.921 534.396 393.267 533.944 393.693 533.574L411.027 518.512C411.151 518.402 411.242 518.26 411.289 518.102C411.336 517.943 411.338 517.774 411.294 517.615C411.25 517.455 411.162 517.311 411.041 517.199C410.919 517.087 410.768 517.012 410.606 516.981L384.413 512.217C383.484 512.045 382.641 511.562 382.022 510.847C381.404 510.132 381.046 509.228 381.009 508.283C380.613 496.807 379.657 458.421 384.093 446.363C387.727 436.523 395.814 428.857 400.32 425.167C401.056 424.555 401.983 424.222 402.939 424.225C403.89 424.218 404.813 424.541 405.553 425.137C406.293 425.733 406.805 426.567 407.001 427.497C411.361 448.003 420.467 465.287 428.482 480.534C429.252 482.008 430.008 483.451 430.749 484.865C437.652 498.094 514.316 616.501 543.193 661.068C549.468 670.759 554.006 677.759 555.518 680.123C556.106 681.033 556.311 682.139 556.088 683.199C556.057 683.354 556.003 683.504 555.928 683.643L550.634 693.461C550.399 694.341 549.879 695.117 549.156 695.67C548.433 696.223 547.548 696.52 546.638 696.516L546.605 696.537Z" fill="#CE44A2"/>
<path id="Vector_10" d="M402.92 425.858C403.497 425.856 404.058 426.053 404.506 426.416C404.955 426.779 405.265 427.286 405.384 427.851C410.249 450.614 421.033 469.818 429.284 485.636C437.641 501.698 545.347 667.331 554.125 681.018C554.487 681.568 554.618 682.238 554.488 682.884L549.097 692.894C548.981 693.464 548.671 693.976 548.22 694.343C547.768 694.709 547.203 694.907 546.622 694.902C546.289 694.902 545.958 694.835 545.651 694.704C545.344 694.574 545.066 694.382 544.835 694.142L394.611 538.462C394.375 538.217 394.191 537.927 394.07 537.608C393.949 537.29 393.894 536.951 393.909 536.611C393.923 536.271 394.006 535.937 394.153 535.63C394.3 535.323 394.508 535.049 394.764 534.825L412.095 519.764C412.45 519.453 412.711 519.048 412.847 518.595C412.983 518.143 412.989 517.661 412.863 517.205C412.738 516.749 412.487 516.338 412.139 516.019C411.791 515.7 411.36 515.485 410.896 515.4L384.685 510.636C384.121 510.535 383.609 510.243 383.233 509.81C382.858 509.376 382.642 508.828 382.621 508.254C382.294 498.8 381.204 458.927 385.608 446.953C389.081 437.498 396.871 430.105 401.333 426.458C401.779 426.088 402.34 425.884 402.92 425.884M402.92 422.611C401.588 422.616 400.297 423.08 399.265 423.924C394.633 427.724 386.298 435.614 382.552 445.818C378.01 458.16 378.966 496.811 379.365 508.364C379.417 509.678 379.912 510.936 380.77 511.932C381.628 512.929 382.798 513.605 384.089 513.851L408.756 518.309L392.623 532.338C392.028 532.853 391.544 533.485 391.202 534.194C390.859 534.903 390.665 535.675 390.631 536.461C390.597 537.248 390.724 538.034 391.004 538.77C391.284 539.506 391.712 540.177 392.26 540.742L542.462 696.411C543.159 697.132 544.032 697.659 544.994 697.941C545.957 698.222 546.976 698.247 547.951 698.015C548.926 697.782 549.824 697.299 550.557 696.614C551.289 695.928 551.83 695.064 552.127 694.105L557.337 684.433C557.49 684.154 557.599 683.853 557.66 683.542C557.971 682.064 557.685 680.522 556.865 679.254C555.35 676.891 550.812 669.884 544.511 660.182C515.685 615.636 439.039 497.284 432.18 484.124C431.438 482.705 430.681 481.262 429.909 479.793C421.941 464.636 412.912 447.458 408.577 427.171C408.309 425.87 407.598 424.703 406.567 423.868C405.536 423.033 404.247 422.581 402.92 422.589V422.611Z" fill="#17091D"/>
<path id="Vector_11" d="M528.077 724.04C527.796 724.034 527.52 723.967 527.268 723.841C527.017 723.715 526.796 723.534 526.624 723.312C526.446 723.093 526.32 722.836 526.257 722.56C526.194 722.285 526.195 721.998 526.26 721.723C528.139 713.8 537.745 673.538 542.272 658.989C547.468 642.294 564.073 575.8 566.274 555.447C570.271 518.552 573.367 486.083 570.998 462.331C570.002 452.338 568.818 446.621 567.975 443.581C567.091 440.405 567.493 437.009 569.094 434.127C570.751 431.218 572.727 430.6 574.064 430.6C577.192 430.6 582.334 433.247 590.865 456.145C592.747 461.196 598.368 470.498 603.323 478.691C609.991 489.727 613.766 496.098 613.86 498.745C613.936 500.691 612.665 503.672 602.095 509.472C601.674 509.704 601.323 510.044 601.078 510.458C600.833 510.872 600.704 511.344 600.704 511.825C600.704 512.306 600.833 512.778 601.078 513.192C601.323 513.606 601.674 513.946 602.095 514.178C612.345 519.803 617.998 524.767 618.892 528.927C619.375 531.178 617.126 539.876 612.207 554.778C607.287 569.68 600.751 587.487 593.76 605.065C582.951 632.232 562.27 680.836 545.11 701.294L529.599 723.251C529.427 723.494 529.199 723.693 528.934 723.83C528.669 723.967 528.375 724.039 528.077 724.04Z" fill="#CE44A2"/>
<path id="Vector_12" d="M574.072 432.243C577.302 432.243 582.197 437.549 589.332 456.727C593.271 467.294 612.059 494.207 612.222 498.829C612.321 501.44 606.449 505.243 601.322 508.065C600.644 508.437 600.078 508.985 599.684 509.651C599.29 510.317 599.082 511.077 599.082 511.851C599.082 512.625 599.29 513.385 599.684 514.051C600.078 514.717 600.644 515.264 601.322 515.636C607.815 519.2 616.31 524.662 617.309 529.298C618.944 536.909 573.346 665.185 543.829 700.32L528.267 722.305C528.246 722.337 528.218 722.362 528.185 722.38C528.152 722.398 528.116 722.407 528.078 722.407C528.042 722.407 528.007 722.4 527.974 722.384C527.942 722.369 527.913 722.346 527.891 722.318C527.869 722.29 527.853 722.258 527.845 722.223C527.837 722.187 527.837 722.151 527.846 722.116C529.611 714.68 539.301 674.033 543.832 659.491C548.821 643.454 565.658 576.363 567.896 555.636C572.1 516.727 574.944 485.513 572.619 462.182C571.602 452 570.374 446.182 569.545 443.167C568.77 440.407 569.116 437.451 570.508 434.945C571.355 433.458 572.517 432.243 574.062 432.243M574.062 428.971C572.274 428.971 569.702 429.723 567.671 433.334C565.86 436.595 565.403 440.438 566.399 444.033C567.209 447.007 568.383 452.629 569.371 462.509C571.725 486.105 568.644 518.487 564.648 555.287C562.468 575.56 545.892 641.865 540.708 658.52C536.17 673.105 526.538 713.429 524.666 721.367C524.543 721.882 524.538 722.418 524.652 722.935C524.766 723.452 524.996 723.936 525.324 724.352C525.652 724.767 526.07 725.102 526.547 725.332C527.023 725.562 527.545 725.681 528.074 725.68C528.633 725.678 529.184 725.543 529.68 725.286C530.176 725.028 530.603 724.656 530.927 724.2L546.412 702.323C563.71 681.658 584.449 632.934 595.284 605.702C602.289 588.091 608.854 570.2 613.767 555.32C621.32 532.44 620.743 529.76 620.496 528.614C619.878 525.731 617.549 522.749 613.381 519.494C610.065 516.982 606.557 514.735 602.888 512.774C602.719 512.687 602.578 512.554 602.48 512.39C602.382 512.226 602.333 512.038 602.336 511.847C602.333 511.659 602.382 511.474 602.478 511.313C602.575 511.152 602.714 511.02 602.881 510.934C614.145 504.753 615.598 501.28 615.492 498.713C615.383 495.803 612.288 490.411 604.716 477.876C599.793 469.731 594.216 460.494 592.388 455.589C589.005 446.498 585.823 439.742 582.941 435.465C579.988 431.102 577.088 428.982 574.072 428.982L574.062 428.971Z" fill="#17091D"/>
</g>
</g>
</g>
</g>
</g>
</svg>
