<svg width="1000" height="1000" viewBox="0 0 1000 1000" fill="none" xmlns="http://www.w3.org/2000/svg">
<g id="hair1">
<g id="hair">
<g id="hair 1">
<path id="Vector" d="M648.745 288.556C648.645 288.557 648.545 288.547 648.447 288.527C648.136 288.469 647.849 288.322 647.619 288.104C647.39 287.886 647.228 287.606 647.154 287.298C644.666 276.868 638.847 259.62 633.827 257.745C631.615 256.916 630.195 256.582 628.931 256.582C627.213 256.582 625.495 257.204 622.374 258.33C619.966 259.202 616.668 260.394 611.989 261.772C610.466 262.236 608.885 262.481 607.293 262.499C594.017 262.48 589.523 244.945 589.356 244.219C584.943 226.705 579.444 213.644 573.011 205.405C565.946 196.338 559.407 195.055 555.078 194.208C554.613 194.117 554.173 194.03 553.77 193.943C551.697 193.482 549.535 193.641 547.551 194.401C546.647 194.737 545.718 195.003 544.773 195.197C543.652 195.425 542.512 195.54 541.369 195.542C539.653 195.547 537.947 195.271 536.32 194.724C532.463 193.423 527.406 192.765 521.29 192.765C509.114 192.765 497.091 195.378 493.433 197.185C493.168 197.305 492.917 197.455 492.685 197.632C491.595 198.569 489.924 202.243 488.01 206.499C483.48 216.559 476.633 231.76 463.444 244.924C449.641 258.694 433.576 262.931 425.228 264.236C423.168 264.576 421.086 264.774 418.999 264.828H418.828L418.102 264.752L417.938 264.726L415.759 264.272C415.604 264.666 415.4 265.038 415.152 265.381C409.061 274.004 367.267 280.804 365.491 281.088C365.405 281.102 365.319 281.109 365.233 281.109C364.88 281.11 364.536 280.996 364.253 280.785C363.97 280.574 363.763 280.277 363.662 279.938C363.562 279.599 363.574 279.237 363.697 278.906C363.82 278.575 364.046 278.292 364.343 278.1C367.87 275.818 370.718 272.929 372.799 270.832C374.252 269.378 375.316 268.288 376.268 267.703C369.279 266.289 362.628 262.273 356.497 255.764C351.534 250.397 347.435 244.29 344.347 237.662C344.239 237.413 344.195 237.141 344.218 236.871C344.242 236.601 344.332 236.34 344.48 236.113C344.629 235.886 344.832 235.7 345.07 235.571C345.309 235.441 345.576 235.373 345.847 235.373C345.935 235.373 346.022 235.38 346.108 235.395C350.082 236.074 354.104 236.439 358.135 236.485C365.08 236.485 369.112 235.133 371.273 233.996C371.292 233.996 371.273 233.93 371.273 233.916H371.233C357.129 231.993 348.143 223.504 343.083 216.715C337.7 209.486 335.596 202.785 335.509 202.505C335.434 202.26 335.418 202.002 335.461 201.749C335.504 201.497 335.605 201.258 335.757 201.053C335.909 200.847 336.107 200.679 336.335 200.563C336.563 200.448 336.815 200.387 337.071 200.386C337.245 200.385 337.418 200.414 337.583 200.47C343.098 202.357 348.878 203.349 354.706 203.41C378.8 203.41 392.624 184.211 397.452 175.954C397.608 175.688 397.699 175.389 397.717 175.081C397.735 174.773 397.68 174.465 397.555 174.183C397.43 173.901 397.24 173.653 397.001 173.459C396.761 173.265 396.479 173.131 396.177 173.068C385.058 170.713 375.999 163.826 369.25 152.593C365.178 145.822 362.785 138.747 361.491 134C360.703 131.218 360.096 128.387 359.675 125.525C359.636 125.217 359.685 124.904 359.817 124.623C359.949 124.342 360.159 124.104 360.421 123.938C360.684 123.772 360.988 123.685 361.299 123.686C361.609 123.687 361.913 123.777 362.174 123.945C362.345 124.054 379.639 134.876 404.31 134.876C418.439 134.876 432.279 131.377 445.453 124.472C470.408 111.41 490.556 108.663 503.041 108.663C506.885 108.651 510.725 108.924 514.53 109.48C510.113 106.748 505.013 103.869 504.955 103.837C504.663 103.672 504.429 103.423 504.284 103.121C504.138 102.819 504.089 102.48 504.143 102.15C504.196 101.819 504.35 101.513 504.583 101.273C504.816 101.032 505.117 100.869 505.445 100.806C508.943 100.126 512.347 99.6136 515.616 99.2829H515.659C518.872 98.9494 522.099 98.7796 525.329 98.7741C539.288 98.7741 551.453 102.128 561.485 108.743C567.942 112.986 573.41 118.571 577.515 125.118C576.116 114.252 568.071 98.8976 567.998 98.7414C567.866 98.4916 567.801 98.2119 567.81 97.9296C567.818 97.6474 567.899 97.3721 568.046 97.1305C568.192 96.889 568.398 96.6895 568.645 96.5515C568.891 96.4134 569.169 96.3415 569.451 96.3428C569.648 96.3421 569.844 96.3778 570.028 96.4482C587.068 102.892 598.524 111.868 604.082 123.134C607.744 130.597 608.769 139.082 606.988 147.203C606.986 147.217 606.986 147.23 606.988 147.243C606.915 147.607 606.835 147.927 606.759 148.246C606.681 148.567 606.673 148.9 606.735 149.224C606.798 149.548 606.93 149.854 607.122 150.122C607.305 150.388 607.543 150.611 607.82 150.776C608.097 150.942 608.407 151.046 608.728 151.081C615.373 151.849 621.814 153.864 627.714 157.019C636.493 161.744 643.38 168.834 648.179 178.058C655.312 191.762 663.798 198.482 669.664 201.706C675.999 205.187 680.724 205.456 680.768 205.456C681.016 205.469 681.257 205.537 681.474 205.656C681.692 205.776 681.879 205.943 682.023 206.145C682.166 206.347 682.262 206.579 682.304 206.823C682.345 207.068 682.33 207.319 682.261 207.557C681.513 209.988 680.338 212.267 678.792 214.287C674.749 219.688 668.621 223.518 664.204 225.782C663.684 226.048 663.223 226.419 662.852 226.871C662.481 227.323 662.207 227.847 662.047 228.41C661.854 229.081 661.826 229.789 661.963 230.474C665.203 246.548 661.822 261.281 658.415 270.814C654.728 281.128 650.325 287.586 650.14 287.854C649.984 288.078 649.775 288.259 649.531 288.382C649.288 288.504 649.018 288.564 648.745 288.556Z" fill="#CE44A2"/>
<path id="Vector_2" d="M569.431 97.9746C607.691 112.442 607.637 136.21 605.337 146.906C605.268 147.24 605.192 147.56 605.119 147.865C604.987 148.406 604.972 148.969 605.074 149.516C605.176 150.063 605.393 150.582 605.71 151.039C606.028 151.496 606.439 151.881 606.917 152.167C607.394 152.453 607.927 152.634 608.479 152.699C617.284 153.716 636.005 158.317 646.666 178.807C660.949 206.252 680.632 207.084 680.632 207.084C679.939 209.33 678.852 211.435 677.421 213.299C673.495 218.543 667.432 222.254 663.397 224.318C662.676 224.685 662.039 225.198 661.525 225.823C661.011 226.449 660.632 227.173 660.411 227.952C660.146 228.875 660.107 229.849 660.298 230.79C666.426 261.19 648.729 286.917 648.729 286.917C648.729 286.917 642.093 259.09 634.382 256.208C632.05 255.336 630.444 254.943 628.933 254.943C625.413 254.943 622.286 257.036 611.53 260.198C610.157 260.615 608.73 260.831 607.295 260.842C595.145 260.842 590.928 243.808 590.928 243.808C585.842 223.674 579.965 211.656 574.288 204.381C566.075 193.841 558.306 193.245 554.107 192.326C553.223 192.13 552.32 192.031 551.415 192.032C549.896 192.034 548.39 192.311 546.969 192.849C546.142 193.157 545.292 193.4 544.426 193.576C543.414 193.783 542.383 193.888 541.35 193.889C539.81 193.893 538.281 193.648 536.82 193.162C532.461 191.708 526.944 191.116 521.27 191.116C509.443 191.116 496.933 193.612 492.691 195.702C492.302 195.88 491.937 196.103 491.601 196.367C487.395 199.936 481.641 224.412 462.259 243.75C448.855 257.135 433.28 261.299 424.962 262.604C422.989 262.935 420.997 263.132 418.998 263.193L418.271 263.117L414.406 262.31C416.012 271.083 366.016 279.343 365.239 279.47C371.359 275.506 375.318 270.021 377.294 268.989L377.345 268.964C377.627 268.828 377.86 268.607 378.009 268.331C378.158 268.056 378.217 267.741 378.176 267.43C378.136 267.119 377.999 266.829 377.785 266.601C377.57 266.373 377.289 266.218 376.982 266.158C369.136 264.687 362.671 259.904 357.702 254.627C352.872 249.393 348.878 243.446 345.86 236.994C349.921 237.683 354.03 238.048 358.148 238.084C365.166 238.084 369.478 236.758 372.046 235.409C372.429 235.215 372.721 234.877 372.856 234.468C372.933 234.23 372.957 233.979 372.926 233.731C372.896 233.482 372.811 233.244 372.677 233.033C372.544 232.821 372.366 232.641 372.156 232.506C371.946 232.371 371.709 232.284 371.461 232.251C358.337 230.503 349.721 222.89 344.396 215.737C341.264 211.57 338.794 206.944 337.073 202.022C343.463 204.141 349.336 205.046 354.709 205.046C379.434 205.046 393.575 185.832 398.863 176.779C399.15 176.29 399.317 175.74 399.35 175.174C399.382 174.608 399.28 174.042 399.051 173.524C398.822 173.005 398.473 172.548 398.033 172.191C397.593 171.834 397.075 171.586 396.521 171.469C384.109 168.842 375.954 160.567 370.655 151.75C366.797 145.336 364.447 138.623 363.07 133.579C362.31 130.869 361.723 128.114 361.312 125.329C361.312 125.329 378.838 136.519 404.334 136.519C416.775 136.519 431.108 133.855 446.237 125.929C470.283 113.329 489.825 110.302 503.039 110.302C507.605 110.274 512.163 110.674 516.653 111.498C516.731 111.512 516.81 111.519 516.889 111.519C517.052 111.52 517.213 111.485 517.36 111.416C517.507 111.347 517.636 111.245 517.739 111.12C517.848 110.997 517.928 110.852 517.975 110.695C518.021 110.538 518.033 110.372 518.01 110.21C517.986 110.048 517.928 109.893 517.839 109.756C517.749 109.618 517.631 109.502 517.492 109.415C512.694 106.322 505.753 102.408 505.753 102.408C509.245 101.728 512.583 101.227 515.767 100.907C518.937 100.575 522.122 100.407 525.309 100.402C556.591 100.402 571.026 117.603 576.358 126.387C576.48 126.592 576.648 126.767 576.849 126.896C577.084 127.045 577.358 127.123 577.637 127.121C577.854 127.125 578.07 127.083 578.27 126.996C578.47 126.91 578.648 126.781 578.794 126.62C578.94 126.458 579.049 126.267 579.114 126.059C579.18 125.852 579.2 125.633 579.173 125.417C577.917 114.092 569.421 97.971 569.421 97.971M569.421 94.7002C568.856 94.6977 568.3 94.8415 567.808 95.1176C567.315 95.3937 566.903 95.7927 566.61 96.2757C566.318 96.7588 566.155 97.3094 566.138 97.874C566.122 98.4385 566.251 98.9978 566.515 99.4974C566.576 99.6137 571.36 108.757 574.143 117.777C570.725 113.77 566.758 110.266 562.359 107.369C552.058 100.577 539.592 97.1315 525.309 97.1315C522.034 97.1378 518.76 97.31 515.502 97.6476H515.436C512.142 97.9819 508.673 98.5016 505.128 99.1921C504.472 99.3203 503.871 99.6466 503.406 100.127C502.941 100.608 502.634 101.219 502.527 101.879C502.421 102.539 502.519 103.217 502.808 103.819C503.098 104.422 503.565 104.921 504.147 105.25C504.176 105.268 505.527 106.028 507.416 107.133C505.98 107.06 504.519 107.024 503.032 107.024C494.565 107.079 486.136 108.145 477.922 110.2C467.046 112.853 455.873 117.163 444.711 123.014C431.776 129.792 418.195 133.23 404.326 133.23C380.066 133.23 363.23 122.662 363.063 122.553C362.538 122.219 361.928 122.042 361.306 122.042C360.683 122.043 360.074 122.221 359.55 122.556C359.025 122.891 358.607 123.369 358.345 123.934C358.082 124.499 357.987 125.126 358.068 125.744C358.497 128.681 359.114 131.587 359.917 134.444C361.236 139.288 363.684 146.517 367.854 153.447C370.989 158.67 374.686 163.052 378.845 166.472C383.762 170.547 389.597 173.364 395.845 174.678C395.902 174.69 395.954 174.719 395.994 174.762C396.039 174.81 396.068 174.871 396.076 174.936C396.085 175.001 396.072 175.067 396.041 175.125C391.359 183.12 377.956 201.771 354.709 201.771C349.056 201.711 343.449 200.747 338.101 198.915C337.77 198.804 337.423 198.747 337.073 198.748C336.562 198.748 336.057 198.868 335.601 199.098C335.144 199.329 334.748 199.664 334.444 200.076C334.14 200.488 333.937 200.965 333.851 201.47C333.765 201.974 333.799 202.492 333.95 202.981C335.777 208.261 338.417 213.224 341.774 217.689C347.974 226.015 355.94 231.662 365.061 234.254C362.781 234.643 360.472 234.829 358.159 234.81C354.215 234.77 350.28 234.419 346.39 233.759C346.218 233.73 346.043 233.716 345.867 233.716C345.325 233.716 344.791 233.851 344.314 234.109C343.837 234.367 343.431 234.74 343.134 235.194C342.837 235.648 342.657 236.169 342.611 236.709C342.565 237.25 342.654 237.794 342.871 238.291C346.034 245.092 350.237 251.357 355.33 256.862C360.778 262.655 366.655 266.551 372.83 268.492C372.467 268.855 372.075 269.247 371.657 269.673C369.518 271.853 366.855 274.539 363.477 276.73C362.888 277.114 362.439 277.677 362.195 278.337C361.952 278.996 361.927 279.716 362.125 280.391C362.323 281.065 362.732 281.658 363.293 282.082C363.854 282.505 364.536 282.736 365.239 282.741C365.414 282.741 365.589 282.727 365.762 282.701C365.867 282.701 376.891 280.884 388.468 278.064C409.811 272.893 414.686 268.888 416.498 266.322L416.636 266.122L417.599 266.322C417.708 266.344 417.817 266.362 417.926 266.373L418.652 266.449C418.765 266.449 418.881 266.467 418.994 266.467C421.157 266.406 423.314 266.196 425.449 265.839C433.988 264.508 450.432 260.166 464.562 246.068C477.969 232.698 484.903 217.329 489.465 207.161C490.973 203.814 492.847 199.656 493.7 198.875C493.835 198.788 493.974 198.709 494.118 198.638C497.718 196.865 509.777 194.39 521.256 194.39C527.111 194.39 532.127 195.037 535.76 196.265C537.557 196.867 539.44 197.171 541.335 197.167C542.586 197.17 543.835 197.048 545.062 196.803C546.092 196.593 547.103 196.303 548.088 195.935C549.778 195.279 551.623 195.135 553.395 195.52C553.823 195.615 554.266 195.702 554.739 195.793C558.843 196.611 565.018 197.814 571.705 206.394C577.997 214.455 583.394 227.312 587.753 244.611C588.653 247.914 589.998 251.079 591.749 254.02C595.744 260.623 601.113 264.116 607.284 264.116C609.032 264.105 610.769 263.843 612.442 263.338C617.164 261.95 620.491 260.747 622.921 259.868C625.867 258.803 627.491 258.218 628.922 258.218C629.979 258.218 631.232 258.523 633.245 259.275C633.608 259.406 636.768 260.911 641.359 273.703C643.902 280.768 645.54 287.611 645.558 287.68C645.705 288.295 646.026 288.855 646.484 289.291C646.942 289.727 647.516 290.021 648.137 290.137C648.335 290.173 648.536 290.191 648.737 290.191C649.266 290.191 649.788 290.062 650.257 289.815C650.726 289.568 651.128 289.211 651.428 288.774C651.621 288.498 656.15 281.869 659.899 271.359C663.375 261.634 666.826 246.588 663.509 230.147C663.423 229.719 663.44 229.277 663.56 228.857C663.657 228.509 663.825 228.185 664.054 227.906C664.283 227.627 664.567 227.399 664.89 227.236C669.47 224.892 675.812 220.916 680.044 215.265C681.715 213.092 682.986 210.638 683.796 208.018C683.942 207.54 683.975 207.034 683.895 206.54C683.814 206.046 683.621 205.577 683.331 205.169C683.043 204.766 682.665 204.435 682.228 204.201C681.791 203.967 681.306 203.837 680.81 203.821C680.56 203.803 676.128 203.457 670.229 200.168C664.617 197.039 656.484 190.534 649.594 177.298C644.643 167.78 637.531 160.472 628.457 155.577C622.374 152.324 615.734 150.247 608.882 149.453C608.791 149.443 608.703 149.414 608.624 149.367C608.545 149.32 608.477 149.256 608.425 149.181C608.37 149.103 608.333 149.014 608.316 148.921C608.299 148.827 608.302 148.731 608.327 148.639V148.617C608.403 148.305 608.486 147.949 608.563 147.571V147.523C610.418 139.049 609.348 130.195 605.526 122.407C599.78 110.76 588.025 101.511 570.587 94.9147C570.217 94.7752 569.826 94.7038 569.431 94.7039L569.421 94.7002Z" fill="#17091D"/>
<path id="Vector_3" d="M648.744 286.921C648.744 286.921 642.107 259.094 634.396 256.212C626.684 253.33 626.95 255.667 611.512 260.209C596.075 264.752 590.909 243.819 590.909 243.819C585.824 223.686 579.947 211.667 574.27 204.392C582.577 206.608 597.88 211.638 620.466 222.686L633.473 232.052L644.37 234.959L660.411 227.963C660.146 228.886 660.107 229.86 660.298 230.801C666.441 261.194 648.744 286.921 648.744 286.921Z" fill="#9C398C"/>
<path id="Vector_4" d="M462.489 210.835L459.144 220.371L451.48 233.534L441.116 245.618L425.374 258.214L421.905 260.573C418.204 261.151 418.999 263.193 418.999 263.193L418.273 263.117L414.408 262.31C416.013 271.083 366.018 279.343 365.24 279.471C371.361 275.506 375.32 270.022 377.296 268.989L377.347 268.964C377.629 268.828 377.861 268.607 378.01 268.331C378.16 268.056 378.218 267.741 378.178 267.43C378.138 267.119 378.001 266.829 377.786 266.601C377.572 266.373 377.291 266.218 376.984 266.158C369.138 264.687 362.672 259.904 357.703 254.627C424.313 268.092 462.489 210.835 462.489 210.835Z" fill="#9C398C"/>
<path id="Vector_5" d="M415.001 200.79C414.707 201.288 396.135 232.498 372.866 234.468C372.943 234.231 372.967 233.979 372.936 233.731C372.906 233.483 372.821 233.244 372.687 233.033C372.554 232.821 372.376 232.642 372.166 232.507C371.956 232.372 371.719 232.284 371.471 232.251C358.347 230.503 349.731 222.89 344.406 215.738C358.631 219.077 393.984 223.682 415.001 200.79Z" fill="#9C398C"/>
<path id="Vector_6" d="M442.973 142.098C442.366 142.574 413.362 166.429 398.342 172.472C397.85 171.965 397.218 171.615 396.526 171.469C384.114 168.842 375.96 160.567 370.66 151.75C377.227 153.811 413.983 162.58 442.973 142.098Z" fill="#9C398C"/>
<path id="Vector_7" d="M544.431 193.58C541.903 194.113 539.279 193.969 536.825 193.162C523.385 188.623 498.957 192.609 492.695 195.706C496.629 184.407 506.364 161.544 520.766 161.573C535.168 161.602 541.961 183.011 544.431 193.58Z" fill="#9C398C" stroke="#17091D" stroke-width="3.27273" stroke-miterlimit="10"/>
<path id="Vector_8" d="M529.544 115.626H506.66C468.837 116.956 488.193 127.016 428.078 143.09C390.345 153.182 371.853 142.69 363.059 133.572C362.299 130.862 361.711 128.107 361.301 125.322C361.301 125.322 400.109 150.093 446.24 125.922C480.896 107.751 506.21 109.51 516.657 111.501C516.854 111.548 517.061 111.539 517.253 111.475C517.446 111.411 517.616 111.294 517.746 111.138L529.544 115.626Z" fill="#D969BD"/>
<path id="Vector_9" d="M680.647 207.088C679.954 209.334 678.867 211.438 677.436 213.302C660.085 211.02 651.316 201.433 635.21 176.234C615.828 145.899 589.748 158.997 589.355 159.178L606.064 150.093C607.517 151.459 606.5 150.878 606.428 151.183C605.872 153.476 606.26 151.641 608.607 151.91C617.412 152.927 636.02 158.321 646.681 178.803C660.964 206.256 680.647 207.088 680.647 207.088Z" fill="#D969BD"/>
<path id="Vector_10" d="M578.672 144.932C577.433 153.941 570.946 170.499 570.946 170.499C570.946 170.499 570.83 146.458 557.194 122.629C547.652 105.959 527.202 101.863 515.785 100.911C553.732 97.0042 570.528 116.76 576.376 126.39C576.498 126.596 576.666 126.77 576.867 126.899C578.16 133.23 579.275 140.538 578.672 144.932Z" fill="#D969BD"/>
<path id="Vector_11" d="M471.858 138.99C471.858 138.99 448.789 141.672 437.35 164.96C425.912 188.248 419.723 191.886 419.723 191.886C419.723 191.886 441.942 185.345 446.991 169.903C452.04 154.461 471.858 138.99 471.858 138.99Z" fill="#D969BD"/>
<path id="Vector_12" d="M576.824 210.603C576.824 210.603 598.618 254.576 643.66 235.315C643.66 235.315 622.203 230.921 614.408 213.873" stroke="#17091D" stroke-width="3.27273" stroke-linecap="round" stroke-linejoin="round"/>
<path id="Vector_13" d="M636.305 220.356C636.305 220.356 650.642 231.161 662.912 226.229" stroke="#17091D" stroke-width="3.27273" stroke-linecap="round" stroke-linejoin="round"/>
<path id="Vector_14" d="M549.246 183.673C549.246 183.673 561.476 139.307 513.939 141.153C466.403 142.999 453.73 190.24 446.988 200.783C440.246 211.326 427.736 247.817 381.504 248.107" stroke="#17091D" stroke-width="3.27273" stroke-linecap="round" stroke-linejoin="round"/>
<path id="Vector_15" d="M469.306 196.792C469.306 196.792 453.897 248.398 416.273 262.571" stroke="#17091D" stroke-width="3.27273" stroke-linecap="round" stroke-linejoin="round"/>
<path id="Vector_16" d="M550.166 144.933C550.166 144.933 553.904 181.733 545.586 193.522" stroke="#17091D" stroke-width="3.27273" stroke-linecap="round" stroke-linejoin="round"/>
<path id="Vector_17" d="M458.41 138.645C458.41 138.645 410.427 171.116 398.113 173.896" stroke="#17091D" stroke-width="3.27273" stroke-linecap="round" stroke-linejoin="round"/>
<path id="Vector_18" d="M576.823 123.381C582.998 143.776 569.602 173.776 569.602 173.776C569.602 173.776 593.444 153.726 606.608 151.001" stroke="#17091D" stroke-width="3.27273" stroke-linecap="round" stroke-linejoin="round"/>
</g>
</g>
</g>
</svg>
