<svg width="1000" height="1000" viewBox="0 0 1000 1000" fill="none" xmlns="http://www.w3.org/2000/svg">
<g id="hair2">
<g id="hair">
<g id="hair 4">
<path id="Vector" d="M420.246 324.814C419.907 324.816 419.576 324.712 419.298 324.517C419.021 324.321 418.812 324.044 418.699 323.724C418.655 323.593 418.608 323.419 418.47 322.892C418.35 322.448 418.183 321.801 417.965 321.031C416.309 315.024 413.454 306.251 409.269 298.55C403.821 288.512 397.831 283.421 391.471 283.421C387.871 283.421 384.032 285.089 380.065 288.378C379.214 289.122 378.123 289.536 376.992 289.544C369.935 289.544 363.262 272.518 361.943 261.256C361.046 253.624 360.879 247.235 361.435 242.1C358.387 246.53 354.835 252.752 354.671 257.872C354.657 258.236 354.664 258.6 354.693 258.962C354.773 260.053 354.711 260.892 354.148 261.506C353.984 261.684 353.785 261.826 353.564 261.924C353.343 262.022 353.104 262.074 352.863 262.077C351.46 262.077 350.792 260.594 350.229 259.075C347.385 251.421 341.119 219.099 362.459 200.753L362.841 200.43C362.741 199.329 362.711 198.224 362.75 197.119C362.945 191.451 364.671 185.942 367.744 181.176C372.259 174.147 379.546 168.754 389.411 165.131V165.102C389.469 164.873 389.535 164.633 389.615 164.375C389.615 164.375 389.764 163.877 389.785 163.812C389.807 163.746 389.829 163.663 389.858 163.586C389.863 163.567 389.869 163.547 389.876 163.528C389.876 163.528 389.934 163.339 389.953 163.288C392.132 156.605 399.397 140.506 419.571 135.479L419.756 135.436C420.076 135.356 420.399 135.283 420.726 135.214L421.071 135.134L421.274 135.094L421.714 135.003C423.101 134.724 424.602 134.491 426.142 134.324C426.389 134.295 426.639 134.269 426.886 134.247H427.01C427.213 134.226 427.42 134.207 427.627 134.193L427.882 134.175C428.121 134.153 428.361 134.138 428.608 134.12C429.015 133.793 429.676 133.277 430.58 132.623L431.133 132.223L431.43 132.012L431.47 131.987C431.536 131.936 431.601 131.892 431.67 131.845C437.42 127.826 449.312 120.725 464.201 118.399C467.39 117.893 470.613 117.637 473.842 117.632C474.477 117.632 475.12 117.632 475.756 117.661C476.519 117.679 477.303 117.719 478.088 117.777L478.161 117.745C479.167 117.308 481.288 116.436 484.238 115.48C489.897 113.645 498.673 111.454 508.356 111.454C512.467 111.415 516.57 111.819 520.594 112.66C523.258 113.242 525.867 114.05 528.392 115.077C528.883 114.95 529.671 114.764 530.713 114.561H530.757C534.364 113.879 538.027 113.537 541.698 113.54C550.343 113.54 562.867 115.495 573.717 124.748C574.541 124.839 576.26 125.053 578.581 125.474L579.627 125.674H579.707L580.586 125.856L580.691 125.878L581.508 126.052C581.962 126.15 582.445 126.263 582.939 126.379L583.419 126.496H583.47L584.196 126.681L584.316 126.714L584.897 126.866C585.075 126.91 585.282 126.965 585.493 127.026L586.292 127.248L587.211 127.513L587.534 127.611L587.731 127.67C589.045 128.073 590.324 128.498 591.544 128.949L591.853 129.065C606.346 134.476 614.875 143.351 616.553 154.737C617.029 155.239 617.89 156.191 618.954 157.521L619.016 157.601C619.258 157.921 619.52 158.259 619.801 158.615C619.826 158.651 619.855 158.687 619.88 158.727L619.906 158.757L620.018 158.909C626.034 167.01 637.675 187.747 619.034 208.502C622.385 210.772 625.317 213.606 627.701 216.878C632.14 222.929 636.902 233.49 634.374 249.444C634.321 249.782 634.164 250.095 633.924 250.338C633.684 250.581 633.374 250.743 633.037 250.8C632.946 250.817 632.853 250.826 632.761 250.825C632.464 250.829 632.172 250.751 631.916 250.6C631.66 250.45 631.45 250.232 631.308 249.971C629.434 246.523 626.815 241.976 624.308 238.011C625.717 243.109 626.311 248.398 626.07 253.682V253.704C625.452 266.278 619.917 277.744 609.615 287.778C609.377 288.011 609.074 288.165 608.746 288.221C608.418 288.276 608.08 288.23 607.779 288.089C607.478 287.947 607.227 287.717 607.06 287.429C606.892 287.141 606.817 286.809 606.844 286.477C606.869 286.201 609.056 258.686 607.549 238.455C606.572 225.332 604.461 220.567 602.863 218.881C602.408 218.403 601.923 217.955 601.41 217.54C601.257 217.409 601.105 217.293 600.952 217.176C600.723 217.002 600.48 216.813 600.269 216.686L600.2 216.642L599.932 216.468L599.892 216.442C599.79 216.377 599.692 216.311 599.587 216.253C598.654 215.69 597.669 215.22 596.644 214.85L596.579 214.829C596.484 214.792 596.394 214.756 596.299 214.727L596.212 214.698L595.925 214.603H595.882C595.718 214.549 595.555 214.502 595.395 214.454L594.999 214.349C594.607 214.244 594.211 214.153 593.8 214.073H593.76C593.677 214.073 593.597 214.04 593.513 214.029H593.462C593.099 213.96 592.798 213.913 592.522 213.877L592.068 213.818C591.089 213.704 590.104 213.647 589.118 213.648C588.875 213.648 588.631 213.648 588.392 213.648H588.094H587.76H587.665H587.509H587.247H587.211C586.896 213.665 586.588 213.69 586.285 213.724C586.161 213.724 586.056 213.724 585.954 213.757H585.918L585.297 213.826L584.97 213.869L584.578 213.924H584.541L584.276 213.96H584.225C584.102 213.96 583.982 213.996 583.862 214.022H583.775C583.704 214.03 583.634 214.042 583.564 214.058H583.513L583.15 214.127H583.096L582.627 214.222L582.115 214.331L581.752 214.418L581.548 214.465L581.454 214.487C580.938 214.614 580.557 214.723 580.324 214.792C579.986 214.894 579.797 214.96 579.776 214.967C579.603 215.027 579.421 215.058 579.238 215.058C578.881 215.058 578.534 214.941 578.25 214.725C577.966 214.509 577.761 214.206 577.665 213.862L575.664 206.786L543.114 222.984L542.802 223.144C542.576 223.257 542.328 223.317 542.075 223.318C541.765 223.319 541.461 223.231 541.2 223.064L521.004 210.191V213.048C521.004 213.482 520.832 213.898 520.525 214.204C520.219 214.511 519.803 214.683 519.37 214.683C519.271 214.684 519.173 214.675 519.075 214.658L518.32 214.52L473.511 206.423L476.025 210.468L476.94 211.921L477.024 212.063C477.174 212.311 477.255 212.595 477.26 212.884C477.264 213.174 477.191 213.46 477.049 213.713C476.907 213.965 476.7 214.176 476.45 214.322C476.2 214.468 475.915 214.545 475.625 214.545C475.558 214.551 475.49 214.551 475.422 214.545L464.227 213.092L454.14 211.783C452.273 216.508 445.103 234.49 437.496 250.349C432.836 260.064 428.801 267.347 425.51 271.991C417.086 283.835 417.933 305.379 421.22 320.228C421.401 321.049 421.608 321.907 421.83 322.772C421.935 323.181 421.877 323.615 421.668 323.983C421.459 324.35 421.116 324.622 420.711 324.742C420.561 324.789 420.404 324.813 420.246 324.814Z" fill="#CE44A2"/>
<path id="Vector_2" d="M508.379 113.024C512.367 113.007 516.344 113.421 520.243 114.26C522.994 114.858 525.685 115.71 528.281 116.803C528.281 116.803 529.273 116.509 531.023 116.171C534.541 115.504 538.114 115.169 541.695 115.172C550.667 115.172 562.683 117.283 573.039 126.321C573.039 126.321 575.087 126.496 578.284 127.081C578.618 127.143 578.967 127.208 579.326 127.281H579.392L580.249 127.455L581.146 127.648C581.604 127.746 582.072 127.855 582.556 127.971L583.042 128.088L583.798 128.277L584.481 128.455L585.047 128.607L585.861 128.833L586.769 129.098C586.94 129.145 587.107 129.2 587.281 129.251C588.494 129.614 589.74 130.036 591.004 130.501L591.259 130.595C601.792 134.527 613.278 141.894 614.985 155.497C615.929 156.466 616.82 157.485 617.655 158.55C617.916 158.884 618.196 159.24 618.483 159.622V159.64L618.527 159.698C618.57 159.756 618.618 159.814 618.661 159.876C625.098 168.54 635.929 188.757 616.427 208.869C616.427 208.869 637.448 219.386 632.726 249.208C632.726 249.208 622.326 230.071 618.36 227.767C618.36 227.767 625.156 238.764 624.418 253.624C623.928 263.596 620.06 275.309 608.436 286.608C608.436 286.608 610.674 258.93 609.141 238.335C608.414 228.824 606.918 220.822 604.008 217.754C603.508 217.228 602.976 216.734 602.414 216.275C602.247 216.137 602.079 216.006 601.909 215.876C601.658 215.683 601.4 215.512 601.142 215.323L600.779 215.08C600.648 214.992 600.521 214.912 600.39 214.836C599.373 214.223 598.297 213.712 597.179 213.31C597.041 213.259 596.907 213.208 596.769 213.164C596.631 213.121 596.497 213.07 596.358 213.03L595.814 212.866L595.385 212.75C594.953 212.634 594.52 212.536 594.092 212.452L593.729 212.387C593.365 212.321 593.035 212.263 592.69 212.219L592.221 212.158C591.181 212.035 590.134 211.975 589.087 211.976C588.825 211.976 588.571 211.976 588.316 211.976H588.015H587.634C587.565 211.972 587.495 211.972 587.427 211.976H587.092C586.751 211.976 586.417 212.023 586.09 212.056L585.727 212.092L585.073 212.165L584.749 212.209C584.593 212.227 584.441 212.249 584.285 212.274L583.965 212.321C583.812 212.343 583.663 212.368 583.514 212.398L583.198 212.452L582.817 212.601C582.628 212.634 582.454 212.67 582.269 212.71L581.76 212.819L581.397 212.903L581.063 212.983C580.565 213.106 580.158 213.219 579.853 213.31C579.45 213.43 579.232 213.506 579.232 213.506L579.054 212.866L576.904 205.18L576.697 204.453L576.025 204.788H576.003L542.382 221.505L542.058 221.668L541.761 221.479L520.341 207.84L519.36 207.215V213.052L518.604 212.914L471.605 204.41L470.185 204.152L470.941 205.365L471.053 205.543L474.642 211.315L475.557 212.768L475.63 212.888H475.543L464.442 211.434L453.088 209.959C453.088 209.959 444.911 231.088 436.016 249.605C431.976 258.025 427.788 265.9 424.163 271.006C415.028 283.853 416.557 306.745 419.612 320.544C419.812 321.449 420.022 322.321 420.233 323.146C420.171 322.965 419.939 322.027 419.528 320.544C417.011 311.422 407.832 281.738 391.476 281.735C387.709 281.735 383.564 283.308 379.028 287.07C378.467 287.568 377.747 287.848 376.997 287.858C371.454 287.858 364.869 272.097 363.557 261.016C362.468 251.687 362.184 241.697 364.556 235.253C364.556 235.253 353.336 248.082 353.027 257.785C353.014 258.204 353.022 258.624 353.053 259.043C353.122 259.966 353.053 260.398 352.849 260.398C351.073 260.398 340.136 222.025 363.507 201.949C363.852 201.655 364.2 201.364 364.556 201.081C364.369 199.773 364.306 198.45 364.367 197.13C364.607 189.862 367.949 174.358 390.775 166.33C390.775 166.33 390.775 166.309 390.775 166.269C390.796 166.16 390.851 165.905 390.956 165.542C390.956 165.516 390.956 165.491 390.974 165.462C391.025 165.266 391.087 165.044 391.16 164.793L391.272 164.43C391.272 164.379 391.305 164.321 391.323 164.266C391.341 164.212 391.37 164.11 391.399 164.026C391.398 164.02 391.398 164.014 391.399 164.008C391.398 163.996 391.398 163.984 391.399 163.972C391.417 163.91 391.439 163.841 391.461 163.776C393.488 157.554 400.44 141.872 419.95 137.031C419.997 137.031 420.044 137.01 420.095 136.999H420.117C420.422 136.922 420.731 136.853 421.043 136.784L421.384 136.708C421.581 136.668 421.773 136.624 421.973 136.588C423.348 136.309 424.785 136.088 426.284 135.923L427.069 135.843H427.102C427.302 135.821 427.505 135.803 427.708 135.789L427.955 135.77C428.26 135.745 428.566 135.723 428.878 135.705H428.983H429.194L429.317 135.6L429.35 135.574C429.652 135.327 430.385 134.738 431.501 133.928L432.042 133.539L432.332 133.332H432.35L432.554 133.186C438.028 129.363 449.749 122.284 464.417 119.994C467.54 119.482 470.699 119.217 473.865 119.202C474.482 119.202 475.1 119.202 475.724 119.231C476.607 119.253 477.501 119.3 478.398 119.373L478.837 119.177C479.695 118.813 481.787 117.937 484.765 116.971C490.297 115.175 498.895 113.024 508.376 113.024M508.376 109.753C498.477 109.753 489.524 111.988 483.752 113.86C480.995 114.754 478.939 115.579 477.824 116.04C477.152 115.997 476.48 115.968 475.819 115.949C475.158 115.931 474.511 115.92 473.861 115.92C470.547 115.926 467.239 116.189 463.966 116.709C448.783 119.108 436.64 126.347 430.756 130.468L430.556 130.606L430.513 130.639L430.189 130.868L429.648 131.26C428.969 131.751 428.424 132.169 428.01 132.489L427.799 132.507L427.505 132.529C427.294 132.543 427.087 132.561 426.884 132.583H426.735L425.987 132.659C424.41 132.834 422.87 133.07 421.413 133.365L420.967 133.455L420.792 133.492H420.749L420.386 133.572L419.47 133.782L419.358 133.808L419.176 133.855C410.095 136.119 402.525 140.804 396.703 147.774C393.035 152.204 390.226 157.28 388.417 162.74L388.37 162.885C388.345 162.958 388.323 163.027 388.301 163.1C388.279 163.172 388.261 163.223 388.243 163.281C388.225 163.339 388.199 163.423 388.181 163.488L388.141 163.619C388.123 163.685 388.101 163.746 388.083 163.808C388.065 163.87 388.083 163.841 388.083 163.855C378.276 167.599 370.986 173.112 366.394 180.253C363.162 185.268 361.349 191.065 361.145 197.029C361.109 198.068 361.145 198.966 361.175 199.689C352.072 207.64 346.729 219.313 345.708 233.454C344.847 245.353 347.194 255.477 348.716 259.584C349.206 260.911 350.23 263.676 352.893 263.676C353.359 263.675 353.821 263.577 354.248 263.389C354.676 263.202 355.06 262.928 355.377 262.586C356.405 261.496 356.449 260.042 356.358 258.81C356.334 258.508 356.328 258.204 356.34 257.901C356.431 255.034 357.771 251.622 359.518 248.365C359.538 252.729 359.817 257.088 360.354 261.419C361.033 267.234 363.107 274.35 365.762 280.005C369.238 287.404 373.027 291.151 377.022 291.151C378.533 291.139 379.991 290.593 381.138 289.61C384.803 286.568 388.29 285.027 391.497 285.027C398.595 285.027 404.305 292.793 407.843 299.306C411.955 306.869 414.766 315.514 416.401 321.438C416.619 322.216 416.782 322.841 416.898 323.281C417.04 323.811 417.098 324.029 417.164 324.222C417.453 325 418.027 325.639 418.77 326.01C419.512 326.38 420.368 326.454 421.163 326.216C421.959 325.979 422.634 325.447 423.052 324.73C423.47 324.013 423.6 323.164 423.415 322.354C423.197 321.496 422.994 320.657 422.819 319.857C421.076 311.886 420.329 303.729 420.596 295.574C420.999 285.932 423.157 278.1 426.84 272.922C430.196 268.197 434.276 260.834 438.976 251.036C446.074 236.249 452.779 219.63 455.198 213.55L464.039 214.709L475.14 216.163H475.241C475.376 216.18 475.512 216.189 475.648 216.188C476.228 216.188 476.797 216.033 477.298 215.74C477.798 215.447 478.212 215.027 478.496 214.521C478.78 214.015 478.925 213.443 478.915 212.863C478.906 212.283 478.742 211.716 478.441 211.22L478.369 211.1L478.347 211.064L477.432 209.61L476.861 208.691L518.038 216.141L518.786 216.275C518.98 216.311 519.177 216.33 519.374 216.33C520.22 216.33 521.034 216.003 521.643 215.416C522.253 214.829 522.612 214.028 522.644 213.183L539.981 224.231L540.017 224.256L540.315 224.445C540.793 224.748 541.342 224.922 541.907 224.949C542.472 224.977 543.035 224.857 543.54 224.601L543.856 224.441L574.622 209.13L575.916 213.76L576.094 214.393C576.285 215.081 576.696 215.688 577.265 216.121C577.834 216.553 578.528 216.788 579.243 216.788C579.614 216.789 579.983 216.726 580.333 216.602L580.805 216.457C581.023 216.392 581.379 216.29 581.873 216.17L581.96 216.148L582.116 216.108L582.236 216.079L582.359 216.05L582.508 216.017L582.944 215.923H582.995C583.126 215.894 583.253 215.868 583.384 215.846L583.5 215.825L583.82 215.766L583.921 215.745H584.019C584.077 215.745 584.139 215.727 584.197 215.712L584.484 215.665H584.579L584.753 215.639H584.789H584.869L585.185 215.596H585.254L585.541 215.556L586.104 215.494H586.177L586.435 215.472H586.449C586.784 215.436 587.052 215.414 587.299 215.403H587.357H587.565H587.735H587.851C587.95 215.403 588.044 215.403 588.142 215.403H588.436C588.661 215.403 588.887 215.403 589.119 215.403C590.038 215.402 590.956 215.456 591.869 215.563L592.268 215.614H592.312C592.555 215.643 592.824 215.687 593.158 215.752H593.256L593.413 215.781H593.485C593.849 215.854 594.212 215.937 594.553 216.028H594.593L594.956 216.123L595.392 216.253L595.479 216.279L595.686 216.348L595.741 216.37L595.814 216.392L596.021 216.468L596.079 216.486H596.097C597.012 216.816 597.893 217.234 598.727 217.736L598.774 217.765C598.843 217.805 598.916 217.849 598.996 217.903L599.068 217.951L599.312 218.107L599.366 218.143C599.555 218.274 599.769 218.423 599.962 218.572C600.154 218.721 600.238 218.787 600.376 218.899C600.835 219.273 601.269 219.676 601.676 220.106C602.613 221.091 604.894 224.87 605.922 238.68C607.419 258.777 605.243 286.172 605.221 286.444C605.168 287.108 605.318 287.772 605.651 288.348C605.985 288.924 606.486 289.385 607.088 289.668C607.523 289.874 607.998 289.981 608.48 289.981C609.332 289.981 610.15 289.648 610.761 289.054C621.367 278.718 627.07 266.885 627.709 253.886V253.853C627.825 251.464 627.77 249.07 627.542 246.69C628.933 249.118 629.863 250.826 629.878 250.855C630.159 251.372 630.574 251.803 631.08 252.104C631.585 252.404 632.163 252.563 632.751 252.563C632.937 252.563 633.123 252.547 633.307 252.516C633.979 252.4 634.599 252.076 635.079 251.589C635.558 251.103 635.873 250.479 635.98 249.804C638.595 233.291 633.634 222.312 629.006 216.006C626.875 213.063 624.326 210.446 621.44 208.24C624.949 204.039 627.499 199.602 629.039 195.004C630.686 190.079 631.201 184.845 630.546 179.693C629.395 170.452 624.905 162.783 621.331 157.968C621.287 157.903 621.24 157.841 621.193 157.783C621.153 157.725 621.117 157.677 621.084 157.637C620.815 157.274 620.55 156.943 620.317 156.642L620.248 156.554V156.533C619.377 155.442 618.628 154.592 618.109 154.021C616.187 142.257 607.343 133.125 592.457 127.561L592.279 127.495L592.228 127.477C592.192 127.459 592.152 127.448 592.116 127.433C590.874 126.979 589.573 126.543 588.262 126.14H588.222L588.048 126.089L587.684 125.983L586.755 125.711L585.934 125.486C585.73 125.427 585.523 125.369 585.316 125.318L584.76 125.173L584.626 125.14L583.834 124.94C583.656 124.897 583.471 124.853 583.311 124.817C582.752 124.682 582.287 124.573 581.858 124.483L581.03 124.304L580.928 124.283C580.616 124.217 580.318 124.155 580.024 124.101L579.937 124.083L578.898 123.883C576.929 123.519 575.371 123.309 574.412 123.196C563.271 113.896 550.533 111.93 541.721 111.93C537.954 111.928 534.195 112.278 530.493 112.977H530.428C529.658 113.126 529.022 113.267 528.535 113.384C526.076 112.416 523.544 111.648 520.962 111.087C516.828 110.19 512.609 109.743 508.379 109.753H508.376Z" fill="#17091D"/>
<path id="Vector_3" d="M419.927 256.938C425.065 254.03 430.455 251.59 436.03 249.648C431.99 258.068 427.802 265.944 424.177 271.05C415.042 283.896 416.571 306.788 419.626 320.587H419.542C416.455 309.354 403.269 267.008 379.042 287.102C373.212 291.935 365.046 273.524 363.586 261.048C370.168 250.509 388.813 230.121 433.051 230.005C433.051 230.005 402.176 242.259 396.215 250.389C396.215 250.389 433.788 237.829 439.23 238.92C439.23 238.92 428.409 250.734 419.927 256.938Z" fill="#9C398C"/>
<path id="Vector_4" d="M618.688 160.105C618.495 173.479 616.08 197.435 602.858 215.752C602.808 215.82 602.745 215.879 602.673 215.923C602.601 215.967 602.521 215.997 602.437 216.01C602.353 216.023 602.268 216.02 602.185 216C602.103 215.98 602.025 215.944 601.957 215.893C601.706 215.701 601.448 215.53 601.191 215.341L600.827 215.098C600.7 215.014 600.569 214.934 600.439 214.854C599.421 214.241 598.345 213.73 597.228 213.328L596.817 213.182L596.407 213.048L595.862 212.884L595.433 212.768C595.001 212.652 594.569 212.554 594.14 212.47L593.777 212.405C593.414 212.339 593.083 212.281 592.738 212.237L592.269 212.176C590.974 212.025 589.669 211.968 588.365 212.005H588.063H587.682C587.613 212.001 587.544 212.001 587.475 212.005H587.141C586.799 212.005 586.465 212.052 586.138 212.085L585.775 212.121L585.121 212.194L584.798 212.237C584.642 212.256 584.489 212.277 584.333 212.303L584.013 212.35C583.861 212.372 583.712 212.397 583.563 212.426L583.247 212.481L582.818 212.601L582.27 212.71L581.761 212.819L581.398 212.902L581.064 212.982C580.566 213.106 580.159 213.219 579.854 213.31C579.773 213.334 579.687 213.342 579.602 213.332C579.518 213.323 579.436 213.297 579.361 213.256C579.287 213.215 579.221 213.159 579.169 213.092C579.116 213.025 579.078 212.948 579.055 212.866L576.905 205.18C576.878 205.092 576.833 205.012 576.773 204.943C576.713 204.874 576.639 204.819 576.556 204.78C576.473 204.742 576.382 204.722 576.291 204.722C576.2 204.721 576.109 204.74 576.026 204.776H576.004L542.383 221.494C542.285 221.542 542.177 221.565 542.069 221.56C541.96 221.556 541.855 221.524 541.762 221.468L520.342 207.84C520.244 207.78 520.133 207.747 520.019 207.744C519.904 207.742 519.791 207.769 519.692 207.825C519.592 207.881 519.508 207.962 519.45 208.06C519.392 208.159 519.361 208.271 519.361 208.385V212.281C519.361 212.375 519.341 212.468 519.301 212.554C519.262 212.639 519.204 212.715 519.132 212.775C519.06 212.835 518.975 212.879 518.884 212.903C518.793 212.927 518.698 212.93 518.605 212.913L471.606 204.409C471.486 204.389 471.362 204.403 471.25 204.45C471.137 204.497 471.04 204.576 470.971 204.676C470.901 204.776 470.861 204.894 470.856 205.016C470.851 205.138 470.881 205.259 470.942 205.365L471.054 205.543L470.066 205.009C470.016 204.984 469.971 204.951 469.932 204.911C468.181 203.236 428.61 165.6 408.396 165.956C399.606 166.108 394.553 166.199 391.647 166.254C391.555 166.255 391.463 166.236 391.379 166.199C391.294 166.162 391.219 166.107 391.157 166.038C391.095 165.97 391.049 165.888 391.022 165.8C390.994 165.712 390.986 165.619 390.997 165.527C390.997 165.502 390.997 165.476 391.015 165.447C391.066 165.251 391.128 165.029 391.201 164.778L391.313 164.415C391.313 164.364 391.346 164.306 391.364 164.251C391.382 164.197 391.411 164.095 391.44 164.012C391.439 164.006 391.439 163.999 391.44 163.993C391.439 163.981 391.439 163.969 391.44 163.957C391.491 163.823 391.586 163.71 391.709 163.637C397.615 160.097 412.483 158.858 422.246 163.892C433.703 169.794 457.306 185.726 466.405 192.504C466.526 192.597 466.677 192.643 466.829 192.635C466.982 192.626 467.126 192.563 467.237 192.458C467.347 192.352 467.416 192.21 467.43 192.057C467.445 191.905 467.405 191.753 467.317 191.628L453.15 170.64C453.065 170.507 453.031 170.347 453.056 170.191C453.08 170.034 453.162 169.892 453.285 169.792C453.408 169.693 453.563 169.641 453.721 169.649C453.879 169.657 454.029 169.722 454.142 169.834L474.952 191.406C475.06 191.518 475.204 191.586 475.359 191.599C475.514 191.613 475.668 191.569 475.793 191.478C475.918 191.386 476.006 191.252 476.04 191.101C476.075 190.949 476.053 190.791 475.98 190.654L462.224 165.153C462.147 165.013 462.124 164.85 462.161 164.694C462.197 164.539 462.29 164.402 462.422 164.312C462.553 164.221 462.713 164.183 462.871 164.204C463.03 164.225 463.174 164.304 463.277 164.426L485.108 189.84C485.201 189.95 485.329 190.026 485.471 190.054C485.613 190.083 485.76 190.062 485.889 189.997C486.018 189.931 486.121 189.824 486.182 189.693C486.242 189.562 486.257 189.414 486.223 189.273C483.68 178.766 470.604 138.358 419.827 138.728C419.699 138.728 419.573 138.69 419.467 138.618C419.361 138.545 419.279 138.443 419.231 138.324C419.183 138.205 419.173 138.074 419.2 137.949C419.227 137.823 419.291 137.709 419.384 137.62L419.885 137.147C419.96 137.074 420.053 137.021 420.154 136.995H420.176C420.481 136.919 420.79 136.849 421.102 136.78L421.444 136.704C421.64 136.664 421.832 136.621 422.032 136.584C423.407 136.306 424.845 136.084 426.344 135.919L427.128 135.839H427.161C427.361 135.817 427.564 135.799 427.767 135.785L428.014 135.766C428.32 135.741 428.625 135.719 428.937 135.701H429.042C429.162 135.694 429.278 135.654 429.377 135.585L429.409 135.559C429.711 135.312 430.444 134.723 431.56 133.913L432.101 133.524L432.391 133.317H432.41C432.546 133.226 432.713 133.191 432.875 133.219C450.343 136.344 492.808 149.431 514.635 203.744C514.668 203.832 514.72 203.912 514.788 203.977C514.855 204.042 514.937 204.092 515.025 204.122C515.114 204.152 515.209 204.163 515.302 204.152C515.395 204.141 515.485 204.11 515.565 204.06C515.679 203.994 515.769 203.893 515.822 203.772C515.875 203.652 515.888 203.517 515.859 203.388C515.612 202.102 515.34 200.688 515.046 199.183C515.046 199.158 515.046 199.136 515.046 199.111C512.942 188.382 509.739 173.075 507.349 166.334C507.299 166.197 507.299 166.047 507.346 165.909C507.394 165.771 507.487 165.654 507.61 165.576C507.733 165.499 507.879 165.466 508.024 165.482C508.169 165.499 508.303 165.565 508.406 165.669C512.557 169.812 520.93 178.995 525.322 189.535C525.381 189.678 525.491 189.795 525.631 189.864C525.77 189.933 525.93 189.948 526.08 189.909C526.23 189.869 526.361 189.776 526.448 189.647C526.535 189.518 526.572 189.362 526.553 189.207L523.317 165.073C523.297 164.916 523.337 164.758 523.427 164.628C523.517 164.498 523.651 164.406 523.805 164.369C523.958 164.333 524.12 164.354 524.259 164.428C524.398 164.503 524.505 164.626 524.559 164.775L535.347 195.876C535.4 196.021 535.503 196.143 535.638 196.218C535.773 196.293 535.93 196.317 536.081 196.286C536.232 196.255 536.367 196.17 536.461 196.047C536.555 195.925 536.602 195.772 536.593 195.618C535.39 179.584 527.712 125.823 478.838 119.205C479.696 118.842 481.788 117.966 484.766 116.999C499.659 115.938 528.928 122.433 542.437 184.519C542.466 184.66 542.541 184.787 542.651 184.88C542.76 184.972 542.898 185.026 543.041 185.031C543.185 185.036 543.326 184.992 543.441 184.907C543.557 184.823 543.641 184.701 543.679 184.563L547.276 171.92C547.319 171.771 547.414 171.643 547.544 171.559C547.674 171.474 547.83 171.44 547.983 171.462C548.136 171.483 548.276 171.56 548.378 171.676C548.48 171.793 548.536 171.943 548.536 172.098V211.71C548.532 211.833 548.564 211.955 548.629 212.06C548.693 212.164 548.787 212.248 548.899 212.299L548.95 212.321C549.093 212.372 549.25 212.37 549.392 212.316C549.534 212.261 549.652 212.157 549.724 212.023C553.331 205.481 564.042 185.493 568.074 172.323C568.123 172.177 568.222 172.053 568.354 171.974C568.486 171.894 568.641 171.865 568.793 171.891C568.945 171.917 569.082 171.996 569.18 172.115C569.278 172.234 569.33 172.383 569.328 172.537C568.964 182.241 568.034 197.185 565.644 206.652C565.6 206.792 565.606 206.942 565.66 207.078C565.714 207.215 565.813 207.328 565.941 207.4C566.068 207.472 566.217 207.498 566.361 207.474C566.506 207.449 566.637 207.376 566.734 207.266C574.293 199.798 596.432 173.831 582.15 137.333C580.817 133.924 579.665 130.882 578.677 128.167C578.639 128.066 578.628 127.957 578.643 127.849C578.659 127.742 578.702 127.641 578.768 127.555C578.833 127.469 578.92 127.401 579.019 127.357C579.118 127.314 579.227 127.296 579.335 127.306H579.4L580.257 127.48L581.154 127.673C581.612 127.771 582.081 127.88 582.564 127.997L583.051 128.113L583.806 128.302L584.489 128.48L585.056 128.633L585.869 128.858L586.777 129.123C586.948 129.17 587.115 129.225 587.289 129.276C588.503 129.639 589.749 130.061 591.013 130.526C591.094 130.559 591.169 130.608 591.231 130.671C591.294 130.733 591.343 130.808 591.376 130.889C595.68 141.149 598.481 154.599 594.834 169.986C590.043 190.211 587.569 199.365 586.363 203.494C586.322 203.636 586.332 203.789 586.39 203.926C586.449 204.062 586.553 204.174 586.685 204.243C586.816 204.311 586.968 204.332 587.113 204.301C587.259 204.271 587.389 204.191 587.482 204.075C591.579 198.867 600.086 187.22 603.134 176.695C603.175 176.55 603.266 176.424 603.391 176.339C603.516 176.255 603.667 176.217 603.817 176.233C603.967 176.249 604.107 176.318 604.211 176.427C604.315 176.536 604.378 176.679 604.387 176.829L605.201 187.234C605.21 187.371 605.263 187.501 605.352 187.605C605.441 187.71 605.561 187.783 605.694 187.814C605.828 187.844 605.967 187.832 606.093 187.777C606.219 187.723 606.324 187.629 606.392 187.51C608.851 183.327 614.997 172.032 617.402 159.978C617.425 159.863 617.479 159.757 617.557 159.67C617.636 159.584 617.737 159.521 617.849 159.487C617.961 159.454 618.08 159.452 618.193 159.482C618.307 159.511 618.41 159.571 618.491 159.654V159.672L618.528 159.716C618.624 159.823 618.681 159.961 618.688 160.105Z" fill="#9C398C"/>
<path id="Vector_5" d="M624.447 253.639C623.957 263.611 620.088 275.324 608.465 286.623C608.465 286.623 610.702 258.945 609.17 238.35C614.055 241.261 620.23 246.12 624.447 253.639Z" fill="#9C398C"/>
<path id="Vector_6" d="M475.633 212.212L475.56 212.797V212.906L464.459 211.453C458.005 207.568 448.001 202.458 433.065 196.818C400.396 184.505 363.422 202.629 363.422 202.629L363.538 201.967C363.883 201.673 364.232 201.382 364.588 201.099C364.401 199.791 364.338 198.468 364.399 197.148L364.588 196.091C426.381 173.076 467.856 205.478 474.648 211.333C475.298 211.896 475.633 212.212 475.633 212.212Z" fill="#D969BD"/>
<path id="Vector_7" d="M548.964 212.292C548.844 212.655 548.768 212.844 548.75 212.895L548.913 212.27C562.16 160.697 528.281 116.799 528.281 116.799C528.281 116.799 529.273 116.505 531.024 116.167C568.564 151.76 551.176 205.95 548.964 212.292Z" fill="#D969BD"/>
<path id="Vector_8" d="M517.208 210.566C516.673 208.335 516.126 206.154 515.569 204.024C501.138 149.075 478.269 127.95 464.48 119.951C468.202 119.353 471.973 119.109 475.741 119.224C499.01 136.108 510.633 178.523 515.05 199.075C515.05 199.1 515.05 199.122 515.05 199.147C516.474 205.794 517.142 210.133 517.208 210.566Z" fill="#D969BD"/>
<path id="Vector_9" d="M543.133 131.002C543.133 131.002 558.225 156.943 554.902 182.608" stroke="#17091D" stroke-width="2.32941" stroke-linecap="round" stroke-linejoin="round"/>
<path id="Vector_10" d="M456.086 140.393C456.086 140.393 482.239 147.577 503.02 181.096" stroke="#17091D" stroke-width="2.32941" stroke-linecap="round" stroke-linejoin="round"/>
<path id="Vector_11" d="M589.762 190.795C589.762 190.795 599.322 164.12 596.256 149.929" stroke="#17091D" stroke-width="2.32941" stroke-linecap="round" stroke-linejoin="round"/>
<path id="Vector_12" d="M447.423 195.425C447.423 195.425 416.842 183.959 394.391 188.738" stroke="#17091D" stroke-width="2.32941" stroke-linecap="round" stroke-linejoin="round"/>
</g>
</g>
</g>
</svg>
