<svg width="1000" height="1000" viewBox="0 0 1000 1000" fill="none" xmlns="http://www.w3.org/2000/svg">
<g id="head2">
<g id="head2_2">
<g id="5 head">
<path id="Vector" d="M497.066 560.955C493.213 560.957 489.371 560.527 485.613 559.672C472.614 556.706 461.677 551.291 449.041 541.54C446.017 539.201 445.792 536.643 446.137 534.904C447.277 529.038 448.732 462.536 448.79 455.015C448.809 452.778 448.812 446.976 448.79 440.898C448.79 434.084 448.732 427.416 448.678 422.642C448.627 418.419 448.565 415.719 448.5 414.371L448.348 411.379L450.939 412.862C451.339 413.092 452.954 413.879 454.667 414.709C461.437 417.989 464.595 419.603 465.416 420.39C466.563 421.327 475.235 424.074 478.941 425.244C482.451 426.337 482.934 426.523 483.275 426.727C486.027 428.407 488.985 429.66 492.122 430.987C494.481 431.985 496.924 433.02 499.505 434.321C503.64 436.405 505.618 437.335 506.402 437.335C506.691 437.313 506.977 437.256 507.252 437.163C508.232 436.901 509.716 436.5 512.918 436.5C514.21 436.5 515.706 436.566 517.357 436.697C520.53 436.73 522.102 438.789 523.253 440.297C524.24 441.587 524.705 442.119 525.485 442.119C525.846 442.107 526.202 442.033 526.538 441.9L528.763 441.102L528.723 443.475C528.723 444.331 528.723 445.588 528.748 447.013C528.825 450.493 529.013 454.749 529.268 458.673C529.434 461.286 529.631 472.586 529.874 485.671C530.237 505.217 530.756 534.733 531.304 537.149C532.233 539.999 531.667 542.783 529.699 545.202C521.496 555.248 512.522 560.069 500.598 560.831C499.418 560.915 498.231 560.955 497.066 560.955Z" fill="#996CB3"/>
<path id="Vector_2" d="M450.134 414.286C451.528 415.084 463.155 420.481 464.291 421.574C465.928 423.17 481.715 427.703 482.441 428.133C487.349 431.136 492.757 432.75 498.776 435.786C503.782 438.307 505.31 438.974 506.399 438.974C507.64 438.974 508.37 438.139 512.911 438.139C514.091 438.139 515.521 438.194 517.267 438.336H517.292C521.79 438.336 521.946 443.751 525.464 443.751C526.02 443.743 526.57 443.637 527.09 443.438C527.09 444.29 527.09 445.533 527.115 447.042C527.184 450.168 527.358 454.442 527.638 458.786C528.081 465.709 528.785 534.729 529.743 537.641C530.518 539.982 530.082 542.159 528.437 544.17C521.387 552.803 513.303 558.382 500.486 559.202C499.336 559.279 498.194 559.317 497.059 559.315C493.328 559.32 489.608 558.903 485.969 558.072C471.972 554.88 461.118 548.791 450.032 540.239C448.133 538.781 447.367 537.11 447.734 535.225C448.936 529.052 450.37 461.493 450.421 455.029C450.439 452.908 450.442 447.319 450.421 440.894C450.421 434.809 450.37 427.973 450.308 422.624C450.261 418.834 450.203 415.788 450.127 414.286M446.558 408.456L446.863 414.439C446.932 415.758 446.99 418.448 447.041 422.649C447.117 429.208 447.143 436.886 447.154 440.869C447.172 446.929 447.154 452.726 447.154 454.967C447.096 462.281 445.625 528.939 444.529 534.561C444.166 536.347 444.166 539.805 448.039 542.804C460.879 552.705 471.997 558.218 485.25 561.239C489.126 562.121 493.088 562.565 497.062 562.561C498.26 562.561 499.487 562.521 500.692 562.441C507.346 562.015 513.085 560.379 518.233 557.431C522.792 554.825 526.836 551.258 530.938 546.218C533.261 543.372 533.929 540.097 532.869 536.744C532.342 533.523 531.827 504.736 531.482 485.634C531.235 471.984 531.043 461.22 530.872 458.556C530.622 454.639 530.433 450.409 530.357 446.951C530.324 445.548 530.317 444.312 530.331 443.474L530.411 438.737L526.001 440.351C525.857 440.407 525.707 440.446 525.554 440.468C525.191 440.107 524.86 439.716 524.563 439.298C523.365 437.728 521.365 435.108 517.441 435.057C515.768 434.926 514.251 434.86 512.929 434.86C509.513 434.86 507.905 435.294 506.842 435.589L506.41 435.698C505.593 435.552 502.261 433.876 500.257 432.863C497.625 431.537 495.175 430.491 492.775 429.485C489.697 428.181 486.79 426.934 484.154 425.338C483.639 425.029 483.141 424.861 479.472 423.699C476.321 422.704 468.019 420.073 466.454 419.104C465.46 418.233 463.118 416.997 455.415 413.251C453.88 412.504 452.148 411.659 451.785 411.455L446.566 408.456H446.558Z" fill="#020201"/>
<path id="Vector_3" d="M527.637 458.786C522.798 460.325 517.757 461.126 512.681 461.162C498.216 461.228 483.493 458.382 470.722 452.289C464.35 449.25 458.567 446.228 453.371 443.223C452.322 442.537 451.336 441.758 450.427 440.895C450.427 434.809 450.195 419.636 450.133 414.294C461.691 420.634 471.633 436.766 484.792 440.997C495.871 444.553 504.22 447.446 516.783 447.683C520.239 447.771 523.696 447.557 527.114 447.042C527.183 450.168 527.357 454.443 527.637 458.786Z" fill="#6D4E7E"/>
<path id="Vector_4" d="M603.49 296.198C603.49 296.198 623.477 277.013 632.211 278.419C640.945 279.826 628.919 333.122 611.023 348.747C593.127 364.372 584.444 364.729 584.444 364.729C584.444 364.729 581.707 363.152 586.985 342.986C592.263 322.821 598.085 298.501 598.085 298.501L603.49 296.198Z" fill="#6D4E7E" stroke="black" stroke-width="3" stroke-linecap="round" stroke-linejoin="round"/>
<path id="Vector_5" d="M595.101 323.626C595.573 322.897 596.016 322.223 596.485 321.541C596.953 320.86 597.417 320.193 597.897 319.526C598.848 318.198 599.824 316.888 600.826 315.598C602.833 313.015 604.946 310.515 607.204 308.128C609.461 305.71 611.915 303.486 614.54 301.478C615.887 300.47 617.308 299.566 618.791 298.774C620.312 297.954 621.937 297.347 623.622 296.97C623.948 296.892 624.291 296.946 624.577 297.121C624.863 297.295 625.069 297.575 625.15 297.901C625.231 298.227 625.181 298.572 625.011 298.861C624.84 299.15 624.563 299.36 624.24 299.445C622.83 299.879 621.486 300.505 620.247 301.307C618.97 302.124 617.757 303.036 616.617 304.036C614.299 306.108 612.159 308.37 610.217 310.799C608.253 313.222 606.413 315.769 604.681 318.389C603.817 319.699 602.979 321.024 602.165 322.365C601.759 323.035 601.36 323.71 600.968 324.387C600.583 325.058 600.187 325.757 599.846 326.399C599.682 326.729 599.454 327.023 599.175 327.263C598.896 327.503 598.572 327.685 598.222 327.797C597.872 327.909 597.503 327.949 597.137 327.915C596.772 327.881 596.416 327.774 596.092 327.6C595.768 327.426 595.483 327.188 595.252 326.901C595.022 326.614 594.851 326.283 594.75 325.928C594.649 325.573 594.62 325.202 594.665 324.836C594.71 324.47 594.827 324.117 595.011 323.797C595.029 323.746 595.065 323.684 595.101 323.626Z" fill="black"/>
<g id="head">
<path id="Vector_6" d="M527.65 443.802C526.485 443.963 534.184 443.274 533.702 444.167C531.6 444.757 529.945 446.171 523.661 447.239C519.837 447.873 515.957 448.102 512.085 447.92C504.901 447.61 498.803 446.827 492 443.886C482.87 439.931 474.133 435.117 465.908 429.507C464.129 428.291 462.423 426.97 460.8 425.55C456.227 421.556 452.686 418.284 450.179 415.733C443.387 408.835 438.247 399.798 434.207 389.861C435.721 391.997 436.893 394.788 438.284 396.974C443.376 404.788 449.602 411.795 456.757 417.763C466.735 425.958 479.313 431.825 491.358 437.597C499.623 441.561 503.181 441.991 513.207 442.334C518.452 442.527 525.451 443.802 527.65 443.802Z" fill="#020201"/>
<g id="face">
<path id="Vector_7" d="M524.998 447.082H524.929C492.183 444.357 466.432 433.112 448.394 413.668C433.246 397.335 427.402 379.01 425.268 369.54C423.198 360.353 420.672 351.105 417.547 341.263L415.158 333.72L414.664 332.16C406.947 307.775 402.801 294.325 402.344 292.186C401.31 287.325 401.567 268.297 401.582 267.491V267.451C402.373 246.703 406.359 228.367 413.426 212.953C419.343 200.046 427.493 189.019 437.646 180.157C446.094 172.865 455.718 167.071 466.105 163.024C484.476 155.736 500.169 155.371 503.131 155.371H503.425C503.705 155.353 504.717 155.295 506.329 155.295C515.081 155.295 537.758 156.855 559.327 171.295C571.669 179.56 581.659 190.779 589.02 204.637C597.874 221.381 602.996 242.13 604.197 266.344C604.35 269.448 603.885 274.725 603.305 280.81L603.054 283.415C602.11 293.207 600.938 305.392 600.999 316.397C601.076 330.305 597.78 352.533 595.805 364.544C595.054 369.131 594.513 372.087 594.505 372.116V372.181L594.487 372.247C589.975 389.144 583.597 403.585 575.571 415.147C569.081 424.486 561.487 432 552.996 437.477C538.211 446.988 525.637 447.082 525.089 447.082H524.998Z" fill="#996CB3"/>
<path id="Vector_8" d="M506.314 156.952C522.043 156.952 597.401 162.393 602.563 266.405C602.708 269.32 602.273 274.396 601.677 280.635C600.697 290.896 599.296 304.302 599.365 316.389C599.441 330.29 596.098 352.649 594.192 364.259C593.434 368.883 592.9 371.802 592.9 371.802C573.345 444.997 526.264 445.457 525.088 445.457H525.063C450.187 439.218 431.409 389.388 426.86 369.186C424.682 359.584 422.072 350.117 419.103 340.763C418.181 337.848 417.212 334.794 416.221 331.653C410.631 314.017 404.485 294.401 403.94 291.851C402.935 287.113 403.214 267.52 403.214 267.52C404.057 245.445 408.431 227.779 414.91 213.645C440.331 158.22 498.164 157.025 503.13 157.025H503.468C503.468 157.025 504.491 156.952 506.332 156.952M506.332 153.673C504.778 153.673 503.751 153.724 503.381 153.746H503.13C500.117 153.746 484.149 154.11 465.505 161.504C454.951 165.626 445.173 171.523 436.592 178.943C426.265 187.944 417.978 199.16 411.963 212.278C404.804 227.889 400.768 246.433 399.966 267.396V267.476C399.937 269.521 399.712 287.584 400.764 292.539C401.232 294.726 405.389 308.23 413.124 332.666L413.607 334.193C414.431 336.795 415.237 339.342 416.01 341.769C419.121 351.567 421.633 360.772 423.691 369.911C425.275 376.89 427.611 383.676 430.657 390.149C434.873 399.176 440.459 407.491 447.217 414.797C455.566 423.808 465.73 431.194 477.394 436.719C491.068 443.205 507.022 447.246 524.812 448.743H524.947H525.106C526.482 448.743 538.969 448.467 553.885 438.843C562.539 433.235 570.285 425.583 576.899 416.065C585.045 404.342 591.492 389.734 596.055 372.651L596.087 372.523L596.113 372.396C596.113 372.367 596.661 369.393 597.416 364.791C599.398 352.73 602.708 330.396 602.632 316.371C602.57 305.439 603.721 293.308 604.679 283.553C604.764 282.664 604.848 281.796 604.93 280.948C605.514 274.804 605.986 269.459 605.827 266.241C604.614 241.809 599.438 220.827 590.443 203.883C582.958 189.784 572.786 178.375 560.219 169.947C538.28 155.258 515.207 153.673 506.317 153.673H506.332Z" fill="#020201"/>
<path id="Vector_9" d="M416.222 331.671C410.631 314.017 404.486 294.401 403.941 291.85C402.936 287.113 403.215 267.52 403.215 267.52C404.058 245.445 408.432 227.779 414.911 213.645C412.211 224.529 407.651 254.161 418.607 307.862C423.104 329.962 421.093 335.053 416.222 331.671Z" fill="#6D3F8E"/>
</g>
</g>
<path id="Vector_10" d="M452.756 303.358C454.505 293.301 461.065 286.57 470.673 283.214C478.502 280.474 486.115 281.645 493.513 286.727C497.637 289.513 501.105 293.167 503.677 297.437C506.097 301.474 507.307 306.178 507.307 311.549C507.307 320.444 504.472 331.066 496.7 335.774C490.74 339.382 483.982 340.749 476.427 339.877C468.916 339.003 463.918 334.619 459.235 328.672C453.287 321.129 451.127 312.691 452.756 303.358ZM483.146 294.93C482.938 295.499 482.872 296.111 482.954 296.711C483.041 297.358 483.262 297.978 483.603 298.533C483.974 299.132 484.446 299.661 484.997 300.097C485.577 300.561 486.226 300.93 486.921 301.19C488.278 301.707 489.767 301.754 491.154 301.325C491.754 301.148 492.307 300.837 492.769 300.414C493.232 299.991 493.592 299.467 493.822 298.883C494.03 298.314 494.096 297.702 494.014 297.101C493.93 296.454 493.708 295.833 493.364 295.279C492.996 294.679 492.525 294.149 491.974 293.712C491.394 293.248 490.745 292.88 490.05 292.619C488.694 292.097 487.203 292.046 485.814 292.474C485.213 292.652 484.66 292.967 484.197 293.392C483.735 293.818 483.376 294.344 483.146 294.93Z" fill="#030201"/>
<path id="Vector_11" d="M490.062 292.634C487.114 291.541 484.021 292.572 483.165 294.93C482.308 297.287 483.992 300.078 486.94 301.168C489.887 302.257 492.98 301.23 493.837 298.872C494.693 296.515 492.995 293.723 490.062 292.634Z" fill="white"/>
<path id="Vector_12" d="M559.972 341.773C552.182 340.21 546.403 337.181 542.878 329.478C539.728 322.595 538.965 314.381 540.218 307.25C541.568 299.503 545.778 293.335 552.846 288.746C557.626 286.011 563.121 284.937 569.33 285.525C579.73 286.509 584.769 291.738 589.724 300.604C591.449 303.686 592.267 307.339 592.177 311.561C591.989 320.617 588.32 328.208 581.171 334.332C575.158 339.484 568.091 341.965 559.972 341.773ZM563.119 298.341C563.112 298.952 563.238 299.557 563.489 300.113C563.74 300.67 564.109 301.164 564.571 301.562C565.599 302.46 566.908 302.968 568.27 302.998C568.959 303.021 569.646 302.926 570.303 302.717C570.937 302.521 571.53 302.209 572.053 301.799C572.542 301.412 572.948 300.928 573.243 300.378C573.523 299.852 573.678 299.268 573.697 298.672C573.706 298.061 573.58 297.455 573.329 296.897C573.078 296.34 572.708 295.845 572.245 295.448C571.218 294.549 569.908 294.043 568.546 294.015C567.858 293.993 567.171 294.087 566.513 294.292C565.88 294.49 565.289 294.803 564.767 295.214C564.277 295.599 563.871 296.082 563.577 296.632C563.297 297.158 563.14 297.741 563.119 298.337V298.341Z" fill="#030201"/>
<path id="Vector_13" d="M568.546 294.011C565.642 293.92 563.199 295.855 563.101 298.336C563.003 300.818 565.329 302.898 568.248 302.993C571.167 303.088 573.599 301.149 573.675 298.668C573.751 296.186 571.468 294.102 568.546 294.011Z" fill="white"/>
<path id="Vector_14" d="M533.824 360.502C533.832 360.473 533.845 360.446 533.864 360.423C533.883 360.4 533.906 360.381 533.933 360.367C533.96 360.356 533.989 360.35 534.018 360.35C534.048 360.35 534.077 360.356 534.104 360.367L534.332 360.429C534.577 360.516 534.798 360.661 534.975 360.851C535.153 361.041 535.282 361.272 535.352 361.523C535.544 362.149 535.544 362.82 535.352 363.447L534.485 366.445C534.39 366.772 534.251 367.083 534.071 367.371C533.904 367.637 533.696 367.875 533.454 368.074C533.24 368.246 532.993 368.37 532.728 368.439C532.49 368.504 532.239 368.504 532.002 368.439L531.773 368.366C531.745 368.358 531.719 368.345 531.697 368.326C531.673 368.307 531.653 368.284 531.639 368.256C531.625 368.23 531.616 368.202 531.613 368.173C531.608 368.144 531.608 368.114 531.613 368.085L533.824 360.502Z" fill="#09040A"/>
<path id="Vector_15" d="M520.794 370.031C520.796 370.049 520.796 370.068 520.794 370.086C520.791 370.104 520.783 370.122 520.772 370.137L520.732 370.177H520.682H520.609C520.227 370.263 519.829 370.246 519.455 370.129C519.044 370.003 518.665 369.789 518.344 369.503C517.982 369.186 517.677 368.809 517.444 368.388C517.192 367.941 517.007 367.46 516.895 366.959L516.562 365.451C516.329 364.48 516.405 363.461 516.779 362.535C516.927 362.151 517.163 361.806 517.468 361.53C517.774 361.254 518.139 361.054 518.536 360.947L518.616 360.929C518.651 360.922 518.687 360.928 518.718 360.947C518.734 360.955 518.747 360.967 518.758 360.982C518.769 360.996 518.776 361.013 518.779 361.031L520.794 370.031Z" fill="#09040A"/>
<path id="Vector_16" d="M557.81 393.811L557.349 398.949C557.325 399.177 557.255 399.398 557.142 399.598C557.031 399.796 556.879 399.967 556.695 400.1C548.413 406.268 538.433 409.715 528.124 409.968C520.907 410.187 514.42 410.376 507.654 408.777C498.247 406.545 489.566 401.931 482.44 395.374C482.237 395.191 482.098 394.947 482.044 394.679C481.991 394.41 482.025 394.131 482.142 393.884C482.901 392.262 484.371 389.963 486.498 389.846C486.659 389.836 486.818 389.872 486.959 389.948C487.102 390.022 487.221 390.135 487.304 390.273C487.389 390.41 487.436 390.568 487.439 390.729C487.442 390.891 487.402 391.05 487.322 391.191L486.596 392.437C486.426 392.739 486.368 393.092 486.433 393.432C486.502 393.771 486.691 394.073 486.967 394.281C492.775 398.676 498.946 402.593 506.591 404.513C519.68 407.793 535.126 407.614 547.588 401.103C550.688 399.485 551.944 396.329 553.305 394.219C553.391 394.054 553.515 393.913 553.668 393.807C553.816 393.699 553.988 393.628 554.169 393.6L557.138 393.162C557.229 393.151 557.32 393.16 557.407 393.188C557.491 393.216 557.568 393.264 557.631 393.327C557.694 393.391 557.741 393.468 557.77 393.552C557.804 393.634 557.817 393.723 557.81 393.811Z" fill="#030201"/>
<path id="Vector_17" d="M556.492 212.078C558.956 222.16 556.401 232.454 551.192 240.795C548.89 244.458 544.727 246.99 540.222 249.905C533.212 254.449 523.546 254.486 516.144 251.068C512.208 249.312 508.508 247.067 505.131 244.385C497.05 237.826 492.426 224.733 493.925 214.468C495.377 204.6 499.958 196.806 508.329 191.595C510.507 190.232 513.42 189.332 517.07 188.895C524.722 187.988 531.281 187.215 538.175 190.116C547.789 194.165 553.895 201.486 556.492 212.078ZM525.931 198.621C525.7 199.226 525.627 199.881 525.72 200.523C525.821 201.225 526.069 201.898 526.446 202.498C526.872 203.165 527.407 203.755 528.029 204.243C529.36 205.293 530.97 205.927 532.657 206.065C533.443 206.13 534.235 206.061 534.998 205.861C535.685 205.686 536.326 205.365 536.879 204.921C537.384 204.516 537.775 203.985 538.011 203.38C538.247 202.776 538.319 202.119 538.222 201.477C538.122 200.776 537.874 200.104 537.496 199.506C537.07 198.837 536.535 198.246 535.913 197.757C535.254 197.233 534.52 196.811 533.735 196.507C532.951 196.196 532.125 196.004 531.285 195.939C530.499 195.87 529.707 195.938 528.943 196.139C528.257 196.317 527.616 196.638 527.063 197.083C526.556 197.488 526.161 198.018 525.916 198.621H525.931Z" fill="#030201"/>
<path id="Vector_18" d="M533.72 196.507C530.38 195.192 526.884 196.143 525.915 198.621C524.946 201.098 526.87 204.181 530.209 205.489C533.549 206.798 537.041 205.854 538.01 203.372C538.979 200.891 537.059 197.837 533.72 196.507Z" fill="white"/>
<path id="Vector_19" d="M452.255 275.741C452.039 275.807 451.81 275.82 451.587 275.781C451.364 275.741 451.154 275.648 450.974 275.511C450.795 275.372 450.651 275.194 450.553 274.99C450.455 274.784 450.408 274.558 450.415 274.33C450.687 264.973 460.263 257.608 468.489 255.098C478.125 252.146 487.413 252.934 496.352 257.463C501.834 260.236 505.638 265.548 504.701 271.929C504.302 274.63 502.661 275.495 499.779 274.523C493.245 272.337 489.789 270.901 484.58 270.176C475.746 268.873 466.724 270.043 458.51 273.558C456.448 274.432 453.914 275.223 452.255 275.741Z" fill="#09040A"/>
<path id="Vector_20" d="M595.757 276.958C595.081 277.444 594.211 277.517 593.147 277.177C579.912 272.968 566.731 269.338 553.3 274.531C552.209 274.907 551.054 275.062 549.902 274.987C542.762 274.757 546.272 267.229 548.752 264.346C554.603 257.515 561.539 254.039 569.559 253.917C583.538 253.699 594.243 261.854 596.127 276.087C596.149 276.252 596.126 276.419 596.062 276.572C595.997 276.726 595.892 276.86 595.757 276.958Z" fill="#09040A"/>
<path id="Vector_21" d="M420.73 308.285C420.73 308.285 394.794 272.042 368.854 277.391C342.914 282.741 384.43 367.221 426.538 365.975" fill="#996CB3"/>
<path id="Vector_22" d="M419.342 334.947C420.412 336.405 423.698 358.899 399.71 341.197C386.407 331.376 382.45 316.885 379.506 305.698C373.4 283.153 401.602 310.799 419.342 334.947Z" fill="#6D4E7E"/>
<path id="Vector_23" d="M419.339 334.948C419.325 335.037 419.305 335.126 419.281 335.214C419.263 335.276 419.228 335.332 419.179 335.374C419.13 335.418 419.07 335.449 419.005 335.461C418.941 335.478 418.873 335.478 418.809 335.461C418.747 335.44 418.691 335.404 418.645 335.356L411.095 326.782C411.062 326.74 411.018 326.709 410.968 326.69C410.917 326.672 410.862 326.665 410.808 326.669C410.754 326.675 410.701 326.695 410.656 326.727C410.613 326.757 410.578 326.797 410.554 326.844C408.91 330.028 408.576 334.638 410.002 337.848C411.136 340.447 412.763 342.799 414.794 344.772C414.814 344.788 414.827 344.811 414.83 344.837C414.832 344.85 414.831 344.862 414.828 344.874C414.824 344.886 414.817 344.897 414.809 344.906C414.794 344.93 414.77 344.947 414.743 344.954C414.717 344.961 414.689 344.961 414.663 344.954C411.929 343.844 409.78 342.313 408.216 340.362C406.745 338.531 405.972 336.091 405.897 333.042C405.839 330.009 406.517 327.008 407.872 324.296C408.035 323.969 408.107 323.604 408.082 323.24C408.058 322.875 407.94 322.522 407.741 322.216C403.109 315.085 396.085 308.733 389.78 303.927C387.264 301.996 384.008 300.345 380.926 298.825C380.539 298.641 380.216 298.343 380.001 297.971C379.786 297.599 379.688 297.17 379.721 296.741C379.73 296.651 379.759 296.564 379.804 296.486C379.854 296.408 379.918 296.342 379.993 296.289C380.072 296.239 380.159 296.206 380.251 296.191C380.343 296.171 380.438 296.171 380.53 296.191C383.692 296.988 386.706 298.29 389.457 300.046C399.892 306.769 408.649 315.809 415.052 326.468C416.718 329.168 418.152 332.004 419.339 334.948Z" fill="#09040A"/>
<path id="Vector_24" d="M420.73 308.285C420.73 308.285 394.794 272.042 368.854 277.391C342.914 282.741 384.43 367.221 426.538 365.975" stroke="black" stroke-width="3" stroke-linecap="round" stroke-linejoin="round"/>
</g>
</g>
</g>
</svg>
