<svg width="1000" height="1000" viewBox="0 0 1000 1000" fill="none" xmlns="http://www.w3.org/2000/svg">
<g id="head1">
<g id="head">
<g id="1 neck">
<path id="Vector" d="M497.066 560.954C493.213 560.956 489.371 560.526 485.613 559.671C472.614 556.705 461.677 551.29 449.041 541.539C446.017 539.2 445.792 536.642 446.137 534.903C447.277 529.037 448.732 462.535 448.79 455.014C448.809 452.777 448.812 446.975 448.79 440.897C448.79 436.889 448.754 429.197 448.678 422.641C448.627 418.418 448.565 415.718 448.5 414.37L448.348 411.378L450.939 412.861C451.339 413.091 452.954 413.878 454.667 414.708C461.437 417.988 464.595 419.602 465.416 420.389C466.563 421.326 475.235 424.073 478.938 425.243C482.451 426.336 482.931 426.522 483.275 426.726C486.027 428.406 488.985 429.66 492.122 430.986C494.481 431.984 496.924 433.019 499.505 434.32C503.64 436.404 505.618 437.334 506.402 437.334C506.691 437.312 506.977 437.255 507.252 437.162C508.232 436.9 509.716 436.499 512.918 436.499C514.21 436.499 515.706 436.565 517.357 436.696C520.53 436.729 522.102 438.788 523.253 440.296C524.24 441.586 524.705 442.118 525.485 442.118C525.846 442.106 526.202 442.032 526.538 441.899L528.763 441.101L528.723 443.474C528.723 444.326 528.723 445.583 528.748 447.012C528.825 450.488 529.013 454.741 529.268 458.672C529.434 461.285 529.631 472.589 529.874 485.681C530.237 505.224 530.756 534.732 531.304 537.148C532.233 539.998 531.667 542.782 529.699 545.201C521.496 555.247 512.522 560.068 500.598 560.83C499.418 560.914 498.231 560.954 497.066 560.954Z" fill="#E68856"/>
<path id="Vector_2" d="M450.134 414.286C451.528 415.084 463.155 420.481 464.291 421.574C465.928 423.17 481.715 427.703 482.441 428.133C487.349 431.136 492.757 432.75 498.776 435.786C503.782 438.307 505.31 438.974 506.399 438.974C507.64 438.974 508.37 438.139 512.911 438.139C514.091 438.139 515.521 438.194 517.267 438.336H517.292C521.79 438.336 521.946 443.751 525.464 443.751C526.02 443.743 526.57 443.637 527.09 443.438C527.09 444.29 527.09 445.533 527.115 447.042C527.184 450.168 527.358 454.442 527.638 458.786C528.081 465.709 528.785 534.729 529.743 537.641C530.518 539.982 530.082 542.159 528.437 544.17C521.387 552.803 513.303 558.382 500.486 559.202C499.336 559.279 498.194 559.317 497.059 559.315C493.328 559.32 489.608 558.903 485.969 558.072C471.972 554.88 461.118 548.791 450.032 540.239C448.133 538.781 447.367 537.11 447.734 535.225C448.936 529.052 450.37 461.493 450.421 455.029C450.439 452.908 450.442 447.319 450.421 440.894C450.421 434.809 450.37 427.973 450.308 422.624C450.261 418.834 450.203 415.788 450.127 414.286M446.558 408.456L446.863 414.439C446.932 415.758 446.99 418.448 447.041 422.649C447.117 429.208 447.143 436.886 447.154 440.869C447.172 446.929 447.154 452.726 447.154 454.967C447.096 462.281 445.625 528.939 444.529 534.561C444.166 536.347 444.166 539.805 448.039 542.804C460.875 552.705 471.997 558.218 485.25 561.239C489.126 562.121 493.088 562.565 497.062 562.561C498.26 562.561 499.487 562.521 500.692 562.441C507.346 562.015 513.085 560.379 518.233 557.431C522.792 554.825 526.836 551.258 530.938 546.218C533.261 543.372 533.929 540.097 532.869 536.744C532.342 533.523 531.827 504.736 531.482 485.634C531.235 471.984 531.043 461.22 530.872 458.556C530.622 454.639 530.433 450.409 530.357 446.951C530.324 445.548 530.317 444.312 530.331 443.474L530.411 438.737L526.001 440.351C525.857 440.407 525.707 440.446 525.554 440.468C525.191 440.107 524.86 439.716 524.563 439.298C523.365 437.728 521.365 435.108 517.441 435.057C515.768 434.926 514.251 434.86 512.929 434.86C509.513 434.86 507.905 435.294 506.842 435.589L506.41 435.698C505.593 435.552 502.261 433.876 500.257 432.863C497.625 431.537 495.175 430.491 492.775 429.485C489.697 428.181 486.79 426.934 484.154 425.338C483.639 425.029 483.141 424.861 479.472 423.699C476.321 422.704 468.019 420.073 466.454 419.104C465.46 418.233 463.118 416.997 455.415 413.251C453.88 412.504 452.148 411.659 451.785 411.455L446.566 408.456H446.558Z" fill="#020201"/>
<path id="Vector_3" d="M527.637 458.786C522.798 460.325 517.757 461.126 512.681 461.162C498.216 461.228 483.493 458.382 470.722 452.289C464.35 449.25 458.567 446.228 453.371 443.223C452.322 442.537 451.336 441.758 450.427 440.895C450.427 434.809 450.195 419.636 450.133 414.294C461.691 420.634 471.633 436.766 484.792 440.997C495.871 444.553 504.22 447.446 516.783 447.683C520.239 447.771 523.696 447.557 527.114 447.042C527.183 450.168 527.357 454.443 527.637 458.786Z" fill="#CE6D40"/>
</g>
<g id="1 head">
<g id="head_2">
<path id="Vector_4" d="M529.629 443.802C528.369 443.963 536.678 443.274 536.163 444.167C533.894 444.757 532.105 446.171 525.32 447.238C521.185 447.873 516.998 448.101 512.818 447.92C505.061 447.61 498.476 446.827 491.133 443.886C481.326 439.96 471.895 435.147 462.957 429.507C461.044 428.296 459.203 426.975 457.443 425.55C452.506 421.556 448.682 418.284 445.972 415.733C438.639 408.82 433.071 399.798 428.715 389.872C430.348 392.007 431.619 394.799 433.118 396.985C438.614 404.962 446.266 412.607 453.065 417.774C463.839 425.969 477.419 431.836 490.425 437.608C499.351 441.572 503.192 442.002 514.02 442.345C519.697 442.527 527.251 443.802 529.629 443.802Z" fill="#020201"/>
<g id="face">
<path id="Vector_5" d="M526.769 447.082H526.722C491.413 444.357 463.647 433.13 444.197 413.711C432.032 401.547 423.392 386.291 419.201 369.576C416.969 360.389 414.243 351.145 410.852 341.303C409.992 338.807 409.095 336.183 408.181 333.501L407.734 332.204C399.418 307.815 394.953 294.362 394.452 292.215C393.33 287.34 393.61 268.3 393.621 267.491V267.437C394.477 246.666 398.786 228.326 406.424 212.902C412.652 200.195 421.572 189.008 432.56 180.124C441.428 172.968 451.744 167.203 463.222 162.998C483.031 155.75 499.936 155.382 503.127 155.382H503.45C503.733 155.364 504.822 155.306 506.586 155.306C516.024 155.306 540.443 156.862 563.686 171.277C576.982 179.511 588.001 190.971 595.728 204.601C605.326 221.341 610.851 242.104 612.147 266.314C612.314 269.426 611.809 274.717 611.185 280.799L610.912 283.401C609.896 293.192 608.629 305.377 608.695 316.375C608.778 330.294 605.217 352.53 603.086 364.544C602.273 369.131 601.689 372.09 601.681 372.119V372.189L601.66 372.254C596.785 389.162 589.909 403.592 581.226 415.172C574.22 424.508 566.028 432.014 556.873 437.484C540.959 446.987 527.426 447.082 526.856 447.082H526.769Z" fill="#E68856"/>
<path id="Vector_6" d="M506.588 156.952C523.572 156.952 604.961 162.393 610.518 266.405C610.674 269.32 610.202 274.396 609.56 280.635C608.503 290.896 606.99 304.302 607.062 316.389C607.146 330.29 603.538 352.649 601.479 364.259C600.659 368.883 600.082 371.802 600.082 371.802C578.966 444.998 528.128 445.457 526.857 445.457H526.832C445.977 439.218 425.708 389.388 420.789 369.186C418.455 359.584 415.62 350.117 412.414 340.763C411.42 337.848 410.371 334.794 409.3 331.653C403.267 314.017 396.628 294.401 396.043 291.851C394.954 287.113 395.255 267.52 395.255 267.52C396.167 245.445 400.889 227.779 407.888 213.645C435.327 158.22 497.788 157.025 503.128 157.025H503.491C503.491 157.025 504.58 156.952 506.588 156.952ZM506.588 153.673C504.896 153.673 503.792 153.724 503.415 153.746H503.128C499.89 153.746 482.731 154.11 462.675 161.474C451.027 165.738 440.554 171.601 431.548 178.86C420.372 187.889 411.298 199.263 404.962 212.183C397.223 227.819 392.856 246.389 391.992 267.385V267.469C391.959 269.517 391.72 287.605 392.863 292.587C393.368 294.773 397.862 308.292 406.214 332.735L406.755 334.321C407.637 336.9 408.501 339.422 409.329 341.838C412.687 351.629 415.398 360.826 417.62 369.962C419.345 376.988 421.873 383.792 425.152 390.237C429.769 399.354 435.804 407.674 443.03 414.884C452.04 423.877 462.977 431.234 475.533 436.748C490.253 443.216 507.43 447.246 526.582 448.722H526.705H526.857C528.309 448.722 541.69 448.445 557.712 438.883C567.052 433.304 575.401 425.656 582.534 416.149C591.337 404.415 598.303 389.799 603.225 372.698L603.265 372.564L603.294 372.425C603.294 372.396 603.886 369.422 604.703 364.82C606.845 352.748 610.42 330.4 610.337 316.356C610.271 305.446 611.534 293.312 612.547 283.561C612.638 282.672 612.729 281.801 612.816 280.955C613.451 274.801 613.959 269.444 613.789 266.212C612.475 241.743 606.892 220.736 597.156 203.773C589.293 189.912 578.084 178.258 564.559 169.885C540.953 155.251 516.156 153.673 506.591 153.673H506.588Z" fill="#020201"/>
<path id="Vector_7" d="M409.301 331.671C403.268 314.017 396.629 294.401 396.045 291.85C394.956 287.113 395.257 267.52 395.257 267.52C396.168 245.445 400.891 227.779 407.889 213.645C404.985 224.529 400.07 254.161 411.882 307.862C416.736 329.962 414.558 335.053 409.301 331.671Z" fill="#CE6D40"/>
</g>
</g>
<path id="smile" d="M480.724 369.007C480.809 369.003 480.893 369.029 480.96 369.08C481.03 369.129 481.08 369.202 481.102 369.284C481.131 369.364 481.131 369.452 481.102 369.532C481.071 369.611 481.015 369.678 480.942 369.721L477.675 371.609C477.408 371.762 477.208 372.011 477.115 372.305C477.022 372.6 477.043 372.918 477.174 373.198C478.757 376.7 487.85 381.601 491.132 383.073C501.813 387.945 513.378 390.564 525.108 390.765C536.586 390.94 545.219 390.765 555.473 386.684C558.305 385.547 560.308 384.051 561.485 382.195C561.532 382.115 561.6 382.05 561.681 382.005C561.764 381.962 561.856 381.939 561.949 381.94C562.043 381.942 562.135 381.97 562.214 382.02C562.296 382.068 562.365 382.135 562.414 382.216L562.686 382.679C562.857 382.984 562.932 383.333 562.9 383.681C562.868 384.028 562.728 384.355 562.501 384.618C558.958 388.692 552.587 390.813 547.255 391.829C530.753 394.929 514.257 393.787 497.767 388.404C489.312 385.66 481.554 381.1 475.033 375.042C474.943 374.962 474.84 374.9 474.728 374.859C474.611 374.817 474.487 374.803 474.365 374.816C474.246 374.822 474.13 374.856 474.027 374.914C473.922 374.969 473.83 375.046 473.758 375.14L472.099 377.257C472.034 377.343 471.944 377.407 471.842 377.439C471.739 377.474 471.628 377.474 471.526 377.439C471.425 377.402 471.34 377.332 471.283 377.24C471.227 377.148 471.202 377.04 471.214 376.933C471.566 372.177 476.376 369.128 480.724 369.007Z" fill="#020201"/>
<g id="nose">
<path id="Vector_8" d="M549.166 360.67C545.83 366.959 536.527 373.839 531.038 373.733C528.394 373.685 525.789 373.082 523.391 371.963C520.993 370.844 518.855 369.234 517.113 367.236C515.908 365.848 515.084 364.449 515.208 363.29C515.252 362.878 515.448 362.498 515.758 362.224C516.068 361.95 516.468 361.803 516.881 361.81L534.349 362.827C539.386 363.12 544.43 362.386 549.177 360.67H549.166ZM519.037 365.476C519.235 365.933 519.572 366.316 519.999 366.569C521.693 367.729 523.616 368.508 525.637 368.854C526 368.919 526.375 368.858 526.7 368.683C527.025 368.508 527.282 368.228 527.43 367.889V367.856C527.48 367.728 527.499 367.591 527.488 367.455C527.48 367.318 527.441 367.184 527.372 367.065C527.306 366.945 527.214 366.841 527.103 366.763C526.994 366.685 526.871 366.632 526.74 366.606L519.277 365.188C519.241 365.179 519.204 365.179 519.168 365.188C519.133 365.203 519.102 365.225 519.077 365.254C519.051 365.282 519.034 365.318 519.03 365.356C519.02 365.396 519.021 365.437 519.034 365.476H519.037Z" fill="#CE6D40"/>
<path id="Vector_9" d="M519.034 365.477C519.025 365.438 519.025 365.398 519.034 365.36C519.04 365.322 519.056 365.287 519.081 365.258C519.106 365.23 519.137 365.207 519.172 365.192C519.208 365.183 519.245 365.183 519.281 365.192L526.726 366.606C526.858 366.629 526.982 366.683 527.089 366.763C527.2 366.842 527.292 366.945 527.358 367.065C527.426 367.185 527.467 367.318 527.477 367.455C527.486 367.592 527.465 367.729 527.416 367.856V367.889C527.269 368.229 527.013 368.509 526.688 368.684C526.363 368.859 525.989 368.919 525.626 368.855C523.606 368.51 521.683 367.736 519.985 366.584C519.56 366.324 519.228 365.937 519.034 365.477Z" fill="#201116"/>
<path id="Vector_10" d="M539.43 306.791C539.02 307.203 539.111 308.03 539.067 308.613C538.828 311.893 537.024 325.495 539.677 332.769C542.697 341.044 543.895 346.386 548.505 353.069C553.115 359.752 540.461 371.733 532.323 372.968C532.323 372.968 530.21 374.426 535.546 374.324C540.882 374.222 549.188 368.519 551.206 362.069C553.224 355.62 552.818 354.37 551.206 351.535C549.594 348.7 542.334 335.943 541.608 326.833C540.882 317.723 543.06 310.071 540.156 306.791C539.917 306.518 539.793 306.427 539.43 306.791Z" fill="#020201"/>
</g>
<g id="glasses">
<path id="Vector_11" d="M623.282 279.097C623.848 279.462 614.363 278.576 613.481 278.369C612.171 279.097 607.862 277.472 606.348 277.407C597.948 277.02 590.247 276.768 583.243 276.649C578.227 276.572 572.117 277.793 568.574 278.106C563.635 278.551 560.046 279.297 557.808 280.344C553.336 282.45 549.81 285.281 547.23 288.838C547.099 289.019 546.986 289.213 546.892 289.417L543.513 296.876C543.436 297.049 543.325 297.203 543.186 297.332C543.046 297.459 542.882 297.557 542.703 297.619C542.526 297.682 542.339 297.706 542.152 297.692C541.964 297.681 541.78 297.631 541.611 297.547C537.313 295.397 532.945 294.633 528.507 295.255C526.858 295.484 525.512 295.419 523.896 296.384C523.788 296.449 523.669 296.493 523.544 296.511C523.42 296.53 523.293 296.524 523.17 296.494C522.922 296.431 522.707 296.274 522.571 296.056C521.228 293.826 520.299 290.645 519.174 288.838C515.861 283.525 511.435 280.002 505.895 278.27C492.479 274.058 478.223 272.35 463.127 273.147C458.224 273.402 454.774 273.529 452.777 273.529C447.543 273.529 433.212 274.069 431.64 279.181C430.967 281.338 430.567 284.29 430.438 288.036C430.424 288.477 430.456 288.918 430.536 289.351C431.179 293.057 431.602 296.797 431.803 300.553C431.923 303.234 432.256 305.901 432.798 308.529C434.787 318.222 436.723 326.55 438.606 333.512C439.913 338.56 442.509 343.179 446.138 346.911C446.44 347.222 446.782 347.492 447.155 347.713C453.689 351.517 459.405 353.781 464.303 354.505C470.466 355.353 476.686 355.719 482.906 355.598C489.147 355.565 495.299 354.122 500.908 351.375C503.443 350.109 505.731 348.395 507.659 346.313C510.384 343.413 512.178 341.208 513.039 339.7C514.752 336.716 516.829 331.622 519.268 324.417C520.72 320.128 521.421 313.121 521.925 309.867C522.328 307.225 523.443 305.13 525.737 304.12C531.458 301.56 536.563 302.382 541.052 306.587C542.615 308.067 543.373 309.632 543.324 311.284C543.048 319.126 543.452 326.092 544.537 332.182C546.45 342.924 554.338 354.96 566.364 356.596C570.335 357.136 575.636 357.509 582.267 357.715C587.187 357.875 592.961 356.584 599.589 353.842C604.995 351.612 608.981 347.57 611.546 341.718C614.281 335.487 616.536 329.771 618.313 324.57C618.442 324.189 618.529 323.796 618.574 323.397C618.914 320.364 619.867 317.433 621.373 314.782L620.596 324.428C617.884 335.247 613.939 345.563 606.112 353.062C605.826 353.339 593.513 363.994 565.631 359.227C561.843 358.542 557.487 356.571 552.563 353.313C547.778 349.061 538.848 335.374 541.516 313.052C541.641 311.949 541.483 310.833 541.057 309.808C540.632 308.784 539.953 307.886 539.084 307.199C535.538 304.35 529.385 301.369 524.528 308.806C524.336 309.11 524.22 309.457 524.19 309.816C523.316 321.414 520.528 331.836 514.288 341.733C508.429 351.008 500.035 356.311 489.106 357.642C478.173 359.008 467.079 358.197 456.458 355.255C447.724 352.843 441.78 347.72 438.624 339.885C432.867 325.587 429.551 309.879 428.678 292.762C428.642 292.134 428.377 291.542 427.932 291.099C427.488 290.656 426.897 290.393 426.271 290.361C421.443 290.142 415.99 290.775 409.911 292.259C409.835 292.259 407.297 294.045 405.918 292.97C404.027 291.479 402.582 289.464 400.683 287.868C400.389 287.625 400.066 287.418 399.721 287.253C398.444 286.644 394.313 286.298 393.14 285.482C392.527 285.059 393.307 283.015 393.365 282.832C393.997 280.726 397.972 278.861 399.482 277.96C399.862 277.732 400.295 277.606 400.738 277.596L406.292 277.388C414.321 277.512 421.293 276.694 427.208 274.932C434.831 272.663 439.331 271.485 440.708 271.398C447.002 270.993 452.959 269.94 459.33 269.918C470.076 269.834 480.815 270.487 491.473 271.871C497.016 272.636 502.457 274.015 507.696 275.985C515.838 279.003 520.8 284.585 523.356 292.409C523.465 292.74 523.699 293.015 524.007 293.175C524.316 293.335 524.675 293.367 525.007 293.265C530.573 291.611 535.889 292.155 540.954 294.897C541.028 294.94 541.112 294.965 541.197 294.97C541.283 294.974 541.368 294.959 541.447 294.927C541.527 294.894 541.599 294.844 541.658 294.781C541.717 294.718 541.759 294.642 541.781 294.559C543.848 287.696 547.634 282.785 553.14 279.826C559.02 276.668 565.727 274.802 573.261 274.229C584.452 273.366 596.217 273.755 607.662 275.104C609.514 275.308 621.718 278.11 623.282 279.097ZM427.625 279.965C427.625 279.729 427.573 279.496 427.473 279.283C427.372 279.07 427.226 278.882 427.044 278.733C426.864 278.583 426.654 278.475 426.427 278.416C426.2 278.36 425.964 278.352 425.734 278.394C417.985 279.801 410.107 280.365 402.237 280.074C401.926 280.059 401.616 280.115 401.329 280.238C400.776 280.472 400.28 280.824 399.876 281.269C399.472 281.715 399.169 282.243 398.988 282.818C398.927 282.986 398.919 283.17 398.966 283.343C399.011 283.516 399.112 283.67 399.253 283.78L406.749 289.683C406.943 289.834 407.171 289.934 407.413 289.975C407.656 290.017 407.906 289.997 408.139 289.916C413.784 287.928 419.811 287.275 425.748 288.007C425.986 288.032 426.226 288.007 426.453 287.934C426.793 287.823 427.09 287.607 427.302 287.316C427.513 287.026 427.627 286.676 427.629 286.316L427.625 279.965Z" fill="#020201"/>
<path id="Vector_12" d="M614.205 278.004L620.013 279.097C620.071 279.097 623.023 280.234 623.077 280.271C624.246 280.999 624.807 282.092 624.761 283.55C624.623 288.02 624.408 292.636 624.115 297.397C622.667 303.092 621.749 308.909 621.375 314.775C619.862 317.428 618.905 320.363 618.561 323.4C618.517 323.799 618.429 324.193 618.3 324.573C616.521 329.772 614.266 335.488 611.534 341.722C608.971 347.574 604.985 351.615 599.576 353.845C592.958 356.588 587.186 357.879 582.261 357.719C575.63 357.514 570.329 357.142 566.358 356.6C554.325 354.953 546.444 342.917 544.531 332.186C543.444 326.098 543.04 319.132 543.319 311.288C543.369 309.633 542.612 308.068 541.046 306.591C536.555 302.385 531.45 301.563 525.731 304.124C523.437 305.144 522.323 307.228 521.92 309.87C521.415 313.131 520.715 320.131 519.263 324.42C516.828 331.616 514.754 336.706 513.041 339.692C512.182 341.196 510.388 343.4 507.661 346.306C505.732 348.387 503.445 350.102 500.909 351.367C495.301 354.114 489.148 355.558 482.908 355.59C476.688 355.711 470.468 355.346 464.304 354.497C459.397 353.769 453.681 351.504 447.156 347.705C446.784 347.484 446.442 347.215 446.14 346.903C442.503 343.171 439.9 338.55 438.589 333.497C436.716 326.535 434.78 318.207 432.781 308.515C432.239 305.887 431.907 303.219 431.787 300.538C431.588 296.785 431.167 293.047 430.527 289.344C430.447 288.91 430.414 288.469 430.429 288.028C430.56 284.282 430.96 281.331 431.631 279.174C433.203 274.072 447.534 273.522 452.768 273.522C454.765 273.522 458.214 273.394 463.117 273.139C478.213 272.343 492.47 274.05 505.886 278.263C511.423 280.004 515.849 283.527 519.165 288.83C520.29 290.652 521.219 293.819 522.562 296.049C522.699 296.266 522.913 296.423 523.161 296.486C523.283 296.517 523.41 296.523 523.535 296.504C523.66 296.485 523.779 296.442 523.887 296.377C525.503 295.411 526.849 295.477 528.497 295.247C532.938 294.623 537.306 295.387 541.602 297.539C541.77 297.623 541.954 297.673 542.143 297.685C542.329 297.699 542.517 297.674 542.694 297.612C542.873 297.549 543.037 297.451 543.177 297.324C543.315 297.196 543.427 297.041 543.504 296.869L546.883 289.409C546.976 289.206 547.09 289.012 547.221 288.83C549.798 285.274 553.324 282.442 557.799 280.336C560.037 279.289 563.626 278.543 568.565 278.099C572.108 277.782 578.217 276.561 583.234 276.641C590.235 276.763 597.937 277.015 606.339 277.399C607.671 277.465 614.009 277.942 614.205 278.004ZM451.342 280.161C436.15 283.947 439 299.066 439.453 310.639C439.58 314.364 440.089 318.067 440.971 321.687C442.641 328.402 444.32 333.423 446.009 336.751C451.89 348.303 462.569 349.104 474.24 349.633C485.017 350.125 493.958 350.168 502.024 343.751C506.79 339.954 509.585 334.642 512.035 329.216C513.937 325 514.613 319.472 515.742 314.83C516.831 310.388 516.558 305.844 516.58 301.423C516.58 299.405 515.739 296.468 514.057 292.612C512.76 289.666 511.211 287.567 509.411 286.316C507.904 285.263 504.122 284.089 498.408 282.012C497.969 281.852 497.784 281.648 497.319 281.648C492.139 281.615 487.039 279.567 481.794 279.305C470.942 278.758 464.085 278.498 461.223 278.525C458.928 278.547 455.635 279.092 451.342 280.161ZM615.374 293.064C614.205 279.826 581.826 282.377 573.208 282.872C563.545 283.408 550.528 287.996 549.196 299.186C548.566 304.443 548.238 311.029 548.212 318.944C548.197 324.38 549.563 331.095 552.31 339.087C554.517 345.508 557.882 348.007 564.18 350.081C570.519 352.236 577.281 352.827 583.895 351.804C590.332 350.789 594.008 350.174 594.923 349.961C597.827 349.279 599.856 348.011 601.5 346.145C606.96 340.033 610.881 332.695 612.935 324.748C613.629 322.076 614.734 317.217 616.249 310.173C617.19 305.788 616.899 300.085 615.374 293.064Z" fill="#501C49"/>
<path id="Vector_13" d="M427.625 279.964V286.316C427.625 286.554 427.574 286.791 427.476 287.008C427.382 287.227 427.24 287.422 427.062 287.58C426.884 287.74 426.675 287.86 426.448 287.934C426.221 288.007 425.981 288.032 425.744 288.007C419.808 287.274 413.783 287.927 408.139 289.916C407.906 289.995 407.657 290.015 407.414 289.975C407.172 289.934 406.943 289.834 406.748 289.683L396.349 283.415C396.208 283.305 396.107 283.151 396.062 282.978C396.014 282.805 396.023 282.621 396.087 282.453C396.559 281.17 397.485 280.631 398.57 280.19C399.765 279.879 400.977 279.636 402.2 279.461C410.636 279.709 418.506 279.764 425.733 278.394C426.08 278.327 426.44 278.378 426.755 278.539C427.069 278.7 427.322 278.962 427.472 279.283C427.572 279.496 427.624 279.729 427.625 279.964Z" fill="#501C49"/>
<path id="Vector_14" d="M439.455 310.64C439.015 299.066 436.151 283.948 451.343 280.162C455.638 279.093 458.932 278.548 461.224 278.526C464.087 278.496 470.944 278.756 481.795 279.305C487.04 279.568 497.97 281.492 498.409 281.648C504.123 283.726 507.906 285.263 509.412 286.316C511.212 287.567 512.761 289.666 514.058 292.613C515.752 296.468 516.593 299.405 516.581 301.424C516.559 305.844 516.814 310.388 515.743 314.83C514.614 319.472 513.928 325 512.036 329.216C509.586 334.657 506.791 339.951 502.039 343.752C493.974 350.169 485.033 350.125 474.255 349.633C462.585 349.105 451.905 348.303 446.025 336.752C444.331 333.426 442.651 328.405 440.986 321.688C440.099 318.068 439.586 314.365 439.455 310.64ZM449.364 283.365C436.336 288.521 442.261 315.227 444.685 326.254C446.686 335.364 450.214 342.225 459.714 344.98C465.103 346.568 470.676 347.443 476.292 347.582C489.472 347.877 500.577 345.782 507.256 334.128C508.284 332.333 509.56 328.856 511.082 323.696C514.973 310.578 518.305 289.334 500.381 284.87C486.78 281.498 472.719 280.4 458.763 281.619C455.332 281.907 452.842 282.013 449.364 283.365Z" fill="#020201"/>
<path id="Vector_15" d="M616.024 290.758C614.572 286.75 616.024 282.742 586.621 282.013C557.218 281.284 553.588 288.207 553.588 288.207C549.232 292.58 548.869 295.495 548.216 299.806C547.562 304.117 548.143 303.148 547.192 314.382C546.241 325.616 547.417 328.655 548.143 331.935C548.869 335.214 552.499 342.866 554.949 345.858C557.399 348.85 565.93 352.705 574.279 352.705C582.628 352.705 594.607 353.434 603.319 345.053C612.031 336.672 615.661 319.181 617.113 311.164C618.565 303.148 617.476 294.766 616.024 290.758ZM615.269 311.492C613.893 319.082 610.455 335.648 602.201 343.584C593.946 351.521 582.599 350.828 574.7 350.828C566.801 350.828 558.728 347.184 556.398 344.346C554.067 341.507 550.644 334.267 549.958 331.162C549.272 328.057 548.143 325.168 549.058 314.535C549.972 303.902 549.421 304.816 550.027 300.735C550.633 296.654 550.989 293.892 555.109 289.752C555.109 289.752 558.546 283.193 586.389 283.886C614.231 284.578 612.859 288.371 614.234 292.168C615.61 295.965 616.645 303.898 615.269 311.492Z" fill="#020201"/>
<path id="Vector_16" d="M626.44 290.219C626.785 287.63 626.785 285.006 626.44 282.417C626.229 280.668 625.148 279.531 623.195 279.006C618.522 277.746 614.892 277.011 612.305 276.802L614.57 278.004C614.628 278.004 623.024 280.234 623.082 280.271C624.246 281 624.806 282.093 624.763 283.55C624.665 286.793 624.189 290.266 624.008 293.662C623.972 293.954 623.412 300.626 622.556 303.501C621.681 306.438 619.51 319.035 619.51 319.035C619.51 319.035 618.563 330.83 620.207 325.958C621.75 321.371 625.899 293.841 626.378 290.543L626.4 290.405C626.433 290.284 626.44 290.219 626.44 290.219Z" fill="#020201"/>
</g>
<g id="ear">
<path id="Vector_17" d="M416.47 307.326C416.47 307.326 396.992 269.379 380.366 290.269C363.741 311.16 377.056 349.348 393.14 360.356C409.225 371.365 418.55 357.806 418.55 357.806L416.47 307.326Z" fill="#E68856"/>
<path id="Vector_18" d="M401.174 341.83C400.252 337.764 400.278 331.646 405.483 325.375C405.483 325.375 398.586 299.138 387.333 297.681C376.08 296.223 378.305 317.238 380.458 322.215C382.611 327.193 387.355 344.986 394.786 345.566C395.875 345.649 396.833 345.737 397.661 345.821C398.176 345.873 398.697 345.801 399.18 345.612C399.662 345.422 400.093 345.12 400.436 344.73C400.78 344.34 401.026 343.874 401.154 343.37C401.282 342.865 401.289 342.338 401.174 341.83Z" fill="#CE6D40"/>
<path id="Vector_19" d="M401.427 346.167C401.311 345.803 401.141 345.438 400.945 345.012C400.749 344.586 400.56 344.101 400.404 343.631C400.105 342.7 399.881 341.748 399.732 340.781C399.574 339.818 399.494 338.843 399.493 337.866C399.474 337.378 399.514 336.89 399.529 336.409C399.543 335.928 399.605 335.436 399.692 334.951C399.983 333.024 400.559 331.151 401.402 329.394C402.243 327.662 403.29 326.038 404.52 324.559L404.27 325.685C403.725 323.553 403.057 321.385 402.335 319.268C401.613 317.151 400.81 315.052 399.917 313C399.038 310.95 398.033 308.957 396.908 307.031C395.819 305.118 394.508 303.34 393.002 301.737C392.639 301.332 392.222 301.008 391.826 300.625C391.619 300.454 391.401 300.297 391.191 300.133C391.086 300.053 390.984 299.966 390.871 299.893L390.537 299.682C390.324 299.537 390.102 299.404 389.873 299.284L389.169 298.92C388.692 298.72 388.197 298.565 387.691 298.457C386.689 298.215 385.644 298.215 384.642 298.457C384.157 298.587 383.694 298.787 383.267 299.051C382.838 299.329 382.445 299.659 382.098 300.035C381.4 300.844 380.848 301.769 380.468 302.768C380.073 303.796 379.778 304.86 379.586 305.946C379.206 308.154 379.056 310.396 379.139 312.636C379.144 312.736 379.108 312.834 379.04 312.909C378.972 312.983 378.878 313.027 378.778 313.031C378.678 313.035 378.58 313 378.506 312.932C378.432 312.864 378.389 312.769 378.384 312.669C378.225 310.379 378.305 308.08 378.62 305.807C378.788 304.65 379.067 303.511 379.451 302.407C379.846 301.266 380.438 300.204 381.201 299.27C381.606 298.797 382.071 298.379 382.584 298.027C383.108 297.677 383.68 297.407 384.283 297.226C385.477 296.883 386.736 296.833 387.953 297.08C388.557 297.188 389.15 297.353 389.724 297.572L390.556 297.936C390.821 298.079 391.078 298.238 391.325 298.41L391.714 298.639C391.841 298.72 391.957 298.811 392.077 298.898C392.32 299.073 392.567 299.244 392.803 299.427C393.253 299.813 393.725 300.181 394.135 300.607C395.791 302.249 397.247 304.084 398.469 306.073C399.699 308.028 400.806 310.058 401.783 312.151C402.771 314.232 403.66 316.353 404.469 318.499C405.279 320.645 406.023 322.806 406.68 325.058C406.732 325.237 406.74 325.427 406.706 325.61C406.671 325.794 406.594 325.967 406.48 326.115L406.43 326.184C405.331 327.497 404.395 328.938 403.642 330.476C402.9 332.006 402.391 333.638 402.132 335.319C402.052 335.735 402.037 336.161 401.986 336.58C401.936 336.999 401.932 337.425 401.947 337.852C401.955 339.552 402.216 341.242 402.72 342.866C402.85 343.261 403 343.649 403.17 344.028C403.344 344.422 403.558 344.885 403.729 345.398C403.831 345.705 403.808 346.039 403.664 346.328C403.52 346.617 403.268 346.837 402.963 346.94C402.658 347.042 402.324 347.019 402.037 346.874C401.749 346.73 401.529 346.477 401.427 346.171V346.167Z" fill="#020201"/>
<path id="Vector_20" d="M391.689 338.883C391.101 337.653 390.594 336.386 390.172 335.089C389.731 333.798 389.367 332.481 389.083 331.147C388.493 328.43 388.335 325.637 388.614 322.871C388.784 321.452 389.112 320.056 389.591 318.71C389.725 318.375 389.834 318.028 389.99 317.7L390.455 316.717C390.796 316.072 391.178 315.45 391.598 314.855C392.021 314.256 392.478 313.683 392.967 313.138C393.481 312.608 394.024 312.107 394.593 311.637C395.706 310.707 396.91 309.893 398.187 309.206C398.594 308.975 399.076 308.915 399.527 309.041C399.978 309.166 400.361 309.466 400.592 309.875C400.822 310.284 400.881 310.768 400.757 311.221C400.632 311.673 400.333 312.058 399.925 312.289C399.891 312.312 399.854 312.331 399.817 312.348L399.726 312.391C398.619 312.88 397.564 313.481 396.579 314.184C396.091 314.533 395.623 314.909 395.177 315.31C394.745 315.724 394.336 316.164 393.954 316.626C393.57 317.088 393.216 317.575 392.894 318.083L392.444 318.874C392.292 319.136 392.183 319.42 392.045 319.694C391.543 320.826 391.168 322.01 390.927 323.225C390.479 325.752 390.433 328.335 390.792 330.877C390.959 332.168 391.201 333.448 391.518 334.71C391.829 335.976 392.22 337.221 392.687 338.438V338.456C392.736 338.587 392.733 338.732 392.68 338.86C392.626 338.989 392.525 339.092 392.398 339.149C392.27 339.205 392.126 339.21 391.995 339.164C391.864 339.117 391.756 339.022 391.693 338.897L391.689 338.883Z" fill="#020201"/>
<path id="Vector_21" d="M416.471 307.326C416.471 307.326 406.873 288.629 395.417 284.708C390.546 283.043 385.337 284.042 380.382 290.269C363.738 311.163 377.057 349.348 393.141 360.356C409.226 371.365 418.551 357.806 418.551 357.806" stroke="black" stroke-width="2.54545" stroke-linecap="round" stroke-linejoin="round"/>
</g>
<g id="eyebrow">
<path id="Vector_22" d="M446.55 267.754C446.425 267.763 446.3 267.741 446.187 267.688C446.077 267.633 445.983 267.551 445.913 267.45C445.843 267.349 445.8 267.231 445.787 267.109C445.778 266.984 445.8 266.858 445.853 266.744C450.785 256.204 458.65 249.759 469.448 247.41C473.061 246.622 477.971 246.411 484.178 246.776C491.689 247.224 500.368 249.825 505.033 255.849C507.937 259.613 510.521 264.704 509.196 269.102C509.057 269.567 508.74 269.959 508.314 270.191C507.888 270.423 507.389 270.477 506.924 270.341C496.588 267.299 485.935 265.468 475.18 264.886C470.787 264.643 464.858 264.936 457.393 265.764C454.572 266.074 449.871 267.509 446.55 267.754Z" fill="#201116" stroke="black" stroke-width="2.54545" stroke-miterlimit="10"/>
<path id="Vector_23" d="M606.087 271.966L604.57 271.857C604.538 271.857 604.507 271.849 604.479 271.835C598.235 269.627 592.352 268.441 586.83 268.278C583.134 268.162 577.939 268.549 571.242 269.441C566.072 270.118 560.999 271.402 556.127 273.267C555.8 273.392 555.438 273.391 555.111 273.264C554.785 273.136 554.517 272.892 554.359 272.578C554.254 272.371 554.2 272.141 554.203 271.908C554.37 264.756 557.475 259.248 563.518 255.383C569.921 251.305 580.426 250.143 587.345 251.549C597.654 253.655 605.074 260.411 607.042 270.862C607.067 271.001 607.061 271.144 607.023 271.281C606.986 271.417 606.917 271.543 606.824 271.649C606.732 271.756 606.616 271.838 606.486 271.89C606.36 271.945 606.224 271.971 606.087 271.966Z" fill="#201116" stroke="black" stroke-width="2.54545" stroke-miterlimit="10"/>
</g>
<g id="eye">
<path id="Vector_24" d="M503.449 312.122C501.032 300.042 493.064 293.261 481.237 292.445C473.448 291.909 466.213 293.334 460.144 298.468C454.55 303.205 454.169 309.527 453.316 316.374C452.205 313.202 451.906 309.292 452.419 304.644C453.658 293.392 459.793 287.305 470.823 286.385C479.982 285.616 493.086 287.842 499.471 294.864C503.258 299.025 504.777 304.479 504.027 311.225C503.94 312.066 503.747 312.365 503.449 312.122Z" fill="#020201"/>
<path id="Vector_25" d="M503.45 312.122C503.033 316.057 502.724 320.47 501.229 323.935C497.657 332.314 491.252 337.493 482.015 339.473C475.481 340.876 468.802 338.54 463.502 334.874C457.493 330.728 454.098 324.566 453.316 316.389C454.169 309.542 454.551 303.212 460.144 298.483C466.214 293.348 473.448 291.924 481.238 292.459C493.065 293.261 501.033 300.042 503.45 312.122ZM476.243 293.396C472.363 293.326 468.62 295.236 465.8 298.709C462.979 302.181 461.386 306.922 461.284 311.892C461.238 314.33 461.572 316.759 462.275 319.093C462.931 321.304 463.968 323.382 465.339 325.233C466.591 326.931 468.185 328.345 470.018 329.383C471.723 330.342 473.636 330.865 475.59 330.906C479.471 330.975 483.213 329.062 486.034 325.593C488.854 322.124 490.462 317.38 490.549 312.406C490.596 309.97 490.262 307.542 489.562 305.209C488.904 302.998 487.866 300.919 486.495 299.066C485.242 297.37 483.649 295.956 481.819 294.915C480.113 293.958 478.198 293.436 476.243 293.396Z" fill="#FDFAE9"/>
<path id="Vector_26" d="M476.241 293.395C478.196 293.436 480.111 293.961 481.817 294.922C483.647 295.96 485.24 297.373 486.492 299.069C487.863 300.922 488.901 303.001 489.559 305.213C490.26 307.545 490.593 309.973 490.547 312.409C490.46 317.383 488.837 322.128 486.031 325.597C483.225 329.066 479.472 330.979 475.587 330.913C473.634 330.867 471.721 330.342 470.015 329.383C468.183 328.345 466.59 326.931 465.34 325.232C463.966 323.383 462.928 321.304 462.273 319.092C461.569 316.759 461.235 314.329 461.282 311.892C461.369 306.918 462.995 302.174 465.801 298.705C468.607 295.236 472.36 293.326 476.241 293.395ZM483.817 301.718C483.451 301.721 483.09 301.804 482.76 301.962C482.421 302.123 482.117 302.351 481.867 302.633C481.61 302.927 481.409 303.267 481.276 303.635C481.14 304.012 481.072 304.411 481.072 304.812C481.074 305.611 481.369 306.381 481.9 306.976C482.146 307.254 482.448 307.477 482.786 307.629C483.124 307.782 483.49 307.861 483.86 307.862C484.226 307.86 484.586 307.778 484.917 307.621C485.256 307.46 485.56 307.232 485.81 306.951C486.067 306.657 486.268 306.317 486.401 305.949C486.54 305.572 486.609 305.173 486.605 304.772C486.605 303.972 486.31 303.201 485.777 302.607C485.531 302.328 485.23 302.105 484.892 301.952C484.554 301.799 484.187 301.719 483.817 301.718Z" fill="#020201"/>
<path id="Vector_27" d="M486.606 304.771C486.606 303.073 485.347 301.707 483.819 301.718C482.29 301.729 481.063 303.113 481.074 304.812C481.085 306.51 482.334 307.872 483.862 307.862C485.39 307.851 486.617 306.47 486.606 304.771Z" fill="#FDFAE9"/>
</g>
<g id="eye_2">
<path id="Vector_28" d="M595.505 321.512C596.022 316.32 596.048 312.283 595.581 309.399C594.613 303.431 591.21 298.917 585.373 295.859C584.848 295.585 584.277 295.411 583.689 295.345C576.594 294.533 570.969 294.826 566.817 296.223C560.314 298.409 555.782 303.731 553.219 312.187C553.787 299.166 560.265 291.972 572.65 290.604C576.764 290.152 580.098 290.159 582.651 290.626C590.553 292.065 597.145 297.713 598.532 305.974C599.394 311.097 598.384 316.277 595.505 321.512Z" fill="#020201"/>
<path id="Vector_29" d="M595.506 321.512C594.509 324.826 593.554 327.156 592.642 328.501C582.652 343.278 559.482 347.756 554.04 325.375C552.881 320.597 552.608 316.201 553.22 312.188C555.783 303.731 560.315 298.41 566.818 296.224C570.97 294.824 576.595 294.532 583.69 295.345C584.578 295.533 585.439 295.828 586.256 296.224C592.086 299.281 594.605 303.431 595.582 309.4C596.051 312.276 596.026 316.314 595.506 321.512ZM568.346 297.681C565.101 297.82 562.062 299.74 559.899 303.023C557.735 306.306 556.632 310.675 556.813 315.187C556.902 317.388 557.308 319.566 558.019 321.651C558.673 323.6 559.647 325.425 560.901 327.051C562.013 328.504 563.42 329.702 565.028 330.568C566.485 331.342 568.118 331.719 569.765 331.661C573.014 331.522 576.052 329.602 578.212 326.319C580.372 323.036 581.479 318.667 581.298 314.155C581.204 311.959 580.796 309.788 580.085 307.709C579.43 305.76 578.455 303.935 577.2 302.309C576.09 300.856 574.684 299.657 573.076 298.793C571.623 298.014 569.992 297.631 568.346 297.681Z" fill="#FDFAE9"/>
<path id="Vector_30" d="M568.349 297.68C569.996 297.623 571.629 298 573.086 298.774C574.694 299.638 576.1 300.837 577.21 302.29C578.464 303.922 579.435 305.754 580.085 307.709C580.795 309.793 581.2 311.971 581.287 314.173C581.475 318.677 580.368 323.057 578.205 326.336C576.041 329.616 573.003 331.54 569.758 331.678C568.109 331.736 566.475 331.359 565.017 330.585C563.409 329.72 562.003 328.522 560.893 327.069C559.638 325.443 558.663 323.617 558.007 321.668C557.298 319.584 556.894 317.408 556.806 315.208C556.617 310.7 557.728 306.324 559.888 303.041C562.048 299.757 565.1 297.833 568.349 297.68ZM577.845 306.728C577.858 306.376 577.801 306.024 577.675 305.695C577.55 305.365 577.36 305.064 577.116 304.81C576.872 304.556 576.58 304.354 576.256 304.216C575.933 304.078 575.585 304.007 575.234 304.007C574.882 304.007 574.534 304.078 574.211 304.216C573.887 304.354 573.595 304.556 573.351 304.81C573.107 305.064 572.917 305.365 572.792 305.695C572.666 306.024 572.609 306.376 572.622 306.728C572.621 307.074 572.688 307.416 572.821 307.734C572.953 308.051 573.144 308.339 573.384 308.583C573.75 308.95 574.215 309.2 574.722 309.301C575.229 309.402 575.754 309.35 576.232 309.151C576.709 308.953 577.117 308.617 577.405 308.185C577.692 307.754 577.845 307.247 577.845 306.728Z" fill="#020201"/>
<path id="Vector_31" d="M575.231 309.366C575.748 309.366 576.253 309.213 576.683 308.924C577.113 308.636 577.448 308.226 577.645 307.747C577.843 307.267 577.895 306.74 577.794 306.231C577.693 305.722 577.444 305.255 577.079 304.888C576.713 304.521 576.248 304.271 575.741 304.17C575.234 304.068 574.708 304.12 574.231 304.319C573.753 304.517 573.345 304.854 573.058 305.285C572.77 305.717 572.617 306.224 572.617 306.743C572.617 307.439 572.893 308.106 573.383 308.598C573.873 309.09 574.538 309.366 575.231 309.366Z" fill="#FDFAE9"/>
</g>
</g>
</g>
</g>
</svg>
