<svg width="1000" height="1000" viewBox="0 0 1000 1000" fill="none" xmlns="http://www.w3.org/2000/svg">
<path d="M526.606 656.483C517.079 657.017 506.535 657.614 496.308 658.199C492.184 658.448 488.071 657.563 484.415 655.64C480.758 653.717 477.696 650.83 475.561 647.29C473.202 643.457 470.562 639.805 467.662 636.363C431.482 592.425 420.066 538.181 408.076 504.254C400.061 481.57 398.266 462.21 397.902 454.181C401.02 452.817 402.753 451.974 405.169 450.908C405.554 449.047 407.113 450.181 407.712 448.068L410.586 452.068L428.321 476.817L450.64 507.959L542.509 635.636L546.506 641.817C544.97 645.932 542.271 649.51 538.737 652.115C535.203 654.719 530.988 656.237 526.606 656.483Z" fill="#9C398C"/>
<path d="M503.229 641.092L486.036 641.259C485.776 641.259 485.52 641.197 485.289 641.078C485.058 640.959 484.858 640.787 484.706 640.576L484.143 639.794L484.012 639.638C470.002 620.267 459.455 604.027 455.077 595.07C442.988 570.343 420.96 520.259 413.435 499.198C412.105 495.47 410.819 492.245 409.58 489.125C404.897 477.361 401.514 468.863 404.642 453.67C405.042 451.736 405.543 449.707 406.128 447.634C406.521 446.223 406.971 444.725 407.465 443.223C409.787 436.067 412.81 429.943 416.454 425.019L416.498 424.961L416.897 424.434C421.948 417.958 427.071 416.99 429.687 416.99C432.303 416.99 434.483 417.87 435.246 419.172C435.428 419.471 435.529 419.813 435.537 420.164C435.546 420.514 435.461 420.861 435.293 421.168C433.901 423.638 434.701 430.547 436.292 433.703C438.759 438.612 457.238 467.983 465.62 476.441C474.29 485.168 502.59 527.921 508.534 538.485C509.075 539.448 509.904 540.99 510.994 543.067C511.139 543.339 511.284 543.619 511.433 543.91C512.113 545.205 512.886 546.678 513.708 548.274L514.053 548.947C514.681 550.158 515.35 551.459 516.048 552.823C516.309 553.33 516.574 553.846 516.843 554.372L517.254 555.176C517.45 555.539 517.65 555.939 517.85 556.336L518.682 557.968C519.241 559.059 519.812 560.176 520.393 561.318L521.705 563.896L525.52 571.405L525.781 571.921L526.145 572.678L528.245 576.819L529.193 578.696L529.607 579.514C531.06 582.423 532.539 585.314 533.985 588.183L535.075 590.365L535.711 591.627C536.045 592.292 536.387 592.961 536.721 593.63L541.201 602.518C541.339 602.805 541.474 603.074 541.612 603.343L542.84 605.783C542.927 605.954 543.003 606.11 543.083 606.263L543.239 606.576C543.494 607.085 543.748 607.583 543.995 608.074C544.01 608.101 544.023 608.129 544.035 608.158L544.762 609.612L546.651 613.368L548.377 616.808C550.339 620.768 547.225 623.434 544.725 625.579C543.047 627.016 541.314 628.488 540.78 630.288C540.736 630.437 540.671 630.579 540.587 630.71L536.725 636.685L535.686 640.394C535.59 640.738 535.385 641.041 535.101 641.258C534.816 641.474 534.469 641.591 534.112 641.59L503.229 641.092Z" fill="#CE44A2"/>
<path d="M429.691 418.618C432.452 418.618 434.182 419.818 433.873 420.364C432.154 423.404 433.055 430.909 434.832 434.437C437.426 439.6 455.854 468.909 464.462 477.593C473.069 486.277 501.271 528.909 507.11 539.273C507.659 540.251 508.491 541.818 509.548 543.815L509.984 544.648C510.663 545.946 511.437 547.415 512.255 549.011L512.596 549.673C513.228 550.895 513.897 552.193 514.595 553.553C514.987 554.317 515.388 555.101 515.797 555.906C515.997 556.288 516.193 556.669 516.389 557.058C517.207 558.658 518.061 560.331 518.933 562.044L519.372 562.906L519.529 563.215L520.255 564.622L524.07 572.131C524.285 572.553 524.499 572.982 524.717 573.408L526.813 577.546L527.758 579.418L528.169 580.229C529.622 583.138 531.104 586.048 532.55 588.906L533.023 589.84L533.651 591.084L534.28 592.335L535.294 594.342L535.395 594.546L536.122 596L539.755 603.233C539.893 603.513 540.031 603.789 540.173 604.066L540.587 604.888C540.861 605.431 541.131 605.968 541.398 606.498C541.528 606.764 541.663 607.026 541.794 607.288C542.048 607.797 542.301 608.298 542.553 608.793L542.571 608.833C542.813 609.337 543.063 609.834 543.32 610.324C543.981 611.644 544.613 612.898 545.205 614.077L545.569 614.822L546.92 617.517C549.355 622.429 540.78 624.538 539.218 629.797L535.221 635.978L534.131 639.928L503.226 639.44L486.029 639.608C485.8 639.288 485.564 638.964 485.332 638.644C472.779 621.291 461.352 604.128 456.541 594.32C444.711 570.138 422.609 520 414.979 498.64C408.439 480.342 402.437 472.506 406.259 453.993C406.645 452.131 407.124 450.168 407.713 448.069C408.1 446.68 408.54 445.226 409.032 443.706C411.491 436.12 414.525 430.368 417.781 425.971C417.919 425.786 418.057 425.608 418.199 425.418C422.381 420.055 426.661 418.604 429.698 418.604M429.698 415.331C426.791 415.331 421.094 416.382 415.619 423.404L415.157 424.015C411.404 429.106 408.298 435.371 405.922 442.695C405.424 444.229 404.966 445.735 404.563 447.171C403.97 449.277 403.473 451.346 403.055 453.313C399.825 468.993 403.284 477.677 408.072 489.709C409.308 492.815 410.587 496.026 411.909 499.728C419.445 520.818 441.514 571 453.62 595.768C459.669 608.131 474.435 629.149 482.687 640.571L482.803 640.731C482.995 640.993 483.188 641.258 483.373 641.52C483.676 641.943 484.075 642.288 484.538 642.526C485 642.764 485.513 642.888 486.033 642.888H486.066L503.219 642.72L534.102 643.208H534.153C534.866 643.208 535.561 642.975 536.129 642.543C536.698 642.112 537.11 641.506 537.303 640.818L538.273 637.346L542.001 631.582C542.168 631.32 542.299 631.036 542.39 630.738C542.782 629.411 544.33 628.084 545.827 626.8C547.182 625.64 548.584 624.44 549.533 622.935C550.206 621.929 550.595 620.761 550.659 619.552C550.723 618.344 550.459 617.14 549.896 616.069L549.431 615.142L548.537 613.357C548.472 613.233 548.414 613.113 548.355 612.993L548.159 612.604L547.683 611.662C547.233 610.768 546.764 609.844 546.281 608.866C546.037 608.386 545.798 607.913 545.554 607.433L545.5 607.32V607.298C545.257 606.814 545.015 606.329 544.773 605.844C544.718 605.731 544.66 605.618 544.602 605.506L544.384 605.069V605.037L543.857 603.993L543.578 603.433L543.167 602.622V602.589C543.033 602.328 542.902 602.069 542.771 601.804C542.772 601.794 542.772 601.785 542.771 601.775L540.591 597.433L539.138 594.546L538.774 593.818C538.651 593.575 538.531 593.331 538.411 593.091L538.393 593.055L538.298 592.866C537.969 592.204 537.635 591.541 537.296 590.877L536.667 589.626C536.558 589.411 536.456 589.208 536.351 589.008C536.246 588.808 536.14 588.582 536.031 588.371L535.879 588.066L535.562 587.444C534.109 584.575 532.656 581.669 531.181 578.764L530.767 577.949L529.829 576.091L528.703 574.037L527.613 571.946L527.249 571.189L526.988 570.669L523.173 563.16L522.81 562.408L522.475 561.753V561.735L522.337 561.466V561.433L522.119 561.011L521.898 560.571C521.309 559.418 520.731 558.284 520.164 557.178L519.351 555.589C519.158 555.208 518.958 554.815 518.751 554.426L518.424 553.782L517.552 552.077C516.858 550.72 516.19 549.422 515.557 548.2L515.318 547.735L515.212 547.531C514.366 545.895 513.599 544.418 512.93 543.142C512.785 542.862 512.636 542.578 512.491 542.306C511.401 540.211 510.558 538.669 510.013 537.684C503.996 527.073 475.525 484.106 466.784 475.273C458.496 466.909 440.198 437.818 437.753 432.953C436.205 429.869 435.802 423.582 436.718 421.96C437.032 421.404 437.192 420.774 437.182 420.135C437.173 419.496 436.994 418.871 436.663 418.324C435.599 416.506 432.863 415.32 429.691 415.32L429.698 415.331Z" fill="#17091D"/>
<path d="M550.75 625.127L548.297 633.363L544.326 641.818L542.146 640C537.702 634.469 534.916 633.487 529.462 623.836C528.452 622.047 527.282 620.033 525.97 617.814C524.045 614.542 521.814 610.847 519.332 606.789C492.297 562.567 435.853 476.102 424.789 454.545C420.956 447.076 417.864 431.687 417.773 425.985C417.912 425.8 418.05 425.622 418.191 425.433C426.17 415.196 434.523 419.214 433.873 420.363C432.154 423.403 433.055 430.909 434.832 434.436C437.426 439.6 455.854 468.909 464.462 477.593C473.069 486.276 501.271 528.909 507.11 539.273C507.658 540.251 508.491 541.818 509.548 543.814L509.984 544.647C510.663 545.945 511.437 547.414 512.255 549.011L512.596 549.673C513.584 551.582 514.656 553.673 515.797 555.905C515.993 556.269 516.193 556.669 516.389 557.058C517.207 558.658 518.061 560.331 518.933 562.043L519.372 562.905L519.529 563.214L520.255 564.622L524.07 572.131C524.285 572.553 524.499 572.982 524.717 573.407L526.813 577.545C527.126 578.166 527.441 578.788 527.758 579.411C527.893 579.683 528.031 579.956 528.169 580.229C529.622 583.138 531.104 586.047 532.55 588.905L533.023 589.84L533.651 591.083L534.28 592.334L535.294 594.342L535.395 594.545L536.122 596L539.755 603.233C539.893 603.513 540.035 603.789 540.173 604.065L540.587 604.887C540.861 605.43 541.131 605.967 541.398 606.498C541.528 606.763 541.663 607.025 541.794 607.287C542.048 607.796 542.301 608.298 542.553 608.793L542.571 608.833L543.32 610.323C543.981 611.643 544.613 612.898 545.205 614.076L545.569 614.822L546.92 617.516C549.307 622.247 550.75 625.127 550.75 625.127Z" fill="#D969BD"/>
<path d="M503.229 641.092L486.051 641.259H485.102C484.854 641.259 484.609 641.203 484.386 641.094C484.163 640.985 483.968 640.827 483.815 640.632C483.662 640.436 483.555 640.208 483.503 639.965C483.451 639.723 483.455 639.471 483.515 639.23L483.751 638.259C487.424 623.146 491.65 608.361 495.377 595.321C496.177 592.528 496.951 589.813 497.699 587.175C500.606 576.703 506.841 564.455 513.155 552.783C515.379 548.674 517.653 544.568 520.059 540.219C534.036 515.001 549.881 486.401 549.776 464.721C549.805 453.848 552.319 447.03 554.386 443.226C557.006 438.448 560.563 435.59 563.866 435.59C564.742 435.584 565.606 435.801 566.375 436.221C567.145 436.641 567.795 437.25 568.266 437.99C569.559 439.924 570.878 442.077 572.179 444.386C576.132 451.412 579.416 458.979 579.994 462.383C581.004 468.332 577.542 489.564 573.53 514.15C570.46 532.968 567.288 552.43 565.933 566.321C565.927 566.383 565.917 566.445 565.904 566.506C561.544 586.692 554.873 610.234 544.856 640.586C544.749 640.913 544.541 641.198 544.263 641.4C543.984 641.602 543.649 641.71 543.305 641.71L503.229 641.092Z" fill="#CE44A2"/>
<path d="M563.869 437.247C564.477 437.242 565.076 437.393 565.608 437.686C566.141 437.979 566.589 438.404 566.91 438.92C568.233 440.895 569.534 443.036 570.758 445.211C574.707 452.229 577.861 459.578 578.388 462.666C580.11 472.807 567.404 534.462 564.312 566.171C559.32 589.371 551.759 614.48 543.312 640.084L534.141 639.938L503.236 639.451L486.04 639.618L485.102 639.636C485.182 639.313 485.258 638.989 485.338 638.666C489.786 620.364 495.014 602.658 499.272 587.636C501.983 577.818 507.796 566.138 514.594 553.575C530.399 524.364 551.538 490.462 551.414 464.727C551.465 446.182 558.968 437.247 563.869 437.247ZM563.869 433.975C559.945 433.975 555.876 437.142 552.969 442.451C550.789 446.426 548.191 453.513 548.159 464.716V464.727C548.26 485.993 532.535 514.382 518.649 539.426C516.236 543.789 513.962 547.884 511.745 552C505.383 563.76 499.09 576.105 496.147 586.742C495.403 589.371 494.625 592.087 493.829 594.869C490.073 607.942 485.829 622.742 482.159 637.891L482.043 638.382C482.003 638.538 481.967 638.695 481.927 638.851C481.808 639.333 481.8 639.836 481.904 640.322C482.008 640.808 482.221 641.263 482.527 641.654C482.833 642.045 483.224 642.362 483.67 642.579C484.116 642.796 484.606 642.909 485.102 642.909H485.128H486.061L503.222 642.742L534.105 643.229L543.275 643.375H543.326C544.015 643.375 544.685 643.158 545.243 642.754C545.801 642.351 546.217 641.781 546.433 641.127C556.464 610.716 563.168 587.124 567.506 566.876C567.532 566.756 567.55 566.633 567.564 566.513C568.912 552.676 572.084 533.24 575.147 514.447C579.809 485.873 582.614 468.062 581.607 462.142C580.997 458.506 577.705 450.902 573.614 443.618C572.291 441.269 570.954 439.08 569.635 437.113C569.012 436.153 568.159 435.364 567.153 434.818C566.147 434.273 565.021 433.988 563.876 433.989L563.869 433.975Z" fill="#17091D"/>
<path d="M570.758 445.212C568.835 458.368 565.827 471.342 561.766 484.001C551.196 517.016 517.715 593.041 503.233 639.463L486.025 639.19C490.523 620.55 494.938 602.91 499.273 587.638C508.29 555.03 551.593 501.528 551.414 464.728C551.48 441.507 563.201 433.379 566.911 438.91C568.233 440.896 569.534 443.038 570.758 445.212Z" fill="#D969BD"/>
</svg>
