<svg width="1000" height="1000" viewBox="0 0 1000 1000" fill="none" xmlns="http://www.w3.org/2000/svg">
<path d="M414.253 513.455C414.253 513.455 441.114 532.364 445.667 542.546C450.219 552.727 452.534 559.127 452.04 569.455C451.545 579.782 477.836 584.727 498.183 574.546C518.53 564.364 518.243 555.582 533.285 563.971C548.327 572.36 534.327 578.847 551.956 579.273C569.585 579.698 584.714 571.138 576.3 558.909C567.885 546.68 569.552 525.429 569.473 525.262C569.393 525.095 572.441 498.738 572.441 498.738C572.441 498.738 491.781 517.236 490.437 516.8C489.092 516.364 422.904 507.876 422.904 507.876L414.253 513.455Z" fill="#F9B4F9"/>
<path d="M502.646 549.72C477.968 549.72 449.41 543.098 433.194 533.618C422.701 527.487 411.976 517.981 402.994 506.894C393.515 495.174 386.488 482.44 382.669 470.058C377.401 452.967 379.494 449.305 383.65 444.283C385.311 442.276 387.193 440.003 388.613 435.77C394.129 419.327 413.32 412.043 419.079 410.203C419.92 409.912 420.801 409.752 421.691 409.73C423.283 409.73 424.151 410.436 424.598 411.025C425.477 412.189 425.568 413.934 424.878 416.389C423.598 420.866 420.686 424.699 416.717 427.13C414.788 428.327 412.862 430.254 411.002 432.854C409.418 435.069 409.135 437.381 410.108 440.127C411.543 444.196 415.486 448.458 419.297 452.578C419.697 453.007 420.093 453.44 420.485 453.865C427.432 461.421 467.039 488.047 482.782 492.596C499.092 497.323 513.146 499.6 525.75 499.6C528.929 499.6 532.061 499.45 535.059 499.156C535.251 499.138 535.422 499.12 535.604 499.094L536.149 499.021C536.635 498.952 537.133 498.865 537.689 498.756C553.236 495.603 564.896 478.923 565.807 471.254C565.895 470.512 565.983 469.775 566.073 469.043C568.202 451.458 570.069 443.083 574.851 443.083C577.242 443.083 579.574 445.341 582.423 450.407C584.683 454.429 587.204 460.13 590.129 467.832C596.931 485.745 589.639 509.414 582.564 519.77C575.327 530.367 544.414 544.338 518.948 548.523C513.555 549.358 508.103 549.758 502.646 549.72Z" fill="#FBDAFA"/>
<path d="M421.691 411.186C424.114 411.186 424.216 413.368 423.478 415.993C422.292 420.118 419.606 423.65 415.95 425.895C414.279 426.931 412.142 428.764 409.821 432.008C407.804 434.826 407.71 437.717 408.731 440.619C410.424 445.411 415.176 450.248 419.409 454.855C426.214 462.251 466.028 489.273 482.378 493.997C495.869 497.895 510.846 501.059 525.749 501.059C528.907 501.059 532.064 500.913 535.196 500.608C535.396 500.59 535.592 500.568 535.788 500.542L536.366 500.462C536.904 500.386 537.438 500.291 537.968 500.186C554.369 496.862 566.287 479.517 567.246 471.43C567.333 470.702 567.421 469.968 567.511 469.226C569.106 456.037 570.832 444.546 574.847 444.542C576.507 444.542 578.556 446.506 581.151 451.124C583.291 454.931 585.801 460.546 588.781 468.353C595.321 485.524 588.483 508.546 581.376 518.953C574.269 529.36 543.055 543.091 518.712 547.091C513.396 547.913 508.023 548.306 502.645 548.266C479.359 548.266 450.623 542.124 433.928 532.364C413.091 520.186 391.908 495.091 384.057 469.63C376.205 444.168 385.368 449.993 389.99 436.233C394.612 422.473 409.712 414.728 419.522 411.59C420.223 411.344 420.959 411.208 421.702 411.186M421.702 408.277C420.662 408.297 419.633 408.48 418.65 408.819C414.98 409.986 407.844 412.68 401.104 417.571C394.157 422.608 389.478 428.575 387.236 435.306C385.899 439.284 384.188 441.353 382.531 443.357C380.645 445.637 378.694 447.993 378.203 452.27C377.724 456.422 378.676 462.04 381.281 470.488C385.15 483.044 392.268 495.942 401.864 507.808C410.947 519.044 421.818 528.655 432.464 534.877C448.875 544.473 477.739 551.175 502.645 551.175C508.182 551.216 513.713 550.81 519.184 549.96C531.127 548 545.159 543.67 557.697 538.08C565.291 534.695 578.771 527.92 583.777 520.597C587.847 514.637 591.313 505.72 593.046 496.742C594.528 489.077 595.462 477.746 591.502 467.32C588.552 459.55 585.997 453.786 583.701 449.699C580.569 444.12 577.844 441.633 574.865 441.633C573.448 441.633 571.406 442.233 569.742 445.077C568.884 446.531 568.143 448.553 567.471 451.23C566.359 455.666 565.538 461.495 564.644 468.877C564.555 469.604 564.466 470.341 564.379 471.088C564.016 474.124 561.32 479.979 556.248 485.655C550.718 491.837 544.025 495.993 537.409 497.335C536.893 497.437 536.421 497.52 535.977 497.582H535.941L535.432 497.655L534.953 497.706H534.931C531.981 497.993 528.896 498.142 525.764 498.142C513.302 498.142 499.379 495.87 483.2 491.193C476.296 489.197 463.787 482.557 448.901 472.975C436.529 465.008 424.779 456.368 421.571 452.877L420.379 451.586C416.666 447.586 412.829 443.426 411.492 439.64C410.678 437.346 410.896 435.513 412.197 433.695C414.377 430.648 416.281 429.113 417.494 428.36C421.774 425.739 424.913 421.604 426.291 416.775C427.112 413.866 426.945 411.684 425.771 410.142C425.241 409.44 424.009 408.27 421.705 408.27L421.702 408.277Z" fill="#17091D"/>
<path d="M581.154 451.125C579.428 464.216 573.677 478.863 570.487 485.819C566.305 494.939 530.52 519.274 513.443 521.67C496.367 524.066 493.823 511.637 474.93 502.968C456.037 494.299 415.707 457.819 409.821 450.408C407.663 447.688 407.753 444.088 408.731 440.619C410.424 445.412 415.176 450.248 419.409 454.856C426.214 462.252 466.028 489.274 482.378 493.997C498.728 498.721 517.258 502.361 535.2 500.608C535.4 500.59 535.596 500.568 535.792 500.543L536.37 500.463C536.907 500.386 537.442 500.292 537.972 500.186C538.397 500.099 538.815 500.001 539.233 499.896C539.498 499.83 539.76 499.757 540.021 499.685L540.334 499.594C555.339 495.146 565.237 478.906 567.249 471.43C567.432 470.71 567.522 469.969 567.515 469.226C569.76 450.583 572.303 435.336 581.154 451.125Z" fill="#F9B4F9"/>
<path d="M473.037 570.888C471.272 570.902 469.513 570.698 467.798 570.281C462.609 568.972 459.55 565.997 458.715 561.441C458.013 557.67 458.878 553.441 459.71 549.317C460.255 546.633 460.771 544.095 460.771 542.001C460.771 537.972 461.262 527.932 462.588 518.132C464.768 501.797 467.554 498.557 469.451 497.543C470.045 497.239 470.706 497.088 471.373 497.103C475.842 497.103 485.739 503.19 500.803 515.19C503.877 517.644 506.166 519.553 507.009 520.281L507.176 520.419C507.349 520.562 507.491 520.74 507.593 520.941C507.695 521.142 507.755 521.361 507.768 521.586C507.826 522.553 509.2 545.364 508.106 552.717C508.028 553.366 507.878 554.004 507.659 554.619C506.853 556.699 503.557 559.233 500.941 560.99C494.103 565.546 482.716 570.888 473.037 570.888Z" fill="#CE44A2"/>
<path d="M471.355 498.738C476.707 498.738 491.276 509.709 499.757 516.469C502.95 519.015 505.283 520.975 505.933 521.517L506.115 521.669C506.115 521.669 507.546 545.193 506.478 552.462C506.413 552.988 506.291 553.505 506.115 554.004C505.617 555.287 503.335 557.382 500.007 559.615C493.253 564.153 482.204 569.251 473.044 569.251C471.414 569.266 469.789 569.079 468.205 568.695C454.398 565.204 462.391 550.727 462.391 542C462.391 533.273 464.571 502 470.199 498.986C470.557 498.81 470.953 498.725 471.351 498.738M471.351 495.466C470.414 495.45 469.487 495.669 468.655 496.102C466.112 497.466 463.205 501.124 460.945 517.92C459.615 527.797 459.129 537.938 459.129 542.007C459.129 543.938 458.631 546.397 458.1 549C457.236 553.258 456.342 557.662 457.101 561.727C458.075 566.967 461.541 570.375 467.402 571.858C469.247 572.307 471.141 572.527 473.041 572.513C483.087 572.513 494.841 567.022 501.828 562.331C505.919 559.586 508.386 557.182 509.16 555.189C509.425 554.458 509.607 553.699 509.701 552.927C510.816 545.422 509.436 522.444 509.374 521.469C509.346 521.02 509.226 520.582 509.022 520.182C508.818 519.781 508.533 519.427 508.186 519.142L508.048 519.022C507.187 518.295 504.883 516.371 501.798 513.909C497.755 510.687 491.77 506.066 486.201 502.346C477.07 496.247 473.484 495.466 471.362 495.466H471.351Z" fill="#17091D"/>
<path d="M574.043 573.164C572.289 573.164 570.076 572.775 567.278 571.979C562.126 570.506 549.239 566.364 540.878 559.713C537.648 557.168 535.505 554.491 534.505 551.819C534.126 550.817 533.905 549.761 533.851 548.691C533.648 544.055 533.819 540.157 533.968 536.717C534.128 533.08 534.255 530.208 533.873 527.844C533.19 523.648 529.372 520.208 529.335 520.178C529.153 520.016 529.01 519.815 528.915 519.59C528.821 519.365 528.777 519.121 528.789 518.877C528.8 518.633 528.866 518.395 528.981 518.18C529.097 517.964 529.259 517.778 529.455 517.633C529.488 517.611 530.305 517.015 531.704 516.051C534.019 514.462 537.619 512.073 541.62 509.709C551.026 504.153 558.166 501.346 562.845 501.346C563.354 501.344 563.861 501.38 564.364 501.455C570.029 502.313 574.737 505.186 577.622 509.542C580.58 514.008 581.325 519.589 579.77 525.68C579.056 528.457 578.155 531.182 577.074 533.837C575.257 538.473 574.418 540.589 577.212 551.291L577.477 552.295C580.02 562.04 581.564 567.931 579.101 571.124C578.044 572.469 576.343 573.164 574.043 573.164Z" fill="#CE44A2"/>
<path d="M562.857 502.967C563.283 502.965 563.71 502.996 564.132 503.058C573.942 504.545 581.354 512.876 578.196 525.262C575.039 537.647 571.522 535.913 575.653 551.684C579.003 564.509 581.03 571.527 574.065 571.527C572.463 571.527 570.392 571.164 567.751 570.404C558.802 567.858 548.432 563.615 541.918 558.433C539.102 556.196 537.005 553.778 536.057 551.244C535.739 550.402 535.554 549.517 535.508 548.618C535.083 539.091 536.293 532.436 535.508 527.582C534.724 522.727 530.44 518.953 530.44 518.953C530.44 518.953 531.257 518.356 532.653 517.396C534.833 515.902 538.404 513.516 542.463 511.113C549.315 507.065 557.563 502.967 562.857 502.967ZM562.857 499.695C557.879 499.695 550.46 502.604 540.802 508.295C536.758 510.684 533.125 513.095 530.792 514.698C529.372 515.673 528.536 516.284 528.503 516.309C528.109 516.598 527.785 516.971 527.554 517.402C527.323 517.833 527.191 518.31 527.169 518.798C527.146 519.286 527.233 519.773 527.423 520.224C527.613 520.674 527.902 521.076 528.267 521.4C529.208 522.244 531.784 525.109 532.264 528.098C532.627 530.28 532.496 533.095 532.34 536.636C532.188 540.109 532.013 544.047 532.224 548.756C532.284 549.994 532.537 551.215 532.972 552.375C534.084 555.342 536.402 558.236 539.876 560.989C548.461 567.822 561.596 572.044 566.842 573.542C569.785 574.385 572.143 574.793 574.054 574.793C576.888 574.793 579.025 573.884 580.406 572.091C583.363 568.262 581.746 562.087 579.068 551.858L578.807 550.847C576.147 540.665 576.867 538.847 578.603 534.411C579.714 531.696 580.637 528.907 581.365 526.065C583.036 519.52 582.219 513.476 578.996 508.611C575.9 503.935 570.661 500.727 564.622 499.811C564.038 499.725 563.448 499.682 562.857 499.684V499.695Z" fill="#17091D"/>
<path d="M545.235 555.454C544.824 556.36 543.589 557.396 541.896 558.432C539.08 556.196 536.984 553.778 536.035 551.243C534.037 552.549 531.047 552.909 527.068 552.909C520.114 552.909 510.13 554.836 506.46 552.461C506.395 552.987 506.273 553.504 506.097 554.003C505.599 555.287 503.317 557.381 499.989 559.614C496.537 550.727 493.22 547.407 494.881 537.247C496.269 528.749 496.167 521.949 499.746 516.469C502.939 519.014 505.272 520.974 505.922 521.516C507.362 519.769 509.351 518.563 511.565 518.094C513.372 517.723 515.205 517.494 517.048 517.411C524.213 517.047 529.55 516.243 532.627 517.411C534.807 515.916 538.379 513.531 542.437 511.127C542.485 516.945 542.841 524.647 544.214 529.694C546.688 538.727 547.052 551.454 545.235 555.454Z" fill="#9C398C"/>
<path d="M480.985 523.988C481.293 523.219 482.165 522.845 482.935 523.152L509.647 533.828C510.188 534.045 510.556 534.556 510.588 535.138C510.621 535.72 510.313 536.269 509.799 536.544L490.353 546.958C489.622 547.349 488.713 547.074 488.322 546.344C487.931 545.614 488.206 544.705 488.937 544.314L505.543 535.419L481.821 525.938C481.052 525.63 480.678 524.758 480.985 523.988Z" fill="#17091D"/>
<path d="M547.307 523.834C548.096 523.58 548.942 524.014 549.196 524.802C549.45 525.591 549.016 526.436 548.228 526.69L531.468 532.093L546.76 539.437C547.507 539.796 547.822 540.692 547.463 541.439C547.105 542.186 546.208 542.501 545.461 542.142L526.783 533.17C526.23 532.905 525.894 532.329 525.936 531.716C525.978 531.104 526.388 530.579 526.972 530.391L547.307 523.834Z" fill="#17091D"/>
<path d="M512.891 555.273C509.425 555.273 507.1 554.811 505.574 553.818C504.763 553.319 504.128 552.579 503.757 551.702C502.732 549.244 502.136 541.284 501.98 528.04C501.951 525.341 502.856 522.714 504.541 520.607C506.227 518.499 508.589 517.04 511.227 516.477C513.118 516.083 515.038 515.84 516.968 515.749C518.683 515.662 520.27 515.549 521.804 515.444C524.194 515.277 526.262 515.135 528.089 515.135C530.302 515.135 531.922 515.357 533.201 515.833C534 516.108 534.729 516.555 535.337 517.142C535.945 517.73 536.416 518.443 536.718 519.233C538.513 523.869 540.693 536.106 540.693 543.818C540.693 548.142 539.498 550.938 536.929 552.615C534.829 553.986 531.973 554.546 527.068 554.546C524.99 554.546 522.548 554.727 520.187 554.909C517.723 555.091 515.173 555.273 512.891 555.273Z" fill="#CE44A2"/>
<path d="M528.093 516.801C529.909 516.801 531.446 516.954 532.631 517.398C533.215 517.589 533.749 517.91 534.194 518.335C534.638 518.761 534.982 519.28 535.199 519.856C536.878 524.183 539.058 536.183 539.058 543.819C539.058 547.652 538.052 549.928 536.035 551.245C534.019 552.561 531.047 552.91 527.068 552.91C522.766 552.91 517.302 553.638 512.898 553.638C510.184 553.638 507.866 553.358 506.467 552.452C505.937 552.13 505.521 551.651 505.275 551.081C504.051 548.136 503.717 535.765 503.626 528.03C503.6 525.709 504.378 523.45 505.827 521.637C507.276 519.824 509.307 518.569 511.576 518.085C513.382 517.713 515.216 517.485 517.058 517.401C521.462 517.179 525.179 516.79 528.1 516.79M528.1 513.518C526.214 513.518 524.103 513.663 521.702 513.83C520.172 513.936 518.595 514.048 516.895 514.132C514.879 514.235 512.875 514.496 510.9 514.91C507.893 515.553 505.202 517.217 503.281 519.619C501.361 522.022 500.33 525.015 500.363 528.092C500.603 548.368 501.816 551.274 502.263 552.368C502.762 553.554 503.617 554.555 504.709 555.234C506.525 556.412 509.069 556.939 512.905 556.939C515.249 556.939 517.829 556.747 520.325 556.576C522.763 556.394 525.066 556.212 527.083 556.212C530.919 556.212 534.88 555.947 537.837 554.03C540.868 552.048 542.343 548.725 542.343 543.848C542.343 535.743 540.112 523.463 538.262 518.699C537.883 517.687 537.286 516.771 536.513 516.016C535.74 515.262 534.81 514.686 533.79 514.332C532.307 513.776 530.552 513.528 528.111 513.528L528.1 513.518Z" fill="#17091D"/>
<path d="M514.855 570.428L511.865 570.672L510.651 555.799L513.642 555.555L514.855 570.428Z" fill="#17091D"/>
</svg>
