<svg width="1000" height="1000" viewBox="0 0 1000 1000" fill="none" xmlns="http://www.w3.org/2000/svg">
<path d="M430.964 491.273L437.643 553L557.768 693.455L567.578 652.728L599.914 518.546L590.104 451.637L550.636 465.091C550.636 465.091 534.602 472.364 507.217 473.909C479.833 475.455 430.964 491.273 430.964 491.273Z" fill="#FBDAFA"/>
<path d="M475.346 522.862C473.446 522.861 471.611 522.168 470.183 520.913C458.891 510.993 431.39 486.132 419.96 469.553C405.554 448.666 398.501 435.372 398.432 435.226L397.938 434.284L398.665 433.524C399.242 432.939 412.904 419.121 421.137 414.375C423.117 413.193 425.372 412.55 427.677 412.51C430.809 412.51 433.45 413.881 434.74 416.182C436.03 418.484 435.808 421.452 434.013 424.393C429.319 432.11 426.747 436.361 449.15 450.03C484.244 471.433 513.605 472.146 513.896 472.15L516.723 472.193L481.65 519.681C480.92 520.666 479.969 521.466 478.875 522.019C477.78 522.571 476.572 522.86 475.346 522.862Z" fill="#FBDAFA"/>
<path d="M427.695 413.964C432.781 413.964 436.128 418.16 432.781 423.637C427.695 432 425.151 437.091 448.405 451.273C484.295 473.16 513.885 473.604 513.885 473.604L480.48 518.815C479.955 519.525 479.289 520.119 478.523 520.558C477.757 520.997 476.909 521.273 476.031 521.367C475.153 521.462 474.266 521.373 473.424 521.106C472.583 520.839 471.806 520.401 471.142 519.818C459.668 509.746 432.469 485.131 421.155 468.727C406.621 447.669 399.718 434.546 399.718 434.546C399.718 434.546 413.724 420.338 421.881 415.637C423.639 414.579 425.644 414.003 427.695 413.964ZM427.695 411.055C425.134 411.094 422.628 411.805 420.428 413.117C412.024 417.957 398.228 431.909 397.647 432.502L396.15 434.018L397.142 435.902C397.429 436.444 404.303 449.422 418.76 470.378C430.282 487.106 457.888 512.051 469.22 522.015C470.185 522.863 471.316 523.502 472.541 523.891C473.766 524.279 475.058 524.409 476.335 524.272C477.613 524.136 478.848 523.735 479.963 523.096C481.078 522.457 482.048 521.594 482.812 520.56L516.217 475.349L519.582 470.793L513.925 470.709C513.855 470.709 506.56 470.553 495.068 467.8C484.476 465.255 468.043 459.88 449.912 448.822C439.739 442.64 434.111 437.851 432.661 434.226C431.619 431.618 432.661 429.469 435.259 425.182C437.305 421.822 437.577 418.295 436.008 415.502C434.438 412.709 431.346 411.055 427.695 411.055Z" fill="#17091D"/>
<path d="M561.7 510.139C559.814 510.139 558.793 507.699 556.348 501.805C552.38 492.255 545.742 476.277 534.824 473.463C534.304 473.337 533.833 473.058 533.474 472.66C533.115 472.263 532.884 471.767 532.812 471.236C532.739 470.705 532.828 470.165 533.067 469.686C533.306 469.207 533.684 468.811 534.152 468.55C537.934 466.426 543.38 464.492 548.645 462.619C554.905 460.394 561.362 458.092 564.897 455.55C566.031 454.728 567.117 454.034 568.167 453.368C573.13 450.186 576.124 448.277 574.493 439.55C574.224 438.125 574.947 435.834 576.099 434.459C577.051 433.31 578.042 433.066 578.707 433.066C580.302 433.066 581.65 434.365 582.704 436.917C590.334 455.288 575.801 483.994 567.964 499.412C565.954 503.376 564.363 506.51 563.854 508.103C563.331 509.783 562.39 510.139 561.7 510.139Z" fill="#FBDAFA"/>
<path d="M578.721 434.499C579.553 434.499 580.48 435.284 581.384 437.455C590.758 459.983 565.067 499.597 562.491 507.637C562.262 508.364 562.001 508.684 561.699 508.684C558.723 508.684 551.98 476.379 535.176 472.055C534.939 471.997 534.725 471.87 534.563 471.688C534.4 471.507 534.296 471.281 534.263 471.039C534.231 470.797 534.273 470.552 534.382 470.334C534.492 470.116 534.665 469.937 534.878 469.819C543.02 465.252 559.043 461.586 565.761 456.728C572.301 452.001 578.114 450.91 575.934 439.273C575.68 437.921 576.988 434.499 578.721 434.499ZM578.721 431.59C577.997 431.612 577.286 431.796 576.641 432.127C575.996 432.459 575.434 432.93 574.993 433.506C573.54 435.244 572.73 437.953 573.079 439.808C574.532 447.561 572.294 448.993 567.4 452.135C566.332 452.819 565.22 453.528 564.061 454.368C560.711 456.79 554.338 459.055 548.172 461.248C542.849 463.143 537.345 465.099 533.453 467.284C532.735 467.688 532.153 468.297 531.785 469.035C531.416 469.772 531.277 470.603 531.385 471.421C531.494 472.238 531.845 473.004 532.393 473.62C532.941 474.235 533.661 474.672 534.46 474.873C544.677 477.503 551.144 493.055 555.006 502.361C555.929 504.583 556.729 506.503 557.433 507.91C558.084 509.197 559.286 511.593 561.699 511.593C562.473 511.593 564.373 511.295 565.26 508.524C565.736 507.041 567.378 503.797 569.282 500.048C577.21 484.412 591.972 455.321 584.069 436.335C582.758 433.186 580.959 431.608 578.721 431.608V431.59Z" fill="#17091D"/>
<path d="M517.076 527.243C515.764 527.245 514.468 526.952 513.283 526.385C512.099 525.819 511.057 524.993 510.235 523.97L497.264 507.552C494.76 504.468 496.235 499.701 498.263 496.559L498.306 496.494L509.181 481.257C509.395 480.923 509.708 480.366 510.071 479.726C512.356 475.675 514.279 472.552 516.448 472.195L532.918 469.512L545.136 482.126C546.292 483.279 548.632 487.377 550.31 490.686C554.111 498.17 553.711 499.475 553.519 500.104V500.174L545.819 519.41C545.299 521.089 544.287 522.572 542.914 523.669C541.542 524.765 539.872 525.424 538.12 525.559L517.803 527.214C517.567 527.232 517.327 527.243 517.076 527.243Z" fill="#7E4282"/>
<path d="M532.336 471.272L543.963 483.272C545.78 485.09 552.527 497.767 551.956 499.636L544.257 518.872C543.838 520.25 543.014 521.47 541.893 522.373C540.772 523.276 539.406 523.822 537.972 523.938L517.658 525.581C517.461 525.581 517.269 525.607 517.076 525.607C516.008 525.606 514.954 525.367 513.99 524.907C513.026 524.447 512.176 523.778 511.503 522.949L498.546 506.545C496.588 504.13 497.95 500.065 499.636 497.454L510.536 482.181C511.626 480.476 514.711 474.145 516.713 473.818L532.336 471.272ZM533.495 467.767L531.809 468.043L516.186 470.589C513.279 471.061 511.234 474.345 508.647 478.927C508.324 479.501 508.015 480.047 507.826 480.349L496.977 495.552L496.929 495.614L496.89 495.679C494.571 499.272 492.947 504.807 495.992 508.589L508.938 524.978V524.996C509.917 526.212 511.157 527.193 512.565 527.865C513.974 528.537 515.516 528.884 517.076 528.879C517.356 528.879 517.64 528.879 517.919 528.843L538.233 527.199C540.298 527.04 542.269 526.266 543.892 524.978C545.515 523.69 546.716 521.947 547.342 519.97L554.972 500.854L555.026 500.723L555.066 500.589C555.455 499.316 555.226 497.894 554.227 495.349C553.5 493.465 552.472 491.374 551.753 489.952C551.39 489.225 548.12 482.85 546.281 480.981L534.654 468.981L533.466 467.756L533.495 467.767Z" fill="#17091D"/>
<path d="M513.886 525.887L504.905 636.545L544.508 675.818L561.585 684.181L572.892 627.047L542.837 523.545L513.886 525.887Z" fill="#7E4282" stroke="#17091D" stroke-width="3.29" stroke-miterlimit="10"/>
<path d="M553.19 696.539C552.638 696.54 552.091 696.429 551.583 696.212C551.075 695.996 550.616 695.68 550.233 695.281L400.02 539.598C399.627 539.193 399.322 538.712 399.121 538.185C398.921 537.657 398.83 537.095 398.854 536.531C398.878 535.967 399.017 535.415 399.262 534.907C399.506 534.398 399.852 533.946 400.278 533.576L417.613 518.514C417.736 518.404 417.827 518.262 417.874 518.104C417.922 517.945 417.923 517.776 417.879 517.617C417.835 517.457 417.748 517.313 417.626 517.201C417.504 517.089 417.354 517.014 417.191 516.983L390.998 512.219C390.069 512.047 389.226 511.564 388.608 510.849C387.989 510.134 387.632 509.23 387.594 508.285C387.198 496.808 386.242 458.423 390.679 446.365C394.312 436.525 402.4 428.859 406.905 425.168C407.641 424.557 408.568 424.224 409.525 424.227C410.475 424.22 411.398 424.543 412.138 425.139C412.878 425.735 413.39 426.569 413.587 427.499C417.947 448.005 427.052 465.288 435.067 480.536C435.837 482.01 436.593 483.453 437.334 484.867C444.238 498.096 520.901 616.503 549.779 661.07C556.053 670.761 560.591 677.761 562.103 680.125C562.691 681.035 562.896 682.141 562.673 683.201C562.642 683.356 562.588 683.506 562.513 683.645L557.22 693.463C556.984 694.343 556.465 695.119 555.742 695.672C555.018 696.225 554.133 696.522 553.223 696.518L553.19 696.539Z" fill="#CE44A2"/>
<path d="M409.507 425.859C410.084 425.857 410.644 426.054 411.093 426.417C411.542 426.78 411.852 427.287 411.97 427.852C416.835 450.615 427.619 469.819 435.871 485.637C444.227 501.699 551.934 667.332 560.712 681.019C561.074 681.569 561.204 682.239 561.075 682.885L555.683 692.895C555.568 693.465 555.258 693.977 554.806 694.344C554.355 694.71 553.79 694.908 553.209 694.903C552.875 694.903 552.545 694.836 552.238 694.705C551.931 694.575 551.653 694.383 551.421 694.143L401.198 538.463C400.961 538.218 400.777 537.928 400.657 537.609C400.536 537.291 400.481 536.952 400.495 536.612C400.509 536.272 400.593 535.938 400.74 535.631C400.887 535.324 401.094 535.05 401.35 534.826L418.681 519.765C419.037 519.454 419.298 519.049 419.433 518.596C419.569 518.143 419.575 517.662 419.45 517.206C419.325 516.75 419.074 516.339 418.726 516.02C418.378 515.701 417.947 515.486 417.482 515.401L391.271 510.637C390.707 510.536 390.195 510.244 389.82 509.811C389.444 509.377 389.228 508.829 389.208 508.255C388.881 498.801 387.791 458.928 392.194 446.954C395.668 437.499 403.458 430.106 407.919 426.459C408.366 426.088 408.927 425.885 409.507 425.884M409.507 422.612C408.174 422.617 406.884 423.081 405.852 423.924C401.219 427.724 392.885 435.615 389.139 445.819C384.597 458.161 385.552 496.812 385.952 508.365C386.004 509.679 386.499 510.937 387.357 511.933C388.214 512.93 389.384 513.606 390.675 513.852L415.342 518.31L399.21 532.339C398.615 532.854 398.131 533.486 397.788 534.195C397.446 534.904 397.251 535.676 397.217 536.462C397.183 537.249 397.31 538.035 397.591 538.771C397.871 539.507 398.298 540.178 398.847 540.743L549.049 696.412C549.746 697.133 550.618 697.66 551.581 697.942C552.543 698.223 553.562 698.248 554.538 698.016C555.513 697.783 556.411 697.3 557.143 696.615C557.875 695.929 558.417 695.065 558.713 694.106L563.924 684.434C564.076 684.155 564.185 683.854 564.247 683.543C564.557 682.065 564.271 680.523 563.451 679.255C561.936 676.892 557.398 669.885 551.098 660.183C522.271 615.637 445.626 497.285 438.766 484.124C438.025 482.706 437.268 481.263 436.495 479.794C428.528 464.637 419.499 447.459 415.164 427.172C414.895 425.871 414.185 424.704 413.154 423.869C412.122 423.034 410.834 422.582 409.507 422.59V422.612Z" fill="#17091D"/>
<path d="M534.664 724.042C534.383 724.036 534.106 723.968 533.855 723.843C533.603 723.717 533.383 723.536 533.211 723.314C533.033 723.095 532.907 722.838 532.844 722.562C532.781 722.287 532.782 722 532.847 721.725C534.726 713.802 544.332 673.54 548.859 658.991C554.055 642.296 570.659 575.802 572.861 555.449C576.858 518.554 579.953 486.085 577.584 462.332C576.589 452.34 575.404 446.623 574.561 443.583C573.678 440.407 574.08 437.011 575.681 434.129C577.337 431.22 579.314 430.602 580.651 430.602C583.779 430.602 588.92 433.249 597.451 456.147C599.334 461.198 604.954 470.5 609.91 478.692C616.577 489.729 620.352 496.1 620.447 498.747C620.523 500.692 619.251 503.674 608.682 509.474C608.261 509.706 607.909 510.046 607.665 510.46C607.42 510.874 607.291 511.346 607.291 511.827C607.291 512.308 607.42 512.78 607.665 513.194C607.909 513.608 608.261 513.948 608.682 514.18C618.932 519.805 624.585 524.769 625.479 528.929C625.962 531.18 623.713 539.878 618.794 554.78C613.874 569.682 607.338 587.489 600.347 605.067C589.538 632.234 568.857 680.838 551.697 701.296L536.186 723.252C536.014 723.496 535.785 723.695 535.521 723.832C535.256 723.969 534.962 724.041 534.664 724.042Z" fill="#CE44A2"/>
<path d="M580.659 432.245C583.889 432.245 588.783 437.551 595.919 456.729C599.858 467.296 618.646 494.209 618.809 498.831C618.907 501.442 613.036 505.245 607.909 508.067C607.231 508.439 606.665 508.987 606.271 509.653C605.877 510.319 605.669 511.079 605.669 511.853C605.669 512.627 605.877 513.387 606.271 514.053C606.665 514.719 607.231 515.266 607.909 515.638C614.402 519.202 622.897 524.664 623.896 529.3C625.531 536.911 579.933 665.187 550.415 700.322L534.854 722.307C534.833 722.339 534.805 722.364 534.772 722.382C534.739 722.4 534.702 722.409 534.665 722.409C534.629 722.409 534.593 722.402 534.561 722.386C534.529 722.371 534.5 722.348 534.478 722.32C534.455 722.292 534.44 722.259 534.432 722.224C534.424 722.189 534.424 722.153 534.432 722.118C536.198 714.682 545.888 674.034 550.419 659.493C555.408 643.456 572.244 576.365 574.483 555.638C578.686 516.729 581.531 485.514 579.206 462.184C578.189 452.002 576.961 446.184 576.132 443.169C575.357 440.409 575.703 437.453 577.095 434.947C577.941 433.46 579.104 432.245 580.648 432.245M580.648 428.973C578.861 428.973 576.288 429.725 574.257 433.336C572.447 436.597 571.99 440.44 572.986 444.034C573.796 447.009 574.969 452.631 575.958 462.511C578.312 486.107 575.231 518.489 571.234 555.289C569.054 575.562 552.479 641.867 547.294 658.522C542.756 673.107 533.124 713.431 531.253 721.369C531.13 721.884 531.125 722.42 531.239 722.937C531.353 723.454 531.583 723.938 531.911 724.354C532.239 724.769 532.657 725.104 533.133 725.334C533.61 725.564 534.132 725.683 534.661 725.682C535.22 725.68 535.77 725.545 536.266 725.288C536.763 725.03 537.19 724.658 537.513 724.202L552.999 702.325C570.297 681.66 591.036 632.936 601.871 605.704C608.876 588.093 615.441 570.202 620.353 555.322C627.907 532.442 627.329 529.762 627.082 528.616C626.465 525.733 624.136 522.751 619.968 519.496C616.652 516.984 613.144 514.737 609.475 512.776C609.306 512.689 609.164 512.555 609.067 512.392C608.969 512.228 608.919 512.04 608.923 511.849C608.92 511.661 608.969 511.476 609.065 511.315C609.162 511.154 609.301 511.022 609.468 510.936C620.731 504.754 622.185 501.282 622.079 498.714C621.97 495.805 618.875 490.413 611.303 477.878C606.38 469.733 600.802 460.496 598.975 455.591C595.592 446.5 592.409 439.744 589.528 435.467C586.574 431.104 583.675 428.984 580.659 428.984L580.648 428.973Z" fill="#17091D"/>
</svg>
