<svg width="1000" height="1000" viewBox="0 0 1000 1000" fill="none" xmlns="http://www.w3.org/2000/svg">
<path d="M525.244 595.637C486.299 595.637 445.769 584.197 414.042 564.255C379.526 542.56 359.484 513.277 357.606 481.804C357.353 477.526 357.425 473.235 357.82 468.967C357.852 468.62 357.993 468.292 358.224 468.03C358.454 467.768 358.762 467.587 359.103 467.513C359.216 467.488 359.332 467.476 359.448 467.477C359.737 467.477 360.021 467.554 360.27 467.699C360.52 467.845 360.726 468.054 360.869 468.306C367.888 480.669 386.211 490.953 413.864 498.069C439.007 504.542 471.195 508.109 504.494 508.109C536.01 508.109 567.06 504.895 591.927 499.058C618.981 492.706 638.027 483.549 647.005 472.571C647.158 472.384 647.351 472.233 647.57 472.129C647.788 472.026 648.027 471.972 648.269 471.971C648.449 471.971 648.628 472.001 648.799 472.058C649.112 472.17 649.384 472.374 649.578 472.644C649.773 472.913 649.882 473.235 649.889 473.567C649.948 476.018 649.951 478.491 649.889 480.92C650.014 487.969 649.628 495.018 648.734 502.011C646.656 517.949 641.762 532.266 634.201 544.557C627.119 556.051 617.658 565.855 606.086 573.687C584.893 588.062 556.934 595.637 525.244 595.637Z" fill="#CE44A2"/>
<path d="M359.448 469.132C374.94 496.405 439.628 509.765 504.494 509.765C566.515 509.765 628.696 497.557 648.269 473.626C648.327 476.104 648.327 478.54 648.269 480.935C648.403 487.915 648.029 494.894 647.15 501.819C638.644 566.994 584.398 594.012 525.251 594.012C448.388 594.012 363.23 548.426 359.244 481.717C358.996 477.522 359.067 473.313 359.455 469.128M359.455 465.855C359.223 465.856 358.992 465.881 358.765 465.928C358.083 466.076 357.467 466.438 357.005 466.961C356.544 467.485 356.261 468.142 356.2 468.837C355.797 473.189 355.724 477.565 355.982 481.928C356.974 498.579 362.834 514.525 373.393 529.325C383.13 542.965 396.515 555.19 413.178 565.666C428.834 575.506 447.291 583.579 466.559 589.012C485.826 594.445 506.086 597.299 525.251 597.299C557.268 597.299 585.565 589.615 607.023 575.081C618.553 567.359 628.299 557.258 635.607 545.455C643.302 532.965 648.276 518.43 650.383 502.263C651.288 495.199 651.679 488.078 651.553 480.957C651.601 478.514 651.597 476.026 651.553 473.565C651.541 472.893 651.323 472.241 650.928 471.698C650.532 471.155 649.98 470.747 649.345 470.529C648.71 470.311 648.024 470.294 647.379 470.48C646.734 470.666 646.162 471.046 645.74 471.568C636.991 482.263 618.254 491.23 591.552 497.499C566.806 503.317 535.89 506.506 504.494 506.506C471.329 506.506 439.287 502.957 414.271 496.517C387.058 489.514 369.084 479.488 362.289 467.528C362.004 467.026 361.59 466.608 361.091 466.318C360.592 466.027 360.025 465.874 359.448 465.874L359.455 465.855Z" fill="#17091D"/>
<path d="M648.284 480.936C648.413 487.916 648.034 494.895 647.15 501.82C584.362 570.307 420.935 547.769 359.245 481.718C358.996 477.522 359.067 473.314 359.455 469.129C389.757 522.471 608.233 522.583 648.276 473.623C648.33 476.103 648.332 478.541 648.284 480.936Z" fill="#D969BD"/>
</svg>
