<svg width="1000" height="1000" viewBox="0 0 1000 1000" fill="none" xmlns="http://www.w3.org/2000/svg">
<path d="M402.796 724.029C384.316 724.029 368.929 720.229 357.066 712.738C347.965 706.989 343.005 700.462 339.699 695.418C334.463 687.418 328.705 654.8 328.461 653.414L328.414 653.138L338.507 592.047L339.045 554.661L339.921 493.265L372.257 471.574L386.733 481.512L386.798 481.563C386.932 481.68 400.605 493.167 420.759 504.498C439.289 514.916 467.324 527.334 495.471 527.334C500.207 527.342 504.937 526.977 509.616 526.243C541.084 521.24 559.465 517.465 571.073 513.621C585.196 508.949 587.423 504.531 587.809 501.185C588.219 497.509 590.715 497.109 591.765 497.109C598.469 497.109 613.086 513.258 615.949 516.494L616.134 516.705L616.239 516.967C616.363 517.269 628.422 547.549 630.155 581.582C630.951 597.145 631.049 605.581 630.518 611.683C630.18 615.516 629.606 618.407 628.876 622.069C628.378 624.578 627.812 627.425 627.19 631.225C626.609 634.785 626.176 638.272 625.759 641.643C624.044 655.534 622.42 668.654 610.906 686.465C609.136 689.2 607.563 691.705 606.041 694.123C598.494 706.123 593.938 713.356 587.485 713.356C584.698 713.356 581.795 711.992 578.347 709.065C573.09 704.6 570.481 698.6 567.963 692.796C564.573 684.992 561.372 677.625 551.951 674.854C544.899 672.778 535.067 671.538 525.649 671.538C513.678 671.538 492.288 673.516 483.521 686.763C467.127 711.541 441.076 723.731 403.882 724.025L402.796 724.029Z" fill="#CE44A2"/>
<path d="M372.236 473.552L385.73 482.814C385.73 482.814 440.23 528.967 495.456 528.967C500.279 528.977 505.095 528.606 509.859 527.858C569.573 518.363 588.19 512.367 589.429 501.367C589.636 499.516 590.486 498.749 591.762 498.745C598.069 498.745 614.721 517.578 614.721 517.578C614.721 517.578 626.78 547.512 628.527 581.665C629.356 597.923 629.392 605.807 628.891 611.541C628.331 617.851 627.118 621.56 625.577 630.96C622.641 648.909 623.677 663.687 609.532 685.578C599.083 701.741 594.17 711.72 587.485 711.72C585.12 711.72 582.537 710.476 579.405 707.818C567.415 697.636 569.751 678.363 552.413 673.272C545.847 671.341 536.019 669.891 525.649 669.891C508.627 669.891 490.137 673.789 482.158 685.851C469.315 705.261 447.057 722.036 403.867 722.378H402.81C360.438 722.378 346.13 702.229 341.08 694.505C335.953 686.727 330.067 653.131 330.067 653.131L340.131 592.2L340.669 554.683L341.534 494.145L372.228 473.552M372.25 469.6L370.408 470.832L339.714 491.425L338.315 492.381L338.289 494.098L337.406 554.636L336.861 591.909L326.841 652.596L326.75 653.145L326.848 653.694C327.462 657.203 333.003 688.192 338.329 696.316C341.723 701.498 346.824 708.203 356.191 714.134C368.319 721.796 383.997 725.68 402.792 725.68H403.882C424.327 725.516 441.832 721.651 455.911 714.185C467.756 707.909 477.228 699.24 484.873 687.687C488.143 682.749 493.734 678.981 501.499 676.494C508.239 674.334 516.588 673.192 525.639 673.192C534.911 673.192 544.572 674.407 551.479 676.44C560.166 678.985 563.08 685.701 566.452 693.465C569.046 699.44 571.731 705.621 577.279 710.331C581.04 713.523 584.277 715.011 587.474 715.011C594.832 715.011 599.566 707.487 607.414 695.011C608.933 692.596 610.506 690.094 612.268 687.374C623.986 669.247 625.631 655.945 627.372 641.865C627.786 638.509 628.215 635.036 628.793 631.505C629.41 627.734 629.973 624.905 630.471 622.414C631.198 618.705 631.79 615.774 632.135 611.869C632.68 605.687 632.582 597.181 631.772 581.534C630.856 563.596 627.099 546.861 624.105 535.981C620.861 524.185 617.863 516.709 617.74 516.389L617.529 515.869L617.166 515.447C616.991 515.251 612.853 510.578 607.857 505.825C598.24 496.683 594.203 495.509 591.758 495.509C589.313 495.509 586.631 496.963 586.177 501.04C585.207 509.723 565.83 515.683 509.354 524.676C504.759 525.395 500.115 525.753 495.464 525.745C467.694 525.745 439.975 513.461 421.613 503.152C401.56 491.898 387.979 480.48 387.844 480.367L387.717 480.258L387.583 480.167L374.089 470.905L372.272 469.651L372.25 469.6Z" fill="#17091D"/>
<path d="M628.872 611.541C628.312 617.85 627.099 621.56 625.558 630.96C622.622 648.909 623.658 663.687 609.513 685.578C595.369 707.469 591.376 718 579.386 707.818C567.396 697.636 569.732 678.363 552.394 673.272C535.055 668.181 494.987 666.44 482.139 685.85C469.292 705.261 447.038 722.036 403.848 722.378C360.659 722.72 346.166 702.298 341.061 694.509C335.956 686.72 330.066 653.13 330.066 653.13L340.131 592.2L340.668 554.683L368.961 533.178C368.961 533.178 391.677 539.53 384.704 569.672C377.732 599.814 371.196 636.581 407.525 643.287C443.855 649.992 483.785 634.505 518.32 626.069C552.855 617.632 562.908 640.025 589.308 637.92C603.976 636.752 618.687 623.272 628.872 611.541Z" fill="#9C398C"/>
<path d="M338.488 688.784C346.845 696.079 362.468 704.66 389.809 704.617C437.326 704.544 442.903 692.362 465.364 663.551C487.825 634.74 515.987 623.599 539.154 631.708C562.32 639.817 567.221 642.726 576.94 669.453C583.117 686.497 594.489 694.224 601.901 697.588" stroke="#17091D" stroke-width="2.54333" stroke-linecap="round" stroke-linejoin="round"/>
<path d="M509.867 528.326C509.867 528.326 531.562 573.817 524.593 627.006" stroke="#17091D" stroke-width="2.54333" stroke-linecap="round" stroke-linejoin="round"/>
<path d="M330.586 655.999C390.172 631.636 394.02 538.309 394.02 538.309" stroke="#17091D" stroke-width="2.54333" stroke-linecap="round" stroke-linejoin="round"/>
<path d="M446.59 611.999C429.75 611.999 414.98 597.217 414.98 580.363C414.98 571.123 417.077 564.257 421.386 559.374C426.342 553.755 434.335 550.908 445.137 550.908C454.024 550.908 462.174 554.079 468.089 559.843C470.969 562.651 473.253 566.013 474.804 569.727C476.354 573.44 477.139 577.429 477.11 581.454C477.102 589.552 473.883 597.316 468.162 603.043C462.44 608.77 454.682 611.99 446.59 611.999Z" fill="#FBDAFA"/>
<path d="M445.133 552.362C462.937 552.362 475.653 565.388 475.653 581.453C475.653 585.273 474.901 589.056 473.441 592.586C471.98 596.115 469.839 599.322 467.14 602.024C464.441 604.725 461.237 606.868 457.71 608.33C454.183 609.792 450.404 610.544 446.587 610.544C430.535 610.544 416.43 596.428 416.43 580.362C416.43 564.297 422.97 552.362 445.133 552.362ZM445.133 549.453C433.895 549.453 425.539 552.468 420.292 558.413C415.736 563.573 413.523 570.751 413.523 580.362C413.523 588.784 417.135 597.231 423.431 603.537C429.728 609.842 438.172 613.453 446.587 613.453C455.064 613.444 463.191 610.069 469.185 604.07C475.179 598.071 478.55 589.937 478.56 581.453C478.591 577.235 477.771 573.054 476.148 569.161C474.524 565.268 472.132 561.743 469.113 558.799C462.937 552.773 454.416 549.453 445.133 549.453Z" fill="#17091D"/>
<path d="M457.799 583.068C458.82 576.388 454.638 570.206 448.454 569.25C442.27 568.293 436.431 572.948 435.411 579.628C434.39 586.308 438.593 592.504 444.77 593.453C450.947 594.402 456.778 589.748 457.799 583.068Z" fill="#D969BD"/>
<path d="M451.211 566.29C453.083 566.883 454.815 567.853 456.298 569.141C457.801 570.45 459.027 572.046 459.906 573.836C460.796 575.656 461.329 577.632 461.475 579.654C461.616 581.704 461.37 583.763 460.749 585.723C459.531 589.661 456.849 592.982 453.257 594.999C451.53 595.97 449.625 596.578 447.656 596.788C445.687 596.998 443.696 596.805 441.804 596.221C439.931 595.63 438.2 594.66 436.718 593.37C435.228 592.062 434.014 590.47 433.146 588.686C432.256 586.865 431.723 584.89 431.577 582.868C431.438 580.816 431.684 578.757 432.303 576.796C433.522 572.858 436.203 569.537 439.795 567.519C441.516 566.553 443.415 565.945 445.377 565.734C447.34 565.523 449.324 565.712 451.211 566.29ZM448.457 569.261C446.963 569.041 445.44 569.135 443.984 569.535C442.528 569.936 441.171 570.635 439.999 571.588C437.533 573.612 435.902 576.478 435.42 579.633C434.938 582.788 435.638 586.01 437.386 588.679C438.212 589.947 439.295 591.026 440.565 591.845C441.836 592.665 443.265 593.207 444.759 593.436C446.254 593.665 447.779 593.576 449.237 593.174C450.694 592.772 452.05 592.067 453.217 591.105C455.682 589.08 457.313 586.215 457.795 583.06C458.278 579.905 457.577 576.683 455.829 574.014C454.996 572.754 453.911 571.681 452.642 570.863C451.373 570.045 449.948 569.499 448.457 569.261Z" fill="#17091D"/>
<path d="M493.646 529.246C477.805 529.246 470.193 525.885 458.671 520.802C452.858 518.241 446.282 515.334 437.097 512.148L437.035 512.126L436.973 512.1C419.649 504.489 397.007 493.073 387.4 481.904C373.099 465.241 358.13 458.61 357.97 458.545C356.793 458.047 356.153 457.328 356.044 456.405C355.888 454.93 357.134 454.043 358.482 453.102C359.16 452.649 359.803 452.145 360.404 451.594C361.371 450.65 364.612 443.354 366.977 438.031C369.219 432.988 371.537 427.771 373.19 424.759L373.212 424.726L373.23 424.69C376.9 418.716 385.046 414.182 397.45 411.214C398.06 411.066 398.686 410.99 399.314 410.988C400.903 410.983 402.448 411.507 403.706 412.478C404.963 413.449 405.861 414.812 406.257 416.351C406.784 418.575 405.915 420.617 404.044 421.558C396.214 425.493 392.988 430.103 394.176 435.651C396.233 445.247 411.929 457.847 436.159 469.361C457.632 479.564 482.303 487.107 496.175 487.706H496.273C500.648 488.171 505.044 488.41 509.444 488.422C526.135 488.422 540.999 485.014 553.632 478.296L553.672 478.274C564.183 473.035 569.877 467.334 570.596 461.332C571.243 455.944 567.919 450.127 560.71 444.041C559.006 442.587 558.559 439.888 559.569 437.137C560.532 434.514 562.436 432.883 564.547 432.883C565.415 432.892 566.261 433.155 566.981 433.639C580.824 442.558 588.894 453.469 590.961 466.07L590.987 466.233V466.397C590.718 473.38 590.26 481.043 589.759 489.159C589.537 492.767 589.315 496.448 589.101 500.165C589.355 500.979 589.395 502.145 588.596 503.62C585.177 509.935 565.524 520.882 532.541 525.438C515.391 528.047 503.027 529.261 493.646 529.261V529.246Z" fill="#CE44A2"/>
<path d="M399.316 412.633C404.109 412.633 406.529 418.49 403.313 420.107C359.055 442.343 460.164 487.796 496.108 489.351C500.539 489.815 504.991 490.051 509.446 490.056C525.001 490.056 540.606 487.077 554.402 479.737C579.257 467.34 574.792 453.795 561.763 442.79C559.292 440.701 561.399 434.502 564.546 434.502C565.099 434.514 565.637 434.687 566.094 435C577.637 442.438 587.073 452.473 589.347 466.319C588.955 476.493 588.133 488.261 587.447 500.404C589.816 505.429 568.706 518.774 532.311 523.806C514.896 526.44 502.859 527.61 493.649 527.61C470.348 527.61 465.25 520.18 437.634 510.602C419.002 502.417 397.54 491.219 388.642 480.838C375.376 465.4 361.206 458.134 358.623 457.044C356.04 455.954 359.39 454.864 361.53 452.785C363.67 450.707 370.889 432.344 374.61 425.561C378.545 419.177 387.573 415.26 397.834 412.811C398.319 412.694 398.817 412.634 399.316 412.633ZM399.316 409.363C398.56 409.365 397.806 409.455 397.071 409.632C384.049 412.75 375.798 417.4 371.841 423.846L371.798 423.915L371.761 423.984C370.075 427.054 367.743 432.301 365.486 437.376C363.39 442.1 360.225 449.214 359.215 450.482C358.692 450.947 358.137 451.376 357.555 451.764C356.131 452.771 354.176 454.148 354.437 456.578C354.554 457.65 355.164 459.122 357.344 460.052C357.489 460.114 372.103 466.592 386.156 482.967C395.945 494.369 418.835 505.915 436.315 513.596L436.435 513.647L436.558 513.691C445.681 516.855 452.232 519.748 458.013 522.298C469.723 527.465 477.458 530.88 493.645 530.88C503.11 530.88 515.547 529.659 532.787 527.04C551.106 524.496 564.012 520.158 571.609 516.954C577.233 514.581 587.105 509.796 590.037 504.382C591.022 502.566 591.004 501.043 590.764 499.986C590.971 496.353 591.189 492.737 591.403 489.231C591.898 481.111 592.363 473.441 592.632 466.447V466.116L592.577 465.789C590.426 452.709 582.113 441.446 567.87 432.25C566.887 431.593 565.732 431.24 564.549 431.232C561.734 431.232 559.241 433.274 558.039 436.559C556.789 439.974 557.424 443.4 559.659 445.279C566.417 450.987 569.553 456.32 568.975 461.127C568.325 466.545 562.933 471.82 552.945 476.802L552.905 476.82L552.868 476.842C540.475 483.432 525.865 486.775 509.45 486.775C505.105 486.769 500.764 486.54 496.443 486.088H496.345H496.246C482.578 485.496 458.158 478.015 436.86 467.896C425.596 462.548 415.906 456.811 408.818 451.299C401.267 445.435 396.759 439.909 395.774 435.313C395.411 433.576 394.27 428.3 404.777 423.021C407.35 421.738 408.556 418.973 407.847 415.987C407.365 414.091 406.264 412.411 404.718 411.212C403.173 410.013 401.272 409.364 399.316 409.367V409.363Z" fill="#17091D"/>
<path d="M459.809 519.537C441.036 512.739 401.596 495.92 388.643 480.838C375.378 465.4 361.208 458.133 358.625 457.043C356.041 455.953 359.391 454.863 361.531 452.785C363.595 450.79 370.066 434.182 374.611 425.56C376.126 425.324 377.224 425.967 377.678 427.839C380.465 439.24 362.4 453.501 417.161 481.023C445.323 495.193 461.463 509.265 459.809 519.537Z" fill="#9C398C"/>
<path d="M588.77 476.921C588.846 479.21 588.265 488.286 587.85 494.361C571.097 496.781 540.617 500.432 563.042 491.2C575.849 485.931 584.014 477.913 589.162 470.457C588.88 472.6 588.749 474.76 588.77 476.921Z" fill="#9C398C"/>
<path d="M540.936 522.244L539.195 503.187C538.994 500.93 539.571 498.671 540.831 496.787C542.09 494.904 543.957 493.508 546.121 492.832C566.002 486.535 583.351 469.92 589.019 464.074" stroke="#17091D" stroke-width="2.54333" stroke-linecap="round" stroke-linejoin="round"/>
<path d="M370.887 433.314C378.956 448.277 393.904 468.362 418.701 476.914C440.385 484.399 451.183 489.518 456.561 492.712C458.175 493.678 459.465 495.103 460.265 496.806C461.064 498.509 461.337 500.412 461.048 502.271L458.443 519.018" stroke="#17091D" stroke-width="2.54333" stroke-linecap="round" stroke-linejoin="round"/>
</svg>
