<svg width="1000" height="1000" viewBox="0 0 1000 1000" fill="none" xmlns="http://www.w3.org/2000/svg">
<path d="M498.91 899.011C480.743 899.011 462.464 898.211 444.577 896.636L442.644 896.462C435.25 895.789 427.853 894.974 420.652 894.04C383.675 889.265 361.254 882.64 361.029 882.574C360.692 882.473 360.396 882.266 360.186 881.984C359.976 881.702 359.862 881.359 359.862 881.007V845.371C359.863 844.937 360.036 844.521 360.342 844.215C360.649 843.908 361.064 843.735 361.497 843.734L365.062 843.796L409.973 844.56L539.665 846.767C584.188 847.52 624.216 848.2 624.99 848.2C626.858 848.2 634.172 852.265 639.978 855.676C640.177 855.793 640.349 855.95 640.483 856.138C640.617 856.326 640.71 856.541 640.755 856.767L640.777 856.883L646.227 887.353C646.293 887.731 646.224 888.12 646.032 888.452C645.84 888.785 645.537 889.039 645.177 889.171C644.814 889.298 642.405 890.003 629.052 891.353C626.422 891.618 623.377 891.902 619.747 892.222C618.56 892.328 617.315 892.435 616.012 892.542C611.053 892.963 605.755 893.382 600.262 893.793C598.484 893.926 596.633 894.062 594.71 894.2C579.05 895.331 560.074 896.542 538.313 897.793L537.95 897.814L534.618 898.003L533.02 898.091C529.187 898.302 525.266 898.48 521.03 898.633H520.866C519.5 898.68 518.134 898.723 516.779 898.76C510.849 898.909 504.836 899.011 498.91 899.011Z" fill="#CE44A2"/>
<path d="M361.494 845.352L365.029 845.414L409.941 846.178L539.651 848.385C586.463 849.178 624.307 849.818 625.005 849.818C626.822 849.818 639.175 857.069 639.175 857.069L639.197 857.185L644.647 887.636C644.647 887.636 642.743 888.33 628.918 889.716C626.28 889.981 623.207 890.269 619.631 890.585C618.447 890.692 617.204 890.798 615.904 890.905C611.395 891.269 606.184 891.705 600.171 892.152C598.396 892.286 596.546 892.421 594.623 892.559C580.282 893.596 561.872 894.792 538.248 896.152L534.517 896.363L532.922 896.45C528.889 896.671 524.904 896.85 520.968 896.989C519.551 897.036 518.138 897.083 516.732 897.119C510.662 897.294 504.719 897.379 498.903 897.374C479.119 897.374 460.935 896.436 444.715 895.007L442.786 894.832C434.996 894.105 427.671 893.301 420.859 892.418C383.585 887.603 361.494 881.007 361.494 881.007V845.37M361.494 842.098C360.627 842.098 359.795 842.442 359.182 843.056C358.568 843.67 358.224 844.502 358.224 845.37V881.007C358.224 881.711 358.452 882.397 358.873 882.962C359.294 883.526 359.885 883.94 360.56 884.141C361.472 884.414 383.33 890.869 420.441 895.665C427.657 896.599 435.076 897.418 442.488 898.09L444.421 898.265C462.366 899.847 480.693 900.647 498.921 900.647C504.869 900.647 510.911 900.559 516.844 900.392C518.261 900.356 519.7 900.305 521.095 900.258C525.354 900.105 529.285 899.93 533.118 899.719H533.427L534.713 899.65L537.754 899.476L538.412 899.439C560.157 898.185 579.141 896.978 594.837 895.843C596.775 895.705 598.628 895.568 600.396 895.432C605.876 895.025 611.18 894.607 616.158 894.185C617.462 894.076 618.701 893.97 619.9 893.861C623.534 893.541 626.589 893.254 629.223 892.989C642.067 891.705 645.057 890.981 645.744 890.73C646.465 890.467 647.07 889.959 647.454 889.294C647.838 888.629 647.976 887.85 647.844 887.094L642.394 856.643V856.614L642.369 856.498C642.283 856.038 642.1 855.603 641.831 855.22C641.563 854.837 641.216 854.517 640.814 854.279C640.683 854.203 637.645 852.421 634.328 850.603C627.53 846.847 626.077 846.545 624.987 846.545C624.013 846.545 584.083 845.865 539.687 845.112L496.189 844.385L409.995 842.93L365.084 842.167L361.552 842.105L361.494 842.098Z" fill="#17091D"/>
<path d="M644.607 887.635C644.607 887.635 642.703 888.33 628.878 889.715C628.66 883.246 628.475 877.268 628.515 876.17C628.58 873.624 622.639 873.988 620.46 876.534C619.257 877.937 619.602 884.654 619.606 890.574C618.421 890.68 617.179 890.787 615.878 890.894C615.878 886.501 616.107 881.639 615.812 878.923C615.162 872.948 607.379 876.897 603.303 877.377C599.226 877.857 599.75 881.261 600.113 889.988C600.142 890.715 600.153 891.443 600.146 892.141C598.37 892.274 596.521 892.41 594.597 892.548C595.099 887.243 595.6 881.755 594.438 879.821C592.032 875.854 567.413 881.606 567.413 881.606C567.413 881.606 545.613 882.334 538.346 883.788C532.507 884.955 536.991 888.941 538.223 896.123L534.517 896.363L532.922 896.45C532.787 890.181 532.435 884.061 530.124 883.315C525.19 881.726 522.345 885.635 521.255 891.817C521.01 893.529 520.914 895.259 520.968 896.988C519.551 897.035 518.138 897.083 516.731 897.119C516.448 892.755 516.241 888.614 515.805 886.726C514.715 881.999 506.358 885.635 497.239 883.315C488.119 880.995 481.288 885.635 470.399 885.461C459.51 885.286 451.143 883.817 447.022 884.37C445.3 884.595 444.842 889.461 444.715 895.017L442.786 894.843C442.466 889.814 441.333 885.388 437.994 884.494C429.579 882.246 423.882 876.555 419.522 879.828C418.163 880.846 419.027 885.923 420.859 892.428C383.584 887.614 361.494 881.017 361.494 881.017V845.381L365.029 845.443L409.941 846.206L410.257 846.614C419.885 858.832 505.995 856.574 522.439 856.199C534.6 855.923 537.024 854.57 537.46 853.886L535.643 865.944L536.275 865.89L639.157 857.184L644.607 887.635Z" fill="#9C398C"/>
<path d="M535.821 869.305C535.458 869.305 499.622 868.33 460.818 865.116C408.498 860.781 375.98 854.61 364.128 846.781C363.343 846.27 362.597 845.699 361.897 845.076C342.582 827.741 345.097 806.872 347.117 790.101C347.48 786.999 347.843 784.072 348.051 781.287C349.268 764.989 348.003 746.923 346.779 729.454C346.648 727.585 346.518 725.715 346.39 723.843C344.937 702.614 348.021 680.687 353.878 670.527C359.303 661.119 363.194 607.214 361.37 592.989C360.829 588.781 359.19 575.97 354.787 562.919C349.758 547.989 342.608 536.796 333.535 529.661L333.463 529.599C333.379 529.53 333.299 529.469 333.216 529.407L333.009 529.243C311.75 513.021 291.447 508.759 291.243 508.727C290.907 508.659 290.601 508.488 290.367 508.236C290.134 507.985 289.985 507.666 289.943 507.326C289.9 506.985 289.966 506.64 290.13 506.338C290.294 506.037 290.549 505.795 290.858 505.647L332.169 485.767L381.096 462.934C381.312 462.833 381.547 462.78 381.786 462.781H421.389C421.543 462.781 421.696 462.803 421.844 462.847L498.1 485.029C498.479 485.138 498.805 485.381 499.019 485.712L523.188 523.13C526.521 528.287 529.243 533.814 531.301 539.599C537.707 557.629 552.095 604.469 547.35 649.949C542.223 699.039 543.251 722.261 543.8 734.734C543.905 737.047 543.993 739.047 544.014 740.705C544.145 750.818 543.201 814.41 542.943 830.887C542.863 835.839 542.292 841.818 541.249 848.654C540.087 856.261 538.637 862.941 537.881 866.25C537.616 867.421 537.453 868.069 537.453 868.069C537.365 868.424 537.161 868.739 536.873 868.965C536.585 869.19 536.23 869.312 535.865 869.312L535.821 869.305Z" fill="#CE44A2"/>
<path d="M421.389 464.41L497.646 486.592L521.8 523.999C525.065 529.05 527.732 534.463 529.746 540.13C536.555 559.29 550.376 605.036 545.707 649.759C539.589 708.367 542.23 730.487 542.365 740.709C542.499 750.93 541.54 815.138 541.293 830.843C541.202 836.403 540.493 842.647 539.618 848.389C538.452 856.025 536.984 862.763 536.272 865.865C536.01 867.021 535.85 867.683 535.85 867.683C535.85 867.683 393.031 863.945 365.014 845.429C364.297 844.963 363.616 844.444 362.976 843.876C340.86 823.999 348.33 799.541 349.682 781.407C351.033 763.272 349.373 743.458 348.021 723.73C346.67 704.003 349.384 681.596 355.288 671.345C361.192 661.094 364.764 606.654 362.983 592.781C362.119 586.036 360.389 574.439 356.327 562.396C352.12 549.901 345.405 536.941 334.527 528.374C334.407 528.276 334.291 528.181 334.164 528.094L333.96 527.934C312.157 511.272 291.567 507.116 291.567 507.116L332.867 487.236L381.775 464.41H421.378M421.378 461.138H381.775C381.298 461.138 380.827 461.242 380.394 461.443L331.497 484.269H331.461L290.15 504.149C289.532 504.446 289.024 504.93 288.697 505.532C288.369 506.134 288.239 506.824 288.324 507.504C288.409 508.184 288.705 508.82 289.171 509.323C289.637 509.825 290.249 510.169 290.92 510.305C291.116 510.345 311.092 514.559 331.977 530.509L332.02 530.538L332.053 530.567L332.14 530.636L332.242 530.712L332.387 530.829L332.511 530.93C341.329 537.865 348.297 548.799 353.221 563.421C357.581 576.323 359.197 589.01 359.732 593.181C360.571 599.727 360.16 616.519 358.754 633.127C357.185 651.672 354.758 665.665 352.447 669.69C346.441 680.105 343.273 702.418 344.744 723.934C344.87 725.808 345 727.678 345.133 729.545C346.354 746.959 347.611 764.963 346.408 781.145C346.201 783.894 345.852 786.803 345.478 789.872C344.461 798.323 343.298 807.901 344.86 817.559C346.677 828.887 351.891 838.287 360.792 846.265C361.553 846.942 362.363 847.561 363.216 848.116C375.293 856.098 408.084 862.356 460.669 866.712C499.517 869.934 535.407 870.898 535.763 870.909H535.85C536.581 870.909 537.292 870.663 537.867 870.212C538.443 869.76 538.851 869.128 539.026 868.418C539.026 868.389 539.196 867.723 539.462 866.552C540.225 863.232 541.682 856.501 542.852 848.847C543.905 841.938 544.479 835.883 544.563 830.861C544.821 814.374 545.765 750.745 545.653 740.629C545.631 738.945 545.54 736.934 545.438 734.603C544.89 722.174 543.865 699.039 548.977 650.065C551.034 630.349 549.777 608.363 545.257 584.727C542.262 569.202 538.112 553.923 532.842 539.018C530.741 533.116 527.962 527.478 524.561 522.218L500.392 484.799C499.965 484.139 499.313 483.655 498.558 483.436L422.301 461.254C422.005 461.167 421.698 461.123 421.389 461.123L421.378 461.138Z" fill="#17091D"/>
<path d="M537.06 869.271C536.83 869.271 536.603 869.223 536.393 869.129C536.183 869.035 535.995 868.897 535.842 868.726C535.689 868.554 535.573 868.352 535.503 868.133C535.433 867.914 535.41 867.682 535.436 867.453C535.436 867.417 535.843 863.882 536.402 858.686C537.623 847.26 539.709 826.686 539.93 817.119C540.021 813.297 540.225 807.944 540.457 801.744C541.049 786.173 541.856 764.85 541.108 757.886C540.486 752.148 541.06 733.842 541.565 717.693C541.929 705.973 542.292 694.901 542.11 690.555C541.94 685.988 542.706 678.573 543.68 669.188C544.948 656.962 546.525 641.744 546.547 626.984C546.587 601.962 535.865 557.955 535.418 556.133L526.389 528.239C526.261 527.846 526.287 527.42 526.462 527.046L549.384 477.497C549.48 477.289 549.618 477.104 549.79 476.953C549.961 476.802 550.162 476.689 550.38 476.62L578.902 467.711C579.06 467.664 579.223 467.639 579.388 467.639C579.758 467.641 580.115 467.769 580.402 468.002C586.22 472.526 592.296 476.707 598.598 480.526C608.084 486.166 667.707 515.77 668.307 516.068C668.609 516.218 668.857 516.458 669.018 516.755C669.178 517.052 669.243 517.391 669.204 517.726C669.164 518.053 665.302 550.686 664.43 564.435C663.598 577.599 658.468 634.537 654.915 656.599C653.421 665.871 652.313 679.471 651.136 693.868C649.566 713.108 647.942 733.006 645.163 746.279C641.013 766.104 642.223 769.806 646.227 782.068C646.805 783.835 647.459 785.835 648.153 788.061L648.941 790.588C653.069 803.777 656.052 813.304 654.544 823.882C654.145 826.658 653.459 829.386 652.498 832.021L652.269 832.66C651.877 833.751 651.445 834.879 650.907 836.253C647.96 843.703 644.501 850.94 640.556 857.911C640.425 858.133 640.245 858.32 640.029 858.459C639.813 858.598 639.568 858.684 639.313 858.711L537.216 869.279L537.06 869.271Z" fill="#CE44A2"/>
<path d="M579.388 469.273C585.261 473.844 591.396 478.067 597.762 481.92C607.412 487.658 667.58 517.52 667.58 517.52C667.58 517.52 663.681 550.364 662.799 564.32C661.916 578.276 656.778 634.727 653.301 656.32C649.824 677.913 648.421 722.724 643.564 745.927C638.706 769.131 641.155 771.087 646.59 788.531C650.994 802.665 654.475 812.764 652.923 823.633C652.539 826.299 651.881 828.919 650.961 831.451L650.732 832.084C650.293 833.295 649.838 834.48 649.384 835.64C646.475 843.012 643.053 850.171 639.146 857.065L537.06 867.636C537.06 867.636 537.463 864.124 538.026 858.858C539.28 847.145 541.34 826.771 541.565 817.156C541.892 803.222 543.781 767.455 542.731 757.709C541.681 747.964 544.145 700.909 543.745 690.491C543.345 680.073 548.141 652.909 548.181 626.985C548.221 601.062 536.991 555.684 536.991 555.684L527.944 527.731L550.866 478.182L579.388 469.273ZM579.388 466C579.058 465.999 578.729 466.049 578.414 466.149L549.893 475.058C549.457 475.194 549.054 475.42 548.71 475.721C548.367 476.023 548.09 476.392 547.898 476.807L524.975 526.356C524.63 527.104 524.58 527.955 524.834 528.738L533.844 556.578C534.451 559.065 544.948 602.371 544.911 626.982C544.89 641.655 543.316 656.825 542.052 669.018C541.075 678.473 540.301 685.931 540.479 690.615C540.642 694.905 540.297 705.949 539.93 717.644C539.4 734.636 538.84 752.207 539.48 758.062C540.206 764.905 539.411 786.164 538.826 801.698C538.589 807.902 538.386 813.262 538.295 817.095C538.073 826.593 535.995 847.127 534.774 858.524C534.219 863.716 533.815 867.251 533.812 867.276C533.76 867.734 533.806 868.197 533.946 868.635C534.086 869.074 534.317 869.478 534.623 869.821C534.93 870.164 535.305 870.439 535.725 870.627C536.145 870.815 536.6 870.913 537.06 870.913C537.172 870.913 537.285 870.913 537.398 870.913L639.494 860.345C640.004 860.293 640.494 860.121 640.925 859.843C641.356 859.566 641.716 859.191 641.976 858.749C645.974 851.71 649.469 844.398 652.436 836.865C652.981 835.473 653.421 834.32 653.817 833.229L654.002 832.716L654.046 832.593C655.046 829.85 655.758 827.01 656.171 824.12C657.734 813.182 654.547 803 650.511 790.109C650.253 789.284 649.991 788.44 649.722 787.585C649.025 785.349 648.371 783.342 647.793 781.571C643.891 769.629 642.706 766.025 646.776 746.629C649.577 733.255 651.205 713.305 652.778 694.011C653.948 679.647 655.056 666.08 656.542 656.869C660.099 634.767 665.24 577.735 666.072 564.553C666.941 550.847 670.796 518.258 670.839 517.931C670.918 517.26 670.788 516.582 670.467 515.988C670.146 515.394 669.649 514.914 669.044 514.615C668.445 514.316 608.876 484.742 599.444 479.131C593.204 475.351 587.189 471.211 581.43 466.731C580.852 466.273 580.136 466.025 579.399 466.025L579.388 466Z" fill="#17091D"/>
<path d="M636.003 801.727C633.603 798.471 632.044 796.214 631.327 794.956C629.987 792.602 628.52 790.322 626.934 788.127C624.536 784.792 622.441 781.25 620.674 777.541C618.276 772.48 616.513 768.974 615.384 767.025C612.55 762.123 610.806 756.843 607.965 751.607C607.718 751.15 607.538 750.66 607.43 750.152C606.704 746.729 605.258 743.19 603.092 739.534C603.056 739.482 603.03 739.423 603.017 739.36C603.004 739.298 603.003 739.233 603.016 739.171C603.041 739.078 603.09 738.994 603.158 738.927C603.225 738.86 603.307 738.81 603.397 738.781C603.49 738.758 603.588 738.758 603.681 738.781C603.776 738.799 603.864 738.84 603.939 738.901C605.226 739.969 606.218 741.349 606.82 742.909C608.738 747.74 609.982 750.771 610.552 752C610.922 752.78 613.544 758.356 618.418 768.727C620.305 772.741 623.255 778.155 627.268 784.967C630.454 790.371 633.519 795.825 636.464 801.331C636.482 801.364 636.493 801.4 636.497 801.437C636.501 801.475 636.497 801.513 636.486 801.549C636.464 801.621 636.415 801.683 636.348 801.72L636.25 801.774C636.21 801.79 636.166 801.79 636.127 801.774C636.104 801.776 636.081 801.772 636.06 801.764C636.038 801.756 636.019 801.743 636.003 801.727Z" fill="#5C2C66"/>
<path d="M649.385 835.636C646.475 843.008 643.054 850.168 639.146 857.062L537.06 867.636C537.06 867.636 537.463 864.124 538.027 858.858C539.613 862.208 542.198 862.303 545.78 859.142C546.03 858.915 546.224 858.634 546.347 858.32C548.273 853.042 549.428 849.263 549.813 846.982C550.416 843.345 550.804 841.095 550.976 840.229C551.452 837.993 551.657 835.707 551.586 833.422C551.528 831.909 551.607 828 551.822 821.695C551.934 818.359 551.87 814.459 551.63 809.996C551.496 807.465 551.294 800.173 551.023 788.12C550.921 783.735 549.846 778.738 549.882 774.331C549.915 770.771 548.469 765.073 548.887 760.796C548.893 760.742 548.917 760.69 548.956 760.651C548.996 760.61 549.048 760.585 549.105 760.578C549.162 760.568 549.22 760.577 549.272 760.604C549.32 760.63 549.36 760.671 549.384 760.72C550.071 762.325 550.56 764.007 550.838 765.731C551.83 771.476 551.855 777.945 552.262 783.069C553.495 798.536 553.999 814.051 553.773 829.615C553.73 833.345 553.221 839.229 552.996 842.044C552.477 848.402 551.08 854.13 548.803 859.225C548.733 859.384 548.71 859.56 548.738 859.731C548.765 859.905 548.84 860.067 548.956 860.2C549.074 860.335 549.225 860.437 549.395 860.495C549.568 860.553 549.753 860.566 549.933 860.535C553.75 859.873 557.55 859.379 561.331 859.055C579.902 857.433 599.338 855.139 619.638 852.175C620.104 852.104 623.582 851.235 630.073 849.567C639.157 847.247 645.355 842.938 649.385 835.636Z" fill="#5C2C66"/>
<path d="M652.923 823.636C652.539 826.303 651.882 828.922 650.961 831.454L650.732 832.087C651.023 830.54 651.198 828.973 651.256 827.4C651.498 822.372 651.566 817.281 651.459 812.127C652.807 815.72 653.083 819.658 652.923 823.636Z" fill="#5C2C66"/>
<path d="M533.79 867.637C533.79 867.637 393.045 863.931 365.029 845.415C364.312 844.949 363.63 844.43 362.991 843.862C340.86 824 348.33 799.542 349.682 781.407C351.033 763.273 349.373 743.458 348.021 723.731C346.67 704.004 349.384 681.596 355.288 671.346C361.192 661.095 364.764 606.655 362.983 592.782C362.119 586.036 360.389 574.44 356.327 562.396C360.364 572.913 359.146 570.924 361.777 581.891C364.727 594.146 365.741 636.902 365.741 636.902L360.48 668.727L364.059 663.72C368.128 658.045 371.066 651.639 372.713 644.851C373.04 643.498 373.24 642.476 373.197 642.149C373.015 640.84 378.828 623.455 379.399 616.033C379.969 608.611 386.822 597.273 388.166 607.273C389.51 617.273 383.915 635.815 381.048 646.109C378.181 656.404 378.828 712.909 377.88 740.255C376.932 767.6 375.922 775.455 369.687 789.277C363.452 803.098 369.745 830.367 379.399 839.691C389.052 849.015 390.092 845.637 388.845 842.553C387.599 839.469 384.042 821.724 388.453 817.826C392.864 813.927 400.603 834.189 409.937 846.189L410.253 846.596C419.881 858.815 505.991 856.556 522.436 856.182C534.596 855.906 534.789 853.786 535.24 853.102L533.79 867.637Z" fill="#9C398C"/>
<path d="M537.459 853.857L537.518 853.457C537.544 853.523 537.552 853.595 537.542 853.665C537.532 853.735 537.503 853.801 537.459 853.857Z" fill="#9C398C"/>
<path d="M595.958 728.479C601.464 727.855 607.035 728.822 612.01 731.264C616.83 733.629 620.898 737.284 623.764 741.818L624.038 742.261L624.039 742.262C633.289 757.521 644.684 776.422 647.954 783.154C648.316 783.899 648.005 784.797 647.26 785.159C646.515 785.521 645.617 785.21 645.256 784.465C642.065 777.895 630.775 759.161 621.473 743.816V743.817C618.892 739.568 615.149 736.147 610.688 733.957C606.227 731.767 601.233 730.9 596.296 731.46L596.294 731.461C576.004 733.725 543.019 734.06 514.185 733.751C485.349 733.442 460.517 732.488 456.504 732.152V732.151C454.999 732.027 453.014 732.678 450.543 734.296C448.105 735.891 445.384 738.302 442.463 741.366C436.625 747.49 430.163 756.037 423.8 765.34C411.082 783.932 398.891 805.336 393.056 815.87C392.034 817.717 391.428 819.766 391.279 821.872C391.13 823.978 391.442 826.092 392.194 828.064L403.12 856.737C403.415 857.511 403.027 858.379 402.253 858.674C401.479 858.969 400.611 858.58 400.316 857.806L389.391 829.133C388.484 826.752 388.107 824.202 388.287 821.66C388.467 819.119 389.199 816.647 390.432 814.418L391.602 812.313C397.812 801.184 409.323 781.187 421.323 763.645C427.718 754.296 434.287 745.594 440.291 739.296C443.291 736.149 446.193 733.557 448.9 731.785C451.573 730.036 454.253 728.954 456.753 729.162H456.754C460.643 729.488 485.374 730.442 514.217 730.751C543.062 731.06 575.874 730.721 595.958 728.48V728.479Z" fill="#17091D"/>
<path d="M383.222 603.696C383.466 602.976 384.222 602.544 384.979 602.718C385.786 602.904 386.29 603.71 386.104 604.517L384.642 604.18C386.009 604.495 386.097 604.516 386.103 604.518C386.103 604.519 386.103 604.52 386.103 604.521C386.102 604.523 386.101 604.527 386.1 604.531C386.098 604.539 386.096 604.552 386.092 604.568C386.084 604.601 386.073 604.649 386.058 604.712C386.028 604.84 385.984 605.029 385.925 605.274C385.808 605.764 385.634 606.483 385.406 607.399C384.951 609.231 384.281 611.854 383.421 615.022C381.701 621.356 379.215 629.881 376.156 638.629C373.102 647.368 369.459 656.38 365.413 663.665C363.391 667.307 361.246 670.556 358.997 673.133C356.759 675.698 354.341 677.687 351.748 678.673C350.974 678.968 350.107 678.579 349.813 677.804C349.518 677.03 349.908 676.163 350.682 675.869C352.631 675.127 354.663 673.537 356.736 671.161C358.799 668.796 360.828 665.742 362.79 662.208C366.715 655.14 370.293 646.311 373.324 637.64C376.352 628.98 378.817 620.527 380.526 614.236C381.379 611.092 382.044 608.49 382.494 606.676C382.719 605.769 382.892 605.059 383.007 604.577C383.065 604.336 383.108 604.151 383.137 604.028C383.151 603.966 383.162 603.919 383.169 603.888C383.173 603.873 383.176 603.862 383.178 603.854C383.179 603.85 383.179 603.847 383.18 603.845V603.843L383.222 603.696Z" fill="#17091D"/>
<path d="M401.26 832.496L402.304 833.573C401.709 834.15 400.76 834.136 400.183 833.541C399.606 832.946 399.622 831.997 400.216 831.42L401.26 832.496ZM453.141 763.859C453.293 763.044 454.076 762.507 454.89 762.658C455.704 762.81 456.242 763.593 456.09 764.407C455.079 769.835 451.091 776.881 445.91 784.244C440.685 791.669 434.093 799.627 427.643 806.923C421.189 814.223 414.857 820.884 410.139 825.718C407.78 828.136 405.822 830.098 404.455 831.456C403.771 832.135 403.234 832.664 402.868 833.023C402.685 833.202 402.545 833.339 402.45 833.432C402.402 833.478 402.366 833.514 402.341 833.537L402.307 833.571L402.305 833.572C402.305 833.573 402.304 833.573 401.26 832.496C400.225 831.428 400.216 831.419 400.216 831.419L400.218 831.418C400.22 831.417 400.221 831.414 400.224 831.411L400.356 831.284C400.449 831.194 400.587 831.058 400.768 830.881C401.13 830.526 401.661 830.002 402.34 829.327C403.698 827.978 405.644 826.027 407.992 823.622C412.687 818.811 418.984 812.188 425.396 804.936C431.812 797.679 438.322 789.814 443.456 782.518C448.634 775.16 452.261 768.584 453.141 763.859Z" fill="#17091D"/>
<path d="M557.843 501.859C558.131 501.082 558.994 500.687 559.771 500.975C560.547 501.263 560.944 502.127 560.655 502.904L538.648 562.158C538.466 562.646 538.044 563.005 537.533 563.107C537.022 563.208 536.495 563.037 536.141 562.655L485.638 508.11C485.075 507.502 485.111 506.552 485.719 505.99C486.327 505.427 487.276 505.464 487.839 506.072L536.685 558.827L557.843 501.859Z" fill="#17091D"/>
<path d="M570.828 527.165C570.749 527.171 570.668 527.171 570.589 527.165C570.309 527.124 570.045 527.011 569.822 526.837C569.599 526.663 569.425 526.434 569.317 526.173L549.537 478.278C549.4 477.944 549.376 477.575 549.47 477.226C549.564 476.878 549.77 476.57 550.057 476.351C550.187 476.253 563.191 466.122 563.104 452.714C563.046 444.405 558.017 436.449 548.124 429.078C547.848 428.873 547.644 428.585 547.54 428.257C547.437 427.929 547.44 427.577 547.548 427.25C547.656 426.924 547.865 426.639 548.143 426.438C548.422 426.237 548.757 426.129 549.101 426.129C549.216 426.129 549.33 426.141 549.443 426.165C549.613 426.202 550.533 426.434 551.986 426.918C552.08 426.947 552.178 426.976 552.273 427.013C561.298 430.02 590.343 442.369 586.83 475.376C582.811 513.151 572.514 526.056 572.075 526.587C571.922 526.769 571.731 526.914 571.515 527.014C571.3 527.114 571.066 527.166 570.828 527.165Z" fill="#CE44A2"/>
<path d="M549.101 427.748C549.184 427.748 550.071 427.985 551.513 428.475C551.59 428.497 551.673 428.523 551.753 428.552C560.644 431.512 588.602 443.417 585.22 475.195C581.223 512.919 570.828 525.541 570.828 525.541L570.069 523.723L551.742 479.359L551.048 477.679C551.048 477.679 583.109 453.174 549.101 427.792M549.101 424.519C548.414 424.52 547.745 424.736 547.189 425.139C546.632 425.541 546.216 426.109 546 426.761C545.783 427.413 545.778 428.117 545.984 428.773C546.189 429.428 546.596 430.002 547.146 430.414C556.593 437.465 561.407 444.959 561.469 452.737C561.56 465.308 549.184 474.985 549.057 475.083C548.486 475.521 548.076 476.136 547.889 476.831C547.703 477.527 547.75 478.264 548.025 478.93L548.719 480.61L567.046 524.974L567.805 526.792C568.022 527.315 568.369 527.772 568.815 528.12C569.261 528.468 569.789 528.695 570.349 528.777C570.508 528.802 570.67 528.814 570.832 528.814C571.318 528.816 571.798 528.711 572.238 528.504C572.678 528.298 573.066 527.996 573.375 527.621C573.826 527.075 584.42 513.803 588.493 475.541C589.333 467.646 588.399 460.294 585.721 453.686C583.376 448.009 579.846 442.898 575.366 438.697C567.333 431.039 557.821 427.119 552.84 425.457C552.738 425.421 552.625 425.385 552.509 425.352C551.056 424.865 550.049 424.625 549.817 424.559C549.588 424.512 549.356 424.487 549.123 424.486L549.101 424.519Z" fill="#17091D"/>
<path d="M585.22 475.184C581.223 512.908 570.828 525.53 570.828 525.53L570.069 523.712C573.469 505.352 578.309 473.326 574.301 457.29C570.752 443.079 559.768 433.704 551.753 428.562C560.644 431.501 588.602 443.406 585.22 475.184Z" fill="#9C398C"/>
<path d="M565.4 459.272C562.13 468.726 560.291 474.734 556.487 476.639C555.034 477.366 553.512 479.057 551.957 479.999L551.048 477.635C551.048 477.635 583.109 453.13 549.101 427.748C549.184 427.748 550.071 427.984 551.513 428.475C553.199 429.566 555.43 431.384 558.133 434.555C564.673 442.181 568.67 449.817 565.4 459.272Z" fill="#D969BD"/>
<path d="M470.12 529.526C457.955 529.323 439.16 518.454 414.257 497.217C395.865 481.534 380.754 465.697 380.601 465.537C380.42 465.367 380.28 465.156 380.195 464.921C380.109 464.687 380.079 464.436 380.107 464.188C380.136 463.955 380.218 463.732 380.348 463.536C380.478 463.34 380.652 463.178 380.856 463.061C381.219 462.723 385.216 458.73 389.361 439.981C392.13 427.468 396.723 422.032 400.083 419.672C401.311 418.81 402.314 418.035 402.939 417.534C403.364 417.195 403.76 416.872 404.084 416.592C404.387 416.332 404.774 416.191 405.174 416.195C405.552 416.191 405.92 416.319 406.213 416.559C406.509 416.806 406.707 417.149 406.774 417.529C406.84 417.908 406.77 418.299 406.576 418.632C406.511 418.745 404.981 421.523 406.638 426.545C408.251 431.435 413.272 439.323 428.031 449.126C462.867 472.268 497.842 484.901 498.191 485.025C498.425 485.108 498.637 485.243 498.811 485.421C498.985 485.599 499.116 485.814 499.194 486.05C499.272 486.286 499.295 486.537 499.262 486.783C499.228 487.03 499.139 487.265 499.001 487.472L471.507 528.799C471.358 529.023 471.156 529.207 470.919 529.333C470.682 529.46 470.417 529.527 470.149 529.526H470.12Z" fill="#CE44A2"/>
<path d="M405.17 417.818C405.01 418.094 397.682 430.934 427.133 450.498C462.54 474.018 497.649 486.574 497.649 486.574L496.134 488.85L479.057 514.487L470.149 527.89C441.754 527.418 381.786 464.41 381.786 464.41C381.786 464.41 386.277 461.454 390.956 440.334C393.594 428.418 397.834 423.243 401.024 421.014C402.227 420.17 403.241 419.392 403.964 418.832C404.687 418.272 405.115 417.865 405.17 417.818ZM405.17 414.545C404.389 414.545 403.634 414.825 403.041 415.334C402.743 415.592 402.351 415.916 401.951 416.243C401.344 416.727 400.37 417.48 399.171 418.32C393.936 421.992 390.088 429.156 387.788 439.61C383.846 457.429 380.122 461.49 379.795 461.792C379.433 462.073 379.134 462.426 378.917 462.83C378.7 463.233 378.57 463.678 378.536 464.135C378.502 464.592 378.564 465.051 378.718 465.482C378.872 465.914 379.115 466.308 379.431 466.64C379.584 466.796 394.757 482.694 413.221 498.436C438.419 519.923 457.548 530.923 470.116 531.134H470.17C470.708 531.134 471.238 531.002 471.713 530.748C472.188 530.494 472.593 530.127 472.892 529.68L481.812 516.28L498.888 490.643L500.403 488.367C500.679 487.953 500.857 487.482 500.924 486.989C500.99 486.496 500.943 485.994 500.787 485.522C500.631 485.05 500.369 484.619 500.022 484.264C499.675 483.908 499.251 483.636 498.783 483.469C498.419 483.345 463.612 470.741 428.976 447.749C414.933 438.421 410.02 431.021 408.375 426.44C406.787 422.025 407.957 419.589 408.048 419.41C408.326 418.911 408.468 418.347 408.461 417.775C408.453 417.203 408.296 416.643 408.005 416.151C407.714 415.658 407.299 415.251 406.801 414.969C406.304 414.688 405.741 414.541 405.17 414.545Z" fill="#17091D"/>
<path d="M479.068 514.49L470.149 527.89C441.754 527.417 381.786 464.41 381.786 464.41C381.786 464.41 386.277 461.454 390.956 440.334C393.594 428.417 397.834 423.243 401.024 421.014C399.571 429.279 399.208 441.337 404.443 455.039C412.004 474.835 458.257 502.737 479.068 514.49Z" fill="#9C398C"/>
<path d="M497.646 486.577L496.13 488.853C493.089 488.006 489.532 486.944 485.369 485.617C456.763 476.504 408.985 442.726 404.625 432.18C402.082 426.064 402.866 421.537 403.964 418.813C404.69 418.238 405.115 417.864 405.166 417.82C405.006 418.097 397.678 430.937 427.13 450.5C462.537 474.02 497.646 486.577 497.646 486.577Z" fill="#D969BD"/>
</svg>
