<svg width="1000" height="1000" viewBox="0 0 1000 1000" fill="none" xmlns="http://www.w3.org/2000/svg">
<path d="M545.362 880.498C545.362 880.593 545.362 880.683 545.362 880.774C545.155 883.378 544.777 885.469 544.152 886.811C541.075 893.454 534.422 908.2 534.662 922.811C534.756 928.723 534.775 934.163 534.76 938.545V938.625C526.945 938.88 519.137 938.891 511.376 938.698L511.354 938.545C509.832 928.167 506.729 903.469 510.726 897.862C513.716 893.665 516.263 888.091 517.731 880.843C517.731 880.814 517.731 880.789 517.731 880.76C518.752 875.669 519.242 869.774 518.981 862.942C518.348 846.342 512.757 853.993 515.914 835.803C519.071 817.614 516.103 782.098 517.226 740.945C518.348 699.793 517.055 638.287 515.34 624.858C513.625 611.429 510.406 563.371 508.745 553.949C507.085 544.527 491.967 487.829 501.453 481.091C503.964 479.309 516.408 478.153 518.893 481.091C527.562 491.334 526.011 526.909 526.011 526.909C526.011 526.909 544.523 581.043 543.153 624.887C541.783 668.731 542.455 733.796 543.026 746.538C543.596 759.28 544.196 824.356 544.261 839.814C544.327 852.036 546.143 870.182 545.362 880.498Z" fill="#CE44A2"/>
<path d="M518.269 547.018C519.701 546.211 521.448 546.291 523.123 547.273C524.798 548.255 526.266 550.015 527.2 552.2C527.665 553.28 527.981 554.417 528.141 555.582C528.297 556.689 528.287 557.813 528.112 558.916C527.962 559.896 527.627 560.838 527.124 561.691C526.688 562.434 526.068 563.052 525.325 563.487C523.872 564.298 522.142 564.215 520.467 563.236C518.792 562.258 517.325 560.491 516.391 558.309C515.928 557.228 515.611 556.089 515.45 554.924C515.295 553.817 515.305 552.693 515.479 551.589C515.628 550.61 515.964 549.668 516.467 548.815C516.904 548.071 517.525 547.453 518.269 547.018ZM519.555 548.709C519.027 548.983 518.585 549.397 518.276 549.906C517.912 550.509 517.665 551.177 517.55 551.873C517.414 552.678 517.393 553.498 517.488 554.309C517.586 555.179 517.789 556.034 518.095 556.855C518.625 558.388 519.59 559.733 520.871 560.727C522.022 561.549 523.236 561.731 524.246 561.233C524.773 560.958 525.215 560.544 525.525 560.036C525.891 559.433 526.137 558.765 526.252 558.069C526.389 557.264 526.411 556.444 526.317 555.633C526.22 554.762 526.015 553.907 525.707 553.087C525.177 551.555 524.214 550.209 522.934 549.215C521.779 548.393 520.565 548.211 519.555 548.727V548.709Z" fill="#5C2C66"/>
<path d="M525.703 553.091C524.409 549.636 521.655 547.676 519.555 548.727C517.455 549.778 516.801 553.411 518.102 556.865C519.403 560.32 522.153 562.276 524.253 561.229C526.353 560.182 527 556.538 525.703 553.091Z" fill="#D969BD"/>
<path d="M514.486 487.273C515.98 488.029 517.127 489.331 517.691 490.909C518.348 492.614 518.45 494.484 517.981 496.251C517.758 497.08 517.389 497.863 516.891 498.563C516.438 499.207 515.854 499.748 515.176 500.149C514.538 500.523 513.819 500.735 513.08 500.767C512.338 500.793 511.6 500.639 510.929 500.32C509.435 499.563 508.288 498.262 507.725 496.684C507.069 494.978 506.968 493.108 507.437 491.342C507.661 490.511 508.03 489.727 508.527 489.025C508.983 488.382 509.569 487.842 510.246 487.44C510.883 487.068 511.602 486.857 512.339 486.825C513.08 486.798 513.817 486.952 514.486 487.273ZM514.508 489.022C514.051 488.777 513.54 488.652 513.022 488.658C512.495 488.673 511.979 488.818 511.521 489.08C511.02 489.364 510.583 489.748 510.235 490.207C509.851 490.709 509.555 491.272 509.36 491.873C508.941 493.129 508.917 494.483 509.29 495.753C509.439 496.317 509.697 496.847 510.052 497.311C510.406 497.774 510.849 498.163 511.354 498.454C511.811 498.699 512.322 498.824 512.84 498.818C513.367 498.801 513.882 498.656 514.341 498.396C514.841 498.111 515.279 497.728 515.627 497.269C516.01 496.767 516.306 496.204 516.503 495.604C516.921 494.346 516.945 492.991 516.572 491.72C516.424 491.155 516.165 490.624 515.811 490.16C515.457 489.695 515.014 489.306 514.508 489.014V489.022Z" fill="#5C2C66"/>
<path d="M516.503 495.597C517.375 492.99 516.481 490.044 514.508 489.015C512.535 487.986 510.232 489.27 509.36 491.874C508.488 494.477 509.381 497.43 511.354 498.455C513.327 499.481 515.623 498.204 516.503 495.597Z" fill="#D969BD"/>
<path d="M529.481 636.942C530.346 636.929 531.2 637.132 531.966 637.535C532.794 637.972 533.52 638.581 534.095 639.32C534.734 640.13 535.226 641.046 535.549 642.026C535.894 643.064 536.078 644.15 536.094 645.244C536.111 646.339 535.961 647.43 535.65 648.48C535.357 649.472 534.896 650.407 534.288 651.244C533.735 652.005 533.028 652.642 532.213 653.113C531.464 653.55 530.617 653.789 529.75 653.806C528.883 653.823 528.026 653.618 527.261 653.211C526.433 652.773 525.707 652.165 525.132 651.426C524.494 650.615 524.002 649.7 523.678 648.72C522.99 646.629 522.956 644.377 523.58 642.266C523.874 641.274 524.335 640.339 524.943 639.502C525.496 638.74 526.203 638.104 527.017 637.633C527.769 637.202 528.615 636.964 529.481 636.942ZM529.579 638.789C528.384 638.789 527.246 639.487 526.407 640.702C525.553 642.074 525.103 643.66 525.11 645.277C525.117 646.894 525.581 648.476 526.447 649.84C527.297 651.047 528.445 651.72 529.637 651.713C530.829 651.706 531.97 651.022 532.809 649.804C533.664 648.432 534.114 646.846 534.106 645.228C534.099 643.611 533.634 642.029 532.765 640.666C531.919 639.458 530.771 638.782 529.579 638.789Z" fill="#5C2C66"/>
<path d="M534.107 645.225C534.107 641.655 532.061 638.775 529.579 638.789C527.098 638.804 525.096 641.698 525.11 645.28C525.125 648.862 527.152 651.731 529.638 651.713C532.123 651.695 534.121 648.793 534.107 645.225Z" fill="#D969BD"/>
<path d="M530.008 739.273C531.683 739.211 533.314 740.026 534.542 741.538C535.82 743.2 536.525 745.231 536.552 747.327C536.645 749.433 536.059 751.512 534.88 753.258C533.739 754.855 532.155 755.786 530.48 755.847C528.805 755.909 527.178 755.091 525.95 753.582C524.669 751.921 523.963 749.887 523.94 747.789C523.851 745.684 524.444 743.606 525.63 741.866C526.753 740.269 528.34 739.342 530.008 739.273ZM529.899 741.247C528.729 741.331 527.643 742.058 526.88 743.269C526.082 744.606 525.712 746.156 525.819 747.709C525.874 749.252 526.406 750.74 527.341 751.967C528.231 753.058 529.383 753.633 530.553 753.549C531.723 753.466 532.809 752.742 533.572 751.527C534.367 750.19 534.735 748.643 534.63 747.091C534.576 745.548 534.044 744.059 533.107 742.833C532.221 741.742 531.065 741.175 529.899 741.255V741.247Z" fill="#5C2C66"/>
<path d="M534.63 747.098C534.448 743.702 532.33 741.084 529.907 741.258C527.483 741.433 525.648 744.32 525.826 747.716C526.004 751.113 528.126 753.727 530.55 753.556C532.973 753.386 534.812 750.495 534.63 747.098Z" fill="#D969BD"/>
<path d="M529.281 830.91C530.956 830.848 532.587 831.662 533.815 833.175C535.093 834.836 535.798 836.868 535.825 838.964C535.911 841.069 535.319 843.146 534.135 844.888C532.994 846.484 531.41 847.433 529.735 847.477C528.06 847.52 526.433 846.72 525.204 845.211C523.924 843.55 523.218 841.517 523.195 839.419C523.106 837.314 523.699 835.236 524.885 833.495C526.026 831.906 527.613 830.979 529.281 830.91ZM529.172 832.884C528.002 832.968 526.916 833.695 526.153 834.906C525.355 836.243 524.985 837.792 525.092 839.346C525.147 840.889 525.679 842.376 526.614 843.604C527.504 844.695 528.656 845.27 529.826 845.186C530.996 845.102 532.082 844.379 532.845 843.164C533.64 841.827 534.008 840.28 533.903 838.728C533.849 837.185 533.317 835.696 532.38 834.47C531.494 833.379 530.338 832.811 529.172 832.891V832.884Z" fill="#5C2C66"/>
<path d="M533.903 838.735C533.722 835.339 531.603 832.72 529.18 832.895C526.757 833.07 524.922 835.957 525.1 839.353C525.278 842.75 527.4 845.364 529.823 845.193C532.247 845.022 534.085 842.131 533.903 838.735Z" fill="#D969BD"/>
<path d="M545.363 880.498C545.363 880.593 545.363 880.684 545.363 880.774C545.156 883.378 544.778 885.469 544.153 886.811C541.076 893.454 534.423 908.2 534.663 922.811C534.757 928.723 534.775 934.164 534.761 938.545H511.337C509.814 928.167 506.711 903.469 510.708 897.862C513.698 893.665 516.245 888.091 517.713 880.843C517.713 880.814 517.713 880.789 517.713 880.76L545.363 880.498Z" fill="#9C398C"/>
<path d="M440.777 512.728C440.777 512.728 462.995 554.982 481.47 543.273C499.946 531.564 508.357 577.819 508.357 577.819C508.357 577.819 507.031 550.797 505.45 547.637C502.885 542.506 496.367 508.364 496.367 508.364L477.837 502.546L463.122 487.455L437.325 498.364L440.777 512.728Z" fill="#9C398C"/>
<path d="M582.884 496.262C582.884 496.262 573.873 523.273 568.547 534.545C563.22 545.818 545.232 554.251 543.869 564.036C542.507 573.822 542.873 580.364 542.873 580.364L533.063 537.454C533.063 537.454 548.785 502.236 548.734 502.389C548.683 502.542 582.884 496.262 582.884 496.262Z" fill="#9C398C"/>
<path d="M509.084 601.666C509.128 602.368 509.044 602.477 509.044 602.477C509.044 602.477 509.04 602.182 509.084 601.666Z" fill="#9C398C"/>
<path d="M510.174 602.547C510.094 601.092 508.379 596.322 505.45 585.82C501.09 570.183 465.578 555.274 465.578 555.274C465.578 555.274 412.074 524.729 389.878 498.812C376.798 483.54 371.439 466.692 369.255 455.46C377.372 450.678 382.23 447.638 382.23 447.638L384.391 448.092C384.588 445.608 385.158 443.167 386.081 440.852C386.935 438.707 387.963 436.452 389.118 434.18L394.957 438.831L458.493 489.412L497.185 520.216L498.347 521.143C498.347 521.143 499.114 524.052 500.044 527.649C500.622 529.889 501.265 532.376 501.828 534.627C502.478 537.202 503.02 539.423 503.238 540.482C503.238 540.482 503.238 540.482 503.238 540.503C503.935 543.918 505.447 546.929 505.81 549.456C505.81 549.496 506.537 553.518 506.537 553.565C506.537 553.612 506.562 553.754 506.573 553.867C506.613 554.198 506.66 554.623 506.711 555.125C506.777 555.74 506.849 556.471 506.926 557.307C506.955 557.598 506.984 557.903 507.013 558.216C507.015 558.234 507.015 558.252 507.013 558.271C507.529 563.631 508.277 571.831 509 576.5C509.93 582.329 510.355 598.816 510.174 602.547Z" fill="#9C398C"/>
<path d="M488.323 550.023C488.143 550.023 487.963 550.011 487.785 549.986C486.543 549.815 479.487 547.201 477.358 546.404C473.724 545.041 466.389 542.248 458.301 538.866C450.093 535.441 439.229 530.615 434.099 527.099L430.975 524.957C428.253 523.088 426.288 521.739 425.728 521.379C403.383 507.073 388.534 473.455 383.803 457.692C382.074 451.955 382.342 445.801 384.562 440.237C385.431 438.055 386.473 435.772 387.662 433.43C389.315 430.181 391.158 427.033 393.181 424.001C396.908 418.408 404.222 408.932 411.347 408.303C412.553 408.193 413.527 408.143 414.312 408.143C415.333 408.143 417.458 408.143 418.2 409.681C418.941 411.219 417.836 412.535 416.488 414.259C415.202 415.884 413.604 417.895 413.015 420.317C412.782 421.273 412.935 425.299 424.7 437.001C431.843 444.106 441.646 452.401 451.586 459.753C462.054 467.488 474.887 471.19 483.814 472.935L484.032 472.979L484.148 473.004L484.388 473.052L485.202 473.219C492.912 474.786 500.24 476.819 501.65 481.059C501.65 481.099 501.676 481.135 501.686 481.172C501.985 482.168 501.94 483.236 501.559 484.204C500.833 486.164 500.833 488.655 500.891 492.423C501.036 499.154 500.681 505.886 499.83 512.564L499.434 515.768L499.278 516.983C499.132 518.124 498.983 519.277 498.831 520.426C498.493 522.994 498.18 525.197 497.882 527.168C496.72 534.804 495.553 540.063 494.213 543.695C493.61 545.263 491.851 550.023 488.323 550.023Z" fill="#CE44A2"/>
<path d="M414.286 409.782C420.619 409.782 412.978 413.481 411.402 419.932C409.639 427.135 432.42 447.637 450.587 461.092C461.353 469.048 474.534 472.819 483.491 474.568L483.654 474.601L483.832 474.637L484.01 474.673C487.781 475.459 498.681 477.393 500.073 481.604C500.285 482.27 500.26 482.988 500 483.637C498.209 488.419 500.364 494.91 498.184 512.364C498.053 513.419 497.92 514.488 497.784 515.572C497.588 517.102 497.392 518.659 497.185 520.215C496.887 522.466 496.574 524.721 496.24 526.924C495.277 533.255 494.129 539.135 492.654 543.132C491.455 546.375 490.038 548.386 488.323 548.386C488.218 548.386 488.114 548.379 488.01 548.364C487.353 548.273 483.425 546.91 477.928 544.87C472.558 542.862 465.694 540.186 458.929 537.357C449.166 533.281 439.607 528.892 435.022 525.75C430.662 522.761 427.392 520.502 426.607 520.001C404.778 506.026 390.117 473.059 385.369 457.222C383.756 451.843 384.012 446.074 386.095 440.859C386.949 438.713 387.977 436.459 389.133 434.186C390.752 430.996 392.556 427.904 394.536 424.924C399.858 416.924 406.191 410.415 411.481 409.946C412.633 409.844 413.563 409.793 414.301 409.793M414.301 406.521C413.462 406.521 412.448 406.575 411.194 406.684C403.786 407.342 396.567 415.979 391.814 423.11C389.758 426.191 387.885 429.39 386.204 432.692C384.991 435.077 383.93 437.419 383.043 439.637C380.686 445.549 380.401 452.087 382.237 458.182C383.381 462.004 387.818 475.662 396.77 490.979C405.319 505.619 414.766 516.317 424.856 522.775C425.394 523.121 427.446 524.532 430.048 526.313L433.183 528.466C437.398 531.353 445.638 535.375 457.679 540.397C465.796 543.79 473.139 546.579 476.794 547.953C482.938 550.252 486.564 551.484 487.574 551.626C487.826 551.66 488.08 551.676 488.334 551.677C492.999 551.677 495.055 546.113 495.731 544.284C497.112 540.546 498.304 535.193 499.484 527.433C499.786 525.433 500.098 523.219 500.436 520.662C500.596 519.466 500.749 518.266 500.901 517.077L501.04 515.986L501.236 514.408L501.439 512.768C502.305 506.016 502.669 499.21 502.529 492.404C502.489 488.819 502.467 486.452 503.092 484.768C503.579 483.473 503.629 482.054 503.234 480.728C503.216 480.655 503.194 480.584 503.169 480.513C501.392 475.273 493.119 473.168 485.503 471.637L484.711 471.477L484.439 471.419L484.333 471.397C484.246 471.375 484.166 471.361 484.101 471.35C475.337 469.637 462.759 466.008 452.545 458.459C442.775 451.233 433.114 443.073 426.048 436.07C414.116 424.244 414.573 420.728 414.581 420.702C415.082 418.648 416.557 416.779 417.745 415.277C419.199 413.459 420.816 411.386 419.646 408.972C418.476 406.557 415.536 406.51 414.286 406.51L414.301 406.521Z" fill="#17091D"/>
<path d="M543.237 551.466C542.999 551.464 542.764 551.413 542.546 551.317C542.328 551.22 542.132 551.081 541.969 550.906C540.589 549.488 532.083 535.201 524.5 520.121C514.327 499.884 509.967 486.786 511.518 481.186C512.176 478.841 513.698 477.99 514.872 477.688C516.046 477.386 517.19 477.11 518.215 476.866L519.941 476.452L520.268 476.372C520.951 476.204 521.645 476.033 522.346 475.852H522.408L523.465 475.575C541.693 470.757 550.715 463.71 550.352 454.63C550.243 452.015 552.168 444.75 555.097 441.688C556.132 440.597 557.251 440.062 558.425 440.062C560.053 440.062 561.528 441.103 562.814 443.153C565.383 447.244 568.115 452.161 570.934 457.772C574.982 465.833 579.386 475.677 584.014 487.033C587.194 494.83 575.868 509.942 559.522 530.441C558.098 532.226 556.703 533.972 555.366 535.666C550.976 541.226 546.646 546.884 544.709 550.575C544.709 550.575 544.709 550.608 544.68 550.626C544.534 550.88 544.324 551.091 544.071 551.239C543.818 551.386 543.53 551.465 543.237 551.466Z" fill="#CE44A2"/>
<path d="M558.396 441.684C559.351 441.684 560.365 442.357 561.401 444.008C563.737 447.728 566.4 452.433 569.445 458.491C573.183 465.935 577.493 475.422 582.478 487.637C585.889 496 567.181 518.022 554.061 534.637C549.24 540.746 545.17 546.124 543.238 549.819C543.216 549.819 543.179 549.793 543.125 549.739C540.582 547.12 503.038 482.426 515.279 479.262C516.322 478.993 517.434 478.724 518.593 478.448L520.653 477.949C521.354 477.779 522.066 477.604 522.786 477.419H522.807L523.897 477.135C534.797 474.251 552.564 468.044 551.983 454.542C551.867 451.844 554.712 441.68 558.421 441.68M558.421 438.408C557.295 438.408 555.598 438.771 553.912 440.539C550.642 443.949 548.589 451.753 548.717 454.684C548.92 459.411 546.235 463.444 540.509 467.048C536.232 469.735 530.524 472.004 523.069 473.975C522.754 474.062 522.438 474.146 522.121 474.226C522.042 474.241 521.964 474.262 521.888 474.288L519.912 474.779L517.804 475.273C516.714 475.535 515.541 475.819 514.429 476.106C512.191 476.684 510.588 478.331 509.913 480.746C508.913 484.324 509.865 489.877 512.914 498.222C515.188 504.448 518.582 512.062 523.007 520.855C530.314 535.4 539.103 550.342 540.752 552.033L540.781 552.062C541.1 552.392 541.481 552.653 541.904 552.83C542.326 553.007 542.78 553.096 543.238 553.091C543.818 553.091 544.388 552.937 544.891 552.645C545.393 552.353 545.809 551.934 546.097 551.429L546.151 551.324C548.03 547.739 552.306 542.153 556.645 536.655C557.978 534.968 559.348 533.251 560.797 531.433C578.023 509.833 589.047 495.029 585.504 486.389C580.853 474.993 576.421 465.106 572.366 457.011C569.525 451.353 566.767 446.389 564.169 442.255C562.563 439.709 560.623 438.4 558.396 438.4L558.421 438.408Z" fill="#17091D"/>
<path d="M562.493 469.091C557.77 494.546 546.507 502.32 550.14 513.16C551.848 518.251 553.156 526.906 554.06 534.637C549.239 540.746 545.17 546.124 543.237 549.819C543.237 549.844 543.178 549.819 543.106 549.749C540.562 547.131 503.019 482.437 515.26 479.273C516.303 479.004 517.415 478.735 518.574 478.459L520.634 477.96C521.335 477.789 522.047 477.615 522.766 477.429H522.788L523.878 477.146C534.778 474.262 552.545 468.055 551.964 454.553C551.819 451.16 556.353 435.96 561.411 444.008C563.747 447.728 566.41 452.433 569.455 458.491C565.967 462.429 563.038 466.149 562.493 469.091Z" fill="#D969BD"/>
<path d="M500 483.637C498.209 488.419 500.364 494.91 498.184 512.365C496.16 528.583 493.657 549.146 488.01 548.365C485.783 548.056 446.034 533.299 435.022 525.75C435.941 522.841 437.06 519.663 438.415 516.183C450.042 486.365 428.605 492.546 405.715 463.092C395.393 449.808 393.493 436.085 394.521 424.91C399.844 416.91 406.177 410.401 411.467 409.932C422.487 408.954 413.164 412.725 411.402 419.928C409.639 427.132 432.42 447.637 450.587 461.092C461.353 469.048 474.534 472.819 483.49 474.568L483.654 474.601L483.832 474.637C487.513 475.365 499.005 476.277 500.073 481.605C500.201 482.279 500.176 482.974 500 483.637Z" fill="#D969BD"/>
</svg>
