<svg width="1000" height="1000" viewBox="0 0 1000 1000" fill="none" xmlns="http://www.w3.org/2000/svg">
<path d="M523.253 562.237C514.559 560.441 524.369 576.143 516.713 575.637C466.297 569.455 398.728 524.404 363.564 473.223C366.518 471.855 367.383 471.273 376.103 467.637C378.832 466.499 383.962 465.124 387.003 462.183C391.149 458.183 392.907 452.433 393.18 451.273C404.08 492.59 402.957 474.106 437.143 496.364C459.306 509.673 484.111 543.423 508.436 552.321C514.653 553.379 519.206 557.706 523.253 562.237Z" fill="#9C398C"/>
<path d="M520.641 564.002C520.488 564.002 520.325 564.002 520.154 563.983C519.38 563.917 518.611 563.795 517.854 563.62H517.807C516.822 563.405 515.627 563.103 514.264 562.754C510.267 561.74 504.817 560.347 497.097 559.118H497.006L496.893 559.1L496.65 559.06L496.286 558.998H496.236L495.923 558.94H495.869C481.571 556.031 454.478 531.005 434.262 510.536C412.073 488.031 392.242 465.013 390.353 461.576C390.194 461.327 390.093 461.045 390.056 460.751C390.02 460.457 390.049 460.159 390.142 459.878C390.142 459.849 390.168 459.82 390.182 459.787C390.996 457.242 391.461 454.373 391.839 451.642C391.981 450.634 392.115 449.602 392.253 448.536C392.842 444.016 393.51 438.896 394.978 433.263C394.977 433.238 394.977 433.213 394.978 433.187C396.202 428.558 398.548 424.302 401.809 420.798C402.086 420.496 402.466 420.309 402.874 420.274C403.282 420.238 403.689 420.356 404.014 420.605C409.195 424.605 412.451 432.267 412.814 433.151C413.352 434.198 421.338 449.514 432.863 460.46C444.886 471.871 464.048 488.22 487.047 501.3C502.943 510.333 509.457 523.038 514.126 535.42C514.984 537.685 515.776 539.936 516.542 542.111C517.778 545.627 518.948 548.947 520.274 552.023C520.274 552.023 521.436 554.711 521.64 555.187C522.835 557.965 523.456 559.602 523.595 560.816C523.691 561.456 523.584 562.11 523.289 562.685C523.263 562.736 523.232 562.784 523.199 562.831C522.846 563.398 522.105 564.002 520.641 564.002Z" fill="#CE44A2"/>
<path d="M403.034 421.892C408.131 425.819 411.347 433.819 411.347 433.819C411.347 433.819 419.522 450.016 431.755 461.63C443.989 473.245 463.122 489.55 486.255 502.721C501.751 511.528 508.113 524.07 512.611 535.997C514.835 541.874 516.608 547.605 518.788 552.67C519.297 553.852 519.754 554.903 520.154 555.834C521.222 558.317 521.876 559.965 521.971 560.99C522.024 561.296 521.985 561.612 521.858 561.896C521.666 562.241 521.266 562.39 520.627 562.39C520.51 562.39 520.387 562.39 520.263 562.39C519.553 562.318 518.849 562.197 518.156 562.026C514.464 561.212 507.87 559.183 497.351 557.51C497.286 557.51 497.217 557.488 497.148 557.477L496.527 557.368L496.214 557.306C469.255 551.783 391 462.201 391.672 460.459C391.684 460.437 391.694 460.414 391.701 460.39C391.701 460.332 391.669 460.274 391.65 460.216L391.705 460.39C392.533 457.845 393.024 455.001 393.46 451.866C394.187 446.59 394.779 440.488 396.577 433.597C397.733 429.223 399.951 425.202 403.034 421.892ZM403.034 418.619C402.58 418.619 402.131 418.713 401.716 418.896C401.3 419.079 400.928 419.346 400.621 419.681C397.179 423.385 394.703 427.881 393.413 432.772C393.413 432.808 393.413 432.845 393.387 432.881C391.897 438.616 391.207 443.79 390.633 448.336C390.491 449.426 390.361 450.43 390.223 451.423C389.93 453.817 389.475 456.189 388.86 458.521C388.488 459.13 388.324 459.843 388.395 460.554C388.422 461.193 388.602 461.817 388.922 462.372C390.847 465.874 410.834 489.092 433.107 511.648C445.951 524.656 457.45 535.325 467.231 543.357C479.65 553.539 488.915 559.15 495.571 560.506H495.604L495.967 560.579H496.029L496.37 560.637L496.577 560.674H496.647H496.748L496.843 560.692C504.473 561.906 509.901 563.285 513.861 564.292C515.249 564.656 516.445 564.95 517.455 565.172H517.524C518.351 565.366 519.191 565.502 520.038 565.579C520.245 565.579 520.448 565.601 520.641 565.601C522.886 565.601 524.031 564.51 524.569 563.692C524.63 563.601 524.689 563.506 524.743 563.412C525.197 562.545 525.371 561.56 525.241 560.59C525.088 559.136 524.449 557.47 523.163 554.477C522.952 553.994 522.73 553.474 522.49 552.921C522.251 552.368 522.04 551.877 521.793 551.314C520.488 548.288 519.329 544.994 518.101 541.496C517.331 539.314 516.539 537.056 515.674 534.768C513.694 529.525 510.831 522.674 506.228 516.223C501.403 509.459 495.135 503.853 487.879 499.812C465.018 486.866 445.965 470.608 434.004 459.274C422.846 448.663 415.035 433.819 414.319 432.448C413.806 431.226 410.42 423.452 405.028 419.299C404.457 418.857 403.756 418.618 403.034 418.619Z" fill="#17091D"/>
<path d="M521.876 561.885C521.65 562.293 521.131 562.427 520.273 562.365C519.563 562.293 518.859 562.172 518.166 562.002C517.803 561.551 517.461 561.078 517.076 560.573C515.586 558.591 513.842 556.183 511.91 553.489C508.312 548.474 504.08 542.474 499.712 536.445C490.113 523.216 482.196 513.456 474.203 506.231C454.75 488.653 432.238 473.903 411.346 454.38C407.287 450.594 403.744 446.289 400.809 441.576C399.215 439.017 397.798 436.352 396.569 433.598C397.727 429.223 399.947 425.202 403.033 421.893C408.131 425.82 411.346 433.82 411.346 433.82C411.346 433.82 419.521 450.016 431.755 461.631C443.988 473.245 463.121 489.551 486.255 502.722C501.751 511.529 508.113 524.071 512.611 535.998C514.834 541.874 516.607 547.605 518.787 552.671C519.296 553.853 519.754 554.903 520.154 555.834C521.222 558.318 521.876 559.965 521.97 560.991C522.027 561.292 521.994 561.603 521.876 561.885Z" fill="#FBDAFA"/>
<path d="M497.355 557.496C497.29 557.496 497.221 557.474 497.151 557.464L496.53 557.354L496.218 557.293C469.255 551.784 391 462.202 391.672 460.46C391.684 460.438 391.694 460.415 391.701 460.391C391.701 460.333 391.669 460.274 391.65 460.216L391.705 460.391C392.533 457.845 393.024 455.002 393.46 451.867L395.658 454.66C405.759 467.533 432.42 490.184 432.42 490.184C439.945 496.136 463.431 511.638 477.473 525.093C491.622 538.653 495.833 555.438 497.355 557.496Z" fill="#FBDAFA"/>
<path d="M525.909 563.859C525.644 563.859 525.379 563.859 525.125 563.83C524.167 563.775 523.229 563.543 522.356 563.146C521.972 562.967 521.673 562.646 521.52 562.251C520.406 559.338 519.541 556.336 518.933 553.277C518.188 549.462 517.75 545.594 517.622 541.71V541.622C517.489 537.353 517.591 533.08 517.927 528.822C518.098 526.477 518.33 523.971 518.635 521.161C518.658 520.948 518.722 520.741 518.824 520.553C521.368 515.946 525.019 512.019 530.382 508.19C533.459 506.008 536.787 504.033 540.003 502.142C545.13 499.131 549.973 496.284 553.984 492.506C558.994 487.779 561.774 482.411 562.726 475.593C562.727 475.578 562.727 475.562 562.726 475.546C562.737 475.477 562.751 475.409 562.769 475.342C562.769 475.295 562.799 475.241 562.817 475.193V475.168C565.146 468.833 565.24 462.03 563.1 454.368C563.075 454.3 563.056 454.229 563.046 454.157C562.464 451.47 565.865 446.201 569.062 443.826C570.697 442.608 572.332 442.008 573.938 442.008C579.581 442.008 583.083 449.175 584.351 463.31C585.129 471.928 585.078 483.27 584.239 497.019C583.149 514.815 576.14 532.175 565.04 544.655C557.977 552.794 548.562 558.536 538.095 561.084C536.806 561.404 535.494 561.793 534.226 562.175C531.265 563.026 528.453 563.859 525.909 563.859Z" fill="#CE44A2"/>
<path d="M573.956 443.637C577.666 443.637 581.375 448.234 582.742 463.448C583.468 471.408 583.53 482.274 582.625 496.903C581.535 514.484 574.614 531.448 563.837 543.539C558.641 549.478 552.146 554.137 544.857 557.154C542.54 558.101 540.156 558.874 537.725 559.466C533.448 560.528 529.259 562.219 525.909 562.219C525.684 562.219 525.462 562.219 525.244 562.194C524.485 562.152 523.74 561.971 523.046 561.659C521.963 558.833 521.123 555.919 520.535 552.95C519.81 549.223 519.383 545.443 519.256 541.648V541.594C519.126 537.374 519.227 533.151 519.558 528.943C519.743 526.397 519.987 523.852 520.259 521.339C522.988 516.357 526.919 512.674 531.33 509.524C539.08 503.99 548.312 500.099 555.103 493.703C559.732 489.339 563.227 483.819 564.346 475.823C564.346 475.823 564.346 475.794 564.346 475.779C564.346 475.764 564.346 475.754 564.346 475.739C567.1 468.255 566.588 460.775 564.658 453.892C564.657 453.882 564.657 453.872 564.658 453.863C564.23 452.335 566.737 447.597 570.039 445.135C571.268 444.223 572.605 443.626 573.942 443.626M573.942 440.354C571.98 440.354 570.014 441.081 568.088 442.51C566.086 444.065 564.402 445.992 563.129 448.186C561.628 450.75 561.069 452.895 561.468 454.575C561.468 454.659 561.508 454.739 561.534 454.823C563.572 462.128 563.492 468.594 561.29 474.586C561.24 474.721 561.2 474.852 561.163 474.986C561.138 475.088 561.12 475.186 561.101 475.292C561.103 475.313 561.103 475.335 561.101 475.357C560.2 481.79 557.581 486.859 552.854 491.31C548.977 494.946 544.214 497.761 539.167 500.724C535.919 502.634 532.562 504.608 529.422 506.848C523.856 510.826 520.03 514.924 517.385 519.754C517.178 520.131 517.047 520.547 517 520.975C516.695 523.804 516.462 526.328 516.273 528.695C515.934 533.002 515.831 537.323 515.965 541.641C515.965 541.681 515.965 541.721 515.965 541.761C516.093 545.731 516.541 549.684 517.302 553.583C517.932 556.74 518.829 559.839 519.983 562.844C520.289 563.633 520.888 564.273 521.654 564.63C522.71 565.112 523.846 565.394 525.004 565.463C525.284 565.484 525.589 565.495 525.894 565.495C528.674 565.495 531.599 564.63 534.694 563.714C535.944 563.35 537.238 562.961 538.499 562.644C541.083 562.014 543.618 561.193 546.081 560.186C553.832 556.982 560.739 552.03 566.264 545.717C577.604 532.99 584.751 515.266 585.884 497.11C586.742 483.292 586.778 471.852 585.993 463.15C585.318 455.586 584.053 450.088 582.135 446.343C579.592 441.397 576.289 440.361 573.953 440.361L573.942 440.354Z" fill="#17091D"/>
<path d="M560.313 504.729C547.233 521.918 533.427 519.274 528.681 558.456C528.493 559.674 527.992 560.823 527.228 561.79L527.075 562.005C526.396 562.092 525.786 562.154 525.259 562.198C524.597 562.255 523.932 562.269 523.268 562.238C523.268 562.238 523.239 562.165 523.191 562.023C523.172 561.978 523.155 561.932 523.141 561.885C523.119 561.819 523.093 561.743 523.061 561.663C523.028 561.583 522.966 561.394 522.912 561.23C522.879 561.139 522.85 561.045 522.814 560.947C522.726 560.685 522.628 560.394 522.523 560.067L522.41 559.721L522.21 559.092C522.16 558.918 522.101 558.729 522.043 558.55C521.985 558.372 521.931 558.165 521.869 557.969C521.833 557.841 521.793 557.707 521.756 557.576C521.72 557.445 521.676 557.31 521.64 557.172C521.56 556.896 521.48 556.616 521.4 556.329L521.335 556.078C521.336 556.07 521.336 556.063 521.335 556.056C521.073 555.085 520.804 554.041 520.557 552.954C520.216 551.452 519.907 549.867 519.674 548.27C519.318 546.082 519.178 543.864 519.257 541.649V541.594C519.257 541.543 519.257 541.489 519.257 541.43C519.257 541.372 519.257 541.292 519.257 541.219C519.257 541.147 519.257 541.125 519.257 541.07C519.257 540.943 519.257 540.798 519.257 540.649C519.257 540.343 519.257 539.998 519.257 539.609C519.257 539.532 519.257 539.452 519.257 539.376C519.257 539.107 519.257 538.823 519.257 538.521C519.257 538.219 519.257 537.987 519.257 537.699C519.257 537.547 519.257 537.394 519.257 537.234C519.257 536.758 519.257 536.259 519.278 535.743V535.721V535.132C519.278 534.918 519.278 534.696 519.278 534.47V533.907C519.304 532.707 519.34 531.441 519.395 530.176C519.395 529.965 519.395 529.754 519.42 529.539C519.445 529.325 519.42 529.143 519.449 528.943C519.449 528.816 519.449 528.685 519.449 528.558C519.449 528.227 519.482 527.903 519.504 527.576C519.504 527.416 519.522 527.252 519.533 527.089C519.598 526.078 519.674 525.089 519.769 524.154C519.769 524.034 519.791 523.914 519.805 523.79C519.827 523.583 519.849 523.372 519.874 523.165C519.907 522.899 519.94 522.634 519.976 522.379L520.03 522.016C520.03 521.889 520.067 521.769 520.085 521.652C520.103 521.536 520.114 521.456 520.132 521.354C520.183 521.049 520.238 520.754 520.296 520.478L520.361 520.179C520.361 520.11 520.39 520.041 520.408 519.976C520.426 519.91 520.452 519.794 520.474 519.707C520.517 519.539 520.565 519.379 520.612 519.23C520.612 519.187 520.637 519.143 520.652 519.103C520.666 519.063 520.677 519.019 520.692 518.979C520.706 518.939 520.732 518.859 520.753 518.805C520.775 518.75 520.808 518.659 520.841 518.587C520.881 518.48 520.929 518.375 520.982 518.274L521.059 518.136C521.088 518.079 521.122 518.024 521.16 517.972L521.226 517.881C521.251 517.844 521.279 517.809 521.309 517.776C524.078 514.699 527.584 511.932 531.203 509.539C538.953 504.005 548.185 500.114 554.976 493.718C559.605 489.354 563.1 483.834 564.219 475.838V475.798V475.754C565.97 468.589 566.077 461.119 564.532 453.907C564.53 453.897 564.53 453.887 564.532 453.878C564.103 452.35 566.61 447.612 569.912 445.15C570.904 449.321 571.845 453.485 572.637 457.339C573.415 461.129 574.044 464.612 574.454 467.521C575.599 475.081 569.502 492.645 560.313 504.729Z" fill="#FBDAFA"/>
<path d="M582.625 496.907C581.535 514.489 574.614 531.453 563.837 543.543C558.641 549.482 552.146 554.141 544.857 557.158C542.492 557.867 540.108 558.631 537.725 559.471C544.712 552.802 560.313 543.638 574.607 511.729C577.201 505.936 580.463 480.991 582.742 463.445C583.457 471.405 583.53 482.271 582.625 496.907Z" fill="#FBDAFA"/>
</svg>
