<svg width="1000" height="1000" viewBox="0 0 1000 1000" fill="none" xmlns="http://www.w3.org/2000/svg">
<path d="M610.21 486.419C608.488 498.565 603.739 517.63 589.017 540.001C575.424 560.656 521.6 559.488 517.077 559.274C493.06 558.132 473.371 561.372 456.037 557.092C370.653 536.001 358.845 478.183 355.288 471.019H355.321L366.78 469.179H366.838C376.572 468.187 386.066 467.474 386.88 467.412H386.938L581.906 475.921L582.27 476.041L582.499 476.121L582.575 476.147C583.974 476.645 587.553 477.918 592.487 479.728C597.33 481.499 603.503 483.808 610.21 486.419Z" fill="#9C398C"/>
<path d="M510.697 541.455C491.317 541.455 471.577 537.612 452.041 530.015C436.417 523.95 420.888 515.495 405.864 504.888C380.286 486.834 364.841 468.506 364.677 468.324C364.465 468.071 364.335 467.76 364.304 467.432C364.272 467.104 364.34 466.773 364.499 466.484C364.568 466.361 371.402 453.939 377.942 442.484C383.392 432.917 387.106 426.75 388.944 424.143C392.061 419.724 393.206 419.001 394.249 418.732C398.645 414.114 413.015 410.837 414.003 410.615C414.134 410.583 414.268 410.565 414.403 410.564C414.651 410.565 414.897 410.622 415.12 410.731C415.343 410.84 415.539 410.998 415.693 411.194C416.808 412.623 418.218 414.764 417.564 416.852C416.87 419.063 414.436 419.819 412.074 420.55C410.642 420.994 409.167 421.452 408.31 422.154C407.351 422.939 407.292 423.274 407.292 423.274C407.361 423.71 408.84 424.939 409.919 425.819C410.508 426.314 411.18 426.87 411.889 427.495C414.454 429.754 434.328 435.383 447.495 439.11C455.808 441.466 462.988 443.503 466.596 444.79C476.242 448.237 510.483 451.743 524.133 451.743C524.576 451.743 524.998 451.743 525.401 451.743C538.67 451.506 555.878 449.743 564.372 445.503C564.736 445.324 565.055 445.139 565.328 444.975C568.384 443.157 569.906 440.612 571.141 438.601C572.322 436.652 573.434 434.812 575.563 434.812C576.628 434.812 577.714 435.303 578.982 436.357C579.065 436.423 579.149 436.495 579.229 436.568L579.283 436.615C580.01 437.263 582.401 439.706 583.251 441.437C584.617 444.212 585.431 450.132 585.9 460.63C586.216 467.757 586.321 476.034 586.427 484.037C586.55 493.535 586.666 502.506 587.11 509.128C588.701 532.95 540.389 538.644 537.536 538.946C528.685 540.598 519.701 541.438 510.697 541.455Z" fill="#CE44A2"/>
<path d="M414.395 412.204C419.809 419.113 410.802 418 407.281 420.888C403.76 423.775 406.442 424.91 410.809 428.757C415.176 432.604 455.862 442.728 466.036 446.364C475.893 449.888 509.974 453.411 524.125 453.411C524.576 453.411 525.008 453.411 525.419 453.411C538.655 453.175 556.142 451.466 565.091 447C565.491 446.8 565.854 446.6 566.181 446.4C572.358 442.688 572.867 436.48 575.541 436.48C576.177 436.48 576.94 436.844 577.928 437.659C577.997 437.713 578.062 437.771 578.128 437.83L578.175 437.87C579.032 438.633 581.107 440.862 581.761 442.193C583.156 445.026 583.857 452.03 584.243 460.739C584.929 476.153 584.628 496.902 585.456 509.291C586.975 532.022 537.278 537.393 537.278 537.393C528.515 539.021 519.621 539.841 510.708 539.84C426.632 539.826 365.93 467.273 365.93 467.273C365.93 467.273 372.75 454.87 379.373 443.299C383.81 435.499 388.166 428.077 390.273 425.091C394.633 418.91 394.514 420.87 395.324 419.971C399.222 415.637 413.926 412.31 414.384 412.208M414.384 408.935C414.12 408.936 413.856 408.967 413.599 409.03C413.069 409.153 409.29 410.03 405.112 411.4C399.368 413.291 395.509 415.226 393.355 417.299C391.901 417.826 390.448 419.117 387.592 423.208C385.725 425.855 381.993 432.07 376.507 441.677C369.967 453.139 363.122 465.575 363.063 465.699C362.746 466.277 362.611 466.938 362.676 467.595C362.741 468.252 363.003 468.873 363.427 469.379C364.059 470.131 379.174 488.051 404.909 506.23C420.038 516.913 435.69 525.43 451.433 531.546C471.177 539.215 491.12 543.102 510.7 543.102C519.774 543.1 528.828 542.27 537.75 540.622C539.204 540.459 551.074 539.026 562.988 534.953C570.469 532.408 576.431 529.306 580.653 525.779C586.419 520.975 589.133 515.353 588.712 509.051C588.272 502.455 588.156 493.506 588.032 484.03C587.927 476.03 587.821 467.72 587.502 460.571C587.026 449.837 586.157 443.717 584.686 440.728C583.719 438.76 581.161 436.139 580.326 435.408L580.25 435.339C580.173 435.273 580.082 435.193 579.97 435.102C578.974 434.273 577.426 433.19 575.519 433.19C572.467 433.19 570.934 435.735 569.706 437.768C568.521 439.735 567.162 441.96 564.485 443.586L564.448 443.608C564.216 443.753 563.936 443.906 563.62 444.066C555.372 448.182 538.441 449.884 525.35 450.131C524.958 450.131 524.547 450.131 524.115 450.131C510.562 450.131 476.638 446.677 467.126 443.273C463.463 441.968 456.258 439.924 447.916 437.56C440.548 435.473 432.195 433.106 425.473 431.015C415.318 427.83 413.323 426.6 412.956 426.288C412.23 425.655 411.561 425.091 410.962 424.593C410.471 424.182 409.912 423.717 409.476 423.32C410.133 422.862 411.419 422.462 412.56 422.106C415.06 421.331 418.17 420.364 419.1 417.342C419.98 414.517 418.297 411.888 416.953 410.186C416.647 409.794 416.256 409.477 415.81 409.259C415.364 409.041 414.874 408.928 414.377 408.928L414.384 408.935Z" fill="#17091D"/>
<path d="M584.231 460.727C566.679 468.407 564.673 478.182 527.25 478.182C515.118 478.182 463.565 469.396 422.61 458.182C410.823 454.952 392.177 448.752 379.373 443.298C383.809 435.498 388.166 428.076 390.273 425.091C394.633 418.909 394.513 420.869 395.323 419.971C399.222 415.636 413.926 412.309 414.384 412.207C419.798 419.116 410.79 418.003 407.27 420.891C403.749 423.778 406.43 424.912 410.798 428.76C415.165 432.607 455.851 442.731 466.024 446.367C476.198 450.003 512.168 453.64 525.408 453.403C538.647 453.167 556.131 451.458 565.08 446.992C565.48 446.792 565.843 446.592 566.17 446.392C573.818 441.796 572.779 433.371 577.917 437.665C577.986 437.72 578.051 437.778 578.116 437.836L578.164 437.876C579.021 438.64 581.096 440.869 581.75 442.2C583.145 445.014 583.846 452.018 584.231 460.727Z" fill="#D969BD"/>
<path d="M530.536 451.701C530.537 451.704 530.538 451.708 530.539 451.713C530.541 451.723 530.545 451.739 530.549 451.76C530.557 451.801 530.57 451.863 530.587 451.944C530.62 452.108 530.669 452.351 530.734 452.668C530.864 453.302 531.055 454.235 531.297 455.431C531.781 457.822 532.473 461.262 533.305 465.464C534.968 473.866 537.189 485.312 539.42 497.485C543.868 521.761 548.397 549.135 548.552 560.89C548.562 561.718 547.899 562.398 547.071 562.409C546.243 562.42 545.563 561.757 545.552 560.929C545.401 549.487 540.936 522.406 536.469 498.026C534.241 485.871 532.024 474.439 530.362 466.046C529.532 461.85 528.84 458.413 528.356 456.026C528.115 454.833 527.925 453.901 527.796 453.268C527.731 452.952 527.681 452.711 527.647 452.549C527.631 452.468 527.619 452.405 527.61 452.364C527.606 452.344 527.603 452.329 527.601 452.318C527.599 452.313 527.598 452.309 527.598 452.307C527.597 452.305 527.598 452.304 527.598 452.304C527.601 452.302 527.671 452.288 529.066 452C530.535 451.697 530.536 451.697 530.536 451.698C530.536 451.699 530.536 451.7 530.536 451.701ZM528.764 450.531C529.575 450.364 530.368 450.886 530.535 451.697L527.598 452.303C527.43 451.491 527.952 450.699 528.764 450.531Z" fill="#17091D"/>
<path d="M544.054 450.525C544.868 450.375 545.651 450.912 545.802 451.726L544.327 452C545.802 451.727 545.803 451.728 545.803 451.728C545.803 451.729 545.802 451.73 545.803 451.731C545.803 451.734 545.804 451.738 545.805 451.743C545.807 451.754 545.81 451.769 545.813 451.79C545.821 451.831 545.833 451.893 545.848 451.975C545.878 452.138 545.922 452.38 545.98 452.697C546.097 453.331 546.268 454.265 546.485 455.46C546.92 457.851 547.541 461.292 548.287 465.493C549.78 473.895 551.774 485.341 553.777 497.513C557.774 521.794 561.841 549.152 561.995 560.89C562.006 561.718 561.344 562.398 560.516 562.409C559.687 562.42 559.007 561.757 558.996 560.929C558.845 549.47 554.828 522.373 550.816 497.999C548.816 485.844 546.825 474.411 545.334 466.018C544.588 461.821 543.967 458.384 543.533 455.997C543.316 454.804 543.146 453.872 543.03 453.239C542.972 452.923 542.927 452.681 542.897 452.518C542.882 452.437 542.871 452.376 542.863 452.335C542.859 452.314 542.857 452.298 542.855 452.288C542.854 452.283 542.853 452.279 542.852 452.276V452.273C542.702 451.459 543.239 450.676 544.054 450.525Z" fill="#17091D"/>
</svg>
