<svg width="1000" height="1000" viewBox="0 0 1000 1000" fill="none" xmlns="http://www.w3.org/2000/svg">
<path d="M558.233 636.477H558.069L537.261 634.364C537.033 634.341 536.812 634.27 536.613 634.156C536.414 634.042 536.241 633.887 536.106 633.702L461.852 532.186L429.682 515.557C429.462 515.443 429.271 515.281 429.123 515.083C428.975 514.885 428.874 514.656 428.827 514.413C428.78 514.17 428.789 513.92 428.853 513.681C428.916 513.442 429.034 513.22 429.195 513.033L455.813 482.182C455.967 482.004 456.157 481.861 456.371 481.764C456.584 481.666 456.817 481.615 457.052 481.615H457.183L497.644 484.931C500.092 484.717 534.703 481.597 550.512 476.088C552.398 475.426 554.382 475.087 556.38 475.084C571.437 475.084 582.925 494.109 583.408 494.92C583.546 495.153 583.624 495.417 583.634 495.688L586.766 570.295C586.776 570.534 586.733 570.773 586.638 570.993L559.752 635.466C559.628 635.767 559.417 636.023 559.147 636.204C558.876 636.384 558.558 636.479 558.233 636.477Z" fill="#FBDAFA"/>
<path d="M556.38 476.728C570.681 476.728 582.002 495.764 582.002 495.764L585.131 570.371L558.244 634.844L537.425 632.728L462.942 530.909L430.431 514.102L457.052 483.248L497.647 486.578C497.647 486.578 534.344 483.455 551.057 477.637C552.77 477.035 554.572 476.726 556.387 476.724M556.387 473.451C554.206 473.454 552.041 473.823 549.982 474.542C534.58 479.902 500.994 482.993 497.662 483.291L457.332 479.982C457.245 479.982 457.154 479.982 457.067 479.982C456.596 479.982 456.132 480.083 455.704 480.279C455.276 480.475 454.896 480.76 454.589 481.117L427.953 511.964C427.63 512.339 427.396 512.782 427.268 513.26C427.141 513.738 427.124 514.239 427.218 514.725C427.312 515.211 427.515 515.669 427.812 516.065C428.108 516.461 428.49 516.784 428.93 517.011L460.762 533.455L534.791 634.655C535.062 635.024 535.407 635.333 535.804 635.56C536.202 635.787 536.643 635.929 537.098 635.975L557.906 638.088C558.019 638.088 558.128 638.088 558.237 638.088C558.882 638.088 559.513 637.897 560.05 637.539C560.588 637.182 561.007 636.673 561.256 636.077L588.143 571.604C588.326 571.161 588.41 570.683 588.39 570.204L585.269 495.637C585.247 495.095 585.09 494.567 584.811 494.102C584.31 493.258 572.356 473.466 556.38 473.466L556.387 473.451Z" fill="#17091D"/>
<path d="M551.911 510.869L573.805 501.796L555.083 473.887L529.649 481.887C529.649 481.887 517.151 487.072 495.587 485.818C474.023 484.563 468.548 490.661 468.548 490.661L465.667 508.552C465.667 508.552 471.763 518.734 501.96 519.999C532.157 521.265 551.911 510.869 551.911 510.869Z" fill="#5C2C66"/>
<path d="M576.071 502.48L552.55 512.227C552.546 512.229 552.542 512.231 552.538 512.233C552.494 512.256 552.432 512.287 552.351 512.327C552.189 512.408 551.951 512.524 551.641 512.67C551.021 512.962 550.108 513.373 548.922 513.86C546.55 514.835 543.082 516.115 538.664 517.353C529.827 519.828 517.181 522.139 501.897 521.498C486.64 520.859 477.344 517.962 471.808 515.138C469.039 513.725 467.217 512.333 466.067 511.259C465.493 510.723 465.088 510.268 464.818 509.932C464.683 509.764 464.582 509.626 464.51 509.522C464.475 509.471 464.446 509.428 464.424 509.395C464.414 509.378 464.404 509.364 464.397 509.352C464.393 509.346 464.39 509.34 464.387 509.335C464.386 509.333 464.385 509.33 464.383 509.328C464.383 509.327 464.382 509.326 464.381 509.325C464.384 509.322 464.451 509.279 465.667 508.552L464.379 509.323L464.099 508.854L467.137 489.987L467.431 489.659L468.547 490.661C467.509 489.729 467.438 489.663 467.434 489.657C467.434 489.657 467.435 489.655 467.436 489.654C467.438 489.653 467.439 489.651 467.441 489.649C467.444 489.646 467.448 489.641 467.452 489.637C467.46 489.628 467.47 489.618 467.481 489.606C467.503 489.583 467.532 489.554 467.566 489.521C467.635 489.453 467.728 489.366 467.849 489.263C468.091 489.055 468.443 488.782 468.923 488.47C469.885 487.845 471.358 487.069 473.502 486.348C477.789 484.905 484.749 483.685 495.674 484.32C506.319 484.94 514.708 483.968 520.417 482.851C523.271 482.292 525.455 481.696 526.917 481.244C527.647 481.018 528.196 480.829 528.558 480.697C528.739 480.632 528.873 480.58 528.959 480.547C529.003 480.53 529.034 480.517 529.053 480.51C529.062 480.506 529.069 480.503 529.073 480.502L529.075 480.501L529.136 480.476L529.2 480.456L555.704 472.119L576.071 502.48ZM530.156 483.299C530.128 483.31 530.093 483.326 530.048 483.343C529.941 483.384 529.785 483.443 529.583 483.517C529.177 483.664 528.581 483.87 527.803 484.11C526.247 484.592 523.958 485.214 520.993 485.795C515.061 486.956 506.419 487.951 495.5 487.315C484.862 486.697 478.301 487.898 474.459 489.19C472.54 489.836 471.296 490.507 470.557 490.986C470.289 491.16 470.088 491.311 469.943 491.427L467.248 508.162C467.435 508.385 467.716 508.694 468.115 509.066C469.052 509.941 470.641 511.174 473.171 512.465C478.233 515.048 487.084 517.875 502.023 518.501C516.936 519.126 529.265 516.87 537.855 514.464C542.149 513.261 545.507 512.021 547.783 511.086C548.92 510.618 549.787 510.227 550.365 509.955C550.654 509.819 550.87 509.713 551.012 509.643C551.083 509.607 551.136 509.581 551.169 509.563C551.186 509.555 551.197 509.549 551.205 509.545L551.212 509.541L551.273 509.509L571.54 501.11L554.461 475.653L530.156 483.299Z" fill="#17091D"/>
<path d="M514.131 539.596C512.819 539.597 511.523 539.304 510.339 538.737C509.155 538.171 508.113 537.346 507.29 536.323L494.319 519.905C491.819 516.818 493.294 512.051 495.318 508.909L495.362 508.847L506.24 493.607C506.451 493.276 506.763 492.72 507.126 492.076C509.412 488.029 511.334 484.902 513.507 484.545L529.973 481.865L542.192 494.476C543.347 495.633 545.687 499.727 547.369 503.04C551.166 510.523 550.766 511.829 550.577 512.458L550.556 512.523L542.875 531.774C542.355 533.453 541.343 534.937 539.97 536.034C538.597 537.13 536.927 537.789 535.176 537.923L514.862 539.567C514.626 539.589 514.386 539.596 514.135 539.596H514.131Z" fill="#7E4282"/>
<path d="M529.391 483.637L541.018 495.637C542.835 497.455 549.582 510.135 549.011 512L541.316 531.237C540.894 532.613 540.069 533.83 538.948 534.731C537.826 535.633 536.46 536.176 535.027 536.291L514.713 537.938C514.52 537.938 514.324 537.96 514.131 537.96C513.063 537.96 512.009 537.722 511.044 537.262C510.08 536.802 509.231 536.132 508.558 535.302L495.601 518.909C493.647 516.498 495.006 512.433 496.691 509.818L507.591 494.546C508.681 492.84 511.766 486.513 513.768 486.182L529.391 483.637ZM530.55 480.135L528.868 480.408L513.245 482.953C510.338 483.426 508.293 486.709 505.702 491.295C505.379 491.869 505.07 492.415 504.881 492.717L494.032 507.917L493.988 507.982L493.945 508.044C491.627 511.64 490.002 517.175 493.047 520.953L505.993 537.346V537.364C506.97 538.574 508.206 539.549 509.609 540.217C511.013 540.886 512.548 541.232 514.102 541.229C514.382 541.229 514.669 541.229 514.945 541.197L535.263 539.549C537.328 539.391 539.298 538.617 540.921 537.329C542.543 536.041 543.744 534.297 544.368 532.32L552.02 513.204L552.071 513.077L552.111 512.942C552.499 511.666 552.27 510.248 551.271 507.702C550.545 505.818 549.516 503.728 548.797 502.306C548.434 501.578 545.164 495.2 543.325 493.335L531.699 481.335L530.51 480.109L530.55 480.135Z" fill="#17091D"/>
<path d="M510.941 538.244L504.18 605.637L537.243 634.728L543.056 635.818L566.31 604.546L539.892 535.898L510.941 538.244Z" fill="#7E4282"/>
<path d="M567.71 604.007L568.006 604.778L543.701 637.466L536.562 636.126L502.61 606.254L509.573 536.85L540.889 534.312L567.71 604.007ZM512.309 539.638L505.748 605.019L537.923 633.328L542.412 634.171L564.613 604.312L538.895 537.483L512.309 539.638Z" fill="#17091D"/>
<path d="M577.879 529.526C577.645 529.527 577.414 529.476 577.203 529.377C576.956 529.265 576.74 529.094 576.576 528.878C576.412 528.662 576.304 528.409 576.262 528.141L572.007 500.65C571.957 500.316 572.01 499.974 572.16 499.671L585.748 472.184C585.879 471.919 586.079 471.694 586.328 471.533C586.576 471.373 586.863 471.282 587.158 471.271H587.216C587.501 471.271 587.781 471.346 588.028 471.488C588.276 471.629 588.482 471.833 588.626 472.079L609.699 507.897C609.915 508.264 609.979 508.7 609.879 509.113C609.779 509.527 609.521 509.885 609.162 510.111L578.765 529.275C578.5 529.442 578.192 529.529 577.879 529.526Z" fill="#9C398C"/>
<path d="M587.22 472.909L608.293 508.727L577.897 527.891L573.642 500.4L587.238 472.909M587.238 469.636H587.118C586.529 469.658 585.957 469.838 585.462 470.158C584.967 470.478 584.568 470.926 584.306 471.455L570.71 498.946C570.412 499.55 570.308 500.232 570.412 500.898L574.667 528.389C574.787 529.161 575.178 529.864 575.77 530.372C576.362 530.88 577.117 531.16 577.897 531.16C578.514 531.159 579.118 530.985 579.641 530.658L610.037 511.491C610.758 511.04 611.275 510.326 611.479 509.499C611.682 508.673 611.556 507.8 611.127 507.066L590.054 471.247C589.766 470.756 589.354 470.349 588.86 470.066C588.367 469.783 587.807 469.633 587.238 469.633V469.636Z" fill="#17091D"/>
<path d="M430.43 541.879C429.529 541.879 429.221 541.418 428.479 540.298C428.116 539.741 427.571 538.923 426.895 537.879C425.613 535.912 423.745 533.018 421.343 529.283C417.296 522.989 411.675 514.218 404.63 503.21C392.64 484.469 380.527 465.479 380.407 465.29C380.268 465.073 380.182 464.826 380.156 464.57C380.131 464.313 380.167 464.054 380.261 463.814C380.355 463.573 380.504 463.359 380.697 463.188C380.89 463.016 381.12 462.893 381.37 462.829L386.216 461.563L392.306 459.97C392.564 459.904 392.835 459.903 393.094 459.967C393.353 460.03 393.593 460.156 393.792 460.334L470.255 526.883C470.477 527.074 470.643 527.322 470.736 527.599C470.829 527.877 470.845 528.174 470.784 528.461C470.723 528.747 470.586 529.012 470.387 529.227C470.189 529.442 469.936 529.599 469.656 529.683C455.311 534.014 433.511 540.687 431.331 541.61C431.064 541.786 430.751 541.88 430.43 541.879Z" fill="#9C398C"/>
<path d="M392.724 461.552L465.391 524.803L469.195 528.116C469.195 528.116 430.423 539.817 430.431 540.243C430.169 540.243 381.788 464.41 381.788 464.41L386.642 463.145L392.731 461.552M392.731 458.279C392.452 458.28 392.174 458.316 391.903 458.385L385.813 459.977L380.97 461.243C380.469 461.372 380.005 461.617 379.617 461.96C379.229 462.303 378.928 462.733 378.739 463.216C378.549 463.698 378.477 464.218 378.527 464.733C378.578 465.249 378.75 465.745 379.03 466.181C379.153 466.37 391.267 485.359 403.257 504.105C410.298 515.112 415.923 523.887 419.97 530.177C422.376 533.916 424.243 536.81 425.522 538.781C426.216 539.847 426.75 540.665 427.117 541.214C427.905 542.403 428.654 543.527 430.431 543.527C431.003 543.527 431.566 543.376 432.062 543.09C434.798 541.999 456.671 535.323 470.128 531.261C470.688 531.092 471.193 530.776 471.589 530.346C471.986 529.916 472.26 529.387 472.383 528.815C472.506 528.242 472.473 527.648 472.288 527.092C472.103 526.537 471.772 526.042 471.331 525.657L467.527 522.345L394.86 459.094C394.265 458.575 393.502 458.29 392.713 458.29L392.731 458.279Z" fill="#17091D"/>
<path d="M542.384 647.894C542.04 647.894 541.705 647.785 541.425 647.585L434.238 570.028C433.892 569.777 433.658 569.4 433.586 568.978C433.514 568.556 433.61 568.123 433.853 567.77L462.07 526.959C462.216 526.748 462.41 526.574 462.636 526.451C462.862 526.328 463.113 526.261 463.37 526.254H463.414C463.663 526.254 463.909 526.311 464.134 526.421C464.358 526.53 464.554 526.69 464.707 526.887L465.932 528.468L547.188 633.559C547.345 633.763 547.451 634.001 547.499 634.254C547.546 634.507 547.533 634.767 547.46 635.014L545.055 643.087L543.965 646.723C543.862 647.059 543.655 647.353 543.373 647.563C543.091 647.772 542.75 647.886 542.399 647.887L542.384 647.894Z" fill="#CE44A2"/>
<path d="M463.414 527.89L464.638 529.472L545.894 634.563L543.478 642.621L542.388 646.257L435.205 568.701L463.414 527.89ZM463.414 524.617H463.327C462.813 524.631 462.309 524.766 461.857 525.011C461.405 525.256 461.018 525.605 460.725 526.028L432.523 566.839C432.037 567.543 431.846 568.41 431.99 569.253C432.135 570.097 432.604 570.85 433.297 571.352L540.481 648.908C541.037 649.313 541.707 649.531 542.395 649.53C543.098 649.53 543.783 649.303 544.347 648.883C544.911 648.464 545.325 647.873 545.527 647.199L546.617 643.563L549.033 635.504C549.183 635.006 549.212 634.478 549.117 633.966C549.023 633.453 548.807 632.971 548.488 632.559L467.233 527.468L466.008 525.886C465.702 525.491 465.31 525.171 464.862 524.951C464.413 524.731 463.921 524.617 463.421 524.617H463.414Z" fill="#17091D"/>
<path d="M543.478 642.618L542.388 646.254L435.205 568.698L463.414 527.891L464.638 529.472C460.642 535.952 446.446 560.502 456.456 568.702C466.466 576.902 526.808 628.392 543.478 642.618Z" fill="#9C398C"/>
<path d="M537.389 668.654C537.142 668.654 536.898 668.598 536.676 668.491C536.453 668.383 536.258 668.227 536.105 668.033C535.952 667.839 535.845 667.613 535.792 667.372C535.738 667.13 535.74 666.88 535.797 666.64L536.433 663.952L569.035 526.676L572.788 510.498C572.856 510.203 573.004 509.933 573.217 509.718C573.429 509.503 573.697 509.351 573.991 509.28C574.118 509.248 574.248 509.232 574.38 509.232C574.615 509.232 574.848 509.284 575.062 509.382C575.275 509.481 575.465 509.624 575.619 509.803L611.105 551.123C611.256 551.303 611.367 551.512 611.429 551.738C611.492 551.964 611.506 552.201 611.469 552.432C607.043 581.625 541.451 664.52 538.66 668.036C538.508 668.228 538.315 668.383 538.095 668.49C537.875 668.597 537.633 668.653 537.389 668.654Z" fill="#CE44A2"/>
<path d="M574.373 510.868L609.859 552.188C605.449 581.279 537.389 667.017 537.389 667.017L538.025 664.33L570.619 527.053L570.943 525.661L574.373 510.868ZM574.373 507.595C574.109 507.594 573.847 507.626 573.591 507.69C573.004 507.834 572.469 508.139 572.044 508.569C571.62 509 571.323 509.54 571.186 510.13L567.756 524.922L567.433 526.312L534.842 663.573L534.206 666.264C534.025 666.993 534.1 667.763 534.418 668.443C534.737 669.124 535.28 669.674 535.956 670.001C536.632 670.328 537.399 670.412 538.13 670.24C538.861 670.067 539.51 669.648 539.969 669.053C540.139 668.839 557.245 647.253 574.667 622.392C598.284 588.704 611.204 565.25 613.111 552.679C613.181 552.213 613.15 551.737 613.02 551.284C612.89 550.831 612.665 550.412 612.359 550.053L576.854 508.726C576.547 508.369 576.166 508.082 575.738 507.885C575.309 507.689 574.844 507.587 574.373 507.588V507.595Z" fill="#17091D"/>
<path d="M609.859 552.189C605.448 581.28 537.389 667.018 537.389 667.018L538.025 664.331C548.394 646.924 567.371 615.211 571.473 609.495C577.181 601.531 588.292 565.455 587.035 554.065C585.839 543.273 572.305 527.273 570.942 525.662L574.372 510.869L609.859 552.189Z" fill="#9C398C"/>
<path d="M570.83 527.166C570.75 527.171 570.67 527.171 570.59 527.166C570.311 527.125 570.047 527.011 569.824 526.837C569.601 526.663 569.427 526.435 569.319 526.173L549.539 478.279C549.401 477.944 549.379 477.573 549.474 477.223C549.569 476.874 549.777 476.566 550.066 476.348L550.175 476.264C550.44 476.05 551.04 475.559 551.839 474.81L552.202 474.49C552.242 474.446 552.289 474.402 552.337 474.359C552.46 474.242 552.584 474.126 552.7 473.995C552.998 473.7 553.303 473.395 553.616 473.068L553.641 473.039C553.725 472.955 553.808 472.871 553.892 472.78C554.324 472.322 554.746 471.853 555.16 471.38C555.574 470.908 555.944 470.457 556.297 470.013C556.41 469.875 556.504 469.751 556.606 469.62C556.708 469.49 556.737 469.45 556.798 469.37L556.926 469.202C557.02 469.079 557.114 468.959 557.202 468.839L557.234 468.791C557.322 468.679 557.401 468.566 557.485 468.453L557.623 468.26L557.816 467.984C557.824 467.97 557.834 467.957 557.845 467.944C557.939 467.81 558.03 467.675 558.121 467.537L558.161 467.482C558.252 467.351 558.339 467.22 558.422 467.082L558.644 466.744L558.786 466.519C558.844 466.431 558.898 466.34 558.953 466.246L559.015 466.148C559.12 465.977 559.211 465.828 559.302 465.671C559.393 465.515 559.465 465.399 559.538 465.264C559.647 465.075 559.749 464.9 559.847 464.704L559.872 464.664C559.956 464.515 560.036 464.366 560.112 464.213C560.111 464.201 560.111 464.189 560.112 464.177C560.195 464.024 560.275 463.871 560.348 463.711L560.37 463.668C560.443 463.526 560.512 463.384 560.581 463.239L560.668 463.06C560.726 462.94 560.788 462.806 560.846 462.671C560.904 462.537 561.002 462.326 561.071 462.159L561.097 462.1C561.166 461.944 561.235 461.78 561.296 461.62C561.296 461.62 561.296 461.595 561.296 461.58C561.449 461.217 561.591 460.853 561.721 460.46C561.787 460.282 561.838 460.137 561.881 459.988V459.937C561.994 459.61 562.099 459.257 562.201 458.89C562.201 458.846 562.23 458.788 562.245 458.737C562.288 458.591 562.328 458.435 562.365 458.279V458.228C562.412 458.053 562.455 457.864 562.495 457.697C562.535 457.53 562.561 457.399 562.586 457.26V457.213C562.641 456.962 562.688 456.711 562.732 456.457C562.753 456.311 562.779 456.166 562.801 456.017V455.937C562.801 455.893 562.801 455.85 562.801 455.81C562.822 455.693 562.837 455.577 562.848 455.446C562.848 455.402 562.877 455.18 562.881 455.155C562.902 455.002 562.917 454.846 562.928 454.69C562.93 454.674 562.93 454.658 562.928 454.642C562.928 454.471 562.96 454.297 562.964 454.126C562.964 454.086 562.964 454.05 562.964 454.01C562.964 453.828 562.986 453.646 562.99 453.464C562.99 453.442 562.99 453.34 562.99 453.315C563.037 451.22 563.48 444.33 567.317 441.751L567.368 441.715C568.253 441.125 569.294 440.814 570.358 440.82C573.399 440.82 576.793 443.18 580.735 448.046C585.887 454.402 587.965 463.842 586.737 475.344C583.282 507.824 575.11 522.024 572.672 525.606C572.262 526.213 572.011 526.522 571.982 526.555C571.842 526.731 571.668 526.876 571.47 526.981C571.272 527.086 571.054 527.149 570.83 527.166Z" fill="#CE44A2"/>
<path d="M570.467 442.473C572.702 442.473 575.681 444.291 579.572 449.091C584.532 455.211 586.385 464.269 585.222 475.185C581.789 507.454 573.697 521.367 571.415 524.702C571.052 525.265 570.816 525.531 570.816 525.531L570.056 523.713L551.999 479.985L551.73 479.334L551.036 477.654L551.076 477.625C551.102 477.601 551.13 477.579 551.16 477.56C551.414 477.353 552.061 476.833 552.94 476.014L553.303 475.676L553.419 475.564C553.554 475.436 553.692 475.305 553.834 475.164C554.132 474.873 554.448 474.553 554.775 474.211L555.069 473.905C555.487 473.462 555.923 472.982 556.37 472.469C556.762 472.018 557.162 471.542 557.558 471.04C557.667 470.905 557.772 470.771 557.881 470.629L558.201 470.211C558.31 470.069 558.419 469.927 558.521 469.782L558.84 469.345C558.946 469.196 559.055 469.047 559.156 468.894C559.258 468.742 559.367 468.593 559.469 468.436C559.571 468.28 559.68 468.127 559.781 467.967C559.883 467.807 560.018 467.604 560.145 467.414C560.272 467.225 560.315 467.138 560.399 467C560.483 466.862 560.599 466.673 560.697 466.505C560.795 466.338 560.868 466.218 560.951 466.069C561.035 465.92 561.169 465.68 561.275 465.484C561.38 465.287 561.464 465.138 561.554 464.96C561.645 464.782 561.74 464.596 561.827 464.425C561.914 464.254 562.038 463.996 562.143 463.778C562.212 463.633 562.281 463.484 562.347 463.334C562.412 463.185 562.514 462.971 562.59 462.778C562.666 462.585 562.753 462.414 562.826 462.211C562.988 461.813 563.141 461.41 563.284 461C563.349 460.822 563.411 460.636 563.466 460.469C563.593 460.105 563.709 459.713 563.829 459.331L563.862 459.214C563.916 459.029 563.963 458.851 564.007 458.654C564.051 458.458 564.112 458.247 564.156 458.04C564.2 457.833 564.229 457.72 564.258 457.56C564.316 457.287 564.367 457.014 564.414 456.742C564.443 456.571 564.472 456.4 564.494 456.225C564.494 456.185 564.494 456.145 564.494 456.102C564.519 455.953 564.537 455.804 564.556 455.651C564.556 455.571 564.556 455.491 564.581 455.411C564.606 455.225 564.625 455.047 564.639 454.847C564.654 454.647 564.675 454.425 564.683 454.214C564.685 454.201 564.685 454.188 564.683 454.174C564.683 453.96 564.708 453.745 564.712 453.527C564.712 453.469 564.712 453.407 564.712 453.349C564.799 449.349 565.849 444.764 568.345 443.12C568.964 442.707 569.691 442.49 570.434 442.494M570.434 439.222C569.052 439.215 567.699 439.62 566.547 440.385L566.467 440.44C562.107 443.382 561.496 450.389 561.431 453.28V453.331C561.431 453.378 561.431 453.425 561.431 453.476C561.431 453.607 561.431 453.749 561.413 453.92C561.409 453.982 561.409 454.044 561.413 454.105C561.413 454.24 561.413 454.378 561.384 454.513C561.382 454.542 561.382 454.571 561.384 454.6C561.384 454.749 561.358 454.869 561.344 454.964C561.344 455.011 561.344 455.062 561.344 455.109V455.156C561.344 455.204 561.344 455.251 561.344 455.298C561.344 455.345 561.344 455.465 561.311 455.545L561.289 455.687C561.289 455.731 561.289 455.774 561.289 455.814C561.289 455.942 561.253 456.065 561.231 456.178C561.184 456.436 561.144 456.658 561.1 456.862C561.099 456.894 561.099 456.927 561.1 456.96C561.079 457.073 561.053 457.182 561.028 457.294C561.028 457.294 561.028 457.334 561.028 457.349C561.002 457.476 560.97 457.618 560.922 457.793C560.922 457.829 560.9 457.865 560.893 457.902C560.86 458.044 560.828 458.167 560.799 458.265C560.799 458.309 560.766 458.374 560.748 458.44C560.657 458.767 560.559 459.087 560.457 459.389L560.425 459.487C560.392 459.6 560.345 459.731 560.301 459.851L560.279 459.909C560.159 460.273 560.028 460.604 559.89 460.942C559.89 460.964 559.89 460.989 559.861 461.014C559.81 461.149 559.752 461.287 559.698 461.411L559.643 461.531C559.592 461.662 559.527 461.807 559.465 461.945C559.455 461.961 559.446 461.978 559.44 461.996C559.389 462.113 559.334 462.229 559.28 462.36L559.2 462.524C559.138 462.654 559.077 462.785 559.011 462.913C558.994 462.942 558.98 462.972 558.968 463.004C558.902 463.134 558.837 463.265 558.768 463.393C558.768 463.418 558.742 463.444 558.728 463.465C558.662 463.596 558.593 463.731 558.528 463.829L558.481 463.913L558.194 464.436C558.121 464.567 558.052 464.68 557.979 464.8V464.825C557.896 464.971 557.812 465.109 557.725 465.251L557.703 465.284L557.645 465.378L557.503 465.611L557.358 465.84L557.162 466.142L557.133 466.189C557.064 466.294 556.987 466.414 556.918 466.513C556.89 466.55 556.863 466.589 556.838 466.629C556.758 466.749 556.679 466.869 556.595 466.993L556.544 467.069C556.49 467.153 556.431 467.233 556.373 467.313L556.293 467.425L556.017 467.789L555.955 467.876C555.883 467.982 555.803 468.084 555.723 468.185L555.578 468.374C555.523 468.444 555.472 468.516 555.418 468.582V468.604C555.327 468.724 555.236 468.836 555.145 468.949L555.12 468.982C554.786 469.404 554.429 469.829 554.03 470.291C553.63 470.753 553.223 471.2 552.816 471.633C552.747 471.709 552.675 471.782 552.606 471.854C552.587 471.87 552.57 471.887 552.555 471.905C552.253 472.218 551.962 472.513 551.694 472.778L551.661 472.807C551.548 472.92 551.439 473.025 551.33 473.127C551.283 473.171 551.232 473.218 551.189 473.265L550.858 473.574C550.131 474.247 549.572 474.705 549.306 474.92L549.179 475.022C548.615 475.463 548.209 476.077 548.024 476.77C547.839 477.463 547.885 478.197 548.155 478.862L548.849 480.542L549.118 481.193L567.175 524.92L567.935 526.738C568.151 527.261 568.499 527.719 568.945 528.066C569.39 528.414 569.919 528.641 570.478 528.724C570.638 528.748 570.799 528.76 570.961 528.76C571.447 528.763 571.927 528.657 572.367 528.451C572.807 528.244 573.196 527.943 573.505 527.567C573.577 527.476 573.868 527.134 574.286 526.494C576.764 522.836 585.128 508.345 588.623 475.487C589.894 463.545 587.696 453.691 582.261 446.985C577.992 441.716 574.184 439.156 570.634 439.156L570.434 439.222Z" fill="#17091D"/>
<path d="M585.222 475.184C581.788 507.454 573.697 521.366 571.415 524.701L570.979 523.694C574.551 505.334 579.634 473.308 575.423 457.272C574.035 452.122 571.635 447.3 568.363 443.09C570.696 441.552 574.296 442.588 579.558 449.083C584.532 455.21 586.385 464.268 585.222 475.184Z" fill="#9C398C"/>
<path d="M568.116 446.72C567.311 449.289 566.756 451.931 566.459 454.607C566.288 456.198 565.933 457.763 565.402 459.272C562.132 468.727 560.293 474.734 556.489 476.64C555.036 477.367 553.514 479.058 551.959 480L551.05 477.636L551.09 477.607C551.116 477.583 551.144 477.561 551.174 477.542C551.428 477.334 552.075 476.814 552.954 475.996L553.317 475.658L553.434 475.545L553.848 475.145C554.146 474.854 554.462 474.534 554.789 474.192L555.083 473.887C555.501 473.443 555.937 472.963 556.384 472.451C556.776 472 557.172 471.523 557.572 471.022C557.681 470.887 557.786 470.752 557.895 470.611L558.215 470.192C558.321 470.051 558.43 469.909 558.535 469.763L558.855 469.327L559.171 468.876C559.276 468.727 559.382 468.571 559.483 468.418L559.796 467.949C559.916 467.767 560.032 467.585 560.159 467.396C560.286 467.207 560.33 467.123 560.413 466.982C560.497 466.84 560.613 466.654 560.711 466.487C560.809 466.32 560.882 466.196 560.966 466.051C561.049 465.905 561.184 465.662 561.289 465.465C561.394 465.269 561.478 465.102 561.569 464.942C561.66 464.782 561.754 464.578 561.841 464.407C561.928 464.236 562.052 463.978 562.157 463.76C562.226 463.614 562.292 463.465 562.361 463.316C562.43 463.167 562.524 462.952 562.604 462.76C562.684 462.567 562.764 462.396 562.84 462.192C563.003 461.795 563.155 461.391 563.298 460.982C563.364 460.803 563.422 460.618 563.48 460.451C563.603 460.087 563.72 459.694 563.843 459.312L563.876 459.196C563.927 459.011 563.978 458.832 564.021 458.636C564.065 458.44 564.123 458.225 564.17 458.022C564.217 457.818 564.239 457.702 564.272 457.542C564.33 457.269 564.381 456.996 564.428 456.723C564.457 456.552 564.483 456.382 564.508 456.207C564.508 456.167 564.508 456.127 564.508 456.083C564.53 455.934 564.552 455.785 564.57 455.632C564.57 455.552 564.57 455.472 564.595 455.392C564.617 455.207 564.635 455.029 564.653 454.829C564.672 454.629 564.686 454.407 564.697 454.196C564.699 454.183 564.699 454.169 564.697 454.156C564.697 453.942 564.719 453.727 564.726 453.509C564.726 453.451 564.726 453.389 564.726 453.331C564.813 449.331 565.863 444.745 568.359 443.102C568.868 443.654 568.592 445.167 568.116 446.72Z" fill="#D969BD"/>
<path d="M470.121 529.526C457.957 529.323 439.162 518.454 414.259 497.217C395.867 481.534 380.756 465.697 380.603 465.537C380.421 465.367 380.282 465.156 380.196 464.921C380.111 464.687 380.081 464.436 380.109 464.188C380.138 463.955 380.22 463.732 380.35 463.536C380.48 463.34 380.654 463.178 380.858 463.061C381.221 462.723 385.218 458.73 389.363 439.981C392.132 427.468 396.724 422.032 400.085 419.672C401.313 418.81 402.316 418.035 402.941 417.534C403.366 417.195 403.762 416.872 404.085 416.592C404.389 416.332 404.776 416.191 405.175 416.195C405.554 416.191 405.922 416.319 406.215 416.559C406.51 416.806 406.709 417.149 406.775 417.529C406.842 417.908 406.772 418.299 406.578 418.632C406.512 418.745 404.983 421.523 406.64 426.545C408.253 431.435 413.274 439.323 428.033 449.126C462.869 472.268 497.844 484.901 498.192 485.025C498.427 485.108 498.639 485.243 498.813 485.421C498.986 485.599 499.118 485.814 499.196 486.05C499.274 486.286 499.297 486.537 499.264 486.783C499.23 487.03 499.141 487.265 499.003 487.472L471.509 528.799C471.36 529.023 471.158 529.207 470.921 529.333C470.684 529.46 470.419 529.527 470.15 529.526H470.121Z" fill="#CE44A2"/>
<path d="M405.172 417.818C405.012 418.094 397.684 430.934 427.135 450.498C462.542 474.018 497.651 486.574 497.651 486.574L496.136 488.85L479.059 514.487L470.15 527.89C441.756 527.418 381.788 464.41 381.788 464.41C381.788 464.41 386.279 461.454 390.958 440.334C393.596 428.418 397.836 423.243 401.026 421.014C402.229 420.17 403.243 419.392 403.966 418.832C404.689 418.272 405.117 417.865 405.172 417.818ZM405.172 414.545C404.391 414.545 403.636 414.825 403.043 415.334C402.872 415.483 402.498 415.8 401.953 416.243C401.346 416.727 400.372 417.48 399.173 418.32C393.938 421.992 390.09 429.156 387.79 439.61C383.848 457.429 380.124 461.49 379.797 461.792C379.435 462.073 379.136 462.426 378.919 462.83C378.702 463.233 378.572 463.678 378.538 464.135C378.504 464.592 378.566 465.051 378.72 465.482C378.874 465.914 379.117 466.308 379.433 466.64C379.586 466.796 394.759 482.694 413.223 498.436C438.421 519.923 457.55 530.923 470.118 531.134H470.172C470.71 531.134 471.24 531.002 471.715 530.748C472.19 530.494 472.595 530.127 472.894 529.68L481.813 516.28L498.89 490.643L500.405 488.367C500.681 487.953 500.859 487.482 500.925 486.989C500.992 486.496 500.945 485.994 500.789 485.522C500.633 485.05 500.371 484.619 500.024 484.264C499.677 483.908 499.253 483.636 498.785 483.469C498.421 483.345 463.614 470.741 428.978 447.749C414.935 438.421 410.022 431.021 408.377 426.44C406.789 422.025 407.959 419.589 408.05 419.41C408.328 418.911 408.47 418.347 408.463 417.775C408.455 417.203 408.298 416.643 408.007 416.151C407.716 415.658 407.301 415.251 406.803 414.969C406.306 414.688 405.743 414.541 405.172 414.545Z" fill="#17091D"/>
<path d="M479.07 514.49L470.15 527.89C441.756 527.417 381.788 464.41 381.788 464.41C381.788 464.41 386.278 461.454 390.958 440.334C393.596 428.417 397.836 423.243 401.026 421.014C399.573 429.279 399.209 441.337 404.445 455.039C412.006 474.835 458.258 502.737 479.07 514.49Z" fill="#9C398C"/>
<path d="M497.648 486.577L496.132 488.853C493.091 488.006 489.534 486.944 485.37 485.617C456.765 476.504 408.987 442.726 404.627 432.18C402.084 426.064 402.868 421.537 403.966 418.813C404.692 418.238 405.117 417.864 405.168 417.82C405.008 418.097 397.68 430.937 427.132 450.5C462.539 474.02 497.648 486.577 497.648 486.577Z" fill="#D969BD"/>
</svg>
