<svg width="1000" height="1000" viewBox="0 0 1000 1000" fill="none" xmlns="http://www.w3.org/2000/svg">
<path d="M499.273 600.879C484.543 592.762 461.174 566.111 429.818 521.675C406.543 488.682 387.308 457.65 387.105 457.34L386.741 456.77L386.89 456.115C390.469 440.406 410.231 425.05 417.025 421.231C418.218 420.568 419.563 420.226 420.927 420.239C425.047 420.239 429.324 423.148 430.461 426.682C431.213 429.042 430.432 431.26 428.317 432.77C425.734 434.61 424.157 435.864 424.001 437.78C423.739 441.053 427.493 446.482 435.482 454.384C452.352 471.071 523.046 556.879 523.772 557.744L524.481 558.602L500.726 601.664L499.273 600.879Z" fill="#7E4282"/>
<path d="M420.938 421.876C426.388 421.876 432.049 428.105 427.38 431.436C421.796 435.436 417.341 438.709 434.345 455.549C451.349 472.389 522.526 558.785 522.526 558.785L500.065 599.447C465.072 580.174 388.496 456.48 388.496 456.48C391.988 441.138 411.891 426 417.835 422.661C418.784 422.135 419.853 421.864 420.938 421.876ZM420.938 418.603C419.292 418.589 417.671 419.004 416.233 419.807C412.6 421.843 405.962 426.763 399.941 432.749C394.4 438.258 387.366 446.72 385.31 455.752L385.012 457.061L385.717 458.203C385.909 458.512 405.184 489.589 428.488 522.618C459.986 567.272 483.54 594.076 498.488 602.312L501.347 603.887L502.928 601.029L525.389 560.363L526.479 558.418L525.062 556.701C522.156 553.167 453.587 469.963 436.66 453.218C426.799 443.465 425.534 439.44 425.658 437.909C425.752 436.701 427.093 435.665 429.291 434.098C431.983 432.178 433.012 429.218 432.042 426.181C430.708 422 425.73 418.6 420.953 418.6L420.938 418.603Z" fill="#17091D"/>
<path d="M555.106 452.29C555.692 455.161 555.803 458.11 555.437 461.017C553.591 475.454 511.989 546.934 503.814 557.635C495.639 568.337 466.028 622.363 466.028 622.363L414.071 733.999C414.071 733.999 435.508 737.272 449.314 738.363C449.314 738.363 474.312 678.639 486.374 660.181C496.257 645.061 551.117 554.581 559.768 535.817C568.488 516.908 589.089 485.512 586.418 474.483C584.522 466.646 578.018 454.588 572.488 446.457C570.235 443.148 553.137 442.421 555.106 452.29Z" fill="#7E4282"/>
<path d="M561.994 442.948C564.326 442.603 566.788 442.702 568.841 443.114C569.868 443.32 570.833 443.613 571.648 443.994C572.384 444.338 573.128 444.813 573.631 445.477L573.728 445.613C579.289 453.789 585.915 466.027 587.876 474.13C588.276 475.782 588.218 477.703 587.877 479.756C587.533 481.822 586.884 484.116 586.021 486.559C584.296 491.444 581.662 497.064 578.701 502.876C572.908 514.244 565.936 526.227 561.547 535.551L561.13 536.445C556.762 545.918 540.831 573.315 524.821 600.133C508.791 626.986 492.59 653.412 487.63 661.002C481.675 670.113 472.459 689.543 464.689 706.809C460.815 715.418 457.317 723.452 454.787 729.335C453.522 732.276 452.5 734.678 451.794 736.345C451.441 737.179 451.166 737.828 450.98 738.269C450.887 738.49 450.817 738.658 450.769 738.771C450.746 738.828 450.728 738.871 450.716 738.899C450.71 738.913 450.706 738.924 450.703 738.931L450.698 738.941L450.279 739.943L449.196 739.858C442.25 739.309 433.405 738.214 426.315 737.258C422.767 736.78 419.65 736.336 417.421 736.011C416.306 735.849 415.412 735.717 414.798 735.625C414.49 735.579 414.252 735.544 414.091 735.519C414.01 735.507 413.949 735.497 413.908 735.491C413.887 735.488 413.872 735.486 413.861 735.484C413.856 735.483 413.851 735.483 413.848 735.482C413.847 735.482 413.846 735.482 413.845 735.482L413.844 735.481L411.867 735.179L464.668 621.729L464.688 621.684L464.713 621.641L466.028 622.362C464.713 621.641 464.712 621.642 464.713 621.641L464.714 621.638C464.715 621.637 464.716 621.635 464.718 621.632C464.721 621.625 464.727 621.615 464.734 621.602C464.748 621.576 464.769 621.536 464.798 621.485C464.854 621.382 464.938 621.23 465.048 621.031C465.267 620.632 465.59 620.045 466.003 619.296C466.829 617.796 468.018 615.643 469.47 613.026C472.376 607.791 476.335 600.699 480.551 593.271C488.949 578.474 498.457 562.178 502.623 556.724C506.632 551.475 519.025 531.029 530.687 509.999C536.507 499.505 542.12 488.91 546.39 480.048C548.526 475.615 550.318 471.633 551.63 468.322C552.956 464.975 553.744 462.43 553.949 460.827C554.295 458.082 554.189 455.3 553.636 452.59L553.635 452.583C553.047 449.634 553.89 447.294 555.652 445.652C557.325 444.094 559.688 443.289 561.994 442.948ZM568.25 446.055C566.525 445.709 564.411 445.623 562.433 445.916C560.43 446.212 558.747 446.87 557.697 447.847C556.738 448.741 556.182 450.008 556.576 451.99C557.194 455.022 557.311 458.135 556.925 461.205V461.207C556.668 463.213 555.753 466.06 554.419 469.426C553.07 472.83 551.245 476.884 549.094 481.35C544.789 490.285 539.145 500.935 533.311 511.454C521.668 532.448 509.172 553.092 505.007 558.546C500.997 563.794 491.611 579.861 483.16 594.753C478.951 602.169 474.996 609.252 472.094 614.481C470.642 617.096 469.455 619.247 468.63 620.744C468.217 621.492 467.895 622.077 467.677 622.475C467.567 622.674 467.484 622.826 467.427 622.928C467.401 622.978 467.379 623.015 467.365 623.041L416.278 732.81C416.735 732.878 417.262 732.957 417.852 733.043C420.074 733.366 423.179 733.808 426.716 734.285C433.429 735.189 441.669 736.212 448.353 736.778C448.528 736.362 448.756 735.824 449.031 735.174C449.739 733.503 450.764 731.095 452.031 728.149C454.565 722.257 458.07 714.206 461.953 705.578C469.697 688.368 479.011 668.707 485.119 659.36L486.171 657.731C492.062 648.53 507.214 623.776 522.245 598.596C538.298 571.705 554.123 544.48 558.406 535.189C562.771 525.725 570.195 512.961 576.028 501.513C578.973 495.734 581.534 490.255 583.192 485.56C584.021 483.214 584.612 481.098 584.918 479.262C585.226 477.413 585.228 475.94 584.961 474.836C583.129 467.266 576.747 455.387 571.248 447.3C571.185 447.209 570.951 446.979 570.379 446.712C569.836 446.458 569.111 446.228 568.25 446.055Z" fill="#17091D"/>
</svg>
