<svg width="1000" height="1000" viewBox="0 0 1000 1000" fill="none" xmlns="http://www.w3.org/2000/svg">
<path d="M479.471 512.181C479.471 512.181 527.431 515.817 544.145 504.908C544.145 504.908 536.878 520.908 535.061 525.635C533.245 530.363 529.975 538.726 529.975 544.908C529.975 551.09 530.817 556.37 530.759 558.457C530.701 560.545 531.428 566.861 531.428 566.861C531.428 566.861 532.518 575.817 501.635 574.363C501.635 574.363 498.001 559.214 496.548 554.606C495.095 549.999 489.405 533.272 487.345 528.908C485.285 524.545 479.471 512.181 479.471 512.181Z" fill="#7E4282"/>
<path d="M528.474 544.91C528.474 541.595 529.344 537.789 530.401 534.294C531.464 530.778 532.756 527.454 533.661 525.099C534.586 522.691 536.876 517.468 538.914 512.89C539.655 511.226 540.367 509.64 540.972 508.293C537.044 510.019 532.286 511.248 527.246 512.127C520.304 513.336 512.666 513.908 505.588 514.136C498.505 514.365 491.953 514.251 487.172 514.08C485.023 514.003 483.231 513.912 481.907 513.838C482.469 515.033 483.204 516.594 483.993 518.271C485.704 521.908 487.671 526.088 488.701 528.269C490.812 532.742 496.532 549.571 497.978 554.157C498.721 556.513 500.005 561.501 501.091 565.85C501.637 568.036 502.138 570.077 502.501 571.571C502.628 572.09 502.737 572.543 502.827 572.914C517.419 573.495 524.241 571.65 527.367 569.858C528.933 568.96 529.524 568.102 529.755 567.606C529.875 567.35 529.914 567.158 529.926 567.057C529.931 567.02 529.931 566.994 529.931 566.981C529.93 566.975 529.93 566.968 529.929 566.961C529.924 566.913 529.916 566.843 529.906 566.754C529.886 566.575 529.858 566.318 529.824 566.004C529.756 565.375 529.667 564.513 529.579 563.585C529.407 561.771 529.228 559.572 529.26 558.418C529.286 557.487 529.105 555.792 528.894 553.349C528.689 550.982 528.474 548.066 528.474 544.91ZM531.474 544.91C531.474 547.936 531.681 550.751 531.883 553.091C532.079 555.355 532.291 557.344 532.258 558.501C532.232 559.434 532.388 561.436 532.565 563.302C532.651 564.214 532.739 565.062 532.806 565.682C532.84 565.992 532.868 566.246 532.887 566.421C532.897 566.508 532.904 566.576 532.91 566.622C532.912 566.645 532.915 566.663 532.917 566.674C532.917 566.68 532.917 566.683 532.917 566.686L532.918 566.692C532.919 566.696 532.919 566.699 532.919 566.703C532.92 566.711 532.922 566.719 532.922 566.728C532.924 566.746 532.926 566.766 532.927 566.789C532.93 566.834 532.932 566.889 532.932 566.953C532.933 567.08 532.927 567.241 532.903 567.432C532.854 567.816 532.736 568.312 532.475 568.873C531.945 570.01 530.88 571.302 528.859 572.461C524.888 574.737 517.08 576.594 501.564 575.863C500.897 575.832 500.332 575.363 500.176 574.715L500.175 574.714V574.712C500.175 574.71 500.174 574.707 500.173 574.704C500.172 574.697 500.169 574.686 500.166 574.672C500.159 574.643 500.149 574.599 500.135 574.544C500.108 574.432 500.068 574.267 500.017 574.056C499.915 573.634 499.768 573.025 499.586 572.28C499.224 570.79 498.725 568.755 498.181 566.578C497.088 562.2 495.828 557.31 495.118 555.059C493.658 550.43 487.996 533.805 485.988 529.55C484.957 527.368 482.989 523.185 481.278 519.549C480.422 517.73 479.631 516.048 479.054 514.821C478.766 514.208 478.531 513.708 478.368 513.361C478.286 513.188 478.222 513.052 478.179 512.961C478.158 512.915 478.141 512.88 478.13 512.856C478.125 512.845 478.12 512.836 478.118 512.83C478.116 512.827 478.115 512.824 478.115 512.823L478.114 512.821C477.887 512.338 477.933 511.771 478.236 511.332C478.539 510.892 479.052 510.647 479.584 510.687H479.592C479.598 510.688 479.606 510.688 479.617 510.689C479.639 510.691 479.672 510.694 479.716 510.697C479.805 510.703 479.939 510.712 480.115 510.724C480.466 510.748 480.985 510.781 481.652 510.82C482.986 510.898 484.914 510.997 487.28 511.082C492.014 511.251 498.496 511.364 505.492 511.138C512.493 510.912 519.979 510.347 526.731 509.171C533.519 507.988 539.406 506.212 543.325 503.654C543.883 503.289 544.615 503.338 545.122 503.772C545.596 504.179 545.765 504.834 545.557 505.415L545.51 505.53L545.509 505.533C545.508 505.535 545.507 505.538 545.505 505.542C545.502 505.549 545.497 505.561 545.49 505.576C545.476 505.606 545.455 505.652 545.428 505.711C545.375 505.829 545.296 506.003 545.195 506.225C544.993 506.671 544.703 507.314 544.348 508.1C543.639 509.673 542.675 511.818 541.655 514.111C539.605 518.715 537.353 523.856 536.461 526.175C535.55 528.548 534.298 531.769 533.272 535.162C532.24 538.575 531.474 542.043 531.474 544.91Z" fill="#17091D"/>
<path d="M505.813 608.728C502.543 605.568 498.546 595.56 496.254 591.604C495.004 589.476 494.038 587.194 493.38 584.815C488.943 568.171 474.25 557.342 451.313 554.546C437.143 552.815 413.722 556.331 405.169 558.546C399.876 559.917 402.114 545.4 402.114 545.4L405.533 545.455C405.533 545.455 412.193 539.946 418.406 537.138C423.278 534.984 427.672 531.877 431.329 528C434.414 524.746 444.657 521.88 452.316 521.302C457.511 520.913 458.896 523.157 463.303 525.455C468.219 528.018 476.416 537.855 483.649 544.364C485.125 547.891 489.652 548.898 490.916 552.364C491.585 554.182 492.795 553.677 493.427 555.542C496.134 563.542 498.553 572 501.242 582.204C502.724 587.833 504.835 601.022 505.813 608.728Z" fill="#9C398C"/>
<path d="M496.548 561.454C496.28 561.454 496.015 561.388 495.779 561.261C495.543 561.134 495.341 560.951 495.193 560.727C495.193 560.705 493.543 558.283 490.636 554.618C485.063 547.596 473.56 534.44 459.026 525.247C457.003 523.941 454.643 523.254 452.236 523.273C441.467 523.273 429.16 535.662 419.274 545.618C411.55 553.393 407.012 557.789 403.484 557.789C402.781 557.79 402.092 557.594 401.494 557.224C400.896 556.854 400.414 556.324 400.101 555.694C394.495 545.465 381.051 462.862 380.481 459.331C380.433 459.046 380.463 458.753 380.568 458.483C380.615 458.36 385.292 446.094 386.382 443.211C387.681 439.926 389.144 436.708 390.767 433.571C393.674 427.985 396.242 424.331 398.43 422.705C399.927 421.614 401.536 420.523 403.302 420.523C406.725 420.523 409.094 424.011 413.065 434.865C417.181 446.138 420.295 449.556 425.008 454.734C426.337 456.189 427.849 457.854 429.498 459.825C436.671 468.44 454.568 481.549 460.643 485.247C467.706 489.549 471.979 496.047 482.407 518.36C492.878 540.771 498.07 559.156 498.121 559.342C498.226 559.715 498.194 560.114 498.032 560.467C497.869 560.819 497.587 561.102 497.235 561.265C497.023 561.38 496.788 561.444 496.548 561.454Z" fill="#CE44A2"/>
<path d="M403.302 422.182C405.714 422.182 407.858 425.411 411.528 435.451C416.978 450.36 420.974 452.178 428.241 460.905C435.508 469.633 453.311 482.724 459.793 486.676C466.275 490.629 470.388 496.545 480.924 519.091C491.461 541.636 496.548 559.818 496.548 559.818C496.548 559.818 494.905 557.374 491.919 553.604C485.898 546.018 474.424 533.065 459.887 523.869C457.605 522.402 454.948 521.628 452.236 521.64C433.448 521.64 411.208 556.156 403.484 556.156C403.073 556.159 402.671 556.043 402.325 555.821C401.98 555.6 401.705 555.283 401.536 554.909C395.999 544.811 382.098 459.091 382.098 459.091C382.098 459.091 386.821 446.727 387.911 443.818C389.188 440.596 390.626 437.441 392.22 434.364C394.4 430.134 397.067 425.793 399.403 424.062C400.9 422.953 402.132 422.193 403.302 422.193M403.302 418.92C401.038 418.92 399.098 420.214 397.459 421.429C395.032 423.247 392.373 426.967 389.317 432.858C387.661 436.052 386.17 439.329 384.848 442.676C383.758 445.542 379.089 457.807 379.035 457.931C378.83 458.47 378.771 459.053 378.864 459.622C378.897 459.836 382.392 481.345 386.516 503.811C394.949 549.716 397.743 554.814 398.662 556.491C399.115 557.378 399.805 558.123 400.654 558.643C401.504 559.162 402.481 559.437 403.476 559.436C407.658 559.436 412.164 555.098 420.426 546.782C429.589 537.556 442.142 524.92 452.228 524.92C454.322 524.906 456.374 525.505 458.133 526.644C472.459 535.705 483.842 548.705 489.35 555.647C492.206 559.251 493.812 561.629 493.826 561.654C494.259 562.303 494.909 562.775 495.659 562.986C496.409 563.197 497.21 563.134 497.917 562.806C498.624 562.479 499.191 561.91 499.516 561.202C499.842 560.493 499.903 559.692 499.691 558.942C499.48 558.189 494.408 540.244 483.878 517.713C473.284 495.04 468.887 488.4 461.486 483.894C455.495 480.24 437.804 467.302 430.744 458.825C429.073 456.814 427.551 455.145 426.21 453.669C421.628 448.633 418.602 445.305 414.583 434.342C412.625 428.985 411.117 425.585 409.697 423.324C409.013 422.233 406.932 418.924 403.287 418.924L403.302 418.92Z" fill="#17091D"/>
<path d="M496.548 559.817C496.548 559.817 494.905 557.374 491.919 553.603C483.09 539.119 471.656 520.763 464.607 510.995C451.84 493.305 420.793 487.701 403.622 462.035C398.113 453.799 394.538 443.945 392.22 434.355C394.4 430.126 397.067 425.785 399.403 424.054C403.992 420.657 406.078 420.545 411.528 435.454C416.978 450.363 420.974 452.181 428.241 460.908C435.508 469.635 453.311 482.726 459.793 486.679C466.275 490.632 470.388 496.545 480.924 519.09C491.461 541.635 496.548 559.817 496.548 559.817Z" fill="#D969BD"/>
<path d="M597.01 535.635C593.932 533.85 574.846 537.799 566.853 540.362C554.351 544.362 541.496 562.526 532.7 570.181C532.7 568.962 532.874 556.072 532.881 554.962C538.204 547.944 557.134 523.995 572.121 517.762C582.756 513.344 592.555 529.613 597.01 535.635Z" fill="#9C398C"/>
<path d="M531.428 558.546C531.258 558.546 531.088 558.519 530.927 558.466C530.597 558.359 530.31 558.152 530.107 557.872C529.903 557.592 529.793 557.255 529.793 556.909V548.789C529.793 540.426 533.117 529.153 535.414 524.542C536.413 522.542 537.881 519.215 539.439 515.687C541.256 511.611 543.098 507.393 544.443 504.753C546.136 501.444 547.306 490.702 548.003 484.284C548.287 481.698 548.508 479.655 548.708 478.466C548.886 477.396 549.173 475.458 549.536 473.011C550.659 465.415 552.352 453.938 553.482 450.266C554.663 446.411 556.81 444.473 560.662 443.786C561.843 443.582 563.036 443.461 564.233 443.422H564.433C571.493 443.422 579.021 460.513 579.09 460.676C580.449 464.084 584.5 472.222 584.827 472.873C585.288 473.684 591.985 485.455 597.511 498.204C605.504 516.655 607.248 527.873 602.808 532.498C601.239 534.135 599.687 534.931 598.063 534.931C594.713 534.931 592.366 531.633 589.649 527.811C586.466 523.338 582.858 518.266 577.368 518.266C575.779 518.299 574.212 518.645 572.757 519.284C572.543 519.375 572.314 519.473 572.089 519.575L571.573 519.811L571.442 519.873C571.209 519.986 570.999 520.087 570.788 520.196C569.883 520.658 568.931 521.196 567.947 521.804L567.511 522.076L567.463 522.109C567.394 522.149 567.329 522.193 567.264 522.236C567.046 522.375 566.853 522.498 566.664 522.626C565.574 523.353 564.422 524.175 563.26 525.069C562.98 525.28 562.707 525.491 562.438 525.709C561.043 526.8 559.597 528.026 558.122 529.346C557.973 529.476 557.842 529.596 557.711 529.709C555.771 531.462 553.784 533.375 551.789 535.411L551.56 535.647L551.044 536.178C548.952 538.342 546.775 540.709 544.57 543.226L543.865 544.036C541.994 546.193 540.126 548.429 538.324 550.669L537.797 551.324C536.569 552.855 535.385 554.375 534.182 555.956L533.455 556.913C532.998 557.52 532.754 557.858 532.729 557.869C532.579 558.075 532.384 558.244 532.158 558.361C531.932 558.478 531.682 558.542 531.428 558.546Z" fill="#CE44A2"/>
<path d="M564.433 445.046C569.331 445.046 576.129 457.665 577.571 461.272C579.014 464.879 583.385 473.636 583.385 473.636C583.385 473.636 610.976 521.614 601.631 531.352C600.33 532.708 599.157 533.283 598.063 533.283C592.145 533.283 588.351 516.621 577.353 516.617C575.548 516.648 573.767 517.037 572.114 517.763L571.409 518.068L570.864 518.319L570.697 518.399C570.475 518.505 570.25 518.614 570.025 518.73C569.055 519.225 568.07 519.785 567.075 520.399C566.92 520.494 566.763 520.592 566.606 520.694C566.515 520.748 566.428 520.806 566.341 520.865C566.141 520.992 565.937 521.123 565.737 521.257C564.582 522.025 563.416 522.865 562.249 523.759C561.966 523.974 561.679 524.196 561.396 524.425C559.942 525.577 558.464 526.821 557.036 528.116L556.603 528.505C554.565 530.345 552.559 532.286 550.626 534.261C550.372 534.523 550.118 534.781 549.867 535.043C547.56 537.425 545.365 539.836 543.327 542.141L542.622 542.952C540.526 545.366 538.626 547.646 537.034 549.639L536.511 550.29C534.978 552.203 533.739 553.814 532.878 554.963C532.594 555.326 532.351 555.657 532.151 555.93C531.679 556.559 531.424 556.908 531.424 556.908V548.788C531.424 540.668 534.694 529.636 536.874 525.272C539.054 520.908 543.414 510.363 545.896 505.497C548.377 500.632 549.591 483.09 550.318 478.726C551.044 474.363 553.588 455.454 555.041 450.726C556.131 447.199 558.017 445.901 560.945 445.377C562.057 445.195 563.18 445.086 564.306 445.05H564.429M564.429 441.777H564.161C562.887 441.812 561.617 441.933 560.36 442.141C555.953 442.926 553.268 445.345 551.916 449.748C550.826 453.246 549.409 462.617 547.92 472.734C547.556 475.185 547.269 477.116 547.095 478.188C546.888 479.432 546.662 481.494 546.368 484.105C545.729 489.999 544.533 500.966 542.978 504.006C541.608 506.69 539.741 510.916 537.932 515.025C536.384 518.534 534.923 521.846 533.935 523.81C531.566 528.537 528.122 540.174 528.122 548.788V556.908C528.122 557.601 528.341 558.276 528.749 558.836C529.156 559.395 529.731 559.811 530.39 560.024C531.048 560.236 531.758 560.233 532.415 560.017C533.072 559.8 533.644 559.38 534.048 558.817C534.048 558.817 534.287 558.483 534.727 557.897C534.93 557.625 535.167 557.312 535.454 556.952C536.653 555.37 537.826 553.865 539.051 552.337L539.458 551.832L539.574 551.686C541.358 549.468 543.207 547.25 545.078 545.097C545.184 544.981 545.296 544.85 545.409 544.734L545.772 544.319C547.952 541.814 550.132 539.465 552.185 537.334C552.349 537.163 552.512 536.992 552.679 536.825L552.926 536.566C554.888 534.566 556.85 532.676 558.74 530.959L558.769 530.934C558.889 530.821 559.012 530.712 559.132 530.603L559.157 530.581C560.611 529.283 562.028 528.086 563.376 527.021L563.412 526.996C563.637 526.814 563.881 526.632 564.182 526.396C565.32 525.526 566.435 524.726 567.492 524.025L568.026 523.661L568.085 523.625L568.219 523.534C568.254 523.515 568.288 523.495 568.321 523.472L568.684 523.236H568.71C569.654 522.654 570.57 522.145 571.431 521.697C571.642 521.588 571.849 521.49 572.019 521.406L572.081 521.377L572.168 521.334L572.666 521.105L573.306 520.828C574.558 520.276 575.906 519.975 577.273 519.941C581.92 519.941 585.125 524.446 588.224 528.799C591.08 532.799 593.776 536.606 597.969 536.606C600.033 536.606 602.027 535.617 603.895 533.668C606.87 530.57 607.499 525.305 605.824 517.581C604.654 512.181 602.329 505.457 598.921 497.581C593.373 484.792 586.862 473.326 586.179 472.126C585.732 471.232 581.819 463.377 580.518 460.094C578.977 456.548 577.094 453.161 574.897 449.981C571.046 444.406 567.692 441.81 564.342 441.81L564.429 441.777Z" fill="#17091D"/>
<path d="M558.031 480.642C558.86 488.726 551.934 510.399 547.404 517.926C543.531 524.362 534.731 546.035 532.144 555.93C531.671 556.559 531.417 556.908 531.417 556.908V548.788C531.417 540.668 534.687 529.635 536.867 525.271C539.047 520.908 543.407 510.362 545.889 505.497C548.37 500.631 549.584 483.09 550.31 478.726C551.037 474.362 553.58 455.453 555.034 450.726C556.124 447.199 558.009 445.901 560.938 445.377C559.604 455.999 557.443 474.861 558.031 480.642Z" fill="#D969BD"/>
</svg>
