<svg width="1000" height="1000" viewBox="0 0 1000 1000" fill="none" xmlns="http://www.w3.org/2000/svg">
<path d="M590.833 524L575.25 506.425L561.04 504L545.377 520.102L537.423 524L531.973 528.364C527.646 528.575 526.756 522.204 519.257 523.273C498.129 526.28 499.473 530.335 485.103 524C470.733 517.665 449.497 515.273 449.497 515.273L425.153 531.273L434.6 569.455C434.6 569.455 451.513 555.495 464.393 558.909C477.273 562.324 499.56 567.498 505.813 567.636C516.539 567.873 547.015 559.709 556.317 558.545C565.037 557.455 580.449 567.975 587.2 571.636C593.951 575.298 591.262 562.382 592.287 552.727C594.103 535.636 590.833 524 590.833 524Z" fill="#9C398C"/>
<path d="M455.492 506.727C455.492 506.727 497.384 531.88 547.106 500.393L569.578 512.545C569.578 512.545 546.688 542.363 500.908 540.182C455.128 538 442.048 517.636 442.048 517.636L455.492 506.727Z" fill="#CE44A2"/>
<path d="M546.481 499.029C546.906 498.834 547.402 498.847 547.82 499.073L570.292 511.225C570.678 511.434 570.954 511.803 571.046 512.232C571.137 512.662 571.036 513.11 570.768 513.459L569.579 512.545L570.767 513.46L570.765 513.462C570.764 513.463 570.763 513.466 570.761 513.469C570.757 513.474 570.752 513.481 570.745 513.489C570.731 513.507 570.711 513.532 570.686 513.563C570.637 513.626 570.564 513.716 570.47 513.831C570.28 514.062 570.001 514.395 569.631 514.814C568.891 515.653 567.791 516.839 566.329 518.25C563.406 521.071 559.033 524.797 553.209 528.452C541.552 535.767 524.085 542.787 500.838 541.68C477.725 540.578 462.766 534.88 453.543 529.379C448.935 526.63 445.772 523.939 443.747 521.912C442.735 520.899 442.008 520.053 441.527 519.45C441.287 519.149 441.108 518.908 440.986 518.737C440.925 518.652 440.879 518.585 440.846 518.536C440.829 518.512 440.816 518.491 440.806 518.476C440.802 518.469 440.797 518.463 440.794 518.458C440.792 518.455 440.791 518.453 440.79 518.451L440.788 518.449C440.787 518.448 440.787 518.446 442.049 517.636L440.787 518.447C440.374 517.804 440.51 516.953 441.103 516.472L454.547 505.562L454.64 505.492C455.121 505.16 455.755 505.137 456.263 505.44C456.263 505.441 456.265 505.441 456.266 505.442C456.27 505.444 456.276 505.448 456.284 505.453C456.301 505.463 456.327 505.478 456.363 505.499C456.436 505.541 456.55 505.606 456.701 505.689C457.004 505.857 457.461 506.103 458.064 506.407C459.271 507.015 461.061 507.855 463.368 508.77C467.983 510.601 474.658 512.725 482.863 513.882C499.253 516.192 521.787 514.65 546.304 499.125L546.481 499.029ZM547.161 502.127C522.243 517.651 499.263 519.223 482.444 516.852C473.961 515.657 467.055 513.461 462.262 511.559C459.864 510.608 457.992 509.73 456.714 509.086C456.294 508.874 455.939 508.686 455.649 508.53L444.122 517.885C444.533 518.38 445.107 519.03 445.869 519.792C447.727 521.652 450.696 524.187 455.08 526.803C463.841 532.028 478.313 537.603 500.98 538.683C523.512 539.757 540.381 532.96 551.614 525.911C557.235 522.384 561.446 518.792 564.245 516.091C565.553 514.828 566.551 513.759 567.24 512.985L547.161 502.127Z" fill="#17091D"/>
<path d="M423.7 552.544C423.311 552.544 422.934 552.405 422.638 552.152C422.341 551.898 422.145 551.548 422.084 551.163C421.942 550.243 419.726 539.843 417.36 532.679C416.849 530.969 416.182 529.31 415.366 527.723C392.298 487.319 352.676 457.49 352.276 457.177C351.95 456.931 351.726 456.572 351.648 456.17C349.769 446.228 355.902 435.559 369.386 425.315C372.292 423.108 385.874 414.257 389.075 413.315C393.642 411.977 397.359 411.326 400.436 411.326C406.097 411.326 408.695 413.599 410.78 415.428C411.071 415.679 411.358 415.93 411.649 416.155C414.621 418.617 413.353 423.679 412.895 425.17C412.255 427.272 409.48 428.443 405.265 430.192C399.869 432.45 393.151 435.283 391.52 440.253C390.644 442.937 391.306 446.05 393.54 449.766C393.638 449.933 393.733 450.086 393.831 450.239C405.734 469.112 456.092 506.781 456.6 507.159C456.878 507.367 457.083 507.658 457.185 507.99C457.287 508.322 457.281 508.678 457.167 509.006C450.95 527.177 425.88 551.086 424.827 552.097C424.522 552.384 424.119 552.544 423.7 552.544Z" fill="#CE44A2"/>
<path d="M400.447 412.985C406.235 412.985 408.248 415.49 410.62 417.454C412.553 419.054 411.935 422.81 411.347 424.726C409.923 429.395 380.805 431.774 392.17 450.646C392.268 450.814 392.374 450.985 392.483 451.155C404.68 470.497 455.652 508.508 455.652 508.508C449.453 526.472 423.7 550.908 423.7 550.908C423.529 549.817 421.277 539.323 418.93 532.17C418.38 530.355 417.667 528.593 416.797 526.908C393.282 485.723 353.268 455.883 353.268 455.883C351.088 444.246 361.094 433.701 370.388 426.635C373.531 424.246 386.775 415.726 389.547 414.908C394.27 413.526 397.765 412.985 400.447 412.985ZM400.447 409.712C397.21 409.712 393.344 410.385 388.624 411.766C385.045 412.814 370.984 422.068 368.408 424.028C354.398 434.675 348.061 445.901 350.052 456.49C350.204 457.297 350.653 458.017 351.31 458.508C351.408 458.581 361.356 466.039 374.011 478.374C385.637 489.715 402.016 507.621 413.956 528.534C414.319 529.159 414.926 530.472 415.819 533.192C418.127 540.217 420.321 550.505 420.466 551.417C420.559 552.006 420.811 552.559 421.195 553.015C421.579 553.471 422.079 553.813 422.643 554.005C423.207 554.197 423.813 554.232 424.395 554.104C424.977 553.977 425.513 553.693 425.946 553.283C427.036 552.265 452.353 528.083 458.74 509.577C458.967 508.92 458.979 508.208 458.775 507.544C458.57 506.88 458.16 506.298 457.603 505.883C457.098 505.519 406.98 468.017 395.244 449.41L394.986 448.992C394.986 448.992 394.986 448.966 394.968 448.955C393.017 445.719 392.388 442.974 393.1 440.799C394.499 436.519 401.094 433.755 405.922 431.737C410.38 429.872 413.603 428.523 414.471 425.683C415.002 423.948 416.452 418.046 412.702 414.93C412.433 414.708 412.157 414.468 411.87 414.203C409.69 412.301 406.722 409.697 400.447 409.697V409.712Z" fill="#17091D"/>
<path d="M580.468 550.439C579.976 550.438 579.505 550.243 579.156 549.897C579.079 549.823 579.01 549.742 578.949 549.654L545.758 501.319C545.595 501.081 545.498 500.804 545.476 500.516C545.454 500.228 545.509 499.939 545.635 499.679L545.668 499.61C551.034 489.53 562.018 467.167 561.752 462.381C561.705 461.563 561.705 460.683 561.709 459.756C561.709 457.85 561.709 455.694 561.265 453.836C560.437 450.367 561.102 446.825 563.042 444.359C563.738 443.438 564.638 442.69 565.671 442.174C566.704 441.658 567.843 441.388 568.997 441.385C569.193 441.385 569.39 441.385 569.589 441.407C572.354 441.614 576.551 443.377 580.853 450.603C583.948 455.814 584.73 461.897 585.213 465.53C585.256 465.872 585.3 466.196 585.34 466.501C585.602 468.447 586.067 471.203 586.633 474.392C588.203 483.457 590.579 497.163 590.83 508.857C590.906 512.334 589.863 519.799 588.04 528.836C586.95 534.185 585.78 539.199 584.715 542.948C582.858 549.399 581.943 550.439 580.468 550.439Z" fill="#CE44A2"/>
<path d="M568.997 443.022C569.15 443.022 569.306 443.022 569.466 443.022C572.431 443.243 576.006 445.625 579.436 451.422C582.637 456.811 583.218 463.182 583.694 466.694C584.726 474.331 588.835 493.24 589.17 508.876C589.25 512.512 588.011 520.571 586.412 528.512C584.345 538.763 581.689 548.803 580.468 548.803C580.436 548.803 580.404 548.795 580.375 548.782C580.345 548.769 580.319 548.75 580.297 548.727L547.107 500.392C547.47 499.723 563.758 468.847 563.38 462.298C563.239 459.818 563.566 456.436 562.853 453.465C561.556 448.054 564.507 443.032 568.994 443.032M568.994 439.76C567.592 439.76 566.208 440.085 564.953 440.71C563.697 441.334 562.603 442.241 561.756 443.36C559.507 446.214 558.726 450.269 559.674 454.229C560.074 455.898 560.07 457.865 560.07 459.763C560.07 460.716 560.07 461.618 560.114 462.483C560.147 463.032 559.932 466.545 552.564 482.152C548.44 490.88 544.262 498.778 544.207 498.854C544.197 498.869 544.189 498.885 544.182 498.902C543.944 499.367 543.82 499.881 543.818 500.403C543.818 501.065 544.018 501.712 544.392 502.258L577.583 550.592C577.706 550.768 577.845 550.933 577.997 551.083C578.652 551.726 579.532 552.087 580.45 552.087C583.077 552.087 584.159 549.454 584.621 548.331C585.249 546.719 585.791 545.076 586.245 543.407C587.335 539.618 588.512 534.56 589.598 529.171C590.292 525.745 592.538 514.149 592.421 508.832C592.167 497.014 589.78 483.24 588.2 474.123C587.651 470.949 587.175 468.207 586.917 466.291C586.877 465.992 586.833 465.672 586.79 465.331C586.307 461.571 585.496 455.28 582.23 449.778C577.579 441.949 572.845 440.022 569.691 439.785C569.459 439.785 569.215 439.76 568.965 439.76H568.994Z" fill="#17091D"/>
<path d="M455.652 508.508C449.453 526.472 423.7 550.908 423.7 550.908C423.529 549.818 421.277 539.323 418.93 532.17C425.491 524.108 433.775 513.839 433.354 510.181C432.293 500.908 396.632 472.545 381.314 457.261C372.939 448.898 370.701 436.327 370.388 426.636C373.531 424.247 386.775 415.727 389.547 414.908C404.443 410.545 407.154 414.581 410.62 417.454C412.553 419.054 411.935 422.81 411.347 424.727C409.922 429.396 380.805 431.774 392.17 450.647C392.268 450.814 392.373 450.985 392.482 451.156C404.68 470.498 455.652 508.508 455.652 508.508Z" fill="#D969BD"/>
<path d="M586.412 528.511C584.232 539.275 581.405 549.806 580.297 548.726L547.106 500.391C547.47 499.722 563.758 468.846 563.38 462.297C563.238 459.817 563.565 456.435 562.853 453.464C561.513 447.867 564.714 442.686 569.462 443.049C570.324 444.821 570.797 446.756 570.85 448.726C571.032 463.635 564.347 497.631 568.143 505.358C569.59 508.297 578.389 518.831 586.412 528.511Z" fill="#D969BD"/>
</svg>
