<svg width="1000" height="1000" viewBox="0 0 1000 1000" fill="none" xmlns="http://www.w3.org/2000/svg">
<path d="M582.113 524.727C582.113 524.727 567.067 554.749 550.14 561.091C533.212 567.433 505.355 575.974 479.29 561.091C453.224 546.207 455.382 547.716 440.776 552C426.17 556.283 416.553 546.909 388.456 524.363C370.755 510.149 368.971 487.803 363.575 477.934C372.168 477.371 376.292 478.698 376.292 478.698L384.361 490.963L492.428 514.236L524.659 504.458L582.113 524.727Z" fill="#CE44A2"/>
<path d="M515.641 559.272C503.143 559.272 493.234 552.93 481.757 545.592C476.092 541.956 469.672 537.861 462.257 534.083C437.913 521.668 416.139 503.243 399.32 480.803C391.959 470.985 387.842 461.141 387.087 451.563C386.411 442.992 388.54 436.236 390.171 431.897C390.836 430.165 391.655 428.495 392.617 426.908C398.953 416.345 410.307 410.545 416.019 408.799C416.694 408.574 417.4 408.452 418.112 408.436C419.278 408.436 422.025 408.876 422.403 412.945C422.577 415.061 422.081 417.178 420.985 418.997C419.89 420.815 418.25 422.242 416.299 423.076C415.717 423.334 415.136 423.592 414.616 423.828C413.047 424.556 411.826 428.01 412.662 432.992C413.483 437.886 427.773 449.505 435.45 455.748L436.903 456.923C440.693 460.01 454.289 467.683 472.652 475.079C487.356 480.996 508.509 488.072 525.771 488.148H526.134C555.415 488.148 564.542 472.068 568.931 464.337C569.171 463.912 569.4 463.508 569.618 463.134C569.836 462.759 569.956 462.512 570.083 462.228C572.812 456.243 571.129 446.556 569.887 441.312V441.254C569.455 439.348 569.967 437.352 571.34 435.632C572.228 434.538 573.346 433.652 574.615 433.04C575.883 432.427 577.271 432.101 578.68 432.086C581.648 432.086 584.271 433.581 586.077 436.297V436.326C586.306 436.69 586.502 437.003 586.673 437.33C586.691 437.355 586.707 437.382 586.72 437.41C590.23 444.065 591.981 452.006 592.831 457.497V457.61C592.86 457.792 592.89 457.974 592.915 458.148C592.94 458.323 592.973 458.541 593.002 458.745C593.18 460.043 593.344 461.352 593.507 462.774C594.092 467.886 594.343 481.745 593.017 495.254C592.29 502.501 591.258 508.377 589.899 512.708C588.083 518.454 585.761 521.49 582.749 521.988C579.116 522.585 571.685 528.366 563.801 534.49C551.128 544.337 535.348 556.588 522.018 558.737C519.91 559.085 517.778 559.263 515.641 559.272Z" fill="#CE44A2"/>
<path d="M418.111 410.068C419.928 410.068 420.618 411.407 420.774 413.094C420.911 414.867 420.49 416.639 419.569 418.16C418.648 419.681 417.274 420.875 415.641 421.574C415.048 421.836 414.46 422.098 413.936 422.338C411.622 423.403 410.074 427.454 411.03 433.247C411.985 439.039 427.133 451.065 435.842 458.174C444.551 465.283 493.612 489.621 525.734 489.767H526.097C557.907 489.767 566.667 471.41 570.995 463.948C571.206 463.612 571.4 463.265 571.576 462.908C574.319 456.89 573.069 447.661 571.478 440.948C570.649 437.381 574.533 433.756 578.665 433.756C580.823 433.756 583.025 434.741 584.7 437.236C584.698 437.243 584.698 437.25 584.7 437.258C584.897 437.555 585.078 437.862 585.245 438.178C585.25 438.188 585.256 438.197 585.263 438.207C588.395 444.145 590.226 451.472 591.203 457.781C591.236 457.992 591.269 458.199 591.298 458.407C591.327 458.614 591.359 458.825 591.388 459.028C591.581 460.428 591.752 461.759 591.886 462.992C593.122 473.77 592.471 518.763 582.487 520.414C572.502 522.065 543.418 553.636 521.767 557.127C519.741 557.458 517.693 557.627 515.641 557.632C497.583 557.632 485.39 544.032 462.997 532.621C438.171 519.967 416.978 501.636 400.628 479.818C384.278 457.999 388.187 441.716 391.7 432.476C392.33 430.834 393.104 429.252 394.015 427.748C399.799 418.108 410.303 412.261 416.498 410.356C417.019 410.185 417.563 410.092 418.111 410.079M418.111 406.807C417.236 406.819 416.368 406.961 415.535 407.228C409.606 409.047 397.808 415.072 391.21 426.065C390.202 427.737 389.343 429.496 388.645 431.319C386.941 435.807 384.754 442.799 385.455 451.683C386.236 461.574 390.462 471.701 398.012 481.778C406.358 492.927 415.918 503.112 426.515 512.145C437.231 521.28 448.977 529.13 461.515 535.534C468.858 539.276 475.245 543.359 480.877 546.963C492.569 554.443 502.677 560.901 515.641 560.901C517.867 560.895 520.089 560.713 522.286 560.356C536.024 558.141 551.981 545.745 564.796 535.781C572.172 530.054 579.794 524.145 583.006 523.603C586.691 522.996 589.448 519.603 591.45 513.199C592.842 508.752 593.914 502.767 594.637 495.407C595.974 481.781 595.727 467.77 595.124 462.578C594.96 461.145 594.793 459.825 594.619 458.541V458.505C594.589 458.305 594.56 458.098 594.528 457.887C594.495 457.676 594.477 457.523 594.448 457.348V457.239C593.579 451.625 591.785 443.494 588.169 436.639L588.108 436.523C587.911 436.159 587.697 435.796 587.446 435.432L587.428 435.407C585.31 432.221 582.2 430.465 578.672 430.465C577.017 430.483 575.387 430.866 573.896 431.586C572.406 432.306 571.093 433.346 570.05 434.632C568.371 436.745 567.746 439.221 568.284 441.614C568.284 441.643 568.284 441.676 568.284 441.705C570.348 450.407 570.464 457.454 568.589 461.548V461.578C568.484 461.81 568.357 462.061 568.197 462.341C567.983 462.705 567.75 463.116 567.507 463.545C562.947 471.578 554.463 486.527 526.134 486.527H525.77C512.505 486.465 493.855 481.865 473.254 473.574C455.247 466.327 441.532 458.603 437.927 455.668L436.474 454.494C432.049 450.894 426.537 446.41 422.002 442.13C415.219 435.741 414.372 433.316 414.271 432.727C413.457 427.883 414.838 425.548 415.299 425.319C415.822 425.079 416.429 424.807 416.959 424.592C419.223 423.62 421.124 421.96 422.393 419.847C423.661 417.734 424.233 415.274 424.026 412.818C423.616 408.396 420.702 406.821 418.108 406.821L418.111 406.807Z" fill="#17091D"/>
<path d="M591.385 458.991C586.661 469.828 574.711 479.199 566.38 486.322C556.643 494.646 520.527 501.271 497.71 498.624C474.893 495.977 440.216 477.635 409.057 450.319C399.61 442.053 395.363 434.395 394.004 427.737C399.788 418.097 410.292 412.249 416.487 410.344C419.524 409.406 420.567 410.977 420.763 413.093C420.9 414.866 420.479 416.638 419.558 418.159C418.637 419.68 417.263 420.874 415.629 421.573C415.037 421.835 414.449 422.097 413.925 422.337C411.611 423.402 410.063 427.453 411.019 433.246C411.974 439.039 427.122 451.064 435.831 458.173C444.54 465.282 493.601 489.62 525.723 489.766C557.845 489.911 566.642 471.439 570.987 463.948C571.201 463.611 571.397 463.264 571.576 462.908C574.37 456.879 573.491 447.551 571.478 440.948C570.217 435.519 579.867 429.959 584.699 437.235C584.698 437.242 584.698 437.249 584.699 437.257C584.885 437.559 585.063 437.864 585.244 438.177C585.25 438.187 585.256 438.197 585.263 438.206C588.587 444.024 590.251 451.46 591.203 457.78C591.236 457.991 591.268 458.199 591.298 458.406C591.327 458.613 591.356 458.788 591.385 458.991Z" fill="#D969BD"/>
<path d="M427.813 542.362C420.782 542.362 403.615 532.693 390.215 518.824C381.727 510.035 371.718 496.391 372.23 481.3C373.004 458.457 381.059 448.457 385.793 444.53C386.458 443.961 387.302 443.645 388.177 443.639C388.726 443.647 389.267 443.774 389.764 444.009C390.261 444.244 390.702 444.583 391.058 445.002C391.5 445.52 391.826 446.127 392.014 446.782C392.202 447.437 392.248 448.125 392.148 448.799V448.937C391.552 453.09 394.851 461.468 399.545 465.351C401.954 467.344 412.425 477.326 422.86 489.086C436.107 504.013 443.592 515.231 445.111 522.428C446.601 529.497 446.135 534.275 443.658 537.468C440.493 541.54 434.767 542.09 428.158 542.355L427.813 542.362Z" fill="#7E4282"/>
<path d="M388.177 445.277C389.532 445.277 390.767 446.731 390.516 448.582C390.516 448.626 390.516 448.673 390.516 448.72C389.83 453.488 393.379 462.386 398.51 466.615C403.64 470.844 440.05 506.491 443.479 522.768C446.909 539.044 438.96 540.284 428.06 540.728H427.813C416.509 540.728 372.84 511.535 373.865 481.357C374.631 458.735 382.737 449.193 386.836 445.789C387.209 445.466 387.683 445.284 388.177 445.277ZM388.177 442.004C386.92 442.009 385.707 442.458 384.75 443.273C379.805 447.378 371.394 457.768 370.58 481.248C370.05 496.917 380.318 510.949 389.027 519.968C395.422 526.551 402.609 532.314 410.423 537.124C414.642 539.691 422.512 544.004 427.798 544.004H428.161C434.927 543.731 441.296 543.106 444.875 538.484C447.676 534.884 448.236 529.677 446.64 522.102C445.104 514.611 437.506 503.142 424.063 488C414.253 476.953 403.556 466.564 400.57 464.091C396.33 460.586 393.22 452.837 393.746 449.182L393.768 449.018C393.903 448.115 393.843 447.194 393.592 446.316C393.341 445.438 392.906 444.623 392.315 443.928C391.806 443.332 391.176 442.852 390.466 442.521C389.757 442.189 388.985 442.013 388.202 442.004H388.177Z" fill="#17091D"/>
<path d="M604.32 465.286C603.306 463.417 601.822 461.845 600.015 460.726C598.207 459.608 596.139 458.981 594.016 458.908C591.287 458.824 589.009 459.657 589.797 463.595C591.545 472.322 586.36 493.642 576.26 506.373C566.929 518.137 550.645 538.795 587.817 540.399C598.292 540.85 608.12 519.733 610.166 505.217C612.211 490.701 609.803 474.795 606.787 469.661C605.904 468.17 605.065 466.668 604.32 465.286Z" fill="#7E4282"/>
<path d="M594.061 457.409L594.067 457.41C596.452 457.492 598.774 458.196 600.804 459.452C602.706 460.63 604.29 462.255 605.419 464.183L605.638 464.572L605.64 464.575C606.193 465.601 606.797 466.692 607.432 467.794L608.077 468.897L608.08 468.902C609.757 471.758 611.138 477.287 611.865 483.754C612.6 490.291 612.694 498.026 611.651 505.428C610.602 512.874 607.571 521.964 603.455 529.166C601.396 532.768 599.026 535.969 596.433 538.259C593.849 540.541 590.906 542.034 587.753 541.898C578.373 541.494 572.088 539.885 568.19 537.312C566.215 536.009 564.835 534.445 564.005 532.664C563.177 530.887 562.94 528.985 563.105 527.067C563.432 523.287 565.338 519.304 567.63 515.634C569.939 511.935 572.759 508.374 575.084 505.442H575.085C579.979 499.274 583.727 490.955 586.032 483.063C588.28 475.368 589.078 468.345 588.397 464.275L588.326 463.891C587.878 461.655 588.216 459.791 589.616 458.602C590.72 457.663 592.197 457.421 593.511 457.404L594.061 457.409ZM593.964 460.407C592.673 460.368 591.92 460.581 591.558 460.888C591.335 461.078 590.928 461.6 591.268 463.302C592.215 468.027 591.271 475.824 588.911 483.904C586.535 492.037 582.641 500.744 577.434 507.307C575.094 510.257 572.38 513.69 570.174 517.223C567.95 520.784 566.358 524.271 566.094 527.326C565.964 528.826 566.159 530.184 566.724 531.397C567.288 532.607 568.263 533.766 569.843 534.809C573.055 536.928 578.676 538.504 587.882 538.901L588.274 538.905C590.243 538.864 592.321 537.888 594.447 536.01C596.708 534.013 598.887 531.113 600.85 527.678C604.778 520.806 607.684 512.079 608.68 505.009C609.683 497.895 609.595 490.417 608.884 484.089C608.164 477.69 606.831 472.7 605.493 470.421V470.42C604.599 468.91 603.75 467.393 602.999 465.999V465.998C602.11 464.36 600.809 462.983 599.225 462.003C597.64 461.022 595.826 460.472 593.964 460.408V460.407Z" fill="#17091D"/>
</svg>
