<svg width="36" height="36" viewBox="0 0 36 36" fill="none" xmlns="http://www.w3.org/2000/svg">
<path d="M31.5009 12.3739V23.6239C31.5009 24.2207 31.2638 24.793 30.8419 25.2149C30.4199 25.6369 29.8476 25.8739 29.2509 25.8739H18.0009V31.4989C18.0011 31.7216 17.9352 31.9392 17.8116 32.1244C17.688 32.3096 17.5122 32.4539 17.3065 32.5391C17.1008 32.6244 16.8745 32.6466 16.6562 32.6032C16.4378 32.5597 16.2373 32.4524 16.0799 32.2949L2.57995 18.7949C2.47535 18.6904 2.39237 18.5663 2.33576 18.4297C2.27914 18.2932 2.25 18.1468 2.25 17.9989C2.25 17.8511 2.27914 17.7047 2.33576 17.5681C2.39237 17.4316 2.47535 17.3075 2.57995 17.203L16.0799 3.703C16.2373 3.54548 16.4378 3.43819 16.6562 3.39471C16.8745 3.35123 17.1008 3.37351 17.3065 3.45873C17.5122 3.54395 17.688 3.68828 17.8116 3.87345C17.9352 4.05862 18.0011 4.2763 18.0009 4.49893V10.1239H29.2509C29.8476 10.1239 30.4199 10.361 30.8419 10.7829C31.2638 11.2049 31.5009 11.7772 31.5009 12.3739Z" fill="white"/>
</svg>
