<svg width="60" height="60" viewBox="0 0 60 60" fill="none" xmlns="http://www.w3.org/2000/svg">
<g filter="url(#filter0_ii_2166_5272)">
<rect width="60" height="60" rx="30" fill="#FA1D6E"/>
<path d="M39.5747 22.5896C38.9386 21.7432 37.9927 21.1835 36.9445 21.0332C35.8964 20.883 34.8314 21.1546 33.9831 21.7883L32.3268 23.0947C32.1179 23.2409 31.8611 23.3018 31.6089 23.2649C31.3566 23.2281 31.128 23.0963 30.9696 22.8965C30.8113 22.6967 30.7353 22.4439 30.7571 22.1899C30.7789 21.9359 30.8969 21.6999 31.0869 21.5299L32.7533 20.2148C32.7591 20.2099 32.7653 20.2053 32.7717 20.201C34.0448 19.2605 35.638 18.8612 37.2042 19.0901C38.7704 19.3189 40.1827 20.1574 41.1335 21.4228C42.0844 22.6882 42.4966 24.2781 42.2806 25.8461C42.0645 27.4141 41.2376 28.8333 39.9799 29.7943C39.9741 29.7993 39.9679 29.8039 39.9615 29.8082L38.2346 31.0427C38.0185 31.178 37.759 31.2256 37.5089 31.1758C37.2589 31.1261 37.0373 30.9827 36.8894 30.775C36.7416 30.5673 36.6786 30.311 36.7134 30.0585C36.7483 29.806 36.8782 29.5762 37.0767 29.4163L38.7925 28.189C39.6383 27.5499 40.1957 26.6011 40.3424 25.5512C40.4891 24.5013 40.213 23.4361 39.5747 22.5896ZM26.8587 37.0851L25.2024 38.3915C24.3533 39.0104 23.2947 39.2702 22.2555 39.1149C21.2163 38.9597 20.2799 38.4017 19.6487 37.5617C19.0175 36.7216 18.7422 35.667 18.8823 34.6256C19.0224 33.5843 19.5666 32.6398 20.3973 31.9964L22.1131 30.7692C22.3116 30.6092 22.4415 30.3795 22.4763 30.127C22.5112 29.8744 22.4482 29.6181 22.3003 29.4104C22.1525 29.2028 21.9309 29.0594 21.6809 29.0096C21.4308 28.9599 21.1712 29.0075 20.9552 29.1428L19.2233 30.3766C19.2169 30.3809 19.2108 30.3855 19.2049 30.3904C17.9473 31.3515 17.1204 32.7706 16.9043 34.3386C16.6882 35.9067 17.1005 37.4965 18.0513 38.762C19.0021 40.0274 20.4144 40.8658 21.9807 41.0947C23.5469 41.3235 25.14 40.9242 26.4132 39.9837C26.4196 39.9795 26.4257 39.9749 26.4315 39.9699L28.0979 38.6548C28.2096 38.5767 28.3041 38.4765 28.3757 38.3604C28.4473 38.2444 28.4943 38.115 28.514 37.9801C28.5337 37.8452 28.5257 37.7077 28.4903 37.576C28.4549 37.4444 28.393 37.3213 28.3083 37.2145C28.2237 37.1076 28.118 37.0192 27.998 36.9547C27.8779 36.8902 27.7459 36.8508 27.61 36.8392C27.4742 36.8275 27.3374 36.8438 27.2081 36.8869C27.0788 36.93 26.9597 36.9992 26.858 37.09L26.8587 37.0851ZM40.0619 34.6061L37.0917 34.1845C36.8291 34.1472 36.5625 34.2158 36.3505 34.3751C36.1384 34.5344 35.9984 34.7714 35.9611 35.034C35.9238 35.2966 35.9924 35.5632 36.1517 35.7753C36.311 35.9873 36.548 36.1274 36.8106 36.1646L39.7809 36.5863C40.0434 36.6236 40.3101 36.555 40.5221 36.3957C40.7341 36.2364 40.8742 35.9993 40.9115 35.7368C40.9488 35.4742 40.8802 35.2075 40.7209 34.9955C40.5616 34.7835 40.3245 34.6434 40.0619 34.6061ZM19.1236 25.5737L22.0938 25.9953C22.3564 26.0326 22.623 25.964 22.8351 25.8047C23.0471 25.6454 23.1872 25.4084 23.2244 25.1458C23.2617 24.8832 23.1932 24.6166 23.0338 24.4045C22.8745 24.1925 22.6375 24.0524 22.3749 24.0152L19.4047 23.5935C19.1421 23.5563 18.8755 23.6248 18.6634 23.7841C18.4514 23.9434 18.3113 24.1805 18.2741 24.4431C18.2368 24.7056 18.3054 24.9723 18.4647 25.1843C18.624 25.3963 18.861 25.5364 19.1236 25.5737ZM32.5692 37.5826C32.3067 37.5453 32.04 37.6139 31.828 37.7732C31.616 37.9325 31.4759 38.1696 31.4386 38.4321L31.017 41.4024C30.9797 41.6649 31.0483 41.9316 31.2076 42.1436C31.3669 42.3556 31.6039 42.4957 31.8665 42.533C32.1291 42.5703 32.3957 42.5017 32.6078 42.3424C32.8198 42.1831 32.9599 41.946 32.9971 41.6835L33.4188 38.7132C33.456 38.4506 33.3875 38.184 33.2282 37.972C33.0689 37.7599 32.8318 37.6199 32.5692 37.5826ZM26.6163 22.5972C26.8789 22.6345 27.1455 22.5659 27.3576 22.4066C27.5696 22.2473 27.7096 22.0103 27.7469 21.7477L28.1686 18.7775C28.2058 18.5149 28.1373 18.2482 27.978 18.0362C27.8186 17.8242 27.5816 17.6841 27.319 17.6468C27.0564 17.6096 26.7898 17.6781 26.5778 17.8374C26.3657 17.9968 26.2257 18.2338 26.1884 18.4964L25.7668 21.4666C25.7295 21.7292 25.7981 21.9958 25.9574 22.2078C26.1167 22.4199 26.3537 22.5599 26.6163 22.5972Z" fill="white"/>
</g>
<defs>
<filter id="filter0_ii_2166_5272" x="-14.6147" y="-9.7431" width="74.6147" height="72.1149" filterUnits="userSpaceOnUse" color-interpolation-filters="sRGB">
<feFlood flood-opacity="0" result="BackgroundImageFix"/>
<feBlend mode="normal" in="SourceGraphic" in2="BackgroundImageFix" result="shape"/>
<feColorMatrix in="SourceAlpha" type="matrix" values="0 0 0 0 0 0 0 0 0 0 0 0 0 0 0 0 0 0 127 0" result="hardAlpha"/>
<feOffset dx="-4.61" dy="2.37179"/>
<feGaussianBlur stdDeviation="7.30733"/>
<feComposite in2="hardAlpha" operator="arithmetic" k2="-1" k3="1"/>
<feColorMatrix type="matrix" values="0 0 0 0 0.980392 0 0 0 0 0.113725 0 0 0 0 0.431373 0 0 0 1 0"/>
<feBlend mode="normal" in2="shape" result="effect1_innerShadow_2166_5272"/>
<feColorMatrix in="SourceAlpha" type="matrix" values="0 0 0 0 0 0 0 0 0 0 0 0 0 0 0 0 0 0 127 0" result="hardAlpha"/>
<feOffset dx="-14.6147" dy="-9.7431"/>
<feGaussianBlur stdDeviation="9.7431"/>
<feComposite in2="hardAlpha" operator="arithmetic" k2="-1" k3="1"/>
<feColorMatrix type="matrix" values="0 0 0 0 0.980392 0 0 0 0 0.113725 0 0 0 0 0.431373 0 0 0 0.8 0"/>
<feBlend mode="normal" in2="effect1_innerShadow_2166_5272" result="effect2_innerShadow_2166_5272"/>
</filter>
</defs>
</svg>
