<svg width="34" height="34" viewBox="0 0 34 34" fill="none" xmlns="http://www.w3.org/2000/svg">
<path d="M29.1337 27.865C29.2498 27.9812 29.3419 28.119 29.4048 28.2708C29.4676 28.4225 29.5 28.5851 29.5 28.7494C29.5 28.9136 29.4676 29.0762 29.4048 29.228C29.3419 29.3797 29.2498 29.5176 29.1337 29.6337C29.0176 29.7498 28.8797 29.8419 28.728 29.9048C28.5762 29.9676 28.4136 30 28.2494 30C28.0851 30 27.9225 29.9676 27.7708 29.9048C27.619 29.8419 27.4812 29.7498 27.365 29.6337L17 19.2671L6.63495 29.6337C6.40041 29.8682 6.08231 30 5.75063 30C5.41894 30 5.10084 29.8682 4.8663 29.6337C4.63176 29.3992 4.5 29.0811 4.5 28.7494C4.5 28.4177 4.63176 28.0996 4.8663 27.865L15.2329 17.5L4.8663 7.13495C4.63176 6.90041 4.5 6.58231 4.5 6.25063C4.5 5.91894 4.63176 5.60084 4.8663 5.3663C5.10084 5.13176 5.41894 5 5.75063 5C6.08231 5 6.40041 5.13176 6.63495 5.3663L17 15.7329L27.365 5.3663C27.5996 5.13176 27.9177 5 28.2494 5C28.5811 5 28.8992 5.13176 29.1337 5.3663C29.3682 5.60084 29.5 5.91894 29.5 6.25063C29.5 6.58231 29.3682 6.90041 29.1337 7.13495L18.7671 17.5L29.1337 27.865Z" fill="white"/>
</svg>
