<svg width="32" height="32" viewBox="0 0 32 32" fill="none" xmlns="http://www.w3.org/2000/svg">
<path d="M30.0007 11.0291C29.9505 12.7699 29.2347 14.4252 28.0007 15.6541L23.657 20.0003C23.0243 20.6364 22.2718 21.1407 21.4429 21.484C20.6141 21.8273 19.7253 22.0028 18.8282 22.0003H18.822C17.9095 21.9997 17.0064 21.8162 16.1661 21.4606C15.3257 21.1051 14.5652 20.5848 13.9293 19.9304C13.2934 19.276 12.7951 18.5008 12.4639 17.6506C12.1327 16.8004 11.9752 15.8924 12.0007 14.9803C12.0082 14.7151 12.1207 14.4637 12.3135 14.2814C12.5063 14.0992 12.7636 14.001 13.0288 14.0084C13.2941 14.0159 13.5454 14.1284 13.7277 14.3212C13.91 14.514 14.0082 14.7713 14.0007 15.0366C13.9825 15.6815 14.0937 16.3235 14.3279 16.9247C14.562 17.5259 14.9143 18.074 15.3638 18.5368C15.8134 18.9995 16.3512 19.3674 16.9453 19.6188C17.5395 19.8702 18.178 19.9999 18.8232 20.0003C19.4574 20.0019 20.0857 19.8778 20.6716 19.6352C21.2576 19.3925 21.7896 19.0361 22.237 18.5866L26.5807 14.2428C27.4769 13.3353 27.9777 12.1101 27.9737 10.8347C27.9697 9.55927 27.4613 8.33723 26.5594 7.43536C25.6575 6.5335 24.4355 6.02507 23.1601 6.02108C21.8847 6.01709 20.6595 6.51786 19.752 7.41406L18.377 8.78906C18.1879 8.96868 17.9362 9.06734 17.6754 9.064C17.4146 9.06066 17.1655 8.95559 16.9811 8.77119C16.7967 8.58679 16.6916 8.33765 16.6883 8.07688C16.6849 7.81612 16.7836 7.56437 16.9632 7.37531L18.3382 6.00031C18.9726 5.36572 19.7258 4.86233 20.5547 4.51888C21.3837 4.17543 22.2722 3.99866 23.1695 3.99866C24.0668 3.99866 24.9553 4.17543 25.7842 4.51888C26.6132 4.86233 27.3663 5.36572 28.0007 6.00031C28.6578 6.65901 29.1739 7.44452 29.5178 8.30905C29.8616 9.17357 30.0259 10.099 30.0007 11.0291ZM13.6257 23.2078L12.2507 24.5828C11.8022 25.0343 11.2685 25.3921 10.6805 25.6354C10.0925 25.8788 9.46205 26.0028 8.82571 26.0003C7.87109 25.9995 6.93811 25.7158 6.14467 25.185C5.35122 24.6542 4.73291 23.9002 4.36786 23.0181C4.0028 22.136 3.90739 21.1656 4.09368 20.2293C4.27996 19.293 4.73958 18.433 5.41446 17.7578L9.75071 13.4141C10.4337 12.7275 11.3073 12.2621 12.2582 12.0784C13.2091 11.8947 14.1932 12.0012 15.0828 12.384C15.9723 12.7668 16.7262 13.4082 17.2466 14.2249C17.767 15.0417 18.0297 15.9961 18.0007 16.9641C17.9933 17.2293 18.0915 17.4866 18.2737 17.6794C18.456 17.8722 18.7074 17.9847 18.9726 17.9922C19.2378 17.9996 19.4951 17.9014 19.6879 17.7192C19.8807 17.5369 19.9933 17.2855 20.0007 17.0203C20.0247 16.0917 19.8598 15.1679 19.516 14.305C19.1722 13.4421 18.6567 12.658 18.0007 12.0003C16.7197 10.7198 14.9826 10.0005 13.1713 10.0005C11.3601 10.0005 9.62299 10.7198 8.34196 12.0003L4.00071 16.3441C3.046 17.2984 2.39561 18.5143 2.13173 19.8382C1.86784 21.162 2.00232 22.5344 2.51815 23.7818C3.03399 25.0293 3.90803 26.0958 5.02983 26.8467C6.15162 27.5975 7.47082 27.999 8.82071 28.0003C9.71805 28.0029 10.607 27.8275 11.4361 27.4842C12.2651 27.1409 13.0179 26.6365 13.6507 26.0003L15.0257 24.6253C15.1875 24.4347 15.2721 24.1904 15.2627 23.9405C15.2533 23.6906 15.1506 23.4533 14.9749 23.2754C14.7992 23.0975 14.5632 22.9919 14.3134 22.9794C14.0637 22.9669 13.8183 23.0484 13.6257 23.2078Z" fill="white"/>
</svg>
