<svg width="44" height="44" viewBox="0 0 44 44" fill="none" xmlns="http://www.w3.org/2000/svg">
<path d="M22 39.875C25.5353 39.875 28.9913 38.8267 31.9308 36.8625C34.8703 34.8984 37.1614 32.1067 38.5143 28.8405C39.8673 25.5742 40.2212 21.9802 39.5315 18.5128C38.8418 15.0454 37.1394 11.8603 34.6395 9.36047C32.1397 6.86061 28.9546 5.15818 25.4872 4.46847C22.0198 3.77876 18.4258 4.13274 15.1595 5.48565C11.8933 6.83857 9.10161 9.12966 7.13748 12.0692C5.17335 15.0087 4.12499 18.4647 4.12499 22C4.13 26.7392 6.01486 31.2829 9.36599 34.634C12.7171 37.9851 17.2608 39.87 22 39.875ZM22 6.875C24.9914 6.875 27.9157 7.76207 30.403 9.42403C32.8903 11.086 34.8289 13.4482 35.9737 16.2119C37.1184 18.9756 37.418 22.0168 36.8344 24.9507C36.2508 27.8847 34.8103 30.5797 32.695 32.695C30.5797 34.8103 27.8847 36.2508 24.9507 36.8344C22.0168 37.418 18.9756 37.1185 16.2119 35.9737C13.4482 34.8289 11.086 32.8903 9.42402 30.403C7.76206 27.9157 6.87499 24.9914 6.87499 22C6.87954 17.99 8.47453 14.1455 11.31 11.31C14.1455 8.47453 17.99 6.87955 22 6.875ZM18.2772 27.9022L24.1811 22L18.2772 16.0978C18.1494 15.9701 18.0481 15.8184 17.979 15.6515C17.9098 15.4846 17.8742 15.3057 17.8742 15.125C17.8742 14.9443 17.9098 14.7654 17.979 14.5985C18.0481 14.4316 18.1494 14.2799 18.2772 14.1522C18.4049 14.0244 18.5566 13.9231 18.7235 13.854C18.8904 13.7848 19.0693 13.7492 19.25 13.7492C19.4307 13.7492 19.6096 13.7848 19.7765 13.854C19.9434 13.9231 20.0951 14.0244 20.2228 14.1522L27.0978 21.0272C27.2256 21.1549 27.3271 21.3065 27.3963 21.4735C27.4655 21.6404 27.5011 21.8193 27.5011 22C27.5011 22.1807 27.4655 22.3596 27.3963 22.5265C27.3271 22.6935 27.2256 22.8451 27.0978 22.9728L20.2228 29.8478C20.0951 29.9756 19.9434 30.0769 19.7765 30.146C19.6096 30.2152 19.4307 30.2508 19.25 30.2508C19.0693 30.2508 18.8904 30.2152 18.7235 30.146C18.5566 30.0769 18.4049 29.9756 18.2772 29.8478C18.1494 29.7201 18.0481 29.5684 17.979 29.4015C17.9098 29.2346 17.8742 29.0557 17.8742 28.875C17.8742 28.6943 17.9098 28.5154 17.979 28.3485C18.0481 28.1816 18.1494 28.0299 18.2772 27.9022Z" fill="white"/>
</svg>
