<svg width="20" height="20" viewBox="0 0 20 20" fill="none" xmlns="http://www.w3.org/2000/svg">
<path d="M3.30795 12.0575L9.55795 5.80747C9.616 5.74936 9.68493 5.70326 9.7608 5.6718C9.83668 5.64035 9.91801 5.62416 10.0001 5.62416C10.0823 5.62416 10.1636 5.64035 10.2395 5.6718C10.3154 5.70326 10.3843 5.74936 10.4423 5.80747L16.6923 12.0575C16.8096 12.1747 16.8755 12.3338 16.8755 12.4997C16.8755 12.6655 16.8096 12.8246 16.6923 12.9418C16.5751 13.0591 16.416 13.125 16.2501 13.125C16.0843 13.125 15.9252 13.0591 15.808 12.9418L10.0001 7.13325L4.19233 12.9418C4.13426 12.9999 4.06532 13.046 3.98945 13.0774C3.91358 13.1088 3.83226 13.125 3.75014 13.125C3.66802 13.125 3.5867 13.1088 3.51083 13.0774C3.43496 13.046 3.36602 12.9999 3.30795 12.9418C3.24988 12.8838 3.20382 12.8148 3.17239 12.739C3.14097 12.6631 3.12479 12.5818 3.12479 12.4997C3.12479 12.4175 3.14097 12.3362 3.17239 12.2603C3.20382 12.1845 3.24988 12.1155 3.30795 12.0575Z" fill="white"/>
</svg>
