<svg width="31" height="31" viewBox="0 0 31 31" fill="none" xmlns="http://www.w3.org/2000/svg">
<path d="M28.8705 10.7869L13.6354 26.022C13.2794 26.3778 12.7967 26.5776 12.2934 26.5776C11.7901 26.5776 11.3074 26.3778 10.9514 26.022L2.45345 17.4789C2.09805 17.123 1.89844 16.6406 1.89844 16.1376C1.89844 15.6346 2.09805 15.1521 2.45345 14.7962L4.82652 12.4231C5.18232 12.0688 5.664 11.8699 6.16612 11.8699C6.66825 11.8699 7.14992 12.0688 7.50572 12.4231L12.3409 17.1123L23.8218 5.77258C24.1776 5.41791 24.6595 5.21875 25.162 5.21875C25.6644 5.21875 26.1463 5.41791 26.5022 5.77258L28.8693 8.09107C29.0473 8.26748 29.1886 8.47739 29.2851 8.70869C29.3816 8.93999 29.4313 9.18811 29.4314 9.43873C29.4316 9.68935 29.382 9.93751 29.2858 10.1689C29.1895 10.4003 29.0483 10.6103 28.8705 10.7869Z" fill="white"/>
</svg>
