<svg width="28" height="28" viewBox="0 0 28 28" fill="none" xmlns="http://www.w3.org/2000/svg">
<path d="M25.1727 7.71289L20.2847 2.82602C19.8745 2.41592 19.3182 2.18555 18.7381 2.18555C18.1581 2.18555 17.6018 2.41592 17.1916 2.82602L3.70345 16.313C3.49962 16.5156 3.33802 16.7566 3.228 17.0221C3.11798 17.2876 3.06173 17.5722 3.06251 17.8596V22.7476C3.06251 23.3277 3.29298 23.8841 3.70321 24.2944C4.11345 24.7046 4.66985 24.9351 5.25001 24.9351H23.625C23.9731 24.9351 24.3069 24.7968 24.5531 24.5507C24.7992 24.3045 24.9375 23.9707 24.9375 23.6226C24.9375 23.2745 24.7992 22.9406 24.5531 22.6945C24.3069 22.4484 23.9731 22.3101 23.625 22.3101H13.6719L25.1727 10.8071C25.3759 10.604 25.5371 10.3628 25.6471 10.0973C25.7571 9.83187 25.8137 9.54734 25.8137 9.26C25.8137 8.97266 25.7571 8.68813 25.6471 8.42268C25.5371 8.15722 25.3759 7.91603 25.1727 7.71289ZM9.95313 22.3101H5.68751V18.0445L14.875 8.85695L19.1406 13.1226L9.95313 22.3101ZM21 11.2632L16.7344 6.99758L18.7403 4.99164L23.0059 9.25727L21 11.2632Z" fill="#FF00CA"/>
</svg>
