<svg width="23" height="23" viewBox="0 0 23 23" fill="none" xmlns="http://www.w3.org/2000/svg">
<path d="M11.375 0C9.12524 0 6.926 0.667132 5.05539 1.91703C3.18478 3.16693 1.72682 4.94347 0.865875 7.02198C0.00492861 9.10048 -0.220334 11.3876 0.218573 13.5942C0.657479 15.8007 1.74084 17.8275 3.33167 19.4183C4.92249 21.0092 6.94932 22.0925 9.15585 22.5314C11.3624 22.9703 13.6495 22.7451 15.728 21.8841C17.8065 21.0232 19.5831 19.5652 20.833 17.6946C22.0829 15.824 22.75 13.6248 22.75 11.375C22.7468 8.35914 21.5474 5.46771 19.4148 3.33518C17.2823 1.20264 14.3909 0.0031848 11.375 0ZM10.9375 5.25C11.1971 5.25 11.4509 5.32698 11.6667 5.4712C11.8825 5.61542 12.0508 5.8204 12.1501 6.06023C12.2494 6.30006 12.2754 6.56396 12.2248 6.81856C12.1741 7.07316 12.0491 7.30702 11.8656 7.49058C11.682 7.67413 11.4482 7.79914 11.1936 7.84978C10.939 7.90042 10.6751 7.87443 10.4352 7.77509C10.1954 7.67575 9.99042 7.50752 9.8462 7.29169C9.70198 7.07585 9.625 6.82209 9.625 6.5625C9.625 6.2144 9.76329 5.88056 10.0094 5.63442C10.2556 5.38828 10.5894 5.25 10.9375 5.25ZM12.25 17.5C11.7859 17.5 11.3408 17.3156 11.0126 16.9874C10.6844 16.6592 10.5 16.2141 10.5 15.75V11.375C10.2679 11.375 10.0454 11.2828 9.88129 11.1187C9.71719 10.9546 9.625 10.7321 9.625 10.5C9.625 10.2679 9.71719 10.0454 9.88129 9.88128C10.0454 9.71719 10.2679 9.625 10.5 9.625C10.9641 9.625 11.4093 9.80937 11.7374 10.1376C12.0656 10.4658 12.25 10.9109 12.25 11.375V15.75C12.4821 15.75 12.7046 15.8422 12.8687 16.0063C13.0328 16.1704 13.125 16.3929 13.125 16.625C13.125 16.8571 13.0328 17.0796 12.8687 17.2437C12.7046 17.4078 12.4821 17.5 12.25 17.5Z" fill="#FF00CA"/>
</svg>
