<svg width="806" height="573" viewBox="0 0 806 573" fill="none" xmlns="http://www.w3.org/2000/svg">
<path d="M1.0279 50.5273L110.528 1.02734L238.028 3.52734L173.528 71.0273L94.5279 128.527L129.528 203.027H233.528L317.528 82.5273L428.528 50.5273L551.528 1.02734L655.028 15.5273L711.028 82.5273L655.028 154.527L544.528 175.027L418.028 198.527L322.528 242.027L350.528 330.527L467.028 346.527L589.028 282.527L697.028 221.527L801.028 251.027L804.528 346.527L730.028 476.027L641.528 380.027L499.528 408.027L405.028 476.027L233.528 425.027L222.028 324.027L111.028 278.527L1.0279 317.527L5.5279 433.027L131.528 472.027L172.528 571.027L294.528 533.027L402.028 561.527L491.528 518.527" stroke="#22528C" stroke-opacity="0.7" stroke-width="2"/>
</svg>
