<svg width="219" height="219" viewBox="0 0 219 219" fill="none" xmlns="http://www.w3.org/2000/svg">
<g filter="url(#filter0_d_2216_7756)">
<g clip-path="url(#clip0_2216_7756)">
<rect x="43.5" y="43.5" width="132" height="132" rx="66" fill="url(#paint0_linear_2216_7756)"/>
<rect x="43.5" y="43.5" width="132" height="132" rx="66" fill="url(#paint1_radial_2216_7756)"/>
<path d="M128.594 93.9688V126.031C128.594 126.976 128.218 127.882 127.55 128.55C126.882 129.218 125.976 129.594 125.031 129.594H92.9688C92.0239 129.594 91.1178 129.218 90.4497 128.55C89.7816 127.882 89.4062 126.976 89.4062 126.031V93.9688C89.4062 93.0239 89.7816 92.1178 90.4497 91.4497C91.1178 90.7816 92.0239 90.4062 92.9688 90.4062H125.031C125.976 90.4062 126.882 90.7816 127.55 91.4497C128.218 92.1178 128.594 93.0239 128.594 93.9688Z" fill="white"/>
</g>
<rect x="45.1" y="45.1" width="128.8" height="128.8" rx="64.4" stroke="white" stroke-opacity="0.24" stroke-width="3.2"/>
</g>
<defs>
<filter id="filter0_d_2216_7756" x="0" y="0" width="219" height="219" filterUnits="userSpaceOnUse" color-interpolation-filters="sRGB">
<feFlood flood-opacity="0" result="BackgroundImageFix"/>
<feColorMatrix in="SourceAlpha" type="matrix" values="0 0 0 0 0 0 0 0 0 0 0 0 0 0 0 0 0 0 127 0" result="hardAlpha"/>
<feMorphology radius="1" operator="dilate" in="SourceAlpha" result="effect1_dropShadow_2216_7756"/>
<feOffset/>
<feGaussianBlur stdDeviation="21.25"/>
<feComposite in2="hardAlpha" operator="out"/>
<feColorMatrix type="matrix" values="0 0 0 0 0.894118 0 0 0 0 0.317647 0 0 0 0 0.996078 0 0 0 1 0"/>
<feBlend mode="normal" in2="BackgroundImageFix" result="effect1_dropShadow_2216_7756"/>
<feBlend mode="normal" in="SourceGraphic" in2="effect1_dropShadow_2216_7756" result="shape"/>
</filter>
<linearGradient id="paint0_linear_2216_7756" x1="-1.5" y1="193" x2="285.395" y2="222.709" gradientUnits="userSpaceOnUse">
<stop stop-color="#F529F9"/>
<stop offset="0.626542" stop-color="#3D07FF"/>
<stop offset="1" stop-color="#FF21C8"/>
</linearGradient>
<radialGradient id="paint1_radial_2216_7756" cx="0" cy="0" r="1" gradientTransform="matrix(94.2857 96.1714 -37.6563 4117.88 70.0036 43.0169)" gradientUnits="userSpaceOnUse">
<stop stop-color="#FF12EF" stop-opacity="0.7"/>
<stop offset="1" stop-color="white" stop-opacity="0"/>
</radialGradient>
<clipPath id="clip0_2216_7756">
<rect x="43.5" y="43.5" width="132" height="132" rx="66" fill="white"/>
</clipPath>
</defs>
</svg>
