<svg width="36" height="36" viewBox="0 0 36 36" fill="none" xmlns="http://www.w3.org/2000/svg">
<path d="M4.50009 23.6261L4.50009 12.3761C4.50009 11.7793 4.73715 11.207 5.15911 10.7851C5.58106 10.3631 6.15336 10.1261 6.75009 10.1261L18.0001 10.1261L18.0001 4.50107C17.9999 4.27844 18.0658 4.06076 18.1894 3.87559C18.313 3.69042 18.4888 3.54609 18.6945 3.46087C18.9001 3.37565 19.1265 3.35337 19.3448 3.39685C19.5632 3.44033 19.7637 3.54762 19.921 3.70513L33.421 17.2051C33.5256 17.3096 33.6086 17.4337 33.6652 17.5703C33.7218 17.7068 33.751 17.8532 33.751 18.0011C33.751 18.1489 33.7218 18.2953 33.6652 18.4319C33.6086 18.5685 33.5256 18.6925 33.421 18.797L19.921 32.297C19.7637 32.4545 19.5632 32.5618 19.3448 32.6053C19.1265 32.6488 18.9001 32.6265 18.6945 32.5413C18.4888 32.456 18.313 32.3117 18.1894 32.1265C18.0658 31.9414 17.9999 31.7237 18.0001 31.5011L18.0001 25.8761L6.75009 25.8761C6.15336 25.8761 5.58106 25.639 5.1591 25.2171C4.73715 24.7951 4.50009 24.2228 4.50009 23.6261Z" fill="#FF00CA"/>
</svg>
