<svg width="60" height="60" viewBox="0 0 60 60" fill="none" xmlns="http://www.w3.org/2000/svg">
<g filter="url(#filter0_ii_2166_3717)">
<rect width="60" height="60" rx="30" fill="#FF20C8"/>
<path d="M44.0007 25.0291C43.9505 26.7699 43.2347 28.4252 42.0007 29.6541L37.657 34.0003C37.0243 34.6364 36.2718 35.1407 35.4429 35.484C34.6141 35.8273 33.7253 36.0028 32.8282 36.0003H32.822C31.9095 35.9997 31.0064 35.8162 30.1661 35.4606C29.3257 35.1051 28.5652 34.5848 27.9293 33.9304C27.2934 33.276 26.7951 32.5008 26.4639 31.6506C26.1327 30.8004 25.9752 29.8924 26.0007 28.9803C26.0082 28.7151 26.1207 28.4637 26.3135 28.2814C26.5063 28.0992 26.7636 28.001 27.0288 28.0084C27.2941 28.0159 27.5454 28.1284 27.7277 28.3212C27.91 28.514 28.0082 28.7713 28.0007 29.0366C27.9825 29.6815 28.0937 30.3235 28.3279 30.9247C28.562 31.5259 28.9143 32.074 29.3638 32.5368C29.8134 32.9995 30.3512 33.3674 30.9453 33.6188C31.5395 33.8702 32.178 33.9999 32.8232 34.0003C33.4574 34.0019 34.0857 33.8778 34.6716 33.6352C35.2576 33.3925 35.7896 33.0361 36.237 32.5866L40.5807 28.2428C41.4769 27.3353 41.9777 26.1101 41.9737 24.8347C41.9697 23.5593 41.4613 22.3372 40.5594 21.4354C39.6575 20.5335 38.4355 20.0251 37.1601 20.0211C35.8847 20.0171 34.6595 20.5179 33.752 21.4141L32.377 22.7891C32.1879 22.9687 31.9362 23.0673 31.6754 23.064C31.4146 23.0607 31.1655 22.9556 30.9811 22.7712C30.7967 22.5868 30.6916 22.3376 30.6883 22.0769C30.6849 21.8161 30.7836 21.5644 30.9632 21.3753L32.3382 20.0003C32.9726 19.3657 33.7258 18.8623 34.5547 18.5189C35.3837 18.1754 36.2722 17.9987 37.1695 17.9987C38.0668 17.9987 38.9553 18.1754 39.7842 18.5189C40.6132 18.8623 41.3663 19.3657 42.0007 20.0003C42.6578 20.659 43.1739 21.4445 43.5178 22.309C43.8616 23.1736 44.0259 24.099 44.0007 25.0291ZM27.6257 37.2078L26.2507 38.5828C25.8022 39.0343 25.2685 39.3921 24.6805 39.6354C24.0925 39.8788 23.4621 40.0028 22.8257 40.0003C21.8711 39.9995 20.9381 39.7158 20.1447 39.185C19.3512 38.6542 18.7329 37.9002 18.3679 37.0181C18.0028 36.136 17.9074 35.1656 18.0937 34.2293C18.28 33.293 18.7396 32.433 19.4145 31.7578L23.7507 27.4141C24.4337 26.7275 25.3073 26.2621 26.2582 26.0784C27.2091 25.8947 28.1932 26.0012 29.0828 26.384C29.9723 26.7668 30.7262 27.4082 31.2466 28.2249C31.767 29.0417 32.0297 29.9961 32.0007 30.9641C31.9933 31.2293 32.0915 31.4866 32.2737 31.6794C32.456 31.8722 32.7074 31.9847 32.9726 31.9922C33.2378 31.9996 33.4951 31.9014 33.6879 31.7192C33.8807 31.5369 33.9933 31.2855 34.0007 31.0203C34.0247 30.0917 33.8598 29.1679 33.516 28.305C33.1722 27.4421 32.6567 26.658 32.0007 26.0003C30.7197 24.7198 28.9826 24.0005 27.1713 24.0005C25.3601 24.0005 23.623 24.7198 22.342 26.0003L18.0007 30.3441C17.046 31.2984 16.3956 32.5143 16.1317 33.8382C15.8678 35.162 16.0023 36.5344 16.5182 37.7818C17.034 39.0293 17.908 40.0958 19.0298 40.8467C20.1516 41.5975 21.4708 41.999 22.8207 42.0003C23.7181 42.0029 24.607 41.8275 25.4361 41.4842C26.2651 41.1409 27.0179 40.6365 27.6507 40.0003L29.0257 38.6253C29.1875 38.4347 29.2721 38.1904 29.2627 37.9405C29.2533 37.6906 29.1506 37.4533 28.9749 37.2754C28.7992 37.0975 28.5632 36.9919 28.3134 36.9794C28.0637 36.9669 27.8183 37.0484 27.6257 37.2078Z" fill="white"/>
</g>
<defs>
<filter id="filter0_ii_2166_3717" x="-14.6147" y="-9.7431" width="74.6147" height="72.1149" filterUnits="userSpaceOnUse" color-interpolation-filters="sRGB">
<feFlood flood-opacity="0" result="BackgroundImageFix"/>
<feBlend mode="normal" in="SourceGraphic" in2="BackgroundImageFix" result="shape"/>
<feColorMatrix in="SourceAlpha" type="matrix" values="0 0 0 0 0 0 0 0 0 0 0 0 0 0 0 0 0 0 127 0" result="hardAlpha"/>
<feOffset dx="-4.61" dy="2.37179"/>
<feGaussianBlur stdDeviation="7.30733"/>
<feComposite in2="hardAlpha" operator="arithmetic" k2="-1" k3="1"/>
<feColorMatrix type="matrix" values="0 0 0 0 0.0404166 0 0 0 0 0.0208333 0 0 0 0 1 0 0 0 1 0"/>
<feBlend mode="normal" in2="shape" result="effect1_innerShadow_2166_3717"/>
<feColorMatrix in="SourceAlpha" type="matrix" values="0 0 0 0 0 0 0 0 0 0 0 0 0 0 0 0 0 0 127 0" result="hardAlpha"/>
<feOffset dx="-14.6147" dy="-9.7431"/>
<feGaussianBlur stdDeviation="9.7431"/>
<feComposite in2="hardAlpha" operator="arithmetic" k2="-1" k3="1"/>
<feColorMatrix type="matrix" values="0 0 0 0 0.804167 0 0 0 0 0.0208333 0 0 0 0 1 0 0 0 0.8 0"/>
<feBlend mode="normal" in2="effect1_innerShadow_2166_3717" result="effect2_innerShadow_2166_3717"/>
</filter>
</defs>
</svg>
