<svg width="36" height="36" viewBox="0 0 36 36" fill="none" xmlns="http://www.w3.org/2000/svg">
<path d="M4.49912 23.6261L4.49912 12.3761C4.49912 11.7793 4.73617 11.207 5.15813 10.7851C5.58009 10.3631 6.15238 10.1261 6.74912 10.1261L17.9991 10.1261L17.9991 4.50107C17.9989 4.27844 18.0648 4.06076 18.1884 3.87559C18.312 3.69042 18.4878 3.54609 18.6935 3.46087C18.8992 3.37565 19.1255 3.35337 19.3438 3.39685C19.5622 3.44033 19.7627 3.54762 19.9201 3.70513L33.4201 17.2051C33.5247 17.3096 33.6076 17.4337 33.6642 17.5703C33.7209 17.7068 33.75 17.8532 33.75 18.0011C33.75 18.1489 33.7209 18.2953 33.6642 18.4319C33.6076 18.5685 33.5247 18.6925 33.4201 18.797L19.9201 32.297C19.7627 32.4545 19.5622 32.5618 19.3438 32.6053C19.1255 32.6488 18.8992 32.6265 18.6935 32.5413C18.4878 32.456 18.312 32.3117 18.1884 32.1265C18.0648 31.9414 17.9989 31.7237 17.9991 31.5011L17.9991 25.8761L6.74912 25.8761C6.15238 25.8761 5.58008 25.639 5.15813 25.2171C4.73617 24.7951 4.49912 24.2228 4.49912 23.6261Z" fill="#FF00CA"/>
</svg>
