<svg width="44" height="44" viewBox="0 0 44 44" fill="none" xmlns="http://www.w3.org/2000/svg">
<path d="M21.9099 13.6944C20.2849 13.6944 18.6964 14.1763 17.3452 15.0791C15.994 15.9819 14.9409 17.2651 14.3191 18.7664C13.6972 20.2677 13.5345 21.9197 13.8515 23.5135C14.1686 25.1073 14.9511 26.5713 16.1001 27.7204C17.2492 28.8695 18.7132 29.652 20.307 29.969C21.9008 30.286 23.5528 30.1233 25.0541 29.5015C26.5554 28.8796 27.8386 27.8265 28.7415 26.4753C29.6443 25.1242 30.1262 23.5357 30.1262 21.9106C30.1239 19.7322 29.2575 17.6437 27.7172 16.1034C26.1768 14.563 24.0883 13.6966 21.9099 13.6944ZM21.9099 27.3881C20.8266 27.3881 19.7675 27.0669 18.8668 26.465C17.966 25.8631 17.2639 25.0077 16.8494 24.0068C16.4348 23.0059 16.3263 21.9046 16.5376 20.842C16.749 19.7795 17.2707 18.8035 18.0367 18.0375C18.8028 17.2714 19.7788 16.7497 20.8413 16.5384C21.9038 16.327 23.0052 16.4355 24.006 16.8501C25.0069 17.2647 25.8624 17.9667 26.4643 18.8675C27.0662 19.7683 27.3874 20.8273 27.3874 21.9106C27.3874 23.3634 26.8103 24.7566 25.7831 25.7838C24.7558 26.811 23.3626 27.3881 21.9099 27.3881ZM36.973 22.2804C36.9799 22.0339 36.9799 21.7874 36.973 21.5409L39.5269 18.3503C39.6608 18.1827 39.7535 17.9861 39.7975 17.7762C39.8415 17.5663 39.8356 17.349 39.7802 17.1418C39.3616 15.568 38.7353 14.057 37.9179 12.6485C37.8109 12.4642 37.6623 12.3074 37.484 12.1906C37.3057 12.0738 37.1026 12.0003 36.8909 11.9758L32.8307 11.5239C32.6618 11.3459 32.4906 11.1747 32.3172 11.0104L31.8379 6.93994C31.8132 6.72805 31.7394 6.52485 31.6223 6.34654C31.5052 6.16823 31.3481 6.01974 31.1635 5.91291C29.7544 5.09701 28.2435 4.47136 26.6702 4.05227C26.4629 3.99715 26.2455 3.99151 26.0356 4.03581C25.8257 4.08011 25.6291 4.17311 25.4617 4.30732L22.2796 6.84751C22.0331 6.84751 21.7867 6.84751 21.5402 6.84751L18.3495 4.29876C18.182 4.16485 17.9854 4.07216 17.7755 4.02816C17.5656 3.98415 17.3483 3.99007 17.1411 4.04542C15.5676 4.46484 14.0566 5.09109 12.6478 5.90777C12.4635 6.0148 12.3067 6.16338 12.1899 6.34168C12.0731 6.51998 11.9996 6.72307 11.9751 6.93481L11.5232 11.0018C11.3452 11.1719 11.174 11.3431 11.0097 11.5154L6.93921 11.9827C6.72732 12.0073 6.52412 12.0811 6.34581 12.1982C6.1675 12.3153 6.01901 12.4724 5.91218 12.6571C5.09628 14.0661 4.47063 15.577 4.05154 17.1503C3.99642 17.3577 3.99078 17.5751 4.03508 17.785C4.07938 17.9949 4.17238 18.1914 4.30659 18.3588L6.84678 21.5409C6.84678 21.7874 6.84678 22.0339 6.84678 22.2804L4.29803 25.471C4.16412 25.6385 4.07143 25.8352 4.02742 26.0451C3.98342 26.255 3.98934 26.4723 4.04469 26.6795C4.46336 28.2532 5.08964 29.7643 5.90704 31.1727C6.01407 31.3571 6.16265 31.5139 6.34094 31.6306C6.51924 31.7474 6.72234 31.821 6.93407 31.8454L10.9943 32.2973C11.1643 32.4754 11.3355 32.6465 11.5078 32.8109L11.9819 36.8813C12.0066 37.0932 12.0804 37.2964 12.1975 37.4747C12.3146 37.653 12.4717 37.8015 12.6564 37.9084C14.0654 38.7243 15.5763 39.3499 17.1496 39.769C17.3569 39.8241 17.5743 39.8298 17.7842 39.7855C17.9941 39.7412 18.1907 39.6482 18.3581 39.514L21.5402 36.9738C21.7867 36.9806 22.0331 36.9806 22.2796 36.9738L25.4703 39.5276C25.6378 39.6616 25.8344 39.7542 26.0443 39.7982C26.2542 39.8422 26.4715 39.8363 26.6787 39.781C28.2525 39.3623 29.7635 38.736 31.172 37.9186C31.3563 37.8116 31.5131 37.663 31.6299 37.4847C31.7467 37.3064 31.8202 37.1033 31.8447 36.8916L32.2966 32.8314C32.4746 32.6625 32.6458 32.4913 32.8101 32.3179L36.8806 31.8386C37.0925 31.814 37.2957 31.7401 37.474 31.623C37.6523 31.506 37.8008 31.3488 37.9076 31.1642C38.7235 29.7552 39.3492 28.2443 39.7683 26.6709C39.8234 26.4636 39.829 26.2462 39.7847 26.0363C39.7404 25.8264 39.6474 25.6298 39.5132 25.4625L36.973 22.2804ZM34.2172 21.1677C34.2463 21.6626 34.2463 22.1587 34.2172 22.6535C34.1968 22.9923 34.3029 23.3266 34.515 23.5915L36.9439 26.6264C36.6652 27.5122 36.3083 28.3714 35.8775 29.194L32.009 29.6322C31.6721 29.6696 31.3611 29.8306 31.1361 30.0841C30.8066 30.4547 30.4556 30.8056 30.0851 31.1351C29.8316 31.3601 29.6706 31.6712 29.6332 32.0081L29.2035 35.8731C28.381 36.3041 27.5218 36.661 26.636 36.9395L23.5994 34.5106C23.3564 34.3164 23.0545 34.2108 22.7435 34.211H22.6613C22.1665 34.2401 21.6704 34.2401 21.1756 34.211C20.8368 34.1907 20.5025 34.2968 20.2376 34.5089L17.1941 36.9395C16.3084 36.6608 15.4491 36.3039 14.6265 35.8731L14.1883 32.0098C14.1509 31.6729 13.9899 31.3618 13.7364 31.1368C13.3659 30.8073 13.0149 30.4564 12.6854 30.0858C12.4604 29.8323 12.1494 29.6713 11.8125 29.6339L7.94741 29.2026C7.51639 28.3801 7.15951 27.5208 6.88101 26.635L9.30994 23.5984C9.52203 23.3334 9.62817 22.9991 9.60778 22.6604C9.57868 22.1655 9.57868 21.6694 9.60778 21.1746C9.62817 20.8358 9.52203 20.5015 9.30994 20.2366L6.88101 17.1948C7.15972 16.3091 7.51659 15.4499 7.94741 14.6273L11.8108 14.1891C12.1477 14.1517 12.4587 13.9907 12.6837 13.7372C13.0132 13.3666 13.3642 13.0157 13.7347 12.6862C13.9892 12.461 14.1509 12.1492 14.1883 11.8115L14.618 7.94814C15.4405 7.51712 16.2997 7.16024 17.1856 6.88174L20.2221 9.31067C20.4871 9.52276 20.8214 9.6289 21.1602 9.60851C21.655 9.57941 22.1511 9.57941 22.6459 9.60851C22.9847 9.6289 23.319 9.52276 23.584 9.31067L26.6257 6.88174C27.5114 7.16045 28.3707 7.51732 29.1933 7.94814L29.6315 11.8115C29.6689 12.1484 29.8299 12.4594 30.0834 12.6845C30.4539 13.014 30.8049 13.3649 31.1344 13.7355C31.3594 13.9889 31.6704 14.15 32.0073 14.1874L35.8724 14.617C36.3034 15.4395 36.6603 16.2987 36.9388 17.1846L34.5099 20.2212C34.2957 20.4884 34.1895 20.8261 34.212 21.1677H34.2172Z" fill="#EE34F5"/>
</svg>
