<svg width="44" height="44" viewBox="0 0 44 44" fill="none" xmlns="http://www.w3.org/2000/svg">
<path d="M37.829 10.5341V17.7844C37.829 18.1049 37.7017 18.4123 37.4751 18.6389C37.2485 18.8655 36.9411 18.9928 36.6207 18.9928H29.3703C29.1312 18.993 28.8974 18.9222 28.6985 18.7895C28.4996 18.6567 28.3446 18.4679 28.253 18.247C28.1615 18.026 28.1376 17.7829 28.1843 17.5484C28.231 17.3139 28.3462 17.0985 28.5154 16.9295L31.0832 14.3617L29.4897 12.904L29.4519 12.8678C27.7723 11.1889 25.6353 10.0421 23.3078 9.57061C20.9802 9.09918 18.5654 9.32401 16.3649 10.217C14.1644 11.1101 12.2758 12.6317 10.9351 14.5918C9.59432 16.5519 8.86087 18.8636 8.82632 21.2382C8.79177 23.6127 9.45766 25.9448 10.7408 27.9431C12.024 29.9414 13.8675 31.5174 16.0411 32.474C18.2146 33.4307 20.6219 33.7257 22.9622 33.3222C25.3025 32.9186 27.472 31.8345 29.1996 30.2051C29.315 30.096 29.4507 30.0107 29.599 29.9541C29.7473 29.8974 29.9053 29.8705 30.0641 29.8749C30.2228 29.8794 30.379 29.915 30.524 29.9798C30.6689 30.0446 30.7997 30.1374 30.9088 30.2527C31.0179 30.3681 31.1032 30.5038 31.1598 30.6521C31.2165 30.8004 31.2434 30.9584 31.2389 31.1171C31.2345 31.2758 31.1989 31.4321 31.1341 31.577C31.0693 31.722 30.9765 31.8527 30.8612 31.9618C28.1743 34.5061 24.612 35.9198 20.9116 35.9102H20.7122C18.3373 35.8777 16.0068 35.2623 13.9255 34.1182C11.8441 32.974 10.0757 31.3361 8.77556 29.3485C7.47545 27.3608 6.68348 25.0842 6.46926 22.7188C6.25504 20.3534 6.62513 17.9715 7.547 15.7827C8.46888 13.5938 9.9143 11.6648 11.7562 10.1654C13.5982 8.66591 15.7802 7.64186 18.1106 7.18321C20.441 6.72457 22.8484 6.84537 25.1212 7.535C27.394 8.22462 29.4626 9.46197 31.1451 11.1383L32.7961 12.6488L35.7657 9.67311C35.9351 9.50355 36.151 9.38818 36.3861 9.34166C36.6212 9.29515 36.8649 9.31959 37.086 9.41188C37.3072 9.50417 37.4959 9.66014 37.6282 9.85996C37.7605 10.0598 37.8304 10.2944 37.829 10.5341Z" fill="#EE34F5"/>
</svg>
