<svg width="81" height="79" viewBox="0 0 81 79" fill="none" xmlns="http://www.w3.org/2000/svg">
<path d="M38.7276 0.922878C39.3192 -0.307569 41.0714 -0.307567 41.6631 0.92288L52.7997 24.0821C53.0334 24.5681 53.4925 24.9069 54.0258 24.9869L79.0018 28.7343C80.3239 28.9326 80.8571 30.5514 79.9117 31.4966L61.7884 49.6162C61.4162 49.9883 61.2468 50.5173 61.3335 51.0364L65.6029 76.5882C65.8262 77.9246 64.4151 78.9334 63.2229 78.2898L40.969 66.2767C40.4861 66.016 39.9045 66.016 39.4217 66.2767L17.1678 78.2898C15.9755 78.9334 14.5645 77.9246 14.7878 76.5882L19.0571 51.0364C19.1438 50.5173 18.9744 49.9883 18.6022 49.6162L0.478975 31.4966C-0.466437 30.5514 0.0667472 28.9326 1.38883 28.7343L26.3648 24.9869C26.8981 24.9069 27.3572 24.5681 27.5909 24.0821L38.7276 0.922878Z" fill="url(#paint0_linear_2166_5521)"/>
<defs>
<linearGradient id="paint0_linear_2166_5521" x1="23.4551" y1="7.00441" x2="42.641" y2="74.1283" gradientUnits="userSpaceOnUse">
<stop offset="0.0001" stop-color="#FFED8C"/>
<stop offset="1" stop-color="#F4B335"/>
</linearGradient>
</defs>
</svg>
