<svg width="31" height="31" viewBox="0 0 31 31" fill="none" xmlns="http://www.w3.org/2000/svg">
<path d="M28.8705 10.7871L13.6354 26.0222C13.2794 26.378 12.7967 26.5778 12.2934 26.5778C11.7901 26.5778 11.3074 26.378 10.9514 26.0222L2.45345 17.4792C2.09805 17.1232 1.89844 16.6408 1.89844 16.1378C1.89844 15.6348 2.09805 15.1524 2.45345 14.7964L4.82652 12.4234C5.18232 12.069 5.664 11.8701 6.16612 11.8701C6.66825 11.8701 7.14992 12.069 7.50572 12.4234L12.3409 17.1125L23.8218 5.77282C24.1776 5.41815 24.6595 5.21899 25.162 5.21899C25.6644 5.21899 26.1463 5.41815 26.5022 5.77282L28.8693 8.09131C29.0473 8.26772 29.1886 8.47763 29.2851 8.70893C29.3816 8.94024 29.4313 9.18835 29.4314 9.43897C29.4316 9.68959 29.382 9.93775 29.2858 10.1691C29.1895 10.4005 29.0483 10.6106 28.8705 10.7871Z" fill="white"/>
</svg>
