<svg width="1360" height="1602" viewBox="0 0 1360 1602" fill="none" xmlns="http://www.w3.org/2000/svg">
<g id="Hair 14">
<g id="Head 2">
<g id="1 neck">
<path id="Vector" d="M673.29 1541.5C662.675 1541.51 652.093 1540.33 641.74 1537.98C605.93 1529.84 575.8 1514.98 540.99 1488.22C532.66 1481.8 532.04 1474.78 532.99 1470.01C536.13 1453.91 540.14 1271.41 540.3 1250.77C540.35 1244.63 540.36 1228.71 540.3 1212.03C540.3 1201.03 540.2 1179.92 539.99 1161.93C539.85 1150.34 539.68 1142.93 539.5 1139.23L539.08 1131.02L546.22 1135.09C547.32 1135.72 551.77 1137.88 556.49 1140.16C575.14 1149.16 583.84 1153.59 586.1 1155.75C589.26 1158.32 613.15 1165.86 623.35 1169.07C633.03 1172.07 634.35 1172.58 635.3 1173.14C642.88 1177.75 651.03 1181.19 659.67 1184.83C666.17 1187.57 672.9 1190.41 680.01 1193.98C691.4 1199.7 696.85 1202.25 699.01 1202.25C699.807 1202.19 700.593 1202.03 701.35 1201.78C704.05 1201.06 708.14 1199.96 716.96 1199.96C720.52 1199.96 724.64 1200.14 729.19 1200.5C737.93 1200.59 742.26 1206.24 745.43 1210.38C748.15 1213.92 749.43 1215.38 751.58 1215.38C752.574 1215.35 753.555 1215.14 754.48 1214.78L760.61 1212.59L760.5 1219.1C760.5 1221.44 760.5 1224.89 760.57 1228.81C760.78 1238.35 761.3 1250.02 762 1260.81C762.46 1267.98 763 1299 763.67 1334.93C764.67 1388.56 766.1 1469.54 767.61 1476.17C770.17 1483.99 768.61 1491.63 763.19 1498.27C740.59 1525.84 715.87 1539.07 683.02 1541.16C679.77 1541.39 676.5 1541.5 673.29 1541.5Z" fill="#E68856"/>
<path id="Vector_2" d="M544 1139C547.84 1141.19 579.87 1156 583 1159C587.51 1163.38 631 1175.82 633 1177C646.52 1185.24 661.42 1189.67 678 1198C691.79 1204.92 696 1206.75 699 1206.75C702.42 1206.75 704.43 1204.46 716.94 1204.46C720.19 1204.46 724.13 1204.61 728.94 1205H729.01C741.4 1205 741.83 1219.86 751.52 1219.86C753.052 1219.84 754.569 1219.55 756 1219C756 1221.34 756 1224.75 756.07 1228.89C756.26 1237.47 756.74 1249.2 757.51 1261.12C758.73 1280.12 760.67 1469.53 763.31 1477.52C765.444 1483.95 764.244 1489.92 759.71 1495.44C740.29 1519.13 718.02 1534.44 682.71 1536.69C679.544 1536.9 676.397 1537.01 673.27 1537C662.991 1537.01 652.743 1535.87 642.72 1533.59C604.16 1524.83 574.26 1508.12 543.72 1484.65C538.487 1480.65 536.377 1476.06 537.39 1470.89C540.7 1453.95 544.65 1268.55 544.79 1250.81C544.84 1244.99 544.85 1229.65 544.79 1212.02C544.79 1195.32 544.65 1176.56 544.48 1161.88C544.35 1151.48 544.19 1143.12 543.98 1139M534.15 1123L534.99 1139.42C535.18 1143.04 535.34 1150.42 535.48 1161.95C535.69 1179.95 535.76 1201.02 535.79 1211.95C535.84 1228.58 535.79 1244.49 535.79 1250.64C535.63 1270.71 531.58 1453.64 528.56 1469.07C527.56 1473.97 527.56 1483.46 538.23 1491.69C573.59 1518.86 604.23 1533.99 640.74 1542.28C651.417 1544.7 662.332 1545.92 673.28 1545.91C676.58 1545.91 679.96 1545.8 683.28 1545.58C701.61 1544.41 717.42 1539.92 731.6 1531.83C744.16 1524.68 755.3 1514.89 766.6 1501.06C773 1493.25 774.84 1484.26 771.92 1475.06C770.47 1466.22 769.05 1387.22 768.1 1334.8C767.42 1297.34 766.89 1267.8 766.42 1260.49C765.73 1249.74 765.21 1238.13 765 1228.64C764.91 1224.79 764.89 1221.4 764.93 1219.1L765.15 1206.1L753 1210.53C752.604 1210.68 752.191 1210.79 751.77 1210.85C750.77 1209.86 749.857 1208.79 749.04 1207.64C745.74 1203.33 740.23 1196.14 729.42 1196C724.81 1195.64 720.63 1195.46 716.99 1195.46C707.58 1195.46 703.15 1196.65 700.22 1197.46L699.03 1197.76C696.78 1197.36 687.6 1192.76 682.08 1189.98C674.83 1186.34 668.08 1183.47 661.47 1180.71C652.99 1177.13 644.98 1173.71 637.72 1169.33C636.3 1168.48 634.93 1168.02 624.82 1164.83C616.14 1162.1 593.27 1154.88 588.96 1152.22C586.22 1149.83 579.77 1146.44 558.55 1136.16C554.32 1134.11 549.55 1131.79 548.55 1131.23L534.17 1123H534.15Z" fill="#020201"/>
<path id="Vector_3" d="M757.51 1261.12C744.18 1265.34 730.292 1267.54 716.31 1267.64C676.46 1267.82 635.9 1260.01 600.72 1243.29C583.167 1234.95 567.233 1226.66 552.92 1218.41C550.03 1216.53 547.316 1214.39 544.81 1212.02C544.81 1195.32 544.17 1153.68 544 1139.02C575.84 1156.42 603.23 1200.69 639.48 1212.3C670 1222.06 693 1230 727.61 1230.65C737.13 1230.89 746.652 1230.3 756.07 1228.89C756.26 1237.47 756.74 1249.2 757.51 1261.12Z" fill="#CE6D40"/>
</g>
<g id="1 head">
<g id="head">
<path id="Vector_4" d="M763 1220C759.53 1220.44 782.42 1218.55 781 1221C774.75 1222.62 769.82 1226.5 751.13 1229.43C739.738 1231.17 728.203 1231.8 716.69 1231.3C695.32 1230.45 677.18 1228.3 656.95 1220.23C629.935 1209.45 603.955 1196.25 579.33 1180.77C574.06 1177.45 568.988 1173.82 564.14 1169.91C550.54 1158.95 540.007 1149.97 532.54 1142.97C512.34 1124 497 1099.24 485 1072C489.5 1077.86 493 1085.52 497.13 1091.52C512.27 1113.41 533.35 1134.39 552.08 1148.57C581.76 1171.06 619.17 1187.16 655 1203C679.59 1213.88 690.17 1215.06 720 1216C735.64 1216.5 756.45 1220 763 1220Z" fill="#020201"/>
<g id="face">
<path id="Vector_5" d="M755.131 1229H755.001C657.731 1221.52 581.241 1190.71 527.661 1137.42C494.148 1104.04 470.345 1062.17 458.801 1016.3C452.651 991.09 445.141 965.72 435.801 938.71C433.431 931.86 430.961 924.66 428.441 917.3L427.211 913.74C404.301 846.81 392.001 809.89 390.621 804C387.531 790.62 388.301 738.37 388.331 736.15V736C390.691 679 402.561 628.67 423.601 586.34C440.76 551.469 465.333 520.769 495.601 496.39C520.031 476.75 548.451 460.93 580.071 449.39C634.641 429.5 681.211 428.49 690.001 428.49H690.891C691.671 428.44 694.671 428.28 699.531 428.28C725.531 428.28 792.801 432.55 856.831 472.11C893.46 494.706 923.815 526.155 945.101 563.56C971.541 609.5 986.761 666.48 990.331 732.92C990.791 741.46 989.401 755.98 987.681 772.67L986.931 779.81C984.131 806.68 980.641 840.12 980.821 870.3C981.051 908.5 971.241 969.52 965.371 1002.49C963.131 1015.08 961.521 1023.2 961.501 1023.28V1023.47L961.441 1023.65C948.011 1070.05 929.071 1109.65 905.151 1141.43C885.851 1167.05 863.281 1187.65 838.061 1202.66C794.221 1228.74 756.941 1229 755.371 1229H755.131Z" fill="#E68856"/>
<path id="Vector_6" d="M699.531 432.8C746.321 432.8 970.531 447.73 985.841 733.17C986.271 741.17 984.971 755.1 983.201 772.22C980.291 800.38 976.121 837.17 976.321 870.34C976.551 908.49 966.611 969.85 960.941 1001.71C958.681 1014.4 957.091 1022.41 957.091 1022.41C898.921 1223.28 758.871 1224.54 755.371 1224.54H755.301C532.561 1207.42 476.721 1070.67 463.171 1015.23C456.741 988.88 448.931 962.9 440.101 937.23C437.361 929.23 434.471 920.85 431.521 912.23C414.901 863.83 396.611 810 395.001 803C392.001 790 392.831 736.23 392.831 736.23C395.341 675.65 408.351 627.17 427.631 588.38C503.221 436.28 675.291 433 690.001 433H691.001C691.001 433 694.001 432.8 699.531 432.8ZM699.531 423.8C694.871 423.8 691.831 423.94 690.791 424H690.001C681.081 424 633.811 425 578.561 445.21C546.471 456.91 517.621 473 492.811 492.92C462.022 517.699 437.025 548.911 419.571 584.37C398.251 627.28 386.221 678.24 383.841 735.86V736.09C383.751 741.71 383.091 791.35 386.241 805.02C387.631 811.02 400.011 848.12 423.021 915.2L424.511 919.55C426.941 926.63 429.321 933.55 431.601 940.18C440.851 967.05 448.321 992.29 454.441 1017.36C459.194 1036.64 466.157 1055.31 475.191 1073C487.91 1098.02 504.535 1120.85 524.441 1140.64C549.261 1165.32 579.391 1185.51 613.981 1200.64C654.531 1218.39 701.851 1229.45 754.611 1233.5H754.951H755.371C759.371 1233.5 796.231 1232.74 840.371 1206.5C866.101 1191.19 889.101 1170.2 908.751 1144.11C933.001 1111.91 952.191 1071.8 965.751 1024.87L965.861 1024.5L965.941 1024.12C965.941 1024.04 967.571 1015.88 969.821 1003.25C975.721 970.12 985.571 908.79 985.341 870.25C985.161 840.31 988.641 807.01 991.431 780.25C991.681 777.81 991.931 775.42 992.171 773.1C993.921 756.21 995.321 741.51 994.851 732.64C991.231 665.49 975.851 607.84 949.031 561.29C927.37 523.25 896.489 491.269 859.231 468.29C794.201 428.13 725.891 423.8 699.541 423.8H699.531Z" fill="#020201"/>
<path id="Vector_7" d="M431.52 912.28C414.9 863.83 396.61 810 395 803C392 790 392.83 736.23 392.83 736.23C395.34 675.65 408.35 627.17 427.63 588.38C419.63 618.25 406.09 699.57 438.63 846.94C452 907.59 446 921.56 431.52 912.28Z" fill="#CE6D40"/>
</g>
</g>
<path id="smile" d="M628.282 1014.74C628.515 1014.73 628.745 1014.8 628.932 1014.94C629.124 1015.07 629.262 1015.27 629.322 1015.5C629.401 1015.72 629.401 1015.96 629.322 1016.18C629.236 1016.4 629.082 1016.58 628.882 1016.7L619.882 1021.88C619.146 1022.3 618.595 1022.98 618.339 1023.79C618.083 1024.6 618.142 1025.47 618.502 1026.24C622.862 1035.85 647.912 1049.3 656.952 1053.34C686.377 1066.71 718.236 1073.9 750.552 1074.45C782.172 1074.93 805.952 1074.45 834.202 1063.25C842.002 1060.13 847.522 1056.02 850.762 1050.93C850.892 1050.71 851.079 1050.53 851.302 1050.41C851.53 1050.29 851.784 1050.23 852.042 1050.23C852.301 1050.24 852.553 1050.31 852.772 1050.45C852.997 1050.58 853.186 1050.77 853.322 1050.99L854.072 1052.26C854.543 1053.1 854.749 1054.05 854.662 1055.01C854.573 1055.96 854.189 1056.86 853.562 1057.58C843.802 1068.76 826.252 1074.58 811.562 1077.37C766.102 1085.88 720.659 1082.74 675.232 1067.97C651.94 1060.44 630.568 1047.93 612.602 1031.3C612.357 1031.08 612.071 1030.91 611.762 1030.8C611.442 1030.68 611.1 1030.64 610.762 1030.68C610.435 1030.7 610.117 1030.79 609.832 1030.95C609.543 1031.1 609.29 1031.31 609.092 1031.57L604.522 1037.38C604.343 1037.62 604.095 1037.79 603.812 1037.88C603.53 1037.97 603.224 1037.97 602.942 1037.88C602.664 1037.78 602.429 1037.58 602.273 1037.33C602.117 1037.08 602.05 1036.78 602.082 1036.49C603.052 1023.44 616.302 1015.07 628.282 1014.74Z" fill="#020201"/>
<g id="nose">
<path id="Vector_8" d="M816.822 991.859C807.632 1009.12 782.002 1028 766.882 1027.71C759.598 1027.58 752.422 1025.92 745.816 1022.85C739.21 1019.78 733.319 1015.36 728.522 1009.88C725.202 1006.07 722.932 1002.23 723.272 999.049C723.394 997.919 723.935 996.875 724.788 996.124C725.642 995.373 726.745 994.968 727.882 994.989L776.002 997.779C789.879 998.583 803.774 996.569 816.852 991.859H816.822ZM733.822 1005.05C734.367 1006.3 735.295 1007.35 736.472 1008.05C741.138 1011.23 746.435 1013.37 752.002 1014.32C753.003 1014.5 754.035 1014.33 754.931 1013.85C755.827 1013.37 756.535 1012.6 756.942 1011.67V1011.58C757.079 1011.23 757.134 1010.85 757.102 1010.48C757.082 1010.1 756.972 1009.74 756.782 1009.41C756.602 1009.08 756.349 1008.8 756.042 1008.58C755.743 1008.37 755.402 1008.22 755.042 1008.15L734.482 1004.26C734.383 1004.23 734.28 1004.23 734.182 1004.26C734.085 1004.3 733.999 1004.36 733.932 1004.44C733.86 1004.52 733.814 1004.61 733.802 1004.72C733.774 1004.83 733.777 1004.94 733.812 1005.05H733.822Z" fill="#CE6D40"/>
<path id="Vector_9" d="M733.811 1005.05C733.787 1004.94 733.787 1004.83 733.811 1004.73C733.828 1004.63 733.873 1004.53 733.942 1004.45C734.011 1004.37 734.096 1004.31 734.192 1004.27C734.29 1004.24 734.393 1004.24 734.491 1004.27L755.002 1008.15C755.364 1008.21 755.706 1008.36 756.002 1008.58C756.309 1008.8 756.562 1009.08 756.741 1009.41C756.93 1009.74 757.043 1010.1 757.072 1010.48C757.095 1010.85 757.037 1011.23 756.902 1011.58V1011.67C756.498 1012.6 755.792 1013.37 754.897 1013.85C754.003 1014.33 752.972 1014.5 751.971 1014.32C746.406 1013.38 741.108 1011.25 736.431 1008.09C735.262 1007.38 734.345 1006.31 733.811 1005.05Z" fill="#201116"/>
<path id="Vector_10" d="M790.002 843.999C788.872 845.129 789.122 847.399 789.002 848.999C788.342 857.999 783.372 895.329 790.682 915.289C799.002 937.999 802.302 952.659 815.002 970.999C827.702 989.339 792.842 1022.22 770.422 1025.61C770.422 1025.61 764.602 1029.61 779.302 1029.33C794.002 1029.05 816.882 1013.4 822.442 995.699C828.002 977.999 826.882 974.569 822.442 966.789C818.002 959.009 798.002 923.999 796.002 898.999C794.002 873.999 800.002 852.999 792.002 843.999C791.342 843.249 791.002 842.999 790.002 843.999Z" fill="#020201"/>
</g>
<g id="glasses">
<path id="Vector_11" d="M1021 768C1022.56 769 996.432 766.57 994.002 766C990.392 768 978.522 763.54 974.352 763.36C951.212 762.3 929.995 761.607 910.702 761.28C896.882 761.07 880.052 764.42 870.292 765.28C856.685 766.5 846.798 768.547 840.632 771.42C828.312 777.2 818.598 784.97 811.492 794.73C811.13 795.228 810.819 795.76 810.562 796.32L801.252 816.79C801.039 817.263 800.733 817.688 800.352 818.04C799.966 818.389 799.513 818.658 799.022 818.83C798.534 819 798.017 819.068 797.502 819.03C796.983 818.997 796.477 818.861 796.012 818.63C784.172 812.73 772.138 810.633 759.912 812.34C755.372 812.97 751.662 812.79 747.212 815.44C746.915 815.619 746.585 815.737 746.242 815.789C745.899 815.84 745.549 815.824 745.212 815.74C744.527 815.569 743.935 815.139 743.562 814.54C739.862 808.42 737.302 799.69 734.202 794.73C725.075 780.15 712.882 770.483 697.622 765.73C660.662 754.17 621.389 749.483 579.802 751.67C566.295 752.37 556.792 752.72 551.292 752.72C536.872 752.72 497.392 754.2 493.062 768.23C491.209 774.15 490.105 782.25 489.752 792.53C489.711 793.739 489.801 794.95 490.022 796.14C491.792 806.309 492.957 816.573 493.512 826.88C493.842 834.238 494.758 841.558 496.252 848.77C501.732 875.37 507.065 898.223 512.252 917.33C515.852 931.183 523.004 943.857 533.002 954.1C533.834 954.954 534.775 955.694 535.802 956.3C553.802 966.74 569.549 972.953 583.042 974.94C600.021 977.268 617.157 978.271 634.292 977.94C651.483 977.85 668.432 973.889 683.882 966.35C690.867 962.877 697.168 958.172 702.482 952.46C709.988 944.5 714.928 938.45 717.302 934.31C722.022 926.123 727.742 912.143 734.462 892.37C738.462 880.6 740.392 861.37 741.782 852.44C742.892 845.19 745.962 839.44 752.282 836.67C768.042 829.643 782.105 831.9 794.472 843.44C798.778 847.5 800.865 851.796 800.732 856.33C799.972 877.85 801.085 896.967 804.072 913.68C809.342 943.16 831.072 976.19 864.202 980.68C875.142 982.16 889.745 983.183 908.012 983.75C921.565 984.19 937.472 980.647 955.732 973.12C970.625 967 981.605 955.91 988.672 939.85C996.205 922.75 1002.42 907.063 1007.31 892.79C1007.67 891.746 1007.91 890.666 1008.03 889.57C1008.97 881.248 1011.59 873.204 1015.74 865.93L1013.6 892.4C1006.13 922.09 995.262 950.4 973.702 970.98C972.912 971.74 938.992 1000.98 862.182 987.9C851.749 986.02 839.749 980.61 826.182 971.67C813.002 960 788.402 922.44 795.752 861.18C796.095 858.154 795.66 855.09 794.487 852.28C793.315 849.469 791.444 847.005 789.052 845.12C779.282 837.3 762.332 829.12 748.952 849.53C748.422 850.364 748.102 851.315 748.022 852.3C745.612 884.13 737.932 912.73 720.742 939.89C704.602 965.343 681.478 979.896 651.372 983.55C621.253 987.299 590.69 985.073 561.432 977C537.372 970.38 520.995 956.32 512.302 934.82C496.442 895.58 487.309 852.473 484.902 805.5C484.803 803.777 484.072 802.152 482.848 800.936C481.624 799.72 479.995 798.998 478.272 798.91C464.972 798.31 449.949 800.047 433.202 804.12C432.992 804.12 426.002 809.02 422.202 806.07C416.992 801.98 413.012 796.45 407.782 792.07C406.97 791.401 406.08 790.834 405.132 790.38C401.612 788.71 390.232 787.76 387.002 785.52C385.312 784.36 387.462 778.75 387.622 778.25C389.362 772.47 400.312 767.35 404.472 764.88C405.519 764.253 406.711 763.908 407.932 763.88L423.232 763.31C445.352 763.65 464.559 761.403 480.852 756.57C501.852 750.343 514.249 747.11 518.042 746.87C535.382 745.76 551.792 742.87 569.342 742.81C598.946 742.579 628.532 744.37 657.892 748.17C673.161 750.267 688.149 754.053 702.582 759.46C725.012 767.74 738.682 783.06 745.722 804.53C746.022 805.439 746.667 806.194 747.517 806.633C748.368 807.072 749.357 807.161 750.272 806.88C765.605 802.34 780.249 803.833 794.202 811.36C794.407 811.476 794.636 811.544 794.872 811.56C795.108 811.571 795.343 811.53 795.562 811.44C795.781 811.349 795.979 811.213 796.142 811.04C796.304 810.868 796.421 810.658 796.482 810.43C802.175 791.596 812.605 778.12 827.772 770C843.972 761.333 862.449 756.213 883.202 754.64C914.032 752.27 946.442 753.34 977.972 757.04C983.072 757.6 1016.69 765.29 1021 768ZM482.002 770.38C482.002 769.733 481.858 769.095 481.582 768.51C481.305 767.926 480.902 767.41 480.402 767C479.906 766.588 479.326 766.291 478.702 766.13C478.077 765.975 477.426 765.955 476.792 766.07C455.444 769.932 433.742 771.477 412.062 770.68C411.205 770.638 410.35 770.792 409.562 771.13C408.038 771.772 406.672 772.738 405.558 773.96C404.444 775.183 403.61 776.633 403.112 778.21C402.942 778.672 402.921 779.175 403.052 779.65C403.176 780.126 403.454 780.547 403.842 780.85L424.492 797.05C425.026 797.464 425.655 797.739 426.322 797.85C426.991 797.967 427.68 797.912 428.322 797.69C443.873 792.234 460.474 790.44 476.832 792.45C477.485 792.518 478.146 792.45 478.772 792.25C479.71 791.945 480.529 791.351 481.11 790.554C481.692 789.757 482.008 788.797 482.012 787.81L482.002 770.38Z" fill="#020201"/>
<path id="Vector_12" d="M996.002 765L1012 768C1012.16 768 1020.29 771.12 1020.44 771.22C1023.66 773.22 1025.21 776.22 1025.08 780.22C1024.7 792.486 1024.11 805.153 1023.3 818.22C1019.31 833.848 1016.78 849.813 1015.75 865.91C1011.59 873.19 1008.95 881.245 1008 889.58C1007.88 890.676 1007.64 891.756 1007.28 892.8C1002.38 907.066 996.169 922.753 988.642 939.86C981.582 955.92 970.602 967.01 955.702 973.13C937.469 980.656 921.569 984.2 908.002 983.76C889.736 983.2 875.132 982.176 864.192 980.69C831.042 976.17 809.332 943.14 804.062 913.69C801.069 896.983 799.956 877.866 800.722 856.34C800.862 851.8 798.776 847.503 794.462 843.45C782.089 831.91 768.026 829.653 752.272 836.68C745.952 839.48 742.882 845.2 741.772 852.45C740.382 861.4 738.452 880.61 734.452 892.38C727.746 912.126 722.032 926.096 717.312 934.29C714.946 938.416 710.006 944.466 702.492 952.44C697.179 958.151 690.878 962.857 683.892 966.33C668.443 973.869 651.493 977.83 634.302 977.92C617.167 978.251 600.032 977.248 583.052 974.92C569.532 972.92 553.786 966.706 535.812 956.28C534.786 955.674 533.844 954.934 533.012 954.08C522.993 943.837 515.823 931.155 512.212 917.29C507.052 898.183 501.719 875.33 496.212 848.73C494.718 841.518 493.802 834.198 493.472 826.84C492.923 816.54 491.765 806.282 490.002 796.12C489.782 794.93 489.691 793.719 489.732 792.51C490.092 782.23 491.196 774.13 493.042 768.21C497.372 754.21 536.852 752.7 551.272 752.7C556.772 752.7 566.276 752.35 579.782 751.65C621.369 749.463 660.642 754.15 697.602 765.71C712.856 770.49 725.049 780.156 734.182 794.71C737.282 799.71 739.842 808.4 743.542 814.52C743.918 815.116 744.509 815.546 745.192 815.72C745.529 815.804 745.879 815.82 746.222 815.769C746.565 815.717 746.895 815.599 747.192 815.42C751.642 812.77 755.352 812.95 759.892 812.32C772.126 810.606 784.159 812.703 795.992 818.61C796.457 818.841 796.964 818.977 797.482 819.01C797.997 819.049 798.515 818.981 799.002 818.81C799.494 818.638 799.946 818.369 800.332 818.02C800.714 817.668 801.02 817.243 801.232 816.77L810.542 796.3C810.799 795.74 811.11 795.208 811.472 794.71C818.572 784.95 828.286 777.18 840.612 771.4C846.779 768.526 856.666 766.48 870.272 765.26C880.032 764.39 896.862 761.04 910.682 761.26C929.969 761.593 951.186 762.286 974.332 763.34C978.002 763.52 995.462 764.83 996.002 765ZM547.342 770.92C505.492 781.31 513.342 822.8 514.592 854.56C514.941 864.783 516.342 874.943 518.772 884.88C523.372 903.306 527.999 917.086 532.652 926.22C548.852 957.92 578.272 960.12 610.422 961.57C640.112 962.92 664.742 963.04 686.962 945.43C700.092 935.01 707.792 920.43 714.542 905.54C719.782 893.97 721.642 878.8 724.752 866.06C727.752 853.87 727.002 841.4 727.062 829.27C727.062 823.73 724.746 815.67 720.112 805.09C716.539 797.003 712.272 791.243 707.312 787.81C703.162 784.92 692.742 781.7 677.002 776C675.792 775.56 675.282 775 674.002 775C659.732 774.91 645.682 769.29 631.232 768.57C601.339 767.07 582.449 766.356 574.562 766.43C568.242 766.49 559.169 767.986 547.342 770.92ZM999.222 806.33C996.002 770 906.802 777 883.062 778.36C856.442 779.83 820.582 792.42 816.912 823.13C815.179 837.556 814.276 855.63 814.202 877.35C814.162 892.27 817.926 910.696 825.492 932.63C831.572 950.25 840.842 957.11 858.192 962.8C875.653 968.714 894.282 970.337 912.502 967.53C930.236 964.743 940.362 963.056 942.882 962.47C950.882 960.6 956.472 957.12 961.002 952C976.043 935.224 986.845 915.089 992.502 893.28C994.416 885.946 997.459 872.613 1001.63 853.28C1004.23 841.246 1003.42 825.596 999.222 806.33Z" fill="#501C49"/>
<path id="Vector_13" d="M482.003 770.38V787.81C482.003 788.465 481.863 789.113 481.593 789.71C481.333 790.311 480.944 790.847 480.453 791.28C479.963 791.718 479.387 792.049 478.762 792.25C478.137 792.452 477.476 792.52 476.823 792.45C460.468 790.439 443.87 792.232 428.323 797.69C427.681 797.907 426.996 797.962 426.327 797.85C425.659 797.739 425.029 797.464 424.493 797.05L395.843 779.85C395.455 779.547 395.177 779.126 395.053 778.65C394.92 778.175 394.945 777.67 395.123 777.21C396.423 773.69 398.973 772.21 401.963 771C405.256 770.145 408.594 769.477 411.963 769C435.203 769.68 456.883 769.83 476.793 766.07C477.749 765.886 478.739 766.027 479.606 766.468C480.474 766.91 481.169 767.628 481.583 768.51C481.857 769.095 482.001 769.733 482.003 770.38Z" fill="#501C49"/>
<path id="Vector_14" d="M514.591 854.56C513.381 822.8 505.491 781.31 547.341 770.92C559.175 767.987 568.248 766.49 574.561 766.43C582.448 766.35 601.338 767.063 631.231 768.57C645.681 769.29 675.791 774.57 677.001 775C692.741 780.7 703.161 784.92 707.311 787.81C712.271 791.243 716.538 797.003 720.111 805.09C724.778 815.67 727.095 823.73 727.061 829.27C727.001 841.4 727.701 853.87 724.751 866.06C721.641 878.8 719.751 893.97 714.541 905.54C707.791 920.47 700.091 935 687.001 945.43C664.781 963.04 640.151 962.92 610.461 961.57C578.311 960.12 548.891 957.92 532.691 926.22C528.025 917.093 523.398 903.313 518.811 884.88C516.367 874.945 514.953 864.785 514.591 854.56ZM541.891 779.71C506.001 793.86 522.321 867.15 529.001 897.41C534.511 922.41 544.231 941.24 570.401 948.8C585.249 953.158 600.602 955.559 616.071 955.94C652.381 956.75 682.971 951 701.371 919.02C704.205 914.093 707.718 904.55 711.911 890.39C722.631 854.39 731.811 796.09 682.431 783.84C644.965 774.586 606.229 771.572 567.781 774.92C558.331 775.71 551.471 776 541.891 779.71Z" fill="#020201"/>
<path id="Vector_15" d="M1001 800C997.001 789 1001 778 920.001 776C839.001 774 829.001 793 829.001 793C817.001 805 816.001 813 814.201 824.83C812.401 836.66 814.001 834 811.381 864.83C808.761 895.66 812.001 904 814.001 913C816.001 922 826.001 943 832.751 951.21C839.501 959.42 863.001 970 886.001 970C909.001 970 942.001 972 966.001 949C990.001 926 1000 878 1004 856C1008 834 1005 811 1001 800ZM998.921 856.9C995.131 877.73 985.661 923.19 962.921 944.97C940.181 966.75 908.921 964.85 887.161 964.85C865.401 964.85 843.161 954.85 836.741 947.06C830.321 939.27 820.891 919.4 819.001 910.88C817.111 902.36 814.001 894.43 816.521 865.25C819.041 836.07 817.521 838.58 819.191 827.38C820.861 816.18 821.841 808.6 833.191 797.24C833.191 797.24 842.661 779.24 919.361 781.14C996.061 783.04 992.281 793.45 996.071 803.87C999.861 814.29 1002.71 836.06 998.921 856.9Z" fill="#020201"/>
<path id="Vector_16" d="M1029.7 798.52C1030.65 791.415 1030.65 784.215 1029.7 777.11C1029.12 772.31 1026.14 769.19 1020.76 767.75C1007.89 764.29 997.888 762.274 990.762 761.7L997.002 765C997.162 765 1020.29 771.12 1020.45 771.22C1023.66 773.22 1025.2 776.22 1025.08 780.22C1024.81 789.12 1023.5 798.65 1023 807.97C1022.9 808.77 1021.36 827.08 1019 834.97C1016.59 843.03 1010.61 877.6 1010.61 877.6C1010.61 877.6 1008 909.97 1012.53 896.6C1016.78 884.01 1028.21 808.46 1029.53 799.41L1029.59 799.03C1029.68 798.7 1029.7 798.52 1029.7 798.52Z" fill="#020201"/>
</g>
<g id="ear">
<path id="Vector_17" d="M451.271 845.47C451.271 845.47 397.611 741.33 351.811 798.66C306.011 855.99 342.691 960.79 387.001 991C431.311 1021.21 457.001 984 457.001 984L451.271 845.47Z" fill="#E68856"/>
<path id="Vector_18" d="M409.132 940.159C406.592 928.999 406.662 912.209 421.002 894.999C421.002 894.999 402.002 822.999 371.002 818.999C340.002 814.999 346.132 872.669 352.062 886.329C357.992 899.989 371.062 948.819 391.532 950.409C394.532 950.639 397.172 950.879 399.452 951.109C400.873 951.253 402.307 951.056 403.637 950.535C404.966 950.015 406.153 949.185 407.099 948.116C408.045 947.046 408.722 945.766 409.076 944.383C409.429 942.999 409.448 941.551 409.132 940.159Z" fill="#CE6D40"/>
<path id="Vector_19" d="M409.832 952.06C409.512 951.06 409.042 950.06 408.502 948.89C407.962 947.72 407.442 946.39 407.012 945.1C406.189 942.546 405.57 939.931 405.162 937.28C404.725 934.635 404.505 931.96 404.502 929.28C404.452 927.94 404.562 926.6 404.602 925.28C404.642 923.96 404.812 922.61 405.052 921.28C405.853 915.99 407.441 910.85 409.762 906.03C412.079 901.276 414.964 896.82 418.352 892.76L417.662 895.85C416.162 890 414.322 884.05 412.332 878.24C410.342 872.43 408.132 866.67 405.672 861.04C403.25 855.413 400.482 849.943 397.382 844.66C394.383 839.407 390.771 834.53 386.622 830.13C385.622 829.02 384.472 828.13 383.382 827.08C382.812 826.61 382.212 826.18 381.632 825.73C381.342 825.51 381.062 825.27 380.752 825.07L379.832 824.49C379.243 824.092 378.632 823.728 378.002 823.4L376.062 822.4C374.748 821.85 373.385 821.425 371.992 821.13C369.231 820.464 366.352 820.464 363.592 821.13C362.256 821.485 360.979 822.034 359.802 822.76C358.62 823.522 357.538 824.429 356.582 825.46C354.659 827.678 353.139 830.217 352.092 832.96C351.005 835.782 350.191 838.702 349.662 841.68C348.615 847.74 348.203 853.893 348.432 860.04C348.444 860.315 348.346 860.585 348.159 860.788C347.972 860.992 347.713 861.113 347.437 861.125C347.161 861.137 346.892 861.038 346.688 860.852C346.485 860.665 346.364 860.405 346.352 860.13C345.915 853.847 346.132 847.537 347.002 841.3C347.465 838.124 348.232 834.999 349.292 831.97C350.379 828.838 352.011 825.923 354.112 823.36C355.228 822.062 356.509 820.916 357.922 819.95C359.365 818.99 360.942 818.248 362.602 817.75C365.891 816.81 369.358 816.673 372.712 817.35C374.377 817.646 376.011 818.098 377.592 818.7L379.882 819.7C380.612 820.093 381.32 820.527 382.002 821L383.072 821.63C383.422 821.85 383.742 822.1 384.072 822.34C384.742 822.82 385.422 823.29 386.072 823.79C387.312 824.85 388.612 825.86 389.742 827.03C394.306 831.535 398.314 836.571 401.682 842.03C405.071 847.393 408.12 852.964 410.812 858.71C413.532 864.42 415.982 870.24 418.212 876.13C420.442 882.02 422.492 887.95 424.302 894.13C424.444 894.622 424.468 895.141 424.373 895.645C424.277 896.149 424.064 896.623 423.752 897.03L423.612 897.22C420.586 900.822 418.007 904.777 415.932 909C413.889 913.197 412.486 917.676 411.772 922.29C411.552 923.43 411.512 924.6 411.372 925.75C411.232 926.9 411.222 928.07 411.262 929.24C411.286 933.906 412.004 938.544 413.392 943C413.75 944.083 414.164 945.148 414.632 946.19C415.112 947.27 415.702 948.54 416.172 949.95C416.453 950.79 416.389 951.708 415.993 952.502C415.597 953.295 414.903 953.898 414.062 954.18C413.221 954.461 412.303 954.396 411.51 954.001C410.717 953.605 410.113 952.91 409.832 952.07V952.06Z" fill="#020201"/>
<path id="Vector_20" d="M383.001 932.07C381.382 928.695 379.985 925.218 378.821 921.66C377.607 918.116 376.605 914.503 375.821 910.84C374.197 903.385 373.762 895.721 374.531 888.13C374.999 884.235 375.902 880.405 377.221 876.71C377.591 875.79 377.891 874.84 378.321 873.94L379.601 871.24C380.541 869.471 381.593 867.765 382.751 866.13C383.915 864.488 385.173 862.915 386.521 861.42C387.937 859.965 389.433 858.59 391.001 857.3C394.067 854.748 397.384 852.513 400.901 850.63C402.023 849.995 403.351 849.831 404.594 850.175C405.836 850.52 406.891 851.343 407.526 852.465C408.161 853.587 408.325 854.915 407.981 856.158C407.636 857.4 406.813 858.455 405.691 859.09C405.595 859.151 405.495 859.205 405.391 859.25L405.141 859.37C402.091 860.711 399.186 862.36 396.471 864.29C395.127 865.247 393.839 866.278 392.611 867.38C391.419 868.517 390.294 869.723 389.241 870.99C388.183 872.26 387.208 873.596 386.321 874.99L385.081 877.16C384.661 877.88 384.361 878.66 383.981 879.41C382.599 882.516 381.566 885.766 380.901 889.1C379.667 896.036 379.542 903.125 380.531 910.1C380.989 913.643 381.657 917.156 382.531 920.62C383.388 924.094 384.464 927.511 385.751 930.85V930.9C385.886 931.259 385.878 931.655 385.73 932.009C385.582 932.362 385.304 932.645 384.953 932.8C384.602 932.955 384.206 932.97 383.845 932.841C383.484 932.713 383.185 932.451 383.011 932.11L383.001 932.07Z" fill="#020201"/>
<path id="Vector_21" d="M451.271 845.47C451.271 845.47 424.831 794.16 393.271 783.4C379.851 778.83 365.501 781.57 351.851 798.66C306.001 856 342.691 960.79 387.001 991C431.311 1021.21 457.001 984 457.001 984" stroke="black" stroke-width="7" stroke-linecap="round" stroke-linejoin="round"/>
</g>
<g id="eyebrow">
<path id="Vector_22" d="M534.132 736.87C533.788 736.897 533.444 736.835 533.132 736.69C532.829 736.539 532.569 736.315 532.377 736.037C532.184 735.759 532.066 735.436 532.032 735.1C532.005 734.757 532.066 734.412 532.212 734.1C545.798 705.173 567.465 687.487 597.212 681.04C607.165 678.88 620.692 678.3 637.792 679.3C658.482 680.53 682.392 687.67 695.242 704.2C703.242 714.53 710.362 728.5 706.712 740.57C706.327 741.847 705.454 742.921 704.281 743.558C703.109 744.195 701.733 744.343 700.452 743.97C671.977 735.621 642.632 730.598 613.002 729C600.902 728.333 584.568 729.137 564.002 731.41C556.232 732.26 543.282 736.2 534.132 736.87Z" fill="#201116" stroke="black" stroke-width="7" stroke-miterlimit="10"/>
<path id="Vector_23" d="M973.632 748.43L969.452 748.13C969.365 748.131 969.279 748.11 969.202 748.07C952.002 742.01 935.795 738.757 920.582 738.31C910.402 737.99 896.088 739.053 877.642 741.5C863.398 743.359 849.423 746.883 836.002 752C835.1 752.343 834.103 752.34 833.203 751.991C832.304 751.642 831.566 750.972 831.132 750.11C830.84 749.541 830.693 748.909 830.702 748.27C831.162 728.643 839.715 713.527 856.362 702.92C874.002 691.73 902.942 688.54 922.002 692.4C950.402 698.18 970.842 716.72 976.262 745.4C976.333 745.782 976.316 746.175 976.212 746.55C976.108 746.924 975.919 747.27 975.662 747.56C975.41 747.852 975.091 748.079 974.732 748.22C974.385 748.372 974.009 748.443 973.632 748.43Z" fill="#201116" stroke="black" stroke-width="7" stroke-miterlimit="10"/>
</g>
<g id="eye">
<path id="Vector_24" d="M690.883 858.63C684.223 825.48 662.273 806.87 629.693 804.63C608.233 803.16 588.303 807.07 571.583 821.16C556.173 834.16 555.123 851.51 552.773 870.3C549.713 861.593 548.889 850.863 550.303 838.11C553.716 807.23 570.616 790.527 601.003 788C626.233 785.89 662.333 792 679.923 811.27C690.356 822.69 694.539 837.657 692.473 856.17C692.233 858.477 691.703 859.297 690.883 858.63Z" fill="#020201"/>
<path id="Vector_25" d="M690.883 858.63C689.733 869.43 688.883 881.54 684.763 891.05C674.923 914.043 657.28 928.257 631.833 933.69C613.833 937.54 595.433 931.13 580.833 921.07C564.28 909.69 554.927 892.78 552.773 870.34C555.123 851.55 556.173 834.18 571.583 821.2C588.303 807.11 608.233 803.2 629.693 804.67C662.273 806.87 684.223 825.48 690.883 858.63ZM615.933 807.24C605.243 807.05 594.933 812.29 587.163 821.82C579.393 831.35 575.003 844.36 574.723 858C574.595 864.689 575.516 871.356 577.453 877.76C579.259 883.827 582.116 889.53 585.893 894.61C589.343 899.269 593.735 903.15 598.783 906C603.48 908.63 608.752 910.066 614.133 910.18C624.823 910.37 635.133 905.12 642.903 895.6C650.673 886.08 655.103 873.06 655.343 859.41C655.471 852.725 654.553 846.061 652.623 839.66C650.81 833.591 647.951 827.885 644.173 822.8C640.723 818.145 636.335 814.266 631.293 811.41C626.592 808.783 621.318 807.351 615.933 807.24Z" fill="#FDFAE9"/>
<path id="Vector_26" d="M615.933 807.239C621.319 807.352 626.595 808.791 631.293 811.429C636.336 814.278 640.724 818.155 644.173 822.809C647.95 827.894 650.81 833.6 652.623 839.669C654.552 846.071 655.47 852.735 655.343 859.419C655.103 873.069 650.633 886.089 642.903 895.609C635.173 905.129 624.833 910.379 614.133 910.199C608.75 910.073 603.48 908.631 598.783 905.999C593.735 903.152 589.346 899.271 585.903 894.609C582.118 889.533 579.257 883.829 577.453 877.759C575.516 871.356 574.594 864.688 574.723 857.999C574.963 844.349 579.443 831.329 587.173 821.809C594.903 812.289 605.243 807.049 615.933 807.239ZM636.803 830.079C635.795 830.087 634.802 830.316 633.893 830.749C632.957 831.191 632.12 831.816 631.433 832.589C630.723 833.397 630.17 834.329 629.803 835.339C629.43 836.375 629.241 837.468 629.243 838.569C629.248 840.762 630.059 842.876 631.523 844.509C632.201 845.272 633.032 845.883 633.963 846.302C634.894 846.72 635.902 846.938 636.923 846.939C637.929 846.935 638.923 846.71 639.833 846.279C640.768 845.837 641.604 845.212 642.293 844.439C643.002 843.632 643.555 842.699 643.923 841.689C644.306 840.656 644.495 839.561 644.483 838.459C644.484 836.265 643.672 834.149 642.203 832.519C641.526 831.754 640.695 831.141 639.764 830.721C638.833 830.3 637.824 830.082 636.803 830.079Z" fill="#020201"/>
<path id="Vector_27" d="M644.482 838.46C644.482 833.8 641.012 830.05 636.802 830.08C632.592 830.11 629.212 833.91 629.242 838.57C629.272 843.23 632.712 846.97 636.922 846.94C641.132 846.91 644.512 843.12 644.482 838.46Z" fill="#FDFAE9"/>
</g>
<g id="eye_2">
<path id="Vector_28" d="M944.482 884.4C945.909 870.154 945.979 859.074 944.692 851.16C942.026 834.78 932.652 822.394 916.572 814C915.125 813.25 913.552 812.772 911.932 812.59C892.386 810.364 876.892 811.167 865.452 815C847.539 821 835.052 835.604 827.992 858.81C829.559 823.077 847.402 803.334 881.522 799.58C892.856 798.34 902.039 798.36 909.072 799.64C930.842 803.59 949.002 819.09 952.822 841.76C955.196 855.82 952.416 870.034 944.482 884.4Z" fill="#020201"/>
<path id="Vector_29" d="M944.482 884.4C941.735 893.494 939.105 899.887 936.592 903.58C909.072 944.13 845.242 956.42 830.252 895C827.058 881.887 826.305 869.824 827.992 858.81C835.052 835.604 847.538 821 865.452 815C876.892 811.16 892.385 810.357 911.932 812.59C914.377 813.105 916.751 813.914 919.002 815C935.062 823.39 942.002 834.78 944.692 851.16C945.985 859.054 945.915 870.134 944.482 884.4ZM869.662 819C860.722 819.38 852.352 824.65 846.392 833.66C840.432 842.67 837.392 854.66 837.892 867.04C838.136 873.083 839.254 879.058 841.212 884.78C843.014 890.128 845.698 895.137 849.152 899.6C852.215 903.586 856.091 906.875 860.522 909.25C864.534 911.375 869.034 912.41 873.572 912.25C882.522 911.87 890.892 906.6 896.842 897.59C902.792 888.58 905.842 876.59 905.342 864.21C905.084 858.184 903.959 852.226 902.002 846.52C900.196 841.172 897.509 836.163 894.052 831.7C890.994 827.713 887.121 824.423 882.692 822.05C878.689 819.914 874.197 818.863 869.662 819Z" fill="#FDFAE9"/>
<path id="Vector_30" d="M869.671 819C874.209 818.843 878.708 819.878 882.721 822C887.151 824.373 891.024 827.662 894.081 831.65C897.535 836.128 900.212 841.155 902.001 846.52C903.958 852.242 905.073 858.217 905.311 864.26C905.831 876.62 902.781 888.64 896.821 897.64C890.861 906.64 882.491 911.92 873.551 912.3C869.011 912.458 864.508 911.424 860.491 909.3C856.062 906.927 852.189 903.637 849.131 899.65C845.674 895.187 842.987 890.178 841.181 884.83C839.228 879.111 838.113 873.139 837.871 867.1C837.351 854.73 840.411 842.72 846.361 833.71C852.311 824.7 860.721 819.42 869.671 819ZM895.831 843.83C895.867 842.862 895.708 841.898 895.363 840.993C895.017 840.089 894.493 839.263 893.822 838.566C893.15 837.869 892.345 837.314 891.454 836.936C890.563 836.557 889.604 836.362 888.636 836.362C887.668 836.362 886.71 836.557 885.819 836.936C884.928 837.314 884.123 837.869 883.451 838.566C882.78 839.263 882.255 840.089 881.91 840.993C881.565 841.898 881.405 842.862 881.441 843.83C881.438 844.777 881.625 845.716 881.991 846.59C882.353 847.459 882.879 848.25 883.541 848.92C884.548 849.926 885.831 850.612 887.227 850.889C888.624 851.167 890.071 851.024 891.386 850.48C892.702 849.935 893.826 849.012 894.617 847.829C895.408 846.645 895.831 845.254 895.831 843.83Z" fill="#020201"/>
<path id="Vector_31" d="M888.632 851.07C890.056 851.07 891.448 850.648 892.632 849.856C893.816 849.065 894.739 847.941 895.284 846.625C895.829 845.31 895.971 843.862 895.693 842.465C895.415 841.069 894.73 839.786 893.723 838.779C892.716 837.772 891.433 837.086 890.036 836.808C888.64 836.53 887.192 836.673 885.876 837.218C884.561 837.763 883.436 838.686 882.645 839.87C881.854 841.054 881.432 842.446 881.432 843.87C881.432 845.779 882.19 847.611 883.54 848.961C884.891 850.311 886.722 851.07 888.632 851.07Z" fill="#FDFAE9"/>
</g>
</g>
</g>
<g id="Hair 14_2">
<g id="&#208;&#161;&#208;&#187;&#208;&#190;&#208;&#185; 15">
<path id="Vector_32" d="M388.059 971.28C387.173 971.281 386.307 971.02 385.569 970.53C356.879 951.43 342.809 910.35 336.059 879.25C334.679 872.91 333.659 867.25 332.929 862.64C322.519 872.23 305.209 875.16 304.239 875.32C304.001 875.36 303.76 875.38 303.519 875.38C302.743 875.383 301.98 875.185 301.304 874.805C300.627 874.426 300.06 873.878 299.657 873.215C299.255 872.552 299.031 871.796 299.006 871.021C298.982 870.245 299.159 869.477 299.519 868.79C307.619 853.37 307.269 803.68 306.039 775.63L283.039 803.19C282.617 803.695 282.09 804.101 281.494 804.38C280.897 804.658 280.247 804.802 279.589 804.8H279.099C278.361 804.718 277.654 804.456 277.042 804.035C276.429 803.615 275.93 803.05 275.589 802.39C275.289 801.8 274.979 801.2 274.699 800.6C253.329 756.95 274.699 703.31 286.529 679.6L255.529 694.01C254.841 694.331 254.083 694.472 253.326 694.421C252.568 694.369 251.836 694.128 251.197 693.717C250.559 693.307 250.034 692.742 249.672 692.075C249.311 691.407 249.124 690.659 249.129 689.9C249.259 665.7 275.439 615.06 288.389 591.48L267.389 600.77C266.815 601.019 266.195 601.149 265.569 601.15C264.923 601.15 264.285 601.01 263.698 600.741C263.111 600.473 262.589 600.081 262.167 599.592C261.745 599.104 261.433 598.53 261.252 597.91C261.071 597.29 261.026 596.639 261.119 596C266.289 560.58 308.999 509.55 325.119 491.35L294.499 488.29C293.787 488.22 293.103 487.98 292.502 487.592C291.902 487.204 291.402 486.678 291.046 486.057C290.69 485.437 290.488 484.741 290.455 484.026C290.422 483.312 290.561 482.6 290.859 481.95C301.099 459.5 339.419 449.83 364.779 443.43C369.269 442.3 374.129 441.07 377.609 440.02C370.609 436.57 355.199 430.84 331.189 423.73L331.019 423.68C328.469 422.91 326.919 422.47 326.909 422.47C326.086 422.235 325.348 421.77 324.78 421.13C324.212 420.489 323.838 419.7 323.703 418.855C323.567 418.01 323.676 417.144 324.015 416.359C324.355 415.573 324.911 414.901 325.619 414.42C341.339 403.77 361.509 398.37 385.559 398.37C409.079 398.37 430.329 403.64 439.929 406.44C443.629 377.06 458.039 351.5 481.839 332.22C501.209 316.53 519.839 310.53 520.579 310.29C521.019 310.152 521.478 310.081 521.939 310.08C522.744 310.079 523.535 310.295 524.228 310.704C524.922 311.113 525.493 311.7 525.882 312.405C526.271 313.11 526.464 313.906 526.441 314.711C526.417 315.515 526.178 316.299 525.749 316.98C513.059 337.12 514.649 354.15 517.329 363.64C528.861 344.762 546.195 330.125 566.739 321.92C584.529 314.81 598.739 314.67 599.319 314.67C600.206 314.671 601.073 314.934 601.811 315.426C602.549 315.918 603.126 316.617 603.467 317.435C603.809 318.254 603.902 319.155 603.733 320.026C603.564 320.897 603.142 321.698 602.519 322.33C591.899 333.09 587.899 341.17 586.519 346.47C650.519 296.52 711.519 292.68 714.209 292.54H714.449C715.35 292.54 716.229 292.811 716.975 293.317C717.72 293.822 718.296 294.54 718.629 295.377C718.962 296.214 719.036 297.132 718.842 298.011C718.647 298.89 718.193 299.691 717.539 300.31C717.419 300.42 705.889 311.31 694.959 323.65C674.779 346.42 675.599 352.45 675.759 353.07C676.079 354.32 676.329 355.31 679.759 355.46H680.529C687.009 355.46 698.529 352.32 715.979 347.57C728.499 344.15 744.069 339.9 763.379 335.29C785.379 330.03 811.749 327.36 841.629 327.36C867.743 327.401 893.823 329.259 919.679 332.92C920.649 333.074 921.543 333.54 922.223 334.249C922.903 334.958 923.333 335.87 923.446 336.846C923.559 337.821 923.35 338.807 922.851 339.653C922.351 340.499 921.588 341.158 920.679 341.53C919.769 341.91 918.849 342.33 917.959 342.79L917.809 342.87C893.189 355.58 891.109 391.99 891.109 403.99C895.679 404.29 900.179 404.44 904.539 404.44C906.759 404.44 908.979 404.44 911.149 404.32C912.079 404.32 912.999 404.25 913.919 404.2L915.649 404.1L917.509 403.98L918.379 403.91H918.479C918.829 403.91 919.169 403.86 919.479 403.82H919.609L921.519 403.65C922.209 403.58 922.819 403.53 923.429 403.45H923.569C923.829 403.45 924.099 403.4 924.359 403.36H924.559L926.179 403.17L927.119 403.05C927.889 402.95 928.669 402.85 929.439 402.72L930.549 402.55C930.999 402.48 931.419 402.42 931.839 402.34L932.739 402.19C933.559 402.06 934.339 401.91 935.119 401.76C935.899 401.61 936.879 401.43 937.729 401.25L939.479 400.87H939.669L940.389 400.71H940.539L941.369 400.51C942.719 400.2 944.049 399.87 945.369 399.51L946.119 399.3C947.679 398.87 948.999 398.48 950.219 398.1L951.299 397.76C951.799 397.61 952.219 397.47 952.639 397.32L954.009 396.85C954.859 396.56 955.599 396.3 956.329 396.02C957.269 395.68 958.149 395.34 959.019 395.02C959.599 394.79 960.099 394.59 960.579 394.38L962.149 393.72L962.269 393.67C963.349 393.203 964.419 392.723 965.479 392.23L966.979 391.5L968.659 390.67L969.849 390.04C971.909 388.97 973.919 387.82 975.849 386.63L976.779 386.05C977.129 385.84 977.409 385.66 977.679 385.48C977.949 385.3 978.369 385.04 978.679 384.83C979.169 384.51 979.579 384.24 979.989 383.95C981.189 383.14 982.349 382.31 983.599 381.38L984.089 381.01C985.539 379.91 986.889 378.82 988.179 377.72L988.999 377L989.069 376.94L989.789 376.29L989.909 376.19C990.159 375.98 990.409 375.75 990.639 375.53L990.899 375.29L991.899 374.39L991.989 374.31L992.689 373.64L992.909 373.43L993.729 372.62C994.619 371.71 995.329 370.96 995.959 370.27L996.039 370.19L996.479 369.7L996.569 369.61L997.429 368.61L997.749 368.23C998.119 367.8 998.469 367.38 998.799 366.98C999.129 366.58 999.489 366.11 999.799 365.73L1000.22 365.19L1000.36 365L1000.43 364.91L1001.32 363.67C1001.73 363.1 1002.05 362.61 1002.32 362.24L1002.75 361.56V361.46C1003.01 361.003 1003.35 360.594 1003.75 360.25C1004.57 359.547 1005.61 359.16 1006.69 359.16C1006.95 359.158 1007.21 359.182 1007.46 359.23C1008.12 359.342 1008.74 359.6 1009.28 359.984C1009.83 360.368 1010.28 360.869 1010.61 361.45C1011.04 362.21 1020.94 380.6 1002.51 419.52C993.609 438.31 989.989 447.52 988.509 451.95C1030.61 455.34 1054.99 470.46 1068.16 482.81C1083.29 497 1087.43 510.69 1087.6 511.27C1087.79 511.941 1087.83 512.648 1087.71 513.335C1087.58 514.022 1087.3 514.671 1086.88 515.23C1086.46 515.789 1085.92 516.243 1085.29 516.555C1084.67 516.867 1083.98 517.03 1083.28 517.03C1083.14 517.04 1082.99 517.04 1082.85 517.03C1082.6 517.03 1057.43 514.6 1034.73 512.79C1033.86 512.72 1033.06 512.68 1032.36 512.68C1031.82 512.68 1031.36 512.68 1031.04 512.73C1031.04 512.73 1031.14 512.94 1031.16 512.99C1033.26 517.21 1039.46 524.36 1047.28 533.39C1053.6 540.67 1061.46 549.74 1069.48 559.99C1095.2 592.85 1118.57 596.51 1121.15 596.82H1121.33C1122.35 596.877 1123.32 597.279 1124.08 597.96C1124.84 598.642 1125.35 599.562 1125.52 600.57C1125.69 601.578 1125.51 602.613 1125.01 603.505C1124.51 604.398 1123.73 605.094 1122.78 605.48L1102.67 613.62C1090.19 618.62 1077.51 619.73 1069.07 619.73H1067.51C1072.3 629.79 1080.62 648.73 1083.51 664.86C1087.99 689.78 1088.01 700.5 1083.58 705.79C1082.76 706.797 1081.72 707.605 1080.55 708.152C1079.37 708.699 1078.09 708.972 1076.79 708.95C1075.92 708.948 1075.06 708.844 1074.22 708.64C1070.15 707.64 1065.88 704.19 1061.37 700.48C1059.7 699.1 1057.25 697.1 1055.43 695.88C1055.61 699.416 1056.11 702.928 1056.94 706.37C1064.54 741.96 1049.63 798.62 1048.99 801.02C1048.74 801.974 1048.18 802.818 1047.4 803.422C1046.61 804.026 1045.66 804.356 1044.67 804.36C1043.69 804.361 1042.73 804.039 1041.95 803.445C1041.17 802.851 1040.6 802.017 1040.34 801.07C1037.19 789.85 1032.76 778.79 1029.89 774.63C1029.09 777.162 1028.52 779.763 1028.2 782.4C1022.62 821.4 999.599 838 998.619 838.69C997.865 839.233 996.958 839.523 996.029 839.52C995.596 839.516 995.165 839.453 994.749 839.33C994.097 839.138 993.498 838.801 992.996 838.343C992.493 837.886 992.101 837.321 991.849 836.69C991.109 834.84 973.849 790.95 982.729 751.18C985.959 736.73 988.019 726.78 989.329 720C984.899 724.54 979.919 728.58 974.809 728.58C971.149 728.58 966.259 726.64 963.809 717.37C960.039 703.37 946.559 667.47 937.809 644.56L935.719 672.43C935.639 673.467 935.204 674.445 934.486 675.198C933.768 675.95 932.811 676.432 931.779 676.56C931.596 676.57 931.412 676.57 931.229 676.56C930.284 676.56 929.363 676.263 928.597 675.71C927.83 675.157 927.257 674.377 926.959 673.48C923.059 661.75 886.799 634.81 829.959 601.42C829.397 601.085 828.754 600.909 828.099 600.91C827.602 600.902 827.109 601 826.652 601.196C826.195 601.393 825.785 601.684 825.449 602.05C825.298 602.219 825.191 602.422 825.137 602.641C825.083 602.861 825.083 603.091 825.139 603.31C834.969 649.21 818.729 687.24 815.369 694.4C815.159 694.86 814.939 695.3 814.729 695.75C814.375 696.486 813.828 697.112 813.147 697.563C812.465 698.014 811.675 698.272 810.859 698.31H810.669C809.886 698.309 809.117 698.105 808.437 697.718C807.757 697.33 807.189 696.773 806.789 696.1C794.129 674.62 768.409 660.86 743.529 647.55C740.339 645.85 737.179 644.15 734.079 642.46C722.739 636.28 711.479 628.21 701.539 621.09C693.539 615.38 683.919 608.46 679.289 606.74C680.989 614.74 693.769 638.15 706.159 657.5C706.595 658.18 706.84 658.965 706.869 659.773C706.897 660.58 706.707 661.38 706.32 662.089C705.932 662.798 705.361 663.39 704.665 663.801C703.97 664.213 703.177 664.43 702.369 664.43H701.999C678.359 663.14 648.779 647.91 614.069 619.19C603.509 610.45 599.279 609.77 598.239 609.77H597.999C597.96 609.851 597.926 609.934 597.899 610.02V610.11C597.675 611.094 597.624 612.109 597.749 613.11C597.749 613.16 597.749 613.21 597.749 613.26C597.761 613.401 597.781 613.541 597.809 613.68C597.871 614.01 597.901 614.345 597.899 614.68C597.199 659.79 587.299 685.56 579.119 699.23C579.089 699.288 579.055 699.345 579.019 699.4C576.928 703.055 574.384 706.431 571.449 709.45C571.299 709.61 571.139 709.76 570.959 709.92C570.359 710.447 569.63 710.804 568.846 710.956C568.062 711.108 567.252 711.048 566.499 710.784C565.746 710.519 565.076 710.059 564.56 709.45C564.043 708.841 563.698 708.106 563.559 707.32C561.869 697.86 560.149 688.87 558.489 680.19C555.269 663.35 552.489 648.82 551.409 638.19C550.859 632.75 549.609 630.42 549.039 629.81C548.289 630.11 544.919 631.97 539.409 642.53C535.329 650.33 535.989 673.13 536.579 693.25C537.579 726.52 537.579 747.31 529.579 755.47C528.558 756.554 527.326 757.416 525.959 758.004C524.591 758.593 523.118 758.894 521.629 758.89C521.003 758.887 520.378 758.841 519.759 758.75C505.759 756.62 495.499 747.17 489.319 739.62C489.225 739.527 489.112 739.455 488.988 739.408C488.864 739.362 488.731 739.342 488.599 739.35C488.324 739.344 488.053 739.417 487.819 739.56C485.819 774.82 489.339 845.67 489.369 846.38C489.427 847.504 489.062 848.609 488.346 849.478C487.63 850.346 486.614 850.914 485.499 851.07C485.293 851.085 485.085 851.085 484.879 851.07C483.861 851.069 482.873 850.724 482.076 850.09C481.278 849.457 480.719 848.572 480.489 847.58C478.899 840.58 470.779 830.65 458.609 820.67C454.309 854.86 477.999 935.89 478.259 936.76C478.489 937.556 478.497 938.4 478.282 939.2C478.067 940 477.637 940.727 477.039 941.3C476.204 942.097 475.094 942.542 473.939 942.54C473.434 942.538 472.934 942.45 472.459 942.28C471.209 941.85 469.989 941.37 468.819 940.87C468.029 940.53 467.229 940.17 466.439 939.78C464.869 939.02 463.309 938.19 461.829 937.32C460.909 936.77 459.969 936.18 458.949 935.51C458.099 934.96 457.189 934.34 456.279 933.68C455.599 933.19 454.899 932.68 454.199 932.12C450.255 929.039 446.557 925.655 443.139 922C442.529 921.36 441.909 920.69 441.289 920C440.399 919 439.469 918 438.439 916.76C437.839 916.05 437.249 915.34 436.669 914.62C434.159 911.55 431.569 908.1 428.999 904.41C428.469 903.65 427.939 902.89 427.419 902.12C426.612 900.913 425.812 899.7 425.019 898.48C424.519 897.7 424.019 896.93 423.529 896.15C422.759 894.92 422.019 893.72 421.289 892.52C420.559 891.32 419.859 890.16 419.159 888.96L419.079 888.83C417.819 886.68 416.489 884.33 415.009 881.63C409.099 871 403.999 860.39 399.999 851.89C397.339 846.36 394.929 841.32 392.949 837.68C390.419 859.33 391.249 923.68 392.609 966.68C392.626 967.282 392.523 967.882 392.305 968.444C392.086 969.005 391.758 969.517 391.338 969.95C390.919 970.382 390.417 970.726 389.862 970.962C389.308 971.197 388.712 971.319 388.109 971.32L388.059 971.28Z" fill="#CE44A2"/>
<path id="Vector_33" d="M714.51 297C714.51 297 668 340.85 671.51 354.16C672.51 357.96 675 359.71 679.63 359.92H680.63C692.63 359.92 717.63 350.84 764.53 339.63C789.37 333.69 816.89 331.82 841.73 331.82C867.584 331.846 893.405 333.69 919 337.34C917.89 337.79 916.82 338.34 915.79 338.83C883.24 355.63 886.79 408.13 886.79 408.13C893.02 408.66 898.96 408.9 904.62 408.9C906.93 408.9 909.18 408.9 911.39 408.78C912.39 408.78 913.3 408.7 914.25 408.65C914.86 408.65 915.46 408.59 916.06 408.54C916.66 408.49 917.33 408.47 917.95 408.42L918.85 408.35L920.08 408.25L922.08 408.06C922.75 408 923.41 407.94 924.08 407.86C924.43 407.86 924.79 407.79 925.14 407.74C925.73 407.68 926.31 407.61 926.89 407.53L927.77 407.41C928.6 407.31 929.44 407.2 930.27 407.07L931.37 406.9L932.72 406.68C933.02 406.62 933.33 406.58 933.63 406.53C934.457 406.39 935.277 406.24 936.09 406.08C936.99 405.91 937.88 405.74 938.76 405.55L940.6 405.15C940.93 405.09 941.26 405.01 941.6 404.93L942.6 404.7C944.01 404.38 945.39 404.03 946.74 403.7L947.57 403.47C949 403.08 950.39 402.67 951.76 402.24C952.14 402.13 952.53 402.01 952.9 401.88C953.27 401.75 953.9 401.58 954.33 401.41L955.74 400.93C956.54 400.66 957.33 400.38 958.1 400.09C959.1 399.74 960 399.38 960.92 399L962.52 398.35L964.24 397.62C965.373 397.134 966.483 396.634 967.57 396.12L969.17 395.35C969.77 395.06 970.36 394.77 970.93 394.47L972.14 393.84C974.35 392.69 976.44 391.49 978.41 390.28L979.41 389.68L980.41 389.07C980.77 388.84 981.12 388.62 981.47 388.38L982.84 387.46C984.14 386.58 985.383 385.69 986.57 384.79L987.14 384.36C988.647 383.22 990.06 382.084 991.38 380.95C991.61 380.76 991.84 380.57 992.06 380.37L992.92 379.61C993.24 379.34 993.56 379.05 993.86 378.77L994.02 378.62L995.02 377.62C995.32 377.35 995.6 377.07 995.88 376.8L996.03 376.65C996.36 376.34 996.67 376.02 996.98 375.71C997.81 374.86 998.59 374.05 999.3 373.27C999.507 373.05 999.707 372.83 999.9 372.61C1000.3 372.17 1000.67 371.74 1001.03 371.33C1001.39 370.92 1001.92 370.28 1002.32 369.78C1002.72 369.28 1003.05 368.87 1003.32 368.44L1003.64 368.03C1003.77 367.87 1003.89 367.72 1004 367.56L1004.93 366.27C1005.39 365.62 1005.75 365.08 1006.02 364.66L1006.21 364.36L1006.34 364.15L1006.51 363.88L1006.57 363.78C1006.59 363.749 1006.61 363.716 1006.62 363.68C1006.62 363.68 1016.02 380.35 998.37 417.61C980.72 454.87 983 456.07 983 456.07C1068 460.81 1083.17 512.51 1083.17 512.51C1083.17 512.51 1057.98 510.09 1034.98 508.26C1033.98 508.18 1033.07 508.14 1032.25 508.14C1026.08 508.14 1024.82 510.4 1026.93 514.77C1031.02 523.19 1047.66 539.5 1065.83 562.77C1092.42 596.77 1116.83 600.85 1120.51 601.29C1120.67 601.301 1120.82 601.301 1120.98 601.29L1100.87 609.43C1089.02 614.23 1076.87 615.21 1068.96 615.21C1065.95 615.234 1062.95 615.077 1059.96 614.74C1060.42 615.62 1075.07 643.74 1078.96 665.62C1082.74 686.62 1084.74 704.41 1076.67 704.41C1076.15 704.407 1075.63 704.343 1075.12 704.22C1068.88 702.76 1058.43 690.33 1053.52 690.33C1050.68 690.33 1049.69 694.47 1052.42 707.27C1059.88 742.27 1044.52 799.82 1044.52 799.82C1044.52 799.82 1035.82 768.73 1029.19 768.73C1026.96 768.73 1024.95 772.26 1023.6 781.73C1018.23 819.22 995.88 834.99 995.88 834.99C995.88 834.99 978.29 790.99 986.97 752.13C995.65 713.27 995.97 706.53 995.97 706.53C992.32 708.45 982.12 724.05 974.66 724.05C971.9 724.05 969.51 721.92 967.97 716.17C963.86 700.89 948.44 660.17 940.07 638.46C939.807 637.841 939.36 637.317 938.789 636.959C938.219 636.601 937.553 636.427 936.88 636.46C936.062 636.397 935.252 636.65 934.615 637.168C933.979 637.685 933.565 638.427 933.46 639.24L931 672.06C925 653.93 862.16 615.24 832 597.54C830.746 596.801 829.316 596.411 827.86 596.41C823.49 596.41 819.56 599.89 820.5 604.25C830 648.63 814.5 685.25 811.06 692.49L810.43 693.81C795.43 668.38 763.43 653.47 735.99 638.51C711.34 625.07 686.12 601.84 677.32 601.83C676.886 601.802 676.451 601.872 676.048 602.035C675.645 602.198 675.283 602.449 674.99 602.77C669.56 609.06 702.13 659.93 702.13 659.93C675.83 658.49 644.43 638.56 616.82 615.71C607.31 607.84 601.56 605.26 598.12 605.26C597.049 605.208 595.995 605.542 595.149 606.2C594.303 606.859 593.722 607.799 593.51 608.85C593.125 610.389 593.02 611.985 593.2 613.56C593.23 613.896 593.277 614.23 593.34 614.56C592.64 659.77 582.46 684.73 575.2 696.86L575.11 697.02C573.203 700.366 570.882 703.457 568.2 706.22C568.115 706.312 568.025 706.399 567.93 706.48C562.93 678.41 557.43 653.42 555.83 637.71C555.03 629.85 552.67 625.22 549.14 625.22C545.61 625.22 540.89 629.83 535.36 640.42C524.48 661.24 542.75 754.36 521.62 754.36C521.222 754.359 520.824 754.329 520.43 754.27C508.11 752.39 498.79 744.07 492.79 736.74C492.278 736.127 491.635 735.636 490.908 735.304C490.181 734.972 489.389 734.806 488.59 734.82C486.01 734.82 483.48 736.47 483.32 739.18C481.23 775.07 484.87 846.58 484.87 846.58C482.15 834.7 466.56 821.21 459.35 815.51C457.12 813.75 455.69 812.73 455.69 812.73C446 843.16 474 938.1 474 938.1C472.87 937.7 471.76 937.27 470.66 936.8C469.92 936.48 469.19 936.15 468.47 935.8C467.017 935.134 465.587 934.367 464.18 933.5C463.27 932.97 462.38 932.4 461.49 931.82C460.6 931.24 459.81 930.69 458.99 930.1C458.17 929.51 457.65 929.1 456.99 928.6C453.22 925.658 449.686 922.424 446.42 918.93C445.82 918.3 445.22 917.65 444.62 917C443.69 916 442.78 914.94 441.88 913.88C441.31 913.2 440.74 912.52 440.18 911.82C437.58 908.64 435.09 905.3 432.7 901.82C432.18 901.07 431.7 900.33 431.16 899.57C430.37 898.4 429.58 897.22 428.81 896.02C428.32 895.26 427.81 894.5 427.35 893.73C426.61 892.55 425.87 891.37 425.15 890.17C424.43 888.97 423.72 887.8 423.02 886.61C423.009 886.58 422.992 886.553 422.97 886.53C421.58 884.17 420.25 881.8 418.97 879.45C407.12 857.96 398.87 837.45 394.02 830.75L393.91 830.59L393.4 829.96C392.59 828.96 391.89 828.45 391.3 828.45C391.029 828.458 390.772 828.569 390.58 828.76C390.264 829.098 390.025 829.501 389.88 829.94C384.24 845.09 388.09 966.74 388.09 966.74C360.09 948.11 346.62 906.5 340.49 878.26C338.35 868.46 337.1 860.26 336.49 855.26C336.04 851.77 335.86 849.77 335.86 849.77C332.15 866.27 303.6 870.91 303.6 870.91C315.54 848 309.93 764 309.93 764L279.59 800.3C279.31 799.76 279.03 799.22 278.77 798.66C251.77 743.48 296.39 670.66 296.97 669.75L253.67 689.9C253.83 659.9 298.29 583.06 298.98 581.9L265.63 596.66C271.76 554.72 334.5 487.77 334.5 487.77L295 483.79C309 453.09 387 446.95 385.66 440.54C384.54 435.2 345.41 423.2 332.37 419.34C329.77 418.56 328.2 418.11 328.2 418.11C345.43 406.45 366.34 402.84 385.62 402.84C416.43 402.84 443.07 412.05 443.89 412.33C449.74 337.96 520.89 314.89 521.98 314.54C500.98 347.86 516.72 373.94 516.72 373.94C544.46 319.34 599.38 319.13 599.38 319.13C575.78 343.03 582.16 355.77 582.16 355.77C648.35 300.56 714.51 297 714.51 297ZM714.51 288H714.43H713.9C712.14 288.11 695.21 289.3 670.46 297.08C645.962 304.869 622.676 316.051 601.28 330.3C602.6 328.79 604.07 327.2 605.71 325.53C606.976 324.283 607.844 322.69 608.205 320.951C608.566 319.211 608.405 317.404 607.741 315.756C607.077 314.108 605.94 312.694 604.473 311.691C603.007 310.688 601.276 310.142 599.5 310.12H599.36C598.72 310.12 583.7 310.27 565.12 317.7C547.329 324.798 531.782 336.565 520.12 351.76C519.8 343.18 521.7 332 529.54 319.49C530.416 318.164 530.925 316.628 531.016 315.041C531.106 313.453 530.774 311.87 530.053 310.453C529.333 309.035 528.25 307.834 526.914 306.971C525.579 306.108 524.038 305.615 522.45 305.54H522H521.25C520.489 305.597 519.739 305.755 519.02 306.01C504.522 311.251 491.015 318.906 479.07 328.65C455.74 347.55 441.07 372.29 436.28 400.65C425.07 397.71 406.18 393.77 385.62 393.77C360.62 393.77 339.62 399.43 323.15 410.59C321.731 411.551 320.615 412.896 319.935 414.469C319.254 416.041 319.036 417.775 319.307 419.467C319.578 421.159 320.326 422.739 321.464 424.02C322.602 425.301 324.082 426.231 325.73 426.7C325.73 426.7 327.29 427.14 329.73 427.89L329.98 427.96C343.98 432.1 355.36 435.9 363.64 438.96C337.44 445.57 297.9 455.56 286.77 479.96C286.176 481.263 285.902 482.688 285.969 484.118C286.036 485.548 286.444 486.941 287.158 488.182C287.871 489.423 288.871 490.476 290.073 491.253C291.275 492.03 292.646 492.509 294.07 492.65L316.07 494.85C297.07 517.1 261.53 562.37 256.72 595.23C256.487 596.823 256.686 598.448 257.295 599.938C257.904 601.427 258.901 602.726 260.183 603.699C261.464 604.672 262.983 605.284 264.581 605.471C266.18 605.657 267.799 605.412 269.27 604.76L278.32 600.76C275.1 606.88 271.56 613.76 268.03 621.07C252.39 653.29 244.74 675.76 244.67 689.76C244.661 691.278 245.036 692.773 245.76 694.106C246.484 695.44 247.534 696.568 248.811 697.388C250.088 698.207 251.552 698.69 253.066 698.792C254.58 698.894 256.095 698.611 257.47 697.97L277.24 688.76C274.067 696.08 271.286 703.564 268.91 711.18C264.327 725.394 261.712 740.168 261.14 755.09C260.67 772.64 263.87 788.59 270.66 802.48C270.98 803.15 271.3 803.78 271.59 804.34C272.27 805.658 273.264 806.788 274.485 807.629C275.706 808.47 277.117 808.996 278.59 809.16C278.923 809.181 279.257 809.181 279.59 809.16C280.908 809.161 282.21 808.872 283.404 808.314C284.598 807.756 285.655 806.942 286.5 805.93L302 787.51C302.84 818.05 301.75 854.9 295.55 866.69C294.827 868.065 294.472 869.603 294.519 871.155C294.567 872.707 295.015 874.22 295.82 875.548C296.625 876.875 297.76 877.972 299.115 878.731C300.469 879.491 301.997 879.886 303.55 879.88C304.033 879.88 304.514 879.84 304.99 879.76C307.13 879.42 319.36 877.21 329.78 870.7C330.32 873.65 330.96 876.84 331.7 880.22C338.62 912.12 353.16 954.34 383.1 974.22C384.475 975.141 386.078 975.664 387.731 975.732C389.385 975.801 391.025 975.413 392.472 974.609C393.919 973.806 395.117 972.62 395.933 971.181C396.75 969.741 397.153 968.104 397.1 966.45C397.1 966.14 396.1 935.83 395.88 904.05C395.7 880.9 395.95 865.24 396.35 854.66C400.35 863.05 405.35 873.33 411.11 883.8C412.63 886.57 413.95 888.9 415.25 891.1L415.36 891.29C416.12 892.58 416.82 893.74 417.49 894.85C418.16 895.96 418.95 897.23 419.71 898.44V898.5C420.22 899.31 420.71 900.1 421.23 900.89C422.09 902.22 422.95 903.51 423.68 904.6C424.23 905.41 424.76 906.19 425.31 906.97C427.95 910.75 430.6 914.28 433.2 917.47C433.77 918.17 434.38 918.91 434.99 919.63C436.06 920.89 436.99 922 437.99 923.02C438.62 923.72 439.27 924.41 439.91 925.09C443.492 928.906 447.364 932.44 451.49 935.66L451.56 935.72C452.26 936.25 452.98 936.8 453.75 937.35C454.52 937.9 455.63 938.68 456.57 939.29C457.51 939.9 458.65 940.63 459.64 941.21C461.21 942.14 462.87 943.03 464.57 943.85C465.4 944.25 466.27 944.65 467.15 945.03C468.39 945.56 469.71 946.03 471.05 946.54C472.609 947.082 474.286 947.185 475.9 946.837C477.513 946.489 478.999 945.705 480.197 944.57C481.394 943.434 482.256 941.991 482.689 940.399C483.122 938.806 483.108 937.126 482.65 935.54C482.58 935.31 475.65 911.74 470.04 884.86C464.43 857.98 462.75 841.04 462.72 830.26C470.19 837.34 475.12 843.98 476.19 848.63C476.643 850.616 477.756 852.39 479.347 853.661C480.938 854.933 482.913 855.627 484.95 855.63C485.368 855.628 485.785 855.602 486.2 855.55C488.431 855.241 490.465 854.105 491.9 852.368C493.335 850.632 494.067 848.42 493.95 846.17C493.95 845.52 490.95 785.92 492 749.07C500.21 756.89 509.47 761.74 519.16 763.22C520.004 763.347 520.857 763.411 521.71 763.41C523.802 763.42 525.874 763 527.797 762.176C529.72 761.352 531.454 760.142 532.89 758.62C542.24 749 542.1 727.47 541.11 693.14C540.57 674.54 539.9 651.39 543.43 644.63C544.498 642.569 545.677 640.566 546.96 638.63V638.72C548.05 649.51 550.85 664.13 554.09 681.07C555.75 689.74 557.47 698.71 559.15 708.15C559.429 709.722 560.121 711.191 561.155 712.407C562.189 713.623 563.527 714.542 565.033 715.071C566.54 715.599 568.159 715.717 569.726 715.413C571.293 715.109 572.751 714.394 573.95 713.34C574.1 713.2 574.36 712.98 574.66 712.67C577.848 709.393 580.616 705.731 582.9 701.77L583 701.59V701.5C591.36 687.5 601.43 661.38 602.34 616.29C605.417 618.205 608.348 620.344 611.11 622.69C646.58 652.05 677.04 667.62 701.67 668.96H702.16C703.776 668.961 705.363 668.527 706.753 667.703C708.143 666.88 709.286 665.697 710.061 664.279C710.837 662.861 711.216 661.261 711.16 659.646C711.103 658.031 710.613 656.461 709.74 655.1C709.67 655 702.98 644.53 696.32 632.76C692.65 626.27 690.02 621.22 688.14 617.32C691.66 619.72 695.44 622.43 698.71 624.77C708.71 631.97 720.14 640.13 731.71 646.44C734.84 648.15 738.07 649.88 741.2 651.55C765.52 664.55 790.68 678.02 802.71 698.41C803.505 699.759 804.638 700.877 805.997 701.654C807.356 702.431 808.895 702.84 810.46 702.84H810.85C812.48 702.771 814.06 702.259 815.421 701.361C816.783 700.463 817.875 699.211 818.58 697.74L819.24 696.35C822.59 689.2 838.39 652.22 830.24 606.96C845.64 616 866.82 629 885.42 642C917.83 664.69 921.99 673.38 922.49 674.89C923.086 676.682 924.23 678.241 925.761 679.347C927.292 680.452 929.132 681.048 931.02 681.05C931.395 681.052 931.769 681.028 932.14 680.98C934.203 680.723 936.112 679.76 937.545 678.254C938.978 676.748 939.845 674.793 940 672.72L940.58 665.02C950.39 691.08 957.04 710.02 959.31 718.5C962.71 731.15 970.4 733.04 974.69 733.04C977.372 732.992 980.005 732.306 982.37 731.04C981.27 736.29 979.9 742.59 978.22 750.13C969.04 791.25 986.79 836.4 987.55 838.3C988.054 839.563 988.838 840.695 989.843 841.611C990.847 842.527 992.047 843.204 993.35 843.59C994.182 843.832 995.044 843.957 995.91 843.96C997.769 843.96 999.582 843.383 1001.1 842.31C1002.1 841.61 1024.29 825.56 1031.53 788.92C1033.07 793.02 1034.61 797.67 1035.88 802.23C1036.41 804.122 1037.54 805.787 1039.11 806.974C1040.68 808.16 1042.59 808.801 1044.55 808.8H1044.61C1046.58 808.788 1048.5 808.128 1050.06 806.921C1051.62 805.714 1052.74 804.027 1053.25 802.12C1053.89 799.7 1068.8 743.04 1061.46 706.36C1065.3 709.42 1069.07 712.02 1073.11 712.96C1074.29 713.244 1075.49 713.388 1076.7 713.39C1078.66 713.408 1080.59 712.988 1082.36 712.163C1084.14 711.338 1085.7 710.128 1086.95 708.62C1093.12 701.23 1092.03 687.24 1087.85 664C1085.41 650.41 1079.23 634.86 1074.39 624.05C1084.63 623.607 1094.73 621.475 1104.27 617.74L1124.38 609.61C1126.27 608.849 1127.85 607.466 1128.85 605.69C1129.86 603.915 1130.23 601.85 1129.91 599.836C1129.58 597.822 1128.58 595.977 1127.08 594.604C1125.57 593.232 1123.64 592.412 1121.6 592.28C1119.23 592 1097.6 588.58 1072.96 557.15C1064.86 546.81 1056.96 537.69 1050.61 530.37C1046.5 525.62 1042.7 521.24 1039.83 517.65C1060.83 519.38 1082.12 521.42 1082.35 521.44C1082.64 521.455 1082.92 521.455 1083.21 521.44C1084.61 521.441 1085.99 521.116 1087.24 520.49C1088.49 519.865 1089.58 518.956 1090.42 517.837C1091.25 516.718 1091.82 515.419 1092.07 514.043C1092.32 512.667 1092.24 511.252 1091.85 509.91C1091.66 509.29 1087.19 494.46 1071.16 479.44C1061.46 470.529 1050.23 463.457 1038 458.57C1024.13 453.029 1009.54 449.47 994.67 448C996.73 442.79 1000.3 434.49 1006.48 421.42C1025.58 381.11 1015.64 361.34 1014.48 359.22C1013.82 358.052 1012.91 357.045 1011.81 356.273C1010.72 355.501 1009.46 354.984 1008.14 354.76C1007.64 354.681 1007.14 354.641 1006.64 354.64C1004.43 354.626 1002.3 355.423 1000.64 356.88C999.9 357.538 999.272 358.311 998.78 359.17L998.72 359.26L998.53 359.58L998.47 359.68C998.444 359.71 998.424 359.744 998.41 359.78L997.55 361.05C997.29 361.4 997.01 361.8 996.7 362.23L996.62 362.33L996.44 362.56L996.2 362.87C996.168 362.903 996.141 362.94 996.12 362.98L995.26 364.06L995.2 364.13C994.91 364.5 994.59 364.88 994.26 365.27L994.11 365.45L993.95 365.63C993.7 365.92 993.44 366.22 993.16 366.52L993.01 366.7L992.71 367.03L992.55 367.19C991.97 367.84 991.29 368.55 990.48 369.37L989.72 370.13L989.56 370.28L989.45 370.39L988.89 370.93L988.71 371.09C988.44 371.35 988.15 371.63 987.86 371.89L987.73 372.01L987.5 372.22L986.96 372.71L986.73 372.91L985.99 373.56C985.82 373.71 985.65 373.86 985.47 374L985.38 374.08C984.16 375.13 982.88 376.16 981.58 377.14L981.44 377.24C981.33 377.34 981.21 377.42 981.09 377.51L981.02 377.56C979.84 378.45 978.74 379.23 977.67 379.96L977.53 380.05L976.44 380.79L976.29 380.89L975.45 381.43L975.36 381.49C975.14 381.63 974.9 381.79 974.66 381.93L974.51 382.02L973.64 382.56C971.77 383.71 969.84 384.81 967.88 385.83L966.74 386.43H966.68L965.18 387.18H965.09L963.65 387.87C962.65 388.33 961.65 388.8 960.57 389.26L959 390H958.9C958.46 390.19 957.99 390.37 957.53 390.55L957.39 390.61C956.63 390.92 955.81 391.24 954.89 391.61H954.82L952.72 392.36L952.56 392.42L951.4 392.81L951.2 392.88C950.84 393.01 950.47 393.13 950.11 393.24L949.95 393.29L949.05 393.57H948.95C947.77 393.93 946.5 394.31 945.06 394.71H944.92L944.43 394.85L944.25 394.9C942.96 395.25 941.68 395.57 940.46 395.85H940.32L939.64 396.02L939.42 396.07L938.87 396.19L938.5 396.27L936.81 396.64C936.03 396.8 935.2 396.97 934.37 397.12H934.29C933.55 397.26 932.8 397.4 932.05 397.52H932L931.7 397.57L931.09 397.67L929.91 397.86L929.39 397.94L928.77 398.04C928.14 398.14 927.44 398.24 926.62 398.34L926.07 398.41H925.74H925.61L924.14 398.59L923.74 398.64C923.55 398.64 923.35 398.64 923.16 398.7H922.92L921.21 398.87H921.09C920.5 398.93 919.9 398.99 919.3 399.03H919.04L918.19 399.1H917.98L917.35 399.15H917.23C916.66 399.15 916.08 399.24 915.49 399.27H915.32C914.81 399.27 914.32 399.34 913.78 399.36H913.67L910.98 399.49C908.88 399.56 906.71 399.6 904.54 399.6C901.65 399.6 898.69 399.53 895.68 399.4C896.2 385.47 899.79 356.9 919.88 346.53L920.08 346.42C920.84 346.03 921.62 345.67 922.39 345.35C924.204 344.604 925.725 343.286 926.721 341.596C927.716 339.906 928.133 337.937 927.906 335.988C927.68 334.04 926.823 332.219 925.466 330.802C924.109 329.385 922.327 328.451 920.39 328.14C894.303 324.4 867.984 322.522 841.63 322.52C811.39 322.52 784.72 325.23 762.34 330.57C742.96 335.2 727.34 339.46 714.8 342.88C698.53 347.32 686.72 350.54 680.8 350.62C682 347.55 686.09 339.96 699.94 324.57C709.79 313.63 719.69 304.2 720.63 303.31C721.957 302.089 722.886 300.497 723.297 298.741C723.708 296.985 723.582 295.146 722.935 293.463C722.288 291.779 721.151 290.329 719.67 289.3C718.189 288.27 716.433 287.71 714.63 287.69H714.52L714.51 288Z" fill="#17091D"/>
<path id="Vector_34" d="M416.239 501.83C416.239 501.83 370.079 534.83 365.289 583.19" stroke="#17091D" stroke-width="9" stroke-linecap="round" stroke-linejoin="round"/>
<path id="Vector_35" d="M396.47 669.131C396.47 669.131 375.77 726.831 386.14 765.131" stroke="#17091D" stroke-width="9" stroke-linecap="round" stroke-linejoin="round"/>
<path id="Vector_36" d="M522.32 506.9C524.5 506.15 583.52 550.75 590.51 572.73" stroke="#17091D" stroke-width="9" stroke-linecap="round" stroke-linejoin="round"/>
<path id="Vector_37" d="M874.83 497.71C874.83 497.71 962.22 506.96 974.83 542.51" stroke="#17091D" stroke-width="9" stroke-linecap="round" stroke-linejoin="round"/>
<path id="Vector_38" d="M775.279 431.94C775.279 431.94 840.009 423.18 870.279 440.55" stroke="#17091D" stroke-width="9" stroke-linecap="round" stroke-linejoin="round"/>
<path id="Vector_39" d="M1120.53 601.25C1021.26 592.78 1026.86 515.92 1026.95 514.78C1031.04 523.2 1047.68 539.51 1065.85 562.78C1092.44 596.7 1116.87 600.81 1120.53 601.25Z" fill="#D969BD"/>
<path id="Vector_40" d="M1006.58 363.671C964.17 457.451 886.74 408.141 886.74 408.141C976.17 415.691 1005.74 365.151 1006.58 363.671Z" fill="#D969BD"/>
<path id="Vector_41" d="M919 337.341C917.89 337.791 916.82 338.341 915.79 338.831C881.25 348.891 812.22 369.121 787.54 377.111C754.06 388.001 718 417.141 700 394.341C682 371.541 624 398.721 637 378.551C649.09 359.791 675.9 359.821 679.58 359.921H680C691.8 360.201 716.81 351.011 764.44 339.631C831.9 323.531 919 337.341 919 337.341Z" fill="#D969BD"/>
<path id="Vector_42" d="M443.879 412.33C410.599 405.33 353.779 415.14 332.369 419.33C329.769 418.55 328.199 418.1 328.199 418.1C372.939 387.81 442.539 411.87 443.879 412.33Z" fill="#D969BD"/>
<path id="Vector_43" d="M1075.15 704.23C1065.3 701.93 1045 672.33 1052.45 707.23C1059.9 742.13 1044.55 799.78 1044.55 799.78C1044.55 799.78 1029 744.18 1023.63 781.68C1018.26 819.18 995.91 835 995.91 835C1025.83 788.07 1059.91 614.75 1059.91 614.75C1060.37 615.63 1075.02 643.75 1078.91 665.63C1083 687.86 1085 706.53 1075.15 704.23Z" fill="#9C398C"/>
<path id="Vector_44" d="M820 600.42C822.281 608.106 823.756 616.008 824.4 624C825.122 632.004 825.189 640.055 824.6 648.07C824.024 656.122 822.641 664.095 820.47 671.87C819.349 675.752 817.976 679.556 816.36 683.26C814.724 686.941 812.763 690.468 810.5 693.8C811.6 689.93 812.7 686.15 813.57 682.32C814.44 678.49 815.22 674.67 815.87 670.82C817.16 663.13 818.02 655.39 818.62 647.62C819.22 639.85 819.53 632.02 819.7 624.16C819.87 616.3 819.93 608.43 820 600.42Z" fill="#D969BD"/>
<path id="Vector_45" d="M593.58 608.851C594.235 617.448 594.235 626.083 593.58 634.681C592.969 643.283 591.827 651.839 590.16 660.301C588.538 668.844 586.111 677.215 582.91 685.301C581.283 689.378 579.274 693.292 576.91 696.991C574.49 700.631 571.66 704.161 568.01 706.551C570.624 703.222 572.746 699.534 574.31 695.601C575.919 691.733 577.295 687.773 578.43 683.741C580.78 675.681 582.57 667.431 584.25 659.151C585.93 650.871 587.39 642.501 588.88 634.151C590.37 625.801 591.83 617.311 593.58 608.851Z" fill="#D969BD"/>
<path id="Vector_46" d="M705.48 466.571C705.48 466.571 768.17 455.521 817.93 500.441C867.69 545.361 886.93 549.071 886.93 549.071C886.93 549.071 823.18 550.601 796.85 518.941C770.52 487.281 705.48 466.571 705.48 466.571Z" fill="#D969BD"/>
<path id="Vector_47" d="M299 581.851C299 581.851 298.35 643.461 253.68 689.851C253.84 659.851 298.3 583.011 298.99 581.851H299Z" fill="#9C398C"/>
<path id="Vector_48" d="M278.769 798.66C251.769 743.48 296.389 670.66 296.969 669.75C296.969 669.75 277.639 742.54 278.769 798.66Z" fill="#9C398C"/>
<path id="Vector_49" d="M455.761 812.771C455.761 812.771 457.191 813.771 459.421 815.551L431.701 783.181C425.081 775.461 411.331 777.311 407.651 786.411L405.221 792.411C400.131 805.011 382.221 809.201 370.631 800.481C363.131 794.811 351.631 797.761 348.631 805.691C348.232 806.727 347.634 807.675 346.871 808.481C342.351 813.201 333.761 812.101 330.971 806.481L309.971 763.971C309.971 763.971 315.581 847.971 303.561 870.891C303.561 870.891 332.111 866.251 335.821 849.751C335.821 849.751 336.001 851.751 336.451 855.241C336.841 858.241 337.451 862.421 338.331 867.361L338.391 867.681C338.391 867.971 338.501 868.261 338.551 868.551C338.601 868.841 338.661 869.171 338.721 869.491L338.781 869.791C343.941 897.431 357.141 946.161 388.101 966.791C388.101 966.791 384.251 845.141 389.891 829.991C390.036 829.551 390.274 829.149 390.591 828.811L390.041 830.181C390.791 828.181 391.911 828.281 393.411 830.011L393.921 830.641L394.031 830.801C398.851 837.311 407.091 857.881 418.981 879.501C420.281 881.851 421.621 884.221 422.981 886.581C423.003 886.603 423.02 886.631 423.031 886.661C423.731 887.851 424.441 889.041 425.161 890.221C425.881 891.401 426.621 892.601 427.361 893.781C427.841 894.551 428.361 895.311 428.821 896.071C429.591 897.271 430.381 898.451 431.171 899.621C431.681 900.381 432.171 901.121 432.711 901.871C435.101 905.301 437.591 908.641 440.191 911.871C440.751 912.571 441.321 913.251 441.891 913.871C442.791 914.941 443.701 915.981 444.631 917.001C445.221 917.651 445.821 918.291 446.431 918.931C449.696 922.425 453.23 925.658 457.001 928.601C457.671 929.111 458.341 929.601 459.001 930.101C459.661 930.601 460.661 931.271 461.501 931.821C462.341 932.371 463.281 932.971 464.191 933.501C465.597 934.334 467.027 935.101 468.481 935.801C469.201 936.151 469.931 936.481 470.671 936.801C471.771 937.271 472.881 937.701 474.011 938.101C474.001 938.101 446.001 843.161 455.761 812.771Z" fill="#9C398C"/>
</g>
</g>
</g>
</svg>
