<svg width="1360" height="1602" viewBox="0 0 1360 1602" fill="none" xmlns="http://www.w3.org/2000/svg">
<g id="Hair 10">
<g id="Head 2">
<g id="1 neck">
<path id="Vector" d="M673.29 1541.5C662.675 1541.51 652.093 1540.33 641.74 1537.98C605.93 1529.84 575.8 1514.98 540.99 1488.22C532.66 1481.8 532.04 1474.78 532.99 1470.01C536.13 1453.91 540.14 1271.41 540.3 1250.77C540.35 1244.63 540.36 1228.71 540.3 1212.03C540.3 1201.03 540.2 1179.92 539.99 1161.93C539.85 1150.34 539.68 1142.93 539.5 1139.23L539.08 1131.02L546.22 1135.09C547.32 1135.72 551.77 1137.88 556.49 1140.16C575.14 1149.16 583.84 1153.59 586.1 1155.75C589.26 1158.32 613.15 1165.86 623.35 1169.07C633.03 1172.07 634.35 1172.58 635.3 1173.14C642.88 1177.75 651.03 1181.19 659.67 1184.83C666.17 1187.57 672.9 1190.41 680.01 1193.98C691.4 1199.7 696.85 1202.25 699.01 1202.25C699.807 1202.19 700.593 1202.03 701.35 1201.78C704.05 1201.06 708.14 1199.96 716.96 1199.96C720.52 1199.96 724.64 1200.14 729.19 1200.5C737.93 1200.59 742.26 1206.24 745.43 1210.38C748.15 1213.92 749.43 1215.38 751.58 1215.38C752.574 1215.35 753.555 1215.14 754.48 1214.78L760.61 1212.59L760.5 1219.1C760.5 1221.44 760.5 1224.89 760.57 1228.81C760.78 1238.35 761.3 1250.02 762 1260.81C762.46 1267.98 763 1299 763.67 1334.93C764.67 1388.56 766.1 1469.54 767.61 1476.17C770.17 1483.99 768.61 1491.63 763.19 1498.27C740.59 1525.84 715.87 1539.07 683.02 1541.16C679.77 1541.39 676.5 1541.5 673.29 1541.5Z" fill="#E68856"/>
<path id="Vector_2" d="M544 1139C547.84 1141.19 579.87 1156 583 1159C587.51 1163.38 631 1175.82 633 1177C646.52 1185.24 661.42 1189.67 678 1198C691.79 1204.92 696 1206.75 699 1206.75C702.42 1206.75 704.43 1204.46 716.94 1204.46C720.19 1204.46 724.13 1204.61 728.94 1205H729.01C741.4 1205 741.83 1219.86 751.52 1219.86C753.052 1219.84 754.569 1219.55 756 1219C756 1221.34 756 1224.75 756.07 1228.89C756.26 1237.47 756.74 1249.2 757.51 1261.12C758.73 1280.12 760.67 1469.53 763.31 1477.52C765.444 1483.95 764.244 1489.92 759.71 1495.44C740.29 1519.13 718.02 1534.44 682.71 1536.69C679.544 1536.9 676.397 1537.01 673.27 1537C662.991 1537.01 652.743 1535.87 642.72 1533.59C604.16 1524.83 574.26 1508.12 543.72 1484.65C538.487 1480.65 536.377 1476.06 537.39 1470.89C540.7 1453.95 544.65 1268.55 544.79 1250.81C544.84 1244.99 544.85 1229.65 544.79 1212.02C544.79 1195.32 544.65 1176.56 544.48 1161.88C544.35 1151.48 544.19 1143.12 543.98 1139M534.15 1123L534.99 1139.42C535.18 1143.04 535.34 1150.42 535.48 1161.95C535.69 1179.95 535.76 1201.02 535.79 1211.95C535.84 1228.58 535.79 1244.49 535.79 1250.64C535.63 1270.71 531.58 1453.64 528.56 1469.07C527.56 1473.97 527.56 1483.46 538.23 1491.69C573.59 1518.86 604.23 1533.99 640.74 1542.28C651.417 1544.7 662.332 1545.92 673.28 1545.91C676.58 1545.91 679.96 1545.8 683.28 1545.58C701.61 1544.41 717.42 1539.92 731.6 1531.83C744.16 1524.68 755.3 1514.89 766.6 1501.06C773 1493.25 774.84 1484.26 771.92 1475.06C770.47 1466.22 769.05 1387.22 768.1 1334.8C767.42 1297.34 766.89 1267.8 766.42 1260.49C765.73 1249.74 765.21 1238.13 765 1228.64C764.91 1224.79 764.89 1221.4 764.93 1219.1L765.15 1206.1L753 1210.53C752.604 1210.68 752.191 1210.79 751.77 1210.85C750.77 1209.86 749.857 1208.79 749.04 1207.64C745.74 1203.33 740.23 1196.14 729.42 1196C724.81 1195.64 720.63 1195.46 716.99 1195.46C707.58 1195.46 703.15 1196.65 700.22 1197.46L699.03 1197.76C696.78 1197.36 687.6 1192.76 682.08 1189.98C674.83 1186.34 668.08 1183.47 661.47 1180.71C652.99 1177.13 644.98 1173.71 637.72 1169.33C636.3 1168.48 634.93 1168.02 624.82 1164.83C616.14 1162.1 593.27 1154.88 588.96 1152.22C586.22 1149.83 579.77 1146.44 558.55 1136.16C554.32 1134.11 549.55 1131.79 548.55 1131.23L534.17 1123H534.15Z" fill="#020201"/>
<path id="Vector_3" d="M757.51 1261.12C744.18 1265.34 730.292 1267.54 716.31 1267.64C676.46 1267.82 635.9 1260.01 600.72 1243.29C583.167 1234.95 567.233 1226.66 552.92 1218.41C550.03 1216.53 547.316 1214.39 544.81 1212.02C544.81 1195.32 544.17 1153.68 544 1139.02C575.84 1156.42 603.23 1200.69 639.48 1212.3C670 1222.06 693 1230 727.61 1230.65C737.13 1230.89 746.652 1230.3 756.07 1228.89C756.26 1237.47 756.74 1249.2 757.51 1261.12Z" fill="#CE6D40"/>
</g>
<g id="1 head">
<g id="head">
<path id="Vector_4" d="M763 1220C759.53 1220.44 782.42 1218.55 781 1221C774.75 1222.62 769.82 1226.5 751.13 1229.43C739.738 1231.17 728.203 1231.8 716.69 1231.3C695.32 1230.45 677.18 1228.3 656.95 1220.23C629.935 1209.45 603.955 1196.25 579.33 1180.77C574.06 1177.45 568.988 1173.82 564.14 1169.91C550.54 1158.95 540.007 1149.97 532.54 1142.97C512.34 1124 497 1099.24 485 1072C489.5 1077.86 493 1085.52 497.13 1091.52C512.27 1113.41 533.35 1134.39 552.08 1148.57C581.76 1171.06 619.17 1187.16 655 1203C679.59 1213.88 690.17 1215.06 720 1216C735.64 1216.5 756.45 1220 763 1220Z" fill="#020201"/>
<g id="face">
<path id="Vector_5" d="M755.131 1229H755.001C657.731 1221.52 581.241 1190.71 527.661 1137.42C494.148 1104.04 470.345 1062.17 458.801 1016.3C452.651 991.09 445.141 965.72 435.801 938.71C433.431 931.86 430.961 924.66 428.441 917.3L427.211 913.74C404.301 846.81 392.001 809.89 390.621 804C387.531 790.62 388.301 738.37 388.331 736.15V736C390.691 679 402.561 628.67 423.601 586.34C440.76 551.469 465.333 520.769 495.601 496.39C520.031 476.75 548.451 460.93 580.071 449.39C634.641 429.5 681.211 428.49 690.001 428.49H690.891C691.671 428.44 694.671 428.28 699.531 428.28C725.531 428.28 792.801 432.55 856.831 472.11C893.46 494.706 923.815 526.155 945.101 563.56C971.541 609.5 986.761 666.48 990.331 732.92C990.791 741.46 989.401 755.98 987.681 772.67L986.931 779.81C984.131 806.68 980.641 840.12 980.821 870.3C981.051 908.5 971.241 969.52 965.371 1002.49C963.131 1015.08 961.521 1023.2 961.501 1023.28V1023.47L961.441 1023.65C948.011 1070.05 929.071 1109.65 905.151 1141.43C885.851 1167.05 863.281 1187.65 838.061 1202.66C794.221 1228.74 756.941 1229 755.371 1229H755.131Z" fill="#E68856"/>
<path id="Vector_6" d="M699.531 432.8C746.321 432.8 970.531 447.73 985.841 733.17C986.271 741.17 984.971 755.1 983.201 772.22C980.291 800.38 976.121 837.17 976.321 870.34C976.551 908.49 966.611 969.85 960.941 1001.71C958.681 1014.4 957.091 1022.41 957.091 1022.41C898.921 1223.28 758.871 1224.54 755.371 1224.54H755.301C532.561 1207.42 476.721 1070.67 463.171 1015.23C456.741 988.88 448.931 962.9 440.101 937.23C437.361 929.23 434.471 920.85 431.521 912.23C414.901 863.83 396.611 810 395.001 803C392.001 790 392.831 736.23 392.831 736.23C395.341 675.65 408.351 627.17 427.631 588.38C503.221 436.28 675.291 433 690.001 433H691.001C691.001 433 694.001 432.8 699.531 432.8ZM699.531 423.8C694.871 423.8 691.831 423.94 690.791 424H690.001C681.081 424 633.811 425 578.561 445.21C546.471 456.91 517.621 473 492.811 492.92C462.022 517.699 437.025 548.911 419.571 584.37C398.251 627.28 386.221 678.24 383.841 735.86V736.09C383.751 741.71 383.091 791.35 386.241 805.02C387.631 811.02 400.011 848.12 423.021 915.2L424.511 919.55C426.941 926.63 429.321 933.55 431.601 940.18C440.851 967.05 448.321 992.29 454.441 1017.36C459.194 1036.64 466.157 1055.31 475.191 1073C487.91 1098.02 504.535 1120.85 524.441 1140.64C549.261 1165.32 579.391 1185.51 613.981 1200.64C654.531 1218.39 701.851 1229.45 754.611 1233.5H754.951H755.371C759.371 1233.5 796.231 1232.74 840.371 1206.5C866.101 1191.19 889.101 1170.2 908.751 1144.11C933.001 1111.91 952.191 1071.8 965.751 1024.87L965.861 1024.5L965.941 1024.12C965.941 1024.04 967.571 1015.88 969.821 1003.25C975.721 970.12 985.571 908.79 985.341 870.25C985.161 840.31 988.641 807.01 991.431 780.25C991.681 777.81 991.931 775.42 992.171 773.1C993.921 756.21 995.321 741.51 994.851 732.64C991.231 665.49 975.851 607.84 949.031 561.29C927.37 523.25 896.489 491.269 859.231 468.29C794.201 428.13 725.891 423.8 699.541 423.8H699.531Z" fill="#020201"/>
<path id="Vector_7" d="M431.52 912.28C414.9 863.83 396.61 810 395 803C392 790 392.83 736.23 392.83 736.23C395.34 675.65 408.35 627.17 427.63 588.38C419.63 618.25 406.09 699.57 438.63 846.94C452 907.59 446 921.56 431.52 912.28Z" fill="#CE6D40"/>
</g>
</g>
<path id="smile" d="M628.282 1014.74C628.515 1014.73 628.745 1014.8 628.932 1014.94C629.124 1015.07 629.262 1015.27 629.322 1015.5C629.401 1015.72 629.401 1015.96 629.322 1016.18C629.236 1016.4 629.082 1016.58 628.882 1016.7L619.882 1021.88C619.146 1022.3 618.595 1022.98 618.339 1023.79C618.083 1024.6 618.142 1025.47 618.502 1026.24C622.862 1035.85 647.912 1049.3 656.952 1053.34C686.377 1066.71 718.236 1073.9 750.552 1074.45C782.172 1074.93 805.952 1074.45 834.202 1063.25C842.002 1060.13 847.522 1056.02 850.762 1050.93C850.892 1050.71 851.079 1050.53 851.302 1050.41C851.53 1050.29 851.784 1050.23 852.042 1050.23C852.301 1050.24 852.553 1050.31 852.772 1050.45C852.997 1050.58 853.186 1050.77 853.322 1050.99L854.072 1052.26C854.543 1053.1 854.749 1054.05 854.662 1055.01C854.573 1055.96 854.189 1056.86 853.562 1057.58C843.802 1068.76 826.252 1074.58 811.562 1077.37C766.102 1085.88 720.659 1082.74 675.232 1067.97C651.94 1060.44 630.568 1047.93 612.602 1031.3C612.357 1031.08 612.071 1030.91 611.762 1030.8C611.442 1030.68 611.1 1030.64 610.762 1030.68C610.435 1030.7 610.117 1030.79 609.832 1030.95C609.543 1031.1 609.29 1031.31 609.092 1031.57L604.522 1037.38C604.343 1037.62 604.095 1037.79 603.812 1037.88C603.53 1037.97 603.224 1037.97 602.942 1037.88C602.664 1037.78 602.429 1037.58 602.273 1037.33C602.117 1037.08 602.05 1036.78 602.082 1036.49C603.052 1023.44 616.302 1015.07 628.282 1014.74Z" fill="#020201"/>
<g id="nose">
<path id="Vector_8" d="M816.822 991.859C807.632 1009.12 782.002 1028 766.882 1027.71C759.598 1027.58 752.422 1025.92 745.816 1022.85C739.21 1019.78 733.319 1015.36 728.522 1009.88C725.202 1006.07 722.932 1002.23 723.272 999.049C723.394 997.919 723.935 996.875 724.788 996.124C725.642 995.373 726.745 994.968 727.882 994.989L776.002 997.779C789.879 998.583 803.774 996.569 816.852 991.859H816.822ZM733.822 1005.05C734.367 1006.3 735.295 1007.35 736.472 1008.05C741.138 1011.23 746.435 1013.37 752.002 1014.32C753.003 1014.5 754.035 1014.33 754.931 1013.85C755.827 1013.37 756.535 1012.6 756.942 1011.67V1011.58C757.079 1011.23 757.134 1010.85 757.102 1010.48C757.082 1010.1 756.972 1009.74 756.782 1009.41C756.602 1009.08 756.349 1008.8 756.042 1008.58C755.743 1008.37 755.402 1008.22 755.042 1008.15L734.482 1004.26C734.383 1004.23 734.28 1004.23 734.182 1004.26C734.085 1004.3 733.999 1004.36 733.932 1004.44C733.86 1004.52 733.814 1004.61 733.802 1004.72C733.774 1004.83 733.777 1004.94 733.812 1005.05H733.822Z" fill="#CE6D40"/>
<path id="Vector_9" d="M733.811 1005.05C733.787 1004.94 733.787 1004.83 733.811 1004.73C733.828 1004.63 733.873 1004.53 733.942 1004.45C734.011 1004.37 734.096 1004.31 734.192 1004.27C734.29 1004.24 734.393 1004.24 734.491 1004.27L755.002 1008.15C755.364 1008.21 755.706 1008.36 756.002 1008.58C756.309 1008.8 756.562 1009.08 756.741 1009.41C756.93 1009.74 757.043 1010.1 757.072 1010.48C757.095 1010.85 757.037 1011.23 756.902 1011.58V1011.67C756.498 1012.6 755.792 1013.37 754.897 1013.85C754.003 1014.33 752.972 1014.5 751.971 1014.32C746.406 1013.38 741.108 1011.25 736.431 1008.09C735.262 1007.38 734.345 1006.31 733.811 1005.05Z" fill="#201116"/>
<path id="Vector_10" d="M790.002 843.999C788.872 845.129 789.122 847.399 789.002 848.999C788.342 857.999 783.372 895.329 790.682 915.289C799.002 937.999 802.302 952.659 815.002 970.999C827.702 989.339 792.842 1022.22 770.422 1025.61C770.422 1025.61 764.602 1029.61 779.302 1029.33C794.002 1029.05 816.882 1013.4 822.442 995.699C828.002 977.999 826.882 974.569 822.442 966.789C818.002 959.009 798.002 923.999 796.002 898.999C794.002 873.999 800.002 852.999 792.002 843.999C791.342 843.249 791.002 842.999 790.002 843.999Z" fill="#020201"/>
</g>
<g id="glasses">
<path id="Vector_11" d="M1021 768C1022.56 769 996.432 766.57 994.002 766C990.392 768 978.522 763.54 974.352 763.36C951.212 762.3 929.995 761.607 910.702 761.28C896.882 761.07 880.052 764.42 870.292 765.28C856.685 766.5 846.798 768.547 840.632 771.42C828.312 777.2 818.598 784.97 811.492 794.73C811.13 795.228 810.819 795.76 810.562 796.32L801.252 816.79C801.039 817.263 800.733 817.688 800.352 818.04C799.966 818.389 799.513 818.658 799.022 818.83C798.534 819 798.017 819.068 797.502 819.03C796.983 818.997 796.477 818.861 796.012 818.63C784.172 812.73 772.138 810.633 759.912 812.34C755.372 812.97 751.662 812.79 747.212 815.44C746.915 815.619 746.585 815.737 746.242 815.789C745.899 815.84 745.549 815.824 745.212 815.74C744.527 815.569 743.935 815.139 743.562 814.54C739.862 808.42 737.302 799.69 734.202 794.73C725.075 780.15 712.882 770.483 697.622 765.73C660.662 754.17 621.389 749.483 579.802 751.67C566.295 752.37 556.792 752.72 551.292 752.72C536.872 752.72 497.392 754.2 493.062 768.23C491.209 774.15 490.105 782.25 489.752 792.53C489.711 793.739 489.801 794.95 490.022 796.14C491.792 806.309 492.957 816.573 493.512 826.88C493.842 834.238 494.758 841.558 496.252 848.77C501.732 875.37 507.065 898.223 512.252 917.33C515.852 931.183 523.004 943.857 533.002 954.1C533.834 954.954 534.775 955.694 535.802 956.3C553.802 966.74 569.549 972.953 583.042 974.94C600.021 977.268 617.157 978.271 634.292 977.94C651.483 977.85 668.432 973.889 683.882 966.35C690.867 962.877 697.168 958.172 702.482 952.46C709.988 944.5 714.928 938.45 717.302 934.31C722.022 926.123 727.742 912.143 734.462 892.37C738.462 880.6 740.392 861.37 741.782 852.44C742.892 845.19 745.962 839.44 752.282 836.67C768.042 829.643 782.105 831.9 794.472 843.44C798.778 847.5 800.865 851.796 800.732 856.33C799.972 877.85 801.085 896.967 804.072 913.68C809.342 943.16 831.072 976.19 864.202 980.68C875.142 982.16 889.745 983.183 908.012 983.75C921.565 984.19 937.472 980.647 955.732 973.12C970.625 967 981.605 955.91 988.672 939.85C996.205 922.75 1002.42 907.063 1007.31 892.79C1007.67 891.746 1007.91 890.666 1008.03 889.57C1008.97 881.248 1011.59 873.204 1015.74 865.93L1013.6 892.4C1006.13 922.09 995.262 950.4 973.702 970.98C972.912 971.74 938.992 1000.98 862.182 987.9C851.749 986.02 839.749 980.61 826.182 971.67C813.002 960 788.402 922.44 795.752 861.18C796.095 858.154 795.66 855.09 794.487 852.28C793.315 849.469 791.444 847.005 789.052 845.12C779.282 837.3 762.332 829.12 748.952 849.53C748.422 850.364 748.102 851.315 748.022 852.3C745.612 884.13 737.932 912.73 720.742 939.89C704.602 965.343 681.478 979.896 651.372 983.55C621.253 987.299 590.69 985.073 561.432 977C537.372 970.38 520.995 956.32 512.302 934.82C496.442 895.58 487.309 852.473 484.902 805.5C484.803 803.777 484.072 802.152 482.848 800.936C481.624 799.72 479.995 798.998 478.272 798.91C464.972 798.31 449.949 800.047 433.202 804.12C432.992 804.12 426.002 809.02 422.202 806.07C416.992 801.98 413.012 796.45 407.782 792.07C406.97 791.401 406.08 790.834 405.132 790.38C401.612 788.71 390.232 787.76 387.002 785.52C385.312 784.36 387.462 778.75 387.622 778.25C389.362 772.47 400.312 767.35 404.472 764.88C405.519 764.253 406.711 763.908 407.932 763.88L423.232 763.31C445.352 763.65 464.559 761.403 480.852 756.57C501.852 750.343 514.249 747.11 518.042 746.87C535.382 745.76 551.792 742.87 569.342 742.81C598.946 742.579 628.532 744.37 657.892 748.17C673.161 750.267 688.149 754.053 702.582 759.46C725.012 767.74 738.682 783.06 745.722 804.53C746.022 805.439 746.667 806.194 747.517 806.633C748.368 807.072 749.357 807.161 750.272 806.88C765.605 802.34 780.249 803.833 794.202 811.36C794.407 811.476 794.636 811.544 794.872 811.56C795.108 811.571 795.343 811.53 795.562 811.44C795.781 811.349 795.979 811.213 796.142 811.04C796.304 810.868 796.421 810.658 796.482 810.43C802.175 791.596 812.605 778.12 827.772 770C843.972 761.333 862.449 756.213 883.202 754.64C914.032 752.27 946.442 753.34 977.972 757.04C983.072 757.6 1016.69 765.29 1021 768ZM482.002 770.38C482.002 769.733 481.858 769.095 481.582 768.51C481.305 767.926 480.902 767.41 480.402 767C479.906 766.588 479.326 766.291 478.702 766.13C478.077 765.975 477.426 765.955 476.792 766.07C455.444 769.932 433.742 771.477 412.062 770.68C411.205 770.638 410.35 770.792 409.562 771.13C408.038 771.772 406.672 772.738 405.558 773.96C404.444 775.183 403.61 776.633 403.112 778.21C402.942 778.672 402.921 779.175 403.052 779.65C403.176 780.126 403.454 780.547 403.842 780.85L424.492 797.05C425.026 797.464 425.655 797.739 426.322 797.85C426.991 797.967 427.68 797.912 428.322 797.69C443.873 792.234 460.474 790.44 476.832 792.45C477.485 792.518 478.146 792.45 478.772 792.25C479.71 791.945 480.529 791.351 481.11 790.554C481.692 789.757 482.008 788.797 482.012 787.81L482.002 770.38Z" fill="#020201"/>
<path id="Vector_12" d="M996.002 765L1012 768C1012.16 768 1020.29 771.12 1020.44 771.22C1023.66 773.22 1025.21 776.22 1025.08 780.22C1024.7 792.486 1024.11 805.153 1023.3 818.22C1019.31 833.848 1016.78 849.813 1015.75 865.91C1011.59 873.19 1008.95 881.245 1008 889.58C1007.88 890.676 1007.64 891.756 1007.28 892.8C1002.38 907.066 996.169 922.753 988.642 939.86C981.582 955.92 970.602 967.01 955.702 973.13C937.469 980.656 921.569 984.2 908.002 983.76C889.736 983.2 875.132 982.176 864.192 980.69C831.042 976.17 809.332 943.14 804.062 913.69C801.069 896.983 799.956 877.866 800.722 856.34C800.862 851.8 798.776 847.503 794.462 843.45C782.089 831.91 768.026 829.653 752.272 836.68C745.952 839.48 742.882 845.2 741.772 852.45C740.382 861.4 738.452 880.61 734.452 892.38C727.746 912.126 722.032 926.096 717.312 934.29C714.946 938.416 710.006 944.466 702.492 952.44C697.179 958.151 690.878 962.857 683.892 966.33C668.443 973.869 651.493 977.83 634.302 977.92C617.167 978.251 600.032 977.248 583.052 974.92C569.532 972.92 553.786 966.706 535.812 956.28C534.786 955.674 533.844 954.934 533.012 954.08C522.993 943.837 515.823 931.155 512.212 917.29C507.052 898.183 501.719 875.33 496.212 848.73C494.718 841.518 493.802 834.198 493.472 826.84C492.923 816.54 491.765 806.282 490.002 796.12C489.782 794.93 489.691 793.719 489.732 792.51C490.092 782.23 491.196 774.13 493.042 768.21C497.372 754.21 536.852 752.7 551.272 752.7C556.772 752.7 566.276 752.35 579.782 751.65C621.369 749.463 660.642 754.15 697.602 765.71C712.856 770.49 725.049 780.156 734.182 794.71C737.282 799.71 739.842 808.4 743.542 814.52C743.918 815.116 744.509 815.546 745.192 815.72C745.529 815.804 745.879 815.82 746.222 815.769C746.565 815.717 746.895 815.599 747.192 815.42C751.642 812.77 755.352 812.95 759.892 812.32C772.126 810.606 784.159 812.703 795.992 818.61C796.457 818.841 796.964 818.977 797.482 819.01C797.997 819.049 798.515 818.981 799.002 818.81C799.494 818.638 799.946 818.369 800.332 818.02C800.714 817.668 801.02 817.243 801.232 816.77L810.542 796.3C810.799 795.74 811.11 795.208 811.472 794.71C818.572 784.95 828.286 777.18 840.612 771.4C846.779 768.526 856.666 766.48 870.272 765.26C880.032 764.39 896.862 761.04 910.682 761.26C929.969 761.593 951.186 762.286 974.332 763.34C978.002 763.52 995.462 764.83 996.002 765ZM547.342 770.92C505.492 781.31 513.342 822.8 514.592 854.56C514.941 864.783 516.342 874.943 518.772 884.88C523.372 903.306 527.999 917.086 532.652 926.22C548.852 957.92 578.272 960.12 610.422 961.57C640.112 962.92 664.742 963.04 686.962 945.43C700.092 935.01 707.792 920.43 714.542 905.54C719.782 893.97 721.642 878.8 724.752 866.06C727.752 853.87 727.002 841.4 727.062 829.27C727.062 823.73 724.746 815.67 720.112 805.09C716.539 797.003 712.272 791.243 707.312 787.81C703.162 784.92 692.742 781.7 677.002 776C675.792 775.56 675.282 775 674.002 775C659.732 774.91 645.682 769.29 631.232 768.57C601.339 767.07 582.449 766.356 574.562 766.43C568.242 766.49 559.169 767.986 547.342 770.92ZM999.222 806.33C996.002 770 906.802 777 883.062 778.36C856.442 779.83 820.582 792.42 816.912 823.13C815.179 837.556 814.276 855.63 814.202 877.35C814.162 892.27 817.926 910.696 825.492 932.63C831.572 950.25 840.842 957.11 858.192 962.8C875.653 968.714 894.282 970.337 912.502 967.53C930.236 964.743 940.362 963.056 942.882 962.47C950.882 960.6 956.472 957.12 961.002 952C976.043 935.224 986.845 915.089 992.502 893.28C994.416 885.946 997.459 872.613 1001.63 853.28C1004.23 841.246 1003.42 825.596 999.222 806.33Z" fill="#501C49"/>
<path id="Vector_13" d="M482.003 770.38V787.81C482.003 788.465 481.863 789.113 481.593 789.71C481.333 790.311 480.944 790.847 480.453 791.28C479.963 791.718 479.387 792.049 478.762 792.25C478.137 792.452 477.476 792.52 476.823 792.45C460.468 790.439 443.87 792.232 428.323 797.69C427.681 797.907 426.996 797.962 426.327 797.85C425.659 797.739 425.029 797.464 424.493 797.05L395.843 779.85C395.455 779.547 395.177 779.126 395.053 778.65C394.92 778.175 394.945 777.67 395.123 777.21C396.423 773.69 398.973 772.21 401.963 771C405.256 770.145 408.594 769.477 411.963 769C435.203 769.68 456.883 769.83 476.793 766.07C477.749 765.886 478.739 766.027 479.606 766.468C480.474 766.91 481.169 767.628 481.583 768.51C481.857 769.095 482.001 769.733 482.003 770.38Z" fill="#501C49"/>
<path id="Vector_14" d="M514.591 854.56C513.381 822.8 505.491 781.31 547.341 770.92C559.175 767.987 568.248 766.49 574.561 766.43C582.448 766.35 601.338 767.063 631.231 768.57C645.681 769.29 675.791 774.57 677.001 775C692.741 780.7 703.161 784.92 707.311 787.81C712.271 791.243 716.538 797.003 720.111 805.09C724.778 815.67 727.095 823.73 727.061 829.27C727.001 841.4 727.701 853.87 724.751 866.06C721.641 878.8 719.751 893.97 714.541 905.54C707.791 920.47 700.091 935 687.001 945.43C664.781 963.04 640.151 962.92 610.461 961.57C578.311 960.12 548.891 957.92 532.691 926.22C528.025 917.093 523.398 903.313 518.811 884.88C516.367 874.945 514.953 864.785 514.591 854.56ZM541.891 779.71C506.001 793.86 522.321 867.15 529.001 897.41C534.511 922.41 544.231 941.24 570.401 948.8C585.249 953.158 600.602 955.559 616.071 955.94C652.381 956.75 682.971 951 701.371 919.02C704.205 914.093 707.718 904.55 711.911 890.39C722.631 854.39 731.811 796.09 682.431 783.84C644.965 774.586 606.229 771.572 567.781 774.92C558.331 775.71 551.471 776 541.891 779.71Z" fill="#020201"/>
<path id="Vector_15" d="M1001 800C997.001 789 1001 778 920.001 776C839.001 774 829.001 793 829.001 793C817.001 805 816.001 813 814.201 824.83C812.401 836.66 814.001 834 811.381 864.83C808.761 895.66 812.001 904 814.001 913C816.001 922 826.001 943 832.751 951.21C839.501 959.42 863.001 970 886.001 970C909.001 970 942.001 972 966.001 949C990.001 926 1000 878 1004 856C1008 834 1005 811 1001 800ZM998.921 856.9C995.131 877.73 985.661 923.19 962.921 944.97C940.181 966.75 908.921 964.85 887.161 964.85C865.401 964.85 843.161 954.85 836.741 947.06C830.321 939.27 820.891 919.4 819.001 910.88C817.111 902.36 814.001 894.43 816.521 865.25C819.041 836.07 817.521 838.58 819.191 827.38C820.861 816.18 821.841 808.6 833.191 797.24C833.191 797.24 842.661 779.24 919.361 781.14C996.061 783.04 992.281 793.45 996.071 803.87C999.861 814.29 1002.71 836.06 998.921 856.9Z" fill="#020201"/>
<path id="Vector_16" d="M1029.7 798.52C1030.65 791.415 1030.65 784.215 1029.7 777.11C1029.12 772.31 1026.14 769.19 1020.76 767.75C1007.89 764.29 997.888 762.274 990.762 761.7L997.002 765C997.162 765 1020.29 771.12 1020.45 771.22C1023.66 773.22 1025.2 776.22 1025.08 780.22C1024.81 789.12 1023.5 798.65 1023 807.97C1022.9 808.77 1021.36 827.08 1019 834.97C1016.59 843.03 1010.61 877.6 1010.61 877.6C1010.61 877.6 1008 909.97 1012.53 896.6C1016.78 884.01 1028.21 808.46 1029.53 799.41L1029.59 799.03C1029.68 798.7 1029.7 798.52 1029.7 798.52Z" fill="#020201"/>
</g>
<g id="ear">
<path id="Vector_17" d="M451.271 845.47C451.271 845.47 397.611 741.33 351.811 798.66C306.011 855.99 342.691 960.79 387.001 991C431.311 1021.21 457.001 984 457.001 984L451.271 845.47Z" fill="#E68856"/>
<path id="Vector_18" d="M409.132 940.159C406.592 928.999 406.662 912.209 421.002 894.999C421.002 894.999 402.002 822.999 371.002 818.999C340.002 814.999 346.132 872.669 352.062 886.329C357.992 899.989 371.062 948.819 391.532 950.409C394.532 950.639 397.172 950.879 399.452 951.109C400.873 951.253 402.307 951.056 403.637 950.535C404.966 950.015 406.153 949.185 407.099 948.116C408.045 947.046 408.722 945.766 409.076 944.383C409.429 942.999 409.448 941.551 409.132 940.159Z" fill="#CE6D40"/>
<path id="Vector_19" d="M409.832 952.06C409.512 951.06 409.042 950.06 408.502 948.89C407.962 947.72 407.442 946.39 407.012 945.1C406.189 942.546 405.57 939.931 405.162 937.28C404.725 934.635 404.505 931.96 404.502 929.28C404.452 927.94 404.562 926.6 404.602 925.28C404.642 923.96 404.812 922.61 405.052 921.28C405.853 915.99 407.441 910.85 409.762 906.03C412.079 901.276 414.964 896.82 418.352 892.76L417.662 895.85C416.162 890 414.322 884.05 412.332 878.24C410.342 872.43 408.132 866.67 405.672 861.04C403.25 855.413 400.482 849.943 397.382 844.66C394.383 839.407 390.771 834.53 386.622 830.13C385.622 829.02 384.472 828.13 383.382 827.08C382.812 826.61 382.212 826.18 381.632 825.73C381.342 825.51 381.062 825.27 380.752 825.07L379.832 824.49C379.243 824.092 378.632 823.728 378.002 823.4L376.062 822.4C374.748 821.85 373.385 821.425 371.992 821.13C369.231 820.464 366.352 820.464 363.592 821.13C362.256 821.485 360.979 822.034 359.802 822.76C358.62 823.522 357.538 824.429 356.582 825.46C354.659 827.678 353.139 830.217 352.092 832.96C351.005 835.782 350.191 838.702 349.662 841.68C348.615 847.74 348.203 853.893 348.432 860.04C348.444 860.315 348.346 860.585 348.159 860.788C347.972 860.992 347.713 861.113 347.437 861.125C347.161 861.137 346.892 861.038 346.688 860.852C346.485 860.665 346.364 860.405 346.352 860.13C345.915 853.847 346.132 847.537 347.002 841.3C347.465 838.124 348.232 834.999 349.292 831.97C350.379 828.838 352.011 825.923 354.112 823.36C355.228 822.062 356.509 820.916 357.922 819.95C359.365 818.99 360.942 818.248 362.602 817.75C365.891 816.81 369.358 816.673 372.712 817.35C374.377 817.646 376.011 818.098 377.592 818.7L379.882 819.7C380.612 820.093 381.32 820.527 382.002 821L383.072 821.63C383.422 821.85 383.742 822.1 384.072 822.34C384.742 822.82 385.422 823.29 386.072 823.79C387.312 824.85 388.612 825.86 389.742 827.03C394.306 831.535 398.314 836.571 401.682 842.03C405.071 847.393 408.12 852.964 410.812 858.71C413.532 864.42 415.982 870.24 418.212 876.13C420.442 882.02 422.492 887.95 424.302 894.13C424.444 894.622 424.468 895.141 424.373 895.645C424.277 896.149 424.064 896.623 423.752 897.03L423.612 897.22C420.586 900.822 418.007 904.777 415.932 909C413.889 913.197 412.486 917.676 411.772 922.29C411.552 923.43 411.512 924.6 411.372 925.75C411.232 926.9 411.222 928.07 411.262 929.24C411.286 933.906 412.004 938.544 413.392 943C413.75 944.083 414.164 945.148 414.632 946.19C415.112 947.27 415.702 948.54 416.172 949.95C416.453 950.79 416.389 951.708 415.993 952.502C415.597 953.295 414.903 953.898 414.062 954.18C413.221 954.461 412.303 954.396 411.51 954.001C410.717 953.605 410.113 952.91 409.832 952.07V952.06Z" fill="#020201"/>
<path id="Vector_20" d="M383.001 932.07C381.382 928.695 379.985 925.218 378.821 921.66C377.607 918.116 376.605 914.503 375.821 910.84C374.197 903.385 373.762 895.721 374.531 888.13C374.999 884.235 375.902 880.405 377.221 876.71C377.591 875.79 377.891 874.84 378.321 873.94L379.601 871.24C380.541 869.471 381.593 867.765 382.751 866.13C383.915 864.488 385.173 862.915 386.521 861.42C387.937 859.965 389.433 858.59 391.001 857.3C394.067 854.748 397.384 852.513 400.901 850.63C402.023 849.995 403.351 849.831 404.594 850.175C405.836 850.52 406.891 851.343 407.526 852.465C408.161 853.587 408.325 854.915 407.981 856.158C407.636 857.4 406.813 858.455 405.691 859.09C405.595 859.151 405.495 859.205 405.391 859.25L405.141 859.37C402.091 860.711 399.186 862.36 396.471 864.29C395.127 865.247 393.839 866.278 392.611 867.38C391.419 868.517 390.294 869.723 389.241 870.99C388.183 872.26 387.208 873.596 386.321 874.99L385.081 877.16C384.661 877.88 384.361 878.66 383.981 879.41C382.599 882.516 381.566 885.766 380.901 889.1C379.667 896.036 379.542 903.125 380.531 910.1C380.989 913.643 381.657 917.156 382.531 920.62C383.388 924.094 384.464 927.511 385.751 930.85V930.9C385.886 931.259 385.878 931.655 385.73 932.009C385.582 932.362 385.304 932.645 384.953 932.8C384.602 932.955 384.206 932.97 383.845 932.841C383.484 932.713 383.185 932.451 383.011 932.11L383.001 932.07Z" fill="#020201"/>
<path id="Vector_21" d="M451.271 845.47C451.271 845.47 424.831 794.16 393.271 783.4C379.851 778.83 365.501 781.57 351.851 798.66C306.001 856 342.691 960.79 387.001 991C431.311 1021.21 457.001 984 457.001 984" stroke="black" stroke-width="7" stroke-linecap="round" stroke-linejoin="round"/>
</g>
<g id="eyebrow">
<path id="Vector_22" d="M534.132 736.87C533.788 736.897 533.444 736.835 533.132 736.69C532.829 736.539 532.569 736.315 532.377 736.037C532.184 735.759 532.066 735.436 532.032 735.1C532.005 734.757 532.066 734.412 532.212 734.1C545.798 705.173 567.465 687.487 597.212 681.04C607.165 678.88 620.692 678.3 637.792 679.3C658.482 680.53 682.392 687.67 695.242 704.2C703.242 714.53 710.362 728.5 706.712 740.57C706.327 741.847 705.454 742.921 704.281 743.558C703.109 744.195 701.733 744.343 700.452 743.97C671.977 735.621 642.632 730.598 613.002 729C600.902 728.333 584.568 729.137 564.002 731.41C556.232 732.26 543.282 736.2 534.132 736.87Z" fill="#201116" stroke="black" stroke-width="7" stroke-miterlimit="10"/>
<path id="Vector_23" d="M973.632 748.43L969.452 748.13C969.365 748.131 969.279 748.11 969.202 748.07C952.002 742.01 935.795 738.757 920.582 738.31C910.402 737.99 896.088 739.053 877.642 741.5C863.398 743.359 849.423 746.883 836.002 752C835.1 752.343 834.103 752.34 833.203 751.991C832.304 751.642 831.566 750.972 831.132 750.11C830.84 749.541 830.693 748.909 830.702 748.27C831.162 728.643 839.715 713.527 856.362 702.92C874.002 691.73 902.942 688.54 922.002 692.4C950.402 698.18 970.842 716.72 976.262 745.4C976.333 745.782 976.316 746.175 976.212 746.55C976.108 746.924 975.919 747.27 975.662 747.56C975.41 747.852 975.091 748.079 974.732 748.22C974.385 748.372 974.009 748.443 973.632 748.43Z" fill="#201116" stroke="black" stroke-width="7" stroke-miterlimit="10"/>
</g>
<g id="eye">
<path id="Vector_24" d="M690.883 858.63C684.223 825.48 662.273 806.87 629.693 804.63C608.233 803.16 588.303 807.07 571.583 821.16C556.173 834.16 555.123 851.51 552.773 870.3C549.713 861.593 548.889 850.863 550.303 838.11C553.716 807.23 570.616 790.527 601.003 788C626.233 785.89 662.333 792 679.923 811.27C690.356 822.69 694.539 837.657 692.473 856.17C692.233 858.477 691.703 859.297 690.883 858.63Z" fill="#020201"/>
<path id="Vector_25" d="M690.883 858.63C689.733 869.43 688.883 881.54 684.763 891.05C674.923 914.043 657.28 928.257 631.833 933.69C613.833 937.54 595.433 931.13 580.833 921.07C564.28 909.69 554.927 892.78 552.773 870.34C555.123 851.55 556.173 834.18 571.583 821.2C588.303 807.11 608.233 803.2 629.693 804.67C662.273 806.87 684.223 825.48 690.883 858.63ZM615.933 807.24C605.243 807.05 594.933 812.29 587.163 821.82C579.393 831.35 575.003 844.36 574.723 858C574.595 864.689 575.516 871.356 577.453 877.76C579.259 883.827 582.116 889.53 585.893 894.61C589.343 899.269 593.735 903.15 598.783 906C603.48 908.63 608.752 910.066 614.133 910.18C624.823 910.37 635.133 905.12 642.903 895.6C650.673 886.08 655.103 873.06 655.343 859.41C655.471 852.725 654.553 846.061 652.623 839.66C650.81 833.591 647.951 827.885 644.173 822.8C640.723 818.145 636.335 814.266 631.293 811.41C626.592 808.783 621.318 807.351 615.933 807.24Z" fill="#FDFAE9"/>
<path id="Vector_26" d="M615.933 807.239C621.319 807.352 626.595 808.791 631.293 811.429C636.336 814.278 640.724 818.155 644.173 822.809C647.95 827.894 650.81 833.6 652.623 839.669C654.552 846.071 655.47 852.735 655.343 859.419C655.103 873.069 650.633 886.089 642.903 895.609C635.173 905.129 624.833 910.379 614.133 910.199C608.75 910.073 603.48 908.631 598.783 905.999C593.735 903.152 589.346 899.271 585.903 894.609C582.118 889.533 579.257 883.829 577.453 877.759C575.516 871.356 574.594 864.688 574.723 857.999C574.963 844.349 579.443 831.329 587.173 821.809C594.903 812.289 605.243 807.049 615.933 807.239ZM636.803 830.079C635.795 830.087 634.802 830.316 633.893 830.749C632.957 831.191 632.12 831.816 631.433 832.589C630.723 833.397 630.17 834.329 629.803 835.339C629.43 836.375 629.241 837.468 629.243 838.569C629.248 840.762 630.059 842.876 631.523 844.509C632.201 845.272 633.032 845.883 633.963 846.302C634.894 846.72 635.902 846.938 636.923 846.939C637.929 846.935 638.923 846.71 639.833 846.279C640.768 845.837 641.604 845.212 642.293 844.439C643.002 843.632 643.555 842.699 643.923 841.689C644.306 840.656 644.495 839.561 644.483 838.459C644.484 836.265 643.672 834.149 642.203 832.519C641.526 831.754 640.695 831.141 639.764 830.721C638.833 830.3 637.824 830.082 636.803 830.079Z" fill="#020201"/>
<path id="Vector_27" d="M644.482 838.46C644.482 833.8 641.012 830.05 636.802 830.08C632.592 830.11 629.212 833.91 629.242 838.57C629.272 843.23 632.712 846.97 636.922 846.94C641.132 846.91 644.512 843.12 644.482 838.46Z" fill="#FDFAE9"/>
</g>
<g id="eye_2">
<path id="Vector_28" d="M944.482 884.4C945.909 870.154 945.979 859.074 944.692 851.16C942.026 834.78 932.652 822.394 916.572 814C915.125 813.25 913.552 812.772 911.932 812.59C892.386 810.364 876.892 811.167 865.452 815C847.539 821 835.052 835.604 827.992 858.81C829.559 823.077 847.402 803.334 881.522 799.58C892.856 798.34 902.039 798.36 909.072 799.64C930.842 803.59 949.002 819.09 952.822 841.76C955.196 855.82 952.416 870.034 944.482 884.4Z" fill="#020201"/>
<path id="Vector_29" d="M944.482 884.4C941.735 893.494 939.105 899.887 936.592 903.58C909.072 944.13 845.242 956.42 830.252 895C827.058 881.887 826.305 869.824 827.992 858.81C835.052 835.604 847.538 821 865.452 815C876.892 811.16 892.385 810.357 911.932 812.59C914.377 813.105 916.751 813.914 919.002 815C935.062 823.39 942.002 834.78 944.692 851.16C945.985 859.054 945.915 870.134 944.482 884.4ZM869.662 819C860.722 819.38 852.352 824.65 846.392 833.66C840.432 842.67 837.392 854.66 837.892 867.04C838.136 873.083 839.254 879.058 841.212 884.78C843.014 890.128 845.698 895.137 849.152 899.6C852.215 903.586 856.091 906.875 860.522 909.25C864.534 911.375 869.034 912.41 873.572 912.25C882.522 911.87 890.892 906.6 896.842 897.59C902.792 888.58 905.842 876.59 905.342 864.21C905.084 858.184 903.959 852.226 902.002 846.52C900.196 841.172 897.509 836.163 894.052 831.7C890.994 827.713 887.121 824.423 882.692 822.05C878.689 819.914 874.197 818.863 869.662 819Z" fill="#FDFAE9"/>
<path id="Vector_30" d="M869.671 819C874.209 818.843 878.708 819.878 882.721 822C887.151 824.373 891.024 827.662 894.081 831.65C897.535 836.128 900.212 841.155 902.001 846.52C903.958 852.242 905.073 858.217 905.311 864.26C905.831 876.62 902.781 888.64 896.821 897.64C890.861 906.64 882.491 911.92 873.551 912.3C869.011 912.458 864.508 911.424 860.491 909.3C856.062 906.927 852.189 903.637 849.131 899.65C845.674 895.187 842.987 890.178 841.181 884.83C839.228 879.111 838.113 873.139 837.871 867.1C837.351 854.73 840.411 842.72 846.361 833.71C852.311 824.7 860.721 819.42 869.671 819ZM895.831 843.83C895.867 842.862 895.708 841.898 895.363 840.993C895.017 840.089 894.493 839.263 893.822 838.566C893.15 837.869 892.345 837.314 891.454 836.936C890.563 836.557 889.604 836.362 888.636 836.362C887.668 836.362 886.71 836.557 885.819 836.936C884.928 837.314 884.123 837.869 883.451 838.566C882.78 839.263 882.255 840.089 881.91 840.993C881.565 841.898 881.405 842.862 881.441 843.83C881.438 844.777 881.625 845.716 881.991 846.59C882.353 847.459 882.879 848.25 883.541 848.92C884.548 849.926 885.831 850.612 887.227 850.889C888.624 851.167 890.071 851.024 891.386 850.48C892.702 849.935 893.826 849.012 894.617 847.829C895.408 846.645 895.831 845.254 895.831 843.83Z" fill="#020201"/>
<path id="Vector_31" d="M888.632 851.07C890.056 851.07 891.448 850.648 892.632 849.856C893.816 849.065 894.739 847.941 895.284 846.625C895.829 845.31 895.971 843.862 895.693 842.465C895.415 841.069 894.73 839.786 893.723 838.779C892.716 837.772 891.433 837.086 890.036 836.808C888.64 836.53 887.192 836.673 885.876 837.218C884.561 837.763 883.436 838.686 882.645 839.87C881.854 841.054 881.432 842.446 881.432 843.87C881.432 845.779 882.19 847.611 883.54 848.961C884.891 850.311 886.722 851.07 888.632 851.07Z" fill="#FDFAE9"/>
</g>
</g>
</g>
<g id="Hair 10_2">
<g id="hair 10">
<path id="Vector_32" d="M324 874.52C323.355 874.515 322.718 874.374 322.131 874.107C321.544 873.84 321.019 873.453 320.59 872.97C302.79 852.89 295.64 821.67 289.89 796.59C286.7 782.65 283.94 770.59 280.24 764.54C279.6 763.51 279.25 762.326 279.227 761.113C279.204 759.9 279.509 758.704 280.11 757.65C280.896 756.231 282.165 755.14 283.685 754.575C285.206 754.01 286.879 754.009 288.4 754.57L318 765.22L313.45 759.22C279.87 717.22 266.7 648.64 262.59 621.09C262.443 620.126 262.504 619.141 262.769 618.203C263.035 617.264 263.499 616.394 264.13 615.65C264.781 614.898 265.585 614.296 266.49 613.883C267.394 613.471 268.377 613.258 269.37 613.26C270.486 613.257 271.586 613.529 272.571 614.052C273.557 614.575 274.398 615.334 275.02 616.26C277.935 620.812 281.761 624.711 286.256 627.713C290.751 630.714 295.819 632.753 301.14 633.7C280.88 592.09 276.23 544.4 287.31 491.86C296.67 447.47 315.21 410.65 325.43 392.66C326.304 391.127 327.114 389.727 327.86 388.46C328.453 387.434 329.306 386.582 330.333 385.99C331.36 385.398 332.525 385.088 333.71 385.09C334.672 385.089 335.623 385.289 336.503 385.676C337.383 386.063 338.172 386.63 338.82 387.34C339.458 388.036 339.941 388.86 340.237 389.756C340.533 390.652 340.637 391.601 340.54 392.54C338.28 415.367 343.371 438.319 355.07 458.05C356.69 425.15 372.82 394.43 386.94 373.53C406.82 344.1 434.47 316.88 462.79 298.83C507.23 270.52 518.79 230.49 521.26 218.9C521.512 217.729 522.067 216.644 522.87 215.755C523.673 214.866 524.696 214.204 525.836 213.836C526.975 213.467 528.192 213.404 529.364 213.654C530.535 213.904 531.621 214.458 532.51 215.26C533.07 215.76 533.61 216.26 534.15 216.78C558.74 240.67 557.02 277.52 553.72 297.64C566.87 285.17 592.59 262.64 621.18 247.85C656.64 229.49 674.18 165.67 677.29 153.06C677.551 152.017 678.055 151.051 678.759 150.239C679.464 149.428 680.351 148.794 681.346 148.39C682.342 147.985 683.42 147.822 684.491 147.912C685.562 148.003 686.596 148.344 687.51 148.91L688.35 149.44C723.6 172.08 723.77 245.44 722.56 272.31C764.39 255.04 806.24 162.03 814.37 143.17C814.9 141.944 815.776 140.899 816.892 140.165C818.008 139.431 819.315 139.04 820.65 139.04C821.923 139.034 823.172 139.387 824.253 140.06C825.334 140.732 826.203 141.696 826.76 142.84C828.58 146.49 830.32 150.42 831.93 154.5C831.968 154.581 831.998 154.664 832.02 154.75C845.13 188.05 847.12 224.11 847.15 242.4C858.98 228.4 866.43 199.4 868.8 157.98C870.91 120.98 868.44 84.9801 867.29 71.2001C867.182 69.9142 867.44 68.6239 868.036 67.4791C868.632 66.3343 869.54 65.3819 870.655 64.7327C871.77 64.0834 873.047 63.7639 874.336 63.8112C875.626 63.8586 876.876 64.2708 877.94 65.0001C963.51 122.54 1020.37 192.18 1046.94 272C1061.28 314.776 1066.25 360.135 1061.51 405C1074.09 375.53 1089.35 336.42 1096.04 319.11C1096.59 317.669 1097.62 316.458 1098.95 315.673C1100.27 314.889 1101.83 314.577 1103.36 314.789C1104.89 315.001 1106.3 315.725 1107.36 316.842C1108.43 317.959 1109.08 319.403 1109.22 320.94C1109.4 322.86 1109.56 324.79 1109.72 326.73V326.8C1115.57 399.93 1102.28 477.62 1070.22 557.74C1057.06 590.63 1019.34 628.07 980.53 646.74C949.369 661.749 915.9 671.394 881.53 675.27H881.43C844.017 679.5 806.15 677.076 769.58 668.11L655.44 640.21C645.234 639.007 634.967 638.389 624.69 638.36C555.41 638.36 519.42 669.29 501.43 695.23C478.91 727.73 476.8 761.98 479.21 768.42C479.53 769.29 479.74 769.84 486.21 847.7C486.41 850.19 486.53 851.62 486.53 851.63C486.594 852.346 486.484 853.066 486.209 853.729C485.933 854.393 485.502 854.98 484.95 855.44C484.124 856.132 483.078 856.507 482 856.5C479.72 856.5 479.48 856.22 473.54 849.33C469.79 844.97 464.12 838.39 457.26 830.93L457.09 830.76C449.69 822.76 442.48 815.37 435.65 808.96C411.83 786.58 391.98 774.75 378.25 774.75C376.528 774.738 374.811 774.943 373.14 775.36C348.62 781.62 333.81 812 329.14 865.67C329 867.22 328.9 868.45 328.8 869.28C328.31 873.59 325.97 874.51 324.1 874.52H324Z" fill="#CE44A2"/>
<path id="Vector_33" d="M874.13 68.3003C874.587 68.2998 875.034 68.4394 875.41 68.7003C1072.58 201.29 1064.35 364.78 1054.82 419.94C1054.76 420.279 1054.77 420.627 1054.86 420.96C1054.94 421.293 1055.11 421.602 1055.33 421.864C1055.55 422.127 1055.83 422.335 1056.15 422.474C1056.46 422.614 1056.81 422.681 1057.15 422.67C1057.47 422.675 1057.78 422.61 1058.07 422.48C1058.36 422.351 1058.62 422.16 1058.83 421.92C1059 421.735 1059.14 421.522 1059.24 421.29C1072.45 391.9 1092.24 341.15 1100.24 320.66C1100.4 320.219 1100.7 319.838 1101.08 319.572C1101.47 319.305 1101.93 319.164 1102.4 319.17C1102.99 319.158 1103.56 319.371 1103.99 319.765C1104.43 320.159 1104.69 320.705 1104.74 321.29C1104.92 323.19 1105.08 325.097 1105.23 327.01C1110.85 397.12 1099.1 473.38 1066.04 556.01C1052.73 589.27 1015.24 625.01 978.58 642.66C947.859 657.433 914.872 666.932 881 670.76C869.274 672.097 857.481 672.765 845.68 672.76C820.41 672.764 795.231 669.743 770.68 663.76L656.44 635.82C656.342 635.791 656.241 635.771 656.14 635.76C645.702 634.522 635.201 633.888 624.69 633.86C486.17 633.85 468.9 753.72 475 770C475.3 770.81 480.34 831.83 481.68 848.07C481.88 850.56 482 852 482 852C481.49 852 473 841.37 460.47 827.78L460.39 827.7C454.03 820.78 446.63 813.1 438.72 805.7C419.06 787.23 396.23 770.27 378.24 770.27C376.137 770.251 374.041 770.496 372 771C325.38 782.9 325.26 870 324 870C296.95 839.49 295.15 780.3 284.11 762.2C283.895 761.846 283.779 761.44 283.773 761.026C283.767 760.611 283.87 760.203 284.074 759.842C284.277 759.481 284.573 759.18 284.931 758.971C285.288 758.761 285.695 758.651 286.11 758.65C286.39 758.652 286.667 758.703 286.93 758.8L323.38 771.92C323.639 772.017 323.913 772.067 324.19 772.07C324.623 772.065 325.046 771.94 325.412 771.709C325.778 771.478 326.072 771.15 326.263 770.761C326.454 770.373 326.533 769.939 326.492 769.508C326.451 769.077 326.291 768.666 326.03 768.32L317.03 756.42C284.3 715.52 271.31 648.83 267.03 620.42C266.977 620.086 266.998 619.745 267.092 619.421C267.185 619.096 267.349 618.795 267.571 618.541C267.793 618.286 268.068 618.084 268.378 617.947C268.687 617.81 269.022 617.743 269.36 617.75C269.736 617.745 270.108 617.833 270.442 618.008C270.775 618.182 271.06 618.438 271.27 618.75C274.935 624.425 279.862 629.176 285.666 632.633C291.47 636.09 297.994 638.159 304.73 638.68H305C305.396 638.678 305.785 638.574 306.13 638.379C306.475 638.183 306.764 637.902 306.97 637.563C307.175 637.224 307.291 636.838 307.305 636.442C307.319 636.046 307.231 635.653 307.05 635.3C257.5 538.84 308.43 431.81 329.41 394.86C330.27 393.36 331.07 391.98 331.81 390.72C332.007 390.365 332.298 390.071 332.65 389.868C333.003 389.665 333.403 389.562 333.81 389.57C334.136 389.562 334.461 389.622 334.762 389.749C335.063 389.876 335.334 390.065 335.556 390.304C335.779 390.544 335.948 390.828 336.052 391.137C336.156 391.447 336.192 391.775 336.16 392.1C331.58 442.65 359.93 472.3 359.93 472.3C359.856 471.494 359.796 470.684 359.75 469.87C355.75 408.24 411.29 337.02 465.31 302.61C511 273.5 523 232.52 525.68 219.85C525.766 219.45 525.955 219.08 526.229 218.777C526.503 218.474 526.853 218.248 527.242 218.122C527.631 217.996 528.046 217.975 528.446 218.061C528.846 218.147 529.216 218.336 529.52 218.61C530.04 219.08 530.52 219.56 531.05 220.04C556.95 245.2 551.79 286.04 548.05 303.46C547.974 303.803 547.977 304.158 548.058 304.499C548.139 304.84 548.296 305.158 548.517 305.43C548.738 305.702 549.018 305.921 549.335 306.07C549.652 306.218 549.999 306.294 550.35 306.29C550.65 306.288 550.946 306.227 551.222 306.111C551.499 305.994 551.749 305.824 551.96 305.61C553.21 304.38 554.64 302.99 556.24 301.47C569.73 288.61 595.06 266.47 623.24 251.86C660.24 232.72 678.02 168.69 681.65 154.16C681.739 153.805 681.911 153.475 682.152 153.198C682.393 152.922 682.696 152.706 683.036 152.569C683.377 152.431 683.744 152.376 684.11 152.408C684.475 152.439 684.828 152.557 685.14 152.75L685.95 153.26C721.45 176 718.9 257.83 717.93 275.31V275.37C717.912 275.687 717.959 276.003 718.068 276.3C718.178 276.598 718.347 276.87 718.565 277.099C718.783 277.329 719.046 277.511 719.338 277.635C719.629 277.759 719.943 277.822 720.26 277.82C720.514 277.82 720.767 277.779 721.01 277.7C765.3 263.28 809 167.15 818.52 145C818.698 144.579 818.998 144.22 819.38 143.969C819.763 143.717 820.212 143.586 820.67 143.59C821.103 143.585 821.529 143.704 821.897 143.933C822.266 144.161 822.562 144.49 822.75 144.88C824.59 148.59 826.25 152.37 827.75 156.21C842.33 193 842.9 234 842.62 247.72C842.613 248.032 842.669 248.341 842.783 248.631C842.898 248.921 843.069 249.185 843.287 249.407C843.505 249.63 843.765 249.807 844.052 249.927C844.34 250.048 844.648 250.11 844.96 250.11C845.52 250.109 846.061 249.903 846.48 249.53C882.11 218.53 873.96 96.6703 871.79 70.8303C871.753 70.4534 871.81 70.0732 871.957 69.724C872.103 69.3748 872.335 69.0677 872.63 68.8303C873.049 68.4759 873.581 68.2811 874.13 68.2803M874.13 59.2803C872.561 59.2834 871.01 59.6111 869.574 60.2429C868.138 60.8746 866.848 61.7966 865.786 62.9509C864.724 64.1053 863.912 65.467 863.401 66.9503C862.891 68.4337 862.693 70.0067 862.82 71.5703C863.97 85.2503 866.42 121.04 864.32 157.72C862.32 192.72 857.09 214.09 851.23 227.13C850.13 207.25 846.57 179.41 836.23 153.13L836.1 152.79C834.44 148.59 832.64 144.54 830.77 140.79C829.841 138.895 828.398 137.3 826.604 136.187C824.811 135.075 822.74 134.49 820.63 134.5C818.417 134.499 816.253 135.145 814.404 136.359C812.554 137.572 811.099 139.301 810.22 141.33C789.74 188.88 756.89 246.65 727.28 264.78C727.671 248.14 726.751 231.496 724.53 215C719.53 180.14 708.17 156.82 690.84 145.7L690.78 145.65L690.37 145.4L689.97 145.14H689.88C688.367 144.217 686.659 143.661 684.893 143.518C683.127 143.374 681.352 143.647 679.71 144.314C678.068 144.981 676.606 146.024 675.441 147.359C674.275 148.694 673.439 150.284 673 152C669.93 164.27 652.92 226.4 619.18 243.88C595.7 256.04 574.18 273.27 559.73 286.11C561.44 264.51 558.91 234.52 537.37 213.59C536.74 212.98 536.17 212.45 535.64 211.97C534.166 210.638 532.368 209.717 530.426 209.299C528.484 208.881 526.466 208.98 524.575 209.588C522.684 210.196 520.986 211.29 519.651 212.762C518.316 214.233 517.391 216.029 516.97 217.97C514.58 229.16 503.45 267.71 460.48 295.08C431.66 313.44 403.53 341.13 383.32 371.08C371.04 389.25 357.32 414.69 352.4 442.73C345.893 426.99 343.352 409.893 345 392.94C345.147 391.381 344.968 389.809 344.474 388.323C343.98 386.837 343.181 385.47 342.13 384.31C341.057 383.14 339.753 382.206 338.3 381.567C336.847 380.929 335.277 380.599 333.69 380.6C331.719 380.592 329.781 381.104 328.073 382.086C326.364 383.068 324.945 384.484 323.96 386.19C323.2 387.48 322.39 388.88 321.51 390.41C311.15 408.67 292.37 445.96 282.88 490.94C272.41 540.6 275.76 586.06 292.81 626.31C287.078 623.488 282.222 619.16 278.76 613.79C277.339 611.636 275.224 610.032 272.766 609.244C270.308 608.456 267.655 608.531 265.246 609.458C262.837 610.385 260.817 612.107 259.521 614.339C258.225 616.571 257.73 619.179 258.12 621.73C261.37 643.62 266.25 665.237 272.72 686.4C281.48 714.61 292.41 737.93 305.27 755.86L290 750.33C287.795 749.538 285.398 749.447 283.14 750.072C280.882 750.696 278.872 752.005 277.388 753.818C275.904 755.631 275.018 757.86 274.852 760.197C274.685 762.534 275.247 764.865 276.46 766.87C279.79 772.33 282.61 784.6 285.58 797.59C291.44 823.18 298.74 855.02 317.32 875.97C318.172 876.918 319.215 877.674 320.38 878.191C321.544 878.708 322.805 878.974 324.08 878.97C325.44 878.97 332.28 878.52 333.28 869.74C333.39 868.82 333.5 867.58 333.63 866.01C334.39 857.29 336.18 836.88 342.48 817.88C349.73 796.06 360.42 783.21 374.28 779.67C375.588 779.349 376.932 779.191 378.28 779.2C387.04 779.2 403.58 784.92 432.6 812.2C439.34 818.53 446.47 825.79 453.8 833.75C453.88 833.85 453.97 833.94 454.06 834.04C460.84 841.4 466.44 847.91 470.16 852.22C471.71 854.02 472.93 855.44 473.84 856.46C475.54 858.36 477.84 860.97 482.04 860.97C483.288 860.975 484.524 860.719 485.669 860.22C486.813 859.721 487.842 858.99 488.688 858.072C489.535 857.154 490.181 856.069 490.586 854.888C490.991 853.707 491.145 852.455 491.04 851.21C491.04 851.21 490.92 849.78 490.72 847.31C490.17 840.65 488.51 820.46 486.99 802.45C484.13 768.45 484.09 768.45 483.51 766.84C482.91 765.06 482.32 755.76 485.73 741.41C489.613 725.147 496.605 709.789 506.32 696.18C523.76 671.83 558.47 642.82 624.74 642.82C634.766 642.845 644.782 643.443 654.74 644.61L768.54 672.41C793.802 678.583 819.714 681.709 845.72 681.72C857.818 681.735 869.907 681.067 881.93 679.72H882.07C916.947 675.784 950.912 666 982.54 650.78C1001.45 641.66 1020.94 627.78 1037.41 611.62C1054.76 594.62 1067.56 576.57 1074.41 559.36C1090.82 518.36 1102.47 477.62 1109.03 438.36C1115.32 401.412 1117.07 363.832 1114.22 326.46C1114.22 326.43 1114.22 326.4 1114.22 326.37C1114.05 324.18 1113.89 322.26 1113.72 320.5C1113.48 317.959 1112.38 315.574 1110.62 313.732C1108.85 311.89 1106.51 310.699 1103.98 310.352C1101.45 310.005 1098.88 310.522 1096.68 311.819C1094.48 313.117 1092.79 315.118 1091.87 317.5C1086.96 330.21 1077.43 354.67 1067.74 378.4C1068.4 341.796 1062.82 305.348 1051.23 270.62C1039.03 233.95 1020.17 198.87 995.16 166.37C965.6 127.96 927.02 92.6203 880.49 61.3703C878.631 60.1098 876.436 59.4374 874.19 59.4403L874.13 59.2803Z" fill="#17091D"/>
<path id="Vector_34" d="M1058.83 421.921L1057.31 429.801L1039.79 479.141L1000.71 547.871L970.199 581.291L914.999 626.001C947.999 583.261 999.499 315.501 976.319 223.871C960.319 160.821 905.379 100.411 872.629 68.8706C873.011 68.5436 873.491 68.3517 873.993 68.3246C874.496 68.2975 874.993 68.4367 875.409 68.7206C1072.58 201.311 1064.35 364.801 1054.82 419.961C1054.74 420.455 1054.82 420.962 1055.05 421.408C1055.28 421.853 1055.64 422.212 1056.09 422.432C1056.55 422.652 1057.05 422.721 1057.55 422.629C1058.04 422.537 1058.49 422.289 1058.83 421.921Z" fill="#D969BD"/>
<path id="Vector_35" d="M1066 556C1052.69 589.26 1015.2 625 978.54 642.65C947.832 657.422 914.859 666.925 881 670.76C896 663.01 912.32 654.34 921.85 648.76C942.62 636.42 1018 582 1042 541C1058.19 513.34 1090.85 394.36 1105.19 327C1110.81 397.13 1099.06 473.39 1066 556Z" fill="#D969BD"/>
<path id="Vector_36" d="M827.77 156.17C827.36 200 815 263.13 754.06 297.82C654.5 354.5 633 355.29 633 355.29L650 336.09L705 290L717.89 275.31C717.78 277.44 717.68 278.62 717.68 278.62C769 266.74 820.45 140.4 820.45 140.4C823.205 145.505 825.649 150.771 827.77 156.17Z" fill="#9C398C"/>
<path id="Vector_37" d="M673.38 252.52C644 296 486 395 486 395L521 338L548 305L556.26 301.47C569.75 288.61 595.08 266.47 623.26 251.86C665.04 230.22 682.37 151.21 682.37 151.21C683.608 151.806 684.81 152.474 685.97 153.21C689.84 183 691.25 226.09 673.38 252.52Z" fill="#9C398C"/>
<path id="Vector_38" d="M531.049 220C533.259 249.48 529.399 297.81 488.969 331.83C426.969 383.96 393.069 408.22 376.529 440.09L359.999 472L359.669 469.9C355.669 408.27 411.209 337.05 465.229 302.64C519.999 267.77 526.389 216 526.389 216C528.009 217.253 529.565 218.588 531.049 220Z" fill="#9C398C"/>
<path id="Vector_39" d="M353.5 450.5C353.5 450.5 367.57 539.17 376.5 553.84" stroke="#17091D" stroke-width="9" stroke-linecap="round" stroke-linejoin="round"/>
<path id="Vector_40" d="M467.239 459.55C467.239 459.55 465.709 544.84 574.499 558.5" stroke="#17091D" stroke-width="9" stroke-linecap="round" stroke-linejoin="round"/>
<path id="Vector_41" d="M540.799 472.33C540.799 472.33 548.729 599 707.499 653.5" stroke="#17091D" stroke-width="9" stroke-linecap="round" stroke-linejoin="round"/>
<path id="Vector_42" d="M707.371 472.33C707.371 472.33 716.211 630.92 794.501 671.5" stroke="#17091D" stroke-width="9" stroke-linecap="round" stroke-linejoin="round"/>
<path id="Vector_43" d="M759.5 522.5C759.5 522.5 774.91 640.92 823.5 675.5" stroke="#17091D" stroke-width="9" stroke-linecap="round" stroke-linejoin="round"/>
<path id="Vector_44" d="M875.5 673.5C875.5 673.5 924.78 650.96 953.64 626.23" stroke="#17091D" stroke-width="9" stroke-linecap="round" stroke-linejoin="round"/>
<path id="Vector_45" d="M918.5 630.5C918.35 631.03 1057.5 522.23 1063.5 387.5" stroke="#17091D" stroke-width="9" stroke-linecap="round" stroke-linejoin="round"/>
<path id="Vector_46" d="M733.609 373.33C741.959 367.85 771.429 328.43 813.989 294.38C823.665 286.72 831.574 277.064 837.179 266.07C839.299 261.87 846.239 247.26 847.499 242.5" stroke="#17091D" stroke-width="9" stroke-linecap="round" stroke-linejoin="round"/>
<path id="Vector_47" d="M725.501 271.5C725.501 271.5 634.591 342.11 629.051 362.8" stroke="#17091D" stroke-width="9" stroke-linecap="round" stroke-linejoin="round"/>
<path id="Vector_48" d="M555.5 294.5C555.5 294.5 490.5 372.41 485.98 391.45" stroke="#17091D" stroke-width="9" stroke-linecap="round" stroke-linejoin="round"/>
<path id="Vector_49" d="M321 626C333.44 686.46 394.45 759.34 438.66 805.68C416.66 785 390.66 766.22 371.96 771C324.96 783 325.22 871.43 323.96 870C296.91 839.49 295.11 780.3 284.07 762.2C283.819 761.787 283.702 761.307 283.736 760.825C283.77 760.343 283.952 759.884 284.259 759.51C284.565 759.137 284.98 758.868 285.446 758.741C285.912 758.613 286.406 758.634 286.86 758.8L323.31 771.92C323.783 772.092 324.298 772.105 324.78 771.96C325.262 771.814 325.683 771.516 325.981 771.111C326.279 770.706 326.438 770.215 326.435 769.712C326.431 769.209 326.264 768.72 325.96 768.32L316.96 756.42C284.23 715.52 271.24 648.83 266.96 620.42C266.877 619.895 266.978 619.357 267.244 618.897C267.511 618.437 267.927 618.082 268.424 617.893C268.92 617.703 269.467 617.689 269.972 617.855C270.478 618.02 270.911 618.353 271.2 618.8C274.865 624.474 279.792 629.225 285.596 632.682C291.4 636.139 297.924 638.209 304.66 638.73C305.071 638.761 305.482 638.682 305.853 638.501C306.223 638.32 306.538 638.044 306.766 637.701C306.995 637.358 307.127 636.96 307.151 636.548C307.174 636.137 307.087 635.727 306.9 635.36C257.35 538.9 308.28 431.87 329.26 394.92C320.25 452 307 557.89 321 626Z" fill="#9C398C"/>
<path id="Vector_50" d="M481.999 852C481.679 852.27 473.119 841.55 460.449 827.79C469.839 837.05 477.299 844.04 481.679 848.07C481.879 850.56 481.999 852 481.999 852Z" fill="#9C398C"/>
</g>
</g>
</g>
</svg>
