<svg width="1360" height="1602" viewBox="0 0 1360 1602" fill="none" xmlns="http://www.w3.org/2000/svg">
<g id="Hair 12">
<g id="Head 2">
<g id="1 neck">
<path id="Vector" d="M673.29 1541.5C662.675 1541.51 652.093 1540.33 641.74 1537.98C605.93 1529.84 575.8 1514.98 540.99 1488.22C532.66 1481.8 532.04 1474.78 532.99 1470.01C536.13 1453.91 540.14 1271.41 540.3 1250.77C540.35 1244.63 540.36 1228.71 540.3 1212.03C540.3 1201.03 540.2 1179.92 539.99 1161.93C539.85 1150.34 539.68 1142.93 539.5 1139.23L539.08 1131.02L546.22 1135.09C547.32 1135.72 551.77 1137.88 556.49 1140.16C575.14 1149.16 583.84 1153.59 586.1 1155.75C589.26 1158.32 613.15 1165.86 623.35 1169.07C633.03 1172.07 634.35 1172.58 635.3 1173.14C642.88 1177.75 651.03 1181.19 659.67 1184.83C666.17 1187.57 672.9 1190.41 680.01 1193.98C691.4 1199.7 696.85 1202.25 699.01 1202.25C699.807 1202.19 700.593 1202.03 701.35 1201.78C704.05 1201.06 708.14 1199.96 716.96 1199.96C720.52 1199.96 724.64 1200.14 729.19 1200.5C737.93 1200.59 742.26 1206.24 745.43 1210.38C748.15 1213.92 749.43 1215.38 751.58 1215.38C752.574 1215.35 753.555 1215.14 754.48 1214.78L760.61 1212.59L760.5 1219.1C760.5 1221.44 760.5 1224.89 760.57 1228.81C760.78 1238.35 761.3 1250.02 762 1260.81C762.46 1267.98 763 1299 763.67 1334.93C764.67 1388.56 766.1 1469.54 767.61 1476.17C770.17 1483.99 768.61 1491.63 763.19 1498.27C740.59 1525.84 715.87 1539.07 683.02 1541.16C679.77 1541.39 676.5 1541.5 673.29 1541.5Z" fill="#E68856"/>
<path id="Vector_2" d="M544 1139C547.84 1141.19 579.87 1156 583 1159C587.51 1163.38 631 1175.82 633 1177C646.52 1185.24 661.42 1189.67 678 1198C691.79 1204.92 696 1206.75 699 1206.75C702.42 1206.75 704.43 1204.46 716.94 1204.46C720.19 1204.46 724.13 1204.61 728.94 1205H729.01C741.4 1205 741.83 1219.86 751.52 1219.86C753.052 1219.84 754.569 1219.55 756 1219C756 1221.34 756 1224.75 756.07 1228.89C756.26 1237.47 756.74 1249.2 757.51 1261.12C758.73 1280.12 760.67 1469.53 763.31 1477.52C765.444 1483.95 764.244 1489.92 759.71 1495.44C740.29 1519.13 718.02 1534.44 682.71 1536.69C679.544 1536.9 676.397 1537.01 673.27 1537C662.991 1537.01 652.743 1535.87 642.72 1533.59C604.16 1524.83 574.26 1508.12 543.72 1484.65C538.487 1480.65 536.377 1476.06 537.39 1470.89C540.7 1453.95 544.65 1268.55 544.79 1250.81C544.84 1244.99 544.85 1229.65 544.79 1212.02C544.79 1195.32 544.65 1176.56 544.48 1161.88C544.35 1151.48 544.19 1143.12 543.98 1139M534.15 1123L534.99 1139.42C535.18 1143.04 535.34 1150.42 535.48 1161.95C535.69 1179.95 535.76 1201.02 535.79 1211.95C535.84 1228.58 535.79 1244.49 535.79 1250.64C535.63 1270.71 531.58 1453.64 528.56 1469.07C527.56 1473.97 527.56 1483.46 538.23 1491.69C573.59 1518.86 604.23 1533.99 640.74 1542.28C651.417 1544.7 662.332 1545.92 673.28 1545.91C676.58 1545.91 679.96 1545.8 683.28 1545.58C701.61 1544.41 717.42 1539.92 731.6 1531.83C744.16 1524.68 755.3 1514.89 766.6 1501.06C773 1493.25 774.84 1484.26 771.92 1475.06C770.47 1466.22 769.05 1387.22 768.1 1334.8C767.42 1297.34 766.89 1267.8 766.42 1260.49C765.73 1249.74 765.21 1238.13 765 1228.64C764.91 1224.79 764.89 1221.4 764.93 1219.1L765.15 1206.1L753 1210.53C752.604 1210.68 752.191 1210.79 751.77 1210.85C750.77 1209.86 749.857 1208.79 749.04 1207.64C745.74 1203.33 740.23 1196.14 729.42 1196C724.81 1195.64 720.63 1195.46 716.99 1195.46C707.58 1195.46 703.15 1196.65 700.22 1197.46L699.03 1197.76C696.78 1197.36 687.6 1192.76 682.08 1189.98C674.83 1186.34 668.08 1183.47 661.47 1180.71C652.99 1177.13 644.98 1173.71 637.72 1169.33C636.3 1168.48 634.93 1168.02 624.82 1164.83C616.14 1162.1 593.27 1154.88 588.96 1152.22C586.22 1149.83 579.77 1146.44 558.55 1136.16C554.32 1134.11 549.55 1131.79 548.55 1131.23L534.17 1123H534.15Z" fill="#020201"/>
<path id="Vector_3" d="M757.51 1261.12C744.18 1265.34 730.292 1267.54 716.31 1267.64C676.46 1267.82 635.9 1260.01 600.72 1243.29C583.167 1234.95 567.233 1226.66 552.92 1218.41C550.03 1216.53 547.316 1214.39 544.81 1212.02C544.81 1195.32 544.17 1153.68 544 1139.02C575.84 1156.42 603.23 1200.69 639.48 1212.3C670 1222.06 693 1230 727.61 1230.65C737.13 1230.89 746.652 1230.3 756.07 1228.89C756.26 1237.47 756.74 1249.2 757.51 1261.12Z" fill="#CE6D40"/>
</g>
<g id="1 head">
<g id="head">
<path id="Vector_4" d="M763 1220C759.53 1220.44 782.42 1218.55 781 1221C774.75 1222.62 769.82 1226.5 751.13 1229.43C739.738 1231.17 728.203 1231.8 716.69 1231.3C695.32 1230.45 677.18 1228.3 656.95 1220.23C629.935 1209.45 603.955 1196.25 579.33 1180.77C574.06 1177.45 568.988 1173.82 564.14 1169.91C550.54 1158.95 540.007 1149.97 532.54 1142.97C512.34 1124 497 1099.24 485 1072C489.5 1077.86 493 1085.52 497.13 1091.52C512.27 1113.41 533.35 1134.39 552.08 1148.57C581.76 1171.06 619.17 1187.16 655 1203C679.59 1213.88 690.17 1215.06 720 1216C735.64 1216.5 756.45 1220 763 1220Z" fill="#020201"/>
<g id="face">
<path id="Vector_5" d="M755.131 1229H755.001C657.731 1221.52 581.241 1190.71 527.661 1137.42C494.148 1104.04 470.345 1062.17 458.801 1016.3C452.651 991.09 445.141 965.72 435.801 938.71C433.431 931.86 430.961 924.66 428.441 917.3L427.211 913.74C404.301 846.81 392.001 809.89 390.621 804C387.531 790.62 388.301 738.37 388.331 736.15V736C390.691 679 402.561 628.67 423.601 586.34C440.76 551.469 465.333 520.769 495.601 496.39C520.031 476.75 548.451 460.93 580.071 449.39C634.641 429.5 681.211 428.49 690.001 428.49H690.891C691.671 428.44 694.671 428.28 699.531 428.28C725.531 428.28 792.801 432.55 856.831 472.11C893.46 494.706 923.815 526.155 945.101 563.56C971.541 609.5 986.761 666.48 990.331 732.92C990.791 741.46 989.401 755.98 987.681 772.67L986.931 779.81C984.131 806.68 980.641 840.12 980.821 870.3C981.051 908.5 971.241 969.52 965.371 1002.49C963.131 1015.08 961.521 1023.2 961.501 1023.28V1023.47L961.441 1023.65C948.011 1070.05 929.071 1109.65 905.151 1141.43C885.851 1167.05 863.281 1187.65 838.061 1202.66C794.221 1228.74 756.941 1229 755.371 1229H755.131Z" fill="#E68856"/>
<path id="Vector_6" d="M699.531 432.8C746.321 432.8 970.531 447.73 985.841 733.17C986.271 741.17 984.971 755.1 983.201 772.22C980.291 800.38 976.121 837.17 976.321 870.34C976.551 908.49 966.611 969.85 960.941 1001.71C958.681 1014.4 957.091 1022.41 957.091 1022.41C898.921 1223.28 758.871 1224.54 755.371 1224.54H755.301C532.561 1207.42 476.721 1070.67 463.171 1015.23C456.741 988.88 448.931 962.9 440.101 937.23C437.361 929.23 434.471 920.85 431.521 912.23C414.901 863.83 396.611 810 395.001 803C392.001 790 392.831 736.23 392.831 736.23C395.341 675.65 408.351 627.17 427.631 588.38C503.221 436.28 675.291 433 690.001 433H691.001C691.001 433 694.001 432.8 699.531 432.8ZM699.531 423.8C694.871 423.8 691.831 423.94 690.791 424H690.001C681.081 424 633.811 425 578.561 445.21C546.471 456.91 517.621 473 492.811 492.92C462.022 517.699 437.025 548.911 419.571 584.37C398.251 627.28 386.221 678.24 383.841 735.86V736.09C383.751 741.71 383.091 791.35 386.241 805.02C387.631 811.02 400.011 848.12 423.021 915.2L424.511 919.55C426.941 926.63 429.321 933.55 431.601 940.18C440.851 967.05 448.321 992.29 454.441 1017.36C459.194 1036.64 466.157 1055.31 475.191 1073C487.91 1098.02 504.535 1120.85 524.441 1140.64C549.261 1165.32 579.391 1185.51 613.981 1200.64C654.531 1218.39 701.851 1229.45 754.611 1233.5H754.951H755.371C759.371 1233.5 796.231 1232.74 840.371 1206.5C866.101 1191.19 889.101 1170.2 908.751 1144.11C933.001 1111.91 952.191 1071.8 965.751 1024.87L965.861 1024.5L965.941 1024.12C965.941 1024.04 967.571 1015.88 969.821 1003.25C975.721 970.12 985.571 908.79 985.341 870.25C985.161 840.31 988.641 807.01 991.431 780.25C991.681 777.81 991.931 775.42 992.171 773.1C993.921 756.21 995.321 741.51 994.851 732.64C991.231 665.49 975.851 607.84 949.031 561.29C927.37 523.25 896.489 491.269 859.231 468.29C794.201 428.13 725.891 423.8 699.541 423.8H699.531Z" fill="#020201"/>
<path id="Vector_7" d="M431.52 912.28C414.9 863.83 396.61 810 395 803C392 790 392.83 736.23 392.83 736.23C395.34 675.65 408.35 627.17 427.63 588.38C419.63 618.25 406.09 699.57 438.63 846.94C452 907.59 446 921.56 431.52 912.28Z" fill="#CE6D40"/>
</g>
</g>
<path id="smile" d="M628.282 1014.74C628.515 1014.73 628.745 1014.8 628.932 1014.94C629.124 1015.07 629.262 1015.27 629.322 1015.5C629.401 1015.72 629.401 1015.96 629.322 1016.18C629.236 1016.4 629.082 1016.58 628.882 1016.7L619.882 1021.88C619.146 1022.3 618.595 1022.98 618.339 1023.79C618.083 1024.6 618.142 1025.47 618.502 1026.24C622.862 1035.85 647.912 1049.3 656.952 1053.34C686.377 1066.71 718.236 1073.9 750.552 1074.45C782.172 1074.93 805.952 1074.45 834.202 1063.25C842.002 1060.13 847.522 1056.02 850.762 1050.93C850.892 1050.71 851.079 1050.53 851.302 1050.41C851.53 1050.29 851.784 1050.23 852.042 1050.23C852.301 1050.24 852.553 1050.31 852.772 1050.45C852.997 1050.58 853.186 1050.77 853.322 1050.99L854.072 1052.26C854.543 1053.1 854.749 1054.05 854.662 1055.01C854.573 1055.96 854.189 1056.86 853.562 1057.58C843.802 1068.76 826.252 1074.58 811.562 1077.37C766.102 1085.88 720.659 1082.74 675.232 1067.97C651.94 1060.44 630.568 1047.93 612.602 1031.3C612.357 1031.08 612.071 1030.91 611.762 1030.8C611.442 1030.68 611.1 1030.64 610.762 1030.68C610.435 1030.7 610.117 1030.79 609.832 1030.95C609.543 1031.1 609.29 1031.31 609.092 1031.57L604.522 1037.38C604.343 1037.62 604.095 1037.79 603.812 1037.88C603.53 1037.97 603.224 1037.97 602.942 1037.88C602.664 1037.78 602.429 1037.58 602.273 1037.33C602.117 1037.08 602.05 1036.78 602.082 1036.49C603.052 1023.44 616.302 1015.07 628.282 1014.74Z" fill="#020201"/>
<g id="nose">
<path id="Vector_8" d="M816.822 991.859C807.632 1009.12 782.002 1028 766.882 1027.71C759.598 1027.58 752.422 1025.92 745.816 1022.85C739.21 1019.78 733.319 1015.36 728.522 1009.88C725.202 1006.07 722.932 1002.23 723.272 999.049C723.394 997.919 723.935 996.875 724.788 996.124C725.642 995.373 726.745 994.968 727.882 994.989L776.002 997.779C789.879 998.583 803.774 996.569 816.852 991.859H816.822ZM733.822 1005.05C734.367 1006.3 735.295 1007.35 736.472 1008.05C741.138 1011.23 746.435 1013.37 752.002 1014.32C753.003 1014.5 754.035 1014.33 754.931 1013.85C755.827 1013.37 756.535 1012.6 756.942 1011.67V1011.58C757.079 1011.23 757.134 1010.85 757.102 1010.48C757.082 1010.1 756.972 1009.74 756.782 1009.41C756.602 1009.08 756.349 1008.8 756.042 1008.58C755.743 1008.37 755.402 1008.22 755.042 1008.15L734.482 1004.26C734.383 1004.23 734.28 1004.23 734.182 1004.26C734.085 1004.3 733.999 1004.36 733.932 1004.44C733.86 1004.52 733.814 1004.61 733.802 1004.72C733.774 1004.83 733.777 1004.94 733.812 1005.05H733.822Z" fill="#CE6D40"/>
<path id="Vector_9" d="M733.811 1005.05C733.787 1004.94 733.787 1004.83 733.811 1004.73C733.828 1004.63 733.873 1004.53 733.942 1004.45C734.011 1004.37 734.096 1004.31 734.192 1004.27C734.29 1004.24 734.393 1004.24 734.491 1004.27L755.002 1008.15C755.364 1008.21 755.706 1008.36 756.002 1008.58C756.309 1008.8 756.562 1009.08 756.741 1009.41C756.93 1009.74 757.043 1010.1 757.072 1010.48C757.095 1010.85 757.037 1011.23 756.902 1011.58V1011.67C756.498 1012.6 755.792 1013.37 754.897 1013.85C754.003 1014.33 752.972 1014.5 751.971 1014.32C746.406 1013.38 741.108 1011.25 736.431 1008.09C735.262 1007.38 734.345 1006.31 733.811 1005.05Z" fill="#201116"/>
<path id="Vector_10" d="M790.002 843.999C788.872 845.129 789.122 847.399 789.002 848.999C788.342 857.999 783.372 895.329 790.682 915.289C799.002 937.999 802.302 952.659 815.002 970.999C827.702 989.339 792.842 1022.22 770.422 1025.61C770.422 1025.61 764.602 1029.61 779.302 1029.33C794.002 1029.05 816.882 1013.4 822.442 995.699C828.002 977.999 826.882 974.569 822.442 966.789C818.002 959.009 798.002 923.999 796.002 898.999C794.002 873.999 800.002 852.999 792.002 843.999C791.342 843.249 791.002 842.999 790.002 843.999Z" fill="#020201"/>
</g>
<g id="glasses">
<path id="Vector_11" d="M1021 768C1022.56 769 996.432 766.57 994.002 766C990.392 768 978.522 763.54 974.352 763.36C951.212 762.3 929.995 761.607 910.702 761.28C896.882 761.07 880.052 764.42 870.292 765.28C856.685 766.5 846.798 768.547 840.632 771.42C828.312 777.2 818.598 784.97 811.492 794.73C811.13 795.228 810.819 795.76 810.562 796.32L801.252 816.79C801.039 817.263 800.733 817.688 800.352 818.04C799.966 818.389 799.513 818.658 799.022 818.83C798.534 819 798.017 819.068 797.502 819.03C796.983 818.997 796.477 818.861 796.012 818.63C784.172 812.73 772.138 810.633 759.912 812.34C755.372 812.97 751.662 812.79 747.212 815.44C746.915 815.619 746.585 815.737 746.242 815.789C745.899 815.84 745.549 815.824 745.212 815.74C744.527 815.569 743.935 815.139 743.562 814.54C739.862 808.42 737.302 799.69 734.202 794.73C725.075 780.15 712.882 770.483 697.622 765.73C660.662 754.17 621.389 749.483 579.802 751.67C566.295 752.37 556.792 752.72 551.292 752.72C536.872 752.72 497.392 754.2 493.062 768.23C491.209 774.15 490.105 782.25 489.752 792.53C489.711 793.739 489.801 794.95 490.022 796.14C491.792 806.309 492.957 816.573 493.512 826.88C493.842 834.238 494.758 841.558 496.252 848.77C501.732 875.37 507.065 898.223 512.252 917.33C515.852 931.183 523.004 943.857 533.002 954.1C533.834 954.954 534.775 955.694 535.802 956.3C553.802 966.74 569.549 972.953 583.042 974.94C600.021 977.268 617.157 978.271 634.292 977.94C651.483 977.85 668.432 973.889 683.882 966.35C690.867 962.877 697.168 958.172 702.482 952.46C709.988 944.5 714.928 938.45 717.302 934.31C722.022 926.123 727.742 912.143 734.462 892.37C738.462 880.6 740.392 861.37 741.782 852.44C742.892 845.19 745.962 839.44 752.282 836.67C768.042 829.643 782.105 831.9 794.472 843.44C798.778 847.5 800.865 851.796 800.732 856.33C799.972 877.85 801.085 896.967 804.072 913.68C809.342 943.16 831.072 976.19 864.202 980.68C875.142 982.16 889.745 983.183 908.012 983.75C921.565 984.19 937.472 980.647 955.732 973.12C970.625 967 981.605 955.91 988.672 939.85C996.205 922.75 1002.42 907.063 1007.31 892.79C1007.67 891.746 1007.91 890.666 1008.03 889.57C1008.97 881.248 1011.59 873.204 1015.74 865.93L1013.6 892.4C1006.13 922.09 995.262 950.4 973.702 970.98C972.912 971.74 938.992 1000.98 862.182 987.9C851.749 986.02 839.749 980.61 826.182 971.67C813.002 960 788.402 922.44 795.752 861.18C796.095 858.154 795.66 855.09 794.487 852.28C793.315 849.469 791.444 847.005 789.052 845.12C779.282 837.3 762.332 829.12 748.952 849.53C748.422 850.364 748.102 851.315 748.022 852.3C745.612 884.13 737.932 912.73 720.742 939.89C704.602 965.343 681.478 979.896 651.372 983.55C621.253 987.299 590.69 985.073 561.432 977C537.372 970.38 520.995 956.32 512.302 934.82C496.442 895.58 487.309 852.473 484.902 805.5C484.803 803.777 484.072 802.152 482.848 800.936C481.624 799.72 479.995 798.998 478.272 798.91C464.972 798.31 449.949 800.047 433.202 804.12C432.992 804.12 426.002 809.02 422.202 806.07C416.992 801.98 413.012 796.45 407.782 792.07C406.97 791.401 406.08 790.834 405.132 790.38C401.612 788.71 390.232 787.76 387.002 785.52C385.312 784.36 387.462 778.75 387.622 778.25C389.362 772.47 400.312 767.35 404.472 764.88C405.519 764.253 406.711 763.908 407.932 763.88L423.232 763.31C445.352 763.65 464.559 761.403 480.852 756.57C501.852 750.343 514.249 747.11 518.042 746.87C535.382 745.76 551.792 742.87 569.342 742.81C598.946 742.579 628.532 744.37 657.892 748.17C673.161 750.267 688.149 754.053 702.582 759.46C725.012 767.74 738.682 783.06 745.722 804.53C746.022 805.439 746.667 806.194 747.517 806.633C748.368 807.072 749.357 807.161 750.272 806.88C765.605 802.34 780.249 803.833 794.202 811.36C794.407 811.476 794.636 811.544 794.872 811.56C795.108 811.571 795.343 811.53 795.562 811.44C795.781 811.349 795.979 811.213 796.142 811.04C796.304 810.868 796.421 810.658 796.482 810.43C802.175 791.596 812.605 778.12 827.772 770C843.972 761.333 862.449 756.213 883.202 754.64C914.032 752.27 946.442 753.34 977.972 757.04C983.072 757.6 1016.69 765.29 1021 768ZM482.002 770.38C482.002 769.733 481.858 769.095 481.582 768.51C481.305 767.926 480.902 767.41 480.402 767C479.906 766.588 479.326 766.291 478.702 766.13C478.077 765.975 477.426 765.955 476.792 766.07C455.444 769.932 433.742 771.477 412.062 770.68C411.205 770.638 410.35 770.792 409.562 771.13C408.038 771.772 406.672 772.738 405.558 773.96C404.444 775.183 403.61 776.633 403.112 778.21C402.942 778.672 402.921 779.175 403.052 779.65C403.176 780.126 403.454 780.547 403.842 780.85L424.492 797.05C425.026 797.464 425.655 797.739 426.322 797.85C426.991 797.967 427.68 797.912 428.322 797.69C443.873 792.234 460.474 790.44 476.832 792.45C477.485 792.518 478.146 792.45 478.772 792.25C479.71 791.945 480.529 791.351 481.11 790.554C481.692 789.757 482.008 788.797 482.012 787.81L482.002 770.38Z" fill="#020201"/>
<path id="Vector_12" d="M996.002 765L1012 768C1012.16 768 1020.29 771.12 1020.44 771.22C1023.66 773.22 1025.21 776.22 1025.08 780.22C1024.7 792.486 1024.11 805.153 1023.3 818.22C1019.31 833.848 1016.78 849.813 1015.75 865.91C1011.59 873.19 1008.95 881.245 1008 889.58C1007.88 890.676 1007.64 891.756 1007.28 892.8C1002.38 907.066 996.169 922.753 988.642 939.86C981.582 955.92 970.602 967.01 955.702 973.13C937.469 980.656 921.569 984.2 908.002 983.76C889.736 983.2 875.132 982.176 864.192 980.69C831.042 976.17 809.332 943.14 804.062 913.69C801.069 896.983 799.956 877.866 800.722 856.34C800.862 851.8 798.776 847.503 794.462 843.45C782.089 831.91 768.026 829.653 752.272 836.68C745.952 839.48 742.882 845.2 741.772 852.45C740.382 861.4 738.452 880.61 734.452 892.38C727.746 912.126 722.032 926.096 717.312 934.29C714.946 938.416 710.006 944.466 702.492 952.44C697.179 958.151 690.878 962.857 683.892 966.33C668.443 973.869 651.493 977.83 634.302 977.92C617.167 978.251 600.032 977.248 583.052 974.92C569.532 972.92 553.786 966.706 535.812 956.28C534.786 955.674 533.844 954.934 533.012 954.08C522.993 943.837 515.823 931.155 512.212 917.29C507.052 898.183 501.719 875.33 496.212 848.73C494.718 841.518 493.802 834.198 493.472 826.84C492.923 816.54 491.765 806.282 490.002 796.12C489.782 794.93 489.691 793.719 489.732 792.51C490.092 782.23 491.196 774.13 493.042 768.21C497.372 754.21 536.852 752.7 551.272 752.7C556.772 752.7 566.276 752.35 579.782 751.65C621.369 749.463 660.642 754.15 697.602 765.71C712.856 770.49 725.049 780.156 734.182 794.71C737.282 799.71 739.842 808.4 743.542 814.52C743.918 815.116 744.509 815.546 745.192 815.72C745.529 815.804 745.879 815.82 746.222 815.769C746.565 815.717 746.895 815.599 747.192 815.42C751.642 812.77 755.352 812.95 759.892 812.32C772.126 810.606 784.159 812.703 795.992 818.61C796.457 818.841 796.964 818.977 797.482 819.01C797.997 819.049 798.515 818.981 799.002 818.81C799.494 818.638 799.946 818.369 800.332 818.02C800.714 817.668 801.02 817.243 801.232 816.77L810.542 796.3C810.799 795.74 811.11 795.208 811.472 794.71C818.572 784.95 828.286 777.18 840.612 771.4C846.779 768.526 856.666 766.48 870.272 765.26C880.032 764.39 896.862 761.04 910.682 761.26C929.969 761.593 951.186 762.286 974.332 763.34C978.002 763.52 995.462 764.83 996.002 765ZM547.342 770.92C505.492 781.31 513.342 822.8 514.592 854.56C514.941 864.783 516.342 874.943 518.772 884.88C523.372 903.306 527.999 917.086 532.652 926.22C548.852 957.92 578.272 960.12 610.422 961.57C640.112 962.92 664.742 963.04 686.962 945.43C700.092 935.01 707.792 920.43 714.542 905.54C719.782 893.97 721.642 878.8 724.752 866.06C727.752 853.87 727.002 841.4 727.062 829.27C727.062 823.73 724.746 815.67 720.112 805.09C716.539 797.003 712.272 791.243 707.312 787.81C703.162 784.92 692.742 781.7 677.002 776C675.792 775.56 675.282 775 674.002 775C659.732 774.91 645.682 769.29 631.232 768.57C601.339 767.07 582.449 766.356 574.562 766.43C568.242 766.49 559.169 767.986 547.342 770.92ZM999.222 806.33C996.002 770 906.802 777 883.062 778.36C856.442 779.83 820.582 792.42 816.912 823.13C815.179 837.556 814.276 855.63 814.202 877.35C814.162 892.27 817.926 910.696 825.492 932.63C831.572 950.25 840.842 957.11 858.192 962.8C875.653 968.714 894.282 970.337 912.502 967.53C930.236 964.743 940.362 963.056 942.882 962.47C950.882 960.6 956.472 957.12 961.002 952C976.043 935.224 986.845 915.089 992.502 893.28C994.416 885.946 997.459 872.613 1001.63 853.28C1004.23 841.246 1003.42 825.596 999.222 806.33Z" fill="#501C49"/>
<path id="Vector_13" d="M482.003 770.38V787.81C482.003 788.465 481.863 789.113 481.593 789.71C481.333 790.311 480.944 790.847 480.453 791.28C479.963 791.718 479.387 792.049 478.762 792.25C478.137 792.452 477.476 792.52 476.823 792.45C460.468 790.439 443.87 792.232 428.323 797.69C427.681 797.907 426.996 797.962 426.327 797.85C425.659 797.739 425.029 797.464 424.493 797.05L395.843 779.85C395.455 779.547 395.177 779.126 395.053 778.65C394.92 778.175 394.945 777.67 395.123 777.21C396.423 773.69 398.973 772.21 401.963 771C405.256 770.145 408.594 769.477 411.963 769C435.203 769.68 456.883 769.83 476.793 766.07C477.749 765.886 478.739 766.027 479.606 766.468C480.474 766.91 481.169 767.628 481.583 768.51C481.857 769.095 482.001 769.733 482.003 770.38Z" fill="#501C49"/>
<path id="Vector_14" d="M514.591 854.56C513.381 822.8 505.491 781.31 547.341 770.92C559.175 767.987 568.248 766.49 574.561 766.43C582.448 766.35 601.338 767.063 631.231 768.57C645.681 769.29 675.791 774.57 677.001 775C692.741 780.7 703.161 784.92 707.311 787.81C712.271 791.243 716.538 797.003 720.111 805.09C724.778 815.67 727.095 823.73 727.061 829.27C727.001 841.4 727.701 853.87 724.751 866.06C721.641 878.8 719.751 893.97 714.541 905.54C707.791 920.47 700.091 935 687.001 945.43C664.781 963.04 640.151 962.92 610.461 961.57C578.311 960.12 548.891 957.92 532.691 926.22C528.025 917.093 523.398 903.313 518.811 884.88C516.367 874.945 514.953 864.785 514.591 854.56ZM541.891 779.71C506.001 793.86 522.321 867.15 529.001 897.41C534.511 922.41 544.231 941.24 570.401 948.8C585.249 953.158 600.602 955.559 616.071 955.94C652.381 956.75 682.971 951 701.371 919.02C704.205 914.093 707.718 904.55 711.911 890.39C722.631 854.39 731.811 796.09 682.431 783.84C644.965 774.586 606.229 771.572 567.781 774.92C558.331 775.71 551.471 776 541.891 779.71Z" fill="#020201"/>
<path id="Vector_15" d="M1001 800C997.001 789 1001 778 920.001 776C839.001 774 829.001 793 829.001 793C817.001 805 816.001 813 814.201 824.83C812.401 836.66 814.001 834 811.381 864.83C808.761 895.66 812.001 904 814.001 913C816.001 922 826.001 943 832.751 951.21C839.501 959.42 863.001 970 886.001 970C909.001 970 942.001 972 966.001 949C990.001 926 1000 878 1004 856C1008 834 1005 811 1001 800ZM998.921 856.9C995.131 877.73 985.661 923.19 962.921 944.97C940.181 966.75 908.921 964.85 887.161 964.85C865.401 964.85 843.161 954.85 836.741 947.06C830.321 939.27 820.891 919.4 819.001 910.88C817.111 902.36 814.001 894.43 816.521 865.25C819.041 836.07 817.521 838.58 819.191 827.38C820.861 816.18 821.841 808.6 833.191 797.24C833.191 797.24 842.661 779.24 919.361 781.14C996.061 783.04 992.281 793.45 996.071 803.87C999.861 814.29 1002.71 836.06 998.921 856.9Z" fill="#020201"/>
<path id="Vector_16" d="M1029.7 798.52C1030.65 791.415 1030.65 784.215 1029.7 777.11C1029.12 772.31 1026.14 769.19 1020.76 767.75C1007.89 764.29 997.888 762.274 990.762 761.7L997.002 765C997.162 765 1020.29 771.12 1020.45 771.22C1023.66 773.22 1025.2 776.22 1025.08 780.22C1024.81 789.12 1023.5 798.65 1023 807.97C1022.9 808.77 1021.36 827.08 1019 834.97C1016.59 843.03 1010.61 877.6 1010.61 877.6C1010.61 877.6 1008 909.97 1012.53 896.6C1016.78 884.01 1028.21 808.46 1029.53 799.41L1029.59 799.03C1029.68 798.7 1029.7 798.52 1029.7 798.52Z" fill="#020201"/>
</g>
<g id="ear">
<path id="Vector_17" d="M451.271 845.47C451.271 845.47 397.611 741.33 351.811 798.66C306.011 855.99 342.691 960.79 387.001 991C431.311 1021.21 457.001 984 457.001 984L451.271 845.47Z" fill="#E68856"/>
<path id="Vector_18" d="M409.132 940.159C406.592 928.999 406.662 912.209 421.002 894.999C421.002 894.999 402.002 822.999 371.002 818.999C340.002 814.999 346.132 872.669 352.062 886.329C357.992 899.989 371.062 948.819 391.532 950.409C394.532 950.639 397.172 950.879 399.452 951.109C400.873 951.253 402.307 951.056 403.637 950.535C404.966 950.015 406.153 949.185 407.099 948.116C408.045 947.046 408.722 945.766 409.076 944.383C409.429 942.999 409.448 941.551 409.132 940.159Z" fill="#CE6D40"/>
<path id="Vector_19" d="M409.832 952.06C409.512 951.06 409.042 950.06 408.502 948.89C407.962 947.72 407.442 946.39 407.012 945.1C406.189 942.546 405.57 939.931 405.162 937.28C404.725 934.635 404.505 931.96 404.502 929.28C404.452 927.94 404.562 926.6 404.602 925.28C404.642 923.96 404.812 922.61 405.052 921.28C405.853 915.99 407.441 910.85 409.762 906.03C412.079 901.276 414.964 896.82 418.352 892.76L417.662 895.85C416.162 890 414.322 884.05 412.332 878.24C410.342 872.43 408.132 866.67 405.672 861.04C403.25 855.413 400.482 849.943 397.382 844.66C394.383 839.407 390.771 834.53 386.622 830.13C385.622 829.02 384.472 828.13 383.382 827.08C382.812 826.61 382.212 826.18 381.632 825.73C381.342 825.51 381.062 825.27 380.752 825.07L379.832 824.49C379.243 824.092 378.632 823.728 378.002 823.4L376.062 822.4C374.748 821.85 373.385 821.425 371.992 821.13C369.231 820.464 366.352 820.464 363.592 821.13C362.256 821.485 360.979 822.034 359.802 822.76C358.62 823.522 357.538 824.429 356.582 825.46C354.659 827.678 353.139 830.217 352.092 832.96C351.005 835.782 350.191 838.702 349.662 841.68C348.615 847.74 348.203 853.893 348.432 860.04C348.444 860.315 348.346 860.585 348.159 860.788C347.972 860.992 347.713 861.113 347.437 861.125C347.161 861.137 346.892 861.038 346.688 860.852C346.485 860.665 346.364 860.405 346.352 860.13C345.915 853.847 346.132 847.537 347.002 841.3C347.465 838.124 348.232 834.999 349.292 831.97C350.379 828.838 352.011 825.923 354.112 823.36C355.228 822.062 356.509 820.916 357.922 819.95C359.365 818.99 360.942 818.248 362.602 817.75C365.891 816.81 369.358 816.673 372.712 817.35C374.377 817.646 376.011 818.098 377.592 818.7L379.882 819.7C380.612 820.093 381.32 820.527 382.002 821L383.072 821.63C383.422 821.85 383.742 822.1 384.072 822.34C384.742 822.82 385.422 823.29 386.072 823.79C387.312 824.85 388.612 825.86 389.742 827.03C394.306 831.535 398.314 836.571 401.682 842.03C405.071 847.393 408.12 852.964 410.812 858.71C413.532 864.42 415.982 870.24 418.212 876.13C420.442 882.02 422.492 887.95 424.302 894.13C424.444 894.622 424.468 895.141 424.373 895.645C424.277 896.149 424.064 896.623 423.752 897.03L423.612 897.22C420.586 900.822 418.007 904.777 415.932 909C413.889 913.197 412.486 917.676 411.772 922.29C411.552 923.43 411.512 924.6 411.372 925.75C411.232 926.9 411.222 928.07 411.262 929.24C411.286 933.906 412.004 938.544 413.392 943C413.75 944.083 414.164 945.148 414.632 946.19C415.112 947.27 415.702 948.54 416.172 949.95C416.453 950.79 416.389 951.708 415.993 952.502C415.597 953.295 414.903 953.898 414.062 954.18C413.221 954.461 412.303 954.396 411.51 954.001C410.717 953.605 410.113 952.91 409.832 952.07V952.06Z" fill="#020201"/>
<path id="Vector_20" d="M383.001 932.07C381.382 928.695 379.985 925.218 378.821 921.66C377.607 918.116 376.605 914.503 375.821 910.84C374.197 903.385 373.762 895.721 374.531 888.13C374.999 884.235 375.902 880.405 377.221 876.71C377.591 875.79 377.891 874.84 378.321 873.94L379.601 871.24C380.541 869.471 381.593 867.765 382.751 866.13C383.915 864.488 385.173 862.915 386.521 861.42C387.937 859.965 389.433 858.59 391.001 857.3C394.067 854.748 397.384 852.513 400.901 850.63C402.023 849.995 403.351 849.831 404.594 850.175C405.836 850.52 406.891 851.343 407.526 852.465C408.161 853.587 408.325 854.915 407.981 856.158C407.636 857.4 406.813 858.455 405.691 859.09C405.595 859.151 405.495 859.205 405.391 859.25L405.141 859.37C402.091 860.711 399.186 862.36 396.471 864.29C395.127 865.247 393.839 866.278 392.611 867.38C391.419 868.517 390.294 869.723 389.241 870.99C388.183 872.26 387.208 873.596 386.321 874.99L385.081 877.16C384.661 877.88 384.361 878.66 383.981 879.41C382.599 882.516 381.566 885.766 380.901 889.1C379.667 896.036 379.542 903.125 380.531 910.1C380.989 913.643 381.657 917.156 382.531 920.62C383.388 924.094 384.464 927.511 385.751 930.85V930.9C385.886 931.259 385.878 931.655 385.73 932.009C385.582 932.362 385.304 932.645 384.953 932.8C384.602 932.955 384.206 932.97 383.845 932.841C383.484 932.713 383.185 932.451 383.011 932.11L383.001 932.07Z" fill="#020201"/>
<path id="Vector_21" d="M451.271 845.47C451.271 845.47 424.831 794.16 393.271 783.4C379.851 778.83 365.501 781.57 351.851 798.66C306.001 856 342.691 960.79 387.001 991C431.311 1021.21 457.001 984 457.001 984" stroke="black" stroke-width="7" stroke-linecap="round" stroke-linejoin="round"/>
</g>
<g id="eyebrow">
<path id="Vector_22" d="M534.132 736.87C533.788 736.897 533.444 736.835 533.132 736.69C532.829 736.539 532.569 736.315 532.377 736.037C532.184 735.759 532.066 735.436 532.032 735.1C532.005 734.757 532.066 734.412 532.212 734.1C545.798 705.173 567.465 687.487 597.212 681.04C607.165 678.88 620.692 678.3 637.792 679.3C658.482 680.53 682.392 687.67 695.242 704.2C703.242 714.53 710.362 728.5 706.712 740.57C706.327 741.847 705.454 742.921 704.281 743.558C703.109 744.195 701.733 744.343 700.452 743.97C671.977 735.621 642.632 730.598 613.002 729C600.902 728.333 584.568 729.137 564.002 731.41C556.232 732.26 543.282 736.2 534.132 736.87Z" fill="#201116" stroke="black" stroke-width="7" stroke-miterlimit="10"/>
<path id="Vector_23" d="M973.632 748.43L969.452 748.13C969.365 748.131 969.279 748.11 969.202 748.07C952.002 742.01 935.795 738.757 920.582 738.31C910.402 737.99 896.088 739.053 877.642 741.5C863.398 743.359 849.423 746.883 836.002 752C835.1 752.343 834.103 752.34 833.203 751.991C832.304 751.642 831.566 750.972 831.132 750.11C830.84 749.541 830.693 748.909 830.702 748.27C831.162 728.643 839.715 713.527 856.362 702.92C874.002 691.73 902.942 688.54 922.002 692.4C950.402 698.18 970.842 716.72 976.262 745.4C976.333 745.782 976.316 746.175 976.212 746.55C976.108 746.924 975.919 747.27 975.662 747.56C975.41 747.852 975.091 748.079 974.732 748.22C974.385 748.372 974.009 748.443 973.632 748.43Z" fill="#201116" stroke="black" stroke-width="7" stroke-miterlimit="10"/>
</g>
<g id="eye">
<path id="Vector_24" d="M690.883 858.63C684.223 825.48 662.273 806.87 629.693 804.63C608.233 803.16 588.303 807.07 571.583 821.16C556.173 834.16 555.123 851.51 552.773 870.3C549.713 861.593 548.889 850.863 550.303 838.11C553.716 807.23 570.616 790.527 601.003 788C626.233 785.89 662.333 792 679.923 811.27C690.356 822.69 694.539 837.657 692.473 856.17C692.233 858.477 691.703 859.297 690.883 858.63Z" fill="#020201"/>
<path id="Vector_25" d="M690.883 858.63C689.733 869.43 688.883 881.54 684.763 891.05C674.923 914.043 657.28 928.257 631.833 933.69C613.833 937.54 595.433 931.13 580.833 921.07C564.28 909.69 554.927 892.78 552.773 870.34C555.123 851.55 556.173 834.18 571.583 821.2C588.303 807.11 608.233 803.2 629.693 804.67C662.273 806.87 684.223 825.48 690.883 858.63ZM615.933 807.24C605.243 807.05 594.933 812.29 587.163 821.82C579.393 831.35 575.003 844.36 574.723 858C574.595 864.689 575.516 871.356 577.453 877.76C579.259 883.827 582.116 889.53 585.893 894.61C589.343 899.269 593.735 903.15 598.783 906C603.48 908.63 608.752 910.066 614.133 910.18C624.823 910.37 635.133 905.12 642.903 895.6C650.673 886.08 655.103 873.06 655.343 859.41C655.471 852.725 654.553 846.061 652.623 839.66C650.81 833.591 647.951 827.885 644.173 822.8C640.723 818.145 636.335 814.266 631.293 811.41C626.592 808.783 621.318 807.351 615.933 807.24Z" fill="#FDFAE9"/>
<path id="Vector_26" d="M615.933 807.239C621.319 807.352 626.595 808.791 631.293 811.429C636.336 814.278 640.724 818.155 644.173 822.809C647.95 827.894 650.81 833.6 652.623 839.669C654.552 846.071 655.47 852.735 655.343 859.419C655.103 873.069 650.633 886.089 642.903 895.609C635.173 905.129 624.833 910.379 614.133 910.199C608.75 910.073 603.48 908.631 598.783 905.999C593.735 903.152 589.346 899.271 585.903 894.609C582.118 889.533 579.257 883.829 577.453 877.759C575.516 871.356 574.594 864.688 574.723 857.999C574.963 844.349 579.443 831.329 587.173 821.809C594.903 812.289 605.243 807.049 615.933 807.239ZM636.803 830.079C635.795 830.087 634.802 830.316 633.893 830.749C632.957 831.191 632.12 831.816 631.433 832.589C630.723 833.397 630.17 834.329 629.803 835.339C629.43 836.375 629.241 837.468 629.243 838.569C629.248 840.762 630.059 842.876 631.523 844.509C632.201 845.272 633.032 845.883 633.963 846.302C634.894 846.72 635.902 846.938 636.923 846.939C637.929 846.935 638.923 846.71 639.833 846.279C640.768 845.837 641.604 845.212 642.293 844.439C643.002 843.632 643.555 842.699 643.923 841.689C644.306 840.656 644.495 839.561 644.483 838.459C644.484 836.265 643.672 834.149 642.203 832.519C641.526 831.754 640.695 831.141 639.764 830.721C638.833 830.3 637.824 830.082 636.803 830.079Z" fill="#020201"/>
<path id="Vector_27" d="M644.482 838.46C644.482 833.8 641.012 830.05 636.802 830.08C632.592 830.11 629.212 833.91 629.242 838.57C629.272 843.23 632.712 846.97 636.922 846.94C641.132 846.91 644.512 843.12 644.482 838.46Z" fill="#FDFAE9"/>
</g>
<g id="eye_2">
<path id="Vector_28" d="M944.482 884.4C945.909 870.154 945.979 859.074 944.692 851.16C942.026 834.78 932.652 822.394 916.572 814C915.125 813.25 913.552 812.772 911.932 812.59C892.386 810.364 876.892 811.167 865.452 815C847.539 821 835.052 835.604 827.992 858.81C829.559 823.077 847.402 803.334 881.522 799.58C892.856 798.34 902.039 798.36 909.072 799.64C930.842 803.59 949.002 819.09 952.822 841.76C955.196 855.82 952.416 870.034 944.482 884.4Z" fill="#020201"/>
<path id="Vector_29" d="M944.482 884.4C941.735 893.494 939.105 899.887 936.592 903.58C909.072 944.13 845.242 956.42 830.252 895C827.058 881.887 826.305 869.824 827.992 858.81C835.052 835.604 847.538 821 865.452 815C876.892 811.16 892.385 810.357 911.932 812.59C914.377 813.105 916.751 813.914 919.002 815C935.062 823.39 942.002 834.78 944.692 851.16C945.985 859.054 945.915 870.134 944.482 884.4ZM869.662 819C860.722 819.38 852.352 824.65 846.392 833.66C840.432 842.67 837.392 854.66 837.892 867.04C838.136 873.083 839.254 879.058 841.212 884.78C843.014 890.128 845.698 895.137 849.152 899.6C852.215 903.586 856.091 906.875 860.522 909.25C864.534 911.375 869.034 912.41 873.572 912.25C882.522 911.87 890.892 906.6 896.842 897.59C902.792 888.58 905.842 876.59 905.342 864.21C905.084 858.184 903.959 852.226 902.002 846.52C900.196 841.172 897.509 836.163 894.052 831.7C890.994 827.713 887.121 824.423 882.692 822.05C878.689 819.914 874.197 818.863 869.662 819Z" fill="#FDFAE9"/>
<path id="Vector_30" d="M869.671 819C874.209 818.843 878.708 819.878 882.721 822C887.151 824.373 891.024 827.662 894.081 831.65C897.535 836.128 900.212 841.155 902.001 846.52C903.958 852.242 905.073 858.217 905.311 864.26C905.831 876.62 902.781 888.64 896.821 897.64C890.861 906.64 882.491 911.92 873.551 912.3C869.011 912.458 864.508 911.424 860.491 909.3C856.062 906.927 852.189 903.637 849.131 899.65C845.674 895.187 842.987 890.178 841.181 884.83C839.228 879.111 838.113 873.139 837.871 867.1C837.351 854.73 840.411 842.72 846.361 833.71C852.311 824.7 860.721 819.42 869.671 819ZM895.831 843.83C895.867 842.862 895.708 841.898 895.363 840.993C895.017 840.089 894.493 839.263 893.822 838.566C893.15 837.869 892.345 837.314 891.454 836.936C890.563 836.557 889.604 836.362 888.636 836.362C887.668 836.362 886.71 836.557 885.819 836.936C884.928 837.314 884.123 837.869 883.451 838.566C882.78 839.263 882.255 840.089 881.91 840.993C881.565 841.898 881.405 842.862 881.441 843.83C881.438 844.777 881.625 845.716 881.991 846.59C882.353 847.459 882.879 848.25 883.541 848.92C884.548 849.926 885.831 850.612 887.227 850.889C888.624 851.167 890.071 851.024 891.386 850.48C892.702 849.935 893.826 849.012 894.617 847.829C895.408 846.645 895.831 845.254 895.831 843.83Z" fill="#020201"/>
<path id="Vector_31" d="M888.632 851.07C890.056 851.07 891.448 850.648 892.632 849.856C893.816 849.065 894.739 847.941 895.284 846.625C895.829 845.31 895.971 843.862 895.693 842.465C895.415 841.069 894.73 839.786 893.723 838.779C892.716 837.772 891.433 837.086 890.036 836.808C888.64 836.53 887.192 836.673 885.876 837.218C884.561 837.763 883.436 838.686 882.645 839.87C881.854 841.054 881.432 842.446 881.432 843.87C881.432 845.779 882.19 847.611 883.54 848.961C884.891 850.311 886.722 851.07 888.632 851.07Z" fill="#FDFAE9"/>
</g>
</g>
</g>
<g id="Hair 12_2">
<g id="hair 12">
<path id="Vector_32" d="M945.249 1111.49C944.236 1111.46 943.262 1111.1 942.483 1110.45C941.705 1109.8 941.168 1108.91 940.959 1107.92L917.809 997.92C917.609 996.968 917.723 995.977 918.134 995.095C918.545 994.214 919.231 993.489 920.089 993.03C987.089 957.03 989.229 859.82 990.499 801.76C990.649 794.63 990.799 787.9 991.049 781.99C992.109 757.17 981.049 733.15 974.369 721.05C965.619 705.2 957.229 696.2 952.979 693.05C956.629 720.16 931.469 767.54 930.389 769.54C930.003 770.264 929.426 770.869 928.721 771.289C928.016 771.708 927.209 771.927 926.389 771.92C926.169 771.935 925.948 771.935 925.729 771.92C924.811 771.784 923.957 771.368 923.284 770.729C922.611 770.09 922.152 769.259 921.969 768.35C921.829 767.65 912.789 722.43 905.729 688.05C910.419 731.14 912.319 799.31 912.419 803.05C912.438 803.79 912.275 804.523 911.943 805.184C911.612 805.846 911.122 806.416 910.518 806.843C909.914 807.27 909.214 807.542 908.479 807.634C907.745 807.726 907 807.635 906.309 807.37C869.849 793.37 829.429 753.66 813.309 736.83L812.559 746.73C812.478 747.862 811.97 748.921 811.138 749.693C810.307 750.465 809.213 750.893 808.079 750.89C807.517 750.892 806.961 750.786 806.439 750.58C753.199 729.75 721.999 669.8 708.109 635.9C707.984 635.611 707.773 635.368 707.504 635.205C707.235 635.042 706.922 634.966 706.609 634.99C706.252 634.963 705.896 635.057 705.599 635.257C705.301 635.456 705.079 635.75 704.969 636.09C693.079 683.15 666.659 711.97 646.589 727.85C624.469 745.36 605.059 751.52 604.239 751.78C603.807 751.91 603.359 751.977 602.909 751.98C602.033 751.98 601.176 751.725 600.444 751.245C599.711 750.766 599.134 750.083 598.784 749.28C598.434 748.478 598.325 747.59 598.471 746.727C598.618 745.864 599.013 745.062 599.609 744.42C615.069 727.8 625.359 688.42 630.119 666.36C629.971 666.25 629.792 666.191 629.609 666.19C629.542 666.187 629.476 666.202 629.418 666.233C629.36 666.265 629.312 666.312 629.279 666.37L622.329 676.12C600.899 706.12 543.639 748.22 512.019 765.18C490.719 776.61 508.759 842.83 526.079 884.55C526.456 885.475 526.516 886.5 526.248 887.462C525.98 888.425 525.4 889.272 524.599 889.869C523.798 890.467 522.821 890.781 521.822 890.763C520.823 890.745 519.858 890.396 519.079 889.77L471.079 849.47C470.566 849.015 469.904 848.766 469.219 848.77C468.795 848.773 468.376 848.863 467.989 849.035C467.602 849.207 467.255 849.458 466.969 849.77C466.762 849.988 466.607 850.249 466.516 850.535C466.424 850.82 466.398 851.123 466.439 851.42C466.839 855.28 467.289 859.1 467.789 862.77C470.259 881.07 473.709 895.09 477.789 903.32C479.029 905.84 480.499 908.65 482.049 911.61C494.189 934.86 512.529 969.99 499.369 1007.87C484.539 1050.54 418.059 1067.18 415.239 1067.87C414.889 1067.96 414.529 1068 414.169 1068C413.401 1068 412.647 1067.8 411.979 1067.42C411.31 1067.05 410.748 1066.5 410.347 1065.85C409.947 1065.2 409.72 1064.45 409.688 1063.68C409.657 1062.92 409.822 1062.15 410.169 1061.47C410.169 1061.38 412.049 1057.41 423.109 1028.09C428.849 1012.89 427.629 1007.96 427.109 1006.77C415.289 1018.09 395.959 1023.83 369.589 1023.83C341.709 1023.83 316.129 1017.4 315.059 1017.13C314.071 1016.88 313.199 1016.3 312.585 1015.49C311.97 1014.67 311.649 1013.68 311.675 1012.66C311.7 1011.64 312.07 1010.66 312.725 1009.88C313.38 1009.1 314.28 1008.56 315.279 1008.36C332.819 1004.86 348.219 976.74 356.179 957.96C340.319 965.53 324.339 969.36 308.639 969.36C260.699 969.36 231.509 934.36 230.289 932.9C229.773 932.273 229.438 931.517 229.317 930.715C229.196 929.912 229.294 929.091 229.602 928.34C229.909 927.589 230.414 926.935 231.063 926.447C231.712 925.959 232.481 925.656 233.289 925.57C276.029 921.2 297.749 891.9 306.899 874.83C306.975 874.72 307.015 874.589 307.015 874.455C307.015 874.321 306.975 874.19 306.899 874.08C306.78 873.89 306.615 873.734 306.419 873.625C306.223 873.517 306.003 873.46 305.779 873.46C305.594 873.461 305.411 873.495 305.239 873.56L253.529 891.29C253.058 891.448 252.565 891.529 252.069 891.53C250.923 891.534 249.821 891.097 248.989 890.31C248.391 889.748 247.958 889.034 247.736 888.245C247.514 887.456 247.511 886.621 247.729 885.83C251.079 873.74 240.729 841.88 228.879 807.5C218.029 776 246.929 726.5 260.689 705.5C242.519 709.59 226.369 711.66 212.619 711.66C166.349 711.66 158.149 688.5 156.729 681.4C156.583 680.667 156.483 679.925 156.429 679.18C156.372 678.139 156.679 677.11 157.297 676.271C157.916 675.432 158.807 674.834 159.819 674.58C222.819 658.7 254.679 628.98 270.359 606.85C283.549 588.24 287.809 571.71 289.069 565.19L200.069 519.49C199.186 519.031 198.48 518.292 198.062 517.389C197.643 516.486 197.536 515.47 197.757 514.5C197.977 513.53 198.513 512.66 199.281 512.027C200.048 511.393 201.004 511.032 201.999 511H202.529C205.199 511 229.739 510.52 267.069 494.12C315.469 472.84 363.329 435.35 409.339 382.68C435.339 352.92 465.209 330.92 498.139 317.31C525.252 306.195 554.295 300.546 583.599 300.69C629.039 300.69 664.369 313.3 676.789 318.39C697.609 257.84 792.079 251.17 832.529 251.17C841.009 251.17 846.139 251.48 846.349 251.49C847.447 251.556 848.483 252.023 849.261 252.801C850.039 253.58 850.505 254.616 850.57 255.715C850.635 256.813 850.296 257.898 849.615 258.763C848.935 259.628 847.962 260.214 846.879 260.41C797.539 269.35 775.779 290.9 766.969 303.59C770.129 302.67 773.899 301.68 778.229 300.71C794.157 297.162 810.429 295.385 826.749 295.41C871.639 295.41 914.159 308.35 953.139 333.86C1022.88 379.51 1077.59 386.33 1104 386.33C1109.12 386.409 1114.25 386.075 1119.32 385.33C1119.59 385.287 1119.86 385.263 1120.13 385.26C1120.98 385.262 1121.81 385.504 1122.53 385.959C1123.25 386.413 1123.82 387.062 1124.19 387.829C1124.55 388.596 1124.7 389.451 1124.6 390.295C1124.5 391.139 1124.16 391.938 1123.63 392.6C1122.42 394.052 1121.08 395.391 1119.63 396.6C1105.63 408.41 1075.45 416.27 1060.31 419.6C1085.02 444.01 1106.85 492.72 1107.85 494.97C1123.29 528.16 1140.94 552.06 1160.26 565.97C1175.73 577.07 1188.26 578.73 1194.42 578.73C1195.79 578.758 1197.16 578.654 1198.52 578.42C1198.82 578.361 1199.13 578.331 1199.44 578.33C1200.21 578.33 1200.97 578.53 1201.65 578.91C1202.32 579.29 1202.89 579.838 1203.29 580.5C1203.69 581.162 1203.92 581.916 1203.94 582.691C1203.97 583.465 1203.8 584.233 1203.44 584.92C1203.28 585.21 1203.12 585.5 1202.95 585.78C1202.92 585.842 1202.89 585.902 1202.85 585.96C1189.8 608.44 1151.6 614.39 1128.16 615.88C1134.76 619.934 1140.83 624.791 1146.23 630.34C1163.55 648.25 1172.5 673.2 1172.11 702.52C1171.97 715.752 1170.02 728.903 1166.29 741.6C1165.99 742.5 1165.42 743.284 1164.65 743.841C1163.88 744.397 1162.96 744.698 1162.01 744.7C1161.76 744.699 1161.51 744.679 1161.27 744.64C1160.21 744.463 1159.24 743.912 1158.55 743.086C1157.87 742.261 1157.49 741.216 1157.51 740.14C1157.8 717.77 1141.93 702.81 1131.08 695.21L1140.82 724.67C1140.82 724.79 1140.9 724.92 1140.93 725.05C1147.32 752.15 1141.8 782.99 1124.93 814.24C1117.36 828.373 1108.14 841.55 1097.44 853.49C1096.76 854.213 1095.85 854.689 1094.87 854.845C1093.89 855 1092.88 854.826 1092.01 854.35C1091.14 853.874 1090.45 853.122 1090.05 852.212C1089.65 851.302 1089.56 850.285 1089.8 849.32C1093.13 835.88 1088.22 811.32 1084.47 800.15C1081.96 805.34 1078.41 814.39 1074.94 823.23C1072.07 830.54 1068.82 838.84 1065.04 848.01C1061.82 855.83 1058.67 863.19 1055.41 870.52C1035.67 914.75 1097.12 952.46 1101.15 954.87C1101.9 955.277 1102.53 955.892 1102.95 956.641C1103.36 957.391 1103.56 958.245 1103.51 959.101C1103.45 959.958 1103.16 960.782 1102.65 961.476C1102.15 962.171 1101.46 962.706 1100.66 963.02C1096.54 964.623 1092.15 965.431 1087.73 965.4C1073.07 965.4 1058.38 957.34 1046.58 950.86C1039.98 947.24 1033.15 943.49 1029.95 943.49C1029.82 943.472 1029.69 943.472 1029.56 943.49C1028.96 944.67 1026.87 951.95 1036.71 987.49C1042.09 1006.9 1048.37 1025.05 1048.44 1025.23C1048.68 1025.91 1048.75 1026.64 1048.65 1027.35C1048.55 1028.06 1048.28 1028.74 1047.86 1029.33C1047.44 1029.92 1046.89 1030.4 1046.25 1030.73C1045.61 1031.06 1044.9 1031.23 1044.18 1031.23H1044.05C1038.15 1031.08 1032.27 1030.47 1026.47 1029.38C1001.88 1024.73 988.919 1012.17 982.379 1002.45C981.141 1000.6 980.009 998.686 978.989 996.71L949.629 1108.11C949.376 1109.07 948.812 1109.92 948.025 1110.53C947.238 1111.13 946.272 1111.46 945.279 1111.46L945.249 1111.49Z" fill="#CE44A2"/>
<path id="Vector_33" d="M832.559 255.67C840.999 255.67 846.109 255.98 846.109 255.98C793.989 265.42 771.469 288.79 762.639 301.98C760.574 304.928 758.872 308.114 757.569 311.47C764.617 308.775 771.866 306.639 779.249 305.08C794.858 301.616 810.8 299.875 826.789 299.89C861.369 299.89 905.429 307.97 950.719 337.61C1021.85 384.17 1077.86 390.81 1104.04 390.81C1109.44 390.903 1114.83 390.548 1120.17 389.75C1119.14 391.001 1118 392.149 1116.75 393.18C1098.83 408.35 1050.6 417.05 1050.6 417.05C1077.45 437.64 1103.77 496.85 1103.77 496.85C1140.48 575.76 1180.56 583.25 1194.45 583.25C1196.13 583.28 1197.8 583.142 1199.45 582.84C1199.3 583.14 1199.13 583.42 1198.96 583.71C1183.64 610.11 1128.24 611.86 1113.8 611.86C1111.59 611.86 1110.34 611.86 1110.34 611.86C1124.2 617.64 1134.85 625.1 1143 633.52C1183.29 675.18 1162 740.25 1162 740.25C1162.48 703.01 1123 685.25 1123 685.25L1136.52 726.12C1151.52 789.75 1094.18 850.44 1094.18 850.44C1098.4 833.39 1090.48 799.84 1086.28 792.99C1085.92 792.41 1085.53 792.13 1085.1 792.13C1081.24 792.13 1074.1 814.26 1060.89 846.34C1058 853.34 1054.81 860.87 1051.31 868.73C1029.61 917.35 1097.16 957.73 1098.98 958.85C1095.38 960.248 1091.56 960.951 1087.7 960.92C1064.93 960.92 1040.62 939.02 1029.92 939.01C1029.18 938.965 1028.44 939.097 1027.76 939.394C1027.08 939.692 1026.48 940.146 1026.01 940.72C1025.85 940.937 1025.7 941.164 1025.57 941.4C1018.89 953.92 1044.15 1026.74 1044.15 1026.74C1038.49 1026.6 1032.85 1026.01 1027.29 1024.97C982.619 1016.52 978.389 981.26 978.389 981.26L945.359 1107L922.219 997C999.939 955.22 993.219 836.5 995.549 782.19C997.479 736.83 960.809 687.24 950.799 687.19C948.799 687.19 947.889 689.12 948.489 693.39C952.149 719.32 926.429 767.39 926.429 767.39C926.429 767.39 904.859 659.49 902.129 649.3C900.879 644.61 897.799 641.11 895.649 641.11C893.119 641.11 891.869 645.96 896.389 659.45C904.749 684.45 907.959 803.08 907.959 803.08C862.669 785.66 809.679 726.08 809.679 726.08L808.169 746.26C755.999 726 725.339 666.14 712.279 634.2C711.76 633.035 710.895 632.057 709.802 631.4C708.709 630.742 707.441 630.435 706.168 630.521C704.896 630.607 703.68 631.082 702.686 631.881C701.692 632.68 700.967 633.766 700.609 634.99C678.229 723.59 604.059 747.12 602.909 747.48C618.769 730.42 629.219 691.83 634.519 667.31C635.239 664.01 632.459 661.68 629.629 661.68C628.844 661.673 628.07 661.858 627.372 662.219C626.675 662.58 626.077 663.105 625.629 663.75L618.629 673.49C598.629 701.49 542.869 743.49 509.849 761.21C476.999 778.83 521.399 885.09 521.909 886.31L473.999 846C472.671 844.869 470.983 844.248 469.239 844.25C465.239 844.25 461.529 847.42 461.979 851.83C462.349 855.36 462.799 859.25 463.349 863.32C465.349 877.9 468.559 894.73 473.739 905.26C484.489 927.05 509.309 965.48 495.109 1006.34C480.909 1047.2 414.159 1063.45 414.159 1063.45C414.159 1063.45 415.669 1060.45 427.299 1029.63C437.029 1003.87 429.299 1001.75 426.489 1001.75C426.184 1001.75 425.879 1001.77 425.579 1001.83C412.989 1015.43 390.729 1019.28 369.579 1019.28C341.939 1019.28 316.159 1012.72 316.159 1012.72C344.979 1006.97 364.669 948.31 364.669 948.31C361.876 949.943 359.126 951.433 356.419 952.78C338.999 961.49 322.959 964.78 308.629 964.78C262.269 964.78 233.759 929.97 233.759 929.97C278.759 925.36 301.509 894.36 310.869 876.88C312.919 873.06 309.869 868.88 305.789 868.88C305.108 868.883 304.433 868.998 303.789 869.22L251.999 887C255.639 873.85 246.209 844.17 233.059 806C219.909 767.83 270.999 698.36 270.999 698.36C269.129 698.84 267.299 699.3 265.489 699.74C243.579 705.06 226.259 707.16 212.559 707.16C169.479 707.16 162.269 686.45 161.089 680.52C160.984 679.998 160.908 679.47 160.859 678.94C285.929 647.39 293.999 562.67 293.999 562.67L201.999 515.49H202.529C210.219 515.49 301.699 512.75 412.719 385.63C468.509 321.76 532.349 305.18 583.599 305.18C638.959 305.18 679.599 324.52 679.599 324.52C696.239 261.52 795.829 255.66 832.499 255.66M832.559 246.67C814.359 246.67 778.919 248.12 746.049 257.86C727.479 263.35 711.969 270.86 699.929 280.07C688.069 289.18 679.459 300.07 674.239 312.54C645.238 301.781 614.561 296.246 583.629 296.19C553.733 296.06 524.106 301.838 496.449 313.19C462.879 327.07 432.449 349.47 405.979 379.76C360.409 431.89 313.079 469 265.289 490C228.799 506 205.139 506.5 202.559 506.5H201.999C199.985 506.51 198.032 507.195 196.453 508.445C194.874 509.696 193.761 511.441 193.291 513.399C192.82 515.358 193.021 517.418 193.86 519.249C194.699 521.08 196.129 522.577 197.919 523.5L283.919 567.61C282.089 575.14 277.469 589.18 266.349 604.72C244.449 635.33 207.229 657.98 158.709 670.21C156.687 670.721 154.905 671.92 153.668 673.6C152.431 675.28 151.817 677.337 151.929 679.42C151.989 680.35 152.11 681.275 152.289 682.19V682.28C153.869 690.28 162.899 716.16 212.589 716.16C225.565 715.992 238.497 714.619 251.219 712.06C247.409 718.3 243.159 725.74 239.089 733.82C223.199 765.44 218.319 790.71 224.589 808.92C233.359 834.38 246.589 872.84 243.369 884.59C242.933 886.168 242.936 887.836 243.378 889.413C243.82 890.989 244.683 892.416 245.876 893.538C247.068 894.661 248.544 895.436 250.145 895.782C251.745 896.128 253.41 896.03 254.959 895.5L298.109 880.71C287.479 896.84 267.339 917.52 232.809 921.06C231.192 921.226 229.65 921.826 228.347 922.798C227.044 923.769 226.028 925.075 225.408 926.578C224.788 928.08 224.586 929.722 224.823 931.33C225.061 932.938 225.73 934.452 226.759 935.71C228.029 937.27 258.549 973.82 308.589 973.82C321.777 973.74 334.843 971.298 347.169 966.61C345.949 969.08 344.619 971.61 343.169 974.23C333.509 991.58 323.269 1002.12 314.329 1003.9C312.327 1004.3 310.52 1005.37 309.205 1006.93C307.891 1008.49 307.146 1010.45 307.094 1012.5C307.041 1014.54 307.684 1016.53 308.917 1018.16C310.15 1019.79 311.9 1020.95 313.879 1021.45C314.969 1021.73 341.079 1028.29 369.519 1028.29C391.859 1028.29 409.469 1024.29 422.099 1016.29C421.223 1019.76 420.135 1023.17 418.839 1026.5C408.889 1052.89 406.439 1058.63 406.049 1059.5C405.221 1061 404.854 1062.71 404.995 1064.42C405.135 1066.13 405.777 1067.76 406.839 1069.11C407.677 1070.19 408.754 1071.06 409.987 1071.65C411.219 1072.24 412.572 1072.54 413.939 1072.52C414.718 1072.52 415.493 1072.43 416.249 1072.24C419.169 1071.53 487.939 1054.31 503.569 1009.35C509.719 991.66 509.959 973.09 504.319 952.58C499.699 935.8 492.099 921.23 485.989 909.58C484.449 906.64 482.989 903.86 481.779 901.38C477.939 893.58 474.629 880.04 472.229 862.22C471.936 860.087 471.662 857.92 471.409 855.72L516.179 893.29C517.722 894.583 519.654 895.321 521.666 895.386C523.678 895.452 525.654 894.841 527.278 893.651C528.902 892.461 530.08 890.762 530.624 888.824C531.168 886.885 531.047 884.821 530.279 882.96C522.887 864.831 516.778 846.205 511.999 827.22C504.359 795.66 505.159 773.95 514.119 769.14C543.909 753.14 596.229 715.07 620.919 685.25C613.709 712.25 605.149 731.82 596.289 741.35C595.095 742.633 594.302 744.237 594.007 745.964C593.712 747.691 593.928 749.467 594.627 751.074C595.327 752.68 596.481 754.048 597.947 755.008C599.412 755.969 601.127 756.48 602.879 756.48C603.785 756.482 604.686 756.343 605.549 756.07C606.399 755.81 626.549 749.41 649.349 731.38C662.473 721.022 673.973 708.76 683.469 695C693.931 679.731 701.919 662.908 707.139 645.15C722.619 680.46 753.809 734.82 804.899 754.69C806.208 755.2 807.619 755.396 809.017 755.263C810.416 755.131 811.764 754.672 812.954 753.925C814.144 753.177 815.142 752.162 815.869 750.959C816.595 749.757 817.03 748.401 817.139 747C836.369 766.31 872.009 798.88 904.729 811.47C906.113 812.01 907.608 812.2 909.083 812.021C910.558 811.843 911.965 811.302 913.18 810.448C914.395 809.593 915.38 808.451 916.046 807.124C916.712 805.797 917.04 804.325 916.999 802.84C916.869 798.19 916.339 779.78 915.269 757.31C916.159 761.77 916.969 765.78 917.639 769.15C918.003 770.969 918.919 772.631 920.263 773.909C921.608 775.187 923.314 776.019 925.149 776.29C925.586 776.358 926.027 776.391 926.469 776.39C928.097 776.389 929.694 775.947 931.091 775.111C932.487 774.274 933.63 773.075 934.399 771.64C939.18 762.464 943.469 753.041 947.249 743.41C953.249 727.98 956.779 714.79 957.659 704.04C962.967 710.618 967.617 717.702 971.539 725.19C977.539 736.53 987.539 758.96 986.599 781.8C986.339 787.8 986.199 794.51 986.039 801.66C985.409 830.41 984.549 869.79 975.439 905.49C964.949 946.59 946.159 973.92 917.999 989.06C916.286 989.98 914.917 991.43 914.097 993.193C913.276 994.956 913.049 996.937 913.449 998.84L936.599 1108.84C937.015 1110.82 938.089 1112.61 939.646 1113.91C941.203 1115.2 943.153 1115.94 945.179 1115.99H945.409C947.397 1115.99 949.328 1115.33 950.902 1114.12C952.476 1112.9 953.603 1111.2 954.109 1109.28L980.829 1007.87C988.379 1017.77 1001.99 1029.33 1025.77 1033.87C1031.8 1035 1037.91 1035.65 1044.04 1035.8H1044.3C1045.74 1035.8 1047.16 1035.46 1048.44 1034.8C1049.73 1034.14 1050.83 1033.18 1051.67 1032.01C1052.5 1030.83 1053.04 1029.47 1053.24 1028.04C1053.44 1026.61 1053.29 1025.16 1052.81 1023.8C1052.75 1023.63 1046.81 1006.58 1041.62 987.94C1035.24 965.19 1033.78 954.23 1033.62 949.19C1036.84 950.6 1041.26 953.03 1044.55 954.84C1056.8 961.56 1072.05 969.93 1087.87 969.93C1092.86 969.958 1097.8 969.042 1102.45 967.23C1104.04 966.604 1105.41 965.541 1106.42 964.163C1107.42 962.786 1108.02 961.151 1108.13 959.449C1108.24 957.747 1107.87 956.048 1107.05 954.551C1106.23 953.053 1105.01 951.818 1103.52 950.99C1092.29 943.991 1082.08 935.462 1073.2 925.65C1056.76 907.02 1052.2 889.1 1059.65 872.39C1062.94 865.03 1066.1 857.63 1069.34 849.76C1073.13 840.55 1076.4 832.23 1079.27 824.9C1080.7 821.27 1082.18 817.49 1083.6 813.95C1085.99 825.31 1087.69 839.7 1085.6 848.27C1085.12 850.2 1085.3 852.234 1086.1 854.054C1086.9 855.874 1088.28 857.378 1090.02 858.33C1091.77 859.283 1093.78 859.631 1095.74 859.319C1097.71 859.008 1099.51 858.055 1100.88 856.61C1111.82 844.381 1121.26 830.885 1129 816.41C1136.27 803.191 1141.69 789.04 1145.12 774.35C1149.03 756.82 1149.12 739.9 1145.38 724.05C1145.32 723.793 1145.25 723.539 1145.16 723.29L1140.57 709.41C1147.42 716.99 1153.25 727.24 1153.08 740.12C1153.05 742.271 1153.79 744.362 1155.17 746.013C1156.55 747.664 1158.48 748.766 1160.6 749.12C1161.09 749.199 1161.59 749.239 1162.09 749.24C1163.98 749.237 1165.83 748.636 1167.36 747.523C1168.9 746.41 1170.04 744.841 1170.63 743.04C1174.51 729.911 1176.54 716.308 1176.68 702.62C1177.09 672.09 1167.68 646.03 1149.54 627.25C1146.8 624.404 1143.88 621.732 1140.8 619.25C1146.29 618.61 1152.14 617.71 1157.99 616.47C1182.54 611.25 1198.99 601.74 1206.81 588.21C1206.86 588.13 1206.91 588.047 1206.95 587.96L1207.33 587.3C1208.23 585.738 1208.65 583.947 1208.54 582.148C1208.43 580.35 1207.8 578.622 1206.72 577.18C1205.68 575.817 1204.26 574.79 1202.64 574.226C1201.02 573.663 1199.27 573.587 1197.61 574.01C1196.57 574.164 1195.52 574.235 1194.47 574.22C1183.97 574.22 1147.01 568.36 1111.98 493.09C1110.68 490.18 1091.76 448.21 1068.98 422.25C1085.55 418.18 1109.89 410.75 1122.58 400.02C1124.25 398.628 1125.79 397.077 1127.17 395.39C1128.24 394.069 1128.92 392.471 1129.12 390.781C1129.32 389.091 1129.04 387.38 1128.3 385.844C1127.57 384.309 1126.42 383.012 1124.98 382.105C1123.54 381.198 1121.87 380.718 1120.17 380.72C1119.62 380.72 1119.06 380.77 1118.52 380.87C1113.72 381.549 1108.88 381.853 1104.03 381.78C1078.12 381.78 1024.4 375.06 955.639 330.05C934.561 316.172 911.432 305.695 887.099 299C867.44 293.645 847.155 290.935 826.779 290.94C810.907 290.919 795.077 292.565 779.549 295.85C791.189 284.56 811.869 271.36 847.709 264.85C849.884 264.467 851.842 263.298 853.211 261.566C854.581 259.833 855.265 257.657 855.134 255.453C855.003 253.248 854.066 251.169 852.502 249.61C850.937 248.051 848.854 247.122 846.649 247C846.439 247 841.179 246.67 832.559 246.67Z" fill="#17091D"/>
<path id="Vector_34" d="M913.628 379.22C948.558 387.4 983.628 414.4 1006.14 442.42C1006.28 442.586 1006.43 442.743 1006.59 442.89C1080.99 510.59 990.858 460.35 963.858 430.04C961.131 426.96 958.19 424.076 955.058 421.41C952.551 419.29 950.218 417.173 948.058 415.06C945.241 412.178 942.654 409.082 940.318 405.8C934.058 397.35 917.898 392.58 909.818 386.87C905.848 384.06 908.808 378.09 913.628 379.22Z" fill="#D969BD"/>
<path id="Vector_35" d="M436.268 414.66C421.848 434.89 400.688 453 378.998 466.06C372.025 470.26 365.232 474.71 358.618 479.41C294.618 524.81 355.028 453.33 388.618 433.16C392.183 431.04 395.598 428.678 398.838 426.09C401.392 424.023 403.918 422.127 406.418 420.4C409.836 418.128 413.423 416.122 417.148 414.4C420.523 412.576 423.52 410.125 425.978 407.18C431.288 401.29 440.848 408.25 436.268 414.66Z" fill="#D969BD"/>
<path id="Vector_36" d="M655.259 441.75C637.806 452.363 623.782 464.07 613.189 476.87C603.144 489.303 591.079 499.958 577.499 508.39C577.196 508.564 576.845 508.634 576.499 508.59C576.161 508.551 575.845 508.403 575.599 508.17C575.364 507.939 575.212 507.636 575.169 507.31C575.132 506.982 575.214 506.652 575.399 506.38C593.859 480.43 623.049 450.54 654.799 440.87C654.915 440.83 655.042 440.833 655.156 440.879C655.269 440.925 655.363 441.01 655.419 441.12C655.464 441.232 655.464 441.357 655.419 441.47C655.395 441.577 655.339 441.675 655.259 441.75Z" fill="#D969BD"/>
<path id="Vector_37" d="M254.64 685.49C282.11 678.96 299.51 671.49 310.28 665.38L265.49 699.74C174.67 721.81 162.64 688.34 161.09 680.52C185 687.28 220.5 693.6 254.64 685.49Z" fill="#9C398C"/>
<path id="Vector_38" d="M326.199 653.17C325.989 653.47 322.199 658.59 310.279 665.38L326.199 653.17Z" fill="#9C398C"/>
<path id="Vector_39" d="M1099.05 958.85C971.668 918 1061 846.34 1061 846.34C1058.11 853.34 1054.92 860.87 1051.42 868.73C1029.68 917.35 1097.23 957.77 1099.05 958.85Z" fill="#9C398C"/>
<path id="Vector_40" d="M1110.38 611.85C1124.24 617.63 1081.67 591.42 1081.67 591.42C1081.67 591.42 1130.4 606.94 1199 583.74C1181.34 614.18 1110.38 611.85 1110.38 611.85Z" fill="#9C398C"/>
<path id="Vector_41" d="M1120.16 389.77C1119.13 391.021 1117.99 392.169 1116.74 393.2C1073.07 402.2 1022.45 403.92 984.92 379.08C920.49 336.42 796.67 318.91 757 311C790.4 303.5 868.4 282.15 950.68 337.64C985.34 361 1012.66 371.31 1038 379C1087.7 394.09 1120.16 389.77 1120.16 389.77Z" fill="#D969BD"/>
<path id="Vector_42" d="M846.108 256C752.108 261 679.658 324.55 679.658 324.55C700.128 247.07 846.108 256 846.108 256Z" fill="#D969BD"/>
<path id="Vector_43" d="M487.569 434.35C487.569 434.35 421.999 570.87 326.199 594.18C326.199 594.18 371.079 610.36 418.069 581.93" stroke="#17091D" stroke-width="9" stroke-linecap="round" stroke-linejoin="round"/>
<path id="Vector_44" d="M438.339 581.189C438.339 581.189 421.509 707.609 320.189 737.549C320.189 737.549 428.349 754.339 459.809 730.489" stroke="#17091D" stroke-width="9" stroke-linecap="round" stroke-linejoin="round"/>
<path id="Vector_45" d="M512.699 622.11C512.699 622.11 454.549 758.49 426.139 774.49C426.139 774.49 494.939 774.2 543.979 746.49" stroke="#17091D" stroke-width="9" stroke-linecap="round" stroke-linejoin="round"/>
<path id="Vector_46" d="M913 570.16C913 570.16 960.68 651.65 954.3 698.49" stroke="#17091D" stroke-width="9" stroke-linecap="round" stroke-linejoin="round"/>
<path id="Vector_47" d="M773.059 627.16C773.059 627.16 774.629 704.98 814.369 737.49" stroke="#17091D" stroke-width="9" stroke-linecap="round" stroke-linejoin="round"/>
<path id="Vector_48" d="M1002 662.77C1002 662.77 1079.93 770.02 1009.77 879.26C1009.77 879.26 1086.51 858.72 1085.66 766.61C1084.81 674.5 1009.77 561.67 1009.77 561.67" stroke="#17091D" stroke-width="9" stroke-linecap="round" stroke-linejoin="round"/>
<path id="Vector_49" d="M1091 654.43C1091 654.43 1131.39 682.93 1135.31 701.49" stroke="#17091D" stroke-width="9" stroke-linecap="round" stroke-linejoin="round"/>
<path id="Vector_50" d="M1079.21 589.77C1111.07 611.49 1135.27 618.49 1135.27 618.49" stroke="#17091D" stroke-width="9" stroke-linecap="round" stroke-linejoin="round"/>
<path id="Vector_51" d="M1071.81 515.47C1071.81 515.47 1101.15 556.84 1139.81 561.67" stroke="#17091D" stroke-width="9" stroke-linecap="round" stroke-linejoin="round"/>
<path id="Vector_52" d="M994.289 404.49C994.289 404.49 1039.66 425.86 1064.78 420.49" stroke="#17091D" stroke-width="9" stroke-linecap="round" stroke-linejoin="round"/>
<path id="Vector_53" d="M356.349 952.79C282.549 989.67 233.689 930 233.689 930C233.689 930 336.999 955.59 397.199 890C397.199 890 400.409 920.72 356.349 952.79Z" fill="#9C398C"/>
<path id="Vector_54" d="M495.06 1006.35C480.86 1047.2 414.11 1063.46 414.11 1063.46C414.11 1063.46 415.62 1060.46 427.25 1029.64C438.88 998.82 425.53 1001.84 425.53 1001.84C396.53 1033.19 316.09 1012.73 316.09 1012.73C316.09 1012.73 428.93 997.85 441.39 956C450.04 927 455.23 886.89 463.3 863.34C465.3 877.92 468.51 894.75 473.69 905.28C484.44 927.06 509.26 965.49 495.06 1006.35Z" fill="#9C398C"/>
<path id="Vector_55" d="M439.289 769C448.351 768.141 457.312 766.423 466.049 763.87C474.72 761.397 483.243 758.436 491.579 755C499.909 751.6 508.049 747.78 516.019 743.62L519.019 742.07L522.019 740.45C524.019 739.35 526.019 738.33 527.909 737.16L533.749 733.78L539.489 730.23C547.149 725.49 554.649 720.49 561.989 715.23L567.499 711.29L572.929 707.22C574.749 705.88 576.569 704.53 578.329 703.11L583.699 698.93C597.989 687.73 611.699 675.77 625.699 663.74C614.745 678.598 602.403 692.38 588.839 704.9C585.409 708 582.049 711.18 578.459 714.11L573.129 718.57L567.649 722.85C564.029 725.75 560.189 728.37 556.439 731.1C554.539 732.43 552.579 733.68 550.649 734.97C548.719 736.26 546.779 737.55 544.789 738.74C536.888 743.67 528.707 748.137 520.289 752.12C511.865 756.132 503.179 759.566 494.289 762.4C485.38 765.233 476.253 767.323 466.999 768.65C462.393 769.285 457.756 769.665 453.109 769.79C448.488 769.967 443.86 769.702 439.289 769Z" fill="#D969BD"/>
<path id="Vector_56" d="M602.908 747.48C613.743 740.268 624.175 732.47 634.158 724.12C639.098 719.97 643.888 715.7 648.518 711.26C653.148 706.82 657.608 702.26 661.818 697.46L663.428 695.69L664.968 693.86C665.968 692.64 667.048 691.44 668.028 690.19L671.028 686.46C672.028 685.21 672.918 683.89 673.898 682.63L675.328 680.72L676.688 678.72C677.568 677.4 678.538 676.13 679.398 674.79C681.108 672.1 682.888 669.44 684.468 666.67C686.048 663.9 687.598 661.09 689.178 658.29L691.328 653.98L692.418 651.81L693.418 649.61L695.418 645.18C696.018 643.68 696.598 642.18 697.238 640.66L698.178 638.39L698.998 636.09C699.588 634.55 700.138 633 700.758 631.46C700.648 633.11 700.468 634.75 700.328 636.4L700.048 638.88L699.648 641.33C699.388 642.97 699.048 644.6 698.748 646.24L697.558 651.09L696.928 653.52L696.178 655.9C695.658 657.49 695.178 659.08 694.598 660.67L692.758 665.34C692.158 666.91 691.458 668.43 690.758 669.95C687.949 676.053 684.655 681.922 680.908 687.5C679.968 688.89 679.038 690.3 678.038 691.65L675.038 695.65C674.038 696.99 672.918 698.25 671.868 699.56L670.258 701.49L668.588 703.38C666.368 705.89 664.028 708.29 661.678 710.68C659.328 713.07 656.848 715.31 654.308 717.48C649.272 721.858 643.98 725.932 638.458 729.68C632.953 733.411 627.222 736.798 621.298 739.82C615.402 742.903 609.249 745.466 602.908 747.48Z" fill="#D969BD"/>
<path id="Vector_57" d="M907.488 574C910.311 577.231 912.951 580.616 915.398 584.14C917.898 587.64 920.188 591.27 922.398 594.95C926.814 602.356 930.749 610.039 934.178 617.95C941.16 633.887 945.905 650.713 948.278 667.95C948.908 672.26 949.208 676.62 949.558 680.95L949.768 687.49C949.818 688.58 949.768 689.67 949.768 690.77L949.698 694.04L949.608 697.32C949.608 698.41 949.448 699.5 949.378 700.58C949.198 702.76 949.068 704.94 948.808 707.11L947.898 713.6L947.658 715.21L947.328 716.82L946.678 720.02C946.248 722.16 945.818 724.29 945.188 726.39L943.438 732.67C942.748 734.73 942.018 736.78 941.298 738.82C940.918 739.82 940.568 740.87 940.178 741.88L938.888 744.88C938.008 746.88 937.178 748.88 936.248 750.8C935.318 752.72 934.248 754.63 933.248 756.51C932.728 757.45 932.248 758.41 931.688 759.33L929.998 762C928.818 763.79 927.668 765.6 926.468 767.36C929.368 759.28 932.378 751.41 934.338 743.23L935.168 740.23C935.408 739.23 935.608 738.18 935.828 737.16L937.158 731.05C937.778 726.93 938.638 722.87 939.008 718.73C939.588 714.62 939.798 710.48 940.108 706.36C940.228 704.3 940.198 702.23 940.288 700.16C940.288 699.16 940.368 698.1 940.368 697.07L940.298 693.97C940.218 685.698 939.597 677.441 938.438 669.25C936.151 652.755 932.301 636.516 926.938 620.75C924.298 612.75 921.328 604.94 918.098 597.15C914.868 589.36 911.338 581.63 907.488 574Z" fill="#D969BD"/>
<path id="Vector_58" d="M779.128 627C780.101 636.387 782.024 645.651 784.868 654.65C787.604 663.569 790.99 672.276 794.998 680.7C802.981 697.495 812.945 713.273 824.678 727.7C836.437 742.202 849.432 755.656 863.518 767.91C877.518 780.36 892.598 791.81 907.988 803.11C890.438 795.339 873.842 785.572 858.528 774C843.011 762.45 829.007 748.995 816.848 733.95C804.567 718.856 794.746 701.917 787.748 683.76C784.287 674.701 781.727 665.322 780.108 655.76C779.294 651.001 778.783 646.194 778.578 641.37C778.301 636.573 778.485 631.761 779.128 627Z" fill="#D969BD"/>
</g>
</g>
</g>
</svg>
