<svg width="1360" height="1602" viewBox="0 0 1360 1602" fill="none" xmlns="http://www.w3.org/2000/svg">
<g id="Hair 11">
<g id="Head 2">
<g id="1 neck">
<path id="Vector" d="M673.29 1541.5C662.675 1541.51 652.093 1540.33 641.74 1537.98C605.93 1529.84 575.8 1514.98 540.99 1488.22C532.66 1481.8 532.04 1474.78 532.99 1470.01C536.13 1453.91 540.14 1271.41 540.3 1250.77C540.35 1244.63 540.36 1228.71 540.3 1212.03C540.3 1201.03 540.2 1179.92 539.99 1161.93C539.85 1150.34 539.68 1142.93 539.5 1139.23L539.08 1131.02L546.22 1135.09C547.32 1135.72 551.77 1137.88 556.49 1140.16C575.14 1149.16 583.84 1153.59 586.1 1155.75C589.26 1158.32 613.15 1165.86 623.35 1169.07C633.03 1172.07 634.35 1172.58 635.3 1173.14C642.88 1177.75 651.03 1181.19 659.67 1184.83C666.17 1187.57 672.9 1190.41 680.01 1193.98C691.4 1199.7 696.85 1202.25 699.01 1202.25C699.807 1202.19 700.593 1202.03 701.35 1201.78C704.05 1201.06 708.14 1199.96 716.96 1199.96C720.52 1199.96 724.64 1200.14 729.19 1200.5C737.93 1200.59 742.26 1206.24 745.43 1210.38C748.15 1213.92 749.43 1215.38 751.58 1215.38C752.574 1215.35 753.555 1215.14 754.48 1214.78L760.61 1212.59L760.5 1219.1C760.5 1221.44 760.5 1224.89 760.57 1228.81C760.78 1238.35 761.3 1250.02 762 1260.81C762.46 1267.98 763 1299 763.67 1334.93C764.67 1388.56 766.1 1469.54 767.61 1476.17C770.17 1483.99 768.61 1491.63 763.19 1498.27C740.59 1525.84 715.87 1539.07 683.02 1541.16C679.77 1541.39 676.5 1541.5 673.29 1541.5Z" fill="#E68856"/>
<path id="Vector_2" d="M544 1139C547.84 1141.19 579.87 1156 583 1159C587.51 1163.38 631 1175.82 633 1177C646.52 1185.24 661.42 1189.67 678 1198C691.79 1204.92 696 1206.75 699 1206.75C702.42 1206.75 704.43 1204.46 716.94 1204.46C720.19 1204.46 724.13 1204.61 728.94 1205H729.01C741.4 1205 741.83 1219.86 751.52 1219.86C753.052 1219.84 754.569 1219.55 756 1219C756 1221.34 756 1224.75 756.07 1228.89C756.26 1237.47 756.74 1249.2 757.51 1261.12C758.73 1280.12 760.67 1469.53 763.31 1477.52C765.444 1483.95 764.244 1489.92 759.71 1495.44C740.29 1519.13 718.02 1534.44 682.71 1536.69C679.544 1536.9 676.397 1537.01 673.27 1537C662.991 1537.01 652.743 1535.87 642.72 1533.59C604.16 1524.83 574.26 1508.12 543.72 1484.65C538.487 1480.65 536.377 1476.06 537.39 1470.89C540.7 1453.95 544.65 1268.55 544.79 1250.81C544.84 1244.99 544.85 1229.65 544.79 1212.02C544.79 1195.32 544.65 1176.56 544.48 1161.88C544.35 1151.48 544.19 1143.12 543.98 1139M534.15 1123L534.99 1139.42C535.18 1143.04 535.34 1150.42 535.48 1161.95C535.69 1179.95 535.76 1201.02 535.79 1211.95C535.84 1228.58 535.79 1244.49 535.79 1250.64C535.63 1270.71 531.58 1453.64 528.56 1469.07C527.56 1473.97 527.56 1483.46 538.23 1491.69C573.59 1518.86 604.23 1533.99 640.74 1542.28C651.417 1544.7 662.332 1545.92 673.28 1545.91C676.58 1545.91 679.96 1545.8 683.28 1545.58C701.61 1544.41 717.42 1539.92 731.6 1531.83C744.16 1524.68 755.3 1514.89 766.6 1501.06C773 1493.25 774.84 1484.26 771.92 1475.06C770.47 1466.22 769.05 1387.22 768.1 1334.8C767.42 1297.34 766.89 1267.8 766.42 1260.49C765.73 1249.74 765.21 1238.13 765 1228.64C764.91 1224.79 764.89 1221.4 764.93 1219.1L765.15 1206.1L753 1210.53C752.604 1210.68 752.191 1210.79 751.77 1210.85C750.77 1209.86 749.857 1208.79 749.04 1207.64C745.74 1203.33 740.23 1196.14 729.42 1196C724.81 1195.64 720.63 1195.46 716.99 1195.46C707.58 1195.46 703.15 1196.65 700.22 1197.46L699.03 1197.76C696.78 1197.36 687.6 1192.76 682.08 1189.98C674.83 1186.34 668.08 1183.47 661.47 1180.71C652.99 1177.13 644.98 1173.71 637.72 1169.33C636.3 1168.48 634.93 1168.02 624.82 1164.83C616.14 1162.1 593.27 1154.88 588.96 1152.22C586.22 1149.83 579.77 1146.44 558.55 1136.16C554.32 1134.11 549.55 1131.79 548.55 1131.23L534.17 1123H534.15Z" fill="#020201"/>
<path id="Vector_3" d="M757.51 1261.12C744.18 1265.34 730.292 1267.54 716.31 1267.64C676.46 1267.82 635.9 1260.01 600.72 1243.29C583.167 1234.95 567.233 1226.66 552.92 1218.41C550.03 1216.53 547.316 1214.39 544.81 1212.02C544.81 1195.32 544.17 1153.68 544 1139.02C575.84 1156.42 603.23 1200.69 639.48 1212.3C670 1222.06 693 1230 727.61 1230.65C737.13 1230.89 746.652 1230.3 756.07 1228.89C756.26 1237.47 756.74 1249.2 757.51 1261.12Z" fill="#CE6D40"/>
</g>
<g id="1 head">
<g id="head">
<path id="Vector_4" d="M763 1220C759.53 1220.44 782.42 1218.55 781 1221C774.75 1222.62 769.82 1226.5 751.13 1229.43C739.738 1231.17 728.203 1231.8 716.69 1231.3C695.32 1230.45 677.18 1228.3 656.95 1220.23C629.935 1209.45 603.955 1196.25 579.33 1180.77C574.06 1177.45 568.988 1173.82 564.14 1169.91C550.54 1158.95 540.007 1149.97 532.54 1142.97C512.34 1124 497 1099.24 485 1072C489.5 1077.86 493 1085.52 497.13 1091.52C512.27 1113.41 533.35 1134.39 552.08 1148.57C581.76 1171.06 619.17 1187.16 655 1203C679.59 1213.88 690.17 1215.06 720 1216C735.64 1216.5 756.45 1220 763 1220Z" fill="#020201"/>
<g id="face">
<path id="Vector_5" d="M755.131 1229H755.001C657.731 1221.52 581.241 1190.71 527.661 1137.42C494.148 1104.04 470.345 1062.17 458.801 1016.3C452.651 991.09 445.141 965.72 435.801 938.71C433.431 931.86 430.961 924.66 428.441 917.3L427.211 913.74C404.301 846.81 392.001 809.89 390.621 804C387.531 790.62 388.301 738.37 388.331 736.15V736C390.691 679 402.561 628.67 423.601 586.34C440.76 551.469 465.333 520.769 495.601 496.39C520.031 476.75 548.451 460.93 580.071 449.39C634.641 429.5 681.211 428.49 690.001 428.49H690.891C691.671 428.44 694.671 428.28 699.531 428.28C725.531 428.28 792.801 432.55 856.831 472.11C893.46 494.706 923.815 526.155 945.101 563.56C971.541 609.5 986.761 666.48 990.331 732.92C990.791 741.46 989.401 755.98 987.681 772.67L986.931 779.81C984.131 806.68 980.641 840.12 980.821 870.3C981.051 908.5 971.241 969.52 965.371 1002.49C963.131 1015.08 961.521 1023.2 961.501 1023.28V1023.47L961.441 1023.65C948.011 1070.05 929.071 1109.65 905.151 1141.43C885.851 1167.05 863.281 1187.65 838.061 1202.66C794.221 1228.74 756.941 1229 755.371 1229H755.131Z" fill="#E68856"/>
<path id="Vector_6" d="M699.531 432.8C746.321 432.8 970.531 447.73 985.841 733.17C986.271 741.17 984.971 755.1 983.201 772.22C980.291 800.38 976.121 837.17 976.321 870.34C976.551 908.49 966.611 969.85 960.941 1001.71C958.681 1014.4 957.091 1022.41 957.091 1022.41C898.921 1223.28 758.871 1224.54 755.371 1224.54H755.301C532.561 1207.42 476.721 1070.67 463.171 1015.23C456.741 988.88 448.931 962.9 440.101 937.23C437.361 929.23 434.471 920.85 431.521 912.23C414.901 863.83 396.611 810 395.001 803C392.001 790 392.831 736.23 392.831 736.23C395.341 675.65 408.351 627.17 427.631 588.38C503.221 436.28 675.291 433 690.001 433H691.001C691.001 433 694.001 432.8 699.531 432.8ZM699.531 423.8C694.871 423.8 691.831 423.94 690.791 424H690.001C681.081 424 633.811 425 578.561 445.21C546.471 456.91 517.621 473 492.811 492.92C462.022 517.699 437.025 548.911 419.571 584.37C398.251 627.28 386.221 678.24 383.841 735.86V736.09C383.751 741.71 383.091 791.35 386.241 805.02C387.631 811.02 400.011 848.12 423.021 915.2L424.511 919.55C426.941 926.63 429.321 933.55 431.601 940.18C440.851 967.05 448.321 992.29 454.441 1017.36C459.194 1036.64 466.157 1055.31 475.191 1073C487.91 1098.02 504.535 1120.85 524.441 1140.64C549.261 1165.32 579.391 1185.51 613.981 1200.64C654.531 1218.39 701.851 1229.45 754.611 1233.5H754.951H755.371C759.371 1233.5 796.231 1232.74 840.371 1206.5C866.101 1191.19 889.101 1170.2 908.751 1144.11C933.001 1111.91 952.191 1071.8 965.751 1024.87L965.861 1024.5L965.941 1024.12C965.941 1024.04 967.571 1015.88 969.821 1003.25C975.721 970.12 985.571 908.79 985.341 870.25C985.161 840.31 988.641 807.01 991.431 780.25C991.681 777.81 991.931 775.42 992.171 773.1C993.921 756.21 995.321 741.51 994.851 732.64C991.231 665.49 975.851 607.84 949.031 561.29C927.37 523.25 896.489 491.269 859.231 468.29C794.201 428.13 725.891 423.8 699.541 423.8H699.531Z" fill="#020201"/>
<path id="Vector_7" d="M431.52 912.28C414.9 863.83 396.61 810 395 803C392 790 392.83 736.23 392.83 736.23C395.34 675.65 408.35 627.17 427.63 588.38C419.63 618.25 406.09 699.57 438.63 846.94C452 907.59 446 921.56 431.52 912.28Z" fill="#CE6D40"/>
</g>
</g>
<path id="smile" d="M628.282 1014.74C628.515 1014.73 628.745 1014.8 628.932 1014.94C629.124 1015.07 629.262 1015.27 629.322 1015.5C629.401 1015.72 629.401 1015.96 629.322 1016.18C629.236 1016.4 629.082 1016.58 628.882 1016.7L619.882 1021.88C619.146 1022.3 618.595 1022.98 618.339 1023.79C618.083 1024.6 618.142 1025.47 618.502 1026.24C622.862 1035.85 647.912 1049.3 656.952 1053.34C686.377 1066.71 718.236 1073.9 750.552 1074.45C782.172 1074.93 805.952 1074.45 834.202 1063.25C842.002 1060.13 847.522 1056.02 850.762 1050.93C850.892 1050.71 851.079 1050.53 851.302 1050.41C851.53 1050.29 851.784 1050.23 852.042 1050.23C852.301 1050.24 852.553 1050.31 852.772 1050.45C852.997 1050.58 853.186 1050.77 853.322 1050.99L854.072 1052.26C854.543 1053.1 854.749 1054.05 854.662 1055.01C854.573 1055.96 854.189 1056.86 853.562 1057.58C843.802 1068.76 826.252 1074.58 811.562 1077.37C766.102 1085.88 720.659 1082.74 675.232 1067.97C651.94 1060.44 630.568 1047.93 612.602 1031.3C612.357 1031.08 612.071 1030.91 611.762 1030.8C611.442 1030.68 611.1 1030.64 610.762 1030.68C610.435 1030.7 610.117 1030.79 609.832 1030.95C609.543 1031.1 609.29 1031.31 609.092 1031.57L604.522 1037.38C604.343 1037.62 604.095 1037.79 603.812 1037.88C603.53 1037.97 603.224 1037.97 602.942 1037.88C602.664 1037.78 602.429 1037.58 602.273 1037.33C602.117 1037.08 602.05 1036.78 602.082 1036.49C603.052 1023.44 616.302 1015.07 628.282 1014.74Z" fill="#020201"/>
<g id="nose">
<path id="Vector_8" d="M816.822 991.859C807.632 1009.12 782.002 1028 766.882 1027.71C759.598 1027.58 752.422 1025.92 745.816 1022.85C739.21 1019.78 733.319 1015.36 728.522 1009.88C725.202 1006.07 722.932 1002.23 723.272 999.049C723.394 997.919 723.935 996.875 724.788 996.124C725.642 995.373 726.745 994.968 727.882 994.989L776.002 997.779C789.879 998.583 803.774 996.569 816.852 991.859H816.822ZM733.822 1005.05C734.367 1006.3 735.295 1007.35 736.472 1008.05C741.138 1011.23 746.435 1013.37 752.002 1014.32C753.003 1014.5 754.035 1014.33 754.931 1013.85C755.827 1013.37 756.535 1012.6 756.942 1011.67V1011.58C757.079 1011.23 757.134 1010.85 757.102 1010.48C757.082 1010.1 756.972 1009.74 756.782 1009.41C756.602 1009.08 756.349 1008.8 756.042 1008.58C755.743 1008.37 755.402 1008.22 755.042 1008.15L734.482 1004.26C734.383 1004.23 734.28 1004.23 734.182 1004.26C734.085 1004.3 733.999 1004.36 733.932 1004.44C733.86 1004.52 733.814 1004.61 733.802 1004.72C733.774 1004.83 733.777 1004.94 733.812 1005.05H733.822Z" fill="#CE6D40"/>
<path id="Vector_9" d="M733.811 1005.05C733.787 1004.94 733.787 1004.83 733.811 1004.73C733.828 1004.63 733.873 1004.53 733.942 1004.45C734.011 1004.37 734.096 1004.31 734.192 1004.27C734.29 1004.24 734.393 1004.24 734.491 1004.27L755.002 1008.15C755.364 1008.21 755.706 1008.36 756.002 1008.58C756.309 1008.8 756.562 1009.08 756.741 1009.41C756.93 1009.74 757.043 1010.1 757.072 1010.48C757.095 1010.85 757.037 1011.23 756.902 1011.58V1011.67C756.498 1012.6 755.792 1013.37 754.897 1013.85C754.003 1014.33 752.972 1014.5 751.971 1014.32C746.406 1013.38 741.108 1011.25 736.431 1008.09C735.262 1007.38 734.345 1006.31 733.811 1005.05Z" fill="#201116"/>
<path id="Vector_10" d="M790.002 843.999C788.872 845.129 789.122 847.399 789.002 848.999C788.342 857.999 783.372 895.329 790.682 915.289C799.002 937.999 802.302 952.659 815.002 970.999C827.702 989.339 792.842 1022.22 770.422 1025.61C770.422 1025.61 764.602 1029.61 779.302 1029.33C794.002 1029.05 816.882 1013.4 822.442 995.699C828.002 977.999 826.882 974.569 822.442 966.789C818.002 959.009 798.002 923.999 796.002 898.999C794.002 873.999 800.002 852.999 792.002 843.999C791.342 843.249 791.002 842.999 790.002 843.999Z" fill="#020201"/>
</g>
<g id="glasses">
<path id="Vector_11" d="M1021 768C1022.56 769 996.432 766.57 994.002 766C990.392 768 978.522 763.54 974.352 763.36C951.212 762.3 929.995 761.607 910.702 761.28C896.882 761.07 880.052 764.42 870.292 765.28C856.685 766.5 846.798 768.547 840.632 771.42C828.312 777.2 818.598 784.97 811.492 794.73C811.13 795.228 810.819 795.76 810.562 796.32L801.252 816.79C801.039 817.263 800.733 817.688 800.352 818.04C799.966 818.389 799.513 818.658 799.022 818.83C798.534 819 798.017 819.068 797.502 819.03C796.983 818.997 796.477 818.861 796.012 818.63C784.172 812.73 772.138 810.633 759.912 812.34C755.372 812.97 751.662 812.79 747.212 815.44C746.915 815.619 746.585 815.737 746.242 815.789C745.899 815.84 745.549 815.824 745.212 815.74C744.527 815.569 743.935 815.139 743.562 814.54C739.862 808.42 737.302 799.69 734.202 794.73C725.075 780.15 712.882 770.483 697.622 765.73C660.662 754.17 621.389 749.483 579.802 751.67C566.295 752.37 556.792 752.72 551.292 752.72C536.872 752.72 497.392 754.2 493.062 768.23C491.209 774.15 490.105 782.25 489.752 792.53C489.711 793.739 489.801 794.95 490.022 796.14C491.792 806.309 492.957 816.573 493.512 826.88C493.842 834.238 494.758 841.558 496.252 848.77C501.732 875.37 507.065 898.223 512.252 917.33C515.852 931.183 523.004 943.857 533.002 954.1C533.834 954.954 534.775 955.694 535.802 956.3C553.802 966.74 569.549 972.953 583.042 974.94C600.021 977.268 617.157 978.271 634.292 977.94C651.483 977.85 668.432 973.889 683.882 966.35C690.867 962.877 697.168 958.172 702.482 952.46C709.988 944.5 714.928 938.45 717.302 934.31C722.022 926.123 727.742 912.143 734.462 892.37C738.462 880.6 740.392 861.37 741.782 852.44C742.892 845.19 745.962 839.44 752.282 836.67C768.042 829.643 782.105 831.9 794.472 843.44C798.778 847.5 800.865 851.796 800.732 856.33C799.972 877.85 801.085 896.967 804.072 913.68C809.342 943.16 831.072 976.19 864.202 980.68C875.142 982.16 889.745 983.183 908.012 983.75C921.565 984.19 937.472 980.647 955.732 973.12C970.625 967 981.605 955.91 988.672 939.85C996.205 922.75 1002.42 907.063 1007.31 892.79C1007.67 891.746 1007.91 890.666 1008.03 889.57C1008.97 881.248 1011.59 873.204 1015.74 865.93L1013.6 892.4C1006.13 922.09 995.262 950.4 973.702 970.98C972.912 971.74 938.992 1000.98 862.182 987.9C851.749 986.02 839.749 980.61 826.182 971.67C813.002 960 788.402 922.44 795.752 861.18C796.095 858.154 795.66 855.09 794.487 852.28C793.315 849.469 791.444 847.005 789.052 845.12C779.282 837.3 762.332 829.12 748.952 849.53C748.422 850.364 748.102 851.315 748.022 852.3C745.612 884.13 737.932 912.73 720.742 939.89C704.602 965.343 681.478 979.896 651.372 983.55C621.253 987.299 590.69 985.073 561.432 977C537.372 970.38 520.995 956.32 512.302 934.82C496.442 895.58 487.309 852.473 484.902 805.5C484.803 803.777 484.072 802.152 482.848 800.936C481.624 799.72 479.995 798.998 478.272 798.91C464.972 798.31 449.949 800.047 433.202 804.12C432.992 804.12 426.002 809.02 422.202 806.07C416.992 801.98 413.012 796.45 407.782 792.07C406.97 791.401 406.08 790.834 405.132 790.38C401.612 788.71 390.232 787.76 387.002 785.52C385.312 784.36 387.462 778.75 387.622 778.25C389.362 772.47 400.312 767.35 404.472 764.88C405.519 764.253 406.711 763.908 407.932 763.88L423.232 763.31C445.352 763.65 464.559 761.403 480.852 756.57C501.852 750.343 514.249 747.11 518.042 746.87C535.382 745.76 551.792 742.87 569.342 742.81C598.946 742.579 628.532 744.37 657.892 748.17C673.161 750.267 688.149 754.053 702.582 759.46C725.012 767.74 738.682 783.06 745.722 804.53C746.022 805.439 746.667 806.194 747.517 806.633C748.368 807.072 749.357 807.161 750.272 806.88C765.605 802.34 780.249 803.833 794.202 811.36C794.407 811.476 794.636 811.544 794.872 811.56C795.108 811.571 795.343 811.53 795.562 811.44C795.781 811.349 795.979 811.213 796.142 811.04C796.304 810.868 796.421 810.658 796.482 810.43C802.175 791.596 812.605 778.12 827.772 770C843.972 761.333 862.449 756.213 883.202 754.64C914.032 752.27 946.442 753.34 977.972 757.04C983.072 757.6 1016.69 765.29 1021 768ZM482.002 770.38C482.002 769.733 481.858 769.095 481.582 768.51C481.305 767.926 480.902 767.41 480.402 767C479.906 766.588 479.326 766.291 478.702 766.13C478.077 765.975 477.426 765.955 476.792 766.07C455.444 769.932 433.742 771.477 412.062 770.68C411.205 770.638 410.35 770.792 409.562 771.13C408.038 771.772 406.672 772.738 405.558 773.96C404.444 775.183 403.61 776.633 403.112 778.21C402.942 778.672 402.921 779.175 403.052 779.65C403.176 780.126 403.454 780.547 403.842 780.85L424.492 797.05C425.026 797.464 425.655 797.739 426.322 797.85C426.991 797.967 427.68 797.912 428.322 797.69C443.873 792.234 460.474 790.44 476.832 792.45C477.485 792.518 478.146 792.45 478.772 792.25C479.71 791.945 480.529 791.351 481.11 790.554C481.692 789.757 482.008 788.797 482.012 787.81L482.002 770.38Z" fill="#020201"/>
<path id="Vector_12" d="M996.002 765L1012 768C1012.16 768 1020.29 771.12 1020.44 771.22C1023.66 773.22 1025.21 776.22 1025.08 780.22C1024.7 792.486 1024.11 805.153 1023.3 818.22C1019.31 833.848 1016.78 849.813 1015.75 865.91C1011.59 873.19 1008.95 881.245 1008 889.58C1007.88 890.676 1007.64 891.756 1007.28 892.8C1002.38 907.066 996.169 922.753 988.642 939.86C981.582 955.92 970.602 967.01 955.702 973.13C937.469 980.656 921.569 984.2 908.002 983.76C889.736 983.2 875.132 982.176 864.192 980.69C831.042 976.17 809.332 943.14 804.062 913.69C801.069 896.983 799.956 877.866 800.722 856.34C800.862 851.8 798.776 847.503 794.462 843.45C782.089 831.91 768.026 829.653 752.272 836.68C745.952 839.48 742.882 845.2 741.772 852.45C740.382 861.4 738.452 880.61 734.452 892.38C727.746 912.126 722.032 926.096 717.312 934.29C714.946 938.416 710.006 944.466 702.492 952.44C697.179 958.151 690.878 962.857 683.892 966.33C668.443 973.869 651.493 977.83 634.302 977.92C617.167 978.251 600.032 977.248 583.052 974.92C569.532 972.92 553.786 966.706 535.812 956.28C534.786 955.674 533.844 954.934 533.012 954.08C522.993 943.837 515.823 931.155 512.212 917.29C507.052 898.183 501.719 875.33 496.212 848.73C494.718 841.518 493.802 834.198 493.472 826.84C492.923 816.54 491.765 806.282 490.002 796.12C489.782 794.93 489.691 793.719 489.732 792.51C490.092 782.23 491.196 774.13 493.042 768.21C497.372 754.21 536.852 752.7 551.272 752.7C556.772 752.7 566.276 752.35 579.782 751.65C621.369 749.463 660.642 754.15 697.602 765.71C712.856 770.49 725.049 780.156 734.182 794.71C737.282 799.71 739.842 808.4 743.542 814.52C743.918 815.116 744.509 815.546 745.192 815.72C745.529 815.804 745.879 815.82 746.222 815.769C746.565 815.717 746.895 815.599 747.192 815.42C751.642 812.77 755.352 812.95 759.892 812.32C772.126 810.606 784.159 812.703 795.992 818.61C796.457 818.841 796.964 818.977 797.482 819.01C797.997 819.049 798.515 818.981 799.002 818.81C799.494 818.638 799.946 818.369 800.332 818.02C800.714 817.668 801.02 817.243 801.232 816.77L810.542 796.3C810.799 795.74 811.11 795.208 811.472 794.71C818.572 784.95 828.286 777.18 840.612 771.4C846.779 768.526 856.666 766.48 870.272 765.26C880.032 764.39 896.862 761.04 910.682 761.26C929.969 761.593 951.186 762.286 974.332 763.34C978.002 763.52 995.462 764.83 996.002 765ZM547.342 770.92C505.492 781.31 513.342 822.8 514.592 854.56C514.941 864.783 516.342 874.943 518.772 884.88C523.372 903.306 527.999 917.086 532.652 926.22C548.852 957.92 578.272 960.12 610.422 961.57C640.112 962.92 664.742 963.04 686.962 945.43C700.092 935.01 707.792 920.43 714.542 905.54C719.782 893.97 721.642 878.8 724.752 866.06C727.752 853.87 727.002 841.4 727.062 829.27C727.062 823.73 724.746 815.67 720.112 805.09C716.539 797.003 712.272 791.243 707.312 787.81C703.162 784.92 692.742 781.7 677.002 776C675.792 775.56 675.282 775 674.002 775C659.732 774.91 645.682 769.29 631.232 768.57C601.339 767.07 582.449 766.356 574.562 766.43C568.242 766.49 559.169 767.986 547.342 770.92ZM999.222 806.33C996.002 770 906.802 777 883.062 778.36C856.442 779.83 820.582 792.42 816.912 823.13C815.179 837.556 814.276 855.63 814.202 877.35C814.162 892.27 817.926 910.696 825.492 932.63C831.572 950.25 840.842 957.11 858.192 962.8C875.653 968.714 894.282 970.337 912.502 967.53C930.236 964.743 940.362 963.056 942.882 962.47C950.882 960.6 956.472 957.12 961.002 952C976.043 935.224 986.845 915.089 992.502 893.28C994.416 885.946 997.459 872.613 1001.63 853.28C1004.23 841.246 1003.42 825.596 999.222 806.33Z" fill="#501C49"/>
<path id="Vector_13" d="M482.003 770.38V787.81C482.003 788.465 481.863 789.113 481.593 789.71C481.333 790.311 480.944 790.847 480.453 791.28C479.963 791.718 479.387 792.049 478.762 792.25C478.137 792.452 477.476 792.52 476.823 792.45C460.468 790.439 443.87 792.232 428.323 797.69C427.681 797.907 426.996 797.962 426.327 797.85C425.659 797.739 425.029 797.464 424.493 797.05L395.843 779.85C395.455 779.547 395.177 779.126 395.053 778.65C394.92 778.175 394.945 777.67 395.123 777.21C396.423 773.69 398.973 772.21 401.963 771C405.256 770.145 408.594 769.477 411.963 769C435.203 769.68 456.883 769.83 476.793 766.07C477.749 765.886 478.739 766.027 479.606 766.468C480.474 766.91 481.169 767.628 481.583 768.51C481.857 769.095 482.001 769.733 482.003 770.38Z" fill="#501C49"/>
<path id="Vector_14" d="M514.591 854.56C513.381 822.8 505.491 781.31 547.341 770.92C559.175 767.987 568.248 766.49 574.561 766.43C582.448 766.35 601.338 767.063 631.231 768.57C645.681 769.29 675.791 774.57 677.001 775C692.741 780.7 703.161 784.92 707.311 787.81C712.271 791.243 716.538 797.003 720.111 805.09C724.778 815.67 727.095 823.73 727.061 829.27C727.001 841.4 727.701 853.87 724.751 866.06C721.641 878.8 719.751 893.97 714.541 905.54C707.791 920.47 700.091 935 687.001 945.43C664.781 963.04 640.151 962.92 610.461 961.57C578.311 960.12 548.891 957.92 532.691 926.22C528.025 917.093 523.398 903.313 518.811 884.88C516.367 874.945 514.953 864.785 514.591 854.56ZM541.891 779.71C506.001 793.86 522.321 867.15 529.001 897.41C534.511 922.41 544.231 941.24 570.401 948.8C585.249 953.158 600.602 955.559 616.071 955.94C652.381 956.75 682.971 951 701.371 919.02C704.205 914.093 707.718 904.55 711.911 890.39C722.631 854.39 731.811 796.09 682.431 783.84C644.965 774.586 606.229 771.572 567.781 774.92C558.331 775.71 551.471 776 541.891 779.71Z" fill="#020201"/>
<path id="Vector_15" d="M1001 800C997.001 789 1001 778 920.001 776C839.001 774 829.001 793 829.001 793C817.001 805 816.001 813 814.201 824.83C812.401 836.66 814.001 834 811.381 864.83C808.761 895.66 812.001 904 814.001 913C816.001 922 826.001 943 832.751 951.21C839.501 959.42 863.001 970 886.001 970C909.001 970 942.001 972 966.001 949C990.001 926 1000 878 1004 856C1008 834 1005 811 1001 800ZM998.921 856.9C995.131 877.73 985.661 923.19 962.921 944.97C940.181 966.75 908.921 964.85 887.161 964.85C865.401 964.85 843.161 954.85 836.741 947.06C830.321 939.27 820.891 919.4 819.001 910.88C817.111 902.36 814.001 894.43 816.521 865.25C819.041 836.07 817.521 838.58 819.191 827.38C820.861 816.18 821.841 808.6 833.191 797.24C833.191 797.24 842.661 779.24 919.361 781.14C996.061 783.04 992.281 793.45 996.071 803.87C999.861 814.29 1002.71 836.06 998.921 856.9Z" fill="#020201"/>
<path id="Vector_16" d="M1029.7 798.52C1030.65 791.415 1030.65 784.215 1029.7 777.11C1029.12 772.31 1026.14 769.19 1020.76 767.75C1007.89 764.29 997.888 762.274 990.762 761.7L997.002 765C997.162 765 1020.29 771.12 1020.45 771.22C1023.66 773.22 1025.2 776.22 1025.08 780.22C1024.81 789.12 1023.5 798.65 1023 807.97C1022.9 808.77 1021.36 827.08 1019 834.97C1016.59 843.03 1010.61 877.6 1010.61 877.6C1010.61 877.6 1008 909.97 1012.53 896.6C1016.78 884.01 1028.21 808.46 1029.53 799.41L1029.59 799.03C1029.68 798.7 1029.7 798.52 1029.7 798.52Z" fill="#020201"/>
</g>
<g id="ear">
<path id="Vector_17" d="M451.271 845.47C451.271 845.47 397.611 741.33 351.811 798.66C306.011 855.99 342.691 960.79 387.001 991C431.311 1021.21 457.001 984 457.001 984L451.271 845.47Z" fill="#E68856"/>
<path id="Vector_18" d="M409.132 940.159C406.592 928.999 406.662 912.209 421.002 894.999C421.002 894.999 402.002 822.999 371.002 818.999C340.002 814.999 346.132 872.669 352.062 886.329C357.992 899.989 371.062 948.819 391.532 950.409C394.532 950.639 397.172 950.879 399.452 951.109C400.873 951.253 402.307 951.056 403.637 950.535C404.966 950.015 406.153 949.185 407.099 948.116C408.045 947.046 408.722 945.766 409.076 944.383C409.429 942.999 409.448 941.551 409.132 940.159Z" fill="#CE6D40"/>
<path id="Vector_19" d="M409.832 952.06C409.512 951.06 409.042 950.06 408.502 948.89C407.962 947.72 407.442 946.39 407.012 945.1C406.189 942.546 405.57 939.931 405.162 937.28C404.725 934.635 404.505 931.96 404.502 929.28C404.452 927.94 404.562 926.6 404.602 925.28C404.642 923.96 404.812 922.61 405.052 921.28C405.853 915.99 407.441 910.85 409.762 906.03C412.079 901.276 414.964 896.82 418.352 892.76L417.662 895.85C416.162 890 414.322 884.05 412.332 878.24C410.342 872.43 408.132 866.67 405.672 861.04C403.25 855.413 400.482 849.943 397.382 844.66C394.383 839.407 390.771 834.53 386.622 830.13C385.622 829.02 384.472 828.13 383.382 827.08C382.812 826.61 382.212 826.18 381.632 825.73C381.342 825.51 381.062 825.27 380.752 825.07L379.832 824.49C379.243 824.092 378.632 823.728 378.002 823.4L376.062 822.4C374.748 821.85 373.385 821.425 371.992 821.13C369.231 820.464 366.352 820.464 363.592 821.13C362.256 821.485 360.979 822.034 359.802 822.76C358.62 823.522 357.538 824.429 356.582 825.46C354.659 827.678 353.139 830.217 352.092 832.96C351.005 835.782 350.191 838.702 349.662 841.68C348.615 847.74 348.203 853.893 348.432 860.04C348.444 860.315 348.346 860.585 348.159 860.788C347.972 860.992 347.713 861.113 347.437 861.125C347.161 861.137 346.892 861.038 346.688 860.852C346.485 860.665 346.364 860.405 346.352 860.13C345.915 853.847 346.132 847.537 347.002 841.3C347.465 838.124 348.232 834.999 349.292 831.97C350.379 828.838 352.011 825.923 354.112 823.36C355.228 822.062 356.509 820.916 357.922 819.95C359.365 818.99 360.942 818.248 362.602 817.75C365.891 816.81 369.358 816.673 372.712 817.35C374.377 817.646 376.011 818.098 377.592 818.7L379.882 819.7C380.612 820.093 381.32 820.527 382.002 821L383.072 821.63C383.422 821.85 383.742 822.1 384.072 822.34C384.742 822.82 385.422 823.29 386.072 823.79C387.312 824.85 388.612 825.86 389.742 827.03C394.306 831.535 398.314 836.571 401.682 842.03C405.071 847.393 408.12 852.964 410.812 858.71C413.532 864.42 415.982 870.24 418.212 876.13C420.442 882.02 422.492 887.95 424.302 894.13C424.444 894.622 424.468 895.141 424.373 895.645C424.277 896.149 424.064 896.623 423.752 897.03L423.612 897.22C420.586 900.822 418.007 904.777 415.932 909C413.889 913.197 412.486 917.676 411.772 922.29C411.552 923.43 411.512 924.6 411.372 925.75C411.232 926.9 411.222 928.07 411.262 929.24C411.286 933.906 412.004 938.544 413.392 943C413.75 944.083 414.164 945.148 414.632 946.19C415.112 947.27 415.702 948.54 416.172 949.95C416.453 950.79 416.389 951.708 415.993 952.502C415.597 953.295 414.903 953.898 414.062 954.18C413.221 954.461 412.303 954.396 411.51 954.001C410.717 953.605 410.113 952.91 409.832 952.07V952.06Z" fill="#020201"/>
<path id="Vector_20" d="M383.001 932.07C381.382 928.695 379.985 925.218 378.821 921.66C377.607 918.116 376.605 914.503 375.821 910.84C374.197 903.385 373.762 895.721 374.531 888.13C374.999 884.235 375.902 880.405 377.221 876.71C377.591 875.79 377.891 874.84 378.321 873.94L379.601 871.24C380.541 869.471 381.593 867.765 382.751 866.13C383.915 864.488 385.173 862.915 386.521 861.42C387.937 859.965 389.433 858.59 391.001 857.3C394.067 854.748 397.384 852.513 400.901 850.63C402.023 849.995 403.351 849.831 404.594 850.175C405.836 850.52 406.891 851.343 407.526 852.465C408.161 853.587 408.325 854.915 407.981 856.158C407.636 857.4 406.813 858.455 405.691 859.09C405.595 859.151 405.495 859.205 405.391 859.25L405.141 859.37C402.091 860.711 399.186 862.36 396.471 864.29C395.127 865.247 393.839 866.278 392.611 867.38C391.419 868.517 390.294 869.723 389.241 870.99C388.183 872.26 387.208 873.596 386.321 874.99L385.081 877.16C384.661 877.88 384.361 878.66 383.981 879.41C382.599 882.516 381.566 885.766 380.901 889.1C379.667 896.036 379.542 903.125 380.531 910.1C380.989 913.643 381.657 917.156 382.531 920.62C383.388 924.094 384.464 927.511 385.751 930.85V930.9C385.886 931.259 385.878 931.655 385.73 932.009C385.582 932.362 385.304 932.645 384.953 932.8C384.602 932.955 384.206 932.97 383.845 932.841C383.484 932.713 383.185 932.451 383.011 932.11L383.001 932.07Z" fill="#020201"/>
<path id="Vector_21" d="M451.271 845.47C451.271 845.47 424.831 794.16 393.271 783.4C379.851 778.83 365.501 781.57 351.851 798.66C306.001 856 342.691 960.79 387.001 991C431.311 1021.21 457.001 984 457.001 984" stroke="black" stroke-width="7" stroke-linecap="round" stroke-linejoin="round"/>
</g>
<g id="eyebrow">
<path id="Vector_22" d="M534.132 736.87C533.788 736.897 533.444 736.835 533.132 736.69C532.829 736.539 532.569 736.315 532.377 736.037C532.184 735.759 532.066 735.436 532.032 735.1C532.005 734.757 532.066 734.412 532.212 734.1C545.798 705.173 567.465 687.487 597.212 681.04C607.165 678.88 620.692 678.3 637.792 679.3C658.482 680.53 682.392 687.67 695.242 704.2C703.242 714.53 710.362 728.5 706.712 740.57C706.327 741.847 705.454 742.921 704.281 743.558C703.109 744.195 701.733 744.343 700.452 743.97C671.977 735.621 642.632 730.598 613.002 729C600.902 728.333 584.568 729.137 564.002 731.41C556.232 732.26 543.282 736.2 534.132 736.87Z" fill="#201116" stroke="black" stroke-width="7" stroke-miterlimit="10"/>
<path id="Vector_23" d="M973.632 748.43L969.452 748.13C969.365 748.131 969.279 748.11 969.202 748.07C952.002 742.01 935.795 738.757 920.582 738.31C910.402 737.99 896.088 739.053 877.642 741.5C863.398 743.359 849.423 746.883 836.002 752C835.1 752.343 834.103 752.34 833.203 751.991C832.304 751.642 831.566 750.972 831.132 750.11C830.84 749.541 830.693 748.909 830.702 748.27C831.162 728.643 839.715 713.527 856.362 702.92C874.002 691.73 902.942 688.54 922.002 692.4C950.402 698.18 970.842 716.72 976.262 745.4C976.333 745.782 976.316 746.175 976.212 746.55C976.108 746.924 975.919 747.27 975.662 747.56C975.41 747.852 975.091 748.079 974.732 748.22C974.385 748.372 974.009 748.443 973.632 748.43Z" fill="#201116" stroke="black" stroke-width="7" stroke-miterlimit="10"/>
</g>
<g id="eye">
<path id="Vector_24" d="M690.883 858.63C684.223 825.48 662.273 806.87 629.693 804.63C608.233 803.16 588.303 807.07 571.583 821.16C556.173 834.16 555.123 851.51 552.773 870.3C549.713 861.593 548.889 850.863 550.303 838.11C553.716 807.23 570.616 790.527 601.003 788C626.233 785.89 662.333 792 679.923 811.27C690.356 822.69 694.539 837.657 692.473 856.17C692.233 858.477 691.703 859.297 690.883 858.63Z" fill="#020201"/>
<path id="Vector_25" d="M690.883 858.63C689.733 869.43 688.883 881.54 684.763 891.05C674.923 914.043 657.28 928.257 631.833 933.69C613.833 937.54 595.433 931.13 580.833 921.07C564.28 909.69 554.927 892.78 552.773 870.34C555.123 851.55 556.173 834.18 571.583 821.2C588.303 807.11 608.233 803.2 629.693 804.67C662.273 806.87 684.223 825.48 690.883 858.63ZM615.933 807.24C605.243 807.05 594.933 812.29 587.163 821.82C579.393 831.35 575.003 844.36 574.723 858C574.595 864.689 575.516 871.356 577.453 877.76C579.259 883.827 582.116 889.53 585.893 894.61C589.343 899.269 593.735 903.15 598.783 906C603.48 908.63 608.752 910.066 614.133 910.18C624.823 910.37 635.133 905.12 642.903 895.6C650.673 886.08 655.103 873.06 655.343 859.41C655.471 852.725 654.553 846.061 652.623 839.66C650.81 833.591 647.951 827.885 644.173 822.8C640.723 818.145 636.335 814.266 631.293 811.41C626.592 808.783 621.318 807.351 615.933 807.24Z" fill="#FDFAE9"/>
<path id="Vector_26" d="M615.933 807.239C621.319 807.352 626.595 808.791 631.293 811.429C636.336 814.278 640.724 818.155 644.173 822.809C647.95 827.894 650.81 833.6 652.623 839.669C654.552 846.071 655.47 852.735 655.343 859.419C655.103 873.069 650.633 886.089 642.903 895.609C635.173 905.129 624.833 910.379 614.133 910.199C608.75 910.073 603.48 908.631 598.783 905.999C593.735 903.152 589.346 899.271 585.903 894.609C582.118 889.533 579.257 883.829 577.453 877.759C575.516 871.356 574.594 864.688 574.723 857.999C574.963 844.349 579.443 831.329 587.173 821.809C594.903 812.289 605.243 807.049 615.933 807.239ZM636.803 830.079C635.795 830.087 634.802 830.316 633.893 830.749C632.957 831.191 632.12 831.816 631.433 832.589C630.723 833.397 630.17 834.329 629.803 835.339C629.43 836.375 629.241 837.468 629.243 838.569C629.248 840.762 630.059 842.876 631.523 844.509C632.201 845.272 633.032 845.883 633.963 846.302C634.894 846.72 635.902 846.938 636.923 846.939C637.929 846.935 638.923 846.71 639.833 846.279C640.768 845.837 641.604 845.212 642.293 844.439C643.002 843.632 643.555 842.699 643.923 841.689C644.306 840.656 644.495 839.561 644.483 838.459C644.484 836.265 643.672 834.149 642.203 832.519C641.526 831.754 640.695 831.141 639.764 830.721C638.833 830.3 637.824 830.082 636.803 830.079Z" fill="#020201"/>
<path id="Vector_27" d="M644.482 838.46C644.482 833.8 641.012 830.05 636.802 830.08C632.592 830.11 629.212 833.91 629.242 838.57C629.272 843.23 632.712 846.97 636.922 846.94C641.132 846.91 644.512 843.12 644.482 838.46Z" fill="#FDFAE9"/>
</g>
<g id="eye_2">
<path id="Vector_28" d="M944.482 884.4C945.909 870.154 945.979 859.074 944.692 851.16C942.026 834.78 932.652 822.394 916.572 814C915.125 813.25 913.552 812.772 911.932 812.59C892.386 810.364 876.892 811.167 865.452 815C847.539 821 835.052 835.604 827.992 858.81C829.559 823.077 847.402 803.334 881.522 799.58C892.856 798.34 902.039 798.36 909.072 799.64C930.842 803.59 949.002 819.09 952.822 841.76C955.196 855.82 952.416 870.034 944.482 884.4Z" fill="#020201"/>
<path id="Vector_29" d="M944.482 884.4C941.735 893.494 939.105 899.887 936.592 903.58C909.072 944.13 845.242 956.42 830.252 895C827.058 881.887 826.305 869.824 827.992 858.81C835.052 835.604 847.538 821 865.452 815C876.892 811.16 892.385 810.357 911.932 812.59C914.377 813.105 916.751 813.914 919.002 815C935.062 823.39 942.002 834.78 944.692 851.16C945.985 859.054 945.915 870.134 944.482 884.4ZM869.662 819C860.722 819.38 852.352 824.65 846.392 833.66C840.432 842.67 837.392 854.66 837.892 867.04C838.136 873.083 839.254 879.058 841.212 884.78C843.014 890.128 845.698 895.137 849.152 899.6C852.215 903.586 856.091 906.875 860.522 909.25C864.534 911.375 869.034 912.41 873.572 912.25C882.522 911.87 890.892 906.6 896.842 897.59C902.792 888.58 905.842 876.59 905.342 864.21C905.084 858.184 903.959 852.226 902.002 846.52C900.196 841.172 897.509 836.163 894.052 831.7C890.994 827.713 887.121 824.423 882.692 822.05C878.689 819.914 874.197 818.863 869.662 819Z" fill="#FDFAE9"/>
<path id="Vector_30" d="M869.671 819C874.209 818.843 878.708 819.878 882.721 822C887.151 824.373 891.024 827.662 894.081 831.65C897.535 836.128 900.212 841.155 902.001 846.52C903.958 852.242 905.073 858.217 905.311 864.26C905.831 876.62 902.781 888.64 896.821 897.64C890.861 906.64 882.491 911.92 873.551 912.3C869.011 912.458 864.508 911.424 860.491 909.3C856.062 906.927 852.189 903.637 849.131 899.65C845.674 895.187 842.987 890.178 841.181 884.83C839.228 879.111 838.113 873.139 837.871 867.1C837.351 854.73 840.411 842.72 846.361 833.71C852.311 824.7 860.721 819.42 869.671 819ZM895.831 843.83C895.867 842.862 895.708 841.898 895.363 840.993C895.017 840.089 894.493 839.263 893.822 838.566C893.15 837.869 892.345 837.314 891.454 836.936C890.563 836.557 889.604 836.362 888.636 836.362C887.668 836.362 886.71 836.557 885.819 836.936C884.928 837.314 884.123 837.869 883.451 838.566C882.78 839.263 882.255 840.089 881.91 840.993C881.565 841.898 881.405 842.862 881.441 843.83C881.438 844.777 881.625 845.716 881.991 846.59C882.353 847.459 882.879 848.25 883.541 848.92C884.548 849.926 885.831 850.612 887.227 850.889C888.624 851.167 890.071 851.024 891.386 850.48C892.702 849.935 893.826 849.012 894.617 847.829C895.408 846.645 895.831 845.254 895.831 843.83Z" fill="#020201"/>
<path id="Vector_31" d="M888.632 851.07C890.056 851.07 891.448 850.648 892.632 849.856C893.816 849.065 894.739 847.941 895.284 846.625C895.829 845.31 895.971 843.862 895.693 842.465C895.415 841.069 894.73 839.786 893.723 838.779C892.716 837.772 891.433 837.086 890.036 836.808C888.64 836.53 887.192 836.673 885.876 837.218C884.561 837.763 883.436 838.686 882.645 839.87C881.854 841.054 881.432 842.446 881.432 843.87C881.432 845.779 882.19 847.611 883.54 848.961C884.891 850.311 886.722 851.07 888.632 851.07Z" fill="#FDFAE9"/>
</g>
</g>
</g>
<g id="Hair 11_2">
<g id="hair 11">
<path id="Vector_32" d="M1010.62 812.501C1010.05 812.502 1009.48 812.393 1008.95 812.181C1008.06 811.823 1007.31 811.193 1006.8 810.38C1006.3 809.568 1006.06 808.616 1006.13 807.661C1016.5 670.901 977.769 618.001 940.619 579.251C931.079 570.671 919.939 569.501 910.299 569.501C907.439 569.501 904.589 569.611 901.839 569.721C899.089 569.831 896.609 569.921 894.119 569.921C889.891 570.062 885.667 569.543 881.599 568.381C866.059 565.711 845.079 559.151 820.819 551.551C774.549 537.061 716.999 519.001 667.469 519.001C637.739 519.001 614.789 525.361 597.389 538.421C585.109 587.421 551.479 642.501 502.559 693.591C455.609 742.591 401.969 780.021 355.409 796.221C354.934 796.388 354.433 796.472 353.929 796.471H353.489C330.149 794.151 323.109 741.401 318.979 684.731C318.979 684.271 318.909 683.801 318.879 683.341C289.529 726.861 281.699 735.341 276.879 736.341C276.571 736.408 276.255 736.441 275.939 736.441C275.104 736.433 274.288 736.193 273.582 735.748C272.875 735.303 272.307 734.67 271.939 733.921C242.349 673.431 251.569 618.491 261.759 595.361C264.069 588.111 272.089 576.271 280.569 563.751C286.059 555.661 291.729 547.291 295.769 540.261C300.129 532.691 301.069 529.261 301.239 527.861C298.429 527.931 290.729 529.911 270.239 541.861C269.519 542.279 268.696 542.488 267.864 542.466C267.031 542.445 266.221 542.192 265.523 541.737C264.826 541.282 264.268 540.642 263.912 539.889C263.557 539.136 263.417 538.298 263.509 537.471C269.779 481.161 353.249 428.581 393.369 403.321L396.519 401.321C389.159 403.891 380.649 407.021 372.619 409.981C344.999 420.241 316.329 430.801 304.589 430.801C303.276 430.826 301.966 430.661 300.699 430.311C299.805 430.04 299.016 429.498 298.443 428.76C297.87 428.022 297.54 427.124 297.499 426.191C297.389 423.461 303.569 413.031 305.499 409.891C313.117 397.497 321.843 385.819 331.569 375.001C354.109 349.731 394.899 313.571 461.209 284.851L461.539 284.721C528.069 261.831 578.249 247.641 622.759 247.641C634.968 247.634 647.154 248.688 659.179 250.791C665.179 251.791 671.179 253.121 676.919 254.631C687.839 257.481 702.189 263.321 717.379 269.501C742.949 279.901 771.939 291.691 790.639 291.691C791.289 291.691 791.929 291.691 792.559 291.691C796.843 291.497 801.056 290.535 804.999 288.851C807.739 287.711 810.499 286.641 813.239 285.671C815.719 284.791 818.019 284.041 820.239 283.361C833.353 279.405 846.973 277.384 860.669 277.361C911.669 277.361 956.179 304.261 1001.11 334.231C1057.45 371.801 1072.66 405.841 1086.11 435.871L1086.9 437.641C1087.21 438.325 1087.34 439.076 1087.29 439.826C1087.23 440.575 1086.99 441.298 1086.58 441.929C1086.17 442.56 1085.61 443.078 1084.95 443.437C1084.29 443.795 1083.55 443.982 1082.8 443.981H1082.37C1082.12 443.981 1057.37 441.581 1034.85 439.781C1038.31 446.281 1055.02 462.211 1067.54 474.151C1079.23 485.301 1092.48 497.941 1102.87 509.491C1120.05 528.601 1126.12 541.081 1122.54 549.951C1122 551.313 1121.23 552.569 1120.25 553.661C1117.93 557.541 1113.32 559.501 1106.54 559.501C1095.42 559.501 1079.14 554.171 1068.45 550.151C1077.9 572.351 1093.05 615.981 1084.28 630.411C1083.32 632.058 1081.93 633.419 1080.27 634.352C1078.61 635.286 1076.73 635.758 1074.82 635.721C1074.46 635.721 1074.09 635.681 1073.74 635.601C1069.67 634.601 1065.41 631.151 1060.9 627.441C1059.81 626.551 1058.4 625.391 1057.04 624.351C1073.22 713.151 1064.57 749.061 1014.13 810.841C1013.7 811.361 1013.17 811.78 1012.56 812.067C1011.95 812.354 1011.29 812.502 1010.62 812.501Z" fill="#CE44A2"/>
<path id="Vector_33" d="M622.77 252.16C634.717 252.155 646.642 253.185 658.41 255.24C664.49 256.29 670.28 257.56 675.78 259C704.78 266.58 759.72 296.21 790.64 296.21C791.37 296.21 792.08 296.21 792.77 296.21C797.588 295.998 802.329 294.928 806.77 293.05C809.45 291.93 812.12 290.9 814.77 289.96C817.06 289.15 819.33 288.4 821.6 287.72C834.294 283.89 847.481 281.942 860.74 281.94C912.32 281.94 958.3 311.11 998.74 338.05C1055.1 375.64 1069.4 409.42 1082.89 439.56C1082.89 439.56 1057.71 437.14 1034.72 435.31H1034.56C1013.3 435.31 1068.56 477.98 1099.56 512.56C1112.74 527.22 1121.56 540.44 1118.41 548.33C1118.01 549.347 1117.4 550.272 1116.63 551.05C1115.14 553.94 1111.43 555.05 1106.63 555.05C1090.45 555.05 1061.53 542.6 1059.74 541.82C1070.58 562.7 1094.85 631.27 1074.91 631.27H1074.85C1068.61 629.81 1058.17 617.38 1053.26 617.38C1052.89 617.373 1052.53 617.462 1052.21 617.637C1051.89 617.812 1051.61 618.068 1051.42 618.38C1069.29 712.2 1060.97 746.55 1010.73 808.07C1021.11 671.07 982.29 616.16 943.86 576.07C933.49 566.65 921.56 565.07 910.41 565.07C904.71 565.07 899.21 565.49 894.23 565.49C890.325 565.619 886.425 565.116 882.68 564C838.01 556.46 743.68 514.53 667.47 514.53C639.12 514.53 613.27 520.32 593.4 535.84C568.39 639.22 447.33 759.51 353.93 792C325.12 789.14 324.08 671.06 322.08 671C322.062 671.001 322.045 671.007 322.031 671.018C322.017 671.029 322.006 671.043 322 671.06C322 671.06 322 670.95 321.95 670.95C321.27 670.95 283.28 730.4 275.95 731.95C248.95 676.76 254.49 622.71 265.95 596.95C271.31 579.27 320.41 523.37 301.38 523.36C296.16 523.36 285.8 527.57 267.98 537.95C275.98 465.95 418.32 398.36 416.98 391.95C416.85 391.56 416.31 391.37 415.43 391.37C403.23 391.37 324.14 426.25 304.57 426.25C303.706 426.291 302.84 426.207 302 426C301.91 426 336 344 463 289C535 264.24 581.29 252.16 622.77 252.16ZM622.77 243.16C577.62 243.16 527.04 257.45 460.07 280.49L459.42 280.74C431.006 292.891 404.033 308.168 379 326.29C360.515 339.705 343.492 355.026 328.21 372C318.289 383.016 309.386 394.908 301.61 407.53C298.76 412.25 296.8 415.96 295.66 418.25C293.46 422.67 292.91 424.04 293.01 426.36C293.09 428.225 293.748 430.019 294.893 431.494C296.038 432.968 297.613 434.051 299.4 434.59C301.088 435.07 302.836 435.299 304.59 435.27C314.59 435.27 333.4 429.1 360.4 419.27C344.031 430.158 328.335 442.026 313.4 454.81C298.4 467.81 286.4 480.67 277.64 492.96C266.91 508.01 260.64 522.82 259.1 536.96C258.915 538.617 259.193 540.293 259.905 541.801C260.616 543.309 261.733 544.59 263.13 545.501C264.527 546.411 266.149 546.916 267.816 546.958C269.483 547 271.129 546.579 272.57 545.74C279.386 541.639 286.449 537.965 293.72 534.74C292.99 536.14 292.07 537.74 290.94 539.68C287.06 546.22 281.94 553.86 276.88 561.25C267.93 574.46 260.17 585.91 257.58 593.77C250.7 609.5 247.06 631.28 247.58 653.64C248.362 682.232 255.285 710.32 267.88 736C268.627 737.506 269.781 738.772 271.211 739.656C272.641 740.54 274.289 741.005 275.97 741C276.599 741.003 277.226 740.936 277.84 740.8C283.48 739.6 289.37 734.54 315.36 696.55C316.6 712.1 318.56 732.42 322.17 750.72C326.25 771.38 333.88 799.05 353.04 800.96C353.34 800.96 353.64 800.96 353.93 800.96C354.951 800.965 355.966 800.796 356.93 800.46C404.14 784.04 458.42 746.21 505.85 696.69C528.605 673.164 548.848 647.331 566.25 619.61C583.13 592.41 594.94 566.01 601.39 541.08C617.85 529.25 639.51 523.49 667.51 523.49C716.31 523.49 773.51 541.41 819.51 555.8C843.76 563.4 864.76 569.97 880.51 572.72C884.93 573.96 889.512 574.52 894.1 574.38C896.68 574.38 899.26 574.28 901.99 574.18C904.72 574.08 907.51 573.96 910.28 573.96C919.47 573.96 929.11 574.96 937.46 582.45C973.91 620.51 1011.84 672.51 1001.63 807.28C1001.49 809.189 1001.96 811.093 1002.97 812.716C1003.98 814.339 1005.49 815.597 1007.27 816.308C1009.04 817.018 1011 817.143 1012.85 816.665C1014.71 816.187 1016.36 815.131 1017.57 813.65C1041.17 784.75 1058.31 758.98 1065.28 727.15C1070.55 703.06 1070.09 675.61 1063.45 635.21C1066.18 637.394 1069.32 639.006 1072.68 639.95C1073.33 640.112 1074.01 640.192 1074.68 640.19H1074.8C1077.48 640.223 1080.12 639.549 1082.46 638.236C1084.8 636.923 1086.74 635.017 1088.11 632.71C1091.37 627.34 1094.63 616.46 1085.33 584.1C1082.67 574.83 1079.51 565.71 1076.44 557.75C1086.29 560.99 1097.73 563.97 1106.52 563.97C1116.52 563.97 1121.46 560.05 1123.87 556.31C1125.07 554.897 1126.02 553.3 1126.71 551.58C1131.05 540.77 1124.91 527.27 1106.19 506.45C1095.69 494.77 1082.38 482.07 1070.63 470.87C1062.46 463.08 1051.48 452.6 1044.63 445.08C1063.8 446.69 1081.63 448.41 1081.88 448.43C1082.17 448.445 1082.45 448.445 1082.74 448.43C1084.24 448.43 1085.72 448.053 1087.04 447.336C1088.36 446.618 1089.48 445.582 1090.29 444.322C1091.11 443.061 1091.6 441.617 1091.71 440.12C1091.83 438.623 1091.56 437.12 1090.95 435.75L1090.16 433.98C1076.49 403.4 1061 368.73 1003.58 330.43C958.05 300.07 912.86 272.81 860.64 272.81C846.531 272.856 832.503 274.958 819 279.05C816.67 279.75 814.3 280.52 811.75 281.43C808.93 282.43 806.09 283.53 803.29 284.7C799.833 286.165 796.142 287.002 792.39 287.17C791.83 287.17 791.27 287.17 790.68 287.17C772.86 287.17 744.31 275.56 719.11 265.31C703.78 259.07 689.3 253.18 678.11 250.25C672.22 248.71 666.11 247.39 659.99 246.33C647.716 244.186 635.28 243.112 622.82 243.12L622.77 243.16Z" fill="#17091D"/>
<path id="Vector_34" d="M1118.35 548.281C1117.66 549.122 1117.07 550.034 1116.57 551.001C1110.12 563.541 1061.96 542.791 1059.63 541.781C1060.04 542.101 924.511 530.031 886.631 556.001C885.841 556.531 874.631 533.201 873.921 533.781C873.781 533.241 896.741 541.541 896.631 541.001C886.631 493.651 1013.06 485.371 1099.45 512.511C1112.68 527.171 1121.53 540.391 1118.35 548.281Z" fill="#D969BD"/>
<path id="Vector_35" d="M1074.74 631.23C1067.54 629.55 1054.74 613.23 1051.31 618.31C1045.08 614.15 1037.31 609.5 1028.81 604.68C987.06 581.03 940.249 568.12 892.339 565.52C889.067 565.433 885.82 564.922 882.679 564C881.879 564.94 876.379 563.62 867.359 560.89C867.239 559.79 865.629 558.54 861.689 557C861.689 556.82 888.969 538.42 888.969 538.31C887.231 537.64 885.399 537.245 883.539 537.14H883.389C882.311 537.051 881.246 536.85 880.209 536.54H880.109C879.451 536.39 878.783 536.287 878.109 536.23H877.949C876.469 536 874.949 535.8 873.479 535.64C872.179 535.5 870.879 535.39 869.569 535.33C868.909 534.24 868.319 533.33 867.709 532.33C869.369 532.33 871.079 532.25 872.829 532.21H873.619H876.299L879.529 532.16C883.409 532.16 888.009 559.71 891.709 559.1C982.709 544.1 1043 549.19 1067.64 560.1C1077.6 586.41 1091.27 632.05 1074.74 631.23Z" fill="#D969BD"/>
<path id="Vector_36" d="M1082.78 439.51C1082.78 439.51 1057.6 437.09 1034.61 435.26C1027.42 434.56 892.161 451.13 866.441 526.9C861.541 541.31 875.781 476.14 878.021 465.52C899.111 365.82 1024.96 385.73 1072.87 421.85C1083 434.61 1082.78 439.51 1082.78 439.51Z" fill="#D969BD"/>
<path id="Vector_37" d="M461.51 725.31C427.7 743.21 359.51 767.98 359.51 767.98C359.51 767.98 348.33 767.76 335.92 767.63C325.84 733.1 322.71 674 322 671.11C323.12 673.7 344.71 719.73 448.29 708.53C466.95 706.53 476.35 707.02 479.16 709.24C482.92 712.21 474.92 718.22 461.51 725.31Z" fill="#9C398C"/>
<path id="Vector_38" d="M814.71 289.91V365.51L684.54 432.8C684.54 432.8 490.25 599.5 408.79 593.61C365.06 590.45 348.68 573.81 342.89 559.07C341.874 556.455 341.512 553.631 341.835 550.845C342.159 548.058 343.158 545.392 344.745 543.079C346.333 540.766 348.461 538.876 350.946 537.572C353.43 536.269 356.195 535.592 359 535.6C525.55 535.6 597.23 398.6 484.4 428.9C459.47 435.6 440.3 436.65 426.18 435.42C415.18 434.47 413.11 419.2 423.53 415.42C447.14 406.92 477.53 395.74 484.92 391.97C512.62 377.83 587.13 330.26 646.84 297.97C720.84 257.97 762.36 297.58 792.84 296.13C797.658 295.918 802.399 294.848 806.84 292.97C809.4 291.88 812.07 290.85 814.71 289.91Z" fill="#D969BD"/>
<path id="Vector_39" d="M850.491 406.31C845.101 400.31 843.591 398.62 837.091 391.39L836.561 390.8C829.811 383.25 811.951 363.19 806.281 356.8L805.781 356.25C805.251 355.67 804.861 355.25 804.531 354.86L804.031 354.32C803.941 354.24 803.831 354.12 803.701 353.98V354C803.701 353.61 803.701 353.25 803.761 352.9C803.945 349.149 803.815 345.39 803.371 341.66C803.378 341.537 803.378 341.414 803.371 341.29C803.377 341.191 803.377 341.09 803.371 340.99C803.301 340.34 803.221 339.56 803.131 338.64C802.631 333.83 798.281 316.49 792.801 296.18C797.618 295.969 802.359 294.899 806.801 293.02C811.644 290.985 816.591 289.206 821.621 287.69C835.301 319.8 845.541 354.32 849.291 389.57C849.824 395.13 850.224 400.71 850.491 406.31Z" fill="#9C398C"/>
<path id="Vector_40" d="M883.901 559.58C883.901 559.58 859.191 488.09 960.651 451.29" stroke="#17091D" stroke-width="9" stroke-linecap="round" stroke-linejoin="round"/>
<path id="Vector_41" d="M889.18 563.5C889.18 563.5 891.4 486.88 1002.73 495.19" stroke="#17091D" stroke-width="9" stroke-linecap="round" stroke-linejoin="round"/>
<path id="Vector_42" d="M871.79 569C861.64 571.06 844.73 565.46 834.79 562.12C809.04 553.44 773.29 552.53 740.18 555.3C703.82 558.35 670.67 565.82 657.51 572.3C661.71 560.22 667.57 544.84 675 528.8C682.7 512.13 692.1 494.73 703.08 479.53C715.99 461.63 731.08 446.77 748.29 439.66C756.446 436.191 765.31 434.707 774.152 435.331C782.994 435.955 791.561 438.67 799.15 443.25C837.58 465.39 861.26 527.82 870.46 563.79C871 565.63 871.4 567.36 871.79 569Z" fill="#9C398C" stroke="#17091D" stroke-width="9" stroke-miterlimit="10"/>
<path id="Vector_43" d="M352.28 832.72C301.998 832.782 252.898 817.475 211.56 788.85C210.45 788.1 209.34 787.32 208.24 786.53L197 778.46L210.86 778.37C369.2 777.37 426.77 670.11 457.69 612.49C462.41 603.7 466.48 596.12 470.18 590.33C474.5 583.57 479.51 572.79 485.85 559.15C501.63 525.15 525.49 473.84 565.32 430.7C613.04 379.03 672.74 351.45 742.75 348.7C746.59 348.56 750.42 348.48 754.12 348.48C807.85 348.48 847.42 364.14 871.73 395.02C889 417 898.33 447 898.85 481.92C899.14 497.515 897.658 513.091 894.43 528.35L888.32 560.42C887.82 563.053 886.418 565.428 884.356 567.138C882.293 568.849 879.699 569.786 877.02 569.79C876.569 569.789 876.118 569.762 875.67 569.71L862.24 568.13L861.39 565.31C861.13 564.47 835.52 481.58 797.04 447.38L796.24 446.69C785.85 437.69 775.44 433.1 765.3 433.1C755.16 433.1 745.11 437.56 735.01 446.34C725.65 454.47 716.22 466.43 707.01 481.88L706.92 482.02C698.61 495.86 690 511 679 531C674.06 540 669 549.22 664.18 558.16C623.07 633.74 580.57 711.89 516.48 769.76C471.45 810.386 412.928 832.826 352.28 832.72Z" fill="#CE44A2"/>
<path id="Vector_44" d="M754.09 353C932.15 353 890 527.4 890 527.4L883.87 559.58C883.569 561.185 882.717 562.634 881.46 563.676C880.204 564.719 878.623 565.29 876.99 565.29C876.717 565.305 876.443 565.305 876.17 565.29L865.69 564C865.69 564 839.58 478.32 799.21 443.3C788.81 434.3 777.45 428.61 765.32 428.61C754.78 428.61 743.66 432.89 732.07 442.96C722.7 451.1 713.07 463.04 703.14 479.58C703.117 479.607 703.097 479.638 703.08 479.67C693.54 495.62 684.28 512.09 675.08 528.85C629.24 612.17 584.69 702.15 513.49 766.44C469.289 806.311 411.847 828.333 352.32 828.23C302.957 828.237 254.762 813.21 214.15 785.15C213.06 784.41 211.97 783.65 210.9 782.88C396.63 781.7 446.9 635.13 473.98 592.77C501.06 550.41 551.98 360.66 742.98 353.23C746.8 353.076 750.53 353.003 754.17 353.01M754.17 344.01C750.41 344.01 746.53 344.09 742.63 344.24C704.21 345.73 668.56 354.62 636.63 370.64C609.46 384.29 584.36 403.48 562.02 427.64C521.67 471.3 497.64 523 481.74 557.26C475.74 570.26 470.52 581.4 466.36 587.91C462.56 593.84 458.46 601.49 453.7 610.36C423.21 667.16 366.47 772.88 210.8 773.87L183.08 774.05L205.62 790.19C206.73 790.98 207.87 791.78 209.02 792.56C255.419 824.696 311.296 840.255 367.626 836.726C423.957 833.197 477.454 810.785 519.48 773.11C584.14 714.73 626.83 636.23 668.11 560.32C672.96 551.39 677.99 542.15 682.92 533.18C693.92 513.25 702.45 498.18 710.69 484.44L710.82 484.23C719.82 469.23 728.94 457.6 737.94 449.78C747.2 441.72 756.4 437.64 765.28 437.64C774.28 437.64 783.72 441.84 793.28 450.13L794.08 450.82C831.58 484.17 856.82 565.82 857.08 566.67L858.8 572.29L864.64 572.98L875.15 574.22C875.771 574.291 876.395 574.328 877.02 574.33C880.744 574.331 884.351 573.033 887.22 570.66C890.09 568.287 892.042 564.987 892.74 561.33L898.83 529.33C902.123 513.741 903.636 497.829 903.34 481.9C903.221 466.927 901.229 452.028 897.41 437.55C892.71 420.26 885.24 405.04 875.21 392.3C850 360.3 809.21 344.05 754.09 344.05L754.17 344.01Z" fill="#17091D"/>
<path id="Vector_45" d="M603 503.73C603 503.73 541.1 711.08 390 767.98" stroke="#17091D" stroke-width="9" stroke-linecap="round" stroke-linejoin="round"/>
<path id="Vector_46" d="M732.051 443C722.681 451.14 713.051 463.08 703.121 479.62C703.097 479.648 703.077 479.678 703.061 479.71C693.521 495.66 684.261 512.13 675.061 528.89C629.221 612.21 584.671 702.19 513.471 766.48C430.241 841.6 306.121 848.7 214.131 785.19C255.061 796.8 378.441 827.12 431.131 787.6C494.701 739.87 593.131 624.48 648.491 535.1C683.381 478.65 714.131 453.68 732.051 443Z" fill="#9C398C"/>
<path id="Vector_47" d="M475 537.79C475 537.79 386.94 605 327.84 554.19" stroke="#17091D" stroke-width="9" stroke-linecap="round" stroke-linejoin="round"/>
<path id="Vector_48" d="M427.1 460.33C427.1 460.33 505.43 467.54 537 425.9" stroke="#17091D" stroke-width="9" stroke-linecap="round" stroke-linejoin="round"/>
<path id="Vector_49" d="M1014.09 551.74C1014.09 551.74 933.16 543.5 891.18 561.5" stroke="#17091D" stroke-width="9" stroke-linecap="round" stroke-linejoin="round"/>
</g>
</g>
</g>
</svg>
