<svg width="1360" height="1602" viewBox="0 0 1360 1602" fill="none" xmlns="http://www.w3.org/2000/svg">
<g id="Hair 1">
<g id="Head 2">
<g id="1 neck">
<path id="Vector" d="M673.29 1541.5C662.675 1541.51 652.093 1540.33 641.74 1537.98C605.93 1529.84 575.8 1514.98 540.99 1488.22C532.66 1481.8 532.04 1474.78 532.99 1470.01C536.13 1453.91 540.14 1271.41 540.3 1250.77C540.35 1244.63 540.36 1228.71 540.3 1212.03C540.3 1201.03 540.2 1179.92 539.99 1161.93C539.85 1150.34 539.68 1142.93 539.5 1139.23L539.08 1131.02L546.22 1135.09C547.32 1135.72 551.77 1137.88 556.49 1140.16C575.14 1149.16 583.84 1153.59 586.1 1155.75C589.26 1158.32 613.15 1165.86 623.35 1169.07C633.03 1172.07 634.35 1172.58 635.3 1173.14C642.88 1177.75 651.03 1181.19 659.67 1184.83C666.17 1187.57 672.9 1190.41 680.01 1193.98C691.4 1199.7 696.85 1202.25 699.01 1202.25C699.807 1202.19 700.593 1202.03 701.35 1201.78C704.05 1201.06 708.14 1199.96 716.96 1199.96C720.52 1199.96 724.64 1200.14 729.19 1200.5C737.93 1200.59 742.26 1206.24 745.43 1210.38C748.15 1213.92 749.43 1215.38 751.58 1215.38C752.574 1215.35 753.555 1215.14 754.48 1214.78L760.61 1212.59L760.5 1219.1C760.5 1221.44 760.5 1224.89 760.57 1228.81C760.78 1238.35 761.3 1250.02 762 1260.81C762.46 1267.98 763 1299 763.67 1334.93C764.67 1388.56 766.1 1469.54 767.61 1476.17C770.17 1483.99 768.61 1491.63 763.19 1498.27C740.59 1525.84 715.87 1539.07 683.02 1541.16C679.77 1541.39 676.5 1541.5 673.29 1541.5Z" fill="#E68856"/>
<path id="Vector_2" d="M544 1139C547.84 1141.19 579.87 1156 583 1159C587.51 1163.38 631 1175.82 633 1177C646.52 1185.24 661.42 1189.67 678 1198C691.79 1204.92 696 1206.75 699 1206.75C702.42 1206.75 704.43 1204.46 716.94 1204.46C720.19 1204.46 724.13 1204.61 728.94 1205H729.01C741.4 1205 741.83 1219.86 751.52 1219.86C753.052 1219.84 754.569 1219.55 756 1219C756 1221.34 756 1224.75 756.07 1228.89C756.26 1237.47 756.74 1249.2 757.51 1261.12C758.73 1280.12 760.67 1469.53 763.31 1477.52C765.444 1483.95 764.244 1489.92 759.71 1495.44C740.29 1519.13 718.02 1534.44 682.71 1536.69C679.544 1536.9 676.397 1537.01 673.27 1537C662.991 1537.01 652.743 1535.87 642.72 1533.59C604.16 1524.83 574.26 1508.12 543.72 1484.65C538.487 1480.65 536.377 1476.06 537.39 1470.89C540.7 1453.95 544.65 1268.55 544.79 1250.81C544.84 1244.99 544.85 1229.65 544.79 1212.02C544.79 1195.32 544.65 1176.56 544.48 1161.88C544.35 1151.48 544.19 1143.12 543.98 1139M534.15 1123L534.99 1139.42C535.18 1143.04 535.34 1150.42 535.48 1161.95C535.69 1179.95 535.76 1201.02 535.79 1211.95C535.84 1228.58 535.79 1244.49 535.79 1250.64C535.63 1270.71 531.58 1453.64 528.56 1469.07C527.56 1473.97 527.56 1483.46 538.23 1491.69C573.59 1518.86 604.23 1533.99 640.74 1542.28C651.417 1544.7 662.332 1545.92 673.28 1545.91C676.58 1545.91 679.96 1545.8 683.28 1545.58C701.61 1544.41 717.42 1539.92 731.6 1531.83C744.16 1524.68 755.3 1514.89 766.6 1501.06C773 1493.25 774.84 1484.26 771.92 1475.06C770.47 1466.22 769.05 1387.22 768.1 1334.8C767.42 1297.34 766.89 1267.8 766.42 1260.49C765.73 1249.74 765.21 1238.13 765 1228.64C764.91 1224.79 764.89 1221.4 764.93 1219.1L765.15 1206.1L753 1210.53C752.604 1210.68 752.191 1210.79 751.77 1210.85C750.77 1209.86 749.857 1208.79 749.04 1207.64C745.74 1203.33 740.23 1196.14 729.42 1196C724.81 1195.64 720.63 1195.46 716.99 1195.46C707.58 1195.46 703.15 1196.65 700.22 1197.46L699.03 1197.76C696.78 1197.36 687.6 1192.76 682.08 1189.98C674.83 1186.34 668.08 1183.47 661.47 1180.71C652.99 1177.13 644.98 1173.71 637.72 1169.33C636.3 1168.48 634.93 1168.02 624.82 1164.83C616.14 1162.1 593.27 1154.88 588.96 1152.22C586.22 1149.83 579.77 1146.44 558.55 1136.16C554.32 1134.11 549.55 1131.79 548.55 1131.23L534.17 1123H534.15Z" fill="#020201"/>
<path id="Vector_3" d="M757.51 1261.12C744.18 1265.34 730.292 1267.54 716.31 1267.64C676.46 1267.82 635.9 1260.01 600.72 1243.29C583.167 1234.95 567.233 1226.66 552.92 1218.41C550.03 1216.53 547.316 1214.39 544.81 1212.02C544.81 1195.32 544.17 1153.68 544 1139.02C575.84 1156.42 603.23 1200.69 639.48 1212.3C670 1222.06 693 1230 727.61 1230.65C737.13 1230.89 746.652 1230.3 756.07 1228.89C756.26 1237.47 756.74 1249.2 757.51 1261.12Z" fill="#CE6D40"/>
</g>
<g id="1 head">
<g id="head">
<path id="Vector_4" d="M763 1220C759.53 1220.44 782.42 1218.55 781 1221C774.75 1222.62 769.82 1226.5 751.13 1229.43C739.738 1231.17 728.203 1231.8 716.69 1231.3C695.32 1230.45 677.18 1228.3 656.95 1220.23C629.935 1209.45 603.955 1196.25 579.33 1180.77C574.06 1177.45 568.988 1173.82 564.14 1169.91C550.54 1158.95 540.007 1149.97 532.54 1142.97C512.34 1124 497 1099.24 485 1072C489.5 1077.86 493 1085.52 497.13 1091.52C512.27 1113.41 533.35 1134.39 552.08 1148.57C581.76 1171.06 619.17 1187.16 655 1203C679.59 1213.88 690.17 1215.06 720 1216C735.64 1216.5 756.45 1220 763 1220Z" fill="#020201"/>
<g id="face">
<path id="Vector_5" d="M755.131 1229H755.001C657.731 1221.52 581.241 1190.71 527.661 1137.42C494.148 1104.04 470.345 1062.17 458.801 1016.3C452.651 991.09 445.141 965.72 435.801 938.71C433.431 931.86 430.961 924.66 428.441 917.3L427.211 913.74C404.301 846.81 392.001 809.89 390.621 804C387.531 790.62 388.301 738.37 388.331 736.15V736C390.691 679 402.561 628.67 423.601 586.34C440.76 551.469 465.333 520.769 495.601 496.39C520.031 476.75 548.451 460.93 580.071 449.39C634.641 429.5 681.211 428.49 690.001 428.49H690.891C691.671 428.44 694.671 428.28 699.531 428.28C725.531 428.28 792.801 432.55 856.831 472.11C893.46 494.706 923.815 526.155 945.101 563.56C971.541 609.5 986.761 666.48 990.331 732.92C990.791 741.46 989.401 755.98 987.681 772.67L986.931 779.81C984.131 806.68 980.641 840.12 980.821 870.3C981.051 908.5 971.241 969.52 965.371 1002.49C963.131 1015.08 961.521 1023.2 961.501 1023.28V1023.47L961.441 1023.65C948.011 1070.05 929.071 1109.65 905.151 1141.43C885.851 1167.05 863.281 1187.65 838.061 1202.66C794.221 1228.74 756.941 1229 755.371 1229H755.131Z" fill="#E68856"/>
<path id="Vector_6" d="M699.531 432.8C746.321 432.8 970.531 447.73 985.841 733.17C986.271 741.17 984.971 755.1 983.201 772.22C980.291 800.38 976.121 837.17 976.321 870.34C976.551 908.49 966.611 969.85 960.941 1001.71C958.681 1014.4 957.091 1022.41 957.091 1022.41C898.921 1223.28 758.871 1224.54 755.371 1224.54H755.301C532.561 1207.42 476.721 1070.67 463.171 1015.23C456.741 988.88 448.931 962.9 440.101 937.23C437.361 929.23 434.471 920.85 431.521 912.23C414.901 863.83 396.611 810 395.001 803C392.001 790 392.831 736.23 392.831 736.23C395.341 675.65 408.351 627.17 427.631 588.38C503.221 436.28 675.291 433 690.001 433H691.001C691.001 433 694.001 432.8 699.531 432.8ZM699.531 423.8C694.871 423.8 691.831 423.94 690.791 424H690.001C681.081 424 633.811 425 578.561 445.21C546.471 456.91 517.621 473 492.811 492.92C462.022 517.699 437.025 548.911 419.571 584.37C398.251 627.28 386.221 678.24 383.841 735.86V736.09C383.751 741.71 383.091 791.35 386.241 805.02C387.631 811.02 400.011 848.12 423.021 915.2L424.511 919.55C426.941 926.63 429.321 933.55 431.601 940.18C440.851 967.05 448.321 992.29 454.441 1017.36C459.194 1036.64 466.157 1055.31 475.191 1073C487.91 1098.02 504.535 1120.85 524.441 1140.64C549.261 1165.32 579.391 1185.51 613.981 1200.64C654.531 1218.39 701.851 1229.45 754.611 1233.5H754.951H755.371C759.371 1233.5 796.231 1232.74 840.371 1206.5C866.101 1191.19 889.101 1170.2 908.751 1144.11C933.001 1111.91 952.191 1071.8 965.751 1024.87L965.861 1024.5L965.941 1024.12C965.941 1024.04 967.571 1015.88 969.821 1003.25C975.721 970.12 985.571 908.79 985.341 870.25C985.161 840.31 988.641 807.01 991.431 780.25C991.681 777.81 991.931 775.42 992.171 773.1C993.921 756.21 995.321 741.51 994.851 732.64C991.231 665.49 975.851 607.84 949.031 561.29C927.37 523.25 896.489 491.269 859.231 468.29C794.201 428.13 725.891 423.8 699.541 423.8H699.531Z" fill="#020201"/>
<path id="Vector_7" d="M431.52 912.28C414.9 863.83 396.61 810 395 803C392 790 392.83 736.23 392.83 736.23C395.34 675.65 408.35 627.17 427.63 588.38C419.63 618.25 406.09 699.57 438.63 846.94C452 907.59 446 921.56 431.52 912.28Z" fill="#CE6D40"/>
</g>
</g>
<path id="smile" d="M628.282 1014.74C628.515 1014.73 628.745 1014.8 628.932 1014.94C629.124 1015.07 629.262 1015.27 629.322 1015.5C629.401 1015.72 629.401 1015.96 629.322 1016.18C629.236 1016.4 629.082 1016.58 628.882 1016.7L619.882 1021.88C619.146 1022.3 618.595 1022.98 618.339 1023.79C618.083 1024.6 618.142 1025.47 618.502 1026.24C622.862 1035.85 647.912 1049.3 656.952 1053.34C686.377 1066.71 718.236 1073.9 750.552 1074.45C782.172 1074.93 805.952 1074.45 834.202 1063.25C842.002 1060.13 847.522 1056.02 850.762 1050.93C850.892 1050.71 851.079 1050.53 851.302 1050.41C851.53 1050.29 851.784 1050.23 852.042 1050.23C852.301 1050.24 852.553 1050.31 852.772 1050.45C852.997 1050.58 853.186 1050.77 853.322 1050.99L854.072 1052.26C854.543 1053.1 854.749 1054.05 854.662 1055.01C854.573 1055.96 854.189 1056.86 853.562 1057.58C843.802 1068.76 826.252 1074.58 811.562 1077.37C766.102 1085.88 720.659 1082.74 675.232 1067.97C651.94 1060.44 630.568 1047.93 612.602 1031.3C612.357 1031.08 612.071 1030.91 611.762 1030.8C611.442 1030.68 611.1 1030.64 610.762 1030.68C610.435 1030.7 610.117 1030.79 609.832 1030.95C609.543 1031.1 609.29 1031.31 609.092 1031.57L604.522 1037.38C604.343 1037.62 604.095 1037.79 603.812 1037.88C603.53 1037.97 603.224 1037.97 602.942 1037.88C602.664 1037.78 602.429 1037.58 602.273 1037.33C602.117 1037.08 602.05 1036.78 602.082 1036.49C603.052 1023.44 616.302 1015.07 628.282 1014.74Z" fill="#020201"/>
<g id="nose">
<path id="Vector_8" d="M816.822 991.859C807.632 1009.12 782.002 1028 766.882 1027.71C759.598 1027.58 752.422 1025.92 745.816 1022.85C739.21 1019.78 733.319 1015.36 728.522 1009.88C725.202 1006.07 722.932 1002.23 723.272 999.049C723.394 997.919 723.935 996.875 724.788 996.124C725.642 995.373 726.745 994.968 727.882 994.989L776.002 997.779C789.879 998.583 803.774 996.569 816.852 991.859H816.822ZM733.822 1005.05C734.367 1006.3 735.295 1007.35 736.472 1008.05C741.138 1011.23 746.435 1013.37 752.002 1014.32C753.003 1014.5 754.035 1014.33 754.931 1013.85C755.827 1013.37 756.535 1012.6 756.942 1011.67V1011.58C757.079 1011.23 757.134 1010.85 757.102 1010.48C757.082 1010.1 756.972 1009.74 756.782 1009.41C756.602 1009.08 756.349 1008.8 756.042 1008.58C755.743 1008.37 755.402 1008.22 755.042 1008.15L734.482 1004.26C734.383 1004.23 734.28 1004.23 734.182 1004.26C734.085 1004.3 733.999 1004.36 733.932 1004.44C733.86 1004.52 733.814 1004.61 733.802 1004.72C733.774 1004.83 733.777 1004.94 733.812 1005.05H733.822Z" fill="#CE6D40"/>
<path id="Vector_9" d="M733.811 1005.05C733.787 1004.94 733.787 1004.83 733.811 1004.73C733.828 1004.63 733.873 1004.53 733.942 1004.45C734.011 1004.37 734.096 1004.31 734.192 1004.27C734.29 1004.24 734.393 1004.24 734.491 1004.27L755.002 1008.15C755.364 1008.21 755.706 1008.36 756.002 1008.58C756.309 1008.8 756.562 1009.08 756.741 1009.41C756.93 1009.74 757.043 1010.1 757.072 1010.48C757.095 1010.85 757.037 1011.23 756.902 1011.58V1011.67C756.498 1012.6 755.792 1013.37 754.897 1013.85C754.003 1014.33 752.972 1014.5 751.971 1014.32C746.406 1013.38 741.108 1011.25 736.431 1008.09C735.262 1007.38 734.345 1006.31 733.811 1005.05Z" fill="#201116"/>
<path id="Vector_10" d="M790.002 843.999C788.872 845.129 789.122 847.399 789.002 848.999C788.342 857.999 783.372 895.329 790.682 915.289C799.002 937.999 802.302 952.659 815.002 970.999C827.702 989.339 792.842 1022.22 770.422 1025.61C770.422 1025.61 764.602 1029.61 779.302 1029.33C794.002 1029.05 816.882 1013.4 822.442 995.699C828.002 977.999 826.882 974.569 822.442 966.789C818.002 959.009 798.002 923.999 796.002 898.999C794.002 873.999 800.002 852.999 792.002 843.999C791.342 843.249 791.002 842.999 790.002 843.999Z" fill="#020201"/>
</g>
<g id="glasses">
<path id="Vector_11" d="M1021 768C1022.56 769 996.432 766.57 994.002 766C990.392 768 978.522 763.54 974.352 763.36C951.212 762.3 929.995 761.607 910.702 761.28C896.882 761.07 880.052 764.42 870.292 765.28C856.685 766.5 846.798 768.547 840.632 771.42C828.312 777.2 818.598 784.97 811.492 794.73C811.13 795.228 810.819 795.76 810.562 796.32L801.252 816.79C801.039 817.263 800.733 817.688 800.352 818.04C799.966 818.389 799.513 818.658 799.022 818.83C798.534 819 798.017 819.068 797.502 819.03C796.983 818.997 796.477 818.861 796.012 818.63C784.172 812.73 772.138 810.633 759.912 812.34C755.372 812.97 751.662 812.79 747.212 815.44C746.915 815.619 746.585 815.737 746.242 815.789C745.899 815.84 745.549 815.824 745.212 815.74C744.527 815.569 743.935 815.139 743.562 814.54C739.862 808.42 737.302 799.69 734.202 794.73C725.075 780.15 712.882 770.483 697.622 765.73C660.662 754.17 621.389 749.483 579.802 751.67C566.295 752.37 556.792 752.72 551.292 752.72C536.872 752.72 497.392 754.2 493.062 768.23C491.209 774.15 490.105 782.25 489.752 792.53C489.711 793.739 489.801 794.95 490.022 796.14C491.792 806.309 492.957 816.573 493.512 826.88C493.842 834.238 494.758 841.558 496.252 848.77C501.732 875.37 507.065 898.223 512.252 917.33C515.852 931.183 523.004 943.857 533.002 954.1C533.834 954.954 534.775 955.694 535.802 956.3C553.802 966.74 569.549 972.953 583.042 974.94C600.021 977.268 617.157 978.271 634.292 977.94C651.483 977.85 668.432 973.889 683.882 966.35C690.867 962.877 697.168 958.172 702.482 952.46C709.988 944.5 714.928 938.45 717.302 934.31C722.022 926.123 727.742 912.143 734.462 892.37C738.462 880.6 740.392 861.37 741.782 852.44C742.892 845.19 745.962 839.44 752.282 836.67C768.042 829.643 782.105 831.9 794.472 843.44C798.778 847.5 800.865 851.796 800.732 856.33C799.972 877.85 801.085 896.967 804.072 913.68C809.342 943.16 831.072 976.19 864.202 980.68C875.142 982.16 889.745 983.183 908.012 983.75C921.565 984.19 937.472 980.647 955.732 973.12C970.625 967 981.605 955.91 988.672 939.85C996.205 922.75 1002.42 907.063 1007.31 892.79C1007.67 891.746 1007.91 890.666 1008.03 889.57C1008.97 881.248 1011.59 873.204 1015.74 865.93L1013.6 892.4C1006.13 922.09 995.262 950.4 973.702 970.98C972.912 971.74 938.992 1000.98 862.182 987.9C851.749 986.02 839.749 980.61 826.182 971.67C813.002 960 788.402 922.44 795.752 861.18C796.095 858.154 795.66 855.09 794.487 852.28C793.315 849.469 791.444 847.005 789.052 845.12C779.282 837.3 762.332 829.12 748.952 849.53C748.422 850.364 748.102 851.315 748.022 852.3C745.612 884.13 737.932 912.73 720.742 939.89C704.602 965.343 681.478 979.896 651.372 983.55C621.253 987.299 590.69 985.073 561.432 977C537.372 970.38 520.995 956.32 512.302 934.82C496.442 895.58 487.309 852.473 484.902 805.5C484.803 803.777 484.072 802.152 482.848 800.936C481.624 799.72 479.995 798.998 478.272 798.91C464.972 798.31 449.949 800.047 433.202 804.12C432.992 804.12 426.002 809.02 422.202 806.07C416.992 801.98 413.012 796.45 407.782 792.07C406.97 791.401 406.08 790.834 405.132 790.38C401.612 788.71 390.232 787.76 387.002 785.52C385.312 784.36 387.462 778.75 387.622 778.25C389.362 772.47 400.312 767.35 404.472 764.88C405.519 764.253 406.711 763.908 407.932 763.88L423.232 763.31C445.352 763.65 464.559 761.403 480.852 756.57C501.852 750.343 514.249 747.11 518.042 746.87C535.382 745.76 551.792 742.87 569.342 742.81C598.946 742.579 628.532 744.37 657.892 748.17C673.161 750.267 688.149 754.053 702.582 759.46C725.012 767.74 738.682 783.06 745.722 804.53C746.022 805.439 746.667 806.194 747.517 806.633C748.368 807.072 749.357 807.161 750.272 806.88C765.605 802.34 780.249 803.833 794.202 811.36C794.407 811.476 794.636 811.544 794.872 811.56C795.108 811.571 795.343 811.53 795.562 811.44C795.781 811.349 795.979 811.213 796.142 811.04C796.304 810.868 796.421 810.658 796.482 810.43C802.175 791.596 812.605 778.12 827.772 770C843.972 761.333 862.449 756.213 883.202 754.64C914.032 752.27 946.442 753.34 977.972 757.04C983.072 757.6 1016.69 765.29 1021 768ZM482.002 770.38C482.002 769.733 481.858 769.095 481.582 768.51C481.305 767.926 480.902 767.41 480.402 767C479.906 766.588 479.326 766.291 478.702 766.13C478.077 765.975 477.426 765.955 476.792 766.07C455.444 769.932 433.742 771.477 412.062 770.68C411.205 770.638 410.35 770.792 409.562 771.13C408.038 771.772 406.672 772.738 405.558 773.96C404.444 775.183 403.61 776.633 403.112 778.21C402.942 778.672 402.921 779.175 403.052 779.65C403.176 780.126 403.454 780.547 403.842 780.85L424.492 797.05C425.026 797.464 425.655 797.739 426.322 797.85C426.991 797.967 427.68 797.912 428.322 797.69C443.873 792.234 460.474 790.44 476.832 792.45C477.485 792.518 478.146 792.45 478.772 792.25C479.71 791.945 480.529 791.351 481.11 790.554C481.692 789.757 482.008 788.797 482.012 787.81L482.002 770.38Z" fill="#020201"/>
<path id="Vector_12" d="M996.002 765L1012 768C1012.16 768 1020.29 771.12 1020.44 771.22C1023.66 773.22 1025.21 776.22 1025.08 780.22C1024.7 792.486 1024.11 805.153 1023.3 818.22C1019.31 833.848 1016.78 849.813 1015.75 865.91C1011.59 873.19 1008.95 881.245 1008 889.58C1007.88 890.676 1007.64 891.756 1007.28 892.8C1002.38 907.066 996.169 922.753 988.642 939.86C981.582 955.92 970.602 967.01 955.702 973.13C937.469 980.656 921.569 984.2 908.002 983.76C889.736 983.2 875.132 982.176 864.192 980.69C831.042 976.17 809.332 943.14 804.062 913.69C801.069 896.983 799.956 877.866 800.722 856.34C800.862 851.8 798.776 847.503 794.462 843.45C782.089 831.91 768.026 829.653 752.272 836.68C745.952 839.48 742.882 845.2 741.772 852.45C740.382 861.4 738.452 880.61 734.452 892.38C727.746 912.126 722.032 926.096 717.312 934.29C714.946 938.416 710.006 944.466 702.492 952.44C697.179 958.151 690.878 962.857 683.892 966.33C668.443 973.869 651.493 977.83 634.302 977.92C617.167 978.251 600.032 977.248 583.052 974.92C569.532 972.92 553.786 966.706 535.812 956.28C534.786 955.674 533.844 954.934 533.012 954.08C522.993 943.837 515.823 931.155 512.212 917.29C507.052 898.183 501.719 875.33 496.212 848.73C494.718 841.518 493.802 834.198 493.472 826.84C492.923 816.54 491.765 806.282 490.002 796.12C489.782 794.93 489.691 793.719 489.732 792.51C490.092 782.23 491.196 774.13 493.042 768.21C497.372 754.21 536.852 752.7 551.272 752.7C556.772 752.7 566.276 752.35 579.782 751.65C621.369 749.463 660.642 754.15 697.602 765.71C712.856 770.49 725.049 780.156 734.182 794.71C737.282 799.71 739.842 808.4 743.542 814.52C743.918 815.116 744.509 815.546 745.192 815.72C745.529 815.804 745.879 815.82 746.222 815.769C746.565 815.717 746.895 815.599 747.192 815.42C751.642 812.77 755.352 812.95 759.892 812.32C772.126 810.606 784.159 812.703 795.992 818.61C796.457 818.841 796.964 818.977 797.482 819.01C797.997 819.049 798.515 818.981 799.002 818.81C799.494 818.638 799.946 818.369 800.332 818.02C800.714 817.668 801.02 817.243 801.232 816.77L810.542 796.3C810.799 795.74 811.11 795.208 811.472 794.71C818.572 784.95 828.286 777.18 840.612 771.4C846.779 768.526 856.666 766.48 870.272 765.26C880.032 764.39 896.862 761.04 910.682 761.26C929.969 761.593 951.186 762.286 974.332 763.34C978.002 763.52 995.462 764.83 996.002 765ZM547.342 770.92C505.492 781.31 513.342 822.8 514.592 854.56C514.941 864.783 516.342 874.943 518.772 884.88C523.372 903.306 527.999 917.086 532.652 926.22C548.852 957.92 578.272 960.12 610.422 961.57C640.112 962.92 664.742 963.04 686.962 945.43C700.092 935.01 707.792 920.43 714.542 905.54C719.782 893.97 721.642 878.8 724.752 866.06C727.752 853.87 727.002 841.4 727.062 829.27C727.062 823.73 724.746 815.67 720.112 805.09C716.539 797.003 712.272 791.243 707.312 787.81C703.162 784.92 692.742 781.7 677.002 776C675.792 775.56 675.282 775 674.002 775C659.732 774.91 645.682 769.29 631.232 768.57C601.339 767.07 582.449 766.356 574.562 766.43C568.242 766.49 559.169 767.986 547.342 770.92ZM999.222 806.33C996.002 770 906.802 777 883.062 778.36C856.442 779.83 820.582 792.42 816.912 823.13C815.179 837.556 814.276 855.63 814.202 877.35C814.162 892.27 817.926 910.696 825.492 932.63C831.572 950.25 840.842 957.11 858.192 962.8C875.653 968.714 894.282 970.337 912.502 967.53C930.236 964.743 940.362 963.056 942.882 962.47C950.882 960.6 956.472 957.12 961.002 952C976.043 935.224 986.845 915.089 992.502 893.28C994.416 885.946 997.459 872.613 1001.63 853.28C1004.23 841.246 1003.42 825.596 999.222 806.33Z" fill="#501C49"/>
<path id="Vector_13" d="M482.003 770.38V787.81C482.003 788.465 481.863 789.113 481.593 789.71C481.333 790.311 480.944 790.847 480.453 791.28C479.963 791.718 479.387 792.049 478.762 792.25C478.137 792.452 477.476 792.52 476.823 792.45C460.468 790.439 443.87 792.232 428.323 797.69C427.681 797.907 426.996 797.962 426.327 797.85C425.659 797.739 425.029 797.464 424.493 797.05L395.843 779.85C395.455 779.547 395.177 779.126 395.053 778.65C394.92 778.175 394.945 777.67 395.123 777.21C396.423 773.69 398.973 772.21 401.963 771C405.256 770.145 408.594 769.477 411.963 769C435.203 769.68 456.883 769.83 476.793 766.07C477.749 765.886 478.739 766.027 479.606 766.468C480.474 766.91 481.169 767.628 481.583 768.51C481.857 769.095 482.001 769.733 482.003 770.38Z" fill="#501C49"/>
<path id="Vector_14" d="M514.591 854.56C513.381 822.8 505.491 781.31 547.341 770.92C559.175 767.987 568.248 766.49 574.561 766.43C582.448 766.35 601.338 767.063 631.231 768.57C645.681 769.29 675.791 774.57 677.001 775C692.741 780.7 703.161 784.92 707.311 787.81C712.271 791.243 716.538 797.003 720.111 805.09C724.778 815.67 727.095 823.73 727.061 829.27C727.001 841.4 727.701 853.87 724.751 866.06C721.641 878.8 719.751 893.97 714.541 905.54C707.791 920.47 700.091 935 687.001 945.43C664.781 963.04 640.151 962.92 610.461 961.57C578.311 960.12 548.891 957.92 532.691 926.22C528.025 917.093 523.398 903.313 518.811 884.88C516.367 874.945 514.953 864.785 514.591 854.56ZM541.891 779.71C506.001 793.86 522.321 867.15 529.001 897.41C534.511 922.41 544.231 941.24 570.401 948.8C585.249 953.158 600.602 955.559 616.071 955.94C652.381 956.75 682.971 951 701.371 919.02C704.205 914.093 707.718 904.55 711.911 890.39C722.631 854.39 731.811 796.09 682.431 783.84C644.965 774.586 606.229 771.572 567.781 774.92C558.331 775.71 551.471 776 541.891 779.71Z" fill="#020201"/>
<path id="Vector_15" d="M1001 800C997.001 789 1001 778 920.001 776C839.001 774 829.001 793 829.001 793C817.001 805 816.001 813 814.201 824.83C812.401 836.66 814.001 834 811.381 864.83C808.761 895.66 812.001 904 814.001 913C816.001 922 826.001 943 832.751 951.21C839.501 959.42 863.001 970 886.001 970C909.001 970 942.001 972 966.001 949C990.001 926 1000 878 1004 856C1008 834 1005 811 1001 800ZM998.921 856.9C995.131 877.73 985.661 923.19 962.921 944.97C940.181 966.75 908.921 964.85 887.161 964.85C865.401 964.85 843.161 954.85 836.741 947.06C830.321 939.27 820.891 919.4 819.001 910.88C817.111 902.36 814.001 894.43 816.521 865.25C819.041 836.07 817.521 838.58 819.191 827.38C820.861 816.18 821.841 808.6 833.191 797.24C833.191 797.24 842.661 779.24 919.361 781.14C996.061 783.04 992.281 793.45 996.071 803.87C999.861 814.29 1002.71 836.06 998.921 856.9Z" fill="#020201"/>
<path id="Vector_16" d="M1029.7 798.52C1030.65 791.415 1030.65 784.215 1029.7 777.11C1029.12 772.31 1026.14 769.19 1020.76 767.75C1007.89 764.29 997.888 762.274 990.762 761.7L997.002 765C997.162 765 1020.29 771.12 1020.45 771.22C1023.66 773.22 1025.2 776.22 1025.08 780.22C1024.81 789.12 1023.5 798.65 1023 807.97C1022.9 808.77 1021.36 827.08 1019 834.97C1016.59 843.03 1010.61 877.6 1010.61 877.6C1010.61 877.6 1008 909.97 1012.53 896.6C1016.78 884.01 1028.21 808.46 1029.53 799.41L1029.59 799.03C1029.68 798.7 1029.7 798.52 1029.7 798.52Z" fill="#020201"/>
</g>
<g id="ear">
<path id="Vector_17" d="M451.271 845.47C451.271 845.47 397.611 741.33 351.811 798.66C306.011 855.99 342.691 960.79 387.001 991C431.311 1021.21 457.001 984 457.001 984L451.271 845.47Z" fill="#E68856"/>
<path id="Vector_18" d="M409.132 940.159C406.592 928.999 406.662 912.209 421.002 894.999C421.002 894.999 402.002 822.999 371.002 818.999C340.002 814.999 346.132 872.669 352.062 886.329C357.992 899.989 371.062 948.819 391.532 950.409C394.532 950.639 397.172 950.879 399.452 951.109C400.873 951.253 402.307 951.056 403.637 950.535C404.966 950.015 406.153 949.185 407.099 948.116C408.045 947.046 408.722 945.766 409.076 944.383C409.429 942.999 409.448 941.551 409.132 940.159Z" fill="#CE6D40"/>
<path id="Vector_19" d="M409.832 952.06C409.512 951.06 409.042 950.06 408.502 948.89C407.962 947.72 407.442 946.39 407.012 945.1C406.189 942.546 405.57 939.931 405.162 937.28C404.725 934.635 404.505 931.96 404.502 929.28C404.452 927.94 404.562 926.6 404.602 925.28C404.642 923.96 404.812 922.61 405.052 921.28C405.853 915.99 407.441 910.85 409.762 906.03C412.079 901.276 414.964 896.82 418.352 892.76L417.662 895.85C416.162 890 414.322 884.05 412.332 878.24C410.342 872.43 408.132 866.67 405.672 861.04C403.25 855.413 400.482 849.943 397.382 844.66C394.383 839.407 390.771 834.53 386.622 830.13C385.622 829.02 384.472 828.13 383.382 827.08C382.812 826.61 382.212 826.18 381.632 825.73C381.342 825.51 381.062 825.27 380.752 825.07L379.832 824.49C379.243 824.092 378.632 823.728 378.002 823.4L376.062 822.4C374.748 821.85 373.385 821.425 371.992 821.13C369.231 820.464 366.352 820.464 363.592 821.13C362.256 821.485 360.979 822.034 359.802 822.76C358.62 823.522 357.538 824.429 356.582 825.46C354.659 827.678 353.139 830.217 352.092 832.96C351.005 835.782 350.191 838.702 349.662 841.68C348.615 847.74 348.203 853.893 348.432 860.04C348.444 860.315 348.346 860.585 348.159 860.788C347.972 860.992 347.713 861.113 347.437 861.125C347.161 861.137 346.892 861.038 346.688 860.852C346.485 860.665 346.364 860.405 346.352 860.13C345.915 853.847 346.132 847.537 347.002 841.3C347.465 838.124 348.232 834.999 349.292 831.97C350.379 828.838 352.011 825.923 354.112 823.36C355.228 822.062 356.509 820.916 357.922 819.95C359.365 818.99 360.942 818.248 362.602 817.75C365.891 816.81 369.358 816.673 372.712 817.35C374.377 817.646 376.011 818.098 377.592 818.7L379.882 819.7C380.612 820.093 381.32 820.527 382.002 821L383.072 821.63C383.422 821.85 383.742 822.1 384.072 822.34C384.742 822.82 385.422 823.29 386.072 823.79C387.312 824.85 388.612 825.86 389.742 827.03C394.306 831.535 398.314 836.571 401.682 842.03C405.071 847.393 408.12 852.964 410.812 858.71C413.532 864.42 415.982 870.24 418.212 876.13C420.442 882.02 422.492 887.95 424.302 894.13C424.444 894.622 424.468 895.141 424.373 895.645C424.277 896.149 424.064 896.623 423.752 897.03L423.612 897.22C420.586 900.822 418.007 904.777 415.932 909C413.889 913.197 412.486 917.676 411.772 922.29C411.552 923.43 411.512 924.6 411.372 925.75C411.232 926.9 411.222 928.07 411.262 929.24C411.286 933.906 412.004 938.544 413.392 943C413.75 944.083 414.164 945.148 414.632 946.19C415.112 947.27 415.702 948.54 416.172 949.95C416.453 950.79 416.389 951.708 415.993 952.502C415.597 953.295 414.903 953.898 414.062 954.18C413.221 954.461 412.303 954.396 411.51 954.001C410.717 953.605 410.113 952.91 409.832 952.07V952.06Z" fill="#020201"/>
<path id="Vector_20" d="M383.001 932.07C381.382 928.695 379.985 925.218 378.821 921.66C377.607 918.116 376.605 914.503 375.821 910.84C374.197 903.385 373.762 895.721 374.531 888.13C374.999 884.235 375.902 880.405 377.221 876.71C377.591 875.79 377.891 874.84 378.321 873.94L379.601 871.24C380.541 869.471 381.593 867.765 382.751 866.13C383.915 864.488 385.173 862.915 386.521 861.42C387.937 859.965 389.433 858.59 391.001 857.3C394.067 854.748 397.384 852.513 400.901 850.63C402.023 849.995 403.351 849.831 404.594 850.175C405.836 850.52 406.891 851.343 407.526 852.465C408.161 853.587 408.325 854.915 407.981 856.158C407.636 857.4 406.813 858.455 405.691 859.09C405.595 859.151 405.495 859.205 405.391 859.25L405.141 859.37C402.091 860.711 399.186 862.36 396.471 864.29C395.127 865.247 393.839 866.278 392.611 867.38C391.419 868.517 390.294 869.723 389.241 870.99C388.183 872.26 387.208 873.596 386.321 874.99L385.081 877.16C384.661 877.88 384.361 878.66 383.981 879.41C382.599 882.516 381.566 885.766 380.901 889.1C379.667 896.036 379.542 903.125 380.531 910.1C380.989 913.643 381.657 917.156 382.531 920.62C383.388 924.094 384.464 927.511 385.751 930.85V930.9C385.886 931.259 385.878 931.655 385.73 932.009C385.582 932.362 385.304 932.645 384.953 932.8C384.602 932.955 384.206 932.97 383.845 932.841C383.484 932.713 383.185 932.451 383.011 932.11L383.001 932.07Z" fill="#020201"/>
<path id="Vector_21" d="M451.271 845.47C451.271 845.47 424.831 794.16 393.271 783.4C379.851 778.83 365.501 781.57 351.851 798.66C306.001 856 342.691 960.79 387.001 991C431.311 1021.21 457.001 984 457.001 984" stroke="black" stroke-width="7" stroke-linecap="round" stroke-linejoin="round"/>
</g>
<g id="eyebrow">
<path id="Vector_22" d="M534.132 736.87C533.788 736.897 533.444 736.835 533.132 736.69C532.829 736.539 532.569 736.315 532.377 736.037C532.184 735.759 532.066 735.436 532.032 735.1C532.005 734.757 532.066 734.412 532.212 734.1C545.798 705.173 567.465 687.487 597.212 681.04C607.165 678.88 620.692 678.3 637.792 679.3C658.482 680.53 682.392 687.67 695.242 704.2C703.242 714.53 710.362 728.5 706.712 740.57C706.327 741.847 705.454 742.921 704.281 743.558C703.109 744.195 701.733 744.343 700.452 743.97C671.977 735.621 642.632 730.598 613.002 729C600.902 728.333 584.568 729.137 564.002 731.41C556.232 732.26 543.282 736.2 534.132 736.87Z" fill="#201116" stroke="black" stroke-width="7" stroke-miterlimit="10"/>
<path id="Vector_23" d="M973.632 748.43L969.452 748.13C969.365 748.131 969.279 748.11 969.202 748.07C952.002 742.01 935.795 738.757 920.582 738.31C910.402 737.99 896.088 739.053 877.642 741.5C863.398 743.359 849.423 746.883 836.002 752C835.1 752.343 834.103 752.34 833.203 751.991C832.304 751.642 831.566 750.972 831.132 750.11C830.84 749.541 830.693 748.909 830.702 748.27C831.162 728.643 839.715 713.527 856.362 702.92C874.002 691.73 902.942 688.54 922.002 692.4C950.402 698.18 970.842 716.72 976.262 745.4C976.333 745.782 976.316 746.175 976.212 746.55C976.108 746.924 975.919 747.27 975.662 747.56C975.41 747.852 975.091 748.079 974.732 748.22C974.385 748.372 974.009 748.443 973.632 748.43Z" fill="#201116" stroke="black" stroke-width="7" stroke-miterlimit="10"/>
</g>
<g id="eye">
<path id="Vector_24" d="M690.883 858.63C684.223 825.48 662.273 806.87 629.693 804.63C608.233 803.16 588.303 807.07 571.583 821.16C556.173 834.16 555.123 851.51 552.773 870.3C549.713 861.593 548.889 850.863 550.303 838.11C553.716 807.23 570.616 790.527 601.003 788C626.233 785.89 662.333 792 679.923 811.27C690.356 822.69 694.539 837.657 692.473 856.17C692.233 858.477 691.703 859.297 690.883 858.63Z" fill="#020201"/>
<path id="Vector_25" d="M690.883 858.63C689.733 869.43 688.883 881.54 684.763 891.05C674.923 914.043 657.28 928.257 631.833 933.69C613.833 937.54 595.433 931.13 580.833 921.07C564.28 909.69 554.927 892.78 552.773 870.34C555.123 851.55 556.173 834.18 571.583 821.2C588.303 807.11 608.233 803.2 629.693 804.67C662.273 806.87 684.223 825.48 690.883 858.63ZM615.933 807.24C605.243 807.05 594.933 812.29 587.163 821.82C579.393 831.35 575.003 844.36 574.723 858C574.595 864.689 575.516 871.356 577.453 877.76C579.259 883.827 582.116 889.53 585.893 894.61C589.343 899.269 593.735 903.15 598.783 906C603.48 908.63 608.752 910.066 614.133 910.18C624.823 910.37 635.133 905.12 642.903 895.6C650.673 886.08 655.103 873.06 655.343 859.41C655.471 852.725 654.553 846.061 652.623 839.66C650.81 833.591 647.951 827.885 644.173 822.8C640.723 818.145 636.335 814.266 631.293 811.41C626.592 808.783 621.318 807.351 615.933 807.24Z" fill="#FDFAE9"/>
<path id="Vector_26" d="M615.933 807.239C621.319 807.352 626.595 808.791 631.293 811.429C636.336 814.278 640.724 818.155 644.173 822.809C647.95 827.894 650.81 833.6 652.623 839.669C654.552 846.071 655.47 852.735 655.343 859.419C655.103 873.069 650.633 886.089 642.903 895.609C635.173 905.129 624.833 910.379 614.133 910.199C608.75 910.073 603.48 908.631 598.783 905.999C593.735 903.152 589.346 899.271 585.903 894.609C582.118 889.533 579.257 883.829 577.453 877.759C575.516 871.356 574.594 864.688 574.723 857.999C574.963 844.349 579.443 831.329 587.173 821.809C594.903 812.289 605.243 807.049 615.933 807.239ZM636.803 830.079C635.795 830.087 634.802 830.316 633.893 830.749C632.957 831.191 632.12 831.816 631.433 832.589C630.723 833.397 630.17 834.329 629.803 835.339C629.43 836.375 629.241 837.468 629.243 838.569C629.248 840.762 630.059 842.876 631.523 844.509C632.201 845.272 633.032 845.883 633.963 846.302C634.894 846.72 635.902 846.938 636.923 846.939C637.929 846.935 638.923 846.71 639.833 846.279C640.768 845.837 641.604 845.212 642.293 844.439C643.002 843.632 643.555 842.699 643.923 841.689C644.306 840.656 644.495 839.561 644.483 838.459C644.484 836.265 643.672 834.149 642.203 832.519C641.526 831.754 640.695 831.141 639.764 830.721C638.833 830.3 637.824 830.082 636.803 830.079Z" fill="#020201"/>
<path id="Vector_27" d="M644.482 838.46C644.482 833.8 641.012 830.05 636.802 830.08C632.592 830.11 629.212 833.91 629.242 838.57C629.272 843.23 632.712 846.97 636.922 846.94C641.132 846.91 644.512 843.12 644.482 838.46Z" fill="#FDFAE9"/>
</g>
<g id="eye_2">
<path id="Vector_28" d="M944.482 884.4C945.909 870.154 945.979 859.074 944.692 851.16C942.026 834.78 932.652 822.394 916.572 814C915.125 813.25 913.552 812.772 911.932 812.59C892.386 810.364 876.892 811.167 865.452 815C847.539 821 835.052 835.604 827.992 858.81C829.559 823.077 847.402 803.334 881.522 799.58C892.856 798.34 902.039 798.36 909.072 799.64C930.842 803.59 949.002 819.09 952.822 841.76C955.196 855.82 952.416 870.034 944.482 884.4Z" fill="#020201"/>
<path id="Vector_29" d="M944.482 884.4C941.735 893.494 939.105 899.887 936.592 903.58C909.072 944.13 845.242 956.42 830.252 895C827.058 881.887 826.305 869.824 827.992 858.81C835.052 835.604 847.538 821 865.452 815C876.892 811.16 892.385 810.357 911.932 812.59C914.377 813.105 916.751 813.914 919.002 815C935.062 823.39 942.002 834.78 944.692 851.16C945.985 859.054 945.915 870.134 944.482 884.4ZM869.662 819C860.722 819.38 852.352 824.65 846.392 833.66C840.432 842.67 837.392 854.66 837.892 867.04C838.136 873.083 839.254 879.058 841.212 884.78C843.014 890.128 845.698 895.137 849.152 899.6C852.215 903.586 856.091 906.875 860.522 909.25C864.534 911.375 869.034 912.41 873.572 912.25C882.522 911.87 890.892 906.6 896.842 897.59C902.792 888.58 905.842 876.59 905.342 864.21C905.084 858.184 903.959 852.226 902.002 846.52C900.196 841.172 897.509 836.163 894.052 831.7C890.994 827.713 887.121 824.423 882.692 822.05C878.689 819.914 874.197 818.863 869.662 819Z" fill="#FDFAE9"/>
<path id="Vector_30" d="M869.671 819C874.209 818.843 878.708 819.878 882.721 822C887.151 824.373 891.024 827.662 894.081 831.65C897.535 836.128 900.212 841.155 902.001 846.52C903.958 852.242 905.073 858.217 905.311 864.26C905.831 876.62 902.781 888.64 896.821 897.64C890.861 906.64 882.491 911.92 873.551 912.3C869.011 912.458 864.508 911.424 860.491 909.3C856.062 906.927 852.189 903.637 849.131 899.65C845.674 895.187 842.987 890.178 841.181 884.83C839.228 879.111 838.113 873.139 837.871 867.1C837.351 854.73 840.411 842.72 846.361 833.71C852.311 824.7 860.721 819.42 869.671 819ZM895.831 843.83C895.867 842.862 895.708 841.898 895.363 840.993C895.017 840.089 894.493 839.263 893.822 838.566C893.15 837.869 892.345 837.314 891.454 836.936C890.563 836.557 889.604 836.362 888.636 836.362C887.668 836.362 886.71 836.557 885.819 836.936C884.928 837.314 884.123 837.869 883.451 838.566C882.78 839.263 882.255 840.089 881.91 840.993C881.565 841.898 881.405 842.862 881.441 843.83C881.438 844.777 881.625 845.716 881.991 846.59C882.353 847.459 882.879 848.25 883.541 848.92C884.548 849.926 885.831 850.612 887.227 850.889C888.624 851.167 890.071 851.024 891.386 850.48C892.702 849.935 893.826 849.012 894.617 847.829C895.408 846.645 895.831 845.254 895.831 843.83Z" fill="#020201"/>
<path id="Vector_31" d="M888.632 851.07C890.056 851.07 891.448 850.648 892.632 849.856C893.816 849.065 894.739 847.941 895.284 846.625C895.829 845.31 895.971 843.862 895.693 842.465C895.415 841.069 894.73 839.786 893.723 838.779C892.716 837.772 891.433 837.086 890.036 836.808C888.64 836.53 887.192 836.673 885.876 837.218C884.561 837.763 883.436 838.686 882.645 839.87C881.854 841.054 881.432 842.446 881.432 843.87C881.432 845.779 882.19 847.611 883.54 848.961C884.891 850.311 886.722 851.07 888.632 851.07Z" fill="#FDFAE9"/>
</g>
</g>
</g>
<g id="Hair 1_2">
<g id="hair 1">
<path id="Vector_32" d="M1089.5 794.001C1089.23 794.004 1088.95 793.977 1088.68 793.921C1087.82 793.761 1087.03 793.357 1086.4 792.757C1085.77 792.158 1085.32 791.388 1085.12 790.541C1078.27 761.841 1062.25 714.381 1048.43 709.221C1042.34 706.941 1038.43 706.021 1034.95 706.021C1030.22 706.021 1025.49 707.731 1016.9 710.831C1010.27 713.231 1001.19 716.511 988.311 720.301C984.117 721.578 979.764 722.251 975.381 722.301C938.831 722.251 926.461 674.001 926.001 672.001C913.851 623.811 898.711 587.871 881.001 565.201C861.551 540.251 843.551 536.721 831.631 534.391C830.351 534.141 829.141 533.901 828.031 533.661C822.324 532.392 816.37 532.83 810.911 534.921C808.421 535.846 805.863 536.578 803.261 537.111C800.177 537.738 797.038 538.056 793.891 538.061C789.165 538.075 784.47 537.315 779.991 535.811C769.371 532.231 755.451 530.421 738.611 530.421C705.091 530.421 671.991 537.611 661.921 542.581C661.19 542.912 660.499 543.324 659.861 543.811C656.861 546.391 652.261 556.501 646.991 568.211C634.521 595.891 615.671 637.721 579.361 673.941C541.361 711.831 497.131 723.491 474.151 727.081C468.478 728.016 462.748 728.561 457.001 728.711H456.531L454.531 728.501L454.081 728.431L448.081 727.181C447.654 728.263 447.093 729.288 446.411 730.231C429.641 753.961 314.581 772.671 309.691 773.451C309.456 773.49 309.219 773.51 308.981 773.511C308.009 773.512 307.062 773.199 306.283 772.618C305.503 772.037 304.933 771.22 304.657 770.287C304.381 769.355 304.415 768.359 304.753 767.447C305.09 766.536 305.714 765.758 306.531 765.231C316.241 758.951 324.081 751.001 329.811 745.231C333.811 741.231 336.741 738.231 339.361 736.621C320.121 732.731 301.811 721.681 284.931 703.771C271.267 689.001 259.982 672.197 251.481 653.961C251.184 653.275 251.063 652.527 251.127 651.783C251.191 651.039 251.439 650.323 251.848 649.698C252.258 649.073 252.816 648.56 253.473 648.205C254.129 647.849 254.864 647.662 255.611 647.661C255.852 647.661 256.093 647.681 256.331 647.721C267.271 649.59 278.342 650.594 289.441 650.721C308.561 650.721 319.661 647.001 325.611 643.871C325.661 643.871 325.611 643.691 325.611 643.651H325.501C286.671 638.361 261.931 615.001 248.001 596.321C233.181 576.431 227.391 557.991 227.151 557.221C226.945 556.547 226.899 555.835 227.018 555.141C227.136 554.447 227.416 553.79 227.834 553.224C228.252 552.657 228.796 552.196 229.424 551.878C230.053 551.559 230.746 551.393 231.451 551.391C231.93 551.388 232.407 551.466 232.861 551.621C248.042 556.813 263.957 559.544 280.001 559.711C346.331 559.711 384.391 506.881 397.681 484.161C398.112 483.43 398.362 482.606 398.412 481.759C398.461 480.912 398.308 480.065 397.965 479.289C397.622 478.513 397.099 477.83 396.439 477.296C395.779 476.763 395.001 476.394 394.171 476.221C363.561 469.741 338.621 450.791 320.041 419.881C308.831 401.251 302.241 381.781 298.681 368.721C296.51 361.064 294.84 353.274 293.681 345.401C293.572 344.553 293.707 343.691 294.071 342.918C294.435 342.144 295.012 341.49 295.735 341.033C296.457 340.576 297.295 340.335 298.15 340.338C299.005 340.341 299.841 340.589 300.561 341.051C301.031 341.351 348.641 371.131 416.561 371.131C455.461 371.131 493.561 361.501 529.831 342.501C598.531 306.561 654.001 299.001 688.371 299.001C698.955 298.969 709.527 299.721 720.001 301.251C707.841 293.731 693.801 285.811 693.641 285.721C692.838 285.269 692.193 284.582 691.793 283.752C691.393 282.922 691.257 281.989 691.405 281.079C691.552 280.17 691.975 279.328 692.616 278.666C693.257 278.005 694.086 277.556 694.991 277.381C704.621 275.511 713.991 274.101 722.991 273.191H723.111C731.954 272.273 740.839 271.806 749.731 271.791C788.161 271.791 821.651 281.021 849.271 299.221C867.047 310.895 882.099 326.264 893.401 344.281C889.551 314.381 867.401 272.131 867.201 271.701C866.838 271.013 866.659 270.244 866.682 269.467C866.706 268.69 866.929 267.933 867.332 267.268C867.735 266.604 868.303 266.055 868.981 265.675C869.659 265.295 870.424 265.097 871.201 265.101C871.744 265.099 872.283 265.197 872.791 265.391C919.701 283.121 951.241 307.821 966.541 338.821C976.623 359.356 979.443 382.705 974.541 405.051C974.537 405.087 974.537 405.124 974.541 405.161C974.341 406.161 974.121 407.041 973.911 407.921C973.695 408.802 973.673 409.719 973.846 410.61C974.018 411.501 974.382 412.344 974.911 413.081C975.415 413.812 976.07 414.426 976.833 414.882C977.596 415.337 978.448 415.624 979.331 415.721C997.626 417.835 1015.36 423.378 1031.6 432.061C1055.77 445.061 1074.73 464.571 1087.94 489.951C1107.58 527.661 1130.94 546.151 1147.09 555.021C1164.53 564.601 1177.54 565.341 1177.66 565.341C1178.34 565.375 1179.01 565.564 1179.61 565.892C1180.2 566.22 1180.72 566.679 1181.12 567.235C1181.51 567.792 1181.77 568.43 1181.89 569.103C1182 569.776 1181.96 570.466 1181.77 571.121C1179.71 577.812 1176.48 584.083 1172.22 589.641C1161.09 604.501 1144.22 615.041 1132.06 621.271C1130.63 622.003 1129.36 623.023 1128.34 624.267C1127.32 625.511 1126.56 626.952 1126.12 628.501C1125.59 630.348 1125.51 632.296 1125.89 634.181C1134.81 678.411 1125.5 718.951 1116.12 745.181C1105.97 773.561 1093.85 791.331 1093.34 792.071C1092.91 792.686 1092.34 793.184 1091.66 793.521C1090.99 793.858 1090.25 794.023 1089.5 794.001Z" fill="#CE44A2"/>
<path id="Vector_33" d="M871.15 269.59C976.48 309.4 976.33 374.8 970 404.23C969.81 405.15 969.6 406.03 969.4 406.87C969.037 408.358 968.994 409.907 969.275 411.413C969.555 412.918 970.152 414.348 971.027 415.605C971.902 416.863 973.034 417.92 974.348 418.707C975.662 419.494 977.128 419.993 978.65 420.17C1002.89 422.97 1054.43 435.63 1083.78 492.01C1123.1 567.53 1177.29 569.82 1177.29 569.82C1175.38 576 1172.39 581.79 1168.45 586.92C1157.64 601.35 1140.95 611.56 1129.84 617.24C1127.86 618.252 1126.1 619.662 1124.69 621.383C1123.27 623.104 1122.23 625.098 1121.62 627.24C1120.89 629.781 1120.78 632.46 1121.31 635.05C1138.18 718.7 1089.46 789.49 1089.46 789.49C1089.46 789.49 1071.19 712.92 1049.96 704.99C1043.54 702.59 1039.12 701.51 1034.96 701.51C1025.27 701.51 1016.66 707.27 987.05 715.97C983.268 717.116 979.341 717.712 975.39 717.74C941.94 717.74 930.33 670.87 930.33 670.87C916.33 615.47 900.15 582.4 884.52 562.38C861.91 533.38 840.52 531.74 828.96 529.21C826.527 528.672 824.042 528.4 821.55 528.4C817.368 528.408 813.221 529.17 809.31 530.65C807.032 531.498 804.692 532.167 802.31 532.65C799.523 533.22 796.685 533.508 793.84 533.51C789.602 533.523 785.391 532.848 781.37 531.51C769.37 527.51 754.18 525.88 738.56 525.88C706 525.88 671.56 532.75 659.88 538.5C658.811 538.99 657.804 539.604 656.88 540.33C645.3 550.15 629.46 617.5 576.1 670.71C539.2 707.54 496.32 719 473.42 722.59C467.989 723.5 462.504 724.041 457 724.21L455 724L444.36 721.78C448.78 745.92 311.14 768.65 309 769C325.85 758.09 336.75 743 342.19 740.16L342.33 740.09C343.107 739.716 343.746 739.107 344.157 738.35C344.567 737.592 344.729 736.724 344.618 735.869C344.507 735.014 344.13 734.216 343.54 733.588C342.949 732.96 342.176 732.534 341.33 732.37C319.73 728.32 301.93 715.16 288.25 700.64C274.954 686.238 263.958 669.873 255.65 652.12C266.829 654.017 278.141 655.021 289.48 655.12C308.8 655.12 320.67 651.47 327.74 647.76C328.796 647.225 329.598 646.294 329.97 645.17C330.183 644.516 330.249 643.823 330.164 643.141C330.079 642.458 329.846 641.803 329.479 641.221C329.113 640.638 328.623 640.144 328.044 639.772C327.465 639.401 326.812 639.161 326.13 639.07C290 634.26 266.28 613.31 251.62 593.63C242.996 582.164 236.196 569.433 231.46 555.89C249.05 561.72 265.22 564.21 280.01 564.21C348.08 564.21 387.01 511.34 401.57 486.43C402.36 485.085 402.819 483.571 402.908 482.014C402.998 480.457 402.717 478.9 402.087 477.473C401.457 476.046 400.496 474.789 399.285 473.807C398.074 472.824 396.646 472.143 395.12 471.82C360.95 464.59 338.5 441.82 323.91 417.56C313.29 399.91 306.82 381.44 303.03 367.56C300.937 360.104 299.32 352.522 298.19 344.86C298.19 344.86 346.44 375.65 416.63 375.65C450.88 375.65 490.34 368.32 531.99 346.51C598.19 311.84 651.99 303.51 688.37 303.51C700.939 303.433 713.487 304.534 725.85 306.8C726.064 306.839 726.282 306.86 726.5 306.86C726.947 306.863 727.39 306.766 727.795 306.575C728.199 306.385 728.557 306.106 728.84 305.76C729.138 305.422 729.359 305.023 729.487 304.591C729.616 304.159 729.649 303.704 729.584 303.258C729.52 302.812 729.359 302.385 729.113 302.007C728.867 301.63 728.542 301.31 728.16 301.07C714.95 292.56 695.84 281.79 695.84 281.79C705.453 279.917 714.643 278.54 723.41 277.66C732.137 276.747 740.905 276.283 749.68 276.27C835.8 276.27 875.54 323.6 890.22 347.77C890.555 348.336 891.017 348.815 891.57 349.17C892.219 349.581 892.972 349.796 893.74 349.79C894.339 349.802 894.933 349.685 895.483 349.447C896.032 349.209 896.524 348.855 896.925 348.411C897.326 347.966 897.627 347.44 897.807 346.869C897.988 346.298 898.043 345.695 897.97 345.1C894.51 313.94 871.12 269.58 871.12 269.58M871.12 260.58C869.566 260.573 868.036 260.969 866.68 261.729C865.325 262.488 864.189 263.586 863.383 264.915C862.577 266.245 862.13 267.76 862.084 269.313C862.038 270.867 862.395 272.406 863.12 273.78C863.29 274.1 876.46 299.26 884.12 324.08C874.71 313.053 863.789 303.411 851.68 295.44C823.32 276.75 789 267.27 749.68 267.27C740.662 267.287 731.65 267.761 722.68 268.69H722.5C713.43 269.61 703.88 271.04 694.12 272.94C692.314 273.293 690.659 274.191 689.379 275.513C688.099 276.835 687.255 278.518 686.961 280.334C686.667 282.151 686.936 284.014 687.734 285.673C688.531 287.331 689.817 288.705 691.42 289.61C691.5 289.66 695.22 291.75 700.42 294.79C696.467 294.59 692.443 294.49 688.35 294.49C665.041 294.642 641.833 297.576 619.22 303.23C589.28 310.53 558.52 322.39 527.79 338.49C492.18 357.14 454.79 366.6 416.61 366.6C349.82 366.6 303.47 337.52 303.01 337.22C301.564 336.301 299.886 335.814 298.173 335.815C296.459 335.817 294.782 336.308 293.338 337.23C291.894 338.152 290.743 339.467 290.021 341.021C289.298 342.574 289.034 344.302 289.26 346C290.439 354.082 292.139 362.078 294.35 369.94C297.98 383.27 304.72 403.16 316.2 422.23C324.83 436.6 335.01 448.66 346.46 458.07C359.996 469.283 376.059 477.033 393.26 480.65C393.417 480.682 393.561 480.762 393.67 480.88C393.794 481.012 393.874 481.18 393.897 481.359C393.92 481.539 393.886 481.721 393.8 481.88C380.91 503.88 344.01 555.2 280.01 555.2C264.448 555.035 249.013 552.382 234.29 547.34C233.378 547.035 232.422 546.88 231.46 546.88C230.051 546.88 228.662 547.211 227.405 547.846C226.148 548.481 225.057 549.402 224.22 550.535C223.384 551.668 222.825 552.982 222.588 554.371C222.352 555.759 222.445 557.184 222.86 558.53C227.89 573.059 235.158 586.713 244.4 599C261.47 621.91 283.4 637.45 308.51 644.58C302.234 645.652 295.876 646.164 289.51 646.11C278.651 646 267.817 645.034 257.11 643.22C256.634 643.141 256.152 643.1 255.67 643.1C254.177 643.101 252.707 643.473 251.393 644.183C250.08 644.893 248.964 645.918 248.145 647.167C247.327 648.416 246.832 649.849 246.705 651.337C246.579 652.825 246.824 654.321 247.42 655.69C256.128 674.403 267.7 691.643 281.72 706.79C296.72 722.73 312.9 733.45 329.9 738.79C328.9 739.79 327.82 740.87 326.67 742.04C320.78 748.04 313.45 755.43 304.15 761.46C302.529 762.516 301.292 764.066 300.622 765.88C299.951 767.695 299.883 769.677 300.427 771.533C300.972 773.389 302.099 775.02 303.643 776.185C305.187 777.35 307.066 777.987 309 778C309.482 777.998 309.963 777.962 310.44 777.89C310.73 777.89 341.08 772.89 372.95 765.13C431.71 750.9 445.13 739.88 450.12 732.82L450.5 732.27L453.15 732.82C453.45 732.88 453.75 732.93 454.05 732.96L456.05 733.17C456.36 733.17 456.68 733.22 456.99 733.22C462.946 733.053 468.883 732.475 474.76 731.49C498.27 727.83 543.54 715.88 582.44 677.09C619.35 640.3 638.44 598.01 651 570.03C655.15 560.82 660.31 549.38 662.66 547.23C663.03 546.99 663.414 546.773 663.81 546.58C673.72 541.7 706.92 534.89 738.52 534.89C754.64 534.89 768.45 536.67 778.45 540.05C783.398 541.705 788.583 542.542 793.8 542.53C797.245 542.539 800.682 542.204 804.06 541.53C806.895 540.953 809.68 540.154 812.39 539.14C817.043 537.337 822.123 536.94 827 538C828.18 538.26 829.4 538.5 830.7 538.75C842 541 859 544.31 877.41 567.92C894.73 590.1 909.59 625.48 921.59 673.08C924.069 682.168 927.769 690.877 932.59 698.97C943.59 717.14 958.37 726.75 975.36 726.75C980.171 726.719 984.953 725.998 989.56 724.61C1002.56 720.79 1011.72 717.48 1018.41 715.06C1026.52 712.13 1030.99 710.52 1034.93 710.52C1037.84 710.52 1041.29 711.36 1046.83 713.43C1047.83 713.79 1056.53 717.93 1069.17 753.13C1076.17 772.57 1080.68 791.4 1080.73 791.59C1081.13 793.283 1082.02 794.822 1083.28 796.022C1084.54 797.221 1086.12 798.03 1087.83 798.35C1088.37 798.45 1088.93 798.5 1089.48 798.5C1090.94 798.499 1092.38 798.144 1093.67 797.464C1094.96 796.785 1096.06 795.802 1096.89 794.6C1097.42 793.84 1109.89 775.6 1120.21 746.68C1129.78 719.92 1139.28 678.52 1130.15 633.28C1129.91 632.103 1129.96 630.885 1130.29 629.73C1130.56 628.773 1131.02 627.882 1131.65 627.113C1132.28 626.345 1133.06 625.718 1133.95 625.27C1146.56 618.82 1164.02 607.88 1175.67 592.33C1180.27 586.35 1183.77 579.598 1186 572.39C1186.4 571.073 1186.49 569.681 1186.27 568.321C1186.05 566.962 1185.52 565.672 1184.72 564.55C1183.93 563.441 1182.89 562.529 1181.68 561.885C1180.48 561.242 1179.14 560.884 1177.78 560.84C1177.09 560.79 1164.89 559.84 1148.65 550.79C1133.2 542.18 1110.81 524.28 1091.84 487.86C1078.21 461.67 1058.63 441.56 1033.65 428.09C1016.9 419.14 998.622 413.423 979.76 411.24C979.508 411.213 979.266 411.132 979.048 411.003C978.831 410.873 978.644 410.698 978.5 410.49C978.349 410.277 978.246 410.033 978.2 409.775C978.153 409.518 978.163 409.253 978.23 409V408.94C978.44 408.08 978.67 407.1 978.88 406.06V405.93C983.989 382.611 981.042 358.249 970.52 336.82C954.7 304.77 922.34 279.32 874.33 261.17C873.314 260.787 872.236 260.59 871.15 260.59L871.12 260.58Z" fill="#17091D"/>
<path id="Vector_34" d="M1089.5 789.5C1089.5 789.5 1071.23 712.93 1050 705C1028.77 697.07 1029.5 703.5 987.001 716C944.501 728.5 930.281 670.9 930.281 670.9C916.281 615.5 900.101 582.43 884.471 562.41C907.341 568.51 949.471 582.35 1011.65 612.75L1047.46 638.52L1077.46 646.52L1121.62 627.27C1120.89 629.811 1120.78 632.49 1121.31 635.08C1138.22 718.71 1089.5 789.5 1089.5 789.5Z" fill="#9C398C"/>
<path id="Vector_35" d="M576.73 580.141L567.52 606.381L546.42 642.601L517.89 675.851L474.55 710.511L465 717.001C454.81 718.591 457 724.211 457 724.211L455 724.001L444.36 721.781C448.78 745.921 311.14 768.651 309 769.001C325.85 758.091 336.75 743.001 342.19 740.161L342.33 740.091C343.107 739.717 343.746 739.108 344.157 738.35C344.567 737.592 344.729 736.724 344.618 735.869C344.507 735.015 344.13 734.216 343.54 733.588C342.95 732.96 342.176 732.534 341.33 732.371C319.73 728.321 301.93 715.161 288.25 700.641C471.63 737.691 576.73 580.141 576.73 580.141Z" fill="#9C398C"/>
<path id="Vector_36" d="M446 552.5C445.19 553.87 394.06 639.75 330 645.17C330.213 644.516 330.28 643.823 330.195 643.141C330.11 642.458 329.876 641.802 329.51 641.22C329.143 640.638 328.653 640.144 328.074 639.772C327.496 639.401 326.842 639.161 326.16 639.07C290.03 634.26 266.31 613.31 251.65 593.63C290.81 602.82 388.14 615.49 446 552.5Z" fill="#9C398C"/>
<path id="Vector_37" d="M523 391C521.33 392.31 441.48 457.95 400.13 474.58C398.775 473.183 397.034 472.222 395.13 471.82C360.96 464.59 338.51 441.82 323.92 417.56C342 423.23 443.19 447.36 523 391Z" fill="#9C398C"/>
<path id="Vector_38" d="M802.321 532.66C795.361 534.127 788.138 533.731 781.381 531.51C744.381 519.02 677.131 529.99 659.891 538.51C670.721 507.42 697.521 444.51 737.171 444.59C776.821 444.67 795.521 503.58 802.321 532.66Z" fill="#9C398C" stroke="#17091D" stroke-width="9" stroke-miterlimit="10"/>
<path id="Vector_39" d="M761.34 318.161H698.34C594.21 321.821 647.5 349.501 482 393.731C378.12 421.501 327.21 392.631 303 367.541C300.907 360.084 299.29 352.502 298.16 344.841C298.16 344.841 405 413.001 532 346.491C627.41 296.491 697.1 301.331 725.86 306.811C726.404 306.94 726.973 306.915 727.503 306.738C728.033 306.561 728.503 306.24 728.86 305.811L761.34 318.161Z" fill="#D969BD"/>
<path id="Vector_40" d="M1177.33 569.83C1175.42 576.01 1172.43 581.8 1168.49 586.93C1120.72 580.65 1096.58 554.27 1052.24 484.93C998.88 401.46 927.08 437.5 926 438L972 413C976 416.76 973.2 415.16 973 416C971.47 422.31 972.54 417.26 979 418C1003.24 420.8 1054.47 435.64 1083.82 492C1123.14 567.54 1177.33 569.83 1177.33 569.83Z" fill="#D969BD"/>
<path id="Vector_41" d="M896.591 398.8C893.181 423.59 875.321 469.15 875.321 469.15C875.321 469.15 875.001 403 837.461 337.43C811.191 291.56 754.891 280.29 723.461 277.67C827.931 266.92 874.171 321.28 890.271 347.78C890.606 348.345 891.068 348.825 891.621 349.18C895.181 366.6 898.251 386.71 896.591 398.8Z" fill="#D969BD"/>
<path id="Vector_42" d="M602.53 382.45C602.53 382.45 539.02 389.83 507.53 453.91C476.04 517.99 459 528 459 528C459 528 520.17 510 534.07 467.51C547.97 425.02 602.53 382.45 602.53 382.45Z" fill="#D969BD"/>
<path id="Vector_43" d="M891.5 579.5C891.5 579.5 951.5 700.5 1075.5 647.5C1075.5 647.5 1016.43 635.41 994.97 588.5" stroke="#17091D" stroke-width="9" stroke-linecap="round" stroke-linejoin="round"/>
<path id="Vector_44" d="M1055.25 606.34C1055.25 606.34 1094.72 636.07 1128.5 622.5" stroke="#17091D" stroke-width="9" stroke-linecap="round" stroke-linejoin="round"/>
<path id="Vector_45" d="M815.581 505.4C815.581 505.4 849.251 383.32 718.381 388.4C587.511 393.48 552.621 523.47 534.061 552.48C515.501 581.49 481.061 681.9 353.781 682.7" stroke="#17091D" stroke-width="9" stroke-linecap="round" stroke-linejoin="round"/>
<path id="Vector_46" d="M595.5 541.5C595.5 541.5 553.08 683.5 449.5 722.5" stroke="#17091D" stroke-width="9" stroke-linecap="round" stroke-linejoin="round"/>
<path id="Vector_47" d="M818.11 398.8C818.11 398.8 828.4 500.06 805.5 532.5" stroke="#17091D" stroke-width="9" stroke-linecap="round" stroke-linejoin="round"/>
<path id="Vector_48" d="M557.26 366.101C557.26 366.101 433.4 470.851 399.5 478.501" stroke="#17091D" stroke-width="9" stroke-linecap="round" stroke-linejoin="round"/>
<path id="Vector_49" d="M891.499 339.5C908.499 395.62 871.619 478.17 871.619 478.17C871.619 478.17 937.259 423 973.499 415.5" stroke="#17091D" stroke-width="9" stroke-linecap="round" stroke-linejoin="round"/>
</g>
</g>
</g>
</svg>
