<svg width="1360" height="1602" viewBox="0 0 1360 1602" fill="none" xmlns="http://www.w3.org/2000/svg">
<g id="Hair 6">
<g id="Head 2">
<g id="1 neck">
<path id="Vector" d="M673.29 1541.5C662.675 1541.51 652.093 1540.33 641.74 1537.98C605.93 1529.84 575.8 1514.98 540.99 1488.22C532.66 1481.8 532.04 1474.78 532.99 1470.01C536.13 1453.91 540.14 1271.41 540.3 1250.77C540.35 1244.63 540.36 1228.71 540.3 1212.03C540.3 1201.03 540.2 1179.92 539.99 1161.93C539.85 1150.34 539.68 1142.93 539.5 1139.23L539.08 1131.02L546.22 1135.09C547.32 1135.72 551.77 1137.88 556.49 1140.16C575.14 1149.16 583.84 1153.59 586.1 1155.75C589.26 1158.32 613.15 1165.86 623.35 1169.07C633.03 1172.07 634.35 1172.58 635.3 1173.14C642.88 1177.75 651.03 1181.19 659.67 1184.83C666.17 1187.57 672.9 1190.41 680.01 1193.98C691.4 1199.7 696.85 1202.25 699.01 1202.25C699.807 1202.19 700.593 1202.03 701.35 1201.78C704.05 1201.06 708.14 1199.96 716.96 1199.96C720.52 1199.96 724.64 1200.14 729.19 1200.5C737.93 1200.59 742.26 1206.24 745.43 1210.38C748.15 1213.92 749.43 1215.38 751.58 1215.38C752.574 1215.35 753.555 1215.14 754.48 1214.78L760.61 1212.59L760.5 1219.1C760.5 1221.44 760.5 1224.89 760.57 1228.81C760.78 1238.35 761.3 1250.02 762 1260.81C762.46 1267.98 763 1299 763.67 1334.93C764.67 1388.56 766.1 1469.54 767.61 1476.17C770.17 1483.99 768.61 1491.63 763.19 1498.27C740.59 1525.84 715.87 1539.07 683.02 1541.16C679.77 1541.39 676.5 1541.5 673.29 1541.5Z" fill="#E68856"/>
<path id="Vector_2" d="M544 1139C547.84 1141.19 579.87 1156 583 1159C587.51 1163.38 631 1175.82 633 1177C646.52 1185.24 661.42 1189.67 678 1198C691.79 1204.92 696 1206.75 699 1206.75C702.42 1206.75 704.43 1204.46 716.94 1204.46C720.19 1204.46 724.13 1204.61 728.94 1205H729.01C741.4 1205 741.83 1219.86 751.52 1219.86C753.052 1219.84 754.569 1219.55 756 1219C756 1221.34 756 1224.75 756.07 1228.89C756.26 1237.47 756.74 1249.2 757.51 1261.12C758.73 1280.12 760.67 1469.53 763.31 1477.52C765.444 1483.95 764.244 1489.92 759.71 1495.44C740.29 1519.13 718.02 1534.44 682.71 1536.69C679.544 1536.9 676.397 1537.01 673.27 1537C662.991 1537.01 652.743 1535.87 642.72 1533.59C604.16 1524.83 574.26 1508.12 543.72 1484.65C538.487 1480.65 536.377 1476.06 537.39 1470.89C540.7 1453.95 544.65 1268.55 544.79 1250.81C544.84 1244.99 544.85 1229.65 544.79 1212.02C544.79 1195.32 544.65 1176.56 544.48 1161.88C544.35 1151.48 544.19 1143.12 543.98 1139M534.15 1123L534.99 1139.42C535.18 1143.04 535.34 1150.42 535.48 1161.95C535.69 1179.95 535.76 1201.02 535.79 1211.95C535.84 1228.58 535.79 1244.49 535.79 1250.64C535.63 1270.71 531.58 1453.64 528.56 1469.07C527.56 1473.97 527.56 1483.46 538.23 1491.69C573.59 1518.86 604.23 1533.99 640.74 1542.28C651.417 1544.7 662.332 1545.92 673.28 1545.91C676.58 1545.91 679.96 1545.8 683.28 1545.58C701.61 1544.41 717.42 1539.92 731.6 1531.83C744.16 1524.68 755.3 1514.89 766.6 1501.06C773 1493.25 774.84 1484.26 771.92 1475.06C770.47 1466.22 769.05 1387.22 768.1 1334.8C767.42 1297.34 766.89 1267.8 766.42 1260.49C765.73 1249.74 765.21 1238.13 765 1228.64C764.91 1224.79 764.89 1221.4 764.93 1219.1L765.15 1206.1L753 1210.53C752.604 1210.68 752.191 1210.79 751.77 1210.85C750.77 1209.86 749.857 1208.79 749.04 1207.64C745.74 1203.33 740.23 1196.14 729.42 1196C724.81 1195.64 720.63 1195.46 716.99 1195.46C707.58 1195.46 703.15 1196.65 700.22 1197.46L699.03 1197.76C696.78 1197.36 687.6 1192.76 682.08 1189.98C674.83 1186.34 668.08 1183.47 661.47 1180.71C652.99 1177.13 644.98 1173.71 637.72 1169.33C636.3 1168.48 634.93 1168.02 624.82 1164.83C616.14 1162.1 593.27 1154.88 588.96 1152.22C586.22 1149.83 579.77 1146.44 558.55 1136.16C554.32 1134.11 549.55 1131.79 548.55 1131.23L534.17 1123H534.15Z" fill="#020201"/>
<path id="Vector_3" d="M757.51 1261.12C744.18 1265.34 730.292 1267.54 716.31 1267.64C676.46 1267.82 635.9 1260.01 600.72 1243.29C583.167 1234.95 567.233 1226.66 552.92 1218.41C550.03 1216.53 547.316 1214.39 544.81 1212.02C544.81 1195.32 544.17 1153.68 544 1139.02C575.84 1156.42 603.23 1200.69 639.48 1212.3C670 1222.06 693 1230 727.61 1230.65C737.13 1230.89 746.652 1230.3 756.07 1228.89C756.26 1237.47 756.74 1249.2 757.51 1261.12Z" fill="#CE6D40"/>
</g>
<g id="1 head">
<g id="head">
<path id="Vector_4" d="M763 1220C759.53 1220.44 782.42 1218.55 781 1221C774.75 1222.62 769.82 1226.5 751.13 1229.43C739.738 1231.17 728.203 1231.8 716.69 1231.3C695.32 1230.45 677.18 1228.3 656.95 1220.23C629.935 1209.45 603.955 1196.25 579.33 1180.77C574.06 1177.45 568.988 1173.82 564.14 1169.91C550.54 1158.95 540.007 1149.97 532.54 1142.97C512.34 1124 497 1099.24 485 1072C489.5 1077.86 493 1085.52 497.13 1091.52C512.27 1113.41 533.35 1134.39 552.08 1148.57C581.76 1171.06 619.17 1187.16 655 1203C679.59 1213.88 690.17 1215.06 720 1216C735.64 1216.5 756.45 1220 763 1220Z" fill="#020201"/>
<g id="face">
<path id="Vector_5" d="M755.131 1229H755.001C657.731 1221.52 581.241 1190.71 527.661 1137.42C494.148 1104.04 470.345 1062.17 458.801 1016.3C452.651 991.09 445.141 965.72 435.801 938.71C433.431 931.86 430.961 924.66 428.441 917.3L427.211 913.74C404.301 846.81 392.001 809.89 390.621 804C387.531 790.62 388.301 738.37 388.331 736.15V736C390.691 679 402.561 628.67 423.601 586.34C440.76 551.469 465.333 520.769 495.601 496.39C520.031 476.75 548.451 460.93 580.071 449.39C634.641 429.5 681.211 428.49 690.001 428.49H690.891C691.671 428.44 694.671 428.28 699.531 428.28C725.531 428.28 792.801 432.55 856.831 472.11C893.46 494.706 923.815 526.155 945.101 563.56C971.541 609.5 986.761 666.48 990.331 732.92C990.791 741.46 989.401 755.98 987.681 772.67L986.931 779.81C984.131 806.68 980.641 840.12 980.821 870.3C981.051 908.5 971.241 969.52 965.371 1002.49C963.131 1015.08 961.521 1023.2 961.501 1023.28V1023.47L961.441 1023.65C948.011 1070.05 929.071 1109.65 905.151 1141.43C885.851 1167.05 863.281 1187.65 838.061 1202.66C794.221 1228.74 756.941 1229 755.371 1229H755.131Z" fill="#E68856"/>
<path id="Vector_6" d="M699.531 432.8C746.321 432.8 970.531 447.73 985.841 733.17C986.271 741.17 984.971 755.1 983.201 772.22C980.291 800.38 976.121 837.17 976.321 870.34C976.551 908.49 966.611 969.85 960.941 1001.71C958.681 1014.4 957.091 1022.41 957.091 1022.41C898.921 1223.28 758.871 1224.54 755.371 1224.54H755.301C532.561 1207.42 476.721 1070.67 463.171 1015.23C456.741 988.88 448.931 962.9 440.101 937.23C437.361 929.23 434.471 920.85 431.521 912.23C414.901 863.83 396.611 810 395.001 803C392.001 790 392.831 736.23 392.831 736.23C395.341 675.65 408.351 627.17 427.631 588.38C503.221 436.28 675.291 433 690.001 433H691.001C691.001 433 694.001 432.8 699.531 432.8ZM699.531 423.8C694.871 423.8 691.831 423.94 690.791 424H690.001C681.081 424 633.811 425 578.561 445.21C546.471 456.91 517.621 473 492.811 492.92C462.022 517.699 437.025 548.911 419.571 584.37C398.251 627.28 386.221 678.24 383.841 735.86V736.09C383.751 741.71 383.091 791.35 386.241 805.02C387.631 811.02 400.011 848.12 423.021 915.2L424.511 919.55C426.941 926.63 429.321 933.55 431.601 940.18C440.851 967.05 448.321 992.29 454.441 1017.36C459.194 1036.64 466.157 1055.31 475.191 1073C487.91 1098.02 504.535 1120.85 524.441 1140.64C549.261 1165.32 579.391 1185.51 613.981 1200.64C654.531 1218.39 701.851 1229.45 754.611 1233.5H754.951H755.371C759.371 1233.5 796.231 1232.74 840.371 1206.5C866.101 1191.19 889.101 1170.2 908.751 1144.11C933.001 1111.91 952.191 1071.8 965.751 1024.87L965.861 1024.5L965.941 1024.12C965.941 1024.04 967.571 1015.88 969.821 1003.25C975.721 970.12 985.571 908.79 985.341 870.25C985.161 840.31 988.641 807.01 991.431 780.25C991.681 777.81 991.931 775.42 992.171 773.1C993.921 756.21 995.321 741.51 994.851 732.64C991.231 665.49 975.851 607.84 949.031 561.29C927.37 523.25 896.489 491.269 859.231 468.29C794.201 428.13 725.891 423.8 699.541 423.8H699.531Z" fill="#020201"/>
<path id="Vector_7" d="M431.52 912.28C414.9 863.83 396.61 810 395 803C392 790 392.83 736.23 392.83 736.23C395.34 675.65 408.35 627.17 427.63 588.38C419.63 618.25 406.09 699.57 438.63 846.94C452 907.59 446 921.56 431.52 912.28Z" fill="#CE6D40"/>
</g>
</g>
<path id="smile" d="M628.282 1014.74C628.515 1014.73 628.745 1014.8 628.932 1014.94C629.124 1015.07 629.262 1015.27 629.322 1015.5C629.401 1015.72 629.401 1015.96 629.322 1016.18C629.236 1016.4 629.082 1016.58 628.882 1016.7L619.882 1021.88C619.146 1022.3 618.595 1022.98 618.339 1023.79C618.083 1024.6 618.142 1025.47 618.502 1026.24C622.862 1035.85 647.912 1049.3 656.952 1053.34C686.377 1066.71 718.236 1073.9 750.552 1074.45C782.172 1074.93 805.952 1074.45 834.202 1063.25C842.002 1060.13 847.522 1056.02 850.762 1050.93C850.892 1050.71 851.079 1050.53 851.302 1050.41C851.53 1050.29 851.784 1050.23 852.042 1050.23C852.301 1050.24 852.553 1050.31 852.772 1050.45C852.997 1050.58 853.186 1050.77 853.322 1050.99L854.072 1052.26C854.543 1053.1 854.749 1054.05 854.662 1055.01C854.573 1055.96 854.189 1056.86 853.562 1057.58C843.802 1068.76 826.252 1074.58 811.562 1077.37C766.102 1085.88 720.659 1082.74 675.232 1067.97C651.94 1060.44 630.568 1047.93 612.602 1031.3C612.357 1031.08 612.071 1030.91 611.762 1030.8C611.442 1030.68 611.1 1030.64 610.762 1030.68C610.435 1030.7 610.117 1030.79 609.832 1030.95C609.543 1031.1 609.29 1031.31 609.092 1031.57L604.522 1037.38C604.343 1037.62 604.095 1037.79 603.812 1037.88C603.53 1037.97 603.224 1037.97 602.942 1037.88C602.664 1037.78 602.429 1037.58 602.273 1037.33C602.117 1037.08 602.05 1036.78 602.082 1036.49C603.052 1023.44 616.302 1015.07 628.282 1014.74Z" fill="#020201"/>
<g id="nose">
<path id="Vector_8" d="M816.822 991.859C807.632 1009.12 782.002 1028 766.882 1027.71C759.598 1027.58 752.422 1025.92 745.816 1022.85C739.21 1019.78 733.319 1015.36 728.522 1009.88C725.202 1006.07 722.932 1002.23 723.272 999.049C723.394 997.919 723.935 996.875 724.788 996.124C725.642 995.373 726.745 994.968 727.882 994.989L776.002 997.779C789.879 998.583 803.774 996.569 816.852 991.859H816.822ZM733.822 1005.05C734.367 1006.3 735.295 1007.35 736.472 1008.05C741.138 1011.23 746.435 1013.37 752.002 1014.32C753.003 1014.5 754.035 1014.33 754.931 1013.85C755.827 1013.37 756.535 1012.6 756.942 1011.67V1011.58C757.079 1011.23 757.134 1010.85 757.102 1010.48C757.082 1010.1 756.972 1009.74 756.782 1009.41C756.602 1009.08 756.349 1008.8 756.042 1008.58C755.743 1008.37 755.402 1008.22 755.042 1008.15L734.482 1004.26C734.383 1004.23 734.28 1004.23 734.182 1004.26C734.085 1004.3 733.999 1004.36 733.932 1004.44C733.86 1004.52 733.814 1004.61 733.802 1004.72C733.774 1004.83 733.777 1004.94 733.812 1005.05H733.822Z" fill="#CE6D40"/>
<path id="Vector_9" d="M733.811 1005.05C733.787 1004.94 733.787 1004.83 733.811 1004.73C733.828 1004.63 733.873 1004.53 733.942 1004.45C734.011 1004.37 734.096 1004.31 734.192 1004.27C734.29 1004.24 734.393 1004.24 734.491 1004.27L755.002 1008.15C755.364 1008.21 755.706 1008.36 756.002 1008.58C756.309 1008.8 756.562 1009.08 756.741 1009.41C756.93 1009.74 757.043 1010.1 757.072 1010.48C757.095 1010.85 757.037 1011.23 756.902 1011.58V1011.67C756.498 1012.6 755.792 1013.37 754.897 1013.85C754.003 1014.33 752.972 1014.5 751.971 1014.32C746.406 1013.38 741.108 1011.25 736.431 1008.09C735.262 1007.38 734.345 1006.31 733.811 1005.05Z" fill="#201116"/>
<path id="Vector_10" d="M790.002 843.999C788.872 845.129 789.122 847.399 789.002 848.999C788.342 857.999 783.372 895.329 790.682 915.289C799.002 937.999 802.302 952.659 815.002 970.999C827.702 989.339 792.842 1022.22 770.422 1025.61C770.422 1025.61 764.602 1029.61 779.302 1029.33C794.002 1029.05 816.882 1013.4 822.442 995.699C828.002 977.999 826.882 974.569 822.442 966.789C818.002 959.009 798.002 923.999 796.002 898.999C794.002 873.999 800.002 852.999 792.002 843.999C791.342 843.249 791.002 842.999 790.002 843.999Z" fill="#020201"/>
</g>
<g id="glasses">
<path id="Vector_11" d="M1021 768C1022.56 769 996.432 766.57 994.002 766C990.392 768 978.522 763.54 974.352 763.36C951.212 762.3 929.995 761.607 910.702 761.28C896.882 761.07 880.052 764.42 870.292 765.28C856.685 766.5 846.798 768.547 840.632 771.42C828.312 777.2 818.598 784.97 811.492 794.73C811.13 795.228 810.819 795.76 810.562 796.32L801.252 816.79C801.039 817.263 800.733 817.688 800.352 818.04C799.966 818.389 799.513 818.658 799.022 818.83C798.534 819 798.017 819.068 797.502 819.03C796.983 818.997 796.477 818.861 796.012 818.63C784.172 812.73 772.138 810.633 759.912 812.34C755.372 812.97 751.662 812.79 747.212 815.44C746.915 815.619 746.585 815.737 746.242 815.789C745.899 815.84 745.549 815.824 745.212 815.74C744.527 815.569 743.935 815.139 743.562 814.54C739.862 808.42 737.302 799.69 734.202 794.73C725.075 780.15 712.882 770.483 697.622 765.73C660.662 754.17 621.389 749.483 579.802 751.67C566.295 752.37 556.792 752.72 551.292 752.72C536.872 752.72 497.392 754.2 493.062 768.23C491.209 774.15 490.105 782.25 489.752 792.53C489.711 793.739 489.801 794.95 490.022 796.14C491.792 806.309 492.957 816.573 493.512 826.88C493.842 834.238 494.758 841.558 496.252 848.77C501.732 875.37 507.065 898.223 512.252 917.33C515.852 931.183 523.004 943.857 533.002 954.1C533.834 954.954 534.775 955.694 535.802 956.3C553.802 966.74 569.549 972.953 583.042 974.94C600.021 977.268 617.157 978.271 634.292 977.94C651.483 977.85 668.432 973.889 683.882 966.35C690.867 962.877 697.168 958.172 702.482 952.46C709.988 944.5 714.928 938.45 717.302 934.31C722.022 926.123 727.742 912.143 734.462 892.37C738.462 880.6 740.392 861.37 741.782 852.44C742.892 845.19 745.962 839.44 752.282 836.67C768.042 829.643 782.105 831.9 794.472 843.44C798.778 847.5 800.865 851.796 800.732 856.33C799.972 877.85 801.085 896.967 804.072 913.68C809.342 943.16 831.072 976.19 864.202 980.68C875.142 982.16 889.745 983.183 908.012 983.75C921.565 984.19 937.472 980.647 955.732 973.12C970.625 967 981.605 955.91 988.672 939.85C996.205 922.75 1002.42 907.063 1007.31 892.79C1007.67 891.746 1007.91 890.666 1008.03 889.57C1008.97 881.248 1011.59 873.204 1015.74 865.93L1013.6 892.4C1006.13 922.09 995.262 950.4 973.702 970.98C972.912 971.74 938.992 1000.98 862.182 987.9C851.749 986.02 839.749 980.61 826.182 971.67C813.002 960 788.402 922.44 795.752 861.18C796.095 858.154 795.66 855.09 794.487 852.28C793.315 849.469 791.444 847.005 789.052 845.12C779.282 837.3 762.332 829.12 748.952 849.53C748.422 850.364 748.102 851.315 748.022 852.3C745.612 884.13 737.932 912.73 720.742 939.89C704.602 965.343 681.478 979.896 651.372 983.55C621.253 987.299 590.69 985.073 561.432 977C537.372 970.38 520.995 956.32 512.302 934.82C496.442 895.58 487.309 852.473 484.902 805.5C484.803 803.777 484.072 802.152 482.848 800.936C481.624 799.72 479.995 798.998 478.272 798.91C464.972 798.31 449.949 800.047 433.202 804.12C432.992 804.12 426.002 809.02 422.202 806.07C416.992 801.98 413.012 796.45 407.782 792.07C406.97 791.401 406.08 790.834 405.132 790.38C401.612 788.71 390.232 787.76 387.002 785.52C385.312 784.36 387.462 778.75 387.622 778.25C389.362 772.47 400.312 767.35 404.472 764.88C405.519 764.253 406.711 763.908 407.932 763.88L423.232 763.31C445.352 763.65 464.559 761.403 480.852 756.57C501.852 750.343 514.249 747.11 518.042 746.87C535.382 745.76 551.792 742.87 569.342 742.81C598.946 742.579 628.532 744.37 657.892 748.17C673.161 750.267 688.149 754.053 702.582 759.46C725.012 767.74 738.682 783.06 745.722 804.53C746.022 805.439 746.667 806.194 747.517 806.633C748.368 807.072 749.357 807.161 750.272 806.88C765.605 802.34 780.249 803.833 794.202 811.36C794.407 811.476 794.636 811.544 794.872 811.56C795.108 811.571 795.343 811.53 795.562 811.44C795.781 811.349 795.979 811.213 796.142 811.04C796.304 810.868 796.421 810.658 796.482 810.43C802.175 791.596 812.605 778.12 827.772 770C843.972 761.333 862.449 756.213 883.202 754.64C914.032 752.27 946.442 753.34 977.972 757.04C983.072 757.6 1016.69 765.29 1021 768ZM482.002 770.38C482.002 769.733 481.858 769.095 481.582 768.51C481.305 767.926 480.902 767.41 480.402 767C479.906 766.588 479.326 766.291 478.702 766.13C478.077 765.975 477.426 765.955 476.792 766.07C455.444 769.932 433.742 771.477 412.062 770.68C411.205 770.638 410.35 770.792 409.562 771.13C408.038 771.772 406.672 772.738 405.558 773.96C404.444 775.183 403.61 776.633 403.112 778.21C402.942 778.672 402.921 779.175 403.052 779.65C403.176 780.126 403.454 780.547 403.842 780.85L424.492 797.05C425.026 797.464 425.655 797.739 426.322 797.85C426.991 797.967 427.68 797.912 428.322 797.69C443.873 792.234 460.474 790.44 476.832 792.45C477.485 792.518 478.146 792.45 478.772 792.25C479.71 791.945 480.529 791.351 481.11 790.554C481.692 789.757 482.008 788.797 482.012 787.81L482.002 770.38Z" fill="#020201"/>
<path id="Vector_12" d="M996.002 765L1012 768C1012.16 768 1020.29 771.12 1020.44 771.22C1023.66 773.22 1025.21 776.22 1025.08 780.22C1024.7 792.486 1024.11 805.153 1023.3 818.22C1019.31 833.848 1016.78 849.813 1015.75 865.91C1011.59 873.19 1008.95 881.245 1008 889.58C1007.88 890.676 1007.64 891.756 1007.28 892.8C1002.38 907.066 996.169 922.753 988.642 939.86C981.582 955.92 970.602 967.01 955.702 973.13C937.469 980.656 921.569 984.2 908.002 983.76C889.736 983.2 875.132 982.176 864.192 980.69C831.042 976.17 809.332 943.14 804.062 913.69C801.069 896.983 799.956 877.866 800.722 856.34C800.862 851.8 798.776 847.503 794.462 843.45C782.089 831.91 768.026 829.653 752.272 836.68C745.952 839.48 742.882 845.2 741.772 852.45C740.382 861.4 738.452 880.61 734.452 892.38C727.746 912.126 722.032 926.096 717.312 934.29C714.946 938.416 710.006 944.466 702.492 952.44C697.179 958.151 690.878 962.857 683.892 966.33C668.443 973.869 651.493 977.83 634.302 977.92C617.167 978.251 600.032 977.248 583.052 974.92C569.532 972.92 553.786 966.706 535.812 956.28C534.786 955.674 533.844 954.934 533.012 954.08C522.993 943.837 515.823 931.155 512.212 917.29C507.052 898.183 501.719 875.33 496.212 848.73C494.718 841.518 493.802 834.198 493.472 826.84C492.923 816.54 491.765 806.282 490.002 796.12C489.782 794.93 489.691 793.719 489.732 792.51C490.092 782.23 491.196 774.13 493.042 768.21C497.372 754.21 536.852 752.7 551.272 752.7C556.772 752.7 566.276 752.35 579.782 751.65C621.369 749.463 660.642 754.15 697.602 765.71C712.856 770.49 725.049 780.156 734.182 794.71C737.282 799.71 739.842 808.4 743.542 814.52C743.918 815.116 744.509 815.546 745.192 815.72C745.529 815.804 745.879 815.82 746.222 815.769C746.565 815.717 746.895 815.599 747.192 815.42C751.642 812.77 755.352 812.95 759.892 812.32C772.126 810.606 784.159 812.703 795.992 818.61C796.457 818.841 796.964 818.977 797.482 819.01C797.997 819.049 798.515 818.981 799.002 818.81C799.494 818.638 799.946 818.369 800.332 818.02C800.714 817.668 801.02 817.243 801.232 816.77L810.542 796.3C810.799 795.74 811.11 795.208 811.472 794.71C818.572 784.95 828.286 777.18 840.612 771.4C846.779 768.526 856.666 766.48 870.272 765.26C880.032 764.39 896.862 761.04 910.682 761.26C929.969 761.593 951.186 762.286 974.332 763.34C978.002 763.52 995.462 764.83 996.002 765ZM547.342 770.92C505.492 781.31 513.342 822.8 514.592 854.56C514.941 864.783 516.342 874.943 518.772 884.88C523.372 903.306 527.999 917.086 532.652 926.22C548.852 957.92 578.272 960.12 610.422 961.57C640.112 962.92 664.742 963.04 686.962 945.43C700.092 935.01 707.792 920.43 714.542 905.54C719.782 893.97 721.642 878.8 724.752 866.06C727.752 853.87 727.002 841.4 727.062 829.27C727.062 823.73 724.746 815.67 720.112 805.09C716.539 797.003 712.272 791.243 707.312 787.81C703.162 784.92 692.742 781.7 677.002 776C675.792 775.56 675.282 775 674.002 775C659.732 774.91 645.682 769.29 631.232 768.57C601.339 767.07 582.449 766.356 574.562 766.43C568.242 766.49 559.169 767.986 547.342 770.92ZM999.222 806.33C996.002 770 906.802 777 883.062 778.36C856.442 779.83 820.582 792.42 816.912 823.13C815.179 837.556 814.276 855.63 814.202 877.35C814.162 892.27 817.926 910.696 825.492 932.63C831.572 950.25 840.842 957.11 858.192 962.8C875.653 968.714 894.282 970.337 912.502 967.53C930.236 964.743 940.362 963.056 942.882 962.47C950.882 960.6 956.472 957.12 961.002 952C976.043 935.224 986.845 915.089 992.502 893.28C994.416 885.946 997.459 872.613 1001.63 853.28C1004.23 841.246 1003.42 825.596 999.222 806.33Z" fill="#501C49"/>
<path id="Vector_13" d="M482.003 770.38V787.81C482.003 788.465 481.863 789.113 481.593 789.71C481.333 790.311 480.944 790.847 480.453 791.28C479.963 791.718 479.387 792.049 478.762 792.25C478.137 792.452 477.476 792.52 476.823 792.45C460.468 790.439 443.87 792.232 428.323 797.69C427.681 797.907 426.996 797.962 426.327 797.85C425.659 797.739 425.029 797.464 424.493 797.05L395.843 779.85C395.455 779.547 395.177 779.126 395.053 778.65C394.92 778.175 394.945 777.67 395.123 777.21C396.423 773.69 398.973 772.21 401.963 771C405.256 770.145 408.594 769.477 411.963 769C435.203 769.68 456.883 769.83 476.793 766.07C477.749 765.886 478.739 766.027 479.606 766.468C480.474 766.91 481.169 767.628 481.583 768.51C481.857 769.095 482.001 769.733 482.003 770.38Z" fill="#501C49"/>
<path id="Vector_14" d="M514.591 854.56C513.381 822.8 505.491 781.31 547.341 770.92C559.175 767.987 568.248 766.49 574.561 766.43C582.448 766.35 601.338 767.063 631.231 768.57C645.681 769.29 675.791 774.57 677.001 775C692.741 780.7 703.161 784.92 707.311 787.81C712.271 791.243 716.538 797.003 720.111 805.09C724.778 815.67 727.095 823.73 727.061 829.27C727.001 841.4 727.701 853.87 724.751 866.06C721.641 878.8 719.751 893.97 714.541 905.54C707.791 920.47 700.091 935 687.001 945.43C664.781 963.04 640.151 962.92 610.461 961.57C578.311 960.12 548.891 957.92 532.691 926.22C528.025 917.093 523.398 903.313 518.811 884.88C516.367 874.945 514.953 864.785 514.591 854.56ZM541.891 779.71C506.001 793.86 522.321 867.15 529.001 897.41C534.511 922.41 544.231 941.24 570.401 948.8C585.249 953.158 600.602 955.559 616.071 955.94C652.381 956.75 682.971 951 701.371 919.02C704.205 914.093 707.718 904.55 711.911 890.39C722.631 854.39 731.811 796.09 682.431 783.84C644.965 774.586 606.229 771.572 567.781 774.92C558.331 775.71 551.471 776 541.891 779.71Z" fill="#020201"/>
<path id="Vector_15" d="M1001 800C997.001 789 1001 778 920.001 776C839.001 774 829.001 793 829.001 793C817.001 805 816.001 813 814.201 824.83C812.401 836.66 814.001 834 811.381 864.83C808.761 895.66 812.001 904 814.001 913C816.001 922 826.001 943 832.751 951.21C839.501 959.42 863.001 970 886.001 970C909.001 970 942.001 972 966.001 949C990.001 926 1000 878 1004 856C1008 834 1005 811 1001 800ZM998.921 856.9C995.131 877.73 985.661 923.19 962.921 944.97C940.181 966.75 908.921 964.85 887.161 964.85C865.401 964.85 843.161 954.85 836.741 947.06C830.321 939.27 820.891 919.4 819.001 910.88C817.111 902.36 814.001 894.43 816.521 865.25C819.041 836.07 817.521 838.58 819.191 827.38C820.861 816.18 821.841 808.6 833.191 797.24C833.191 797.24 842.661 779.24 919.361 781.14C996.061 783.04 992.281 793.45 996.071 803.87C999.861 814.29 1002.71 836.06 998.921 856.9Z" fill="#020201"/>
<path id="Vector_16" d="M1029.7 798.52C1030.65 791.415 1030.65 784.215 1029.7 777.11C1029.12 772.31 1026.14 769.19 1020.76 767.75C1007.89 764.29 997.888 762.274 990.762 761.7L997.002 765C997.162 765 1020.29 771.12 1020.45 771.22C1023.66 773.22 1025.2 776.22 1025.08 780.22C1024.81 789.12 1023.5 798.65 1023 807.97C1022.9 808.77 1021.36 827.08 1019 834.97C1016.59 843.03 1010.61 877.6 1010.61 877.6C1010.61 877.6 1008 909.97 1012.53 896.6C1016.78 884.01 1028.21 808.46 1029.53 799.41L1029.59 799.03C1029.68 798.7 1029.7 798.52 1029.7 798.52Z" fill="#020201"/>
</g>
<g id="ear">
<path id="Vector_17" d="M451.271 845.47C451.271 845.47 397.611 741.33 351.811 798.66C306.011 855.99 342.691 960.79 387.001 991C431.311 1021.21 457.001 984 457.001 984L451.271 845.47Z" fill="#E68856"/>
<path id="Vector_18" d="M409.132 940.159C406.592 928.999 406.662 912.209 421.002 894.999C421.002 894.999 402.002 822.999 371.002 818.999C340.002 814.999 346.132 872.669 352.062 886.329C357.992 899.989 371.062 948.819 391.532 950.409C394.532 950.639 397.172 950.879 399.452 951.109C400.873 951.253 402.307 951.056 403.637 950.535C404.966 950.015 406.153 949.185 407.099 948.116C408.045 947.046 408.722 945.766 409.076 944.383C409.429 942.999 409.448 941.551 409.132 940.159Z" fill="#CE6D40"/>
<path id="Vector_19" d="M409.832 952.06C409.512 951.06 409.042 950.06 408.502 948.89C407.962 947.72 407.442 946.39 407.012 945.1C406.189 942.546 405.57 939.931 405.162 937.28C404.725 934.635 404.505 931.96 404.502 929.28C404.452 927.94 404.562 926.6 404.602 925.28C404.642 923.96 404.812 922.61 405.052 921.28C405.853 915.99 407.441 910.85 409.762 906.03C412.079 901.276 414.964 896.82 418.352 892.76L417.662 895.85C416.162 890 414.322 884.05 412.332 878.24C410.342 872.43 408.132 866.67 405.672 861.04C403.25 855.413 400.482 849.943 397.382 844.66C394.383 839.407 390.771 834.53 386.622 830.13C385.622 829.02 384.472 828.13 383.382 827.08C382.812 826.61 382.212 826.18 381.632 825.73C381.342 825.51 381.062 825.27 380.752 825.07L379.832 824.49C379.243 824.092 378.632 823.728 378.002 823.4L376.062 822.4C374.748 821.85 373.385 821.425 371.992 821.13C369.231 820.464 366.352 820.464 363.592 821.13C362.256 821.485 360.979 822.034 359.802 822.76C358.62 823.522 357.538 824.429 356.582 825.46C354.659 827.678 353.139 830.217 352.092 832.96C351.005 835.782 350.191 838.702 349.662 841.68C348.615 847.74 348.203 853.893 348.432 860.04C348.444 860.315 348.346 860.585 348.159 860.788C347.972 860.992 347.713 861.113 347.437 861.125C347.161 861.137 346.892 861.038 346.688 860.852C346.485 860.665 346.364 860.405 346.352 860.13C345.915 853.847 346.132 847.537 347.002 841.3C347.465 838.124 348.232 834.999 349.292 831.97C350.379 828.838 352.011 825.923 354.112 823.36C355.228 822.062 356.509 820.916 357.922 819.95C359.365 818.99 360.942 818.248 362.602 817.75C365.891 816.81 369.358 816.673 372.712 817.35C374.377 817.646 376.011 818.098 377.592 818.7L379.882 819.7C380.612 820.093 381.32 820.527 382.002 821L383.072 821.63C383.422 821.85 383.742 822.1 384.072 822.34C384.742 822.82 385.422 823.29 386.072 823.79C387.312 824.85 388.612 825.86 389.742 827.03C394.306 831.535 398.314 836.571 401.682 842.03C405.071 847.393 408.12 852.964 410.812 858.71C413.532 864.42 415.982 870.24 418.212 876.13C420.442 882.02 422.492 887.95 424.302 894.13C424.444 894.622 424.468 895.141 424.373 895.645C424.277 896.149 424.064 896.623 423.752 897.03L423.612 897.22C420.586 900.822 418.007 904.777 415.932 909C413.889 913.197 412.486 917.676 411.772 922.29C411.552 923.43 411.512 924.6 411.372 925.75C411.232 926.9 411.222 928.07 411.262 929.24C411.286 933.906 412.004 938.544 413.392 943C413.75 944.083 414.164 945.148 414.632 946.19C415.112 947.27 415.702 948.54 416.172 949.95C416.453 950.79 416.389 951.708 415.993 952.502C415.597 953.295 414.903 953.898 414.062 954.18C413.221 954.461 412.303 954.396 411.51 954.001C410.717 953.605 410.113 952.91 409.832 952.07V952.06Z" fill="#020201"/>
<path id="Vector_20" d="M383.001 932.07C381.382 928.695 379.985 925.218 378.821 921.66C377.607 918.116 376.605 914.503 375.821 910.84C374.197 903.385 373.762 895.721 374.531 888.13C374.999 884.235 375.902 880.405 377.221 876.71C377.591 875.79 377.891 874.84 378.321 873.94L379.601 871.24C380.541 869.471 381.593 867.765 382.751 866.13C383.915 864.488 385.173 862.915 386.521 861.42C387.937 859.965 389.433 858.59 391.001 857.3C394.067 854.748 397.384 852.513 400.901 850.63C402.023 849.995 403.351 849.831 404.594 850.175C405.836 850.52 406.891 851.343 407.526 852.465C408.161 853.587 408.325 854.915 407.981 856.158C407.636 857.4 406.813 858.455 405.691 859.09C405.595 859.151 405.495 859.205 405.391 859.25L405.141 859.37C402.091 860.711 399.186 862.36 396.471 864.29C395.127 865.247 393.839 866.278 392.611 867.38C391.419 868.517 390.294 869.723 389.241 870.99C388.183 872.26 387.208 873.596 386.321 874.99L385.081 877.16C384.661 877.88 384.361 878.66 383.981 879.41C382.599 882.516 381.566 885.766 380.901 889.1C379.667 896.036 379.542 903.125 380.531 910.1C380.989 913.643 381.657 917.156 382.531 920.62C383.388 924.094 384.464 927.511 385.751 930.85V930.9C385.886 931.259 385.878 931.655 385.73 932.009C385.582 932.362 385.304 932.645 384.953 932.8C384.602 932.955 384.206 932.97 383.845 932.841C383.484 932.713 383.185 932.451 383.011 932.11L383.001 932.07Z" fill="#020201"/>
<path id="Vector_21" d="M451.271 845.47C451.271 845.47 424.831 794.16 393.271 783.4C379.851 778.83 365.501 781.57 351.851 798.66C306.001 856 342.691 960.79 387.001 991C431.311 1021.21 457.001 984 457.001 984" stroke="black" stroke-width="7" stroke-linecap="round" stroke-linejoin="round"/>
</g>
<g id="eyebrow">
<path id="Vector_22" d="M534.132 736.87C533.788 736.897 533.444 736.835 533.132 736.69C532.829 736.539 532.569 736.315 532.377 736.037C532.184 735.759 532.066 735.436 532.032 735.1C532.005 734.757 532.066 734.412 532.212 734.1C545.798 705.173 567.465 687.487 597.212 681.04C607.165 678.88 620.692 678.3 637.792 679.3C658.482 680.53 682.392 687.67 695.242 704.2C703.242 714.53 710.362 728.5 706.712 740.57C706.327 741.847 705.454 742.921 704.281 743.558C703.109 744.195 701.733 744.343 700.452 743.97C671.977 735.621 642.632 730.598 613.002 729C600.902 728.333 584.568 729.137 564.002 731.41C556.232 732.26 543.282 736.2 534.132 736.87Z" fill="#201116" stroke="black" stroke-width="7" stroke-miterlimit="10"/>
<path id="Vector_23" d="M973.632 748.43L969.452 748.13C969.365 748.131 969.279 748.11 969.202 748.07C952.002 742.01 935.795 738.757 920.582 738.31C910.402 737.99 896.088 739.053 877.642 741.5C863.398 743.359 849.423 746.883 836.002 752C835.1 752.343 834.103 752.34 833.203 751.991C832.304 751.642 831.566 750.972 831.132 750.11C830.84 749.541 830.693 748.909 830.702 748.27C831.162 728.643 839.715 713.527 856.362 702.92C874.002 691.73 902.942 688.54 922.002 692.4C950.402 698.18 970.842 716.72 976.262 745.4C976.333 745.782 976.316 746.175 976.212 746.55C976.108 746.924 975.919 747.27 975.662 747.56C975.41 747.852 975.091 748.079 974.732 748.22C974.385 748.372 974.009 748.443 973.632 748.43Z" fill="#201116" stroke="black" stroke-width="7" stroke-miterlimit="10"/>
</g>
<g id="eye">
<path id="Vector_24" d="M690.883 858.63C684.223 825.48 662.273 806.87 629.693 804.63C608.233 803.16 588.303 807.07 571.583 821.16C556.173 834.16 555.123 851.51 552.773 870.3C549.713 861.593 548.889 850.863 550.303 838.11C553.716 807.23 570.616 790.527 601.003 788C626.233 785.89 662.333 792 679.923 811.27C690.356 822.69 694.539 837.657 692.473 856.17C692.233 858.477 691.703 859.297 690.883 858.63Z" fill="#020201"/>
<path id="Vector_25" d="M690.883 858.63C689.733 869.43 688.883 881.54 684.763 891.05C674.923 914.043 657.28 928.257 631.833 933.69C613.833 937.54 595.433 931.13 580.833 921.07C564.28 909.69 554.927 892.78 552.773 870.34C555.123 851.55 556.173 834.18 571.583 821.2C588.303 807.11 608.233 803.2 629.693 804.67C662.273 806.87 684.223 825.48 690.883 858.63ZM615.933 807.24C605.243 807.05 594.933 812.29 587.163 821.82C579.393 831.35 575.003 844.36 574.723 858C574.595 864.689 575.516 871.356 577.453 877.76C579.259 883.827 582.116 889.53 585.893 894.61C589.343 899.269 593.735 903.15 598.783 906C603.48 908.63 608.752 910.066 614.133 910.18C624.823 910.37 635.133 905.12 642.903 895.6C650.673 886.08 655.103 873.06 655.343 859.41C655.471 852.725 654.553 846.061 652.623 839.66C650.81 833.591 647.951 827.885 644.173 822.8C640.723 818.145 636.335 814.266 631.293 811.41C626.592 808.783 621.318 807.351 615.933 807.24Z" fill="#FDFAE9"/>
<path id="Vector_26" d="M615.933 807.239C621.319 807.352 626.595 808.791 631.293 811.429C636.336 814.278 640.724 818.155 644.173 822.809C647.95 827.894 650.81 833.6 652.623 839.669C654.552 846.071 655.47 852.735 655.343 859.419C655.103 873.069 650.633 886.089 642.903 895.609C635.173 905.129 624.833 910.379 614.133 910.199C608.75 910.073 603.48 908.631 598.783 905.999C593.735 903.152 589.346 899.271 585.903 894.609C582.118 889.533 579.257 883.829 577.453 877.759C575.516 871.356 574.594 864.688 574.723 857.999C574.963 844.349 579.443 831.329 587.173 821.809C594.903 812.289 605.243 807.049 615.933 807.239ZM636.803 830.079C635.795 830.087 634.802 830.316 633.893 830.749C632.957 831.191 632.12 831.816 631.433 832.589C630.723 833.397 630.17 834.329 629.803 835.339C629.43 836.375 629.241 837.468 629.243 838.569C629.248 840.762 630.059 842.876 631.523 844.509C632.201 845.272 633.032 845.883 633.963 846.302C634.894 846.72 635.902 846.938 636.923 846.939C637.929 846.935 638.923 846.71 639.833 846.279C640.768 845.837 641.604 845.212 642.293 844.439C643.002 843.632 643.555 842.699 643.923 841.689C644.306 840.656 644.495 839.561 644.483 838.459C644.484 836.265 643.672 834.149 642.203 832.519C641.526 831.754 640.695 831.141 639.764 830.721C638.833 830.3 637.824 830.082 636.803 830.079Z" fill="#020201"/>
<path id="Vector_27" d="M644.482 838.46C644.482 833.8 641.012 830.05 636.802 830.08C632.592 830.11 629.212 833.91 629.242 838.57C629.272 843.23 632.712 846.97 636.922 846.94C641.132 846.91 644.512 843.12 644.482 838.46Z" fill="#FDFAE9"/>
</g>
<g id="eye_2">
<path id="Vector_28" d="M944.482 884.4C945.909 870.154 945.979 859.074 944.692 851.16C942.026 834.78 932.652 822.394 916.572 814C915.125 813.25 913.552 812.772 911.932 812.59C892.386 810.364 876.892 811.167 865.452 815C847.539 821 835.052 835.604 827.992 858.81C829.559 823.077 847.402 803.334 881.522 799.58C892.856 798.34 902.039 798.36 909.072 799.64C930.842 803.59 949.002 819.09 952.822 841.76C955.196 855.82 952.416 870.034 944.482 884.4Z" fill="#020201"/>
<path id="Vector_29" d="M944.482 884.4C941.735 893.494 939.105 899.887 936.592 903.58C909.072 944.13 845.242 956.42 830.252 895C827.058 881.887 826.305 869.824 827.992 858.81C835.052 835.604 847.538 821 865.452 815C876.892 811.16 892.385 810.357 911.932 812.59C914.377 813.105 916.751 813.914 919.002 815C935.062 823.39 942.002 834.78 944.692 851.16C945.985 859.054 945.915 870.134 944.482 884.4ZM869.662 819C860.722 819.38 852.352 824.65 846.392 833.66C840.432 842.67 837.392 854.66 837.892 867.04C838.136 873.083 839.254 879.058 841.212 884.78C843.014 890.128 845.698 895.137 849.152 899.6C852.215 903.586 856.091 906.875 860.522 909.25C864.534 911.375 869.034 912.41 873.572 912.25C882.522 911.87 890.892 906.6 896.842 897.59C902.792 888.58 905.842 876.59 905.342 864.21C905.084 858.184 903.959 852.226 902.002 846.52C900.196 841.172 897.509 836.163 894.052 831.7C890.994 827.713 887.121 824.423 882.692 822.05C878.689 819.914 874.197 818.863 869.662 819Z" fill="#FDFAE9"/>
<path id="Vector_30" d="M869.671 819C874.209 818.843 878.708 819.878 882.721 822C887.151 824.373 891.024 827.662 894.081 831.65C897.535 836.128 900.212 841.155 902.001 846.52C903.958 852.242 905.073 858.217 905.311 864.26C905.831 876.62 902.781 888.64 896.821 897.64C890.861 906.64 882.491 911.92 873.551 912.3C869.011 912.458 864.508 911.424 860.491 909.3C856.062 906.927 852.189 903.637 849.131 899.65C845.674 895.187 842.987 890.178 841.181 884.83C839.228 879.111 838.113 873.139 837.871 867.1C837.351 854.73 840.411 842.72 846.361 833.71C852.311 824.7 860.721 819.42 869.671 819ZM895.831 843.83C895.867 842.862 895.708 841.898 895.363 840.993C895.017 840.089 894.493 839.263 893.822 838.566C893.15 837.869 892.345 837.314 891.454 836.936C890.563 836.557 889.604 836.362 888.636 836.362C887.668 836.362 886.71 836.557 885.819 836.936C884.928 837.314 884.123 837.869 883.451 838.566C882.78 839.263 882.255 840.089 881.91 840.993C881.565 841.898 881.405 842.862 881.441 843.83C881.438 844.777 881.625 845.716 881.991 846.59C882.353 847.459 882.879 848.25 883.541 848.92C884.548 849.926 885.831 850.612 887.227 850.889C888.624 851.167 890.071 851.024 891.386 850.48C892.702 849.935 893.826 849.012 894.617 847.829C895.408 846.645 895.831 845.254 895.831 843.83Z" fill="#020201"/>
<path id="Vector_31" d="M888.632 851.07C890.056 851.07 891.448 850.648 892.632 849.856C893.816 849.065 894.739 847.941 895.284 846.625C895.829 845.31 895.971 843.862 895.693 842.465C895.415 841.069 894.73 839.786 893.723 838.779C892.716 837.772 891.433 837.086 890.036 836.808C888.64 836.53 887.192 836.673 885.876 837.218C884.561 837.763 883.436 838.686 882.645 839.87C881.854 841.054 881.432 842.446 881.432 843.87C881.432 845.779 882.19 847.611 883.54 848.961C884.891 850.311 886.722 851.07 888.632 851.07Z" fill="#FDFAE9"/>
</g>
</g>
</g>
<g id="Hair 6_2">
<g id="Hair 6_3">
<path id="Vector_32" d="M397.18 1108.11C376.38 1108.11 362.94 1105.27 356.08 1099.42C288.03 1041.42 238.94 901.92 236.88 896.01C236.71 895.522 236.622 895.008 236.62 894.49C236.618 893.383 237.026 892.315 237.764 891.49C238.502 890.664 239.519 890.141 240.62 890.02L262.11 887.6C237.68 864.34 217.67 828.45 202.55 780.72C195.072 757.141 189.495 733 185.87 708.53C185.791 707.897 185.847 707.254 186.034 706.644C186.222 706.034 186.537 705.471 186.959 704.992C187.38 704.512 187.899 704.128 188.48 703.864C189.061 703.6 189.692 703.463 190.33 703.46C190.844 703.462 191.355 703.55 191.84 703.72L212.41 711C197.14 678.78 180.84 617 179.67 590.24C179.67 589.24 179.67 588.16 179.67 587.07V586.28C179.73 584.46 179.9 582.43 180.18 580.12L180.33 578.96C180.33 578.75 180.33 578.54 180.42 578.32C180.48 577.84 180.55 577.38 180.63 576.89C180.71 576.4 180.75 576.13 180.81 575.75C180.87 575.37 180.94 574.95 181.01 574.53C181.01 574.48 181.07 574.18 181.09 574.1C181.16 573.69 181.23 573.28 181.31 572.87L181.69 570.87C182.13 568.71 182.6 566.57 183.1 564.5C183.21 564 183.34 563.5 183.47 562.92C184.47 558.68 185.81 553.92 187.32 548.92C187.52 548.24 187.73 547.54 187.95 546.84C188.29 545.72 188.64 544.56 189.01 543.4C189.61 541.49 190.24 539.55 190.88 537.62C191.24 536.52 191.61 535.41 191.99 534.31C192.91 531.59 193.93 528.66 195.1 525.31L196.66 520.97L197.48 518.76C198.74 515.32 200.14 511.62 201.73 507.48L201.81 507.27L202.31 506C202.5 505.49 202.7 505 202.89 504.51L204.22 501.15L204.5 500.46C204.59 500.21 204.69 499.96 204.79 499.71L205.05 499.05L206.05 496.55C207.63 492.66 209.16 488.94 210.48 485.81C211.08 484.37 211.62 483.12 212.06 482.08L212.11 481.97L212.44 481.18C212.66 480.69 212.84 480.26 213 479.91L199.59 413.8C199.396 412.851 199.515 411.863 199.93 410.987C200.344 410.111 201.032 409.393 201.89 408.94C202.746 408.482 203.727 408.314 204.687 408.462C205.646 408.61 206.532 409.066 207.21 409.76L235.81 439C235.73 438.66 235.66 438.31 235.6 438C234.92 434.68 234.35 431.06 233.9 427.27C233.9 427.04 233.71 425.68 233.7 425.63L233.55 424.13C233.49 423.59 233.44 423 233.39 422.41C233.28 421.29 233.19 420.08 233.09 418.86C233.04 418.17 232.99 417.47 232.95 416.75C232.89 415.8 232.83 414.81 232.78 413.75V413.57C232.78 413.38 232.78 413.2 232.78 413.01L232.72 411.7V410.94C232.72 410.2 232.66 409.47 232.64 408.72C232.64 408.23 232.64 407.66 232.64 407.09C232.64 406.22 232.64 405.31 232.59 404.38V402.38C232.59 397.88 232.59 393.21 232.76 388.47C232.76 386.8 232.87 385.09 232.97 383.33C233.07 381.57 233.15 379.42 233.27 377.33C235.05 346.65 258.74 311.69 303.69 273.4C324.588 255.766 346.777 239.722 370.07 225.4C370.766 224.987 371.561 224.77 372.37 224.77C373.439 224.773 374.473 225.156 375.286 225.85C376.099 226.544 376.639 227.505 376.81 228.56L377.87 235.17C377.87 235.17 377.93 235.47 377.93 235.52C389.09 201.72 412.44 170.52 447.55 142.52C467.49 126.654 489.27 113.25 512.42 102.6L512.98 102.36C513.509 102.152 514.072 102.043 514.64 102.04C515.471 102.038 516.287 102.266 516.997 102.699C517.707 103.132 518.283 103.754 518.661 104.494C519.039 105.235 519.205 106.066 519.139 106.895C519.074 107.724 518.78 108.518 518.29 109.19C518.15 109.37 518.02 109.57 517.88 109.77C511.02 120.11 504.54 151.77 503.24 167C517.53 148.17 548.3 118.48 549.62 117.21C550.477 116.567 551.536 116.251 552.605 116.319C553.674 116.387 554.685 116.834 555.454 117.581C556.223 118.327 556.7 119.323 556.8 120.39C556.901 121.457 556.617 122.524 556 123.4C554.9 124.63 553.53 130.5 555.58 144.03C577.1 121.96 613.11 103.89 662.8 90.2504C687.744 83.4356 713.142 78.4029 738.8 75.1904H739.29C740.148 75.1909 740.989 75.4368 741.712 75.8992C742.435 76.3616 743.011 77.0212 743.371 77.8001C743.732 78.5791 743.862 79.4448 743.747 80.2954C743.631 81.1459 743.275 81.9457 742.72 82.6004L711.21 119.82C730.57 111.17 752.21 106.82 775.77 106.82C841.47 106.82 911.93 141.11 959.46 169.88C990.384 188.569 1019.84 209.586 1047.57 232.75C1048.21 233.309 1048.68 234.039 1048.93 234.854C1049.17 235.67 1049.18 236.538 1048.95 237.358C1048.72 238.178 1048.26 238.916 1047.63 239.486C1047 240.057 1046.22 240.436 1045.38 240.58L977.78 252.22C978.87 252.5 979.92 252.78 980.96 253.07C981.65 253.25 982.33 253.44 983.02 253.64C986.24 254.53 989.53 255.5 992.75 256.52C993.95 256.9 995.12 257.27 996.28 257.66C997.12 257.93 997.96 258.22 998.81 258.51L1001.07 259.28L1001.85 259.56C1002.64 259.84 1003.35 260.08 1004.04 260.34C1004.91 260.66 1005.73 260.95 1006.54 261.26C1008.63 262.03 1010.86 262.9 1013.11 263.81C1015.36 264.72 1017.42 265.58 1019.52 266.49C1021.62 267.4 1023.72 268.35 1025.76 269.3C1029.76 271.19 1033.76 273.2 1037.68 275.3C1039.57 276.3 1041.49 277.37 1043.37 278.45C1045.09 279.45 1046.89 280.5 1048.87 281.7L1049.02 281.8C1050.08 282.44 1051.14 283.1 1052.17 283.8L1052.45 283.97L1055.45 285.89L1055.73 286.08C1056.73 286.76 1057.79 287.46 1058.8 288.15C1059.81 288.84 1060.96 289.65 1061.99 290.38C1064.2 291.95 1066.51 293.67 1068.85 295.47C1069.46 295.95 1070.05 296.41 1070.64 296.89C1071.5 297.55 1072.33 298.22 1073.17 298.89C1074.01 299.56 1074.61 300.08 1075.34 300.69L1075.81 301.07L1075.97 301.21L1078.52 303.41C1079.12 303.93 1079.69 304.41 1080.25 304.94C1080.81 305.47 1081.35 305.94 1081.9 306.44C1082.45 306.94 1083.27 307.68 1083.98 308.35C1085.67 309.93 1087.44 311.64 1089.19 313.41C1090.04 314.25 1090.88 315.12 1091.72 315.99L1091.92 316.2C1092.69 317.02 1093.47 317.83 1094.23 318.65C1095.17 319.65 1096.1 320.65 1097.01 321.7C1097.92 322.75 1098.67 323.59 1099.47 324.52C1100.27 325.45 1101.09 326.41 1101.88 327.36C1102.67 328.31 1103.31 329.1 1104.01 329.98L1104.27 330.29C1105.02 331.23 1105.76 332.18 1106.5 333.14C1107.24 334.1 1107.95 335.03 1108.67 335.99L1108.89 336.29L1110.8 338.9L1110.98 339.15C1111.63 340.04 1112.26 340.95 1112.89 341.85L1113.14 342.22C1113.73 343.07 1114.31 343.93 1114.88 344.78C1116.07 346.54 1117.33 348.47 1118.58 350.48C1118.93 351.03 1119.27 351.6 1119.58 352.16L1119.65 352.28C1120.58 353.77 1121.55 355.4 1122.65 357.37C1123.21 358.37 1123.76 359.31 1124.31 360.29C1124.86 361.27 1125.31 362.15 1125.85 363.11C1126.49 364.27 1127.14 365.5 1127.77 366.73C1128.27 367.73 1128.77 368.67 1129.24 369.64C1129.63 370.39 1130.01 371.17 1130.38 371.96C1130.66 372.5 1130.92 373.06 1131.19 373.62L1131.28 373.81C1132.5 376.38 1133.57 378.72 1134.54 380.99C1134.83 381.62 1135.12 382.33 1135.42 382.99L1135.56 383.34C1136.19 384.79 1136.85 386.34 1137.56 388.17C1137.87 388.94 1138.2 389.75 1138.56 390.57C1141.16 397.24 1143.56 404.26 1145.64 411.38C1145.83 412.01 1146.02 412.69 1146.22 413.38V413.51C1146.57 414.7 1146.91 415.93 1147.22 417.15C1147.35 417.64 1147.5 418.15 1147.64 418.7C1148.55 422.1 1149.43 425.64 1150.23 429.19V429.39C1150.39 430.13 1150.56 430.86 1150.72 431.59C1151.09 433.28 1151.46 434.99 1151.79 436.69C1152.01 437.69 1152.22 438.8 1152.42 439.87C1152.88 442.22 1153.31 444.63 1153.69 446.96C1153.82 447.68 1153.95 448.47 1154.07 449.27C1154.19 450.07 1154.37 451.09 1154.51 452.02V452.31C1155.3 457.49 1155.98 462.78 1156.51 468.03L1156.78 470.72C1156.78 471.27 1156.88 471.8 1156.93 472.32C1157.03 473.42 1157.13 474.57 1157.23 475.72C1157.95 484.32 1158.38 493.28 1158.5 502.33C1158.5 503.07 1158.5 503.81 1158.5 504.54C1158.85 546.77 1152.5 576.73 1152.2 577.98C1152 578.918 1151.5 579.767 1150.78 580.402C1150.06 581.037 1149.16 581.426 1148.2 581.51H1147.82C1146.92 581.51 1146.04 581.242 1145.3 580.739C1144.55 580.237 1143.98 579.523 1143.64 578.69C1112.04 500.1 1063.64 460.25 999.78 460.25C981 460.25 961.33 463.77 941.31 470.72C940.392 471.046 939.613 471.677 939.104 472.507C938.594 473.337 938.385 474.316 938.51 475.282C938.635 476.248 939.087 477.142 939.792 477.815C940.496 478.488 941.409 478.899 942.38 478.98C977.13 481.82 1025.72 493.72 1059.9 534.29C1085.83 565.06 1098.8 603.76 1097.42 646.2C1096.34 679.58 1086.36 714.29 1070.05 741.45C1059.22 759.45 1055.57 778.56 1059.19 798.19C1060.69 806.798 1063.69 815.076 1068.04 822.65C1068.47 823.331 1068.72 824.116 1068.74 824.922C1068.77 825.728 1068.58 826.527 1068.19 827.234C1067.8 827.942 1067.23 828.533 1066.54 828.946C1065.85 829.358 1065.06 829.578 1064.25 829.58C1063.8 829.583 1063.36 829.515 1062.93 829.38C1027.03 818.38 1004.03 783.91 996.43 729.63C989.19 677.93 944.09 638.93 891.53 638.93C871.573 638.974 852.043 644.708 835.23 655.46C828.835 659.5 822.666 663.887 816.75 668.6C814.95 670.04 813.97 670.89 813.96 670.9C813.13 671.626 812.062 672.021 810.96 672.01C809.976 672.015 809.019 671.691 808.24 671.09C792.573 659.186 775.98 648.553 758.62 639.29C682.75 598.67 615.4 597.5 608 597.5H606.81C605.976 597.495 605.16 597.257 604.453 596.814C603.747 596.37 603.178 595.739 602.81 594.99C569.99 528.65 509.36 504.87 476.14 496.61C475.928 496.552 475.71 496.521 475.49 496.52C475.056 496.547 474.64 496.702 474.295 496.965C473.949 497.229 473.69 497.589 473.55 498C473.375 498.42 473.343 498.885 473.459 499.324C473.575 499.763 473.832 500.152 474.19 500.43C504.26 526.8 547.81 576.55 565.19 596.72C568.394 600.462 570.164 605.221 570.182 610.147C570.2 615.073 568.466 619.845 565.29 623.61C557.92 632.17 545.74 642.37 529.62 642.37C520.42 642.37 511.06 639.01 501.8 632.37C474.75 613.01 430.36 600.37 404.06 594.08C427.47 611.48 469.06 638.72 486.33 649.97C490.097 652.404 492.771 656.206 493.788 660.573C494.805 664.941 494.085 669.533 491.78 673.38L469.71 710.38C467.396 714.264 463.658 717.091 459.292 718.26C454.925 719.43 450.274 718.848 446.33 716.64L417.67 700.59L444.86 729.35C453.108 738.128 457.533 749.822 457.16 761.86C457.155 761.924 457.155 761.987 457.16 762.05L449.69 860.21C449.604 861.342 449.094 862.4 448.261 863.171C447.428 863.943 446.335 864.371 445.2 864.37H444.95C443.774 864.306 442.67 863.783 441.876 862.913C441.081 862.044 440.659 860.897 440.7 859.72C440.83 856.09 439.98 836.02 410.55 797.72C400.55 784.72 389.07 777.81 377.36 777.81C366.69 777.81 356.36 783.67 348.2 794.31C339.44 805.79 333.9 822.12 332.61 840.31C331.468 855.361 331.656 870.483 333.17 885.5C333.17 885.5 333.17 885.6 333.17 885.66C333.24 886.32 333.29 886.99 333.35 887.66C333.453 889.419 333.687 891.167 334.05 892.89C335.28 897.89 336.53 902.66 337.77 907.03C337.77 907.09 337.77 907.15 337.82 907.21C355.29 969.05 381.48 1001.74 413.54 1001.74C434.54 1001.74 450.99 987.74 451.16 987.6C451.708 987.111 452.367 986.764 453.08 986.59C453.793 986.416 454.538 986.419 455.25 986.6C455.958 986.789 456.609 987.147 457.147 987.643C457.686 988.14 458.095 988.76 458.34 989.45L494.34 1091.45C494.556 1092.06 494.639 1092.71 494.583 1093.35C494.526 1093.99 494.332 1094.61 494.013 1095.17C493.694 1095.74 493.258 1096.22 492.735 1096.6C492.211 1096.98 491.613 1097.24 490.98 1097.36C488.69 1097.85 436.74 1108.11 397.18 1108.11Z" fill="#CE44A2"/>
<path id="Vector_33" d="M739.26 79.6602L696.46 130.21L691.93 135.56L691.67 135.87C693.1 134.87 694.55 133.93 696 133.02C720.41 117.58 747.62 111.27 775.74 111.27C900.91 111.27 1044.59 236.1 1044.59 236.1L973.26 248.38L954.53 251.61C957.02 252.08 959.53 252.61 961.92 253.08H962L965.13 253.76L967.35 254.26L969.64 254.79C970.64 255.03 971.72 255.28 972.75 255.54C975.123 256.12 977.457 256.723 979.75 257.35L981.75 257.9C985.017 258.807 988.23 259.757 991.39 260.75L994.85 261.87L997.41 262.73L999.46 263.43L1000.46 263.77L1002.46 264.5L1004.94 265.41C1007.13 266.217 1009.29 267.053 1011.42 267.92C1013.55 268.787 1015.65 269.667 1017.72 270.56C1019.79 271.46 1021.83 272.38 1023.84 273.32C1027.84 275.2 1031.74 277.157 1035.54 279.19C1037.43 280.197 1039.29 281.227 1041.12 282.28C1042.95 283.333 1044.75 284.4 1046.53 285.48C1047.61 286.14 1048.69 286.81 1049.75 287.48L1049.99 287.63L1052.99 289.54L1053.23 289.7L1056.23 291.7C1057.23 292.42 1058.31 293.14 1059.33 293.87C1061.63 295.5 1063.87 297.17 1066.05 298.87C1066.64 299.33 1067.23 299.79 1067.81 300.26C1068.64 300.9 1069.45 301.55 1070.26 302.26C1071.07 302.97 1071.74 303.47 1072.46 304.08L1072.84 304.39L1075.54 306.71C1076.1 307.2 1076.65 307.71 1077.19 308.17L1078.81 309.64C1079.49 310.25 1080.16 310.87 1080.81 311.51C1082.56 313.143 1084.27 314.81 1085.94 316.51C1086.82 317.39 1087.69 318.29 1088.55 319.18C1089.41 320.07 1090.11 320.82 1090.87 321.64C1091.8 322.64 1092.71 323.64 1093.61 324.64C1094.51 325.64 1095.21 326.46 1096 327.38C1096.79 328.3 1097.58 329.23 1098.35 330.16C1099.12 331.09 1099.89 332.04 1100.65 332.98V333.04C1101.39 333.96 1102.11 334.89 1102.83 335.82C1103.55 336.75 1104.29 337.73 1105.01 338.69C1105.73 339.65 1106.43 340.61 1107.12 341.58L1107.19 341.67C1107.84 342.57 1108.48 343.48 1109.11 344.39L1109.28 344.64C1109.87 345.49 1110.45 346.34 1111.01 347.19C1112.27 349.037 1113.48 350.904 1114.65 352.79C1115.02 353.38 1115.38 353.97 1115.74 354.56C1116.74 356.21 1117.74 357.87 1118.74 359.56C1119.29 360.56 1119.83 361.46 1120.36 362.42C1120.89 363.38 1121.36 364.25 1121.87 365.17C1122.52 366.35 1123.15 367.54 1123.76 368.73L1125.21 371.6C1125.6 372.36 1125.97 373.12 1126.33 373.88C1126.63 374.48 1126.92 375.09 1127.21 375.7C1128.32 378.03 1129.39 380.37 1130.4 382.7C1130.75 383.48 1131.08 384.27 1131.4 385.05C1132.08 386.62 1132.72 388.19 1133.34 389.77C1133.66 390.56 1133.97 391.34 1134.27 392.13C1136.94 398.93 1139.27 405.757 1141.27 412.61C1141.48 413.3 1141.68 414 1141.88 414.7C1142.23 415.89 1142.56 417.08 1142.88 418.27C1143.02 418.77 1143.16 419.27 1143.29 419.78C1144.22 423.24 1145.07 426.69 1145.85 430.13C1146.03 430.92 1146.21 431.7 1146.38 432.49C1146.75 434.17 1147.11 435.84 1147.44 437.49C1147.65 438.49 1147.86 439.57 1148.05 440.61C1148.51 442.96 1148.93 445.29 1149.31 447.61C1149.45 448.37 1149.57 449.13 1149.69 449.89C1149.86 450.89 1150.01 451.89 1150.16 452.89C1150.96 458.13 1151.62 463.32 1152.16 468.41L1152.43 471.08C1152.43 471.59 1152.53 472.08 1152.57 472.6C1152.68 473.74 1152.78 474.87 1152.87 475.99C1153.64 485.12 1154.02 493.99 1154.13 502.3C1154.13 503.02 1154.13 503.74 1154.13 504.45C1154.48 546.7 1147.93 576.94 1147.93 576.94C1109.16 480.54 1050.29 455.68 999.93 455.68C977.4 455.68 956.57 460.68 939.98 466.4C930.98 469.51 932.73 482.64 942.17 483.4C975.69 486.14 1023.3 497.59 1056.61 537.12C1113.19 604.27 1094.03 692.97 1066.34 739.06C1038.65 785.15 1064.4 825.01 1064.4 825.01C1022.45 812.18 1006.57 768.44 1001.04 728.94C993.04 671.71 943.8 634.36 891.68 634.36C870.865 634.374 850.491 640.353 832.97 651.59C826.433 655.719 820.127 660.203 814.08 665.02C812.17 666.55 811.15 667.44 811.15 667.44C795.297 655.385 778.503 644.621 760.93 635.25C684.56 594.53 617.6 593 608 593H606.81C573.69 526 513.61 501.3 477.2 492.24C476.631 492.096 476.047 492.022 475.46 492.02C474.105 492.053 472.793 492.495 471.693 493.286C470.594 494.078 469.758 495.183 469.297 496.456C468.836 497.73 468.77 499.114 469.107 500.426C469.445 501.738 470.171 502.917 471.19 503.81C500.95 529.9 543.94 578.98 561.7 599.65C564.219 602.563 565.614 606.281 565.632 610.132C565.651 613.983 564.291 617.714 561.8 620.65C554.93 628.65 543.88 637.85 529.54 637.85C522 637.85 513.54 635.31 504.34 628.71C475.09 607.78 426 594.52 401.44 588.86C401.142 588.79 400.836 588.753 400.53 588.75C399.756 588.77 399.006 589.03 398.385 589.493C397.765 589.956 397.302 590.6 397.062 591.337C396.822 592.073 396.816 592.866 397.045 593.606C397.274 594.346 397.726 594.997 398.34 595.47C420.9 612.58 464.02 640.89 483.8 653.74C486.578 655.554 488.545 658.372 489.291 661.605C490.037 664.837 489.502 668.233 487.8 671.08L465.73 708.08C464.017 710.956 461.249 713.049 458.016 713.914C454.783 714.779 451.34 714.347 448.42 712.71L404.07 688C403.806 687.845 403.506 687.762 403.2 687.76C402.854 687.763 402.515 687.867 402.228 688.06C401.94 688.252 401.715 688.525 401.581 688.845C401.447 689.164 401.409 689.516 401.473 689.856C401.537 690.197 401.699 690.511 401.94 690.76L441.48 732.57C445.169 736.475 448.047 741.072 449.947 746.096C451.847 751.12 452.732 756.472 452.55 761.84L445.08 860C445.25 855.21 443.99 834.12 414 795.06C402.49 780.06 389.54 773.39 377.24 773.39C352.76 773.39 330.85 799.87 328 840.06C326.827 855.38 327.021 870.774 328.58 886.06C328.732 888.746 329.066 891.419 329.58 894.06C330.8 899.027 332.053 903.793 333.34 908.36C355.68 987.52 387.9 1006.29 413.43 1006.29C436.43 1006.29 453.99 991.05 453.99 991.05L489.99 1093.05C489.99 1093.05 436.74 1103.66 397.17 1103.66C380.11 1103.66 365.6 1101.66 358.99 1096.05C291.2 1038.24 242.07 897.31 241.12 894.58L272.7 891.03C206.9 837.47 190.33 708.03 190.33 708.03L221.84 719.24C206.19 693.91 185.5 620.57 184.17 590.15C184.13 589.23 184.13 588.27 184.17 587.27V586.58C184.23 584.76 184.4 582.82 184.65 580.77C184.65 580.49 184.72 580.22 184.75 579.94C184.78 579.66 184.82 579.38 184.87 579.09C184.93 578.62 185 578.16 185.08 577.68C185.16 577.2 185.19 576.95 185.25 576.58C185.31 576.21 185.37 575.82 185.44 575.43C185.44 575.29 185.49 575.14 185.52 575C185.58 574.62 185.65 574.23 185.73 573.85C185.85 573.2 185.98 572.54 186.11 571.85C186.51 569.85 186.963 567.793 187.47 565.68C187.59 565.16 187.71 564.68 187.84 564.13C188.93 559.68 190.22 555.03 191.63 550.31C191.83 549.63 192.04 548.95 192.25 548.31C192.59 547.18 192.94 546.04 193.3 544.91C193.9 543 194.52 541.08 195.15 539.17C195.51 538.08 195.88 536.99 196.25 535.9C197.25 532.9 198.3 529.9 199.34 527L200.43 524L200.91 522.67C201.18 521.95 201.44 521.23 201.7 520.52C203.15 516.58 204.6 512.76 205.99 509.15C206.36 508.22 206.71 507.3 207.07 506.4C207.62 504.99 208.17 503.62 208.7 502.29C208.78 502.07 208.87 501.85 208.96 501.63L209.22 500.97C209.56 500.11 209.89 499.28 210.22 498.47C211.92 494.28 213.42 490.65 214.63 487.77C215.25 486.29 215.8 485.01 216.25 483.96L216.57 483.2L217.68 480.65L204 413L247.93 457.75C247.67 457.43 247.39 457.05 247.08 456.61C246.9 456.34 246.71 456.05 246.51 455.73C246.31 455.41 246.22 455.26 246.07 455C245.92 454.74 245.67 454.3 245.47 453.91V453.86C245.36 453.66 245.26 453.45 245.15 453.23C244.405 451.715 243.738 450.163 243.15 448.58C242.8 447.58 242.44 446.58 242.09 445.4C241.98 445.03 241.87 444.65 241.75 444.26C241.57 443.61 241.38 442.94 241.2 442.26L240.93 441.18C240.83 440.8 240.74 440.41 240.65 440.01C240.43 439.083 240.22 438.113 240.02 437.1C239.4 434.05 238.84 430.61 238.38 426.71C238.32 426.24 238.27 425.76 238.21 425.28C238.21 425.23 238.21 425.18 238.21 425.13C238.16 424.65 238.11 424.13 238.06 423.65C238.01 423.17 237.95 422.54 237.9 421.98C237.79 420.85 237.7 419.68 237.61 418.49C237.56 417.83 237.51 417.15 237.47 416.49C237.41 415.54 237.35 414.57 237.3 413.57C237.3 413.34 237.3 413.12 237.3 412.89C237.3 412.24 237.24 411.58 237.21 410.89C237.18 410.2 237.15 409.39 237.13 408.62C237.13 408.1 237.13 407.56 237.13 407.02C237.13 406.15 237.13 405.26 237.08 404.35C237.08 403.68 237.08 402.99 237.08 402.3C237.08 398.053 237.137 393.487 237.25 388.6C237.25 386.96 237.36 385.28 237.45 383.6C237.53 381.673 237.63 379.693 237.75 377.66C241.86 306.74 372.36 229.31 372.36 229.31L373.42 235.92L373.47 236.2L376.94 257.96C377.2 256.46 377.48 254.96 377.79 253.49C397 159.24 506.35 110.05 514.07 106.68L514.5 106.5L514.01 107.2C504.37 121.72 494.24 177.49 500.13 177.49C500.8 177.49 501.67 176.77 502.77 175.2C502.89 175.02 503.03 174.83 503.16 174.62C504.06 173.25 505.11 171.76 506.29 170.19C519.53 152.55 548.79 124.07 552.59 120.41C548.4 125.11 550.13 139.41 551.59 147.74C551.59 147.93 551.66 148.11 551.69 148.3C552.28 151.63 552.8 153.86 552.8 153.86C600.59 94.7202 739.27 79.6502 739.27 79.6502M739.26 70.6602H738.86C738.62 70.6602 738.39 70.6602 738.15 70.7202C712.288 73.9288 686.691 79.002 661.56 85.9002C615.92 98.4302 581.56 114.74 559.04 134.51C558.78 129.58 559.23 126.96 559.58 126.08C560.655 124.759 561.333 123.16 561.535 121.469C561.737 119.778 561.455 118.064 560.722 116.526C559.989 114.989 558.835 113.691 557.394 112.784C555.952 111.876 554.283 111.397 552.58 111.4C551.194 111.392 549.825 111.703 548.58 112.31C547.93 112.628 547.322 113.024 546.77 113.49L546.27 113.94C544.87 115.29 524.87 134.62 509.58 152C510.01 149.55 510.53 146.94 511.11 144.18C514.25 129.51 518.3 116.97 521.44 112.18L521.66 111.88C522.665 110.544 523.278 108.954 523.43 107.288C523.582 105.623 523.267 103.948 522.521 102.452C521.774 100.956 520.625 99.6969 519.203 98.8169C517.781 97.937 516.142 97.4706 514.47 97.4702C513.228 97.4704 511.999 97.7256 510.86 98.2202L510.49 98.3801C486.947 109.173 464.818 122.815 444.6 139C426.3 153.58 410.88 169.38 398.76 186C390.456 197.258 383.489 209.443 378 222.31C377.413 221.818 376.764 221.404 376.07 221.08C374.741 220.458 373.28 220.17 371.814 220.241C370.348 220.312 368.922 220.741 367.66 221.49C344.124 235.915 321.725 252.119 300.66 269.96C254.74 309.07 230.52 345.1 228.66 377.06C228.54 379.06 228.44 381.13 228.36 383.06C228.28 384.99 228.2 386.85 228.15 388.25C228.01 393.05 227.95 397.78 227.98 402.25V402.32V404.37C227.98 405.29 227.98 406.21 228.03 407.12C228.03 407.66 228.03 408.24 228.03 408.8C228.03 409.6 228.09 410.37 228.12 411.14V411.78C228.12 412.227 228.14 412.667 228.18 413.1V413.74V414C228.23 415 228.3 416.05 228.36 417C228.36 417.69 228.45 418.43 228.51 419.14C228.6 420.37 228.69 421.58 228.81 422.78C228.86 423.37 228.91 423.96 228.98 424.55C228.98 424.98 229.06 425.41 229.11 425.83L210.42 406.7C209.06 405.317 207.29 404.41 205.373 404.115C203.456 403.819 201.495 404.151 199.782 405.06C198.069 405.97 196.696 407.408 195.866 409.161C195.037 410.915 194.796 412.889 195.18 414.79L208.31 479.5C208.2 479.75 208.07 480.05 207.95 480.36L207.89 480.49C207.45 481.49 206.89 482.75 206.33 484.16C205.01 487.3 203.47 491.04 201.88 494.96C201.55 495.77 201.22 496.61 200.88 497.48L200.7 497.93L200.64 498.1C200.53 498.37 200.41 498.65 200.31 498.93L200.05 499.59C199.61 500.69 199.16 501.81 198.71 502.96C198.52 503.44 198.32 503.96 198.13 504.44C197.94 504.92 197.81 505.27 197.64 505.69C197.64 505.8 197.55 505.91 197.51 506.02C195.93 510.14 194.51 513.83 193.26 517.29L193.05 517.88C192.87 518.38 192.68 518.88 192.49 519.39V519.48L192.01 520.81C191.84 521.3 191.66 521.81 191.48 522.29C191.3 522.77 191.11 523.29 190.92 523.84C189.74 527.16 188.72 530.12 187.78 532.84C187.41 533.94 187.03 535.05 186.66 536.17C186 538.17 185.36 540.17 184.77 542.03C184.41 543.16 184.05 544.33 183.7 545.5C183.48 546.21 183.27 546.92 183.06 547.63C181.53 552.73 180.22 557.53 179.16 561.85C179.03 562.36 178.9 562.91 178.77 563.46C178.26 565.57 177.77 567.75 177.34 569.94V570L177.27 570.38C177.17 570.91 177.06 571.44 176.97 571.96C176.88 572.48 176.8 572.81 176.73 573.26C176.73 573.35 176.73 573.43 176.73 573.52V573.68C176.65 574.13 176.58 574.57 176.51 575.02C176.44 575.47 176.39 575.77 176.33 576.16L176.11 577.63C176.11 577.86 176.04 578.1 176.01 578.33V578.51C176.01 578.61 176.01 578.71 176.01 578.82V579.06L175.95 579.57C175.66 581.98 175.48 584.1 175.42 586.07V586.38V586.72C175.42 586.79 175.42 586.86 175.42 586.93C175.42 588.11 175.42 589.27 175.42 590.38C175.85 605.72 181 631.35 189 659C193.272 674.006 198.312 688.782 204.1 703.27L193.36 699.45C191.91 698.933 190.353 698.797 188.835 699.053C187.318 699.31 185.892 699.952 184.693 700.917C183.495 701.882 182.563 703.138 181.989 704.565C181.414 705.993 181.215 707.544 181.41 709.07C185.04 733.821 190.679 758.235 198.27 782.07C205.63 805.3 214.35 826.17 224.19 844.07C231.955 858.521 241.444 871.976 252.45 884.14L240.12 885.53C237.921 885.776 235.889 886.824 234.413 888.473C232.937 890.122 232.121 892.257 232.12 894.47C232.125 895.452 232.284 896.427 232.59 897.36C232.59 897.36 232.59 897.43 232.59 897.47C234.66 903.47 284.14 1044 353.12 1102.83C360.93 1109.49 374.92 1112.59 397.12 1112.59C437.12 1112.59 489.49 1102.25 491.7 1101.81C492.966 1101.56 494.163 1101.04 495.211 1100.28C496.258 1099.53 497.13 1098.56 497.768 1097.43C498.407 1096.31 498.796 1095.06 498.91 1093.78C499.025 1092.49 498.861 1091.2 498.43 1089.98L462.43 987.98C461.942 986.596 461.123 985.353 460.044 984.358C458.965 983.363 457.659 982.647 456.24 982.272C454.822 981.898 453.333 981.876 451.903 982.208C450.474 982.541 449.148 983.218 448.04 984.18C447.91 984.29 432.58 997.18 413.38 997.18C383.56 997.18 358.88 965.66 342.01 906.02C341.991 905.929 341.968 905.839 341.94 905.75C340.72 901.42 339.48 896.75 338.26 891.75C337.957 890.253 337.76 888.735 337.67 887.21C337.62 886.54 337.56 885.87 337.49 885.21C337.49 885.14 337.49 885.06 337.49 884.99C335.994 870.239 335.81 855.384 336.94 840.6C339.29 807.35 356.6 782.29 377.2 782.29C387.46 782.29 397.7 788.56 406.82 800.44C435.92 838.34 436.12 857.52 436.05 859.58C435.965 861.934 436.807 864.228 438.394 865.969C439.981 867.709 442.188 868.758 444.54 868.89H445.05C447.324 868.897 449.515 868.042 451.185 866.499C452.855 864.955 453.878 862.837 454.05 860.57L461.52 762.41C461.52 762.29 461.52 762.16 461.52 762.04C461.925 748.815 457.062 735.971 448 726.33L441.07 719L444.02 720.65C448.986 723.435 454.843 724.17 460.343 722.698C465.842 721.226 470.549 717.663 473.46 712.77L495.53 675.77C498.435 670.926 499.345 665.143 498.067 659.64C496.789 654.138 493.423 649.348 488.68 646.28C475.68 637.83 448.95 620.28 426.59 604.8C449.96 611.6 479.59 622.15 499.07 636.11C509.07 643.29 519.35 646.93 529.51 646.93C543.62 646.93 557.14 639.93 568.59 626.6C572.463 622.016 574.58 616.205 574.563 610.204C574.547 604.203 572.398 598.403 568.5 593.84C552.43 575.15 513.9 531.1 484.24 503.56C517.76 513.56 569.54 538.07 598.71 597.05C599.456 598.553 600.606 599.817 602.032 600.701C603.458 601.584 605.103 602.052 606.78 602.05H608C615.31 602.05 681.63 603.21 756.69 643.27C773.835 652.42 790.221 662.927 805.69 674.69C807.339 675.942 809.37 676.587 811.439 676.516C813.509 676.444 815.49 675.662 817.05 674.3C817.05 674.3 817.98 673.49 819.69 672.12C825.482 667.515 831.517 663.226 837.77 659.27C853.861 648.972 872.556 643.481 891.66 643.44C941.99 643.44 985.17 680.77 992.11 730.27C995.5 754.52 1001.93 775.12 1011.21 791.49C1023.38 812.96 1040.38 827.16 1061.75 833.7C1062.6 833.957 1063.49 834.089 1064.38 834.09C1066 834.09 1067.58 833.654 1068.98 832.827C1070.37 832.001 1071.51 830.815 1072.28 829.395C1073.06 827.975 1073.43 826.372 1073.37 824.756C1073.31 823.139 1072.82 821.569 1071.94 820.21C1067.86 813.021 1065.06 805.173 1063.68 797.02C1060.38 778.62 1063.86 760.71 1074.03 743.77C1090.73 715.98 1100.94 680.47 1102.03 646.36C1103.45 602.78 1090.1 563.03 1063.45 531.36C1028.64 490.05 979.45 477.64 943.99 474.56C963.16 468.03 981.99 464.72 999.89 464.72C1061.73 464.72 1108.73 503.62 1139.58 580.34C1140.25 582.006 1141.4 583.433 1142.89 584.438C1144.38 585.443 1146.13 585.98 1147.93 585.98H1148.69C1150.6 585.81 1152.41 585.034 1153.85 583.763C1155.29 582.493 1156.28 580.796 1156.69 578.92C1156.96 577.64 1163.44 547.22 1163.09 504.48C1163.09 503.74 1163.09 502.99 1163.09 502.25C1162.97 493.1 1162.53 484.03 1161.8 475.3C1161.71 474.2 1161.61 473.04 1161.5 471.88L1161.35 470.3V470.25L1161.22 468.91L1161.08 467.58C1160.53 462.22 1159.84 456.86 1159.08 451.58V451.45C1158.93 450.45 1158.78 449.45 1158.61 448.45C1158.49 447.67 1158.36 446.88 1158.22 446.1C1157.84 443.77 1157.41 441.36 1156.93 438.95C1156.74 437.87 1156.52 436.8 1156.3 435.72C1155.94 433.89 1155.55 432.07 1155.21 430.54L1154.74 428.45L1154.66 428.12C1153.85 424.53 1152.96 420.94 1152.03 417.47C1151.89 416.94 1151.75 416.41 1151.6 415.88C1151.23 414.52 1150.89 413.31 1150.6 412.19C1150.39 411.44 1150.19 410.73 1149.97 410.02C1147.85 402.8 1145.43 395.68 1142.77 388.87C1142.46 388.05 1142.14 387.24 1141.77 386.43C1141.07 384.64 1140.41 383.03 1139.77 381.51L1139.63 381.18C1139.33 380.48 1139.03 379.77 1138.72 379.07C1137.72 376.75 1136.64 374.37 1135.41 371.8C1135.11 371.16 1134.81 370.53 1134.5 369.91C1134.08 369.02 1133.69 368.23 1133.32 367.5L1131.86 364.61C1131.18 363.3 1130.52 362.04 1129.86 360.85C1129.2 359.66 1128.77 358.85 1128.29 357.98C1127.81 357.11 1127.22 356.07 1126.61 354.98C1125.47 352.98 1124.48 351.35 1123.51 349.78C1123.14 349.18 1122.77 348.57 1122.39 347.97C1121.12 345.92 1119.87 343.97 1118.61 342.14C1118.09 341.36 1117.54 340.55 1116.88 339.6L1116.57 339.13L1114.66 336.43L1114.42 336.11C1113.73 335.11 1113.04 334.21 1112.42 333.3V333.25C1111.69 332.25 1110.93 331.25 1110.14 330.25C1109.35 329.25 1108.66 328.34 1107.87 327.36V327.31L1107.77 327.19C1107.02 326.25 1106.25 325.31 1105.48 324.37C1104.71 323.43 1103.99 322.59 1103.03 321.48C1102.21 320.533 1101.39 319.593 1100.57 318.66L1100.5 318.58C1099.44 317.4 1098.5 316.41 1097.66 315.47C1096.82 314.53 1096.08 313.79 1095.27 312.94V312.89C1094.38 311.96 1093.47 311.02 1092.55 310.11C1090.8 308.34 1089.01 306.6 1087.24 304.96C1086.54 304.29 1085.82 303.62 1085.1 302.96L1083.43 301.45C1082.9 300.97 1082.35 300.45 1081.8 300.01L1081.7 299.92L1079.41 297.92L1078.97 297.54L1078.87 297.45L1078.47 297.13C1077.75 296.52 1077.02 295.91 1076.28 295.32C1075.39 294.58 1074.55 293.91 1073.71 293.26C1073.11 292.78 1072.51 292.26 1071.9 291.83C1069.51 289.98 1067.15 288.22 1064.9 286.6C1063.9 285.86 1062.8 285.12 1061.72 284.37H1061.66C1060.66 283.67 1059.6 282.97 1058.55 282.27L1058.43 282.19L1058.24 282.06L1056.03 280.63L1055.26 280.13L1055.02 279.99C1054.99 279.961 1054.95 279.937 1054.91 279.92C1053.91 279.27 1052.85 278.62 1051.81 277.99L1051.49 277.79C1049.49 276.58 1047.69 275.51 1045.97 274.52C1044.07 273.44 1042.12 272.35 1040.15 271.3C1036.21 269.19 1032.15 267.14 1028.02 265.22C1025.95 264.22 1023.81 263.28 1021.68 262.36C1019.55 261.44 1017.35 260.51 1015.16 259.62C1012.97 258.73 1010.62 257.83 1008.47 257.03C1007.63 256.71 1006.78 256.41 1005.92 256.1C1005.22 255.84 1004.51 255.58 1003.79 255.33H1003.73L1003 255.07L1002.72 254.97L1001.9 254.69L1000.67 254.27L998.02 253.38L1046.52 245.03C1048.2 244.74 1049.76 243.98 1051.02 242.838C1052.28 241.697 1053.2 240.221 1053.65 238.581C1054.11 236.942 1054.09 235.206 1053.61 233.576C1053.12 231.945 1052.17 230.487 1050.89 229.37C1049 228 1013.4 197.23 961.76 166C931.35 147.6 901.76 132.92 873.76 122.37C838.38 109.05 805.41 102.29 775.76 102.29C758.825 102.168 741.969 104.602 725.76 109.51L746 85.5901C747.117 84.3148 747.851 82.75 748.117 81.0758C748.383 79.4017 748.172 77.6864 747.506 76.1273C746.84 74.5683 745.748 73.2289 744.355 72.2635C742.961 71.298 741.323 70.7457 739.63 70.6702L739.26 70.6602Z" fill="#17091D"/>
<path id="Vector_34" d="M1147.94 577.001C1091.84 437.511 993.669 447.811 939.939 466.461C930.939 469.571 932.689 482.701 942.129 483.461C975.649 486.201 1023.26 497.651 1056.57 537.181C1113.15 604.331 1093.99 693.031 1066.3 739.121C1038.61 785.211 1064.36 825.071 1064.36 825.071C1022.41 812.241 1006.53 768.501 1001 729.001C989.929 650.001 900.279 608.851 832.929 651.651C826.392 655.78 820.086 660.263 814.039 665.081C812.129 666.611 811.109 667.501 811.109 667.501C795.256 655.446 778.462 644.681 760.889 635.311C739.519 589.221 703.279 507.511 704.189 485.171C704.429 479.271 705.189 470.261 706.719 459.171C710.389 432.871 718.519 395.051 734.789 360.311C748.339 331.381 756.999 323.211 783.999 307.001C856.999 263.131 959.519 252.581 961.999 253.091C1206.88 304.691 1147.94 577.001 1147.94 577.001Z" fill="#D969BD"/>
<path id="Vector_35" d="M490 1093C490 1093 381 1114.73 359 1096C291.21 1038.19 242.08 897.261 241.13 894.531L272.71 890.981C206.91 837.421 190.34 707.981 190.34 707.981L221.85 719.191C206.2 693.861 185.51 620.521 184.18 590.101C184.14 589.181 184.14 588.221 184.18 587.221V586.531C184.24 584.711 184.41 582.771 184.66 580.721C184.66 580.441 184.73 580.171 184.76 579.891C184.79 579.611 184.83 579.331 184.88 579.041C184.94 578.571 185.01 578.111 185.09 577.631C185.17 577.151 185.2 576.901 185.26 576.531C185.32 576.161 185.38 575.771 185.45 575.381C185.45 575.241 185.5 575.091 185.53 574.951C185.59 574.571 185.66 574.181 185.74 573.801C185.86 573.151 185.99 572.491 186.12 571.801C186.52 569.801 186.974 567.744 187.48 565.631C187.6 565.111 187.72 564.631 187.85 564.081C188.94 559.631 190.23 554.981 191.64 550.261C191.84 549.581 192.05 548.901 192.26 548.261C192.6 547.131 192.95 545.991 193.31 544.861C193.91 542.951 194.53 541.031 195.16 539.121C195.52 538.031 195.89 536.941 196.26 535.851C197.26 532.851 198.31 529.851 199.35 526.951L200.44 523.951L200.92 522.621C201.19 521.901 201.45 521.181 201.71 520.471C203.16 516.531 204.61 512.711 206 509.101C206.374 508.174 206.734 507.254 207.08 506.341C207.63 504.931 208.18 503.561 208.71 502.231C208.79 502.011 208.88 501.791 208.97 501.571L209.23 500.911L210.23 498.411C211.93 494.221 213.43 490.591 214.64 487.711C215.26 486.231 215.81 484.951 216.26 483.901L216.58 483.141L217.69 480.591L204 413.001L247.93 457.751C247.67 457.431 247.39 457.051 247.08 456.611C246.9 456.341 246.71 456.051 246.51 455.731C246.31 455.411 246.22 455.261 246.07 455.001L245.47 453.911V453.861L245.15 453.231C244.406 451.715 243.738 450.163 243.15 448.581C242.8 447.581 242.44 446.581 242.09 445.401C241.98 445.031 241.87 444.651 241.75 444.261C241.57 443.611 241.38 442.941 241.2 442.261L240.93 441.181C240.83 440.801 240.74 440.411 240.65 440.011C240.43 439.084 240.22 438.114 240.02 437.101C239.4 434.051 238.84 430.611 238.38 426.711C238.32 426.241 238.27 425.761 238.21 425.281C238.21 425.231 238.21 425.181 238.21 425.131C238.16 424.651 238.11 424.131 238.06 423.651C238.01 423.171 237.95 422.541 237.9 421.981C237.79 420.851 237.69 419.691 237.61 418.491C237.56 417.831 237.51 417.151 237.47 416.491C237.4 415.541 237.35 414.561 237.3 413.571C237.3 413.341 237.3 413.121 237.3 412.891C237.3 412.241 237.24 411.581 237.21 410.891C237.18 410.201 237.15 409.391 237.13 408.621C237.13 408.101 237.13 407.561 237.13 407.021C237.13 406.151 237.13 405.261 237.08 404.351C237.08 403.681 237.08 402.991 237.08 402.301C237.08 398.054 237.137 393.487 237.25 388.601C237.31 386.961 237.37 385.281 237.45 383.601C237.53 381.674 237.63 379.694 237.75 377.661C241.86 306.741 372.36 229.311 372.36 229.311L373.42 235.921L373.15 237.571C370.59 253.371 367.22 273.871 365.21 284.931C364.585 288.902 364.231 292.911 364.15 296.931C364.14 297 364.14 297.071 364.15 297.141C363.34 320.821 366.66 363.331 374.85 386.261C374.85 386.311 374.85 386.351 374.9 386.391C376.166 390.255 377.978 393.919 380.28 397.271C390.28 410.731 401.83 422.361 413.77 429.081H413.84C418.624 431.871 423.866 433.791 429.32 434.751H429.4C432.465 435.176 435.496 435.818 438.47 436.671C440.47 437.351 440.9 437.891 440.7 438.291C440.5 438.691 439.35 439.041 439.17 439.081L438.97 439.181L437.97 439.701C426 445.851 331 496.281 308.5 543.291V543.351C296.17 569.141 286.72 591.441 280.25 611.301C274.12 630.071 270.67 646.651 269.97 661.971C268.53 693.501 276.67 770.121 292.1 807.811C304.24 837.461 322.41 878.011 329.61 893.961C330.291 898.86 331.553 903.66 333.37 908.261C375.83 1058.81 454 991.001 454 991.001L490 1093Z" fill="#9C398C"/>
<path id="Vector_36" d="M514.5 106.5L514.01 107.2C514.01 107.03 514.01 106.85 514.07 106.68L514.5 106.5Z" fill="#D969BD"/>
<path id="Vector_37" d="M739.259 79.6602L696.459 130.21L691.929 135.56C688.929 137.76 686.129 139.87 683.599 141.84C658.689 161.18 645.499 203.5 615.069 266.38C584.639 329.26 582.379 434.5 582.379 434.5C579.895 433.544 577.543 432.277 575.379 430.73C575.352 430.701 575.317 430.68 575.279 430.67C565.963 424.148 557.176 416.902 548.999 409C501.689 360.73 497.879 231.45 502.999 197C502.999 197 504.399 185.56 506.289 170.19C519.529 152.55 548.789 124.07 552.589 120.41C548.399 125.11 550.129 139.41 551.589 147.74C551.589 147.93 551.659 148.11 551.689 148.3C552.279 151.63 552.799 153.86 552.799 153.86C600.579 94.7302 739.259 79.6602 739.259 79.6602Z" fill="#D969BD"/>
<path id="Vector_38" d="M926.84 202.22C926.84 202.22 887.31 152 816.21 158.66C745.11 165.32 727.75 156.13 727.75 156.13C727.75 156.13 775.13 198.81 818.59 188.42C862.05 178.03 926.84 202.22 926.84 202.22Z" fill="#D969BD"/>
<path id="Vector_39" d="M814.221 666.94C814.221 666.94 805.321 589.63 850.911 527.07" stroke="#17091D" stroke-width="9" stroke-linecap="round" stroke-linejoin="round"/>
<path id="Vector_40" d="M772.791 640.31C772.791 640.31 666.941 506.31 723.221 381.39C779.501 256.47 984.501 251.5 984.501 251.5" stroke="#17091D" stroke-width="9" stroke-linecap="round" stroke-linejoin="round"/>
<path id="Vector_41" d="M643 328.23C643 328.23 601.33 463.69 702.9 518.09" stroke="#17091D" stroke-width="9" stroke-linecap="round" stroke-linejoin="round"/>
<path id="Vector_42" d="M624.83 445.45C624.83 445.45 471.34 450.53 503.5 168.5" stroke="#17091D" stroke-width="9" stroke-linecap="round" stroke-linejoin="round"/>
<path id="Vector_43" d="M533.58 426.62C533.58 426.62 382.39 429.35 376.5 233.5" stroke="#17091D" stroke-width="9" stroke-linecap="round" stroke-linejoin="round"/>
<path id="Vector_44" d="M375.5 227.5C375.5 227.5 320.65 422.11 442.57 437.31C442.57 437.31 319.5 497.5 290.5 576.5C269.05 634.93 255 728.73 332.5 894.5" stroke="#17091D" stroke-width="9" stroke-linecap="round" stroke-linejoin="round"/>
<path id="Vector_45" d="M212.5 478.5C212.5 478.5 218.68 539.65 304.5 547.5" stroke="#17091D" stroke-width="9" stroke-linecap="round" stroke-linejoin="round"/>
<path id="Vector_46" d="M204.5 501.5C204.5 501.5 215.5 580.88 281.99 585.19" stroke="#17091D" stroke-width="9" stroke-linecap="round" stroke-linejoin="round"/>
<path id="Vector_47" d="M233.5 434.5C233.5 434.5 247.36 462.5 276.93 472.5" stroke="#17091D" stroke-width="9" stroke-linecap="round" stroke-linejoin="round"/>
<path id="Vector_48" d="M557.501 141.5C557.501 141.5 526.151 170.87 528.331 233.19" stroke="#17091D" stroke-width="9" stroke-linecap="round" stroke-linejoin="round"/>
<path id="Vector_49" d="M719.499 116.5C718.779 116.85 718.069 117.22 717.359 117.6C710.598 121.27 704.274 125.695 698.509 130.79C697.676 131.51 696.846 132.25 696.019 133.01C642.949 181.48 610.189 288.01 610.189 288.01" stroke="#17091D" stroke-width="9" stroke-linecap="round" stroke-linejoin="round"/>
</g>
</g>
</g>
</svg>
