<svg width="1360" height="1602" viewBox="0 0 1360 1602" fill="none" xmlns="http://www.w3.org/2000/svg">
<g id="Hair 8">
<g id="Head 2">
<g id="1 neck">
<path id="Vector" d="M673.29 1541.5C662.675 1541.51 652.093 1540.33 641.74 1537.98C605.93 1529.84 575.8 1514.98 540.99 1488.22C532.66 1481.8 532.04 1474.78 532.99 1470.01C536.13 1453.91 540.14 1271.41 540.3 1250.77C540.35 1244.63 540.36 1228.71 540.3 1212.03C540.3 1201.03 540.2 1179.92 539.99 1161.93C539.85 1150.34 539.68 1142.93 539.5 1139.23L539.08 1131.02L546.22 1135.09C547.32 1135.72 551.77 1137.88 556.49 1140.16C575.14 1149.16 583.84 1153.59 586.1 1155.75C589.26 1158.32 613.15 1165.86 623.35 1169.07C633.03 1172.07 634.35 1172.58 635.3 1173.14C642.88 1177.75 651.03 1181.19 659.67 1184.83C666.17 1187.57 672.9 1190.41 680.01 1193.98C691.4 1199.7 696.85 1202.25 699.01 1202.25C699.807 1202.19 700.593 1202.03 701.35 1201.78C704.05 1201.06 708.14 1199.96 716.96 1199.96C720.52 1199.96 724.64 1200.14 729.19 1200.5C737.93 1200.59 742.26 1206.24 745.43 1210.38C748.15 1213.92 749.43 1215.38 751.58 1215.38C752.574 1215.35 753.555 1215.14 754.48 1214.78L760.61 1212.59L760.5 1219.1C760.5 1221.44 760.5 1224.89 760.57 1228.81C760.78 1238.35 761.3 1250.02 762 1260.81C762.46 1267.98 763 1299 763.67 1334.93C764.67 1388.56 766.1 1469.54 767.61 1476.17C770.17 1483.99 768.61 1491.63 763.19 1498.27C740.59 1525.84 715.87 1539.07 683.02 1541.16C679.77 1541.39 676.5 1541.5 673.29 1541.5Z" fill="#E68856"/>
<path id="Vector_2" d="M544 1139C547.84 1141.19 579.87 1156 583 1159C587.51 1163.38 631 1175.82 633 1177C646.52 1185.24 661.42 1189.67 678 1198C691.79 1204.92 696 1206.75 699 1206.75C702.42 1206.75 704.43 1204.46 716.94 1204.46C720.19 1204.46 724.13 1204.61 728.94 1205H729.01C741.4 1205 741.83 1219.86 751.52 1219.86C753.052 1219.84 754.569 1219.55 756 1219C756 1221.34 756 1224.75 756.07 1228.89C756.26 1237.47 756.74 1249.2 757.51 1261.12C758.73 1280.12 760.67 1469.53 763.31 1477.52C765.444 1483.95 764.244 1489.92 759.71 1495.44C740.29 1519.13 718.02 1534.44 682.71 1536.69C679.544 1536.9 676.397 1537.01 673.27 1537C662.991 1537.01 652.743 1535.87 642.72 1533.59C604.16 1524.83 574.26 1508.12 543.72 1484.65C538.487 1480.65 536.377 1476.06 537.39 1470.89C540.7 1453.95 544.65 1268.55 544.79 1250.81C544.84 1244.99 544.85 1229.65 544.79 1212.02C544.79 1195.32 544.65 1176.56 544.48 1161.88C544.35 1151.48 544.19 1143.12 543.98 1139M534.15 1123L534.99 1139.42C535.18 1143.04 535.34 1150.42 535.48 1161.95C535.69 1179.95 535.76 1201.02 535.79 1211.95C535.84 1228.58 535.79 1244.49 535.79 1250.64C535.63 1270.71 531.58 1453.64 528.56 1469.07C527.56 1473.97 527.56 1483.46 538.23 1491.69C573.59 1518.86 604.23 1533.99 640.74 1542.28C651.417 1544.7 662.332 1545.92 673.28 1545.91C676.58 1545.91 679.96 1545.8 683.28 1545.58C701.61 1544.41 717.42 1539.92 731.6 1531.83C744.16 1524.68 755.3 1514.89 766.6 1501.06C773 1493.25 774.84 1484.26 771.92 1475.06C770.47 1466.22 769.05 1387.22 768.1 1334.8C767.42 1297.34 766.89 1267.8 766.42 1260.49C765.73 1249.74 765.21 1238.13 765 1228.64C764.91 1224.79 764.89 1221.4 764.93 1219.1L765.15 1206.1L753 1210.53C752.604 1210.68 752.191 1210.79 751.77 1210.85C750.77 1209.86 749.857 1208.79 749.04 1207.64C745.74 1203.33 740.23 1196.14 729.42 1196C724.81 1195.64 720.63 1195.46 716.99 1195.46C707.58 1195.46 703.15 1196.65 700.22 1197.46L699.03 1197.76C696.78 1197.36 687.6 1192.76 682.08 1189.98C674.83 1186.34 668.08 1183.47 661.47 1180.71C652.99 1177.13 644.98 1173.71 637.72 1169.33C636.3 1168.48 634.93 1168.02 624.82 1164.83C616.14 1162.1 593.27 1154.88 588.96 1152.22C586.22 1149.83 579.77 1146.44 558.55 1136.16C554.32 1134.11 549.55 1131.79 548.55 1131.23L534.17 1123H534.15Z" fill="#020201"/>
<path id="Vector_3" d="M757.51 1261.12C744.18 1265.34 730.292 1267.54 716.31 1267.64C676.46 1267.82 635.9 1260.01 600.72 1243.29C583.167 1234.95 567.233 1226.66 552.92 1218.41C550.03 1216.53 547.316 1214.39 544.81 1212.02C544.81 1195.32 544.17 1153.68 544 1139.02C575.84 1156.42 603.23 1200.69 639.48 1212.3C670 1222.06 693 1230 727.61 1230.65C737.13 1230.89 746.652 1230.3 756.07 1228.89C756.26 1237.47 756.74 1249.2 757.51 1261.12Z" fill="#CE6D40"/>
</g>
<g id="1 head">
<g id="head">
<path id="Vector_4" d="M763 1220C759.53 1220.44 782.42 1218.55 781 1221C774.75 1222.62 769.82 1226.5 751.13 1229.43C739.738 1231.17 728.203 1231.8 716.69 1231.3C695.32 1230.45 677.18 1228.3 656.95 1220.23C629.935 1209.45 603.955 1196.25 579.33 1180.77C574.06 1177.45 568.988 1173.82 564.14 1169.91C550.54 1158.95 540.007 1149.97 532.54 1142.97C512.34 1124 497 1099.24 485 1072C489.5 1077.86 493 1085.52 497.13 1091.52C512.27 1113.41 533.35 1134.39 552.08 1148.57C581.76 1171.06 619.17 1187.16 655 1203C679.59 1213.88 690.17 1215.06 720 1216C735.64 1216.5 756.45 1220 763 1220Z" fill="#020201"/>
<g id="face">
<path id="Vector_5" d="M755.131 1229H755.001C657.731 1221.52 581.241 1190.71 527.661 1137.42C494.148 1104.04 470.345 1062.17 458.801 1016.3C452.651 991.09 445.141 965.72 435.801 938.71C433.431 931.86 430.961 924.66 428.441 917.3L427.211 913.74C404.301 846.81 392.001 809.89 390.621 804C387.531 790.62 388.301 738.37 388.331 736.15V736C390.691 679 402.561 628.67 423.601 586.34C440.76 551.469 465.333 520.769 495.601 496.39C520.031 476.75 548.451 460.93 580.071 449.39C634.641 429.5 681.211 428.49 690.001 428.49H690.891C691.671 428.44 694.671 428.28 699.531 428.28C725.531 428.28 792.801 432.55 856.831 472.11C893.46 494.706 923.815 526.155 945.101 563.56C971.541 609.5 986.761 666.48 990.331 732.92C990.791 741.46 989.401 755.98 987.681 772.67L986.931 779.81C984.131 806.68 980.641 840.12 980.821 870.3C981.051 908.5 971.241 969.52 965.371 1002.49C963.131 1015.08 961.521 1023.2 961.501 1023.28V1023.47L961.441 1023.65C948.011 1070.05 929.071 1109.65 905.151 1141.43C885.851 1167.05 863.281 1187.65 838.061 1202.66C794.221 1228.74 756.941 1229 755.371 1229H755.131Z" fill="#E68856"/>
<path id="Vector_6" d="M699.531 432.8C746.321 432.8 970.531 447.73 985.841 733.17C986.271 741.17 984.971 755.1 983.201 772.22C980.291 800.38 976.121 837.17 976.321 870.34C976.551 908.49 966.611 969.85 960.941 1001.71C958.681 1014.4 957.091 1022.41 957.091 1022.41C898.921 1223.28 758.871 1224.54 755.371 1224.54H755.301C532.561 1207.42 476.721 1070.67 463.171 1015.23C456.741 988.88 448.931 962.9 440.101 937.23C437.361 929.23 434.471 920.85 431.521 912.23C414.901 863.83 396.611 810 395.001 803C392.001 790 392.831 736.23 392.831 736.23C395.341 675.65 408.351 627.17 427.631 588.38C503.221 436.28 675.291 433 690.001 433H691.001C691.001 433 694.001 432.8 699.531 432.8ZM699.531 423.8C694.871 423.8 691.831 423.94 690.791 424H690.001C681.081 424 633.811 425 578.561 445.21C546.471 456.91 517.621 473 492.811 492.92C462.022 517.699 437.025 548.911 419.571 584.37C398.251 627.28 386.221 678.24 383.841 735.86V736.09C383.751 741.71 383.091 791.35 386.241 805.02C387.631 811.02 400.011 848.12 423.021 915.2L424.511 919.55C426.941 926.63 429.321 933.55 431.601 940.18C440.851 967.05 448.321 992.29 454.441 1017.36C459.194 1036.64 466.157 1055.31 475.191 1073C487.91 1098.02 504.535 1120.85 524.441 1140.64C549.261 1165.32 579.391 1185.51 613.981 1200.64C654.531 1218.39 701.851 1229.45 754.611 1233.5H754.951H755.371C759.371 1233.5 796.231 1232.74 840.371 1206.5C866.101 1191.19 889.101 1170.2 908.751 1144.11C933.001 1111.91 952.191 1071.8 965.751 1024.87L965.861 1024.5L965.941 1024.12C965.941 1024.04 967.571 1015.88 969.821 1003.25C975.721 970.12 985.571 908.79 985.341 870.25C985.161 840.31 988.641 807.01 991.431 780.25C991.681 777.81 991.931 775.42 992.171 773.1C993.921 756.21 995.321 741.51 994.851 732.64C991.231 665.49 975.851 607.84 949.031 561.29C927.37 523.25 896.489 491.269 859.231 468.29C794.201 428.13 725.891 423.8 699.541 423.8H699.531Z" fill="#020201"/>
<path id="Vector_7" d="M431.52 912.28C414.9 863.83 396.61 810 395 803C392 790 392.83 736.23 392.83 736.23C395.34 675.65 408.35 627.17 427.63 588.38C419.63 618.25 406.09 699.57 438.63 846.94C452 907.59 446 921.56 431.52 912.28Z" fill="#CE6D40"/>
</g>
</g>
<path id="smile" d="M628.282 1014.74C628.515 1014.73 628.745 1014.8 628.932 1014.94C629.124 1015.07 629.262 1015.27 629.322 1015.5C629.401 1015.72 629.401 1015.96 629.322 1016.18C629.236 1016.4 629.082 1016.58 628.882 1016.7L619.882 1021.88C619.146 1022.3 618.595 1022.98 618.339 1023.79C618.083 1024.6 618.142 1025.47 618.502 1026.24C622.862 1035.85 647.912 1049.3 656.952 1053.34C686.377 1066.71 718.236 1073.9 750.552 1074.45C782.172 1074.93 805.952 1074.45 834.202 1063.25C842.002 1060.13 847.522 1056.02 850.762 1050.93C850.892 1050.71 851.079 1050.53 851.302 1050.41C851.53 1050.29 851.784 1050.23 852.042 1050.23C852.301 1050.24 852.553 1050.31 852.772 1050.45C852.997 1050.58 853.186 1050.77 853.322 1050.99L854.072 1052.26C854.543 1053.1 854.749 1054.05 854.662 1055.01C854.573 1055.96 854.189 1056.86 853.562 1057.58C843.802 1068.76 826.252 1074.58 811.562 1077.37C766.102 1085.88 720.659 1082.74 675.232 1067.97C651.94 1060.44 630.568 1047.93 612.602 1031.3C612.357 1031.08 612.071 1030.91 611.762 1030.8C611.442 1030.68 611.1 1030.64 610.762 1030.68C610.435 1030.7 610.117 1030.79 609.832 1030.95C609.543 1031.1 609.29 1031.31 609.092 1031.57L604.522 1037.38C604.343 1037.62 604.095 1037.79 603.812 1037.88C603.53 1037.97 603.224 1037.97 602.942 1037.88C602.664 1037.78 602.429 1037.58 602.273 1037.33C602.117 1037.08 602.05 1036.78 602.082 1036.49C603.052 1023.44 616.302 1015.07 628.282 1014.74Z" fill="#020201"/>
<g id="nose">
<path id="Vector_8" d="M816.822 991.859C807.632 1009.12 782.002 1028 766.882 1027.71C759.598 1027.58 752.422 1025.92 745.816 1022.85C739.21 1019.78 733.319 1015.36 728.522 1009.88C725.202 1006.07 722.932 1002.23 723.272 999.049C723.394 997.919 723.935 996.875 724.788 996.124C725.642 995.373 726.745 994.968 727.882 994.989L776.002 997.779C789.879 998.583 803.774 996.569 816.852 991.859H816.822ZM733.822 1005.05C734.367 1006.3 735.295 1007.35 736.472 1008.05C741.138 1011.23 746.435 1013.37 752.002 1014.32C753.003 1014.5 754.035 1014.33 754.931 1013.85C755.827 1013.37 756.535 1012.6 756.942 1011.67V1011.58C757.079 1011.23 757.134 1010.85 757.102 1010.48C757.082 1010.1 756.972 1009.74 756.782 1009.41C756.602 1009.08 756.349 1008.8 756.042 1008.58C755.743 1008.37 755.402 1008.22 755.042 1008.15L734.482 1004.26C734.383 1004.23 734.28 1004.23 734.182 1004.26C734.085 1004.3 733.999 1004.36 733.932 1004.44C733.86 1004.52 733.814 1004.61 733.802 1004.72C733.774 1004.83 733.777 1004.94 733.812 1005.05H733.822Z" fill="#CE6D40"/>
<path id="Vector_9" d="M733.811 1005.05C733.787 1004.94 733.787 1004.83 733.811 1004.73C733.828 1004.63 733.873 1004.53 733.942 1004.45C734.011 1004.37 734.096 1004.31 734.192 1004.27C734.29 1004.24 734.393 1004.24 734.491 1004.27L755.002 1008.15C755.364 1008.21 755.706 1008.36 756.002 1008.58C756.309 1008.8 756.562 1009.08 756.741 1009.41C756.93 1009.74 757.043 1010.1 757.072 1010.48C757.095 1010.85 757.037 1011.23 756.902 1011.58V1011.67C756.498 1012.6 755.792 1013.37 754.897 1013.85C754.003 1014.33 752.972 1014.5 751.971 1014.32C746.406 1013.38 741.108 1011.25 736.431 1008.09C735.262 1007.38 734.345 1006.31 733.811 1005.05Z" fill="#201116"/>
<path id="Vector_10" d="M790.002 843.999C788.872 845.129 789.122 847.399 789.002 848.999C788.342 857.999 783.372 895.329 790.682 915.289C799.002 937.999 802.302 952.659 815.002 970.999C827.702 989.339 792.842 1022.22 770.422 1025.61C770.422 1025.61 764.602 1029.61 779.302 1029.33C794.002 1029.05 816.882 1013.4 822.442 995.699C828.002 977.999 826.882 974.569 822.442 966.789C818.002 959.009 798.002 923.999 796.002 898.999C794.002 873.999 800.002 852.999 792.002 843.999C791.342 843.249 791.002 842.999 790.002 843.999Z" fill="#020201"/>
</g>
<g id="glasses">
<path id="Vector_11" d="M1021 768C1022.56 769 996.432 766.57 994.002 766C990.392 768 978.522 763.54 974.352 763.36C951.212 762.3 929.995 761.607 910.702 761.28C896.882 761.07 880.052 764.42 870.292 765.28C856.685 766.5 846.798 768.547 840.632 771.42C828.312 777.2 818.598 784.97 811.492 794.73C811.13 795.228 810.819 795.76 810.562 796.32L801.252 816.79C801.039 817.263 800.733 817.688 800.352 818.04C799.966 818.389 799.513 818.658 799.022 818.83C798.534 819 798.017 819.068 797.502 819.03C796.983 818.997 796.477 818.861 796.012 818.63C784.172 812.73 772.138 810.633 759.912 812.34C755.372 812.97 751.662 812.79 747.212 815.44C746.915 815.619 746.585 815.737 746.242 815.789C745.899 815.84 745.549 815.824 745.212 815.74C744.527 815.569 743.935 815.139 743.562 814.54C739.862 808.42 737.302 799.69 734.202 794.73C725.075 780.15 712.882 770.483 697.622 765.73C660.662 754.17 621.389 749.483 579.802 751.67C566.295 752.37 556.792 752.72 551.292 752.72C536.872 752.72 497.392 754.2 493.062 768.23C491.209 774.15 490.105 782.25 489.752 792.53C489.711 793.739 489.801 794.95 490.022 796.14C491.792 806.309 492.957 816.573 493.512 826.88C493.842 834.238 494.758 841.558 496.252 848.77C501.732 875.37 507.065 898.223 512.252 917.33C515.852 931.183 523.004 943.857 533.002 954.1C533.834 954.954 534.775 955.694 535.802 956.3C553.802 966.74 569.549 972.953 583.042 974.94C600.021 977.268 617.157 978.271 634.292 977.94C651.483 977.85 668.432 973.889 683.882 966.35C690.867 962.877 697.168 958.172 702.482 952.46C709.988 944.5 714.928 938.45 717.302 934.31C722.022 926.123 727.742 912.143 734.462 892.37C738.462 880.6 740.392 861.37 741.782 852.44C742.892 845.19 745.962 839.44 752.282 836.67C768.042 829.643 782.105 831.9 794.472 843.44C798.778 847.5 800.865 851.796 800.732 856.33C799.972 877.85 801.085 896.967 804.072 913.68C809.342 943.16 831.072 976.19 864.202 980.68C875.142 982.16 889.745 983.183 908.012 983.75C921.565 984.19 937.472 980.647 955.732 973.12C970.625 967 981.605 955.91 988.672 939.85C996.205 922.75 1002.42 907.063 1007.31 892.79C1007.67 891.746 1007.91 890.666 1008.03 889.57C1008.97 881.248 1011.59 873.204 1015.74 865.93L1013.6 892.4C1006.13 922.09 995.262 950.4 973.702 970.98C972.912 971.74 938.992 1000.98 862.182 987.9C851.749 986.02 839.749 980.61 826.182 971.67C813.002 960 788.402 922.44 795.752 861.18C796.095 858.154 795.66 855.09 794.487 852.28C793.315 849.469 791.444 847.005 789.052 845.12C779.282 837.3 762.332 829.12 748.952 849.53C748.422 850.364 748.102 851.315 748.022 852.3C745.612 884.13 737.932 912.73 720.742 939.89C704.602 965.343 681.478 979.896 651.372 983.55C621.253 987.299 590.69 985.073 561.432 977C537.372 970.38 520.995 956.32 512.302 934.82C496.442 895.58 487.309 852.473 484.902 805.5C484.803 803.777 484.072 802.152 482.848 800.936C481.624 799.72 479.995 798.998 478.272 798.91C464.972 798.31 449.949 800.047 433.202 804.12C432.992 804.12 426.002 809.02 422.202 806.07C416.992 801.98 413.012 796.45 407.782 792.07C406.97 791.401 406.08 790.834 405.132 790.38C401.612 788.71 390.232 787.76 387.002 785.52C385.312 784.36 387.462 778.75 387.622 778.25C389.362 772.47 400.312 767.35 404.472 764.88C405.519 764.253 406.711 763.908 407.932 763.88L423.232 763.31C445.352 763.65 464.559 761.403 480.852 756.57C501.852 750.343 514.249 747.11 518.042 746.87C535.382 745.76 551.792 742.87 569.342 742.81C598.946 742.579 628.532 744.37 657.892 748.17C673.161 750.267 688.149 754.053 702.582 759.46C725.012 767.74 738.682 783.06 745.722 804.53C746.022 805.439 746.667 806.194 747.517 806.633C748.368 807.072 749.357 807.161 750.272 806.88C765.605 802.34 780.249 803.833 794.202 811.36C794.407 811.476 794.636 811.544 794.872 811.56C795.108 811.571 795.343 811.53 795.562 811.44C795.781 811.349 795.979 811.213 796.142 811.04C796.304 810.868 796.421 810.658 796.482 810.43C802.175 791.596 812.605 778.12 827.772 770C843.972 761.333 862.449 756.213 883.202 754.64C914.032 752.27 946.442 753.34 977.972 757.04C983.072 757.6 1016.69 765.29 1021 768ZM482.002 770.38C482.002 769.733 481.858 769.095 481.582 768.51C481.305 767.926 480.902 767.41 480.402 767C479.906 766.588 479.326 766.291 478.702 766.13C478.077 765.975 477.426 765.955 476.792 766.07C455.444 769.932 433.742 771.477 412.062 770.68C411.205 770.638 410.35 770.792 409.562 771.13C408.038 771.772 406.672 772.738 405.558 773.96C404.444 775.183 403.61 776.633 403.112 778.21C402.942 778.672 402.921 779.175 403.052 779.65C403.176 780.126 403.454 780.547 403.842 780.85L424.492 797.05C425.026 797.464 425.655 797.739 426.322 797.85C426.991 797.967 427.68 797.912 428.322 797.69C443.873 792.234 460.474 790.44 476.832 792.45C477.485 792.518 478.146 792.45 478.772 792.25C479.71 791.945 480.529 791.351 481.11 790.554C481.692 789.757 482.008 788.797 482.012 787.81L482.002 770.38Z" fill="#020201"/>
<path id="Vector_12" d="M996.002 765L1012 768C1012.16 768 1020.29 771.12 1020.44 771.22C1023.66 773.22 1025.21 776.22 1025.08 780.22C1024.7 792.486 1024.11 805.153 1023.3 818.22C1019.31 833.848 1016.78 849.813 1015.75 865.91C1011.59 873.19 1008.95 881.245 1008 889.58C1007.88 890.676 1007.64 891.756 1007.28 892.8C1002.38 907.066 996.169 922.753 988.642 939.86C981.582 955.92 970.602 967.01 955.702 973.13C937.469 980.656 921.569 984.2 908.002 983.76C889.736 983.2 875.132 982.176 864.192 980.69C831.042 976.17 809.332 943.14 804.062 913.69C801.069 896.983 799.956 877.866 800.722 856.34C800.862 851.8 798.776 847.503 794.462 843.45C782.089 831.91 768.026 829.653 752.272 836.68C745.952 839.48 742.882 845.2 741.772 852.45C740.382 861.4 738.452 880.61 734.452 892.38C727.746 912.126 722.032 926.096 717.312 934.29C714.946 938.416 710.006 944.466 702.492 952.44C697.179 958.151 690.878 962.857 683.892 966.33C668.443 973.869 651.493 977.83 634.302 977.92C617.167 978.251 600.032 977.248 583.052 974.92C569.532 972.92 553.786 966.706 535.812 956.28C534.786 955.674 533.844 954.934 533.012 954.08C522.993 943.837 515.823 931.155 512.212 917.29C507.052 898.183 501.719 875.33 496.212 848.73C494.718 841.518 493.802 834.198 493.472 826.84C492.923 816.54 491.765 806.282 490.002 796.12C489.782 794.93 489.691 793.719 489.732 792.51C490.092 782.23 491.196 774.13 493.042 768.21C497.372 754.21 536.852 752.7 551.272 752.7C556.772 752.7 566.276 752.35 579.782 751.65C621.369 749.463 660.642 754.15 697.602 765.71C712.856 770.49 725.049 780.156 734.182 794.71C737.282 799.71 739.842 808.4 743.542 814.52C743.918 815.116 744.509 815.546 745.192 815.72C745.529 815.804 745.879 815.82 746.222 815.769C746.565 815.717 746.895 815.599 747.192 815.42C751.642 812.77 755.352 812.95 759.892 812.32C772.126 810.606 784.159 812.703 795.992 818.61C796.457 818.841 796.964 818.977 797.482 819.01C797.997 819.049 798.515 818.981 799.002 818.81C799.494 818.638 799.946 818.369 800.332 818.02C800.714 817.668 801.02 817.243 801.232 816.77L810.542 796.3C810.799 795.74 811.11 795.208 811.472 794.71C818.572 784.95 828.286 777.18 840.612 771.4C846.779 768.526 856.666 766.48 870.272 765.26C880.032 764.39 896.862 761.04 910.682 761.26C929.969 761.593 951.186 762.286 974.332 763.34C978.002 763.52 995.462 764.83 996.002 765ZM547.342 770.92C505.492 781.31 513.342 822.8 514.592 854.56C514.941 864.783 516.342 874.943 518.772 884.88C523.372 903.306 527.999 917.086 532.652 926.22C548.852 957.92 578.272 960.12 610.422 961.57C640.112 962.92 664.742 963.04 686.962 945.43C700.092 935.01 707.792 920.43 714.542 905.54C719.782 893.97 721.642 878.8 724.752 866.06C727.752 853.87 727.002 841.4 727.062 829.27C727.062 823.73 724.746 815.67 720.112 805.09C716.539 797.003 712.272 791.243 707.312 787.81C703.162 784.92 692.742 781.7 677.002 776C675.792 775.56 675.282 775 674.002 775C659.732 774.91 645.682 769.29 631.232 768.57C601.339 767.07 582.449 766.356 574.562 766.43C568.242 766.49 559.169 767.986 547.342 770.92ZM999.222 806.33C996.002 770 906.802 777 883.062 778.36C856.442 779.83 820.582 792.42 816.912 823.13C815.179 837.556 814.276 855.63 814.202 877.35C814.162 892.27 817.926 910.696 825.492 932.63C831.572 950.25 840.842 957.11 858.192 962.8C875.653 968.714 894.282 970.337 912.502 967.53C930.236 964.743 940.362 963.056 942.882 962.47C950.882 960.6 956.472 957.12 961.002 952C976.043 935.224 986.845 915.089 992.502 893.28C994.416 885.946 997.459 872.613 1001.63 853.28C1004.23 841.246 1003.42 825.596 999.222 806.33Z" fill="#501C49"/>
<path id="Vector_13" d="M482.003 770.38V787.81C482.003 788.465 481.863 789.113 481.593 789.71C481.333 790.311 480.944 790.847 480.453 791.28C479.963 791.718 479.387 792.049 478.762 792.25C478.137 792.452 477.476 792.52 476.823 792.45C460.468 790.439 443.87 792.232 428.323 797.69C427.681 797.907 426.996 797.962 426.327 797.85C425.659 797.739 425.029 797.464 424.493 797.05L395.843 779.85C395.455 779.547 395.177 779.126 395.053 778.65C394.92 778.175 394.945 777.67 395.123 777.21C396.423 773.69 398.973 772.21 401.963 771C405.256 770.145 408.594 769.477 411.963 769C435.203 769.68 456.883 769.83 476.793 766.07C477.749 765.886 478.739 766.027 479.606 766.468C480.474 766.91 481.169 767.628 481.583 768.51C481.857 769.095 482.001 769.733 482.003 770.38Z" fill="#501C49"/>
<path id="Vector_14" d="M514.591 854.56C513.381 822.8 505.491 781.31 547.341 770.92C559.175 767.987 568.248 766.49 574.561 766.43C582.448 766.35 601.338 767.063 631.231 768.57C645.681 769.29 675.791 774.57 677.001 775C692.741 780.7 703.161 784.92 707.311 787.81C712.271 791.243 716.538 797.003 720.111 805.09C724.778 815.67 727.095 823.73 727.061 829.27C727.001 841.4 727.701 853.87 724.751 866.06C721.641 878.8 719.751 893.97 714.541 905.54C707.791 920.47 700.091 935 687.001 945.43C664.781 963.04 640.151 962.92 610.461 961.57C578.311 960.12 548.891 957.92 532.691 926.22C528.025 917.093 523.398 903.313 518.811 884.88C516.367 874.945 514.953 864.785 514.591 854.56ZM541.891 779.71C506.001 793.86 522.321 867.15 529.001 897.41C534.511 922.41 544.231 941.24 570.401 948.8C585.249 953.158 600.602 955.559 616.071 955.94C652.381 956.75 682.971 951 701.371 919.02C704.205 914.093 707.718 904.55 711.911 890.39C722.631 854.39 731.811 796.09 682.431 783.84C644.965 774.586 606.229 771.572 567.781 774.92C558.331 775.71 551.471 776 541.891 779.71Z" fill="#020201"/>
<path id="Vector_15" d="M1001 800C997.001 789 1001 778 920.001 776C839.001 774 829.001 793 829.001 793C817.001 805 816.001 813 814.201 824.83C812.401 836.66 814.001 834 811.381 864.83C808.761 895.66 812.001 904 814.001 913C816.001 922 826.001 943 832.751 951.21C839.501 959.42 863.001 970 886.001 970C909.001 970 942.001 972 966.001 949C990.001 926 1000 878 1004 856C1008 834 1005 811 1001 800ZM998.921 856.9C995.131 877.73 985.661 923.19 962.921 944.97C940.181 966.75 908.921 964.85 887.161 964.85C865.401 964.85 843.161 954.85 836.741 947.06C830.321 939.27 820.891 919.4 819.001 910.88C817.111 902.36 814.001 894.43 816.521 865.25C819.041 836.07 817.521 838.58 819.191 827.38C820.861 816.18 821.841 808.6 833.191 797.24C833.191 797.24 842.661 779.24 919.361 781.14C996.061 783.04 992.281 793.45 996.071 803.87C999.861 814.29 1002.71 836.06 998.921 856.9Z" fill="#020201"/>
<path id="Vector_16" d="M1029.7 798.52C1030.65 791.415 1030.65 784.215 1029.7 777.11C1029.12 772.31 1026.14 769.19 1020.76 767.75C1007.89 764.29 997.888 762.274 990.762 761.7L997.002 765C997.162 765 1020.29 771.12 1020.45 771.22C1023.66 773.22 1025.2 776.22 1025.08 780.22C1024.81 789.12 1023.5 798.65 1023 807.97C1022.9 808.77 1021.36 827.08 1019 834.97C1016.59 843.03 1010.61 877.6 1010.61 877.6C1010.61 877.6 1008 909.97 1012.53 896.6C1016.78 884.01 1028.21 808.46 1029.53 799.41L1029.59 799.03C1029.68 798.7 1029.7 798.52 1029.7 798.52Z" fill="#020201"/>
</g>
<g id="ear">
<path id="Vector_17" d="M451.271 845.47C451.271 845.47 397.611 741.33 351.811 798.66C306.011 855.99 342.691 960.79 387.001 991C431.311 1021.21 457.001 984 457.001 984L451.271 845.47Z" fill="#E68856"/>
<path id="Vector_18" d="M409.132 940.159C406.592 928.999 406.662 912.209 421.002 894.999C421.002 894.999 402.002 822.999 371.002 818.999C340.002 814.999 346.132 872.669 352.062 886.329C357.992 899.989 371.062 948.819 391.532 950.409C394.532 950.639 397.172 950.879 399.452 951.109C400.873 951.253 402.307 951.056 403.637 950.535C404.966 950.015 406.153 949.185 407.099 948.116C408.045 947.046 408.722 945.766 409.076 944.383C409.429 942.999 409.448 941.551 409.132 940.159Z" fill="#CE6D40"/>
<path id="Vector_19" d="M409.832 952.06C409.512 951.06 409.042 950.06 408.502 948.89C407.962 947.72 407.442 946.39 407.012 945.1C406.189 942.546 405.57 939.931 405.162 937.28C404.725 934.635 404.505 931.96 404.502 929.28C404.452 927.94 404.562 926.6 404.602 925.28C404.642 923.96 404.812 922.61 405.052 921.28C405.853 915.99 407.441 910.85 409.762 906.03C412.079 901.276 414.964 896.82 418.352 892.76L417.662 895.85C416.162 890 414.322 884.05 412.332 878.24C410.342 872.43 408.132 866.67 405.672 861.04C403.25 855.413 400.482 849.943 397.382 844.66C394.383 839.407 390.771 834.53 386.622 830.13C385.622 829.02 384.472 828.13 383.382 827.08C382.812 826.61 382.212 826.18 381.632 825.73C381.342 825.51 381.062 825.27 380.752 825.07L379.832 824.49C379.243 824.092 378.632 823.728 378.002 823.4L376.062 822.4C374.748 821.85 373.385 821.425 371.992 821.13C369.231 820.464 366.352 820.464 363.592 821.13C362.256 821.485 360.979 822.034 359.802 822.76C358.62 823.522 357.538 824.429 356.582 825.46C354.659 827.678 353.139 830.217 352.092 832.96C351.005 835.782 350.191 838.702 349.662 841.68C348.615 847.74 348.203 853.893 348.432 860.04C348.444 860.315 348.346 860.585 348.159 860.788C347.972 860.992 347.713 861.113 347.437 861.125C347.161 861.137 346.892 861.038 346.688 860.852C346.485 860.665 346.364 860.405 346.352 860.13C345.915 853.847 346.132 847.537 347.002 841.3C347.465 838.124 348.232 834.999 349.292 831.97C350.379 828.838 352.011 825.923 354.112 823.36C355.228 822.062 356.509 820.916 357.922 819.95C359.365 818.99 360.942 818.248 362.602 817.75C365.891 816.81 369.358 816.673 372.712 817.35C374.377 817.646 376.011 818.098 377.592 818.7L379.882 819.7C380.612 820.093 381.32 820.527 382.002 821L383.072 821.63C383.422 821.85 383.742 822.1 384.072 822.34C384.742 822.82 385.422 823.29 386.072 823.79C387.312 824.85 388.612 825.86 389.742 827.03C394.306 831.535 398.314 836.571 401.682 842.03C405.071 847.393 408.12 852.964 410.812 858.71C413.532 864.42 415.982 870.24 418.212 876.13C420.442 882.02 422.492 887.95 424.302 894.13C424.444 894.622 424.468 895.141 424.373 895.645C424.277 896.149 424.064 896.623 423.752 897.03L423.612 897.22C420.586 900.822 418.007 904.777 415.932 909C413.889 913.197 412.486 917.676 411.772 922.29C411.552 923.43 411.512 924.6 411.372 925.75C411.232 926.9 411.222 928.07 411.262 929.24C411.286 933.906 412.004 938.544 413.392 943C413.75 944.083 414.164 945.148 414.632 946.19C415.112 947.27 415.702 948.54 416.172 949.95C416.453 950.79 416.389 951.708 415.993 952.502C415.597 953.295 414.903 953.898 414.062 954.18C413.221 954.461 412.303 954.396 411.51 954.001C410.717 953.605 410.113 952.91 409.832 952.07V952.06Z" fill="#020201"/>
<path id="Vector_20" d="M383.001 932.07C381.382 928.695 379.985 925.218 378.821 921.66C377.607 918.116 376.605 914.503 375.821 910.84C374.197 903.385 373.762 895.721 374.531 888.13C374.999 884.235 375.902 880.405 377.221 876.71C377.591 875.79 377.891 874.84 378.321 873.94L379.601 871.24C380.541 869.471 381.593 867.765 382.751 866.13C383.915 864.488 385.173 862.915 386.521 861.42C387.937 859.965 389.433 858.59 391.001 857.3C394.067 854.748 397.384 852.513 400.901 850.63C402.023 849.995 403.351 849.831 404.594 850.175C405.836 850.52 406.891 851.343 407.526 852.465C408.161 853.587 408.325 854.915 407.981 856.158C407.636 857.4 406.813 858.455 405.691 859.09C405.595 859.151 405.495 859.205 405.391 859.25L405.141 859.37C402.091 860.711 399.186 862.36 396.471 864.29C395.127 865.247 393.839 866.278 392.611 867.38C391.419 868.517 390.294 869.723 389.241 870.99C388.183 872.26 387.208 873.596 386.321 874.99L385.081 877.16C384.661 877.88 384.361 878.66 383.981 879.41C382.599 882.516 381.566 885.766 380.901 889.1C379.667 896.036 379.542 903.125 380.531 910.1C380.989 913.643 381.657 917.156 382.531 920.62C383.388 924.094 384.464 927.511 385.751 930.85V930.9C385.886 931.259 385.878 931.655 385.73 932.009C385.582 932.362 385.304 932.645 384.953 932.8C384.602 932.955 384.206 932.97 383.845 932.841C383.484 932.713 383.185 932.451 383.011 932.11L383.001 932.07Z" fill="#020201"/>
<path id="Vector_21" d="M451.271 845.47C451.271 845.47 424.831 794.16 393.271 783.4C379.851 778.83 365.501 781.57 351.851 798.66C306.001 856 342.691 960.79 387.001 991C431.311 1021.21 457.001 984 457.001 984" stroke="black" stroke-width="7" stroke-linecap="round" stroke-linejoin="round"/>
</g>
<g id="eyebrow">
<path id="Vector_22" d="M534.132 736.87C533.788 736.897 533.444 736.835 533.132 736.69C532.829 736.539 532.569 736.315 532.377 736.037C532.184 735.759 532.066 735.436 532.032 735.1C532.005 734.757 532.066 734.412 532.212 734.1C545.798 705.173 567.465 687.487 597.212 681.04C607.165 678.88 620.692 678.3 637.792 679.3C658.482 680.53 682.392 687.67 695.242 704.2C703.242 714.53 710.362 728.5 706.712 740.57C706.327 741.847 705.454 742.921 704.281 743.558C703.109 744.195 701.733 744.343 700.452 743.97C671.977 735.621 642.632 730.598 613.002 729C600.902 728.333 584.568 729.137 564.002 731.41C556.232 732.26 543.282 736.2 534.132 736.87Z" fill="#201116" stroke="black" stroke-width="7" stroke-miterlimit="10"/>
<path id="Vector_23" d="M973.632 748.43L969.452 748.13C969.365 748.131 969.279 748.11 969.202 748.07C952.002 742.01 935.795 738.757 920.582 738.31C910.402 737.99 896.088 739.053 877.642 741.5C863.398 743.359 849.423 746.883 836.002 752C835.1 752.343 834.103 752.34 833.203 751.991C832.304 751.642 831.566 750.972 831.132 750.11C830.84 749.541 830.693 748.909 830.702 748.27C831.162 728.643 839.715 713.527 856.362 702.92C874.002 691.73 902.942 688.54 922.002 692.4C950.402 698.18 970.842 716.72 976.262 745.4C976.333 745.782 976.316 746.175 976.212 746.55C976.108 746.924 975.919 747.27 975.662 747.56C975.41 747.852 975.091 748.079 974.732 748.22C974.385 748.372 974.009 748.443 973.632 748.43Z" fill="#201116" stroke="black" stroke-width="7" stroke-miterlimit="10"/>
</g>
<g id="eye">
<path id="Vector_24" d="M690.883 858.63C684.223 825.48 662.273 806.87 629.693 804.63C608.233 803.16 588.303 807.07 571.583 821.16C556.173 834.16 555.123 851.51 552.773 870.3C549.713 861.593 548.889 850.863 550.303 838.11C553.716 807.23 570.616 790.527 601.003 788C626.233 785.89 662.333 792 679.923 811.27C690.356 822.69 694.539 837.657 692.473 856.17C692.233 858.477 691.703 859.297 690.883 858.63Z" fill="#020201"/>
<path id="Vector_25" d="M690.883 858.63C689.733 869.43 688.883 881.54 684.763 891.05C674.923 914.043 657.28 928.257 631.833 933.69C613.833 937.54 595.433 931.13 580.833 921.07C564.28 909.69 554.927 892.78 552.773 870.34C555.123 851.55 556.173 834.18 571.583 821.2C588.303 807.11 608.233 803.2 629.693 804.67C662.273 806.87 684.223 825.48 690.883 858.63ZM615.933 807.24C605.243 807.05 594.933 812.29 587.163 821.82C579.393 831.35 575.003 844.36 574.723 858C574.595 864.689 575.516 871.356 577.453 877.76C579.259 883.827 582.116 889.53 585.893 894.61C589.343 899.269 593.735 903.15 598.783 906C603.48 908.63 608.752 910.066 614.133 910.18C624.823 910.37 635.133 905.12 642.903 895.6C650.673 886.08 655.103 873.06 655.343 859.41C655.471 852.725 654.553 846.061 652.623 839.66C650.81 833.591 647.951 827.885 644.173 822.8C640.723 818.145 636.335 814.266 631.293 811.41C626.592 808.783 621.318 807.351 615.933 807.24Z" fill="#FDFAE9"/>
<path id="Vector_26" d="M615.933 807.239C621.319 807.352 626.595 808.791 631.293 811.429C636.336 814.278 640.724 818.155 644.173 822.809C647.95 827.894 650.81 833.6 652.623 839.669C654.552 846.071 655.47 852.735 655.343 859.419C655.103 873.069 650.633 886.089 642.903 895.609C635.173 905.129 624.833 910.379 614.133 910.199C608.75 910.073 603.48 908.631 598.783 905.999C593.735 903.152 589.346 899.271 585.903 894.609C582.118 889.533 579.257 883.829 577.453 877.759C575.516 871.356 574.594 864.688 574.723 857.999C574.963 844.349 579.443 831.329 587.173 821.809C594.903 812.289 605.243 807.049 615.933 807.239ZM636.803 830.079C635.795 830.087 634.802 830.316 633.893 830.749C632.957 831.191 632.12 831.816 631.433 832.589C630.723 833.397 630.17 834.329 629.803 835.339C629.43 836.375 629.241 837.468 629.243 838.569C629.248 840.762 630.059 842.876 631.523 844.509C632.201 845.272 633.032 845.883 633.963 846.302C634.894 846.72 635.902 846.938 636.923 846.939C637.929 846.935 638.923 846.71 639.833 846.279C640.768 845.837 641.604 845.212 642.293 844.439C643.002 843.632 643.555 842.699 643.923 841.689C644.306 840.656 644.495 839.561 644.483 838.459C644.484 836.265 643.672 834.149 642.203 832.519C641.526 831.754 640.695 831.141 639.764 830.721C638.833 830.3 637.824 830.082 636.803 830.079Z" fill="#020201"/>
<path id="Vector_27" d="M644.482 838.46C644.482 833.8 641.012 830.05 636.802 830.08C632.592 830.11 629.212 833.91 629.242 838.57C629.272 843.23 632.712 846.97 636.922 846.94C641.132 846.91 644.512 843.12 644.482 838.46Z" fill="#FDFAE9"/>
</g>
<g id="eye_2">
<path id="Vector_28" d="M944.482 884.4C945.909 870.154 945.979 859.074 944.692 851.16C942.026 834.78 932.652 822.394 916.572 814C915.125 813.25 913.552 812.772 911.932 812.59C892.386 810.364 876.892 811.167 865.452 815C847.539 821 835.052 835.604 827.992 858.81C829.559 823.077 847.402 803.334 881.522 799.58C892.856 798.34 902.039 798.36 909.072 799.64C930.842 803.59 949.002 819.09 952.822 841.76C955.196 855.82 952.416 870.034 944.482 884.4Z" fill="#020201"/>
<path id="Vector_29" d="M944.482 884.4C941.735 893.494 939.105 899.887 936.592 903.58C909.072 944.13 845.242 956.42 830.252 895C827.058 881.887 826.305 869.824 827.992 858.81C835.052 835.604 847.538 821 865.452 815C876.892 811.16 892.385 810.357 911.932 812.59C914.377 813.105 916.751 813.914 919.002 815C935.062 823.39 942.002 834.78 944.692 851.16C945.985 859.054 945.915 870.134 944.482 884.4ZM869.662 819C860.722 819.38 852.352 824.65 846.392 833.66C840.432 842.67 837.392 854.66 837.892 867.04C838.136 873.083 839.254 879.058 841.212 884.78C843.014 890.128 845.698 895.137 849.152 899.6C852.215 903.586 856.091 906.875 860.522 909.25C864.534 911.375 869.034 912.41 873.572 912.25C882.522 911.87 890.892 906.6 896.842 897.59C902.792 888.58 905.842 876.59 905.342 864.21C905.084 858.184 903.959 852.226 902.002 846.52C900.196 841.172 897.509 836.163 894.052 831.7C890.994 827.713 887.121 824.423 882.692 822.05C878.689 819.914 874.197 818.863 869.662 819Z" fill="#FDFAE9"/>
<path id="Vector_30" d="M869.671 819C874.209 818.843 878.708 819.878 882.721 822C887.151 824.373 891.024 827.662 894.081 831.65C897.535 836.128 900.212 841.155 902.001 846.52C903.958 852.242 905.073 858.217 905.311 864.26C905.831 876.62 902.781 888.64 896.821 897.64C890.861 906.64 882.491 911.92 873.551 912.3C869.011 912.458 864.508 911.424 860.491 909.3C856.062 906.927 852.189 903.637 849.131 899.65C845.674 895.187 842.987 890.178 841.181 884.83C839.228 879.111 838.113 873.139 837.871 867.1C837.351 854.73 840.411 842.72 846.361 833.71C852.311 824.7 860.721 819.42 869.671 819ZM895.831 843.83C895.867 842.862 895.708 841.898 895.363 840.993C895.017 840.089 894.493 839.263 893.822 838.566C893.15 837.869 892.345 837.314 891.454 836.936C890.563 836.557 889.604 836.362 888.636 836.362C887.668 836.362 886.71 836.557 885.819 836.936C884.928 837.314 884.123 837.869 883.451 838.566C882.78 839.263 882.255 840.089 881.91 840.993C881.565 841.898 881.405 842.862 881.441 843.83C881.438 844.777 881.625 845.716 881.991 846.59C882.353 847.459 882.879 848.25 883.541 848.92C884.548 849.926 885.831 850.612 887.227 850.889C888.624 851.167 890.071 851.024 891.386 850.48C892.702 849.935 893.826 849.012 894.617 847.829C895.408 846.645 895.831 845.254 895.831 843.83Z" fill="#020201"/>
<path id="Vector_31" d="M888.632 851.07C890.056 851.07 891.448 850.648 892.632 849.856C893.816 849.065 894.739 847.941 895.284 846.625C895.829 845.31 895.971 843.862 895.693 842.465C895.415 841.069 894.73 839.786 893.723 838.779C892.716 837.772 891.433 837.086 890.036 836.808C888.64 836.53 887.192 836.673 885.876 837.218C884.561 837.763 883.436 838.686 882.645 839.87C881.854 841.054 881.432 842.446 881.432 843.87C881.432 845.779 882.19 847.611 883.54 848.961C884.891 850.311 886.722 851.07 888.632 851.07Z" fill="#FDFAE9"/>
</g>
</g>
</g>
<g id="Hair 8_2">
<g id="hair 8">
<path id="Vector_32" d="M1054.7 594.42C1001.88 594.42 946.701 531.13 944.431 528.42C943.798 527.683 943.421 526.76 943.356 525.79C943.291 524.82 943.542 523.856 944.071 523.04L997.451 440.64C997.78 440.129 998.207 439.689 998.709 439.345C999.21 439.002 999.775 438.762 1000.37 438.64C1000.65 438.588 1000.94 438.562 1001.23 438.56C1002.15 438.563 1003.05 438.845 1003.81 439.37C1004.11 439.58 1034.12 460.37 1057.02 460.37C1064.19 460.37 1069.61 458.37 1073.59 454.25C1079.59 448.04 1082.36 436.89 1081.83 421.1C1081.8 420.214 1082.03 419.339 1082.5 418.584C1082.97 417.83 1083.64 417.23 1084.45 416.86C1085.04 416.587 1085.68 416.448 1086.33 416.45C1087.44 416.462 1088.51 416.886 1089.33 417.64C1102.18 430.282 1112.44 445.314 1119.52 461.89C1130.05 486.8 1136.27 525.13 1106.09 566.27C1092.46 585 1075.16 594.42 1054.7 594.42Z" fill="#9C398C"/>
<path id="Vector_33" d="M1086.33 421C1086.33 421 1158.5 487.3 1102.5 563.66C1088.5 582.75 1071.83 589.92 1054.7 589.92C1003.33 589.92 947.84 525.5 947.84 525.5L1001.23 443.11C1001.23 443.11 1032.4 464.92 1057.02 464.92C1073.76 464.92 1087.47 454.85 1086.33 421ZM1086.33 412C1085.12 411.999 1083.93 412.242 1082.81 412.713C1081.7 413.184 1080.7 413.873 1079.86 414.741C1079.02 415.609 1078.36 416.637 1077.93 417.764C1077.49 418.89 1077.29 420.093 1077.33 421.3C1077.82 435.62 1075.4 445.95 1070.33 451.17C1067.24 454.37 1062.88 455.92 1057 455.92C1039.2 455.92 1014.41 441.35 1006.36 435.73C1004.85 434.676 1003.05 434.11 1001.21 434.11C1000.63 434.112 1000.05 434.169 999.48 434.28C998.293 434.512 997.165 434.98 996.164 435.657C995.162 436.334 994.307 437.205 993.65 438.22L940.27 520.61C939.211 522.243 938.709 524.175 938.841 526.117C938.973 528.058 939.73 529.905 941 531.38C943.38 534.14 999.82 598.92 1054.68 598.92C1076.68 598.92 1095.17 588.85 1109.74 568.99C1141.16 526.14 1134.67 486.17 1123.68 460.19C1116.33 443.028 1105.71 427.465 1092.4 414.37C1090.74 412.845 1088.57 411.999 1086.31 412H1086.33Z" fill="#17091D"/>
<path id="Vector_34" d="M960 1018.49C959.24 1018.49 958.493 1018.3 957.827 1017.93C957.161 1017.57 956.599 1017.04 956.193 1016.4C955.787 1015.76 955.549 1015.02 955.503 1014.26C955.457 1013.5 955.604 1012.75 955.93 1012.06C956.36 1011.15 998.93 920.14 984.21 855.69C970.65 796.45 969.8 761.41 968.99 727.53C968.88 723.05 968.78 718.6 968.64 714.13C967.58 679.75 932.57 663.22 932.22 663.06C931.247 662.614 930.465 661.835 930.016 660.863C929.567 659.891 929.48 658.791 929.77 657.76L950.14 584.88L955.24 566.66C955.464 565.861 955.905 565.138 956.514 564.573C957.122 564.009 957.876 563.623 958.69 563.46L978 559.63C990.59 557.127 1003.39 555.865 1016.23 555.86C1045.24 555.767 1073.87 562.437 1099.85 575.34C1149.85 600.53 1172.06 641.43 1164.1 693.62C1163.92 696.62 1161.84 720.95 1140.1 750.28C1130.1 763.569 1118.33 775.42 1105.1 785.5C1098.54 790.57 1094.41 797.65 1093.76 804.92C1093.36 809.42 1094.28 812.82 1096.57 815.33C1099.98 819.06 1106.87 821.04 1116.48 821.04C1130.37 821.04 1149.91 817.04 1174.54 809.14C1174.98 809.002 1175.45 808.931 1175.91 808.93C1176.58 808.933 1177.23 809.082 1177.83 809.368C1178.44 809.654 1178.97 810.069 1179.39 810.584C1179.81 811.099 1180.12 811.701 1180.28 812.347C1180.44 812.993 1180.46 813.667 1180.33 814.32C1180.23 814.81 1177.77 826.59 1167.17 839.42C1158 850.51 1140.79 864.53 1110.17 869.94C1114.06 892.796 1110.09 916.295 1098.92 936.61C1078.92 973.29 1037.52 999.61 975.85 1015C970.92 1016.22 965.91 1017.37 960.96 1018.4C960.644 1018.46 960.322 1018.49 960 1018.49Z" fill="#CE44A2"/>
<path id="Vector_35" d="M1016.18 560.36C1044.49 560.246 1072.43 566.753 1097.78 579.36C1135.04 598.13 1168.97 632.09 1159.57 693.16C1159.57 693.16 1158.63 717.66 1136.43 747.6C1126.68 760.563 1115.19 772.118 1102.28 781.94C1094.91 787.64 1090 795.69 1089.21 804.52C1088.3 814.66 1092.82 825.52 1116.41 825.52C1129.53 825.52 1148.56 822.15 1175.84 813.41C1175.84 813.41 1166.98 857.47 1104.7 866.22C1104.7 866.22 1104.89 866.89 1105.18 868.12C1105.32 868.7 1105.46 869.39 1105.62 870.21C1109.34 889.67 1117.05 975.21 974.732 1010.61C969.998 1011.79 965.095 1012.91 960.022 1013.97C960.022 1013.97 1003.92 921.43 988.622 854.67C973.322 787.91 974.312 751.56 973.162 714C972.012 676.44 934.162 659 934.162 659L954.542 586.12L959.632 567.91L978.822 564C991.125 561.557 1003.64 560.324 1016.18 560.32M1016.18 551.36C1003.05 551.365 989.951 552.657 977.072 555.22L957.842 559.05C956.211 559.374 954.702 560.144 953.483 561.274C952.263 562.404 951.38 563.849 950.932 565.45L945.832 583.66L925.452 656.55C924.878 658.609 925.055 660.806 925.953 662.747C926.851 664.687 928.41 666.244 930.352 667.14C936.6 670.35 942.35 674.45 947.422 679.31C958.132 689.56 963.762 701.31 964.162 714.31C964.302 718.76 964.412 723.31 964.512 727.69C965.332 761.79 966.182 797.05 979.852 856.69C994.262 919.59 952.312 1009.24 951.852 1010.14C951.2 1011.51 950.906 1013.03 950.999 1014.55C951.091 1016.06 951.566 1017.53 952.38 1018.82C953.194 1020.1 954.32 1021.16 955.652 1021.89C956.985 1022.62 958.482 1023 960.002 1023C960.617 1023 961.23 1022.94 961.832 1022.81C966.832 1021.81 971.922 1020.61 976.892 1019.37C1010.75 1010.95 1039 999.02 1060.84 983.91C1079.34 971.12 1093.47 955.91 1102.84 938.77C1113.74 918.875 1118.09 896.048 1115.26 873.54C1144.49 867.38 1161.36 853.44 1170.57 842.29C1180.95 829.73 1184 818.2 1184.57 815.63C1184.75 814.913 1184.84 814.178 1184.84 813.44C1184.84 811.08 1183.92 808.815 1182.26 807.132C1180.61 805.449 1178.36 804.482 1176 804.44H1175.42C1174.56 804.481 1173.71 804.642 1172.89 804.92C1148.79 812.63 1129.79 816.54 1116.4 816.54C1105.34 816.54 1101.26 813.88 1099.81 812.29C1099.3 811.73 1097.74 810.03 1098.16 805.29C1098.7 799.29 1102.16 793.29 1107.77 789.02C1121.33 778.689 1133.4 766.542 1143.65 752.92C1165.57 723.36 1168.21 698.36 1168.51 694.07C1176.72 639.86 1153.66 597.4 1101.82 571.28C1075.21 558.05 1045.89 551.203 1016.17 551.28L1016.18 551.36Z" fill="#17091D"/>
<path id="Vector_36" d="M974.73 1010.63C993.26 1004.22 1012.29 993.51 1025.25 975.63C1040.77 954.19 1045.59 925.7 1046.25 901.18C1046.59 887.603 1045.85 874.021 1044.04 860.56C1043.04 853.38 1042.17 849.08 1042.17 849.08L1060.53 860.5L1063.89 861.43L1087.6 868L1105.15 868.17C1105.29 868.75 1105.43 869.44 1105.59 870.26C1109.34 889.69 1117.05 975.24 974.73 1010.63Z" fill="#9C398C"/>
<path id="Vector_37" d="M1159.57 693.16C1159.57 693.16 1158.63 717.66 1136.43 747.6C1135.22 741.05 1133.7 733.75 1131.79 725.98C1124.11 694.64 1110.2 655.54 1085.41 626.47C1082.7 623.3 1079.78 620.316 1076.67 617.54C1076.62 617.489 1076.57 617.442 1076.52 617.4C1040.75 585.48 985.01 584.05 954.52 586.12L959.609 567.91L978.82 564C1019.2 556 1061.54 561.07 1097.82 579.32C1135 598.13 1169 632.09 1159.57 693.16Z" fill="#D969BD"/>
<path id="Vector_38" d="M1060.36 603.94C1060.36 603.94 1125.71 647.42 1132.49 733" stroke="#17091D" stroke-width="9" stroke-linecap="round" stroke-linejoin="round"/>
<path id="Vector_39" d="M1110.4 870.1C1057.52 872.77 1028.71 835.05 1028.71 835.05C1028.71 835.05 1061 865.05 1042.09 915.57" stroke="#17091D" stroke-width="9" stroke-linecap="round" stroke-linejoin="round"/>
<path id="Vector_40" d="M431.819 1002.41C393.599 1002.41 358.759 988.79 328.249 961.92C312.784 948.262 299.541 932.276 288.999 914.54C281.077 916.94 272.848 918.18 264.569 918.22C226.899 918.22 200.219 891.42 184.449 868.88C184.414 868.84 184.384 868.797 184.359 868.75C179.426 861.712 175.014 854.322 171.159 846.64C170.685 845.701 170.46 844.656 170.506 843.606C170.551 842.555 170.866 841.534 171.419 840.64C172.015 839.696 172.841 838.919 173.818 838.38C174.795 837.842 175.893 837.559 177.009 837.56C178.105 837.561 179.183 837.833 180.149 838.35C194.809 846.14 207.439 850.09 217.679 850.09C239.679 850.09 245.229 831.29 246.579 823.09C233.872 815.533 221.846 806.883 210.639 797.24C182.999 773 169.889 747.09 171.819 720.32C174.819 678.17 214.699 645.49 233.449 632.32C215.499 627.43 201.779 614 193.559 593.12C186.429 575.02 185.229 556.12 185.049 548.88C185.049 548.88 185.049 548.8 185.049 548.76C185.05 548.244 185.114 547.73 185.239 547.23C185.611 545.839 186.432 544.611 187.576 543.737C188.719 542.863 190.12 542.393 191.559 542.4C192.416 542.398 193.264 542.561 194.059 542.88C209.339 549.01 223.379 552.12 235.769 552.12C254.679 552.12 270.249 544.86 282.039 530.53C288.189 523.05 293.359 513.64 297.379 502.53C302.358 488.417 305.314 473.671 306.159 458.73C306.149 458.593 306.149 458.456 306.159 458.32C306.17 458.212 306.186 458.105 306.209 458C306.969 453.41 307.889 448.9 308.919 444.59C309.159 443.59 309.399 442.59 309.659 441.59C309.829 440.91 310.009 440.21 310.209 439.51C310.519 438.34 310.869 437.08 311.209 435.85C312.329 432.01 313.589 428.22 314.939 424.61C315.389 423.35 315.879 422.09 316.369 420.89C317.369 418.34 318.499 415.76 319.659 413.25C320.109 412.25 320.589 411.25 321.069 410.31C326.348 399.495 333.007 389.411 340.879 380.31C341.739 379.31 342.639 378.31 343.539 377.31C344.439 376.31 345.389 375.31 346.309 374.4C347.699 372.98 349.139 371.57 350.579 370.23L351.999 368.92C385.239 338.7 434.129 323.38 497.339 323.38C529.396 323.53 561.34 327.168 592.609 334.23C602.029 322.46 644.389 279.35 759.149 279.35H762.269C809.759 279.67 865.329 296.61 910.919 324.65C935.869 339.99 957.219 358.05 974.379 378.33C993.229 400.61 1006.53 425.05 1013.89 450.97C1016.21 459.16 1018.2 466.35 1019.96 472.97C1041.59 553.79 1044.71 600.33 1031.47 644.69C1018.04 689.69 953.989 734.8 934.679 747.56C933.321 748.458 931.681 748.825 930.07 748.593C928.458 748.361 926.988 747.545 925.939 746.3C925.362 745.605 924.944 744.791 924.716 743.917C924.488 743.042 924.455 742.128 924.619 741.24C926.159 732.85 924.829 723.31 923.359 716.52C905.999 734 861.559 744.73 847.619 747.75C847.149 747.85 846.67 747.9 846.189 747.9C845.192 747.9 844.208 747.674 843.311 747.239C842.414 746.804 841.627 746.172 841.009 745.39C840.424 744.64 840.02 743.765 839.829 742.834C839.638 741.902 839.666 740.939 839.909 740.02C853.239 689.73 785.039 655.55 761.729 645.48C769.429 669.98 784.239 682.67 792.729 688.2C793.856 688.92 794.721 689.984 795.196 691.233C795.672 692.483 795.732 693.853 795.369 695.14C794.977 696.465 794.167 697.629 793.062 698.46C791.956 699.29 790.612 699.742 789.229 699.75C787.309 699.75 785.379 699.81 783.469 699.81C732.419 699.81 685.539 686.07 644.149 658.96C622.749 645.003 603.642 627.812 587.509 608C572.739 703.92 484.779 737.51 469.509 742.64L468.909 744.57V744.73C434.799 855.85 516.389 887.86 533.099 893.15C534.111 893.463 535.029 894.022 535.771 894.778C536.513 895.534 537.055 896.462 537.349 897.48C537.63 898.467 537.659 899.509 537.436 900.512C537.212 901.514 536.743 902.444 536.069 903.22C519.189 922.69 486.909 926.78 462.809 926.78C457.259 926.78 452.309 926.56 448.319 926.29C468.919 953.81 508.879 964.29 521.149 966.88C522.442 967.142 523.62 967.803 524.517 968.77C525.414 969.737 525.985 970.961 526.149 972.27C526.314 973.567 526.067 974.883 525.442 976.031C524.818 977.18 523.848 978.103 522.669 978.67C505.274 987.54 486.833 994.189 467.779 998.46C455.95 1001.02 443.884 1002.34 431.779 1002.38L431.819 1002.41Z" fill="#CE44A2"/>
<path id="Vector_41" d="M759.19 284H762.28C852.83 284.61 979.47 346.28 1009.6 452.35C1011.75 459.903 1013.77 467.207 1015.66 474.26C1035.66 548.84 1041.05 597.12 1027.2 643.53C1014.08 687.42 949.58 732.53 932.2 743.94C931.849 744.169 931.439 744.29 931.02 744.29C930.744 744.31 930.467 744.268 930.208 744.168C929.95 744.068 929.717 743.912 929.526 743.711C929.334 743.511 929.19 743.27 929.103 743.007C929.015 742.744 928.987 742.465 929.02 742.19C931.13 730.73 928.37 717.58 926.56 710.83C926.491 710.573 926.365 710.335 926.192 710.133C926.019 709.93 925.803 709.769 925.56 709.66C925.248 709.512 924.906 709.437 924.56 709.44C924.247 709.437 923.936 709.508 923.655 709.647C923.373 709.786 923.129 709.989 922.94 710.24C909.46 728.68 859.8 740.49 846.59 743.34C846.431 743.359 846.27 743.359 846.11 743.34C845.824 743.355 845.539 743.305 845.275 743.192C845.012 743.079 844.778 742.908 844.591 742.69C844.405 742.473 844.271 742.215 844.2 741.938C844.128 741.66 844.122 741.37 844.18 741.09C859.49 683.33 777.01 646.66 758.59 639.27C758.33 639.164 758.052 639.11 757.77 639.11C757.432 639.106 757.097 639.186 756.797 639.344C756.497 639.501 756.24 639.73 756.05 640.01C755.918 640.202 755.829 640.42 755.789 640.65C755.75 640.879 755.76 641.115 755.82 641.34C763.4 671.12 781.19 686.05 790.2 691.91C790.533 692.128 790.783 692.451 790.912 692.828C791.04 693.204 791.04 693.613 790.91 693.989C790.78 694.365 790.529 694.688 790.196 694.905C789.863 695.122 789.467 695.223 789.07 695.19C787.17 695.19 785.27 695.25 783.39 695.25C665.39 695.25 601.72 619.81 587.39 600.63C587.2 600.373 586.951 600.165 586.664 600.024C586.377 599.883 586.06 599.813 585.74 599.82C585.264 599.8 584.796 599.956 584.427 600.258C584.058 600.561 583.814 600.989 583.74 601.46C571.74 702.46 477.38 735.35 466.82 738.74C466.53 738.822 466.263 738.974 466.045 739.184C465.827 739.393 465.664 739.653 465.57 739.94C465.19 741.09 464.83 742.23 464.48 743.37C429 858.99 515.29 892.23 531.62 897.37C531.912 897.44 532.18 897.584 532.4 897.787C532.62 897.991 532.784 898.247 532.876 898.532C532.969 898.817 532.986 899.121 532.927 899.415C532.869 899.709 532.735 899.982 532.54 900.21C516.54 918.69 484.66 922.21 462.69 922.21C454.23 922.21 447.23 921.69 443.18 921.3H442.96C442.507 921.295 442.064 921.439 441.7 921.71C441.415 921.916 441.196 922.201 441.07 922.53C440.977 922.769 440.942 923.027 440.968 923.283C440.994 923.539 441.081 923.784 441.22 924C461.31 956.14 505.1 968 520.09 971.22C520.469 971.274 520.819 971.449 521.09 971.719C521.36 971.989 521.536 972.339 521.592 972.717C521.647 973.095 521.578 973.481 521.396 973.817C521.214 974.152 520.927 974.42 520.58 974.58C501.4 984.17 483.46 990.42 466.75 993.99C455.252 996.5 443.52 997.784 431.75 997.82C343.64 997.82 298.21 921.94 291.85 910.5C291.67 910.187 291.408 909.929 291.093 909.753C290.778 909.577 290.421 909.49 290.06 909.5C289.83 909.503 289.6 909.54 289.38 909.61C281.34 912.221 272.944 913.57 264.49 913.61C228.49 913.61 202.85 887.38 187.97 866.07C183.167 859.214 178.872 852.014 175.12 844.53C174.993 844.24 174.943 843.922 174.976 843.608C175.008 843.293 175.121 842.992 175.305 842.734C175.488 842.476 175.735 842.27 176.022 842.136C176.308 842.002 176.625 841.945 176.94 841.97C177.29 841.976 177.633 842.065 177.94 842.23C194.67 851.12 207.6 854.5 217.58 854.5C245.75 854.5 250.5 827.62 251.2 821.78C251.154 821.384 251.01 821.006 250.78 820.68C250.657 820.456 250.499 820.253 250.31 820.08C237.278 812.437 224.958 803.638 213.5 793.79C124.5 715.68 219.2 646.67 241.17 632.4C241.487 632.198 241.731 631.9 241.868 631.55C242.004 631.199 242.025 630.815 241.928 630.452C241.831 630.089 241.621 629.766 241.329 629.53C241.036 629.294 240.676 629.158 240.3 629.14C194.01 621.93 189.8 562.52 189.44 548.69C189.437 548.545 189.454 548.4 189.49 548.26C189.617 547.833 189.882 547.46 190.245 547.201C190.607 546.942 191.045 546.812 191.49 546.83C191.77 546.831 192.048 546.882 192.31 546.98C209.02 553.69 223.37 556.55 235.7 556.55C258.53 556.55 274.4 546.73 285.44 533.32C292.69 524.52 297.86 514.17 301.54 504.03C306.66 489.474 309.69 474.266 310.54 458.86C310.54 458.86 310.54 458.75 310.54 458.71C311.3 454.19 312.187 449.817 313.2 445.59C313.43 444.59 313.67 443.67 313.91 442.72C314.08 442.06 314.25 441.4 314.43 440.72C314.76 439.51 315.09 438.29 315.43 437.09C316.53 433.317 317.737 429.67 319.05 426.15C319.5 424.94 319.96 423.74 320.44 422.56C321.447 420.013 322.514 417.533 323.64 415.12C324.08 414.12 324.55 413.21 325.01 412.26C330.108 401.801 336.549 392.052 344.17 383.26C345.02 382.26 345.88 381.32 346.76 380.37C347.64 379.42 348.54 378.47 349.43 377.56C350.78 376.18 352.15 374.83 353.55 373.56L354.95 372.26C393.7 337.28 449.41 328 497.38 328C529.59 328.122 561.685 331.839 593.07 339.08C593.244 339.119 593.422 339.139 593.6 339.14C593.919 339.148 594.235 339.079 594.522 338.94C594.81 338.801 595.059 338.595 595.25 338.34C601 330.63 640.77 284 759.19 284ZM759.19 275C648.72 275 603.75 314.79 591 329.38C560.24 322.649 528.858 319.17 497.37 319C469.13 319 443.23 322.14 420.37 328.32C391.8 336.06 367.8 348.63 349.04 365.69H348.98L348.53 366.1L347.58 366.98C346.06 368.4 344.58 369.85 343.13 371.33C342.23 372.25 341.3 373.23 340.3 374.33C339.3 375.43 338.3 376.52 337.5 377.47C329.386 386.849 322.518 397.239 317.07 408.38C316.6 409.38 316.07 410.38 315.61 411.44C314.43 413.98 313.29 416.62 312.23 419.28C311.73 420.51 311.23 421.81 310.75 423.12C309.36 426.82 308.08 430.7 306.93 434.65C306.61 435.72 306.27 436.92 305.88 438.41C305.67 439.15 305.49 439.85 305.32 440.53C305.06 441.53 304.82 442.53 304.57 443.53C303.51 447.95 302.57 452.53 301.79 457.23C301.79 457.47 301.73 457.68 301.71 457.82C301.69 457.96 301.71 458.32 301.65 458.57C300.833 473.051 297.968 487.343 293.14 501.02C289.29 511.61 284.38 520.58 278.55 527.66C267.55 541.08 253.55 547.61 235.76 547.61C223.94 547.61 210.47 544.61 195.76 538.69C194.434 538.159 193.019 537.888 191.59 537.89C189.147 537.866 186.766 538.663 184.829 540.154C182.893 541.644 181.513 543.742 180.91 546.11C180.688 546.972 180.577 547.86 180.58 548.75C180.58 548.83 180.58 548.91 180.58 548.98C180.77 556.49 182.02 575.98 189.4 594.76C196.87 613.76 208.66 626.94 223.93 633.7C214.593 640.776 205.893 648.656 197.93 657.25C179.2 677.65 168.93 698.75 167.39 719.95C165.39 748.21 178.92 775.35 207.73 800.61C218.326 809.759 229.661 818.014 241.62 825.29C239.62 833.61 233.99 845.56 217.74 845.56C208.24 845.56 196.33 841.79 182.32 834.34C180.703 833.482 178.901 833.032 177.07 833.03C175.189 833.031 173.339 833.509 171.693 834.42C170.047 835.332 168.659 836.646 167.66 838.24C166.698 839.781 166.15 841.544 166.068 843.358C165.985 845.173 166.372 846.978 167.19 848.6C171.146 856.486 175.671 864.073 180.73 871.3L180.85 871.47C197.24 894.88 225.04 922.68 264.63 922.68C272.167 922.652 279.67 921.67 286.96 919.76C297.474 936.712 310.403 952.04 325.34 965.26C338.692 977.14 353.813 986.867 370.16 994.09C389.634 1002.57 410.652 1006.92 431.89 1006.87C444.303 1006.83 456.678 1005.49 468.81 1002.87C488.25 998.524 507.064 991.747 524.81 982.7C526.829 981.709 528.487 980.111 529.55 978.129C530.614 976.147 531.03 973.882 530.739 971.652C530.449 969.422 529.467 967.339 527.932 965.696C526.397 964.052 524.386 962.931 522.18 962.49C511.54 960.21 479.36 951.88 458.66 931.25C460.03 931.25 461.44 931.25 462.89 931.25C487.89 931.25 521.55 926.89 539.54 906.15C540.706 904.812 541.52 903.204 541.908 901.471C542.295 899.739 542.245 897.938 541.76 896.23C541.265 894.493 540.345 892.907 539.082 891.615C537.82 890.323 536.255 889.366 534.53 888.83C527.53 886.63 503.53 877.77 485.78 856.11C463.46 828.86 459.24 791.85 473.26 746.11C493.07 739.01 571.83 705.61 590.31 618.17C605.408 635.225 622.718 650.184 641.78 662.65C683.92 690.25 731.62 704.24 783.56 704.24C785.5 704.24 787.47 704.24 789.42 704.18C791.764 704.156 794.037 703.378 795.903 701.96C797.769 700.543 799.129 698.561 799.78 696.31C800.416 694.102 800.323 691.747 799.514 689.596C798.705 687.445 797.224 685.612 795.29 684.37C788.54 679.97 777.57 670.77 769.95 654.08C781.12 659.51 795.63 667.64 808.48 678.23C832.02 697.63 841.16 718 835.65 738.78C835.227 740.369 835.177 742.035 835.505 743.647C835.833 745.259 836.529 746.773 837.54 748.07C838.579 749.396 839.905 750.469 841.42 751.207C842.934 751.945 844.596 752.329 846.28 752.33C847.088 752.333 847.893 752.246 848.68 752.07C861.948 749.202 875.029 745.529 887.85 741.07C901.85 736.07 912.65 730.81 920.39 725.15C921.127 730.252 921.104 735.435 920.32 740.53C920.037 742.066 920.096 743.645 920.492 745.155C920.887 746.666 921.611 748.07 922.61 749.27C924.367 751.365 926.833 752.74 929.538 753.135C932.243 753.529 934.999 752.915 937.28 751.41C956.92 738.41 1022.04 692.49 1035.91 646.07C1051.34 594.38 1042.91 541.07 1024.44 471.9C1022.67 465.27 1020.68 458.06 1018.35 449.85C1010.81 423.31 997.21 398.3 977.94 375.53C960.48 354.89 938.76 336.53 913.4 320.92C889.647 306.408 864.128 295.008 837.47 287C811.78 279.29 785.8 275.13 762.34 275H759.19Z" fill="#17091D"/>
<path id="Vector_42" d="M1015.66 474.27C1011.31 471.004 1007.2 467.435 1003.36 463.59C996.52 456.73 976.36 435.76 949.75 414.98L949.68 414.92C921.31 392.8 885.58 370.92 850.68 366.47H850.62C805.33 360.74 770.25 355.83 742.07 356.09C742.059 356.084 742.047 356.082 742.035 356.082C742.023 356.082 742.011 356.084 742 356.09C728.1 356.21 715.86 357.6 704.93 360.77C672.45 370.19 636.93 380.67 635.71 381.04C621.767 379.11 607.723 377.995 593.65 377.7C591.09 377.65 588.52 377.62 585.96 377.62C549.556 377.583 513.357 383.072 478.6 393.9C417.46 413 362.75 448.38 322.5 497C314.81 506.28 307.58 514.43 301.2 520.77C295.06 526.88 289.7 531.32 285.5 533.47C292.75 524.67 297.92 514.32 301.6 504.18C306.72 489.624 309.75 474.416 310.6 459.01C310.6 459.01 310.6 458.9 310.6 458.86C311.36 454.34 312.247 449.966 313.26 445.74C313.49 444.74 313.73 443.82 313.97 442.87C314.14 442.21 314.31 441.55 314.49 440.87C314.82 439.66 315.15 438.44 315.49 437.24C316.59 433.466 317.797 429.82 319.11 426.3C319.56 425.09 320.02 423.89 320.5 422.71C321.507 420.163 322.573 417.683 323.7 415.27C324.14 414.27 324.61 413.36 325.07 412.41C330.168 401.95 336.609 392.201 344.23 383.41C345.08 382.41 345.94 381.47 346.82 380.52C347.7 379.57 348.6 378.62 349.49 377.71C350.84 376.33 352.21 374.98 353.61 373.71L355.01 372.41C432.01 302.41 577.21 335.31 593.01 339.15C593.406 339.253 593.824 339.238 594.211 339.107C594.599 338.975 594.939 338.733 595.19 338.41C601.02 330.6 641.39 283.23 762.19 284.05C852.74 284.66 979.38 346.33 1009.51 452.4C1011.72 459.926 1013.77 467.216 1015.66 474.27Z" fill="#D969BD"/>
<path id="Vector_43" d="M301.2 520.72C299.2 543.37 290.33 574.72 257.39 583.72C212.45 595.96 194.21 560 189.59 548.4C189.676 548.124 189.818 547.87 190.009 547.653C190.199 547.436 190.433 547.262 190.695 547.141C190.957 547.021 191.242 546.956 191.53 546.953C191.819 546.949 192.105 547.006 192.37 547.12C240.03 566.24 268.5 554.12 285.5 533.46C292.75 524.66 297.92 514.31 301.6 504.17C301.812 509.69 301.678 515.217 301.2 520.72Z" fill="#9C398C"/>
<path id="Vector_44" d="M520.691 974.67C501.511 984.26 483.571 990.51 466.861 994.08C460.641 988.08 453.781 981.08 446.261 972.89C396.561 918.89 404.021 881.37 404.021 881.37L412.121 892.82L441.791 921.77L444.501 924.41C443.361 923.84 442.251 923.23 441.151 922.59C441.062 922.831 441.03 923.089 441.058 923.344C441.086 923.599 441.172 923.844 441.311 924.06C461.401 956.2 505.191 968.06 520.181 971.28C520.571 971.32 520.937 971.489 521.221 971.76C521.505 972.031 521.691 972.389 521.75 972.777C521.808 973.166 521.736 973.562 521.544 973.905C521.352 974.248 521.052 974.517 520.691 974.67Z" fill="#9C398C"/>
<path id="Vector_45" d="M254.001 890.79C229.431 893.08 206.001 880.39 188.001 866.18C183.197 859.323 178.902 852.124 175.151 844.64C174.341 843.02 176.311 841.44 178.001 842.34C241.931 876.34 250.311 829.79 251.261 821.89C251.261 821.48 258.811 811.5 258.561 811.16C258.311 810.82 265.441 789.81 265.441 789.81C265.441 789.81 306.761 885.89 254.001 890.79Z" fill="#9C398C"/>
<path id="Vector_46" d="M380 518.89C425.65 368.16 539.45 371.25 635.63 381C635.63 381 722.29 343.18 827.39 363.2" stroke="#17091D" stroke-width="9" stroke-linecap="round" stroke-linejoin="round"/>
<path id="Vector_47" d="M357.18 676.73C357.18 676.73 442.3 707.24 489.76 571.25" stroke="#17091D" stroke-width="9" stroke-linecap="round" stroke-linejoin="round"/>
<path id="Vector_48" d="M619.7 501C619.7 501 587.76 587.92 654.38 625.49" stroke="#17091D" stroke-width="9" stroke-linecap="round" stroke-linejoin="round"/>
<path id="Vector_49" d="M729.29 544.88C729.29 544.88 727.56 610.36 761.29 646.12" stroke="#17091D" stroke-width="9" stroke-linecap="round" stroke-linejoin="round"/>
<path id="Vector_50" d="M888.73 559.91C888.73 559.91 948.86 617.35 924.44 714.62" stroke="#17091D" stroke-width="9" stroke-linecap="round" stroke-linejoin="round"/>
<path id="Vector_51" d="M348.531 730.64C348.531 730.64 368.461 750.64 469.411 743.09" stroke="#17091D" stroke-width="9" stroke-linecap="round" stroke-linejoin="round"/>
<path id="Vector_52" d="M404.449 878.76C406.66 883.64 409.231 888.35 412.139 892.85C418.289 902.49 428.039 914.85 441.139 922.62C442.239 923.26 443.349 923.87 444.489 924.44C445.869 925.106 447.286 925.75 448.739 926.37" stroke="#17091D" stroke-width="9" stroke-linecap="round" stroke-linejoin="round"/>
<path id="Vector_53" d="M268.449 717.65C268.449 717.65 255.799 746.39 262.359 783C268.919 819.61 246.359 822.28 246.359 822.28" stroke="#17091D" stroke-width="9" stroke-linecap="round" stroke-linejoin="round"/>
<path id="Vector_54" d="M933.632 440.63C933.632 440.63 901.372 391.81 831.232 389.63C761.092 387.45 745.352 389.4 745.352 389.4C745.352 389.4 786.162 420.4 829.822 416.16C873.482 411.92 933.632 440.63 933.632 440.63Z" fill="#D969BD"/>
<path id="Vector_55" d="M419.141 503.65C419.141 503.65 430.731 459 482.501 439.5C534.271 420 543.501 408.42 543.501 408.42C543.501 408.42 524.001 451 490.321 458.92C456.641 466.84 419.141 503.65 419.141 503.65Z" fill="#D969BD"/>
<path id="Vector_56" d="M635.5 378.5C622.63 357.01 593.07 339.11 593.07 339.11" stroke="#17091D" stroke-width="9" stroke-linecap="round" stroke-linejoin="round"/>
<path id="Vector_57" d="M789.5 457.5C789.5 457.5 724.86 375.24 639.68 379.87C554.5 384.5 535.5 478.5 535.5 478.5" stroke="#17091D" stroke-width="9" stroke-linecap="round" stroke-linejoin="round"/>
</g>
</g>
</g>
</svg>
