<svg width="1360" height="1602" viewBox="0 0 1360 1602" fill="none" xmlns="http://www.w3.org/2000/svg">
<g id="Hair 3">
<g id="Head 2">
<g id="1 neck">
<path id="Vector" d="M673.29 1541.5C662.675 1541.51 652.093 1540.33 641.74 1537.98C605.93 1529.84 575.8 1514.98 540.99 1488.22C532.66 1481.8 532.04 1474.78 532.99 1470.01C536.13 1453.91 540.14 1271.41 540.3 1250.77C540.35 1244.63 540.36 1228.71 540.3 1212.03C540.3 1201.03 540.2 1179.92 539.99 1161.93C539.85 1150.34 539.68 1142.93 539.5 1139.23L539.08 1131.02L546.22 1135.09C547.32 1135.72 551.77 1137.88 556.49 1140.16C575.14 1149.16 583.84 1153.59 586.1 1155.75C589.26 1158.32 613.15 1165.86 623.35 1169.07C633.03 1172.07 634.35 1172.58 635.3 1173.14C642.88 1177.75 651.03 1181.19 659.67 1184.83C666.17 1187.57 672.9 1190.41 680.01 1193.98C691.4 1199.7 696.85 1202.25 699.01 1202.25C699.807 1202.19 700.593 1202.03 701.35 1201.78C704.05 1201.06 708.14 1199.96 716.96 1199.96C720.52 1199.96 724.64 1200.14 729.19 1200.5C737.93 1200.59 742.26 1206.24 745.43 1210.38C748.15 1213.92 749.43 1215.38 751.58 1215.38C752.574 1215.35 753.555 1215.14 754.48 1214.78L760.61 1212.59L760.5 1219.1C760.5 1221.44 760.5 1224.89 760.57 1228.81C760.78 1238.35 761.3 1250.02 762 1260.81C762.46 1267.98 763 1299 763.67 1334.93C764.67 1388.56 766.1 1469.54 767.61 1476.17C770.17 1483.99 768.61 1491.63 763.19 1498.27C740.59 1525.84 715.87 1539.07 683.02 1541.16C679.77 1541.39 676.5 1541.5 673.29 1541.5Z" fill="#E68856"/>
<path id="Vector_2" d="M544 1139C547.84 1141.19 579.87 1156 583 1159C587.51 1163.38 631 1175.82 633 1177C646.52 1185.24 661.42 1189.67 678 1198C691.79 1204.92 696 1206.75 699 1206.75C702.42 1206.75 704.43 1204.46 716.94 1204.46C720.19 1204.46 724.13 1204.61 728.94 1205H729.01C741.4 1205 741.83 1219.86 751.52 1219.86C753.052 1219.84 754.569 1219.55 756 1219C756 1221.34 756 1224.75 756.07 1228.89C756.26 1237.47 756.74 1249.2 757.51 1261.12C758.73 1280.12 760.67 1469.53 763.31 1477.52C765.444 1483.95 764.244 1489.92 759.71 1495.44C740.29 1519.13 718.02 1534.44 682.71 1536.69C679.544 1536.9 676.397 1537.01 673.27 1537C662.991 1537.01 652.743 1535.87 642.72 1533.59C604.16 1524.83 574.26 1508.12 543.72 1484.65C538.487 1480.65 536.377 1476.06 537.39 1470.89C540.7 1453.95 544.65 1268.55 544.79 1250.81C544.84 1244.99 544.85 1229.65 544.79 1212.02C544.79 1195.32 544.65 1176.56 544.48 1161.88C544.35 1151.48 544.19 1143.12 543.98 1139M534.15 1123L534.99 1139.42C535.18 1143.04 535.34 1150.42 535.48 1161.95C535.69 1179.95 535.76 1201.02 535.79 1211.95C535.84 1228.58 535.79 1244.49 535.79 1250.64C535.63 1270.71 531.58 1453.64 528.56 1469.07C527.56 1473.97 527.56 1483.46 538.23 1491.69C573.59 1518.86 604.23 1533.99 640.74 1542.28C651.417 1544.7 662.332 1545.92 673.28 1545.91C676.58 1545.91 679.96 1545.8 683.28 1545.58C701.61 1544.41 717.42 1539.92 731.6 1531.83C744.16 1524.68 755.3 1514.89 766.6 1501.06C773 1493.25 774.84 1484.26 771.92 1475.06C770.47 1466.22 769.05 1387.22 768.1 1334.8C767.42 1297.34 766.89 1267.8 766.42 1260.49C765.73 1249.74 765.21 1238.13 765 1228.64C764.91 1224.79 764.89 1221.4 764.93 1219.1L765.15 1206.1L753 1210.53C752.604 1210.68 752.191 1210.79 751.77 1210.85C750.77 1209.86 749.857 1208.79 749.04 1207.64C745.74 1203.33 740.23 1196.14 729.42 1196C724.81 1195.64 720.63 1195.46 716.99 1195.46C707.58 1195.46 703.15 1196.65 700.22 1197.46L699.03 1197.76C696.78 1197.36 687.6 1192.76 682.08 1189.98C674.83 1186.34 668.08 1183.47 661.47 1180.71C652.99 1177.13 644.98 1173.71 637.72 1169.33C636.3 1168.48 634.93 1168.02 624.82 1164.83C616.14 1162.1 593.27 1154.88 588.96 1152.22C586.22 1149.83 579.77 1146.44 558.55 1136.16C554.32 1134.11 549.55 1131.79 548.55 1131.23L534.17 1123H534.15Z" fill="#020201"/>
<path id="Vector_3" d="M757.51 1261.12C744.18 1265.34 730.292 1267.54 716.31 1267.64C676.46 1267.82 635.9 1260.01 600.72 1243.29C583.167 1234.95 567.233 1226.66 552.92 1218.41C550.03 1216.53 547.316 1214.39 544.81 1212.02C544.81 1195.32 544.17 1153.68 544 1139.02C575.84 1156.42 603.23 1200.69 639.48 1212.3C670 1222.06 693 1230 727.61 1230.65C737.13 1230.89 746.652 1230.3 756.07 1228.89C756.26 1237.47 756.74 1249.2 757.51 1261.12Z" fill="#CE6D40"/>
</g>
<g id="1 head">
<g id="head">
<path id="Vector_4" d="M763 1220C759.53 1220.44 782.42 1218.55 781 1221C774.75 1222.62 769.82 1226.5 751.13 1229.43C739.738 1231.17 728.203 1231.8 716.69 1231.3C695.32 1230.45 677.18 1228.3 656.95 1220.23C629.935 1209.45 603.955 1196.25 579.33 1180.77C574.06 1177.45 568.988 1173.82 564.14 1169.91C550.54 1158.95 540.007 1149.97 532.54 1142.97C512.34 1124 497 1099.24 485 1072C489.5 1077.86 493 1085.52 497.13 1091.52C512.27 1113.41 533.35 1134.39 552.08 1148.57C581.76 1171.06 619.17 1187.16 655 1203C679.59 1213.88 690.17 1215.06 720 1216C735.64 1216.5 756.45 1220 763 1220Z" fill="#020201"/>
<g id="face">
<path id="Vector_5" d="M755.131 1229H755.001C657.731 1221.52 581.241 1190.71 527.661 1137.42C494.148 1104.04 470.345 1062.17 458.801 1016.3C452.651 991.09 445.141 965.72 435.801 938.71C433.431 931.86 430.961 924.66 428.441 917.3L427.211 913.74C404.301 846.81 392.001 809.89 390.621 804C387.531 790.62 388.301 738.37 388.331 736.15V736C390.691 679 402.561 628.67 423.601 586.34C440.76 551.469 465.333 520.769 495.601 496.39C520.031 476.75 548.451 460.93 580.071 449.39C634.641 429.5 681.211 428.49 690.001 428.49H690.891C691.671 428.44 694.671 428.28 699.531 428.28C725.531 428.28 792.801 432.55 856.831 472.11C893.46 494.706 923.815 526.155 945.101 563.56C971.541 609.5 986.761 666.48 990.331 732.92C990.791 741.46 989.401 755.98 987.681 772.67L986.931 779.81C984.131 806.68 980.641 840.12 980.821 870.3C981.051 908.5 971.241 969.52 965.371 1002.49C963.131 1015.08 961.521 1023.2 961.501 1023.28V1023.47L961.441 1023.65C948.011 1070.05 929.071 1109.65 905.151 1141.43C885.851 1167.05 863.281 1187.65 838.061 1202.66C794.221 1228.74 756.941 1229 755.371 1229H755.131Z" fill="#E68856"/>
<path id="Vector_6" d="M699.531 432.8C746.321 432.8 970.531 447.73 985.841 733.17C986.271 741.17 984.971 755.1 983.201 772.22C980.291 800.38 976.121 837.17 976.321 870.34C976.551 908.49 966.611 969.85 960.941 1001.71C958.681 1014.4 957.091 1022.41 957.091 1022.41C898.921 1223.28 758.871 1224.54 755.371 1224.54H755.301C532.561 1207.42 476.721 1070.67 463.171 1015.23C456.741 988.88 448.931 962.9 440.101 937.23C437.361 929.23 434.471 920.85 431.521 912.23C414.901 863.83 396.611 810 395.001 803C392.001 790 392.831 736.23 392.831 736.23C395.341 675.65 408.351 627.17 427.631 588.38C503.221 436.28 675.291 433 690.001 433H691.001C691.001 433 694.001 432.8 699.531 432.8ZM699.531 423.8C694.871 423.8 691.831 423.94 690.791 424H690.001C681.081 424 633.811 425 578.561 445.21C546.471 456.91 517.621 473 492.811 492.92C462.022 517.699 437.025 548.911 419.571 584.37C398.251 627.28 386.221 678.24 383.841 735.86V736.09C383.751 741.71 383.091 791.35 386.241 805.02C387.631 811.02 400.011 848.12 423.021 915.2L424.511 919.55C426.941 926.63 429.321 933.55 431.601 940.18C440.851 967.05 448.321 992.29 454.441 1017.36C459.194 1036.64 466.157 1055.31 475.191 1073C487.91 1098.02 504.535 1120.85 524.441 1140.64C549.261 1165.32 579.391 1185.51 613.981 1200.64C654.531 1218.39 701.851 1229.45 754.611 1233.5H754.951H755.371C759.371 1233.5 796.231 1232.74 840.371 1206.5C866.101 1191.19 889.101 1170.2 908.751 1144.11C933.001 1111.91 952.191 1071.8 965.751 1024.87L965.861 1024.5L965.941 1024.12C965.941 1024.04 967.571 1015.88 969.821 1003.25C975.721 970.12 985.571 908.79 985.341 870.25C985.161 840.31 988.641 807.01 991.431 780.25C991.681 777.81 991.931 775.42 992.171 773.1C993.921 756.21 995.321 741.51 994.851 732.64C991.231 665.49 975.851 607.84 949.031 561.29C927.37 523.25 896.489 491.269 859.231 468.29C794.201 428.13 725.891 423.8 699.541 423.8H699.531Z" fill="#020201"/>
<path id="Vector_7" d="M431.52 912.28C414.9 863.83 396.61 810 395 803C392 790 392.83 736.23 392.83 736.23C395.34 675.65 408.35 627.17 427.63 588.38C419.63 618.25 406.09 699.57 438.63 846.94C452 907.59 446 921.56 431.52 912.28Z" fill="#CE6D40"/>
</g>
</g>
<path id="smile" d="M628.282 1014.74C628.515 1014.73 628.745 1014.8 628.932 1014.94C629.124 1015.07 629.262 1015.27 629.322 1015.5C629.401 1015.72 629.401 1015.96 629.322 1016.18C629.236 1016.4 629.082 1016.58 628.882 1016.7L619.882 1021.88C619.146 1022.3 618.595 1022.98 618.339 1023.79C618.083 1024.6 618.142 1025.47 618.502 1026.24C622.862 1035.85 647.912 1049.3 656.952 1053.34C686.377 1066.71 718.236 1073.9 750.552 1074.45C782.172 1074.93 805.952 1074.45 834.202 1063.25C842.002 1060.13 847.522 1056.02 850.762 1050.93C850.892 1050.71 851.079 1050.53 851.302 1050.41C851.53 1050.29 851.784 1050.23 852.042 1050.23C852.301 1050.24 852.553 1050.31 852.772 1050.45C852.997 1050.58 853.186 1050.77 853.322 1050.99L854.072 1052.26C854.543 1053.1 854.749 1054.05 854.662 1055.01C854.573 1055.96 854.189 1056.86 853.562 1057.58C843.802 1068.76 826.252 1074.58 811.562 1077.37C766.102 1085.88 720.659 1082.74 675.232 1067.97C651.94 1060.44 630.568 1047.93 612.602 1031.3C612.357 1031.08 612.071 1030.91 611.762 1030.8C611.442 1030.68 611.1 1030.64 610.762 1030.68C610.435 1030.7 610.117 1030.79 609.832 1030.95C609.543 1031.1 609.29 1031.31 609.092 1031.57L604.522 1037.38C604.343 1037.62 604.095 1037.79 603.812 1037.88C603.53 1037.97 603.224 1037.97 602.942 1037.88C602.664 1037.78 602.429 1037.58 602.273 1037.33C602.117 1037.08 602.05 1036.78 602.082 1036.49C603.052 1023.44 616.302 1015.07 628.282 1014.74Z" fill="#020201"/>
<g id="nose">
<path id="Vector_8" d="M816.822 991.859C807.632 1009.12 782.002 1028 766.882 1027.71C759.598 1027.58 752.422 1025.92 745.816 1022.85C739.21 1019.78 733.319 1015.36 728.522 1009.88C725.202 1006.07 722.932 1002.23 723.272 999.049C723.394 997.919 723.935 996.875 724.788 996.124C725.642 995.373 726.745 994.968 727.882 994.989L776.002 997.779C789.879 998.583 803.774 996.569 816.852 991.859H816.822ZM733.822 1005.05C734.367 1006.3 735.295 1007.35 736.472 1008.05C741.138 1011.23 746.435 1013.37 752.002 1014.32C753.003 1014.5 754.035 1014.33 754.931 1013.85C755.827 1013.37 756.535 1012.6 756.942 1011.67V1011.58C757.079 1011.23 757.134 1010.85 757.102 1010.48C757.082 1010.1 756.972 1009.74 756.782 1009.41C756.602 1009.08 756.349 1008.8 756.042 1008.58C755.743 1008.37 755.402 1008.22 755.042 1008.15L734.482 1004.26C734.383 1004.23 734.28 1004.23 734.182 1004.26C734.085 1004.3 733.999 1004.36 733.932 1004.44C733.86 1004.52 733.814 1004.61 733.802 1004.72C733.774 1004.83 733.777 1004.94 733.812 1005.05H733.822Z" fill="#CE6D40"/>
<path id="Vector_9" d="M733.811 1005.05C733.787 1004.94 733.787 1004.83 733.811 1004.73C733.828 1004.63 733.873 1004.53 733.942 1004.45C734.011 1004.37 734.096 1004.31 734.192 1004.27C734.29 1004.24 734.393 1004.24 734.491 1004.27L755.002 1008.15C755.364 1008.21 755.706 1008.36 756.002 1008.58C756.309 1008.8 756.562 1009.08 756.741 1009.41C756.93 1009.74 757.043 1010.1 757.072 1010.48C757.095 1010.85 757.037 1011.23 756.902 1011.58V1011.67C756.498 1012.6 755.792 1013.37 754.897 1013.85C754.003 1014.33 752.972 1014.5 751.971 1014.32C746.406 1013.38 741.108 1011.25 736.431 1008.09C735.262 1007.38 734.345 1006.31 733.811 1005.05Z" fill="#201116"/>
<path id="Vector_10" d="M790.002 843.999C788.872 845.129 789.122 847.399 789.002 848.999C788.342 857.999 783.372 895.329 790.682 915.289C799.002 937.999 802.302 952.659 815.002 970.999C827.702 989.339 792.842 1022.22 770.422 1025.61C770.422 1025.61 764.602 1029.61 779.302 1029.33C794.002 1029.05 816.882 1013.4 822.442 995.699C828.002 977.999 826.882 974.569 822.442 966.789C818.002 959.009 798.002 923.999 796.002 898.999C794.002 873.999 800.002 852.999 792.002 843.999C791.342 843.249 791.002 842.999 790.002 843.999Z" fill="#020201"/>
</g>
<g id="glasses">
<path id="Vector_11" d="M1021 768C1022.56 769 996.432 766.57 994.002 766C990.392 768 978.522 763.54 974.352 763.36C951.212 762.3 929.995 761.607 910.702 761.28C896.882 761.07 880.052 764.42 870.292 765.28C856.685 766.5 846.798 768.547 840.632 771.42C828.312 777.2 818.598 784.97 811.492 794.73C811.13 795.228 810.819 795.76 810.562 796.32L801.252 816.79C801.039 817.263 800.733 817.688 800.352 818.04C799.966 818.389 799.513 818.658 799.022 818.83C798.534 819 798.017 819.068 797.502 819.03C796.983 818.997 796.477 818.861 796.012 818.63C784.172 812.73 772.138 810.633 759.912 812.34C755.372 812.97 751.662 812.79 747.212 815.44C746.915 815.619 746.585 815.737 746.242 815.789C745.899 815.84 745.549 815.824 745.212 815.74C744.527 815.569 743.935 815.139 743.562 814.54C739.862 808.42 737.302 799.69 734.202 794.73C725.075 780.15 712.882 770.483 697.622 765.73C660.662 754.17 621.389 749.483 579.802 751.67C566.295 752.37 556.792 752.72 551.292 752.72C536.872 752.72 497.392 754.2 493.062 768.23C491.209 774.15 490.105 782.25 489.752 792.53C489.711 793.739 489.801 794.95 490.022 796.14C491.792 806.309 492.957 816.573 493.512 826.88C493.842 834.238 494.758 841.558 496.252 848.77C501.732 875.37 507.065 898.223 512.252 917.33C515.852 931.183 523.004 943.857 533.002 954.1C533.834 954.954 534.775 955.694 535.802 956.3C553.802 966.74 569.549 972.953 583.042 974.94C600.021 977.268 617.157 978.271 634.292 977.94C651.483 977.85 668.432 973.889 683.882 966.35C690.867 962.877 697.168 958.172 702.482 952.46C709.988 944.5 714.928 938.45 717.302 934.31C722.022 926.123 727.742 912.143 734.462 892.37C738.462 880.6 740.392 861.37 741.782 852.44C742.892 845.19 745.962 839.44 752.282 836.67C768.042 829.643 782.105 831.9 794.472 843.44C798.778 847.5 800.865 851.796 800.732 856.33C799.972 877.85 801.085 896.967 804.072 913.68C809.342 943.16 831.072 976.19 864.202 980.68C875.142 982.16 889.745 983.183 908.012 983.75C921.565 984.19 937.472 980.647 955.732 973.12C970.625 967 981.605 955.91 988.672 939.85C996.205 922.75 1002.42 907.063 1007.31 892.79C1007.67 891.746 1007.91 890.666 1008.03 889.57C1008.97 881.248 1011.59 873.204 1015.74 865.93L1013.6 892.4C1006.13 922.09 995.262 950.4 973.702 970.98C972.912 971.74 938.992 1000.98 862.182 987.9C851.749 986.02 839.749 980.61 826.182 971.67C813.002 960 788.402 922.44 795.752 861.18C796.095 858.154 795.66 855.09 794.487 852.28C793.315 849.469 791.444 847.005 789.052 845.12C779.282 837.3 762.332 829.12 748.952 849.53C748.422 850.364 748.102 851.315 748.022 852.3C745.612 884.13 737.932 912.73 720.742 939.89C704.602 965.343 681.478 979.896 651.372 983.55C621.253 987.299 590.69 985.073 561.432 977C537.372 970.38 520.995 956.32 512.302 934.82C496.442 895.58 487.309 852.473 484.902 805.5C484.803 803.777 484.072 802.152 482.848 800.936C481.624 799.72 479.995 798.998 478.272 798.91C464.972 798.31 449.949 800.047 433.202 804.12C432.992 804.12 426.002 809.02 422.202 806.07C416.992 801.98 413.012 796.45 407.782 792.07C406.97 791.401 406.08 790.834 405.132 790.38C401.612 788.71 390.232 787.76 387.002 785.52C385.312 784.36 387.462 778.75 387.622 778.25C389.362 772.47 400.312 767.35 404.472 764.88C405.519 764.253 406.711 763.908 407.932 763.88L423.232 763.31C445.352 763.65 464.559 761.403 480.852 756.57C501.852 750.343 514.249 747.11 518.042 746.87C535.382 745.76 551.792 742.87 569.342 742.81C598.946 742.579 628.532 744.37 657.892 748.17C673.161 750.267 688.149 754.053 702.582 759.46C725.012 767.74 738.682 783.06 745.722 804.53C746.022 805.439 746.667 806.194 747.517 806.633C748.368 807.072 749.357 807.161 750.272 806.88C765.605 802.34 780.249 803.833 794.202 811.36C794.407 811.476 794.636 811.544 794.872 811.56C795.108 811.571 795.343 811.53 795.562 811.44C795.781 811.349 795.979 811.213 796.142 811.04C796.304 810.868 796.421 810.658 796.482 810.43C802.175 791.596 812.605 778.12 827.772 770C843.972 761.333 862.449 756.213 883.202 754.64C914.032 752.27 946.442 753.34 977.972 757.04C983.072 757.6 1016.69 765.29 1021 768ZM482.002 770.38C482.002 769.733 481.858 769.095 481.582 768.51C481.305 767.926 480.902 767.41 480.402 767C479.906 766.588 479.326 766.291 478.702 766.13C478.077 765.975 477.426 765.955 476.792 766.07C455.444 769.932 433.742 771.477 412.062 770.68C411.205 770.638 410.35 770.792 409.562 771.13C408.038 771.772 406.672 772.738 405.558 773.96C404.444 775.183 403.61 776.633 403.112 778.21C402.942 778.672 402.921 779.175 403.052 779.65C403.176 780.126 403.454 780.547 403.842 780.85L424.492 797.05C425.026 797.464 425.655 797.739 426.322 797.85C426.991 797.967 427.68 797.912 428.322 797.69C443.873 792.234 460.474 790.44 476.832 792.45C477.485 792.518 478.146 792.45 478.772 792.25C479.71 791.945 480.529 791.351 481.11 790.554C481.692 789.757 482.008 788.797 482.012 787.81L482.002 770.38Z" fill="#020201"/>
<path id="Vector_12" d="M996.002 765L1012 768C1012.16 768 1020.29 771.12 1020.44 771.22C1023.66 773.22 1025.21 776.22 1025.08 780.22C1024.7 792.486 1024.11 805.153 1023.3 818.22C1019.31 833.848 1016.78 849.813 1015.75 865.91C1011.59 873.19 1008.95 881.245 1008 889.58C1007.88 890.676 1007.64 891.756 1007.28 892.8C1002.38 907.066 996.169 922.753 988.642 939.86C981.582 955.92 970.602 967.01 955.702 973.13C937.469 980.656 921.569 984.2 908.002 983.76C889.736 983.2 875.132 982.176 864.192 980.69C831.042 976.17 809.332 943.14 804.062 913.69C801.069 896.983 799.956 877.866 800.722 856.34C800.862 851.8 798.776 847.503 794.462 843.45C782.089 831.91 768.026 829.653 752.272 836.68C745.952 839.48 742.882 845.2 741.772 852.45C740.382 861.4 738.452 880.61 734.452 892.38C727.746 912.126 722.032 926.096 717.312 934.29C714.946 938.416 710.006 944.466 702.492 952.44C697.179 958.151 690.878 962.857 683.892 966.33C668.443 973.869 651.493 977.83 634.302 977.92C617.167 978.251 600.032 977.248 583.052 974.92C569.532 972.92 553.786 966.706 535.812 956.28C534.786 955.674 533.844 954.934 533.012 954.08C522.993 943.837 515.823 931.155 512.212 917.29C507.052 898.183 501.719 875.33 496.212 848.73C494.718 841.518 493.802 834.198 493.472 826.84C492.923 816.54 491.765 806.282 490.002 796.12C489.782 794.93 489.691 793.719 489.732 792.51C490.092 782.23 491.196 774.13 493.042 768.21C497.372 754.21 536.852 752.7 551.272 752.7C556.772 752.7 566.276 752.35 579.782 751.65C621.369 749.463 660.642 754.15 697.602 765.71C712.856 770.49 725.049 780.156 734.182 794.71C737.282 799.71 739.842 808.4 743.542 814.52C743.918 815.116 744.509 815.546 745.192 815.72C745.529 815.804 745.879 815.82 746.222 815.769C746.565 815.717 746.895 815.599 747.192 815.42C751.642 812.77 755.352 812.95 759.892 812.32C772.126 810.606 784.159 812.703 795.992 818.61C796.457 818.841 796.964 818.977 797.482 819.01C797.997 819.049 798.515 818.981 799.002 818.81C799.494 818.638 799.946 818.369 800.332 818.02C800.714 817.668 801.02 817.243 801.232 816.77L810.542 796.3C810.799 795.74 811.11 795.208 811.472 794.71C818.572 784.95 828.286 777.18 840.612 771.4C846.779 768.526 856.666 766.48 870.272 765.26C880.032 764.39 896.862 761.04 910.682 761.26C929.969 761.593 951.186 762.286 974.332 763.34C978.002 763.52 995.462 764.83 996.002 765ZM547.342 770.92C505.492 781.31 513.342 822.8 514.592 854.56C514.941 864.783 516.342 874.943 518.772 884.88C523.372 903.306 527.999 917.086 532.652 926.22C548.852 957.92 578.272 960.12 610.422 961.57C640.112 962.92 664.742 963.04 686.962 945.43C700.092 935.01 707.792 920.43 714.542 905.54C719.782 893.97 721.642 878.8 724.752 866.06C727.752 853.87 727.002 841.4 727.062 829.27C727.062 823.73 724.746 815.67 720.112 805.09C716.539 797.003 712.272 791.243 707.312 787.81C703.162 784.92 692.742 781.7 677.002 776C675.792 775.56 675.282 775 674.002 775C659.732 774.91 645.682 769.29 631.232 768.57C601.339 767.07 582.449 766.356 574.562 766.43C568.242 766.49 559.169 767.986 547.342 770.92ZM999.222 806.33C996.002 770 906.802 777 883.062 778.36C856.442 779.83 820.582 792.42 816.912 823.13C815.179 837.556 814.276 855.63 814.202 877.35C814.162 892.27 817.926 910.696 825.492 932.63C831.572 950.25 840.842 957.11 858.192 962.8C875.653 968.714 894.282 970.337 912.502 967.53C930.236 964.743 940.362 963.056 942.882 962.47C950.882 960.6 956.472 957.12 961.002 952C976.043 935.224 986.845 915.089 992.502 893.28C994.416 885.946 997.459 872.613 1001.63 853.28C1004.23 841.246 1003.42 825.596 999.222 806.33Z" fill="#501C49"/>
<path id="Vector_13" d="M482.003 770.38V787.81C482.003 788.465 481.863 789.113 481.593 789.71C481.333 790.311 480.944 790.847 480.453 791.28C479.963 791.718 479.387 792.049 478.762 792.25C478.137 792.452 477.476 792.52 476.823 792.45C460.468 790.439 443.87 792.232 428.323 797.69C427.681 797.907 426.996 797.962 426.327 797.85C425.659 797.739 425.029 797.464 424.493 797.05L395.843 779.85C395.455 779.547 395.177 779.126 395.053 778.65C394.92 778.175 394.945 777.67 395.123 777.21C396.423 773.69 398.973 772.21 401.963 771C405.256 770.145 408.594 769.477 411.963 769C435.203 769.68 456.883 769.83 476.793 766.07C477.749 765.886 478.739 766.027 479.606 766.468C480.474 766.91 481.169 767.628 481.583 768.51C481.857 769.095 482.001 769.733 482.003 770.38Z" fill="#501C49"/>
<path id="Vector_14" d="M514.591 854.56C513.381 822.8 505.491 781.31 547.341 770.92C559.175 767.987 568.248 766.49 574.561 766.43C582.448 766.35 601.338 767.063 631.231 768.57C645.681 769.29 675.791 774.57 677.001 775C692.741 780.7 703.161 784.92 707.311 787.81C712.271 791.243 716.538 797.003 720.111 805.09C724.778 815.67 727.095 823.73 727.061 829.27C727.001 841.4 727.701 853.87 724.751 866.06C721.641 878.8 719.751 893.97 714.541 905.54C707.791 920.47 700.091 935 687.001 945.43C664.781 963.04 640.151 962.92 610.461 961.57C578.311 960.12 548.891 957.92 532.691 926.22C528.025 917.093 523.398 903.313 518.811 884.88C516.367 874.945 514.953 864.785 514.591 854.56ZM541.891 779.71C506.001 793.86 522.321 867.15 529.001 897.41C534.511 922.41 544.231 941.24 570.401 948.8C585.249 953.158 600.602 955.559 616.071 955.94C652.381 956.75 682.971 951 701.371 919.02C704.205 914.093 707.718 904.55 711.911 890.39C722.631 854.39 731.811 796.09 682.431 783.84C644.965 774.586 606.229 771.572 567.781 774.92C558.331 775.71 551.471 776 541.891 779.71Z" fill="#020201"/>
<path id="Vector_15" d="M1001 800C997.001 789 1001 778 920.001 776C839.001 774 829.001 793 829.001 793C817.001 805 816.001 813 814.201 824.83C812.401 836.66 814.001 834 811.381 864.83C808.761 895.66 812.001 904 814.001 913C816.001 922 826.001 943 832.751 951.21C839.501 959.42 863.001 970 886.001 970C909.001 970 942.001 972 966.001 949C990.001 926 1000 878 1004 856C1008 834 1005 811 1001 800ZM998.921 856.9C995.131 877.73 985.661 923.19 962.921 944.97C940.181 966.75 908.921 964.85 887.161 964.85C865.401 964.85 843.161 954.85 836.741 947.06C830.321 939.27 820.891 919.4 819.001 910.88C817.111 902.36 814.001 894.43 816.521 865.25C819.041 836.07 817.521 838.58 819.191 827.38C820.861 816.18 821.841 808.6 833.191 797.24C833.191 797.24 842.661 779.24 919.361 781.14C996.061 783.04 992.281 793.45 996.071 803.87C999.861 814.29 1002.71 836.06 998.921 856.9Z" fill="#020201"/>
<path id="Vector_16" d="M1029.7 798.52C1030.65 791.415 1030.65 784.215 1029.7 777.11C1029.12 772.31 1026.14 769.19 1020.76 767.75C1007.89 764.29 997.888 762.274 990.762 761.7L997.002 765C997.162 765 1020.29 771.12 1020.45 771.22C1023.66 773.22 1025.2 776.22 1025.08 780.22C1024.81 789.12 1023.5 798.65 1023 807.97C1022.9 808.77 1021.36 827.08 1019 834.97C1016.59 843.03 1010.61 877.6 1010.61 877.6C1010.61 877.6 1008 909.97 1012.53 896.6C1016.78 884.01 1028.21 808.46 1029.53 799.41L1029.59 799.03C1029.68 798.7 1029.7 798.52 1029.7 798.52Z" fill="#020201"/>
</g>
<g id="ear">
<path id="Vector_17" d="M451.271 845.47C451.271 845.47 397.611 741.33 351.811 798.66C306.011 855.99 342.691 960.79 387.001 991C431.311 1021.21 457.001 984 457.001 984L451.271 845.47Z" fill="#E68856"/>
<path id="Vector_18" d="M409.132 940.159C406.592 928.999 406.662 912.209 421.002 894.999C421.002 894.999 402.002 822.999 371.002 818.999C340.002 814.999 346.132 872.669 352.062 886.329C357.992 899.989 371.062 948.819 391.532 950.409C394.532 950.639 397.172 950.879 399.452 951.109C400.873 951.253 402.307 951.056 403.637 950.535C404.966 950.015 406.153 949.185 407.099 948.116C408.045 947.046 408.722 945.766 409.076 944.383C409.429 942.999 409.448 941.551 409.132 940.159Z" fill="#CE6D40"/>
<path id="Vector_19" d="M409.832 952.06C409.512 951.06 409.042 950.06 408.502 948.89C407.962 947.72 407.442 946.39 407.012 945.1C406.189 942.546 405.57 939.931 405.162 937.28C404.725 934.635 404.505 931.96 404.502 929.28C404.452 927.94 404.562 926.6 404.602 925.28C404.642 923.96 404.812 922.61 405.052 921.28C405.853 915.99 407.441 910.85 409.762 906.03C412.079 901.276 414.964 896.82 418.352 892.76L417.662 895.85C416.162 890 414.322 884.05 412.332 878.24C410.342 872.43 408.132 866.67 405.672 861.04C403.25 855.413 400.482 849.943 397.382 844.66C394.383 839.407 390.771 834.53 386.622 830.13C385.622 829.02 384.472 828.13 383.382 827.08C382.812 826.61 382.212 826.18 381.632 825.73C381.342 825.51 381.062 825.27 380.752 825.07L379.832 824.49C379.243 824.092 378.632 823.728 378.002 823.4L376.062 822.4C374.748 821.85 373.385 821.425 371.992 821.13C369.231 820.464 366.352 820.464 363.592 821.13C362.256 821.485 360.979 822.034 359.802 822.76C358.62 823.522 357.538 824.429 356.582 825.46C354.659 827.678 353.139 830.217 352.092 832.96C351.005 835.782 350.191 838.702 349.662 841.68C348.615 847.74 348.203 853.893 348.432 860.04C348.444 860.315 348.346 860.585 348.159 860.788C347.972 860.992 347.713 861.113 347.437 861.125C347.161 861.137 346.892 861.038 346.688 860.852C346.485 860.665 346.364 860.405 346.352 860.13C345.915 853.847 346.132 847.537 347.002 841.3C347.465 838.124 348.232 834.999 349.292 831.97C350.379 828.838 352.011 825.923 354.112 823.36C355.228 822.062 356.509 820.916 357.922 819.95C359.365 818.99 360.942 818.248 362.602 817.75C365.891 816.81 369.358 816.673 372.712 817.35C374.377 817.646 376.011 818.098 377.592 818.7L379.882 819.7C380.612 820.093 381.32 820.527 382.002 821L383.072 821.63C383.422 821.85 383.742 822.1 384.072 822.34C384.742 822.82 385.422 823.29 386.072 823.79C387.312 824.85 388.612 825.86 389.742 827.03C394.306 831.535 398.314 836.571 401.682 842.03C405.071 847.393 408.12 852.964 410.812 858.71C413.532 864.42 415.982 870.24 418.212 876.13C420.442 882.02 422.492 887.95 424.302 894.13C424.444 894.622 424.468 895.141 424.373 895.645C424.277 896.149 424.064 896.623 423.752 897.03L423.612 897.22C420.586 900.822 418.007 904.777 415.932 909C413.889 913.197 412.486 917.676 411.772 922.29C411.552 923.43 411.512 924.6 411.372 925.75C411.232 926.9 411.222 928.07 411.262 929.24C411.286 933.906 412.004 938.544 413.392 943C413.75 944.083 414.164 945.148 414.632 946.19C415.112 947.27 415.702 948.54 416.172 949.95C416.453 950.79 416.389 951.708 415.993 952.502C415.597 953.295 414.903 953.898 414.062 954.18C413.221 954.461 412.303 954.396 411.51 954.001C410.717 953.605 410.113 952.91 409.832 952.07V952.06Z" fill="#020201"/>
<path id="Vector_20" d="M383.001 932.07C381.382 928.695 379.985 925.218 378.821 921.66C377.607 918.116 376.605 914.503 375.821 910.84C374.197 903.385 373.762 895.721 374.531 888.13C374.999 884.235 375.902 880.405 377.221 876.71C377.591 875.79 377.891 874.84 378.321 873.94L379.601 871.24C380.541 869.471 381.593 867.765 382.751 866.13C383.915 864.488 385.173 862.915 386.521 861.42C387.937 859.965 389.433 858.59 391.001 857.3C394.067 854.748 397.384 852.513 400.901 850.63C402.023 849.995 403.351 849.831 404.594 850.175C405.836 850.52 406.891 851.343 407.526 852.465C408.161 853.587 408.325 854.915 407.981 856.158C407.636 857.4 406.813 858.455 405.691 859.09C405.595 859.151 405.495 859.205 405.391 859.25L405.141 859.37C402.091 860.711 399.186 862.36 396.471 864.29C395.127 865.247 393.839 866.278 392.611 867.38C391.419 868.517 390.294 869.723 389.241 870.99C388.183 872.26 387.208 873.596 386.321 874.99L385.081 877.16C384.661 877.88 384.361 878.66 383.981 879.41C382.599 882.516 381.566 885.766 380.901 889.1C379.667 896.036 379.542 903.125 380.531 910.1C380.989 913.643 381.657 917.156 382.531 920.62C383.388 924.094 384.464 927.511 385.751 930.85V930.9C385.886 931.259 385.878 931.655 385.73 932.009C385.582 932.362 385.304 932.645 384.953 932.8C384.602 932.955 384.206 932.97 383.845 932.841C383.484 932.713 383.185 932.451 383.011 932.11L383.001 932.07Z" fill="#020201"/>
<path id="Vector_21" d="M451.271 845.47C451.271 845.47 424.831 794.16 393.271 783.4C379.851 778.83 365.501 781.57 351.851 798.66C306.001 856 342.691 960.79 387.001 991C431.311 1021.21 457.001 984 457.001 984" stroke="black" stroke-width="7" stroke-linecap="round" stroke-linejoin="round"/>
</g>
<g id="eyebrow">
<path id="Vector_22" d="M534.132 736.87C533.788 736.897 533.444 736.835 533.132 736.69C532.829 736.539 532.569 736.315 532.377 736.037C532.184 735.759 532.066 735.436 532.032 735.1C532.005 734.757 532.066 734.412 532.212 734.1C545.798 705.173 567.465 687.487 597.212 681.04C607.165 678.88 620.692 678.3 637.792 679.3C658.482 680.53 682.392 687.67 695.242 704.2C703.242 714.53 710.362 728.5 706.712 740.57C706.327 741.847 705.454 742.921 704.281 743.558C703.109 744.195 701.733 744.343 700.452 743.97C671.977 735.621 642.632 730.598 613.002 729C600.902 728.333 584.568 729.137 564.002 731.41C556.232 732.26 543.282 736.2 534.132 736.87Z" fill="#201116" stroke="black" stroke-width="7" stroke-miterlimit="10"/>
<path id="Vector_23" d="M973.632 748.43L969.452 748.13C969.365 748.131 969.279 748.11 969.202 748.07C952.002 742.01 935.795 738.757 920.582 738.31C910.402 737.99 896.088 739.053 877.642 741.5C863.398 743.359 849.423 746.883 836.002 752C835.1 752.343 834.103 752.34 833.203 751.991C832.304 751.642 831.566 750.972 831.132 750.11C830.84 749.541 830.693 748.909 830.702 748.27C831.162 728.643 839.715 713.527 856.362 702.92C874.002 691.73 902.942 688.54 922.002 692.4C950.402 698.18 970.842 716.72 976.262 745.4C976.333 745.782 976.316 746.175 976.212 746.55C976.108 746.924 975.919 747.27 975.662 747.56C975.41 747.852 975.091 748.079 974.732 748.22C974.385 748.372 974.009 748.443 973.632 748.43Z" fill="#201116" stroke="black" stroke-width="7" stroke-miterlimit="10"/>
</g>
<g id="eye">
<path id="Vector_24" d="M690.883 858.63C684.223 825.48 662.273 806.87 629.693 804.63C608.233 803.16 588.303 807.07 571.583 821.16C556.173 834.16 555.123 851.51 552.773 870.3C549.713 861.593 548.889 850.863 550.303 838.11C553.716 807.23 570.616 790.527 601.003 788C626.233 785.89 662.333 792 679.923 811.27C690.356 822.69 694.539 837.657 692.473 856.17C692.233 858.477 691.703 859.297 690.883 858.63Z" fill="#020201"/>
<path id="Vector_25" d="M690.883 858.63C689.733 869.43 688.883 881.54 684.763 891.05C674.923 914.043 657.28 928.257 631.833 933.69C613.833 937.54 595.433 931.13 580.833 921.07C564.28 909.69 554.927 892.78 552.773 870.34C555.123 851.55 556.173 834.18 571.583 821.2C588.303 807.11 608.233 803.2 629.693 804.67C662.273 806.87 684.223 825.48 690.883 858.63ZM615.933 807.24C605.243 807.05 594.933 812.29 587.163 821.82C579.393 831.35 575.003 844.36 574.723 858C574.595 864.689 575.516 871.356 577.453 877.76C579.259 883.827 582.116 889.53 585.893 894.61C589.343 899.269 593.735 903.15 598.783 906C603.48 908.63 608.752 910.066 614.133 910.18C624.823 910.37 635.133 905.12 642.903 895.6C650.673 886.08 655.103 873.06 655.343 859.41C655.471 852.725 654.553 846.061 652.623 839.66C650.81 833.591 647.951 827.885 644.173 822.8C640.723 818.145 636.335 814.266 631.293 811.41C626.592 808.783 621.318 807.351 615.933 807.24Z" fill="#FDFAE9"/>
<path id="Vector_26" d="M615.933 807.239C621.319 807.352 626.595 808.791 631.293 811.429C636.336 814.278 640.724 818.155 644.173 822.809C647.95 827.894 650.81 833.6 652.623 839.669C654.552 846.071 655.47 852.735 655.343 859.419C655.103 873.069 650.633 886.089 642.903 895.609C635.173 905.129 624.833 910.379 614.133 910.199C608.75 910.073 603.48 908.631 598.783 905.999C593.735 903.152 589.346 899.271 585.903 894.609C582.118 889.533 579.257 883.829 577.453 877.759C575.516 871.356 574.594 864.688 574.723 857.999C574.963 844.349 579.443 831.329 587.173 821.809C594.903 812.289 605.243 807.049 615.933 807.239ZM636.803 830.079C635.795 830.087 634.802 830.316 633.893 830.749C632.957 831.191 632.12 831.816 631.433 832.589C630.723 833.397 630.17 834.329 629.803 835.339C629.43 836.375 629.241 837.468 629.243 838.569C629.248 840.762 630.059 842.876 631.523 844.509C632.201 845.272 633.032 845.883 633.963 846.302C634.894 846.72 635.902 846.938 636.923 846.939C637.929 846.935 638.923 846.71 639.833 846.279C640.768 845.837 641.604 845.212 642.293 844.439C643.002 843.632 643.555 842.699 643.923 841.689C644.306 840.656 644.495 839.561 644.483 838.459C644.484 836.265 643.672 834.149 642.203 832.519C641.526 831.754 640.695 831.141 639.764 830.721C638.833 830.3 637.824 830.082 636.803 830.079Z" fill="#020201"/>
<path id="Vector_27" d="M644.482 838.46C644.482 833.8 641.012 830.05 636.802 830.08C632.592 830.11 629.212 833.91 629.242 838.57C629.272 843.23 632.712 846.97 636.922 846.94C641.132 846.91 644.512 843.12 644.482 838.46Z" fill="#FDFAE9"/>
</g>
<g id="eye_2">
<path id="Vector_28" d="M944.482 884.4C945.909 870.154 945.979 859.074 944.692 851.16C942.026 834.78 932.652 822.394 916.572 814C915.125 813.25 913.552 812.772 911.932 812.59C892.386 810.364 876.892 811.167 865.452 815C847.539 821 835.052 835.604 827.992 858.81C829.559 823.077 847.402 803.334 881.522 799.58C892.856 798.34 902.039 798.36 909.072 799.64C930.842 803.59 949.002 819.09 952.822 841.76C955.196 855.82 952.416 870.034 944.482 884.4Z" fill="#020201"/>
<path id="Vector_29" d="M944.482 884.4C941.735 893.494 939.105 899.887 936.592 903.58C909.072 944.13 845.242 956.42 830.252 895C827.058 881.887 826.305 869.824 827.992 858.81C835.052 835.604 847.538 821 865.452 815C876.892 811.16 892.385 810.357 911.932 812.59C914.377 813.105 916.751 813.914 919.002 815C935.062 823.39 942.002 834.78 944.692 851.16C945.985 859.054 945.915 870.134 944.482 884.4ZM869.662 819C860.722 819.38 852.352 824.65 846.392 833.66C840.432 842.67 837.392 854.66 837.892 867.04C838.136 873.083 839.254 879.058 841.212 884.78C843.014 890.128 845.698 895.137 849.152 899.6C852.215 903.586 856.091 906.875 860.522 909.25C864.534 911.375 869.034 912.41 873.572 912.25C882.522 911.87 890.892 906.6 896.842 897.59C902.792 888.58 905.842 876.59 905.342 864.21C905.084 858.184 903.959 852.226 902.002 846.52C900.196 841.172 897.509 836.163 894.052 831.7C890.994 827.713 887.121 824.423 882.692 822.05C878.689 819.914 874.197 818.863 869.662 819Z" fill="#FDFAE9"/>
<path id="Vector_30" d="M869.671 819C874.209 818.843 878.708 819.878 882.721 822C887.151 824.373 891.024 827.662 894.081 831.65C897.535 836.128 900.212 841.155 902.001 846.52C903.958 852.242 905.073 858.217 905.311 864.26C905.831 876.62 902.781 888.64 896.821 897.64C890.861 906.64 882.491 911.92 873.551 912.3C869.011 912.458 864.508 911.424 860.491 909.3C856.062 906.927 852.189 903.637 849.131 899.65C845.674 895.187 842.987 890.178 841.181 884.83C839.228 879.111 838.113 873.139 837.871 867.1C837.351 854.73 840.411 842.72 846.361 833.71C852.311 824.7 860.721 819.42 869.671 819ZM895.831 843.83C895.867 842.862 895.708 841.898 895.363 840.993C895.017 840.089 894.493 839.263 893.822 838.566C893.15 837.869 892.345 837.314 891.454 836.936C890.563 836.557 889.604 836.362 888.636 836.362C887.668 836.362 886.71 836.557 885.819 836.936C884.928 837.314 884.123 837.869 883.451 838.566C882.78 839.263 882.255 840.089 881.91 840.993C881.565 841.898 881.405 842.862 881.441 843.83C881.438 844.777 881.625 845.716 881.991 846.59C882.353 847.459 882.879 848.25 883.541 848.92C884.548 849.926 885.831 850.612 887.227 850.889C888.624 851.167 890.071 851.024 891.386 850.48C892.702 849.935 893.826 849.012 894.617 847.829C895.408 846.645 895.831 845.254 895.831 843.83Z" fill="#020201"/>
<path id="Vector_31" d="M888.632 851.07C890.056 851.07 891.448 850.648 892.632 849.856C893.816 849.065 894.739 847.941 895.284 846.625C895.829 845.31 895.971 843.862 895.693 842.465C895.415 841.069 894.73 839.786 893.723 838.779C892.716 837.772 891.433 837.086 890.036 836.808C888.64 836.53 887.192 836.673 885.876 837.218C884.561 837.763 883.436 838.686 882.645 839.87C881.854 841.054 881.432 842.446 881.432 843.87C881.432 845.779 882.19 847.611 883.54 848.961C884.891 850.311 886.722 851.07 888.632 851.07Z" fill="#FDFAE9"/>
</g>
</g>
</g>
<g id="Hair 3_2">
<g id="hair 3">
<path id="Vector_32" d="M346.999 797.5C346.401 797.498 345.81 797.379 345.259 797.15C344.517 796.838 343.873 796.333 343.393 795.688C342.912 795.043 342.614 794.28 342.529 793.48C340.24 772.395 339.008 751.209 338.839 730C338.419 655.12 353.379 592.38 383.359 543.26L354.359 552.26C353.924 552.391 353.473 552.458 353.019 552.46C352.187 552.46 351.372 552.23 350.663 551.795C349.955 551.36 349.381 550.737 349.005 549.995C348.629 549.254 348.466 548.422 348.533 547.593C348.601 546.765 348.897 545.971 349.389 545.3C352.099 541.6 358.689 526.9 363.499 516.16C366.649 509.16 369.359 503.09 371.029 499.88C394.479 454.88 446.719 450.39 471.819 448.25C474.709 448 477.209 447.79 479.279 447.55C479.933 447.478 480.564 447.267 481.13 446.931C481.696 446.594 482.183 446.141 482.559 445.6C482.942 445.053 483.204 444.429 483.327 443.772C483.449 443.115 483.429 442.439 483.269 441.79L483.209 441.57C483.049 440.87 482.869 440.15 482.719 439.38C478.504 420.258 480.905 400.271 489.529 382.69C502.589 356.24 529.469 335.17 569.429 320.07C569.936 319.877 570.475 319.778 571.019 319.78C571.796 319.777 572.561 319.975 573.238 320.355C573.916 320.734 574.484 321.283 574.887 321.948C575.29 322.612 575.514 323.37 575.537 324.147C575.56 324.924 575.381 325.693 575.019 326.38C574.839 326.73 557.609 359.63 553.339 384.57C562.778 370.358 574.997 358.204 589.259 348.84C612.799 333.32 641.329 325.45 674.069 325.45C681.631 325.463 689.187 325.86 696.709 326.64H696.809C704.469 327.43 712.469 328.64 720.599 330.21C721.509 330.391 722.341 330.848 722.982 331.519C723.623 332.189 724.042 333.042 724.181 333.959C724.32 334.877 724.172 335.815 723.758 336.645C723.345 337.476 722.685 338.159 721.869 338.6C721.68 338.694 721.496 338.797 721.319 338.91L721.229 338.97C719.229 340.11 710.729 344.97 702.399 349.97C710.228 349.01 718.111 348.552 725.999 348.6C755.259 348.6 802.399 355.01 860.729 385.6C891.389 401.66 923.609 409.81 956.489 409.81C1014.06 409.81 1054.14 384.65 1054.49 384.4C1055.21 383.938 1056.05 383.692 1056.91 383.69C1057.55 383.693 1058.18 383.83 1058.76 384.093C1059.34 384.357 1059.85 384.74 1060.28 385.218C1060.7 385.696 1061.01 386.258 1061.2 386.867C1061.39 387.476 1061.45 388.118 1061.37 388.75C1060.46 395.06 1059.15 401.305 1057.46 407.45C1057.46 407.45 1057.24 408.29 1057.13 408.65C1056.72 410.19 1056.23 411.9 1055.68 413.71C1051.74 427.17 1046.14 440.083 1039 452.15C1024.38 476.51 1005 492.22 981.479 498.83L981.269 498.9C979.379 499.42 977.499 499.9 975.679 500.26L975.479 500.31L975.209 500.39H975.139C974.613 500.57 974.139 500.875 973.759 501.28C973.155 501.882 972.768 502.668 972.662 503.514C972.555 504.36 972.733 505.217 973.169 505.95C978.668 515.345 985.133 524.139 992.459 532.19C993.049 532.834 993.439 533.636 993.581 534.498C993.723 535.36 993.611 536.244 993.259 537.044C992.907 537.843 992.33 538.523 991.599 539C990.867 539.477 990.012 539.731 989.139 539.73H980.899C1018.65 595.24 1029.58 659.59 1031.99 704.64C1034.71 755.45 1027.69 792.29 1027.39 793.83C1027.19 794.854 1026.64 795.777 1025.84 796.441C1025.03 797.105 1024.02 797.469 1022.98 797.47C1021.94 797.471 1020.93 797.111 1020.12 796.451C1019.32 795.79 1018.77 794.871 1018.57 793.85L1017.38 787.85C1015.22 777.03 1005.06 769.18 993.229 769.18C992.589 769.18 991.939 769.18 991.299 769.25H990.999C990.013 769.25 989.054 768.927 988.269 768.33L718.409 563C702.999 578.34 636.669 642.89 580.469 673.45C494.469 720.23 393.149 775.33 393.149 775.33C392.833 775.506 392.497 775.644 392.149 775.74L391.069 776.02C376.058 779.964 362.015 786.945 349.809 796.53C349.009 797.163 348.018 797.505 346.999 797.5Z" fill="#CE44A2"/>
<path id="Vector_33" d="M570.999 324.32C570.999 324.32 551.159 362 548.219 388.38C548.112 389.209 548.305 390.049 548.764 390.748C549.222 391.447 549.916 391.958 550.719 392.19C551.071 392.302 551.439 392.359 551.809 392.36C552.46 392.363 553.099 392.179 553.649 391.83C554.117 391.529 554.508 391.121 554.789 390.64C567.259 370.15 600.999 330 673.999 330C681.438 330.014 688.871 330.408 696.269 331.18C703.709 331.94 711.506 333.11 719.659 334.69L718.929 335.11C715.659 336.96 702.039 344.73 692.239 351.04C691.912 351.244 691.634 351.517 691.424 351.839C691.214 352.162 691.077 352.527 691.023 352.908C690.969 353.289 690.998 353.677 691.11 354.045C691.221 354.414 691.412 354.753 691.669 355.04C691.963 355.391 692.344 355.658 692.774 355.815C693.204 355.971 693.668 356.011 694.119 355.93H694.199C704.687 353.997 715.334 353.05 725.999 353.1C756.829 353.1 802.479 360.1 858.639 389.55C893.959 408.05 927.449 414.27 956.489 414.27C1016.04 414.27 1056.96 388.15 1056.96 388.15C1056.07 394.256 1054.8 400.301 1053.16 406.25C1053.06 406.63 1052.96 407.01 1052.85 407.4C1052.42 408.994 1051.94 410.66 1051.42 412.4C1047.55 425.509 1042.09 438.091 1035.14 449.86C1023.56 469.15 1006.14 487.3 980.139 494.56H980.049C978.319 495.04 976.539 495.48 974.729 495.86L974.509 495.91L974.219 495.98H974.099C973.919 496.026 973.742 496.083 973.569 496.15C972.399 496.572 971.342 497.256 970.479 498.15C969.204 499.462 968.395 501.154 968.175 502.97C967.954 504.785 968.335 506.622 969.259 508.2C974.919 517.869 981.575 526.918 989.119 535.2H972.239C1052 644 1023 793 1023 793L1021.81 787C1019.21 774 1007.12 764.71 993.249 764.71C992.509 764.71 991.759 764.71 990.999 764.79L717.999 557C717.999 557 641.809 635 578.319 669.5C492.289 716.28 390.999 771.38 390.999 771.38L389.919 771.66C374.296 775.743 359.684 783.008 346.999 793C344.728 772.075 343.506 751.048 343.339 730C342.849 643.23 363.019 580.51 393.869 535.3L352.999 548C357.719 541.57 370.599 510.46 374.999 502C399.899 454.18 459.219 454.43 479.779 452.06C481.07 451.909 482.314 451.485 483.429 450.817C484.543 450.148 485.503 449.251 486.244 448.183C486.986 447.115 487.492 445.902 487.729 444.624C487.966 443.346 487.928 442.033 487.619 440.77C487.449 440.06 487.269 439.32 487.109 438.53C481.779 413.53 481.649 358.09 570.999 324.32ZM570.999 315.32H570.339C569.404 315.388 568.486 315.604 567.619 315.96C470.919 352.59 472.919 415.11 478.299 440.35C478.479 441.22 478.669 442 478.829 442.7V442.85C478.829 442.92 478.829 442.97 478.829 443.04C478.817 443.057 478.803 443.071 478.785 443.081C478.768 443.092 478.749 443.098 478.729 443.1C476.729 443.33 474.259 443.54 471.399 443.78C445.489 445.99 391.589 450.59 366.999 497.78C365.269 501.11 362.529 507.22 359.359 514.3C354.899 524.25 348.149 539.3 345.719 542.61C344.715 543.953 344.106 545.549 343.96 547.22C343.815 548.89 344.139 550.567 344.895 552.063C345.652 553.559 346.812 554.814 348.244 555.687C349.675 556.559 351.322 557.014 352.999 557C353.908 557.001 354.812 556.863 355.679 556.59L373.679 550.98C347.159 599.21 333.939 659.3 334.339 729.98C334.449 750.3 335.699 771.81 338.049 793.92C338.218 795.523 338.814 797.051 339.775 798.344C340.736 799.638 342.027 800.649 343.513 801.274C344.998 801.898 346.624 802.112 348.221 801.893C349.817 801.675 351.326 801.031 352.589 800.03C364.31 790.824 377.794 784.119 392.209 780.33L393.259 780.06C393.956 779.877 394.628 779.608 395.259 779.26C395.259 779.26 496.549 724.16 582.579 677.38C636.399 648.16 699.239 588.2 718.799 568.92L985.549 772C987.12 773.179 989.034 773.811 990.999 773.8H991.649C992.179 773.8 992.719 773.74 993.249 773.74C1002.94 773.74 1011.25 780.07 1012.98 788.74L1014.17 794.74C1014.57 796.786 1015.67 798.628 1017.28 799.952C1018.89 801.276 1020.91 802 1023 802C1025.08 801.995 1027.1 801.266 1028.71 799.938C1030.31 798.61 1031.41 796.766 1031.81 794.72C1032.12 793.15 1039.24 755.79 1036.49 704.43C1035.1 675.479 1030.41 646.782 1022.49 618.9C1015 592.579 1003.83 567.45 989.299 544.26C991.035 544.24 992.729 543.718 994.175 542.757C995.622 541.796 996.759 540.437 997.451 538.844C998.142 537.251 998.358 535.492 998.072 533.779C997.786 532.066 997.01 530.472 995.839 529.19C988.926 521.589 982.801 513.307 977.559 504.47C979.189 504.11 980.859 503.7 982.559 503.23L982.859 503.14C1007.51 496.2 1027.73 479.82 1042.95 454.46C1050.3 442.059 1056.07 428.79 1060.13 414.96C1060.69 413.1 1061.18 411.4 1061.61 409.8C1061.74 409.37 1061.84 408.95 1061.95 408.54C1063.66 402.292 1064.99 395.947 1065.95 389.54C1066.02 389.064 1066.06 388.582 1066.06 388.1C1066.06 385.713 1065.11 383.424 1063.42 381.736C1061.74 380.049 1059.45 379.1 1057.06 379.1C1055.32 379.096 1053.62 379.6 1052.16 380.55C1050.4 381.64 1011.55 405.22 956.589 405.22C924.449 405.22 892.929 397.22 862.919 381.53C803.709 350.6 755.809 344.1 725.999 344.1C724.389 344.1 722.799 344.1 721.219 344.1L723.359 342.88L723.539 342.78L723.959 342.54C725.586 341.655 726.901 340.289 727.723 338.629C728.546 336.968 728.836 335.095 728.553 333.263C728.271 331.432 727.431 329.733 726.147 328.397C724.863 327.061 723.198 326.155 721.379 325.8C713.119 324.18 704.969 322.96 697.179 322.17H697.049C689.39 321.392 681.697 321.002 673.999 321C640.369 321 610.999 329.12 586.709 345.13C578.148 350.761 570.275 357.372 563.249 364.83C567.652 352.463 572.86 340.397 578.839 328.71C579.595 327.355 579.987 325.826 579.978 324.274C579.968 322.722 579.558 321.199 578.786 319.852C578.014 318.506 576.907 317.382 575.572 316.589C574.238 315.797 572.721 315.363 571.169 315.33L570.999 315.32Z" fill="#17091D"/>
<path id="Vector_34" d="M427.339 1126.5C426.077 1126.5 424.857 1126.05 423.904 1125.22C422.95 1124.39 422.327 1123.25 422.149 1122L405.339 1005.3C405.231 1004.55 405.285 1003.8 405.497 1003.07C405.71 1002.35 406.075 1001.68 406.568 1001.11C407.061 1000.54 407.671 1000.09 408.356 999.774C409.041 999.461 409.786 999.3 410.539 999.3C410.81 999.3 411.081 999.321 411.349 999.36C414.015 999.783 416.71 1000 419.409 1000.01C423.207 1000.04 426.99 999.514 430.639 998.46C437.944 996.4 444.232 991.718 448.299 985.31C448.834 984.277 449.698 983.45 450.754 982.961C451.81 982.472 452.999 982.347 454.133 982.607C455.268 982.867 456.284 983.497 457.022 984.397C457.759 985.297 458.177 986.417 458.209 987.58C459.489 1034.94 513.769 1114.27 514.319 1115.07C514.851 1115.84 515.166 1116.75 515.23 1117.68C515.295 1118.62 515.107 1119.56 514.686 1120.4C514.265 1121.24 513.627 1121.95 512.838 1122.46C512.049 1122.97 511.137 1123.25 510.199 1123.29L427.549 1126.48L427.339 1126.5Z" fill="#CE44A2"/>
<path id="Vector_35" d="M452.999 987.73C454.339 1037.19 509.999 1118.06 509.999 1118.06L457.289 1120.06L427.289 1121.22L410.489 1004.52C413.422 1004.99 416.388 1005.23 419.359 1005.24C423.662 1005.27 427.947 1004.67 432.079 1003.47C447.079 999.02 452.909 987.7 452.909 987.7M452.909 977.05C450.976 977.036 449.079 977.57 447.437 978.589C445.795 979.609 444.474 981.072 443.629 982.81C440.232 987.989 435.068 991.756 429.099 993.41C425.937 994.324 422.66 994.775 419.369 994.75C416.944 994.741 414.523 994.54 412.129 994.15C411.589 994.07 411.044 994.03 410.499 994.03C408.992 994.027 407.503 994.349 406.132 994.974C404.761 995.598 403.541 996.511 402.555 997.65C401.569 998.789 400.84 1000.13 400.418 1001.57C399.996 1003.02 399.89 1004.54 400.109 1006.03L416.999 1122.74C417.36 1125.24 418.608 1127.52 420.516 1129.18C422.425 1130.83 424.864 1131.74 427.389 1131.74H427.799L457.749 1130.58L510.459 1128.58C512.337 1128.51 514.162 1127.93 515.741 1126.91C517.321 1125.9 518.599 1124.47 519.441 1122.79C520.283 1121.11 520.658 1119.23 520.528 1117.36C520.397 1115.48 519.765 1113.68 518.699 1112.13C518.159 1111.35 464.749 1033.24 463.499 987.48C463.456 985.115 462.622 982.832 461.13 980.996C459.638 979.161 457.575 977.877 455.269 977.35C454.523 977.192 453.762 977.111 452.999 977.11L452.909 977.05Z" fill="#17091D"/>
<path id="Vector_36" d="M509.999 1118.06L457.289 1120.06C447.399 1086.98 438.089 1038.06 432.129 1003.47C447.129 999.02 452.959 987.7 452.959 987.7C454.299 1037.19 509.999 1118.06 509.999 1118.06Z" fill="#9C398C"/>
<path id="Vector_37" d="M578.32 669.5C492.29 716.28 391 771.38 391 771.38L389.92 771.66C374.297 775.742 359.685 783.008 347 793C344.729 772.074 343.507 751.048 343.34 730C380.88 707.24 447 698 487 623C505.95 587.48 589 559 589 559C589 559 577.66 633.86 578.32 669.5Z" fill="#9C398C"/>
<path id="Vector_38" d="M1054.09 405.891C1053.56 407.891 1053.14 409.531 1052.87 410.701C1052.41 411.261 1051.94 411.811 1051.46 412.371C1047.59 425.48 1042.13 438.061 1035.18 449.831C1023.6 469.121 1006.18 487.271 980.178 494.531H980.088C978.178 494.991 976.388 495.421 974.768 495.831L974.548 495.881L974.258 495.951H974.138C973.958 495.997 973.781 496.053 973.608 496.121C972.185 496.613 970.931 497.497 969.988 498.671C945.448 487.101 904.988 451.831 882.168 430.981C872.428 422.091 865.888 415.821 865.168 415.131C914.678 456.021 1002.8 427.181 1053.17 406.181C1053.5 406.131 1053.79 406.001 1054.09 405.891Z" fill="#9C398C"/>
<path id="Vector_39" d="M1053.2 406.25C1053.5 406.13 1053.79 406 1054.09 405.89C1053.56 407.89 1053.14 409.53 1052.87 410.7C1052.41 411.26 1051.94 411.81 1051.46 412.37C1030.25 437 986.78 464 900.09 436.89C893.797 434.89 887.827 432.943 882.18 431.05C760.79 389.78 778.93 359.5 694 356L694.16 355.9H694.24C718.64 351.25 777.75 347.17 858.68 389.56C966.4 446 1057 388.15 1057 388.15C1056.11 394.256 1054.84 400.301 1053.2 406.25Z" fill="#D969BD"/>
<path id="Vector_40" d="M719.698 334.68L718.968 335.1C691.868 337.74 642.138 342.71 619.968 388C587.968 453.57 553.968 512 553.968 512C553.968 512 549.158 466.75 546.248 442C544.828 429.91 547.448 409.8 550.508 392.38C550.57 392.336 550.627 392.286 550.678 392.23C551.163 392.387 551.677 392.436 552.183 392.374C552.689 392.312 553.175 392.14 553.608 391.87C554.077 391.569 554.467 391.161 554.748 390.68C568.408 368.21 607.628 322.1 696.248 331.21C703.728 331.943 711.545 333.1 719.698 334.68Z" fill="#D969BD"/>
<path id="Vector_41" d="M518.789 512C518.789 512 455.269 532.76 432.129 585.38" stroke="#17091D" stroke-width="9" stroke-linecap="round" stroke-linejoin="round"/>
<path id="Vector_42" d="M640.059 405.89C640.059 405.89 704.499 380.5 758.499 396.5" stroke="#17091D" stroke-width="9" stroke-linecap="round" stroke-linejoin="round"/>
<path id="Vector_43" d="M498.6 789.94C386.14 789.94 324.6 713.62 303.39 680.8C300.442 676.344 297.729 671.738 295.26 667C294.82 666.112 294.686 665.104 294.878 664.132C295.07 663.16 295.578 662.278 296.322 661.624C297.066 660.97 298.006 660.579 298.994 660.514C299.983 660.448 300.966 660.71 301.79 661.26C301.94 661.35 322.23 673.68 394.15 673.68C466.07 673.68 551.72 546.11 552.57 544.83C552.983 544.214 553.541 543.71 554.195 543.361C554.849 543.012 555.579 542.83 556.32 542.83H556.59L718.5 552.44C719.686 552.512 720.796 553.05 721.588 553.935C722.38 554.821 722.79 555.983 722.73 557.17C722.73 558.01 721.56 578.05 714.65 606.45C700.22 665.8 658.31 768.14 539.76 786.66C526.145 788.812 512.384 789.909 498.6 789.94Z" fill="#CE44A2"/>
<path id="Vector_44" d="M556.319 547.32L718.239 556.93C718.239 556.93 717.169 577.07 710.239 605.38C695.529 666.05 653.999 764.25 539.059 782.21C525.676 784.336 512.149 785.416 498.599 785.44C387.919 785.44 327.479 709.75 307.169 678.36C304.311 674.033 301.681 669.561 299.289 664.96C299.289 664.96 319.049 678.14 394.149 678.14C469.249 678.14 556.319 547.32 556.319 547.32ZM556.319 538.32C554.837 538.319 553.379 538.684 552.072 539.381C550.766 540.079 549.652 541.089 548.829 542.32C533.126 565.083 515.698 586.607 496.699 606.7C457.749 647.55 422.279 669.14 394.149 669.14C326.789 669.14 305.719 658.25 304.199 657.41C302.743 656.359 300.994 655.79 299.199 655.78C297.643 655.775 296.113 656.173 294.757 656.935C293.402 657.697 292.267 658.798 291.463 660.129C290.659 661.461 290.214 662.978 290.171 664.533C290.129 666.087 290.489 667.627 291.219 669C293.771 673.905 296.574 678.675 299.619 683.29C316.741 709.527 338.451 732.464 363.709 751C403.469 779.86 448.859 794.49 498.599 794.49C512.614 794.459 526.606 793.343 540.449 791.15C593.519 782.86 636.889 757.37 669.369 715.37C697.629 678.79 711.999 636.53 718.999 607.51C725.999 578.71 727.159 558.26 727.199 557.41C727.324 555.037 726.507 552.711 724.923 550.939C723.34 549.166 721.121 548.092 718.749 547.95L556.829 538.34H556.299L556.319 538.32Z" fill="#17091D"/>
<path id="Vector_45" d="M710.278 605.38C695.528 666.05 653.998 764.25 539.058 782.21C402.458 803.56 329.828 713.38 307.168 678.36C311.498 679.61 315.818 680.85 320.108 682.29C345.478 690.76 382.108 695.92 421.738 687.23C438.591 683.58 454.589 676.737 468.868 667.07C549.868 612.17 556.428 589.58 558.278 610.25C560.128 630.92 500.418 672.09 524.708 680.62C548.998 689.15 659.708 641.22 686.498 624.23C696.558 617.85 704.188 610.92 710.278 605.38Z" fill="#D969BD"/>
<path id="Vector_46" d="M550.848 554.84L568.668 529L719.918 533.13L717.268 567.13L567.818 562.23L550.848 554.84Z" fill="#CE44A2"/>
<path id="Vector_47" d="M668.83 587.891C668.83 587.891 653 652.441 612.18 673.521" stroke="#17091D" stroke-width="9" stroke-linecap="round" stroke-linejoin="round"/>
<path id="Vector_48" d="M944.468 786.341C930.684 786.31 916.923 785.214 903.308 783.06C784.758 764.54 742.848 662.2 728.418 602.85C721.508 574.45 720.418 554.41 720.338 553.57C720.278 552.384 720.688 551.221 721.48 550.336C722.272 549.45 723.382 548.913 724.568 548.841L886.478 539.23H886.748C887.489 539.23 888.219 539.412 888.873 539.761C889.527 540.11 890.085 540.615 890.498 541.23C891.348 542.52 977.098 670.04 1048.92 670.04C1120.74 670.04 1141.13 657.721 1141.33 657.591C1142.15 657.043 1143.13 656.783 1144.11 656.852C1145.1 656.921 1146.03 657.314 1146.77 657.97C1147.5 658.633 1148 659.521 1148.18 660.496C1148.36 661.47 1148.22 662.477 1147.77 663.36C1145.3 668.112 1142.59 672.732 1139.64 677.201C1118.41 710.021 1056.89 786.341 944.448 786.341H944.468Z" fill="#CE44A2"/>
<path id="Vector_49" d="M886.749 543.721C886.749 543.721 973.829 674.541 1048.92 674.541C1124.01 674.541 1143.78 661.361 1143.78 661.361C1141.39 665.963 1138.76 670.435 1135.9 674.761C1115.59 706.151 1055.15 781.841 944.469 781.841C930.915 781.817 917.384 780.737 903.999 778.611C788.999 760.611 747.529 662.461 732.779 601.781C725.889 573.471 724.779 553.331 724.779 553.331L886.699 543.721M886.699 534.721H886.169L724.299 544.351C721.926 544.493 719.707 545.567 718.124 547.339C716.541 549.111 715.723 551.438 715.849 553.811C715.849 554.671 717.039 575.111 724.049 603.911C731.099 632.911 745.439 675.191 773.699 711.721C806.179 753.721 849.549 779.221 902.619 787.511C916.462 789.695 930.454 790.809 944.469 790.841C994.209 790.841 1039.6 776.211 1079.36 747.361C1104.61 728.818 1126.33 705.883 1143.46 679.651C1146.5 675.034 1149.3 670.264 1151.85 665.361C1152.57 663.991 1152.92 662.46 1152.87 660.914C1152.83 659.369 1152.39 657.861 1151.59 656.536C1150.79 655.212 1149.66 654.115 1148.32 653.352C1146.97 652.589 1145.45 652.186 1143.91 652.181C1142.11 652.195 1140.37 652.764 1138.91 653.811C1137.39 654.661 1116.32 665.541 1048.96 665.541C1020.78 665.541 985.259 643.891 946.229 602.921C927.282 582.886 909.898 561.43 894.229 538.741C893.406 537.509 892.292 536.5 890.985 535.802C889.678 535.104 888.22 534.74 886.739 534.741L886.699 534.721Z" fill="#17091D"/>
<path id="Vector_50" d="M732.789 601.78C747.539 662.46 788.999 760.65 903.999 778.61C1040.6 799.96 1113.23 709.78 1135.89 674.76C1131.56 676.01 1127.24 677.26 1122.95 678.69C1097.58 687.17 1060.95 692.32 1021.32 683.63C1004.46 679.984 988.466 673.141 974.189 663.47C893.139 608.58 886.629 585.99 884.779 606.65C882.929 627.31 942.649 668.5 918.359 677C894.069 685.5 783.359 637.59 756.569 620.6C746.509 614.25 738.879 607.32 732.789 601.78Z" fill="#D969BD"/>
<path id="Vector_51" d="M892.218 551.25L874.388 525.4L723.148 529.53L725.798 563.53L875.248 558.63L892.218 551.25Z" fill="#CE44A2"/>
<path id="Vector_52" d="M774.238 584.29C774.238 584.29 790.038 648.85 830.888 669.93" stroke="#17091D" stroke-width="9" stroke-linecap="round" stroke-linejoin="round"/>
</g>
</g>
</g>
</svg>
